<svg xmlns="http://www.w3.org/2000/svg" width="22.908" height="24.827" viewBox="0 0 22.908 24.827">
  <g id="timer" transform="translate(-19.78 0.002)" opacity="0.55">
    <path id="Path_1011" data-name="Path 1011" d="M31.234,23.127A9.756,9.756,0,0,1,30.38,3.654l-.766.714a.849.849,0,1,0,1.158,1.241L32.76,3.755a1.144,1.144,0,0,0,0-1.673L30.773.227a.849.849,0,1,0-1.159,1.241l.535.5a11.455,11.455,0,0,0-7.015,19.5,11.378,11.378,0,0,0,8.094,3.355h0a.849.849,0,0,0,0-1.7Z" fill="#1210de"/>
    <circle id="Ellipse_66" data-name="Ellipse 66" cx="0.849" cy="0.849" r="0.849" transform="translate(40.99 12.522)" fill="#1210de"/>
    <circle id="Ellipse_67" data-name="Ellipse 67" cx="0.849" cy="0.849" r="0.849" transform="translate(33.134 22.768)" fill="#1210de"/>
    <path id="Path_1012" data-name="Path 1012" d="M450.639,314.89a.849.849,0,1,0,.849.849A.849.849,0,0,0,450.639,314.89Z" transform="translate(-409.159 -299.622)" fill="#1210de"/>
    <path id="Path_1013" data-name="Path 1013" d="M348.739,447.69a.849.849,0,1,0,.849.849A.849.849,0,0,0,348.739,447.69Z" transform="translate(-312.2 -425.983)" fill="#1210de"/>
    <path id="Path_1014" data-name="Path 1014" d="M428.779,367.62a.849.849,0,1,0,.849.849A.849.849,0,0,0,428.779,367.62Z" transform="translate(-388.359 -349.796)" fill="#1210de"/>
    <path id="Path_1015" data-name="Path 1015" d="M394,412.91a.849.849,0,1,0,.849.849A.849.849,0,0,0,394,412.91Z" transform="translate(-355.265 -392.889)" fill="#1210de"/>
    <path id="Path_1016" data-name="Path 1016" d="M243.985,166.442a.849.849,0,0,0-.849-.849h-2.911a.607.607,0,0,1-.607-.607v-4.367a.849.849,0,1,0-1.7,0v4.367a2.307,2.307,0,0,0,2.3,2.3h2.911A.849.849,0,0,0,243.985,166.442Z" transform="translate(-207.562 -152.024)" fill="#1210de"/>
  </g>
</svg>
