<svg id="Layer_1" height="512" viewBox="0 0 512 512" width="512" xmlns="http://www.w3.org/2000/svg" data-name="Layer 1"><g fill-rule="evenodd"><g fill="#333"><path d="m69.134 386.921 66.6 96.113a3.415 3.415 0 0 0 2.2 1.412 3.469 3.469 0 0 0 2.6-.559l45.31-31.4a3.41 3.41 0 0 0 1.414-2.2 3.464 3.464 0 0 0 -.56-2.6l-3.9-5.624-.012.009-.188-.271c-.084-.12-.162-.243-.237-.367l-62.261-89.856a3.407 3.407 0 0 0 -2.2-1.414 3.467 3.467 0 0 0 -2.6.559l-45.309 31.4a3.412 3.412 0 0 0 -1.415 2.2 3.471 3.471 0 0 0 .558 2.598z"/><path d="m134 349.159c78.528-41.546 81.031-40.525 122.76-23.28a575.615 575.615 0 0 0 60.725 21.821 30.494 30.494 0 0 1 18.136 14.78 30.839 30.839 0 0 1 2.86 7.461l53.168-34.87a47.07 47.07 0 0 1 48.273-2.178 36.307 36.307 0 0 1 10.538 8.586 24.764 24.764 0 0 1 5.563 11.878c1.317 8.526-2.329 17.4-13.251 24.567-6.821 4.474-15.754 11.081-26 18.66-39.2 29-96.808 71.609-126.417 62.436l-87.632-27.144a3.486 3.486 0 0 0 -2.205.023 3.448 3.448 0 0 0 -1.7 1.363l-3.2 4.8 1.625 2.345a16.285 16.285 0 0 1 -4.116 22.612l-45.31 31.4a16.284 16.284 0 0 1 -22.614-4.117l-66.603-96.102a16.284 16.284 0 0 1 4.116-22.613l45.309-31.4a16.284 16.284 0 0 1 22.613 4.116z"/><path d="m226.387 385.421a6.41 6.41 0 1 1 3.462-12.344l73.748 20.9a18.256 18.256 0 0 0 13.682-1.5 17.479 17.479 0 0 0 8.484-10.416c.159-.532.29-1.066.4-1.6.013-.08.028-.159.045-.239a17.813 17.813 0 0 0 -12.38-20.226 587.958 587.958 0 0 1 -61.931-22.273c-36.244-14.978-38.645-15.962-110.541 22.048l46.414 66.979.409-.613a16.1 16.1 0 0 1 18.311-6.5l87.632 27.143c23.444 7.263 77.939-33.045 115.026-60.478 10.609-7.847 19.857-14.688 26.6-19.112 6.033-3.956 8.153-8.166 7.581-11.872a12.03 12.03 0 0 0 -2.754-5.706 23.439 23.439 0 0 0 -6.824-5.475 34.2 34.2 0 0 0 -35.076 1.676l-60.565 39.721-.053.185v.007a30.291 30.291 0 0 1 -14.706 18.043 30.984 30.984 0 0 1 -23.216 2.551z"/><path d="m291.189 132.933-19.531-38.312-19.532 38.312-.015-.007a6.389 6.389 0 0 1 -4.7 3.419l-42.511 6.742 30.439 30.452a6.39 6.39 0 0 1 1.786 5.49l-6.725 42.521 38.35-19.53a6.407 6.407 0 0 1 5.821 0l38.35 19.53-6.675-42.2a6.4 6.4 0 0 1 1.732-5.809l30.439-30.452-42.049-6.669a6.414 6.414 0 0 1 -5.179-3.487z"/><path d="m277.378 77.58 23.774 46.634 51.673 8.2a6.4 6.4 0 0 1 3.535 10.836l-37.018 37.033 8.179 51.711a6.4 6.4 0 0 1 -9.223 6.681l-.009.018-46.634-23.749-46.634 23.749a6.417 6.417 0 0 1 -9.15-7.22l8.1-51.19-37.017-37.033a6.4 6.4 0 0 1 3.718-10.867l51.492-8.167 23.773-46.636a6.418 6.418 0 0 1 11.441 0z"/><path d="m278.08 44.055a6.423 6.423 0 0 1 -12.845 0v-22.936a6.423 6.423 0 1 1 12.845 0z"/><path d="m216.84 57.042a6.395 6.395 0 0 1 -11.089 6.373l-11.468-19.863a6.395 6.395 0 1 1 11.089-6.372z"/><path d="m170.294 98.872a6.395 6.395 0 1 1 -6.373 11.089l-19.863-11.467a6.4 6.4 0 0 1 6.373-11.09z"/><path d="m150.933 158.356a6.423 6.423 0 0 1 0 12.846h-22.933a6.423 6.423 0 1 1 0-12.846z"/><path d="m163.921 219.6a6.395 6.395 0 0 1 6.373 11.089l-19.863 11.468a6.4 6.4 0 0 1 -6.373-11.09z"/><path d="m205.751 266.118a6.407 6.407 0 1 1 11.089 6.423l-11.468 19.859a6.407 6.407 0 1 1 -11.089-6.422z"/><path d="m265.235 285.5a6.423 6.423 0 1 1 12.845 0v22.935a6.423 6.423 0 1 1 -12.845 0z"/><path d="m326.475 272.541a6.408 6.408 0 0 1 11.09-6.423l11.467 19.863a6.407 6.407 0 1 1 -11.089 6.422z"/><path d="m373.022 230.686a6.395 6.395 0 1 1 6.372-11.089l19.863 11.467a6.4 6.4 0 0 1 -6.373 11.09z"/><path d="m392.382 171.2a6.423 6.423 0 0 1 0-12.846h22.936a6.423 6.423 0 0 1 0 12.846z"/><path d="m379.394 109.961a6.395 6.395 0 1 1 -6.372-11.089l19.862-11.472a6.4 6.4 0 0 1 6.373 11.09z"/><path d="m337.565 63.415a6.4 6.4 0 0 1 -11.09-6.373l11.468-19.862a6.395 6.395 0 1 1 11.089 6.372z"/></g><path d="m291.212 132.925-19.532-38.313-19.531 38.313-.015-.008a6.394 6.394 0 0 1 -4.7 3.42l-42.508 6.742 30.439 30.451a6.39 6.39 0 0 1 1.786 5.49l-6.725 42.517 38.351-19.531a6.411 6.411 0 0 1 5.82 0l38.351 19.531-6.676-42.2a6.4 6.4 0 0 1 1.728-5.807l30.439-30.451-42.049-6.669a6.413 6.413 0 0 1 -5.178-3.485z" fill="#ffc869"/><path d="m226.409 385.412a6.41 6.41 0 1 1 3.463-12.344l73.748 20.9a18.254 18.254 0 0 0 13.681-1.5 17.478 17.478 0 0 0 8.485-10.416q.237-.8.4-1.6c.014-.08.029-.16.046-.239a17.815 17.815 0 0 0 -12.38-20.226 587.993 587.993 0 0 1 -61.932-22.273c-36.244-14.979-38.644-15.963-110.54 22.048l46.417 66.981.408-.613a16.1 16.1 0 0 1 18.311-6.5l87.632 27.144c23.445 7.263 77.939-33.046 115.027-60.479 10.608-7.846 19.856-14.687 26.6-19.111 6.033-3.957 8.154-8.167 7.581-11.873a12.037 12.037 0 0 0 -2.756-5.711 23.49 23.49 0 0 0 -6.825-5.475 34.2 34.2 0 0 0 -35.075 1.675l-60.564 39.721-.054.185v.006a30.286 30.286 0 0 1 -14.706 18.044 30.982 30.982 0 0 1 -23.216 2.551z" fill="#ffcbc1"/><path d="m69.156 386.913 66.6 96.113a3.415 3.415 0 0 0 2.2 1.412 3.469 3.469 0 0 0 2.6-.56l45.31-31.4a3.4 3.4 0 0 0 1.414-2.2 3.467 3.467 0 0 0 -.559-2.6l-3.9-5.624-.011.008-.189-.271c-.084-.12-.162-.242-.236-.366l-62.27-89.857a3.413 3.413 0 0 0 -2.2-1.414 3.472 3.472 0 0 0 -2.6.56l-45.309 31.4a3.411 3.411 0 0 0 -1.414 2.2 3.467 3.467 0 0 0 .564 2.599z" fill="#689ff2"/><path d="m154.464 451.808a6.4 6.4 0 1 1 -10.487 7.326l-.349-.5a6.4 6.4 0 0 1 10.488-7.326z" fill="#333"/></g></svg>