<svg id="Capa_1" enable-background="new 0 0 512 512" height="512" viewBox="0 0 512 512" width="512" xmlns="http://www.w3.org/2000/svg"><g id="XMLID_2037_"><path id="XMLID_1708_" d="m74 104c0-22.091 17.909-40 40-40 22.091 0 40 17.909 40 40z" fill="#b0e7f8"/><path id="XMLID_1673_" d="m478.927 256.127c1.98-5.21 3.073-10.856 3.073-16.76 0-26.07-21.134-47.204-47.204-47.204-11.373 0-21.804 4.023-29.953 10.722-6.636-29.487-32.964-51.52-64.456-51.52-36.498 0-66.086 29.588-66.086 66.086 0 14.447 4.649 27.801 12.515 38.677h192.111z" fill="#ffedd1"/><path id="XMLID_1672_" d="m303.379 256.127c0-30.706-24.892-55.598-55.598-55.598s-55.598 24.892-55.598 55.598z" fill="#fff"/><path id="XMLID_1671_" d="m303.379 256.127c0-30.706-24.892-55.598-55.598-55.598s-55.598 24.892-55.598 55.598z" fill="#ffedd1"/><path id="XMLID_1636_" d="m127.723 502c-13.254 0-22.705-12.855-18.752-25.506l4.529-14.494h41.167l-8.192 26.214c-2.563 8.202-10.159 13.786-18.752 13.786z" fill="#91def5"/><path id="XMLID_1635_" d="m384.277 502c13.254 0 22.706-12.855 18.752-25.506l-4.529-14.494h-41.167l8.192 26.214c2.563 8.202 10.159 13.786 18.752 13.786z" fill="#91def5"/><path id="XMLID_830_" d="m482 296.127h-452c-11.046 0-20-8.954-20-20 0-11.046 8.954-20 20-20h452c11.046 0 20 8.954 20 20 0 11.046-8.954 20-20 20z" fill="#cff1fb"/><path id="XMLID_753_" d="m113.5 462h285c46.116 0 83.5-37.384 83.5-83.5v-82.373h-452v82.373c0 46.116 37.384 83.5 83.5 83.5z" fill="#b0e7f8"/><g id="XMLID_179_"><path id="XMLID_241_" d="m512 276.127c0-13.261-8.653-24.533-20.606-28.485.397-2.728.606-5.489.606-8.274 0-31.543-25.662-57.205-57.204-57.205-8.481 0-16.831 1.901-24.42 5.479-4.853-11.355-12.458-21.496-22.146-29.345-13.478-10.919-30.469-16.933-47.844-16.933-18.26 0-35.918 6.567-49.72 18.491-10.528 9.096-18.298 20.856-22.578 33.896-6.398-2.088-13.223-3.222-20.309-3.222-32.772 0-60.007 24.156-64.837 55.598h-152.942c-3.506 0-6.87.61-10 1.72v-185.847c0-23.159 18.841-42 42-42 20.821 0 38.142 15.232 41.43 35.135-22.509 4.865-39.43 24.922-39.43 48.865 0 5.523 4.478 10 10 10h80c5.522 0 10-4.477 10-10 0-24.292-17.416-44.583-40.415-49.068-3.521-30.869-29.789-54.932-61.585-54.932-34.186 0-62 27.813-62 62v214.127c0 13.036 8.361 24.152 20 28.28v74.093c0 47.039 34.919 86.07 80.195 92.549l-.77 2.462c-2.843 9.099-1.235 18.723 4.411 26.403 5.648 7.681 14.354 12.086 23.887 12.086 13.037 0 24.409-8.36 28.297-20.803l6-19.197h187.962l5.999 19.196c3.887 12.444 15.259 20.804 28.296 20.804 9.533 0 18.238-4.405 23.886-12.085 5.646-7.681 7.254-17.304 4.411-26.404l-.77-2.462c45.277-6.479 80.196-45.509 80.196-92.549v-74.093c11.639-4.128 20-15.243 20-28.28zm-398-202.127c13.037 0 24.159 8.359 28.286 20h-56.572c4.127-11.64 15.249-20 28.286-20zm226.387 87.365c25.994 0 48.999 18.385 54.699 43.715.762 3.387 3.226 6.136 6.509 7.263 3.282 1.128 6.915.471 9.597-1.732 6.627-5.447 15.011-8.447 23.604-8.447 20.515 0 37.204 16.69 37.204 37.205 0 2.283-.207 4.541-.616 6.76h-158.767c-2.718-17.693-12.53-33.078-26.431-43.151 6.427-24.432 28.355-41.613 54.201-41.613zm-92.607 49.164c21.707 0 39.907 15.251 44.479 35.598h-88.959c4.572-20.347 22.773-35.598 44.48-35.598zm-110.85 274.703c-1.265 4.049-4.965 6.769-9.207 6.769-3.102 0-5.935-1.433-7.771-3.932-1.838-2.5-2.36-5.631-1.436-8.591l2.336-7.477h20.213zm255.119 2.836c-1.837 2.499-4.67 3.932-7.771 3.932-4.242 0-7.942-2.72-9.207-6.769l-4.135-13.231h20.213l2.336 7.476c.924 2.961.402 6.093-1.436 8.592zm89.951-201.941h-181c-5.522 0-10 4.477-10 10s4.478 10 10 10h171v72.373c0 40.528-32.972 73.5-73.5 73.5h-285c-40.528 0-73.5-32.972-73.5-73.5v-72.373h171c5.522 0 10-4.477 10-10s-4.478-10-10-10h-181c-5.514 0-10-4.486-10-10s4.486-10 10-10h452c5.514 0 10 4.486 10 10s-4.486 10-10 10z"/><path id="XMLID_254_" d="m84 144c0-5.523-4.478-10-10-10s-10 4.477-10 10v13.667c0 5.523 4.478 10 10 10s10-4.477 10-10z"/><path id="XMLID_259_" d="m124 144c0-5.523-4.478-10-10-10s-10 4.477-10 10v13.667c0 5.523 4.478 10 10 10s10-4.477 10-10z"/><path id="XMLID_261_" d="m164 144c0-5.523-4.478-10-10-10s-10 4.477-10 10v13.667c0 5.523 4.478 10 10 10s10-4.477 10-10z"/><path id="XMLID_262_" d="m74 192.461c-5.522 0-10 4.477-10 10v13.667c0 5.523 4.478 10 10 10s10-4.477 10-10v-13.667c0-5.523-4.477-10-10-10z"/><path id="XMLID_263_" d="m114 192.461c-5.522 0-10 4.477-10 10v13.667c0 5.523 4.478 10 10 10s10-4.477 10-10v-13.667c0-5.523-4.477-10-10-10z"/><path id="XMLID_265_" d="m154 192.461c-5.522 0-10 4.477-10 10v13.667c0 5.523 4.478 10 10 10s10-4.477 10-10v-13.667c0-5.523-4.477-10-10-10z"/><path id="XMLID_266_" d="m334.144 78.602c-3.905 3.905-3.905 10.237 0 14.143 1.953 1.953 4.512 2.929 7.071 2.929s5.118-.976 7.071-2.929c14.33-14.331 14.33-37.648 0-51.979-6.533-6.532-6.533-17.162 0-23.694 3.905-3.905 3.905-10.237 0-14.143-3.906-3.905-10.236-3.905-14.143 0-14.33 14.331-14.33 37.648 0 51.979 6.534 6.532 6.534 17.162.001 23.694z"/><path id="XMLID_267_" d="m413.795 116.438c-3.905 3.905-3.905 10.237 0 14.143 1.953 1.953 4.512 2.929 7.071 2.929s5.118-.976 7.071-2.929c14.33-14.331 14.33-37.648 0-51.979-6.533-6.532-6.533-17.162 0-23.694 3.905-3.905 3.905-10.237 0-14.143-3.906-3.905-10.236-3.905-14.143 0-14.33 14.331-14.33 37.648 0 51.979 6.534 6.533 6.534 17.162.001 23.694z"/><path id="XMLID_269_" d="m254.493 116.438c-3.905 3.905-3.905 10.237 0 14.143 1.953 1.953 4.512 2.929 7.071 2.929s5.118-.976 7.071-2.929c14.33-14.331 14.33-37.648 0-51.979-6.533-6.532-6.533-17.162 0-23.694 3.905-3.905 3.905-10.237 0-14.143-3.906-3.905-10.236-3.905-14.143 0-14.33 14.331-14.33 37.648 0 51.979 6.534 6.533 6.534 17.162.001 23.694z"/><path id="XMLID_271_" d="m256 286.13c-2.63 0-5.21 1.07-7.07 2.93s-2.93 4.44-2.93 7.07 1.069 5.21 2.93 7.07c1.86 1.86 4.44 2.93 7.07 2.93s5.21-1.07 7.069-2.93c1.86-1.87 2.931-4.44 2.931-7.07s-1.07-5.21-2.931-7.07c-1.859-1.86-4.439-2.93-7.069-2.93z"/></g></g></svg>