<svg id="Layer_1" enable-background="new 0 0 64 64" viewBox="0 0 64 64" xmlns="http://www.w3.org/2000/svg"><g><g><path d="m55.76 14.81v42.49c0 2.34-8.31 4.24-18.57 4.24s-18.57-1.9-18.57-4.24v-45.08z" fill="#eaae73"/></g><g><path d="m11.05 24.15v16.04c0 3.38 2.1 6.41 5.27 7.59l2.29.85v4.75l-4.38-1.63c-4.55-1.69-7.56-6.04-7.56-10.89v-17.97c0-5.89 4.77-10.67 10.67-10.67h1.27v4.37c-4.18 0-7.56 3.38-7.56 7.56z" fill="#eaae73"/></g><g><path d="m17.8 28.64c3.26 1.25 16.98 5.57 38.64-.07.52-.14.89-.61.89-1.15v-4.39c0-.77-.73-1.32-1.48-1.13-19.89 5.05-32.97 1.69-37.26.21-.76-.26-1.55.31-1.55 1.12v4.32c.01.48.31.92.76 1.09z" fill="#979b9c"/></g><g><path d="m17.8 44.99c3.26 1.25 16.98 5.57 38.64-.07.52-.14.89-.61.89-1.15v-4.39c0-.77-.73-1.32-1.48-1.13-19.89 5.05-32.97 1.69-37.26.21-.76-.26-1.55.31-1.55 1.12v4.32c.01.48.31.91.76 1.09z" fill="#979b9c"/></g><g><path d="m19.66 10.37s-.74-3.71 1.7-4.65c2.45-.95 4.14.42 4.14.42s.28-2.79 3.39-3.36c3.28-.6 4.79 1.17 4.79 1.17s2.2-3.21 5.84-.2c0 0 5.51-3.33 9.39 1.73 0 0 6.84-1.42 6.76 5.89 0 0 3.05.8 2.25 4.11-.81 3.35-5.1 2.17-5.53 1.37 0 0-2.19 4.08-6.52.49 0 0-4.4 4.79-8.69-.39 0 0-.96 2.58-5.19 2.2-4.41-.39-4.61-3.79-4.61-3.79-5.15-.73-8.61-2.02-8.77-3.49-.01-.04-.01-.07-.01-.11.01-.49.38-.97 1.06-1.39z" fill="#ffeba8"/></g><g><path d="m18.62 39.47c-.55 0-1-.45-1-1v-9.53c0-.55.45-1 1-1s1 .45 1 1v9.53c0 .55-.45 1-1 1z"/></g><g><path d="m55.76 39.27c-.55 0-1-.45-1-1v-9.52c0-.55.45-1 1-1s1 .45 1 1v9.52c0 .55-.45 1-1 1z"/></g><g><path d="m37.19 62.53c-6.77 0-19.57-1.1-19.57-5.24v-12c0-.55.45-1 1-1s1 .45 1 1v12.01c.1.89 5.65 3.24 17.57 3.24s17.47-2.35 17.57-3.24v-12.21c0-.55.45-1 1-1s1 .45 1 1v12.21c0 4.14-12.8 5.23-19.57 5.23z"/></g><g><path d="m55.76 22.93c-.55 0-1-.44-1-1v-4.3c0-.55.45-1 1-1s1 .45 1 1v4.29c0 .56-.45 1.01-1 1.01z"/></g><g><path d="m18.62 23.13c-.55 0-1-.45-1-1v-10.37c0-.55.45-1 1-1s1 .45 1 1v10.37c0 .55-.45 1-1 1z"/></g><g><path d="m18.61 54.39c-.12 0-.23-.02-.35-.06l-4.38-1.63c-4.92-1.83-8.22-6.59-8.22-11.83v-17.98c0-6.44 5.24-11.67 11.67-11.67h1.28c.55 0 1 .45 1 1s-.45 1-1 1h-1.28c-5.33 0-9.67 4.34-9.67 9.67v17.97c0 4.41 2.78 8.42 6.92 9.96l4.38 1.63c.52.19.78.77.59 1.29-.15.4-.53.64-.94.65z"/></g><g><path d="m18.61 49.63c-.12 0-.23-.02-.35-.06l-2.29-.85c-3.54-1.32-5.92-4.75-5.92-8.53v-16.04c0-4.72 3.84-8.57 8.57-8.57.55 0 1 .45 1 1s-.45 1-1 1c-3.62 0-6.57 2.95-6.57 6.57v16.03c0 2.95 1.86 5.62 4.62 6.65l2.29.85c.52.19.78.77.59 1.29-.15.41-.53.66-.94.66z"/></g><g><path d="m35.51 32.41c-9.56 0-15.76-1.95-18.07-2.83-.85-.32-1.4-1.12-1.4-2.03v-4.32c0-.7.34-1.37.92-1.78.57-.4 1.3-.51 1.96-.29 4.57 1.57 17.28 4.69 36.69-.23.67-.17 1.35-.02 1.89.39.53.41.83 1.03.83 1.71v4.39c0 .99-.67 1.86-1.64 2.12-8.23 2.14-15.34 2.87-21.18 2.87zm-17.29-9.36c-.03 0-.06.01-.09.03-.04.02-.08.07-.08.15v4.32c0 .08.04.14.11.16 3.58 1.37 16.88 5.4 38.03-.11.08-.02.14-.1.14-.18v-4.39c0-.02 0-.08-.06-.13-.03-.02-.09-.05-.17-.03-19.94 5.06-33.1 1.82-37.83.19-.02-.01-.04-.01-.05-.01z"/></g><g><path d="m35.51 48.76c-9.57 0-15.76-1.95-18.07-2.83-.85-.32-1.4-1.12-1.4-2.03v-4.32c0-.7.34-1.37.92-1.78.57-.41 1.3-.51 1.96-.28 4.56 1.57 17.28 4.69 36.69-.23.67-.17 1.35-.02 1.89.39.53.41.83 1.03.83 1.71v4.39c0 .99-.67 1.86-1.64 2.12-8.23 2.13-15.33 2.86-21.18 2.86zm-17.35-4.71c3.58 1.37 16.88 5.4 38.03-.11.08-.02.14-.1.14-.18v-4.39c0-.02 0-.08-.06-.13-.03-.02-.09-.05-.17-.03-19.93 5.07-33.1 1.82-37.83.19-.05-.02-.1-.01-.15.02-.04.02-.08.07-.08.15v4.32c.01.07.05.14.12.16z"/></g><g><path d="m41.55 20.36c-.05 0-.09 0-.14 0-1.48-.04-2.86-.65-4.11-1.83-.85.88-2.47 1.88-5.39 1.62-3.47-.31-4.93-2.37-5.37-3.89-5.64-.88-8.64-2.29-8.91-4.21-.02-.12-.02-.22-.02-.28 0-.49.18-1.18.97-1.85-.18-1.74.17-4.27 2.42-5.14 1.62-.63 2.98-.41 3.89-.08.54-1.18 1.68-2.51 3.83-2.9 2.37-.43 3.98.23 4.88.8.52-.45 1.3-.95 2.33-1.09 1.21-.17 2.46.19 3.7 1.06 2.31-1.11 6.55-1.82 9.72 1.85 1.09-.11 3.4-.12 5.17 1.33 1.33 1.1 2.06 2.76 2.16 4.94 1.24.62 2.92 2.16 2.24 5.02-.4 1.67-1.61 2.75-3.31 2.97-.94.12-2.11-.04-2.97-.45-.53.58-1.37 1.27-2.55 1.5-1.32.26-2.71-.11-4.13-1.1-.87.7-2.46 1.73-4.41 1.73zm-4.36-4.4c.29 0 .58.12.77.35 1.09 1.32 2.27 2.01 3.49 2.05 2.02.08 3.68-1.68 3.7-1.7.36-.39.96-.43 1.37-.09 1.18.98 2.26 1.38 3.17 1.21 1.18-.23 1.83-1.39 1.84-1.4.17-.32.51-.53.88-.53.33 0 .64.17.83.44.28.21 1.5.63 2.52.32.65-.2 1.03-.63 1.21-1.36.53-2.21-1.19-2.81-1.54-2.91-.43-.12-.74-.52-.74-.98.02-1.89-.47-3.26-1.45-4.07-1.59-1.31-4.09-.83-4.12-.83-.37.08-.76-.07-1-.37-3.27-4.27-7.89-1.6-8.08-1.48-.36.22-.83.18-1.15-.09-.96-.8-1.86-1.15-2.67-1.04-1.06.14-1.71 1.03-1.71 1.04-.18.25-.46.41-.77.42-.31.02-.61-.11-.81-.34-.04-.04-1.24-1.31-3.86-.84-2.34.43-2.57 2.45-2.57 2.47-.04.37-.27.68-.61.82s-.73.09-1.01-.14c-.04-.03-1.31-.98-3.15-.27-1.63.63-1.09 3.5-1.08 3.53.08.41-.1.82-.45 1.04-.46.29-.56.49-.58.54v.01c.04.3 1.56 1.7 7.85 2.6.03 0 .06.01.09.01.46.08.81.46.84.93.02.25.31 2.55 3.7 2.85 3.34.3 4.14-1.49 4.17-1.57.13-.32.43-.56.78-.61.04-.01.09-.01.14-.01z"/></g></g></svg>