<svg id="Layer_1" enable-background="new 0 0 512.001 512.001" height="512" viewBox="0 0 512.001 512.001" width="512" xmlns="http://www.w3.org/2000/svg"><g><g clip-rule="evenodd" fill-rule="evenodd"><path d="m225.769 213.724c5.97-5.97 10.843-13.165 14.215-21.238 3.224-7.717 5.016-16.127 5.016-24.912 0-17.947-7.276-34.197-19.04-45.96-11.764-11.764-28.014-19.04-45.96-19.04-17.947 0-34.197 7.276-45.96 19.04-11.764 11.764-19.04 28.013-19.04 45.96 0 11.046 8.954 20 20 20s20-8.954 20-20c0-6.905 2.798-13.156 7.321-17.679s10.774-7.321 17.679-7.321c6.906 0 13.156 2.798 17.679 7.321s7.321 10.774 7.321 17.679c0 3.455-.676 6.692-1.89 9.6-1.271 3.044-3.2 5.848-5.621 8.269-11.511 11.511-20.157 20.993-26.361 30.319-7.485 11.249-11.128 21.777-11.128 33.655 0 11.046 8.954 20 20 20s20-8.954 20-20c0-3.506 1.443-7.167 4.408-11.623 4.245-6.381 11.415-14.125 21.361-24.07z" fill="#fff"/><path d="m199.999 289.418c0-11.046-8.954-20-20-20s-20 8.954-20 20v.008c0 11.046 8.954 20 20 20s20-8.954 20-20z" fill="#fff"/><path d="m179.999 269.418c11.046 0 20 8.954 20 20v.008c0 11.046-8.954 20-20 20s-20-8.954-20-20v-.008c0-11.046 8.955-20 20-20zm166.307-28.019c2.418-11.419 3.693-23.26 3.693-35.399 0-93.888-76.111-170-170-170-32.526 0-62.915 9.14-88.749 24.985-18.202-4.884-36.403-9.767-54.606-14.645-9.716-2.742-19.02 6.147-16.358 16.138 4.896 18.273 9.793 36.527 14.692 54.782-15.841 25.831-24.978 56.217-24.978 88.74 0 93.888 76.111 170 170 170 29.736 0 57.689-7.636 82.006-21.052.458-53.385 35.776-98.452 84.3-113.549zm-141.898-3.606c-2.965 4.456-4.408 8.117-4.408 11.623 0 11.046-8.954 20-20 20s-20-8.954-20-20c0-11.878 3.643-22.406 11.128-33.655 6.204-9.326 14.85-18.808 26.361-30.319 2.421-2.421 4.35-5.226 5.621-8.269 1.215-2.908 1.89-6.145 1.89-9.6 0-6.905-2.798-13.156-7.321-17.679s-10.774-7.321-17.679-7.321-13.156 2.798-17.679 7.321-7.321 10.774-7.321 17.679c0 11.046-8.954 20-20 20s-20-8.954-20-20c0-17.947 7.276-34.197 19.04-45.96 11.764-11.764 28.014-19.04 45.96-19.04 17.947 0 34.197 7.276 45.96 19.04 11.764 11.764 19.04 28.013 19.04 45.96 0 8.785-1.792 17.195-5.016 24.912-3.372 8.072-8.245 15.268-14.215 21.238-9.946 9.946-17.116 17.69-21.361 24.07z" fill="#ff764e"/><path d="m346.306 241.399c-48.524 15.097-83.842 60.164-84.301 113.548-.003.351-.005.702-.005 1.054 0 66.274 53.726 120 120 120s120-53.726 120-120c0-22.957-6.45-44.406-17.632-62.64 3.457-12.886 6.915-25.772 10.371-38.67 1.879-7.052-4.689-13.327-11.547-11.391-12.85 3.443-25.697 6.89-38.545 10.337-18.236-11.185-39.687-17.637-62.647-17.637-12.43.001-24.418 1.891-35.694 5.399z" fill="#cbe558"/></g><g><path d="m495.115 291.897c3.096-11.535 6.189-23.073 9.287-34.631 1.811-6.793-.098-13.795-5.104-18.729-4.93-4.858-12.104-6.726-18.74-4.884-11.483 3.077-22.964 6.157-34.446 9.238-19.487-11.064-41.557-16.891-64.11-16.891-7.974 0-15.78.726-23.361 2.107.897-7.321 1.359-14.714 1.359-22.108 0-31.417-8.22-62.35-23.77-89.453-2.748-4.79-8.86-6.446-13.65-3.697-4.79 2.748-6.445 8.86-3.697 13.65 13.815 24.079 21.117 51.569 21.117 79.5 0 9.34-.819 18.674-2.42 27.821-47.73 17.407-82.477 62.03-85.377 114.997-22.244 11.253-47.095 17.182-72.203 17.182-88.224 0-160-71.775-160-159.999 0-29.563 8.127-58.44 23.503-83.511 1.436-2.341 1.846-5.168 1.134-7.82-4.898-18.255-9.795-36.507-14.688-54.766-.395-1.483.24-2.502.843-3.097.411-.403 1.535-1.293 3.136-.842.042.012.085.023.128.035 17.884 4.791 35.765 9.59 53.647 14.388l.955.256c2.65.714 5.479.302 7.82-1.134 25.077-15.379 53.958-23.509 83.522-23.509 27.929 0 55.417 7.302 79.495 21.114 4.793 2.751 10.903 1.094 13.65-3.697 2.748-4.791 1.093-10.902-3.697-13.65-27.103-15.548-58.033-23.767-89.448-23.767-31.799 0-62.902 8.364-90.241 24.231-16.824-4.514-33.645-9.027-50.47-13.535-7.977-2.224-16.604.021-22.535 5.865-6.013 5.926-8.304 14.334-6.126 22.505 4.531 16.912 9.063 33.807 13.597 50.703-15.863 27.334-24.225 58.432-24.225 90.231 0 99.252 80.748 179.999 180 179.999 25.12 0 50.012-5.296 72.828-15.377 7.289 64.824 62.434 115.379 129.173 115.379 71.683 0 130-58.317 130-130 0-22.552-5.826-44.621-16.886-64.104zm-113.114 174.104c-60.654 0-110-49.346-110-110s49.346-110 110-110c20.325 0 40.181 5.589 57.418 16.161 2.341 1.436 5.167 1.847 7.82 1.134l2.152-.577c11.795-3.165 23.591-6.329 35.387-9.491-3.355 12.522-6.71 25.032-10.067 37.542-.712 2.651-.302 5.479 1.134 7.82 10.569 17.233 16.156 37.086 16.156 57.411 0 60.654-49.346 110-110 110z"/><path d="m212.734 243.332c4.258-6.399 12.553-14.983 20.106-22.537 7.016-7.016 12.524-15.243 16.372-24.454 3.841-9.195 5.788-18.874 5.788-28.767 0-20.031-7.802-38.865-21.969-53.032-14.168-14.166-33.001-21.968-53.031-21.968s-38.864 7.802-53.032 21.968c-14.167 14.167-21.968 33.001-21.968 53.032 0 16.542 13.458 30 30 30s30-13.458 30-30c0-4.008 1.56-7.776 4.392-10.608 2.833-2.832 6.6-4.392 10.608-4.392s7.776 1.56 10.607 4.391c2.833 2.833 4.393 6.602 4.393 10.609 0 2.037-.376 3.97-1.117 5.744-.756 1.81-1.922 3.51-3.465 5.053-13.634 13.633-21.635 22.861-27.616 31.852-8.735 13.127-12.802 25.581-12.802 39.193 0 7.678 2.903 14.69 7.665 20.001-4.762 5.313-7.665 12.326-7.665 20.007 0 16.542 13.458 30 30 30s30-13.458 30-30v-.007c0-7.678-2.903-14.689-7.664-20.001 4.762-5.312 7.664-12.323 7.664-20.001 0-.899.474-2.686 2.734-6.083zm-33.281-22.031c5.198-7.813 12.472-16.153 25.105-28.786 3.396-3.396 6.012-7.259 7.779-11.486 1.767-4.229 2.663-8.757 2.663-13.454 0-9.35-3.64-18.14-10.25-24.751-6.61-6.609-15.399-10.249-24.75-10.249s-18.14 3.64-24.751 10.25c-6.609 6.61-10.249 15.4-10.249 24.75 0 5.514-4.486 10-10 10s-10-4.486-10-10c0-14.689 5.722-28.5 16.11-38.89 10.39-10.389 24.201-16.11 38.89-16.11s28.5 5.722 38.889 16.11 16.111 24.2 16.111 38.889c0 7.232-1.428 14.317-4.243 21.058-2.838 6.795-6.895 12.857-12.059 18.021-11.849 11.85-18.401 19.267-22.615 25.602-4.15 6.237-6.083 11.69-6.083 17.162 0 5.514-4.486 10-10 10s-10-4.486-10-10c0-9.619 2.915-18.29 9.453-28.116zm10.547 68.124c0 5.514-4.486 10-10 10s-10-4.486-10-10.007c0-5.514 4.486-10 10-10s10 4.486 10 10z"/><path d="m382.005 346.001h-.008c-5.522 0-9.996 4.478-9.996 10s4.481 10 10.004 10 10-4.478 10-10-4.478-10-10-10z"/><path d="m342.003 346.001h-.007c-5.522 0-9.997 4.478-9.997 10s4.481 10 10.004 10 10-4.478 10-10-4.478-10-10-10z"/><path d="m422.006 346.001h-.007c-5.522 0-9.997 4.478-9.997 10s4.481 10 10.004 10 10-4.478 10-10-4.478-10-10-10z"/><path d="m300.208 95.792c5.522 0 10-4.478 10-10s-4.478-10-10-10h-.008c-5.522 0-9.996 4.478-9.996 10s4.482 10 10.004 10z"/></g></g></svg>