<svg xmlns="http://www.w3.org/2000/svg" xmlns:xlink="http://www.w3.org/1999/xlink" width="31.739" height="30.32" viewBox="0 0 31.739 30.32"><defs><filter id="a" x="6.948" y="0" width="24.791" height="30.32" filterUnits="userSpaceOnUse"><feOffset dy="3" input="SourceAlpha"/><feGaussianBlur stdDeviation="3" result="b"/><feFlood flood-color="#f0a9b9" flood-opacity="0.502"/><feComposite operator="in" in2="b"/><feComposite in="SourceGraphic"/></filter><filter id="c" x="0" y="0" width="24.791" height="30.32" filterUnits="userSpaceOnUse"><feOffset dy="3" input="SourceAlpha"/><feGaussianBlur stdDeviation="3" result="d"/><feFlood flood-color="#f0a9b9" flood-opacity="0.502"/><feComposite operator="in" in2="d"/><feComposite in="SourceGraphic"/></filter></defs><g transform="translate(9 6)"><g transform="translate(6.948)"><g transform="matrix(1, 0, 0, 1, -15.95, -6)" filter="url(#a)"><path d="M279.623,44.928,274.093,39.4a.631.631,0,0,0-.892.892l5.083,5.083L273.2,50.457a.631.631,0,1,0,.892.892l5.529-5.529A.63.63,0,0,0,279.623,44.928Z" transform="translate(-257.07 -33.21)" fill="#f0a9b9"/></g></g><g transform="matrix(1, 0, 0, 1, -9, -6)" filter="url(#c)"><path d="M6.606,44.928,1.076,39.4a.631.631,0,0,0-.892.892l5.083,5.083L.185,50.457a.631.631,0,1,0,.892.892L6.606,45.82A.63.63,0,0,0,6.606,44.928Z" transform="translate(9 -33.21)" fill="#f0a9b9"/></g></g></svg>