<svg height="512" viewBox="0 0 256 256" width="512" xmlns="http://www.w3.org/2000/svg"><g id="Layer_6"><g><g><g><path d="m119.644 98.727c18.998 7.646 22.986 17.12 22.986 23.722 0 6.123-3.551 12.595-9.266 16.889-.244.183-.49.707-.49 1.355v39.1c2.504-2.321 5.445-3.942 8.743-4.651 3.031-.651 6.103-.481 9.091.393 6.781 1.985 13.92 1.985 20.701 0 2.989-.875 6.06-1.045 9.091-.393 2.923.628 5.566 1.97 7.872 3.882-.001 0-.002.001-.002.002 2.305-1.447 4.785-2.637 7.403-3.536h-.001c-.587-1.497-1.174-2.846-1.708-3.993-1.163-2.495-3.182-4.448-5.653-5.663-10.298-5.065-8.922-15.836-7.796-20.388.306-1.239-.259-2.508-1.367-3.141-13.506-7.718-7.901-19.453-4.819-24.199.809-1.246.719-2.871-.22-4.021-11.99-14.673 2.299-32.401 14.97-30.712l.016.002c.907.123 1.777-.364 2.173-1.19 1.393-2.907 3.543-5.377 6.188-7.171v-.97c0-7.288-2.862-14.284-7.97-19.483l-10.39-10.574c-5.108-5.198-7.97-12.199-7.97-19.487 0-1.939 0-3.693 0-4.834 0-.775.477-1.451 1.189-1.757 3.048-1.308 5.126-4.442 4.842-8.03-.335-4.231-4.089-7.382-8.333-7.382-12.367 0-22.145 0-34.563 0-4.244 0-7.999 3.151-8.333 7.382-.284 3.589 1.794 6.722 4.842 8.03.712.306 1.189.982 1.189 1.757v4.834c0 7.288-2.862 14.289-7.97 19.487l-10.39 10.574c-5.108 5.198-7.97 12.195-7.97 19.483v20.306c4.855 1.159 9.53 2.613 13.915 4.377z" fill="#9be5f9"/></g></g><g><path d="m173.468 63.807c-10.782 0-10.782-6.088-21.565-6.088-10.781 0-10.781 6.088-21.562 6.088-9.997 0-10.729-5.233-19.38-5.993-3.382 4.701-5.237 10.371-5.237 16.233v20.303c4.859 1.159 9.534 2.613 13.919 4.377 18.998 7.646 22.986 17.12 22.986 23.722 0 6.123-3.551 12.595-9.266 16.889-.244.183-.49.707-.49 1.355v39.1c2.504-2.321 5.445-3.942 8.743-4.651 3.031-.651 6.103-.481 9.091.393 6.781 1.985 13.92 1.985 20.701 0 2.989-.875 6.06-1.045 9.091-.393 2.923.628 5.566 1.97 7.872 3.882-.001 0-.002.001-.002.002 2.305-1.447 4.785-2.637 7.403-3.536h-.001c-.587-1.497-1.174-2.846-1.708-3.993-1.163-2.495-3.182-4.448-5.653-5.663-10.298-5.065-8.922-15.836-7.796-20.388.306-1.239-.259-2.508-1.367-3.141-13.506-7.718-7.901-19.453-4.819-24.199.809-1.246.719-2.871-.22-4.021-11.99-14.673 2.299-32.401 14.97-30.712l.016.002c.907.123 1.777-.364 2.173-1.19 1.393-2.907 3.543-5.377 6.188-7.171v-.97c0-5.842-1.843-11.494-5.204-16.185-8.187.916-9.079 5.948-18.883 5.948z" fill="#dae6f1"/></g><g><path d="m65.664 209.714c0-19.757 16.016-35.773 35.773-35.773 10.617 0 20.149 4.629 26.7 11.974 1.324-2.361 2.912-4.43 4.737-6.121v-39.1c0-.648.247-1.172.49-1.355 5.715-4.294 9.266-10.766 9.266-16.889 0-6.602-3.988-16.076-22.986-23.722-25.525-10.274-60.754-10.274-86.28 0-18.998 7.646-22.986 17.121-22.986 23.722 0 6.123 3.551 12.595 9.267 16.889.243.183.49.707.49 1.355v61.424c0 10.166 8.27 18.436 18.436 18.436h28.77c-1.087-3.42-1.677-7.061-1.677-10.84z" fill="#fed690"/></g><g><path d="m101.437 173.941c7.671 0 14.772 2.423 20.597 6.533v-39.78c0-3.899 1.701-7.68 4.819-10.022 3.17-2.381 4.938-5.825 4.938-8.222 0-8.98-24.752-20.597-55.285-20.597s-55.285 11.616-55.285 20.597c0 2.397 1.768 5.841 4.938 8.222 3.117 2.342 4.819 6.123 4.819 10.022v61.424c0 4.195 3.401 7.596 7.596 7.596h27.093c-.003-19.757 16.013-35.773 35.77-35.773z" fill="#fce4be"/></g><g><path d="m241.107 114.087c11.99-14.673-2.299-32.401-14.97-30.712l-.016.002c-.907.123-1.777-.364-2.173-1.19-2.912-6.076-9.104-10.278-16.291-10.278-7.188 0-13.379 4.202-16.291 10.278-.396.826-1.266 1.312-2.173 1.19l-.016-.002c-12.671-1.689-26.96 16.039-14.97 30.712.94 1.15 1.029 2.775.22 4.021-3.082 4.745-8.687 16.48 4.819 24.199 1.108.633 1.674 1.903 1.367 3.141-1.126 4.552-2.503 15.323 7.796 20.388 2.47 1.215 4.49 3.168 5.653 5.663.534 1.147 1.121 2.496 1.708 3.993 3.667-1.26 7.597-1.953 11.691-1.953 4.223 0 8.272.734 12.036 2.07.602-1.544 1.206-2.933 1.754-4.11 1.163-2.495 3.182-4.449 5.653-5.663 10.366-5.098 8.903-15.978 7.773-20.477-.299-1.192.269-2.415 1.338-3.023 13.572-7.718 7.957-19.477 4.871-24.228-.808-1.246-.719-2.871.221-4.021z" fill="#87d147"/></g><g><path d="m85.931 154.172c-1.012.433-1.651 1.41-1.644 2.511.022 3.174 1.579 6.278 4.434 8.147 2.918 1.911 6.476 2.062 9.433.721.863-.391 1.436-1.268 1.45-2.215.047-3.247-1.515-6.447-4.433-8.358-2.854-1.87-6.322-2.056-9.24-.806z" fill="#b2e26d"/></g><g><path d="m145.553 154.172c-1.012.433-1.651 1.41-1.644 2.511.022 3.174 1.579 6.278 4.434 8.147 2.918 1.911 6.476 2.062 9.434.721.863-.391 1.436-1.268 1.45-2.215.047-3.247-1.515-6.447-4.433-8.358-2.856-1.87-6.323-2.056-9.241-.806z" fill="#b2e26d"/></g><g><path d="m124.758 215.356c-2.393-11.132-.893-21.822 3.379-29.441-6.551-7.345-16.083-11.974-26.7-11.974-19.757 0-35.773 16.016-35.773 35.773s16.016 35.773 35.773 35.773c12.064 0 22.725-5.978 29.205-15.127-2.631-4.336-4.683-9.416-5.884-15.004z" fill="#fca265"/></g><g><path d="m171.487 209.512c0-12.853 6.746-24.125 16.885-30.487-2.306-1.911-4.949-3.254-7.872-3.882-3.031-.651-6.103-.481-9.091.393-6.781 1.985-13.92 1.985-20.701 0-2.988-.875-6.06-1.045-9.091-.393-13.462 2.893-21.011 20.898-16.859 40.213 4.151 19.316 18.43 32.629 31.893 29.735.016-.003.031-.007.047-.01 2.885-.628 5.837-.628 8.722 0 .016.003.031.007.047.01 6.961 1.496 14.136-1.348 20.02-7.107-8.513-6.578-14-16.881-14-28.472z" fill="#ef4460"/></g><g><circle cx="207.461" cy="209.512" fill="#fc657e" r="35.974"/></g><g><path d="m202.849 205.288v-17.771c0-2.062-2.034-3.522-3.983-2.848-10.297 3.56-17.694 13.335-17.694 24.843 0 1.941.213 3.832.614 5.652.439 1.992 2.681 2.99 4.447 1.971l14.665-8.467c1.207-.697 1.951-1.986 1.951-3.38z" fill="#ef4460"/></g><g><path d="m214.025 208.668 14.665 8.467c1.766 1.02 4.008.021 4.447-1.971.401-1.82.614-3.711.614-5.652 0-11.508-7.397-21.283-17.694-24.843-1.949-.674-3.983.786-3.983 2.848v17.771c-.001 1.394.743 2.683 1.951 3.38z" fill="#ef4460"/></g><g><path d="m205.51 216.656-14.3 8.256c-1.818 1.05-2.031 3.598-.408 4.931 4.535 3.722 10.334 5.958 16.659 5.958s12.125-2.236 16.659-5.958c1.623-1.332 1.411-3.881-.408-4.931l-14.3-8.256c-1.207-.697-2.695-.697-3.902 0z" fill="#ef4460"/></g><g><g><path d="m105.725 96.375c-1.381 0-2.5-1.119-2.5-2.5v-19.828c0-7.993 3.085-15.534 8.687-21.235l10.39-10.573c4.677-4.76 7.253-11.059 7.253-17.735v-4.439c-3.961-1.86-6.37-5.985-6.023-10.378.43-5.433 5.185-9.687 10.826-9.687h34.563c5.641 0 10.396 4.254 10.825 9.685.348 4.393-2.061 8.518-6.022 10.378v4.439c0 6.677 2.576 12.975 7.253 17.735l10.39 10.574c5.602 5.701 8.687 13.243 8.687 21.235v.547c0 1.381-1.119 2.5-2.5 2.5s-2.5-1.119-2.5-2.5v-.547c0-6.674-2.576-12.971-7.253-17.73l-10.39-10.574c-5.602-5.701-8.687-13.244-8.687-21.24v-4.834c0-1.758 1.061-3.349 2.702-4.054 2.184-.937 3.524-3.162 3.336-5.536-.225-2.847-2.791-5.078-5.841-5.078h-34.563c-3.05 0-5.616 2.231-5.841 5.08-.188 2.374 1.153 4.599 3.336 5.536 1.642.705 2.702 2.296 2.702 4.054v4.834c0 7.996-3.085 15.539-8.687 21.24l-10.39 10.573c-4.677 4.76-7.253 11.057-7.253 17.731v19.828c0 1.38-1.119 2.499-2.5 2.499z"/></g></g><g><path d="m171.407 21h-19c-1.381 0-2.5-1.119-2.5-2.5s1.119-2.5 2.5-2.5h19c1.381 0 2.5 1.119 2.5 2.5s-1.119 2.5-2.5 2.5z"/></g><g><path d="m101.437 176.441c-1.381 0-2.5-1.119-2.5-2.5v-1.5c0-6.017 3.573-11.436 9.104-13.806 1.269-.544 2.739.044 3.283 1.313.544 1.27-.044 2.739-1.313 3.283-3.689 1.581-6.073 5.196-6.073 9.21v1.5c-.001 1.381-1.121 2.5-2.501 2.5z"/></g><g><path d="m161.058 176.441c-1.381 0-2.5-1.119-2.5-2.5v-1.5c0-6.017 3.573-11.436 9.104-13.806 1.269-.544 2.739.044 3.283 1.313.544 1.27-.044 2.739-1.313 3.283-3.689 1.581-6.073 5.196-6.073 9.21v1.5c-.001 1.381-1.12 2.5-2.501 2.5z"/></g><g><path d="m67.083 223.054h-28.512c-11.544 0-20.936-9.392-20.936-20.937v-61.171c-6.033-4.757-9.756-11.79-9.756-18.497 0-7.373 4.26-17.875 24.552-26.042 25.95-10.445 62.197-10.444 88.147 0 20.292 8.167 24.552 18.669 24.552 26.042 0 6.707-3.724 13.74-9.756 18.497v38.429c0 1.381-1.119 2.5-2.5 2.5s-2.5-1.119-2.5-2.5v-38.681c0-1.38.571-2.666 1.491-3.355 5.098-3.83 8.266-9.536 8.266-14.889 0-8.363-7.407-15.764-21.419-21.403-24.851-10.003-59.563-10.003-84.413 0-14.013 5.639-21.419 13.04-21.419 21.403 0 5.353 3.168 11.059 8.268 14.891.918.689 1.488 1.974 1.488 3.354v61.424c0 8.788 7.149 15.937 15.936 15.937h28.512c1.381 0 2.5 1.119 2.5 2.5s-1.12 2.498-2.501 2.498zm67.787-81.72c-.001.001-.003.002-.004.003.001-.001.003-.002.004-.003z"/></g><g><path d="m220.429 201.156c-.904 0-1.777-.492-2.222-1.351-.635-1.226-.156-2.735 1.07-3.37l.819-.424c1.226-.636 2.735-.156 3.37 1.07s.156 2.735-1.07 3.37l-.819.424c-.368.19-.761.281-1.148.281z"/></g><g><path d="m224.119 207.613c-.904 0-1.777-.492-2.222-1.35-.635-1.226-.156-2.735 1.069-3.37l.819-.424c1.226-.635 2.735-.156 3.37 1.069.635 1.226.156 2.735-1.069 3.37l-.819.424c-.368.19-.761.281-1.148.281z"/></g><g><path d="m194.494 201.156c-.388 0-.781-.09-1.148-.281l-.819-.424c-1.226-.635-1.705-2.144-1.069-3.37s2.146-1.704 3.37-1.069l.819.424c1.226.635 1.705 2.144 1.069 3.37-.445.858-1.318 1.35-2.222 1.35z"/></g><g><path d="m190.804 207.613c-.387 0-.78-.09-1.148-.281l-.819-.424c-1.226-.635-1.705-2.144-1.07-3.37.634-1.226 2.142-1.705 3.37-1.07l.819.424c1.226.635 1.705 2.144 1.07 3.37-.444.859-1.318 1.351-2.222 1.351z"/></g><g><path d="m203.771 229.538c-1.381 0-2.5-1.119-2.5-2.5v-.922c0-1.381 1.119-2.5 2.5-2.5s2.5 1.119 2.5 2.5v.922c0 1.381-1.119 2.5-2.5 2.5z"/></g><g><path d="m211.151 229.538c-1.381 0-2.5-1.119-2.5-2.5v-.922c0-1.381 1.119-2.5 2.5-2.5s2.5 1.119 2.5 2.5v.922c0 1.381-1.119 2.5-2.5 2.5z"/></g><g><path d="m207.657 175c-1.381 0-2.5-1.119-2.5-2.5v-78c0-1.381 1.119-2.5 2.5-2.5s2.5 1.119 2.5 2.5v78c0 1.381-1.119 2.5-2.5 2.5z"/></g><g><path d="m208.323 162.667c-1.201 0-2.26-.868-2.463-2.091-.226-1.362.695-2.649 2.057-2.875 7.988-1.325 14.168-6.688 14.23-6.742 1.037-.909 2.616-.811 3.527.224.912 1.035.816 2.611-.217 3.524-.292.259-7.279 6.361-16.721 7.927-.14.022-.278.033-.413.033z"/></g><g><path d="m208.323 119.189c-1.138 0-2.167-.783-2.434-1.939-.31-1.345.529-2.687 1.875-2.997 6.318-1.456 11.3-7.462 11.35-7.523.875-1.067 2.449-1.226 3.516-.354 1.068.872 1.23 2.443.359 3.512-.245.301-6.087 7.39-14.103 9.236-.188.044-.377.065-.563.065z"/></g><g><path d="m208.324 141.685c-1.12 0-2.14-.758-2.423-1.894-.335-1.339.479-2.697 1.819-3.032 11.232-2.808 19.954-13.315 20.041-13.421.875-1.066 2.45-1.223 3.517-.35 1.068.874 1.227 2.447.354 3.515-.396.484-9.831 11.89-22.698 15.107-.205.05-.41.075-.61.075z"/></g><g><path d="m206.697 155.667c-.136 0-.273-.011-.412-.034-9.443-1.566-16.428-7.668-16.721-7.927-1.034-.915-1.13-2.495-.216-3.529.913-1.032 2.491-1.13 3.526-.219.062.054 6.242 5.417 14.229 6.742 1.362.226 2.283 1.513 2.057 2.875-.202 1.224-1.262 2.092-2.463 2.092z"/></g><g><path d="m206.697 112.189c-.186 0-.375-.021-.563-.064-8.016-1.847-13.858-8.935-14.103-9.236-.872-1.071-.71-2.646.361-3.517 1.069-.871 2.643-.709 3.514.358.06.073 5.038 6.068 11.35 7.523 1.346.31 2.185 1.652 1.875 2.997-.267 1.157-1.296 1.939-2.434 1.939z"/></g><g><path d="m206.696 134.685c-.201 0-.405-.024-.608-.075-12.867-3.217-22.303-14.623-22.698-15.107-.874-1.069-.715-2.644.354-3.518s2.643-.715 3.516.353c.087.106 8.809 10.613 20.041 13.421 1.339.335 2.154 1.692 1.819 3.032-.284 1.135-1.304 1.894-2.424 1.894z"/></g><g><path d="m219.632 177.766c-.307 0-.618-.057-.92-.176-1.284-.509-1.912-1.961-1.403-3.245.531-1.34 1.096-2.653 1.678-3.902 1.364-2.926 3.784-5.359 6.815-6.85 8.425-4.144 7.659-12.821 6.452-17.625-.565-2.25.474-4.638 2.527-5.805 3.946-2.244 6.343-5.009 7.125-8.218 1.184-4.859-1.443-9.902-3.114-12.475-1.407-2.166-1.253-4.965.381-6.964 4.517-5.528 5.196-12.123 1.863-18.093-3.161-5.663-9.287-9.26-14.567-8.559-1.991.271-3.903-.77-4.773-2.585-2.579-5.381-8.089-8.858-14.037-8.858s-11.458 3.477-14.037 8.858c-.87 1.815-2.789 2.85-4.763 2.586-5.291-.705-11.416 2.894-14.577 8.558-3.333 5.97-2.653 12.565 1.864 18.093 1.634 2 1.787 4.799.381 6.964-1.669 2.57-4.294 7.607-3.117 12.464.776 3.201 3.158 5.96 7.08 8.202 2.072 1.183 3.122 3.614 2.554 5.911-1.183 4.782-1.915 13.42 6.472 17.545 3.031 1.49 5.451 3.923 6.815 6.851.54 1.159 1.067 2.377 1.565 3.621.513 1.282-.109 2.737-1.391 3.251-1.285.513-2.737-.11-3.251-1.391-.464-1.16-.954-2.293-1.456-3.37-.896-1.924-2.449-3.472-4.49-4.476-3.985-1.959-12.85-8.146-9.119-23.231.042-.172-.071-.307-.181-.37-5.164-2.951-8.346-6.775-9.459-11.366-1.619-6.679 1.675-13.121 3.783-16.366.217-.334.193-.767-.06-1.077-5.797-7.095-6.679-15.952-2.357-23.693 4.135-7.408 12.041-11.946 19.316-11.112 3.455-6.966 10.657-11.453 18.427-11.453s14.972 4.486 18.426 11.453c7.293-.823 15.185 3.711 19.317 11.112 4.321 7.742 3.44 16.599-2.357 23.694-.253.31-.277.742-.06 1.077 2.11 3.249 5.407 9.698 3.779 16.381-1.12 4.601-4.32 8.43-9.511 11.382-.104.059-.168.163-.149.241 2.639 10.509-.761 19.23-9.095 23.329-2.041 1.004-3.593 2.552-4.49 4.476-.541 1.161-1.066 2.383-1.562 3.632-.388.98-1.33 1.579-2.324 1.579zm6.155-96.867s-.001 0-.002 0zm-36.282-.003h.002c0 .001-.001 0-.002 0z"/></g><g><g><g><path d="m214.895 43.21c-3.157-.561-5.613-3.017-6.245-6.104 0-.14-.281-.14-.281 0-.632 3.087-3.087 5.543-6.245 6.104-.14 0-.14.21 0 .281 3.157.561 5.613 3.017 6.245 6.104 0 .14.281.14.281 0 .631-3.087 3.087-5.543 6.245-6.104.14-.071.14-.281 0-.281z" fill="#87d147"/></g></g></g><g><g><g><path d="m72.867 60.589h2.3v2.3c0 1.7 1.4 3.2 3.2 3.2s3.2-1.4 3.2-3.2v-2.3h2.3c1.7 0 3.2-1.4 3.2-3.2s-1.4-3.2-3.2-3.2h-2.3v-2.3c0-1.7-1.4-3.2-3.2-3.2s-3.2 1.4-3.2 3.2v2.3h-2.3c-1.7 0-3.2 1.4-3.2 3.2s1.4 3.2 3.2 3.2z" fill="#70d6f9"/></g></g></g><g><g><g><circle cx="57.267" cy="74.931" fill="#fc657e" r="3.4"/></g></g></g><g><g><g><circle cx="233.267" cy="65.931" fill="#f5c84c" r="3.4"/></g></g></g><g><g><g><path d="m47.684 246.75c4.5-.8 8-4.3 8.9-8.7 0-.2.4-.2.4 0 .9 4.4 4.4 7.9 8.9 8.7.2 0 .2.3 0 .4-4.5.8-8 4.3-8.9 8.7 0 .2-.4.2-.4 0-.9-4.4-4.4-7.9-8.9-8.7-.2-.1-.2-.4 0-.4z" fill="#f5c84c"/></g></g></g><g><path d="m94.081 168.937c-2.352 0-4.686-.679-6.729-2.016-3.456-2.263-5.536-6.083-5.565-10.222-.015-2.104 1.226-3.998 3.16-4.826 3.805-1.627 8.138-1.249 11.593 1.012 3.545 2.321 5.625 6.241 5.564 10.486-.027 1.915-1.172 3.663-2.916 4.455-1.638.744-3.377 1.111-5.107 1.111zm-7.166-12.467c-.086.037-.128.101-.127.195.017 2.459 1.252 4.73 3.303 6.073 2.105 1.378 4.733 1.578 7.032.536.019-2.497-1.216-4.826-3.32-6.204-2.052-1.344-4.626-1.568-6.888-.6z"/></g><g><path d="m153.703 168.937c-2.352 0-4.686-.679-6.729-2.016-3.456-2.263-5.536-6.083-5.565-10.222-.015-2.104 1.226-3.998 3.16-4.826 3.804-1.627 8.138-1.249 11.593 1.012 3.545 2.321 5.625 6.241 5.564 10.486-.027 1.915-1.172 3.663-2.916 4.455-1.638.744-3.377 1.111-5.107 1.111zm-7.166-12.467c-.086.037-.128.101-.127.195.017 2.459 1.252 4.73 3.303 6.073 2.106 1.378 4.733 1.578 7.032.536.019-2.497-1.216-4.826-3.32-6.204-2.053-1.344-4.627-1.568-6.888-.6z"/></g><g><path d="m101.437 247.987c-21.104 0-38.273-17.169-38.273-38.273s17.169-38.273 38.273-38.273c10.622 0 20.858 4.476 28.084 12.279.938 1.013.877 2.595-.136 3.533-1.012.938-2.594.877-3.533-.136-6.283-6.785-15.182-10.677-24.415-10.677-18.347 0-33.273 14.926-33.273 33.273s14.926 33.273 33.273 33.273c10.551 0 20.584-5.092 26.84-13.622.816-1.114 2.381-1.354 3.495-.538 1.113.817 1.354 2.381.538 3.495-7.196 9.81-18.737 15.666-30.873 15.666z"/></g><g><path d="m169.228 247.992c-1.436 0-2.868-.151-4.288-.456-2.593-.564-5.168-.565-7.71-.011-.024.005-.094.02-.118.024-1.382.297-2.775.441-4.163.441-13.4.001-26.616-13.412-30.635-32.108-4.434-20.633 3.99-40.004 18.778-43.183 3.376-.725 6.847-.578 10.319.438 6.312 1.848 12.984 1.848 19.296 0 3.472-1.017 6.942-1.164 10.318-.438 3.145.676 6.063 2.084 8.675 4.184 1.076.865 1.247 2.438.382 3.515s-2.438 1.247-3.515.382c-2-1.607-4.218-2.681-6.593-3.192-2.553-.549-5.199-.431-7.863.349-7.231 2.116-14.875 2.117-22.105 0-2.666-.78-5.311-.898-7.863-.349-12.093 2.599-18.795 19.307-14.94 37.244s16.828 30.418 28.923 27.816c3.286-.715 6.579-.716 9.826-.008 5.779 1.245 11.94-.912 17.388-6.058 1.005-.948 2.586-.903 3.534.101s.903 2.586-.101 3.534c-5.399 5.098-11.499 7.774-17.545 7.775z"/></g><g><path d="m207.461 247.987c-21.215 0-38.475-17.26-38.475-38.475s17.26-38.475 38.475-38.475 38.474 17.26 38.474 38.475-17.259 38.475-38.474 38.475zm0-71.949c-18.458 0-33.475 15.017-33.475 33.475s15.017 33.475 33.475 33.475 33.474-15.017 33.474-33.475-15.016-33.475-33.474-33.475z"/></g><g><path d="m184.737 220.043c-.752 0-1.508-.157-2.227-.474-1.604-.708-2.788-2.153-3.165-3.868-.446-2.023-.672-4.105-.672-6.189 0-12.265 7.787-23.199 19.377-27.206 1.676-.579 3.538-.31 4.984.72 1.45 1.033 2.316 2.712 2.316 4.49v17.771c0 2.28-1.227 4.405-3.202 5.545l-14.665 8.467c-.857.495-1.799.744-2.746.744zm15.11-33.04c-.051 0-.105.008-.164.028-9.577 3.311-16.011 12.346-16.011 22.48 0 1.723.187 3.443.555 5.114.048.216.189.32.3.368.106.047.271.082.455-.024l14.665-8.467c.433-.25.702-.716.702-1.215v-17.771c0-.217-.118-.347-.217-.417-.068-.048-.165-.096-.285-.096z"/></g><g><path d="m230.186 220.043c-.947 0-1.889-.249-2.746-.744l-14.665-8.467c-1.975-1.14-3.202-3.265-3.202-5.545v-17.771c0-1.779.866-3.458 2.316-4.491 1.446-1.03 3.31-1.299 4.984-.72 11.59 4.008 19.377 14.941 19.377 27.207 0 2.082-.226 4.164-.672 6.189-.383 1.74-1.538 3.15-3.166 3.868-.719.317-1.474.474-2.226.474zm-15.11-33.04c-.121 0-.218.047-.286.095-.099.071-.217.201-.217.418v17.771c0 .5.269.965.702 1.215l14.665 8.467c.184.106.349.072.456.024.11-.049.252-.152.3-.368.368-1.673.555-3.393.555-5.114 0-10.135-6.435-19.169-16.011-22.481-.059-.019-.114-.027-.164-.027z"/></g><g><path d="m207.461 238.301c-6.639 0-13.119-2.318-18.246-6.526-1.395-1.146-2.14-2.905-1.992-4.706.148-1.803 1.171-3.418 2.736-4.322l14.3-8.256c1.974-1.14 4.428-1.141 6.403 0l14.3 8.256c1.565.904 2.588 2.52 2.736 4.323.147 1.801-.597 3.56-1.993 4.706-5.125 4.207-11.605 6.525-18.244 6.525zm0-19.667c-.242 0-.485.063-.701.188l-14.3 8.256c-.191.11-.243.279-.253.401-.01.121.014.294.182.432 4.234 3.476 9.587 5.391 15.073 5.391 5.485 0 10.838-1.915 15.072-5.391.168-.138.191-.311.182-.432-.01-.122-.062-.291-.253-.401l-14.3-8.256c-.217-.126-.459-.188-.702-.188zm-1.951-1.978h.01z"/></g><g><path d="m65 212.214h-26.429c-5.567 0-10.096-4.529-10.096-10.096v-61.424c0-3.227-1.428-6.226-3.82-8.023-3.551-2.667-5.936-6.775-5.936-10.221 0-11.872 28.083-23.097 57.785-23.097 29.703 0 57.786 11.225 57.786 23.097 0 3.446-2.386 7.554-5.937 10.221-2.392 1.797-3.82 4.796-3.82 8.023v39.462c0 1.381-1.119 2.5-2.5 2.5s-2.5-1.119-2.5-2.5v-39.462c0-4.79 2.174-9.284 5.816-12.021 2.559-1.922 3.94-4.642 3.94-6.224 0-6.356-21.768-18.097-52.786-18.097s-52.785 11.74-52.785 18.097c0 1.582 1.38 4.301 3.939 6.224 3.642 2.736 5.817 7.23 5.817 12.021v61.424c0 2.81 2.286 5.096 5.096 5.096h26.43c1.381 0 2.5 1.119 2.5 2.5s-1.119 2.5-2.5 2.5z"/></g><g><path d="m173.468 66.308c-6.048 0-9.216-1.789-12.012-3.368-2.585-1.46-4.819-2.721-9.553-2.721-4.733 0-6.966 1.261-9.551 2.721-2.795 1.579-5.963 3.368-12.01 3.368s-9.216-1.788-12.012-3.365c-2.174-1.227-4.051-2.286-7.356-2.616-1.374-.138-2.376-1.363-2.239-2.737.138-1.374 1.371-2.369 2.737-2.239 4.35.436 6.988 1.924 9.315 3.237 2.587 1.459 4.822 2.72 9.556 2.72 4.733 0 6.966-1.261 9.551-2.721 2.795-1.579 5.963-3.368 12.01-3.368 6.048 0 9.217 1.789 12.012 3.368 2.585 1.46 4.819 2.721 9.553 2.721s6.969-1.261 9.555-2.721c2.235-1.262 4.769-2.692 8.831-3.185 1.376-.169 2.617.811 2.783 2.181.166 1.371-.81 2.617-2.181 2.783-3.074.373-4.882 1.393-6.976 2.575-2.795 1.578-5.964 3.367-12.013 3.367z"/></g></g></g></svg>