<svg id="holding-heart" enable-background="new 0 0 300 300" height="512" viewBox="0 0 300 300" width="512" xmlns="http://www.w3.org/2000/svg"><g><circle cx="172" cy="179.074" fill="#edebdc" r="86"/><circle cx="40" cy="135.074" fill="#4c241d" r="6"/><circle cx="46" cy="109.074" fill="#4c241d" r="4"/><circle cx="162" cy="269.074" fill="#4c241d" r="4"/><g><g><path d="m145.81 213.074h8.38c17.496-15.351 83.81-76.071 83.81-114.52 0-25.095-21.888-45.438-48.889-45.438-16.068 0-30.199 7.301-39.111 18.423-8.912-11.122-23.044-18.423-39.112-18.423-27 0-48.888 20.342-48.888 45.438 0 38.449 66.314 99.169 83.81 114.52z" fill="#e66353"/><path d="m154.191 217.074h-8.383c-.973 0-1.91-.352-2.637-.992-19.98-17.531-85.171-77.816-85.171-117.527 0-27.262 23.727-49.438 52.887-49.438 15.066 0 29.07 5.91 39.113 16.363 10.043-10.453 24.047-16.363 39.109-16.363 29.164 0 52.891 22.176 52.891 49.438 0 39.711-65.191 99.996-85.172 117.527-.726.641-1.664.992-2.637.992zm-6.875-8h5.367c39.528-34.875 81.317-81.91 81.317-110.519 0-22.848-20.137-41.438-44.891-41.438-14.254 0-27.371 6.168-35.988 16.922-1.516 1.898-4.727 1.898-6.242 0-8.617-10.754-21.734-16.922-35.992-16.922-24.75 0-44.887 18.59-44.887 41.438 0 28.609 41.789 75.644 81.316 110.519z" fill="#4c241d"/></g></g><g><path d="m114 181.074 2.511 1.506c11.573 6.944 24.255 11.847 37.489 14.494s-3.721 25.581-35.535 36.186c0 0-10.605 0-21.209 10.605l-37.116-58.326.952-.635c9.343-6.229 14.955-16.715 14.955-27.943 0-5.655.912-11.273 2.7-16.638l9.462-28.387c2.139-6.418 8.723-10.238 15.356-8.912 7.912 1.582 12.646 9.741 10.095 17.395l-11.102 33.306 2.472 3.09c8.958 11.197 8.131 28.477.97 40.259" fill="#e7d1c4"/><path d="m97.254 247.863c-.145 0-.289-.008-.438-.023-1.207-.133-2.285-.805-2.938-1.828l-37.113-58.324c-1.168-1.836-.652-4.27 1.156-5.477l.949-.633c8.25-5.5 13.176-14.703 13.176-24.617 0-6.102.977-12.125 2.906-17.902l9.461-28.387c2.77-8.309 11.355-13.285 19.934-11.57 4.898.977 9.141 4.016 11.648 8.336 2.504 4.316 3.039 9.508 1.457 14.246l-10.41 31.242 1.113 1.391c5.371 6.719 7.535 14.973 7.398 23.074.172.07.34.156.504.254l2.512 1.508c11.211 6.723 23.398 11.434 36.215 14 2.086.418 3.48 2.395 3.172 4.496-.164 1.145-4.465 28.152-38.227 39.406-.41.137-.836.207-1.266.207-.34.008-9.207.258-18.383 9.43-.752.753-1.771 1.171-2.826 1.171zm-31.692-61.254 32.531 51.121c8.84-7.141 17.113-8.262 19.617-8.438 21.891-7.488 29.148-22.32 31.402-29.191-12.184-2.875-23.793-7.586-34.566-14.035-1.035 4.785-2.816 9.281-5.129 13.086-1.148 1.887-3.605 2.488-5.496 1.34-1.887-1.148-2.488-3.609-1.34-5.496 5.832-9.598 7.578-25.363-.676-35.68l-2.473-3.09c-.848-1.059-1.098-2.477-.668-3.766l11.102-33.309c.852-2.559.562-5.367-.793-7.699-1.352-2.336-3.648-3.977-6.293-4.508-4.621-.914-9.281 1.762-10.781 6.258l-9.461 28.387c-1.652 4.961-2.492 10.133-2.492 15.371.001 11.665-5.366 22.552-14.484 29.649z" fill="#4c241d"/></g><g><path d="m74 269.074 28.558-20.615-47.113-71.385-29.445 16.474z" fill="#fff"/><path d="m74 273.074c-.25 0-.504-.023-.754-.07-1.082-.211-2.031-.855-2.621-1.785l-48-75.527c-.59-.926-.773-2.059-.504-3.125s.965-1.973 1.926-2.512l29.445-16.473c1.84-1.023 4.141-.453 5.293 1.289l47.113 71.383c1.18 1.789.738 4.191-1 5.445l-28.558 20.617c-.684.496-1.504.758-2.34.758zm-42.355-78.101 43.453 68.375 22.008-15.887-42.949-65.082z" fill="#4c241d"/></g><circle cx="80" cy="247.074" fill="#4c241d" r="3.707"/><g><path d="m186 181.074-2.511 1.506c-11.573 6.944-24.255 11.847-37.489 14.494s3.721 25.581 35.535 36.186c0 0 10.605 0 21.209 10.605l37.116-58.326-.952-.635c-9.343-6.229-14.955-16.715-14.955-27.943 0-5.655-.912-11.273-2.7-16.638l-9.462-28.387c-2.139-6.418-8.723-10.238-15.356-8.912-7.912 1.582-12.646 9.741-10.095 17.395l11.102 33.306-2.472 3.09c-8.958 11.197-8.131 28.477-.97 40.259" fill="#e7d1c4"/><path d="m202.746 247.863c-1.055 0-2.074-.418-2.828-1.172-9.176-9.172-18.293-9.43-18.383-9.43-.43 0-.855-.07-1.266-.207-33.762-11.254-38.062-38.262-38.227-39.406-.309-2.102 1.086-4.078 3.172-4.496 12.816-2.566 25.004-7.277 36.215-14l2.512-1.508c.164-.098.332-.184.504-.254-.137-8.102 2.027-16.355 7.398-23.074l1.113-1.391-10.41-31.242c-1.582-4.738-1.047-9.93 1.457-14.246 2.508-4.32 6.75-7.359 11.645-8.336 8.602-1.719 17.168 3.258 19.938 11.57l9.461 28.387c1.93 5.777 2.906 11.801 2.906 17.902 0 9.914 4.926 19.117 13.176 24.617l.949.633c1.809 1.207 2.324 3.641 1.156 5.477l-37.113 58.324c-.652 1.023-1.73 1.695-2.938 1.828-.148.016-.292.024-.437.024zm-20.457-18.57c2.504.176 10.777 1.297 19.617 8.438l32.531-51.121c-9.117-7.098-14.484-17.984-14.484-29.648 0-5.238-.84-10.41-2.492-15.371l-9.461-28.388c-1.5-4.496-6.145-7.172-10.785-6.258-2.641.531-4.938 2.172-6.289 4.508-1.355 2.332-1.645 5.141-.793 7.699l11.102 33.309c.43 1.289.18 2.707-.668 3.766l-2.473 3.09c-8.254 10.316-6.508 26.082-.676 35.68 1.148 1.887.547 4.348-1.34 5.496s-4.348.547-5.496-1.34c-2.312-3.805-4.094-8.301-5.129-13.086-10.773 6.449-22.383 11.16-34.566 14.035 2.246 6.863 9.504 21.703 31.402 29.191z" fill="#4c241d"/></g><g><path d="m226 269.074-28.558-20.615 47.113-71.385 29.445 16.474z" fill="#fff"/><path d="m226 273.074c-.836 0-1.656-.262-2.34-.758l-28.559-20.617c-1.738-1.254-2.18-3.656-1-5.445l47.113-71.383c1.156-1.742 3.461-2.312 5.293-1.289l29.445 16.473c.961.539 1.656 1.445 1.926 2.512s.086 2.199-.504 3.125l-48 75.527c-.59.93-1.539 1.574-2.621 1.785-.249.047-.503.07-.753.07zm-23.105-25.613 22.008 15.887 43.453-68.375-22.512-12.594z" fill="#4c241d"/></g><g fill="#4c241d"><circle cx="220" cy="247.074" r="3.707"/><path d="m254 40.586c-2.211 0-4-1.789-4-4v-5.66c0-2.211 1.789-4 4-4s4 1.789 4 4v5.66c0 2.211-1.789 4-4 4z"/><path d="m254 63.223c-2.211 0-4-1.789-4-4v-5.66c0-2.211 1.789-4 4-4s4 1.789 4 4v5.66c0 2.211-1.789 4-4 4z"/><path d="m245.512 49.074h-5.66c-2.211 0-4-1.789-4-4s1.789-4 4-4h5.66c2.211 0 4 1.789 4 4s-1.789 4-4 4z"/><path d="m268.148 49.074h-5.66c-2.211 0-4-1.789-4-4s1.789-4 4-4h5.66c2.211 0 4 1.789 4 4s-1.789 4-4 4z"/></g></g></svg>