<svg xmlns="http://www.w3.org/2000/svg" xmlns:xlink="http://www.w3.org/1999/xlink" width="19.576" height="19.576" viewBox="0 0 19.576 19.576"><defs><clipPath id="a"><path d="M0-682.665H19.576v19.576H0Z" transform="translate(0 682.665)"/></clipPath></defs><g clip-path="url(#a)"><g transform="translate(8.447 18.108)"><path d="M-52.19-49.75h-.4a1.142,1.142,0,0,1-1.142-1.142v-.327h2.683v.327A1.142,1.142,0,0,1-52.19-49.75" transform="translate(53.731 51.219)" fill="#415f7d"/></g><g transform="translate(7.753 14.979)"><path d="M-119.487-121.448h-2.984a.543.543,0,0,1-.543-.543v-2.5a.543.543,0,0,1,.543-.543h2.984a.543.543,0,0,1,.543.543v2.5a.543.543,0,0,1-.543.543" transform="translate(123.014 125.033)" fill="#e6e6f2"/></g><g transform="translate(9.694 14.979)"><path d="M-53.726,0h-1.586V3.585h1.586a.543.543,0,0,0,.543-.543V.543A.543.543,0,0,0-53.726,0" transform="translate(55.312 0)" fill="#c7c7dc"/></g><g transform="translate(4.801 3.523)"><path d="M-337.859-168.928a4.987,4.987,0,0,0-4.987-4.987,4.987,4.987,0,0,0-4.987,4.987,5.279,5.279,0,0,0,.866,2.878,6.543,6.543,0,0,1,1.447,3.881.782.782,0,0,0,.782.782h3.783a.782.782,0,0,0,.782-.782,6.543,6.543,0,0,1,1.447-3.881,5.279,5.279,0,0,0,.866-2.878" transform="translate(347.834 173.916)" fill="#ffe591"/></g><g transform="translate(8.723 3.523)"><path d="M-36.062,0a5.006,5.006,0,0,0-1.065.114A4.989,4.989,0,0,1-33.2,4.987a5.279,5.279,0,0,1-.866,2.878,6.543,6.543,0,0,0-1.447,3.881v.782h1.348a.782.782,0,0,0,.782-.782,6.543,6.543,0,0,1,1.447-3.881,5.279,5.279,0,0,0,.866-2.878A4.987,4.987,0,0,0-36.062,0" transform="translate(37.127)" fill="#ffa442"/></g><g transform="translate(6.869 8.857)"><path d="M-34.992-19.727a.451.451,0,0,0-.451.451.891.891,0,0,0,.506.8l.652.31.09.041v-.8a.8.8,0,0,0-.8-.8m3.771,0a.8.8,0,0,0-.8.8v.8l.09-.041.652-.31a.891.891,0,0,0,.506-.8.451.451,0,0,0-.451-.451m-1.089,5.905a.291.291,0,0,1-.291-.291v-3.242a3.3,3.3,0,0,1-1.011,0v3.242a.291.291,0,0,1-.291.291.291.291,0,0,1-.291-.291V-17.5a3.383,3.383,0,0,1-.34-.14l-.652-.31a1.476,1.476,0,0,1-.838-1.327,1.034,1.034,0,0,1,1.033-1.033,1.382,1.382,0,0,1,1.38,1.38v.983a2.725,2.725,0,0,0,1.011,0v-.983a1.382,1.382,0,0,1,1.38-1.38,1.034,1.034,0,0,1,1.033,1.033,1.476,1.476,0,0,1-.838,1.327l-.652.31a3.38,3.38,0,0,1-.34.14v3.387a.291.291,0,0,1-.291.291" transform="translate(36.025 20.309)" fill="#fff"/></g><g transform="translate(9.497 0)"><path d="M-9.865-65.053a.291.291,0,0,1-.291-.291v-1.338a.291.291,0,0,1,.291-.291.291.291,0,0,1,.291.291v1.338a.291.291,0,0,1-.291.291" transform="translate(10.156 66.973)" fill="#ffe591"/></g><g transform="translate(17.467 9.308)"><path d="M-55.188-19.728h-1.338a.291.291,0,0,1-.291-.291.291.291,0,0,1,.291-.291h1.338a.291.291,0,0,1,.291.291.291.291,0,0,1-.291.291" transform="translate(56.817 20.311)" fill="#ffe591"/></g><g transform="translate(0.189 9.308)"><path d="M-55.188-19.728h-1.338a.291.291,0,0,1-.291-.291.291.291,0,0,1,.291-.291h1.338a.291.291,0,0,1,.291.291.291.291,0,0,1-.291.291" transform="translate(56.817 20.311)" fill="#ffe591"/></g><g transform="translate(15.132 14.944)"><path d="M-41.913-51.777a.291.291,0,0,1-.206-.085l-.946-.946a.291.291,0,0,1,0-.412.291.291,0,0,1,.412,0l.946.946a.291.291,0,0,1,0,.412.291.291,0,0,1-.206.085" transform="translate(43.151 53.305)" fill="#ffe591"/></g><g transform="translate(2.915 2.726)"><path d="M-41.913-51.777a.29.29,0,0,1-.206-.085l-.946-.946a.291.291,0,0,1,0-.412.291.291,0,0,1,.412,0l.946.946a.291.291,0,0,1,0,.412.29.29,0,0,1-.206.085" transform="translate(43.151 53.306)" fill="#ffe591"/></g><g transform="translate(2.915 14.944)"><path d="M-9.864-51.777a.29.29,0,0,1-.206-.085.291.291,0,0,1,0-.412l.946-.946a.291.291,0,0,1,.412,0,.291.291,0,0,1,0,.412l-.946.946a.291.291,0,0,1-.206.085" transform="translate(10.155 53.305)" fill="#ffe591"/></g><g transform="translate(15.132 2.726)"><path d="M-9.864-51.777a.29.29,0,0,1-.206-.085.291.291,0,0,1,0-.412l.946-.946a.291.291,0,0,1,.412,0,.291.291,0,0,1,0,.412l-.946.946a.29.29,0,0,1-.206.085" transform="translate(10.155 53.306)" fill="#ffe591"/></g><g transform="translate(8.119 14.898)"><path d="M-88,0h-1.858a.74.74,0,0,0-.74.74v.412h3.338V.74A.74.74,0,0,0-88,0" transform="translate(90.596)" fill="#ff7e7e"/></g><g transform="translate(9.328 14.898)"><path d="M-47.046,0h-1.389V1.152h2.129V.74a.74.74,0,0,0-.74-.74" transform="translate(48.435)" fill="#ff4a4a"/></g></g></svg>