<svg xmlns="http://www.w3.org/2000/svg" width="136.95" height="26.368" viewBox="0 0 136.95 26.368"><g transform="translate(0)"><path d="M83.316,68.152H70.58V43.77h2.657V65.881H83.316Z" transform="translate(-70.58 -42.166)" fill="#f5b6c3"/><path d="M122.7,48.084a1.724,1.724,0,0,1-1.727-1.72v-.1a1.745,1.745,0,1,1,3.488-.079v.075A1.7,1.7,0,0,1,122.9,48.08a1.171,1.171,0,0,1-.2,0Zm1.345,20.511h-2.657V51.153h2.657V68.591Z" transform="translate(-102.088 -42.609)" fill="#f5b6c3"/><path d="M148.558,48.032c0-2.177,0-5.025,1.918-6.977a5.756,5.756,0,0,1,4.032-1.566A6.42,6.42,0,0,1,157.1,40l-.446,2.08a4.982,4.982,0,0,0-2.016-.416c-2.75,0-3.425,2.559-3.425,5.377v.993h4.223v2.08h-4.223V65.474h-2.657V50.115h-2.4v-2.08h2.4Z" transform="translate(-117.84 -39.488)" fill="#f5b6c3"/><path d="M197.072,78.29a12.611,12.611,0,0,1-5.471,1.087c-5.092,0-8.131-3.582-8.131-8.8,0-5.471,3.073-9.409,7.775-9.409,5.377,0,6.752,4.927,6.752,7.966,0,.607-.034,1.057-.064,1.473H186.067c.034,4.83,2.784,6.651,5.92,6.651a11.03,11.03,0,0,0,4.575-.9l.513,1.918h0Zm-1.7-9.66c.034-2.368-.959-5.441-4.384-5.441-3.2,0-4.609,3.039-4.864,5.441Z" transform="translate(-141.17 -53.046)" fill="#f5b6c3"/><path d="M278.819,46.171a8.277,8.277,0,0,0-4.287-1.12c-3.391,0-4.673,2.08-4.673,3.841,0,2.4,1.473,3.612,4.736,4.991,3.934,1.664,5.95,3.68,5.95,7.168,0,3.871-2.818,6.846-8.064,6.846a11.225,11.225,0,0,1-5.823-1.536l.738-2.207a9.915,9.915,0,0,0,5.25,1.5c3.264,0,5.182-1.761,5.182-4.384,0-2.4-1.315-3.871-4.481-5.152-3.68-1.375-6.175-3.518-6.175-6.88,0-3.713,3.009-6.43,7.457-6.43a9.925,9.925,0,0,1,4.991,1.15l-.8,2.207h0Z" transform="translate(-193.189 -41.562)" fill="#f5b6c3"/><path d="M320.74,52.336l2.623-.9V55.5h4.511v2.08h-4.511V67.661c0,2.207.671,3.425,2.368,3.425a5.278,5.278,0,0,0,1.791-.255l.161,2.05a6.716,6.716,0,0,1-2.593.416c-4.223,0-4.354-3.841-4.354-5.7V57.585H318.05v-2.08h2.687V52.339Z" transform="translate(-225.323 -46.962)" fill="#f5b6c3"/><path d="M371.283,74.864a24.515,24.515,0,0,0,.255,4.159h-2.432l-.259-2.241h-.1a6.064,6.064,0,0,1-5.152,2.623,4.838,4.838,0,0,1-5.088-4.568c-.007-.131-.007-.259,0-.39,0-4.189,3.65-6.464,10.109-6.43,0-1.473,0-4.8-3.968-4.8a7.57,7.57,0,0,0-4.257,1.248l-.641-1.825a9.9,9.9,0,0,1,5.321-1.473c4.927,0,6.209,3.488,6.209,6.943v6.752Zm-2.623-4.894c-3.3,0-7.423.48-7.423,4.159a2.9,2.9,0,0,0,3.009,3.23,4.261,4.261,0,0,0,4.414-4.1v-3.3Z" transform="translate(-250.618 -53.045)" fill="#f5b6c3"/><path d="M422.564,63.889a7.5,7.5,0,0,0-.959-.064c-2.882,0-4.354,2.848-4.354,5.793v9.472H414.6V66.868c0-1.855-.034-3.552-.127-5.216H416.8l.127,3.361h.1a5.219,5.219,0,0,1,4.732-3.743,6.275,6.275,0,0,1,.8.1V63.9h0Z" transform="translate(-285.614 -53.108)" fill="#f5b6c3"/></g></svg>