<svg xmlns="http://www.w3.org/2000/svg" width="337" height="182.089" viewBox="0 0 337 182.089"><g transform="translate(-16.5 -804)"><g transform="translate(106.641 881.693)" opacity="0.6"><g transform="translate(0.001 -77.694)"><path d="M264.658,579.664c-4.257,14.481-3.912,29.934-5.867,44.9-1.322,10.117-2.31,21.506,4.106,29.438l69.177-.606c2.355-3.579,2.221-8.286,1.082-12.415s-3.169-7.965-4.415-12.063c-5.062-16.64,3.047-36.211-5.6-51.3,0,0-7.356-11.886-25.466-11.886s-31.313,8.141-33.015,13.932Z" transform="translate(-227.978 -491.262)" fill="#c68a63"/><path d="M855.041,986.456a35.583,35.583,0,0,0-1.638-8.44c-.841-2.77-1.906-5.463-2.831-8.2a43.7,43.7,0,0,1-2.12-8.466,18.915,18.915,0,0,1,.618-8.295c.113-.345.24-.684.376-1.02a.437.437,0,0,0-.3-.536.446.446,0,0,0-.536.3,18.289,18.289,0,0,0-1.152,8.311,38.132,38.132,0,0,0,1.816,8.526c.873,2.755,1.941,5.441,2.841,8.186a40.669,40.669,0,0,1,1.951,8.305,18.388,18.388,0,0,1-.794,8.158c-.111.311-.233.62-.366.922a.449.449,0,0,0,.156.6.438.438,0,0,0,.6-.156A17.936,17.936,0,0,0,855.041,986.456Z" transform="translate(-749.315 -832.365)"/><path d="M268.2,983.782c-2.045-1.267-2.713-3.84-3.2-6.038a63.465,63.465,0,0,1-1.321-9.087,84.213,84.213,0,0,1-.156-9.188c.108-3.095.359-6.184.7-9.261.34-3.057.773-6.1,1.25-9.14.059-.379.119-.756.179-1.134a.449.449,0,0,0-.3-.536.439.439,0,0,0-.536.3c-.5,3.112-.957,6.23-1.329,9.36s-.655,6.277-.794,9.43a86.854,86.854,0,0,0,.063,9.364,66.379,66.379,0,0,0,1.229,9.289c.5,2.392,1.088,5.146,3.021,6.826a5.929,5.929,0,0,0,.762.563c.478.3.917-.457.44-.754Z" transform="translate(-232.198 -821.67)"/><path d="M321.92,1015.93a.438.438,0,0,0-.536.3,98.034,98.034,0,0,0-.894,14.314q.024,2.016.131,4.029c.03.558.9.561.873,0a97.373,97.373,0,0,1,.279-14.137q.186-1.991.453-3.974a.451.451,0,0,0-.3-.536Z" transform="translate(-283.393 -889.345)"/><path d="M811.808,1043.43c-1.319-4.292-3.121-8.421-4.324-12.75a31.328,31.328,0,0,1-1.223-7.337c-.018-.56-.891-.563-.873,0,.149,4.481,1.516,8.786,3.016,12.973,1.513,4.222,3.175,8.429,3.9,12.877a22.558,22.558,0,0,1,.071,7.473.447.447,0,0,0,.3.536.439.439,0,0,0,.536-.3c.782-4.535-.076-9.122-1.412-13.467Z" transform="translate(-712.174 -895.54)"/><path d="M785.236,1052.163a22.389,22.389,0,0,1-.985-5.959.437.437,0,0,0-.873,0,23.273,23.273,0,0,0,1.015,6.191c.164.535,1.007.307.841-.232Z" transform="translate(-692.712 -915.755)"/><path d="M496.5,1095.74c-2.3,1.377-3.68,5.544-3.45,9.444a14.261,14.261,0,0,0,3.985,9.357,8.91,8.91,0,0,0,7.1,2.383,9.7,9.7,0,0,0,6.349-3.092,14.653,14.653,0,0,0,3.562-8.706c.273-3.548-.751-7.395-2.7-9.142l-14.84-.244Z" transform="translate(-435.964 -959.93)" fill="#fae3d5"/><rect width="14.388" height="15.137" transform="translate(60.415 126.13)" fill="#fae3d5"/><path d="M395.665,568.985c0,16.614-6.06,30.082-27.268,30.082S341.13,585.6,341.13,568.985c0-6.625.146-13.451,3.671-18.421A28.937,28.937,0,0,1,368.425,538.2a28.167,28.167,0,0,1,22.793,11.248C395.245,554.6,395.665,561.855,395.665,568.985Z" transform="translate(-301.649 -466.918)" fill="#fae3d5"/><path d="M357.163,520.225a56.564,56.564,0,0,0-1.993-16.012c-1.755-5.854-5.164-11.224-10.38-14.549a2.632,2.632,0,0,0-.847-.348,9.481,9.481,0,0,0-5.351-6.2,32.211,32.211,0,0,0-12.137-3,28.665,28.665,0,0,0-19.878,6.542c-6.832,4.143-11.583,11.678-13.644,19.3-1.84,6.8-1.973,13.956-1.643,20.953a3.132,3.132,0,0,0,6.264,0c-.133-2.821-.2-5.646-.094-8.467q.073-2.014.267-4.02a2.539,2.539,0,0,0,.429.133,29.5,29.5,0,0,0,18.137-2.212,3.16,3.16,0,0,0,3.819,2.091,22.618,22.618,0,0,0,6.65-3.692c.031.058.061.118.1.174a3.212,3.212,0,0,0,4.286,1.124,21.984,21.984,0,0,0,10.7-11.926c.029.042.057.084.086.127,4.385,2.784,6.011,3.467,7.316,8.357.683,2.559,2.651,15.066,3.055,19.32.155,1.638,4.95,1.568,4.95,0,0-2.065-.089-4.812-.089-7.694Z" transform="translate(-257.451 -415.521)" fill="#c68a63"/><path d="M287.04,850.044c-5.747.934-10.185-4.9-10.451-9.512-.091-2.215,2.106-3.14,4.634-3.234,5.222-.267,9.2,3.959,8.132,7.313-.3,2.172-.95,5.134-2.315,5.432Z" transform="translate(-244.575 -731.388)" fill="#fae3d5"/><path d="M320.883,853.07a1.738,1.738,0,0,1-2.006.8c-1.176-1,.285-2.709-.575-3.667-.918-.416-2.121-1.149-1.434-1.595,1.375-.891,3.67,1.661,4.529-.411a4.974,4.974,0,0,0,.346-2.473,8.028,8.028,0,0,1,1.731,1.52c-.119,2.091-1.434,4.155-2.59,5.831Z" transform="translate(-280.015 -738.847)" fill="#e3b09a"/><path d="M770.416,847.107c5.748.934,10.185-4.9,10.451-9.513.091-2.215-2.194-3.525-4.721-3.619-5.222-.267-9.118,4.346-8.044,7.7.3,2.172.95,5.134,2.315,5.432Z" transform="translate(-679.046 -728.451)" fill="#fae3d5"/><path d="M783.471,853.07a1.738,1.738,0,0,0,2.006.8c1.176-1-.285-2.709.575-3.667.918-.416,2.121-1.149,1.434-1.595-1.375-.891-3.67,1.661-4.529-.411a4.974,4.974,0,0,1-.346-2.473,8.027,8.027,0,0,0-1.731,1.52c.119,2.091,1.434,4.155,2.59,5.831Z" transform="translate(-690.503 -738.847)" fill="#e3b09a"/><ellipse cx="2.561" cy="2.064" rx="2.561" ry="2.064" transform="translate(77.67 104.918) rotate(-88.3)"/><path d="M463.5,781.385c-.045,1.528-1,2.534-2.138,2.5s-2.031-1.094-1.986-2.621,1-2.533,2.138-2.5S463.546,779.857,463.5,781.385Z" transform="translate(-406.209 -679.639)"/><path d="M674.789,741.373c-.256.057-.542-.264-.946-.645-.052-.047-.1-.1-.155-.149s-.118-.1-.175-.15c-.111-.109-.252-.2-.382-.315a6.408,6.408,0,0,0-1.975-1.024c-.166-.043-.324-.1-.477-.131-.076-.016-.152-.043-.225-.057s-.142-.025-.212-.042c-.544-.111-.97-.16-1.071-.4-.046-.116,0-.259.16-.425a1.466,1.466,0,0,1,.135-.127,1.436,1.436,0,0,1,.178-.115,2.079,2.079,0,0,1,.472-.209c.091-.028.189-.056.291-.081s.209-.034.322-.049a3.709,3.709,0,0,1,.721-.011,4.261,4.261,0,0,1,2.858,1.481,3.624,3.624,0,0,1,.406.595,2.985,2.985,0,0,1,.146.291q.057.148.1.285a2.042,2.042,0,0,1,.1.507,1.687,1.687,0,0,1,.009.212,1.542,1.542,0,0,1-.027.184c-.046.222-.133.346-.256.375Z" transform="translate(-591.71 -643.09)"/><path d="M450.892,743.874c-.115.233-.532.265-1.082.307-.069.007-.141.012-.214.014s-.15.017-.228.023c-.155.007-.319.037-.488.052-.34.051-.7.113-1.082.207s-.726.221-1.047.34c-.156.068-.314.121-.454.19-.071.032-.145.058-.211.09s-.13.063-.194.09c-.5.228-.883.4-1.1.253-.1-.073-.139-.218-.108-.433a1.193,1.193,0,0,1,.11-.36,2.119,2.119,0,0,1,.241-.421c.052-.073.11-.148.171-.225s.135-.146.211-.221a3.937,3.937,0,0,1,.52-.429,4.482,4.482,0,0,1,2.942-.757,3.87,3.87,0,0,1,.663.125c.1.03.2.055.291.091s.177.076.258.115a2.15,2.15,0,0,1,.414.253,1.19,1.19,0,0,1,.27.262c.131.173.169.317.115.43Z" transform="translate(-393.211 -647.642)"/><circle cx="6.352" cy="6.352" r="6.352" transform="translate(42.759 112.486) rotate(-52.2)" fill="#edb29c"/><path d="M422.5,864.824q-.531,1.07-1.061,2.14a.437.437,0,0,0-.054.3.4.4,0,0,0,.73.132q.531-1.07,1.061-2.14a.438.438,0,0,0,.054-.3.4.4,0,0,0-.73-.132Z" transform="translate(-372.607 -755.581)" fill="#ed9f8c"/><path d="M445.162,854.745q-.92,2.233-1.841,4.465a.4.4,0,0,0,.764.248q.92-2.233,1.841-4.465a.4.4,0,1,0-.764-.248Z" transform="translate(-391.991 -746.581)" fill="#ed9f8c"/><circle cx="6.352" cy="6.352" r="6.352" transform="translate(72.507 112.037) rotate(-45)" fill="#edb29c"/><path d="M682.078,867.427l-1.312,3.339a.4.4,0,1,0,.764.248l1.313-3.339a.4.4,0,0,0-.764-.248Z" transform="translate(-601.956 -757.796)" fill="#ed9f8c"/><path d="M711.618,871.5l-.913,2.236a.4.4,0,0,0,.258.506.411.411,0,0,0,.506-.258l.913-2.236a.4.4,0,0,0-.258-.506.411.411,0,0,0-.506.258Z" transform="translate(-628.43 -761.396)" fill="#ed9f8c"/><path d="M567.445,821.861c-.724.09-.759-.819-.735-1.326.029-.609-.918-.608-.947,0a2.547,2.547,0,0,0,.366,1.643,1.447,1.447,0,0,0,1.317.631.489.489,0,0,0,.473-.473.476.476,0,0,0-.473-.473Z" transform="translate(-500.278 -716.173)"/><path d="M573.506,884.2c-.183-.052-.306-.3-.271-.676a1.827,1.827,0,0,1,.182-.62,2.413,2.413,0,0,1,1.1-1.1,1.854,1.854,0,0,1,.62-.182c.376-.035.624.088.676.272s-.069.4-.25.63a15.927,15.927,0,0,1-1.425,1.425c-.226.179-.44.3-.63.25Z" transform="translate(-506.885 -770.591)"/><path d="M461.451,484.967a20.113,20.113,0,0,0-6.992-4.452,28.6,28.6,0,0,0-7.269-1.89,30.439,30.439,0,0,0-14.8,1.848,27.967,27.967,0,0,0-6.59,3.664q-.387.292-.766.6a.439.439,0,0,0,0,.617.446.446,0,0,0,.617,0,27.007,27.007,0,0,1,6.252-3.741,29.105,29.105,0,0,1,7.014-2,29.646,29.646,0,0,1,7.294-.22,28.016,28.016,0,0,1,7.069,1.6,25.828,25.828,0,0,1,3.355,1.514,17.835,17.835,0,0,1,3.443,2.346q.4.354.761.738c.389.406,1-.211.617-.617Z" transform="translate(-375.726 -414.03)"/><path d="M284.153,551.822a.437.437,0,0,0-.6-.156,26.759,26.759,0,0,0-7.949,10.184,48.208,48.208,0,0,0-3.753,14.012c-.387,2.888-.627,5.793-.861,8.7a.434.434,0,0,0,.354.427A4.637,4.637,0,0,0,269,587.5c-.583,1.624.093,3.395.952,4.785a12.248,12.248,0,0,0,3.025,3.3,12.035,12.035,0,0,0,4.514,2.125c.546.127.779-.713.231-.841a11.193,11.193,0,0,1-6.35-4.635,6.138,6.138,0,0,1-1.45-4.083,3.013,3.013,0,0,1,2.031-2.492c1.65-.742,3.577-.455,5.289-.119a.5.5,0,0,0,.333-.047.425.425,0,0,0,.134.025.447.447,0,0,0,.436-.436q.229-2.158.46-4.316a.439.439,0,0,0-.436-.436.447.447,0,0,0-.436.436q-.208,1.951-.415,3.9a10.289,10.289,0,0,0-5.2,0c-.11.037-.219.079-.326.122a.533.533,0,0,0,.072-.226,96.559,96.559,0,0,1,2.024-15.027,34.754,34.754,0,0,1,5.229-12.024A23.2,23.2,0,0,1,284,552.419a.449.449,0,0,0,.156-.6Z" transform="translate(-237.674 -478.769)"/><path d="M388.066,643.164a.441.441,0,0,0-.6.156,32.813,32.813,0,0,1-4.135,7.367,12.179,12.179,0,0,1-6.136,4.289,9.766,9.766,0,0,1-4.7.086.455.455,0,0,0-.152-.008,23.927,23.927,0,0,0,1.821-2.552,25.244,25.244,0,0,0,2.212-4.46.439.439,0,0,0-.3-.536.445.445,0,0,0-.536.3,23.154,23.154,0,0,1-4.1,6.948c-1.547,1.774-3.6,3.307-6.062,3.245a4.662,4.662,0,0,1-2.922-1.05,10.209,10.209,0,0,0,3.686-2.738.449.449,0,0,0,0-.617.44.44,0,0,0-.617,0c-1.811,2.207-4.572,3.189-7.271,3.811-1.5.346-3.015.61-4.529.863a37.087,37.087,0,0,1-5.145.559,16.5,16.5,0,0,1-5.651-.748c-.534-.177-.763.664-.231.841,3.407,1.131,7.051.852,10.539.306,1.6-.251,3.2-.532,4.789-.877a23.992,23.992,0,0,0,3.549-1.03c1.767,1.82,4.636,1.9,6.844.908a10.753,10.753,0,0,0,3.54-2.724.377.377,0,0,0,.31.4,10.8,10.8,0,0,0,8.3-1.5A17.446,17.446,0,0,0,386,648.285c.833-1.461,1.538-2.99,2.227-4.522a.449.449,0,0,0-.156-.6Z" transform="translate(-302.766 -559.685)"/><path d="M757.375,677.23a15.335,15.335,0,0,0-.851-4.187,12.481,12.481,0,0,0-1.868-3.265,11.962,11.962,0,0,0-3.13-2.768c-.48-.294-.919.459-.44.753a11.3,11.3,0,0,1,4.5,5.263,13.54,13.54,0,0,1,.892,3.911c.146,1.509.24,3.025.354,4.537q.2,2.608.4,5.216a.447.447,0,0,0,.436.436.44.44,0,0,0,.436-.436c-.24-3.153-.446-6.31-.724-9.459Z" transform="translate(-663.976 -580.76)"/><path d="M676.76,630.66a.439.439,0,0,0-.536.3,18.793,18.793,0,0,1-2.4,6.915.436.436,0,0,0,.753.44,19.421,19.421,0,0,0,2.485-7.124.45.45,0,0,0-.3-.536Z" transform="translate(-595.785 -548.666)"/><path d="M772.317,585.595a51.239,51.239,0,0,0-2.81-9.311,25.437,25.437,0,0,0-4.693-7.391,18.768,18.768,0,0,0-3.706-3.081c-.477-.3-.914.455-.44.753a19.416,19.416,0,0,1,5.771,5.807,31.579,31.579,0,0,1,3.717,8.26c.519,1.711.941,3.45,1.322,5.2.119.549.961.316.841-.232Z" transform="translate(-672.45 -491.273)"/><path d="M796.138,767.2a4.023,4.023,0,0,0-1.4-2.057c-.069-.057-.141-.11-.212-.163,0-.022.009-.043.011-.065a28.738,28.738,0,0,0-.621-9.444c-.129-.546-.97-.315-.841.232a28,28,0,0,1,.632,8.764,6.233,6.233,0,0,0-4.246-.555c-.547.124-.316.965.231.841a5.335,5.335,0,0,1,4.124.782,3.684,3.684,0,0,1,1.365,1.544,3.93,3.93,0,0,1,.039,2.4,13.274,13.274,0,0,1-2.105,4.284,9.441,9.441,0,0,1-1.511,1.83,6.1,6.1,0,0,1-1.686,1.052,6.413,6.413,0,0,1-4.464.193c-.535-.176-.763.665-.231.841a7.273,7.273,0,0,0,6.6-1.144,8.589,8.589,0,0,0,1.737-1.884A15.15,15.15,0,0,0,796,769.966a5.524,5.524,0,0,0,.141-2.768Z" transform="translate(-694.076 -658.764)"/><path d="M654.759,963.1a.446.446,0,0,0-.6.156c-2.018,2.8-4.16,5.734-7.167,7.542a11.276,11.276,0,0,1-2.309,1.063c-.751.245-1.518.432-2.271.672-1.549.5-3.039,1.289-3.606,2.915-.679,1.946.284,6.759.459,6.228a7.32,7.32,0,0,0,.234-2.746,12.146,12.146,0,0,1,.1-2.641,2.9,2.9,0,0,1,1.006-1.929,5.941,5.941,0,0,1,1.9-.937c.76-.252,1.539-.441,2.3-.683a12.288,12.288,0,0,0,2.345-1.02,17.1,17.1,0,0,0,4.032-3.3,48.525,48.525,0,0,0,3.736-4.726.438.438,0,0,0-.156-.6Z" transform="translate(-564.663 -842.587)"/><path d="M332.8,1140.729q.17-12.586,1.157-25.136c.246-3.126.576-6.4,2.132-8.986,1.98-3.3,5.526-4.816,8.9-5.9a31.778,31.778,0,0,0,9.394-4.6c-.679,6.051.177,12.932,4.751,16.964a3.167,3.167,0,0,0,4.837.057c5.113-3.917,6.243-10.97,5.116-17.315,5.054,1.975,11.451,2.506,15.67,6.432a12.92,12.92,0,0,1,3.455,6.943c.53,2.642,2.617,23.373,2.617,31.285l-58.028.26Z" transform="translate(-294.283 -959.992)" fill="#fff"/><path d="M383.64,1103.347c-.439-2.189.177-5.184-2.361-6.861-3.72-2.458-8.339-3.962-12.226-5.044a43.745,43.745,0,0,1-4.4-2.082,39.226,39.226,0,0,1,.17,6.473c-.154,3.462-.331,6.9-.806,10.327-.4,2.857-1,5.72-1.625,8.538-.574,2.59-1.324,5.781-3.339,7.671a3.492,3.492,0,0,1-4.642.286,11.255,11.255,0,0,1-3.259-4.957c-2.137-5.279-2.941-11.2-3.3-16.845a51.874,51.874,0,0,1,.017-7.934,24.815,24.815,0,0,1,.331-2.611,53.89,53.89,0,0,1-8.646,4.052c-3.3,1.362-7.164,2.685-9.273,6.2-1.589,2.646-1.959,5.9-2.226,9.281-.656,8.338-1.047,16.81-1.16,25.181l-.009.689,59.391-.266v-.674c0-7.84-2.083-28.691-2.63-31.418Z" transform="translate(-289.048 -954.288)" fill="#7ecdc6"/><path d="M247.157,1143.4s-7.124.673-12.15,11.427-8.8,15.99-8.8,22.274c0,1.883,1.185,5.982,2.525,6.6,2.2,1.013,7.191,0,14.232-.255,0,0,5.831-7.182,5.831-13.466,0,0,1.312-27.565-1.64-26.579Z" transform="translate(-200.029 -1002.053)" fill="#7ecdc6"/><path d="M515.894,1093.13a19.261,19.261,0,0,0,2.955,15.712,6.553,6.553,0,0,0,3.082,2.655,4.624,4.624,0,0,0,4.139-1.173,13.155,13.155,0,0,0,4.338-6.812,15.336,15.336,0,0,0,.55-4.481c-.02-1.563-.184-3.117-.3-4.673q-.042-.564-.071-1.13c-.021-.433-.7-.436-.676,0,.074,1.5.241,3,.323,4.506a17.9,17.9,0,0,1-.194,4.449,13.31,13.31,0,0,1-3.551,6.883,9.015,9.015,0,0,1-1.52,1.214,4.063,4.063,0,0,1-1.953.691,4.127,4.127,0,0,1-3.153-1.9,17.714,17.714,0,0,1-3.353-7.026,18.375,18.375,0,0,1-.177-7.8q.094-.467.214-.929a.339.339,0,0,0-.653-.179h0Z" transform="translate(-455.683 -957.41)"/><path d="M506.4,1093.85l-1.481,1.238a.339.339,0,0,0,0,.478.347.347,0,0,0,.478,0l1.481-1.238a.339.339,0,0,0,0-.478.347.347,0,0,0-.478,0Z" transform="translate(-446.392 -958.174)" fill="#404040"/><path d="M503.606,1099.8a53.813,53.813,0,0,0,.043,14.63,55.966,55.966,0,0,0,1.469,7.139q.488,1.784,1.089,3.536c.366,1.069.744,2.141,1.2,3.174.747,1.674,1.844,3.411,3.638,4.085a4.056,4.056,0,0,0,.647.181.347.347,0,0,0,.416-.236.341.341,0,0,0-.236-.415c-1.8-.347-2.912-1.944-3.663-3.489a27.783,27.783,0,0,1-1.166-2.937q-.6-1.7-1.1-3.438a56.555,56.555,0,0,1-1.535-7,53.467,53.467,0,0,1-.6-7.089,54.109,54.109,0,0,1,.358-7.245q.052-.445.111-.888a.339.339,0,0,0-.338-.338.347.347,0,0,0-.338.338h0Z" transform="translate(-444.897 -963.22)"/><path d="M437.735,1099.59c-1.624,2.878-3.141,5.819-4.477,8.844a72.318,72.318,0,0,0-3.355,9.154q-.774,2.684-1.311,5.427a.343.343,0,0,0,.5.382,31.076,31.076,0,0,1,2.914-1.2c1.058-.387,2.128-.748,3.214-1.046.4-.111.81-.215,1.222-.288l.126-.021c.106-.017-.035,0,.037-.006s.134-.015.2-.017c.051,0,.1,0,.154,0,.075,0-.09-.017-.021,0,.038.008.051.034.014,0s-.042-.021-.019-.007.031.036-.045-.036l.009.009a.256.256,0,0,1-.069-.257c-.016.074.032-.061-.007.023-.116.251-.231.5-.353.751-.277.563-.569,1.116-.868,1.667q-.639,1.179-1.316,2.339a.345.345,0,0,0,.053.41,30.527,30.527,0,0,0,3.239,2.8,24.371,24.371,0,0,0,4.919,2.917,17.156,17.156,0,0,0,3.285,1.069.345.345,0,0,0,.415-.236.341.341,0,0,0-.236-.416,18.382,18.382,0,0,1-5.452-2.188,27.945,27.945,0,0,1-4.148-2.99q-.8-.689-1.544-1.433c.017.136.035.273.053.41q.611-1.043,1.189-2.105c.316-.578.626-1.158.92-1.748.133-.266.263-.534.384-.8.088-.194.2-.389.081-.6-.139-.252-.461-.267-.714-.248a7.286,7.286,0,0,0-1.146.208,34.206,34.206,0,0,0-3.28,1.016,34.734,34.734,0,0,0-3.555,1.438l.5.382a65.267,65.267,0,0,1,2.618-9.466,80.554,80.554,0,0,1,3.836-8.885c.831-1.66,1.711-3.3,2.621-4.912a.339.339,0,0,0-.584-.342h0Z" transform="translate(-378.981 -963.184)"/><path d="M589.89,1086.76a52.67,52.67,0,0,1,.441,7.282,61.7,61.7,0,0,1-.51,7.464,63.481,63.481,0,0,1-1.393,7.355,56.74,56.74,0,0,1-2.184,6.905,12.568,12.568,0,0,1-1.4,2.7,4.837,4.837,0,0,1-2.089,1.778,4,4,0,0,1-.694.2.341.341,0,0,0-.236.416.345.345,0,0,0,.416.236c2.1-.406,3.4-2.329,4.231-4.148.478-1.05.863-2.146,1.234-3.237q.6-1.759,1.08-3.552a64.7,64.7,0,0,0,2.2-15.077,54,54,0,0,0-.312-7.416q-.052-.453-.112-.905a.349.349,0,0,0-.338-.338c-.164,0-.362.156-.338.338h0Z" transform="translate(-514.477 -951.689)"/><path d="M590.062,1088.5a70.818,70.818,0,0,1,4.33,9.242,89.106,89.106,0,0,1,3.154,9.86q.715,2.767,1.264,5.575l.5-.382a33.559,33.559,0,0,0-3.156-1.3c-1.1-.4-2.206-.772-3.333-1.07a10.7,10.7,0,0,0-1.2-.263,1.324,1.324,0,0,0-.841.049c-.449.272-.044.846.111,1.17.284.593.589,1.173.9,1.752q.679,1.26,1.4,2.5c.017-.137.035-.273.053-.41a29.308,29.308,0,0,1-3.121,2.707,24.39,24.39,0,0,1-4.825,2.869,16.4,16.4,0,0,1-3.2,1.034c-.426.09-.245.742.179.653a18.944,18.944,0,0,0,5.591-2.243,28.793,28.793,0,0,0,4.292-3.1c.536-.463,1.058-.944,1.559-1.446a.345.345,0,0,0,.053-.41q-.566-.967-1.1-1.951c-.3-.551-.6-1.106-.885-1.667-.133-.263-.265-.528-.39-.794-.053-.115-.1-.23-.157-.345-.043-.093.012.05-.006-.016a.271.271,0,0,1,0,.126c-.006.022-.08.128-.062.113-.081.077-.066.047-.031.029-.106.056-.066.028-.028.017.083-.024-.086,0-.01,0a3.126,3.126,0,0,1,.346.015c.091.009-.062-.012.047.007l.115.018c.093.016.185.034.277.053.206.043.411.093.615.145,1.068.275,2.119.624,3.158.994a32.482,32.482,0,0,1,3.314,1.343.343.343,0,0,0,.5-.382,94.066,94.066,0,0,0-2.525-10,83.3,83.3,0,0,0-3.694-9.722q-1.191-2.611-2.6-5.117a.339.339,0,0,0-.584.342h0Z" transform="translate(-514.508 -953.077)"/><path d="M377.97,960.072a20.508,20.508,0,0,1-5.833-2.113A16.507,16.507,0,0,1,364.2,948.9c-.191-.575-1.106-.329-.913.252a17.162,17.162,0,0,0,7.181,8.917,21.247,21.247,0,0,0,5.33,2.435,21.018,21.018,0,0,0,2.893.649c1.016.154,2.913.252,2.848,1.691-.028.609.919.608.947,0,.11-2.4-2.859-2.443-4.515-2.774Z" transform="translate(-321.217 -829.797)"/><path d="M261.345,1088.634c-2.2,2.514-5.371,3.612-8.506,4.47-3.163.866-6.458,1.531-9.341,3.164-3.422,1.938-5.518,5.268-7.252,8.69a117.671,117.671,0,0,0-5.4,12.408c-1.65,4.468-3.759,9.583-2.361,14.385a.474.474,0,0,0,.913-.251c-1.245-4.278.53-8.792,1.965-12.8a117.221,117.221,0,0,1,5.271-12.406c1.7-3.446,3.632-6.989,7.029-9.029,2.794-1.677,6.05-2.339,9.158-3.178,3.371-.91,6.825-2.081,9.194-4.787.4-.457-.267-1.13-.67-.67Z" transform="translate(-201.635 -953.511)"/><path d="M825.585,1320.622c-.092-.6-1-.345-.913.252a75.957,75.957,0,0,1,.515,18.415c-.057.606.891.6.947,0a76.925,76.925,0,0,0-.55-18.667Z" transform="translate(-729.221 -1158.482)"/><path d="M610.788,940.219a6.1,6.1,0,0,0-.848-2.193l-1.058-1.943c.907-4.309-.693-8.6-.781-11.587a2,2,0,0,0-.429-1.442c-.764-.722-1.988.124-2.56,1.006s-1.287,2-2.326,1.843a2.455,2.455,0,0,1-1.256-.8c-3.22-3.133-3.951-4.316-6.937-7.675-2.128-2.393-3.373-.306-1.923,1.7s5.774,7.918,5.774,7.918a4.03,4.03,0,0,0-2.763.337c-2.066,1.22-3.675,5.56-1.981,8.183,1.41,2.184,6.014,5.782,8.165,7.524a5.265,5.265,0,0,0,1.767,2.11,3.058,3.058,0,0,0,1.871.639,3.6,3.6,0,0,0,1.826-.9,19.266,19.266,0,0,0,1.647-1.376c.935-.877,1.969-1.962,1.812-3.353Z" transform="translate(-523.522 -801.312)" fill="#fae3d5"/><path d="M613.519,1025.114a37.356,37.356,0,0,0-3.715-4.1q-1-.95-2.064-1.822a17.166,17.166,0,0,1-2-1.712,2.542,2.542,0,0,1-.729-2.09l.575.277a.348.348,0,0,0,.463-.122.212.212,0,0,0,.016-.037.323.323,0,0,0,.206-.485q-.323-.528-.645-1.057a4.253,4.253,0,0,1-.529-1.021.979.979,0,0,1,.178-.889,3.085,3.085,0,0,1,.326-.359c.053-.052.213-.251.293-.227a.3.3,0,0,0,.253-.026,3.537,3.537,0,0,0,.933,1.392c.321.294.8-.183.478-.478-.561-.515-1.279-1.595-.585-2.273.71-.692,1.787-.332,2.567.022a.349.349,0,0,0,.463-.121.341.341,0,0,0-.122-.463,4.464,4.464,0,0,0-1.918-.509,2.15,2.15,0,0,0-1.5.625,1.548,1.548,0,0,0-.441,1.167c-.461-.1-.851.334-1.127.649a1.793,1.793,0,0,0-.52,1.24,2.853,2.853,0,0,0,.5,1.339q.233.384.468.766l-.359-.172a.343.343,0,0,0-.463.121,2.775,2.775,0,0,0,.264,2.581,7.654,7.654,0,0,0,1.914,1.885,37.326,37.326,0,0,1,4.223,3.888q1.113,1.2,2.119,2.487a.339.339,0,0,0,.478,0,.347.347,0,0,0,0-.478Z" transform="translate(-534.369 -883.242)" fill="#e3b09a"/><path d="M609.772,927.8a1.139,1.139,0,0,0-1.66-.477,4.963,4.963,0,0,0-.889.7l-.9.79-.928.813c-.232.2-2.336-.513-2.476-.63a29.109,29.109,0,0,1-4.051-4.118.322.322,0,0,0-.373-.068c-.225-.306-.448-.61-.672-.91-.432-.576-.861-1.164-1.34-1.7a2.807,2.807,0,0,0-1.944-1.1c-.435-.014-.435.663,0,.676a2.2,2.2,0,0,1,1.466.9c.407.457.774.953,1.141,1.441.758,1.009,1.7,2.039,2.5,3.015a13.929,13.929,0,0,0,2.422,2.587,8.925,8.925,0,0,0,1.56.938,1.737,1.737,0,0,0,1.128.207,2.178,2.178,0,0,0,.894-.561l2.007-1.757a3.35,3.35,0,0,1,.893-.68c.171-.066.5-.08.575.115a.347.347,0,0,0,.415.236.34.34,0,0,0,.236-.416Z" transform="translate(-525.438 -805.501)" fill="#e3b09a"/><path d="M606.642,936.741c.059.1.116.2.169.309.182.122.266-.905-.007-1.268a.387.387,0,0,0,.172-.293,18.287,18.287,0,0,0-.059-4.643,17.8,17.8,0,0,0-.466-2.266,16.417,16.417,0,0,1-.55-2.187,8.23,8.23,0,0,1,.118-2.008,1.992,1.992,0,0,0-.461-1.714,1.7,1.7,0,0,0-1.67-.31,3.117,3.117,0,0,0-1.5,1.094,5.729,5.729,0,0,1-1.416,1.527,1.185,1.185,0,0,1-1.478-.057c-.083-.094-2.756-2.579-3.939-3.873q-.906-.992-1.78-2.009-.438-.509-.866-1.025c-.272-.326-.53-.669-.825-.977a1.909,1.909,0,0,0-2.006-.657,1.194,1.194,0,0,0-.745.779,1.926,1.926,0,0,0,.119,1.2,10.743,10.743,0,0,0,1.255,2.28c.514.745,1.059,1.469,1.612,2.185,1.02,1.321,2.081,2.606,3.152,3.885a3,3,0,0,0-1.7.031,2.088,2.088,0,0,0-1.373,1.491,2.735,2.735,0,0,0-1.738,1.639,2.817,2.817,0,0,0,.035,2.083,3.471,3.471,0,0,0-.054,2.778,6.188,6.188,0,0,0,1.817,2.458c.816.707,1.726,1.3,2.533,2.013.427.379.81.8,1.219,1.2a14.3,14.3,0,0,0,1.349,1.087c.8.608,2.009,2.183,2.171,2.095-.125-.325-.259-.646-.411-.961a.556.556,0,0,1-.058-.221,5.257,5.257,0,0,0-.713-.942,11.369,11.369,0,0,0-1.262-1.007,12.707,12.707,0,0,1-1.23-1.166,24.376,24.376,0,0,0-2.475-2.046,7.389,7.389,0,0,1-2.037-2.154,3.319,3.319,0,0,1-.42-2.373,3.506,3.506,0,0,0,1.053.928.339.339,0,0,0,.341-.584,2.613,2.613,0,0,1-1.365-2.384,2.074,2.074,0,0,1,1.264-1.73c.01.038.019.075.031.113a6.556,6.556,0,0,0,.97,1.558.348.348,0,0,0,.463.121.341.341,0,0,0,.122-.463c-.186-.264-.374-.528-.558-.794a2.4,2.4,0,0,1-.361-.656.914.914,0,0,1-.039-.265.334.334,0,0,0,0-.1,1.225,1.225,0,0,1,.447-.817c.845-.711,2.094-.268,2.963.139a.348.348,0,0,0,.463-.122.341.341,0,0,0-.122-.463l-.061-.028c-.007-.009-.011-.019-.019-.027-1.115-1.328-2.23-2.654-3.305-4.014q-.8-1.01-1.561-2.051a18.2,18.2,0,0,1-1.346-2.051,5.781,5.781,0,0,1-.471-1.064c-.081-.269-.149-.633.087-.844.461-.412,1.118.01,1.468.372.273.281.512.6.763.9q.408.491.823.978.83.972,1.69,1.918,1.932,2.13,4,4.127a2.5,2.5,0,0,0,1.737.417,2.877,2.877,0,0,0,1.506-.951,16.161,16.161,0,0,1,1.245-1.477,1.652,1.652,0,0,1,1.377-.439c.515.127.647.637.63,1.112-.023.64-.2,1.262-.175,1.905a9.458,9.458,0,0,0,.451,2.222,20.678,20.678,0,0,1,.523,2.181,17.669,17.669,0,0,1,.137,5.087.306.306,0,0,0-.145.083.346.346,0,0,0,0,.478c.024.029.047.059.072.089l.01.014.023.031c.046.062.09.123.134.185.087.125.169.254.246.384Z" transform="translate(-521.083 -801.248)"/><path d="M695.662,1099.167c1.142.7,20.921,12.854,24.952,16.543,5.964,5.46,6.174,20.557-6.82,17.025-11.848-3.221-23.33-19.047-26.125-22.54-2-2.494,6.852-11.735,7.993-11.029Z" transform="translate(-607.821 -962.926)" fill="#7ecdc6"/><path d="M779.261,1115.775a62,62,0,0,0-10.854-8.953,80.629,80.629,0,0,0-14.292-7.7c-.562-.234-.807.682-.251.913a78.281,78.281,0,0,1,22.506,14.225c2.942,2.675,5.935,6.012,6.2,10.18a8.345,8.345,0,0,1-1.241,5.165,6.8,6.8,0,0,1-5.095,2.846,14.146,14.146,0,0,1-7.127-1.526c-2.454-1.108-4.833-2.392-7.236-3.6-.543-.274-1.023.543-.478.817,2.3,1.159,4.572,2.371,6.9,3.452a17.138,17.138,0,0,0,6.639,1.85,8.712,8.712,0,0,0,5.834-1.814,7.866,7.866,0,0,0,2.618-4.773c.711-4.221-1.346-8.054-4.132-11.078Z" transform="translate(-666.336 -962.886)"/><path d="M701.278,1202.974a98.824,98.824,0,0,1-13.556-15.568c-.347-.5-1.169-.023-.817.478a100,100,0,0,0,13.7,15.759c.446.416,1.117-.253.67-.67Z" transform="translate(-607.328 -1040.801)"/><path d="M368.671,1372.554a41.384,41.384,0,0,0-.057,12.173c.086.6,1,.345.913-.251a39.871,39.871,0,0,1,.057-11.67C369.676,1372.211,368.764,1371.954,368.671,1372.554Z" transform="translate(-325.579 -1204.404)"/><path d="M143.415,1487.42H.458a.474.474,0,0,0,0,.947H143.413a.474.474,0,0,0,0-.947Z" transform="translate(-0.001 -1306.278)" fill="#404040"/><circle cx="23.205" cy="23.205" r="23.205" transform="translate(91.081 32.817) rotate(-45)" fill="#f2f2f2"/><path d="M912.064,20.383a23.95,23.95,0,0,0-2.209-7.118A23.693,23.693,0,0,0,905.75,7.4a24.328,24.328,0,0,0-5.7-4.41,23.807,23.807,0,0,0-31.9,8.436,24.2,24.2,0,0,0-2.79,6.7,23.686,23.686,0,0,0-.635,7.3,23.937,23.937,0,0,0,1.679,7.333,23.682,23.682,0,0,0,3.7,6.216,23.859,23.859,0,0,0,26.508,7.245,23.8,23.8,0,0,0,15.7-22.135,24.914,24.914,0,0,0-.246-3.7Zm-1.308,7.264a21.145,21.145,0,0,1-.828,3.3,22.57,22.57,0,0,1-7.828,10.9,21.745,21.745,0,0,1-2.82,1.822,22.715,22.715,0,0,1-13.763,2.544,22.225,22.225,0,0,1-6.583-1.927,22.82,22.82,0,0,1-5.64-3.753c-.429-.388-.758-.709-1.168-1.141s-.778-.851-1.142-1.3-.715-.91-1.046-1.383q-.245-.349-.476-.708c-.165-.257-.287-.453-.42-.678a22.92,22.92,0,0,1-1.547-3.164,21.506,21.506,0,0,1-1.035-3.347A22.612,22.612,0,0,1,866,21.711a22.161,22.161,0,0,1,1.681-6.673,22.506,22.506,0,0,1,3.544-5.778,21.424,21.424,0,0,1,2.345-2.4,23.007,23.007,0,0,1,2.767-2.088,22.478,22.478,0,0,1,3.011-1.612A22.911,22.911,0,0,1,882.627,2a23.5,23.5,0,0,1,3.613-.656,21.372,21.372,0,0,1,3.523-.081A22.568,22.568,0,0,1,902.395,6.02a22.466,22.466,0,0,1,4.668,4.934,21.2,21.2,0,0,1,1.722,2.936,22.947,22.947,0,0,1,1.308,3.308q.231.747.421,1.593.2.88.329,1.774a22.388,22.388,0,0,1-.084,7.085Z" transform="translate(-764.591 8.999)"/><path d="M1009.793,138.321a2.224,2.224,0,1,1-.918-3.008,2.183,2.183,0,0,1,.918,3.008Zm-.286-5.605a9.009,9.009,0,0,1,1.116-1.812,8.8,8.8,0,0,1,4.72-2.789c2.409-.711,2.454-.723,3.133-1.152a6.153,6.153,0,0,0,2.183-2.334,4.837,4.837,0,0,0,.466-3.7,4.633,4.633,0,0,0-2.426-2.646c-1.729-.92-3.3-.932-4.544-.013a6.835,6.835,0,0,0-1.841,2.329c-.515.966-.993,1.088-1.99.558-1.142-.609-1.466-1.271-1.014-2.12a5.573,5.573,0,0,1,4.749-2.773,10.485,10.485,0,0,1,5.339,1.414c4.19,2.231,5.68,5.433,3.98,8.626a5.152,5.152,0,0,1-3.068,2.653,19.374,19.374,0,0,1-3.682.559,6.868,6.868,0,0,0-6.066,3.764l-1.054-.561Z" transform="translate(-889.208 -93.81)"/><circle cx="12.066" cy="12.066" r="12.066" transform="translate(5.909 36.027)" fill="#f2f2f2"/><path d="M72.156,239.525a12.464,12.464,0,0,0-3.895-6.335,13.07,13.07,0,0,0-1.564-1.16,12.465,12.465,0,1,0,5.458,7.494Zm-.437,3.78a10.706,10.706,0,0,1-.23,1.7,11.665,11.665,0,0,1-6.6,8.21c-.259.118-.49.212-.782.318-.275.1-.556.191-.838.271s-.567.15-.855.209c-.144.03-.288.057-.433.081s-.306.049-.395.06a12.249,12.249,0,0,1-1.784.094,11.226,11.226,0,0,1-1.729-.167A11.7,11.7,0,0,1,49.63,247.8a11.832,11.832,0,0,1-1.075-3.329,11.646,11.646,0,0,1-.15-1.714q-.007-.443.02-.885c.008-.148.02-.3.034-.442.007-.074.015-.147.023-.221s.021-.168.022-.181a11.678,11.678,0,0,1,16.179-9.159,12.3,12.3,0,0,1,1.61.852,11.734,11.734,0,0,1,4.553,5.386,12.213,12.213,0,0,1,.559,1.715,11.155,11.155,0,0,1,.284,1.672,12.117,12.117,0,0,1,.03,1.81Z" transform="translate(-42.097 -194.496)"/><path d="M113.218,291.786a5.348,5.348,0,0,1-1.032-.743,5.253,5.253,0,0,1-1.459-2.934,5.732,5.732,0,0,0-.552-1.918,3.674,3.674,0,0,0-1.3-1.4,2.894,2.894,0,0,0-2.186-.437,2.769,2.769,0,0,0-1.683,1.333,2.433,2.433,0,0,0-.2,2.709,4.093,4.093,0,0,0,1.309,1.2c.554.348.606.639.247,1.211-.412.655-.821.821-1.308.514a3.332,3.332,0,0,1-1.449-2.951,6.263,6.263,0,0,1,1.073-3.123c1.51-2.4,3.484-3.154,5.315-2a3.081,3.081,0,0,1,1.45,1.943,11.554,11.554,0,0,1,.175,2.22,4.108,4.108,0,0,0,1.984,3.78l-.381.605Zm3.355.071a1.33,1.33,0,1,1-1.833.418A1.3,1.3,0,0,1,116.573,291.857Z" transform="translate(-91.607 -240.999)"/><circle cx="1.836" cy="1.836" r="1.836" transform="translate(28.207 57.397)" fill="#f2f2f2"/><path d="M243.971,417.026a1.446,1.446,0,0,1-.274.847,1.519,1.519,0,0,1-.646.5,1.437,1.437,0,1,1-.257-2.756,1.311,1.311,0,0,1,.479.182,1.378,1.378,0,0,1,.381.329,1.483,1.483,0,0,1,.317.9.4.4,0,0,0,.8,0,2.265,2.265,0,0,0-1.487-2.105,2.237,2.237,0,0,0-2.672,3.248,2.236,2.236,0,0,0,4.158-1.141.4.4,0,0,0-.8,0Z" transform="translate(-212.493 -357.793)"/><circle cx="5.926" cy="5.926" r="5.926" transform="translate(99.236 64.375) rotate(-54.34)" fill="#f2f2f2"/><path d="M884.646,418.475a5.392,5.392,0,0,1-1.656,2.854,5.471,5.471,0,0,1-1.34.885,5.112,5.112,0,0,1-.733.274c-.128.038-.259.072-.391.1-.071.016-.142.03-.214.043-.034.006-.208.035-.162.029a5.538,5.538,0,0,1-1.67-.029,5.448,5.448,0,0,1-1.633-.564,5.37,5.37,0,0,1-2.237-2.286,5.449,5.449,0,0,1-.55-3.136,5.39,5.39,0,0,1,4.234-4.574,5.358,5.358,0,0,1,5.691,2.465,5.351,5.351,0,0,1,.778,3.117,4.724,4.724,0,0,1-.115.822.565.565,0,0,0,.385.678.557.557,0,0,0,.678-.385,6.5,6.5,0,1,0-.291.933,6.266,6.266,0,0,0,.289-.933.552.552,0,1,0-1.064-.293Z" transform="translate(-771.892 -354.325)"/><circle cx="2.529" cy="2.529" r="2.529" transform="translate(98.296 73.69) rotate(-87.11)" fill="#f2f2f2"/><path d="M850.669,515.224a2.021,2.021,0,0,1-1.653,1.559,2,2,0,0,1-2.05-1.071,1.974,1.974,0,0,1-.2-1.182,2.047,2.047,0,0,1,.519-1.062,2,2,0,0,1,2.208-.476,1.973,1.973,0,0,1,1,.936,2.1,2.1,0,0,1,.2.63,2.5,2.5,0,0,1-.028.664.564.564,0,0,0,.385.678.557.557,0,0,0,.678-.385,3.131,3.131,0,0,0-1.345-3.294,3.081,3.081,0,1,0,1.345,3.295c.163-.69-.9-.985-1.064-.293Z" transform="translate(-747.78 -443.526)"/></g></g><line x2="337" transform="translate(16.5 985.5)" fill="none" stroke="#b3b3b3" stroke-width="1"/></g></svg>