<svg xmlns="http://www.w3.org/2000/svg" width="25.5" height="17.958" viewBox="0 0 25.5 17.958"><path d="M117.388,96.273a2.848,2.848,0,0,1,0-1.448c.068-.253-.068-.528.069-.81l-.419-.661H102.709l-1.112,2.2,1.112,2.079h14.571l.179-.54C117.319,96.8,117.456,96.534,117.388,96.273Z" transform="translate(-96.537 -92.477)" fill="#e8f6ff"/><path d="M79.882,93.355v4.28H78.027l-.454-2.079.454-2.2Z" transform="translate(-73.71 -92.477)" fill="#d8ecfe"/><path d="M79.154,95.042v1.026a.205.205,0,0,0,.205.205h.523l.4.681-.4.681H78.027l-.454-2.079.454-2.2h1.855l.4.846-.4.636h-.523A.205.205,0,0,0,79.154,95.042Z" transform="translate(-73.71 -92.477)" fill="#c5e1ff"/><path d="M138.923,94.016a4.351,4.351,0,0,0-.311.81l-14.681.011V93.355h14.331Z" transform="translate(-117.759 -92.477)" fill="#d8ecfe"/><path d="M138.923,152.773l-.421.54H123.931v-1.361h14.678A4.463,4.463,0,0,0,138.923,152.773Z" transform="translate(-117.759 -148.155)" fill="#d8ecfe"/><path d="M83.6,81.875l-8.884.623-6.917-.623-.671-.091a2.375,2.375,0,0,1-2.429-2.474l-.043-1.026a2.422,2.422,0,0,1,2.458-2.5l.7-.063H83.6a.257.257,0,0,1,.257.257V77a.257.257,0,0,1-.257.257H67.079a1.026,1.026,0,0,0-1.026,1.026V79.31a1.026,1.026,0,0,0,1.026,1.026H83.6a.257.257,0,0,1,.257.257v1.026A.257.257,0,0,1,83.6,81.875Z" transform="translate(-61.43 -75.718)" fill="#fc93bb"/><path d="M65.3,81.875h-.924a2.566,2.566,0,0,1-2.565-2.565V78.283a2.566,2.566,0,0,1,2.565-2.565H65.3a2.566,2.566,0,0,0-2.565,2.565V79.31A2.566,2.566,0,0,0,65.3,81.875Z" transform="translate(-58.733 -75.718)" fill="#fe75a8"/><path d="M87.208,221.178l-.677.32H67.6l-.523-1.346.523-1.609H86.575l.633.583A2.6,2.6,0,0,0,87.208,221.178Z" transform="translate(-63.734 -211.43)" fill="#e8f6ff"/><g transform="translate(1.805 7.113)"><path d="M36.242,218.543H38.3V221.5H36.242Z" transform="translate(-36.242 -218.543)" fill="#d8ecfe"/><path d="M91.077,219.125a2.274,2.274,0,0,0-.2.821H71.467l-.32-.549.32-.855H90.444Z" transform="translate(-69.409 -218.542)" fill="#d8ecfe"/><path d="M88.129,255.79l-.677.32H68.52l-.475-.623.475-.518H87.926A2.312,2.312,0,0,0,88.129,255.79Z" transform="translate(-66.461 -253.155)" fill="#d8ecfe"/></g><path d="M37.572,220.152a.205.205,0,0,0,.205.205H38.3V221.5H36.242v-2.955H38.3v1.4h-.523A.205.205,0,0,0,37.572,220.152Z" transform="translate(-34.437 -211.43)" fill="#c5e1ff"/><path d="M46.749,204.471l-10.9.669-9.881-.669-.886-.1c-1.133,0-1.642-.818-1.642-1.951v-1.026c0-1.133.527-2,1.661-2l.9-.047H46.749a.257.257,0,0,1,.257.257v1.026a.257.257,0,0,1-.257.257H25.1a.513.513,0,0,0-.513.513v1.026a.513.513,0,0,0,.513.513H46.749a.257.257,0,0,1,.257.257v1.026a.257.257,0,0,1-.257.256Z" transform="translate(-22.275 -193.183)" fill="#bbeb6d"/><path d="M18.531,204.471H17.505a2.052,2.052,0,0,1-2.052-2.052v-1.026a2.052,2.052,0,0,1,2.052-2.052h1.026a2.052,2.052,0,0,0-2.052,2.052v1.026A2.052,2.052,0,0,0,18.531,204.471Z" transform="translate(-14.683 -193.183)" fill="#a0e05c"/><path d="M61.753,323.426a4.263,4.263,0,0,1,0-1.96c.068-.278-.145-.55-.018-.811l.658-.661H40.9l-1.112,2.713,1.112,2.079H62.339l-.6-.54C61.61,323.982,61.821,323.707,61.753,323.426Z" transform="translate(-37.804 -307.828)" fill="#e8f6ff"/><path d="M18.071,319.995v4.793H16.216l-.454-2.079.454-2.713Z" transform="translate(-14.977 -307.829)" fill="#d8ecfe"/><path d="M17.343,321.681v1.539a.205.205,0,0,0,.205.205h.523l.4.681-.4.681H16.216l-.454-2.079.454-2.713h1.855l.4.846-.4.636h-.523A.205.205,0,0,0,17.343,321.681Z" transform="translate(-14.977 -307.828)" fill="#c5e1ff"/><path d="M62.12,319.995h21.5l-.349.661a4.046,4.046,0,0,0-.291.811l-20.858.01Z" transform="translate(-59.026 -307.829)" fill="#d8ecfe"/><path d="M83.269,389.714l.292.54H62.12v-1.361H82.975A4.049,4.049,0,0,0,83.269,389.714Z" transform="translate(-59.026 -373.296)" fill="#d8ecfe"/><path d="M27.942,309.028H5.984l-.671-.091a2.376,2.376,0,0,1-2.429-2.474l-.043-1.539a2.422,2.422,0,0,1,2.458-2.5l.7-.063H27.942a.257.257,0,0,1,.257.257v1.026a.257.257,0,0,1-.257.257H5.269a1.026,1.026,0,0,0-1.026,1.026v1.539a1.026,1.026,0,0,0,1.026,1.026H27.942a.257.257,0,0,1,.257.257v1.026A.257.257,0,0,1,27.942,309.028Z" transform="translate(-2.699 -291.07)" fill="#89cafe"/><path d="M3.489,309.029H2.565A2.566,2.566,0,0,1,0,306.464v-1.539a2.566,2.566,0,0,1,2.565-2.565h.924a2.566,2.566,0,0,0-2.565,2.565v1.539A2.566,2.566,0,0,0,3.489,309.029Z" transform="translate(0 -291.071)" fill="#60b7ff"/></svg>