<?xml version="1.0" encoding="UTF-8"?><svg id="_レイヤー_2" xmlns="http://www.w3.org/2000/svg" viewBox="0 0 3500 1068.10022"><defs><style>.cls-1{stroke-width:0px;}</style></defs><g id="OBJECTS"><path class="cls-1" d="m2024.18269,1068.10022c-59.4015.0057-112.6219-11.0977-159.3435-33.3159-51.4738-24.4751-92.8252-60.5754-126.039-103.0836-41.2607-28.8813-76.499-71.3896-101.5526-123.4304-17.6928,83.9504-71.2024,162.5645-149.4877,188.0604-79.8221,57.2013-188.0604,59.5263-267.4345,50.6061-142.473-16.0086-279.1674-67.7262-411.3649-117.7369-63.4788-24.0158-129.1125-48.8482-194.5931-69.4332-175.3466-55.1201-423.4947-94.1238-609.8256,33.1685-1.3269.9016-3.1303.5727-4.0376-.7599-.9016-1.327-.5614-3.1303.7599-4.0376,188.2476-128.6079,438.2614-89.4227,614.8499-33.9057,65.6337,20.6304,131.3468,45.4911,194.8994,69.5353,131.8629,49.8859,268.217,101.4731,409.9585,117.3967,73.6692,8.302,172.4601,6.8049,249.1235-40.0868-4.2474.9016-8.5629,1.6558-12.9408,2.2456-8.4268,1.1455-16.7628,1.6842-24.9514,1.6842-110.9888.0114-199.0958-98.995-233.3871-143.9984-56.5662-74.2136-76.1701-140.5789-58.2674-197.2584,21.9119-69.3935,92.0143-103.9116,159.8086-137.2956,65.7131-32.3632,133.6151-65.8038,155.2322-130.9045-52.1826,11.2679-95.3317,50.1581-137.1027,87.8008-50.5608,45.5705-102.8115,92.6494-169.8572,87.0807-60.7455-5.0924-107.4558-52.8971-150.0945-101.4221-45.6272-51.9444-92.8138-105.6525-120.4419-170.8779-30.8945-72.9434-28.9041-149.0965,5.3192-203.7005C932.18679,16.62222,1034.80549-4.85878,1114.42339.87442c154.8693,11.2565,307.1754,108.7771,397.4771,254.5051,29.7659,48.0316,53.3281,101.4901,70.3461,158.7311,2.0699-61.5848,12.351-117.2266,44.1925-165.3036,59.7531-90.2109,179.5996-119.9996,264.5481-134.5565,105.0797-18.0161,212.3881-26.3465,319.1181-24.736,64.6697.9754,177.2802,15.0616,204.9083,98.462,17.2903,52.2109-7.2869,106.5428-33.9453,157.716-50.0391,96.0519-109.4236,187.4026-204.2959,205.2713-54.434,10.2698-106.1969-6.1415-156.3494-30.9002,11.8009,11.5344,22.5924,23.9591,32.1931,37.2004,61.874,85.3228,71.4746,201.8575,23.891,289.9873-49.8803,92.3602-161.2943,144.1685-259.1211,120.527-21.8042-5.2739-42.8429-14.0126-62.6906-25.8078,30.6393,35.8337,67.7432,66.2235,112.6389,87.574,98.961,47.0506,227.9828,43.3816,383.4929-10.8766,37.4953-13.0881,75.1947-28.1214,111.6522-42.6613,84.7273-33.7866,172.3354-68.73,263.9867-81.8579,96.9535-13.8764,196.1016-3.0565,291.989,7.4004,57.7684,6.3059,117.5045,12.8273,176.2142,13.8991,71.6164,1.2816,311.8368-8.285,399.8248-186.3252.7145-1.4404,2.4611-2.0244,3.8901-1.3156,1.4347.7089,2.0245,2.4498,1.3157,3.8902-89.5021,181.1024-332.7677,190.8391-405.1327,189.5575-58.9762-1.0774-118.8428-7.6102-176.7415-13.9331-95.5245-10.4286-194.3097-21.2088-290.5317-7.4231-90.9708,13.0315-178.2556,47.8388-262.6654,81.5006-36.5142,14.5626-74.2703,29.6186-111.8847,42.7464-83.939,29.2953-160.3246,43.9543-228.5612,43.9543Zm-564.3685-679.253c.8166,0,1.5992.3403,2.1549.9584.6749.7485.913,1.7919.6295,2.756-20.5906,70.6127-91.2997,105.4313-159.6781,139.0988-66.6999,32.8452-135.668,66.8133-156.8371,133.8364-17.2959,54.7741,1.9961,119.3701,57.3487,191.9959,36.208,47.5099,133.3316,156.2643,252.94,140.0799,9.9125-1.344,19.4962-3.5272,28.7225-6.476,5.6255-4.066,11.1091-8.4098,16.417-13.0485,59.3335-51.8651,93.2958-134.5736,103.8208-252.8493.2098-2.376.414-4.7464.6068-7.1168-16.9046-70.6184-19.8194-144.0948-22.6605-215.6772-.93-23.4657-1.5992-46.2907-1.4347-68.4011-17.1371-63.6603-42.2474-122.903-74.8771-175.562-89.3433-144.1799-239.9199-240.6514-392.9632-251.7718-78.013-5.7275-178.2726,15.2148-225.6691,90.8461-33.2195,52.9992-35.0512,127.1505-4.8996,198.3473,27.2652,64.3634,74.14,117.7142,119.4666,169.3128,41.8504,47.6403,87.6194,94.5604,146.2157,99.4713,64.5506,5.3816,113.5576-38.8052,165.485-85.6119,43.6311-39.3213,88.7479-79.9809,144.6959-90.1429.1701-.0284.3459-.0454.516-.0454Zm150.4348,346.0374c-11.5968,114.9696-45.9561,195.9938-104.9153,247.53-.6295.55-1.2589,1.0944-1.8884,1.6388,68.9965-31.1326,115.3212-106.1628,129.6683-184.6693-3.1359-6.975-6.0961-14.1146-8.8691-21.4015-5.3929-14.1997-10.0203-28.5808-13.9955-43.098Zm132.6114,192.5743c23.5849,16.3886,49.1488,28.2066,75.8866,34.6713,95.3827,23.0687,203.9783-27.509,252.645-117.6349,46.5516-86.2131,37.1154-200.2697-23.4714-283.8174-13.5588-18.6966-29.5334-35.743-47.4078-50.8784-17.931-9.612-35.6692-19.9952-53.2657-30.2877-13.6269-7.9788-27.7245-16.2241-41.4422-23.8116-3.0055-1.6616-6.0564-3.2948-9.1356-4.8826-34.4671-12.0788-71.2592-18.7816-108.5446-19.2013-37.2004-.4366-88.6685,6.1131-122.3984,39.6048-49.1033,48.7632-39.1681,123.9919-29.5618,196.7424,1.5254,11.5401,3.0792,23.2957,4.3892,34.9491,19.4565,77.2419,51.0598,158.6858,102.3067,224.5463Zm-103.7301-128.8687c21.6511,47.5439,51.797,87.3926,87.2962,116.4554-38.465-54.4056-64.9079-117.5669-83.0714-179.6847.981,20.8005-.4877,42.117-4.2248,63.2293Zm-27.3275-80.9789c4.7521,19.7174,10.6044,39.1852,17.8743,58.3071,1.6559,4.3608,3.3798,8.665,5.1718,12.9124,2.8354-19.4792,3.6917-39.0661,2.4271-58.137-.5784-8.733-1.4404-17.7098-2.4555-26.7604-6.6405-26.4146-11.8746-52.3358-15.9916-76.981-9.3341-55.8346-14.2677-119.2738,19.8875-166.381,54.6267-75.3478,171.0707-61.0404,260.3176-15.0673,38.5898,13.5872,74.3157,33.8036,104.7112,59.4299,55.2845,29.5618,112.276,51.5645,171.9497,40.325,92.4396-17.415,150.8601-107.4955,200.2243-202.2545,26.0856-50.0674,50.1581-103.146,33.5824-153.2021-26.4996-79.9921-136.3598-93.534-199.4871-94.481-106.3103-1.6615-213.3181,6.6972-318.0463,24.6566-83.888,14.3755-202.1807,43.6991-260.6862,132.0387-34.3027,51.7913-43.0414,113.0075-43.6254,181.2668,23.6642,88.2942,32.108,184.9586,24.1462,284.3278Zm-24.0442-260.1078c.2269,14.6079.7202,29.4994,1.327,44.6745,2.5689,64.8285,5.2058,131.2221,18.2826,195.4551,4.8882-83.4116-1.8827-164.5947-19.6096-240.1296Zm168.5926-44.2152c-45.5364,0-86.746,14.574-112.9394,50.6969-32.8906,45.372-27.991,107.3594-18.8554,162.0145.5501,3.272,1.1115,6.5668,1.7012,9.8899-7.2926-63.3428-8.234-125.4776,35.3744-168.7855,35.1533-34.9094,87.9483-41.6973,126.5607-41.2947,24.1406.2722,48.077,3.136,71.3386,8.3531-33.8887-12.9918-69.7054-20.8742-103.1801-20.8742Z"/></g></svg>