<?xml version="1.0" encoding="UTF-8"?>
<svg id="_レイヤー_2" data-name="レイヤー 2" xmlns="http://www.w3.org/2000/svg" viewBox="0 0 888.98 685.92">
  <defs>
    <style>
      .cls-1 {
        stroke-width: 0px;
      }
    </style>
  </defs>
  <g id="_饑1" data-name="ﾑ饑1">
    <path class="cls-1" d="m760.55,121.17c11.34,21.35,17.55,43.94,23.28,66.56,3.46,13.63,4.42,27.87,7.16,41.71,4.4,22.2,1.9,44.11-3.78,65.44-6.93,26-15.57,51.58-30.36,74.43.24.57.31,1.18.65,1.5,2.71,2.62,8.56,3.53,6.39,8.96-2.29,5.74-2.96,13.35-11.29,14.33-4.43.52-7.6,2.59-10.04,6.12-1.85,2.68-3.79,5.3-5.62,7.99-19.18,28.16-44.82,46.15-79.2,50.48-3.23.41-6.49.89-9.63,1.72-12.22,3.23-24.26,1.37-36.42-.54-7.2-1.13-14.55-1.41-21.85-1.69-6.35-.24-11.9,2.39-15.86,7.18-8.64,10.45-17.11,21.06-25.18,31.95-7.93,10.7-14.91,22.1-22.95,32.71-11.32,14.94-22.43,30.03-35.7,43.47-31.06,31.44-63.84,60.82-100.97,84.93-11.82,7.68-24.5,14.17-37.25,20.23-11.63,5.53-24.09,7.67-37.25,7.2-14.46-.51-28.96-.6-42.82-4.91-25.29-7.85-45.66-21.79-58.14-46.4-10.61-20.93-17.01-42.93-20.52-65.87-3.13-20.41-6.2-40.87-7.89-61.43-.92-11.27.44-22.85,1.89-34.15,4.3-33.44,9-66.84,13.9-100.2,1.1-7.46,3.64-14.71,5.64-22.51-.15-.15-.57-.89-1.21-1.24-13.58-7.47-27.29-14.7-40.74-22.39-13.76-7.87-26.54-17.24-36.81-29.38-6.11-7.21-10.97-15.47-16.45-23.22-12.81-18.1-23.4-37.25-29.72-58.7-4.23-14.34-9.28-28.43-14.05-42.61-6.28-18.66-9.77-37.87-11.78-57.4-.27-2.65-.8-5.27-1.16-7.59-1.19-.38-1.72-.74-2.2-.68-22.67,2.85-36.89-9.59-46.53-27.63C-3.54,61.5-1.49,43.34,10.37,26.41,21.19,10.95,35.68,2.56,54.68.87c14.01-1.24,27.95-1.74,41.25,2.62,21.34,6.99,37.52,20.26,42.4,43.27,6.18,29.15-15.63,60.27-45.07,65.67-1.04.19-2.05.52-3.34.85.11,1.53-.05,2.92.33,4.14,10.69,34.55,21.26,69.05,37.05,101.84,15.38,31.93,38.67,56.28,66.98,76.49,7.06,5.04,14.6,9.41,22.61,14.53,1.19-2.62,2.07-4.47,2.88-6.36,10.26-23.79,20.92-47.54,38.35-67.01,20.36-22.72,45.58-37.68,76.39-41.68,11.28-1.47,21.61,1.65,30.69,8.45,32.35,24.2,40.29,64.52,29.16,96.31-4.96,14.16-13.43,25.17-22.83,36.14-22.63,26.39-51.12,42.25-85.53,46.01-11.95,1.31-24.34-1.42-36.52-2.32-1.06-.08-2.12-.26-3.5-.43-.57.9-1.41,1.72-1.63,2.67-4.7,21.24-9.86,42.4-13.83,63.77-4,21.56-2.43,43.42-.94,65.15,1.55,22.58,6.13,44.7,10.65,66.84,4.92,24.11,17.64,43.03,37.05,57.73,8.61,6.52,18.87,8.28,29.22,9.09,16.77,1.31,33.26-.8,48.9-6.94,6.97-2.74,13.63-6.85,19.59-11.44,11.21-8.62,21.95-17.87,32.63-27.15,16.73-14.52,30.86-31.47,44.09-49.12,15.18-20.25,29.77-41.02,47.5-59.15,10.13-10.36,19.54-21.17,27.58-33.16,6.95-10.36,13.5-20.99,20.46-31.87-1.38-1.72-2.62-3.43-4.03-4.98-13.47-14.81-20.44-32.51-23.4-52.06-3.78-24.97-3.38-49.79.72-74.75,1.24-7.54-.74-15.62-1.35-23.44-.08-1.04-.87-2-1.12-3.05-2.18-9.34,4.55-16.28,13.75-14.18,2.6.59,5.15,1.4,7.74,2.11.65-1,1.26-1.61,1.49-2.34,6.66-20.53,18.72-38,31.47-55.02,10.19-13.6,23.17-24.51,36.05-35.39,21.44-18.11,44.07-34.65,68.25-48.95,8.57-5.07,17.51-9.54,26.92-14.63-15.36-15.5-29.88-31.53-50.3-40.95-3.77,4.95-6.9,9.35-10.33,13.51-8.41,10.24-18,11.1-28.49,2.91-7.71-6.02-11.4-13.67-10.23-23.48.22-1.89.21-3.91.92-5.61,2.98-7.06,2.77-16.06,10.98-20.08,11.29-5.54,22.81-11.06,35.85-6.45,6.36,2.25,12.76,4.82,18.52,8.27,8.38,5.01,16.28,10.85,24.26,16.51,15.97,11.33,28.12,26.38,39.66,41.88,3.21,4.31,6.05,5.65,11.4,5.13,22.27-2.19,44.57-1.66,66.78,1.22,9.17,1.19,18.38,2.2,27.48,3.77,19.05,3.29,31.98,15.01,42.05,30.81,6.89,10.82,7.98,22.17,5.25,34.43-1.35,6.06-1.95,12.35-2.32,18.57-.83,14-9.14,22.92-20.11,29.83-2.75,1.73-6.76,2.14-10.15,2.03-8.15-.27-14.29-5.29-19.45-10.79-4.51-4.82-3.54-11.16-1-16.94,2.56-5.82,6.64-9.97,13.34-10.59,1.88-.17,3.8.12,5.7.15,2.83.03,4.61-1.34,5.28-4.1,1.77-7.22,2.77-14.34-.31-21.58-6.09-14.33-15.32-24.54-31.41-28.01-19.58-4.22-45.64-5.02-66.61,1.59Zm-34.03,9.18c-44.51,14.79-81.87,39.42-111.95,74.26-17,19.69-31,41.7-40.53,65.9,6.43,5.35,7.41,8.37,4.26,14.58-1.25,2.46-3.9,4.21-5.9,6.3-2.37,2.47-6.03,4.6-6.84,7.51-3.51,12.58-5.54,25.33-4.32,38.65,2.27,24.79,14.33,44.72,29.63,63.21,4.27,5.16,9.95,8.5,16.47,10.04,10.14,2.4,20.37,2.93,30.77,1.44,27.45-3.94,47.51-20.27,66.16-39.04.5-.5.51-1.48.68-2.02-1.38-2.59-3.04-4.84-3.84-7.37-2.74-8.7,1.44-13.89,10.49-13.33,2.38.15,4.75.46,7.06.69.85-1.32,1.52-2.18,1.99-3.14,10.65-21.51,19.16-43.89,25.35-67.04,6.57-24.55,5.16-49.63,3.24-74.65-.73-9.6-3.58-18.54-7.13-27.48-3.08-7.75-4.96-16.04-6.66-24.24-1.78-8.61-5.16-16.43-8.95-24.29Zm-477.93,234.67c6.5.73,11.88,1.35,17.27,1.92,32.37,3.44,60.06-7.06,83.62-28.82,6.14-5.67,10.43-13.35,16.56-19.04,7.84-7.27,11.33-16.5,14.23-26.14,8.37-27.82.93-57.4-24.51-77.37-4.89-3.84-10.55-5.85-16.7-5.52-5.13.28-10.4.74-15.29,2.2-22.66,6.79-42.08,18.94-57.67,36.8-13.16,15.07-22.66,32.61-31.97,50.14-3.52,6.63-6.1,14.03-7.66,21.38-5.81,27.39-11.13,54.88-16.44,82.37-7.85,40.61-15.4,81.31-11.88,122.97,1.32,15.68,4.05,31.25,6.21,46.85.18,1.31.89,2.56,1.38,3.82,4.88,12.68,9.64,25.41,14.74,38.01,1.41,3.47,3.65,6.65,5.79,9.77,3.08,4.48,6.33,8.85,9.66,13.15,5.31,6.86,10.14,14.11,17.69,19,8.76,5.67,18.07,9.85,28.07,12.86,12.93,3.89,26.02,5.16,39.46,5.1,6.18-.03,11.82-.81,17.33-3.48,8.57-4.14,17.08-8.45,25.84-12.15,19.28-8.14,36.46-19.26,51.5-33.9,7.78-7.57,16.66-14.01,24.68-21.35,9.61-8.81,19.06-17.83,28.16-27.17,7.4-7.59,14.25-15.73,21.2-23.74,8.55-9.85,17.37-19.52,25.32-29.85,7.62-9.9,14.31-20.51,21.32-30.88,9.97-14.74,21.22-28.3,35.54-39.09,1.29-.97,2.49-2.12,3.58-3.32,6.59-7.21,17.59-9.68,26.66-7.04,6.7,1.95,13.75,2.91,20.72,3.64,5.11.53,10.35-.37,15.5-.03,13.54.88,25.74-3.56,37.24-9.74,11.48-6.17,22.44-13.33,33.47-20.3,13.16-8.31,21.8-20.8,30.77-33.52-5.9-3.5-11.39-6.76-17.03-10.11-12.57,15.85-26.61,29.12-42.68,40.01-23.29,15.78-48.75,20.79-76.21,13.35-9.44-2.56-17.57-7.38-23.47-15.36-10.56-14.29-19.69-29.5-25.76-46.2-5.82-16-8.51-32.67-5.76-49.74,1.63-10.14,3.89-20.19,5.96-30.74-4.62-2.3-9.14-4.54-14.22-7.07-1.57,5.46-2.89,10.09-4.22,14.71-1.73,6-4.45,11.91-5.04,18.02-2.15,22.61-1.44,45.16,4.74,67.21,3.03,10.81,7.59,21.08,15.17,29.45,7.4,8.16,8.75,17.26,5.75,27.19-4.06,13.45-10.59,25.42-20.83,35.48-13.38,13.14-26.96,26.24-38.89,40.64-19.78,23.88-38.24,48.85-57.42,73.23-5.71,7.26-11.42,14.68-18.11,20.98-12.87,12.13-26.35,23.6-39.74,35.16-7.29,6.3-15.8,10.6-24.92,13.63-18.57,6.17-37.61,8.8-57.12,6.92-11.18-1.07-22.08-3.49-31.48-10.2-23.33-16.64-39.2-38.41-44.58-66.89-4.03-21.37-8.11-42.78-10.7-64.35-2.85-23.79-4.56-48.03.59-71.59,8.46-38.76,17.89-77.34,28.17-115.66,6.08-22.66,16.76-43.66,30.19-63.03,4.16-6,8.6-12.01,13.85-17.04,12.34-11.8,28.25-15.92,44.53-18.36,3.76-.56,8.55.26,11.74,2.25,13.68,8.56,23.55,20.23,25.33,36.97,2.06,19.43-6.11,35.48-17.67,50.19-3.18,4.05-6.74,7.81-10.13,11.7-13.49,15.47-30.11,23.18-50.78,19.44-9.32-1.69-18.43-4.59-27.62-7-2.29-.6-4.52-1.43-7.46-2.37-1.92,7.43-3.67,14.2-5.57,21.59Zm42.63-22.94c4.82-.52,9.94-.18,14.41-1.71,32.97-11.3,51.62-36.25,50.91-72.08-.2-10.18-7.93-20.94-17.94-22.73-11.46-2.05-23.19-2.34-33.86,4.53-5.5,3.54-8.14,9.22-12.21,13.78-15.74,17.65-24.62,38.87-33,60.42-1.68,4.32-.84,6.49,3.27,8.65,8.88,4.66,17.55,10.16,28.42,9.14ZM86.44,102.19c15.94-2.09,25.52-10.8,32.34-22.32,14.88-25.12,3.28-51.6-24.42-59.91-15.82-4.75-32.35-3.97-48.44-.3-17.58,4.01-31.93,24.39-29.02,41.87,2.79,16.75,14.08,26.96,29.24,33.25,1.83.76,3.97.75,6.72,1.22-.31-5.39-.57-9.96-.84-14.52-.35-5.96-1.33-11.97-.89-17.87.35-4.72,1.61-9.75,3.87-13.87,5.41-9.85,17.25-10.5,24.35-1.71,4.57,5.66,6.96,12.37,7.22,19.56.25,7.04-.29,14.1-.36,21.16-.04,4.22.14,8.44.24,13.44Zm762.48,96.53c4.69,2.52,8.78,3.43,12.44,1.01,6.18-4.1,11.81-9.03,13.35-16.81,2.11-10.66,4.21-21.35,5.63-32.12.5-3.81-.22-8.24-1.78-11.77-2.06-4.66-5.15-9-8.43-12.96-7.96-9.6-17.31-17.82-29.98-19.91-26.85-4.42-53.82-8.16-81.18-6.47-26.97,1.67-52.54,7.79-75.95,22.15-23.24,14.26-45.45,29.85-66.73,46.89-24.14,19.32-43.84,42.25-58.25,69.6-3.49,6.63-5.99,13.78-9.19,21.28,4.69,2.09,8.34,3.71,12.14,5.4.89-1.26,1.7-2.04,2.09-2.99,7.36-18.03,17.98-34.19,29.11-49.98,16.79-23.81,38.63-42.62,61.3-60.55,1.27-1.01,2.73-1.8,4.16-2.58,32.05-17.58,64.88-33.12,100.95-40.93,24.31-5.27,48.41-6.33,72.73-.33,18.31,4.52,30.08,15.96,35.95,33.38,5.11,15.18,3.65,29.22-8.6,41.3-4.27,4.21-7.75,9.68-9.78,16.37ZM213.14,327.08c-1.81-1.08-3.46-1.98-5.01-3.01-10.65-7.05-21.71-13.57-31.84-21.3-37.99-28.96-63.97-66.4-76.95-112.47-6.93-24.59-13.22-49.36-19.44-74.13-1.77-7.05-2.41-14.41-3.31-21.65-1.13-9.17-1.75-18.41-3.07-27.55-.63-4.34-1.75-8.88-5.97-11.93-3.76,3.7-3.85,7.77-3.53,11.82.95,11.93,1.73,23.88,3.16,35.76,3.03,25.1,5.85,50.25,14.69,74.25,3.66,9.94,7.03,20.05,9.56,30.33,5.56,22.56,15.76,42.81,29.22,61.53,9.67,13.45,18.6,27.6,33.15,36.69,15.92,9.94,31.77,19.99,47.63,30.02,3.15,1.99,6.33,2.98,10.29,1.06.28-1.06.74-2.33.93-3.63.27-1.85.33-3.72.5-5.79Zm535.07,39.14c2.17-3.65,3.89-6.39,5.46-9.21,13.52-24.25,21.48-50.48,27.21-77.46,5.7-26.84,5.16-53.54-3.06-79.86-6.72-21.55-13.69-43.02-20.56-64.51-1.3-4.07-2.67-8.12-4.2-12.8-5.27,1.35-9.85,2.53-15.44,3.97,2.42,4.97,4.44,9.03,6.38,13.13,1.16,2.44,2.83,4.84,3.18,7.41,1.55,11.24,6.31,21.31,10.67,31.57,2,4.73,3.66,9.73,4.55,14.78,4.55,25.91,5.34,51.96,1.26,78-4.34,27.74-14.99,53.31-27.78,78.08-1.34,2.59-2.55,5.24-4.07,8.38,5.5,2.85,10.5,5.45,16.41,8.51Zm-19.23-273.15c-3.55-3.85-6.49-6.33-8.57-9.41-8.41-12.45-17.63-24.15-29.98-32.95-6.63-4.72-13.95-8.55-20.23-13.67-11.24-9.15-23.8-9.6-37.03-7.09-14.33,2.71-18.23,7.05-19.79,21.48-.74,6.84,2.5,13.4,7.8,15.8,3.57,1.62,13.26-.87,16.67-4.28,3.8-3.8,3.73-5.61.29-10.2-.98-1.31-2-3.73-1.43-4.81.87-1.66,2.99-3.37,4.79-3.64,1.85-.27,4.25.76,5.87,1.96,1.88,1.4,3.18,3.59,4.57,5.26,14.59-.77,24.19,8.4,33.6,16.72,9.68,8.56,18.02,18.65,27.72,28.88,4.18-1.08,9.58-2.47,15.71-4.05Z"/>
  </g>
</svg>