<svg xmlns="http://www.w3.org/2000/svg" width="61.536" height="39.831" viewBox="0 0 61.536 39.831"><g transform="translate(0 -90.299)"><path d="M59.844,110.874v-4.254a5.561,5.561,0,0,0-5.554-5.554H43.857a.9.9,0,1,0,0,1.8H54.289a3.756,3.756,0,0,1,3.752,3.752v4.186H38.6a5.227,5.227,0,0,0-5.14-4.319H31.983v-3.619h7.363a.9.9,0,1,0,0-1.8H31.082a3.566,3.566,0,0,1-2.068-.656l-4.868-3.437a5.771,5.771,0,0,0-5.52-.621A5.771,5.771,0,0,0,7.435,94.1,4.362,4.362,0,0,0,4.7,95.367a2.231,2.231,0,0,0-2.329.885L.532,98.862a2.229,2.229,0,0,0,.535,3.107l.305.215-.967,1.369a2.214,2.214,0,0,0,.532,3.086l9.056,6.394a.9.9,0,1,0,1.04-1.473l-9.056-6.394a.412.412,0,0,1-.1-.574l.967-1.369,21.343,15.07a.9.9,0,0,0,.52.165H59.733v2.087H23.759l-8.821-6.228a.9.9,0,1,0-1.04,1.473l6.735,4.756H2.792a2.323,2.323,0,0,0-2.321,2.321v1.052a2.323,2.323,0,0,0,2.321,2.321H5.1a2.846,2.846,0,1,0,5.295,0H36.668a.9.9,0,1,0,0-1.8H2.792a.518.518,0,0,1-.518-.518v-1.052a.518.518,0,0,1,.518-.518H59.733v1.57a.518.518,0,0,1-.518.518H41.488a.9.9,0,0,0,0,1.8H51.613a2.847,2.847,0,1,0,5.3,0h2.308a2.323,2.323,0,0,0,2.321-2.321V113.036a2.231,2.231,0,0,0-1.693-2.161ZM8.791,127.283a1.044,1.044,0,1,1-1.044-1.044A1.045,1.045,0,0,1,8.791,127.283Zm46.513,0a1.044,1.044,0,1,1-1.044-1.044A1.045,1.045,0,0,1,55.3,127.283ZM36.761,110.806H26.851l-3.5-2.472,1.451-2.055,1.376.971a5.651,5.651,0,0,0,3.276,1.04h4.011A3.423,3.423,0,0,1,36.761,110.806ZM23.106,98.446l4.868,3.437a5.358,5.358,0,0,0,2.206.911v3.695h-.727a3.858,3.858,0,0,1-2.236-.71L21.873,102a.9.9,0,1,0-1.04,1.473l2.5,1.762-1.451,2.055-6.592-4.654s2.308-3.252,2.4-3.386a3.973,3.973,0,0,1,5.423-.809ZM9.265,96.359l3.414,2.411a2.564,2.564,0,0,1,1,2.736l-1.657-1.17-5.672-4a2.564,2.564,0,0,1,2.914.028Zm3.6-4.257A3.969,3.969,0,0,1,15.25,99.24,4.336,4.336,0,0,0,13.719,97.3L10.3,94.887a4.347,4.347,0,0,0-1.02-.534A4,4,0,0,1,12.862,92.1Zm12.133,24.554L2.107,100.5a.426.426,0,0,1-.1-.594l1.842-2.609a.426.426,0,0,1,.594-.1l21.6,15.254a.9.9,0,0,0,.52.165H59.307a.427.427,0,0,1,.427.426v3.62H24.995Z" transform="translate(0 0)" fill="#e4e4e4"/></g></svg>