<svg xmlns="http://www.w3.org/2000/svg" xmlns:xlink="http://www.w3.org/1999/xlink" width="31.709" height="33.288" viewBox="0 0 31.709 33.288"><defs><filter id="a" x="0" y="7.732" width="31.709" height="25.556" filterUnits="userSpaceOnUse"><feOffset dy="3" input="SourceAlpha"/><feGaussianBlur stdDeviation="3" result="b"/><feFlood flood-opacity="0.161"/><feComposite operator="in" in2="b"/><feComposite in="SourceGraphic"/></filter><filter id="c" x="0" y="0" width="31.709" height="25.556" filterUnits="userSpaceOnUse"><feOffset dy="3" input="SourceAlpha"/><feGaussianBlur stdDeviation="3" result="d"/><feFlood flood-opacity="0.161"/><feComposite operator="in" in2="d"/><feComposite in="SourceGraphic"/></filter></defs><g transform="translate(22.709 6) rotate(90)"><g transform="translate(7.732)"><g transform="matrix(0, -1, 1, 0, -13.73, 22.71)" filter="url(#a)"><path d="M280.368,45.572l-6.153-6.153a.7.7,0,1,0-.992.992l5.657,5.657-5.657,5.657a.7.7,0,1,0,.992.992l6.153-6.153A.7.7,0,0,0,280.368,45.572Z" transform="translate(61.92 -259.29) rotate(90)" fill="#f0a9b9"/></g></g><g transform="matrix(0, -1, 1, 0, -6, 22.71)" filter="url(#c)"><path d="M7.351,45.572,1.2,39.419a.7.7,0,0,0-.992.992l5.656,5.657L.205,51.725a.7.7,0,1,0,.992.992l6.153-6.153A.7.7,0,0,0,7.351,45.572Z" transform="translate(61.92 6) rotate(90)" fill="#f0a9b9"/></g></g></svg>