<svg xmlns="http://www.w3.org/2000/svg" width="25.463" height="24.57" viewBox="0 0 25.463 24.57"><path d="M25.42,18.186a.737.737,0,0,0-.656-.522l-8.289-.537L13.4,9.4a.73.73,0,0,0-.671-.418.746.746,0,0,0-.716.418L8.941,17.127l-8.235.537a.773.773,0,0,0-.671.522.756.756,0,0,0,.239.806L6.614,24.3,4.555,32.358a.744.744,0,0,0,1.119.806l7.056-4.431,7,4.431a.767.767,0,0,0,.85-.03.741.741,0,0,0,.283-.776L18.8,24.3,25.2,18.992A.724.724,0,0,0,25.42,18.186Z" transform="translate(0 -8.982)" fill="#ffda2d"/><path d="M268.466,18.993,262.072,24.3l2.059,8.056a.741.741,0,0,1-.283.776.767.767,0,0,1-.85.03l-7-4.431V8.983a.73.73,0,0,1,.671.418l3.073,7.727,8.289.537a.737.737,0,0,1,.656.522A.724.724,0,0,1,268.466,18.993Z" transform="translate(-243.27 -8.983)" fill="#ffda2d"/><path d="M242.492,473.83a.746.746,0,1,1-.746-.746A.739.739,0,0,1,242.492,473.83Z" transform="translate(-229.016 -450.006)" fill="#979fef"/><circle cx="0.746" cy="0.746" r="0.746" transform="translate(21.722 17.086) rotate(-72.002)" fill="#737ee6"/><circle cx="0.746" cy="0.746" r="0.746" transform="matrix(0.588, -0.809, 0.809, 0.588, 17.826, 5.099)" fill="#737ee6"/><circle cx="0.746" cy="0.746" r="0.746" transform="matrix(0.809, -0.588, 0.588, 0.809, 5.55, 4.768)" fill="#979fef"/><circle cx="0.746" cy="0.746" r="0.746" transform="translate(1.858 16.13) rotate(-17.998)" fill="#979fef"/><path d="M256.746,473.83a.739.739,0,0,1-.746.746v-1.492A.739.739,0,0,1,256.746,473.83Z" transform="translate(-243.27 -450.006)" fill="#737ee6"/><path d="M163.324,174.888a.753.753,0,0,0-.656-.522l-2.7-.164-1-2.521a.73.73,0,0,0-.671-.418.7.7,0,0,0-.716.418l-1,2.521-2.7.164a.758.758,0,0,0-.433,1.328l2.089,1.731-.671,2.611a.764.764,0,0,0,.283.791.744.744,0,0,0,.835.03l2.312-1.447,2.268,1.447a.744.744,0,0,0,.835-.03.764.764,0,0,0,.283-.791l-.671-2.611,2.074-1.731A.756.756,0,0,0,163.324,174.888Z" transform="translate(-145.567 -163.192)" fill="#ff9100"/><path d="M260.789,175.715l-2.074,1.731.671,2.611a.764.764,0,0,1-.283.791.744.744,0,0,1-.835.03L256,179.429v-8.145a.73.73,0,0,1,.671.418l1,2.521,2.7.164a.751.751,0,0,1,.418,1.328Z" transform="translate(-243.27 -163.213)" fill="#ff9100"/></svg>