<svg xmlns="http://www.w3.org/2000/svg" xmlns:xlink="http://www.w3.org/1999/xlink" width="74.5" height="74.5" viewBox="0 0 74.5 74.5"><defs><clipPath id="a"><path d="M0-682.665H74.5v74.5H0Z" transform="translate(0 682.665)" fill="#e5e5e5"/></clipPath></defs><g clip-path="url(#a)"><g transform="translate(3.715 1.088)"><path d="M-477.2-384.2a34.8,34.8,0,0,0,3.491-12.863c.834-11.209-4.823-23.586-16.2-27.006a18.44,18.44,0,0,0-12.488.608,6.228,6.228,0,0,1-4.853.053,56.646,56.646,0,0,1-12.332-7.45,1.681,1.681,0,0,0-2.367.176l-3.383,3.918a1.678,1.678,0,0,0,.219,2.406c2.234,1.791,6.581,5.076,7.011,5.417a20.56,20.56,0,0,1,7.6,17.023c-.234,5.309-3.006,13.9-8.348,16.2-3.22,1.386-6.485.037-9.754-.451a6.062,6.062,0,0,0-5.886,3.125c-3.115,5.522.6,16.686,4.086,23.222a1.677,1.677,0,0,0,1.481.887h6.133a1.681,1.681,0,0,0,1.533-2.367,43.617,43.617,0,0,1-3.044-11.243c-.144-1.159.866-2.061,1.865-1.455a37.777,37.777,0,0,0,25.741,4.9q1.063-.184,2.082-.447" transform="translate(535.657 431.259)" fill="none" stroke="#e9e9e9" stroke-linecap="round" stroke-linejoin="round" stroke-miterlimit="10" stroke-width="3"/></g><g transform="translate(36.509 30.96)"><path d="M-152.93-136.125a15.49,15.49,0,0,0,2.074-10.46c-.716-4-4.5-7.358-8.742-5.845a5.842,5.842,0,0,0-3.6,3.508c-.684,1.894-.37,3.472-1.917,5.036a10.46,10.46,0,0,1-4.179,2.305c-.738.252-1.582.481-2.368.69" transform="translate(171.664 152.8)" fill="none" stroke="#e9e9e9" stroke-linecap="round" stroke-linejoin="round" stroke-miterlimit="10" stroke-width="3"/></g><g transform="translate(27.306 44.504)"><path d="M-36.051,0a8.312,8.312,0,0,0-1.983,1.414c-2.159,2.111-3.21,5.276-1.771,8.091A6.746,6.746,0,0,0-36.5,12.484c4.282,1.908,9.676,1.052,14.266-1.033" transform="translate(40.468)" fill="none" stroke="#e9e9e9" stroke-linecap="round" stroke-linejoin="round" stroke-miterlimit="10" stroke-width="3"/></g><g transform="translate(44.761 47.388)"><path d="M-201.105-154.013a13.012,13.012,0,0,1-11.623,7.157,13.012,13.012,0,0,1-13.012-13.012,13.012,13.012,0,0,1,13.012-13.012,13.012,13.012,0,0,1,13.012,13.012q0,.481-.035.954" transform="translate(225.741 172.88)" fill="none" stroke="#e9e9e9" stroke-linecap="round" stroke-linejoin="round" stroke-miterlimit="10" stroke-width="3"/></g><g transform="translate(50.321 52.948)"><path d="M-115.3-37.024h-2.976a.78.78,0,0,1-.78-.78V-40.78a.78.78,0,0,0-.78-.78h-4.274a.78.78,0,0,0-.78.78V-37.8a.78.78,0,0,1-.78.78h-2.976a.78.78,0,0,0-.78.78v4.274a.78.78,0,0,0,.78.78h2.976a.78.78,0,0,1,.78.78v2.976a.78.78,0,0,0,.78.78h4.274a.78.78,0,0,0,.78-.78v-2.976a.78.78,0,0,1,.78-.78h2.976a.78.78,0,0,0,.78-.78v-4.274A.78.78,0,0,0-115.3-37.024Z" transform="translate(129.429 41.56)" fill="none" stroke="#e9e9e9" stroke-linecap="round" stroke-linejoin="round" stroke-miterlimit="10" stroke-width="3"/></g></g></svg>