<svg xmlns="http://www.w3.org/2000/svg" width="24.331" height="23.533" viewBox="0 0 24.331 23.533"><path d="M153.087,259.36l-.034-.073a1.717,1.717,0,0,1,3.022-1.622l3.956,6.505-3.006.746Z" transform="translate(-145.624 -245.034)" fill="#ffdfcf"/><path d="M166.054,264.173l-1.152.286-3.721-6.118a1.716,1.716,0,0,0-1.945-.757l-.023.007a1.716,1.716,0,0,1,2.884.076Z" transform="translate(-151.647 -245.035)" fill="#ffcebf"/><path d="M284.53,278.057l-3.122,1.47-1.884-2.785-.456-1.15-.555-1.4a1.688,1.688,0,0,1,1.441-2.306,1.689,1.689,0,0,1,1.6.86l2.3,4.1Z" transform="translate(-265.165 -259.359)" fill="#ffdfcf"/><path d="M293.348,276.848h0l-2.3-4.1a1.689,1.689,0,0,0-1.6-.86,1.668,1.668,0,0,0-1.088.513,1.687,1.687,0,0,1,1.583.861l.923,1.651a.407.407,0,0,1-.34.606l-1.966.076.456,1.15,1.884,2.785,3.122-1.47Z" transform="translate(-274.658 -259.358)" fill="#ffcebf"/><path d="M76.163,247.05l-.05-.063a1.717,1.717,0,0,1,2.58-2.259l5.316,5.451-2.762,1.4Z" transform="translate(-72.147 -233.003)" fill="#ffdfcf"/><path d="M90.738,250.176l-.875.444-5.188-5.32a1.717,1.717,0,0,0-1.863-.4,1.718,1.718,0,0,1,2.611-.178Z" transform="translate(-78.876 -233.001)" fill="#ffcebf"/><path d="M30.667,263.244l-.056-.058a1.717,1.717,0,0,1,2.343-2.5l5.832,4.895-2.609,1.67Z" transform="translate(-28.701 -248.31)" fill="#ffdfcf"/><path d="M46.248,265.572l-.793.508-5.79-4.86a1.714,1.714,0,0,0-1.7-.3,1.7,1.7,0,0,1,.363-.341,1.716,1.716,0,0,1,2.086.094Z" transform="translate(-36.163 -248.305)" fill="#ffcebf"/><path d="M43.058,306.716h-9a.415.415,0,0,1-.372-.231l-.892-1.805-6.839-.613a1.854,1.854,0,0,1-1.073-.468l-4.232-3.806a1.663,1.663,0,0,1,2.116-2.564l3.954,2.989h6.647c1.4,0,4.719.553,5.711,1.539l4.274,4.248A.415.415,0,0,1,43.058,306.716Z" transform="translate(-19.143 -283.183)" fill="#ffdfcf"/><path d="M26.733,300.221h-1.49a1.009,1.009,0,0,1-.592-.192l-2.172-1.573a1.867,1.867,0,0,0-1.907-.169l-.459.222a1.663,1.663,0,0,1,2.666-1.279Z" transform="translate(-19.157 -283.184)" fill="#ffcebf"/><path d="M298,373.392H294.9l-4.264-5.141a3.747,3.747,0,0,0-2.885-1.356h2.528a5.293,5.293,0,0,1,3.731,1.539l4.274,4.248A.415.415,0,0,1,298,373.392Z" transform="translate(-274.081 -349.859)" fill="#ffcebf"/><g transform="translate(6.168 1.738)"><path d="M135.287,53.946a.7.7,0,0,1-.677,0c-6.261-3.457-5.437-8.443-3.05-8.926,1.823-.369,2.817,1.211,3.2,2.023a.207.207,0,0,0,.375,0,4.005,4.005,0,0,1,1.493-1.762,2.375,2.375,0,0,1,1.707-.261C140.724,45.5,141.547,50.489,135.287,53.946Z" transform="translate(-129.787 -44.965)" fill="#fe93bb"/><path d="M231.96,53.948a.7.7,0,0,1-.677,0c3.649-4.595,2.976-7.307,2.019-8.665a2.374,2.374,0,0,1,1.707-.261C237.4,45.505,238.22,50.491,231.96,53.948Z" transform="translate(-226.46 -44.967)" fill="#fe76a8"/></g><g transform="translate(0 0)"><g transform="translate(0 4.432)"><path d="M4.192,102.378H.362a.362.362,0,1,1,0-.723h3.83a.362.362,0,1,1,0,.723Z" transform="translate(0 -101.655)" fill="#ffe177"/></g><g transform="translate(2.299 6.118)"><path d="M48.747,138.289a.362.362,0,0,1-.087-.713l1.736-.429a.362.362,0,1,1,.174.7l-1.736.429A.36.36,0,0,1,48.747,138.289Z" transform="translate(-48.386 -137.136)" fill="#ffe177"/></g><g transform="translate(1.872 7.627)"><path d="M39.753,171a.362.362,0,0,1-.165-.684l2.727-1.392a.362.362,0,0,1,.329.644l-2.727,1.392A.361.361,0,0,1,39.753,171Z" transform="translate(-39.391 -168.882)" fill="#ffe177"/></g><g transform="translate(1.795)"><path d="M40.875,10.46a.36.36,0,0,1-.159-.037l-2.75-1.345a.362.362,0,0,1,.318-.65l2.75,1.345a.362.362,0,0,1-.159.687Z" transform="translate(-37.763 -8.392)" fill="#ffe177"/></g><g transform="translate(2.299 2.472)"><path d="M50.457,61.52a.363.363,0,0,1-.081-.009l-1.708-.391a.362.362,0,0,1,.162-.705l1.708.391a.362.362,0,0,1-.08.714Z" transform="translate(-48.386 -60.405)" fill="#ffe177"/></g><g transform="translate(17.336)"><g transform="translate(0.768 4.432)"><path d="M385.162,102.378h-3.83a.362.362,0,1,1,0-.723h3.83a.362.362,0,1,1,0,.723Z" transform="translate(-380.97 -101.655)" fill="#ffe177"/></g><g transform="translate(0.563 6.118)"><path d="M378.747,138.289a.363.363,0,0,1-.087-.011l-1.736-.429a.362.362,0,1,1,.174-.7l1.736.429a.362.362,0,0,1-.087.713Z" transform="translate(-376.649 -137.136)" fill="#ffe177"/></g><g transform="translate(0 7.627)"><path d="M367.891,171a.36.36,0,0,1-.164-.04L365,169.566a.362.362,0,0,1,.329-.644l2.727,1.392a.362.362,0,0,1-.165.684Z" transform="translate(-364.803 -168.882)" fill="#ffe177"/></g><g transform="translate(0.054)"><path d="M366.3,10.46a.362.362,0,0,1-.159-.687l2.75-1.345a.362.362,0,1,1,.318.65l-2.75,1.345A.361.361,0,0,1,366.3,10.46Z" transform="translate(-365.937 -8.392)" fill="#ffe177"/></g><g transform="translate(0.591 2.472)"><path d="M377.6,61.52a.362.362,0,0,1-.08-.714l1.708-.391a.362.362,0,0,1,.161.705l-1.708.391A.363.363,0,0,1,377.6,61.52Z" transform="translate(-377.24 -60.405)" fill="#ffe177"/></g></g></g></svg>