<svg xmlns="http://www.w3.org/2000/svg" width="68.125" height="52.005" viewBox="0 0 68.125 52.005"><g transform="translate(0 -60.574)"><path d="M64.691,72.812c-2.152-1.465-2.732-3.754-2.566-6.231h2.039V60.574H55.969v2h6.2v2.008H52.117V62.573H53.97v-2H50.118V66.58h2.04c.5,7.546-5.726,5.163-6.028,12.764v9.283H43.119a6.614,6.614,0,0,0-9.589-3.047c-3.107-4.826-11.11-3.243-11.9,2.6a8.1,8.1,0,0,0-6.44,1.471V80.563h-2v3.624c-2.084-2.128-5.377-1.536-8.073-1.607.063,1.391-.214,4.661.329,5.948C1.053,90.236-.88,93.913.378,98.771l1.959-.4a6.23,6.23,0,0,1,11.018-5.609l.84,1.3c1.777-3.276,4.252-4.562,7.494-3.824.341,1.8,1.4,3.622.457,5.41-3.863-2.91-8.692.213-8.141,4.933H12.051v2.249l4.049,7.282-1.9-.479c-2.521.611-5.185,1.687-7.583.057-3.037-2.077-2.553-4.367-3.857-9.334L.8,100.784c1.473,5.581.779,7.761,4.747,10.6,2.944,1.866,5.548,1.149,8.642.31L18,112.58H44.009v-2H18.645l-4.446-8h43.69l-4.446,8H49.971v2H68.125V79.335a7.911,7.911,0,0,0-3.434-6.524ZM7.416,88.081c-.43-.887-.267-2.538-.3-3.5H9.11a3.95,3.95,0,0,1,4.084,4.008v1.076A7.912,7.912,0,0,0,7.416,88.081ZM50.709,74.46a8.38,8.38,0,0,0,3.448-7.88h5.969A8.388,8.388,0,0,0,63.56,74.46a5.913,5.913,0,0,1,2.566,4.876v27.246H57.954l1.1-1.979h5.109V78.576H50.118v10.6a6.807,6.807,0,0,0-1.989-.51V79.345a5.913,5.913,0,0,1,2.58-4.885ZM37.655,95.573a4.981,4.981,0,0,1,4.754-4.946h5.2a4.981,4.981,0,0,1,4.754,4.946,5.057,5.057,0,0,1,3.624,5.011H34.031a5.263,5.263,0,0,1,3.624-5.011ZM57.289,97.32A6.89,6.89,0,0,0,54.2,94.182a6.88,6.88,0,0,0-2.08-3.716V80.575H62.164V102.6H60.038v-2.018h-2.05A6.917,6.917,0,0,0,57.289,97.32ZM36.321,86.628a4.572,4.572,0,0,1,4.672,2.183,6.921,6.921,0,0,0-5.172,5.371A6.855,6.855,0,0,0,34,95.516c-1.215-2.55,1.33-4.9.366-8.083A4.352,4.352,0,0,1,36.321,86.628ZM24.3,92.223c-.381-1.355-.947-2.7-.635-4.04.846-4.1,6.684-4.694,8.461-1.047,1.358,2.392-.925,5.239-.408,7.711a6.62,6.62,0,0,0,1,2.489,6.912,6.912,0,0,0-.691,3.248H29.073v-11.9h-2v11.9H22.107c.08-3.066,3.333-3.72,2.191-8.362ZM16,99.536a3.013,3.013,0,0,1,5.059-2.177,6.076,6.076,0,0,0-.956,3.226H16ZM66.126,110.58H55.731l1.112-2h9.283v2Z" transform="translate(0)" fill="#e4e4e4"/><path d="M399.256,165.72h2v2h-2Z" transform="translate(-346.132 -91.156)" fill="#e4e4e4"/><path d="M345.783,436.4h1.963v2h-1.963Z" transform="translate(-299.774 -325.82)" fill="#e4e4e4"/><path d="M300.436,331.657h2v2h-2Z" transform="translate(-260.461 -235.014)" fill="#e4e4e4"/><path d="M330.757,308.617h2v2h-2Z" transform="translate(-286.748 -215.039)" fill="#e4e4e4"/><path d="M360.537,331.657h2v2h-2Z" transform="translate(-312.565 -235.014)" fill="#e4e4e4"/><path d="M150.182,391.09h2v2h-2Z" transform="translate(-130.199 -286.539)" fill="#e4e4e4"/><path d="M180.233,391.09h2v2h-2Z" transform="translate(-156.252 -286.539)" fill="#e4e4e4"/><path d="M30.821,315.983h2v2h-2Z" transform="translate(-26.72 -221.425)" fill="#e4e4e4"/></g></svg>