<?xml version="1.0" encoding="UTF-8"?><svg id="_レイヤー_2" xmlns="http://www.w3.org/2000/svg" viewBox="0 0 2600 834.28288"><defs><style>.cls-1{stroke-width:0px;}</style></defs><g id="_饑2"><path class="cls-1" d="m1756.1896,834.28288c-61.8324.0021-126.3991-10.9881-193.163-32.9431-1.1335-.3722-1.9709-1.3365-2.1824-2.5102-.2115-1.1758.239-2.3706,1.1716-3.115,2.8421-2.267,70.3018-56.3679,129.7847-128.8691,51.8784-63.2323,107.8467-154.0089,79.8562-227.3623-9.3873-24.6006-38.5747-72.1163-81.8398-75.8805-45.7605-3.9863-94.2045,40.1459-117.733,107.3095-.5033,1.4338-1.9265,2.3325-3.4406,2.1528-1.5078-.1755-2.6942-1.3725-2.8549-2.8824-4.4451-41.7066-3.3201-83.2968,3.3413-123.614,1.3894-8.4081,7.3063-41.235,21.0774-82.7216-5.1641,3.8107-10.6962,6.1369-17.7848,6.3293-20.3415.5055-32.7317-16.831-48.4758-38.8368-15.7906-22.0756-35.4449-49.548-70.5239-71.115-28.056-17.2487-54.4943-23.7927-68.6989-27.3095-7.9809-1.9752-10.3896-2.5715-11.5696-4.5414-.5033-.8374-.6492-1.8123-.4124-2.746.2073-.8215.7973-1.955,2.4214-2.6783,6.9891-3.1171,50.3642-.7814,90.8717,20.5763,41.567,21.917,63.9239,55.3507,77.2805,75.3275,4.6227,6.913,9.8482,14.729,12.0327,15.3941.5308-.4536,1.8885-2.6381,2.6434-8.2908,3.0833-23.1446-6.7586-71.4268-37.6843-101.5574-40.2432-39.2059-110.3695-45.1536-183.429-15.6828,3.8679,57.033,20.885,97.8683,50.5948,121.3872,30.3547,24.0264,68.9949,27.0315,103.0843,29.6833,33.0679,2.5715,61.6272,4.792,71.4734,26.8253,4.4092,9.8694,2.1506,17.622-1.5903,30.4689-2.635,9.0489-6.2448,21.4433-9.2266,39.9344-5.1408,31.8816-5.6589,64.5139-1.5374,96.9897.1925,1.5162-.6999,2.9627-2.1422,3.4702-1.4359.5139-3.0409-.0528-3.8445-1.3576-29.5004-47.8287-75.6987-74.3431-114.9754-65.9794-50.5059,10.7576-70.3738,75.8869-73.844,88.8332-19.5718,73.0573,30.5514,150.7015,76.0454,202.9711,52.111,59.8699,109.5532,101.069,111.9746,102.7925,1.3851.9896,1.7743,2.8823.8882,4.3351-.8861,1.455-2.747,1.9773-4.2612,1.1991-310.4836-159.871-640.24502-246.2003-980.12441-256.5963-186.4297-5.7034-374.17159,12.1343-557.98227,53.0013l-1.41052-6.3399c184.3383-40.9897,372.60569-58.8718,559.59159-53.1536,195.9947,5.9932,391.73129,37.991,581.77511,95.1012,126.5165,38.0185,251.1117,87.3804,370.8727,146.9056-22.2892-18.2374-55.2027-47.3402-86.2236-82.9817-67.6796-77.7563-93.7266-148.0454-77.4221-208.9135,5.1176-19.0917,25.918-82.25,78.7671-93.5067,38.7205-8.2559,83.4575,14.7354,114.4424,57.7996-2.5461-28.7052-1.5437-57.4401,2.9987-85.6061,3.0452-18.8866,6.7185-31.503,9.4021-40.7147,3.6606-12.5721,5.3312-18.3114,1.8969-26.0006-8.2707-18.508-33.7679-20.4895-66.0471-22.9997-35.0155-2.7238-74.7047-5.8091-106.6116-31.0663-31.6236-25.0331-49.5226-68.2358-53.198-128.4081-.0846-1.3852.7212-2.6709,2.0027-3.2006,76.2696-31.4671,150.0671-25.2773,192.5941,16.1575,35.7156,34.7967,43.151,88.517,39.1943,109.5458-1.1504,6.1126-3.1953,9.7119-6.249,11.005-6.1898,2.6255-11.0494-4.6428-19.872-17.8334-13.014-19.465-34.7978-52.0423-74.9078-73.1906-24.996-13.1789-50.8189-18.5821-67.4723-20.3003,15.0357,4.0349,37.9001,11.3371,61.2889,25.7172,36.1977,22.2543,56.2749,50.3187,72.4081,72.8691,15.1922,21.2392,26.2437,36.5984,43.0135,36.1247,8.9875-.2453,14.894-4.7961,22.3505-12.5741,24.6661-69.0658,70.3885-156.3214,150.8664-196.6946,7.1605-3.5919,15.8055-7.4184,23.7378-10.894-15.0928,4.3299-35.6331,11.7515-54.8136,22.7618-55.1203,31.6395-80.719,83.8329-94.471,111.872-7.9979,16.3046-11.6437,23.7558-17.6495,21.6601-2.7069-.9421-4.6376-4.0328-5.9001-9.4465-5.9128-25.347,2.1993-95.0578,47.7399-141.3449,71.3486-72.5138,188.0158-44.1385,201.0847-40.6682,1.1737.313,2.0767,1.2551,2.3368,2.4425,11.5358,52.5075,6.8813,93.2032-13.8387,120.9579-21.5596,28.8818-53.0267,35.8572-89.4613,43.9334-38.8411,8.6101-82.8633,18.3685-124.3055,58.1971-5.7478,5.5248-10.4552,10.6741-14.6064,15.2186-1.7742,1.9414-3.4703,3.796-5.124,5.5406-16.3425,46.1835-23.1562,83.9355-24.6534,92.9823-5.8261,35.2714-7.355,71.541-4.5594,108.0052,26.0238-62.5006,73.7658-102.4795,119.4015-98.5017,46.3801,4.0328,76.7264,52.2062,87.3465,80.0338,23.3635,61.2297-3.8572,139.8911-80.9029,233.8017-51.7113,63.0272-109.4306,112.2685-126.1073,126.0375,112.6767,36.0666,218.9309,40.461,315.8804,13.052,78.9659-22.3251,128.9727-59.0028,181.9148-97.8334,49.7489-36.4895,101.1916-74.2204,179.5633-100.8321,104.4123-35.4554,222.8177-38.4626,351.9258-8.9368l-1.4465,6.3315c-127.9217-29.2509-245.1386-26.3029-348.39,8.7549-77.4242,26.2924-128.4588,63.723-177.8101,99.9207-53.4285,39.1879-103.8942,76.2019-183.9894,98.8464-42.3959,11.9862-86.545,17.9751-132.1744,17.9751Zm35.0431-801.9219c.8987,0,1.5818.0782,2.028.2389,1.0256.3659,1.7912,1.1018,2.1591,2.0703,1.4529,3.8309-.6894,4.7687-21.1831,13.7383-8.4907,3.7156-18.1126,7.9271-25.861,11.8139-73.0996,36.6704-116.9653,113.2434-142.2532,178.4255,2.7915-2.9754,5.8536-6.1358,9.2985-9.4454,42.7554-41.0922,87.725-51.061,127.3993-59.8551,35.17-7.797,65.5459-14.5302,85.6611-41.4782,19.2884-25.8376,23.7018-64.093,13.1219-113.7276-19.4787-4.8692-126.7565-27.7494-192.867,39.4385-40.6323,41.2973-48.7401,99.8836-47.3507,125.0922.4863,8.8205,1.9413,13.0299,2.7998,14.525,2.1761-2.1634,6.0947-10.1528,9.8969-17.9022,14.0566-28.663,40.2263-82.0164,97.0679-114.6455,30.9554-17.769,69.7225-28.2886,80.0825-28.2886Z"/></g></svg>