<svg xmlns="http://www.w3.org/2000/svg" width="42.944" height="65" viewBox="0 0 42.944 65"><g transform="translate(-11.088 -2.659)"><path d="M52.055,12.454a2.785,2.785,0,0,0,1.976-2.74l-.019-.738-.077-2.951-.019-.738a2.68,2.68,0,0,0-.245-1.1,2.641,2.641,0,0,0-1.678-1.433,6.275,6.275,0,0,0-1.727-.06l-5.9.216c-3.935.217-7.87.345-11.805.641,3.935.3,7.87.424,11.805.641l5.9.216a7.053,7.053,0,0,1,1.211.082.788.788,0,0,1,.467.458.769.769,0,0,1,.046.336L51.932,7.5l-.057,2.213a.581.581,0,0,1-.071.275.618.618,0,0,1-.388.312,11.246,11.246,0,0,1-1.149,0l-5.9-.093-11.805-.069-11.805.072-5.9.092a11.193,11.193,0,0,1-1.15,0,.63.63,0,0,1-.391-.313.586.586,0,0,1-.071-.276l-.1-3.689-.019-.738a.773.773,0,0,1,.046-.338.792.792,0,0,1,.469-.46,6.91,6.91,0,0,1,1.212-.083l5.9-.216c3.935-.216,7.87-.343,11.805-.638-3.935-.295-7.87-.422-11.805-.638L14.85,2.7a6.312,6.312,0,0,0-1.726.059A2.64,2.64,0,0,0,11.2,5.288L11.146,7.5l-.057,2.213a2.784,2.784,0,0,0,1.973,2.737,3.587,3.587,0,0,0,1.081.13c-.45,20.456-.524,40.388-.664,53.772a1.192,1.192,0,0,0,1.174,1.2h.029c5.959.089,11.918.073,17.877.1,5.959-.037,11.918-.019,17.877-.119h.031a1.175,1.175,0,0,0,1.155-1.186L51.369,38.9l-.2-13.726-.24-12.59a3.782,3.782,0,0,0,1.122-.13ZM49.5,38.9,49.26,65.156c-4.395-.063-8.79-.078-13.184-.094.265-1.4.472-2.8.63-4.195.19-1.829.3-3.658.378-5.486v-.012a1.2,1.2,0,0,0-1.158-1.238l-.1,0q-3.273-.11-6.545,0l-.1,0h-.009a1.2,1.2,0,0,0-1.143,1.247c.079,1.829.189,3.658.38,5.486.157,1.4.363,2.795.627,4.192-4.39.013-8.779.026-13.169.082-.135-12.808-.2-31.883-.653-52.543l5.533.086,11.805.072,11.805-.069,5.574-.087L49.7,25.175ZM29.529,65.057c.264-1.4.47-2.794.627-4.191s.237-2.81.311-4.215q2.09.047,4.179,0c.074,1.4.164,2.809.31,4.214s.365,2.8.63,4.193c-1.009,0-2.019-.006-3.028-.012s-2.019.007-3.029.01Z" fill="#866d5a"/><path d="M24.608,13.626a1.315,1.315,0,0,0-.944-1.093,2.382,2.382,0,0,0-1.033.064c-.575.1-1.15.223-1.725.361.575.137,1.15.26,1.725.361.249.064.686.085.68.16a.16.16,0,0,1,.021.219c-.148,1.079-.29,2.28-.377,3.414-.1.939-.137,1.961-.188,2.867l-.136,0-1.725-.018-1.725.016-.133,0c-.051-.9-.085-1.926-.187-2.864-.087-1.134-.229-2.335-.377-3.413a.157.157,0,0,1,.019-.217c-.008-.075.43-.1.679-.16.575-.1,1.15-.224,1.725-.363-1.175-.283-1.853-.382-2.156-.439a1.3,1.3,0,0,0-.6.012,1.318,1.318,0,0,0-.947,1.095c-.157,1.221-.293,2.319-.382,3.485-.12,1.18-.149,2.231-.214,3.518a1.993,1.993,0,0,0,1.843,1.9l.3.011.431.012,1.725.016,1.725-.018.431-.012.3-.011a1.993,1.993,0,0,0,1.84-1.9c-.063-1.287-.1-2.338-.214-3.518-.089-1.166-.225-2.264-.381-3.485Z" transform="translate(1.701 3.031)" fill="#866d5a"/><path d="M32.214,13.626a1.315,1.315,0,0,0-.944-1.093,2.382,2.382,0,0,0-1.033.064c-.575.1-1.15.223-1.725.361.575.137,1.15.26,1.725.361.249.064.686.085.68.16a.16.16,0,0,1,.021.219c-.148,1.079-.29,2.28-.377,3.414-.1.939-.137,1.961-.188,2.867l-.136,0-1.725-.018-1.725.016-.133,0c-.051-.9-.085-1.926-.187-2.864-.087-1.134-.229-2.335-.377-3.413a.157.157,0,0,1,.019-.217c-.008-.075.43-.1.679-.16.575-.1,1.15-.224,1.725-.363-1.177-.283-1.851-.381-2.156-.439a1.3,1.3,0,0,0-.6.012,1.318,1.318,0,0,0-.947,1.095c-.157,1.221-.293,2.319-.382,3.485-.12,1.18-.149,2.231-.214,3.518a1.993,1.993,0,0,0,1.843,1.9l.3.011.431.012,1.725.016,1.725-.018.431-.012.3-.011a1.993,1.993,0,0,0,1.84-1.9c-.063-1.287-.1-2.338-.214-3.518-.089-1.166-.225-2.264-.381-3.485Z" transform="translate(4.046 3.031)" fill="#866d5a"/><path d="M39.82,13.626a1.315,1.315,0,0,0-.944-1.093,2.382,2.382,0,0,0-1.033.064c-.575.1-1.15.223-1.725.361.575.137,1.15.26,1.725.361.249.064.686.085.68.16a.16.16,0,0,1,.021.219c-.148,1.079-.29,2.28-.377,3.414-.1.939-.137,1.961-.188,2.867l-.136,0-1.725-.018-1.725.016-.133,0c-.051-.9-.085-1.926-.187-2.864-.087-1.134-.229-2.335-.377-3.413a.157.157,0,0,1,.019-.217c-.008-.075.43-.1.679-.16.575-.1,1.15-.224,1.725-.363-1.177-.283-1.851-.381-2.156-.439a1.3,1.3,0,0,0-.6.012,1.318,1.318,0,0,0-.947,1.095c-.157,1.221-.293,2.319-.382,3.485-.12,1.18-.149,2.231-.214,3.518a1.992,1.992,0,0,0,1.843,1.9l.3.011.431.012,1.725.016,1.725-.018.431-.012.3-.011a1.993,1.993,0,0,0,1.84-1.9c-.063-1.287-.1-2.338-.214-3.518-.089-1.166-.225-2.264-.381-3.485Z" transform="translate(6.391 3.031)" fill="#866d5a"/><path d="M24.608,23.214a1.315,1.315,0,0,0-.944-1.093,2.383,2.383,0,0,0-1.033.064c-.575.1-1.15.223-1.725.361.575.137,1.15.26,1.725.361.249.064.686.085.68.16a.16.16,0,0,1,.021.219c-.148,1.079-.29,2.28-.377,3.414-.1.939-.137,1.961-.188,2.867l-.136,0-1.725-.018-1.725.016-.133,0c-.051-.9-.085-1.926-.187-2.864-.087-1.134-.229-2.335-.377-3.413a.157.157,0,0,1,.019-.217c-.008-.075.43-.1.679-.16.575-.1,1.15-.224,1.725-.363-1.18-.284-1.848-.381-2.156-.439a1.3,1.3,0,0,0-.6.012,1.318,1.318,0,0,0-.947,1.095c-.157,1.221-.293,2.319-.382,3.485-.12,1.181-.149,2.231-.214,3.518a1.993,1.993,0,0,0,1.843,1.9l.3.011.431.012,1.725.016,1.725-.018.431-.012.3-.011a1.993,1.993,0,0,0,1.84-1.9c-.063-1.287-.1-2.338-.214-3.518-.089-1.166-.225-2.264-.381-3.485Z" transform="translate(1.701 5.987)" fill="#866d5a"/><path d="M32.214,23.214a1.315,1.315,0,0,0-.944-1.093,2.383,2.383,0,0,0-1.033.064c-.575.1-1.15.223-1.725.361.575.137,1.15.26,1.725.361.249.064.686.085.68.16a.16.16,0,0,1,.021.219c-.148,1.079-.29,2.28-.377,3.414-.1.939-.137,1.961-.188,2.867l-.136,0-1.725-.018-1.725.016-.133,0c-.051-.9-.085-1.926-.187-2.864-.087-1.134-.229-2.335-.377-3.413a.157.157,0,0,1,.019-.217c-.008-.075.43-.1.679-.16.575-.1,1.15-.224,1.725-.363-1.18-.284-1.848-.381-2.156-.439a1.3,1.3,0,0,0-.6.012,1.318,1.318,0,0,0-.947,1.095c-.157,1.221-.293,2.319-.382,3.485-.12,1.181-.149,2.231-.214,3.518a1.993,1.993,0,0,0,1.843,1.9l.3.011.431.012,1.725.016,1.725-.018.431-.012.3-.011a1.993,1.993,0,0,0,1.84-1.9c-.063-1.287-.1-2.338-.214-3.518-.089-1.166-.225-2.264-.381-3.485Z" transform="translate(4.046 5.987)" fill="#866d5a"/><path d="M39.82,23.214a1.315,1.315,0,0,0-.944-1.093,2.383,2.383,0,0,0-1.033.064c-.575.1-1.15.223-1.725.361.575.137,1.15.26,1.725.361.249.064.686.085.68.16a.16.16,0,0,1,.021.219c-.148,1.079-.29,2.28-.377,3.414-.1.939-.137,1.961-.188,2.867l-.136,0-1.725-.018-1.725.016-.133,0c-.051-.9-.085-1.926-.187-2.864-.087-1.134-.229-2.335-.377-3.413a.157.157,0,0,1,.019-.217c-.008-.075.43-.1.679-.16.575-.1,1.15-.224,1.725-.363-1.18-.284-1.848-.381-2.156-.439a1.3,1.3,0,0,0-.6.012,1.318,1.318,0,0,0-.947,1.095c-.157,1.221-.293,2.319-.382,3.485-.12,1.181-.149,2.231-.214,3.518a2,2,0,0,0,1.843,1.9l.3.011.431.012,1.725.016,1.725-.018.431-.012.3-.011a1.993,1.993,0,0,0,1.84-1.9c-.063-1.287-.1-2.338-.214-3.518-.089-1.166-.225-2.264-.381-3.485Z" transform="translate(6.391 5.987)" fill="#866d5a"/><path d="M24.608,32.8a1.315,1.315,0,0,0-.944-1.093,2.385,2.385,0,0,0-1.033.064c-.575.1-1.15.223-1.725.361.575.137,1.15.26,1.725.361.249.064.686.085.68.16a.16.16,0,0,1,.021.219c-.148,1.079-.29,2.28-.377,3.414-.1.939-.137,1.961-.188,2.866l-.136,0-1.725-.018-1.725.016-.133,0c-.051-.9-.085-1.926-.187-2.864-.087-1.134-.229-2.335-.377-3.414a.157.157,0,0,1,.019-.217c-.008-.075.43-.1.679-.16.575-.1,1.15-.224,1.725-.363-1.18-.284-1.853-.382-2.156-.439a1.3,1.3,0,0,0-.6.012A1.318,1.318,0,0,0,17.2,32.8c-.157,1.221-.293,2.319-.382,3.485-.12,1.18-.149,2.231-.214,3.518a1.993,1.993,0,0,0,1.843,1.9l.3.011.431.012,1.725.016,1.725-.018.431-.012.3-.011a1.993,1.993,0,0,0,1.84-1.9c-.063-1.287-.1-2.338-.214-3.518-.089-1.166-.225-2.264-.381-3.485Z" transform="translate(1.701 8.943)" fill="#866d5a"/><path d="M32.214,32.8a1.315,1.315,0,0,0-.944-1.093,2.385,2.385,0,0,0-1.033.064c-.575.1-1.15.223-1.725.361.575.137,1.15.26,1.725.361.249.064.686.085.68.16a.16.16,0,0,1,.021.219c-.148,1.079-.29,2.28-.377,3.414-.1.939-.137,1.961-.188,2.866l-.136,0-1.725-.018-1.725.016-.133,0c-.051-.9-.085-1.926-.187-2.864-.087-1.134-.229-2.335-.377-3.414a.157.157,0,0,1,.019-.217c-.008-.075.43-.1.679-.16.575-.1,1.15-.224,1.725-.363-1.18-.284-1.856-.382-2.156-.439a1.3,1.3,0,0,0-.6.012,1.318,1.318,0,0,0-.947,1.095c-.157,1.221-.293,2.319-.382,3.485-.12,1.18-.149,2.231-.214,3.518a2,2,0,0,0,1.843,1.9l.3.011.431.012,1.725.016,1.725-.018.431-.012.3-.011a1.993,1.993,0,0,0,1.84-1.9c-.063-1.287-.1-2.338-.214-3.518-.089-1.166-.225-2.264-.381-3.485Z" transform="translate(4.046 8.943)" fill="#866d5a"/><path d="M39.82,32.8a1.315,1.315,0,0,0-.944-1.093,2.385,2.385,0,0,0-1.033.064c-.575.1-1.15.223-1.725.361.575.137,1.15.26,1.725.361.249.064.686.085.68.16a.16.16,0,0,1,.021.219c-.148,1.079-.29,2.28-.377,3.414-.1.939-.137,1.961-.188,2.866l-.136,0-1.725-.018-1.725.016-.133,0c-.051-.9-.085-1.926-.187-2.864-.087-1.134-.229-2.335-.377-3.414a.157.157,0,0,1,.019-.217c-.008-.075.43-.1.679-.16.575-.1,1.15-.224,1.725-.363-1.18-.284-1.856-.382-2.156-.439a1.3,1.3,0,0,0-.6.012,1.318,1.318,0,0,0-.947,1.095c-.157,1.221-.293,2.319-.382,3.485-.12,1.18-.149,2.231-.214,3.518a1.993,1.993,0,0,0,1.843,1.9l.3.011.431.012,1.725.016,1.725-.018.431-.012.3-.011a1.993,1.993,0,0,0,1.84-1.9c-.063-1.287-.1-2.338-.214-3.518-.089-1.166-.225-2.264-.381-3.485Z" transform="translate(6.391 8.943)" fill="#866d5a"/></g></svg>