<svg xmlns="http://www.w3.org/2000/svg" width="72.32" height="72.305" viewBox="0 0 72.32 72.305"><path d="M58.88,165.116H49.548v7H58.88Zm-2.333,4.666H51.881v-2.333h4.666Z" transform="translate(-42.549 -141.801)" fill="#e4e4e4"/><path d="M58.88,231.181H49.548v7H58.88Zm-2.333,4.666H51.881v-2.333h4.666Z" transform="translate(-42.549 -198.534)" fill="#e4e4e4"/><path d="M339.654,346.794a9.332,9.332,0,1,0,9.332,9.332A9.343,9.343,0,0,0,339.654,346.794Zm1.166,2.438a6.957,6.957,0,0,1,2.882,1.2l-2.882,2.882Zm-2.333,4.078-2.882-2.882a6.957,6.957,0,0,1,2.882-1.2Zm-1.649,1.649H332.76a6.958,6.958,0,0,1,1.2-2.882Zm0,2.333-2.882,2.882a6.957,6.957,0,0,1-1.2-2.882Zm1.649,1.649v4.078a6.958,6.958,0,0,1-2.882-1.2Zm2.333,0,2.882,2.882a6.957,6.957,0,0,1-2.882,1.2Zm1.649-1.649h4.078a6.958,6.958,0,0,1-1.2,2.882Zm0-2.333,2.882-2.882a6.957,6.957,0,0,1,1.2,2.882Z" transform="translate(-283.664 -297.817)" fill="#e4e4e4"/><path d="M72.32,25.7V23.368h-7V21.035h2.333V14.978L62.611,2.373H39.243L36.591.8a5.513,5.513,0,0,0-5.529,0L28.405,2.373H5.043L0,14.978v6.056H2.333v21H0v14H7V51.362H9.331v4.666h7V51.362h2.333v4.666h7V51.362h2.333v4.666H32.66V65.36H26.828a3.5,3.5,0,1,0,0,7h4.666a3.5,3.5,0,0,0,3.5-3.5V60.694H42.2A13.988,13.988,0,1,0,64.7,47.426L67.512,25.7H72.32ZM32.661,68.86a1.168,1.168,0,0,1-1.166,1.166H26.828a1.166,1.166,0,1,1,0-2.333h5.832ZM62.988,23.368h0a4.69,4.69,0,0,0-4.611,3.974L56.521,39.7H48.991V21.036h14Zm-19.1,28H41.992V46.7h6.277A14.085,14.085,0,0,0,43.886,51.363Zm-15.892-7H25.662V39.7h7v2.333H27.995ZM2.333,18.7V16.37H17.5v-.051a3.6,3.6,0,0,0,1.166-.18V18.7ZM21,14.827l12.831-7.6,12.831,7.6V39.7H44.325V24.535a10.5,10.5,0,1,0-21,0v17.5H21ZM39.659,44.365V43.2a1.168,1.168,0,0,1,1.166-1.166H56.17l-.35,2.333Zm-7-7h-7V32.7h7Zm2.333-20.9A8.17,8.17,0,0,1,41.9,23.369H34.993ZM32.66,23.369H25.755a8.17,8.17,0,0,1,6.905-6.905Zm-7,7V25.7h7v4.666ZM34.993,25.7h7v4.666h-7Zm0,17.5V32.7h7v7H40.826a3.5,3.5,0,0,0-3.5,3.5v1.166A2.335,2.335,0,0,0,39.659,46.7v4.666h-3.5a3.463,3.463,0,0,0-1.166.215Zm14-24.5V16.168a3.5,3.5,0,0,0,1.166.2H65.321V18.7Zm12.041-14,3.733,9.332H53.449A3.47,3.47,0,0,0,52.418,10.2L43.17,4.706H61.032ZM32.251,2.8a3.142,3.142,0,0,1,3.151,0l15.57,9.231a1.135,1.135,0,0,1,.348.737,1.147,1.147,0,0,1-.273.85,1.2,1.2,0,0,1-1.642.138L33.827,4.517,18.409,13.648l-.16.113a1.2,1.2,0,0,1-1.642-.135,1.166,1.166,0,0,1,.076-1.59ZM6.622,4.706H24.47l-9.075,5.381-.159.113a3.472,3.472,0,0,0-1.031,3.839H2.889ZM4.666,21.036h14V44.365H16.33V42.032h-7v2.333H7V42.032H4.666Zm0,32.661H2.333V44.365H4.666ZM7,49.031V46.7H9.331v2.333ZM14,53.7H11.665V44.365H14Zm2.333-4.666V46.7h2.333v2.333Zm7,4.666H21V44.365h2.333V53.7Zm2.333-4.666V46.7h2.333v2.333Zm4.666-4.666H32.66V53.7H30.328Zm4.666,14v-3.5A1.168,1.168,0,0,1,36.16,53.7h6.649a13.906,13.906,0,0,0-.817,4.666Zm32.66,0A11.665,11.665,0,1,1,55.989,46.7,11.678,11.678,0,0,1,67.654,58.362ZM62.534,46a13.887,13.887,0,0,0-4.384-1.449l2.53-16.862a2.344,2.344,0,0,1,2.3-1.986H65.16Z" transform="translate(0 -0.054)" fill="#e4e4e4"/></svg>