<svg xmlns="http://www.w3.org/2000/svg" width="66.1" height="66.1" viewBox="0 0 66.1 66.1"><path d="M21.678,24.685c.275.137.55.137.687-.137s0,0,.137-.137a6.349,6.349,0,0,1,.962-.962c.55-.55,1.1-1.237,1.649-1.786a.515.515,0,0,0,0-.825.687.687,0,0,0-.825,0c-.55.55-.962,1.1-1.512,1.649a5.38,5.38,0,0,0-1.1,1.374.135.135,0,0,1,.137-.137L21.541,24c-.275.137-.137.55.137.687Z" transform="translate(8.005 7.746)" fill="#866d5a"/><rect transform="translate(30.37 32.294)" fill="#866d5a"/><path d="M24.424,23a.5.5,0,0,0-.412.137l-.962.962-.275.275-.137.137a.687.687,0,0,0,0,.825c.137.275.55.275.825,0l.55-.55.962-.962c.275-.275.275-.687,0-.825Z" transform="translate(8.42 8.607)" fill="#866d5a"/><path d="M22.49,16.936a.647.647,0,0,0,.825-.137l.412-.412.825-.825c.275-.275.275-.687,0-.825a.687.687,0,0,0-.825,0l-.962.962c-.137.137-.137.275-.275.275l-.275.275c-.137.137,0,.55.275.687Z" transform="translate(8.293 5.464)" fill="#866d5a"/><path d="M15.075,23.174a.5.5,0,0,0,.412.137c.137,0,.275-.137.412-.275a.135.135,0,0,1,.137-.137c.412-.412.687-.825,1.1-1.237a.585.585,0,0,0-.825-.825c-.275.275-.55.687-.825.962-.137.137-.137.275-.275.275-.137.137-.137.275-.275.275a.5.5,0,0,0-.137.412c.137.275.137.412.275.412Z" transform="translate(5.538 7.746)" fill="#866d5a"/><path d="M14.875,25.361h.412c.275-.275.687-.55.962-.825.55-.412.962-.962,1.512-1.374.275-.275.275-.687,0-.825a.687.687,0,0,0-.825,0L15.7,23.574c-.137.137-.412.275-.55.55l-.412.412a.135.135,0,0,0,.137-.137c-.137.137-.275.137-.275.275v.412s.137.275.275.275Z" transform="translate(5.464 8.308)" fill="#866d5a"/><path d="M40.175,29.323h.412c.137-.137.275-.137.275-.275v.137L41,29.048a21.136,21.136,0,0,0,1.649-1.786.515.515,0,0,0,0-.825.687.687,0,0,0-.825,0l-1.237,1.237c-.137.137-.275.412-.412.55,0,.137-.137.137-.137.275a.48.48,0,0,0-.137.275v.412a.426.426,0,0,1,.275.137Z" transform="translate(14.931 9.842)" fill="#866d5a"/><path d="M41.836,28.3c-.137,0-.412,0-.412.137-.275.275-.55.687-.825.962-.137.137-.137.275-.275.275-.137.275-.137.687.137.825a.647.647,0,0,0,.825-.137l.137-.137c.275-.275.55-.687.825-.962a.687.687,0,0,0,0-.825c-.137,0-.275-.137-.412-.137Z" transform="translate(15.056 10.59)" fill="#866d5a"/><path d="M64.826,63.452h-3.71c-1.1,0-2.2.137-3.3.137H57.68c.275-.412.55-.687.825-1.1.137-.275.137-.687-.137-.825-.137,0-.137-.137-.275-.137a1.042,1.042,0,0,0-.55.275,7.552,7.552,0,0,1-.962,1.237.714.714,0,0,0-.275.55,6.691,6.691,0,0,0-1.649.137c.137-.137.275-.412.412-.55a8.342,8.342,0,0,1,.962-1.374c.137-.275.137-.687-.137-.825-.137,0-.137-.137-.275-.137a1.042,1.042,0,0,0-.55.275,11.886,11.886,0,0,0-.962,1.374,1.9,1.9,0,0,0-.412.55c-.137.137-.137.275-.275.412a.5.5,0,0,0-.137.412,11.822,11.822,0,0,0-2.2.137l.825-1.237c.55-.825,1.237-1.649,1.786-2.474.137-.275.137-.687-.137-.825a.48.48,0,0,1-.275-.137,1.042,1.042,0,0,0-.55.275c-.55.825-1.1,1.512-1.649,2.336-.137-.137-.275,0-.275.137V60.153h.275l.275-.275v.137c0-.137.137-.137.137-.275.137-.275.275-.412.412-.687.412-.55.687-.962,1.1-1.512a.844.844,0,0,0-.137-.825c-.137,0-.137-.137-.275-.137h-.137c-.137,0-.275.137-.412.275L50.809,58.5v-2.2c.137,0,.137-.137.275-.137.137-.137.137-.275.275-.412a5.818,5.818,0,0,0,.687-.962.5.5,0,0,0,.137-.412h.55a13.539,13.539,0,0,1,2.336.275c.687.137,1.237.137,1.924.275l2.061.412h.275v3.848c0,.962.137,2.061.137,3.023a1.033,1.033,0,0,0,.962.962c.412,0,1.1-.412,1.1-.962a22.471,22.471,0,0,0-.275-3.023,24.327,24.327,0,0,1-.137-3.161V52.6a31.061,31.061,0,0,1,.137-3.573c.137-2.474.275-4.81.412-7.146.137-1.1.137-2.336.275-3.436a31.06,31.06,0,0,0,.137-3.573,2.679,2.679,0,0,0-.137-1.1c-.137-.825-.275-1.649-1.1-2.061a1.743,1.743,0,0,0-.825-.137,2.683,2.683,0,0,0-.962.137c-.412,0-.825.137-1.1.137l-4.123.412c-.687,0-1.374.137-2.061.137-.275,0-.687.137-.962.137-.137,0-.275.137-.55.137-.137,0-.137.137-.275.137V29.371c0-2.336.137-4.672.137-7.146l.412-7.009c0-1.237.137-2.336.137-3.573a5.637,5.637,0,0,0-.137-1.512c0-.137-.137-.137-.137-.275-.687,0-.825-.137-.962-.275L49.3,9.445c-.137-.137-.275-.275-.412-.275a3.026,3.026,0,0,0-1.1-.137h-.962c-2.2.137-4.535.137-6.734.275h-.137c0-.137.137-.275.137-.412V5.459a26.686,26.686,0,0,0-.275-3.3,3.026,3.026,0,0,0-.137-1.1A1.042,1.042,0,0,0,39.4.512c-.137-.137-.275-.275-.412-.275s-.137,0-.275-.137h-.687a1.239,1.239,0,0,0-.687.137,26.48,26.48,0,0,1-3.3.137c-1.1,0-2.2-.137-3.3-.137C30.2.237,29.646.1,29.1.1h-.55A1.042,1.042,0,0,0,28,.375a.979.979,0,0,0-.412.825,3.026,3.026,0,0,0-.137,1.1A5.153,5.153,0,0,1,27.31,3.81c-.137,1.1-.137,2.2-.275,3.3A1.239,1.239,0,0,1,26.9,7.8a.826.826,0,0,1-.137.55V8.208c0,.412-.137.687-.137,1.1v.687H25.111c-2.474,0-4.81-.137-7.283-.137H16.316c-.412,0-.962.137-1.374.137-.137,0-.137,0-.275.137-.137,0-.275.137-.412.275l-.412.412c-.137.137-.137.275-.275.412.137.137.137.55.137.962v9.62c0,4.81-.275,9.62-.275,14.567v3.436a31.06,31.06,0,0,1-.137,3.573v8.658H10.819a10.4,10.4,0,0,1-2.061-.137H5.185a1.239,1.239,0,0,0-.687.137V44.212h.687a3.8,3.8,0,0,1,1.237.137c.687,0,1.512.137,2.2.137a23.3,23.3,0,0,1,3.023.55,1.239,1.239,0,0,0,.687-.137,1.9,1.9,0,0,0,.412-.55,1.239,1.239,0,0,0-.137-.687c-.137-.137-.275-.412-.55-.412l-4.123-.412c-.687,0-1.237-.137-1.924-.137H4.635c.137-2.061.137-3.985.275-6.047,0-.55.137-1.237.137-1.786V33.631c.275-.137.687-.137.962-.275,1.237-.275,2.2-.275,3.161-.412h3.3a.939.939,0,0,0,.962-.962c0-.412-.412-.962-.825-.962-1.237.137-2.336.137-3.573.275a23.293,23.293,0,0,0-3.161.137,3.415,3.415,0,0,1-1.1.137,1.679,1.679,0,0,0-1.237.55,1.188,1.188,0,0,0-.412.825v.687c0,.962.137,1.924.137,3.023,0,1.237.137,2.336.137,3.573A31.06,31.06,0,0,0,3.536,43.8v7.146c0,2.336-.137,4.81-.137,7.146,0,1.237-.137,2.336-.137,3.573a8.453,8.453,0,0,1-.137,1.786v.962a9.279,9.279,0,0,0-1.924.275,1.239,1.239,0,0,0-.687.137H.65a.5.5,0,0,0-.412.137.5.5,0,0,0-.137.412.591.591,0,0,0,.55.55H4.635c1.1,0,2.2-.137,3.3-.137a9.072,9.072,0,0,0,1.924-.137H30.47c2.474,0,5.085,0,7.558-.137h.825c0,.137.137.137.137.275a1,1,0,0,0,1.374,0c.137-.137.137-.137.137-.275h4.81c4.81.137,9.757.137,14.7.137,1.649,0,3.3,0,4.947.137a1.182,1.182,0,0,0,1.1-1.1q-.412-1.237-1.237-1.237ZM50.534,54.519v-.275h.275Zm8.932-21.026-.137-.137A.135.135,0,0,1,59.466,33.494Zm-9.894.412h1.1c.412,0,.825-.137,1.237-.137a18.418,18.418,0,0,1,2.748-.137,14.936,14.936,0,0,0,2.474-.137h2.336l.137.137c.137.275.137.55.275.825a5.952,5.952,0,0,1,.137.687,38.242,38.242,0,0,1,0,6.871c-.137,1.237-.137,2.474-.275,3.71S59.6,48.06,59.466,49.3c-.137,1.1-.137,2.2-.275,3.3a2.339,2.339,0,0,1-.137.962h-.137c-1.512-.137-3.023-.137-4.535-.275a12.027,12.027,0,0,1-2.2-.275c-.412,0-.687-.137-1.1-.137h-.55V52.6a3,3,0,0,1,.55-.687c.412-.55.687-.962,1.1-1.512.137-.275.137-.687-.137-.825a.48.48,0,0,1-.275-.137,1.042,1.042,0,0,0-.55.275c-.275.275-.412.687-.687.962V49.435a.48.48,0,0,0,.275-.137l.412-.412a.515.515,0,0,0,0-.825,1.073,1.073,0,0,1-.687,0c-.137,0-.275,0-.275.137v-.687c.137,0,.412-.137.412-.275.137-.137.275-.412.412-.55a7.623,7.623,0,0,0,.825-1.1c.137-.275.137-.687-.137-.825a.48.48,0,0,1-.275-.137h-.137c-.137,0-.275.137-.412.275a4.176,4.176,0,0,0-.687.962,9.073,9.073,0,0,0-.137-1.924.135.135,0,0,0,.137-.137c.137-.137.275-.275.275-.412H52.32a22.472,22.472,0,0,1,3.023.275,12.027,12.027,0,0,0,2.2.275h-.275c.275,0,.55.137.825.137h0a1.239,1.239,0,0,0,.687-.137c.137-.137.412-.275.412-.55a1.03,1.03,0,0,0-.137-.687.831.831,0,0,0-.825-.412c-1.512-.137-3.161-.137-4.672-.275-.687,0-1.512-.137-2.2-.137,0-.137.137-.137.137-.275a.5.5,0,0,0,.137-.412c0-.137-.137-.275-.275-.412a.48.48,0,0,1-.275-.137h-.137c-.137,0-.275.137-.412.275-.275.275-.412.55-.687.825h-.275a6.691,6.691,0,0,0-.137-1.649l.137-.137c.55-.687,1.237-1.512,1.786-2.2a.5.5,0,0,0,.137-.412c0-.137-.137-.275-.275-.412a.48.48,0,0,1-.275-.137h-.137c-.137,0-.275.137-.412.275a12.017,12.017,0,0,0-1.1,1.374c0-.687-.137-1.237-.137-1.924.137,0,.275,0,.275-.137.412-.412.687-.825,1.1-1.237a.585.585,0,0,0-.825-.825c-.275.275-.412.55-.687.687.412-.137.412-.55.55-1.1h0ZM29.646,1.612ZM28.272,8.758c0-.687.137-1.374.137-1.924.137-.962.412-1.924.55-2.886a13.508,13.508,0,0,1,.687-2.2c.137,0,.275-.137.412-.137a20.7,20.7,0,0,1,4.123.137c.825.137,1.512.137,2.336.275.55,0,.962.137,1.512.137V2.3c.137.412.137.825.275,1.1a20.3,20.3,0,0,1,.137,2.886c0,.962-.137,1.786-.137,2.748a1.039,1.039,0,0,0,.137.55c-1.924,0-3.848,0-5.772.137-1.237,0-2.474.137-3.71.137h-.825V9.582A1.743,1.743,0,0,0,28.272,8.758ZM11.094,64.413l.55-.55a.515.515,0,0,0,0-.825.5.5,0,0,0-.412-.137.5.5,0,0,0-.412.137,5.977,5.977,0,0,1-.962.825c-.137.137-.275.137-.275.275a.48.48,0,0,0-.137.275H7.8A17.407,17.407,0,0,1,9.582,62.9a.515.515,0,0,0,0-.825c-.137-.275-.275-.275-.412-.275a.5.5,0,0,0-.412.137,17.407,17.407,0,0,1-1.786,1.512c-.137.137-.412.275-.55.55-.137.137-.275.275-.412.275H4.91c.275-.275.412-.55.687-.825.55-.687,1.237-1.512,1.786-2.2a.5.5,0,0,0,.137-.412c0-.137-.137-.275-.275-.412H6.834c-.137,0-.275.137-.412.275-.55.687-1.237,1.512-1.786,2.2a1.9,1.9,0,0,0-.412.55V61.528a.3.3,0,0,0,.275-.275c.137-.137.275-.275.275-.412.275-.412.55-.687.825-1.1.137-.275.137-.687-.137-.825a.48.48,0,0,1-.275-.137,1.042,1.042,0,0,0-.55.275c-.137.137-.275.412-.412.55V58.23c0-1.786.137-3.573.137-5.222.137,0,.275.137.412.137H5.6a7.836,7.836,0,0,1,1.786.137c.962.137,1.924.137,2.886.275.825.137,1.786.275,2.611.412h.275c0,1.1.137,2.2.137,3.161a26.479,26.479,0,0,1,.137,3.3,7.836,7.836,0,0,0,.137,1.786c0,.55.137,1.1.137,1.512v.412c0,.137.275.275.412.412v.137H12.468a2.06,2.06,0,0,0-1.374-.275Zm24.736-.275c.137-.137.275-.412.55-.55a.515.515,0,0,0,0-.825.687.687,0,0,0-.825,0l-.55.55c-.137.137-.275.275-.275.412a.258.258,0,0,0,0,.412H32.257c0-.137.137-.137.137-.275l1.237-1.237a.515.515,0,0,0,0-.825h-.412a.5.5,0,0,0-.412.137c-.412.412-.825.687-1.237,1.1a5.977,5.977,0,0,0-.825.962c-.137.137-.137.137-.137.275H28.684l.55-.55,1.374-1.374a.515.515,0,0,0,0-.825.687.687,0,0,0-.825,0,15.678,15.678,0,0,0-1.512,1.512,3,3,0,0,0-.55.687l-.412.412v.137H25.661c.687-.687,1.237-1.374,1.924-2.2a.585.585,0,0,0-.825-.825c-.55.687-1.1,1.237-1.649,1.924a6.691,6.691,0,0,1,.137-1.649v-.962c.137,0,.275-.137.412-.275a9.755,9.755,0,0,0,1.374-1.924c.137-.275.137-.687-.137-.825-.137,0-.137-.137-.275-.137a1.042,1.042,0,0,0-.55.275c-.275.275-.412.687-.687.962v-.687c.137-.55.137-1.237.275-1.786.275,0,.55,0,.55-.275v-.137a.714.714,0,0,0,.275-.55c.275-.412.55-.687.825-1.1a.479.479,0,0,0-.137-.687.687.687,0,0,0-.825,0c-.137.275-.412.412-.55.687a11.408,11.408,0,0,1,.825-2.886.135.135,0,0,1-.137.137.135.135,0,0,1,.137-.137c0-.137.137-.137.137-.275s.137,0,.137-.137a1.239,1.239,0,0,1,.687-.137h.275c1.786-.137,3.436,0,5.222,0,1.786.137,3.436.275,5.222.412.275,0,.687.137.962.137v.137c0,.137.137.275.137.412v.412c0,.55.137,1.237.137,1.786a9.073,9.073,0,0,1-.137,1.924c0,.55-.137,1.237-.137,1.786a8.043,8.043,0,0,1-.275,1.786c-.137.962-.275,1.786-.412,2.748a6.691,6.691,0,0,0-.137,1.649,8.032,8.032,0,0,1-2.611.275ZM26.9,51.084c0-.137.137-.137,0,0C27.035,50.946,26.9,50.946,26.9,51.084ZM42.7,64.139H40.5V58.917a28.723,28.723,0,0,1,.137-3.436,26.685,26.685,0,0,1,.275-3.3,5.569,5.569,0,0,0,0-1.512c0-.275-.137-.412-.275-.687s-.275-.275-.55-.412c-.137-.137-.55-.137-.687-.137h-4.81a28.724,28.724,0,0,1-3.436-.137c-1.1,0-2.2-.137-3.436-.137h-.55a2.683,2.683,0,0,0-.962.137c-.275.137-.687.137-.962.412a2.875,2.875,0,0,0-.55.825c-.137.55-.275,1.237-.412,1.924a12.028,12.028,0,0,0-.275,2.2,10.4,10.4,0,0,0-.137,2.061v2.061c0,.687-.137,1.237-.137,1.924s-.137,1.512-.137,2.2v1.374H21.813a2.875,2.875,0,0,0,.55-.825c.137-.275.137-.687-.137-.825-.137,0-.137-.137-.275-.137h-.137c-.137,0-.275.137-.412.275-.275.412-.687.825-.962,1.237l-.137.137H18.789c.137-.137.137-.275.275-.412.412-.412.687-.825,1.1-1.237a.515.515,0,0,0,0-.825.687.687,0,0,0-.825,0,16.47,16.47,0,0,0-1.512,1.649c-.137.275-.412.55-.412.825H15.491L15.629,64a7.552,7.552,0,0,1,.962-1.237,21.135,21.135,0,0,1,1.649-1.786.585.585,0,0,0-.825-.825c-.412.412-.825.962-1.237,1.374-.412.55-.825.962-1.237,1.512v-.962a3.026,3.026,0,0,0-.137-1.1c.275,0,.412,0,.55-.275,0-.137.137-.137.137-.275.137-.137.275-.412.412-.55.412-.55.687-.962,1.1-1.512a.5.5,0,0,0,.137-.412c0-.137-.137-.275-.275-.412-.137,0-.137-.137-.275-.137h-.137c-.137,0-.275.137-.412.275a4.935,4.935,0,0,0-.962,1.374c-.137.137-.137.275-.275.412,0-.687-.137-1.237-.137-1.924.137,0,.412-.137.412-.275.137-.275.275-.412.412-.687l.825-1.237c.137-.275.137-.687-.137-.825-.137,0-.137-.137-.275-.137h-.137c-.137,0-.275.137-.412.275-.275.412-.687.825-.962,1.237a7.836,7.836,0,0,0-.137-1.786h.275c.137,0,.275-.137.412-.275.275-.412.687-.825.962-1.237a.135.135,0,0,1-.137.137c.137-.275.412-.412.55-.687a.585.585,0,0,0-.825-.825c-.275.412-.687.687-.962,1.1-.137.137-.137.275-.275.412V50.671a1.042,1.042,0,0,0,.55-.275c.137-.137.137-.275.275-.412a.135.135,0,0,1-.137.137c.412-.412.687-.825,1.1-1.237a.515.515,0,0,0,0-.825.687.687,0,0,0-.825,0c-.275.412-.687.687-.962,1.1V41.052a31.06,31.06,0,0,1,.137-3.573c0-1.1.137-2.336.137-3.436.137-1.924.137-3.848.275-5.772,0-2.061.137-3.985.137-6.047,0-1.786.137-3.71.275-5.5.137-1.649.137-3.436.412-5.085v-.137a.826.826,0,0,1,.137-.55c.137,0,.137-.137.275-.137.55-.137,1.1-.275,1.786-.412a27.6,27.6,0,0,1,3.436-.137H39.54c2.336,0,4.535-.137,6.871,0a5.637,5.637,0,0,1,1.512.137h.137a1.239,1.239,0,0,1,.137.687.5.5,0,0,0,.137.412,39.792,39.792,0,0,1,0,7.009c-.137,2.474-.275,4.81-.412,7.283a59.625,59.625,0,0,0,0,7.009c0,2.336.137,4.81.137,7.146,0,1.924.137,3.848.275,5.772,0,.962.137,2.061.137,3.023a23.294,23.294,0,0,0,.137,3.023c.137,1.1,0,1.924.137,3.023v6.734a.939.939,0,0,0,.962.962.5.5,0,0,0,.412-.137,1.042,1.042,0,0,0-.275.55c0,.137-.137.137-.137.275-.962,0-1.924.137-2.748.137a9.78,9.78,0,0,1-4.26.825Z" transform="translate(0.037 0.037)" fill="#866d5a"/><path fill="#866d5a"/><path fill="#866d5a"/><path d="M40.234,14.611a1.03,1.03,0,0,0-.137-.687,1.05,1.05,0,0,0-.275-.687c-.137-.137-.137-.275-.275-.412A1.042,1.042,0,0,0,39,12.55a2.679,2.679,0,0,0-1.1-.137H24.018c-1.1,0-2.061-.137-3.161-.137s-2.2-.137-3.3-.137A5.155,5.155,0,0,1,16.185,12h-.55a1.01,1.01,0,0,0-.825.275c-.137,0-.137.137-.275.137-.137.137-.137.275-.275.275a.826.826,0,0,0-.137.55c0,.275-.137.687-.137.962,0,.687-.137,1.237-.137,1.924a18.624,18.624,0,0,0-.275,2.748,22.472,22.472,0,0,0-.275,3.023c-.137.962-.275,2.061-.412,3.023s-.275,2.061-.412,3.161a18.417,18.417,0,0,0-.137,2.748c0,.962-.137,1.786-.137,2.748v5.5a.939.939,0,0,0,.962.962.5.5,0,0,0,.412-.137c.137,0,.137.137.275.137h.275c.137,0,.412.137.55.137.275,0,.687.137.962.137.55,0,1.237.137,1.786.137,1.1.137,2.336.137,3.436.275a31.061,31.061,0,0,0,3.573.137H34.875a22.471,22.471,0,0,0,3.023-.275,5.952,5.952,0,0,0,.687-.137.48.48,0,0,0,.275-.137c.137,0,.275-.137.412-.275s.137-.275.275-.412a1.743,1.743,0,0,0,.137-.825V31.789a33.694,33.694,0,0,1,.275-3.71,31.06,31.06,0,0,0,.137-3.573V17.772a25.4,25.4,0,0,0,.137-3.161Zm-14.292-.687H34.6a16.631,16.631,0,0,1,2.611.137h.137c.137,0,.412.137.55.137.137.412.137.825.275,1.1.137.825.137,1.512.275,2.336,0,.962.137,1.786.137,2.748v.962a.835.835,0,0,0-.962-.825c-.687,0-1.374.137-2.061.137s-1.512.137-2.2.137h-.412V17.909a23.294,23.294,0,0,1,.137-3.023.939.939,0,0,0-.962-.962,1.033,1.033,0,0,0-.962.962,16.917,16.917,0,0,0,.275,2.748c0,.962.137,1.924.137,2.886V20.8c-.825,0-1.649.137-2.474.137-1.649,0-3.161.137-4.81.137a4.675,4.675,0,0,1-1.374-.137c0-1.649.137-3.161.275-4.672a15.143,15.143,0,0,0,.275-2.474,14.936,14.936,0,0,0,2.474.137Zm-3.161,13.33V22.307h.687c.962,0,2.061.137,3.023.137,1.649,0,3.3.137,4.947.137,0,1.374.137,2.886.137,4.26,0,.962.137,2.061.137,3.023a6.69,6.69,0,0,0,.137,1.649H25.667c-.962,0-1.924-.137-3.023-.137.137-1.374.137-2.748.137-4.123Zm-6.6-13.467ZM15.5,16.947c.137-.412.137-.962.275-1.374.137-.55.275-.962.412-1.512h5.5c-.137,1.924-.137,3.848-.275,5.772V21.07a10.608,10.608,0,0,1-2.061-.275h.137c-.687-.137-1.374-.137-2.061-.275-.412,0-.687-.137-1.1-.137a.826.826,0,0,1-.55-.137h-.687c-.137,0-.137,0-.275.137a1.03,1.03,0,0,1,.137-.687,24.267,24.267,0,0,0,.55-2.748ZM14.4,28.353c0-.962.137-1.924.137-2.748.137-.962.137-1.924.275-2.886,0-.412.137-.962.137-1.374.137.137.137.137.275.137h.137a.5.5,0,0,0,.412.137c.137,0,.412.137.55.137.412.137.962.137,1.512.275.962.137,1.786.137,2.748.275h.825v.55c0,1.1.137,2.2.137,3.3v5.222c-.687,0-1.237-.137-1.924-.137-1.1,0-2.2-.137-3.3-.137-.412,0-.962-.137-1.374-.137h-.825C14.261,30,14.261,29.178,14.4,28.353ZM30.2,39.347c-1.786,0-3.573.137-5.359.137s-3.573-.137-5.359-.275c-.825-.137-1.786-.137-2.611-.275-.412,0-.825-.137-1.237-.137a3.026,3.026,0,0,0-1.1.137,11.108,11.108,0,0,1-.137-2.2v-4.4a1.03,1.03,0,0,1,.687.137H16.46c1.1,0,2.061.137,3.161.137a10.4,10.4,0,0,1,2.061.137,22.265,22.265,0,0,1-.137,3.023c0,.55-.137.962-.137,1.512V38.66a.55.55,0,0,0,1.1,0V33.026c.962,0,2.061.137,3.023.137s1.924.137,2.886.137c1.1,0,2.061.137,3.161.137h.275v6.184c-.275-.275-.962-.275-1.649-.275Zm7.97-.962a3.234,3.234,0,0,1-1.1.275,6.962,6.962,0,0,1-1.786.275,10.4,10.4,0,0,1-2.061.137V36.186c0-1.1-.137-2.061-.137-3.161H34.6c1.1,0,2.061.137,3.161.137a.77.77,0,0,0,.825-.687c0,1.649-.137,3.161-.275,4.81a2.679,2.679,0,0,1-.137,1.1Zm.55-6.6v.55a.887.887,0,0,0-.825-.825H33.226c0-1.512-.137-3.161-.137-4.672v-4.26H37.76a.919.919,0,0,0,.962-.825c0,1.512,0,3.023.137,4.4,0,1.786,0,3.71-.137,5.634Z" transform="translate(4.565 4.491)" fill="#866d5a"/><path fill="#866d5a"/><path d="M19.8,30.9Z" transform="translate(7.41 11.563)" fill="#866d5a"/><path d="M22.722,5.223H23c.137,0,.412.137.55.137a2.038,2.038,0,0,0,.962.137V6.872a1.239,1.239,0,0,0,.137.687V7.7a.55.55,0,0,0,1.1,0,1.042,1.042,0,0,0,.275-.55v-1.1a6.9,6.9,0,0,0,1.649.275.849.849,0,0,0,1.1-.687.6.6,0,0,0-.137-.687c-.137-.137-.137-.275-.275-.275a.5.5,0,0,0-.412-.137A7.836,7.836,0,0,0,26.158,4.4a2.339,2.339,0,0,1,.137-.962V3.3a1.239,1.239,0,0,0-.137-.687,1.9,1.9,0,0,0-.55-.412h-.275a.887.887,0,0,0-.825.825v1.1H22.86c-.275,0-.55.137-.55.412a.525.525,0,0,0,.412.687Z" transform="translate(8.335 0.823)" fill="#866d5a"/></svg>