<?xml version="1.0" encoding="UTF-8"?><svg id="_レイヤー_2" xmlns="http://www.w3.org/2000/svg" viewBox="0 0 1042.81366 917.11183"><defs><style>.cls-1{fill:#ccc;}.cls-1,.cls-2,.cls-3,.cls-4,.cls-5,.cls-6,.cls-7,.cls-8,.cls-9,.cls-10,.cls-11,.cls-12{stroke-width:0px;}.cls-2{fill:#1a1a1a;}.cls-3{fill:#b3b3b3;}.cls-4{fill:#201d29;}.cls-5{fill:#a2a9ae;}.cls-6{fill:#8fcbe3;}.cls-7{fill:#eed0c2;}.cls-8{fill:#fda4a4;}.cls-9{fill:#2e2e2e;}.cls-10{fill:#fdcfcf;}.cls-11{fill:#fff;}.cls-12{fill:#fdc3c3;}</style></defs><g id="_レイヤー_2-2"><path class="cls-10" d="M762.03705,30.74873c29.56,11.12,57.92999,25.32,84.52002,42.68,110.28003,71.99999,184.41003,196.71001,194.93994,327.99999,10.54004,131.27997-42.75,266.22003-140.14001,354.89001-72.67999,66.16998-166.46002,105.95001-262.62,126.27997-124.39001,26.29999-255.59,8.71002-372.76999-38.66998-99.42999-40.21002-204.02-93.57001-245.85001-198.66998-25.52-64.12-25.36-136.71002-7.39-203.34,17.97-66.63,52.92-127.72,94.77-182.57999C192.28702,148.19873,309.13702,59.11873,443.46701,20.47873c103.81003-29.87,218.01999-27.58,318.57004,10.27Z"/><path class="cls-11" d="M693.53705,570.60872c-1.82001,25.40002,16.92999,48.84998,39.94,59.76001,29.51001,13.98999,66.72998,10.29999,92.67999-9.53998,25.95001-19.84003,39.28003-55.02997,32.59998-87.01001-6.67999-31.97-33.21997-59-65.15002-65.88l-100.07001,102.66998h.00006Z"/><path class="cls-4" d="M823.117,484.24873c31.23999,24.06,38.41998,69.85999,21.12,104.28003-17.13,34.08002-57.41998,53.46997-94.59998,43.40997-19.85999-5.37-37.22998-18.25-47.90997-35.83002-2.67999-4.40997-9.64001-.38-6.94,4.06,21.69,35.70001,66.82001,51.47998,106,36.92999,40.96997-15.21997,65.58997-57.40997,59.96002-100.60999-3.03998-23.35999-14.87-44.78-33.57001-59.17999-4.09998-3.14999-8.09998,3.82001-4.06,6.94h-.00006Z"/><path class="cls-4" d="M811.69702,520.41871c13.62,4.59998,16.78998,21.84003,15.42999,34.37-1.60999,14.83002-9.47998,28.23999-21.08002,37.45001-4.04999,3.21002,1.66998,8.87,5.67999,5.67999,14.10999-11.20001,22.85999-28.38,23.67999-46.39001.71997-15.66998-5.54999-33.45001-21.57001-38.87-4.90997-1.66-7.02002,6.09998-2.14001,7.75h0l.00006.01001Z"/><path class="cls-4" d="M725.06702,591.06874c15.38,19.52002,42.72003,27.57001,66.27002,19.78003,4.89001-1.62,2.78998-9.38-2.14001-7.75-21.13,6.98999-44.71002-.27002-58.45001-17.71002-3.20001-4.06-8.84998,1.65997-5.67999,5.67999h0Z"/><path class="cls-4" d="M754.297,568.67872c5.02002,6.56,11.98999,10.41998,20.27002,10.90002,5.16998.29999,5.15002-7.73999,0-8.03998-5.16998-.29999-10.15002-2.77002-13.33002-6.91998-3.09998-4.04999-10.09003-.04999-6.94,4.06h0v-.00006Z"/><path class="cls-6" d="M465.38702,908.98872l28.72-110.44,19.00998-121.15997c-49.5,1.39001-99,24.65997-127.78,64.96002-28.39999,39.76001-48.56,120-58.45001,166.64001h138.50998l-.00995-.00006Z"/><path class="cls-4" d="M333.76703,908.98872c14.94-76.10999,34.48001-158.35999,102.45999-202.70001,19.82999-12.92999,42.44-21.21002,66.17001-22.46002,4.88-.26001,4.91-7.88,0-7.62-42.48001,2.23999-81.09,25.28998-108.14001,57.38-29.64001,35.16998-46.12,79.08997-57.06,123.22998-4.28,17.27002-7.79999,34.70001-11.19,52.15997h7.76001v.01007Z"/><path class="cls-6" d="M760.63702,908.98872h137.96997c-8.92999-44.16998-29.96002-133.97998-60.56-176.82001-28.78003-40.29999-78.27997-63.57001-127.77997-64.96002l19.01001,121.16003,31.37,120.62h-.01001Z"/><path class="cls-4" d="M720.987,673.6587c23.72998,1.25,46.34003,9.52002,66.16998,22.46002,71.02002,46.33002,89.16998,134.03003,104.44,212.88h7.75c-4.02002-20.85999-8.06-41.71997-13.16998-62.34003-10.94-44.14001-27.41998-88.06-57.06-123.22998-27.04999-32.09003-65.66003-55.15002-108.14001-57.38-4.90997-.26001-4.88,7.35999,0,7.62l.01001-.01001Z"/><polygon class="cls-11" points="670.08704 773.43873 562.05701 773.43873 548.20703 606.07875 680.39703 584.55873 670.08704 773.43873"/><path class="cls-10" d="M801.01703,908.98872c-1.59998-27.87-2.65002-50.79999-2.78998-64.85999-.40997-41.13-2.46997-74.08002-11.21002-101.17999-9.20001-28.54999-25.70001-49.59998-51.90997-66.23999-11.59003-7.34998-45.20001-17.44-62.22998-23.28003,0,0-3.09998,105.26001-60.15002,105.26001s-60.17999-111.15002-60.17999-111.15002c-98.78,33.90002-112.16998,96.52997-116.48999,192.87l-.16,3.46002c-.72,15.90002-2.01999,38.59998-3.67001,65.12h368.78998Z"/><path class="cls-11" d="M781.84705,356.63875c21.20001,120.79999-5.65997,226.46002-159.85999,253.52002-154.20001,27.07001-215.44-63.12-236.64999-183.91998-8.45001-48.16-16.10001-97.98001,3.17999-138.62,29.09-61.28,85.41-107.66,155.98001-120.04001,67.01001-11.75999,132.37,9.66,180.08002,52.69,35.85999,32.34,48.15997,84.53,57.26001,136.37l.00995-.00003Z"/><path class="cls-11" d="M826.62701,368.53874c-3.67999-20.95001-12.33002-68.82999-34.92999-113.88-20.22998-40.33-51.87-75.01001-94.03998-92.54001-2.10999-.88-4.34003-1.34-6.60999-1.45-7.71997-18.53-25.65997-32.40001-46.82001-38.27-29.84003-8.28-61.38-10.03-92.07001-6.29-52.81,6.45-102.03,32.31001-136.16998,72.93-44.39001,38.84999-69.31,99.68999-74.57001,157.74998-4.69,51.82001,3.47,103.98999,14.79001,154.44,2.64001,11.78003,14.17001,21.57001,26.76999,18.78003,11.76999-2.60999,21.60999-14.13,18.78-26.76999-4.56-20.34-8.63-40.79001-11.48999-61.45001-1.35999-9.82001-2.44-19.67999-3.17999-29.57001,1.06.22,2.14999.38,3.29001.42001,47.5,1.45999,91.29001-13.81,129.04999-39.23001,5.77002,10.10001,19.35999,16.5,30.44,10.32999,17.09003-9.51999,31.38-21.57001,43.64001-35.34.29999.38.46997.97.91998,1.13,19.01001,6.94,38.39001.78,48.87-6.85999,32.40997-23.60001,38.96997-51.20001,46.28998-90.81.26001.27.52002.53999.78998.81,35.44,14.64001,48.13,17.54001,63.85999,51.42001,8.22998,17.73001,38.51001,106.14999,46.87,136.57001,3.21997,11.70999,38,5.07999,35.98999-6.32001-2.64001-15.01999-6.78998-34.88-10.46997-55.83002v.03Z"/><path class="cls-11" d="M400.83701,458.15873c-9.54999-2.45999-20.22-2.88-31.19-.37-18.25,3.91-33.06,13.44-29.56,29.42001,7.82001,33.16998,47.53,69.94,88.12,55.82001,3-1.22998,5.14999-4.28003,6.67001-8.39001-16.75-22.27002-27.57001-49.37-34.04999-76.48001h.00998Z"/><path class="cls-11" d="M847.62701,398.12874c-2.15997-16.22-20.45001-22.82999-38.95001-20.29001-12.66998,1.56-23.59003,6.82999-32.10999,14,3.75,15.59,3.21002,32.17001.82001,47.91-1.48999,9.79001-3.82001,19.56-7.03998,29.01999,3.92999,6.73999,8.46997,11.64999,13.42999,11.85001,42.97998-.54999,67.78998-48.64999,63.84003-82.5l.00995.01001Z"/><ellipse class="cls-4" cx="686.36386" cy="395.54071" rx="14.62" ry="18.14999" transform="translate(-49.70538 102.70991) rotate(-8.26)"/><ellipse class="cls-4" cx="513.96673" cy="420.56765" rx="14.62" ry="18.14999" transform="translate(-55.08927 78.20204) rotate(-8.26)"/><path class="cls-4" d="M704.13702,362.71873c-1.71997.70999-4.09998-1.17999-7.38-3.34-.41998-.26999-.84998-.54999-1.27002-.85001-.42999-.29001-.94-.54001-1.40997-.84-.90997-.62-2.01001-1.12-3.04999-1.73001-2.21002-1.07999-4.64001-2.14001-7.31-3.01999-2.69-.81-5.28998-1.32999-7.71997-1.70999-1.21002-.10001-2.39001-.32001-3.48999-.32999-.54999-.01999-1.10999-.10999-1.63-.12-.52002,0-1.03003,0-1.53003-.03-3.92999-.10999-6.96002.07001-7.96002-1.48999-.46997-.75-.28998-1.81.59003-3.16.21997-.34.47998-.69.78998-1.06.31-.35001.69-.67001,1.09998-1.01999.83002-.67001,1.82001-1.48001,3.03998-2.04001.59998-.31,1.25-.62,1.92999-.92999.67999-.29999,1.41998-.48999,2.19-.73001,1.53998-.51999,3.21997-.73001,5.02002-.95999,3.58002-.26999,7.58002.07001,11.54999,1.29001,3.95001,1.26999,7.42999,3.28,10.21002,5.54999,1.34003,1.20999,2.59998,2.35001,3.56,3.66.48999.64001.97998,1.20999,1.38,1.85001.38.64001.73999,1.26999,1.04999,1.85999.67999,1.16,1.02002,2.38,1.32001,3.41.14001.51999.27002,1,.32001,1.47.03998.48001.04999.92001.03998,1.32001-.04999,1.60999-.51001,2.57999-1.32001,2.92999l-.01996.01996Z"/><path class="cls-4" d="M524.38702,379.51872c-.51001,1.76999-3.39001,2.5-7.17999,3.47-.47998.13-.96997.25-1.46997.35999-.51001.12-1.03003.29999-1.56.44-1.07001.23999-2.17999.64999-3.34.95999-2.31.76999-4.76999,1.66-7.29999,2.76999-2.5,1.16-4.79001,2.42999-6.89001,3.66-1,.67001-2.04001,1.23001-2.92999,1.88-.45001.31-.94.57999-1.35999.89001-.42001.31-.82999.60001-1.23999.87-3.22,2.20001-5.67001,3.89001-7.34,3.10999-.79999-.38-1.23999-1.35001-1.28-2.89001-.03-.76999.04999-1.67001.32999-2.64999.26001-.98001.57999-2.12,1.16-3.23999.28-.57001.57999-1.16.92001-1.78.34-.60999.76999-1.17999,1.20001-1.79999.84-1.26001,1.92999-2.42001,3.10001-3.64001,2.42001-2.32999,5.48001-4.51999,9.03-6.14999,3.56-1.59,7.22-2.44,10.57001-2.73001,1.69-.07999,3.28003-.14001,4.78003.06.75.09,1.46002.14001,2.14001.29001s1.33002.31,1.94.48001c1.21997.29001,2.28998.81,3.20001,1.26001.90997.42999,1.65002.95999,2.21002,1.5,1.13,1.04001,1.56,2.01001,1.33002,2.87l-.0202.01001Z"/><circle class="cls-12" cx="489.90522" cy="492.7658" r="49.43002" transform="translate(-132.94736 184.73994) rotate(-18.85253)"/><path class="cls-8" d="M473.42703,478.89873c-1.75,5.94-3.5,11.89001-5.25,17.82999-.23999.82001-.35001,1.56-.01001,2.39001.29001.70999.95001,1.42999,1.67999,1.70001,1.44.53,3.60001,0,4.09-1.67001,1.75-5.94,3.5-11.89001,5.25-17.82999.23999-.82001.35001-1.56.01001-2.39001-.29001-.70999-.95001-1.42999-1.67999-1.70001-1.44-.53-3.60001,0-4.09,1.67001h0Z"/><path class="cls-8" d="M497.09702,466.22874c-2.70001,12.23001-5.39999,24.45999-8.10001,36.70001-.35999,1.64999,1.07999,3.31,2.66,3.53,1.78.25,3.17001-1,3.53-2.66,2.70001-12.23001,5.39999-24.45999,8.10001-36.70001.35999-1.64999-1.07999-3.31-2.66-3.53-1.78-.25-3.17001,1-3.53,2.66h0Z"/><circle class="cls-12" cx="719.3507" cy="457.8415" r="49.42999"/><path class="cls-8" d="M705.63702,441.21873c-1.85999,9.12-3.71002,18.23999-5.57001,27.35001-.34003,1.64999,1.06,3.31,2.65997,3.53,1.76001.25,3.20001-1,3.53003-2.66,1.84998-9.12,3.71002-18.23999,5.57001-27.35001.34003-1.64999-1.06-3.31-2.65997-3.53-1.76001-.25-3.20001,1-3.53003,2.66h0Z"/><path class="cls-8" d="M729.76703,440.68873c-1.33002,6.12-2.65997,12.23999-3.98999,18.35999-.34998,1.60001,1.06,3.38,2.65997,3.53,1.78998.17999,3.15997-.95001,3.53003-2.66,1.33002-6.12,2.65997-12.23999,3.98999-18.35999.34998-1.60001-1.06-3.38-2.65997-3.53-1.78998-.17999-3.15997.95001-3.53003,2.66h0Z"/><path class="cls-4" d="M601.047,428.42872c-5.42999,1.67001-6.91998-5.26001-7.41998-9.17999-.59998-4.70999-7.85999-3.42001-7.26001,1.26999.56,4.38,1.73999,8.92999,5.01001,12.10001,2.84998,2.76999,7.03998,4.25,10.94,3.06,1.91998-.59,3.34003-2.13,2.98999-4.26999-.28998-1.78-2.35999-3.57999-4.27002-2.98999l.01001.00998Z"/><path class="cls-11" d="M642.19702,492.37874c2.10999-6.42999,2.69-13.44,2.16998-20.22-.84003-11.13-4.37-21.87-7.67999-32.51001-22.03003,13.97-49.12,19.73999-74.94,16-2.17999,13.75.15002,28.42001,7.59003,40.20999,7.19,11.39001,19.34003,19.81,32.72003,21.40002s27.65002-4.12,35.35999-15.17001c2.08002-2.98999,3.65997-6.26999,4.78998-9.70999h-.01001Z"/><path class="cls-4" d="M640.47699,440.33873c-.44-1.22-2.07001-1.69-3.17999-1.17999-.15997.07001-.29999.16-.42999.25-.67999-.44-1.57001-.60001-2.26001-.17001-16.90002,10.53-36.78998,16.17001-56.71997,15.94-5.70001-.07001-11.39001-.60001-17-1.59-1.27002-.22-2.51001.89001-2.65002,2.12-.07001.60001.09998,1.13.40002,1.57001-.27002.48001-.40002,1.04999-.38,1.64999.29999,10.20001.70001,20.67001,4.64001,30.23001,3.46002,8.39001,9.70001,15.20999,16.81,20.70999,4.02002,3.09998,8.32001,5.81,12.72998,8.32001,1.12.64001,2.53003.59003,3.34998-.53998.70001-.96002.59003-2.70001-.53998-3.34998-7.32001-4.17999-14.56-8.91-20.27002-15.17999-2.87-3.16-5.32001-6.64999-7.09998-10.53-1.98999-4.35999-3.10999-9.03-3.77002-13.76001-.75-5.32001-.94-10.69-1.09998-16.04999,19.59003,2.92999,39.92999.32999,58.21997-7.25,5.32001-2.20999,10.45001-4.85001,15.34003-7.89999,4.71997,13.29001,8.23999,27.51001,5.84998,41.64999-2.03998,12.04001-8.65997,23.54001-20.07001,28.80002-6.01001,2.77002-12.96002,3.65997-19.33002,1.63-2.92999-.94-4.66998,3.53003-1.72998,4.46997,13.27002,4.22998,27.77002-1.57001,36.33002-12.10999,9.08002-11.19,11.46002-26.35001,9.89001-40.33002-1.06-9.39999-3.82001-18.51999-7.03998-27.39001l.00995-.01004Z"/><path class="cls-4" d="M681.83704,140.87874c-16.53003-12.17999-36.62-19.07-56.51001-23.45-18.13-3.99-36.72998-5.34-55.26001-4.46-18.51001.88-36.90002,4.14-54.59998,9.6-17.75,5.48-34.83002,13.02-50.67999,22.73-15.88,9.73-30.53,21.42-43.23999,35.05-1.63,1.75-3.23001,3.52-4.79999,5.32001-1.14999,1.31-.53,3.56.79001,4.48,1.54999,1.09,3.32999.53,4.48001-.78999,11.84-13.53,25.66-25.32001,40.67999-35.17999,15.03-9.86,31.44-17.7,48.44-23.50999,17.02002-5.81,34.82001-9.45,52.75-10.91,17.82001-1.45,35.84003-.59,53.42999,2.58,8.91998,1.61,17.71997,3.86,26.32001,6.73,9.73999,3.24001,19.28998,7.24001,28.02002,12.66,2.21997,1.38,4.37,2.85001,6.47998,4.39,3.34003,2.46001,7.03003-2.81,3.70001-5.27l-.00006.02998Z"/><path class="cls-4" d="M399.19702,206.36873c-1.01999-1.21001-3.35001-1.66-4.54001-.38-22.01001,23.63-36.5,53.14999-44.79001,84.19-9.29001,34.76001-10.85999,70.87-9.39999,106.66998.88,21.48999,2.82999,42.91,4.82999,64.32001.14001,1.51999,1.66,2.60001,3.12,2.64999-6.97,5.20001-12.35999,12.54999-13.85999,21.26001-2.17001,12.54999,5.01001,24.56,13.03,33.56998,7.39001,8.31,16.34,15.06,26.20999,20.15002,10.98999,5.65002,23.19,9,35.53,9.69,4.13.22998,4.75-6.17999.60999-6.40997-19.88998-1.09998-37.85001-11.63-52.09-25.59998-7.48999-7.35001-15.17001-16.91-15.75-27.84-.5-9.48001,4.04999-15.60001,11.59-20.70999,11.04999-7.5,25.42999-7.88,38.29999-7.62.88.01999,1.72-.26001,2.35999-.76999.34.06.69.07001,1.01001.01999,1.85999-.32999,2.73001-1.98001,2.60999-3.73001-.72-10.64999-1.45001-21.31-2.17001-31.95999-.12-1.73999-2.14001-2.89001-3.73001-2.60999-1.87.32999-2.73001,1.98001-2.60999,3.73001.64999,9.63,1.31,19.26999,1.95999,28.89999-12.78-.20999-26.34.38-37.79999,6.60999-.75.41-1.48999.85001-2.22,1.29999.20001-.53.29001-1.13.23001-1.73001-3.48001-37.14999-6.85001-74.51001-4.47-111.84,2.07001-32.38,8.67999-64.66,22.67001-94.10001,7.45999-15.69,17.12-30.49001,28.98001-43.22,1.17999-1.27,1.59-3.10001.38-4.53999l.01004-.00005Z"/><path class="cls-4" d="M694.75702,232.61873c-1.48999-.55-3.71002.21001-4.14001,1.89999-5.09998,20.10001-10.52002,40.59-20.66998,58.84-9.08002,16.32001-21.96997,31.01999-39.14001,39.01999-10.60999,4.94-22.37,7.22-34.06,6.62-.40997-.01999-.77002.04001-1.10999.13,3.87-6.78,7.13-13.89999,9.97998-20.88,4.64001-11.37,8.07001-23.20001,10.39001-35.26001.33002-1.70999-1.28998-3.35999-2.90002-3.51001-1.87-.17999-3.17999,1.19-3.51001,2.89999-3.75,19.45999-10.69,38.76001-20.95001,55.75-8.98999,14.88-21.96997,28.64001-39.92999,31.32999-7.77002,1.17001-15.84003.07001-22.59003-3.91,9.39001-6.47,17.67999-14.63,23.31-24.60999.84998-1.51001.72998-3.42001-.78998-4.48001-1.32001-.92001-3.63-.73001-4.47998.79001-10.34998,18.35999-29.16998,29.01001-47.98999,36.98999-10.44,4.42001-21.14001,8.28-31.82999,12.04999-12.01001,4.23999-24.19,8.10001-36.69,10.63-13.85999,2.81-28.01001,3.85001-42.04999,1.76999-4.10999-.60999-4.70001,5.81-.60999,6.41,26.20999,3.87,52.35001-2.79999,77.01999-11.23001,11.32999-3.87,22.62-7.95999,33.70999-12.48999,8.42999-3.45001,16.68997-7.32001,24.48001-12.01999,15.16998,10.98999,36.13,7.92001,50.90997-2.13,9.15002-6.22,16.37-14.82001,22.26001-24.32999.19,1.28,1.08002,2.39999,2.76001,2.48001,21.60999,1.12,42.66998-6.78,58.45001-21.53,14.94-13.95999,24.79999-32.32999,31.65002-51.38998,4.20001-11.67999,7.37-23.7,10.41998-35.72.42999-1.67999-.15002-3.49001-1.90002-4.14v.02003Z"/><path class="cls-4" d="M770.21704,316.72874c-2.72998-10.20999-6.06-20.26001-11.53003-29.36002-4.81-8.01001-10.78003-15.14001-17.75-21.35001-7.71997-6.87-16.66998-12.34-26.28003-16.14-3.85999-1.53-6.09003,4.52-2.23999,6.03999,16.09003,6.35001,30.12,17.92001,39.41998,32.53,5.35999,8.42001,8.83002,17.70999,11.46997,27.29001,2.97998,10.79001,5.59998,21.69,8.35999,32.53,3.17999,12.47,6.35999,24.95001,9.54999,37.42001.42999,1.67999,1.91998,2.92999,3.72998,2.60999,1.60999-.28,3.04999-2.03,2.60999-3.73001-5.77002-22.62-11.29999-45.31-17.34003-67.85001l.00018.01004Z"/><path class="cls-4" d="M661.41699,227.33873c-1.54999-.14999-3.57001,1.14999-3.51001,2.89999.64001,18.17-2.25,36.29999-8.59998,53.34-1.45001,3.89001,4.59003,6.12,6.03998,2.23999,6.53003-17.51999,9.63-36.27,8.96997-54.97-.06-1.74001-1.01001-3.33-2.90002-3.50999l.00006.00002Z"/><path class="cls-4" d="M814.50702,292.85872c-9.07001-22.19-19.20001-44-32.32001-64.11-11.82001-18.12-26.23999-34.69-43.56-47.75-9.48999-7.16-19.87-13.17-30.87-17.67-3.84998-1.57001-6.07001,4.47-2.23999,6.03999,18.84003,7.71001,35.44,20.10001,49.35999,34.84999,15.39001,16.31,27.47998,35.35001,37.57001,55.31,5.96002,11.78,11.25,23.88,16.23999,36.10001,1.57001,3.82999,7.38,1.07001,5.82001-2.76001v-.00998Z"/><path class="cls-4" d="M848.46704,392.64873c-2.58002-5.69-7.40002-10.14999-12.78998-13.17001-.58002-.32001-1.15997-.62-1.75-.91,0-.16.01001-.32001,0-.48999-1.71002-23.35001-7.35999-46.34-16.57001-67.87-1.63-3.81-7.45001-1.04999-5.82001,2.76001,8.56,20,13.84998,41.26001,15.78003,62.91-10.26001-3.25-21.53003-2.82999-31.58002,1.39001-3.82001,1.60001-1.06,7.42001,2.76001,5.82001,9.85999-4.13,21.22998-3.91,30.97998.42999,4.60999,2.04999,9.10999,5.17999,11.89001,9.48001,3.28003,5.07001,3.67999,11.53,3.34998,17.39999-.66998,11.85001-5.07001,23.09-9.84003,33.83002-2.38,5.35001-4.98999,10.62-8.65002,15.23001-3.03998,3.82999-6.79999,7.16-10.91998,9.79999-9.5,6.10001-21.03003,8.73001-32.21002,7.10001-4.10999-.60001-4.70001,5.82001-.60999,6.41,11.27002,1.64001,23.07001-.67999,33.02002-6.17999,5.03998-2.79001,9.62-6.31,13.51001-10.56,4.32001-4.70999,7.48999-10.16,10.22998-15.91,5.53998-11.66,10.57001-24.19,11.73999-37.14999.60999-6.76001.33002-14.04001-2.51001-20.31l-.00995-.01007Z"/><path class="cls-4" d="M685.37701,131.51874c-1.40002-3.05-6.13-.82001-4.71997,2.24001,4.22998,9.19,7.15002,18.86,8.73999,28.85001.53003,3.32001,5.66998,2.42,5.14001-.89999-1.65997-10.42-4.76001-20.60001-9.16998-30.17999l.00995-.01003Z"/><path class="cls-4" d="M721.047,146.21873c-.54999-1.16-2.28003-1.99001-3.47998-1.24001-7.59998,4.77-13.42999,12.02-16.15002,20.61-.42999,1.34.16998,2.85001,1.53998,3.36,1.28003.47,2.92999-.19,3.35999-1.53999,1.22998-3.89,2.83002-6.96001,5.31-10.2,1.23999-1.62,2.16998-2.63,3.66998-4.00999.75-.69,1.53003-1.35001,2.34003-1.97.37-.28.73999-.56,1.12-.82001.22998-.16.46002-.32001.69-.47.09998-.07001.14001-.10001.15997-.11,0,0,.04999-.03.20001-.12,1.19-.75,1.89001-2.10001,1.23999-3.48l.00006-.01001Z"/><path class="cls-4" d="M426.53702,549.1587c7.28,13.17999,19.12,23.08002,30.88998,32.12,11.42999,8.77002,22.64999,17.03003,36.22,22.19,16.92999,6.44,35.99002,9.78998,54.12997,9.78998l-4.02002-4.02002c.89001,9.84003,1.78998,19.67999,2.67999,29.53003.46002,5.10999,8.51001,5.15997,8.03998,0-.89001-9.84003-1.78998-19.67999-2.67999-29.53003-.20001-2.15997-1.67999-4.02002-4.02002-4.02002-16.53003,0-33.65002-3-49.20999-8.47998-12.95999-4.57001-23.54999-12.16998-34.41-20.37-11.59-8.75-23.54999-18.35999-30.67999-31.26001-2.5-4.53003-9.45001-.47998-6.94,4.06h0l.00009-.00995Z"/><path class="cls-4" d="M773.88702,489.08873c-9.04999,31.18997-27.73999,59.06003-53.01001,79.44003-6.46997,5.21997-13.40002,9.88-20.64001,13.97998-6.63,3.75-13.88,6.65997-19.60999,11.78998-12.04999,10.81-12.34003,28.37-11.87,43.32001.15997,5.15997,8.20001,5.17999,8.03998,0-.26001-8.23999-.46997-16.73999,1.79999-24.73999,2.39001-8.40997,7.83002-13.79999,15.34998-17.92999,13.85999-7.59998,26.96002-15.40002,38.79999-25.98999,23.16998-20.71997,40.23999-47.89001,48.89001-77.73001,1.44-4.98001-6.31-7.10001-7.75-2.14001h.00006Z"/><path class="cls-11" d="M719.28705,908.98872h188.95001c-11.52002-62.14001-27.73999-123.91998-65.65002-173.71002-37.72003-49.52997-106.90002-82.22998-168.59003-90.34998,29.03998,68.87,42.64001,144.64996,44.44,219.41998.35999,14.88.63,29.76001.84998,44.64001h.00006Z"/><path class="cls-2" d="M687.867,695.78871c5.21002,16.98999,9.59003,34.23999,13.19,51.64001,1.79999,8.67999,3.40997,17.39001,4.83002,26.13,1.44,8.82001,2.59003,17.03998,3.63,25.67999,2.09998,17.57001,3.5,35.21002,4.22998,52.89001.78003,18.81.97998,37.65997,1.25,56.47998v.38h8.58002c-.22998-16.78998-.47998-33.59003-1.02002-50.37-.57001-17.76001-1.81-35.48999-3.76001-53.15002-1.96997-17.90997-4.64001-35.75-8.09998-53.44-3.40997-17.45001-7.58002-34.75-12.57001-51.82001-4.95001-16.92999-10.71997-33.62-17.34003-49.96002.38.06.75.12,1.13.17999,2.91998.48999,5.84003,1.03003,8.75,1.62,5.78003,1.16998,11.52002,2.53003,17.21997,4.07001,11.65002,3.14001,23.10999,7.01001,34.28998,11.56.65997.27002,1.31.53998,1.96997.81.32001.13.65002.27002.96997.40002.12.04999.73999.31.75.32001,1.42999.60999,2.85999,1.23999,4.28998,1.87,2.78998,1.23999,5.54999,2.53003,8.29999,3.85999,5.54999,2.69,11.01001,5.56,16.37,8.60999,5.26001,3,10.42999,6.16998,15.46997,9.52002,2.5,1.65997,4.97998,3.37,7.41998,5.13,1.19.84998,2.35999,1.71997,3.53998,2.59003.56.41998,1.10999.83002,1.65997,1.25.28003.21002.56.42999.83002.64001.09003.07001.53998.41998.59998.46997,9.28003,7.25,18.01001,15.22998,25.90997,23.96997,1.91998,2.13,3.78998,4.29999,5.60999,6.51001.88,1.08002,1.75,2.15997,2.59998,3.26001.03998.04999.06.07001.08002.09998.03003.03998.04999.07001.09998.13.27002.34998.53003.70001.79999,1.04999.56.73999,1.10999,1.47998,1.65997,2.22998,3.91998,5.32001,7.62,10.79999,11.10999,16.40997,6.97998,11.22998,13.09998,23,18.46997,35.08002,5.09998,11.48999,9.81,24.19,13.81,36.70001,8.21002,25.65997,14.06,52.02002,19.03998,78.47998.12.63.22998,1.27002.34998,1.90002h8.69c-4.60999-24.98999-9.92999-49.88-17.20001-74.23999-7.73999-25.90997-17.72998-51.31-31.26001-74.77997-6.64001-11.5-14.09998-22.60999-22.56-32.85999-7.53003-9.13-15.97998-17.46997-25.03003-25.07001-19.01001-15.96997-40.5-28.88-63.20001-38.88-22.39001-9.87-45.94-17.19-70.09998-21.15997-3.06-.5-6.14001-.94-9.21997-1.34998-2.57001-.34003-5.14001,3.04999-4.13,5.42999,6.84003,16.25,12.83002,32.84998,18,49.71002l-.00952.01996Z"/><path class="cls-11" d="M503.94702,908.98872c.23999-14.88.53-29.76001.89001-44.64001,1.79999-74.77002,14.33002-150.54999,43.37-219.41998-61.69,8.10999-130.87,40.81-168.59,90.34998-37.91,49.78998-54.13,111.57001-65.64999,173.71002h189.97998Z"/><path class="cls-2" d="M318.32703,908.98872c4.45999-23.91998,9.60001-47.72998,16.51999-71.07001,7.60001-25.63,16.95001-49.65997,30.20999-72.82001,3.26999-5.71997,6.75-11.32001,10.45001-16.77002,1.89999-2.79999,3.85999-5.57001,5.88-8.28998.45999-.62.92001-1.23999,1.39001-1.85999.26999-.34998.53-.70001.79999-1.04999.03-.03998.04999-.06.07001-.09998.92999-1.19,1.87-2.38,2.82999-3.54999,7.41-9.03003,15.73999-17.29999,24.64999-24.84998,2.32001-1.96002,4.67999-3.87,7.07001-5.73999.04001-.03003.16-.12.25-.19.29001-.21997.57001-.44.85999-.65997.54999-.41998,1.10999-.84003,1.66-1.25,1.23001-.91998,2.45999-1.82001,3.70999-2.71002,4.95001-3.56,10.04001-6.92999,15.23999-10.10999,10.45001-6.40002,21.32999-12.08002,32.53-17.06,1.29999-.58002,2.60001-1.14001,3.89999-1.70001.01001,0,.66-.28003.76001-.32001.25-.10999.51001-.21002.76001-.32001.78-.33002,1.57001-.65002,2.35999-.96997,2.82001-1.14001,5.64999-2.23999,8.5-3.29999,5.66-2.09998,11.39001-4.02002,17.17001-5.77002,11.41-3.45001,23.03-6.21002,34.79001-8.15997.25-.03998.48999-.08002.73999-.12-5.76001,14.25-10.84003,28.78003-15.26001,43.5-5.10999,16.98999-9.35999,34.23999-12.83002,51.65002-3.53,17.65002-6.25,35.46997-8.29999,53.34998-2.01999,17.65002-3.35999,35.38-4.07001,53.14001-.76001,18.81-.98001,37.64001-1.29001,56.46002,0,.21997,0,.42999-.01001.65002h8.57001c.26001-16.71002.53-33.41998,1.04999-50.12.54999-17.75,1.70999-35.48999,3.56003-53.15002,1.83002-17.51001,4.26001-34.40997,7.56-51.90002,3.28003-17.35999,7.32001-34.58002,12.19-51.56,4.89001-17.01001,10.62-33.78998,17.27002-50.19.81-2,1.64001-4,2.47998-5.98999,1-2.38-1.57001-5.77002-4.13-5.42999-24.19,3.20001-47.87,9.57001-70.47,18.76001-23.29999,9.47998-45.39999,21.72998-65.29001,37.16998-9.42001,7.31-18.28,15.34998-26.29999,24.17999-8.64999,9.53998-16.25,20.03998-23.09,30.95001-14.35999,22.92999-25.06,48.02997-33.34,73.72998-8.32999,25.87-14.25,52.45001-19.28,79.13-.28,1.46997-.54001,2.94-.81,4.40997h8.69l.00003-.00012ZM383.71704,736.92872c.20001-.27002.10001-.14001,0,0h0Z"/><circle class="cls-3" cx="504.76704" cy="851.91871" r="41.34002" transform="translate(-454.55466 606.44541) rotate(-45)"/><path class="cls-1" d="M504.76703,883.73872c-17.54999,0-31.82001-14.28003-31.82001-31.82001s14.28-31.82001,31.82001-31.82001,31.82001,14.28003,31.82001,31.82001-14.28003,31.82001-31.82001,31.82001Z"/><circle class="cls-4" cx="504.76703" cy="851.91871" r="18.89001"/><path class="cls-4" d="M554.367,638.93873c-11.53998.27002-24.89001,7.94-32.32001,16.88-9.39001,11.31-13.13,25.84003-15.28,40.09003-4.81,31.85999-6.25,64.19-6.67999,96.37-.23999,18.15002-.13,36.28998-.01001,54.44.01999,2.52002,2.20999,4.94,4.82001,4.82001,2.60001-.12,4.84-2.12,4.82001-4.82001-.20001-31.34998-.39999-62.72003,1.25-94.02997.82001-15.63,2.11002-31.25,4.07999-46.78003.41998-3.29999.76001-5.92999,1.38-9.72998.56-3.44,1.21002-6.87,2.03003-10.26001.81-3.35999,1.78003-6.69,3-9.92999.23999-.63.48999-1.26001.75-1.89001.08002-.19.32001-.73999.33002-.77002.12-.28003.25-.56.38-.83002.77002-1.65997,1.62-3.28998,2.56-4.87.84003-1.41998,1.75-2.78003,2.71997-4.10999.13-.17999.38-.48999.41998-.54999.34998-.42999.71002-.84998,1.08002-1.27002.54999-.63,1.12-1.23999,1.71002-1.83002,1.16998-1.19,2.41998-2.28998,3.71997-3.34998.06-.04999.10999-.09003.15997-.13.04999-.03003.10999-.08002.19-.13.40002-.28003.78998-.57001,1.19-.84003.73999-.5,1.5-.97998,2.27002-1.44.71002-.40997,1.42999-.81,2.16998-1.16998.37-.17999.73999-.35999,1.10999-.53003.12-.04999.5-.21002.66998-.28003,1.53003-.58002,3.09003-1.09003,4.69-1.44.26001-.06.52002-.10999.78998-.15997.14001-.03003.84003-.13,1.08002-.16998.66998-.07001,1.34998-.14001,2.03003-.15997h.46002l2.47998-11.12-.04999-.01001Z"/><path class="cls-5" d="M665.82703,908.98872c-1.19-14.62-2.02002-25.53003-2.03998-25.82001-.15997-2.03003-1.91998-3.56-3.96997-3.40002-2.03998.15997-3.56,1.92999-3.40002,3.96997.02002.28003.84003,10.90997,2,25.25h7.41998l-.01001.00006Z"/><path class="cls-5" d="M766.117,908.98872c1.53003-14.59998,2.62-25.47998,2.65002-25.76001.20001-2.03003-1.28003-3.84003-3.31-4.04999-2.03998-.20001-3.84003,1.28003-4.04999,3.31-.03003.28998-1.15997,11.53998-2.72998,26.5h7.43994Z"/><path class="cls-4" d="M665.12701,887.11873l-10.87-.13.46002-38.59003c.38-32.09998,26.79999-57.90002,58.89001-57.52002,32.09998.38,57.90002,26.79999,57.52002,58.89001l-.45001,38.04999-10.87-.13.45001-38.04999c.31-26.09998-20.67999-47.59003-46.77997-47.90002s-47.59003,20.67999-47.90002,46.77997l-.46002,38.59003.00995.01007Z"/><path class="cls-4" d="M717.357,795.24873c-.5-24.73999-1-49.48999-1.5-74.22998-.96997-22.34003,2.33002-47.73999-11.46997-66.91003-6.96997-9.13-17.63-16.16998-29.53998-15.27002-2.78998.21002-5.51001,2.32001-5.37,5.37.12,2.72998,2.37,5.59998,5.37,5.37,1.59003-.12,3.19-.09998,4.77002.09003-1.21002-.15002.27002.08002.69.16998,1.04999.22998,2.08002.52002,3.09998.88.38.14001,1.51001.59998.52002.16998,2,.87,3.89001,1.98999,5.65997,3.26001.17999.12.79999.62-.03003-.03998,2.21997,1.75,4.21997,3.77002,5.98999,5.97998,11.03998,14.44,8.90997,38.95001,9.53998,59.15002.51001,25.34003,1.02002,50.66998,1.53003,76.01001.06,2.81,2.42999,5.5,5.37,5.37,2.85999-.13,5.42999-2.35999,5.37-5.37h0Z"/><path class="cls-11" d="M174.37701,709.45875c-.5-12.59998-10.67-22.73999-21.48-29.23999s-23.03-10.88-32.5-19.21002c-3.03-2.65997-5.79-5.78998-7.17-9.58002-1.38-3.78998-1.17-8.33002,1.32-11.5.86-1.09998,2.03-1.96997,3.33-2.52002-1.11-.71997-2.17-1.51001-3.18-2.38-5.21-4.46997-8.75-11.54999-7.09-18.20001,1.33-5.33002,5.8-9.48999,10.91-11.52002,2.99-1.19,6.17-1.72998,9.38-1.85999-4.01-3.62-7.32-7.81-8.23-13.02002-1.1-6.33002,2.06-13.20001,7.59-16.46997,3.64999-2.15997,8.17-2.66998,12.27-1.59998,14.5-9.71002,32.2-14.66998,49.63-13.59003,12.27.77002,25.46001,5.26001,31.61,15.90997,4.41,7.65002,4.37,16.97998,4.21001,25.81-.41,22.06-6.00999,44.63-1.23,66.16998,2.25999,10.20001-49.37,42.81-49.37,42.81l-.00003-.00989Z"/><path class="cls-7" d="M187.82703,613.12874c-8.25-8.60999-19.56-14.04999-31.45-15.04999-3.32001-.28003-7.31-.17999-8.77,3.42999-1.17,2.89001.28,5.85999,1.83,8.28003,3.66,5.71997,7.92999,11.16998,10.09,17.70001,2.03999,6.19,2.60001,12.72998,1.61,19.16998-.97,6.28003-4.08,12.41998-1.23,18.69,1.14,2.51001,3.3,4.72998,5.97,5.57001,3.21001,1.01001,6.48-.07001,8.98-2.16998,2.46001-2.06,4.00999-4.96002,5.34-7.82001,1.36-2.94,2.49001-5.97998,3.42-9.08002,2.12-7.06,3.28999-14.38,4.39999-21.65997.66-4.34003,1.07001-15.76001-.17999-17.06l-.00999-.00006Z"/><path class="cls-11" d="M144.02702,582.69874c-7.96001-26.10999-13.55-58.82001-21.51-84.91998-1.3-4.26001-2.61-8.70999-1.89-13.10999s4.15-8.69,8.6-8.82999c5.74001-.17999,9.37,5.92999,11.66,11.19,11.67999,26.82999,22.10001,54.20999,31.22,82.01999l-28.09,13.65997.00999-.01001Z"/><path class="cls-9" d="M218.34702,643.34871c-.38,7.84998.71001,15.77002,3.28,23.20001.52,1.51001,1.84,2.62,3.53,2.25,1.42-.32001,2.77-2.01001,2.25-3.53003-2.41-6.96997-3.5-14.25-3.14999-21.60999.17999-3.81-5.73-4.09998-5.91-.29999v-.01001Z"/><path class="cls-9" d="M216.57703,562.53871c-5.53-3.94-12.56-5.53003-19.24001-5.90997-8.88-.51001-17.56999,1.27002-26,3.98999.25-.53998.32001-1.15002.11-1.71997-4.7-12.83002-9.39-25.65997-14.09-38.5l-6.99001-19.10999c-2.32001-6.32999-4.49001-12.73999-6.99001-19-2.11-5.28-5.75-10.64001-11.69-11.87-6.25-1.29999-11.68,2.92001-13.91,8.54999-2.27,5.72-1.34,12.59-.36,18.48999,1.07,6.45999,2.91,12.76001,4.77,19.03003,4.36,14.70001,8.71999,29.40002,13.07999,44.09003.45,1.53003,1.89,2.60999,3.53,2.25,1.48-.33002,2.7-1.98999,2.25-3.53003-3.61-12.15997-7.22-24.32001-10.82001-36.47998-1.78-5.98999-3.65-11.97-5.19-18.03-1.44-5.64999-2.68-11.51999-2.68-17.38,0-4.17999,1.15-10.5,6.23-11.29001,4.96001-.76999,7.95,4.95001,9.47,8.70001,2.28999,5.66,4.24001,11.48001,6.34,17.20999,2.16,5.91,4.32001,11.81998,6.49001,17.72,4.92999,13.47998,9.87,26.96002,14.8,40.42999.28999.78998.78,1.46997,1.42999,1.88-4.36,1.58002-8.64999,3.34998-12.85001,5.14001-3.07001,1.31-6.5,2.46002-8.86,4.92999-1.92999,2.02002-2.99001,4.60999-3.25,7.37-.53,5.59003,2.33,11.34998,6.61,14.83002,5.75999,4.67999,13.3,5.84003,20.3,7.53003,6.08,1.46997,13,3.81,15.89999,9.84998,1.64999,3.42999,6.88.65997,5.23-2.77002-2.63-5.47998-7.87-8.84998-13.39999-10.92999-5.57001-2.09998-11.53999-2.73999-17.18001-4.60999-4.73-1.57001-9.13-4.20001-10.86-8.78998-.78-2.04999-1-4.20001-.44-6.03998.64-2.09003,2.24001-3.25,4.46001-4.28003,6.14-2.84998,12.5-5.41998,18.91-7.56,6.34-2.12,12.97-3.83002,19.67-4.19,6.22-.33002,12.86.26001,18.56999,2.94,5.44,2.56,9,7.09998,10.49001,12.90002,1.89,7.34003,1.33,15.22998,1.00999,22.71997-.36,8.39001-1.08,16.75-2.16,25.08002-.2,1.58002,1.3,3.03003,2.81,3.09998,1.7.08002,2.89999-1.21997,3.10001-2.81,1.02-7.95001,1.73-15.92999,2.11-23.94.35001-7.45001.77-15.15002-.48-22.53998-1.17999-6.95001-4.38-13.31-10.22-17.46002l-.00995.00989Z"/><path class="cls-9" d="M173.08702,605.43873c-1.75-3.38-6.99001-.62-5.23,2.77002.96001,1.85999-3.03999,2.45001-4.14,2.46002-3.10001.03003-6.25-.34998-9.3-.89001-6.19-1.10999-12.21001-3.12-18.09-5.31-5.12-1.90002-11.15-3.71002-14.02-8.78003-2.63-4.64001-2.26-10.19.76-14.53998,3.84-5.54999,10.89001-6.90002,17.21-6.96002,3.8-.03998,4.11-5.95001.3-5.90997-7.75999.08002-15.94,1.78998-21.18,8-4.79,5.67999-6.08,13.39001-3.24,20.28003.96,2.32001,2.32,4.21997,3.95,5.79999-6.04,1.72998-11.11,6.15002-13.28,12.28998-2.62,7.41998-.39,15.57001,5.07,21.09003.86.87,1.79,1.65997,2.75,2.40997-3.34,2.57001-4.86,7.28003-4.12,11.51001,1.13,6.46002,6.86,11,11.74,14.77002,5.03,3.89001,10.46,7.28003,16.2,10.02002,5.35001,2.56,12.06,5.98999,18.14999,4.53998,6.09-1.44,10.91-7.5,10.53-13.82001-.10001-1.59003-1.08-3.02002-2.81-3.09998-1.46001-.07001-3.2,1.20001-3.10001,2.81.22,3.53998-1.88,7.02002-5.32001,8.17999-2.14999.72998-4.42.19-6.50999-.48999-2.41-.78003-4.77-1.75-7.07001-2.78998-4.71001-2.13-9.19-4.79999-13.42-7.77002-3.86-2.71002-8.3-5.75-10.96-9.72998-1.26-1.89001-2.09-4.07001-1.56-6.34998.42-1.81,1.49-3.34998,3.26-3.71997.3-.06.56-.16998.79-.28998,3.4,1.83002,7.03,3.28003,10.59,4.64001,4.46001,1.70001,8.92,3.38,13.37,5.08002,3.87,1.46997,7.89,3.04999,12.09,3.14001,4.74001.09998,9.00999-1.82001,11.94-5.56,2.63-3.34998,3.67999-7.79999,2.77-11.96997-.82001-3.71997-6.59-2.44-5.78,1.28003,1.19,5.40997-3.19,10.44-8.63,10.33002-3.49001-.07001-6.83-1.44-10.05-2.65997-3.75-1.41998-7.49001-2.84003-11.23-4.26001-10-3.78998-25.52-9.22998-23.76-22.71997.86-6.60999,6.78-11.65997,13.39-11.77002.63-.01001,1.23-.20001,1.74-.51001,1.98.97998,4.07001,1.81,6.16,2.59998,7.25999,2.75,14.66,5.15997,22.36,6.34998,4.23.65002,9.19,1.40997,13.28-.20001,4.00999-1.58002,6.50999-6.21997,4.41-10.26001l-.00999.00977Z"/><path class="cls-9" d="M155.04701,684.59871c6.88,6.37,12.25,14.34998,15.28,23.25.50999,1.51001,1.85001,2.62,3.53,2.25,1.42999-.32001,2.75999-2.01001,2.25-3.53003-3.37-9.90002-9.02-18.88-16.71001-25.98999-1.17-1.08002-2.95-1.29999-4.17999-.15997-1.10001,1.02002-1.34,3.09003-.16,4.17999h-.00999Z"/><path class="cls-11" d="M147.18701,704.41871s26.91,88.31,53.23,139.59003,46.36,70.78003,96.52,69.34998c58.20999-1.66998,59.72-4.35999,59.72-4.35999l31.31-108.60999-134.62-137.78998-106.16,41.82001v-.00006Z"/><path class="cls-9" d="M273.79703,909.80873c-4.92999-.67999-9.78-1.88-14.42999-3.65002-.62-.22998-1.22-.48999-1.84-.72998-.45999-.17999.70001.31.23999.09998-.17999-.08002-.35999-.15997-.54999-.23999-.32999-.15002-.66-.28998-.98999-.44-1.32001-.60999-2.62-1.25-3.89999-1.94-2.86-1.53998-5.62-3.28998-8.25-5.20001-.63-.46002-1.25-.91998-1.87-1.40002.7.53998-.36-.28998-.53999-.42999-.39999-.32001-.78999-.64001-1.17999-.96002-1.42999-1.17999-2.82001-2.40997-4.17-3.66998-3.03999-2.84003-5.89999-5.87-8.60001-9.03998-.7-.82001-1.39999-1.65997-2.08-2.5-.33-.40997-.66-.81-.98-1.21997-.16-.21002-.33-.41998-.49001-.62.02.02002-.73-.94-.39999-.51001-1.53-2-3.00999-4.03998-4.45-6.10999-3.10001-4.47998-5.99001-9.12-8.7-13.84998-8.61-15-16.22-30.58002-23.27-46.35999-7.64-17.09003-14.63-34.64001-20.85001-52.69-5.66-16.44-10.71001-33.17999-14.10001-50.25-.36-1.84003-.71001-3.67999-1.03-5.53003-.87,1.53998-1.75,3.08002-2.62,4.60999,9.17999-3.46002,18.3-7.04999,27.42-10.65002,10.59-4.19,21.16-8.40997,31.74001-12.63,9.33-3.71997,18.64999-7.44,28.00999-11.08002,5.50999-2.15002,11.03-4.45001,16.69-6.21002.3-.09003.60001-.19.89999-.26001.11-.03003.23-.04999.34-.08002.61-.19-.53.08002-.69.08002h.14999c-.67,0-1.33-.29999-1.75999-.46002.12.04999.22.15997.33.22998-.14-.09003-.99001-.81-.49001-.37.09.08002.19.15002.28.22998.24001.20001.48.40997.71001.62.63.56,1.25,1.13,1.86,1.71002,4.5,4.20001,8.88,8.53003,13.26999,12.84998,6.67999,6.57001,13.32999,13.16998,19.97,19.78003,7.87,7.83002,15.73001,15.66998,23.60001,23.52002,8.03,8.01001,16.06,16.02002,24.10001,24.01001,7.17999,7.14001,14.37,14.27002,21.59,21.35999,1.48999,1.46002,2.98001,2.91998,4.47,4.38,1.45001,1.41998,3.85999,1.44,5.29999,0s1.45001-3.88,0-5.29999c-6.89001-6.73999-13.73999-13.52002-20.59-20.31-8.01001-7.95001-16.01001-15.91998-24-23.89001-8.07001-8.03998-16.13-16.09003-24.20999-24.13-7.03-7-14.06-13.98999-21.12-20.96002-4.98001-4.91998-9.97-9.84003-15.04001-14.66998-1.38-1.32001-2.76001-2.64001-4.20001-3.90002-1.23001-1.08002-2.46001-2.22998-4.22-2.19-1.67999.04999-3.39999.79999-4.96001,1.34998-2.82001.98999-5.61,2.06-8.39999,3.12-8.71001,3.33002-17.37,6.78003-26.03,10.22998-10.52,4.17999-21.03999,8.39001-31.56,12.57001-9.81,3.90002-19.62,7.78003-29.47,11.56-1.99001.76001-3.98,1.52002-5.98,2.28003-2.03999.77002-2.99001,2.45001-2.62,4.60999,2.92,16.90997,7.7,33.48999,13.09,49.76001,6.12,18.46997,13.21001,36.62,20.97,54.46002,7.12,16.35999,14.83,32.5,23.50999,48.09998,8.98,16.15002,19.61,32.06,34.06999,43.83002,9.48,7.71997,20.45001,13.46997,32.53,15.76001,1.16.21997,2.32001.40997,3.48999.57001,1.92999.27002,4.12-.46997,4.60999-2.62.39999-1.77002-.54001-4.32001-2.62-4.60999h0l.01001-.0199Z"/></g></svg>