<svg xmlns="http://www.w3.org/2000/svg" width="47" height="47" viewBox="0 0 47 47"><g transform="translate(-2 -2)"><path d="M48.217,16.1H38.033V2.783A.783.783,0,0,0,37.25,2H13.75a.783.783,0,0,0-.783.783V16.1H2.783A.783.783,0,0,0,2,16.883V48.217A.783.783,0,0,0,2.783,49H48.217A.783.783,0,0,0,49,48.217V16.883A.783.783,0,0,0,48.217,16.1ZM3.567,17.667h9.4V47.433h-9.4ZM27.85,39.6v7.833h-4.7V39.6Zm8.617,7.833h-7.05V39.6h1.567V38.033H20.017V39.6h1.567v7.833h-7.05V3.567H36.467Zm10.967,0h-9.4V17.667h9.4Z" fill="#e4e4e4"/><path d="M50.783,30.267h4.7a.783.783,0,0,0,.783-.783v-4.7A.783.783,0,0,0,55.483,24h-4.7a.783.783,0,0,0-.783.783v4.7A.783.783,0,0,0,50.783,30.267Zm.783-4.7H54.7V28.7H51.567Z" transform="translate(-10.4 -4.767)" fill="#e4e4e4"/><path d="M50.783,40.267h4.7a.783.783,0,0,0,.783-.783v-4.7A.783.783,0,0,0,55.483,34h-4.7a.783.783,0,0,0-.783.783v4.7A.783.783,0,0,0,50.783,40.267Zm.783-4.7H54.7V38.7H51.567Z" transform="translate(-10.4 -6.933)" fill="#e4e4e4"/><path d="M50.783,50.267h4.7a.783.783,0,0,0,.783-.783v-4.7A.783.783,0,0,0,55.483,44h-4.7a.783.783,0,0,0-.783.783v4.7A.783.783,0,0,0,50.783,50.267Zm.783-4.7H54.7V48.7H51.567Z" transform="translate(-10.4 -9.1)" fill="#e4e4e4"/><path d="M11.483,24h-4.7A.783.783,0,0,0,6,24.783v4.7a.783.783,0,0,0,.783.783h4.7a.783.783,0,0,0,.783-.783v-4.7A.783.783,0,0,0,11.483,24ZM10.7,28.7H7.567V25.567H10.7Z" transform="translate(-0.867 -4.767)" fill="#e4e4e4"/><path d="M20.783,26.7h3.133a.783.783,0,0,0,.783-.783V22.783A.783.783,0,0,0,23.917,22H20.783a.783.783,0,0,0-.783.783v3.133A.783.783,0,0,0,20.783,26.7Zm.783-3.133h1.567v1.567H21.567Z" transform="translate(-3.9 -4.333)" fill="#e4e4e4"/><path d="M32.917,22H29.783a.783.783,0,0,0-.783.783v3.133a.783.783,0,0,0,.783.783h3.133a.783.783,0,0,0,.783-.783V22.783A.783.783,0,0,0,32.917,22Zm-.783,3.133H30.567V23.567h1.567Z" transform="translate(-5.85 -4.333)" fill="#e4e4e4"/><path d="M38,22.783v3.133a.783.783,0,0,0,.783.783h3.133a.783.783,0,0,0,.783-.783V22.783A.783.783,0,0,0,41.917,22H38.783A.783.783,0,0,0,38,22.783Zm1.567.783h1.567v1.567H39.567Z" transform="translate(-7.8 -4.333)" fill="#e4e4e4"/><path d="M20.783,34.7h3.133a.783.783,0,0,0,.783-.783V30.783A.783.783,0,0,0,23.917,30H20.783a.783.783,0,0,0-.783.783v3.133A.783.783,0,0,0,20.783,34.7Zm.783-3.133h1.567v1.567H21.567Z" transform="translate(-3.9 -6.067)" fill="#e4e4e4"/><path d="M32.917,30H29.783a.783.783,0,0,0-.783.783v3.133a.783.783,0,0,0,.783.783h3.133a.783.783,0,0,0,.783-.783V30.783A.783.783,0,0,0,32.917,30Zm-.783,3.133H30.567V31.567h1.567Z" transform="translate(-5.85 -6.067)" fill="#e4e4e4"/><path d="M41.917,30H38.783a.783.783,0,0,0-.783.783v3.133a.783.783,0,0,0,.783.783h3.133a.783.783,0,0,0,.783-.783V30.783A.783.783,0,0,0,41.917,30Zm-.783,3.133H39.567V31.567h1.567Z" transform="translate(-7.8 -6.067)" fill="#e4e4e4"/><path d="M20.783,42.7h3.133a.783.783,0,0,0,.783-.783V38.783A.783.783,0,0,0,23.917,38H20.783a.783.783,0,0,0-.783.783v3.133A.783.783,0,0,0,20.783,42.7Zm.783-3.133h1.567v1.567H21.567Z" transform="translate(-3.9 -7.8)" fill="#e4e4e4"/><path d="M32.917,38H29.783a.783.783,0,0,0-.783.783v3.133a.783.783,0,0,0,.783.783h3.133a.783.783,0,0,0,.783-.783V38.783A.783.783,0,0,0,32.917,38Zm-.783,3.133H30.567V39.567h1.567Z" transform="translate(-5.85 -7.8)" fill="#e4e4e4"/><path d="M41.917,38H38.783a.783.783,0,0,0-.783.783v3.133a.783.783,0,0,0,.783.783h3.133a.783.783,0,0,0,.783-.783V38.783A.783.783,0,0,0,41.917,38Zm-.783,3.133H39.567V39.567h1.567Z" transform="translate(-7.8 -7.8)" fill="#e4e4e4"/><path d="M11.483,34h-4.7A.783.783,0,0,0,6,34.783v4.7a.783.783,0,0,0,.783.783h4.7a.783.783,0,0,0,.783-.783v-4.7A.783.783,0,0,0,11.483,34ZM10.7,38.7H7.567V35.567H10.7Z" transform="translate(-0.867 -6.933)" fill="#e4e4e4"/><path d="M11.483,44h-4.7A.783.783,0,0,0,6,44.783v4.7a.783.783,0,0,0,.783.783h4.7a.783.783,0,0,0,.783-.783v-4.7A.783.783,0,0,0,11.483,44ZM10.7,48.7H7.567V45.567H10.7Z" transform="translate(-0.867 -9.1)" fill="#e4e4e4"/><path d="M25.783,13.833h2.35v2.35a.783.783,0,0,0,.783.783H32.05a.783.783,0,0,0,.783-.783v-2.35h2.35a.783.783,0,0,0,.783-.783V9.917a.783.783,0,0,0-.783-.783h-2.35V6.783A.783.783,0,0,0,32.05,6H28.917a.783.783,0,0,0-.783.783v2.35h-2.35A.783.783,0,0,0,25,9.917V13.05A.783.783,0,0,0,25.783,13.833Zm.783-3.133h2.35a.783.783,0,0,0,.783-.783V7.567h1.567v2.35a.783.783,0,0,0,.783.783H34.4v1.567H32.05a.783.783,0,0,0-.783.783V15.4H29.7V13.05a.783.783,0,0,0-.783-.783h-2.35Z" transform="translate(-4.983 -0.867)" fill="#e4e4e4"/><path d="M42,56h1.567v1.567H42Z" transform="translate(-8.667 -11.7)" fill="#e4e4e4"/><path d="M42,52h1.567v1.567H42Z" transform="translate(-8.667 -10.833)" fill="#e4e4e4"/><path d="M42,48h1.567v1.567H42Z" transform="translate(-8.667 -9.967)" fill="#e4e4e4"/></g></svg>