<?xml version="1.0" encoding="UTF-8"?><svg xmlns="http://www.w3.org/2000/svg" xmlns:xlink="http://www.w3.org/1999/xlink" viewBox="0 0 566.14959 476.8394"><defs><style>.cls-1{fill:#5c6a6b;}.cls-1,.cls-2,.cls-3,.cls-4,.cls-5,.cls-6,.cls-7,.cls-8,.cls-9,.cls-10,.cls-11,.cls-12,.cls-13,.cls-14,.cls-15,.cls-16,.cls-17,.cls-18,.cls-19,.cls-20,.cls-21,.cls-22,.cls-23,.cls-24,.cls-25,.cls-26,.cls-27,.cls-28,.cls-29,.cls-30,.cls-31,.cls-32,.cls-33,.cls-34,.cls-35,.cls-36,.cls-37,.cls-38,.cls-39,.cls-40{stroke-width:0px;}.cls-2{fill:#266ca7;}.cls-3{fill:#ecebe7;}.cls-4{fill:#c9d5db;}.cls-5{fill:#bec9cf;}.cls-6{fill:#fffffa;}.cls-7{fill:#343536;}.cls-8{fill:#5f778a;}.cls-9{fill:#2e3a42;}.cls-41{isolation:isolate;}.cls-10{fill:#7fc761;}.cls-12{opacity:.07;}.cls-12,.cls-42,.cls-28,.cls-30{mix-blend-mode:multiply;}.cls-13{fill:none;}.cls-14{fill:#a47355;}.cls-42,.cls-30{opacity:.15;}.cls-15{fill:#a0c867;}.cls-16{fill:#bcbdc1;}.cls-17{fill:#4b90cb;}.cls-18{fill:#7e9191;}.cls-19{fill:#c4c6c3;}.cls-20{fill:#a5b4b9;}.cls-21,.cls-27{fill:#fff;}.cls-22{fill:#959699;}.cls-23{fill:#e2e2da;}.cls-24{fill:#73a346;}.cls-43{clip-path:url(#clippath);}.cls-25{fill:#d4d0c8;}.cls-26{fill:#e3e6e2;}.cls-27{opacity:.75;}.cls-28{fill:#e3e3e3;}.cls-29{fill:#3c4b57;}.cls-31{fill:#212626;}.cls-32{fill:#738fa4;}.cls-33{fill:#7cb445;}.cls-34{fill:#232829;}.cls-35{fill:#84afdc;}.cls-36{fill:#d4d0c6;}.cls-37{fill:#5c5d58;}.cls-38{fill:#98a9b0;}.cls-39{fill:#ebe0e6;}.cls-40{fill:#495b69;}</style><clipPath id="clippath"><rect class="cls-13" x="321.30059" y="347.7348" width="71.1669" height="69.1291"/></clipPath></defs><g class="cls-41"><g id="_レイヤー_2"><g id="Layer_1"><polygon class="cls-10" points="266.36219 149.4924 0 303.5723 105.2785 364.418 182.98439 319.4314 266.5028 367.6507 188.61499 412.5897 299.78739 476.8394 566.14959 322.7596 266.36219 149.4924"/><polygon class="cls-28" points="267.85649 445.2333 274.69469 445.2333 283.95609 439.8862 283.95609 426.7864 275.90629 422.1389 269.47809 437.6709 269.47809 444.2971 267.85649 445.2333"/><polygon class="cls-37" points="266.50289 367.651 188.61449 412.5873 109.2486 366.7111 105.2784 364.4189 182.98799 319.4337 266.50289 367.651"/><polygon class="cls-39" points="187.06169 321.7857 109.2486 366.7111 105.2784 364.4189 182.98799 319.4337 187.06169 321.7857"/><polygon class="cls-39" points="266.50289 367.651 188.6898 412.5765 184.71959 410.2843 262.42919 365.2991 266.50289 367.651"/><polygon class="cls-18" points="285.30529 378.5064 182.98439 319.4314 217.4798 299.5155 319.80069 358.5905 285.30529 378.5064"/><polygon class="cls-3" points="135.2732 74.6771 383.20469 217.8204 383.20469 395.1968 135.2732 252.0535 135.2732 74.6771"/><polygon class="cls-1" points="308.86939 438.1143 243.27899 381.059 300.99809 347.7348 383.20469 395.1968 308.86939 438.1143"/><polygon class="cls-34" points="251.22919 381.5181 305.3708 350.2594 378.83199 392.6722 309.84129 432.504 251.22919 381.5181"/><polygon class="cls-1" points="60.938 294.971 159.7606 332.8396 217.4798 299.5155 135.2732 252.0535 60.938 294.971"/><polygon class="cls-34" points="139.6459 254.5781 213.10709 296.9909 158.9655 328.2496 70.6552 294.4099 139.6459 254.5781"/><polygon class="cls-6" points="60.938 224.2834 159.7606 262.1521 217.4798 228.8279 135.2732 181.3659 60.938 224.2834"/><polygon class="cls-16" points="139.6459 183.8905 213.10709 226.3033 158.9655 257.562 70.6552 223.7223 139.6459 183.8905"/><polygon class="cls-31" points="285.30529 307.8188 182.98439 248.7438 217.4798 228.8279 319.80069 287.9029 285.30529 307.8188"/><polygon class="cls-21" points="512.54929 143.1433 264.6178 0 135.2732 74.6771 383.20469 217.8204 512.54929 143.1433"/><polygon class="cls-16" points="154.513 74.6772 264.6178 11.1081 493.30939 143.1433 383.20459 206.7123 154.513 74.6772"/><polygon class="cls-5" points="308.86939 367.4267 308.86939 438.1143 383.20469 395.1968 383.20469 324.5092 308.86939 367.4267"/><polygon class="cls-3" points="60.938 224.2834 60.938 294.971 159.7606 332.8396 159.7606 262.1521 60.938 224.2834"/><polygon class="cls-38" points="217.4798 228.8279 217.4798 299.5155 159.7606 332.8396 159.7606 262.1521 217.4798 228.8279"/><polygon class="cls-31" points="182.98439 319.4314 182.98439 248.7438 266.5028 296.9631 266.5028 367.6507 182.98439 319.4314"/><polygon class="cls-32" points="182.98439 319.4314 182.98439 248.7437 266.5028 296.9631 266.5028 367.6508 182.98439 319.4314"/><polygon class="cls-32" points="252.3728 359.3696 252.3728 288.9284 196.77669 256.83 196.77669 327.2712 252.3728 359.3696"/><polygon class="cls-40" points="197.98449 327.9685 196.77669 327.2712 196.77669 256.8299 197.98449 257.5272 197.98449 327.9685"/><polygon class="cls-40" points="252.71049 359.5646 251.50269 358.8673 251.50269 288.426 252.71049 289.1233 252.71049 359.5646"/><polygon class="cls-40" points="182.98439 250.1384 182.98439 248.7437 266.5028 296.9631 266.5028 298.3577 182.98439 250.1384"/><polygon class="cls-40" points="183.0498 319.4692 183.0498 318.0745 266.4808 366.2434 266.4808 367.6381 183.0498 319.4692"/><polygon class="cls-40" points="184.09869 320.0748 182.98439 319.4314 182.98439 248.7437 184.09869 249.3871 184.09869 320.0748"/><polygon class="cls-40" points="266.4808 367.6381 265.36649 366.9947 265.36649 296.307 266.4808 296.9504 266.4808 367.6381"/><polygon class="cls-40" points="225.97869 342.8596 223.50909 341.4337 223.50909 294.7192 225.97869 296.145 225.97869 342.8596"/><polygon class="cls-9" points="224.94639 342.144 224.54139 341.9102 224.54139 295.3152 224.94639 295.549 224.94639 342.144"/><polygon class="cls-29" points="184.92189 319.1554 184.09869 318.6801 184.09869 250.7817 184.92189 251.257 184.92189 319.1554"/><polygon class="cls-29" points="198.80769 327.1723 197.98449 326.6971 197.98449 258.7987 198.80769 259.274 198.80769 327.1723"/><polygon class="cls-29" points="253.53369 358.7684 252.71049 358.2932 252.71049 290.3948 253.53369 290.8701 253.53369 358.7684"/><polygon class="cls-29" points="226.80189 343.3348 225.97869 342.8596 225.97869 296.145 226.80189 296.6203 226.80189 343.3348"/><polygon class="cls-40" points="197.9848 279.9827 197.9848 277.9701 251.50299 308.8689 251.50299 310.8815 197.9848 279.9827"/><polygon class="cls-8" points="196.77669 325.0241 184.92189 318.1798 184.09869 318.6801 196.77669 325.9997 196.77669 325.0241"/><polygon class="cls-8" points="223.50909 340.4581 198.80769 326.1967 197.98449 326.6971 223.50909 341.4337 223.50909 340.4581"/><polygon class="cls-8" points="251.50299 307.8932 198.80799 277.4697 197.9848 277.9701 251.50299 308.8689 251.50299 307.8932"/><polygon class="cls-8" points="251.50269 356.6202 226.80189 342.3592 225.97869 342.8596 251.50269 357.5958 251.50269 356.6202"/><polygon class="cls-8" points="265.38839 364.6371 253.53369 357.7928 252.71049 358.2932 265.38839 365.6128 265.38839 364.6371"/><polygon class="cls-6" points="308.86939 367.4267 243.27899 310.3714 300.99809 277.0472 383.20469 324.5092 308.86939 367.4267"/><polygon class="cls-16" points="251.22919 310.8305 305.3708 279.5718 378.83199 321.9846 309.84129 361.8164 251.22919 310.8305"/><polygon class="cls-5" points="70.6552 223.7223 77.6495 226.4024 139.6459 190.6088 139.6459 183.8905 70.6552 223.7223"/><polygon class="cls-3" points="139.6459 183.8905 139.6459 190.6088 207.2888 229.6625 213.10709 226.3033 139.6459 183.8905"/><polygon class="cls-5" points="251.22919 310.8305 255.87149 314.8686 305.3708 286.2901 305.3708 279.5718 251.22919 310.8305"/><polygon class="cls-3" points="305.3708 279.5718 305.3708 286.2901 373.01369 325.3438 378.83199 321.9846 305.3708 279.5718"/><polygon class="cls-16" points="165.459 238.4461 208.89039 213.4827 305.4168 269.2122 262.08199 294.2313 165.459 238.4461"/><polygon class="cls-21" points="311.11019 265.9249 302.4188 270.9428 302.4188 270.9428 262.08199 294.2313 159.6512 235.093 208.68009 206.7869 199.98899 201.769 142.2699 235.0932 262.08149 304.2664 319.80069 270.9423 311.11019 265.9249"/><polygon class="cls-5" points="159.6512 235.093 165.459 238.4461 208.89039 213.4827 208.89039 206.7765 159.6512 235.093"/><polygon class="cls-5" points="319.80069 270.9423 319.80069 280.0308 262.08149 313.3549 262.08149 304.2665 319.80069 270.9423"/><polygon class="cls-3" points="262.08149 313.3549 142.2699 244.1816 142.2699 235.0932 262.08149 304.2665 262.08149 313.3549"/><polygon class="cls-23" points="264.6178 11.1081 264.6178 22.2162 483.68959 148.6973 493.30939 143.1433 264.6178 11.1081"/><polygon class="cls-5" points="154.513 74.6771 164.1328 80.2312 264.6178 22.2162 264.6178 11.1081 154.513 74.6771"/><polygon class="cls-28" points="264.6178 11.1081 273.61659 27.4117 173.7607 85.7898 154.513 74.6771 264.6178 11.1081"/><polygon class="cls-3" points="243.27899 310.3714 243.27899 381.059 308.86939 438.1143 308.86939 367.4267 243.27899 310.3714"/><polygon class="cls-28" points="139.6459 183.8905 144.8877 193.6352 83.9321 228.8279 70.6552 223.7223 139.6459 183.8905"/><polygon class="cls-28" points="319.80069 270.9423 348.77909 311.352 290.94109 345.3754 251.22919 310.8305 254.46799 308.9425 262.08149 313.3549 262.08149 304.2665 319.80069 270.9423"/><polygon class="cls-28" points="210.42629 272.5815 224.58329 272.5815 216.04569 267.6523 210.42629 272.5815"/><polygon class="cls-35" points="201.73509 233.3243 207.35449 230.08 216.04569 235.0978 210.42629 238.3422 201.73509 233.3243"/><polygon class="cls-2" points="220.90689 256.4949 226.52629 253.2506 226.52629 263.2863 220.90689 266.5306 220.90689 256.4949"/><polygon class="cls-2" points="210.42629 250.444 216.04569 247.1996 216.04569 235.0978 210.42629 238.3422 210.42629 250.444"/><polygon class="cls-35" points="220.90689 256.4949 226.52629 253.2506 216.04569 247.1996 210.42629 250.444 220.90689 256.4949"/><polygon class="cls-2" points="210.42629 272.5815 216.04569 269.3371 216.04569 263.724 210.42629 260.4796 210.42629 272.5815"/><polygon class="cls-35" points="191.25459 239.3752 196.87399 236.1309 201.73509 238.9374 201.73509 245.4262 191.25459 239.3752"/><polygon class="cls-21" points="220.90689 256.4949 210.42629 250.444 210.42629 238.3422 201.73509 233.3243 201.73509 245.4261 191.25459 239.3752 191.25459 249.4109 201.73509 255.4618 201.73509 267.5636 210.42629 272.5815 210.42629 260.4796 220.90689 266.5306 220.90689 256.4949"/><polygon class="cls-17" points="202.6758 267.0206 202.6758 254.9187 192.19559 248.8679 192.19559 241.0047 202.6758 247.0555 202.6758 234.9535 209.48559 238.8852 209.48559 250.9871 219.96619 257.0381 219.96619 264.9013 209.48559 258.8503 209.48559 270.9522 202.6758 267.0206"/><polygon class="cls-5" points="512.54929 143.1431 512.54929 320.5198 383.20469 395.197 383.20469 217.8203 512.54929 143.1431"/><polygon class="cls-22" points="497.23359 192.1804 402.2128 247.0407 402.2128 228.573 497.23359 173.7127 497.23359 192.1804"/><polygon class="cls-4" points="402.2128 243.8492 402.2128 247.0407 497.23359 192.1804 494.46959 190.5846 402.2128 243.8492"/><polygon class="cls-20" points="494.46959 175.3085 494.46959 190.5846 497.23359 192.1804 497.23359 173.7127 494.46959 175.3085"/><g class="cls-42"><polygon class="cls-11" points="495.85159 191.3825 402.2128 245.4449 402.2128 228.573 495.85159 174.5106 495.85159 191.3825"/></g><polygon class="cls-7" points="496.1808 191.5728 402.21289 245.8253 402.21289 245.0646 495.52299 191.192 495.52299 174.7001 496.1808 174.3203 496.1808 191.5728"/><polygon class="cls-7" points="464.46829 209.5017 463.81049 209.8815 463.81049 193.0094 464.46829 192.6296 464.46829 209.5017"/><polygon class="cls-7" points="432.75669 227.8104 432.09889 228.1902 432.09889 211.3181 432.75669 210.9383 432.75669 227.8104"/><polygon class="cls-22" points="497.23359 230.2246 402.2128 285.0849 402.2128 266.6172 497.23359 211.7568 497.23359 230.2246"/><polygon class="cls-4" points="402.2128 281.8933 402.2128 285.0849 497.23359 230.2246 494.46959 228.6288 402.2128 281.8933"/><polygon class="cls-20" points="494.46959 213.3527 494.46959 228.6288 497.23359 230.2246 497.23359 211.7569 494.46959 213.3527"/><g class="cls-42"><polygon class="cls-11" points="495.85159 229.4267 402.2128 283.4891 402.2128 266.6172 495.85159 212.5548 495.85159 229.4267"/></g><polygon class="cls-7" points="496.1808 229.6171 402.21289 283.8695 402.21289 283.1089 495.52299 229.2363 495.52299 212.7444 496.1808 212.3646 496.1808 229.6171"/><polygon class="cls-7" points="464.46829 247.546 463.81049 247.9258 463.81049 231.0537 464.46829 230.6739 464.46829 247.546"/><polygon class="cls-7" points="432.75669 265.8547 432.09889 266.2345 432.09889 249.3624 432.75669 248.9826 432.75669 265.8547"/><polygon class="cls-22" points="497.23359 268.2687 402.2128 323.129 402.2128 304.6613 497.23359 249.801 497.23359 268.2687"/><polygon class="cls-4" points="402.21269 319.9374 402.21269 323.129 497.23359 268.2687 494.46959 266.6729 402.21269 319.9374"/><polygon class="cls-20" points="494.46959 251.3968 494.46959 266.6729 497.23359 268.2687 497.23359 249.801 494.46959 251.3968"/><g class="cls-42"><polygon class="cls-11" points="495.85159 267.4708 402.2128 321.5332 402.2128 304.6613 495.85159 250.5989 495.85159 267.4708"/></g><polygon class="cls-7" points="496.1808 267.6603 402.21289 321.9127 402.21289 321.1531 495.52299 267.2805 495.52299 250.7881 496.1808 250.4083 496.1808 267.6603"/><polygon class="cls-7" points="464.46829 285.5897 463.81049 285.9695 463.81049 269.0974 464.46829 268.7176 464.46829 285.5897"/><polygon class="cls-7" points="432.75669 303.8984 432.09889 304.2782 432.09889 287.4061 432.75669 287.0263 432.75669 303.8984"/><polygon class="cls-22" points="497.23359 306.3129 402.2128 361.1732 402.2128 342.7055 497.23359 287.8452 497.23359 306.3129"/><polygon class="cls-4" points="402.2128 357.9817 402.2128 361.1732 497.23359 306.3129 494.46959 304.7171 402.2128 357.9817"/><polygon class="cls-20" points="494.46959 289.441 494.46959 304.7171 497.23359 306.3129 497.23359 287.8452 494.46959 289.441"/><polygon class="cls-30" points="495.85159 305.515 402.2128 359.5774 402.2128 342.7055 495.85159 288.6431 495.85159 305.515"/><polygon class="cls-7" points="402.2128 359.9863 402.2128 359.1685 495.49719 305.3101 495.49719 288.8477 496.27049 288.4012 496.20589 305.7196 496.02869 305.8214 402.2128 359.9863"/><polygon class="cls-7" points="464.49399 323.8235 463.78529 323.8235 463.78529 307.1566 464.49399 306.7474 464.49399 323.8235"/><polygon class="cls-7" points="432.78209 342.1333 432.07339 342.1333 432.07339 325.4654 432.78209 325.0563 432.78209 342.1333"/><g class="cls-43"><polygon class="cls-22" points="385.77819 370.6617 290.75729 425.522 290.75729 407.0543 385.77819 352.194 385.77819 370.6617"/><polygon class="cls-4" points="290.75729 422.3304 290.75729 425.522 385.77819 370.6617 383.01419 369.0659 290.75729 422.3304"/><polygon class="cls-20" points="383.01419 353.7898 383.01419 369.0659 385.77819 370.6617 385.77819 352.194 383.01419 353.7898"/><g class="cls-42"><polygon class="cls-11" points="384.39619 369.8638 290.75729 423.9262 290.75729 407.0543 384.39619 352.9919 384.39619 369.8638"/></g><polygon class="cls-7" points="384.72469 370.0538 290.75769 424.3057 290.75769 423.5461 384.06689 369.674 384.06689 353.1817 384.72469 352.8019 384.72469 370.0538"/><polygon class="cls-7" points="353.01309 387.9827 352.35529 388.3625 352.35529 371.4904 353.01309 371.1106 353.01309 387.9827"/><polygon class="cls-7" points="321.30059 406.292 320.6428 406.6718 320.6428 389.7996 321.30059 389.4198 321.30059 406.292"/></g><polygon class="cls-36" points="154.4235 164.0398 364.05459 285.0704 364.05459 266.6026 154.4235 145.572 154.4235 164.0398"/><polygon class="cls-21" points="364.05439 281.8785 364.05439 285.0701 154.4232 164.0395 157.1872 162.4437 364.05439 281.8785"/><polygon class="cls-5" points="157.1872 147.1675 157.1872 162.4437 154.4232 164.0395 154.4232 145.5717 157.1872 147.1675"/><polygon class="cls-7" points="364.05439 283.8546 155.476 163.4318 155.476 146.1798 156.1338 146.5596 156.1338 163.052 364.05439 283.095 364.05439 283.8546"/><polygon class="cls-7" points="330.7478 264.2453 330.08999 263.8655 330.08999 246.9933 330.7478 247.3731 330.7478 264.2453"/><polygon class="cls-7" points="295.82519 244.0827 295.16739 243.7029 295.16739 226.8307 295.82519 227.2105 295.82519 244.0827"/><polygon class="cls-7" points="260.90259 223.9201 260.2448 223.5403 260.2448 206.6681 260.90259 207.0479 260.90259 223.9201"/><polygon class="cls-7" points="225.97999 203.7575 225.32209 203.3777 225.32209 186.5055 225.97999 186.8853 225.97999 203.7575"/><polygon class="cls-7" points="191.05729 183.5949 190.39949 183.2151 190.39949 166.343 191.05729 166.7228 191.05729 183.5949"/><polygon class="cls-30" points="155.8055 163.2419 364.05459 283.4746 364.05459 266.6026 155.8055 146.3699 155.8055 163.2419"/><polygon class="cls-25" points="154.4235 127.3783 364.05459 248.4089 364.05459 229.9411 154.4235 108.9105 154.4235 127.3783"/><polygon class="cls-21" points="364.05439 245.217 364.05439 248.4086 154.4232 127.378 157.1872 125.7822 364.05439 245.217"/><polygon class="cls-5" points="157.1872 110.506 157.1872 125.7822 154.4232 127.378 154.4232 108.9102 157.1872 110.506"/><polygon class="cls-7" points="364.05439 247.1931 155.476 126.7703 155.476 109.5183 156.1338 109.8981 156.1338 126.3905 364.05439 246.4335 364.05439 247.1931"/><polygon class="cls-7" points="330.7478 227.5838 330.08999 227.204 330.08999 210.3318 330.7478 210.7116 330.7478 227.5838"/><polygon class="cls-7" points="295.82519 207.4212 295.16739 207.0414 295.16739 190.1692 295.82519 190.549 295.82519 207.4212"/><polygon class="cls-7" points="260.90259 187.2586 260.2448 186.8788 260.2448 170.0066 260.90259 170.3864 260.90259 187.2586"/><polygon class="cls-7" points="225.97999 167.096 225.32209 166.7162 225.32209 149.844 225.97999 150.2238 225.97999 167.096"/><polygon class="cls-7" points="191.05729 146.9334 190.39949 146.5536 190.39949 129.6815 191.05729 130.0612 191.05729 146.9334"/><polygon class="cls-30" points="155.8055 126.5804 364.05459 246.8131 364.05459 229.9411 155.8055 109.7084 155.8055 126.5804"/><polygon class="cls-27" points="210.42629 250.444 216.04569 247.1996 216.04569 246.5797 210.42629 249.824 210.42629 250.444"/><polygon class="cls-27" points="210.42629 238.9622 216.04569 235.7178 216.04569 235.0978 210.42629 238.3422 210.42629 238.9622"/><polygon class="cls-27" points="220.90689 257.1149 226.52629 253.8705 226.52629 253.2506 220.90689 256.4949 220.90689 257.1149"/><polygon class="cls-27" points="220.90689 266.5306 226.52629 263.2862 226.52629 262.6662 220.90689 265.9106 220.90689 266.5306"/><polygon class="cls-27" points="210.42629 250.444 210.81059 250.6704 216.43399 247.4238 216.04569 247.1996 210.42629 250.444"/><polygon class="cls-27" points="210.03809 238.1158 210.42239 238.3422 216.04569 235.0956 215.65749 234.8714 210.03809 238.1158"/><polygon class="cls-27" points="201.73509 233.3243 202.11939 233.5508 207.7428 230.3041 207.35449 230.08 201.73509 233.3243"/><polygon class="cls-27" points="191.25459 239.3752 191.63889 239.6016 197.26229 236.355 196.87399 236.1309 191.25459 239.3752"/><polygon class="cls-27" points="220.51859 256.2685 220.90289 256.4949 226.52629 253.2483 226.13799 253.0242 220.51859 256.2685"/><polygon class="cls-27" points="226.52629 253.8705 225.91699 254.2223 225.91699 263.018 226.52629 262.6662 226.52629 253.8705"/><polygon class="cls-27" points="216.04569 235.7162 215.43649 236.068 215.43649 246.9319 216.04569 246.5802 216.04569 235.7162"/><polygon class="cls-27" points="216.04569 247.648 225.74589 253.2506 226.13799 253.0242 216.43399 247.4238 216.04569 247.648"/><polygon class="cls-27" points="207.35449 230.5283 215.26529 235.0978 215.65749 234.8714 207.7428 230.3041 207.35449 230.5283"/><polygon class="cls-27" points="196.85319 236.5937 201.73509 239.4137 201.73509 238.9374 197.24149 236.3695 196.85319 236.5937"/><path class="cls-17" d="m219.1168,137.8321l-.756,2.7086-2.48521-1.4364,3.24121-10.3746,3.14649,1.8166,3.2886,14.1455-2.5807-1.4897-.8181-3.617-3.03629-1.753Zm2.69019-.5178l-.6606-2.9779c-.1893-.8358-.3779-1.8536-.5355-2.6717l-.031-.0178c-.1576.6362-.31509,1.472-.4882,2.08l-.6287,2.2338,2.344,1.3536Z"/><path class="cls-17" d="m235.94129,146.0025c-.0473-1.4986-.0939-3.3064-.0939-5.086l-.0474-.0266c-.3306,1.3713-.7714,2.861-1.1797,4.0593l-1.29,4.0326-1.8729-1.0799-1.1331-5.3951c-.3462-1.6376-.7079-3.5904-.9601-5.333l-.0311-.0178c-.0621,1.6154-.1095,3.4779-.1886,4.9588l-.1886,4.5415-2.219-1.2811.6768-11.8539,3.1939,1.8432,1.0385,4.6881c.3306,1.608.6612,3.324.8972,4.8966l.0473.0281c.2988-1.2441.6605-2.6525,1.0067-3.8167l1.1324-3.4158,3.1318,1.8077.5814,12.5818-2.344-1.3536-.1576-4.7782Z"/><path class="cls-17" d="m240.29209,141.1206c.62871.2175,1.9031.8433,3.0992,1.5341,1.463.8447,2.3603,1.5267,3.131,2.4986.7397.8817,1.2744,2.0267,1.2744,3.1347,0,1.0903-.5503,1.7886-1.7463,1.6066v.037c1.2116,1.0814,2.1088,2.6524,2.1088,4.2339,0,1.108-.4409,1.7249-1.1021,1.9616-.7708.2633-2.0607-.0814-4.1688-1.2989-1.18049-.682-2.0622-1.2811-2.5962-1.6805v-12.0271Zm2.3758,6.0594l.7862.4542c1.2582.7263,1.9358.5163,1.9358-.3921,0-.926-.614-1.7707-1.6998-2.398-.51929-.3003-.8181-.4349-1.0222-.5177v2.8536Zm0,5.4321c.2352.1717.5192.3344.9275.5711,1.0859.6272,2.0459.7086,2.0459-.5814,0-1.2353-.96-2.2797-2.1554-2.9705l-.818-.4719v3.4527Z"/><path class="cls-17" d="m252.19189,147.8265v7.0505c0,2.1066.6923,3.5785,1.9194,4.2871,1.2582.7264,1.95051.108,1.95051-2.0533v-7.0505l2.39209,1.3817v6.8686c0,3.7782-1.6524,4.6229-4.4217,3.0237-2.6747-1.5444-4.248-4.1599-4.248-8.0668v-6.8316l2.4077,1.3906Z"/><path class="cls-17" d="m260.53529,152.6447l2.4084,1.3891v9.9204l4.21611,2.435v2.3256l-6.62451-3.8241v-12.246Z"/><path class="cls-17" d="m271.14519,167.8715l-.7545,2.7072-2.4868-1.4349,3.2413-10.3746,3.1465,1.8166,3.2886,14.1454-2.58-1.4911-.8181-3.6155-3.037-1.7531Zm2.6909-.5177l-.66129-2.9794c-.18791-.8358-.37721-1.8522-.53551-2.6717l-.0311-.0178c-.1568.6376-.3151,1.472-.4867,2.0815l-.6302,2.2338,2.3448,1.3536Z"/><path class="cls-17" d="m279.00189,175.5508v-12.246l2.8004,1.6169,2.2028,5.7606c.6302,1.6539,1.2589,3.543,1.7308,5.1969l.0473.0266c-.1568-1.7071-.2041-3.3891-.2041-5.2235v-3.58l2.20271,1.2722v12.246l-2.51781-1.4542-2.2649-6.0313c-.6302-1.6716-1.3225-3.6525-1.8418-5.3862l-.0473-.0104c.0636,1.6539.0947,3.398.0947,5.3966v3.688l-2.2028-1.2722Z"/><path class="cls-17" d="m297.65199,185.9742c-.4394,0-1.4305-.3003-2.722-1.0444-3.6658-2.1169-5.5535-5.8419-5.5535-9.3302,0-4.1791,2.58-5.015,5.7902-3.1613,1.2426.7174,2.1864,1.5533,2.6125,2.0533l-.4882,1.9172c-.48819-.5178-1.16419-1.1272-2.0148-1.6169-1.9025-1.0992-3.3818-.6272-3.3818,2.0992,0,2.4512,1.25741,4.722,3.398,5.9573.72341.4186,1.5267.7012,1.9986.7544l.361,2.3714Z"/><path class="cls-17" d="m305.5398,185.6961l-3.901-2.253v2.9069l4.35809,2.5163v2.2708l-6.765-3.9069v-12.246l6.5446,3.7797v2.2723l-4.13769-2.3892v2.543l3.901,2.2516v2.2545Z"/><polygon class="cls-36" points="72.8875 286.7531 72.8875 241.6598 87.8722 247.193 87.8722 292.2868 72.8875 286.7531"/><polygon class="cls-5" points="75.4852 242.619 72.8875 241.6598 72.8875 286.7531 75.4852 284.669 75.4852 242.619"/><polygon class="cls-21" points="75.4852 284.669 72.8875 286.7531 87.8722 292.2868 87.8722 289.243 75.4852 284.669"/><polygon class="cls-30" points="74.1864 242.1394 74.1864 285.7111 87.8722 290.916 87.8722 247.193 74.1864 242.1394"/><polygon class="cls-7" points="87.8722 291.3496 73.8063 285.9734 73.8063 241.9991 74.5669 242.2799 74.5669 285.4493 87.8722 290.5093 87.8722 291.3496"/><polygon class="cls-36" points="102.857 297.8434 102.857 252.7501 117.8416 258.2832 117.8416 303.3771 102.857 297.8434"/><polygon class="cls-5" points="105.4547 253.7093 102.857 252.7501 102.857 297.8434 105.4547 295.7593 105.4547 253.7093"/><polygon class="cls-21" points="105.4547 295.7593 102.857 297.8434 117.8416 303.3771 117.8416 300.3333 105.4547 295.7593"/><polygon class="cls-30" points="104.1558 253.2297 104.1558 296.8014 117.8416 302.0063 117.8416 258.2832 104.1558 253.2297"/><polygon class="cls-7" points="117.8416 302.4399 103.7757 297.0637 103.7757 253.0894 104.5364 253.3702 104.5364 296.5396 117.8416 301.5996 117.8416 302.4399"/><polygon class="cls-36" points="132.8264 308.9337 132.8264 263.8404 147.8111 269.3735 147.8111 314.4674 132.8264 308.9337"/><polygon class="cls-5" points="135.4241 264.7996 132.8264 263.8404 132.8264 308.9337 135.4241 306.8496 135.4241 264.7996"/><polygon class="cls-21" points="135.4241 306.8496 132.8264 308.9337 147.811 314.4674 147.811 311.4236 135.4241 306.8496"/><polygon class="cls-30" points="134.1219 264.3309 134.1219 307.9025 147.8077 313.1075 147.8077 269.3844 134.1219 264.3309"/><polygon class="cls-7" points="147.811 313.5302 133.7451 308.154 133.7451 264.1797 134.5058 264.4605 134.5058 307.6299 147.8111 312.6899 147.811 313.5302"/><polygon class="cls-2" points="276.07419 438.1896 273.31519 439.7825 273.31519 410.337 276.07419 408.744 276.07419 438.1896"/><polygon class="cls-35" points="276.07419 408.8289 273.31519 410.4218 220.79499 380.0993 223.55399 378.5064 276.07419 408.8289"/><polygon class="cls-11" points="271.4598 347.8307 280.75599 355.9418 280.75599 400.712 271.4598 392.6009 271.4598 347.8307"/><polygon class="cls-11" points="289.86359 363.826 299.1598 371.9371 299.1598 416.7074 289.86359 408.5963 289.86359 363.826"/><polygon class="cls-36" points="253.05599 331.8353 262.35219 339.9464 262.35219 384.7167 253.05599 376.6056 253.05599 331.8353"/><polygon class="cls-5" points="256.47799 334.821 253.05599 331.8353 253.05599 376.6056 256.47799 375.5829 256.47799 334.821"/><polygon class="cls-21" points="256.47799 375.5829 253.05599 376.6056 262.35219 384.7167 262.35219 380.7657 256.47799 375.5829"/><polygon class="cls-30" points="254.76699 333.3282 254.76699 376.0942 262.35219 382.9157 262.35219 339.9464 254.76699 333.3282"/><polygon class="cls-7" points="262.35219 383.4522 254.38689 376.264 254.38689 332.993 255.14749 333.6602 255.14749 375.9245 262.35219 382.4042 262.35219 383.4522"/><polygon class="cls-36" points="271.42589 347.8021 280.72209 355.9133 280.72209 400.6835 271.42589 392.5724 271.42589 347.8021"/><polygon class="cls-5" points="274.8478 350.7879 271.42589 347.8021 271.42589 392.5724 274.8478 391.5497 274.8478 350.7879"/><polygon class="cls-21" points="274.8478 391.5497 271.42589 392.5724 280.72199 400.6835 280.72199 396.7325 274.8478 391.5497"/><polygon class="cls-30" points="273.1368 349.295 273.1368 392.0611 280.72199 398.8825 280.72209 355.9133 273.1368 349.295"/><polygon class="cls-7" points="280.72199 399.419 272.75669 392.2308 272.75669 348.9598 273.51739 349.627 273.51739 391.8913 280.72199 398.371 280.72199 399.419"/><polygon class="cls-36" points="289.86359 363.826 299.1598 371.9371 299.1598 416.7074 289.86359 408.5963 289.86359 363.826"/><polygon class="cls-5" points="293.28559 366.8117 289.86359 363.826 289.86359 408.5963 293.28559 407.5736 293.28559 366.8117"/><polygon class="cls-21" points="293.28559 407.5736 289.86359 408.5963 299.1598 416.7074 299.1598 412.7563 293.28559 407.5736"/><polygon class="cls-30" points="291.57459 365.3189 291.57459 408.0849 299.1598 414.9064 299.1598 371.9371 291.57459 365.3189"/><polygon class="cls-7" points="299.1598 415.4429 291.19449 408.2547 291.19449 364.9837 291.95509 365.6509 291.95509 407.9152 299.1598 414.3949 299.1598 415.4429"/><polygon class="cls-17" points="273.31519 439.8862 220.79499 409.5637 220.79499 380.1182 273.31519 410.4407 273.31519 439.8862"/><polygon class="cls-21" points="223.79499 407.8313 223.79499 385.3141 270.31499 412.1725 270.31499 434.6896 223.79499 407.8313"/><path class="cls-17" d="m230.92439,394.4401v2.4814l2.0831,1.203v-2.4814l1.2614.7278v6.4576l-1.2614-.7278v-2.7021l-2.0831-1.203v2.7021l-1.2693-.7321v-6.4586l1.2693.7331Z"/><path class="cls-17" d="m240.49409,403.1266c0,2.1175-1.1118,2.7593-2.7466,1.8162-1.6592-.958-2.6299-2.9652-2.6299-4.8047,0-1.9361,1.0704-2.7636,2.7211-1.811,1.7176.992,2.6554,3.0172,2.6554,4.7995Zm-4.0409-2.2459c0,1.2645.5145,2.4527,1.3611,2.9418.854.4933,1.3442-.1634,1.3442-1.4195,0-1.1584-.48169-2.4336-1.35269-2.9365-.855-.4933-1.35261.1581-1.35261,1.4142Z"/><path class="cls-17" d="m241.36829,405.4234c.33951.3978.86251.8996,1.4019,1.2115.5809.3352.8875.2355.8875-.1867,0-.4021-.2653-.7851-.9373-1.4513-.9294-.9102-1.5351-1.8544-1.5351-2.7922,0-1.1034.7967-1.4853,2.1159-.7236.6307.3639,1.0948.7851,1.4274,1.15l-.2827,1.0153c-.2239-.2546-.6217-.6673-1.16909-.9834-.54851-.3162-.81371-.1815-.81371.1548,0,.4117.3151.7745,1.0376,1.5086.98711.9919,1.4518,1.8544,1.4518,2.7647,0,1.0821-.722,1.5849-2.2571.698-.63859-.3681-1.2693-.9229-1.5849-1.307l.2578-1.0587Z"/><path class="cls-17" d="m245.80909,403.1202c.3899.1485.9378.4074,1.7091.8529.7798.4509,1.3357.9432,1.7091,1.5033.357.5326.5978,1.2073.5978,1.8396s-.183,1.0641-.5145,1.2359c-.4313.2217-1.0705.0637-1.81679-.3681-.16651-.0955-.31561-.191-.43181-.278v2.3096l-1.2529-.7235v-6.3717Zm1.2529,3.6558c.1082.0902.2409.1772.4233.2822.6721.3883,1.0869.2344,1.0869-.4275,0-.592-.357-1.1543-.9872-1.5182-.2577-.1485-.4317-.2206-.523-.2429v1.9064Z"/><path class="cls-17" d="m251.90119,406.5511v6.4576l-1.2693-.7331v-6.4576l1.2693.7331Z"/><path class="cls-17" d="m254.07659,409.0336l-1.5022-.8668v-1.2264l4.2981,2.4814v1.2264l-1.5266-.8816v5.2312l-1.2693-.733v-5.2312Z"/><path class="cls-17" d="m258.25169,415.018l-.3984,1.4279-1.3112-.7574,1.7096-5.471,1.6597.958,1.7335,7.459-1.36109-.7861-.43071-1.9053-1.6014-.9251Zm1.4189-.2737l-.348-1.5701c-.0997-.4414-.1994-.9782-.2822-1.4099l-.0169-.0096c-.0828.3363-.1655.7766-.2568,1.098l-.3331,1.1787,1.237.7129Z"/><path class="cls-17" d="m262.39389,412.6098l1.26991.7331v5.2312l2.22359,1.2836v1.2264l-3.4935-2.0167v-6.4576Z"/><polygon class="cls-17" points="269.15739 426.7864 225.97119 401.8529 225.97119 400.3266 269.15739 425.2602 269.15739 426.7864"/><polygon class="cls-17" points="267.57399 428.9248 227.55459 405.8196 227.55459 404.2933 267.57399 427.3985 267.57399 428.9248"/><polygon class="cls-2" points="224.88319 385.9424 223.79499 385.3141 223.79499 407.8313 224.88319 407.1006 224.88319 385.9424"/><polygon class="cls-35" points="224.88319 407.1006 223.79499 407.8313 270.31499 434.6896 270.31499 433.3307 224.88319 407.1006"/><polygon class="cls-3" points="267.85649 445.2333 226.25369 421.2139 226.25369 412.7153 267.85649 436.7347 267.85649 445.2333"/><polygon class="cls-5" points="267.85649 445.2333 269.47809 444.2971 269.47809 437.6709 267.85649 436.7347 267.85649 445.2333"/><polygon class="cls-28" points="308.86939 438.1143 366.73269 438.1143 566.14959 322.7596 512.54929 291.4138 512.54929 320.5198 308.86939 438.1143"/><polygon class="cls-26" points="221.61059 314.6245 220.84619 314.2516 219.31739 315.1373 220.0818 315.5102 221.61059 314.6245"/><polygon class="cls-26" points="221.61059 320.1624 220.84619 319.7894 220.93409 320.556 221.61059 320.1624"/><polygon class="cls-26" points="220.12589 321.8974 219.31739 321.5245 219.31739 315.1373 220.0818 315.5102 220.12589 321.8974"/><polygon class="cls-19" points="220.93409 315.0181 221.61059 314.6245 221.61059 315.4739 220.93409 315.8675 220.93409 320.556 221.61059 320.1624 221.61059 321.0118 220.93409 321.4054 220.0818 321.8974 220.0818 321.048 220.0818 316.3596 220.0818 315.5102 220.93409 315.0181"/><polygon class="cls-26" points="230.21659 319.5932 229.45219 319.2203 227.92339 320.1059 228.6878 320.4789 230.21659 319.5932"/><polygon class="cls-26" points="230.21659 325.131 229.45219 324.7581 229.54009 325.5246 230.21659 325.131"/><polygon class="cls-26" points="228.73189 326.8661 227.92339 326.4932 227.92339 320.1059 228.6878 320.4789 228.73189 326.8661"/><polygon class="cls-19" points="229.54009 319.9868 230.21659 319.5932 230.21659 320.4426 229.54009 320.8362 229.54009 325.5246 230.21659 325.131 230.21659 325.9804 229.54009 326.3741 228.6878 326.8661 228.6878 326.0167 228.6878 321.3283 228.6878 320.4789 229.54009 319.9868"/><polygon class="cls-28" points="159.7606 332.8396 206.08069 332.8396 206.08069 281.023 166.578 258.216 159.7606 262.1521 159.7606 332.8396"/><ellipse class="cls-12" cx="324.03667" cy="453.9111" rx="10.79487" ry="5.2141"/><path class="cls-14" d="m322.69229,450.4503v5.9301h-3.394v-5.9301c.55.0534,1.1188.0786,1.697.0786.5783,0,1.1471-.0252,1.697-.0786Z"/><path class="cls-14" d="m322.69229,446.4812v3.9691c-.5499.0534-1.1187.0786-1.697.0786-.5782,0-1.147-.0252-1.697-.0786v-3.9691h3.394Z"/><path class="cls-30" d="m322.69229,446.4812v3.9691c-.5499.0534-1.1187.0786-1.697.0786-.5782,0-1.147-.0252-1.697-.0786v-3.9691h3.394Z"/><ellipse class="cls-24" cx="320.99427" cy="436.26782" rx="12.09897" ry="10.99907"/><ellipse class="cls-24" cx="320.99427" cy="415.5268" rx="12.09897" ry="10.999"/><ellipse class="cls-24" cx="320.99427" cy="408.456" rx="8.48497" ry="10.999"/><ellipse class="cls-24" cx="320.99429" cy="427.51483" rx="15.7286" ry="14.29877"/><path class="cls-15" d="m315.5088,418.4657c2.71509-.9539,5.47-.9986,7.77169-.3036-2.3409-1.8201-5.7032-2.4149-8.91769-1.2856-4.031,1.4162-6.54891,5.0924-6.36591,8.8211.8895-3.0511,3.6616-5.8792,7.51191-7.2319Z"/><path class="cls-15" d="m319.34719,400.5031c1.86861-.6565,3.76461-.6872,5.3487-.2089-1.61109-1.2526-3.92509-1.662-6.1374-.8848-2.7743.9747-4.5071,3.5048-4.3812,6.0709.6122-2.0998,2.52-4.0462,5.1699-4.9772Z"/><path class="cls-33" d="m325.50209,442.2039c-2.5788,1.3936-5.24229,1.9761-7.3362,1.762,1.1747,1.8839,4.8421,1.9169,8.3112.0423s5.4512-4.9606,4.519-6.9755c-.9684,1.8689-2.9151,3.7776-5.494,5.1712Z"/><ellipse class="cls-12" cx="57.19963" cy="314.3392" rx="10.79482" ry="5.2141"/><path class="cls-14" d="m55.8553,310.8784v5.93h-3.394v-5.93c.55.0534,1.1188.0785,1.697.0785.5783,0,1.1471-.0251,1.697-.0785Z"/><path class="cls-14" d="m55.8553,306.9093v3.9691c-.5499.0534-1.1187.0785-1.697.0785-.5782,0-1.147-.0251-1.697-.0785v-3.9691h3.394Z"/><path class="cls-30" d="m55.8553,306.9093v3.9691c-.5499.0534-1.1187.0785-1.697.0785-.5782,0-1.147-.0251-1.697-.0785v-3.9691h3.394Z"/><ellipse class="cls-24" cx="54.15728" cy="296.6959" rx="12.09898" ry="10.999"/><ellipse class="cls-24" cx="54.15728" cy="275.95488" rx="12.09898" ry="10.99902"/><ellipse class="cls-24" cx="54.15728" cy="268.88408" rx="8.48498" ry="10.99903"/><ellipse class="cls-24" cx="54.1573" cy="287.94288" rx="15.7286" ry="14.29872"/><path class="cls-15" d="m48.6718,278.8937c2.7151-.9539,5.47-.9985,7.7717-.3035-2.3409-1.8201-5.7032-2.415-8.9177-1.2856-4.031,1.4162-6.5489,5.0924-6.3659,8.821.8894-3.051,3.6616-5.8791,7.5119-7.2319Z"/><path class="cls-15" d="m52.5102,260.9312c1.8686-.6565,3.7646-.6872,5.3487-.2089-1.6111-1.2527-3.9251-1.6621-6.1374-.8848-2.7743.9747-4.5071,3.5047-4.3812,6.0708.6121-2.0998,2.52-4.0461,5.1699-4.9771Z"/><path class="cls-33" d="m58.6651,302.632c-2.5788,1.3935-5.2423,1.976-7.3362,1.762,1.1746,1.8839,4.8421,1.9169,8.3112.0423,3.4691-1.8747,5.4512-4.9606,4.519-6.9755-.9684,1.8688-2.9151,3.7776-5.494,5.1712Z"/><ellipse class="cls-12" cx="378.83697" cy="421.6375" rx="10.79488" ry="5.2141"/><path class="cls-14" d="m377.49259,418.1767v5.9301h-3.3939v-5.9301c.5499.0534,1.1187.0786,1.6969.0786.5783,0,1.1471-.0252,1.697-.0786Z"/><path class="cls-14" d="m377.49259,414.2076v3.9691c-.5499.0534-1.1187.0786-1.697.0786-.5782,0-1.147-.0252-1.6969-.0786v-3.9691h3.3939Z"/><path class="cls-30" d="m377.49259,414.2076v3.9691c-.5499.0534-1.1187.0786-1.697.0786-.5782,0-1.147-.0252-1.6969-.0786v-3.9691h3.3939Z"/><ellipse class="cls-24" cx="375.79459" cy="403.99428" rx="12.0989" ry="10.99902"/><ellipse class="cls-24" cx="375.79459" cy="383.25323" rx="12.0989" ry="10.99907"/><ellipse class="cls-24" cx="375.79459" cy="376.18242" rx="8.485" ry="10.99908"/><ellipse class="cls-24" cx="375.79459" cy="395.24123" rx="15.7286" ry="14.29877"/><path class="cls-15" d="m370.30909,386.1921c2.7151-.9539,5.47-.9985,7.7718-.3036-2.341-1.8201-5.7032-2.4149-8.9178-1.2855-4.031,1.4162-6.5489,5.0924-6.3659,8.821.8895-3.0511,3.66161-5.8792,7.5119-7.2319Z"/><path class="cls-15" d="m374.14749,368.2295c1.8686-.6565,3.7646-.6872,5.3487-.2089-1.6111-1.2526-3.9251-1.662-6.13739-.8847-2.77421.9746-4.50711,3.5047-4.38121,6.0708.61221-2.0998,2.52-4.0462,5.1699-4.9772Z"/><path class="cls-33" d="m380.30239,409.9303c-2.5788,1.3936-5.2423,1.9761-7.3362,1.762,1.1747,1.8839,4.8422,1.917,8.3113.0423,3.469-1.8746,5.4511-4.9606,4.5189-6.9755-.9684,1.8689-2.9151,3.7777-5.494,5.1712Z"/><ellipse class="cls-12" cx="433.63726" cy="389.3639" rx="10.79487" ry="5.2141"/><path class="cls-14" d="m432.29289,385.9031v5.9301h-3.3939v-5.9301c.5499.0535,1.1187.0786,1.6969.0786.5783,0,1.1471-.0251,1.697-.0786Z"/><path class="cls-14" d="m432.29289,381.9341v3.969c-.5499.0535-1.1187.0786-1.697.0786-.5782,0-1.147-.0251-1.6969-.0786v-3.969h3.3939Z"/><path class="cls-30" d="m432.29289,381.9341v3.969c-.5499.0535-1.1187.0786-1.697.0786-.5782,0-1.147-.0251-1.6969-.0786v-3.969h3.3939Z"/><ellipse class="cls-24" cx="430.59489" cy="371.72068" rx="12.0989" ry="10.99902"/><ellipse class="cls-24" cx="430.59489" cy="350.97963" rx="12.0989" ry="10.99907"/><ellipse class="cls-24" cx="430.59489" cy="343.90883" rx="8.485" ry="10.99908"/><ellipse class="cls-24" cx="430.59489" cy="362.96768" rx="15.7286" ry="14.29872"/><path class="cls-15" d="m425.10939,353.9185c2.7151-.9539,5.47-.9985,7.7718-.3036-2.341-1.82-5.7032-2.4149-8.9178-1.2855-4.031,1.4162-6.5489,5.0924-6.3659,8.821.8895-3.0511,3.6616-5.8792,7.5119-7.2319Z"/><path class="cls-15" d="m428.9478,335.9559c1.86859-.6565,3.76459-.6872,5.34869-.2089-1.6111-1.2526-3.9251-1.662-6.1374-.8847-2.7742.9746-4.5071,3.5047-4.3812,6.0708.6122-2.0998,2.52-4.0462,5.16991-4.9772Z"/><path class="cls-33" d="m435.1028,377.6567c-2.57891,1.3936-5.24231,1.9761-7.33631,1.7621,1.1747,1.8838,4.8422,1.9169,8.31131.0422,3.469-1.8746,5.45109-4.9606,4.51889-6.9755-.9683,1.8689-2.9151,3.7777-5.49389,5.1712Z"/><ellipse class="cls-12" cx="488.43759" cy="357.0904" rx="10.79479" ry="5.2141"/><path class="cls-14" d="m487.09329,353.6296v5.93h-3.394v-5.93c.5499.0534,1.1187.0785,1.697.0785.5782,0,1.147-.0251,1.697-.0785Z"/><path class="cls-14" d="m487.09329,349.6605v3.9691c-.55.0534-1.1188.0785-1.697.0785-.5783,0-1.1471-.0251-1.697-.0785v-3.9691h3.394Z"/><path class="cls-30" d="m487.09329,349.6605v3.9691c-.55.0534-1.1188.0785-1.697.0785-.5783,0-1.1471-.0251-1.697-.0785v-3.9691h3.394Z"/><ellipse class="cls-24" cx="485.39519" cy="339.4471" rx="12.0989" ry="10.999"/><ellipse class="cls-24" cx="485.39519" cy="318.70608" rx="12.0989" ry="10.99902"/><ellipse class="cls-24" cx="485.39519" cy="311.63528" rx="8.485" ry="10.99903"/><ellipse class="cls-24" cx="485.39519" cy="330.69408" rx="15.7286" ry="14.29872"/><path class="cls-15" d="m479.90969,321.6449c2.71511-.9539,5.47-.9985,7.7718-.3035-2.341-1.8201-5.7032-2.415-8.9178-1.2856-4.031,1.4162-6.54889,5.0924-6.36589,8.821.88949-3.0511,3.66159-5.8791,7.51189-7.2319Z"/><path class="cls-15" d="m483.74809,303.6824c1.8686-.6565,3.7646-.6873,5.3488-.209-1.6112-1.2526-3.92509-1.662-6.1375-.8847-2.7742.9747-4.5071,3.5047-4.3812,6.0708.6122-2.0998,2.52-4.0461,5.1699-4.9771Z"/><path class="cls-33" d="m489.90309,345.3832c-2.5789,1.3935-5.24229,1.976-7.33629,1.762,1.17469,1.8839,4.84219,1.9169,8.31129.0423,3.4691-1.8747,5.4511-4.9606,4.5189-6.9756-.9683,1.8689-2.9151,3.7777-5.4939,5.1713Z"/><ellipse class="cls-12" cx="543.23789" cy="324.8168" rx="10.7948" ry="5.2141"/><path class="cls-14" d="m541.89359,321.356v5.93h-3.394v-5.93c.5499.0534,1.1187.0785,1.697.0785.57821,0,1.147-.0251,1.697-.0785Z"/><path class="cls-14" d="m541.89359,317.3869v3.9691c-.55.0534-1.11879.0785-1.697.0785-.5783,0-1.1471-.0251-1.697-.0785v-3.9691h3.394Z"/><path class="cls-30" d="m541.89359,317.3869v3.9691c-.55.0534-1.11879.0785-1.697.0785-.5783,0-1.1471-.0251-1.697-.0785v-3.9691h3.394Z"/><ellipse class="cls-24" cx="540.19551" cy="307.1735" rx="12.09892" ry="10.999"/><ellipse class="cls-24" cx="540.19551" cy="286.43248" rx="12.09892" ry="10.99902"/><ellipse class="cls-24" cx="540.19551" cy="279.36168" rx="8.48492" ry="10.99903"/><ellipse class="cls-24" cx="540.19549" cy="298.42047" rx="15.7286" ry="14.29872"/><path class="cls-15" d="m534.70999,289.3713c2.7151-.9539,5.47-.9985,7.77181-.3035-2.341-1.8201-5.70321-2.415-8.91781-1.2856-4.031,1.4162-6.5489,5.0924-6.3658,8.821.8894-3.051,3.6615-5.8791,7.5118-7.2319Z"/><path class="cls-15" d="m538.54839,271.4088c1.8686-.6565,3.7646-.6872,5.3488-.2089-1.6112-1.2527-3.9251-1.6621-6.1375-.8848-2.7742.9747-4.5071,3.5047-4.3811,6.0709.6121-2.0999,2.5199-4.0462,5.1698-4.9772Z"/><path class="cls-33" d="m544.70339,313.1096c-2.5789,1.3936-5.2423,1.976-7.3363,1.762,1.17471,1.8839,4.8422,1.9169,8.3113.0423,3.4691-1.8747,5.4511-4.9606,4.519-6.9755-.9684,1.8688-2.9152,3.7776-5.494,5.1712Z"/></g></g></g></svg>