<svg xmlns="http://www.w3.org/2000/svg" width="71.305" height="71.305" viewBox="0 0 71.305 71.305"><g transform="translate(-33.079 -39.74)"><path d="M140.917,413.234H83.005A6.342,6.342,0,0,1,76.67,406.9v-4.042a1.807,1.807,0,1,1,3.614,0V406.9a2.724,2.724,0,0,0,2.721,2.721h57.912a1.807,1.807,0,1,1,0,3.614Z" transform="translate(-38.339 -317.785)" fill="#e4e4e4"/><path d="M102.578,245.8A1.807,1.807,0,0,1,100.771,244v-4.527a2.724,2.724,0,0,0-2.721-2.718H54.964a1.807,1.807,0,0,1-1.278-.529L41.337,223.87a2.72,2.72,0,0,0-3.848,3.846l14.473,14.473H94.781a1.807,1.807,0,1,1,0,3.614H51.213a1.807,1.807,0,0,1-1.277-.529l-15-15a6.334,6.334,0,1,1,8.958-8.958l11.825,11.822H98.049a6.342,6.342,0,0,1,6.335,6.332V244A1.807,1.807,0,0,1,102.578,245.8Z" transform="translate(0 -158.07)" fill="#e4e4e4"/><path d="M136,536.441a6.521,6.521,0,1,1,6.521-6.521A6.521,6.521,0,0,1,136,536.441Zm0-9.426a2.907,2.907,0,1,0,2.907,2.906A2.907,2.907,0,0,0,136,527.015Z" transform="translate(-84.788 -425.397)" fill="#e4e4e4"/><path d="M465.551,536.441a6.521,6.521,0,1,1,6.521-6.521A6.521,6.521,0,0,1,465.551,536.441Zm0-9.426a2.907,2.907,0,1,0,2.907,2.906A2.907,2.907,0,0,0,465.551,527.015Z" transform="translate(-374.639 -425.397)" fill="#e4e4e4"/><path d="M415.241,71.453a1.807,1.807,0,0,1-1.807-1.807V43.354h-7.99v5.6a1.807,1.807,0,1,1-3.614,0v-7.4a1.807,1.807,0,0,1,1.807-1.807h11.6a1.807,1.807,0,0,1,1.807,1.807v28.1A1.807,1.807,0,0,1,415.241,71.453Z" transform="translate(-324.329 0)" fill="#e4e4e4"/><path d="M377.662,116.984H374.87a4.164,4.164,0,0,1-4.16-4.16V105.37a4.164,4.164,0,0,1,4.16-4.16h2.792a4.164,4.164,0,0,1,4.166,4.16v7.454A4.164,4.164,0,0,1,377.662,116.984Zm-2.792-12.16a.547.547,0,0,0-.546.546v7.454a.546.546,0,0,0,.546.546h2.792a.546.546,0,0,0,.546-.546V105.37a.547.547,0,0,0-.546-.546Z" transform="translate(-296.958 -54.065)" fill="#e4e4e4"/><path d="M111.391,227.76a1.807,1.807,0,0,1-1.278-3.084c2.918-2.918,2.708-5.728-.679-9.114s-6.2-3.6-9.114-.679a1.807,1.807,0,1,1-2.555-2.555,9.363,9.363,0,0,1,6.455-3.089c2.6-.053,5.221,1.217,7.771,3.767s3.818,5.162,3.768,7.768a9.368,9.368,0,0,1-3.087,6.454,1.807,1.807,0,0,1-1.279.532Z" transform="translate(-56.427 -149.079)" fill="#e4e4e4"/><path d="M170.417,481.974a1.807,1.807,0,0,1-1.807-1.807V474a1.807,1.807,0,0,1,3.614,0v6.17A1.807,1.807,0,0,1,170.417,481.974Z" transform="translate(-119.204 -380.355)" fill="#e4e4e4"/><path d="M499.967,481.974a1.807,1.807,0,0,1-1.807-1.807V474a1.807,1.807,0,0,1,3.614,0v6.17A1.807,1.807,0,0,1,499.967,481.974Z" transform="translate(-409.055 -380.355)" fill="#e4e4e4"/><path d="M372.517,214.325a1.807,1.807,0,0,1,0-3.614,1.944,1.944,0,0,0,1.942-1.942v-4.782a1.807,1.807,0,0,1,3.614,0v4.782A5.562,5.562,0,0,1,372.517,214.325Z" transform="translate(-296.958 -142.872)" fill="#e4e4e4"/></g></svg>