<?xml version="1.0" encoding="UTF-8"?><svg xmlns="http://www.w3.org/2000/svg" viewBox="0 0 710.502 600.7349"><defs><style>.cls-1{fill:#999;}.cls-1,.cls-2,.cls-3,.cls-4,.cls-5,.cls-6,.cls-7,.cls-8,.cls-9,.cls-10,.cls-11,.cls-12,.cls-13,.cls-14,.cls-15,.cls-16,.cls-17,.cls-18,.cls-19,.cls-20,.cls-21,.cls-22,.cls-23,.cls-24,.cls-25,.cls-26,.cls-27,.cls-28,.cls-29,.cls-30,.cls-31,.cls-32,.cls-33,.cls-34,.cls-35,.cls-36,.cls-37,.cls-38,.cls-39{stroke-width:0px;}.cls-2{fill:#b3443e;}.cls-3{fill:#acc945;}.cls-4{fill:#9e744d;}.cls-5{fill:#3b6900;}.cls-6{fill:#8c3531;}.cls-7{fill:#d4c2ab;}.cls-8{fill:#b39e82;}.cls-9{fill:#943935;}.cls-10{fill:#dbbcad;}.cls-11{fill:#78503d;}.cls-40{isolation:isolate;}.cls-12,.cls-28{fill:#fff;}.cls-12,.cls-32{opacity:.15;}.cls-13{fill:#6e4e2f;}.cls-14{fill:#b8b8b8;}.cls-15{fill:#d98380;}.cls-16{fill:#90b21e;}.cls-17{fill:#c7c7c7;}.cls-18{fill:#d4d4d4;}.cls-19{fill:#79a4e0;}.cls-20{fill:#99b33d;}.cls-21{fill:#cfa895;}.cls-22{fill:#c5de6b;}.cls-23{fill:#976;}.cls-24{fill:#692824;}.cls-25{fill:#4e8a00;}.cls-26{fill:#d1d1d1;}.cls-27{fill:#5f88c2;}.cls-28,.cls-36{opacity:.1;}.cls-29{fill:#bd9f79;}.cls-30{fill:#7a5a3c;}.cls-31{fill:#f9f1e6;}.cls-32,.cls-36{mix-blend-mode:multiply;}.cls-33{fill:#e8e8e8;}.cls-34{fill:#db6a67;}.cls-35{fill:#dec9bf;}.cls-37{fill:#8c6540;}.cls-38{fill:#cb5954;}.cls-39{fill:#b58d79;}</style></defs><g class="cls-40"><g id="_レイヤー_2"><g id="Objects"><polygon class="cls-4" points="355.30079 600.7349 0 395.6275 .001 337.1001 355.30179 542.2075 355.30079 600.7349"/><path class="cls-37" d="m340.80669,579.774c-10.1914-12.8379-21.0293-24.375-34.2842-34.0899-12.22949-8.9629-23.7949-18.4648-35.6856-27.8359-21.1972-16.7071-44.79289-28.6621-71.6298-33.0215-29.3418-4.7637-57.32909-12.6289-80.3916-32.2442-10.2842-8.748-19.3536-18.7128-28.6817-28.4414-8.5635-8.9316-17.4375-18.9531-28.539-24.7539-17.0401-8.9023-43.4522-14.4511-60.9922-3.4121l354.69819,204.7598v-1.1016c-4.5986-6.789-9.3984-13.4394-14.4941-19.8593Z"/><polygon class="cls-30" points="355.30279 600.7349 710.502 395.6275 710.502 337.1001 355.30179 542.2075 355.30279 600.7349"/><path class="cls-13" d="m643.05078,417.5923c-9.2842,9.1484-18.59078,18.7578-30.4766,24.5352-14.03218,6.8222-29.206,11.1894-43.6025,17.166-30.5693,12.6914-58.6123,29.7148-86.9062,46.7168-26.3643,15.8418-51.4532,32.9844-80.3086,44.2168-12.9346,5.0312-27.2442,11.2148-36.46,21.9844-3.3418,3.9042-6.4697,8.2558-9.9941,12.1132v16.4102l355.19921-205.1074v-16.3067c-25.56152,6.0645-48.792,19.8828-67.45122,38.2715Z"/><polygon class="cls-22" points="355.30079 555.4068 0 350.2993 .001 337.1001 355.30179 542.2075 355.30079 555.4068"/><polygon class="cls-18" points="177.54589 439.5943 126.9033 410.3579 126.9033 417.5923 177.54589 446.8286 177.54589 439.5943"/><polygon class="cls-20" points="355.30279 555.4068 710.502 350.2993 710.502 337.1001 355.30179 542.2075 355.30279 555.4068"/><polygon class="cls-3" points=".001 337.1001 355.30179 542.2075 710.502 337.1001 355.251 131.8887 .001 337.1001"/><path class="cls-36" d="m312.05279,465.0689c-1.0362,0-2.0557.0468-3.0606.1328-2.0986-8.5977-12.7695-15.1445-25.6289-15.1445-.0859,0-.1699.0039-.2568.0039-1.7666-8.8672-12.6192-15.6973-25.752-15.6973-14.3633,0-26.0078,8.1719-26.0078,18.2422,0,10.0742,11.6445,18.2422,26.0078,18.2422.0869,0,.1729-.0039.2588-.0059,1.7666,8.8672,12.6191,15.6973,25.75,15.6973,1.0371,0,2.0576-.0489,3.0625-.1328,2.0986,8.5996,12.7695,15.1445,25.627,15.1445,14.36421,0,26.0087-8.168,26.0087-18.2402s-11.64449-18.2422-26.0087-18.2422Z"/><polygon class="cls-36" points="338.02149 517.815 355.18649 526.8365 690.26168 333.0005 673.14748 323.8736 338.02149 517.815"/><polygon class="cls-36" points="14.3985 333.8697 31.5635 342.8931 366.63869 149.0552 349.52349 139.9297 14.3985 333.8697"/><polygon class="cls-14" points="352.10649 122.3506 21.2481 313.4009 21.2481 300.7002 352.10649 109.6499 352.10649 122.3506"/><polyline class="cls-33" points="352.10649 109.6499 350.40629 108.6846 19.3233 299.8672 21.2481 300.7002 352.10649 109.6499"/><polygon class="cls-17" points="21.2481 300.7002 19.3233 299.8672 19.3233 312.4361 21.2481 313.4009 21.2481 300.7002"/><polygon class="cls-1" points="331.66309 109.9683 331.66509 163.1338 320.89159 169.4805 320.88969 116.3145 326.27639 104.5684 331.66309 109.9683"/><polygon class="cls-26" points="320.88969 116.3145 320.89159 169.4805 317.49119 167.5513 317.49119 114.3848 320.88969 116.3145"/><polygon class="cls-33" points="320.88969 116.3145 317.49119 114.3848 322.87889 102.6387 326.27829 104.5684 320.88969 116.3145"/><polygon class="cls-1" points="349.89649 98.4673 349.89649 151.6338 339.12209 157.98 339.12209 104.8135 344.50979 93.0674 349.89649 98.4673"/><polygon class="cls-26" points="339.12209 104.8135 339.12209 157.98 335.72459 156.0503 335.72269 102.8848 339.12209 104.8135"/><polygon class="cls-33" points="339.12209 104.8135 335.72269 102.8848 341.11139 91.1377 344.50979 93.0674 339.12209 104.8135"/><polygon class="cls-1" points="313.43169 120.7393 313.43169 173.9058 302.65919 180.252 302.65919 127.086 308.04589 115.3394 313.43169 120.7393"/><polygon class="cls-26" points="302.65919 127.086 302.65919 180.252 299.26079 178.3228 299.25879 125.1568 302.65919 127.086"/><polygon class="cls-33" points="302.65919 127.086 299.25879 125.1568 304.64749 113.4102 308.04589 115.3394 302.65919 127.086"/><polygon class="cls-1" points="295.19919 130.9243 295.20019 184.0899 284.42679 190.4365 284.42579 137.2705 289.81249 125.524 295.19919 130.9243"/><polygon class="cls-26" points="284.42579 137.2705 284.42679 190.4365 281.02829 188.5069 281.02739 135.3413 284.42579 137.2705"/><polygon class="cls-33" points="284.42579 137.2705 281.02739 135.3413 286.41509 123.5948 289.81349 125.524 284.42579 137.2705"/><polygon class="cls-1" points="276.96679 141.6958 276.96779 194.8614 266.19529 201.208 266.19439 148.042 271.58009 136.2959 276.96679 141.6958"/><polygon class="cls-26" points="266.19439 148.042 266.19529 201.208 262.79589 199.2788 262.79489 146.1123 266.19439 148.042"/><polygon class="cls-33" points="266.19439 148.042 262.79489 146.1123 268.18259 134.3662 271.58109 136.2959 266.19439 148.042"/><polygon class="cls-1" points="258.73539 150.6729 258.73639 203.8389 247.96289 210.1851 247.96189 157.0196 253.34869 145.273 258.73539 150.6729"/><polygon class="cls-26" points="247.96189 157.0196 247.96289 210.1851 244.56349 208.2559 244.56249 155.0899 247.96189 157.0196"/><polygon class="cls-33" points="247.96189 157.0196 244.56249 155.0899 249.95019 143.3433 253.34959 145.273 247.96189 157.0196"/><polygon class="cls-1" points="240.50389 161.4444 240.50489 214.6104 229.73049 220.9566 229.72949 167.7906 235.11619 156.0445 240.50389 161.4444"/><polygon class="cls-26" points="229.72949 167.7906 229.73049 220.9566 226.33209 219.0269 226.33109 165.8614 229.72949 167.7906"/><polygon class="cls-33" points="229.72949 167.7906 226.33109 165.8614 231.71879 154.1148 235.11719 156.0445 229.72949 167.7906"/><polygon class="cls-1" points="222.27149 171.9302 222.27249 225.0962 211.499 231.4424 211.49809 178.2764 216.88479 166.5298 222.27149 171.9302"/><polygon class="cls-26" points="211.49809 178.2764 211.499 231.4424 208.09959 229.5127 208.09869 176.3472 211.49809 178.2764"/><polygon class="cls-33" points="211.49809 178.2764 208.09869 176.3472 213.48639 164.6006 216.88579 166.5298 211.49809 178.2764"/><polygon class="cls-1" points="204.03909 182.7017 204.04009 235.8672 193.26659 242.2139 193.26559 189.0479 198.65239 177.3018 204.03909 182.7017"/><polygon class="cls-26" points="193.26559 189.0479 193.26659 242.2139 189.86819 240.2847 189.86719 187.1182 193.26559 189.0479"/><polygon class="cls-33" points="193.26559 189.0479 189.86719 187.1182 195.25389 175.3721 198.65329 177.3018 193.26559 189.0479"/><polygon class="cls-1" points="185.80759 194.4478 185.80759 247.6143 175.03319 253.9605 175.03319 200.794 180.42089 189.0479 185.80759 194.4478"/><polygon class="cls-26" points="175.03319 200.794 175.03319 253.9605 171.63579 252.0308 171.63379 198.8648 175.03319 200.794"/><polygon class="cls-33" points="175.03319 200.794 171.63379 198.8648 177.02249 187.1182 180.42089 189.0479 175.03319 200.794"/><polygon class="cls-1" points="167.57419 205.2198 167.57619 258.3848 156.80279 264.7324 156.80079 211.5655 162.18749 199.8194 167.57419 205.2198"/><polygon class="cls-26" points="156.80079 211.5655 156.80279 264.7324 153.40239 262.8028 153.40239 209.6363 156.80079 211.5655"/><polygon class="cls-33" points="156.80079 211.5655 153.40239 209.6363 158.79009 197.8897 162.18949 199.8194 156.80079 211.5655"/><polygon class="cls-1" points="149.3428 215.4038 149.3428 268.5703 138.5703 274.9156 138.5703 221.7505 143.9571 210.0039 149.3428 215.4038"/><polygon class="cls-26" points="138.5703 221.7505 138.5703 274.9156 135.1719 272.9864 135.1699 219.8208 138.5703 221.7505"/><polygon class="cls-33" points="138.5703 221.7505 135.1699 219.8208 140.5586 208.0747 143.9571 210.0039 138.5703 221.7505"/><polygon class="cls-1" points="131.1104 226.1753 131.1123 279.3418 120.3389 285.6875 120.3369 232.5215 125.7237 220.7754 131.1104 226.1753"/><polygon class="cls-26" points="120.3369 232.5215 120.3389 285.6875 116.9395 283.7578 116.9395 230.5923 120.3369 232.5215"/><polygon class="cls-33" points="120.3369 232.5215 116.9395 230.5923 122.3252 218.8457 125.7256 220.7754 120.3369 232.5215"/><polygon class="cls-1" points="112.8789 235.1529 112.8789 288.3189 102.1055 294.6646 102.1055 241.499 107.4922 229.7525 112.8789 235.1529"/><polygon class="cls-26" points="102.1055 241.499 102.1055 294.6646 98.708 292.7349 98.7061 239.5698 102.1055 241.499"/><polygon class="cls-33" points="102.1055 241.499 98.7061 239.5698 104.0948 227.8233 107.4922 229.7525 102.1055 241.499"/><polygon class="cls-1" points="94.6465 245.9239 94.6475 299.0899 83.874 305.4361 83.8731 252.2705 89.2598 240.524 94.6465 245.9239"/><polygon class="cls-26" points="83.8731 252.2705 83.874 305.4361 80.4746 303.5064 80.4737 250.3408 83.8731 252.2705"/><polygon class="cls-33" points="83.8731 252.2705 80.4737 250.3408 85.8614 238.5948 89.2608 240.524 83.8731 252.2705"/><polygon class="cls-1" points="76.4141 256.4097 76.4151 309.5747 65.6416 315.9224 65.6406 262.7559 71.0274 251.0098 76.4141 256.4097"/><polygon class="cls-26" points="65.6406 262.7559 65.6416 315.9224 62.2432 313.9927 62.2422 260.8262 65.6406 262.7559"/><polygon class="cls-33" points="65.6406 262.7559 62.2422 260.8262 67.6299 249.0806 71.0283 251.0098 65.6406 262.7559"/><polygon class="cls-1" points="58.1826 267.1817 58.1836 320.3462 47.4102 326.6939 47.4092 273.5269 52.7949 261.7808 58.1826 267.1817"/><polygon class="cls-26" points="47.4092 273.5269 47.4102 326.6939 44.0108 324.7642 44.0098 271.5977 47.4092 273.5269"/><polygon class="cls-33" points="47.4092 273.5269 44.0098 271.5977 49.3975 259.8511 52.7959 261.7808 47.4092 273.5269"/><polygon class="cls-1" points="39.9502 277.5371 39.9512 330.7017 29.1778 337.0493 29.1768 283.8828 34.5635 272.1363 39.9502 277.5371"/><polygon class="cls-26" points="29.1768 283.8828 29.1778 337.0493 25.7783 335.1197 25.7774 281.9531 29.1768 283.8828"/><polygon class="cls-33" points="29.1768 283.8828 25.7774 281.9531 31.1651 270.2071 34.5645 272.1363 29.1768 283.8828"/><polygon class="cls-33" points="279.40529 380.9126 177.55279 439.6372 126.8223 410.313 228.42389 351.6724 279.40529 380.9126"/><polygon class="cls-31" points="355.23439 278.3833 355.23439 424.8892 127.0332 293.1367 126.9219 146.5674 253.94629 161.3042 355.23439 278.3833"/><polygon class="cls-36" points="355.23439 415.2603 355.23439 424.8892 127.0332 293.1367 126.9219 283.4444 355.23439 415.2603"/><polygon class="cls-32" points="126.9434 174.9331 236.65329 188.0708 355.23439 311.0318 355.23439 278.3833 253.94629 161.3042 143.5567 148.4971 126.9307 158.0313 126.9434 174.9331"/><polygon class="cls-7" points="355.23439 424.8892 380.31449 410.1763 380.31739 263.6714 355.23439 278.3833 355.23439 424.8892"/><polygon class="cls-36" points="355.23439 424.8892 380.31449 410.1763 380.31739 400.5689 355.23439 415.2818 355.23439 424.8892"/><polygon class="cls-32" points="355.23439 311.2017 380.31449 296.4883 380.31739 282.8911 355.23439 297.6035 355.23439 311.2017"/><polygon class="cls-31" points="380.31449 410.1763 431.53319 439.6372 431.53319 293.0113 380.31739 263.6714 380.31449 410.1763"/><polygon class="cls-36" points="380.31449 410.1763 431.53319 439.6372 431.53319 429.9107 380.31739 400.5689 380.31449 410.1763"/><polygon class="cls-32" points="380.31449 300.5733 431.53319 330.0337 431.53319 311.5728 380.31739 282.232 380.31449 300.5733"/><polygon class="cls-7" points="431.53319 439.6372 634.43168 322.3716 634.43168 175.8687 431.53319 293.0113 431.53319 439.6372"/><polygon class="cls-32" points="431.53319 439.6372 634.43168 322.3716 634.43168 312.7388 431.53319 429.8814 431.53319 439.6372"/><polygon class="cls-23" points="523.252 348.4732 523.252 258.1197 464.44239 291.4942 464.44239 381.8482 523.252 348.4732"/><polygon class="cls-27" points="518.51169 344.3853 518.51169 267.4439 468.57719 295.7134 468.57719 372.6509 518.51169 344.3853"/><path class="cls-28" d="m490.37209,285.4785c-.5215-.5214-.7412-1.1045-.7598-1.6738l-21.0351,11.9087v3.312c15.67181,15.6704,31.3447,31.3403,47.0146,47.0122l2.9199-1.6523v-30.7676c-9.3798-9.3809-18.76069-18.7598-28.1396-28.1392Z"/><path class="cls-28" d="m468.57719,338.5064v15.9062c3.88381,3.8828,7.7646,7.7637,11.6465,11.6446l10.1562-5.7481c-7.2666-7.2676-14.5342-14.5371-21.8027-21.8027Z"/><polygon class="cls-39" points="518.51169 344.3853 468.57719 372.6509 468.57719 368.3794 514.72069 342.2583 518.51169 344.3853"/><polygon class="cls-11" points="518.51169 267.4439 514.72069 269.5908 514.72069 342.2368 518.51169 344.3853 518.51169 267.4439"/><polygon class="cls-11" points="492.50489 282.1685 488.71389 284.315 488.71389 356.9615 492.50489 359.1079 492.50489 282.1685"/><polygon class="cls-23" points="497.41209 279.3111 492.50489 282.1685 492.50489 359.1079 497.41209 356.2505 497.41209 279.3111"/><polygon class="cls-23" points="611.57228 297.3657 611.57228 207.0103 552.76268 240.3848 552.76268 330.7388 611.57228 297.3657"/><polygon class="cls-27" points="606.833 293.2759 606.833 216.335 556.89748 244.6031 556.89748 321.5415 606.833 293.2759"/><path class="cls-28" d="m586.08688,229.604c-.3603-.3589-.5683-.7475-.6757-1.1421l-15.0977,8.5469c12.2119,12.0308,24.3799,24.1065,36.51952,36.211v-22.8692c-6.917-6.9155-13.832-13.831-20.74612-20.7466Z"/><path class="cls-28" d="m556.89748,274.752v22.7095l15.3779,15.3769,14.499-8.207c-9.9589-9.961-19.916-19.9199-29.8769-29.8794Z"/><polygon class="cls-39" points="606.833 293.2759 556.89748 321.5415 556.89748 317.27 603.042 291.1499 606.833 293.2759"/><polygon class="cls-11" points="606.833 216.335 603.042 218.48 603.042 291.1294 606.833 293.2759 606.833 216.335"/><polygon class="cls-11" points="580.82418 231.0591 577.03318 233.2046 577.03318 305.8521 580.82418 307.9986 580.82418 231.0591"/><polygon class="cls-23" points="585.73238 228.2022 580.82418 231.0591 580.82418 307.9986 585.73238 305.1431 585.73238 228.2022"/><polygon class="cls-32" points="431.53319 330.0337 634.43168 212.6328 634.43168 175.8687 431.53319 293.0113 431.53319 330.0337"/><polygon class="cls-38" points="507.40729 14.7368 664.26658 177.3882 393.51269 334.0532 236.65329 171.4033 507.40729 14.7368"/><polygon class="cls-2" points="236.65329 171.4033 108.2744 156.0298 380.38189 0 507.40729 14.7368 236.65329 171.4033"/><polygon class="cls-38" points="108.2744 159.999 108.2744 156.0298 236.65329 171.4033 236.65329 175.3721 108.2744 159.999"/><polygon class="cls-15" points="393.51269 338.022 236.65329 175.3721 236.65329 171.4033 393.51269 334.0532 393.51269 338.022"/><polygon class="cls-9" points="664.26658 181.3574 664.26658 177.3882 393.51269 334.0532 393.51269 338.022 664.26658 181.3574"/><polygon class="cls-32" points="501.85449 134.4634 539.77739 112.3618 567.84768 128.4038 529.92479 150.5054 501.85449 134.4634"/><polygon class="cls-1" points="279.40529 374.6626 262.458 384.3638 262.458 390.7349 279.40529 381.0435 279.40529 374.6626"/><polygon class="cls-17" points="262.458 384.3638 211.38379 354.9517 211.38379 361.3247 262.458 390.7349 262.458 384.3638"/><polygon class="cls-33" points="262.458 384.3638 279.40529 374.6626 228.33209 345.2525 211.38379 354.9517 262.458 384.3638"/><polygon class="cls-21" points="228.38769 345.2525 228.38769 247.0469 279.40529 276.4561 279.40529 374.6626 228.38769 345.2525"/><polygon class="cls-10" points="233.61919 348.3872 233.61919 258.0342 274.17479 281.4126 274.17479 371.7681 233.61919 348.3872"/><polygon class="cls-19" points="240.09379 309.2857 240.09379 272.1426 267.70019 288.0572 267.70019 325.2017 240.09379 309.2857"/><path class="cls-12" d="m252.40429,279.2393l-12.3105-7.0967v19.4067c4.1035-4.1035,8.207-8.206,12.3105-12.31Z"/><path class="cls-12" d="m252.34569,316.3501l15.3545,8.8516v-24.2075c-5.1181,5.1196-10.2363,10.2368-15.3545,15.3559Z"/><polygon class="cls-21" points="242.64259 308.1314 242.64259 273.6118 240.09379 272.1426 240.09379 309.2857 242.64259 308.1314"/><polygon class="cls-21" points="147.2989 278.9199 147.2989 188.5655 206.10839 221.94 206.10839 312.2954 147.2989 278.9199"/><polygon class="cls-19" points="152.0381 274.8301 152.0381 197.8897 201.97269 226.1573 201.97269 303.0962 152.0381 274.8301"/><path class="cls-12" d="m201.97269,226.1831v-.0258l-16.34469-9.253c-11.19731,11.1963-22.39261,22.3931-33.5899,33.5889v24.3369l.8223.4648c16.3711-16.3701,32.7412-32.7407,49.1123-49.1118Z"/><path class="cls-12" d="m201.97269,276.7119v-19.7934l-29.4863,29.4863,12.63861,7.1548c5.61619-5.6152,11.23239-11.231,16.84769-16.8477Z"/><polygon class="cls-10" points="152.0381 274.8301 201.97269 303.0962 201.97269 298.8233 155.83009 272.7036 152.0381 274.8301"/><polygon class="cls-23" points="152.0381 197.8897 155.83009 200.0357 155.83009 272.6831 152.0381 274.8301 152.0381 197.8897"/><polygon class="cls-23" points="178.04489 212.6143 181.83689 214.7603 181.83689 287.4077 178.04489 289.5547 178.04489 212.6143"/><polygon class="cls-21" points="173.13769 209.7573 178.04489 212.6143 178.04489 289.5547 173.13769 286.6968 173.13769 209.7573"/><polygon class="cls-21" points="303.65239 362.5454 303.65239 272.19 339.61819 292.8457 339.61819 383.1997 303.65239 362.5454"/><polygon class="cls-19" points="308.39259 358.4556 308.39259 281.5152 335.48339 297.063 335.48339 374.0025 308.39259 358.4556"/><path class="cls-12" d="m335.48339,315.1939v-18.1309l-7.539-4.3271c-6.5166,6.519-13.0342,13.0361-19.5518,19.5537v29.998l27.0908-27.0937Z"/><path class="cls-12" d="m335.48339,345.3169v-22.707l-27.0908,27.0918v8.7539l8.8652,5.0879c6.07521-6.0762,12.1504-12.1504,18.2256-18.2266Z"/><polygon class="cls-10" points="308.39259 358.4556 335.48339 374.0025 335.48339 369.731 312.18459 356.3286 308.39259 358.4556"/><polygon class="cls-23" points="308.39259 281.5152 312.18459 283.6597 312.18459 356.3091 308.39259 358.4556 308.39259 281.5152"/><path class="cls-23" d="m266.42679,331.8013c0,1.2441,1.0088,2.2539,2.2529,2.2539,1.2422,0,2.252-1.0098,2.252-2.2539,0-1.2422-1.0098-2.25-2.252-2.25-1.2441,0-2.2529,1.0078-2.2529,2.25Z"/><polygon class="cls-7" points="530.40239 143.6348 555.48148 128.9224 555.48148 72.2959 530.40239 87.0088 530.40239 143.6348"/><polygon class="cls-31" points="530.40239 143.6348 514.40919 134.3662 514.40919 77.7393 530.40239 87.0088 530.40239 143.6348"/><polygon class="cls-36" points="514.40919 98.6968 514.40919 77.7393 530.40239 87.0083 555.48148 72.2959 555.48148 93.2534 530.40239 107.9654 514.40919 98.6968"/><polygon class="cls-8" points="530.52349 102.1807 559.45408 85.3096 559.45608 70.1685 530.52349 87.0415 530.52349 102.1807"/><polygon class="cls-7" points="530.52349 102.1807 511.67869 91.145 511.67479 76.0039 530.52349 87.0415 530.52349 102.1807"/><polygon class="cls-31" points="511.67479 76.3062 540.72949 59.4658 559.45608 70.1685 530.40239 87.0088 511.67479 76.3062"/><polygon class="cls-7" points="524.76369 74.0752 539.23639 65.5845 548.46488 70.9336 533.99319 79.4239 524.76369 74.0752"/><polygon class="cls-8" points="539.23639 65.5845 539.23639 76.3472 533.99319 79.4239 524.76369 74.0752 539.23639 65.5845"/><polygon class="cls-9" points="489.49419 152.0811 522.23639 180.0161 522.40629 182.3101 446.46979 147.7437 404.48339 127.4307 489.49419 152.0811"/><polygon class="cls-29" points="465.56449 222.7647 461.91119 224.8789 461.91119 208.6026 395.10839 179 391.73729 182.3101 461.91119 224.8789 465.56449 222.7647"/><polygon class="cls-32" points="461.91119 215.2842 461.91119 208.6026 395.10839 179 391.73729 182.3101 461.91119 215.2842"/><polygon class="cls-7" points="461.91119 224.8789 461.91119 208.6026 485.458 153.7232 511.67479 177.3882 511.67479 196.084 461.91119 224.8789"/><polygon class="cls-23" points="468.043 214.2188 468.043 198.0669 487.26759 158.8374 505.544 174.544 505.544 192.5191 468.043 214.2188"/><polygon class="cls-32" points="461.91119 208.6026 461.91119 215.2842 488.18649 161.7178 511.67479 181.6533 511.67479 177.3882 485.458 153.7232 461.91119 208.6026"/><polygon class="cls-27" points="471.14749 208.585 471.14749 196.3823 487.18749 163.6494 502.43849 176.7554 502.43849 190.4785 471.14749 208.585"/><path class="cls-28" d="m482.044,174.147l-3.793,7.7407,14.30659,14.3081,7.3057-4.228c-5.9394-5.9399-11.8789-11.8804-17.81929-17.8208Z"/><path class="cls-28" d="m475.81149,186.8638l-3.9531,8.0669c2.7959,2.7964,5.5918,5.5923,8.3897,8.3882l7.6133-4.4053c-4.0166-4.0166-8.0333-8.0332-12.0499-12.0498Z"/><polygon class="cls-39" points="501.06059 189.7896 471.14749 207.0977 471.14749 208.585 502.43849 190.4785 501.06059 189.7896"/><polygon class="cls-11" points="501.06059 175.5708 501.06059 189.7896 502.43849 190.4785 502.43849 176.7554 501.06059 175.5708"/><polygon class="cls-34" points="404.48339 127.4307 389.46489 180.0161 456.26559 219.8164 489.49419 152.0811 404.48339 127.4307"/><polygon class="cls-15" points="522.40629 182.3101 522.40629 180.0161 489.49419 152.0811 489.49419 154.3755 522.40629 182.3101"/><polygon class="cls-38" points="456.26559 222.1114 489.49419 154.3755 489.49419 152.0811 456.26559 219.8164 456.26559 222.1114"/><polygon class="cls-9" points="389.46489 180.0161 456.26559 219.8164 456.26559 222.1114 389.46489 182.0293 389.46489 180.0161"/><polygon class="cls-11" points="501.06059 177.0386 486.63379 164.771 487.18749 163.6494 501.06059 175.5708 501.06059 177.0386"/><polygon class="cls-23" points="489.49419 197.9693 489.49419 165.6143 487.18749 163.6494 486.378 165.2998 486.378 199.772 489.49419 197.9693"/><polygon class="cls-11" points="486.38089 165.2998 486.38089 199.772 485.08209 198.8594 485.08209 167.9927 486.38089 165.2998"/><polygon class="cls-35" points="267.70019 322.5357 242.64259 308.1314 240.09379 309.2857 267.70019 325.2017 267.70019 322.5357"/><path class="cls-36" d="m136.1211,307.0161c0,6.1817-7.1445,11.1934-15.958,11.1934s-15.958-5.0117-15.958-11.1934c0-6.1782,7.1445-11.1899,15.958-11.1899s15.958,5.0117,15.958,11.1899Z"/><path class="cls-23" d="m125.6446,305.1138c0,3.0293-2.4541,3.9902-5.4815,3.9902h0c-3.0283,0-5.4834-.9609-5.4834-3.9902v-65.4707c0-3.0278,2.4551-5.4829,5.4834-5.4829h0c3.0274,0,5.4815,2.4551,5.4815,5.4829v65.4707Z"/><path class="cls-32" d="m120.1631,234.1602c-3.0283,0-5.4834,2.4551-5.4834,5.4829v37.3579c1.7969.2275,3.624.3584,5.4834.3584,1.8584,0,3.6856-.1309,5.4815-.3584v-37.3579c0-3.0278-2.4541-5.4829-5.4815-5.4829Z"/><path class="cls-16" d="m151.5889,234.1602c0,17.3574-14.0703,31.4263-31.4258,31.4263-17.3574,0-31.4267-14.0689-31.4267-31.4263,0-17.356,14.0693-31.4268,31.4267-31.4268,17.3555,0,31.4258,14.0708,31.4258,31.4268Z"/><path class="cls-36" d="m120.1631,252.3242c-15.081,0-27.6748-10.624-30.7197-24.7949-.459,2.1382-.707,4.3555-.707,6.6309,0,17.3574,14.0693,31.4263,31.4267,31.4263,17.3555,0,31.4258-14.0689,31.4258-31.4263,0-2.2754-.2471-4.4927-.707-6.6309-3.045,14.1709-15.6377,24.7949-30.7188,24.7949Z"/><path class="cls-12" d="m132.2871,215.7979c0,6.6958-5.4287,12.1245-12.124,12.1245-6.6963,0-12.125-5.4287-12.125-12.1245,0-6.6968,5.4287-12.1245,12.125-12.1245,6.6953,0,12.124,5.4277,12.124,12.1245Z"/><path class="cls-36" d="m396.27249,459.6236c0,6.1816-7.14449,11.1933-15.958,11.1933s-15.9571-5.0117-15.9571-11.1933c0-6.1797,7.14361-11.1914,15.9571-11.1914s15.958,5.0117,15.958,11.1914Z"/><path class="cls-23" d="m385.79789,459.4966c0,3.0293-2.4541,3.9902-5.4834,3.9902h0c-3.0274,0-5.48049-.9609-5.48049-3.9902v-78.8144c0-3.0274,2.45309-5.4825,5.48049-5.4825h0c3.0293,0,5.4834,2.4551,5.4834,5.4825v78.8144Z"/><path class="cls-32" d="m380.31449,375.1997c-3.0274,0-5.48049,2.4551-5.48049,5.4825v42.7519c1.794.2383,3.62109.3711,5.48049.3711,1.8603,0,3.6894-.1328,5.4834-.3711v-42.7519c0-3.0274-2.4541-5.4825-5.4834-5.4825Z"/><path class="cls-16" d="m411.74219,375.1997c0,17.3575-14.0703,31.4258-31.4277,31.4258-17.35649,0-31.4248-14.0683-31.4248-31.4258s14.06831-31.4257,31.4248-31.4257c17.3574,0,31.4277,14.0683,31.4277,31.4257Z"/><path class="cls-36" d="m380.31449,395.6255c-15.47849,0-28.333-11.1933-30.9356-25.9258-.3154,1.7852-.4892,3.6231-.4892,5.5,0,17.3575,14.06831,31.4258,31.4248,31.4258,17.3574,0,31.4277-14.0683,31.4277-31.4258,0-1.8769-.1748-3.7148-.49019-5.5-2.60061,14.7325-15.45711,25.9258-30.93751,25.9258Z"/><path class="cls-12" d="m391.70509,356.0591c0,6.2891-5.0986,11.3867-11.3877,11.3867-6.29,0-11.3906-5.0976-11.3906-11.3867,0-6.291,5.1006-11.3887,11.3906-11.3887,6.2891,0,11.3877,5.0977,11.3877,11.3887Z"/><path class="cls-36" d="m140.6406,395.6568c0,3.6875-4.2656,6.6816-9.5283,6.6816s-9.5283-2.9941-9.5283-6.6816c0-3.6914,4.2656-6.6836,9.5283-6.6836s9.5283,2.9922,9.5283,6.6836Z"/><polygon class="cls-23" points="131.0508 321.1802 134.3682 319.0884 134.3682 395.9732 131.0508 398.1197 131.0508 321.1802"/><polygon class="cls-21" points="127.833 319.0884 131.0508 321.1802 131.0508 398.1197 127.833 396.0279 127.833 319.0884"/><polygon class="cls-32" points="131.0508 321.1802 127.833 319.0884 127.833 338.7505 131.0508 340.8423 134.3682 338.6958 134.3682 319.0884 131.0508 321.1802"/><path class="cls-38" d="m143.5088,303.0728c-.9863-.5742-1.9072-.6934-2.7021-.4356h0l-22.0489,12.7852,8.5274,19.5371,21.5976-12.6016v-7.8066c0-4.6074-2.4062-9.7461-5.374-11.4785Z"/><path class="cls-6" d="m127.2852,334.9595v-7.8047c0-4.6094-2.4063-9.748-5.374-11.4805-2.9688-1.7304-5.3741.6016-5.3741,5.211v8.5586l10.7481,5.5156Z"/><path class="cls-38" d="m127.2852,335.0376l-6.3672,4.5137c-3.7588,2.666-9.3428,3.6758-12.4727,2.2559-3.1289-1.42-2.6181-4.7325,1.1407-7.3965l6.9834-4.9512,10.7158,5.5781Z"/><polygon class="cls-24" points="130.4346 326.7935 140.1114 321.3911 140.4864 324.4458 137.8906 325.895 137.8311 324.315 130.5742 328.3931 130.4346 326.7935"/><path class="cls-2" d="m127.2852,327.1548c0-1.4648-.2442-2.9824-.6719-4.4297l-10.0439,6.7344.0009.0039,10.7149,5.4961v-7.8047Z"/><path class="cls-5" d="m279.57809,441.8345c0,12.2754-9.95009,22.2227-22.2226,22.2227s-22.2217-9.9473-22.2217-22.2227c0-12.2734,9.94921-66.6035,22.2217-66.6035s22.2226,54.3301,22.2226,66.6035Z"/><path class="cls-12" d="m259.03029,399.5493c-.69629,3.7071-4.2676,6.1504-7.9756,5.4532-3.708-.6993-5.0996-4.2676-4.4033-7.9766s5.7383-19.5586,9.4463-18.8613c3.709.6972,3.6299,17.6758,2.9326,21.3847Z"/><path class="cls-36" d="m257.35549,441.4009c-9.3867,0-17.39549-5.8281-20.6524-14.0547-1.0117,6.3301-1.5693,11.586-1.5693,14.4883,0,12.2754,9.94921,22.2227,22.2217,22.2227s22.2226-9.9473,22.2226-22.2227c0-2.9023-.5576-8.1582-1.5693-14.4883-3.25679,8.2266-11.2666,14.0547-20.6533,14.0547Z"/><path class="cls-25" d="m306.59569,458.1861c0,12.2734-9.9492,22.2226-22.2226,22.2226-12.2725,0-22.2207-9.9492-22.2207-22.2226s9.9482-66.6036,22.2207-66.6036c12.2734,0,22.2226,54.3301,22.2226,66.6036Z"/><path class="cls-12" d="m285.666,416.4068c-.69621,3.707-4.26661,6.1464-7.97551,5.4492-3.7081-.6953-5.1006-4.2656-4.4034-7.9746.6963-3.7071,5.7383-19.5586,9.4463-18.8633,3.709.6992,3.6299,17.6797,2.93261,21.3887Z"/><path class="cls-36" d="m284.37309,457.7505c-9.3858,0-17.3955-5.8262-20.6524-14.0547-1.01169,6.3321-1.5683,11.5879-1.5683,14.4903,0,12.2734,9.9482,22.2226,22.2207,22.2226,12.2734,0,22.2226-9.9492,22.2226-22.2226,0-2.9024-.5566-8.1582-1.5693-14.4903-3.2559,8.2285-11.2666,14.0547-20.6533,14.0547Z"/><path class="cls-16" d="m334.27439,473.8657c0,12.2735-9.9492,22.2208-22.2216,22.2208-12.2735,0-22.2217-9.9473-22.2217-22.2208,0-12.2714,9.9482-66.6015,22.2217-66.6015,12.2724,0,22.2216,54.3301,22.2216,66.6015Z"/><path class="cls-12" d="m313.35349,433.2759c-.6972,3.707-4.26749,6.1465-7.97649,5.4492-3.708-.6953-5.09961-4.2656-4.40241-7.9746.6953-3.707,5.7383-19.5586,9.4453-18.8633,3.709.6993,3.6299,17.6797,2.9336,21.3887Z"/><path class="cls-36" d="m312.05279,473.4322c-9.38679,0-17.3965-5.8282-20.6524-14.0567-1.0127,6.334-1.5693,11.5879-1.5693,14.4902,0,12.2735,9.9482,22.2208,22.2217,22.2208,12.2724,0,22.2216-9.9473,22.2216-22.2208,0-2.9023-.5566-8.1601-1.5683-14.4902-3.2569,8.2285-11.2676,14.0567-20.6533,14.0567Z"/><polygon class="cls-14" points="678.06738 303.9126 347.208 494.9634 347.208 482.2622 678.06738 291.211 678.06738 303.9126"/><polyline class="cls-33" points="678.06738 291.211 676.36618 290.2466 345.28319 481.4282 347.208 482.2622 678.06738 291.211"/><polygon class="cls-17" points="347.208 482.2622 345.28319 481.4282 345.28319 493.9986 347.208 494.9634 347.208 482.2622"/><polygon class="cls-1" points="657.624 291.5308 657.626 344.6939 646.85258 351.0435 646.85058 297.876 652.23728 286.1294 657.624 291.5308"/><polygon class="cls-26" points="646.85058 297.876 646.85258 351.0435 643.45218 349.1138 643.45218 295.9468 646.85058 297.876"/><polygon class="cls-33" points="646.85058 297.876 643.45218 295.9468 648.83888 284.2002 652.23928 286.1294 646.85058 297.876"/><polygon class="cls-1" points="675.85648 280.0303 675.85648 333.1939 665.084 339.5415 665.084 286.3755 670.46978 274.6289 675.85648 280.0303"/><polygon class="cls-26" points="665.084 286.3755 665.084 339.5415 661.68558 337.6118 661.68358 284.4458 665.084 286.3755"/><polygon class="cls-33" points="665.084 286.3755 661.68358 284.4458 667.07128 272.6997 670.46978 274.6289 665.084 286.3755"/><polygon class="cls-1" points="639.39258 302.3013 639.39258 355.4673 628.61918 361.815 628.61918 308.647 634.00588 296.9014 639.39258 302.3013"/><polygon class="cls-26" points="628.61918 308.647 628.61918 361.815 625.22068 359.8853 625.21878 306.7173 628.61918 308.647"/><polygon class="cls-33" points="628.61918 308.647 625.21878 306.7173 630.60738 294.9717 634.00588 296.9014 628.61918 308.647"/><polygon class="cls-1" points="621.15918 312.4849 621.15918 365.6529 610.38668 371.9966 610.38668 318.8325 615.77348 307.0865 621.15918 312.4849"/><polygon class="cls-26" points="610.38668 318.8325 610.38668 371.9966 606.98828 370.0689 606.98638 316.9029 610.38668 318.8325"/><polygon class="cls-33" points="610.38668 318.8325 606.98638 316.9029 612.375 305.1568 615.77348 307.0865 610.38668 318.8325"/><polygon class="cls-1" points="602.92678 323.2564 602.92868 376.4224 592.15528 382.77 592.15328 329.604 597.54008 317.8579 602.92678 323.2564"/><polygon class="cls-26" points="592.15328 329.604 592.15528 382.77 588.75488 380.8404 588.75488 327.6743 592.15328 329.604"/><polygon class="cls-33" points="592.15328 329.604 588.75488 327.6743 594.14158 315.9282 597.542 317.8579 592.15328 329.604"/><polygon class="cls-1" points="584.69528 332.2349 584.69528 385.4009 573.92288 391.7466 573.92288 338.5806 579.30858 326.8345 584.69528 332.2349"/><polygon class="cls-26" points="573.92288 338.5806 573.92288 391.7466 570.52438 389.8169 570.52248 336.6529 573.92288 338.5806"/><polygon class="cls-33" points="573.92288 338.5806 570.52248 336.6529 575.91118 324.9048 579.30858 326.8345 573.92288 338.5806"/><polygon class="cls-1" points="566.46288 343.0044 566.46488 396.1724 555.69138 402.5181 555.68948 349.354 561.07618 337.606 566.46288 343.0044"/><polygon class="cls-26" points="555.68948 349.354 555.69138 402.5181 552.291 400.5884 552.291 347.4224 555.68948 349.354"/><polygon class="cls-33" points="555.68948 349.354 552.291 347.4224 557.67868 335.6782 561.07808 337.606 555.68948 349.354"/><polygon class="cls-1" points="548.23148 353.4927 548.23148 406.6568 537.458 413.0044 537.458 359.8384 542.84479 348.0904 548.23148 353.4927"/><polygon class="cls-26" points="537.458 359.8384 537.458 413.0044 534.05959 411.0747 534.05759 357.9087 537.458 359.8384"/><polygon class="cls-33" points="537.458 359.8384 534.05759 357.9087 539.44729 346.1626 542.84479 348.0904 537.458 359.8384"/><polygon class="cls-1" points="529.99809 364.2642 530 417.4282 519.22759 423.7759 519.22559 370.6099 524.61229 358.8618 529.99809 364.2642"/><polygon class="cls-26" points="519.22559 370.6099 519.22759 423.7759 515.82719 421.8462 515.82719 368.6802 519.22559 370.6099"/><polygon class="cls-33" points="519.22559 370.6099 515.82719 368.6802 521.21389 356.9341 524.61429 358.8618 519.22559 370.6099"/><polygon class="cls-1" points="511.76759 376.0103 511.76759 429.1763 500.99419 435.522 500.99419 382.356 506.38089 370.6099 511.76759 376.0103"/><polygon class="cls-26" points="500.99419 382.356 500.99419 435.522 497.59669 433.5923 497.59479 380.4263 500.99419 382.356"/><polygon class="cls-33" points="500.99419 382.356 497.59479 380.4263 502.98339 368.6802 506.38089 370.6099 500.99419 382.356"/><polygon class="cls-1" points="493.53519 386.7818 493.53709 439.9458 482.76269 446.2935 482.76079 393.1275 488.14749 381.3794 493.53519 386.7818"/><polygon class="cls-26" points="482.76079 393.1275 482.76269 446.2935 479.36329 444.3638 479.36329 391.1978 482.76079 393.1275"/><polygon class="cls-33" points="482.76079 393.1275 479.36329 391.1978 484.75 379.4517 488.14939 381.3794 482.76079 393.1275"/><polygon class="cls-1" points="475.30369 396.9654 475.30369 450.1314 464.53029 456.4771 464.53029 403.313 469.917 391.5669 475.30369 396.9654"/><polygon class="cls-26" points="464.53029 403.313 464.53029 456.4771 461.13279 454.5474 461.13089 401.3833 464.53029 403.313"/><polygon class="cls-33" points="464.53029 403.313 461.13089 401.3833 466.51959 389.6372 469.917 391.5669 464.53029 403.313"/><polygon class="cls-1" points="457.07129 407.7368 457.07329 460.9048 446.29889 467.2486 446.29689 414.0845 451.68359 402.3384 457.07129 407.7368"/><polygon class="cls-26" points="446.29689 414.0845 446.29889 467.2486 442.89939 465.3189 442.89939 412.1548 446.29689 414.0845"/><polygon class="cls-33" points="446.29689 414.0845 442.89939 412.1548 448.28619 400.4087 451.68559 402.3384 446.29689 414.0845"/><polygon class="cls-1" points="438.83989 416.7134 438.83989 469.8814 428.06639 476.2271 428.06639 423.0611 433.45309 411.315 438.83989 416.7134"/><polygon class="cls-26" points="428.06639 423.0611 428.06639 476.2271 424.669 474.2954 424.667 421.1314 428.06639 423.0611"/><polygon class="cls-33" points="428.06639 423.0611 424.667 421.1314 430.05469 409.3853 433.45309 411.315 428.06639 423.0611"/><polygon class="cls-1" points="420.60739 427.4849 420.60739 480.6529 409.833 486.9966 409.833 433.8325 415.22069 422.0865 420.60739 427.4849"/><polygon class="cls-26" points="409.833 433.8325 409.833 486.9966 406.43559 485.0689 406.43359 431.9029 409.833 433.8325"/><polygon class="cls-33" points="409.833 433.8325 406.43359 431.9029 411.82229 420.1568 415.22069 422.0865 409.833 433.8325"/><polygon class="cls-1" points="402.374 437.9732 402.376 491.1372 391.60159 497.4849 391.59959 444.3169 396.98729 432.5708 402.374 437.9732"/><polygon class="cls-26" points="391.59959 444.3169 391.60159 497.4849 388.20219 495.5552 388.20219 442.3872 391.59959 444.3169"/><polygon class="cls-33" points="391.59959 444.3169 388.20219 442.3872 393.58889 430.6411 396.98929 432.5708 391.59959 444.3169"/><polygon class="cls-1" points="384.14259 448.7427 384.14259 501.9087 373.36919 508.2544 373.36919 455.0884 378.75689 443.3423 384.14259 448.7427"/><polygon class="cls-26" points="373.36919 455.0884 373.36919 508.2544 369.97169 506.3267 369.96979 453.1587 373.36919 455.0884"/><polygon class="cls-33" points="373.36919 455.0884 369.96979 453.1587 375.35839 441.4126 378.75689 443.3423 373.36919 455.0884"/><polygon class="cls-1" points="365.91019 459.0982 365.91209 512.2642 355.13769 518.6118 355.13669 465.4439 360.52349 453.6978 365.91019 459.0982"/><polygon class="cls-26" points="355.13669 465.4439 355.13769 518.6118 351.73829 516.6822 351.73729 463.5142 355.13669 465.4439"/><polygon class="cls-33" points="355.13669 465.4439 351.73729 463.5142 357.125 451.7681 360.52539 453.6978 355.13669 465.4439"/></g></g></g></svg>