<svg xmlns="http://www.w3.org/2000/svg" width="59.047" height="69.389" viewBox="0 0 59.047 69.389"><g transform="matrix(0.985, -0.174, 0.174, 0.985, -9.01, 8.388)"><path d="M38,26c6.38,0,10.455-5.615,10.949-10.1,3.512-.759,6.866-7.482,3.86-6.881-1.429.272-2.276-.88-3.661-2.949C47.636,3.811,45.752,1,42,1a7.908,7.908,0,0,0-4.241.93,6.369,6.369,0,0,0-4.824,1.08c-1.827,1.378-2.8,3.842-2.912,7.3a3.2,3.2,0,0,0-1.138,1.79,4.848,4.848,0,0,0,1.128,4.9C30.177,20.385,31.984,26,38,26Zm0-2c-5.906,0-6-7.195-6-7.5a1,1,0,0,0-.468-.845c-1.106-.695-1.047-2.94-.418-3.652,1.979.055,1.465,1.244,2.617.971a9.523,9.523,0,0,0,4.158-2.4c1.335,1.712,4.424,4.929,9.034,5.375C46.422,19.242,43.441,24,38,24ZM34.123,4.619a4.537,4.537,0,0,1,3.6-.657C38.718,4.245,38.477,3,42,3c2.685,0,4.046,2.032,5.486,4.183,1.062,1.585,2.242,3.329,4.026,3.769C50.878,12.222,49.691,14,48,14c-5.717,0-9.111-5.463-9.146-5.519a1,1,0,0,0-1.638-.1,8.8,8.8,0,0,1-3.426,2.494,3.969,3.969,0,0,0-1.764-.775c.128-2.665.828-4.511,2.1-5.478Z" fill="#e4e4e4"/><path d="M55.878,28.6c-1.159-2.12-6.594-6.072-7.427-6.493a1,1,0,1,0-.9,1.784c.793.4,5.735,4.134,6.572,5.666.54.994,1.336,8.621,1.827,15.711-1.563.424-5.333,1.234-8.3.225a45.778,45.778,0,0,0,3.338-10.319,1,1,0,1,0-1.969-.348A43.256,43.256,0,0,1,45.891,44.5a63.037,63.037,0,0,0-2.31,6.167c0,.005,0,.01-.005.015A38.12,38.12,0,0,0,42,62a1,1,0,0,0,2,0,42.288,42.288,0,0,1,.235-4.53c.381,2.63.756,4.582.783,4.72A1,1,0,0,0,46,63a1.037,1.037,0,0,0,.191-.018,1,1,0,0,0,.791-1.172,105.686,105.686,0,0,1-1.445-10.7c.406-1.319.866-2.554,1.352-3.767a12.3,12.3,0,0,0,4.078.645,21.737,21.737,0,0,0,6.357-1.038A1,1,0,0,0,58,45.934c-.168-2.555-1.066-15.4-2.118-17.333Z" fill="#e4e4e4"/><path d="M43,37c0-1.493-1.237-3-4-3-3.29,0-13.365,4.414-19.237,7.122.162-.435.3-.833.408-1.145.847-.149.549-.487,4.7-7.481a1,1,0,0,0-1.736-.992l-3.717,6.5C15.061,37.939,11.5,35,10.233,33.816c2.291-4.178,8.152-13.2,12.9-13.825a10.9,10.9,0,0,1,4.593.2,1,1,0,0,0,.683-1.879,12.485,12.485,0,0,0-5.538-.3c-7.057.932-14.443,14.932-14.755,15.528a1,1,0,0,0,.146,1.134c.185.205,4.191,4.548,9.818,5.237a24.836,24.836,0,0,1-1.012,2.475c-.72.341-1.246.594-1.5.717a1,1,0,1,0,.871,1.8C21.559,42.425,35.6,36,39,36c.923,0,2,.262,2,1,0,5.614-24.489,15.188-28,15.188-2.479,0-5-3.167-5-4.938,0-1.922,1.094-5.048,1.747-6.916.006-.1.753-1.436-.421-1.842s-1.4,1.082-1.468,1.182C7.164,41.661,6,44.988,6,47.25c0,2.886,3.28,6.716,6.718,6.918A67.692,67.692,0,0,0,12,62a1,1,0,0,0,2,0,71.265,71.265,0,0,1,.778-8.111C21.716,52.221,43,43.778,43,37Z" fill="#e4e4e4"/><path d="M55,56.5V50.125a1,1,0,0,0-2,0V56.5c0,2.408,1.79,5.823,1.866,5.967a1,1,0,0,0,1.768-.935A14.226,14.226,0,0,1,55,56.5Z" fill="#e4e4e4"/><path d="M34.554,33.859a4.3,4.3,0,0,1,4.311-.913,1,1,0,0,0,.647-1.893A6.29,6.29,0,0,0,33.2,32.39a1,1,0,0,0,1.356,1.469Z" fill="#e4e4e4"/><path d="M40.51,44.746a3.421,3.421,0,0,1-3.932,1.292,1,1,0,0,0-.656,1.889,5.424,5.424,0,0,0,6.237-2.05,1,1,0,1,0-1.649-1.131Z" fill="#e4e4e4"/><path d="M42.743,48.894a1,1,0,0,0-1.412-.074,6.957,6.957,0,0,1-8.75.492,1,1,0,1,0-1.163,1.627,8.944,8.944,0,0,0,11.25-.633,1,1,0,0,0,.075-1.412Z" fill="#e4e4e4"/><path d="M36.56,27.793a1,1,0,0,0-1.079-.915A9.012,9.012,0,0,0,28.1,31.992a1,1,0,0,0,1.809.854,7.006,7.006,0,0,1,5.74-3.976,1,1,0,0,0,.915-1.077Z" fill="#e4e4e4"/></g></svg>