<?xml version="1.0" encoding="UTF-8"?>
<svg id="_レイヤー_2" data-name="レイヤー 2" xmlns="http://www.w3.org/2000/svg" viewBox="0 0 391.98 60.68">
  <defs>
    <style>
      .cls-1 {
        fill: none;
      }

      .cls-1, .cls-2 {
        stroke: #222221;
        stroke-linecap: round;
        stroke-linejoin: round;
      }

      .cls-2 {
        fill: #fff;
      }
    </style>
  </defs>
  <g id="OBJECTS">
    <g>
      <path class="cls-1" d="m118.72,21.01s4.78,11.01.19,39.18"/>
      <path class="cls-1" d="m106.58,25.35s3.75,15.41,14.17,13.91c10.42-1.51,12.61-13.68,11.08-15.89"/>
      <path class="cls-2" d="m134.41,17.07c1.16,1.68.75,3.98-.93,5.15-1.68,1.17-3.98.75-5.15-.93-1.17-1.68-.75-3.98.93-5.15,1.68-1.17,3.98-.75,5.15.93Z"/>
      <path class="cls-2" d="m121.49,14.98c1.16,1.68.75,3.98-.93,5.15-1.68,1.17-3.98.75-5.15-.93-1.17-1.68-.75-3.98.93-5.15,1.68-1.17,3.98-.75,5.15.93Z"/>
      <path class="cls-2" d="m109.08,19.51c1.17,1.68.75,3.98-.93,5.15-1.68,1.16-3.98.75-5.15-.93-1.16-1.68-.75-3.98.93-5.15,1.68-1.16,3.98-.75,5.15.93Z"/>
    </g>
    <g>
      <path class="cls-1" d="m267.52,6.04s-2.98,14.46-2.02,54.14"/>
      <path class="cls-1" d="m255.42,12.1s7.75,7.75,10.26,14.47c0,0,8.91-16.49,12.94-16.49"/>
      <path class="cls-1" d="m275.93,35.13s-7.74,7.75-10.26,14.47c0,0-8.91-16.49-12.94-16.49"/>
      <path class="cls-2" d="m284.17,7.31c0,1.53-1.24,2.77-2.77,2.77s-2.77-1.24-2.77-2.77,1.24-2.77,2.77-2.77,2.77,1.24,2.77,2.77Z"/>
      <path class="cls-2" d="m271.96,3.27c0,1.53-1.24,2.77-2.77,2.77s-2.77-1.24-2.77-2.77,1.24-2.77,2.77-2.77,2.77,1.24,2.77,2.77Z"/>
      <path class="cls-2" d="m255.5,10.08c0,1.53-1.24,2.77-2.77,2.77s-2.77-1.24-2.77-2.77,1.24-2.77,2.77-2.77,2.77,1.24,2.77,2.77Z"/>
      <path class="cls-2" d="m252.72,33.11c0,1.53-1.24,2.77-2.77,2.77s-2.77-1.24-2.77-2.77,1.24-2.77,2.77-2.77,2.77,1.24,2.77,2.77Z"/>
      <path class="cls-2" d="m280.64,33.45c0,1.53-1.24,2.77-2.77,2.77s-2.77-1.24-2.77-2.77,1.24-2.77,2.77-2.77,2.77,1.24,2.77,2.77Z"/>
    </g>
    <g>
      <path class="cls-2" d="m217.23,26.36s10.61-7.58,10.61-13.98-5.4-5.68-5.4-5.68c-5.01,0-5.21,5.68-5.21,5.68,0,0-.2-5.68-5.21-5.68,0,0-5.4-.71-5.4,5.68s10.61,13.98,10.61,13.98Z"/>
      <g>
        <path class="cls-2" d="m210.72,49.01c1.57,1.55,7.4,9.57,6.03,10.96-1.38,1.39-9.45-4.37-11.02-5.92-1.57-1.55-1.72-3.94-.34-5.33,1.38-1.39,3.77-1.26,5.33.3Z"/>
        <path class="cls-2" d="m223.85,49.01c-1.57,1.55-7.4,9.57-6.02,10.96,1.38,1.39,9.45-4.37,11.02-5.92,1.57-1.55,1.72-3.94.35-5.33-1.38-1.39-3.77-1.26-5.34.3Z"/>
      </g>
      <g>
        <path class="cls-2" d="m210.72,32.44c1.57,1.55,7.4,9.57,6.03,10.96-1.38,1.39-9.45-4.37-11.02-5.92-1.57-1.55-1.72-3.94-.34-5.33,1.38-1.39,3.77-1.26,5.33.29Z"/>
        <path class="cls-2" d="m223.85,32.44c-1.57,1.55-7.4,9.57-6.02,10.96,1.38,1.39,9.45-4.37,11.02-5.92,1.57-1.55,1.72-3.94.35-5.33-1.38-1.39-3.77-1.26-5.34.29Z"/>
      </g>
      <line class="cls-1" x1="217.29" y1="27.11" x2="217.82" y2="59.97"/>
    </g>
    <g>
      <path class="cls-2" d="m67.6,60.11c-4.7-13.91-17.69-11.65-17.69-11.65,0,0,3.05,12.82,17.69,11.65Z"/>
      <path class="cls-2" d="m67.4,59.95c4.94-13.83,17.89-11.33,17.89-11.33,0,0-3.27,12.77-17.89,11.33Z"/>
      <path class="cls-2" d="m67.32,43.01c-3.14-9.31-11.84-7.79-11.84-7.79,0,0,2.04,8.58,11.84,7.79Z"/>
      <path class="cls-2" d="m67.19,42.91c3.31-9.26,11.97-7.59,11.97-7.59,0,0-2.19,8.55-11.97,7.59Z"/>
      <line class="cls-1" x1="67.4" y1="59.95" x2="67.63" y2="26.81"/>
      <path class="cls-2" d="m73.78,4.76c-1.1,1.63-2.27,4.78-2.27,6.49,0,0-1.83-7.54-3.98-8.4-2.15.86-3.98,8.4-3.98,8.4,0-1.68-1.09-4.72-2.2-6.39-3.59,3.12-3.61,9.09-3.61,12.99,0,5.46,4.43,9.89,9.89,9.89s9.89-4.43,9.89-9.89c0-3.94-.03-10-3.74-13.09Z"/>
    </g>
    <g>
      <path class="cls-2" d="m361.9,33.69c-4.27-15.01-17.94-11.14-17.94-11.14,0,0,2.6,13.97,17.94,11.14Z"/>
      <path class="cls-2" d="m367.28,27.24c11.33-10.74,1.56-21.06,1.56-21.06,0,0-11.18,8.77-1.56,21.06Z"/>
      <path class="cls-2" d="m362.08,53.95c-4.27-15.01-17.95-11.14-17.95-11.14,0,0,2.6,13.97,17.95,11.14Z"/>
      <path class="cls-2" d="m373.54,33.69c4.27-15.01,17.95-11.14,17.95-11.14,0,0-2.6,13.97-17.95,11.14Z"/>
      <path class="cls-2" d="m373.36,54.13c4.27-15.01,17.95-11.14,17.95-11.14,0,0-2.6,13.97-17.95,11.14Z"/>
      <path class="cls-1" d="m361.9,33.66s3.31.89,5.32,6.26c0,0,3.09-6.23,6.31-6.23"/>
      <path class="cls-1" d="m361.9,53.92s3.31.89,5.32,6.26c0,0,3.09-6.23,6.31-6.23"/>
      <line class="cls-1" x1="367.28" y1="27.24" x2="367.22" y2="60.18"/>
    </g>
    <g>
      <path class="cls-2" d="m168.12,39.26c-.95-15.84-15.13-17.16-15.13-17.16,0,0-.46,14.24,15.13,17.16Z"/>
      <path class="cls-1" d="m172.05,59.91c-6.09-14.65-19.93-11.25-19.93-11.25,0,0,4.23,13.6,19.93,11.25Z"/>
      <path class="cls-2" d="m171.23,20.04c15.23-4.45,13.36-18.58,13.36-18.58,0,0-13.98,2.72-13.36,18.58Z"/>
      <path class="cls-2" d="m172.05,59.91c-6.09-14.65-19.93-11.25-19.93-11.25,0,0,4.23,13.6,19.93,11.25Z"/>
      <path class="cls-2" d="m168.12,39.26c5.27-14.97,19.27-12.34,19.27-12.34,0,0-3.47,13.81-19.27,12.34Z"/>
      <path class="cls-2" d="m172.05,59.91c15.57-3.05,14.99-17.28,14.99-17.28,0,0-14.17,1.44-14.99,17.28Z"/>
      <path class="cls-1" d="m172.05,59.91s-8.14-23.87-.74-39.93"/>
      <line class="cls-1" x1="171.23" y1="20.04" x2="180" y2="7.64"/>
      <line class="cls-1" x1="168.12" y1="39.26" x2="179.83" y2="31.43"/>
      <line class="cls-1" x1="158.32" y1="29.13" x2="168.12" y2="39.26"/>
      <line class="cls-1" x1="158.67" y1="52.23" x2="171.63" y2="59.52"/>
      <line class="cls-1" x1="182.54" y1="48.44" x2="172.05" y2="59.91"/>
    </g>
    <g>
      <path class="cls-1" d="m16.68,37.15c.63-2.26,2.07-4.31,4.21-5.68,3.69-2.36,8.6-1.29,10.97,2.4,1.89,2.95,1.03,6.88-1.92,8.77-2.36,1.51-5.51.83-7.02-1.54-1.21-1.89-.66-4.41,1.23-5.62,1.51-.97,3.52-.53,4.49.98.77,1.21.42,2.82-.79,3.59"/>
      <path class="cls-1" d="m5.5,40.01c-1.21-.78-1.55-2.39-.77-3.6.98-1.51,2.99-1.94,4.5-.96,1.88,1.22,2.42,3.73,1.2,5.62-1.53,2.36-4.67,3.03-7.03,1.5-2.94-1.91-3.78-5.84-1.88-8.78,2.38-3.68,7.3-4.73,10.98-2.35,2.24,1.45,3.7,3.64,4.26,6.04v2.9s-1.81,8.16,1.3,19.79"/>
      <path class="cls-2" d="m11.6,19.97c0,2.83,5.1,10.19,5.1,10.19,0,0,5.14-7.34,5.15-10.17,0-2.83-2.28-5.12-5.11-5.13-2.83,0-5.13,2.28-5.13,5.11Z"/>
    </g>
    <g>
      <g>
        <path class="cls-2" d="m307.5,49.01c1.57,1.55,7.4,9.57,6.02,10.96-1.38,1.39-9.45-4.37-11.02-5.92-1.57-1.55-1.72-3.94-.34-5.33,1.38-1.39,3.77-1.26,5.34.29Z"/>
        <path class="cls-2" d="m320.62,49.01c-1.57,1.55-7.4,9.57-6.02,10.96,1.38,1.39,9.45-4.37,11.01-5.92,1.57-1.55,1.72-3.94.35-5.33-1.38-1.39-3.77-1.26-5.34.29Z"/>
      </g>
      <g>
        <path class="cls-2" d="m307.5,32.44c1.57,1.55,7.4,9.57,6.02,10.96-1.38,1.39-9.45-4.37-11.02-5.92-1.57-1.55-1.72-3.94-.34-5.33,1.38-1.39,3.77-1.26,5.34.29Z"/>
        <path class="cls-2" d="m320.62,32.44c-1.57,1.55-7.4,9.57-6.02,10.96,1.38,1.39,9.45-4.37,11.01-5.92,1.57-1.55,1.72-3.94.35-5.33-1.38-1.39-3.77-1.26-5.34.29Z"/>
      </g>
      <g>
        <path class="cls-2" d="m323.51,18.14c.09,5.99-4.69,9.04-9.64,9.12-4.96.08-9.83-2.83-9.92-8.82-.09-5.99,9.52-16.64,9.52-16.64,0,0,9.94,10.34,10.03,16.33Z"/>
        <path class="cls-1" d="m317.29,6.23s.39,9.27-.75,10.85"/>
        <path class="cls-1" d="m310.26,6.34s-.1,9.28,1.09,10.82"/>
      </g>
      <line class="cls-1" x1="314.06" y1="27.11" x2="314.6" y2="59.97"/>
    </g>
  </g>
</svg>