<?xml version="1.0" encoding="UTF-8"?>
<svg id="_レイヤー_2" data-name="レイヤー 2" xmlns="http://www.w3.org/2000/svg" viewBox="0 0 406.4 425.7">
  <defs>
    <style>
      .cls-1 {
        fill: #fff;
      }

      .cls-1, .cls-2 {
        stroke-width: 0px;
      }

      .cls-2 {
        fill: #414042;
      }
    </style>
  </defs>
  <g id="Layer_1" data-name="Layer 1">
    <g>
      <path class="cls-2" d="m55.96,93.19c-1.44-2.23-2.61-4.19-3.9-6.05-2.8-4.02-5.79-7.91-8.46-12.01-4.49-6.9-3.06-10.88,4.32-14.16,26-11.55,51.88-23.33,76.33-38.03,11.39-6.85,22.99-13.35,34.51-19.99,1.61-.93,3.24-1.92,4.98-2.53,3.74-1.3,7.26.81,6.66,4.5-1.31,8,4.34,13.32,6.23,20.81,3.04-1.2,5.43-1.95,7.64-3.06,8.95-4.52,17.83-9.16,26.75-13.73,4.77-2.45,9.52-4.94,14.33-7.29,6.2-3.02,12.01-1.78,16.82,2.69,3.37,3.14,6.25,6.91,8.84,10.74,21.31,31.51,41.27,63.82,59.34,97.33,29.1,53.98,58.97,107.56,85.49,162.89,3.12,6.51,6.14,13.09,8.91,19.76,3.69,8.88,1.2,15.12-7.03,19.9-62.55,36.32-127.96,67.13-192.37,99.86-6.84,3.48-13.94,6.56-21.17,9.11-9.89,3.48-13.87,2.03-19.55-6.6-4.1-6.23-7.89-12.67-11.45-19.22-29.04-53.52-60.27-105.76-91.61-157.95-18.85-31.39-37.21-63.07-55.75-94.64-1.65-2.81-3.19-5.72-4.4-8.73-2.72-6.83-1.69-11.04,4.4-15.12,6.18-4.14,12.73-7.77,19.24-11.4,8.15-4.54,16.44-8.82,24.64-13.26,2.02-1.09,3.92-2.38,6.26-3.82Zm-46.12,37.75c1.19,2.62,1.98,4.79,3.11,6.76,7.85,13.78,15.6,27.61,23.7,41.24,28.24,47.51,56.85,94.81,84.82,142.48,15.93,27.15,30.56,55.05,46.44,82.24,8.27,14.16,5.49,14.69,22.43,7.05,19.54-8.81,38.86-18.21,57.78-28.3,47.51-25.33,96.82-47.24,142.96-75.17,5.47-3.31,6.26-4.36,3.45-10.52-5.32-11.66-10.8-23.26-16.45-34.77-29.19-59.48-61.23-117.45-93.69-175.16-13.47-23.95-29.23-46.62-44.18-69.72-5.01-7.74-7.43-8.19-15.62-4.02-9.97,5.07-19.78,10.46-29.71,15.62-4.49,2.33-9.1,4.45-13.82,6.74,1.33,3.29,2.6,6.04,3.57,8.89,4.54,13.22,9.28,26.37,13.37,39.73,2.48,8.1,1.3,9.97-5.74,14.43-28.23,17.9-57.61,33.55-88.97,45.32-7.49,2.81-9.38,2.47-14.16-4.16-7.64-10.6-15.1-21.32-22.67-31.96-1.44-2.03-3.02-3.95-4.67-6.1-17.16,10.65-35.44,17.98-51.96,29.36Zm42.28-61.01c15.72,22.32,30.7,43.58,45.66,64.81,32.85-11.48,62.36-27.53,90.46-45.85-1.15-12.52-19.79-61.79-28.49-75.26-34.36,20.89-69.41,40.6-107.63,56.3Z"/>
      <path class="cls-1" d="m9.84,130.94c16.52-11.39,34.8-18.71,51.96-29.36,1.65,2.15,3.23,4.07,4.67,6.1,7.57,10.65,15.03,21.37,22.67,31.96,4.78,6.63,6.67,6.97,14.16,4.16,31.36-11.77,60.74-27.42,88.97-45.32,7.04-4.46,8.22-6.33,5.74-14.43-4.08-13.36-8.83-26.51-13.37-39.73-.98-2.85-2.24-5.6-3.57-8.89,4.72-2.3,9.33-4.41,13.82-6.74,9.93-5.16,19.74-10.55,29.71-15.62,8.19-4.17,10.61-3.72,15.62,4.02,14.95,23.1,30.71,45.77,44.18,69.72,32.46,57.71,64.5,115.69,93.69,175.16,5.65,11.51,11.13,23.1,16.45,34.77,2.81,6.16,2.02,7.21-3.45,10.52-46.14,27.93-95.45,49.84-142.96,75.17-18.92,10.08-38.23,19.49-57.78,28.3-16.94,7.63-14.16,7.1-22.43-7.05-15.87-27.18-30.5-55.09-46.44-82.24-27.97-47.67-56.59-94.96-84.82-142.48-8.1-13.63-15.85-27.47-23.7-41.24-1.13-1.98-1.92-4.15-3.11-6.76Zm166.51,211.65c-2.35,1.85-4,3.12-5.62,4.42-1.82,1.46-3.66,2.89-5.4,4.45-4.37,3.9-4.84,5.88-2.44,10.97,1.29,2.74,2.7,5.43,4.24,8.03,2.92,4.93,5.57,5.82,11.11,3.66,3.22-1.26,6.34-2.77,10.12-4.44,3.13,5.11,6.14,10.02,9.16,14.92,3.98,6.45,6.18,7.21,13.2,4.13,3.62-1.59,7.14-3.43,10.6-5.36,8.85-4.94,9.34-7.02,4.02-15.95-2.22-3.72-4.5-7.4-6.95-11.43,3.8-1.92,6.9-3.48,10-5.05,6.42-3.25,7.43-5.96,4.26-12.23-2.52-4.99-5.19-9.9-7.89-14.8-3.04-5.53-5.6-6.21-11.38-3.16-2.81,1.48-5.59,2.99-8.59,4.6-2.78-4.46-4.97-8.3-7.5-11.91-2.75-3.93-5.33-4.66-9.64-2.56-5.02,2.44-10,5.04-14.73,8-5.4,3.39-6.12,6.83-3.11,12.41,1.97,3.66,4.16,7.21,6.53,11.3Zm106.81-141.54c.07-4.09-2.64-6.47-5.65-5.73-1.98.48-3.81,1.67-5.62,2.7-7.08,4.02-14.04,8.27-21.21,12.13-31.16,16.77-62.07,33.94-91.73,53.3-3.07,2-4.15,4.45-2.98,6.91,1.14,2.4,4,3.41,7.28,2,2.97-1.28,5.84-2.93,8.5-4.77,25.34-17.52,52.81-31.37,79.57-46.45,9.12-5.14,18.26-10.26,27.26-15.61,2.02-1.2,3.47-3.37,4.57-4.47Zm-137.74,37.56c3.85-1.82,7.07-3.14,10.11-4.8,27.36-15.03,54.65-30.18,82.04-45.17,9.2-5.03,18.6-9.69,27.87-14.58,2.66-1.41,4.57-3.43,3.36-6.76-1.01-2.77-3.99-3.67-7.73-2.11-3.43,1.44-6.75,3.16-10.03,4.93-26.88,14.47-53.74,28.95-80.58,43.48-9.01,4.88-17.93,9.91-26.88,14.89-2.24,1.25-3.93,3.26-2.84,5.67.8,1.77,2.99,2.91,4.69,4.46Zm-2.71-43.51c3.54-1.75,6.45-3.13,9.32-4.61,29.95-15.49,59.89-30.99,89.83-46.51,1.85-.96,4.11-1.7,5.29-3.22,1.07-1.38,1.76-4.11,1.09-5.49-.67-1.37-3.2-2.28-5.02-2.5-1.42-.17-3.07.89-4.5,1.63-32.01,16.57-64.01,33.17-96,49.78-1.02.53-2.37,1-2.85,1.89-.82,1.5-1.86,3.6-1.37,4.93.59,1.61,2.66,2.68,4.22,4.11Zm222.98,102.89c.22-4.11-2.36-6.49-5.49-5.85-1.99.4-3.89,1.49-5.7,2.49-29.93,16.66-59.84,33.35-89.75,50.06-1.62.91-3.55,1.67-4.61,3.05-.99,1.28-1.87,3.77-1.26,4.89.81,1.48,3.07,2.88,4.78,2.98,1.89.11,3.99-1.08,5.79-2.07,22.26-12.23,44.5-24.49,66.7-36.84,8.35-4.64,16.62-9.44,24.8-14.37,2.04-1.23,3.59-3.26,4.74-4.33ZM231.42,112.91c-.29-4-2.98-6.11-6.14-5.37-2.21.52-4.29,1.74-6.33,2.83-7.81,4.15-15.73,8.14-23.34,12.64-10.6,6.27-20.97,12.92-31.42,19.44-2.46,1.54-3.65,3.81-2.36,6.55,1.28,2.74,3.77,3.46,6.48,2.23,2.95-1.35,6.15-2.56,8.56-4.62,8.8-7.52,19-12.56,29.23-17.69,7.49-3.76,14.74-8.01,21.95-12.28,1.6-.95,2.62-2.87,3.37-3.73Zm73.37,126.36c.2-4.03-1.87-6.24-4.73-5.95-1.55.16-3.15.84-4.52,1.63-6.47,3.71-13.01,7.3-19.25,11.37-8.97,5.85-17.68,12.1-26.55,18.11-2.43,1.64-3.65,3.63-2.48,6.48,1.03,2.52,4.04,3.52,7.12,2.17,2.11-.92,4.07-2.25,5.97-3.57,5.36-3.71,10.53-7.72,16.02-11.23,7.84-5.02,15.96-9.62,23.83-14.6,2.01-1.27,3.51-3.33,4.6-4.4Zm-36.62,51.25c2.76-1.21,4.94-1.99,6.97-3.07,10.67-5.67,21.31-11.39,31.92-17.17,1.59-.87,3.29-1.9,4.36-3.3,2.26-2.96.37-6.86-3.35-7.09-1.33-.08-2.85.21-4.02.83-12.76,6.69-25.48,13.45-38.18,20.25-2.38,1.27-3.38,3.58-2.1,5.88.87,1.56,2.89,2.48,4.39,3.68Z"/>
      <path class="cls-2" d="m52.12,69.93c38.22-15.7,73.27-35.41,107.63-56.3,8.7,13.47,27.34,62.74,28.49,75.26-28.1,18.32-57.61,34.37-90.46,45.85-14.95-21.23-29.93-42.49-45.66-64.81Zm122.73,10.26c-.33-1.54-.57-3.65-1.25-5.61-4.33-12.52-8.58-25.08-13.24-37.48-2.74-7.32-4.64-7.66-11.49-4.25-15.82,7.88-31.65,15.76-47.61,23.36-9,4.29-18.25,8.07-27.42,12.02-3.3,1.42-4.46,4.01-2.84,7.28.71,1.44,1.87,2.65,2.85,3.95,8.4,11.14,16.85,22.25,25.2,33.43,3.37,4.51,5.37,5.44,10.69,3.42,6.96-2.64,13.88-5.42,20.61-8.59,13.05-6.14,25.95-12.6,38.93-18.89,3.42-1.66,5.6-4.1,5.56-8.63Z"/>
      <path class="cls-2" d="m176.35,342.59c-2.38-4.1-4.56-7.64-6.53-11.3-3.01-5.58-2.29-9.02,3.11-12.41,4.72-2.97,9.7-5.56,14.73-8,4.31-2.1,6.89-1.37,9.64,2.56,2.52,3.61,4.71,7.45,7.5,11.91,2.99-1.6,5.78-3.12,8.59-4.6,5.79-3.05,8.34-2.37,11.38,3.16,2.69,4.9,5.36,9.82,7.89,14.8,3.17,6.27,2.17,8.98-4.26,12.23-3.1,1.57-6.19,3.13-10,5.05,2.46,4.03,4.74,7.71,6.95,11.43,5.33,8.92,4.83,11.01-4.02,15.95-3.45,1.93-6.98,3.77-10.6,5.36-7.02,3.08-9.22,2.32-13.2-4.13-3.02-4.9-6.03-9.81-9.16-14.92-3.78,1.67-6.9,3.19-10.12,4.44-5.53,2.16-8.18,1.28-11.11-3.66-1.54-2.6-2.96-5.29-4.24-8.03-2.4-5.09-1.93-7.06,2.44-10.97,1.74-1.55,3.58-2.98,5.4-4.45,1.62-1.3,3.27-2.57,5.62-4.42Zm3.29-16.17c.13,1.12.05,1.65.26,2.02,1.7,3.05,3.48,6.05,5.19,9.09,3.8,6.73,3.38,8.67-2.85,13.47-3.28,2.52-6.55,5.05-10,7.71,1.29,2.13,2.22,3.65,3.32,5.47,2.83-1.23,5.37-2.3,7.87-3.43,7.68-3.47,9.14-3.11,13.68,3.91,3.13,4.84,6.12,9.77,9.45,15.1,3.83-2.04,7.2-3.82,11-5.84-2.63-4.2-4.84-7.72-7.03-11.25-5.11-8.23-3.9-12.36,4.71-16.47,2.5-1.19,4.92-2.54,7.76-4.03-2.15-3.96-4.1-7.57-6.28-11.59-3.34,1.79-6.18,3.32-9.03,4.83-5.13,2.72-7.15,2.23-10.37-2.74-2.38-3.68-4.61-7.47-7.19-11.67-3.84,1.99-7.26,3.75-10.48,5.41Z"/>
      <path class="cls-2" d="m283.16,201.04c-1.1,1.1-2.55,3.27-4.57,4.47-9,5.36-18.14,10.47-27.26,15.61-26.76,15.07-54.23,28.93-79.57,46.45-2.67,1.84-5.53,3.5-8.5,4.77-3.29,1.41-6.14.4-7.28-2-1.17-2.45-.09-4.91,2.98-6.91,29.65-19.35,60.57-36.53,91.73-53.3,7.17-3.86,14.13-8.11,21.21-12.13,1.81-1.03,3.64-2.21,5.62-2.7,3.01-.74,5.73,1.65,5.65,5.73Z"/>
      <path class="cls-2" d="m145.42,238.61c-1.7-1.54-3.89-2.69-4.69-4.46-1.09-2.41.6-4.42,2.84-5.67,8.95-4.98,17.87-10.01,26.88-14.89,26.84-14.53,53.71-29.01,80.58-43.48,3.28-1.77,6.6-3.49,10.03-4.93,3.74-1.56,6.72-.67,7.73,2.11,1.21,3.33-.7,5.35-3.36,6.76-9.27,4.89-18.68,9.55-27.87,14.58-27.38,14.99-54.68,30.14-82.04,45.17-3.03,1.67-6.26,2.99-10.11,4.8Z"/>
      <path class="cls-2" d="m142.71,195.1c-1.56-1.42-3.63-2.49-4.22-4.11-.48-1.32.55-3.42,1.37-4.93.49-.89,1.83-1.36,2.85-1.89,31.99-16.61,63.99-33.21,96-49.78,1.43-.74,3.09-1.8,4.5-1.63,1.82.22,4.35,1.13,5.02,2.5.68,1.39-.02,4.11-1.09,5.49-1.18,1.53-3.44,2.26-5.29,3.22-29.94,15.52-59.88,31.02-89.83,46.51-2.86,1.48-5.78,2.86-9.32,4.61Z"/>
      <path class="cls-2" d="m365.69,297.99c-1.15,1.07-2.7,3.1-4.74,4.33-8.18,4.93-16.45,9.73-24.8,14.37-22.2,12.35-44.44,24.6-66.7,36.84-1.8.99-3.9,2.18-5.79,2.07-1.71-.1-3.97-1.5-4.78-2.98-.61-1.12.27-3.61,1.26-4.89,1.07-1.38,2.99-2.14,4.61-3.05,29.91-16.7,59.82-33.4,89.75-50.06,1.81-1.01,3.71-2.09,5.7-2.49,3.14-.64,5.71,1.74,5.49,5.85Z"/>
      <path class="cls-2" d="m231.42,112.91c-.75.86-1.77,2.79-3.37,3.73-7.22,4.27-14.46,8.52-21.95,12.28-10.23,5.13-20.43,10.17-29.23,17.69-2.41,2.06-5.61,3.27-8.56,4.62-2.71,1.24-5.2.51-6.48-2.23-1.28-2.74-.1-5.02,2.36-6.55,10.45-6.52,20.82-13.18,31.42-19.44,7.61-4.5,15.53-8.48,23.34-12.64,2.04-1.09,4.12-2.31,6.33-2.83,3.16-.74,5.85,1.37,6.14,5.37Z"/>
      <path class="cls-2" d="m304.79,239.27c-1.09,1.06-2.6,3.12-4.6,4.4-7.87,4.99-15.98,9.58-23.83,14.6-5.49,3.51-10.66,7.52-16.02,11.23-1.91,1.32-3.86,2.64-5.97,3.57-3.08,1.35-6.09.36-7.12-2.17-1.16-2.85.06-4.84,2.48-6.48,8.87-6.01,17.58-12.26,26.55-18.11,6.24-4.07,12.78-7.66,19.25-11.37,1.38-.79,2.97-1.47,4.52-1.63,2.86-.29,4.93,1.93,4.73,5.95Z"/>
      <path class="cls-2" d="m268.17,290.53c-1.5-1.2-3.53-2.12-4.39-3.68-1.27-2.29-.27-4.6,2.1-5.88,12.7-6.8,25.42-13.56,38.18-20.25,1.17-.62,2.69-.91,4.02-.83,3.71.23,5.61,4.13,3.35,7.09-1.07,1.4-2.77,2.43-4.36,3.3-10.61,5.78-21.25,11.5-31.92,17.17-2.03,1.08-4.21,1.86-6.97,3.07Z"/>
      <path class="cls-2" d="m174.85,80.19c.04,4.53-2.14,6.97-5.56,8.63-12.98,6.3-25.88,12.76-38.93,18.89-6.73,3.16-13.65,5.94-20.61,8.59-5.32,2.02-7.32,1.09-10.69-3.42-8.36-11.18-16.8-22.29-25.2-33.43-.98-1.3-2.14-2.52-2.85-3.95-1.62-3.27-.46-5.86,2.84-7.28,9.16-3.95,18.41-7.73,27.42-12.02,15.96-7.6,31.79-15.48,47.61-23.36,6.84-3.41,8.74-3.06,11.49,4.25,4.65,12.4,8.9,24.96,13.24,37.48.68,1.96.92,4.08,1.25,5.61Zm-67.22,26.28c19.55-7.78,38.38-16.61,56.51-26.48-2.31-12.18-8.87-30.68-12.78-36.4-22.33,10.65-44.65,21.29-67.25,32.06,8.04,10.54,15.5,20.32,23.51,30.82Z"/>
      <path class="cls-1" d="m179.64,326.42c3.22-1.66,6.64-3.43,10.48-5.41,2.58,4.2,4.81,7.98,7.19,11.67,3.22,4.97,5.24,5.46,10.37,2.74,2.85-1.51,5.69-3.04,9.03-4.83,2.18,4.02,4.14,7.63,6.28,11.59-2.84,1.48-5.27,2.84-7.76,4.03-8.61,4.11-9.82,8.24-4.71,16.47,2.19,3.53,4.4,7.05,7.03,11.25-3.8,2.02-7.16,3.8-11,5.84-3.33-5.33-6.32-10.26-9.45-15.1-4.54-7.01-5.99-7.38-13.68-3.91-2.51,1.13-5.04,2.2-7.87,3.43-1.1-1.82-2.02-3.33-3.32-5.47,3.44-2.66,6.72-5.19,10-7.71,6.23-4.8,6.65-6.74,2.85-13.47-1.72-3.04-3.49-6.05-5.19-9.09-.21-.37-.13-.9-.26-2.02Z"/>
      <path class="cls-1" d="m107.64,106.47c-8.01-10.5-15.47-20.28-23.51-30.82,22.59-10.77,44.91-21.41,67.25-32.06,3.9,5.72,10.47,24.22,12.78,36.4-18.13,9.88-36.96,18.7-56.51,26.48Z"/>
    </g>
  </g>
</svg>