<svg xmlns="http://www.w3.org/2000/svg" width="35.218" height="39.024" viewBox="0 0 35.218 39.024"><g transform="translate(-648.864 -1846.433)"><path d="M35.231,27.981A1.817,1.817,0,0,1,34.6,29.31a9.721,9.721,0,0,1-1.082.815Q28.315,33.382,23.1,36.62c-.677.421-1.345.859-2.032,1.261a15.294,15.294,0,0,1-1.713.9,2.459,2.459,0,0,1-3.175-.936c-.92-1.355-1.8-2.739-2.691-4.11-2.083-3.2-4.2-6.368-6.241-9.591-1.912-3.022-3.753-6.09-5.6-9.153A23.585,23.585,0,0,1,.367,12.527a2.47,2.47,0,0,1,.686-3.309,9.865,9.865,0,0,1,1.114-.882C4.418,6.772,6.8,5.428,9.188,4.09c1.763-.988,3.436-2.14,5.152-3.215.383-.24.773-.47,1.161-.7A1.2,1.2,0,0,1,16.731.164a3.251,3.251,0,0,1,1.21,1.046c1.2,1.686,2.41,3.364,3.587,5.065,1.165,1.683,2.27,3.407,3.444,5.083q2.706,3.865,5.473,7.689a44.5,44.5,0,0,1,3.723,5.973,16.616,16.616,0,0,1,.759,1.712,10.588,10.588,0,0,1,.3,1.248ZM34.3,28a9.073,9.073,0,0,0-.271-1.019c-.2-.5-.421-.992-.664-1.472a42.8,42.8,0,0,0-3.614-5.814q-2.749-3.8-5.442-7.632c-1.2-1.712-2.33-3.471-3.514-5.192-1.087-1.58-2.2-3.145-3.315-4.7a5.971,5.971,0,0,0-.909-1c-.34-.3-.512-.273-.872-.039-.324.211-.645.428-.97.638-2.189,1.418-4.4,2.791-6.688,4.052C6.2,6.834,4.441,8.009,2.658,9.138a7.893,7.893,0,0,0-1.142.946,1.512,1.512,0,0,0-.362,1.934c.386.77.738,1.562,1.177,2.3,1.59,2.665,3.166,5.339,4.831,7.958,2.681,4.219,5.427,8.4,8.149,12.593q.757,1.166,1.539,2.315a1.661,1.661,0,0,0,2.393.642q.878-.482,1.739-.993c.537-.319,1.063-.657,1.593-.987Q27.789,32.6,33,29.355a5.2,5.2,0,0,0,.922-.7A2.705,2.705,0,0,0,34.306,28Z" transform="translate(648.852 1846.434)" fill="#414042"/><path d="M43.516,37.307a2.772,2.772,0,0,1-.381.653,5.277,5.277,0,0,1-.922.7Q37,41.918,31.785,45.157c-.531.33-1.056.668-1.593.987q-.861.512-1.739.993a1.661,1.661,0,0,1-2.393-.642q-.779-1.151-1.539-2.315c-2.722-4.194-5.468-8.373-8.149-12.593-1.664-2.618-3.24-5.293-4.831-7.958-.441-.738-.791-1.531-1.177-2.3a1.512,1.512,0,0,1,.362-1.934,7.953,7.953,0,0,1,1.142-.946c1.783-1.129,3.544-2.3,5.39-3.321,2.288-1.26,4.5-2.634,6.688-4.052.324-.211.645-.427.97-.638.36-.234.531-.258.872.039a5.893,5.893,0,0,1,.909,1c1.118,1.558,2.228,3.123,3.315,4.7,1.184,1.722,2.315,3.481,3.514,5.192Q36.213,25.208,38.966,29a42.8,42.8,0,0,1,3.614,5.814c.242.481.466.972.664,1.472a9.277,9.277,0,0,1,.271,1.019ZM20.311,20.818a2.516,2.516,0,0,0-1.74-2.465,3.413,3.413,0,0,0-4.711,1.859,3.021,3.021,0,0,0,3.153,4.155,3.606,3.606,0,0,0,3.3-3.549Zm4.308,10.543a3.113,3.113,0,0,0-3.129,2.228,4.375,4.375,0,0,0,.789,3.665,2.114,2.114,0,0,0,2.751.7A4.063,4.063,0,0,0,25.9,37.4a4.806,4.806,0,0,0,1.614-2.723,1.863,1.863,0,0,0-.4-1.865.881.881,0,0,1-.163-.275,1.636,1.636,0,0,0-1.2-.985c-.372-.094-.759-.131-1.14-.193Zm-.861-3.542a2.369,2.369,0,0,0-.856-1.927,3.155,3.155,0,0,0-5.478,1.685,3.429,3.429,0,0,0,1.758,3.333,3.235,3.235,0,0,0,4.577-3.091ZM37.538,39.19c.287-.045.648-.107,1.008-.157,1.76-.242,2.743-2.81,1.885-4.231a3.357,3.357,0,0,0-5.594-.271A2.919,2.919,0,0,0,36.752,39.1c.233.038.47.053.785.087ZM24.169,19.39a2.763,2.763,0,0,0,2.793-1.8,5.4,5.4,0,0,0,.371-1.56,2.163,2.163,0,0,0-.685-1.992,3.474,3.474,0,0,0-2.584-.814,2.964,2.964,0,0,0-2.721,2.448,3.63,3.63,0,0,0,1.126,3.046,2.361,2.361,0,0,0,1.7.673ZM31.785,22.7a1.589,1.589,0,0,0-.514-1.43,3.287,3.287,0,0,0-2.955-1.395,3.088,3.088,0,0,0-2.67,3,3.5,3.5,0,0,0,1.611,2.737,2.5,2.5,0,0,0,1.962.42,3.179,3.179,0,0,0,2.566-3.332Zm4.007,6.551A2.971,2.971,0,0,0,32.7,26.24a2.94,2.94,0,0,0-3.085,3.021,3.133,3.133,0,0,0,3.273,3.055,2.917,2.917,0,0,0,2.9-3.06Zm-6.325,9.238c-2.055.018-3.353,1.434-3.1,3.178a3.657,3.657,0,0,0,.871,1.848,2.577,2.577,0,0,0,2.357.946,3.056,3.056,0,0,0,2.668-2.531,7.5,7.5,0,0,0-.388-2.211c-.006-.037-.046-.073-.078-.1a3.391,3.391,0,0,0-2.327-1.129Z" transform="translate(639.641 1837.124)" fill="#fff"/><path d="M54.383,96.746a3.606,3.606,0,0,1-3.3,3.549,3.021,3.021,0,0,1-3.153-4.155,3.413,3.413,0,0,1,4.711-1.859,2.516,2.516,0,0,1,1.74,2.465ZM52.8,95.54a2.536,2.536,0,0,0-3.209-.146,2.107,2.107,0,0,0-.725,2.564L52.8,95.54Zm.567.754-4.008,2.461a2.146,2.146,0,0,0,2.666.293,2.54,2.54,0,0,0,1.342-2.755Z" transform="translate(605.568 1761.196)" fill="#414042"/><path d="M134.79,238.547c.38.063.767.1,1.14.193a1.641,1.641,0,0,1,1.2.985.864.864,0,0,0,.163.274,1.861,1.861,0,0,1,.4,1.865,4.8,4.8,0,0,1-1.614,2.723,4.11,4.11,0,0,1-.868.547,2.114,2.114,0,0,1-2.751-.7,4.38,4.38,0,0,1-.789-3.665,3.115,3.115,0,0,1,3.129-2.228Zm1.781,2.053c-.46-.374-.529-.934-1.088-1.022a2.849,2.849,0,0,0-1.828.153,2.042,2.042,0,0,0-1.013,2.644l3.929-1.775Zm.214.93-3.911,1.763c.617,1.277,1.466,1.487,2.5.664A3.866,3.866,0,0,0,136.785,241.53Z" transform="translate(529.47 1629.938)" fill="#414042"/><path d="M94.773,171a3.235,3.235,0,0,1-4.577,3.091,3.429,3.429,0,0,1-1.758-3.333,3.155,3.155,0,0,1,5.478-1.685A2.369,2.369,0,0,1,94.772,171Zm-.971-.022a34.517,34.517,0,0,0-4.313.81,2.16,2.16,0,0,0,2.419,1.678,2.387,2.387,0,0,0,1.895-2.487Zm-4.339-.162,3.9-.782a2.053,2.053,0,0,0-2.193-1.047A2.114,2.114,0,0,0,89.462,170.815Z" transform="translate(568.625 1693.944)" fill="#414042"/><path d="M133.817,48.377a2.357,2.357,0,0,1-1.7-.672,3.629,3.629,0,0,1-1.126-3.046,2.963,2.963,0,0,1,2.721-2.448,3.476,3.476,0,0,1,2.584.814,2.163,2.163,0,0,1,.685,1.992,5.4,5.4,0,0,1-.371,1.56,2.763,2.763,0,0,1-2.793,1.8Zm-1.475-1.947,2.737-3a2.173,2.173,0,0,0-2.7.431A1.983,1.983,0,0,0,132.342,46.43Zm.636.707a1.884,1.884,0,0,0,2.343-.229,2.631,2.631,0,0,0,.471-2.864l-2.813,3.093Z" transform="translate(529.993 1808.137)" fill="#414042"/><path d="M183.8,116.995a3.178,3.178,0,0,1-2.566,3.332,2.505,2.505,0,0,1-1.962-.42,3.5,3.5,0,0,1-1.611-2.737,3.088,3.088,0,0,1,2.67-3,3.289,3.289,0,0,1,2.955,1.395,1.587,1.587,0,0,1,.514,1.43Zm-2.739,2.384a2.212,2.212,0,0,0,1.8-2.524,2.157,2.157,0,0,0-2.291-1.668c.162,1.38.324,2.761.493,4.192Zm-1.045-.086a16.223,16.223,0,0,0-.463-3.836,1.9,1.9,0,0,0-.953,1.579,2.674,2.674,0,0,0,1.416,2.258Z" transform="translate(487.63 1742.833)" fill="#414042"/><path d="M226.829,186.2a2.918,2.918,0,0,1-2.9,3.06,3.133,3.133,0,0,1-3.273-3.055,2.94,2.94,0,0,1,3.085-3.021,2.972,2.972,0,0,1,3.09,3.015Zm-3.476,1.977a1.738,1.738,0,0,0,2.034-.518,1.81,1.81,0,0,0,.259-2.173.717.717,0,0,1-.122-.289c-.058-.543-.458-.7-.93-.888C224.171,185.625,223.762,186.9,223.353,188.172Zm.317-4.058c-1.323.2-1.892.716-2.055,1.726a1.791,1.791,0,0,0,.9,1.912l1.155-3.638Z" transform="translate(448.604 1680.184)" fill="#414042"/><path d="M188.278,315.732a3.392,3.392,0,0,1,2.327,1.129c.031.029.072.065.078.1a7.475,7.475,0,0,1,.388,2.211A3.055,3.055,0,0,1,188.4,321.7a2.577,2.577,0,0,1-2.357-.946,3.665,3.665,0,0,1-.871-1.849c-.251-1.742,1.047-3.159,3.1-3.178Zm-.959,1.143c.663,1.159,1.205,2.38,1.969,3.495a1.991,1.991,0,0,0,.466-2.874,1.845,1.845,0,0,0-2.434-.62Zm-.782.529a1.8,1.8,0,0,0-.073,2.34c.528.843,1.093,1.14,1.855.925l-1.783-3.266Z" transform="translate(480.831 1559.885)" fill="#414042"/><path d="M145.785,250l-3.929,1.775a2.042,2.042,0,0,1,1.013-2.644,2.855,2.855,0,0,1,1.828-.153c.56.088.628.648,1.088,1.022Z" transform="translate(520.255 1620.535)" fill="#fff"/><path d="M149.761,270.86a3.866,3.866,0,0,1-1.41,2.427c-1.035.823-1.884.614-2.5-.664Z" transform="translate(516.493 1600.607)" fill="#fff"/><path d="M104.383,200.031a2.385,2.385,0,0,1-1.895,2.487,2.16,2.16,0,0,1-2.419-1.678,34.521,34.521,0,0,1,4.313-.81Z" transform="translate(558.042 1664.891)" fill="#fff"/><path d="M99.79,179.971a2.115,2.115,0,0,1,1.709-1.829,2.053,2.053,0,0,1,2.193,1.047Z" transform="translate(558.296 1684.788)" fill="#fff"/><path d="M141.335,55.692a1.982,1.982,0,0,1,.032-2.571,2.173,2.173,0,0,1,2.7-.431Z" transform="translate(521 1798.874)" fill="#fff"/><path d="M152.631,65.263l2.813-3.093a2.628,2.628,0,0,1-.471,2.864,1.885,1.885,0,0,1-2.343.229Z" transform="translate(510.34 1790.009)" fill="#fff"/><path d="M209.663,129.165c-.168-1.432-.33-2.812-.493-4.192a2.158,2.158,0,0,1,2.291,1.668,2.212,2.212,0,0,1-1.8,2.524Z" transform="translate(459.026 1733.048)" fill="#fff"/><path d="M189.286,132.127a2.673,2.673,0,0,1-1.416-2.258,1.9,1.9,0,0,1,.953-1.579,16.188,16.188,0,0,1,.463,3.836Z" transform="translate(478.357 1730)" fill="#fff"/><path d="M208.651,326.094a1.845,1.845,0,0,1,2.434.62,1.991,1.991,0,0,1-.466,2.874c-.763-1.114-1.305-2.336-1.969-3.495Z" transform="translate(459.498 1550.667)" fill="#fff"/><path d="M195.625,333.85l1.783,3.266c-.762.214-1.328-.083-1.855-.925a1.8,1.8,0,0,1,.073-2.34Z" transform="translate(471.742 1543.439)" fill="#fff"/></g></svg>