<svg xmlns="http://www.w3.org/2000/svg" width="21.566" height="26.812" viewBox="0 0 21.566 26.812"><g transform="translate(-697.184 -1853.899)"><path d="M527.787,98.411a4.969,4.969,0,0,1-4.977-5.038,5.169,5.169,0,0,1,5.118-5.174,5.013,5.013,0,0,1,4.95,5.018A5.153,5.153,0,0,1,527.787,98.411Zm-3.571-2.974a4.04,4.04,0,0,0,4.851,1.934,4.175,4.175,0,0,0,2.884-4.278,79.64,79.64,0,0,0-7.734,2.344Zm6.881-4.744a3.943,3.943,0,0,0-4.386-1.472,4.14,4.14,0,0,0-2.947,3.643Zm-7.265,3.935,8.071-2.492c-.1-.253-.2-.477-.3-.724l-7.94,2.365.166.85Z" transform="translate(174.374 1766.386)" fill="#414042"/><path d="M656.56,94.03a10.909,10.909,0,0,1,.531-2.8q1.306-3.851,2.66-7.687a8.06,8.06,0,0,1,.677-1.391,2.611,2.611,0,0,1,2.778-1.337,2.7,2.7,0,0,1,2.438,2.164,6.22,6.22,0,0,1,.087,1.856,42.847,42.847,0,0,1-2.463,9.394,5.208,5.208,0,0,1-1.894,2.478,3.3,3.3,0,0,1-2.5.649,2.457,2.457,0,0,1-2.1-1.93,10.266,10.266,0,0,1-.21-1.4Zm2.351-5.68a27.256,27.256,0,0,0-1.357,4.593,7.093,7.093,0,0,0-.018,2.051,1.72,1.72,0,0,0,2.2,1.5,3.464,3.464,0,0,0,1.217-.546,4.141,4.141,0,0,0,1.531-2.034c.325-.934.635-1.874.94-2.816.125-.384.218-.78.317-1.14-.937-.983-2.561-1.58-4.834-1.612Zm5.113.623c.085-.273.149-.5.224-.715a24.712,24.712,0,0,0,.644-3.482,4.335,4.335,0,0,0,.011-1.223,1.94,1.94,0,0,0-1.734-1.879,1.8,1.8,0,0,0-2.121,1.076,2.478,2.478,0,0,0-.177.345q-.8,2.116-1.582,4.236c-.012.031.018.079.03.119a16.1,16.1,0,0,1,4.7,1.523Z" transform="translate(52.985 1773.119)" fill="#414042"/><path d="M569.143,281.658a4.6,4.6,0,0,1-4.594-3.535,4.187,4.187,0,0,1,.367-2.891,4.983,4.983,0,0,1,7.953-1.178,4.4,4.4,0,0,1-.649,6.594,5.064,5.064,0,0,1-3.077,1.009Zm-2.7-7.042a3.47,3.47,0,0,0-.513,4.6c.98,1.361,3.091,2.033,4.378,1.334Zm2.081-1.056c1.355,1.907,2.5,3.882,3.809,5.779a3.451,3.451,0,0,0,.37-4.142A3.878,3.878,0,0,0,568.522,273.561Zm-1.427.518,4.063,6.245.564-.354-4.052-6.224-.576.333Z" transform="translate(136.592 1599.053)" fill="#414042"/><path d="M538.011,143.494a79.653,79.653,0,0,1,7.734-2.344,4.175,4.175,0,0,1-2.884,4.278,4.04,4.04,0,0,1-4.851-1.934Z" transform="translate(160.579 1718.329)" fill="#fff"/><path d="M540.45,99.073l-7.334,2.171a4.14,4.14,0,0,1,2.947-3.643A3.943,3.943,0,0,1,540.45,99.073Z" transform="translate(165.02 1758.005)" fill="#fff"/><path d="M532.236,126.185l-.166-.85,7.94-2.365c.1.247.193.47.3.724l-8.071,2.492Z" transform="translate(165.97 1734.828)" fill="#fff"/><path d="M667.846,162.67c2.273.031,3.9.628,4.834,1.612-.1.36-.192.755-.317,1.14-.3.942-.615,1.882-.94,2.816a4.136,4.136,0,0,1-1.531,2.034,3.464,3.464,0,0,1-1.217.546,1.721,1.721,0,0,1-2.2-1.5,7.091,7.091,0,0,1,.018-2.051,27.281,27.281,0,0,1,1.357-4.593Z" transform="translate(44.05 1698.798)" fill="#fff"/><path d="M690.792,97.246a16.119,16.119,0,0,0-4.705-1.523c-.011-.04-.042-.088-.03-.119q.787-2.12,1.582-4.236a2.524,2.524,0,0,1,.177-.345,1.8,1.8,0,0,1,2.121-1.076,1.94,1.94,0,0,1,1.734,1.879,4.369,4.369,0,0,1-.011,1.223,24.582,24.582,0,0,1-.644,3.482C690.941,96.75,690.877,96.973,690.792,97.246Z" transform="translate(26.217 1764.846)" fill="#fff"/><path d="M574.721,294.68l3.865,5.931c-1.287.7-3.4.027-4.378-1.334A3.47,3.47,0,0,1,574.721,294.68Z" transform="translate(128.313 1578.988)" fill="#fff"/><path d="M608.61,281.9a3.878,3.878,0,0,1,4.179,1.638,3.453,3.453,0,0,1-.37,4.142C611.114,285.777,609.965,283.8,608.61,281.9Z" transform="translate(96.504 1590.718)" fill="#fff"/><path d="M593.18,285.593l.576-.333,4.052,6.224-.564.354-4.063-6.245Z" transform="translate(110.508 1587.538)" fill="#fff"/></g></svg>