<svg xmlns="http://www.w3.org/2000/svg" width="158.027" height="45.488" viewBox="0 0 158.027 45.488"><g transform="translate(40 12.658)"><g transform="translate(-40 -9.018)"><text transform="translate(29.06 6.359)" fill="#f5b6c3" font-size="9" font-family="YuGothicUI-Regular, Yu Gothic UI" letter-spacing="0.3em" opacity="0.95"><tspan x="0" y="0">人生の最期を支える</tspan></text><g transform="translate(21.077 15.479)"><path d="M83.316,68.152H70.58V43.77h2.657V65.881H83.316Z" transform="translate(-70.58 -42.166)" fill="#f5b6c3"/><path d="M122.7,48.084a1.724,1.724,0,0,1-1.727-1.72v-.1a1.745,1.745,0,1,1,3.488-.079v.075A1.7,1.7,0,0,1,122.9,48.08a1.171,1.171,0,0,1-.2,0Zm1.345,20.511h-2.657V51.153h2.657V68.591Z" transform="translate(-102.088 -42.609)" fill="#f5b6c3"/><path d="M148.558,48.032c0-2.177,0-5.025,1.918-6.977a5.756,5.756,0,0,1,4.032-1.566A6.42,6.42,0,0,1,157.1,40l-.446,2.08a4.982,4.982,0,0,0-2.016-.416c-2.75,0-3.425,2.559-3.425,5.377v.993h4.223v2.08h-4.223V65.474h-2.657V50.115h-2.4v-2.08h2.4Z" transform="translate(-117.84 -39.488)" fill="#f5b6c3"/><path d="M197.072,78.29a12.611,12.611,0,0,1-5.471,1.087c-5.092,0-8.131-3.582-8.131-8.8,0-5.471,3.073-9.409,7.775-9.409,5.377,0,6.752,4.927,6.752,7.966,0,.607-.034,1.057-.064,1.473H186.067c.034,4.83,2.784,6.651,5.92,6.651a11.03,11.03,0,0,0,4.575-.9l.513,1.918h0Zm-1.7-9.66c.034-2.368-.959-5.441-4.384-5.441-3.2,0-4.609,3.039-4.864,5.441Z" transform="translate(-141.17 -53.046)" fill="#f5b6c3"/><path d="M278.819,46.171a8.277,8.277,0,0,0-4.287-1.12c-3.391,0-4.673,2.08-4.673,3.841,0,2.4,1.473,3.612,4.736,4.991,3.934,1.664,5.95,3.68,5.95,7.168,0,3.871-2.818,6.846-8.064,6.846a11.225,11.225,0,0,1-5.823-1.536l.738-2.207a9.915,9.915,0,0,0,5.25,1.5c3.264,0,5.182-1.761,5.182-4.384,0-2.4-1.315-3.871-4.481-5.152-3.68-1.375-6.175-3.518-6.175-6.88,0-3.713,3.009-6.43,7.457-6.43a9.925,9.925,0,0,1,4.991,1.15l-.8,2.207h0Z" transform="translate(-193.189 -41.562)" fill="#f5b6c3"/><path d="M320.74,52.336l2.623-.9V55.5h4.511v2.08h-4.511V67.661c0,2.207.671,3.425,2.368,3.425a5.278,5.278,0,0,0,1.791-.255l.161,2.05a6.716,6.716,0,0,1-2.593.416c-4.223,0-4.354-3.841-4.354-5.7V57.585H318.05v-2.08h2.687V52.339Z" transform="translate(-225.323 -46.962)" fill="#f5b6c3"/><path d="M371.283,74.864a24.515,24.515,0,0,0,.255,4.159h-2.432l-.259-2.241h-.1a6.064,6.064,0,0,1-5.152,2.623,4.838,4.838,0,0,1-5.088-4.568c-.007-.131-.007-.259,0-.39,0-4.189,3.65-6.464,10.109-6.43,0-1.473,0-4.8-3.968-4.8a7.57,7.57,0,0,0-4.257,1.248l-.641-1.825a9.9,9.9,0,0,1,5.321-1.473c4.927,0,6.209,3.488,6.209,6.943v6.752Zm-2.623-4.894c-3.3,0-7.423.48-7.423,4.159a2.9,2.9,0,0,0,3.009,3.23,4.261,4.261,0,0,0,4.414-4.1v-3.3Z" transform="translate(-250.618 -53.045)" fill="#f5b6c3"/><path d="M422.564,63.889a7.5,7.5,0,0,0-.959-.064c-2.882,0-4.354,2.848-4.354,5.793v9.472H414.6V66.868c0-1.855-.034-3.552-.127-5.216H416.8l.127,3.361h.1a5.219,5.219,0,0,1,4.732-3.743,6.275,6.275,0,0,1,.8.1V63.9h0Z" transform="translate(-285.614 -53.108)" fill="#f5b6c3"/></g><g transform="translate(0 -1.564)" opacity="0.85"><path d="M21.35,6.581a.187.187,0,0,0-.037-.071C21.275,6.619,21.35,6.581,21.35,6.581Z" transform="translate(-13.32 -5.36)" fill="#f5b6c3"/><path d="M20.629,9.53l-.019.161.019-.142Z" transform="translate(-12.887 -7.248)" fill="#f5b6c3"/><path d="M19.867,10.631h.019s.094,0,.109-.037h0l-.071-.142h0l.037-.161a.34.34,0,0,0-.161.037h0l.071.142a5.263,5.263,0,0,1-.161.54c.071-.052.109-.232.142-.378h.019Zm.071-.161-.037.124Z" transform="translate(-12.325 -7.723)" fill="#f5b6c3"/><path d="M18.867,13.17h0a.239.239,0,0,1-.037.124c.037-.019,0,.124.052-.124h-.019Z" transform="translate(-11.774 -9.524)" fill="#f5b6c3"/><path d="M18.387,14.272V14.13s-.052.142-.052.094c-.037.142,0,.124.052.052h0Z" transform="translate(-11.455 -10.124)" fill="#f5b6c3"/><path d="M18.587,14.264l-.037.161s.037,0,0-.071V14.26h.037Z" transform="translate(-11.599 -10.206)" fill="#f5b6c3"/><path d="M18.65,14.642l.019-.052.037-.27-.052.322h0Z" transform="translate(-11.662 -10.243)" fill="#f5b6c3"/><path d="M16,17.321s-.094-.052-.019-.071a1.606,1.606,0,0,0-.3.052H16Z" transform="translate(-9.805 -12.075)" fill="#f5b6c3"/><path d="M15.29,17.464a1.176,1.176,0,0,0,.142-.037A.177.177,0,0,0,15.29,17.464Z" transform="translate(-9.561 -12.184)" fill="#f5b6c3"/><path d="M15.691,17.6s-.161.019-.251.019h.3s.052-.037-.052-.037h0Z" transform="translate(-9.655 -12.282)" fill="#f5b6c3"/><path d="M14.57,17.571a.342.342,0,0,1,.124.019C14.656,17.59,14.57,17.553,14.57,17.571Z" transform="translate(-9.111 -12.273)" fill="#f5b6c3"/><path d="M16.839,17.63a.167.167,0,0,0-.109.037h.109Z" transform="translate(-10.461 -12.313)" fill="#f5b6c3"/><path d="M11.9,17.791s.4.052.251.094c-.232.019-.2,0-.3-.037.094.052-.3.071-.251.142l.2-.037s-.071.037,0,.037c0-.037.217-.071.4-.037.18-.037.052-.161-.094-.232,0,0,0,.037-.18.052h0l-.015.015Z" transform="translate(-7.245 -12.369)" fill="#f5b6c3"/><path d="M12.94,17.632h.416a1.865,1.865,0,0,1-.251-.052c-.124.019-.142.037-.161.052h0Z" transform="translate(-8.091 -12.282)" fill="#f5b6c3"/><path d="M16.539,17.96H16.25l.142.052h0c.161,0,.124-.037.142-.052Z" transform="translate(-10.161 -12.519)" fill="#f5b6c3"/><path d="M12.594,17.592l.037-.052-.161.071.124-.019Z" transform="translate(-7.797 -12.257)" fill="#f5b6c3"/><path d="M11.64,17.617l.019-.037-.109.019.094.019h0Z" transform="translate(-7.222 -12.282)" fill="#f5b6c3"/><path d="M18.637,32.5l-.037.071.071-.094h-.037V32.5Z" transform="translate(-11.631 -21.599)" fill="#f5b6c3"/><path d="M8.73,18.169l.037-.019S8.73,18.15,8.73,18.169Z" transform="translate(-5.459 -12.638)" fill="#f5b6c3"/><path d="M15.555,11.758s-.18.18-.109.124l.2-.142h-.052a1.738,1.738,0,0,1,.36-.3c.2-.109.161-.052.251-.109,0,0,.037,0,.109-.071l.431-.3-.322.142c.094-.109.36-.251,0-.071.071-.037.161-.071.251-.124a1.416,1.416,0,0,1-.251-.019v-.037a.586.586,0,0,0-.124-.071c-.052,0-.071,0-.232.071a.12.12,0,0,0-.109-.071.768.768,0,0,0-.36.094h-.611a3.009,3.009,0,0,1-.412.037h0a.3.3,0,0,0-.109-.094.445.445,0,0,0-.27.094c-.094-.052-.431-.019-.555-.109.052.019-.019.037-.124.037-.18-.052-.4-.124-.45-.142a.09.09,0,0,1-.052-.019c-.071-.019-.124,0-.341.142h-.251a2.848,2.848,0,0,1-.4-.037h-.052c-.18-.052-.431-.109-.5-.124v-.075h0a.892.892,0,0,0-.019-.2,3.924,3.924,0,0,0-.071-.468.346.346,0,0,0-.112-.067h-.094l-.037-.071.037-.142a2.089,2.089,0,0,0,.094-.663.3.3,0,0,0-.109-.071c-.071,0-.071-.019-.3.124L10.8,8.9V8.854a3.459,3.459,0,0,0-.019-.521.3.3,0,0,0-.109-.071H10.6l.052-.161a1.957,1.957,0,0,0,.18-.682.3.3,0,0,0-.109-.071.367.367,0,0,0-.2.052V7.363a.5.5,0,0,1-.071-.052l-.037-.071c-.18-.341-.217-.4-.217-.412a.166.166,0,0,0-.109-.071H9.987a.182.182,0,0,0-.019-.109.163.163,0,0,0-.094-.071.226.226,0,0,0-.161.037H9.69l.071.142-.071.037L9.672,6.7c0,.052-.142.378-.217.592a2.193,2.193,0,0,0-.217.719.3.3,0,0,0,.109.071c.052,0,.071.019.322-.124a2.126,2.126,0,0,1-.217.232c-.2.2-.341.36-.468.5l.037-.052V8.547a1.086,1.086,0,0,0-.052.18c-.289.3-.36.412-.378.483a.65.65,0,0,1-.052.142c.019-.037.052-.094.071-.094h0v.019h.019s.052.071.109.071a2.345,2.345,0,0,0,.719-.341c-.124.124-.251.232-.36.36-.36.36-.592.573-.738.738h0l-.142.161V10.2s-.052.142-.094.142h.037c-.071.094-.052.124,0,.18,0,0,.019.037.037.037h0v.052h0v-.037h.071l-.037.052a.056.056,0,0,0,.052-.037h0s.27-.124,1.132-.611c.378-.217.9-.521,1.023-.573a.094.094,0,0,0,.071-.019.052.052,0,0,0,.037-.019s.037,0,.037.019a.713.713,0,0,0,.052.18l.037-.052a.6.6,0,0,1,.037.217c.124.109-.109-.341,0-.232a.771.771,0,0,0,.052.289,15.422,15.422,0,0,0-2.893,1.525c-.611.36-1.311.753-1.814,1.023.109-.124.232-.251.341-.378q.916-.989.843-1.113a.317.317,0,0,0-.071-.052H7.116s.124-.037-.019-.052h.18a.675.675,0,0,1-.172-.019h-.36a1.544,1.544,0,0,0,.322,0c-.052.037-.2.052-.142.109-.052.019-.124.071-.232.124H6.674c-.142.094-.36.2-.663.378-.217.124-.483.27-.663.378l.052-.2c.124-.521.142-.592.124-.644h.1c.019-.037-.037-.037-.124-.037a.2.2,0,0,0-.071-.052,1.038,1.038,0,0,1,.322-.019c-.109-.052-.052,0-.217-.052.142.094-.573,0-.341.094a.65.65,0,0,0-.142-.052.13.13,0,0,0,0-.161.166.166,0,0,0-.109-.071,2.072,2.072,0,0,0-.483.217H4.426l-.094.052-.071.037a.642.642,0,0,0-.3.037c-.161,0,.037-.019-.071-.052l-.161.037-.142-.037-.109-.071h0a1.8,1.8,0,0,1-.217-.124c-.019,0-.037-.037-.071-.037a.389.389,0,0,0-.232.071l-.071.037a1.085,1.085,0,0,1-.109-.071.163.163,0,0,0-.071-.037.226.226,0,0,0-.161.037H2.5l.037.109H2.47l.094.052H2.526a.085.085,0,0,0,.037.071v.071h.094c.071.037.161.109.322.217.142.094.3.217.36.251.052.052.109.052.2.019.037.019.071.052.109.071a1.849,1.849,0,0,0,.124.322.163.163,0,0,0,.094.071.5.5,0,0,0,.052.124.166.166,0,0,0,.109.071h.109c.052.052.124.124.232.251s.251.27.27.289a.1.1,0,0,0,.094.052.324.324,0,0,0,.217-.071h0l.378.109h.037c-.071.124-.052.161,0,.217a.118.118,0,0,0,.094.064.43.43,0,0,0,.18-.037,6.366,6.366,0,0,0,.629.45q0,.094.037.109a.166.166,0,0,0,.109.071.364.364,0,0,0,.142-.019l.217.27c.071.109.161.2.2.251a.872.872,0,0,0-.052.124c0,.019-.019.037-.019.071-.019.071-.037.161-.052.251h0c-.555.648-.806,1.012-.753,1.094a.3.3,0,0,0,.109.071c.052,0,.071,0,.27-.094,0,.037.037.019.071,0v.124c-.037,0-.052.052-.071.094-.36.27-.322.322-.27.412,0,.037.037.052.071.071a.139.139,0,0,0,0,.142h.019c-.052.161-.124.36-.18.5L6,17.214H6c-.109.289-.109.3-.071.36h0c0,.094-.037.161-.037.289l-.052.037a1.024,1.024,0,0,1-.037.18.265.265,0,0,1-.071.18c-.034.064-.064.131-.094.2a9.681,9.681,0,0,0,.862-.54c.18-.124.378-.251.555-.36a4.14,4.14,0,0,1,.378-.217c-.161-.037.27-.109.232-.2.052,0,.124-.037.052.037.232-.2.412-.217.54-.4.052,0-.037.071,0,.071,0-.019.071-.071.109-.071s-.019.037-.052.094c.251-.18.232-.27.2-.341a.468.468,0,0,0,.289-.217c.052,0,.161-.037,0,.071.094-.052.573-.341.555-.4.037,0,.124-.094.142-.109l.217-.142a.678.678,0,0,0,.109-.071h0a.3.3,0,0,0,.109.094.364.364,0,0,0,.142-.019c.161.142.2.161.251.18l.037.037c.124.124.27.289.289.3a.1.1,0,0,0,.094.052.24.24,0,0,0,.142-.037h0a.734.734,0,0,1-.019.18,2.325,2.325,0,0,0-.052.663.3.3,0,0,0,.109.071l.644-.3.052-.037h0s-.094.037.037.124c0,.019.071.052.124.071-.142.18-.124.2-.071.27a.166.166,0,0,0,.109.071c.071,0,.071.019.378-.142a.658.658,0,0,1,.161.124c-.037-.052-.052-.109.052-.052a.992.992,0,0,1,.217.18,1.626,1.626,0,0,0,.037.521.166.166,0,0,0,.109.071c.071,0,.071.019.468-.2.161.094.378.217.483.27a.484.484,0,0,0,0,.18.166.166,0,0,0,.109.071h.037a.131.131,0,0,0,.109-.037.833.833,0,0,0,.232.161c-.037-.071-.052-.161-.094-.251h.019s.109-.142.052-.217c0-.019-.037-.037-.052-.052h0s.094-.142.052-.217c0-.019-.037-.037-.052-.052a1.49,1.49,0,0,0,.071-.555.166.166,0,0,0-.109-.071c-.052,0-.071,0-.27.094-.019-.052-.019-.071-.037-.071l-.03-.045a2.638,2.638,0,0,0-.124-.341.5.5,0,0,0-.109-.142c0-.071.019-.019.037-.019l-.037-.124c.232-.4.217-.412.18-.483a.166.166,0,0,0-.109-.071.367.367,0,0,0-.2.052c.037-.109.052-.217.094-.3v-.037a.4.4,0,0,0,.052-.124q.109-.4.071-.45a.166.166,0,0,0-.109-.071,1.519,1.519,0,0,0-.4.161,1.433,1.433,0,0,0-.124-.3s.019,0,.037.037a3.051,3.051,0,0,1-.2-.7c0-.052-.037-.109-.037-.161v-.071h-.037v-.037a.883.883,0,0,0,.037-.142h0s.094-.094.071-.142l.378-.27h0c.644-.45,1.311-.862,1.922-1.274H15.06l.217-.161c.071-.019.109,0-.037.094.052,0,.109-.052.161-.109s.094-.124.094-.124c.217-.124.217-.109.142-.037h0l-.071.015Zm.629-.45-.094.052C16.2,11.268,16.184,11.29,16.184,11.309Zm-9.45,2.012h0s-.052-.094-.109-.094H6.573v-.094h.052a.071.071,0,0,0,.037.071.12.12,0,0,0,.109.071c.124.037.232,0,2.316-1.222.232-.124.483-.289.719-.412-.27.2-.54.412-.772.611-.97.772-1.439,1.132-1.652,1.33h0a1.085,1.085,0,0,0-.109-.071s-.037-.037-.052-.037l-.037-.037s-.142-.217-.18-.18a.276.276,0,0,1-.094.3c-.071-.094-.124-.18-.161-.217h0l-.015-.03Zm4.024-3.091a.3.3,0,0,0,.109.071h.071a.531.531,0,0,1,.019.217c.071.18.037-.071.109.109v.052l.037.037h0a.259.259,0,0,0-.094-.037c-.109-.019-.142-.037-2.121,1.113-.27.161-.555.322-.843.483.27-.217.573-.431.843-.63,1.094-.809,1.615-1.222,1.87-1.435h0v.019Zm1.817,3.125V13.3l.3-.2c-.161.124.037.094-.251.251l.094-.142-.161.124h0Zm-.521.36h.052c-.412.217-1.132.611-2.443,1.364.5-.3,1.023-.629,1.51-.918s.952-.573,1.345-.828l-.052.037-.052.037-.071.052s-.18.124-.322.217v.037h.037Zm.322,2a.3.3,0,0,0,.109.071h.071c-.161.094-.341.2-.573.322l-.251.142a2.262,2.262,0,0,0,.18-.2c.18-.18.3-.322.431-.45,0,.094.019.094.037.109h0Zm-1.169.322s.037.052,0,.052Zm.071,0A.427.427,0,0,0,11.208,16v-.052c.142-.071.378-.217.772-.45l.052-.037c-.124.124-.251.27-.36.378s-.232.251-.322.341c-.052-.071-.071-.109-.071-.142h0Zm-.791-.989a.09.09,0,0,0-.019-.052h0c.431-.27.843-.5,1.2-.7h0a.122.122,0,0,0,.124,0h0c-.124.071-.322.2-.644.378-.217.124-.468.27-.629.36h0l-.037.019Zm1.7-.719a.09.09,0,0,0-.019-.052c0-.019-.037-.037-.052-.052h0l.052-.037.037.071v.052h-.019v.019Zm-.056.18c-.094.289-.094.3-.052.36a.12.12,0,0,0,.109.071h.037v.052c-.109.071-.251.142-.412.251-.109.071-.232.142-.36.217a2.539,2.539,0,0,1,.2-.251c.289-.378.431-.573.5-.682h0l-.019-.019Zm.378,1.69a1.343,1.343,0,0,0-.45.2l.071-.037c.142-.094.322-.18.468-.27l-.109.109h.019Zm.322.719a.266.266,0,0,1-.052-.037l.094-.052-.052.094h.015Zm.094-.468s-.232.124-.45.251c.075-.086.15-.172.232-.251l.161-.18s.037.109.052.18h0Zm-1.885-3.054c-.97.555-2.065,1.184-2.945,1.69.682-.431,1.476-.933,2.192-1.383a41.139,41.139,0,0,0,3.683-2.406h0a.752.752,0,0,0,.322-.124h0s.052.18.071.27v.037c-.719.4-1.795,1-3.357,1.922h.034Zm.109-2.514h0V11a.071.071,0,0,0-.037-.071C11.118,10.912,11.156,10.893,11.156,10.878Zm-.052.071c.037.094.071.2.109.289h.45c-.412.232-.989.555-1.832,1.042-.412.232-.862.5-1.274.738.217-.18.468-.36.682-.54a22.824,22.824,0,0,0,1.87-1.533h0Zm2.173.217h-.037a.816.816,0,0,1,.251-.037c-.4.2-1.15.629-2.623,1.491-.644.378-1.4.809-2.05,1.184.3-.2.629-.412.933-.629,1.742-1.169,2.514-1.7,2.836-1.975a3.767,3.767,0,0,0,.682-.037ZM10.005,12.53c.289-.161.592-.341.9-.521-.45.3-.918.629-1.345.918-1.132.753-1.761,1.184-2.121,1.454v-.037H7.42l.109-.071s0-.019-.037-.037V14.2h.037s.071-.071.071-.124c.142-.18.2-.251.18-.3.322-.161.952-.521,2.214-1.259h0l.015.019ZM7.274,14.468h0l-.037.037v-.037Zm.109.431a36.114,36.114,0,0,0,3.376-1.87c-.217.142-.431.27-.644.412-1.345.843-2.244,1.42-2.859,1.795.161-.251.142-.289.109-.341h.019ZM7,14.8a.1.1,0,0,0,.037.071v.037l-.071.052v-.071l.037-.071h0V14.8Zm-.468,1.87h0l.052-.142s.052.019.052.037v-.161s.019-.109.019-.124c.037,0,.071-.037.109-.052a.278.278,0,0,1,.019-.094c.592-.289,1.814-.97,4.436-2.5.843-.483,1.795-1.023,2.6-1.491-.862.54-1.885,1.169-2.822,1.724-2.675,1.634-3.916,2.406-4.489,2.8h.019Zm6.628-3.736a1.3,1.3,0,0,1-.094.109l-.037-.037.124-.071h0Zm-2.893,2.477s-.052-.052-.094-.052H10.14l.094-.052v.037a.12.12,0,0,0,.109.071c.094.019.109.019.97-.483l.232-.124-.142.2a8.1,8.1,0,0,0-.592.828c-.094-.052-.2-.094-.3-.161-.124-.109.052,0,0-.071l-.109-.037-.142-.142h.019ZM14.925,11.1l.071.037h.052l.037-.037H15.1l-.4.2-.034-.12a1.117,1.117,0,0,1,.232-.094h0l.015.015Zm-3.376-.412-.037-.037Zm-1.51-3.766h0l-.052.037.037-.071v.037h.019ZM9.822,7.4c.071-.2.124-.341.161-.45l.037.052s-.037.2-.094.2a.468.468,0,0,1,.094.251l-.161.094-.124.071L9.829,7.4h0Zm-.052,1c.18-.18.3-.341.412-.45,0,.019.019.037.037.052,0,.071-.052-.052-.052,0a.512.512,0,0,1,.142.27c-.071,0-.18.071-.753.4H9.518l.251-.251h0V8.409ZM9.32,9.754l-.176.109.251-.251c.483-.483.772-.753.918-.933h.124A2.434,2.434,0,0,1,10.53,9v.124h0c-.094-.019-.109-.037-1.2.611h0v.019Zm-1.21,1.829c.483-.27,1-.573,1.476-.843-.27.217-.573.431-.843.629A12.657,12.657,0,0,0,6.693,13a.118.118,0,0,1-.052-.052L6.693,13v.037a.212.212,0,0,1-.094-.019v-.056a1.754,1.754,0,0,0-.071-.483c.36-.2.881-.483,1.581-.9h0Zm-1.832,0,.251-.142c-.109.109-.2.217-.289.322-.289.3-.483.521-.611.663H5.535v-.034c-.142-.094-.232-.18-.341-.251.094,0,.142,0,1.094-.555h0l-.015-.007Zm-1.6.142c-.124-.161.2.124.109-.019a.268.268,0,0,1-.161-.052L4.5,11.6h0s.18-.109.3-.18.27-.161.412-.232l-.052.232c-.109.483-.124.555-.109.611-.037-.037-.094-.052-.124-.094,0-.037-.142-.142-.052-.124a.335.335,0,0,1-.18-.094H4.681Zm-.094.075a1.785,1.785,0,0,1-.2-.071l-.071-.037.142-.071s.251.142.341.2c-.037.037-.109.037-.217,0h0V11.8Zm.54-.933q-.163.079-.483.27c-.161.094-.36.217-.521.289h0l-.056-.157s.217-.109.5-.27l.142-.094h.037a1.681,1.681,0,0,1,.2-.109h.109l.052.052a.487.487,0,0,0-.232,0,1.416,1.416,0,0,1,.251.019h0Zm-.3,1.383h0l-.037-.037h0l-.037-.037.037.037.071.037H4.816ZM8.2,16.416a.534.534,0,0,1,.161-.094A.389.389,0,0,1,8.2,16.416Zm.341,0s-.019-.019,0-.071l-.037.037c-.109.037-.094-.019-.037-.094l.124-.037s.071-.142.037-.18l-.071.071V16.1l-.071.071H8.372l-.378.2a4.326,4.326,0,0,1-.719.738c.071-.109-.037-.094-.071-.142.142,0,.289-.217.483-.341-.109.071-.109.019-.094,0l-.322.289a.923.923,0,0,0-.217.071c.071,0,0,.071-.071.142a1.3,1.3,0,0,1-.142.109l-.037.037H6.783l-.037.052v-.049s0-.019.037-.037a.262.262,0,0,1,.109-.071.091.091,0,0,0-.067.034H6.787v.037H6.768a.187.187,0,0,1-.037.071.168.168,0,0,1-.142.124c.037-.019.052-.019.052-.052A.5.5,0,0,1,6.5,17.5c-.037.019-.052,0-.037-.019h.019a2.486,2.486,0,0,0-.3.18v-.124l.124-.071s.18-.109.217-.124h.019s.109-.142.052-.217l-.037-.037c.3-.161.862-.468,1.922-1.06h.019v.037h0a.155.155,0,0,1,.071.019H8.6a.12.12,0,0,0,.071-.019.816.816,0,0,1-.161.18.775.775,0,0,0,.161-.037l-.232.2h0l.094.015Z" transform="translate(-1.544 -5.4)" fill="#f5b6c3"/><path d="M18.7,32.046h.037S18.737,32.027,18.7,32.046Z" transform="translate(-11.693 -21.322)" fill="#f5b6c3"/><path d="M9.651,17.58H9.49a1.121,1.121,0,0,1,.161.037S9.614,17.6,9.651,17.58Z" transform="translate(-5.934 -12.282)" fill="#f5b6c3"/><path d="M5.937,17.694c.109,0,0-.052.071-.037.037-.019-.124,0-.217,0-.094.019-.094.037.124.019h0l.019.019Z" transform="translate(-3.584 -12.324)" fill="#f5b6c3"/><path d="M22.7,6.681,22.61,6.61a.519.519,0,0,1,.037.124l.052-.052h0Z" transform="translate(-14.138 -5.422)" fill="#f5b6c3"/><path d="M13.6,12.12l-.037.019h.019Z" transform="translate(-8.479 -8.868)" fill="#f5b6c3"/><path d="M13.492,12.032h.052s-.071-.037-.052-.052C13.439,12.032,13.529,12,13.492,12.032Z" transform="translate(-8.426 -8.78)" fill="#f5b6c3"/><path d="M13.71,11.527h.037a.109.109,0,0,1,.019-.037c-.019,0-.037,0-.052.037Z" transform="translate(-8.573 -8.474)" fill="#f5b6c3"/><path d="M13.6,11.68s0,.019-.037.037C13.579,11.717,13.631,11.717,13.6,11.68Z" transform="translate(-8.479 -8.592)" fill="#f5b6c3"/><path d="M13.57,11.377h.019s0-.019.037-.037a.266.266,0,0,0-.052.037h0Z" transform="translate(-8.485 -8.38)" fill="#f5b6c3"/><path d="M13.38,11.767l.071-.007h0Z" transform="translate(-8.366 -8.642)" fill="#f5b6c3"/><path d="M13.57,11.219h.019l.037-.019-.052.019h0Z" transform="translate(-8.485 -8.292)" fill="#f5b6c3"/><path d="M13.57,11.1s.037-.037.052-.037H13.57Z" transform="translate(-8.485 -8.205)" fill="#f5b6c3"/><path d="M13.507,11.3l-.037.037h0a.04.04,0,0,0,.037-.034h0Z" transform="translate(-8.423 -8.355)" fill="#f5b6c3"/><path d="M13.439,11.359h0l-.019-.019Z" transform="translate(-8.392 -8.38)" fill="#f5b6c3"/><path d="M13.18,11.667a.14.14,0,0,1,.094-.037A.13.13,0,0,0,13.18,11.667Z" transform="translate(-8.241 -8.561)" fill="#f5b6c3"/><path d="M13.33,11.269s.037,0,.037-.019H13.33v.037h0Z" transform="translate(-8.335 -8.324)" fill="#f5b6c3"/><path d="M12.647,11.1a.109.109,0,0,1,.019-.037c-.037.037-.071,0-.142.052h.034s-.037,0-.037.019c.037-.019.071-.019.052,0a.778.778,0,0,0,.217-.124h-.052s-.037.052-.071.052h0l-.015.037Z" transform="translate(-7.829 -8.174)" fill="#f5b6c3"/><path d="M13.23,11.06V11.1h0l.037-.037Z" transform="translate(-8.273 -8.205)" fill="#f5b6c3"/><path d="M13.051,11.154H13c-.037.019-.071,0-.109.052h.056s.019,0,.037-.037h.037l.034-.019Z" transform="translate(-8.06 -8.261)" fill="#f5b6c3"/><path d="M12.94,11.8l.019-.019Z" transform="translate(-8.091 -8.655)" fill="#f5b6c3"/><path d="M13.042,11.59a.88.88,0,0,0-.094.071h.019a.109.109,0,0,0-.037.019.09.09,0,0,0,.052-.019h0l.052-.052h0V11.59Z" transform="translate(-8.085 -8.536)" fill="#f5b6c3"/><path d="M13.224,10.979l.037-.019-.071.019h.037Z" transform="translate(-8.248 -8.142)" fill="#f5b6c3"/><path d="M13.226,10.92h-.037l-.019.019.052-.019Z" transform="translate(-8.235 -8.117)" fill="#f5b6c3"/><path d="M12.18,9.19l.037-.03H12.18V9.2h0Z" transform="translate(-7.616 -7.017)" fill="#f5b6c3"/><path d="M12.711,10.187V10.15S12.659,10.2,12.711,10.187Z" transform="translate(-7.934 -7.636)" fill="#f5b6c3"/><path d="M12.75,10.16s.019-.037,0-.019h0s.019.007.019.019Z" transform="translate(-7.973 -7.627)" fill="#f5b6c3"/><path d="M10.69,9.311h.052l.109-.071Z" transform="translate(-6.684 -7.067)" fill="#f5b6c3"/><path d="M6.97,3.987l-.037.037c.037-.019.052-.019.052,0h0s.019.071.037.124l.037-.037v.034c.071-.037,0-.019.052-.071-.071.071.052.052-.037.142,0,0,.037-.037.052-.037h0a.266.266,0,0,1-.037.052h0s.037.019.037.037h0a.176.176,0,0,0,.124.052h0s0,.019.037.037h.037c-.037,0-.037.052-.071.052.052,0,.037,0,.124-.037l-.037.037s.052-.019.071,0c-.037,0-.037.037-.094.052-.052.071.109,0,0,.071.109-.052.037-.052.052-.071.019-.037.071-.037.071-.019,0,0-.109.094-.071.124h0s.037,0,0,.037c.052-.037,0,0,.071-.037H7.4s.124-.052.094,0H7.446s.019,0,0,.019c-.071.052-.037,0-.109,0-.019.019.071,0,0,.037.109-.052,0,.037.094,0l-.037.037H7.374s-.019.071,0,.071c-.019-.019.052-.037.071-.071.071,0-.094.094-.052.109a.04.04,0,0,1,.034-.037h0a.07.07,0,0,1-.041.056c.019.019.037-.037.071-.037-.052.037.037,0,.052,0l-.034.037s.094-.052.071,0l-.071.037h.019l-.052.037s.037,0,.037.019c.037-.019.071-.052.094-.037-.019.019-.037.019-.019.037-.037,0-.071.037-.037,0H7.479v.052h.094a.289.289,0,0,1-.094.037h.052s-.037.037-.052.037c0,.019.094,0,.071.019h.019s-.037.071.037.052l-.052.052s.071-.071.109-.052c.037,0-.052.037-.071.052.037,0,.109-.037.071,0h0l-.037.037a.2.2,0,0,0-.109.037c.124-.071.052.037.18-.019h.052s-.019.037-.037.037H7.73l.037.037h.071s-.071.037-.071,0c-.124.094.037,0,0,.071H7.749l-.071.071s.094-.094.142-.094c0,0,0,.019.019,0-.052.019-.037.037-.019.037l-.052.037a.278.278,0,0,0,.094-.019l-.079.075s.071-.052.094-.037c0,.037.019.037.071.037,0,.019-.037,0-.052.037h.037a.259.259,0,0,1,.094-.037c.071-.037-.071.094,0,.052a.056.056,0,0,0-.052.037H8.1l-.037.037a.508.508,0,0,1,.161-.052l.037-.037h.052a.266.266,0,0,0-.052.037h0a.259.259,0,0,1-.094.037L8.2,5.52s-.094.037-.124.052H8.1l-.071.052h.037v.037a.6.6,0,0,1,.217-.037.271.271,0,0,0-.142.071c.052-.037-.037,0-.037-.037,0,0-.037.019-.037.037h.071a.118.118,0,0,0-.052.052c.094-.052.071,0,.109,0-.037,0-.071.037-.071,0-.052.052.124-.037.071,0h0c.037,0,.019.037,0,.037h0a.094.094,0,0,0,.124.037h0l-.109.052.3-.094a1.314,1.314,0,0,1-.289.124.018.018,0,0,0,.019.019.581.581,0,0,1,.109-.052c-.071.052-.037.037-.094.094,0,0,.124-.071.124-.052a.873.873,0,0,1-.124.052l.124-.037s-.094.052-.124.071c.019,0,0,.019.019.019h.019s.161-.071.18-.037c-.019,0-.142.052-.142.094a2.772,2.772,0,0,1,.341-.109h0s-.289.109-.36.124c-.019.019-.037.019-.019.037-.019.019-.052,0-.052,0v.037a.2.2,0,0,0,.124-.037H8.27s.2-.071.2-.037a1.01,1.01,0,0,1-.142.071h0s.094,0,.052.037c0,0-.071.052-.037.037a1.976,1.976,0,0,1,.341-.18.444.444,0,0,1-.094.094c-.052.037-.142.052-.18.094h.052s-.052.019-.037.037c.071-.037,0,.037.052-.019.019,0,0,.019,0,.037a.586.586,0,0,1,.18-.052.4.4,0,0,0-.041.034v.094a.077.077,0,0,1-.052.037H8.6s-.019,0-.071.037c.037-.019.071,0,.094,0,.052-.037,0-.037-.037-.037a.394.394,0,0,1,.232-.052c.037,0-.052.037-.037.037,0,.052.161-.037.124.019a.563.563,0,0,1-.142.071c-.037,0,0-.037,0-.052h0s-.037.019-.037,0c-.037.037.037.071,0,.124a.07.07,0,0,0,.052-.019h0s.071-.019.071-.037h.071l-.052.037s.037-.037,0-.019c.037,0-.052.071.019.037l.037-.037s.109-.019.094,0c.052-.037,0,0,.052-.052-.071.052-.019-.037-.094.019.071-.052.019-.037.071-.094-.019,0-.037.019-.037,0H8.989V6.43H8.881a.109.109,0,0,0,.037-.019H8.881s.052-.052.094-.052h0s.019-.052,0-.052H8.922s-.109-.037-.037-.109c0,0-.037,0-.037-.019h.037s0-.071-.019-.052c.094-.071,0-.071,0-.094H8.723V5.977h0c.071-.071-.109-.019-.052-.094h0V5.85a.056.056,0,0,0-.052.037H8.581s-.037,0,.037-.052a.343.343,0,0,0-.124,0h0V5.8l.052-.037H8.454a.976.976,0,0,0,.094-.037H8.454s-.071,0-.037-.037c.052-.052-.037-.094,0-.161-.109.071.037-.052-.052,0,.019,0,.037-.037.052-.037-.037,0,.019-.052-.052-.037a.07.07,0,0,0,.052-.019h.037a.852.852,0,0,0-.18.052c.037-.037.019-.037-.037,0,.019,0,.037-.037.052-.037s0-.071-.052-.037h0a.058.058,0,0,0-.019-.037H8.18s-.037,0,0-.071H8.139c-.094.071.037-.037,0-.037H8.12a.892.892,0,0,0,.124-.094h.019a.134.134,0,0,1-.094,0c.037-.019.094-.037.071-.052.019-.019-.124.019-.071-.037-.019,0-.037.037-.071.037,0,0,.071-.094,0-.052h0a.1.1,0,0,0-.109,0c.142-.094-.124-.019.019-.109L7.97,4.917h0a.134.134,0,0,0-.094,0A.052.052,0,0,0,7.914,4.9q0-.052-.094-.037l.037-.037s.037-.094-.037-.094h.019s.071-.161-.109-.071H7.682a.25.25,0,0,0-.094.071s.037-.052.052-.052h0a.121.121,0,0,1,.052-.094c-.037-.052-.037-.142-.071-.2l-.052.052h0l.052-.052c.037-.037-.052,0-.052,0,0-.037.094-.037.071-.052H7.622s-.052.037-.071,0c0-.019.037-.037.037-.037H7.536l-.052.052c.071-.071-.037-.109,0-.124A.1.1,0,0,1,7.412,4.2s-.052.052-.071.037c.124-.094.019-.052.094-.142-.037.052-.052-.037-.109.052,0-.019.037-.037.052-.071-.071,0-.019-.094-.071-.109l-.052.052.052-.071s-.094.071-.052,0c0,0-.019.037-.037.037a.134.134,0,0,0-.094-.109c-.041-.015-.071-.052-.052-.142,0,.037-.019.037-.037.019l-.052.052V3.747s0-.019-.071.019h0c-.056.075-.116.146-.18.217.071-.052-.052.124.052.052h0l.161-.052ZM7.892,5.3H7.873C7.925,5.28,7.91,5.3,7.892,5.3Z" transform="translate(-4.208 -3.628)" fill="#f5b6c3"/><path d="M12.836,11s-.019.019,0,.019h0S12.874,10.983,12.836,11Z" transform="translate(-8.021 -8.165)" fill="#f5b6c3"/><path d="M12.98,10.606s.052-.019.037,0C13.07,10.587,12.946,10.606,12.98,10.606Z" transform="translate(-8.113 -7.916)" fill="#f5b6c3"/><path d="M12.51,11.169l.052-.019H12.51Z" transform="translate(-7.822 -8.261)" fill="#f5b6c3"/><path d="M12.2,10.58s-.019,0,0,.019h.019Z" transform="translate(-7.621 -7.905)" fill="#f5b6c3"/><path d="M12,10.839l.037-.019-.052.037h.019v-.019Z" transform="translate(-7.497 -8.055)" fill="#f5b6c3"/><path d="M11.873,10.77s-.052,0-.037.019C11.836,10.789,11.873,10.789,11.873,10.77Z" transform="translate(-7.399 -8.023)" fill="#f5b6c3"/><path d="M11.74,10.012h.019l.094-.052-.109.052h0Z" transform="translate(-7.341 -7.517)" fill="#f5b6c3"/><path d="M10.961,9.81s-.019,0-.071.037c0,.037.052-.019.037,0,.019,0,0-.019.037-.037h0Z" transform="translate(-6.81 -7.423)" fill="#f5b6c3"/><path d="M7.929,3.44l-.019.037h.019Z" transform="translate(-4.946 -3.44)" fill="#f5b6c3"/><path d="M7.735,3.542l.037-.052-.052.037h0l.019.019Z" transform="translate(-4.827 -3.471)" fill="#f5b6c3"/><path d="M9.577,8.09l-.037.037h0V8.09Z" transform="translate(-5.965 -6.348)" fill="#f5b6c3"/><path d="M9.44,7.679h0l.052-.019Z" transform="translate(-5.903 -6.079)" fill="#f5b6c3"/><path d="M38.371,6.347h0V6.31s-.037.052-.071.052c.037.052.037-.019.052,0h0l.019-.019Z" transform="translate(-23.949 -5.235)" fill="#f5b6c3"/><path d="M37.889,6.089s-.019-.007-.019-.019a.07.07,0,0,0,.019.052V6.085Z" transform="translate(-23.68 -5.085)" fill="#f5b6c3"/><path d="M38.047,6.282s0-.071-.037-.037a.04.04,0,0,1,.037.034h0Z" transform="translate(-23.768 -5.188)" fill="#f5b6c3"/><path d="M37.707,6.207s-.019,0-.037-.037a.266.266,0,0,0,.037.052h0V6.2Z" transform="translate(-23.555 -5.147)" fill="#f5b6c3"/><path d="M37.49,6.207V6.17l.019.052L37.49,6.2Z" transform="translate(-23.442 -5.147)" fill="#f5b6c3"/><path d="M37.327,6.222s-.037-.037-.037-.052v.052Z" transform="translate(-23.317 -5.147)" fill="#f5b6c3"/><path d="M37.617,6.347S37.6,6.31,37.58,6.31Z" transform="translate(-23.499 -5.235)" fill="#f5b6c3"/><path d="M37.957,6.544a.14.14,0,0,1-.037-.094A.13.13,0,0,0,37.957,6.544Z" transform="translate(-23.711 -5.322)" fill="#f5b6c3"/><path d="M37.77,6.46V6.5h.019A.109.109,0,0,0,37.77,6.46Z" transform="translate(-23.618 -5.328)" fill="#f5b6c3"/><path d="M37.5,6.487s0-.037-.019-.037v.037Z" transform="translate(-23.436 -5.322)" fill="#f5b6c3"/><path d="M37.259,6.849h-.037c.037.037,0,.071.052.142V6.954s0,.037.019.037c-.019-.037-.019-.071,0-.052a.624.624,0,0,0-.142-.2v.052a.112.112,0,0,1,.071.071h0l.037-.019Z" transform="translate(-23.23 -5.503)" fill="#f5b6c3"/><path d="M37.215,6.612h.037A.118.118,0,0,0,37.2,6.56v.052h.019Z" transform="translate(-23.261 -5.391)" fill="#f5b6c3"/><path d="M37.384,6.569a.138.138,0,0,0,.052.109V6.625s0-.019-.037-.037h0V6.55h0v.037h0l-.019-.019Z" transform="translate(-23.374 -5.385)" fill="#f5b6c3"/><path d="M37.891,6.727v.037a.09.09,0,0,0-.019-.052h0s-.052-.037-.052-.052a.345.345,0,0,0,.071.094V6.731h0Z" transform="translate(-23.649 -5.453)" fill="#f5b6c3"/><path d="M37.137,6.587,37.1,6.55l.037.052V6.584Z" transform="translate(-23.199 -5.385)" fill="#f5b6c3"/><path d="M37.069,6.637,37.05,6.6v.037Z" transform="translate(-23.167 -5.416)" fill="#f5b6c3"/><path d="M35.125,8.04s-.094-.052-.052-.019l.037.037h.019V8.04Z" transform="translate(-21.924 -6.298)" fill="#f5b6c3"/><path d="M34.637,9.557h0L34.6,9.52v.037Z" transform="translate(-21.635 -7.242)" fill="#f5b6c3"/><path d="M33.99,11.64l.037.037S34.027,11.659,33.99,11.64Z" transform="translate(-21.254 -8.567)" fill="#f5b6c3"/><path d="M36.277,7.27H36.24S36.292,7.307,36.277,7.27Z" transform="translate(-22.661 -5.835)" fill="#f5b6c3"/><path d="M33.31,10.15l.019.019Z" transform="translate(-20.829 -7.636)" fill="#f5b6c3"/><path d="M36.739,6.84l-.019.019h.019Z" transform="translate(-22.961 -5.566)" fill="#f5b6c3"/><path d="M35.629,9.161s-.019-.052,0-.037L35.52,9.03l.109.124h0Z" transform="translate(-22.211 -6.935)" fill="#f5b6c3"/><path d="M30.626,9.488a.266.266,0,0,1,.052.037h-.094s-.019.037.037.071h0a1.494,1.494,0,0,1,.251.109c-.071-.052.142.019.052-.052.019,0,.019.019.052.037q-.037-.037,0-.037h0a1.327,1.327,0,0,0,.124-.071H31.05l.037-.019c-.052-.052-.019.019-.094-.037.094.037.052-.071.142,0,0,0-.052-.019-.037-.037h.071s0-.037.019-.019h-.019s.071-.071.037-.142h-.019a.077.077,0,0,0,.037-.052h0s-.019-.037,0-.037c.019.019.052,0,.071.037-.019-.052-.019-.037-.094-.109h.037s-.037-.019-.037-.037c.019.037.052.019.094.052.094,0-.037-.094.071-.037-.094-.071-.071,0-.094-.019-.037,0-.052-.052-.037-.052s.124.052.142.037h0s-.019-.037.037-.019c-.052-.037,0,0-.052-.052v.037s-.094-.094-.037-.094l.037.037s0-.019.019,0c.071.052,0,.037.037.094.037,0-.037-.052.037,0-.094-.071.037-.019-.037-.094l.037.037V9.02l.037.037s.052,0,.052-.037c-.019.037-.052-.019-.094-.037-.037-.071.124.052.142,0h.019c0-.037-.052-.019-.071-.052.052.019,0-.019-.019-.052l.037.037s-.094-.071-.037-.071l.052.052h.037V8.858c-.037,0-.071-.052-.071-.071.037,0,.037.037.052,0,.019.019.052.052,0,.037l.037.037.037-.037h0l-.037-.071s.037.019.037.037V8.757c.037.019.071.052.071.071V8.772a.04.04,0,0,1,.037.034h0c.037,0-.037-.071,0-.071h0s.071,0,.037-.071l.071.037s-.094-.037-.094-.094c0-.037.052.037.071.037-.019-.037-.071-.094,0-.071v.019H31.9a.1.1,0,0,0,.071.094c-.109-.094.037-.052-.094-.142h.037s-.071-.052-.037-.071a.09.09,0,0,1,.052.019V8.454h.019a.427.427,0,0,1-.037-.071c.019,0,0,0,.019.019V8.368s.037.052.019.052c.124.071-.019-.037.071,0h0a.415.415,0,0,0,.109.052.307.307,0,0,1-.142-.094s.019,0,0-.019c.037.037.037,0,.037,0l.052.037a.317.317,0,0,1-.052-.071.332.332,0,0,1,.094.052c.019,0-.071-.037-.071-.071.037,0,.019-.037,0-.071.037,0,.037.037.052.037l-.037-.037h.019s-.052-.037-.052-.052c-.052-.052.109.037.052-.037.019,0,.037.037.052.037a.227.227,0,0,0-.052-.109h.052s-.094-.052-.109-.109H31.99V7.9l.037.037h0a.148.148,0,0,1,.071.052h-.037a.441.441,0,0,0,.094.071h.094a.685.685,0,0,1-.109-.2.6.6,0,0,1,.109.109c-.052-.037,0,.037-.019.052,0,0,.037.019.037.037V7.989s0,.019.037.037c-.094-.071-.037-.071-.052-.094.019.019.052.052.037.052.071.037-.071-.109,0-.071h0c0-.037.019-.037.037,0h0a.078.078,0,0,0,.015-.109c0-.007-.011-.011-.015-.015l.094.094-.18-.251s.2.161.217.217c0,0,.037,0,.019-.019l-.094-.071c.071.052.037.019.109.052A.7.7,0,0,1,32.4,7.7l.094.094-.052-.109.094.094s.019,0,0-.037H32.5s-.094-.142-.071-.161a.273.273,0,0,0,.124.109,1.2,1.2,0,0,1-.18-.289h.019s.142.217.18.289c.037,0,.037.037.037,0,.037.019.037.037.019.052h.052a.217.217,0,0,0-.071-.124v.094s-.109-.161-.071-.18c.019,0,.071.094.094.109h0s-.019-.094.037-.052c0,0,.071.052.052.019a3.853,3.853,0,0,1-.27-.289.971.971,0,0,1,.109.052.773.773,0,0,1,.124.161L32.661,7.5s.037.052.037.037c-.037-.052.037,0-.037-.052,0-.019.019,0,.037,0a.389.389,0,0,1-.094-.161l.037.037a.142.142,0,0,0,.094-.019.118.118,0,0,1,.052.052V7.352s-.019.019.037.071c-.019-.037,0-.052-.019-.094-.037-.052-.037,0-.037.037a.464.464,0,0,1-.094-.2c0-.037.037.037.037.019.052,0-.052-.142,0-.124a.3.3,0,0,1,.094.124c0,.037-.052,0-.052,0h.037v.037c.037.037.071-.037.124-.019a.07.07,0,0,0-.019-.052h0s0-.052-.037-.052V7.03l.037.052s-.037-.019-.037,0c0-.037.071.052.037-.019l-.037-.037s-.019-.109,0-.094c-.037-.052,0,0-.052-.052.052.071-.052.019.019.094-.052-.052-.037,0-.109-.071,0,0,.037.037,0,.037h0l.019.037c.019.037,0,.052,0,.094,0,0,0-.019-.037-.037v.03s-.052-.052-.052-.094h-.019s-.052,0-.052.019v.052h-.019s0,.094-.094.052c0,0,0,.037-.019.037l-.037-.037s-.052,0-.037.037c-.094-.071-.071.019-.109.037l.037.037a.349.349,0,0,0-.019.052l.037.037a.085.085,0,0,0-.071.037h0c-.109-.052,0,.109-.071.071h0v.037L32.136,7.4h0s0,.019.037.052v.037s0,.037-.052-.019c.019.037,0,.052.052.124h0l-.052-.037.052.071a.88.88,0,0,1-.094-.071c.037.071,0,.037.037.109l-.037-.037s.019.052,0,.037c-.071-.037-.094.071-.18.052.109.071-.052,0,0,.052-.019,0-.037-.019-.052-.052,0,.037-.071,0,0,.071-.019,0-.037-.037-.037-.037h0a.109.109,0,0,0-.019-.037.412.412,0,0,0,.109.142q-.037,0,0,.037a.054.054,0,0,1-.052-.052s-.071.019-.019.052h0s-.019,0-.037.037h0v.052h0s0,.019-.071,0l.037.037s-.071,0-.052.037h.037c-.052-.019-.1-.037-.161-.052V8c-.071,0,.052.037.052.071-.037-.019-.071-.052-.094-.052s.052.109,0,.094a.054.054,0,0,1,.052.052c0,.019-.109-.019-.052.037h-.019a.085.085,0,0,0,.037.071c-.142-.094,0,.109-.109.019v.037h-.037a.155.155,0,0,0,.019.071.052.052,0,0,1-.037-.019c-.052,0-.052.019,0,.094l-.052-.037s-.109,0-.071.052h0s-.18,0-.037.109v.052a.4.4,0,0,0,.124.052s-.071,0-.071-.019h0a.14.14,0,0,1-.109-.019c-.037.052-.124.094-.161.142l.071.037h0s-.052,0-.037-.019c-.037,0,0,.037.037.052a.077.077,0,0,1-.071-.052h0s.052.052.037.071c-.019,0-.052-.019-.052,0h-.019l.052.037s-.019.019.052.052c-.109-.037-.094.071-.124.052.037.037,0,.052,0,.071,0,0,.071.037.052.052-.124-.071-.071,0-.161-.037.071.019,0,.052.071.094a.289.289,0,0,1-.094-.037c.019.052-.071.052-.094.109a.085.085,0,0,1,.071.037L30.716,9.3s.094.052.019.037c0,0,.037,0,.037.019-.124.037-.037.2-.232.18q.037,0,.037.019h0l.052-.041Zm1.4-1.184s.019.037,0,.019C31.99,8.285,32.028,8.3,32.028,8.3Z" transform="translate(-19.097 -5.591)" fill="#f5b6c3"/><path d="M37.2,7h.037S37.2,6.965,37.2,7Z" transform="translate(-23.261 -5.657)" fill="#f5b6c3"/><path d="M36.692,6.9s-.037-.052,0-.037C36.673,6.806,36.692,6.929,36.692,6.9Z" transform="translate(-22.933 -5.569)" fill="#f5b6c3"/><path d="M37.29,7.23l.019.037.019.019-.037-.052h0Z" transform="translate(-23.317 -5.81)" fill="#f5b6c3"/><rect height="0.019" transform="translate(13.969 1.469)" fill="#f5b6c3"/><path d="M36.72,7.647s.019.019.019,0V7.61h0Z" transform="translate(-22.961 -6.047)" fill="#f5b6c3"/><path d="M37,7.787s-.019,0-.037-.037L37,7.8h0V7.784Z" transform="translate(-23.111 -6.135)" fill="#f5b6c3"/><path d="M37.019,7.977s0-.037-.019-.037C37,7.94,37,7.992,37.019,7.977Z" transform="translate(-23.136 -6.254)" fill="#f5b6c3"/><path d="M36.152,8.074h0L36.1,7.98Z" transform="translate(-22.573 -6.279)" fill="#f5b6c3"/><path d="M36.177,8.994a.04.04,0,0,1-.037-.034h0c0,.037,0,.019.052.071.037,0-.037-.052,0-.037h-.019Z" transform="translate(-22.598 -6.892)" fill="#f5b6c3"/><path d="M30.517,13.89l-.037.019h.037Z" transform="translate(-19.059 -9.974)" fill="#f5b6c3"/><path d="M30.642,14.017l-.052-.037Z" transform="translate(-19.128 -10.031)" fill="#f5b6c3"/><path d="M34.382,11.047h0l-.052-.037Z" transform="translate(-21.467 -8.174)" fill="#f5b6c3"/><path d="M42.57,32.237l.037-.037S42.57,32.252,42.57,32.237Z" transform="translate(-26.619 -21.424)" fill="#f5b6c3"/><path d="M42.249,32.409l.019-.019-.037.037.019-.019Z" transform="translate(-26.406 -21.542)" fill="#f5b6c3"/><path d="M42.205,32.309s-.052.037-.037,0c-.037.071.019,0,0,.019h0l.037-.037h0Z" transform="translate(-26.359 -21.48)" fill="#f5b6c3"/><path d="M42.267,31.86s-.026.034-.037.052h.019V31.86Z" transform="translate(-26.406 -21.211)" fill="#f5b6c3"/><path d="M42.18,32.133s.037-.052.019-.037A.052.052,0,0,1,42.18,32.133Z" transform="translate(-26.375 -21.357)" fill="#f5b6c3"/><path d="M42.127,31.9V31.86a.266.266,0,0,1-.037.052h0l.037-.019Z" transform="translate(-26.319 -21.211)" fill="#f5b6c3"/><path d="M42.04,32.2l.052-.052Z" transform="translate(-26.288 -21.392)" fill="#f5b6c3"/><path d="M42.14,31.757l.037-.037Z" transform="translate(-26.35 -21.123)" fill="#f5b6c3"/><path d="M42.09,31.682s.019-.052.037-.052l-.037.037v.019Z" transform="translate(-26.319 -21.067)" fill="#f5b6c3"/><path d="M41.94,32.221a.148.148,0,0,1,.052-.071C41.992,32.169,41.955,32.187,41.94,32.221Z" transform="translate(-26.225 -21.392)" fill="#f5b6c3"/><path d="M41.99,32.087a.109.109,0,0,1,.019-.037H41.99Z" transform="translate(-26.256 -21.33)" fill="#f5b6c3"/><path d="M41.454,32v-.037c-.019.052-.052.052-.094.124h0c.019-.037.052-.071.037-.019a1.248,1.248,0,0,0,.124-.217.056.056,0,0,1-.037.052.13.13,0,0,1-.037.094h0Z" transform="translate(-25.862 -21.205)" fill="#f5b6c3"/><path d="M41.819,31.847h0l.019-.037-.037.037Z" transform="translate(-26.137 -21.18)" fill="#f5b6c3"/><path d="M41.762,31.95a.09.09,0,0,1,.019-.052h0V31.86h-.019a.754.754,0,0,0-.052.094s.019-.037.037-.037h0l.019.034Z" transform="translate(-26.081 -21.211)" fill="#f5b6c3"/><path d="M41.821,32.194a.5.5,0,0,0-.052.094H41.75s.026-.037.037-.056h0a.187.187,0,0,1,.037-.071h0V32.2Z" transform="translate(-26.106 -21.399)" fill="#f5b6c3"/><path d="M41.75,32.265V32.3h0a.09.09,0,0,1,.019-.052H41.75v.019Z" transform="translate(-26.106 -21.455)" fill="#f5b6c3"/><path d="M41.825,31.772l.037-.052-.052.052h.019Z" transform="translate(-26.144 -21.123)" fill="#f5b6c3"/><path d="M41.8,31.779h0l.019-.019Z" transform="translate(-26.137 -21.148)" fill="#f5b6c3"/><path d="M40.79,31.235s.037-.094,0-.052v.037h0v.019Z" transform="translate(-25.506 -20.781)" fill="#f5b6c3"/><path d="M41.356,31.607V31.57S41.337,31.622,41.356,31.607Z" transform="translate(-25.855 -21.03)" fill="#f5b6c3"/><path d="M39.924,32.146l.037-.037L40.014,32l-.094.142h0Z" transform="translate(-24.962 -21.299)" fill="#f5b6c3"/><path d="M38.662,30.793s.052-.052.052-.037l-.037.052v-.019s-.037.094.019,0v-.037a.865.865,0,0,1,.071-.052c.037-.052,0,0,.019-.052-.037.094-.019,0-.052.071.037-.071,0-.037.037-.109,0,.019,0,.037-.019.019h0v.052a.5.5,0,0,0-.071.052A.052.052,0,0,1,38.7,30.7v.037a.212.212,0,0,1,.019-.094h0v-.034H38.7s-.071.052-.037-.019h-.019V30.55h0c.052-.094-.019-.037-.019-.052v.052h-.071v.037l-.037-.037h0c.037-.109-.071.052-.052-.019h0V30.5h0s0,.019-.037.052h-.019s-.019.037,0-.037c-.019.037-.037,0-.071.094h0a.278.278,0,0,1,.019-.094l-.071.071v-.041h0c.019-.071-.052-.037-.037-.109-.052.109,0-.052-.037.037,0-.019,0-.037.037-.052-.019.019,0-.052-.037,0,0-.019.019-.037.037-.052h0a.109.109,0,0,1,.019-.037c-.034.045-.064.094-.094.142q0-.037-.019,0s0-.052.037-.052c0,0,0-.052-.037,0h-.019s0,.019-.037.037h0s-.019,0,0-.052v.052c-.071.094,0-.071-.037-.037v.037s.037-.142.037-.161v-.019c0-.071-.037.052-.052.071,0-.037.037-.071.037-.094s-.071.094-.052.037a.071.071,0,0,1-.037.071s0-.109-.019-.037h0s-.037,0-.052.052c.052-.161-.071.052,0-.094h0a.056.056,0,0,0-.052.037v-.03q0-.037-.052.037v-.052s0-.094-.019-.037h0s0-.161-.071,0l-.037.037a.374.374,0,0,0-.037.109v-.071h0V30.22c-.037,0-.052-.071-.094-.094V30.2H37.52s0-.071.019-.052c0-.037-.019.037-.037.052a.224.224,0,0,1,.037-.094h0s-.019.071-.037.071V30.13h0v.037s-.019,0-.037.052c.019-.109-.052-.052-.037-.094-.019.037-.037.037-.037.037s0,.071-.019.071c.037-.124,0-.052,0-.161,0,.071-.037,0-.052.109v-.094c-.037.052-.037-.037-.071-.037a.155.155,0,0,1-.019.071v-.094s-.019.109,0,.037V30.1c-.037-.094-.124.052-.142-.124v.037s-.037,0-.037.071h0s-.019.161-.037.251c.019-.094,0,.124.037,0v.06c0-.037,0-.052.019-.037h0a.148.148,0,0,0,.052.071v-.019c.019-.071,0,0,0-.094,0,.094.037,0,.019.124,0,0,0-.052.019-.052h0v.071h.019a.121.121,0,0,0,.094-.052h.037l.019-.019a.094.094,0,0,1-.019.071c.037-.037.019-.037.052-.109v.037s0-.052.019-.052a.1.1,0,0,1-.037.094c0,.094.052-.071.037.052.037-.094,0-.052,0-.071,0-.037.037-.071.037-.052,0,0-.037.124,0,.124h0c.019-.052,0,0,.037-.071h-.019s.052-.094.052-.037a.09.09,0,0,1-.019.052h0c-.019.071-.019,0-.052.071,0,.037.037-.052,0,.037.037-.109,0,0,.052-.052v.052h0v.037s-.019.052,0,.019a.278.278,0,0,1,.019-.094c.037-.052-.037.124,0,.109h0a.085.085,0,0,1,.037-.071c0,.052,0-.019.037-.037v.052s.019-.094.019-.052l-.037.052h0v.037h0a.224.224,0,0,1,.037-.094c0,.037-.019.037,0,.037,0,.037-.037.071-.019.019v.037h0l.037-.052s0,.037-.019.037v-.034a.212.212,0,0,1-.019.094L37.6,30.6v.052s.052-.071.052-.037h0s0,.037.037,0v.071s0-.094.037-.109c.019,0-.019.052-.019.071.019-.037.052-.094.052-.037h0v.037a.254.254,0,0,0-.052.094c.052-.124.037,0,.094-.124v.037h0s.052-.094.052-.052v.019h.037s.037-.019.037-.037v.052c-.052.124.019-.037,0,.052h0a.266.266,0,0,1-.019.109.5.5,0,0,1,.052-.142h0c-.019.052,0,.037,0,.037v-.019a.148.148,0,0,1-.037.094.289.289,0,0,1,.037-.094c0,.037,0,0,.052-.019,0,.019-.019.037-.019.052l.037-.052h0s.037-.037.037-.052c.037-.071-.037.109,0,.037a.266.266,0,0,1-.037.052A.3.3,0,0,0,38.1,30.6v.037a1.01,1.01,0,0,1,.071-.142v-.052h.052l-.037.037h0l-.037.071v-.037l-.052.109h0l-.037.052h0s.109-.124.124-.142a1.01,1.01,0,0,0-.071.142c.019-.052-.037.019-.037,0,0,0,0,.037-.019.037l.052-.052a.09.09,0,0,1-.019.052c.037-.094.037-.052.071-.094a.06.06,0,0,1-.037.052c-.019.071.071-.109.052-.037h0s.019,0,0,.037h0s.037.019.094-.052l-.052.109.161-.251a2.312,2.312,0,0,1-.142.27h0s.037-.109.052-.109c-.037.071,0,.037-.037.109,0,0,.052-.124.071-.109l-.052.109.071-.094a.4.4,0,0,0-.052.124c0-.019,0,0,.019,0h0s.094-.161.109-.142-.071.124-.071.142c.037-.052.142-.251.18-.289h0s-.142.232-.18.289v.037a.04.04,0,0,1-.034.037h0v.037a1.3,1.3,0,0,0,.094-.109l-.052.052s.109-.161.109-.142a.506.506,0,0,1-.071.124c0-.019.037-.037.037-.019v.037h0s-.037.094,0,.052c.037-.071.142-.289.18-.341a.622.622,0,0,1-.037.109.884.884,0,0,1-.109.18s.019-.037.037-.037c0,0-.037.052-.019.052l.037-.052h0a.8.8,0,0,1,.109-.142V30.7s-.019.037,0,.052a.056.056,0,0,1-.037.052v.037c.019-.037.037-.037.052-.052.037-.052,0,0-.019,0a.766.766,0,0,1,.124-.18c.019,0-.019.052,0,.037,0,.019.094-.124.094-.052a.665.665,0,0,1-.071.124c-.019,0,0-.037,0-.037h0s-.019.052-.019.037c-.019.052.037.037.019.071a.266.266,0,0,1,.037-.052h0a.317.317,0,0,0,.052-.071h0l-.206.116Z" transform="translate(-23.142 -20.035)" fill="#f5b6c3"/><path d="M41.6,31.692s.037-.052.019-.037C41.653,31.617,41.563,31.707,41.6,31.692Z" transform="translate(-26.006 -21.077)" fill="#f5b6c3"/><path d="M41.42,32.334v.019l.019-.052-.019.037Z" transform="translate(-25.9 -21.486)" fill="#f5b6c3"/><path d="M41.13,32.119v.019l.019-.037h0Z" transform="translate(-25.719 -21.361)" fill="#f5b6c3"/><path d="M40.881,32.567a.163.163,0,0,0,.019-.037S40.863,32.567,40.881,32.567Z" transform="translate(-25.56 -21.63)" fill="#f5b6c3"/><path d="M40.7,31.994h0l.052-.094Z" transform="translate(-25.45 -21.236)" fill="#f5b6c3"/><path d="M40.107,32.477V32.44l-.037.071c0,.037.037-.052.019-.019h0l.019-.019Z" transform="translate(-25.056 -21.574)" fill="#f5b6c3"/><path d="M36.979,30.077l-.019-.037v.037Z" transform="translate(-23.111 -20.073)" fill="#f5b6c3"/><path d="M38.8,32.062l.019-.052-.037.052Z" transform="translate(-24.249 -21.305)" fill="#f5b6c3"/><path d="M21.086,46.68V46.7h.037S21.071,46.7,21.086,46.68Z" transform="translate(-13.183 -30.478)" fill="#f5b6c3"/><path d="M19.982,44.418h.161c.037,0,.094,0,.052.019h.161c-.094,0,0-.019-.094,0h.075s.037-.019,0-.019h0s-.071-.037,0-.052h.037s.037,0,0-.019c.109,0,.019-.019.037-.037h-.052l-.037-.019h-.052a.04.04,0,0,0,.037-.034h0c.109,0-.071-.019,0-.037h-.124c.094,0,0-.037.094-.052h.037c-.037,0,.052,0-.037-.019h-.037s.037-.019-.037-.019h-.045s-.037,0,.037-.019h-.052c-.109,0,.071,0,.019-.019h-.037a.575.575,0,0,0,.161-.019h.037s-.124-.019-.052-.037H20.2s.109-.019,0-.019h-.071c.18-.019-.094-.019.071-.037h0a.132.132,0,0,0-.071-.037h.037c.037,0,.019-.019-.052-.019h.052s.094-.037.019-.037H20.2c-.071,0,.142-.052-.052-.037h-.157s.052-.019.071,0h0c.109,0,.037-.019.109-.019,0-.019.052-.052.037-.094h-.124c.109-.019.037-.052.071-.052H20.05c.142,0,.052-.019.161-.037-.071,0-.019-.019-.109,0H20.2c-.052,0,.037-.037,0-.052h.019s-.109,0-.037-.037h-.052s-.094-.052.071-.109h-.109l.071-.037h-.071l-.27.052c.094,0-.124.037,0,.037H19.8l-.052.052h0l.094-.019c-.109.019,0,.037-.109.052h.019s0,.037.052.037h.019s-.019,0,0,.019h0c-.094.019.094,0-.037.037.109,0,.052-.019.094-.019h.071s-.142.019-.142.037h-.052s-.052.037,0,.037a.278.278,0,0,0,.094-.019c.071,0-.124.019-.109.037h.052s.037,0,0,.019h0a.5.5,0,0,1-.071.019c-.019,0,.094,0,.052.019h.019s-.052.019,0,.019H19.66c.142,0,0,.019.161,0h.094s0,.019-.037.019H19.84c-.142,0,.037,0-.052.019h-.019a.368.368,0,0,0-.109.019.58.58,0,0,1,.161,0h-.015l.052.019h.071c.071,0-.109.019-.019.019H19.8s.2.037.232.037h-.161c.071,0-.037,0,0-.019h.019a.155.155,0,0,0-.071.019h.071s0,.037.094.037h.18s-.27.019-.3.019h-.124a.7.7,0,0,0,.124.019H20.2a.449.449,0,0,0-.124.019h-.037s-.037.019-.037.037h.142s.161,0,.094.037H20.08c-.052,0,0,.037-.052.037h0L20,44.422Z" transform="translate(-12.293 -28.433)" fill="#f5b6c3"/><path d="M20.66,46.209l.052-.019H20.66Z" transform="translate(-12.919 -30.172)" fill="#f5b6c3"/><path d="M0,32.845l.019.019L0,32.83v.019Z" transform="translate(0 -21.818)" fill="#f5b6c3"/><path d="M.1,32.767h0V32.8s.019-.052.037-.037C.1,32.7.137,32.767.1,32.767Z" transform="translate(-0.063 -21.758)" fill="#f5b6c3"/><path d="M.53,33.085l.019.037A.09.09,0,0,0,.53,33.07h0v.019Z" transform="translate(-0.331 -21.968)" fill="#f5b6c3"/><rect height="0.052" transform="translate(0.116 11.027)" fill="#f5b6c3"/><path d="M.639,33.185v.037L.62,33.17l.019.019h0Z" transform="translate(-0.388 -22.03)" fill="#f5b6c3"/><path d="M.72,33.154a.5.5,0,0,1,.019.071v-.056H.72V33.15Z" transform="translate(-0.45 -22.018)" fill="#f5b6c3"/><path d="M.53,33.02s0,.037.019.037V33.02Z" transform="translate(-0.331 -21.936)" fill="#f5b6c3"/><path d="M.33,32.68a.378.378,0,0,1,.019.094A.21.21,0,0,0,.33,32.68Z" transform="translate(-0.206 -21.724)" fill="#f5b6c3"/><path d="M.639,32.979V32.96H.62v.019Z" transform="translate(-0.388 -21.899)" fill="#f5b6c3"/><path d="M.639,32.365l.019.037c-.019-.052,0-.071-.037-.142V32.3a.7.7,0,0,0,.094.217v-.056a.13.13,0,0,1-.037-.071h0l-.037-.019Z" transform="translate(-0.388 -21.461)" fill="#f5b6c3"/><path d="M.77,32.92h0s0,.019.037.052V32.92Z" transform="translate(-0.481 -21.874)" fill="#f5b6c3"/><path d="M.657,32.739A.167.167,0,0,0,.62,32.63v.052a.109.109,0,0,0,.019.037h0v.037h0Z" transform="translate(-0.388 -21.692)" fill="#f5b6c3"/><path d="M.33,32.527a.427.427,0,0,1,.037.071A.2.2,0,0,0,.33,32.49h0v.052h0v-.019Z" transform="translate(-0.206 -21.605)" fill="#f5b6c3"/><path d="M.81,32.945l.019.037L.81,32.93v.019Z" transform="translate(-0.506 -21.88)" fill="#f5b6c3"/><path d="M.86,32.92l.019.037v-.019Z" transform="translate(-0.538 -21.874)" fill="#f5b6c3"/><path d="M2.06,32.54s.052.094.037.037V32.54Z" transform="translate(-1.288 -21.636)" fill="#f5b6c3"/><path d="M1.331,32.706s.007.019.019.019C1.35,32.706,1.313,32.672,1.331,32.706Z" transform="translate(-0.829 -21.731)" fill="#f5b6c3"/><path d="M1.87,31.19v.037l.052.124Z" transform="translate(-1.169 -20.792)" fill="#f5b6c3"/><path d="M2.749,30.26s-.071-.161-.109-.251c.019.094-.071-.109-.037,0V29.99h0a.976.976,0,0,1-.094-.037h0c.019.071.019,0,.037.071-.037-.094-.052,0-.094-.094,0,0,.019.052,0,.052h0s-.037-.037-.037-.052H2.4a.1.1,0,0,0-.071.094h0s-.019,0-.037.037h0V30.1a.243.243,0,0,1-.037-.071.342.342,0,0,0,.019.124v.034c0-.037-.037-.052-.037-.094-.052-.071,0,.094-.052-.019.037.109.037.052.037.071,0,.037.019.071,0,.071,0,0-.052-.124-.071-.109h0s0,.037-.019,0c.019.052,0,0,0,.071h0s.019.094,0,.052v-.052h0c-.037-.071,0-.019,0-.094,0-.037,0,.052-.019-.019.037.109-.019,0,0,.071h0l-.037-.052s-.037-.037-.037,0c.019,0,.037.052.052.094,0,.071-.052-.109-.071-.071l.037.037-.037-.037a.5.5,0,0,1,.019.071c-.037-.052,0,.019,0,.052v-.056H2.014V30.14s-.019.037-.037.019c0,.037.037.094.019.094,0-.019,0-.037-.019-.037,0-.037-.019-.071,0-.019v-.037H1.939v.052a.7.7,0,0,1-.037-.094v.056s-.037-.037-.037-.052c-.019-.019,0,.094-.019.052h0s-.052-.019-.037.037l-.037-.071s.052.071.037.109c0,.019-.037-.052-.037-.071,0,.037.019.109,0,.052h0V30.2a.332.332,0,0,0-.052-.094c.052.124-.037.037.019.161H1.718V30.23s.037.094,0,.094a.071.071,0,0,1-.019-.037v.037H1.681v.052s-.019-.071,0-.071c-.071-.124,0,.037-.052-.037h0c-.037-.094-.037-.052-.071-.109,0,.019.071.109.071.142h0c-.019-.052-.019-.037-.019-.037v.015a.5.5,0,0,1-.052-.094.7.7,0,0,1,.037.094c-.019-.019-.019,0,0,.052a.067.067,0,0,0-.015-.052v.052h0a.349.349,0,0,1,.019.052c.019.071-.052-.094-.037,0a.09.09,0,0,0-.019-.052v.109L1.5,30.4s.037.109.052.142l.037.052v.037a.09.09,0,0,0-.019-.052h0l-.037-.071v.037a.266.266,0,0,0-.019-.109h0l-.037-.052h0V30.6c0-.052-.037-.094-.052-.142.037.052,0-.037.019-.019L1.43,30.4v.071a.066.066,0,0,0-.037-.056c.037.094,0,.071,0,.109,0-.037-.019-.071,0-.052-.037-.071.037.124,0,.052h0c0,.037,0,0-.019,0h0s-.052,0-.019.094l-.037-.109.071.285a2.134,2.134,0,0,1-.109-.27h0a.581.581,0,0,1,.052.109l-.052-.109s.052.124.037.124a.614.614,0,0,0-.052-.124l.037.109s-.037-.094-.052-.124h0s.037.18.019.18c0-.019-.052-.142-.071-.142,0,.052.094.27.094.322h0s-.094-.27-.109-.341c0-.019,0-.037-.019-.037v-.056H1.126a.2.2,0,0,0,.037.109v-.071s.052.18.037.18a.65.65,0,0,0-.052-.142h0s0,.094-.019.037c0,0-.037-.071-.037-.037.037.071.124.3.142.36,0,0-.052-.071-.071-.094-.037-.052-.037-.142-.071-.18v.052s-.019-.052-.019-.037c.019.071-.019,0,0,.052,0,.019,0,0-.019,0,.019.037.052.142.037.161a.09.09,0,0,0-.019-.052c-.019,0-.037-.037-.052-.019A.266.266,0,0,0,.984,30.7v.037l-.019-.071v.094c.019.052.019,0,.019-.019a.489.489,0,0,1,.052.217c0,.019-.019-.052-.019-.037-.037,0,.037.142,0,.094a.65.65,0,0,1-.052-.142c0-.019.037.037.037.019H.984v-.037c-.019-.037-.052,0-.094-.037v.052H.916a.131.131,0,0,0,.019.071h0c0,.037-.052-.071-.019,0v.037s.037.094.019.094c.019.052,0,0,.037.052-.037-.094.037,0,0-.094a.461.461,0,0,0,.052.094v-.034h0v-.127a.7.7,0,0,1,.037.094h0s.037.037.037,0h0V31.02h0s0-.071.052,0v.019s.052.037.037,0c.052.094.037,0,.071.019v-.124s.026.011.034,0h0c.052.094,0-.094.052-.019h.037l-.019-.037v-.037s0-.037.037.052a.449.449,0,0,0-.019-.124h0v-.019a.415.415,0,0,1,.052.109v-.071s0-.052.019-.019c.037.071.052,0,.109.052-.052-.109.037.037,0-.037,0,.019.019.037.037.071,0-.037.037.037.019-.037a.07.07,0,0,0,.019.052h0V30.9a.81.81,0,0,0-.052-.161c.019.037.019.019,0-.019,0,.019.037.052.019.052,0,0,.052.019.019-.037h.019v-.034h0s0-.019.052.037v-.037c-.052-.094.019.052.019,0h0s.071.109.094.109v.019c.037.052-.019-.052,0-.071a.224.224,0,0,0,.037.094c0,.019-.019-.109.019-.052a.132.132,0,0,0-.037-.071s.071.094.037,0h0v-.075c.071.161,0-.094.071.052h.019v-.037c.037.019.037,0,.019-.071v.052s.094.052.071,0h0s.109.124.037-.037v-.052l-.052-.109s.037.037.037.052h0s.037,0,.052.071c.037-.019.094,0,.124,0l-.037-.071h0s.019.052,0,.052c.019.037,0-.037,0-.052.037.019.019.094.037.094h0v-.075l.019.037H2.28l-.037-.052v-.056c.052.094.071,0,.094.037V30.44s-.037-.071-.019-.071c.052.124.037.052.094.142-.037-.052.019-.019-.019-.109a.187.187,0,0,0,.037.071c0-.052.052,0,.071,0a.251.251,0,0,1-.019-.071l.052.071s-.037-.094,0-.037V30.4s.052-.109.161.037c-.019-.037,0-.037,0-.037h0s.037,0,.019-.071h0l.052-.09Z" transform="translate(-0.557 -20.004)" fill="#f5b6c3"/><path d="M.779,32.566s0-.019-.019,0Z" transform="translate(-0.475 -21.647)" fill="#f5b6c3"/><path d="M.72,32.259V32.24l.019.052L.72,32.255Z" transform="translate(-0.45 -21.449)" fill="#f5b6c3"/><path d="M1.44,31.96h0l.037.094Z" transform="translate(-0.9 -21.274)" fill="#f5b6c3"/><path d="M1.531,31.228a.109.109,0,0,0,.019.037c0-.019,0,0-.019-.071-.019-.019.019.052,0,.037Z" transform="translate(-0.954 -20.793)" fill="#f5b6c3"/><path d="M5.94,31.1l.019.019Z" transform="translate(-3.714 -20.736)" fill="#f5b6c3"/><path d="M2.97,30.57h0l.037.052Z" transform="translate(-1.857 -20.404)" fill="#f5b6c3"/></g></g></g></svg>