<svg xmlns="http://www.w3.org/2000/svg" width="92.026" height="40.02" viewBox="0 0 92.026 40.02"><g transform="matrix(-1, 0.017, -0.017, -1, 95.52, 40.369)" opacity="0.38"><path d="M3.46,21.88c0-1.085,1.064-2.126,2.958-2.892L47.567,2.271a4.8,4.8,0,0,1,3.158,0L91.874,18.989c1.892.768,2.955,1.81,2.955,2.9s-1.063,2.128-2.955,2.9l-.69.253a22.15,22.15,0,0,1-13.59-.253L49.146,13.223,20.7,24.781a22.15,22.15,0,0,1-13.59.253l-.69-.253c-1.9-.769-2.96-1.812-2.958-2.9Z" fill="#fdcfcf"/><path d="M3.46,37.88c0-1.085,1.064-2.126,2.958-2.892L47.567,18.271a4.8,4.8,0,0,1,3.158,0L91.874,34.989c1.892.768,2.955,1.81,2.955,2.9s-1.063,2.128-2.955,2.9l-.69.253a22.15,22.15,0,0,1-13.59-.253L49.146,29.223,20.7,40.781a22.15,22.15,0,0,1-13.59.253l-.69-.253c-1.9-.769-2.96-1.812-2.958-2.9Z" transform="translate(0 -1.542)" fill="#fdcfcf"/><g transform="translate(5.163 8.33)"><path d="M5.1,25.708,47.43,9.271a5.24,5.24,0,0,1,3.3,0l42.33,16.437a24.2,24.2,0,0,1-14.219-.253L49.082,13.9,19.319,25.455A24.2,24.2,0,0,1,5.1,25.708Z" transform="translate(-5.1 -9.004)" fill="#ffb7b7"/><path d="M5.1,41.708,47.43,25.271a5.24,5.24,0,0,1,3.3,0l42.33,16.437a24.2,24.2,0,0,1-14.219-.253L49.082,29.9,19.319,41.455A24.2,24.2,0,0,1,5.1,41.708Z" transform="translate(-5.1 -10.546)" fill="#ffb7b7"/></g></g></svg>