<svg xmlns="http://www.w3.org/2000/svg" width="55.104" height="78.193" viewBox="0 0 55.104 78.193"><path d="M95.7,75.742a1.833,1.833,0,0,0,1.833-1.833V66.786a7.821,7.821,0,0,0,5.942-6.913h6.757a5.583,5.583,0,0,0,5.577-5.577V17.389a5.583,5.583,0,0,0-5.577-5.577h-9.4V3.665H124.11a2.925,2.925,0,0,1,2.922,2.922V76.361a1.833,1.833,0,0,0,3.665,0V6.587A6.6,6.6,0,0,0,124.11,0H82.151a1.833,1.833,0,1,0,0,3.665H90.57v8.147h-9.4a5.583,5.583,0,0,0-5.577,5.577V54.3a5.583,5.583,0,0,0,5.577,5.577h6.757a7.821,7.821,0,0,0,5.942,6.913v7.123A1.833,1.833,0,0,0,95.7,75.742Zm4.14-19.533H91.561V51.85h8.281ZM94.235,3.665h2.932v8.147H94.235ZM81.17,15.478h29.063a1.914,1.914,0,0,1,1.912,1.912V38.426c-9.055,5.2-15.112,2.99-28.138-1.759q-1.382-.5-2.861-1.04c-.571-.206-1.191-.46-1.886-.773V30.677H80.9a1.833,1.833,0,1,0,0-3.665H79.258V23.278h3.605a1.833,1.833,0,1,0,0-3.665H79.258V17.389a1.914,1.914,0,0,1,1.911-1.912ZM79.258,54.3V52.875h3.605a1.833,1.833,0,1,0,0-3.665H79.258V45.476H80.9a1.833,1.833,0,1,0,0-3.665H79.258V38.832q.328.129.641.242,1.475.533,2.851,1.036C90.6,42.974,96.4,45.087,102,45.087a22.263,22.263,0,0,0,10.139-2.507V54.3a1.914,1.914,0,0,1-1.912,1.911h-6.726V50.017a1.833,1.833,0,0,0-1.833-1.833H89.728A1.833,1.833,0,0,0,87.9,50.017v6.191H81.17A1.914,1.914,0,0,1,79.258,54.3Zm12.358,5.577h8.169a4.146,4.146,0,0,1-4.047,3.466l-.036,0-.036,0A4.146,4.146,0,0,1,91.617,59.873Z" transform="translate(-75.593)" fill="#eee"/></svg>