<svg xmlns="http://www.w3.org/2000/svg" width="34.329" height="32.928" viewBox="0 0 34.329 32.928"><path d="M136.105,120.75h14.841V109.973H135.311v9.983A.794.794,0,0,0,136.105,120.75Z" transform="translate(-125.963 -103.078)" fill="#d9def7"/><g transform="translate(11.459 0.622)"><path d="M277.789,23.767a.518.518,0,0,0,.518-.518V20.6a.421.421,0,0,1,.421-.421h1.743a.518.518,0,1,0,0-1.036h-1.743a1.459,1.459,0,0,0-1.457,1.457v2.644A.518.518,0,0,0,277.789,23.767Z" transform="translate(-277.271 -19.148)" fill="#685e68"/></g><g transform="translate(18.93 0.622)"><path d="M169.308,23.827a.518.518,0,0,0,.518-.518V20.6a1.459,1.459,0,0,0-1.457-1.457H166.4a.518.518,0,0,0,0,1.036h1.967a.421.421,0,0,1,.421.421v2.7A.518.518,0,0,0,169.308,23.827Z" transform="translate(-165.885 -19.148)" fill="#685e68"/></g><path d="M326.64,109.973v9.983a.794.794,0,0,0,.794.794h-1.747a.794.794,0,0,1-.794-.794v-9.983Z" transform="translate(-315.545 -103.078)" fill="#bec6ed"/><path d="M201.826,12.424h4.325a1.14,1.14,0,1,0,0-2.279h-4.325a1.14,1.14,0,1,0,0,2.279Z" transform="translate(-186.823 -10.145)" fill="#7bacdf"/><path d="M255.659,10.145h1.747a1.14,1.14,0,1,0,0,2.279h-1.747a1.14,1.14,0,1,1,0-2.279Z" transform="translate(-240.656 -10.145)" fill="#5f99d7"/><path d="M117.81,72.64h16.574a.794.794,0,0,0,.794-.794V69.136a.794.794,0,0,0-.794-.794H117.81a.794.794,0,0,0-.794.794v2.709A.794.794,0,0,0,117.81,72.64Z" transform="translate(-108.932 -64.322)" fill="#7bacdf"/><path d="M343.982,68.341h1.747a.794.794,0,0,0-.794.794v2.709a.794.794,0,0,0,.794.794h-1.747a.794.794,0,0,1-.794-.794V69.135A.794.794,0,0,1,343.982,68.341Z" transform="translate(-335.104 -64.321)" fill="#5f99d7"/><g transform="translate(14.821 10.761)"><path d="M214.939,167.3h.98v-.98a.381.381,0,0,1,.381-.381H217.5a.381.381,0,0,1,.381.381v.98h.98a.381.381,0,0,1,.381.381v1.205a.381.381,0,0,1-.381.381h-.98v.98a.381.381,0,0,1-.381.381H216.3a.381.381,0,0,1-.381-.381v-.98h-.98a.381.381,0,0,1-.381-.381v-1.205A.381.381,0,0,1,214.939,167.3Z" transform="translate(-214.558 -165.939)" fill="#eb5569"/><path d="M244.09,167.3v-.98a.381.381,0,0,1,.381-.381h1a.354.354,0,0,0-.354.354V167.3h-.979a.382.382,0,0,0-.382.382v1.2a.382.382,0,0,0,.382.382h.979v1.007a.354.354,0,0,0,.354.354h-1a.381.381,0,0,1-.381-.381v-.98h-.98a.381.381,0,0,1-.381-.381v-1.205a.381.381,0,0,1,.381-.381h.98Z" transform="translate(-242.729 -165.94)" fill="#e53950"/></g><path d="M22.163,418.459l.973-.463a.429.429,0,0,0,.2-.572l-1.9-4-1.749.832,1.9,4A.429.429,0,0,0,22.163,418.459Z" transform="translate(9.588 -385.573)" fill="#f8a5af"/><path d="M25.649,419.476l1.9,4a.425.425,0,0,0,.567.2l-.867.412a.429.429,0,0,1-.572-.2l-1.9-4Z" transform="translate(4.5 -391.203)" fill="#f58a97"/><path d="M73.608,418.459,72.635,418a.429.429,0,0,1-.2-.572l1.9-4,1.749.832-1.9,4A.429.429,0,0,1,73.608,418.459Z" transform="translate(-46.752 -385.573)" fill="#f8a5af"/><path d="M86.047,417.845a.42.42,0,0,0,.2.56l-.86-.409a.429.429,0,0,1-.2-.572l1.9-4,.868.413Z" transform="translate(-59.503 -385.573)" fill="#f58a97"/><g transform="translate(0 16.798)"><path d="M269.365,284.739l9.264,3.5,1.149-3.038-9.264-3.5a1.624,1.624,0,1,0-1.149,3.038Z" transform="translate(-263.982 -279.644)" fill="#fed2a4"/><path d="M273.725,282.653a1.624,1.624,0,0,1,1.976-.984,1.624,1.624,0,0,0,1.049,1.5l7.966,3.013-.783,2.069-9.264-3.5A1.624,1.624,0,0,1,273.725,282.653Z" transform="translate(-269.287 -279.651)" fill="#ffbd86"/><path d="M267.5,300.267l9.264,3.5,4.2-2.7-2.815-.248-9.5-3.592a1.624,1.624,0,0,0-1.149,3.038Z" transform="translate(-265.036 -294.099)" fill="#ffe5c2"/><path d="M304.26,300.269l9.265,3.5,1.662-1.069L305.9,299.2a1.623,1.623,0,0,1-.954-2.067,1.624,1.624,0,0,0-.685,3.14Z" transform="translate(-301.8 -294.101)" fill="#fed2a4"/><path d="M0,260.953a1.623,1.623,0,0,0,1.049,1.517c2.139.809,8.057,2.893,10.934,3.9a8.733,8.733,0,0,0,3.313.483l3.41-.164a12.734,12.734,0,0,0,3.433-.645l3.046-1.021,3.327.679.984-.29.991.693,3.14.641a.584.584,0,0,0,.7-.573v-10.1a.584.584,0,0,0-.5-.578l-3.345-.5-.99.256-.99-.551-2.972-1.273a7.18,7.18,0,0,0-3.976.539L16.3,256.3a6.627,6.627,0,0,1-2.412.565l-2.728.114a1.484,1.484,0,0,0,.128,2.956l3.5.457h0l.015,0L9.583,262l-7.349-2.594-.021-.008a1.661,1.661,0,0,0-2.107.979A1.63,1.63,0,0,0,0,260.953Z" transform="translate(0 -253.346)" fill="#ffe5c2"/><g transform="translate(0 3.601)"><path d="M240.209,307.695l4.706,1.073a.1.1,0,0,1-.023.193l-3.085-.035-3.5-.457a1.484,1.484,0,0,1-.128-2.956l.783-.033A1.485,1.485,0,0,0,240.209,307.695Z" transform="translate(-227.024 -305.48)" fill="#fed2a4"/><path d="M264.44,340.7a1.661,1.661,0,0,1,2.011-1.009,3.257,3.257,0,0,0-.217.81,1.623,1.623,0,0,0,1.049,1.518c2.683,1.014,10.419,4.081,13.123,5.122l-.775.037a8.734,8.734,0,0,1-3.313-.483c-3.647-1.287-7.308-2.558-10.934-3.9a1.62,1.62,0,0,1-.944-2.091Z" transform="translate(-264.334 -337.266)" fill="#ffe5c2"/></g></g><path d="M5.261,288.311l-.989-.55-.99.147L0,287.238l1.461-.615a1.4,1.4,0,0,1,.82-.081l1.989.406v-9.654l.99-.1.99.148v10.006l2.033.415a.83.83,0,0,0,.82-.3v.916a.584.584,0,0,1-.7.573l-3.142-.641Z" transform="translate(25.225 -258.752)" fill="#fed2a4"/><path d="M55.64,272.918v11.005l1.98.4V273.214Z" transform="translate(-27.134 -254.768)" fill="#f8a5af"/><path d="M70.96,273.066v11.059l-.99-.2V272.918Z" transform="translate(-41.463 -254.768)" fill="#f58a97"/><path d="M254.01,356.977l.4.191a1.334,1.334,0,0,0,.981.069l5.824-1.846-2-.023.015,0Z" transform="translate(-244.427 -331.523)" fill="#fed2a4"/><g transform="translate(2.869 7.922)"><g transform="translate(0.956)"><path d="M427.163,127.781a.518.518,0,0,0,.518-.518v-1.911a.518.518,0,0,0-1.036,0v1.911A.518.518,0,0,0,427.163,127.781Z" transform="translate(-426.645 -124.834)" fill="#f8a5af"/></g><g transform="translate(0 0.955)"><path d="M413.33,139.7h1.911a.518.518,0,0,0,0-1.036H413.33a.518.518,0,1,0,0,1.036Z" transform="translate(-412.812 -138.667)" fill="#f8a5af"/></g></g><ellipse cx="0.513" cy="0.513" rx="0.513" ry="0.513" transform="translate(5.654 14.364)" fill="#5f99d7"/></svg>