<svg xmlns="http://www.w3.org/2000/svg" xmlns:xlink="http://www.w3.org/1999/xlink" width="85.63" height="64.734" viewBox="0 0 85.63 64.734"><defs><filter id="a" x="32.093" y="0" width="53.536" height="44.992" filterUnits="userSpaceOnUse"><feOffset dy="3" input="SourceAlpha"/><feGaussianBlur stdDeviation="3" result="b"/><feFlood flood-opacity="0.349"/><feComposite operator="in" in2="b"/><feComposite in="SourceGraphic"/></filter><filter id="c" x="25.642" y="10.198" width="54.204" height="54.536" filterUnits="userSpaceOnUse"><feOffset dy="3" input="SourceAlpha"/><feGaussianBlur stdDeviation="3" result="d"/><feFlood flood-opacity="0.349"/><feComposite operator="in" in2="d"/><feComposite in="SourceGraphic"/></filter><filter id="e" x="0" y="5.829" width="42.677" height="39.163" filterUnits="userSpaceOnUse"><feOffset dy="3" input="SourceAlpha"/><feGaussianBlur stdDeviation="3" result="f"/><feFlood flood-opacity="0.349"/><feComposite operator="in" in2="f"/><feComposite in="SourceGraphic"/></filter></defs><g transform="translate(66.683 -18.469) rotate(29)"><path d="M5.1,5.1H0V0H1.7V3.4H5.1Zm0,0" transform="translate(-5.648 37.771)"/><g transform="matrix(0.87, -0.48, 0.48, 0.87, -49.37, 48.48)" filter="url(#a)"><path d="M32.366,12.038A15.8,15.8,0,0,0,17.6,1.7,16,16,0,0,0,6.03,6.592l-4.8,5.032L0,10.456,4.8,5.414A17.715,17.715,0,0,1,17.6,0,17.51,17.51,0,0,1,33.958,11.433Zm0,0" transform="translate(46.93 6) rotate(29)"/></g><g transform="matrix(0.87, -0.48, 0.48, 0.87, -49.37, 48.48)" filter="url(#c)"><path d="M16.985,27.179a9.382,9.382,0,0,1-4.257-1.019L1.752,20.534a3.229,3.229,0,0,1,.478-5.945,3.293,3.293,0,0,1,2.463.2l2.42,1.242L2.728,3.985A3.086,3.086,0,0,1,2.643,2.2,2.952,2.952,0,0,1,4.692.11a2.986,2.986,0,0,1,3.62,1.836L10.69,8.485H20.8a3.818,3.818,0,0,1,3.567,2.463l1.39,3.641a9.194,9.194,0,0,1,.531,4.119,9.459,9.459,0,0,1-8.312,8.407,7.94,7.94,0,0,1-.987.064ZM3.206,16.139a1.662,1.662,0,0,0-.488.074,1.48,1.48,0,0,0-.955.955,1.533,1.533,0,0,0,.754,1.847l10.976,5.626a7.591,7.591,0,0,0,4.3.8A7.638,7.638,0,0,0,24.15,15.205l-1.38-3.641a2.129,2.129,0,0,0-1.985-1.369H9.49L6.709,2.541a1.28,1.28,0,0,0-1.571-.786,1.261,1.261,0,0,0-.86.881,1.411,1.411,0,0,0,.032.786l5.86,16.114L3.907,16.32a1.41,1.41,0,0,0-.7-.181Zm0,0" transform="translate(47.82 16.2) rotate(29)"/></g><g transform="matrix(0.87, -0.48, 0.48, 0.87, -49.37, 48.48)" filter="url(#e)"><path d="M23.194,8.849a1.764,1.764,0,0,0-.305-.023H5.479l.38-.177a3.531,3.531,0,0,0,1-.706l4.882-4.882A1.827,1.827,0,0,0,11.994.723,1.765,1.765,0,0,0,9.346.493L.518,9.321a1.766,1.766,0,0,0,0,2.5h0l8.828,8.828a1.766,1.766,0,0,0,2.648-.177,1.827,1.827,0,0,0-.256-2.339L6.865,13.241a3.531,3.531,0,0,0-.883-.644l-.53-.238H22.791a1.827,1.827,0,0,0,1.863-1.483A1.766,1.766,0,0,0,23.194,8.849Z" transform="translate(9 11.83)" opacity="0.5"/></g></g></svg>