<svg xmlns="http://www.w3.org/2000/svg" width="23.897" height="24.782" viewBox="0 0 23.897 24.782"><g transform="translate(-5 -4)"><path d="M30.621,15.506V11.523a4.247,4.247,0,0,0-2.453-3.078,2.4,2.4,0,0,0,.077-.378l.15-1.442a2.375,2.375,0,0,0-2.1-2.611,2.332,2.332,0,0,0-1.725.511,2.363,2.363,0,0,0-.868,1.6l-.15,1.443a2.38,2.38,0,0,0,.038.733C21.363,8.867,20,10.075,20,11.523c0,.9.427,4.753.445,4.917a.438.438,0,0,0,.107.243c.017.02.138.156.343.346L20.48,27.4a1.328,1.328,0,0,0,1.327,1.381,1.98,1.98,0,0,0,1.952-1.637l.729-4.133.982,4.172a2.066,2.066,0,0,0,2.018,1.6A1.328,1.328,0,0,0,28.814,27.4l-.389-9.743c1.887-.275,2.2-1.429,2.2-2.152ZM24.434,7.663l.15-1.443a1.487,1.487,0,0,1,.545-1.009A1.454,1.454,0,0,1,26.2,4.893a1.488,1.488,0,0,1,1.312,1.64l-.15,1.442a1.486,1.486,0,0,1-.545,1.009,1.455,1.455,0,0,1-1.074.319A1.489,1.489,0,0,1,24.434,7.663Zm-.5,1.469a2.353,2.353,0,0,0,1.717,1.05,2.4,2.4,0,0,0,.251.013,2.329,2.329,0,0,0,1.473-.524,2.367,2.367,0,0,0,.4-.424,3.572,3.572,0,0,1,1.961,2.276v3.983c0,.328,0,1.328-2.213,1.328-.37,0-.694,0-1,0a2.558,2.558,0,0,0-1.425-.914c-.156-.06-.315-.121-.471-.186a11.648,11.648,0,0,1,3.133-.223h.2a.443.443,0,0,0,.443-.443V12.408a.443.443,0,0,0-.885,0v2.213c-1.864,0-3.219.027-3.74.637a2.04,2.04,0,0,1-.172-.143,17.15,17.15,0,0,1-.517-2.762.442.442,0,0,0-.878.111,14.238,14.238,0,0,0,.674,3.177c.911,1.026,2.857,1.251,2.862,1.636,0,.266,0,.443-1.328.443A4.848,4.848,0,0,1,21.309,16.2c-.08-.726-.424-3.916-.424-4.672,0-1.029,1.187-1.95,3.05-2.391Zm3.994,18.3a.442.442,0,0,1-.443.46,1.183,1.183,0,0,1-1.156-.916l-1.475-6.266a.436.436,0,0,0-.443-.341.443.443,0,0,0-.424.366l-1.1,6.251a1.094,1.094,0,0,1-1.079.906.442.442,0,0,1-.442-.46l.389-9.731a4.87,4.87,0,0,0,2.672.9c1.184,0,1.94-.162,2.148-.888.289,0,.6,0,.95,0h.018Z" transform="translate(-8.362)" fill="#626262"/><path d="M45.411,36.572a.443.443,0,0,0-.681.067l-.585.878L42.755,36.13a.442.442,0,0,0-.626.626l1.77,1.77a.443.443,0,0,0,.681-.067l.585-.878,1.389,1.388a.442.442,0,1,0,.626-.626Z" transform="translate(-20.626 -17.839)" fill="#626262"/><path d="M11.555,36.13l-1.389,1.388-.585-.878a.443.443,0,0,0-.681-.067l-1.77,1.77a.442.442,0,1,0,.626.626L9.144,37.58l.585.878a.443.443,0,0,0,.681.067l1.77-1.77a.442.442,0,0,0-.626-.626Z" transform="translate(-1.115 -17.839)" fill="#626262"/><path d="M46.443,13.426a.443.443,0,0,0,.2-.047l2.274-1.141a.442.442,0,0,0,.146-.672l-.666-.831,1.785-.9a.443.443,0,0,0-.4-.791l-2.274,1.141a.442.442,0,0,0-.147.672l.666.831-1.785.9a.442.442,0,0,0,.2.838Z" transform="translate(-22.856 -2.788)" fill="#626262"/><path d="M8.244,9.838l1.785.9-.666.831a.442.442,0,0,0,.146.672l2.274,1.141a.438.438,0,0,0,.2.047.442.442,0,0,0,.2-.838l-1.785-.9.666-.831a.442.442,0,0,0-.147-.672L8.641,9.047a.443.443,0,0,0-.4.791Z" transform="translate(-1.672 -2.787)" fill="#626262"/><path d="M51.868,25H49.213a.443.443,0,0,0-.4.64l.565,1.13H47.443a.443.443,0,0,0,0,.885H50.1a.443.443,0,0,0,.4-.64l-.565-1.13h1.939a.443.443,0,0,0,0-.885Z" transform="translate(-23.413 -11.707)" fill="#626262"/><path d="M6.817,27.015a.443.443,0,0,0,.4.64H9.868a.443.443,0,0,0,0-.885H7.929l.565-1.13A.443.443,0,0,0,8.1,25H5.443a.443.443,0,0,0,0,.885H7.382Z" transform="translate(0 -11.707)" fill="#626262"/></g></svg>