<svg xmlns="http://www.w3.org/2000/svg" width="32.941" height="27.837" viewBox="0 0 32.941 27.837"><g transform="translate(0)"><path d="M18.022,10.848a1.2,1.2,0,0,0-1.7,0l-5.977,5.977a1.2,1.2,0,0,0,1.7,1.7l3.933-3.945V29.03a1.2,1.2,0,0,0,2.391,0V14.577L22.3,18.522a1.2,1.2,0,1,0,1.7-1.7Z" transform="translate(-0.53 -2.388)" fill="#d4d4d4"/><path d="M36.444,5H6.5A1.467,1.467,0,0,0,5,6.434,1.467,1.467,0,0,0,6.5,7.868H36.444a1.467,1.467,0,0,0,1.5-1.434A1.467,1.467,0,0,0,36.444,5Z" transform="translate(-5 -5)" fill="#d4d4d4"/></g></svg>