<svg xmlns="http://www.w3.org/2000/svg" width="13.7" height="10.394" viewBox="0 0 13.7 10.394">
  <g id="Group_2445" data-name="Group 2445" transform="translate(-328.549 -980.527)">
    <g id="layer1" transform="translate(326.573 688.563)">
      <path id="path9429" d="M2.764,291.965a.739.739,0,0,0-.487,1.309L6.8,297.15l-4.524,3.874a.739.739,0,1,0,.96,1.119l5.179-4.431a.739.739,0,0,0,0-1.125l-5.179-4.435a.739.739,0,0,0-.474-.186Z" transform="translate(0 0)" fill="#f0a9b9"/>
    </g>
    <g id="layer1-2" data-name="layer1" transform="translate(333.573 688.563)">
      <path id="path9429-2" data-name="path9429" d="M2.764,291.965a.739.739,0,0,0-.487,1.309L6.8,297.15l-4.524,3.874a.739.739,0,1,0,.96,1.119l5.179-4.431a.739.739,0,0,0,0-1.125l-5.179-4.435a.739.739,0,0,0-.474-.186Z" transform="translate(0 0)" fill="#f0a9b9"/>
    </g>
  </g>
</svg>
