<svg id="Group_3941" data-name="Group 3941" xmlns="http://www.w3.org/2000/svg" width="60.3" height="66.993" viewBox="0 0 60.3 66.993">
  <g id="_x35_54_x2C__Find_x2C__Glass_x2C__Magnifier_x2C__Search_x2C__Web_x2C_" transform="translate(0 28.002)">
    <g id="Group_3940" data-name="Group 3940" transform="translate(0 0)">
      <path id="Path_3929" data-name="Path 3929" d="M56.288,46.075A10.141,10.141,0,1,0,66.428,56.216,10.152,10.152,0,0,0,56.288,46.075Zm0,18.721a8.581,8.581,0,1,1,8.581-8.581A8.59,8.59,0,0,1,56.288,64.8Z" transform="translate(-43.027 -42.955)" fill="#ff97b3"/>
      <path id="Path_3930" data-name="Path 3930" d="M44.9,39.873,33.977,28.949a.78.78,0,0,0-1.1,0l-.185.185-2.329-2.329a13.273,13.273,0,1,0-3.48,3.48l2.329,2.329-.2.2a.78.78,0,0,0,0,1.1L39.936,44.837a.78.78,0,0,0,1.1,0L44.9,40.976a.781.781,0,0,0,0-1.1ZM7.709,19.335a11.7,11.7,0,1,1,11.7,11.7A11.714,11.714,0,0,1,7.709,19.335ZM29.4,28.053l2.166,2.166-1.274,1.274-2.166-2.166A13.319,13.319,0,0,0,29.4,28.053ZM40.488,43.182l-9.82-9.82L33.425,30.6l9.82,9.82Z" transform="translate(-6.149 -6.074)" fill="#ff97b3"/>
      <path id="Path_3931" data-name="Path 3931" d="M93.167,172.315a5.467,5.467,0,0,1-5.46-5.46.78.78,0,0,0-1.56,0,7.028,7.028,0,0,0,7.02,7.02.78.78,0,1,0,0-1.56Z" transform="translate(-79.907 -153.594)" fill="#ff97b3"/>
    </g>
  </g>
  <g id="request" transform="translate(20.361)">
    <path id="Path_3932" data-name="Path 3932" d="M90.147,95.105c-.305,0-.6.111-.6.37V97.89H87.465V95.475c0-.259-.305-.37-.6-.37s-.6.111-.6.37v6.012c0,.25.3.379.6.379s.6-.13.6-.379V98.833h2.081v2.655c0,.25.3.379.6.379s.6-.13.6-.379V95.475C90.748,95.216,90.443,95.105,90.147,95.105Zm0,0" transform="translate(-79.533 -87.687)" fill="#ff97b3"/>
    <path id="Path_3933" data-name="Path 3933" d="M162.192,101.35c0-.287-.139-.536-.379-.536h-2.618V98.954H160.6a.419.419,0,0,0,.379-.463c0-.25-.139-.481-.379-.481h-1.406v-1.85h2.618c.24,0,.379-.25.379-.537,0-.25-.12-.518-.379-.518H158.52c-.268,0-.527.13-.527.379v6c0,.25.259.379.527.379h3.293C162.071,101.868,162.192,101.6,162.192,101.35Zm0,0" transform="translate(-145.668 -87.687)" fill="#ff97b3"/>
    <path id="Path_3934" data-name="Path 3934" d="M221.363,101.867H224.3c.24,0,.361-.268.361-.527s-.12-.527-.361-.527h-2.257V95.475c0-.259-.305-.37-.6-.37s-.6.111-.6.37v6.012c0,.25.259.379.527.379Zm0,0" transform="translate(-203.61 -87.687)" fill="#ff97b3"/>
    <path id="Path_3935" data-name="Path 3935" d="M278.824,101.867c.3,0,.6-.13.6-.379V99.342h1.036a1.932,1.932,0,0,0,2.174-2.1v-.055a1.884,1.884,0,0,0-2.1-2.081h-1.859a.408.408,0,0,0-.453.37v6.012c0,.25.3.379.6.379Zm.6-5.707h1.036c.6,0,.971.343.971,1.064v.111c0,.721-.37,1.063-.971,1.063h-1.036Zm0,0" transform="translate(-256.52 -87.687)" fill="#ff97b3"/>
    <path id="Path_3936" data-name="Path 3936" d="M13.783,21.031H35.96a.585.585,0,1,0,0-1.17H31.284a3.77,3.77,0,0,0,1.05-2.613V16.19H35.96a.585.585,0,1,0,0-1.17H32.333V11.348H35.96a.585.585,0,1,0,0-1.17H32.333v-6.4A3.787,3.787,0,0,0,28.55,0H3.783A3.787,3.787,0,0,0,0,3.783V17.248a3.787,3.787,0,0,0,3.783,3.783.626.626,0,0,1,.609.769L2.443,30.109a.956.956,0,0,0,.483,1.071.971.971,0,0,0,.462.118.959.959,0,0,0,.7-.3l9.242-9.767a.629.629,0,0,1,.455-.2Zm-1.3-.609L3.755,29.641l1.776-7.574a1.8,1.8,0,0,0-1.748-2.206A2.616,2.616,0,0,1,1.17,17.248V3.783A2.616,2.616,0,0,1,3.783,1.17H28.551a2.616,2.616,0,0,1,2.613,2.613V17.248a2.616,2.616,0,0,1-2.613,2.613H13.783a1.8,1.8,0,0,0-1.3.561Zm0,0" transform="translate(0 0)" fill="#ff97b3"/>
    <path id="Path_3937" data-name="Path 3937" d="M186.518,65.66h-1.789a.585.585,0,0,0,0,1.17h1.789a2.531,2.531,0,0,1,2.528,2.528V83.016a2.531,2.531,0,0,1-2.528,2.528H166.612a2.513,2.513,0,0,1-2.465-1.964.585.585,0,1,0-1.141.26,3.678,3.678,0,0,0,3.606,2.874h19.906a3.7,3.7,0,0,0,3.7-3.7V69.358A3.7,3.7,0,0,0,186.518,65.66Zm0,0" transform="translate(-150.277 -60.538)" fill="#ff97b3"/>
  </g>
</svg>
