<svg xmlns="http://www.w3.org/2000/svg" width="26.964" height="17.402" viewBox="0 0 26.964 17.402">
  <g id="Group_3941" data-name="Group 3941" transform="translate(0 -7)">
    <g id="_x35_54_x2C__Find_x2C__Glass_x2C__Magnifier_x2C__Search_x2C__Web_x2C_" transform="translate(0 10.2)">
      <g id="Group_3940" data-name="Group 3940" transform="translate(0 0)">
        <path id="Path_3929" data-name="Path 3929" d="M49.841,46.075a3.694,3.694,0,1,0,3.694,3.694A3.7,3.7,0,0,0,49.841,46.075Zm0,6.819a3.125,3.125,0,1,1,3.125-3.125A3.129,3.129,0,0,1,49.841,52.894Z" transform="translate(-45.011 -44.938)" fill="#f3a8b9"/>
        <path id="Path_3930" data-name="Path 3930" d="M20.264,18.385l-3.979-3.979a.284.284,0,0,0-.4,0l-.067.067-.848-.848A4.835,4.835,0,1,0,13.7,14.893l.848.848-.071.071a.284.284,0,0,0,0,.4l3.979,3.979a.284.284,0,0,0,.4,0l1.406-1.406a.284.284,0,0,0,0-.4ZM6.717,10.9a4.262,4.262,0,1,1,4.262,4.262A4.267,4.267,0,0,1,6.717,10.9Zm7.9,3.175.789.789-.464.464-.789-.789a4.851,4.851,0,0,0,.464-.464Zm4.038,5.511L15.08,16.014l1-1,3.577,3.577Z" transform="translate(-6.149 -6.074)" fill="#f3a8b9"/>
        <path id="Path_3931" data-name="Path 3931" d="M88.7,168.348a1.991,1.991,0,0,1-1.989-1.989.284.284,0,0,0-.568,0,2.56,2.56,0,0,0,2.557,2.557.284.284,0,1,0,0-.568Z" transform="translate(-83.874 -161.529)" fill="#f3a8b9"/>
      </g>
    </g>
    <g id="request" transform="translate(12.417 7)">
      <path id="Path_3932" data-name="Path 3932" d="M87.677,95.105c-.111,0-.219.04-.219.135v.879H86.7V95.24c0-.094-.111-.135-.219-.135s-.219.04-.219.135v2.19c0,.091.108.138.219.138s.219-.047.219-.138v-.967h.758v.967c0,.091.108.138.219.138s.219-.047.219-.138V95.24C87.9,95.146,87.785,95.105,87.677,95.105Zm0,0" transform="translate(-83.811 -92.403)" fill="#f3a8b9"/>
      <path id="Path_3933" data-name="Path 3933" d="M159.522,97.38c0-.1-.051-.2-.138-.2h-.954v-.677h.512a.152.152,0,0,0,.138-.168c0-.091-.05-.175-.138-.175h-.512V95.49h.954c.088,0,.138-.091.138-.2s-.044-.189-.138-.189h-1.2c-.1,0-.192.047-.192.138v2.187c0,.091.094.138.192.138h1.2C159.478,97.569,159.522,97.471,159.522,97.38Zm0,0" transform="translate(-153.503 -92.404)" fill="#f3a8b9"/>
      <path id="Path_3934" data-name="Path 3934" d="M221.028,97.568H222.1c.088,0,.131-.1.131-.192s-.044-.192-.131-.192h-.822V95.24c0-.094-.111-.135-.219-.135s-.219.04-.219.135v2.19C220.836,97.521,220.931,97.568,221.028,97.568Zm0,0" transform="translate(-214.561 -92.403)" fill="#f3a8b9"/>
      <path id="Path_3935" data-name="Path 3935" d="M278.442,97.568c.108,0,.219-.047.219-.138v-.782h.377a.7.7,0,0,0,.792-.765v-.02a.686.686,0,0,0-.765-.758h-.677a.149.149,0,0,0-.165.135v2.19C278.223,97.521,278.331,97.568,278.442,97.568Zm.219-2.079h.377c.219,0,.354.125.354.387v.041c0,.263-.135.387-.354.387h-.377Zm0,0" transform="translate(-270.318 -92.403)" fill="#f3a8b9"/>
      <path id="Path_3936" data-name="Path 3936" d="M5.02,7.66H13.1a.213.213,0,1,0,0-.426h-1.7a1.373,1.373,0,0,0,.382-.952V5.9H13.1a.213.213,0,1,0,0-.426H11.777V4.133H13.1a.213.213,0,1,0,0-.426H11.777V1.378A1.379,1.379,0,0,0,10.4,0H1.378A1.379,1.379,0,0,0,0,1.378v4.9A1.379,1.379,0,0,0,1.378,7.66a.228.228,0,0,1,.222.28L.89,10.967a.348.348,0,0,0,.176.39.354.354,0,0,0,.168.043.349.349,0,0,0,.254-.111L4.855,7.732A.229.229,0,0,1,5.02,7.66Zm-.475-.222L1.368,10.8l.647-2.759a.654.654,0,0,0-.637-.8.953.953,0,0,1-.952-.952v-4.9A.953.953,0,0,1,1.378.426H10.4a.953.953,0,0,1,.952.952v4.9a.953.953,0,0,1-.952.952H5.02a.656.656,0,0,0-.475.2Zm0,0" transform="translate(0 0)" fill="#f3a8b9"/>
      <path id="Path_3937" data-name="Path 3937" d="M171.561,65.66h-.652a.213.213,0,0,0,0,.426h.652a.922.922,0,0,1,.921.921v4.975a.922.922,0,0,1-.921.921H164.31a.915.915,0,0,1-.9-.715.213.213,0,1,0-.416.095,1.34,1.34,0,0,0,1.313,1.047h7.251a1.349,1.349,0,0,0,1.347-1.347V67.007A1.348,1.348,0,0,0,171.561,65.66Zm0,0" transform="translate(-158.36 -63.795)" fill="#f3a8b9"/>
    </g>
  </g>
</svg>
