<svg id="_レイヤー_1-2" xmlns="http://www.w3.org/2000/svg" width="123.913" height="35.668" viewBox="0 0 123.913 35.668">
  <g id="Group_3914" data-name="Group 3914">
    <text id="人生の最期を支える" transform="translate(22.786 8)" fill="#f5b6c3" font-size="7" font-family="YuGothicUI-Regular, Yu Gothic UI" letter-spacing="0.3em" opacity="0.95"><tspan x="0" y="0">人生の最期を支える</tspan></text>
    <g id="Group_1380" data-name="Group 1380" transform="translate(16.527 14.992)">
      <path id="_パス_1380-2" d="M80.567,62.888H70.58V43.77h2.083V61.108h7.9Z" transform="translate(-70.58 -42.512)" fill="#f5b6c3"/>
      <path id="_パス_1381-2" d="M122.324,47.306a1.352,1.352,0,0,1-1.354-1.349v-.079a1.368,1.368,0,1,1,2.735-.062v.059a1.332,1.332,0,0,1-1.225,1.428.918.918,0,0,1-.156,0Zm1.055,16.083H121.3V49.712h2.083V63.386Z" transform="translate(-106.164 -43.012)" fill="#f5b6c3"/>
      <path id="_パス_1382-2" d="M148.04,46.188c0-1.707,0-3.94,1.5-5.471a4.514,4.514,0,0,1,3.161-1.228,5.034,5.034,0,0,1,2.033.4l-.35,1.631a3.906,3.906,0,0,0-1.581-.326c-2.157,0-2.685,2.007-2.685,4.216v.779h3.311v1.631h-3.311V59.865H148.04V47.821h-1.88V46.191h1.88Z" transform="translate(-123.954 -39.488)" fill="#f5b6c3"/>
      <path id="_パス_1383-2" d="M194.135,74.594a9.888,9.888,0,0,1-4.29.852c-3.993,0-6.376-2.809-6.376-6.9,0-4.29,2.409-7.378,6.1-7.378,4.216,0,5.294,3.864,5.294,6.246,0,.476-.026.829-.05,1.155h-9.305c.026,3.787,2.183,5.215,4.642,5.215a8.649,8.649,0,0,0,3.587-.7l.4,1.5h0ZM192.8,67.02c.026-1.857-.752-4.266-3.438-4.266-2.512,0-3.614,2.383-3.814,4.266Z" transform="translate(-150.301 -54.8)" fill="#f5b6c3"/>
      <path id="_パス_1384-2" d="M276.194,45.444a6.49,6.49,0,0,0-3.361-.878c-2.659,0-3.664,1.631-3.664,3.012,0,1.88,1.155,2.832,3.714,3.914,3.085,1.3,4.666,2.885,4.666,5.621,0,3.035-2.209,5.368-6.323,5.368a8.8,8.8,0,0,1-4.566-1.2l.579-1.731a7.774,7.774,0,0,0,4.116,1.178c2.559,0,4.063-1.381,4.063-3.438,0-1.88-1.031-3.035-3.514-4.04-2.885-1.078-4.842-2.759-4.842-5.394,0-2.912,2.359-5.042,5.847-5.042a7.783,7.783,0,0,1,3.914.9l-.626,1.731h0Z" transform="translate(-209.049 -41.83)" fill="#f5b6c3"/>
      <path id="_パス_1385-2" d="M320.16,52.142l2.057-.7v3.185h3.538v1.631h-3.538v7.9c0,1.731.526,2.685,1.857,2.685a4.139,4.139,0,0,0,1.4-.2l.126,1.607a5.267,5.267,0,0,1-2.033.326c-3.311,0-3.414-3.012-3.414-4.466V56.259H318.05V54.628h2.107V52.145Z" transform="translate(-245.34 -47.928)" fill="#f5b6c3"/>
      <path id="_パス_1386-2" d="M368.524,71.908a19.226,19.226,0,0,0,.2,3.261h-1.907l-.2-1.757h-.076a4.755,4.755,0,0,1-4.04,2.057,3.794,3.794,0,0,1-3.99-3.582c-.006-.1-.006-.2,0-.306,0-3.285,2.862-5.068,7.927-5.042,0-1.155,0-3.764-3.111-3.764a5.936,5.936,0,0,0-3.338.978l-.5-1.431a7.767,7.767,0,0,1,4.172-1.155c3.864,0,4.869,2.735,4.869,5.444v5.295Zm-2.057-3.837c-2.586,0-5.82.376-5.82,3.261a2.274,2.274,0,0,0,2.359,2.533,3.341,3.341,0,0,0,3.461-3.211V68.067Z" transform="translate(-273.908 -54.798)" fill="#f5b6c3"/>
      <path id="_パス_1387-2" d="M420.816,63.324a5.879,5.879,0,0,0-.752-.05c-2.259,0-3.414,2.233-3.414,4.542v7.428h-2.08V65.66c0-1.454-.026-2.785-.1-4.09h1.83l.1,2.636h.076a4.093,4.093,0,0,1,3.711-2.935,4.92,4.92,0,0,1,.626.076V63.33h0Z" transform="translate(-313.431 -54.87)" fill="#f5b6c3"/>
    </g>
    <g id="_グループ_125" transform="translate(0 1.628)" opacity="0.85">
      <path id="_パス_1407" d="M21.34,6.566a.146.146,0,0,0-.029-.056C21.281,6.6,21.34,6.566,21.34,6.566Z" transform="translate(-15.043 -5.608)" fill="#f5b6c3"/>
      <path id="_パス_1408" d="M20.625,9.53l-.015.126.015-.112Z" transform="translate(-14.555 -7.741)" fill="#f5b6c3"/>
      <path id="_パス_1409" d="M19.833,10.557h.015s.073,0,.085-.029h0l-.056-.112h0l.029-.126a.267.267,0,0,0-.126.029h0l.056.112a4.128,4.128,0,0,1-.126.423c.056-.041.085-.182.112-.3h.015Zm.056-.126-.029.1Z" transform="translate(-13.919 -8.277)" fill="#f5b6c3"/>
      <path id="_パス_1410" d="M18.859,13.17h0a.188.188,0,0,1-.029.1c.029-.015,0,.1.041-.1h-.015Z" transform="translate(-13.298 -10.311)" fill="#f5b6c3"/>
      <path id="_パス_1412" d="M18.373,14.242V14.13s-.041.112-.041.073c-.029.112,0,.1.041.041h0Z" transform="translate(-12.937 -10.989)" fill="#f5b6c3"/>
      <path id="_パス_1414" d="M18.579,14.263l-.029.126s.029,0,0-.056V14.26h.029Z" transform="translate(-13.1 -11.081)" fill="#f5b6c3"/>
      <path id="_パス_1415" d="M18.65,14.573l.015-.041.029-.212-.041.253h0Z" transform="translate(-13.17 -11.123)" fill="#f5b6c3"/>
      <path id="_パス_1417" d="M15.933,17.306s-.073-.041-.015-.056a1.259,1.259,0,0,0-.238.041h.253Z" transform="translate(-11.073 -13.192)" fill="#f5b6c3"/>
      <path id="_パス_1418" d="M15.29,17.455a.922.922,0,0,0,.112-.029A.139.139,0,0,0,15.29,17.455Z" transform="translate(-10.798 -13.315)" fill="#f5b6c3"/>
      <path id="_パス_1424" d="M15.637,17.595s-.126.015-.2.015h.238s.041-.029-.041-.029h0Z" transform="translate(-10.904 -13.425)" fill="#f5b6c3"/>
      <path id="_パス_1428" d="M14.57,17.57a.268.268,0,0,1,.1.015C14.638,17.585,14.57,17.555,14.57,17.57Z" transform="translate(-10.289 -13.416)" fill="#f5b6c3"/>
      <path id="_パス_1430" d="M16.815,17.63a.131.131,0,0,0-.085.029h.085Z" transform="translate(-11.815 -13.461)" fill="#f5b6c3"/>
      <path id="_パス_1431" d="M11.829,17.776s.311.041.2.073c-.182.015-.156,0-.238-.029.073.041-.238.056-.2.112l.156-.029s-.056.029,0,.029c0-.029.17-.056.311-.029.141-.029.041-.126-.073-.182,0,0,0,.029-.141.041h0l-.012.012Z" transform="translate(-8.183 -13.524)" fill="#f5b6c3"/>
      <path id="_パス_1432" d="M12.94,17.621h.326a1.462,1.462,0,0,1-.2-.041c-.1.015-.112.029-.126.041h0Z" transform="translate(-9.138 -13.425)" fill="#f5b6c3"/>
      <path id="_パス_1434" d="M16.476,17.96H16.25l.112.041h0c.126,0,.1-.029.112-.041Z" transform="translate(-11.476 -13.694)" fill="#f5b6c3"/>
      <path id="_パス_1435" d="M12.567,17.581l.029-.041-.126.056.1-.015Z" transform="translate(-8.806 -13.397)" fill="#f5b6c3"/>
      <path id="_パス_1436" d="M11.621,17.609l.015-.029-.085.015.073.015h0Z" transform="translate(-8.156 -13.425)" fill="#f5b6c3"/>
      <path id="_パス_1437" d="M18.629,32.5l-.029.056.056-.073h-.029v.015Z" transform="translate(-13.135 -23.948)" fill="#f5b6c3"/>
      <path id="_パス_1439" d="M8.73,18.165l.029-.015S8.73,18.15,8.73,18.165Z" transform="translate(-6.165 -13.828)" fill="#f5b6c3"/>
      <path id="_パス_1441" d="M12.73,10.639s-.141.141-.085.1l.156-.112h-.041a1.362,1.362,0,0,1,.282-.238c.156-.085.126-.041.2-.085,0,0,.029,0,.085-.056l.338-.238-.253.112c.073-.085.282-.2,0-.056.056-.029.126-.056.2-.1a1.111,1.111,0,0,1-.2-.015V9.922a.46.46,0,0,0-.1-.056c-.041,0-.056,0-.182.056a.094.094,0,0,0-.085-.056.6.6,0,0,0-.282.073h-.479a2.36,2.36,0,0,1-.323.029h0a.231.231,0,0,0-.085-.073.349.349,0,0,0-.212.073c-.073-.041-.338-.015-.435-.085.041.015-.015.029-.1.029-.141-.041-.311-.1-.353-.112a.07.07,0,0,1-.041-.015c-.056-.015-.1,0-.267.112h-.2a2.233,2.233,0,0,1-.311-.029H9.921c-.141-.041-.338-.085-.394-.1V9.714h0a.7.7,0,0,0-.015-.156,3.077,3.077,0,0,0-.056-.367.271.271,0,0,0-.088-.053H9.3l-.029-.056L9.3,8.97a1.638,1.638,0,0,0,.073-.52.239.239,0,0,0-.085-.056c-.056,0-.056-.015-.238.1L9,8.395V8.362a2.712,2.712,0,0,0-.015-.408A.239.239,0,0,0,8.9,7.9H8.849l.041-.126a1.534,1.534,0,0,0,.141-.535.239.239,0,0,0-.085-.056.288.288,0,0,0-.156.041V7.193a.391.391,0,0,1-.056-.041L8.7,7.1c-.141-.267-.17-.311-.17-.323a.13.13,0,0,0-.085-.056H8.364a.143.143,0,0,0-.015-.085.128.128,0,0,0-.073-.056.177.177,0,0,0-.126.029H8.132l.056.112-.056.029-.015-.073c0,.041-.112.3-.17.464a1.719,1.719,0,0,0-.17.564.239.239,0,0,0,.085.056c.041,0,.056.015.253-.1a1.667,1.667,0,0,1-.17.182c-.156.156-.267.282-.367.394l.029-.041V8.121a.852.852,0,0,0-.041.141c-.226.238-.282.323-.3.379a.51.51,0,0,1-.041.112c.015-.029.041-.073.056-.073h0v.015H7.3s.041.056.085.056a1.838,1.838,0,0,0,.564-.267c-.1.1-.2.182-.282.282-.282.282-.464.45-.579.579h0l-.112.126V9.417s-.041.112-.073.112H6.93c-.056.073-.041.1,0,.141,0,0,.015.029.029.029h0V9.74h0V9.711h.056l-.029.041a.044.044,0,0,0,.041-.029h0s.212-.1.887-.479c.3-.17.705-.408.8-.45a.074.074,0,0,0,.056-.015A.041.041,0,0,0,8.8,8.765s.029,0,.029.015a.559.559,0,0,0,.041.141L8.9,8.879a.473.473,0,0,1,.029.17c.1.085-.085-.267,0-.182a.6.6,0,0,0,.041.226A12.093,12.093,0,0,0,6.7,10.29c-.479.282-1.028.591-1.422.8.085-.1.182-.2.267-.3q.718-.776.661-.873a.249.249,0,0,0-.056-.041H6.113s.1-.029-.015-.041H6.24A.529.529,0,0,1,6.1,9.825H5.822a1.211,1.211,0,0,0,.253,0c-.041.029-.156.041-.112.085-.041.015-.1.056-.182.1H5.767c-.112.073-.282.156-.52.3-.17.1-.379.212-.52.3l.041-.156c.1-.408.112-.464.1-.505h.082c.015-.029-.029-.029-.1-.029a.153.153,0,0,0-.056-.041.814.814,0,0,1,.253-.015c-.085-.041-.041,0-.17-.041.112.073-.45,0-.267.073A.51.51,0,0,0,4.5,9.846a.1.1,0,0,0,0-.126.13.13,0,0,0-.085-.056,1.625,1.625,0,0,0-.379.17H4l-.073.041L3.874,9.9a.5.5,0,0,0-.238.029c-.126,0,.029-.015-.056-.041l-.126.029-.112-.029-.085-.056h0a1.407,1.407,0,0,1-.17-.1c-.015,0-.029-.029-.056-.029a.305.305,0,0,0-.182.056L2.793,9.8a.851.851,0,0,1-.085-.056.128.128,0,0,0-.056-.029.177.177,0,0,0-.126.029H2.5l.029.085H2.47l.073.041H2.514a.067.067,0,0,0,.029.056v.056h.073c.056.029.126.085.253.17s.238.17.282.2.085.041.156.015c.029.015.056.041.085.056a1.45,1.45,0,0,0,.1.253.128.128,0,0,0,.073.056.392.392,0,0,0,.041.1.13.13,0,0,0,.085.056h.085c.041.041.1.1.182.2s.2.212.212.226a.075.075,0,0,0,.073.041.254.254,0,0,0,.17-.056h0l.3.085h.029c-.056.1-.041.126,0,.17a.093.093,0,0,0,.073.05.338.338,0,0,0,.141-.029,4.992,4.992,0,0,0,.494.353q0,.073.029.085a.13.13,0,0,0,.085.056.286.286,0,0,0,.112-.015l.17.212c.056.085.126.156.156.2a.684.684,0,0,0-.041.1c0,.015-.015.029-.015.056-.015.056-.029.126-.041.2h0c-.435.508-.632.793-.591.858a.239.239,0,0,0,.085.056c.041,0,.056,0,.212-.073,0,.029.029.015.056,0v.1c-.029,0-.041.041-.056.073-.282.212-.253.253-.212.323,0,.029.029.041.056.056a.109.109,0,0,0,0,.112h.015c-.041.126-.1.282-.141.394l-.085.223h0c-.085.226-.085.238-.056.282h0c0,.073-.029.126-.029.226l-.041.029a.8.8,0,0,1-.029.141.208.208,0,0,1-.056.141c-.026.05-.05.1-.073.156a7.591,7.591,0,0,0,.676-.423c.141-.1.3-.2.435-.282a3.246,3.246,0,0,1,.3-.17c-.126-.029.212-.085.182-.156.041,0,.1-.029.041.029.182-.156.323-.17.423-.311.041,0-.029.056,0,.056,0-.015.056-.056.085-.056s-.015.029-.041.073c.2-.141.182-.212.156-.267a.367.367,0,0,0,.226-.17c.041,0,.126-.029,0,.056.073-.041.45-.267.435-.311.029,0,.1-.073.112-.085l.17-.112a.531.531,0,0,0,.085-.056h0a.231.231,0,0,0,.085.073.286.286,0,0,0,.112-.015c.126.112.156.126.2.141l.029.029c.1.1.212.226.226.238a.075.075,0,0,0,.073.041.188.188,0,0,0,.112-.029h0a.576.576,0,0,1-.015.141,1.823,1.823,0,0,0-.041.52A.239.239,0,0,0,9.1,14.9l.505-.238.041-.029h0s-.073.029.029.1c0,.015.056.041.1.056-.112.141-.1.156-.056.212a.13.13,0,0,0,.085.056c.056,0,.056.015.3-.112a.516.516,0,0,1,.126.1c-.029-.041-.041-.085.041-.041a.778.778,0,0,1,.17.141,1.275,1.275,0,0,0,.029.408.13.13,0,0,0,.085.056c.056,0,.056.015.367-.156.126.073.3.17.379.212a.379.379,0,0,0,0,.141.13.13,0,0,0,.085.056h.029a.1.1,0,0,0,.085-.029.653.653,0,0,0,.182.126c-.029-.056-.041-.126-.073-.2h.015s.085-.112.041-.17c0-.015-.029-.029-.041-.041h0s.073-.112.041-.17c0-.015-.029-.029-.041-.041a1.169,1.169,0,0,0,.056-.435.13.13,0,0,0-.085-.056c-.041,0-.056,0-.212.073-.015-.041-.015-.056-.029-.056l-.024-.035a2.068,2.068,0,0,0-.1-.267.389.389,0,0,0-.085-.112c0-.056.015-.015.029-.015l-.029-.1c.182-.311.17-.323.141-.379A.13.13,0,0,0,11.2,13.9a.288.288,0,0,0-.156.041c.029-.085.041-.17.073-.238v-.029a.311.311,0,0,0,.041-.1q.085-.311.056-.353a.13.13,0,0,0-.085-.056,1.191,1.191,0,0,0-.311.126,1.124,1.124,0,0,0-.1-.238s.015,0,.029.029a2.392,2.392,0,0,1-.156-.549c0-.041-.029-.085-.029-.126v-.056h-.029v-.029a.692.692,0,0,0,.029-.112h0s.073-.073.056-.112l.3-.212h0c.505-.353,1.028-.676,1.507-1h-.085l.17-.126c.056-.015.085,0-.029.073.041,0,.085-.041.126-.085s.073-.1.073-.1c.17-.1.17-.085.112-.029h0l-.056.012Zm.494-.353-.073.041C13.235,10.254,13.224,10.272,13.224,10.287Zm-7.41,1.578h0s-.041-.073-.085-.073H5.687v-.073h.041a.055.055,0,0,0,.029.056.094.094,0,0,0,.085.056c.1.029.182,0,1.816-.958.182-.1.379-.226.564-.323-.212.156-.423.323-.605.479-.761.605-1.128.887-1.3,1.043h0a.851.851,0,0,0-.085-.056s-.029-.029-.041-.029l-.029-.029s-.112-.17-.141-.141a.217.217,0,0,1-.073.238c-.056-.073-.1-.141-.126-.17h0l-.012-.024ZM8.969,9.44a.239.239,0,0,0,.085.056H9.11a.416.416,0,0,1,.015.17c.056.141.029-.056.085.085v.041l.029.029h0a.2.2,0,0,0-.073-.029c-.085-.015-.112-.029-1.663.873-.212.126-.435.253-.661.379.212-.17.45-.338.661-.494.858-.635,1.266-.958,1.466-1.125h0V9.44Zm1.425,2.45V11.85l.238-.156c-.126.1.029.073-.2.2l.073-.112-.126.1h0Zm-.408.282h.041c-.323.17-.887.479-1.916,1.069.394-.238.8-.494,1.184-.72s.746-.45,1.055-.649l-.041.029-.041.029-.056.041s-.141.1-.253.17v.029h.029Zm.253,1.566a.239.239,0,0,0,.085.056h.056c-.126.073-.267.156-.45.253l-.2.112A1.774,1.774,0,0,0,9.874,14c.141-.141.238-.253.338-.353,0,.073.015.073.029.085h0Zm-.917.253s.029.041,0,.041Zm.056,0a.335.335,0,0,0-.056-.029v-.041c.112-.056.3-.17.605-.353l.041-.029c-.1.1-.2.212-.282.3s-.182.2-.253.267c-.041-.056-.056-.085-.056-.112h0Zm-.62-.776a.07.07,0,0,0-.015-.041h0c.338-.212.661-.394.943-.549h0a.1.1,0,0,0,.1,0h0c-.1.056-.253.156-.505.3-.17.1-.367.212-.494.282h0l-.029.015Zm1.337-.564a.07.07,0,0,0-.015-.041c0-.015-.029-.029-.041-.041h0l.041-.029.029.056v.041h-.015v.015Zm-.044.141c-.073.226-.073.238-.041.282a.094.094,0,0,0,.085.056h.029v.041c-.085.056-.2.112-.323.2-.085.056-.182.112-.282.17a1.991,1.991,0,0,1,.156-.2c.226-.3.338-.45.394-.535h0l-.015-.015Zm.3,1.325a1.053,1.053,0,0,0-.353.156l.056-.029c.112-.073.253-.141.367-.212l-.085.085h.015Zm.253.564a.209.209,0,0,1-.041-.029l.073-.041-.041.073H10.6Zm.073-.367s-.182.1-.353.2c.059-.068.118-.135.182-.2l.126-.141s.029.085.041.141h0ZM9.2,11.92c-.761.435-1.619.928-2.309,1.325.535-.338,1.158-.732,1.719-1.084a32.258,32.258,0,0,0,2.888-1.886h0a.59.59,0,0,0,.253-.1h0s.041.141.056.212v.029c-.564.311-1.407.787-2.633,1.507H9.2Zm.085-1.971h0v.1a.055.055,0,0,0-.029-.056C9.251,9.975,9.281,9.961,9.281,9.949ZM9.239,10c.029.073.056.156.085.226h.353c-.323.182-.776.435-1.437.817-.323.182-.676.394-1,.579.17-.141.367-.282.535-.423A17.9,17.9,0,0,0,9.242,10h0Zm1.7.17h-.029a.64.64,0,0,1,.2-.029c-.311.156-.9.494-2.057,1.169-.505.3-1.1.635-1.607.928.238-.156.494-.323.732-.494,1.366-.917,1.971-1.337,2.224-1.548a2.954,2.954,0,0,0,.535-.029ZM8.379,11.245c.226-.126.464-.267.705-.408-.353.238-.72.494-1.055.72-.887.591-1.381.928-1.663,1.14v-.029H6.351l.085-.056s0-.015-.029-.029v-.029h.029s.056-.056.056-.1c.112-.141.156-.2.141-.238.253-.126.746-.408,1.736-.987h0l.012.015ZM6.237,12.764h0l-.029.029v-.029Zm.085.338a28.318,28.318,0,0,0,2.647-1.466c-.17.112-.338.212-.505.323-1.055.661-1.76,1.114-2.242,1.407.126-.2.112-.226.085-.267h.015Zm-.3-.073a.076.076,0,0,0,.029.056v.029L6,13.154V13.1l.029-.056h0v-.015Zm-.367,1.466h0l.041-.112s.041.015.041.029v-.126s.015-.085.015-.1c.029,0,.056-.029.085-.041a.218.218,0,0,1,.015-.073c.464-.226,1.422-.761,3.479-1.957.661-.379,1.407-.8,2.042-1.169-.676.423-1.478.917-2.212,1.352-2.1,1.281-3.07,1.886-3.52,2.2h.015Zm5.2-2.929a1.019,1.019,0,0,1-.073.085l-.029-.029.1-.056h0ZM8.587,13.507s-.041-.041-.073-.041H8.484l.073-.041v.029a.094.094,0,0,0,.085.056c.073.015.085.015.761-.379l.182-.1-.112.156a6.351,6.351,0,0,0-.464.649c-.073-.041-.156-.073-.238-.126-.1-.085.041,0,0-.056l-.085-.029-.112-.112H8.59Zm3.649-3.385.056.029h.041l.029-.029h.015l-.311.156-.026-.094a.876.876,0,0,1,.182-.073h0l.012.012ZM9.589,9.8,9.56,9.77ZM8.405,6.846h0l-.041.029.029-.056v.029h.015Zm-.17.379c.056-.156.1-.267.126-.353l.029.041s-.029.156-.073.156a.367.367,0,0,1,.073.2l-.126.073-.1.056.073-.17h0Zm-.041.787c.141-.141.238-.267.323-.353,0,.015.015.029.029.041,0,.056-.041-.041-.041,0a.4.4,0,0,1,.112.212c-.056,0-.141.056-.591.311H8l.2-.2h0V8.013ZM7.841,9.067,7.7,9.153l.2-.2c.379-.379.605-.591.72-.732h.1a1.909,1.909,0,0,1,.073.253v.1h0c-.073-.015-.085-.029-.943.479h0v.015ZM6.892,10.5c.379-.212.787-.45,1.158-.661-.212.17-.45.338-.661.494a9.925,9.925,0,0,0-1.607,1.281.093.093,0,0,1-.041-.041l.041.041v.029a.166.166,0,0,1-.073-.015v-.044a1.376,1.376,0,0,0-.056-.379c.282-.156.69-.379,1.24-.705h0Zm-1.437,0,.2-.112c-.085.085-.156.17-.226.253-.226.238-.379.408-.479.52H4.873v-.026c-.112-.073-.182-.141-.267-.2.073,0,.112,0,.858-.435h0L5.452,10.5ZM4.2,10.613c-.1-.126.156.1.085-.015a.21.21,0,0,1-.126-.041l-.1-.041h0s.141-.085.238-.141.212-.126.323-.182l-.041.182c-.085.379-.1.435-.085.479-.029-.029-.073-.041-.1-.073,0-.029-.112-.112-.041-.1a.263.263,0,0,1-.141-.073H4.2Zm-.073.059a1.4,1.4,0,0,1-.156-.056l-.056-.029.112-.056s.2.112.267.156c-.029.029-.085.029-.17,0h0v-.015ZM4.55,9.94q-.128.062-.379.212c-.126.073-.282.17-.408.226h0l-.044-.123s.17-.085.394-.212l.112-.073h.029a1.318,1.318,0,0,1,.156-.085h.085l.041.041a.382.382,0,0,0-.182,0,1.111,1.111,0,0,1,.2.015h0Zm-.238,1.084h0l-.029-.029h0l-.029-.029.029.029.056.029H4.309Zm2.647,3.267a.419.419,0,0,1,.126-.073A.305.305,0,0,1,6.959,14.291Zm.267,0s-.015-.015,0-.056l-.029.029c-.085.029-.073-.015-.029-.073l.1-.029s.056-.112.029-.141l-.056.056v-.029l-.056.056H7.1l-.3.156a3.392,3.392,0,0,1-.564.579c.056-.085-.029-.073-.056-.112.112,0,.226-.17.379-.267-.085.056-.085.015-.073,0l-.253.226a.723.723,0,0,0-.17.056c.056,0,0,.056-.056.112a1.02,1.02,0,0,1-.112.085l-.029.029H5.852l-.029.041V14.97s0-.015.029-.029a.205.205,0,0,1,.085-.056.071.071,0,0,0-.053.026H5.855v.029H5.84A.146.146,0,0,1,5.811,15a.132.132,0,0,1-.112.1c.029-.015.041-.015.041-.041a.389.389,0,0,1-.112.085c-.029.015-.041,0-.029-.015h.015a1.949,1.949,0,0,0-.238.141v-.1l.1-.056s.141-.085.17-.1h.015s.085-.112.041-.17l-.029-.029c.238-.126.676-.367,1.507-.831h.015v.029h0a.122.122,0,0,1,.056.015h.029a.094.094,0,0,0,.056-.015.64.64,0,0,1-.126.141.608.608,0,0,0,.126-.029l-.182.156h0l.073.012Z" transform="translate(-1.744 -5.653)" fill="#f5b6c3"/>
      <path id="_パス_1442" d="M18.7,32.044h.029S18.729,32.03,18.7,32.044Z" transform="translate(-13.206 -23.635)" fill="#f5b6c3"/>
      <path id="_パス_1444" d="M9.616,17.58H9.49a.879.879,0,0,1,.126.029S9.587,17.595,9.616,17.58Z" transform="translate(-6.702 -13.425)" fill="#f5b6c3"/>
      <path id="_パス_1446" d="M5.892,17.684c.085,0,0-.041.056-.029.029-.015-.1,0-.17,0s-.073.029.1.015h0l.015.015Z" transform="translate(-4.047 -13.473)" fill="#f5b6c3"/>
      <path id="_パス_1448" d="M22.683,6.666,22.61,6.61a.407.407,0,0,1,.029.1l.041-.041h0Z" transform="translate(-15.967 -5.679)" fill="#f5b6c3"/>
      <path id="_パス_1450" d="M13.589,12.12l-.029.015h.015Z" transform="translate(-9.576 -9.57)" fill="#f5b6c3"/>
      <path id="_パス_1451" d="M13.488,12.021h.041s-.056-.029-.041-.041C13.447,12.021,13.518,11.995,13.488,12.021Z" transform="translate(-9.516 -9.471)" fill="#f5b6c3"/>
      <path id="_パス_1454" d="M13.71,11.519h.029a.085.085,0,0,1,.015-.029c-.015,0-.029,0-.041.029Z" transform="translate(-9.682 -9.125)" fill="#f5b6c3"/>
      <path id="_パス_1457" d="M13.589,11.68s0,.015-.029.029C13.575,11.709,13.616,11.709,13.589,11.68Z" transform="translate(-9.576 -9.259)" fill="#f5b6c3"/>
      <path id="_パス_1459" d="M13.57,11.369h.015s0-.015.029-.029a.209.209,0,0,0-.041.029h0Z" transform="translate(-9.583 -9.019)" fill="#f5b6c3"/>
      <path id="_長方形_143" d="M13.38,11.766l.056-.006h0Z" transform="translate(-9.449 -9.315)" fill="#f5b6c3"/>
      <path id="_パス_1461" d="M13.57,11.215h.015l.029-.015-.041.015h0Z" transform="translate(-9.583 -8.92)" fill="#f5b6c3"/>
      <path id="_パス_1462" d="M13.57,11.089s.029-.029.041-.029H13.57Z" transform="translate(-9.583 -8.821)" fill="#f5b6c3"/>
      <path id="_パス_1464" d="M13.5,11.3l-.029.029h0A.031.031,0,0,0,13.5,11.3h0Z" transform="translate(-9.512 -8.991)" fill="#f5b6c3"/>
      <path id="_パス_1465" d="M13.435,11.355h0l-.015-.015Z" transform="translate(-9.477 -9.019)" fill="#f5b6c3"/>
      <path id="_パス_1467" d="M13.18,11.659a.11.11,0,0,1,.073-.029A.1.1,0,0,0,13.18,11.659Z" transform="translate(-9.308 -9.224)" fill="#f5b6c3"/>
      <path id="_パス_1469" d="M13.33,11.265s.029,0,.029-.015H13.33v.029h0Z" transform="translate(-9.413 -8.955)" fill="#f5b6c3"/>
      <path id="_パス_1476" d="M12.62,11.081a.085.085,0,0,1,.015-.029c-.029.029-.056,0-.112.041h.026s-.029,0-.029.015c.029-.015.056-.015.041,0a.61.61,0,0,0,.17-.1H12.69s-.029.041-.056.041h0l-.012.029Z" transform="translate(-8.841 -8.786)" fill="#f5b6c3"/>
      <path id="_パス_1477" d="M13.23,11.06v.029h0l.029-.029Z" transform="translate(-9.343 -8.821)" fill="#f5b6c3"/>
      <path id="_パス_1478" d="M13.016,11.153h-.041c-.029.015-.056,0-.085.041h.044s.015,0,.029-.029h.029l.026-.015Z" transform="translate(-9.103 -8.885)" fill="#f5b6c3"/>
      <path id="_パス_1479" d="M12.94,11.795l.015-.015Z" transform="translate(-9.138 -9.33)" fill="#f5b6c3"/>
      <path id="_パス_1480" d="M13.018,11.59a.69.69,0,0,0-.073.056h.015a.085.085,0,0,0-.029.015.07.07,0,0,0,.041-.015h0l.041-.041h0V11.59Z" transform="translate(-9.131 -9.195)" fill="#f5b6c3"/>
      <path id="_パス_1482" d="M13.216,10.975l.029-.015-.056.015h.029Z" transform="translate(-9.315 -8.751)" fill="#f5b6c3"/>
      <path id="_パス_1483" d="M13.214,10.92h-.029l-.015.015.041-.015Z" transform="translate(-9.3 -8.722)" fill="#f5b6c3"/>
      <path id="_パス_1485" d="M12.18,9.184l.029-.024H12.18v.029h0Z" transform="translate(-8.601 -7.479)" fill="#f5b6c3"/>
      <path id="_パス_1488" d="M12.706,10.179V10.15S12.665,10.191,12.706,10.179Z" transform="translate(-8.96 -8.179)" fill="#f5b6c3"/>
      <path id="_パス_1490" d="M12.75,10.155s.015-.029,0-.015h0s.015.006.015.015Z" transform="translate(-9.004 -8.169)" fill="#f5b6c3"/>
      <path id="_パス_1497" d="M10.69,9.3h.041l.085-.056Z" transform="translate(-7.549 -7.536)" fill="#f5b6c3"/>
      <path id="_パス_1498" d="M6.918,3.934l-.029.029c.029-.015.041-.015.041,0h0s.015.056.029.1l.029-.029v.026c.056-.029,0-.015.041-.056-.056.056.041.041-.029.112,0,0,.029-.029.041-.029h0a.209.209,0,0,1-.029.041h0s.029.015.029.029h0a.138.138,0,0,0,.1.041h0s0,.015.029.029H7.2c-.029,0-.029.041-.056.041.041,0,.029,0,.1-.029l-.029.029s.041-.015.056,0c-.029,0-.029.029-.073.041-.041.056.085,0,0,.056.085-.041.029-.041.041-.056s.056-.029.056-.015-.085.073-.056.1h0s.029,0,0,.029c.041-.029,0,0,.056-.029H7.259s.1-.041.073,0H7.291s.015,0,0,.015c-.056.041-.029,0-.085,0-.015.015.056,0,0,.029.085-.041,0,.029.073,0l-.029.029H7.235s-.015.056,0,.056c-.015-.015.041-.029.056-.056.056,0-.073.073-.041.085a.031.031,0,0,1,.026-.029h0a.055.055,0,0,1-.032.044c.015.015.029-.029.056-.029-.041.029.029,0,.041,0l-.026.029s.073-.041.056,0l-.056.029h.015l-.041.029s.029,0,.029.015c.029-.015.056-.041.073-.029-.015.015-.029.015-.015.029-.029,0-.056.029-.029,0H7.318v.041h.073a.227.227,0,0,1-.073.029h.041s-.029.029-.041.029.073,0,.056.015h.015s-.029.056.029.041l-.041.041s.056-.056.085-.041-.041.029-.056.041c.029,0,.085-.029.056,0h0l-.029.029a.157.157,0,0,0-.085.029c.1-.056.041.029.141-.015h.041s-.015.029-.029.029h.015l.029.029H7.6s-.056.029-.056,0c-.1.073.029,0,0,.056H7.529l-.056.056s.073-.073.112-.073c0,0,0,.015.015,0C7.559,4.989,7.57,5,7.585,5l-.041.029a.218.218,0,0,0,.073-.015l-.062.059s.056-.041.073-.029c0,.029.015.029.056.029,0,.015-.029,0-.041.029h.029a.2.2,0,0,1,.073-.029c.056-.029-.056.073,0,.041a.044.044,0,0,0-.041.029h.1l-.029.029A.4.4,0,0,1,7.9,5.136l.029-.029H7.97a.209.209,0,0,0-.041.029h0a.2.2,0,0,1-.073.029l.029-.029s-.073.029-.1.041H7.8l-.056.041h.029v.029a.473.473,0,0,1,.17-.029.212.212,0,0,0-.112.056c.041-.029-.029,0-.029-.029,0,0-.029.015-.029.029h.056a.093.093,0,0,0-.041.041c.073-.041.056,0,.085,0-.029,0-.056.029-.056,0-.041.041.1-.029.056,0h0c.029,0,.015.029,0,.029h0a.073.073,0,0,0,.1.029h0l-.085.041.238-.073a1.03,1.03,0,0,1-.226.1.014.014,0,0,0,.015.015A.455.455,0,0,1,8,5.412c-.056.041-.029.029-.073.073,0,0,.1-.056.1-.041a.684.684,0,0,1-.1.041l.1-.029s-.073.041-.1.056c.015,0,0,.015.015.015h.015s.126-.056.141-.029c-.015,0-.112.041-.112.073a2.173,2.173,0,0,1,.267-.085h0s-.226.085-.282.1c-.015.015-.029.015-.015.029-.015.015-.041,0-.041,0v.029a.158.158,0,0,0,.1-.029H7.938s.156-.056.156-.029a.792.792,0,0,1-.112.056h0s.073,0,.041.029c0,0-.056.041-.029.029a1.549,1.549,0,0,1,.267-.141.348.348,0,0,1-.073.073c-.041.029-.112.041-.141.073h.041s-.041.015-.029.029c.056-.029,0,.029.041-.015.015,0,0,.015,0,.029a.46.46,0,0,1,.141-.041.312.312,0,0,0-.032.026v.073a.061.061,0,0,1-.041.029H8.2s-.015,0-.056.029c.029-.015.056,0,.073,0,.041-.029,0-.029-.029-.029a.309.309,0,0,1,.182-.041c.029,0-.041.029-.029.029,0,.041.126-.029.1.015a.441.441,0,0,1-.112.056c-.029,0,0-.029,0-.041h0s-.029.015-.029,0c-.029.029.029.056,0,.1a.055.055,0,0,0,.041-.015h0s.056-.015.056-.029h.056L8.4,5.935s.029-.029,0-.015c.029,0-.041.056.015.029l.029-.029s.085-.015.073,0c.041-.029,0,0,.041-.041-.056.041-.015-.029-.073.015.056-.041.015-.029.056-.073-.015,0-.029.015-.029,0H8.5V5.85H8.416a.085.085,0,0,0,.029-.015H8.416s.041-.041.073-.041h0s.015-.041,0-.041H8.449s-.085-.029-.029-.085c0,0-.029,0-.029-.015h.029s0-.056-.015-.041c.073-.056,0-.056,0-.073H8.293V5.494h0c.056-.056-.085-.015-.041-.073h0V5.394a.044.044,0,0,0-.041.029H8.181s-.029,0,.029-.041a.269.269,0,0,0-.1,0h0V5.353l.041-.029H8.082a.765.765,0,0,0,.073-.029H8.082s-.056,0-.029-.029-.029-.073,0-.126c-.085.056.029-.041-.041,0,.015,0,.029-.029.041-.029-.029,0,.015-.041-.041-.029a.055.055,0,0,0,.041-.015h.029a.668.668,0,0,0-.141.041c.029-.029.015-.029-.029,0,.015,0,.029-.029.041-.029s0-.056-.041-.029h0A.046.046,0,0,0,7.9,5.018H7.867s-.029,0,0-.056H7.835c-.073.056.029-.029,0-.029H7.82a.7.7,0,0,0,.1-.073h.015a.105.105,0,0,1-.073,0c.029-.015.073-.029.056-.041.015-.015-.1.015-.056-.029-.015,0-.029.029-.056.029,0,0,.056-.073,0-.041h0a.075.075,0,0,0-.085,0c.112-.073-.1-.015.015-.085L7.7,4.663h0a.105.105,0,0,0-.073,0,.041.041,0,0,0,.029-.015q0-.041-.073-.029l.029-.029s.029-.073-.029-.073H7.6s.056-.126-.085-.056H7.476a.2.2,0,0,0-.073.056s.029-.041.041-.041h0A.1.1,0,0,1,7.485,4.4c-.029-.041-.029-.112-.056-.156l-.041.041h0l.041-.041c.029-.029-.041,0-.041,0,0-.029.073-.029.056-.041H7.429s-.041.029-.056,0,.029-.029.029-.029H7.362l-.041.041c.056-.056-.029-.085,0-.1A.08.08,0,0,1,7.265,4.1s-.041.041-.056.029c.1-.073.015-.041.073-.112-.029.041-.041-.029-.085.041,0-.015.029-.029.041-.056-.056,0-.015-.073-.056-.085l-.041.041.041-.056s-.073.056-.041,0c0,0-.015.029-.029.029a.1.1,0,0,0-.073-.085C7.006,3.84,6.983,3.811,7,3.74c0,.029-.015.029-.029.015L6.927,3.8v-.05s0-.015-.056.015h0c-.044.059-.091.115-.141.17.056-.041-.041.1.041.041h0L6.9,3.931Zm.723,1.028H7.626C7.667,4.948,7.656,4.962,7.641,4.962Z" transform="translate(-4.753 -3.652)" fill="#f5b6c3"/>
      <path id="_パス_1502" d="M12.834,11s-.015.015,0,.015h0S12.864,10.985,12.834,11Z" transform="translate(-9.059 -8.776)" fill="#f5b6c3"/>
      <path id="_パス_1504" d="M12.979,10.6s.041-.015.029,0C13.049,10.59,12.952,10.6,12.979,10.6Z" transform="translate(-9.162 -8.495)" fill="#f5b6c3"/>
      <path id="_パス_1505" d="M12.51,11.165l.041-.015H12.51Z" transform="translate(-8.834 -8.885)" fill="#f5b6c3"/>
      <path id="_パス_1508" d="M12.194,10.58s-.015,0,0,.015h.015Z" transform="translate(-8.607 -8.482)" fill="#f5b6c3"/>
      <path id="_パス_1509" d="M12,10.835l.029-.015-.041.029H12v-.015Z" transform="translate(-8.467 -8.652)" fill="#f5b6c3"/>
      <path id="_パス_1510" d="M11.864,10.77s-.041,0-.029.015S11.864,10.785,11.864,10.77Z" transform="translate(-8.356 -8.616)" fill="#f5b6c3"/>
      <path id="_パス_1511" d="M11.74,10h.015l.073-.041L11.743,10h0Z" transform="translate(-8.291 -8.044)" fill="#f5b6c3"/>
      <path id="_パス_1512" d="M10.946,9.81s-.015,0-.056.029c0,.029.041-.015.029,0,.015,0,0-.015.029-.029h0Z" transform="translate(-7.69 -7.938)" fill="#f5b6c3"/>
      <path id="_パス_1513" d="M7.925,3.44l-.015.029h.015Z" transform="translate(-5.586 -3.44)" fill="#f5b6c3"/>
      <path id="_パス_1514" d="M7.732,3.531l.029-.041-.041.029h0l.015.015Z" transform="translate(-5.452 -3.475)" fill="#f5b6c3"/>
      <path id="_パス_1515" d="M9.569,8.09l-.029.029h0V8.09Z" transform="translate(-6.737 -6.724)" fill="#f5b6c3"/>
      <path id="_パス_1516" d="M9.44,7.675h0l.041-.015Z" transform="translate(-6.666 -6.42)" fill="#f5b6c3"/>
      <path id="_パス_1520" d="M38.356,6.339h0V6.31s-.029.041-.056.041c.029.041.029-.015.041,0h0l.015-.015Z" transform="translate(-27.047 -5.467)" fill="#f5b6c3"/>
      <path id="_パス_1523" d="M37.885,6.085s-.015-.006-.015-.015a.055.055,0,0,0,.015.041V6.082Z" transform="translate(-26.743 -5.297)" fill="#f5b6c3"/>
      <path id="_パス_1526" d="M38.039,6.272s0-.056-.029-.029a.031.031,0,0,1,.029.026h0Z" transform="translate(-26.842 -5.414)" fill="#f5b6c3"/>
      <path id="_パス_1528" d="M37.7,6.2s-.015,0-.029-.029a.209.209,0,0,0,.029.041h0V6.2Z" transform="translate(-26.602 -5.368)" fill="#f5b6c3"/>
      <path id="_パス_1531" d="M37.49,6.2V6.17l.015.041L37.49,6.2Z" transform="translate(-26.475 -5.368)" fill="#f5b6c3"/>
      <path id="_パス_1532" d="M37.319,6.211s-.029-.029-.029-.041v.041Z" transform="translate(-26.334 -5.368)" fill="#f5b6c3"/>
      <path id="_パス_1534" d="M37.609,6.339s-.015-.029-.029-.029Z" transform="translate(-26.539 -5.467)" fill="#f5b6c3"/>
      <path id="_パス_1537" d="M37.949,6.523a.11.11,0,0,1-.029-.073A.1.1,0,0,0,37.949,6.523Z" transform="translate(-26.779 -5.566)" fill="#f5b6c3"/>
      <path id="_パス_1538" d="M37.77,6.46v.029h.015A.085.085,0,0,0,37.77,6.46Z" transform="translate(-26.673 -5.573)" fill="#f5b6c3"/>
      <path id="_パス_1539" d="M37.495,6.479s0-.029-.015-.029v.029Z" transform="translate(-26.468 -5.566)" fill="#f5b6c3"/>
      <path id="_パス_1546" d="M37.235,6.825h-.029c.029.029,0,.056.041.112V6.907s0,.029.015.029c-.015-.029-.015-.056,0-.041a.489.489,0,0,0-.112-.156v.041a.088.088,0,0,1,.056.056h0l.029-.015Z" transform="translate(-26.235 -5.77)" fill="#f5b6c3"/>
      <path id="_パス_1547" d="M37.212,6.6h.029A.093.093,0,0,0,37.2,6.56V6.6h.015Z" transform="translate(-26.27 -5.643)" fill="#f5b6c3"/>
      <path id="_パス_1548" d="M37.383,6.565a.109.109,0,0,0,.041.085V6.609s0-.015-.029-.029h0V6.55h0v.029h0l-.015-.015Z" transform="translate(-26.397 -5.636)" fill="#f5b6c3"/>
      <path id="_パス_1550" d="M37.876,6.713v.029a.07.07,0,0,0-.015-.041h0s-.041-.029-.041-.041a.27.27,0,0,0,.056.073V6.716h0Z" transform="translate(-26.708 -5.714)" fill="#f5b6c3"/>
      <path id="_パス_1552" d="M37.129,6.579,37.1,6.55l.029.041V6.576Z" transform="translate(-26.2 -5.636)" fill="#f5b6c3"/>
      <path id="_パス_1553" d="M37.065,6.629,37.05,6.6v.029Z" transform="translate(-26.164 -5.672)" fill="#f5b6c3"/>
      <path id="_パス_1555" d="M35.111,8.033s-.073-.041-.041-.015l.029.029h.015V8.033Z" transform="translate(-24.76 -6.667)" fill="#f5b6c3"/>
      <path id="_パス_1556" d="M34.629,9.549h0L34.6,9.52v.029Z" transform="translate(-24.434 -7.734)" fill="#f5b6c3"/>
      <path id="_パス_1557" d="M33.99,11.64l.029.029S34.019,11.655,33.99,11.64Z" transform="translate(-24.003 -9.231)" fill="#f5b6c3"/>
      <path id="_パス_1558" d="M36.269,7.27H36.24S36.281,7.3,36.269,7.27Z" transform="translate(-25.592 -6.145)" fill="#f5b6c3"/>
      <path id="_パス_1559" d="M33.31,10.15l.015.015Z" transform="translate(-23.523 -8.179)" fill="#f5b6c3"/>
      <path id="_パス_1565" d="M36.735,6.84l-.015.015h.015Z" transform="translate(-25.931 -5.841)" fill="#f5b6c3"/>
      <path id="_パス_1567" d="M35.605,9.133s-.015-.041,0-.029L35.52,9.03l.085.1h0Z" transform="translate(-25.084 -7.388)" fill="#f5b6c3"/>
      <path id="_パス_1568" d="M30.608,8.925a.209.209,0,0,1,.041.029h-.073s-.015.029.029.056h0a1.171,1.171,0,0,1,.2.085c-.056-.041.112.015.041-.041.015,0,.015.015.041.029q-.029-.029,0-.029h0a1.04,1.04,0,0,0,.1-.056H30.94l.029-.015c-.041-.041-.015.015-.073-.029.073.029.041-.056.112,0,0,0-.041-.015-.029-.029h.056s0-.029.015-.015h-.015s.056-.056.029-.112h-.015a.061.061,0,0,0,.029-.041h0s-.015-.029,0-.029.041,0,.056.029c-.015-.041-.015-.029-.073-.085h.029s-.029-.015-.029-.029c.015.029.041.015.073.041.073,0-.029-.073.056-.029-.073-.056-.056,0-.073-.015s-.041-.041-.029-.041.1.041.112.029h0s-.015-.029.029-.015c-.041-.029,0,0-.041-.041V8.6s-.073-.073-.029-.073l.029.029s0-.015.015,0c.056.041,0,.029.029.073.029,0-.029-.041.029,0-.073-.056.029-.015-.029-.073l.029.029V8.558l.029.029s.041,0,.041-.029c-.015.029-.041-.015-.073-.029-.029-.056.1.041.112,0h.015c0-.029-.041-.015-.056-.041.041.015,0-.015-.015-.041l.029.029s-.073-.056-.029-.056l.041.041h.029V8.431c-.029,0-.056-.041-.056-.056.029,0,.029.029.041,0,.015.015.041.041,0,.029l.029.029.029-.029h0L31.4,8.349s.029.015.029.029V8.352c.029.015.056.041.056.056V8.364a.031.031,0,0,1,.029.026h0c.029,0-.029-.056,0-.056h0s.056,0,.029-.056l.056.029s-.073-.029-.073-.073.041.029.056.029c-.015-.029-.056-.073,0-.056v.015h.029a.076.076,0,0,0,.056.073c-.085-.073.029-.041-.073-.112h.029s-.056-.041-.029-.056a.07.07,0,0,1,.041.015V8.114h.015a.335.335,0,0,1-.029-.056c.015,0,0,0,.015.015V8.046s.029.041.015.041c.1.056-.015-.029.056,0h0a.325.325,0,0,0,.085.041.24.24,0,0,1-.112-.073s.015,0,0-.015c.029.029.029,0,.029,0l.041.029a.249.249,0,0,1-.041-.056.26.26,0,0,1,.073.041c.015,0-.056-.029-.056-.056.029,0,.015-.029,0-.056.029,0,.029.029.041.029l-.029-.029h.015s-.041-.029-.041-.041c-.041-.041.085.029.041-.029.015,0,.029.029.041.029a.178.178,0,0,0-.041-.085h.041s-.073-.041-.085-.085h-.029V7.679l.029.029h0a.116.116,0,0,1,.056.041h-.029a.346.346,0,0,0,.073.056h.073a.537.537,0,0,1-.085-.156.468.468,0,0,1,.085.085c-.041-.029,0,.029-.015.041s.029.015.029.029V7.75s0,.015.029.029c-.073-.056-.029-.056-.041-.073.015.015.041.041.029.041.056.029-.056-.085,0-.056h0c0-.029.015-.029.029,0h0a.061.061,0,0,0,.012-.085c0-.006-.009-.009-.012-.012l.073.073-.141-.2s.156.126.17.17c0,0,.029,0,.015-.015l-.073-.056c.056.041.029.015.085.041A.549.549,0,0,1,32,7.526l.073.073-.041-.085.073.073s.015,0,0-.029h-.029s-.073-.112-.056-.126a.214.214,0,0,0,.1.085.944.944,0,0,1-.141-.226h.015s.112.17.141.226c.029,0,.029.029.029,0,.029.015.029.029.015.041h.041a.171.171,0,0,0-.056-.1v.073s-.085-.126-.056-.141.056.073.073.085h0s-.015-.073.029-.041c0,0,.056.041.041.015a3.022,3.022,0,0,1-.212-.226.761.761,0,0,1,.085.041.606.606,0,0,1,.1.126L32.2,7.365s.029.041.029.029c-.029-.041.029,0-.029-.041,0-.015.015,0,.029,0a.305.305,0,0,1-.073-.126l.029.029a.111.111,0,0,0,.073-.015.093.093,0,0,1,.041.041V7.25s-.015.015.029.056c-.015-.029,0-.041-.015-.073s-.029,0-.029.029a.364.364,0,0,1-.073-.156c0-.029.029.029.029.015.041,0-.041-.112,0-.1a.237.237,0,0,1,.073.1c0,.029-.041,0-.041,0h.029V7.15c.029.029.056-.029.1-.015a.055.055,0,0,0-.015-.041h0s0-.041-.029-.041V7l.029.041s-.029-.015-.029,0c0-.029.056.041.029-.015l-.029-.029s-.015-.085,0-.073c-.029-.041,0,0-.041-.041.041.056-.041.015.015.073-.041-.041-.029,0-.085-.056,0,0,.029.029,0,.029h0l.015.029c.015.029,0,.041,0,.073,0,0,0-.015-.029-.029v.024s-.041-.041-.041-.073h-.015s-.041,0-.041.015v.041h-.015s0,.073-.073.041c0,0,0,.029-.015.029L32,7.047s-.041,0-.029.029c-.073-.056-.056.015-.085.029l.029.029a.274.274,0,0,0-.015.041l.029.029a.067.067,0,0,0-.056.029h0c-.085-.041,0,.085-.056.056h0v.029l-.029-.029h0s0,.015.029.041v.029s0,.029-.041-.015c.015.029,0,.041.041.1h0l-.041-.029.041.056a.69.69,0,0,1-.073-.056c.029.056,0,.029.029.085l-.029-.029s.015.041,0,.029c-.056-.029-.073.056-.141.041.085.056-.041,0,0,.041-.015,0-.029-.015-.041-.041,0,.029-.056,0,0,.056-.015,0-.029-.029-.029-.029h0a.085.085,0,0,0-.015-.029.323.323,0,0,0,.085.112q-.029,0,0,.029a.042.042,0,0,1-.041-.041s-.056.015-.015.041h0s-.015,0-.029.029h0V7.75h0s0,.015-.056,0l.029.029s-.056,0-.041.029h.029c-.041-.015-.082-.029-.126-.041V7.761c-.056,0,.041.029.041.056-.029-.015-.056-.041-.073-.041s.041.085,0,.073a.042.042,0,0,1,.041.041c0,.015-.085-.015-.041.029H31.31a.067.067,0,0,0,.029.056c-.112-.073,0,.085-.085.015V8.02h-.029a.122.122,0,0,0,.015.056.041.041,0,0,1-.029-.015c-.041,0-.041.015,0,.073l-.041-.029s-.085,0-.056.041h0s-.141,0-.029.085v.041a.311.311,0,0,0,.1.041s-.056,0-.056-.015h0a.11.11,0,0,1-.085-.015c-.029.041-.1.073-.126.112l.056.029h0s-.041,0-.029-.015c-.029,0,0,.029.029.041a.06.06,0,0,1-.056-.041h0s.041.041.029.056-.041-.015-.041,0h-.015l.041.029s-.015.015.041.041c-.085-.029-.073.056-.1.041.029.029,0,.041,0,.056s.056.029.041.041c-.1-.056-.056,0-.126-.029.056.015,0,.041.056.073a.227.227,0,0,1-.073-.029c.015.041-.056.041-.073.085a.067.067,0,0,1,.056.029l-.073-.029s.073.041.015.029c0,0,.029,0,.029.015-.1.029-.029.156-.182.141q.029,0,.029.015h0l.041-.032ZM31.706,8s.015.029,0,.015S31.706,8,31.706,8Z" transform="translate(-21.567 -5.869)" fill="#f5b6c3"/>
      <path id="_パス_1572" d="M37.2,7h.029S37.2,6.969,37.2,7Z" transform="translate(-26.27 -5.944)" fill="#f5b6c3"/>
      <path id="_パス_1574" d="M36.689,6.885s-.029-.041,0-.029C36.674,6.814,36.689,6.911,36.689,6.885Z" transform="translate(-25.9 -5.844)" fill="#f5b6c3"/>
      <path id="_パス_1575" d="M37.29,7.23l.015.029.015.015-.029-.041h0Z" transform="translate(-26.334 -6.116)" fill="#f5b6c3"/>
      <rect id="_長方形_151" height="0.015" transform="translate(10.953 1.152)" fill="#f5b6c3"/>
      <path id="_パス_1578" d="M36.72,7.639s.015.015.015,0V7.61h0Z" transform="translate(-25.931 -6.385)" fill="#f5b6c3"/>
      <path id="_パス_1579" d="M36.989,7.779s-.015,0-.029-.029l.029.041h0V7.776Z" transform="translate(-26.101 -6.484)" fill="#f5b6c3"/>
      <path id="_パス_1580" d="M37.015,7.969s0-.029-.015-.029S37,7.981,37.015,7.969Z" transform="translate(-26.129 -6.618)" fill="#f5b6c3"/>
      <path id="_パス_1581" d="M36.141,8.053h0L36.1,7.98Z" transform="translate(-25.493 -6.646)" fill="#f5b6c3"/>
      <path id="_パス_1582" d="M36.169,8.986a.031.031,0,0,1-.029-.026h0c0,.029,0,.015.041.056.029,0-.029-.041,0-.029h-.015Z" transform="translate(-25.522 -7.338)" fill="#f5b6c3"/>
      <path id="_パス_1583" d="M30.509,13.89l-.029.015h.029Z" transform="translate(-21.525 -10.82)" fill="#f5b6c3"/>
      <path id="_パス_1584" d="M30.631,14.009l-.041-.029Z" transform="translate(-21.602 -10.883)" fill="#f5b6c3"/>
      <path id="_パス_1586" d="M34.371,11.039h0l-.041-.029Z" transform="translate(-24.243 -8.786)" fill="#f5b6c3"/>
      <path id="_パス_1588" d="M42.57,32.229,42.6,32.2S42.57,32.241,42.57,32.229Z" transform="translate(-30.062 -23.75)" fill="#f5b6c3"/>
      <path id="_パス_1589" d="M42.245,32.4l.015-.015-.029.029.015-.015Z" transform="translate(-29.822 -23.884)" fill="#f5b6c3"/>
      <path id="_パス_1590" d="M42.195,32.3s-.041.029-.029,0c-.029.056.015,0,0,.015h0l.029-.029h0Z" transform="translate(-29.769 -23.814)" fill="#f5b6c3"/>
      <path id="_パス_1593" d="M42.259,31.86s-.021.026-.029.041h.015V31.86Z" transform="translate(-29.822 -23.51)" fill="#f5b6c3"/>
      <path id="_パス_1596" d="M42.18,32.124s.029-.041.015-.029A.041.041,0,0,1,42.18,32.124Z" transform="translate(-29.787 -23.674)" fill="#f5b6c3"/>
      <path id="_パス_1598" d="M42.119,31.889V31.86a.209.209,0,0,1-.029.041h0l.029-.015Z" transform="translate(-29.723 -23.51)" fill="#f5b6c3"/>
      <path id="_パス_1600" d="M42.04,32.191l.041-.041Z" transform="translate(-29.688 -23.715)" fill="#f5b6c3"/>
      <path id="_パス_1601" d="M42.14,31.749l.029-.029Z" transform="translate(-29.759 -23.411)" fill="#f5b6c3"/>
      <path id="_パス_1602" d="M42.09,31.671s.015-.041.029-.041l-.029.029v.015Z" transform="translate(-29.723 -23.347)" fill="#f5b6c3"/>
      <path id="_パス_1607" d="M41.94,32.206a.116.116,0,0,1,.041-.056C41.981,32.165,41.952,32.179,41.94,32.206Z" transform="translate(-29.617 -23.715)" fill="#f5b6c3"/>
      <path id="_パス_1608" d="M41.99,32.079A.086.086,0,0,1,42,32.05H41.99Z" transform="translate(-29.653 -23.644)" fill="#f5b6c3"/>
      <path id="_パス_1616" d="M41.433,31.968v-.029c-.015.041-.041.041-.073.1h0c.015-.029.041-.056.029-.015a.979.979,0,0,0,.1-.17.044.044,0,0,1-.029.041.1.1,0,0,1-.029.073h0Z" transform="translate(-29.208 -23.503)" fill="#f5b6c3"/>
      <path id="_パス_1617" d="M41.815,31.839h0l.015-.029-.029.029Z" transform="translate(-29.519 -23.475)" fill="#f5b6c3"/>
      <path id="_パス_1618" d="M41.751,31.931a.07.07,0,0,1,.015-.041h0V31.86h-.015a.592.592,0,0,0-.041.073s.015-.029.029-.029h0l.015.026Z" transform="translate(-29.455 -23.51)" fill="#f5b6c3"/>
      <path id="_パス_1619" d="M41.806,32.186a.389.389,0,0,0-.041.073H41.75s.021-.029.029-.044h0a.146.146,0,0,1,.029-.056h0v.029Z" transform="translate(-29.483 -23.722)" fill="#f5b6c3"/>
      <path id="_パス_1620" d="M41.75,32.262v.029h0a.07.07,0,0,1,.015-.041H41.75v.015Z" transform="translate(-29.483 -23.785)" fill="#f5b6c3"/>
      <path id="_パス_1621" d="M41.822,31.761l.029-.041-.041.041h.015Z" transform="translate(-29.526 -23.411)" fill="#f5b6c3"/>
      <path id="_パス_1622" d="M41.8,31.775h0l.015-.015Z" transform="translate(-29.519 -23.439)" fill="#f5b6c3"/>
      <path id="_パス_1624" d="M40.79,31.221s.029-.073,0-.041v.029h0v.015Z" transform="translate(-28.805 -23.024)" fill="#f5b6c3"/>
      <path id="_パス_1627" d="M41.354,31.6V31.57S41.34,31.611,41.354,31.6Z" transform="translate(-29.199 -23.305)" fill="#f5b6c3"/>
      <path id="_パス_1635" d="M39.923,32.115l.029-.029L39.993,32l-.073.112h0Z" transform="translate(-28.191 -23.609)" fill="#f5b6c3"/>
      <path id="_パス_1636" d="M38.306,30.618s.041-.041.041-.029l-.029.041v-.015s-.029.073.015,0v-.029a.679.679,0,0,1,.056-.041c.029-.041,0,0,.015-.041-.029.073-.015,0-.041.056.029-.056,0-.029.029-.085,0,.015,0,.029-.015.015h0v.041a.391.391,0,0,0-.056.041.041.041,0,0,1,.015-.029v.029a.166.166,0,0,1,.015-.073h0v-.026h-.015s-.056.041-.029-.015h-.015v-.029h0c.041-.073-.015-.029-.015-.041v.041h-.056v.029l-.029-.029h0c.029-.085-.056.041-.041-.015h0v-.026h0s0,.015-.029.041h-.015s-.015.029,0-.029c-.015.029-.029,0-.056.073h0a.218.218,0,0,1,.015-.073l-.056.056v-.032h0c.015-.056-.041-.029-.029-.085-.041.085,0-.041-.029.029,0-.015,0-.029.029-.041-.015.015,0-.041-.029,0,0-.015.015-.029.029-.041h0a.085.085,0,0,1,.015-.029c-.026.035-.05.073-.073.112q0-.029-.015,0s0-.041.029-.041c0,0,0-.041-.029,0h-.015s0,.015-.029.029h0s-.015,0,0-.041v.041c-.056.073,0-.056-.029-.029v.029s.029-.112.029-.126v-.015c0-.056-.029.041-.041.056,0-.029.029-.056.029-.073s-.056.073-.041.029a.055.055,0,0,1-.029.056s0-.085-.015-.029h0s-.029,0-.041.041c.041-.126-.056.041,0-.073h0a.044.044,0,0,0-.041.029v-.024q0-.029-.041.029v-.041s0-.073-.015-.029h0s0-.126-.056,0l-.029.029a.293.293,0,0,0-.029.085v-.056h0v-.073c-.029,0-.041-.056-.073-.073v.056H37.41s0-.056.015-.041c0-.029-.015.029-.029.041a.176.176,0,0,1,.029-.073h0s-.015.056-.029.056V30.1h0v.029s-.015,0-.029.041c.015-.085-.041-.041-.029-.073-.015.029-.029.029-.029.029s0,.056-.015.056c.029-.1,0-.041,0-.126,0,.056-.029,0-.041.085v-.073c-.029.041-.029-.029-.056-.029a.122.122,0,0,1-.015.056v-.073s-.015.085,0,.029v.029c-.029-.073-.1.041-.112-.1v.029s-.029,0-.029.056h0s-.015.126-.029.2c.015-.073,0,.1.029,0v.047c0-.029,0-.041.015-.029h0a.116.116,0,0,0,.041.056v-.015c.015-.056,0,0,0-.073,0,.073.029,0,.015.1,0,0,0-.041.015-.041h0v.056h.015a.1.1,0,0,0,.073-.041h.029l.015-.015a.074.074,0,0,1-.015.056c.029-.029.015-.029.041-.085V30.3s0-.041.015-.041a.08.08,0,0,1-.029.073c0,.073.041-.056.029.041.029-.073,0-.041,0-.056s.029-.056.029-.041-.029.1,0,.1h0c.015-.041,0,0,.029-.056h-.015s.041-.073.041-.029a.07.07,0,0,1-.015.041h0c-.015.056-.015,0-.041.056,0,.029.029-.041,0,.029.029-.085,0,0,.041-.041v.041h0v.029s-.015.041,0,.015a.218.218,0,0,1,.015-.073c.029-.041-.029.1,0,.085h0a.067.067,0,0,1,.029-.056c0,.041,0-.015.029-.029v.041s.015-.073.015-.041l-.029.041h0v.029h0a.176.176,0,0,1,.029-.073c0,.029-.015.029,0,.029,0,.029-.029.056-.015.015v.029h0l.029-.041s0,.029-.015.029v-.026a.166.166,0,0,1-.015.073l.029-.029v.041s.041-.056.041-.029h0s0,.029.029,0v.056s0-.073.029-.085-.015.041-.015.056c.015-.029.041-.073.041-.029h0V30.5a.2.2,0,0,0-.041.073c.041-.1.029,0,.073-.1v.029h0s.041-.073.041-.041v.015H37.7s.029-.015.029-.029v.041c-.041.1.015-.029,0,.041h0a.209.209,0,0,1-.015.085.394.394,0,0,1,.041-.112h0c-.015.041,0,.029,0,.029v-.015a.116.116,0,0,1-.029.073.227.227,0,0,1,.029-.073c0,.029,0,0,.041-.015,0,.015-.015.029-.015.041l.029-.041h0s.029-.029.029-.041c.029-.056-.029.085,0,.029a.209.209,0,0,1-.029.041.232.232,0,0,0,.056-.073v.029a.791.791,0,0,1,.056-.112v-.041h.041l-.029.029h0l-.029.056V30.4l-.041.085h0l-.029.041h0s.085-.1.1-.112a.792.792,0,0,0-.056.112c.015-.041-.029.015-.029,0s0,.029-.015.029l.041-.041a.07.07,0,0,1-.015.041c.029-.073.029-.041.056-.073a.047.047,0,0,1-.029.041c-.015.056.056-.085.041-.029h0s.015,0,0,.029h0s.029.015.073-.041l-.041.085.126-.2a1.812,1.812,0,0,1-.112.212h0s.029-.085.041-.085c-.029.056,0,.029-.029.085,0,0,.041-.1.056-.085L38,30.579l.056-.073a.311.311,0,0,0-.041.1c0-.015,0,0,.015,0h0s.073-.126.085-.112-.056.1-.056.112c.029-.041.112-.2.141-.226h0s-.112.182-.141.226v.029a.031.031,0,0,1-.026.029h0v.029a1.019,1.019,0,0,0,.073-.085l-.041.041s.085-.126.085-.112a.4.4,0,0,1-.056.1c0-.015.029-.029.029-.015v.029h0s-.029.073,0,.041c.029-.056.112-.226.141-.267a.488.488,0,0,1-.029.085.693.693,0,0,1-.085.141s.015-.029.029-.029-.029.041-.015.041l.029-.041h0a.624.624,0,0,1,.085-.112v.041s-.015.029,0,.041a.044.044,0,0,1-.029.041v.029c.015-.029.029-.029.041-.041.029-.041,0,0-.015,0a.6.6,0,0,1,.1-.141c.015,0-.015.041,0,.029,0,.015.073-.1.073-.041a.521.521,0,0,1-.056.1c-.015,0,0-.029,0-.029h0s-.015.041-.015.029c-.015.041.029.029.015.056a.208.208,0,0,1,.029-.041h0a.249.249,0,0,0,.041-.056h0l-.162.091Z" transform="translate(-26.136 -22.182)" fill="#f5b6c3"/>
      <path id="_パス_1642" d="M41.6,31.682s.029-.041.015-.029C41.64,31.623,41.569,31.694,41.6,31.682Z" transform="translate(-29.37 -23.358)" fill="#f5b6c3"/>
      <path id="_パス_1643" d="M41.42,32.326v.015l.015-.041-.015.029Z" transform="translate(-29.25 -23.821)" fill="#f5b6c3"/>
      <path id="_パス_1646" d="M41.13,32.115v.015l.015-.029h0Z" transform="translate(-29.045 -23.679)" fill="#f5b6c3"/>
      <path id="_パス_1648" d="M40.88,32.559a.128.128,0,0,0,.015-.029S40.865,32.559,40.88,32.559Z" transform="translate(-28.866 -23.983)" fill="#f5b6c3"/>
      <path id="_パス_1649" d="M40.7,31.973h0l.041-.073Z" transform="translate(-28.742 -23.538)" fill="#f5b6c3"/>
      <path id="_パス_1650" d="M40.1,32.469V32.44l-.029.056c0,.029.029-.041.015-.015h0l.015-.015Z" transform="translate(-28.297 -23.919)" fill="#f5b6c3"/>
      <path id="_パス_1651" d="M36.975,30.069l-.015-.029v.029Z" transform="translate(-26.101 -22.225)" fill="#f5b6c3"/>
      <path id="_パス_1654" d="M38.795,32.051l.015-.041-.029.041Z" transform="translate(-27.386 -23.616)" fill="#f5b6c3"/>
      <path id="_パス_1658" d="M21.085,46.68v.015h.029S21.073,46.695,21.085,46.68Z" transform="translate(-14.888 -33.976)" fill="#f5b6c3"/>
      <path id="_パス_1703" d="M19.913,44.2h.126c.029,0,.073,0,.041.015h.126c-.073,0,0-.015-.073,0h.059s.029-.015,0-.015h0s-.056-.029,0-.041h.029s.029,0,0-.015c.085,0,.015-.015.029-.029h-.041L20.18,44.1h-.041a.031.031,0,0,0,.029-.026h0c.085,0-.056-.015,0-.029h-.1c.073,0,0-.029.073-.041h.029c-.029,0,.041,0-.029-.015h-.029s.029-.015-.029-.015h-.035s-.029,0,.029-.015h-.041c-.085,0,.056,0,.015-.015h-.029a.451.451,0,0,0,.126-.015h.029s-.1-.015-.041-.029h-.056s.085-.015,0-.015h-.056c.141-.015-.073-.015.056-.029h0a.1.1,0,0,0-.056-.029h.029c.029,0,.015-.015-.041-.015h.041s.073-.029.015-.029h.015c-.056,0,.112-.041-.041-.029h-.123s.041-.015.056,0h0c.085,0,.029-.015.085-.015,0-.015.041-.041.029-.073h-.1c.085-.015.029-.041.056-.041h-.085c.112,0,.041-.015.126-.029-.056,0-.015-.015-.085,0h.073c-.041,0,.029-.029,0-.041h.015s-.085,0-.029-.029h-.041s-.073-.041.056-.085h-.085l.056-.029h-.056l-.212.041c.073,0-.1.029,0,.029h-.012l-.041.041h0l.073-.015c-.085.015,0,.029-.085.041h.015s0,.029.041.029h.015s-.015,0,0,.015h0c-.073.015.073,0-.029.029.085,0,.041-.015.073-.015h.056s-.112.015-.112.029h-.041s-.041.029,0,.029a.218.218,0,0,0,.073-.015c.056,0-.1.015-.085.029h.041s.029,0,0,.015h0a.392.392,0,0,1-.056.015c-.015,0,.073,0,.041.015h.015s-.041.015,0,.015H19.66c.112,0,0,.015.126,0h.073s0,.015-.029.015H19.8c-.112,0,.029,0-.041.015h-.015a.289.289,0,0,0-.085.015.455.455,0,0,1,.126,0h-.012l.041.015h.056c.056,0-.085.015-.015.015h-.085s.156.029.182.029h-.126c.056,0-.029,0,0-.015h.015a.122.122,0,0,0-.056.015h.056s0,.029.073.029h.141s-.212.015-.238.015h-.1a.552.552,0,0,0,.1.015h.267a.352.352,0,0,0-.1.015H19.96s-.029.015-.029.029h.112s.126,0,.073.029h-.126c-.041,0,0,.029-.041.029h0l-.021.2Z" transform="translate(-13.884 -31.666)" fill="#f5b6c3"/>
      <path id="_パス_1710" d="M20.66,46.2l.041-.015H20.66Z" transform="translate(-14.59 -33.63)" fill="#f5b6c3"/>
      <path id="_パス_1724" d="M0,32.842l.015.015L0,32.83v.015Z" transform="translate(0 -24.195)" fill="#f5b6c3"/>
      <path id="_パス_1725" d="M.1,32.76h0v.029s.015-.041.029-.029C.1,32.7.129,32.76.1,32.76Z" transform="translate(-0.071 -24.128)" fill="#f5b6c3"/>
      <path id="_パス_1733" d="M.53,33.082l.015.029A.07.07,0,0,0,.53,33.07h0v.015Z" transform="translate(-0.374 -24.364)" fill="#f5b6c3"/>
      <rect id="_長方形_160" height="0.041" transform="translate(0.091 8.647)" fill="#f5b6c3"/>
      <path id="_パス_1735" d="M.635,33.182v.029L.62,33.17l.015.015h0Z" transform="translate(-0.438 -24.435)" fill="#f5b6c3"/>
      <path id="_パス_1736" d="M.72,33.153a.392.392,0,0,1,.015.056v-.044H.72V33.15Z" transform="translate(-0.508 -24.421)" fill="#f5b6c3"/>
      <path id="_パス_1738" d="M.53,33.02s0,.029.015.029V33.02Z" transform="translate(-0.374 -24.329)" fill="#f5b6c3"/>
      <path id="_パス_1741" d="M.33,32.68a.3.3,0,0,1,.015.073A.164.164,0,0,0,.33,32.68Z" transform="translate(-0.233 -24.089)" fill="#f5b6c3"/>
      <path id="_パス_1743" d="M.635,32.975V32.96H.62v.015Z" transform="translate(-0.438 -24.287)" fill="#f5b6c3"/>
      <path id="_パス_1750" d="M.635,32.342l.015.029c-.015-.041,0-.056-.029-.112v.029a.545.545,0,0,0,.073.17v-.044a.1.1,0,0,1-.029-.056h0l-.029-.015Z" transform="translate(-0.438 -23.792)" fill="#f5b6c3"/>
      <path id="_パス_1751" d="M.77,32.92h0s0,.015.029.041V32.92Z" transform="translate(-0.544 -24.258)" fill="#f5b6c3"/>
      <path id="_パス_1752" d="M.649,32.715A.131.131,0,0,0,.62,32.63v.041a.085.085,0,0,0,.015.029h0v.029h0Z" transform="translate(-0.438 -24.054)" fill="#f5b6c3"/>
      <path id="_パス_1753" d="M.33,32.519a.335.335,0,0,1,.029.056A.157.157,0,0,0,.33,32.49h0v.041h0v-.015Z" transform="translate(-0.233 -23.955)" fill="#f5b6c3"/>
      <path id="_パス_1755" d="M.81,32.942l.015.029L.81,32.93v.015Z" transform="translate(-0.572 -24.265)" fill="#f5b6c3"/>
      <path id="_パス_1756" d="M.86,32.92l.015.029v-.015Z" transform="translate(-0.607 -24.258)" fill="#f5b6c3"/>
      <path id="_パス_1758" d="M2.06,32.54s.041.073.029.029V32.54Z" transform="translate(-1.455 -23.99)" fill="#f5b6c3"/>
      <path id="_パス_1761" d="M1.33,32.7s.006.015.015.015S1.315,32.676,1.33,32.7Z" transform="translate(-0.936 -24.097)" fill="#f5b6c3"/>
      <path id="_パス_1769" d="M1.87,31.19v.029l.041.1Z" transform="translate(-1.321 -23.037)" fill="#f5b6c3"/>
      <path id="_パス_1770" d="M2.347,30.189s-.056-.126-.085-.2c.015.073-.056-.085-.029,0v-.015h0a.765.765,0,0,1-.073-.029h0c.015.056.015,0,.029.056-.029-.073-.041,0-.073-.073,0,0,.015.041,0,.041h0s-.029-.029-.029-.041H2.071A.076.076,0,0,0,2.015,30h0s-.015,0-.029.029h0v.029a.191.191,0,0,1-.029-.056.268.268,0,0,0,.015.1v.026c0-.029-.029-.041-.029-.073-.041-.056,0,.073-.041-.015.029.085.029.041.029.056s.015.056,0,.056-.041-.1-.056-.085h0s0,.029-.015,0c.015.041,0,0,0,.056h0s.015.073,0,.041v-.041h0c-.029-.056,0-.015,0-.073,0-.029,0,.041-.015-.015.029.085-.015,0,0,.056h0l-.029-.041s-.029-.029-.029,0c.015,0,.029.041.041.073,0,.056-.041-.085-.056-.056L1.8,30.1l-.029-.029a.391.391,0,0,1,.015.056c-.029-.041,0,.015,0,.041v-.044H1.771v-.026s-.015.029-.029.015c0,.029.029.073.015.073s0-.029-.015-.029c0-.029-.015-.056,0-.015v-.029H1.713v.041a.547.547,0,0,1-.029-.073v.044s-.029-.029-.029-.041,0,.073-.015.041h0s-.041-.015-.029.029l-.029-.056s.041.056.029.085-.029-.041-.029-.056c0,.029.015.085,0,.041h0v-.026a.261.261,0,0,0-.041-.073c.041.1-.029.029.015.126H1.539v-.026s.029.073,0,.073a.056.056,0,0,1-.015-.029v.029H1.51v.041s-.015-.056,0-.056c-.056-.1,0,.029-.041-.029h0c-.029-.073-.029-.041-.056-.085,0,.015.056.085.056.112h0c-.015-.041-.015-.029-.015-.029V30.2a.389.389,0,0,1-.041-.073.547.547,0,0,1,.029.073c-.015-.015-.015,0,0,.041a.053.053,0,0,0-.012-.041v.041h0a.274.274,0,0,1,.015.041c.015.056-.041-.073-.029,0a.07.07,0,0,0-.015-.041v.085L1.372,30.3s.029.085.041.112l.029.041v.029a.07.07,0,0,0-.015-.041h0L1.4,30.385v.029a.209.209,0,0,0-.015-.085h0l-.029-.041h0v.167c0-.041-.029-.073-.041-.112.029.041,0-.029.015-.015L1.313,30.3v.056a.051.051,0,0,0-.029-.044c.029.073,0,.056,0,.085,0-.029-.015-.056,0-.041-.029-.056.029.1,0,.041h0c0,.029,0,0-.015,0h0s-.041,0-.015.073l-.029-.085.056.223A1.674,1.674,0,0,1,1.2,30.4h0a.455.455,0,0,1,.041.085L1.2,30.4s.041.1.029.1a.481.481,0,0,0-.041-.1l.029.085s-.029-.073-.041-.1h0s.029.141.015.141-.041-.112-.056-.112c0,.041.073.212.073.253h0s-.073-.212-.085-.267c0-.015,0-.029-.015-.029v-.044H1.075a.157.157,0,0,0,.029.085v-.056s.041.141.029.141a.51.51,0,0,0-.041-.112h0s0,.073-.015.029c0,0-.029-.056-.029-.029.029.056.1.238.112.282,0,0-.041-.056-.056-.073-.029-.041-.029-.112-.056-.141v.041s-.015-.041-.015-.029c.015.056-.015,0,0,.041,0,.015,0,0-.015,0,.015.029.041.112.029.126a.07.07,0,0,0-.015-.041c-.015,0-.029-.029-.041-.015a.208.208,0,0,0-.029-.041v.029l-.015-.056v.073c.015.041.015,0,.015-.015a.383.383,0,0,1,.041.17C1,30.753.99,30.7.99,30.709c-.029,0,.029.112,0,.073a.51.51,0,0,1-.041-.112c0-.015.029.029.029.015H.963v-.029c-.015-.029-.041,0-.073-.029v.041H.911a.1.1,0,0,0,.015.056h0c0,.029-.041-.056-.015,0v.029s.029.073.015.073c.015.041,0,0,.029.041-.029-.073.029,0,0-.073A.361.361,0,0,0,1,30.867v-.026H1v-.1a.547.547,0,0,1,.029.073h0s.029.029.029,0h0v-.029h0s0-.056.041,0V30.8s.041.029.029,0c.041.073.029,0,.056.015v-.1s.021.009.026,0h0c.041.073,0-.073.041-.015h.029l-.015-.029v-.029s0-.029.029.041a.352.352,0,0,0-.015-.1h0v-.015a.326.326,0,0,1,.041.085V30.6s0-.041.015-.015c.029.056.041,0,.085.041-.041-.085.029.029,0-.029,0,.015.015.029.029.056,0-.029.029.029.015-.029a.055.055,0,0,0,.015.041h0v.026a.635.635,0,0,0-.041-.126c.015.029.015.015,0-.015,0,.015.029.041.015.041s.041.015.015-.029h.015v-.026h0s0-.015.041.029v-.029c-.041-.073.015.041.015,0h0s.056.085.073.085v.015c.029.041-.015-.041,0-.056a.176.176,0,0,0,.029.073c0,.015-.015-.085.015-.041a.1.1,0,0,0-.029-.056s.056.073.029,0h0V30.5c.056.126,0-.073.056.041h.015v-.029c.029.015.029,0,.015-.056V30.5s.073.041.056,0h0s.085.1.029-.029v-.041l-.041-.085s.029.029.029.041h0s.029,0,.041.056c.029-.015.073,0,.1,0l-.029-.056h0s.015.041,0,.041c.015.029,0-.029,0-.041.029.015.015.073.029.073h0V30.4l.015.029H1.98l-.029-.041v-.044c.041.073.056,0,.073.029V30.33s-.029-.056-.015-.056c.041.1.029.041.073.112-.029-.041.015-.015-.015-.085a.146.146,0,0,0,.029.056c0-.041.041,0,.056,0a.2.2,0,0,1-.015-.056l.041.056s-.029-.073,0-.029V30.3s.041-.085.126.029c-.015-.029,0-.029,0-.029h0s.029,0,.015-.056h0l.041-.071Z" transform="translate(-0.629 -22.147)" fill="#f5b6c3"/>
      <path id="_パス_1774" d="M.775,32.564s0-.015-.015,0Z" transform="translate(-0.537 -24.003)" fill="#f5b6c3"/>
      <path id="_パス_1777" d="M.72,32.255V32.24l.015.041L.72,32.252Z" transform="translate(-0.508 -23.778)" fill="#f5b6c3"/>
      <path id="_パス_1783" d="M1.44,31.96h0l.029.073Z" transform="translate(-1.017 -23.58)" fill="#f5b6c3"/>
      <path id="_パス_1784" d="M1.53,31.22a.085.085,0,0,0,.015.029c0-.015,0,0-.015-.056-.015-.015.015.041,0,.029Z" transform="translate(-1.077 -23.038)" fill="#f5b6c3"/>
      <path id="_パス_1785" d="M5.94,31.1l.015.015Z" transform="translate(-4.195 -22.973)" fill="#f5b6c3"/>
      <path id="_パス_1788" d="M2.97,30.57h0L3,30.611Z" transform="translate(-2.097 -22.599)" fill="#f5b6c3"/>
    </g>
  </g>
</svg>
