<svg xmlns="http://www.w3.org/2000/svg" xmlns:xlink="http://www.w3.org/1999/xlink" width="66" height="66" viewBox="0 0 66 66">
  <defs>
    <filter id="パス_5371" x="0" y="0" width="66" height="66" filterUnits="userSpaceOnUse">
      <feOffset dy="2" input="SourceAlpha"/>
      <feGaussianBlur stdDeviation="3" result="blur"/>
      <feFlood flood-color="red" flood-opacity="0.102"/>
      <feComposite operator="in" in2="blur"/>
      <feComposite in="SourceGraphic"/>
    </filter>
  </defs>
  <g id="グループ_4818" data-name="グループ 4818" transform="translate(-31.035 -6316.637)">
    <g transform="matrix(1, 0, 0, 1, 31.04, 6316.64)" filter="url(#パス_5371)">
      <g id="パス_5371-2" data-name="パス 5371" transform="translate(9 7)" fill="#fff">
        <path d="M 24 47 C 20.89458084106445 47 17.8825798034668 46.39202117919922 15.04767036437988 45.19295883178711 C 12.30897045135498 44.03458023071289 9.849149703979492 42.37606048583984 7.736549854278564 40.26345825195312 C 5.623939990997314 38.15085983276367 3.965420007705688 35.6910400390625 2.807039976119995 32.95233154296875 C 1.607980012893677 30.1174201965332 1 27.10541915893555 1 24 C 1 20.89458084106445 1.607980012893677 17.8825798034668 2.807039976119995 15.04767036437988 C 3.965420007705688 12.30897045135498 5.623939990997314 9.849149703979492 7.736549854278564 7.736549854278564 C 9.849149703979492 5.623939990997314 12.30897045135498 3.965420007705688 15.04767036437988 2.807039976119995 C 17.8825798034668 1.607980012893677 20.89458084106445 1 24 1 C 27.10541915893555 1 30.1174201965332 1.607980012893677 32.95233154296875 2.807039976119995 C 35.6910400390625 3.965420007705688 38.15085983276367 5.623939990997314 40.26345825195312 7.736549854278564 C 42.37606048583984 9.849149703979492 44.03458023071289 12.30897045135498 45.19295883178711 15.04767036437988 C 46.39202117919922 17.8825798034668 47 20.89458084106445 47 24 C 47 27.10541915893555 46.39202117919922 30.1174201965332 45.19295883178711 32.95233154296875 C 44.03458023071289 35.6910400390625 42.37606048583984 38.15085983276367 40.26345825195312 40.26345825195312 C 38.15085983276367 42.37606048583984 35.6910400390625 44.03458023071289 32.95233154296875 45.19295883178711 C 30.1174201965332 46.39202117919922 27.10541915893555 47 24 47 Z" stroke="none"/>
        <path d="M 24 2 C 21.02914047241211 2 18.1481990814209 2.581401824951172 15.43722152709961 3.728050231933594 C 12.81771850585938 4.836009979248047 10.46474075317383 6.422561645507812 8.443649291992188 8.443649291992188 C 6.422561645507812 10.46474075317383 4.836009979248047 12.81771850585938 3.728050231933594 15.43722152709961 C 2.581401824951172 18.1481990814209 2 21.02914047241211 2 24 C 2 26.97085952758789 2.581401824951172 29.8518009185791 3.728050231933594 32.56278228759766 C 4.836009979248047 35.18228912353516 6.422561645507812 37.53525924682617 8.443649291992188 39.55635070800781 C 10.46474075317383 41.57743835449219 12.81771850585938 43.16400146484375 15.43722152709961 44.27194976806641 C 18.1481990814209 45.41860198974609 21.02914047241211 46 24 46 C 26.97085952758789 46 29.8518009185791 45.41860198974609 32.56278228759766 44.27194976806641 C 35.18228912353516 43.16400146484375 37.53525924682617 41.57743835449219 39.55635070800781 39.55635070800781 C 41.57743835449219 37.53525924682617 43.16400146484375 35.18228912353516 44.27194976806641 32.56278228759766 C 45.41860198974609 29.8518009185791 46 26.97085952758789 46 24 C 46 21.02914047241211 45.41860198974609 18.1481990814209 44.27194976806641 15.43722152709961 C 43.16400146484375 12.81771850585938 41.57743835449219 10.46474075317383 39.55635070800781 8.443649291992188 C 37.53525924682617 6.422561645507812 35.18228912353516 4.836009979248047 32.56278228759766 3.728050231933594 C 29.8518009185791 2.581401824951172 26.97085952758789 2 24 2 M 24 0 C 37.25484085083008 0 48 10.74517059326172 48 24 C 48 37.25484085083008 37.25484085083008 48 24 48 C 10.74517059326172 48 0 37.25484085083008 0 24 C 0 10.74517059326172 10.74517059326172 0 24 0 Z" stroke="none" fill="#fedfe0"/>
      </g>
    </g>
    <g id="customer-service" transform="translate(44.998 6330)">
      <path id="パス_5369" data-name="パス 5369" d="M15.232,171.994c5.467,6.515,13.129,9.086,17.116,5.745l0,0c.555-.466-.089-2.15-1.44-3.759s-3.828-3.648-4.384-3.182a4,4,0,0,1-5.617-.491L17.882,166.7a4,4,0,0,1,.491-5.617c.556-.466-1.021-3.26-2.372-4.87s-2.9-2.537-3.452-2.071c-3.986,3.345-2.786,11.34,2.683,17.857Zm0,0" transform="translate(-9.452 -142.792)" fill="#ffa442" fill-rule="evenodd"/>
      <path id="パス_5370" data-name="パス 5370" d="M23.335,35.548c-2.2,1.82-5.356,2.042-8.678.926a21.927,21.927,0,0,1-9.417-6.76.753.753,0,0,1-.059-.07A21.924,21.924,0,0,1,.158,19.2c-.524-3.485.256-6.567,2.463-8.419l.015-.012c.547-.445,1.373-.336,2.27.2a9.287,9.287,0,0,1,2.185,1.94.778.778,0,0,1,.057.067A17.553,17.553,0,0,1,9.11,15.941c.649,1.26.887,2.412.288,2.915A3.259,3.259,0,0,0,9,23.428l3.028,3.609a3.259,3.259,0,0,0,4.571.4c.6-.5,1.69-.065,2.817.792a13.113,13.113,0,0,1,4.172,5,2.007,2.007,0,0,1-.164,2.241.736.736,0,0,1-.09.077Zm4-4.728A.742.742,0,0,0,28,32.143,16.987,16.987,0,1,0,6.713,6.839c-.545.729.632,1.628,1.187.886a15.6,15.6,0,0,1,4.3-3.941A15.5,15.5,0,1,1,27.333,30.819Zm-2.349,1a.729.729,0,1,1-.729.729A.729.729,0,0,1,24.983,31.822ZM5.79,8.994a.729.729,0,1,0,.729.729A.729.729,0,0,0,5.79,8.994ZM30.5,21.008a.744.744,0,1,1-1.487,0V17.73H25.188v0a.74.74,0,0,1-.569-1.214l4.527-5.433A.744.744,0,0,1,30.5,11.5v4.741h.9a.744.744,0,0,1,0,1.487h-.9Zm-1.487-4.766H26.771l2.243-2.692ZM18.252,14.427a2.182,2.182,0,1,1,4.363,0,1.756,1.756,0,0,1-.588,1.344,8.021,8.021,0,0,1-1.878,1.159c-1.869.932-3.3,3.731-3.3,3.739a.742.742,0,0,0,.659,1.082v0h5.85a.744.744,0,1,0,0-1.487h-4.54a6.073,6.073,0,0,1,1.993-2,9.127,9.127,0,0,0,2.238-1.415A3.156,3.156,0,0,0,24.1,14.427a3.669,3.669,0,0,0-7.338,0,.744.744,0,0,0,1.487,0ZM15.127,35.068c2.854.958,5.51.8,7.292-.69l0,0c.007-.006-.079-.241-.223-.617a11.849,11.849,0,0,0-3.679-4.353,3.76,3.76,0,0,0-1.149-.686,4.186,4.186,0,0,1-3.27.937,4.718,4.718,0,0,1-3.213-1.668L7.861,24.381a4.713,4.713,0,0,1-1.084-3.45A4.441,4.441,0,0,1,8.355,17.8a18.26,18.26,0,0,0-2.374-3.9,7.83,7.83,0,0,0-1.836-1.654c-.331-.2-.544-.321-.569-.324l-.029.023c-1.759,1.5-2.364,4.074-1.919,7.036a20.441,20.441,0,0,0,4.721,9.751h0a20.442,20.442,0,0,0,8.778,6.342Zm0,0" fill-rule="evenodd"/>
    </g>
  </g>
</svg>
