<svg xmlns="http://www.w3.org/2000/svg" xmlns:xlink="http://www.w3.org/1999/xlink" width="33.304" height="34.023" viewBox="0 0 33.304 34.023">
  <defs>
    <filter id="Path_1420" x="6.473" y="0" width="26.832" height="34.023" filterUnits="userSpaceOnUse">
      <feOffset dy="3" input="SourceAlpha"/>
      <feGaussianBlur stdDeviation="3" result="blur"/>
      <feFlood flood-opacity="0.161"/>
      <feComposite operator="in" in2="blur"/>
      <feComposite in="SourceGraphic"/>
    </filter>
    <filter id="Path_1421" x="0" y="0" width="26.832" height="34.023" filterUnits="userSpaceOnUse">
      <feOffset dy="3" input="SourceAlpha"/>
      <feGaussianBlur stdDeviation="3" result="blur-2"/>
      <feFlood flood-opacity="0.161"/>
      <feComposite operator="in" in2="blur-2"/>
      <feComposite in="SourceGraphic"/>
    </filter>
  </defs>
  <g id="Group_2091" data-name="Group 2091" transform="translate(9 6)">
    <g id="Group_416" data-name="Group 416" transform="translate(6.473)">
      <g transform="matrix(1, 0, 0, 1, -15.47, -6)" filter="url(#Path_1420)">
        <path id="Path_1420-2" data-name="Path 1420" d="M281.608,46.645l-7.191-7.191a.82.82,0,1,0-1.16,1.16l6.611,6.611-6.611,6.611a.82.82,0,1,0,1.16,1.16l7.191-7.191A.82.82,0,0,0,281.608,46.645Z" transform="translate(-257.54 -33.21)" fill="#ff406b"/>
      </g>
    </g>
    <g id="Group_418" data-name="Group 418">
      <g transform="matrix(1, 0, 0, 1, -9, -6)" filter="url(#Path_1421)">
        <path id="Path_1421-2" data-name="Path 1421" d="M8.591,46.645,1.4,39.454a.82.82,0,0,0-1.16,1.16l6.611,6.611L.24,53.836A.82.82,0,1,0,1.4,55l7.191-7.191A.82.82,0,0,0,8.591,46.645Z" transform="translate(9 -33.21)" fill="#ff406b"/>
      </g>
    </g>
  </g>
</svg>
