<svg xmlns="http://www.w3.org/2000/svg" xmlns:xlink="http://www.w3.org/1999/xlink" width="29.571" height="29.571" viewBox="0 0 29.571 29.571">
  <defs>
    <filter id="Ellipse_123" x="0" y="0" width="29.571" height="29.571" filterUnits="userSpaceOnUse">
      <feOffset dy="1" input="SourceAlpha"/>
      <feGaussianBlur stdDeviation="1" result="blur"/>
      <feFlood flood-color="#f0a9b9" flood-opacity="0.451"/>
      <feComposite operator="in" in2="blur"/>
      <feComposite in="SourceGraphic"/>
    </filter>
  </defs>
  <g id="Group_1695" data-name="Group 1695" transform="translate(3 2)">
    <g transform="matrix(1, 0, 0, 1, -3, -2)" filter="url(#Ellipse_123)">
      <g id="Ellipse_123-2" data-name="Ellipse 123" transform="translate(3 2)" fill="#f0a9b9" stroke="#fbfbfb" stroke-width="1">
        <circle cx="11.785" cy="11.785" r="11.785" stroke="none"/>
        <circle cx="11.785" cy="11.785" r="11.285" fill="none"/>
      </g>
    </g>
    <g id="layer1" transform="translate(9.159 5.922)">
      <path id="path9429" d="M2.82,291.965a.792.792,0,0,0-.521,1.4l4.847,4.152L2.3,301.67a.792.792,0,1,0,1.029,1.2l5.549-4.748a.792.792,0,0,0,0-1.205l-5.549-4.752a.791.791,0,0,0-.507-.2Z" transform="translate(-1.976 -291.965)" fill="#fff"/>
    </g>
  </g>
</svg>
