<svg id="beds" xmlns="http://www.w3.org/2000/svg" width="34.848" height="31.363" viewBox="0 0 34.848 31.363">
  <path id="Path_2574" data-name="Path 2574" d="M48.908,128.845a2.021,2.021,0,0,0,.2-.873v-2.9a2.035,2.035,0,0,0-2.033-2.033h-.879a1.309,1.309,0,0,0-1.3-1.162H26.454a.581.581,0,0,0-.581.581v.581H24.323a2.034,2.034,0,0,0,.181-1.123l-.8-6.389a2.036,2.036,0,0,0-2.017-1.781h-.751a2.021,2.021,0,0,0-.873.2A2.035,2.035,0,0,0,18.033,112H16.581a.581.581,0,0,0-.581.581v2.9h1.162v-2.323h.871a.872.872,0,0,1,.871.871v19.457H17.162V116.646H16v20.909a.581.581,0,0,0,.581.581h1.392a3.48,3.48,0,0,0,3.306-2.383l.367-1.1H41.555v-1.162H20.066V130H48.815a.872.872,0,0,1,.871.871v2.614h-6.97v1.162H45.2l.367,1.1a3.48,3.48,0,0,0,3.306,2.383h1.392a.581.581,0,0,0,.581-.581v-6.679A2.035,2.035,0,0,0,48.908,128.845Zm-28.487,5.806-.245.735a2.32,2.32,0,0,1-2.2,1.589h-.811v-2.323ZM45.04,123.18v3.34H30.52v-3.485H44.895A.145.145,0,0,1,45.04,123.18Zm-18-.145h2.323v3.485H27.035Zm-6.1-8.131h.751a.873.873,0,0,1,.864.763l.8,6.389a.871.871,0,0,1-.864.979H20.066v-7.26A.872.872,0,0,1,20.937,114.9Zm-.871,13.939V124.2h5.808v2.9a.581.581,0,0,0,.581.581H45.621a.581.581,0,0,0,.581-.581v-2.9h.871a.872.872,0,0,1,.871.871v2.9a.872.872,0,0,1-.871.871Zm29.621,8.131h-.811a2.32,2.32,0,0,1-2.2-1.588l-.245-.735h3.26Z" transform="translate(-16 -106.773)" fill="#929292"/>
  <path id="Path_2575" data-name="Path 2575" d="M281.991,161.5l1.2.659.659,1.2a.581.581,0,0,0,1.019,0l.659-1.2,1.2-.659a.581.581,0,0,0,0-1.019l-1.2-.659-.659-1.2a.581.581,0,0,0-1.019,0l-.659,1.2-1.2.659a.581.581,0,0,0,0,1.019Zm1.911-.74a.581.581,0,0,0,.231-.231l.231-.422.231.422a.581.581,0,0,0,.231.231l.422.231-.422.231a.581.581,0,0,0-.231.231l-.231.422-.231-.422a.58.58,0,0,0-.231-.231l-.422-.231Z" transform="translate(-262.4 -149.723)" fill="#ebc445"/>
  <path id="Path_2576" data-name="Path 2576" d="M184.3,75.185l1.2.659.659,1.2a.581.581,0,0,0,1.019,0l.659-1.2,1.2-.659a.581.581,0,0,0,0-1.019l-1.2-.659-.659-1.2a.581.581,0,0,0-1.019,0l-.659,1.2-1.2.659a.581.581,0,0,0,0,1.019Zm1.911-.741a.58.58,0,0,0,.231-.231l.231-.422.231.422a.581.581,0,0,0,.231.231l.422.231-.422.231a.581.581,0,0,0-.231.231l-.231.422-.231-.422a.581.581,0,0,0-.231-.231l-.422-.231Z" transform="translate(-171.804 -69.677)" fill="#ebc445"/>
  <path id="Path_2577" data-name="Path 2577" d="M334.614,43.185l1.2.659.659,1.2a.581.581,0,0,0,1.019,0l.659-1.2,1.2-.659a.581.581,0,0,0,0-1.019l-1.2-.659-.659-1.2a.581.581,0,0,0-1.019,0l-.659,1.2-1.2.659a.581.581,0,0,0,0,1.019Zm1.911-.741a.58.58,0,0,0,.231-.231l.231-.422.231.422a.58.58,0,0,0,.231.231l.422.231-.422.231a.581.581,0,0,0-.231.231l-.231.422-.231-.422a.58.58,0,0,0-.231-.231l-.422-.231Z" transform="translate(-311.203 -40)" fill="#ebc445"/>
</svg>
