<svg xmlns="http://www.w3.org/2000/svg" width="21" height="19.558" viewBox="0 0 21 19.558">
  <g id="check-mark" transform="translate(-33.181 -51.249)">
    <g id="_35-Checked" data-name="35-Checked" transform="translate(35.591 51.249)">
      <path id="Path_2931" data-name="Path 2931" d="M91.164,68.077l-.2-.345c-1.52-2.59-5.564-8.092-5.6-8.147l-.119-.161,1.521-1.5,4.353,3.04a50.074,50.074,0,0,1,6.933-7.375,25.2,25.2,0,0,1,3.048-2.3l.055-.033h2.68l-.454.4c-5.732,5.105-11.95,15.966-12.013,16.075Z" transform="translate(-85.238 -51.249)" fill="#f8aabb"/>
    </g>
    <g id="_13-Cancel" data-name="13-Cancel" transform="translate(33.181 54.186)">
      <ellipse id="Ellipse_169" data-name="Ellipse 169" cx="0.37" cy="0.37" rx="0.37" ry="0.37" transform="translate(0 0)" fill="#828282"/>
      <ellipse id="Ellipse_170" data-name="Ellipse 170" cx="0.37" cy="0.37" rx="0.37" ry="0.37" transform="translate(1.444 0)" fill="#828282"/>
      <ellipse id="Ellipse_171" data-name="Ellipse 171" cx="0.37" cy="0.37" rx="0.37" ry="0.37" transform="translate(2.887 0)" fill="#828282"/>
      <ellipse id="Ellipse_172" data-name="Ellipse 172" cx="0.37" cy="0.37" rx="0.37" ry="0.37" transform="translate(4.331 0)" fill="#828282"/>
      <ellipse id="Ellipse_173" data-name="Ellipse 173" cx="0.37" cy="0.37" rx="0.37" ry="0.37" transform="translate(5.775 0)" fill="#828282"/>
      <ellipse id="Ellipse_174" data-name="Ellipse 174" cx="0.37" cy="0.37" rx="0.37" ry="0.37" transform="translate(7.219 0)" fill="#828282"/>
      <ellipse id="Ellipse_175" data-name="Ellipse 175" cx="0.37" cy="0.37" rx="0.37" ry="0.37" transform="translate(8.662 0)" fill="#828282"/>
      <ellipse id="Ellipse_176" data-name="Ellipse 176" cx="0.37" cy="0.37" rx="0.37" ry="0.37" transform="translate(10.106 0)" fill="#828282"/>
      <ellipse id="Ellipse_177" data-name="Ellipse 177" cx="0.37" cy="0.37" rx="0.37" ry="0.37" transform="translate(11.55 0)" fill="#828282"/>
      <ellipse id="Ellipse_178" data-name="Ellipse 178" cx="0.37" cy="0.37" rx="0.37" ry="0.37" transform="translate(0 15.881)" fill="#828282"/>
      <ellipse id="Ellipse_179" data-name="Ellipse 179" cx="0.37" cy="0.37" rx="0.37" ry="0.37" transform="translate(1.444 15.881)" fill="#828282"/>
      <ellipse id="Ellipse_180" data-name="Ellipse 180" cx="0.37" cy="0.37" rx="0.37" ry="0.37" transform="translate(2.887 15.881)" fill="#828282"/>
      <ellipse id="Ellipse_181" data-name="Ellipse 181" cx="0.37" cy="0.37" rx="0.37" ry="0.37" transform="translate(4.331 15.881)" fill="#828282"/>
      <ellipse id="Ellipse_182" data-name="Ellipse 182" cx="0.37" cy="0.37" rx="0.37" ry="0.37" transform="translate(5.775 15.881)" fill="#828282"/>
      <ellipse id="Ellipse_183" data-name="Ellipse 183" cx="0.37" cy="0.37" rx="0.37" ry="0.37" transform="translate(7.219 15.881)" fill="#828282"/>
      <ellipse id="Ellipse_184" data-name="Ellipse 184" cx="0.37" cy="0.37" rx="0.37" ry="0.37" transform="translate(8.662 15.881)" fill="#828282"/>
      <ellipse id="Ellipse_185" data-name="Ellipse 185" cx="0.37" cy="0.37" rx="0.37" ry="0.37" transform="translate(10.106 15.881)" fill="#828282"/>
      <ellipse id="Ellipse_186" data-name="Ellipse 186" cx="0.37" cy="0.37" rx="0.37" ry="0.37" transform="translate(11.55 15.881)" fill="#828282"/>
      <ellipse id="Ellipse_187" data-name="Ellipse 187" cx="0.37" cy="0.37" rx="0.37" ry="0.37" transform="translate(12.994 15.881)" fill="#828282"/>
      <ellipse id="Ellipse_188" data-name="Ellipse 188" cx="0.37" cy="0.37" rx="0.37" ry="0.37" transform="translate(14.437 15.881)" fill="#828282"/>
      <ellipse id="Ellipse_189" data-name="Ellipse 189" cx="0.37" cy="0.37" rx="0.37" ry="0.37" transform="translate(15.881 15.881)" fill="#828282"/>
      <ellipse id="Ellipse_190" data-name="Ellipse 190" cx="0.37" cy="0.37" rx="0.37" ry="0.37" transform="translate(0 14.437)" fill="#828282"/>
      <ellipse id="Ellipse_191" data-name="Ellipse 191" cx="0.37" cy="0.37" rx="0.37" ry="0.37" transform="translate(0 12.994)" fill="#828282"/>
      <ellipse id="Ellipse_192" data-name="Ellipse 192" cx="0.37" cy="0.37" rx="0.37" ry="0.37" transform="translate(0 11.55)" fill="#828282"/>
      <ellipse id="Ellipse_193" data-name="Ellipse 193" cx="0.37" cy="0.37" rx="0.37" ry="0.37" transform="translate(0 10.106)" fill="#828282"/>
      <ellipse id="Ellipse_194" data-name="Ellipse 194" cx="0.37" cy="0.37" rx="0.37" ry="0.37" transform="translate(0 8.662)" fill="#828282"/>
      <ellipse id="Ellipse_195" data-name="Ellipse 195" cx="0.37" cy="0.37" rx="0.37" ry="0.37" transform="translate(0 7.219)" fill="#828282"/>
      <ellipse id="Ellipse_196" data-name="Ellipse 196" cx="0.37" cy="0.37" rx="0.37" ry="0.37" transform="translate(0 5.775)" fill="#828282"/>
      <ellipse id="Ellipse_197" data-name="Ellipse 197" cx="0.37" cy="0.37" rx="0.37" ry="0.37" transform="translate(0 4.331)" fill="#828282"/>
      <ellipse id="Ellipse_198" data-name="Ellipse 198" cx="0.37" cy="0.37" rx="0.37" ry="0.37" transform="translate(0 2.887)" fill="#828282"/>
      <ellipse id="Ellipse_199" data-name="Ellipse 199" cx="0.37" cy="0.37" rx="0.37" ry="0.37" transform="translate(0 1.444)" fill="#828282"/>
      <ellipse id="Ellipse_200" data-name="Ellipse 200" cx="0.37" cy="0.37" rx="0.37" ry="0.37" transform="translate(15.881 14.437)" fill="#828282"/>
      <ellipse id="Ellipse_201" data-name="Ellipse 201" cx="0.37" cy="0.37" rx="0.37" ry="0.37" transform="translate(15.881 12.994)" fill="#828282"/>
      <ellipse id="Ellipse_202" data-name="Ellipse 202" cx="0.37" cy="0.37" rx="0.37" ry="0.37" transform="translate(15.881 11.55)" fill="#828282"/>
      <ellipse id="Ellipse_203" data-name="Ellipse 203" cx="0.37" cy="0.37" rx="0.37" ry="0.37" transform="translate(15.881 10.106)" fill="#828282"/>
      <ellipse id="Ellipse_204" data-name="Ellipse 204" cx="0.37" cy="0.37" rx="0.37" ry="0.37" transform="translate(15.881 8.662)" fill="#828282"/>
      <ellipse id="Ellipse_205" data-name="Ellipse 205" cx="0.37" cy="0.37" rx="0.37" ry="0.37" transform="translate(15.881 7.219)" fill="#828282"/>
      <ellipse id="Ellipse_206" data-name="Ellipse 206" cx="0.37" cy="0.37" rx="0.37" ry="0.37" transform="translate(15.881 5.775)" fill="#828282"/>
      <ellipse id="Ellipse_207" data-name="Ellipse 207" cx="0.37" cy="0.37" rx="0.37" ry="0.37" transform="translate(15.881 4.331)" fill="#828282"/>
    </g>
  </g>
</svg>
