<svg id="check-mark" xmlns="http://www.w3.org/2000/svg" width="12.997" height="12.494" viewBox="0 0 12.997 12.494">
  <g id="_35-Checked" data-name="35-Checked" transform="translate(1.492)">
    <path id="Path_2931" data-name="Path 2931" d="M88.906,62l-.125-.221c-.941-1.654-3.444-5.169-3.469-5.2l-.073-.1.942-.96,2.694,1.942a31.586,31.586,0,0,1,4.291-4.711,15.637,15.637,0,0,1,1.887-1.471l.034-.021h1.659l-.281.258c-3.548,3.261-7.4,10.2-7.435,10.269Z" transform="translate(-85.238 -51.249)" fill="#f8aabb"/>
  </g>
  <g id="_13-Cancel" data-name="13-Cancel" transform="translate(0 1.876)">
    <ellipse id="Ellipse_169" data-name="Ellipse 169" cx="0.229" cy="0.236" rx="0.229" ry="0.236" transform="translate(0 0)" fill="#828282"/>
    <ellipse id="Ellipse_170" data-name="Ellipse 170" cx="0.229" cy="0.236" rx="0.229" ry="0.236" transform="translate(0.894 0)" fill="#828282"/>
    <ellipse id="Ellipse_171" data-name="Ellipse 171" cx="0.229" cy="0.236" rx="0.229" ry="0.236" transform="translate(1.787 0)" fill="#828282"/>
    <ellipse id="Ellipse_172" data-name="Ellipse 172" cx="0.229" cy="0.236" rx="0.229" ry="0.236" transform="translate(2.681 0)" fill="#828282"/>
    <ellipse id="Ellipse_173" data-name="Ellipse 173" cx="0.229" cy="0.236" rx="0.229" ry="0.236" transform="translate(3.574 0)" fill="#828282"/>
    <ellipse id="Ellipse_174" data-name="Ellipse 174" cx="0.229" cy="0.236" rx="0.229" ry="0.236" transform="translate(4.468 0)" fill="#828282"/>
    <ellipse id="Ellipse_175" data-name="Ellipse 175" cx="0.229" cy="0.236" rx="0.229" ry="0.236" transform="translate(5.362 0)" fill="#828282"/>
    <ellipse id="Ellipse_176" data-name="Ellipse 176" cx="0.229" cy="0.236" rx="0.229" ry="0.236" transform="translate(6.255 0)" fill="#828282"/>
    <ellipse id="Ellipse_177" data-name="Ellipse 177" cx="0.229" cy="0.236" rx="0.229" ry="0.236" transform="translate(7.149 0)" fill="#828282"/>
    <ellipse id="Ellipse_178" data-name="Ellipse 178" cx="0.229" cy="0.236" rx="0.229" ry="0.236" transform="translate(0 10.145)" fill="#828282"/>
    <ellipse id="Ellipse_179" data-name="Ellipse 179" cx="0.229" cy="0.236" rx="0.229" ry="0.236" transform="translate(0.894 10.145)" fill="#828282"/>
    <ellipse id="Ellipse_180" data-name="Ellipse 180" cx="0.229" cy="0.236" rx="0.229" ry="0.236" transform="translate(1.787 10.145)" fill="#828282"/>
    <ellipse id="Ellipse_181" data-name="Ellipse 181" cx="0.229" cy="0.236" rx="0.229" ry="0.236" transform="translate(2.681 10.145)" fill="#828282"/>
    <ellipse id="Ellipse_182" data-name="Ellipse 182" cx="0.229" cy="0.236" rx="0.229" ry="0.236" transform="translate(3.574 10.145)" fill="#828282"/>
    <ellipse id="Ellipse_183" data-name="Ellipse 183" cx="0.229" cy="0.236" rx="0.229" ry="0.236" transform="translate(4.468 10.145)" fill="#828282"/>
    <ellipse id="Ellipse_184" data-name="Ellipse 184" cx="0.229" cy="0.236" rx="0.229" ry="0.236" transform="translate(5.362 10.145)" fill="#828282"/>
    <ellipse id="Ellipse_185" data-name="Ellipse 185" cx="0.229" cy="0.236" rx="0.229" ry="0.236" transform="translate(6.255 10.145)" fill="#828282"/>
    <ellipse id="Ellipse_186" data-name="Ellipse 186" cx="0.229" cy="0.236" rx="0.229" ry="0.236" transform="translate(7.149 10.145)" fill="#828282"/>
    <ellipse id="Ellipse_187" data-name="Ellipse 187" cx="0.229" cy="0.236" rx="0.229" ry="0.236" transform="translate(8.042 10.145)" fill="#828282"/>
    <ellipse id="Ellipse_188" data-name="Ellipse 188" cx="0.229" cy="0.236" rx="0.229" ry="0.236" transform="translate(8.936 10.145)" fill="#828282"/>
    <ellipse id="Ellipse_189" data-name="Ellipse 189" cx="0.229" cy="0.236" rx="0.229" ry="0.236" transform="translate(9.83 10.145)" fill="#828282"/>
    <ellipse id="Ellipse_190" data-name="Ellipse 190" cx="0.229" cy="0.236" rx="0.229" ry="0.236" transform="translate(0 9.223)" fill="#828282"/>
    <ellipse id="Ellipse_191" data-name="Ellipse 191" cx="0.229" cy="0.236" rx="0.229" ry="0.236" transform="translate(0 8.3)" fill="#828282"/>
    <ellipse id="Ellipse_192" data-name="Ellipse 192" cx="0.229" cy="0.236" rx="0.229" ry="0.236" transform="translate(0 7.378)" fill="#828282"/>
    <ellipse id="Ellipse_193" data-name="Ellipse 193" cx="0.229" cy="0.236" rx="0.229" ry="0.236" transform="translate(0 6.456)" fill="#828282"/>
    <ellipse id="Ellipse_194" data-name="Ellipse 194" cx="0.229" cy="0.236" rx="0.229" ry="0.236" transform="translate(0 5.534)" fill="#828282"/>
    <ellipse id="Ellipse_195" data-name="Ellipse 195" cx="0.229" cy="0.236" rx="0.229" ry="0.236" transform="translate(0 4.611)" fill="#828282"/>
    <ellipse id="Ellipse_196" data-name="Ellipse 196" cx="0.229" cy="0.236" rx="0.229" ry="0.236" transform="translate(0 3.689)" fill="#828282"/>
    <ellipse id="Ellipse_197" data-name="Ellipse 197" cx="0.229" cy="0.236" rx="0.229" ry="0.236" transform="translate(0 2.767)" fill="#828282"/>
    <ellipse id="Ellipse_198" data-name="Ellipse 198" cx="0.229" cy="0.236" rx="0.229" ry="0.236" transform="translate(0 1.845)" fill="#828282"/>
    <ellipse id="Ellipse_199" data-name="Ellipse 199" cx="0.229" cy="0.236" rx="0.229" ry="0.236" transform="translate(0 0.922)" fill="#828282"/>
    <ellipse id="Ellipse_200" data-name="Ellipse 200" cx="0.229" cy="0.236" rx="0.229" ry="0.236" transform="translate(9.83 9.223)" fill="#828282"/>
    <ellipse id="Ellipse_201" data-name="Ellipse 201" cx="0.229" cy="0.236" rx="0.229" ry="0.236" transform="translate(9.83 8.3)" fill="#828282"/>
    <ellipse id="Ellipse_202" data-name="Ellipse 202" cx="0.229" cy="0.236" rx="0.229" ry="0.236" transform="translate(9.83 7.378)" fill="#828282"/>
    <ellipse id="Ellipse_203" data-name="Ellipse 203" cx="0.229" cy="0.236" rx="0.229" ry="0.236" transform="translate(9.83 6.456)" fill="#828282"/>
    <ellipse id="Ellipse_204" data-name="Ellipse 204" cx="0.229" cy="0.236" rx="0.229" ry="0.236" transform="translate(9.83 5.534)" fill="#828282"/>
    <ellipse id="Ellipse_205" data-name="Ellipse 205" cx="0.229" cy="0.236" rx="0.229" ry="0.236" transform="translate(9.83 4.611)" fill="#828282"/>
    <ellipse id="Ellipse_206" data-name="Ellipse 206" cx="0.229" cy="0.236" rx="0.229" ry="0.236" transform="translate(9.83 3.689)" fill="#828282"/>
    <ellipse id="Ellipse_207" data-name="Ellipse 207" cx="0.229" cy="0.236" rx="0.229" ry="0.236" transform="translate(9.83 2.767)" fill="#828282"/>
  </g>
</svg>
