<svg xmlns="http://www.w3.org/2000/svg" width="26.472" height="27.676" viewBox="0 0 26.472 27.676">
  <g id="top-right" transform="translate(0 3.552)">
    <path id="Path_2852" data-name="Path 2852" d="M12.71,1.25h-.061a46.25,46.25,0,0,0-5.894.213A5.939,5.939,0,0,0,3.045,3.14a6.568,6.568,0,0,0-1.593,3.9,53.9,53.9,0,0,0-.2,6.2v.129a53.9,53.9,0,0,0,.2,6.2,6.568,6.568,0,0,0,1.593,3.9,5.939,5.939,0,0,0,3.709,1.677,46.268,46.268,0,0,0,5.894.213h.122a46.268,46.268,0,0,0,5.894-.213,5.939,5.939,0,0,0,3.709-1.677,6.568,6.568,0,0,0,1.593-3.9,53.917,53.917,0,0,0,.2-6.2v-.064a.8.8,0,1,0-1.6,0,53.27,53.27,0,0,1-.188,6.044,4.886,4.886,0,0,1-1.139,2.938,4.41,4.41,0,0,1-2.792,1.2,45.711,45.711,0,0,1-5.742.2,45.711,45.711,0,0,1-5.742-.2,4.41,4.41,0,0,1-2.792-1.2,4.887,4.887,0,0,1-1.139-2.938,53.276,53.276,0,0,1-.188-6.044,53.276,53.276,0,0,1,.188-6.044A4.886,4.886,0,0,1,4.176,4.33a4.411,4.411,0,0,1,2.792-1.2,45.717,45.717,0,0,1,5.742-.2.821.821,0,0,0,.8-.842.821.821,0,0,0-.8-.842Z" transform="translate(-1.25 -1.25)" fill="#1b44c8"/>
    <path id="Path_2853" data-name="Path 2853" d="M12.519,12.531a.918.918,0,0,0,1.3,1.3l9.446-9.446V8.706a.918.918,0,1,0,1.835,0V2.168a.918.918,0,0,0-.918-.918H17.642a.918.918,0,1,0,0,1.835h4.323Z" transform="translate(1.374 -4.802)" fill="#1b44c8"/>
  </g>
</svg>
