<svg id="external-link_1_" data-name="external-link (1)" xmlns="http://www.w3.org/2000/svg" width="12.273" height="12.273" viewBox="0 0 12.273 12.273">
  <g id="Group_2549" data-name="Group 2549" transform="translate(0 0.722)">
    <path id="Path_3720" data-name="Path 3720" d="M14.107,15.551H5.444A1.448,1.448,0,0,1,4,14.107V5.444A1.448,1.448,0,0,1,5.444,4H8.332a.682.682,0,0,1,.722.722.682.682,0,0,1-.722.722H5.444v8.663h8.663V11.219a.722.722,0,0,1,1.444,0v2.888A1.448,1.448,0,0,1,14.107,15.551Z" transform="translate(-4 -4)" fill="#6879b2"/>
  </g>
  <g id="Group_2550" data-name="Group 2550" transform="translate(7.219)">
    <path id="Path_3721" data-name="Path 3721" d="M18.332,8.053a.682.682,0,0,1-.722-.722V4.444H14.722A.682.682,0,0,1,14,3.722.682.682,0,0,1,14.722,3h3.61a.682.682,0,0,1,.722.722v3.61A.682.682,0,0,1,18.332,8.053Z" transform="translate(-14 -3)" fill="#6879b2"/>
  </g>
  <g id="Group_2551" data-name="Group 2551" transform="translate(5.775)">
    <path id="Path_3722" data-name="Path 3722" d="M12.722,9.5a.655.655,0,0,1-.505-.217.7.7,0,0,1,0-1.011L17.27,3.217a.715.715,0,0,1,1.011,1.011L13.227,9.281A.655.655,0,0,1,12.722,9.5Z" transform="translate(-12 -3)" fill="#6879b2"/>
  </g>
</svg>
