<svg xmlns="http://www.w3.org/2000/svg" xmlns:xlink="http://www.w3.org/1999/xlink" width="17.003" height="17.001" viewBox="0 0 17.003 17.001">
  <defs>
    <filter id="Path_3863" x="0" y="0" width="17.003" height="17.001" filterUnits="userSpaceOnUse">
      <feOffset dy="1" input="SourceAlpha"/>
      <feGaussianBlur stdDeviation="1" result="blur"/>
      <feFlood flood-opacity="0.051"/>
      <feComposite operator="in" in2="blur"/>
      <feComposite in="SourceGraphic"/>
    </filter>
  </defs>
  <g id="external" transform="translate(73.999 214.002)">
    <g transform="matrix(1, 0, 0, 1, -74, -214)" filter="url(#Path_3863)">
      <path id="Path_3863-2" data-name="Path 3863" d="M21.381,2.079C21.048,1.941,21.242,2.028,16,2a1,1,0,0,0,0,2h2.586l-7.292,7.292a1,1,0,1,0,1.414,1.414L20,5.415V8a1,1,0,1,0,2,0c-.026-5.268.061-5.05-.077-5.381a1,1,0,0,0-.542-.54Z" transform="translate(-8 0)" fill="#c7c7c7"/>
    </g>
  </g>
</svg>
