<svg xmlns="http://www.w3.org/2000/svg" width="12.543" height="12.543" viewBox="0 0 12.543 12.543">
  <g id="external-link_1_" data-name="external-link (1)" transform="translate(-4 -3)">
    <g id="Group_2549" data-name="Group 2549" transform="translate(4 3.738)">
      <path id="Path_3720" data-name="Path 3720" d="M14.33,15.805H5.476A1.48,1.48,0,0,1,4,14.33V5.476A1.48,1.48,0,0,1,5.476,4H8.427a.7.7,0,0,1,.738.738.7.7,0,0,1-.738.738H5.476V14.33H14.33V11.378a.738.738,0,1,1,1.476,0V14.33A1.48,1.48,0,0,1,14.33,15.805Z" transform="translate(-4 -4)" fill="#fdafc0"/>
    </g>
    <g id="Group_2550" data-name="Group 2550" transform="translate(11.378 3)">
      <path id="Path_3721" data-name="Path 3721" d="M18.427,8.165a.7.7,0,0,1-.738-.738V4.476H14.738A.7.7,0,0,1,14,3.738.7.7,0,0,1,14.738,3h3.689a.7.7,0,0,1,.738.738V7.427A.7.7,0,0,1,18.427,8.165Z" transform="translate(-14 -3)" fill="#fdafc0"/>
    </g>
    <g id="Group_2551" data-name="Group 2551" transform="translate(9.903 3)">
      <path id="Path_3722" data-name="Path 3722" d="M12.738,9.64a.67.67,0,0,1-.516-.221.713.713,0,0,1,0-1.033l5.165-5.165a.73.73,0,0,1,1.033,1.033L13.254,9.419A.67.67,0,0,1,12.738,9.64Z" transform="translate(-12 -3)" fill="#fdafc0"/>
    </g>
  </g>
</svg>
