<svg xmlns="http://www.w3.org/2000/svg" xmlns:xlink="http://www.w3.org/1999/xlink" width="54.5" height="54.377" viewBox="0 0 54.5 58.377">
  <defs>
    <radialGradient id="radial-gradient" cx="0.5" cy="0.5" r="0.5" gradientUnits="objectBoundingBox">
      <stop offset="0" stop-color="#fff"/>
      <stop offset="0.661" stop-color="#fff"/>
      <stop offset="1" stop-color="#fff" stop-opacity="0"/>
    </radialGradient>
    <filter id="_2" x="0" y="0" width="25" height="36" filterUnits="userSpaceOnUse">
      <feOffset dy="3" input="SourceAlpha"/>
      <feGaussianBlur stdDeviation="2.5" result="blur"/>
      <feFlood flood-color="#fff"/>
      <feComposite operator="in" in2="blur"/>
      <feComposite in="SourceGraphic"/>
    </filter>
  </defs>
  <g id="グループ_5078" data-name="グループ 5078" transform="translate(2.5 -669.5)">
    <g id="グループ_1889" data-name="グループ 1889" transform="translate(2 670.877)">
      <g id="グループ_1568" data-name="グループ 1568" transform="translate(-27)">
        <g id="パス_2673" data-name="パス 2673">
          <path id="パス_2673-2" data-name="パス 2673" d="M25,0A25,25,0,1,1,0,25,25,25,0,0,1,25,0Z" transform="translate(27)" fill="#f9f9f9"/>
          <path id="パス_2673_-_アウトライン" data-name="パス 2673 - アウトライン" d="M25,2a23.007,23.007,0,0,0-8.952,44.193,23.006,23.006,0,0,0,17.9-42.387A22.854,22.854,0,0,0,25,2m0-2A25,25,0,1,1,0,25,25,25,0,0,1,25,0Z" transform="translate(27)" fill="#fedfe0"/>
        </g>
      </g>
    </g>
    <g id="leaf" transform="translate(17.08 686.701)">
      <path id="パス_2821" data-name="パス 2821" d="M11.453,19.325a15.74,15.74,0,0,0,7.428-2.065.678.678,0,0,0,.3-.325c2.142-4.944,2.148-8.91.017-11.789C14.483-1.224,1.171.208.6.274A.678.678,0,0,0,.217,1.445h0s1.26,1.582,2.15,9.331c.41,3.569,2.015,6.175,4.642,7.538A9.6,9.6,0,0,0,11.453,19.325Z" transform="translate(0 -0.092)" fill="#91dc5a"/>
      <g id="グループ_1939" data-name="グループ 1939" transform="translate(0 0.178)">
        <path id="パス_2822" data-name="パス 2822" d="M48.653,15.3a.678.678,0,0,1-.183-.709.633.633,0,0,1,.029-.058c3.673,1.558,14.267,7.236,18.76,16.611a15.713,15.713,0,0,1-7.37,2.036,9.6,9.6,0,0,1-4.443-1.011C52.818,30.8,51.214,28.2,50.8,24.629,49.913,16.88,48.65,15.3,48.653,15.3Z" transform="translate(-48.436 -14.123)" fill="#6dc82a"/>
        <path id="パス_2823" data-name="パス 2823" d="M23.318,25.078a.679.679,0,0,0,.648-.879C20.3,12.357,6.958,5.741,4.3,4.534A.679.679,0,0,0,3.741,5.77C6.3,6.934,19.179,13.313,22.67,24.6A.679.679,0,0,0,23.318,25.078Z" transform="translate(-3.343 -4.474)" fill="#6dc82a"/>
        <path id="パス_2824" data-name="パス 2824" d="M99.3,155.882a.68.68,0,0,1,.76-.586,11.312,11.312,0,0,0,2.827-.012A14.081,14.081,0,0,0,105,154.85c.421-.121.7-.224.777-.254a8.552,8.552,0,0,0,.09-2.418,10.287,10.287,0,0,0-.546-2.369.678.678,0,0,1,1.279-.454,11.645,11.645,0,0,1,.617,2.682,9.826,9.826,0,0,1-.194,3.27.679.679,0,0,1-.66.524l-.021,0c-.011,0-.02.012-.031.016s-.361.145-.935.31a15.383,15.383,0,0,1-2.327.476,13.6,13.6,0,0,1-1.668.105,11.685,11.685,0,0,1-1.5-.094A.678.678,0,0,1,99.3,155.882Z" transform="translate(-90.52 -143.039)" fill="#6dc82a"/>
        <path id="パス_2825" data-name="パス 2825" d="M243.987,79.758a8.475,8.475,0,0,0,1.424-.12,7.867,7.867,0,0,0,1.5-.406,4.794,4.794,0,0,0,.588-.264.685.685,0,0,0,.34-.5s.027-.186.041-.5a8.384,8.384,0,0,0-.037-1.2,7.825,7.825,0,0,0-.34-1.63.678.678,0,0,0-1.29.421,6.461,6.461,0,0,1,.28,1.347,7.143,7.143,0,0,1,.032,1.009v.013l-.1.039a6.637,6.637,0,0,1-1.244.336,7.251,7.251,0,0,1-1.885.068.678.678,0,1,0-.128,1.351Q243.579,79.759,243.987,79.758Z" transform="translate(-236.948 -71.819)" fill="#6dc82a"/>
      </g>
      <g id="グループ_1940" data-name="グループ 1940" transform="translate(5.608 6.303)">
        <path id="パス_2826" data-name="パス 2826" d="M253.761,156.343a4.789,4.789,0,0,1-.588.264,7.866,7.866,0,0,1-1.5.406,8.47,8.47,0,0,1-1.424.12c-.272,0-.545-.013-.817-.039a.678.678,0,0,1,.128-1.351,7.252,7.252,0,0,0,1.885-.068,6.637,6.637,0,0,0,1.244-.336l.055-.022q.576.447,1.152.924A.668.668,0,0,1,253.761,156.343Z" transform="translate(-248.816 -155.318)" fill="#91dc5a"/>
        <path id="パス_2827" data-name="パス 2827" d="M114.691,289.879a11.312,11.312,0,0,0,2.827-.012,14.08,14.08,0,0,0,2.119-.434c.412-.118.682-.218.769-.251q.467.558.91,1.142a.666.666,0,0,1-.316.089l-.021,0c-.011,0-.02.012-.031.016s-.361.145-.935.31a15.383,15.383,0,0,1-2.327.476,13.6,13.6,0,0,1-1.668.105,11.682,11.682,0,0,1-1.5-.094.678.678,0,1,1,.174-1.345Z" transform="translate(-110.759 -283.747)" fill="#91dc5a"/>
      </g>
    </g>
    <g id="グループ_1925" data-name="グループ 1925" transform="translate(-3 669)">
      <circle id="楕円形_136" data-name="楕円形 136" cx="9" cy="9" r="9" transform="translate(0 2)" fill="url(#radial-gradient)"/>
      <g transform="matrix(1, 0, 0, 1, -2.5, -4.5)" filter="url(#_2)">
        <text id="_2-2" data-name="2" transform="translate(7.5 19.5)" fill="#e99cad" font-size="14" font-family="Meiryo-Bold, Meiryo" font-weight="700" letter-spacing="0.1em"><tspan x="0" y="0">2</tspan></text>
      </g>
    </g>
  </g>
</svg>
