<svg xmlns="http://www.w3.org/2000/svg" xmlns:xlink="http://www.w3.org/1999/xlink" width="54.5" height="54.377" viewBox="0 0 54.5 54.377">
  <defs>
    <radialGradient id="radial-gradient" cx="0.5" cy="0.5" r="0.5" gradientUnits="objectBoundingBox">
      <stop offset="0" stop-color="#fff"/>
      <stop offset="0.661" stop-color="#fff"/>
      <stop offset="1" stop-color="#fff" stop-opacity="0"/>
    </radialGradient>
    <filter id="_1" x="0" y="0" width="25" height="36" filterUnits="userSpaceOnUse">
      <feOffset dy="3" input="SourceAlpha"/>
      <feGaussianBlur stdDeviation="2.5" result="blur"/>
      <feFlood flood-color="#fff"/>
      <feComposite operator="in" in2="blur"/>
      <feComposite in="SourceGraphic"/>
    </filter>
  </defs>
  <g id="グループ_5079" data-name="グループ 5079" transform="translate(2.5 -669.5)">
    <g id="グループ_1889" data-name="グループ 1889" transform="translate(2 669.877)">
      <g id="グループ_1568" data-name="グループ 1568" transform="translate(-27)">
        <g id="パス_2673" data-name="パス 2673">
          <path id="パス_2673-2" data-name="パス 2673" d="M25,0A25,25,0,1,1,0,25,25,25,0,0,1,25,0Z" transform="translate(27)" fill="#f9f9f9"/>
          <path id="パス_2673_-_アウトライン" data-name="パス 2673 - アウトライン" d="M25,2a23.007,23.007,0,0,0-8.952,44.193,23.006,23.006,0,0,0,17.9-42.387A22.854,22.854,0,0,0,25,2m0-2A25,25,0,1,1,0,25,25,25,0,0,1,25,0Z" transform="translate(27)" fill="#fedfe0"/>
        </g>
      </g>
      <g id="search_3_" data-name="search (3)" transform="translate(13.134 11.893)">
        <path id="パス_2805" data-name="パス 2805" d="M0,0H4.075V1.812H0Z" transform="translate(19.464 20.749) rotate(-135)" fill="#8ebac5"/>
        <circle id="楕円形_133" data-name="楕円形 133" cx="10.393" cy="10.393" r="10.393" transform="translate(0 0)" fill="#c0d6f2"/>
        <path id="パス_2806" data-name="パス 2806" d="M186.231,0q-.4,0-.8.03a10.393,10.393,0,0,1,0,20.725q.4.03.8.03a10.393,10.393,0,0,0,0-20.786Z" transform="translate(-175.839)" fill="#bec6ed"/>
        <circle id="楕円形_134" data-name="楕円形 134" cx="8.794" cy="8.794" r="8.794" transform="translate(1.599 1.599)" fill="#62dbfb"/>
        <path id="パス_2807" data-name="パス 2807" d="M186.231,30.905c-.27,0-.536.013-.8.037a8.794,8.794,0,0,1,0,17.515c.263.024.53.037.8.037a8.794,8.794,0,1,0,0-17.588Z" transform="translate(-175.839 -29.306)" fill="#60b7ff"/>
        <path id="パス_2808" data-name="パス 2808" d="M373.528,371.267l4.4,4.4a1.6,1.6,0,0,1-2.261,2.261l-4.4-4.4a.543.543,0,0,1,0-.768l1.493-1.493A.543.543,0,0,1,373.528,371.267Z" transform="translate(-351.909 -351.909)" fill="#fe646f"/>
        <path id="パス_2809" data-name="パス 2809" d="M400.6,375.668l-4.4-4.4a.543.543,0,0,0-.768,0l-.415.415L399,375.668a1.6,1.6,0,0,1-.331,2.515,1.6,1.6,0,0,0,1.93-2.515Z" transform="translate(-374.578 -351.909)" fill="#fe3d97"/>
        <path id="パス_2810" data-name="パス 2810" d="M0,0H1.814V3.2H0Z" transform="translate(21.577 23.842) rotate(-135)" fill="#fee45a"/>
        <path id="パス_2811" data-name="パス 2811" d="M0,0H1.131V1.814H0Z" transform="translate(21.751 21.094) rotate(-45)" fill="#ffd15b"/>
        <path id="パス_2812" data-name="パス 2812" d="M163.79,87.744l-1.079-2.15a.237.237,0,0,0-.212-.131h-1.821a1.106,1.106,0,0,1-1.106-1.106V76.84a1.106,1.106,0,0,1,1.106-1.106H174.3A1.106,1.106,0,0,1,175.4,76.84v7.518a1.106,1.106,0,0,1-1.106,1.106h-8.778a.237.237,0,0,0-.212.13l-1.083,2.15A.243.243,0,0,1,163.79,87.744Z" transform="translate(-151.316 -71.816)" fill="#f3eae6"/>
        <g id="グループ_1886" data-name="グループ 1886" transform="translate(21.38 3.918)">
          <path id="パス_2813" data-name="パス 2813" d="M415.96,76.84a1.106,1.106,0,0,0-1.106-1.106h-1.6a1.106,1.106,0,0,1,1.106,1.106v7.518a1.106,1.106,0,0,1-1.106,1.106h1.6a1.106,1.106,0,0,0,1.106-1.106Z" transform="translate(-413.255 -75.734)" fill="#d9e7ec"/>
        </g>
        <g id="グループ_1888" data-name="グループ 1888" transform="translate(10.108 5.12)">
          <g id="グループ_1887" data-name="グループ 1887" transform="translate(0 0.937)">
            <path id="パス_2814" data-name="パス 2814" d="M195.763,117.856h2.606a.388.388,0,0,0,0-.776h-2.606a.388.388,0,1,0,0,.776Z" transform="translate(-195.375 -117.08)" fill="#8ebac5"/>
            <path id="パス_2815" data-name="パス 2815" d="M201.911,150.308h-6.148a.388.388,0,1,0,0,.776h6.148a.388.388,0,0,0,0-.776Z" transform="translate(-195.375 -148.589)" fill="#8ebac5"/>
            <path id="パス_2816" data-name="パス 2816" d="M201.911,178.884h-6.148a.388.388,0,1,0,0,.776h6.148a.388.388,0,1,0,0-.776Z" transform="translate(-195.375 -175.687)" fill="#8ebac5"/>
            <path id="パス_2817" data-name="パス 2817" d="M201.911,207.46h-6.148a.388.388,0,1,0,0,.776h6.148a.388.388,0,0,0,0-.776Z" transform="translate(-195.375 -202.784)" fill="#8ebac5"/>
          </g>
          <path id="パス_2818" data-name="パス 2818" d="M348.706,100.9a2.087,2.087,0,0,0-4.169.153.388.388,0,1,0,.776,0,1.338,1.338,0,0,1,.013-.183,1.311,1.311,0,1,1,1.3,1.495.388.388,0,0,0-.388.388v1.31a.388.388,0,1,0,.776,0v-.959a2.1,2.1,0,0,0,1.14-.629A2.07,2.07,0,0,0,348.706,100.9Z" transform="translate(-336.82 -98.97)" fill="#fe646f"/>
          <path id="パス_2819" data-name="パス 2819" d="M377.771,213.442a.388.388,0,0,0-.388.388v.284a.388.388,0,1,0,.776,0v-.284A.388.388,0,0,0,377.771,213.442Z" transform="translate(-367.967 -207.52)" fill="#fe646f"/>
        </g>
      </g>
    </g>
    <g id="グループ_1925" data-name="グループ 1925" transform="translate(-3 669)">
      <circle id="楕円形_136" data-name="楕円形 136" cx="9" cy="9" r="9" transform="translate(0 2)" fill="url(#radial-gradient)"/>
      <g transform="matrix(1, 0, 0, 1, -2.5, -4.5)" filter="url(#_1)">
        <text id="_1-2" data-name="1" transform="translate(7.5 19.5)" fill="#e99cad" font-size="14" font-family="Meiryo-Bold, Meiryo" font-weight="700" letter-spacing="0.1em"><tspan x="0" y="0">1</tspan></text>
      </g>
    </g>
  </g>
</svg>
