<svg xmlns="http://www.w3.org/2000/svg" xmlns:xlink="http://www.w3.org/1999/xlink" width="53" height="51.133" viewBox="0 0 53 51.133">
  <defs>
    <radialGradient id="radial-gradient" cx="0.5" cy="0.5" r="0.5" gradientUnits="objectBoundingBox">
      <stop offset="0" stop-color="#fff"/>
      <stop offset="0.661" stop-color="#fff"/>
      <stop offset="1" stop-color="#fff" stop-opacity="0"/>
    </radialGradient>
  </defs>
  <g id="グループ_5082" data-name="グループ 5082" transform="translate(0 -857)">
    <path id="パス_2655" data-name="パス 2655" d="M25,0A25,25,0,1,1,0,25,25,25,0,0,1,25,0Z" transform="translate(3 858.133)" fill="#f9f9f9"/>
    <path id="パス_2655_-_アウトライン" data-name="パス 2655 - アウトライン" d="M25,2a23.007,23.007,0,0,0-8.952,44.193,23.006,23.006,0,0,0,17.9-42.387A22.854,22.854,0,0,0,25,2m0-2A25,25,0,1,1,0,25,25,25,0,0,1,25,0Z" transform="translate(3 858.133)" fill="#fedfe0"/>
    <g id="star_5_" data-name="star (5)" transform="translate(12 867.133)">
      <path id="パス_2656" data-name="パス 2656" d="M111.185,97.626a1.808,1.808,0,0,0-.52,1.6l.683,3.98a1.808,1.808,0,0,1-2.623,1.905l-3.574-1.879a1.8,1.8,0,0,0-1.66-.011l-.023.011-3.574,1.879a1.808,1.808,0,0,1-2.623-1.905l.682-3.98a1.808,1.808,0,0,0-.52-1.6l-2.891-2.818a1.807,1.807,0,0,1,1-3.083l4-.581a1.809,1.809,0,0,0,1.361-.989l1.787-3.621a1.808,1.808,0,0,1,3.242,0l1.787,3.621a1.808,1.808,0,0,0,1.361.989l4,.581a1.808,1.808,0,0,1,1,3.083Zm0,0" transform="translate(-88.12 -80.181)" fill="#ffc5d2"/>
      <path id="パス_2657" data-name="パス 2657" d="M251.848,0a.472.472,0,0,0-.472.472V2.745a.472.472,0,0,0,.945,0V.472A.472.472,0,0,0,251.848,0Zm0,0" transform="translate(-235.664)" fill="#ffb52d"/>
      <path id="パス_2658" data-name="パス 2658" d="M127.643,32.054a.472.472,0,0,0-.818.472l1.136,1.968a.472.472,0,0,0,.818-.472Zm0,0" transform="translate(-118.839 -29.829)" fill="#f29500"/>
      <path id="パス_2659" data-name="パス 2659" d="M37.427,122.878l-1.968-1.137a.472.472,0,0,0-.472.818l1.968,1.136a.472.472,0,1,0,.472-.818Zm0,0" transform="translate(-32.578 -114.073)" fill="#ffb52d"/>
      <path id="パス_2660" data-name="パス 2660" d="M3.218,245.98a.472.472,0,0,0-.472-.472H.472a.472.472,0,1,0,0,.945H2.745A.472.472,0,0,0,3.218,245.98Zm0,0" transform="translate(0 -230.163)" fill="#f29500"/>
      <path id="パス_2661" data-name="パス 2661" d="M34.021,352l-1.968,1.136a.472.472,0,0,0,.472.818l1.968-1.137a.472.472,0,0,0-.472-.818Zm0,0" transform="translate(-29.828 -329.942)" fill="#ffb52d"/>
      <path id="パス_2662" data-name="パス 2662" d="M123.523,430.7a.472.472,0,0,0-.645.173l-1.136,1.968a.472.472,0,0,0,.818.472l1.136-1.968A.472.472,0,0,0,123.523,430.7Zm0,0" transform="translate(-114.073 -403.722)" fill="#f29500"/>
      <path id="パス_2663" data-name="パス 2663" d="M245.98,460.52a.472.472,0,0,0-.472.472v2.273a.472.472,0,1,0,.945,0v-2.273A.473.473,0,0,0,245.98,460.52Zm0,0" transform="translate(-230.163 -431.737)" fill="#ffb52d"/>
      <path id="パス_2664" data-name="パス 2664" d="M352.821,433.809a.472.472,0,0,0-.818.472l1.136,1.968a.472.472,0,1,0,.818-.472Zm0,0" transform="translate(-329.943 -406.474)" fill="#f29500"/>
      <path id="パス_2665" data-name="パス 2665" d="M433.316,358.221l-1.968-1.136a.472.472,0,1,0-.472.818c2.038,1.151,1.98,1.2,2.2,1.2A.473.473,0,0,0,433.316,358.221Zm0,0" transform="translate(-403.724 -334.707)" fill="#ffb52d"/>
      <path id="パス_2666" data-name="パス 2666" d="M463.264,251.375h-2.273a.472.472,0,1,0,0,.945h2.273a.472.472,0,0,0,0-.945Zm0,0" transform="translate(-431.736 -235.664)" fill="#f29500"/>
      <path id="パス_2667" data-name="パス 2667" d="M434.051,128.842c.224,0,.167-.049,2.2-1.2a.472.472,0,0,0-.472-.818l-1.968,1.136A.473.473,0,0,0,434.051,128.842Zm0,0" transform="translate(-406.479 -118.838)" fill="#ffb52d"/>
      <path id="パス_2668" data-name="パス 2668" d="M358.859,34.813a.472.472,0,0,0-.646.173l-1.136,1.968a.472.472,0,0,0,.818.472l1.137-1.968A.472.472,0,0,0,358.859,34.813Zm0,0" transform="translate(-334.699 -32.578)" fill="#f29500"/>
      <path id="パス_2669" data-name="パス 2669" d="M196,97.625a1.807,1.807,0,0,0-.52,1.6l.683,3.98a1.808,1.808,0,0,1-2.623,1.905l-3.574-1.879a1.8,1.8,0,0,0-1.66-.011,12.2,12.2,0,0,1-3.362-12.27,1.807,1.807,0,0,0,.773-.8l1.787-3.621a1.808,1.808,0,0,1,3.242,0l1.787,3.621a1.808,1.808,0,0,0,1.361.989l4,.581a1.808,1.808,0,0,1,1,3.083Zm0,0" transform="translate(-172.939 -80.18)" fill="#ffd5d6"/>
    </g>
    <g id="グループ_1928" data-name="グループ 1928" transform="translate(0 857)">
      <circle id="楕円形_139" data-name="楕円形 139" cx="9" cy="9" r="9" transform="translate(0 1)" fill="url(#radial-gradient)"/>
      <text id="_5" data-name="5" transform="translate(4 14)" fill="#e99cad" font-size="13" font-family="Meiryo-Bold, Meiryo" font-weight="700" letter-spacing="0.1em"><tspan x="0" y="0">5</tspan></text>
    </g>
  </g>
</svg>
