<svg xmlns="http://www.w3.org/2000/svg" width="29.66" height="28.449" viewBox="0 0 29.66 28.449">
  <g id="first-aid-kit" transform="translate(0 0)">
    <path id="Path_2760" data-name="Path 2760" d="M136,119.285H148.82v-9.312H135.311V118.6A.686.686,0,0,0,136,119.285Z" transform="translate(-127.235 -104.016)" fill="#d9def7"/>
    <g id="Group_1738" data-name="Group 1738" transform="translate(9.901 0.537)">
      <path id="Path_2761" data-name="Path 2761" d="M277.719,23.139a.448.448,0,0,0,.448-.448V20.407a.364.364,0,0,1,.364-.364h1.506a.448.448,0,1,0,0-.9H278.53a1.26,1.26,0,0,0-1.259,1.259v2.284A.448.448,0,0,0,277.719,23.139Z" transform="translate(-277.271 -19.148)" fill="#685e68"/>
    </g>
    <g id="Group_1739" data-name="Group 1739" transform="translate(16.355 0.537)">
      <path id="Path_2762" data-name="Path 2762" d="M168.843,23.191a.448.448,0,0,0,.448-.448V20.407a1.26,1.26,0,0,0-1.259-1.259h-1.7a.448.448,0,1,0,0,.9h1.7a.364.364,0,0,1,.364.364v2.337A.448.448,0,0,0,168.843,23.191Z" transform="translate(-165.885 -19.148)" fill="#685e68"/>
    </g>
    <path id="Path_2763" data-name="Path 2763" d="M326.4,109.973V118.6a.686.686,0,0,0,.686.686h-1.509a.686.686,0,0,1-.686-.686v-8.625Z" transform="translate(-316.817 -104.016)" fill="#bec6ed"/>
    <path id="Path_2764" data-name="Path 2764" d="M201.671,12.114h3.737a.985.985,0,1,0,0-1.969h-3.737a.985.985,0,1,0,0,1.969Z" transform="translate(-188.708 -10.145)" fill="#7bacdf"/>
    <path id="Path_2765" data-name="Path 2765" d="M255.5,10.145h1.509a.985.985,0,1,0,0,1.969H255.5a.985.985,0,1,1,0-1.969Z" transform="translate(-242.541 -10.145)" fill="#5f99d7"/>
    <path id="Path_2766" data-name="Path 2766" d="M117.7,72.056h14.32a.686.686,0,0,0,.686-.686V69.028a.686.686,0,0,0-.686-.686H117.7a.686.686,0,0,0-.686.686v2.341A.686.686,0,0,0,117.7,72.056Z" transform="translate(-110.032 -64.869)" fill="#7bacdf"/>
    <path id="Path_2767" data-name="Path 2767" d="M343.874,68.341h1.509a.686.686,0,0,0-.686.686v2.341a.686.686,0,0,0,.686.686h-1.509a.686.686,0,0,1-.686-.686V69.027A.686.686,0,0,1,343.874,68.341Z" transform="translate(-336.204 -64.868)" fill="#5f99d7"/>
    <g id="Group_1740" data-name="Group 1740" transform="translate(12.806 9.297)">
      <path id="Path_2768" data-name="Path 2768" d="M214.887,167.115h.847v-.847a.329.329,0,0,1,.329-.329H217.1a.329.329,0,0,1,.329.329v.847h.847a.329.329,0,0,1,.329.329v1.041a.329.329,0,0,1-.329.329h-.847v.847a.329.329,0,0,1-.329.329h-1.041a.329.329,0,0,1-.329-.329v-.847h-.847a.329.329,0,0,1-.329-.329v-1.041A.329.329,0,0,1,214.887,167.115Z" transform="translate(-214.558 -165.939)" fill="#eb5569"/>
      <path id="Path_2769" data-name="Path 2769" d="M243.9,167.116v-.847a.329.329,0,0,1,.329-.329h.865a.306.306,0,0,0-.306.306v.87h-.845a.33.33,0,0,0-.33.33v1.039a.33.33,0,0,0,.33.33h.845v.87a.306.306,0,0,0,.306.306h-.865a.329.329,0,0,1-.329-.329v-.847h-.847a.329.329,0,0,1-.329-.329v-1.041a.329.329,0,0,1,.329-.329h.847Z" transform="translate(-242.729 -165.94)" fill="#e53950"/>
    </g>
    <path id="Path_2770" data-name="Path 2770" d="M21.826,417.774l.841-.4a.371.371,0,0,0,.176-.494L21.2,413.428l-1.511.719,1.642,3.452A.371.371,0,0,0,21.826,417.774Z" transform="translate(5.606 -389.361)" fill="#f8a5af"/>
    <path id="Path_2771" data-name="Path 2771" d="M25.531,419.476l1.643,3.455a.368.368,0,0,0,.49.174l-.749.356a.371.371,0,0,1-.494-.176l-1.642-3.452Z" transform="translate(0.518 -395.048)" fill="#f58a97"/>
    <path id="Path_2772" data-name="Path 2772" d="M73.443,417.774l-.841-.4a.371.371,0,0,1-.176-.494l1.642-3.452,1.511.719L73.937,417.6A.371.371,0,0,1,73.443,417.774Z" transform="translate(-50.239 -389.361)" fill="#f8a5af"/>
    <path id="Path_2773" data-name="Path 2773" d="M85.923,417.244a.363.363,0,0,0,.172.484l-.743-.353a.371.371,0,0,1-.176-.494l1.642-3.452.75.357Z" transform="translate(-62.99 -389.361)" fill="#f58a97"/>
    <g id="Group_1742" data-name="Group 1742" transform="translate(0 14.514)">
      <path id="Path_2774" data-name="Path 2774" d="M269.222,284.311l8,3.028.993-2.625-8-3.028a1.4,1.4,0,0,0-.993,2.625Z" transform="translate(-264.571 -279.909)" fill="#fed2a4"/>
      <path id="Path_2775" data-name="Path 2775" d="M273.711,282.51a1.4,1.4,0,0,1,1.707-.85,1.4,1.4,0,0,0,.907,1.3l6.883,2.6-.676,1.788-8-3.028A1.4,1.4,0,0,1,273.711,282.51Z" transform="translate(-269.876 -279.917)" fill="#ffbd86"/>
      <path id="Path_2776" data-name="Path 2776" d="M267.353,299.839l8,3.028,3.63-2.336-2.432-.214-8.209-3.1a1.4,1.4,0,0,0-.993,2.625Z" transform="translate(-265.228 -294.511)" fill="#ffe5c2"/>
      <path id="Path_2777" data-name="Path 2777" d="M304.117,299.841l8,3.027,1.436-.924-8.025-3.03a1.4,1.4,0,0,1-.824-1.786,1.4,1.4,0,0,0-.591,2.713Z" transform="translate(-301.992 -294.512)" fill="#fed2a4"/>
      <path id="Path_2778" data-name="Path 2778" d="M0,259.918a1.4,1.4,0,0,0,.907,1.311c1.848.7,6.962,2.5,9.447,3.372a7.545,7.545,0,0,0,2.863.417l2.946-.142a11,11,0,0,0,2.966-.557l2.632-.882,2.875.586.851-.25.857.6,2.713.554a.5.5,0,0,0,.606-.495V255.7a.5.5,0,0,0-.43-.5l-2.89-.432-.855.221-.855-.476-2.568-1.1a6.2,6.2,0,0,0-3.435.466L14.081,255.9a5.725,5.725,0,0,1-2.084.488l-2.357.1a1.282,1.282,0,0,0,.11,2.554l3.021.4h0l.013,0L8.28,260.824l-6.349-2.241-.019-.007a1.435,1.435,0,0,0-1.821.846A1.408,1.408,0,0,0,0,259.918Z" transform="translate(0 -253.345)" fill="#ffe5c2"/>
      <g id="Group_1741" data-name="Group 1741" transform="translate(0 3.111)">
        <path id="Path_2779" data-name="Path 2779" d="M239.756,307.393l4.066.927a.085.085,0,0,1-.02.167l-2.666-.03-3.022-.4a1.282,1.282,0,0,1-.11-2.554l.677-.029A1.283,1.283,0,0,0,239.756,307.393Z" transform="translate(-228.364 -305.48)" fill="#fed2a4"/>
        <path id="Path_2780" data-name="Path 2780" d="M264.425,340.552a1.435,1.435,0,0,1,1.737-.872,2.815,2.815,0,0,0-.187.7,1.4,1.4,0,0,0,.906,1.311c2.318.876,9,3.526,11.338,4.425l-.669.032a7.546,7.546,0,0,1-2.863-.417c-3.151-1.112-6.314-2.21-9.447-3.372a1.4,1.4,0,0,1-.815-1.807Z" transform="translate(-264.334 -337.587)" fill="#ffe5c2"/>
      </g>
    </g>
    <path id="Path_2781" data-name="Path 2781" d="M4.545,286.8l-.855-.476-.855.127L0,285.873l1.262-.531a1.206,1.206,0,0,1,.709-.07l1.719.351v-8.341l.855-.083.855.128v8.645l1.757.358a.717.717,0,0,0,.708-.261v.791a.5.5,0,0,1-.606.495L4.546,286.8Z" transform="translate(21.794 -261.261)" fill="#fed2a4"/>
    <path id="Path_2782" data-name="Path 2782" d="M55.64,272.918v9.508l1.71.349v-9.6Z" transform="translate(-31.01 -257.236)" fill="#f8a5af"/>
    <path id="Path_2783" data-name="Path 2783" d="M70.825,273.046V282.6l-.855-.175v-9.508Z" transform="translate(-45.34 -257.236)" fill="#f58a97"/>
    <path id="Path_2784" data-name="Path 2784" d="M254.01,356.758l.342.165a1.152,1.152,0,0,0,.848.06l5.032-1.595-1.729-.02.013,0Z" transform="translate(-245.73 -334.766)" fill="#fed2a4"/>
    <g id="Group_1745" data-name="Group 1745" transform="translate(2.478 6.844)">
      <g id="Group_1743" data-name="Group 1743" transform="translate(0.826)">
        <path id="Path_2785" data-name="Path 2785" d="M427.093,127.38a.448.448,0,0,0,.448-.448v-1.651a.448.448,0,1,0-.9,0v1.651A.448.448,0,0,0,427.093,127.38Z" transform="translate(-426.645 -124.834)" fill="#f8a5af"/>
      </g>
      <g id="Group_1744" data-name="Group 1744" transform="translate(0 0.826)">
        <path id="Path_2786" data-name="Path 2786" d="M413.26,139.562h1.651a.448.448,0,0,0,0-.9H413.26a.448.448,0,0,0,0,.9Z" transform="translate(-412.812 -138.667)" fill="#f8a5af"/>
      </g>
    </g>
    <ellipse id="Ellipse_125" data-name="Ellipse 125" cx="0.443" cy="0.443" rx="0.443" ry="0.443" transform="translate(4.885 12.41)" fill="#5f99d7"/>
  </g>
</svg>
