<svg xmlns="http://www.w3.org/2000/svg" xmlns:xlink="http://www.w3.org/1999/xlink" width="21" height="21" viewBox="0 0 21 21">
  <defs>
    <clipPath id="clip-path">
      <path id="path2295" d="M0-682.665H21v21H0Z" transform="translate(0 682.665)"/>
    </clipPath>
  </defs>
  <g id="g2289" transform="translate(0 682.665)">
    <g id="g2291" transform="translate(0 -682.665)">
      <g id="g2293" clip-path="url(#clip-path)">
        <g id="g2299" transform="translate(3.102 0.308)">
          <path id="path2301" d="M-427.4-642.28h-12.335a1.23,1.23,0,0,1-1.23-1.23v-17.924a1.23,1.23,0,0,1,1.23-1.23h8.511l5.054,5.054v14.1a1.23,1.23,0,0,1-1.23,1.23" transform="translate(440.968 662.665)" fill="#f7f6f7"/>
        </g>
        <g id="g2303" transform="translate(15.437 5.362)">
          <path id="path2305" d="M-38.769,0V14.1A1.23,1.23,0,0,1-40,15.33h1.23a1.23,1.23,0,0,0,1.23-1.23V0Z" transform="translate(40)" fill="#edebed"/>
        </g>
        <g id="g2307" transform="translate(5.003 2.153)">
          <path id="path2309" d="M-294.733-73.016h-8.944a.41.41,0,0,1-.41-.41v-1.5a.41.41,0,0,1,.41-.41h8.944a.41.41,0,0,1,.41.41v1.5a.41.41,0,0,1-.41.41" transform="translate(304.087 75.333)" fill="#d3ced4"/>
        </g>
        <g id="g2311" transform="translate(12.843 1.538)">
          <path id="path2313" d="M-159.255-159.255h-3.824a1.23,1.23,0,0,1-1.23-1.23v-3.824Z" transform="translate(164.309 164.309)" fill="#edebed"/>
        </g>
        <g id="g2315" transform="translate(12.843 0.308)">
          <path id="path2317" d="M-159.255-159.255h-3.824a1.23,1.23,0,0,1-1.23-1.23v-3.824Z" transform="translate(164.309 164.309)" fill="#c4bcc6"/>
        </g>
        <g id="g2319" transform="translate(5.003 6.552)">
          <path id="path2321" d="M-78.831-87.877h-2.215a.287.287,0,0,1-.287-.287v-2.215a.287.287,0,0,1,.287-.287h2.215a.287.287,0,0,1,.287.287v2.215a.287.287,0,0,1-.287.287" transform="translate(81.333 90.666)" fill="#b3e59f"/>
        </g>
        <g id="g2323" transform="translate(6.274 6.552)">
          <path id="path2325" d="M-38.769,0H-40a.287.287,0,0,1,.287.287V2.5A.287.287,0,0,1-40,2.789h1.23a.287.287,0,0,0,.287-.287V.287A.287.287,0,0,0-38.769,0" transform="translate(40)" fill="#95d6a4"/>
        </g>
        <g id="g2327" transform="translate(5.003 11.187)">
          <path id="path2329" d="M-78.831-87.877h-2.215a.287.287,0,0,1-.287-.287v-2.215a.287.287,0,0,1,.287-.287h2.215a.287.287,0,0,1,.287.287v2.215a.287.287,0,0,1-.287.287" transform="translate(81.333 90.666)" fill="#ff8086"/>
        </g>
        <g id="g2331" transform="translate(6.274 11.187)">
          <path id="path2333" d="M-38.769,0H-40a.287.287,0,0,1,.287.287V2.5A.287.287,0,0,1-40,2.789h1.23a.287.287,0,0,0,.287-.287V.287A.287.287,0,0,0-38.769,0" transform="translate(40)" fill="#e5646e"/>
        </g>
        <g id="g2335" transform="translate(5.003 15.822)">
          <path id="path2337" d="M-78.831-87.877h-2.215a.287.287,0,0,1-.287-.287v-2.215a.287.287,0,0,1,.287-.287h2.215a.287.287,0,0,1,.287.287v2.215a.287.287,0,0,1-.287.287" transform="translate(81.333 90.666)" fill="#ffe07d"/>
        </g>
        <g id="g2339" transform="translate(6.274 15.822)">
          <path id="path2341" d="M-38.769,0H-40a.287.287,0,0,1,.287.287V2.5A.287.287,0,0,1-40,2.789h1.23a.287.287,0,0,0,.287-.287V.287A.287.287,0,0,0-38.769,0" transform="translate(40)" fill="#ffd064"/>
        </g>
        <g id="g2343" transform="translate(3.102 0.308)">
          <path id="path2345" d="M-467.4-395.551h-12.335a1.582,1.582,0,0,1-1.58-1.58v-17.924a1.582,1.582,0,0,1,1.58-1.58h8.511a.35.35,0,0,1,.247.1l5.054,5.054a.35.35,0,0,1,.1.247v6.316a.35.35,0,0,1-.35.35.35.35,0,0,1-.35-.35v-6.171l-4.849-4.849h-8.366a.881.881,0,0,0-.88.88v17.924a.881.881,0,0,0,.88.88H-467.4a.881.881,0,0,0,.88-.88v-6.349a.35.35,0,0,1,.35-.35.35.35,0,0,1,.35.35v6.349A1.582,1.582,0,0,1-467.4-395.551Z" transform="translate(480.968 416.286)"/>
        </g>
        <g id="g2347" transform="translate(5.003 2.153)">
          <path id="path2349" d="M-248.413,2.667h-6.056a.761.761,0,0,1-.76-.76V.41a.761.761,0,0,1,.76-.76h7.43a.35.35,0,0,1,.35.35.35.35,0,0,1-.35.35h-7.43a.06.06,0,0,0-.06.06v1.5a.06.06,0,0,0,.06.06h6.056a.35.35,0,0,1,.35.35A.35.35,0,0,1-248.413,2.667Z" transform="translate(254.879)"/>
        </g>
        <g id="g2351" transform="translate(12.843 0.308)">
          <path id="path2353" d="M-159.255-158.9h-3.824a1.582,1.582,0,0,1-1.58-1.58v-3.824a.35.35,0,0,1,.35-.35.35.35,0,0,1,.35.35v3.824a.881.881,0,0,0,.88.88h3.824a.35.35,0,0,1,.35.35A.35.35,0,0,1-159.255-158.9Z" transform="translate(164.309 164.309)"/>
        </g>
        <g id="g2355" transform="translate(5.003 6.552)">
          <path id="path2357" d="M-78.831-87.527h-2.215a.638.638,0,0,1-.637-.637v-2.215a.638.638,0,0,1,.637-.637h2.215a.638.638,0,0,1,.637.637v2.215A.638.638,0,0,1-78.831-87.527Zm-2.152-.7h2.089v-2.089h-2.089Z" transform="translate(81.333 90.666)"/>
        </g>
        <g id="g2359" transform="translate(5.003 11.187)">
          <path id="path2361" d="M-78.831-87.527h-2.215a.638.638,0,0,1-.637-.637v-2.215a.638.638,0,0,1,.637-.637h2.215a.638.638,0,0,1,.637.637v2.215A.638.638,0,0,1-78.831-87.527Zm-2.152-.7h2.089v-2.089h-2.089Z" transform="translate(81.333 90.666)"/>
        </g>
        <g id="g2363" transform="translate(5.003 15.822)">
          <path id="path2365" d="M-78.831-87.527h-2.215a.638.638,0,0,1-.637-.637v-2.215a.638.638,0,0,1,.637-.637h2.215a.638.638,0,0,1,.637.637v2.215A.638.638,0,0,1-78.831-87.527Zm-2.152-.7h2.089v-2.089h-2.089Z" transform="translate(81.333 90.666)"/>
        </g>
        <g id="g2367" transform="translate(9.637 6.552)">
          <path id="path2369" d="M6.2.35H0A.35.35,0,0,1-.35,0,.35.35,0,0,1,0-.35H6.2a.35.35,0,0,1,.35.35A.35.35,0,0,1,6.2.35Z"/>
        </g>
        <g id="g2371" transform="translate(9.637 7.783)">
          <path id="path2373" d="M6.2.35H0A.35.35,0,0,1-.35,0,.35.35,0,0,1,0-.35H6.2a.35.35,0,0,1,.35.35A.35.35,0,0,1,6.2.35Z"/>
        </g>
        <g id="g2375" transform="translate(9.637 11.187)">
          <path id="path2377" d="M6.2.35H0A.35.35,0,0,1-.35,0,.35.35,0,0,1,0-.35H6.2a.35.35,0,0,1,.35.35A.35.35,0,0,1,6.2.35Z"/>
        </g>
        <g id="g2379" transform="translate(9.637 12.417)">
          <path id="path2381" d="M6.2.35H0A.35.35,0,0,1-.35,0,.35.35,0,0,1,0-.35H6.2a.35.35,0,0,1,.35.35A.35.35,0,0,1,6.2.35Z"/>
        </g>
        <g id="g2383" transform="translate(9.637 15.822)">
          <path id="path2385" d="M6.2.35H0A.35.35,0,0,1-.35,0,.35.35,0,0,1,0-.35H6.2a.35.35,0,0,1,.35.35A.35.35,0,0,1,6.2.35Z"/>
        </g>
        <g id="g2387" transform="translate(9.637 17.052)">
          <path id="path2389" d="M6.2.35H0A.35.35,0,0,1-.35,0,.35.35,0,0,1,0-.35H6.2a.35.35,0,0,1,.35.35A.35.35,0,0,1,6.2.35Z"/>
        </g>
      </g>
    </g>
  </g>
</svg>
