<svg xmlns="http://www.w3.org/2000/svg" xmlns:xlink="http://www.w3.org/1999/xlink" width="42.56" height="26.467" viewBox="0 0 42.56 26.467">
  <defs>
    <clipPath id="clip-path">
      <path id="path3318" d="M0-682.665H42.56V-656.2H0Z" transform="translate(0 682.665)"/>
    </clipPath>
  </defs>
  <g id="g3312" transform="translate(100 809.662)">
    <g id="g3314" transform="translate(-100 -809.662)">
      <g id="g3316" transform="translate(0 0)" clip-path="url(#clip-path)">
        <g id="g3372" transform="translate(19.211 15.963)">
          <path id="path3374" d="M-61.12-30.559a1.505,1.505,0,0,1-1.505,1.505,1.505,1.505,0,0,1-1.505-1.505,1.505,1.505,0,0,1,1.505-1.505,1.505,1.505,0,0,1,1.505,1.505" transform="translate(64.131 32.064)" fill="#fbbd80"/>
        </g>
        <g id="g3376" transform="translate(16.703 20.479)">
          <path id="path3378" d="M-122.237,0h-4.014a2.007,2.007,0,0,0-2.007,2.007V4.014c0,.831,2.007,1.505,2.007,1.505h4.515a1.505,1.505,0,0,0,1.505-1.505V2.007A2.007,2.007,0,0,0-122.237,0" transform="translate(128.257)" fill="#dbd8db"/>
        </g>
        <g id="g3380" transform="translate(16.703 20.479)">
          <path id="path3382" d="M-81.491,0H-83.5a2.007,2.007,0,0,0-2.007,2.007V4.014A1.505,1.505,0,0,0-84,5.519h.5V2.007A2.007,2.007,0,0,1-81.491,0" transform="translate(85.505)" fill="#c9c5c9"/>
        </g>
        <g id="g3424" transform="translate(18.742 15.494)">
          <path id="path3426" d="M-40.091-19.061a1.037,1.037,0,0,1,1.036,1.036,1.037,1.037,0,0,1-1.036,1.036,1.037,1.037,0,0,1-1.036-1.036,1.037,1.037,0,0,1,1.036-1.036m0,3.01a1.977,1.977,0,0,0,1.975-1.975A1.977,1.977,0,0,0-40.091-20a1.977,1.977,0,0,0-1.975,1.975,1.977,1.977,0,0,0,1.975,1.975" transform="translate(42.065 20)"/>
        </g>
        <g id="g3428" transform="translate(16.233 20.009)">
          <path id="path3430" d="M0-50.277v2.509a.469.469,0,0,0,.469.469.469.469,0,0,0,.469-.469v-2.509a1.539,1.539,0,0,1,1.537-1.537H6.49a1.539,1.539,0,0,1,1.537,1.537v2.509A.469.469,0,0,0,8.5-47.3a.469.469,0,0,0,.469-.469v-2.509A2.479,2.479,0,0,0,6.49-52.753H2.476A2.479,2.479,0,0,0,0-50.277" transform="translate(0 52.753)"/>
        </g>
        <g id="g3432" transform="translate(18.24 22.518)">
          <path id="path3434" d="M-9.531,0A.469.469,0,0,0-10,.469V3.48a.469.469,0,0,0,.469.469.469.469,0,0,0,.469-.469V.469A.469.469,0,0,0-9.531,0" transform="translate(10)"/>
        </g>
        <g id="g3436" transform="translate(22.254 22.518)">
          <path id="path3438" d="M-9.531,0A.469.469,0,0,0-10,.469V3.48a.469.469,0,0,0,.469.469.469.469,0,0,0,.469-.469V.469A.469.469,0,0,0-9.531,0" transform="translate(10)"/>
        </g>
        <g id="Group_4268" data-name="Group 4268" transform="translate(27.655 12.451)">
          <g id="g3330" transform="translate(0.469 0.469)">
            <path id="path3332" d="M-244.474-122.237a6.02,6.02,0,0,1-6.021,6.021,6.021,6.021,0,0,1-6.021-6.021,6.021,6.021,0,0,1,6.021-6.021,6.02,6.02,0,0,1,6.021,6.021" transform="translate(256.515 128.257)" fill="#ffe077"/>
          </g>
          <g id="g3352" transform="translate(3.48 7.353)">
            <path id="path3354" d="M-40.745-20.373a1,1,0,0,1-1,1,1,1,0,0,1-1-1,1,1,0,0,1,1-1,1,1,0,0,1,1,1" transform="translate(42.752 21.376)" fill="#ff744d"/>
          </g>
          <g id="g3356" transform="translate(7.493 6.851)">
            <path id="path3358" d="M-40.745-20.373a1,1,0,0,1-1,1,1,1,0,0,1-1-1,1,1,0,0,1,1-1,1,1,0,0,1,1,1" transform="translate(42.752 21.376)" fill="#ff744d"/>
          </g>
          <g id="g3388" transform="translate(0.469 1.764)">
            <path id="path3390" d="M-142.61-197.815a6.02,6.02,0,0,1-6.021-6.021,5.989,5.989,0,0,1,1.295-3.722,6,6,0,0,0-2.3,4.726,6.021,6.021,0,0,0,6.021,6.021,6,6,0,0,0,4.726-2.3,5.989,5.989,0,0,1-3.722,1.295" transform="translate(149.634 207.558)" fill="#ffd05b"/>
          </g>
          <g id="g3440" transform="translate(0 0)">
            <path id="path3442" d="M-131.767-19.061a5.557,5.557,0,0,1,5.551,5.551,5.557,5.557,0,0,1-5.551,5.551,5.557,5.557,0,0,1-5.551-5.551,5.557,5.557,0,0,1,5.551-5.551m0,12.041a6.5,6.5,0,0,0,6.49-6.49,6.5,6.5,0,0,0-6.49-6.49,6.5,6.5,0,0,0-6.49,6.49,6.5,6.5,0,0,0,6.49,6.49" transform="translate(138.257 20)"/>
          </g>
          <g id="g3444" transform="translate(3.01 3.01)">
            <path id="path3446" d="M-29.9-97.7a.535.535,0,0,1,.534.534.535.535,0,0,1-.534.534.535.535,0,0,1-.534-.534A.535.535,0,0,1-29.9-97.7m4.014.566a.535.535,0,0,1-.534-.534.535.535,0,0,1,.534-.534.535.535,0,0,1,.534.534.535.535,0,0,1-.534.534M-29.9-95.695a1.474,1.474,0,0,0,1.473-1.473v-3.23a.533.533,0,0,1,.4-.518l2.63-.658a.03.03,0,0,1,.028.006.03.03,0,0,1,.012.026v2.5a1.466,1.466,0,0,0-.534-.1,1.475,1.475,0,0,0-1.473,1.473A1.474,1.474,0,0,0-25.889-96.2a1.475,1.475,0,0,0,1.473-1.473v-3.873a.965.965,0,0,0-.374-.766.965.965,0,0,0-.833-.177l-2.63.658a1.471,1.471,0,0,0-1.116,1.429v1.858a1.466,1.466,0,0,0-.534-.1,1.474,1.474,0,0,0-1.473,1.473A1.474,1.474,0,0,0-29.9-95.695" transform="translate(31.376 102.514)"/>
          </g>
        </g>
        <g id="Group_4267" data-name="Group 4267" transform="translate(14.227 0)">
          <g id="g3322" transform="translate(0.469 0.469)">
            <path id="path3324" d="M-244.474-122.237a6.02,6.02,0,0,1-6.021,6.021,6.021,6.021,0,0,1-6.021-6.021,6.021,6.021,0,0,1,6.021-6.021,6.02,6.02,0,0,1,6.021,6.021" transform="translate(256.515 128.257)" fill="#fbf4db"/>
          </g>
          <g id="g3326" transform="translate(6.499 3.315)">
            <path id="path3328" d="M-13.291-5.067a1.489,1.489,0,0,0-.652,1.058.362.362,0,0,0,.268.391,1.489,1.489,0,0,0,1.219-.2A1.489,1.489,0,0,0-11.8-4.873a.362.362,0,0,0-.268-.391,1.489,1.489,0,0,0-1.219.2" transform="translate(13.946 5.317)" fill="#8ceea1"/>
          </g>
          <g id="g3348" transform="translate(3.982 4.985)">
            <path id="path3350" d="M-32.278-.106a1.57,1.57,0,0,0-1.589,1.6c.029,1.363.653,2.912,2.006,2.912a1.884,1.884,0,0,0,.307-.026,1.187,1.187,0,0,1,.389,0,1.886,1.886,0,0,0,.307.026c1.385,0,2.007-1.625,2.007-3.01,0-1.682-1.656-1.5-3.427-1.5" transform="translate(33.868 0.111)" fill="#ff7e92"/>
          </g>
          <g id="g3384" transform="translate(0.469 1.764)">
            <path id="path3386" d="M-142.61-197.815a6.02,6.02,0,0,1-6.021-6.021,5.989,5.989,0,0,1,1.295-3.722,6,6,0,0,0-2.3,4.726,6.021,6.021,0,0,0,6.021,6.021,6,6,0,0,0,4.726-2.3,5.989,5.989,0,0,1-3.722,1.295" transform="translate(149.634 207.558)" fill="#f8ebcc"/>
          </g>
          <g id="g3408" transform="translate(3.982 4.986)">
            <path id="path3410" d="M-30.566-32.54a1.566,1.566,0,0,1,1.539-1.593c-.452-.018-.948,0-1.454-.005a1.57,1.57,0,0,0-1.589,1.6c.029,1.363.653,2.912,2.006,2.912a1.884,1.884,0,0,0,.307-.026,1.191,1.191,0,0,1,.389,0,1.884,1.884,0,0,0,.307.026,1.67,1.67,0,0,0,.252-.019c-1.18-.178-1.729-1.617-1.756-2.893" transform="translate(32.072 34.143)" fill="#ff5f7a"/>
          </g>
          <g id="g3412" transform="translate(0)">
            <path id="path3414" d="M-131.767-263.535a6.5,6.5,0,0,0,6.49-6.49,6.445,6.445,0,0,0-1.218-3.786.469.469,0,0,0-.655-.107.469.469,0,0,0-.107.655,5.512,5.512,0,0,1,1.042,3.238,5.557,5.557,0,0,1-5.551,5.551,5.557,5.557,0,0,1-5.551-5.551,5.557,5.557,0,0,1,5.551-5.551,5.525,5.525,0,0,1,3.069.925.469.469,0,0,0,.651-.131.469.469,0,0,0-.131-.651,6.461,6.461,0,0,0-3.589-1.082,6.5,6.5,0,0,0-6.49,6.49,6.5,6.5,0,0,0,6.49,6.49" transform="translate(138.257 276.515)"/>
          </g>
          <g id="g3452" transform="translate(3.513 2.766)">
            <path id="path3454" d="M-79.217-22.494a1.015,1.015,0,0,1,.744-.156,1.014,1.014,0,0,1-.43.627,1.014,1.014,0,0,1-.744.156,1.013,1.013,0,0,1,.43-.627m-.423,5.157a1.416,1.416,0,0,1-.231-.02,1.664,1.664,0,0,0-.271-.022,1.665,1.665,0,0,0-.271.022,1.414,1.414,0,0,1-.231.02c-1.089,0-1.516-1.467-1.537-2.452a1.077,1.077,0,0,1,.309-.783,1.123,1.123,0,0,1,.81-.336h0l.487,0c.97-.008,1.887-.016,2.255.348a.925.925,0,0,1,.216.685c0,1.864-.919,2.541-1.537,2.541m-1.421-4.51a2.055,2.055,0,0,0-1.48.617,2.009,2.009,0,0,0-.577,1.46,4.58,4.58,0,0,0,.571,2.2,2.185,2.185,0,0,0,1.9,1.176,2.36,2.36,0,0,0,.384-.033.716.716,0,0,1,.235,0,2.361,2.361,0,0,0,.384.033c1.626,0,2.476-1.75,2.476-3.48a1.826,1.826,0,0,0-.494-1.352,1.671,1.671,0,0,0-.4-.289,1.988,1.988,0,0,0,.542-1.488.469.469,0,0,0-.262-.393,1.979,1.979,0,0,0-1.963.124,1.933,1.933,0,0,0-.415.375l-.045-.136a.469.469,0,0,0-.594-.3.469.469,0,0,0-.3.594l.3.891h-.27" transform="translate(83.119 23.602)"/>
          </g>
        </g>
        <g id="Group_4269" data-name="Group 4269" transform="translate(0 12.484)">
          <g id="g3340" transform="translate(0.469 0.469)">
            <path id="path3342" d="M-244.474-122.237a6.02,6.02,0,0,1-6.021,6.021,6.021,6.021,0,0,1-6.021-6.021,6.021,6.021,0,0,1,6.021-6.021,6.02,6.02,0,0,1,6.021,6.021" transform="translate(256.515 128.257)" fill="#8ceea1"/>
          </g>
          <g id="g3392" transform="translate(0.469 1.764)">
            <path id="path3394" d="M-142.61-197.815a6.02,6.02,0,0,1-6.021-6.021,5.989,5.989,0,0,1,1.295-3.722,6,6,0,0,0-2.3,4.726,6.021,6.021,0,0,0,6.021,6.021,6.005,6.005,0,0,0,4.726-2.3,5.989,5.989,0,0,1-3.722,1.295" transform="translate(149.634 207.558)" fill="#4ce1a1"/>
          </g>
          <g id="g3400" transform="translate(6.49 4.483)">
            <path id="path3402" d="M-20.373-81.491h2.007v-4.014h-2.007a1,1,0,0,0-1,1v4.014a1,1,0,0,1,1-1" transform="translate(21.376 85.505)" fill="#fff"/>
          </g>
          <g id="g3404" transform="translate(3.48 4.483)">
            <path id="path3406" d="M-40.745-81.491h-2.007v-4.014h2.007a1,1,0,0,1,1,1v4.014a1,1,0,0,0-1-1" transform="translate(42.752 85.505)" fill="#f8ebcc"/>
          </g>
          <g id="g3416" transform="translate(0)">
            <path id="path3418" d="M-131.767-244.474a5.557,5.557,0,0,1-5.551-5.551,5.557,5.557,0,0,1,5.551-5.551,5.557,5.557,0,0,1,5.551,5.551,5.557,5.557,0,0,1-5.551,5.551m0-12.041a6.5,6.5,0,0,0-6.49,6.49,6.5,6.5,0,0,0,6.49,6.49,6.5,6.5,0,0,0,6.49-6.49,6.5,6.5,0,0,0-6.49-6.49" transform="translate(138.257 256.515)"/>
          </g>
          <g id="g3456" transform="translate(3.01 4.014)">
            <path id="path3458" d="M-122.236-81.491h-1.537a1.465,1.465,0,0,0-.534.1v-2.641a.535.535,0,0,1,.534-.534h1.537Zm-3.544,0h-1.537v-3.075h1.537a.535.535,0,0,1,.534.534v2.641a1.464,1.464,0,0,0-.534-.1m4.014-4.014h-2.007a1.467,1.467,0,0,0-1,.4,1.467,1.467,0,0,0-1-.4h-2.007a.469.469,0,0,0-.469.469v4.014a.469.469,0,0,0,.469.469h2.007a.535.535,0,0,1,.534.534.469.469,0,0,0,.469.469.469.469,0,0,0,.469-.469.535.535,0,0,1,.534-.534h2.007a.469.469,0,0,0,.469-.469v-4.014a.469.469,0,0,0-.469-.469" transform="translate(128.257 85.505)"/>
          </g>
        </g>
      </g>
    </g>
  </g>
</svg>
