<svg xmlns="http://www.w3.org/2000/svg" width="32.066" height="31.564" viewBox="0 0 32.066 31.564">
  <g id="healthcare_2_" data-name="healthcare (2)" transform="translate(0 -4)">
    <g id="Group_3042" data-name="Group 3042" transform="translate(4.035 9.506)">
      <path id="Path_3812" data-name="Path 3812" d="M76.857,115.937c.386.316.577.487.771.495s.386-.179.771-.495l10.166-10.41a8.718,8.718,0,0,0,0-11.7C85.833,90.9,81.347,91.55,78.5,94.35l-.535.526c-.31.3-.369.3-.686-.007l-.526-.519c-2.841-2.8-7.333-3.45-10.065-.526a8.718,8.718,0,0,0,0,11.7l1.219,1.25Z" transform="translate(-64.433 -91.918)" fill="#fd8087" fill-rule="evenodd"/>
    </g>
    <g id="Group_3043" data-name="Group 3043" transform="translate(13.502 9.507)">
      <path id="Path_3813" data-name="Path 3813" d="M221.44,93.341a12.891,12.891,0,0,1,2.311,7.348c0,.3-.011.587-.031.875a12.913,12.913,0,0,1-2.328,6.541,14.017,14.017,0,0,1-2.037,2.318,14.642,14.642,0,0,1-2.723,1.966q-.509.285-1.046.535l2.957,3.027c.386.316.577.487.771.495s.386-.179.771-.495l3.11-3.186,7.056-7.224a8.746,8.746,0,0,0,1.5-9.443,8.258,8.258,0,0,0-1.5-2.259A6.073,6.073,0,0,0,228.9,92.75a6.477,6.477,0,0,0-5.222-.487A8.4,8.4,0,0,0,221.44,93.341Z" transform="translate(-215.587 -91.934)" fill="#fe636e" fill-rule="evenodd"/>
    </g>
    <g id="Group_3044" data-name="Group 3044" transform="translate(8.659 15.702)">
      <path id="Path_3814" data-name="Path 3814" d="M149.826,197.129h-.009a.484.484,0,0,1-.416-.251l-2.5-4.56-1.862,3.256a.484.484,0,0,1-.83.017l-1.157-1.839-.873,1.451a.484.484,0,0,1-.415.234h-3.024a.484.484,0,0,1,0-.968h2.75l1.137-1.89a.484.484,0,0,1,.41-.234h0a.484.484,0,0,1,.41.226l1.146,1.822,1.891-3.306a.484.484,0,0,1,.42-.244h0a.484.484,0,0,1,.42.251l2.51,4.576,1.266-2.126a.484.484,0,0,1,.416-.236h4.033a.484.484,0,0,1,0,.968H151.8l-1.558,2.617A.484.484,0,0,1,149.826,197.129Z" transform="translate(-138.257 -190.843)" fill="#f8f2f0"/>
    </g>
    <g id="Group_3045" data-name="Group 3045" transform="translate(21.56 4)">
      <path id="Path_3815" data-name="Path 3815" d="M349.5,14.512a5.256,5.256,0,1,0-5.254-5.257A5.264,5.264,0,0,0,349.5,14.512Z" transform="translate(-344.249 -4)" fill="#f8f2f0" fill-rule="evenodd"/>
    </g>
    <g id="Group_3046" data-name="Group 3046" transform="translate(24.694 4)">
      <path id="Path_3816" data-name="Path 3816" d="M394.531,4.347a5.256,5.256,0,0,1,3.134,4.81c0,.033,0,.066,0,.1a5.206,5.206,0,0,1-.328,1.737,5.268,5.268,0,0,1-3.04,3.073,5.255,5.255,0,1,0,.236-9.718Z" transform="translate(-394.295 -4)" fill="#d6dcea" fill-rule="evenodd"/>
    </g>
    <path id="Path_3817" data-name="Path 3817" d="M394.2,51.556h-1.427V50.128a.484.484,0,1,0-.968,0v1.428h-1.427a.484.484,0,0,0,0,.968h1.427v1.428a.484.484,0,1,0,.968,0V52.524H394.2a.484.484,0,0,0,0-.968Z" transform="translate(-365.479 -42.785)" fill="#fd8087"/>
    <g id="Group_3047" data-name="Group 3047" transform="translate(3.404 24.061)">
      <path id="Path_3818" data-name="Path 3818" d="M55.423,325.8l-1.077,3.5,1.077,3.7,4.962,1.351,4.025,1.095c2.348.731,3.385.314,5.545-.38l7.916-2.54c2.273-.729,1.933-3.856-1.393-2.787l-4.426.866-.723.142a4.786,4.786,0,0,1-2.3.127l-3.536-.646-.642-.118a1.125,1.125,0,0,1,.38-2.213c.856.109,2,.264,2.985.365l.059.006c1.895.192,2.655-1.224,1.978-2.324a2.483,2.483,0,0,0-1.415-1.013l-2.666-.489c-1.729-.317-2.957.078-5.639.519l-1.511.249Z" transform="translate(-54.346 -324.322)" fill="#fed1a3" fill-rule="evenodd"/>
    </g>
    <g id="Group_3048" data-name="Group 3048" transform="translate(0 24.715)">
      <path id="Path_3819" data-name="Path 3819" d="M0,334.957v8.518a.227.227,0,0,0,.249.194H4.23a.228.228,0,0,0,.251-.194v-8.518a.228.228,0,0,0-.251-.194H.249a.227.227,0,0,0-.249.194Z" transform="translate(0 -334.763)" fill="#99e6fc" fill-rule="evenodd"/>
    </g>
    <g id="Group_3049" data-name="Group 3049" transform="translate(0 32.118)">
      <path id="Path_3820" data-name="Path 3820" d="M0,452.975v1.309a.227.227,0,0,0,.249.194H4.23a.228.228,0,0,0,.251-.194v-1.309a.229.229,0,0,1-.251.194H.249A.229.229,0,0,1,0,452.975Z" transform="translate(0 -452.975)" fill="#62dbfb" fill-rule="evenodd"/>
    </g>
    <g id="Group_3050" data-name="Group 3050" transform="translate(4.481 29.922)">
      <path id="Path_3821" data-name="Path 3821" d="M71.548,420.1v.617l4.962,1.351,4.025,1.095c2.348.731,3.385.314,5.545-.38L94,420.243c1.282-.41,1.732-1.584,1.286-2.339A2.116,2.116,0,0,1,94,418.934l-7.916,2.54c-2.16.692-3.2,1.111-5.545.38l-4.025-1.095-4.962-1.353Z" transform="translate(-71.548 -417.904)" fill="#ffbc85" fill-rule="evenodd"/>
    </g>
    <g id="Group_3051" data-name="Group 3051" transform="translate(13.047 25.837)">
      <path id="Path_3822" data-name="Path 3822" d="M209.561,353.167a1.12,1.12,0,0,0-1.035,1.765,1.029,1.029,0,0,1,1.035-.456c.856.109,2,.264,2.985.365l.059.006c1.806.183,2.581-1.093,2.064-2.165a1.518,1.518,0,0,1-.708.664,2.537,2.537,0,0,1-1.356.192l-.059-.005C211.564,353.43,210.417,353.275,209.561,353.167Z" transform="translate(-208.322 -352.681)" fill="#ffbc85" fill-rule="evenodd"/>
    </g>
  </g>
</svg>
