<svg id="house" xmlns="http://www.w3.org/2000/svg" width="32.001" height="32.001" viewBox="0 0 32.001 32.001">
  <path id="Path_2296" data-name="Path 2296" d="M136.97,20.963a7,7,0,0,1-6.989-7V7.229a6.989,6.989,0,1,1,13.979,0V13.96A7,7,0,0,1,136.97,20.963Z" transform="translate(-121.857 -0.212)" fill="#dada3b"/>
  <path id="Path_2297" data-name="Path 2297" d="M241.808.226V20.963a7,7,0,0,0,6.989-7V7.229a7,7,0,0,0-6.989-7Z" transform="translate(-226.695 -0.212)" fill="#9dbc29"/>
  <path id="Path_2298" data-name="Path 2298" d="M193.655,107.925a.937.937,0,0,0-.936.938v2.857l-.624-.631a.937.937,0,1,0-1.33,1.319l1.953,1.977v17.846a.936.936,0,1,0,1.871,0V108.863A.937.937,0,0,0,193.655,107.925Z" transform="translate(-178.589 -101.18)" fill="#a34f3e"/>
  <path id="Path_2299" data-name="Path 2299" d="M241.808,107.982v25.239a.936.936,0,0,0,.889-.935V108.917A.936.936,0,0,0,241.808,107.982Z" transform="translate(-226.695 -101.233)" fill="#873f2e"/>
  <path id="Path_2300" data-name="Path 2300" d="M70.347,396.269a.937.937,0,0,1-.936-.937v-5.771a.936.936,0,1,1,1.871,0v5.771A.937.937,0,0,1,70.347,396.269Z" transform="translate(-65.073 -364.334)" fill="#c86e59"/>
  <path id="Path_2301" data-name="Path 2301" d="M84.382,388.623v7.646a.937.937,0,0,0,.936-.937v-5.771A.937.937,0,0,0,84.382,388.623Z" transform="translate(-79.108 -364.334)" fill="#a34f3e"/>
  <path id="Path_2302" data-name="Path 2302" d="M6.178,105.536c-1.514,0-2.885-1.067-3.861-3.005A14.636,14.636,0,0,1,.964,96.1c0-4.947,4.279-10.807,4.461-11.054a.935.935,0,0,1,1.505,0c.182.247,4.461,6.107,4.461,11.054a14.636,14.636,0,0,1-1.353,6.433c-.975,1.938-2.346,3.005-3.861,3.005Z" transform="translate(-0.904 -79.371)" fill="#dada3b"/>
  <path id="Path_2303" data-name="Path 2303" d="M85.135,85.043a.935.935,0,0,0-.753-.38v20.873c1.514,0,2.885-1.067,3.861-3.005A14.636,14.636,0,0,0,89.6,96.1C89.6,91.15,85.317,85.29,85.135,85.043Z" transform="translate(-79.108 -79.371)" fill="#9dbc29"/>
  <path id="Path_2304" data-name="Path 2304" d="M384.368,8.216A4.135,4.135,0,0,1,379.8,3.04,4.041,4.041,0,0,1,382.7.141a4.131,4.131,0,1,1,1.67,8.076Z" transform="translate(-355.936 -0.001)" fill="#ffdd54"/>
  <path id="Path_2305" data-name="Path 2305" d="M445.583,0V8.256a4.254,4.254,0,0,0,.583-.04A4.129,4.129,0,0,0,445.583,0Z" transform="translate(-417.734 -0.001)" fill="#ffb454"/>
  <path id="Path_2306" data-name="Path 2306" d="M433.074,200.675a.937.937,0,0,1-.936-.938v-5.243a.936.936,0,1,1,1.871,0v5.243A.937.937,0,0,1,433.074,200.675Z" transform="translate(-405.129 -181.459)" fill="#ff405c"/>
  <path id="Path_2307" data-name="Path 2307" d="M147.671,189.465V177.127a.313.313,0,0,1,.1-.234l9.96-8.852a.311.311,0,0,1,.414,0l9.96,8.852a.313.313,0,0,1,.1.234v12.338H147.671Z" transform="translate(-138.441 -157.464)" fill="#fff2de"/>
  <path id="Path_2308" data-name="Path 2308" d="M322.179,176.893l-9.96-8.852a.311.311,0,0,0-.207-.079v21.5h10.272V177.127A.313.313,0,0,0,322.179,176.893Z" transform="translate(-292.511 -157.464)" fill="#fde4c3"/>
  <path id="Path_2309" data-name="Path 2309" d="M193.206,351.11h-5.614v-9.789a.937.937,0,0,1,.936-.938h3.743a.937.937,0,0,1,.936.938Z" transform="translate(-175.867 -319.11)" fill="#a34f3e"/>
  <path id="Path_2310" data-name="Path 2310" d="M348.285,359.915h-3.2a.662.662,0,0,1-.662-.663v-3.2a.662.662,0,0,1,.662-.663h3.2a.662.662,0,0,1,.662.663v3.2A.662.662,0,0,1,348.285,359.915Z" transform="translate(-322.898 -333.172)" fill="#c8ffff"/>
  <path id="Path_2311" data-name="Path 2311" d="M334.913,346.79h-4.522a.937.937,0,0,1-.936-.938v-4.531a.937.937,0,0,1,.936-.937h4.522a.937.937,0,0,1,.936.938v4.531A.937.937,0,0,1,334.913,346.79Zm-3.586-1.875h2.65v-2.656h-2.65Z" transform="translate(-308.864 -319.11)" fill="#a34f3e"/>
  <path id="Path_2312" data-name="Path 2312" d="M136.96,170.06a.931.931,0,0,1-.621-.236l-10.881-9.671-10.881,9.671a.937.937,0,0,1-1.242-1.4l11.5-10.223a.934.934,0,0,1,1.242,0l11.5,10.223a.938.938,0,0,1-.621,1.639Z" transform="translate(-105.957 -148.09)" fill="#ff405c"/>
  <path id="Path_2313" data-name="Path 2313" d="M324.134,168.421l-11.5-10.223a.932.932,0,0,0-.621-.236v2.191l10.881,9.671a.937.937,0,0,0,1.242-1.4Z" transform="translate(-292.511 -148.089)" fill="#e20059"/>
  <path id="Path_2314" data-name="Path 2314" d="M31.066,483.7H.937a.955.955,0,0,1-.936-.95.937.937,0,0,1,.936-.937H31.066a.937.937,0,0,1,.936.938A.955.955,0,0,1,31.066,483.7Z" transform="translate(-0.001 -451.696)" fill="#dada3b"/>
  <path id="Path_2315" data-name="Path 2315" d="M271.087,481.81H256.024V483.7h15.063a.955.955,0,0,0,.936-.95A.937.937,0,0,0,271.087,481.81Z" transform="translate(-240.022 -451.696)" fill="#9dbc29"/>
</svg>
