<svg id="house-cleaning" xmlns="http://www.w3.org/2000/svg" width="39.313" height="39.313" viewBox="0 0 39.313 39.313">
  <path id="Path_2570" data-name="Path 2570" d="M25.078,39.234h5.078a.635.635,0,0,0,.635-.635V34.79H34.6a.635.635,0,0,0,.635-.635V29.078a.635.635,0,0,0-.635-.635H30.79V24.635A.635.635,0,0,0,30.156,24H25.078a.635.635,0,0,0-.635.635v3.808H20.635a.635.635,0,0,0-.635.635v5.078a.635.635,0,0,0,.635.635h3.808V38.6A.635.635,0,0,0,25.078,39.234Zm-3.808-5.713V29.713h3.808a.635.635,0,0,0,.635-.635V25.269h3.808v3.808a.635.635,0,0,0,.635.635h3.808v3.808H30.156a.635.635,0,0,0-.635.635v3.808H25.713V34.156a.635.635,0,0,0-.635-.635Z" transform="translate(-7.961 -9.553)" fill="#a85656"/>
  <path id="Path_2571" data-name="Path 2571" d="M38.7,34.4H34.4V20.271H37.47a.616.616,0,0,0,.571-.386l1.229-3.071a.615.615,0,0,0-.176-.7l-4.081-3.422V.614A.614.614,0,0,0,34.4,0H28.256a.614.614,0,0,0-.614.614v5.9L20.051.144a.614.614,0,0,0-.789,0L.22,16.114a.615.615,0,0,0-.176.7l1.229,3.071a.614.614,0,0,0,.57.386H4.914V34.4H.614A.614.614,0,0,0,0,35.013V38.7a.614.614,0,0,0,.614.614H38.7a.614.614,0,0,0,.614-.614V35.013A.614.614,0,0,0,38.7,34.4ZM28.87,4.3h3.071a.614.614,0,0,0,0-1.229H28.87V1.229h4.914V11.662L28.87,7.54ZM19.656,1.416,37.963,16.77l-.744,1.859L20.057,3.835a.616.616,0,0,0-.8,0L2.093,18.629,1.35,16.77ZM5.528,19.042H3.5L19.656,5.111l16.16,13.931H33.784a.614.614,0,0,0-.614.614V34.4H6.143V19.656A.614.614,0,0,0,5.528,19.042ZM38.084,38.084H1.229V35.627H38.084Z" transform="translate(0 0)" fill="#929292"/>
  <path id="Path_2572" data-name="Path 2572" d="M24.77,40.85a10.3,10.3,0,0,0,5.073-1.344.655.655,0,0,0,.245-.859.582.582,0,0,0-.81-.26,9.151,9.151,0,0,1-4.508,1.195c-5.278,0-9.573-4.556-9.573-10.156s4.295-10.156,9.573-10.156,9.573,4.556,9.573,10.156a10.5,10.5,0,0,1-1.83,5.974.66.66,0,0,0,.132.887.576.576,0,0,0,.836-.139,11.815,11.815,0,0,0,2.059-6.722C35.54,23.125,30.708,18,24.77,18S14,23.125,14,29.425,18.832,40.85,24.77,40.85Z" transform="translate(-5.114 -6.909)" fill="#929292"/>
  <circle id="Ellipse_110" data-name="Ellipse 110" cx="0.635" cy="0.635" r="0.635" transform="translate(25.874 29.334)" fill="#929292"/>
</svg>
