<svg id="Group_2755" data-name="Group 2755" xmlns="http://www.w3.org/2000/svg" width="104.686" height="22.594" viewBox="0 0 104.686 22.594">
  <g id="Group_1380" data-name="Group 1380" transform="translate(0 4.656)">
    <path id="_パス_1380-2" d="M79.244,60.356H70.58V43.77h1.807V58.812h6.857Z" transform="translate(-70.58 -42.679)" fill="#f5b6c3"/>
    <path id="_パス_1381-2" d="M122.144,46.931a1.173,1.173,0,0,1-1.175-1.17v-.069a1.187,1.187,0,0,1,2.373-.054v.051a1.155,1.155,0,0,1-1.063,1.239.8.8,0,0,1-.135,0Zm.915,13.953h-1.807V49.019h1.807V60.882Z" transform="translate(-108.125 -43.207)" fill="#f5b6c3"/>
    <path id="_パス_1382-2" d="M147.791,45.3c0-1.481,0-3.418,1.305-4.746a3.916,3.916,0,0,1,2.743-1.065,4.367,4.367,0,0,1,1.764.349l-.3,1.415a3.389,3.389,0,0,0-1.371-.283c-1.871,0-2.33,1.741-2.33,3.658V45.3h2.873v1.415H149.6V57.166h-1.807V46.718H146.16V45.3h1.631Z" transform="translate(-126.895 -39.488)" fill="#f5b6c3"/>
    <path id="_パス_1383-2" d="M192.723,72.816a8.579,8.579,0,0,1-3.722.739c-3.464,0-5.531-2.437-5.531-5.985,0-3.722,2.09-6.4,5.289-6.4,3.658,0,4.593,3.352,4.593,5.419,0,.413-.023.719-.043,1h-8.073c.023,3.286,1.894,4.524,4.027,4.524a7.5,7.5,0,0,0,3.112-.609l.349,1.305h0Zm-1.155-6.571c.023-1.611-.653-3.7-2.982-3.7-2.179,0-3.135,2.067-3.309,3.7Z" transform="translate(-154.694 -55.643)" fill="#f5b6c3"/>
    <path id="_パス_1384-2" d="M274.931,45.095a5.631,5.631,0,0,0-2.916-.762c-2.307,0-3.179,1.415-3.179,2.613,0,1.631,1,2.457,3.222,3.4,2.676,1.132,4.048,2.5,4.048,4.876,0,2.633-1.917,4.657-5.485,4.657a7.636,7.636,0,0,1-3.961-1.045l.5-1.5a6.745,6.745,0,0,0,3.571,1.022c2.22,0,3.525-1.2,3.525-2.982,0-1.631-.895-2.633-3.049-3.5-2.5-.935-4.2-2.394-4.2-4.68,0-2.526,2.047-4.374,5.073-4.374a6.752,6.752,0,0,1,3.4.783l-.543,1.5h0Z" transform="translate(-216.679 -41.959)" fill="#f5b6c3"/>
    <path id="_パス_1385-2" d="M319.88,52.049l1.784-.609V54.2h3.069v1.415h-3.069v6.857c0,1.5.456,2.33,1.611,2.33a3.59,3.59,0,0,0,1.218-.173l.11,1.394a4.569,4.569,0,0,1-1.764.283c-2.873,0-2.962-2.613-2.962-3.874V55.62H318.05V54.206h1.828V52.052Z" transform="translate(-254.97 -48.394)" fill="#f5b6c3"/>
    <path id="_パス_1386-2" d="M367.2,70.485a16.68,16.68,0,0,0,.173,2.829h-1.654l-.176-1.524h-.066a4.125,4.125,0,0,1-3.5,1.784,3.291,3.291,0,0,1-3.462-3.107c-.005-.089-.005-.176,0-.265,0-2.85,2.483-4.4,6.877-4.374,0-1,0-3.265-2.7-3.265a5.15,5.15,0,0,0-2.9.849l-.436-1.241a6.739,6.739,0,0,1,3.62-1c3.352,0,4.224,2.373,4.224,4.723v4.593Zm-1.784-3.329c-2.243,0-5.05.326-5.05,2.829a1.973,1.973,0,0,0,2.047,2.2,2.9,2.9,0,0,0,3-2.786V67.154Z" transform="translate(-285.112 -55.642)" fill="#f5b6c3"/>
    <path id="_パス_1387-2" d="M419.976,63.052a5.1,5.1,0,0,0-.653-.043c-1.96,0-2.962,1.937-2.962,3.941v6.444h-1.8V65.078c0-1.262-.023-2.416-.087-3.548h1.588l.087,2.286h.066a3.551,3.551,0,0,1,3.219-2.546,4.268,4.268,0,0,1,.543.066v1.721h0Z" transform="translate(-326.813 -55.718)" fill="#f5b6c3"/>
  </g>
  <g id="_グループ_125" transform="translate(93.809)" opacity="0.85">
    <path id="_パス_1407" d="M21.335,6.558a.127.127,0,0,0-.025-.048C21.284,6.584,21.335,6.558,21.335,6.558Z" transform="translate(-15.872 -5.727)" fill="#f5b6c3"/>
    <path id="_パス_1408" d="M20.623,9.53l-.013.11.013-.1Z" transform="translate(-15.357 -7.978)" fill="#f5b6c3"/>
    <path id="_パス_1409" d="M19.817,10.522h.013s.064,0,.074-.025h0l-.048-.1h0l.025-.11a.231.231,0,0,0-.11.025h0l.048.1a3.581,3.581,0,0,1-.11.367c.048-.036.074-.158.1-.257h.013Zm.048-.11-.025.084Z" transform="translate(-14.686 -8.544)" fill="#f5b6c3"/>
    <path id="_パス_1410" d="M18.855,13.17h0a.163.163,0,0,1-.025.084c.025-.013,0,.084.036-.084h-.013Z" transform="translate(-14.03 -10.69)" fill="#f5b6c3"/>
    <path id="_パス_1412" d="M18.366,14.227v-.1s-.036.1-.036.064c-.025.1,0,.084.036.036h0Z" transform="translate(-13.65 -11.405)" fill="#f5b6c3"/>
    <path id="_パス_1414" d="M18.575,14.263l-.025.11s.025,0,0-.048V14.26h.025Z" transform="translate(-13.822 -11.502)" fill="#f5b6c3"/>
    <path id="_パス_1415" d="M18.65,14.539l.013-.036.025-.184-.036.219h0Z" transform="translate(-13.896 -11.547)" fill="#f5b6c3"/>
    <path id="_パス_1417" d="M15.9,17.3s-.064-.036-.013-.048a1.092,1.092,0,0,0-.206.036H15.9Z" transform="translate(-11.683 -13.73)" fill="#f5b6c3"/>
    <path id="_パス_1418" d="M15.29,17.451a.8.8,0,0,0,.1-.025A.121.121,0,0,0,15.29,17.451Z" transform="translate(-11.393 -13.86)" fill="#f5b6c3"/>
    <path id="_パス_1424" d="M15.611,17.593s-.11.013-.171.013h.206s.036-.025-.036-.025h0Z" transform="translate(-11.504 -13.976)" fill="#f5b6c3"/>
    <path id="_パス_1428" d="M14.57,17.57a.233.233,0,0,1,.084.013C14.629,17.582,14.57,17.557,14.57,17.57Z" transform="translate(-10.856 -13.965)" fill="#f5b6c3"/>
    <path id="_パス_1430" d="M16.8,17.63a.113.113,0,0,0-.074.025H16.8Z" transform="translate(-12.466 -14.013)" fill="#f5b6c3"/>
    <path id="_パス_1431" d="M11.8,17.768s.27.036.171.064c-.158.013-.135,0-.206-.025.064.036-.206.048-.171.1l.135-.025s-.048.025,0,.025c0-.025.148-.048.27-.025.122-.025.036-.11-.064-.158,0,0,0,.025-.122.036h0l-.01.01Z" transform="translate(-8.634 -14.08)" fill="#f5b6c3"/>
    <path id="_パス_1432" d="M12.94,17.616h.283a1.268,1.268,0,0,1-.171-.036c-.084.013-.1.025-.11.036h0Z" transform="translate(-9.642 -13.976)" fill="#f5b6c3"/>
    <path id="_パス_1434" d="M16.446,17.96h-.2l.1.036h0c.11,0,.084-.025.1-.036Z" transform="translate(-12.108 -14.259)" fill="#f5b6c3"/>
    <path id="_パス_1435" d="M12.554,17.576l.025-.036-.11.048.084-.013Z" transform="translate(-9.291 -13.946)" fill="#f5b6c3"/>
    <path id="_パス_1436" d="M11.611,17.605l.013-.025-.074.013.064.013h0Z" transform="translate(-8.606 -13.976)" fill="#f5b6c3"/>
    <path id="_パス_1437" d="M18.625,32.5l-.025.048.048-.064h-.025v.013Z" transform="translate(-13.859 -25.078)" fill="#f5b6c3"/>
    <path id="_パス_1439" d="M8.73,18.163l.025-.013S8.73,18.15,8.73,18.163Z" transform="translate(-6.505 -14.4)" fill="#f5b6c3"/>
    <path id="_パス_1441" d="M11.371,10.1s-.122.122-.074.084l.135-.1H11.4a1.182,1.182,0,0,1,.245-.206c.135-.074.11-.036.171-.074,0,0,.025,0,.074-.048l.293-.206-.219.1c.064-.074.245-.171,0-.048.048-.025.11-.048.171-.084A.963.963,0,0,1,11.96,9.5V9.479a.4.4,0,0,0-.084-.048c-.036,0-.048,0-.158.048a.082.082,0,0,0-.074-.048.523.523,0,0,0-.245.064h-.415a2.047,2.047,0,0,1-.28.025h0a.2.2,0,0,0-.074-.064.3.3,0,0,0-.184.064c-.064-.036-.293-.013-.377-.074.036.013-.013.025-.084.025-.122-.036-.27-.084-.306-.1a.061.061,0,0,1-.036-.013c-.048-.013-.084,0-.232.1H9.24a1.937,1.937,0,0,1-.27-.025H8.934c-.122-.036-.293-.074-.342-.084V9.3h0a.607.607,0,0,0-.013-.135,2.669,2.669,0,0,0-.048-.319A.235.235,0,0,0,8.455,8.8H8.391L8.366,8.75l.025-.1A1.421,1.421,0,0,0,8.455,8.2a.207.207,0,0,0-.074-.048c-.048,0-.048-.013-.206.084l-.036-.084V8.125a2.353,2.353,0,0,0-.013-.354.207.207,0,0,0-.074-.048H8l.036-.11a1.331,1.331,0,0,0,.122-.464A.207.207,0,0,0,8.088,7.1a.25.25,0,0,0-.135.036V7.111A.339.339,0,0,1,7.9,7.075l-.025-.048c-.122-.232-.148-.27-.148-.28A.113.113,0,0,0,7.657,6.7H7.583a.124.124,0,0,0-.013-.074.111.111,0,0,0-.064-.048A.154.154,0,0,0,7.4,6.6H7.382l.048.1-.048.025L7.369,6.66c0,.036-.1.257-.148.4a1.492,1.492,0,0,0-.148.489.207.207,0,0,0,.074.048c.036,0,.048.013.219-.084a1.446,1.446,0,0,1-.148.158c-.135.135-.232.245-.319.342l.025-.036V7.916a.739.739,0,0,0-.036.122c-.2.206-.245.28-.257.329a.442.442,0,0,1-.036.1c.013-.025.036-.064.048-.064h0v.013h.013s.036.048.074.048a1.6,1.6,0,0,0,.489-.232c-.084.084-.171.158-.245.245-.245.245-.4.39-.5.5h0l-.1.11V9.04s-.036.1-.064.1h.025c-.048.064-.036.084,0,.122,0,0,.013.025.025.025h0v.036h0V9.3h.048l-.025.036a.038.038,0,0,0,.036-.025h0s.184-.084.77-.415c.257-.148.612-.354.7-.39a.064.064,0,0,0,.048-.013.035.035,0,0,0,.025-.013s.025,0,.025.013a.485.485,0,0,0,.036.122l.025-.036a.41.41,0,0,1,.025.148c.084.074-.074-.232,0-.158a.524.524,0,0,0,.036.2A10.491,10.491,0,0,0,6.143,9.8c-.415.245-.892.512-1.234.7.074-.084.158-.171.232-.257q.623-.673.574-.757a.216.216,0,0,0-.048-.036H5.631s.084-.025-.013-.036H5.74a.459.459,0,0,1-.117-.013H5.378a1.05,1.05,0,0,0,.219,0c-.036.025-.135.036-.1.074-.036.013-.084.048-.158.084H5.33c-.1.064-.245.135-.451.257-.148.084-.329.184-.451.257l.036-.135c.084-.354.1-.4.084-.438h.071c.013-.025-.025-.025-.084-.025a.133.133,0,0,0-.048-.036.706.706,0,0,1,.219-.013c-.074-.036-.036,0-.148-.036.1.064-.39,0-.232.064a.442.442,0,0,0-.1-.036.088.088,0,0,0,0-.11.113.113,0,0,0-.074-.048,1.41,1.41,0,0,0-.329.148H3.8l-.064.036-.048.025a.437.437,0,0,0-.206.025c-.11,0,.025-.013-.048-.036l-.11.025-.1-.025L3.153,9.4h0a1.221,1.221,0,0,1-.148-.084c-.013,0-.025-.025-.048-.025a.265.265,0,0,0-.158.048l-.048.025a.738.738,0,0,1-.074-.048A.111.111,0,0,0,2.628,9.3a.154.154,0,0,0-.11.025H2.493l.025.074H2.47l.064.036H2.508a.058.058,0,0,0,.025.048v.048H2.6c.048.025.11.074.219.148s.206.148.245.171.074.036.135.013c.025.013.048.036.074.048a1.258,1.258,0,0,0,.084.219.111.111,0,0,0,.064.048.34.34,0,0,0,.036.084.113.113,0,0,0,.074.048H3.6c.036.036.084.084.158.171s.171.184.184.2a.065.065,0,0,0,.064.036.22.22,0,0,0,.148-.048h0l.257.074h.025c-.048.084-.036.11,0,.148a.081.081,0,0,0,.064.043.293.293,0,0,0,.122-.025,4.331,4.331,0,0,0,.428.306q0,.064.025.074a.113.113,0,0,0,.074.048.248.248,0,0,0,.1-.013L5.4,11.5c.048.074.11.135.135.171a.594.594,0,0,0-.036.084c0,.013-.013.025-.013.048-.013.048-.025.11-.036.171h0c-.377.441-.548.688-.512.744a.207.207,0,0,0,.074.048c.036,0,.048,0,.184-.064,0,.025.025.013.048,0v.084c-.025,0-.036.036-.048.064-.245.184-.219.219-.184.28,0,.025.025.036.048.048a.094.094,0,0,0,0,.1H5.07c-.036.11-.084.245-.122.342l-.074.194h0c-.074.2-.074.206-.048.245h0c0,.064-.025.11-.025.2l-.036.025a.7.7,0,0,1-.025.122.18.18,0,0,1-.048.122c-.023.043-.043.089-.064.135a6.586,6.586,0,0,0,.586-.367c.122-.084.257-.171.377-.245a2.816,2.816,0,0,1,.257-.148c-.11-.025.184-.074.158-.135.036,0,.084-.025.036.025.158-.135.28-.148.367-.27.036,0-.025.048,0,.048,0-.013.048-.048.074-.048s-.013.025-.036.064c.171-.122.158-.184.135-.232a.318.318,0,0,0,.2-.148c.036,0,.11-.025,0,.048.064-.036.39-.232.377-.27.025,0,.084-.064.1-.074l.148-.1a.461.461,0,0,0,.074-.048h0a.2.2,0,0,0,.074.064.248.248,0,0,0,.1-.013c.11.1.135.11.171.122l.025.025c.084.084.184.2.2.206A.065.065,0,0,0,8.1,13.2a.163.163,0,0,0,.1-.025h0a.5.5,0,0,1-.013.122,1.581,1.581,0,0,0-.036.451.207.207,0,0,0,.074.048l.438-.206.036-.025h0s-.064.025.025.084c0,.013.048.036.084.048-.1.122-.084.135-.048.184a.113.113,0,0,0,.074.048c.048,0,.048.013.257-.1a.448.448,0,0,1,.11.084c-.025-.036-.036-.074.036-.036a.675.675,0,0,1,.148.122,1.106,1.106,0,0,0,.025.354.113.113,0,0,0,.074.048c.048,0,.048.013.319-.135.11.064.257.148.329.184a.329.329,0,0,0,0,.122.113.113,0,0,0,.074.048h.025A.089.089,0,0,0,10.3,14.6a.566.566,0,0,0,.158.11c-.025-.048-.036-.11-.064-.171h.013s.074-.1.036-.148c0-.013-.025-.025-.036-.036h0s.064-.1.036-.148c0-.013-.025-.025-.036-.036a1.014,1.014,0,0,0,.048-.377.113.113,0,0,0-.074-.048c-.036,0-.048,0-.184.064-.013-.036-.013-.048-.025-.048l-.02-.031a1.794,1.794,0,0,0-.084-.232A.338.338,0,0,0,10,13.4c0-.048.013-.013.025-.013L10,13.307c.158-.27.148-.28.122-.329a.113.113,0,0,0-.074-.048.25.25,0,0,0-.135.036c.025-.074.036-.148.064-.206v-.025a.27.27,0,0,0,.036-.084q.074-.27.048-.306a.113.113,0,0,0-.074-.048,1.033,1.033,0,0,0-.27.11A.975.975,0,0,0,9.63,12.2s.013,0,.025.025a2.075,2.075,0,0,1-.135-.477c0-.036-.025-.074-.025-.11v-.048H9.47v-.025a.6.6,0,0,0,.025-.1h0s.064-.064.048-.1l.257-.184h0c.438-.306.892-.586,1.308-.867h-.074l.148-.11c.048-.013.074,0-.025.064.036,0,.074-.036.11-.074s.064-.084.064-.084c.148-.084.148-.074.1-.025h0l-.048.01Zm.428-.306-.064.036C11.81,9.767,11.8,9.782,11.8,9.795ZM5.371,11.164h0S5.335,11.1,5.3,11.1H5.261v-.064H5.3a.048.048,0,0,0,.025.048.082.082,0,0,0,.074.048c.084.025.158,0,1.575-.831.158-.084.329-.2.489-.28-.184.135-.367.28-.525.415-.66.525-.979.77-1.124.9h0a.738.738,0,0,0-.074-.048s-.025-.025-.036-.025l-.025-.025s-.1-.148-.122-.122a.188.188,0,0,1-.064.206c-.048-.064-.084-.122-.11-.148h0l-.01-.02Zm2.738-2.1a.207.207,0,0,0,.074.048h.048a.361.361,0,0,1,.013.148c.048.122.025-.048.074.074v.036l.025.025h0a.176.176,0,0,0-.064-.025c-.074-.013-.1-.025-1.443.757-.184.11-.377.219-.574.329.184-.148.39-.293.574-.428.744-.551,1.1-.831,1.272-.976h0Zm1.236,2.126v-.036l.206-.135c-.11.084.025.064-.171.171l.064-.1-.11.084h0Zm-.354.245h.036c-.28.148-.77.415-1.662.928.342-.206.7-.428,1.027-.625s.647-.39.915-.563l-.036.025-.036.025-.048.036s-.122.084-.219.148v.025h.025ZM9.21,12.79a.207.207,0,0,0,.074.048h.048c-.11.064-.232.135-.39.219l-.171.1a1.539,1.539,0,0,0,.122-.135c.122-.122.206-.219.293-.306,0,.064.013.064.025.074h0Zm-.8.219s.025.036,0,.036Zm.048,0a.291.291,0,0,0-.048-.025v-.036c.1-.048.257-.148.525-.306l.036-.025c-.084.084-.171.184-.245.257s-.158.171-.219.232c-.036-.048-.048-.074-.048-.1Zm-.538-.673a.061.061,0,0,0-.013-.036h0c.293-.184.574-.342.818-.477h0a.083.083,0,0,0,.084,0h0c-.084.048-.219.135-.438.257-.148.084-.319.184-.428.245h0l-.025.013Zm1.16-.489a.061.061,0,0,0-.013-.036c0-.013-.025-.025-.036-.036h0l.036-.025L9.1,11.8v.036H9.085Zm-.038.122c-.064.2-.064.206-.036.245a.082.082,0,0,0,.074.048H9.11V12.3c-.074.048-.171.1-.28.171-.074.048-.158.1-.245.148a1.727,1.727,0,0,1,.135-.171c.2-.257.293-.39.342-.464h0l-.013-.013Zm.257,1.15A.913.913,0,0,0,9,13.254l.048-.025c.1-.064.219-.122.319-.184l-.074.074H9.3Zm.219.489a.181.181,0,0,1-.036-.025l.064-.036-.036.064h.01Zm.064-.319s-.158.084-.306.171c.051-.059.1-.117.158-.171l.11-.122s.025.074.036.122h0ZM8.3,11.212c-.66.377-1.4.805-2,1.15.464-.293,1-.635,1.491-.941A27.986,27.986,0,0,0,10.3,9.785h0a.511.511,0,0,0,.219-.084h0s.036.122.048.184V9.91c-.489.27-1.221.683-2.284,1.308H8.3ZM8.379,9.5h0v.084a.048.048,0,0,0-.025-.048C8.353,9.525,8.379,9.512,8.379,9.5Zm-.036.048c.025.064.048.135.074.2h.306c-.28.158-.673.377-1.246.709-.28.158-.586.342-.867.5.148-.122.319-.245.464-.367A15.527,15.527,0,0,0,8.345,9.548h0ZM9.821,9.7H9.8a.555.555,0,0,1,.171-.025c-.27.135-.783.428-1.784,1.015-.438.257-.953.551-1.394.805.206-.135.428-.28.635-.428,1.185-.8,1.71-1.16,1.93-1.343A2.563,2.563,0,0,0,9.816,9.7ZM7.6,10.626c.2-.11.4-.232.612-.354-.306.206-.625.428-.915.625-.77.512-1.2.805-1.443.989V11.86H5.837l.074-.048s0-.013-.025-.025V11.76h.025s.048-.048.048-.084c.1-.122.135-.171.122-.206.219-.11.647-.354,1.506-.856h0l.01.013ZM5.738,11.944h0l-.025.025v-.025Zm.074.293a24.567,24.567,0,0,0,2.3-1.272c-.148.1-.293.184-.438.28-.915.574-1.527.966-1.945,1.221.11-.171.1-.2.074-.232h.013Zm-.257-.064a.066.066,0,0,0,.025.048v.025l-.048.036v-.048l.025-.048h0v-.013Zm-.319,1.272h0l.036-.1s.036.013.036.025v-.11s.013-.074.013-.084c.025,0,.048-.025.074-.036a.189.189,0,0,1,.013-.064c.4-.2,1.234-.66,3.018-1.7.574-.329,1.221-.7,1.772-1.014-.586.367-1.282.8-1.919,1.173-1.82,1.111-2.664,1.636-3.054,1.907h.013ZM9.745,10.9a.883.883,0,0,1-.064.074l-.025-.025L9.74,10.9h0ZM7.777,12.589s-.036-.036-.064-.036H7.688l.064-.036v.025a.082.082,0,0,0,.074.048c.064.013.074.013.66-.329l.158-.084-.1.135a5.51,5.51,0,0,0-.4.563c-.064-.036-.135-.064-.206-.11-.084-.074.036,0,0-.048l-.074-.025-.1-.1H7.78Zm3.166-2.936.048.025h.036l.025-.025h.013l-.27.135-.023-.082a.76.76,0,0,1,.158-.064h0l.01.01Zm-2.3-.28-.025-.025ZM7.619,6.81h0l-.036.025.025-.048v.025h.013Zm-.148.329c.048-.135.084-.232.11-.306l.025.036S7.581,7,7.543,7a.319.319,0,0,1,.064.171l-.11.064-.084.048.064-.148h0Zm-.036.683c.122-.122.206-.232.28-.306,0,.013.013.025.025.036,0,.048-.036-.036-.036,0a.348.348,0,0,1,.1.184c-.048,0-.122.048-.512.27H7.265l.171-.171h0Zm-.306.915-.12.074.171-.171c.329-.329.525-.512.625-.635h.084a1.656,1.656,0,0,1,.064.219v.084h0c-.064-.013-.074-.025-.818.415h0v.013ZM6.306,9.981c.329-.184.683-.39,1-.574-.184.148-.39.293-.574.428a8.61,8.61,0,0,0-1.394,1.111.081.081,0,0,1-.036-.036l.036.036v.025a.144.144,0,0,1-.064-.013v-.038a1.193,1.193,0,0,0-.048-.329c.245-.135.6-.329,1.076-.612h0Zm-1.246,0,.171-.1c-.074.074-.135.148-.2.219-.2.206-.329.354-.415.451H4.555v-.023c-.1-.064-.158-.122-.232-.171.064,0,.1,0,.744-.377h0l-.01-.005Zm-1.088.1c-.084-.11.135.084.074-.013a.182.182,0,0,1-.11-.036l-.084-.036h0s.122-.074.206-.122.184-.11.28-.158L4.3,9.871c-.074.329-.084.377-.074.415-.025-.025-.064-.036-.084-.064,0-.025-.1-.1-.036-.084a.228.228,0,0,1-.122-.064H3.974Zm-.064.051a1.214,1.214,0,0,1-.135-.048l-.048-.025.1-.048s.171.1.232.135c-.025.025-.074.025-.148,0h0v-.013Zm.367-.635q-.111.054-.329.184c-.11.064-.245.148-.354.2h0l-.038-.107s.148-.074.342-.184l.1-.064h.025a1.144,1.144,0,0,1,.135-.074h.074l.036.036a.331.331,0,0,0-.158,0,.964.964,0,0,1,.171.013h0Zm-.206.941h0l-.025-.025h0l-.025-.025.025.025.048.025H4.066Zm2.3,2.834a.363.363,0,0,1,.11-.064A.265.265,0,0,1,6.365,13.269Zm.232,0s-.013-.013,0-.048l-.025.025c-.074.025-.064-.013-.025-.064l.084-.025s.048-.1.025-.122l-.048.048v-.025l-.048.048H6.485l-.257.135a2.943,2.943,0,0,1-.489.5c.048-.074-.025-.064-.048-.1.1,0,.2-.148.329-.232-.074.048-.074.013-.064,0l-.219.2a.628.628,0,0,0-.148.048c.048,0,0,.048-.048.1a.885.885,0,0,1-.1.074l-.025.025H5.4l-.025.036v-.033s0-.013.025-.025a.178.178,0,0,1,.074-.048.062.062,0,0,0-.046.023H5.406v.025H5.394a.127.127,0,0,1-.025.048.114.114,0,0,1-.1.084c.025-.013.036-.013.036-.036a.338.338,0,0,1-.1.074c-.025.013-.036,0-.025-.013H5.2a1.691,1.691,0,0,0-.206.122v-.084l.084-.048s.122-.074.148-.084h.013s.074-.1.036-.148l-.025-.025c.206-.11.586-.319,1.308-.721h.013v.025h0a.105.105,0,0,1,.048.013H6.64a.082.082,0,0,0,.048-.013.555.555,0,0,1-.11.122.528.528,0,0,0,.11-.025l-.158.135h0l.064.01Z" transform="translate(-1.84 -5.775)" fill="#f5b6c3"/>
    <path id="_パス_1442" d="M18.7,32.043h.025S18.725,32.031,18.7,32.043Z" transform="translate(-13.933 -24.748)" fill="#f5b6c3"/>
    <path id="_パス_1444" d="M9.6,17.58H9.49a.762.762,0,0,1,.11.025S9.574,17.593,9.6,17.58Z" transform="translate(-7.071 -13.976)" fill="#f5b6c3"/>
    <path id="_パス_1446" d="M5.871,17.679c.074,0,0-.036.048-.025.025-.013-.084,0-.148,0s-.064.025.084.013h0l.013.013Z" transform="translate(-4.27 -14.026)" fill="#f5b6c3"/>
    <path id="_パス_1448" d="M22.674,6.658,22.61,6.61a.353.353,0,0,1,.025.084l.036-.036h0Z" transform="translate(-16.847 -5.802)" fill="#f5b6c3"/>
    <path id="_パス_1450" d="M13.585,12.12l-.025.013h.013Z" transform="translate(-10.104 -9.907)" fill="#f5b6c3"/>
    <path id="_パス_1451" d="M13.486,12.016h.036s-.048-.025-.036-.036C13.451,12.016,13.512,11.993,13.486,12.016Z" transform="translate(-10.04 -9.803)" fill="#f5b6c3"/>
    <path id="_パス_1454" d="M13.71,11.515h.025a.074.074,0,0,1,.013-.025c-.013,0-.025,0-.036.025Z" transform="translate(-10.215 -9.438)" fill="#f5b6c3"/>
    <path id="_パス_1457" d="M13.585,11.68s0,.013-.025.025C13.573,11.705,13.608,11.705,13.585,11.68Z" transform="translate(-10.104 -9.58)" fill="#f5b6c3"/>
    <path id="_パス_1459" d="M13.57,11.365h.013s0-.013.025-.025a.181.181,0,0,0-.036.025h0Z" transform="translate(-10.111 -9.326)" fill="#f5b6c3"/>
    <path id="_長方形_143" d="M13.38,11.765l.048-.005h0Z" transform="translate(-9.969 -9.639)" fill="#f5b6c3"/>
    <path id="_パス_1461" d="M13.57,11.213h.013l.025-.013-.036.013h0Z" transform="translate(-10.111 -9.222)" fill="#f5b6c3"/>
    <path id="_パス_1462" d="M13.57,11.085s.025-.025.036-.025H13.57Z" transform="translate(-10.111 -9.118)" fill="#f5b6c3"/>
    <path id="_パス_1464" d="M13.5,11.3l-.025.025h0A.027.027,0,0,0,13.5,11.3h0Z" transform="translate(-10.037 -9.296)" fill="#f5b6c3"/>
    <path id="_パス_1465" d="M13.433,11.353h0l-.013-.013Z" transform="translate(-9.999 -9.326)" fill="#f5b6c3"/>
    <path id="_パス_1467" d="M13.18,11.655a.1.1,0,0,1,.064-.025A.088.088,0,0,0,13.18,11.655Z" transform="translate(-9.82 -9.542)" fill="#f5b6c3"/>
    <path id="_パス_1469" d="M13.33,11.263s.025,0,.025-.013H13.33v.025h0Z" transform="translate(-9.932 -9.259)" fill="#f5b6c3"/>
    <path id="_パス_1476" d="M12.607,11.071a.074.074,0,0,1,.013-.025c-.025.025-.048,0-.1.036h.023s-.025,0-.025.013c.025-.013.048-.013.036,0a.529.529,0,0,0,.148-.084h-.036s-.025.036-.048.036h0l-.01.025Z" transform="translate(-9.329 -9.08)" fill="#f5b6c3"/>
    <path id="_パス_1477" d="M13.23,11.06v.025h0l.025-.025Z" transform="translate(-9.858 -9.118)" fill="#f5b6c3"/>
    <path id="_パス_1478" d="M13,11.153h-.036c-.025.013-.048,0-.074.036h.038s.013,0,.025-.025h.025L13,11.15Z" transform="translate(-9.604 -9.185)" fill="#f5b6c3"/>
    <path id="_パス_1479" d="M12.94,11.793l.013-.013Z" transform="translate(-9.642 -9.654)" fill="#f5b6c3"/>
    <path id="_パス_1480" d="M13.006,11.59a.6.6,0,0,0-.064.048h.013a.074.074,0,0,0-.025.013.061.061,0,0,0,.036-.013h0L13,11.6h0V11.59Z" transform="translate(-9.634 -9.513)" fill="#f5b6c3"/>
    <path id="_パス_1482" d="M13.213,10.973l.025-.013-.048.013h.025Z" transform="translate(-9.828 -9.043)" fill="#f5b6c3"/>
    <path id="_パス_1483" d="M13.208,10.92h-.025l-.013.013.036-.013Z" transform="translate(-9.813 -9.013)" fill="#f5b6c3"/>
    <path id="_パス_1485" d="M12.18,9.18l.025-.02H12.18v.025h0Z" transform="translate(-9.075 -7.702)" fill="#f5b6c3"/>
    <path id="_パス_1488" d="M12.7,10.175V10.15S12.668,10.186,12.7,10.175Z" transform="translate(-9.454 -8.44)" fill="#f5b6c3"/>
    <path id="_パス_1490" d="M12.75,10.152s.013-.025,0-.013h0s.013.005.013.013Z" transform="translate(-9.5 -8.429)" fill="#f5b6c3"/>
    <path id="_パス_1497" d="M10.69,9.288h.036L10.8,9.24Z" transform="translate(-7.965 -7.762)" fill="#f5b6c3"/>
    <path id="_パス_1498" d="M6.893,3.908l-.025.025c.025-.013.036-.013.036,0h0s.013.048.025.084l.025-.025v.023C7,3.99,6.954,4,6.99,3.967c-.048.048.036.036-.025.1,0,0,.025-.025.036-.025H7a.181.181,0,0,1-.025.036h0S7,4.087,7,4.1H7a.12.12,0,0,0,.084.036h0s0,.013.025.025h.025c-.025,0-.025.036-.048.036.036,0,.025,0,.084-.025L7.145,4.2s.036-.013.048,0c-.025,0-.025.025-.064.036-.036.048.074,0,0,.048.074-.036.025-.036.036-.048s.048-.025.048-.013-.074.064-.048.084h0s.025,0,0,.025c.036-.025,0,0,.048-.025H7.189s.084-.036.064,0H7.217s.013,0,0,.013c-.048.036-.025,0-.074,0-.013.013.048,0,0,.025.074-.036,0,.025.064,0l-.025.025H7.168s-.013.048,0,.048c-.013-.013.036-.025.048-.048.048,0-.064.064-.036.074A.027.027,0,0,1,7.2,4.415h0a.048.048,0,0,1-.028.038c.013.013.025-.025.048-.025-.036.025.025,0,.036,0l-.023.025s.064-.036.048,0l-.048.025H7.25L7.214,4.5s.025,0,.025.013c.025-.013.048-.036.064-.025-.013.013-.025.013-.013.025-.025,0-.048.025-.025,0H7.24v.036H7.3a.2.2,0,0,1-.064.025h.036S7.25,4.6,7.24,4.6s.064,0,.048.013H7.3s-.025.048.025.036l-.036.036s.048-.048.074-.036-.036.025-.048.036c.025,0,.074-.025.048,0h0l-.025.025a.136.136,0,0,0-.074.025c.084-.048.036.025.122-.013h.036s-.013.025-.025.025h.013l.025.025h.048s-.048.025-.048,0c-.084.064.025,0,0,.048H7.423l-.048.048s.064-.064.1-.064c0,0,0,.013.013,0-.036.013-.025.025-.013.025l-.036.025A.189.189,0,0,0,7.5,4.849L7.446,4.9s.048-.036.064-.025c0,.025.013.025.048.025,0,.013-.025,0-.036.025h.025A.176.176,0,0,1,7.612,4.9c.048-.025-.048.064,0,.036a.038.038,0,0,0-.036.025H7.66l-.025.025a.346.346,0,0,1,.11-.036l.025-.025h.036a.181.181,0,0,0-.036.025h0a.176.176,0,0,1-.064.025l.025-.025s-.064.025-.084.036H7.66l-.048.036h.025v.025a.41.41,0,0,1,.148-.025.184.184,0,0,0-.1.048c.036-.025-.025,0-.025-.025,0,0-.025.013-.025.025h.048a.081.081,0,0,0-.036.036c.064-.036.048,0,.074,0-.025,0-.048.025-.048,0-.036.036.084-.025.048,0h0c.025,0,.013.025,0,.025h0a.064.064,0,0,0,.084.025h0l-.074.036.206-.064a.894.894,0,0,1-.2.084.012.012,0,0,0,.013.013.4.4,0,0,1,.074-.036c-.048.036-.025.025-.064.064,0,0,.084-.048.084-.036a.594.594,0,0,1-.084.036l.084-.025s-.064.036-.084.048c.013,0,0,.013.013.013h.013s.11-.048.122-.025c-.013,0-.1.036-.1.064a1.886,1.886,0,0,1,.232-.074h0s-.2.074-.245.084c-.013.013-.025.013-.013.025-.013.013-.036,0-.036,0v.025a.137.137,0,0,0,.084-.025H7.778s.135-.048.135-.025a.687.687,0,0,1-.1.048h0s.064,0,.036.025c0,0-.048.036-.025.025a1.344,1.344,0,0,1,.232-.122.3.3,0,0,1-.064.064c-.036.025-.1.036-.122.064h.036s-.036.013-.025.025c.048-.025,0,.025.036-.013.013,0,0,.013,0,.025a.4.4,0,0,1,.122-.036.271.271,0,0,0-.028.023v.064a.053.053,0,0,1-.036.025H8s-.013,0-.048.025c.025-.013.048,0,.064,0,.036-.025,0-.025-.025-.025a.268.268,0,0,1,.158-.036c.025,0-.036.025-.025.025,0,.036.11-.025.084.013a.383.383,0,0,1-.1.048c-.025,0,0-.025,0-.036h0s-.025.013-.025,0c-.025.025.025.048,0,.084a.048.048,0,0,0,.036-.013h0s.048-.013.048-.025h.048l-.036.025s.025-.025,0-.013c.025,0-.036.048.013.025l.025-.025s.074-.013.064,0c.036-.025,0,0,.036-.036-.048.036-.013-.025-.064.013.048-.036.013-.025.048-.064-.013,0-.025.013-.025,0H8.267V5.57H8.193a.074.074,0,0,0,.025-.013H8.193s.036-.036.064-.036h0s.013-.036,0-.036H8.221s-.074-.025-.025-.074c0,0-.025,0-.025-.013H8.2s0-.048-.013-.036c.064-.048,0-.048,0-.064h-.1V5.262h0c.048-.048-.074-.013-.036-.064h0V5.175a.038.038,0,0,0-.036.025H7.989s-.025,0,.025-.036a.233.233,0,0,0-.084,0h0V5.139l.036-.025H7.9a.664.664,0,0,0,.064-.025H7.9s-.048,0-.025-.025-.025-.064,0-.11c-.074.048.025-.036-.036,0,.013,0,.025-.025.036-.025-.025,0,.013-.036-.036-.025a.048.048,0,0,0,.036-.013H7.9a.58.58,0,0,0-.122.036c.025-.025.013-.025-.025,0,.013,0,.025-.025.036-.025s0-.048-.036-.025h0a.039.039,0,0,0-.013-.025H7.716s-.025,0,0-.048H7.688c-.064.048.025-.025,0-.025H7.676a.607.607,0,0,0,.084-.064h.013a.091.091,0,0,1-.064,0c.025-.013.064-.025.048-.036.013-.013-.084.013-.048-.025-.013,0-.025.025-.048.025,0,0,.048-.064,0-.036h0a.065.065,0,0,0-.074,0c.1-.064-.084-.013.013-.074L7.574,4.54h0a.091.091,0,0,0-.064,0,.035.035,0,0,0,.025-.013q0-.036-.064-.025L7.5,4.477s.025-.064-.025-.064h.013s.048-.11-.074-.048H7.377a.17.17,0,0,0-.064.048s.025-.036.036-.036h0a.082.082,0,0,1,.036-.064c-.025-.036-.025-.1-.048-.135L7.3,4.214h0l.036-.036c.025-.025-.036,0-.036,0,0-.025.064-.025.048-.036H7.337s-.036.025-.048,0,.025-.025.025-.025H7.278l-.036.036c.048-.048-.025-.074,0-.084a.069.069,0,0,1-.048-.013s-.036.036-.048.025c.084-.064.013-.036.064-.1-.025.036-.036-.025-.074.036,0-.013.025-.025.036-.048-.048,0-.013-.064-.048-.074l-.036.036.036-.048s-.064.048-.036,0c0,0-.013.025-.025.025A.091.091,0,0,0,7,3.837c-.028-.01-.048-.036-.036-.1,0,.025-.013.025-.025.013L6.9,3.788V3.745s0-.013-.048.013h0c-.038.051-.079.1-.122.148.048-.036-.036.084.036.036h0l.11-.036ZM7.52,4.8H7.507C7.543,4.788,7.533,4.8,7.52,4.8Z" transform="translate(-5.015 -3.664)" fill="#f5b6c3"/>
    <path id="_パス_1502" d="M12.833,11s-.013.013,0,.013h0S12.859,10.987,12.833,11Z" transform="translate(-9.558 -9.07)" fill="#f5b6c3"/>
    <path id="_パス_1504" d="M12.978,10.6s.036-.013.025,0C13.039,10.591,12.955,10.6,12.978,10.6Z" transform="translate(-9.667 -8.773)" fill="#f5b6c3"/>
    <path id="_パス_1505" d="M12.51,11.163l.036-.013H12.51Z" transform="translate(-9.321 -9.185)" fill="#f5b6c3"/>
    <path id="_パス_1508" d="M12.193,10.58s-.013,0,0,.013h.013Z" transform="translate(-9.081 -8.76)" fill="#f5b6c3"/>
    <path id="_パス_1509" d="M12,10.833l.025-.013-.036.025H12v-.013Z" transform="translate(-8.934 -8.939)" fill="#f5b6c3"/>
    <path id="_パス_1510" d="M11.86,10.77s-.036,0-.025.013S11.86,10.783,11.86,10.77Z" transform="translate(-8.817 -8.902)" fill="#f5b6c3"/>
    <path id="_パス_1511" d="M11.74,10h.013l.064-.036L11.743,10h0Z" transform="translate(-8.747 -8.298)" fill="#f5b6c3"/>
    <path id="_パス_1512" d="M10.938,9.81s-.013,0-.048.025c0,.025.036-.013.025,0,.013,0,0-.013.025-.025h0Z" transform="translate(-8.114 -8.186)" fill="#f5b6c3"/>
    <path id="_パス_1513" d="M7.923,3.44l-.013.025h.013Z" transform="translate(-5.894 -3.44)" fill="#f5b6c3"/>
    <path id="_パス_1514" d="M7.73,3.526l.025-.036-.036.025h0l.013.013Z" transform="translate(-5.752 -3.477)" fill="#f5b6c3"/>
    <path id="_パス_1515" d="M9.565,8.09l-.025.025h0V8.09Z" transform="translate(-7.108 -6.905)" fill="#f5b6c3"/>
    <path id="_パス_1516" d="M9.44,7.673h0l.036-.013Z" transform="translate(-7.034 -6.584)" fill="#f5b6c3"/>
    <path id="_パス_1520" d="M38.348,6.335h0V6.31s-.025.036-.048.036c.025.036.025-.013.036,0h0l.013-.013Z" transform="translate(-28.537 -5.578)" fill="#f5b6c3"/>
    <path id="_パス_1523" d="M37.883,6.083s-.013-.005-.013-.013a.048.048,0,0,0,.013.036V6.08Z" transform="translate(-28.217 -5.4)" fill="#f5b6c3"/>
    <path id="_パス_1526" d="M38.035,6.267s0-.048-.025-.025a.027.027,0,0,1,.025.023h0Z" transform="translate(-28.321 -5.523)" fill="#f5b6c3"/>
    <path id="_パス_1528" d="M37.7,6.2s-.013,0-.025-.025a.181.181,0,0,0,.025.036h0V6.193Z" transform="translate(-28.068 -5.474)" fill="#f5b6c3"/>
    <path id="_パス_1531" d="M37.49,6.2V6.17l.013.036-.013-.013Z" transform="translate(-27.934 -5.474)" fill="#f5b6c3"/>
    <path id="_パス_1532" d="M37.315,6.206s-.025-.025-.025-.036v.036Z" transform="translate(-27.785 -5.474)" fill="#f5b6c3"/>
    <path id="_パス_1534" d="M37.605,6.335s-.013-.025-.025-.025Z" transform="translate(-28.001 -5.578)" fill="#f5b6c3"/>
    <path id="_パス_1537" d="M37.945,6.514a.1.1,0,0,1-.025-.064A.088.088,0,0,0,37.945,6.514Z" transform="translate(-28.254 -5.683)" fill="#f5b6c3"/>
    <path id="_パス_1538" d="M37.77,6.46v.025h.013A.074.074,0,0,0,37.77,6.46Z" transform="translate(-28.142 -5.69)" fill="#f5b6c3"/>
    <path id="_パス_1539" d="M37.493,6.475s0-.025-.013-.025v.025Z" transform="translate(-27.926 -5.683)" fill="#f5b6c3"/>
    <path id="_パス_1546" d="M37.224,6.814H37.2c.025.025,0,.048.036.1V6.885s0,.025.013.025c-.013-.025-.013-.048,0-.036a.424.424,0,0,0-.1-.135v.036a.076.076,0,0,1,.048.048h0l.025-.013Z" transform="translate(-27.68 -5.899)" fill="#f5b6c3"/>
    <path id="_パス_1547" d="M37.21,6.6h.025A.08.08,0,0,0,37.2,6.56V6.6h.013Z" transform="translate(-27.718 -5.765)" fill="#f5b6c3"/>
    <path id="_パス_1548" d="M37.383,6.563a.094.094,0,0,0,.036.074V6.6s0-.013-.025-.025h0V6.55h0v.025h0l-.013-.013Z" transform="translate(-27.852 -5.757)" fill="#f5b6c3"/>
    <path id="_パス_1550" d="M37.868,6.706v.025a.061.061,0,0,0-.013-.036h0s-.036-.025-.036-.036a.235.235,0,0,0,.048.064V6.708h0Z" transform="translate(-28.18 -5.839)" fill="#f5b6c3"/>
    <path id="_パス_1552" d="M37.125,6.575,37.1,6.55l.025.036V6.573Z" transform="translate(-27.643 -5.757)" fill="#f5b6c3"/>
    <path id="_パス_1553" d="M37.063,6.625,37.05,6.6v.025Z" transform="translate(-27.606 -5.795)" fill="#f5b6c3"/>
    <path id="_パス_1555" d="M35.1,8.03s-.064-.036-.036-.013l.025.025h.013V8.03Z" transform="translate(-26.125 -6.845)" fill="#f5b6c3"/>
    <path id="_パス_1556" d="M34.625,9.545h0L34.6,9.52v.025Z" transform="translate(-25.78 -7.97)" fill="#f5b6c3"/>
    <path id="_パス_1557" d="M33.99,11.64l.025.025S34.015,11.653,33.99,11.64Z" transform="translate(-25.326 -9.55)" fill="#f5b6c3"/>
    <path id="_パス_1558" d="M36.265,7.27H36.24S36.276,7.3,36.265,7.27Z" transform="translate(-27.002 -6.294)" fill="#f5b6c3"/>
    <path id="_パス_1559" d="M33.31,10.15l.013.013Z" transform="translate(-24.819 -8.44)" fill="#f5b6c3"/>
    <path id="_パス_1565" d="M36.733,6.84l-.013.013h.013Z" transform="translate(-27.36 -5.973)" fill="#f5b6c3"/>
    <path id="_パス_1567" d="M35.594,9.119s-.013-.036,0-.025L35.52,9.03l.074.084h0Z" transform="translate(-26.466 -7.605)" fill="#f5b6c3"/>
    <path id="_パス_1568" d="M30.6,8.654a.181.181,0,0,1,.036.025h-.064s-.013.025.025.048h0a1.016,1.016,0,0,1,.171.074c-.048-.036.1.013.036-.036.013,0,.013.013.036.025q-.025-.025,0-.025h0a.9.9,0,0,0,.084-.048h-.036l.025-.013c-.036-.036-.013.013-.064-.025.064.025.036-.048.1,0,0,0-.036-.013-.025-.025h.048s0-.025.013-.013h-.013s.048-.048.025-.1h-.013a.053.053,0,0,0,.025-.036h0s-.013-.025,0-.025.036,0,.048.025c-.013-.036-.013-.025-.064-.074h.025s-.025-.013-.025-.025c.013.025.036.013.064.036.064,0-.025-.064.048-.025-.064-.048-.048,0-.064-.013s-.036-.036-.025-.036.084.036.1.025h0s-.013-.025.025-.013c-.036-.025,0,0-.036-.036v.025s-.064-.064-.025-.064l.025.025s0-.013.013,0c.048.036,0,.025.025.064.025,0-.025-.036.025,0-.064-.048.025-.013-.025-.064l.025.025V8.335l.025.025s.036,0,.036-.025c-.013.025-.036-.013-.064-.025-.025-.048.084.036.1,0h.013c0-.025-.036-.013-.048-.036.036.013,0-.013-.013-.036l.025.025s-.064-.048-.025-.048l.036.036h.025V8.226c-.025,0-.048-.036-.048-.048.025,0,.025.025.036,0,.013.013.036.036,0,.025l.025.025L31.31,8.2h0l-.025-.048s.025.013.025.025V8.157c.025.013.048.036.048.048V8.167a.027.027,0,0,1,.025.023h0c.025,0-.025-.048,0-.048h0s.048,0,.025-.048l.048.025s-.064-.025-.064-.064.036.025.048.025c-.013-.025-.048-.064,0-.048v.013h.025a.066.066,0,0,0,.048.064c-.074-.064.025-.036-.064-.1h.025s-.048-.036-.025-.048a.061.061,0,0,1,.036.013V7.951H31.5a.291.291,0,0,1-.025-.048c.013,0,0,0,.013.013V7.892s.025.036.013.036c.084.048-.013-.025.048,0h0a.282.282,0,0,0,.074.036.209.209,0,0,1-.1-.064s.013,0,0-.013c.025.025.025,0,.025,0l.036.025a.216.216,0,0,1-.036-.048.226.226,0,0,1,.064.036c.013,0-.048-.025-.048-.048.025,0,.013-.025,0-.048.025,0,.025.025.036.025L31.577,7.8h.013s-.036-.025-.036-.036c-.036-.036.074.025.036-.025.013,0,.025.025.036.025a.155.155,0,0,0-.036-.074h.036s-.064-.036-.074-.074h-.025V7.573l.025.025h0a.1.1,0,0,1,.048.036h-.025a.3.3,0,0,0,.064.048H31.7a.466.466,0,0,1-.074-.135.406.406,0,0,1,.074.074c-.036-.025,0,.025-.013.036s.025.013.025.025V7.635s0,.013.025.025c-.064-.048-.025-.048-.036-.064.013.013.036.036.025.036.048.025-.048-.074,0-.048h0c0-.025.013-.025.025,0h0a.053.053,0,0,0,.01-.074c0-.005-.008-.008-.01-.01l.064.064L31.7,7.392s.135.11.148.148c0,0,.025,0,.013-.013l-.064-.048c.048.036.025.013.074.036a.477.477,0,0,1-.064-.074l.064.064-.036-.074.064.064s.013,0,0-.025h-.025s-.064-.1-.048-.11a.185.185,0,0,0,.084.074.819.819,0,0,1-.122-.2H31.8s.1.148.122.2c.025,0,.025.025.025,0,.025.013.025.025.013.036h.036a.148.148,0,0,0-.048-.084v.064s-.074-.11-.048-.122.048.064.064.074h0s-.013-.064.025-.036c0,0,.048.036.036.013a2.621,2.621,0,0,1-.184-.2.66.66,0,0,1,.074.036.525.525,0,0,1,.084.11L31.983,7.3s.025.036.025.025c-.025-.036.025,0-.025-.036,0-.013.013,0,.025,0a.265.265,0,0,1-.064-.11l.025.025a.1.1,0,0,0,.064-.013.081.081,0,0,1,.036.036V7.2s-.013.013.025.048c-.013-.025,0-.036-.013-.064s-.025,0-.025.025a.316.316,0,0,1-.064-.135c0-.025.025.025.025.013.036,0-.036-.1,0-.084a.206.206,0,0,1,.064.084c0,.025-.036,0-.036,0h.025v.025c.025.025.048-.025.084-.013a.048.048,0,0,0-.013-.036h0s0-.036-.025-.036V6.982l.025.036s-.025-.013-.025,0c0-.025.048.036.025-.013l-.025-.025s-.013-.074,0-.064c-.025-.036,0,0-.036-.036.036.048-.036.013.013.064-.036-.036-.025,0-.074-.048,0,0,.025.025,0,.025h0l.013.025c.013.025,0,.036,0,.064,0,0,0-.013-.025-.025V7s-.036-.036-.036-.064H31.96s-.036,0-.036.013V6.99h-.013s0,.064-.064.036c0,0,0,.025-.013.025l-.025-.025s-.036,0-.025.025c-.064-.048-.048.013-.074.025l.025.025a.237.237,0,0,0-.013.036l.025.025a.058.058,0,0,0-.048.025h0c-.074-.036,0,.074-.048.048h0v.025l-.025-.025h0s0,.013.025.036V7.3s0,.025-.036-.013c.013.025,0,.036.036.084h0l-.036-.025.036.048a.6.6,0,0,1-.064-.048c.025.048,0,.025.025.074l-.025-.025s.013.036,0,.025c-.048-.025-.064.048-.122.036.074.048-.036,0,0,.036-.013,0-.025-.013-.036-.036,0,.025-.048,0,0,.048-.013,0-.025-.025-.025-.025h0a.074.074,0,0,0-.013-.025.28.28,0,0,0,.074.1q-.025,0,0,.025a.036.036,0,0,1-.036-.036s-.048.013-.013.036h0s-.013,0-.025.025h0v.036h0s0,.013-.048,0l.025.025s-.048,0-.036.025h.025c-.036-.013-.071-.025-.11-.036V7.645c-.048,0,.036.025.036.048-.025-.013-.048-.036-.064-.036s.036.074,0,.064a.036.036,0,0,1,.036.036c0,.013-.074-.013-.036.025h-.013a.058.058,0,0,0,.025.048c-.1-.064,0,.074-.074.013v.025h-.025a.105.105,0,0,0,.013.048.035.035,0,0,1-.025-.013c-.036,0-.036.013,0,.064l-.036-.025s-.074,0-.048.036h0s-.122,0-.025.074v.036a.27.27,0,0,0,.084.036s-.048,0-.048-.013h0a.1.1,0,0,1-.074-.013c-.025.036-.084.064-.11.1l.048.025h0s-.036,0-.025-.013c-.025,0,0,.025.025.036a.052.052,0,0,1-.048-.036h0s.036.036.025.048-.036-.013-.036,0h-.013l.036.025s-.013.013.036.036c-.074-.025-.064.048-.084.036.025.025,0,.036,0,.048s.048.025.036.036c-.084-.048-.048,0-.11-.025.048.013,0,.036.048.064a.2.2,0,0,1-.064-.025c.013.036-.048.036-.064.074a.058.058,0,0,1,.048.025l-.064-.025s.064.036.013.025c0,0,.025,0,.025.013-.084.025-.025.135-.158.122q.025,0,.025.013h0l.036-.028Zm.953-.805s.013.025,0,.013S31.552,7.849,31.552,7.849Z" transform="translate(-22.755 -6.003)" fill="#f5b6c3"/>
    <path id="_パス_1572" d="M37.2,7h.025S37.2,6.971,37.2,7Z" transform="translate(-27.718 -6.082)" fill="#f5b6c3"/>
    <path id="_パス_1574" d="M36.687,6.879s-.025-.036,0-.025C36.674,6.818,36.687,6.9,36.687,6.879Z" transform="translate(-27.327 -5.977)" fill="#f5b6c3"/>
    <path id="_パス_1575" d="M37.29,7.23l.013.025.013.013-.025-.036h0Z" transform="translate(-27.785 -6.264)" fill="#f5b6c3"/>
    <rect id="_長方形_151" height="0.013" transform="translate(9.503 0.999)" fill="#f5b6c3"/>
    <path id="_パス_1578" d="M36.72,7.635s.013.013.013,0V7.61h0Z" transform="translate(-27.36 -6.547)" fill="#f5b6c3"/>
    <path id="_パス_1579" d="M36.985,7.775s-.013,0-.025-.025l.025.036h0V7.773Z" transform="translate(-27.539 -6.651)" fill="#f5b6c3"/>
    <path id="_パス_1580" d="M37.013,7.965s0-.025-.013-.025S37,7.976,37.013,7.965Z" transform="translate(-27.569 -6.793)" fill="#f5b6c3"/>
    <path id="_パス_1581" d="M36.136,8.044h0L36.1,7.98Z" transform="translate(-26.898 -6.823)" fill="#f5b6c3"/>
    <path id="_パス_1582" d="M36.165,8.983a.027.027,0,0,1-.025-.023h0c0,.025,0,.013.036.048.025,0-.025-.036,0-.025h-.013Z" transform="translate(-26.928 -7.553)" fill="#f5b6c3"/>
    <path id="_パス_1583" d="M30.505,13.89l-.025.013h.025Z" transform="translate(-22.711 -11.226)" fill="#f5b6c3"/>
    <path id="_パス_1584" d="M30.626,14.005l-.036-.025Z" transform="translate(-22.793 -11.293)" fill="#f5b6c3"/>
    <path id="_パス_1586" d="M34.366,11.035h0l-.036-.025Z" transform="translate(-25.579 -9.08)" fill="#f5b6c3"/>
    <path id="_パス_1588" d="M42.57,32.225,42.6,32.2S42.57,32.236,42.57,32.225Z" transform="translate(-31.719 -24.869)" fill="#f5b6c3"/>
    <path id="_パス_1589" d="M42.243,32.4l.013-.013-.025.025.013-.013Z" transform="translate(-31.466 -25.011)" fill="#f5b6c3"/>
    <path id="_パス_1590" d="M42.189,32.3s-.036.025-.025,0c-.025.048.013,0,0,.013h0l.025-.025h0Z" transform="translate(-31.41 -24.936)" fill="#f5b6c3"/>
    <path id="_パス_1593" d="M42.255,31.86s-.018.023-.025.036h.013V31.86Z" transform="translate(-31.466 -24.616)" fill="#f5b6c3"/>
    <path id="_パス_1596" d="M42.18,32.12s.025-.036.013-.025A.035.035,0,0,1,42.18,32.12Z" transform="translate(-31.428 -24.789)" fill="#f5b6c3"/>
    <path id="_パス_1598" d="M42.115,31.885V31.86a.181.181,0,0,1-.025.036h0l.025-.013Z" transform="translate(-31.361 -24.616)" fill="#f5b6c3"/>
    <path id="_パス_1600" d="M42.04,32.186l.036-.036Z" transform="translate(-31.324 -24.832)" fill="#f5b6c3"/>
    <path id="_パス_1601" d="M42.14,31.745l.025-.025Z" transform="translate(-31.399 -24.511)" fill="#f5b6c3"/>
    <path id="_パス_1602" d="M42.09,31.666s.013-.036.025-.036l-.025.025v.013Z" transform="translate(-31.361 -24.444)" fill="#f5b6c3"/>
    <path id="_パス_1607" d="M41.94,32.2a.1.1,0,0,1,.036-.048C41.976,32.163,41.95,32.175,41.94,32.2Z" transform="translate(-31.25 -24.832)" fill="#f5b6c3"/>
    <path id="_パス_1608" d="M41.99,32.075A.074.074,0,0,1,42,32.05H41.99Z" transform="translate(-31.287 -24.757)" fill="#f5b6c3"/>
    <path id="_パス_1616" d="M41.424,31.952v-.025c-.013.036-.036.036-.064.084h0c.013-.025.036-.048.025-.013a.849.849,0,0,0,.084-.148.038.038,0,0,1-.025.036.088.088,0,0,1-.025.064h0Z" transform="translate(-30.817 -24.608)" fill="#f5b6c3"/>
    <path id="_パス_1617" d="M41.813,31.835h0l.013-.025-.025.025Z" transform="translate(-31.145 -24.579)" fill="#f5b6c3"/>
    <path id="_パス_1618" d="M41.746,31.921a.061.061,0,0,1,.013-.036h0V31.86h-.013a.514.514,0,0,0-.036.064s.013-.025.025-.025h0l.013.023Z" transform="translate(-31.078 -24.616)" fill="#f5b6c3"/>
    <path id="_パス_1619" d="M41.8,32.183a.338.338,0,0,0-.036.064H41.75s.018-.025.025-.038h0a.127.127,0,0,1,.025-.048h0v.025Z" transform="translate(-31.108 -24.839)" fill="#f5b6c3"/>
    <path id="_パス_1620" d="M41.75,32.26v.025h0a.061.061,0,0,1,.013-.036H41.75v.013Z" transform="translate(-31.108 -24.906)" fill="#f5b6c3"/>
    <path id="_パス_1621" d="M41.82,31.756l.025-.036-.036.036h.013Z" transform="translate(-31.153 -24.511)" fill="#f5b6c3"/>
    <path id="_パス_1622" d="M41.8,31.773h0l.013-.013Z" transform="translate(-31.145 -24.541)" fill="#f5b6c3"/>
    <path id="_パス_1624" d="M40.79,31.215s.025-.064,0-.036V31.2h0v.013Z" transform="translate(-30.393 -24.103)" fill="#f5b6c3"/>
    <path id="_パス_1627" d="M41.353,31.6V31.57S41.341,31.606,41.353,31.6Z" transform="translate(-30.808 -24.4)" fill="#f5b6c3"/>
    <path id="_パス_1635" d="M39.923,32.1l.025-.025L39.984,32l-.064.1h0Z" transform="translate(-29.744 -24.72)" fill="#f5b6c3"/>
    <path id="_パス_1636" d="M38.134,30.533s.036-.036.036-.025l-.025.036v-.013s-.025.064.013,0v-.025a.588.588,0,0,1,.048-.036c.025-.036,0,0,.013-.036-.025.064-.013,0-.036.048.025-.048,0-.025.025-.074,0,.013,0,.025-.013.013h0v.036a.339.339,0,0,0-.048.036.035.035,0,0,1,.013-.025v.025a.144.144,0,0,1,.013-.064h0v-.023H38.16s-.048.036-.025-.013h-.013v-.025h0c.036-.064-.013-.025-.013-.036v.036H38.06v.025l-.025-.025h0c.025-.074-.048.036-.036-.013h0v-.023h0s0,.013-.025.036h-.013s-.013.025,0-.025c-.013.025-.025,0-.048.064h0a.189.189,0,0,1,.013-.064l-.048.048v-.028h0c.013-.048-.036-.025-.025-.074-.036.074,0-.036-.025.025,0-.013,0-.025.025-.036-.013.013,0-.036-.025,0,0-.013.013-.025.025-.036h0a.074.074,0,0,1,.013-.025c-.023.031-.043.064-.064.1q0-.025-.013,0s0-.036.025-.036c0,0,0-.036-.025,0h-.013s0,.013-.025.025h0s-.013,0,0-.036V30.3c-.048.064,0-.048-.025-.025V30.3s.025-.1.025-.11v-.013c0-.048-.025.036-.036.048,0-.025.025-.048.025-.064s-.048.064-.036.025a.048.048,0,0,1-.025.048s0-.074-.013-.025h0s-.025,0-.036.036c.036-.11-.048.036,0-.064h0a.038.038,0,0,0-.036.025v-.02q0-.025-.036.025v-.036s0-.064-.013-.025h0s0-.11-.048,0l-.025.025a.254.254,0,0,0-.025.074v-.048h0v-.064c-.025,0-.036-.048-.064-.064v.048h-.025s0-.048.013-.036c0-.025-.013.025-.025.036a.153.153,0,0,1,.025-.064h0s-.013.048-.025.048v-.031h0v.025s-.013,0-.025.036c.013-.074-.036-.036-.025-.064-.013.025-.025.025-.025.025s0,.048-.013.048c.025-.084,0-.036,0-.11,0,.048-.025,0-.036.074v-.064c-.025.036-.025-.025-.048-.025a.105.105,0,0,1-.013.048v-.064s-.013.074,0,.025v.025c-.025-.064-.084.036-.1-.084v.025s-.025,0-.025.048h0s-.013.11-.025.171c.013-.064,0,.084.025,0v.041c0-.025,0-.036.013-.025h0a.1.1,0,0,0,.036.048v-.013c.013-.048,0,0,0-.064,0,.064.025,0,.013.084,0,0,0-.036.013-.036h0v.048h.013a.082.082,0,0,0,.064-.036h.025l.013-.013a.064.064,0,0,1-.013.048c.025-.025.013-.025.036-.074v.025s0-.036.013-.036a.07.07,0,0,1-.025.064c0,.064.036-.048.025.036.025-.064,0-.036,0-.048s.025-.048.025-.036-.025.084,0,.084h0c.013-.036,0,0,.025-.048H37.3s.036-.064.036-.025a.061.061,0,0,1-.013.036h0c-.013.048-.013,0-.036.048,0,.025.025-.036,0,.025.025-.074,0,0,.036-.036v.036h0v.025s-.013.036,0,.013a.189.189,0,0,1,.013-.064c.025-.036-.025.084,0,.074h0a.058.058,0,0,1,.025-.048c0,.036,0-.013.025-.025v.036s.013-.064.013-.036l-.025.036h0V30.4h0a.153.153,0,0,1,.025-.064c0,.025-.013.025,0,.025,0,.025-.025.048-.013.013V30.4h0l.025-.036s0,.025-.013.025v-.023a.144.144,0,0,1-.013.064l.025-.025v.036s.036-.048.036-.025h0s0,.025.025,0v.048s0-.064.025-.074-.013.036-.013.048c.013-.025.036-.064.036-.025h0v.025a.173.173,0,0,0-.036.064c.036-.084.025,0,.064-.084v.025h0s.036-.064.036-.036v.013h.025s.025-.013.025-.025v.036c-.036.084.013-.025,0,.036h0a.181.181,0,0,1-.013.074.342.342,0,0,1,.036-.1h0c-.013.036,0,.025,0,.025v-.013a.1.1,0,0,1-.025.064.2.2,0,0,1,.025-.064c0,.025,0,0,.036-.013,0,.013-.013.025-.013.036l.025-.036h0s.025-.025.025-.036c.025-.048-.025.074,0,.025a.181.181,0,0,1-.025.036.2.2,0,0,0,.048-.064v.025a.687.687,0,0,1,.048-.1v-.036h.036l-.025.025h0l-.025.048v-.025l-.036.074h0l-.025.036h0s.074-.084.084-.1a.687.687,0,0,0-.048.1c.013-.036-.025.013-.025,0s0,.025-.013.025l.036-.036a.061.061,0,0,1-.013.036c.025-.064.025-.036.048-.064a.041.041,0,0,1-.025.036c-.013.048.048-.074.036-.025h0s.013,0,0,.025h0s.025.013.064-.036l-.036.074.11-.171a1.572,1.572,0,0,1-.1.184h0s.025-.074.036-.074c-.025.048,0,.025-.025.074,0,0,.036-.084.048-.074l-.036.074.048-.064a.27.27,0,0,0-.036.084c0-.013,0,0,.013,0h0s.064-.11.074-.1-.048.084-.048.1c.025-.036.1-.171.122-.2h0s-.1.158-.122.2v.025a.027.027,0,0,1-.023.025h0V30.6a.883.883,0,0,0,.064-.074l-.036.036s.074-.11.074-.1a.344.344,0,0,1-.048.084c0-.013.025-.025.025-.013v.025h0s-.025.064,0,.036c.025-.048.1-.2.122-.232a.423.423,0,0,1-.025.074.6.6,0,0,1-.074.122s.013-.025.025-.025-.025.036-.013.036l.025-.036h0a.541.541,0,0,1,.074-.1v.036s-.013.025,0,.036a.038.038,0,0,1-.025.036v.025c.013-.025.025-.025.036-.036.025-.036,0,0-.013,0a.521.521,0,0,1,.084-.122c.013,0-.013.036,0,.025,0,.013.064-.084.064-.036a.452.452,0,0,1-.048.084c-.013,0,0-.025,0-.025h0s-.013.036-.013.025c-.013.036.025.025.013.048a.181.181,0,0,1,.025-.036h0a.216.216,0,0,0,.036-.048h0l-.14.079Z" transform="translate(-27.576 -23.215)" fill="#f5b6c3"/>
    <path id="_パス_1642" d="M41.595,31.677s.025-.036.013-.025C41.633,31.626,41.572,31.687,41.595,31.677Z" transform="translate(-30.988 -24.456)" fill="#f5b6c3"/>
    <path id="_パス_1643" d="M41.42,32.323v.013l.013-.036-.013.025Z" transform="translate(-30.862 -24.944)" fill="#f5b6c3"/>
    <path id="_パス_1646" d="M41.13,32.113v.013l.013-.025h0Z" transform="translate(-30.646 -24.795)" fill="#f5b6c3"/>
    <path id="_パス_1648" d="M40.88,32.555a.111.111,0,0,0,.013-.025S40.867,32.555,40.88,32.555Z" transform="translate(-30.457 -25.115)" fill="#f5b6c3"/>
    <path id="_パス_1649" d="M40.7,31.964h0l.036-.064Z" transform="translate(-30.326 -24.646)" fill="#f5b6c3"/>
    <path id="_パス_1650" d="M40.1,32.465V32.44l-.025.048c0,.025.025-.036.013-.013h0l.013-.013Z" transform="translate(-29.856 -25.048)" fill="#f5b6c3"/>
    <path id="_パス_1651" d="M36.973,30.065l-.013-.025v.025Z" transform="translate(-27.539 -23.26)" fill="#f5b6c3"/>
    <path id="_パス_1654" d="M38.793,32.046l.013-.036-.025.036Z" transform="translate(-28.895 -24.728)" fill="#f5b6c3"/>
    <path id="_パス_1658" d="M21.085,46.68v.013h.025S21.074,46.693,21.085,46.68Z" transform="translate(-15.709 -35.658)" fill="#f5b6c3"/>
    <path id="_パス_1703" d="M19.879,44.1h.11c.025,0,.064,0,.036.013h.11c-.064,0,0-.013-.064,0h.051s.025-.013,0-.013h0s-.048-.025,0-.036h.025s.025,0,0-.013c.074,0,.013-.013.025-.025h-.036l-.025-.013h-.036a.027.027,0,0,0,.025-.023h0c.074,0-.048-.013,0-.025h-.084c.064,0,0-.025.064-.036h.025c-.025,0,.036,0-.025-.013h-.025s.025-.013-.025-.013H20s-.025,0,.025-.013h-.036c-.074,0,.048,0,.013-.013h-.025a.391.391,0,0,0,.11-.013h.025s-.084-.013-.036-.025h-.048s.074-.013,0-.013h-.048c.122-.013-.064-.013.048-.025h0a.09.09,0,0,0-.048-.025H20c.025,0,.013-.013-.036-.013H20s.064-.025.013-.025h.013c-.048,0,.1-.036-.036-.025h-.107s.036-.013.048,0h0c.074,0,.025-.013.074-.013,0-.013.036-.036.025-.064h-.084c.074-.013.025-.036.048-.036h-.074c.1,0,.036-.013.11-.025-.048,0-.013-.013-.074,0h.064c-.036,0,.025-.025,0-.036h.013s-.074,0-.025-.025h-.036s-.064-.036.048-.074h-.074L20,43.41h-.048l-.184.036c.064,0-.084.025,0,.025h-.01l-.036.036h0l.064-.013c-.074.013,0,.025-.074.036h.013s0,.025.036.025h.013s-.013,0,0,.013h0c-.064.013.064,0-.025.025.074,0,.036-.013.064-.013h.048s-.1.013-.1.025h-.036s-.036.025,0,.025a.189.189,0,0,0,.064-.013c.048,0-.084.013-.074.025h.036s.025,0,0,.013h0a.34.34,0,0,1-.048.013c-.013,0,.064,0,.036.013h.013s-.036.013,0,.013H19.66c.1,0,0,.013.11,0h.064s0,.013-.025.013h-.025c-.1,0,.025,0-.036.013h-.013a.25.25,0,0,0-.074.013.4.4,0,0,1,.11,0h-.01l.036.013h.048c.048,0-.074.013-.013.013h-.074s.135.025.158.025h-.11c.048,0-.025,0,0-.013h.013a.105.105,0,0,0-.048.013h.048s0,.025.064.025H20s-.184.013-.206.013h-.084a.479.479,0,0,0,.084.013h.232a.305.305,0,0,0-.084.013H19.92s-.025.013-.025.025h.1s.11,0,.064.025h-.11c-.036,0,0,.025-.036.025h0l-.018.173Z" transform="translate(-14.649 -33.222)" fill="#f5b6c3"/>
    <path id="_パス_1710" d="M20.66,46.2l.036-.013H20.66Z" transform="translate(-15.394 -35.293)" fill="#f5b6c3"/>
    <path id="_パス_1724" d="M0,32.84l.013.013L0,32.83v.013Z" transform="translate(0 -25.339)" fill="#f5b6c3"/>
    <path id="_パス_1725" d="M.1,32.757h0v.025s.013-.036.025-.025C.1,32.709.125,32.757.1,32.757Z" transform="translate(-0.075 -25.268)" fill="#f5b6c3"/>
    <path id="_パス_1733" d="M.53,33.08l.013.025A.061.061,0,0,0,.53,33.07h0v.013Z" transform="translate(-0.395 -25.517)" fill="#f5b6c3"/>
    <rect id="_長方形_160" height="0.036" transform="translate(0.079 7.502)" fill="#f5b6c3"/>
    <path id="_パス_1735" d="M.633,33.18v.025L.62,33.17l.013.013h0Z" transform="translate(-0.462 -25.592)" fill="#f5b6c3"/>
    <path id="_パス_1736" d="M.72,33.153a.34.34,0,0,1,.013.048v-.038H.72V33.15Z" transform="translate(-0.536 -25.577)" fill="#f5b6c3"/>
    <path id="_パス_1738" d="M.53,33.02s0,.025.013.025V33.02Z" transform="translate(-0.395 -25.48)" fill="#f5b6c3"/>
    <path id="_パス_1741" d="M.33,32.68a.257.257,0,0,1,.013.064A.143.143,0,0,0,.33,32.68Z" transform="translate(-0.246 -25.227)" fill="#f5b6c3"/>
    <path id="_パス_1743" d="M.633,32.973V32.96H.62v.013Z" transform="translate(-0.462 -25.435)" fill="#f5b6c3"/>
    <path id="_パス_1750" d="M.633,32.331l.013.025c-.013-.036,0-.048-.025-.1v.025a.473.473,0,0,0,.064.148V32.4a.089.089,0,0,1-.025-.048h0l-.025-.013Z" transform="translate(-0.462 -24.914)" fill="#f5b6c3"/>
    <path id="_パス_1751" d="M.77,32.92h0s0,.013.025.036V32.92Z" transform="translate(-0.574 -25.406)" fill="#f5b6c3"/>
    <path id="_パス_1752" d="M.645,32.7A.113.113,0,0,0,.62,32.63v.036a.074.074,0,0,0,.013.025h0v.025h0Z" transform="translate(-0.462 -25.189)" fill="#f5b6c3"/>
    <path id="_パス_1753" d="M.33,32.515a.29.29,0,0,1,.025.048A.136.136,0,0,0,.33,32.49h0v.036h0v-.013Z" transform="translate(-0.246 -25.085)" fill="#f5b6c3"/>
    <path id="_パス_1755" d="M.81,32.94l.013.025L.81,32.93v.013Z" transform="translate(-0.604 -25.413)" fill="#f5b6c3"/>
    <path id="_パス_1756" d="M.86,32.92l.013.025v-.013Z" transform="translate(-0.641 -25.406)" fill="#f5b6c3"/>
    <path id="_パス_1758" d="M2.06,32.54s.036.064.025.025V32.54Z" transform="translate(-1.535 -25.122)" fill="#f5b6c3"/>
    <path id="_パス_1761" d="M1.33,32.7s.005.013.013.013S1.317,32.678,1.33,32.7Z" transform="translate(-0.988 -25.235)" fill="#f5b6c3"/>
    <path id="_パス_1769" d="M1.87,31.19v.025l.036.084Z" transform="translate(-1.393 -24.117)" fill="#f5b6c3"/>
    <path id="_パス_1770" d="M2.154,30.154s-.048-.11-.074-.171c.013.064-.048-.074-.025,0v-.013h0a.664.664,0,0,1-.064-.025h0c.013.048.013,0,.025.048-.025-.064-.036,0-.064-.064,0,0,.013.036,0,.036h0s-.025-.025-.025-.036H1.915a.066.066,0,0,0-.048.064h0s-.013,0-.025.025h0v.025A.165.165,0,0,1,1.815,30a.233.233,0,0,0,.013.084V30.1c0-.025-.025-.036-.025-.064-.036-.048,0,.064-.036-.013.025.074.025.036.025.048s.013.048,0,.048-.036-.084-.048-.074h0s0,.025-.013,0c.013.036,0,0,0,.048h0s.013.064,0,.036V30.1h0c-.025-.048,0-.013,0-.064,0-.025,0,.036-.013-.013.025.074-.013,0,0,.048h0l-.025-.036s-.025-.025-.025,0c.013,0,.025.036.036.064,0,.048-.036-.074-.048-.048l.025.025-.025-.025a.339.339,0,0,1,.013.048c-.025-.036,0,.013,0,.036V30.1H1.655v-.023s-.013.025-.025.013c0,.025.025.064.013.064s0-.025-.013-.025c0-.025-.013-.048,0-.013v-.025H1.6v.036a.474.474,0,0,1-.025-.064V30.1s-.025-.025-.025-.036,0,.064-.013.036h0s-.036-.013-.025.025l-.025-.048s.036.048.025.074-.025-.036-.025-.048c0,.025.013.074,0,.036h0v-.023a.226.226,0,0,0-.036-.064c.036.084-.025.025.013.11H1.453v-.023s.025.064,0,.064a.049.049,0,0,1-.013-.025V30.2H1.428v.036s-.013-.048,0-.048c-.048-.084,0,.025-.036-.025h0c-.025-.064-.025-.036-.048-.074,0,.013.048.074.048.1h0c-.013-.036-.013-.025-.013-.025v.01a.337.337,0,0,1-.036-.064.474.474,0,0,1,.025.064c-.013-.013-.013,0,0,.036a.046.046,0,0,0-.01-.036V30.2h0a.238.238,0,0,1,.013.036c.013.048-.036-.064-.025,0a.061.061,0,0,0-.013-.036v.074l-.025-.025s.025.074.036.1l.025.036v.025a.061.061,0,0,0-.013-.036h0l-.025-.048v.025a.181.181,0,0,0-.013-.074h0l-.025-.036h0v.145c0-.036-.025-.064-.036-.1.025.036,0-.025.013-.013l-.013-.025V30.3a.045.045,0,0,0-.025-.038c.025.064,0,.048,0,.074,0-.025-.013-.048,0-.036-.025-.048.025.084,0,.036h0c0,.025,0,0-.013,0h0s-.036,0-.013.064l-.025-.074.048.194a1.452,1.452,0,0,1-.074-.184h0a.4.4,0,0,1,.036.074l-.036-.074s.036.084.025.084a.417.417,0,0,0-.036-.084l.025.074s-.025-.064-.036-.084h0s.025.122.013.122-.036-.1-.048-.1c0,.036.064.184.064.219h0s-.064-.184-.074-.232c0-.013,0-.025-.013-.025v-.038H1.051a.136.136,0,0,0,.025.074V30.3s.036.122.025.122a.442.442,0,0,0-.036-.1h0s0,.064-.013.025c0,0-.025-.048-.025-.025.025.048.084.206.1.245,0,0-.036-.048-.048-.064-.025-.036-.025-.1-.048-.122v.036s-.013-.036-.013-.025c.013.048-.013,0,0,.036,0,.013,0,0-.013,0,.013.025.036.1.025.11a.061.061,0,0,0-.013-.036c-.013,0-.025-.025-.036-.013a.181.181,0,0,0-.025-.036v.025l-.013-.048V30.5c.013.036.013,0,.013-.013a.333.333,0,0,1,.036.148c0,.013-.013-.036-.013-.025-.025,0,.025.1,0,.064a.442.442,0,0,1-.036-.1c0-.013.025.025.025.013H.954V30.56c-.013-.025-.036,0-.064-.025v.036H.908a.089.089,0,0,0,.013.048h0c0,.025-.036-.048-.013,0v.025s.025.064.013.064c.013.036,0,0,.025.036-.025-.064.025,0,0-.064a.313.313,0,0,0,.036.064V30.72h0v-.087a.474.474,0,0,1,.025.064h0s.025.025.025,0h0v-.025h0s0-.048.036,0v.013s.036.025.025,0c.036.064.025,0,.048.013v-.084s.018.008.023,0h0c.036.064,0-.064.036-.013h.025l-.013-.025v-.025s0-.025.025.036a.305.305,0,0,0-.013-.084h0v-.013a.282.282,0,0,1,.036.074v-.048s0-.036.013-.013c.025.048.036,0,.074.036-.036-.074.025.025,0-.025,0,.013.013.025.025.048,0-.025.025.025.013-.025a.048.048,0,0,0,.013.036h0v.023a.551.551,0,0,0-.036-.11c.013.025.013.013,0-.013,0,.013.025.036.013.036s.036.013.013-.025H1.4v-.023h0s0-.013.036.025v-.025c-.036-.064.013.036.013,0h0s.048.074.064.074v.013c.025.036-.013-.036,0-.048a.153.153,0,0,0,.025.064c0,.013-.013-.074.013-.036a.09.09,0,0,0-.025-.048s.048.064.025,0h0v-.051c.048.11,0-.064.048.036h.013v-.025c.025.013.025,0,.013-.048v.036s.064.036.048,0h0s.074.084.025-.025v-.036l-.036-.074s.025.025.025.036h0s.025,0,.036.048c.025-.013.064,0,.084,0l-.025-.048h0s.013.036,0,.036c.013.025,0-.025,0-.036.025.013.013.064.025.064h0v-.051l.013.025h.013l-.025-.036v-.038c.036.064.048,0,.064.025v-.036s-.025-.048-.013-.048c.036.084.025.036.064.1-.025-.036.013-.013-.013-.074a.127.127,0,0,0,.025.048c0-.036.036,0,.048,0a.17.17,0,0,1-.013-.048l.036.048s-.025-.064,0-.025v-.025s.036-.074.11.025c-.013-.025,0-.025,0-.025h0s.025,0,.013-.048h0l.036-.061Z" transform="translate(-0.663 -23.178)" fill="#f5b6c3"/>
    <path id="_パス_1774" d="M.773,32.563s0-.013-.013,0Z" transform="translate(-0.566 -25.136)" fill="#f5b6c3"/>
    <path id="_パス_1777" d="M.72,32.253V32.24l.013.036L.72,32.25Z" transform="translate(-0.536 -24.899)" fill="#f5b6c3"/>
    <path id="_パス_1783" d="M1.44,31.96h0l.025.064Z" transform="translate(-1.073 -24.69)" fill="#f5b6c3"/>
    <path id="_パス_1784" d="M1.529,31.217a.074.074,0,0,0,.013.025c0-.013,0,0-.013-.048-.013-.013.013.036,0,.025Z" transform="translate(-1.137 -24.118)" fill="#f5b6c3"/>
    <path id="_パス_1785" d="M5.94,31.1l.013.013Z" transform="translate(-4.426 -24.049)" fill="#f5b6c3"/>
    <path id="_パス_1788" d="M2.97,30.57h0L3,30.606Z" transform="translate(-2.213 -23.655)" fill="#f5b6c3"/>
  </g>
</svg>
