<svg xmlns="http://www.w3.org/2000/svg" width="138.582" height="41.914" viewBox="0 0 138.582 41.914">
  <g id="_レイヤー_1-2" transform="translate(-23.816 -4.086)">
    <g id="Group_1380" data-name="Group 1380" transform="translate(23.816 10.25)">
      <path id="_パス_1380-2" d="M82.049,65.727H70.58V43.77h2.392V63.682h9.077Z" transform="translate(-70.58 -42.325)" fill="#f5b6c3"/>
      <path id="_パス_1381-2" d="M122.525,47.725a1.552,1.552,0,0,1-1.556-1.549v-.091a1.571,1.571,0,0,1,3.142-.071v.067a1.53,1.53,0,0,1-1.407,1.64,1.056,1.056,0,0,1-.179,0ZM123.736,66.2h-2.392V50.489h2.392v15.7Z" transform="translate(-103.966 -42.795)" fill="#f5b6c3"/>
      <path id="_パス_1382-2" d="M148.32,47.182c0-1.96,0-4.525,1.728-6.283a5.184,5.184,0,0,1,3.631-1.41,5.781,5.781,0,0,1,2.335.462l-.4,1.873a4.486,4.486,0,0,0-1.815-.375c-2.477,0-3.084,2.3-3.084,4.842v.894h3.8v1.873h-3.8V62.89H148.32V49.058h-2.16V47.186h2.16Z" transform="translate(-120.657 -39.488)" fill="#f5b6c3"/>
      <path id="_パス_1383-2" d="M195.719,76.587a11.356,11.356,0,0,1-4.927.979c-4.586,0-7.322-3.226-7.322-7.923,0-4.927,2.767-8.473,7-8.473,4.842,0,6.081,4.437,6.081,7.174,0,.547-.03.952-.057,1.326H185.808c.03,4.35,2.507,5.989,5.331,5.989a9.933,9.933,0,0,0,4.12-.806l.462,1.728h0Zm-1.529-8.7c.03-2.133-.864-4.9-3.948-4.9-2.885,0-4.15,2.737-4.38,4.9Z" transform="translate(-145.377 -53.854)" fill="#f5b6c3"/>
      <path id="_パス_1384-2" d="M277.61,45.836a7.454,7.454,0,0,0-3.86-1.009c-3.054,0-4.208,1.873-4.208,3.459,0,2.16,1.326,3.253,4.265,4.495,3.543,1.5,5.358,3.314,5.358,6.455,0,3.486-2.538,6.165-7.262,6.165a10.109,10.109,0,0,1-5.244-1.383l.665-1.987a8.928,8.928,0,0,0,4.727,1.353c2.939,0,4.667-1.586,4.667-3.948,0-2.16-1.184-3.486-4.036-4.64-3.314-1.238-5.561-3.169-5.561-6.2,0-3.344,2.71-5.79,6.715-5.79a8.938,8.938,0,0,1,4.495,1.036l-.719,1.987h0Z" transform="translate(-200.496 -41.685)" fill="#f5b6c3"/>
      <path id="_パス_1385-2" d="M320.473,52.246l2.362-.806V55.1H326.9v1.873h-4.063v9.077c0,1.987.6,3.084,2.133,3.084a4.753,4.753,0,0,0,1.613-.229l.145,1.846a6.049,6.049,0,0,1-2.335.375c-3.8,0-3.921-3.459-3.921-5.129v-9.02H318.05V55.1h2.419V52.25Z" transform="translate(-234.545 -47.407)" fill="#f5b6c3"/>
      <path id="_パス_1386-2" d="M370.012,73.5a22.082,22.082,0,0,0,.229,3.746h-2.19l-.233-2.018h-.088a5.461,5.461,0,0,1-4.64,2.362,4.357,4.357,0,0,1-4.582-4.113c-.007-.118-.007-.233,0-.351,0-3.773,3.287-5.821,9.1-5.79,0-1.326,0-4.323-3.573-4.323a6.817,6.817,0,0,0-3.833,1.124l-.577-1.643a8.92,8.92,0,0,1,4.792-1.326c4.437,0,5.591,3.142,5.591,6.253V73.5ZM367.65,69.1c-2.969,0-6.685.432-6.685,3.746a2.611,2.611,0,0,0,2.71,2.909,3.837,3.837,0,0,0,3.975-3.688V69.092Z" transform="translate(-261.348 -53.853)" fill="#f5b6c3"/>
      <path id="_パス_1387-2" d="M421.759,63.629a6.752,6.752,0,0,0-.864-.057c-2.595,0-3.921,2.564-3.921,5.217v8.53h-2.389V66.311c0-1.67-.03-3.2-.115-4.7h2.1l.115,3.027h.088a4.7,4.7,0,0,1,4.262-3.371,5.65,5.65,0,0,1,.719.088v2.278h0Z" transform="translate(-298.43 -53.92)" fill="#f5b6c3"/>
    </g>
    <g id="_グループ_125" transform="translate(148 4.086)" opacity="0.85">
      <path id="_パス_1407" d="M21.345,6.574a.168.168,0,0,0-.034-.064C21.278,6.608,21.345,6.574,21.345,6.574Z" transform="translate(-14.114 -5.474)" fill="#f5b6c3"/>
      <path id="_パス_1408" d="M20.627,9.53l-.017.145.017-.128Z" transform="translate(-13.655 -7.475)" fill="#f5b6c3"/>
      <path id="_パス_1409" d="M19.852,10.6h.017s.084,0,.1-.034h0l-.064-.128h0l.034-.145a.306.306,0,0,0-.145.034h0l.064.128a4.74,4.74,0,0,1-.145.486c.064-.047.1-.209.128-.341h.017Zm.064-.145-.034.111Z" transform="translate(-13.059 -7.979)" fill="#f5b6c3"/>
      <path id="_パス_1410" d="M18.864,13.17h0a.216.216,0,0,1-.034.111c.034-.017,0,.111.047-.111H18.86Z" transform="translate(-12.476 -9.887)" fill="#f5b6c3"/>
      <path id="_パス_1412" d="M18.38,14.258V14.13s-.047.128-.047.084c-.034.128,0,.111.047.047h0Z" transform="translate(-12.138 -10.523)" fill="#f5b6c3"/>
      <path id="_パス_1414" d="M18.584,14.263l-.034.145s.034,0,0-.064V14.26h.034Z" transform="translate(-12.291 -10.609)" fill="#f5b6c3"/>
      <path id="_パス_1415" d="M18.65,14.61l.017-.047.034-.243-.047.29h0Z" transform="translate(-12.357 -10.649)" fill="#f5b6c3"/>
      <path id="_パス_1417" d="M15.97,17.314s-.084-.047-.017-.064a1.446,1.446,0,0,0-.273.047h.29Z" transform="translate(-10.389 -12.59)" fill="#f5b6c3"/>
      <path id="_パス_1418" d="M15.29,17.46a1.059,1.059,0,0,0,.128-.034A.16.16,0,0,0,15.29,17.46Z" transform="translate(-10.131 -12.705)" fill="#f5b6c3"/>
      <path id="_パス_1424" d="M15.666,17.6s-.145.017-.226.017h.273s.047-.034-.047-.034h0Z" transform="translate(-10.23 -12.809)" fill="#f5b6c3"/>
      <path id="_パス_1428" d="M14.57,17.571a.308.308,0,0,1,.111.017C14.648,17.588,14.57,17.554,14.57,17.571Z" transform="translate(-9.654 -12.799)" fill="#f5b6c3"/>
      <path id="_パス_1430" d="M16.828,17.63a.15.15,0,0,0-.1.034h.1Z" transform="translate(-11.085 -12.842)" fill="#f5b6c3"/>
      <path id="_パス_1431" d="M11.865,17.784s.358.047.226.084c-.209.017-.179,0-.273-.034.084.047-.273.064-.226.128l.179-.034s-.064.034,0,.034c0-.034.2-.064.358-.034.162-.034.047-.145-.084-.209,0,0,0,.034-.162.047h0l-.013.013Z" transform="translate(-7.677 -12.901)" fill="#f5b6c3"/>
      <path id="_パス_1432" d="M12.94,17.627h.375a1.68,1.68,0,0,1-.226-.047c-.111.017-.128.034-.145.047h0Z" transform="translate(-8.574 -12.809)" fill="#f5b6c3"/>
      <path id="_パス_1434" d="M16.51,17.96h-.26l.128.047h0c.145,0,.111-.034.128-.047Z" transform="translate(-10.767 -13.06)" fill="#f5b6c3"/>
      <path id="_パス_1435" d="M12.581,17.587l.034-.047-.145.064.111-.017Z" transform="translate(-8.262 -12.782)" fill="#f5b6c3"/>
      <path id="_パス_1436" d="M11.631,17.614l.017-.034-.1.017.084.017h0Z" transform="translate(-7.653 -12.809)" fill="#f5b6c3"/>
      <path id="_パス_1437" d="M18.634,32.5l-.034.064.064-.084H18.63V32.5Z" transform="translate(-12.324 -22.681)" fill="#f5b6c3"/>
      <path id="_パス_1439" d="M8.73,18.167l.034-.017S8.73,18.15,8.73,18.167Z" transform="translate(-5.784 -13.186)" fill="#f5b6c3"/>
      <path id="_パス_1441" d="M14.253,11.243s-.162.162-.1.111l.179-.128h-.047a1.565,1.565,0,0,1,.324-.273c.179-.1.145-.047.226-.1,0,0,.034,0,.1-.064l.388-.273-.29.128c.084-.1.324-.226,0-.064.064-.034.145-.064.226-.111a1.275,1.275,0,0,1-.226-.017v-.034a.528.528,0,0,0-.111-.064c-.047,0-.064,0-.209.064a.108.108,0,0,0-.1-.064.692.692,0,0,0-.324.084h-.55a2.71,2.71,0,0,1-.371.034h0a.266.266,0,0,0-.1-.084.4.4,0,0,0-.243.084c-.084-.047-.388-.017-.5-.1.047.017-.017.034-.111.034-.162-.047-.358-.111-.4-.128a.081.081,0,0,1-.047-.017c-.064-.017-.111,0-.307.128h-.226a2.564,2.564,0,0,1-.358-.034h-.047c-.162-.047-.388-.1-.452-.111V10.18h0A.8.8,0,0,0,10.558,10a3.534,3.534,0,0,0-.064-.422.312.312,0,0,0-.1-.061h-.084l-.034-.064.034-.128a1.881,1.881,0,0,0,.084-.6.274.274,0,0,0-.1-.064c-.064,0-.064-.017-.273.111l-.047-.111V8.628a3.115,3.115,0,0,0-.017-.469.274.274,0,0,0-.1-.064H9.8l.047-.145A1.762,1.762,0,0,0,10,7.335a.274.274,0,0,0-.1-.064.331.331,0,0,0-.179.047V7.285a.449.449,0,0,1-.064-.047L9.63,7.173c-.162-.307-.2-.358-.2-.371a.149.149,0,0,0-.1-.064h-.1a.164.164,0,0,0-.017-.1.147.147,0,0,0-.084-.064.2.2,0,0,0-.145.034h-.02l.064.128-.064.034-.017-.084c0,.047-.128.341-.2.533a1.975,1.975,0,0,0-.2.648.274.274,0,0,0,.1.064c.047,0,.064.017.29-.111a1.915,1.915,0,0,1-.2.209c-.179.179-.307.324-.422.452l.034-.047V8.351a.978.978,0,0,0-.047.162c-.26.273-.324.371-.341.435a.586.586,0,0,1-.047.128c.017-.034.047-.084.064-.084H8v.017h.017s.047.064.1.064a2.111,2.111,0,0,0,.648-.307c-.111.111-.226.209-.324.324-.324.324-.533.516-.665.665h0L7.643,9.9V9.839s-.047.128-.084.128h.034c-.064.084-.047.111,0,.162,0,0,.017.034.034.034h0v.047h0v-.034H7.69l-.034.047A.051.051,0,0,0,7.7,10.19h0s.243-.111,1.019-.55c.341-.2.81-.469.921-.516a.085.085,0,0,0,.064-.017.047.047,0,0,0,.034-.017s.034,0,.034.017a.642.642,0,0,0,.047.162l.034-.047a.543.543,0,0,1,.034.2c.111.1-.1-.307,0-.209a.694.694,0,0,0,.047.26,13.888,13.888,0,0,0-2.6,1.373c-.55.324-1.181.678-1.633.921.1-.111.209-.226.307-.341q.825-.891.759-1a.286.286,0,0,0-.064-.047H6.654s.111-.034-.017-.047H6.8a.608.608,0,0,1-.155-.017H6.32a1.39,1.39,0,0,0,.29,0c-.047.034-.179.047-.128.1-.047.017-.111.064-.209.111H6.256c-.128.084-.324.179-.6.341-.2.111-.435.243-.6.341l.047-.179c.111-.469.128-.533.111-.58h.094c.017-.034-.034-.034-.111-.034a.176.176,0,0,0-.064-.047.935.935,0,0,1,.29-.017c-.1-.047-.047,0-.2-.047.128.084-.516,0-.307.084a.586.586,0,0,0-.128-.047.117.117,0,0,0,0-.145.149.149,0,0,0-.1-.064,1.866,1.866,0,0,0-.435.2H4.231l-.084.047-.064.034a.578.578,0,0,0-.273.034c-.145,0,.034-.017-.064-.047l-.145.034-.128-.034-.1-.064h0a1.616,1.616,0,0,1-.2-.111c-.017,0-.034-.034-.064-.034a.351.351,0,0,0-.209.064l-.064.034a.977.977,0,0,1-.1-.064.147.147,0,0,0-.064-.034.2.2,0,0,0-.145.034H2.5l.034.1H2.47l.084.047H2.521a.077.077,0,0,0,.034.064v.064h.084c.064.034.145.1.29.2.128.084.273.2.324.226.047.047.1.047.179.017.034.017.064.047.1.064a1.665,1.665,0,0,0,.111.29.147.147,0,0,0,.084.064.45.45,0,0,0,.047.111.149.149,0,0,0,.1.064h.1c.047.047.111.111.209.226s.226.243.243.26a.087.087,0,0,0,.084.047.291.291,0,0,0,.2-.064h0l.341.1h.034c-.064.111-.047.145,0,.2a.107.107,0,0,0,.084.057.388.388,0,0,0,.162-.034,5.733,5.733,0,0,0,.567.4q0,.084.034.1a.149.149,0,0,0,.1.064.328.328,0,0,0,.128-.017l.2.243c.064.1.145.179.179.226a.786.786,0,0,0-.047.111c0,.017-.017.034-.017.064-.017.064-.034.145-.047.226h0c-.5.584-.725.911-.678.985a.274.274,0,0,0,.1.064c.047,0,.064,0,.243-.084,0,.034.034.017.064,0V14.8c-.034,0-.047.047-.064.084-.324.243-.29.29-.243.371,0,.034.034.047.064.064a.125.125,0,0,0,0,.128h.017c-.047.145-.111.324-.162.452l-.1.256h0c-.1.26-.1.273-.064.324h0c0,.084-.034.145-.034.26l-.047.034a.922.922,0,0,1-.034.162.239.239,0,0,1-.064.162c-.03.057-.057.118-.084.179A8.719,8.719,0,0,0,6.1,16.79c.162-.111.341-.226.5-.324a3.729,3.729,0,0,1,.341-.2c-.145-.034.243-.1.209-.179.047,0,.111-.034.047.034.209-.179.371-.2.486-.358.047,0-.034.064,0,.064,0-.017.064-.064.1-.064s-.017.034-.047.084c.226-.162.209-.243.179-.307a.421.421,0,0,0,.26-.2c.047,0,.145-.034,0,.064.084-.047.516-.307.5-.358.034,0,.111-.084.128-.1L9,14.83a.61.61,0,0,0,.1-.064h0a.266.266,0,0,0,.1.084.328.328,0,0,0,.128-.017c.145.128.179.145.226.162l.034.034c.111.111.243.26.26.273a.087.087,0,0,0,.084.047.216.216,0,0,0,.128-.034h0a.661.661,0,0,1-.017.162,2.093,2.093,0,0,0-.047.6.274.274,0,0,0,.1.064l.58-.273.047-.034h0s-.084.034.034.111c0,.017.064.047.111.064-.128.162-.111.179-.064.243a.149.149,0,0,0,.1.064c.064,0,.064.017.341-.128a.593.593,0,0,1,.145.111c-.034-.047-.047-.1.047-.047a.893.893,0,0,1,.2.162,1.464,1.464,0,0,0,.034.469.149.149,0,0,0,.1.064c.064,0,.064.017.422-.179.145.084.341.2.435.243a.436.436,0,0,0,0,.162.149.149,0,0,0,.1.064h.034a.118.118,0,0,0,.1-.034.75.75,0,0,0,.209.145c-.034-.064-.047-.145-.084-.226h.017s.1-.128.047-.2c0-.017-.034-.034-.047-.047h0s.084-.128.047-.2c0-.017-.034-.034-.047-.047a1.342,1.342,0,0,0,.064-.5.149.149,0,0,0-.1-.064c-.047,0-.064,0-.243.084-.017-.047-.017-.064-.034-.064l-.027-.04a2.375,2.375,0,0,0-.111-.307.447.447,0,0,0-.1-.128c0-.064.017-.017.034-.017l-.034-.111c.209-.358.2-.371.162-.435a.149.149,0,0,0-.1-.064.331.331,0,0,0-.179.047c.034-.1.047-.2.084-.273v-.034a.357.357,0,0,0,.047-.111q.1-.358.064-.4a.149.149,0,0,0-.1-.064,1.368,1.368,0,0,0-.358.145,1.291,1.291,0,0,0-.111-.273s.017,0,.034.034a2.747,2.747,0,0,1-.179-.631c0-.047-.034-.1-.034-.145v-.064h-.034V13.18a.8.8,0,0,0,.034-.128h0s.084-.084.064-.128l.341-.243h0c.58-.4,1.181-.776,1.731-1.147h-.1l.2-.145c.064-.017.1,0-.034.084.047,0,.1-.047.145-.1s.084-.111.084-.111c.2-.111.2-.1.128-.034h0l-.064.013Zm.567-.4-.084.047C14.834,10.8,14.82,10.821,14.82,10.838ZM6.31,12.65h0s-.047-.084-.1-.084H6.165v-.084h.047a.064.064,0,0,0,.034.064.108.108,0,0,0,.1.064c.111.034.209,0,2.085-1.1.209-.111.435-.26.648-.371-.243.179-.486.371-.7.55-.874.7-1.3,1.019-1.488,1.2h0a.977.977,0,0,0-.1-.064s-.034-.034-.047-.034l-.034-.034s-.128-.2-.162-.162a.249.249,0,0,1-.084.273c-.064-.084-.111-.162-.145-.2h0l-.013-.027ZM9.934,9.866a.274.274,0,0,0,.1.064H10.1a.478.478,0,0,1,.017.2c.064.162.034-.064.1.1v.047l.034.034h0a.233.233,0,0,0-.084-.034c-.1-.017-.128-.034-1.91,1-.243.145-.5.29-.759.435.243-.2.516-.388.759-.567.985-.729,1.454-1.1,1.684-1.292h0Zm1.637,2.814v-.047l.273-.179c-.145.111.034.084-.226.226l.084-.128-.145.111h0ZM11.1,13h.047c-.371.2-1.019.55-2.2,1.228.452-.273.921-.567,1.36-.827s.857-.516,1.211-.746l-.047.034-.047.034-.064.047s-.162.111-.29.2V13H11.1Zm.29,1.8a.274.274,0,0,0,.1.064h.064c-.145.084-.307.179-.516.29l-.226.128a2.037,2.037,0,0,0,.162-.179c.162-.162.273-.29.388-.4,0,.084.017.084.034.1h0Zm-1.053.29s.034.047,0,.047Zm.064,0a.385.385,0,0,0-.064-.034v-.047c.128-.064.341-.2.7-.4l.047-.034c-.111.111-.226.243-.324.341s-.209.226-.29.307c-.047-.064-.064-.1-.064-.128h0ZM9.691,14.2a.081.081,0,0,0-.017-.047h0c.388-.243.759-.452,1.083-.631h0a.11.11,0,0,0,.111,0h0c-.111.064-.29.179-.58.341-.2.111-.422.243-.567.324h0l-.034.017Zm1.535-.648a.081.081,0,0,0-.017-.047c0-.017-.034-.034-.047-.047h0l.047-.034.034.064v.047h-.017v.017Zm-.051.162c-.084.26-.084.273-.047.324a.108.108,0,0,0,.1.064h.034v.047c-.1.064-.226.128-.371.226-.1.064-.209.128-.324.2a2.286,2.286,0,0,1,.179-.226c.26-.341.388-.516.452-.614h0l-.017-.017Zm.341,1.522a1.209,1.209,0,0,0-.4.179l.064-.034c.128-.084.29-.162.422-.243l-.1.1h.017Zm.29.648a.24.24,0,0,1-.047-.034l.084-.047-.047.084h.013Zm.084-.422s-.209.111-.4.226c.067-.078.135-.155.209-.226l.145-.162s.034.1.047.162h0Zm-1.7-2.75c-.874.5-1.859,1.066-2.652,1.522.614-.388,1.329-.84,1.974-1.245a37.047,37.047,0,0,0,3.317-2.166h0a.677.677,0,0,0,.29-.111h0s.047.162.064.243v.034c-.648.358-1.616.9-3.023,1.731h.03Zm.1-2.264h0v.111a.064.064,0,0,0-.034-.064C10.258,10.48,10.292,10.463,10.292,10.45Zm-.047.064c.034.084.064.179.1.26h.4c-.371.209-.891.5-1.65.938-.371.209-.776.452-1.147.665.2-.162.422-.324.614-.486a20.554,20.554,0,0,0,1.684-1.38h0Zm1.957.2h-.034a.734.734,0,0,1,.226-.034c-.358.179-1.036.567-2.362,1.343-.58.341-1.262.729-1.846,1.066.273-.179.567-.371.84-.567,1.569-1.053,2.264-1.535,2.554-1.778a3.392,3.392,0,0,0,.614-.034ZM9.256,11.938c.26-.145.533-.307.81-.469-.4.273-.827.567-1.211.827-1.019.678-1.586,1.066-1.91,1.309v-.034H6.928l.1-.064s0-.017-.034-.034v-.034h.034s.064-.064.064-.111c.128-.162.179-.226.162-.273.29-.145.857-.469,1.994-1.134h0l.013.017ZM6.8,13.682h0l-.034.034v-.034Zm.1.388a32.522,32.522,0,0,0,3.04-1.684c-.2.128-.388.243-.58.371-1.211.759-2.021,1.279-2.575,1.616.145-.226.128-.26.1-.307h.017Zm-.341-.084a.087.087,0,0,0,.034.064v.034l-.064.047v-.064L6.556,14h0v-.017ZM6.131,15.67h0l.047-.128s.047.017.047.034V15.43s.017-.1.017-.111c.034,0,.064-.034.1-.047a.25.25,0,0,1,.017-.084c.533-.26,1.633-.874,4-2.247.759-.435,1.616-.921,2.345-1.343-.776.486-1.7,1.053-2.541,1.552-2.409,1.471-3.526,2.166-4.042,2.524h.017ZM12.1,12.306a1.17,1.17,0,0,1-.084.1l-.034-.034.111-.064h0Zm-2.6,2.23s-.047-.047-.084-.047H9.377l.084-.047v.034a.108.108,0,0,0,.1.064c.084.017.1.017.874-.435l.209-.111-.128.179a7.294,7.294,0,0,0-.533.746c-.084-.047-.179-.084-.273-.145-.111-.1.047,0,0-.064l-.1-.034-.128-.128H9.5Zm4.191-3.887.064.034H13.8l.034-.034h.017l-.358.179-.03-.108a1.006,1.006,0,0,1,.209-.084h0l.013.013Zm-3.04-.371-.034-.034ZM9.286,6.887h0l-.047.034.034-.064V6.89H9.29Zm-.2.435c.064-.179.111-.307.145-.4l.034.047s-.034.179-.084.179a.422.422,0,0,1,.084.226l-.145.084-.111.064.084-.2h0Zm-.047.9c.162-.162.273-.307.371-.4,0,.017.017.034.034.047,0,.064-.047-.047-.047,0a.461.461,0,0,1,.128.243c-.064,0-.162.064-.678.358H8.817l.226-.226h0Zm-.4,1.211-.159.1.226-.226c.435-.435.7-.678.827-.84h.111a2.192,2.192,0,0,1,.084.29v.111h0c-.084-.017-.1-.034-1.083.55h0v.017Zm-1.09,1.647c.435-.243.9-.516,1.329-.759-.243.2-.516.388-.759.567a11.4,11.4,0,0,0-1.846,1.471.107.107,0,0,1-.047-.047l.047.047V12.4a.191.191,0,0,1-.084-.017v-.051a1.58,1.58,0,0,0-.064-.435c.324-.179.793-.435,1.424-.81h0Zm-1.65,0,.226-.128c-.1.1-.179.2-.26.29-.26.273-.435.469-.55.6H5.23v-.03c-.128-.084-.209-.162-.307-.226.084,0,.128,0,.985-.5h0l-.013-.007Zm-1.441.128c-.111-.145.179.111.1-.017a.241.241,0,0,1-.145-.047L4.3,11.1h0s.162-.1.273-.162.243-.145.371-.209l-.047.209c-.1.435-.111.5-.1.55-.034-.034-.084-.047-.111-.084,0-.034-.128-.128-.047-.111a.3.3,0,0,1-.162-.084H4.461Zm-.084.067a1.607,1.607,0,0,1-.179-.064l-.064-.034.128-.064s.226.128.307.179c-.034.034-.1.034-.2,0h0V11.28Zm.486-.84q-.147.071-.435.243c-.145.084-.324.2-.469.26h0L3.9,10.8s.2-.1.452-.243l.128-.084h.034a1.514,1.514,0,0,1,.179-.1h.1l.047.047a.439.439,0,0,0-.209,0,1.275,1.275,0,0,1,.226.017h0Zm-.273,1.245h0l-.034-.034h0l-.034-.034.034.034.064.034H4.582Zm3.04,3.752a.481.481,0,0,1,.145-.084A.35.35,0,0,1,7.626,15.437Zm.307,0s-.017-.017,0-.064l-.034.034c-.1.034-.084-.017-.034-.084l.111-.034s.064-.128.034-.162l-.064.064v-.034l-.064.064h-.1l-.341.179a3.9,3.9,0,0,1-.648.665c.064-.1-.034-.084-.064-.128.128,0,.26-.2.435-.307-.1.064-.1.017-.084,0l-.29.26a.831.831,0,0,0-.2.064c.064,0,0,.064-.064.128a1.171,1.171,0,0,1-.128.1l-.034.034H6.354l-.034.047v-.044s0-.017.034-.034a.236.236,0,0,1,.1-.064.082.082,0,0,0-.061.03H6.357v.034H6.34a.168.168,0,0,1-.034.064.151.151,0,0,1-.128.111c.034-.017.047-.017.047-.047a.447.447,0,0,1-.128.1c-.034.017-.047,0-.034-.017h.017a2.238,2.238,0,0,0-.273.162v-.111l.111-.064s.162-.1.2-.111h.017s.1-.128.047-.2l-.034-.034c.273-.145.776-.422,1.731-.955h.017v.034h0a.14.14,0,0,1,.064.017H7.99a.108.108,0,0,0,.064-.017.735.735,0,0,1-.145.162.7.7,0,0,0,.145-.034l-.209.179h0l.084.013Z" transform="translate(-1.637 -5.517)" fill="#f5b6c3"/>
      <path id="_パス_1442" d="M18.7,32.045h.034S18.734,32.028,18.7,32.045Z" transform="translate(-12.39 -22.388)" fill="#f5b6c3"/>
      <path id="_パス_1444" d="M9.635,17.58H9.49a1.009,1.009,0,0,1,.145.034S9.6,17.6,9.635,17.58Z" transform="translate(-6.288 -12.809)" fill="#f5b6c3"/>
      <path id="_パス_1446" d="M5.916,17.689c.1,0,0-.047.064-.034.034-.017-.111,0-.2,0-.084.017-.084.034.111.017h0l.017.017Z" transform="translate(-3.797 -12.854)" fill="#f5b6c3"/>
      <path id="_パス_1448" d="M22.694,6.674,22.61,6.61a.467.467,0,0,1,.034.111l.047-.047h0Z" transform="translate(-14.981 -5.54)" fill="#f5b6c3"/>
      <path id="_パス_1450" d="M13.594,12.12l-.034.017h.017Z" transform="translate(-8.984 -9.191)" fill="#f5b6c3"/>
      <path id="_パス_1451" d="M13.49,12.027h.047s-.064-.034-.047-.047C13.443,12.027,13.524,12,13.49,12.027Z" transform="translate(-8.928 -9.098)" fill="#f5b6c3"/>
      <path id="_パス_1454" d="M13.71,11.524h.034a.1.1,0,0,1,.017-.034c-.017,0-.034,0-.047.034Z" transform="translate(-9.084 -8.774)" fill="#f5b6c3"/>
      <path id="_パス_1457" d="M13.594,11.68s0,.017-.034.034C13.577,11.714,13.624,11.714,13.594,11.68Z" transform="translate(-8.984 -8.9)" fill="#f5b6c3"/>
      <path id="_パス_1459" d="M13.57,11.374h.017s0-.017.034-.034a.24.24,0,0,0-.047.034h0Z" transform="translate(-8.991 -8.674)" fill="#f5b6c3"/>
      <path id="_長方形_143" d="M13.38,11.767l.064-.007h0Z" transform="translate(-8.865 -8.953)" fill="#f5b6c3"/>
      <path id="_パス_1461" d="M13.57,11.217h.017l.034-.017-.047.017h0Z" transform="translate(-8.991 -8.582)" fill="#f5b6c3"/>
      <path id="_パス_1462" d="M13.57,11.094s.034-.034.047-.034H13.57Z" transform="translate(-8.991 -8.489)" fill="#f5b6c3"/>
      <path id="_パス_1464" d="M13.5,11.3l-.034.034h0a.036.036,0,0,0,.034-.03h0Z" transform="translate(-8.925 -8.648)" fill="#f5b6c3"/>
      <path id="_パス_1465" d="M13.437,11.357h0l-.017-.017Z" transform="translate(-8.892 -8.674)" fill="#f5b6c3"/>
      <path id="_パス_1467" d="M13.18,11.664a.126.126,0,0,1,.084-.034A.117.117,0,0,0,13.18,11.664Z" transform="translate(-8.733 -8.866)" fill="#f5b6c3"/>
      <path id="_パス_1469" d="M13.33,11.267s.034,0,.034-.017H13.33v.034h0Z" transform="translate(-8.832 -8.615)" fill="#f5b6c3"/>
      <path id="_パス_1476" d="M12.635,11.091a.1.1,0,0,1,.017-.034c-.034.034-.064,0-.128.047h.03s-.034,0-.034.017c.034-.017.064-.017.047,0a.7.7,0,0,0,.2-.111h-.047s-.034.047-.064.047h0l-.013.034Z" transform="translate(-8.295 -8.456)" fill="#f5b6c3"/>
      <path id="_パス_1477" d="M13.23,11.06v.034h0l.034-.034Z" transform="translate(-8.766 -8.489)" fill="#f5b6c3"/>
      <path id="_パス_1478" d="M13.035,11.153h-.047c-.034.017-.064,0-.1.047h.051s.017,0,.034-.034h.034l.03-.017Z" transform="translate(-8.54 -8.548)" fill="#f5b6c3"/>
      <path id="_パス_1479" d="M12.94,11.8l.017-.017Z" transform="translate(-8.574 -8.966)" fill="#f5b6c3"/>
      <path id="_パス_1480" d="M13.031,11.59a.792.792,0,0,0-.084.064h.017a.1.1,0,0,0-.034.017.081.081,0,0,0,.047-.017h0l.047-.047h0V11.59Z" transform="translate(-8.567 -8.84)" fill="#f5b6c3"/>
      <path id="_パス_1482" d="M13.22,10.977l.034-.017-.064.017h.034Z" transform="translate(-8.739 -8.422)" fill="#f5b6c3"/>
      <path id="_パス_1483" d="M13.221,10.92h-.034l-.017.017.047-.017Z" transform="translate(-8.726 -8.396)" fill="#f5b6c3"/>
      <path id="_パス_1485" d="M12.18,9.187l.034-.027H12.18v.034h0Z" transform="translate(-8.07 -7.23)" fill="#f5b6c3"/>
      <path id="_パス_1488" d="M12.709,10.184V10.15S12.662,10.2,12.709,10.184Z" transform="translate(-8.406 -7.886)" fill="#f5b6c3"/>
      <path id="_パス_1490" d="M12.75,10.158s.017-.034,0-.017h0s.017.007.017.017Z" transform="translate(-8.448 -7.877)" fill="#f5b6c3"/>
      <path id="_パス_1497" d="M10.69,9.3h.047l.1-.064Z" transform="translate(-7.083 -7.283)" fill="#f5b6c3"/>
      <path id="_パス_1498" d="M6.946,3.963,6.912,4c.034-.017.047-.017.047,0h0s.017.064.034.111l.034-.034V4.1c.064-.034,0-.017.047-.064-.064.064.047.047-.034.128,0,0,.034-.034.047-.034h0a.24.24,0,0,1-.034.047h0s.034.017.034.034h0a.159.159,0,0,0,.111.047h0s0,.017.034.034h.034c-.034,0-.034.047-.064.047.047,0,.034,0,.111-.034l-.034.034s.047-.017.064,0c-.034,0-.034.034-.084.047-.047.064.1,0,0,.064.1-.047.034-.047.047-.064.017-.034.064-.034.064-.017,0,0-.1.084-.064.111h0s.034,0,0,.034c.047-.034,0,0,.064-.034H7.337s.111-.047.084,0H7.374s.017,0,0,.017c-.064.047-.034,0-.1,0-.017.017.064,0,0,.034.1-.047,0,.034.084,0l-.034.034H7.31s-.017.064,0,.064c-.017-.017.047-.034.064-.064.064,0-.084.084-.047.1a.036.036,0,0,1,.03-.034h0a.063.063,0,0,1-.037.051c.017.017.034-.034.064-.034-.047.034.034,0,.047,0l-.03.034s.084-.047.064,0L7.4,4.719h.017l-.047.034s.034,0,.034.017c.034-.017.064-.047.084-.034-.017.017-.034.017-.017.034-.034,0-.064.034-.034,0H7.4v.047h.084A.26.26,0,0,1,7.4,4.85h.047s-.034.034-.047.034c0,.017.084,0,.064.017h.017s-.034.064.034.047L7.472,5s.064-.064.1-.047c.034,0-.047.034-.064.047.034,0,.1-.034.064,0h0l-.034.034a.18.18,0,0,0-.1.034C7.55,5,7.486,5.1,7.6,5.046h.047s-.017.034-.034.034h.017l.034.034h.064s-.064.034-.064,0c-.111.084.034,0,0,.064H7.648l-.064.064s.084-.084.128-.084c0,0,0,.017.017,0-.047.017-.034.034-.017.034l-.047.034a.25.25,0,0,0,.084-.017l-.071.067s.064-.047.084-.034c0,.034.017.034.064.034,0,.017-.034,0-.047.034h.034A.233.233,0,0,1,7.9,5.275c.064-.034-.064.084,0,.047a.051.051,0,0,0-.047.034h.111l-.034.034a.457.457,0,0,1,.145-.047l.034-.034h.047a.24.24,0,0,0-.047.034h0a.233.233,0,0,1-.084.034l.034-.034s-.084.034-.111.047h.017L7.9,5.437h.034v.034a.543.543,0,0,1,.2-.034A.244.244,0,0,0,8,5.5c.047-.034-.034,0-.034-.034,0,0-.034.017-.034.034H8a.107.107,0,0,0-.047.047c.084-.047.064,0,.1,0-.034,0-.064.034-.064,0-.047.047.111-.034.064,0h0c.034,0,.017.034,0,.034h0a.084.084,0,0,0,.111.034h0l-.1.047.273-.084a1.183,1.183,0,0,1-.26.111.016.016,0,0,0,.017.017.523.523,0,0,1,.1-.047c-.064.047-.034.034-.084.084,0,0,.111-.064.111-.047a.786.786,0,0,1-.111.047l.111-.034s-.084.047-.111.064c.017,0,0,.017.017.017h.017s.145-.064.162-.034c-.017,0-.128.047-.128.084a2.5,2.5,0,0,1,.307-.1h0s-.26.1-.324.111c-.017.017-.034.017-.017.034-.017.017-.047,0-.047,0v.034A.181.181,0,0,0,8.2,5.889H8.117s.179-.064.179-.034a.909.909,0,0,1-.128.064h0s.084,0,.047.034c0,0-.064.047-.034.034a1.78,1.78,0,0,1,.307-.162A.4.4,0,0,1,8.4,5.91c-.047.034-.128.047-.162.084h.047s-.047.017-.034.034c.064-.034,0,.034.047-.017.017,0,0,.017,0,.034A.528.528,0,0,1,8.464,6a.359.359,0,0,0-.037.03v.084a.07.07,0,0,1-.047.034h.034s-.017,0-.064.034c.034-.017.064,0,.084,0,.047-.034,0-.034-.034-.034A.355.355,0,0,1,8.61,6.1c.034,0-.047.034-.034.034,0,.047.145-.034.111.017a.507.507,0,0,1-.128.064c-.034,0,0-.034,0-.047h0s-.034.017-.034,0c-.034.034.034.064,0,.111a.063.063,0,0,0,.047-.017h0s.064-.017.064-.034H8.7l-.047.034s.034-.034,0-.017c.034,0-.047.064.017.034L8.7,6.244s.1-.017.084,0c.047-.034,0,0,.047-.047-.064.047-.017-.034-.084.017.064-.047.017-.034.064-.084-.017,0-.034.017-.034,0H8.765v.034h-.1A.1.1,0,0,0,8.7,6.146H8.667s.047-.047.084-.047h0s.017-.047,0-.047H8.7s-.1-.034-.034-.1c0,0-.034,0-.034-.017H8.67s0-.064-.017-.047c.084-.064,0-.064,0-.084H8.525V5.754h0c.064-.064-.1-.017-.047-.084h0V5.64a.051.051,0,0,0-.047.034H8.4s-.034,0,.034-.047a.309.309,0,0,0-.111,0h0V5.593l.047-.034H8.282a.879.879,0,0,0,.084-.034H8.282s-.064,0-.034-.034c.047-.047-.034-.084,0-.145-.1.064.034-.047-.047,0,.017,0,.034-.034.047-.034-.034,0,.017-.047-.047-.034a.063.063,0,0,0,.047-.017h.034a.767.767,0,0,0-.162.047c.034-.034.017-.034-.034,0,.017,0,.034-.034.047-.034s0-.064-.047-.034h0a.052.052,0,0,0-.017-.034H8.036s-.034,0,0-.064H8c-.084.064.034-.034,0-.034H7.982a.8.8,0,0,0,.111-.084H8.11a.121.121,0,0,1-.084,0c.034-.017.084-.034.064-.047.017-.017-.111.017-.064-.034-.017,0-.034.034-.064.034,0,0,.064-.084,0-.047h0a.086.086,0,0,0-.1,0c.128-.084-.111-.017.017-.1L7.847,4.8h0a.121.121,0,0,0-.084,0A.047.047,0,0,0,7.8,4.783q0-.047-.084-.034l.034-.034s.034-.084-.034-.084h.017s.064-.145-.1-.064H7.587a.225.225,0,0,0-.084.064s.034-.047.047-.047h0A.109.109,0,0,1,7.6,4.5c-.034-.047-.034-.128-.064-.179l-.047.047h0l.047-.047c.034-.034-.047,0-.047,0,0-.034.084-.034.064-.047H7.533s-.047.034-.064,0c0-.017.034-.034.034-.034H7.455l-.047.047c.064-.064-.034-.1,0-.111a.091.091,0,0,1-.064-.017s-.047.047-.064.034c.111-.084.017-.047.084-.128-.034.047-.047-.034-.1.047,0-.017.034-.034.047-.064-.064,0-.017-.084-.064-.1L7.2,4l.047-.064s-.084.064-.047,0c0,0-.017.034-.034.034a.12.12,0,0,0-.084-.1c-.037-.013-.064-.047-.047-.128,0,.034-.017.034-.034.017L6.956,3.8V3.747s0-.017-.064.017h0c-.051.067-.1.132-.162.2.064-.047-.047.111.047.047h0l.145-.047Zm.83,1.181H7.759C7.806,5.127,7.793,5.144,7.776,5.144Z" transform="translate(-4.459 -3.639)" fill="#f5b6c3"/>
      <path id="_パス_1502" d="M12.835,11s-.017.017,0,.017h0S12.869,10.984,12.835,11Z" transform="translate(-8.499 -8.446)" fill="#f5b6c3"/>
      <path id="_パス_1504" d="M12.98,10.605s.047-.017.034,0C13.061,10.588,12.949,10.605,12.98,10.605Z" transform="translate(-8.596 -8.183)" fill="#f5b6c3"/>
      <path id="_パス_1505" d="M12.51,11.167l.047-.017H12.51Z" transform="translate(-8.289 -8.548)" fill="#f5b6c3"/>
      <path id="_パス_1508" d="M12.2,10.58s-.017,0,0,.017h.017Z" transform="translate(-8.075 -8.171)" fill="#f5b6c3"/>
      <path id="_パス_1509" d="M12,10.837l.034-.017-.047.034h.017v-.017Z" transform="translate(-7.944 -8.33)" fill="#f5b6c3"/>
      <path id="_パス_1510" d="M11.869,10.77s-.047,0-.034.017C11.835,10.787,11.869,10.787,11.869,10.77Z" transform="translate(-7.84 -8.297)" fill="#f5b6c3"/>
      <path id="_パス_1511" d="M11.74,10.007h.017l.084-.047-.1.047h0Z" transform="translate(-7.779 -7.76)" fill="#f5b6c3"/>
      <path id="_パス_1512" d="M10.954,9.81s-.017,0-.064.034c0,.034.047-.017.034,0,.017,0,0-.017.034-.034h0Z" transform="translate(-7.215 -7.661)" fill="#f5b6c3"/>
      <path id="_パス_1513" d="M7.927,3.44l-.017.034h.017Z" transform="translate(-5.241 -3.44)" fill="#f5b6c3"/>
      <path id="_パス_1514" d="M7.733,3.537l.034-.047-.047.034h0l.017.017Z" transform="translate(-5.115 -3.473)" fill="#f5b6c3"/>
      <path id="_パス_1515" d="M9.574,8.09l-.034.034h0V8.09Z" transform="translate(-6.321 -6.521)" fill="#f5b6c3"/>
      <path id="_パス_1516" d="M9.44,7.677h0l.047-.017Z" transform="translate(-6.255 -6.236)" fill="#f5b6c3"/>
      <path id="_パス_1520" d="M38.364,6.344h0V6.31s-.034.047-.064.047c.034.047.034-.017.047,0h0l.017-.017Z" transform="translate(-25.376 -5.342)" fill="#f5b6c3"/>
      <path id="_パス_1523" d="M37.887,6.087s-.017-.007-.017-.017a.063.063,0,0,0,.017.047V6.083Z" transform="translate(-25.091 -5.183)" fill="#f5b6c3"/>
      <path id="_パス_1526" d="M38.044,6.278s0-.064-.034-.034a.036.036,0,0,1,.034.03h0Z" transform="translate(-25.184 -5.292)" fill="#f5b6c3"/>
      <path id="_パス_1528" d="M37.7,6.2s-.017,0-.034-.034a.239.239,0,0,0,.034.047h0V6.2Z" transform="translate(-24.959 -5.249)" fill="#f5b6c3"/>
      <path id="_パス_1531" d="M37.49,6.2V6.17l.017.047L37.49,6.2Z" transform="translate(-24.84 -5.249)" fill="#f5b6c3"/>
      <path id="_パス_1532" d="M37.324,6.217s-.034-.034-.034-.047v.047Z" transform="translate(-24.707 -5.249)" fill="#f5b6c3"/>
      <path id="_パス_1534" d="M37.614,6.344S37.6,6.31,37.58,6.31Z" transform="translate(-24.899 -5.342)" fill="#f5b6c3"/>
      <path id="_パス_1537" d="M37.954,6.534a.126.126,0,0,1-.034-.084A.117.117,0,0,0,37.954,6.534Z" transform="translate(-25.125 -5.434)" fill="#f5b6c3"/>
      <path id="_パス_1538" d="M37.77,6.46v.034h.017A.1.1,0,0,0,37.77,6.46Z" transform="translate(-25.025 -5.441)" fill="#f5b6c3"/>
      <path id="_パス_1539" d="M37.5,6.484s0-.034-.017-.034v.034Z" transform="translate(-24.833 -5.434)" fill="#f5b6c3"/>
      <path id="_パス_1546" d="M37.248,6.838h-.034c.034.034,0,.064.047.128V6.932s0,.034.017.034c-.017-.034-.017-.064,0-.047a.562.562,0,0,0-.128-.179v.047a.1.1,0,0,1,.064.064h0l.034-.017Z" transform="translate(-24.614 -5.626)" fill="#f5b6c3"/>
      <path id="_パス_1547" d="M37.214,6.607h.034A.107.107,0,0,0,37.2,6.56v.047h.017Z" transform="translate(-24.647 -5.507)" fill="#f5b6c3"/>
      <path id="_パス_1548" d="M37.383,6.567a.125.125,0,0,0,.047.1V6.617s0-.017-.034-.034h0V6.55h0v.034h0l-.017-.017Z" transform="translate(-24.767 -5.501)" fill="#f5b6c3"/>
      <path id="_パス_1550" d="M37.884,6.721v.034a.081.081,0,0,0-.017-.047h0s-.047-.034-.047-.047a.311.311,0,0,0,.064.084v-.02h0Z" transform="translate(-25.058 -5.573)" fill="#f5b6c3"/>
      <path id="_パス_1552" d="M37.134,6.584,37.1,6.55l.034.047V6.58Z" transform="translate(-24.581 -5.501)" fill="#f5b6c3"/>
      <path id="_パス_1553" d="M37.067,6.634,37.05,6.6v.034Z" transform="translate(-24.548 -5.534)" fill="#f5b6c3"/>
      <path id="_パス_1555" d="M35.119,8.037s-.084-.047-.047-.017l.034.034h.017V8.037Z" transform="translate(-23.231 -6.468)" fill="#f5b6c3"/>
      <path id="_パス_1556" d="M34.634,9.554h0L34.6,9.52v.034Z" transform="translate(-22.925 -7.468)" fill="#f5b6c3"/>
      <path id="_パス_1557" d="M33.99,11.64l.034.034S34.024,11.657,33.99,11.64Z" transform="translate(-22.521 -8.873)" fill="#f5b6c3"/>
      <path id="_パス_1558" d="M36.274,7.27H36.24S36.287,7.3,36.274,7.27Z" transform="translate(-24.011 -5.978)" fill="#f5b6c3"/>
      <path id="_パス_1559" d="M33.31,10.15l.017.017Z" transform="translate(-22.07 -7.886)" fill="#f5b6c3"/>
      <path id="_パス_1565" d="M36.737,6.84l-.017.017h.017Z" transform="translate(-24.329 -5.693)" fill="#f5b6c3"/>
      <path id="_パス_1567" d="M35.618,9.148s-.017-.047,0-.034l-.1-.084.1.111h0Z" transform="translate(-23.534 -7.144)" fill="#f5b6c3"/>
      <path id="_パス_1568" d="M30.618,9.229a.239.239,0,0,1,.047.034H30.58s-.017.034.034.064h0a1.345,1.345,0,0,1,.226.1c-.064-.047.128.017.047-.047.017,0,.017.017.047.034q-.034-.034,0-.034h0a1.2,1.2,0,0,0,.111-.064H31l.034-.017c-.047-.047-.017.017-.084-.034.084.034.047-.064.128,0,0,0-.047-.017-.034-.034h.064s0-.034.017-.017h-.017s.064-.064.034-.128h-.017a.07.07,0,0,0,.034-.047h0S31.141,9,31.158,9c.017.017.047,0,.064.034-.017-.047-.017-.034-.084-.1h.034s-.034-.017-.034-.034c.017.034.047.017.084.047.084,0-.034-.084.064-.034-.084-.064-.064,0-.084-.017-.034,0-.047-.047-.034-.047s.111.047.128.034h0s-.017-.034.034-.017c-.047-.034,0,0-.047-.047v.034s-.084-.084-.034-.084l.034.034s0-.017.017,0c.064.047,0,.034.034.084.034,0-.034-.047.034,0-.084-.064.034-.017-.034-.084l.034.034V8.807l.034.034s.047,0,.047-.034c-.017.034-.047-.017-.084-.034-.034-.064.111.047.128,0h.017c0-.034-.047-.017-.064-.047.047.017,0-.017-.017-.047l.034.034s-.084-.064-.034-.064l.047.047h.034V8.662c-.034,0-.064-.047-.064-.064.034,0,.034.034.047,0,.017.017.047.047,0,.034l.034.034.034-.034h0l-.034-.064s.034.017.034.034v-.03c.034.017.064.047.064.064V8.584a.036.036,0,0,1,.034.03h0c.034,0-.034-.064,0-.064h0s.064,0,.034-.064l.064.034s-.084-.034-.084-.084c0-.034.047.034.064.034-.017-.034-.064-.084,0-.064v.017h.034a.087.087,0,0,0,.064.084c-.1-.084.034-.047-.084-.128h.034s-.064-.047-.034-.064a.081.081,0,0,1,.047.017V8.3h.017a.385.385,0,0,1-.034-.064c.017,0,0,0,.017.017V8.22s.034.047.017.047c.111.064-.017-.034.064,0h0a.374.374,0,0,0,.1.047.276.276,0,0,1-.128-.084s.017,0,0-.017c.034.034.034,0,.034,0l.047.034a.286.286,0,0,1-.047-.064.3.3,0,0,1,.084.047c.017,0-.064-.034-.064-.064.034,0,.017-.034,0-.064.034,0,.034.034.047.034L31.913,8.1h.017s-.047-.034-.047-.047c-.047-.047.1.034.047-.034.017,0,.034.034.047.034a.2.2,0,0,0-.047-.1h.047s-.084-.047-.1-.1h-.034V7.8l.034.034h0a.134.134,0,0,1,.064.047H31.91a.4.4,0,0,0,.084.064h.084a.617.617,0,0,1-.1-.179.537.537,0,0,1,.1.1c-.047-.034,0,.034-.017.047,0,0,.034.017.034.034V7.879s0,.017.034.034c-.084-.064-.034-.064-.047-.084.017.017.047.047.034.047.064.034-.064-.1,0-.064h0c0-.034.017-.034.034,0h0a.07.07,0,0,0,.013-.1c0-.007-.01-.01-.013-.013l.084.084-.162-.226s.179.145.2.2c0,0,.034,0,.017-.017L32.2,7.673c.064.047.034.017.1.047a.631.631,0,0,1-.084-.1l.084.084-.047-.1.084.084s.017,0,0-.034H32.3s-.084-.128-.064-.145a.245.245,0,0,0,.111.1,1.084,1.084,0,0,1-.162-.26H32.2s.128.2.162.26c.034,0,.034.034.034,0,.034.017.034.034.017.047h.047a.2.2,0,0,0-.064-.111v.084s-.1-.145-.064-.162c.017,0,.064.084.084.1h0s-.017-.084.034-.047c0,0,.064.047.047.017a3.469,3.469,0,0,1-.243-.26.874.874,0,0,1,.1.047.7.7,0,0,1,.111.145l-.017-.034s.034.047.034.034c-.034-.047.034,0-.034-.047,0-.017.017,0,.034,0a.35.35,0,0,1-.084-.145l.034.034a.128.128,0,0,0,.084-.017.107.107,0,0,1,.047.047V7.305s-.017.017.034.064c-.017-.034,0-.047-.017-.084-.034-.047-.034,0-.034.034a.418.418,0,0,1-.084-.179c0-.034.034.034.034.017.047,0-.047-.128,0-.111a.272.272,0,0,1,.084.111c0,.034-.047,0-.047,0h.034V7.19c.034.034.064-.034.111-.017a.063.063,0,0,0-.017-.047h0s0-.047-.034-.047V7.015l.034.047s-.034-.017-.034,0c0-.034.064.047.034-.017l-.034-.034s-.017-.1,0-.084c-.034-.047,0,0-.047-.047.047.064-.047.017.017.084-.047-.047-.034,0-.1-.064,0,0,.034.034,0,.034h0l.017.034c.017.034,0,.047,0,.084,0,0,0-.017-.034-.034v.027s-.047-.047-.047-.084h-.017s-.047,0-.047.017v.047h-.017s0,.084-.084.047c0,0,0,.034-.017.034l-.034-.034s-.047,0-.034.034c-.084-.064-.064.017-.1.034l.034.034a.314.314,0,0,0-.017.047l.034.034a.077.077,0,0,0-.064.034h0c-.1-.047,0,.1-.064.064h0v.034l-.034-.034h0s0,.017.034.047v.034s0,.034-.047-.017c.017.034,0,.047.047.111h0l-.047-.034.047.064a.793.793,0,0,1-.084-.064c.034.064,0,.034.034.1l-.034-.034s.017.047,0,.034c-.064-.034-.084.064-.162.047.1.064-.047,0,0,.047-.017,0-.034-.017-.047-.047,0,.034-.064,0,0,.064-.017,0-.034-.034-.034-.034h0a.1.1,0,0,0-.017-.034.371.371,0,0,0,.1.128q-.034,0,0,.034a.048.048,0,0,1-.047-.047s-.064.017-.017.047h0s-.017,0-.034.034h0v.047h0s0,.017-.064,0l.034.034s-.064,0-.047.034h.034c-.047-.017-.094-.034-.145-.047V7.892c-.064,0,.047.034.047.064-.034-.017-.064-.047-.084-.047s.047.1,0,.084a.048.048,0,0,1,.047.047c0,.017-.1-.017-.047.034h-.017a.077.077,0,0,0,.034.064c-.128-.084,0,.1-.1.017v.034h-.034a.14.14,0,0,0,.017.064.047.047,0,0,1-.034-.017c-.047,0-.047.017,0,.084l-.047-.034s-.1,0-.064.047h0s-.162,0-.034.1v.047a.357.357,0,0,0,.111.047s-.064,0-.064-.017h0a.126.126,0,0,1-.1-.017c-.034.047-.111.084-.145.128l.064.034h0s-.047,0-.034-.017c-.034,0,0,.034.034.047a.069.069,0,0,1-.064-.047h0s.047.047.034.064c-.017,0-.047-.017-.047,0h-.017l.047.034s-.017.017.047.047c-.1-.034-.084.064-.111.047.034.034,0,.047,0,.064,0,0,.064.034.047.047-.111-.064-.064,0-.145-.034.064.017,0,.047.064.084a.26.26,0,0,1-.084-.034c.017.047-.064.047-.084.1a.077.077,0,0,1,.064.034L30.7,9.056s.084.047.017.034c0,0,.034,0,.034.017-.111.034-.034.179-.209.162q.034,0,.034.017h0l.047-.037ZM31.88,8.162s.017.034,0,.017C31.846,8.145,31.88,8.162,31.88,8.162Z" transform="translate(-20.235 -5.719)" fill="#f5b6c3"/>
      <path id="_パス_1572" d="M37.2,7h.034S37.2,6.967,37.2,7Z" transform="translate(-24.647 -5.789)" fill="#f5b6c3"/>
      <path id="_パス_1574" d="M36.691,6.89s-.034-.047,0-.034C36.674,6.809,36.691,6.921,36.691,6.89Z" transform="translate(-24.3 -5.696)" fill="#f5b6c3"/>
      <path id="_パス_1575" d="M37.29,7.23l.017.034.017.017-.034-.047h0Z" transform="translate(-24.707 -5.951)" fill="#f5b6c3"/>
      <rect id="_長方形_151" height="0.017" transform="translate(12.58 1.323)" fill="#f5b6c3"/>
      <path id="_パス_1578" d="M36.72,7.644s.017.017.017,0V7.61h0Z" transform="translate(-24.329 -6.203)" fill="#f5b6c3"/>
      <path id="_パス_1579" d="M36.994,7.784s-.017,0-.034-.034l.034.047h0V7.78Z" transform="translate(-24.488 -6.296)" fill="#f5b6c3"/>
      <path id="_パス_1580" d="M37.017,7.974s0-.034-.017-.034C37,7.94,37,7.987,37.017,7.974Z" transform="translate(-24.515 -6.422)" fill="#f5b6c3"/>
      <path id="_パス_1581" d="M36.147,8.064h0L36.1,7.98Z" transform="translate(-23.919 -6.448)" fill="#f5b6c3"/>
      <path id="_パス_1582" d="M36.174,8.99a.036.036,0,0,1-.034-.03h0c0,.034,0,.017.047.064.034,0-.034-.047,0-.034H36.17Z" transform="translate(-23.945 -7.097)" fill="#f5b6c3"/>
      <path id="_パス_1583" d="M30.514,13.89l-.034.017h.034Z" transform="translate(-20.195 -10.364)" fill="#f5b6c3"/>
      <path id="_パス_1584" d="M30.637,14.014l-.047-.034Z" transform="translate(-20.268 -10.423)" fill="#f5b6c3"/>
      <path id="_パス_1586" d="M34.377,11.044h0l-.047-.034Z" transform="translate(-22.746 -8.456)" fill="#f5b6c3"/>
      <path id="_パス_1588" d="M42.57,32.234,42.6,32.2S42.57,32.247,42.57,32.234Z" transform="translate(-28.205 -22.495)" fill="#f5b6c3"/>
      <path id="_パス_1589" d="M42.247,32.407l.017-.017-.034.034.017-.017Z" transform="translate(-27.98 -22.621)" fill="#f5b6c3"/>
      <path id="_パス_1590" d="M42.2,32.307s-.047.034-.034,0c-.034.064.017,0,0,.017h0l.034-.034h0Z" transform="translate(-27.93 -22.555)" fill="#f5b6c3"/>
      <path id="_パス_1593" d="M42.264,31.86s-.024.03-.034.047h.017V31.86Z" transform="translate(-27.98 -22.27)" fill="#f5b6c3"/>
      <path id="_パス_1596" d="M42.18,32.129s.034-.047.017-.034A.047.047,0,0,1,42.18,32.129Z" transform="translate(-27.947 -22.424)" fill="#f5b6c3"/>
      <path id="_パス_1598" d="M42.124,31.894V31.86a.24.24,0,0,1-.034.047h0l.034-.017Z" transform="translate(-27.887 -22.27)" fill="#f5b6c3"/>
      <path id="_パス_1600" d="M42.04,32.2l.047-.047Z" transform="translate(-27.854 -22.462)" fill="#f5b6c3"/>
      <path id="_パス_1601" d="M42.14,31.754l.034-.034Z" transform="translate(-27.921 -22.177)" fill="#f5b6c3"/>
      <path id="_パス_1602" d="M42.09,31.677s.017-.047.034-.047l-.034.034v.017Z" transform="translate(-27.887 -22.118)" fill="#f5b6c3"/>
      <path id="_パス_1607" d="M41.94,32.214a.134.134,0,0,1,.047-.064C41.987,32.167,41.953,32.184,41.94,32.214Z" transform="translate(-27.788 -22.462)" fill="#f5b6c3"/>
      <path id="_パス_1608" d="M41.99,32.084a.1.1,0,0,1,.017-.034H41.99Z" transform="translate(-27.821 -22.396)" fill="#f5b6c3"/>
      <path id="_パス_1616" d="M41.444,31.985v-.034c-.017.047-.047.047-.084.111h0c.017-.034.047-.064.034-.017a1.124,1.124,0,0,0,.111-.2.051.051,0,0,1-.034.047.117.117,0,0,1-.034.084h0Z" transform="translate(-27.404 -22.264)" fill="#f5b6c3"/>
      <path id="_パス_1617" d="M41.817,31.844h0l.017-.034-.034.034Z" transform="translate(-27.695 -22.237)" fill="#f5b6c3"/>
      <path id="_パス_1618" d="M41.757,31.941a.081.081,0,0,1,.017-.047h0V31.86h-.017a.68.68,0,0,0-.047.084s.017-.034.034-.034h0l.017.03Z" transform="translate(-27.636 -22.27)" fill="#f5b6c3"/>
      <path id="_パス_1619" d="M41.814,32.19a.447.447,0,0,0-.047.084H41.75s.024-.034.034-.051h0a.168.168,0,0,1,.034-.064h0v.034Z" transform="translate(-27.662 -22.469)" fill="#f5b6c3"/>
      <path id="_パス_1620" d="M41.75,32.263V32.3h0a.081.081,0,0,1,.017-.047H41.75v.017Z" transform="translate(-27.662 -22.529)" fill="#f5b6c3"/>
      <path id="_パス_1621" d="M41.823,31.767l.034-.047-.047.047h.017Z" transform="translate(-27.702 -22.177)" fill="#f5b6c3"/>
      <path id="_パス_1622" d="M41.8,31.777h0l.017-.017Z" transform="translate(-27.695 -22.204)" fill="#f5b6c3"/>
      <path id="_パス_1624" d="M40.79,31.229s.034-.084,0-.047v.034h0v.017Z" transform="translate(-27.026 -21.814)" fill="#f5b6c3"/>
      <path id="_パス_1627" d="M41.355,31.6V31.57S41.338,31.617,41.355,31.6Z" transform="translate(-27.396 -22.078)" fill="#f5b6c3"/>
      <path id="_パス_1635" d="M39.923,32.132l.034-.034L40,32l-.084.128h0Z" transform="translate(-26.45 -22.363)" fill="#f5b6c3"/>
      <path id="_パス_1636" d="M38.5,30.712s.047-.047.047-.034l-.034.047v-.017s-.034.084.017,0v-.034a.778.778,0,0,1,.064-.047c.034-.047,0,0,.017-.047-.034.084-.017,0-.047.064.034-.064,0-.034.034-.1,0,.017,0,.034-.017.017h0v.047a.449.449,0,0,0-.064.047.047.047,0,0,1,.017-.034v.034a.191.191,0,0,1,.017-.084h0v-.03h-.017s-.064.047-.034-.017h-.017v-.034h0c.047-.084-.017-.034-.017-.047v.047H38.4v.034l-.034-.034h0c.034-.1-.064.047-.047-.017h0v-.03h0s0,.017-.034.047h-.017s-.017.034,0-.034c-.017.034-.034,0-.064.084h0a.25.25,0,0,1,.017-.084l-.064.064v-.037h0c.017-.064-.047-.034-.034-.1-.047.1,0-.047-.034.034,0-.017,0-.034.034-.047-.017.017,0-.047-.034,0,0-.017.017-.034.034-.047h0a.1.1,0,0,1,.017-.034c-.03.04-.057.084-.084.128q0-.034-.017,0s0-.047.034-.047c0,0,0-.047-.034,0h-.017s0,.017-.034.034h0s-.017,0,0-.047v.047c-.064.084,0-.064-.034-.034v.034s.034-.128.034-.145v-.017c0-.064-.034.047-.047.064,0-.034.034-.064.034-.084s-.064.084-.047.034a.064.064,0,0,1-.034.064s0-.1-.017-.034h0s-.034,0-.047.047c.047-.145-.064.047,0-.084h0a.051.051,0,0,0-.047.034V30.26q0-.034-.047.034v-.047s0-.084-.017-.034h0s0-.145-.064,0l-.034.034a.337.337,0,0,0-.034.1V30.28h0V30.2c-.034,0-.047-.064-.084-.084v.064h-.034s0-.064.017-.047c0-.034-.017.034-.034.047a.2.2,0,0,1,.034-.084h0s-.017.064-.034.064v-.04h0v.034s-.017,0-.034.047c.017-.1-.047-.047-.034-.084-.017.034-.034.034-.034.034s0,.064-.017.064c.034-.111,0-.047,0-.145,0,.064-.034,0-.047.1v-.084c-.034.047-.034-.034-.064-.034a.14.14,0,0,1-.017.064v-.084s-.017.1,0,.034v.034c-.034-.084-.111.047-.128-.111v.034s-.034,0-.034.064h0s-.017.145-.034.226c.017-.084,0,.111.034,0v.054c0-.034,0-.047.017-.034h0a.134.134,0,0,0,.047.064v-.017c.017-.064,0,0,0-.084,0,.084.034,0,.017.111,0,0,0-.047.017-.047h0v.064h.017a.109.109,0,0,0,.084-.047h.034l.017-.017a.085.085,0,0,1-.017.064c.034-.034.017-.034.047-.1v.034s0-.047.017-.047a.092.092,0,0,1-.034.084c0,.084.047-.064.034.047.034-.084,0-.047,0-.064,0-.034.034-.064.034-.047,0,0-.034.111,0,.111h0c.017-.047,0,0,.034-.064h-.017s.047-.084.047-.034a.081.081,0,0,1-.017.047h0c-.017.064-.017,0-.047.064,0,.034.034-.047,0,.034.034-.1,0,0,.047-.047v.047h0v.034s-.017.047,0,.017a.25.25,0,0,1,.017-.084c.034-.047-.034.111,0,.1h0a.077.077,0,0,1,.034-.064c0,.047,0-.017.034-.034V30.5s.017-.084.017-.047l-.034.047h0v.034h0a.2.2,0,0,1,.034-.084c0,.034-.017.034,0,.034,0,.034-.034.064-.017.017v.034h0l.034-.047s0,.034-.017.034v-.03a.191.191,0,0,1-.017.084l.034-.034v.047s.047-.064.047-.034h0s0,.034.034,0v.064s0-.084.034-.1c.017,0-.017.047-.017.064.017-.034.047-.084.047-.034h0v.034a.228.228,0,0,0-.047.084c.047-.111.034,0,.084-.111v.034h0s.047-.084.047-.047v.017H37.8s.034-.017.034-.034v.047c-.047.111.017-.034,0,.047h0a.24.24,0,0,1-.017.1.453.453,0,0,1,.047-.128h0c-.017.047,0,.034,0,.034V30.6a.133.133,0,0,1-.034.084.26.26,0,0,1,.034-.084c0,.034,0,0,.047-.017,0,.017-.017.034-.017.047l.034-.047h0s.034-.034.034-.047c.034-.064-.034.1,0,.034a.24.24,0,0,1-.034.047A.266.266,0,0,0,38,30.537v.034a.909.909,0,0,1,.064-.128V30.4h.047l-.034.034h0l-.034.064v-.034l-.047.1h0l-.034.047h0s.1-.111.111-.128a.909.909,0,0,0-.064.128c.017-.047-.034.017-.034,0,0,0,0,.034-.017.034L38,30.591a.081.081,0,0,1-.017.047c.034-.084.034-.047.064-.084a.054.054,0,0,1-.034.047c-.017.064.064-.1.047-.034h0s.017,0,0,.034h0s.034.017.084-.047l-.047.1.145-.226a2.082,2.082,0,0,1-.128.243h0s.034-.1.047-.1c-.034.064,0,.034-.034.1,0,0,.047-.111.064-.1l-.047.1.064-.084a.357.357,0,0,0-.047.111c0-.017,0,0,.017,0h0s.084-.145.1-.128-.064.111-.064.128c.034-.047.128-.226.162-.26h0s-.128.209-.162.26v.034a.036.036,0,0,1-.03.034h0V30.8a1.169,1.169,0,0,0,.084-.1l-.047.047s.1-.145.1-.128a.456.456,0,0,1-.064.111c0-.017.034-.034.034-.017v.034h0s-.034.084,0,.047c.034-.064.128-.26.162-.307a.56.56,0,0,1-.034.1.8.8,0,0,1-.1.162s.017-.034.034-.034c0,0-.034.047-.017.047l.034-.047h0a.717.717,0,0,1,.1-.128v.047s-.017.034,0,.047a.051.051,0,0,1-.034.047v.034c.017-.034.034-.034.047-.047.034-.047,0,0-.017,0a.69.69,0,0,1,.111-.162c.017,0-.017.047,0,.034,0,.017.084-.111.084-.047a.6.6,0,0,1-.064.111c-.017,0,0-.034,0-.034h0s-.017.047-.017.034c-.017.047.034.034.017.064a.24.24,0,0,1,.034-.047h0a.286.286,0,0,0,.047-.064h0l-.186.1Z" transform="translate(-24.522 -21.025)" fill="#f5b6c3"/>
      <path id="_パス_1642" d="M41.6,31.687s.034-.047.017-.034C41.647,31.62,41.566,31.7,41.6,31.687Z" transform="translate(-27.556 -22.128)" fill="#f5b6c3"/>
      <path id="_パス_1643" d="M41.42,32.33v.017l.017-.047-.017.034Z" transform="translate(-27.443 -22.562)" fill="#f5b6c3"/>
      <path id="_パス_1646" d="M41.13,32.117v.017l.017-.034h0Z" transform="translate(-27.251 -22.429)" fill="#f5b6c3"/>
      <path id="_パス_1648" d="M40.881,32.564a.146.146,0,0,0,.017-.034S40.864,32.564,40.881,32.564Z" transform="translate(-27.083 -22.714)" fill="#f5b6c3"/>
      <path id="_パス_1649" d="M40.7,31.984h0l.047-.084Z" transform="translate(-26.966 -22.297)" fill="#f5b6c3"/>
      <path id="_パス_1650" d="M40.1,32.474V32.44l-.034.064c0,.034.034-.047.017-.017h0l.017-.017Z" transform="translate(-26.549 -22.654)" fill="#f5b6c3"/>
      <path id="_パス_1651" d="M36.977,30.074l-.017-.034v.034Z" transform="translate(-24.488 -21.064)" fill="#f5b6c3"/>
      <path id="_パス_1654" d="M38.8,32.057l.017-.047-.034.047Z" transform="translate(-25.694 -22.37)" fill="#f5b6c3"/>
      <path id="_パス_1658" d="M21.085,46.68V46.7h.034S21.072,46.7,21.085,46.68Z" transform="translate(-13.969 -32.089)" fill="#f5b6c3"/>
      <path id="_パス_1703" d="M19.95,44.318H20.1c.034,0,.084,0,.047.017h.145c-.084,0,0-.017-.084,0h.067s.034-.017,0-.017h0s-.064-.034,0-.047H20.3s.034,0,0-.017c.1,0,.017-.017.034-.034h-.047l-.034-.017H20.21a.036.036,0,0,0,.034-.03h0c.1,0-.064-.017,0-.034h-.111c.084,0,0-.034.084-.047h.034c-.034,0,.047,0-.034-.017h-.034s.034-.017-.034-.017h-.04s-.034,0,.034-.017H20.1c-.1,0,.064,0,.017-.017h-.034a.518.518,0,0,0,.145-.017h.034s-.111-.017-.047-.034h-.064s.1-.017,0-.017h-.064c.162-.017-.084-.017.064-.034h0a.119.119,0,0,0-.064-.034h.034c.034,0,.017-.017-.047-.017h.047s.084-.034.017-.034h.017c-.064,0,.128-.047-.047-.034H19.96s.047-.017.064,0h0c.1,0,.034-.017.1-.017,0-.017.047-.047.034-.084h-.111c.1-.017.034-.047.064-.047h-.1c.128,0,.047-.017.145-.034-.064,0-.017-.017-.1,0h.084c-.047,0,.034-.034,0-.047h.017s-.1,0-.034-.034h-.047s-.084-.047.064-.1h-.1l.064-.034h-.064l-.243.047c.084,0-.111.034,0,.034h-.013l-.047.047h0l.084-.017c-.1.017,0,.034-.1.047h.017s0,.034.047.034h.017s-.017,0,0,.017h0c-.084.017.084,0-.034.034.1,0,.047-.017.084-.017h.064s-.128.017-.128.034h-.047s-.047.034,0,.034a.25.25,0,0,0,.084-.017c.064,0-.111.017-.1.034h.047s.034,0,0,.017h0a.449.449,0,0,1-.064.017c-.017,0,.084,0,.047.017h.017s-.047.017,0,.017H19.66c.128,0,0,.017.145,0h.084s0,.017-.034.017h-.034c-.128,0,.034,0-.047.017h-.017a.331.331,0,0,0-.1.017.522.522,0,0,1,.145,0h-.013l.047.017H19.9c.064,0-.1.017-.017.017h-.1s.179.034.209.034h-.145c.064,0-.034,0,0-.017h.017a.14.14,0,0,0-.064.017h.064s0,.034.084.034h.162s-.243.017-.273.017h-.111a.635.635,0,0,0,.111.017h.307a.4.4,0,0,0-.111.017H20s-.034.017-.034.034H20.1s.145,0,.084.034h-.145c-.047,0,0,.034-.047.034h0l-.024.229Z" transform="translate(-13.026 -29.923)" fill="#f5b6c3"/>
      <path id="_パス_1710" d="M20.66,46.207l.047-.017H20.66Z" transform="translate(-13.689 -31.765)" fill="#f5b6c3"/>
      <path id="_パス_1724" d="M0,32.843l.017.017L0,32.83v.017Z" transform="translate(0 -22.913)" fill="#f5b6c3"/>
      <path id="_パス_1725" d="M.1,32.764h0V32.8s.017-.047.034-.034C.1,32.7.134,32.764.1,32.764Z" transform="translate(-0.066 -22.85)" fill="#f5b6c3"/>
      <path id="_パス_1733" d="M.53,33.083l.017.034A.081.081,0,0,0,.53,33.07h0v.017Z" transform="translate(-0.351 -23.072)" fill="#f5b6c3"/>
      <rect id="_長方形_160" height="0.047" transform="translate(0.105 9.931)" fill="#f5b6c3"/>
      <path id="_パス_1735" d="M.637,33.183v.034L.62,33.17l.017.017h0Z" transform="translate(-0.411 -23.138)" fill="#f5b6c3"/>
      <path id="_パス_1736" d="M.72,33.153a.45.45,0,0,1,.017.064v-.051H.72V33.15Z" transform="translate(-0.477 -23.125)" fill="#f5b6c3"/>
      <path id="_パス_1738" d="M.53,33.02s0,.034.017.034V33.02Z" transform="translate(-0.351 -23.039)" fill="#f5b6c3"/>
      <path id="_パス_1741" d="M.33,32.68a.34.34,0,0,1,.017.084A.189.189,0,0,0,.33,32.68Z" transform="translate(-0.219 -22.813)" fill="#f5b6c3"/>
      <path id="_パス_1743" d="M.637,32.977V32.96H.62v.017Z" transform="translate(-0.411 -22.999)" fill="#f5b6c3"/>
      <path id="_パス_1750" d="M.637,32.354l.017.034c-.017-.047,0-.064-.034-.128v.034a.626.626,0,0,0,.084.2v-.051a.117.117,0,0,1-.034-.064h0l-.034-.017Z" transform="translate(-0.411 -22.535)" fill="#f5b6c3"/>
      <path id="_パス_1751" d="M.77,32.92h0s0,.017.034.047V32.92Z" transform="translate(-0.51 -22.972)" fill="#f5b6c3"/>
      <path id="_パス_1752" d="M.654,32.728a.15.15,0,0,0-.034-.1v.047a.1.1,0,0,0,.017.034h0v.034h0Z" transform="translate(-0.411 -22.78)" fill="#f5b6c3"/>
      <path id="_パス_1753" d="M.33,32.524a.385.385,0,0,1,.034.064.18.18,0,0,0-.034-.1h0v.047h0V32.52Z" transform="translate(-0.219 -22.688)" fill="#f5b6c3"/>
      <path id="_パス_1755" d="M.81,32.944l.017.034L.81,32.93v.017Z" transform="translate(-0.537 -22.979)" fill="#f5b6c3"/>
      <path id="_パス_1756" d="M.86,32.92l.017.034v-.017Z" transform="translate(-0.57 -22.972)" fill="#f5b6c3"/>
      <path id="_パス_1758" d="M2.06,32.54s.047.084.034.034V32.54Z" transform="translate(-1.365 -22.721)" fill="#f5b6c3"/>
      <path id="_パス_1761" d="M1.331,32.7s.007.017.017.017C1.348,32.7,1.314,32.674,1.331,32.7Z" transform="translate(-0.879 -22.821)" fill="#f5b6c3"/>
      <path id="_パス_1769" d="M1.87,31.19v.034l.047.111Z" transform="translate(-1.239 -21.826)" fill="#f5b6c3"/>
      <path id="_パス_1770" d="M2.564,30.227s-.064-.145-.1-.226c.017.084-.064-.1-.034,0v-.017h0a.879.879,0,0,1-.084-.034h0c.017.064.017,0,.034.064-.034-.084-.047,0-.084-.084,0,0,.017.047,0,.047h0s-.034-.034-.034-.047H2.246a.087.087,0,0,0-.064.084h0s-.017,0-.034.034h0v.034a.219.219,0,0,1-.034-.064.308.308,0,0,0,.017.111v.03c0-.034-.034-.047-.034-.084-.047-.064,0,.084-.047-.017.034.1.034.047.034.064,0,.034.017.064,0,.064,0,0-.047-.111-.064-.1h0s0,.034-.017,0c.017.047,0,0,0,.064H2s.017.084,0,.047v-.047H2c-.034-.064,0-.017,0-.084,0-.034,0,.047-.017-.017.034.1-.017,0,0,.064h0l-.034-.047s-.034-.034-.034,0c.017,0,.034.047.047.084,0,.064-.047-.1-.064-.064l.034.034L1.9,30.089a.449.449,0,0,1,.017.064c-.034-.047,0,.017,0,.047v-.051H1.9v-.03s-.017.034-.034.017c0,.034.034.084.017.084,0-.017,0-.034-.017-.034,0-.034-.017-.064,0-.017v-.034H1.835v.047A.628.628,0,0,1,1.8,30.1v.051s-.034-.034-.034-.047c-.017-.017,0,.084-.017.047h0s-.047-.017-.034.034l-.034-.064s.047.064.034.1c0,.017-.034-.047-.034-.064,0,.034.017.1,0,.047h0v-.03a.3.3,0,0,0-.047-.084c.047.111-.034.034.017.145H1.636V30.2s.034.084,0,.084a.064.064,0,0,1-.017-.034v.034H1.6v.047s-.017-.064,0-.064c-.064-.111,0,.034-.047-.034h0c-.034-.084-.034-.047-.064-.1,0,.017.064.1.064.128h0c-.017-.047-.017-.034-.017-.034v.013a.447.447,0,0,1-.047-.084.628.628,0,0,1,.034.084c-.017-.017-.017,0,0,.047a.06.06,0,0,0-.013-.047v.047h0a.315.315,0,0,1,.017.047c.017.064-.047-.084-.034,0a.081.081,0,0,0-.017-.047v.1l-.034-.034s.034.1.047.128l.034.047v.034a.081.081,0,0,0-.017-.047h0l-.034-.064v.034a.239.239,0,0,0-.017-.1h0l-.034-.047h0v.192c0-.047-.034-.084-.047-.128.034.047,0-.034.017-.017l-.017-.034v.064a.059.059,0,0,0-.034-.051c.034.084,0,.064,0,.1,0-.034-.017-.064,0-.047-.034-.064.034.111,0,.047h0c0,.034,0,0-.017,0h0s-.047,0-.017.084l-.034-.1.064.256a1.922,1.922,0,0,1-.1-.243h0a.523.523,0,0,1,.047.1l-.047-.1s.047.111.034.111a.553.553,0,0,0-.047-.111l.034.1s-.034-.084-.047-.111h0s.034.162.017.162c0-.017-.047-.128-.064-.128,0,.047.084.243.084.29h0s-.084-.243-.1-.307c0-.017,0-.034-.017-.034v-.051H1.1a.18.18,0,0,0,.034.1v-.064s.047.162.034.162a.586.586,0,0,0-.047-.128h0s0,.084-.017.034c0,0-.034-.064-.034-.034.034.064.111.273.128.324,0,0-.047-.064-.064-.084-.034-.047-.034-.128-.064-.162v.047s-.017-.047-.017-.034c.017.064-.017,0,0,.047,0,.017,0,0-.017,0,.017.034.047.128.034.145a.081.081,0,0,0-.017-.047c-.017,0-.034-.034-.047-.017a.239.239,0,0,0-.034-.047v.034l-.017-.064v.084c.017.047.017,0,.017-.017a.44.44,0,0,1,.047.2c0,.017-.017-.047-.017-.034-.034,0,.034.128,0,.084a.586.586,0,0,1-.047-.128c0-.017.034.034.034.017H.974v-.034c-.017-.034-.047,0-.084-.034v.047H.914a.118.118,0,0,0,.017.064h0c0,.034-.047-.064-.017,0v.034s.034.084.017.084c.017.047,0,0,.034.047-.034-.084.034,0,0-.084a.415.415,0,0,0,.047.084v-.03h0v-.115a.628.628,0,0,1,.034.084h0s.034.034.034,0h0v-.034h0s0-.064.047,0v.017s.047.034.034,0c.047.084.034,0,.064.017v-.111s.024.01.03,0h0c.047.084,0-.084.047-.017h.034l-.017-.034V30.75s0-.034.034.047a.4.4,0,0,0-.017-.111h0v-.017a.374.374,0,0,1,.047.1V30.7s0-.047.017-.017c.034.064.047,0,.1.047-.047-.1.034.034,0-.034,0,.017.017.034.034.064,0-.034.034.034.017-.034a.063.063,0,0,0,.017.047h0v.03a.729.729,0,0,0-.047-.145c.017.034.017.017,0-.017,0,.017.034.047.017.047,0,0,.047.017.017-.034h.017v-.03h0s0-.017.047.034v-.034c-.047-.084.017.047.017,0h0s.064.1.084.1v.017c.034.047-.017-.047,0-.064a.2.2,0,0,0,.034.084c0,.017-.017-.1.017-.047a.119.119,0,0,0-.034-.064s.064.084.034,0h0v-.067c.064.145,0-.084.064.047h.017V30.6c.034.017.034,0,.017-.064v.047s.084.047.064,0h0s.1.111.034-.034V30.5l-.047-.1s.034.034.034.047h0s.034,0,.047.064c.034-.017.084,0,.111,0l-.034-.064h0s.017.047,0,.047c.017.034,0-.034,0-.047.034.017.017.084.034.084h0v-.067l.017.034h.017l-.034-.047V30.4c.047.084.064,0,.084.034v-.047s-.034-.064-.017-.064c.047.111.034.047.084.128-.034-.047.017-.017-.017-.1a.168.168,0,0,0,.034.064c0-.047.047,0,.064,0a.226.226,0,0,1-.017-.064l.047.064s-.034-.084,0-.034v-.034s.047-.1.145.034c-.017-.034,0-.034,0-.034h0s.034,0,.017-.064h0l.047-.081Z" transform="translate(-0.59 -20.991)" fill="#f5b6c3"/>
      <path id="_パス_1774" d="M.777,32.565s0-.017-.017,0Z" transform="translate(-0.504 -22.732)" fill="#f5b6c3"/>
      <path id="_パス_1777" d="M.72,32.257V32.24l.017.047L.72,32.253Z" transform="translate(-0.477 -22.522)" fill="#f5b6c3"/>
      <path id="_パス_1783" d="M1.44,31.96h0l.034.084Z" transform="translate(-0.954 -22.336)" fill="#f5b6c3"/>
      <path id="_パス_1784" d="M1.53,31.225a.1.1,0,0,0,.017.034c0-.017,0,0-.017-.064-.017-.017.017.047,0,.034Z" transform="translate(-1.011 -21.827)" fill="#f5b6c3"/>
      <path id="_パス_1785" d="M5.94,31.1l.017.017Z" transform="translate(-3.936 -21.767)" fill="#f5b6c3"/>
      <path id="_パス_1788" d="M2.97,30.57h0L3,30.617Z" transform="translate(-1.968 -21.415)" fill="#f5b6c3"/>
    </g>
    <text id="Let_s_live_like_ourselves_today." data-name="Let&apos;s live like ourselves today." transform="translate(24.683 44)" fill="#f5b6c3" font-size="6" font-family="InkFree, Ink Free" letter-spacing="0.2em"><tspan x="0" y="0">Let&apos;s live like ourselves today.</tspan></text>
  </g>
</svg>
