<?xml version="1.0" encoding="UTF-8"?>
<svg id="_レイヤー_2" data-name="レイヤー 2" xmlns="http://www.w3.org/2000/svg" viewBox="0 0 400 116">
  <defs>
    <style>
      .cls-1 {
        opacity: .8;
      }

      .cls-2 {
        fill: #f2a5ba;
      }

      .cls-2, .cls-3 {
        stroke-width: 0px;
      }

      .cls-3 {
        fill: #f1a1b4;
      }
    </style>
  </defs>
  <g id="_レイヤー_1-2" data-name="レイヤー 1">
    <g>
      <g>
        <path id="_パス_1380-2" data-name=" パス 1380-2" class="cls-3" d="M62.28,69.39h-29.46V13.91h6.14v50.31h23.31v5.17Z"/>
        <path id="_パス_1381-2" data-name=" パス 1381-2" class="cls-3" d="M80.49,22.72c-2.2,0-3.99-1.75-4-3.91h0v-.23c-.05-2.19,1.72-4.01,3.94-4.06s4.08,1.69,4.13,3.88v.17c.16,2.13-1.45,3.98-3.61,4.14-.15.01-.31.01-.46,0h0ZM83.6,69.39h-6.14V29.72h6.14v39.68Z"/>
        <path id="_パス_1382-2" data-name=" パス 1382-2" class="cls-3" d="M103.87,29.7c0-4.96,0-11.44,4.44-15.88,2.52-2.34,5.86-3.61,9.32-3.56,2.06-.02,4.1.37,6,1.17l-1.03,4.73c-1.47-.63-3.06-.95-4.66-.95-6.36,0-7.92,5.83-7.92,12.23v2.26h9.77v4.73h-9.77v34.95h-6.14v-34.95h-5.55v-4.73h5.55Z"/>
        <path id="_パス_1383-2" data-name=" パス 1383-2" class="cls-3" d="M162.12,67.71c-3.98,1.74-8.3,2.59-12.65,2.47-11.78,0-18.81-8.15-18.81-20.02s7.11-21.41,17.99-21.41c12.44,0,15.62,11.21,15.62,18.13,0,1.38-.08,2.4-.15,3.35h-27.45c.08,10.99,6.44,15.13,13.69,15.13,3.63.07,7.24-.62,10.58-2.04l1.19,4.36h0l-.02.02ZM158.2,45.72c.08-5.4-2.22-12.38-10.14-12.38-7.41,0-10.66,6.91-11.25,12.38h21.39Z"/>
        <path id="_パス_1384-2" data-name=" パス 1384-2" class="cls-3" d="M230.88,20.75c-3.01-1.72-6.44-2.6-9.91-2.55-7.84,0-10.81,4.73-10.81,8.74,0,5.46,3.41,8.22,10.95,11.36,9.1,3.79,13.76,8.37,13.76,16.31,0,8.81-6.52,15.58-18.65,15.58-4.73.06-9.39-1.15-13.47-3.5l1.71-5.02c3.64,2.24,7.85,3.42,12.14,3.42,7.55,0,11.99-4.01,11.99-9.98,0-5.46-3.04-8.81-10.36-11.72-8.51-3.13-14.28-8.01-14.28-15.65,0-8.45,6.96-14.63,17.25-14.63,4.01-.14,7.99.77,11.54,2.62l-1.85,5.02h-.01Z"/>
        <path id="_パス_1385-2" data-name=" パス 1385-2" class="cls-3" d="M253.51,22.49l6.07-2.04v9.24h10.43v4.73h-10.43v22.94c0,5.02,1.55,7.79,5.48,7.79,1.4.04,2.81-.15,4.14-.58l.37,4.66c-1.92.7-3.95,1.02-6,.95-9.77,0-10.07-8.74-10.07-12.95v-22.79h-6.22v-4.74h6.21v-7.21h0Z"/>
        <path id="_パス_1386-2" data-name=" パス 1386-2" class="cls-3" d="M311.9,59.91c-.08,3.17.12,6.33.59,9.47h-5.63l-.6-5.1h-.22c-2.69,3.84-7.17,6.09-11.92,5.97-6.17.32-11.43-4.33-11.77-10.39-.02-.3-.02-.59,0-.89,0-9.53,8.44-14.71,23.38-14.63,0-3.35,0-10.92-9.18-10.92-3.5-.04-6.92.95-9.84,2.84l-1.48-4.15c3.7-2.24,7.96-3.4,12.31-3.35,11.4,0,14.36,7.94,14.36,15.8v15.36h0ZM305.84,48.77c-7.63,0-17.17,1.09-17.17,9.47-.42,3.62,2.22,6.89,5.9,7.3.35.04.7.05,1.05.04,5.43.2,10-3.97,10.21-9.32v-7.49h0Z"/>
        <path id="_パス_1387-2" data-name=" パス 1387-2" class="cls-3" d="M349.57,34.79c-.74-.09-1.48-.14-2.22-.14-6.67,0-10.07,6.48-10.07,13.18v21.55h-6.14v-27.81c0-4.22-.08-8.08-.29-11.87h5.4l.29,7.65h.22c1.44-4.84,5.83-8.25,10.95-8.52.62.03,1.24.11,1.85.22v5.75h.02Z"/>
      </g>
      <g>
        <path class="cls-3" d="M13.65,105.54c-.05.48-.14.98-.24,1.51h6.5c.93,0,1.31.74,1.31,1.48,0,1.05-1.14,2.8-2.36,4.02.86.43,1.76.79,2.76,1.08.48.14.67.5.67.89,0,.67-.55,1.41-1.24,1.41-.83,0-2.93-1.32-3.98-1.99-2.48,1.63-4.12,1.99-4.5,1.99-.69,0-1.26-.69-1.26-1.32,0-.36.21-.69.69-.84,1.24-.31,2.41-.65,3.29-1.08-1.02-.93-1.93-2.03-2.52-3.11-.62,1.94-1.6,3.9-3.07,5.55-.26.26-.52.36-.81.36-.69,0-1.33-.65-1.33-1.32,0-.24.09-.5.31-.72,2.33-2.44,3.26-5.41,3.57-7.92h-1.86c-.21,0-.4-.05-.55-.14l.19.53c.05.12.07.24.07.36,0,.62-.55,1.03-1.07,1.03-.64,0-.74-.31-1.07-1.29l-1.21.17v8.76c0,.69-.55,1.05-1.12,1.05s-1.12-.36-1.12-1.05v-8.47c-1,.1-1.93.17-2.57.19h-.05c-.67,0-1.07-.65-1.07-1.22,0-.5.26-.93.91-.93h.88c.67-.98,1.31-1.96,1.88-2.9-.71-.57-1.81-1.41-3.05-2.37-.31-.24-.43-.55-.43-.84,0-.62.5-1.2,1.07-1.2.26,0,.38.07.76.33.57-.93,1.24-2.2,1.81-3.4.19-.38.48-.53.79-.53.57,0,1.19.5,1.19,1.12,0,.12,0,.65-2.26,4.02l1.21,1.08c.64-1.1,1.17-2.03,1.5-2.73.17-.36.5-.5.81-.5.6,0,1.24.48,1.24,1.1,0,.67-2.76,4.79-4.1,6.65.76-.05,1.55-.12,2.26-.19-.26-.69-.38-1.05-.38-1.24,0-.55.5-.96.95-.96.6,0,.83.36,1.52,2.2.07-.45.38-.81.95-.81h2.14l.07-1.53h-1.62c-.67,0-1.02-.53-1.02-1.03s.36-1.03,1.02-1.03h.55c-.07-.07-.14-.17-.19-.29-.21-.41-.55-.91-.83-1.34-.17-.19-.24-.41-.24-.62,0-.38.29-.74.62-.93h-.45c-.67,0-1.07-.67-1.07-1.29,0-.5.29-.96.93-.96h.71c4.86,0,8.96-.45,10.31-.69.05,0,.1-.02.14-.02.69,0,1.29.72,1.29,1.34,0,.43-.24.77-.86.89-.12,0-.21.02-.38.05.45.17.81.57.81,1.03,0,.17-.02.31-.12.45-.29.6-.83,1.46-1.45,2.39h.83c.69,0,1.05.5,1.05,1.03s-.36,1.03-1.05,1.03h-6.72c-.02.43-.05.96-.12,1.53h7.43c.64,0,.98.55.98,1.1s-.33,1.08-1,1.08h-7.65ZM2.98,108.7c-.12,1.17-.31,3.42-.62,5.22-.09.55-.52.79-.98.79-.6,0-1.24-.43-1.24-1.05,0-.07,0-.14.02-.22.45-1.96.76-3.9.88-4.95.05-.6.45-.84.88-.84.52,0,1.05.33,1.05.93v.12ZM8.86,111.26c0,.74-.62,1.15-1.17,1.15-.4,0-.79-.24-.83-.81-.07-1.03-.19-2.06-.38-2.94-.02-.07-.02-.14-.02-.22,0-.6.5-.93,1-.93.69,0,1,.29,1.4,3.61v.14ZM15.03,99.78c-.12-.1-.24-.19-.31-.38-.17-.36-.57-1.17-.86-1.65-.1-.19-.14-.36-.14-.53,0-.31.17-.57.4-.74l-3.02.1c.29.17,1.48,1.79,1.48,2.42,0,.31-.17.6-.4.79h2.86ZM14.72,109.13c.57.79,1.45,1.79,2.24,2.39.57-.53,1.62-1.84,1.62-2.25,0-.07-.05-.14-.17-.14h-3.69ZM17.51,99.78c.74-1.08,1.43-2.46,1.86-3.4.07-.14.19-.26.29-.36-1.07.12-2.5.24-4.19.36.14.1.24.22.36.38.21.41.91,1.72.91,2.08,0,.43-.26.77-.62.93h1.41Z"/>
        <path class="cls-3" d="M32.7,105.02c-.57,1.7-1.79,4.31-3.19,5.89-.26.29-.57.41-.86.41-.69,0-1.24-.72-1.24-1.41,0-.26.07-.53.29-.74,2.22-2.22,3.81-5.19,4.55-7.08h-3.43c-.67,0-1.02-.57-1.02-1.15s.36-1.12,1.02-1.12h3.88v-2.92c-.91.1-1.95.22-3.1.29h-.05c-.69,0-1.19-.72-1.19-1.34,0-.45.29-.89.93-.91,4.6-.24,7.07-.91,8.26-1.22.1-.02.17-.02.26-.02.69,0,1.14.69,1.14,1.32,0,.48-.21.91-.76,1.03-.69.14-1.76.36-3.22.6v3.18h3.41c.69,0,1.02.57,1.02,1.12s-.33,1.15-1.02,1.15h-3.05c.81.77,4,3.97,4,4.91,0,.69-.67,1.41-1.31,1.41-.33,0-.64-.19-.88-.65-.71-1.53-1.43-2.75-2.17-3.73v10.91c0,.69-.57,1.03-1.14,1.03s-1.14-.34-1.14-1.03v-9.91ZM41.56,114.54c-1.19,0-1.79-.6-1.79-1.79v-16.25c0-1.2.6-1.79,1.79-1.79h5.74c1.19,0,1.76.6,1.76,1.79v16.25c0,1.2-.57,1.79-1.76,1.79h-5.74ZM46.78,97.31c0-.24-.12-.38-.38-.38h-3.93c-.26,0-.38.14-.38.38v14.6c0,.26.12.38.38.38h3.93c.26,0,.38-.12.38-.38v-14.6Z"/>
        <path class="cls-3" d="M71.34,100.14c-.5,13.23-11.55,14.91-11.86,14.91-.93,0-1.48-.72-1.48-1.41,0-.55.33-1.08,1.07-1.24,6.1-1.29,9.31-5.77,9.57-12.25h-7.24c-1.1,2.15-2.57,4.07-4.45,5.6-.29.24-.6.34-.88.34-.71,0-1.31-.62-1.31-1.29,0-.34.14-.69.5-.98,2.79-2.27,4.5-5.5,5.24-9.02.14-.67.67-.96,1.24-.96.69,0,1.43.45,1.43,1.27,0,.62-.67,2.51-.71,2.61l12.77-.02c.83,0,1.24.62,1.24,1.24s-.4,1.22-1.24,1.22h-3.88Z"/>
        <path class="cls-3" d="M90.8,100.76c0-.86.67-1.27,1.33-1.27s1.38.41,1.43,1.2c.05.62.05,1.22.05,1.79,0,6.29-2.19,10.93-8.86,12.87-.19.05-.38.07-.55.07-.88,0-1.43-.69-1.43-1.36,0-.5.31-1.01.95-1.2,5.43-1.58,7.17-4.59,7.17-9.67,0-.72-.02-1.48-.1-2.3v-.14ZM83.99,97.81c-.71,0-1.07-.62-1.07-1.27s.36-1.24,1.07-1.24h16.48c1.95,0,3.07.81,3.07,2.61,0,.29-.02.6-.09.96-1.12,6.41-7.07,8.59-8.62,8.59-.83,0-1.38-.69-1.38-1.39,0-.53.33-1.05,1.12-1.2,4.86-.84,6.14-5.48,6.14-6.34,0-.55-.33-.72-.81-.72h-15.91Z"/>
        <path class="cls-3" d="M123.67,115.26c-1.26,0-2.24-1.05-2.24-2.23v-16.51c0-1.17.98-2.23,2.24-2.23h17.86c.69,0,1.02.53,1.02,1.08s-.33,1.08-1.02,1.08h-17.08c-.43,0-.79.33-.79.79v14.88c0,.45.36.79.79.79h17.67c.69,0,1.02.57,1.02,1.17s-.33,1.17-1.02,1.17h-18.46ZM135.67,105.45c1.33,1.6,3.48,3.25,6.45,4.47.43.19.6.5.6.89,0,.65-.55,1.36-1.21,1.36-.1,0-.21-.02-.36-.07-3.31-1.32-6.05-3.95-7.57-5.96-1.71,2.97-5.14,5.1-7.74,5.98-.17.05-.31.07-.43.07-.74,0-1.24-.69-1.24-1.32,0-.41.21-.79.69-.93,2.55-.72,5.22-2.3,6.62-4.5h-6.36c-.67,0-1.02-.53-1.02-1.08s.36-1.05,1.02-1.05h7.24c.02-.22.05-.38.05-.57v-2.23h-4.22c-1.38,2.03-1.95,2.3-2.36,2.3-.64,0-1.33-.6-1.33-1.24,0-.26.1-.5.36-.74,1.33-1.29,2.05-2.3,2.69-3.71.21-.43.6-.6,1-.6.6,0,1.21.38,1.21.98,0,.29-.07.41-.31.84h11.48c.69,0,1.02.55,1.02,1.08s-.33,1.1-1.02,1.1h-6.29s0,2.58-.02,2.8h7.15c.69,0,1.05.53,1.05,1.05s-.36,1.08-1.05,1.08h-6.1Z"/>
        <path class="cls-3" d="M163.19,110.57v2.82c0,1.7-.31,2.56-2.71,2.56-1.76,0-2.64-.07-2.64-1.24,0-.6.33-1.2.91-1.2.07,0,.12,0,.19.02.67.14,1.12.22,1.4.22.45,0,.5-.22.5-.84v-2.34h-4.24c-1.19,0-1.79-.6-1.79-1.79v-3.23l-.21.07c-.1.05-.21.05-.31.05-.67,0-1.29-.69-1.29-1.29,0-.34.19-.65.71-.79.69-.19,1.33-.41,1.91-.65-.33-.26-.67-.55-1.02-.77-.26-.17-.36-.43-.36-.65,0-.53.52-1.05,1.07-1.05.29,0,.64.07,2.05,1.56.74-.53,1.52-1.17,2.02-1.79h-4.79c-.67,0-1.02-.5-1.02-.98s.36-.98,1.02-.98h5.86c.09-.24.12-.33.19-.57.1-.31.33-.45.6-.55h-7.93c-.24,0-.36.12-.36.36v4.28c0,6.22-.33,9.59-2.17,13.45-.24.53-.62.72-1,.72-.67,0-1.29-.55-1.29-1.2,0-.17.05-.33.14-.53,1.26-2.49,1.81-4.67,2.05-7.73-.81,1.63-1.14,2.03-1.6,2.03-.48,0-.95-.62-.95-1.34,0-.38.12-.77.43-1.12.88-1.03,1.62-2.15,2.24-3.42v-2.08c-.12.36-.48.53-.79.53-.36,0-.67-.19-.76-.62-.33-1.44-.71-3.59-.93-4.24-.05-.12-.05-.22-.05-.31,0-.57.52-.93,1.02-.93.38,0,.79.24.88.72.12.57.4,2.49.62,4v-2.97c0-1.2.6-1.79,1.79-1.79h7v-.53c0-.57.64-.86,1.29-.86s1.33.29,1.33.86v.53h7.31c.67,0,1,.55,1,1.1s-.33,1.1-1,1.1h-7.14c.43.14.62.41.62.72,0,.12-.05.26-.12.41h6.17c.69,0,1.02.48,1.02.98s-.33.98-1.02.98h-5.17c.81.74,1.45,1.36,2.41,1.87.48-.41.98-.96,1.31-1.36.21-.26.48-.36.71-.36.57,0,1.14.48,1.14,1.01,0,.19-.07.41-.26.62-.36.34-.69.62-1.05.89.48.14,1.26.41,1.76.5.48.1.67.45.67.81,0,.62-.5,1.32-1.17,1.32-.17,0-.5-.1-.55-.12v3.37c0,1.2-.6,1.79-1.79,1.79h-3.88ZM153.73,115.4c-.6,0-1.12-.62-1.12-1.24,0-.29.12-.65.5-.86,1.24-.74,2.29-1.63,2.93-2.3.14-.17.38-.24.6-.24.57,0,1.1.57,1.1,1.12,0,.24-.1.45-.24.62-.05.07-2.86,2.9-3.76,2.9ZM166.64,104.9c0-.24-.12-.36-.38-.36h-8.86c-.26,0-.38.12-.38.36v.86h9.62v-.86ZM166.64,107.39h-9.62v.93c0,.24.12.36.38.36h8.86c.26,0,.38-.12.38-.36v-.93ZM164.14,102.77c-.95-.72-1.93-1.77-2.52-2.46-.52.74-1.4,1.79-2.14,2.46h4.67ZM165.95,112.67c-.31-.22-.4-.5-.4-.81,0-.55.5-1.12,1.05-1.12.17,0,.33.05.48.14,1.95,1.22,3.43,2.46,3.43,3.23,0,.62-.5,1.17-1.07,1.17-.19,0-.4-.05-.6-.22-.91-.93-2.05-1.82-2.88-2.39Z"/>
        <path class="cls-3" d="M202.01,101.05c0-.69.62-1.03,1.24-1.03h.12c-1.88-1.22-3.52-2.56-5.02-3.8-.02-.02-.1-.05-.14-.05-.07,0-.14.02-.17.05-1.36,1.36-2.95,2.66-4.88,3.8.52.1.98.43.98,1.01,0,6.58-.02,10.89-4.29,14.69-.24.19-.5.29-.76.29-.74,0-1.45-.74-1.45-1.44,0-.26.12-.5.38-.69,3.76-2.9,3.57-6.34,3.64-13.02-1.31.69-3.19,1.48-3.57,1.48-.69,0-1.19-.77-1.19-1.48,0-.45.19-.89.69-1.05,3.81-1.34,6.76-3.4,8.88-5.65.43-.45,1-.65,1.6-.65s1.21.22,1.67.65c2.26,2.13,5.17,4.07,8.96,5.72.48.22.67.62.67,1.08,0,.69-.48,1.44-1.19,1.44-.12,0-.26,0-.4-.07-1.17-.45-2.29-1.05-3.33-1.67.05.14.07.26.07.41v13.88c0,.69-.62,1.05-1.24,1.05s-1.24-.36-1.24-1.05v-13.88Z"/>
        <path class="cls-3" d="M215.38,99.68c-.67,0-1-.53-1-1.08s.33-1.05,1-1.05h5.91c.67,0,.98.53.98,1.05s-.31,1.08-.98,1.08h-5.91ZM216.4,115.26c-.95,0-1.43-.48-1.43-1.44v-4.86c0-.98.48-1.46,1.43-1.46h3.86c.98,0,1.45.48,1.45,1.46v4.83c0,.96-.48,1.46-1.45,1.46h-3.86ZM216.21,96.4c-.64,0-.98-.53-.98-1.08s.33-1.05.98-1.05h4.24c.67,0,.98.53.98,1.05s-.31,1.08-.98,1.08h-4.24ZM216.21,106.33c-.64,0-.98-.53-.98-1.08s.33-1.05.98-1.05h4.24c.67,0,.98.53.98,1.05s-.31,1.08-.98,1.08h-4.24ZM216.23,103.01c-.64,0-.98-.53-.98-1.05s.33-1.05.98-1.05h4.22c.67,0,.98.53.98,1.05s-.31,1.05-.98,1.05h-4.22ZM219.47,109.92c0-.19-.1-.29-.29-.29h-1.69c-.19,0-.29.1-.29.29v2.87c0,.19.1.29.29.29h1.69c.19,0,.29-.1.29-.29v-2.87ZM224.98,107.72c-1.19,0-1.79-.6-1.79-1.79v-2.61c-.19.19-.45.41-.83.41-.5,0-.91-.45-.91-1.01,0-.29.12-.57.4-.84,1.38-1.2,2.07-2.51,2.45-3.4.17-.41.62-.6,1.05-.6h.14c-.1-.1-.14-.24-.14-.41v-.57h-2.64c-.64,0-.95-.48-.95-.96s.31-.96.95-.96h2.64v-.69c0-.53.55-.77,1.12-.77s1.1.24,1.1.77v.69h3.43v-.69c0-.53.55-.77,1.12-.77s1.1.24,1.1.77v.69h2.45c.64,0,.98.48.98.96s-.33.96-.98.96h-2.45v.57c0,.5-.55.74-1.1.74s-1.12-.24-1.12-.74v-.57h-3.43v.57c0,.5-.6.77-1.17.77h-.14c.12.12.17.26.17.43,0,.1-.02.24-.07.36h2.48c.19-.29.33-.53.43-.74.17-.41.57-.55.95-.55.55,0,1.12.33,1.12.89,0,.12-.02.26-.1.41h3.79c.6,0,.88.41.88.81,0,.43-.29.84-.88.84h-3.86v.81h3.41c.5,0,.74.36.74.72s-.24.72-.74.72h-3.41v.81h3.41c.5,0,.74.36.74.72,0,.38-.24.74-.74.74h-3.41v.79h4c.55,0,.83.43.83.86s-.29.86-.83.86h-10.19ZM235.41,115.88c-2.1-.19-3.93-.65-5.57-1.24-1.74.57-3.83,1.12-6.36,1.34h-.14c-.74,0-1.24-.65-1.24-1.22,0-.45.29-.84.93-.86,1.62-.12,3.14-.26,4.33-.53-1.05-.74-2.17-1.7-3.05-2.94h-1.29c-.5,0-.74-.48-.74-.96s.24-.93.74-.93h11.12c.95,0,1.45.65,1.45,1.41,0,1.34-1.29,2.25-3.22,3.45,1.05.17,2.43.29,3.48.34.6.05.83.41.83.84,0,.6-.48,1.32-1.19,1.32h-.1ZM229.1,100.69h-3.88v.81h3.88v-.81ZM229.1,102.94h-3.88v.81h3.88v-.81ZM229.1,105.21h-3.88v.41c0,.26.14.38.38.38h3.5v-.79ZM227,110.42c.93.98,1.91,1.75,2.93,2.23,1.74-.72,3.17-1.89,3.17-2.08,0-.07-.07-.14-.14-.14h-5.95Z"/>
        <path class="cls-3" d="M287.29,110.71v2.7c0,1.75-.55,2.54-3,2.54-.76,0-1.69-.07-2.86-.22-.67-.1-.95-.62-.95-1.15,0-.62.38-1.24,1.02-1.24.07,0,.12.02.19.02,1.26.24,2.07.34,2.55.34.76,0,.83-.26.83-.81v-2.18h-9.81c1.02.48,2.19,1.12,2.86,1.53.38.24.52.57.52.96,0,.62-.45,1.27-1.12,1.27-.21,0-.45-.1-.71-.26-.76-.53-1.93-1.2-2.76-1.7-.31-.17-.4-.41-.4-.69,0-.45.33-.98.64-1.1h-4.07c-.69,0-1.02-.55-1.02-1.08s.33-1.08,1.02-1.08h14.86v-1.44h-12.5c-1.17,0-1.76-.6-1.76-1.79v-5.31c0-1.2.6-1.77,1.76-1.77h6.6v-1.32h-8.91c-.67,0-1.02-.55-1.02-1.1s.36-1.08,1.02-1.08h8.91v-.17c0-.69.6-1.05,1.17-1.05s1.17.36,1.17,1.05v.17h8.96c.69,0,1.05.55,1.05,1.08s-.36,1.1-1.05,1.1h-8.96v1.32h6.55c1.19,0,1.79.57,1.79,1.77v5.31c0,1.2-.6,1.79-1.79,1.79h-.76v1.44h3.14c.69,0,1.05.53,1.05,1.08s-.36,1.08-1.05,1.08h-3.14ZM279.16,100.26h-5.76c-.26,0-.38.12-.38.36v1.1h6.14v-1.46ZM279.16,103.53h-6.14v1.17c0,.24.17.38.43.38h5.72v-1.56ZM287.62,100.61c0-.24-.12-.36-.38-.36h-5.74v1.46h6.12v-1.1ZM287.62,103.53h-6.12v1.56h5.74c.26,0,.38-.14.38-.38v-1.17Z"/>
        <path class="cls-3" d="M297.29,95.71c0-.98.48-1.44,1.45-1.44h6.67c.98,0,1.45.45,1.45,1.44v7.32c0,.96-.48,1.44-1.45,1.44h-5.64v10.48c0,.69-.62,1.03-1.24,1.03s-1.24-.34-1.24-1.03v-19.24ZM304.63,96.64c0-.19-.1-.29-.29-.29h-4.26c-.21,0-.31.1-.31.29v1.6h4.86v-1.6ZM304.63,100.35h-4.86v1.99h4.57c.19,0,.29-.12.29-.31v-1.67ZM315.63,104.47h-5.64c-.98,0-1.45-.48-1.45-1.44v-7.32c0-.98.48-1.44,1.45-1.44h6.67c.98,0,1.45.45,1.45,1.44v16.41c0,2.87-1.14,3.83-3.55,3.83-.95,0-2.12-.17-3.52-.41-.69-.12-1-.77-1-1.39,0-.69.36-1.32,1.05-1.32.1,0,.19.02.29.02,1.31.29,2.24.43,2.88.43,1.12,0,1.38-.45,1.38-1.29v-7.54ZM315.63,96.64c0-.19-.09-.29-.31-.29h-4.26c-.19,0-.29.1-.29.29v1.6h4.86v-1.6ZM315.63,100.35h-4.86v1.67c0,.19.1.31.29.31h4.57v-1.99Z"/>
        <path class="cls-3" d="M341.55,101.67v1.44c0,5.91-2.14,11.37-11.12,12.27h-.17c-.88,0-1.36-.67-1.36-1.32,0-.55.36-1.1,1.14-1.17,7.6-.65,9.05-5.17,9.05-9.79v-1.44h-7.86v6.27c0,.74-.62,1.1-1.26,1.1s-1.26-.36-1.26-1.1v-6.27h-3.76c-.71,0-1.1-.6-1.1-1.2s.38-1.2,1.1-1.2h3.76v-3.88c0-.74.62-1.12,1.26-1.12s1.26.38,1.26,1.12v3.88h7.86v-3.88c0-.77.62-1.12,1.24-1.12s1.21.36,1.21,1.12v3.88h3.72c.71,0,1.07.6,1.07,1.2s-.36,1.2-1.07,1.2h-3.72Z"/>
        <path class="cls-3" d="M362.34,102.89c-3.88,1.89-9.07,3.64-9.72,3.64-.79,0-1.24-.72-1.24-1.41,0-.53.29-1.08.86-1.22,7.84-2.13,13.15-5.07,17.08-9.31.29-.31.62-.43.95-.43.74,0,1.45.65,1.45,1.36,0,.31-.12.65-.43.93-1.93,1.89-3.95,3.54-6.26,4.93l.02,12.8c0,.89-.81,1.22-1.36,1.22s-1.36-.34-1.36-1.17v-11.34Z"/>
        <path class="cls-3" d="M382.66,95.09c0-.79.69-1.2,1.36-1.2s1.36.41,1.36,1.2v5.19c3.5.89,10,2.78,13.81,4.67.57.29.81.77.81,1.24,0,.74-.57,1.48-1.33,1.48-.19,0-.43-.05-.67-.19-3.31-1.79-9.53-3.73-12.62-4.52v11.41c0,.89-.67,1.29-1.33,1.29s-1.38-.43-1.38-1.29v-19.29Z"/>
      </g>
      <g id="_グループ_125" data-name=" グループ 125" class="cls-1">
        <path id="_パス_1407" data-name=" パス 1407" class="cls-2" d="M382.43,2.71c-.02-.06-.04-.11-.08-.16-.08.24.08.16.08.16Z"/>
        <path id="_パス_1408" data-name=" パス 1408" class="cls-2" d="M381.8,5.07l-.04.36.04-.32v-.04Z"/>
        <path id="_パス_1409" data-name=" パス 1409" class="cls-2" d="M381.39,6.47h.04s.19,0,.23-.08h0l-.15-.32h0l.08-.36c-.12,0-.24.03-.35.08h0l.15.32c-.09.41-.21.8-.35,1.19.15-.12.23-.52.31-.84h.04ZM381.54,6.11l-.08.28.08-.28Z"/>
        <path id="_パス_1410" data-name=" パス 1410" class="cls-2" d="M380.42,8.11h0c0,.1-.03.19-.08.28.08-.04,0,.28.11-.28h-.04Z"/>
        <path id="_パス_1412" data-name=" パス 1412" class="cls-2" d="M380.08,9.22v-.32s-.11.32-.11.2c-.08.32,0,.28.11.12h0Z"/>
        <path id="_パス_1414" data-name=" パス 1414" class="cls-2" d="M380.19,9.02l-.08.36s.08,0,0-.16v-.2h.08Z"/>
        <path id="_パス_1415" data-name=" パス 1415" class="cls-2" d="M380.19,9.78l.04-.12.08-.6-.11.72h0Z"/>
        <path id="_パス_1417" data-name=" パス 1417" class="cls-2" d="M378.49,11.66s-.19-.12-.04-.16c-.22.02-.44.06-.65.12h.69v.04Z"/>
        <path id="_パス_1418" data-name=" パス 1418" class="cls-2" d="M377.49,11.74c.1-.02.21-.05.31-.08-.11-.02-.22.01-.31.08Z"/>
        <path id="_パス_1424" data-name=" パス 1424" class="cls-2" d="M378.15,11.82s-.35.04-.54.04h.65s.11-.08-.11-.08h0v.04Z"/>
        <path id="_パス_1428" data-name=" パス 1428" class="cls-2" d="M376.91,11.78c.09,0,.18.01.27.04-.08,0-.27-.08-.27-.04Z"/>
        <path id="_パス_1430" data-name=" パス 1430" class="cls-2" d="M378.88,11.82c-.08,0-.16.03-.23.08h.23v-.08Z"/>
        <path id="_パス_1431" data-name=" パス 1431" class="cls-2" d="M375.17,12.05s.84.12.54.2c-.5.04-.42,0-.65-.08.19.12-.65.16-.54.32l.42-.08s-.15.08,0,.08c0-.08.46-.16.85-.08.39-.08.11-.36-.19-.52,0,0,0,.08-.39.12h0l-.03.03h0Z"/>
        <path id="_パス_1432" data-name=" パス 1432" class="cls-2" d="M375.61,11.89h.89c-.18-.02-.36-.06-.54-.12-.27.04-.31.08-.35.12h0Z"/>
        <path id="_パス_1434" data-name=" パス 1434" class="cls-2" d="M378.88,12.09h-.61l.31.12h0c.35,0,.27-.08.31-.12Z"/>
        <path id="_パス_1435" data-name=" パス 1435" class="cls-2" d="M375.48,11.85l.08-.12-.35.16.27-.04Z"/>
        <path id="_パス_1436" data-name=" パス 1436" class="cls-2" d="M374.68,11.86l.04-.08-.23.04.19.04h0Z"/>
        <path id="_パス_1437" data-name=" パス 1437" class="cls-2" d="M380.23,24.23l-.08.16.15-.2h-.08v.04Z"/>
        <path id="_パス_1439" data-name=" パス 1439" class="cls-2" d="M372.21,12.29l.08-.04s-.08,0-.08.04Z"/>
        <path id="_パス_1441" data-name=" パス 1441" class="cls-2" d="M395.25,14.13s-.39.4-.23.28l.42-.32h-.11c.23-.26.48-.49.77-.68.42-.24.35-.12.54-.24,0,0,.08,0,.23-.16l.93-.68-.69.32c.19-.24.77-.56,0-.16.15-.08.35-.16.54-.28-.18,0-.36-.01-.54-.04v-.08c-.08-.06-.17-.12-.27-.16-.11,0-.15,0-.5.16-.04-.1-.14-.17-.24-.16-.27,0-.54.07-.78.2h-1.3c-.29.05-.59.07-.88.08h0c-.06-.09-.14-.15-.23-.2-.21,0-.42.07-.58.2-.19-.12-.93-.04-1.19-.24.11.04-.04.08-.27.08-.39-.12-.85-.28-.96-.32-.04,0-.08-.02-.11-.04-.15-.04-.27,0-.73.32h-.54c-.28,0-.56-.03-.84-.08h-.11c-.39-.12-.93-.24-1.08-.28v-.15h0c0-.15-.01-.29-.04-.44-.03-.35-.08-.7-.15-1.04-.07-.07-.15-.12-.24-.15h-.19l-.07-.16.08-.32c.14-.48.2-.98.19-1.48-.07-.07-.14-.12-.23-.16-.15,0-.15-.04-.65.28l-.11-.28v-.09c.01-.39,0-.78-.04-1.16-.07-.07-.14-.12-.23-.16h-.15l.11-.36c.22-.48.35-.99.39-1.52-.07-.07-.14-.12-.23-.16-.15,0-.29.04-.42.12v-.08c-.05-.04-.11-.08-.15-.12l-.07-.15c-.39-.76-.46-.88-.46-.91-.05-.08-.13-.14-.23-.16h-.23c.01-.08,0-.17-.04-.24-.05-.07-.12-.13-.19-.16-.12-.02-.24.01-.35.08h-.05l.15.32-.15.08-.04-.2c0,.12-.31.84-.46,1.32-.24.5-.4,1.04-.46,1.6.07.07.14.12.23.16.11,0,.15.04.69-.28-.14.18-.3.35-.46.52-.42.44-.73.81-1.01,1.11l.08-.12v-.2c-.05.13-.08.27-.11.4-.61.68-.78.91-.81,1.07-.03.11-.07.22-.11.32.04-.08.11-.2.15-.2h0v.04h.04s.11.16.23.16c.55-.16,1.07-.42,1.54-.76-.27.28-.54.52-.78.81-.77.81-1.28,1.27-1.58,1.64h0s-.23.28-.31.36v-.19s-.11.32-.19.32h.08c-.15.2-.11.28,0,.4,0,0,.04.08.08.08h0v.12h0v-.08h.15l-.08.12s.09-.03.11-.08h0s.58-.28,2.43-1.35c.81-.48,1.93-1.16,2.2-1.27.05,0,.11,0,.15-.04.03,0,.06-.02.08-.04,0,0,.08,0,.08.04.02.14.06.27.11.4l.08-.12c.06.15.08.31.08.48.27.24-.23-.76,0-.52,0,.22.03.43.11.64-.27,0-.81.24-6.21,3.39-1.3.81-2.81,1.68-3.89,2.28.23-.28.5-.56.73-.84,1.31-1.46,1.91-2.29,1.81-2.47-.05-.05-.1-.09-.15-.12h-.11s.27-.08-.04-.12h.39c-.12,0-.25-.02-.37-.05h-.77c.23.02.46.02.69,0-.11.08-.42.12-.31.24-.11.04-.27.16-.5.28h-.04c-.31.2-.78.44-1.43.84-.46.28-1.04.6-1.43.84l.11-.44c.27-1.16.31-1.32.27-1.43h.23c.04-.08-.08-.08-.27-.08-.05-.05-.1-.09-.15-.12.23-.05.46-.07.69-.04-.23-.12-.11,0-.46-.12.31.2-1.23,0-.73.2-.1-.05-.2-.09-.31-.12.08-.11.08-.25,0-.36-.05-.08-.14-.14-.23-.16-.36.11-.71.27-1.04.48h-.08l-.19.12-.15.08c-.22-.03-.44,0-.65.08-.35,0,.08-.04-.15-.12l-.35.08-.31-.08-.23-.16h0c-.16-.08-.31-.17-.46-.28-.04,0-.08-.08-.15-.08-.18,0-.35.05-.5.16l-.15.08c-.08-.05-.15-.1-.23-.16-.04-.04-.1-.07-.15-.08-.12-.02-.24.01-.35.08h-.08l.08.24h-.15l.19.12h-.08s0,.12.08.16v.16h.19c.15.08.35.24.69.48.31.2.65.48.77.56.11.12.23.12.42.04.08.04.15.12.23.16.07.24.16.48.28.7.05.07.12.13.19.16.02.1.06.19.11.28.05.08.13.14.23.16h.23c.11.12.27.28.5.56s.54.6.58.64c.04.07.11.12.19.12.17,0,.33-.05.46-.16h0s.39.12.81.24h.08c-.15.28-.11.36,0,.48.04.08.12.14.21.14.13,0,.27-.03.39-.08.43.36.89.69,1.36,1,0,.13.03.21.08.24.05.08.13.14.23.16.1,0,.21,0,.31-.04l.46.6c.15.24.35.44.42.56-.05.09-.08.18-.11.28,0,.04-.04.08-.04.16-.04.16-.08.36-.11.56h0c-1.19,1.44-1.73,2.25-1.62,2.44.07.07.14.12.23.16.11,0,.15,0,.58-.2,0,.08.08.04.15,0v.28c-.08,0-.11.12-.15.2-.77.6-.69.72-.58.91,0,.08.08.12.15.16-.06.1-.06.22,0,.32h.04c-.11.36-.27.81-.39,1.11l-.23.64h0c-.23.64-.23.68-.15.81h0c0,.2-.08.36-.08.64l-.11.08c-.02.14-.04.27-.08.4,0,.15-.06.29-.15.4-.07.14-.14.29-.19.44.35-.16,1.08-.68,1.85-1.19.39-.28.81-.56,1.19-.81.26-.17.53-.33.81-.48-.35-.08.58-.24.5-.44.11,0,.27-.08.11.08.5-.44.88-.48,1.15-.88.11,0-.08.16,0,.16,0-.04.15-.16.23-.16s-.04.08-.11.2c.54-.4.5-.6.42-.76.26-.06.48-.24.61-.48.11,0,.35-.08,0,.16.19-.12,1.23-.76,1.19-.88.08,0,.27-.2.31-.24l.46-.32c.08-.04.16-.09.23-.16h0c.06.09.14.15.23.2.1,0,.21,0,.31-.04.35.32.42.36.54.4l.08.08c.27.28.58.64.61.68.04.07.11.12.19.12.11,0,.21-.03.31-.08h0c0,.14-.01.27-.04.4-.11.49-.15.98-.11,1.48.07.07.14.12.23.16l1.38-.68.11-.08h0s-.19.08.08.28c0,.04.15.12.27.16-.31.4-.27.44-.15.6.05.08.14.14.23.16.15,0,.15.04.81-.32.13.07.25.17.35.28-.08-.12-.11-.24.11-.12.17.11.33.25.46.4-.03.39,0,.78.08,1.16.05.08.13.14.23.16.15,0,.15.04,1.01-.44.35.2.81.48,1.04.6-.02.13-.02.27,0,.4.05.08.14.14.23.16h.08c.08.01.17-.02.23-.08.15.15.32.27.5.36-.08-.16-.11-.36-.19-.56h.04s.23-.32.11-.48c0-.04-.08-.08-.11-.12h0s.19-.32.11-.48c0-.04-.08-.08-.11-.12.12-.4.18-.82.15-1.23-.05-.08-.14-.14-.23-.16-.11,0-.15,0-.58.2-.04-.12-.04-.16-.08-.16l-.06-.1c-.07-.26-.16-.51-.27-.76-.06-.12-.14-.23-.23-.32,0-.16.04-.04.08-.04l-.08-.28c.5-.88.46-.91.39-1.07-.05-.08-.14-.14-.23-.16-.15,0-.29.04-.42.12.08-.24.11-.48.19-.68v-.08c.05-.09.09-.18.11-.28.12-.32.18-.66.15-1-.05-.08-.13-.14-.23-.16-.3.08-.58.2-.85.36-.07-.24-.16-.46-.27-.68,0,0,.04,0,.08.08-.21-.5-.35-1.02-.42-1.56,0-.12-.08-.24-.08-.36v-.16h-.08v-.08c.04-.1.06-.21.08-.32h0s.19-.2.15-.32l.81-.6h0c1.38-1,2.81-1.92,4.12-2.83h-.23l.46-.36c.15-.04.23,0-.08.2.11,0,.23-.12.35-.24.08-.12.19-.28.19-.28.46-.28.46-.24.31-.08h0l-.15.03h-.02ZM396.61,13.14l-.19.12c.22-.21.18-.16.18-.11h0ZM376.34,17.6h0s-.11-.2-.23-.2h-.11v-.2h.11c0,.06.02.13.08.16.04.1.13.16.23.16.27.08.5,0,4.97-2.71.5-.28,1.04-.64,1.54-.91-.58.44-1.15.91-1.66,1.35-2.08,1.72-3.09,2.51-3.55,2.95h0c-.08-.06-.15-.11-.23-.16,0,0-.08-.08-.11-.08l-.08-.08s-.31-.48-.39-.4c.08.25,0,.52-.19.68-.15-.2-.27-.4-.35-.48h0l-.03-.07ZM384.97,10.73c.07.07.14.12.23.16h.15c.05.15.06.32.04.48.15.4.08-.16.23.24v.12l.08.08h0c-.06-.04-.12-.07-.19-.08-.23-.04-.31-.08-4.55,2.47-.58.36-1.19.72-1.81,1.07.58-.48,1.23-.96,1.81-1.41,2.35-1.8,3.46-2.71,4.01-3.19h0v.05h0ZM388.86,17.68v-.12l.65-.44c-.35.28.08.2-.54.56l.19-.32-.35.28h0l.03.04h0ZM387.74,18.48h.11c-.88.48-2.43,1.35-5.24,3.02,1.08-.68,2.2-1.41,3.23-2.04,1.08-.68,2.04-1.27,2.89-1.85l-.11.08-.11.08-.15.12s-.39.28-.69.48v.08h.08v.02ZM388.44,22.91c.07.07.14.12.23.16h.15c-.35.2-.73.44-1.23.72l-.54.32c.14-.14.26-.29.39-.44.39-.4.65-.72.93-1,0,.2.04.2.08.24h-.01ZM385.93,23.63s.08.12,0,.12v-.12ZM386.08,23.63s-.1-.06-.15-.08v-.12c.31-.16.81-.48,1.66-1l.11-.08c-.27.28-.54.6-.77.84-.27.28-.5.56-.69.76-.11-.16-.15-.24-.15-.32h0ZM384.39,21.44s-.01-.08-.04-.12h0c.93-.6,1.81-1.11,2.58-1.56h0c.08.05.18.05.27,0h0c-.27.16-.69.44-1.38.84-.46.28-1.01.6-1.36.81h0l-.08.04h0ZM388.05,19.84s-.01-.08-.04-.12c0-.04-.08-.08-.11-.12h0l.11-.08.08.16v.12h-.04v.04ZM387.93,20.25c-.19.64-.19.68-.11.81.04.1.13.16.23.16h.08v.12c-.23.16-.54.32-.88.56-.23.16-.5.32-.77.48.13-.19.28-.38.42-.56.61-.84.93-1.27,1.08-1.52h0l-.04-.04h0ZM388.73,23.99c-.34.08-.67.23-.96.44l.15-.08c.31-.2.69-.4,1.01-.6l-.23.24h.04,0ZM389.43,25.59s-.08-.05-.11-.08l.19-.12-.11.2h.03ZM389.63,24.55s-.5.28-.96.56c.15-.2.32-.38.5-.56l.35-.4s.08.24.11.4ZM385.58,17.77c-2.08,1.23-4.43,2.63-6.32,3.75,1.47-.96,3.16-2.08,4.7-3.07,2.72-1.64,5.36-3.42,7.9-5.35h0c.25-.03.49-.13.69-.28h0s.11.4.15.6v.08c-1.54.88-3.86,2.24-7.2,4.27h.08v-.02ZM385.81,12.18h0v.28c0-.06-.02-.13-.08-.16,0-.05.08-.09.08-.13h0ZM385.69,12.34c.08.2.15.44.23.64h.96c-.88.52-2.12,1.23-3.93,2.31-.88.52-1.85,1.11-2.73,1.64.46-.4,1.01-.81,1.47-1.19,1.39-1.06,2.73-2.2,4.01-3.41h0ZM390.36,12.82h-.08c.17-.06.35-.09.54-.08-.85.44-2.47,1.41-5.62,3.31-1.38.84-3,1.8-4.39,2.63.65-.44,1.36-.91,2-1.41,3.74-2.59,5.39-3.79,6.09-4.39.49.02.98-.01,1.47-.08v.02ZM383.35,15.86c.61-.36,1.28-.76,1.93-1.16-.96.68-1.97,1.41-2.89,2.04-2.43,1.68-3.78,2.63-4.55,3.22v-.08h-.04l.23-.16s0-.04-.08-.08v-.08h.08s.15-.16.15-.28c.31-.4.42-.56.39-.68.69-.36,2.04-1.16,4.75-2.79h0l.03.04h0ZM377.49,20.16h0l-.08.08v-.08h.08ZM377.72,21.12c2.48-1.25,4.9-2.64,7.24-4.15-.46.32-.93.6-1.38.91-2.89,1.88-4.82,3.15-6.13,3.99.35-.56.31-.64.23-.76h.04ZM376.91,20.91c0,.06.03.12.08.16v.08l-.15.12v-.17l.08-.16h0v-.03ZM375.91,25.07h0l.11-.32s.11.04.11.08v-.36s.04-.24.04-.28c.08,0,.15-.08.23-.12,0-.07.02-.14.04-.2,1.28-.64,3.89-2.16,9.52-5.55,1.81-1.07,3.86-2.28,5.59-3.31-1.85,1.19-4.05,2.59-6.05,3.83-5.74,3.64-8.4,5.35-9.63,6.23h.04,0ZM390.13,16.77c-.06.08-.13.16-.19.24l-.08-.08.27-.16h0ZM383.93,22.27s-.11-.12-.19-.12h-.08l.19-.12v.08c.04.1.13.16.23.16.19.04.23.04,2.08-1.07l.5-.28-.31.44c-.46.59-.89,1.2-1.28,1.85-.19-.12-.42-.2-.65-.36-.27-.24.11,0,0-.16l-.23-.08-.31-.32h.04v-.02ZM393.91,12.69l.15.08h.11l.08-.08h.04l-.85.44-.07-.26c.16-.09.33-.15.5-.2h0l.03.03h0ZM386.67,11.78l-.08-.08.08.08ZM383.43,3.4h0l-.11.08.08-.16v.08h.04ZM382.97,4.48c.15-.44.27-.76.35-1l.08.12s-.08.44-.19.44c.11.16.18.36.19.56l-.35.2-.27.16.19-.48h0ZM382.85,6.72c.39-.4.65-.76.88-1,0,.04.04.08.08.12,0,.16-.11-.12-.11,0,.15.17.26.38.31.6-.15,0-.39.16-1.62.88h-.08l.54-.56h0v-.07.02ZM381.89,9.71l-.39.24.54-.56c1.04-1.07,1.66-1.68,1.97-2.08h.27c.08.23.15.47.19.72v.28h0c-.19-.04-.23-.08-2.58,1.35h0v.04h0ZM379.3,13.78c1.04-.6,2.16-1.27,3.16-1.88-.58.48-1.23.96-1.81,1.41-1.58,1.05-3.05,2.27-4.39,3.64-.05-.03-.09-.07-.11-.12l.11.12v.08c-.07,0-.13-.01-.19-.04v-.12c0-.36-.05-.73-.15-1.07.78-.44,1.89-1.07,3.39-2h0v-.02ZM375.37,13.78l.54-.32c-.23.24-.42.48-.61.72-.61.68-1.04,1.16-1.3,1.48h-.19v-.08c-.31-.2-.5-.4-.73-.56.19,0,.31,0,2.35-1.23h0l-.03-.02h-.02ZM371.95,14.09c-.27-.36.42.28.23-.04-.12,0-.25-.04-.35-.12l-.27-.12h0s.39-.24.65-.4.58-.36.88-.52l-.11.52c-.23,1.07-.27,1.23-.23,1.35-.08-.08-.19-.12-.27-.2,0-.08-.31-.32-.11-.28-.15-.02-.28-.09-.39-.2h-.04,0ZM371.75,14.25c-.14-.04-.29-.09-.42-.16l-.15-.08.31-.16s.54.32.73.44c-.08.08-.23.08-.46,0h0v-.04h0ZM372.92,12.18c-.23.12-.58.32-1.04.6-.36.23-.74.44-1.12.64h0l-.11-.35s.46-.24,1.08-.6l.31-.2h.08c.14-.09.28-.17.42-.24h.23l.11.12c-.16-.04-.34-.04-.5,0,.18,0,.36.01.54.04h0ZM372.26,15.25h0l-.08-.08h0l-.08-.08.08.08.15.08h-.08ZM379.5,24.51c.1-.09.22-.15.35-.2-.1.1-.23.16-.36.19l.02.02ZM380.24,24.51s-.04-.04,0-.16l-.08.08c-.23.08-.19-.04-.08-.2l.27-.08s.15-.32.08-.4l-.15.16v-.09l-.15.16h-.23l-.81.44c-.45.61-.97,1.16-1.54,1.64.15-.24-.08-.2-.15-.32.31,0,.61-.48,1.04-.76-.23.16-.23.04-.19,0l-.69.64c-.16.03-.31.09-.46.16.15,0,0,.16-.15.32-.1.09-.2.17-.31.24l-.08.08h-.04l-.08.12v-.11s0-.04.08-.08c.06-.07.14-.13.23-.16-.06,0-.11.03-.15.08h-.08v.08h-.04c-.02.06-.04.11-.08.16-.04.15-.16.26-.31.28.08-.04.11-.04.11-.12-.08.1-.19.18-.31.24-.08.04-.11,0-.08-.04h.04c-.22.12-.44.26-.65.4v-.28l.27-.16s.39-.24.46-.28h.04s.23-.32.11-.48l-.08-.08c.65-.36,1.85-1.04,4.12-2.35h.04v.08h0c.05,0,.11.01.15.04h.08c.05,0,.11-.01.15-.04-.09.15-.21.29-.35.4.12-.02.23-.05.35-.08l-.5.44h0l.19.03h-.01Z"/>
        <path id="_パス_1442" data-name=" パス 1442" class="cls-2" d="M380.23,23.83h.08s0-.04-.08,0Z"/>
        <path id="_パス_1444" data-name=" パス 1444" class="cls-2" d="M373.17,11.78h-.35c.12.02.23.05.35.08,0,0-.08-.04,0-.08Z"/>
        <path id="_パス_1446" data-name=" パス 1446" class="cls-2" d="M370.25,11.93c.23,0,0-.12.15-.08.08-.04-.27,0-.46,0-.19.04-.19.08.27.04h0l.04.04Z"/>
        <path id="_パス_1448" data-name=" パス 1448" class="cls-2" d="M383.58,2.79l-.19-.16c.04.09.06.18.08.28l.11-.12h0Z"/>
        <path id="_パス_1450" data-name=" パス 1450" class="cls-2" d="M376.18,7.23l-.08.04h.04l.04-.04Z"/>
        <path id="_パス_1451" data-name=" パス 1451" class="cls-2" d="M376.07,7.22h.11s-.15-.08-.11-.12c-.11.12.08.04,0,.12Z"/>
        <path id="_パス_1454" data-name=" パス 1454" class="cls-2" d="M376.22,6.79h.08s.02-.06.04-.08c-.04,0-.08,0-.11.08Z"/>
        <path id="_パス_1457" data-name=" パス 1457" class="cls-2" d="M376.18,6.87s0,.04-.08.08c.04,0,.15,0,.08-.08Z"/>
        <path id="_パス_1459" data-name=" パス 1459" class="cls-2" d="M376.11,6.67h.04s0-.04.08-.08c-.04.02-.08.05-.11.08h0Z"/>
        <path id="_長方形_143" data-name=" 長方形 143" class="cls-2" d="M375.95,6.95l.15-.02h0l-.15.02Z"/>
        <path id="_パス_1461" data-name=" パス 1461" class="cls-2" d="M376.11,6.51h.04l.08-.04-.11.04h0Z"/>
        <path id="_パス_1462" data-name=" パス 1462" class="cls-2" d="M376.11,6.43s.08-.08.11-.08h-.11v.08Z"/>
        <path id="_パス_1464" data-name=" パス 1464" class="cls-2" d="M376.11,6.55l-.08.08h0s.08-.04.08-.08Z"/>
        <path id="_パス_1465" data-name=" パス 1465" class="cls-2" d="M376.03,6.63h0l-.04-.04.04.04Z"/>
        <path id="_パス_1467" data-name=" パス 1467" class="cls-2" d="M375.8,6.91c.05-.05.12-.08.19-.08-.07,0-.14.03-.19.08Z"/>
        <path id="_パス_1469" data-name=" パス 1469" class="cls-2" d="M375.91,6.55s.08,0,.08-.04h-.08v.08h0v-.04Z"/>
        <path id="_パス_1476" data-name=" パス 1476" class="cls-2" d="M375.54,6.51s.02-.06.04-.08c-.08.08-.15,0-.31.12h.08s-.08,0-.08.04c.08-.04.15-.04.11,0,.17-.06.32-.16.46-.28h-.11s-.08.12-.15.12h0l-.03.08h0Z"/>
        <path id="_パス_1477" data-name=" パス 1477" class="cls-2" d="M375.83,6.35v.08h0l.08-.08s-.08,0-.08,0Z"/>
        <path id="_パス_1478" data-name=" パス 1478" class="cls-2" d="M375.91,6.43h-.11c-.08.04-.15,0-.23.12h.11s.04,0,.08-.08h.08l.08-.04Z"/>
        <path id="_パス_1479" data-name=" パス 1479" class="cls-2" d="M375.61,6.99l.04-.04-.04.04Z"/>
        <path id="_パス_1480" data-name=" パス 1480" class="cls-2" d="M375.83,6.79c-.07.05-.13.1-.19.16h.04s-.05.02-.08.04c.04,0,.08-.02.11-.04h0l.11-.12h0v-.04h0Z"/>
        <path id="_パス_1482" data-name=" パス 1482" class="cls-2" d="M375.88,6.31l.08-.04-.15.04h.08Z"/>
        <path id="_パス_1483" data-name=" パス 1483" class="cls-2" d="M375.91,6.23h-.08l-.04.04.11-.04Z"/>
        <path id="_パス_1485" data-name=" パス 1485" class="cls-2" d="M374.98,4.83l.08-.07h-.08v.08h0Z"/>
        <path id="_パス_1488" data-name=" パス 1488" class="cls-2" d="M375.45,5.67v-.08s-.12.12,0,.08Z"/>
        <path id="_パス_1490" data-name=" パス 1490" class="cls-2" d="M375.45,5.62s.04-.08,0-.04h0s.04.02.04.04h-.04Z"/>
        <path id="_パス_1497" data-name=" パス 1497" class="cls-2" d="M373.79,4.99h.11l.23-.16-.35.16Z"/>
        <path id="_パス_1498" data-name=" パス 1498" class="cls-2" d="M371.13.8l-.08.08c.08-.04.11-.04.11,0h0s.04.16.08.28l.08-.08v.08c.15-.08,0-.04.11-.16-.15.16.11.12-.08.32,0,0,.08-.08.11-.08h0s-.05.08-.08.12h0s.08.04.08.08h0c.07.07.17.11.27.12h0s0,.04.08.08h.08c-.08,0-.08.12-.15.12.11,0,.08,0,.27-.08l-.08.08s.11-.04.15,0c-.08,0-.08.08-.19.12-.11.16.23,0,0,.16.23-.12.08-.12.11-.16.04-.08.15-.08.15-.04,0,0-.23.2-.15.28h0s.08,0,0,.08c.11-.08,0,0,.15-.08h-.08s.27-.12.19,0h-.1s.04,0,0,.04c-.15.12-.08,0-.23,0-.04.04.15,0,0,.08.23-.12,0,.08.19,0l-.08.08h-.04s-.04.16,0,.16c-.04-.04.11-.08.15-.16.15,0-.19.2-.11.24,0-.04.03-.08.08-.08h0c0,.05-.03.1-.08.12.04.04.08-.08.15-.08-.11.08.08,0,.11,0l-.08.08s.19-.12.15,0l-.15.08h.04l-.11.08s.08,0,.08.04c.08-.04.15-.12.19-.08-.04.04-.08.04-.04.08-.08,0-.15.08-.08,0h-.08v.12h.19c-.06.04-.13.07-.19.08h.11s-.08.08-.11.08c0,.04.19,0,.15.04h.04s-.08.16.08.12l-.11.12s.15-.16.23-.12c.08,0-.11.08-.15.12.08,0,.23-.08.15,0h0l-.08.08c-.08,0-.16.03-.23.08.27-.16.11.08.39-.04h.11s-.04.08-.08.08h.04l.08.08h.15s-.15.08-.15,0c-.27.2.08,0,0,.16h-.04l-.15.16s.19-.2.31-.2c0,0,0,.04.04,0-.11.04-.08.08-.04.08l-.11.08c.07,0,.13-.02.19-.04l-.17.17s.15-.12.19-.08c0,.08.04.08.15.08,0,.04-.08,0-.11.08h.08c.06-.04.12-.07.19-.08.15-.08-.15.2,0,.12-.05,0-.09.03-.11.08h.27l-.08.08c.11-.06.23-.1.35-.12l.08-.08h.11s-.08.05-.11.08h0c-.06.04-.12.07-.19.08l.08-.08s-.19.08-.27.12h.04l-.15.12h.08v.08c.15-.06.3-.09.46-.08-.12.02-.22.07-.31.16.11-.08-.08,0-.08-.08,0,0-.08.04-.08.08h.15s-.09.07-.11.12c.19-.12.15,0,.23,0-.08,0-.15.08-.15,0-.11.12.27-.08.15,0h0c.08,0,.04.08,0,.08h0c.05.1.17.14.26.08,0,0,0,0,0,0h0l-.23.12.65-.2c-.2.11-.4.21-.61.28,0,.02.01.04.03.04,0,0,0,0,0,0,.07-.05.15-.09.23-.12-.15.12-.08.08-.19.2,0,0,.27-.16.27-.12-.09.05-.18.09-.27.12l.27-.08-.27.16s0,.04.04.04h.04s.35-.16.39-.08c-.04,0-.31.12-.31.2.24-.1.48-.18.73-.24h0s-.61.24-.77.28c-.04.04-.08.04-.04.08-.04.04-.11,0-.11,0v.08c.1,0,.19-.03.27-.08h-.19s.42-.16.42-.08c-.1.06-.2.11-.31.16h0s.19,0,.11.08c0,0-.15.12-.08.08.23-.16.47-.29.73-.4-.05.08-.12.15-.19.2-.11.08-.31.12-.39.2h.11s-.11.04-.08.08c.15-.08,0,.08.11-.04.04,0,0,.04,0,.08.12-.06.26-.1.39-.12-.03.02-.06.05-.09.08v.2s-.07.07-.11.08h.08s-.04,0-.15.08c.08-.04.15,0,.19,0,.11-.08,0-.08-.08-.08.15-.09.33-.13.5-.12.08,0-.11.08-.08.08,0,.12.35-.08.27.04-.09.07-.2.12-.31.16-.08,0,0-.08,0-.12h0s-.08.04-.08,0c-.08.08.08.16,0,.28.04,0,.08-.01.11-.04h0s.15-.04.15-.08h.15l-.11.08s.08-.08,0-.04c.08,0-.11.16.04.08l.08-.08s.23-.04.19,0c.11-.08,0,0,.11-.12-.15.12-.04-.08-.19.04.15-.12.04-.08.15-.2-.04,0-.08.04-.08,0h-.04v.08h-.23s.05-.02.08-.04h-.08s.11-.12.19-.12h0s.04-.12,0-.12h-.11s-.23-.08-.08-.24c0,0-.08,0-.08-.04h.08s0-.16-.04-.12c.19-.16,0-.16,0-.2h-.31v-.13h0c.15-.16-.23-.04-.11-.2h0v-.08s-.09.03-.11.08h-.08s-.08,0,.08-.12c-.09-.02-.18-.02-.27,0h0v-.08l.11-.08h-.19c.07-.02.13-.05.19-.08h-.19s-.15,0-.08-.08c.11-.12-.08-.2,0-.36-.23.16.08-.12-.11,0,.04,0,.08-.08.11-.08-.08,0,.04-.12-.11-.08.04,0,.08-.01.11-.04h.08c-.13.02-.26.06-.39.12.08-.08.04-.08-.08,0,.04,0,.08-.08.11-.08,0,0,0-.16-.11-.08h0s-.02-.06-.04-.08h-.08s-.08,0,0-.16h-.09c-.19.16.08-.08,0-.08h-.04c.09-.06.18-.13.27-.2h.04c-.06.02-.13.02-.19,0,.08-.04.19-.08.15-.12.04-.04-.27.04-.15-.08-.04,0-.08.08-.15.08,0,0,.15-.2,0-.12h0c-.07-.05-.16-.05-.23,0,.31-.2-.27-.04.04-.24l-.08-.08h0c-.06-.02-.13-.02-.19,0,.03,0,.06-.02.08-.04,0-.08-.06-.11-.19-.08l.08-.08s.08-.2-.08-.2h.04s.15-.36-.23-.16h-.1c-.08.04-.14.09-.19.16,0,0,.08-.12.11-.12h0c0-.08.05-.16.11-.2-.08-.12-.08-.32-.15-.44l-.11.12h0l.11-.12c.08-.08-.11,0-.11,0,0-.08.19-.08.15-.12h-.04s-.11.08-.15,0c0-.04.08-.08.08-.08h-.11l-.15.11c.15-.16-.08-.24,0-.28-.05,0-.11,0-.15-.04,0,0-.11.12-.15.08.27-.2.04-.12.19-.32-.08.12-.11-.08-.23.12,0-.04.08-.08.11-.16-.15,0-.04-.2-.15-.24l-.1.12.11-.16s-.19.16-.11,0c0,0-.04.08-.08.08,0-.12-.11-.2-.19-.24s-.17-.12-.12-.32c0,.08-.04.08-.08.04l-.12.12v-.14s0-.04-.15.04h0c-.12.17-.25.33-.39.48.15-.12-.11.28.11.12h0l.35-.12h0ZM373.1,3.72h-.04c.12-.04.08,0,.04,0h0Z"/>
        <path id="_パス_1502" data-name=" パス 1502" class="cls-2" d="M375.53,6.31s-.04.04,0,.04h0s.08-.08,0-.04Z"/>
        <path id="_パス_1504" data-name=" パス 1504" class="cls-2" d="M375.64,5.98s.11-.04.08,0c.12-.04-.15,0-.08,0Z"/>
        <path id="_パス_1505" data-name=" パス 1505" class="cls-2" d="M375.26,6.47l.11-.04h-.11v.04Z"/>
        <path id="_パス_1508" data-name=" パス 1508" class="cls-2" d="M375.02,5.95s-.04,0,0,.04h.04l-.04-.04Z"/>
        <path id="_パス_1509" data-name=" パス 1509" class="cls-2" d="M374.87,6.19l.08-.04-.11.08h.04v-.04Z"/>
        <path id="_パス_1510" data-name=" パス 1510" class="cls-2" d="M374.79,6.11s-.11,0-.08.04c0,0,.08,0,.08-.04Z"/>
        <path id="_パス_1511" data-name=" パス 1511" class="cls-2" d="M374.64,5.55h.04l.19-.12-.23.12h0Z"/>
        <path id="_パス_1512" data-name=" パス 1512" class="cls-2" d="M374.1,5.31s-.04,0-.15.08c0,.08.11-.04.08,0,.04,0,0-.04.08-.08Z"/>
        <path id="_パス_1513" data-name=" パス 1513" class="cls-2" d="M371.6,0l-.04.08h.04v-.08Z"/>
        <path id="_パス_1514" data-name=" パス 1514" class="cls-2" d="M371.44.16l.08-.12-.11.08h0l.04.04Z"/>
        <path id="_パス_1515" data-name=" パス 1515" class="cls-2" d="M372.94,3.88l-.08.08h0v-.08h.08Z"/>
        <path id="_パス_1516" data-name=" パス 1516" class="cls-2" d="M372.79,3.56h0l.11-.04-.11.04Z"/>
        <path id="_パス_1520" data-name=" パス 1520" class="cls-2" d="M396.14,2.48h0v-.08s-.08.12-.15.12c.08.12.08-.04.11,0h0l.04-.04Z"/>
        <path id="_パス_1523" data-name=" パス 1523" class="cls-2" d="M395.67,2.24s-.04-.02-.04-.04c0,.04.01.09.04.12v-.08Z"/>
        <path id="_パス_1526" data-name=" パス 1526" class="cls-2" d="M395.84,2.44s0-.16-.08-.08c.04,0,.08.04.08.08h0Z"/>
        <path id="_パス_1528" data-name=" パス 1528" class="cls-2" d="M395.57,2.36s-.04,0-.08-.08c.02.04.05.08.08.12h0v-.04Z"/>
        <path id="_パス_1531" data-name=" パス 1531" class="cls-2" d="M395.33,2.36v-.08l.04.12-.04-.04Z"/>
        <path id="_パス_1532" data-name=" パス 1532" class="cls-2" d="M395.25,2.39s-.08-.08-.08-.12v.12h.08Z"/>
        <path id="_パス_1534" data-name=" パス 1534" class="cls-2" d="M395.48,2.48s-.04-.08-.08-.08l.08.08Z"/>
        <path id="_パス_1537" data-name=" パス 1537" class="cls-2" d="M395.76,2.71c-.05-.06-.08-.13-.08-.2,0,.08.03.15.08.2Z"/>
        <path id="_パス_1538" data-name=" パス 1538" class="cls-2" d="M395.57,2.51v.08h.04s-.02-.06-.04-.08Z"/>
        <path id="_パス_1539" data-name=" パス 1539" class="cls-2" d="M395.37,2.59s0-.08-.04-.08v.08h.04Z"/>
        <path id="_パス_1546" data-name=" パス 1546" class="cls-2" d="M395.29,2.99h-.08c.08.08,0,.16.11.32v-.07s0,.08.04.08c-.04-.08-.04-.16,0-.12-.07-.17-.18-.32-.31-.44v.12c.07.03.13.08.15.16h0l.08-.05Z"/>
        <path id="_パス_1547" data-name=" パス 1547" class="cls-2" d="M395.14,2.71h.08s-.07-.09-.11-.12v.12h.04Z"/>
        <path id="_パス_1548" data-name=" パス 1548" class="cls-2" d="M395.25,2.63c0,.09.04.18.11.24v-.12s0-.04-.08-.08h0v-.08h0v.08h0l-.04-.04Z"/>
        <path id="_パス_1550" data-name=" パス 1550" class="cls-2" d="M395.76,2.83v.08s-.01-.08-.04-.12h0s-.11-.08-.11-.12c.04.08.09.14.15.2v-.04h0Z"/>
        <path id="_パス_1552" data-name=" パス 1552" class="cls-2" d="M395.1,2.68l-.08-.08.08.12v-.04Z"/>
        <path id="_パス_1553" data-name=" パス 1553" class="cls-2" d="M395.02,2.72l-.04-.08v.08h.04Z"/>
        <path id="_パス_1555" data-name=" パス 1555" class="cls-2" d="M393.52,3.88s-.19-.12-.11-.04l.08.08h.04v-.04h0Z"/>
        <path id="_パス_1556" data-name=" パス 1556" class="cls-2" d="M393.09,5.15h0l-.08-.08v.08h.08Z"/>
        <path id="_パス_1557" data-name=" パス 1557" class="cls-2" d="M392.52,6.83l.08.08s0-.04-.08-.08Z"/>
        <path id="_パス_1558" data-name=" パス 1558" class="cls-2" d="M394.41,3.19h-.08s.11.08.08,0Z"/>
        <path id="_パス_1559" data-name=" パス 1559" class="cls-2" d="M391.98,5.59l.04.04-.04-.04Z"/>
        <path id="_パス_1565" data-name=" パス 1565" class="cls-2" d="M394.75,2.83l-.04.04h.04v-.04Z"/>
        <path id="_パス_1567" data-name=" パス 1567" class="cls-2" d="M393.99,4.95s-.04-.12,0-.08l-.23-.2.23.28h0Z"/>
        <path id="_パス_1568" data-name=" パス 1568" class="cls-2" d="M389.94,8.67s.08.05.11.08h-.19s-.04.08.08.16h0c.19.06.36.14.54.24-.15-.12.31.04.11-.12.04,0,.04.04.11.08-.05-.05-.05-.08,0-.08h0c.09-.05.18-.1.27-.16h-.11l.08-.04c-.11-.12-.04.04-.19-.08.19.08.11-.16.31,0,0,0-.11-.04-.08-.08h.15s0-.08.04-.04h-.04s.15-.16.08-.32h-.04s.07-.07.08-.12h0s-.04-.08,0-.08c.04.04.11,0,.15.08-.04-.12-.04-.08-.19-.24h.08s-.08-.04-.08-.08c.04.08.11.04.19.12.19,0-.08-.2.15-.08-.19-.16-.15,0-.19-.04-.08,0-.11-.12-.08-.12,0,0,.27.12.31.08h0s-.04-.08.08-.04c-.11-.08,0,0-.11-.12v.08s-.19-.2-.08-.2l.08.08s0-.04.04,0c.15.12,0,.08.08.2.08,0-.08-.12.08,0-.19-.16.08-.04-.08-.2l.08.08v-.09l.08.08s.11,0,.11-.08c-.04.08-.11-.04-.19-.08-.08-.16.27.12.31,0h.04c0-.08-.11-.04-.15-.12.11.04,0-.04-.04-.12l.08.08s-.19-.16-.08-.16l.11.12h.08v-.08c-.08,0-.15-.12-.15-.16.08,0,.08.08.11,0,.04.04.11.12,0,.08l.08.08.08-.08h0l-.08-.16s.08.04.08.08v-.08c.08.04.15.12.15.16v-.12s.08.04.08.08h0c.08,0-.08-.16,0-.16h0s.15,0,.08-.16l.15.08s-.19-.08-.19-.2c0-.08.11.08.15.08-.04-.08-.15-.2,0-.16v.05h.08c0,.1.06.18.15.2-.23-.2.08-.12-.19-.32h.08s-.15-.12-.08-.16c.04,0,.08.02.11.04v-.09h.04s-.06-.1-.08-.16c.04,0,0,0,.04.04v-.08s.08.12.04.12c.27.16-.04-.08.15,0h0c.07.05.15.09.23.12-.12-.04-.22-.11-.31-.2,0,0,.04,0,0-.04.08.08.08,0,.08,0l.11.08s-.08-.1-.11-.16c.07.02.14.06.19.12.04,0-.15-.08-.15-.16.08,0,.04-.08,0-.16.08,0,.08.08.11.08l-.08-.08h.04s-.11-.08-.11-.12c-.11-.12.23.08.11-.08.04,0,.08.08.11.08-.01-.09-.05-.17-.11-.24h.11s-.19-.12-.23-.24h-.08v-.15l.08.08h0c.06.02.12.06.15.12h-.08c.06.06.12.11.19.16h.19c-.1-.13-.18-.28-.23-.44.08.07.16.15.23.24-.11-.08,0,.08-.04.12,0,0,.08.04.08.08v-.17s0,.04.08.08c-.19-.16-.08-.16-.11-.2.04.04.11.12.08.12.15.08-.15-.24,0-.16h0c0-.08.04-.08.08,0h0c.07-.05.09-.16.04-.24,0,0,0,0,0,0,0-.02-.02-.02-.03-.03l.19.2-.39-.56s.42.36.46.48c0,0,.08,0,.04-.04l-.19-.16c.15.12.08.04.23.12-.07-.07-.14-.15-.19-.24l.19.2-.11-.24.19.2s.04,0,0-.08h-.08s-.19-.32-.15-.36c.06.11.16.19.27.24-.16-.19-.29-.41-.39-.64h.04s.31.48.39.64c.08,0,.08.08.08,0,.08.04.08.08.04.12h.11c-.02-.11-.08-.2-.15-.28v.2s-.23-.36-.15-.4c.04,0,.15.2.19.24h0s-.04-.2.08-.12c0,0,.15.12.11.04-.11-.12-.5-.52-.58-.64.08.03.16.07.23.12.11.08.19.28.27.36l-.04-.08s.08.12.08.08c-.08-.12.08,0-.08-.12,0-.04.04,0,.08,0-.09-.1-.16-.23-.19-.36l.08.08c.07.01.14,0,.19-.04.05.03.09.07.11.12v-.06s-.04.04.08.16c-.04-.08,0-.12-.04-.2-.08-.12-.08,0-.08.08-.1-.13-.16-.28-.19-.44,0-.08.08.08.08.04.11,0-.11-.32,0-.28.09.07.16.17.19.28,0,.08-.11,0-.11,0h.08v.09c.08.08.15-.08.27-.04,0-.04-.01-.09-.04-.12h0s0-.12-.08-.12v-.17l.08.12s-.08-.04-.08,0c0-.08.15.12.08-.04l-.08-.08s-.04-.24,0-.2c-.08-.12,0,0-.11-.12.11.16-.11.04.04.2-.11-.12-.08,0-.23-.16,0,0,.08.08,0,.08h0l.04.08c.04.08,0,.12,0,.2,0,0,0-.04-.08-.08v.06s-.11-.12-.11-.2h-.04s-.11,0-.11.04v.12h-.04s0,.2-.19.12c0,0,0,.08-.04.08l-.08-.08s-.11,0-.08.08c-.19-.16-.15.04-.23.08l.08.08s-.03.08-.04.12l.08.08s-.11,0-.15.08h0c-.23-.12,0,.24-.15.16h0v.08l-.06-.08h0s0,.04.08.12v.08s0,.08-.11-.04c.04.08,0,.12.11.28h0l-.11-.08.11.16c-.07-.05-.13-.1-.19-.16.08.16,0,.08.08.24l-.08-.08s.04.12,0,.08c-.15-.08-.19.16-.39.12.23.16-.11,0,0,.12-.04,0-.08-.04-.11-.12,0,.08-.15,0,0,.16-.04,0-.08-.08-.08-.08h0s-.02-.06-.04-.08c.06.12.14.23.23.32-.05,0-.05.03,0,.08-.06,0-.11-.06-.11-.12,0,0-.15.04-.04.12h0s-.04,0-.08.08h0v.12h0s0,.04-.15,0l.08.08s-.15,0-.11.08h.08c-.11-.05-.23-.09-.35-.12v-.03c-.15,0,.11.08.11.16-.08-.04-.15-.12-.19-.12-.08,0,.11.24,0,.2.06,0,.11.06.11.12,0,.04-.23-.04-.11.08h-.04s0,.12.08.16c-.31-.2,0,.24-.23.04v.08h-.09c0,.06.01.11.04.16-.03,0-.06-.02-.08-.04-.11,0-.11.04,0,.2l-.11-.08s-.23,0-.15.12h0s-.39,0-.08.24v.12c.08.05.17.09.27.12,0,0-.15,0-.15-.04h0c-.08.02-.16,0-.23-.04-.08.12-.27.2-.35.32l.15.08h0s-.11,0-.08-.04c-.08,0,0,.08.08.12-.07,0-.13-.05-.15-.12h0s.11.12.08.16c-.04,0-.11-.04-.11,0h-.04l.11.08s-.04.04.11.12c-.23-.08-.19.16-.27.12.08.08,0,.12,0,.16,0,0,.15.08.11.12-.27-.16-.15,0-.35-.08.15.04,0,.12.15.2-.07-.02-.13-.04-.19-.08.04.12-.15.12-.19.24,0,0,.11,0,.15.08l-.19-.08s.19.12.04.08c0,0,.08,0,.08.04-.27.08-.08.44-.5.4.05,0,.08.01.08.04h0l.11-.09h0ZM392.94,6.02s.04.08,0,.04c-.08-.08,0-.04,0-.04h0Z"/>
        <path id="_パス_1572" data-name=" パス 1572" class="cls-2" d="M395.1,2.99h.08s-.08-.08-.08,0Z"/>
        <path id="_パス_1574" data-name=" パス 1574" class="cls-2" d="M394.71,2.95s-.08-.12,0-.08c-.03-.12,0,.16,0,.08Z"/>
        <path id="_パス_1575" data-name=" パス 1575" class="cls-2" d="M395.17,3.15l.04.08.04.04-.08-.12h0Z"/>
        <path id="_パス_1578" data-name=" パス 1578" class="cls-2" d="M394.71,3.56s.04.04.04,0v-.08h0l-.04.08Z"/>
        <path id="_パス_1579" data-name=" パス 1579" class="cls-2" d="M394.99,3.68s-.04,0-.08-.08l.08.12h0v-.04Z"/>
        <path id="_パス_1580" data-name=" パス 1580" class="cls-2" d="M394.98,3.84s0-.08-.04-.08c0,0,0,.12.04.08Z"/>
        <path id="_パス_1581" data-name=" パス 1581" class="cls-2" d="M394.33,3.99h0l-.11-.2.11.2Z"/>
        <path id="_パス_1582" data-name=" パス 1582" class="cls-2" d="M394.33,4.67s-.08-.04-.08-.08h0c0,.08,0,.04.11.16.08,0-.08-.12,0-.08h-.04Z"/>
        <path id="_パス_1583" data-name=" パス 1583" class="cls-2" d="M389.78,8.7l-.08.04h.08v-.04Z"/>
        <path id="_パス_1584" data-name=" パス 1584" class="cls-2" d="M389.9,8.86l-.11-.08.11.08Z"/>
        <path id="_パス_1586" data-name=" パス 1586" class="cls-2" d="M392.9,6.39h0l-.11-.08.11.08Z"/>
        <path id="_パス_1588" data-name=" パス 1588" class="cls-2" d="M399.41,24.03l.08-.08s-.08.12-.08.08Z"/>
        <path id="_パス_1589" data-name=" パス 1589" class="cls-2" d="M399.18,24.15l.04-.04-.08.08.04-.04h0Z"/>
        <path id="_パス_1590" data-name=" パス 1590" class="cls-2" d="M399.19,24.07s-.11.08-.08,0c-.08.16.04,0,0,.04h0l.08-.08h0v.04Z"/>
        <path id="_パス_1593" data-name=" パス 1593" class="cls-2" d="M399.22,23.67s-.05.08-.08.12h.04v-.12h.04Z"/>
        <path id="_パス_1596" data-name=" パス 1596" class="cls-2" d="M399.11,23.95s.08-.12.04-.08c0,.03-.02.06-.04.08Z"/>
        <path id="_パス_1598" data-name=" パス 1598" class="cls-2" d="M399.11,23.75v-.08s-.05.08-.08.12h0l.08-.04Z"/>
        <path id="_パス_1600" data-name=" パス 1600" class="cls-2" d="M398.99,24.03l.11-.12-.11.12Z"/>
        <path id="_パス_1601" data-name=" パス 1601" class="cls-2" d="M399.07,23.63l.08-.08-.08.08Z"/>
        <path id="_パス_1602" data-name=" パス 1602" class="cls-2" d="M399.03,23.59s.04-.12.08-.12l-.08.08v.04Z"/>
        <path id="_パス_1607" data-name=" パス 1607" class="cls-2" d="M398.91,24.07c.02-.06.06-.12.11-.16,0,.04-.08.08-.11.16Z"/>
        <path id="_パス_1608" data-name=" パス 1608" class="cls-2" d="M398.95,23.91s.02-.06.04-.08h-.04v.08Z"/>
        <path id="_パス_1616" data-name=" パス 1616" class="cls-2" d="M398.65,23.99v-.08c-.04.12-.11.12-.19.28h0c.04-.08.11-.16.08-.04.1-.15.19-.31.27-.48,0,.05-.03.1-.08.12,0,.08-.03.15-.08.2h0Z"/>
        <path id="_パス_1617" data-name=" パス 1617" class="cls-2" d="M398.84,23.71h0l.04-.08-.08.08h.04Z"/>
        <path id="_パス_1618" data-name=" パス 1618" class="cls-2" d="M398.84,23.87s.02-.08.04-.12h0v-.08h-.04c-.04.08-.08.12-.11.2,0,0,.04-.08.08-.08h0l.04.08Z"/>
        <path id="_パス_1619" data-name=" パス 1619" class="cls-2" d="M398.91,23.99c-.04.06-.08.13-.11.2h-.04s.06-.08.08-.13h0c.02-.06.04-.11.08-.16h0v.08Z"/>
        <path id="_パス_1620" data-name=" パス 1620" class="cls-2" d="M398.76,24.03v.08h0s.01-.08.04-.12h-.04v.04Z"/>
        <path id="_パス_1621" data-name=" パス 1621" class="cls-2" d="M398.84,23.67l.08-.12-.11.12h.04Z"/>
        <path id="_パス_1622" data-name=" パス 1622" class="cls-2" d="M398.8,23.63h0l.04-.04-.04.04Z"/>
        <path id="_パス_1624" data-name=" パス 1624" class="cls-2" d="M397.99,23.23s.08-.2,0-.12v.08h0v.04Z"/>
        <path id="_パス_1627" data-name=" パス 1627" class="cls-2" d="M398.45,23.51v-.08s-.04.12,0,.08Z"/>
        <path id="_パス_1635" data-name=" パス 1635" class="cls-2" d="M397.29,24.12l.08-.08.11-.24-.19.32h0Z"/>
        <path id="_パス_1636" data-name=" パス 1636" class="cls-2" d="M398.49,23.91s.11-.12.11-.08l-.08.12v-.04s-.08.2.04,0v-.08s.1-.08.15-.12c.08-.12,0,0,.04-.12-.08.2-.04,0-.11.16.08-.16,0-.08.08-.24,0,.04,0,.08-.04.04h0v.12c-.05.04-.11.08-.15.12,0-.03.02-.06.04-.08v.08c0-.07.01-.14.04-.2h0v-.07h-.04s-.15.12-.08-.04h-.04v-.08h0c.11-.2-.04-.08-.04-.12v.12h-.15v.08l-.08-.08h0c.08-.24-.15.12-.11-.04h0v-.07h0s0,.04-.08.12h-.04s-.04.08,0-.08c-.04.08-.08,0-.15.2h0c0-.07.01-.14.04-.2l-.15.16v-.09h0c.04-.16-.11-.08-.08-.24-.11.24,0-.12-.08.08,0-.04,0-.08.08-.12-.04.04,0-.12-.08,0,0-.04.04-.08.08-.12h0s.02-.06.04-.08c-.07.1-.14.21-.19.32,0-.05-.01-.05-.04,0-.04.08,0-.12.08-.12,0,0,0-.12-.08,0h-.04s0,.04-.08.08h0s-.04,0,0-.12v.12c-.15.2,0-.16-.08-.08v.08s.08-.32.08-.36v-.04c0-.16-.08.12-.11.16,0-.08.08-.16.08-.2,0-.08-.15.2-.11.08,0,.06-.02.13-.08.16,0,0,0-.24-.04-.08h0s-.08,0-.11.12c.11-.36-.15.12,0-.2h0s-.09.03-.11.08v-.07c0-.05-.04-.03-.11.08v-.12s0-.2-.04-.08h0s0-.36-.15,0l-.08.08c-.04.07-.06.16-.08.24v-.16h0v-.2c-.08,0-.11-.16-.19-.2v.16h-.08s0-.16.04-.12c0-.08-.04.08-.08.12.01-.07.04-.14.08-.2h0s-.04.16-.08.16v-.13h0v.08s-.04,0-.08.12c.04-.24-.11-.12-.08-.2-.04.08-.08.08-.08.08,0,0,0,.16-.04.16.08-.28,0-.12,0-.36,0,.16-.08,0-.11.24v-.2c-.08.12-.08-.08-.15-.08,0,.06-.01.11-.04.16v-.2s-.04.24,0,.08v.08c-.08-.2-.27.12-.31-.28v.08s-.08,0-.08.16h0s-.04.36-.08.56c.04-.2,0,.28.08,0v.13c0-.08,0-.12.04-.08h0c.02.06.06.12.11.16v-.04c.04-.16,0,0,0-.2,0,.2.08,0,.04.28,0,0,0-.12.04-.12h0v.16h.04c.08,0,.15-.05.19-.12h.08l.04-.04c0,.06,0,.11-.04.16.08-.08.04-.08.11-.24v.09s0-.12.04-.12c.01.08-.01.16-.08.2,0,.2.11-.16.08.12.08-.2,0-.12,0-.16,0-.08.08-.16.08-.12,0,0-.08.28,0,.28h0c.04-.12,0,0,.08-.16h-.04s.11-.2.11-.08c0,.04-.01.08-.04.12h0c-.04.16-.04,0-.11.16,0,.08.08-.12,0,.08.08-.24,0,0,.11-.12v.12h0v.08s-.04.12,0,.04c0-.07.01-.14.04-.2.08-.12-.08.28,0,.24h0s0-.12.08-.16c0,.12,0-.04.08-.08v.12s.04-.2.04-.12l-.08.12h0v.08h0c.01-.07.04-.14.08-.2,0,.08-.04.08,0,.08,0,.08-.08.16-.04.04v.08h0l.08-.12s0,.08-.04.08v-.08c0,.07-.01.14-.04.2l.08-.08v.12s.11-.16.11-.08h0s0,.08.08,0v.16s0-.2.08-.24c.04,0-.04.12-.04.16.04-.08.11-.2.11-.08h0v.08c-.05.06-.09.13-.11.2.11-.28.08,0,.19-.28v.08h0s.11-.2.11-.12v.04h.08s.08-.04.08-.08v.12c-.11.28.04-.08,0,.12h0c0,.08-.01.16-.04.24.02-.11.06-.22.11-.32h0c-.04.12,0,.08,0,.08v-.05c0,.07-.03.15-.08.2.01-.07.04-.14.08-.2,0,.08,0,0,.11-.04,0,.04-.04.08-.04.12l.08-.12h0s.08-.08.08-.12c.08-.16-.08.24,0,.08-.02.04-.05.08-.08.12.06-.06.11-.13.15-.2v.08c.04-.11.09-.22.15-.32v-.14h.11l-.08.08h0l-.08.16v-.08l-.11.24h0l-.08.12h0s.23-.28.27-.32c-.06.1-.11.21-.15.32.04-.12-.08.04-.08,0,0,0,0,.08-.04.08l.11-.12s-.01.08-.04.12c.08-.2.08-.12.15-.2,0,.05-.03.1-.08.12-.04.16.15-.24.11-.08h0s.04,0,0,.08h0s.08.04.19-.12l-.11.24.35-.56c-.09.21-.19.41-.31.6h0s.08-.24.11-.24c-.08.16,0,.08-.08.24,0,0,.11-.28.15-.24l-.11.24.15-.2c-.05.09-.09.18-.11.28,0-.04,0,0,.04,0h0s.19-.36.23-.32c0,.04-.15.28-.15.32.08-.12.31-.56.39-.64h0s-.31.52-.39.64v.08s-.03.08-.08.08h0v.08c.07-.07.14-.15.19-.24l-.11.12s.23-.36.23-.32c-.04.1-.09.19-.15.28,0-.04.08-.08.08-.04v.08h0s-.08.2,0,.12c.08-.16.31-.64.39-.76-.02.08-.05.16-.08.24-.06.14-.14.28-.23.4,0,0,.04-.08.08-.08,0,0-.08.12-.04.12l.08-.12h0c.07-.11.14-.22.23-.32v.12s-.04.08,0,.12c0,.05-.03.1-.08.12v.08c.04-.08.08-.08.11-.12.08-.12,0,0-.04,0,.07-.15.16-.28.27-.4.04,0-.04.12,0,.08,0,.04.19-.28.19-.12-.04.1-.09.19-.15.28-.04,0,0-.08,0-.08h0s-.04.12-.04.08c-.04.12.08.08.04.16.02-.04.05-.08.08-.12h0s.08-.1.11-.16h0l-.45.25h.01Z"/>
        <path id="_パス_1642" data-name=" パス 1642" class="cls-2" d="M398.64,23.59s.08-.12.04-.08c.08-.07-.11.12-.04.08Z"/>
        <path id="_パス_1643" data-name=" パス 1643" class="cls-2" d="M398.49,24.12v.04l.04-.12-.04.08Z"/>
        <path id="_パス_1646" data-name=" パス 1646" class="cls-2" d="M398.26,23.92v.04l.04-.08h0l-.04.04h0Z"/>
        <path id="_パス_1648" data-name=" パス 1648" class="cls-2" d="M398.07,24.32s.03-.05.04-.08c0,0-.08.08-.04.08Z"/>
        <path id="_パス_1649" data-name=" パス 1649" class="cls-2" d="M397.92,23.91h0l.11-.2-.11.2Z"/>
        <path id="_パス_1650" data-name=" パス 1650" class="cls-2" d="M397.49,24.23v-.08l-.08.16c0,.08.08-.12.04-.04h0l.04-.04h0Z"/>
        <path id="_パス_1651" data-name=" パス 1651" class="cls-2" d="M394.94,22.24l-.04-.08v.08h.04Z"/>
        <path id="_パス_1654" data-name=" パス 1654" class="cls-2" d="M396.41,23.91l.04-.12-.08.12h.04Z"/>
        <path id="_パス_1658" data-name=" パス 1658" class="cls-2" d="M382.16,36.01v.04h.08s-.12,0-.08-.04Z"/>
        <path id="_パス_1703" data-name=" パス 1703" class="cls-2" d="M381.69,35.53h.35c.08,0,.19,0,.11.04h.35c-.19,0,0-.04-.19,0h.16s.08-.04,0-.04h0s-.15-.08,0-.12h.08s.08,0,0-.04c.23,0,.04-.04.08-.08h-.11l-.08-.04h-.11s.08-.03.08-.08h0c.23,0-.15-.04,0-.08h-.27c.19,0,0-.08.19-.12h.08c-.08,0,.11,0-.08-.04h-.08s.08-.04-.08-.04h-.09s-.08,0,.08-.04h-.11c-.23,0,.15,0,.04-.04h-.08c.12,0,.23-.01.35-.04h.08s-.27-.04-.11-.08h-.15s.23-.04,0-.04h-.15c.39-.04-.19-.04.15-.08h0s-.1-.07-.15-.08h.08c.08,0,.04-.04-.11-.04h.11s.19-.08.04-.08h.04c-.15,0,.31-.12-.11-.08h-.34s.11-.04.15,0h0c.23,0,.08-.04.23-.04,0-.04.11-.12.08-.2h-.26c.23-.04.08-.12.15-.12h-.23c.31,0,.11-.04.35-.08-.15,0-.04-.04-.23,0h.19c-.11,0,.08-.08,0-.12h.04s-.23,0-.08-.08h-.11s-.19-.12.15-.24h-.24l.15-.08h-.15l-.58.12c.19,0-.27.08,0,.08h-.04l-.11.12h0l.19-.04c-.23.04,0,.08-.23.12h.04s0,.08.11.08h.04s-.04,0,0,.04h0c-.19.04.19,0-.08.08.23,0,.11-.04.19-.04h.15s-.31.04-.31.08h-.11s-.11.08,0,.08c.07,0,.13-.02.19-.04.15,0-.27.04-.23.08h.11s.08,0,0,.04h0c-.05.02-.1.03-.15.04-.04,0,.19,0,.11.04h.04s-.11.04,0,.04h-.29c.31,0,0,.04.35,0h.19s0,.04-.08.04h-.08c-.31,0,.08,0-.11.04h-.04c-.08,0-.16.02-.23.04.11-.02.23-.02.35,0h-.04l.11.04h.15c.15,0-.23.04-.04.04h-.23s.42.08.5.08h-.35c.15,0-.08,0,0-.04h.04c-.05,0-.11.01-.15.04h.15s0,.08.19.08h.39s-.58.04-.65.04h-.27c.09.02.18.04.27.04h.73c-.09,0-.18.01-.27.04h-.08s-.08.04-.08.08h.31s.35,0,.19.08h-.3c-.11,0,0,.08-.11.08h0l-.06.56h-.02Z"/>
        <path id="_パス_1710" data-name=" パス 1710" class="cls-2" d="M381.8,35.65l.11-.04h-.11v.04Z"/>
        <path id="_パス_1724" data-name=" パス 1724" class="cls-2" d="M365.2,24.51l.04.04-.04-.08v.04Z"/>
        <path id="_パス_1725" data-name=" パス 1725" class="cls-2" d="M365.28,24.47h0v.08s.04-.12.08-.08c-.08-.16,0,0-.08,0Z"/>
        <path id="_パス_1733" data-name=" パス 1733" class="cls-2" d="M365.62,24.71l.04.08s-.01-.08-.04-.12h0v.04Z"/>
        <path id="_パス_1735" data-name=" パス 1735" class="cls-2" d="M365.74,24.79v.08l-.04-.12.04.04Z"/>
        <path id="_パス_1736" data-name=" パス 1736" class="cls-2" d="M365.78,24.75c.02.05.03.11.04.16v-.12h-.04v-.04Z"/>
        <path id="_パス_1738" data-name=" パス 1738" class="cls-2" d="M365.62,24.63s0,.08.04.08v-.08h-.04Z"/>
        <path id="_パス_1741" data-name=" パス 1741" class="cls-2" d="M365.47,24.35c.02.07.03.13.04.2,0-.07-.01-.14-.04-.2Z"/>
        <path id="_パス_1743" data-name=" パス 1743" class="cls-2" d="M365.74,24.63v-.04h-.04v.04h.04Z"/>
        <path id="_パス_1750" data-name=" パス 1750" class="cls-2" d="M365.74,24.23l.04.08c-.04-.12,0-.16-.08-.32v.08c.04.17.1.33.19.48v-.12s-.07-.1-.08-.16h0l-.08-.04Z"/>
        <path id="_パス_1751" data-name=" パス 1751" class="cls-2" d="M365.81,24.55h0s0,.04.08.12v-.12h-.08Z"/>
        <path id="_パス_1752" data-name=" パス 1752" class="cls-2" d="M365.78,24.55c0-.09-.03-.17-.08-.24v.12s.02.06.04.08h0v.08h0l.04-.04Z"/>
        <path id="_パス_1753" data-name=" パス 1753" class="cls-2" d="M365.47,24.28s.06.1.08.16c0-.09-.03-.17-.08-.24h0v.12h0v-.04Z"/>
        <path id="_パス_1755" data-name=" パス 1755" class="cls-2" d="M365.85,24.59l.04.08-.04-.12v.04Z"/>
        <path id="_パス_1756" data-name=" パス 1756" class="cls-2" d="M365.89,24.55l.04.08v-.04l-.04-.04Z"/>
        <path id="_パス_1758" data-name=" パス 1758" class="cls-2" d="M366.86,24.23s.11.2.08.08v-.08h-.08Z"/>
        <path id="_パス_1761" data-name=" パス 1761" class="cls-2" d="M366.28,24.4s.02.04.04.04c0-.04-.07-.12-.04-.04Z"/>
        <path id="_パス_1769" data-name=" パス 1769" class="cls-2" d="M366.7,23.11v.08l.11.28-.11-.36Z"/>
        <path id="_パス_1770" data-name=" パス 1770" class="cls-2" d="M369.91,22.8s-.15-.36-.23-.56c.04.2-.15-.24-.08,0v-.05h0c-.07-.02-.13-.05-.19-.08h0c.04.16.04,0,.08.16-.08-.2-.11,0-.19-.2,0,0,.04.12,0,.12h0s-.08-.08-.08-.12h-.04c-.09.02-.16.1-.15.2h0s-.04,0-.08.08h0v.08s-.06-.1-.08-.16c0,.09.01.19.04.28v.08c0-.08-.08-.12-.08-.2-.11-.16,0,.2-.11-.04.08.24.08.12.08.16,0,.08.04.16,0,.16,0,0-.11-.28-.15-.24h0s0,.08-.04,0c.04.12,0,0,0,.16h0s.04.2,0,.12v-.11h0c-.08-.16,0-.04,0-.2,0-.08,0,.12-.04-.04.08.24-.04,0,0,.16h0l-.08-.12s-.08-.08-.08,0c.04,0,.08.12.11.2,0,.16-.11-.24-.15-.16l.08.08-.08-.08c.02.05.03.11.04.16-.08-.12,0,.04,0,.12v-.12h-.04v-.07s-.04.08-.08.04c0,.08.08.2.04.2,0-.04,0-.08-.04-.08,0-.08-.04-.16,0-.04v-.09h-.08v.12c-.03-.06-.06-.13-.08-.2v.12s-.08-.08-.08-.12c-.04-.04,0,.2-.04.12h0s-.11-.04-.08.08l-.08-.16s.11.16.08.24c0,.04-.08-.12-.08-.16,0,.08.04.24,0,.12h0v-.07c-.02-.07-.06-.14-.11-.2.11.28-.08.08.04.36h-.04v-.07s.08.2,0,.2c-.02-.02-.03-.05-.04-.08v.08h-.04v.12s-.04-.16,0-.16c-.15-.28,0,.08-.11-.08h0c-.08-.2-.08-.12-.15-.24,0,.04.15.24.15.32h0c-.04-.12-.04-.08-.04-.08v.04c-.04-.06-.08-.13-.11-.2.03.06.06.13.08.2-.04-.04-.04,0,0,.12,0-.04,0-.09-.03-.12v.12h0s.03.08.04.12c.04.16-.11-.2-.08,0,0-.04-.01-.08-.04-.12v.24l-.08-.08s.08.24.11.32l.08.12v.08s-.01-.08-.04-.12h0l-.08-.16v.08c0-.08-.01-.16-.04-.24h0l-.08-.12h0v.48c0-.12-.08-.2-.11-.32.08.12,0-.08.04-.04l-.04-.08v.16c0-.05-.03-.1-.08-.12.08.2,0,.16,0,.24,0-.08-.04-.16,0-.12-.08-.16.08.28,0,.12h0c0,.08,0,0-.04,0h0s-.11,0-.04.2l-.08-.24.15.64c-.09-.19-.17-.4-.23-.6h0c.04.08.08.16.11.24l-.11-.24s.11.28.08.28c-.03-.1-.07-.19-.11-.28l.08.24s-.08-.2-.11-.28h0s.08.4.04.4c0-.04-.11-.32-.15-.32,0,.12.19.6.19.72h0s-.19-.6-.23-.76c0-.04,0-.08-.04-.08v-.12h-.08c0,.09.03.17.08.24v-.16s.11.4.08.4c-.03-.11-.07-.22-.11-.32h0s0,.2-.04.08c0,0-.08-.16-.08-.08.08.16.27.68.31.81,0,0-.11-.16-.15-.2-.08-.12-.08-.32-.15-.4v.12s-.04-.12-.04-.08c.04.16-.04,0,0,.12,0,.04,0,0-.04,0,.04.08.11.32.08.36,0-.04-.01-.08-.04-.12-.04,0-.08-.08-.11-.04-.02-.04-.05-.08-.08-.12v.08l-.04-.16v.2c.04.12.04,0,.04-.04.07.15.11.31.11.48,0,.04-.04-.12-.04-.08-.08,0,.08.32,0,.2-.05-.1-.08-.21-.11-.32,0-.04.08.08.08.04h-.04v-.09c-.04-.08-.11,0-.19-.08v.12h0s0,.12.04.16h0c0,.08-.11-.16-.04,0v.08s.08.2.04.2c.04.12,0,0,.08.12-.08-.2.08,0,0-.2.03.07.07.14.11.2v-.08h0v-.28c.03.06.06.13.08.2h0s.08.08.08,0h0v-.09h0s0-.16.11,0v.04s.11.08.08,0c.11.2.08,0,.15.04v-.28s.05.02.08,0h0c.11.2,0-.2.11-.04h.08l-.04-.08v-.08s0-.08.08.12c0-.09-.01-.19-.04-.28h0v-.04c.05.08.08.16.11.24v-.16s0-.12.04-.04c.08.16.11,0,.23.12-.11-.24.08.08,0-.08,0,.04.04.08.08.16,0-.08.08.08.04-.08,0,.04.01.09.04.12h0v.08c-.02-.12-.06-.25-.11-.36.04.08.04.04,0-.04,0,.04.08.12.04.12,0,0,.11.04.04-.08h.04v-.08h0s0-.04.11.08v-.08c-.11-.2.04.12.04,0h0s.15.24.19.24v.04c.08.12-.04-.12,0-.16.01.07.04.14.08.2,0,.04-.04-.24.04-.12,0-.06-.03-.12-.08-.16,0,0,.15.2.08,0h0v-.17c.15.36,0-.2.15.12h.04v-.08c.08.04.08,0,.04-.16v.12s.19.12.15,0h0s.23.28.08-.08v-.12l-.11-.24s.08.08.08.12h0s.08,0,.11.16c.08-.04.19,0,.27,0l-.08-.16h0s.04.12,0,.12c.04.08,0-.08,0-.12.08.04.04.2.08.2h0v-.17l.04.08h.04l-.08-.12v-.12c.11.2.15,0,.19.08v-.12s-.08-.16-.04-.16c.11.28.08.12.19.32-.08-.12.04-.04-.04-.24.02.06.04.11.08.16,0-.12.11,0,.15,0-.02-.05-.04-.1-.04-.16l.11.16s-.08-.2,0-.08v-.08s.11-.24.35.08c-.04-.08,0-.08,0-.08h0s.08,0,.04-.16h0l.11-.2h.02Z"/>
        <path id="_パス_1774" data-name=" パス 1774" class="cls-2" d="M365.85,24.27s0-.04-.04,0h.04Z"/>
        <path id="_パス_1777" data-name=" パス 1777" class="cls-2" d="M365.78,24.03v-.04l.04.12-.04-.08Z"/>
        <path id="_パス_1783" data-name=" パス 1783" class="cls-2" d="M366.35,23.75h0l.08.2-.08-.2Z"/>
        <path id="_パス_1784" data-name=" パス 1784" class="cls-2" d="M366.43,23.19s.02.06.04.08c0-.04,0,0-.04-.16-.04-.04.04.11,0,.08Z"/>
        <path id="_パス_1785" data-name=" パス 1785" class="cls-2" d="M369.98,23.03l.04.04-.04-.04Z"/>
        <path id="_パス_1788" data-name=" パス 1788" class="cls-2" d="M367.59,22.6h0l.08.12-.08-.12Z"/>
      </g>
    </g>
  </g>
</svg>