<svg xmlns="http://www.w3.org/2000/svg" width="39.73" height="33.169" viewBox="0 0 39.73 33.169">
  <g id="Group_2115" data-name="Group 2115" transform="translate(-0.211)">
    <g id="feature" transform="translate(29.189)">
      <path id="Path_2290" data-name="Path 2290" d="M10.734,12.869a.311.311,0,0,0-.277-.22l-3.5-.227-1.3-3.263a.308.308,0,0,0-.283-.176.315.315,0,0,0-.3.176l-1.3,3.263L.3,12.648a.326.326,0,0,0-.283.22.319.319,0,0,0,.1.34l2.677,2.242-.869,3.4a.314.314,0,0,0,.472.34l2.979-1.871L8.33,19.193a.324.324,0,0,0,.359-.013.313.313,0,0,0,.12-.328l-.869-3.4,2.7-2.242A.305.305,0,0,0,10.734,12.869Z" transform="translate(0 -8.982)" fill="#ffda2d"/>
      <path id="Path_2291" data-name="Path 2291" d="M261.264,13.21l-2.7,2.242.869,3.4a.313.313,0,0,1-.12.328.324.324,0,0,1-.359.013L256,17.323V8.983a.308.308,0,0,1,.283.176l1.3,3.263,3.5.227a.311.311,0,0,1,.277.22A.305.305,0,0,1,261.264,13.21Z" transform="translate(-250.625 -8.983)" fill="#ffda2d"/>
      <path id="Path_2292" data-name="Path 2292" d="M241.63,473.4a.315.315,0,1,1-.315-.315A.312.312,0,0,1,241.63,473.4Z" transform="translate(-235.94 -463.339)" fill="#979fef"/>
      <ellipse id="Ellipse_93" data-name="Ellipse 93" cx="0.315" cy="0.315" rx="0.315" ry="0.315" transform="translate(9.172 7.214) rotate(-72.002)" fill="#737ee6"/>
      <ellipse id="Ellipse_94" data-name="Ellipse 94" cx="0.315" cy="0.315" rx="0.315" ry="0.315" transform="matrix(0.588, -0.809, 0.809, 0.588, 7.527, 2.153)" fill="#737ee6"/>
      <ellipse id="Ellipse_95" data-name="Ellipse 95" cx="0.315" cy="0.315" rx="0.315" ry="0.315" transform="matrix(0.809, -0.588, 0.588, 0.809, 2.343, 2.013)" fill="#979fef"/>
      <ellipse id="Ellipse_96" data-name="Ellipse 96" cx="0.315" cy="0.315" rx="0.315" ry="0.315" transform="translate(0.785 6.811) rotate(-17.998)" fill="#979fef"/>
      <path id="Path_2293" data-name="Path 2293" d="M256.315,473.4a.312.312,0,0,1-.315.315v-.63A.312.312,0,0,1,256.315,473.4Z" transform="translate(-250.625 -463.339)" fill="#737ee6"/>
      <path id="Path_2294" data-name="Path 2294" d="M157.465,172.793a.318.318,0,0,0-.277-.221l-1.14-.069-.422-1.065a.308.308,0,0,0-.283-.176.3.3,0,0,0-.3.176l-.422,1.065-1.14.069a.32.32,0,0,0-.183.561l.882.731-.283,1.1a.323.323,0,0,0,.12.334.314.314,0,0,0,.353.013l.976-.611.957.611a.314.314,0,0,0,.353-.013.323.323,0,0,0,.12-.334l-.283-1.1.876-.731A.319.319,0,0,0,157.465,172.793Z" transform="translate(-149.967 -167.854)" fill="#ff9100"/>
      <path id="Path_2295" data-name="Path 2295" d="M258.022,173.155l-.876.731.283,1.1a.323.323,0,0,1-.12.334.314.314,0,0,1-.353.013l-.957-.611v-3.439a.308.308,0,0,1,.283.176l.422,1.065,1.14.069a.317.317,0,0,1,.176.561Z" transform="translate(-250.625 -167.876)" fill="#ff9100"/>
    </g>
    <g id="stethoscope_1_" data-name="stethoscope (1)" transform="matrix(0.966, -0.259, 0.259, 0.966, 0, 6.26)">
      <path id="Path_2734" data-name="Path 2734" d="M3.1,0H2.558L1,1.013S.156,2.738.2,2.766-.026,4.62,0,4.654.423,5.839.493,5.937c.039.055.784.718,1.431,1.291h1L3.1,7.3A3.774,3.774,0,0,0,3.1,0Z" transform="translate(17.862 4.032)" fill="#c9f0fe"/>
      <g id="Group_1651" data-name="Group 1651" transform="translate(8.704 0.816)">
        <path id="Path_2735" data-name="Path 2735" d="M2.441,7.461a.421.421,0,0,1-.417-.483l.03-.2c.047-.317.047-.317.256-1.663l.227-1.463A2.609,2.609,0,0,0,.766.995L.277.816A.421.421,0,0,1,.565.026l.5.181.013,0a3.438,3.438,0,0,1,2.3,3.55l0,.013-.228,1.47C2.934,6.588,2.934,6.588,2.887,6.9l-.03.2A.421.421,0,0,1,2.441,7.461Z" fill="#9be8fd"/>
      </g>
      <g id="Group_1652" data-name="Group 1652" transform="translate(0 0.816)">
        <path id="Path_2736" data-name="Path 2736" d="M.967,7.477a.421.421,0,0,1-.415-.351l-.033-.2C.466,6.615.466,6.615.253,5.24L.025,3.774l0-.013a3.438,3.438,0,0,1,2.3-3.55L2.785.029a.421.421,0,1,1,.308.783L2.633.993A2.61,2.61,0,0,0,.858,3.652l.226,1.459C1.3,6.48,1.3,6.48,1.349,6.788l.034.2a.422.422,0,0,1-.415.491Z" fill="#9be8fd"/>
      </g>
      <ellipse id="Ellipse_121" data-name="Ellipse 121" cx="1.073" cy="1.073" rx="1.073" ry="1.073" transform="translate(2.479 0)" fill="#c9f0fe"/>
      <ellipse id="Ellipse_122" data-name="Ellipse 122" cx="1.073" cy="1.073" rx="1.073" ry="1.073" transform="translate(7.474)" fill="#c9f0fe"/>
      <g id="Group_1653" data-name="Group 1653" transform="translate(16.226 3.907)">
        <path id="Path_2737" data-name="Path 2737" d="M1.936,3.774A3.775,3.775,0,0,1,4.741.126,3.774,3.774,0,1,0,2.9,7.444l.151-.09H4.516A3.774,3.774,0,0,1,1.936,3.774Z" transform="translate(0)" fill="#9be8fd"/>
      </g>
      <path id="Path_2738" data-name="Path 2738" d="M1.838,0a1.838,1.838,0,0,0-.725,3.526l.129.049H2.551l.087-.083A1.838,1.838,0,0,0,1.838,0Z" transform="translate(18.161 5.847)" fill="#62ddfc"/>
      <g id="Group_1654" data-name="Group 1654" transform="translate(19.578 7.208)">
        <path id="Path_2739" data-name="Path 2739" d="M.421,2.958A.421.421,0,0,1,0,2.537V.421a.421.421,0,0,1,.842,0V2.537A.421.421,0,0,1,.421,2.958Z" transform="translate(0 0)" fill="#00c2fb"/>
      </g>
      <g id="Group_1655" data-name="Group 1655" transform="translate(2.953 7.399)">
        <path id="Path_2740" data-name="Path 2740" d="M.076,4.687,0,4.862,1.113,6.527,3.544,8.051l.253.486.312.15A1.414,1.414,0,0,1,4.861,7.9,6.194,6.194,0,0,0,8.718,3.049l.3-1.961A.938.938,0,0,0,8.3.019.921.921,0,0,0,7.207.779l-.311,2c0,.01,0,.019,0,.029A4.5,4.5,0,0,1,3.773,6.36a2.021,2.021,0,0,1-1.359,0A5.008,5.008,0,0,1,.076,4.687Z" fill="#ff76aa"/>
        <path id="Path_2741" data-name="Path 2741" d="M12.155,0a.938.938,0,0,0-.876.946v10A6.126,6.126,0,0,1,5.263,17.1,6.075,6.075,0,0,1,.14,14.383l-.14.39,2.693,2.946,3.484.9H6.9l.66-.031a7.931,7.931,0,0,0,5.561-7.559V.921A.921.921,0,0,0,12.155,0Z" transform="translate(4.891 1.545)" fill="#ff76aa"/>
      </g>
      <g id="Group_1656" data-name="Group 1656" transform="translate(0.109 7.399)">
        <path id="Path_2742" data-name="Path 2742" d="M14.827,20.1A7.894,7.894,0,0,1,8.144,16.3a6.046,6.046,0,0,1-1.283-3.73V9.179a1.374,1.374,0,0,1,.091-.492,1.4,1.4,0,0,0-.838-1.178A6.6,6.6,0,0,1,2.919,4.687a3.913,3.913,0,0,1-.774-1.878c0-.01,0-.02,0-.029L1.834.805A.938.938,0,0,0,.824.005.921.921,0,0,0,.011,1.062L.32,3.049A6.193,6.193,0,0,0,4.178,7.9,1.4,1.4,0,0,1,5.02,9.179v3.305a7.974,7.974,0,0,0,7.871,8,7.888,7.888,0,0,0,2.578-.415Q15.151,20.1,14.827,20.1Z" transform="translate(0 0)" fill="#ff5595"/>
      </g>
    </g>
  </g>
</svg>
