<svg xmlns="http://www.w3.org/2000/svg" width="10.452" height="10.452" viewBox="0 0 10.452 10.452">
  <path id="pattern" d="M3.12,12.452h8.212a1.12,1.12,0,0,0,1.12-1.12V3.12A1.12,1.12,0,0,0,11.332,2H3.12A1.12,1.12,0,0,0,2,3.12v8.212A1.12,1.12,0,0,0,3.12,12.452Zm8.212-9.706a.373.373,0,0,1,.373.373V4.527l-2-1.781Zm-2.755,0,3.128,2.781V8.969L5.173,2.747ZM2.747,3.12a.373.373,0,0,1,.373-.373H4.09L11.706,10v1.333a.373.373,0,0,1-.373.373h-.971L2.747,4.453Zm0,2.363,6.533,6.223H6.248l-3.5-3.154Zm0,4.076,2.385,2.146H3.12a.373.373,0,0,1-.373-.373Z" transform="translate(-2 -2)" fill="#feb0c1"/>
</svg>
