<svg xmlns="http://www.w3.org/2000/svg" width="18" height="18" viewBox="0 0 18 18">
  <g id="グループ_4947" data-name="グループ 4947" transform="translate(-335 -45)">
    <g id="plus_1_" data-name="plus (1)" transform="translate(338.037 47.874)">
      <path id="パス_5375" data-name="パス 5375" d="M11.08,5.006H7.141V1.068a1.068,1.068,0,1,0-2.135,0V5.006H1.068a1.068,1.068,0,1,0,0,2.135H5.006V11.08a1.068,1.068,0,1,0,2.135,0V7.141H11.08a1.068,1.068,0,1,0,0-2.135Z" fill="#ff7cec"/>
      <g id="グループ_4855" data-name="グループ 4855" transform="translate(6.074)">
        <path id="パス_5376" data-name="パス 5376" d="M261.006,5.006h-3.938V1.068A1.068,1.068,0,0,0,256,0V12.148a1.068,1.068,0,0,0,1.068-1.068V7.141h3.938a1.068,1.068,0,1,0,0-2.135Z" transform="translate(-256)" fill="#b473f1"/>
      </g>
    </g>
    <path id="長方形_911" data-name="長方形 911" d="M3,1A2,2,0,0,0,1,3V15a2,2,0,0,0,2,2H15a2,2,0,0,0,2-2V3a2,2,0,0,0-2-2H3M3,0H15a3,3,0,0,1,3,3V15a3,3,0,0,1-3,3H3a3,3,0,0,1-3-3V3A3,3,0,0,1,3,0Z" transform="translate(335 45)" fill="#fff"/>
  </g>
</svg>
