<svg id="plus_1_" data-name="plus (1)" xmlns="http://www.w3.org/2000/svg" width="16" height="16" viewBox="0 0 16 16">
  <path id="Path_5375" data-name="Path 5375" d="M14.594,6.594H9.406V1.406a1.406,1.406,0,0,0-2.812,0V6.594H1.406a1.406,1.406,0,0,0,0,2.813H6.594v5.188a1.406,1.406,0,0,0,2.813,0V9.406h5.188a1.406,1.406,0,0,0,0-2.812Z" fill="#ff7cec"/>
  <g id="Group_4855" data-name="Group 4855" transform="translate(8)">
    <path id="Path_5376" data-name="Path 5376" d="M262.594,6.594h-5.187V1.406A1.406,1.406,0,0,0,256,0V16a1.406,1.406,0,0,0,1.406-1.406V9.406h5.188a1.406,1.406,0,0,0,0-2.812Z" transform="translate(-256)" fill="#b473f1"/>
  </g>
</svg>
