<svg id="books_1_" data-name="books (1)" xmlns="http://www.w3.org/2000/svg" width="33.011" height="23.247" viewBox="0 0 33.011 23.247">
  <path id="Path_2697" data-name="Path 2697" d="M122.039,97.133a3.687,3.687,0,0,1,0-1.874c.089-.328-.088-.683.089-1.048l-.543-.856H103.037L101.6,96.2l1.44,2.692H121.9l.232-.7C121.95,97.82,122.128,97.47,122.039,97.133Z" transform="translate(-95.047 -92.218)" fill="#e8f6ff"/>
  <path id="Path_2698" data-name="Path 2698" d="M80.562,93.355V98.9h-2.4L77.573,96.2l.588-2.848Z" transform="translate(-72.571 -92.218)" fill="#d8ecfe"/>
  <path id="Path_2699" data-name="Path 2699" d="M79.619,95.539v1.328a.266.266,0,0,0,.266.266h.677l.511.881-.511.881h-2.4L77.573,96.2l.588-2.848h2.4l.511,1.1-.511.823h-.677A.266.266,0,0,0,79.619,95.539Z" transform="translate(-72.571 -92.218)" fill="#c5e1ff"/>
  <path id="Path_2700" data-name="Path 2700" d="M143.339,94.211a5.633,5.633,0,0,0-.4,1.048l-19.006.015V93.355h18.553Z" transform="translate(-115.941 -92.218)" fill="#d8ecfe"/>
  <path id="Path_2701" data-name="Path 2701" d="M143.339,153.015l-.545.7H123.931v-1.762h19A5.776,5.776,0,0,0,143.339,153.015Z" transform="translate(-115.941 -147.037)" fill="#d8ecfe"/>
  <path id="Path_2702" data-name="Path 2702" d="M89.176,83.688l-11.5.807-8.955-.807-.869-.118a3.075,3.075,0,0,1-3.144-3.2l-.056-1.328A3.136,3.136,0,0,1,67.832,75.8l.9-.082h20.44a.332.332,0,0,1,.332.332v1.328a.332.332,0,0,1-.332.332H67.8a1.328,1.328,0,0,0-1.328,1.328v1.328A1.328,1.328,0,0,0,67.8,81.7h21.38a.332.332,0,0,1,.332.332v1.328A.332.332,0,0,1,89.176,83.688Z" transform="translate(-60.482 -75.718)" fill="#fc93bb"/>
  <path id="Path_2703" data-name="Path 2703" d="M66.328,83.688h-1.2a3.321,3.321,0,0,1-3.321-3.321V79.039a3.321,3.321,0,0,1,3.321-3.321h1.2a3.321,3.321,0,0,0-3.321,3.321v1.328A3.321,3.321,0,0,0,66.328,83.688Z" transform="translate(-57.826 -75.718)" fill="#fe75a8"/>
  <path id="Path_2704" data-name="Path 2704" d="M93.138,221.954l-.876.414H67.752l-.677-1.743.677-2.083H92.318l.82.755A3.36,3.36,0,0,0,93.138,221.954Z" transform="translate(-62.75 -209.334)" fill="#e8f6ff"/>
  <g id="Group_1648" data-name="Group 1648" transform="translate(2.337 9.209)">
    <path id="Path_2705" data-name="Path 2705" d="M36.242,218.543h2.665v3.826H36.242Z" transform="translate(-36.242 -218.543)" fill="#d8ecfe"/>
    <path id="Path_2706" data-name="Path 2706" d="M96.947,219.3a2.943,2.943,0,0,0-.264,1.063H71.561l-.414-.711.414-1.107H96.128Z" transform="translate(-68.897 -218.542)" fill="#d8ecfe"/>
    <path id="Path_2707" data-name="Path 2707" d="M94.045,256.032l-.876.414H68.659l-.614-.806.614-.671H93.782A2.992,2.992,0,0,0,94.045,256.032Z" transform="translate(-65.994 -252.62)" fill="#d8ecfe"/>
  </g>
  <path id="Path_2708" data-name="Path 2708" d="M37.964,220.626a.266.266,0,0,0,.266.266h.677v1.477H36.242v-3.826h2.665v1.817H38.23A.266.266,0,0,0,37.964,220.626Z" transform="translate(-33.905 -209.334)" fill="#c5e1ff"/>
  <path id="Path_2709" data-name="Path 2709" d="M53.614,205.982l-14.107.866-12.791-.866-1.147-.131c-1.467,0-2.125-1.059-2.125-2.526V202c0-1.467.682-2.6,2.15-2.6l1.16-.061H53.614a.332.332,0,0,1,.332.332V201a.332.332,0,0,1-.332.332H25.592a.664.664,0,0,0-.664.664v1.328a.664.664,0,0,0,.664.664H53.614a.332.332,0,0,1,.332.332v1.328a.332.332,0,0,1-.332.332Z" transform="translate(-21.932 -191.369)" fill="#bbeb6d"/>
  <path id="Path_2710" data-name="Path 2710" d="M19.438,205.982H18.11a2.657,2.657,0,0,1-2.657-2.657V202a2.657,2.657,0,0,1,2.657-2.657h1.328A2.657,2.657,0,0,0,16.781,202v1.328A2.657,2.657,0,0,0,19.438,205.982Z" transform="translate(-14.457 -191.369)" fill="#a0e05c"/>
  <path id="Path_2711" data-name="Path 2711" d="M68.224,324.436a5.519,5.519,0,0,1,0-2.537c.088-.36-.187-.711-.023-1.049l.852-.855H41.226l-1.44,3.512,1.44,2.692H68.983l-.778-.7C68.038,325.157,68.312,324.8,68.224,324.436Z" transform="translate(-37.221 -304.244)" fill="#e8f6ff"/>
  <path id="Path_2712" data-name="Path 2712" d="M18.751,319.995v6.2h-2.4l-.588-2.692.588-3.512Z" transform="translate(-14.746 -304.245)" fill="#d8ecfe"/>
  <path id="Path_2713" data-name="Path 2713" d="M17.808,322.178v1.993a.266.266,0,0,0,.266.266h.677l.511.881-.511.881h-2.4l-.588-2.692.588-3.512h2.4l.511,1.1-.511.823h-.677A.266.266,0,0,0,17.808,322.178Z" transform="translate(-14.746 -304.244)" fill="#c5e1ff"/>
  <path id="Path_2714" data-name="Path 2714" d="M62.12,319.995H89.95l-.452.856a5.237,5.237,0,0,0-.377,1.049l-27,.013Z" transform="translate(-58.115 -304.245)" fill="#d8ecfe"/>
  <path id="Path_2715" data-name="Path 2715" d="M89.5,389.956l.378.7H62.12v-1.762h27A5.242,5.242,0,0,0,89.5,389.956Z" transform="translate(-58.115 -368.701)" fill="#d8ecfe"/>
  <path id="Path_2716" data-name="Path 2716" d="M35.336,310.993H6.91l-.869-.118a3.075,3.075,0,0,1-3.144-3.2l-.056-1.993a3.136,3.136,0,0,1,3.182-3.239l.9-.082H35.336a.332.332,0,0,1,.332.332v1.328a.332.332,0,0,1-.332.332H5.985a1.328,1.328,0,0,0-1.328,1.328v1.993A1.328,1.328,0,0,0,5.985,309H35.336a.332.332,0,0,1,.332.332v1.328A.332.332,0,0,1,35.336,310.993Z" transform="translate(-2.657 -287.745)" fill="#89cafe"/>
  <path id="Path_2717" data-name="Path 2717" d="M4.517,310.994h-1.2A3.321,3.321,0,0,1,0,307.673V305.68a3.321,3.321,0,0,1,3.321-3.321h1.2A3.321,3.321,0,0,0,1.2,305.68v1.993A3.321,3.321,0,0,0,4.517,310.994Z" transform="translate(0 -287.746)" fill="#60b7ff"/>
</svg>
