<svg id="hand" xmlns="http://www.w3.org/2000/svg" width="33.577" height="32.476" viewBox="0 0 33.577 32.476">
  <path id="Path_2674" data-name="Path 2674" d="M153.162,260.317l-.047-.1a2.37,2.37,0,0,1,4.17-2.238l5.46,8.978-4.149,1.03Z" transform="translate(-142.863 -240.547)" fill="#ffdfcf"/>
  <path id="Path_2675" data-name="Path 2675" d="M168.653,266.958l-1.589.394-5.135-8.443a2.369,2.369,0,0,0-2.684-1.045l-.032.01a2.369,2.369,0,0,1,3.981.105Z" transform="translate(-148.772 -240.549)" fill="#ffcebf"/>
  <path id="Path_2676" data-name="Path 2676" d="M286.862,280.4l-4.308,2.028-2.6-3.843L279.326,277l-.766-1.933a2.329,2.329,0,0,1,1.989-3.182,2.331,2.331,0,0,1,2.213,1.186l3.168,5.664Z" transform="translate(-260.137 -254.6)" fill="#ffdfcf"/>
  <path id="Path_2677" data-name="Path 2677" d="M295.243,278.736h0l-3.168-5.664a2.331,2.331,0,0,0-2.213-1.186,2.3,2.3,0,0,0-1.5.708,2.329,2.329,0,0,1,2.185,1.188l1.274,2.278a.562.562,0,0,1-.469.836l-2.713.105.629,1.587,2.6,3.843,4.308-2.028Z" transform="translate(-269.45 -254.599)" fill="#ffcebf"/>
  <path id="Path_2678" data-name="Path 2678" d="M76.321,248.13l-.069-.088a2.37,2.37,0,0,1,3.561-3.117l7.336,7.523-3.811,1.935Z" transform="translate(-70.779 -228.745)" fill="#ffdfcf"/>
  <path id="Path_2679" data-name="Path 2679" d="M93.75,252.445l-1.208.613-7.16-7.342a2.37,2.37,0,0,0-2.571-.548,2.371,2.371,0,0,1,3.6-.245Z" transform="translate(-77.38 -228.742)" fill="#ffcebf"/>
  <path id="Path_2680" data-name="Path 2680" d="M30.87,264.371l-.077-.08a2.37,2.37,0,0,1,3.233-3.456l8.048,6.755-3.6,2.3Z" transform="translate(-28.157 -243.761)" fill="#ffdfcf"/>
  <path id="Path_2681" data-name="Path 2681" d="M49.395,267.585l-1.094.7-7.991-6.707a2.365,2.365,0,0,0-2.343-.408,2.344,2.344,0,0,1,.5-.47,2.368,2.368,0,0,1,2.878.129Z" transform="translate(-35.477 -243.756)" fill="#ffcebf"/>
  <path id="Path_2682" data-name="Path 2682" d="M51.783,310.449H39.363a.573.573,0,0,1-.513-.319l-1.232-2.491-9.438-.845a2.559,2.559,0,0,1-1.481-.645l-5.84-5.252a2.3,2.3,0,0,1,2.92-3.538l5.457,4.125h9.173c1.929,0,6.513.764,7.881,2.124l5.9,5.862a.573.573,0,0,1-.4.979Z" transform="translate(-18.78 -277.973)" fill="#ffdfcf"/>
  <path id="Path_2683" data-name="Path 2683" d="M29.249,301.485H27.193a1.393,1.393,0,0,1-.817-.265l-3-2.17a2.576,2.576,0,0,0-2.631-.233l-.633.307a2.295,2.295,0,0,1,3.679-1.765Z" transform="translate(-18.794 -277.974)" fill="#ffcebf"/>
  <path id="Path_2684" data-name="Path 2684" d="M301.887,375.861h-4.266l-5.884-7.095a5.172,5.172,0,0,0-3.982-1.871h3.489a7.3,7.3,0,0,1,5.149,2.124l5.9,5.862A.573.573,0,0,1,301.887,375.861Z" transform="translate(-268.884 -343.384)" fill="#ffcebf"/>
  <g id="Group_1600" data-name="Group 1600" transform="translate(8.512 2.398)">
    <path id="Path_2685" data-name="Path 2685" d="M137.378,57.359a.968.968,0,0,1-.934,0c-8.64-4.771-7.5-11.652-4.208-12.318,2.516-.509,3.887,1.671,4.416,2.792a.286.286,0,0,0,.517,0,5.527,5.527,0,0,1,2.061-2.431,3.277,3.277,0,0,1,2.356-.361C144.88,45.708,146.017,52.588,137.378,57.359Z" transform="translate(-129.787 -44.965)" fill="#fe93bb"/>
    <path id="Path_2686" data-name="Path 2686" d="M232.217,57.361a.968.968,0,0,1-.934,0c5.035-6.341,4.107-10.084,2.786-11.957a3.277,3.277,0,0,1,2.356-.361c3.3.667,4.432,7.548-4.208,12.318Z" transform="translate(-224.627 -44.967)" fill="#fe76a8"/>
  </g>
  <g id="Group_1613" data-name="Group 1613" transform="translate(0 0)">
    <g id="Group_1606" data-name="Group 1606">
      <g id="Group_1601" data-name="Group 1601" transform="translate(0 6.116)">
        <path id="Path_2687" data-name="Path 2687" d="M5.785,102.653H.5a.5.5,0,1,1,0-1H5.785a.5.5,0,1,1,0,1Z" transform="translate(0 -101.655)" fill="#ffe177"/>
      </g>
      <g id="Group_1602" data-name="Group 1602" transform="translate(3.173 8.443)">
        <path id="Path_2688" data-name="Path 2688" d="M48.885,138.727a.5.5,0,0,1-.119-.984l2.4-.592a.5.5,0,1,1,.24.969l-2.4.592A.5.5,0,0,1,48.885,138.727Z" transform="translate(-48.386 -137.136)" fill="#ffe177"/>
      </g>
      <g id="Group_1603" data-name="Group 1603" transform="translate(2.583 10.525)">
        <path id="Path_2689" data-name="Path 2689" d="M39.891,171.8a.5.5,0,0,1-.227-.944l3.763-1.921a.5.5,0,0,1,.454.889l-3.763,1.921A.5.5,0,0,1,39.891,171.8Z" transform="translate(-39.391 -168.882)" fill="#ffe177"/>
      </g>
      <g id="Group_1604" data-name="Group 1604" transform="translate(2.477)">
        <path id="Path_2690" data-name="Path 2690" d="M42.057,11.246a.5.5,0,0,1-.219-.051l-3.8-1.856a.5.5,0,0,1,.439-.9l3.8,1.856a.5.5,0,0,1-.22.948Z" transform="translate(-37.763 -8.392)" fill="#ffe177"/>
      </g>
      <g id="Group_1605" data-name="Group 1605" transform="translate(3.173 3.411)">
        <path id="Path_2691" data-name="Path 2691" d="M51.243,61.944a.5.5,0,0,1-.112-.013l-2.357-.54A.5.5,0,0,1,49,60.418l2.357.54a.5.5,0,0,1-.111.986Z" transform="translate(-48.386 -60.405)" fill="#ffe177"/>
      </g>
    </g>
    <g id="Group_1612" data-name="Group 1612" transform="translate(23.924)">
      <g id="Group_1607" data-name="Group 1607" transform="translate(1.06 6.116)">
        <path id="Path_2692" data-name="Path 2692" d="M386.755,102.653h-5.286a.5.5,0,1,1,0-1h5.286a.5.5,0,1,1,0,1Z" transform="translate(-380.97 -101.655)" fill="#ffe177"/>
      </g>
      <g id="Group_1608" data-name="Group 1608" transform="translate(0.777 8.443)">
        <path id="Path_2693" data-name="Path 2693" d="M379.544,138.727a.5.5,0,0,1-.12-.015l-2.4-.592a.5.5,0,1,1,.24-.969l2.4.592a.5.5,0,0,1-.119.984Z" transform="translate(-376.649 -137.136)" fill="#ffe177"/>
      </g>
      <g id="Group_1609" data-name="Group 1609" transform="translate(0 10.525)">
        <path id="Path_2694" data-name="Path 2694" d="M369.065,171.8a.5.5,0,0,1-.227-.055l-3.763-1.921a.5.5,0,0,1,.454-.889l3.763,1.921a.5.5,0,0,1-.227.944Z" transform="translate(-364.803 -168.882)" fill="#ffe177"/>
      </g>
      <g id="Group_1610" data-name="Group 1610" transform="translate(0.074)">
        <path id="Path_2695" data-name="Path 2695" d="M366.437,11.246a.5.5,0,0,1-.22-.948l3.8-1.856a.5.5,0,1,1,.439.9l-3.8,1.856A.5.5,0,0,1,366.437,11.246Z" transform="translate(-365.937 -8.392)" fill="#ffe177"/>
      </g>
      <g id="Group_1611" data-name="Group 1611" transform="translate(0.816 3.411)">
        <path id="Path_2696" data-name="Path 2696" d="M377.739,61.944a.5.5,0,0,1-.111-.986l2.357-.54a.5.5,0,0,1,.223.973l-2.357.54A.5.5,0,0,1,377.739,61.944Z" transform="translate(-377.24 -60.405)" fill="#ffe177"/>
      </g>
    </g>
  </g>
</svg>
