<svg id="feature" xmlns="http://www.w3.org/2000/svg" width="24.873" height="24" viewBox="0 0 24.873 24">
  <path id="Path_2290" data-name="Path 2290" d="M24.831,17.973a.719.719,0,0,0-.641-.51l-8.1-.525-3-7.548a.713.713,0,0,0-.656-.408.729.729,0,0,0-.7.408l-3,7.548-8.044.525a.755.755,0,0,0-.656.51.738.738,0,0,0,.233.787l6.194,5.188L4.45,31.816a.727.727,0,0,0,1.093.787l6.892-4.328L19.269,32.6a.749.749,0,0,0,.831-.029.724.724,0,0,0,.277-.758l-2.011-7.869,6.246-5.188A.707.707,0,0,0,24.831,17.973Z" transform="translate(0 -8.982)" fill="#ffda2d"/>
  <path id="Path_2291" data-name="Path 2291" d="M268.177,18.761l-6.246,5.188,2.011,7.869a.724.724,0,0,1-.277.758.749.749,0,0,1-.831.029L256,28.276V8.983a.713.713,0,0,1,.656.408l3,7.548,8.1.525a.719.719,0,0,1,.641.51A.707.707,0,0,1,268.177,18.761Z" transform="translate(-243.565 -8.983)" fill="#ffda2d"/>
  <path id="Path_2292" data-name="Path 2292" d="M242.457,473.813a.729.729,0,1,1-.729-.729A.722.722,0,0,1,242.457,473.813Z" transform="translate(-229.294 -450.541)" fill="#979fef"/>
  <circle id="Ellipse_93" data-name="Ellipse 93" cx="0.729" cy="0.729" r="0.729" transform="translate(21.218 16.69) rotate(-72.002)" fill="#737ee6"/>
  <circle id="Ellipse_94" data-name="Ellipse 94" cx="0.729" cy="0.729" r="0.729" transform="matrix(0.588, -0.809, 0.809, 0.588, 17.413, 4.98)" fill="#737ee6"/>
  <circle id="Ellipse_95" data-name="Ellipse 95" cx="0.729" cy="0.729" r="0.729" transform="matrix(0.809, -0.588, 0.588, 0.809, 5.421, 4.657)" fill="#979fef"/>
  <circle id="Ellipse_96" data-name="Ellipse 96" cx="0.729" cy="0.729" r="0.729" transform="translate(1.815 15.756) rotate(-17.998)" fill="#979fef"/>
  <path id="Path_2293" data-name="Path 2293" d="M256.729,473.813a.722.722,0,0,1-.729.729v-1.457A.721.721,0,0,1,256.729,473.813Z" transform="translate(-243.565 -450.541)" fill="#737ee6"/>
  <path id="Path_2294" data-name="Path 2294" d="M163.089,174.8a.736.736,0,0,0-.641-.51l-2.638-.16-.976-2.463a.713.713,0,0,0-.656-.408.686.686,0,0,0-.7.408l-.976,2.463-2.637.16a.741.741,0,0,0-.423,1.3l2.04,1.69-.656,2.55a.747.747,0,0,0,.277.772.726.726,0,0,0,.816.029l2.259-1.414,2.215,1.414a.726.726,0,0,0,.816-.029.747.747,0,0,0,.277-.772l-.656-2.55,2.025-1.69A.738.738,0,0,0,163.089,174.8Z" transform="translate(-145.743 -163.379)" fill="#ff9100"/>
  <path id="Path_2295" data-name="Path 2295" d="M260.678,175.612l-2.025,1.69.656,2.55a.747.747,0,0,1-.277.772.726.726,0,0,1-.816.029L256,179.24v-7.956a.713.713,0,0,1,.656.408l.976,2.463,2.638.16a.733.733,0,0,1,.408,1.3Z" transform="translate(-243.565 -163.401)" fill="#ff9100"/>
</svg>
