<svg id="グループ_4508" data-name="グループ 4508" xmlns="http://www.w3.org/2000/svg" width="52.488" height="52.488" viewBox="0 0 52.488 52.488">
  <path id="パス_2673" data-name="パス 2673" d="M26.244,0A26.244,26.244,0,1,1,0,26.244,26.244,26.244,0,0,1,26.244,0Z" fill="#fff"/>
  <path id="パス_2673_-_アウトライン" data-name="パス 2673 - アウトライン" d="M26.244,2a24.251,24.251,0,0,0-9.436,46.584A24.251,24.251,0,0,0,35.68,3.9,24.091,24.091,0,0,0,26.244,2m0-2A26.244,26.244,0,1,1,0,26.244,26.244,26.244,0,0,1,26.244,0Z" fill="#fedfe0"/>
  <g id="question-mark_1_" data-name="question-mark (1)" transform="translate(6.557 7.218)">
    <path id="パス_2583" data-name="パス 2583" d="M0,25.482a6.4,6.4,0,0,0,6.422,6.383,6.514,6.514,0,0,0,.9-.064A7.66,7.66,0,0,0,21.657,36.52a6.408,6.408,0,0,0,11.377-4.827,5.6,5.6,0,1,0,.634-10.933,6.336,6.336,0,0,0,.369-2.134A6.429,6.429,0,0,0,23.418,13.8,8.809,8.809,0,0,0,7.153,18.423c0,.243.01.484.03.722a6.521,6.521,0,0,0-.761-.046A6.4,6.4,0,0,0,0,25.482Z" transform="translate(0 -9.678)" fill="#d8ecfe"/>
    <path id="パス_2584" data-name="パス 2584" d="M13.8,33.587a7.91,7.91,0,0,1,.089-1.186,6.634,6.634,0,0,1-.92.065A6.556,6.556,0,1,1,13.742,19.4c-.02-.245-.031-.493-.031-.742a8.985,8.985,0,0,1,5.778-8.394A8.988,8.988,0,0,0,7.3,18.66c0,.249.011.5.031.742a6.556,6.556,0,1,0-.777,13.065,6.617,6.617,0,0,0,.919-.065,7.909,7.909,0,0,0-.089,1.186,7.82,7.82,0,0,0,11.02,7.131A7.817,7.817,0,0,1,13.8,33.587Z" transform="translate(0 -9.677)" fill="#c4e2ff"/>
    <ellipse id="楕円形_112" data-name="楕円形 112" cx="3.269" cy="3.269" rx="3.269" ry="3.269" transform="translate(19.593 32.094)" fill="#d8ecfe"/>
    <path id="パス_2585" data-name="パス 2585" d="M255.03,427.074a3.268,3.268,0,1,1,0-6.144,3.27,3.27,0,0,0,0,6.144Z" transform="translate(-231.021 -388.639)" fill="#c4e2ff"/>
    <g id="グループ_1559" data-name="グループ 1559" transform="translate(15.023 6.523)">
      <g id="グループ_1556" data-name="グループ 1556" transform="translate(0 0)">
        <g id="グループ_1555" data-name="グループ 1555">
          <path id="パス_2586" data-name="パス 2586" d="M198.163,107.208a1.462,1.462,0,0,1-1.462-1.462v-.62a3.409,3.409,0,0,1,2.262-3.213,2.4,2.4,0,1,0-3.2-2.265,1.462,1.462,0,0,1-2.925,0,5.326,5.326,0,1,1,7.1,5.022.479.479,0,0,0-.312.455v.62A1.463,1.463,0,0,1,198.163,107.208Z" transform="translate(-192.837 -94.322)" fill="#0573ce"/>
        </g>
        <path id="パス_2587" data-name="パス 2587" d="M242.516,278.84a1.462,1.462,0,0,1-1.462-1.462v-.012a1.462,1.462,0,0,1,2.925,0v.012A1.462,1.462,0,0,1,242.516,278.84Z" transform="translate(-237.191 -261.355)" fill="#0573ce"/>
      </g>
      <g id="グループ_1558" data-name="グループ 1558" transform="translate(0 0)">
        <g id="グループ_1557" data-name="グループ 1557">
          <path id="パス_2588" data-name="パス 2588" d="M194.179,98.905a5.335,5.335,0,0,0-.051.741,1.461,1.461,0,0,0,.816,1.312,1.463,1.463,0,0,1-2.109-1.312,5.327,5.327,0,0,1,5.682-5.314q.149.01.3.029A5.35,5.35,0,0,0,194.179,98.905Z" transform="translate(-192.835 -94.32)" fill="#0067c5"/>
          <path id="パス_2589" data-name="パス 2589" d="M244.611,135.5a3.41,3.41,0,0,0-2.262,3.213v.62a1.462,1.462,0,0,0,.817,1.312,1.463,1.463,0,0,1-2.109-1.312v-.62a3.408,3.408,0,0,1,2.262-3.213,2.4,2.4,0,0,0-.149-4.576,2.4,2.4,0,0,1,1.441,4.576Z" transform="translate(-237.194 -127.906)" fill="#0067c5"/>
        </g>
        <path id="パス_2590" data-name="パス 2590" d="M243.166,278.684a1.463,1.463,0,0,1-2.109-1.312v-.012a1.463,1.463,0,0,1,2.109-1.312,1.463,1.463,0,0,0-.817,1.312v.012A1.462,1.462,0,0,0,243.166,278.684Z" transform="translate(-237.194 -261.349)" fill="#0067c5"/>
      </g>
    </g>
    <ellipse id="楕円形_135" data-name="楕円形 135" cx="3.269" cy="3.269" rx="3.269" ry="3.269" transform="translate(19.593 32.094)" fill="#d8ecfe"/>
  </g>
</svg>
