<svg xmlns="http://www.w3.org/2000/svg" width="21.186" height="10.654" viewBox="0 0 21.186 10.654">
  <g id="Group_2045" data-name="Group 2045" transform="translate(-5.778 -12.296)">
    <g id="stairs" transform="translate(5.778 12.296)">
      <path id="Path_2752" data-name="Path 2752" d="M256.732.464l-.969,1.978a.828.828,0,0,1-.62.455l-2.228.336a.828.828,0,0,0-.441,1.424l1.593,1.487a.828.828,0,0,1,.25.751l-.4,2.226a.828.828,0,0,0,1.218.869l1.937-1.078a.828.828,0,0,1,.805,0l1.937,1.078a.828.828,0,0,0,1.218-.869l-.4-2.226a.828.828,0,0,1,.25-.751l1.593-1.487a.828.828,0,0,0-.441-1.424L259.808,2.9a.828.828,0,0,1-.62-.455L258.219.464a.828.828,0,0,0-1.487,0Z" transform="translate(-246.883 0)" fill="#fed402"/>
      <path id="Path_2753" data-name="Path 2753" d="M343.64,45.531l2.228-.336a.825.825,0,0,0,.177-.047,1.069,1.069,0,0,0,.12,1.434l1.131,1.056a1.07,1.07,0,0,1,.323.971l-.285,1.594a1.056,1.056,0,0,0,.407,1.041l-1.879,1.046a.828.828,0,0,1-1.218-.869l.4-2.226a.828.828,0,0,0-.25-.751L343.2,46.955A.828.828,0,0,1,343.64,45.531Z" transform="translate(-337.608 -42.298)" fill="#fac600"/>
      <g id="Group_1710" data-name="Group 1710" transform="translate(0 0.536)">
        <path id="Path_2754" data-name="Path 2754" d="M456.973,82.106h2.019a.473.473,0,1,0,0-.947h-2.019a.473.473,0,0,0,0,.947Z" transform="translate(-456.5 -76.573)" fill="#fee45a"/>
        <path id="Path_2755" data-name="Path 2755" d="M440.972,142.369a.471.471,0,0,0,.2-.046l1.76-.835a.473.473,0,0,0-.406-.855l-1.76.835a.473.473,0,0,0,.2.9Z" transform="translate(-439.229 -132.251)" fill="#fee45a"/>
        <path id="Path_2756" data-name="Path 2756" d="M442.732,10.28a.473.473,0,0,0,.2-.9l-1.76-.835a.473.473,0,1,0-.406.855l1.76.835a.471.471,0,0,0,.2.046Z" transform="translate(-439.23 -8.498)" fill="#fee45a"/>
        <path id="Path_2757" data-name="Path 2757" d="M168.262,82.106h2.019a.473.473,0,1,0,0-.947h-2.019a.473.473,0,1,0,0,.947Z" transform="translate(-149.569 -76.573)" fill="#fee45a"/>
        <path id="Path_2758" data-name="Path 2758" d="M190.128,142.369a.473.473,0,0,0,.2-.9l-1.76-.835a.473.473,0,0,0-.406.855l1.76.835A.47.47,0,0,0,190.128,142.369Z" transform="translate(-170.685 -132.251)" fill="#fee45a"/>
        <path id="Path_2759" data-name="Path 2759" d="M188.368,10.28a.471.471,0,0,0,.2-.046l1.76-.835a.473.473,0,1,0-.406-.855l-1.76.835a.473.473,0,0,0,.2.9Z" transform="translate(-170.685 -8.499)" fill="#fee45a"/>
      </g>
    </g>
  </g>
</svg>
