<svg xmlns="http://www.w3.org/2000/svg" xmlns:xlink="http://www.w3.org/1999/xlink" width="122" height="122.461" viewBox="0 0 122 122.461">
  <defs>
    <filter id="パス_3332" x="0" y="3.461" width="119.001" height="119" filterUnits="userSpaceOnUse">
      <feOffset dy="1" input="SourceAlpha"/>
      <feGaussianBlur stdDeviation="2" result="blur"/>
      <feFlood flood-opacity="0.161"/>
      <feComposite operator="in" in2="blur"/>
      <feComposite in="SourceGraphic"/>
    </filter>
    <filter id="東京" x="22" y="45.461" width="74" height="56" filterUnits="userSpaceOnUse">
      <feOffset dy="2" input="SourceAlpha"/>
      <feGaussianBlur stdDeviation="2" result="blur-2"/>
      <feFlood flood-color="#ff8080" flood-opacity="0.161"/>
      <feComposite operator="in" in2="blur-2"/>
      <feComposite in="SourceGraphic"/>
    </filter>
    <filter id="Tokyo" x="32" y="17.461" width="78" height="44" filterUnits="userSpaceOnUse">
      <feOffset dy="2" input="SourceAlpha"/>
      <feGaussianBlur stdDeviation="2" result="blur-3"/>
      <feFlood flood-color="#ff8080" flood-opacity="0.161"/>
      <feComposite operator="in" in2="blur-3"/>
      <feComposite in="SourceGraphic"/>
    </filter>
  </defs>
  <g id="グループ_4464" data-name="グループ 4464" transform="translate(-110 -4273.539)">
    <g id="check" transform="translate(116 4282)">
      <g transform="matrix(1, 0, 0, 1, -6, -8.46)" filter="url(#パス_3332)">
        <path id="パス_3332-2" data-name="パス 3332" d="M72.316,14.511A43.773,43.773,0,1,0,98.273,54.519V50.048a4.864,4.864,0,0,1,9.727,0v4.475a53.5,53.5,0,1,1-31.726-48.9,4.864,4.864,0,0,1-3.959,8.885Z" transform="translate(5 7.47)" fill="#fcaebf" fill-rule="evenodd" opacity="0.48"/>
      </g>
    </g>
    <g transform="matrix(1, 0, 0, 1, 110, 4273.54)" filter="url(#東京)">
      <text id="東京-2" data-name="東京" transform="translate(28 84.46)" fill="#e99cad" font-size="30" font-family="SourceHanSansJP-Bold, Source Han Sans JP" font-weight="700" letter-spacing="0.05em"><tspan x="0" y="0">東京</tspan></text>
    </g>
    <g transform="matrix(1, 0, 0, 1, 110, 4273.54)" filter="url(#Tokyo)">
      <text id="Tokyo-2" data-name="Tokyo" transform="translate(38 47.46)" fill="#e99cad" font-size="22" font-family="SourceHanSansJP-Bold, Source Han Sans JP" font-weight="700"><tspan x="0" y="0">Tokyo</tspan></text>
    </g>
    <g id="_グループ_125" transform="translate(208.395 4273.539)">
      <path id="_パス_1407" d="M408.444,12.435a.393.393,0,0,0-.052-.1C408.339,12.487,408.444,12.435,408.444,12.435Z" transform="translate(-396.589 -10.63)" fill="#f2a5ba"/>
      <path id="_パス_1408" d="M407.526,16.14l-.026.24.026-.214Z" transform="translate(-396.095 -12.774)" fill="#f2a5ba"/>
      <path id="_パス_1409" d="M406.585,17.617h.026s.136,0,.157-.052h0l-.1-.214h0l.052-.24a.582.582,0,0,0-.24.052h0l.1.214a7.24,7.24,0,0,1-.24.8c.1-.079.157-.345.214-.555h.026Zm.1-.24-.052.184Z" transform="translate(-395.442 -13.32)" fill="#f2a5ba"/>
      <path id="_パス_1410" d="M405.312,20.76h0a.374.374,0,0,1-.052.184c.052-.026,0,.184.079-.184Z" transform="translate(-394.834 -15.374)" fill="#f2a5ba"/>
      <path id="_パス_1412" d="M404.7,22.174V21.96s-.079.214-.079.136c-.052.214,0,.184.079.079Z" transform="translate(-394.464 -16.05)" fill="#f2a5ba"/>
      <path id="_パス_1414" d="M404.952,22.15l-.053.24s.053,0,0-.1V22.15Z" transform="translate(-394.632 -16.157)" fill="#f2a5ba"/>
      <path id="_パス_1415" d="M405.02,22.686l.026-.079.057-.4-.079.476h0Z" transform="translate(-394.699 -16.191)" fill="#f2a5ba"/>
      <path id="_パス_1417" d="M401.737,26.025s-.135-.079-.026-.1a2.624,2.624,0,0,0-.45.079h.476Z" transform="translate(-392.583 -18.279)" fill="#f2a5ba"/>
      <path id="_パス_1418" d="M400.77,26.208s.135-.026.214-.052A.289.289,0,0,0,400.77,26.208Z" transform="translate(-392.307 -18.409)" fill="#f2a5ba"/>
      <path id="_パス_1424" d="M401.322,26.366s-.24.026-.372.026h.45s.079-.052-.079-.052h0v.026Z" transform="translate(-392.409 -18.515)" fill="#f2a5ba"/>
      <path id="_パス_1428" d="M399.86,26.331a.643.643,0,0,1,.184.026C399.991,26.357,399.86,26.3,399.86,26.331Z" transform="translate(-391.795 -18.506)" fill="#f2a5ba"/>
      <path id="_パス_1430" d="M402.747,26.4a.253.253,0,0,0-.157.052h.157Z" transform="translate(-393.332 -18.549)" fill="#f2a5ba"/>
      <path id="_パス_1431" d="M396.531,26.631s.586.079.372.136c-.345.026-.293,0-.45-.052.136.079-.45.1-.371.214l.293-.052s-.1.052,0,.052c0-.052.319-.1.586-.052.267-.052.079-.24-.136-.345,0,0,0,.052-.267.079h0l-.022.022Z" transform="translate(-389.664 -18.622)" fill="#f2a5ba"/>
      <path id="_パス_1432" d="M397.8,26.419h.612a2.674,2.674,0,0,1-.372-.079c-.184.026-.214.052-.24.079Z" transform="translate(-390.635 -18.515)" fill="#f2a5ba"/>
      <path id="_パス_1434" d="M402.4,26.82h-.424l.214.079h0c.24,0,.184-.052.214-.079Z" transform="translate(-392.988 -18.785)" fill="#f2a5ba"/>
      <path id="_パス_1435" d="M397.368,26.359l.052-.079-.24.1.184-.026h0Z" transform="translate(-390.286 -18.482)" fill="#f2a5ba"/>
      <path id="_パス_1436" d="M396.171,26.392l.026-.052-.157.026.135.026h0Z" transform="translate(-389.645 -18.515)" fill="#f2a5ba"/>
      <path id="_パス_1437" d="M405.013,45.231l-.052.1.1-.136h-.052Z" transform="translate(-394.666 -29.131)" fill="#f2a5ba"/>
      <path id="_パス_1439" d="M392.46,27.1l.053-.026S392.46,27.07,392.46,27.1Z" transform="translate(-387.63 -18.926)" fill="#f2a5ba"/>
      <path id="_パス_1441" d="M403.884,20.061s-.267.267-.157.184l.293-.214h-.079a2.886,2.886,0,0,1,.529-.45c.293-.157.24-.079.372-.157,0,0,.052,0,.157-.1l.638-.45-.477.214c.136-.157.529-.372,0-.1.105-.052.241-.1.372-.184a2.657,2.657,0,0,1-.372-.026v-.052a.764.764,0,0,0-.184-.1c-.079,0-.1,0-.345.1a.178.178,0,0,0-.157-.1,1.12,1.12,0,0,0-.529.136h-.9a4.746,4.746,0,0,1-.612.052h0a.427.427,0,0,0-.157-.136.653.653,0,0,0-.4.136c-.136-.079-.638-.026-.818-.157.079.026-.026.052-.184.052-.267-.079-.586-.184-.664-.214a.131.131,0,0,1-.079-.026c-.1-.026-.184,0-.5.214h-.372a4.42,4.42,0,0,1-.586-.052h-.079c-.267-.079-.638-.157-.743-.184v-.114h0a1.652,1.652,0,0,0-.026-.293,6.113,6.113,0,0,0-.1-.691.526.526,0,0,0-.162-.1h-.135l-.052-.1.052-.214a3.127,3.127,0,0,0,.135-.984.474.474,0,0,0-.157-.1c-.1,0-.1-.026-.45.184l-.079-.184v-.057a5.649,5.649,0,0,0-.026-.769.473.473,0,0,0-.157-.1h-.1l.079-.24a2.908,2.908,0,0,0,.267-1.005.472.472,0,0,0-.157-.1.566.566,0,0,0-.293.079V13.57c-.035-.026-.074-.052-.1-.079l-.052-.1a6.384,6.384,0,0,1-.319-.612.22.22,0,0,0-.157-.1h-.157a.248.248,0,0,0-.026-.157.251.251,0,0,0-.136-.1.39.39,0,0,0-.24.052h-.031l.1.214-.1.052-.026-.136c0,.079-.214.555-.319.874a3.117,3.117,0,0,0-.319,1.062.474.474,0,0,0,.157.1c.079,0,.1.026.476-.184a3.983,3.983,0,0,1-.319.345c-.293.293-.5.529-.691.743l.053-.079v-.136a1.427,1.427,0,0,0-.079.267c-.424.45-.529.612-.555.717a.967.967,0,0,1-.079.214c.026-.052.079-.136.1-.136h0v.026h.026s.079.1.157.1a3.563,3.563,0,0,0,1.062-.5c-.184.184-.372.345-.529.529-.529.529-.874.848-1.088,1.088h0s-.157.184-.214.24v-.1s-.079.214-.135.214h.052c-.1.136-.079.184,0,.267,0,0,.026.052.052.052h0v.079h0v-.052h.1l-.052.079a.086.086,0,0,0,.079-.052h0s.4-.184,1.67-.9c.555-.319,1.325-.769,1.513-.848a.171.171,0,0,0,.1-.026.062.062,0,0,0,.052-.026s.052,0,.052.026a.983.983,0,0,0,.079.267l.053-.079a.791.791,0,0,1,.052.319c.184.157-.157-.5,0-.345a1.09,1.09,0,0,0,.079.424c-.184,0-.555.157-4.271,2.256-.9.529-1.936,1.115-2.68,1.512.157-.184.345-.372.5-.555.9-.97,1.316-1.521,1.246-1.644a.469.469,0,0,0-.1-.079h-.079s.184-.052-.026-.079h.267a1,1,0,0,1-.254-.031H390.9a2.17,2.17,0,0,0,.477,0c-.079.052-.293.079-.214.157-.079.026-.184.1-.345.184h-.026c-.214.136-.529.293-.984.555-.319.184-.717.4-.983.555l.079-.293c.184-.769.214-.874.184-.953h.157c.026-.052-.052-.052-.184-.052a.368.368,0,0,0-.1-.079,1.459,1.459,0,0,1,.476-.026c-.157-.079-.079,0-.319-.079.214.136-.848,0-.5.136a.971.971,0,0,0-.214-.079.2.2,0,0,0,0-.24.22.22,0,0,0-.157-.1,3.107,3.107,0,0,0-.717.319h-.052l-.135.079-.1.052a.985.985,0,0,0-.45.052c-.24,0,.052-.026-.1-.079l-.24.052-.214-.052-.157-.1h0a2.091,2.091,0,0,1-.319-.184c-.026,0-.052-.052-.1-.052a.591.591,0,0,0-.345.1l-.1.052a.984.984,0,0,1-.157-.1.2.2,0,0,0-.1-.052.39.39,0,0,0-.24.052h-.052l.052.157h-.1l.136.079h-.053s0,.079.053.1v.1h.135c.1.052.24.157.476.319.214.136.45.319.529.372.079.079.157.079.293.026.052.026.1.079.157.1a3,3,0,0,0,.184.476.251.251,0,0,0,.136.1.653.653,0,0,0,.079.184.22.22,0,0,0,.157.1h.157c.079.079.184.184.345.372s.372.4.4.424a.139.139,0,0,0,.136.079.442.442,0,0,0,.319-.1h0s.267.079.555.157h.052c-.1.184-.079.24,0,.319a.173.173,0,0,0,.14.1.707.707,0,0,0,.267-.052,10.535,10.535,0,0,0,.927.664q0,.136.052.157a.22.22,0,0,0,.157.1.517.517,0,0,0,.214-.026l.319.4c.1.157.24.293.293.372a1.624,1.624,0,0,0-.079.184c0,.026-.026.052-.026.1-.026.1-.052.24-.079.372h0c-.817.953-1.189,1.495-1.115,1.617a.472.472,0,0,0,.157.1c.079,0,.1,0,.4-.136,0,.052.053.026.1,0V25.9c-.052,0-.079.079-.1.136-.529.4-.476.476-.4.612,0,.052.052.079.1.1a.209.209,0,0,0,0,.214h.031c-.079.24-.184.529-.267.743l-.157.424h0c-.157.424-.157.45-.1.529h0c0,.136-.052.24-.052.424l-.079.052c-.013.087-.031.179-.052.267a.409.409,0,0,1-.1.267,2.528,2.528,0,0,0-.135.293,14.275,14.275,0,0,0,1.272-.8c.267-.184.555-.372.817-.529a5.874,5.874,0,0,1,.555-.319c-.24-.052.4-.157.345-.293.079,0,.184-.052.079.052.345-.293.612-.319.8-.586.079,0-.052.1,0,.1,0-.026.1-.1.157-.1s-.026.052-.079.136c.372-.267.345-.4.293-.5a.667.667,0,0,0,.424-.319c.079,0,.24-.052,0,.1.135-.079.848-.5.817-.586.052,0,.184-.136.214-.157l.319-.214a.986.986,0,0,0,.157-.1h0a.428.428,0,0,0,.157.136.517.517,0,0,0,.214-.026c.24.214.293.24.372.267l.052.052c.184.184.4.424.424.45a.139.139,0,0,0,.135.079.372.372,0,0,0,.214-.052h0a1.374,1.374,0,0,1-.026.267,3.38,3.38,0,0,0-.079.984.473.473,0,0,0,.157.1l.953-.45.079-.052h0s-.135.052.052.184c0,.026.1.079.184.1-.214.267-.184.293-.1.4a.22.22,0,0,0,.157.1c.1,0,.1.026.555-.214a.976.976,0,0,1,.24.184c-.053-.079-.079-.157.079-.079a1.438,1.438,0,0,1,.319.267,2.505,2.505,0,0,0,.053.769.22.22,0,0,0,.157.1c.105,0,.105.026.691-.293.24.136.555.319.717.4a.682.682,0,0,0,0,.267.22.22,0,0,0,.157.1h.053a.189.189,0,0,0,.157-.052,1.358,1.358,0,0,0,.345.24c-.052-.1-.079-.24-.135-.372h.026s.157-.214.079-.319c0-.026-.052-.052-.079-.079h0s.136-.214.079-.319c0-.026-.052-.052-.079-.079a2.3,2.3,0,0,0,.1-.817.22.22,0,0,0-.157-.1c-.079,0-.1,0-.4.136-.026-.079-.026-.1-.053-.1l-.044-.066a3.455,3.455,0,0,0-.184-.5.752.752,0,0,0-.157-.214c0-.1.026-.026.053-.026l-.053-.184c.345-.586.319-.612.267-.717a.22.22,0,0,0-.157-.1.566.566,0,0,0-.293.079c.053-.157.079-.319.136-.45V25.8a.689.689,0,0,0,.079-.184,1.509,1.509,0,0,0,.1-.664.22.22,0,0,0-.157-.1,2.225,2.225,0,0,0-.586.24,2.371,2.371,0,0,0-.184-.45s.026,0,.053.052a4.254,4.254,0,0,1-.293-1.036c0-.079-.052-.157-.052-.24v-.1h-.052v-.052a.906.906,0,0,0,.052-.214h0s.136-.136.1-.214l.555-.4h0c.953-.664,1.936-1.272,2.837-1.884h-.157l.319-.24c.1-.026.157,0-.053.136.079,0,.157-.079.24-.157.052-.079.135-.184.135-.184.319-.184.319-.157.214-.052h0l-.109.022Zm.927-.664-.136.079C404.833,19.34,404.811,19.371,404.811,19.4Zm-13.953,2.968h0s-.079-.136-.157-.136h-.079v-.136h.079a.111.111,0,0,0,.052.1.178.178,0,0,0,.157.1c.184.052.345,0,3.423-1.805.345-.184.717-.424,1.062-.612-.4.293-.8.612-1.141.9-1.434,1.141-2.125,1.67-2.439,1.963h0a1.645,1.645,0,0,0-.157-.1s-.052-.052-.079-.052l-.052-.052s-.214-.319-.267-.267a.414.414,0,0,1-.136.45c-.1-.136-.184-.267-.24-.319h0l-.022-.044ZM396.8,17.8a.474.474,0,0,0,.157.1h.1a.786.786,0,0,1,.026.319c.1.267.052-.1.157.157v.079l.052.052h0a.3.3,0,0,0-.135-.052c-.157-.026-.214-.052-3.13,1.644-.4.24-.817.476-1.246.717.4-.319.848-.638,1.246-.927,1.617-1.193,2.387-1.805,2.758-2.12h0V17.8Zm2.684,4.616v-.079l.45-.293c-.24.184.052.136-.372.372l.136-.214-.24.184h0l.022.026Zm-.769.529h.079c-.612.319-1.67.9-3.606,2.015.743-.45,1.512-.927,2.229-1.355.743-.45,1.408-.848,1.989-1.224l-.079.052-.079.052-.1.079s-.267.184-.476.319v.052h.052Zm.476,2.946a.473.473,0,0,0,.157.1h.1c-.24.136-.5.293-.848.476l-.371.214a3.434,3.434,0,0,0,.267-.293c.267-.267.45-.476.638-.664,0,.136.026.136.052.157h0Zm-1.722.476s.053.079,0,.079Zm.1,0a.472.472,0,0,0-.1-.052v-.079c.214-.1.555-.319,1.141-.664l.079-.052c-.184.184-.371.4-.529.555-.184.184-.345.372-.476.5-.079-.1-.1-.157-.1-.214h0Zm-1.167-1.46a.131.131,0,0,0-.026-.079h0c.638-.4,1.246-.743,1.775-1.036h0a.2.2,0,0,0,.184,0h0c-.184.1-.476.293-.953.555-.319.184-.691.4-.927.529h0l-.053.026Zm2.518-1.062a.131.131,0,0,0-.026-.079c0-.026-.052-.052-.079-.079h0l.079-.052.053.1v.079h-.026v.026Zm-.083.267c-.135.424-.135.45-.079.529a.177.177,0,0,0,.157.1h.052v.079c-.157.1-.372.214-.612.372-.157.1-.345.214-.529.319.092-.127.188-.254.293-.372.424-.555.638-.848.743-1.005h0Zm.555,2.492a1.967,1.967,0,0,0-.665.293l.1-.052c.214-.136.477-.267.691-.4l-.157.157Zm.476,1.062a.247.247,0,0,1-.079-.052l.136-.079-.079.136h.022Zm.136-.7s-.345.184-.665.372a4.652,4.652,0,0,1,.345-.372l.241-.267s.052.157.079.267Zm-2.785-4.507c-1.434.817-3.051,1.753-4.35,2.492,1.005-.638,2.177-1.377,3.235-2.041a61.116,61.116,0,0,0,5.438-3.554h0a1.1,1.1,0,0,0,.477-.184h0s.079.267.1.4v.052c-1.062.586-2.653,1.486-4.961,2.837h.052Zm.157-3.711h0v.184a.11.11,0,0,0-.052-.1C397.327,18.807,397.379,18.781,397.379,18.754Zm-.079.1c.052.136.1.293.157.424h.664c-.612.345-1.46.817-2.706,1.539-.612.345-1.272.743-1.884,1.088.319-.267.691-.529,1.005-.8a34.131,34.131,0,0,0,2.758-2.26h0Zm3.209.323h-.052a1.063,1.063,0,0,1,.372-.052c-.586.293-1.7.927-3.873,2.2-.953.555-2.068,1.193-3.025,1.753.45-.293.927-.612,1.377-.927,2.575-1.722,3.711-2.518,4.192-2.916a6.432,6.432,0,0,0,1.005-.052ZM395.683,21.2c.424-.24.874-.5,1.324-.769-.664.45-1.355.927-1.989,1.355-1.67,1.115-2.6,1.753-3.13,2.146v-.052h-.026l.157-.1s0-.026-.052-.052v-.052h.052s.1-.1.1-.184c.214-.267.293-.372.267-.45.476-.24,1.408-.769,3.265-1.858h0l.022.026Zm-4.03,2.859h0l-.052.052v-.052Zm.157.638a53.657,53.657,0,0,0,4.983-2.758c-.319.214-.638.4-.953.612-1.989,1.246-3.314,2.094-4.218,2.653.24-.372.214-.424.157-.5h.031Zm-.555-.136a.144.144,0,0,0,.053.1v.052l-.1.079v-.1l.052-.1h0Zm-.691,2.758h0l.079-.214s.079.026.079.052v-.24s.026-.157.026-.184c.052,0,.1-.052.157-.079a.356.356,0,0,1,.026-.136c.874-.424,2.68-1.434,6.553-3.685,1.246-.717,2.653-1.512,3.847-2.2-1.272.8-2.784,1.722-4.166,2.544-3.947,2.413-5.783,3.554-6.631,4.135h.031Zm9.787-5.512a1.589,1.589,0,0,1-.136.157l-.052-.052.184-.1h0Zm-4.271,3.659s-.079-.079-.135-.079h-.052l.135-.079v.052a.177.177,0,0,0,.157.1c.136.026.157.026,1.434-.717l.345-.184-.214.293a11.333,11.333,0,0,0-.874,1.224c-.135-.079-.293-.136-.45-.24-.184-.157.079,0,0-.1l-.157-.052-.214-.214h0l.026-.009Zm6.872-6.365.1.052h.079l.052-.052h.026l-.586.293-.048-.175a1.384,1.384,0,0,1,.345-.136h0l.022.022Zm-4.983-.612-.052-.052Zm-2.229-5.56h0l-.079.052.052-.1v.052Zm-.319.717c.1-.293.184-.5.24-.664l.052.079s-.052.293-.136.293a.676.676,0,0,1,.136.372l-.24.136-.184.1.135-.319h0Zm-.079,1.482c.267-.267.45-.5.612-.664,0,.026.026.052.053.079,0,.1-.079-.079-.079,0a.791.791,0,0,1,.214.4c-.1,0-.267.1-1.115.586h-.052l.372-.372h0v-.026Zm-.664,1.989-.262.157.372-.372c.717-.717,1.141-1.115,1.355-1.377h.184a3.1,3.1,0,0,1,.135.476v.184h0c-.135-.026-.157-.052-1.775.9h0l-.009.026Zm-1.779,2.7c.717-.4,1.486-.848,2.177-1.246-.4.319-.848.638-1.246.927a18.468,18.468,0,0,0-3.025,2.413.172.172,0,0,1-.079-.079l.079.079v.052a.311.311,0,0,1-.135-.026v-.079a2.661,2.661,0,0,0-.1-.717c.529-.293,1.3-.717,2.334-1.325h0Zm-2.706,0,.372-.214c-.157.157-.293.319-.424.476-.424.45-.717.769-.9.984H389.1V21.01c-.214-.136-.345-.267-.5-.372.135,0,.214,0,1.617-.817h0l-.022-.009Zm-2.36.214c-.184-.24.293.184.157-.026a.4.4,0,0,1-.24-.079l-.184-.079h0l.45-.267c.184-.109.4-.24.612-.345l-.079.345c-.157.717-.184.817-.157.9-.052-.052-.136-.079-.184-.136,0-.052-.214-.214-.079-.184a.52.52,0,0,1-.267-.136h-.031Zm-.135.114c-.1-.031-.2-.066-.293-.1l-.1-.052.214-.1s.372.214.5.293c-.052.052-.157.052-.319,0h0v-.026Zm.8-1.377c-.157.079-.4.214-.717.4-.24.136-.529.319-.769.424h0l-.079-.232s.319-.157.743-.4l.214-.136h.053a1.89,1.89,0,0,1,.293-.157h.157l.079.079a.767.767,0,0,0-.345,0,2.653,2.653,0,0,1,.372.026h0Zm-.45,2.041h0l-.053-.052h0l-.052-.052.052.052.1.052Zm4.983,6.155a.815.815,0,0,1,.241-.136A.508.508,0,0,1,393.025,26.959Zm.5,0s-.026-.026,0-.1l-.052.052c-.157.052-.136-.026-.052-.136l.184-.052s.1-.214.052-.267l-.1.1V26.5l-.1.1h-.157l-.555.293a6.416,6.416,0,0,1-1.062,1.088c.1-.157-.052-.136-.1-.214.214,0,.424-.319.717-.5-.157.1-.157.026-.136,0l-.476.424a1.365,1.365,0,0,0-.319.1c.1,0,0,.1-.1.214a1.078,1.078,0,0,1-.214.157l-.052.052h-.026l-.052.079v-.074s0-.026.052-.052a.416.416,0,0,1,.157-.1.117.117,0,0,0-.1.052h-.052v.052h-.026a.393.393,0,0,1-.052.1.248.248,0,0,1-.214.184c.052-.026.079-.026.079-.079a.594.594,0,0,1-.214.157c-.052.026-.079,0-.052-.026h.026a3.583,3.583,0,0,0-.45.267V28.6l.184-.1s.267-.157.319-.184h.026s.157-.214.079-.319l-.053-.052c.45-.24,1.272-.691,2.837-1.565h.026v.052h0a.219.219,0,0,1,.1.026h.052a.219.219,0,0,0,.1-.026,1.074,1.074,0,0,1-.24.267,2.366,2.366,0,0,0,.24-.052l-.345.293h0l.135.022Z" transform="translate(-383.194 -10.672)" fill="#f2a5ba"/>
      <path id="_パス_1442" d="M405.08,44.643h.052Q405.132,44.617,405.08,44.643Z" transform="translate(-394.733 -28.81)" fill="#f2a5ba"/>
      <path id="_パス_1444" d="M393.66,26.34h-.24a2.361,2.361,0,0,1,.24.052S393.608,26.366,393.66,26.34Z" transform="translate(-388.17 -18.515)" fill="#f2a5ba"/>
      <path id="_パス_1446" d="M388.974,26.5c.157,0,0-.079.1-.052.052-.026-.184,0-.319,0-.136.026-.136.052.184.026h0l.026.026Z" transform="translate(-385.499 -18.568)" fill="#f2a5ba"/>
      <path id="_パス_1448" d="M410.176,12.555l-.136-.1a.727.727,0,0,1,.052.184l.079-.079h0Z" transform="translate(-397.525 -10.697)" fill="#f2a5ba"/>
      <path id="_パス_1450" d="M398.642,19.42l-.052.026h.026Z" transform="translate(-391.08 -14.62)" fill="#f2a5ba"/>
      <path id="_パス_1451" d="M398.487,19.319h.079s-.1-.052-.079-.079C398.408,19.319,398.539,19.266,398.487,19.319Z" transform="translate(-391.007 -14.519)" fill="#f2a5ba"/>
      <path id="_パス_1454" d="M398.77,18.682h.052a.111.111,0,0,1,.026-.052C398.823,18.63,398.8,18.63,398.77,18.682Z" transform="translate(-391.181 -14.176)" fill="#f2a5ba"/>
      <path id="_パス_1457" d="M398.642,18.88s0,.026-.052.052C398.616,18.932,398.695,18.932,398.642,18.88Z" transform="translate(-391.08 -14.316)" fill="#f2a5ba"/>
      <path id="_パス_1459" d="M398.58,18.5h.026s0-.026.052-.052a.248.248,0,0,0-.079.052Z" transform="translate(-391.074 -14.074)" fill="#f2a5ba"/>
      <path id="_長方形_143" d="M398.35,18.983l.1-.013h0Z" transform="translate(-390.945 -14.367)" fill="#f2a5ba"/>
      <path id="_パス_1461" d="M398.58,18.3h.026l.052-.026-.079.026Z" transform="translate(-391.074 -13.973)" fill="#f2a5ba"/>
      <path id="_パス_1462" d="M398.58,18.142s.052-.052.079-.052h-.079Z" transform="translate(-391.074 -13.872)" fill="#f2a5ba"/>
      <path id="_パス_1464" d="M398.522,18.39l-.052.052h0a.05.05,0,0,0,.052-.052Z" transform="translate(-391.013 -14.041)" fill="#f2a5ba"/>
      <path id="_パス_1465" d="M398.426,18.476h0l-.026-.026Z" transform="translate(-390.973 -14.074)" fill="#f2a5ba"/>
      <path id="_パス_1467" d="M398.1,18.862a.2.2,0,0,1,.135-.052A.188.188,0,0,0,398.1,18.862Z" transform="translate(-390.804 -14.277)" fill="#f2a5ba"/>
      <path id="_パス_1469" d="M398.28,18.356s.052,0,.052-.026h-.052v.052h0Z" transform="translate(-390.906 -14.007)" fill="#f2a5ba"/>
      <path id="_パス_1476" d="M397.448,18.161a.113.113,0,0,1,.026-.052c-.052.052-.1,0-.214.079h.052s-.052,0-.052.026c.052-.026.1-.026.079,0a1.1,1.1,0,0,0,.319-.184h-.079s-.053.079-.1.079h0l-.022.052Z" transform="translate(-390.331 -13.838)" fill="#f2a5ba"/>
      <path id="_パス_1477" d="M398.16,18.09v.052h0l.052-.052Z" transform="translate(-390.838 -13.872)" fill="#f2a5ba"/>
      <path id="_パス_1478" d="M397.976,18.21H397.9c-.052.026-.1,0-.157.079h.083c-.026-.026.026,0,.052-.052h.052l.052-.026Z" transform="translate(-390.602 -13.939)" fill="#f2a5ba"/>
      <path id="_パス_1479" d="M397.8,19.026l.026-.026Z" transform="translate(-390.635 -14.384)" fill="#f2a5ba"/>
      <path id="_パス_1480" d="M397.952,18.75a1.021,1.021,0,0,0-.136.1h.026a.113.113,0,0,0-.052.026.131.131,0,0,0,.079-.026h0l.079-.079h0V18.75Z" transform="translate(-390.63 -14.243)" fill="#f2a5ba"/>
      <path id="_パス_1482" d="M398.152,17.986l.052-.026-.1.026Z" transform="translate(-390.804 -13.798)" fill="#f2a5ba"/>
      <path id="_パス_1483" d="M398.179,17.9h-.052l-.026.026Z" transform="translate(-390.804 -13.765)" fill="#f2a5ba"/>
      <path id="_パス_1485" d="M396.82,15.718l.052-.048h-.052Z" transform="translate(-390.084 -12.51)" fill="#f2a5ba"/>
      <path id="_パス_1488" d="M397.5,16.982V16.93C397.47,16.956,397.418,17.009,397.5,16.982Z" transform="translate(-390.441 -13.219)" fill="#f2a5ba"/>
      <path id="_パス_1490" d="M397.55,16.947s.026-.052,0-.026h0s.026.013.026.026Z" transform="translate(-390.495 -13.209)" fill="#f2a5ba"/>
      <path id="_パス_1497" d="M394.934,15.885h.079l.157-.1-.24.1Z" transform="translate(-389.02 -12.571)" fill="#f2a5ba"/>
      <path id="_パス_1498" d="M390.356,9.177l-.052.052q.079-.039.079,0h0s.026.1.053.184l.057-.052v.052c.1-.052,0-.026.079-.1-.1.1.079.079-.052.214,0,0,.052-.052.079-.052h0a.249.249,0,0,1-.052.079h0s.052.026.052.052h0a.3.3,0,0,0,.184.079h0s0,.026.052.052h.052c-.052,0-.052.079-.1.079.079,0,.052,0,.184-.052l-.052.052s.079-.026.1,0c-.052,0-.052.052-.135.079-.079.1.157,0,0,.1.157-.079.052-.079.079-.1.026-.052.1-.052.1-.026,0,0-.157.136-.1.184h0s.052,0,0,.052c.079-.052,0,0,.1-.052h-.053s.184-.079.136,0h-.074c0,.026.026,0,0,.026-.1.079-.052,0-.157,0-.026.026.1,0,0,.052.157-.079,0,.052.136,0l-.053.052h-.026s-.026.1,0,.1c-.026-.026.079-.052.1-.1.1,0-.136.136-.079.157a.051.051,0,0,1,.053-.052h0a.09.09,0,0,1-.057.079c.026.026.053-.052.105-.052-.079.052.052,0,.079,0l-.052.052s.136-.079.1,0l-.1.052h.026l-.079.052s.052,0,.052.026c.052-.026.1-.079.136-.052-.026.026-.052.026-.026.052-.053,0-.1.052-.053,0h-.052v.079h.135a.4.4,0,0,1-.135.052h.079s-.052.052-.079.052c0,.026.135,0,.1.026h.026c0,.026-.052.1.052.079l-.079.079s.1-.1.157-.079c.052,0-.079.052-.1.079.052,0,.157-.052.1,0h0l-.052.052a.283.283,0,0,0-.157.052c.184-.1.079.052.267-.026h.079s-.026.052-.052.052h.026l.052.052h.1s-.1.052-.1,0c-.184.136.052,0,0,.1h-.026l-.1.1c.026,0,.135-.136.214-.136,0,0,0,.026.026,0-.079.026-.052.052-.026.052l-.079.052a.356.356,0,0,0,.135-.026l-.114.109c0,.026.105-.079.136-.052,0,.052.026.052.1.052,0,.026-.052,0-.079.052h.052a.3.3,0,0,1,.135-.052c.1-.052-.1.136,0,.079a.086.086,0,0,0-.079.052h.184l-.052.052a.74.74,0,0,1,.24-.079l.052-.052h.079a.248.248,0,0,0-.079.052h0a.3.3,0,0,1-.135.052l.052-.052s-.135.052-.184.079h.026l-.1.079h.052v.052a.791.791,0,0,1,.319-.052c-.079,0-.135.052-.214.1.079-.052-.052,0-.052-.052,0,0-.052.026-.052.052h.1a.172.172,0,0,0-.079.079c.136-.079.1,0,.157,0-.052,0-.1.052-.1,0-.079.079.184-.052.1,0h0c.052,0,.026.052,0,.052h0a.135.135,0,0,0,.184.052h0l-.157.079.45-.136a2.142,2.142,0,0,1-.424.184.028.028,0,0,0,.026.026,1.322,1.322,0,0,1,.157-.079c-.1.079-.052.052-.135.136,0,0,.184-.1.184-.079a1.649,1.649,0,0,1-.184.079l.184-.052s-.135.079-.184.1c.026,0,0,.026.026.026h.026s.24-.1.267-.052c-.026,0-.214.079-.214.136a3.349,3.349,0,0,1,.5-.157h0s-.424.157-.529.184c-.026.026-.052.026-.026.052-.026.026-.079,0-.079,0v.052a.333.333,0,0,0,.184-.052h-.135s.293-.1.293-.052a1.94,1.94,0,0,1-.214.1h0s.135,0,.079.052c0,0-.1.079-.052.052a3.067,3.067,0,0,1,.5-.267.572.572,0,0,1-.135.136c-.079.052-.214.079-.267.136h.079s-.079.026-.052.052c.1-.052,0,.052.079-.026.026,0,0,.026,0,.052a.938.938,0,0,1,.267-.079.23.23,0,0,0-.061.052v.136a.1.1,0,0,1-.079.052h.052s-.026,0-.1.052c.052-.026.1,0,.136,0,.079-.052,0-.052-.053-.052a.594.594,0,0,1,.345-.079c.052,0-.079.052-.052.052,0,.079.24-.052.184.026a.751.751,0,0,1-.214.1c-.052,0,0-.052,0-.079h0s-.052.026-.052,0c-.052.052.052.1,0,.184a.1.1,0,0,0,.079-.026h0s.105-.026.105-.052h.1l-.079.052s.052-.052,0-.026c.052,0-.079.1.026.052l.052-.052s.157-.026.135,0c.079-.052,0,0,.079-.079-.1.079-.026-.052-.135.026.1-.079.026-.052.1-.136-.026,0-.053.026-.053,0h-.026v.052H393.2a.112.112,0,0,0,.052-.026H393.2s.079-.079.135-.079h0s.026-.079,0-.079h-.079s-.157-.052-.053-.157c0,0-.052,0-.052-.026h.052s0-.1-.026-.079c.135-.1,0-.1,0-.136h-.214v-.079h0c.1-.1-.157-.026-.079-.136h0v-.052a.086.086,0,0,0-.079.052h-.052s-.052,0,.052-.079a.433.433,0,0,0-.184,0h0V11.8l.079-.052h-.135a.724.724,0,0,0,.135-.052h-.135s-.1,0-.052-.052c.079-.079-.052-.136,0-.24-.157.1.052-.079-.079,0,.026,0,.052-.052.079-.052-.052,0,.026-.079-.079-.052a.1.1,0,0,0,.079-.026h.052c-.026-.026-.157.026-.267.079.052-.052.026-.052-.052,0,.026,0,.052-.052.079-.052,0,0,0-.1-.079-.052h0a.076.076,0,0,0-.026-.052h-.052s-.053,0,0-.1h-.061c-.135.1.052-.052,0-.052h-.026a1.9,1.9,0,0,0,.184-.136h.026a.182.182,0,0,1-.136,0c.052-.026.136-.052.1-.079.026-.026-.184.026-.1-.052-.026,0-.052.052-.1.052,0,0,.1-.136,0-.079h0a.146.146,0,0,0-.157,0c.214-.136-.184-.026.026-.157l-.052-.052h0a.182.182,0,0,0-.135,0,.062.062,0,0,0,.052-.026q0-.079-.135-.052l.053-.052s.052-.136-.053-.136h.026s.1-.24-.157-.1h-.07a.405.405,0,0,0-.136.1s.052-.079.079-.079h0a.16.16,0,0,1,.079-.136c-.052-.079-.052-.214-.1-.293l-.079.079h0l.079-.079c.052-.052-.079,0-.079,0,0-.052.136-.052.1-.079h-.026s-.079.052-.1,0c0-.026.052-.052.052-.052h-.079l-.079.079c.1-.1-.053-.157,0-.184a.152.152,0,0,1-.1-.026s-.079.079-.1.052c.184-.136.026-.079.136-.214-.052.079-.079-.052-.157.079,0-.026.052-.052.079-.1-.1,0-.026-.136-.1-.157l-.079.079.079-.1s-.136.1-.079,0c0,0-.026.052-.053.052,0-.079-.079-.136-.135-.157s-.1-.079-.079-.214c0,.052-.026.052-.052.026l-.079.079v-.1s0-.026-.1.026h0a3.7,3.7,0,0,1-.267.319c.1-.079-.079.184.079.079h0l.24-.079Zm1.359,1.937h-.026C391.768,11.087,391.742,11.114,391.716,11.114Z" transform="translate(-386.273 -8.648)" fill="#f2a5ba"/>
      <path id="_パス_1502" d="M397.655,18.011s-.026.026,0,.026h0S397.708,17.984,397.655,18.011Z" transform="translate(-390.547 -13.823)" fill="#f2a5ba"/>
      <path id="_パス_1504" d="M397.848,17.515s.079-.026.052,0C397.979,17.489,397.8,17.515,397.848,17.515Z" transform="translate(-390.657 -13.541)" fill="#f2a5ba"/>
      <path id="_パス_1505" d="M397.25,18.226l.079-.026h-.079Z" transform="translate(-390.326 -13.934)" fill="#f2a5ba"/>
      <path id="_パス_1508" d="M396.855,17.48s-.026,0,0,.026h.026Z" transform="translate(-390.097 -13.528)" fill="#f2a5ba"/>
      <path id="_パス_1509" d="M396.606,17.806l.052-.026-.079.052h.026Z" transform="translate(-389.949 -13.697)" fill="#f2a5ba"/>
      <path id="_パス_1510" d="M396.446,17.72s-.079,0-.052.026C396.393,17.746,396.446,17.746,396.446,17.72Z" transform="translate(-389.841 -13.663)" fill="#f2a5ba"/>
      <path id="_パス_1511" d="M396.28,16.769h.026l.136-.079-.157.079h0Z" transform="translate(-389.78 -13.084)" fill="#f2a5ba"/>
      <path id="_パス_1512" d="M395.3,16.51s-.026,0-.1.052c0,.052.079-.026.053,0,.026,0,0-.026.052-.052Z" transform="translate(-389.172 -12.982)" fill="#f2a5ba"/>
      <path id="_パス_1513" d="M391.446,8.44l-.026.052h.026Z" transform="translate(-387.044 -8.44)" fill="#f2a5ba"/>
      <path id="_パス_1514" d="M391.206,8.579l.052-.079-.079.052h0Z" transform="translate(-386.909 -8.474)" fill="#f2a5ba"/>
      <path id="_パス_1515" d="M393.543,14.33l-.053.052h0V14.33Z" transform="translate(-388.209 -11.755)" fill="#f2a5ba"/>
      <path id="_パス_1516" d="M393.37,13.806h0l.079-.026Z" transform="translate(-388.142 -11.446)" fill="#f2a5ba"/>
      <path id="_パス_1520" d="M430,12.132h0V12.08s-.052.079-.105.079c.053.079.053-.026.079,0h0Z" transform="translate(-408.698 -10.489)" fill="#f2a5ba"/>
      <path id="_パス_1523" d="M429.366,11.8s-.026-.013-.026-.026a.1.1,0,0,0,.026.079Z" transform="translate(-408.388 -10.314)" fill="#f2a5ba"/>
      <path id="_パス_1526" d="M429.583,12.054s0-.1-.053-.052a.051.051,0,0,1,.053.052Z" transform="translate(-408.495 -10.436)" fill="#f2a5ba"/>
      <path id="_パス_1528" d="M429.152,11.952s-.026,0-.052-.052a.25.25,0,0,0,.052.079h0Z" transform="translate(-408.253 -10.388)" fill="#f2a5ba"/>
      <path id="_パス_1531" d="M428.86,11.952V11.9l.026.079Z" transform="translate(-408.118 -10.388)" fill="#f2a5ba"/>
      <path id="_パス_1532" d="M428.673,11.979s-.052-.052-.052-.079v.079Z" transform="translate(-407.983 -10.388)" fill="#f2a5ba"/>
      <path id="_パス_1534" d="M429.033,12.132s-.026-.052-.052-.052Z" transform="translate(-408.186 -10.489)" fill="#f2a5ba"/>
      <path id="_パス_1537" d="M429.462,12.386a.2.2,0,0,1-.052-.136A.188.188,0,0,0,429.462,12.386Z" transform="translate(-408.428 -10.585)" fill="#f2a5ba"/>
      <path id="_パス_1538" d="M429.22,12.26v.052h.026A.112.112,0,0,0,429.22,12.26Z" transform="translate(-408.321 -10.59)" fill="#f2a5ba"/>
      <path id="_パス_1539" d="M428.886,12.312s0-.052-.026-.052v.052Z" transform="translate(-408.118 -10.59)" fill="#f2a5ba"/>
      <path id="_パス_1546" d="M428.6,12.787h-.052c.052.052,0,.1.079.214v-.052s0,.052.026.052c-.026-.052-.026-.1,0-.079a.923.923,0,0,0-.21-.293v.079a.178.178,0,0,1,.1.1h0l.052-.026Z" transform="translate(-407.882 -10.798)" fill="#f2a5ba"/>
      <path id="_パス_1547" d="M428.516,12.459h.052a.171.171,0,0,0-.079-.079v.079Z" transform="translate(-407.91 -10.658)" fill="#f2a5ba"/>
      <path id="_パス_1548" d="M428.74,12.406a.2.2,0,0,0,.079.157v-.079c-.026.026,0-.026-.052-.052h0V12.38h0v.052h0Z" transform="translate(-408.05 -10.658)" fill="#f2a5ba"/>
      <path id="_パス_1550" d="M429.4,12.615v.052a.131.131,0,0,0-.026-.079h0s-.079-.052-.079-.079a.451.451,0,0,0,.1.136v-.031Z" transform="translate(-408.36 -10.731)" fill="#f2a5ba"/>
      <path id="_パス_1552" d="M428.422,12.432l-.052-.052.052.079Z" transform="translate(-407.842 -10.658)" fill="#f2a5ba"/>
      <path id="_パス_1553" d="M428.346,12.5l-.026-.052V12.5Z" transform="translate(-407.814 -10.697)" fill="#f2a5ba"/>
      <path id="_パス_1555" d="M425.891,14.273s-.135-.079-.079-.026l.052.052h.026Z" transform="translate(-406.395 -11.698)" fill="#f2a5ba"/>
      <path id="_パス_1556" d="M425.273,16.2h0l-.053-.052V16.2Z" transform="translate(-406.069 -12.78)" fill="#f2a5ba"/>
      <path id="_パス_1557" d="M424.43,18.81l.052.052S424.482,18.836,424.43,18.81Z" transform="translate(-405.624 -14.277)" fill="#f2a5ba"/>
      <path id="_パス_1558" d="M427.332,13.29h-.052C427.306,13.29,427.359,13.342,427.332,13.29Z" transform="translate(-407.229 -11.17)" fill="#f2a5ba"/>
      <path id="_パス_1559" d="M423.58,16.93l.026.026Z" transform="translate(-405.146 -13.219)" fill="#f2a5ba"/>
      <path id="_パス_1565" d="M427.916,12.75l-.026.026h.026Z" transform="translate(-407.572 -10.866)" fill="#f2a5ba"/>
      <path id="_パス_1567" d="M426.537,15.718s-.026-.079,0-.052l-.157-.136.157.184h0Z" transform="translate(-406.722 -12.431)" fill="#f2a5ba"/>
      <path id="_パス_1568" d="M420.169,16.619a.249.249,0,0,1,.079.052h-.136s-.026.052.052.1h0a2.787,2.787,0,0,1,.372.157c-.1-.079.214.026.079-.079.026,0,.026.026.079.052q-.052-.052,0-.052h0a1.254,1.254,0,0,0,.184-.1H420.8l.052-.026c-.079-.079-.026.026-.135-.052.135.052.079-.1.214,0,0,0-.079-.026-.052-.052h.1s0-.052.026-.026h-.026a.207.207,0,0,0,.052-.214h-.026a.1.1,0,0,0,.052-.079h0s-.026-.052,0-.052c.026.026.079,0,.1.052-.026-.079-.026-.052-.135-.157h.052s-.052-.026-.052-.052c.026.052.079.026.135.079.136,0-.052-.136.105-.052-.136-.1-.105,0-.136-.026-.052,0-.079-.079-.052-.079,0,0,.184.079.214.052h0s-.026-.052.052-.026c-.079-.052,0,0-.079-.079v.052s-.136-.136-.052-.136l.052.052c.026,0,0-.026.026,0,.1.079,0,.052.052.136.052,0-.052-.079.052,0-.135-.1.053-.026-.052-.136l.052.052v-.052l.053.052s.079,0,.079-.052c-.026.052-.079-.026-.135-.052-.053-.1.184.079.214,0h.026c0-.052-.079-.026-.1-.079.079.026,0-.026-.026-.079l.052.052s-.136-.1-.052-.1l.079.079h.052v-.052c-.052,0-.1-.079-.1-.1.052,0,.052.052.079,0,.026.026.079.079,0,.052l.053.052.052-.052h0l-.052-.1s.052.026.052.052v-.052c.052.026.1.079.1.1v-.079a.05.05,0,0,1,.052.052h0c.052,0-.052-.1,0-.1h0s.105,0,.052-.1l.1.052s-.135-.052-.135-.136c0-.052.079.052.1.052-.026-.052-.1-.136,0-.1V15.3h.052a.137.137,0,0,0,.1.136c-.157-.136.052-.079-.135-.214h.052s-.1-.079-.052-.1a.131.131,0,0,1,.079.026v-.057h.026a.475.475,0,0,1-.053-.1c.026,0,0,0,.026.026v-.052s.052.079.026.079c.184.1-.026-.052.1,0h0a1.062,1.062,0,0,0,.157.079.5.5,0,0,1-.214-.136s.026,0,0-.026c.053.052.053,0,.053,0l.079.052a.465.465,0,0,1-.079-.1.382.382,0,0,1,.135.079c.026,0-.1-.052-.1-.1.052,0,.026-.052,0-.1.052,0,.052.052.079.052l-.052-.052h.026s-.079-.052-.079-.079c-.079-.079.157.052.079-.052.026,0,.052.052.079.052a.271.271,0,0,0-.079-.157h.079s-.136-.079-.157-.157h-.052v-.1l.052.052h0a.21.21,0,0,1,.1.079h-.052a.8.8,0,0,0,.135.1h.136a.9.9,0,0,1-.157-.293.9.9,0,0,1,.157.157c-.079-.052,0,.052-.026.079,0,0,.052.026.052.052v-.1s0,.026.052.052c-.135-.1-.052-.1-.079-.136.026.026.079.079.052.079.1.052-.105-.157,0-.1h0c0-.052.026-.052.052,0h0a.113.113,0,0,0,.022-.162c-.009-.009-.013-.017-.022-.022l.135.136-.267-.372a1.811,1.811,0,0,1,.319.319s.052,0,.026-.026l-.136-.1c.1.079.053.026.157.079a1.007,1.007,0,0,1-.135-.157l.135.136-.079-.157.136.136c-.026,0,.026,0,0-.052H422.9s-.136-.214-.1-.24a.389.389,0,0,0,.184.157,1.869,1.869,0,0,1-.267-.424h.026s.214.319.267.424c.052,0,.052.052.052,0,.052.026.052.052.026.079h.079a.34.34,0,0,0-.1-.184v.136s-.157-.24-.1-.267c.026,0,.1.136.135.157h0s-.026-.136.052-.079c0,0,.1.079.079.026-.079-.079-.345-.345-.4-.424a.882.882,0,0,1,.157.079c.079.052.136.184.184.24l-.026-.052s.052.079.052.052c-.052-.079.052,0-.052-.079,0-.026.026,0,.052,0a.508.508,0,0,1-.135-.24l.052.052a.183.183,0,0,0,.135-.026.171.171,0,0,1,.079.079v-.061s-.026.026.052.1c-.026-.052,0-.079-.026-.136-.052-.079-.052,0-.052.052a.647.647,0,0,1-.135-.293c0-.052.052.052.052.026.079,0-.079-.214,0-.184a.429.429,0,0,1,.135.184c0,.052-.079,0-.079,0h.052v.057c.052.052.1-.052.184-.026a.1.1,0,0,0-.026-.079h0s0-.079-.052-.079v-.109l.052.079s-.052-.026-.052,0c0-.052.1.079.052-.026l-.052-.052s-.026-.157,0-.136c-.053-.079,0,0-.079-.079.079.1-.079.026.026.136-.079-.079-.052,0-.157-.1,0,0,.052.052,0,.052h0l.026.052c.026.052,0,.079,0,.136,0,0,0-.026-.052-.052v.044s-.079-.079-.079-.136h-.026s-.079,0-.079.026v.079h-.026s0,.136-.136.079c0,0,0,.052-.026.052l-.052-.052s-.079,0-.052.052c-.135-.1-.1.026-.157.052l.052.052a.281.281,0,0,0-.026.079l.053.052s-.079,0-.1.052h0c-.157-.079,0,.157-.1.1h0v.052l-.052-.052h0s0,.026.052.079v.052s0,.052-.079-.026c.026.052,0,.079.079.184h0l-.079-.052.079.1a1.019,1.019,0,0,1-.135-.1c.052.1,0,.052.052.157l-.052-.052s.026.079,0,.052c-.1-.052-.135.1-.267.079.157.1-.079,0,0,.079q-.039,0-.079-.079c0,.052-.1,0,0,.1-.026,0-.052-.052-.052-.052h0a.111.111,0,0,0-.026-.052.755.755,0,0,0,.157.214q-.052,0,0,.052a.081.081,0,0,1-.079-.079s-.1.026-.026.079h0q-.026,0-.052.052h0v.079h0s0,.026-.1,0l.052.052s-.1,0-.079.052h.052a2.2,2.2,0,0,0-.24-.079v-.013c-.1,0,.079.052.079.1-.052-.026-.1-.079-.135-.079-.052,0,.079.157,0,.136a.081.081,0,0,1,.079.079c0,.026-.157-.026-.079.052h-.026s0,.079.052.1c-.214-.136,0,.157-.157.026v.052h-.052a.22.22,0,0,0,.026.1.062.062,0,0,1-.052-.026c-.079,0-.079.026,0,.136l-.079-.052s-.157,0-.1.079h0s-.267,0-.052.157v.079a.686.686,0,0,0,.184.079s-.1,0-.1-.026h0a.2.2,0,0,1-.157-.026c-.052.079-.184.136-.24.214l.1.052h0s-.079,0-.052-.026c-.052,0,0,.052.052.079a.113.113,0,0,1-.1-.079h0s.079.079.052.1c-.026,0-.079-.026-.079,0h-.026l.079.052s-.026.026.079.079c-.157-.052-.135.1-.184.079.052.052,0,.079,0,.1,0,0,.1.052.079.079-.183-.1-.1,0-.24-.052.1.026,0,.079.1.136a.4.4,0,0,1-.135-.052c.026.079-.1.079-.136.157,0,0,.079,0,.105.052l-.136-.052s.136.079.026.052c0,0,.052,0,.052.026-.184.052-.052.293-.345.267q.053,0,.052.026h0l.079-.061Zm2.068-1.753s.026.052,0,.026C422.184,14.84,422.236,14.866,422.236,14.866Z" transform="translate(-403.142 -10.866)" fill="#f2a5ba"/>
      <path id="_パス_1572" d="M428.49,12.96h.052S428.49,12.908,428.49,12.96Z" transform="translate(-407.91 -10.971)" fill="#f2a5ba"/>
      <path id="_パス_1574" d="M427.86,12.837s-.052-.079,0-.052C427.834,12.706,427.86,12.889,427.86,12.837Z" transform="translate(-407.542 -10.874)" fill="#f2a5ba"/>
      <path id="_パス_1575" d="M428.62,13.23l.026.052.026.026-.052-.079Z" transform="translate(-407.983 -11.136)" fill="#f2a5ba"/>
      <rect id="_長方形_151" height="0.026" transform="translate(20.628 2.168)" fill="#f2a5ba"/>
      <path id="_パス_1578" d="M427.89,13.772s.026.026.026,0V13.72h0Z" transform="translate(-407.572 -11.412)" fill="#f2a5ba"/>
      <path id="_パス_1579" d="M428.253,13.952s-.026,0-.052-.052l.052.079h0Z" transform="translate(-407.747 -11.513)" fill="#f2a5ba"/>
      <path id="_パス_1580" d="M428.276,14.192s0-.052-.026-.052C428.25,14.14,428.25,14.219,428.276,14.192Z" transform="translate(-407.775 -11.648)" fill="#f2a5ba"/>
      <path id="_パス_1581" d="M427.179,14.336h0L427.1,14.2Z" transform="translate(-407.127 -11.682)" fill="#f2a5ba"/>
      <path id="_パス_1582" d="M427.213,15.472a.051.051,0,0,1-.052-.052h0c0,.052,0,.026.079.1.052,0-.052-.079,0-.052Z" transform="translate(-407.161 -12.369)" fill="#f2a5ba"/>
      <path id="_パス_1583" d="M420.052,21.67,420,21.7h.052Z" transform="translate(-403.131 -15.887)" fill="#f2a5ba"/>
      <path id="_パス_1584" d="M420.2,21.842l-.079-.052Z" transform="translate(-403.199 -15.954)" fill="#f2a5ba"/>
      <path id="_パス_1586" d="M424.939,18.082h0l-.079-.052Z" transform="translate(-405.867 -13.838)" fill="#f2a5ba"/>
      <path id="_パス_1588" d="M435.29,44.892l.053-.052S435.29,44.919,435.29,44.892Z" transform="translate(-411.737 -28.928)" fill="#f2a5ba"/>
      <path id="_パス_1589" d="M434.9,45.106l.026-.026-.052.052.026-.026Z" transform="translate(-411.501 -29.063)" fill="#f2a5ba"/>
      <path id="_パス_1590" d="M434.849,44.986s-.079.052-.052,0c-.052.1.026,0,0,.026h0l.052-.052h0Z" transform="translate(-411.449 -28.996)" fill="#f2a5ba"/>
      <path id="_パス_1593" d="M434.922,44.42a.252.252,0,0,0-.052.079h.026V44.42Z" transform="translate(-411.501 -28.692)" fill="#f2a5ba"/>
      <path id="_パス_1596" d="M434.8,44.766s.053-.079.026-.052A.062.062,0,0,1,434.8,44.766Z" transform="translate(-411.461 -28.854)" fill="#f2a5ba"/>
      <path id="_パス_1598" d="M434.742,44.472V44.42a.247.247,0,0,1-.052.079h0Z" transform="translate(-411.399 -28.692)" fill="#f2a5ba"/>
      <path id="_パス_1600" d="M434.62,44.859l.079-.079Z" transform="translate(-411.36 -28.895)" fill="#f2a5ba"/>
      <path id="_パス_1601" d="M434.75,44.292l.052-.052Z" transform="translate(-411.433 -28.591)" fill="#f2a5ba"/>
      <path id="_パス_1602" d="M434.69,44.189s.026-.079.052-.079l-.052.052Z" transform="translate(-411.399 -28.517)" fill="#f2a5ba"/>
      <path id="_パス_1607" d="M434.5,44.885a.21.21,0,0,1,.079-.1C434.579,44.806,434.526,44.832,434.5,44.885Z" transform="translate(-411.293 -28.895)" fill="#f2a5ba"/>
      <path id="_パス_1608" d="M434.56,44.712a.112.112,0,0,1,.026-.052h-.026Z" transform="translate(-411.326 -28.827)" fill="#f2a5ba"/>
      <path id="_パス_1616" d="M433.906,44.624v-.052c-.026.079-.079.079-.135.184h0c.026-.052.079-.1.052-.026a2.322,2.322,0,0,0,.184-.319.086.086,0,0,1-.052.079.188.188,0,0,1-.052.136h0Z" transform="translate(-410.882 -28.686)" fill="#f2a5ba"/>
      <path id="_パス_1617" d="M434.346,44.412h0l.026-.052-.052.052Z" transform="translate(-411.191 -28.658)" fill="#f2a5ba"/>
      <path id="_パス_1618" d="M434.279,44.551a.168.168,0,0,1,.026-.079h0V44.42h-.026c-.026.052-.052.079-.079.136,0,0,.026-.052.052-.052h0Z" transform="translate(-411.124 -28.692)" fill="#f2a5ba"/>
      <path id="_パス_1619" d="M434.365,44.832a1.277,1.277,0,0,0-.079.136h-.026a.332.332,0,0,0,.052-.083h0a.4.4,0,0,1,.052-.1h0Z" transform="translate(-411.157 -28.895)" fill="#f2a5ba"/>
      <path id="_パス_1620" d="M434.26,44.926v.052h0a.131.131,0,0,1,.026-.079h-.026Z" transform="translate(-411.157 -28.962)" fill="#f2a5ba"/>
      <path id="_パス_1621" d="M434.346,44.319l.052-.079-.079.079Z" transform="translate(-411.191 -28.591)" fill="#f2a5ba"/>
      <path id="_パス_1622" d="M434.32,44.316h0l.026-.026Z" transform="translate(-411.191 -28.619)" fill="#f2a5ba"/>
      <path id="_パス_1624" d="M433.05,43.631s.052-.136,0-.079V43.6h0Z" transform="translate(-410.476 -28.196)" fill="#f2a5ba"/>
      <path id="_パス_1627" d="M433.755,44.1V44.05C433.755,44.076,433.729,44.129,433.755,44.1Z" transform="translate(-410.867 -28.484)" fill="#f2a5ba"/>
      <path id="_パス_1635" d="M431.944,44.82l.052-.052.079-.157-.135.214h0Z" transform="translate(-409.852 -28.799)" fill="#f2a5ba"/>
      <path id="_パス_1636" d="M430.75,43.249s.079-.079.079-.052l-.052.079v-.026c.026-.026-.052.136.026,0V43.2a.82.82,0,0,1,.1-.079c.053-.079,0,0,.026-.079-.052.136-.026,0-.079.1.052-.1,0-.052.052-.157,0,.026,0,.052-.026.026h0v.079c-.035.026-.074.052-.1.079a.062.062,0,0,1,.026-.052v.052a.311.311,0,0,1,.026-.136h0v-.048H430.8s-.1.079-.052-.026h-.026v-.052h0c.079-.136-.026-.052-.026-.079v.079h-.1v.052l-.053-.052h0c.053-.157-.1.079-.079-.026h0v-.048h0s0,.026-.053.079h-.026s-.026.052,0-.052c-.026.052-.052,0-.1.136h0a.356.356,0,0,1,.026-.136l-.1.1v-.057h0c.026-.1-.079-.052-.052-.157-.079.157,0-.079-.053.052,0-.026,0-.052.053-.079-.026.026,0-.079-.053,0,0-.026.026-.052.053-.079h0a.112.112,0,0,1,.026-.052,1.355,1.355,0,0,0-.136.214q0-.052-.026,0c0-.026,0-.079.052-.079,0,0,0-.079-.052,0h-.026s0,.026-.052.052h0s-.026,0,0-.079v.079c-.105.136,0-.1-.052-.052v.052s.052-.214.052-.24V42.51c0-.1-.052.079-.079.1,0-.052.052-.1.052-.136,0-.052-.1.136-.079.052a.11.11,0,0,1-.052.1s0-.157-.026-.052h0s-.052,0-.079.079c.079-.24-.1.079,0-.136h0a.086.086,0,0,0-.079.052v-.048q0-.052-.079.052v-.079s0-.136-.026-.052h0s0-.24-.1,0l-.052.052a.517.517,0,0,0-.052.157v-.109h0v-.136c-.052,0-.079-.1-.136-.136v.1h-.052s0-.1.026-.079c0-.052-.026.052-.052.079a.366.366,0,0,1,.052-.136h0s-.026.1-.052.1v-.07h0v.052s-.026,0-.052.079c.026-.157-.079-.079-.052-.136-.026.052-.052.052-.052.052s0,.1-.026.1c.053-.184,0-.079,0-.24,0,.1-.052,0-.079.157v-.136c-.052.079-.052-.052-.1-.052a.219.219,0,0,1-.026.1v-.136s-.026.157,0,.052v.052c-.052-.136-.184.079-.214-.184v.052s-.052,0-.052.1h0s-.026.24-.052.372c.026-.136,0,.184.052,0v.092c0-.052,0-.079.026-.052h0a.21.21,0,0,0,.079.1V42.7c.026-.1,0,0,0-.136,0,.136.052,0,.026.184,0,0,0-.079.026-.079h0v.1h.026a.16.16,0,0,0,.136-.079h.052l.026-.026a.171.171,0,0,1-.026.1c.053-.052.026-.052.079-.157v.057s0-.079.026-.079a.143.143,0,0,1-.052.136c0,.136.079-.1.052.079.053-.136,0-.079,0-.1,0-.052.053-.1.053-.079,0,0-.053.184,0,.184h0c.026-.079,0,0,.052-.1h-.026s.079-.136.079-.052a.131.131,0,0,1-.026.079h0c-.026.1-.026,0-.079.1,0,.052.052-.079,0,.052.052-.157,0,0,.079-.079v.079h0v.052s-.026.079,0,.026a.356.356,0,0,1,.026-.136c.052-.079-.052.184,0,.157h0c.026,0,0-.079.052-.1,0,.079,0-.026.052-.052v.079s.026-.136.026-.079l-.052.079h0v.052h0a.365.365,0,0,1,.052-.136c0,.052-.026.052,0,.052,0,.052-.052.1-.026.026v.052h0l.053-.079s0,.052-.026.052v-.052a.311.311,0,0,1-.026.136l.053-.052v.079c0,.026.079-.1.079-.052h0s0,.052.052,0v.1s0-.136.053-.157c.026,0-.026.079-.026.1.026-.052.079-.136.079-.052h0v.052a.424.424,0,0,0-.079.136c.079-.184.052,0,.136-.184v.052h0s.079-.136.079-.079V43h.052s.052-.026.052-.052v.079c-.079.184.026-.052,0,.079h0a.477.477,0,0,1-.026.157.669.669,0,0,1,.079-.214h0c-.026.079,0,.052,0,.052v-.031a.188.188,0,0,1-.052.136.4.4,0,0,1,.052-.136c0,.052,0,0,.079-.026,0,.026-.026.052-.026.079l.052-.079h0s.053-.052.053-.079c.052-.1-.053.157,0,.052a.249.249,0,0,1-.053.079.511.511,0,0,0,.105-.136v.052a1.933,1.933,0,0,1,.1-.214V42.72h.079l-.053.052h0l-.052.1v-.052l-.079.157h0l-.052.079h0l.184-.214a1.944,1.944,0,0,0-.1.214c.026-.079-.052.026-.052,0,0,0,0,.052-.026.052l.079-.079a.131.131,0,0,1-.026.079c.052-.136.052-.079.1-.136a.087.087,0,0,1-.052.079c-.026.1.1-.157.079-.052h0c.026-.026.026,0,0,.052h0s.052.026.136-.079l-.079.157.24-.372a2.924,2.924,0,0,1-.214.4h0s.052-.157.079-.157c-.052.1,0,.052-.052.157,0,0,.079-.184.1-.157l-.079.157.1-.136a.683.683,0,0,0-.079.184c0-.026,0,0,.026,0h0s.135-.24.157-.214c0,.026-.1.184-.1.214.052-.079.214-.372.267-.424h0s-.214.345-.267.424v.052a.05.05,0,0,1-.052.052h0v.052a1.167,1.167,0,0,0,.135-.157l-.079.079s.157-.24.157-.214a.691.691,0,0,1-.1.184c0-.026.052-.052.052-.026v.052h0s-.052.136,0,.079c.052-.1.214-.424.267-.5a.948.948,0,0,1-.052.157,1.478,1.478,0,0,1-.157.267s.026-.052.052-.052c0,0-.052.079-.026.079l.052-.079h0a1.935,1.935,0,0,1,.157-.214V43.1s-.026.052,0,.079a.086.086,0,0,1-.052.079v.052c.026-.052.052-.052.079-.079.052-.079,0,0-.026,0a1.115,1.115,0,0,1,.184-.267c.026,0-.026.079,0,.052,0,.026.135-.184.135-.079a1.255,1.255,0,0,1-.1.184c-.026,0,0-.052,0-.052h0s-.026.079-.026.052c-.026.079.052.052.026.1a.244.244,0,0,1,.052-.079h0a.468.468,0,0,0,.079-.1h0l-.306.17Z" transform="translate(-407.831 -27.364)" fill="#f2a5ba"/>
      <path id="_パス_1642" d="M434.064,44.206s.052-.079.026-.052C434.142,44.1,434.011,44.233,434.064,44.206Z" transform="translate(-411.04 -28.535)" fill="#f2a5ba"/>
      <path id="_パス_1643" d="M433.84,45.022v.026l.026-.079Z" transform="translate(-410.921 -29.001)" fill="#f2a5ba"/>
      <path id="_パス_1646" d="M433.47,44.746v.026l.026-.052h0Z" transform="translate(-410.713 -28.861)" fill="#f2a5ba"/>
      <path id="_パス_1648" d="M433.161,45.322a.28.28,0,0,0,.026-.052S433.134,45.322,433.161,45.322Z" transform="translate(-410.534 -29.17)" fill="#f2a5ba"/>
      <path id="_パス_1649" d="M432.93,44.606h0l.079-.136Z" transform="translate(-410.409 -28.72)" fill="#f2a5ba"/>
      <path id="_パス_1650" d="M432.192,45.2V45.15c-.026.026,0,0-.052.1,0,.052.052-.079.026-.026h0Z" transform="translate(-409.964 -29.103)" fill="#f2a5ba"/>
      <path id="_パス_1651" d="M428.216,42.162l-.026-.052v.052Z" transform="translate(-407.741 -27.392)" fill="#f2a5ba"/>
      <path id="_パス_1654" d="M430.526,44.679l.026-.079-.052.079Z" transform="translate(-409.041 -28.793)" fill="#f2a5ba"/>
      <path id="_パス_1658" d="M408.1,63.16v.026h.052S408.077,63.186,408.1,63.16Z" transform="translate(-396.432 -39.24)" fill="#f2a5ba"/>
      <path id="_パス_1703" d="M406.755,60.577H407c.052,0,.136,0,.079.026h.24c-.135,0,0-.026-.135,0h.114s.053-.026,0-.026h0s-.1-.052,0-.079h.053s.052,0,0-.026c.157,0,.026-.026.052-.052h-.079l-.053-.026h-.079a.05.05,0,0,0,.052-.052h0c.157,0-.1-.026,0-.052h-.184c.135,0,0-.052.135-.079h.052c-.052,0,.079,0-.052-.026h-.052s.052-.026-.053-.026h-.066s-.052,0,.052-.026H407c-.157,0,.1,0,.026-.026h-.052a.9.9,0,0,0,.24-.026h.052s-.184-.026-.079-.052h-.1s.157-.026,0-.026h-.1c.267-.026-.136-.026.1-.052h0a.173.173,0,0,0-.1-.052h.052c.052,0,.026-.026-.079-.026h.079s.136-.052.026-.052h.026c-.1,0,.214-.079-.079-.052h-.232s.079-.026.1,0h0c.157,0,.052-.026.157-.026,0-.026.079-.079.053-.136H406.9c.157-.026.052-.079.1-.079h-.157c.214,0,.079-.026.24-.052-.1,0-.026-.026-.157,0h.135c-.079,0,.052-.052,0-.079h.026s-.157,0-.052-.052h-.079s-.135-.079.105-.157h-.157l.1-.052h-.1l-.4.079c.136,0-.184.052,0,.052h-.026l-.079.079h0l.136-.026c-.157.026,0,.052-.157.079h.026s0,.052.079.052h.026s-.026,0,0,.026h0c-.135.026.135,0-.052.052.157,0,.079-.026.136-.026h.1s-.214.026-.214.052h-.079s-.079.052,0,.052a.356.356,0,0,0,.135-.026c.1,0-.184.026-.157.052h.079s.053,0,0,.026h0a.461.461,0,0,1-.1.026c-.026,0,.135,0,.079.026h.026s-.079.026,0,.026h-.2c.214,0,0,.026.24,0h.136s0,.026-.052.026h-.052c-.214,0,.052,0-.079.026h-.026a.475.475,0,0,0-.157.026.74.74,0,0,1,.24,0h-.026c-.026,0,0,0,.079.026h.1c.1,0-.157.026-.026.026h-.157s.293.052.345.052h-.24c.1,0-.052,0,0-.026h.026a.219.219,0,0,0-.1.026h.1s0,.052.135.052h.267s-.4.026-.45.026h-.184a1.323,1.323,0,0,0,.184.026h.5a.643.643,0,0,0-.184.026h-.052s-.052.026-.052.052H407c0,.026.24,0,.136.052h-.24c-.079,0,0,.052-.079.052h0l-.039.376Z" transform="translate(-395.403 -36.972)" fill="#f2a5ba"/>
      <path id="_パス_1710" d="M407.56,62.586l.079-.026h-.079Z" transform="translate(-396.129 -38.902)" fill="#f2a5ba"/>
      <path id="_パス_1724" d="M381.41,45.656l.026.026-.026-.052Z" transform="translate(-381.41 -29.373)" fill="#f2a5ba"/>
      <path id="_パス_1725" d="M381.54,45.57h0v.052s.026-.079.052-.052C381.54,45.465,381.592,45.57,381.54,45.57Z" transform="translate(-381.483 -29.313)" fill="#f2a5ba"/>
      <path id="_パス_1733" d="M382.08,45.966l.026.052a.131.131,0,0,0-.026-.079h0Z" transform="translate(-381.787 -29.547)" fill="#f2a5ba"/>
      <rect id="_長方形_160" height="0.079" transform="translate(0.175 16.283)" fill="#f2a5ba"/>
      <path id="_パス_1735" d="M382.226,46.076v.052l-.026-.079.026.026Z" transform="translate(-381.855 -29.609)" fill="#f2a5ba"/>
      <path id="_パス_1736" d="M382.32,46.05a.462.462,0,0,1,.026.1v-.079h-.026Z" transform="translate(-381.922 -29.609)" fill="#f2a5ba"/>
      <path id="_パス_1738" d="M382.08,45.87s0,.052.026.052V45.87Z" transform="translate(-381.787 -29.508)" fill="#f2a5ba"/>
      <path id="_パス_1741" d="M381.84,45.45a.737.737,0,0,1,.026.136A.288.288,0,0,0,381.84,45.45Z" transform="translate(-381.652 -29.272)" fill="#f2a5ba"/>
      <path id="_パス_1743" d="M382.226,45.836V45.81H382.2v.026Z" transform="translate(-381.855 -29.474)" fill="#f2a5ba"/>
      <path id="_パス_1750" d="M382.226,45.062l.026.052c-.026-.079,0-.1-.052-.214v.052a1.034,1.034,0,0,0,.136.319v-.079c0-.026-.052-.052-.052-.1h0l-.057-.026Z" transform="translate(-381.855 -28.962)" fill="#f2a5ba"/>
      <path id="_パス_1751" d="M382.39,45.75h0s0,.026.052.079V45.75Z" transform="translate(-381.962 -29.441)" fill="#f2a5ba"/>
      <path id="_パス_1752" d="M382.253,45.547a.253.253,0,0,0-.052-.157v.079a.112.112,0,0,0,.026.052h0v.052h0Z" transform="translate(-381.855 -29.238)" fill="#f2a5ba"/>
      <path id="_パス_1753" d="M381.84,45.262a.468.468,0,0,1,.052.1.337.337,0,0,0-.052-.157h0v.079h0Z" transform="translate(-381.652 -29.137)" fill="#f2a5ba"/>
      <path id="_パス_1755" d="M382.45,45.776l.026.052-.026-.079Z" transform="translate(-381.995 -29.441)" fill="#f2a5ba"/>
      <path id="_パス_1756" d="M382.51,45.75l.026.052v-.026l-.026-.026Z" transform="translate(-382.029 -29.44)" fill="#f2a5ba"/>
      <path id="_パス_1758" d="M384.02,45.27s.079.136.052.052V45.27Z" transform="translate(-382.879 -29.17)" fill="#f2a5ba"/>
      <path id="_パス_1761" d="M383.111,45.481s.013.026.026.026C383.137,45.481,383.084,45.429,383.111,45.481Z" transform="translate(-382.363 -29.277)" fill="#f2a5ba"/>
      <path id="_パス_1769" d="M383.78,43.564v.052l.079.184-.079-.24Z" transform="translate(-382.744 -28.208)" fill="#f2a5ba"/>
      <path id="_パス_1770" d="M385.341,42.461s-.1-.24-.157-.372c.026.136-.1-.157-.052,0v-.026h0a.725.725,0,0,1-.135-.052h0c.026.1.026,0,.052.1-.052-.136-.079,0-.135-.136,0,0,.026.079,0,.079h0s-.053-.052-.053-.079h-.026a.132.132,0,0,0-.1.136h0s-.026,0-.053.052h0v.052c0-.026-.052-.079-.052-.1a.642.642,0,0,0,.026.184v.052c0-.052-.052-.079-.052-.136-.079-.1,0,.136-.079-.026.052.157.052.079.052.1,0,.052.026.1,0,.1,0,0-.079-.184-.1-.157h0s0,.052-.026,0c.026.079,0,0,0,.1h0s.026.136,0,.079v-.074h0c-.052-.1,0-.026,0-.136,0-.052,0,.079-.026-.026.052.157-.026,0,0,.1h0l-.052-.079s-.052-.052-.052,0c.026,0,.052.079.079.136,0,.1-.079-.157-.1-.1l.052.052-.052-.052a.464.464,0,0,1,.026.1c-.052-.079,0,.026,0,.079v-.079h-.026V42.3s-.026.052-.052.026c0,.052.052.136.026.136,0-.026,0-.052-.026-.052,0-.052-.026-.1,0-.026V42.33h-.052v.079a.731.731,0,0,1-.052-.136v.079s-.052-.052-.052-.079c-.026-.026,0,.136-.026.079h0s-.079-.026-.052.052l-.052-.1s.079.1.052.157c0,.026-.052-.079-.052-.1,0,.052.026.157,0,.079h0v-.048a.381.381,0,0,0-.079-.136c.079.184-.052.052.026.24h-.026v-.048s.052.136,0,.136a.118.118,0,0,1-.026-.052v.052h-.026v.079s-.026-.1,0-.1c-.1-.184,0,.052-.079-.052h0c-.052-.136-.052-.079-.1-.157,0,.026.1.157.1.214h0c-.026-.079-.026-.052-.026-.052v.026a1.273,1.273,0,0,1-.079-.136.729.729,0,0,1,.052.136q-.039-.039,0,.079a.089.089,0,0,0-.022-.079v.079h0a.278.278,0,0,1,.026.079c.026.1-.079-.136-.052,0a.131.131,0,0,0-.026-.079v.157l-.052-.052s.052.157.079.214l.052.079v.052a.131.131,0,0,0-.026-.079h0l-.052-.1v.052a.476.476,0,0,0-.026-.157h0l-.057-.079h0v.319c0-.079-.052-.136-.079-.214.052.079,0-.052.026-.026l-.026-.052v.1a.09.09,0,0,0-.057-.079c.053.136,0,.1,0,.157,0-.052-.026-.1,0-.079-.052-.1.053.184,0,.079h0c0,.052,0,0-.026,0h0s-.079,0-.026.136l-.053-.157.1.424a3.126,3.126,0,0,1-.157-.4h0a1.309,1.309,0,0,1,.079.157l-.079-.157s.079.184.052.184a1.156,1.156,0,0,0-.079-.184l.052.157s-.052-.136-.079-.184h0s.052.267.026.267c0-.026-.079-.214-.1-.214,0,.079.135.4.135.476h0s-.135-.4-.157-.5c0-.026,0-.052-.026-.052v-.083H383a.283.283,0,0,0,.052.157v-.1s.079.267.053.267a.98.98,0,0,0-.079-.214h0s0,.136-.026.052c0,0-.052-.1-.052-.052.052.1.184.45.214.529,0,0-.079-.1-.1-.136-.052-.079-.052-.214-.1-.267v.079s-.026-.079-.026-.052c.026.1-.026,0,0,.079,0,.026,0,0-.026,0,.026.052.079.214.052.24a.131.131,0,0,0-.026-.079c-.026,0-.052-.052-.079-.026a.25.25,0,0,0-.052-.079v.052l-.026-.1v.136c.026.079.026,0,.026-.026a.817.817,0,0,1,.079.319c0,.026-.026-.079-.026-.052-.052,0,.052.214,0,.136a.972.972,0,0,1-.079-.214c0-.026.052.052.052.026h-.026v-.057c-.026-.052-.079,0-.136-.052V43.4h0s0,.079.026.1h0c0,.052-.079-.1-.026,0v.052s.052.136.026.136c.026.079,0,0,.052.079-.052-.136.052,0,0-.136a.689.689,0,0,0,.079.136V43.72h0v-.192a.724.724,0,0,1,.053.136h0s.052.052.052,0h0v-.057h0s0-.1.079,0v.026s.079.052.052,0c.079.136.053,0,.1.026v-.184s.039.013.052,0h0c.079.136,0-.136.079-.026h.052l-.026-.052v-.052s0-.052.053.079a.644.644,0,0,0-.026-.184h0v-.026a1.059,1.059,0,0,1,.079.157v-.1s0-.079.026-.026c.052.1.079,0,.157.079-.079-.157.052.052,0-.052,0,.026.026.052.052.1,0-.052.052.052.026-.052a.1.1,0,0,0,.026.079h0v.052a1.188,1.188,0,0,0-.079-.24c.026.052.026.026,0-.026,0,.026.052.079.026.079,0,0,.079.026.026-.052h.026v-.052h0s0-.026.079.052v-.052c-.079-.136.026.079.026,0h0s.1.157.135.157v.026c.052.079-.026-.079,0-.1a.366.366,0,0,0,.052.136c0,.026-.026-.157.026-.079a.217.217,0,0,0-.052-.1s.1.136.052,0h0v-.109c.1.24,0-.136.1.079h.026V43.1c.052.026.052,0,.026-.1v.079s.135.079.1,0h0s.157.184.053-.052v-.079l-.079-.157s.052.052.052.079h0s.052,0,.079.1c.052-.026.135,0,.184,0l-.052-.1h0s.026.079,0,.079c.026.052,0-.052,0-.079.052.026.026.136.052.136h0v-.109l.026.052h.026l-.052-.079v-.079c.079.136.1,0,.135.052v-.079s-.052-.1-.026-.1c.079.184.052.079.135.214-.052-.079.026-.026-.026-.157a.394.394,0,0,0,.052.1c0-.079.079,0,.1,0a.233.233,0,0,1-.026-.1l.079.1s-.052-.136,0-.052v-.052s.079-.157.24.052c-.026-.052,0-.052,0-.052h0s.052,0,.026-.1h0l.074-.131Z" transform="translate(-382.102 -27.319)" fill="#f2a5ba"/>
      <path id="_パス_1774" d="M382.416,45.315s0-.026-.026,0Z" transform="translate(-381.962 -29.189)" fill="#f2a5ba"/>
      <path id="_パス_1777" d="M382.32,44.926V44.9l.026.079Z" transform="translate(-381.922 -28.962)" fill="#f2a5ba"/>
      <path id="_パス_1783" d="M383.23,44.54h0l.052.136Z" transform="translate(-382.435 -28.759)" fill="#f2a5ba"/>
      <path id="_パス_1784" d="M383.35,43.617a.112.112,0,0,0,.026.052c0-.026,0,0-.026-.1C383.324,43.538,383.376,43.643,383.35,43.617Z" transform="translate(-382.498 -28.208)" fill="#f2a5ba"/>
      <path id="_パス_1785" d="M388.94,43.45l.026.026Z" transform="translate(-385.648 -28.146)" fill="#f2a5ba"/>
      <path id="_パス_1788" d="M385.18,42.78h0l.052.079Z" transform="translate(-383.532 -27.769)" fill="#f2a5ba"/>
    </g>
  </g>
</svg>
