<svg xmlns="http://www.w3.org/2000/svg" width="22.094" height="22.093" viewBox="0 0 22.094 22.093">
  <path id="alert" d="M20.271,24.2a1.765,1.765,0,1,1-1.765,1.767A1.765,1.765,0,0,1,20.271,24.2Zm-.744-11.527h1.49a1.366,1.366,0,0,1,1.262,1.456l-.443,7.151a1.432,1.432,0,0,1-1.565,1.456,1.431,1.431,0,0,1-1.563-1.456l-.443-7.151A1.367,1.367,0,0,1,19.527,12.674Zm.744-3.517A11.046,11.046,0,1,0,31.318,20.2,11.047,11.047,0,0,0,20.271,9.157Z" transform="translate(-9.224 -9.157)" fill="#fffcfd"/>
</svg>
