<svg xmlns="http://www.w3.org/2000/svg" width="1053.002" height="1053" viewBox="0 0 1053.002 1053">
  <g id="backgrounf_form" transform="translate(0)">
    <path id="Path_2223" data-name="Path 2223" d="M1045.455,627.627l-66.508-76.669A337.845,337.845,0,0,0,1053,339.346C1053,152.231,900.772,0,713.655,0S374.309,152.231,374.309,339.346a341.6,341.6,0,0,0,2.026,37.009,341.985,341.985,0,0,0-36.989-2.046C152.231,374.309,0,526.539,0,713.655A337.85,337.85,0,0,0,74.054,925.267L7.546,1001.936A30.85,30.85,0,0,0,30.85,1053h308.5c187.115,0,339.346-152.231,339.346-339.346a341.989,341.989,0,0,0-2.046-36.989,341.6,341.6,0,0,0,37.009,2.026h308.5a30.85,30.85,0,0,0,23.3-51.064ZM339.346,991.3H98.45l39.745-45.816a30.849,30.849,0,0,0-.862-41.382A276.543,276.543,0,0,1,61.7,713.655c0-153.094,124.552-277.647,277.647-277.647a279.469,279.469,0,0,1,50.39,4.582A340.86,340.86,0,0,0,612.411,663.265a279.468,279.468,0,0,1,4.582,50.39C616.993,866.751,492.443,991.3,339.346,991.3ZM713.655,616.992c-153.094,0-277.647-124.552-277.647-277.647S560.561,61.7,713.655,61.7,991.3,186.252,991.3,339.346a276.542,276.542,0,0,1-75.633,190.449,30.849,30.849,0,0,0-.862,41.382l39.745,45.816Z" transform="translate(0 0)" fill="#fff3f6"/>
    <ellipse id="Ellipse_109" data-name="Ellipse 109" cx="30.5" cy="31" rx="30.5" ry="31" transform="translate(683.001 487)" fill="#fff3f6"/>
    <path id="Path_2224" data-name="Path 2224" d="M410.233,62.025a118.267,118.267,0,0,0-120.78,118.331,30.85,30.85,0,1,0,61.7,0,57.527,57.527,0,0,1,.547-7.941A56.647,56.647,0,0,1,407.831,123.7c.387,0,.771,0,1.16.012a56.638,56.638,0,0,1,39.9,95.632,56.15,56.15,0,0,1-41.085,17.667,30.85,30.85,0,0,0-30.85,30.85v91.5a30.85,30.85,0,1,0,61.7,0V294.578a118.858,118.858,0,0,0,54.978-32.752A117.385,117.385,0,0,0,526,174.1c-3.2-61.6-54.046-110.832-115.764-112.077Z" transform="translate(305.849 65.512)" fill="#fff3f6"/>
    <path id="Path_2225" data-name="Path 2225" d="M336.514,302H130.85a30.85,30.85,0,1,0,0,61.7H336.514a30.85,30.85,0,1,0,0-61.7Z" transform="translate(105.665 319.106)" fill="#fff3f6"/>
    <path id="Path_2226" data-name="Path 2226" d="M336.514,362H130.85a30.85,30.85,0,1,0,0,61.7H336.514a30.85,30.85,0,1,0,0-61.7Z" transform="translate(105.665 382.504)" fill="#fff3f6"/>
  </g>
</svg>
