<svg xmlns="http://www.w3.org/2000/svg" xmlns:xlink="http://www.w3.org/1999/xlink" width="22" height="22" viewBox="0 0 22 22">
  <defs>
    <radialGradient id="radial-gradient" cx="0.5" cy="0.5" r="0.5" gradientUnits="objectBoundingBox">
      <stop offset="0" stop-color="#7d7d7d"/>
      <stop offset="0.594" stop-color="#787878"/>
      <stop offset="0.841" stop-color="#787878"/>
      <stop offset="1" stop-color="#bcbcbc"/>
    </radialGradient>
  </defs>
  <g id="Filled" transform="translate(-4 -4)">
    <path id="Path_1384" data-name="Path 1384" d="M15,4A11,11,0,1,0,26,15,11,11,0,0,0,15,4Zm3.889,12.945a1.375,1.375,0,0,1-1.945,1.945L15,16.945l-1.945,1.945a1.375,1.375,0,0,1-1.945-1.945L13.055,15l-1.945-1.945a1.375,1.375,0,1,1,1.945-1.945L15,13.055l1.945-1.945a1.375,1.375,0,0,1,1.945,1.945L16.945,15Z" fill="url(#radial-gradient)"/>
  </g>
</svg>
