<svg xmlns="http://www.w3.org/2000/svg" width="502.811" height="168.785" viewBox="0 0 502.811 168.785">
  <g id="footer-2" transform="translate(-984 -1137.039)">
    <g id="footer-2-2" data-name="footer-2" transform="translate(982.4 1148.358)">
      <g id="Group_1104" data-name="Group 1104" transform="translate(1.6 12.197)">
        <g id="Group_1079" data-name="Group 1079" transform="translate(7.312)">
          <path id="Path_2041" data-name="Path 2041" d="M164.2,61.431c-8.82,5.948-19.076,9.435-27.69,15.589-8.615,6.359-15.384,17.024-12.1,27.28,2.051,6.974,8.2,11.692,11.281,18.255,3.9,8.615,1.641,19.486-4.923,26.46-6.564,6.769-16.819,9.64-26.05,8-9.435-1.641-17.64-7.589-23.178-15.178-3.692-5.128-6.153-11.076-9.845-16.2-3.487-5.128-8.615-9.845-14.973-10.871-12.1-1.641-22.563,11.281-34.869,10.461-7.794-.615-14.563-7.384-16.2-14.973S6.673,94.454,11.8,88.506s12.307-9.845,19.9-11.9c5.128-1.436,10.461-2.256,15.589-4.1s9.845-4.923,12.512-9.64c6.153-11.9-4.718-26.87,0-39.177C62.464,16.511,70.463,12,78.053,12.2s14.973,4.307,19.691,10.256c2.872,3.487,6.564,17.845,10.051,19.076,4.1,1.231,17.435-12.1,21.127-14.563,8.41-5.333,18.05-9.435,27.9-8.82,9.846.82,19.691,7.589,21.537,17.23C180.4,45.432,173.021,55.483,164.2,61.431Z" transform="translate(-5.165 -12.197)" fill="#e8f0fd"/>
        </g>
        <g id="Group_1080" data-name="Group 1080" transform="translate(72.61 134.562)">
          <path id="Path_2042" data-name="Path 2042" d="M37,82.107a1.323,1.323,0,0,1,1.231-1.231h1.846V79.031a1.231,1.231,0,1,1,2.461,0v1.846h1.846a1.231,1.231,0,0,1,0,2.461H42.538v1.846a1.231,1.231,0,1,1-2.461,0V83.338H38.231A1.182,1.182,0,0,1,37,82.107Z" transform="translate(-37 -77.8)" fill="#e8f0fd"/>
        </g>
        <g id="Group_1081" data-name="Group 1081" transform="translate(2.095 9.486)">
          <path id="Path_2043" data-name="Path 2043" d="M12.628,19.854a1.5,1.5,0,0,1-.82,2.051l-2.051.82.82,2.051a1.5,1.5,0,0,1-.82,2.051,1.5,1.5,0,0,1-2.051-.82l-.82-2.051-2.051.82a1.5,1.5,0,0,1-2.051-.82,1.5,1.5,0,0,1,.82-2.051l2.051-.82-.82-2.051a1.5,1.5,0,0,1,.82-2.051,1.5,1.5,0,0,1,2.051.82l.82,2.051,2.051-.82A1.95,1.95,0,0,1,12.628,19.854Z" transform="translate(-2.622 -16.822)" fill="#e8f0fd"/>
        </g>
        <g id="Group_1103" data-name="Group 1103" transform="translate(0 10.673)">
          <g id="Group_1095" data-name="Group 1095" transform="translate(23.793 2.051)">
            <g id="Group_1082" data-name="Group 1082" transform="translate(8.205 0)">
              <path id="Path_2044" data-name="Path 2044" d="M112.988,28.245V134.084H25.2v-96.4L17.2,18.4h86.558c5.128,0,9.23,4.307,9.23,9.845Z" transform="translate(-17.2 -18.4)" fill="#fff"/>
            </g>
            <g id="Group_1083" data-name="Group 1083" transform="translate(87.789 0)">
              <path id="Path_2045" data-name="Path 2045" d="M72.2,28.245V134.084H65.23V28.245c0-5.333-4.1-9.845-9.23-9.845h6.974c5.128,0,9.23,4.307,9.23,9.845Z" transform="translate(-56 -18.4)" fill="#e8f0fd"/>
            </g>
            <g id="Group_1086" data-name="Group 1086" transform="translate(77.533 53.535)" opacity="0.3">
              <g id="Group_1085" data-name="Group 1085">
                <g id="Group_1084" data-name="Group 1084">
                  <path id="Path_2046" data-name="Path 2046" d="M77.46,44.5v62.15H65.973A34.62,34.62,0,0,1,77.46,44.5Z" transform="translate(-51 -44.5)" fill="#cedbf0"/>
                </g>
              </g>
            </g>
            <g id="Group_1092" data-name="Group 1092" transform="translate(28.306 14.153)">
              <g id="Group_1087" data-name="Group 1087" transform="translate(0 80.387)">
                <path id="Path_2047" data-name="Path 2047" d="M90.585,68A3.457,3.457,0,0,1,87.1,71.483H30.487A3.457,3.457,0,0,1,27,68a3.594,3.594,0,0,1,3.487-3.487H86.893A3.391,3.391,0,0,1,90.585,68Z" transform="translate(-27 -64.492)" fill="#e8f0fd"/>
              </g>
              <g id="Group_1088" data-name="Group 1088" transform="translate(0 60.286)">
                <path id="Path_2048" data-name="Path 2048" d="M90.585,58.2A3.594,3.594,0,0,1,87.1,61.683H30.487A3.457,3.457,0,0,1,27,58.2a3.594,3.594,0,0,1,3.487-3.487H86.893A3.391,3.391,0,0,1,90.585,58.2Z" transform="translate(-27 -54.692)" fill="#e8f0fd"/>
              </g>
              <g id="Group_1089" data-name="Group 1089" transform="translate(0 40.185)">
                <path id="Path_2049" data-name="Path 2049" d="M90.585,48.4A3.594,3.594,0,0,1,87.1,51.883H30.487A3.457,3.457,0,0,1,27,48.4a3.594,3.594,0,0,1,3.487-3.487H86.893A3.391,3.391,0,0,1,90.585,48.4Z" transform="translate(-27 -44.892)" fill="#e8f0fd"/>
              </g>
              <g id="Group_1090" data-name="Group 1090" transform="translate(0 20.101)">
                <path id="Path_2050" data-name="Path 2050" d="M90.585,38.587A3.594,3.594,0,0,1,87.1,42.074H30.487a3.487,3.487,0,1,1,0-6.974H86.893a3.508,3.508,0,0,1,3.692,3.487Z" transform="translate(-27 -35.1)" fill="#e8f0fd"/>
              </g>
              <g id="Group_1091" data-name="Group 1091" transform="translate(0)">
                <path id="Path_2051" data-name="Path 2051" d="M27,28.787A3.594,3.594,0,0,1,30.487,25.3H86.893a3.487,3.487,0,1,1,0,6.974H30.487A3.594,3.594,0,0,1,27,28.787Z" transform="translate(-27 -25.3)" fill="#e8f0fd"/>
              </g>
            </g>
            <g id="Group_1093" data-name="Group 1093">
              <path id="Path_2052" data-name="Path 2052" d="M29.4,26.4V48.962H14.841A1.618,1.618,0,0,1,13.2,47.321V26.4a8.009,8.009,0,0,1,8-8A7.931,7.931,0,0,1,29.4,26.4Z" transform="translate(-13.2 -18.4)" fill="#e8f0fd"/>
            </g>
            <g id="Group_1094" data-name="Group 1094" transform="translate(3.897)">
              <path id="Path_2053" data-name="Path 2053" d="M27.407,26.4V48.962H19.2V26.4a7.448,7.448,0,0,0-2.461-5.743A11.378,11.378,0,0,0,15.1,19.426,8.672,8.672,0,0,1,19.2,18.4a8.226,8.226,0,0,1,5.743,2.461A6.743,6.743,0,0,1,27.407,26.4Z" transform="translate(-15.1 -18.4)" fill="#fff"/>
            </g>
          </g>
          <g id="Group_1102" data-name="Group 1102">
            <g id="Group_1096" data-name="Group 1096" transform="translate(107.685 60.714)">
              <path id="Path_2054" data-name="Path 2054" d="M111.122,75.511A28.511,28.511,0,1,1,82.611,47,28.45,28.45,0,0,1,111.122,75.511Z" transform="translate(-54.1 -47)" fill="#fff"/>
            </g>
            <g id="Group_1097" data-name="Group 1097" transform="translate(132.914 60.714)">
              <path id="Path_2055" data-name="Path 2055" d="M98.193,75.511a28.45,28.45,0,0,1-28.511,28.511,17.644,17.644,0,0,1-3.282-.205,28.493,28.493,0,0,0,0-56.612A16.58,16.58,0,0,1,69.682,47,28.45,28.45,0,0,1,98.193,75.511Z" transform="translate(-66.4 -47)" fill="#e8f0fd"/>
            </g>
            <g id="Group_1100" data-name="Group 1100" transform="translate(122.453 86.353)">
              <g id="Group_1098" data-name="Group 1098" transform="translate(0 0)">
                <path id="Path_2056" data-name="Path 2056" d="M88.785,62.987V77.14A3.594,3.594,0,0,1,85.3,80.627H64.787A3.594,3.594,0,0,1,61.3,77.14V62.987A3.594,3.594,0,0,1,64.787,59.5H85.3a3.594,3.594,0,0,1,3.487,3.487Z" transform="translate(-61.3 -59.5)" fill="#fff"/>
              </g>
              <g id="Group_1099" data-name="Group 1099" transform="translate(19.486 0)">
                <path id="Path_2057" data-name="Path 2057" d="M78.8,62.987V77.14a3.594,3.594,0,0,1-3.487,3.487H70.8a3.594,3.594,0,0,0,3.487-3.487V62.987A3.594,3.594,0,0,0,70.8,59.5h4.513A3.594,3.594,0,0,1,78.8,62.987Z" transform="translate(-70.8 -59.5)" fill="#e8f0fd"/>
              </g>
            </g>
            <g id="Group_1101" data-name="Group 1101">
              <path id="Path_2058" data-name="Path 2058" d="M86.992,59.525a1.542,1.542,0,1,0,3.077.205V57.474h2.256A1.542,1.542,0,0,0,92.53,54.4H90.274V52.141a1.542,1.542,0,1,0-3.077-.205v2.256H84.941a1.542,1.542,0,1,0-.205,3.077h2.256Z" transform="translate(84.278 17.393)" fill="#1369f0"/>
              <path id="Path_2059" data-name="Path 2059" d="M12.336,63.769h2.256v2.256a1.741,1.741,0,0,0,1.436,1.641,1.74,1.74,0,0,0,1.641-1.436V63.974h2.256A1.542,1.542,0,1,0,20.13,60.9H17.874V58.641A1.74,1.74,0,0,0,16.438,57,1.74,1.74,0,0,0,14.8,58.436v2.256H12.541A1.74,1.74,0,0,0,10.9,62.128a1.585,1.585,0,0,0,1.436,1.641Z" transform="translate(8.176 24.225)" fill="#1369f0"/>
              <path id="Path_2060" data-name="Path 2060" d="M101.33,73.9H86.151a2.051,2.051,0,0,0,0,4.1H101.33a2.051,2.051,0,0,0,0-4.1Z" transform="translate(85.119 41.99)" fill="#1369f0"/>
              <path id="Path_2061" data-name="Path 2061" d="M87.27,66.589V62.076A11.03,11.03,0,0,0,76.194,51,11.206,11.206,0,0,0,64.913,62.076v4.513A5.374,5.374,0,0,0,60.4,72.127V86.28a5.515,5.515,0,0,0,5.538,5.538H86.244a5.515,5.515,0,0,0,5.538-5.538V72.127a5.556,5.556,0,0,0-4.513-5.538ZM68.81,62.076a7.077,7.077,0,0,1,14.153,0v4.513H68.81ZM87.68,86.28a1.4,1.4,0,0,1-1.436,1.436H65.733A1.4,1.4,0,0,1,64.3,86.28V72.127a1.4,1.4,0,0,1,1.436-1.436H86.039a1.4,1.4,0,0,1,1.436,1.436V86.28Z" transform="translate(60.207 17.918)" fill="#1369f0"/>
              <path id="Path_2062" data-name="Path 2062" d="M72.964,65.282a3.282,3.282,0,0,0-6.564,0,2.924,2.924,0,0,0,1.231,2.461l-.615,4.923a.441.441,0,0,0,.41.41h4.307a.441.441,0,0,0,.41-.41l-.41-4.923a2.924,2.924,0,0,0,1.231-2.461Z" transform="translate(66.514 29.481)" fill="#1369f0"/>
              <path id="Path_2063" data-name="Path 2063" d="M158.718,133.085h-5.948A30.447,30.447,0,0,0,137.8,76.063a31.845,31.845,0,0,0-6.359.615V29.3c0-6.564-5.128-11.9-11.281-11.9H33.6A10.113,10.113,0,0,0,23.547,27.656V48.577a3.677,3.677,0,0,0,3.692,3.692H39.751v81.02H3.651A2.055,2.055,0,0,0,1.6,135.341a2.206,2.206,0,0,0,2.051,2.051H68.877a2.051,2.051,0,0,0,0-4.1H43.648V27.656A11.054,11.054,0,0,0,41.6,21.5h78.354c4.1,0,7.179,3.487,7.179,7.794V78.114a30.51,30.51,0,0,0-4.718,55.176H84.466a2.051,2.051,0,0,0,0,4.1h74.456a1.938,1.938,0,0,0,2.051-2.051,2.424,2.424,0,0,0-2.256-2.256ZM39.546,48.167h-12.1V27.656A6.171,6.171,0,0,1,33.6,21.5a6.044,6.044,0,0,1,6.153,6.153C39.546,45.706,39.546,48.167,39.546,48.167Zm71.79,58.458a26.46,26.46,0,1,1,26.46,26.46A26.524,26.524,0,0,1,111.336,106.625Z" transform="translate(-1.6 -17.4)" fill="#1369f0"/>
            </g>
          </g>
        </g>
      </g>
    </g>
    <path id="Path_2065" data-name="Path 2065" d="M3.494-5.552A16.423,16.423,0,0,1,1.062-1.458L.388-2.549A14.988,14.988,0,0,0,3.325-7.427H.52V-8.459H3.494v-2.4q-1.069.242-2.19.41l-.5-.93A25.839,25.839,0,0,0,6.24-12.737l.688.886q-.959.352-2.278.71v2.681H7.324v1.033H4.651V-6.24A18.622,18.622,0,0,1,7.244-4.219L6.57-3.179A19.181,19.181,0,0,0,4.651-5.09V1.421H3.494Zm3.479,5,.073-.249A115.443,115.443,0,0,0,9.58-12.283l1.187.22A101.966,101.966,0,0,1,8.115-.7L8.408-.74Q11-1.106,12.715-1.494q-.762-2.08-1.465-3.757l1-.432A52.691,52.691,0,0,1,14.685.571l-1.113.571Q13.323.278,13.03-.571l-.139.037A59.3,59.3,0,0,1,6.328.718l-.4-1.15L6.68-.52Q6.885-.542,6.973-.557ZM16.724-10h3.391q.286-1.274.476-2.358l1.2.154-.022.1q-.293,1.421-.454,2.1h5.024v1.047H21.06A56.54,56.54,0,0,1,17.837.732L16.695.3a57.56,57.56,0,0,0,3.164-9.258H16.724Zm6,3.376a42.2,42.2,0,0,1,5.325-.337q.176,0,.674.007L28.8-5.867q-.52-.007-.828-.007a44.352,44.352,0,0,0-5.1.293ZM29.292.315a17.255,17.255,0,0,1-2.5.161A11.765,11.765,0,0,1,23.323.088,1.728,1.728,0,0,1,22-1.677a2.172,2.172,0,0,1,.513-1.472l.945.586a1.131,1.131,0,0,0-.242.732.839.839,0,0,0,.674.894,9.6,9.6,0,0,0,2.468.264,18.232,18.232,0,0,0,2.8-.212ZM32.027-10h3.391q.33-1.274.527-2.344l1.165.183q-.161.813-.505,2.161h7.529v1.047h-7.8a33.547,33.547,0,0,1-1.318,3.823,8.9,8.9,0,0,1,4.768-1.26,5.411,5.411,0,0,1,2.5.527,2.7,2.7,0,0,1,1.611,2.556q0,2.307-2.739,3.223a19.262,19.262,0,0,1-5.3.7l-.4-1.1a19.1,19.1,0,0,0,4.9-.542q2.227-.667,2.227-2.314a1.815,1.815,0,0,0-1-1.714,3.719,3.719,0,0,0-1.794-.381,9.555,9.555,0,0,0-5.237,1.648l-.974-.688q.93-2.322,1.56-4.482H32.027ZM47.309-.842a17.146,17.146,0,0,0,2.161-4.644,26.3,26.3,0,0,0,1.143-5.662l1.194.256Q50.824-3.56,48.3.059Zm11.309.9A24.964,24.964,0,0,1,56.706-4.05a45.426,45.426,0,0,1-1.941-6.87l1.143-.359a38.3,38.3,0,0,0,2,6.877,24.57,24.57,0,0,0,1.765,3.64ZM58.939-12.6a1.706,1.706,0,0,1,.952.293,1.647,1.647,0,0,1,.784,1.45,1.686,1.686,0,0,1-.513,1.223,1.687,1.687,0,0,1-1.238.513,1.689,1.689,0,0,1-.776-.19,1.79,1.79,0,0,1-.659-.593,1.706,1.706,0,0,1-.293-.967,1.688,1.688,0,0,1,.22-.824,1.7,1.7,0,0,1,.593-.634A1.7,1.7,0,0,1,58.939-12.6Zm-.007.762a.961.961,0,0,0-.505.146.909.909,0,0,0-.469.835.947.947,0,0,0,.249.652.949.949,0,0,0,.732.322A.926.926,0,0,0,59.394-10a.912.912,0,0,0,.52-.857.956.956,0,0,0-.3-.71A.955.955,0,0,0,58.932-11.836Zm3.863,5.281H75.437V-5.4H62.795Zm17.251.688A35.174,35.174,0,0,0,77.9-10.935l1.077-.542a31.343,31.343,0,0,1,2.241,5.054Zm.344,5.325a9.758,9.758,0,0,0,5.815-4.592,18.948,18.948,0,0,0,1.655-6.6l1.2.286a18.493,18.493,0,0,1-2.08,7.471,11.3,11.3,0,0,1-5.83,4.5ZM97.657-12.268h1.187v3.42h5.566v1.077H98.843v.542a17.377,17.377,0,0,1-.227,3.252A6.714,6.714,0,0,1,94.456.806l-.762-.989a6.158,6.158,0,0,0,3.281-2.776,6.917,6.917,0,0,0,.637-2.651q.044-.645.044-1.6v-.557H91.8V-8.848h5.852Zm12.161.791H111v2.563a28.987,28.987,0,0,1-.168,3.6A8.564,8.564,0,0,1,110.1-2.7,7.267,7.267,0,0,1,107.43.242l-.806-.93a6.568,6.568,0,0,0,2.637-3.23,16.142,16.142,0,0,0,.557-4.951Zm3.647-.417h1.187V-1.23a8.213,8.213,0,0,0,2.71-2.043,9.76,9.76,0,0,0,2.014-3.809l.916.93a10.883,10.883,0,0,1-2.278,3.97,10.779,10.779,0,0,1-3.662,2.5l-.886-.762Zm10.088.359h9.272v1.062h-9.272Zm-1.047,3.552h11.711a11.516,11.516,0,0,1-1.458,5,6.672,6.672,0,0,1-2.82,2.446A14.9,14.9,0,0,1,125.868.623l-.542-1.077a9.942,9.942,0,0,0,5.266-1.912,6.826,6.826,0,0,0,2.175-4.556H122.506ZM142.446.586V-7.156a25.086,25.086,0,0,1-5.325,2.7l-.659-1.055a21.528,21.528,0,0,0,5.61-2.8,23,23,0,0,0,4.226-3.845l1.025.645a30.055,30.055,0,0,1-3.677,3.464V.586Zm7.232-11.375h11.082a18.531,18.531,0,0,1-.864,5.706,7.516,7.516,0,0,1-2.908,3.735A13.818,13.818,0,0,1,152.38.476l-.615-1.069a9.745,9.745,0,0,0,5.742-2.8q1.853-2.124,1.934-6.321h-9.763Zm19.646,1.531a27.615,27.615,0,0,0-4.006-1.479l.374-1.055a19.2,19.2,0,0,1,4.021,1.428Zm-1.545,3.735A40.938,40.938,0,0,0,163.8-7l.447-1.1a23.668,23.668,0,0,1,3.977,1.472ZM164.761-.916a17.112,17.112,0,0,0,4.673-.916,7.778,7.778,0,0,0,3.486-2.7A10.426,10.426,0,0,0,174.693-8.7l1.077.645a10.25,10.25,0,0,1-3.56,6.072,10.354,10.354,0,0,1-4.175,1.838,22.258,22.258,0,0,1-2.93.417Zm8.657-8.562a12.3,12.3,0,0,0-1.318-2.4l.894-.344a11.652,11.652,0,0,1,1.326,2.388Zm1.934-.557a11.7,11.7,0,0,0-1.3-2.4l.872-.315a9.969,9.969,0,0,1,1.318,2.344Zm7.474.132.447,2.549,5.581-.879.74.586a9.731,9.731,0,0,1-2.871,5.068l-.864-.725A7.153,7.153,0,0,0,187.6-5.361a6.274,6.274,0,0,0,.667-1.707l-4.812.769,1.2,6.855-1.113.19-1.23-6.87-3.091.5-.132-1.062,3.047-.483-.454-2.52Zm9.693,9.06a17.146,17.146,0,0,0,2.161-4.644,26.3,26.3,0,0,0,1.143-5.662l1.194.256q-.981,7.332-3.508,10.95Zm11.309.9a24.964,24.964,0,0,1-1.912-4.109,45.426,45.426,0,0,1-1.941-6.87l1.143-.359a38.3,38.3,0,0,0,2,6.877,24.57,24.57,0,0,0,1.765,3.64Zm.322-12.656a1.706,1.706,0,0,1,.952.293,1.647,1.647,0,0,1,.784,1.45,1.686,1.686,0,0,1-.513,1.223,1.687,1.687,0,0,1-1.238.513,1.689,1.689,0,0,1-.776-.19A1.79,1.79,0,0,1,202.7-9.9a1.706,1.706,0,0,1-.293-.967,1.688,1.688,0,0,1,.22-.824,1.7,1.7,0,0,1,.593-.634A1.7,1.7,0,0,1,204.149-12.6Zm-.007.762a.961.961,0,0,0-.505.146.909.909,0,0,0-.469.835.947.947,0,0,0,.249.652.949.949,0,0,0,.732.322A.926.926,0,0,0,204.6-10a.912.912,0,0,0,.52-.857.956.956,0,0,0-.3-.71A.955.955,0,0,0,204.142-11.836Zm8.887,3.311a24.9,24.9,0,0,0-4.453-1.523l.388-1.143a21.1,21.1,0,0,1,4.49,1.516ZM208.693-.974a18.372,18.372,0,0,0,4.658-.9q4.4-1.648,5.544-7.588l1.018.732a12.677,12.677,0,0,1-2.124,5.112,8.835,8.835,0,0,1-4.321,3.01,21.955,21.955,0,0,1-4.475.879Zm22.525-11.147h1.172V-9.4h3.062v1.047H232.39V-3.53a14.618,14.618,0,0,1,3.435,2.271L235.2-.227a17.994,17.994,0,0,0-2.805-2.117,3.267,3.267,0,0,1-.667,2.19,2.788,2.788,0,0,1-2.146.74,4.129,4.129,0,0,1-2.263-.571A2.064,2.064,0,0,1,226.3-1.824a2.025,2.025,0,0,1,.938-1.758,3.867,3.867,0,0,1,2.249-.608,7.172,7.172,0,0,1,1.736.242V-8.357H226.3V-9.4h4.922Zm0,9.243a5.221,5.221,0,0,0-1.765-.322,2.788,2.788,0,0,0-1.4.308,1.133,1.133,0,0,0-.615,1.033,1.155,1.155,0,0,0,.718,1.1,3.209,3.209,0,0,0,1.428.271q1.633,0,1.633-1.97ZM223.3.557a47.133,47.133,0,0,1-.256-4.958,53.334,53.334,0,0,1,.527-7.661l1.157.183a40.484,40.484,0,0,0-.535,6.958,46.363,46.363,0,0,0,.293,5.281Z" transform="translate(1197 1209)" fill="#1369f0"/>
    <path id="Path_2064" data-name="Path 2064" d="M6.961-6.7a11.2,11.2,0,0,0,.58-1.529l2.145.343q-.369.729-.633,1.187h6.82V1.714h-2V.773H4.3v.94H2.338V-6.7ZM4.3-5.238v1.529h9.58V-5.238Zm0,2.9V-.686h9.58V-2.338Zm-.105-11H8.64v1.6H4.192v2l1.2-.193q1.222-.193,3.357-.606L8.8-9.044A73.68,73.68,0,0,1,.844-7.462L.343-9.2q1.081-.132,1.89-.237v-5.827h1.96Zm7.075.193A21.3,21.3,0,0,0,15.53-14.6l1.318,1.512a39,39,0,0,1-5.581,1.573v1.055q0,.563.4.668a8.041,8.041,0,0,0,1.819.132q1.652,0,1.881-.387a4.7,4.7,0,0,0,.246-1.687l1.89.5a8.188,8.188,0,0,1-.36,2.224,1.388,1.388,0,0,1-1.028.826,12.06,12.06,0,0,1-2.769.229,9.975,9.975,0,0,1-3.322-.334,1.367,1.367,0,0,1-.712-1.38V-15.39h1.96Zm20.5,9.387v3.9A1.778,1.778,0,0,1,31.5,1.222a1.628,1.628,0,0,1-1.327.413,13.8,13.8,0,0,1-2.1-.158L27.786-.2a9.783,9.783,0,0,0,1.9.22q.229,0,.272-.114A.7.7,0,0,0,30-.378V-7.04H25.536V-8.5H30V-9.536H26.467v-1.389H30v-.993H25.826v-1.441h2.285a16.4,16.4,0,0,0-1.028-1.547l1.6-.6a10.3,10.3,0,0,1,1.257,2.145h1.8a12.925,12.925,0,0,0,1.011-2.25l1.837.615a15.9,15.9,0,0,1-.932,1.635h2.391v1.441h-4.28v.993h3.656v1.389H31.767V-8.5h4.711V-7.04H31.785a12.925,12.925,0,0,0,1.336,2.531l.088-.1a16.949,16.949,0,0,0,1.705-2.241L36.39-5.739a16.007,16.007,0,0,1-2.364,2.408,11,11,0,0,0,2.795,2.268L35.617.58A14.386,14.386,0,0,1,31.767-3.762ZM21.888-6.029a24.627,24.627,0,0,1-1.872,4.175l-.976-2a17.978,17.978,0,0,0,2.672-6.082H19.348V-11.7h2.54V-15.39h1.837V-11.7h1.907v1.767H23.725v1.424l.105.088A14.769,14.769,0,0,1,25.9-6.46l-.993,1.617a17.033,17.033,0,0,0-1.187-1.644v8.2H21.888Zm2.769,4.711a21.443,21.443,0,0,0,4.482-2.7l.448,1.371A21.656,21.656,0,0,1,25.536.29ZM27.838-3.6A13,13,0,0,0,25.72-5.546L26.8-6.75A13.336,13.336,0,0,1,28.99-4.843ZM47.688-.958q5.159-1.3,5.159-5.915a5.8,5.8,0,0,0-1.037-3.463,5.389,5.389,0,0,0-3.533-2.1,34.237,34.237,0,0,1-1.415,6.68A19.959,19.959,0,0,1,45.332-2.32q-1.318,2.3-3,2.3a2.889,2.889,0,0,1-2.224-1.125A5.579,5.579,0,0,1,39.1-2.892a8.09,8.09,0,0,1-.51-2.892,8.259,8.259,0,0,1,1.38-4.614,8.168,8.168,0,0,1,3.63-3.129,8.8,8.8,0,0,1,3.568-.712,8.207,8.207,0,0,1,5.15,1.626,6.7,6.7,0,0,1,2.6,5.651q0,6.126-6.2,7.77ZM46.369-12.507a6.113,6.113,0,0,0-2.6.835,7.016,7.016,0,0,0-1.327,1.143,6.772,6.772,0,0,0-1.828,4.685A5.212,5.212,0,0,0,41.386-2.8q.475.677.94.677.633,0,1.424-1.4A24.226,24.226,0,0,0,46.369-12.507Zm11.377-.132H69.031l2.18,1.978A16.389,16.389,0,0,1,69.69-4.588,9.434,9.434,0,0,1,65.445-.536a22.319,22.319,0,0,1-4.781,1.617L59.653-.7A17.9,17.9,0,0,0,64.3-2.092a7.914,7.914,0,0,0,3.955-4.2,13.378,13.378,0,0,0,.826-4.509H57.746ZM72.081-15.75a2.137,2.137,0,0,1,1.125.325,2.107,2.107,0,0,1,.817.861,2.149,2.149,0,0,1,.264,1.028,2.162,2.162,0,0,1-.615,1.521,2.116,2.116,0,0,1-1.608.694,2.088,2.088,0,0,1-.914-.211,2.224,2.224,0,0,1-.888-.738,2.181,2.181,0,0,1-.4-1.274,2.144,2.144,0,0,1,.272-1.037,2.258,2.258,0,0,1,.729-.809A2.193,2.193,0,0,1,72.081-15.75Zm-.009,1.081a1.127,1.127,0,0,0-.615.185,1.06,1.06,0,0,0-.519.958,1.087,1.087,0,0,0,.308.773,1.094,1.094,0,0,0,.826.352,1.11,1.11,0,0,0,.519-.123,1.053,1.053,0,0,0,.615-1,1.1,1.1,0,0,0-.343-.817A1.058,1.058,0,0,0,72.072-14.669Zm5.576.554H89.241v1.8H77.648ZM76.391-9.809H91.025a15.619,15.619,0,0,1-1.6,5.994A7.761,7.761,0,0,1,87.14-1.222a15.322,15.322,0,0,1-6.75,2.268L79.5-.738a12.856,12.856,0,0,0,5.985-1.793,7.163,7.163,0,0,0,3.085-5.476H76.391ZM100.635.932V-8.086a27.676,27.676,0,0,1-6.1,3.023L93.472-6.847a26.433,26.433,0,0,0,6.829-3.375,27.951,27.951,0,0,0,5.133-4.649l1.7,1.063a31.927,31.927,0,0,1-4.447,4.21V.932Zm8.74-1.907A22.647,22.647,0,0,0,112-6.486a31.15,31.15,0,0,0,1.512-7.251l2.013.413a47.36,47.36,0,0,1-2.1,9.07A19.992,19.992,0,0,1,111.088.431ZM123.56.519a43.775,43.775,0,0,1-4.913-13.86l1.907-.589A41.828,41.828,0,0,0,125.3-.809Zm-.923-12.182a15.162,15.162,0,0,0-1.775-3.243l1.38-.5a17.881,17.881,0,0,1,1.819,3.182Zm2.522-.4a14.879,14.879,0,0,0-1.767-3.278l1.318-.431a12.079,12.079,0,0,1,1.784,3.094Zm10.014,1.327a40.659,40.659,0,0,0-5.291-1.942l.571-1.74a28.451,28.451,0,0,1,5.335,1.846Zm-1.8,4.5a54.083,54.083,0,0,0-5.291-1.942l.756-1.758a31.4,31.4,0,0,1,5.221,1.89Zm-4.157,4.843a20.913,20.913,0,0,0,5.634-1.09,9.163,9.163,0,0,0,4.737-4.113,17.441,17.441,0,0,0,1.819-5l1.775,1.028A17.649,17.649,0,0,1,140.8-4.526a10.517,10.517,0,0,1-5,3.885A23.193,23.193,0,0,1,129.778.58Zm16.413-6.75h15.478v1.978H145.628Zm19.26-4.781h4.737q.782-1.248,1.187-2.013l1.96.281q-.264.475-.932,1.547l-.114.185h6.2v1.731h-7.365a33.932,33.932,0,0,1-2.2,2.742,6.022,6.022,0,0,1,3.032-.993A2.7,2.7,0,0,1,174.178-7.3q2.25-.747,4.588-1.477l.756,1.705-.308.088-.87.229q-2.461.668-3.937,1.143.105,1.143.149,2.953l-1.925.105q-.009-1.046-.035-2.268V-5q-4.043,1.38-4.043,2.777,0,.721,1.037.984a16.856,16.856,0,0,0,3.586.255,48.4,48.4,0,0,0,5-.272l.211,1.872q-2.54.193-5.265.193A15.629,15.629,0,0,1,168.351.3,2.3,2.3,0,0,1,166.6-1.978a3.163,3.163,0,0,1,1.239-2.452A15.347,15.347,0,0,1,172.359-6.7a1.985,1.985,0,0,0-.466-.949,1.2,1.2,0,0,0-.861-.308,5.174,5.174,0,0,0-2.188.659,16.9,16.9,0,0,0-3.489,2.435L164.185-6.2a25.633,25.633,0,0,0,4.28-4.992h-3.577Zm27.144,3.85a14.554,14.554,0,0,0,2.3,4.377,15.376,15.376,0,0,0,5.08,4.482L198.158,1.6a16.7,16.7,0,0,1-5.326-4.983,17.668,17.668,0,0,1-1.846-3.437,13.2,13.2,0,0,1-2.153,4.28,12.937,12.937,0,0,1-5.3,4.2L182.294.053A12.105,12.105,0,0,0,187.629-4.2,10.915,10.915,0,0,0,189.65-9.07h-7.014v-1.907h7.093v-4.236h2.03v4.236H199V-9.07Zm20.939-3.278a31.805,31.805,0,0,1-1.257,8.455,11.231,11.231,0,0,1-4.122,5.405L206.063.088a9.38,9.38,0,0,0,3.568-3.981q1.213-2.689,1.424-8.455h-3.313v-1.819h9.844a121.065,121.065,0,0,1-.554,13.544,2.706,2.706,0,0,1-.606,1.45,2.4,2.4,0,0,1-1.8.563,19.865,19.865,0,0,1-2.725-.167L211.5-.7a21.37,21.37,0,0,0,2.628.272.779.779,0,0,0,.835-.51,16.7,16.7,0,0,0,.4-3.19q.2-2.839.255-7.383l.009-.835Zm-8.033,3.138v4.553q0,.369.211.475a2.516,2.516,0,0,0,.747.062,3.153,3.153,0,0,0,.9-.079q.237-.1.308-.51.079-.457.158-1.986l1.784.5a6.54,6.54,0,0,1-.624,3.2q-.545.694-2.575.694a5.483,5.483,0,0,1-2.162-.29,1.24,1.24,0,0,1-.633-1.239V-8.9l-1.978.316-.22-1.749,2.2-.343V-15.39h1.89v4.421l3.938-.624.149,1.731ZM221.623.958a53.454,53.454,0,0,1-.334-5.941,59.36,59.36,0,0,1,.747-9.615l1.934.2a50.227,50.227,0,0,0-.712,8.886A49.166,49.166,0,0,0,223.627.7ZM226.9-12.964h8.446v1.872H226.9ZM235.941-.123a27.677,27.677,0,0,1-4.175.272q-6.073,0-6.073-3.568a4.129,4.129,0,0,1,.756-2.47l1.661.738a2.533,2.533,0,0,0-.475,1.5,1.416,1.416,0,0,0,1.028,1.415,8.938,8.938,0,0,0,3.12.439,25.947,25.947,0,0,0,3.955-.281Zm4.574-14.528h2.074V-4.175q0,3.313,3.48,3.313a4.416,4.416,0,0,0,3.762-2.118A13.811,13.811,0,0,0,251.536-7.2l1.784,1.081a13.643,13.643,0,0,1-2.153,4.746,6.3,6.3,0,0,1-5.142,2.452q-3.3,0-4.658-2.039a5.8,5.8,0,0,1-.853-3.287Zm22.574-.325h1.942v2.215h5.528v1.67h-5.528V-9h5.221v1.652h-5.221v2.716a24.513,24.513,0,0,1,6.17,3.173L270.163.211a28.926,28.926,0,0,0-5.133-3.041,4.894,4.894,0,0,1-.58,2.329q-.888,1.433-3.5,1.433a6.089,6.089,0,0,1-3.234-.756,2.579,2.579,0,0,1-1.362-2.285,2.7,2.7,0,0,1,1.837-2.549,7.973,7.973,0,0,1,3.2-.545,12.909,12.909,0,0,1,1.7.123V-7.348h-6.231V-9h6.231v-2.092h-6.609v-1.67h6.609Zm0,11.531a9.749,9.749,0,0,0-2-.22,4.491,4.491,0,0,0-1.9.343,1.287,1.287,0,0,0-.87,1.178,1.177,1.177,0,0,0,.677,1.037,3.582,3.582,0,0,0,1.828.4,2.134,2.134,0,0,0,1.863-.721,2.872,2.872,0,0,0,.4-1.679Zm19.559-11.584h1.978V-12.6h5.186v1.7h-5.186v3.762a7.13,7.13,0,0,1,.308,1.925,6.534,6.534,0,0,1-1.38,4.6A8.272,8.272,0,0,1,279.026,1.6l-1-1.494A8.937,8.937,0,0,0,281.5-1.16a3.76,3.76,0,0,0,1.433-2.1A2.937,2.937,0,0,1,280.7-2.232a3.371,3.371,0,0,1-2.364-.826,3.648,3.648,0,0,1-1.063-2.83,4.06,4.06,0,0,1,.466-1.881,3.3,3.3,0,0,1,.756-.967,3.721,3.721,0,0,1,2.487-.879,3.232,3.232,0,0,1,1.67.439v-1.731h-8.675v-1.7h8.675Zm.07,9.123v-.325a1.863,1.863,0,0,0-.264-.993,1.572,1.572,0,0,0-1.424-.809,1.62,1.62,0,0,0-.888.264,2.046,2.046,0,0,0-.967,1.863,2.414,2.414,0,0,0,.352,1.336,1.62,1.62,0,0,0,1.45.756,1.572,1.572,0,0,0,1.38-.782A2.347,2.347,0,0,0,282.718-5.906Z" transform="translate(1197 1237)" fill="#1369f0"/>
    <path id="Path_2066" data-name="Path 2066" d="M5.18-9.609a4.359,4.359,0,0,1,2.455.715A4.468,4.468,0,0,1,9.369-6.7a5.928,5.928,0,0,1,.375,2.139,5.747,5.747,0,0,1-.633,2.73,4.229,4.229,0,0,1-1.8,1.816,4.573,4.573,0,0,1-2.156.51,4.372,4.372,0,0,1-2.783-.92A4.465,4.465,0,0,1,.861-2.66a6.135,6.135,0,0,1-.287-1.9A5.062,5.062,0,0,1,2.063-8.4,4.331,4.331,0,0,1,5.18-9.609Zm-.035.949a3.021,3.021,0,0,0-1.939.674A4.119,4.119,0,0,0,1.787-4.559,4.936,4.936,0,0,0,2.273-2.3,3.336,3.336,0,0,0,3.3-1.078a3.084,3.084,0,0,0,1.857.586,3.019,3.019,0,0,0,2.514-1.23,4.489,4.489,0,0,0,.855-2.836,4.51,4.51,0,0,0-.9-2.912A3.037,3.037,0,0,0,5.145-8.66Zm6.328,1.881h1.09v4.33Q12.563-.5,14.086-.5A2.157,2.157,0,0,0,15.27-.873,3.191,3.191,0,0,0,16.441-2.3V-6.779h1.113V.3H16.5V-1A3.641,3.641,0,0,1,15.24.1a2.881,2.881,0,0,1-1.33.334,2.261,2.261,0,0,1-1.98-.9A3.141,3.141,0,0,1,11.473-2.3Zm9.375,1.957h.047q.744-2.127,2.3-2.127a2.114,2.114,0,0,1,.9.193l-.34,1.008a1.755,1.755,0,0,0-.715-.135q-1.488,0-2.092,2.484V.3h-1.1V-6.779h1.055Zm8.561-4.6H32.66a5.013,5.013,0,0,1,2.373.492,2.384,2.384,0,0,1,.75.627,2.756,2.756,0,0,1,.592,1.77q0,3.041-3.779,3.041H30.521V.3H29.408Zm1.113.938v4.066h1.846a3.806,3.806,0,0,0,2.1-.445,1.845,1.845,0,0,0,.7-1.652,1.711,1.711,0,0,0-.8-1.564,3.394,3.394,0,0,0-1.8-.4Zm8.613,3.662h.047q.744-2.127,2.3-2.127a2.114,2.114,0,0,1,.9.193l-.34,1.008a1.755,1.755,0,0,0-.715-.135q-1.488,0-2.092,2.484V.3h-1.1V-6.779h1.055ZM43.67-9.6h1.318v1.307H43.67Zm.105,2.818h1.1V.3h-1.1Zm2.607,0h1.236l1.57,4.271.059.152q.316.873.457,1.395h.047q.129-.486.475-1.436l.047-.111,1.57-4.271H53.08L50.174.422h-.885Zm12.445,2.6v-.229a1.609,1.609,0,0,0-.463-1.26,1.9,1.9,0,0,0-1.3-.381,3.805,3.805,0,0,0-2.367.826L54.217-6a4.621,4.621,0,0,1,2.865-.949,2.891,2.891,0,0,1,2.209.791,2.534,2.534,0,0,1,.615,1.8v2.543A4.388,4.388,0,0,0,60.328.3H59.273a4.5,4.5,0,0,1-.34-1.248H58.9A2.912,2.912,0,0,1,57.914.07,2.922,2.922,0,0,1,56.279.5a2.428,2.428,0,0,1-1.682-.6,2.072,2.072,0,0,1-.7-1.611A2.059,2.059,0,0,1,54.92-3.533a5.859,5.859,0,0,1,3.088-.645Zm0,.832h-.756q-3.047,0-3.047,1.629a1.238,1.238,0,0,0,.328.879,1.445,1.445,0,0,0,1.1.416A2.377,2.377,0,0,0,58.031-1a2.008,2.008,0,0,0,.8-1.582ZM68.221-.838A3.707,3.707,0,0,1,65.191.5a3.4,3.4,0,0,1-2.479-.932,3.718,3.718,0,0,1-1.055-2.795,3.97,3.97,0,0,1,.656-2.285,3.22,3.22,0,0,1,1.611-1.254,3.5,3.5,0,0,1,1.189-.2,4.159,4.159,0,0,1,2.795,1.02l-.574.8a3.056,3.056,0,0,0-2.156-.9,2.139,2.139,0,0,0-1.834.914A3.121,3.121,0,0,0,62.8-3.229a3.206,3.206,0,0,0,.375,1.594,2.292,2.292,0,0,0,1.131,1.02,2.4,2.4,0,0,0,.938.182,2.813,2.813,0,0,0,2.279-1.125ZM69.1-6.779h1.248l1.5,3.311a13.022,13.022,0,0,1,.563,1.477h.035l.053-.117q.41-.99.574-1.336l1.559-3.334h1.236L72.486.07a2.319,2.319,0,0,1-1.055,1.148,2.791,2.791,0,0,1-1.166.211H69.82l-.3-.949h.6a1.849,1.849,0,0,0,.9-.176,1.366,1.366,0,0,0,.545-.639l.322-.674ZM81.293-9.422h3.252a5.013,5.013,0,0,1,2.373.492,2.384,2.384,0,0,1,.75.627,2.756,2.756,0,0,1,.592,1.77q0,3.041-3.779,3.041H82.406V.3H81.293Zm1.113.938v4.066h1.846a3.806,3.806,0,0,0,2.1-.445,1.845,1.845,0,0,0,.7-1.652,1.711,1.711,0,0,0-.8-1.564,3.394,3.394,0,0,0-1.8-.4ZM92.988-6.961a3.362,3.362,0,0,1,2.449.984A3.647,3.647,0,0,1,96.5-3.246a4.22,4.22,0,0,1-.363,1.781A3.257,3.257,0,0,1,94.711.07,3.572,3.572,0,0,1,92.965.5a3.3,3.3,0,0,1-2.73-1.271,3.861,3.861,0,0,1-.791-2.479,3.558,3.558,0,0,1,1.348-2.982A3.481,3.481,0,0,1,92.988-6.961Zm-.029.9a2.155,2.155,0,0,0-1.77.891,3.042,3.042,0,0,0-.6,1.939A3.323,3.323,0,0,0,90.9-1.758a2.328,2.328,0,0,0,.826.967,2.236,2.236,0,0,0,1.254.369,2.207,2.207,0,0,0,1.477-.545,2.833,2.833,0,0,0,.9-2.268,2.987,2.987,0,0,0-.7-2.051A2.18,2.18,0,0,0,92.959-6.059Zm5.414-3.9h1.1V-.826q0,.229.217.229h.938l-.123.9H99.393a.891.891,0,0,1-1.02-1Zm3.9.363h1.318v1.307h-1.318Zm.105,2.818h1.1V.3h-1.1Zm9.686,5.941A3.707,3.707,0,0,1,109.037.5a3.4,3.4,0,0,1-2.479-.932A3.718,3.718,0,0,1,105.5-3.223a3.97,3.97,0,0,1,.656-2.285,3.22,3.22,0,0,1,1.611-1.254,3.5,3.5,0,0,1,1.189-.2,4.159,4.159,0,0,1,2.795,1.02l-.574.8a3.056,3.056,0,0,0-2.156-.9,2.139,2.139,0,0,0-1.834.914,3.121,3.121,0,0,0-.545,1.893,3.206,3.206,0,0,0,.375,1.594,2.292,2.292,0,0,0,1.131,1.02,2.4,2.4,0,0,0,.938.182,2.813,2.813,0,0,0,2.279-1.125Zm.879-5.941h1.248l1.5,3.311a13.022,13.022,0,0,1,.563,1.477h.035l.053-.117q.41-.99.574-1.336l1.559-3.334h1.236L116.332.07a2.319,2.319,0,0,1-1.055,1.148,2.791,2.791,0,0,1-1.166.211h-.445l-.3-.949h.6a1.849,1.849,0,0,0,.9-.176,1.366,1.366,0,0,0,.545-.639l.322-.674Z" transform="translate(1001 1147)" fill="#1369f0" opacity="0.57"/>
  </g>
</svg>
