<svg xmlns="http://www.w3.org/2000/svg" width="200.048" height="62.143" viewBox="0 0 200.048 62.143">
  <g id="logo-footer" transform="translate(-579.647 -1015.354)">
    <path id="Path_2068" data-name="Path 2068" d="M8.879-12.284q0,.072-.076.072L7.589-12.23H4.082A8.488,8.488,0,0,1,2.819-10.2v3.017L2.837-6a.064.064,0,0,1-.072.072H2.32A.064.064,0,0,1,2.248-6l.018-1.182V-9.6a11.2,11.2,0,0,1-1.057.9.345.345,0,0,1-.139.072q-.04,0-.121-.121a1,1,0,0,0-.3-.292,8.2,8.2,0,0,0,1.61-1.344A4.82,4.82,0,0,0,2.2-10.9q.3.018.459.036a7.045,7.045,0,0,0,.823-1.362H2.23l-1.214.018q-.076,0-.076-.072v-.4q0-.072.076-.072l1.214.018H3.7a7.28,7.28,0,0,0,.274-.854,2.062,2.062,0,0,0,.085-.548q0-.027,0-.072a5.34,5.34,0,0,1,.589.121q.121.036.121.121a.2.2,0,0,1-.072.126.964.964,0,0,0-.157.351q-.1.364-.247.755h3.3L8.8-12.756q.076,0,.076.072Zm.027,5.9a.064.064,0,0,1-.072.072l-1.29-.018H4.626l-1.281.018a.064.064,0,0,1-.072-.072v-.409a.064.064,0,0,1,.072-.072l1.281.018H5.647V-9.191H4.995l-1.209.018a.064.064,0,0,1-.072-.072v-.391a.064.064,0,0,1,.072-.072l1.209.018h.652v-.643a9.045,9.045,0,0,0-.063-1.254,5.547,5.547,0,0,1,.616.054q.112.018.112.076a.873.873,0,0,1-.036.166,3.819,3.819,0,0,0-.067.94v.661H7.1l1.2-.018a.064.064,0,0,1,.072.072v.391a.064.064,0,0,1-.072.072L7.1-9.191H6.209v2.342H7.544l1.29-.018a.064.064,0,0,1,.072.072ZM20.746-9.443v.027q0,.054-.076.063-.013,0-.157.018l-1.075.13-2.7.351v1.731a.423.423,0,0,0,.378.481A8.379,8.379,0,0,0,18.4-6.57a2.428,2.428,0,0,0,1.344-.247.8.8,0,0,0,.247-.414,3.259,3.259,0,0,0,.09-.728,1.937,1.937,0,0,0,.432.193q.157.049.157.121,0,.022-.009.1a1.632,1.632,0,0,1-.5,1.16,3.076,3.076,0,0,1-1.731.333,8.5,8.5,0,0,1-1.659-.112.739.739,0,0,1-.441-.31.925.925,0,0,1-.157-.544V-8.782l-1.843.243q-.548.067-.922.135l-.193.036a.551.551,0,0,1-.072.009.193.193,0,0,1-.036,0q-.054,0-.063-.067l-.049-.423v-.027q0-.045.076-.054.589-.049,1.214-.13L16.169-9.3v-1.385q-1.119.27-2.064.423a.566.566,0,0,1-.1.013q-.058,0-.139-.157a.893.893,0,0,0-.229-.342,20.643,20.643,0,0,0,4.419-1.039,2.094,2.094,0,0,0,.544-.288,2.743,2.743,0,0,1,.414.351.185.185,0,0,1,.063.13q0,.067-.13.081a1.456,1.456,0,0,0-.3.085q-.976.346-1.906.6V-9.38L19.4-9.731q.562-.067.94-.13.1-.013.2-.031l.067-.009a.193.193,0,0,1,.036,0q.049,0,.058.067Zm-.166-1.83a.064.064,0,0,1-.072.072H20.08Q20-11.2,20-11.273v-1.335H13.719v1.335q0,.081-.072.081h-.436q-.072,0-.072-.081l.018-.976v-.306l-.018-.508a.064.064,0,0,1,.072-.072l1.272.018h2.028v-.121a4.5,4.5,0,0,0-.067-.949q.333.018.607.058.112.013.112.072a.628.628,0,0,1-.054.166,2.586,2.586,0,0,0-.045.652v.121h2.171l1.272-.018a.064.064,0,0,1,.072.072l-.018.445v.36ZM32.742-6.44a.064.064,0,0,1-.072.072l-1.29-.018H25.81v.414q0,.076-.081.076h-.436q-.072,0-.072-.076l.018-1.879v-3.956l-.018-1.87a.064.064,0,0,1,.072-.072l1.281.018H31.3l1.259-.018q.076,0,.076.072v.418q0,.072-.076.072L31.3-13.206H25.81v6.294h5.57l1.29-.018a.064.064,0,0,1,.072.072Zm-.31-1.367a1.257,1.257,0,0,0-.243.351q-.063.135-.112.135a.515.515,0,0,1-.126-.031A4.654,4.654,0,0,1,29.272-9.5a3.052,3.052,0,0,1-.931,1.326,5.149,5.149,0,0,1-1.583.841.451.451,0,0,1-.135.04q-.049,0-.121-.121a1.084,1.084,0,0,0-.288-.3,5.067,5.067,0,0,0,1.848-.922,2.56,2.56,0,0,0,.751-1.16h-1.1l-1.29.018a.064.064,0,0,1-.072-.072v-.36a.064.064,0,0,1,.072-.072l1.29.018H28.93a7.331,7.331,0,0,0,.094-1.272H27.7a8.446,8.446,0,0,1-.6.787q-.1.1-.139.1a.423.423,0,0,1-.139-.081.97.97,0,0,0-.3-.175,5.144,5.144,0,0,0,1.066-1.475,2.319,2.319,0,0,0,.184-.607,3.683,3.683,0,0,1,.526.157q.094.036.094.1t-.085.121a1.091,1.091,0,0,0-.175.3L27.972-12h2.572l1.16-.018a.064.064,0,0,1,.072.072v.351q0,.081-.072.081l-1.16-.018h-.976a9.35,9.35,0,0,1-.1,1.272h1.529l1.3-.018a.064.064,0,0,1,.072.072v.36a.064.064,0,0,1-.072.072l-1.3-.018H29.622A4.7,4.7,0,0,0,32.432-7.806ZM45.054-9.821a1.277,1.277,0,0,0-.22.283q-.081.148-.117.148a.454.454,0,0,1-.139-.045,6.361,6.361,0,0,1-.985-.472v1.1l.018.746q0,.072-.076.072l-1.187-.018H41.9v.571l.013.85a.579.579,0,0,1-.243.544,1.7,1.7,0,0,1-.746.112h-.193a.327.327,0,0,1-.166-.022.433.433,0,0,1-.054-.153.822.822,0,0,0-.139-.333,5.053,5.053,0,0,0,.58.036.581.581,0,0,0,.36-.072.306.306,0,0,0,.067-.234v-1.3H40.9l-1.187.018a.064.064,0,0,1-.072-.072l.018-.809v-.913a7.7,7.7,0,0,1-.719.445.479.479,0,0,1-.112.045q-.036,0-.1-.094a.993.993,0,0,0-.243-.247,9.627,9.627,0,0,1-.153,1.25A5.824,5.824,0,0,1,37.3-6.076q-.085.1-.117.1t-.121-.1a.994.994,0,0,0-.333-.256A4.5,4.5,0,0,0,37.82-8.607a6.2,6.2,0,0,0,.112-.8q-.333.193-.719.378a.933.933,0,0,0-.324.211.141.141,0,0,1-.117.072q-.054,0-.094-.081-.094-.216-.2-.522a4.166,4.166,0,0,0,.755-.261q.607-.27.737-.333.018-.432.018-1.389l-.018-2.01a.064.064,0,0,1,.072-.072l1.308.018h1.695v-.153a3.155,3.155,0,0,0-.072-.737q.346.013.6.045.121.018.121.076a.554.554,0,0,1-.058.162,1.4,1.4,0,0,0-.045.436v.171h1.884l1.29-.018a.064.064,0,0,1,.072.072v.369a.064.064,0,0,1-.072.072l-1.29-.018h-4.95v1.654q0,1.092-.027,1.583a8.217,8.217,0,0,0,1.178-.724,6.31,6.31,0,0,0-.629-.638.1.1,0,0,1-.031-.054q0-.022.072-.076l.171-.126a.191.191,0,0,1,.081-.04.1.1,0,0,1,.058.031,6.211,6.211,0,0,1,.647.611,3.95,3.95,0,0,0,.764-.922H40.27l-1.3.018a.064.064,0,0,1-.072-.072V-12a.064.064,0,0,1,.072-.072l1.3.018h.764l.081-.175a2.343,2.343,0,0,0,.175-.638,4.059,4.059,0,0,1,.526.13q.094.031.094.085a.137.137,0,0,1-.067.108.963.963,0,0,0-.184.315l-.081.175h1.762l1.3-.018q.076,0,.076.072v.324q0,.072-.076.072l-1.3-.018H42.37a3.436,3.436,0,0,0,.863.922,3.558,3.558,0,0,0,.468-.4,1.011,1.011,0,0,0,.211-.283,2.379,2.379,0,0,1,.378.256.133.133,0,0,1,.058.094q0,.072-.085.09a.768.768,0,0,0-.274.175,4.3,4.3,0,0,1-.4.3A6.257,6.257,0,0,0,45.054-9.821ZM43.1-8.422v-.634H40.131v.634Zm0-1.03v-.629H40.131v.629Zm-.337-1.043a4.179,4.179,0,0,1-.9-1.124h-.495a4.445,4.445,0,0,1-.841,1.124ZM40.527-7.447q0,.063-.1.112a.62.62,0,0,0-.117.094l-.1.09a6.039,6.039,0,0,1-1.223.886.363.363,0,0,1-.139.054q-.054,0-.139-.121a.767.767,0,0,0-.265-.238,4.672,4.672,0,0,0,1.259-.773,1.736,1.736,0,0,0,.36-.441,2.634,2.634,0,0,1,.4.229A.136.136,0,0,1,40.527-7.447Zm4.087.755a1.378,1.378,0,0,0-.256.3q-.076.126-.13.126a1.266,1.266,0,0,1-.139-.063A6.869,6.869,0,0,1,42.7-7.406a.078.078,0,0,1-.022-.045q0-.036.085-.094l.175-.13q.072-.063.1-.063a.09.09,0,0,1,.049.027A5.391,5.391,0,0,0,44.613-6.691ZM37.753-11.1a.136.136,0,0,1,.013.049q0,.022-.094.081l-.229.139a.293.293,0,0,1-.1.04q-.031,0-.054-.063a6.489,6.489,0,0,0-.62-1.443.111.111,0,0,1-.018-.049q0-.031.1-.09l.193-.108a.268.268,0,0,1,.108-.045q.027,0,.058.054A6.648,6.648,0,0,1,37.753-11.1Zm18.631.45q.884-.529,2.027-1.126l.309.546a18.492,18.492,0,0,0-2.763,1.544A2.107,2.107,0,0,0,54.9-8.008q0,1.117,1.786,1.117.918,0,2.1-.085v.622q-1.451.042-2.141.042-2.34,0-2.34-1.705a2.794,2.794,0,0,1,1.532-2.289q-.364-1.324-.673-3.11l.639-.025A25.469,25.469,0,0,0,56.384-10.652Zm17.995.022a1.688,1.688,0,0,0-.265.382q-.076.139-.121.139a.509.509,0,0,1-.139-.045,8.611,8.611,0,0,1-2.311-1.511,9.178,9.178,0,0,1-1.47-1.785,8.114,8.114,0,0,1-1.627,2.037,10.138,10.138,0,0,1-1.965,1.326.781.781,0,0,1-.148.063q-.036,0-.121-.139a1.2,1.2,0,0,0-.274-.351,7.365,7.365,0,0,0,3.637-3.219,2.962,2.962,0,0,0,.229-.562,3.971,3.971,0,0,1,.571.108q.13.045.13.121a.1.1,0,0,1-.063.09.207.207,0,0,0-.085.067A8.493,8.493,0,0,0,72.2-11.848,8.411,8.411,0,0,0,74.379-10.63Zm-5.2-.121q0,.009-.036.175a4.235,4.235,0,0,0-.054.863,5.753,5.753,0,0,1-.175,1.547,3.134,3.134,0,0,1-.418.9,3.982,3.982,0,0,1-1.636,1.317.363.363,0,0,1-.139.054q-.031,0-.13-.139a1.325,1.325,0,0,0-.319-.337,3.281,3.281,0,0,0,1.749-1.245A3.942,3.942,0,0,0,68.5-9.722a7.307,7.307,0,0,0-.063-1.16q.319.018.625.049Q69.177-10.819,69.177-10.751Zm2.585-.018a.314.314,0,0,1-.022.09q-.018.063-.022.085a7.23,7.23,0,0,0-.045,1.048v2.333l.018,1.178q0,.063-.072.063h-.463q-.072,0-.072-.063L71.1-7.213V-9.537a10.139,10.139,0,0,0-.063-1.371,5.509,5.509,0,0,1,.625.058Q71.762-10.837,71.762-10.769ZM85.984-8.926q0,.072-.076.072L84.73-8.872H82.788L81.6-8.854a.064.064,0,0,1-.072-.072l.018-.859v-1.232a5.1,5.1,0,0,1-.423.481q-.1.1-.135.1t-.121-.112a.6.6,0,0,0-.22-.193A5.378,5.378,0,0,0,81.7-11.983a1.585,1.585,0,0,0,.22-.553,2.478,2.478,0,0,1,.463.144q.081.036.081.094t-.081.1a1.284,1.284,0,0,0-.211.3h1.286a1.654,1.654,0,0,0,.157-.306,1.272,1.272,0,0,0,.085-.328,4.208,4.208,0,0,1,.45.108q.081.027.081.085t-.063.09a.355.355,0,0,0-.1.139l-.121.211H84.7l1.1-.018a.064.064,0,0,1,.072.072v.279a.064.064,0,0,1-.072.072l-1.1-.018h-.746v.5H84.5l1.048-.018q.076,0,.076.072v.261q0,.072-.076.072L84.5-10.648h-.544v.486h.553l1.048-.018q.076,0,.076.081v.252q0,.072-.076.072L84.51-9.794h-.553v.535h.773l1.178-.018q.076,0,.076.072Zm-2.5-.333v-.535H82.006v.535Zm0-1.758v-.5H82.006v.5Zm0,.854v-.486H82.006v.486Zm2.891,3.7a1,1,0,0,0-.193.315q-.072.162-.148.162a.95.95,0,0,1-.1-.009,7.623,7.623,0,0,1-2.329-.661,8.73,8.73,0,0,1-2.392.692q-.1.013-.126.013-.076,0-.135-.153a1,1,0,0,0-.184-.315,9.194,9.194,0,0,0,2.369-.526A4.308,4.308,0,0,1,82.1-7.977q-.369,0-.656.013l-.2,0a.064.064,0,0,1-.072-.072v-.315a.064.064,0,0,1,.072-.072L82.4-8.4h2.338a.506.506,0,0,0,.175-.018.356.356,0,0,1,.094-.036q.09,0,.247.157t.157.229a.128.128,0,0,1-.081.108.873.873,0,0,0-.243.2,5,5,0,0,1-.994.827A8.971,8.971,0,0,0,86.38-6.458Zm-1.713-1.52H82.649a3.9,3.9,0,0,0,.958.809A4.087,4.087,0,0,0,84.667-7.977ZM80.589-6.125q0,.072-.076.072h-.36a.064.064,0,0,1-.072-.072V-6.44h-1.2v.49q0,.063-.072.063h-.369q-.076,0-.076-.063L78.377-7.3V-7.86l-.018-.809a.064.064,0,0,1,.072-.072l.76.018h.557l.769-.018a.064.064,0,0,1,.072.072L80.567-8v.58Zm-.508-.755V-8.274h-1.2V-6.88ZM86.2-13.035q0,.072-.076.072l-1.259-.018h-.211l.018.432a.068.068,0,0,1-.076.076h-.369q-.072,0-.072-.076,0-.013.009-.144t.009-.288H82.851l.018.432q0,.076-.072.076h-.36q-.072,0-.072-.076,0-.013,0-.144t.013-.288h-.094l-1.259.018q-.076,0-.076-.072v-.315q0-.072.076-.072l1.259.018h.094v-.18a3.487,3.487,0,0,0-.045-.589,3.444,3.444,0,0,1,.513.054q.1.018.1.072a.238.238,0,0,1-.027.085.681.681,0,0,0-.076.346v.211h1.326v-.18a2.681,2.681,0,0,0-.054-.589,3.957,3.957,0,0,1,.535.054q.1.018.1.072a.238.238,0,0,1-.027.085.694.694,0,0,0-.072.337v.22h.211l1.259-.018q.076,0,.076.072Zm-5.359.985q0,.085-.076.085l-.917-.018H79l-.922.018q-.072,0-.072-.085v-.387q0-.063.072-.063l.922.018h.85l.917-.018q.076,0,.076.063Zm-.184-1.241q0,.072-.076.072l-.773-.018h-.634l-.773.018a.064.064,0,0,1-.072-.072v-.36a.064.064,0,0,1,.072-.072l.773.018h.634l.773-.018q.076,0,.076.072Zm-.193,3.754q0,.067-.085.067l-.688-.018H79.2l-.7.018q-.076,0-.076-.067V-9.9a.068.068,0,0,1,.076-.076l.7.018h.49l.688-.018q.085,0,.085.076Zm0-1.259q0,.072-.085.072l-.688-.018H79.2l-.7.018q-.076,0-.076-.072v-.36q0-.072.076-.072l.7.018h.49l.688-.018q.085,0,.085.072ZM93.346-9.434v1.821H92.73V-9.151q-.211.108-.436.234-1.178.665-1.178,1.335a.61.61,0,0,0,.414.62,4.207,4.207,0,0,0,1.367.153q.967,0,2.243-.112l.027.625q-1.677.085-2.225.085a3.866,3.866,0,0,1-1.951-.337A1.165,1.165,0,0,1,90.527-7.6a2.017,2.017,0,0,1,1.236-1.677q.468-.265.958-.508-.045-.863-.6-.863-.773,0-2.122,1.556l-.477-.423a10.753,10.753,0,0,0,1.906-2.72q-.841.013-1.686,0V-12.8q.971.018,1.942,0a8.228,8.228,0,0,0,.414-1.232l.665.121a9.456,9.456,0,0,1-.387,1.083q1.295-.04,2.459-.157l.018.562q-1.511.121-2.724.157a9.4,9.4,0,0,1-.773,1.308l-.234.238.027.036a1.639,1.639,0,0,1,1.1-.468,1,1,0,0,1,.733.279,1.3,1.3,0,0,1,.346.8q.719-.328,1.87-.814l.256.629Q93.958-9.7,93.346-9.434Zm13.746,2.94a1.136,1.136,0,0,0-.274.4q-.067.148-.135.148a.85.85,0,0,1-.126-.018,10.432,10.432,0,0,1-3.6-1.565,11.333,11.333,0,0,1-3.511,1.556.625.625,0,0,1-.121.022q-.049,0-.126-.153a1.3,1.3,0,0,0-.247-.351,11.079,11.079,0,0,0,3.552-1.434,6.412,6.412,0,0,1-1.618-2.266q-.472,0-.818.013-.063,0-.18,0h-.054a.064.064,0,0,1-.072-.072v-.409q0-.063.072-.063l1.281.018h1.529v-1.475H100.38l-1.223.018q-.076,0-.076-.072v-.409q0-.072.076-.072l1.223.018h2.266v-.4a5.54,5.54,0,0,0-.072-1.115q.382.018.643.054.13.018.13.094a.314.314,0,0,1-.022.094.847.847,0,0,0-.036.09,3.025,3.025,0,0,0-.063.746v.432h2.423l1.223-.018a.064.064,0,0,1,.072.072v.409a.064.064,0,0,1-.072.072l-1.223-.018h-2.423v1.475h1.529a.624.624,0,0,0,.229-.036.339.339,0,0,1,.094-.018q.072,0,.247.175t.175.261q0,.054-.09.117a.7.7,0,0,0-.193.22,7.834,7.834,0,0,1-1.789,2.055A10.057,10.057,0,0,0,107.092-6.494Zm-2.441-3.655H101.5a5.672,5.672,0,0,0,1.475,1.933A6.8,6.8,0,0,0,104.651-10.149Zm7.212-3.871q1.583.328,3.444.535l-.148.625a30.662,30.662,0,0,1-3.462-.58Zm-1.272,2.171q1.753-.049,4.446-.283l.387.486q-.652.593-2.284,2.266a.792.792,0,0,1,.3-.054.874.874,0,0,1,.7.36,1.739,1.739,0,0,1,.342.836,3.448,3.448,0,0,0,.319,1.2.635.635,0,0,0,.531.175,9.776,9.776,0,0,0,1.124-.063v.652q-.454.04-1.124.04a1.3,1.3,0,0,1-1.142-.4,3.355,3.355,0,0,1-.324-1.2,2.392,2.392,0,0,0-.225-.827.443.443,0,0,0-.4-.229.77.77,0,0,0-.432.112,1.886,1.886,0,0,0-.387.391q-.638.8-1.614,2.167l-.616-.315a50.578,50.578,0,0,1,4.1-4.963q-1.879.193-3.646.247Zm8.773-1.583q1.218-.009,3.745-.13l.387.481q-1.794,1.821-2.846,2.733l-.414.36.036.027.472-.319a3.035,3.035,0,0,1,1.3-.351,2.333,2.333,0,0,1,1.78.656,2.02,2.02,0,0,1,.531,1.452,2.181,2.181,0,0,1-.841,1.87,3.5,3.5,0,0,1-2.118.557q-1.8,0-1.8-1.223a1.069,1.069,0,0,1,.387-.863,1.429,1.429,0,0,1,.94-.3,1.515,1.515,0,0,1,1.169.495,2.265,2.265,0,0,1,.517,1.106,1.7,1.7,0,0,0,.827-.643,1.922,1.922,0,0,0,.238-1.012,1.467,1.467,0,0,0-.571-1.232,1.756,1.756,0,0,0-1.1-.346,3.222,3.222,0,0,0-2.225.895,8.186,8.186,0,0,0-.764.8l-.544-.441q2.2-2.266,4.033-4.127-1.322.1-3.138.148Zm2.594,6.739a1.989,1.989,0,0,0-.409-.94.839.839,0,0,0-.647-.31.736.736,0,0,0-.531.2.545.545,0,0,0-.18.409.572.572,0,0,0,.306.544,1.889,1.889,0,0,0,.854.148A3.97,3.97,0,0,0,121.957-6.691Z" transform="translate(579 1029.648)" fill="#f1a1b4" opacity="0.95"/>
    <g id="Group_956" data-name="Group 956" transform="translate(580.548 1032.276)">
      <path id="_パス_1380-2" d="M18.364,70.719H2.72V40.77H5.983V67.929H18.364Z" transform="translate(-2.72 -38.799)" fill="#f1a1b4"/>
      <path id="_パス_1381-2" d="M55.231,45.907a2.117,2.117,0,0,1-2.122-2.113V43.67a2.143,2.143,0,0,1,4.285-.1v.092A2.086,2.086,0,0,1,55.475,45.9a1.439,1.439,0,0,1-.244,0ZM56.883,71.1H53.62V49.676h3.263V71.1Z" transform="translate(-29.917 -39.182)" fill="#f1a1b4"/>
      <path id="_パス_1382-2" d="M81.236,46.983c0-2.674,0-6.172,2.357-8.57a7.071,7.071,0,0,1,4.952-1.924,7.886,7.886,0,0,1,3.185.631l-.548,2.554a6.119,6.119,0,0,0-2.476-.511c-3.378,0-4.207,3.144-4.207,6.6v1.22h5.187v2.554H84.5V68.408H81.236V49.542H78.29V46.987h2.946Z" transform="translate(-43.509 -36.488)" fill="#f1a1b4"/>
      <path id="_パス_1383-2" d="M132.317,79.2a15.49,15.49,0,0,1-6.72,1.335c-6.255,0-9.987-4.4-9.987-10.807,0-6.72,3.774-11.557,9.55-11.557,6.6,0,8.294,6.052,8.294,9.785,0,.746-.041,1.3-.078,1.809H118.8c.041,5.933,3.42,8.169,7.272,8.169a13.548,13.548,0,0,0,5.62-1.1l.631,2.356h0Zm-2.085-11.865c.041-2.909-1.178-6.683-5.385-6.683-3.935,0-5.661,3.733-5.974,6.683Z" transform="translate(-63.652 -48.191)" fill="#f1a1b4"/>
      <path id="_パス_1384-2" d="M213.735,43.94a10.167,10.167,0,0,0-5.265-1.376c-4.165,0-5.739,2.554-5.739,4.718,0,2.946,1.809,4.437,5.818,6.131,4.833,2.044,7.309,4.52,7.309,8.8,0,4.754-3.461,8.409-9.9,8.409a13.788,13.788,0,0,1-7.152-1.887l.907-2.711a12.178,12.178,0,0,0,6.448,1.846c4.009,0,6.365-2.163,6.365-5.385,0-2.946-1.615-4.754-5.5-6.328-4.52-1.689-7.585-4.322-7.585-8.45,0-4.561,3.7-7.9,9.159-7.9a12.192,12.192,0,0,1,6.131,1.413l-.98,2.711h0Z" transform="translate(-108.554 -38.278)" fill="#f1a1b4"/>
      <path id="_パス_1385-2" d="M253.485,49.54l3.222-1.1v4.989h5.541v2.554h-5.541V68.364c0,2.711.824,4.207,2.909,4.207a6.483,6.483,0,0,0,2.2-.313l.2,2.518a8.251,8.251,0,0,1-3.185.511c-5.187,0-5.348-4.718-5.348-7v-12.3h-3.3V53.434h3.3V49.545Z" transform="translate(-136.286 -42.939)" fill="#f1a1b4"/>
      <path id="_パス_1386-2" d="M306.341,74.991a30.106,30.106,0,0,0,.313,5.109h-2.987l-.318-2.752h-.12a7.448,7.448,0,0,1-6.328,3.222,5.943,5.943,0,0,1-6.25-5.61c-.009-.161-.009-.318,0-.479,0-5.146,4.483-7.939,12.418-7.9,0-1.809,0-5.9-4.874-5.9a9.3,9.3,0,0,0-5.228,1.533l-.787-2.241a12.167,12.167,0,0,1,6.536-1.809c6.052,0,7.626,4.285,7.626,8.528v8.294Zm-3.222-6.011c-4.05,0-9.118.589-9.118,5.109,0,2.752,1.731,3.967,3.7,3.967a5.233,5.233,0,0,0,5.422-5.031v-4.05Z" transform="translate(-158.126 -48.19)" fill="#f1a1b4"/>
      <path id="_パス_1387-2" d="M356.551,61.487a9.212,9.212,0,0,0-1.178-.078c-3.539,0-5.348,3.5-5.348,7.115V80.16h-3.259V65.146c0-2.278-.041-4.363-.156-6.407h2.867l.156,4.128h.12a6.411,6.411,0,0,1,5.813-4.6,7.708,7.708,0,0,1,.98.12V61.5h0Z" transform="translate(-188.334 -48.245)" fill="#f1a1b4"/>
    </g>
    <g id="_グループ_125" transform="translate(754.842 1019.367)">
      <path id="_パス_1407" d="M408.447,12.44a.413.413,0,0,0-.055-.11C408.337,12.5,408.447,12.44,408.447,12.44Z" transform="translate(-395.965 -10.54)" fill="#f2a5ba"/>
      <path id="_パス_1408" d="M407.528,16.14l-.028.253.028-.226Z" transform="translate(-395.492 -12.596)" fill="#f2a5ba"/>
      <path id="_パス_1409" d="M406.6,17.644h.028s.143,0,.166-.055h0l-.11-.226h0l.055-.253a.613.613,0,0,0-.253.055h0l.11.226a7.623,7.623,0,0,1-.253.838c.11-.083.166-.364.226-.585h.028Zm.11-.253-.055.193Z" transform="translate(-394.866 -13.12)" fill="#f2a5ba"/>
      <path id="_パス_1410" d="M405.315,20.76h0a.394.394,0,0,1-.055.193c.055-.028,0,.193.083-.193Z" transform="translate(-394.283 -15.09)" fill="#f2a5ba"/>
      <path id="_パス_1412" d="M404.707,22.186V21.96s-.083.226-.083.143c-.055.226,0,.193.083.083Z" transform="translate(-393.928 -15.737)" fill="#f2a5ba"/>
      <path id="_パス_1414" d="M404.955,22.15l-.055.253s.055,0,0-.11V22.15Z" transform="translate(-394.089 -15.84)" fill="#f2a5ba"/>
      <path id="_パス_1415" d="M405.02,22.712l.028-.083.06-.419-.083.5h0Z" transform="translate(-394.153 -15.872)" fill="#f2a5ba"/>
      <path id="_パス_1417" d="M401.762,26.03s-.143-.083-.028-.11a2.764,2.764,0,0,0-.474.083h.5Z" transform="translate(-392.124 -17.875)" fill="#f2a5ba"/>
      <path id="_パス_1418" d="M400.77,26.211s.143-.028.225-.055A.3.3,0,0,0,400.77,26.211Z" transform="translate(-391.86 -18)" fill="#f2a5ba"/>
      <path id="_パス_1424" d="M401.341,26.368s-.253.028-.391.028h.474s.083-.055-.083-.055h0v.028Z" transform="translate(-391.957 -18.101)" fill="#f2a5ba"/>
      <path id="_パス_1428" d="M399.86,26.331a.677.677,0,0,1,.193.028C400,26.359,399.86,26.3,399.86,26.331Z" transform="translate(-391.368 -18.092)" fill="#f2a5ba"/>
      <path id="_パス_1430" d="M402.756,26.4a.266.266,0,0,0-.166.055h.166Z" transform="translate(-392.842 -18.134)" fill="#f2a5ba"/>
      <path id="_パス_1431" d="M396.555,26.636s.617.083.391.143c-.364.028-.308,0-.474-.055.143.083-.474.11-.391.226l.308-.055s-.11.055,0,.055c0-.055.336-.11.617-.055.281-.055.083-.253-.143-.364,0,0,0,.055-.281.083h0l-.023.023Z" transform="translate(-389.325 -18.204)" fill="#f2a5ba"/>
      <path id="_パス_1432" d="M397.8,26.423h.644a2.814,2.814,0,0,1-.391-.083c-.193.028-.225.055-.253.083Z" transform="translate(-390.256 -18.101)" fill="#f2a5ba"/>
      <path id="_パス_1434" d="M402.426,26.82h-.446l.226.083h0c.253,0,.193-.055.226-.083Z" transform="translate(-392.513 -18.361)" fill="#f2a5ba"/>
      <path id="_パス_1435" d="M397.378,26.363l.055-.083-.253.11.193-.028h0Z" transform="translate(-389.922 -18.069)" fill="#f2a5ba"/>
      <path id="_パス_1436" d="M396.178,26.4l.028-.055-.166.028.143.028h0Z" transform="translate(-389.307 -18.101)" fill="#f2a5ba"/>
      <path id="_パス_1437" d="M405.015,45.232l-.055.11.11-.143h-.055Z" transform="translate(-394.121 -28.281)" fill="#f2a5ba"/>
      <path id="_パス_1439" d="M392.46,27.1l.055-.028S392.46,27.07,392.46,27.1Z" transform="translate(-387.374 -18.496)" fill="#f2a5ba"/>
      <path id="_パス_1441" d="M404.9,20.466s-.281.281-.166.193l.308-.226h-.083a3.04,3.04,0,0,1,.557-.474c.308-.166.253-.083.391-.166,0,0,.055,0,.166-.11l.672-.474-.5.226c.143-.166.557-.391,0-.11.111-.055.253-.11.391-.193a2.8,2.8,0,0,1-.391-.028v-.055a.806.806,0,0,0-.193-.11c-.083,0-.11,0-.364.11a.187.187,0,0,0-.166-.11,1.179,1.179,0,0,0-.557.143h-.948a5,5,0,0,1-.644.055h0a.45.45,0,0,0-.166-.143.687.687,0,0,0-.419.143c-.143-.083-.672-.028-.861-.166.083.028-.028.055-.193.055-.281-.083-.617-.193-.7-.226a.138.138,0,0,1-.083-.028c-.11-.028-.193,0-.529.226h-.391a4.653,4.653,0,0,1-.617-.055h-.083c-.281-.083-.672-.166-.782-.193v-.12h0a1.741,1.741,0,0,0-.028-.308,6.44,6.44,0,0,0-.11-.727.554.554,0,0,0-.17-.106H398.1l-.055-.11.055-.226a3.3,3.3,0,0,0,.143-1.036.5.5,0,0,0-.166-.11c-.111,0-.111-.028-.474.193l-.083-.193v-.06a5.94,5.94,0,0,0-.028-.81.5.5,0,0,0-.166-.11h-.11l.083-.253a3.061,3.061,0,0,0,.281-1.059.5.5,0,0,0-.166-.11.6.6,0,0,0-.308.083v-.055c-.037-.028-.078-.055-.11-.083l-.055-.11a6.724,6.724,0,0,1-.336-.644.232.232,0,0,0-.166-.11h-.166a.26.26,0,0,0-.028-.166.264.264,0,0,0-.143-.11.411.411,0,0,0-.253.055h-.032l.11.226-.11.055-.028-.143c0,.083-.226.585-.336.921a3.281,3.281,0,0,0-.336,1.118.5.5,0,0,0,.166.11c.083,0,.11.028.5-.193a4.193,4.193,0,0,1-.336.364c-.308.308-.529.557-.727.782l.055-.083v-.143a1.506,1.506,0,0,0-.083.281c-.446.474-.557.644-.585.755a1.021,1.021,0,0,1-.083.226c.028-.055.083-.143.111-.143h0v.028h.028s.083.11.166.11a3.75,3.75,0,0,0,1.118-.529c-.193.193-.391.364-.557.557-.557.557-.921.893-1.146,1.146h0s-.166.193-.226.253v-.1s-.083.226-.143.226h.055c-.11.143-.083.193,0,.281,0,0,.028.055.055.055h0V18.7h0v-.055h.11l-.055.083a.091.091,0,0,0,.083-.055h0s.419-.193,1.758-.948c.585-.336,1.395-.81,1.592-.893a.181.181,0,0,0,.11-.028.066.066,0,0,0,.055-.028s.055,0,.055.028a1.035,1.035,0,0,0,.083.281l.055-.083a.833.833,0,0,1,.055.336c.193.166-.166-.529,0-.364a1.147,1.147,0,0,0,.083.446c-.193,0-.585.166-4.5,2.375-.948.557-2.039,1.174-2.821,1.592.166-.193.364-.391.529-.585.948-1.022,1.385-1.6,1.312-1.731a.5.5,0,0,0-.111-.083h-.083s.193-.055-.028-.083h.281a1.058,1.058,0,0,1-.267-.032h-.557a2.285,2.285,0,0,0,.5,0c-.083.055-.308.083-.226.166-.083.028-.193.11-.364.193h-.028c-.226.143-.557.308-1.036.585-.336.193-.755.419-1.035.585l.083-.308c.193-.81.225-.921.193-1h.166c.028-.055-.055-.055-.193-.055a.388.388,0,0,0-.11-.083,1.536,1.536,0,0,1,.5-.028c-.166-.083-.083,0-.336-.083.226.143-.893,0-.529.143a1.021,1.021,0,0,0-.225-.083.214.214,0,0,0,0-.253.232.232,0,0,0-.166-.11,3.271,3.271,0,0,0-.755.336h-.055l-.143.083-.111.055a1.037,1.037,0,0,0-.474.055c-.253,0,.055-.028-.11-.083l-.253.055-.225-.055-.166-.11h0a2.2,2.2,0,0,1-.336-.193c-.028,0-.055-.055-.11-.055a.622.622,0,0,0-.364.11l-.11.055a1.039,1.039,0,0,1-.166-.11.21.21,0,0,0-.11-.055.411.411,0,0,0-.253.055h-.055l.055.166h-.11l.143.083h-.055s0,.083.055.11v.11h.143c.11.055.253.166.5.336.226.143.474.336.557.391.083.083.166.083.308.028.055.028.11.083.166.11a3.152,3.152,0,0,0,.193.5.265.265,0,0,0,.143.11.685.685,0,0,0,.083.193.231.231,0,0,0,.166.11h.166c.083.083.193.193.364.391s.391.419.419.446a.146.146,0,0,0,.143.083.465.465,0,0,0,.336-.11h0s.281.083.585.166h.055c-.11.193-.083.253,0,.336a.182.182,0,0,0,.147.1.744.744,0,0,0,.281-.055,11.088,11.088,0,0,0,.976.7q0,.143.055.166a.232.232,0,0,0,.166.11.544.544,0,0,0,.226-.028l.336.419c.11.166.253.308.308.391a1.729,1.729,0,0,0-.083.193c0,.028-.028.055-.028.11-.028.11-.055.253-.083.391h0c-.861,1-1.252,1.574-1.174,1.7a.5.5,0,0,0,.166.11c.083,0,.111,0,.419-.143,0,.055.055.028.111,0v.193c-.055,0-.083.083-.111.143-.557.419-.5.5-.419.644,0,.055.055.083.111.11a.22.22,0,0,0,0,.226h.032c-.083.253-.193.557-.281.782l-.166.446h0c-.166.446-.166.474-.111.557h0c0,.143-.055.253-.055.446l-.083.055c-.014.092-.032.189-.055.281a.431.431,0,0,1-.11.281,2.655,2.655,0,0,0-.143.308,15.019,15.019,0,0,0,1.339-.838c.281-.193.585-.391.861-.557a6.177,6.177,0,0,1,.584-.336c-.253-.055.419-.166.364-.308.083,0,.193-.055.083.055.364-.308.644-.336.838-.617.083,0-.055.11,0,.11,0-.028.11-.11.166-.11s-.028.055-.083.143c.391-.281.364-.419.308-.529a.7.7,0,0,0,.446-.336c.083,0,.253-.055,0,.11.143-.083.893-.529.861-.617.055,0,.193-.143.225-.166l.336-.226a1.038,1.038,0,0,0,.166-.11h0a.45.45,0,0,0,.166.143.545.545,0,0,0,.226-.028c.253.226.308.253.391.281l.055.055c.193.193.419.446.446.474a.146.146,0,0,0,.143.083.392.392,0,0,0,.226-.055h0a1.45,1.45,0,0,1-.028.281,3.558,3.558,0,0,0-.083,1.036.5.5,0,0,0,.166.11l1-.474.083-.055h0s-.143.055.055.193c0,.028.11.083.193.11-.226.281-.193.308-.11.419a.232.232,0,0,0,.166.11c.111,0,.111.028.585-.226a1.028,1.028,0,0,1,.253.193c-.055-.083-.083-.166.083-.083a1.513,1.513,0,0,1,.336.281,2.638,2.638,0,0,0,.055.81.231.231,0,0,0,.166.11c.111,0,.111.028.727-.308.253.143.585.336.755.419a.718.718,0,0,0,0,.281.232.232,0,0,0,.166.11h.055a.2.2,0,0,0,.166-.055,1.431,1.431,0,0,0,.364.253c-.055-.11-.083-.253-.143-.391h.028s.166-.226.083-.336c0-.028-.055-.055-.083-.083h0s.143-.226.083-.336c0-.028-.055-.055-.083-.083a2.422,2.422,0,0,0,.111-.861.232.232,0,0,0-.166-.11c-.083,0-.11,0-.419.143-.028-.083-.028-.11-.055-.11l-.046-.069a3.632,3.632,0,0,0-.193-.529.792.792,0,0,0-.166-.226c0-.11.028-.028.055-.028l-.055-.193c.364-.617.336-.644.281-.755a.231.231,0,0,0-.166-.11.6.6,0,0,0-.309.083c.055-.166.083-.336.143-.474V26.5a.723.723,0,0,0,.083-.193,1.59,1.59,0,0,0,.11-.7.232.232,0,0,0-.166-.11,2.343,2.343,0,0,0-.617.253,2.5,2.5,0,0,0-.193-.474s.028,0,.055.055a4.478,4.478,0,0,1-.308-1.091c0-.083-.055-.166-.055-.253v-.11h-.055v-.055a.952.952,0,0,0,.055-.226h0s.143-.143.111-.226l.584-.419h0c1-.7,2.039-1.339,2.987-1.984h-.166l.336-.253c.111-.028.166,0-.055.143.083,0,.166-.083.253-.166.055-.083.143-.193.143-.193.336-.193.336-.166.226-.055h0l-.115.023Zm.976-.7-.143.083C405.9,19.707,405.881,19.739,405.881,19.767Zm-14.691,3.125h0s-.083-.143-.166-.143h-.083v-.143h.083a.116.116,0,0,0,.055.11.187.187,0,0,0,.166.11c.193.055.364,0,3.6-1.9.364-.193.755-.446,1.118-.644-.419.308-.838.644-1.2.948-1.51,1.2-2.237,1.758-2.568,2.067h0a1.732,1.732,0,0,0-.166-.11s-.055-.055-.083-.055l-.055-.055s-.225-.336-.281-.281a.436.436,0,0,1-.143.474c-.11-.143-.193-.281-.253-.336h0l-.023-.046Zm6.255-4.805a.5.5,0,0,0,.166.11h.111a.827.827,0,0,1,.028.336c.11.281.055-.11.166.166v.083l.055.055h0a.32.32,0,0,0-.143-.055c-.166-.028-.226-.055-3.3,1.731-.419.253-.861.5-1.312.755.419-.336.893-.672,1.312-.976,1.7-1.256,2.513-1.9,2.9-2.232h0v.028Zm2.826,4.86v-.083l.474-.308c-.253.193.055.143-.391.391l.143-.226-.253.193h0l.023.028Zm-.81.557h.083c-.644.336-1.758.948-3.8,2.122.782-.474,1.592-.976,2.347-1.427.782-.474,1.482-.893,2.094-1.289l-.083.055-.083.055-.11.083s-.281.193-.5.336v.055h.055Zm.5,3.1a.5.5,0,0,0,.166.11h.111c-.253.143-.529.308-.893.5l-.391.226a3.611,3.611,0,0,0,.281-.308c.281-.281.474-.5.672-.7,0,.143.028.143.055.166h0Zm-1.813.5s.055.083,0,.083Zm.111,0a.5.5,0,0,0-.111-.055V26.97c.226-.11.585-.336,1.2-.7l.083-.055c-.193.193-.391.419-.557.585-.193.193-.364.391-.5.529-.083-.11-.11-.166-.11-.226h0Zm-1.229-1.537a.138.138,0,0,0-.028-.083h0c.672-.419,1.312-.782,1.869-1.091h0a.205.205,0,0,0,.193,0h0c-.193.11-.5.308-1,.585-.336.193-.727.419-.976.557h0l-.055.028Zm2.651-1.118a.138.138,0,0,0-.028-.083c0-.028-.055-.055-.083-.083h0l.083-.055.055.11v.083h-.028v.028Zm-.087.281c-.143.446-.143.474-.083.557a.187.187,0,0,0,.166.11h.055v.083c-.166.11-.391.226-.644.391-.166.11-.364.226-.557.336.1-.133.2-.267.308-.391.446-.585.672-.893.782-1.059h0Zm.585,2.623a2.071,2.071,0,0,0-.7.308l.11-.055c.226-.143.5-.281.727-.419l-.166.166Zm.5,1.118a.26.26,0,0,1-.083-.055l.143-.083-.083.143h.023Zm.143-.732s-.364.193-.7.391a4.9,4.9,0,0,1,.364-.391l.253-.281s.055.166.083.281ZM397.891,23c-1.51.861-3.213,1.846-4.58,2.623,1.059-.672,2.292-1.45,3.406-2.149a64.342,64.342,0,0,0,5.726-3.742h0a1.155,1.155,0,0,0,.5-.193h0s.083.281.11.419v.055c-1.118.617-2.794,1.565-5.224,2.987h.055Zm.166-3.908h0v.193a.116.116,0,0,0-.055-.11C398,19.145,398.056,19.118,398.056,19.09Zm-.083.11c.055.143.11.308.166.446h.7c-.644.364-1.537.861-2.849,1.62-.644.364-1.339.782-1.984,1.146.336-.281.727-.557,1.059-.838a35.933,35.933,0,0,0,2.9-2.38h0Zm3.378.341H401.3a1.119,1.119,0,0,1,.391-.055c-.617.308-1.786.976-4.078,2.32-1,.585-2.177,1.256-3.185,1.846.474-.308.976-.644,1.45-.976,2.711-1.813,3.908-2.651,4.414-3.07a6.771,6.771,0,0,0,1.059-.055Zm-5.081,2.122c.446-.253.92-.529,1.395-.81-.7.474-1.427.976-2.094,1.427-1.758,1.174-2.739,1.846-3.3,2.26v-.055h-.028l.166-.11s0-.028-.055-.055v-.055h.055s.11-.11.11-.193c.226-.281.308-.391.281-.474.5-.253,1.482-.81,3.438-1.956h0l.023.028Zm-4.244,3.01h0l-.055.055v-.055Zm.166.672a56.5,56.5,0,0,0,5.247-2.9c-.336.226-.672.419-1,.644-2.094,1.312-3.489,2.2-4.441,2.794.253-.391.226-.446.166-.529h.032Zm-.584-.143a.152.152,0,0,0,.055.11v.055l-.111.083v-.11l.055-.11h0Zm-.727,2.9h0l.083-.226s.083.028.083.055v-.253s.028-.166.028-.193c.055,0,.11-.055.166-.083a.376.376,0,0,1,.028-.143c.921-.446,2.821-1.51,6.9-3.88,1.312-.755,2.794-1.592,4.05-2.32-1.339.838-2.932,1.813-4.386,2.679-4.156,2.541-6.089,3.742-6.982,4.354h.032Zm10.305-5.8a1.675,1.675,0,0,1-.143.166l-.055-.055.193-.11h0Zm-4.5,3.852s-.083-.083-.143-.083h-.055l.143-.083v.055a.187.187,0,0,0,.166.11c.143.028.166.028,1.51-.755l.364-.193-.225.308a11.931,11.931,0,0,0-.92,1.289c-.143-.083-.308-.143-.474-.253-.193-.166.083,0,0-.11l-.166-.055-.226-.226h0l.028-.009Zm7.235-6.7.11.055h.083l.055-.055h.028l-.617.308-.051-.184a1.457,1.457,0,0,1,.364-.143h0l.023.023Zm-5.247-.644-.055-.055Zm-2.347-5.854h0l-.083.055.055-.11v.055Zm-.336.755c.11-.308.193-.529.253-.7l.055.083s-.055.308-.143.308a.712.712,0,0,1,.143.391l-.253.143-.193.11L396,13.71h0Zm-.083,1.56c.281-.281.474-.529.644-.7,0,.028.028.055.055.083,0,.11-.083-.083-.083,0a.832.832,0,0,1,.226.419c-.111,0-.281.11-1.174.617h-.055l.391-.391h0V15.27Zm-.7,2.094-.276.166.391-.391c.755-.755,1.2-1.174,1.427-1.45h.193a3.26,3.26,0,0,1,.143.5v.193h0c-.143-.028-.166-.055-1.869.948h0l-.009.028Zm-1.873,2.84c.755-.419,1.565-.893,2.292-1.312-.419.336-.893.672-1.312.976a19.446,19.446,0,0,0-3.185,2.541.181.181,0,0,1-.083-.083l.083.083v.055a.327.327,0,0,1-.143-.028v-.083a2.8,2.8,0,0,0-.11-.755c.557-.308,1.367-.755,2.458-1.395h0Zm-2.849,0,.391-.226c-.166.166-.308.336-.446.5-.446.474-.755.81-.948,1.036h-.143v-.051c-.225-.143-.364-.281-.529-.391.143,0,.226,0,1.7-.861h0l-.023-.009ZM388,20.429c-.193-.253.308.193.166-.028a.417.417,0,0,1-.253-.083l-.193-.083h0l.474-.281c.193-.115.419-.253.644-.364l-.083.364c-.166.755-.193.861-.166.948-.055-.055-.143-.083-.193-.143,0-.055-.226-.226-.083-.193a.547.547,0,0,1-.281-.143H388Zm-.143.12c-.106-.032-.207-.069-.308-.11l-.11-.055.226-.11s.391.226.529.308c-.055.055-.166.055-.336,0h0v-.028Zm.838-1.45c-.166.083-.419.226-.755.419-.253.143-.557.336-.81.446h0l-.083-.244s.336-.166.783-.419l.225-.143h.055a1.99,1.99,0,0,1,.308-.166h.166l.083.083a.808.808,0,0,0-.364,0,2.793,2.793,0,0,1,.391.028h0Zm-.474,2.149h0l-.055-.055h0l-.055-.055.055.055.11.055Zm5.247,6.48a.858.858,0,0,1,.253-.143A.534.534,0,0,1,393.472,27.729Zm.529,0s-.028-.028,0-.11l-.055.055c-.166.055-.143-.028-.055-.143l.193-.055s.11-.226.055-.281l-.11.11V27.25l-.111.11h-.166l-.585.308a6.756,6.756,0,0,1-1.118,1.146c.11-.166-.055-.143-.111-.226.226,0,.446-.336.755-.529-.166.11-.166.028-.143,0l-.5.446a1.436,1.436,0,0,0-.336.11c.11,0,0,.11-.111.226a1.136,1.136,0,0,1-.226.166l-.055.055H391.3l-.055.083v-.078s0-.028.055-.055a.438.438,0,0,1,.166-.11.123.123,0,0,0-.106.055H391.3v.055h-.028a.414.414,0,0,1-.055.11.261.261,0,0,1-.226.193c.055-.028.083-.028.083-.083a.624.624,0,0,1-.225.166c-.055.028-.083,0-.055-.028h.028a3.772,3.772,0,0,0-.474.281V29.46l.193-.11s.281-.166.336-.193h.028s.166-.226.083-.336l-.055-.055c.474-.253,1.339-.727,2.987-1.648h.028v.055h0a.231.231,0,0,1,.11.028h.055a.231.231,0,0,0,.11-.028,1.131,1.131,0,0,1-.253.281,2.489,2.489,0,0,0,.253-.055l-.364.308h0l.143.023Z" transform="translate(-383.121 -10.58)" fill="#f2a5ba"/>
      <path id="_パス_1442" d="M405.08,44.644h.055Q405.135,44.616,405.08,44.644Z" transform="translate(-394.186 -27.973)" fill="#f2a5ba"/>
      <path id="_パス_1444" d="M393.673,26.34h-.253a2.485,2.485,0,0,1,.253.055S393.618,26.368,393.673,26.34Z" transform="translate(-387.892 -18.101)" fill="#f2a5ba"/>
      <path id="_パス_1446" d="M388.99,26.5c.166,0,0-.083.111-.055.055-.028-.193,0-.336,0-.143.028-.143.055.193.028h0l.028.028Z" transform="translate(-385.331 -18.152)" fill="#f2a5ba"/>
      <path id="_パス_1448" d="M410.183,12.56l-.143-.11a.766.766,0,0,1,.055.193l.083-.083h0Z" transform="translate(-396.863 -10.604)" fill="#f2a5ba"/>
      <path id="_パス_1450" d="M398.645,19.42l-.055.028h.028Z" transform="translate(-390.683 -14.366)" fill="#f2a5ba"/>
      <path id="_パス_1451" d="M398.488,19.323h.083s-.11-.055-.083-.083C398.405,19.323,398.543,19.268,398.488,19.323Z" transform="translate(-390.613 -14.269)" fill="#f2a5ba"/>
      <path id="_パス_1454" d="M398.77,18.685h.055a.118.118,0,0,1,.028-.055C398.825,18.63,398.8,18.63,398.77,18.685Z" transform="translate(-390.78 -13.94)" fill="#f2a5ba"/>
      <path id="_パス_1457" d="M398.645,18.88s0,.028-.055.055C398.618,18.935,398.7,18.935,398.645,18.88Z" transform="translate(-390.683 -14.075)" fill="#f2a5ba"/>
      <path id="_パス_1459" d="M398.58,18.505h.028s0-.028.055-.055a.262.262,0,0,0-.083.055Z" transform="translate(-390.677 -13.843)" fill="#f2a5ba"/>
      <path id="_長方形_143" d="M398.35,18.984l.11-.014h0Z" transform="translate(-390.553 -14.124)" fill="#f2a5ba"/>
      <path id="_パス_1461" d="M398.58,18.3h.028l.055-.028-.083.028Z" transform="translate(-390.677 -13.746)" fill="#f2a5ba"/>
      <path id="_パス_1462" d="M398.58,18.145s.055-.055.083-.055h-.083Z" transform="translate(-390.677 -13.649)" fill="#f2a5ba"/>
      <path id="_パス_1464" d="M398.525,18.39l-.055.055h0a.053.053,0,0,0,.055-.055Z" transform="translate(-390.618 -13.81)" fill="#f2a5ba"/>
      <path id="_パス_1465" d="M398.428,18.478h0l-.028-.028Z" transform="translate(-390.58 -13.843)" fill="#f2a5ba"/>
      <path id="_パス_1467" d="M398.1,18.865a.214.214,0,0,1,.143-.055A.2.2,0,0,0,398.1,18.865Z" transform="translate(-390.418 -14.037)" fill="#f2a5ba"/>
      <path id="_パス_1469" d="M398.28,18.358s.055,0,.055-.028h-.055v.055h0Z" transform="translate(-390.516 -13.778)" fill="#f2a5ba"/>
      <path id="_パス_1476" d="M397.458,18.168a.118.118,0,0,1,.028-.055c-.055.055-.11,0-.226.083h.055s-.055,0-.055.028c.055-.028.111-.028.083,0a1.161,1.161,0,0,0,.336-.193H397.6s-.055.083-.11.083h0l-.023.055Z" transform="translate(-389.965 -13.616)" fill="#f2a5ba"/>
      <path id="_パス_1477" d="M398.16,18.09v.055h0l.055-.055Z" transform="translate(-390.451 -13.649)" fill="#f2a5ba"/>
      <path id="_パス_1478" d="M397.989,18.21h-.083c-.055.028-.11,0-.166.083h.087c-.028-.028.028,0,.055-.055h.055l.055-.028Z" transform="translate(-390.224 -13.713)" fill="#f2a5ba"/>
      <path id="_パス_1479" d="M397.8,19.028l.028-.028Z" transform="translate(-390.256 -14.14)" fill="#f2a5ba"/>
      <path id="_パス_1480" d="M397.96,18.75a1.075,1.075,0,0,0-.143.11h.028a.118.118,0,0,0-.055.028.138.138,0,0,0,.083-.028h0l.083-.083h0V18.75Z" transform="translate(-390.251 -14.005)" fill="#f2a5ba"/>
      <path id="_パス_1482" d="M398.155,17.988l.055-.028-.11.028Z" transform="translate(-390.418 -13.578)" fill="#f2a5ba"/>
      <path id="_パス_1483" d="M398.183,17.9h-.055l-.028.028Z" transform="translate(-390.418 -13.546)" fill="#f2a5ba"/>
      <path id="_パス_1485" d="M396.82,15.721l.055-.051h-.055Z" transform="translate(-389.728 -12.342)" fill="#f2a5ba"/>
      <path id="_パス_1488" d="M397.5,16.985V16.93C397.471,16.958,397.416,17.013,397.5,16.985Z" transform="translate(-390.07 -13.022)" fill="#f2a5ba"/>
      <path id="_パス_1490" d="M397.55,16.949s.028-.055,0-.028h0s.028.014.028.028Z" transform="translate(-390.122 -13.013)" fill="#f2a5ba"/>
      <path id="_パス_1497" d="M394.935,15.89h.083l.166-.11-.253.11Z" transform="translate(-388.707 -12.402)" fill="#f2a5ba"/>
      <path id="_パス_1498" d="M390.372,9.2l-.055.055q.083-.041.083,0h0s.028.11.055.193l.06-.055v.055c.11-.055,0-.028.083-.11-.11.11.083.083-.055.226,0,0,.055-.055.083-.055h0a.263.263,0,0,1-.055.083h0s.055.028.055.055h0a.318.318,0,0,0,.193.083h0s0,.028.055.055h.055c-.055,0-.055.083-.11.083.083,0,.055,0,.193-.055l-.055.055s.083-.028.11,0c-.055,0-.055.055-.143.083-.083.11.166,0,0,.11.166-.083.055-.083.083-.11.028-.055.11-.055.11-.028,0,0-.166.143-.11.193h0s.055,0,0,.055c.083-.055,0,0,.11-.055h-.055s.193-.083.143,0h-.078c0,.028.028,0,0,.028-.11.083-.055,0-.166,0-.028.028.11,0,0,.055.166-.083,0,.055.143,0l-.055.055h-.028s-.028.11,0,.11c-.028-.028.083-.055.11-.11.11,0-.143.143-.083.166a.053.053,0,0,1,.055-.055h0a.1.1,0,0,1-.06.083c.028.028.055-.055.111-.055-.083.055.055,0,.083,0l-.055.055s.143-.083.11,0l-.11.055h.028l-.083.055s.055,0,.055.028c.055-.028.11-.083.143-.055-.028.028-.055.028-.028.055-.055,0-.111.055-.055,0h-.055v.083h.143a.417.417,0,0,1-.143.055h.083s-.055.055-.083.055c0,.028.143,0,.111.028h.028c0,.028-.055.11.055.083l-.083.083s.11-.11.166-.083c.055,0-.083.055-.11.083.055,0,.166-.055.11,0h0l-.055.055a.3.3,0,0,0-.166.055c.193-.11.083.055.281-.028h.083s-.028.055-.055.055h.028l.055.055h.11s-.11.055-.11,0c-.193.143.055,0,0,.11h-.028l-.111.11c.028,0,.143-.143.226-.143,0,0,0,.028.028,0-.083.028-.055.055-.028.055l-.083.055a.375.375,0,0,0,.143-.028l-.12.115c0,.028.111-.083.143-.055,0,.055.028.055.11.055,0,.028-.055,0-.083.055h.055a.32.32,0,0,1,.143-.055c.11-.055-.11.143,0,.083a.091.091,0,0,0-.083.055h.193l-.055.055a.779.779,0,0,1,.253-.083l.055-.055h.083a.262.262,0,0,0-.083.055h0a.32.32,0,0,1-.143.055l.055-.055s-.143.055-.193.083h.028l-.11.083h.055v.055a.833.833,0,0,1,.336-.055c-.083,0-.143.055-.226.11.083-.055-.055,0-.055-.055,0,0-.055.028-.055.055h.11a.181.181,0,0,0-.083.083c.143-.083.11,0,.166,0-.055,0-.11.055-.11,0-.083.083.193-.055.11,0h0c.055,0,.028.055,0,.055h0a.143.143,0,0,0,.193.055h0l-.166.083.474-.143a2.257,2.257,0,0,1-.447.193.03.03,0,0,0,.028.028,1.392,1.392,0,0,1,.166-.083c-.11.083-.055.055-.143.143,0,0,.193-.11.193-.083a1.74,1.74,0,0,1-.193.083l.193-.055s-.143.083-.193.11c.028,0,0,.028.028.028h.028s.253-.11.281-.055c-.028,0-.226.083-.226.143a3.528,3.528,0,0,1,.529-.166h0s-.447.166-.557.193c-.028.028-.055.028-.028.055-.028.028-.083,0-.083,0v.055a.351.351,0,0,0,.193-.055h-.143s.308-.11.308-.055a2.043,2.043,0,0,1-.225.11h0s.143,0,.083.055c0,0-.11.083-.055.055a3.229,3.229,0,0,1,.529-.281.6.6,0,0,1-.143.143c-.083.055-.226.083-.281.143h.083s-.083.028-.055.055c.11-.055,0,.055.083-.028.028,0,0,.028,0,.055a.988.988,0,0,1,.281-.083.242.242,0,0,0-.064.055v.143a.106.106,0,0,1-.083.055h.055s-.028,0-.11.055c.055-.028.11,0,.143,0,.083-.055,0-.055-.055-.055a.625.625,0,0,1,.364-.083c.055,0-.083.055-.055.055,0,.083.253-.055.193.028a.791.791,0,0,1-.226.11c-.055,0,0-.055,0-.083h0s-.055.028-.055,0c-.055.055.055.11,0,.193a.107.107,0,0,0,.083-.028h0s.111-.028.111-.055h.11l-.083.055s.055-.055,0-.028c.055,0-.083.11.028.055l.055-.055s.166-.028.143,0c.083-.055,0,0,.083-.083-.11.083-.028-.055-.143.028.11-.083.028-.055.11-.143-.028,0-.055.028-.055,0h-.028v.055h-.166a.118.118,0,0,0,.055-.028h-.055s.083-.083.143-.083h0s.028-.083,0-.083h-.083s-.166-.055-.055-.166c0,0-.055,0-.055-.028h.055s0-.11-.028-.083c.143-.11,0-.11,0-.143h-.226v-.083h0c.11-.11-.166-.028-.083-.143h0v-.055a.091.091,0,0,0-.083.055H392.9s-.055,0,.055-.083a.456.456,0,0,0-.193,0h0v-.055l.083-.055H392.7a.763.763,0,0,0,.143-.055H392.7s-.11,0-.055-.055c.083-.083-.055-.143,0-.253-.166.11.055-.083-.083,0,.028,0,.055-.055.083-.055-.055,0,.028-.083-.083-.055a.107.107,0,0,0,.083-.028h.055c-.028-.028-.166.028-.281.083.055-.055.028-.055-.055,0,.028,0,.055-.055.083-.055,0,0,0-.11-.083-.055h0a.08.08,0,0,0-.028-.055h-.055s-.055,0,0-.11h-.064c-.143.11.055-.055,0-.055h-.028a1.993,1.993,0,0,0,.193-.143h.028a.191.191,0,0,1-.143,0c.055-.028.143-.055.11-.083.028-.028-.193.028-.11-.055-.028,0-.055.055-.11.055,0,0,.11-.143,0-.083h0a.154.154,0,0,0-.166,0c.226-.143-.193-.028.028-.166l-.055-.055h0a.191.191,0,0,0-.143,0,.066.066,0,0,0,.055-.028q0-.083-.143-.055l.055-.055s.055-.143-.055-.143h.028s.11-.253-.166-.11h-.074a.426.426,0,0,0-.143.11s.055-.083.083-.083h0a.168.168,0,0,1,.083-.143c-.055-.083-.055-.226-.11-.308l-.083.083h0l.083-.083c.055-.055-.083,0-.083,0,0-.055.143-.055.11-.083h-.028s-.083.055-.11,0c0-.028.055-.055.055-.055H391.3l-.083.083c.11-.11-.055-.166,0-.193a.16.16,0,0,1-.11-.028s-.083.083-.11.055c.193-.143.028-.083.143-.226-.055.083-.083-.055-.166.083,0-.028.055-.055.083-.11-.11,0-.028-.143-.11-.166l-.083.083.083-.11s-.143.11-.083,0c0,0-.028.055-.055.055,0-.083-.083-.143-.143-.166s-.11-.083-.083-.226c0,.055-.028.055-.055.028l-.083.083v-.1s0-.028-.11.028h0a3.885,3.885,0,0,1-.281.336c.11-.083-.083.193.083.083h0l.253-.083Zm1.431,2.039h-.028C391.859,11.208,391.831,11.236,391.8,11.236Z" transform="translate(-386.074 -8.64)" fill="#f2a5ba"/>
      <path id="_パス_1502" d="M397.656,18.011s-.028.028,0,.028h0S397.711,17.983,397.656,18.011Z" transform="translate(-390.172 -13.602)" fill="#f2a5ba"/>
      <path id="_パス_1504" d="M397.848,17.516s.083-.028.055,0C397.986,17.488,397.793,17.516,397.848,17.516Z" transform="translate(-390.277 -13.332)" fill="#f2a5ba"/>
      <path id="_パス_1505" d="M397.25,18.228l.083-.028h-.083Z" transform="translate(-389.96 -13.708)" fill="#f2a5ba"/>
      <path id="_パス_1508" d="M396.856,17.48s-.028,0,0,.028h.028Z" transform="translate(-389.74 -13.319)" fill="#f2a5ba"/>
      <path id="_パス_1509" d="M396.608,17.808l.055-.028-.083.055h.028Z" transform="translate(-389.598 -13.481)" fill="#f2a5ba"/>
      <path id="_パス_1510" d="M396.449,17.72s-.083,0-.055.028C396.393,17.748,396.449,17.748,396.449,17.72Z" transform="translate(-389.494 -13.449)" fill="#f2a5ba"/>
      <path id="_パス_1511" d="M396.28,16.773h.028l.143-.083-.166.083h0Z" transform="translate(-389.436 -12.893)" fill="#f2a5ba"/>
      <path id="_パス_1512" d="M395.311,16.51s-.028,0-.111.055c0,.055.083-.028.055,0,.028,0,0-.028.055-.055Z" transform="translate(-388.853 -12.796)" fill="#f2a5ba"/>
      <path id="_パス_1513" d="M391.448,8.44l-.028.055h.028Z" transform="translate(-386.813 -8.44)" fill="#f2a5ba"/>
      <path id="_パス_1514" d="M391.208,8.583l.055-.083-.083.055h0Z" transform="translate(-386.683 -8.472)" fill="#f2a5ba"/>
      <path id="_パス_1515" d="M393.545,14.33l-.055.055h0V14.33Z" transform="translate(-387.93 -11.619)" fill="#f2a5ba"/>
      <path id="_パス_1516" d="M393.37,13.808h0l.083-.028Z" transform="translate(-387.865 -11.322)" fill="#f2a5ba"/>
      <path id="_パス_1520" d="M430,12.135h0V12.08s-.055.083-.111.083c.055.083.055-.028.083,0h0Z" transform="translate(-407.577 -10.405)" fill="#f2a5ba"/>
      <path id="_パス_1523" d="M429.368,11.8s-.028-.014-.028-.028a.107.107,0,0,0,.028.083Z" transform="translate(-407.28 -10.237)" fill="#f2a5ba"/>
      <path id="_パス_1526" d="M429.585,12.057s0-.11-.055-.055a.053.053,0,0,1,.055.055Z" transform="translate(-407.383 -10.354)" fill="#f2a5ba"/>
      <path id="_パス_1528" d="M429.155,11.955s-.028,0-.055-.055a.262.262,0,0,0,.055.083h0Z" transform="translate(-407.151 -10.308)" fill="#f2a5ba"/>
      <path id="_パス_1531" d="M428.86,11.955V11.9l.028.083Z" transform="translate(-407.021 -10.308)" fill="#f2a5ba"/>
      <path id="_パス_1532" d="M428.675,11.983s-.055-.055-.055-.083v.083Z" transform="translate(-406.892 -10.308)" fill="#f2a5ba"/>
      <path id="_パス_1534" d="M429.035,12.135s-.028-.055-.055-.055Z" transform="translate(-407.086 -10.405)" fill="#f2a5ba"/>
      <path id="_パス_1537" d="M429.465,12.393a.214.214,0,0,1-.055-.143A.2.2,0,0,0,429.465,12.393Z" transform="translate(-407.318 -10.496)" fill="#f2a5ba"/>
      <path id="_パス_1538" d="M429.22,12.26v.055h.028A.118.118,0,0,0,429.22,12.26Z" transform="translate(-407.215 -10.502)" fill="#f2a5ba"/>
      <path id="_パス_1539" d="M428.888,12.315s0-.055-.028-.055v.055Z" transform="translate(-407.021 -10.502)" fill="#f2a5ba"/>
      <path id="_パス_1546" d="M428.606,12.8h-.055c.055.055,0,.11.083.226v-.055s0,.055.028.055c-.028-.055-.028-.11,0-.083a.971.971,0,0,0-.221-.308v.083a.187.187,0,0,1,.111.11h0l.055-.028Z" transform="translate(-406.794 -10.702)" fill="#f2a5ba"/>
      <path id="_パス_1547" d="M428.518,12.463h.055a.181.181,0,0,0-.083-.083v.083Z" transform="translate(-406.821 -10.567)" fill="#f2a5ba"/>
      <path id="_パス_1548" d="M428.74,12.408a.209.209,0,0,0,.083.166V12.49c-.028.028,0-.028-.055-.055h0V12.38h0v.055h0Z" transform="translate(-406.956 -10.567)" fill="#f2a5ba"/>
      <path id="_パス_1550" d="M429.4,12.62v.055a.138.138,0,0,0-.028-.083h0s-.083-.055-.083-.083a.475.475,0,0,0,.11.143V12.62Z" transform="translate(-407.253 -10.637)" fill="#f2a5ba"/>
      <path id="_パス_1552" d="M428.425,12.435l-.055-.055.055.083Z" transform="translate(-406.757 -10.567)" fill="#f2a5ba"/>
      <path id="_パス_1553" d="M428.348,12.505l-.028-.055v.055Z" transform="translate(-406.73 -10.604)" fill="#f2a5ba"/>
      <path id="_パス_1555" d="M425.9,14.275s-.143-.083-.083-.028l.055.055h.028Z" transform="translate(-405.368 -11.564)" fill="#f2a5ba"/>
      <path id="_パス_1556" d="M425.275,16.205h0l-.055-.055v.055Z" transform="translate(-405.056 -12.601)" fill="#f2a5ba"/>
      <path id="_パス_1557" d="M424.43,18.81l.055.055S424.485,18.838,424.43,18.81Z" transform="translate(-404.63 -14.037)" fill="#f2a5ba"/>
      <path id="_パス_1558" d="M427.335,13.29h-.055C427.308,13.29,427.363,13.345,427.335,13.29Z" transform="translate(-406.168 -11.058)" fill="#f2a5ba"/>
      <path id="_パス_1559" d="M423.58,16.93l.028.028Z" transform="translate(-404.171 -13.022)" fill="#f2a5ba"/>
      <path id="_パス_1565" d="M427.918,12.75l-.028.028h.028Z" transform="translate(-406.498 -10.766)" fill="#f2a5ba"/>
      <path id="_パス_1567" d="M426.546,15.728s-.028-.083,0-.055l-.166-.143.166.193h0Z" transform="translate(-405.682 -12.267)" fill="#f2a5ba"/>
      <path id="_パス_1568" d="M420.177,16.823a.261.261,0,0,1,.083.055h-.143s-.028.055.055.11h0a2.936,2.936,0,0,1,.391.166c-.11-.083.226.028.083-.083.028,0,.028.028.083.055q-.055-.055,0-.055h0a1.321,1.321,0,0,0,.193-.11h-.083l.055-.028c-.083-.083-.028.028-.143-.055.143.055.083-.11.226,0,0,0-.083-.028-.055-.055h.11s0-.055.028-.028h-.028a.218.218,0,0,0,.055-.226h-.028a.106.106,0,0,0,.055-.083h0s-.028-.055,0-.055c.028.028.083,0,.11.055-.028-.083-.028-.055-.143-.166h.055s-.055-.028-.055-.055c.028.055.083.028.143.083.143,0-.055-.143.111-.055-.143-.11-.111,0-.143-.028-.055,0-.083-.083-.055-.083,0,0,.193.083.226.055h0s-.028-.055.055-.028c-.083-.055,0,0-.083-.083v.055s-.143-.143-.055-.143l.055.055c.028,0,0-.028.028,0,.11.083,0,.055.055.143.055,0-.055-.083.055,0-.143-.11.055-.028-.055-.143l.055.055V16.1l.055.055s.083,0,.083-.055c-.028.055-.083-.028-.143-.055-.055-.11.193.083.225,0h.028c0-.055-.083-.028-.111-.083.083.028,0-.028-.028-.083l.055.055s-.143-.11-.055-.11l.083.083h.055v-.055c-.055,0-.111-.083-.111-.11.055,0,.055.055.083,0,.028.028.083.083,0,.055l.055.055.055-.055h0l-.055-.11s.055.028.055.055v-.055c.055.028.11.083.11.11v-.083a.053.053,0,0,1,.055.055h0c.055,0-.055-.11,0-.11h0s.111,0,.055-.11l.11.055s-.143-.055-.143-.143c0-.055.083.055.11.055-.028-.055-.11-.143,0-.11v.032h.055a.144.144,0,0,0,.11.143c-.166-.143.055-.083-.143-.226h.055s-.11-.083-.055-.11a.138.138,0,0,1,.083.028v-.06h.028a.5.5,0,0,1-.055-.11c.028,0,0,0,.028.028V15.07s.055.083.028.083c.193.11-.028-.055.11,0h0a1.117,1.117,0,0,0,.166.083.526.526,0,0,1-.225-.143s.028,0,0-.028c.055.055.055,0,.055,0l.083.055a.491.491,0,0,1-.083-.11.4.4,0,0,1,.143.083c.028,0-.11-.055-.11-.11.055,0,.028-.055,0-.11.055,0,.055.055.083.055l-.055-.055h.028s-.083-.055-.083-.083c-.083-.083.166.055.083-.055.028,0,.055.055.083.055a.285.285,0,0,0-.083-.166h.083s-.143-.083-.166-.166h-.055v-.106l.055.055h0a.222.222,0,0,1,.111.083H422.4a.843.843,0,0,0,.143.11h.143a.95.95,0,0,1-.166-.308.942.942,0,0,1,.166.166c-.083-.055,0,.055-.028.083,0,0,.055.028.055.055v-.11s0,.028.055.055c-.143-.11-.055-.11-.083-.143.028.028.083.083.055.083.11.055-.111-.166,0-.11h0c0-.055.028-.055.055,0h0a.119.119,0,0,0,.023-.17c-.009-.009-.014-.018-.023-.023l.143.143-.281-.391a1.905,1.905,0,0,1,.336.336s.055,0,.028-.028l-.143-.11c.11.083.055.028.166.083a1.06,1.06,0,0,1-.143-.166l.143.143-.083-.166.143.143c-.028,0,.028,0,0-.055h-.055s-.143-.226-.11-.253a.409.409,0,0,0,.193.166,1.968,1.968,0,0,1-.281-.446h.028s.226.336.281.446c.055,0,.055.055.055,0,.055.028.055.055.028.083h.083a.357.357,0,0,0-.11-.193v.143s-.166-.253-.11-.281c.028,0,.11.143.143.166h0s-.028-.143.055-.083c0,0,.11.083.083.028-.083-.083-.364-.364-.419-.446a.93.93,0,0,1,.166.083c.083.055.143.193.193.253l-.028-.055s.055.083.055.055c-.055-.083.055,0-.055-.083,0-.028.028,0,.055,0a.535.535,0,0,1-.143-.253l.055.055a.193.193,0,0,0,.143-.028.18.18,0,0,1,.083.083v-.064s-.028.028.055.11c-.028-.055,0-.083-.028-.143-.055-.083-.055,0-.055.055a.68.68,0,0,1-.143-.308c0-.055.055.055.055.028.083,0-.083-.226,0-.193a.452.452,0,0,1,.143.193c0,.055-.083,0-.083,0h.055v.06c.055.055.111-.055.193-.028a.107.107,0,0,0-.028-.083h0s0-.083-.055-.083v-.115l.055.083s-.055-.028-.055,0c0-.055.11.083.055-.028l-.055-.055s-.028-.166,0-.143c-.055-.083,0,0-.083-.083.083.11-.083.028.028.143-.083-.083-.055,0-.166-.11,0,0,.055.055,0,.055h0l.028.055c.028.055,0,.083,0,.143,0,0,0-.028-.055-.055v.046s-.083-.083-.083-.143h-.028s-.083,0-.083.028v.083h-.028s0,.143-.143.083c0,0,0,.055-.028.055l-.055-.055s-.083,0-.055.055c-.143-.11-.11.028-.166.055l.055.055a.3.3,0,0,0-.028.083l.055.055s-.083,0-.11.055h0c-.166-.083,0,.166-.11.11h0V13.6l-.055-.055h0s0,.028.055.083v.055s0,.055-.083-.028c.028.055,0,.083.083.193h0l-.083-.055.083.11a1.07,1.07,0,0,1-.143-.11c.055.11,0,.055.055.166l-.055-.055s.028.083,0,.055c-.111-.055-.143.11-.281.083.166.11-.083,0,0,.083q-.041,0-.083-.083c0,.055-.11,0,0,.11-.028,0-.055-.055-.055-.055h0a.117.117,0,0,0-.028-.055.794.794,0,0,0,.166.226q-.055,0,0,.055a.086.086,0,0,1-.083-.083s-.11.028-.028.083h0q-.028,0-.055.055h0v.083h0s0,.028-.11,0l.055.055s-.11,0-.083.055h.055a2.314,2.314,0,0,0-.253-.083v-.014c-.11,0,.083.055.083.11-.055-.028-.11-.083-.143-.083-.055,0,.083.166,0,.143a.085.085,0,0,1,.083.083c0,.028-.166-.028-.083.055h-.028s0,.083.055.11c-.225-.143,0,.166-.166.028v.055h-.055a.231.231,0,0,0,.028.11.066.066,0,0,1-.055-.028c-.083,0-.083.028,0,.143l-.083-.055s-.166,0-.11.083h0s-.281,0-.055.166v.083a.721.721,0,0,0,.193.083s-.11,0-.11-.028h0a.209.209,0,0,1-.166-.028c-.055.083-.193.143-.253.226l.11.055h0s-.083,0-.055-.028c-.055,0,0,.055.055.083a.119.119,0,0,1-.11-.083h0s.083.083.055.11c-.028,0-.083-.028-.083,0h-.028l.083.055s-.028.028.083.083c-.166-.055-.143.11-.193.083.055.055,0,.083,0,.11,0,0,.11.055.083.083-.193-.11-.11,0-.253-.055.11.028,0,.083.11.143a.417.417,0,0,1-.143-.055c.028.083-.11.083-.143.166,0,0,.083,0,.111.055l-.143-.055s.143.083.028.055c0,0,.055,0,.055.028-.193.055-.055.308-.364.281.037,0,.055.009.055.028h0l.083-.064Zm2.177-1.846s.028.055,0,.028C422.3,14.95,422.354,14.978,422.354,14.978Z" transform="translate(-402.25 -10.766)" fill="#f2a5ba"/>
      <path id="_パス_1572" d="M428.49,12.961h.055S428.49,12.906,428.49,12.961Z" transform="translate(-406.821 -10.867)" fill="#f2a5ba"/>
      <path id="_パス_1574" d="M427.861,12.841s-.055-.083,0-.055C427.834,12.7,427.861,12.9,427.861,12.841Z" transform="translate(-406.469 -10.774)" fill="#f2a5ba"/>
      <path id="_パス_1575" d="M428.62,13.23l.028.055.028.028-.055-.083Z" transform="translate(-406.892 -11.025)" fill="#f2a5ba"/>
      <rect id="_長方形_151" height="0.028" transform="translate(21.719 2.283)" fill="#f2a5ba"/>
      <path id="_パス_1578" d="M427.89,13.775s.028.028.028,0V13.72h0Z" transform="translate(-406.498 -11.29)" fill="#f2a5ba"/>
      <path id="_パス_1579" d="M428.255,13.955s-.028,0-.055-.055l.055.083h0Z" transform="translate(-406.665 -11.387)" fill="#f2a5ba"/>
      <path id="_パス_1580" d="M428.278,14.2s0-.055-.028-.055C428.25,14.14,428.25,14.223,428.278,14.2Z" transform="translate(-406.692 -11.517)" fill="#f2a5ba"/>
      <path id="_パス_1581" d="M427.183,14.343h0L427.1,14.2Z" transform="translate(-406.071 -11.549)" fill="#f2a5ba"/>
      <path id="_パス_1582" d="M427.215,15.475a.053.053,0,0,1-.055-.055h0c0,.055,0,.028.083.11.055,0-.055-.083,0-.055Z" transform="translate(-406.103 -12.207)" fill="#f2a5ba"/>
      <path id="_パス_1583" d="M420.055,21.67,420,21.7h.055Z" transform="translate(-402.239 -15.581)" fill="#f2a5ba"/>
      <path id="_パス_1584" d="M420.2,21.845l-.083-.055Z" transform="translate(-402.304 -15.646)" fill="#f2a5ba"/>
      <path id="_パス_1586" d="M424.943,18.085h0l-.083-.055Z" transform="translate(-404.862 -13.616)" fill="#f2a5ba"/>
      <path id="_パス_1588" d="M435.29,44.9l.055-.055S435.29,44.923,435.29,44.9Z" transform="translate(-410.492 -28.087)" fill="#f2a5ba"/>
      <path id="_パス_1589" d="M434.9,45.108l.028-.028-.055.055.028-.028Z" transform="translate(-410.265 -28.216)" fill="#f2a5ba"/>
      <path id="_パス_1590" d="M434.852,44.988s-.083.055-.055,0c-.055.11.028,0,0,.028h0l.055-.055h0Z" transform="translate(-410.215 -28.152)" fill="#f2a5ba"/>
      <path id="_パス_1593" d="M434.925,44.42a.265.265,0,0,0-.055.083h.028V44.42Z" transform="translate(-410.265 -27.86)" fill="#f2a5ba"/>
      <path id="_パス_1596" d="M434.8,44.769s.055-.083.028-.055A.065.065,0,0,1,434.8,44.769Z" transform="translate(-410.227 -28.015)" fill="#f2a5ba"/>
      <path id="_パス_1598" d="M434.745,44.475V44.42a.26.26,0,0,1-.055.083h0Z" transform="translate(-410.168 -27.86)" fill="#f2a5ba"/>
      <path id="_パス_1600" d="M434.62,44.863l.083-.083Z" transform="translate(-410.13 -28.054)" fill="#f2a5ba"/>
      <path id="_パス_1601" d="M434.75,44.3l.055-.055Z" transform="translate(-410.2 -27.763)" fill="#f2a5ba"/>
      <path id="_パス_1602" d="M434.69,44.193s.028-.083.055-.083l-.055.055Z" transform="translate(-410.168 -27.693)" fill="#f2a5ba"/>
      <path id="_パス_1607" d="M434.5,44.89a.221.221,0,0,1,.083-.11C434.583,44.808,434.528,44.835,434.5,44.89Z" transform="translate(-410.065 -28.054)" fill="#f2a5ba"/>
      <path id="_パス_1608" d="M434.56,44.715a.118.118,0,0,1,.028-.055h-.028Z" transform="translate(-410.098 -27.99)" fill="#f2a5ba"/>
      <path id="_パス_1616" d="M433.913,44.636V44.58c-.028.083-.083.083-.143.193h0c.028-.055.083-.11.055-.028a2.445,2.445,0,0,0,.193-.336.091.091,0,0,1-.055.083.2.2,0,0,1-.055.143h0Z" transform="translate(-409.671 -27.855)" fill="#f2a5ba"/>
      <path id="_パス_1617" d="M434.348,44.415h0l.028-.055-.055.055Z" transform="translate(-409.968 -27.828)" fill="#f2a5ba"/>
      <path id="_パス_1618" d="M434.283,44.558a.176.176,0,0,1,.028-.083h0V44.42h-.028c-.028.055-.055.083-.083.143,0,0,.028-.055.055-.055h0Z" transform="translate(-409.903 -27.86)" fill="#f2a5ba"/>
      <path id="_パス_1619" d="M434.37,44.835a1.347,1.347,0,0,0-.083.143h-.028a.351.351,0,0,0,.055-.087h0a.413.413,0,0,1,.055-.11h0Z" transform="translate(-409.936 -28.054)" fill="#f2a5ba"/>
      <path id="_パス_1620" d="M434.26,44.928v.055h0a.138.138,0,0,1,.028-.083h-.028Z" transform="translate(-409.936 -28.119)" fill="#f2a5ba"/>
      <path id="_パス_1621" d="M434.348,44.323l.055-.083-.083.083Z" transform="translate(-409.968 -27.763)" fill="#f2a5ba"/>
      <path id="_パス_1622" d="M434.32,44.318h0l.028-.028Z" transform="translate(-409.968 -27.79)" fill="#f2a5ba"/>
      <path id="_パス_1624" d="M433.05,43.636s.055-.143,0-.083v.055h0Z" transform="translate(-409.283 -27.384)" fill="#f2a5ba"/>
      <path id="_パス_1627" d="M433.756,44.105V44.05C433.756,44.078,433.728,44.133,433.756,44.105Z" transform="translate(-409.657 -27.66)" fill="#f2a5ba"/>
      <path id="_パス_1635" d="M431.945,44.831l.055-.055.083-.166-.143.226h0Z" transform="translate(-408.683 -27.963)" fill="#f2a5ba"/>
      <path id="_パス_1636" d="M430.877,43.312s.083-.083.083-.055l-.055.083v-.028c.028-.028-.055.143.028,0v-.055a.863.863,0,0,1,.11-.083c.055-.083,0,0,.028-.083-.055.143-.028,0-.083.11.055-.11,0-.055.055-.166,0,.028,0,.055-.028.028h0v.083c-.037.028-.078.055-.11.083a.066.066,0,0,1,.028-.055v.055a.328.328,0,0,1,.028-.143h0v-.051h-.028s-.11.083-.055-.028h-.028v-.055h0c.083-.143-.028-.055-.028-.083v.083h-.11v.055l-.055-.055h0c.055-.166-.11.083-.083-.028h0v-.051h0s0,.028-.055.083h-.028s-.028.055,0-.055c-.028.055-.055,0-.11.143h0a.376.376,0,0,1,.028-.143l-.11.11v-.06h0c.028-.11-.083-.055-.055-.166-.083.166,0-.083-.055.055,0-.028,0-.055.055-.083-.028.028,0-.083-.055,0,0-.028.028-.055.055-.083h0a.118.118,0,0,1,.028-.055,1.427,1.427,0,0,0-.143.226q0-.055-.028,0c0-.028,0-.083.055-.083,0,0,0-.083-.055,0h-.028s0,.028-.055.055h0s-.028,0,0-.083v.083c-.111.143,0-.11-.055-.055v.055s.055-.226.055-.253v-.032c0-.11-.055.083-.083.11,0-.055.055-.11.055-.143,0-.055-.11.143-.083.055a.116.116,0,0,1-.055.11s0-.166-.028-.055h0s-.055,0-.083.083c.083-.253-.11.083,0-.143h0a.091.091,0,0,0-.083.055v-.051q0-.055-.083.055v-.083s0-.143-.028-.055h0s0-.253-.111,0l-.055.055a.544.544,0,0,0-.055.166V42.58h0v-.143c-.055,0-.083-.11-.143-.143v.11h-.055s0-.11.028-.083c0-.055-.028.055-.055.083a.384.384,0,0,1,.055-.143h0s-.028.11-.055.11V42.3h0v.055s-.028,0-.055.083c.028-.166-.083-.083-.055-.143-.028.055-.055.055-.055.055s0,.11-.028.11c.055-.193,0-.083,0-.253,0,.11-.055,0-.083.166V42.23c-.055.083-.055-.055-.11-.055a.23.23,0,0,1-.028.11v-.143s-.028.166,0,.055v.055c-.055-.143-.193.083-.226-.193v.055s-.055,0-.055.11h0s-.028.253-.055.391c.028-.143,0,.193.055,0v.1c0-.055,0-.083.028-.055h0a.221.221,0,0,0,.083.11v-.032c.028-.11,0,0,0-.143,0,.143.055,0,.028.193,0,0,0-.083.028-.083h0v.11h.028a.168.168,0,0,0,.143-.083h.055l.028-.028a.18.18,0,0,1-.028.11c.055-.055.028-.055.083-.166v.06s0-.083.028-.083a.151.151,0,0,1-.055.143c0,.143.083-.11.055.083.055-.143,0-.083,0-.11,0-.055.055-.11.055-.083,0,0-.055.193,0,.193h0c.028-.083,0,0,.055-.11h-.028s.083-.143.083-.055a.138.138,0,0,1-.028.083h0c-.028.11-.028,0-.083.11,0,.055.055-.083,0,.055.055-.166,0,0,.083-.083v.083h0v.055s-.028.083,0,.028a.376.376,0,0,1,.028-.143c.055-.083-.055.193,0,.166h0c.028,0,0-.083.055-.11,0,.083,0-.028.055-.055v.083s.028-.143.028-.083l-.055.083h0v.055h0a.384.384,0,0,1,.055-.143c0,.055-.028.055,0,.055,0,.055-.055.11-.028.028v.055h0l.055-.083s0,.055-.028.055v-.055a.328.328,0,0,1-.028.143l.055-.055V43.1c0,.028.083-.11.083-.055h0s0,.055.055,0v.11s0-.143.055-.166c.028,0-.028.083-.028.11.028-.055.083-.143.083-.055h0V43.1a.447.447,0,0,0-.083.143c.083-.193.055,0,.143-.193V43.1h0s.083-.143.083-.083v.028h.055s.055-.028.055-.055v.083c-.083.193.028-.055,0,.083h0a.5.5,0,0,1-.028.166.7.7,0,0,1,.083-.226h0c-.028.083,0,.055,0,.055v-.032a.2.2,0,0,1-.055.143.419.419,0,0,1,.055-.143c0,.055,0,0,.083-.028,0,.028-.028.055-.028.083l.055-.083h0s.055-.055.055-.083c.055-.11-.055.166,0,.055a.261.261,0,0,1-.055.083.54.54,0,0,0,.111-.143v.055a2.042,2.042,0,0,1,.11-.226v-.078h.083l-.055.055h0l-.055.11v-.055l-.083.166h0l-.055.083h0l.193-.226a2.042,2.042,0,0,0-.11.226c.028-.083-.055.028-.055,0,0,0,0,.055-.028.055l.083-.083a.138.138,0,0,1-.028.083c.055-.143.055-.083.11-.143a.091.091,0,0,1-.055.083c-.028.11.11-.166.083-.055h0c.028-.028.028,0,0,.055h0s.055.028.143-.083l-.083.166.253-.391a3.074,3.074,0,0,1-.226.419h0s.055-.166.083-.166c-.055.11,0,.055-.055.166,0,0,.083-.193.11-.166l-.083.166.11-.143a.719.719,0,0,0-.083.193c0-.028,0,0,.028,0h0s.143-.253.166-.226c0,.028-.11.193-.11.226.055-.083.225-.391.281-.446h0s-.225.364-.281.446v.055a.053.053,0,0,1-.055.055h0v.055a1.225,1.225,0,0,0,.143-.166l-.083.083s.166-.253.166-.226a.729.729,0,0,1-.11.193c0-.028.055-.055.055-.028v.055h0s-.055.143,0,.083c.055-.11.225-.446.281-.529a1,1,0,0,1-.055.166,1.551,1.551,0,0,1-.166.281s.028-.055.055-.055c0,0-.055.083-.028.083l.055-.083h0a2.037,2.037,0,0,1,.166-.226v.083s-.028.055,0,.083a.091.091,0,0,1-.055.083v.055c.028-.055.055-.055.083-.083.055-.083,0,0-.028,0a1.174,1.174,0,0,1,.193-.281c.028,0-.028.083,0,.055,0,.028.143-.193.143-.083a1.322,1.322,0,0,1-.11.193c-.028,0,0-.055,0-.055h0s-.028.083-.028.055c-.028.083.055.055.028.11a.259.259,0,0,1,.055-.083h0a.492.492,0,0,0,.083-.11h0l-.322.179Z" transform="translate(-406.746 -26.586)" fill="#f2a5ba"/>
      <path id="_パス_1642" d="M434.064,44.21s.055-.083.028-.055C434.147,44.1,434.009,44.237,434.064,44.21Z" transform="translate(-409.823 -27.71)" fill="#f2a5ba"/>
      <path id="_パス_1643" d="M433.84,45.025v.028l.028-.083Z" transform="translate(-409.709 -28.157)" fill="#f2a5ba"/>
      <path id="_パス_1646" d="M433.47,44.748v.028l.028-.055h0Z" transform="translate(-409.509 -28.022)" fill="#f2a5ba"/>
      <path id="_パス_1648" d="M433.161,45.325a.3.3,0,0,0,.028-.055S433.133,45.325,433.161,45.325Z" transform="translate(-409.338 -28.319)" fill="#f2a5ba"/>
      <path id="_パス_1649" d="M432.93,44.613h0l.083-.143Z" transform="translate(-409.218 -27.887)" fill="#f2a5ba"/>
      <path id="_パス_1650" d="M432.2,45.205V45.15c-.028.028,0,0-.055.11,0,.055.055-.083.028-.028h0Z" transform="translate(-408.791 -28.254)" fill="#f2a5ba"/>
      <path id="_パス_1651" d="M428.218,42.165l-.028-.055v.055Z" transform="translate(-406.659 -26.613)" fill="#f2a5ba"/>
      <path id="_パス_1654" d="M430.528,44.683l.028-.083-.055.083Z" transform="translate(-407.906 -27.957)" fill="#f2a5ba"/>
      <path id="_パス_1658" d="M408.1,63.16v.028h.055S408.076,63.188,408.1,63.16Z" transform="translate(-395.815 -37.975)" fill="#f2a5ba"/>
      <path id="_パス_1703" d="M406.781,60.653h.253c.055,0,.143,0,.083.028h.253c-.143,0,0-.028-.143,0h.12s.055-.028,0-.028h0s-.11-.055,0-.083h.055s.055,0,0-.028c.166,0,.028-.028.055-.055h-.083l-.055-.028h-.083a.053.053,0,0,0,.055-.055h0c.166,0-.11-.028,0-.055H407.1c.143,0,0-.055.143-.083h.055c-.055,0,.083,0-.055-.028h-.055s.055-.028-.055-.028h-.069s-.055,0,.055-.028h-.083c-.166,0,.11,0,.028-.028h-.055a.95.95,0,0,0,.253-.028h.055s-.193-.028-.083-.055h-.11s.166-.028,0-.028h-.111c.281-.028-.143-.028.111-.055h0a.182.182,0,0,0-.111-.055h.055c.055,0,.028-.028-.083-.028h.083s.143-.055.028-.055h.028c-.111,0,.225-.083-.083-.055h-.244s.083-.028.11,0h0c.166,0,.055-.028.166-.028,0-.028.083-.083.055-.143h-.193c.166-.028.055-.083.111-.083h-.166c.226,0,.083-.028.253-.055-.11,0-.028-.028-.166,0h.143c-.083,0,.055-.055,0-.083h.028s-.166,0-.055-.055H407s-.143-.083.111-.166h-.166l.111-.055h-.111l-.419.083c.143,0-.193.055,0,.055H406.5l-.083.083h0l.143-.028c-.166.028,0,.055-.166.083h.028s0,.055.083.055h.028s-.028,0,0,.028h0c-.143.028.143,0-.055.055.166,0,.083-.028.143-.028h.11s-.226.028-.226.055h-.083s-.083.055,0,.055a.375.375,0,0,0,.143-.028c.11,0-.193.028-.166.055h.083s.055,0,0,.028h0a.485.485,0,0,1-.11.028c-.028,0,.143,0,.083.028h.028s-.083.028,0,.028h-.207c.226,0,0,.028.253,0h.143s0,.028-.055.028h-.055c-.226,0,.055,0-.083.028h-.028a.5.5,0,0,0-.166.028.779.779,0,0,1,.253,0H406.5c-.028,0,0,0,.083.028h.11c.11,0-.166.028-.028.028H406.5s.308.055.364.055h-.253c.11,0-.055,0,0-.028h.028a.231.231,0,0,0-.11.028h.11s0,.055.143.055h.281s-.419.028-.474.028H406.4a1.393,1.393,0,0,0,.193.028h.529a.677.677,0,0,0-.193.028h-.055s-.055.028-.055.055h.226c0,.028.253,0,.143.055h-.253c-.083,0,0,.055-.083.055h0l-.041.4Z" transform="translate(-394.828 -35.8)" fill="#f2a5ba"/>
      <path id="_パス_1710" d="M407.56,62.588l.083-.028h-.083Z" transform="translate(-395.524 -37.651)" fill="#f2a5ba"/>
      <path id="_パス_1724" d="M381.41,45.658l.028.028-.028-.055Z" transform="translate(-381.41 -28.513)" fill="#f2a5ba"/>
      <path id="_パス_1725" d="M381.54,45.572h0v.055s.028-.083.055-.055C381.54,45.462,381.6,45.572,381.54,45.572Z" transform="translate(-381.48 -28.456)" fill="#f2a5ba"/>
      <path id="_パス_1733" d="M382.08,45.968l.028.055a.138.138,0,0,0-.028-.083h0Z" transform="translate(-381.772 -28.681)" fill="#f2a5ba"/>
      <rect id="_長方形_160" height="0.083" transform="translate(0.184 17.144)" fill="#f2a5ba"/>
      <path id="_パス_1735" d="M382.228,46.078v.055l-.028-.083.028.028Z" transform="translate(-381.836 -28.74)" fill="#f2a5ba"/>
      <path id="_パス_1736" d="M382.32,46.05a.488.488,0,0,1,.028.11v-.083h-.028Z" transform="translate(-381.901 -28.74)" fill="#f2a5ba"/>
      <path id="_パス_1738" d="M382.08,45.87s0,.055.028.055V45.87Z" transform="translate(-381.772 -28.643)" fill="#f2a5ba"/>
      <path id="_パス_1741" d="M381.84,45.45a.777.777,0,0,1,.028.143A.3.3,0,0,0,381.84,45.45Z" transform="translate(-381.642 -28.416)" fill="#f2a5ba"/>
      <path id="_パス_1743" d="M382.228,45.838V45.81H382.2v.028Z" transform="translate(-381.836 -28.61)" fill="#f2a5ba"/>
      <path id="_パス_1750" d="M382.228,45.07l.028.055c-.028-.083,0-.11-.055-.226v.055a1.088,1.088,0,0,0,.143.336v-.083c0-.028-.055-.055-.055-.11h0l-.06-.028Z" transform="translate(-381.836 -28.119)" fill="#f2a5ba"/>
      <path id="_パス_1751" d="M382.39,45.75h0s0,.028.055.083V45.75Z" transform="translate(-381.939 -28.578)" fill="#f2a5ba"/>
      <path id="_パス_1752" d="M382.255,45.556a.266.266,0,0,0-.055-.166v.083a.118.118,0,0,0,.028.055h0v.055h0l.028-.028Z" transform="translate(-381.836 -28.384)" fill="#f2a5ba"/>
      <path id="_パス_1753" d="M381.84,45.265a.493.493,0,0,1,.055.11.354.354,0,0,0-.055-.166h0v.083h0Z" transform="translate(-381.642 -28.287)" fill="#f2a5ba"/>
      <path id="_パス_1755" d="M382.45,45.778l.028.055-.028-.083Z" transform="translate(-381.971 -28.578)" fill="#f2a5ba"/>
      <path id="_パス_1756" d="M382.51,45.75l.028.055v-.028l-.028-.028Z" transform="translate(-382.004 -28.578)" fill="#f2a5ba"/>
      <path id="_パス_1758" d="M384.02,45.27s.083.143.055.055V45.27Z" transform="translate(-382.819 -28.319)" fill="#f2a5ba"/>
      <path id="_パス_1761" d="M383.111,45.482s.014.028.028.028C383.139,45.482,383.083,45.427,383.111,45.482Z" transform="translate(-382.324 -28.421)" fill="#f2a5ba"/>
      <path id="_パス_1769" d="M383.78,43.565v.055l.083.193-.083-.253Z" transform="translate(-382.689 -27.396)" fill="#f2a5ba"/>
      <path id="_パス_1770" d="M385.484,42.486s-.11-.253-.166-.391c.028.143-.11-.166-.055,0v-.028h0a.765.765,0,0,1-.143-.055h0c.028.11.028,0,.055.11-.055-.143-.083,0-.143-.143,0,0,.028.083,0,.083h0s-.055-.055-.055-.083h-.028a.139.139,0,0,0-.11.143h0s-.028,0-.055.055h0v.055c0-.028-.055-.083-.055-.11a.677.677,0,0,0,.028.193v.055c0-.055-.055-.083-.055-.143-.083-.11,0,.143-.083-.028.055.166.055.083.055.11,0,.055.028.11,0,.11,0,0-.083-.193-.11-.166h0s0,.055-.028,0c.028.083,0,0,0,.11h0s.028.143,0,.083v-.078h0c-.055-.11,0-.028,0-.143,0-.055,0,.083-.028-.028.055.166-.028,0,0,.11h0l-.055-.083s-.055-.055-.055,0c.028,0,.055.083.083.143,0,.11-.083-.166-.11-.11l.055.055-.055-.055a.488.488,0,0,1,.028.11c-.055-.083,0,.028,0,.083v-.083h-.028v-.051s-.028.055-.055.028c0,.055.055.143.028.143,0-.028,0-.055-.028-.055,0-.055-.028-.11,0-.028v-.06h-.055v.083a.765.765,0,0,1-.055-.143v.083s-.055-.055-.055-.083c-.028-.028,0,.143-.028.083h0s-.083-.028-.055.055l-.055-.11s.083.11.055.166c0,.028-.055-.083-.055-.11,0,.055.028.166,0,.083h0V42.4a.4.4,0,0,0-.083-.143c.083.193-.055.055.028.253h-.028v-.051s.055.143,0,.143a.125.125,0,0,1-.028-.055v.055h-.028v.083s-.028-.11,0-.11c-.111-.193,0,.055-.083-.055h0c-.055-.143-.055-.083-.111-.166,0,.028.111.166.111.226h0c-.028-.083-.028-.055-.028-.055v.028a1.35,1.35,0,0,1-.083-.143.765.765,0,0,1,.055.143q-.041-.041,0,.083a.094.094,0,0,0-.023-.083v.083h0a.293.293,0,0,1,.028.083c.028.11-.083-.143-.055,0a.138.138,0,0,0-.028-.083V42.8l-.055-.055s.055.166.083.226l.055.083v.055a.138.138,0,0,0-.028-.083h0l-.055-.11v.055a.5.5,0,0,0-.028-.166h0l-.06-.083h0v.336c0-.083-.055-.143-.083-.226.055.083,0-.055.028-.028l-.028-.055v.11a.1.1,0,0,0-.06-.083c.055.143,0,.11,0,.166,0-.055-.028-.11,0-.083-.055-.11.055.193,0,.083h0c0,.055,0,0-.028,0h0s-.083,0-.028.143l-.055-.166.11.446a3.3,3.3,0,0,1-.166-.419h0a1.383,1.383,0,0,1,.083.166l-.083-.166s.083.193.055.193a1.223,1.223,0,0,0-.083-.193l.055.166s-.055-.143-.083-.193h0s.055.281.028.281c0-.028-.083-.226-.11-.226,0,.083.143.419.143.5h0s-.143-.419-.166-.529c0-.028,0-.055-.028-.055v-.087h-.055a.3.3,0,0,0,.055.166v-.11s.083.281.055.281a1.03,1.03,0,0,0-.083-.226h0s0,.143-.028.055c0,0-.055-.11-.055-.055.055.11.193.474.226.557,0,0-.083-.11-.111-.143-.055-.083-.055-.226-.11-.281v.083s-.028-.083-.028-.055c.028.11-.028,0,0,.083,0,.028,0,0-.028,0,.028.055.083.226.055.253a.138.138,0,0,0-.028-.083c-.028,0-.055-.055-.083-.028a.263.263,0,0,0-.055-.083v.055l-.028-.11v.143c.028.083.028,0,.028-.028a.86.86,0,0,1,.083.336c0,.028-.028-.083-.028-.055-.055,0,.055.226,0,.143a1.022,1.022,0,0,1-.083-.226c0-.028.055.055.055.028H382.8v-.06c-.028-.055-.083,0-.143-.055v.083h0s0,.083.028.11h0c0,.055-.083-.11-.028,0v.055s.055.143.028.143c.028.083,0,0,.055.083-.055-.143.055,0,0-.143a.723.723,0,0,0,.083.143v-.055h0v-.2a.763.763,0,0,1,.055.143h0s.055.055.055,0h0v-.06h0s0-.11.083,0v.028s.083.055.055,0c.083.143.055,0,.11.028v-.193s.041.014.055,0h0c.083.143,0-.143.083-.028h.055l-.028-.055v-.055s0-.055.055.083a.676.676,0,0,0-.028-.193h0v-.028a1.11,1.11,0,0,1,.083.166v-.11s0-.083.028-.028c.055.11.083,0,.166.083-.083-.166.055.055,0-.055,0,.028.028.055.055.11,0-.055.055.055.028-.055a.108.108,0,0,0,.028.083h0v.055a1.25,1.25,0,0,0-.083-.253c.028.055.028.028,0-.028,0,.028.055.083.028.083,0,0,.083.028.028-.055h.028v-.055h0s0-.028.083.055v-.055c-.083-.143.028.083.028,0h0s.11.166.143.166v.028c.055.083-.028-.083,0-.11a.385.385,0,0,0,.055.143c0,.028-.028-.166.028-.083a.228.228,0,0,0-.055-.11s.11.143.055,0h0v-.115c.111.253,0-.143.111.083h.028v-.055c.055.028.055,0,.028-.11v.083s.143.083.11,0h0s.166.193.055-.055V43l-.083-.166s.055.055.055.083h0s.055,0,.083.11c.055-.028.143,0,.193,0l-.055-.11h0s.028.083,0,.083c.028.055,0-.055,0-.083.055.028.028.143.055.143h0v-.115l.028.055h.028l-.055-.083v-.083c.083.143.11,0,.143.055V42.8s-.055-.11-.028-.11c.083.193.055.083.143.226-.055-.083.028-.028-.028-.166a.414.414,0,0,0,.055.11c0-.083.083,0,.11,0a.245.245,0,0,1-.028-.11l.083.11s-.055-.143,0-.055v-.055s.083-.166.253.055c-.028-.055,0-.055,0-.055h0s.055,0,.028-.11h0l.078-.138Z" transform="translate(-382.073 -26.543)" fill="#f2a5ba"/>
      <path id="_パス_1774" d="M382.418,45.316s0-.028-.028,0Z" transform="translate(-381.939 -28.337)" fill="#f2a5ba"/>
      <path id="_パス_1777" d="M382.32,44.928V44.9l.028.083Z" transform="translate(-381.901 -28.119)" fill="#f2a5ba"/>
      <path id="_パス_1783" d="M383.23,44.54h0l.055.143Z" transform="translate(-382.392 -27.925)" fill="#f2a5ba"/>
      <path id="_パス_1784" d="M383.351,43.62a.118.118,0,0,0,.028.055c0-.028,0,0-.028-.11C383.323,43.537,383.378,43.648,383.351,43.62Z" transform="translate(-382.453 -27.396)" fill="#f2a5ba"/>
      <path id="_パス_1785" d="M388.94,43.45l.028.028Z" transform="translate(-385.474 -27.337)" fill="#f2a5ba"/>
      <path id="_パス_1788" d="M385.18,42.78h0l.055.083Z" transform="translate(-383.445 -26.975)" fill="#f2a5ba"/>
    </g>
    <path id="Path_2067" data-name="Path 2067" d="M3.3-3.708l-.932.07-.645.054-.336.027a.1.1,0,0,1-.079-.054.19.19,0,0,1-.035-.1.068.068,0,0,1,.024-.057A.153.153,0,0,1,1.349-3.8a.255.255,0,0,0,.041-.014q.005-.292.005-1.365A9.226,9.226,0,0,0,1.332-6.4q-.062-.436-.062-.468a.142.142,0,0,1,.057-.119.19.19,0,0,1,.116-.043A.07.07,0,0,1,1.5-7a.229.229,0,0,1,.032.095,3.566,3.566,0,0,1,.084.677q.03.493.03,1.029,0,.455-.005.845t-.005.525l.271-.019.412-.03Q2.635-3.92,3.03-4a3.381,3.381,0,0,1,.385-.06A.071.071,0,0,1,3.491-4a.456.456,0,0,1,.016.13.133.133,0,0,1-.062.114A.287.287,0,0,1,3.3-3.708ZM8.224-4.77a1.508,1.508,0,0,1-.144.428,1.923,1.923,0,0,1-.433.612.983.983,0,0,1-.712.282.818.818,0,0,1-.58-.217.869.869,0,0,1-.233-.666,1.948,1.948,0,0,1,.195-.837,1.947,1.947,0,0,1,.509-.677,1,1,0,0,1,.65-.263.61.61,0,0,1,.339.089.288.288,0,0,1,.138.257.494.494,0,0,1-.214.368,2.029,2.029,0,0,1-.555.314,3.394,3.394,0,0,1-.7.195,1.927,1.927,0,0,0-.065.487.725.725,0,0,0,.149.487.53.53,0,0,0,.425.173.856.856,0,0,0,.677-.3A2.817,2.817,0,0,0,8.1-4.7q.011-.022.038-.084t.049-.062Q8.224-4.851,8.224-4.77ZM7.412-5.886a.671.671,0,0,0-.4.135,1.26,1.26,0,0,0-.317.325,1.142,1.142,0,0,0-.165.336A1.935,1.935,0,0,0,7.06-5.23a2.249,2.249,0,0,0,.463-.249q.187-.135.187-.222a.149.149,0,0,0-.089-.135A.429.429,0,0,0,7.412-5.886Zm5.443.39-.558.1-.352.06q0,.282.008.59t.024.542a2.134,2.134,0,0,0,.076.482q.054.168.06.19a.126.126,0,0,1-.068.1.229.229,0,0,1-.127.046.079.079,0,0,1-.054-.019.154.154,0,0,1-.038-.062,1.294,1.294,0,0,1-.062-.282q-.03-.206-.046-.455-.016-.222-.024-.517T11.685-5.3q-.3.049-.623.119a2.837,2.837,0,0,1-.341.06.216.216,0,0,1-.122-.038.118.118,0,0,1-.057-.1.09.09,0,0,1,.049-.092.435.435,0,0,1,.162-.022,1.4,1.4,0,0,0,.238-.03q.157-.03.2-.041.363-.07.493-.092,0-.114-.011-.3-.011-.249-.011-.379a3.021,3.021,0,0,1,.014-.328.784.784,0,0,1,.051-.209.161.161,0,0,1,.162-.108.094.094,0,0,1,.065.016.084.084,0,0,1,.016.06,1.776,1.776,0,0,1-.027.19,2.559,2.559,0,0,0-.027.417q0,.2.011.45l.005.146q.244-.038.964-.2a.121.121,0,0,0,.073-.076q.03-.065.062-.065a.173.173,0,0,1,.122.068.2.2,0,0,1,.062.138.156.156,0,0,1-.079.141A.781.781,0,0,1,12.855-5.5Zm3.179-.693a.144.144,0,0,1-.07.022.11.11,0,0,1-.092-.054,1.265,1.265,0,0,1-.022-.336l-.011-.33a2.46,2.46,0,0,0-.038-.271,1.994,1.994,0,0,1-.032-.26q0-.076.032-.1a.147.147,0,0,1,.07-.011.3.3,0,0,1,.114.024.158.158,0,0,1,.081.062,1.014,1.014,0,0,1,.049.252,3.605,3.605,0,0,1,.022.4,2.57,2.57,0,0,1-.027.4Q16.083-6.216,16.034-6.189Zm3.537,2.9a.758.758,0,0,1-.314-.043.132.132,0,0,1-.081-.119q0-.049.125-.171t.168-.122q.065,0,.065.027a.059.059,0,0,1-.027.043q-.027.022-.027.038t.068.043a.547.547,0,0,0,.165.022,1.329,1.329,0,0,0,.458-.084,1.1,1.1,0,0,0,.376-.219.392.392,0,0,0,.146-.287.3.3,0,0,0-.092-.233.56.56,0,0,0-.23-.127q-.138-.041-.463-.116-.357-.081-.555-.144a.979.979,0,0,1-.317-.157.3.3,0,0,1-.119-.241.624.624,0,0,1,.255-.477,1.962,1.962,0,0,1,.585-.341,1.582,1.582,0,0,1,.509-.125q.184,0,.184.108a.3.3,0,0,1-.043.144.14.14,0,0,1-.13.079.132.132,0,0,1-.07-.024.139.139,0,0,0-.076-.024,1.339,1.339,0,0,0-.341.07,1.365,1.365,0,0,0-.422.211.415.415,0,0,0-.19.341.2.2,0,0,0,.149.192,3.93,3.93,0,0,0,.555.154.642.642,0,0,0,.1.024.791.791,0,0,1,.087.019A2.524,2.524,0,0,1,20.7-4.6a.4.4,0,0,1,.222.374.688.688,0,0,1-.192.458,1.367,1.367,0,0,1-.506.352A1.668,1.668,0,0,1,19.571-3.286Zm8-.211q-.065,0-.122-.154a1.443,1.443,0,0,1-.057-.468q.005-.612.019-1.479T27.436-6.9a.906.906,0,0,1,.057-.292.184.184,0,0,1,.181-.135.056.056,0,0,1,.057.046.742.742,0,0,1,.014.176s0,.015,0,.035,0,.055,0,.106q-.1,1.424-.1,2.778a.988.988,0,0,0,.079.368q.079.195.079.206,0,.054-.07.087A.37.37,0,0,1,27.571-3.5ZM30.7-6.779a.3.3,0,0,1-.187-.076q-.095-.076-.095-.125a.157.157,0,0,1,.057-.114.169.169,0,0,1,.116-.054l.041.014a.251.251,0,0,1,.095.073,1.185,1.185,0,0,1,.1.114.266.266,0,0,1,.054.087Q30.88-6.779,30.7-6.779Zm.162,3.434q-.076-.005-.111-.244t-.073-.9q-.022-.439-.038-.858T30.62-6a.169.169,0,0,1,.019-.089.08.08,0,0,1,.073-.03.146.146,0,0,1,.157.1,1.558,1.558,0,0,1,.032.4l-.005.639q0,.547.032.877,0,.016.049.347a2.326,2.326,0,0,1,.038.3.1.1,0,0,1-.046.084A.162.162,0,0,1,30.864-3.345Zm5.5-2.724a3.255,3.255,0,0,0-.525.915,7.165,7.165,0,0,0-.385,1.289q-.016.081-.054.325l-.027.19a.226.226,0,0,1-.073.135.307.307,0,0,1-.2.049,1.182,1.182,0,0,1-.184-.328q-.157-.328-.33-.707l-.233-.509q-.211-.46-.352-.72t-.206-.26a.04.04,0,0,0-.035.027q-.014.027-.03.027a.057.057,0,0,1-.046-.024.083.083,0,0,1-.019-.051.359.359,0,0,1,.079-.184q.079-.114.154-.114a.128.128,0,0,1,.081.022.311.311,0,0,1,.049.049q.022.027.032.043a5.431,5.431,0,0,1,.45.856q.114.244.563,1.273l.125.287a3.038,3.038,0,0,1,.054-.455A7.385,7.385,0,0,1,35.614-5.2a4.211,4.211,0,0,1,.558-1.051.828.828,0,0,1,.106-.122.155.155,0,0,1,.106-.035q.027,0,.087.084a.284.284,0,0,1,.06.111q0,.027-.073.076A.433.433,0,0,0,36.367-6.07Zm4.652,1.3a1.508,1.508,0,0,1-.144.428,1.923,1.923,0,0,1-.433.612.983.983,0,0,1-.712.282.818.818,0,0,1-.58-.217.869.869,0,0,1-.233-.666,1.948,1.948,0,0,1,.195-.837,1.947,1.947,0,0,1,.509-.677,1,1,0,0,1,.65-.263.61.61,0,0,1,.339.089.288.288,0,0,1,.138.257.494.494,0,0,1-.214.368,2.029,2.029,0,0,1-.555.314,3.394,3.394,0,0,1-.7.195,1.927,1.927,0,0,0-.065.487.725.725,0,0,0,.149.487.53.53,0,0,0,.425.173.856.856,0,0,0,.677-.3,2.818,2.818,0,0,0,.433-.672q.011-.022.038-.084t.049-.062Q41.019-4.851,41.019-4.77Zm-.812-1.116a.671.671,0,0,0-.4.135,1.26,1.26,0,0,0-.317.325,1.142,1.142,0,0,0-.165.336,1.935,1.935,0,0,0,.525-.141,2.249,2.249,0,0,0,.463-.249q.187-.135.187-.222a.149.149,0,0,0-.089-.135A.429.429,0,0,0,40.207-5.886ZM47.632-3.5q-.065,0-.122-.154a1.443,1.443,0,0,1-.057-.468q.005-.612.019-1.479T47.5-6.9a.906.906,0,0,1,.057-.292.184.184,0,0,1,.181-.135.056.056,0,0,1,.057.046.741.741,0,0,1,.014.176s0,.015,0,.035,0,.055,0,.106q-.1,1.424-.1,2.778a.988.988,0,0,0,.079.368q.079.195.079.206,0,.054-.07.087A.37.37,0,0,1,47.632-3.5Zm3.131-3.282a.3.3,0,0,1-.187-.076q-.095-.076-.095-.125a.157.157,0,0,1,.057-.114.169.169,0,0,1,.116-.054l.041.014a.251.251,0,0,1,.095.073,1.184,1.184,0,0,1,.1.114.265.265,0,0,1,.054.087Q50.942-6.779,50.763-6.779Zm.162,3.434q-.076-.005-.111-.244t-.073-.9q-.022-.439-.038-.858T50.682-6a.169.169,0,0,1,.019-.089.08.08,0,0,1,.073-.03.146.146,0,0,1,.157.1,1.558,1.558,0,0,1,.032.4l-.005.639q0,.547.033.877,0,.016.049.347a2.326,2.326,0,0,1,.038.3.1.1,0,0,1-.046.084A.162.162,0,0,1,50.925-3.345Zm5.259-2.215a.159.159,0,0,1-.1-.046.163.163,0,0,0-.076-.046,1.067,1.067,0,0,0-.466.2,6.83,6.83,0,0,0-.655.471,5.317,5.317,0,0,0-.515.46l.005.1q.412.19.915.406a4.2,4.2,0,0,0,.7.255q.076.011.152.016t.108.005a.507.507,0,0,1,.081.005q.032.005.032.022,0,.065-.1.13a.559.559,0,0,1-.3.065,1.318,1.318,0,0,1-.485-.133Q55.177-3.784,54.76-4l-.341-.168q.07.688.07.758a.113.113,0,0,1-.06.1.237.237,0,0,1-.13.038q-.043,0-.07-.13t-.065-.515l-.038-.33a.33.33,0,0,1-.114-.079.146.146,0,0,1-.049-.095q0-.065.108-.152-.005-.292-.03-.834T54.007-6.2l-.027-.753a.79.79,0,0,1,.038-.26.159.159,0,0,1,.168-.108.085.085,0,0,1,.065.019.118.118,0,0,1,.016.073q0,.249.035,1.156t.057,1.292q1.208-1.148,1.766-1.148a.415.415,0,0,1,.192.041q.079.041.079.084a.25.25,0,0,1-.073.16A.2.2,0,0,1,56.185-5.561Zm4.62.791a1.508,1.508,0,0,1-.144.428,1.923,1.923,0,0,1-.433.612.983.983,0,0,1-.712.282.818.818,0,0,1-.58-.217.869.869,0,0,1-.233-.666,1.948,1.948,0,0,1,.195-.837,1.947,1.947,0,0,1,.509-.677,1,1,0,0,1,.65-.263.61.61,0,0,1,.339.089.288.288,0,0,1,.138.257.494.494,0,0,1-.214.368,2.029,2.029,0,0,1-.555.314,3.394,3.394,0,0,1-.7.195A1.927,1.927,0,0,0,59-4.4a.725.725,0,0,0,.149.487.53.53,0,0,0,.425.173.856.856,0,0,0,.677-.3A2.817,2.817,0,0,0,60.68-4.7q.011-.022.038-.084t.049-.062Q60.8-4.851,60.8-4.77Zm-.812-1.116a.671.671,0,0,0-.4.135,1.26,1.26,0,0,0-.317.325,1.142,1.142,0,0,0-.165.336,1.935,1.935,0,0,0,.525-.141,2.249,2.249,0,0,0,.463-.249q.187-.135.187-.222a.149.149,0,0,0-.089-.135A.429.429,0,0,0,59.992-5.886Zm7.751,2.454a.671.671,0,0,1-.536-.2.735.735,0,0,1-.173-.5,2.784,2.784,0,0,1,.095-.645,2.664,2.664,0,0,1,.268-.688q.011-.022.089-.16a.677.677,0,0,1,.176-.211.338.338,0,0,1,.206-.073.17.17,0,0,1,.089.024A.072.072,0,0,1,68-5.821a.146.146,0,0,1-.03.051l-.046.062a2.549,2.549,0,0,0-.3.439,2.96,2.96,0,0,0-.236.547,1.985,1.985,0,0,0-.084.59q0,.428.52.428a.792.792,0,0,0,.452-.141,1.119,1.119,0,0,0,.333-.344.724.724,0,0,0,.125-.371.483.483,0,0,0-.125-.33,2.114,2.114,0,0,0-.341-.3,1.858,1.858,0,0,1-.206-.168A.177.177,0,0,1,68-5.463q0-.065.092-.106a.533.533,0,0,1,.217-.041A.324.324,0,0,1,68.4-5.6a.03.03,0,0,1,.022.03.074.074,0,0,1-.019.035.073.073,0,0,0-.019.041q0,.016.108.108a2.458,2.458,0,0,1,.363.363A.676.676,0,0,1,69-4.591a1.017,1.017,0,0,1-.157.487,1.438,1.438,0,0,1-.444.474A1.128,1.128,0,0,1,67.743-3.432Zm5.936.054q-.108,0-.2-.227a1.692,1.692,0,0,1-.111-.471q-.022-.233-.033-.942-.005-.114-.005-.23t-.005-.2a8.148,8.148,0,0,1-.428.85,6.233,6.233,0,0,1-.544.818q-.274.341-.447.341a.232.232,0,0,1-.236-.19,2.287,2.287,0,0,1-.057-.6,4.381,4.381,0,0,1,.1-.872,3.051,3.051,0,0,1,.23-.742A.664.664,0,0,1,72.038-6a.116.116,0,0,1,.087-.041q.135,0,.135.054a.388.388,0,0,1-.054.125,3.254,3.254,0,0,0-.255.65,3.838,3.838,0,0,0-.108,1.018q0,.428.119.428.141,0,.382-.311a5.736,5.736,0,0,0,.479-.745,6.533,6.533,0,0,0,.363-.753,2.6,2.6,0,0,0,.1-.336.739.739,0,0,1,.033-.133q.016-.041.038-.041a.233.233,0,0,1,.13.049.132.132,0,0,1,.07.1q0,.26.019.891t.046.875a1.03,1.03,0,0,0,.079.33.978.978,0,0,0,.111.187.249.249,0,0,1,.054.084.183.183,0,0,1-.049.135A.183.183,0,0,1,73.679-3.378Zm4.468-2.2a.107.107,0,0,1-.073-.032A.636.636,0,0,1,78-5.7a.329.329,0,0,0-.1-.092.242.242,0,0,0-.127-.038q-.157,0-.422.414a6.426,6.426,0,0,0-.52,1.043q.005.125.019.314t.019.282l.016.217a.263.263,0,0,1-.032.133.125.125,0,0,1-.119.057q-.092,0-.119-.246t-.033-.718q-.005-.119-.008-.341t-.014-.531q-.016-.466-.016-.666,0-.125.152-.125a.1.1,0,0,1,.111.079,1.537,1.537,0,0,1,.019.3v.861a4.323,4.323,0,0,1,.352-.72,2.1,2.1,0,0,1,.371-.463.522.522,0,0,1,.322-.16.5.5,0,0,1,.227.054.494.494,0,0,1,.173.138.265.265,0,0,1,.065.16.168.168,0,0,1-.068.111A.19.19,0,0,1,78.147-5.577Zm3.331,2.291a.758.758,0,0,1-.314-.043.132.132,0,0,1-.081-.119q0-.049.125-.171t.168-.122q.065,0,.065.027a.059.059,0,0,1-.027.043q-.027.022-.027.038t.068.043a.547.547,0,0,0,.165.022,1.329,1.329,0,0,0,.458-.084,1.1,1.1,0,0,0,.376-.219.392.392,0,0,0,.146-.287.3.3,0,0,0-.092-.233.56.56,0,0,0-.23-.127q-.138-.041-.463-.116-.357-.081-.555-.144a.979.979,0,0,1-.317-.157.3.3,0,0,1-.119-.241.624.624,0,0,1,.255-.477,1.962,1.962,0,0,1,.585-.341,1.582,1.582,0,0,1,.509-.125q.184,0,.184.108a.3.3,0,0,1-.043.144.14.14,0,0,1-.13.079.132.132,0,0,1-.07-.024.139.139,0,0,0-.076-.024,1.339,1.339,0,0,0-.341.07,1.365,1.365,0,0,0-.422.211.415.415,0,0,0-.19.341.2.2,0,0,0,.149.192,3.93,3.93,0,0,0,.555.154.642.642,0,0,0,.1.024.792.792,0,0,1,.087.019,2.524,2.524,0,0,1,.639.222.4.4,0,0,1,.222.374.688.688,0,0,1-.192.458,1.367,1.367,0,0,1-.506.352A1.668,1.668,0,0,1,81.478-3.286ZM87.544-4.77a1.508,1.508,0,0,1-.144.428,1.923,1.923,0,0,1-.433.612.983.983,0,0,1-.712.282.818.818,0,0,1-.58-.217.869.869,0,0,1-.233-.666,1.948,1.948,0,0,1,.195-.837,1.947,1.947,0,0,1,.509-.677,1,1,0,0,1,.65-.263.61.61,0,0,1,.339.089.288.288,0,0,1,.138.257.494.494,0,0,1-.214.368,2.029,2.029,0,0,1-.555.314,3.394,3.394,0,0,1-.7.195,1.926,1.926,0,0,0-.065.487.725.725,0,0,0,.149.487.53.53,0,0,0,.425.173.856.856,0,0,0,.677-.3A2.817,2.817,0,0,0,87.42-4.7q.011-.022.038-.084t.049-.062Q87.544-4.851,87.544-4.77Zm-.812-1.116a.671.671,0,0,0-.4.135,1.26,1.26,0,0,0-.317.325,1.142,1.142,0,0,0-.165.336,1.935,1.935,0,0,0,.525-.141,2.249,2.249,0,0,0,.463-.249q.187-.135.187-.222a.149.149,0,0,0-.089-.135A.429.429,0,0,0,86.732-5.886Zm3.7,2.389q-.065,0-.122-.154a1.443,1.443,0,0,1-.057-.468q.005-.612.019-1.479T90.3-6.9a.906.906,0,0,1,.057-.292.184.184,0,0,1,.181-.135.056.056,0,0,1,.057.046.742.742,0,0,1,.014.176s0,.015,0,.035,0,.055,0,.106q-.1,1.424-.1,2.778a.987.987,0,0,0,.079.368q.079.195.079.206,0,.054-.07.087A.37.37,0,0,1,90.436-3.5ZM95.885-6.07a3.255,3.255,0,0,0-.525.915,7.165,7.165,0,0,0-.385,1.289q-.016.081-.054.325l-.027.19a.227.227,0,0,1-.073.135.307.307,0,0,1-.2.049,1.183,1.183,0,0,1-.184-.328q-.157-.328-.33-.707l-.233-.509q-.211-.46-.352-.72t-.206-.26a.04.04,0,0,0-.035.027q-.014.027-.03.027a.057.057,0,0,1-.046-.024.083.083,0,0,1-.019-.051.359.359,0,0,1,.079-.184q.079-.114.154-.114a.128.128,0,0,1,.081.022.311.311,0,0,1,.049.049q.022.027.032.043a5.429,5.429,0,0,1,.45.856q.114.244.563,1.273l.125.287a3.037,3.037,0,0,1,.054-.455A7.385,7.385,0,0,1,95.132-5.2a4.211,4.211,0,0,1,.558-1.051.828.828,0,0,1,.106-.122.155.155,0,0,1,.106-.035q.027,0,.087.084a.284.284,0,0,1,.06.111q0,.027-.073.076A.433.433,0,0,0,95.885-6.07Zm4.652,1.3a1.508,1.508,0,0,1-.144.428,1.923,1.923,0,0,1-.433.612.983.983,0,0,1-.712.282.818.818,0,0,1-.58-.217.869.869,0,0,1-.233-.666,1.948,1.948,0,0,1,.195-.837,1.947,1.947,0,0,1,.509-.677,1,1,0,0,1,.65-.263.61.61,0,0,1,.339.089.288.288,0,0,1,.138.257.494.494,0,0,1-.214.368,2.029,2.029,0,0,1-.555.314,3.4,3.4,0,0,1-.7.195,1.927,1.927,0,0,0-.065.487.725.725,0,0,0,.149.487.53.53,0,0,0,.425.173.856.856,0,0,0,.677-.3,2.817,2.817,0,0,0,.433-.672q.011-.022.038-.084t.049-.062Q100.538-4.851,100.538-4.77Zm-.812-1.116a.671.671,0,0,0-.4.135,1.26,1.26,0,0,0-.317.325,1.142,1.142,0,0,0-.165.336,1.935,1.935,0,0,0,.525-.141,2.249,2.249,0,0,0,.463-.249q.187-.135.187-.222a.149.149,0,0,0-.089-.135A.429.429,0,0,0,99.725-5.886Zm4,2.6a.758.758,0,0,1-.314-.043.132.132,0,0,1-.081-.119q0-.049.125-.171t.168-.122q.065,0,.065.027a.059.059,0,0,1-.027.043q-.027.022-.027.038t.068.043a.547.547,0,0,0,.165.022,1.329,1.329,0,0,0,.458-.084,1.1,1.1,0,0,0,.376-.219.392.392,0,0,0,.146-.287.3.3,0,0,0-.092-.233.56.56,0,0,0-.23-.127q-.138-.041-.463-.116-.357-.081-.555-.144a.979.979,0,0,1-.317-.157.3.3,0,0,1-.119-.241.623.623,0,0,1,.255-.477,1.962,1.962,0,0,1,.585-.341,1.582,1.582,0,0,1,.509-.125q.184,0,.184.108a.3.3,0,0,1-.043.144.14.14,0,0,1-.13.079.132.132,0,0,1-.07-.024.139.139,0,0,0-.076-.024,1.339,1.339,0,0,0-.341.07,1.365,1.365,0,0,0-.422.211.415.415,0,0,0-.19.341.2.2,0,0,0,.149.192,3.93,3.93,0,0,0,.555.154.642.642,0,0,0,.1.024.792.792,0,0,1,.087.019,2.524,2.524,0,0,1,.639.222.4.4,0,0,1,.222.374.688.688,0,0,1-.192.458,1.367,1.367,0,0,1-.506.352A1.668,1.668,0,0,1,103.728-3.286Zm9.738-2.21-.558.1-.352.06q0,.282.008.59t.024.542a2.135,2.135,0,0,0,.076.482q.054.168.06.19a.126.126,0,0,1-.068.1.229.229,0,0,1-.127.046.079.079,0,0,1-.054-.019.154.154,0,0,1-.038-.062,1.3,1.3,0,0,1-.062-.282q-.03-.206-.046-.455-.016-.222-.024-.517T112.3-5.3q-.3.049-.623.119a2.838,2.838,0,0,1-.341.06.216.216,0,0,1-.122-.038.118.118,0,0,1-.057-.1.09.09,0,0,1,.049-.092.435.435,0,0,1,.162-.022,1.4,1.4,0,0,0,.238-.03q.157-.03.2-.041.363-.07.493-.092,0-.114-.011-.3-.011-.249-.011-.379a3.022,3.022,0,0,1,.014-.328.784.784,0,0,1,.051-.209.161.161,0,0,1,.162-.108.094.094,0,0,1,.065.016.084.084,0,0,1,.016.06,1.775,1.775,0,0,1-.027.19,2.558,2.558,0,0,0-.027.417q0,.2.011.45l.005.146q.244-.038.964-.2a.121.121,0,0,0,.073-.076q.03-.065.062-.065a.173.173,0,0,1,.122.068.2.2,0,0,1,.062.138.156.156,0,0,1-.079.141A.781.781,0,0,1,113.466-5.5Zm3.428,2.064a.671.671,0,0,1-.536-.2.735.735,0,0,1-.173-.5,2.784,2.784,0,0,1,.095-.645,2.664,2.664,0,0,1,.268-.688q.011-.022.089-.16a.677.677,0,0,1,.176-.211.338.338,0,0,1,.206-.073.17.17,0,0,1,.089.024.072.072,0,0,1,.041.062.146.146,0,0,1-.03.051l-.046.062a2.549,2.549,0,0,0-.3.439,2.961,2.961,0,0,0-.236.547,1.985,1.985,0,0,0-.084.59q0,.428.52.428a.792.792,0,0,0,.452-.141,1.119,1.119,0,0,0,.333-.344.724.724,0,0,0,.125-.371.483.483,0,0,0-.125-.33,2.113,2.113,0,0,0-.341-.3,1.859,1.859,0,0,1-.206-.168.177.177,0,0,1-.065-.108q0-.065.092-.106a.533.533,0,0,1,.217-.041.324.324,0,0,1,.092.008.03.03,0,0,1,.022.03.074.074,0,0,1-.019.035.073.073,0,0,0-.019.041q0,.016.108.108a2.458,2.458,0,0,1,.363.363.676.676,0,0,1,.146.433,1.017,1.017,0,0,1-.157.487,1.438,1.438,0,0,1-.444.474A1.128,1.128,0,0,1,116.894-3.432Zm5.8-3.743q0,.108-.011.425t-.011.636q0,.617.027,1.259t.043.842a.5.5,0,0,0,.005.07q.005.038.011.07.022.152.022.184,0,.054-.079.1a.262.262,0,0,1-.122.049.076.076,0,0,1-.079-.046.344.344,0,0,1-.019-.127q0-.3.016-.623l.005-.3q0-.152-.005-.4t-.016-.414a6.806,6.806,0,0,1-.626,1.47q-.349.582-.756.582a.376.376,0,0,1-.311-.173.832.832,0,0,1-.127-.5,1.892,1.892,0,0,1,.29-.932,3.974,3.974,0,0,1,.661-.867q.371-.363.55-.363t.173.114a.4.4,0,0,1-.051.176,1.192,1.192,0,0,1-.114.181q-.062.081-.073.081a.049.049,0,0,1-.024-.008.023.023,0,0,1-.014-.019.288.288,0,0,1,.027-.092.3.3,0,0,0,.027-.087.093.093,0,0,0-.005-.038q-.005-.011-.032-.011-.114,0-.409.311a3.5,3.5,0,0,0-.528.739,1.681,1.681,0,0,0-.233.8.56.56,0,0,0,.054.244.184.184,0,0,0,.179.114q.4,0,.734-.669a8.919,8.919,0,0,0,.588-1.519l-.011-.455q-.016-.6-.016-.639a2.78,2.78,0,0,1,.027-.466.245.245,0,0,1,.024-.076.062.062,0,0,1,.057-.022.2.2,0,0,1,.108.035.108.108,0,0,1,.054.095Zm5.124,3.5a.285.285,0,0,1-.054.149q-.054.084-.108.084-.092,0-.141-.114a.67.67,0,0,1-.049-.265q0-.13.016-.78l.005-.206a.22.22,0,0,0-.065-.179q-.244.412-.455.715a2.879,2.879,0,0,1-.536.571,1.059,1.059,0,0,1-.682.268.337.337,0,0,1-.268-.108.412.412,0,0,1-.095-.282,1.416,1.416,0,0,1,.195-.593,4.906,4.906,0,0,1,.5-.764,4.054,4.054,0,0,1,.607-.636,1.784,1.784,0,0,1,.32-.219.5.5,0,0,1,.211-.057.352.352,0,0,1,.179.054.483.483,0,0,1,.157.152.391.391,0,0,1,.065.222.606.606,0,0,1-.092.32l.092-.027q.06,0,.07.146.005.087.014.352t.014.439q.005.179.011.347t.011.265a.15.15,0,0,0,.043.079A.113.113,0,0,1,127.819-3.67Zm-.471-1.522a.94.94,0,0,0,.065-.352.305.305,0,0,0-.068-.2.221.221,0,0,0-.181-.084.6.6,0,0,0-.347.184,3.785,3.785,0,0,0-.515.55,4.6,4.6,0,0,0-.45.68,1.24,1.24,0,0,0-.179.531q0,.162.152.162a.892.892,0,0,0,.563-.217,2.552,2.552,0,0,0,.485-.517Q127.088-4.754,127.348-5.192Zm4.912-.13q-.065.477-.07.536-.07.666-.1,1.016t-.03.631a1.525,1.525,0,0,0,.035.368,1.059,1.059,0,0,0,.076.214.365.365,0,0,1,.041.095q0,.049-.087.087a.442.442,0,0,1-.179.038q-.07,0-.111-.19a3.091,3.091,0,0,1-.041-.59,7.5,7.5,0,0,1,.06-.818l.081-.747a3.017,3.017,0,0,1-.36.539.592.592,0,0,1-.441.257q-.211,0-.379-.368a3.868,3.868,0,0,1-.263-.834,3.849,3.849,0,0,1-.095-.682q0-.135.081-.135.119,0,.152.222.206,1.506.574,1.506a.346.346,0,0,0,.257-.116,2.315,2.315,0,0,0,.263-.36,2.349,2.349,0,0,0,.152-.3q.081-.19.125-.314l.038-.547A.647.647,0,0,1,132.071-6a.085.085,0,0,1,.087-.051.149.149,0,0,1,.108.062.188.188,0,0,1,.054.122A5.049,5.049,0,0,1,132.26-5.322Zm3.212,1.988a.234.234,0,0,1-.187-.116,1.044,1.044,0,0,1-.135-.26A.753.753,0,0,1,135.1-3.9a.157.157,0,0,1,.057-.114.169.169,0,0,1,.116-.054.07.07,0,0,1,.06.03q.022.03.065.1a.4.4,0,0,0,.092.125.4.4,0,0,1,.116.2.837.837,0,0,1,.046.195Q135.651-3.335,135.472-3.335Z" transform="translate(579.897 1079.835)" fill="#f695c1"/>
  </g>
</svg>
