<svg xmlns="http://www.w3.org/2000/svg" width="182.851" height="41.591" viewBox="0 0 182.851 41.591">
  <g id="Logo_LS" transform="translate(-1.149 -0.887)">
    <g id="Group_956" data-name="Group 956" transform="translate(1.149 12.74)">
      <path id="_パス_1380-2" d="M17.084,68.268H2.72V40.77h3V65.707H17.084Z" transform="translate(-2.72 -38.961)" fill="#f1a1b4"/>
      <path id="_パス_1381-2" d="M55.057,45.545a1.944,1.944,0,0,1-1.948-1.94v-.114a1.968,1.968,0,1,1,3.934-.089v.085a1.916,1.916,0,0,1-1.762,2.054,1.322,1.322,0,0,1-.224,0Zm1.517,23.133h-3V49.006h3V68.673Z" transform="translate(-31.815 -39.37)" fill="#f1a1b4"/>
      <path id="_パス_1382-2" d="M80.995,46.124c0-2.455,0-5.667,2.164-7.869a6.492,6.492,0,0,1,4.547-1.766,7.241,7.241,0,0,1,2.924.579l-.5,2.345a5.618,5.618,0,0,0-2.274-.469c-3.1,0-3.862,2.886-3.862,6.064v1.12h4.763v2.345H83.991V65.8h-3V48.474h-2.7V46.128h2.7Z" transform="translate(-46.355 -36.488)" fill="#f1a1b4"/>
      <path id="_パス_1383-2" d="M130.95,77.478a14.222,14.222,0,0,1-6.17,1.226c-5.743,0-9.17-4.04-9.17-9.922,0-6.17,3.465-10.611,8.769-10.611,6.064,0,7.615,5.557,7.615,8.984,0,.685-.038,1.192-.072,1.661H118.539c.038,5.447,3.14,7.5,6.677,7.5a12.44,12.44,0,0,0,5.16-1.01l.579,2.164h0Zm-1.914-10.894c.038-2.671-1.082-6.136-4.944-6.136-3.613,0-5.2,3.427-5.485,6.136Z" transform="translate(-67.904 -49.008)" fill="#f1a1b4"/>
      <path id="_パス_1384-2" d="M212.513,43.6a9.335,9.335,0,0,0-4.834-1.264c-3.824,0-5.27,2.345-5.27,4.332,0,2.7,1.661,4.074,5.342,5.629,4.437,1.876,6.711,4.15,6.711,8.084,0,4.365-3.178,7.721-9.094,7.721a12.66,12.66,0,0,1-6.567-1.733l.833-2.489a11.182,11.182,0,0,0,5.92,1.695c3.681,0,5.844-1.986,5.844-4.944,0-2.7-1.483-4.365-5.054-5.811-4.15-1.551-6.964-3.968-6.964-7.759,0-4.188,3.393-7.252,8.41-7.252a11.194,11.194,0,0,1,5.629,1.3l-.9,2.489h0Z" transform="translate(-115.939 -38.403)" fill="#f1a1b4"/>
      <path id="_パス_1385-2" d="M253.214,49.45l2.958-1.01v4.581h5.088v2.345h-5.088V66.734c0,2.489.756,3.862,2.671,3.862a5.952,5.952,0,0,0,2.02-.287l.182,2.312a7.575,7.575,0,0,1-2.924.469c-4.763,0-4.91-4.332-4.91-6.423V55.37h-3.03V53.025h3.03V49.454Z" transform="translate(-145.606 -43.389)" fill="#f1a1b4"/>
      <path id="_パス_1386-2" d="M305.057,73.615a27.653,27.653,0,0,0,.287,4.691H302.6l-.292-2.527h-.11a6.839,6.839,0,0,1-5.811,2.958,5.456,5.456,0,0,1-5.739-5.151c-.008-.148-.008-.292,0-.439,0-4.725,4.116-7.29,11.4-7.252,0-1.661,0-5.413-4.475-5.413a8.538,8.538,0,0,0-4.8,1.407l-.723-2.058a11.171,11.171,0,0,1,6-1.661c5.557,0,7,3.934,7,7.831v7.615ZM302.1,68.1c-3.719,0-8.372.541-8.372,4.691,0,2.527,1.589,3.643,3.393,3.643A4.805,4.805,0,0,0,302.1,71.81V68.091Z" transform="translate(-168.97 -49.006)" fill="#f1a1b4"/>
      <path id="_パス_1387-2" d="M355.738,61.224a8.456,8.456,0,0,0-1.082-.072c-3.25,0-4.91,3.212-4.91,6.533V78.368h-2.992V64.584c0-2.092-.038-4.006-.144-5.882h2.633l.144,3.791h.11a5.886,5.886,0,0,1,5.337-4.222,7.076,7.076,0,0,1,.9.11v2.852h0Z" transform="translate(-201.285 -49.065)" fill="#f1a1b4"/>
    </g>
    <g id="_グループ_125" transform="translate(161.18 0.887)">
      <path id="_パス_1407" d="M408.441,12.431a.38.38,0,0,0-.051-.1C408.34,12.482,408.441,12.431,408.441,12.431Z" transform="translate(-396.981 -10.686)" fill="#f2a5ba"/>
      <path id="_パス_1408" d="M407.525,16.14l-.025.232.025-.207Z" transform="translate(-396.475 -12.886)" fill="#f2a5ba"/>
      <path id="_パス_1409" d="M406.577,17.6h.025s.131,0,.152-.051h0l-.1-.207h0l.051-.232a.562.562,0,0,0-.232.051h0l.1.207a7.016,7.016,0,0,1-.232.769c.1-.076.152-.334.207-.537h.025Zm.1-.232-.051.177Z" transform="translate(-395.805 -13.446)" fill="#f2a5ba"/>
      <path id="_パス_1410" d="M405.311,20.76h0a.361.361,0,0,1-.051.177c.051-.025,0,.177.076-.177Z" transform="translate(-395.181 -15.554)" fill="#f2a5ba"/>
      <path id="_パス_1412" d="M404.7,22.167V21.96s-.076.207-.076.131c-.051.207,0,.177.076.076Z" transform="translate(-394.801 -16.247)" fill="#f2a5ba"/>
      <path id="_パス_1414" d="M404.951,22.15l-.051.232s.051,0,0-.1V22.15Z" transform="translate(-394.973 -16.356)" fill="#f2a5ba"/>
      <path id="_パス_1415" d="M405.02,22.671l.025-.076.055-.385-.076.461h0Z" transform="translate(-395.043 -16.391)" fill="#f2a5ba"/>
      <path id="_パス_1417" d="M401.721,26.021s-.131-.076-.025-.1a2.537,2.537,0,0,0-.435.076h.461Z" transform="translate(-392.872 -18.533)" fill="#f2a5ba"/>
      <path id="_パス_1418" d="M400.77,26.206s.131-.025.207-.051A.279.279,0,0,0,400.77,26.206Z" transform="translate(-392.589 -18.667)" fill="#f2a5ba"/>
      <path id="_パス_1424" d="M401.309,26.365s-.232.025-.359.025h.435s.076-.051-.076-.051h0v.025Z" transform="translate(-392.693 -18.776)" fill="#f2a5ba"/>
      <path id="_パス_1428" d="M399.86,26.33a.621.621,0,0,1,.177.025C399.987,26.356,399.86,26.3,399.86,26.33Z" transform="translate(-392.063 -18.766)" fill="#f2a5ba"/>
      <path id="_パス_1430" d="M402.742,26.4a.244.244,0,0,0-.152.051h.152Z" transform="translate(-393.64 -18.81)" fill="#f2a5ba"/>
      <path id="_パス_1431" d="M396.516,26.627s.566.076.359.131c-.334.025-.283,0-.435-.051.131.076-.435.1-.359.207l.283-.051s-.1.051,0,.051c0-.051.309-.1.566-.051.258-.051.076-.232-.131-.334,0,0,0,.051-.258.076h0l-.021.021Z" transform="translate(-389.877 -18.885)" fill="#f2a5ba"/>
      <path id="_パス_1432" d="M397.8,26.416h.592a2.582,2.582,0,0,1-.359-.076c-.178.025-.207.051-.232.076Z" transform="translate(-390.874 -18.776)" fill="#f2a5ba"/>
      <path id="_パス_1434" d="M402.39,26.82h-.41l.207.076h0c.232,0,.177-.051.207-.076Z" transform="translate(-393.287 -19.053)" fill="#f2a5ba"/>
      <path id="_パス_1435" d="M397.362,26.356l.051-.076-.232.1.177-.025h0Z" transform="translate(-390.516 -18.741)" fill="#f2a5ba"/>
      <path id="_パス_1436" d="M396.167,26.391l.025-.051-.152.025.131.025h0Z" transform="translate(-389.857 -18.776)" fill="#f2a5ba"/>
      <path id="_パス_1437" d="M405.011,45.23l-.051.1.1-.131h-.051Z" transform="translate(-395.008 -29.666)" fill="#f2a5ba"/>
      <path id="_パス_1439" d="M392.46,27.1l.051-.025S392.46,27.07,392.46,27.1Z" transform="translate(-387.79 -19.197)" fill="#f2a5ba"/>
      <path id="_パス_1441" d="M403.242,19.807s-.258.258-.152.177l.283-.207H403.3a2.788,2.788,0,0,1,.511-.435c.283-.152.232-.076.359-.152,0,0,.051,0,.152-.1l.617-.435-.461.207c.131-.152.511-.359,0-.1.1-.051.232-.1.359-.177a2.566,2.566,0,0,1-.359-.025v-.051a.742.742,0,0,0-.177-.1c-.076,0-.1,0-.334.1a.172.172,0,0,0-.152-.1,1.082,1.082,0,0,0-.511.131h-.871a4.591,4.591,0,0,1-.592.051h0a.413.413,0,0,0-.152-.131.631.631,0,0,0-.385.131c-.131-.076-.617-.025-.79-.152.076.025-.025.051-.177.051-.258-.076-.566-.177-.642-.207a.127.127,0,0,1-.076-.025c-.1-.025-.177,0-.486.207h-.359a4.271,4.271,0,0,1-.566-.051h-.076c-.258-.076-.617-.152-.718-.177v-.11h0a1.606,1.606,0,0,0-.025-.283,5.926,5.926,0,0,0-.1-.668.508.508,0,0,0-.156-.1H397l-.051-.1.051-.207a3.024,3.024,0,0,0,.131-.951.457.457,0,0,0-.152-.1c-.1,0-.1-.025-.435.177l-.076-.177v-.055a5.451,5.451,0,0,0-.025-.744.457.457,0,0,0-.152-.1h-.1l.076-.232a2.811,2.811,0,0,0,.258-.972.458.458,0,0,0-.152-.1.547.547,0,0,0-.283.076v-.051c-.034-.025-.072-.051-.1-.076l-.051-.1a6.165,6.165,0,0,1-.308-.592.213.213,0,0,0-.152-.1h-.152a.239.239,0,0,0-.025-.152.243.243,0,0,0-.131-.1.377.377,0,0,0-.232.051h-.03l.1.207-.1.051-.025-.131c0,.076-.207.537-.309.845a3.011,3.011,0,0,0-.308,1.027.458.458,0,0,0,.152.1c.076,0,.1.025.461-.177a3.85,3.85,0,0,1-.309.334c-.283.283-.486.511-.668.718l.051-.076v-.131a1.386,1.386,0,0,0-.076.258c-.41.435-.511.592-.537.693a.941.941,0,0,1-.076.207c.025-.051.076-.131.1-.131h0v.025h.025s.076.1.152.1a3.443,3.443,0,0,0,1.027-.486c-.177.177-.359.334-.511.511-.511.511-.845.82-1.052,1.052h0s-.152.177-.207.232V17.6s-.076.207-.131.207h.051c-.1.131-.076.177,0,.258,0,0,.025.051.051.051h0v.076h0v-.051h.1l-.051.076a.083.083,0,0,0,.076-.051h0s.385-.177,1.614-.871c.537-.308,1.28-.744,1.462-.82a.166.166,0,0,0,.1-.025.06.06,0,0,0,.051-.025s.051,0,.051.025a.949.949,0,0,0,.076.258l.051-.076a.765.765,0,0,1,.051.308c.177.152-.152-.486,0-.334a1.053,1.053,0,0,0,.076.41c-.177,0-.537.152-4.129,2.181-.871.511-1.872,1.078-2.59,1.462.152-.177.334-.359.486-.537.871-.938,1.272-1.471,1.2-1.589a.456.456,0,0,0-.1-.076h-.076s.177-.051-.025-.076h.258a.973.973,0,0,1-.245-.03h-.511a2.1,2.1,0,0,0,.461,0c-.076.051-.283.076-.207.152-.076.025-.177.1-.334.177h-.025c-.207.131-.511.283-.951.537-.309.177-.693.385-.951.537l.076-.283c.178-.744.207-.845.178-.921h.152c.025-.051-.051-.051-.177-.051a.356.356,0,0,0-.1-.076,1.41,1.41,0,0,1,.461-.025c-.152-.076-.076,0-.309-.076.207.131-.82,0-.486.131a.94.94,0,0,0-.207-.076.2.2,0,0,0,0-.232.213.213,0,0,0-.152-.1,3,3,0,0,0-.693.308h-.051l-.131.076-.1.051a.952.952,0,0,0-.435.051c-.232,0,.051-.025-.1-.076l-.232.051-.207-.051-.152-.1h0a2.018,2.018,0,0,1-.309-.177c-.025,0-.051-.051-.1-.051a.571.571,0,0,0-.334.1l-.1.051a.953.953,0,0,1-.152-.1.193.193,0,0,0-.1-.051.377.377,0,0,0-.232.051h-.051l.051.152h-.1l.131.076h-.051s0,.076.051.1v.1h.131c.1.051.232.152.461.308.207.131.435.308.511.359.076.076.152.076.283.025.051.025.1.076.152.1a2.883,2.883,0,0,0,.177.461.242.242,0,0,0,.131.1.628.628,0,0,0,.076.177.213.213,0,0,0,.152.1h.152c.076.076.178.177.334.359s.359.385.385.41a.134.134,0,0,0,.131.076.427.427,0,0,0,.308-.1h0s.258.076.537.152h.051c-.1.177-.076.232,0,.308a.167.167,0,0,0,.135.093.683.683,0,0,0,.258-.051,10.192,10.192,0,0,0,.9.642q0,.131.051.152a.213.213,0,0,0,.152.1.5.5,0,0,0,.207-.025l.309.385c.1.152.232.283.283.359a1.6,1.6,0,0,0-.076.177c0,.025-.025.051-.025.1-.025.1-.051.232-.076.359h0c-.79.921-1.149,1.445-1.078,1.564a.457.457,0,0,0,.152.1c.076,0,.1,0,.385-.131,0,.051.051.025.1,0v.177c-.051,0-.076.076-.1.131-.511.385-.461.461-.385.592,0,.051.051.076.1.1a.2.2,0,0,0,0,.207H390c-.076.232-.177.511-.258.718l-.152.41h0c-.152.41-.152.435-.1.511h0c0,.131-.051.232-.051.41l-.076.051c-.013.085-.03.173-.051.258a.4.4,0,0,1-.1.258,2.453,2.453,0,0,0-.131.283,13.783,13.783,0,0,0,1.23-.769c.258-.177.537-.359.79-.511a5.681,5.681,0,0,1,.537-.308c-.232-.051.385-.152.334-.283.076,0,.178-.051.076.051.334-.283.592-.308.769-.566.076,0-.051.1,0,.1,0-.025.1-.1.152-.1s-.025.051-.076.131c.359-.258.334-.385.283-.486a.645.645,0,0,0,.41-.308c.076,0,.232-.051,0,.1.131-.076.82-.486.79-.566.051,0,.177-.131.207-.152l.308-.207a.955.955,0,0,0,.152-.1h0a.413.413,0,0,0,.152.131.5.5,0,0,0,.207-.025c.232.207.283.232.359.258l.051.051c.177.177.385.41.41.435a.134.134,0,0,0,.131.076.36.36,0,0,0,.207-.051h0a1.332,1.332,0,0,1-.025.258,3.267,3.267,0,0,0-.076.951.457.457,0,0,0,.152.1l.921-.435.076-.051h0s-.131.051.051.177c0,.025.1.076.177.1-.207.258-.177.283-.1.385a.213.213,0,0,0,.152.1c.1,0,.1.025.537-.207a.942.942,0,0,1,.232.177c-.051-.076-.076-.152.076-.076a1.389,1.389,0,0,1,.308.258,2.427,2.427,0,0,0,.051.744.213.213,0,0,0,.152.1c.1,0,.1.025.668-.283.232.131.537.308.693.385a.661.661,0,0,0,0,.258.213.213,0,0,0,.152.1h.051a.183.183,0,0,0,.152-.051,1.314,1.314,0,0,0,.334.232c-.051-.1-.076-.232-.131-.359h.025s.152-.207.076-.308c0-.025-.051-.051-.076-.076h0s.131-.207.076-.308c0-.025-.051-.051-.076-.076a2.224,2.224,0,0,0,.1-.79.213.213,0,0,0-.152-.1c-.076,0-.1,0-.385.131-.025-.076-.025-.1-.051-.1l-.042-.063a3.344,3.344,0,0,0-.177-.486.729.729,0,0,0-.152-.207c0-.1.025-.025.051-.025l-.051-.177c.334-.566.308-.592.258-.693a.213.213,0,0,0-.152-.1.547.547,0,0,0-.283.076c.051-.152.076-.308.131-.435v-.051a.662.662,0,0,0,.076-.177,1.459,1.459,0,0,0,.1-.642.213.213,0,0,0-.152-.1,2.152,2.152,0,0,0-.566.232,2.3,2.3,0,0,0-.177-.435s.025,0,.051.051a4.111,4.111,0,0,1-.283-1c0-.076-.051-.152-.051-.232v-.1h-.051v-.051a.874.874,0,0,0,.051-.207h0s.131-.131.1-.207l.537-.385h0c.921-.642,1.872-1.23,2.743-1.821h-.152l.308-.232c.1-.025.152,0-.051.131.076,0,.152-.076.232-.152.051-.076.131-.177.131-.177.309-.177.309-.152.207-.051h0l-.106.021Zm.9-.642-.131.076C404.159,19.109,404.138,19.139,404.138,19.164Zm-13.489,2.869h0s-.076-.131-.152-.131h-.076v-.131h.076a.107.107,0,0,0,.051.1.172.172,0,0,0,.152.1c.177.051.334,0,3.309-1.745.334-.177.693-.41,1.027-.592-.385.283-.769.592-1.1.871-1.386,1.1-2.054,1.614-2.358,1.9h0a1.586,1.586,0,0,0-.152-.1s-.051-.051-.076-.051L391.3,22.2s-.207-.308-.258-.258a.4.4,0,0,1-.131.435c-.1-.131-.177-.258-.232-.308h0l-.021-.042Zm5.743-4.412a.458.458,0,0,0,.152.1h.1a.759.759,0,0,1,.025.308c.1.258.051-.1.152.152v.076l.051.051h0a.293.293,0,0,0-.131-.051c-.152-.025-.207-.051-3.026,1.589-.385.232-.79.461-1.2.693.385-.308.82-.617,1.2-.9,1.564-1.154,2.307-1.745,2.667-2.05h0v.025Zm2.595,4.463v-.076l.435-.283c-.232.177.051.131-.359.359l.131-.207-.232.177h0l.021.025Zm-.744.511h.076c-.592.308-1.614.871-3.486,1.948.718-.435,1.462-.9,2.155-1.31.718-.435,1.361-.82,1.923-1.183l-.076.051-.076.051-.1.076s-.258.177-.461.308v.051h.051Zm.461,2.848a.458.458,0,0,0,.152.1h.1c-.232.131-.486.283-.82.461l-.359.207a3.3,3.3,0,0,0,.258-.283c.258-.258.435-.461.617-.642,0,.131.025.131.051.152h0Zm-1.665.461s.051.076,0,.076Zm.1,0a.456.456,0,0,0-.1-.051v-.076c.207-.1.537-.308,1.1-.642l.076-.051c-.177.177-.359.385-.511.537-.177.177-.334.359-.461.486-.076-.1-.1-.152-.1-.207h0Zm-1.128-1.411a.127.127,0,0,0-.025-.076h0c.617-.385,1.2-.718,1.716-1h0a.189.189,0,0,0,.177,0h0c-.177.1-.461.283-.921.537-.309.177-.668.385-.9.511h0l-.051.025Zm2.434-1.027a.127.127,0,0,0-.025-.076c0-.025-.051-.051-.076-.076h0l.076-.051.051.1v.076h-.025v.025Zm-.08.258c-.131.41-.131.435-.076.511a.172.172,0,0,0,.152.1h.051v.076c-.152.1-.359.207-.592.359-.152.1-.334.207-.511.308.089-.123.182-.245.283-.359.41-.537.617-.82.718-.972h0l-.025-.025Zm.537,2.409a1.9,1.9,0,0,0-.642.283l.1-.051c.207-.131.461-.258.668-.385l-.152.152Zm.461,1.027a.239.239,0,0,1-.076-.051l.131-.076-.076.131h.021Zm.131-.672s-.334.177-.642.359a4.479,4.479,0,0,1,.334-.359l.232-.258s.051.152.076.258ZM396.8,22.131c-1.386.79-2.95,1.695-4.2,2.409.972-.617,2.1-1.331,3.127-1.973a59.071,59.071,0,0,0,5.257-3.436h0a1.06,1.06,0,0,0,.461-.177h0s.076.258.1.385v.051c-1.027.566-2.565,1.437-4.8,2.743h.051Zm.152-3.588h0v.177a.107.107,0,0,0-.051-.1C396.9,18.594,396.954,18.568,396.954,18.543Zm-.076.1c.051.131.1.283.152.41h.642c-.592.334-1.411.79-2.616,1.488-.592.334-1.23.718-1.821,1.052.309-.258.668-.511.972-.769a32.991,32.991,0,0,0,2.667-2.185h0Zm3.1.313h-.051a1.028,1.028,0,0,1,.359-.051c-.566.283-1.64.9-3.744,2.13-.921.537-2,1.154-2.924,1.695.435-.283.9-.592,1.331-.9,2.489-1.665,3.588-2.434,4.053-2.819a6.218,6.218,0,0,0,.972-.051Zm-4.665,1.948c.41-.232.845-.486,1.28-.744-.642.435-1.31.9-1.923,1.31-1.614,1.078-2.514,1.695-3.026,2.075V23.5h-.025l.152-.1s0-.025-.051-.051v-.051h.051s.1-.1.1-.177c.207-.258.283-.359.258-.435.461-.232,1.361-.744,3.157-1.8h0l.021.025Zm-3.9,2.764h0l-.051.051v-.051Zm.152.617a51.872,51.872,0,0,0,4.818-2.667c-.308.207-.617.385-.921.592-1.923,1.2-3.2,2.024-4.078,2.565.232-.359.207-.41.152-.486h.03Zm-.537-.131a.139.139,0,0,0,.051.1v.051l-.1.076v-.1l.051-.1h0Zm-.668,2.667h0l.076-.207s.076.025.076.051v-.232s.025-.152.025-.177c.051,0,.1-.051.152-.076a.344.344,0,0,1,.025-.131c.845-.41,2.59-1.386,6.335-3.562,1.2-.693,2.565-1.462,3.719-2.13-1.23.769-2.692,1.665-4.027,2.459-3.816,2.333-5.591,3.436-6.411,4h.03Zm9.462-5.329a1.545,1.545,0,0,1-.131.152l-.051-.051.178-.1h0ZM395.7,25.03s-.076-.076-.131-.076h-.051l.131-.076v.051a.172.172,0,0,0,.152.1c.131.025.152.025,1.386-.693l.334-.177-.207.283a10.965,10.965,0,0,0-.845,1.183c-.131-.076-.283-.131-.435-.232-.177-.152.076,0,0-.1l-.152-.051-.207-.207h0l.025-.008Zm6.643-6.153.1.051h.076l.051-.051h.025l-.566.283-.046-.169a1.338,1.338,0,0,1,.334-.131h0l.021.021Zm-4.818-.592-.051-.051Zm-2.155-5.375h0l-.076.051.051-.1v.051Zm-.308.693c.1-.283.177-.486.232-.642l.051.076s-.051.283-.131.283a.654.654,0,0,1,.131.359l-.232.131-.177.1.131-.308h0Zm-.076,1.433c.258-.258.435-.486.592-.642,0,.025.025.051.051.076,0,.1-.076-.076-.076,0a.764.764,0,0,1,.207.385c-.1,0-.258.1-1.078.566h-.051l.359-.359h0v-.025Zm-.642,1.923-.254.152.359-.359c.693-.693,1.1-1.078,1.31-1.331h.178a3,3,0,0,1,.131.461v.177h0c-.131-.025-.152-.051-1.716.871h0l-.008.025Zm-1.72,2.607c.693-.385,1.437-.82,2.1-1.2-.385.308-.82.617-1.2.9A17.85,17.85,0,0,0,390.6,21.59a.166.166,0,0,1-.076-.076l.076.076v.051a.3.3,0,0,1-.131-.025v-.076a2.568,2.568,0,0,0-.1-.693c.511-.283,1.255-.693,2.257-1.28Zm-2.616,0,.359-.207c-.152.152-.283.308-.41.461-.41.435-.693.744-.871.951h-.131v-.046c-.207-.131-.334-.258-.486-.359.131,0,.207,0,1.564-.79h0l-.021-.008Zm-2.282.207c-.178-.232.283.177.152-.025a.383.383,0,0,1-.232-.076l-.177-.076h0l.435-.258c.177-.106.385-.232.592-.334l-.076.334c-.152.693-.177.79-.152.871-.051-.051-.131-.076-.177-.131,0-.051-.207-.207-.076-.177a.5.5,0,0,1-.258-.131h-.03Zm-.131.11c-.1-.03-.19-.063-.283-.1l-.1-.051.207-.1s.359.207.486.283c-.051.051-.152.051-.308,0h0v-.025Zm.769-1.331c-.152.076-.385.207-.693.385-.232.131-.511.308-.744.41h0l-.076-.224s.309-.152.718-.385l.207-.131h.051a1.825,1.825,0,0,1,.283-.152h.152l.076.076a.742.742,0,0,0-.334,0,2.567,2.567,0,0,1,.359.025h0Zm-.435,1.973h0l-.051-.051h0l-.051-.051.051.051.1.051Zm4.818,5.95a.787.787,0,0,1,.232-.131A.491.491,0,0,1,392.745,26.475Zm.486,0s-.025-.025,0-.1l-.051.051c-.152.051-.131-.025-.051-.131l.177-.051s.1-.207.051-.258l-.1.1v-.051l-.1.1H393l-.537.283a6.2,6.2,0,0,1-1.027,1.052c.1-.152-.051-.131-.1-.207.207,0,.41-.308.693-.486-.152.1-.152.025-.131,0l-.461.41a1.32,1.32,0,0,0-.309.1c.1,0,0,.1-.1.207a1.045,1.045,0,0,1-.207.152l-.051.051h-.025l-.051.076V27.7s0-.025.051-.051a.4.4,0,0,1,.152-.1.113.113,0,0,0-.1.051h-.051v.051h-.025a.38.38,0,0,1-.051.1.239.239,0,0,1-.207.177c.051-.025.076-.025.076-.076a.574.574,0,0,1-.207.152c-.051.025-.076,0-.051-.025h.025a3.467,3.467,0,0,0-.435.258v-.177l.177-.1s.258-.152.308-.177h.025s.152-.207.076-.308l-.051-.051c.435-.232,1.23-.668,2.743-1.513h.025v.051h0a.212.212,0,0,1,.1.025h.051a.212.212,0,0,0,.1-.025,1.038,1.038,0,0,1-.232.258,2.284,2.284,0,0,0,.232-.051l-.334.283h0l.131.021Z" transform="translate(-383.24 -10.729)" fill="#f2a5ba"/>
      <path id="_パス_1442" d="M405.08,44.643h.051Q405.131,44.617,405.08,44.643Z" transform="translate(-395.077 -29.336)" fill="#f2a5ba"/>
      <path id="_パス_1444" d="M393.652,26.34h-.232a2.286,2.286,0,0,1,.232.051S393.6,26.365,393.652,26.34Z" transform="translate(-388.345 -18.776)" fill="#f2a5ba"/>
      <path id="_パス_1446" d="M388.964,26.5c.152,0,0-.076.1-.051.051-.025-.177,0-.308,0-.131.025-.131.051.177.025h0l.025.025Z" transform="translate(-385.604 -18.83)" fill="#f2a5ba"/>
      <path id="_パス_1448" d="M410.171,12.551l-.131-.1a.7.7,0,0,1,.051.177l.076-.076h0Z" transform="translate(-397.941 -10.755)" fill="#f2a5ba"/>
      <path id="_パス_1450" d="M398.641,19.42l-.051.025h.025Z" transform="translate(-391.33 -14.78)" fill="#f2a5ba"/>
      <path id="_パス_1451" d="M398.486,19.316h.076s-.1-.051-.076-.076C398.41,19.316,398.537,19.265,398.486,19.316Z" transform="translate(-391.255 -14.676)" fill="#f2a5ba"/>
      <path id="_パス_1454" d="M398.77,18.681h.051a.109.109,0,0,1,.025-.051C398.821,18.63,398.8,18.63,398.77,18.681Z" transform="translate(-391.434 -14.324)" fill="#f2a5ba"/>
      <path id="_パス_1457" d="M398.641,18.88s0,.025-.051.051C398.615,18.931,398.691,18.931,398.641,18.88Z" transform="translate(-391.33 -14.468)" fill="#f2a5ba"/>
      <path id="_パス_1459" d="M398.58,18.5h.025s0-.025.051-.051a.24.24,0,0,0-.076.051Z" transform="translate(-391.324 -14.22)" fill="#f2a5ba"/>
      <path id="_長方形_143" d="M398.35,18.983l.1-.013h0Z" transform="translate(-391.191 -14.52)" fill="#f2a5ba"/>
      <path id="_パス_1461" d="M398.58,18.3h.025l.051-.025-.076.025Z" transform="translate(-391.324 -14.116)" fill="#f2a5ba"/>
      <path id="_パス_1462" d="M398.58,18.141s.051-.051.076-.051h-.076Z" transform="translate(-391.324 -14.012)" fill="#f2a5ba"/>
      <path id="_パス_1464" d="M398.521,18.39l-.051.051h0a.049.049,0,0,0,.051-.051Z" transform="translate(-391.261 -14.185)" fill="#f2a5ba"/>
      <path id="_パス_1465" d="M398.425,18.475h0l-.025-.025Z" transform="translate(-391.22 -14.22)" fill="#f2a5ba"/>
      <path id="_パス_1467" d="M398.1,18.861a.2.2,0,0,1,.131-.051A.182.182,0,0,0,398.1,18.861Z" transform="translate(-391.047 -14.428)" fill="#f2a5ba"/>
      <path id="_パス_1469" d="M398.28,18.355s.051,0,.051-.025h-.051v.051h0Z" transform="translate(-391.151 -14.151)" fill="#f2a5ba"/>
      <path id="_パス_1476" d="M397.442,18.157a.108.108,0,0,1,.025-.051c-.051.051-.1,0-.207.076h.051s-.051,0-.051.025c.051-.025.1-.025.076,0a1.067,1.067,0,0,0,.308-.177h-.076s-.051.076-.1.076h0l-.021.051Z" transform="translate(-390.562 -13.977)" fill="#f2a5ba"/>
      <path id="_パス_1477" d="M398.16,18.09v.051h0l.051-.051Z" transform="translate(-391.082 -14.012)" fill="#f2a5ba"/>
      <path id="_パス_1478" d="M397.968,18.21h-.076c-.051.025-.1,0-.152.076h.08c-.025-.025.025,0,.051-.051h.051l.051-.025Z" transform="translate(-390.839 -14.081)" fill="#f2a5ba"/>
      <path id="_パス_1479" d="M397.8,19.025l.025-.025Z" transform="translate(-390.874 -14.537)" fill="#f2a5ba"/>
      <path id="_パス_1480" d="M397.946,18.75a.99.99,0,0,0-.131.1h.025a.109.109,0,0,0-.051.025.127.127,0,0,0,.076-.025h0l.076-.076h0V18.75Z" transform="translate(-390.868 -14.393)" fill="#f2a5ba"/>
      <path id="_パス_1482" d="M398.151,17.985l.051-.025-.1.025Z" transform="translate(-391.047 -13.937)" fill="#f2a5ba"/>
      <path id="_パス_1483" d="M398.176,17.9h-.051l-.025.025Z" transform="translate(-391.047 -13.902)" fill="#f2a5ba"/>
      <path id="_パス_1485" d="M396.82,15.716l.051-.046h-.051Z" transform="translate(-390.308 -12.615)" fill="#f2a5ba"/>
      <path id="_パス_1488" d="M397.5,16.981V16.93C397.47,16.955,397.419,17.006,397.5,16.981Z" transform="translate(-390.674 -13.342)" fill="#f2a5ba"/>
      <path id="_パス_1490" d="M397.55,16.946s.025-.051,0-.025h0s.025.013.025.025Z" transform="translate(-390.729 -13.333)" fill="#f2a5ba"/>
      <path id="_パス_1497" d="M394.934,15.881h.076l.152-.1-.232.1Z" transform="translate(-389.217 -12.678)" fill="#f2a5ba"/>
      <path id="_パス_1498" d="M390.346,9.165l-.051.051q.076-.038.076,0h0s.025.1.051.177l.055-.051v.051c.1-.051,0-.025.076-.1-.1.1.076.076-.051.207,0,0,.051-.051.076-.051h0a.24.24,0,0,1-.051.076h0s.051.025.051.051h0a.292.292,0,0,0,.178.076h0s0,.025.051.051h.051c-.051,0-.051.076-.1.076.076,0,.051,0,.177-.051l-.051.051s.076-.025.1,0c-.051,0-.051.051-.131.076-.076.1.152,0,0,.1.152-.076.051-.076.076-.1.025-.051.1-.051.1-.025,0,0-.152.131-.1.177h0s.051,0,0,.051c.076-.051,0,0,.1-.051h-.051s.177-.076.131,0h-.072c0,.025.025,0,0,.025-.1.076-.051,0-.152,0-.025.025.1,0,0,.051.152-.076,0,.051.131,0l-.051.051h-.025s-.025.1,0,.1c-.025-.025.076-.051.1-.1.1,0-.131.131-.076.152a.049.049,0,0,1,.051-.051h0a.088.088,0,0,1-.055.076c.025.025.051-.051.1-.051-.076.051.051,0,.076,0l-.051.051s.131-.076.1,0l-.1.051h.025l-.076.051s.051,0,.051.025c.051-.025.1-.076.131-.051-.025.025-.051.025-.025.051-.051,0-.1.051-.051,0h-.051v.076h.131a.384.384,0,0,1-.131.051h.076s-.051.051-.076.051c0,.025.131,0,.1.025h.025c0,.025-.051.1.051.076l-.076.076s.1-.1.152-.076c.051,0-.076.051-.1.076.051,0,.152-.051.1,0h0l-.051.051a.273.273,0,0,0-.152.051c.177-.1.076.051.258-.025h.076s-.025.051-.051.051h.025l.051.051h.1s-.1.051-.1,0c-.177.131.051,0,0,.1h-.025l-.1.1c.025,0,.131-.131.207-.131,0,0,0,.025.025,0-.076.025-.051.051-.025.051l-.076.051a.345.345,0,0,0,.131-.025l-.11.106c0,.025.1-.076.131-.051,0,.051.025.051.1.051,0,.025-.051,0-.076.051h.051a.293.293,0,0,1,.131-.051c.1-.051-.1.131,0,.076a.084.084,0,0,0-.076.051h.178l-.051.051a.716.716,0,0,1,.232-.076l.051-.051h.076a.24.24,0,0,0-.076.051h0a.293.293,0,0,1-.131.051l.051-.051s-.131.051-.177.076h.025l-.1.076h.051v.051a.765.765,0,0,1,.309-.051c-.076,0-.131.051-.207.1.076-.051-.051,0-.051-.051,0,0-.051.025-.051.051h.1a.166.166,0,0,0-.076.076c.131-.076.1,0,.152,0-.051,0-.1.051-.1,0-.076.076.177-.051.1,0h0c.051,0,.025.051,0,.051h0a.131.131,0,0,0,.178.051h0l-.152.076.435-.131a2.073,2.073,0,0,1-.41.177.027.027,0,0,0,.025.025,1.279,1.279,0,0,1,.152-.076c-.1.076-.051.051-.131.131,0,0,.178-.1.178-.076a1.6,1.6,0,0,1-.178.076l.178-.051s-.131.076-.178.1c.025,0,0,.025.025.025h.025s.232-.1.258-.051c-.025,0-.207.076-.207.131a3.237,3.237,0,0,1,.486-.152h0s-.41.152-.511.177c-.025.025-.051.025-.025.051-.025.025-.076,0-.076,0v.051a.322.322,0,0,0,.178-.051h-.131s.283-.1.283-.051a1.878,1.878,0,0,1-.207.1h0s.131,0,.076.051c0,0-.1.076-.051.051a2.969,2.969,0,0,1,.486-.258.551.551,0,0,1-.131.131c-.076.051-.207.076-.258.131h.076s-.076.025-.051.051c.1-.051,0,.051.076-.025.025,0,0,.025,0,.051a.907.907,0,0,1,.258-.076.223.223,0,0,0-.059.051v.131a.1.1,0,0,1-.076.051h.051s-.025,0-.1.051c.051-.025.1,0,.131,0,.076-.051,0-.051-.051-.051A.574.574,0,0,1,393,12.5c.051,0-.076.051-.051.051,0,.076.232-.051.177.025a.726.726,0,0,1-.207.1c-.051,0,0-.051,0-.076h0s-.051.025-.051,0c-.051.051.051.1,0,.177a.1.1,0,0,0,.076-.025h0s.1-.025.1-.051h.1l-.076.051s.051-.051,0-.025c.051,0-.076.1.025.051l.051-.051s.152-.025.131,0c.076-.051,0,0,.076-.076-.1.076-.025-.051-.131.025.1-.076.025-.051.1-.131-.025,0-.051.025-.051,0h-.025V12.6H393.1a.108.108,0,0,0,.051-.025H393.1s.076-.076.131-.076h0s.025-.076,0-.076h-.076s-.152-.051-.051-.152c0,0-.051,0-.051-.025h.051s0-.1-.025-.076c.131-.1,0-.1,0-.131h-.207v-.076h0c.1-.1-.152-.025-.076-.131h0v-.051a.084.084,0,0,0-.076.051h-.051s-.051,0,.051-.076a.419.419,0,0,0-.178,0h0V11.7l.076-.051h-.131a.7.7,0,0,0,.131-.051h-.131s-.1,0-.051-.051c.076-.076-.051-.131,0-.232-.152.1.051-.076-.076,0,.025,0,.051-.051.076-.051-.051,0,.025-.076-.076-.051a.1.1,0,0,0,.076-.025h.051c-.025-.025-.152.025-.258.076.051-.051.025-.051-.051,0,.025,0,.051-.051.076-.051,0,0,0-.1-.076-.051h0a.073.073,0,0,0-.025-.051H392.1s-.051,0,0-.1h-.059c-.131.1.051-.051,0-.051h-.025a1.827,1.827,0,0,0,.177-.131h.025a.176.176,0,0,1-.131,0c.051-.025.131-.051.1-.076.025-.025-.177.025-.1-.051-.025,0-.051.051-.1.051,0,0,.1-.131,0-.076h0a.141.141,0,0,0-.152,0c.207-.131-.178-.025.025-.152l-.051-.051h0a.176.176,0,0,0-.131,0,.06.06,0,0,0,.051-.025q0-.076-.131-.051l.051-.051s.051-.131-.051-.131h.025s.1-.232-.152-.1H391.4a.391.391,0,0,0-.131.1s.051-.076.076-.076h0a.154.154,0,0,1,.076-.131c-.051-.076-.051-.207-.1-.283l-.076.076h0l.076-.076c.051-.051-.076,0-.076,0,0-.051.131-.051.1-.076h-.025s-.076.051-.1,0c0-.025.051-.051.051-.051H391.2l-.076.076c.1-.1-.051-.152,0-.177a.147.147,0,0,1-.1-.025s-.076.076-.1.051c.178-.131.025-.076.131-.207-.051.076-.076-.051-.152.076,0-.025.051-.051.076-.1-.1,0-.025-.131-.1-.152l-.076.076.076-.1s-.131.1-.076,0c0,0-.025.051-.051.051,0-.076-.076-.131-.131-.152s-.1-.076-.076-.207c0,.051-.025.051-.051.025l-.076.076V8.818s0-.025-.1.025h0a3.573,3.573,0,0,1-.258.308c.1-.076-.076.177.076.076h0l.232-.076Zm1.314,1.872h-.025C391.711,11.012,391.686,11.037,391.66,11.037Z" transform="translate(-386.399 -8.654)" fill="#f2a5ba"/>
      <path id="_パス_1502" d="M397.655,18.01s-.025.025,0,.025h0S397.705,17.985,397.655,18.01Z" transform="translate(-390.783 -13.962)" fill="#f2a5ba"/>
      <path id="_パス_1504" d="M397.847,17.515s.076-.025.051,0C397.974,17.489,397.8,17.515,397.847,17.515Z" transform="translate(-390.896 -13.673)" fill="#f2a5ba"/>
      <path id="_パス_1505" d="M397.25,18.225l.076-.025h-.076Z" transform="translate(-390.556 -14.076)" fill="#f2a5ba"/>
      <path id="_パス_1508" d="M396.855,17.48s-.025,0,0,.025h.025Z" transform="translate(-390.321 -13.66)" fill="#f2a5ba"/>
      <path id="_パス_1509" d="M396.605,17.805l.051-.025-.076.051h.025v-.025Z" transform="translate(-390.169 -13.833)" fill="#f2a5ba"/>
      <path id="_パス_1510" d="M396.444,17.72s-.076,0-.051.025C396.393,17.745,396.444,17.745,396.444,17.72Z" transform="translate(-390.058 -13.798)" fill="#f2a5ba"/>
      <path id="_パス_1511" d="M396.28,16.766h.025l.131-.076-.152.076h0Z" transform="translate(-389.996 -13.204)" fill="#f2a5ba"/>
      <path id="_パス_1512" d="M395.3,16.51s-.025,0-.1.051c0,.051.076-.025.051,0,.025,0,0-.025.051-.051Z" transform="translate(-389.372 -13.1)" fill="#f2a5ba"/>
      <path id="_パス_1513" d="M391.445,8.44l-.025.051h.025Z" transform="translate(-387.19 -8.44)" fill="#f2a5ba"/>
      <path id="_パス_1514" d="M391.205,8.576l.051-.076-.076.051h0Z" transform="translate(-387.051 -8.475)" fill="#f2a5ba"/>
      <path id="_パス_1515" d="M393.541,14.33l-.051.051h0V14.33Z" transform="translate(-388.385 -11.841)" fill="#f2a5ba"/>
      <path id="_パス_1516" d="M393.37,13.805h0l.076-.025Z" transform="translate(-388.316 -11.523)" fill="#f2a5ba"/>
      <path id="_パス_1520" d="M429.991,12.131h0V12.08s-.051.076-.1.076c.051.076.051-.025.076,0h0Z" transform="translate(-409.403 -10.542)" fill="#f2a5ba"/>
      <path id="_パス_1523" d="M429.365,11.8s-.025-.013-.025-.025a.1.1,0,0,0,.025.076Z" transform="translate(-409.085 -10.363)" fill="#f2a5ba"/>
      <path id="_パス_1526" d="M429.581,12.051s0-.1-.051-.051a.049.049,0,0,1,.051.051Z" transform="translate(-409.195 -10.488)" fill="#f2a5ba"/>
      <path id="_パス_1528" d="M429.151,11.951s-.025,0-.051-.051a.24.24,0,0,0,.051.076h0Z" transform="translate(-408.947 -10.438)" fill="#f2a5ba"/>
      <path id="_パス_1531" d="M428.86,11.951V11.9l.025.076Z" transform="translate(-408.808 -10.438)" fill="#f2a5ba"/>
      <path id="_パス_1532" d="M428.671,11.976s-.051-.051-.051-.076v.076Z" transform="translate(-408.67 -10.438)" fill="#f2a5ba"/>
      <path id="_パス_1534" d="M429.031,12.131s-.025-.051-.051-.051Z" transform="translate(-408.877 -10.542)" fill="#f2a5ba"/>
      <path id="_パス_1537" d="M429.461,12.381a.2.2,0,0,1-.051-.131A.182.182,0,0,0,429.461,12.381Z" transform="translate(-409.126 -10.64)" fill="#f2a5ba"/>
      <path id="_パス_1538" d="M429.22,12.26v.051h.025A.108.108,0,0,0,429.22,12.26Z" transform="translate(-409.016 -10.646)" fill="#f2a5ba"/>
      <path id="_パス_1539" d="M428.885,12.311s0-.051-.025-.051v.051Z" transform="translate(-408.808 -10.646)" fill="#f2a5ba"/>
      <path id="_パス_1546" d="M428.592,12.782h-.051c.051.051,0,.1.076.207v-.051s0,.051.025.051c-.025-.051-.025-.1,0-.076a.892.892,0,0,0-.2-.283v.076a.172.172,0,0,1,.1.1h0l.051-.025Z" transform="translate(-408.565 -10.859)" fill="#f2a5ba"/>
      <path id="_パス_1547" d="M428.515,12.456h.051a.166.166,0,0,0-.076-.076v.076Z" transform="translate(-408.594 -10.715)" fill="#f2a5ba"/>
      <path id="_パス_1548" d="M428.74,12.405a.192.192,0,0,0,.076.152v-.076c-.025.025,0-.025-.051-.051h0V12.38h0v.051h0l-.025-.025Z" transform="translate(-408.739 -10.715)" fill="#f2a5ba"/>
      <path id="_パス_1550" d="M429.391,12.611v.051a.127.127,0,0,0-.025-.076h0s-.076-.051-.076-.076a.437.437,0,0,0,.1.131v-.03Z" transform="translate(-409.056 -10.79)" fill="#f2a5ba"/>
      <path id="_パス_1552" d="M428.421,12.431l-.051-.051.051.076Z" transform="translate(-408.525 -10.715)" fill="#f2a5ba"/>
      <path id="_パス_1553" d="M428.345,12.5l-.025-.051V12.5Z" transform="translate(-408.496 -10.755)" fill="#f2a5ba"/>
      <path id="_パス_1555" d="M425.888,14.272s-.131-.076-.076-.025l.051.051h.025Z" transform="translate(-407.04 -11.782)" fill="#f2a5ba"/>
      <path id="_パス_1556" d="M425.271,16.2h0l-.051-.051V16.2Z" transform="translate(-406.706 -12.892)" fill="#f2a5ba"/>
      <path id="_パス_1557" d="M424.43,18.81l.051.051S424.481,18.835,424.43,18.81Z" transform="translate(-406.25 -14.428)" fill="#f2a5ba"/>
      <path id="_パス_1558" d="M427.331,13.29h-.051C427.305,13.29,427.356,13.341,427.331,13.29Z" transform="translate(-407.896 -11.24)" fill="#f2a5ba"/>
      <path id="_パス_1559" d="M423.58,16.93l.025.025Z" transform="translate(-405.759 -13.342)" fill="#f2a5ba"/>
      <path id="_パス_1565" d="M427.915,12.75l-.025.025h.025Z" transform="translate(-408.248 -10.929)" fill="#f2a5ba"/>
      <path id="_パス_1567" d="M426.532,15.712s-.025-.076,0-.051l-.152-.131.152.177h0Z" transform="translate(-407.376 -12.534)" fill="#f2a5ba"/>
      <path id="_パス_1568" d="M420.164,16.49a.24.24,0,0,1,.076.051h-.131s-.025.051.051.1h0a2.691,2.691,0,0,1,.359.152c-.1-.076.207.025.076-.076.025,0,.025.025.076.051q-.051-.051,0-.051h0a1.208,1.208,0,0,0,.177-.1h-.076l.051-.025c-.076-.076-.025.025-.131-.051.131.051.076-.1.207,0,0,0-.076-.025-.051-.051h.1s0-.051.025-.025h-.025a.2.2,0,0,0,.051-.207h-.025a.1.1,0,0,0,.051-.076h0s-.025-.051,0-.051c.025.025.076,0,.1.051-.025-.076-.025-.051-.131-.152h.051S421,16,421,15.979c.025.051.076.025.131.076.131,0-.051-.131.1-.051-.131-.1-.1,0-.131-.025-.051,0-.076-.076-.051-.076,0,0,.177.076.207.051h0s-.025-.051.051-.025c-.076-.051,0,0-.076-.076V15.9s-.131-.131-.051-.131l.051.051c.025,0,0-.025.025,0,.1.076,0,.051.051.131.051,0-.051-.076.051,0-.131-.1.051-.025-.051-.131l.051.051v-.051l.051.051s.076,0,.076-.051c-.025.051-.076-.025-.131-.051-.051-.1.177.076.207,0h.025c0-.051-.076-.025-.1-.076.076.025,0-.025-.025-.076l.051.051s-.131-.1-.051-.1l.076.076h.051v-.051c-.051,0-.1-.076-.1-.1.051,0,.051.051.076,0,.025.025.076.076,0,.051l.051.051.051-.051h0l-.051-.1s.051.025.051.051v-.051c.051.025.1.076.1.1v-.076a.049.049,0,0,1,.051.051h0c.051,0-.051-.1,0-.1h0s.1,0,.051-.1l.1.051s-.131-.051-.131-.131c0-.051.076.051.1.051-.025-.051-.1-.131,0-.1v.03h.051a.132.132,0,0,0,.1.131c-.152-.131.051-.076-.131-.207h.051s-.1-.076-.051-.1a.126.126,0,0,1,.076.025v-.055h.025a.457.457,0,0,1-.051-.1c.025,0,0,0,.025.025V14.88s.051.076.025.076c.177.1-.025-.051.1,0h0a1.023,1.023,0,0,0,.152.076.483.483,0,0,1-.207-.131s.025,0,0-.025c.051.051.051,0,.051,0l.076.051a.455.455,0,0,1-.076-.1.368.368,0,0,1,.131.076c.025,0-.1-.051-.1-.1.051,0,.025-.051,0-.1.051,0,.051.051.076.051l-.051-.051h.025s-.076-.051-.076-.076c-.076-.076.152.051.076-.051.025,0,.051.051.076.051a.262.262,0,0,0-.076-.152h.076s-.131-.076-.152-.152h-.051v-.1l.051.051h0a.2.2,0,0,1,.1.076h-.051a.775.775,0,0,0,.131.1h.131a.872.872,0,0,1-.152-.283.863.863,0,0,1,.152.152c-.076-.051,0,.051-.025.076,0,0,.051.025.051.051v-.1s0,.025.051.051c-.131-.1-.051-.1-.076-.131.025.025.076.076.051.076.1.051-.1-.152,0-.1h0c0-.051.025-.051.051,0h0a.109.109,0,0,0,.021-.156c-.008-.008-.013-.017-.021-.021l.131.131-.258-.359a1.749,1.749,0,0,1,.308.308s.051,0,.025-.025l-.131-.1c.1.076.051.025.152.076a.974.974,0,0,1-.131-.152l.131.131-.076-.152.131.131c-.025,0,.025,0,0-.051H422.8s-.131-.207-.1-.232a.376.376,0,0,0,.178.152,1.805,1.805,0,0,1-.258-.41h.025s.207.308.258.41c.051,0,.051.051.051,0,.051.025.051.051.025.076h.076a.328.328,0,0,0-.1-.177v.131s-.152-.232-.1-.258c.025,0,.1.131.131.152h0s-.025-.131.051-.076c0,0,.1.076.076.025-.076-.076-.334-.334-.385-.41a.851.851,0,0,1,.152.076c.076.051.131.177.177.232l-.025-.051s.051.076.051.051c-.051-.076.051,0-.051-.076,0-.025.025,0,.051,0a.491.491,0,0,1-.131-.232l.051.051a.177.177,0,0,0,.131-.025.166.166,0,0,1,.076.076v-.059s-.025.025.051.1c-.025-.051,0-.076-.025-.131-.051-.076-.051,0-.051.051a.624.624,0,0,1-.131-.283c0-.051.051.051.051.025.076,0-.076-.207,0-.177a.416.416,0,0,1,.131.177c0,.051-.076,0-.076,0h.051v.055c.051.051.1-.051.178-.025a.1.1,0,0,0-.025-.076h0s0-.076-.051-.076v-.106l.051.076s-.051-.025-.051,0c0-.051.1.076.051-.025l-.051-.051s-.025-.152,0-.131c-.051-.076,0,0-.076-.076.076.1-.076.025.025.131-.076-.076-.051,0-.152-.1,0,0,.051.051,0,.051h0l.025.051c.025.051,0,.076,0,.131,0,0,0-.025-.051-.051V13s-.076-.076-.076-.131h-.025s-.076,0-.076.025v.076h-.025s0,.131-.131.076c0,0,0,.051-.025.051l-.051-.051s-.076,0-.051.051c-.131-.1-.1.025-.152.051l.051.051a.269.269,0,0,0-.025.076l.051.051s-.076,0-.1.051h0c-.152-.076,0,.152-.1.1h0v.051l-.051-.051h0s0,.025.051.076v.051s0,.051-.076-.025c.025.051,0,.076.076.177h0l-.076-.051.076.1a.988.988,0,0,1-.131-.1c.051.1,0,.051.051.152l-.051-.051s.025.076,0,.051c-.1-.051-.131.1-.258.076.152.1-.076,0,0,.076q-.038,0-.076-.076c0,.051-.1,0,0,.1-.025,0-.051-.051-.051-.051h0a.108.108,0,0,0-.025-.051.729.729,0,0,0,.152.207q-.051,0,0,.051a.079.079,0,0,1-.076-.076s-.1.025-.025.076h0q-.025,0-.051.051h0v.076h0s0,.025-.1,0l.051.051s-.1,0-.076.051h.051a2.133,2.133,0,0,0-.232-.076v-.013c-.1,0,.076.051.076.1-.051-.025-.1-.076-.131-.076-.051,0,.076.152,0,.131a.078.078,0,0,1,.076.076c0,.025-.152-.025-.076.051h-.025s0,.076.051.1c-.207-.131,0,.152-.152.025V14.8h-.051a.212.212,0,0,0,.025.1.06.06,0,0,1-.051-.025c-.076,0-.076.025,0,.131l-.076-.051s-.152,0-.1.076h0s-.258,0-.051.152v.076a.662.662,0,0,0,.178.076s-.1,0-.1-.025h0a.192.192,0,0,1-.152-.025c-.051.076-.177.131-.232.207l.1.051h0s-.076,0-.051-.025c-.051,0,0,.051.051.076a.109.109,0,0,1-.1-.076h0s.076.076.051.1c-.025,0-.076-.025-.076,0h-.025l.076.051s-.025.025.076.076c-.152-.051-.131.1-.177.076.051.051,0,.076,0,.1,0,0,.1.051.076.076-.177-.1-.1,0-.232-.051.1.025,0,.076.1.131a.383.383,0,0,1-.131-.051c.025.076-.1.076-.131.152,0,0,.076,0,.1.051l-.131-.051s.131.076.025.051c0,0,.051,0,.051.025-.178.051-.051.283-.334.258q.051,0,.051.025h0l.076-.059Zm2-1.695s.025.051,0,.025C422.112,14.77,422.163,14.8,422.163,14.8Z" transform="translate(-403.704 -10.929)" fill="#f2a5ba"/>
      <path id="_パス_1572" d="M428.49,12.959h.051S428.49,12.908,428.49,12.959Z" transform="translate(-408.594 -11.036)" fill="#f2a5ba"/>
      <path id="_パス_1574" d="M427.859,12.834s-.051-.076,0-.051C427.834,12.708,427.859,12.885,427.859,12.834Z" transform="translate(-408.217 -10.937)" fill="#f2a5ba"/>
      <path id="_パス_1575" d="M428.62,13.23l.025.051.025.025-.051-.076Z" transform="translate(-408.67 -11.206)" fill="#f2a5ba"/>
      <rect id="_長方形_151" height="0.025" transform="translate(19.942 2.096)" fill="#f2a5ba"/>
      <path id="_パス_1578" d="M427.89,13.771s.025.025.025,0V13.72h0Z" transform="translate(-408.248 -11.489)" fill="#f2a5ba"/>
      <path id="_パス_1579" d="M428.251,13.951s-.025,0-.051-.051l.051.076h0Z" transform="translate(-408.427 -11.593)" fill="#f2a5ba"/>
      <path id="_パス_1580" d="M428.275,14.191s0-.051-.025-.051C428.25,14.14,428.25,14.216,428.275,14.191Z" transform="translate(-408.456 -11.731)" fill="#f2a5ba"/>
      <path id="_パス_1581" d="M427.176,14.331h0L427.1,14.2Z" transform="translate(-407.792 -11.766)" fill="#f2a5ba"/>
      <path id="_パス_1582" d="M427.211,15.471a.049.049,0,0,1-.051-.051h0c0,.051,0,.025.076.1.051,0-.051-.076,0-.051Z" transform="translate(-407.827 -12.47)" fill="#f2a5ba"/>
      <path id="_パス_1583" d="M420.051,21.67,420,21.7h.051Z" transform="translate(-403.692 -16.079)" fill="#f2a5ba"/>
      <path id="_パス_1584" d="M420.2,21.841l-.076-.051Z" transform="translate(-403.762 -16.148)" fill="#f2a5ba"/>
      <path id="_パス_1586" d="M424.936,18.081h0l-.076-.051Z" transform="translate(-406.499 -13.977)" fill="#f2a5ba"/>
      <path id="_パス_1588" d="M435.29,44.891l.051-.051S435.29,44.916,435.29,44.891Z" transform="translate(-412.521 -29.458)" fill="#f2a5ba"/>
      <path id="_パス_1589" d="M434.9,45.105l.025-.025-.051.051.025-.025h0Z" transform="translate(-412.278 -29.596)" fill="#f2a5ba"/>
      <path id="_パス_1590" d="M434.846,44.985s-.076.051-.051,0c-.051.1.025,0,0,.025h0l.051-.051h0Z" transform="translate(-412.225 -29.527)" fill="#f2a5ba"/>
      <path id="_パス_1593" d="M434.921,44.42a.239.239,0,0,0-.051.076h.025V44.42Z" transform="translate(-412.278 -29.215)" fill="#f2a5ba"/>
      <path id="_パス_1596" d="M434.8,44.764s.051-.076.025-.051A.06.06,0,0,1,434.8,44.764Z" transform="translate(-412.238 -29.381)" fill="#f2a5ba"/>
      <path id="_パス_1598" d="M434.741,44.471V44.42a.24.24,0,0,1-.051.076h0Z" transform="translate(-412.174 -29.215)" fill="#f2a5ba"/>
      <path id="_パス_1600" d="M434.62,44.856l.076-.076Z" transform="translate(-412.134 -29.423)" fill="#f2a5ba"/>
      <path id="_パス_1601" d="M434.75,44.291l.051-.051Z" transform="translate(-412.209 -29.111)" fill="#f2a5ba"/>
      <path id="_パス_1602" d="M434.69,44.186s.025-.076.051-.076l-.051.051Z" transform="translate(-412.174 -29.036)" fill="#f2a5ba"/>
      <path id="_パス_1607" d="M434.5,44.881a.2.2,0,0,1,.076-.1C434.576,44.805,434.525,44.831,434.5,44.881Z" transform="translate(-412.065 -29.423)" fill="#f2a5ba"/>
      <path id="_パス_1608" d="M434.56,44.711a.108.108,0,0,1,.025-.051h-.025Z" transform="translate(-412.099 -29.354)" fill="#f2a5ba"/>
      <path id="_パス_1616" d="M433.9,44.617v-.051c-.025.076-.076.076-.131.177h0c.025-.051.076-.1.051-.025A2.244,2.244,0,0,0,434,44.41a.083.083,0,0,1-.051.076.182.182,0,0,1-.051.131h0Z" transform="translate(-411.643 -29.209)" fill="#f2a5ba"/>
      <path id="_パス_1617" d="M434.345,44.411h0l.025-.051-.051.051Z" transform="translate(-411.961 -29.181)" fill="#f2a5ba"/>
      <path id="_パス_1618" d="M434.276,44.547a.163.163,0,0,1,.025-.076h0V44.42h-.025c-.025.051-.051.076-.076.131,0,0,.025-.051.051-.051h0l.025.046Z" transform="translate(-411.891 -29.215)" fill="#f2a5ba"/>
      <path id="_パス_1619" d="M434.361,44.831a1.229,1.229,0,0,0-.076.131h-.025a.319.319,0,0,0,.051-.08h0a.381.381,0,0,1,.051-.1h0Z" transform="translate(-411.926 -29.423)" fill="#f2a5ba"/>
      <path id="_パス_1620" d="M434.26,44.925v.051h0a.127.127,0,0,1,.025-.076h-.025Z" transform="translate(-411.926 -29.492)" fill="#f2a5ba"/>
      <path id="_パス_1621" d="M434.345,44.316l.051-.076-.076.076Z" transform="translate(-411.961 -29.111)" fill="#f2a5ba"/>
      <path id="_パス_1622" d="M434.32,44.315h0l.025-.025Z" transform="translate(-411.961 -29.14)" fill="#f2a5ba"/>
      <path id="_パス_1624" d="M433.05,43.628s.051-.131,0-.076V43.6h0Z" transform="translate(-411.227 -28.706)" fill="#f2a5ba"/>
      <path id="_パス_1627" d="M433.755,44.1V44.05C433.755,44.075,433.729,44.126,433.755,44.1Z" transform="translate(-411.628 -29.002)" fill="#f2a5ba"/>
      <path id="_パス_1635" d="M431.944,44.813l.051-.051.076-.152-.131.207h0Z" transform="translate(-410.587 -29.325)" fill="#f2a5ba"/>
      <path id="_パス_1636" d="M430.67,43.209s.076-.076.076-.051l-.051.076v-.025c.025-.025-.051.131.025,0v-.051a.8.8,0,0,1,.1-.076c.051-.076,0,0,.025-.076-.051.131-.025,0-.076.1.051-.1,0-.051.051-.152,0,.025,0,.051-.025.025h0v.076c-.034.025-.072.051-.1.076a.06.06,0,0,1,.025-.051v.051a.3.3,0,0,1,.025-.131h0v-.046h-.025s-.1.076-.051-.025h-.025V42.88h0c.076-.131-.025-.051-.025-.076v.076h-.1v.051l-.051-.051h0c.051-.152-.1.076-.076-.025h0v-.046h0s0,.025-.051.076h-.025s-.025.051,0-.051c-.025.051-.051,0-.1.131h0a.345.345,0,0,1,.025-.131l-.1.1V42.88h0c.025-.1-.076-.051-.051-.152-.076.152,0-.076-.051.051,0-.025,0-.051.051-.076-.025.025,0-.076-.051,0,0-.025.025-.051.051-.076h0a.108.108,0,0,1,.025-.051,1.315,1.315,0,0,0-.131.207q0-.051-.025,0c0-.025,0-.076.051-.076,0,0,0-.076-.051,0h-.025s0,.025-.051.051h0s-.025,0,0-.076v.076c-.1.131,0-.1-.051-.051v.051s.051-.207.051-.232V42.5c0-.1-.051.076-.076.1,0-.051.051-.1.051-.131,0-.051-.1.131-.076.051a.107.107,0,0,1-.051.1s0-.152-.025-.051h0s-.051,0-.076.076c.076-.232-.1.076,0-.131h0a.083.083,0,0,0-.076.051v-.046q0-.051-.076.051v-.076s0-.131-.025-.051h0s0-.232-.1,0l-.051.051a.5.5,0,0,0-.051.152v-.106h0v-.131c-.051,0-.076-.1-.131-.131v.1h-.051s0-.1.025-.076c0-.051-.025.051-.051.076a.354.354,0,0,1,.051-.131h0s-.025.1-.051.1V42.28h0v.051s-.025,0-.051.076c.025-.152-.076-.076-.051-.131-.025.051-.051.051-.051.051s0,.1-.025.1c.051-.177,0-.076,0-.232,0,.1-.051,0-.076.152v-.131c-.051.076-.051-.051-.1-.051a.212.212,0,0,1-.025.1v-.131s-.025.152,0,.051v.051c-.051-.131-.177.076-.207-.177v.051s-.051,0-.051.1h0s-.025.232-.051.359c.025-.131,0,.177.051,0v.089c0-.051,0-.076.025-.051h0a.2.2,0,0,0,.076.1v-.03c.025-.1,0,0,0-.131,0,.131.051,0,.025.177,0,0,0-.076.025-.076h0v.1h.025a.154.154,0,0,0,.131-.076h.051l.025-.025a.166.166,0,0,1-.025.1c.051-.051.025-.051.076-.152v.055s0-.076.025-.076a.139.139,0,0,1-.051.131c0,.131.076-.1.051.076.051-.131,0-.076,0-.1,0-.051.051-.1.051-.076,0,0-.051.177,0,.177h0c.025-.076,0,0,.051-.1h-.025s.076-.131.076-.051a.127.127,0,0,1-.025.076h0c-.025.1-.025,0-.076.1,0,.051.051-.076,0,.051.051-.152,0,0,.076-.076v.076h0v.051s-.025.076,0,.025a.344.344,0,0,1,.025-.131c.051-.076-.051.177,0,.152h0c.025,0,0-.076.051-.1,0,.076,0-.025.051-.051v.076s.025-.131.025-.076l-.051.076h0v.051h0a.354.354,0,0,1,.051-.131c0,.051-.025.051,0,.051,0,.051-.051.1-.025.025v.051h0l.051-.076s0,.051-.025.051v-.051a.3.3,0,0,1-.025.131l.051-.051v.076c0,.025.076-.1.076-.051h0s0,.051.051,0v.1s0-.131.051-.152c.025,0-.025.076-.025.1.025-.051.076-.131.076-.051h0v.051a.408.408,0,0,0-.076.131c.076-.177.051,0,.131-.177v.051h0s.076-.131.076-.076v.025h.051s.051-.025.051-.051v.076c-.076.177.025-.051,0,.076h0a.46.46,0,0,1-.025.152.646.646,0,0,1,.076-.207h0c-.025.076,0,.051,0,.051v-.03a.182.182,0,0,1-.051.131.385.385,0,0,1,.051-.131c0,.051,0,0,.076-.025,0,.025-.025.051-.025.076l.051-.076h0s.051-.051.051-.076c.051-.1-.051.152,0,.051a.241.241,0,0,1-.051.076.5.5,0,0,0,.1-.131v.051a1.877,1.877,0,0,1,.1-.207V42.7h.076l-.051.051h0l-.051.1V42.8l-.076.152h0l-.051.076h0l.177-.207a1.883,1.883,0,0,0-.1.207c.025-.076-.051.025-.051,0,0,0,0,.051-.025.051l.076-.076a.127.127,0,0,1-.025.076c.051-.131.051-.076.1-.131a.083.083,0,0,1-.051.076c-.025.1.1-.152.076-.051h0c.025-.025.025,0,0,.051h0s.051.025.131-.076l-.076.152.232-.359a2.811,2.811,0,0,1-.207.385h0s.051-.152.076-.152c-.051.1,0,.051-.051.152,0,0,.076-.177.1-.152l-.076.152.1-.131a.661.661,0,0,0-.076.177c0-.025,0,0,.025,0h0s.131-.232.152-.207c0,.025-.1.177-.1.207.051-.076.207-.359.258-.41h0s-.207.334-.258.41v.051a.049.049,0,0,1-.051.051h0v.051a1.129,1.129,0,0,0,.131-.152l-.076.076s.152-.232.152-.207a.668.668,0,0,1-.1.177c0-.025.051-.051.051-.025v.051h0s-.051.131,0,.076c.051-.1.207-.41.258-.486a.918.918,0,0,1-.051.152,1.433,1.433,0,0,1-.152.258s.025-.051.051-.051c0,0-.051.076-.025.076l.051-.076h0a1.86,1.86,0,0,1,.152-.207v.076s-.025.051,0,.076a.083.083,0,0,1-.051.076v.051c.025-.051.051-.051.076-.076.051-.076,0,0-.025,0a1.078,1.078,0,0,1,.177-.258c.025,0-.025.076,0,.051,0,.025.131-.177.131-.076a1.21,1.21,0,0,1-.1.177c-.025,0,0-.051,0-.051h0s-.025.076-.025.051c-.025.076.051.051.025.1a.239.239,0,0,1,.051-.076h0a.455.455,0,0,0,.076-.1h0l-.3.165Z" transform="translate(-408.514 -27.853)" fill="#f2a5ba"/>
      <path id="_パス_1642" d="M434.063,44.2s.051-.076.025-.051C434.139,44.1,434.013,44.23,434.063,44.2Z" transform="translate(-411.805 -29.054)" fill="#f2a5ba"/>
      <path id="_パス_1643" d="M433.84,45.021v.025l.025-.076Z" transform="translate(-411.684 -29.533)" fill="#f2a5ba"/>
      <path id="_パス_1646" d="M433.47,44.745v.025l.025-.051h0Z" transform="translate(-411.47 -29.388)" fill="#f2a5ba"/>
      <path id="_パス_1648" d="M433.16,45.321a.273.273,0,0,0,.025-.051S433.135,45.321,433.16,45.321Z" transform="translate(-411.287 -29.706)" fill="#f2a5ba"/>
      <path id="_パス_1649" d="M432.93,44.6h0l.076-.131Z" transform="translate(-411.158 -29.244)" fill="#f2a5ba"/>
      <path id="_パス_1650" d="M432.191,45.2V45.15c-.025.025,0,0-.051.1,0,.051.051-.076.025-.025h0Z" transform="translate(-410.702 -29.637)" fill="#f2a5ba"/>
      <path id="_パス_1651" d="M428.215,42.161l-.025-.051v.051Z" transform="translate(-408.421 -27.881)" fill="#f2a5ba"/>
      <path id="_パス_1654" d="M430.525,44.676l.025-.076-.051.076Z" transform="translate(-409.755 -29.319)" fill="#f2a5ba"/>
      <path id="_パス_1658" d="M408.1,63.16v.025h.051S408.078,63.185,408.1,63.16Z" transform="translate(-396.82 -40.036)" fill="#f2a5ba"/>
      <path id="_パス_1703" d="M406.739,60.529h.232c.051,0,.131,0,.076.025h.232c-.131,0,0-.025-.131,0h.11s.051-.025,0-.025h0s-.1-.051,0-.076h.051s.051,0,0-.025c.152,0,.025-.025.051-.051h-.076l-.051-.025h-.076a.049.049,0,0,0,.051-.051h0c.152,0-.1-.025,0-.051h-.177c.131,0,0-.051.131-.076h.051c-.051,0,.076,0-.051-.025h-.051s.051-.025-.051-.025H407s-.051,0,.051-.025h-.076c-.152,0,.1,0,.025-.025h-.051a.872.872,0,0,0,.232-.025h.051s-.177-.025-.076-.051h-.1s.152-.025,0-.025h-.1c.258-.025-.131-.025.1-.051h0a.167.167,0,0,0-.1-.051H407c.051,0,.025-.025-.076-.025H407s.131-.051.025-.051h.025c-.1,0,.207-.076-.076-.051h-.224s.076-.025.1,0h0c.152,0,.051-.025.152-.025,0-.025.076-.076.051-.131h-.178c.152-.025.051-.076.1-.076h-.152c.207,0,.076-.025.232-.051-.1,0-.025-.025-.152,0h.131c-.076,0,.051-.051,0-.076h.025s-.152,0-.051-.051h-.076s-.131-.076.1-.152h-.152l.1-.051h-.1l-.385.076c.131,0-.177.051,0,.051h-.025l-.076.076h0l.131-.025c-.152.025,0,.051-.152.076h.025s0,.051.076.051h.025s-.025,0,0,.025h0c-.131.025.131,0-.051.051.152,0,.076-.025.131-.025h.1s-.207.025-.207.051h-.076s-.076.051,0,.051a.345.345,0,0,0,.131-.025c.1,0-.178.025-.152.051h.076s.051,0,0,.025h0a.445.445,0,0,1-.1.025c-.025,0,.131,0,.076.025h.025s-.076.025,0,.025h-.19c.207,0,0,.025.232,0h.131s0,.025-.051.025h-.051c-.207,0,.051,0-.076.025h-.025a.46.46,0,0,0-.152.025.715.715,0,0,1,.232,0h-.025c-.025,0,0,0,.076.025h.1c.1,0-.152.025-.025.025h-.152s.283.051.334.051h-.232c.1,0-.051,0,0-.025h.025a.212.212,0,0,0-.1.025h.1s0,.051.131.051H407s-.385.025-.435.025h-.177a1.284,1.284,0,0,0,.177.025h.486a.621.621,0,0,0-.177.025h-.051s-.051.025-.051.051h.207c0,.025.232,0,.131.051h-.232c-.076,0,0,.051-.076.051h0l-.038.363Z" transform="translate(-395.764 -37.709)" fill="#f2a5ba"/>
      <path id="_パス_1710" d="M407.56,62.585l.076-.025h-.076Z" transform="translate(-396.509 -39.689)" fill="#f2a5ba"/>
      <path id="_パス_1724" d="M381.41,45.655l.025.025-.025-.051v.025Z" transform="translate(-381.41 -29.914)" fill="#f2a5ba"/>
      <path id="_パス_1725" d="M381.54,45.568h0v.051s.025-.076.051-.051C381.54,45.467,381.591,45.568,381.54,45.568Z" transform="translate(-381.485 -29.852)" fill="#f2a5ba"/>
      <path id="_パス_1733" d="M382.08,45.965l.025.051a.127.127,0,0,0-.025-.076h0Z" transform="translate(-381.797 -30.093)" fill="#f2a5ba"/>
      <rect id="_長方形_160" height="0.076" transform="translate(0.169 15.741)" fill="#f2a5ba"/>
      <path id="_パス_1735" d="M382.225,46.075v.051l-.025-.076.025.025Z" transform="translate(-381.866 -30.156)" fill="#f2a5ba"/>
      <path id="_パス_1736" d="M382.32,46.05a.446.446,0,0,1,.025.1v-.076h-.025Z" transform="translate(-381.935 -30.156)" fill="#f2a5ba"/>
      <path id="_パス_1738" d="M382.08,45.87s0,.051.025.051V45.87Z" transform="translate(-381.797 -30.052)" fill="#f2a5ba"/>
      <path id="_パス_1741" d="M381.84,45.45a.714.714,0,0,1,.025.131A.279.279,0,0,0,381.84,45.45Z" transform="translate(-381.658 -29.81)" fill="#f2a5ba"/>
      <path id="_パス_1743" d="M382.225,45.835V45.81H382.2v.025Z" transform="translate(-381.866 -30.018)" fill="#f2a5ba"/>
      <path id="_パス_1750" d="M382.225,45.056l.025.051c-.025-.076,0-.1-.051-.207v.051a1,1,0,0,0,.131.308v-.076c0-.025-.051-.051-.051-.1h0l-.055-.025Z" transform="translate(-381.866 -29.492)" fill="#f2a5ba"/>
      <path id="_パス_1751" d="M382.39,45.75h0s0,.025.051.076V45.75Z" transform="translate(-381.976 -29.983)" fill="#f2a5ba"/>
      <path id="_パス_1752" d="M382.251,45.542a.244.244,0,0,0-.051-.152v.076a.108.108,0,0,0,.025.051h0v.051h0Z" transform="translate(-381.866 -29.775)" fill="#f2a5ba"/>
      <path id="_パス_1753" d="M381.84,45.261a.455.455,0,0,1,.051.1.326.326,0,0,0-.051-.152h0v.076h0Z" transform="translate(-381.658 -29.671)" fill="#f2a5ba"/>
      <path id="_パス_1755" d="M382.45,45.775l.025.051-.025-.076Z" transform="translate(-382.01 -29.983)" fill="#f2a5ba"/>
      <path id="_パス_1756" d="M382.51,45.75l.025.051v-.025Z" transform="translate(-382.045 -29.983)" fill="#f2a5ba"/>
      <path id="_パス_1758" d="M384.02,45.27s.076.131.051.051V45.27Z" transform="translate(-382.917 -29.706)" fill="#f2a5ba"/>
      <path id="_パス_1761" d="M383.11,45.48s.013.025.025.025C383.136,45.48,383.085,45.43,383.11,45.48Z" transform="translate(-382.388 -29.815)" fill="#f2a5ba"/>
      <path id="_パス_1769" d="M383.78,43.564v.051l.076.177-.076-.232Z" transform="translate(-382.778 -28.719)" fill="#f2a5ba"/>
      <path id="_パス_1770" d="M385.251,42.445s-.1-.232-.152-.359c.025.131-.1-.152-.051,0V42.06h0a.7.7,0,0,1-.131-.051h0c.025.1.025,0,.051.1-.051-.131-.076,0-.131-.131,0,0,.025.076,0,.076h0s-.051-.051-.051-.076h-.025a.128.128,0,0,0-.1.131h0s-.025,0-.051.051h0v.051c0-.025-.051-.076-.051-.1a.622.622,0,0,0,.025.177v.051c0-.051-.051-.076-.051-.131-.076-.1,0,.131-.076-.025.051.152.051.076.051.1,0,.051.025.1,0,.1,0,0-.076-.177-.1-.152h0s0,.051-.025,0c.025.076,0,0,0,.1h0s.025.131,0,.076v-.072h0c-.051-.1,0-.025,0-.131,0-.051,0,.076-.025-.025.051.152-.025,0,0,.1h0l-.051-.076s-.051-.051-.051,0c.025,0,.051.076.076.131,0,.1-.076-.152-.1-.1l.051.051-.051-.051a.446.446,0,0,1,.025.1c-.051-.076,0,.025,0,.076v-.076h-.025v-.046s-.025.051-.051.025c0,.051.051.131.025.131,0-.025,0-.051-.025-.051,0-.051-.025-.1,0-.025v-.055h-.051v.076a.7.7,0,0,1-.051-.131v.076s-.051-.051-.051-.076c-.025-.025,0,.131-.025.076h0s-.076-.025-.051.051l-.051-.1s.076.1.051.152c0,.025-.051-.076-.051-.1,0,.051.025.152,0,.076h0v-.046a.368.368,0,0,0-.076-.131c.076.177-.051.051.025.232h-.025v-.046s.051.131,0,.131a.115.115,0,0,1-.025-.051v.051h-.025v.076s-.025-.1,0-.1c-.1-.177,0,.051-.076-.051h0c-.051-.131-.051-.076-.1-.152,0,.025.1.152.1.207h0c-.025-.076-.025-.051-.025-.051v.025a1.233,1.233,0,0,1-.076-.131.7.7,0,0,1,.051.131q-.038-.038,0,.076a.086.086,0,0,0-.021-.076v.076h0a.27.27,0,0,1,.025.076c.025.1-.076-.131-.051,0a.127.127,0,0,0-.025-.076v.152l-.051-.051s.051.152.076.207l.051.076v.051a.127.127,0,0,0-.025-.076h0l-.051-.1v.051a.46.46,0,0,0-.025-.152h0l-.055-.076h0v.308c0-.076-.051-.131-.076-.207.051.076,0-.051.025-.025l-.025-.051v.1a.088.088,0,0,0-.055-.076c.051.131,0,.1,0,.152,0-.051-.025-.1,0-.076-.051-.1.051.177,0,.076h0c0,.051,0,0-.025,0h0s-.076,0-.025.131l-.051-.152.1.41a3.031,3.031,0,0,1-.152-.385h0a1.272,1.272,0,0,1,.076.152l-.076-.152s.076.177.051.177a1.121,1.121,0,0,0-.076-.177l.051.152s-.051-.131-.076-.177h0s.051.258.025.258c0-.025-.076-.207-.1-.207,0,.076.131.385.131.461h0s-.131-.385-.152-.486c0-.025,0-.051-.025-.051v-.08h-.051a.273.273,0,0,0,.051.152v-.1s.076.258.051.258a.939.939,0,0,0-.076-.207h0s0,.131-.025.051c0,0-.051-.1-.051-.051.051.1.177.435.207.511,0,0-.076-.1-.1-.131-.051-.076-.051-.207-.1-.258v.076s-.025-.076-.025-.051c.025.1-.025,0,0,.076,0,.025,0,0-.025,0,.025.051.076.207.051.232a.127.127,0,0,0-.025-.076c-.025,0-.051-.051-.076-.025a.24.24,0,0,0-.051-.076v.051l-.025-.1V43.2c.025.076.025,0,.025-.025a.79.79,0,0,1,.076.308c0,.025-.025-.076-.025-.051-.051,0,.051.207,0,.131a.941.941,0,0,1-.076-.207c0-.025.051.051.051.025h-.025v-.055c-.025-.051-.076,0-.131-.051v.076h0s0,.076.025.1h0c0,.051-.076-.1-.025,0v.051s.051.131.025.131c.025.076,0,0,.051.076-.051-.131.051,0,0-.131a.663.663,0,0,0,.076.131v-.051h0v-.186a.7.7,0,0,1,.051.131h0s.051.051.051,0h0v-.055h0s0-.1.076,0v.025s.076.051.051,0c.076.131.051,0,.1.025v-.177s.038.013.051,0h0c.076.131,0-.131.076-.025h.051l-.025-.051V43.3s0-.051.051.076a.621.621,0,0,0-.025-.177h0v-.025a1.019,1.019,0,0,1,.076.152v-.1s0-.076.025-.025c.051.1.076,0,.152.076-.076-.152.051.051,0-.051,0,.025.025.051.051.1,0-.051.051.051.025-.051a.1.1,0,0,0,.025.076h0V43.4a1.152,1.152,0,0,0-.076-.232c.025.051.025.025,0-.025,0,.025.051.076.025.076,0,0,.076.025.025-.051h.025v-.051h0s0-.025.076.051v-.051c-.076-.131.025.076.025,0h0s.1.152.131.152v.025c.051.076-.025-.076,0-.1a.353.353,0,0,0,.051.131c0,.025-.025-.152.025-.076a.21.21,0,0,0-.051-.1s.1.131.051,0h0v-.106c.1.232,0-.131.1.076h.025v-.051c.051.025.051,0,.025-.1v.076s.131.076.1,0h0s.152.177.051-.051v-.076l-.076-.152s.051.051.051.076h0s.051,0,.076.1c.051-.025.131,0,.177,0l-.051-.1h0s.025.076,0,.076c.025.051,0-.051,0-.076.051.025.025.131.051.131h0v-.106l.025.051h.025l-.051-.076v-.076c.076.131.1,0,.131.051v-.076s-.051-.1-.025-.1c.076.177.051.076.131.207-.051-.076.025-.025-.025-.152a.378.378,0,0,0,.051.1c0-.076.076,0,.1,0a.225.225,0,0,1-.025-.1l.076.1s-.051-.131,0-.051V42.69s.076-.152.232.051c-.025-.051,0-.051,0-.051h0s.051,0,.025-.1h0l.072-.127Z" transform="translate(-382.12 -27.806)" fill="#f2a5ba"/>
      <path id="_パス_1774" d="M382.415,45.315s0-.025-.025,0Z" transform="translate(-381.976 -29.725)" fill="#f2a5ba"/>
      <path id="_パス_1777" d="M382.32,44.925V44.9l.025.076Z" transform="translate(-381.935 -29.492)" fill="#f2a5ba"/>
      <path id="_パス_1783" d="M383.23,44.54h0l.051.131Z" transform="translate(-382.461 -29.284)" fill="#f2a5ba"/>
      <path id="_パス_1784" d="M383.35,43.615a.108.108,0,0,0,.025.051c0-.025,0,0-.025-.1C383.325,43.539,383.375,43.64,383.35,43.615Z" transform="translate(-382.526 -28.719)" fill="#f2a5ba"/>
      <path id="_パス_1785" d="M388.94,43.45l.025.025Z" transform="translate(-385.758 -28.655)" fill="#f2a5ba"/>
      <path id="_パス_1788" d="M385.18,42.78h0l.051.076Z" transform="translate(-383.587 -28.268)" fill="#f2a5ba"/>
    </g>
  </g>
</svg>
