<svg xmlns="http://www.w3.org/2000/svg" width="237.438" height="170" viewBox="0 0 237.438 170">
  <g id="page3-order-2" transform="translate(-840 -631)">
    <g id="review_1_" data-name="review (1)" transform="translate(840 698)">
      <path id="Path_2156" data-name="Path 2156" d="M93.959,124.466H9.041A9.056,9.056,0,0,0,0,133.537v43.29A9.056,9.056,0,0,0,9.041,185.9H13.59v15.773L31.377,185.9H93.959A9.056,9.056,0,0,0,103,176.827v-43.29A9.056,9.056,0,0,0,93.959,124.466Z" transform="translate(0 -98.671)" fill="#fce7ec"/>
      <g id="Group_1211" data-name="Group 1211" transform="translate(13.59 25.795)">
        <path id="Path_2157" data-name="Path 2157" d="M65.577,429.314v7.351l17.786-15.773h-8.29Z" transform="translate(-65.577 -359.46)" fill="#f8e3e8"/>
        <path id="Path_2158" data-name="Path 2158" d="M421.664,124.466h-8.29a9.056,9.056,0,0,1,9.041,9.071v43.29a9.056,9.056,0,0,1-9.041,9.071h8.29a9.056,9.056,0,0,0,9.041-9.071v-43.29A9.056,9.056,0,0,0,421.664,124.466Z" transform="translate(-341.295 -124.466)" fill="#f8e3e8"/>
      </g>
      <g id="Group_1212" data-name="Group 1212" transform="translate(15.094 45.553)">
        <path id="Path_2159" data-name="Path 2159" d="M74.385,222.914h69.7a1.554,1.554,0,1,0,0-3.109h-69.7a1.554,1.554,0,1,0,0,3.109Z" transform="translate(-72.831 -219.805)" fill="#f5becb"/>
        <path id="Path_2160" data-name="Path 2160" d="M144.089,270.5h-69.7a1.554,1.554,0,1,0,0,3.109h69.7a1.554,1.554,0,1,0,0-3.109Z" transform="translate(-72.831 -259.99)" fill="#f5becb"/>
        <path id="Path_2161" data-name="Path 2161" d="M116.213,321.185H74.385a1.554,1.554,0,1,0,0,3.109h41.828a1.554,1.554,0,1,0,0-3.109Z" transform="translate(-72.831 -300.175)" fill="#f5becb"/>
      </g>
      <g id="Group_1215" data-name="Group 1215" transform="translate(31.876 0)">
        <path id="Path_2162" data-name="Path 2162" d="M159.174,33.107a19.624,19.624,0,1,1,28.485.036Z" transform="translate(-153.809 0)" fill="#f5becb"/>
        <path id="Path_2163" data-name="Path 2163" d="M232.645,0A19.7,19.7,0,0,0,228.5.44a19.627,19.627,0,0,1,0,38.368,19.738,19.738,0,0,0,4.145.233,19.521,19.521,0,1,0,0-39.041Z" transform="translate(-213.021 0)" fill="#f5becb" opacity="0.4"/>
        <g id="Group_1214" data-name="Group 1214" transform="translate(5.369 9.521)">
          <g id="Group_1213" data-name="Group 1213" transform="translate(0 15.095)">
            <path id="Path_2164" data-name="Path 2164" d="M193.971,133.408a19.563,19.563,0,0,0,14.221-6.11,16.424,16.424,0,0,0-14.222-8.523,16.209,16.209,0,0,0-14.255,8.487A19.562,19.562,0,0,0,193.971,133.408Z" transform="translate(-179.716 -118.775)" fill="#fff9f9"/>
          </g>
          <circle id="Ellipse_107" data-name="Ellipse 107" cx="7.573" cy="7.573" r="7.573" transform="translate(6.681)" fill="#fff9f9"/>
        </g>
      </g>
    </g>
    <g id="Group_1216" data-name="Group 1216" transform="translate(-9 10)">
      <g id="receive" transform="translate(959.58 651)">
        <path id="Path_2165" data-name="Path 2165" d="M112.6,257.4l-.607.327c-2.642-3.172-7.193-4.4-10.662-2.639l-.038.02-1.5.807a11.689,11.689,0,0,0-13.357-1.185l-8.235,4.478H67.245a15.8,15.8,0,0,1-6.838-1.567l-1.509-.73a25.96,25.96,0,0,0-27.02,2.639,1.38,1.38,0,0,0-.107.089l-3.646,3.245a12.581,12.581,0,0,1-4.695,2.631l-2.055-6.738a1.7,1.7,0,0,0-1.625-1.2H2.12a1.7,1.7,0,0,0-1.687,1.9L6.31,307.666A1.7,1.7,0,0,0,8,309.16H34.442a1.7,1.7,0,0,0,1.625-2.2l-3.462-11.357,10.781-6.815a6.458,6.458,0,0,1,4.707-.609q.053.013.106.023l22.01,4.053a28.543,28.543,0,0,0,17.635-2.489,1.7,1.7,0,0,0,.208-.123l38.068-26.137a1.7,1.7,0,0,0,.493-2.278A10.506,10.506,0,0,0,112.6,257.4Zm-9.715.713c1.955-.979,4.411-.2,6.006,1.29l-14.366,7.749-.788.415a12.573,12.573,0,0,0-1.922-3.49Zm-14.8-.407c.013-.008.028-.014.04-.023a8.293,8.293,0,0,1,8.343.026L89.252,261.6a12.52,12.52,0,0,0-4.53-2.065ZM9.5,305.761,4.039,260.972H18.491l13.655,44.789Zm76.727-18.985a25.124,25.124,0,0,1-15.409,2.14l-21.955-4.043a9.846,9.846,0,0,0-7.176.974c-.027.014-.052.03-.077.047l-10.035,6.343L24.421,268.77a15.989,15.989,0,0,0,5.962-3.348l3.593-3.2a22.575,22.575,0,0,1,23.44-2.254l1.509.73a19.217,19.217,0,0,0,8.318,1.906H81.886a9.2,9.2,0,0,1,9.012,7.4l-10.539-.477a63.586,63.586,0,0,0-11.559.533,1.7,1.7,0,1,0,.465,3.367,60.183,60.183,0,0,1,10.94-.5l12.489.566h.076a1.7,1.7,0,0,0,1.7-1.7c0-.254-.01-.506-.024-.757l1.68-.885,18.092-9.76a7.11,7.11,0,0,1,8.512,1.322Zm0,0" transform="translate(0 -181.463)" fill="#fff"/>
        <path id="Path_2166" data-name="Path 2166" d="M50.516,401.848a5.225,5.225,0,1,0,5.224-5.227A5.226,5.226,0,0,0,50.516,401.848Zm5.226-1.827a1.827,1.827,0,1,1-1.827,1.827,1.826,1.826,0,0,1,1.827-1.827Zm0,0" transform="translate(-35.906 -284.281)" fill="#fff"/>
        <path id="Path_2167" data-name="Path 2167" d="M147.637,78.887a30.024,30.024,0,1,0-30.024-30.024A30.023,30.023,0,0,0,147.637,78.887Zm0-56.648a26.625,26.625,0,1,1-26.625,26.625A26.625,26.625,0,0,1,147.637,22.239Zm0,0" transform="translate(-83.999 -13.504)" fill="#fff" opacity="0.7"/>
        <path id="Path_2168" data-name="Path 2168" d="M189.485,80.254v2.388h-4.806a1.7,1.7,0,0,0,0,3.4h4.806V88.2h-4.806a1.7,1.7,0,0,0,0,3.4h4.806V96.4a1.7,1.7,0,0,0,3.4,0V91.6h4.806a1.7,1.7,0,0,0,0-3.4h-4.806V86.04h4.806a1.7,1.7,0,0,0,0-3.4h-4.806V80.254l10.775-14.367a1.7,1.7,0,1,0-2.718-2.039l-9.756,13.007-9.755-13.007a1.7,1.7,0,1,0-2.72,2.039Zm0,0" transform="translate(-127.546 -45.276)" fill="#fff" opacity="0.55"/>
        <path id="Path_2169" data-name="Path 2169" d="M366.664,67.668a1.7,1.7,0,0,0-1.7,1.7V72.2a1.7,1.7,0,0,0,3.4,0V69.367A1.7,1.7,0,0,0,366.664,67.668Zm0,0" transform="translate(-261.29 -48.502)" fill="#fff"/>
        <path id="Path_2170" data-name="Path 2170" d="M366.664,97.668a1.7,1.7,0,0,0-1.7,1.7V102.2a1.7,1.7,0,1,0,3.4,0V99.367A1.7,1.7,0,0,0,366.664,97.668Zm0,0" transform="translate(-261.29 -70.004)" fill="#fff"/>
        <path id="Path_2171" data-name="Path 2171" d="M346.664,87.668a1.7,1.7,0,1,0,0,3.4H349.5a1.7,1.7,0,0,0,0-3.4Zm0,0" transform="translate(-246.955 -62.837)" fill="#fff"/>
        <path id="Path_2172" data-name="Path 2172" d="M379.5,91.067a1.7,1.7,0,0,0,0-3.4h-2.832a1.7,1.7,0,1,0,0,3.4Zm0,0" transform="translate(-268.458 -62.837)" fill="#fff"/>
        <path id="Path_2173" data-name="Path 2173" d="M103.523,0a1.7,1.7,0,0,0-1.7,1.7V4.532a1.7,1.7,0,1,0,3.4,0V1.7A1.7,1.7,0,0,0,103.523,0Zm0,0" transform="translate(-72.682)" fill="#fff"/>
        <path id="Path_2174" data-name="Path 2174" d="M103.523,30a1.7,1.7,0,0,0-1.7,1.7v2.832a1.7,1.7,0,1,0,3.4,0V31.7A1.7,1.7,0,0,0,103.523,30Zm0,0" transform="translate(-72.682 -21.503)" fill="#fff"/>
        <path id="Path_2175" data-name="Path 2175" d="M83.524,20a1.7,1.7,0,1,0,0,3.4h2.832a1.7,1.7,0,1,0,0-3.4Zm0,0" transform="translate(-58.347 -14.335)" fill="#fff"/>
        <path id="Path_2176" data-name="Path 2176" d="M116.356,20h-2.832a1.7,1.7,0,0,0,0,3.4h2.832a1.7,1.7,0,1,0,0-3.4Zm0,0" transform="translate(-79.849 -14.335)" fill="#fff"/>
      </g>
      <line id="Line_215" data-name="Line 215" x1="71" y2="48" transform="translate(987.5 664.5)" fill="none" stroke="#fff" stroke-linecap="round" stroke-width="4"/>
    </g>
    <text id="_0" data-name="\0" transform="translate(934 696)" fill="#fff" font-size="60" font-family="SegoeUI, Segoe UI" letter-spacing="0.05em"><tspan x="-29.039" y="0">\0</tspan></text>
  </g>
</svg>
