<svg xmlns="http://www.w3.org/2000/svg" width="198.866" height="174.707" viewBox="0 0 198.866 174.707">
  <g id="page3-order-3" transform="translate(-1232.882 -628.293)">
    <g id="_x31_7" transform="translate(1318.001 668.063)">
      <path id="Path_2177" data-name="Path 2177" d="M31.752,14.16A10.552,10.552,0,1,0,42.3,24.712,10.562,10.562,0,0,0,31.752,14.16Zm5.96,9.777-2.762,2.011a.587.587,0,0,0-.214.66l1.055,3.256a.6.6,0,0,1-.915.668L32.1,28.521a.593.593,0,0,0-.7,0l-2.762,2a.592.592,0,0,1-.915-.66l1.055-3.256a.591.591,0,0,0-.223-.66l-2.762-2.011a.6.6,0,0,1,.354-1.08h3.413a.6.6,0,0,0,.569-.412l1.055-3.256a.6.6,0,0,1,1.138,0l1.063,3.256a.583.583,0,0,0,.561.412h3.421a.6.6,0,0,1,.346,1.08Z" transform="translate(-2.135 -2.135)" fill="#fff"/>
      <path id="Path_2178" data-name="Path 2178" d="M36.212,39.79c1.286.61,2.613,1.245,3.7.61s1.212-2.11,1.327-3.545a4.7,4.7,0,0,1,.462-2.193,4.821,4.821,0,0,1,2.193-.454c1.426-.115,2.91-.239,3.545-1.335s0-2.416-.61-3.7a4.778,4.778,0,0,1-.7-2.168c.1-.4.989-1.006,1.632-1.451,1.2-.824,2.432-1.673,2.432-2.976s-1.237-2.152-2.432-2.976c-.643-.437-1.533-1.047-1.632-1.443a4.8,4.8,0,0,1,.7-2.176c.61-1.286,1.237-2.613.61-3.693-.635-1.1-2.119-1.22-3.545-1.336a4.7,4.7,0,0,1-2.193-.461A4.807,4.807,0,0,1,41.241,8.3c-.115-1.426-.231-2.91-1.327-3.545s-2.415,0-3.7.61a4.917,4.917,0,0,1-2.168.7c-.4-.1-1.006-.989-1.451-1.632C31.768,3.237,30.911,2,29.617,2s-2.152,1.237-2.976,2.432c-.445.643-1.055,1.533-1.451,1.632a4.886,4.886,0,0,1-2.168-.7c-1.286-.61-2.613-1.237-3.7-.61s-1.212,2.119-1.327,3.553a4.847,4.847,0,0,1-.453,2.193,4.822,4.822,0,0,1-2.193.453c-1.434.116-2.91.231-3.553,1.336-.627,1.08.008,2.416.618,3.7a4.849,4.849,0,0,1,.7,2.168c-.107.4-.989,1.006-1.632,1.451-1.2.824-2.44,1.674-2.44,2.968s1.237,2.152,2.432,2.976c.651.445,1.533,1.055,1.641,1.451a4.881,4.881,0,0,1-.7,2.168c-.61,1.286-1.245,2.613-.618,3.693.635,1.1,2.119,1.22,3.553,1.336a4.806,4.806,0,0,1,2.193.462,4.82,4.82,0,0,1,.453,2.193c.116,1.435.231,2.91,1.327,3.545s2.415,0,3.7-.61a4.879,4.879,0,0,1,2.168-.7c.4.107,1.006.989,1.451,1.632.824,1.2,1.682,2.44,2.976,2.44s2.152-1.237,2.976-2.432c.437-.651,1.047-1.533,1.451-1.64A4.91,4.91,0,0,1,36.212,39.79Zm-6.6-5.012a12.2,12.2,0,1,1,12.2-12.2A12.216,12.216,0,0,1,29.617,34.778Z" fill="#fff"/>
      <path id="Path_2179" data-name="Path 2179" d="M49.153,43.08c-.256.025-.585.05-.857.091-.049.338-.082.775-.107,1.03-.124,1.6-.3,3.776-2.143,4.839a3.6,3.6,0,0,1-1.838.486c-1.6,0-3.047-.926-4.369-1.467-.132.173-.313.429-.569.8,0,.008-.008.008-.008.017L44.4,60.961a1.668,1.668,0,0,0,1.377,1.006c.049,0,.107.008.157.008a1.667,1.667,0,0,0,1.385-.75l2.1-3.174,3.52.956a1.671,1.671,0,0,0,1.97-2.259Z" transform="translate(-5.307 -7.214)" fill="#fff"/>
      <path id="Path_2180" data-name="Path 2180" d="M24.8,48.049c-1.348.579-2.792,1.476-4.361,1.476a3.656,3.656,0,0,1-1.847-.486c-1.83-1.063-2.011-3.232-2.135-4.823-.025-.272-.058-.717-.107-1.055-.272-.041-.6-.074-.841-.091L9.742,56.747a1.654,1.654,0,0,0,.28,1.739,1.675,1.675,0,0,0,1.69.519l3.528-.948,2.094,3.166a1.657,1.657,0,0,0,1.385.75c.05,0,.1-.008.148-.008a1.68,1.68,0,0,0,1.385-1.006l5.136-12.086a.008.008,0,0,1-.008-.008c-.14-.2-.379-.552-.585-.816Z" transform="translate(-0.1 -7.212)" fill="#fff"/>
    </g>
    <g id="counseling" transform="translate(1232.882 661.512)">
      <g id="Group_1220" data-name="Group 1220" transform="translate(0 0.91)">
        <g id="Group_1219" data-name="Group 1219">
          <path id="Path_2182" data-name="Path 2182" d="M119.456,198.994a2.059,2.059,0,0,0-2.059,2.059v3.472a2.059,2.059,0,0,0,4.119,0v-3.472A2.059,2.059,0,0,0,119.456,198.994Z" transform="translate(-85.049 -144.413)" fill="#fff9f9"/>
          <path id="Path_2183" data-name="Path 2183" d="M176.994,198.994a2.059,2.059,0,0,0-2.059,2.059v3.472a2.059,2.059,0,0,0,4.119,0v-3.472A2.06,2.06,0,0,0,176.994,198.994Z" transform="translate(-126.732 -144.413)" fill="#fff9f9"/>
          <path id="Path_2184" data-name="Path 2184" d="M142.281,252.751a1.593,1.593,0,0,1-1.176.511,1.611,1.611,0,0,1-1.216-.555,2.059,2.059,0,1,0-3.11,2.7,5.728,5.728,0,0,0,8.51.156,2.059,2.059,0,0,0-3.008-2.813Z" transform="translate(-98.725 -182.812)" fill="#fff9f9"/>
          <path id="Path_2185" data-name="Path 2185" d="M137.509,162.34H80.4V118a3.575,3.575,0,0,0-3.571-3.571H72.6V98.609A6.309,6.309,0,0,0,73.725,95v-.055A6.31,6.31,0,0,0,72.6,91.342V79.587a30.263,30.263,0,0,0-60.525,0V91.342a6.309,6.309,0,0,0-1.128,3.606V95a6.309,6.309,0,0,0,1.128,3.606v15.818H7.839A3.575,3.575,0,0,0,4.268,118v13.492a2.059,2.059,0,0,0,4.119,0V118.545h67.9v43.8H8.386V140.813a2.059,2.059,0,0,0-4.119,0V162.34h-.7A3.574,3.574,0,0,0,0,165.91v7.082a3.574,3.574,0,0,0,3.57,3.57H137.509a3.574,3.574,0,0,0,3.57-3.57V165.91A3.574,3.574,0,0,0,137.509,162.34ZM16.191,79.587a26.144,26.144,0,0,1,52.288,0V88.7a6.347,6.347,0,0,0-1.1-.1h-.765V85.8a2.081,2.081,0,0,0-2.18-2.056c-13.058.767-20.269-6.9-20.577-7.236a2.22,2.22,0,0,0-1.828-.673,3.085,3.085,0,0,0-1.587,1.048c-.251.243-.512.477-.778.7a25.369,25.369,0,0,1-6.819,4.115,28.712,28.712,0,0,1-12.609,2.041,2.078,2.078,0,0,0-1.6.622,2.6,2.6,0,0,0-.584,1.836v2.4h-.765a6.371,6.371,0,0,0-1.1.1V79.587ZM15.063,95v-.055a2.23,2.23,0,0,1,2.228-2.228h.765v4.51h-.765A2.23,2.23,0,0,1,15.063,95Zm1.128,19.423V101.252a6.347,6.347,0,0,0,1.1.1h.932a24.182,24.182,0,0,0,5.761,13.077Zm38.553,0H29.935a20.124,20.124,0,0,1-7.76-15.848V90.661s0-.005,0-.008V87.916a31.281,31.281,0,0,0,20.16-7.2,31.277,31.277,0,0,0,20.161,7.2V98.551a20.133,20.133,0,0,1-7.752,15.876Zm13.735,0H60.686a24.181,24.181,0,0,0,5.761-13.077h.932a6.371,6.371,0,0,0,1.1-.1v13.174ZM69.607,95a2.23,2.23,0,0,1-2.228,2.228h-.765V92.72h.765a2.23,2.23,0,0,1,2.228,2.228Zm67.354,77.44H4.119v-5.984H136.961Z" transform="translate(0 -35.984)" fill="#fff9f9"/>
          <path id="Path_2186" data-name="Path 2186" d="M134.69,358.337a8.243,8.243,0,1,0-8.243,8.243A8.252,8.252,0,0,0,134.69,358.337Zm-12.366,0a4.124,4.124,0,1,1,4.124,4.124A4.129,4.129,0,0,1,122.324,358.337Z" transform="translate(-85.634 -253.878)" fill="#fff9f9"/>
        </g>
      </g>
    </g>
    <g id="clean_1_" data-name="clean (1)" transform="translate(1373.333 657.762)">
      <g id="Group_1221" data-name="Group 1221" transform="translate(19.365 27.159)">
        <path id="Path_2190" data-name="Path 2190" d="M30.882,43.2a.589.589,0,0,1-.186-.031l-2.276-.758a.588.588,0,0,1,.372-1.116l2.276.758a.588.588,0,0,1-.186,1.147Z" transform="translate(-28.018 -41.267)" fill="#fff"/>
      </g>
      <g id="Group_1222" data-name="Group 1222" transform="translate(14.319 20.596)">
        <path id="Path_2191" data-name="Path 2191" d="M20.789,33.564a.589.589,0,0,1-.558-.4l-.758-2.275a.588.588,0,0,1,1.116-.372l.758,2.275a.588.588,0,0,1-.372.744.567.567,0,0,1-.186.031Z" transform="translate(-19.442 -30.111)" fill="#fff"/>
      </g>
      <g id="Group_1223" data-name="Group 1223" transform="translate(15.079 22.873)">
        <path id="Path_2192" data-name="Path 2192" d="M25.608,39.444a.589.589,0,0,1-.186-.031,7.4,7.4,0,0,1-4.658-4.659.589.589,0,1,1,1.117-.372A6.217,6.217,0,0,0,25.795,38.3a.588.588,0,0,1-.187,1.147Z" transform="translate(-20.733 -33.98)" fill="#fff"/>
      </g>
      <g id="Group_1224" data-name="Group 1224" transform="translate(6.999 27.159)">
        <path id="Path_2193" data-name="Path 2193" d="M7.588,43.2A.588.588,0,0,1,7.4,42.056L9.678,41.3a.588.588,0,1,1,.372,1.116l-2.276.758A.589.589,0,0,1,7.588,43.2Z" transform="translate(-6.999 -41.267)" fill="#fff"/>
      </g>
      <g id="Group_1225" data-name="Group 1225" transform="translate(13.562 20.597)">
        <path id="Path_2194" data-name="Path 2194" d="M18.742,33.564a.589.589,0,0,1-.558-.775l.759-2.275a.588.588,0,1,1,1.116.372L19.3,33.162a.588.588,0,0,1-.558.4Z" transform="translate(-18.154 -30.113)" fill="#fff"/>
      </g>
      <g id="Group_1226" data-name="Group 1226" transform="translate(9.275 22.873)">
        <path id="Path_2195" data-name="Path 2195" d="M11.456,39.444a.588.588,0,0,1-.186-1.147,6.217,6.217,0,0,0,3.914-3.915.589.589,0,1,1,1.117.372,7.4,7.4,0,0,1-4.658,4.659.583.583,0,0,1-.186.031Z" transform="translate(-10.867 -33.981)" fill="#fff"/>
      </g>
      <g id="Group_1227" data-name="Group 1227" transform="translate(6.999 27.917)">
        <path id="Path_2196" data-name="Path 2196" d="M9.864,44.491a.589.589,0,0,1-.186-.031L7.4,43.7a.588.588,0,1,1,.372-1.116l2.276.758a.588.588,0,0,1-.186,1.147Z" transform="translate(-6.999 -42.556)" fill="#fff"/>
      </g>
      <g id="Group_1228" data-name="Group 1228" transform="translate(13.561 32.961)">
        <path id="Path_2197" data-name="Path 2197" d="M19.5,54.583a.589.589,0,0,1-.558-.4L18.183,51.9a.588.588,0,1,1,1.116-.372l.759,2.276a.589.589,0,0,1-.558.775Z" transform="translate(-18.152 -51.129)" fill="#fff"/>
      </g>
      <g id="Group_1229" data-name="Group 1229" transform="translate(9.275 28.676)">
        <path id="Path_2198" data-name="Path 2198" d="M15.743,49.308a.589.589,0,0,1-.558-.4,6.218,6.218,0,0,0-3.914-3.914.588.588,0,0,1,.372-1.116A7.4,7.4,0,0,1,16.3,48.533a.588.588,0,0,1-.372.744.6.6,0,0,1-.186.031Z" transform="translate(-10.868 -43.845)" fill="#fff"/>
      </g>
      <g id="Group_1230" data-name="Group 1230" transform="translate(12.987 7)">
        <path id="Path_2199" data-name="Path 2199" d="M17.765,14.06a.588.588,0,0,1-.588-.588V7.588a.588.588,0,1,1,1.177,0v5.883A.588.588,0,0,1,17.765,14.06Z" transform="translate(-17.177 -7)" fill="#fff"/>
      </g>
      <g id="Group_1231" data-name="Group 1231" transform="translate(10.045 9.941)">
        <path id="Path_2200" data-name="Path 2200" d="M18.648,13.177H12.765a.588.588,0,1,1,0-1.177h5.883a.588.588,0,1,1,0,1.177Z" transform="translate(-12.177 -12)" fill="#fff"/>
      </g>
      <g id="Group_1232" data-name="Group 1232" transform="translate(21.901 13.927)">
        <path id="Path_2201" data-name="Path 2201" d="M32.918,23.716a.588.588,0,0,1-.588-.588V19.362a.588.588,0,0,1,1.177,0v3.765A.588.588,0,0,1,32.918,23.716Z" transform="translate(-32.33 -18.774)" fill="#fff"/>
      </g>
      <g id="Group_1233" data-name="Group 1233" transform="translate(20.019 15.81)">
        <path id="Path_2202" data-name="Path 2202" d="M33.483,23.152H29.718a.588.588,0,0,1,0-1.177h3.765a.588.588,0,1,1,0,1.177Z" transform="translate(-29.13 -21.975)" fill="#fff"/>
      </g>
      <g id="Group_1234" data-name="Group 1234" transform="translate(33.6 20.571)">
        <path id="Path_2203" data-name="Path 2203" d="M54.442,31.793a.586.586,0,0,1-.186-.031l-1.638-.547A.588.588,0,0,1,52.99,30.1l1.638.547a.588.588,0,0,1-.186,1.147Z" transform="translate(-52.215 -30.069)" fill="#fff"/>
      </g>
      <g id="Group_1235" data-name="Group 1235" transform="translate(29.967 15.848)">
        <path id="Path_2204" data-name="Path 2204" d="M47.175,24.855a.589.589,0,0,1-.558-.4l-.546-1.638a.588.588,0,0,1,1.116-.372l.546,1.638a.588.588,0,0,1-.372.744A.568.568,0,0,1,47.175,24.855Z" transform="translate(-46.04 -22.039)" fill="#fff"/>
      </g>
      <g id="Group_1236" data-name="Group 1236" transform="translate(30.513 17.486)">
        <path id="Path_2205" data-name="Path 2205" d="M50.644,29.087a.6.6,0,0,1-.186-.03A5.491,5.491,0,0,1,47,25.6a.588.588,0,0,1,1.116-.372A4.306,4.306,0,0,0,50.83,27.94a.589.589,0,0,1-.186,1.147Z" transform="translate(-46.969 -24.825)" fill="#fff"/>
      </g>
      <g id="Group_1237" data-name="Group 1237" transform="translate(24.696 20.571)">
        <path id="Path_2206" data-name="Path 2206" d="M37.67,31.793a.588.588,0,0,1-.186-1.147l1.638-.547a.588.588,0,1,1,.373,1.116l-1.638.547a.592.592,0,0,1-.186.031Z" transform="translate(-37.081 -30.069)" fill="#fff"/>
      </g>
      <g id="Group_1238" data-name="Group 1238" transform="translate(29.422 15.848)">
        <path id="Path_2207" data-name="Path 2207" d="M45.7,24.855a.589.589,0,0,1-.558-.775l.546-1.638a.588.588,0,0,1,1.116.372l-.546,1.638A.588.588,0,0,1,45.7,24.855Z" transform="translate(-45.113 -22.04)" fill="#fff"/>
      </g>
      <g id="Group_1239" data-name="Group 1239" transform="translate(26.335 17.486)">
        <path id="Path_2208" data-name="Path 2208" d="M40.455,29.087a.589.589,0,0,1-.186-1.147,4.306,4.306,0,0,0,2.714-2.713A.588.588,0,0,1,44.1,25.6a5.492,5.492,0,0,1-3.459,3.457A.582.582,0,0,1,40.455,29.087Z" transform="translate(-39.867 -24.825)" fill="#fff"/>
      </g>
      <g id="Group_1240" data-name="Group 1240" transform="translate(33.599 21.119)">
        <path id="Path_2209" data-name="Path 2209" d="M52.8,32.723a.589.589,0,0,1-.186-1.147l1.638-.546a.589.589,0,0,1,.372,1.117l-1.638.546a.605.605,0,0,1-.186.03Z" transform="translate(-52.214 -31)" fill="#fff"/>
      </g>
      <g id="Group_1241" data-name="Group 1241" transform="translate(29.968 24.75)">
        <path id="Path_2210" data-name="Path 2210" d="M46.629,39.988a.589.589,0,0,1-.558-.775l.546-1.638a.588.588,0,1,1,1.116.372l-.546,1.638a.589.589,0,0,1-.558.4Z" transform="translate(-46.041 -37.173)" fill="#fff"/>
      </g>
      <g id="Group_1242" data-name="Group 1242" transform="translate(30.513 21.665)">
        <path id="Path_2211" data-name="Path 2211" d="M47.557,36.191A.589.589,0,0,1,47,35.416a5.5,5.5,0,0,1,3.458-3.458.588.588,0,0,1,.372,1.116,4.313,4.313,0,0,0-2.714,2.714.59.59,0,0,1-.559.4Z" transform="translate(-46.969 -31.928)" fill="#fff"/>
      </g>
      <g id="Group_1243" data-name="Group 1243" transform="translate(24.696 21.119)">
        <path id="Path_2212" data-name="Path 2212" d="M39.308,32.723a.6.6,0,0,1-.186-.03l-1.638-.546a.589.589,0,0,1,.372-1.117l1.638.546a.589.589,0,0,1-.186,1.147Z" transform="translate(-37.081 -31)" fill="#fff"/>
      </g>
      <g id="Group_1244" data-name="Group 1244" transform="translate(29.421 24.75)">
        <path id="Path_2213" data-name="Path 2213" d="M46.247,39.988a.589.589,0,0,1-.558-.4l-.546-1.638a.588.588,0,1,1,1.116-.372l.546,1.638a.589.589,0,0,1-.558.775Z" transform="translate(-45.112 -37.172)" fill="#fff"/>
      </g>
      <g id="Group_1245" data-name="Group 1245" transform="translate(26.335 21.665)">
        <path id="Path_2214" data-name="Path 2214" d="M43.541,36.191a.589.589,0,0,1-.558-.4,4.313,4.313,0,0,0-2.714-2.714.588.588,0,1,1,.372-1.116A5.493,5.493,0,0,1,44.1,35.416a.589.589,0,0,1-.558.775Z" transform="translate(-39.866 -31.928)" fill="#fff"/>
      </g>
      <g id="Group_1246" data-name="Group 1246" transform="translate(28.507 29.98)">
        <path id="Path_2215" data-name="Path 2215" d="M44.147,51a.588.588,0,0,1-.588-.588V46.649a.588.588,0,1,1,1.177,0v3.764A.588.588,0,0,1,44.147,51Z" transform="translate(-43.559 -46.061)" fill="#fff"/>
      </g>
      <g id="Group_1247" data-name="Group 1247" transform="translate(26.625 31.861)">
        <path id="Path_2216" data-name="Path 2216" d="M44.712,50.437H40.947a.588.588,0,0,1,0-1.177h3.765a.588.588,0,0,1,0,1.177Z" transform="translate(-40.359 -49.26)" fill="#fff"/>
      </g>
      <g id="Group_1248" data-name="Group 1248" transform="translate(17.342 29.768)">
        <path id="Path_2217" data-name="Path 2217" d="M25.168,46.871a.6.6,0,0,1-.418-.171.6.6,0,0,1,0-.835.608.608,0,0,1,.83,0,.6.6,0,0,1,.176.418.583.583,0,0,1-.588.588Z" transform="translate(-24.58 -45.702)" fill="#fff"/>
      </g>
      <g id="Group_1249" data-name="Group 1249" transform="translate(19.408 27.917)">
        <path id="Path_2218" data-name="Path 2218" d="M28.68,44.476a.589.589,0,0,1-.186-1.147l2.232-.744A.589.589,0,0,1,31.1,43.7l-2.232.744A.588.588,0,0,1,28.68,44.476Z" transform="translate(-28.092 -42.555)" fill="#fff"/>
      </g>
      <g id="Group_1250" data-name="Group 1250" transform="translate(14.319 31.498)">
        <path id="Path_2219" data-name="Path 2219" d="M20.031,53.559a.59.59,0,0,1-.558-.775l.758-2.276a7.4,7.4,0,0,1,.752-1.591.588.588,0,1,1,1,.627,6.191,6.191,0,0,0-.632,1.337l-.758,2.276a.588.588,0,0,1-.558.4Z" transform="translate(-19.442 -48.642)" fill="#fff"/>
      </g>
    </g>
    <g id="clean_1_2" data-name="clean (1)" transform="translate(1342.456 628.293)">
      <g id="Group_1221-2" data-name="Group 1221" transform="translate(13.598 20.159)">
        <path id="Path_2190-2" data-name="Path 2190" d="M28.607,43.2a.589.589,0,0,0,.186-.031l2.276-.758A.588.588,0,1,0,30.7,41.3l-2.276.758a.588.588,0,0,0,.186,1.147Z" transform="translate(-28.018 -41.267)" fill="#fff"/>
      </g>
      <g id="Group_1222-2" data-name="Group 1222" transform="translate(20.161 13.596)">
        <path id="Path_2191-2" data-name="Path 2191" d="M20.03,33.564a.589.589,0,0,0,.558-.4l.758-2.275a.588.588,0,0,0-1.116-.372l-.758,2.275a.588.588,0,0,0,.372.744.567.567,0,0,0,.186.031Z" transform="translate(-19.442 -30.111)" fill="#fff"/>
      </g>
      <g id="Group_1223-2" data-name="Group 1223" transform="translate(15.872 15.873)">
        <path id="Path_2192-2" data-name="Path 2192" d="M21.323,39.444a.589.589,0,0,0,.186-.031,7.4,7.4,0,0,0,4.658-4.659.589.589,0,1,0-1.117-.372A6.217,6.217,0,0,1,21.136,38.3a.588.588,0,0,0,.187,1.147Z" transform="translate(-20.733 -33.98)" fill="#fff"/>
      </g>
      <g id="Group_1224-2" data-name="Group 1224" transform="translate(25.963 20.159)">
        <path id="Path_2193-2" data-name="Path 2193" d="M9.864,43.2a.588.588,0,0,0,.186-1.147L7.774,41.3A.588.588,0,1,0,7.4,42.414l2.276.758A.589.589,0,0,0,9.864,43.2Z" transform="translate(-6.999 -41.267)" fill="#fff"/>
      </g>
      <g id="Group_1225-2" data-name="Group 1225" transform="translate(20.918 13.597)">
        <path id="Path_2194-2" data-name="Path 2194" d="M19.5,33.564a.589.589,0,0,0,.558-.775L19.3,30.515a.588.588,0,0,0-1.116.372l.759,2.275a.588.588,0,0,0,.558.4Z" transform="translate(-18.154 -30.113)" fill="#fff"/>
      </g>
      <g id="Group_1226-2" data-name="Group 1226" transform="translate(21.677 15.873)">
        <path id="Path_2195-2" data-name="Path 2195" d="M15.742,39.444a.588.588,0,0,0,.186-1.147,6.217,6.217,0,0,1-3.914-3.915.589.589,0,1,0-1.117.372,7.4,7.4,0,0,0,4.658,4.659.583.583,0,0,0,.186.031Z" transform="translate(-10.867 -33.981)" fill="#fff"/>
      </g>
      <g id="Group_1227-2" data-name="Group 1227" transform="translate(25.963 20.918)">
        <path id="Path_2196-2" data-name="Path 2196" d="M7.588,44.491a.589.589,0,0,0,.186-.031l2.276-.758a.588.588,0,1,0-.372-1.116L7.4,43.345a.588.588,0,0,0,.186,1.147Z" transform="translate(-6.999 -42.556)" fill="#fff"/>
      </g>
      <g id="Group_1228-2" data-name="Group 1228" transform="translate(20.919 25.961)">
        <path id="Path_2197-2" data-name="Path 2197" d="M18.74,54.583a.589.589,0,0,0,.558-.4l.759-2.276a.588.588,0,1,0-1.116-.372l-.759,2.276a.589.589,0,0,0,.558.775Z" transform="translate(-18.152 -51.129)" fill="#fff"/>
      </g>
      <g id="Group_1229-2" data-name="Group 1229" transform="translate(21.677 21.676)">
        <path id="Path_2198-2" data-name="Path 2198" d="M11.457,49.308a.589.589,0,0,0,.558-.4,6.218,6.218,0,0,1,3.914-3.914.588.588,0,1,0-.372-1.116A7.4,7.4,0,0,0,10.9,48.533a.588.588,0,0,0,.372.744.6.6,0,0,0,.186.031Z" transform="translate(-10.868 -43.845)" fill="#fff"/>
      </g>
      <g id="Group_1230-2" data-name="Group 1230" transform="translate(22.252 0)">
        <path id="Path_2199-2" data-name="Path 2199" d="M17.765,14.06a.588.588,0,0,0,.588-.588V7.588a.588.588,0,0,0-1.177,0v5.883A.588.588,0,0,0,17.765,14.06Z" transform="translate(-17.177 -7)" fill="#fff"/>
      </g>
      <g id="Group_1231-2" data-name="Group 1231" transform="translate(19.31 2.942)">
        <path id="Path_2200-2" data-name="Path 2200" d="M12.765,13.177h5.883a.588.588,0,1,0,0-1.177H12.765a.588.588,0,1,0,0,1.177Z" transform="translate(-12.177 -12)" fill="#fff"/>
      </g>
      <g id="Group_1232-2" data-name="Group 1232" transform="translate(13.337 6.927)">
        <path id="Path_2201-2" data-name="Path 2201" d="M32.918,23.716a.588.588,0,0,0,.588-.588V19.362a.588.588,0,0,0-1.177,0v3.765A.588.588,0,0,0,32.918,23.716Z" transform="translate(-32.33 -18.774)" fill="#fff"/>
      </g>
      <g id="Group_1233-2" data-name="Group 1233" transform="translate(11.455 8.81)">
        <path id="Path_2202-2" data-name="Path 2202" d="M29.718,23.152h3.765a.588.588,0,0,0,0-1.177H29.718a.588.588,0,1,0,0,1.177Z" transform="translate(-29.13 -21.975)" fill="#fff"/>
      </g>
      <g id="Group_1234-2" data-name="Group 1234" transform="translate(0 13.571)">
        <path id="Path_2203-2" data-name="Path 2203" d="M52.8,31.793a.586.586,0,0,0,.186-.031l1.638-.547a.588.588,0,1,0-.372-1.116l-1.638.547a.588.588,0,0,0,.186,1.147Z" transform="translate(-52.215 -30.069)" fill="#fff"/>
      </g>
      <g id="Group_1235-2" data-name="Group 1235" transform="translate(4.725 8.848)">
        <path id="Path_2204-2" data-name="Path 2204" d="M46.628,24.855a.589.589,0,0,0,.558-.4l.546-1.638a.588.588,0,0,0-1.116-.372l-.546,1.638a.588.588,0,0,0,.372.744A.568.568,0,0,0,46.628,24.855Z" transform="translate(-46.04 -22.039)" fill="#fff"/>
      </g>
      <g id="Group_1236-2" data-name="Group 1236" transform="translate(1.639 10.486)">
        <path id="Path_2205-2" data-name="Path 2205" d="M47.558,29.087a.6.6,0,0,0,.186-.03A5.491,5.491,0,0,0,51.2,25.6a.588.588,0,0,0-1.116-.372,4.306,4.306,0,0,1-2.714,2.713.589.589,0,0,0,.186,1.147Z" transform="translate(-46.969 -24.825)" fill="#fff"/>
      </g>
      <g id="Group_1237-2" data-name="Group 1237" transform="translate(8.903 13.571)">
        <path id="Path_2206-2" data-name="Path 2206" d="M39.308,31.793a.588.588,0,0,0,.186-1.147L37.856,30.1a.588.588,0,1,0-.373,1.116l1.638.547a.592.592,0,0,0,.186.031Z" transform="translate(-37.081 -30.069)" fill="#fff"/>
      </g>
      <g id="Group_1238-2" data-name="Group 1238" transform="translate(5.271 8.848)">
        <path id="Path_2207-2" data-name="Path 2207" d="M46.248,24.855a.589.589,0,0,0,.558-.775l-.546-1.638a.588.588,0,0,0-1.116.372l.546,1.638A.588.588,0,0,0,46.248,24.855Z" transform="translate(-45.113 -22.04)" fill="#fff"/>
      </g>
      <g id="Group_1239-2" data-name="Group 1239" transform="translate(5.817 10.486)">
        <path id="Path_2208-2" data-name="Path 2208" d="M43.541,29.087a.589.589,0,0,0,.186-1.147,4.306,4.306,0,0,1-2.714-2.713A.588.588,0,0,0,39.9,25.6a5.492,5.492,0,0,0,3.459,3.457A.582.582,0,0,0,43.541,29.087Z" transform="translate(-39.867 -24.825)" fill="#fff"/>
      </g>
      <g id="Group_1240-2" data-name="Group 1240" transform="translate(0 14.119)">
        <path id="Path_2209-2" data-name="Path 2209" d="M54.441,32.723a.589.589,0,0,0,.186-1.147l-1.638-.546a.589.589,0,0,0-.372,1.117l1.638.546a.605.605,0,0,0,.186.03Z" transform="translate(-52.214 -31)" fill="#fff"/>
      </g>
      <g id="Group_1241-2" data-name="Group 1241" transform="translate(4.725 17.751)">
        <path id="Path_2210-2" data-name="Path 2210" d="M47.176,39.988a.589.589,0,0,0,.558-.775l-.546-1.638a.588.588,0,0,0-1.116.372l.546,1.638a.589.589,0,0,0,.558.4Z" transform="translate(-46.041 -37.173)" fill="#fff"/>
      </g>
      <g id="Group_1242-2" data-name="Group 1242" transform="translate(1.638 14.665)">
        <path id="Path_2211-2" data-name="Path 2211" d="M50.644,36.191a.589.589,0,0,0,.558-.775,5.5,5.5,0,0,0-3.458-3.458.588.588,0,0,0-.372,1.116,4.313,4.313,0,0,1,2.714,2.714.59.59,0,0,0,.559.4Z" transform="translate(-46.969 -31.928)" fill="#fff"/>
      </g>
      <g id="Group_1243-2" data-name="Group 1243" transform="translate(8.903 14.119)">
        <path id="Path_2212-2" data-name="Path 2212" d="M37.67,32.723a.6.6,0,0,0,.186-.03l1.638-.546a.589.589,0,0,0-.372-1.117l-1.638.546a.589.589,0,0,0,.186,1.147Z" transform="translate(-37.081 -31)" fill="#fff"/>
      </g>
      <g id="Group_1244-2" data-name="Group 1244" transform="translate(5.271 17.75)">
        <path id="Path_2213-2" data-name="Path 2213" d="M45.7,39.988a.589.589,0,0,0,.558-.4l.546-1.638a.588.588,0,1,0-1.116-.372l-.546,1.638a.589.589,0,0,0,.558.775Z" transform="translate(-45.112 -37.172)" fill="#fff"/>
      </g>
      <g id="Group_1245-2" data-name="Group 1245" transform="translate(5.817 14.665)">
        <path id="Path_2214-2" data-name="Path 2214" d="M40.454,36.191a.589.589,0,0,0,.558-.4,4.313,4.313,0,0,1,2.714-2.714.588.588,0,1,0-.372-1.116A5.493,5.493,0,0,0,39.9,35.416a.589.589,0,0,0,.558.775Z" transform="translate(-39.866 -31.928)" fill="#fff"/>
      </g>
      <g id="Group_1246-2" data-name="Group 1246" transform="translate(6.731 22.98)">
        <path id="Path_2215-2" data-name="Path 2215" d="M44.147,51a.588.588,0,0,0,.588-.588V46.649a.588.588,0,1,0-1.177,0v3.764A.588.588,0,0,0,44.147,51Z" transform="translate(-43.559 -46.061)" fill="#fff"/>
      </g>
      <g id="Group_1247-2" data-name="Group 1247" transform="translate(4.849 24.862)">
        <path id="Path_2216-2" data-name="Path 2216" d="M40.947,50.437h3.765a.588.588,0,1,0,0-1.177H40.947a.588.588,0,1,0,0,1.177Z" transform="translate(-40.359 -49.26)" fill="#fff"/>
      </g>
      <g id="Group_1248-2" data-name="Group 1248" transform="translate(17.897 22.768)">
        <path id="Path_2217-2" data-name="Path 2217" d="M25.168,46.871a.6.6,0,0,0,.418-.171.6.6,0,0,0,0-.835.608.608,0,0,0-.83,0,.6.6,0,0,0-.176.418.583.583,0,0,0,.588.588Z" transform="translate(-24.58 -45.702)" fill="#fff"/>
      </g>
      <g id="Group_1249-2" data-name="Group 1249" transform="translate(13.598 20.917)">
        <path id="Path_2218-2" data-name="Path 2218" d="M30.912,44.476a.589.589,0,0,0,.186-1.147l-2.232-.744a.589.589,0,0,0-.372,1.117l2.232.744A.588.588,0,0,0,30.912,44.476Z" transform="translate(-28.092 -42.555)" fill="#fff"/>
      </g>
      <g id="Group_1250-2" data-name="Group 1250" transform="translate(19.469 24.498)">
        <path id="Path_2219-2" data-name="Path 2219" d="M21.481,53.559a.59.59,0,0,0,.558-.775l-.758-2.276a7.4,7.4,0,0,0-.752-1.591.588.588,0,1,0-1,.627,6.191,6.191,0,0,1,.632,1.337l.758,2.276a.588.588,0,0,0,.558.4Z" transform="translate(-19.442 -48.642)" fill="#fff"/>
      </g>
    </g>
    <g id="clean_1_3" data-name="clean (1)" transform="translate(1294.58 646.347)">
      <g id="Group_1221-3" data-name="Group 1221" transform="translate(13.598 20.159)">
        <path id="Path_2190-3" data-name="Path 2190" d="M28.607,43.2a.589.589,0,0,0,.186-.031l2.276-.758A.588.588,0,1,0,30.7,41.3l-2.276.758a.588.588,0,0,0,.186,1.147Z" transform="translate(-28.018 -41.267)" fill="#fff"/>
      </g>
      <g id="Group_1222-3" data-name="Group 1222" transform="translate(20.161 13.596)">
        <path id="Path_2191-3" data-name="Path 2191" d="M20.03,33.564a.589.589,0,0,0,.558-.4l.758-2.275a.588.588,0,0,0-1.116-.372l-.758,2.275a.588.588,0,0,0,.372.744.567.567,0,0,0,.186.031Z" transform="translate(-19.442 -30.111)" fill="#fff"/>
      </g>
      <g id="Group_1223-3" data-name="Group 1223" transform="translate(15.872 15.873)">
        <path id="Path_2192-3" data-name="Path 2192" d="M21.323,39.444a.589.589,0,0,0,.186-.031,7.4,7.4,0,0,0,4.658-4.659.589.589,0,1,0-1.117-.372A6.217,6.217,0,0,1,21.136,38.3a.588.588,0,0,0,.187,1.147Z" transform="translate(-20.733 -33.98)" fill="#fff"/>
      </g>
      <g id="Group_1224-3" data-name="Group 1224" transform="translate(25.963 20.159)">
        <path id="Path_2193-3" data-name="Path 2193" d="M9.864,43.2a.588.588,0,0,0,.186-1.147L7.774,41.3A.588.588,0,1,0,7.4,42.414l2.276.758A.589.589,0,0,0,9.864,43.2Z" transform="translate(-6.999 -41.267)" fill="#fff"/>
      </g>
      <g id="Group_1225-3" data-name="Group 1225" transform="translate(20.918 13.597)">
        <path id="Path_2194-3" data-name="Path 2194" d="M19.5,33.564a.589.589,0,0,0,.558-.775L19.3,30.515a.588.588,0,0,0-1.116.372l.759,2.275a.588.588,0,0,0,.558.4Z" transform="translate(-18.154 -30.113)" fill="#fff"/>
      </g>
      <g id="Group_1226-3" data-name="Group 1226" transform="translate(21.677 15.873)">
        <path id="Path_2195-3" data-name="Path 2195" d="M15.742,39.444a.588.588,0,0,0,.186-1.147,6.217,6.217,0,0,1-3.914-3.915.589.589,0,1,0-1.117.372,7.4,7.4,0,0,0,4.658,4.659.583.583,0,0,0,.186.031Z" transform="translate(-10.867 -33.981)" fill="#fff"/>
      </g>
      <g id="Group_1227-3" data-name="Group 1227" transform="translate(25.963 20.918)">
        <path id="Path_2196-3" data-name="Path 2196" d="M7.588,44.491a.589.589,0,0,0,.186-.031l2.276-.758a.588.588,0,1,0-.372-1.116L7.4,43.345a.588.588,0,0,0,.186,1.147Z" transform="translate(-6.999 -42.556)" fill="#fff"/>
      </g>
      <g id="Group_1228-3" data-name="Group 1228" transform="translate(20.919 25.961)">
        <path id="Path_2197-3" data-name="Path 2197" d="M18.74,54.583a.589.589,0,0,0,.558-.4l.759-2.276a.588.588,0,1,0-1.116-.372l-.759,2.276a.589.589,0,0,0,.558.775Z" transform="translate(-18.152 -51.129)" fill="#fff"/>
      </g>
      <g id="Group_1229-3" data-name="Group 1229" transform="translate(21.677 21.676)">
        <path id="Path_2198-3" data-name="Path 2198" d="M11.457,49.308a.589.589,0,0,0,.558-.4,6.218,6.218,0,0,1,3.914-3.914.588.588,0,1,0-.372-1.116A7.4,7.4,0,0,0,10.9,48.533a.588.588,0,0,0,.372.744.6.6,0,0,0,.186.031Z" transform="translate(-10.868 -43.845)" fill="#fff"/>
      </g>
      <g id="Group_1230-3" data-name="Group 1230" transform="translate(22.252 0)">
        <path id="Path_2199-3" data-name="Path 2199" d="M17.765,14.06a.588.588,0,0,0,.588-.588V7.588a.588.588,0,0,0-1.177,0v5.883A.588.588,0,0,0,17.765,14.06Z" transform="translate(-17.177 -7)" fill="#fff"/>
      </g>
      <g id="Group_1231-3" data-name="Group 1231" transform="translate(19.31 2.942)">
        <path id="Path_2200-3" data-name="Path 2200" d="M12.765,13.177h5.883a.588.588,0,1,0,0-1.177H12.765a.588.588,0,1,0,0,1.177Z" transform="translate(-12.177 -12)" fill="#fff"/>
      </g>
      <g id="Group_1232-3" data-name="Group 1232" transform="translate(13.337 6.927)">
        <path id="Path_2201-3" data-name="Path 2201" d="M32.918,23.716a.588.588,0,0,0,.588-.588V19.362a.588.588,0,0,0-1.177,0v3.765A.588.588,0,0,0,32.918,23.716Z" transform="translate(-32.33 -18.774)" fill="#fff"/>
      </g>
      <g id="Group_1233-3" data-name="Group 1233" transform="translate(11.455 8.81)">
        <path id="Path_2202-3" data-name="Path 2202" d="M29.718,23.152h3.765a.588.588,0,0,0,0-1.177H29.718a.588.588,0,1,0,0,1.177Z" transform="translate(-29.13 -21.975)" fill="#fff"/>
      </g>
      <g id="Group_1234-3" data-name="Group 1234" transform="translate(0 13.571)">
        <path id="Path_2203-3" data-name="Path 2203" d="M52.8,31.793a.586.586,0,0,0,.186-.031l1.638-.547a.588.588,0,1,0-.372-1.116l-1.638.547a.588.588,0,0,0,.186,1.147Z" transform="translate(-52.215 -30.069)" fill="#fff"/>
      </g>
      <g id="Group_1235-3" data-name="Group 1235" transform="translate(4.725 8.848)">
        <path id="Path_2204-3" data-name="Path 2204" d="M46.628,24.855a.589.589,0,0,0,.558-.4l.546-1.638a.588.588,0,0,0-1.116-.372l-.546,1.638a.588.588,0,0,0,.372.744A.568.568,0,0,0,46.628,24.855Z" transform="translate(-46.04 -22.039)" fill="#fff"/>
      </g>
      <g id="Group_1236-3" data-name="Group 1236" transform="translate(1.639 10.486)">
        <path id="Path_2205-3" data-name="Path 2205" d="M47.558,29.087a.6.6,0,0,0,.186-.03A5.491,5.491,0,0,0,51.2,25.6a.588.588,0,0,0-1.116-.372,4.306,4.306,0,0,1-2.714,2.713.589.589,0,0,0,.186,1.147Z" transform="translate(-46.969 -24.825)" fill="#fff"/>
      </g>
      <g id="Group_1237-3" data-name="Group 1237" transform="translate(8.903 13.571)">
        <path id="Path_2206-3" data-name="Path 2206" d="M39.308,31.793a.588.588,0,0,0,.186-1.147L37.856,30.1a.588.588,0,1,0-.373,1.116l1.638.547a.592.592,0,0,0,.186.031Z" transform="translate(-37.081 -30.069)" fill="#fff"/>
      </g>
      <g id="Group_1238-3" data-name="Group 1238" transform="translate(5.271 8.848)">
        <path id="Path_2207-3" data-name="Path 2207" d="M46.248,24.855a.589.589,0,0,0,.558-.775l-.546-1.638a.588.588,0,0,0-1.116.372l.546,1.638A.588.588,0,0,0,46.248,24.855Z" transform="translate(-45.113 -22.04)" fill="#fff"/>
      </g>
      <g id="Group_1239-3" data-name="Group 1239" transform="translate(5.817 10.486)">
        <path id="Path_2208-3" data-name="Path 2208" d="M43.541,29.087a.589.589,0,0,0,.186-1.147,4.306,4.306,0,0,1-2.714-2.713A.588.588,0,0,0,39.9,25.6a5.492,5.492,0,0,0,3.459,3.457A.582.582,0,0,0,43.541,29.087Z" transform="translate(-39.867 -24.825)" fill="#fff"/>
      </g>
      <g id="Group_1240-3" data-name="Group 1240" transform="translate(0 14.119)">
        <path id="Path_2209-3" data-name="Path 2209" d="M54.441,32.723a.589.589,0,0,0,.186-1.147l-1.638-.546a.589.589,0,0,0-.372,1.117l1.638.546a.605.605,0,0,0,.186.03Z" transform="translate(-52.214 -31)" fill="#fff"/>
      </g>
      <g id="Group_1241-3" data-name="Group 1241" transform="translate(4.725 17.751)">
        <path id="Path_2210-3" data-name="Path 2210" d="M47.176,39.988a.589.589,0,0,0,.558-.775l-.546-1.638a.588.588,0,0,0-1.116.372l.546,1.638a.589.589,0,0,0,.558.4Z" transform="translate(-46.041 -37.173)" fill="#fff"/>
      </g>
      <g id="Group_1242-3" data-name="Group 1242" transform="translate(1.638 14.665)">
        <path id="Path_2211-3" data-name="Path 2211" d="M50.644,36.191a.589.589,0,0,0,.558-.775,5.5,5.5,0,0,0-3.458-3.458.588.588,0,0,0-.372,1.116,4.313,4.313,0,0,1,2.714,2.714.59.59,0,0,0,.559.4Z" transform="translate(-46.969 -31.928)" fill="#fff"/>
      </g>
      <g id="Group_1243-3" data-name="Group 1243" transform="translate(8.903 14.119)">
        <path id="Path_2212-3" data-name="Path 2212" d="M37.67,32.723a.6.6,0,0,0,.186-.03l1.638-.546a.589.589,0,0,0-.372-1.117l-1.638.546a.589.589,0,0,0,.186,1.147Z" transform="translate(-37.081 -31)" fill="#fff"/>
      </g>
      <g id="Group_1244-3" data-name="Group 1244" transform="translate(5.271 17.75)">
        <path id="Path_2213-3" data-name="Path 2213" d="M45.7,39.988a.589.589,0,0,0,.558-.4l.546-1.638a.588.588,0,1,0-1.116-.372l-.546,1.638a.589.589,0,0,0,.558.775Z" transform="translate(-45.112 -37.172)" fill="#fff"/>
      </g>
      <g id="Group_1245-3" data-name="Group 1245" transform="translate(5.817 14.665)">
        <path id="Path_2214-3" data-name="Path 2214" d="M40.454,36.191a.589.589,0,0,0,.558-.4,4.313,4.313,0,0,1,2.714-2.714.588.588,0,1,0-.372-1.116A5.493,5.493,0,0,0,39.9,35.416a.589.589,0,0,0,.558.775Z" transform="translate(-39.866 -31.928)" fill="#fff"/>
      </g>
      <g id="Group_1246-3" data-name="Group 1246" transform="translate(6.731 22.98)">
        <path id="Path_2215-3" data-name="Path 2215" d="M44.147,51a.588.588,0,0,0,.588-.588V46.649a.588.588,0,1,0-1.177,0v3.764A.588.588,0,0,0,44.147,51Z" transform="translate(-43.559 -46.061)" fill="#fff"/>
      </g>
      <g id="Group_1247-3" data-name="Group 1247" transform="translate(4.849 24.862)">
        <path id="Path_2216-3" data-name="Path 2216" d="M40.947,50.437h3.765a.588.588,0,1,0,0-1.177H40.947a.588.588,0,1,0,0,1.177Z" transform="translate(-40.359 -49.26)" fill="#fff"/>
      </g>
      <g id="Group_1248-3" data-name="Group 1248" transform="translate(17.897 22.768)">
        <path id="Path_2217-3" data-name="Path 2217" d="M25.168,46.871a.6.6,0,0,0,.418-.171.6.6,0,0,0,0-.835.608.608,0,0,0-.83,0,.6.6,0,0,0-.176.418.583.583,0,0,0,.588.588Z" transform="translate(-24.58 -45.702)" fill="#fff"/>
      </g>
      <g id="Group_1249-3" data-name="Group 1249" transform="translate(13.598 20.917)">
        <path id="Path_2218-3" data-name="Path 2218" d="M30.912,44.476a.589.589,0,0,0,.186-1.147l-2.232-.744a.589.589,0,0,0-.372,1.117l2.232.744A.588.588,0,0,0,30.912,44.476Z" transform="translate(-28.092 -42.555)" fill="#fff"/>
      </g>
      <g id="Group_1250-3" data-name="Group 1250" transform="translate(19.469 24.498)">
        <path id="Path_2219-3" data-name="Path 2219" d="M21.481,53.559a.59.59,0,0,0,.558-.775l-.758-2.276a7.4,7.4,0,0,0-.752-1.591.588.588,0,1,0-1,.627,6.191,6.191,0,0,1,.632,1.337l.758,2.276a.588.588,0,0,0,.558.4Z" transform="translate(-19.442 -48.642)" fill="#fff"/>
      </g>
    </g>
    <g id="hospital-medical-signal-of-a-cross-in-a-circle" transform="translate(1463.331 658.055)">
      <g id="Group_1252" data-name="Group 1252" transform="translate(-82.999 61)">
        <path id="Path_2220" data-name="Path 2220" d="M25.71,0A25.71,25.71,0,1,0,51.417,25.709,25.737,25.737,0,0,0,25.71,0Zm0,47.326A21.618,21.618,0,1,1,47.326,25.707,21.641,21.641,0,0,1,25.71,47.326Z" transform="translate(-0.001)" fill="#fff"/>
        <path id="Path_2221" data-name="Path 2221" d="M27.653,16.6V8.334A2.574,2.574,0,0,0,25.078,5.76H19.509a2.573,2.573,0,0,0-2.573,2.574V16.6H8.672A2.573,2.573,0,0,0,6.1,19.17v5.687a2.573,2.573,0,0,0,2.573,2.574h8.263v8.26a2.573,2.573,0,0,0,2.573,2.574h5.57a2.574,2.574,0,0,0,2.573-2.574v-8.26h8.261a2.575,2.575,0,0,0,2.574-2.574V19.17A2.574,2.574,0,0,0,35.912,16.6Z" transform="translate(3.901 3.685)" fill="#fff"/>
      </g>
    </g>
    <g id="old-man" transform="translate(1320.996 736.063)">
      <path id="Path_2222" data-name="Path 2222" d="M1.12,28.01a4.4,4.4,0,0,1,.166-6.034L12.068,11.193a5.957,5.957,0,1,1,7.277-1.3,11.256,11.256,0,0,1,6.586,8.29l7.938-2.165,2.608-4.564A5.957,5.957,0,1,1,43.193,9.9a11.239,11.239,0,0,1,6.771,10.3V33.863A1.464,1.464,0,0,1,48.5,35.327H47.373l2.44,9.108a4.391,4.391,0,0,1-3.105,5.378,4.412,4.412,0,0,1-1.144.152,4.4,4.4,0,0,1-4.235-3.257l-.69-2.574-.69,2.575a4.391,4.391,0,1,1-8.483-2.273l2.884-10.764V24.993L26.9,27.024a4.4,4.4,0,0,1-.791.138v6.7a1.464,1.464,0,0,1-1.464,1.464H23.184V48.5a1.464,1.464,0,0,1-1.464,1.464H14.889a1.464,1.464,0,0,1-1.451-1.27L11.495,34.118,9.689,25.992,7.667,28.014a4.373,4.373,0,0,1,1.116,2.921v.976a1.464,1.464,0,1,1-2.928,0v-.976a1.464,1.464,0,1,0-2.928,0V48.5A1.464,1.464,0,0,1,0,48.5V30.935a4.373,4.373,0,0,1,1.12-2.926ZM17.915,5.953a3.025,3.025,0,1,0-3.025,3.025A3.029,3.029,0,0,0,17.915,5.953Zm23.853,0a3.025,3.025,0,1,0-3.025,3.025A3.029,3.029,0,0,0,41.767,5.953Zm2.39,40a1.464,1.464,0,0,0,2.828-.758l-2.643-9.866H43l-.845,3.152Zm-9.717.354a1.464,1.464,0,0,0,2.682-.353l2.847-10.625H36.938l-2.644,9.867A1.455,1.455,0,0,0,34.441,46.3Zm3.242-25.256a2.446,2.446,0,0,0,1.524-1.23l1.164-2.244a1.464,1.464,0,0,1,2.6,1.348l-1.164,2.244a5.382,5.382,0,0,1-3.352,2.707l-1.175.32v8.2h9.759V20.2a8.307,8.307,0,0,0-7.469-8.254L36.11,18a1.459,1.459,0,0,1-.886.686l-9.862,2.69a1.464,1.464,0,0,0,.77,2.824ZM16.171,47.037h4.086V35.327H14.61ZM14.112,32.4h9.072V26.35a4.391,4.391,0,0,1-.055-7.09,8.335,8.335,0,0,0-7.654-7.333L3.356,24.045a1.464,1.464,0,1,0,2.07,2.07l10.38-10.38a1.464,1.464,0,1,1,2.07,2.07l-5.733,5.733Z" transform="translate(0 0)" fill="#fff9f9"/>
    </g>
  </g>
</svg>
