<svg xmlns="http://www.w3.org/2000/svg" width="214.58" height="159" viewBox="0 0 214.58 159">
  <g id="page3-order-1" transform="translate(-485.42 -632)">
    <g id="layer1" transform="translate(484.361 378.342)">
      <path id="path858" d="M106.058,272.658a35,35,0,1,0,35,35A35.035,35.035,0,0,0,106.058,272.658Zm0,6.994a2.333,2.333,0,0,1,2.337,2.334v23.338h11.658a2.335,2.335,0,0,1,0,4.67h-14a2.334,2.334,0,0,1-2.334-2.337V281.986a2.333,2.333,0,0,1,2.334-2.334ZM82.72,305.324h4.667a2.335,2.335,0,1,1,0,4.67H82.72a2.335,2.335,0,0,1,0-4.67Zm-35,9.344a18.652,18.652,0,0,0-16.161,27.99H8.059a7.032,7.032,0,0,0-7,6.994v46.671a7.038,7.038,0,0,0,7,7h35v4.667H3.395a2.333,2.333,0,1,0,0,4.667h135.33a2.333,2.333,0,1,0,0-4.667h-91v-4.667h35a7.04,7.04,0,0,0,7-7V349.652a7.035,7.035,0,0,0-7-6.994H63.89a18.652,18.652,0,0,0-16.17-27.99Zm58.338,9.319a2.333,2.333,0,0,1,2.337,2.337v4.667a2.335,2.335,0,0,1-4.67,0v-4.667A2.333,2.333,0,0,1,106.058,323.987ZM42.99,330.214a13.707,13.707,0,0,0,6.712,4.9,39.76,39.76,0,0,0,11.519,1.976,13.953,13.953,0,0,1-3.067,5.571H37.295a13.938,13.938,0,0,1-3.542-8.243,29.594,29.594,0,0,0,4.881-1.274c1.525-.53,3.329-1,4.356-2.927ZM8.062,347.328H82.72a2.271,2.271,0,0,1,2.334,2.324v46.671a2.279,2.279,0,0,1-2.334,2.333H8.062a2.279,2.279,0,0,1-2.334-2.333V349.652a2.271,2.271,0,0,1,2.334-2.324ZM45.215,365.99a7.082,7.082,0,1,0,.18,0c-.06,0-.121,0-.18,0Zm51.509,14a2.329,2.329,0,1,0,0,4.658h42a2.329,2.329,0,1,0,0-4.658Zm44.334,11.658a2.333,2.333,0,0,0-2.334-2.334h-42a2.333,2.333,0,0,0-2.334,2.334v9.337a2.333,2.333,0,0,0,2.334,2.333h42a2.333,2.333,0,0,0,2.334-2.333Z" transform="translate(0 0)" fill="#fff"/>
    </g>
    <text id="_24_" data-name="24ｈ" transform="translate(523.42 673)" fill="#fff" font-size="41" font-family="YuGothic-Bold, Yu Gothic" font-weight="700" letter-spacing="-0.13em"><tspan x="-33.838" y="0">2</tspan><tspan y="0">4</tspan><tspan y="0" font-size="26">ｈ</tspan></text>
    <g id="smartphone" transform="translate(608.25 707.137)">
      <path id="Path_2130" data-name="Path 2130" d="M81.095,87.262a1.212,1.212,0,0,0,1.592-.072,1.126,1.126,0,1,0-1.592.072Z" transform="translate(-50.521 -72.491)" fill="#fff"/>
      <path id="Path_2131" data-name="Path 2131" d="M55.923,120.807a1.162,1.162,0,0,0,1.552-.36,1.126,1.126,0,1,0-1.552.36Z" transform="translate(-28.99 -100.892)" fill="#fff"/>
      <path id="Path_2132" data-name="Path 2132" d="M112.877,59.333a1.163,1.163,0,0,0,.9-1.806,1.127,1.127,0,1,0-.9,1.806Z" transform="translate(-76.882 -48.506)" fill="#fff"/>
      <path id="Path_2133" data-name="Path 2133" d="M37.351,158.406a1.184,1.184,0,0,0,1.458-.643,1.126,1.126,0,1,0-1.458.643Z" transform="translate(-13.048 -132.762)" fill="#fff"/>
      <path id="Path_2134" data-name="Path 2134" d="M26.057,198.8a1.2,1.2,0,0,0,1.314-.9,1.126,1.126,0,1,0-1.314.9Z" transform="translate(-3.28 -167.043)" fill="#fff"/>
      <path id="Path_2135" data-name="Path 2135" d="M37.227,320.517a1.127,1.127,0,0,0,.407,2.178,1.187,1.187,0,0,0,1.051-1.534,1.127,1.127,0,0,0-1.458-.644Z" transform="translate(-12.942 -272.309)" fill="#fff"/>
      <path id="Path_2136" data-name="Path 2136" d="M26.4,282.329a1.127,1.127,0,1,0-1.313-.9,1.125,1.125,0,0,0,1.313.9Z" transform="translate(-3.225 -238.023)" fill="#fff"/>
      <path id="Path_2137" data-name="Path 2137" d="M22.4,240.583a1.127,1.127,0,1,0-1.127-1.128,1.127,1.127,0,0,0,1.127,1.128Z" transform="translate(0 -202.532)" fill="#fff"/>
      <path id="Path_2138" data-name="Path 2138" d="M441.927,360.267a1.127,1.127,0,1,0,.347,1.556A1.127,1.127,0,0,0,441.927,360.267Z" transform="translate(-355.995 -306.005)" fill="#fff"/>
      <path id="Path_2139" data-name="Path 2139" d="M443.21,121.054a1.126,1.126,0,0,0-.379,1.547,1.165,1.165,0,0,0,1.549.379,1.127,1.127,0,1,0-1.17-1.926Z" transform="translate(-358.095 -102.732)" fill="#fff"/>
      <path id="Path_2140" data-name="Path 2140" d="M418.092,87.479a1.127,1.127,0,1,0,1.591.089A1.126,1.126,0,0,0,418.092,87.479Z" transform="translate(-336.892 -74.096)" fill="#fff"/>
      <path id="Path_2141" data-name="Path 2141" d="M460.924,322.852a1.127,1.127,0,0,0-1.464.626,1.185,1.185,0,0,0,1.045,1.546,1.126,1.126,0,0,0,.419-2.172Z" transform="translate(-372.307 -274.289)" fill="#fff"/>
      <path id="Path_2142" data-name="Path 2142" d="M476.586,240.84a1.126,1.126,0,0,0-1.139,1.116,1.191,1.191,0,0,0,1.127,1.137,1.127,1.127,0,0,0,.012-2.253Z" transform="translate(-385.952 -204.665)" fill="#fff"/>
      <path id="Path_2143" data-name="Path 2143" d="M462.132,160.868a1.114,1.114,0,0,0,.4-.072,1.127,1.127,0,1,0-.4.072Z" transform="translate(-373.678 -134.793)" fill="#fff"/>
      <path id="Path_2144" data-name="Path 2144" d="M472.06,200.366a1.2,1.2,0,0,0,1.3.915,1.126,1.126,0,1,0-1.3-.915Z" transform="translate(-383.058 -169.147)" fill="#fff"/>
      <path id="Path_2145" data-name="Path 2145" d="M416.443,393.576a1.126,1.126,0,1,0,.057,1.592A1.126,1.126,0,0,0,416.443,393.576Z" transform="translate(-334.2 -334.202)" fill="#fff"/>
      <path id="Path_2146" data-name="Path 2146" d="M472.557,282.568a1.127,1.127,0,0,0-1.323.888,1.2,1.2,0,0,0,1.107,1.344,1.127,1.127,0,0,0,.216-2.232Z" transform="translate(-382.357 -240.107)" fill="#fff"/>
      <path id="Path_2147" data-name="Path 2147" d="M267.881,464.858h0a1.128,1.128,0,0,0-1.033,1.214,1.216,1.216,0,0,0,1.214,1.033,1.126,1.126,0,1,0-.18-2.246Z" transform="translate(-208.681 -395.031)" fill="#fff"/>
      <path id="Path_2148" data-name="Path 2148" d="M348.037,443.029a1.125,1.125,0,0,0-.521,1.505,1.172,1.172,0,0,0,1.505.521,1.126,1.126,0,1,0-.984-2.026Z" transform="translate(-277.139 -376.388)" fill="#fff"/>
      <path id="Path_2149" data-name="Path 2149" d="M308.973,457.686a1.127,1.127,0,0,0-.792,1.383,1.2,1.2,0,0,0,1.383.792A1.127,1.127,0,0,0,308.973,457.686Z" transform="translate(-243.775 -388.908)" fill="#fff"/>
      <path id="Path_2150" data-name="Path 2150" d="M388.822,58.862h0a1.126,1.126,0,1,0,.2,1.58A1.128,1.128,0,0,0,388.82,58.862Z" transform="translate(-310.794 -49.822)" fill="#fff"/>
      <path id="Path_2151" data-name="Path 2151" d="M383.725,421.421a1.126,1.126,0,1,0,1.576.236A1.127,1.127,0,0,0,383.725,421.421Z" transform="translate(-307.618 -357.935)" fill="#fff"/>
      <path id="Path_2152" data-name="Path 2152" d="M226.159,464.4h0a1.128,1.128,0,0,0-1.236,1.006,1.211,1.211,0,0,0,1.122,1.242,1.126,1.126,0,0,0,.114-2.247Z" transform="translate(-173.053 -394.637)" fill="#fff"/>
      <path id="Path_2153" data-name="Path 2153" d="M85.7,37.166a4.4,4.4,0,0,0-1.47-3.284,4.463,4.463,0,0,0,0-6.582,4.463,4.463,0,0,0,0-6.581,4.457,4.457,0,0,0-2.383-7.674V4.516A4.521,4.521,0,0,0,77.329,0H63.055a1.127,1.127,0,0,0,0,2.253H77.329a2.265,2.265,0,0,1,2.263,2.263v.6H51.776v-.6a2.265,2.265,0,0,1,2.263-2.263H56.9A1.127,1.127,0,0,0,56.9,0H54.039a4.521,4.521,0,0,0-4.516,4.516V21.007a4.747,4.747,0,0,0-7.211,3.984V51.407L40.2,53.526a6.129,6.129,0,0,0-6.905,9.9l6.973,7a1.127,1.127,0,0,0,1.6-1.589l-6.973-7a3.87,3.87,0,0,1,5.459-5.486l11.63,11.683a3.9,3.9,0,0,1,0,5.486,3.981,3.981,0,0,1-5.9-.443,1.127,1.127,0,0,0-1.6,1.589c5.368,5.675,13.882-.653,9.838-7.316l2.03-2.039A15.333,15.333,0,0,0,71.1,56.933h6.224a4.521,4.521,0,0,0,4.516-4.516V41.556A4.421,4.421,0,0,0,85.7,37.166Zm-2.253.015a2.159,2.159,0,0,1-2.157,2.157H79.32a2.165,2.165,0,0,1,0-4.329h1.967a2.163,2.163,0,0,1,2.157,2.172Zm0-6.582a2.159,2.159,0,0,1-2.157,2.157H79.32a2.165,2.165,0,0,1,0-4.329h1.967A2.163,2.163,0,0,1,83.444,30.6Zm0-6.582a2.159,2.159,0,0,1-2.157,2.157H79.32a2.165,2.165,0,0,1,0-4.329h1.967a2.163,2.163,0,0,1,2.157,2.172Zm0-6.6a2.221,2.221,0,0,1-2.157,2.172H79.32a2.165,2.165,0,0,1,0-4.329h1.967a2.159,2.159,0,0,1,2.157,2.157ZM79.591,7.365v5.643a4.431,4.431,0,0,0-3.212,7.709,4.437,4.437,0,0,0,0,6.582,4.437,4.437,0,0,0,0,6.582,4.431,4.431,0,0,0,3.212,7.709v5.643H58.23a13.006,13.006,0,0,0-6.454-9.292V7.365ZM57.537,63.106l-1.578-.073a1.137,1.137,0,0,0-.851.331l-2.3,2.306L42.053,54.861l2.184-2.194a1.127,1.127,0,0,0,.328-.795V24.991c0-3.173,4.892-3.173,4.892,0v13.63a1.127,1.127,0,0,0,.679,1.034,10.149,10.149,0,0,1,5.592,6.772,12.636,12.636,0,0,1-1.447,10.418,1.127,1.127,0,0,0,1.856,1.277,12.165,12.165,0,0,0,.719-1.188H68.531a12.839,12.839,0,0,1-10.993,6.173ZM77.329,54.68H57.8a15.331,15.331,0,0,0,.684-5.193h21.11v2.93A2.265,2.265,0,0,1,77.329,54.68Z" transform="translate(-8.698)" fill="#fff"/>
      <path id="Path_2154" data-name="Path 2154" d="M185.919,75.763a1.126,1.126,0,0,0,1.593-.021l3.3-3.385a1.127,1.127,0,0,0-1.614-1.572l-3.3,3.385a1.127,1.127,0,0,0,.021,1.593Z" transform="translate(-139.622 -59.861)" fill="#fff"/>
      <path id="Path_2155" data-name="Path 2155" d="M185.919,83.006a1.126,1.126,0,0,0,1.593-.021l10.353-10.628a1.127,1.127,0,0,0-1.614-1.572L185.9,81.413A1.127,1.127,0,0,0,185.919,83.006Z" transform="translate(-139.622 -59.861)" fill="#fff"/>
    </g>
  </g>
</svg>
