<svg xmlns="http://www.w3.org/2000/svg" width="284.289" height="18.813" viewBox="0 0 284.289 18.813">
  <path id="Path_2112" data-name="Path 2112" d="M17.435-22.447l1.885,1.65q.55.55-.157.707H8.638Q7.538-17.97,6.2-15.849v9.033q0,.393-1.257.55-1.1.157-1.1-.314v-6.912L2.275-12.236a9.444,9.444,0,0,1-1.492.943q-.471.157-.236-.157.236-.236.864-.943a23.167,23.167,0,0,0,2.435-3.063v-2.435l1.1.393A17.014,17.014,0,0,0,6.2-20.091H1.1l-.314-.55H6.36Q7.145-23,7.617-24.961l2.356.943q.707.628.079,1.178l-.314.157q-.314.864-.864,2.042h7.069ZM16.257-7.916,17.671-9.8l2.042,1.728q.314.236.236.393,0,.236-.393.314H6.831L6.6-7.916h4.791v-6.127H7.46l-.314-.55h4.242v-4.949l2.514.314q.471.079.55.314t-.864.943v3.378h2.042l1.335-1.728,1.728,1.571q.55.55-.157.707H13.586v6.127Zm7.117-5.027,7.069-.785v-2.906l-2.514.471a30.207,30.207,0,0,1-3.692.55q-.55-.079.079-.471a5.435,5.435,0,0,1,.628-.157A50.819,50.819,0,0,0,31.7-18.6a23.038,23.038,0,0,0,3.378-1.807l1.964,1.571q.55.471-.157.628h-.943a32.068,32.068,0,0,1-3.3.943v3.3l4.87-.628,1.414-1.964,1.885,1.335q.785.55-.079.785l-8.091,1.021v3.849a1.348,1.348,0,0,0,.079.55.529.529,0,0,0,.471.236,25.45,25.45,0,0,0,2.828,0,18.613,18.613,0,0,0,2.121-.236q.628-.157,1.1-1.571l.236-.707a3.048,3.048,0,0,0,.157-.393q.393-.393.471.393L40.026-9.88a1.336,1.336,0,0,0,.393,1.1l.236.157q.55.393.393.864t-1.492.707a40.136,40.136,0,0,1-4.32.314,16.388,16.388,0,0,1-2.906-.079,2.451,2.451,0,0,1-1.571-.628,2.343,2.343,0,0,1-.314-1.414v-4.32l-6.6.785Zm3.535-8.248a3.256,3.256,0,0,1,.079,1.571,1.873,1.873,0,0,1-1.335,1.65,1.934,1.934,0,0,1-.943-.079q-.864-.471-.393-1.571a4.71,4.71,0,0,1,.864-.943,2.037,2.037,0,0,0,.707-1.414,4,4,0,0,1,.079-.785q.314-.157.785,1.021h4.242V-24.49l2.435.314q1.021.314.157.943l-.393.157v1.335H38.3L39-22.84l2.2,2.121q.628.628-.236.864H39.712q-1.021.943-1.807,1.571-.707.628-.393-.628.393-1.1.785-2.278ZM48.321-7.916v.628q0,.628-.785.864a3.059,3.059,0,0,1-1.1.157.371.371,0,0,1-.314-.393V-23.626l2.671,1.1H59.553l1.492-1.885,1.885,1.728q.471.55-.236.707H48.321v13.51h11.7l1.65-1.885,1.964,1.728q.55.55-.236.707Zm4.085-3.613a6.216,6.216,0,0,0,1.178-3.378H48.949l-.236-.55h4.949q.079-1.178.079-2.985H52.248a15.012,15.012,0,0,1-2.356,2.435q-.707.393-.471-.157a11.712,11.712,0,0,0,1.1-2.435,25.355,25.355,0,0,0,.707-3.063l2.356.943q.55.393.079.707l-.393.157q-.314.471-.628.864h5.184l1.257-1.65L60.81-19.07q.471.471-.157.628H55.94q-.079,2.278-.079,2.985H59.4l1.335-1.807,1.728,1.65q.471.55-.157.707h-6.52q-.079.55-.157.943,4.085.628,4.791,2.671.393,1.257-.55,1.728a1.2,1.2,0,0,1-1.492-.628,11.83,11.83,0,0,1-.785-1.492,5.132,5.132,0,0,0-2.042-1.885A6.56,6.56,0,0,1,51.62-9.565q-2.2.943-2.435.707-.157-.157.079-.314a1.378,1.378,0,0,0,.393-.157A7.746,7.746,0,0,0,52.405-11.529Zm21.727-2.828a9.779,9.779,0,0,1-2.278,1.335q-.157.628-.314,1.335a7.679,7.679,0,0,1-1.021,2.278,11.594,11.594,0,0,1-2.278,2.749q-.864.55-.55-.157a11.935,11.935,0,0,0,2.356-6.991,15.949,15.949,0,0,0-1.1,1.335l-.079.157q-.236.707-.707,0l-1.1-1.571a23.764,23.764,0,0,0,3.063-1.178,30.352,30.352,0,0,0,0-4.4l-.157-3.692,2.435.943H76.1v-2.356l2.042.157q1.414.236.236.943l-.236.079v1.178h4.4l1.414-1.571L85.6-22.29q.471.471-.157.628H77.588L79-21.269q.628.393.079.785l-.393.157q-.236.471-.471.864h3.927l1.335-1.492,1.571,1.414q.393.55,0,.628H82.93l1.65,1.178q.471.393-.157.55h-.707q-.471.157-1.335.393a13.467,13.467,0,0,0,3.613,1.335A4.024,4.024,0,0,0,84.5-13.65a8.83,8.83,0,0,1-1.885-1.335v3.063q0,.55-.943.628a1.605,1.605,0,0,1-.707,0,.308.308,0,0,1-.236-.314v-.236H79.395V-8.23a1.664,1.664,0,0,1-.707,1.492q-1.257.864-1.65.236a1.8,1.8,0,0,1-.157-.55.5.5,0,0,0-.314-.471q-1.335-.55-1.65-.707-.236-.314.393-.236.943.079,1.728.079.471,0,.471-.785v-2.671H76.017v.236q0,.236-.707.393a4.879,4.879,0,0,1-.943.079L76.331-9.88q.628.393-.157.55h-.707A26.836,26.836,0,0,1,71.3-6.895q-1.178.393-.55-.314a2.34,2.34,0,0,0,.314-.236,14.322,14.322,0,0,0,3.142-3.77.32.32,0,0,1-.079-.236ZM72.09-21.662v2.906a47.163,47.163,0,0,1-.236,5.106q.785-.55,1.178-.864a8.019,8.019,0,0,0,1.257-1.492.742.742,0,0,1-.785-.628l-.157-.55a2.473,2.473,0,0,0-.628-.943q-.785-.707,1.178-.236a1.54,1.54,0,0,1,1.257,1.178,9.114,9.114,0,0,0,.943-1.728H72.561l-.236-.55h4.006a17.336,17.336,0,0,0,.628-2.2Zm3.927,9.269H80.73v-1.492H76.017Zm0-3.456v1.414H80.73v-1.414Zm1.964-3.063a19.018,19.018,0,0,1-1.65,2.514h4.477a9.087,9.087,0,0,1-1.65-2.514Zm1.571,0a8,8,0,0,0,.943.943,4.979,4.979,0,0,0,1.1.785,11.166,11.166,0,0,0,1.021-1.728Zm-11.468.943a4.029,4.029,0,0,0-.55-2.2q-.236-.628.55-.157a3.7,3.7,0,0,1,1.728,2.435q.236,1.492-.785,1.65a.7.7,0,0,1-.864-.55A5.761,5.761,0,0,1,68.084-17.97Zm13.9,8.483a7.036,7.036,0,0,0-1.65-1.178q-1.021-.55,1.021-.314,2.671.393,3.456,1.728.628,1.257-.314,1.885a1.028,1.028,0,0,1-1.335-.55A9.978,9.978,0,0,0,81.987-9.487Zm34.5,1.885v.707q0,.471-.55.55l-1.1.157a1.2,1.2,0,0,1-.628,0q-.236-.079-.236-.55V-22.055l2.671,1.021h1.414a34.38,34.38,0,0,0,.628-3.927l2.671,1.1a.445.445,0,0,1,.079.707l-.471.314q-.864.943-1.807,1.807h5.813l.864-1.335,2.042,1.807q.393.314-.079.943l-.157.157V-7.523a.766.766,0,0,1-.157.55,2.827,2.827,0,0,1-1.335.393q-1.021.157-1.021-.471V-7.6Zm0-.55h8.64v-3.77h-8.64Zm0-4.32h8.64v-3.77h-8.64Zm0-8.012v3.692h8.64v-3.692Zm17.485,7.541,7.069-.785v-2.906l-2.514.471a30.207,30.207,0,0,1-3.692.55q-.55-.079.079-.471a5.434,5.434,0,0,1,.628-.157A50.82,50.82,0,0,0,142.3-18.6a23.038,23.038,0,0,0,3.378-1.807l1.964,1.571q.55.471-.157.628h-.943a32.069,32.069,0,0,1-3.3.943v3.3l4.87-.628,1.414-1.964,1.885,1.335q.785.55-.079.785l-8.091,1.021v3.849a1.348,1.348,0,0,0,.079.55.529.529,0,0,0,.471.236,25.45,25.45,0,0,0,2.828,0,18.613,18.613,0,0,0,2.121-.236q.628-.157,1.1-1.571l.236-.707a3.048,3.048,0,0,0,.157-.393q.393-.393.471.393l-.079,1.414a1.336,1.336,0,0,0,.393,1.1l.236.157q.55.393.393.864t-1.492.707a40.136,40.136,0,0,1-4.32.314,16.388,16.388,0,0,1-2.906-.079,2.451,2.451,0,0,1-1.571-.628,2.343,2.343,0,0,1-.314-1.414v-4.32l-6.6.785Zm3.535-8.248a3.256,3.256,0,0,1,.079,1.571,1.873,1.873,0,0,1-1.335,1.65,1.934,1.934,0,0,1-.943-.079q-.864-.471-.393-1.571a4.71,4.71,0,0,1,.864-.943,2.037,2.037,0,0,0,.707-1.414,4,4,0,0,1,.079-.785q.314-.157.786,1.021h4.242V-24.49l2.435.314q1.021.314.157.943l-.393.157v1.335H148.9l.707-1.1,2.2,2.121q.628.628-.236.864h-1.257q-1.021.943-1.807,1.571-.707.628-.393-.628.393-1.1.786-2.278Zm25.811,4.713V-14.2a10.45,10.45,0,0,1-.471,3.535A6.206,6.206,0,0,1,160.332-7.6a8.563,8.563,0,0,1-3.221,1.257q-.628,0-.314-.314a22.728,22.728,0,0,0,1.964-1.257,7.888,7.888,0,0,0,.943-.943,7.633,7.633,0,0,0,1.414-4.949v-3.456a19.068,19.068,0,0,1-2.435,1.964,10.529,10.529,0,0,1-2.278,1.178q-.785.157-.236-.471a12.351,12.351,0,0,0,2.2-1.885,23.875,23.875,0,0,0,2.356-2.906,21.615,21.615,0,0,0,2.671-5.263l2.671.785q.864.393.236.864l-.314.157a12.911,12.911,0,0,0,2.2,2.278,22.572,22.572,0,0,0,6.52,3.378,4.439,4.439,0,0,0-2.042,2.435,28.035,28.035,0,0,1-4.556-4.006,15.145,15.145,0,0,1-2.514-3.849,26.1,26.1,0,0,1-3.849,4.791l1.807.314q.864.393.157.864Zm5.734,0v9.033q0,.471-.236.55a2.47,2.47,0,0,1-1.178.314q-.785.079-.785-.393v-10.84l2.356.314q.628.236.079.864Zm14.579-5.42,1.257,1.335q.314.393-.157.55h-6.677l-.314-.55h4.713Zm-3.142,13.9v.943q0,.314-.55.471a2.726,2.726,0,0,1-1.1.079q-.236,0-.236-.314v-7.069l1.885.864h1.492l.628-1.021,1.728,1.492q.471.471-.157.628h-.236v4.006q0,.55-.707.707-1.178.236-1.178-.314v-.471Zm0-.55h1.571v-3.927h-1.571ZM178.6-14.985v-.55h3.456l1.1-1.335.943,1.021a16,16,0,0,0,2.356-4.949l.55.236V-21.74h-2.2l-.314-.55h2.514v-2.278l1.964.157q.471.157.079.864l-.157.157v1.1h1.964v-2.278l1.885.157q1.257.236.236.864l-.236.079v1.178h.707l1.414-1.571,1.65,1.492q.471.471-.157.628h-3.613v.628q0,.393-.943.471a1.257,1.257,0,0,1-.628,0q-.314-.079-.314-.314v-.785h-1.964v.785a.371.371,0,0,1-.314.393,5.165,5.165,0,0,1-1.257.157l.864.393q.55.314.236.471a.32.32,0,0,1-.236.079l-.314.157a5.127,5.127,0,0,1-.471.55h2.278q.157-.707.393-2.042l1.65.628q.55.393.079.628l-.236.079-.785.707h2.435l1.257-1.257,1.335,1.257q.393.393-.079.55H191.17v1.021h1.65l1.021-.943,1.178,1.021q.393.393-.079.471h-3.77v1.1h1.571l1.1-1.021,1.178,1.1q.314.393-.079.471h-3.77v1.178h2.435l1.257-1.1,1.414,1.178q.393.314-.079.471h-8.719v.314q0,.393-1.021.55-.864.157-.864-.471v-3.692a7.8,7.8,0,0,1-1.257.943q.628.628-.157.628Zm8.876,1.178h1.807v-1.178h-1.807Zm0-1.728h1.807v-1.1h-1.807Zm0-1.65h1.807v-1.021h-1.807ZM178.6-17.42v-.55h3.378l1.178-1.335,1.178,1.335q.314.393-.157.55Zm0-5.106v-.55h3.3L183-24.49l1.257,1.335q.393.471-.079.628Zm15.16,11.861q-.943.785-1.964,1.492a32.535,32.535,0,0,0,4.713.55,8.939,8.939,0,0,0-1.65,2.042,17.4,17.4,0,0,1-4.556-1.65,20.566,20.566,0,0,1-6.048,1.885q-1.1.157-.943-.079a7.556,7.556,0,0,1,1.335-.471,16.052,16.052,0,0,0,4.32-2.2,7.677,7.677,0,0,1-2.2-2.356h-1.65l-.314-.55h7.462l.707-.707,1.65,1.257q.707.55-.236.707Zm-6.52-.785a6.631,6.631,0,0,0,2.749,1.65q.785-.628,1.885-1.65Zm15.993-5.027A7.808,7.808,0,0,0,203-11.765q.55-.943,2.278-3.535.393-.393.236.157l-.55,1.335q-.471,1.257-1.1,3.063a3.328,3.328,0,0,0-.157.785q0,.236.236,1.65.157.864-.393,1.1-.785.393-1.571-.707a6.491,6.491,0,0,1-.943-3.613,25.966,25.966,0,0,1,1.1-7.462l.393-1.414A2.165,2.165,0,0,0,201.507-23a1.145,1.145,0,0,1,.471-.157l.393-.079a1.64,1.64,0,0,1,1.1.393,3.027,3.027,0,0,1,1.571,2.042,3.9,3.9,0,0,1-.628,1.571A18.1,18.1,0,0,0,203.235-16.478Zm5.5-.157a13.456,13.456,0,0,1,2.042-2.435,5.91,5.91,0,0,1-1.65-.157,2.833,2.833,0,0,1-1.492-.864,4.117,4.117,0,0,1-.864-1.257q-.157-.314.157-.157a4.876,4.876,0,0,0,2.985.707q1.335-.079,2.514-.236l.943-.157a5.5,5.5,0,0,0,.785-.393q.393-.236,1.257.314a1.906,1.906,0,0,1,1.021,1.021q.236.707-.785.864-1.885.236-2.2.314a7.711,7.711,0,0,0-3.063,1.414l-1.335,1.021Q208.734-16.4,208.734-16.635Zm-1.257,2.828q.157-.314.314-.236l-.079.471a2.321,2.321,0,0,0,1.728,2.906,9.664,9.664,0,0,0,2.749.314,7.516,7.516,0,0,0,3.142-.55q.55-.236,1.492.393,1.1.707.785,1.492-.157.55-1.728.707a25.785,25.785,0,0,1-2.671.157,12.561,12.561,0,0,1-2.828-.236,4.631,4.631,0,0,1-2.121-.943,3.4,3.4,0,0,1-1.1-2.2A4.532,4.532,0,0,1,207.477-13.807Zm14.736-5.106a1.1,1.1,0,0,1,.314-.785,3.526,3.526,0,0,0,.55.864,1.22,1.22,0,0,0,1.257.236,37.683,37.683,0,0,0,3.849-1.414,15.341,15.341,0,0,1,3.849-.943,8.14,8.14,0,0,1,4.949.628,5.187,5.187,0,0,1,2.514,2.671,5.217,5.217,0,0,1,.157,3.77q-1.257,3.77-7.148,4.949a15.278,15.278,0,0,1-2.828.393q-.393-.079,0-.393a7.817,7.817,0,0,0,1.178-.236,10.415,10.415,0,0,0,3.692-1.65,5.566,5.566,0,0,0,2.435-3.535,5.549,5.549,0,0,0-.236-3.063,3.923,3.923,0,0,0-1.885-2.278,4.67,4.67,0,0,0-3.849-.079,15.107,15.107,0,0,0-3.692,2.2,19.021,19.021,0,0,1-1.885,1.335q-.707.393-1.964-.471A2.478,2.478,0,0,1,222.213-18.913Zm22.434-3.221q.079-.314,1.1-.393a2.366,2.366,0,0,1,1.335.157,9.82,9.82,0,0,1,.785.628l.707.707a1.322,1.322,0,0,1,.157,1.1q-.707,2.356-.864,3.221a11.716,11.716,0,0,0-.157,2.514,3.94,3.94,0,0,0,1.335,2.435l1.807-2.671q.943-1.414,1.335-1.964.55-.314.236.157l-1.414,3.221q-.314.707-.471,1.178a3.309,3.309,0,0,0,.079,1.885,2.523,2.523,0,0,1,.157,1.178q-.236.785-1.178.628a3.369,3.369,0,0,1-2.042-1.65,9.177,9.177,0,0,1-1.178-2.514,11.944,11.944,0,0,1-.314-4.477,22.974,22.974,0,0,0,.079-4.163q-.079-.55-1.335-1.021Zm11.7,2.121q-.785-.393-.157-.55a7.749,7.749,0,0,1,4.477,2.435,6.367,6.367,0,0,1,1.335,2.514,3.316,3.316,0,0,1,0,2.671,1.3,1.3,0,0,1-1.964.471,1.909,1.909,0,0,1-.55-1.178l-.236-1.178A9.447,9.447,0,0,0,256.35-20.012ZM274.7-17.577a14.718,14.718,0,0,1,2.042-2.356,29.59,29.59,0,0,0-3.456.785q-1.728.55-2.671.943a4.309,4.309,0,0,1-1.257.393,2.822,2.822,0,0,1-1.021-.55,6.48,6.48,0,0,1-1.021-.943q-.471-1.257.314-1.571a3.04,3.04,0,0,0,.393.55q.471.55,1.728.079,3.221-.55,6.6-1.178,1.021-.157,3.927-.55.55-.079.864-.157a3.491,3.491,0,0,0,1.1-.55.518.518,0,0,1,.55,0,8.484,8.484,0,0,1,1.335.864q1.021.864.393,1.571a1.1,1.1,0,0,1-.943.079,4.726,4.726,0,0,0-.707-.079,8.675,8.675,0,0,0-1.65,0,7.5,7.5,0,0,0-5.341,2.828,4.522,4.522,0,0,0-1.021,3.613,3.786,3.786,0,0,0,2.2,2.906,6.32,6.32,0,0,0,3.142.785,1.805,1.805,0,0,1,1.021.079,2.045,2.045,0,0,1,.943,1.178q.393.943-.393,1.257a3.92,3.92,0,0,1-1.65.157,7.267,7.267,0,0,1-5.263-2.435,5.629,5.629,0,0,1-1.335-3.77A7.306,7.306,0,0,1,274.7-17.577Z" transform="translate(-0.469 24.961)" fill="#444"/>
</svg>
