<svg xmlns="http://www.w3.org/2000/svg" width="268.403" height="12.813" viewBox="0 0 268.403 12.813">
  <path id="Path_2110" data-name="Path 2110" d="M.27-5.257,4.418-15.812h1.22L9.787-5.257H8.323L7.042-8.43H3.015L1.734-5.257ZM5.028-13.8,3.442-9.589H6.615ZM13.5-11.237a3.545,3.545,0,0,1,2.624-.976v1.342a2.9,2.9,0,0,0-.671-.061,2.39,2.39,0,0,0-1.708.793,3.627,3.627,0,0,0-.915,1.4v3.478h-1.22v-6.833h1.22v1.708A4.8,4.8,0,0,1,13.5-11.237Zm4.2,2.563a3.632,3.632,0,0,1,1.037-2.685,2.973,2.973,0,0,1,2.2-.854,3,3,0,0,1,2.2.915,3.573,3.573,0,0,1,.854,2.624H19.037a2.579,2.579,0,0,0,.61,1.891,1.9,1.9,0,0,0,1.4.549A1.683,1.683,0,0,0,22.27-6.6a1.344,1.344,0,0,0,.427-.976H24.04a3.291,3.291,0,0,1-.793,1.647,2.968,2.968,0,0,1-2.2.793,3.219,3.219,0,0,1-2.379-.915A3.545,3.545,0,0,1,17.695-8.674Zm3.173-2.5a1.656,1.656,0,0,0-1.22.488A1.983,1.983,0,0,0,19.1-9.65h3.478a1.517,1.517,0,0,0-.488-1.1A1.651,1.651,0,0,0,20.867-11.176Zm11.69-3.295h1.22v2.379h2.074v.976H33.777v3.966a.933.933,0,0,0,.305.671,1.089,1.089,0,0,0,.793.244A2.78,2.78,0,0,0,36.4-6.661V-5.5a3.008,3.008,0,0,1-1.464.366,2.426,2.426,0,0,1-1.769-.549,1.866,1.866,0,0,1-.61-1.342v-4.088H31.093v-.976h1.464Zm5.723-1.22H39.5v4.82a2.9,2.9,0,0,1,2.257-1.342,2.579,2.579,0,0,1,1.891.61,2,2,0,0,1,.61,1.464v4.881h-1.22V-9.833a1.487,1.487,0,0,0-.427-1.1,1.155,1.155,0,0,0-.854-.305,1.691,1.691,0,0,0-1.22.549A4.418,4.418,0,0,0,39.5-8.8v3.539H38.28Zm8.407,7.016a3.632,3.632,0,0,1,1.037-2.685,2.973,2.973,0,0,1,2.2-.854,3,3,0,0,1,2.2.915,3.573,3.573,0,0,1,.854,2.624H48.03a2.579,2.579,0,0,0,.61,1.891,1.9,1.9,0,0,0,1.4.549,1.683,1.683,0,0,0,1.22-.366,1.344,1.344,0,0,0,.427-.976h1.342a3.291,3.291,0,0,1-.793,1.647,2.968,2.968,0,0,1-2.2.793,3.219,3.219,0,0,1-2.379-.915A3.545,3.545,0,0,1,46.687-8.674Zm3.173-2.5a1.656,1.656,0,0,0-1.22.488,1.983,1.983,0,0,0-.549,1.037h3.478a1.517,1.517,0,0,0-.488-1.1A1.651,1.651,0,0,0,49.86-11.176Zm7.431-.061a3.545,3.545,0,0,1,2.624-.976v1.342a2.9,2.9,0,0,0-.671-.061,2.39,2.39,0,0,0-1.708.793,3.627,3.627,0,0,0-.915,1.4v3.478H55.4v-6.833h1.22v1.708A4.8,4.8,0,0,1,57.291-11.237Zm4.2,2.563a3.632,3.632,0,0,1,1.037-2.685,2.973,2.973,0,0,1,2.2-.854,3,3,0,0,1,2.2.915,3.573,3.573,0,0,1,.854,2.624H62.831a2.579,2.579,0,0,0,.61,1.891,1.9,1.9,0,0,0,1.4.549,1.683,1.683,0,0,0,1.22-.366,1.344,1.344,0,0,0,.427-.976h1.342a3.291,3.291,0,0,1-.793,1.647,2.968,2.968,0,0,1-2.2.793,3.219,3.219,0,0,1-2.379-.915A3.545,3.545,0,0,1,61.489-8.674Zm3.173-2.5a1.656,1.656,0,0,0-1.22.488,1.983,1.983,0,0,0-.549,1.037H66.37a1.517,1.517,0,0,0-.488-1.1A1.651,1.651,0,0,0,64.661-11.176Zm11.08,1.1a2.881,2.881,0,0,1,.793-1.464,2.645,2.645,0,0,1,1.952-.671,3.02,3.02,0,0,1,2.2.671,1.929,1.929,0,0,1,.61,1.4v3.844a1.22,1.22,0,0,0,.488,1.037H80.317a1.089,1.089,0,0,1-.244-.793,3.142,3.142,0,0,1-2.318.915,2.4,2.4,0,0,1-1.769-.61,1.756,1.756,0,0,1-.549-1.281,1.9,1.9,0,0,1,.549-1.4,3.052,3.052,0,0,1,1.708-.793,8.5,8.5,0,0,0,1.281-.305,4.188,4.188,0,0,0,1.1-.366,1.171,1.171,0,0,0-.366-.854,1.4,1.4,0,0,0-1.037-.366,1.684,1.684,0,0,0-1.22.366,1.518,1.518,0,0,0-.366.671Zm4.332,1.342a5.641,5.641,0,0,1-.671.183q-1.037.244-1.586.366a1.547,1.547,0,0,0-.732.366.933.933,0,0,0-.305.671,1,1,0,0,0,.305.732,1.181,1.181,0,0,0,.793.183A2.314,2.314,0,0,0,79.585-6.9a2.143,2.143,0,0,0,.488-.61Zm5.174,3.478h-1.22v-6.833h1.22v1.22a3.058,3.058,0,0,1,2.318-1.342,2.639,2.639,0,0,1,1.952.732,1.584,1.584,0,0,1,.488,1.159v5.064h-1.22v-4.7a1.242,1.242,0,0,0-.366-.915,1.4,1.4,0,0,0-1.037-.366,1.758,1.758,0,0,0-1.22.61,2.74,2.74,0,0,0-.915,1.952Zm6.577-6.894h1.342l2.2,5.43,2.2-5.43H98.9L95.851-4.83a3.928,3.928,0,0,1-.732,1.281,1.656,1.656,0,0,1-1.22.488,1.66,1.66,0,0,1-1.1-.244V-4.464a2.288,2.288,0,0,0,1.037.244.759.759,0,0,0,.549-.244,1.518,1.518,0,0,0,.366-.671ZM106.2-8.613a3.545,3.545,0,0,1,.976-2.624,3.067,3.067,0,0,1,2.257-.915,2.983,2.983,0,0,1,2.2.732,2.743,2.743,0,0,1,.793,1.647h-1.342a1.569,1.569,0,0,0-.488-.915,1.492,1.492,0,0,0-1.1-.366,1.656,1.656,0,0,0-1.22.488,2.721,2.721,0,0,0-.732,2.013,2.557,2.557,0,0,0,.671,1.891,1.656,1.656,0,0,0,1.22.488,1.814,1.814,0,0,0,1.342-.488,1.732,1.732,0,0,0,.488-1.281H112.6a3.02,3.02,0,0,1-.854,2.074,3.142,3.142,0,0,1-2.318.793,2.9,2.9,0,0,1-2.135-.854A3.652,3.652,0,0,1,106.2-8.613Zm8.529-.061a3.556,3.556,0,0,1,1.037-2.624,3.067,3.067,0,0,1,2.257-.915,3.067,3.067,0,0,1,2.257.915,3.556,3.556,0,0,1,1.037,2.624,3.556,3.556,0,0,1-1.037,2.624,3.067,3.067,0,0,1-2.257.915,3.067,3.067,0,0,1-2.257-.915A3.556,3.556,0,0,1,114.728-8.674Zm3.295-2.44a1.656,1.656,0,0,0-1.22.488,2.639,2.639,0,0,0-.732,1.952,2.557,2.557,0,0,0,.671,1.891,1.756,1.756,0,0,0,1.281.549,1.756,1.756,0,0,0,1.281-.549,2.557,2.557,0,0,0,.671-1.891,2.639,2.639,0,0,0-.732-1.952A1.656,1.656,0,0,0,118.022-11.115ZM124.9-5.257h-1.22v-6.833h1.22v1.22a3.058,3.058,0,0,1,2.318-1.342,2.639,2.639,0,0,1,1.952.732,1.584,1.584,0,0,1,.488,1.159v5.064h-1.22v-4.7a1.242,1.242,0,0,0-.366-.915,1.4,1.4,0,0,0-1.037-.366,1.758,1.758,0,0,0-1.22.61,2.74,2.74,0,0,0-.915,1.952Zm7.187-3.356a3.545,3.545,0,0,1,.976-2.624,3.067,3.067,0,0,1,2.257-.915,2.983,2.983,0,0,1,2.2.732,2.743,2.743,0,0,1,.793,1.647h-1.342a1.569,1.569,0,0,0-.488-.915,1.492,1.492,0,0,0-1.1-.366,1.656,1.656,0,0,0-1.22.488,2.721,2.721,0,0,0-.732,2.013,2.558,2.558,0,0,0,.671,1.891,1.656,1.656,0,0,0,1.22.488,1.814,1.814,0,0,0,1.342-.488,1.732,1.732,0,0,0,.488-1.281H138.5a3.02,3.02,0,0,1-.854,2.074,3.142,3.142,0,0,1-2.318.793,2.9,2.9,0,0,1-2.135-.854A3.652,3.652,0,0,1,132.092-8.613Zm8.59-.061a3.632,3.632,0,0,1,1.037-2.685,2.973,2.973,0,0,1,2.2-.854,3,3,0,0,1,2.2.915,3.573,3.573,0,0,1,.854,2.624h-4.942a2.579,2.579,0,0,0,.61,1.891,1.9,1.9,0,0,0,1.4.549,1.684,1.684,0,0,0,1.22-.366,1.344,1.344,0,0,0,.427-.976h1.342a3.291,3.291,0,0,1-.793,1.647,2.968,2.968,0,0,1-2.2.793,3.219,3.219,0,0,1-2.379-.915A3.545,3.545,0,0,1,140.682-8.674Zm3.173-2.5a1.656,1.656,0,0,0-1.22.488,1.983,1.983,0,0,0-.549,1.037h3.478a1.517,1.517,0,0,0-.488-1.1A1.651,1.651,0,0,0,143.855-11.176Zm7.431-.061a3.545,3.545,0,0,1,2.624-.976v1.342a2.9,2.9,0,0,0-.671-.061,2.39,2.39,0,0,0-1.708.793,3.627,3.627,0,0,0-.915,1.4v3.478h-1.22v-6.833h1.22v1.708A4.8,4.8,0,0,1,151.286-11.237Zm5.6,5.979h-1.22v-6.833h1.22v1.22a3.058,3.058,0,0,1,2.318-1.342,2.639,2.639,0,0,1,1.952.732,1.584,1.584,0,0,1,.488,1.159v5.064h-1.22v-4.7a1.242,1.242,0,0,0-.366-.915,1.4,1.4,0,0,0-1.037-.366,1.758,1.758,0,0,0-1.22.61,2.74,2.74,0,0,0-.915,1.952Zm7.37-4.881a1.826,1.826,0,0,1,.549-1.342,2.806,2.806,0,0,1,2.074-.732,2.922,2.922,0,0,1,2.135.671,1.866,1.866,0,0,1,.61,1.342h-1.22a1.065,1.065,0,0,0-.244-.61,1.893,1.893,0,0,0-1.342-.366,1.319,1.319,0,0,0-.976.366.933.933,0,0,0-.305.671.585.585,0,0,0,.183.427,4.093,4.093,0,0,0,1.525.549q.793.183,1.342.366a2.044,2.044,0,0,1,.732.427,1.584,1.584,0,0,1,.488,1.159,1.866,1.866,0,0,1-.61,1.342,3.076,3.076,0,0,1-2.257.732,3.076,3.076,0,0,1-2.257-.732,2.069,2.069,0,0,1-.61-1.525h1.22a1.3,1.3,0,0,0,.305.793,1.74,1.74,0,0,0,1.281.427,2,2,0,0,0,1.4-.366.828.828,0,0,0,.244-.61.842.842,0,0,0-.305-.549,1.6,1.6,0,0,0-.793-.366q-1.1-.244-1.647-.427a2.184,2.184,0,0,1-.976-.488A1.633,1.633,0,0,1,164.257-10.138Zm13.276,1.464a3.556,3.556,0,0,1,1.037-2.624,3.067,3.067,0,0,1,2.257-.915,3.067,3.067,0,0,1,2.257.915,3.556,3.556,0,0,1,1.037,2.624,3.556,3.556,0,0,1-1.037,2.624,3.067,3.067,0,0,1-2.257.915,3.067,3.067,0,0,1-2.257-.915A3.556,3.556,0,0,1,177.533-8.674Zm3.295-2.44a1.656,1.656,0,0,0-1.22.488,2.639,2.639,0,0,0-.732,1.952,2.558,2.558,0,0,0,.671,1.891,1.756,1.756,0,0,0,1.281.549,1.756,1.756,0,0,0,1.281-.549,2.558,2.558,0,0,0,.671-1.891,2.639,2.639,0,0,0-.732-1.952A1.656,1.656,0,0,0,180.828-11.115Zm7.492-.122a3.545,3.545,0,0,1,2.624-.976v1.342a2.9,2.9,0,0,0-.671-.061,2.39,2.39,0,0,0-1.708.793,3.627,3.627,0,0,0-.915,1.4v3.478h-1.22v-6.833h1.22v1.708A4.794,4.794,0,0,1,188.32-11.237ZM199.339-3h-1.22v-9.091h1.22v.793a2.312,2.312,0,0,1,1.891-.915,2.805,2.805,0,0,1,2.074.793,3.712,3.712,0,0,1,.976,2.746,3.8,3.8,0,0,1-.976,2.807,2.805,2.805,0,0,1-2.074.793,2.072,2.072,0,0,1-1.891-.976Zm1.891-8.115a1.756,1.756,0,0,0-1.281.549,2,2,0,0,0-.61,1.464v.854a2.1,2.1,0,0,0,.671,1.525,1.691,1.691,0,0,0,1.22.549,1.412,1.412,0,0,0,1.037-.427,2.827,2.827,0,0,0,.671-2.074,2.674,2.674,0,0,0-.61-1.952A1.517,1.517,0,0,0,201.23-11.115Zm7.37-.122a3.545,3.545,0,0,1,2.624-.976v1.342a2.9,2.9,0,0,0-.671-.061,2.39,2.39,0,0,0-1.708.793,3.627,3.627,0,0,0-.915,1.4v3.478h-1.22v-6.833h1.22v1.708A4.8,4.8,0,0,1,208.6-11.237Zm4.137,2.563a3.556,3.556,0,0,1,1.037-2.624,3.067,3.067,0,0,1,2.257-.915,3.067,3.067,0,0,1,2.257.915,3.556,3.556,0,0,1,1.037,2.624,3.556,3.556,0,0,1-1.037,2.624,3.067,3.067,0,0,1-2.257.915,3.067,3.067,0,0,1-2.257-.915A3.556,3.556,0,0,1,212.737-8.674Zm3.295-2.44a1.656,1.656,0,0,0-1.22.488,2.639,2.639,0,0,0-.732,1.952,2.558,2.558,0,0,0,.671,1.891,1.756,1.756,0,0,0,1.281.549,1.756,1.756,0,0,0,1.281-.549,2.558,2.558,0,0,0,.671-1.891,2.639,2.639,0,0,0-.732-1.952A1.656,1.656,0,0,0,216.032-11.115Zm5.54-4.576h1.22V-11.3a2.426,2.426,0,0,1,1.952-.976,2.728,2.728,0,0,1,2.013.793,3.8,3.8,0,0,1,.976,2.807,3.712,3.712,0,0,1-.976,2.746,2.805,2.805,0,0,1-2.074.793,1.988,1.988,0,0,1-1.891-.976v.854h-1.22Zm3.112,4.515a1.866,1.866,0,0,0-1.342.61,2.062,2.062,0,0,0-.549,1.525v.732a2.069,2.069,0,0,0,.61,1.525,1.756,1.756,0,0,0,1.281.549,1.412,1.412,0,0,0,1.037-.427,2.735,2.735,0,0,0,.671-2.013,2.772,2.772,0,0,0-.61-2.013A1.517,1.517,0,0,0,224.683-11.176Zm5.662-4.515h1.22V-5.257h-1.22Zm3.771,7.016a3.632,3.632,0,0,1,1.037-2.685,2.973,2.973,0,0,1,2.2-.854,3,3,0,0,1,2.2.915,3.573,3.573,0,0,1,.854,2.624h-4.942a2.579,2.579,0,0,0,.61,1.891,1.9,1.9,0,0,0,1.4.549,1.684,1.684,0,0,0,1.22-.366,1.344,1.344,0,0,0,.427-.976h1.342a3.291,3.291,0,0,1-.793,1.647,2.969,2.969,0,0,1-2.2.793,3.219,3.219,0,0,1-2.379-.915A3.545,3.545,0,0,1,234.116-8.674Zm3.173-2.5a1.656,1.656,0,0,0-1.22.488,1.983,1.983,0,0,0-.549,1.037H239a1.517,1.517,0,0,0-.488-1.1A1.651,1.651,0,0,0,237.289-11.176Zm6.821,5.918h-1.22v-6.833h1.22v1.037a2.236,2.236,0,0,1,1.83-1.159,2.4,2.4,0,0,1,1.769.61,2.575,2.575,0,0,1,.488.671,2.462,2.462,0,0,1,2.2-1.281,2.062,2.062,0,0,1,1.525.549,1.866,1.866,0,0,1,.61,1.342v5.064h-1.22v-4.82a.828.828,0,0,0-.244-.61,1.171,1.171,0,0,0-.854-.366,1.9,1.9,0,0,0-1.4.549,1.365,1.365,0,0,0-.488.915v4.332H247.1v-4.759a1.055,1.055,0,0,0-.366-.732,1.243,1.243,0,0,0-.915-.305,1.584,1.584,0,0,0-1.159.488,1.54,1.54,0,0,0-.549,1.037Zm11.031-4.881a1.826,1.826,0,0,1,.549-1.342,2.806,2.806,0,0,1,2.074-.732,2.922,2.922,0,0,1,2.135.671,1.866,1.866,0,0,1,.61,1.342h-1.22a1.065,1.065,0,0,0-.244-.61,1.893,1.893,0,0,0-1.342-.366,1.319,1.319,0,0,0-.976.366.933.933,0,0,0-.305.671.585.585,0,0,0,.183.427,4.093,4.093,0,0,0,1.525.549q.793.183,1.342.366a2.044,2.044,0,0,1,.732.427,1.584,1.584,0,0,1,.488,1.159,1.866,1.866,0,0,1-.61,1.342,3.076,3.076,0,0,1-2.257.732,3.076,3.076,0,0,1-2.257-.732,2.069,2.069,0,0,1-.61-1.525h1.22a1.3,1.3,0,0,0,.305.793,1.74,1.74,0,0,0,1.281.427,2,2,0,0,0,1.4-.366.828.828,0,0,0,.244-.61.842.842,0,0,0-.305-.549,1.6,1.6,0,0,0-.793-.366q-1.1-.244-1.647-.427a2.184,2.184,0,0,1-.976-.488A1.633,1.633,0,0,1,255.141-10.138Zm7.675-2.318a3.556,3.556,0,0,1,1.037-2.624,2.639,2.639,0,0,1,1.952-.732,2.806,2.806,0,0,1,2.074.732,2.728,2.728,0,0,1,.793,2.013,2.411,2.411,0,0,1-.732,1.769l-1.159,1.159a2.237,2.237,0,0,0-.549,1.647h-1.1a3.8,3.8,0,0,1,.427-2.013,8.657,8.657,0,0,1,1.159-1.342,1.584,1.584,0,0,0,.488-1.159,1.74,1.74,0,0,0-.427-1.281,1.4,1.4,0,0,0-1.037-.366,1.242,1.242,0,0,0-.915.366,2.486,2.486,0,0,0-.61,1.83Zm2.2,5.735h1.342v1.464h-1.342Z" transform="translate(-0.27 15.813)" fill="#b1b0ac" opacity="0.76"/>
</svg>
