<svg xmlns="http://www.w3.org/2000/svg" width="33.541" height="41.066" viewBox="0 0 33.541 41.066">
  <g id="search_2_" data-name="search (2)" transform="translate(5.588) rotate(14)">
    <path id="Path_1987" data-name="Path 1987" d="M320.751,318.055h0a2.728,2.728,0,0,1-2.695,2.695h0a2.8,2.8,0,0,1-2-.847l-8.623-9.393a.744.744,0,0,1,0-1.078l2-2a.744.744,0,0,1,1.078,0l9.393,8.7A2.624,2.624,0,0,1,320.751,318.055Z" transform="translate(-286.874 -286.873)" fill="#b06328"/>
    <rect id="Rectangle_282" data-name="Rectangle 282" width="2.156" height="3.234" transform="translate(22.308 20.784) rotate(135)" fill="#b0c4d8"/>
    <path id="Path_1988" data-name="Path 1988" d="M281.967,281.968l.385.385.77-.77-2.31-2.31-1.54,1.54,1.155,1.155h0A1.029,1.029,0,0,1,281.967,281.968Z" transform="translate(-260.794 -260.795)" fill="#99b4cd"/>
    <path id="Path_1989" data-name="Path 1989" d="M11.549,0A11.549,11.549,0,1,0,23.1,11.549,11.534,11.534,0,0,0,11.549,0Zm0,20.788a9.239,9.239,0,1,1,9.239-9.239A9.266,9.266,0,0,1,11.549,20.788Z" fill="#c4d7e5"/>
    <circle id="Ellipse_92" data-name="Ellipse 92" cx="9.239" cy="9.239" r="9.239" transform="translate(2.31 2.31)" fill="#70b7e5"/>
    <path id="Path_1990" data-name="Path 1990" d="M73.193,78.2a6.535,6.535,0,0,1,5.62-5.62h.077a1.133,1.133,0,0,0,.154-2.233,7.757,7.757,0,0,0-2.31-.077,6.86,6.86,0,0,0-5.774,5.775,5.791,5.791,0,0,0,.077,2.31A1.129,1.129,0,0,0,73.27,78.2C73.193,78.276,73.193,78.2,73.193,78.2Z" transform="translate(-66.187 -65.572)" fill="#92c5eb"/>
    <path id="Path_1991" data-name="Path 1991" d="M35.679,44.919a9.266,9.266,0,0,1,9.239-9.239,9.647,9.647,0,0,1,6.159,2.31,9.134,9.134,0,0,0-6.929-3.08,9.266,9.266,0,0,0-9.239,9.239,9.408,9.408,0,0,0,3.08,6.929A9.647,9.647,0,0,1,35.679,44.919Z" transform="translate(-32.599 -32.6)" fill="#4c9cd6"/>
    <path id="Path_1992" data-name="Path 1992" d="M174.545,186.095h0a11.533,11.533,0,0,0,11.549-11.549h0a.772.772,0,0,0-.77.77,10.472,10.472,0,0,1-3.08,6.775,10.848,10.848,0,0,1-6.929,3.234A.772.772,0,0,0,174.545,186.095Z" transform="translate(-162.996 -162.997)" fill="#b0c9db"/>
    <path id="Path_1993" data-name="Path 1993" d="M11.549,0h0A11.534,11.534,0,0,0,0,11.549H0a.772.772,0,0,0,.77-.77A10.423,10.423,0,0,1,3.619,4.235,11.3,11.3,0,0,1,10.779.77.771.771,0,0,0,11.549,0Z" fill="#e2e7f0"/>
    <path id="Path_1994" data-name="Path 1994" d="M325.261,350.283l-.462-.385a2.691,2.691,0,0,1,.616,1.694h0a1.106,1.106,0,0,1-1.925.693l-8.084-8.084a1.116,1.116,0,0,0-1.617,0l-.77.77,8.392,9.008a3.09,3.09,0,0,0,1.694.924,2.7,2.7,0,0,0,3-3A2.4,2.4,0,0,0,325.261,350.283Z" transform="translate(-292.308 -321.103)" fill="#a35425"/>
    <path id="Path_1995" data-name="Path 1995" d="M345.039,323.238a.463.463,0,0,1-.308-.077l-1.925-1.925a.381.381,0,0,1,.539-.539l1.925,1.925a.372.372,0,0,1,0,.539C345.27,323.238,345.116,323.238,345.039,323.238Z" transform="translate(-320.016 -299.37)" fill="#c97629"/>
  </g>
</svg>
