<?xml version="1.0" encoding="UTF-8"?><svg id="_レイヤー_2" xmlns="http://www.w3.org/2000/svg" xmlns:xlink="http://www.w3.org/1999/xlink" viewBox="0 0 49.76383 104.66428"><defs><style>.cls-1{stroke-width:1.33013px;}.cls-1,.cls-2,.cls-3{fill:none;stroke-linecap:round;stroke-linejoin:round;}.cls-1,.cls-3{stroke:#5f402d;}.cls-4{fill:#fbd4a2;}.cls-5{fill:#fff;}.cls-6{fill:#8c5a2c;}.cls-7{fill:#b29b92;}.cls-8{fill:#fbfbfd;}.cls-9{isolation:isolate;}.cls-10{fill:#c24669;}.cls-11{fill:#f4f7f9;}.cls-12{fill:#f39f5d;}.cls-13{clip-path:url(#clippath-1);}.cls-14{fill:#f1b283;}.cls-2{stroke:#482d1b;stroke-width:1.21773px;}.cls-15{fill:#e94a3e;}.cls-16{fill:url(#_名称未設定グラデーション_78);}.cls-17{fill:#b2b5b8;}.cls-18{fill:#e7e6f0;}.cls-19{fill:#c6c7c5;}.cls-20{clip-path:url(#clippath);}.cls-21{fill:#e60012;}.cls-3{stroke-width:.58578px;}.cls-22{fill:#d3daeb;}.cls-23{fill:#5daddd;}.cls-24{fill:#c5c8cc;}.cls-25{fill:#f6b580;}</style><linearGradient id="_名称未設定グラデーション_78" x1="23.89178" y1="57.22374" x2="23.89178" y2="128.55385" gradientUnits="userSpaceOnUse"><stop offset="0" stop-color="#949494"/><stop offset="1" stop-color="#000"/></linearGradient><clipPath id="clippath"><path class="cls-12" d="M48.78436,46.82137l-.01197,4.22008c-.01018,3.59224-2.37186,7.17874-7.08735,9.91909-9.49029,5.51516-24.92869,5.51904-34.48767,.00017C2.39047,58.18544-.01028,54.5413,.00003,50.90273l.01195-4.22007c-.0103,3.63857,2.39045,7.28271,7.19735,10.05798,9.55898,5.51888,24.99737,5.51499,34.48767-.00017,4.71549-2.74034,7.07718-6.32685,7.08736-9.91909Z"/></clipPath><clipPath id="clippath-1"><path class="cls-12" d="M48.78436,46.82137l-.01197,4.22008c-.01018,3.59224-2.37186,7.17874-7.08735,9.91909-9.49029,5.51516-24.92869,5.51904-34.48767,.00017C2.39047,58.18544-.01028,54.5413,.00003,50.90273l.01195-4.22007c-.0103,3.63857,2.39045,7.28271,7.19735,10.05798,9.55898,5.51888,24.99737,5.51499,34.48767-.00017,4.71549-2.74034,7.07718-6.32685,7.08736-9.91909Z"/></clipPath></defs><g id="_レイヤー_1-2"><g><g><path class="cls-16" d="M25.36272,103.54891c.00075-.02183,.00087-.04333,0-.06522V61.88738h-2.94056v41.56712c-.0025,.03933-.00266,.07808,0,.11741v.00929h.00119c.0212,.27154,.15993,.53891,.42737,.74646,.57833,.44883,1.51245,.44883,2.08705,0,.2657-.20755,.4022-.47492,.4211-.74646h.00385v-.03229Z"/><g><path class="cls-12" d="M48.78436,46.82137l-.01197,4.22008c-.01018,3.59224-2.37186,7.17874-7.08735,9.91909-9.49029,5.51516-24.92869,5.51904-34.48767,.00017C2.39047,58.18544-.01028,54.5413,.00003,50.90273l.01195-4.22007c-.0103,3.63857,2.39045,7.28271,7.19735,10.05798,9.55898,5.51888,24.99737,5.51499,34.48767-.00017,4.71549-2.74034,7.07718-6.32685,7.08736-9.91909Z"/><g class="cls-20"><g class="cls-9"><path class="cls-12" d="M48.78436,46.82137l-.01196,4.22008c-.0002,.0714-.00133,.1428-.00339,.2142l.01196-4.22008c.00206-.07139,.00319-.14279,.00339-.2142"/><path class="cls-12" d="M48.78097,47.03557l-.01196,4.22008c-.01349,.46732-.06679,.93425-.1599,1.39896l.01196-4.22008c.09311-.46471,.14641-.93164,.1599-1.39896"/><path class="cls-12" d="M48.62107,48.43452l-.01196,4.22008c-.09225,.4604-.22357,.91861-.39399,1.37282l.01196-4.22008c.17041-.45422,.30174-.91243,.39399-1.37282"/><path class="cls-12" d="M48.22709,49.80735l-.01196,4.22008c-.17521,.467-.39173,.92978-.64957,1.38639l.01196-4.22008c.25784-.45661,.47436-.91939,.64957-1.38639"/><path class="cls-12" d="M47.57751,51.19374l-.01196,4.22008c-.27884,.4938-.60601,.98038-.98152,1.45726l.01196-4.22008c.3755-.47688,.70267-.96346,.98152-1.45726"/><path class="cls-12" d="M46.596,52.651l-.01196,4.22008c-.43834,.55669-.94255,1.10017-1.51263,1.6265l.01196-4.22008c.57008-.52633,1.07429-1.06981,1.51263-1.6265"/><path class="cls-12" d="M45.08337,54.27751l-.01196,4.22008c-.87454,.80742-1.9041,1.57449-3.08872,2.28699l.01196-4.22008c1.18462-.7125,2.21419-1.47957,3.08872-2.28699"/><path class="cls-12" d="M41.99464,56.5645l-.01196,4.22008c-.09815,.05903-.19736,.11769-.29764,.17597-1.62671,.94534-3.42819,1.72876-5.34485,2.35019l.01196-4.22008c1.91667-.62143,3.71814-1.40485,5.34485-2.35019,.10028-.05828,.19949-.11693,.29764-.17597"/><path class="cls-12" d="M36.35215,59.09066l-.01196,4.22008c-1.47953,.4797-3.02771,.86289-4.61713,1.14952l.01196-4.22008c1.58942-.28663,3.13759-.66982,4.61713-1.14952"/><path class="cls-12" d="M31.73502,60.24018l-.01196,4.22008c-1.02233,.18437-2.06173,.32879-3.1109,.43326l.01196-4.22008c1.04917-.10447,2.08857-.24889,3.1109-.43326"/><path class="cls-12" d="M28.62412,60.67344l-.01196,4.22008c-.89575,.08919-1.79862,.14927-2.70408,.18021l.01196-4.22008c.90546-.03095,1.80833-.09102,2.70408-.18021"/><path class="cls-12" d="M25.92004,60.85365l-.01196,4.22008c-.83143,.02842-1.66504,.03228-2.49731,.01157l.01196-4.22008c.83228,.0207,1.66589,.01684,2.49731-.01157"/><path class="cls-12" d="M23.42273,60.86522l-.01196,4.22008c-.80279-.01997-1.60434-.06279-2.4015-.12847l.01196-4.22008c.79716,.06568,1.59871,.1085,2.4015,.12847"/><path class="cls-12" d="M21.02123,60.73676l-.01196,4.22008c-.79554-.06554-1.5867-.15385-2.37036-.26492l.01196-4.22008c.78366,.11107,1.57482,.19937,2.37036,.26492"/><path class="cls-12" d="M18.65087,60.47184l-.01196,4.22008c-.81503-.11552-1.62194-.25566-2.4172-.42043l.01196-4.22008c.79526,.16477,1.60217,.30491,2.4172,.42043"/><path class="cls-12" d="M16.23367,60.05141l-.01196,4.22008c-.86302-.17881-1.71232-.38662-2.5434-.62343l.01196-4.22008c.83108,.23682,1.68038,.44463,2.5434,.62343"/><path class="cls-12" d="M13.69027,59.42798l-.01196,4.22008c-1.01723-.28986-2.00716-.62318-2.96154-.99996l.01196-4.22008c.95438,.37678,1.94431,.7101,2.96154,.99996"/><path class="cls-12" d="M10.72873,58.42802l-.01196,4.22008c-1.2391-.48919-2.41826-1.05165-3.5194-1.68739C2.39047,58.18544-.01028,54.5413,.00003,50.90273l.01196-4.22008c-.01032,3.63857,2.39044,7.28272,7.19734,10.05798,1.10114,.63574,2.2803,1.1982,3.5194,1.68739"/></g></g></g><ellipse class="cls-14" cx="24.39695" cy="46.75227" rx="14.12544" ry="24.38668" transform="translate(-22.42429 71.01658) rotate(-89.83757)"/></g><g><g><g><g class="cls-9"><polygon class="cls-22" points="23.22168 38.2913 23.30588 58.72889 45.43614 45.95198 45.35193 25.5144 23.22168 38.2913"/><polygon class="cls-18" points="23.22168 38.2913 3.66455 26.92594 3.74876 47.36353 23.30588 58.72889 23.22168 38.2913"/><polygon class="cls-11" points="45.35193 25.5144 25.79481 14.14904 3.66455 26.92594 23.22168 38.2913 45.35193 25.5144"/></g><g class="cls-9"><polygon class="cls-10" points="24.17839 37.46432 24.17545 38.49797 3.09582 26.32212 3.09875 25.28846 24.17839 37.46432"/><polygon class="cls-17" points="24.17839 37.46432 44.9947 25.3672 44.99177 26.40085 24.17545 38.49797 24.17839 37.46432"/><polygon class="cls-11" points="3.09875 25.28846 24.06994 13.22322 44.9947 25.3672 24.17839 37.46432 3.09875 25.28846"/></g><g class="cls-9"><polygon class="cls-14" points="38.42183 25.03471 24.42763 37.51704 24.43187 39.01163 38.43853 30.92487 38.42183 25.03471"/><polygon class="cls-4" points="38.42183 25.03471 14.13287 11.24414 .13867 23.72647 24.42763 37.51704 38.42183 25.03471"/><polygon class="cls-14" points="24.42763 37.51704 .13867 23.72647 .14291 25.22106 24.43187 39.01163 24.42763 37.51704"/></g><polygon class="cls-25" points="48.278 24.44721 38.24005 25.06629 14.18773 11.27268 24.80055 11.00736 48.278 24.44721"/></g><polygon class="cls-14" points="38.28427 31.036 48.18956 25.24317 48.18956 24.44721 38.32849 25.02207 38.28427 31.036"/><polygon class="cls-23" points="7.09829 33.46292 7.09829 42.0115 12.66186 45.3188 12.66186 36.59925 7.09829 33.46292"/><polygon class="cls-23" points="14.66331 37.81131 14.66331 46.3599 20.22688 49.6672 20.22688 40.94765 14.66331 37.81131"/></g><path class="cls-7" d="M31.07389,54.1225s8.40186-4.80106,8.11945-4.58925,0-13.69887,0-13.69887l-8.26065,4.37744s-.14121,13.91068,.14121,13.91068Z"/></g><g><path class="cls-16" d="M25.36272,103.54891c.00075-.02183,.00087-.04333,0-.06522V61.88738h-2.94056v41.56712c-.0025,.03933-.00266,.07808,0,.11741v.00929h.00119c.0212,.27154,.15993,.53891,.42737,.74646,.57833,.44883,1.51245,.44883,2.08705,0,.2657-.20755,.4022-.47492,.4211-.74646h.00385v-.03229Z"/><g><path class="cls-12" d="M48.78436,46.82137l-.01197,4.22008c-.01018,3.59224-2.37186,7.17874-7.08735,9.91909-9.49029,5.51516-24.92869,5.51904-34.48767,.00017C2.39047,58.18544-.01028,54.5413,.00003,50.90273l.01195-4.22007c-.0103,3.63857,2.39045,7.28271,7.19735,10.05798,9.55898,5.51888,24.99737,5.51499,34.48767-.00017,4.71549-2.74034,7.07718-6.32685,7.08736-9.91909Z"/><g class="cls-13"><g class="cls-9"><path class="cls-12" d="M48.78436,46.82137l-.01196,4.22008c-.0002,.0714-.00133,.1428-.00339,.2142l.01196-4.22008c.00206-.07139,.00319-.14279,.00339-.2142"/><path class="cls-12" d="M48.78097,47.03557l-.01196,4.22008c-.01349,.46732-.06679,.93425-.1599,1.39896l.01196-4.22008c.09311-.46471,.14641-.93164,.1599-1.39896"/><path class="cls-12" d="M48.62107,48.43452l-.01196,4.22008c-.09225,.4604-.22357,.91861-.39399,1.37282l.01196-4.22008c.17041-.45422,.30174-.91243,.39399-1.37282"/><path class="cls-12" d="M48.22709,49.80735l-.01196,4.22008c-.17521,.467-.39173,.92978-.64957,1.38639l.01196-4.22008c.25784-.45661,.47436-.91939,.64957-1.38639"/><path class="cls-12" d="M47.57751,51.19374l-.01196,4.22008c-.27884,.4938-.60601,.98038-.98152,1.45726l.01196-4.22008c.3755-.47688,.70267-.96346,.98152-1.45726"/><path class="cls-12" d="M46.596,52.651l-.01196,4.22008c-.43834,.55669-.94255,1.10017-1.51263,1.6265l.01196-4.22008c.57008-.52633,1.07429-1.06981,1.51263-1.6265"/><path class="cls-12" d="M45.08337,54.27751l-.01196,4.22008c-.87454,.80742-1.9041,1.57449-3.08872,2.28699l.01196-4.22008c1.18462-.7125,2.21419-1.47957,3.08872-2.28699"/><path class="cls-12" d="M41.99464,56.5645l-.01196,4.22008c-.09815,.05903-.19736,.11769-.29764,.17597-1.62671,.94534-3.42819,1.72876-5.34485,2.35019l.01196-4.22008c1.91667-.62143,3.71814-1.40485,5.34485-2.35019,.10028-.05828,.19949-.11693,.29764-.17597"/><path class="cls-12" d="M36.35215,59.09066l-.01196,4.22008c-1.47953,.4797-3.02771,.86289-4.61713,1.14952l.01196-4.22008c1.58942-.28663,3.13759-.66982,4.61713-1.14952"/><path class="cls-12" d="M31.73502,60.24018l-.01196,4.22008c-1.02233,.18437-2.06173,.32879-3.1109,.43326l.01196-4.22008c1.04917-.10447,2.08857-.24889,3.1109-.43326"/><path class="cls-12" d="M28.62412,60.67344l-.01196,4.22008c-.89575,.08919-1.79862,.14927-2.70408,.18021l.01196-4.22008c.90546-.03095,1.80833-.09102,2.70408-.18021"/><path class="cls-12" d="M25.92004,60.85365l-.01196,4.22008c-.83143,.02842-1.66504,.03228-2.49731,.01157l.01196-4.22008c.83228,.0207,1.66589,.01684,2.49731-.01157"/><path class="cls-12" d="M23.42273,60.86522l-.01196,4.22008c-.80279-.01997-1.60434-.06279-2.4015-.12847l.01196-4.22008c.79716,.06568,1.59871,.1085,2.4015,.12847"/><path class="cls-12" d="M21.02123,60.73676l-.01196,4.22008c-.79554-.06554-1.5867-.15385-2.37036-.26492l.01196-4.22008c.78366,.11107,1.57482,.19937,2.37036,.26492"/><path class="cls-12" d="M18.65087,60.47184l-.01196,4.22008c-.81503-.11552-1.62194-.25566-2.4172-.42043l.01196-4.22008c.79526,.16477,1.60217,.30491,2.4172,.42043"/><path class="cls-12" d="M16.23367,60.05141l-.01196,4.22008c-.86302-.17881-1.71232-.38662-2.5434-.62343l.01196-4.22008c.83108,.23682,1.68038,.44463,2.5434,.62343"/><path class="cls-12" d="M13.69027,59.42798l-.01196,4.22008c-1.01723-.28986-2.00716-.62318-2.96154-.99996l.01196-4.22008c.95438,.37678,1.94431,.7101,2.96154,.99996"/><path class="cls-12" d="M10.72873,58.42802l-.01196,4.22008c-1.2391-.48919-2.41826-1.05165-3.5194-1.68739C2.39047,58.18544-.01028,54.5413,.00003,50.90273l.01196-4.22008c-.01032,3.63857,2.39044,7.28272,7.19734,10.05798,1.10114,.63574,2.2803,1.1982,3.5194,1.68739"/></g></g></g><ellipse class="cls-14" cx="24.39695" cy="46.75227" rx="14.12544" ry="24.38668" transform="translate(-22.42429 71.01658) rotate(-89.83757)"/></g><g><g><g><g class="cls-9"><polygon class="cls-22" points="23.22168 38.2913 23.30588 58.72889 45.43614 45.95198 45.35193 25.5144 23.22168 38.2913"/><polygon class="cls-18" points="23.22168 38.2913 3.66455 26.92594 3.74876 47.36353 23.30588 58.72889 23.22168 38.2913"/><polygon class="cls-11" points="45.35193 25.5144 25.79481 14.14904 3.66455 26.92594 23.22168 38.2913 45.35193 25.5144"/></g><g class="cls-9"><polygon class="cls-10" points="24.17839 37.46432 24.17545 38.49797 3.09582 26.32212 3.09875 25.28846 24.17839 37.46432"/><polygon class="cls-17" points="24.17839 37.46432 44.9947 25.3672 44.99177 26.40085 24.17545 38.49797 24.17839 37.46432"/><polygon class="cls-11" points="3.09875 25.28846 24.06994 13.22322 44.9947 25.3672 24.17839 37.46432 3.09875 25.28846"/></g><g class="cls-9"><polygon class="cls-14" points="38.42183 25.03471 24.42763 37.51704 24.43187 39.01163 38.43853 30.92487 38.42183 25.03471"/><polygon class="cls-4" points="38.42183 25.03471 14.13287 11.24414 .13867 23.72647 24.42763 37.51704 38.42183 25.03471"/><polygon class="cls-14" points="24.42763 37.51704 .13867 23.72647 .14291 25.22106 24.43187 39.01163 24.42763 37.51704"/></g><polygon class="cls-25" points="48.278 24.44721 38.24005 25.06629 14.18773 11.27268 24.80055 11.00736 48.278 24.44721"/></g><polygon class="cls-14" points="38.28427 31.036 48.18956 25.24317 48.18956 24.44721 38.32849 25.02207 38.28427 31.036"/><polygon class="cls-23" points="7.09829 33.46292 7.09829 42.0115 12.66186 45.3188 12.66186 36.59925 7.09829 33.46292"/><polygon class="cls-23" points="14.66331 37.81131 14.66331 46.3599 20.22688 49.6672 20.22688 40.94765 14.66331 37.81131"/></g><path class="cls-7" d="M31.07389,54.1225s8.40186-4.80106,8.11945-4.58925,0-13.69887,0-13.69887l-8.26065,4.37744s-.14121,13.91068,.14121,13.91068Z"/></g><g class="cls-9"><polygon class="cls-8" points="32.31236 14.97266 32.2727 28.96362 9.75253 15.9616 9.7922 1.97064 32.31236 14.97266"/><polygon class="cls-24" points="32.31236 14.97266 35.70337 13.00202 35.6637 26.99298 32.2727 28.96362 32.31236 14.97266"/><polygon class="cls-24" points="9.7922 1.97064 13.18321 0 35.70337 13.00202 32.31236 14.97266 9.7922 1.97064"/></g><g><path class="cls-6" d="M34.20069,59.60981l14.93058-8.18272c.34405-.18856,.55881-.54488,.56241-.93317l.06979-7.52225c.01293-1.39364-.3191-2.7782-1.02138-3.98809-.16646-.28678-.35145-.56097-.55383-.79833-1.06094-1.24433-2.94394-2.67181-4.65712-1.72495l-16.0668,8.74487c-.56482,.31233-.91683,.89893-.92276,1.53772l-.0739,7.96601c-.00676,.72906,.37635,1.40733,1.00883,1.78522,1.55108,.92673,4.45081,2.48343,5.64927,3.12228,.33626,.17925,.741,.17642,1.07492-.00659Z"/><path class="cls-1" d="M29.501,51.25964l.02345-2.52774c.00807-.86978,.48383-1.66961,1.24955-2.10071l15.97229-8.97088"/><g><path class="cls-19" d="M35.13941,44.98563l-1.88129-1.06049c-.09839-.05546-.0984-.19535-.00002-.2507l1.25162-.70417c.04677-.02631,.10444-.02516,.15012,.00302l1.84871,1.14002c.09607,.05924,.0905,.19899-.00999,.25048l-1.21903,.62464c-.04413,.02261-.09691,.02156-.14011-.00279Z"/><path class="cls-19" d="M41.89091,41.15489l-1.88129-1.06049c-.09839-.05546-.0984-.19535-.00002-.2507l1.25162-.70417c.04677-.02631,.10444-.02516,.15012,.00302l1.84871,1.14002c.09607,.05924,.0905,.19899-.00999,.25048l-1.21903,.62464c-.04413,.02261-.09691,.02156-.14011-.00279Z"/><path class="cls-2" d="M34.7732,43.64828l.0223-2.40333c.00302-.3256,.18173-.62481,.46896-.78518l5.04745-2.81812c.62006-.34619,1.38793,.10023,1.38141,.80311l-.01234,1.33016"/></g><line class="cls-3" x1="48.55358" y1="41.574" x2="34.25451" y2="49.87711"/><path class="cls-3" d="M33.51181,58.96097l.06771-7.29785c.01009-1.08737-.33539-2.14973-.98736-3.02712-.2979-.4009-.56391-.8082-.75313-.99012-1.501-1.44314-3.47309-1.78693-3.47309-1.78693"/></g><g><ellipse class="cls-21" cx="42.08796" cy="50.39178" rx="5.25016" ry="3.11518" transform="translate(-23.08947 58.30578) rotate(-57.05397)"/><polygon class="cls-5" points="41.38382 47.76662 41.39021 49.9512 39.42843 51.04884 39.43381 52.88867 41.39559 51.79103 41.40198 53.97562 43.05417 53.0512 43.04778 50.86662 45.00956 49.76898 45.00418 47.92915 43.0424 49.02679 43.03601 46.8422 41.38382 47.76662"/></g><g><g class="cls-9"><path class="cls-15" d="M11.74813,10.98959c-.167-.09642-.25634-.30418-.25588-.46729,.00044-.15353,.09065-.25762,.25766-.1612l1.42164,.82079c.17537,.10125,.25843,.30539,.25799,.45891-.00046,.16311-.08441,.27083-.25978,.16958l-1.42164-.82079Z"/><path class="cls-15" d="M11.75717,10.00969c-.167-.09642-.25632-.30417-.25585-.46728,.00044-.15353,.09063-.25763,.25763-.16121l1.41539,.81718c.17537,.10125,.25843,.30539,.25799,.45891-.00046,.16311-.08441,.27083-.25978,.16958l-1.41539-.81718Z"/><path class="cls-15" d="M16.80664,11.60591l-2.03332-1.17394c-.00078,.27346-.00155,.54691-.00856,.80957l1.60117,.92444c.32776,.18923,.49622,.50995,.49521,.86499-.00805,2.83777-.05019,3.68803-1.03346,3.12034-.2317-.13377-.51551-.34088-.85556-.6189-.14809-.12394-.21242-.30044-.212-.44918,.00056-.19908,.11603-.35588,.29762-.25103,.02505,.01446,.04385,.02532,.07098,.04817,.23779,.20456,.41719,.3538,.56541,.43937,.49476,.28565,.50252-.24326,.50823-2.25586l.00044-.15353c.00015-.05277-.03724-.14163-.07691-.16453l-1.37572-.79427c-.04962,1.27603-.18849,2.32752-.69862,3.03494-.07139,.09814-.16757,.09547-.25732,.04365-.1691-.09763-.34185-.38236-.34137-.55268l.00642-.04915c-.05051,.11258-.16761,.10986-.34087,.00983l-1.32562-.76535c-.25051-.14463-.37328-.35487-.37247-.64275l.00409-1.44168c.00082-.29025,.12439-.35827,.3749-.21364l1.32562,.76535c.25051,.14463,.37328,.35487,.37246,.64513l-.00423,1.49207c.62764-.85822,.6443-2.30946,.64911-4.00782l.00057-.20149-.40498-.23382c-.03342-.01929-.05845-.04097-.08346-.0626-.0005,.17751-.08656,.2912-.25984,.19116l-1.86005-1.0739c-.167-.09642-.25632-.30414-.25585-.46728,.00044-.15353,.09063-.25761,.25763-.16119l1.86005,1.0739c.0334,.01928,.05843,.04093,.08346,.0626-.00617-.0324-.00608-.06359-.00602-.08519,.00052-.18469,.0908-.31759,.26617-.21634l1.13147,.65325,.00128-.45096c.00058-.20632,.16786-.20582,.34114-.10578,.1691,.09763,.33583,.28997,.33524,.49629l-.00128,.45096,1.26092,.72799c.17953,.10365,.26251,.33658,.26198,.52127-.00052,.18472-.08455,.32122-.26408,.21757Zm-3.89281,1.98127l.00241-.84916c.00017-.05998-.0248-.10323-.07698-.13335l-.75781-.43752c-.05217-.03012-.07731-.0158-.07748,.04418l-.00241,.84916c-.00017,.05998,.0248,.10323,.07698,.13335l.75781,.43752c.05217,.03012,.07731,.0158,.07748-.04418"/></g><path class="cls-15" d="M11.7565,8.03907c-.167-.09642-.25634-.30418-.25588-.46492,.00044-.1559,.09066-.26,.25766-.16358l1.42164,.82079c.17537,.10125,.25843,.30539,.25799,.46129-.00046,.16074-.0844,.26845-.25977,.1672l-1.42164-.82079Z"/><path class="cls-15" d="M22.94359,13.86842c.25053,.14464,.37119,.35607,.37037,.64392l-.01455,5.13104c-.00155,.54694-.0985,.81772-.73521,.45012-.16075-.09281-.36108-.23249-.59894-.41307-.17318-.13601-.24998-.33654-.24954-.49247,.00048-.17032,.09704-.29237,.24524-.20681l.0459,.03372c.25663,.20102,.42355,.32623,.52795,.3865,.16073,.0928,.18597,.0401,.18633-.08464l.00828-2.91935-1.53229-.88467c-.25051-.14463-.37119-.35607-.37037-.64392l.00507-1.78951c.00082-.28785,.1223-.35948,.3728-.21485l1.73896,1.00399Zm-.21246,1.92206l.00126-.44378-1.32562-.76535-.00101,.35501c-.00016,.05758,.0248,.10323,.077,.13337l1.24837,.72074m.00281-.99072l.00099-.34783c.00017-.05995-.0248-.1032-.07698-.13333l-1.17114-.67616c-.0522-.03014-.07733-.01581-.0775,.04414l-.00099,.34783,1.32562,.76535"/><path class="cls-15" d="M22.07286,18.60124c-.00082,.28785-.14952,.37259-.40003,.22796l-2.20867-1.27518c-.25051-.14463-.39825-.40053-.39743-.68838l.00457-1.612c.00082-.28785,.14952-.37259,.40003-.22796l2.20867,1.27518c.25051,.14463,.39825,.40053,.39743,.68838l-.00457,1.612Zm-.57952-.63013l.00289-1.01948c.00017-.05998-.0248-.10323-.07698-.13335l-1.69095-.97627c-.0522-.03014-.07733-.01581-.0775,.04417l-.00289,1.01948c-.00017,.05998,.0248,.10323,.077,.13337l1.69095,.97627c.05217,.03012,.07731,.0158,.07748-.04418"/><path class="cls-15" d="M20.38837,14.61568c-.00082,.28785-.1223,.35948-.37492,.21363l-1.52392-.87984-.00991,3.49505c-.00059,.2087-.14281,.22269-.29104,.13711-.14195-.08196-.2899-.26348-.28931-.47218l.0162-5.71395c.00082-.28785,.12439-.35827,.3749-.21364l1.7306,.99916c.25262,.14585,.3733,.35729,.37248,.64514l-.00507,1.78951Zm-.57753-.60014l.00101-.35501-1.31934-.76172-.00126,.44378,1.24211,.71714c.05011,.02893,.07732,.0134,.07748-.04418m.00256-.90195l.00099-.34783c.00017-.05995-.02687-.1044-.07698-.13333l-1.16489-.67255c-.0522-.03014-.07731-.0158-.07748,.04415l-.00099,.34783,1.31934,.76172"/><path class="cls-15" d="M29.83874,20.85516c-.00044,.1559-.08441,.27083-.26394,.16718l-1.5824-.9136c.33894,.66903,.89699,1.48858,1.66838,2.29675,.1105,.11425,.15408,.23792,.15377,.34826-.00054,.1919-.14312,.32344-.31638,.22341-.19206-.11088-1.32373-1.42981-2.0533-2.97791-.5899,.82234-1.9027,.70111-2.12817,.57093-.19415-.11209-.3209-.3919-.32037-.57662,.00033-.11753,.05701-.19774,.18031-.1698,.66237,.16859,1.3589,.09499,1.72189-.34658l-1.64712-.95097c-.17535-.10124-.26466-.31621-.26422-.47211,.00046-.16074,.09067-.26483,.26602-.16359l1.87882,1.08474c.00644-.05633,.01286-.1031,.01303-.16305l.00186-.65728-1.09391-.63157c-.37542,.39836-.49668,.39321-.61986,.3221-.167-.09642-.33978-.37397-.33923-.56587,.00021-.07437,.02547-.13188,.0904-.16886,.3476-.17654,.53636-.37271,.70456-.69849,.05046-.09581,.15498-.08832,.25728-.02925,.15448,.08919,.31489,.30193,.31439,.47946-.00012,.04318-.00653,.08512-.02545,.12467-.01264,.03114-.03359,.04066-.0525,.0754l2.97899,1.71992c.18162,.10486,.26467,.3138,.26421,.47692s-.08443,.27801-.26605,.17316l-1.63459-.94373c-.00011,.03838-.00218,.76763-.0086,.82397l1.86005,1.0739c.17953,.10365,.26259,.30779,.26213,.46852Z"/><path class="cls-15" d="M29.65827,23.29305c.17955,.10366,.26464,.32337,.26414,.5009-.0005,.17751-.08655,.29602-.2661,.19236l-4.79311-2.7673c-.32773-.18922-.57945-.64451-.57847-.99234l.01392-4.91035c.00098-.34542,.25446-.51142,.58219-.3222l4.63863,2.67812c.17953,.10365,.26468,.30897,.26422,.47211-.00044,.1535-.08649,.26722-.26602,.16357l-4.43403-2.55999c-.11483-.0663-.2049-.015-.20528,.11936l-.01253,4.42099c-.00038,.13432,.0891,.28932,.20393,.35561l4.58851,2.64918Z"/></g></g></g></svg>