<?xml version="1.0" encoding="UTF-8"?><svg id="_レイヤー_2" xmlns="http://www.w3.org/2000/svg" xmlns:xlink="http://www.w3.org/1999/xlink" viewBox="0 0 79.55884 128.13056"><defs><style>.cls-1{stroke-width:1.33013px;}.cls-1,.cls-2,.cls-3{fill:none;stroke-linecap:round;stroke-linejoin:round;}.cls-1,.cls-3{stroke:#5f402d;}.cls-4{fill:#fddf9b;}.cls-5{fill:#fff;}.cls-6{fill:#8c5a2c;}.cls-7{fill:#e24963;}.cls-8{fill:#b29b92;}.cls-9{fill:#fbfbfd;}.cls-10{fill:#e1667c;}.cls-11{isolation:isolate;}.cls-12{fill:#c24669;}.cls-13{fill:#f4f7f9;}.cls-14{clip-path:url(#clippath-1);}.cls-2{stroke:#482d1b;stroke-width:1.21773px;}.cls-15{fill:url(#_名称未設定グラデーション_78);}.cls-16{fill:#b2b5b8;}.cls-17{fill:#e7e6f0;}.cls-18{fill:#c6c7c5;}.cls-19{clip-path:url(#clippath);}.cls-20{fill:#ffe156;}.cls-3{stroke-width:.58578px;}.cls-21{fill:#d3daeb;}.cls-22{fill:#5daddd;}.cls-23{fill:#fbc961;}.cls-24{fill:#c5c8cc;}.cls-25{fill:#36bef0;}.cls-26{fill:#349f89;}.cls-27{fill:#e78895;}.cls-28{fill:#3d5a86;}</style><linearGradient id="_名称未設定グラデーション_78" x1="31.72977" y1="80.69002" x2="31.72977" y2="152.02013" gradientUnits="userSpaceOnUse"><stop offset="0" stop-color="#949494"/><stop offset="1" stop-color="#000"/></linearGradient><clipPath id="clippath"><path class="cls-7" d="M56.62235,70.28765l-.01197,4.22008c-.01018,3.59224-2.37186,7.17874-7.08735,9.91909-9.49029,5.51516-24.92869,5.51904-34.48767,.00017-4.8069-2.77526-7.20765-6.41941-7.19734-10.05798l.01195-4.22007c-.0103,3.63857,2.39045,7.28271,7.19735,10.05798,9.55898,5.51888,24.99737,5.51499,34.48767-.00017,4.71549-2.74034,7.07718-6.32685,7.08736-9.91909Z"/></clipPath><clipPath id="clippath-1"><path class="cls-7" d="M56.62235,70.28765l-.01197,4.22008c-.01018,3.59224-2.37186,7.17874-7.08735,9.91909-9.49029,5.51516-24.92869,5.51904-34.48767,.00017-4.8069-2.77526-7.20765-6.41941-7.19734-10.05798l.01195-4.22007c-.0103,3.63857,2.39045,7.28271,7.19735,10.05798,9.55898,5.51888,24.99737,5.51499,34.48767-.00017,4.71549-2.74034,7.07718-6.32685,7.08736-9.91909Z"/></clipPath></defs><g id="_レイヤー_1-2"><ellipse class="cls-25" cx="24.59382" cy="31.634" rx="20.08067" ry="34.66799" transform="translate(-12.5647 16.64031) rotate(-30.16239)"/><g><path class="cls-4" d="M12.03179,4.73027c.53797,.0339,1.09095-.1116,1.56046-.45861-.06435,.19581-.06281,.40589-.0566,.61155,.01792,.59353,.16934,1.11485,.66421,1.49643,.38493,.29681,1.007,.25908,1.39216-.02657-.22763,.16882-.23386,.99766-.22624,1.24976,.01296,.42853,.11885,.80413,.38894,1.14026,.4985,.62038,1.20273,1.08128,1.98054,1.28746-.44214,.44049-.67904,1.07201-.63343,1.68862s.37294,1.20796,.87527,1.58121c-.11674-.08674-.6506,.27474-.74366,.34449-.21344,.15998-.46172,.3966-.54957,.653-.1786,.52124-.20981,1.24383-.11865,1.78349-.65101-.09346-1.31508-.18685-1.96352-.07751-.3341,.05634-.68766,.17165-.96519,.36786-.11824,.0836-.60845,.49312-.54152,.65673-.21801-.53293-.67326-.96761-1.22216-1.16693s-1.1829-.16018-1.70201,.10509c.05346-.66479-.20756-1.34762-.69341-1.81396s-1.18737-.70739-1.86361-.64036c.28077-.52022,.21655-1.11939-.07117-1.61838-.13588-.23566-.29462-.41661-.52882-.56912-.07994-.05206-.65948-.37692-.73991-.28399,.49814-.57561,.60569-1.0583,.49167-1.79674-.10272-.66526-.36339-1.3083-.76678-1.85337,2.21209-1.11084,1.22863-2.67172,1.22863-2.67172,0,0,.67826,.20031,1.03917,.20747,.83392,.01655,1.48111-.63711,1.88923-1.26971,.51787,.57812,1.04945,1.02147,1.87595,1.07356Z"/><ellipse class="cls-23" cx="11.99967" cy="10.52561" rx="2.88851" ry="4.84141" transform="translate(-3.82402 8.43005) rotate(-33.71199)"/></g><g><ellipse class="cls-5" cx="23.46143" cy="13.94743" rx="2.54109" ry="4.29173" transform="translate(-3.81713 14.86912) rotate(-32.66595)"/><ellipse class="cls-5" cx="31.12652" cy="17.68514" rx="2.54109" ry="4.29173" transform="translate(-4.62215 19.59746) rotate(-32.66595)"/><ellipse class="cls-5" cx="27.5785" cy="14.0645" rx="2.54109" ry="4.29173" transform="translate(-3.22913 17.10978) rotate(-32.66595)"/><ellipse class="cls-5" cx="27.3654" cy="17.46727" rx="2.24209" ry="3.78674" transform="translate(-5.09945 17.53298) rotate(-32.66595)"/></g><ellipse class="cls-28" cx="54.96503" cy="52.77426" rx="20.08067" ry="34.66799" transform="translate(-19.07456 34.76269) rotate(-30.16239)"/><path class="cls-20" d="M70.53064,52.44867c-1.12826,3.171-3.82961,3.65376-6.03146,1.087-1.04501-1.22062-1.79239-2.92978-2.15414-4.71353,.40283,1.18122,.98908,2.2632,1.71673,3.12177,2.19499,2.56429,4.89633,2.08158,6.02459-1.08942,.59329-1.65722,.64181-3.7178,.232-5.67477,.8333,2.37216,.96758,5.15347,.21227,7.26896Z"/><polygon class="cls-20" points="51.07594 27.85342 50.81913 30.38277 52.26146 32.06917 52.25407 32.08991 50.65362 31.95167 50.39188 34.49483 49.63721 31.86967 48.01266 31.72283 48.0007 31.69904 49.17768 30.22599 48.4446 27.63584 48.45199 27.6151 49.89433 29.30149 51.06158 27.83663 51.07594 27.85342"/><g><path class="cls-15" d="M33.20071,127.01519c.00075-.02183,.00087-.04333,0-.06522v-41.59632h-2.94056v41.56712c-.0025,.03933-.00266,.07808,0,.11741v.00929h.00119c.0212,.27154,.15993,.53891,.42737,.74646,.57833,.44883,1.51245,.44883,2.08705,0,.2657-.20755,.4022-.47492,.4211-.74646h.00385v-.03229Z"/><g><path class="cls-7" d="M56.62235,70.28765l-.01197,4.22008c-.01018,3.59224-2.37186,7.17874-7.08735,9.91909-9.49029,5.51516-24.92869,5.51904-34.48767,.00017-4.8069-2.77526-7.20765-6.41941-7.19734-10.05798l.01195-4.22007c-.0103,3.63857,2.39045,7.28271,7.19735,10.05798,9.55898,5.51888,24.99737,5.51499,34.48767-.00017,4.71549-2.74034,7.07718-6.32685,7.08736-9.91909Z"/><g class="cls-19"><g class="cls-11"><path class="cls-7" d="M56.62235,70.28765l-.01196,4.22008c-.0002,.0714-.00133,.1428-.00339,.2142l.01196-4.22008c.00206-.07139,.00319-.14279,.00339-.2142"/><path class="cls-7" d="M56.61896,70.50185l-.01196,4.22008c-.01349,.46732-.06679,.93425-.1599,1.39896l.01196-4.22008c.09311-.46471,.14641-.93164,.1599-1.39896"/><path class="cls-7" d="M56.45906,71.90081l-.01196,4.22008c-.09225,.4604-.22357,.91861-.39399,1.37282l.01196-4.22008c.17041-.45422,.30174-.91243,.39399-1.37282"/><path class="cls-7" d="M56.06508,73.27363l-.01196,4.22008c-.17521,.467-.39173,.92978-.64957,1.38639l.01196-4.22008c.25784-.45661,.47436-.91939,.64957-1.38639"/><path class="cls-7" d="M55.41551,74.66002l-.01196,4.22008c-.27884,.4938-.60601,.98038-.98152,1.45726l.01196-4.22008c.3755-.47688,.70267-.96346,.98152-1.45726"/><path class="cls-7" d="M54.43399,76.11729l-.01196,4.22008c-.43834,.55669-.94255,1.10017-1.51263,1.6265l.01196-4.22008c.57008-.52633,1.07429-1.06981,1.51263-1.6265"/><path class="cls-7" d="M52.92136,77.74379l-.01196,4.22008c-.87454,.80742-1.9041,1.57449-3.08872,2.28699l.01196-4.22008c1.18462-.7125,2.21419-1.47957,3.08872-2.28699"/><path class="cls-7" d="M49.83263,80.03078l-.01196,4.22008c-.09815,.05903-.19736,.11769-.29764,.17597-1.62671,.94534-3.42819,1.72876-5.34485,2.35019l.01196-4.22008c1.91667-.62143,3.71814-1.40485,5.34485-2.35019,.10028-.05828,.19949-.11693,.29764-.17597"/><path class="cls-7" d="M44.19014,82.55694l-.01196,4.22008c-1.47953,.4797-3.02771,.86289-4.61713,1.14952l.01196-4.22008c1.58942-.28663,3.13759-.66982,4.61713-1.14952"/><path class="cls-7" d="M39.57301,83.70646l-.01196,4.22008c-1.02233,.18437-2.06173,.32879-3.1109,.43326l.01196-4.22008c1.04917-.10447,2.08857-.24889,3.1109-.43326"/><path class="cls-7" d="M36.46211,84.13972l-.01196,4.22008c-.89575,.08919-1.79862,.14927-2.70408,.18021l.01196-4.22008c.90546-.03095,1.80833-.09102,2.70408-.18021"/><path class="cls-7" d="M33.75803,84.31993l-.01196,4.22008c-.83143,.02842-1.66504,.03228-2.49731,.01157l.01196-4.22008c.83228,.0207,1.66589,.01684,2.49731-.01157"/><path class="cls-7" d="M31.26072,84.3315l-.01196,4.22008c-.80279-.01997-1.60434-.06279-2.4015-.12847l.01196-4.22008c.79716,.06568,1.59871,.1085,2.4015,.12847"/><path class="cls-7" d="M28.85922,84.20304l-.01196,4.22008c-.79554-.06554-1.5867-.15385-2.37036-.26492l.01196-4.22008c.78366,.11107,1.57482,.19937,2.37036,.26492"/><path class="cls-7" d="M26.48886,83.93812l-.01196,4.22008c-.81503-.11552-1.62194-.25566-2.4172-.42043l.01196-4.22008c.79526,.16477,1.60217,.30491,2.4172,.42043"/><path class="cls-7" d="M24.07166,83.5177l-.01196,4.22008c-.86302-.17881-1.71232-.38662-2.5434-.62343l.01196-4.22008c.83108,.23682,1.68038,.44463,2.5434,.62343"/><path class="cls-7" d="M21.52826,82.89426l-.01196,4.22008c-1.01723-.28986-2.00716-.62318-2.96154-.99996l.01196-4.22008c.95438,.37678,1.94431,.7101,2.96154,.99996"/><path class="cls-7" d="M18.56673,81.8943l-.01196,4.22008c-1.2391-.48919-2.41826-1.05165-3.5194-1.68739-4.8069-2.77526-7.20765-6.41941-7.19734-10.05798l.01196-4.22008c-.01032,3.63857,2.39044,7.28272,7.19734,10.05798,1.10114,.63574,2.2803,1.1982,3.5194,1.68739"/></g></g></g><ellipse class="cls-10" cx="32.23494" cy="70.21855" rx="14.12544" ry="24.38668" transform="translate(-38.07471 102.2543) rotate(-89.83757)"/></g><g><g><g><g class="cls-11"><polygon class="cls-21" points="31.05967 61.75759 31.14388 82.19517 53.27413 69.41826 53.18992 48.98068 31.05967 61.75759"/><polygon class="cls-17" points="31.05967 61.75759 11.50254 50.39223 11.58675 70.82981 31.14388 82.19517 31.05967 61.75759"/><polygon class="cls-13" points="53.18992 48.98068 33.6328 37.61532 11.50254 50.39223 31.05967 61.75759 53.18992 48.98068"/></g><g class="cls-11"><polygon class="cls-12" points="32.01638 60.9306 32.01345 61.96426 10.93381 49.7884 10.93674 48.75474 32.01638 60.9306"/><polygon class="cls-16" points="32.01638 60.9306 52.83269 48.83348 52.82976 49.86714 32.01345 61.96426 32.01638 60.9306"/><polygon class="cls-13" points="10.93674 48.75474 31.90793 36.6895 52.83269 48.83348 32.01638 60.9306 10.93674 48.75474"/></g><g class="cls-11"><polygon class="cls-10" points="46.25982 48.50099 32.26562 60.98332 32.26986 62.47791 46.27652 54.39116 46.25982 48.50099"/><polygon class="cls-27" points="46.25982 48.50099 21.97086 34.71042 7.97666 47.19275 32.26562 60.98332 46.25982 48.50099"/><polygon class="cls-10" points="32.26562 60.98332 7.97666 47.19275 7.9809 48.68734 32.26986 62.47791 32.26562 60.98332"/></g><polygon class="cls-7" points="56.11599 47.91349 46.07804 48.53257 22.02573 34.73896 32.63854 34.47364 56.11599 47.91349"/></g><polygon class="cls-10" points="46.12226 54.50228 56.02755 48.70945 56.02755 47.91349 46.16648 48.48835 46.12226 54.50228"/><polygon class="cls-22" points="14.93628 56.9292 14.93628 65.47778 20.49985 68.78509 20.49985 60.06553 14.93628 56.9292"/><polygon class="cls-22" points="22.5013 61.2776 22.5013 69.82618 28.06487 73.13348 28.06487 64.41393 22.5013 61.2776"/></g><path class="cls-8" d="M38.91189,77.58878s8.40186-4.80106,8.11945-4.58925,0-13.69887,0-13.69887l-8.26065,4.37744s-.14121,13.91068,.14121,13.91068Z"/></g><g><path class="cls-15" d="M33.20071,127.01519c.00075-.02183,.00087-.04333,0-.06522v-41.59632h-2.94056v41.56712c-.0025,.03933-.00266,.07808,0,.11741v.00929h.00119c.0212,.27154,.15993,.53891,.42737,.74646,.57833,.44883,1.51245,.44883,2.08705,0,.2657-.20755,.4022-.47492,.4211-.74646h.00385v-.03229Z"/><g><path class="cls-7" d="M56.62235,70.28765l-.01197,4.22008c-.01018,3.59224-2.37186,7.17874-7.08735,9.91909-9.49029,5.51516-24.92869,5.51904-34.48767,.00017-4.8069-2.77526-7.20765-6.41941-7.19734-10.05798l.01195-4.22007c-.0103,3.63857,2.39045,7.28271,7.19735,10.05798,9.55898,5.51888,24.99737,5.51499,34.48767-.00017,4.71549-2.74034,7.07718-6.32685,7.08736-9.91909Z"/><g class="cls-14"><g class="cls-11"><path class="cls-7" d="M56.62235,70.28765l-.01196,4.22008c-.0002,.0714-.00133,.1428-.00339,.2142l.01196-4.22008c.00206-.07139,.00319-.14279,.00339-.2142"/><path class="cls-7" d="M56.61896,70.50185l-.01196,4.22008c-.01349,.46732-.06679,.93425-.1599,1.39896l.01196-4.22008c.09311-.46471,.14641-.93164,.1599-1.39896"/><path class="cls-7" d="M56.45906,71.90081l-.01196,4.22008c-.09225,.4604-.22357,.91861-.39399,1.37282l.01196-4.22008c.17041-.45422,.30174-.91243,.39399-1.37282"/><path class="cls-7" d="M56.06508,73.27363l-.01196,4.22008c-.17521,.467-.39173,.92978-.64957,1.38639l.01196-4.22008c.25784-.45661,.47436-.91939,.64957-1.38639"/><path class="cls-7" d="M55.41551,74.66002l-.01196,4.22008c-.27884,.4938-.60601,.98038-.98152,1.45726l.01196-4.22008c.3755-.47688,.70267-.96346,.98152-1.45726"/><path class="cls-7" d="M54.43399,76.11729l-.01196,4.22008c-.43834,.55669-.94255,1.10017-1.51263,1.6265l.01196-4.22008c.57008-.52633,1.07429-1.06981,1.51263-1.6265"/><path class="cls-7" d="M52.92136,77.74379l-.01196,4.22008c-.87454,.80742-1.9041,1.57449-3.08872,2.28699l.01196-4.22008c1.18462-.7125,2.21419-1.47957,3.08872-2.28699"/><path class="cls-7" d="M49.83263,80.03078l-.01196,4.22008c-.09815,.05903-.19736,.11769-.29764,.17597-1.62671,.94534-3.42819,1.72876-5.34485,2.35019l.01196-4.22008c1.91667-.62143,3.71814-1.40485,5.34485-2.35019,.10028-.05828,.19949-.11693,.29764-.17597"/><path class="cls-7" d="M44.19014,82.55694l-.01196,4.22008c-1.47953,.4797-3.02771,.86289-4.61713,1.14952l.01196-4.22008c1.58942-.28663,3.13759-.66982,4.61713-1.14952"/><path class="cls-7" d="M39.57301,83.70646l-.01196,4.22008c-1.02233,.18437-2.06173,.32879-3.1109,.43326l.01196-4.22008c1.04917-.10447,2.08857-.24889,3.1109-.43326"/><path class="cls-7" d="M36.46211,84.13972l-.01196,4.22008c-.89575,.08919-1.79862,.14927-2.70408,.18021l.01196-4.22008c.90546-.03095,1.80833-.09102,2.70408-.18021"/><path class="cls-7" d="M33.75803,84.31993l-.01196,4.22008c-.83143,.02842-1.66504,.03228-2.49731,.01157l.01196-4.22008c.83228,.0207,1.66589,.01684,2.49731-.01157"/><path class="cls-7" d="M31.26072,84.3315l-.01196,4.22008c-.80279-.01997-1.60434-.06279-2.4015-.12847l.01196-4.22008c.79716,.06568,1.59871,.1085,2.4015,.12847"/><path class="cls-7" d="M28.85922,84.20304l-.01196,4.22008c-.79554-.06554-1.5867-.15385-2.37036-.26492l.01196-4.22008c.78366,.11107,1.57482,.19937,2.37036,.26492"/><path class="cls-7" d="M26.48886,83.93812l-.01196,4.22008c-.81503-.11552-1.62194-.25566-2.4172-.42043l.01196-4.22008c.79526,.16477,1.60217,.30491,2.4172,.42043"/><path class="cls-7" d="M24.07166,83.5177l-.01196,4.22008c-.86302-.17881-1.71232-.38662-2.5434-.62343l.01196-4.22008c.83108,.23682,1.68038,.44463,2.5434,.62343"/><path class="cls-7" d="M21.52826,82.89426l-.01196,4.22008c-1.01723-.28986-2.00716-.62318-2.96154-.99996l.01196-4.22008c.95438,.37678,1.94431,.7101,2.96154,.99996"/><path class="cls-7" d="M18.56673,81.8943l-.01196,4.22008c-1.2391-.48919-2.41826-1.05165-3.5194-1.68739-4.8069-2.77526-7.20765-6.41941-7.19734-10.05798l.01196-4.22008c-.01032,3.63857,2.39044,7.28272,7.19734,10.05798,1.10114,.63574,2.2803,1.1982,3.5194,1.68739"/></g></g></g><ellipse class="cls-10" cx="32.23494" cy="70.21855" rx="14.12544" ry="24.38668" transform="translate(-38.07471 102.2543) rotate(-89.83757)"/></g><g><g><g><g class="cls-11"><polygon class="cls-21" points="31.05967 61.75759 31.14388 82.19517 53.27413 69.41826 53.18992 48.98068 31.05967 61.75759"/><polygon class="cls-17" points="31.05967 61.75759 11.50254 50.39223 11.58675 70.82981 31.14388 82.19517 31.05967 61.75759"/><polygon class="cls-13" points="53.18992 48.98068 33.6328 37.61532 11.50254 50.39223 31.05967 61.75759 53.18992 48.98068"/></g><g class="cls-11"><polygon class="cls-12" points="32.01638 60.9306 32.01345 61.96426 10.93381 49.7884 10.93674 48.75474 32.01638 60.9306"/><polygon class="cls-16" points="32.01638 60.9306 52.83269 48.83348 52.82976 49.86714 32.01345 61.96426 32.01638 60.9306"/><polygon class="cls-13" points="10.93674 48.75474 31.90793 36.6895 52.83269 48.83348 32.01638 60.9306 10.93674 48.75474"/></g><g class="cls-11"><polygon class="cls-10" points="46.25982 48.50099 32.26562 60.98332 32.26986 62.47791 46.27652 54.39116 46.25982 48.50099"/><polygon class="cls-27" points="46.25982 48.50099 21.97086 34.71042 7.97666 47.19275 32.26562 60.98332 46.25982 48.50099"/><polygon class="cls-10" points="32.26562 60.98332 7.97666 47.19275 7.9809 48.68734 32.26986 62.47791 32.26562 60.98332"/></g><polygon class="cls-7" points="56.11599 47.91349 46.07804 48.53257 22.02573 34.73896 32.63854 34.47364 56.11599 47.91349"/></g><polygon class="cls-10" points="46.12226 54.50228 56.02755 48.70945 56.02755 47.91349 46.16648 48.48835 46.12226 54.50228"/><polygon class="cls-22" points="14.93628 56.9292 14.93628 65.47778 20.49985 68.78509 20.49985 60.06553 14.93628 56.9292"/><polygon class="cls-22" points="22.5013 61.2776 22.5013 69.82618 28.06487 73.13348 28.06487 64.41393 22.5013 61.2776"/></g><path class="cls-8" d="M38.91189,77.58878s8.40186-4.80106,8.11945-4.58925,0-13.69887,0-13.69887l-8.26065,4.37744s-.14121,13.91068,.14121,13.91068Z"/></g><g><path class="cls-6" d="M42.03868,83.0761l14.93058-8.18272c.34405-.18856,.55881-.54488,.56241-.93317l.06979-7.52225c.01293-1.39364-.3191-2.7782-1.02138-3.98809-.16646-.28678-.35145-.56097-.55383-.79833-1.06094-1.24433-2.94394-2.67181-4.65712-1.72495l-16.0668,8.74487c-.56482,.31233-.91683,.89893-.92276,1.53772l-.0739,7.96601c-.00676,.72906,.37635,1.40733,1.00883,1.78522,1.55108,.92673,4.45081,2.48343,5.64927,3.12228,.33626,.17925,.741,.17642,1.07492-.00659Z"/><path class="cls-1" d="M37.33899,74.72592l.02345-2.52774c.00807-.86978,.48383-1.66961,1.24955-2.10071l15.97229-8.97088"/><g><path class="cls-18" d="M42.9774,68.45191l-1.88129-1.06049c-.09839-.05546-.0984-.19535-.00002-.2507l1.25162-.70417c.04677-.02631,.10444-.02516,.15012,.00302l1.84871,1.14002c.09607,.05924,.0905,.19899-.00999,.25048l-1.21903,.62464c-.04413,.02261-.09691,.02156-.14011-.00279Z"/><path class="cls-18" d="M49.7289,64.62118l-1.88129-1.06049c-.09839-.05546-.0984-.19535-.00002-.2507l1.25162-.70417c.04677-.02631,.10444-.02516,.15012,.00302l1.84871,1.14002c.09607,.05924,.0905,.19899-.00999,.25048l-1.21903,.62464c-.04413,.02261-.09691,.02156-.14011-.00279Z"/><path class="cls-2" d="M42.61119,67.11456l.0223-2.40333c.00302-.3256,.18173-.62481,.46896-.78518l5.04745-2.81812c.62006-.34619,1.38793,.10023,1.38141,.80311l-.01234,1.33016"/></g><line class="cls-3" x1="56.39158" y1="65.04028" x2="42.0925" y2="73.3434"/><path class="cls-3" d="M41.3498,82.42725l.06771-7.29785c.01009-1.08737-.33539-2.14973-.98736-3.02712-.2979-.4009-.56391-.8082-.75313-.99012-1.501-1.44314-3.47309-1.78693-3.47309-1.78693"/></g><g><path class="cls-27" d="M48.82491,71.97361c-.40355,.24438-.71238,.79435-.70455,1.24034,.00336,.04312,.00678,.0937,.0134,.13117l.47754,2.48749,.00992,.04308c.04598,.24482,.25166,.31276,.48367,.17881l1.66091-.97165,.79747,1.31681c.05551,.08963,.16269,.09912,.27361,.03508,.04646-.02682,.09358-.06653,.1378-.11866,.13352-.15594,.19501-.36788,.15539-.50646l-.60993-1.94927c-.05611-.18535-.23262-.22235-.42181-.11312l-.03831,.02212c-.01092,.00869-.02207,.01651-.03344,.02307l-.01634,.0061-1.42452,.83612-.0322-1.573-.39922-.46339c-.04918-.06171-.02993-.19294,.04817-.29812,.02856-.03841,.06101-.06756,.0933-.08621,.05615-.03242,.11172-.03303,.14497,.00496l.09729,.11298c-.02114-.41948-.33577-.57608-.71311-.35822Z"/><path class="cls-27" d="M46.50474,73.81261c-.09786,.0565-.17914,.19727-.17881,.31346,.00032,.11245,.08212,.15907,.17999,.10257l.68501-.39549,.00413,1.45565,.00007,.02491c.00032,.11243,.07889,.16094,.17999,.10257,.10114-.05839,.18241-.19919,.18209-.31162l-.00108-.37981-.00371-1.30689c-.00033-.11619-.08213-.16281-.18327-.10442l-.86441,.49907Z"/><path class="cls-27" d="M47.96642,74.23393c-.14722,.15476-.28413,.3193-.41029,.49093l.00108,.37981c.00032,.11243-.08095,.25323-.18209,.31162-.10109,.05837-.17967,.00986-.17999-.10257l-.00007-.02491c-.38772,.70195-.59975,1.47247-.57864,2.17988,.01827,.6915,.27457,1.20054,.72282,1.42229,.42861,.21809,.98715,.15091,1.57101-.18618l.06848-.0433c.84151-.51212,1.5967-1.50376,1.97268-2.58058l-.3235-.00095c-.3176,.90795-.95236,1.73998-1.66013,2.17114-.02424,.01504-.04849,.02957-.0726,.04349-.48861,.2821-.95032,.33261-1.30891,.14966-.37624-.18824-.59312-.61117-.6078-1.19587-.02554-.92758,.39307-1.93891,1.12603-2.70746l-.13807-.30698Z"/><path class="cls-27" d="M49.29577,72.21391c-.0323,.01865-.06474,.04779-.0933,.0862-.0781,.10518-.09735,.23642-.04817,.29813l.39922,.46339,.71534,.83035c.01966,.0262,.04911,.03547,.08504,.02976l.61718-.10854,.03918-.01468,.01633-.0061c.01137-.00656,.02252-.01437,.03344-.02307,.05792-.04615,.10752-.1202,.12927-.20227,.02909-.11818-.01693-.20422-.10508-.19088l-.56168,.09903-.98451-1.14339-.09728-.11297c-.03326-.03798-.08882-.03737-.14497-.00496Z"/><path class="cls-27" d="M48.69023,70.34628c-.3523,.20335-.64503,.69616-.65656,1.1119-.01509,.4292,.26968,.61769,.63509,.42549,.01-.00524,.02-.01078,.02991-.0165,.35222-.20335,.64473-.69248,.65626-1.11175,.01514-.42922-.26968-.61769-.63504-.42551-.00991,.00521-.01982,.01071-.02964,.01638Z"/></g><polygon class="cls-20" points="69.7003 65.75968 69.44348 68.28903 70.88582 69.97543 70.87843 69.99617 69.27798 69.85793 69.01623 72.4011 68.26157 69.77593 66.63702 69.62909 66.62505 69.6053 67.80204 68.13225 67.06896 65.5421 67.07635 65.52136 68.51869 67.20776 69.68594 65.74289 69.7003 65.75968"/><polygon class="cls-20" points="63.11871 38.22191 62.86189 40.75126 64.30423 42.43766 64.29684 42.45839 62.69639 42.32016 62.43465 44.86332 61.67998 42.23815 60.05543 42.09131 60.04347 42.06753 61.22045 40.59447 60.48737 38.00432 60.49476 37.98359 61.9371 39.66998 63.10435 38.20512 63.11871 38.22191"/><g><g class="cls-11"><polygon class="cls-9" points="30.07943 33.88649 30.03977 47.87745 7.5196 34.87543 7.55927 20.88447 30.07943 33.88649"/><polygon class="cls-24" points="30.07943 33.88649 33.47044 31.91586 33.43077 45.90682 30.03977 47.87745 30.07943 33.88649"/><polygon class="cls-24" points="7.55927 20.88447 10.95027 18.91383 33.47044 31.91586 30.07943 33.88649 7.55927 20.88447"/></g><g><path class="cls-26" d="M9.32907,27.24976c-.09317-.05379-.16292-.18348-.16256-.30852,.00035-.12501,.06277-.16947,.16378-.1201l1.27452,.73585c.09317,.05379,.1551,.17899,.15475,.30401-.00035,.12504-.0628,.1784-.15596,.12461l-1.27452-.73585Z"/><path class="cls-26" d="M10.95156,28.76788c-.00035,.12501-.06266,.16956-.15594,.11571l-1.68633-.9736c-.09327-.05385-.16294-.1746-.16259-.29961,.00038-.13392,.06269-.17847,.1638-.12901l1.68633,.9736c.09327,.05385,.15508,.18792,.15472,.31291Z"/><path class="cls-26" d="M13.45483,29.89117c.09327,.05385,.17069,.19693,.17031,.33085-.00035,.12501-.07832,.17839-.1716,.12453l-1.3289-.76724-.0001,.03572-.00025,.08932c-.00129,.45538-.00147,.51789-.0096,.66524l.85482,.49353c.14767,.08526,.24853,.17927,.3027,.29104,.08525,.12972,.09284,.20566,.09196,.51819-.00223,.7858-.06746,1.82147-.13043,2.06236-.07858,.27662-.22658,.30745-.56851,.11004-.62167-.35892-.78464-.51562-.78406-.721,.00043-.15178,.0939-.20517,.23378-.12441l.09325,.06281c.08543,.06719,.31851,.22861,.38838,.26896,.13997,.08081,.21786,.0542,.24942-.09749,.07073-.25435,.09565-.77661,.12155-1.68289l.00018-.06253c.00038-.13394-.03842-.19212-.14719-.25492l-.72275-.41728c-.04901,.83034-.19861,1.42373-.48774,1.82029-.19539,.28968-.37476,.40078-.50682,.32453-.11659-.06731-.22506-.23727-.22468-.37121,.00025-.0893,.00796-.08485,.1328-.18271,.5463-.49849,.7115-1.12762,.70079-2.82425l.00023-.08037,.00046-.16073-.51287-.29611c-.10109-.05836-.1785-.20144-.17812-.33539,.00038-.13392,.07061-.17389,.17941-.12l.80042,.46212,.00182-.64295c.00035-.12501,.07828-.16947,.20266-.09766,.12427,.07175,.21729,.2149,.21694,.33991l-.00182,.64295,1.03358,.59674Z"/><path class="cls-26" d="M10.60581,29.91883c.08548,.04935,.14744,.16565,.14709,.29064-.00035,.12501-.06277,.16947-.14825,.12012l-1.28221-.74028c-.09317-.05379-.16292-.18348-.16259-.29959,.00035-.12499,.06275-.16055,.16375-.11117l1.28221,.74028Z"/><path class="cls-26" d="M10.44038,30.62832c.23315,.13461,.35713,.34033,.35637,.60822l-.00309,1.08941c-.00076,.26789-.12552,.33896-.35868,.20435l-.96359-.55633c-.23315-.13461-.34932-.34478-.34856-.61267l.00309-1.08941c.00076-.26789,.11771-.33451,.35086-.19989l.96359,.55633Zm-.03498,1.34824l.00238-.83938c.00023-.08037-.03073-.14296-.10842-.18781l-.67604-.39031c-.0778-.04492-.10898-.02712-.10924,.06215l-.00238,.83938,.10853,.18788,.67604,.39031,.10913-.06221"/><path class="cls-26" d="M10.60801,29.14196c.08548,.04935,.14744,.16565,.14709,.29064-.00035,.12501-.06277,.16947-.14825,.12012l-1.28221-.74028c-.09317-.05379-.16292-.18348-.16259-.29959,.00035-.12499,.06277-.16947,.16375-.11117l1.28221,.74028Z"/><path class="cls-26" d="M17.33113,35.39377c-.00078,.27682-.12557,.34788-.3742,.20433l-1.54647-.89285c-.24095-.13911-.357-.34922-.35619-.63494l.00304-1.07157c.00081-.28572,.11765-.35245,.3586-.21334l1.54647,.89285c.24863,.14355,.37263,.34933,.37182,.63505l-.00306,1.08048Zm-.41153-.37176l.0023-.81259-.10842-.18781-1.24333-.71784-.10924,.06215-.0023,.81259,.10853,.1879,1.24333,.71784,.10913-.06224"/><path class="cls-26" d="M17.94831,31.85937c.25645,.14806,.38808,.37611,.38725,.67079l-.01149,4.05403c-.00066,.23217-.05546,.35258-.16447,.37014-.09347,.00864-.1868-.02735-.47433-.19336-.24865-.14356-.48176-.29603-.62154-.40357-.11651-.0941-.18613-.22374-.18578-.34875,.00046-.16073,.0939-.1962,.24155-.11095l.08546,.05826c.16312,.11207,.38073,.25561,.4895,.31841,.15547,.08976,.2022,.06305,.20266-.09768l.00666-2.34848-1.14235-.65954c-.24863-.14355-.37261-.35823-.3718-.64398l.00321-1.13403c.00081-.28577,.1256-.35683,.37423-.21329l1.18125,.68199Zm-.04348,1.5938l.00124-.43755-1.11124-.64158-.00089,.31254,.09292,.17887,1.01797,.58773m.0023-.81259l.00086-.30361-.10063-.17435-.91701-.52944-.0936,.06221-.00086,.30361,1.11124,.64158"/><path class="cls-26" d="M16.00879,32.31376c-.00078,.27682-.13328,.34343-.38191,.19988l-1.11906-.64609-.0081,2.85749c-.00038,.13392-.09391,.16936-.2105,.10205-.12425-.07174-.20948-.21039-.2091-.3443l.01248-4.40231c.00084-.29468,.12552-.37474,.38196-.22668l1.15796,.66855c.24863,.14355,.38031,.36268,.3795,.64845l-.00324,1.14296Zm-.4116-.31813l.00089-.31254-1.08795-.62813-.00124,.43755,.97918,.56533,.10913-.06221m.00195-.68758l.00086-.30361-.10074-.17441-.87811-.50698-.1091,.05326-.00086,.30361,1.08795,.62813"/><path class="cls-26" d="M23.29013,36.57131c.08548,.04935,.15524,.17012,.15488,.29514-.00033,.11608-.07057,.16498-.15605,.11562l-2.7354-1.57929c-.05468,.07576-.12493,.16042-.20306,.24053l2.26141,1.30563c.25642,.14805,.38814,.38509,.38731,.67977l-.00481,1.69662c-.00084,.29468-.13344,.37019-.38986,.22215l-2.46348-1.42229c-.25642-.14805-.38808-.37613-.38725-.67081l.00377-1.33051c-.33523,.2-.6001,.27071-.72448,.1989-.11657-.0673-.20943-.23721-.20905-.37115l.07041-.14715q.01563,.00006,.10907-.03541c.39722-.09268,.8417-.36376,1.07602-.63991l-1.04905-.60567c-.0933-.05386-.15523-.17907-.1549-.29515,.00035-.12501,.06275-.16055,.15607-.11561l1.25112,.72234c.07033-.12039,.1173-.19166,.14866-.27194l-1.22783-.70889c-.08548-.04935-.13971-.17011-.13938-.28616,.00033-.11611,.05504-.16499,.14052-.11564l1.3599,.78514c.04714-.16064,.07066-.22756,.10207-.32567l-.06211-.02694c-.24874-.14361-1.04921-.58787-1.17349-.65962-.23315-.13461-.29522-.21517-.29476-.3759,.00035-.12501,.04717-.17849,.14831-.13798q.02332,.00452,.27197,.14808c1.31331,.75824,1.96617,1.09939,3.02341,1.57563,.10893,.045,.13222,.05845,.15552,.0719,.13207,.07625,.20961,.21046,.2092,.35333-.00035,.12501-.06277,.16947-.17941,.12002-.30318-.12138-.76178-.35035-1.67121-.83068-.06279,.21418-.06287,.24095-.09428,.33911l2.10592,1.21586c.08548,.04935,.14742,.17453,.14709,.29061-.0003,.10715-.06275,.16055-.14823,.11119l-2.2303-1.28767c-.03925,.10256-.07051,.1829-.13308,.28094l2.54883,1.47157Zm-.73075,2.44024l.00073-.25896-2.37016-1.36841-.00073,.25896,.1006,.18333,2.16813,1.25177,.10142-.06669m.0018-.634l.00099-.34825-2.37016-1.36841-.00099,.34825,2.37016,1.36841m-.09805-1.12097l-2.16813-1.25177-.10129,.05782-.00063,.22321,2.37016,1.36841,.00063-.22321-.10074-.17446"/><polygon class="cls-26" points="26.10247 38.49018 26.85631 38.92541 26.85565 39.15758 26.10181 38.72235 26.10247 38.49018"/><path class="cls-26" d="M24.05768,37.67633l1.06457,.61463c.09327,.05385,.14742,.17458,.14709,.29064-.00035,.12504-.05498,.17397-.14825,.12012l-1.06457-.61463c-.08548-.04935-.15521-.17905-.15488-.29514,.00033-.11606,.06275-.16055,.15605-.11562Z"/><path class="cls-26" d="M24.9801,39.01386c.21766,.12566,.33376,.32686,.33302,.58581l-.00319,1.12515c-.00073,.25893-.11759,.32563-.33525,.19996l-.77713-.44868c-.22534-.1301-.33376-.31791-.333-.58578l.00319-1.12515c.00073-.25896,.10989-.3301,.33523-.2l.77713,.44868Zm-.03503,1.37507l.00248-.8751-.10844-.17886-.49739-.28717-.10131,.05776-.00248,.8751,.10065,.17439,.49739,.28717,.1091-.05328"/><path class="cls-26" d="M25.31207,37.24675l-1.42988-.82554c-.00432-.00207-.00853-.00433-.01276-.00677-.08611-.04971-.14246-.16911-.14212-.28837,.00035-.12501,.0628-.17838,.15607-.12453l1.42988,.82554c.08548,.04935,.14742,.17453,.14706,.29954s-.06277,.16947-.14825,.12012Z"/><path class="cls-26" d="M25.72971,38.18552c-.1638,.12903-.19496,.1379-.27265,.09305-.09327-.05385-.1785-.19253-.17817-.30861l.08596-.12031c.22607-.12883,.40566-.31136,.56982-.57438l.16355-.03971,.0932,.08062-.00769-.04022,.00043-.1518-.60606-.34991c-.0933-.05386-.15526-.17011-.15493-.28622,.00033-.11608,.06275-.16055,.15604-.10668l.60606,.34991,.00058-.20538c.0003-.10715,.07831-.14262,.19479-.07537,.10888,.06286,.18632,.18807,.18602,.29523l-.00058,.20538,.69936,.40377,.00058-.20538c.0003-.10715,.08601-.13817,.1949-.07531,.10877,.0628,.18621,.18801,.18591,.29516l-.00058,.20538,.60619,.34998c.08546,.04934,.15513,.17006,.1548,.28615-.00033,.11611-.07045,.1561-.15591,.10676l-.60619-.34998-.00041,.14287c-.0003,.10715-.0782,.14268-.18697,.07988l-.11649-.10303,.01532,.07148c-.00013,.04465-.00797,.05798-.07822,.15161l.94028,.54287c.06219,.03591,.11636,.13871,.11611,.22801s-.04704,.13384-.11702,.09343l-.99468-.57428-.00066,.23217,.83921,.48452,.11614,.2191-.117,.0845-.83921-.48452-.00066,.23217,.84701,.48902,.11616,.21911-.11702,.08449-.84701-.48902-.00071,.25003,1.03358,.59674c.06208,.03584,.11636,.13874,.11609,.23696-.00025,.0893-.05494,.12928-.11702,.09343l-2.19922-1.26972c-.20986-.12116-.32605-.32238-.32537-.56348l.00235-.83048Zm.54674-.65926c-.00013,.04465-.01575,.08035-.07057,.165l.69165,.39932c.05471-.08472,.07823-.11585,.10951-.19618l.14803-.03976,.12425,.11648-.0154-.08047,.00041-.14287-.69936-.40377-.00043,.1518c-.0003,.10718-.07817,.13375-.18706,.07089l-.10093-.07614-.0001,.03569m-.1755,1.49969l-.00041,.14287,.09297,.16101,.66056,.38138,.00071-.25003-.75384-.43523m.00273-.96439l-.00035,.12501,.75384,.43523,.00066-.23217-.66056-.38138-.09358,.0533"/><path class="cls-26" d="M28.24749,42.42083c.13201,.09408,.19398,.21035,.19367,.31751-.00038,.13397-.07835,.18732-.19491,.12002-.03111-.01796-.06998-.0404-.1632-.12106-.39608-.30917-.72202-.63152-1.11003-1.0702-.4203-.00117-1.15927-.1684-1.40021-.30751-.10877-.0628-.19398-.21038-.19365-.32649l.10928-.11579c.03113,.00903,.03895,.0046,.13227,.04059,.30323,.10352,.69991,.20732,.96451,.23487-.24812-.33108-.48841-.70236-.69749-1.10034l-.22534-.1301c-.07769-.04485-.13184-.15661-.13153-.26377s.05491-.15613,.1326-.11127l2.22251,1.28317c.16328,.09427,.26401,.23292,.26368,.34901-.00058,.20538-.31239,.37418-.77961,.42642,.24062,.2552,.59777,.55981,.87746,.77495Zm-1.27321-1.20021l.02334-.00441c.27251-.00366,.57622-.06981,.5764-.13231l-.10093-.07616-1.13456-.65504c.18593,.2952,.3875,.58149,.63575,.86792"/><path class="cls-26" d="M25.12446,37.51409c.09327,.05385,.14744,.16565,.14712,.28171-.00035,.12501-.0628,.1784-.14828,.12905l-1.06457-.61463c-.08548-.04935-.15521-.17905-.15486-.30407,.00033-.11606,.06275-.16055,.15602-.10669l1.06457,.61463Z"/><path class="cls-26" d="M24.0632,35.72968c-.08548-.04935-.15521-.17905-.15488-.29514,.00035-.12501,.06277-.16947,.15607-.12455l1.05687,.61018c.09319,.0538,.15513,.179,.15477,.30402-.00033,.11608-.06277,.16947-.15596,.11567l-1.05687-.61018Z"/></g></g><g><g class="cls-11"><polygon class="cls-9" points="53.65391 47.6836 53.61425 61.67456 31.09408 48.67254 31.13375 34.68158 53.65391 47.6836"/><polygon class="cls-24" points="53.65391 47.6836 57.04492 45.71297 57.00525 59.70393 53.61425 61.67456 53.65391 47.6836"/><polygon class="cls-24" points="31.13375 34.68158 34.52475 32.71094 57.04492 45.71297 53.65391 47.6836 31.13375 34.68158"/></g><g><path class="cls-7" d="M33.66357,43.77523c.25892,.14949,.39658,.38789,.39574,.68539l-.00343,1.20982c-.00084,.2975-.13937,.36651-.39829,.21702l-1.0701-.61782c-.25892-.14949-.38795-.37298-.38711-.67047l.00343-1.20982c.00084-.2975,.13074-.38142,.38967-.23193l1.0701,.61782Zm-.03887,1.5072l.00264-.93216c.00025-.08925-.03413-.15876-.1204-.20857l-.75076-.43345c-.0864-.04988-.12103-.03014-.12131,.06902l-.00264,.93216,.12052,.20864,.75076,.43345,.12119-.06909"/><path class="cls-7" d="M33.84726,42.99727c.09493,.05481,.16374,.18393,.16335,.32276s-.06971,.18821-.16464,.1334l-1.42393-.82211c-.10346-.05974-.18093-.20378-.18056-.3327,.00039-.13883,.06971-.18821,.18185-.12346l1.42393,.82211Z"/><path class="cls-7" d="M33.8497,42.13453c.09493,.05481,.16374,.18393,.16335,.32276s-.06971,.18821-.16464,.1334l-1.42393-.82211c-.10346-.05974-.18093-.20378-.18056-.3327,.00039-.13883,.06971-.18821,.18185-.12346l1.42393,.82211Z"/><path class="cls-7" d="M32.4294,40.03319c-.10346-.05974-.1809-.2137-.18053-.34262,.00039-.13883,.06971-.18821,.18188-.13335l1.41539,.81718c.10346,.05974,.17225,.19875,.17185,.33758-.00037,.12892-.06974,.19812-.1732,.13839l-1.41539-.81718Z"/><path class="cls-7" d="M34.23122,41.7191c-.00039,.13883-.06959,.18828-.17317,.12847l-1.87271-1.08121c-.10358-.0598-.18095-.19387-.18056-.3327,.00042-.14875,.06962-.19819,.18191-.14329l1.87271,1.08121c.10358,.0598,.17222,.20869,.17183,.34752Z"/><path class="cls-7" d="M37.01117,42.96653c.10358,.0598,.18955,.2187,.18913,.36747-.00039,.1388-.08698,.19807-.19056,.13827l-1.47578-.85204-.00011,.03967-.00028,.09917c-.00143,.50574-.00163,.57516-.01067,.7388l.9493,.54808c.16399,.09468,.276,.19908,.33616,.32321,.09468,.14406,.10311,.22839,.10212,.57546-.00247,.87266-.07491,2.02277-.14485,2.29031-.08726,.3072-.25162,.34143-.63134,.1222-.69038-.39859-.87136-.57261-.87072-.80069,.00048-.16858,.10428-.22784,.25962-.13816l.10356,.06972c.09487,.07464,.35371,.25388,.43131,.29868,.15544,.08974,.24194,.06022,.27699-.10826,.07858-.29235,.10622-.86242,.13498-1.86889l.0002-.06942c.00042-.14875-.04266-.21335-.16346-.2831l-.80264-.4634c-.05443,.92212-.22056,1.5811-.54164,2.02148-.21696,.31178-.41618,.44511-.56284,.36043-.12947-.07475-.2499-.27341-.24951-.41224,.00028-.09917,.00884-.09422,.14748-.20293,.60668-.55361,.79014-1.25225,.77827-3.14633l.00022-.07933,.00051-.1785-.56956-.32883c-.11226-.06481-.19823-.22371-.19781-.37246s.07842-.19311,.19924-.13329l.88889,.5132,.00205-.72391c.00039-.13883,.0869-.17828,.22503-.09853,.13801,.07968,.24134,.22873,.24095,.36756l-.00205,.72391,1.14782,.66269Z"/><path class="cls-7" d="M41.31592,49.07733c-.00087,.30741-.13945,.38633-.41556,.22692l-1.7174-.99154c-.26758-.15449-.39646-.38782-.39556-.70515l.0034-1.1999c.00087-.30741,.13062-.38149,.3982-.22701l1.7174,.99154c.27611,.15941,.41382,.38791,.41295,.69532l-.00343,1.20982Zm-.45702-.41285l.00256-.90241-.1204-.20857-1.38075-.79718-.12131,.06902-.00256,.90241,.12052,.20864,1.38075,.79718,.12119-.06909"/><path class="cls-7" d="M42.00131,45.15229c.28479,.16442,.43097,.41768,.43005,.74493l-.01276,4.50211c-.00073,.25783-.06159,.39155-.18264,.41105-.1038,.0096-.20745-.03035-.52676-.2147-.27614-.15943-.535-.32878-.69021-.45812-.12942-.09459-.20673-.23855-.20634-.37738,.00051-.1785,.10428-.21791,.26825-.12325l.09493,.05481c.18112,.1344,.42278,.29375,.54357,.3635,.17265,.09968,.22455,.07005,.22506-.10845l.00739-2.60805-1.26861-.73243c-.27611-.15941-.41379-.39783-.41289-.71516l.00357-1.2594c.0009-.31733,.13948-.39625,.41559-.23683l1.31181,.75737Zm-.04829,1.76995l.00138-.48591-1.23407-.71249-.00098,.34711,.10319,.19861,1.13048,.65269m.00256-.90241l.00096-.33716-.11175-.19365-1.01837-.58795-.10395,.06911-.00096,.33716,1.23407,.71249"/><path class="cls-7" d="M39.84745,45.64699c-.0009,.31733-.14804,.3913-.42415,.23189l-1.24275-.7175-.009,3.17329c-.00042,.14875-.10429,.18811-.23376,.11336-.13798-.07967-.23263-.23364-.23221-.38239l.01386-4.88886c.00093-.32725,.13939-.41616,.42418-.25174l1.28594,.74244c.27611,.15941,.42235,.40277,.42145,.7201l-.00357,1.2594Zm-.45712-.34335l.00098-.34711-1.2082-.69756-.00138,.48591,1.08741,.62781,.12119-.06906m.00216-.7636l.00096-.33716-.11187-.19372-.97517-.56301-.12116,.05917-.00096,.33716,1.2082,.69756"/><path class="cls-7" d="M46.63026,49.72197c.14669,.08469,.25847,.26842,.25807,.40725l-.00902,3.18324c-.00039,.13883-.11282,.18315-.25951,.09847-.14678-.08474-.25009-.24371-.24966-.39244l.00902-3.18324c.00039-.13883,.11299-.19302,.2511-.11328Z"/><path class="cls-7" d="M44.55903,48.52615c.13801,.07968,.24996,.25358,.24957,.39241l-.00278,.98174c-.00245,.86274-.12476,1.31856-.43671,1.59539-.23402,.21251-.60593,.29577-.79579,.18615-.1381-.07973-.24997-.28335-.24952-.44205,.00037-.12892,.02646-.15358,.19068-.17796,.56218-.08267,.8054-.51835,.79077-1.43068l.00284-1.00157c.00039-.13883,.10417-.18818,.25095-.10343Z"/><path class="cls-7" d="M47.92507,50.35034c.15509,.17893,.21525,.29313,.21485,.43196-.00051,.1785-.11314,.25253-.24249,.17785-.16397-.09467-.57745-.61151-1.05957-1.30704-.55953-.80975-.84342-1.2915-1.27327-2.14558-.44222,.48965-.92703,.73617-1.63603,.8334-.33735,.05355-.59669,.05281-.70016-.00692-.12947-.07475-.24985-.29324-.24937-.46182l.11276-.15342q.02592-.0049,.12968-.00459c.78646,.04682,1.55666-.25346,2.00761-.75793,.09541-.11377,.19051-.11844,.33717-.03376,.16399,.09468,.21561,.16419,.38759,.50186,.52419,1.0774,1.14408,1.98159,1.97124,2.92599Z"/><path class="cls-7" d="M53.43883,56.88106c.14661,.10454,.21545,.22372,.21508,.35263-.00042,.14875-.08701,.20805-.21646,.13331-.03454-.01994-.07772-.04487-.18124-.13444-.43983-.35326-.80182-.70132-1.23272-1.18851-.46676-.0013-1.2874-.18704-1.55498-.34153-.1208-.06974-.21542-.23363-.21502-.37244l.12133-.1187c.03457,.01006,.04325,.00511,.14689,.04508,.33675,.11496,.77727,.23024,1.07111,.26083-.27555-.36767-.54239-.77999-.77458-1.22196l-.25025-.14448c-.08628-.04981-.14641-.17392-.14607-.29292,.00037-.12892,.06098-.17338,.14725-.12357l2.46816,1.42499c.18133,.10469,.29322,.24875,.29283,.38758-.00065,.22808-.34692,.41554-.86578,.47355,.26724,.27351,.66384,.62165,.97444,.86058Zm-1.41393-1.33284l.02592-.0049c.30263-.00407,.63991-.07752,.64011-.14694l-.11209-.08458-1.25996-.72744c.20648,.3278,.43033,.64576,.70601,.96385"/><polygon class="cls-7" points="51.05673 52.51598 51.89389 52.99932 51.89316 53.25715 51.056 52.77381 51.05673 52.51598"/><path class="cls-7" d="M50.17897,51.13512l-1.58792-.91679c-.0048-.0023-.00947-.00481-.01417-.00752-.09563-.05521-.15821-.1878-.15783-.32024,.00039-.13883,.06974-.19812,.17332-.13832l1.58792,.91679c.09493,.05481,.16371,.19385,.16332,.33268-.00039,.13886-.06971,.18821-.16464,.1334Z"/><path class="cls-7" d="M49.97065,51.42209c.10358,.0598,.16371,.19385,.16335,.32276-.00039,.13883-.06974,.19812-.16467,.14331l-1.18224-.68257c-.09493-.05481-.17237-.19884-.17197-.33768,.00037-.12892,.06968-.17829,.17329-.1284l1.18224,.68257Z"/><path class="cls-7" d="M48.78593,51.61218l1.18224,.68257c.10358,.0598,.16371,.19385,.16335,.32276-.00037,.12894-.06106,.1932-.16464,.1334l-1.18224-.68257c-.09493-.05481-.17237-.19882-.172-.32776,.00037-.12892,.06968-.17829,.17329-.1284Z"/><path class="cls-7" d="M49.8103,53.09755c.24171,.13955,.37067,.35307,.36983,.65056l-.00354,1.24948c-.00082,.28761-.13056,.35173-.37228,.21218l-.86303-.49827c-.25025-.14448-.37065-.35303-.36983-.64063l.00354-1.24948c.00084-.2975,.12203-.36659,.37228-.22211l.86303,.49827Zm-.03891,1.52705l.00276-.97182-.12043-.19866-.55237-.31891-.11251,.06417-.00276,.97182,.11178,.19366,.55237,.31891,.12116-.05917"/><g class="cls-11"><path class="cls-7" d="M48.79206,49.45038c-.09493-.05481-.17237-.19884-.172-.32776,.00039-.13883,.06971-.18821,.17332-.13832l1.17368,.67763c.10349,.05975,.17227,.19879,.17188,.33762-.00037,.12892-.06971,.18821-.1732,.12846l-1.17368-.67763Z"/><path class="cls-7" d="M50.64277,52.17766c-.18191,.14329-.21651,.15311-.30279,.1033-.10358-.0598-.19823-.21378-.19787-.34269l.09546-.13361c.25109-.15302,.4505-.3458,.63281-.63786l.18163-.04413,.1035,.08955-.00854-.04466,.00048-.16858-.67305-.38858c-.10361-.05982-.17242-.18894-.17205-.31786s.06968-.17829,.17329-.11847l.67305,.38858,.00065-.22808c.00034-.119,.08696-.15838,.21632-.0837,.12092,.06981,.20692,.20886,.20658,.32786l-.00065,.22808,.77665,.4484,.00065-.22808c.00034-.119,.09552-.15344,.21644-.08363,.1208,.06974,.2068,.20879,.20646,.32779l-.00065,.22808,.67319,.38867c.09491,.05479,.17228,.18886,.17191,.31777s-.07824,.17335-.17315,.11855l-.67319-.38867-.00045,.15866c-.00034,.119-.08681,.14853-.20761,.07879l-.12939-.1045,.01702,.07935c-.00014,.04958-.00885,.06442-.08687,.16837l1.04421,.60287c.06906,.03987,.12923,.15407,.12894,.25324s-.05221,.13871-.12993,.09384l-1.10462-.63775-.00076,.26775,.93197,.53807,.12897,.24332-.12993,.09384-.93197-.53807-.00073,.25783,.94062,.54307,.129,.24333-.12995,.09383-.94062-.54307-.00079,.27766,1.14782,.66269c.06894,.0398,.12923,.15407,.12892,.26315-.00028,.09917-.06098,.13365-.12993,.09384l-2.44229-1.41006c-.23306-.13456-.36211-.34813-.36136-.61587l.00261-.92224Zm.60717-.7321c-.00014,.04956-.01749,.0892-.07836,.18318l.7681,.44346c.06075-.09405,.08691-.13855,.12161-.21784l.16439-.04415,.13799,.12933-.01711-.08934,.00045-.15866-.77665-.4484-.00048,.16858c-.00034,.119-.08681,.14853-.20773,.07872l-.11209-.08458-.00011,.03969m-.19489,1.66542l-.00045,.15866,.10325,.1788,.73357,.42353,.00079-.27766-.83716-.48333m.00304-1.07096l-.00039,.1388,.83716,.48333,.00076-.26775-.73357-.42353-.10395,.06914"/></g></g></g></g></svg>