<?xml version="1.0" encoding="UTF-8"?><svg id="_レイヤー_2" xmlns="http://www.w3.org/2000/svg" xmlns:xlink="http://www.w3.org/1999/xlink" viewBox="0 0 48.77243 95.51916"><defs><style>.cls-1{fill:#3f7c9f;}.cls-2{fill:#b8a286;}.cls-3{fill:#c5c5c5;}.cls-4{fill:#82b373;}.cls-5{fill:#7ab25a;}.cls-6{fill:#e24963;}.cls-7{fill:#fbfbfd;}.cls-8{fill:#a39077;}.cls-9{isolation:isolate;}.cls-10{fill:#cccbd4;}.cls-11{fill:#898989;}.cls-12{fill:#b6b6be;}.cls-13{fill:#cdb595;}.cls-14{fill:#7fcaf1;}.cls-15{fill:url(#_名称未設定グラデーション_78);}.cls-16{fill:#dddde6;}.cls-17{fill:#d3d3dc;}.cls-18{fill:#5daddd;}.cls-19{fill:#c5c8cc;}.cls-20{fill:#e7e6ef;}.cls-21{fill:#bebdc5;}</style><linearGradient id="_名称未設定グラデーション_78" x1="23.87981" y1="48.07862" x2="23.87981" y2="119.40873" gradientUnits="userSpaceOnUse"><stop offset="0" stop-color="#949494"/><stop offset="1" stop-color="#000"/></linearGradient></defs><g id="_レイヤー_1-2"><g><g><path class="cls-15" d="M25.35076,94.40379c.00075-.02183,.00087-.04333,0-.06522V52.74226h-2.94056v41.56712c-.0025,.03933-.00266,.07808,0,.11741v.00929h.00119c.0212,.27154,.15993,.53891,.42737,.74646,.57833,.44883,1.51245,.44883,2.08705,0,.2657-.20755,.4022-.47492,.4211-.74646h.00385v-.03229Z"/><ellipse class="cls-14" cx="24.38498" cy="37.60715" rx="14.12544" ry="24.38668" transform="translate(-13.29114 61.88542) rotate(-89.83757)"/></g><path class="cls-15" d="M25.35076,94.40379c.00075-.02183,.00087-.04333,0-.06522V52.74226h-2.94056v41.56712c-.0025,.03933-.00266,.07808,0,.11741v.00929h.00119c.0212,.27154,.15993,.53891,.42737,.74646,.57833,.44883,1.51245,.44883,2.08705,0,.2657-.20755,.4022-.47492,.4211-.74646h.00385v-.03229Z"/><g><g class="cls-9"><polygon class="cls-11" points="21.40635 22.96114 21.45149 38.88112 36.19676 30.36793 36.15163 14.44795 21.40635 22.96114"/><polygon class="cls-3" points="21.40635 22.96114 11.15381 16.54598 13.82376 34.34276 21.45149 38.88112 21.40635 22.96114"/><polygon class="cls-13" points="36.15163 14.44795 25.81412 8.14946 11.15381 16.54598 18.78154 21.08435 36.15163 14.44795"/></g><g class="cls-9"><polygon class="cls-20" points="33.0273 29.94132 33.07243 45.8613 47.94249 37.12788 47.89736 21.2079 33.0273 29.94132"/><polygon class="cls-16" points="33.0273 29.94132 21.41168 22.97299 21.45681 38.89297 33.07243 45.8613 33.0273 29.94132"/><polygon class="cls-13" points="47.89736 21.2079 33.53214 12.58301 18.78686 21.0962 33.0273 29.94132 47.89736 21.2079"/></g><g class="cls-9"><polygon class="cls-20" points="12.81356 27.95287 12.85869 43.87285 21.69509 38.74963 21.64996 22.82965 12.81356 27.95287"/><polygon class="cls-16" points="12.81356 27.95287 2.56101 21.53772 2.60615 37.4577 12.85869 43.87285 12.81356 27.95287"/><polygon class="cls-13" points="25.56904 20.85604 17.30629 13.02453 2.56101 21.53772 12.98904 28.12535 25.56904 20.85604"/></g><polygon class="cls-18" points="44.50493 26.65989 44.50624 30.03498 45.73147 29.3428 45.73016 25.96772 44.50493 26.65989"/><polygon class="cls-18" points="42.13141 27.97 42.13272 31.34509 43.35795 30.65292 43.35664 27.27783 42.13141 27.97"/><polygon class="cls-18" points="37.97974 30.14749 37.98105 33.52258 39.20628 32.83041 39.20497 29.45532 37.97974 30.14749"/><polygon class="cls-18" points="35.60622 31.45761 35.60753 34.83269 36.83276 34.14052 36.83145 30.76543 35.60622 31.45761"/><polygon class="cls-18" points="29.02485 28.80682 29.02369 31.7857 27.9423 31.17478 27.94345 28.1959 29.02485 28.80682"/><polygon class="cls-1" points="30.46892 39.69679 30.46709 44.4315 25.60045 41.36154 25.60228 36.62683 30.46892 39.69679"/><polygon class="cls-18" points="31.11973 29.96314 31.11858 32.94201 30.03719 32.3311 30.03834 29.35222 31.11973 29.96314"/><polygon class="cls-18" points="23.9622 25.99424 23.96105 28.97311 22.87965 28.3622 22.8808 25.38332 23.9622 25.99424"/><polygon class="cls-18" points="26.05709 27.15055 26.05593 30.12943 24.97454 29.51851 24.97569 26.53964 26.05709 27.15055"/><polygon class="cls-17" points="24.15999 42.79102 24.17883 49.28292 25.17449 48.69934 25.15565 42.20744 24.15999 42.79102"/><polygon class="cls-21" points="24.15999 42.79102 23.17637 42.21072 23.19521 48.70261 24.17883 49.28292 24.15999 42.79102"/><g class="cls-9"><polygon class="cls-2" points="24.19451 40.18724 24.23306 43.20831 33.08132 38.08448 33.04278 35.06341 24.19451 40.18724"/><polygon class="cls-13" points="33.04278 35.06341 21.68601 28.25674 12.83774 33.38057 24.19451 40.18724 33.04278 35.06341"/><polygon class="cls-8" points="24.19451 40.18724 12.83774 33.38057 12.87629 36.40165 24.23306 43.20831 24.19451 40.18724"/></g><polygon class="cls-5" points="24.20584 41.52247 24.24438 42.0664 33.09265 36.94256 33.05411 36.39864 24.20584 41.52247"/><polygon class="cls-5" points="24.20584 41.52247 12.84907 34.71581 12.88761 35.25973 24.24438 42.0664 24.20584 41.52247"/></g><g class="cls-9"><polygon class="cls-7" points="40.00185 18.89718 39.97381 31.17306 10.06616 13.69011 10.0942 1.41423 40.00185 18.89718"/><polygon class="cls-19" points="40.00185 18.89718 42.399 17.48295 42.37096 29.75883 39.97381 31.17306 40.00185 18.89718"/><polygon class="cls-19" points="10.0942 1.41423 12.49135 0 42.399 17.48295 40.00185 18.89718 10.0942 1.41423"/></g><g><path class="cls-6" d="M15.61332,10.85685c.12647,.07302,.25278,.22123,.25234,.37659l-.00129,.45603,1.60924,.9291c.13954,.08056,.20029,.24112,.19991,.37643-.00037,.13029-.06184,.2253-.20138,.14474l-1.60924-.9291-.00234,.82687,1.03357,.59673c.26169,.15109,.41378,.42462,.41307,.67519-.00074,.26059-.30375,.82854-1.07299,.97672,.37895,.37941,.81477,.74147,1.35533,1.12885,.1308,.09057,.18285,.22604,.18251,.34631-.00044,.15536-.09687,.27035-.23209,.19228l-.01745-.01007c-.74545-.53077-1.34247-1.04612-1.83883-1.61882-.53289-.02155-1.20068-.21134-2.01209-.58946l-.0262-.01513c-.14392-.08309-.23068-.28376-.2303-.41907,.00034-.12027,.05732-.19781,.1969-.13228,.61957,.27238,1.13016,.44669,1.56681,.51308-.37857-.5348-.95219-1.5888-.95172-1.75417,.00038-.1353,.15335-.15239,.28852-.07436,.06105,.03524,.1264,.09807,.16988,.18341,.31705,.64484,.63442,1.17944,1.03053,1.66916,.71217-.04058,1.03681-.52578,1.03697-.5809l-.05659-.08286-2.83039-1.63412c-.13085-.07554-.19588-.24862-.19553-.37391,.00038-.1353,.06616-.22282,.19701-.14728l1.48715,.85861,.00234-.82687-1.61362-.93162c-.13085-.07554-.1959-.24361-.19553-.3739,.00038-.13531,.06616-.22282,.19701-.14728l1.61362,.93162,.00129-.45603c.00044-.15536,.12712-.15751,.25359-.08449Z"/><path class="cls-6" d="M20.21791,10.79942l-1.40434-.81079-.00141,.49611,1.13826,.65718c.23118,.13347,.3485,.33674,.34775,.60234l-.00296,1.04235c-.00075,.26562-.11884,.33296-.35002,.19949l-2.57308-1.48557c-.23116-.13346-.34855-.33675-.3478-.60237l.00296-1.04235c.00075-.2656,.11891-.33291,.35007-.19945l.99868,.57659,.00141-.49611-1.25598-.72514c-.13085-.07555-.19592-.23359-.19557-.35889,.00034-.12027,.06611-.20778,.19696-.13224l1.25598,.72514,.00125-.44099-1.461-.84351-.00034,.12027c-.00334,1.17766-.01495,2.19997-.2922,2.9183-.03957,.10264-.12698,.1074-.21422,.05703-.13079-.07551-.2613-.27133-.26082-.44171l.02208-.09769c.27719-.69328,.28859-1.62537,.29226-2.91827l.00271-.95717c.00077-.27061,.11886-.33295,.35002-.19949l3.1488,1.81796c.23112,.13344,.34851,.33173,.34775,.60234l-.00186,.65648c-.00075,.2656-.1189,.33293-.35002,.19949l-1.14701-.66223-.00125,.44099,1.40434,.81079c.13515,.07803,.20023,.24109,.19989,.36136-.00036,.1253-.06613,.20779-.20128,.12976Zm-.43024,.74045l-2.25034-1.29923c-.04797-.02769-.07424-.01776-.07439,.03735l-.002,.70661c-.00017,.06013,.02596,.10031,.07393,.128l2.25034,1.29923c.04797,.02769,.07426,.01778,.07443-.04235l.002-.70661c.00016-.05512-.02599-.09531-.07396-.12301m-2.8672-4.06977l2.86965,1.6568c.04797,.02769,.07427,.01275,.07443-.04237l.00088-.3107c.00016-.05514-.02598-.10034-.07394-.12803l-2.79986-1.6165c-.04797-.02769-.06988-.01023-.07003,.04491l-.00112,.39591"/><path class="cls-6" d="M22.26448,19.20445c.11765,.09302,.16535,.21593,.16508,.31115-.0004,.1403-.09678,.23526-.22323,.16225-.05668-.03273-.50549-.42738-.89732-.89956-.29702-.00082-.63759-.06192-1.08699-.25614l-.02614-.01509c-.12645-.07301-.22205-.27377-.22165-.41409,.0003-.10523,.05291-.17023,.17944-.11725,.29671,.13114,.56723,.23713,.76804,.27276-.26091-.40161-.49124-.83075-.6343-1.21451-.13649,.38801-.34718,.74323-.67983,.96277-.04814,.03245-.10052,.02731-.15723-.00544-.13085-.07555-.24815-.28382-.24771-.43916,.00016-.05514,.01338-.10271,.05713-.13268,.46835-.3269,.67071-.83753,.7508-1.33841l-.39691-.22915-.06541-.04781c-.01783,.14532-.02661,.15028-.45888,.08644l-.00392,1.38314c-.00107,.37584-.09315,.50338-.44209,.30192-.46226-.26689-.53601-.445-.53553-.61538,.00038-.13529,.07056-.22529,.20134-.14979l.03926,.0327c.09589,.07043,.16567,.12075,.20927,.14592,.06542,.03777,.07859,.01025,.07883-.07494l.00313-1.10252q-.29248-.06846-.33172-.09111c-.13083-.07554-.2263-.30132-.2259-.44164,.00027-.09522,.0441-.15525,.1445-.12238,.1484,.05055,.28368,.08849,.41464,.11892l.00332-1.17266-.28782-.16618c-.13085-.07555-.19591-.24361-.19557-.36388,.00037-.13029,.06614-.2128,.19699-.13725l.28782,.16618,.00217-.76671c.00044-.15536,.10968-.16758,.22746-.09959,.10901,.06294,.2222,.20357,.22175,.35894l-.00217,.76671,.27475,.15863c.13517,.07804,.20026,.23611,.19989,.3664-.00034,.12027-.06614,.21278-.20131,.13474l-.27475-.15863-.00286,1.00728c.06112,.00518,.1397,.02545,.20084,.02562l.07862,.02531,.04794,.03771c.01769-.09519,.07904-.15012,.19676-.08216l.44487,.25685c.00904-.11525,.01372-.21294,.01404-.3282l-.31836-.18381c-.13085-.07555-.20035-.22611-.20003-.33635,.00031-.11026,.07045-.18522,.2013-.10967l.24418,.14098-.05646-.10287c-.05206-.13546-.13017-.31607-.19963-.47163l-.03886-.15296c.00018-.06513,.03526-.10011,.08335-.11752l-.15267-.08815c-.10903-.06295-.18275-.24103-.1824-.36633,.00033-.11524,.05729-.18778,.19683-.10721l.13085,.07555c1.08597,.62699,2.06757,1.06321,2.3381,1.1642l.0262,.01513c.13085,.07555,.2438,.30137,.2434,.44169-.00047,.16538-.12701,.11741-.27103,.04933,.0697,.08038,.13491,.18831,.13464,.28353-.00038,.13531-.26777,.46282-.30283,.50279l.20058,.11581c.13523,.07807,.19594,.22858,.19563,.33884-.00031,.11024-.06166,.18525-.19689,.10718l-1.61799-.93415c-.00033,.11527-.00931,.21047-.02272,.32319l1.73139,.99962c.13517,.07804,.19588,.22855,.19553,.35382-.00033,.11527-.06171,.2003-.19688,.12226l-1.78374-1.02984c-.01338,.10271-.03116,.20788-.05331,.30553l1.56565,.90393c.16137,.09317,.27439,.29393,.27385,.48436-.0004,.14032-.16738,.50069-.52612,.68511,.15679,.16078,.35292,.3242,.54904,.48765Zm-.39885-4.16059c-.22687-.10589-.52787-.24454-.87243-.42337,.07387,.12797,.26465,.62963,.26435,.73489-.00021,.07517-.03963,.12269-.09208,.13254l.31836,.18381c.15335-.1775,.27643-.4327,.33357-.57036l.04823-.0575m-1.61164-.08219l.65415,.37768-.05212-.11039c-.0606-.19058-.13425-.40379-.18633-.52419l-.03019-.13289,.05266-.1001c-.20061-.10579-.41434-.22417-.62803-.34253,.07834,.10547,.28656,.61721,.28629,.71243-.0002,.07016-.03967,.11765-.09643,.12m1.0522,3.28292c.17046-.04213,.32796-.13693,.44644-.31448l.00443-.01752-.03919-.05274-.95946-.55395c.1302,.30608,.33449,.65993,.54778,.93869"/><path class="cls-6" d="M24.86886,14.32793c.13523,.07807,.28312,.30401,.28263,.4794l-.00452,.04758c-.17329,1.03938-.35206,.92112-1.45118,.31164l-.20058-.11581c-.99436-.57409-1.12472-.82002-1.12262-1.5617l.00185-.65147-1.2653-.52975-.0262-.01513c-.13079-.07551-.20458-.25867-.20418-.39896,.00031-.11026,.05299-.19029,.17512-.13985l1.32207,.55247,.00215-.7567c-.33594-.14878-.65879-.29501-.92487-.41852l-.02182-.0126c-.1483-.08562-.23942-.29886-.23904-.43418,.00031-.11024,.05294-.17522,.17507-.11978,.78522,.38307,2.05047,.93287,2.68799,1.01984l.07422,.02277c.14392,.08309,.2699,.33152,.26947,.48186-.00024,.08518-.03975,.13766-.13579,.12237-.34053-.05605-.85116-.23541-1.37912-.44987l-.00216,.76171,1.98091,.82244,.03054,.01763c.13083,.07554,.20456,.25865,.20418,.39397-.00033,.11527-.053,.19527-.17515,.14984l-2.04197-.85767-.00193,.68153c-.00101,.35581,.0467,.47369,.64859,.82119l.17882,.10324c.83305,.4609,.87226,.48354,.97476-.23029,.02225-.13776,.10091-.14755,.1881-.09721Z"/><path class="cls-6" d="M21.13661,10.30583c-.10465-.06042-.21347-.18851-.21312-.31379l.00145-.51115c.00075-.2656,.11452-.33545,.34564-.20201l1.4261,.82336,.00051-.18042c.00047-.16535,.13591-.16245,.26674-.08691,.13517,.07804,.26581,.22875,.26534,.39411l-.00051,.18042,1.46969,.84853c.23118,.13347,.34855,.33677,.3478,.60237l-.00143,.50614c-.00034,.12027-.1096,.12746-.21863,.06452s-.21783-.19604-.21749-.31631l.00097-.34077c.00016-.05514-.05651-.11295-.10448-.14065l-3.07461-1.77513c-.04799-.0277-.0742-.01774-.07436,.0374l-.00098,.34577c-.00036,.12528-.10523,.12999-.21863,.06452Z"/><path class="cls-6" d="M26.92194,20.4428c.11338,.06546,.16545,.20092,.16516,.30115-.0003,.10523-.05294,.17522-.16633,.10976l-.04361-.02518-.00095,.33576c-.00075,.26562-.11452,.33545-.35,.1995l-1.39998-.80828c-.01034,.57629-.12876,.73883-.56922,.48453-.13083-.07554-.28777-.18622-.48833-.33714-.12638-.09806-.18274-.24605-.1824-.36633,.00037-.13031,.0749-.22783,.20137-.15481l.03488,.02518c.15689,.12571,.27022,.21122,.34435,.25402,.1439,.08308,.17464,.03055,.18838-.17736l-1.55695-.89891c-.12215-.07053-.17852-.20847-.17819-.32373,.0003-.10523,.05726-.17777,.17941-.10724l1.56127,.9014,.00087-.3057-1.77061-1.02226c-.10903-.06295-.16545-.20092-.16516-.30115,.0003-.10525,.0573-.17271,.16633-.10976l1.77061,1.02226,.00081-.28565-1.57002-.90645c-.1221-.07049-.17852-.20849-.17821-.31875,.0003-.10523,.05732-.17771,.17941-.10722l1.57002,.90645,.00075-.2656-1.31704-.76039c-.19195-.11082-.28321-.26893-.28259-.48442l.00129-.45603c.00061-.21549,.09247-.26786,.28441-.15704l1.31704,.76039,.00077-.27061-1.67467-.96687c-.13085-.07555-.19594-.22858-.19561-.34384s.06607-.19276,.19692-.11722l1.67467,.96687,.0002-.07014c.00038-.13531,.11395-.13501,.2361-.06448,.11772,.06797,.23092,.19858,.23054,.3339l-.0002,.07014,1.69218,.97698c.13517,.07804,.19588,.22855,.19555,.34381s-.06169,.19529-.19686,.11725l-1.69218-.97698-.00077,.27061,1.37382,.79317c.18751,.10826,.27879,.26636,.27818,.48185l-.00129,.45603c-.00061,.21549-.09249,.26787-.28,.15961l-1.37382-.79317-.00075,.2656,1.39998,.80828c.23548,.13595,.34849,.3317,.34773,.60233l-.00088,.3107,.04361,.02518Zm-.47275,.3545l.00061-.21551-1.32147-.76295-.00085,.30069,1.25168,.72266c.04797,.02769,.06988,.01023,.07003-.04489m-1.31492-3.0732l-.0009,.31571,1.1688,.67481,.05694-.0374,.0005-.17539-.05654-.10292-1.1688-.67481m1.3167,2.44678l.00057-.20047c.00016-.05512-.02158-.09778-.06955-.12547l-1.25168-.72266-.00081,.28565,1.32147,.76295m-1.78423-2.40048l.0009-.31571-1.11646-.64459-.05686,.03745-.0005,.17539,.05646,.10287,1.11646,.64459"/><path class="cls-6" d="M27.62611,12.50654c.1134,.06547,.23534,.18607,.32232,.33166,.44348,.7329,1.00923,1.49122,1.74952,2.29508,.09151,.093,.13046,.21086,.13018,.31108-.00044,.15536-.09249,.27287-.23203,.19231-.13522-.07807-.69241-.76619-.73161-.81393l.01719,.10028-.00879,3.10202c-.00044,.15536-.12274,.16003-.24483,.08954-.12215-.07052-.23965-.21365-.23921-.36901l.00879-3.10202c.00044-.15535,.11837-.16256,.24052-.09204l.02615,.0151c-.36994-.48464-.69182-.97165-.98324-1.421l-.02612-.02511-.03493-.01013c-.26688,.15212-.57735,.25898-.95749,.30051,.10027,.07797,.18724,.20348,.18687,.33377-.00416,1.46833-.0069,2.43552-.84667,2.79898-.04372,.01994-.09613,.00976-.1441-.01794-.14392-.08309-.28737-.33155-.28693-.48691,.00016-.05512,.02652-.09512,.07462-.11252,.73887-.22094,.70615-1.00782,.71909-2.50119-.29265,.00672-.63328-.03434-.6987-.07211-.13522-.07807-.23068-.30385-.23023-.46421,.00028-.10023,.03983-.17276,.13589-.15746,.74659,.12987,1.32357,.00119,1.74367-.25821,.08316-.05238,.1923-.03454,.31008,.03345Z"/><path class="cls-6" d="M31.58487,24.38478c.10903,.08303,.15674,.20093,.15645,.30115-.00041,.14533-.10118,.24778-.2364,.16971l-.0392-.02765c-.58407-.46773-1.15898-1.06569-1.68988-1.78882l-.00223,.78678c-.00044,.15534-.10968,.16756-.21869,.10463-.10903-.06295-.21788-.20108-.21744-.35642l.00223-.78678c-.91782,.17786-1.72064-.15514-1.74246-.16774-.13523-.07807-.22638-.2813-.22601-.41159,.00028-.10022,.04854-.16773,.17076-.12728,.48002,.17673,1.02552,.36619,1.46676,.34488l-1.37376-.79314c-.12647-.07302-.19158-.22105-.19125-.33631s.06605-.18773,.19253-.11471l1.70519,.98449,.00091-.32074-1.42175-.82085c-.12208-.07048-.1872-.2185-.18689-.32876,.00034-.12027,.06609-.19273,.18817-.12225l1.42175,.82085,.00084-.29566-1.54382-.89133c-.12647-.07302-.19594-.22858-.1956-.34885,.00031-.11026,.07043-.18523,.1969-.11221l.92017,.53126c-.05188-.17552-.12109-.4263-.18612-.59936l-.90278-.52122c-.13517-.07804-.20027-.22607-.19996-.3363,.00036-.1253,.07482-.20779,.20129-.13477l.519,.29965c-.07812-.18064-.20851-.41152-.30403-.62228l-.03887-.14289c.00037-.13031,.12716-.16755,.24486-.09959,.05674,.03276,.11334,.08552,.15245,.16834,.17801,.38889,.32547,.75009,.41224,.96583l.20498,.11834,.00188-.66148c.00044-.15536,.11404-.16507,.22744-.0996s.2222,.20357,.22175,.35894l-.00188,.66148,.57129,.32983,.00188-.66148c.00044-.15536,.11406-.16506,.22746-.09959,.11338,.06546,.22657,.2061,.22613,.36146l-.00188,.66148,.23986,.13848c.10074-.0874,.24971-.23732,.39015-.47246,.03951-.06253,.10065-.06236,.17041-.02208,.10906,.06297,.22649,.23619,.2261,.37148-.00031,.11026-.14054,.27024-.29817,.4051l.44484,.25683c.12647,.07302,.20029,.24112,.19993,.36642-.00031,.11024-.06604,.18273-.20127,.10465l-.86788-.50107c-.03086,.10265-.07942,.27539-.14969,.40548l.86788,.50107c.13085,.07555,.19156,.22605,.19125,.33631-.00034,.12027-.06171,.2003-.19256,.12475l-1.5395-.88883-.00084,.29566,1.41303,.81581c.12647,.07302,.1872,.2185,.18686,.33877-.00031,.11026-.06166,.18525-.18814,.11223l-1.41303-.81581-.00091,.32074,1.70087,.982c.12647,.07302,.19158,.22102,.19125,.33629s-.06605,.18776-.19253,.11474l-1.36938-.79061c.41801,.48228,1.02378,.97758,1.47705,1.3246Zm-2.40474-3.84293l.7937,.45824c.07464-.11754,.12748-.28279,.16714-.39541l-1.12519-.64963c.05635,.16303,.1125,.37617,.16435,.58679"/><path class="cls-6" d="M31.25444,17.73858c.19189,.11079,.28315,.2739,.28254,.48938l-.00305,1.07744c-.00063,.22049-.09252,.27788-.2844,.16709l-.75448-.4356c-.18751-.10826-.27879-.26638-.27817-.48688l.00307-1.08245c.00061-.21549,.0925-.27285,.28001-.16459l.75448,.4356Zm-.15597,1.09456l.00182-.64146-.05653-.0979-.33143-.19135-.05692,.0324-.00182,.64146,.05655,.09789,.33143,.19135,.0569-.03238"/><path class="cls-6" d="M31.29143,17.02203c.13085,.07555,.19594,.22858,.19561,.34384-.00036,.12528-.0661,.20278-.19695,.12723l-.82861-.4784c-.12651-.07304-.19156-.22605-.19121-.35133,.00033-.11527,.06603-.19278,.19254-.11974l.82861,.4784Z"/><path class="cls-6" d="M31.29353,16.28037c.13085,.07555,.19594,.22858,.1956,.34883-.00034,.12029-.06608,.19777-.19693,.12222l-.82429-.47591c-.12208-.07048-.19156-.22603-.19122-.34632,.00034-.12025,.07048-.19521,.19256-.12473l.82429,.47591Z"/><path class="cls-6" d="M31.46004,16.10544l-1.15571-.66725c-.12647-.07302-.19594-.2336-.1956-.35385,.00033-.11527,.07048-.19523,.19695-.12221l1.15571,.66725c.13079,.07551,.19155,.23106,.19122,.34632-.00034,.12025-.06178,.20525-.19257,.12974Z"/><path class="cls-6" d="M30.46777,14.79469c-.12651-.07304-.19156-.22605-.19121-.35133,.00033-.11527,.06603-.19278,.19254-.11974l.82861,.4784c.13085,.07555,.19594,.22858,.19561,.34384-.00036,.12528-.0661,.20278-.19695,.12723l-.82861-.4784Z"/><path class="cls-6" d="M31.82839,17.13127c-.00394,.0025-.07876,.0499-.16158,.00208-.10031-.05791-.1742-.20598-.17384-.33125,.00017-.06015,.02218-.11268,.07471-.14259,.2755-.10697,.41151-.32459,.48189-.48476,.03514-.06503,.12245-.0598,.20533-.01195l.03052,.01762-.03026-.10783,.00037-.13029-.51463-.29712c-.1221-.07049-.18721-.21351-.1869-.32377,.0003-.10523,.06601-.17269,.18811-.1022l.51463,.29712,.00044-.15536c.00033-.11527,.11389-.11494,.21854-.05452,.1134,.06547,.2179,.19105,.21758,.30631l-.00044,.15536,.66724,.38523,.00044-.15536c.00033-.11527,.11391-.11492,.2186-.05448,.1134,.06547,.21785,.19101,.21752,.30628l-.00044,.15536,.47973,.27697c.12647,.07302,.18721,.21349,.18692,.31872-.00031,.11026-.06165,.18027-.18812,.10725l-.47973-.27697-.00037,.13029c-.00031,.11024-.1051,.10497-.2185,.0395-.10469-.06044-.21793-.18105-.21762-.29129l.00037-.13029-.66724-.38523-.00037,.13029c-.00031,.11024-.11825,.09738-.22725,.03444l-.03052-.01762,.03461,.12037-.0133,.07263,.48405,.27947c.03069-.0425,.06144-.085,.08335-.12254,.03076-.06756,.10937-.05733,.18353-.01451,.10903,.06295,.22218,.2086,.22184,.32885l-.02208,.07761,.74143,.42806c.11776,.06799,.16978,.19339,.16953,.27859-.00027,.09522-.05283,.16024-.17059,.09226l-.7545-.43561-.00051,.1804,.66292,.38274c.09595,.0554,.14371,.15826,.14347,.24346-.00021,.07517-.04842,.13268-.14438,.07728l-.66292-.38274-.00053,.1854,.66292,.38274c.09595,.0554,.14371,.15826,.14347,.24346-.00023,.0802-.04842,.13268-.14438,.07728l-.66292-.38274-.00051,.1804,.78065,.45071c.10906,.06297,.1611,.18838,.16083,.2836s-.05285,.16023-.16191,.09727l-1.99304-1.15068c-.23116-.13346-.34857-.33175-.3478-.60237l.00165-.58131Zm.39717,.14398l-.00053,.1854,.7588,.4381,.00053-.1854-.7588-.4381m-.00143,.50614l-.00027,.09522c-.00016,.05512,.0259,.10027,.07387,.12797l.68469,.39531,.00051-.1804-.7588-.4381m.00286-1.00728l-.00051,.1804,.7588,.4381,.00051-.1804-.7588-.4381"/><path class="cls-6" d="M34.29896,20.89177c.11776,.07301,.16549,.18588,.16522,.2811-.00037,.13031-.09677,.2403-.23637,.1597l-.01745-.01007c-.40979-.28179-.77146-.59099-1.0895-.91012-.3405-.06609-.75084-.18253-1.24376-.41693l-.02616-.0151c-.1439-.08308-.23944-.28381-.23909-.40909,.00028-.10022,.05281-.15524,.17931-.09223,.31411,.15626,.61511,.29991,.84646,.36823-.20455-.28374-.42198-.62011-.59563-1.00144l-.24863-.14354c-.09595-.0554-.14794-.19084-.14764-.29607,.0003-.10525,.05288-.18029,.14884-.12489l2.17191,1.25395c.19189,.11079,.28741,.3115,.28693,.48189-.00085,.30069-.28493,.35754-.63459,.40662,.20494,.15347,.47523,.33963,.68016,.468Zm-1.7249-1.73876c.17819,.32373,.3696,.60491,.56988,.82594,.36681,.04112,.62045-.06341,.62056-.10351l-.03042-.05269-1.16003-.66974"/><path class="cls-6" d="M32.2363,21.1117c-.13079-.07551-.19585-.23858-.1955-.36386s.06613-.21281,.19692-.1373l1.70525,.98453c.13523,.07807,.20459,.24864,.20424,.37392s-.07043,.20531-.20128,.12976l-1.70963-.98705Z"/><path class="cls-6" d="M36.19788,24.3727c.13523,.07807,.19591,.23859,.19554,.3689-.00037,.13029-.06178,.22533-.197,.14726l-.29654-.17121-.00747,2.63597c-.00044,.15536-.12281,.16-.24489,.08952-.11778-.068-.23966-.21366-.23922-.36902l.00747-2.63597-.64983-.37518c-.01149,.98223-.15357,1.79368-.75335,2.25051-.04375,.02995-.09616,.02479-.1529-.00797-.13515-.07803-.28744-.30147-.287-.45681l.04837-.11263c.62611-.50689,.65471-1.3387,.65677-2.06534l.00376-1.328c.00094-.33075,.14533-.41304,.43754-.24934,.54082,.30219,.85058,.44087,1.26528,.54478l.06108,.0202c.13085,.07555,.2133,.26874,.2129,.40904-.0003,.10525-.04422,.17527-.15334,.14739-.38409-.11134-.78546-.29285-1.25654-.5297l-.07874,.02481-.00237,.8369,1.43048,.82589Z"/><path class="cls-6" d="M34.01843,24.25384c-.00075,.26558-.11452,.33543-.35002,.19946l-.98564-.56906c-.00155,.54624-.06866,1.09981-.20536,1.568-.02213,.08763-.09635,.08492-.17484,.03961-.12653-.07305-.27014-.2664-.26966-.43679l.00898-.07512c.11019-.34798,.17278-.85898,.17443-1.44029l.00469-1.65374c.00077-.27061,.11891-.33291,.35002-.19949l1.10342,.63706c.2355,.13597,.34851,.33173,.34775,.60234l-.00376,1.32802Zm-.46607-.46988l.00263-.92711c.00016-.05512-.02158-.09778-.06957-.12549l-.72828-.42047c-.04797-.02769-.06988-.01023-.07003,.04489l-.00287,1.01231,.79807,.46077c.04799,.0277,.0699,.01022,.07005-.0449"/></g><polygon class="cls-10" points="4.28029 23.66521 4.27631 24.99011 1.63473 23.49779 1.63871 22.17289 4.28029 23.66521"/><polygon class="cls-12" points="4.28029 39.16382 5.59061 38.42931 5.58664 39.75421 4.27631 40.48872 4.28029 39.16382"/><path class="cls-4" d="M5.58832,38.31991c.02805-.06399,.05236-.12936,.06918-.19735-.05426-.01032-.10851-.02063-.16277-.03095,.03909-.03696,.05136-.10088,.02223-.14578s-.10025-.05962-.14154-.02504c.03012-.0975-.11115-.19358-.19404-.13196-.00087-.07014-.00174-.14029-.00261-.21043l-.1704,.00431c.04009-.04872,.01559-.12801-.0377-.16255s-.12374-.03264-.18506-.01495c.02645-.06446,.03183-.1434-.0107-.19901s-.14326-.06591-.18085-.00698l-.05857-.15357c-.0654-.00814-.13252-.0028-.19572,.01556,.03228-.12992-.13027-.26076-.25433-.20472-.02317-.04585-.05374-.08811-.09023-.12474-.05828,.02801-.11363,.06185-.16492,.1008l-.03027-.09062c-.05449,.00176-.10866,.01277-.15936,.0324,.01067-.07014-.01626-.14954-.07944-.18428s-.15941-.00428-.17498,.06498c-.04476-.10401-.13044-.19055-.23526-.23763l-.10602,.16742c-.00629-.06446-.06661-.12335-.13252-.11751s-.1146,.08835-.078,.1423c-.07296-.04691-.15531-.07977-.24099-.09616-.00396,.06031-.00071,.12107,.00965,.18065-.07656-.07645-.19444-.11079-.30127-.08778l-.01143,.13816c-.06926-.04215-.15526-.05714-.23513-.04098,.00835,.06898,.02523,.13696,.05015,.202l-.15238-.0197,.0478,.13345c-.07573-.01238-.15594,.00365-.22066,.04408,.02322,.05049,.06834,.0909,.12178,.10908-.05992-.00764-.11984-.01527-.17975-.02291-.01913-.00244-.03952-.0047-.05693,.00345-.03322,.01555-.03839,.06299-.01998,.0942s.05236,.04991,.08472,.06713c-.06666-.0328-.16286,.01657-.16351,.08957s.11056,.12043,.15875,.06468c-.06688,.05138-.12211,.11722-.16058,.19142,.04755,.01702,.10115,.0173,.14888,.00078-.02672,.04105-.04334,.08834-.04809,.13679,.0558,.00688,.11288,.00366,.1675-.00944-.02502,.06429-.12272,.10215-.10662,.16912,.01706,.07095,.12555,.05197,.19062,.01648-.03385,.0421,.00867,.10966,.0627,.11827s.10631-.02242,.14729-.05794c.02625,.07502-.05959,.1695-.00642,.22935,.04524,.05093,.12928,.00829,.18176-.03548-.00174,.05437-.00347,.10874-.00521,.16311,.06832,.00924,.14066-.01849,.1844-.07068l-.00974,.22243c.06795-.01071,.13462-.02917,.19824-.05488-.04153,.06961-.01996,.17185,.05206,.211s.1796-.00655,.19043-.08646c-.02074,.07087,.02571,.15384,.09792,.17489s.15749-.02353,.17976-.09396c-.00179,.06618-.00357,.13235-.00536,.19853,.06115,.02108,.13646-.01712,.15411-.07817-.00845,.07761,.00039,.15697,.02572,.23098,.05821-.01053,.11388-.03426,.16139-.0688-.0343,.06035,.02452,.14329,.09504,.14587s.13207-.05882,.14438-.12682c-.02675,.09286,.02676,.20117,.11775,.23834,.02088-.04501,.04176-.09001,.06264-.13502,.02493,.05488,.04249,.11296,.05207,.17228,.10188,.00919,.19821-.09087,.18277-.18983-.00911,.04818-.01818,.09825-.0055,.14565s.05376,.09133,.10384,.09121,.09309-.06187,.06371-.10155c.03827,.03999,.07788,.08093,.12868,.10397s.11615,.02415,.1583-.01191,.04339-.11369-.00568-.14007c.04808,.0773,.14242,.1246,.23462,.11764,.0016-.06248-.01085-.12526-.03622-.18262,.041-.00812,.08485-.00168,.12161,.01785-.0043-.04501-.00861-.09002-.01291-.13504,.03106,.05227,.10451,.07937,.15953,.05183s.07264-.11126,.02741-.15245c.03086,.0731,.11809,.12719,.19414,.10041,.07803-.02748,.09138-.13361,.03141-.18287,.04666,.03101,.168,.12685,.23192,.0862,.08104-.05155-.0064-.18214-.0603-.22497-.01715-.01363-.03763-.03799-.02136-.05261,.00521-.00469,.01265-.00593,.01961-.00721,.08746-.01608,.21393-.09013,.21156-.19031-.00175-.07398-.06222-.13276-.13666-.09393Z"/><polygon class="cls-10" points="8.05413 41.5115 8.05015 42.8364 5.40858 41.34409 5.41256 40.01919 8.05413 41.5115"/><polygon class="cls-12" points="8.05413 41.5115 9.36446 40.777 9.36048 42.1019 8.05015 42.8364 8.05413 41.5115"/><path class="cls-4" d="M9.36216,40.66759c.02805-.06399,.05236-.12936,.06918-.19735-.05426-.01032-.10851-.02063-.16277-.03095,.03909-.03696,.05136-.10088,.02223-.14578s-.10025-.05962-.14154-.02504c.03012-.0975-.11115-.19358-.19404-.13196-.00087-.07014-.00174-.14029-.00261-.21043l-.1704,.00431c.04009-.04872,.01559-.12801-.0377-.16255s-.12374-.03264-.18506-.01495c.02645-.06446,.03183-.1434-.0107-.19901s-.14326-.06591-.18085-.00698l-.05857-.15357c-.0654-.00814-.13252-.0028-.19572,.01556,.03228-.12992-.13027-.26076-.25433-.20472-.02317-.04585-.05374-.08811-.09023-.12474-.05828,.02801-.11363,.06185-.16492,.1008l-.03027-.09062c-.05449,.00176-.10866,.01277-.15936,.0324,.01067-.07014-.01626-.14954-.07944-.18428s-.15941-.00428-.17498,.06498c-.04476-.10401-.13044-.19055-.23526-.23763l-.10602,.16742c-.00629-.06446-.06661-.12335-.13252-.11751s-.1146,.08835-.078,.1423c-.07296-.04691-.15531-.07977-.24099-.09616-.00396,.06031-.00071,.12107,.00965,.18065-.07656-.07645-.19444-.11079-.30127-.08778l-.01143,.13816c-.06926-.04215-.15526-.05714-.23513-.04098,.00835,.06898,.02523,.13696,.05015,.202l-.15238-.0197,.0478,.13345c-.07573-.01238-.15594,.00365-.22066,.04408,.02322,.05049,.06834,.0909,.12178,.10908-.05992-.00764-.11984-.01527-.17975-.02291-.01913-.00244-.03952-.0047-.05693,.00345-.03322,.01555-.03839,.06299-.01998,.0942s.05236,.04991,.08472,.06713c-.06666-.0328-.16286,.01657-.16351,.08957s.11056,.12043,.15875,.06468c-.06688,.05138-.12211,.11722-.16058,.19142,.04755,.01702,.10115,.0173,.14888,.00078-.02672,.04105-.04334,.08834-.04809,.13679,.0558,.00688,.11288,.00366,.1675-.00944-.02502,.06429-.12272,.10215-.10662,.16912,.01706,.07095,.12555,.05197,.19062,.01648-.03385,.0421,.00867,.10966,.0627,.11827s.10631-.02242,.14729-.05794c.02625,.07502-.05959,.1695-.00642,.22935,.04524,.05093,.12928,.00829,.18176-.03548-.00174,.05437-.00347,.10874-.00521,.16311,.06832,.00924,.14066-.01849,.1844-.07068l-.00974,.22243c.06795-.01071,.13462-.02917,.19824-.05488-.04153,.06961-.01996,.17185,.05206,.211s.1796-.00655,.19043-.08646c-.02074,.07087,.02571,.15384,.09792,.17489s.15749-.02353,.17976-.09396c-.00179,.06618-.00357,.13235-.00536,.19853,.06115,.02108,.13646-.01712,.15411-.07817-.00845,.07761,.00039,.15697,.02572,.23098,.05821-.01053,.11388-.03426,.16139-.0688-.0343,.06035,.02452,.14329,.09504,.14587s.13207-.05882,.14438-.12682c-.02675,.09286,.02676,.20117,.11775,.23834,.02088-.04501,.04176-.09001,.06264-.13502,.02493,.05488,.04249,.11296,.05207,.17228,.10188,.00919,.19821-.09087,.18277-.18983-.00911,.04818-.01818,.09825-.0055,.14565s.05376,.09133,.10384,.09121,.09309-.06187,.06371-.10155c.03827,.03999,.07788,.08093,.12868,.10397s.11615,.02415,.1583-.01191,.04339-.11369-.00568-.14007c.04808,.0773,.14242,.1246,.23462,.11764,.0016-.06248-.01085-.12526-.03622-.18262,.041-.00812,.08485-.00168,.12161,.01785-.0043-.04501-.00861-.09002-.01291-.13504,.03106,.05227,.10451,.07937,.15953,.05183s.07264-.11126,.02741-.15245c.03086,.0731,.11809,.12719,.19414,.10041,.07803-.02748,.09138-.13361,.03141-.18287,.04666,.03101,.168,.12685,.23192,.0862,.08104-.05155-.0064-.18214-.0603-.22497-.01715-.01363-.03763-.03799-.02136-.05261,.00521-.00469,.01265-.00593,.01961-.00721,.08746-.01608,.21393-.09013,.21156-.19031-.00175-.07398-.06222-.13276-.13666-.09393Z"/><polygon class="cls-18" points="6.71739 27.37515 6.7158 31.48022 5.22557 30.63834 5.22716 26.53327 6.71739 27.37515"/><polygon class="cls-18" points="9.60427 28.96862 9.60269 33.0737 8.11246 32.23182 8.11404 28.12674 9.60427 28.96862"/><polygon class="cls-18" points="35.48451 44.49575 35.48451 37.17985 46.45837 31.00664 46.45837 38.003 35.48451 44.49575"/></g></g></svg>