<?xml version="1.0" encoding="UTF-8"?><svg id="_レイヤー_2" xmlns="http://www.w3.org/2000/svg" xmlns:xlink="http://www.w3.org/1999/xlink" viewBox="0 0 51.70309 106.40134"><defs><style>.cls-1{fill:#5880c1;}.cls-2{fill:#fff;}.cls-3{fill:#0061af;}.cls-4{fill:#e17c00;}.cls-5{fill:#a77b52;}.cls-6{fill:#fbfbfd;}.cls-7{fill:#826851;}.cls-8{stroke:#989999;stroke-width:.79671px;}.cls-8,.cls-9,.cls-10,.cls-11,.cls-12,.cls-13,.cls-14,.cls-15,.cls-16,.cls-17,.cls-18,.cls-19{fill:none;stroke-linecap:round;stroke-linejoin:round;}.cls-20{fill:#9c9ea0;}.cls-21{isolation:isolate;}.cls-22{fill:#3e3e40;}.cls-9{stroke-width:.14753px;}.cls-9,.cls-10,.cls-11,.cls-15,.cls-19{stroke:#d56e6c;}.cls-23{fill:#979a81;}.cls-10{stroke-width:.14138px;}.cls-24{fill:#9b6c41;}.cls-11{stroke-width:.14332px;}.cls-12{stroke:#bb4240;stroke-width:.09954px;}.cls-25{fill:#8aced0;}.cls-26{fill:url(#_名称未設定グラデーション_78);}.cls-27{fill:#0e0000;}.cls-13{stroke:#0e0000;stroke-width:.11703px;}.cls-14{stroke:#afbfcc;stroke-width:.16201px;}.cls-28{fill:#555454;}.cls-29{fill:#e8993c;}.cls-15{stroke-width:.10451px;}.cls-30{fill:#5daddd;}.cls-31{fill:#6c5642;}.cls-32{fill:#c5c8cc;}.cls-33{fill:#b8c0c5;}.cls-34{fill:#f19688;}.cls-16{stroke:#4b3e35;stroke-width:.10801px;}.cls-35{fill:#fed737;}.cls-36{fill:#5e3e31;}.cls-37{fill:#b9bcbe;}.cls-38{fill:#b7babc;}.cls-39{fill:#f3f6f7;}.cls-40{fill:#5d4c48;}.cls-41{fill:#7b624c;}.cls-42{fill:#bd9977;}.cls-17{stroke:#b7babc;stroke-width:.51511px;}.cls-43{fill:#464748;}.cls-18{stroke:#b1b1b2;stroke-width:1.25057px;}.cls-19{stroke-width:.14955px;}.cls-44{fill:#a3aaae;}</style><linearGradient id="_名称未設定グラデーション_78" x1="26.81047" y1="58.9608" x2="26.81047" y2="130.29091" gradientUnits="userSpaceOnUse"><stop offset="0" stop-color="#949494"/><stop offset="1" stop-color="#000"/></linearGradient></defs><g id="_レイヤー_1-2"><g><g><path class="cls-26" d="M28.28142,105.28597c.00075-.02183,.00087-.04333,0-.06522V63.62444h-2.94056v41.56712c-.0025,.03933-.00266,.07808,0,.11741v.00929h.00119c.0212,.27154,.15993,.53891,.42737,.74646,.57833,.44883,1.51245,.44883,2.08705,0,.2657-.20755,.4022-.47492,.4211-.74646h.00385v-.03229Z"/><path class="cls-4" d="M51.70306,48.55843l-.01197,4.22008c-.01018,3.59224-2.37186,7.17874-7.08735,9.91909-9.49029,5.51516-24.92869,5.51904-34.48767,.00017-4.8069-2.77526-7.20765-6.41941-7.19734-10.05798l.01195-4.22007c-.0103,3.63857,2.39045,7.28271,7.19735,10.05798,9.55898,5.51888,24.99737,5.51499,34.48767-.00017,4.71549-2.74034,7.07718-6.32685,7.08736-9.91909Z"/><ellipse class="cls-29" cx="27.31564" cy="48.48933" rx="14.12544" ry="24.38668" transform="translate(-21.25092 75.6674) rotate(-89.83757)"/></g><g><g><path class="cls-20" d="M.56959,50.04374l13.44692,7.8145c-.39562-.22991-.49774-.84217-.50019-.85828L.0694,49.18547c.00245,.0161,.10457,.62837,.50019,.85827Z"/><path class="cls-2" d="M.01409,47.64041c.00763,.24994,.01716,.49798,.0267,.74409,.00382,.06677,.00573,.13547,.00764,.20224,.00763,.19842,.01525,.39876,.02098,.59909l13.447,7.81482c-.00572-.20224-.01336-.40257-.02098-.6029-.00191-.06677-.00572-.13165-.00763-.19842-.03816-.96732-.07632-1.96706,.02098-3.02597l-10.95526-6.36672L.06179,45.35855c-.0725,.79178-.07059,1.54732-.0477,2.28186Z"/><g><path class="cls-2" d="M22.86711,37.81654c1.01883-.88337,5.325-3.50484,10.05473-6.23507,6.45067-3.72426,13.68549-7.65074,14.40668-7.64121,.11638,.00191,.44016,.11578,.54126,.17301-.63406-.97662-11.64086-8.02624-15.074-6.94726-1.1189,.35165-10.04033,4.70659-13.32095,6.60063-4.72973,2.73023-9.51957,6.08407-10.53839,6.96934l13.93066,7.08056Z"/><path class="cls-2" d="M8.93646,30.73599c-1.86976,1.62746-5.63121,7.77313-7.23005,10.36218-.29763,.4808-.51132,.82994-.59909,.96159-.56284,.85475-.80515,1.6618-.92344,2.34102-.06486,.3606-.0954,.68304-.1221,.95778l2.49174,1.4481,10.95526,6.36672c.07441-.79178,.18316-1.99187,1.04553-3.29878,.08777-.13165,.30145-.4808,.59909-.96159,1.59884-2.59095,5.84395-9.46708,7.71371-11.09645l-13.93066-7.08056Z"/></g><path class="cls-2" d="M14.55519,49.75995c.08626-.13113,.30123-.47957,.59881-.96122,1.59835-2.58982,5.84322-9.46679,7.71394-11.09504,1.01728-.88503,5.3247-3.50631,10.0535-6.23646,6.45111-3.72452,13.6985-7.50173,14.40744-7.64072,.54091-.10605,1.03993,.98811,1.55859,3.18005,.18897,.80501,1.17209,6.23045-.78606,11.08541-.27579,.68379-.888,.95011-1.19619,1.12805-.17906,.10338-.30461,.15203-.33629,.1633-.51041,.2933-30.57169,17.63796-31.66557,18.26952-1.14871,.66321-1.3833-.74216-1.38703-.76667-.00687-.26802-.01738-.53534-.0279-.80128-.03811-.96641-.07757-1.96572,.02071-3.02489,.07339-.79245,.18348-1.99167,1.04606-3.30004Z"/><path class="cls-30" d="M19.70129,37.65542l-10.13247-5.08937c-.48072-.27369-1.09188-.11677-1.38127,.35467l-4.33179,6.07194c-.30071,.48987-.14009,1.13119,.35601,1.4215l10.14264,5.93532c.47814,.2798,1.09208,.12924,1.38652-.34003l4.32162-6.91789c.31015-.4943,.14586-1.14742-.36125-1.43614Z"/><path class="cls-30" d="M28.55821,37.08549l-.03596,3.75286c0,.39966-.20888,.77025-.55079,.9772l-8.91105,5.17202c-.66203,.4007-.64707-.35156-.38952-1.0813,.58854-1.66752,3.16295-5.51697,3.85395-6.50411,.4955-.70786,2.23219-1.74039,2.40672-1.84043l2.86166-1.56251c.7615-.43647,.76499,.20855,.76499,1.08626Z"/><path class="cls-22" d="M38.77206,43.98577s.8527-3.30303,2.32664-4.85021c2.47168-2.59451,4.41313-.87256,4.41313-.87256l-5.11947,6.51569-1.6203-.79291Z"/><g><g class="cls-21"><path class="cls-22" d="M38.79059,43.98484c.11447,.13927,.24612,.25185,.39494,.33771l2.15212,1.24968c-.53612-.31099-.86619-.97113-.87001-1.90983,0-.22131,.01718-.44646,.05152-.6754-.55139,.31862-1.12948,.65059-1.72857,.99784Z"/><path class="cls-43" d="M46.42814,40.17881v.04389c.00382,1.88883-1.326,4.19169-2.97063,5.14183-1.64462,.95015-2.98399,.18888-2.9897-1.70186v-.04388c.01527-1.88502,1.33935-4.15736,2.97063-5.09987,1.63127-.94251,2.96299-.20033,2.9897,1.65989Z"/></g><g><g><path class="cls-44" d="M43.61835,39.61752c1.19743-.69134,2.17023-.13697,2.17413,1.23898s-.96258,3.04995-2.16001,3.74128c-1.19621,.69063-2.17024,.13697-2.17414-1.23896-.0039-1.37594,.96381-3.05067,2.16002-3.7413Zm.01303,4.59674c1.01228-.58444,1.83062-2.00188,1.82733-3.16506s-.82699-1.63259-1.83927-1.04815-1.83063,2.00189-1.82734,3.16507c.0033,1.16318,.82701,1.63258,1.83928,1.04814"/><g class="cls-21"><path class="cls-43" d="M44.91788,40.51182c.12254,.18582,.19159,.44038,.19247,.75253s-.0665,.64407-.18759,.97055l-.45121-.25714c.03063-.12083,.04716-.24112,.04683-.35621-.00035-.1237-.02012-.23098-.05592-.32004l.45542-.78968Z"/><path class="cls-33" d="M44.46246,41.30149c.0358,.08906,.05557,.19634,.05593,.32004,.00033,.1151-.01621,.23538-.04684,.35622-.08274,.32638-.26873,.65698-.50564,.90169-.09992,.1032-.20885,.1911-.32295,.25698-.10759,.06212-.21069,.09935-.30601,.11368-.23986,.03606-.43041-.07323-.51933-.2981-.03497-.08842-.05423-.19467-.05458-.31702-.00037-.13105,.02099-.26878,.06016-.40649,.09297-.32679,.28634-.65329,.52819-.88908,.08952-.08728,.18568-.16218,.28585-.22001,.10673-.06162,.20907-.09875,.30384-.11328,.24011-.03681,.43144,.07165,.52138,.29537Z"/></g><path class="cls-43" d="M42.38172,41.97607l.44149,.25242c-.03918,.13772-.06053,.27545-.06016,.40649,.00035,.12234,.01961,.22859,.05458,.31701l-.43224,.74785c-.12133-.18652-.19159-.43898-.19248-.75112s.06772-.64617,.18881-.97266Z"/><g class="cls-21"><path class="cls-33" d="M43.61944,40.00105c1.01228-.58444,1.83597-.11503,1.83927,1.04815s-.81505,2.58062-1.82733,3.16506c-1.01228,.58444-1.83598,.11504-1.83928-1.04814-.0033-1.16318,.81506-2.58063,1.82734-3.16507Zm1.30333,2.23385c.12109-.32649,.18848-.65842,.18759-.97056s-.06993-.5667-.19248-.75252l-.45542,.78967c-.08994-.22372-.28126-.33218-.52138-.29537l.45618-.79099c-.22209-.01057-.47813,.05874-.74976,.21557s-.52724,.38292-.74976,.65019l.45366,.25853c-.24184,.23579-.43521,.56228-.52819,.88908l-.44149-.25242c-.12109,.32648-.18969,.66051-.18881,.97265s.07115,.5646,.19248,.75112l.43224-.74785c.08892,.22487,.27947,.33416,.51933,.2981l-.43095,.74643c.22331,.00987,.47935-.05803,.751-.21487s.52722-.38431,.74853-.65088l-.43962-.25134c.23691-.2447,.42289-.57531,.50564-.90169l.45121,.25714"/><path class="cls-43" d="M43.96591,42.87944l.43962,.25134c-.22131,.26657-.47689,.49405-.74853,.65088s-.52769,.22474-.75099,.21487l.43095-.74643c.09532-.01433,.19842-.05156,.30601-.11368,.1141-.06588,.22304-.15378,.32295-.25698Z"/></g><path class="cls-43" d="M43.6475,40.43069c.27164-.15683,.52767-.22614,.74977-.21557l-.45618,.79099c-.09477,.01453-.19711,.05166-.30384,.11328-.10017,.05783-.19633,.13274-.28585,.22002l-.45366-.25854c.22252-.26727,.47811-.49335,.74976-.65019Z"/></g><path class="cls-39" d="M42.98971,44.20167c-.09942,0-.15762-.01334-.16368-.01576-.05214-.01212-.08366-.06305-.07153-.11397,.01334-.05092,.06305-.08123,.11518-.07153,.00606,.00364,.38434,.08002,.88872-.24734,.52862-.34191,.9845-1.05119,1.20274-1.60164,.02061-.04971,.07517-.07153,.12367-.05335,.0485,.0194,.07275,.07396,.05335,.12367-.21218,.53711-.67291,1.30216-1.27549,1.69136-.37586,.2437-.6923,.28856-.87296,.28856Z"/></g></g><path class="cls-22" d="M20.16121,54.47552s.8527-3.30303,2.32664-4.85021c2.47168-2.59451,4.41313-.87256,4.41313-.87256l-5.11947,6.51569-1.6203-.79291Z"/><g><g class="cls-21"><path class="cls-22" d="M20.17975,54.47459c.11447,.13927,.24612,.25185,.39494,.33771l2.15212,1.24968c-.53612-.31099-.86619-.97113-.87001-1.90983,0-.22131,.01718-.44646,.05152-.6754-.55139,.31862-1.12948,.65059-1.72857,.99784Z"/><path class="cls-43" d="M27.8173,50.66856v.04389c.00382,1.88883-1.326,4.19169-2.97063,5.14183-1.64462,.95015-2.98399,.18888-2.9897-1.70186v-.04388c.01527-1.88502,1.33935-4.15736,2.97063-5.09987,1.63127-.94251,2.96299-.20033,2.9897,1.65989Z"/></g><g><g><path class="cls-44" d="M25.0075,50.10727c1.19743-.69134,2.17023-.13697,2.17413,1.23898s-.96258,3.04995-2.16001,3.74128c-1.19621,.69063-2.17024,.13697-2.17414-1.23896s.96381-3.05067,2.16002-3.7413Zm.01303,4.59674c1.01228-.58444,1.83062-2.00188,1.82733-3.16506s-.82699-1.63259-1.83927-1.04815-1.83063,2.00189-1.82734,3.16507,.82701,1.63258,1.83928,1.04814"/><g class="cls-21"><path class="cls-43" d="M26.30703,51.00157c.12254,.18582,.19159,.44038,.19247,.75253s-.0665,.64407-.18759,.97055l-.45121-.25714c.03063-.12083,.04716-.24112,.04683-.35621-.00035-.1237-.02012-.23098-.05592-.32004l.45542-.78968Z"/><path class="cls-33" d="M25.85162,51.79124c.0358,.08906,.05557,.19634,.05593,.32004,.00033,.1151-.01621,.23538-.04684,.35622-.08274,.32638-.26873,.65698-.50564,.90169-.09992,.1032-.20885,.1911-.32295,.25698-.10759,.06212-.21069,.09935-.30601,.11368-.23986,.03606-.43041-.07323-.51933-.2981-.03497-.08842-.05423-.19467-.05458-.31702-.00037-.13105,.02099-.26878,.06016-.40649,.09297-.32679,.28634-.65329,.52819-.88908,.08952-.08728,.18568-.16218,.28585-.22001,.10673-.06162,.20907-.09875,.30384-.11328,.24011-.03681,.43144,.07165,.52138,.29537Z"/></g><path class="cls-43" d="M23.77087,52.46582l.44149,.25242c-.03918,.13772-.06053,.27545-.06016,.40649,.00035,.12234,.01961,.22859,.05458,.31701l-.43224,.74785c-.12133-.18652-.19159-.43898-.19248-.75112s.06772-.64617,.18881-.97266Z"/><g class="cls-21"><path class="cls-33" d="M25.00859,50.4908c1.01228-.58444,1.83597-.11503,1.83927,1.04815s-.81505,2.58062-1.82733,3.16506-1.83598,.11504-1.83928-1.04814,.81506-2.58063,1.82734-3.16507Zm1.30333,2.23385c.12109-.32649,.18848-.65842,.18759-.97056s-.06993-.5667-.19248-.75252l-.45542,.78967c-.08994-.22372-.28126-.33218-.52138-.29537l.45618-.79099c-.22209-.01057-.47813,.05874-.74976,.21557s-.52724,.38292-.74976,.65019l.45366,.25853c-.24184,.23579-.43521,.56228-.52819,.88908l-.44149-.25242c-.12109,.32648-.18969,.66051-.18881,.97265s.07115,.5646,.19248,.75112l.43224-.74785c.08892,.22487,.27947,.33416,.51933,.2981l-.43095,.74643c.22331,.00987,.47935-.05803,.751-.21487s.52722-.38431,.74853-.65088l-.43962-.25134c.23691-.2447,.42289-.57531,.50564-.90169l.45121,.25714"/><path class="cls-43" d="M25.35506,53.36919l.43962,.25134c-.22131,.26657-.47689,.49405-.74853,.65088s-.52769,.22474-.75099,.21487l.43095-.74643c.09532-.01433,.19842-.05156,.30601-.11368,.1141-.06588,.22304-.15378,.32295-.25698Z"/></g><path class="cls-43" d="M25.03665,50.92045c.27164-.15683,.52767-.22614,.74977-.21557l-.45618,.79099c-.09477,.01453-.19711,.05166-.30384,.11328-.10017,.05783-.19633,.13274-.28585,.22002l-.45366-.25854c.22252-.26727,.47811-.49335,.74976-.65019Z"/></g><path class="cls-39" d="M24.37873,54.69172c-.09942,0-.15762-.01334-.16368-.01455-.05214-.01334-.08366-.06426-.07153-.11518,.01334-.05092,.06668-.08123,.11518-.07153,.00727,.00242,.38434,.08002,.88872-.24734,.52984-.34312,.98572-1.0524,1.20274-1.60285,.0194-.04971,.07517-.07153,.12367-.05335,.0485,.0194,.07275,.07396,.05335,.12367-.21096,.53711-.67291,1.30216-1.27549,1.69257-.37586,.2437-.6923,.28856-.87296,.28856Z"/></g></g><path class="cls-35" d="M1.27515,48.36615l1.15245,.66323,.12593-2.22273,.05724-1.01119-2.42688-1.39469c-.06486,.3606-.0954,.68304-.1221,.95778-.02164,.23631-.03665,.46938-.04645,.69964-.04024,.9452,.43985,1.83607,1.25981,2.30796Z"/><polyline class="cls-37" points="2.61039 45.79623 10.04794 50.07631 8.98525 52.90485 2.42762 49.02878"/><path class="cls-35" d="M10.04794,50.07631l3.22781,1.75592-.0129,.2359c-.07461,1.36431-1.52105,2.20684-2.74459,1.59869l-1.533-.76196,1.06269-2.82854Z"/><path class="cls-38" d="M13.5201,51.01195c-.01576,0-.03274-.00121-.0485-.00485-1.62952-.35403-8.50407-4.33933-11.38362-6.03675-.45709-.26916-.88993-.59046-1.28398-.95662l-.11639-.10791c-.09215-.08608-.09821-.23036-.01212-.32251,.08366-.09336,.22915-.09942,.32251-.01212l.11639,.10791c.37101,.34312,.77596,.64502,1.20517,.89842,2.23211,1.3155,9.64013,5.63301,11.24904,5.9834,.12367,.02667,.20127,.14792,.17459,.27159-.02304,.10669-.11761,.17944-.22309,.17944Z"/><path class="cls-20" d="M.04843,48.58674c.00763,.19842,.01525,.39876,.02098,.59909l13.447,7.81482c-.00572-.20224-.01336-.40257-.02098-.6029L.04843,48.58674Z"/><polygon class="cls-2" points="4.5018 52.50928 4.5018 50.82721 7.45151 52.50928 7.40276 54.19135 4.5018 52.50928"/><path class="cls-20" d="M12.81997,55.9946s1.13917,.60932,1.58953,.50335c.57259-.13473,1.11267-.39738,1.11267-.39738l.02649,1.32461s-.84775,.52984-1.3511,.52984c-.09552,0-1.16566-.66231-1.16566-.66231l-.21194-1.29812Z"/><g><path class="cls-28" d="M12.79142,46.04215c-.02546,0-.04971-.0097-.06911-.0291-.88023-.90933-2.33395-2.38245-2.48551-2.46489-.05335-.00606-.07881-.05092-.07275-.10306,.00606-.05335,.07396-.09457,.11639-.08002,.04122,.00485,.16368,.0194,2.58008,2.5146,.03637,.03759,.03516,.09821-.00242,.13579-.0194,.01697-.04244,.02667-.06668,.02667Z"/><path class="cls-28" d="M12.79748,44.94247c-.03395,0-.0679-.00849-.09942-.02789-.02789-.01697-2.83105-1.71197-4.24112-1.85261-.10427-.01091-.18065-.10427-.17095-.20975,.01212-.10427,.09093-.17338,.20975-.17095,1.49494,.15034,4.28235,1.83564,4.40116,1.90838,.08972,.05456,.11882,.17095,.06305,.26189-.03516,.0582-.09821,.09093-.16247,.09093Z"/></g><g><path class="cls-28" d="M7.71129,42.90799c-.02546,0-.04971-.0097-.0679-.0291-.67291-.69352-1.79078-1.81866-1.93142-1.88777-.05214-.00606-.08002-.05092-.07396-.10306,.00606-.05335,.07275-.09821,.11518-.08123,.04122,.00485,.16489,.0194,2.02599,1.93869,.03759,.03759,.03637,.09821-.00121,.13458-.0194,.01819-.04244,.02789-.06668,.02789Z"/><path class="cls-28" d="M8.27022,42.38543c-.03395,0-.0679-.00849-.09942-.02789-.02789-.01697-2.83105-1.71197-4.24112-1.85382-.10427-.01091-.18065-.10427-.17095-.20975,.01212-.10427,.08366-.17095,.20975-.17095,1.49494,.15156,4.28235,1.83685,4.40116,1.9096,.08972,.05456,.11882,.17095,.06305,.26189-.03516,.0582-.09821,.09093-.16247,.09093Z"/></g><path class="cls-20" d="M19.76027,48.84604v-1.09153c0-.16787-.18367-.27109-.32706-.18381l-.90993,.55387c-.06415,.03905-.1033,.10871-.1033,.18381v1.06541c0,.16829,.18364,.27197,.32699,.18381,.28931-.17792,.69549-.42263,.89426-.51914,.07349-.03568,.11904-.11073,.11904-.19242Z"/><path class="cls-28" d="M19.42766,47.14277v-2.89934c0-.2002,.21904-.3233,.39005-.21921l1.08519,.66055c.0765,.04657,.12319,.12965,.12319,.21921v2.86818c0,.2007-.21901,.32435-.38997,.21922-.34504-.21219-.82944-.50403-1.0665-.61912-.08765-.04255-.14196-.13205-.14196-.22948Z"/><path class="cls-28" d="M19.27556,48.76287l-.13579-.37828s.6038-.21581,.85962-.30554c.00242-.15034-.02667-.47528-.06426-.74323-.01455-.11033,.06183-.21096,.17095-.22673,.12124-.01697,.21096,.06305,.22673,.17095,.14549,1.05846,.03031,1.09847-.10185,1.14333-.09578,.03152-.9554,.33948-.9554,.33948Zm.88993-.52862h0Z"/></g><path class="cls-30" d="M30.87598,34.30982c-.93126,.57283-1.35713,.88073-1.21874,1.35768,.12224,.42129,.1138,5.38652,.1138,5.38652l18.09414-10.20403,.03793-.98626s.03793-1.85873-.37933-3.45192c-.10122-.38649-.43398-1.04968-.95036-.99573-.16884,.01764-12.46975,6.95641-15.28144,8.64182-.13903,.08334-.27787,.16697-.41601,.25194Z"/></g><path class="cls-17" d="M15.61029,55.14877s.61728-6.00446,1.3468-8.41747,5.16271-9.03475,5.16271-9.03475"/><g><g class="cls-21"><polygon class="cls-29" points="32.31609 25.98646 32.27643 39.97742 9.75626 26.97539 9.79593 12.98443 32.31609 25.98646"/><polygon class="cls-4" points="32.31609 25.98646 35.7071 24.01582 35.66743 38.00678 32.27643 39.97742 32.31609 25.98646"/><polygon class="cls-4" points="9.79593 12.98443 13.18693 11.0138 35.7071 24.01582 32.31609 25.98646 9.79593 12.98443"/></g><g><path class="cls-2" d="M11.20314,20.21844c-.10214-.05897-.15934-.19492-.15905-.29761,.00027-.09537,.05806-.16487,.1602-.1059l.91301,.52712c.10854,.06267,.15931,.19483,.15904,.29021-.00029,.10269-.05164,.17596-.16018,.1133l-.91301-.52712Z"/><path class="cls-2" d="M11.20135,20.84936c-.10854-.06267-.16571-.19853-.16542-.30126,.00027-.09537,.05802-.16489,.16656-.10222l.91301,.52712c.10854,.06267,.15931,.19483,.15904,.29021-.00029,.10273-.05164,.17594-.16018,.11328l-.91301-.52712Z"/><path class="cls-2" d="M11.20672,18.95655c-.10854-.06267-.16571-.19853-.16542-.30124,.00027-.09537,.05802-.16493,.16656-.10226l.91301,.52712c.10854,.06267,.15931,.19488,.15904,.29025-.00029,.10271-.05164,.17592-.16018,.11326l-.91301-.52712Z"/><path class="cls-2" d="M14.44256,21.24362l-1.30247-.75198c-.0005,.17608-.001,.35215-.00784,.51723l1.02791,.59347c.21069,.12164,.31884,.32368,.31819,.55115-.00516,1.81942-.0323,2.36958-.66438,2.00465-.14686-.08479-.33192-.22103-.54883-.3977-.0957-.08465-.13376-.19484-.13349-.29016,.00035-.12474,.071-.23092,.18591-.16458l.05107,.03682c.15311,.13251,.26795,.2282,.35732,.2798,.31923,.18431,.32663-.15682,.33027-1.4407l.00029-.10271-.05089-.10282-.88108-.50869c-.03427,.81057-.11933,1.48894-.44674,1.93924-.045,.06955-.10891,.06206-.16637,.02889-.10854-.06267-.21676-.24276-.21645-.35283l.00008-.02931c-.03216,.0696-.10251,.07309-.21744,.00674l-.84916-.49026c-.1596-.09214-.23598-.23177-.23546-.41516l.00262-.92443c.00052-.18339,.07742-.22719,.23702-.13505l.84916,.49026c.1596,.09214,.236,.22446,.23548,.40785l-.00272,.9611c.40442-.55279,.41347-1.48085,.41657-2.57398l.00035-.12472-.25537-.14744-.05748-.04051c-.00031,.11005-.05166,.18326-.1602,.12059l-1.19393-.68932c-.10854-.06267-.16573-.19121-.16544-.2939s.05804-.17227,.16658-.1096l1.19393,.68932,.05104,.04418-.00626-.05505c.00035-.12474,.05815-.20893,.17311-.14256l.72785,.42023,.00081-.28612c.00037-.13206,.1027-.13912,.21762-.07276,.10854,.06267,.21051,.18767,.21013,.31973l-.00081,.28612,.81085,.46815c.11491,.06634,.16567,.2132,.16531,.33794-.00033,.11736-.05176,.20525-.16667,.13891Zm-2.49771,1.26955l.00156-.55028-.04453-.07713-.49162-.28384-.04482,.02554-.00156,.55028,.04451,.08446,.49162,.28384,.04484-.03288"/><path class="cls-2" d="M16.73294,23.16858c-.00052,.18339-.0774,.2272-.237,.13506l-.97685-.56399-.00636,2.24494c-.00037,.13206-.08991,.13915-.1857,.08385-.08937-.0516-.18497-.16558-.1846-.29764l.01038-3.66087c.00054-.19075,.07739-.23458,.23702-.14242l1.11091,.64139c.1596,.09214,.23598,.22445,.23544,.41519l-.00324,1.14449Zm-.36985-.38257l.00064-.22743-.84276-.48657-.00079,.27883,.79808,.46077,.04482-.0256m.00164-.57958l.00062-.22005-.04451-.08451-.74701-.43128-.05124,.02922-.00062,.22005,.84276,.48657"/><path class="cls-2" d="M17.81285,25.72471c-.00052,.18339-.0902,.24186-.2562,.14602l-1.41103-.81466c-.1596-.09214-.25506-.2575-.25454-.4409l.00293-1.03446c.00052-.18339,.0966-.23817,.2562-.14602l1.41103,.81466c.166,.09584,.25506,.2575,.25454,.4409l-.00293,1.03446Zm-.36975-.40454l.00185-.65297-.04451-.08444-1.08541-.62666-.05126,.02915-.00185,.65297,.05093,.08821,1.08541,.62666,.04484-.03292"/><path class="cls-2" d="M18.37143,22.68893c.15963,.09216,.24239,.22814,.24184,.41889l-.00932,3.28673c-.001,.35215-.06545,.52072-.47405,.28481-.10215-.05898-.22979-.14739-.38294-.2652-.10849-.08466-.15932-.20954-.15903-.31229,.00031-.11005,.06449-.18318,.15386-.13158l.03196,.01845c.16586,.13248,.27438,.20983,.33824,.2467,.10214,.05897,.12138,.03331,.12161-.04739l.00532-1.87811-.98322-.56766c-.15962-.09215-.24237-.22813-.24185-.41152l.00324-1.14449c.00054-.19075,.08379-.23089,.24341-.13873l1.11091,.64139Zm-.1314,1.23221l.00079-.27883-.84912-.49024-.00064,.22743,.04453,.07719,.80445,.46445m.00179-.63098l.00062-.22005-.05088-.08818-.75341-.43498-.04484,.03292-.00062,.22005,.84912,.49024"/><path class="cls-2" d="M21.24078,25.68297c.84276,.48657,1.53103,1.3322,1.52851,2.21991-.00256,.90238-.64236,1.01067-1.4854,.60475l-.0255-.01472c-.15323-.08847-.24228-.27213-.24195-.38949,.00031-.11007,.05804-.17227,.19218-.10952,.8047,.37639,1.15059,.18662,1.15205-.32693,.00025-.08802-.0048-.5686-.52126-1.10189-.54639,.98518-1.34025,1.28374-1.9851,.91143-.47883-.27645-.66322-.6548-.66176-1.16831,.002-.70432,.43794-1.08458,1.1283-.97261,.0006-.21274,.00757-.42186,.00818-.63462-.30006-.17324-.60654-.35019-.88101-.52335-.10856-.06268-.17209-.21691-.17176-.33427,.00029-.10275,.05804-.17227,.16023-.11327l.01277,.00737c.27446,.17316,.58727,.36847,.9065,.55278,.00676-.12104,.01348-.24211,.0266-.35209,.00674-.11367,.10264-.11711,.19841-.06181,.10856,.06268,.21689,.19868,.21653,.3234l-.00006,.02205c-.00669,.09899-.01977,.20167-.02645,.30806,.57466,.31706,1.15573,.62315,1.61557,.8372l.01919,.01108c.11491,.06634,.1784,.22058,.17809,.33062-.00029,.10269-.05164,.17596-.1602,.12061-.45342-.21769-1.06645-.54221-1.67939-.88879-.00685,.1651-.01374,.33011-.01422,.49887,.15976,.05545,.33217,.1403,.51095,.24352Zm-1.37237,1.33876c.166,.09584,.35137,.12203,.53694,.08216-.04365-.39259-.06796-.8402-.07944-1.30246-.46037-.01592-.73617,.26573-.73746,.72063-.00071,.2494,.07568,.38172,.27997,.49967m.90186-.05984c.26264-.14967,.50634-.39844,.68634-.72808-.07656-.05157-.15321-.09583-.22981-.14005-.1724-.09954-.3512-.1807-.49821-.2215-.00106,.37418,.01711,.74475,.04168,1.08963"/><path class="cls-2" d="M24.69909,26.18055c.12132,.07005,.23599,.22446,.23559,.36382l-.03229,.11367c-.25061,.42114-.46948,.93406-.72063,1.54595,.42282-.26291,.69783-.26579,1.06176-.05568,.38306,.22116,.52273,.58103,.52134,1.07259l-.0005,.17608c-.01315,.12467-.02684,.4401-.02713,.54279-.00108,.38151,.11354,.55055,.33701,.67957,.38311,.22119,.6027-.54851,.67514-1.28561,.0196-.1357,.10915-.15012,.20493-.09483,.11491,.06635,.2296,.21339,.22914,.37479l-.00651,.04772c-.098,.72967-.32519,1.91389-1.1105,1.46049-.48525-.28016-.74632-.66606-.74433-1.37032,.00037-.1321,.02049-.46584,.0208-.57589l.00676-.13573c.00085-.30076-.05652-.36329-.22889-.46281-.33201-.19169-1.09367,.03726-1.37817,1.13696-.02594,.12466-.11548,.13172-.20489,.0801-.12128-.07002-.24868-.24643-.24822-.40783,.00042-.14672,.48477-1.81443,1.20488-3.17704,.03863-.08788,.1217-.0767,.2047-.02878Z"/><path class="cls-2" d="M30.95307,33.11279c.09577,.05529,.14022,.16179,.13997,.24984-.00025,.08802-.04517,.15028-.14094,.09499l-.98964-.57137c-.03323,.44379-.22525,.5019-.59554,.28811-.16602-.09585-.37024-.25048-.6127-.44188-.10848-.08472-.1529-.20589-.15265-.29391,.00031-.11005,.05804-.17227,.16018-.1133l.0383,.0295c.21697,.16932,.38285,.29448,.49781,.36086,.15323,.08847,.22998,.08136,.26234-.06162l-1.48761-.85887c-.09579-.0553-.14658-.17283-.14633-.26085,.00025-.08806,.05152-.13929,.14731-.08399l1.49401,.86257c-.01254-.08807-.01867-.18716-.03121-.27522l-1.32161-.76303c-.08937-.0516-.14023-.1618-.13998-.24981,.00023-.0807,.05157-.13928,.14094-.08768l1.23224,.71143-.06965-.24593-.54271-.31334-.47883-.27645c-.09579-.0553-.16569-.21325-.16542-.30859,.00021-.07338,.03872-.11729,.14086-.05832l.44693,.25803c.56825,.32808,1.42386,.8,1.86467,.95163l.03198,.01116c.09573,.05527,.17201,.2242,.17172,.32693-.00023,.0807-.04511,.12093-.13455,.08398-.24909-.0997-.58758-.2731-.926-.4538l.07601,.2643,.99601,.57504c.09579,.0553,.14021,.16917,.13998,.24988-.00025,.08802-.04515,.14293-.14094,.08762l-.91941-.53082c.01264,.05876,.02508,.18351,.02483,.27153l.98964,.57137Z"/><path class="cls-2" d="M27.9787,28.82359l-.00139,.49152c-.00458,1.61404-.00599,2.11292-.23155,2.72489-.02581,.08063-.08337,.08414-.15361,.04359-.09577-.05529-.2104-.22433-.21003-.35643l.01304-.08063c.19965-.50198,.20105-.99354,.20546-2.54889l.00173-.60889c.00064-.22747,.10309-.27851,.30102-.16424l1.23224,.71143,.00021-.07338c.00037-.13206,.10912-.13541,.21766-.07274,.10856,.06268,.21687,.19135,.2165,.3234l-.00021,.07338,1.33443,.77043c.11491,.06634,.1657,.19113,.16542,.28653-.00027,.09537-.05162,.16863-.16653,.10228l-.47888-.27648-.00064,.22743,.41502,.23961c.10854,.06267,.16575,.18386,.16552,.26456-.00027,.09537-.05798,.15026-.16652,.08759l-.33839-.19537c.12095,.2021,.30567,.4557,.48417,.66164l.08253,.20199c-.00029,.10269-.07083,.17219-.1602,.12059-.083-.04792-.34398-.48521-.4838-.79371l-.00114,.40351c-.00033,.1174-.07708,.12454-.15371,.08029-.08297-.0479-.1658-.15453-.16549-.26458l.00102-.35949c-.0642,.08051-.30151,.31831-.46111,.22617-.09577-.05529-.17211-.20229-.17184-.29766l.07703-.09511c.18547-.01054,.37753-.07601,.47371-.16008l-.31288-.18064c-.1085-.06264-.16575-.1839-.16548-.27927,.00023-.0807,.05798-.13552,.16648-.07288l.39588,.22856,.00064-.22743-1.14287-.65984-.00064,.22743,.37669,.21748c.11492,.06635,.16575,.18386,.16552,.26456-.00027,.09537-.0516,.15394-.16652,.08759l-.28092-.16219c.31865,.39708,.38231,.48525,.38202,.588-.00027,.09531-.07714,.15385-.15379,.1096l-.0956-.114c-.0699-.15791-.15261-.30852-.22898-.43345l-.00131,.46216c-.00031,.11005-.08348,.12084-.16648,.07292-.0766-.04422-.1531-.13981-.15277-.25724l.00119-.41818c-.10276,.16115-.35262,.3182-.46754,.25185-.09577-.05529-.16569-.20591-.1654-.30864l.05141-.08051c.18551-.02521,.38389-.07234,.4801-.17109l-.33202-.19169c-.10854-.06267-.16575-.1839-.16548-.27927,.00023-.0807,.05794-.13554,.16648-.07288l.43416,.25066,.00064-.22743-.60652-.35018-.05765,.03285Z"/></g></g><g><g><g><g><path class="cls-2" d="M35.62785,38.41511s.06907,.9502-.00865,1.82269c-.00865,.15548-.02594,.31097-.05188,.45781-.00865,.09506-.02594,.18143-.05188,.27644-.15543,.62199-.3368,1.06256-.50088,1.69315-.02594,.10366-.04323,.19867-.07782,.29368v.00865c-.01729,.07777-.04323,.16413-.06053,.2419-.14679,.59605-.28492,1.18346-.44057,1.78816-.14679,.57876-.62194,2.652-.62194,2.652,0,0-.15543,.2332-.7083,.31097-.79477,.1123-1.92635,.05183-2.34108-.00865-.96739-.1296-1.9177-.40598-2.71237-.9675-.42327-.30232-.23325-.95885-.23325-.95885,0,0,.89843-3.90458,1.30441-5.60632,.61329-2.63476,1.08845-3.34311,1.37348-3.55042,.31962-.22461,.9502-.38874,1.3217-.4924l2.65194-.08636c.66517,.19002,1.08845,.63923,1.23534,1.14892,.08636,.31097-.07772,.97614-.07772,.97614Z"/><path class="cls-2" d="M32.55265,47.09284c.18052,.07675,.35782,.1625,.53123,.25844,.31991,.17698,.64532,.4191,.7293,.77491,.10202,.43222-.1875,.85372-.48607,1.18246-.48391,.53281-1.04746,1.00961-1.71052,1.28961-.74393,.31416-1.56856,.36447-2.37478,.41065-.39898,.02286-.79795,.04571-1.19693,.06857-.2611-.75731-.41501-1.55113-.45932-2.3509-.04201-.75866,.11752-1.68647,.33404-2.41187,.01776-.05951,.04169-.12481,.09733-.15238,.04441-.022,.09717-.01363,.14593-.00476,.71668,.13041,1.38296,.28506,2.10606,.37165,.77668,.093,1.56367,.24858,2.28372,.56361Z"/><path class="cls-2" d="M32.82919,36.19922c.00325-.00052,.0065-.00105,.00975-.00158,.19589-.03227,.37949-.07538,.58328-.07407,.3623,.00232,.68204,.0984,1.03723,.15762-.00634,.55174-.12997,1.25083-.25752,1.87891-.09977,.4913-.23178,1.03043-.37389,1.51429-.60661-1.2506-1.88277-3.32016-1.88277-3.32016,0,0,.05445-.03106,.08995-.03976,.05962-.01462,.16265-.06252,.22288-.07453,.20367-.04062,.3677-.00821,.57109-.04071Z"/><path class="cls-2" d="M28.49982,40.62917c.14684,.06981,.13273,.04433,.28401,.10586,.3931,.15523,.80117,.27899,1.22151,.32599,.27341,.03352,.57722,.04886,.85131-.01373,.00442,.00111,.00719-.00054,.01215-.00163,.27685-.06425,.28367-.19406,.36248-.46078,.35803-1.21815,.88888-1.98417,1.02764-3.24573,.01399-.13036,.16157-1.13606,.03769-1.16722-.22641-.05694-.81388,.00438-1.0874,.05537-.28568,.05262-1.08314,.27249-1.32093,.44285-.21732,.15438-.37287,.38066-.50356,.61084-.30679,.53819-.94343,3.31937-.88491,3.34818Z"/><path class="cls-34" d="M32.60473,36.95856c.03457,.04092,.071,.08028,.10961,.1177,.16436,.1593,.41536,.2448,.64236,.27951,.28721,.04392,.44515,.03477,.64974-.15623,.07327-.0684,.22823-.2618,.22823-.2618,0,0,.08292-.43595,.07387-.57447-.00857-.13125-.04834-.14794-.02023-.27575,.03813-.17335,.0764-.34666,.11473-.51996,.04463-.20177,.08932-.40352,.13414-.60524,0,0-.24867-.69339-.42902-.74883-.15456-.04812-.30811-.11472-.47027-.13301-.08402-.00894-.16901,.01046-.25186-.00341-.05143-.0083-.43802-.13156-.49174-.13032-.11617,.00405-.68484,2.39733-.68415,2.41994,.00081,.02667,.28198,.45856,.3946,.59187Z"/></g><path class="cls-40" d="M35.59538,33.78369c.0007-.10701,.00041-.21403,.00492-.32032,.01089-.25616,.04903-.51649-.01082-.76647-.05835-.24371-.20621-.45848-.37594-.64513-.16761-.18432-.36131-.34861-.58458-.46104-.25056-.12618-.53059-.18347-.80941-.21489-.20957-.02362-.4207-.03334-.63156-.02915-.10154,.00202-.2027,.00822-.30396,.01573-.09028,.00669-.17936-.02263-.26039,.0238-.17171,.09839-.32473,.18997-.47339,.31949-.3062,.26675-.45438,.75377-.51937,1.14113-.06804,.40558-.06839,.82476,.01538,1.22807,.19241,.92641,.71837,1.2017,.82557,1.2515,.29934,.13907,.07759,.43375,.4011,.51607,.2371,.06034,.48711,.07071,.72571,.0301,.58461-.0995,1.05156-.48666,1.46343-.87902,.21393-.2038,.42663-.35409,.48924-.652,.03853-.18332,.04283-.37059,.04406-.55787Z"/><path class="cls-34" d="M35.34538,35.79123c-.3122,.68249-.99732,.7924-1.27572,.7874-1.01241-.01818-1.53871-.80945-1.74312-1.56323-.09581-.35329,.33148-2.08541,.33148-2.08541l.57236-.75919,2.01064-.10745c.15845,.18516,.31414,.37266,.47202,.55952,.23231,.27623,.27792,.79462,.19312,1.12766-.04434,.17416-.24573,1.352-.56078,2.0407Z"/><path class="cls-34" d="M32.76446,34.08573c.17489,.31288,.03704,1.02343-.22202,1.23655-.10307,.08527-.26125-.05994-.33985-.11388-.21654-.14861-.42584-.46986-.45476-.72569-.01874-.16583,.05857-.47411,.22179-.56052,.3009-.15928,.61849-.14905,.79484,.16353Z"/><path class="cls-40" d="M33.70471,34.19629c.00813,.00188,.01685,.001,.0254-.00323,.00273-.00187,.27282-.23643,.60017-.13269,.02141,.00678,.04846-.00921,.05707-.0379,.00867-.02905-.00289-.05787-.02508-.06661-.42076-.16581-.64476,.13071-.65851,.13753-.02316,.01209-.03599,.0435-.02892,.07124,.00459,.01717,.01611,.02851,.02986,.03166Z"/><path class="cls-40" d="M35.02986,33.90997c.00696,.00354,.01513,.0044,.02394,.00184,.00294-.00135,.3058-.18457,.57927-.01365,.01788,.01118,.04641,.00042,.06118-.02691,.01491-.02768,.01132-.05919-.0068-.0725-.34368-.25257-.61945,.00267-.63364,.00681-.02403,.00759-.04331,.03681-.04356,.06633,.00004,.01832,.00781,.03211,.01959,.03807Z"/><path class="cls-12" d="M33.8988,35.82375c.06066,.11419,.29484,.21268,.44081,.22674,.2238,.02156,.35242-.05994,.47738-.16625"/><line class="cls-13" x1="34.71831" y1="35.50682" x2="34.49725" y2="35.5239"/><path class="cls-27" d="M35.43012,34.57978c-.01939,.07365-.08587,.13331-.13281,.13637-.05846,.00381-.11937-.03368-.11949-.11015-.00011-.07337,.05346-.22405,.18753-.18815,.06848,.02224,.08416,.08827,.06478,.16192Z"/><path class="cls-27" d="M34.08796,34.75082c-.01939,.07365-.08587,.13331-.13281,.13637-.05846,.00381-.11937-.03368-.11949-.11015-.00011-.07337,.05346-.22405,.18753-.18815,.06848,.02224,.08416,.08827,.06478,.16192Z"/><path class="cls-40" d="M35.21047,31.28937c-.17864-.13726-.43098-.23301-.6447-.28011-.58925-.12985-1.27531-.1366-1.8053,.18039-.7708,.46102-.82598,1.34969-.70858,2.14675,.01956,.13278,.04746,.27999,.15588,.35911,.04173,.03045,.09165,.04742,.13626,.07348,.13399,.07828,.29097,1.09315,.29097,1.09315l.2286,.02679s.01872-.85664,.06019-1.03591c.04045-.1749,.08768-.36028,.2212-.48946,.06813-.06592,.16238-.12641,.16515-.22118,.00173-.05922-.03467-.11163-.05966-.16534-.11871-.25511,.30935-.21986,.45257-.3042,.06327-.03726,.23528-.15908,.2318-.24307,.00655,.15834-.03852,.3184-.12672,.45006,.30119-.07068,.56826-.2755,.71462-.54807-.05335,.16715-.1067,.3343-.16004,.50145,.3102,.03641,.63382-.14618,.76306-.43052-.03998,.17094-.10543,.33589-.19353,.48773,.18278-.03514,.34994-.14546,.4541-.29971,.05226-.07739,.08975-.1726,.06795-.2634,.15436,.24057,.30913,.54629,.39067,.82301,.03808,.12923,.08675,.36144,.07684,.56359,.24364-.39918,.21484-.9225,.02125-1.42716-.13985-.36457-.39951-.74146-.73257-.99738Z"/></g><path class="cls-15" d="M33.9101,36.54623s-.62789-.12984-1.00174-.65652c-.1089-.15341-.17635-.38525-.17635-.38525"/><path class="cls-40" d="M34.57337,36.28703c-.04304,.03256-.08608,.06511-.12911,.09767-.01537-.00787-.00861-.09767-.00861-.09767,0,0-.12868,.06889-.14413,.0942-.00098-.04473-.02271-.08859-.0577-.11647-.02723,.06382-.07692,.1178-.13831,.15022-.2305,.12173-.0013,.19291,.15074,.19212,.06841-.00036,.14399-.02319,.19944-.06478,.04389-.03291,.07049-.07154,.0924-.12149,.0109-.02486,.01766-.12048,.03529-.13382Z"/><path class="cls-16" d="M34.09376,31.21798c.3141,.09766,.57789,.34525,.69525,.65253"/><path class="cls-16" d="M33.70578,31.41058c.17852,.15652,.27204,.40467,.24124,.64008"/><path class="cls-16" d="M33.17707,31.49712c.10052,.26826,.05821,.58551-.1091,.81804-.02299,.03196-.05016,.06381-.08745,.07642"/><path class="cls-2" d="M31.67122,36.4033s.61917-.4739,.57975-.31715,.48663,.8631,1.0571,.95101,.86258-.1164,.91066-.23393,.07863-.16541,.07863-.16541l.3135,.07884s-.11847,.61834-.48911,.91401-.86393,.25555-1.11538,.238c-1.01913-.07112-1.33514-1.46537-1.33514-1.46537Z"/><path class="cls-14" d="M34.43648,36.82096c.02239,.05982,.00783,.63158-.28001,.89252-.2323,.21059-.54481,.20992-.79302,.20796-.36694-.0029-.72321-.08735-.98826-.34112s-.55615-.61323-.66255-.96441"/><g><g><line class="cls-8" x1="28.8274" y1="58.96307" x2="28.8274" y2="62.07677"/><line class="cls-8" x1="21.42023" y1="58.38404" x2="21.42023" y2="55.32713"/><g><line class="cls-8" x1="49.77957" y1="47.36049" x2="49.77957" y2="51.23513"/><polygon class="cls-41" points="29.31655 57.19085 29.3267 59.88707 50.26276 49.5937 50.25261 46.89748 29.31655 57.19085"/><polygon class="cls-31" points="29.31655 57.19085 20.95743 53.13496 20.96759 55.83118 29.3267 59.88707 29.31655 57.19085"/><polygon class="cls-7" points="50.25261 46.89748 41.89349 42.84159 20.95743 53.13496 29.31655 57.19085 50.25261 46.89748"/></g><path class="cls-31" d="M19.35831,55.47634c0,.08848-.0776,.30968,.10347,.99542s1.37094,1.48206,3.02641,1.68115c.85063,.10229,1.62444-.11513,2.12131-.23323,.27702-.06584,1.03444-.31978,1.47417-.69582l.59494-.68573-.18107-.66361-7.13922-.39817Z"/><path class="cls-7" d="M24.39838,54.01671s-4.28452-.24426-4.9986,1.28239c-.43497,.92993,2.64212,2.56478,4.42734,2.19838s2.92775-1.70985,2.85635-2.01518-.49986-.85493-1.57099-.3664-1.49958,1.03813-2.28508,.85493-.64268-.61066-.28563-.67173,1.65364-.46425,2.28508-.67173c.52061-.17106-.42845-.61066-.42845-.61066Z"/></g><path class="cls-34" d="M21.92642,55.32006c.0515-.04601,.10678-.08901,.15943-.12778,.79798-.5876,1.32541-1.3776,1.95643-2.08638,.57178-.64224,1.15943-1.34579,2.14822-.73318,.69529,.43077,1.13467,1.17225,1.05039,1.90293-.08428,.73073-.72917,1.40777-1.56804,1.56442-.2186,.04082-.44487,.04826-.66126,.09694-.54533,.12268-.98923,.40021-1.5813,.37157-.45831-.02218-.95721-.15372-1.37206-.31304-.12264-.0471-.25425-.10128-.31523-.20374-.09643-.16202,.02583-.33096,.18342-.47174Z"/><path class="cls-25" d="M24.23537,51.81606c-.108-.06892-.0413-.21511,.03775-.30844,.54602-.64471,1.27973-1.02275,2.05994-1.42069,.83359-.42516,1.90513-.53112,2.80268-.85239,.78668-.28159,1.54171-.69132,2.00956-1.30107,.15659-.20408,.285-.43369,.51222-.58141,.27476-.17862,.65309-.20442,.98919-.13734s.64068,.2163,.93962,.36381c.44166,.21792,.8842,.43688,1.29299,.69751,.5431,.34627,1.03375,.77842,1.29173,1.31408,.24058,.49952,.2689,1.15184-.10004,1.61474-.38202,.47931-1.06351,.86683-1.59401,1.21963-.78844,.52434-1.6375,.9669-2.42414,1.48696-.31027,.20513-.63081,.40471-.96539,.58351-.50022,.26733-1.03185,.48822-1.60752,.61179-.49356,.10595-.91567,.8677-1.16551,1.21576-.38294,.53348-.65677,1.05916-1.03971,1.59264-.43903,.61162-1.43873,1.21279-2.35232,1.07844-.40184-.05909-.82732-.11819-1.30008-.86278,.26002,.01182,1.59023-.47792,1.59023-.47792,0,0,.64-1.14165,.86437-1.66066,.27691-.64051,.5783-1.28269,1.0496-1.83396-.48339-.4251-.96795-.76939-1.50058-1.14669-.37024-.26226-.67723-.58035-.96093-.91381-.11223-.13192-.22082-.26624-.32823-.40046-.40045-.5004-.17937-.79376,.37936-1.02541,.5224-.21659,1.0491-.42735,1.58922-.6097"/><path class="cls-23" d="M27.12599,53.48607c.08364,.2805,.11675,.58062,.01734,.85733-.11386,.31695-.5303,.71671-.96098,.58981-.17575-.05178-.32144-.17858-.50678-.19076-.1554-.01021-.30827,.06912-.38955,.18285-.08127,.11372-.09659,.256-.06459,.38644,.05806,.23661-.26578,.69091-.45266,.8335-.60228,.45955-1.55105,.47753-2.29287,.23638-.46592-.15146-.82784-.33314-1.1424-.70874-.13735-.164-.25918-.34275-.34363-.5393-.21516-.50076-.16286-1.10761,.13481-1.56417,.17846-.27372,.43291-.48841,.63845-.74242,.26523-.32778,.44493-.7157,.68525-1.06216,.32682-.47117,.72385-.72497,1.2905-.79277,.54015-.06464,1.09506,.06668,1.56257,.34073,.41035,.24054,.80006,.53276,1.08121,.92145,.28849,.39884,.59936,.76901,.74332,1.25184Z"/><path class="cls-34" d="M46.07902,46.22598c.57346-.09371,1.21443-.3165,1.37491-.79655-.15191-.21281-.47153-.28019-.75963-.31847-.85344-.11339-1.72323-.13652-2.58327-.06869-.30862,.02434-.7,.13591-.70122,.40094-.00034,.07333,.03256,.15003-.00028,.21777-.02602,.05367-.08736,.0878-.14689,.11579-.33451,.15723-.74898,.24721-.94347,.52809-.26307,.37993,.10045,.9141,.60308,1.0151,.64141,.12888,1.03865-.24951,1.47998-.55503,.50924-.35254,1.04091-.43503,1.67679-.53894Z"/><path class="cls-34" d="M43.85448,44.98724c.57346-.09371,1.21443-.3165,1.37491-.79655-.15191-.21281-.47153-.28019-.75963-.31847-.85344-.11339-1.72323-.13652-2.58327-.06869-.30862,.02434-.7,.13591-.70122,.40094-.00034,.07333,.03256,.15003-.00028,.21777-.02602,.05367-.08736,.0878-.14689,.11579-.33451,.15723-.74898,.24721-.94347,.52809-.26307,.37993,.10045,.9141,.60308,1.0151,.64141,.12888,1.03865-.24951,1.47998-.55503,.50924-.35254,1.04091-.43503,1.67679-.53894Z"/><path class="cls-36" d="M29.24803,53.13803c1.02226,1.41851,1.49745,3.29261,1.87816,4.91177,.73398-.33353,1.38031-.75303,2.07098-1.12463,.6954-.37415,1.537-.59108,2.25787-.94531,1.51302-.7435,2.90789-1.64636,4.39331-2.42756,2.26615-1.19179,4.72759-2.09163,7.00426-3.26868,.09957-.05148,.20625-.11139,.24091-.20637,.0361-.09892-.01732-.20381-.06955-.29732-.19881-.35592-.39485-.67602-.47765-1.05568-.08854-.40595-.0636-.82164-.24314-1.21301-.31449-.68552-1.12472-1.09175-1.87965-1.44598-1.56249-.73316-3.12499-1.46632-4.68748-2.19949-.18283-.08579-.37221-.17336-.57982-.19022-.17896-.01453-.35764,.02485-.52907,.07111-1.15264,.31102-2.14833,.93711-3.23701,1.38608-1.2165,.50169-5.11487,2.54365-6.30594,3.08813-2.16207,.98836-3.00054,1.37146-3.39973,1.98699-.06785,.10463-.09104,.21085,.04091,.25061,.61087,.18407,1.50459,.82611,1.73972,.98822,.69619,.48002,1.31248,1.03854,1.78293,1.69134Z"/></g><g><path class="cls-34" d="M38.3921,48.0469c-.00865,.01729-.02594,.03459-.05188,.04318-.01729,.00865-.10355-.01724-.12949-.01724-.07782-.04318-.09512-.06048-.17273-.10366,.10355,.10366,.17273,.21596,.22461,.35415,.01719,.04318,.02584,.10366,.01719,.15548-.03448,.10366-.15554,.14689-.25909,.13824-.14689-.01729-.26784-.10366-.38014-.18143,.06907,.06912,.04313,.19007-.02584,.2419-.07782,.05183-.17283,.05183-.26784,.02589-.18137-.07772-.3542-.23325-.51839-.33691-.19002-.1123-.38004-.21596-.57871-.30232-.20731-.08636-.42327-.19867-.64788-.20731-.25055-.00865-.37139,.20731-.51839,.3628-.12949,.1296-.28492,.23325-.45776,.26779-.05178,0-.10366,0-.15554-.02589-.04313-.02594-.07772-.06912-.07772-.1123-.00865-.06912,.03459-.12095,.07772-.17278,.32837-.3628,.3715-.82931,.57016-1.25258,.02594-.07777,.06907-.13819,.09501-.20731,.01729-.04318,.02594-.07777,.03459-.12095,.00865-.06912,0-.12954,.00865-.19867-.01729-.74289-.10366-1.48583-.18137-2.22872-.00865-.06912-.06053-.46645-.12106-.95885,.01729-.07777,.04323-.16413,.06053-.2419v-.00865c.03459-.09501,.05188-.19002,.07782-.29368,.16408-.63059,.34545-1.07115,.50088-1.69315,.02594-.09501,.04323-.18137,.05188-.27644,.02594-.14684,.04323-.30232,.05188-.45781,.19867-.16413,.38869-.25914,.53558-.19007,.23315,.12095,.30232,5.26081,.30232,5.87416-.00865,.03453,0,.06907,.01729,.10366,.02594,.04318,.06053,.05183,.10366,.07772,.30232,.12095,.5961,.25055,.89832,.37145,.35431,.15548,.76894,.40603,.73435,.86384,0,.04323-.01729,.06912-.00865,.10366,.01729,.04323,.04323,.06912,.05188,.10371,.06042,.06907,.12084,.14684,.14679,.2332,.04323,.08642,.04323,.19007-.00865,.26779Z"/><path class="cls-10" d="M36.65088,47.58104c.36245,.19225,.69137,.44751,.96757,.7509"/><path class="cls-10" d="M37.41588,46.85529c.27844,.15467,.5682,.3197,.7405,.58759"/><path class="cls-11" d="M37.0812,47.20188c.27957,.16596,.72992,.45609,.8959,.73082"/></g><path class="cls-2" d="M35.03792,36.56481s.43103,.12692,.6828,.74577,.81026,3.03703,.81026,3.03703c0,0-.15758,.55295-.58892,.64817-.51785,.11432-.69708,.12098-.69708,.12098l-.20706-4.55196Z"/><path class="cls-14" d="M35.46722,41.04304s.15048-1.5539,.16196-1.66104c.11573-1.08016-.07715-1.42735-.07715-1.42735"/><path class="cls-14" d="M31.11567,40.77077c-.03628-.40704,.07112-1.1252,.03484-1.53225-.04707-.52813-.11776-1.10684-.50522-1.46878"/><path class="cls-14" d="M28.02932,46.86136c.46781,.34153,1.01416,.54542,1.58184,.66039,.18622,.03772,.33795,.06806,.46727,.09218"/><g><path class="cls-34" d="M31.30507,47.1043c-.0023-.41482,.00161-.83002-.0081-1.24479-.0296-1.26409-.05339-2.52983-.12763-3.79227-.00428-.07282-.09679-1.24955-.1694-1.21932-.46292,.19289-1.31162,.15431-1.85173,.03857-.04878-.01035,.14045,2.0275,.15714,2.16003,.16415,1.30347,.72577,5.5777,.72285,5.71512-.00461,.21749-.00005,.43299,.07515,.63502,.10481,.28156,.33463,.49823,.57867,.67345s.51037,.32061,.73656,.51833c.1366,.1194,.25584,.34826,.3757,.48416,.07799,.08844,.14627,.11645,.28836,.08355,.07504-.01738,.12729-.09561,.10681-.17082,.04567,.04421,.10131,.10993,.15747,.1449,.04566,.0284,.09578,.04959,.14818,.06179,.05271,.01227,.1126,.01446,.15632-.01742,.05907-.04308,.06474-.12979,.04856-.20109s-.04859-.14051-.04561-.21356c0,.01425,.08793,.13038,.10423,.15255,.05139,.06994,.12954,.128,.21346,.15202,.0812,.02324,.17665,.00723,.2349-.05392,.04884-.05127,.06567-.12656,.06068-.19719s-.02936-.13827-.05349-.20484c.02384,.03038,.07415,.02711,.10376,.00233s.04274-.06391,.05082-.10169c.19191-.89741-.85674-1.74199-1.58112-2.01291-.13023-.04871-.27047-.09193-.36371-.19508-.23423-.25912-.11707-.87524-.11886-1.19693Z"/><path class="cls-9" d="M31.59126,50.1767c.27021,.20015,.36027,.35812,.58315,.72365"/><path class="cls-9" d="M32.40214,49.54979c.18751,.16828,.69774,.75573,.79034,.98718"/><path class="cls-19" d="M32.02749,49.83633c.25354,.22541,.57852,.62647,.69414,.94082"/></g><path class="cls-34" d="M32.35088,49.13717c.25384,.26813,.67052,.36792,1.01828,.24387,.06527-.02328,.13037-.05552,.17293-.11022s.05647-.1365,.017-.19347c-.04407-.06361-.13206-.07422-.20917-.08067-.36573-.03058-.72835-.09829-1.08046-.20177-.0412-.01211-.06928,.06661-.07379,.10931s.01513,.08395,.03567,.12167c.05316,.09764,.04311,.03053,.11954,.11126Z"/><path class="cls-9" d="M33.02681,49.37403c-.186-.20363-.39469-.38652-.62098-.54418"/></g><path class="cls-14" d="M27.27145,48.57481s-.04858-1.99186,.24291-2.4291,1.02022-4.08089,1.0688-4.42097,.05492-.94113,.05492-.94113l-.28401-.10586s.61775-2.54808,.95782-3.17964l.34007-.63157"/><path class="cls-14" d="M36.25913,40.65594s-.19433-2.4291-.29149-2.62343"/></g><g><g class="cls-21"><polygon class="cls-6" points="46.11539 14.97266 46.07572 28.96362 23.55556 15.9616 23.59522 1.97064 46.11539 14.97266"/><polygon class="cls-32" points="46.11539 14.97266 49.50639 13.00202 49.46673 26.99298 46.07572 28.96362 46.11539 14.97266"/><polygon class="cls-32" points="23.59522 1.97064 26.98623 0 49.50639 13.00202 46.11539 14.97266 23.59522 1.97064"/></g><g><path class="cls-4" d="M28.25147,16.31588c.07006,.09925,.10183,.19107,.1016,.27176-.00037,.13206-.08376,.2162-.19869,.14985l-.12755-.13244c-.1274-.17643-.28027-.38964-.44592-.59546-.04665,.64909-.42384,.60034-.89626,.32758-.5427-.31333-.92475-.89397-.92325-1.42219,.00137-.48421,.36613-.56755,.88329-.26896,.16596,.09582,.35102,.24674,.53596,.427-.00537-.37054-.01048-.82172-.01568-1.25093l-.27451-.15849c-.29368-.16955-.60015-.35384-.90657-.54546-.12769-.07372-.19121-.2353-.19089-.34534,.00031-.11007,.05812-.17958,.17941-.10956l.01916,.01106c.32554,.21735,.65753,.4164,.98313,.60438l.17877,.10322c-.00568-.2605-.01134-.50627-.01723-.69337l.00004-.01469c.00035-.1247,.10909-.12803,.21124-.06906,.09577,.05529,.19772,.18026,.19735,.31233,.00589,.1871,.00524,.41452,.01084,.68231,.22993,.11803,.43426,.22135,.60031,.29517l.01919,.01108c.10215,.05897,.15286,.19848,.15255,.30852-.00029,.10271-.04524,.1723-.14105,.13167-.17881-.08121-.38957-.18083-.62583-.3099-.00008,.02938,.02278,.99785,.02149,1.45274,.25498,.2868,.49074,.5846,.66909,.82719Zm-1.06599-.70362l.00019-.06606c-.19126-.19859-.36984-.36783-.54221-.46735-.30011-.17327-.46009-.12598-.46071,.09411-.00071,.24944,.18392,.53239,.50317,.71671,.30646,.17694,.49832,.16277,.49957-.2774"/><path class="cls-4" d="M25.41267,11.5832c.10855,.06267,.21049,.19501,.21013,.31974l-.00652,.055c-.17427,.55341-.20765,1.04851-.22201,1.60608l-.00064,.22742c-.00139,.49154,.0228,.98314,.13033,1.40532l.01249,.11009c-.00046,.16141-.11569,.1904-.23062,.12404-.10215-.05897-.19134-.16927-.22921-.35278-.08195-.4221-.1061-.92839-.10468-1.42726,.00094-.33013,.00967-1.1481,.22956-2.01322,.03223-.09896,.12181-.10604,.21117-.05444Z"/><path class="cls-4" d="M29.37151,13.75863c.11491,.06635,.23599,.22443,.23559,.36382l-.00655,.04767c-.0715,.40696-.11758,.8727-.13191,1.41558,.32808-.68506,.73276-1.3112,1.44784-.89835,.42779,.24699,.88641,.89391,.88219,2.3832-.00314,1.10781-.23638,2.16358-1.89637,1.20519l-.01277-.00737c-.16601-.09584-.24229-.2648-.24192-.39685,.00033-.11739,.07735-.20519,.19226-.13885l.02555,.01475c1.30883,.75566,1.51541,.08127,1.51824-.91648,.00302-1.06378-.21947-1.53762-.50039-1.69981-.09578-.0553-.19804-.07026-.30042-.06321-.35178,.01735-.81439,.79373-1.04037,1.55244-.03231,.10626-.12827,.11698-.23041,.05801-.10855-.06267-.22322-.21703-.2291-.38945-.01833-.31188-.02392-.58701-.02318-.85111,.00156-.55025,.03489-1.0307,.10046-1.59543,.01317-.13201,.10909-.14276,.21127-.08376Z"/><path class="cls-4" d="M34.29558,18.32842c.17237,.09952,.31235,.34935,.31177,.55479-.00058,.20541-.1415,.28571-.31387,.18619-.16601-.09584-.30601-.33834-.30543-.54375,.00058-.20543,.14152-.29308,.30753-.19723Z"/><path class="cls-4" d="M36.63377,21.42731c-.05747-.03318-.10202-.10298-.11449-.21306-.02497-.22752-.07508-.60183-.11277-.82936l.00012-.04401c.00033-.1174,.08355-.14284,.16015-.09861,.05744,.03316,.10845,.09938,.12096,.19474,.02492,.23486,.06858,.62017,.08074,.84764l-.00004,.01466c-.00037,.13206-.07081,.16488-.13468,.12801Z"/><path class="cls-4" d="M37.44152,20.73995c.07022,.04054,.15304,.1545,.15271,.27187l-.0001,.03668c-.01309,.11004-.05884,.44369-.10407,.60863-.01939,.07697-.06417,.08789-.10888,.06208-.06384-.03686-.12751-.1471-.12722-.24981l.00651-.03301c.01957-.143,.05249-.47669,.06571-.63077,.01303-.08061,.05787-.09884,.11533-.06566Z"/><path class="cls-4" d="M38.83571,20.7145l-.63847-.36862c-.10215-.05897-.15932-.19486-.15905-.29025,.00029-.10268,.05805-.17222,.16019-.11324l.63847,.36862c.10855,.06267,.15932,.19486,.15903,.29755-.00027,.09538-.05162,.16862-.16017,.10594Z"/><path class="cls-4" d="M39.81526,22.58072c.08301,.04792,.17219,.18024,.17182,.3123-.00878,.83266-.16939,1.09269-.34816,.98948-.2107-.12165-.3244-.62087-.39997-1.03929-.16681,.18294-.33984,.3182-.53196,.41304l-.12145-.01135c-.10855-.06267-.20399-.24271-.20364-.36742l.07071-.12082c.14721-.03995,.26892-.12398,.39072-.21534l-.56187-.32439c-.12131-.07004-.17857-.17658-.17817-.31597l.00324-1.1445c.0004-.13939,.05805-.17222,.17936-.10218l.5044,.29122c.12128,.07002,.18497,.1729,.18457,.31229l-.00329,1.15919c.05773-.06955,.10913-.14275,.16046-.216-.06875-.56147-.10531-1.18512-.14125-2.05094l-.91939-.53081-.05765,.03285-.00366,1.29122c-.00181,.63827-.01638,1.26179-.13285,1.7457-.02588,.10263-.09627,.11344-.1665,.07289-.08936-.05159-.19126-.19859-.19092-.31599l.0065-.04767c.01932-.05498,.03232-.121,.04531-.18698-.07069,.11353-.69694-.05699-.99716-.17153l-.03189-.01841c-.11493-.06636-.19121-.2353-.19089-.34537,.00023-.08069,.03879-.13925,.14095-.09499,.11497,.0517,.23636,.09238,.35136,.13672l.00416-1.46727-.23624-.13639c-.10852-.06266-.16575-.19123-.16546-.29395,.00027-.09538,.05803-.15757,.16656-.09492l.23624,.13639,.00114-.40349-.11493-.06636c-.10855-.06267-.16574-.18389-.16545-.28657l.00006-.02202-.05113-.02218c-.08936-.05159-.16565-.20586-.1653-.33056l.06432-.13188c.14731-.0766,.32039-.22655,.4488-.40959,.03209-.04027,.10882-.03271,.18542,.01152,.06387,.03688,.12761,.10307,.17219,.18027,.15259,.31588,.29247,.59507,.43863,.91458,.00062-.22009,.09673-.27482,.29464-.16056l1.01518,.58612c-.0062-.07706-.00597-.15775-.00576-.23111l.00004-.01469c.00033-.1174,.08351-.12815,.16652-.08022,.08936,.05159,.17859,.16925,.18459,.29765,.0062,.07706,.00597,.15775,.00576,.23111l.14685,.08479-.04435-.15055-.01889-.0991c.00027-.09535,.08345-.10613,.16005-.0619l.15294,.19118c.16494,.47735,.23416,.87004,.23399,.92874-.00033,.11737-.08359,.1575-.17295,.10591-.05752-.03321-.12119-.12143-.14006-.2352l-.04422-.18718-.25538-.14744c.01766,.53194,.03551,1.0052,.06002,1.38675,.06438-.15387,.12251-.36282,.18056-.53507,.01948-.09163,.08981-.08777,.15363-.05093,.09577,.05529,.19768,.19496,.19735,.31236-.00017,.05867-.17434,.59742-.45058,1.04788,.03757,.27153,.11937,.74497,.15129,.7634,.01916,.01106,.03245-.15763,.04645-.59046,.00673-.12102,.06436-.14654,.13459-.106Zm-2.15634-1.84016l.00318-1.12251-.1215-.00401-.05742-.04784,.00624,.0624c-.00029,.10268-.05165,.16857-.16655,.10223l-.12769-.07372-.00114,.40349,.249,.14376c.11493,.06636,.17208,.20223,.17181,.29761-.00029,.10271-.05798,.1576-.16653,.09493l-.25538-.14744-.00383,1.34989c.07664,.02222,.14697,.03343,.2237,.04099l.06386,.02215c.06387,.03688,.10839,.12137,.12096,.20212,.05225-.38136,.05991-.83988,.06129-1.32406m-.92234-1.74502l.58741,.33914,.05107,.03682c-.10801-.25344-.19064-.4334-.28599-.63541l-.01912-.01838-.01279-.00738-.01278-.00004c-.09627,.11344-.18605,.20857-.3078,.28524m1.92922,2.99506l.00193-.68231-.0382-.05879-.17875-.1032-.03205,.01823-.00193,.68231,.03182,.06246,.17875,.1032,.03843-.0219"/><g class="cls-21"><path class="cls-4" d="M40.56351,22.57917c.00033-.11737,.10917-.16479,.21134-.1058l.13386,.15077c.31787,.66119,.4005,.84117,.40027,.92187-.00033,.1174-.10277,.16114-.20494,.10215l-.12107-.14342c-.0636-.13223-.27336-.584-.38152-.7861l-.03794-.13947Z"/><path class="cls-4" d="M43.71997,25.7904c.10211,.08101,.14654,.19486,.14629,.28288-.00035,.12473-.07738,.21985-.17952,.16088l-.02554-.01475c-.74014-.59634-1.28814-1.29482-1.61833-2.12477-.28917,.49442-.90943,.47432-1.59313,.26332l-.03189-.01841c-.1022-.05901-.19755-.26105-.1972-.38575,.00021-.07336,.03237-.12828,.12822-.09499,.80501,.25901,1.48948,.19858,1.49183-.63042l.00087-.30817c.00037-.13203,.10271-.13909,.21126-.07642,.09577,.05529,.19772,.1803,.19735,.31233l-.00085,.30081c-.00223,.78499,.59653,1.6304,1.47065,2.33346Z"/><path class="cls-4" d="M43.26477,23.93298l.14079-.02159c.09574,.05527,.19124,.21329,.19089,.33803l-.03225,.09894c-.06423,.08786-.3399,.34019-.44243,.40593l-.12145-.01132c-.09577-.05529-.19129-.20598-.19098-.31602l.03864-.08795c.07687-.05116,.32697-.2962,.41679-.40602Z"/><path class="cls-4" d="M40.44909,22.32207c-.1085-.06264-.19752-.25366-.19716-.37839,.00023-.08069,.03874-.12459,.12817-.09502,.75394,.24421,1.508,.44444,1.95018,.11918l-.9449-.54554c-.28161,.07257-.56933,.04608-.69717,.02373l-.05107-.0148c-.10855-.06267-.21032-.25371-.20999-.37108,.00021-.07336,.03865-.10997,.12176-.09872,.23011,.04469,.63934,.06051,.94684-.12939l.12145,.01135c.09579,.05531,.18496,.19495,.18465,.30499l-.03226,.0916,.81724,.47184c.15961,.09215,.23591,.2538,.23555,.3785-.00042,.14672-.12218,.23807-.29511,.33665,.26119,.34187,.58,.68025,1.15429,1.12938,.12763,.09574,.17842,.22795,.17815,.32333-.00033,.11737-.07732,.19052-.18582,.12788l-.03831-.02949c-.71461-.57423-1.0842-1.05217-1.38365-1.43816-.67199,.17785-1.79005-.21044-1.80283-.21782Z"/></g></g><g><path class="cls-4" d="M30.31025,10.77838c-.12774-.07375-.19763-.2317-.19728-.3564,.00035-.12473,.07091-.20159,.19865-.12784l1.09814,.63401c.13409,.07742,.19761,.23168,.19725,.35642-.00035,.1247-.06453,.20525-.19863,.12783l-1.09814-.63401Z"/><path class="cls-4" d="M30.30808,11.54135c-.13409-.07742-.20398-.23534-.20361-.3674,.00033-.11737,.07089-.19423,.20498-.11681l1.09814,.63401c.13409,.07742,.19761,.23168,.19727,.34906-.00037,.13206-.06455,.21258-.19865,.13516l-1.09814-.63401Z"/><path class="cls-4" d="M30.31455,9.25971c-.13409-.07742-.20398-.23537-.20361-.3674,.00033-.1174,.07089-.19423,.20498-.11681l1.09814,.63401c.13409,.07742,.19761,.23165,.19727,.34906-.00037,.13203-.06455,.21258-.19865,.13516l-1.09814-.63401Z"/><path class="cls-4" d="M34.22055,12.01453l-1.57702-.91049-.00179,.63094,1.23864,.71513c.25538,.14744,.38257,.39724,.3818,.66869-.00624,2.20095-.04008,2.85746-.79988,2.41879-.17872-.10318-.4021-.26889-.66369-.48606-.11482-.09569-.16561-.2279-.16528-.34527,.00044-.15408,.09027-.27121,.23072-.19012l.05752,.03321c.18498,.15822,.31894,.27231,.4339,.33868,.38942,.22483,.39058-.18602,.39499-1.74134l.00035-.1247-.05719-.12121-1.06624-.61559c-.03477,.98668-.1458,1.79705-.53747,2.34985-.05775,.07688-.13446,.06934-.20468,.02879-.12769-.07372-.26139-.29053-.26101-.4226l.00648-.04034c-.03859,.08795-.1345,.08403-.26859,.00661l-1.02156-.5898c-.19791-.11426-.28696-.27593-.28633-.49602l.00316-1.11515c.00064-.22742,.09032-.28587,.28823-.1716l1.02156,.5898c.19791,.11426,.29337,.2796,.29272,.50701l-.00327,1.15183c.48152-.66257,.49748-1.78505,.5012-3.09826l.00046-.16141-.31284-.18062-.06382-.04419c-.0004,.13939-.071,.22357-.20504,.14618l-1.43657-.82941c-.12769-.07372-.19756-.239-.1972-.3637,.00033-.1174,.07091-.20156,.1986-.12784l1.43657,.82941,.07018,.0552-.00624-.0624c.00042-.14672,.07105-.2529,.20515-.17548l.87474,.50503,.00098-.34482c.00046-.16138,.12835-.16102,.26239-.08364,.13409,.07742,.26157,.2245,.26112,.38589l-.00098,.34482,.97688,.564c.14045,.08109,.20387,.26467,.20346,.41139-.0004,.13943-.06463,.24193-.20508,.16084Zm-3.01647,1.53588l.00187-.66029-.05728-.09924-.58738-.33913-.05765,.03289-.00187,.66029,.05728,.09918,.58738,.33913,.05765-.03282"/><path class="cls-4" d="M36.98942,14.34799c-.00062,.22009-.09035,.2785-.28829,.16422l-1.18114-.68193-.00767,2.70718c-.00046,.16138-.10922,.17207-.22412,.10573-.10855-.06267-.22325-.20237-.22279-.36376l.01254-4.42389c.00064-.22745,.0967-.27487,.28821-.1643l1.34078,.7741c.19794,.11428,.28706,.26862,.28642,.49606l-.00393,1.38658Zm-.44633-.47079l.00077-.27146-1.02156-.5898-.00098,.34482,.9641,.55662,.05767-.04018m.00198-.69697l.00075-.2641-.05726-.10654-.90025-.51976-.06405,.0365-.00075,.2641,1.02156,.5898"/><path class="cls-4" d="M38.29807,17.43299c-.00062,.22012-.11596,.28578-.31387,.17151l-1.70474-.98423c-.19791-.11426-.31244-.31264-.31182-.53275l.00354-1.24718c.00062-.22009,.1159-.28581,.31381-.17155l1.70474,.98423c.19791,.11426,.31249,.3127,.31187,.53278l-.00354,1.24718Zm-.4527-.48915l.00225-.79235-.05728-.09921-1.30883-.75565-.05768,.03284-.00225,.79235,.05731,.09923,1.30883,.75565,.05765-.03285"/><path class="cls-4" d="M38.9671,13.77026c.19797,.1143,.28703,.2686,.28639,.49605l-.01125,3.96902c-.00121,.42551-.07214,.6344-.56375,.35057-.12769-.07372-.28088-.17688-.46593-.32043-.13401-.10677-.19114-.25735-.19079-.38205,.00037-.13206,.07097-.22358,.1859-.15723l.03831,.02946c.19781,.15094,.32543,.24669,.40844,.29461,.12131,.07004,.14059,.02975,.14086-.06564l.00641-2.25965-1.18114-.68193c-.19791-.11426-.29339-.27961-.29277-.4997l.00393-1.38658c.00064-.22745,.09673-.27485,.29464-.16059l1.34075,.77408Zm-.16408,1.48519l.00098-.34482-1.02153-.58978-.00077,.27146,.05723,.10652,.9641,.55662m.00218-.77033l.00075-.2641-.05723-.10652-.90666-.52346-.05765,.0402-.00075,.2641,1.02153,.58978"/></g></g><g><path class="cls-42" d="M50.26268,55.45298l-.00131,1.58685c-.00111,.39173-.25865,.78284-.77287,1.08167-1.03491,.60143-2.71847,.60185-3.76087,.00002-.52419-.30264-.78599-.70004-.78487-1.09682l.0013-1.58685c-.00112,.39678,.26068,.79418,.78487,1.09682,1.0424,.60183,2.72596,.60141,3.76087-.00002,.51422-.29883,.77176-.68994,.77287-1.08167Z"/><ellipse class="cls-2" cx="47.60324" cy="55.44545" rx="1.54038" ry="2.65936" transform="translate(-7.97694 102.89132) rotate(-89.83757)"/><path class="cls-24" d="M48.70396,53.02023l-.00054,2.24703c-.00046,.16218-.10708,.3241-.31998,.44782-.42846,.24899-1.12546,.24917-1.55703,0-.21702-.1253-.32541-.28982-.32494-.45409l.00054-2.24703c-.00047,.16427,.10792,.3288,.32494,.45409,.43156,.24916,1.12857,.24899,1.55703,0,.21289-.12372,.31952-.28564,.31998-.44782Z"/><ellipse class="cls-5" cx="47.60293" cy="53.01711" rx=".63773" ry="1.10099" transform="translate(-5.54891 100.46956) rotate(-89.83757)"/></g><g><path class="cls-3" d="M44.55945,56.31097l-1.44923,3.44704c-.07221,.17049-.25605,.29375-.53483,.3298-.56108,.07256-1.29474-.23553-1.63875-.68864-.17299-.22786-.2143-.44895-.14116-.62164l1.44922-3.44704c-.07314,.17269-.03183,.39378,.14116,.62164,.34401,.45311,1.07767,.7612,1.63875,.68864,.27878-.03605,.46262-.15931,.53483-.3298Z"/><ellipse class="cls-1" cx="43.40202" cy="55.82071" rx=".72805" ry="1.25694" transform="translate(-24.92582 74.01395) rotate(-67.0439)"/><line class="cls-18" x1="43.43026" y1="55.75882" x2="49.02952" y2="42.4346"/></g></g></g></svg>