<?xml version="1.0" encoding="UTF-8"?><svg id="_レイヤー_2" xmlns="http://www.w3.org/2000/svg" xmlns:xlink="http://www.w3.org/1999/xlink" viewBox="0 0 53.91888 107.82342"><defs><style>.cls-1{stroke:#f3f6f7;stroke-miterlimit:10;}.cls-1,.cls-2,.cls-3,.cls-4,.cls-5,.cls-6{fill:none;stroke-linecap:round;}.cls-1,.cls-4{stroke-width:.06957px;}.cls-2{stroke-width:.14619px;}.cls-2,.cls-3,.cls-4,.cls-5,.cls-6{stroke-linejoin:round;}.cls-2,.cls-4,.cls-6{stroke:#555454;}.cls-7,.cls-8,.cls-9{fill:#fff;}.cls-3{stroke:#b7babc;stroke-width:.16646px;}.cls-10{fill:#e24963;}.cls-11{fill:#fbfbfd;}.cls-12{fill:#e1667c;}.cls-13{fill:#9c9ea0;}.cls-14{isolation:isolate;}.cls-15{fill:#3e3e40;}.cls-16{fill:#c24669;}.cls-17{fill:#f4f7f9;}.cls-18{fill:#f2f2f3;}.cls-19{fill:#f39f5d;}.cls-20{fill:#9ad5f4;}.cls-21{fill:url(#_名称未設定グラデーション_78);}.cls-22{fill:#b2b5b8;}.cls-23{fill:#e7e6f0;}.cls-24{fill:#555454;}.cls-5{stroke:#989999;stroke-width:.9542px;}.cls-25{fill:#d3daeb;}.cls-26{fill:#5daddd;}.cls-27{fill:#c5c8cc;}.cls-28{fill:#b8c0c5;}.cls-8{opacity:.59;}.cls-6{stroke-width:.13915px;}.cls-29{fill:#f1f1f1;}.cls-30{fill:#fed737;}.cls-31{fill:#b9bcbe;}.cls-9{opacity:.69;}.cls-32{fill:#e78895;}.cls-33{fill:#464748;}.cls-34{fill:#a3aaae;}</style><linearGradient id="_名称未設定グラデーション_78" x1="27.07852" y1="60.38288" x2="27.07852" y2="131.71299" gradientUnits="userSpaceOnUse"><stop offset="0" stop-color="#949494"/><stop offset="1" stop-color="#000"/></linearGradient></defs><g id="_レイヤー_1-2"><g><g><g><path class="cls-21" d="M28.54946,106.70805c.00075-.02183,.00087-.04333,0-.06522v-41.59632h-2.94056v41.56712c-.0025,.03933-.00266,.07808,0,.11741v.00929h.00119c.0212,.27154,.15993,.53891,.42737,.74646,.57833,.44883,1.51245,.44883,2.08705,0,.2657-.20755,.4022-.47492,.4211-.74646h.00385v-.03229Z"/><path class="cls-19" d="M51.9711,49.98051l-.01197,4.22008c-.01018,3.59224-2.37186,7.17874-7.08735,9.91909-9.49029,5.51516-24.92869,5.51904-34.48767,.00017-4.8069-2.77526-7.20765-6.41941-7.19734-10.05798l.01195-4.22007c-.0103,3.63857,2.39045,7.28271,7.19735,10.05798,9.55898,5.51888,24.99737,5.51499,34.48767-.00017,4.71549-2.74034,7.07718-6.32685,7.08736-9.91909Z"/><ellipse class="cls-12" cx="27.58369" cy="49.91141" rx="14.12544" ry="24.38668" transform="translate(-22.40571 77.35349) rotate(-89.83757)"/></g><g><path class="cls-21" d="M28.54946,106.70805c.00075-.02183,.00087-.04333,0-.06522v-41.59632h-2.94056v41.56712c-.0025,.03933-.00266,.07808,0,.11741v.00929h.00119c.0212,.27154,.15993,.53891,.42737,.74646,.57833,.44883,1.51245,.44883,2.08705,0,.2657-.20755,.4022-.47492,.4211-.74646h.00385v-.03229Z"/><path class="cls-10" d="M51.9711,49.98051l-.01197,4.22008c-.01018,3.59224-2.37186,7.17874-7.08735,9.91909-9.49029,5.51516-24.92869,5.51904-34.48767,.00017-4.8069-2.77526-7.20765-6.41941-7.19734-10.05798l.01195-4.22007c-.0103,3.63857,2.39045,7.28271,7.19735,10.05798,9.55898,5.51888,24.99737,5.51499,34.48767-.00017,4.71549-2.74034,7.07718-6.32685,7.08736-9.91909Z"/><ellipse class="cls-12" cx="27.58369" cy="49.91141" rx="14.12544" ry="24.38668" transform="translate(-22.40571 77.35349) rotate(-89.83757)"/></g><g><g><g class="cls-14"><polygon class="cls-25" points="23.08301 38.2913 23.16722 58.72889 45.29747 45.95198 45.21326 25.5144 23.08301 38.2913"/><polygon class="cls-23" points="23.08301 38.2913 3.52589 26.92594 3.61009 47.36353 23.16722 58.72889 23.08301 38.2913"/><polygon class="cls-17" points="45.21326 25.5144 25.65614 14.14904 3.52589 26.92594 23.08301 38.2913 45.21326 25.5144"/></g><g class="cls-14"><polygon class="cls-16" points="24.03972 37.46432 24.03679 38.49797 2.95715 26.32212 2.96008 25.28846 24.03972 37.46432"/><polygon class="cls-22" points="24.03972 37.46432 44.85603 25.3672 44.8531 26.40085 24.03679 38.49797 24.03972 37.46432"/><polygon class="cls-17" points="2.96008 25.28846 23.93127 13.22322 44.85603 25.3672 24.03972 37.46432 2.96008 25.28846"/></g><g class="cls-14"><polygon class="cls-12" points="38.28316 25.03471 24.28896 37.51704 24.2932 39.01163 38.29986 30.92487 38.28316 25.03471"/><polygon class="cls-32" points="38.28316 25.03471 13.9942 11.24414 0 23.72647 24.28896 37.51704 38.28316 25.03471"/><polygon class="cls-12" points="24.28896 37.51704 0 23.72647 .00424 25.22106 24.2932 39.01163 24.28896 37.51704"/></g><polygon class="cls-10" points="48.13933 24.44721 38.10138 25.06629 14.04907 11.27268 24.66188 11.00736 48.13933 24.44721"/></g><polygon class="cls-12" points="38.1456 31.036 48.05089 25.24317 48.05089 24.44721 38.18982 25.02207 38.1456 31.036"/><polygon class="cls-26" points="6.95962 33.46292 6.95962 42.0115 12.52319 45.3188 12.52319 36.59925 6.95962 33.46292"/><polygon class="cls-26" points="14.52464 37.81131 14.52464 46.3599 20.08821 49.6672 20.08821 40.94765 14.52464 37.81131"/></g><g class="cls-14"><polygon class="cls-11" points="32.17369 14.97266 32.13403 28.96362 9.61386 15.9616 9.65353 1.97064 32.17369 14.97266"/><polygon class="cls-27" points="32.17369 14.97266 35.5647 13.00202 35.52504 26.99298 32.13403 28.96362 32.17369 14.97266"/><polygon class="cls-27" points="9.65353 1.97064 13.04454 0 35.5647 13.00202 32.17369 14.97266 9.65353 1.97064"/></g><g><path class="cls-10" d="M13.71901,12.78363c.2426,.14007,.33805,.31274,.35034,.48886,.12419,1.30624,.64402,2.92909,1.56723,4.36597l.06969,.23129c-.00044,.15407-.1094,.23813-.23709,.16441l-.14668-.15082c-.73214-1.15755-1.23359-2.4832-1.51131-3.77521-.2586,.98971-.72134,1.79542-1.62369,2.00931l-.10225-.02229c-.11491-.06635-.23582-.28313-.23541-.42985,.00021-.07336,.03237-.12829,.10915-.15009,.85117-.21403,1.32023-1.0014,1.59261-2.33588l-1.04069-.60084c-.14046-.0811-.20397-.24269-.20362-.36741,.00033-.11738,.06455-.20523,.20501-.12413l1.20669,.69668Z"/><path class="cls-10" d="M17.17644,15.85264c-.12133-.07005-.22941-.2794-.22906-.40412l.07065-.1062c.24956-.05432,.52496-.20396,.67239-.31725l.14704,.01141c.11491,.06634,.22317,.23173,.22284,.34911-.0004,.13939-.45516,.39859-.78161,.48934l-.10224-.02229Z"/><g class="cls-14"><path class="cls-10" d="M16.09636,15.61117c-.0829-.0846-.12097-.19477-.12074-.27547,.00037-.13206,.09019-.21982,.21787-.14611l.0957,.08467c.5354,.62508,.5736,.69122,.5732,.83062-.00035,.12472-.07736,.20518-.19863,.13517l-.09569-.08464c-.18482-.22428-.31871-.37507-.47171-.54424Z"/><path class="cls-10" d="M16.21452,14.53303c-.07645-.09556-.1018-.1837-.10159-.25706,.00037-.13206,.09007-.19784,.20503-.13147l.14034,.12511c.50337,.6507,.5479,.73519,.54756,.85257-.00035,.12472-.09013,.19781-.19863,.13517l-.11478-.11036c-.17839-.2426-.33773-.44484-.47793-.61396Z"/><path class="cls-10" d="M19.75339,18.20021c.07015,.06989,.0955,.15801,.09527,.23871-.00042,.14675-.09022,.2492-.21155,.17915l-.07654-.06623-.12749-.14709c.03814,.07346,.05075,.13953,.05054,.21289l-.00389,1.37192c-.00054,.19075-.08381,.2382-.24983,.14235l-1.83876-1.06161c-.17237-.09952-.24875-.23915-.24821-.42989l.00391-1.37925,.02595-.12464-.11507-.015c-.12768-.07371-.22941-.2794-.22902-.41881,.00021-.07334,.03232-.12096,.10265-.1171,.53713,.01617,.90858-.16617,1.15865-.41128,.05132-.0512,.1408-.03629,.2238,.01163,.09579,.0553,.1978,.15829,.25507,.27219,.29257,.56573,.73191,1.23825,1.18452,1.74206Zm-.55618-.05656l.06381,.04419c-.38867-.51099-.69408-1.04739-.88491-1.40742l-.03828-.0368-.03195-.00375c-.17309,.14991-.50609,.31038-.89639,.37164l1.78772,1.03214m-.13823,1.38254l.00272-.96108-.05093-.08817-1.39184-.80358-.05763,.0255-.00272,.96108,.0573,.09187,1.39184,.80358,.05126-.02919"/></g><path class="cls-10" d="M16.7452,16.8382c.10215,.05898,.20404,.20599,.20365,.34538-.00025,.08804-.2386,.69262-.52785,1.22373-.04496,.06957-.10893,.06938-.17916,.02883-.12133-.07005-.25499-.27949-.25452-.44823l.04515-.14293c.23754-.31848,.41766-.69214,.52712-.96697,.03862-.08058,.10897-.08405,.18561-.03981Z"/><path class="cls-10" d="M19.39215,17.04369c-.23545-.40046-.52831-.86348-.75119-1.19794l-.06351-.16159c.00033-.11738,.11559-.16842,.2305-.10207l.10845,.09936c.24207,.33817,.55409,.81225,.75137,1.14661l.06341,.19827c-.0004,.13939-.10294,.21246-.21146,.1498l-.12756-.13244Z"/><path class="cls-10" d="M22.026,17.38127c.10219,.059,.21057,.16565,.28698,.29061,.39465,.6467,.89159,1.31573,1.54828,2.02555,.08288,.09194,.11456,.19107,.11431,.2791-.0004,.1394-.08381,.2382-.20514,.16815-.12128-.07002-.61204-.66934-.65024-.72078l.01254,.08807-.0078,2.75117c-.00037,.13206-.10275,.13908-.21125,.07644-.10855-.06267-.21691-.19137-.21654-.32342l.0078-2.75117c.0004-.1394,.10913-.14275,.21768-.08008l.01914,.01105c-.32494-.42276-.6115-.8601-.86619-1.24964l-.0255-.02943-.03195-.00375c-.23701,.13505-.51227,.22597-.84489,.26175,.08933,.06626,.16571,.18386,.1654,.2939-.0037,1.30589-.00611,2.15692-.74882,2.47766l-.1279-.01505c-.12769-.07372-.25496-.29418-.25459-.42622l.06426-.10252c.65284-.19626,.62922-.89331,.63938-2.21017-.26222,.00292-.56268-.03092-.62013-.0641-.12132-.07005-.20389-.27204-.20349-.41143,.00025-.08804,.03241-.15765,.12193-.14271,.65837,.11556,1.17029-.0004,1.54187-.22677,.07048-.04749,.17273-.0252,.27487,.03377Z"/><path class="cls-10" d="M25.74917,21.47081c-.00384,.00182-.07686,.03646-.14709-.00409-.08937-.0516-.15298-.17651-.15267-.28655l.06432-.12453c.24326-.0947,.36534-.28877,.42967-.42799,.02577-.06596,.10251-.05839,.1791-.01417l.02556,.01475-.02533-.09546,.00031-.11005-.45329-.26171c-.11496-.06637-.16573-.19119-.16544-.29393,.00025-.08804,.05156-.15394,.16652-.08757l.45329,.26171,.0004-.13939c.00029-.10271,.09622-.09874,.19199-.04345,.10214,.05897,.19136,.1619,.19107,.26461l-.0004,.13939,.59381,.34284,.0004-.13939c.00029-.10271,.09621-.09875,.19194-.04348,.10219,.059,.19141,.16193,.19112,.26464l-.0004,.13939,.42779,.24698c.1085,.06264,.16573,.19121,.16548,.27925-.00029,.10273-.05806,.16489-.16656,.10224l-.42779-.24698-.00031,.11005c-.00027,.09537-.08978,.09513-.19197,.03613-.09573-.05527-.19136-.16192-.19109-.25729l.00031-.11005-.59381-.34284-.00031,.11005c-.00027,.09537-.10255,.08776-.19832,.03247l-.02556-.01475,.03171,.10649-.0194,.06229,.43416,.25066,.07067-.11352c.03217-.05491,.09608-.04741,.16631-.00686,.09577,.05529,.19137,.17662,.19106,.28667l-.01302,.07332,.65122,.37598c.10856,.06268,.153,.16917,.15277,.24987s-.04515,.14295-.15371,.08027l-.66399-.38335-.00044,.15407,.58739,.33913c.083,.04792,.12751,.13975,.12728,.22045-.00019,.06605-.04509,.11359-.12809,.06567l-.58739-.33913-.00046,.1614,.58739,.33913c.083,.04792,.12749,.14709,.12728,.22045-.00019,.06603-.04509,.11359-.12809,.06567l-.58739-.33913-.00046,.1614,.68954,.39811c.09577,.05529,.14664,.16549,.14641,.24619-.00027,.09537-.05159,.14658-.14736,.09128l-1.76218-1.0174c-.20427-.11794-.3061-.2943-.30543-.52905l.00148-.52091Zm.35136,.12938l-.00046,.1614,.66399,.38335,.00046-.1614-.66399-.38335m-.00127,.44752l-.00025,.08804,.06362,.11022,.60016,.3465,.00046-.1614-.66399-.38335m.00252-.88771l-.00044,.15407,.66399,.38335,.00044-.15407-.66399-.38335"/><path class="cls-10" d="M27.93324,24.79673c.10213,.0663,.14023,.1618,.13998,.24983-.00033,.11736-.07733,.21253-.20505,.13879l-.01277-.00737c-.37019-.25047-.68277-.51912-.96976-.80239-.30037-.06317-.66461-.16326-1.09889-.3699l-.01919-.01108c-.13404-.07739-.21667-.25737-.21636-.36739,.00025-.08806,.04513-.13561,.1601-.08395,.2746,.14384,.54282,.26931,.74731,.32858-.17835-.24994-.36939-.54395-.52192-.88186l-.22346-.12902c-.08937-.0516-.12742-.16908-.12717-.25711,.00027-.09539,.03887-.16864,.12823-.11704l1.9218,1.10955c.16597,.09582,.25501,.2795,.2546,.42625-.00077,.27143-.25033,.31841-.55742,.36156,.17868,.13991,.41485,.2983,.59997,.41255Zm-1.53045-1.53764c.15906,.28289,.33101,.53649,.50314,.7314,.32605,.03393,.55014-.05715,.55025-.09381l-.02547-.04412-1.02791-.59347"/><path class="cls-10" d="M25.236,22.01226c.166,.09584,.24877,.23181,.24823,.42256l-.00272,.96108c-.00054,.19077-.08383,.23819-.24983,.14235l-.66399-.38335c-.17242-.09955-.24875-.2318-.24819-.42988l.00272-.96108c.00054-.19075,.07737-.23457,.24979-.13502l.66399,.38335Zm-.13701,.96438l.0016-.56489-.05091-.0882-.29369-.16956-.05126,.02921-.0016,.56489,.05093,.08821,.29369,.16956,.05124-.02922"/><path class="cls-10" d="M25.26978,21.3704c.11496,.06637,.17213,.20226,.17184,.30497-.00031,.11005-.05807,.17958-.17302,.11321l-.73422-.4239c-.10854-.06267-.17208-.20223-.17176-.31227,.00029-.10271,.06441-.16857,.17295-.1059l.73422,.4239Z"/><path class="cls-10" d="M24.53995,19.39851c-.10854-.06267-.17208-.20223-.17179-.30494,.00031-.11003,.06443-.17591,.17297-.11324l.73422,.4239c.11496,.06637,.17213,.20228,.17182,.3123-.00029,.10271-.05804,.17225-.173,.10587l-.73422-.4239Z"/><path class="cls-10" d="M25.4192,20.56016l-1.02797-.5935c-.1085-.06264-.17208-.20223-.17176-.31227,.00029-.10271,.06445-.16855,.17295-.1059l1.02797,.5935c.11491,.06634,.17208,.20223,.17179,.30494-.00031,.11005-.05807,.17958-.17297,.11324Z"/><path class="cls-10" d="M25.27163,20.71746c.11496,.06637,.17213,.20226,.17184,.30499-.00031,.11003-.05807,.17956-.17302,.11319l-.72785-.42023c-.11491-.06634-.17208-.20223-.17176-.31225,.00029-.10273,.05804-.17227,.17295-.10592l.72785,.42023Z"/></g><g><path class="cls-10" d="M16.53249,9.03465c-.12769-.07372-.19759-.23163-.19722-.36371,.00033-.11736,.0709-.19422,.19859-.1205l1.10455,.63771c.1341,.07742,.19757,.23167,.19724,.34903-.00037,.13208-.06452,.2126-.19861,.13518l-1.10455-.63771Z"/><path class="cls-10" d="M20.44489,11.79317l-1.57703-.9105c-.0006,.21276-.00121,.42554-.00816,.62726l1.24501,.71881c.24897,.14374,.38256,.39724,.38179,.66868-.00624,2.20094-.04006,2.85747-.79987,2.4188-.17873-.10319-.40209-.26889-.6637-.48606-.11482-.09569-.16563-.22788-.16529-.34528,.00044-.15407,.09032-.27119,.23078-.19009l.05746,.03318c.17864,.15458,.31898,.27235,.43391,.3387,.38306,.22116,.39063-.18598,.39504-1.74131l.00035-.12472-.05725-.12123-1.06622-.61558c-.04114,.98299-.14579,1.79704-.54384,2.34618-.05141,.08053-.12809,.073-.19832,.03245-.12769-.07372-.26139-.29054-.26102-.42257l.00653-.04032c-.04504,.0842-.13455,.08396-.26865,.00654l-1.02151-.58977c-.19796-.11429-.29338-.27961-.29276-.49971l.00316-1.11514c.00064-.22743,.09669-.28218,.29465-.16789l1.02151,.58977c.19796,.11429,.28702,.27592,.28637,.50335l-.00327,1.15182c.48791-.65891,.50389-1.78135,.50761-3.09458l.00046-.1614-.31287-.18063-.07021-.04788c-.0004,.13941-.06458,.22726-.19867,.14984l-1.43657-.8294c-.12769-.07372-.19757-.23897-.19722-.36369,.00033-.1174,.0709-.19424,.19859-.12052l1.43657,.8294,.06384,.04421,.00017-.05867c.00042-.14675,.06464-.24929,.2051-.16819l.87472,.50502,.001-.35215c.00046-.1614,.12836-.16104,.2624-.08365,.12775,.07375,.26158,.22451,.26112,.38591l-.001,.35215,.97687,.564c.13404,.07739,.20388,.25733,.20346,.40408-.0004,.13937-.07102,.23822-.20506,.16083Zm-3.01647,1.53586l.00187-.66028-.05727-.0992-.58739-.33913-.05763,.03286-.00187,.66028,.05726,.09919,.58739,.33913,.05765-.03285"/><path class="cls-10" d="M16.52603,11.31629c-.12769-.07372-.19759-.23166-.19724-.35637s.07092-.20156,.19861-.12783l1.10455,.63771c.1341,.07742,.19757,.23164,.19722,.35636s-.0645,.20526-.19859,.12784l-1.10455-.63771Z"/><path class="cls-10" d="M16.53459,10.55699c-.12769-.07372-.19759-.23166-.19724-.35637s.07092-.20156,.19861-.12783l1.09814,.63401c.1341,.07742,.19757,.23164,.19722,.35636s-.0645,.20526-.19859,.12784l-1.09814-.63401Z"/><path class="cls-10" d="M23.21375,14.12662c-.00062,.22009-.09671,.27485-.28826,.16425l-1.18114-.68193-.00767,2.70715c-.00046,.1614-.10922,.17209-.22413,.10575-.10856-.06268-.22327-.20239-.22282-.36379l.01254-4.42387c.00064-.22745,.09672-.27486,.28823-.16429l1.3408,.77411c.19156,.1106,.28704,.2686,.28639,.49605l-.00393,1.38657Zm-.44632-.47079l.00077-.27145-1.02155-.58979-.00098,.34483,.96408,.55661,.05767-.04021m.00198-.69696l.00075-.26411-.05725-.10654-.90664-.52345-.05765,.0402-.00075,.26411,1.02155,.58979"/><path class="cls-10" d="M24.516,17.20793c-.00062,.22009-.11592,.2858-.30748,.1752l-1.70467-.98419c-.19796-.11429-.31249-.31269-.31187-.53278l.00354-1.2472c.00062-.22007,.1159-.28581,.31386-.17152l1.70467,.98419c.19156,.1106,.30611,.30902,.30548,.5291l-.00354,1.2472Zm-.44628-.48546l.00225-.79234-.05727-.0992-1.30884-.75566-.06405,.02916-.00225,.79234,.06368,.1029,1.30884,.75566,.05765-.03285"/><path class="cls-10" d="M25.19148,13.54892c.1915,.11057,.287,.26858,.28636,.49603l-.01125,3.969c-.00121,.42551-.07214,.63441-.57013,.34689-.12133-.07005-.27452-.17319-.45955-.31676-.13401-.10677-.19751-.261-.19715-.38572,.00037-.13206,.07735-.21989,.19227-.15354l.03829,.02945c.19782,.15095,.32545,.24671,.40208,.29095,.12769,.07372,.14698,.0334,.14725-.06198l.00641-2.25963-1.18756-.68564c-.1915-.11057-.28698-.27591-.28636-.49601l.00393-1.38657c.00064-.22745,.09672-.27486,.28823-.16429l1.3472,.77781Zm-.16411,1.48519l.00098-.34483-1.02791-.59347-.00077,.27145,.0636,.11023,.9641,.55662m.00218-.77035l.00075-.26411-.05725-.10654-.90664-.52345-.06402,.03652-.00075,.26411,1.02791,.59347"/></g><g><path class="cls-29" d="M25.7855,51.37s.58289,3.74713,1.58212,5.16271c.85409,1.20996,5.99399,4.43543,7.74875,4.35566,1.83193-.08327,14.40564-6.99464,15.40487-8.49349,1.15526-1.7329,3.04623-8.02921,2.91444-7.74407l-27.65017,6.71919Z"/><path class="cls-7" d="M51.82068,48.81882l-15.13531,8.69965c-1.30167,.74819-2.90225,.75095-4.20649,.00726l-5.2778-3.07475c-3.08097-2.08174-2.30253-5.22254,.52723-6.81803,0,0,15.21934-8.58105,15.22275-8.58297,2.18906-1.23425,4.24416,.04586,6.19446,1.08697l2.63825,1.40866c2.83026,1.58881,2.85089,5.65576,.03691,7.27321Z"/><path class="cls-18" d="M50.74877,45.95527c.02855,1.13063-.54395,2.27552-1.72705,2.91957l-12.43805,6.79391c-1.0687,.58682-2.89126,.13835-3.96474-.4437l-3.78772-1.88598c-.84925-.46277-1.26427-1.12118-1.32635-1.83205-.10972-1.22138,.80633-2.59543,2.27578-3.38266l12.085-6.72233c1.05915-.56775,2.92867-.7539,3.98782-.19092,2.41749,1.36515,4.81282,1.48491,4.89531,4.74416Z"/><path class="cls-20" d="M50.74876,45.95499c.02865,1.13073-.54384,2.27575-1.72704,2.91985l-12.43805,6.79391c-1.0687,.58682-2.89126,.13835-3.96474-.4437l-3.78772-1.88598c-.84925-.46277-1.1517-1.12118-1.21379-1.83205,2.14224-2.03245,12.49043-7.96436,15.98958-9.13014,1.7037-.5676,6.1648,2.35719,7.14175,3.5781Z"/><polyline class="cls-5" points="50.14653 50.81276 50.14653 54.43498 47.44027 54.14354 41.86121 57.39105 38.36389 61.47126 38.36389 57.9323"/><path class="cls-8" d="M37.12107,42.08147c.55591,.28633,1.03655,.79016,1.13256,1.40806s-.30015,1.31932-.91742,1.41934c.60414,.17529,1.03699,.81429,.97566,1.44036s-.60996,1.16892-1.23663,1.22363c.3132,.43216,.00249,1.05066-.40571,1.39451-.34818,.29329-.79904,.50573-1.24968,.44109s-.86282-.48171-.80298-.93301c-.06201,.48318-.58036,.81719-1.06685,.79208s-.92012-.33331-1.22804-.71079c-.32497-.39838-.53743-.98073-.26909-1.41926-.3838,.15101-.84142,.01924-1.14359-.26147s-.46398-.68684-.52315-1.09501c-.14635-1.00942,.4572-2.17735,1.46438-2.3383-.1517-.8168,.31519-1.70768,1.07314-2.04778,.73211-.3285,1.74166-.13006,2.10492,.63245,.46533-.59928,1.52752-.23689,2.09248,.0541Z"/><path class="cls-9" d="M44.51416,44.68902c.39568,.20379,.73777,.5624,.80611,1.0022s-.21364,.93904-.65298,1.01023c.43,.12476,.73809,.57958,.69443,1.02518s-.43414,.83199-.88018,.87093c.22292,.30759,.00177,.74781-.28876,.99255-.24782,.20875-.56872,.35996-.88947,.31395s-.61412-.34286-.57153-.66408c-.04413,.3439-.41307,.58164-.75934,.56377s-.6549-.23724-.87406-.50591c-.2313-.28355-.38252-.69804-.19153-1.01017-.27317,.10749-.59889,.0137-.81396-.1861s-.33024-.48887-.37236-.77938c-.10416-.71846,.32541-1.54974,1.04229-1.6643-.10798-.58137,.22434-1.21545,.76382-1.45752,.52109-.23382,1.23964-.09257,1.4982,.45015,.3312-.42655,1.08723-.16861,1.48933,.0385Z"/></g></g><g><g><path class="cls-13" d="M22.75688,58.89881l-4.90348,2.84959c.14426-.08384,.1815-.3071,.1824-.31297l4.90348-2.84959c-.00089,.00587-.03813,.22914-.1824,.31297Z"/><path class="cls-7" d="M22.95945,58.02242c-.00278,.09114-.00626,.18159-.00974,.27134-.00139,.02435-.00209,.0494-.00279,.07375-.00278,.07235-.00556,.14541-.00765,.21846l-4.90351,2.84971c.00208-.07375,.00487-.1468,.00765-.21985,.0007-.02435,.00208-.04801,.00278-.07235,.01392-.35274,.02783-.7173-.00765-1.10343l3.99489-2.32165,.90862-.52806c.02644,.28873,.02574,.56424,.01739,.83209Z"/><path class="cls-7" d="M22.94205,57.19033l-.90862,.52806-3.99489,2.32165c-.02713-.28873-.06679-.72634-.38126-1.20292-.03201-.04801-.10993-.17533-.21846-.35065-.58302-.9448-2.13103-3.45222-2.81284-4.04638-.37152-.32212-1.94179-1.27806-3.6665-2.27365-2.35227-1.35807-4.99048-2.78988-5.25347-2.7864-.04244,.0007-.0814,.01113-.11827,.032,.23121-.35613,4.16579-2.89572,5.4177-2.50226,.40801,.12823,3.66126,1.71628,4.85755,2.40695,1.72472,.99559,3.29499,1.95153,3.6665,2.27434,.68182,.59346,2.22982,3.10157,2.81284,4.04568,.10853,.17533,.18646,.30264,.21846,.35065,.20524,.31169,.2936,.60598,.33674,.85366,.02365,.13149,.03479,.24907,.04452,.34926Z"/><path class="cls-7" d="M18.03841,60.04019c.03584,.38623,.02145,.75064,.00755,1.10304-.00384,.09697-.00767,.19446-.01017,.29219-.00136,.00894-.0869,.52141-.50579,.27957-.39889-.2303-11.36088-6.55511-11.547-6.66207-.01155-.00411-.05734-.02185-.12263-.05955-.11238-.06488-.33563-.162-.4362-.41135-.71405-1.77039-.35555-3.7488-.28664-4.04235,.18913-.7993,.31606-1.1565,.56835-1.15962,.26341-.00368,2.90132,1.42806,5.25374,2.78622,1.72438,.99556,3.2951,1.95143,3.66606,2.27416,.68217,.59375,2.23008,3.10147,2.81293,4.04586,.10852,.17564,.1869,.3027,.21836,.35051,.31454,.47711,.35469,.91441,.38145,1.20338Z"/><path class="cls-3" d="M6.02157,49.49016c.81632,.3599,2.97644,1.5436,4.93806,2.67613,1.72438,.99556,3.2951,1.95143,3.66606,2.27416,.68217,.59375,2.23008,3.10147,2.81293,4.04586,.10852,.17564,.1869,.3027,.21836,.35051,.31454,.47711,.35469,.91441,.38145,1.20338,.02174,.23426,.025,.46048,.0211,.68087"/><path class="cls-26" d="M15.78041,54.38135l3.69486-1.85586c.1753-.0998,.39816-.04258,.50369,.12933l1.57961,2.21416c.10966,.17863,.05109,.41249-.12982,.51836l-3.69856,2.16434c-.17436,.10203-.39823,.04713-.5056-.12399l-1.5759-2.52264c-.1131-.18025-.05319-.41841,.13173-.5237Z"/><path class="cls-26" d="M12.55069,54.17352l.01311,1.3685c0,.14574,.07617,.28088,.20085,.35634l3.24946,1.886c.24141,.14612,.23596-.1282,.14204-.3943-.21461-.60807-1.27201-2.15017-1.49225-2.53038-.03677-.06348-.08947-.1158-.15311-.15228l-1.68114-.92999c-.27768-.15916-.27896,.07605-.27896,.39611Z"/><path class="cls-15" d="M8.82616,56.68974s-.31094-1.20447-.84842-1.76865c-.90131-.9461-1.60927-.31818-1.60927-.31818l1.86684,2.37598,.59085-.28914Z"/><g><g class="cls-14"><path class="cls-15" d="M8.8194,56.6894c-.04174,.05079-.08975,.09184-.14402,.12315l-.78478,.4557c.1955-.1134,.31586-.35413,.31725-.69643,0-.0807-.00626-.1628-.01879-.24629,.20107,.11619,.41187,.23724,.63033,.36387Z"/><path class="cls-33" d="M6.03433,55.30151v.016c-.00139,.68877,.48353,1.52852,1.08325,1.87499,.59972,.34648,1.08812,.06888,1.09021-.62059v-.016c-.00557-.68738-.4884-1.516-1.08325-1.85969-.59485-.34369-1.08047-.07305-1.09021,.60529Z"/></g><g><g><path class="cls-34" d="M7.8466,56.46112c-.00142,.50174-.35661,.70364-.79281,.45179-.43665-.2521-.78908-.86254-.78766-1.36428s.35616-.7039,.79281-.4518c.43621,.25184,.78908,.86254,.78766,1.36428Zm-.79241,.31194c.36913,.21312,.6695,.04195,.6707-.38221s-.29722-.94104-.66635-1.15416-.6695-.04195-.6707,.38221,.29721,.94103,.66634,1.15415"/><g class="cls-14"><path class="cls-33" d="M6.58506,55.42294c-.04469,.06776-.06986,.16059-.07019,.27441s.02425,.23486,.0684,.35392l.16454-.09377c-.01117-.04406-.0172-.08792-.01708-.1299,.00013-.04511,.00734-.08423,.02039-.11671l-.16607-.28796Z"/><path class="cls-28" d="M6.94125,55.60319c.03456,.0053,.07188,.01884,.1108,.04131,.03653,.02109,.07159,.0484,.10424,.08023,.08819,.08598,.1587,.20504,.19261,.32421,.01429,.05022,.02207,.10044,.02194,.14823-.00013,.04461-.00715,.08336-.0199,.1156-.03243,.082-.10191,.12185-.18938,.1087-.03476-.00523-.07235-.0188-.11159-.04145-.04161-.02402-.08133-.05608-.11777-.09371-.08639-.08923-.15421-.20979-.18438-.3288-.01117-.04406-.0172-.08793-.01708-.1299,.00013-.04511,.00734-.08423,.02039-.1167,.0328-.08158,.10256-.12113,.19012-.10771Z"/></g><path class="cls-33" d="M7.50988,55.95689l-.16099,.09205c.01429,.05022,.02207,.10044,.02194,.14823-.00013,.04461-.00715,.08336-.0199,.1156l.15762,.27271c.04424-.06802,.06987-.16008,.07019-.2739s-.02469-.23563-.06885-.35468Z"/><g class="cls-14"><path class="cls-28" d="M7.72489,56.39085c-.0012,.42416-.30157,.59533-.6707,.38221s-.66755-.72999-.66634-1.15415,.30157-.59533,.6707-.38221,.66755,.73,.66635,1.15416Zm-1.14161-.33957l.16454-.09377c.03017,.11902,.09799,.23957,.18438,.3288l-.16031,.09165c.0807,.09721,.1739,.18016,.27296,.23735s.19242,.08195,.27385,.07835l-.15715-.27219c.08747,.01315,.15695-.02671,.18938-.1087l.15762,.27271c.04424-.06802,.06987-.16008,.07019-.2739s-.02469-.23563-.06885-.35468l-.16099,.09205c-.0339-.11917-.10442-.23823-.19261-.32421l.16543-.09428c-.08115-.09746-.17435-.1799-.2734-.23709s-.19242-.08246-.27341-.07861l.16635,.28844c-.08756-.01342-.15733,.02613-.19012,.10771l-.16607-.28796c-.04469,.06776-.06986,.16058-.07019,.27441s.02425,.23486,.06841,.35392"/><path class="cls-33" d="M6.9322,56.28631l-.16031,.09165c.0807,.09721,.1739,.18016,.27296,.23735s.19242,.08195,.27385,.07835l-.15715-.27219c-.03476-.00523-.07235-.0188-.11159-.04145-.04161-.02402-.08133-.05608-.11776-.09371Z"/></g><path class="cls-33" d="M7.04831,55.39336c-.09905-.05719-.19242-.08246-.27341-.07861l.16635,.28844c.03456,.0053,.07188,.01884,.1108,.04131,.03653,.02109,.07159,.0484,.10424,.08023l.16543-.09428c-.08114-.09746-.17435-.1799-.2734-.23709Z"/></g><path class="cls-1" d="M7.33979,56.72924s-.14867,.03568-.35086-.09515c-.20808-.13464-.37464-.40438-.45195-.60062"/></g></g><path class="cls-15" d="M15.6127,60.51488s-.31094-1.20447-.84842-1.76865c-.90131-.9461-1.60927-.31818-1.60927-.31818l1.86684,2.37598,.59085-.28914Z"/><g><g class="cls-14"><path class="cls-15" d="M15.60594,60.51454c-.04174,.05079-.08975,.09184-.14402,.12315l-.78478,.4557c.1955-.1134,.31586-.35413,.31725-.69643,0-.0807-.00626-.1628-.01879-.24629,.20107,.11619,.41187,.23724,.63033,.36387Z"/><path class="cls-33" d="M12.82087,59.12665v.016c-.00139,.68877,.48353,1.52852,1.08325,1.87499,.59972,.34648,1.08812,.06888,1.09021-.62059v-.016c-.00557-.68738-.4884-1.516-1.08325-1.85969-.59485-.34369-1.08047-.07305-1.09021,.60529Z"/></g><g><g><path class="cls-34" d="M14.63314,60.28625c-.00142,.50174-.35661,.70364-.79281,.45179-.43665-.2521-.78908-.86254-.78766-1.36428s.35616-.7039,.79281-.4518c.43621,.25184,.78908,.86254,.78766,1.36428Zm-.79241,.31194c.36913,.21312,.6695,.04195,.6707-.38221s-.29722-.94104-.66635-1.15416-.6695-.04195-.6707,.38221,.29721,.94103,.66634,1.15415"/><g class="cls-14"><path class="cls-33" d="M13.3716,59.24808c-.04469,.06776-.06986,.16059-.07019,.27441s.02425,.23486,.0684,.35392l.16454-.09377c-.01117-.04406-.0172-.08792-.01708-.1299,.00013-.04511,.00734-.08423,.02039-.11671l-.16607-.28796Z"/><path class="cls-28" d="M13.72779,59.42833c.03456,.0053,.07188,.01884,.1108,.04131,.03653,.02109,.07159,.0484,.10424,.08023,.08819,.08598,.1587,.20504,.19261,.32421,.01429,.05022,.02207,.10044,.02194,.14823-.00013,.04461-.00715,.08336-.0199,.1156-.03243,.082-.10191,.12185-.18938,.1087-.03476-.00523-.07235-.0188-.11159-.04145-.04161-.02402-.08133-.05608-.11777-.09371-.08639-.08923-.15421-.20979-.18438-.3288-.01117-.04406-.0172-.08793-.01708-.1299,.00013-.04511,.00734-.08423,.02039-.1167,.0328-.08158,.10256-.12113,.19012-.10771Z"/></g><path class="cls-33" d="M14.29642,59.78203l-.16099,.09205c.01429,.05022,.02207,.10044,.02194,.14823-.00013,.04461-.00715,.08336-.0199,.1156l.15762,.27271c.04424-.06802,.06987-.16008,.07019-.2739s-.02469-.23563-.06885-.35468Z"/><g class="cls-14"><path class="cls-28" d="M14.51143,60.21598c-.0012,.42416-.30157,.59533-.6707,.38221s-.66755-.72999-.66634-1.15415,.30157-.59533,.6707-.38221,.66755,.73,.66635,1.15416Zm-1.14161-.33957l.16454-.09377c.03017,.11902,.09799,.23957,.18438,.3288l-.16031,.09165c.0807,.09721,.1739,.18016,.27296,.23735s.19242,.08195,.27385,.07835l-.15715-.27219c.08747,.01315,.15695-.02671,.18938-.1087l.15762,.27271c.04424-.06802,.06987-.16008,.07019-.2739s-.02469-.23563-.06885-.35468l-.16099,.09205c-.0339-.11917-.10442-.23823-.19261-.32421l.16543-.09428c-.08115-.09746-.17435-.1799-.2734-.23709s-.19242-.08246-.27341-.07861l.16635,.28844c-.08756-.01342-.15733,.02613-.19012,.10771l-.16607-.28796c-.04469,.06776-.06986,.16058-.07019,.27441s.02425,.23486,.06841,.35392"/><path class="cls-33" d="M13.71874,60.11145l-.16031,.09165c.0807,.09721,.1739,.18016,.27296,.23735s.19242,.08195,.27385,.07835l-.15715-.27219c-.03476-.00523-.07235-.0188-.11159-.04145-.04161-.02402-.08133-.05608-.11776-.09371Z"/></g><path class="cls-33" d="M13.83485,59.2185c-.09905-.05719-.19242-.08246-.27341-.07861l.16635,.28844c.03456,.0053,.07188,.01884,.1108,.04131,.03653,.02109,.07159,.0484,.10424,.08023l.16543-.09428c-.08114-.09746-.17435-.1799-.2734-.23709Z"/></g><path class="cls-1" d="M14.12633,60.55438s-.14867,.03568-.35086-.09515c-.20808-.13464-.37464-.40438-.45195-.60062"/></g></g><path class="cls-30" d="M22.49959,58.28706l-.42025,.24185-.04592-.81053-.02087-.36874,.88497-.50858c.02365,.13149,.03479,.24907,.04452,.34926,.00789,.08617,.01336,.17116,.01694,.25513,.01467,.34467-.16039,.66953-.4594,.84161Z"/><polyline class="cls-31" points="22.01269 57.34993 19.30055 58.91068 19.68807 59.94212 22.07934 58.52869"/><path class="cls-30" d="M19.30055,58.91068l-1.17704,.6403,.0047,.08602c.02721,.4975,.55466,.80473,1.00083,.58297l.55902-.27785-.38751-1.03144Z"/><path class="cls-3" d="M22.65716,56.59968l-.04224,.03922c-.13873,.12882-.29086,.24213-.45397,.33824-.83464,.4918-3.52868,2.06168-4.12632,2.1916"/><path class="cls-13" d="M22.94692,58.3675c-.00278,.07235-.00556,.14541-.00765,.21846l-4.90351,2.84971c.00208-.07375,.00487-.1468,.00765-.21985l4.90351-2.84832Z"/><polygon class="cls-7" points="21.32298 59.79788 21.32298 59.1845 20.24735 59.79788 20.26513 60.41125 21.32298 59.79788"/><path class="cls-13" d="M18.28972,61.06882s-.4154,.22219-.57963,.18355c-.2088-.04913-.40574-.14491-.40574-.14491l-.00966,.48303s.30914,.19321,.49269,.19321c.03483,0,.42506-.24151,.42506-.24151l.07728-.47337Z"/><g><path class="cls-4" d="M18.30015,57.40462s.87222-.90117,.91981-.90694"/><path class="cls-6" d="M18.29813,56.96932s1.03974-.63242,1.57569-.68602"/></g><g><path class="cls-4" d="M20.15251,56.26186s.67059-.69097,.71817-.69674"/><path class="cls-6" d="M19.94885,56.03676s1.03974-.63242,1.57569-.68602"/></g><path class="cls-13" d="M15.75891,58.46206v-.39803c0-.06121,.06697-.09885,.11926-.06703l.33181,.20197c.02339,.01424,.03767,.03964,.03767,.06703v.38851c0,.06137-.06696,.09918-.11924,.06703-.1055-.06488-.25361-.15411-.3261-.18931-.0268-.01301-.04341-.04038-.04341-.07017Z"/><path class="cls-24" d="M15.88019,57.84095v-1.05726c0-.073-.07987-.11789-.14223-.07993l-.39572,.24087c-.0279,.01698-.04492,.04728-.04492,.07993v1.04589c0,.07319,.07986,.11828,.1422,.07994,.12582-.07737,.30246-.1838,.3889-.22577,.03196-.01552,.05177-.04815,.05177-.08368Z"/><path class="cls-2" d="M15.62254,57.90104s-.04505,.3266-.01126,.33786,.34912,.12388,.34912,.12388"/></g><path class="cls-26" d="M12.04274,53.34818s.35769,.10731,.25038,.35769c-.06301,.14703-.39346,1.6096-.53653,1.6096s-6.22378-3.43381-6.22378-3.43381v-.21461s.03577-.96576,.25038-1.35922l.21461-.39346,6.04494,3.43381Z"/></g></g></g></svg>