<?xml version="1.0" encoding="UTF-8"?><svg id="_レイヤー_2" xmlns="http://www.w3.org/2000/svg" xmlns:xlink="http://www.w3.org/1999/xlink" viewBox="0 0 49.76383 104.66428"><defs><style>.cls-1{stroke-width:1.33013px;}.cls-1,.cls-2,.cls-3{fill:none;stroke-linecap:round;stroke-linejoin:round;}.cls-1,.cls-3{stroke:#5f402d;}.cls-4{fill:#4aa188;}.cls-5{fill:#8c5a2c;}.cls-6{fill:#b29b92;}.cls-7{fill:#fbfbfd;}.cls-8{isolation:isolate;}.cls-9{fill:#c24669;}.cls-10{fill:#f4f7f9;}.cls-11{clip-path:url(#clippath-1);}.cls-2{stroke:#482d1b;stroke-width:1.21773px;}.cls-12{fill:url(#_名称未設定グラデーション_78);}.cls-13{fill:#b2b5b8;}.cls-14{fill:#e7e6f0;}.cls-15{fill:#c6c7c5;}.cls-16{clip-path:url(#clippath);}.cls-3{stroke-width:.58578px;}.cls-17{fill:#d3daeb;}.cls-18{fill:#5daddd;}.cls-19{fill:#75b8a0;}.cls-20{fill:#c5c8cc;}.cls-21{fill:#349f89;}</style><linearGradient id="_名称未設定グラデーション_78" x1="23.89178" y1="57.22374" x2="23.89178" y2="128.55385" gradientUnits="userSpaceOnUse"><stop offset="0" stop-color="#949494"/><stop offset="1" stop-color="#000"/></linearGradient><clipPath id="clippath"><path class="cls-21" d="M48.78436,46.82137l-.01197,4.22008c-.01018,3.59224-2.37186,7.17874-7.08735,9.91909-9.49029,5.51516-24.92869,5.51904-34.48767,.00017C2.39047,58.18544-.01028,54.5413,.00003,50.90273l.01195-4.22007c-.0103,3.63857,2.39045,7.28271,7.19735,10.05798,9.55898,5.51888,24.99737,5.51499,34.48767-.00017,4.71549-2.74034,7.07718-6.32685,7.08736-9.91909Z"/></clipPath><clipPath id="clippath-1"><path class="cls-21" d="M48.78436,46.82137l-.01197,4.22008c-.01018,3.59224-2.37186,7.17874-7.08735,9.91909-9.49029,5.51516-24.92869,5.51904-34.48767,.00017C2.39047,58.18544-.01028,54.5413,.00003,50.90273l.01195-4.22007c-.0103,3.63857,2.39045,7.28271,7.19735,10.05798,9.55898,5.51888,24.99737,5.51499,34.48767-.00017,4.71549-2.74034,7.07718-6.32685,7.08736-9.91909Z"/></clipPath></defs><g id="_レイヤー_1-2"><g><g><path class="cls-12" d="M25.36272,103.54891c.00075-.02183,.00087-.04333,0-.06522V61.88738h-2.94056v41.56712c-.0025,.03933-.00266,.07808,0,.11741v.00929h.00119c.0212,.27154,.15993,.53891,.42737,.74646,.57833,.44883,1.51245,.44883,2.08705,0,.2657-.20755,.4022-.47492,.4211-.74646h.00385v-.03229Z"/><g><path class="cls-21" d="M48.78436,46.82137l-.01197,4.22008c-.01018,3.59224-2.37186,7.17874-7.08735,9.91909-9.49029,5.51516-24.92869,5.51904-34.48767,.00017C2.39047,58.18544-.01028,54.5413,.00003,50.90273l.01195-4.22007c-.0103,3.63857,2.39045,7.28271,7.19735,10.05798,9.55898,5.51888,24.99737,5.51499,34.48767-.00017,4.71549-2.74034,7.07718-6.32685,7.08736-9.91909Z"/><g class="cls-16"><g class="cls-8"><path class="cls-21" d="M48.78436,46.82137l-.01196,4.22008c-.0002,.0714-.00133,.1428-.00339,.2142l.01196-4.22008c.00206-.07139,.00319-.14279,.00339-.2142"/><path class="cls-21" d="M48.78097,47.03557l-.01196,4.22008c-.01349,.46732-.06679,.93425-.1599,1.39896l.01196-4.22008c.09311-.46471,.14641-.93164,.1599-1.39896"/><path class="cls-21" d="M48.62107,48.43452l-.01196,4.22008c-.09225,.4604-.22357,.91861-.39399,1.37282l.01196-4.22008c.17041-.45422,.30174-.91243,.39399-1.37282"/><path class="cls-21" d="M48.22709,49.80735l-.01196,4.22008c-.17521,.467-.39173,.92978-.64957,1.38639l.01196-4.22008c.25784-.45661,.47436-.91939,.64957-1.38639"/><path class="cls-21" d="M47.57751,51.19374l-.01196,4.22008c-.27884,.4938-.60601,.98038-.98152,1.45726l.01196-4.22008c.3755-.47688,.70267-.96346,.98152-1.45726"/><path class="cls-21" d="M46.596,52.651l-.01196,4.22008c-.43834,.55669-.94255,1.10017-1.51263,1.6265l.01196-4.22008c.57008-.52633,1.07429-1.06981,1.51263-1.6265"/><path class="cls-21" d="M45.08337,54.27751l-.01196,4.22008c-.87454,.80742-1.9041,1.57449-3.08872,2.28699l.01196-4.22008c1.18462-.7125,2.21419-1.47957,3.08872-2.28699"/><path class="cls-21" d="M41.99464,56.5645l-.01196,4.22008c-.09815,.05903-.19736,.11769-.29764,.17597-1.62671,.94534-3.42819,1.72876-5.34485,2.35019l.01196-4.22008c1.91667-.62143,3.71814-1.40485,5.34485-2.35019,.10028-.05828,.19949-.11693,.29764-.17597"/><path class="cls-21" d="M36.35215,59.09066l-.01196,4.22008c-1.47953,.4797-3.02771,.86289-4.61713,1.14952l.01196-4.22008c1.58942-.28663,3.13759-.66982,4.61713-1.14952"/><path class="cls-21" d="M31.73502,60.24018l-.01196,4.22008c-1.02233,.18437-2.06173,.32879-3.1109,.43326l.01196-4.22008c1.04917-.10447,2.08857-.24889,3.1109-.43326"/><path class="cls-21" d="M28.62412,60.67344l-.01196,4.22008c-.89575,.08919-1.79862,.14927-2.70408,.18021l.01196-4.22008c.90546-.03095,1.80833-.09102,2.70408-.18021"/><path class="cls-21" d="M25.92004,60.85365l-.01196,4.22008c-.83143,.02842-1.66504,.03228-2.49731,.01157l.01196-4.22008c.83228,.0207,1.66589,.01684,2.49731-.01157"/><path class="cls-21" d="M23.42273,60.86522l-.01196,4.22008c-.80279-.01997-1.60434-.06279-2.4015-.12847l.01196-4.22008c.79716,.06568,1.59871,.1085,2.4015,.12847"/><path class="cls-21" d="M21.02123,60.73676l-.01196,4.22008c-.79554-.06554-1.5867-.15385-2.37036-.26492l.01196-4.22008c.78366,.11107,1.57482,.19937,2.37036,.26492"/><path class="cls-21" d="M18.65087,60.47184l-.01196,4.22008c-.81503-.11552-1.62194-.25566-2.4172-.42043l.01196-4.22008c.79526,.16477,1.60217,.30491,2.4172,.42043"/><path class="cls-21" d="M16.23367,60.05141l-.01196,4.22008c-.86302-.17881-1.71232-.38662-2.5434-.62343l.01196-4.22008c.83108,.23682,1.68038,.44463,2.5434,.62343"/><path class="cls-21" d="M13.69027,59.42798l-.01196,4.22008c-1.01723-.28986-2.00716-.62318-2.96154-.99996l.01196-4.22008c.95438,.37678,1.94431,.7101,2.96154,.99996"/><path class="cls-21" d="M10.72873,58.42802l-.01196,4.22008c-1.2391-.48919-2.41826-1.05165-3.5194-1.68739C2.39047,58.18544-.01028,54.5413,.00003,50.90273l.01196-4.22008c-.01032,3.63857,2.39044,7.28272,7.19734,10.05798,1.10114,.63574,2.2803,1.1982,3.5194,1.68739"/></g></g></g><ellipse class="cls-4" cx="24.39695" cy="46.75227" rx="14.12544" ry="24.38668" transform="translate(-22.42429 71.01658) rotate(-89.83757)"/></g><g><g><g><g class="cls-8"><polygon class="cls-17" points="23.22168 38.2913 23.30588 58.72889 45.43614 45.95198 45.35193 25.5144 23.22168 38.2913"/><polygon class="cls-14" points="23.22168 38.2913 3.66455 26.92594 3.74876 47.36353 23.30588 58.72889 23.22168 38.2913"/><polygon class="cls-10" points="45.35193 25.5144 25.79481 14.14904 3.66455 26.92594 23.22168 38.2913 45.35193 25.5144"/></g><g class="cls-8"><polygon class="cls-9" points="24.17839 37.46432 24.17545 38.49797 3.09582 26.32212 3.09875 25.28846 24.17839 37.46432"/><polygon class="cls-13" points="24.17839 37.46432 44.9947 25.3672 44.99177 26.40085 24.17545 38.49797 24.17839 37.46432"/><polygon class="cls-10" points="3.09875 25.28846 24.06994 13.22322 44.9947 25.3672 24.17839 37.46432 3.09875 25.28846"/></g><g class="cls-8"><polygon class="cls-4" points="38.42183 25.03471 24.42763 37.51704 24.43187 39.01163 38.43853 30.92487 38.42183 25.03471"/><polygon class="cls-19" points="38.42183 25.03471 14.13287 11.24414 .13867 23.72647 24.42763 37.51704 38.42183 25.03471"/><polygon class="cls-4" points="24.42763 37.51704 .13867 23.72647 .14291 25.22106 24.43187 39.01163 24.42763 37.51704"/></g><polygon class="cls-21" points="48.278 24.44721 38.24005 25.06629 14.18773 11.27268 24.80055 11.00736 48.278 24.44721"/></g><polygon class="cls-4" points="38.28427 31.036 48.18956 25.24317 48.18956 24.44721 38.32849 25.02207 38.28427 31.036"/><polygon class="cls-18" points="7.09829 33.46292 7.09829 42.0115 12.66186 45.3188 12.66186 36.59925 7.09829 33.46292"/><polygon class="cls-18" points="14.66331 37.81131 14.66331 46.3599 20.22688 49.6672 20.22688 40.94765 14.66331 37.81131"/></g><path class="cls-6" d="M31.07389,54.1225s8.40186-4.80106,8.11945-4.58925,0-13.69887,0-13.69887l-8.26065,4.37744s-.14121,13.91068,.14121,13.91068Z"/></g><g><path class="cls-12" d="M25.36272,103.54891c.00075-.02183,.00087-.04333,0-.06522V61.88738h-2.94056v41.56712c-.0025,.03933-.00266,.07808,0,.11741v.00929h.00119c.0212,.27154,.15993,.53891,.42737,.74646,.57833,.44883,1.51245,.44883,2.08705,0,.2657-.20755,.4022-.47492,.4211-.74646h.00385v-.03229Z"/><g><path class="cls-21" d="M48.78436,46.82137l-.01197,4.22008c-.01018,3.59224-2.37186,7.17874-7.08735,9.91909-9.49029,5.51516-24.92869,5.51904-34.48767,.00017C2.39047,58.18544-.01028,54.5413,.00003,50.90273l.01195-4.22007c-.0103,3.63857,2.39045,7.28271,7.19735,10.05798,9.55898,5.51888,24.99737,5.51499,34.48767-.00017,4.71549-2.74034,7.07718-6.32685,7.08736-9.91909Z"/><g class="cls-11"><g class="cls-8"><path class="cls-21" d="M48.78436,46.82137l-.01196,4.22008c-.0002,.0714-.00133,.1428-.00339,.2142l.01196-4.22008c.00206-.07139,.00319-.14279,.00339-.2142"/><path class="cls-21" d="M48.78097,47.03557l-.01196,4.22008c-.01349,.46732-.06679,.93425-.1599,1.39896l.01196-4.22008c.09311-.46471,.14641-.93164,.1599-1.39896"/><path class="cls-21" d="M48.62107,48.43452l-.01196,4.22008c-.09225,.4604-.22357,.91861-.39399,1.37282l.01196-4.22008c.17041-.45422,.30174-.91243,.39399-1.37282"/><path class="cls-21" d="M48.22709,49.80735l-.01196,4.22008c-.17521,.467-.39173,.92978-.64957,1.38639l.01196-4.22008c.25784-.45661,.47436-.91939,.64957-1.38639"/><path class="cls-21" d="M47.57751,51.19374l-.01196,4.22008c-.27884,.4938-.60601,.98038-.98152,1.45726l.01196-4.22008c.3755-.47688,.70267-.96346,.98152-1.45726"/><path class="cls-21" d="M46.596,52.651l-.01196,4.22008c-.43834,.55669-.94255,1.10017-1.51263,1.6265l.01196-4.22008c.57008-.52633,1.07429-1.06981,1.51263-1.6265"/><path class="cls-21" d="M45.08337,54.27751l-.01196,4.22008c-.87454,.80742-1.9041,1.57449-3.08872,2.28699l.01196-4.22008c1.18462-.7125,2.21419-1.47957,3.08872-2.28699"/><path class="cls-21" d="M41.99464,56.5645l-.01196,4.22008c-.09815,.05903-.19736,.11769-.29764,.17597-1.62671,.94534-3.42819,1.72876-5.34485,2.35019l.01196-4.22008c1.91667-.62143,3.71814-1.40485,5.34485-2.35019,.10028-.05828,.19949-.11693,.29764-.17597"/><path class="cls-21" d="M36.35215,59.09066l-.01196,4.22008c-1.47953,.4797-3.02771,.86289-4.61713,1.14952l.01196-4.22008c1.58942-.28663,3.13759-.66982,4.61713-1.14952"/><path class="cls-21" d="M31.73502,60.24018l-.01196,4.22008c-1.02233,.18437-2.06173,.32879-3.1109,.43326l.01196-4.22008c1.04917-.10447,2.08857-.24889,3.1109-.43326"/><path class="cls-21" d="M28.62412,60.67344l-.01196,4.22008c-.89575,.08919-1.79862,.14927-2.70408,.18021l.01196-4.22008c.90546-.03095,1.80833-.09102,2.70408-.18021"/><path class="cls-21" d="M25.92004,60.85365l-.01196,4.22008c-.83143,.02842-1.66504,.03228-2.49731,.01157l.01196-4.22008c.83228,.0207,1.66589,.01684,2.49731-.01157"/><path class="cls-21" d="M23.42273,60.86522l-.01196,4.22008c-.80279-.01997-1.60434-.06279-2.4015-.12847l.01196-4.22008c.79716,.06568,1.59871,.1085,2.4015,.12847"/><path class="cls-21" d="M21.02123,60.73676l-.01196,4.22008c-.79554-.06554-1.5867-.15385-2.37036-.26492l.01196-4.22008c.78366,.11107,1.57482,.19937,2.37036,.26492"/><path class="cls-21" d="M18.65087,60.47184l-.01196,4.22008c-.81503-.11552-1.62194-.25566-2.4172-.42043l.01196-4.22008c.79526,.16477,1.60217,.30491,2.4172,.42043"/><path class="cls-21" d="M16.23367,60.05141l-.01196,4.22008c-.86302-.17881-1.71232-.38662-2.5434-.62343l.01196-4.22008c.83108,.23682,1.68038,.44463,2.5434,.62343"/><path class="cls-21" d="M13.69027,59.42798l-.01196,4.22008c-1.01723-.28986-2.00716-.62318-2.96154-.99996l.01196-4.22008c.95438,.37678,1.94431,.7101,2.96154,.99996"/><path class="cls-21" d="M10.72873,58.42802l-.01196,4.22008c-1.2391-.48919-2.41826-1.05165-3.5194-1.68739C2.39047,58.18544-.01028,54.5413,.00003,50.90273l.01196-4.22008c-.01032,3.63857,2.39044,7.28272,7.19734,10.05798,1.10114,.63574,2.2803,1.1982,3.5194,1.68739"/></g></g></g><ellipse class="cls-4" cx="24.39695" cy="46.75227" rx="14.12544" ry="24.38668" transform="translate(-22.42429 71.01658) rotate(-89.83757)"/></g><g><g><g><g class="cls-8"><polygon class="cls-17" points="23.22168 38.2913 23.30588 58.72889 45.43614 45.95198 45.35193 25.5144 23.22168 38.2913"/><polygon class="cls-14" points="23.22168 38.2913 3.66455 26.92594 3.74876 47.36353 23.30588 58.72889 23.22168 38.2913"/><polygon class="cls-10" points="45.35193 25.5144 25.79481 14.14904 3.66455 26.92594 23.22168 38.2913 45.35193 25.5144"/></g><g class="cls-8"><polygon class="cls-9" points="24.17839 37.46432 24.17545 38.49797 3.09582 26.32212 3.09875 25.28846 24.17839 37.46432"/><polygon class="cls-13" points="24.17839 37.46432 44.9947 25.3672 44.99177 26.40085 24.17545 38.49797 24.17839 37.46432"/><polygon class="cls-10" points="3.09875 25.28846 24.06994 13.22322 44.9947 25.3672 24.17839 37.46432 3.09875 25.28846"/></g><g class="cls-8"><polygon class="cls-4" points="38.42183 25.03471 24.42763 37.51704 24.43187 39.01163 38.43853 30.92487 38.42183 25.03471"/><polygon class="cls-19" points="38.42183 25.03471 14.13287 11.24414 .13867 23.72647 24.42763 37.51704 38.42183 25.03471"/><polygon class="cls-4" points="24.42763 37.51704 .13867 23.72647 .14291 25.22106 24.43187 39.01163 24.42763 37.51704"/></g><polygon class="cls-21" points="48.278 24.44721 38.24005 25.06629 14.18773 11.27268 24.80055 11.00736 48.278 24.44721"/></g><polygon class="cls-4" points="38.28427 31.036 48.18956 25.24317 48.18956 24.44721 38.32849 25.02207 38.28427 31.036"/><polygon class="cls-18" points="7.09829 33.46292 7.09829 42.0115 12.66186 45.3188 12.66186 36.59925 7.09829 33.46292"/><polygon class="cls-18" points="14.66331 37.81131 14.66331 46.3599 20.22688 49.6672 20.22688 40.94765 14.66331 37.81131"/></g><path class="cls-6" d="M31.07389,54.1225s8.40186-4.80106,8.11945-4.58925,0-13.69887,0-13.69887l-8.26065,4.37744s-.14121,13.91068,.14121,13.91068Z"/></g><g class="cls-8"><polygon class="cls-7" points="32.31236 14.97266 32.2727 28.96362 9.75253 15.9616 9.7922 1.97064 32.31236 14.97266"/><polygon class="cls-20" points="32.31236 14.97266 35.70337 13.00202 35.6637 26.99298 32.2727 28.96362 32.31236 14.97266"/><polygon class="cls-20" points="9.7922 1.97064 13.18321 0 35.70337 13.00202 32.31236 14.97266 9.7922 1.97064"/></g><g><path class="cls-5" d="M34.20069,59.60981l14.93058-8.18272c.34405-.18856,.55881-.54488,.56241-.93317l.06979-7.52225c.01293-1.39364-.3191-2.7782-1.02138-3.98809-.16646-.28678-.35145-.56097-.55383-.79833-1.06094-1.24433-2.94394-2.67181-4.65712-1.72495l-16.0668,8.74487c-.56482,.31233-.91683,.89893-.92276,1.53772l-.0739,7.96601c-.00676,.72906,.37635,1.40733,1.00883,1.78522,1.55108,.92673,4.45081,2.48343,5.64927,3.12228,.33626,.17925,.741,.17642,1.07492-.00659Z"/><path class="cls-1" d="M29.501,51.25964l.02345-2.52774c.00807-.86978,.48383-1.66961,1.24955-2.10071l15.97229-8.97088"/><g><path class="cls-15" d="M35.13941,44.98563l-1.88129-1.06049c-.09839-.05546-.0984-.19535-.00002-.2507l1.25162-.70417c.04677-.02631,.10444-.02516,.15012,.00302l1.84871,1.14002c.09607,.05924,.0905,.19899-.00999,.25048l-1.21903,.62464c-.04413,.02261-.09691,.02156-.14011-.00279Z"/><path class="cls-15" d="M41.89091,41.15489l-1.88129-1.06049c-.09839-.05546-.0984-.19535-.00002-.2507l1.25162-.70417c.04677-.02631,.10444-.02516,.15012,.00302l1.84871,1.14002c.09607,.05924,.0905,.19899-.00999,.25048l-1.21903,.62464c-.04413,.02261-.09691,.02156-.14011-.00279Z"/><path class="cls-2" d="M34.7732,43.64828l.0223-2.40333c.00302-.3256,.18173-.62481,.46896-.78518l5.04745-2.81812c.62006-.34619,1.38793,.10023,1.38141,.80311l-.01234,1.33016"/></g><line class="cls-3" x1="48.55358" y1="41.574" x2="34.25451" y2="49.87711"/><path class="cls-3" d="M33.51181,58.96097l.06771-7.29785c.01009-1.08737-.33539-2.14973-.98736-3.02712-.2979-.4009-.56391-.8082-.75313-.99012-1.501-1.44314-3.47309-1.78693-3.47309-1.78693"/></g><g><path class="cls-21" d="M11.562,8.33593c-.09317-.05379-.16292-.18348-.16256-.30852,.00035-.12501,.06277-.16947,.16378-.1201l1.27452,.73585c.09317,.05379,.1551,.17899,.15475,.30401-.00035,.12504-.0628,.1784-.15596,.12461l-1.27452-.73585Z"/><path class="cls-21" d="M13.18449,9.85405c-.00035,.12501-.06266,.16956-.15594,.11571l-1.68633-.9736c-.09327-.05385-.16294-.1746-.16259-.29961,.00038-.13392,.06269-.17847,.1638-.12901l1.68633,.9736c.09327,.05385,.15508,.18792,.15472,.31291Z"/><path class="cls-21" d="M15.68776,10.97734c.09327,.05385,.17069,.19693,.17031,.33085-.00035,.12501-.07832,.17839-.1716,.12453l-1.3289-.76724-.0001,.03572-.00025,.08932c-.00129,.45538-.00147,.51789-.0096,.66524l.85482,.49353c.14767,.08526,.24853,.17927,.3027,.29104,.08525,.12972,.09284,.20566,.09196,.51819-.00223,.7858-.06746,1.82147-.13043,2.06236-.07858,.27662-.22658,.30745-.56851,.11004-.62167-.35892-.78464-.51562-.78406-.721,.00043-.15178,.0939-.20517,.23378-.12441l.09325,.06281c.08543,.06719,.31851,.22861,.38838,.26896,.13997,.08081,.21786,.0542,.24942-.09749,.07073-.25435,.09565-.77661,.12155-1.68289l.00018-.06253c.00038-.13394-.03842-.19212-.14719-.25492l-.72275-.41728c-.04901,.83034-.19861,1.42373-.48774,1.82029-.19539,.28968-.37476,.40078-.50682,.32453-.11659-.06731-.22506-.23727-.22468-.37121,.00025-.0893,.00796-.08485,.1328-.18271,.5463-.49849,.7115-1.12762,.70079-2.82425l.00023-.08037,.00046-.16073-.51287-.29611c-.10109-.05836-.1785-.20144-.17812-.33539,.00038-.13392,.07061-.17389,.17941-.12l.80042,.46212,.00182-.64295c.00035-.12501,.07828-.16947,.20266-.09766,.12427,.07175,.21729,.2149,.21694,.33991l-.00182,.64295,1.03358,.59674Z"/><path class="cls-21" d="M12.83874,11.005c.08548,.04935,.14744,.16565,.14709,.29064-.00035,.12501-.06277,.16947-.14825,.12012l-1.28221-.74028c-.09317-.05379-.16292-.18348-.16259-.29959,.00035-.12499,.06275-.16055,.16375-.11117l1.28221,.74028Z"/><path class="cls-21" d="M12.67331,11.71449c.23315,.13461,.35713,.34033,.35637,.60822l-.00309,1.08941c-.00076,.26789-.12552,.33896-.35868,.20435l-.96359-.55633c-.23315-.13461-.34932-.34478-.34856-.61267l.00309-1.08941c.00076-.26789,.11771-.33451,.35086-.19989l.96359,.55633Zm-.03498,1.34824l.00238-.83938c.00023-.08037-.03073-.14296-.10842-.18781l-.67604-.39031c-.0778-.04492-.10898-.02712-.10924,.06215l-.00238,.83938,.10853,.18788,.67604,.39031,.10913-.06221"/><path class="cls-21" d="M12.84094,10.22813c.08548,.04935,.14744,.16565,.14709,.29064-.00035,.12501-.06277,.16947-.14825,.12012l-1.28221-.74028c-.09317-.05379-.16292-.18348-.16259-.29959,.00035-.12499,.06277-.16947,.16375-.11117l1.28221,.74028Z"/><path class="cls-21" d="M19.56406,16.47993c-.00078,.27682-.12557,.34788-.3742,.20433l-1.54647-.89285c-.24095-.13911-.357-.34922-.35619-.63494l.00304-1.07157c.00081-.28572,.11765-.35245,.3586-.21334l1.54647,.89285c.24863,.14355,.37263,.34933,.37182,.63505l-.00306,1.08048Zm-.41153-.37176l.0023-.81259-.10842-.18781-1.24333-.71784-.10924,.06215-.0023,.81259,.10853,.1879,1.24333,.71784,.10913-.06224"/><path class="cls-21" d="M20.18124,12.94554c.25645,.14806,.38808,.37611,.38725,.67079l-.01149,4.05403c-.00066,.23217-.05546,.35258-.16447,.37014-.09347,.00864-.1868-.02735-.47433-.19336-.24865-.14356-.48176-.29603-.62154-.40357-.11651-.0941-.18613-.22374-.18578-.34875,.00046-.16073,.0939-.1962,.24155-.11095l.08546,.05826c.16312,.11207,.38073,.25561,.4895,.31841,.15547,.08976,.2022,.06305,.20266-.09768l.00666-2.34848-1.14235-.65954c-.24863-.14355-.37261-.35823-.3718-.64398l.00321-1.13403c.00081-.28577,.1256-.35683,.37423-.21329l1.18125,.68199Zm-.04348,1.5938l.00124-.43755-1.11124-.64158-.00089,.31254,.09292,.17887,1.01797,.58773m.0023-.81259l.00086-.30361-.10063-.17435-.91701-.52944-.0936,.06221-.00086,.30361,1.11124,.64158"/><path class="cls-21" d="M18.24172,13.39993c-.00078,.27682-.13328,.34343-.38191,.19988l-1.11906-.64609-.0081,2.85749c-.00038,.13392-.09391,.16936-.2105,.10205-.12425-.07174-.20948-.21039-.2091-.3443l.01248-4.40231c.00084-.29468,.12552-.37474,.38196-.22668l1.15796,.66855c.24863,.14355,.38031,.36268,.3795,.64845l-.00324,1.14296Zm-.4116-.31813l.00089-.31254-1.08795-.62813-.00124,.43755,.97918,.56533,.10913-.06221m.00195-.68758l.00086-.30361-.10074-.17441-.87811-.50698-.1091,.05326-.00086,.30361,1.08795,.62813"/><path class="cls-21" d="M25.52306,17.65748c.08548,.04935,.15524,.17012,.15488,.29514-.00033,.11608-.07057,.16498-.15605,.11562l-2.7354-1.57929c-.05468,.07576-.12493,.16042-.20306,.24053l2.26141,1.30563c.25642,.14805,.38814,.38509,.38731,.67977l-.00481,1.69662c-.00084,.29468-.13344,.37019-.38986,.22215l-2.46348-1.42229c-.25642-.14805-.38808-.37613-.38725-.67081l.00377-1.33051c-.33523,.2-.6001,.27071-.72448,.1989-.11657-.0673-.20943-.23721-.20905-.37115l.07041-.14715q.01563,.00006,.10907-.03541c.39722-.09268,.8417-.36376,1.07602-.63991l-1.04905-.60567c-.0933-.05386-.15523-.17907-.1549-.29515,.00035-.12501,.06275-.16055,.15607-.11561l1.25112,.72234c.07033-.12039,.1173-.19166,.14866-.27194l-1.22783-.70889c-.08548-.04935-.13971-.17011-.13938-.28616,.00033-.11611,.05504-.16499,.14052-.11564l1.3599,.78514c.04714-.16064,.07066-.22756,.10207-.32567l-.06211-.02694c-.24874-.14361-1.04921-.58787-1.17349-.65962-.23315-.13461-.29522-.21517-.29476-.3759,.00035-.12501,.04717-.17849,.14831-.13798q.02332,.00452,.27197,.14808c1.31331,.75824,1.96617,1.09939,3.02341,1.57563,.10893,.045,.13222,.05845,.15552,.0719,.13207,.07625,.20961,.21046,.2092,.35333-.00035,.12501-.06277,.16947-.17941,.12002-.30318-.12138-.76178-.35035-1.67121-.83068-.06279,.21418-.06287,.24095-.09428,.33911l2.10592,1.21586c.08548,.04935,.14742,.17453,.14709,.29061-.0003,.10715-.06275,.16055-.14823,.11119l-2.2303-1.28767c-.03925,.10256-.07051,.1829-.13308,.28094l2.54883,1.47157Zm-.73075,2.44024l.00073-.25896-2.37016-1.36841-.00073,.25896,.1006,.18333,2.16813,1.25177,.10142-.06669m.0018-.634l.00099-.34825-2.37016-1.36841-.00099,.34825,2.37016,1.36841m-.09805-1.12097l-2.16813-1.25177-.10129,.05782-.00063,.22321,2.37016,1.36841,.00063-.22321-.10074-.17446"/><polygon class="cls-21" points="28.3354 19.57635 29.08924 20.01158 29.08858 20.24374 28.33475 19.80852 28.3354 19.57635"/><path class="cls-21" d="M26.29061,18.7625l1.06457,.61463c.09327,.05385,.14742,.17458,.14709,.29064-.00035,.12504-.05498,.17397-.14825,.12012l-1.06457-.61463c-.08548-.04935-.15521-.17905-.15488-.29514,.00033-.11606,.06275-.16055,.15605-.11562Z"/><path class="cls-21" d="M27.21303,20.10003c.21766,.12566,.33376,.32686,.33302,.58581l-.00319,1.12515c-.00073,.25893-.11759,.32563-.33525,.19996l-.77713-.44868c-.22534-.1301-.33376-.31791-.333-.58578l.00319-1.12515c.00073-.25896,.10989-.3301,.33523-.2l.77713,.44868Zm-.03503,1.37507l.00248-.8751-.10844-.17886-.49739-.28717-.10131,.05776-.00248,.8751,.10065,.17439,.49739,.28717,.1091-.05328"/><path class="cls-21" d="M27.545,18.33292l-1.42988-.82554c-.00432-.00207-.00853-.00433-.01276-.00677-.08611-.04971-.14246-.16911-.14212-.28837,.00035-.12501,.0628-.17838,.15607-.12453l1.42988,.82554c.08548,.04935,.14742,.17453,.14706,.29954s-.06277,.16947-.14825,.12012Z"/><path class="cls-21" d="M27.96264,19.27169c-.1638,.12903-.19496,.1379-.27265,.09305-.09327-.05385-.1785-.19253-.17817-.30861l.08596-.12031c.22607-.12883,.40566-.31136,.56982-.57438l.16355-.03971,.0932,.08062-.00769-.04022,.00043-.1518-.60606-.34991c-.0933-.05386-.15526-.17011-.15493-.28622,.00033-.11608,.06275-.16055,.15604-.10668l.60606,.34991,.00058-.20538c.0003-.10715,.07831-.14262,.19479-.07537,.10888,.06286,.18632,.18807,.18602,.29523l-.00058,.20538,.69936,.40377,.00058-.20538c.0003-.10715,.08601-.13817,.1949-.07531,.10877,.0628,.18621,.18801,.18591,.29516l-.00058,.20538,.60619,.34998c.08546,.04934,.15513,.17006,.1548,.28615-.00033,.11611-.07045,.1561-.15591,.10676l-.60619-.34998-.00041,.14287c-.0003,.10715-.0782,.14268-.18697,.07988l-.11649-.10303,.01532,.07148c-.00013,.04465-.00797,.05798-.07822,.15161l.94028,.54287c.06219,.03591,.11636,.13871,.11611,.22801s-.04704,.13384-.11702,.09343l-.99468-.57428-.00066,.23217,.83921,.48452,.11614,.2191-.117,.0845-.83921-.48452-.00066,.23217,.84701,.48902,.11616,.21911-.11702,.08449-.84701-.48902-.00071,.25003,1.03358,.59674c.06208,.03584,.11636,.13874,.11609,.23696-.00025,.0893-.05494,.12928-.11702,.09343l-2.19922-1.26972c-.20986-.12116-.32605-.32238-.32537-.56348l.00235-.83048Zm.54674-.65926c-.00013,.04465-.01575,.08035-.07057,.165l.69165,.39932c.05471-.08472,.07823-.11585,.10951-.19618l.14803-.03976,.12425,.11648-.0154-.08047,.00041-.14287-.69936-.40377-.00043,.1518c-.0003,.10718-.07817,.13375-.18706,.07089l-.10093-.07614-.0001,.03569m-.1755,1.49969l-.00041,.14287,.09297,.16101,.66056,.38138,.00071-.25003-.75384-.43523m.00273-.96439l-.00035,.12501,.75384,.43523,.00066-.23217-.66056-.38138-.09358,.0533"/><path class="cls-21" d="M30.48042,23.507c.13201,.09408,.19398,.21035,.19367,.31751-.00038,.13397-.07835,.18732-.19491,.12002-.03111-.01796-.06998-.0404-.1632-.12106-.39608-.30917-.72202-.63152-1.11003-1.0702-.4203-.00117-1.15927-.1684-1.40021-.30751-.10877-.0628-.19398-.21038-.19365-.32649l.10928-.11579c.03113,.00903,.03895,.0046,.13227,.04059,.30323,.10352,.69991,.20732,.96451,.23487-.24812-.33108-.48841-.70236-.69749-1.10034l-.22534-.1301c-.07769-.04485-.13184-.15661-.13153-.26377s.05491-.15613,.1326-.11127l2.22251,1.28317c.16328,.09427,.26401,.23292,.26368,.34901-.00058,.20538-.31239,.37418-.77961,.42642,.24062,.2552,.59777,.55981,.87746,.77495Zm-1.27321-1.20021l.02334-.00441c.27251-.00366,.57622-.06981,.5764-.13231l-.10093-.07616-1.13456-.65504c.18593,.2952,.3875,.58149,.63575,.86792"/><path class="cls-21" d="M27.35739,18.60026c.09327,.05385,.14744,.16565,.14712,.28171-.00035,.12501-.0628,.1784-.14828,.12905l-1.06457-.61463c-.08548-.04935-.15521-.17905-.15486-.30407,.00033-.11606,.06275-.16055,.15602-.10669l1.06457,.61463Z"/><path class="cls-21" d="M26.29613,16.81585c-.08548-.04935-.15521-.17905-.15488-.29514,.00035-.12501,.06277-.16947,.15607-.12455l1.05687,.61018c.09319,.0538,.15513,.179,.15477,.30402-.00033,.11608-.06277,.16947-.15596,.11567l-1.05687-.61018Z"/></g><g><g class="cls-8"><path class="cls-14" d="M41.9596,52.53325c-.199,.19565-.34135,.49797-.34064,.75005,.00092,.32349,.22955,.4538,.51109,.29125s.50868-.556,.50777-.87949c-.00032-.11384-.02984-.20415-.0804-.26594l-.46516,.4472c-.00238-.00551-.04902-.13886-.13265-.34307Z"/><path class="cls-14" d="M39.78988,49.95211c-.08558,.04941-.17066,.10652-.25377,.17081-.02502,.01933-.04979,.03921-.07438,.05983-.15408,.12978-.29316,.27969-.41435,.44486-.23005,.31353-.39559,.68209-.47656,1.07244-.29149,1.38209,1.27277,3.70378,1.45254,3.96516l.0314-.03867,.40122-.49398c-.10089-.14672-.20961-.31473-.32044-.49684-.58981-.96959-1.23861-2.34182-1.08614-3.05767,.07509-.36739,.25326-.67085,.52562-.90008,.06965-.05873,.14327-.11006,.2183-.15338,.30002-.17323,.62214-.21768,.80153-.09082,.6334,.45846,1.13672,1.54264,1.36475,2.0995,.08363,.20421,.13027,.33756,.13265,.34307l.46516-.4472c-.02348-.08039-.65981-1.9143-1.59275-2.58434-.27255-.20046-.73051-.14917-1.17478,.10733Z"/><path class="cls-19" d="M41.36612,46.62172c-.12577,.07261-.25453,.15902-.38646,.26069-.88873,.68283-1.32283,1.28499-1.67414,2.10502-.30529,.71316-.28443,1.35779-.25813,1.64018,.12119-.16518,.26028-.31508,.41435-.44486,.02459-.02061,.04936-.0405,.07438-.05983-.00011-.22988,.03927-.58028,.21804-.99364,.27122-.62975,.78873-1.24228,1.53013-1.81435,.10007-.07682,.1986-.14281,.29491-.19841,1.68472-.97267,2.79033,1.16201,3.07499,1.80187,.13735-.18359,.29674-.34417,.46827-.46422-.30412-.69364-1.74846-2.99171-3.75635-1.83245Z"/></g><path class="cls-19" d="M45.23685,48.99322c-.29493,.17028-.53549,.5869-.53453,.92579s.2431,.47683,.53802,.30655,.53543-.58686,.53447-.92576-.24304-.47686-.53796-.30659Z"/><path class="cls-14" d="M45.12247,48.45416c.03703-.02591,.07459-.05002,.11266-.072,.58985-.34055,1.06957-.06717,1.07149,.61061,.00191,.67268-.47469,1.49815-1.06454,1.8387-.58544,.33801-1.06515,.06465-1.06705-.60803-.00122-.42966,.19002-.91851,.47918-1.30507,.13735-.18358,.29674-.34416,.46826-.46421Zm.11789,1.7714c.29492-.17027,.53543-.58686,.53447-.92576s-.24304-.47685-.53796-.30658-.5355,.58689-.53454,.92579,.2431,.47683,.53804,.30655"/><path class="cls-14" d="M40.39128,54.40872c-.09334,.05389-.18066,.13327-.25573,.227,.11082,.18211,.21955,.35012,.32044,.49684l-.40122,.49398c.09033,.04056,.20934,.02826,.33984-.04708,.28153-.16254,.50868-.556,.50777-.87949-.00092-.3235-.22955-.4538-.51109-.29125Z"/></g></g></g></svg>