<?xml version="1.0" encoding="UTF-8"?><svg id="_レイヤー_2" xmlns="http://www.w3.org/2000/svg" xmlns:xlink="http://www.w3.org/1999/xlink" viewBox="0 0 53.57 117.44"><defs><style>.cls-1{stroke-width:1.33px;}.cls-1,.cls-2,.cls-3{fill:none;stroke-linecap:round;stroke-linejoin:round;}.cls-1,.cls-3{stroke:#5f402d;}.cls-4{fill:#8c5a2c;}.cls-5{fill:#e24963;}.cls-6{fill:#b29b92;}.cls-7{fill:#fbfbfd;}.cls-8{fill:#e1667c;}.cls-9{isolation:isolate;}.cls-10{fill:#c24669;}.cls-11{fill:#f4f7f9;}.cls-12{clip-path:url(#clippath-1);}.cls-2{stroke:#482d1b;stroke-width:1.22px;}.cls-13{fill:url(#_名称未設定グラデーション_78);}.cls-14{fill:#b2b5b8;}.cls-15{fill:#e7e6f0;}.cls-16{fill:#c6c7c5;}.cls-17{clip-path:url(#clippath);}.cls-18{fill:#ffe156;}.cls-3{stroke-width:.59px;}.cls-19{fill:#d3daeb;}.cls-20{fill:#5daddd;}.cls-21{fill:#c5c8cc;}.cls-22{fill:#e78895;}.cls-23{fill:#3d5a86;}</style><linearGradient id="_名称未設定グラデーション_78" x1="23.89" y1="70" x2="23.89" y2="141.33" gradientUnits="userSpaceOnUse"><stop offset="0" stop-color="#949494"/><stop offset="1" stop-color="#000"/></linearGradient><clipPath id="clippath"><path class="cls-5" d="M48.78,59.6v4.22c-.02,3.59-2.38,7.18-7.1,9.92-9.49,5.52-24.93,5.52-34.49,0C2.39,70.96-.01,67.32,0,63.68v-4.22c0,3.64,2.4,7.28,7.21,10.06,9.56,5.52,25,5.51,34.49,0,4.72-2.74,7.08-6.33,7.09-9.92Z"/></clipPath><clipPath id="clippath-1"><path class="cls-5" d="M48.78,59.6v4.22c-.02,3.59-2.38,7.18-7.1,9.92-9.49,5.52-24.93,5.52-34.49,0C2.39,70.96-.01,67.32,0,63.68v-4.22c0,3.64,2.4,7.28,7.21,10.06,9.56,5.52,25,5.51,34.49,0,4.72-2.74,7.08-6.33,7.09-9.92Z"/></clipPath></defs><g id="_レイヤー_1-2"><g><ellipse class="cls-23" cx="28.97" cy="31.63" rx="20.08" ry="34.67" transform="translate(-11.97 18.84) rotate(-30.16)"/><path class="cls-18" d="M38.81,18.15c0,3.37-2.39,4.72-5.32,3.03-1.39-.8-2.67-2.17-3.6-3.73,.77,.98,1.69,1.8,2.66,2.37,2.92,1.69,5.31,.33,5.32-3.03,0-1.76-.63-3.72-1.67-5.43,1.58,1.96,2.63,4.54,2.62,6.78Z"/><polygon class="cls-18" points="14.58 6.11 15.18 8.58 17.1 9.69 17.1 9.71 15.54 10.11 16.14 12.59 14.56 10.37 12.98 10.77 12.96 10.76 13.58 8.97 12.02 6.78 12.02 6.75 13.94 7.86 14.56 6.09 14.58 6.11"/><g><g><path class="cls-13" d="M25.36,116.32s0-.04,0-.07v-41.6h-2.94v41.57s0,.08,0,.12h0s0,0,0,0c.02,.27,.16,.54,.43,.75,.58,.45,1.51,.45,2.09,0,.27-.21,.4-.47,.42-.75h0v-.03Z"/><g><path class="cls-5" d="M48.78,59.6v4.22c-.02,3.59-2.38,7.18-7.1,9.92-9.49,5.52-24.93,5.52-34.49,0C2.39,70.96-.01,67.32,0,63.68v-4.22c0,3.64,2.4,7.28,7.21,10.06,9.56,5.52,25,5.51,34.49,0,4.72-2.74,7.08-6.33,7.09-9.92Z"/><g class="cls-17"><g class="cls-9"><path class="cls-5" d="M48.78,59.6v4.22c-.01,.07-.01,.14-.02,.21v-4.22c.01-.07,.02-.14,.02-.21"/><path class="cls-5" d="M48.78,59.81v4.22c-.03,.47-.08,.93-.17,1.4v-4.22c.11-.46,.16-.93,.17-1.4"/><path class="cls-5" d="M48.62,61.21v4.22c-.1,.46-.24,.92-.41,1.37v-4.22c.18-.45,.31-.91,.41-1.37"/><path class="cls-5" d="M48.23,62.58v4.22c-.19,.47-.4,.93-.66,1.39v-4.22c.27-.46,.49-.92,.66-1.39"/><path class="cls-5" d="M47.58,63.97v4.22c-.29,.49-.62,.98-.99,1.46v-4.22c.39-.48,.71-.96,.99-1.46"/><path class="cls-5" d="M46.6,65.43v4.22c-.45,.56-.95,1.1-1.52,1.63v-4.22c.58-.53,1.09-1.07,1.52-1.63"/><path class="cls-5" d="M45.08,67.05v4.22c-.89,.81-1.92,1.57-3.1,2.29v-4.22c1.2-.71,2.23-1.48,3.1-2.29"/><path class="cls-5" d="M41.99,69.34v4.22c-.11,.06-.21,.12-.31,.18-1.63,.95-3.43,1.73-5.34,2.35v-4.22c1.93-.62,3.73-1.4,5.36-2.35,.1-.06,.2-.12,.3-.18"/><path class="cls-5" d="M36.35,71.87v4.22c-1.49,.48-3.04,.86-4.63,1.15v-4.22c1.6-.29,3.15-.67,4.63-1.15"/><path class="cls-5" d="M31.74,73.02v4.22c-1.03,.18-2.07,.33-3.12,.43v-4.22c1.06-.1,2.1-.25,3.12-.43"/><path class="cls-5" d="M28.62,73.45v4.22c-.91,.09-1.81,.15-2.72,.18v-4.22c.92-.03,1.82-.09,2.72-.18"/><path class="cls-5" d="M25.92,73.63v4.22c-.84,.03-1.68,.03-2.51,.01v-4.22c.84,.02,1.68,.02,2.51-.01"/><path class="cls-5" d="M23.42,73.64v4.22c-.81-.02-1.62-.06-2.41-.13v-4.22c.81,.07,1.61,.11,2.41,.13"/><path class="cls-5" d="M21.02,73.51v4.22c-.81-.07-1.6-.15-2.38-.26v-4.22c.8,.11,1.59,.2,2.38,.26"/><path class="cls-5" d="M18.65,73.25v4.22c-.83-.12-1.63-.26-2.43-.42v-4.22c.81,.16,1.61,.3,2.43,.42"/><path class="cls-5" d="M16.23,72.83v4.22c-.87-.18-1.72-.39-2.56-.62v-4.22c.84,.24,1.69,.44,2.56,.62"/><path class="cls-5" d="M13.69,72.2v4.22c-1.03-.29-2.02-.62-2.97-1v-4.22c.97,.38,1.96,.71,2.97,1"/><path class="cls-5" d="M10.73,71.2v4.22c-1.25-.49-2.43-1.05-3.53-1.69C2.39,70.96-.01,67.32,0,63.68v-4.22c0,3.64,2.4,7.28,7.21,10.06,1.1,.64,2.28,1.2,3.52,1.69"/></g></g></g><ellipse class="cls-8" cx="24.4" cy="59.53" rx="14.13" ry="24.39" transform="translate(-35.2 83.76) rotate(-89.84)"/></g><g><g><g><g class="cls-9"><polygon class="cls-19" points="23.22 51.07 23.31 71.5 45.44 58.73 45.35 38.29 23.22 51.07"/><polygon class="cls-15" points="23.22 51.07 3.66 39.7 3.75 60.14 23.31 71.5 23.22 51.07"/><polygon class="cls-11" points="45.35 38.29 25.79 26.92 3.66 39.7 23.22 51.07 45.35 38.29"/></g><g class="cls-9"><polygon class="cls-10" points="24.18 50.24 24.18 51.27 3.1 39.1 3.1 38.06 24.18 50.24"/><polygon class="cls-14" points="24.18 50.24 44.99 38.14 44.99 39.18 24.18 51.27 24.18 50.24"/><polygon class="cls-11" points="3.1 38.06 24.07 26 44.99 38.14 24.18 50.24 3.1 38.06"/></g><g class="cls-9"><polygon class="cls-8" points="38.42 37.81 24.43 50.29 24.43 51.79 38.44 43.7 38.42 37.81"/><polygon class="cls-22" points="38.42 37.81 14.13 24.02 .14 36.5 24.43 50.29 38.42 37.81"/><polygon class="cls-8" points="24.43 50.29 .14 36.5 .14 38 24.43 51.79 24.43 50.29"/></g><polygon class="cls-5" points="48.28 37.22 38.24 37.84 14.19 24.05 24.8 23.78 48.28 37.22"/></g><polygon class="cls-8" points="38.28 43.81 48.19 38.02 48.19 37.22 38.33 37.8 38.28 43.81"/><polygon class="cls-20" points="7.1 46.24 7.1 54.79 12.66 58.09 12.66 49.37 7.1 46.24"/><polygon class="cls-20" points="14.66 50.59 14.66 59.14 20.23 62.44 20.23 53.72 14.66 50.59"/></g><path class="cls-6" d="M31.07,66.9s8.4-4.8,8.12-4.59,0-13.7,0-13.7l-8.26,4.38s-.14,13.91,.14,13.91Z"/></g><g><path class="cls-13" d="M25.36,116.32s0-.04,0-.07v-41.6h-2.94v41.57s0,.08,0,.12h0s0,0,0,0c.02,.27,.16,.54,.43,.75,.58,.45,1.51,.45,2.09,0,.27-.21,.4-.47,.42-.75h0v-.03Z"/><g><path class="cls-5" d="M48.78,59.6v4.22c-.02,3.59-2.38,7.18-7.1,9.92-9.49,5.52-24.93,5.52-34.49,0C2.39,70.96-.01,67.32,0,63.68v-4.22c0,3.64,2.4,7.28,7.21,10.06,9.56,5.52,25,5.51,34.49,0,4.72-2.74,7.08-6.33,7.09-9.92Z"/><g class="cls-12"><g class="cls-9"><path class="cls-5" d="M48.78,59.6v4.22c-.01,.07-.01,.14-.02,.21v-4.22c.01-.07,.02-.14,.02-.21"/><path class="cls-5" d="M48.78,59.81v4.22c-.03,.47-.08,.93-.17,1.4v-4.22c.11-.46,.16-.93,.17-1.4"/><path class="cls-5" d="M48.62,61.21v4.22c-.1,.46-.24,.92-.41,1.37v-4.22c.18-.45,.31-.91,.41-1.37"/><path class="cls-5" d="M48.23,62.58v4.22c-.19,.47-.4,.93-.66,1.39v-4.22c.27-.46,.49-.92,.66-1.39"/><path class="cls-5" d="M47.58,63.97v4.22c-.29,.49-.62,.98-.99,1.46v-4.22c.39-.48,.71-.96,.99-1.46"/><path class="cls-5" d="M46.6,65.43v4.22c-.45,.56-.95,1.1-1.52,1.63v-4.22c.58-.53,1.09-1.07,1.52-1.63"/><path class="cls-5" d="M45.08,67.05v4.22c-.89,.81-1.92,1.57-3.1,2.29v-4.22c1.2-.71,2.23-1.48,3.1-2.29"/><path class="cls-5" d="M41.99,69.34v4.22c-.11,.06-.21,.12-.31,.18-1.63,.95-3.43,1.73-5.34,2.35v-4.22c1.93-.62,3.73-1.4,5.36-2.35,.1-.06,.2-.12,.3-.18"/><path class="cls-5" d="M36.35,71.87v4.22c-1.49,.48-3.04,.86-4.63,1.15v-4.22c1.6-.29,3.15-.67,4.63-1.15"/><path class="cls-5" d="M31.74,73.02v4.22c-1.03,.18-2.07,.33-3.12,.43v-4.22c1.06-.1,2.1-.25,3.12-.43"/><path class="cls-5" d="M28.62,73.45v4.22c-.91,.09-1.81,.15-2.72,.18v-4.22c.92-.03,1.82-.09,2.72-.18"/><path class="cls-5" d="M25.92,73.63v4.22c-.84,.03-1.68,.03-2.51,.01v-4.22c.84,.02,1.68,.02,2.51-.01"/><path class="cls-5" d="M23.42,73.64v4.22c-.81-.02-1.62-.06-2.41-.13v-4.22c.81,.07,1.61,.11,2.41,.13"/><path class="cls-5" d="M21.02,73.51v4.22c-.81-.07-1.6-.15-2.38-.26v-4.22c.8,.11,1.59,.2,2.38,.26"/><path class="cls-5" d="M18.65,73.25v4.22c-.83-.12-1.63-.26-2.43-.42v-4.22c.81,.16,1.61,.3,2.43,.42"/><path class="cls-5" d="M16.23,72.83v4.22c-.87-.18-1.72-.39-2.56-.62v-4.22c.84,.24,1.69,.44,2.56,.62"/><path class="cls-5" d="M13.69,72.2v4.22c-1.03-.29-2.02-.62-2.97-1v-4.22c.97,.38,1.96,.71,2.97,1"/><path class="cls-5" d="M10.73,71.2v4.22c-1.25-.49-2.43-1.05-3.53-1.69C2.39,70.96-.01,67.32,0,63.68v-4.22c0,3.64,2.4,7.28,7.21,10.06,1.1,.64,2.28,1.2,3.52,1.69"/></g></g></g><ellipse class="cls-8" cx="24.4" cy="59.53" rx="14.13" ry="24.39" transform="translate(-35.2 83.76) rotate(-89.84)"/></g><g><g><g><g class="cls-9"><polygon class="cls-19" points="23.22 51.07 23.31 71.5 45.44 58.73 45.35 38.29 23.22 51.07"/><polygon class="cls-15" points="23.22 51.07 3.66 39.7 3.75 60.14 23.31 71.5 23.22 51.07"/><polygon class="cls-11" points="45.35 38.29 25.79 26.92 3.66 39.7 23.22 51.07 45.35 38.29"/></g><g class="cls-9"><polygon class="cls-10" points="24.18 50.24 24.18 51.27 3.1 39.1 3.1 38.06 24.18 50.24"/><polygon class="cls-14" points="24.18 50.24 44.99 38.14 44.99 39.18 24.18 51.27 24.18 50.24"/><polygon class="cls-11" points="3.1 38.06 24.07 26 44.99 38.14 24.18 50.24 3.1 38.06"/></g><g class="cls-9"><polygon class="cls-8" points="38.42 37.81 24.43 50.29 24.43 51.79 38.44 43.7 38.42 37.81"/><polygon class="cls-22" points="38.42 37.81 14.13 24.02 .14 36.5 24.43 50.29 38.42 37.81"/><polygon class="cls-8" points="24.43 50.29 .14 36.5 .14 38 24.43 51.79 24.43 50.29"/></g><polygon class="cls-5" points="48.28 37.22 38.24 37.84 14.19 24.05 24.8 23.78 48.28 37.22"/></g><polygon class="cls-8" points="38.28 43.81 48.19 38.02 48.19 37.22 38.33 37.8 38.28 43.81"/><polygon class="cls-20" points="7.1 46.24 7.1 54.79 12.66 58.09 12.66 49.37 7.1 46.24"/><polygon class="cls-20" points="14.66 50.59 14.66 59.14 20.23 62.44 20.23 53.72 14.66 50.59"/></g><path class="cls-6" d="M31.07,66.9s8.4-4.8,8.12-4.59,0-13.7,0-13.7l-8.26,4.38s-.14,13.91,.14,13.91Z"/></g><g class="cls-9"><polygon class="cls-7" points="32.31 27.75 32.27 41.74 9.75 28.74 9.79 14.75 32.31 27.75"/><polygon class="cls-21" points="32.31 27.75 35.7 25.78 35.66 39.77 32.27 41.74 32.31 27.75"/><polygon class="cls-21" points="9.79 14.75 13.18 12.78 35.7 25.78 32.31 27.75 9.79 14.75"/></g><g><path class="cls-4" d="M34.2,72.38l14.93-8.18c.34-.19,.56-.54,.56-.93l.07-7.52c.01-1.39-.32-2.78-1.02-3.99-.17-.29-.35-.56-.55-.8-1.06-1.24-2.94-2.67-4.66-1.72l-16.07,8.74c-.56,.31-.92,.9-.92,1.54l-.07,7.97c0,.73,.38,1.41,1.01,1.79,1.55,.93,4.45,2.48,5.65,3.12,.34,.18,.74,.18,1.07,0Z"/><path class="cls-1" d="M29.5,64.03l.02-2.53c0-.87,.48-1.67,1.25-2.1l15.97-8.97"/><g><path class="cls-16" d="M35.14,57.76l-1.88-1.06c-.1-.06-.1-.2,0-.25l1.25-.7s.1-.03,.15,0l1.85,1.14c.1,.06,.09,.2,0,.25l-1.22,.62s-.1,.02-.14,0Z"/><path class="cls-16" d="M41.89,53.93l-1.88-1.06c-.1-.06-.1-.2,0-.25l1.25-.7s.1-.03,.15,0l1.85,1.14c.1,.06,.09,.2,0,.25l-1.22,.62s-.1,.02-.14,0Z"/><path class="cls-2" d="M34.77,56.42l.02-2.4c0-.33,.18-.62,.47-.79l5.05-2.82c.62-.35,1.39,.1,1.38,.8v1.33"/></g><line class="cls-3" x1="48.55" y1="54.35" x2="34.25" y2="62.65"/><path class="cls-3" d="M33.51,71.74l.07-7.3c.01-1.09-.34-2.15-.99-3.03-.3-.4-.56-.81-.75-.99-1.5-1.44-3.47-1.79-3.47-1.79"/></g><g><path class="cls-22" d="M40.99,61.28c-.4,.24-.71,.79-.7,1.24,0,.04,0,.09,.01,.13l.48,2.49v.04c.06,.24,.26,.31,.49,.18l1.66-.97,.8,1.32c.06,.09,.16,.1,.27,.04,.05-.03,.09-.07,.14-.12,.13-.16,.2-.37,.16-.51l-.61-1.95c-.06-.19-.23-.22-.42-.11l-.04,.02s-.02,.02-.03,.02h-.02s-1.42,.84-1.42,.84l-.03-1.57-.4-.46c-.05-.06-.03-.19,.05-.3,.03-.04,.06-.07,.09-.09,.06-.03,.11-.03,.14,0l.1,.11c-.02-.42-.34-.58-.71-.36Z"/><path class="cls-22" d="M38.67,63.12c-.1,.06-.18,.2-.18,.31s.08,.16,.18,.1l.69-.4v1.46s0,.02,0,.02c0,.11,.08,.16,.18,.1s.18-.2,.18-.31v-.38s0-1.31,0-1.31c0-.12-.08-.16-.18-.1l-.86,.5Z"/><path class="cls-22" d="M40.13,63.54c-.15,.15-.28,.32-.41,.49v.38c0,.11-.08,.25-.18,.31s-.18,0-.18-.1v-.02c-.39,.7-.6,1.47-.58,2.18,.02,.69,.27,1.2,.72,1.42,.43,.22,.99,.15,1.57-.19l.07-.04c.84-.51,1.6-1.5,1.97-2.58h-.32c-.32,.91-.95,1.74-1.66,2.17-.02,.02-.05,.03-.07,.04-.49,.28-.95,.33-1.31,.15-.38-.19-.59-.61-.61-1.2-.03-.93,.39-1.94,1.13-2.71l-.14-.31Z"/><path class="cls-22" d="M41.46,61.52s-.06,.05-.09,.09c-.08,.11-.1,.24-.05,.3l.4,.46,.72,.83s.05,.04,.09,.03l.62-.11h.04s.02-.02,.02-.02c.01,0,.02-.01,.03-.02,.06-.05,.11-.12,.13-.2,.03-.12-.02-.2-.11-.19l-.56,.1-.98-1.14-.1-.11s-.09-.04-.14,0Z"/><path class="cls-22" d="M40.85,59.66c-.35,.2-.65,.7-.66,1.11-.02,.43,.27,.62,.64,.43,.01,0,.02-.01,.03-.02,.35-.2,.64-.69,.66-1.11,.02-.43-.27-.62-.64-.43,0,0-.02,.01-.03,.02Z"/></g><g><path class="cls-5" d="M12.22,24.12c.24,.14,.37,.36,.37,.64v1.14c0,.28-.13,.34-.38,.2l-1.01-.58c-.24-.14-.36-.35-.36-.63v-1.14c0-.28,.13-.36,.37-.22l1.01,.58Zm-.04,1.42v-.88c0-.08-.03-.15-.11-.2l-.71-.41c-.08-.05-.11-.03-.11,.06v.88s.11,.2,.11,.2l.71,.41,.11-.06"/><path class="cls-5" d="M12.39,23.39c.09,.05,.15,.17,.15,.3s-.07,.18-.15,.13l-1.34-.77c-.1-.06-.17-.19-.17-.31,0-.13,.07-.18,.17-.12l1.34,.77Z"/><path class="cls-5" d="M12.4,22.58c.09,.05,.15,.17,.15,.3s-.07,.18-.15,.13l-1.34-.77c-.1-.06-.17-.19-.17-.31,0-.13,.07-.18,.17-.12l1.34,.77Z"/><path class="cls-5" d="M11.06,20.61c-.1-.06-.17-.2-.17-.32,0-.13,.07-.18,.17-.13l1.33,.77c.1,.06,.16,.19,.16,.32,0,.12-.07,.19-.16,.13l-1.33-.77Z"/><path class="cls-5" d="M12.76,22.19c0,.13-.07,.18-.16,.12l-1.76-1.02c-.1-.06-.17-.18-.17-.31,0-.14,.07-.19,.17-.13l1.76,1.02c.1,.06,.16,.2,.16,.33Z"/><path class="cls-5" d="M15.37,23.36c.1,.06,.18,.21,.18,.35,0,.13-.08,.19-.18,.13l-1.39-.8v.04s0,.09,0,.09c0,.48,0,.54-.01,.69l.89,.51c.15,.09,.26,.19,.32,.3,.09,.14,.1,.21,.1,.54,0,.82-.07,1.9-.14,2.15-.08,.29-.24,.32-.59,.11-.65-.37-.82-.54-.82-.75,0-.16,.1-.21,.24-.13l.1,.07c.09,.07,.33,.24,.41,.28,.15,.08,.23,.06,.26-.1,.07-.27,.1-.81,.13-1.76v-.07c0-.14-.04-.2-.15-.27l-.75-.44c-.05,.87-.21,1.49-.51,1.9-.2,.29-.39,.42-.53,.34-.12-.07-.23-.26-.23-.39,0-.09,0-.09,.14-.19,.57-.52,.74-1.18,.73-2.96v-.07s0-.17,0-.17l-.54-.31c-.11-.06-.19-.21-.19-.35s.07-.18,.19-.13l.84,.48v-.68c0-.13,.08-.17,.21-.09s.23,.21,.23,.35v.68s1.08,.62,1.08,.62Z"/><path class="cls-5" d="M19.41,29.1c0,.29-.13,.36-.39,.21l-1.61-.93c-.25-.15-.37-.36-.37-.66v-1.13c0-.29,.13-.36,.38-.21l1.61,.93c.26,.15,.39,.36,.39,.65v1.14Zm-.43-.39v-.85s-.11-.2-.11-.2l-1.3-.75-.11,.06v.85s.11,.2,.11,.2l1.3,.75,.11-.06"/><path class="cls-5" d="M20.06,25.42c.27,.15,.4,.39,.4,.7v4.23c-.01,.24-.07,.37-.18,.39-.1,0-.19-.03-.49-.2-.26-.15-.5-.31-.65-.43-.12-.09-.19-.22-.19-.35,0-.17,.1-.2,.25-.12l.09,.05c.17,.13,.4,.28,.51,.34,.16,.09,.21,.07,.21-.1v-2.45s-1.18-.69-1.18-.69c-.26-.15-.39-.37-.39-.67v-1.18c0-.3,.13-.37,.39-.22l1.23,.71Zm-.05,1.66v-.46s-1.16-.67-1.16-.67v.33s.1,.19,.1,.19l1.06,.61m0-.85v-.32s-.1-.18-.1-.18l-.96-.55-.1,.06v.32s1.16,.67,1.16,.67"/><path class="cls-5" d="M18.03,25.88c0,.3-.14,.37-.4,.22l-1.17-.67v2.98c0,.14-.11,.18-.23,.11-.13-.07-.22-.22-.22-.36v-4.59c.01-.31,.14-.39,.41-.24l1.21,.7c.26,.15,.4,.38,.4,.68v1.18Zm-.43-.32v-.33s-1.13-.66-1.13-.66v.46s1.02,.59,1.02,.59l.11-.06m0-.72v-.32s-.1-.18-.1-.18l-.92-.53-.11,.06v.32s1.13,.66,1.13,.66"/><path class="cls-5" d="M24.4,29.71c.14,.08,.24,.25,.24,.38v2.99c0,.13-.11,.17-.25,.09s-.23-.23-.23-.37v-2.99c0-.13,.11-.18,.24-.11Z"/><path class="cls-5" d="M22.46,28.59c.13,.07,.23,.24,.23,.37v.92c0,.81-.12,1.24-.41,1.5-.22,.2-.57,.28-.75,.17-.13-.07-.23-.27-.23-.42,0-.12,.02-.14,.18-.17,.53-.08,.76-.49,.74-1.34v-.94c0-.13,.1-.18,.24-.1Z"/><path class="cls-5" d="M25.62,30.3c.15,.17,.2,.28,.2,.41,0,.17-.11,.24-.23,.17-.15-.09-.54-.57-1-1.23-.53-.76-.79-1.21-1.2-2.02-.42,.46-.87,.69-1.54,.78-.32,.05-.56,.05-.66,0-.12-.07-.23-.28-.23-.43l.11-.14s.02,0,.12,0c.74,.04,1.46-.24,1.89-.71,.09-.11,.18-.11,.32-.03,.15,.09,.2,.15,.36,.47,.49,1.01,1.07,1.86,1.85,2.75Z"/><path class="cls-5" d="M30.8,36.44c.14,.1,.2,.21,.2,.33,0,.14-.08,.2-.2,.13-.03-.02-.07-.04-.17-.13-.41-.33-.75-.66-1.16-1.12-.44,0-1.21-.18-1.46-.32-.11-.07-.2-.22-.2-.35l.11-.11s.04,0,.14,.04c.32,.11,.73,.22,1.01,.25-.26-.35-.51-.73-.73-1.15l-.24-.14c-.08-.05-.14-.16-.14-.28,0-.12,.06-.16,.14-.12l2.32,1.34c.17,.1,.28,.23,.28,.36,0,.21-.33,.39-.81,.44,.25,.26,.62,.58,.92,.81Zm-1.33-1.25h.02c.28,0,.6-.08,.6-.14l-.11-.08-1.18-.68c.19,.31,.4,.61,.66,.91"/><polygon class="cls-5" points="28.56 32.34 29.35 32.79 29.35 33.03 28.56 32.58 28.56 32.34"/><path class="cls-5" d="M27.74,31.04l-1.49-.86s0,0-.01,0c-.09-.05-.15-.18-.15-.3s.07-.19,.16-.13l1.49,.86c.09,.05,.15,.18,.15,.31s-.07,.18-.15,.13Z"/><path class="cls-5" d="M27.54,31.31c.1,.06,.15,.18,.15,.3,0,.13-.07,.19-.15,.13l-1.11-.64c-.09-.05-.16-.19-.16-.32,0-.12,.07-.17,.16-.12l1.11,.64Z"/><path class="cls-5" d="M26.43,31.49l1.11,.64c.1,.06,.15,.18,.15,.3s-.06,.18-.15,.13l-1.11-.64c-.09-.05-.16-.19-.16-.31s.07-.17,.16-.12Z"/><path class="cls-5" d="M27.39,32.88c.23,.13,.35,.33,.35,.61v1.17c0,.27-.13,.33-.35,.2l-.81-.47c-.24-.14-.35-.33-.35-.6v-1.17c0-.28,.12-.34,.35-.21l.81,.47Zm-.04,1.43v-.91s-.11-.19-.11-.19l-.52-.3-.11,.06v.91s.1,.18,.1,.18l.52,.3,.11-.06"/><g class="cls-9"><path class="cls-5" d="M26.44,29.46c-.09-.05-.16-.19-.16-.31,0-.13,.07-.18,.16-.13l1.1,.64c.1,.06,.16,.19,.16,.32,0,.12-.07,.18-.16,.12l-1.1-.64Z"/><path class="cls-5" d="M28.17,32.02c-.17,.13-.2,.14-.28,.1-.1-.06-.19-.2-.19-.32l.09-.13c.24-.14,.42-.32,.59-.6l.17-.04,.1,.08v-.04s0-.16,0-.16l-.63-.37c-.1-.06-.16-.18-.16-.3s.07-.17,.16-.11l.63,.37v-.21c0-.11,.08-.15,.2-.08,.11,.07,.19,.2,.19,.31v.21s.73,.42,.73,.42v-.21c0-.11,.09-.14,.2-.08s.19,.2,.19,.31v.21s.63,.37,.63,.37c.09,.05,.16,.18,.16,.3s-.07,.16-.16,.11l-.63-.37v.15c0,.11-.08,.14-.2,.07l-.12-.1,.02,.07s0,.06-.08,.16l.98,.57c.06,.04,.12,.14,.12,.24s-.05,.13-.12,.09l-1.04-.6v.25s.87,.51,.87,.51l.12,.23-.12,.09-.88-.51v.24s.88,.51,.88,.51l.12,.23-.12,.09-.88-.51v.26s1.08,.62,1.08,.62c.06,.04,.12,.14,.12,.25,0,.09-.06,.13-.12,.09l-2.29-1.32c-.22-.13-.34-.33-.34-.58v-.87Zm.57-.69s-.02,.08-.07,.17l.72,.42c.06-.09,.08-.13,.11-.2l.15-.04,.13,.12-.02-.08v-.15s-.73-.42-.73-.42v.16c0,.11-.08,.14-.2,.07l-.11-.08v.04m-.18,1.56v.15s.1,.17,.1,.17l.69,.4v-.26s-.79-.45-.79-.45m0-1.01v.13s.79,.45,.79,.45v-.25s-.69-.4-.69-.4l-.1,.06"/></g></g></g><polygon class="cls-18" points="43.08 26.34 43.68 28.81 45.6 29.92 45.6 29.94 44.05 30.35 44.65 32.83 43.06 30.61 41.48 31.01 41.46 30.99 42.08 29.21 40.53 27.01 40.53 26.99 42.45 28.1 43.06 26.33 43.08 26.34"/><polygon class="cls-18" points="27.08 7.21 27.68 9.68 29.6 10.79 29.6 10.81 28.05 11.21 28.65 13.7 27.06 11.47 25.48 11.88 25.46 11.86 26.08 10.08 24.52 7.88 24.52 7.86 26.45 8.97 27.06 7.2 27.08 7.21"/></g></g></svg>