<?xml version="1.0" encoding="UTF-8"?><svg id="_レイヤー_2" xmlns="http://www.w3.org/2000/svg" xmlns:xlink="http://www.w3.org/1999/xlink" viewBox="0 0 48.7844 95.85295"><defs><style>.cls-1{fill:#3f7c9f;}.cls-2{fill:#82b373;}.cls-3{fill:#e17c00;}.cls-4{fill:#fbfbfd;}.cls-5{fill:#d5bb95;}.cls-6{isolation:isolate;}.cls-7{fill:#d8d8e1;}.cls-8{fill:#cdaf84;}.cls-9{fill:#00a3e1;}.cls-10{fill:#cccbd4;}.cls-11{fill:#af8f6b;}.cls-12{fill:#b8ac9b;}.cls-13{fill:#b6b6be;}.cls-14{fill:#7fcaf1;}.cls-15{fill:url(#_名称未設定グラデーション_78);}.cls-16{fill:#dddde6;}.cls-17{fill:#d3d3dc;}.cls-18{fill:#5199c4;}.cls-19{fill:#5daddd;}.cls-20{fill:#c5c8cc;}.cls-21{fill:#e7e6ef;}.cls-22{fill:#bebdc5;}.cls-23{fill:#5f8467;}.cls-24{fill:#c1c1c9;}</style><linearGradient id="_名称未設定グラデーション_78" x1="23.89178" y1="48.41242" x2="23.89178" y2="119.74252" gradientUnits="userSpaceOnUse"><stop offset="0" stop-color="#949494"/><stop offset="1" stop-color="#000"/></linearGradient></defs><g id="_レイヤー_1-2"><g><g><path class="cls-15" d="M25.36272,94.73758c.00075-.02183,.00087-.04333,0-.06522V53.07605h-2.94056v41.56712c-.0025,.03933-.00266,.07808,0,.11741v.00929h.00119c.0212,.27154,.15993,.53891,.42737,.74646,.57833,.44883,1.51245,.44883,2.08705,0,.2657-.20755,.4022-.47492,.4211-.74646h.00385v-.03229Z"/><ellipse class="cls-14" cx="24.39695" cy="37.94094" rx="14.12544" ry="24.38668" transform="translate(-13.613 62.23023) rotate(-89.83757)"/></g><g><path class="cls-15" d="M25.36272,94.73758c.00075-.02183,.00087-.04333,0-.06522V53.07605h-2.94056v41.56712c-.0025,.03933-.00266,.07808,0,.11741v.00929h.00119c.0212,.27154,.15993,.53891,.42737,.74646,.57833,.44883,1.51245,.44883,2.08705,0,.2657-.20755,.4022-.47492,.4211-.74646h.00385v-.03229Z"/><path class="cls-9" d="M48.78436,38.01004l-.01197,4.22008c-.01018,3.59224-2.37186,7.17874-7.08735,9.91909-9.49029,5.51516-24.92869,5.51904-34.48767,.00017C2.39047,49.37411-.01028,45.72997,.00003,42.0914l.01195-4.22007c-.0103,3.63857,2.39045,7.28271,7.19735,10.05798,9.55898,5.51888,24.99737,5.51499,34.48767-.00017,4.71549-2.74034,7.07718-6.32685,7.08736-9.91909Z"/></g><g class="cls-6"><polygon class="cls-21" points="27.23345 31.09585 27.24548 49.55336 4.35178 36.13491 4.41269 17.92701 27.23345 31.09585"/><polygon class="cls-16" points="27.23345 31.09585 45.5504 20.64275 45.56242 39.10026 27.24548 49.55336 27.23345 31.09585"/><polygon class="cls-12" points="4.41269 17.92701 22.65413 8.1486 45.5504 20.64275 27.23345 31.09585 4.41269 17.92701"/></g><g class="cls-6"><polygon class="cls-8" points="27.10248 29.90384 27.11505 33.74749 3.17886 19.718 3.24253 16.13534 27.10248 29.90384"/><polygon class="cls-11" points="27.10248 29.90384 46.25352 18.97474 46.26609 22.81839 27.11505 33.74749 27.10248 29.90384"/><polygon class="cls-5" points="3.24253 16.13534 22.31463 5.91166 46.25352 18.97474 27.10248 29.90384 3.24253 16.13534"/></g><polygon class="cls-19" points="27.28697 35.28027 27.28571 37.80882 15.23373 30.48064 15.23499 27.95209 27.28697 35.28027"/><polygon class="cls-19" points="27.28697 38.94653 27.28571 41.47508 15.23373 34.1469 15.23499 31.61835 27.28697 38.94653"/><polygon class="cls-18" points="27.19149 35.28027 27.19274 37.80882 39.24473 30.48064 39.24347 28.3686 27.19149 35.28027"/><polygon class="cls-18" points="27.19149 38.94653 27.19274 41.47508 39.24473 34.1469 39.24347 31.61835 27.19149 38.94653"/><g class="cls-6"><polygon class="cls-7" points="26.62731 37.42202 26.63466 39.66872 14.23841 32.24241 14.27563 30.14827 26.62731 37.42202"/><polygon class="cls-10" points="26.62731 37.42202 27.42485 36.90862 27.4322 39.15532 26.63466 39.66872 26.62731 37.42202"/><polygon class="cls-10" points="14.27563 30.14827 15.12818 29.68748 27.41424 36.92628 26.62731 37.42202 14.27563 30.14827"/></g><g class="cls-6"><polygon class="cls-7" points="26.62731 41.87034 26.63466 44.11704 14.23841 36.69074 14.27563 34.59659 26.62731 41.87034"/><polygon class="cls-10" points="26.62731 41.87034 27.42485 41.35695 27.4322 43.60364 26.63466 44.11704 26.62731 41.87034"/><polygon class="cls-10" points="14.27563 34.59659 15.12818 34.13581 27.41424 41.37461 26.62731 41.87034 14.27563 34.59659"/></g><g class="cls-6"><polygon class="cls-24" points="27.41274 37.9352 27.40539 40.18189 41.39662 31.98135 41.3594 29.88721 27.41274 37.9352"/><polygon class="cls-7" points="27.41274 37.9352 26.61519 37.4218 26.60785 39.6685 27.40539 40.18189 27.41274 37.9352"/><polygon class="cls-10" points="41.3594 29.88721 40.50686 29.42642 26.62581 37.43946 27.41274 37.9352 41.3594 29.88721"/></g><g class="cls-6"><polygon class="cls-24" points="27.41274 42.38352 27.40539 44.63022 41.39662 36.42968 41.3594 34.33553 27.41274 42.38352"/><polygon class="cls-7" points="27.41274 42.38352 26.61519 41.87013 26.60785 44.11682 27.40539 44.63022 27.41274 42.38352"/><polygon class="cls-10" points="41.3594 34.33553 40.50686 33.87474 26.62581 41.88778 27.41274 42.38352 41.3594 34.33553"/></g><polygon class="cls-19" points="8.80176 25.33736 8.80017 29.44244 7.30994 28.60056 7.31153 24.49548 8.80176 25.33736"/><polygon class="cls-19" points="11.68864 26.93084 11.68705 31.03591 10.19682 30.19403 10.19841 26.08896 11.68864 26.93084"/><polygon class="cls-1" points="24.70873 43.92247 24.68108 48.18968 20.6121 45.78641 20.61421 41.54475 24.70873 43.92247"/><polygon class="cls-1" points="20.7286 41.61199 20.72649 45.85366 17.21568 43.81349 17.21779 39.60463 20.7286 41.61199"/><g><polygon class="cls-17" points="22.21658 45.36085 22.20385 49.74753 21.53107 49.3532 21.5438 44.96652 22.21658 45.36085"/><polygon class="cls-22" points="22.21658 45.36085 22.88123 44.96873 22.8685 49.35541 22.20385 49.74753 22.21658 45.36085"/><g class="cls-6"><polygon class="cls-17" points="15.50035 41.43123 15.48762 45.81716 14.81484 45.42283 14.82757 41.0369 15.50035 41.43123"/><polygon class="cls-22" points="15.50035 41.43123 16.165 41.03911 16.15227 45.42504 15.48762 45.81716 15.50035 41.43123"/></g><g class="cls-6"><polygon class="cls-17" points="22.20277 45.54815 22.20034 46.08426 14.57764 41.61645 14.58007 41.08033 22.20277 45.54815"/><polygon class="cls-22" points="22.20277 45.54815 24.94194 43.93214 24.93951 44.46825 22.20034 46.08426 22.20277 45.54815"/><polygon class="cls-10" points="14.58007 41.08033 17.31924 39.46432 24.94194 43.93214 22.20277 45.54815 14.58007 41.08033"/></g></g><g class="cls-6"><polygon class="cls-4" points="35.11453 17.01416 35.08928 28.0668 8.1618 12.32595 8.18704 1.27331 35.11453 17.01416"/><polygon class="cls-20" points="35.11453 17.01416 37.27281 15.74085 37.24757 26.79349 35.08928 28.0668 35.11453 17.01416"/><polygon class="cls-20" points="8.18704 1.27331 10.34533 0 37.27281 15.74085 35.11453 17.01416 8.18704 1.27331"/></g><g><path class="cls-3" d="M12.26435,9.39171c.10997,.06445,.2198,.1953,.21942,.33243l-.00112,.40255,1.39928,.82014c.12133,.07112,.17414,.21728,.17382,.33229-.00032,.11502-.05377,.19889-.17511,.12777l-1.39928-.82014-.00204,.72991,.89872,.52676c.22755,.13337,.35978,.37925,.35916,.60043-.00064,.23003-.26411,.72696-.93298,.85777,.32951,.33492,.70845,.65893,1.17849,.99647,.11374,.07995,.159,.19953,.1587,.3057-.00038,.13714-.08423,.23864-.20181,.16973l-.01517-.00889c-.64819-.46854-1.16731-.92346-1.59891-1.42899-.46336-.01902-1.04402-.18655-1.74958-.51591l-.02279-.01336c-.12514-.07335-.20058-.2505-.20024-.37436,.00028-.10174,.04984-.17461,.17121-.11676,.53873,.24043,.9827,.39431,1.36238,.45291-.32917-.47208-.82797-1.39806-.82755-1.54847,.00032-.11502,.13333-.13011,.25086-.06122,.05308,.03111,.10992,.08215,.14773,.15748,.27568,.56923,.55164,1.04114,.89606,1.47785,.61925-.03583,.90155-.46854,.90168-.5172l-.0492-.07315-2.46109-1.4425c-.11377-.06668-.17034-.21505-.17002-.33006,.00033-.11944,.05753-.19669,.1713-.13001l1.29312,.75792,.00204-.72991-1.40308-.82238c-.11377-.06668-.17034-.21504-.17002-.33006,.00032-.11501,.05753-.19669,.1713-.13001l1.40308,.82238,.00112-.40255c.00038-.13713,.11054-.13904,.2205-.07458Z"/><path class="cls-3" d="M15.78081,6.77931c.09485,.05559,.19703,.17751,.19664,.31465l-.00127,.45564,.56549,.17636c.03793,.01337,.06829,.02673,.09864,.04452,.16685,.0978,.25368,.27718,.25301,.51607l-.00397,1.42c-.00128,.46006-.12298,.51724-.36945,.37277-.08723-.05113-.19336-.12663-.31467-.22432-.10611-.07992-.15512-.22384-.15482-.33001,.00028-.10174,.04991-.179,.1447-.12344l.0417,.02887c.0758,.06658,.12504,.10873,.16675,.13318,.0986,.05779,.1026-.01076,.1031-.1877l.00321-1.15015-.03025-.05317-.50475-.15849-.0056,2.00392c-.00037,.13271-.10292,.1435-.19777,.08791-.10235-.05999-.20456-.19079-.20419-.3235l.00527-1.88891-.48195-.14955-.00608,2.17645c-.00059,.21233,.08627,.37845,.34416,.52961l.66361,.38895c.36025,.21115,.45512,.25789,.52131-.32807,.01565-.16363,.09547-.18775,.18271-.13662,.10616,.06222,.2196,.24835,.21909,.42972l-.00395,.05085c-.12392,.85344-.38187,.74212-.74973,.52651l-.92906-.54454c-.45129-.26451-.66294-.64556-.66163-1.11447l.00589-2.11009-.07588-.02232-.03416-.01559-.03409-.02441,.00361,.05529c-.0003,.10617-.05369,.18565-.17121,.11676l-.25409-.14893-.00392,1.4023c.10248,.01576,.18226,.02264,.24299,.02722l.09493,.02462c.08718,.0511,.12862,.17287,.12831,.28346-.00026,.09289-.03463,.17023-.09544,.17447-.37222-.00105-.97593-.08904-1.05555-.13571-.11758-.06892-.18924-.25271-.18887-.38543,.00027-.09732,.03849-.16797,.13336-.13895,.13282,.03354,.25053,.05822,.36061,.08286l.00435-1.55713-.24272-.14226c-.11372-.06665-.17409-.21724-.1738-.32341,.00032-.11501,.06131-.18561,.17503-.11895l.24272,.14226,.00292-1.04399c.00038-.13713,.09916-.14127,.19014-.08794,.0986,.05779,.18947,.17309,.18908,.31022l-.00292,1.04399,.25409,.14893,.05306,.03995-.00361-.07301c.00028-.10174,.03848-.18127,.14476-.14556l.11761,.03793,.00145-.51757c.00044-.15925,.09924-.17224,.20165-.11222,.10616,.06222,.21216,.19968,.21173,.35451l-.00114,.40698,.48195,.14955,.00157-.5618c.00038-.13714,.10296-.13904,.20532-.07905Z"/><path class="cls-3" d="M18.04771,16.76041c.1023,.08211,.14377,.19061,.14354,.27466-.00035,.12387-.08415,.20767-.19411,.14322-.04929-.02889-.43954-.37726-.78025-.79407-.25828,.00371-.5544-.05466-.94518-.22166l-.02273-.01332c-.10996-.06445-.19307-.24608-.19272-.36995,.00026-.09289,.04601-.15026,.15602-.09909,.25801,.11134,.49323,.2049,.66784,.23636-.22687-.35453-.42714-.73333-.55154-1.07211-.11869,.34694-.30188,.65607-.59113,.84989-.04187,.03307-.0874,.02409-.13672-.00482-.11378-.06669-.21578-.25054-.21539-.38766,.00014-.04865,.01164-.09067,.04968-.11711,.40724-.28859,.58319-.7349,.65283-1.17706l-.34512-.20228-.05687-.04219c-.01551,.12828-.02313,.12824-.39901,.0763l-.0034,1.2165c-.00093,.33178-.081,.44435-.38441,.26652-.40195-.23559-.46608-.3928-.46566-.5432,.00033-.11945,.06134-.19446,.17506-.12781l.03415,.02444c.08338,.06215,.14406,.10659,.18196,.12881,.05688,.03334,.06832,.01346,.06854-.06617l.00272-.97321q-.25432-.06045-.28844-.08044c-.11376-.06668-.19679-.26156-.19643-.38985,.00023-.08405,.03835-.13703,.12565-.10801,.12903,.0446,.24667,.0781,.36054,.10498l.00289-1.03514-.25027-.14669c-.11378-.06669-.17036-.21064-.17006-.32123s.05751-.18783,.17129-.12114l.25027,.14669,.00189-.67682c.00038-.13714,.09537-.14793,.19778-.08791,.09478,.05555,.1932,.1797,.19282,.31685l-.00189,.67682,.2389,.14003c.11753,.06889,.17412,.21282,.17381,.32341s-.05751,.18785-.17505,.11896l-.2389-.14003-.00248,.88916c.05314,.00897,.12147,.02246,.17464,.0226l.06836,.02234,.04168,.03329c.01538-.08403,.06873-.13252,.17109-.07252l.38683,.22673c.00786-.10174,.01193-.18797,.0122-.28528l-.27682-.16225c-.11378-.06669-.17419-.20401-.17392-.30134s.06125-.15906,.17502-.09237l.21232,.12444-.04908-.09523c-.04527-.11958-.1132-.2746-.17359-.41634l-.03381-.13058c.00017-.06193,.03067-.09281,.07249-.10816l-.13275-.07781c-.0948-.05556-.15892-.20836-.1586-.32337,.00028-.10175,.04981-.16576,.17115-.09464l.11378,.06669c.94428,.55346,1.79781,.93852,2.03304,1.02766l.02278,.01335c.11378,.06669,.21199,.26605,.21164,.38991-.00041,.14596-.11044,.10363-.23567,.04353,.0606,.07097,.11731,.16625,.11708,.25028-.00033,.11945-.23284,.41296-.26333,.44827l.17441,.10223c.11758,.06892,.17039,.19734,.17011,.29466s-.05363,.16797-.17121,.09905l-1.40689-.8246c-.00027,.09731-.00808,.18135-.01974,.28085l1.50549,.8824c.11753,.06889,.17031,.20616,.17002,.31235-.00028,.10173-.05367,.18121-.1712,.11232l-1.551-.90908c-.01163,.08625-.02708,.1791-.04635,.26528l1.36137,.79793c.14031,.08224,.23859,.25948,.23812,.42758-.00036,.12829-.14555,.4464-.45748,.60475,.13634,.14194,.30687,.2862,.4774,.43047Zm-.34681-3.67269c-.19727-.09347-.459-.21585-.75861-.3693,.06424,.10854,.23013,.5514,.22987,.64429-.0002,.07077-.03446,.1083-.08008,.12144l.27682,.16225c.13334-.15668,.24037-.38639,.29005-.5035l.04195-.05517m-1.40138-.06811l.5688,.33339-.0453-.10189c-.05269-.16823-.11674-.352-.16202-.46272l-.02627-.11286,.0458-.0928c-.17444-.09339-.36028-.19789-.54609-.30235,.0681,.09752,.24917,.54483,.24894,.62888-.00019,.06635-.03449,.10383-.08386,.11035m.91493,2.8935c.14822-.03717,.28517-.12085,.38819-.2776l.00385-.01547-.03407-.04655-.83428-.48899c.11321,.27018,.29083,.58698,.47631,.82861"/><path class="cls-3" d="M18.48334,11.54914c-.00022,.07963-.01942,.14814-.0688,.15908-.28887,.05665-.8887-.05564-.94559-.08898-.12134-.07112-.19676-.2527-.1964-.38098,.00026-.09289,.0384-.15472,.13325-.11686,.09483,.03786,.20872,.06473,.28089,.07159l.00425-1.52177-.24273-.14227c-.08342-.04889-.12858-.19056-.12828-.29673,.00032-.11501,.0461-.19452,.12952-.14562l.24273,.14227,.00292-1.044c.00038-.13712,.09915-.14127,.19395-.08571s.18946,.17308,.18908,.31021l-.00292,1.044,.19715,.11555c.08724,.05113,.12865,.18175,.12833,.29675-.0003,.10617-.04233,.19673-.12957,.1456l-.19715-.11555-.00376,1.34481c.06453,.01124,.15565,.01591,.18605,.01158l.0987,.0224c.08724,.05113,.12868,.17289,.12839,.27464Z"/><path class="cls-3" d="M18.70364,11.54533c-.16305-.09557-.28417-.2596-.28364-.44982l.00362-1.29615c.00053-.19022,.08048-.24083,.24353-.14526l.83428,.48899c.1631,.09559,.24244,.23957,.24191,.42978l-.00361,1.29171c-.00053,.19022-.08042,.24088-.24351,.14529l-.79257-.46454Zm.09868-1.33348l-.00252,.90244,.04915,.09084,.46265,.27117,.04946-.03305,.00252-.90244-.04913-.08638-.46265-.27117-.04948,.02859"/><path class="cls-3" d="M20.87304,12.71053c.10239,.06002,.20077,.20186,.20033,.35668l-.00004,.01328c-.01653,.47771-.09439,1.16762-.46226,.952-.21617-.1267-.37452-.53854-.47937-1.07411-.28926,.19824-.76448,.34949-.90855,.26505-.12139-.07115-.22342-.25059-.22307-.37446,.0002-.07077,.0345-.11713,.11048-.1169,.23172-.01041,.44838-.06066,.61568-.12211-.32282-.01641-.85427-.12852-1.34764-.28918l-.03411-.01557c-.10241-.06002-.1703-.22831-.16997-.34776,.00027-.09733,.04222-.15693,.14088-.12124,.45531,.16938,.95636,.28583,1.28678,.3111l.05313,.01786c.08342,.04889,.1362,.1906,.13587,.31004-.00015,.05307-.01548,.09727-.03834,.12818,.09891-.05279,.20171-.14764,.2855-.23145-.0891-.72573-.12475-1.5619-.13427-2.24542l-1.39552-.81794c-.11373-.06666-.17409-.21725-.1738-.32342,.00032-.11501,.0613-.18561,.17503-.11895l1.38415,.81128,.00077-.27427c.00042-.1504,.09922-.16338,.19027-.11002,.09859,.05779,.18939,.18189,.18897,.33229l-.00077,.27427,.26544,.15558-.04521-.13726-.0225-.09737c.0003-.10617,.10297-.13905,.19395-.08573,.05309,.03112,.1061,.08434,.14004,.17957,.18851,.49598,.27108,.85454,.27091,.91648-.00035,.12387-.11433,.1501-.20917,.09451-.06065-.03555-.10987-.09985-.13241-.18395-.01124-.0509-.02253-.10182-.03755-.1505l-.41719-.24452c.01358,.57955,.0273,1.106,.06403,1.5662,.10307-.19216,.19489-.41748,.27918-.68267,.02681-.08177,.09138-.08379,.15962-.04379,.09861,.05779,.20831,.21071,.20799,.32572-.0001,.0354-.15388,.69853-.56164,1.17732,.05578,.42705,.1234,.6971,.18409,.73267,.08724,.05113,.07325-.38243,.09287-.61907,.00798-.12824,.08775-.1391,.16738-.09242Z"/><path class="cls-3" d="M19.47306,13.68778c.10997,.06445,.21974,.19969,.21935,.33682l-.0019,.68125,1.75236,.90303,.04552,.02668c.29199,.17114,.462,.48791,.46123,.76217-.00088,.31408-.29088,.79544-.98628,.90628-.04561,.00428-.09118-.0047-.13664-.03135-.13275-.07781-.23853-.27717-.23814-.41872,.0002-.07078,.03077-.13262,.11434-.13681,.55086-.04489,.76463-.4203,.76485-.49992,.00017-.06193-.0376-.13281-.09829-.16839l-1.68033-.85194-.00471,1.68542c-.00147,.52642,.26372,.7749,.99944,1.20612,.51193,.30005,.8951,.45817,1.32013,.60538l.05309,.02669c.13651,.08001,.21199,.26161,.21162,.39432-.00035,.12386-.06137,.20773-.19034,.15872-.40601-.14935-.7437-.28525-1.39594-.66754-1.03908-.60903-1.4404-1.07465-1.43823-1.85322l.00497-1.77832-.59172-.30251-.01512-.00886c-.11758-.06892-.18166-.2394-.1813-.36769,.00033-.11944,.05372-.19892,.16751-.13666l.62202,.32027,.00199-.71221c.00038-.13713,.11055-.14345,.22051-.079Z"/><path class="cls-3" d="M22.31095,10.60233c.11377,.06668,.23482,.23955,.23445,.37225l-.01925,.0862,1.94922,1.14247c.28438,.16668,.43181,.43033,.43075,.81076-.00535,1.91545-.05608,2.39084-.69696,2.01521-.21993-.12891-.42846-.26442-.42766-.55196,.00032-.11501,.05752-.19227,.18266-.11892l.02654,.01556c.06066,.04885,.10992,.08215,.15163,.1066,.30717,.18004,.34207-.06979,.34652-1.66232,.00021-.0752-.02246-.12837-.07554-.15948l-2.12363-1.2447c-.08761,.10373-.18663,.19634-.29319,.25795l1.52447,.89352c.20095,.11778,.30303,.29724,.30237,.5317l-.00257,.92012c-.00065,.23446-.10338,.28945-.30434,.17166l-1.45997-.85572-.0533,.03079-.00128,.46006c-.001,.35831,.19237,.49824,1.23521,1.10946l.53847,.31561c.80773,.47343,.85338,.45145,.94989-.10788,.01937-.13044,.09536-.14793,.17503-.10123,.10616,.06222,.21965,.23065,.21927,.36778l-.00389,.02874c-.15843,.9617-.29886,.9237-1.51611,.21024l-.37542-.22004c-1.27419-.74683-1.64557-1.04868-1.64358-1.7609l.00227-.81396c.00053-.19021,.09179-.23421,.25484-.13864l1.49793,.87797c.04171,.02445,.06451,.01566,.06465-.033l.00138-.49546c.00014-.04866-.02252-.08853-.06424-.11298l-1.38035-.80905c-.0986-.05779-.15515-.21057-.16234-.34772l-.11028,.04614c-.04184,.01979-.0912,.00415-.13291-.0203-.12133-.07112-.22334-.2727-.22297-.40541,.00014-.04866,.01925-.0862,.05727-.1038,.34221-.11845,.58213-.35888,.75397-.6791,.0344-.06846,.09896-.0705,.17102-.02826Z"/><path class="cls-3" d="M25.98138,18.51269c.12514,.07335,.24627,.23739,.24583,.39663l-.00783,.07517c-.33779,1.26864-1.41426,1.81634-3.18604,1.07474l-.04928-.02446c-.15929-.09336-.25366-.30375-.25325-.44973,.00032-.11501,.06128-.19449,.18273-.14546,1.62773,.63059,2.47181,.33218,2.86645-.88542,.03059-.08841,.11417-.09258,.2014-.04146Z"/><path class="cls-3" d="M22.86885,16.40478c-.09471-.10425-.13238-.21051-.13216-.29015,.00041-.14598,.10323-.23194,.24354-.1497,.12132,.07111,.85203,.9159,1.2266,1.44118,.07948,.11306,.11334,.21708,.11313,.29229-.00044,.15926-.12975,.23412-.25489,.16077l-.1023-.09984c-.26106-.3657-.73421-.95319-1.09392-1.35456Z"/><path class="cls-3" d="M26.58303,15.06473c.08724,.05113,.13248,.17514,.13219,.28131-.00053,.19022-.07267,.17894-.41062,.14038l-.00376,1.34479c-.0009,.32292-.08864,.44875-.39956,.26651-.09104-.05336-.20096-.13109-.33739-.24206-.11372-.0888-.16273-.22832-.16243-.33447,.00032-.11503,.06132-.19005,.17509-.12336l.03033,.0222c.10612,.07992,.17433,.13318,.21604,.15763,.07207,.04224,.07596,.01351,.07619-.07054l.00304-1.08822c-.26574-.05386-.2999-.06944-.33024-.08722-.10997-.06446-.19675-.26154-.1964-.38983,.00023-.08405,.03836-.13704,.12941-.10583,.13285,.04241,.26947,.08263,.39856,.10953l.00282-1.00859-.292-.17114c-.10997-.06446-.17035-.21063-.17004-.32122s.0613-.18561,.17127-.12115l.292,.17114,.00164-.58835c.00038-.13714,.1029-.13907,.20151-.08128s.20084,.17973,.20046,.31688l-.00164,.58835,.20856,.12224c.11758,.06892,.17415,.21284,.17384,.32343s-.0575,.18786-.17508,.11894l-.20856-.12224-.00236,.84491c.06833,.00904,.14047,.02032,.20883,.02493l.0683,.0223Z"/><path class="cls-3" d="M28.98817,16.15983l-.8836-.51789-.00167,.59721,.61053,.35784c.20102,.11782,.30308,.29726,.30242,.53172l-.00374,1.34037c-.00067,.23889-.10338,.29388-.3044,.17606l-1.58891-.93129c-.20095-.11778-.30304-.29281-.30237-.53171l.00374-1.34037c.00065-.23445,.1034-.29386,.30435-.17607l.56506,.33119,.00167-.59721-.90257-.52902c-.11373-.06666-.17029-.215-.16999-.32117,.00032-.11503,.0575-.18786,.17123-.1212l.90257,.52902,.00162-.57949c-.23896-.12676-.60303-.33129-.70544-.39132-.11378-.06669-.18541-.24159-.18506-.36546,.00028-.10175,.05362-.16353,.17876-.09018,.876,.50899,1.1681,.64034,1.81692,.90098l.01893,.01109c.11378,.06669,.20812,.28148,.20777,.40535-.00021,.07521-.03449,.12158-.11795,.08596-.29975-.12253-.55394-.23606-.80051-.34955l-.00172,.61487,.8836,.51789c.11753,.06889,.17031,.20616,.16999,.32119-.0003,.10617-.05369,.19007-.17123,.12118Zm-.45038,.77728l-1.24003-.72681c-.04551-.02668-.06456-.01124-.0647,.03741l-.00284,1.01744c-.00014,.04865,.01878,.08189,.06429,.10857l1.24003,.72681c.04173,.02446,.06452,.01566,.06466-.03299l.00284-1.01744c.00014-.04865-.02252-.08854-.06425-.11299"/><path class="cls-3" d="M28.19143,18.74019c.11753,.06889,.24242,.2307,.24201,.37669-.00023,.08404-.08805,.25855-.13003,.33142l1.38791,.81348c.30336,.17781,.49244,.48802,.49144,.84634l-.00399,.06413c-.09568,1.62767-1.14203,2.25504-3.09917,1.25856l-.01517-.00889c-.15549-.09113-.24605-.29487-.24566-.43642,.00032-.11501,.06125-.18121,.18641-.11672,.72067,.37809,1.32045,.50809,1.77648,.4209-.31746-.57156-.79789-1.28295-1.02499-1.55785-.06058-.07539-.0794-.14402-.07923-.20595,.0004-.14155,.10322-.23194,.23592-.15416l.11747,.10873c.23846,.30371,.79459,1.09935,1.10825,1.66868,.35005-.21577,.56012-.62878,.59982-1.23028,.00028-.10174-.0527-.18596-.11334-.22151l-1.56999-.9202c-.35422,.35954-.96253,.55686-1.13319,.45683-.1327-.07778-.23471-.27936-.23433-.41649,.00023-.08405,.03461-.14365,.11437-.14565,.55845-.03159,1.01541-.43283,1.19523-.90345,.03062-.07953,.11036-.0771,.19379-.0282Z"/><path class="cls-3" d="M33.93124,24.01413c.12514,.07335,.1892,.24826,.18883,.38096-.00038,.13714-.0652,.23208-.19034,.15873l-2.89721-1.69811c-.12514-.07335-.19306-.25052-.19269-.38323,.00038-.13713,.06906-.22981,.1942-.15646l2.89721,1.69811Z"/></g><polygon class="cls-10" points="6.2394 37.96099 6.23542 39.28589 3.59385 37.79358 3.59783 36.46868 6.2394 37.96099"/><polygon class="cls-13" points="6.2394 37.96099 7.54973 37.22649 7.54575 38.55139 6.23542 39.28589 6.2394 37.96099"/><polygon class="cls-10" points="9.65976 39.73523 9.65578 41.06013 7.01421 39.56781 7.01819 38.24291 9.65976 39.73523"/><polygon class="cls-13" points="9.65976 39.73523 10.97009 39.00072 10.96611 40.32562 9.65578 41.06013 9.65976 39.73523"/><polygon class="cls-13" points="12.68159 36.88963 12.68054 39.53362 9.19884 37.50428 9.19989 34.86029 12.68159 36.88963"/><polygon class="cls-23" points="12.39966 37.01745 12.39875 39.0448 9.48389 37.37329 9.4848 35.34594 12.39966 37.01745"/><path class="cls-2" d="M7.54743,37.11708c.02805-.06399,.05236-.12936,.06918-.19735-.05426-.01032-.10851-.02063-.16277-.03095,.03909-.03696,.05136-.10088,.02223-.14578s-.10025-.05962-.14154-.02504c.03012-.0975-.11115-.19358-.19404-.13196-.00087-.07014-.00174-.14029-.00261-.21043l-.1704,.00431c.04009-.04872,.01559-.12801-.0377-.16255s-.12374-.03264-.18506-.01495c.02645-.06446,.03183-.1434-.0107-.19901s-.14326-.06591-.18085-.00698l-.05857-.15357c-.0654-.00814-.13252-.0028-.19572,.01556,.03228-.12992-.13027-.26076-.25433-.20472-.02317-.04585-.05374-.08811-.09023-.12474-.05828,.02801-.11363,.06185-.16492,.1008l-.03027-.09062c-.05449,.00176-.10866,.01277-.15936,.0324,.01067-.07014-.01626-.14954-.07944-.18428s-.15941-.00428-.17498,.06498c-.04476-.10401-.13044-.19055-.23526-.23763l-.10602,.16742c-.00629-.06446-.06661-.12335-.13252-.11751s-.1146,.08835-.078,.1423c-.07296-.04691-.15531-.07977-.24099-.09616-.00396,.06031-.00071,.12107,.00965,.18065-.07656-.07645-.19444-.11079-.30127-.08778l-.01143,.13816c-.06926-.04215-.15526-.05714-.23513-.04098,.00835,.06898,.02523,.13696,.05015,.202l-.15238-.0197,.0478,.13345c-.07573-.01238-.15594,.00365-.22066,.04408,.02322,.05049,.06834,.0909,.12178,.10908-.05992-.00764-.11984-.01527-.17975-.02291-.01913-.00244-.03952-.0047-.05693,.00345-.03322,.01555-.03839,.06299-.01998,.0942s.05236,.04991,.08472,.06713c-.06666-.0328-.16286,.01657-.16351,.08957s.11056,.12043,.15875,.06468c-.06688,.05138-.12211,.11722-.16058,.19142,.04755,.01702,.10115,.0173,.14888,.00078-.02672,.04105-.04334,.08834-.04809,.13679,.0558,.00688,.11288,.00366,.1675-.00944-.02502,.06429-.12272,.10215-.10662,.16912,.01706,.07095,.12555,.05197,.19062,.01648-.03385,.0421,.00867,.10966,.0627,.11827s.10631-.02242,.14729-.05794c.02625,.07502-.05959,.1695-.00642,.22935,.04524,.05093,.12928,.00829,.18176-.03548-.00174,.05437-.00347,.10874-.00521,.16311,.06832,.00924,.14066-.01849,.1844-.07068l-.00974,.22243c.06795-.01071,.13462-.02917,.19824-.05488-.04153,.06961-.01996,.17185,.05206,.211s.1796-.00655,.19043-.08646c-.02074,.07087,.02571,.15384,.09792,.17489s.15749-.02353,.17976-.09396c-.00179,.06618-.00357,.13235-.00536,.19853,.06115,.02108,.13646-.01712,.15411-.07817-.00845,.07761,.00039,.15697,.02572,.23098,.05821-.01053,.11388-.03426,.16139-.0688-.0343,.06035,.02452,.14329,.09504,.14587s.13207-.05882,.14438-.12682c-.02675,.09286,.02676,.20117,.11775,.23834,.02088-.04501,.04176-.09001,.06264-.13502,.02493,.05488,.04249,.11296,.05207,.17228,.10188,.00919,.19821-.09087,.18277-.18983-.00911,.04818-.01818,.09825-.0055,.14565s.05376,.09133,.10384,.09121,.09309-.06187,.06371-.10155c.03827,.03999,.07788,.08093,.12868,.10397s.11615,.02415,.1583-.01191,.04339-.11369-.00568-.14007c.04808,.0773,.14242,.1246,.23462,.11764,.0016-.06248-.01085-.12526-.03622-.18262,.041-.00812,.08485-.00168,.12161,.01785-.0043-.04501-.00861-.09002-.01291-.13504,.03106,.05227,.10451,.07937,.15953,.05183s.07264-.11126,.02741-.15245c.03086,.0731,.11809,.12719,.19414,.10041,.07803-.02748,.09138-.13361,.03141-.18287,.04666,.03101,.168,.12685,.23192,.0862,.08104-.05155-.0064-.18214-.0603-.22497-.01715-.01363-.03763-.03799-.02136-.05261,.00521-.00469,.01265-.00593,.01961-.00721,.08746-.01608,.21393-.09013,.21156-.19031-.00175-.07398-.06222-.13276-.13666-.09393Z"/><polygon class="cls-10" points="12.92111 41.66611 12.91713 42.99101 10.27556 41.49869 10.27954 40.17379 12.92111 41.66611"/><polygon class="cls-13" points="12.92111 41.66611 14.23144 40.9316 14.22746 42.2565 12.91713 42.99101 12.92111 41.66611"/><path class="cls-2" d="M14.22914,40.82219c.02805-.06399,.05236-.12936,.06918-.19735-.05426-.01032-.10851-.02063-.16277-.03095,.03909-.03696,.05136-.10088,.02223-.14578s-.10025-.05962-.14154-.02504c.03012-.0975-.11115-.19358-.19404-.13196-.00087-.07014-.00174-.14029-.00261-.21043l-.1704,.00431c.04009-.04872,.01559-.12801-.0377-.16255s-.12374-.03264-.18506-.01495c.02645-.06446,.03183-.1434-.0107-.19901s-.14326-.06591-.18085-.00698l-.05857-.15357c-.0654-.00814-.13252-.0028-.19572,.01556,.03228-.12992-.13027-.26076-.25433-.20472-.02317-.04585-.05374-.08811-.09023-.12474-.05828,.02801-.11363,.06185-.16492,.1008l-.03027-.09062c-.05449,.00176-.10866,.01277-.15936,.0324,.01067-.07014-.01626-.14954-.07944-.18428s-.15941-.00428-.17498,.06498c-.04476-.10401-.13044-.19055-.23526-.23763l-.10602,.16742c-.00629-.06446-.06661-.12335-.13252-.11751s-.1146,.08835-.078,.1423c-.07296-.04691-.15531-.07977-.24099-.09616-.00396,.06031-.00071,.12107,.00965,.18065-.07656-.07645-.19444-.11079-.30127-.08778l-.01143,.13816c-.06926-.04215-.15526-.05714-.23513-.04098,.00835,.06898,.02523,.13696,.05015,.202l-.15238-.0197,.0478,.13345c-.07573-.01238-.15594,.00365-.22066,.04408,.02322,.05049,.06834,.0909,.12178,.10908-.05992-.00764-.11984-.01527-.17975-.02291-.01913-.00244-.03952-.0047-.05693,.00345-.03322,.01555-.03839,.06299-.01998,.0942s.05236,.04991,.08472,.06713c-.06666-.0328-.16286,.01657-.16351,.08957s.11056,.12043,.15875,.06468c-.06688,.05138-.12211,.11722-.16058,.19142,.04755,.01702,.10115,.0173,.14888,.00078-.02672,.04105-.04334,.08834-.04809,.13679,.0558,.00688,.11288,.00366,.1675-.00944-.02502,.06429-.12272,.10215-.10662,.16912,.01706,.07095,.12555,.05197,.19062,.01648-.03385,.0421,.00867,.10966,.0627,.11827s.10631-.02242,.14729-.05794c.02625,.07502-.05959,.1695-.00642,.22935,.04524,.05093,.12928,.00829,.18176-.03548-.00174,.05437-.00347,.10874-.00521,.16311,.06832,.00924,.14066-.01849,.1844-.07068l-.00974,.22243c.06795-.01071,.13462-.02917,.19824-.05488-.04153,.06961-.01996,.17185,.05206,.211s.1796-.00655,.19043-.08646c-.02074,.07087,.02571,.15384,.09792,.17489s.15749-.02353,.17976-.09396c-.00179,.06618-.00357,.13235-.00536,.19853,.06115,.02108,.13646-.01712,.15411-.07817-.00845,.07761,.00039,.15697,.02572,.23098,.05821-.01053,.11388-.03426,.16139-.0688-.0343,.06035,.02452,.14329,.09504,.14587s.13207-.05882,.14438-.12682c-.02675,.09286,.02676,.20117,.11775,.23834,.02088-.04501,.04176-.09001,.06264-.13502,.02493,.05488,.04249,.11296,.05207,.17228,.10188,.00919,.19821-.09087,.18277-.18983-.00911,.04818-.01818,.09825-.0055,.14565s.05376,.09133,.10384,.09121,.09309-.06187,.06371-.10155c.03827,.03999,.07788,.08093,.12868,.10397s.11615,.02415,.1583-.01191,.04339-.11369-.00568-.14007c.04808,.0773,.14242,.1246,.23462,.11764,.0016-.06248-.01085-.12526-.03622-.18262,.041-.00812,.08485-.00168,.12161,.01785-.0043-.04501-.00861-.09002-.01291-.13504,.03106,.05227,.10451,.07937,.15953,.05183s.07264-.11126,.02741-.15245c.03086,.0731,.11809,.12719,.19414,.10041,.07803-.02748,.09138-.13361,.03141-.18287,.04666,.03101,.168,.12685,.23192,.0862,.08104-.05155-.0064-.18214-.0603-.22497-.01715-.01363-.03763-.03799-.02136-.05261,.00521-.00469,.01265-.00593,.01961-.00721,.08746-.01608,.21393-.09013,.21156-.19031-.00175-.07398-.06222-.13276-.13666-.09393Z"/><path class="cls-2" d="M10.96779,38.89132c.02805-.06399,.05236-.12936,.06918-.19735-.05426-.01032-.10851-.02063-.16277-.03095,.03909-.03696,.05136-.10088,.02223-.14578s-.10025-.05962-.14154-.02504c.03012-.0975-.11115-.19358-.19404-.13196-.00087-.07014-.00174-.14029-.00261-.21043l-.1704,.00431c.04009-.04872,.01559-.12801-.0377-.16255s-.12374-.03264-.18506-.01495c.02645-.06446,.03183-.1434-.0107-.19901s-.14326-.06591-.18085-.00698l-.05857-.15357c-.0654-.00814-.13252-.0028-.19572,.01556,.03228-.12992-.13027-.26076-.25433-.20472-.02317-.04585-.05374-.08811-.09023-.12474-.05828,.02801-.11363,.06185-.16492,.1008l-.03027-.09062c-.05449,.00176-.10866,.01277-.15936,.0324,.01067-.07014-.01626-.14954-.07944-.18428s-.15941-.00428-.17498,.06498c-.04476-.10401-.13044-.19055-.23526-.23763l-.10602,.16742c-.00629-.06446-.06661-.12335-.13252-.11751s-.1146,.08835-.078,.1423c-.07296-.04691-.15531-.07977-.24099-.09616-.00396,.06031-.00071,.12107,.00965,.18065-.07656-.07645-.19444-.11079-.30127-.08778l-.01143,.13816c-.06926-.04215-.15526-.05714-.23513-.04098,.00835,.06898,.02523,.13696,.05015,.202l-.15238-.0197,.0478,.13345c-.07573-.01238-.15594,.00365-.22066,.04408,.02322,.05049,.06834,.0909,.12178,.10908-.05992-.00764-.11984-.01527-.17975-.02291-.01913-.00244-.03952-.0047-.05693,.00345-.03322,.01555-.03839,.06299-.01998,.0942s.05236,.04991,.08472,.06713c-.06666-.0328-.16286,.01657-.16351,.08957s.11056,.12043,.15875,.06468c-.06688,.05138-.12211,.11722-.16058,.19142,.04755,.01702,.10115,.0173,.14888,.00078-.02672,.04105-.04334,.08834-.04809,.13679,.0558,.00688,.11288,.00366,.1675-.00944-.02502,.06429-.12272,.10215-.10662,.16912,.01706,.07095,.12555,.05197,.19062,.01648-.03385,.0421,.00867,.10966,.0627,.11827s.10631-.02242,.14729-.05794c.02625,.07502-.05959,.1695-.00642,.22935,.04524,.05093,.12928,.00829,.18176-.03548-.00174,.05437-.00347,.10874-.00521,.16311,.06832,.00924,.14066-.01849,.1844-.07068l-.00974,.22243c.06795-.01071,.13462-.02917,.19824-.05488-.04153,.06961-.01996,.17185,.05206,.211s.1796-.00655,.19043-.08646c-.02074,.07087,.02571,.15384,.09792,.17489s.15749-.02353,.17976-.09396c-.00179,.06618-.00357,.13235-.00536,.19853,.06115,.02108,.13646-.01712,.15411-.07817-.00845,.07761,.00039,.15697,.02572,.23098,.05821-.01053,.11388-.03426,.16139-.0688-.0343,.06035,.02452,.14329,.09504,.14587s.13207-.05882,.14438-.12682c-.02675,.09286,.02676,.20117,.11775,.23834,.02088-.04501,.04176-.09001,.06264-.13502,.02493,.05488,.04249,.11296,.05207,.17228,.10188,.00919,.19821-.09087,.18277-.18983-.00911,.04818-.01818,.09825-.0055,.14565s.05376,.09133,.10384,.09121,.09309-.06187,.06371-.10155c.03827,.03999,.07788,.08093,.12868,.10397s.11615,.02415,.1583-.01191,.04339-.11369-.00568-.14007c.04808,.0773,.14242,.1246,.23462,.11764,.0016-.06248-.01085-.12526-.03622-.18262,.041-.00812,.08485-.00168,.12161,.01785-.0043-.04501-.00861-.09002-.01291-.13504,.03106,.05227,.10451,.07937,.15953,.05183s.07264-.11126,.02741-.15245c.03086,.0731,.11809,.12719,.19414,.10041,.07803-.02748,.09138-.13361,.03141-.18287,.04666,.03101,.168,.12685,.23192,.0862,.08104-.05155-.0064-.18214-.0603-.22497-.01715-.01363-.03763-.03799-.02136-.05261,.00521-.00469,.01265-.00593,.01961-.00721,.08746-.01608,.21393-.09013,.21156-.19031-.00175-.07398-.06222-.13276-.13666-.09393Z"/></g></g></svg>