<?xml version="1.0" encoding="UTF-8"?><svg id="_レイヤー_2" xmlns="http://www.w3.org/2000/svg" xmlns:xlink="http://www.w3.org/1999/xlink" viewBox="0 0 49.76383 104.66428"><defs><style>.cls-1{stroke-width:1.33013px;}.cls-1,.cls-2,.cls-3{fill:none;stroke-linecap:round;stroke-linejoin:round;}.cls-1,.cls-3{stroke:#5f402d;}.cls-4{fill:#476998;}.cls-5{fill:#fff;}.cls-6{fill:#8c5a2c;}.cls-7{fill:#b29b92;}.cls-8{fill:#fbfbfd;}.cls-9{isolation:isolate;}.cls-10{fill:#c24669;}.cls-11{fill:#f4f7f9;}.cls-12{clip-path:url(#clippath-1);}.cls-2{stroke:#482d1b;stroke-width:1.21773px;}.cls-13{fill:url(#_名称未設定グラデーション_78);}.cls-14{fill:#b2b5b8;}.cls-15{fill:#e7e6f0;}.cls-16{fill:#c6c7c5;}.cls-17{clip-path:url(#clippath);}.cls-18{fill:#617fae;}.cls-3{stroke-width:.58578px;}.cls-19{fill:#d3daeb;}.cls-20{fill:#5daddd;}.cls-21{fill:#c5c8cc;}.cls-22{fill:#1e86c5;}.cls-23{fill:#6e88b4;}</style><linearGradient id="_名称未設定グラデーション_78" x1="23.89178" y1="57.22374" x2="23.89178" y2="128.55385" gradientUnits="userSpaceOnUse"><stop offset="0" stop-color="#949494"/><stop offset="1" stop-color="#000"/></linearGradient><clipPath id="clippath"><path class="cls-4" d="M48.78436,46.82137l-.01197,4.22008c-.01018,3.59224-2.37186,7.17874-7.08735,9.91909-9.49029,5.51516-24.92869,5.51904-34.48767,.00017C2.39047,58.18544-.01028,54.5413,.00003,50.90273l.01195-4.22007c-.0103,3.63857,2.39045,7.28271,7.19735,10.05798,9.55898,5.51888,24.99737,5.51499,34.48767-.00017,4.71549-2.74034,7.07718-6.32685,7.08736-9.91909Z"/></clipPath><clipPath id="clippath-1"><path class="cls-4" d="M48.78436,46.82137l-.01197,4.22008c-.01018,3.59224-2.37186,7.17874-7.08735,9.91909-9.49029,5.51516-24.92869,5.51904-34.48767,.00017C2.39047,58.18544-.01028,54.5413,.00003,50.90273l.01195-4.22007c-.0103,3.63857,2.39045,7.28271,7.19735,10.05798,9.55898,5.51888,24.99737,5.51499,34.48767-.00017,4.71549-2.74034,7.07718-6.32685,7.08736-9.91909Z"/></clipPath></defs><g id="_レイヤー_1-2"><g><g><path class="cls-13" d="M25.36272,103.54891c.00075-.02183,.00087-.04333,0-.06522V61.88738h-2.94056v41.56712c-.0025,.03933-.00266,.07808,0,.11741v.00929h.00119c.0212,.27154,.15993,.53891,.42737,.74646,.57833,.44883,1.51245,.44883,2.08705,0,.2657-.20755,.4022-.47492,.4211-.74646h.00385v-.03229Z"/><g><path class="cls-4" d="M48.78436,46.82137l-.01197,4.22008c-.01018,3.59224-2.37186,7.17874-7.08735,9.91909-9.49029,5.51516-24.92869,5.51904-34.48767,.00017C2.39047,58.18544-.01028,54.5413,.00003,50.90273l.01195-4.22007c-.0103,3.63857,2.39045,7.28271,7.19735,10.05798,9.55898,5.51888,24.99737,5.51499,34.48767-.00017,4.71549-2.74034,7.07718-6.32685,7.08736-9.91909Z"/><g class="cls-17"><g class="cls-9"><path class="cls-4" d="M48.78436,46.82137l-.01196,4.22008c-.0002,.0714-.00133,.1428-.00339,.2142l.01196-4.22008c.00206-.07139,.00319-.14279,.00339-.2142"/><path class="cls-4" d="M48.78097,47.03557l-.01196,4.22008c-.01349,.46732-.06679,.93425-.1599,1.39896l.01196-4.22008c.09311-.46471,.14641-.93164,.1599-1.39896"/><path class="cls-4" d="M48.62107,48.43452l-.01196,4.22008c-.09225,.4604-.22357,.91861-.39399,1.37282l.01196-4.22008c.17041-.45422,.30174-.91243,.39399-1.37282"/><path class="cls-4" d="M48.22709,49.80735l-.01196,4.22008c-.17521,.467-.39173,.92978-.64957,1.38639l.01196-4.22008c.25784-.45661,.47436-.91939,.64957-1.38639"/><path class="cls-4" d="M47.57751,51.19374l-.01196,4.22008c-.27884,.4938-.60601,.98038-.98152,1.45726l.01196-4.22008c.3755-.47688,.70267-.96346,.98152-1.45726"/><path class="cls-4" d="M46.596,52.651l-.01196,4.22008c-.43834,.55669-.94255,1.10017-1.51263,1.6265l.01196-4.22008c.57008-.52633,1.07429-1.06981,1.51263-1.6265"/><path class="cls-4" d="M45.08337,54.27751l-.01196,4.22008c-.87454,.80742-1.9041,1.57449-3.08872,2.28699l.01196-4.22008c1.18462-.7125,2.21419-1.47957,3.08872-2.28699"/><path class="cls-4" d="M41.99464,56.5645l-.01196,4.22008c-.09815,.05903-.19736,.11769-.29764,.17597-1.62671,.94534-3.42819,1.72876-5.34485,2.35019l.01196-4.22008c1.91667-.62143,3.71814-1.40485,5.34485-2.35019,.10028-.05828,.19949-.11693,.29764-.17597"/><path class="cls-4" d="M36.35215,59.09066l-.01196,4.22008c-1.47953,.4797-3.02771,.86289-4.61713,1.14952l.01196-4.22008c1.58942-.28663,3.13759-.66982,4.61713-1.14952"/><path class="cls-4" d="M31.73502,60.24018l-.01196,4.22008c-1.02233,.18437-2.06173,.32879-3.1109,.43326l.01196-4.22008c1.04917-.10447,2.08857-.24889,3.1109-.43326"/><path class="cls-4" d="M28.62412,60.67344l-.01196,4.22008c-.89575,.08919-1.79862,.14927-2.70408,.18021l.01196-4.22008c.90546-.03095,1.80833-.09102,2.70408-.18021"/><path class="cls-4" d="M25.92004,60.85365l-.01196,4.22008c-.83143,.02842-1.66504,.03228-2.49731,.01157l.01196-4.22008c.83228,.0207,1.66589,.01684,2.49731-.01157"/><path class="cls-4" d="M23.42273,60.86522l-.01196,4.22008c-.80279-.01997-1.60434-.06279-2.4015-.12847l.01196-4.22008c.79716,.06568,1.59871,.1085,2.4015,.12847"/><path class="cls-4" d="M21.02123,60.73676l-.01196,4.22008c-.79554-.06554-1.5867-.15385-2.37036-.26492l.01196-4.22008c.78366,.11107,1.57482,.19937,2.37036,.26492"/><path class="cls-4" d="M18.65087,60.47184l-.01196,4.22008c-.81503-.11552-1.62194-.25566-2.4172-.42043l.01196-4.22008c.79526,.16477,1.60217,.30491,2.4172,.42043"/><path class="cls-4" d="M16.23367,60.05141l-.01196,4.22008c-.86302-.17881-1.71232-.38662-2.5434-.62343l.01196-4.22008c.83108,.23682,1.68038,.44463,2.5434,.62343"/><path class="cls-4" d="M13.69027,59.42798l-.01196,4.22008c-1.01723-.28986-2.00716-.62318-2.96154-.99996l.01196-4.22008c.95438,.37678,1.94431,.7101,2.96154,.99996"/><path class="cls-4" d="M10.72873,58.42802l-.01196,4.22008c-1.2391-.48919-2.41826-1.05165-3.5194-1.68739C2.39047,58.18544-.01028,54.5413,.00003,50.90273l.01196-4.22008c-.01032,3.63857,2.39044,7.28272,7.19734,10.05798,1.10114,.63574,2.2803,1.1982,3.5194,1.68739"/></g></g></g><ellipse class="cls-18" cx="24.39695" cy="46.75227" rx="14.12544" ry="24.38668" transform="translate(-22.42429 71.01658) rotate(-89.83757)"/></g><g><g><g><g class="cls-9"><polygon class="cls-19" points="23.22168 38.2913 23.30588 58.72889 45.43614 45.95198 45.35193 25.5144 23.22168 38.2913"/><polygon class="cls-15" points="23.22168 38.2913 3.66455 26.92594 3.74876 47.36353 23.30588 58.72889 23.22168 38.2913"/><polygon class="cls-11" points="45.35193 25.5144 25.79481 14.14904 3.66455 26.92594 23.22168 38.2913 45.35193 25.5144"/></g><g class="cls-9"><polygon class="cls-10" points="24.17839 37.46432 24.17545 38.49797 3.09582 26.32212 3.09875 25.28846 24.17839 37.46432"/><polygon class="cls-14" points="24.17839 37.46432 44.9947 25.3672 44.99177 26.40085 24.17545 38.49797 24.17839 37.46432"/><polygon class="cls-11" points="3.09875 25.28846 24.06994 13.22322 44.9947 25.3672 24.17839 37.46432 3.09875 25.28846"/></g><g class="cls-9"><polygon class="cls-18" points="38.42183 25.03471 24.42763 37.51704 24.43187 39.01163 38.43853 30.92487 38.42183 25.03471"/><polygon class="cls-23" points="38.42183 25.03471 14.13287 11.24414 .13867 23.72647 24.42763 37.51704 38.42183 25.03471"/><polygon class="cls-18" points="24.42763 37.51704 .13867 23.72647 .14291 25.22106 24.43187 39.01163 24.42763 37.51704"/></g><polygon class="cls-4" points="48.278 24.44721 38.24005 25.06629 14.18773 11.27268 24.80055 11.00736 48.278 24.44721"/></g><polygon class="cls-18" points="38.28427 31.036 48.18956 25.24317 48.18956 24.44721 38.32849 25.02207 38.28427 31.036"/><polygon class="cls-20" points="7.09829 33.46292 7.09829 42.0115 12.66186 45.3188 12.66186 36.59925 7.09829 33.46292"/><polygon class="cls-20" points="14.66331 37.81131 14.66331 46.3599 20.22688 49.6672 20.22688 40.94765 14.66331 37.81131"/></g><path class="cls-7" d="M31.07389,54.1225s8.40186-4.80106,8.11945-4.58925,0-13.69887,0-13.69887l-8.26065,4.37744s-.14121,13.91068,.14121,13.91068Z"/></g><g><path class="cls-13" d="M25.36272,103.54891c.00075-.02183,.00087-.04333,0-.06522V61.88738h-2.94056v41.56712c-.0025,.03933-.00266,.07808,0,.11741v.00929h.00119c.0212,.27154,.15993,.53891,.42737,.74646,.57833,.44883,1.51245,.44883,2.08705,0,.2657-.20755,.4022-.47492,.4211-.74646h.00385v-.03229Z"/><g><path class="cls-4" d="M48.78436,46.82137l-.01197,4.22008c-.01018,3.59224-2.37186,7.17874-7.08735,9.91909-9.49029,5.51516-24.92869,5.51904-34.48767,.00017C2.39047,58.18544-.01028,54.5413,.00003,50.90273l.01195-4.22007c-.0103,3.63857,2.39045,7.28271,7.19735,10.05798,9.55898,5.51888,24.99737,5.51499,34.48767-.00017,4.71549-2.74034,7.07718-6.32685,7.08736-9.91909Z"/><g class="cls-12"><g class="cls-9"><path class="cls-4" d="M48.78436,46.82137l-.01196,4.22008c-.0002,.0714-.00133,.1428-.00339,.2142l.01196-4.22008c.00206-.07139,.00319-.14279,.00339-.2142"/><path class="cls-4" d="M48.78097,47.03557l-.01196,4.22008c-.01349,.46732-.06679,.93425-.1599,1.39896l.01196-4.22008c.09311-.46471,.14641-.93164,.1599-1.39896"/><path class="cls-4" d="M48.62107,48.43452l-.01196,4.22008c-.09225,.4604-.22357,.91861-.39399,1.37282l.01196-4.22008c.17041-.45422,.30174-.91243,.39399-1.37282"/><path class="cls-4" d="M48.22709,49.80735l-.01196,4.22008c-.17521,.467-.39173,.92978-.64957,1.38639l.01196-4.22008c.25784-.45661,.47436-.91939,.64957-1.38639"/><path class="cls-4" d="M47.57751,51.19374l-.01196,4.22008c-.27884,.4938-.60601,.98038-.98152,1.45726l.01196-4.22008c.3755-.47688,.70267-.96346,.98152-1.45726"/><path class="cls-4" d="M46.596,52.651l-.01196,4.22008c-.43834,.55669-.94255,1.10017-1.51263,1.6265l.01196-4.22008c.57008-.52633,1.07429-1.06981,1.51263-1.6265"/><path class="cls-4" d="M45.08337,54.27751l-.01196,4.22008c-.87454,.80742-1.9041,1.57449-3.08872,2.28699l.01196-4.22008c1.18462-.7125,2.21419-1.47957,3.08872-2.28699"/><path class="cls-4" d="M41.99464,56.5645l-.01196,4.22008c-.09815,.05903-.19736,.11769-.29764,.17597-1.62671,.94534-3.42819,1.72876-5.34485,2.35019l.01196-4.22008c1.91667-.62143,3.71814-1.40485,5.34485-2.35019,.10028-.05828,.19949-.11693,.29764-.17597"/><path class="cls-4" d="M36.35215,59.09066l-.01196,4.22008c-1.47953,.4797-3.02771,.86289-4.61713,1.14952l.01196-4.22008c1.58942-.28663,3.13759-.66982,4.61713-1.14952"/><path class="cls-4" d="M31.73502,60.24018l-.01196,4.22008c-1.02233,.18437-2.06173,.32879-3.1109,.43326l.01196-4.22008c1.04917-.10447,2.08857-.24889,3.1109-.43326"/><path class="cls-4" d="M28.62412,60.67344l-.01196,4.22008c-.89575,.08919-1.79862,.14927-2.70408,.18021l.01196-4.22008c.90546-.03095,1.80833-.09102,2.70408-.18021"/><path class="cls-4" d="M25.92004,60.85365l-.01196,4.22008c-.83143,.02842-1.66504,.03228-2.49731,.01157l.01196-4.22008c.83228,.0207,1.66589,.01684,2.49731-.01157"/><path class="cls-4" d="M23.42273,60.86522l-.01196,4.22008c-.80279-.01997-1.60434-.06279-2.4015-.12847l.01196-4.22008c.79716,.06568,1.59871,.1085,2.4015,.12847"/><path class="cls-4" d="M21.02123,60.73676l-.01196,4.22008c-.79554-.06554-1.5867-.15385-2.37036-.26492l.01196-4.22008c.78366,.11107,1.57482,.19937,2.37036,.26492"/><path class="cls-4" d="M18.65087,60.47184l-.01196,4.22008c-.81503-.11552-1.62194-.25566-2.4172-.42043l.01196-4.22008c.79526,.16477,1.60217,.30491,2.4172,.42043"/><path class="cls-4" d="M16.23367,60.05141l-.01196,4.22008c-.86302-.17881-1.71232-.38662-2.5434-.62343l.01196-4.22008c.83108,.23682,1.68038,.44463,2.5434,.62343"/><path class="cls-4" d="M13.69027,59.42798l-.01196,4.22008c-1.01723-.28986-2.00716-.62318-2.96154-.99996l.01196-4.22008c.95438,.37678,1.94431,.7101,2.96154,.99996"/><path class="cls-4" d="M10.72873,58.42802l-.01196,4.22008c-1.2391-.48919-2.41826-1.05165-3.5194-1.68739C2.39047,58.18544-.01028,54.5413,.00003,50.90273l.01196-4.22008c-.01032,3.63857,2.39044,7.28272,7.19734,10.05798,1.10114,.63574,2.2803,1.1982,3.5194,1.68739"/></g></g></g><ellipse class="cls-18" cx="24.39695" cy="46.75227" rx="14.12544" ry="24.38668" transform="translate(-22.42429 71.01658) rotate(-89.83757)"/></g><g><g><g><g class="cls-9"><polygon class="cls-19" points="23.22168 38.2913 23.30588 58.72889 45.43614 45.95198 45.35193 25.5144 23.22168 38.2913"/><polygon class="cls-15" points="23.22168 38.2913 3.66455 26.92594 3.74876 47.36353 23.30588 58.72889 23.22168 38.2913"/><polygon class="cls-11" points="45.35193 25.5144 25.79481 14.14904 3.66455 26.92594 23.22168 38.2913 45.35193 25.5144"/></g><g class="cls-9"><polygon class="cls-10" points="24.17839 37.46432 24.17545 38.49797 3.09582 26.32212 3.09875 25.28846 24.17839 37.46432"/><polygon class="cls-14" points="24.17839 37.46432 44.9947 25.3672 44.99177 26.40085 24.17545 38.49797 24.17839 37.46432"/><polygon class="cls-11" points="3.09875 25.28846 24.06994 13.22322 44.9947 25.3672 24.17839 37.46432 3.09875 25.28846"/></g><g class="cls-9"><polygon class="cls-18" points="38.42183 25.03471 24.42763 37.51704 24.43187 39.01163 38.43853 30.92487 38.42183 25.03471"/><polygon class="cls-23" points="38.42183 25.03471 14.13287 11.24414 .13867 23.72647 24.42763 37.51704 38.42183 25.03471"/><polygon class="cls-18" points="24.42763 37.51704 .13867 23.72647 .14291 25.22106 24.43187 39.01163 24.42763 37.51704"/></g><polygon class="cls-4" points="48.278 24.44721 38.24005 25.06629 14.18773 11.27268 24.80055 11.00736 48.278 24.44721"/></g><polygon class="cls-18" points="38.28427 31.036 48.18956 25.24317 48.18956 24.44721 38.32849 25.02207 38.28427 31.036"/><polygon class="cls-20" points="7.09829 33.46292 7.09829 42.0115 12.66186 45.3188 12.66186 36.59925 7.09829 33.46292"/><polygon class="cls-20" points="14.66331 37.81131 14.66331 46.3599 20.22688 49.6672 20.22688 40.94765 14.66331 37.81131"/></g><path class="cls-7" d="M31.07389,54.1225s8.40186-4.80106,8.11945-4.58925,0-13.69887,0-13.69887l-8.26065,4.37744s-.14121,13.91068,.14121,13.91068Z"/></g><g class="cls-9"><polygon class="cls-8" points="32.31236 14.97266 32.2727 28.96362 9.75253 15.9616 9.7922 1.97064 32.31236 14.97266"/><polygon class="cls-21" points="32.31236 14.97266 35.70337 13.00202 35.6637 26.99298 32.2727 28.96362 32.31236 14.97266"/><polygon class="cls-21" points="9.7922 1.97064 13.18321 0 35.70337 13.00202 32.31236 14.97266 9.7922 1.97064"/></g><g><path class="cls-6" d="M34.20069,59.60981l14.93058-8.18272c.34405-.18856,.55881-.54488,.56241-.93317l.06979-7.52225c.01293-1.39364-.3191-2.7782-1.02138-3.98809-.16646-.28678-.35145-.56097-.55383-.79833-1.06094-1.24433-2.94394-2.67181-4.65712-1.72495l-16.0668,8.74487c-.56482,.31233-.91683,.89893-.92276,1.53772l-.0739,7.96601c-.00676,.72906,.37635,1.40733,1.00883,1.78522,1.55108,.92673,4.45081,2.48343,5.64927,3.12228,.33626,.17925,.741,.17642,1.07492-.00659Z"/><path class="cls-1" d="M29.501,51.25964l.02345-2.52774c.00807-.86978,.48383-1.66961,1.24955-2.10071l15.97229-8.97088"/><g><path class="cls-16" d="M35.13941,44.98563l-1.88129-1.06049c-.09839-.05546-.0984-.19535-.00002-.2507l1.25162-.70417c.04677-.02631,.10444-.02516,.15012,.00302l1.84871,1.14002c.09607,.05924,.0905,.19899-.00999,.25048l-1.21903,.62464c-.04413,.02261-.09691,.02156-.14011-.00279Z"/><path class="cls-16" d="M41.89091,41.15489l-1.88129-1.06049c-.09839-.05546-.0984-.19535-.00002-.2507l1.25162-.70417c.04677-.02631,.10444-.02516,.15012,.00302l1.84871,1.14002c.09607,.05924,.0905,.19899-.00999,.25048l-1.21903,.62464c-.04413,.02261-.09691,.02156-.14011-.00279Z"/><path class="cls-2" d="M34.7732,43.64828l.0223-2.40333c.00302-.3256,.18173-.62481,.46896-.78518l5.04745-2.81812c.62006-.34619,1.38793,.10023,1.38141,.80311l-.01234,1.33016"/></g><line class="cls-3" x1="48.55358" y1="41.574" x2="34.25451" y2="49.87711"/><path class="cls-3" d="M33.51181,58.96097l.06771-7.29785c.01009-1.08737-.33539-2.14973-.98736-3.02712-.2979-.4009-.56391-.8082-.75313-.99012-1.501-1.44314-3.47309-1.78693-3.47309-1.78693"/></g><path class="cls-5" d="M40.61592,48.72958l1.56319,4.1478-2.30684,1.61247c-1.07116,.74874-2.29266,.42947-2.7282-.71323s.07985-2.67604,1.15101-3.42478l2.32084-1.62226Z"/><path class="cls-22" d="M42.98036,47.07685c1.07116-.74874,2.29266-.42947,2.7282,.71323,.43554,1.1427-.07984,2.67605-1.151,3.42479l-2.37844,1.66252-1.56319-4.1478,2.36444-1.65273Z"/><g><path class="cls-4" d="M11.28496,7.86532c-.09528-.05501-.16661-.18766-.16624-.31548,.00036-.12787,.06419-.17334,.16749-.12285l1.30338,.75251c.09528,.05501,.15862,.18304,.15825,.31091-.00036,.12782-.06422,.18242-.1595,.12741l-1.30338-.75251Z"/><path class="cls-4" d="M12.94419,9.41782c-.00036,.12787-.06408,.17338-.15947,.1183l-1.72451-.99565c-.09539-.05507-.16663-.1785-.16627-.30637,.00039-.13698,.06411-.18251,.16751-.13195l1.72451,.99565c.09539,.05507,.15859,.19218,.15823,.32002Z"/><path class="cls-4" d="M15.50414,10.56652c.09539,.05507,.17455,.20139,.17416,.33837-.00036,.12787-.0801,.18242-.17548,.12735l-1.35899-.78461-.0001,.03655-.00026,.09129c-.00132,.46575-.0015,.52964-.00982,.68033l.87418,.50471c.15102,.08719,.25416,.18333,.30955,.29765,.08718,.13263,.09495,.21031,.09404,.5299-.00228,.8036-.06898,1.86269-.13338,2.10906-.08036,.28289-.23171,.31441-.58138,.11253-.63574-.36705-.80241-.52727-.80181-.73733,.00044-.15524,.09603-.20981,.23907-.12723l.09536,.0642c.08737,.06876,.32572,.23379,.39718,.27505,.14314,.08264,.22279,.05545,.25507-.0997,.07233-.26008,.09782-.79417,.1243-1.72099l.00018-.06392c.00039-.13698-.03929-.19647-.15052-.26069l-.73912-.42673c-.05012,.84915-.20311,1.45597-.49878,1.86151-.19982,.29624-.38325,.40986-.5183,.33188-.11923-.06884-.23015-.24264-.22977-.37962,.00026-.09132,.00814-.08677,.13581-.18685,.55867-.5098,.72761-1.15315,.71666-2.88821l.00023-.08219,.00047-.16437-.52448-.30281c-.10338-.05969-.18254-.20598-.18215-.34298,.00039-.13698,.07221-.17781,.18347-.12274l.81855,.47259,.00186-.65749c.00036-.12784,.08005-.17331,.20724-.09987,.12709,.07337,.22221,.21976,.22185,.34761l-.00186,.65749,1.05698,.61025Z"/><path class="cls-4" d="M12.42143,11.32037c.23843,.13766,.36522,.34806,.36444,.62204l-.00316,1.11405c-.00078,.27398-.12837,.34664-.3668,.20898l-.98541-.56893c-.23843-.13766-.35723-.35257-.35645-.62655l.00316-1.11405c.00078-.27398,.12037-.34213,.3588-.20447l.98541,.56893Zm-.03577,1.3788l.00243-.85839c.00023-.08216-.03143-.14617-.11087-.19204l-.69135-.39915c-.07956-.04593-.11145-.02778-.11171,.06353l-.00243,.85839,.11098,.19213,.69135,.39915,.1116-.06362"/><path class="cls-4" d="M12.59061,10.59486c.08742,.05047,.15078,.16935,.15042,.29719-.00036,.12787-.06419,.17331-.15161,.12284l-1.31124-.75705c-.09528-.05501-.16661-.18766-.16627-.30637,.00036-.12784,.06417-.16418,.16746-.11367l1.31124,.75705Z"/><path class="cls-4" d="M12.59286,9.80037c.08742,.05047,.15078,.16938,.15042,.29722s-.06419,.17331-.15161,.12284l-1.31124-.75705c-.09528-.05501-.16661-.18766-.16627-.30637,.00036-.12784,.06419-.17331,.16746-.11369l1.31124,.75705Z"/><path class="cls-4" d="M18.11594,13.044c-.0008,.28309-.13629,.35123-.39056,.20443l-1.1444-.66072-.00828,2.92215c-.00039,.13698-.09603,.17322-.21526,.10439-.12706-.07336-.21422-.21515-.21384-.35213l.01276-4.50197c.00085-.30132,.12836-.3832,.39061-.23179l1.18418,.68369c.25426,.1468,.38893,.37087,.3881,.66309l-.00331,1.16887Zm-.42092-.32534l.00091-.31959-1.11259-.64235-.00127,.44746,1.00135,.57813,.1116-.06365m.00199-.70315l.00088-.31046-.10302-.17841-.898-.51846-.11157,.05452-.00088,.31046,1.11259,.64235"/><path class="cls-4" d="M19.46822,16.19374c-.0008,.28309-.12841,.35576-.38268,.20896l-1.58149-.91307c-.2464-.14226-.36508-.35713-.36426-.64935l.00311-1.09581c.00083-.29222,.12031-.36041,.36672-.21815l1.58149,.91307c.25426,.1468,.38107,.35719,.38024,.6494l-.00313,1.10495Zm-.42085-.38018l.00236-.83099-.11087-.19207-1.27149-.73409-.11171,.06356-.00236,.83099,.11098,.19213,1.27149,.73409,.1116-.06362"/><path class="cls-4" d="M20.09938,12.57934c.26225,.15141,.39687,.38463,.39601,.68595l-.01175,4.14583c-.00067,.23743-.05672,.36056-.16819,.37855-.09559,.00881-.19103-.028-.48507-.19776-.25428-.14681-.49267-.30273-.63561-.41271-.11915-.09623-.19035-.22881-.18999-.35665,.00047-.16437,.09602-.20067,.24702-.11349l.08739,.0596c.16681,.1146,.38935,.26138,.50058,.3256,.15899,.09179,.20678,.0645,.20724-.09987l.00681-2.40163-1.16822-.67447c-.25426-.1468-.38104-.36637-.38022-.65859l.00329-1.15974c.00083-.29222,.12844-.36486,.3827-.21806l1.208,.69744Zm-.04447,1.62989l.00127-.44746-1.13641-.65611-.00091,.31959,.09502,.18294,1.04102,.60103m.00236-.83102l.00088-.31046-.10291-.17835-.93778-.54142-.09572,.06367-.00088,.31046,1.13641,.65611"/><path class="cls-4" d="M24.64585,17.73787c-.10317-.1236-.13483-.19675-.13457-.28807,.00036-.12782,.08809-.18696,.19944-.12267l.14292,.12825c.26965,.32032,.49184,.58581,.71387,.86949l.10281,.26058c-.00039,.13698-.09611,.20064-.20735,.13642-.0636-.03672-.07953-.05509-.19056-.19237-.11895-.16014-.42826-.5491-.62656-.79164Z"/><path class="cls-4" d="M25.56192,20.29733c.12709,.10996,.19049,.21974,.19012,.34758-.00041,.14611-.08814,.20522-.21534,.13178-.10327-.05962-.43673-.38017-.77005-.74643-.44427-.49432-.91217-1.11203-1.21327-1.61515l-.00331,1.16887c-.00034,.11874-.08,.15504-.19922,.08621-.13517-.07804-.21438-.20607-.21405-.32481l.00324-1.14147c-.44646,.23616-.94016,.30784-1.53688,.22859-.21487-.03259-.30237-.05567-.35798-.08777-.11923-.06884-.2143-.23349-.21389-.3796l.09593-.1367c.03186,.00013,.03986-.00443,.19889,.03251,.47728,.12921,1.05843,.09887,1.50463-.04598l-1.66888-.96353c-.08742-.05047-.15078-.16938-.15045-.28809,.00034-.11869,.05618-.16879,.15161-.12282l1.97877,1.14245,.00083-.29224-.44506-.25695c-.23044-.13305-.34132-.32511-.34054-.59904l.003-1.05931c.00072-.25569,.1123-.31018,.34274-.17713l.42124,.2432c.03215-.10035,.04025-.14141,.06438-.23723,.02423-.13233,.08002-.15503,.19922-.08621,.11923,.06884,.20641,.20149,.20608,.32021-.00013,.04566-.02415,.09582-.08023,.22808l.50069,.28907c.23044,.13305,.34931,.32058,.34859,.57627l-.00303,1.06842c-.00072,.25569-.12032,.32384-.35076,.1908l-.45305-.26157-.00083,.29224,2.01858,1.16543c.08742,.05047,.15862,.18304,.15828,.30173-.00034,.11871-.07203,.15964-.15944,.10917l-1.71654-.99105c.48359,.68166,1.05499,1.3134,1.70599,1.89048Zm-2.7203-3.53709l1.02517,.59188,.10369-.0499,.00085-.30137-1.22385-.70659-.00085,.30137,.09499,.1646m-.09245-1.05952l-.00072,.25566,1.22385,.70659,.00072-.25566-.10304-.17842-1.02517-.59188-.09564,.06372"/><path class="cls-4" d="M25.23678,17.08204c-.27889,.08594-.46208,.10823-.55736,.05323-.10338-.05969-.20631-.22888-.20598-.34759,.00028-.10045,.02423-.13236,.1357-.15029,.1513-.0224,.42222-.10383,.55767-.16283l.18309,.00509c.11124,.06422,.20629,.23801,.20592,.36585-.00031,.10958-.07214,.15958-.31905,.23655Z"/><path class="cls-4" d="M21.16264,13.75116c-.09539-.05507-.15864-.17394-.15831-.29263,.00036-.12787,.0562-.16878,.15944-.10917l1.11261,.64237,.00067-.23745c.00036-.12784,.08804-.16869,.21524-.09525,.11921,.06882,.21422,.21515,.21386,.34299l-.00067,.23745,1.34305,.77541,.00067-.23745c.00036-.12784,.08804-.16869,.20724-.09987,.1272,.07344,.22235,.21984,.22198,.34768l-.00067,.23745,1.12045,.64689c.08742,.05047,.15078,.16935,.15045,.28809-.00034,.11869-.06417,.16418-.15159,.11371l-1.12045-.64689-.00062,.21914c-.00034,.11874-.096,.15495-.2232,.08151-.11921-.06882-.20636-.21059-.20603-.32933l.00062-.21914-1.34305-.77541-.00062,.21914c-.00034,.11874-.09587,.15502-.21508,.0862-.1272-.07344-.21438-.20609-.21402-.33394l.00062-.21914-1.11261-.64237Z"/><path class="cls-4" d="M21.27964,14.60533c-.07924-.11895-.1109-.18296-.11067-.26512,.00036-.12787,.08809-.18698,.19933-.12276,.07943,.04586,.19845,.18775,.42046,.51716q.39627,.59468,.39596,.70426c-.00036,.12782-.09606,.18233-.21529,.11349-.06349-.03665-.09522-.07327-.19837-.21512-.31701-.48489-.3883-.59008-.49143-.73192Z"/><path class="cls-4" d="M21.02918,15.93333c.00036-.12782,.04016-.15975,.17551-.13649,.27047,.0281,.56501,.02437,.71633,.00197l.13521,.02318c.10338,.05969,.19046,.22887,.1901,.35671-.00031,.10958-.00034,.11871-.35065,.14513-.32645,.0219-.58909,.00747-.68448-.04761-.10327-.05962-.18241-.20593-.18202-.3429Z"/><path class="cls-4" d="M30.16249,20.429c.36552,.21103,.46854,.39854,.46714,.89165-.00202,.71228-.06013,1.55681-.13271,1.87163-.08869,.39699-.24001,.41938-.82801,.0799-.66764-.38546-.8343-.54571-.83363-.78314,.00047-.16437,.08814-.20522,.23914-.11804l.09538,.06422c.15882,.11002,.40517,.27051,.57204,.36685,.19077,.11014,.2704,.09209,.31861-.08128,.07245-.26916,.12185-.86264,.12392-1.59319,.00065-.22829-.02309-.26944-.18208-.36123l-3.05957-1.76645c-.03453,.94047-.10769,1.50194-.25219,1.9307-.14443,.37395-.23226,.46959-.39114,.37786-.13506-.07797-.24609-.25184-.24568-.39795l.02429-.11403c.30384-.51056,.42532-1.23621,.42908-2.56032l.00412-1.45195c.00088-.31048,.13638-.38775,.4066-.23173l3.14713,1.81699c.24629,.1422,.36511,.348,.36431,.63108l-.00186,.65749c-.0008,.28309-.12042,.3604-.35886,.22274l-3.12317-1.80317-.00116,.4109-.00013,.04566-.0001,.03655,3.21856,1.85824Zm-3.21452-3.28282l-.00142,.50225,2.93249,1.69307,.11163-.07275,.00106-.37438-.11085-.20122-2.80531-1.61965c-.07943-.04586-.1273-.02774-.12759,.07268"/><path class="cls-4" d="M29.57673,22.0848c-.00072,.25566-.1123,.31016-.32691,.18625l-1.62913-.94058c-.21459-.1239-.31752-.30223-.3168-.55789l.00233-.82189c.0007-.24656,.10433-.31478,.31892-.19089l1.62913,.94058c.21461,.12391,.32549,.31598,.32479,.56253l-.00233,.82189Zm-.42088-.37107l.00158-.55704-.0712-.13257-1.28745-.74331-.0798,.0454-.00158,.55704,.0793,.12813,1.28745,.74331,.07169-.04096"/></g></g></g></svg>