<?xml version="1.0" encoding="UTF-8"?><svg id="_レイヤー_2" xmlns="http://www.w3.org/2000/svg" xmlns:xlink="http://www.w3.org/1999/xlink" viewBox="0 0 49.76383 104.66428"><defs><style>.cls-1{stroke-width:1.33013px;}.cls-1,.cls-2,.cls-3{fill:none;stroke-linecap:round;stroke-linejoin:round;}.cls-1,.cls-3{stroke:#5f402d;}.cls-4{fill:#8c5a2c;}.cls-5{fill:#e24963;}.cls-6{fill:#b29b92;}.cls-7{fill:#fbfbfd;}.cls-8{fill:#e1667c;}.cls-9{isolation:isolate;}.cls-10{fill:#c24669;}.cls-11{fill:#f4f7f9;}.cls-12{clip-path:url(#clippath-1);}.cls-2{stroke:#482d1b;stroke-width:1.21773px;}.cls-13{fill:url(#_名称未設定グラデーション_78);}.cls-14{fill:#b2b5b8;}.cls-15{fill:#e7e6f0;}.cls-16{fill:#c6c7c5;}.cls-17{clip-path:url(#clippath);}.cls-3{stroke-width:.58578px;}.cls-18{fill:#d3daeb;}.cls-19{fill:#5daddd;}.cls-20{fill:#c5c8cc;}.cls-21{fill:#e78895;}</style><linearGradient id="_名称未設定グラデーション_78" x1="23.89178" y1="57.22374" x2="23.89178" y2="128.55385" gradientUnits="userSpaceOnUse"><stop offset="0" stop-color="#949494"/><stop offset="1" stop-color="#000"/></linearGradient><clipPath id="clippath"><path class="cls-5" d="M48.78436,46.82137l-.01197,4.22008c-.01018,3.59224-2.37186,7.17874-7.08735,9.91909-9.49029,5.51516-24.92869,5.51904-34.48767,.00017C2.39047,58.18544-.01028,54.5413,.00003,50.90273l.01195-4.22007c-.0103,3.63857,2.39045,7.28271,7.19735,10.05798,9.55898,5.51888,24.99737,5.51499,34.48767-.00017,4.71549-2.74034,7.07718-6.32685,7.08736-9.91909Z"/></clipPath><clipPath id="clippath-1"><path class="cls-5" d="M48.78436,46.82137l-.01197,4.22008c-.01018,3.59224-2.37186,7.17874-7.08735,9.91909-9.49029,5.51516-24.92869,5.51904-34.48767,.00017C2.39047,58.18544-.01028,54.5413,.00003,50.90273l.01195-4.22007c-.0103,3.63857,2.39045,7.28271,7.19735,10.05798,9.55898,5.51888,24.99737,5.51499,34.48767-.00017,4.71549-2.74034,7.07718-6.32685,7.08736-9.91909Z"/></clipPath></defs><g id="_レイヤー_1-2"><g><g><path class="cls-13" d="M25.36272,103.54891c.00075-.02183,.00087-.04333,0-.06522V61.88738h-2.94056v41.56712c-.0025,.03933-.00266,.07808,0,.11741v.00929h.00119c.0212,.27154,.15993,.53891,.42737,.74646,.57833,.44883,1.51245,.44883,2.08705,0,.2657-.20755,.4022-.47492,.4211-.74646h.00385v-.03229Z"/><g><path class="cls-5" d="M48.78436,46.82137l-.01197,4.22008c-.01018,3.59224-2.37186,7.17874-7.08735,9.91909-9.49029,5.51516-24.92869,5.51904-34.48767,.00017C2.39047,58.18544-.01028,54.5413,.00003,50.90273l.01195-4.22007c-.0103,3.63857,2.39045,7.28271,7.19735,10.05798,9.55898,5.51888,24.99737,5.51499,34.48767-.00017,4.71549-2.74034,7.07718-6.32685,7.08736-9.91909Z"/><g class="cls-17"><g class="cls-9"><path class="cls-5" d="M48.78436,46.82137l-.01196,4.22008c-.0002,.0714-.00133,.1428-.00339,.2142l.01196-4.22008c.00206-.07139,.00319-.14279,.00339-.2142"/><path class="cls-5" d="M48.78097,47.03557l-.01196,4.22008c-.01349,.46732-.06679,.93425-.1599,1.39896l.01196-4.22008c.09311-.46471,.14641-.93164,.1599-1.39896"/><path class="cls-5" d="M48.62107,48.43452l-.01196,4.22008c-.09225,.4604-.22357,.91861-.39399,1.37282l.01196-4.22008c.17041-.45422,.30174-.91243,.39399-1.37282"/><path class="cls-5" d="M48.22709,49.80735l-.01196,4.22008c-.17521,.467-.39173,.92978-.64957,1.38639l.01196-4.22008c.25784-.45661,.47436-.91939,.64957-1.38639"/><path class="cls-5" d="M47.57751,51.19374l-.01196,4.22008c-.27884,.4938-.60601,.98038-.98152,1.45726l.01196-4.22008c.3755-.47688,.70267-.96346,.98152-1.45726"/><path class="cls-5" d="M46.596,52.651l-.01196,4.22008c-.43834,.55669-.94255,1.10017-1.51263,1.6265l.01196-4.22008c.57008-.52633,1.07429-1.06981,1.51263-1.6265"/><path class="cls-5" d="M45.08337,54.27751l-.01196,4.22008c-.87454,.80742-1.9041,1.57449-3.08872,2.28699l.01196-4.22008c1.18462-.7125,2.21419-1.47957,3.08872-2.28699"/><path class="cls-5" d="M41.99464,56.5645l-.01196,4.22008c-.09815,.05903-.19736,.11769-.29764,.17597-1.62671,.94534-3.42819,1.72876-5.34485,2.35019l.01196-4.22008c1.91667-.62143,3.71814-1.40485,5.34485-2.35019,.10028-.05828,.19949-.11693,.29764-.17597"/><path class="cls-5" d="M36.35215,59.09066l-.01196,4.22008c-1.47953,.4797-3.02771,.86289-4.61713,1.14952l.01196-4.22008c1.58942-.28663,3.13759-.66982,4.61713-1.14952"/><path class="cls-5" d="M31.73502,60.24018l-.01196,4.22008c-1.02233,.18437-2.06173,.32879-3.1109,.43326l.01196-4.22008c1.04917-.10447,2.08857-.24889,3.1109-.43326"/><path class="cls-5" d="M28.62412,60.67344l-.01196,4.22008c-.89575,.08919-1.79862,.14927-2.70408,.18021l.01196-4.22008c.90546-.03095,1.80833-.09102,2.70408-.18021"/><path class="cls-5" d="M25.92004,60.85365l-.01196,4.22008c-.83143,.02842-1.66504,.03228-2.49731,.01157l.01196-4.22008c.83228,.0207,1.66589,.01684,2.49731-.01157"/><path class="cls-5" d="M23.42273,60.86522l-.01196,4.22008c-.80279-.01997-1.60434-.06279-2.4015-.12847l.01196-4.22008c.79716,.06568,1.59871,.1085,2.4015,.12847"/><path class="cls-5" d="M21.02123,60.73676l-.01196,4.22008c-.79554-.06554-1.5867-.15385-2.37036-.26492l.01196-4.22008c.78366,.11107,1.57482,.19937,2.37036,.26492"/><path class="cls-5" d="M18.65087,60.47184l-.01196,4.22008c-.81503-.11552-1.62194-.25566-2.4172-.42043l.01196-4.22008c.79526,.16477,1.60217,.30491,2.4172,.42043"/><path class="cls-5" d="M16.23367,60.05141l-.01196,4.22008c-.86302-.17881-1.71232-.38662-2.5434-.62343l.01196-4.22008c.83108,.23682,1.68038,.44463,2.5434,.62343"/><path class="cls-5" d="M13.69027,59.42798l-.01196,4.22008c-1.01723-.28986-2.00716-.62318-2.96154-.99996l.01196-4.22008c.95438,.37678,1.94431,.7101,2.96154,.99996"/><path class="cls-5" d="M10.72873,58.42802l-.01196,4.22008c-1.2391-.48919-2.41826-1.05165-3.5194-1.68739C2.39047,58.18544-.01028,54.5413,.00003,50.90273l.01196-4.22008c-.01032,3.63857,2.39044,7.28272,7.19734,10.05798,1.10114,.63574,2.2803,1.1982,3.5194,1.68739"/></g></g></g><ellipse class="cls-8" cx="24.39695" cy="46.75227" rx="14.12544" ry="24.38668" transform="translate(-22.42429 71.01658) rotate(-89.83757)"/></g><g><g><g><g class="cls-9"><polygon class="cls-18" points="23.22168 38.2913 23.30588 58.72889 45.43614 45.95198 45.35193 25.5144 23.22168 38.2913"/><polygon class="cls-15" points="23.22168 38.2913 3.66455 26.92594 3.74876 47.36353 23.30588 58.72889 23.22168 38.2913"/><polygon class="cls-11" points="45.35193 25.5144 25.79481 14.14904 3.66455 26.92594 23.22168 38.2913 45.35193 25.5144"/></g><g class="cls-9"><polygon class="cls-10" points="24.17839 37.46432 24.17545 38.49797 3.09582 26.32212 3.09875 25.28846 24.17839 37.46432"/><polygon class="cls-14" points="24.17839 37.46432 44.9947 25.3672 44.99177 26.40085 24.17545 38.49797 24.17839 37.46432"/><polygon class="cls-11" points="3.09875 25.28846 24.06994 13.22322 44.9947 25.3672 24.17839 37.46432 3.09875 25.28846"/></g><g class="cls-9"><polygon class="cls-8" points="38.42183 25.03471 24.42763 37.51704 24.43187 39.01163 38.43853 30.92487 38.42183 25.03471"/><polygon class="cls-21" points="38.42183 25.03471 14.13287 11.24414 .13867 23.72647 24.42763 37.51704 38.42183 25.03471"/><polygon class="cls-8" points="24.42763 37.51704 .13867 23.72647 .14291 25.22106 24.43187 39.01163 24.42763 37.51704"/></g><polygon class="cls-5" points="48.278 24.44721 38.24005 25.06629 14.18773 11.27268 24.80055 11.00736 48.278 24.44721"/></g><polygon class="cls-8" points="38.28427 31.036 48.18956 25.24317 48.18956 24.44721 38.32849 25.02207 38.28427 31.036"/><polygon class="cls-19" points="7.09829 33.46292 7.09829 42.0115 12.66186 45.3188 12.66186 36.59925 7.09829 33.46292"/><polygon class="cls-19" points="14.66331 37.81131 14.66331 46.3599 20.22688 49.6672 20.22688 40.94765 14.66331 37.81131"/></g><path class="cls-6" d="M31.07389,54.1225s8.40186-4.80106,8.11945-4.58925,0-13.69887,0-13.69887l-8.26065,4.37744s-.14121,13.91068,.14121,13.91068Z"/></g><g><path class="cls-13" d="M25.36272,103.54891c.00075-.02183,.00087-.04333,0-.06522V61.88738h-2.94056v41.56712c-.0025,.03933-.00266,.07808,0,.11741v.00929h.00119c.0212,.27154,.15993,.53891,.42737,.74646,.57833,.44883,1.51245,.44883,2.08705,0,.2657-.20755,.4022-.47492,.4211-.74646h.00385v-.03229Z"/><g><path class="cls-5" d="M48.78436,46.82137l-.01197,4.22008c-.01018,3.59224-2.37186,7.17874-7.08735,9.91909-9.49029,5.51516-24.92869,5.51904-34.48767,.00017C2.39047,58.18544-.01028,54.5413,.00003,50.90273l.01195-4.22007c-.0103,3.63857,2.39045,7.28271,7.19735,10.05798,9.55898,5.51888,24.99737,5.51499,34.48767-.00017,4.71549-2.74034,7.07718-6.32685,7.08736-9.91909Z"/><g class="cls-12"><g class="cls-9"><path class="cls-5" d="M48.78436,46.82137l-.01196,4.22008c-.0002,.0714-.00133,.1428-.00339,.2142l.01196-4.22008c.00206-.07139,.00319-.14279,.00339-.2142"/><path class="cls-5" d="M48.78097,47.03557l-.01196,4.22008c-.01349,.46732-.06679,.93425-.1599,1.39896l.01196-4.22008c.09311-.46471,.14641-.93164,.1599-1.39896"/><path class="cls-5" d="M48.62107,48.43452l-.01196,4.22008c-.09225,.4604-.22357,.91861-.39399,1.37282l.01196-4.22008c.17041-.45422,.30174-.91243,.39399-1.37282"/><path class="cls-5" d="M48.22709,49.80735l-.01196,4.22008c-.17521,.467-.39173,.92978-.64957,1.38639l.01196-4.22008c.25784-.45661,.47436-.91939,.64957-1.38639"/><path class="cls-5" d="M47.57751,51.19374l-.01196,4.22008c-.27884,.4938-.60601,.98038-.98152,1.45726l.01196-4.22008c.3755-.47688,.70267-.96346,.98152-1.45726"/><path class="cls-5" d="M46.596,52.651l-.01196,4.22008c-.43834,.55669-.94255,1.10017-1.51263,1.6265l.01196-4.22008c.57008-.52633,1.07429-1.06981,1.51263-1.6265"/><path class="cls-5" d="M45.08337,54.27751l-.01196,4.22008c-.87454,.80742-1.9041,1.57449-3.08872,2.28699l.01196-4.22008c1.18462-.7125,2.21419-1.47957,3.08872-2.28699"/><path class="cls-5" d="M41.99464,56.5645l-.01196,4.22008c-.09815,.05903-.19736,.11769-.29764,.17597-1.62671,.94534-3.42819,1.72876-5.34485,2.35019l.01196-4.22008c1.91667-.62143,3.71814-1.40485,5.34485-2.35019,.10028-.05828,.19949-.11693,.29764-.17597"/><path class="cls-5" d="M36.35215,59.09066l-.01196,4.22008c-1.47953,.4797-3.02771,.86289-4.61713,1.14952l.01196-4.22008c1.58942-.28663,3.13759-.66982,4.61713-1.14952"/><path class="cls-5" d="M31.73502,60.24018l-.01196,4.22008c-1.02233,.18437-2.06173,.32879-3.1109,.43326l.01196-4.22008c1.04917-.10447,2.08857-.24889,3.1109-.43326"/><path class="cls-5" d="M28.62412,60.67344l-.01196,4.22008c-.89575,.08919-1.79862,.14927-2.70408,.18021l.01196-4.22008c.90546-.03095,1.80833-.09102,2.70408-.18021"/><path class="cls-5" d="M25.92004,60.85365l-.01196,4.22008c-.83143,.02842-1.66504,.03228-2.49731,.01157l.01196-4.22008c.83228,.0207,1.66589,.01684,2.49731-.01157"/><path class="cls-5" d="M23.42273,60.86522l-.01196,4.22008c-.80279-.01997-1.60434-.06279-2.4015-.12847l.01196-4.22008c.79716,.06568,1.59871,.1085,2.4015,.12847"/><path class="cls-5" d="M21.02123,60.73676l-.01196,4.22008c-.79554-.06554-1.5867-.15385-2.37036-.26492l.01196-4.22008c.78366,.11107,1.57482,.19937,2.37036,.26492"/><path class="cls-5" d="M18.65087,60.47184l-.01196,4.22008c-.81503-.11552-1.62194-.25566-2.4172-.42043l.01196-4.22008c.79526,.16477,1.60217,.30491,2.4172,.42043"/><path class="cls-5" d="M16.23367,60.05141l-.01196,4.22008c-.86302-.17881-1.71232-.38662-2.5434-.62343l.01196-4.22008c.83108,.23682,1.68038,.44463,2.5434,.62343"/><path class="cls-5" d="M13.69027,59.42798l-.01196,4.22008c-1.01723-.28986-2.00716-.62318-2.96154-.99996l.01196-4.22008c.95438,.37678,1.94431,.7101,2.96154,.99996"/><path class="cls-5" d="M10.72873,58.42802l-.01196,4.22008c-1.2391-.48919-2.41826-1.05165-3.5194-1.68739C2.39047,58.18544-.01028,54.5413,.00003,50.90273l.01196-4.22008c-.01032,3.63857,2.39044,7.28272,7.19734,10.05798,1.10114,.63574,2.2803,1.1982,3.5194,1.68739"/></g></g></g><ellipse class="cls-8" cx="24.39695" cy="46.75227" rx="14.12544" ry="24.38668" transform="translate(-22.42429 71.01658) rotate(-89.83757)"/></g><g><g><g><g class="cls-9"><polygon class="cls-18" points="23.22168 38.2913 23.30588 58.72889 45.43614 45.95198 45.35193 25.5144 23.22168 38.2913"/><polygon class="cls-15" points="23.22168 38.2913 3.66455 26.92594 3.74876 47.36353 23.30588 58.72889 23.22168 38.2913"/><polygon class="cls-11" points="45.35193 25.5144 25.79481 14.14904 3.66455 26.92594 23.22168 38.2913 45.35193 25.5144"/></g><g class="cls-9"><polygon class="cls-10" points="24.17839 37.46432 24.17545 38.49797 3.09582 26.32212 3.09875 25.28846 24.17839 37.46432"/><polygon class="cls-14" points="24.17839 37.46432 44.9947 25.3672 44.99177 26.40085 24.17545 38.49797 24.17839 37.46432"/><polygon class="cls-11" points="3.09875 25.28846 24.06994 13.22322 44.9947 25.3672 24.17839 37.46432 3.09875 25.28846"/></g><g class="cls-9"><polygon class="cls-8" points="38.42183 25.03471 24.42763 37.51704 24.43187 39.01163 38.43853 30.92487 38.42183 25.03471"/><polygon class="cls-21" points="38.42183 25.03471 14.13287 11.24414 .13867 23.72647 24.42763 37.51704 38.42183 25.03471"/><polygon class="cls-8" points="24.42763 37.51704 .13867 23.72647 .14291 25.22106 24.43187 39.01163 24.42763 37.51704"/></g><polygon class="cls-5" points="48.278 24.44721 38.24005 25.06629 14.18773 11.27268 24.80055 11.00736 48.278 24.44721"/></g><polygon class="cls-8" points="38.28427 31.036 48.18956 25.24317 48.18956 24.44721 38.32849 25.02207 38.28427 31.036"/><polygon class="cls-19" points="7.09829 33.46292 7.09829 42.0115 12.66186 45.3188 12.66186 36.59925 7.09829 33.46292"/><polygon class="cls-19" points="14.66331 37.81131 14.66331 46.3599 20.22688 49.6672 20.22688 40.94765 14.66331 37.81131"/></g><path class="cls-6" d="M31.07389,54.1225s8.40186-4.80106,8.11945-4.58925,0-13.69887,0-13.69887l-8.26065,4.37744s-.14121,13.91068,.14121,13.91068Z"/></g><g class="cls-9"><polygon class="cls-7" points="32.31236 14.97266 32.2727 28.96362 9.75253 15.9616 9.7922 1.97064 32.31236 14.97266"/><polygon class="cls-20" points="32.31236 14.97266 35.70337 13.00202 35.6637 26.99298 32.2727 28.96362 32.31236 14.97266"/><polygon class="cls-20" points="9.7922 1.97064 13.18321 0 35.70337 13.00202 32.31236 14.97266 9.7922 1.97064"/></g><g><path class="cls-4" d="M34.20069,59.60981l14.93058-8.18272c.34405-.18856,.55881-.54488,.56241-.93317l.06979-7.52225c.01293-1.39364-.3191-2.7782-1.02138-3.98809-.16646-.28678-.35145-.56097-.55383-.79833-1.06094-1.24433-2.94394-2.67181-4.65712-1.72495l-16.0668,8.74487c-.56482,.31233-.91683,.89893-.92276,1.53772l-.0739,7.96601c-.00676,.72906,.37635,1.40733,1.00883,1.78522,1.55108,.92673,4.45081,2.48343,5.64927,3.12228,.33626,.17925,.741,.17642,1.07492-.00659Z"/><path class="cls-1" d="M29.501,51.25964l.02345-2.52774c.00807-.86978,.48383-1.66961,1.24955-2.10071l15.97229-8.97088"/><g><path class="cls-16" d="M35.13941,44.98563l-1.88129-1.06049c-.09839-.05546-.0984-.19535-.00002-.2507l1.25162-.70417c.04677-.02631,.10444-.02516,.15012,.00302l1.84871,1.14002c.09607,.05924,.0905,.19899-.00999,.25048l-1.21903,.62464c-.04413,.02261-.09691,.02156-.14011-.00279Z"/><path class="cls-16" d="M41.89091,41.15489l-1.88129-1.06049c-.09839-.05546-.0984-.19535-.00002-.2507l1.25162-.70417c.04677-.02631,.10444-.02516,.15012,.00302l1.84871,1.14002c.09607,.05924,.0905,.19899-.00999,.25048l-1.21903,.62464c-.04413,.02261-.09691,.02156-.14011-.00279Z"/><path class="cls-2" d="M34.7732,43.64828l.0223-2.40333c.00302-.3256,.18173-.62481,.46896-.78518l5.04745-2.81812c.62006-.34619,1.38793,.10023,1.38141,.80311l-.01234,1.33016"/></g><line class="cls-3" x1="48.55358" y1="41.574" x2="34.25451" y2="49.87711"/><path class="cls-3" d="M33.51181,58.96097l.06771-7.29785c.01009-1.08737-.33539-2.14973-.98736-3.02712-.2979-.4009-.56391-.8082-.75313-.99012-1.501-1.44314-3.47309-1.78693-3.47309-1.78693"/></g><g><path class="cls-21" d="M40.98692,48.50733c-.40355,.24438-.71238,.79435-.70455,1.24034,.00336,.04312,.00678,.0937,.0134,.13117l.47754,2.48749,.00992,.04308c.04598,.24482,.25166,.31276,.48367,.17881l1.66091-.97165,.79747,1.31681c.05551,.08963,.16269,.09912,.27361,.03508,.04646-.02682,.09358-.06653,.1378-.11866,.13352-.15594,.19501-.36788,.15539-.50646l-.60993-1.94927c-.05611-.18535-.23262-.22235-.42181-.11312l-.03831,.02212c-.01092,.00869-.02207,.01651-.03344,.02307l-.01634,.0061-1.42452,.83612-.0322-1.573-.39922-.46339c-.04918-.06171-.02993-.19294,.04817-.29812,.02856-.03841,.06101-.06756,.0933-.08621,.05615-.03242,.11172-.03303,.14497,.00496l.09729,.11298c-.02114-.41948-.33577-.57608-.71311-.35822Z"/><path class="cls-21" d="M38.66675,50.34633c-.09786,.0565-.17914,.19727-.17881,.31346,.00032,.11245,.08212,.15907,.17999,.10257l.68501-.39549,.00413,1.45565,.00007,.02491c.00032,.11243,.07889,.16094,.17999,.10257,.10114-.05839,.18241-.19919,.18209-.31162l-.00108-.37981-.00371-1.30689c-.00033-.11619-.08213-.16281-.18327-.10442l-.86441,.49907Z"/><path class="cls-21" d="M40.12843,50.76764c-.14722,.15476-.28413,.3193-.41029,.49093l.00108,.37981c.00032,.11243-.08095,.25323-.18209,.31162-.10109,.05837-.17967,.00986-.17999-.10257l-.00007-.02491c-.38772,.70195-.59975,1.47247-.57864,2.17988,.01827,.6915,.27457,1.20054,.72282,1.42229,.42861,.21809,.98715,.15091,1.57101-.18618l.06848-.0433c.84151-.51212,1.5967-1.50376,1.97268-2.58058l-.3235-.00095c-.3176,.90795-.95236,1.73998-1.66013,2.17114-.02424,.01504-.04849,.02957-.0726,.04349-.48861,.2821-.95032,.33261-1.30891,.14966-.37624-.18824-.59312-.61117-.6078-1.19587-.02554-.92758,.39307-1.93891,1.12603-2.70746l-.13807-.30698Z"/><path class="cls-21" d="M41.45778,48.74763c-.0323,.01865-.06474,.04779-.0933,.0862-.0781,.10518-.09735,.23642-.04817,.29813l.39922,.46339,.71534,.83035c.01966,.0262,.04911,.03547,.08504,.02976l.61718-.10854,.03918-.01468,.01633-.0061c.01137-.00656,.02252-.01437,.03344-.02307,.05792-.04615,.10752-.1202,.12927-.20227,.02909-.11818-.01693-.20422-.10508-.19088l-.56168,.09903-.98451-1.14339-.09728-.11297c-.03326-.03798-.08882-.03737-.14497-.00496Z"/><path class="cls-21" d="M40.85224,46.88c-.3523,.20335-.64503,.69616-.65656,1.1119-.01509,.4292,.26968,.61769,.63509,.42549,.01-.00524,.02-.01078,.02991-.0165,.35222-.20335,.64473-.69248,.65626-1.11175,.01514-.42922-.26968-.61769-.63504-.42551-.00991,.00521-.01982,.01071-.02964,.01638Z"/></g><g><path class="cls-5" d="M12.22173,11.348c.24327,.14045,.3726,.36444,.37181,.64394l-.00322,1.13667c-.00079,.27951-.13094,.34435-.37421,.2039l-1.00539-.58046c-.24327-.14045-.3645-.35042-.3637-.62993l.00322-1.13667c.00079-.27951,.12284-.35836,.36611-.21791l1.00539,.58046Zm-.03652,1.41607l.00248-.87579c.00024-.08385-.03206-.14916-.11312-.19596l-.70537-.40724c-.08117-.04686-.11371-.02832-.11397,.06485l-.00248,.87579,.11324,.19603,.70537,.40724,.11386-.06491"/><path class="cls-5" d="M12.3943,10.61707c.08919,.05149,.15384,.17281,.15347,.30325s-.0655,.17683-.15469,.12533l-1.33783-.7724c-.09721-.05612-.16999-.19146-.16964-.31258,.00037-.13044,.0655-.17683,.17086-.116l1.33783,.7724Z"/><path class="cls-5" d="M12.3966,9.8065c.08919,.05149,.15384,.17281,.15347,.30325s-.0655,.17683-.15469,.12533l-1.33783-.7724c-.09721-.05612-.16999-.19146-.16964-.31258,.00037-.13044,.0655-.17683,.17086-.116l1.33783,.7724Z"/><path class="cls-5" d="M11.06218,7.83222c-.09721-.05612-.16996-.20078-.16962-.3219,.00037-.13044,.0655-.17683,.17088-.12529l1.32981,.76777c.09721,.05612,.16183,.18673,.16146,.31717-.00034,.12112-.06552,.18614-.16273,.13002l-1.32981-.76777Z"/><path class="cls-5" d="M12.75505,9.41619c-.00037,.13044-.06538,.17689-.1627,.1207l-1.75948-1.01584c-.09732-.05619-.17001-.18215-.16964-.31258,.0004-.13975,.06541-.18621,.17091-.13463l1.75948,1.01584c.09732,.05619,.16181,.19607,.16144,.32651Z"/><path class="cls-5" d="M15.36691,10.58819c.09732,.05619,.17809,.20547,.17769,.34525-.00037,.13041-.08172,.1861-.17904,.12991l-1.38655-.80052-.00011,.03727-.00026,.09317c-.00135,.47516-.00153,.54038-.01002,.69413l.8919,.51494c.15408,.08896,.25931,.18704,.31583,.30366,.08895,.13535,.09687,.21458,.09595,.54067-.00232,.81989-.07038,1.90046-.13609,2.15182-.08199,.28862-.23641,.32079-.59317,.11481-.64863-.37449-.81868-.53799-.81807-.75228,.00045-.15839,.09797-.21407,.24392-.12981l.09729,.06551c.08914,.07013,.33233,.23853,.40523,.28062,.14604,.08431,.22731,.05658,.26024-.10172,.07383-.27467,.0998-.81027,.12682-1.75589l.00018-.06522c.0004-.13975-.04008-.20045-.15358-.26598l-.75411-.43538c-.05114,.86636-.20723,1.48549-.50889,1.89925-.20384,.29293-.39102,.41819-.52881,.33864-.12165-.07023-.23479-.25688-.23442-.38731,.00026-.09317,.0083-.08853,.13856-.19066,.57-.52014,.74237-1.17653,.73121-2.95608l.00021-.07454,.00048-.1677-.53512-.30895c-.10547-.0609-.18624-.21018-.18585-.34994s.07368-.18144,.18719-.12523l.83514,.48217,.00193-.68014c.00037-.13044,.08164-.1675,.21142-.09258,.12966,.07486,.22675,.2149,.22638,.34534l-.00193,.68014,1.07841,.62262Z"/><path class="cls-5" d="M19.41137,16.3295c-.00082,.28883-.13102,.36297-.39043,.2132l-1.61355-.93159c-.2514-.14515-.37249-.36437-.37164-.66251l.0032-1.12735c.00082-.28883,.12273-.35843,.37412-.21328l1.61355,.93159c.25942,.14977,.3888,.36445,.38798,.65328l-.00322,1.13667Zm-.42938-.38789l.0024-.84784-.11312-.19596-1.29727-.74898-.11397,.06485-.0024,.84784,.11324,.19603,1.29727,.74898,.11386-.06491"/><path class="cls-5" d="M20.05532,12.64179c.26757,.15448,.40492,.39243,.40404,.69988l-.01199,4.22989c-.00069,.24224-.05787,.36787-.1716,.3862-.09753,.00902-.1949-.02851-.49491-.20172-.25944-.14979-.50266-.3089-.64847-.43042-.12159-.08887-.19423-.22413-.19386-.35456,.00048-.1677,.09797-.20474,.25203-.11579l.08919,.05149c.17017,.12627,.39721,.27599,.51071,.34152,.16221,.09365,.21097,.06581,.21145-.10189l.00695-2.45035-1.1919-.68815c-.25942-.14977-.38877-.37377-.38793-.67191l.00335-1.18325c.00085-.29814,.13104-.37229,.39046-.22251l1.23249,.71158Zm-.04537,1.66293l.00129-.45653-1.15945-.66941-.00092,.32612,.09695,.1866,1.06213,.61322m.0024-.84784l.0009-.31678-.105-.18194-.95679-.5524-.09766,.06493-.0009,.31678,1.15945,.66941"/><path class="cls-5" d="M18.03169,13.10658c-.00085,.29814-.13908,.36764-.3985,.21787l-1.1676-.67412-.00845,2.98142c-.0004,.13975-.09798,.17674-.21963,.1065-.12964-.07485-.21857-.21951-.21817-.35927l.01302-4.59325c.00087-.30746,.13096-.391,.39853-.23652l1.20819,.69755c.25942,.14977,.39681,.37841,.39597,.67656l-.00335,1.18325Zm-.42948-.32259l.00092-.32612-1.13515-.65538-.00129,.45653,1.02166,.58985,.11386-.06489m.00203-.71743l.0009-.31678-.10511-.182-.9162-.52897-.11384,.0556-.0009,.31678,1.13515,.65538"/><path class="cls-5" d="M24.40437,16.93516c.13782,.07957,.24284,.25219,.24247,.38263l-.00848,2.99076c-.00037,.13044-.106,.17208-.24382,.09251-.13791-.07962-.23496-.22898-.23457-.36871l.00848-2.99076c.00037-.13044,.10616-.18134,.23591-.10643Z"/><path class="cls-5" d="M22.45838,15.81165c.12966,.07486,.23485,.23824,.23448,.36868l-.00261,.92238c-.0023,.81057-.11721,1.23883-.4103,1.49893-.21987,.19966-.56929,.27789-.74767,.1749-.12975-.07491-.23486-.26622-.23444-.41532,.00034-.12112,.02486-.14429,.17915-.1672,.52818-.07767,.7567-.48701,.74295-1.34417l.00267-.94101c.00037-.13044,.09787-.1768,.23578-.09718Z"/><path class="cls-5" d="M25.6209,17.52554c.14571,.16812,.20223,.27541,.20186,.40584-.00048,.1677-.1063,.23726-.22783,.16709-.15406-.08894-.54253-.57453-.9955-1.22801-.52569-.76079-.79242-1.21341-1.19628-2.01585-.41548,.46004-.87098,.69166-1.53711,.78301-.31695,.05031-.56061,.04962-.65782-.00651-.12165-.07023-.23474-.27551-.23429-.4339l.10594-.14414q.02435-.0046,.12183-.00432c.73891,.04399,1.46254-.23814,1.88622-.7121,.08964-.10689,.17899-.11128,.31678-.03172,.15408,.08896,.20258,.15426,.36415,.47152,.49249,1.01225,1.0749,1.86177,1.85204,2.74907Z"/><path class="cls-5" d="M30.80126,23.66137c.13774,.09822,.20242,.21019,.20207,.33131-.0004,.13975-.08175,.19547-.20337,.12525-.03246-.01874-.07302-.04216-.17028-.12631-.41323-.3319-.75334-.65891-1.15818-1.11665-.43853-.00122-1.20956-.17573-1.46095-.32088-.11349-.06552-.20239-.21951-.20202-.34992l.11399-.11152c.03248,.00945,.04064,.0048,.13801,.04235,.31639,.10801,.73027,.21632,1.00634,.24505-.25889-.34544-.5096-.73283-.72774-1.14807l-.23512-.13574c-.08106-.0468-.13756-.16341-.13724-.27521,.00034-.12112,.05729-.1629,.13835-.1161l2.31892,1.33883c.17036,.09836,.27549,.23371,.27512,.36415-.00061,.21429-.32594,.39041-.81343,.44492,.25108,.25697,.6237,.58406,.91552,.80854Zm-1.32844-1.25225l.02435-.0046c.28433-.00382,.60122-.07284,.6014-.13805l-.10531-.07946-1.18377-.68345c.194,.30798,.40431,.60671,.66333,.90557"/><polygon class="cls-5" points="28.5632 19.56024 29.34974 20.01434 29.34905 20.25659 28.56251 19.80248 28.5632 19.56024"/><path class="cls-5" d="M27.73851,18.26287l-1.49191-.86135c-.00451-.00216-.0089-.00452-.01331-.00706-.08984-.05187-.14864-.17644-.14829-.30088,.00037-.13044,.06552-.18614,.16284-.12996l1.49191,.86135c.08919,.05149,.15381,.18213,.15344,.31256-.00037,.13046-.0655,.17683-.15469,.12533Z"/><path class="cls-5" d="M27.54278,18.53249c.09732,.05619,.15381,.18213,.15347,.30325-.00037,.13044-.06552,.18614-.15471,.13465l-1.11076-.64129c-.08919-.05149-.16194-.18682-.16158-.31726,.00034-.12112,.06547-.16751,.16282-.12064l1.11076,.64129Z"/><path class="cls-5" d="M26.4297,18.71108l1.11076,.64129c.09732,.05619,.15381,.18213,.15347,.30325-.00034,.12115-.05736,.18152-.15469,.12533l-1.11076-.64129c-.08919-.05149-.16194-.18679-.1616-.30794,.00034-.12112,.06547-.16751,.16282-.12064Z"/><path class="cls-5" d="M27.39214,20.10664c.2271,.13111,.34826,.33172,.34747,.61123l-.00333,1.17393c-.00077,.27022-.12267,.33046-.34977,.19935l-.81084-.46814c-.23512-.13574-.34824-.33168-.34747-.6019l.00333-1.17393c.00079-.27951,.11465-.34442,.34977-.20868l.81084,.46814Zm-.03655,1.43472l.00259-.91306-.11315-.18664-.51897-.29963-.1057,.06029-.00259,.91306,.10502,.18195,.51897,.29963,.11384-.0556"/><g class="cls-9"><path class="cls-5" d="M26.43546,16.67999c-.08919-.05149-.16194-.18682-.1616-.30794,.00037-.13044,.0655-.17683,.16284-.12996l1.10271,.63665c.09723,.05614,.16185,.18677,.16148,.31721-.00034,.12112-.0655,.17683-.16273,.12069l-1.10271-.63665Z"/><path class="cls-5" d="M28.17427,19.24237c-.17091,.13463-.20342,.14386-.28448,.09706-.09732-.05619-.18625-.20085-.1859-.32197l.08969-.12553c.23591-.14376,.42326-.32489,.59454-.59929l.17065-.04146,.09724,.08414-.00803-.04196,.00045-.15839-.63235-.36509c-.09734-.0562-.16199-.17752-.16165-.29864s.06547-.16751,.16281-.11131l.63235,.36509,.00061-.21429c.00032-.1118,.0817-.1488,.20324-.07864,.1136,.06559,.1944,.19623,.19409,.30803l-.00061,.21429,.72969,.42129,.00061-.21429c.00032-.1118,.08974-.14416,.20335-.07857,.11349,.06552,.19429,.19616,.19397,.30797l-.00061,.21429,.63248,.36516c.08917,.05148,.16186,.17744,.16152,.29856s-.07351,.16287-.16268,.11139l-.63248-.36516-.00042,.14907c-.00032,.1118-.08157,.13955-.19506,.07403l-.12157-.09818,.01599,.07456c-.00013,.04658-.00832,.06052-.08162,.15819l.98107,.56642c.06489,.03746,.12141,.14475,.12115,.23792s-.04905,.13033-.12207,.08817l-1.03783-.59919-.00071,.25156,.87562,.50554,.12117,.22861-.12207,.08817-.87562-.50554-.00069,.24224,.88375,.51023,.1212,.22862-.12209,.08816-.88375-.51023-.00074,.26087,1.07841,.62262c.06478,.0374,.12141,.14475,.12112,.24724-.00026,.09317-.0573,.12557-.12207,.08817l-2.29462-1.3248c-.21897-.12642-.34022-.32708-.33951-.57863l.00246-.86648Zm.57045-.68783c-.00013,.04656-.01644,.08381-.07363,.17211l.72165,.41665c.05708-.08836,.08165-.13017,.11426-.20467l.15445-.04148,.12964,.12151-.01607-.08394,.00042-.14907-.72969-.42129-.00045,.15839c-.00032,.1118-.08157,.13955-.19517,.07396l-.10531-.07946-.00011,.03729m-.18311,1.56472l-.00042,.14907,.097,.16799,.68922,.39792,.00074-.26087-.78654-.45411m.00285-1.0062l-.00037,.13041,.78654,.45411,.00071-.25156-.68922-.39792-.09766,.06496"/></g></g></g></g></svg>