<?xml version="1.0" encoding="UTF-8"?><svg id="_レイヤー_2" xmlns="http://www.w3.org/2000/svg" xmlns:xlink="http://www.w3.org/1999/xlink" viewBox="0 0 50.58513 103.292"><defs><style>.cls-1{fill:#476998;}.cls-2{fill:#e17c00;}.cls-3{fill:#b7bbbe;}.cls-4{fill:#fbfbfd;}.cls-5{fill:#f19700;}.cls-6{isolation:isolate;}.cls-7{fill:#707ead;}.cls-8{clip-path:url(#clippath-1);}.cls-9{fill:#424242;}.cls-10{fill:url(#_名称未設定グラデーション_78);}.cls-11{fill:#e7e6f0;}.cls-12{clip-path:url(#clippath);}.cls-13{fill:#e8993c;}.cls-14{fill:#ced3de;}.cls-15{fill:#999;}.cls-16{fill:#5daddd;}.cls-17{fill:#c5c8cc;}.cls-18{fill:none;stroke:#999;stroke-linecap:round;stroke-miterlimit:10;stroke-width:.93626px;}</style><linearGradient id="_名称未設定グラデーション_78" x1="25.69251" y1="55.85147" x2="25.69251" y2="127.18158" gradientUnits="userSpaceOnUse"><stop offset="0" stop-color="#949494"/><stop offset="1" stop-color="#000"/></linearGradient><clipPath id="clippath"><path class="cls-2" d="M50.58509,45.4491l-.01197,4.22008c-.01018,3.59224-2.37186,7.17874-7.08735,9.91909-9.49029,5.51516-24.92869,5.51904-34.48767,.00017-4.8069-2.77526-7.20765-6.41941-7.19734-10.05798l.01195-4.22007c-.0103,3.63857,2.39045,7.28271,7.19735,10.05798,9.55898,5.51888,24.99737,5.51499,34.48767-.00017,4.71549-2.74034,7.07718-6.32685,7.08736-9.91909Z"/></clipPath><clipPath id="clippath-1"><path class="cls-2" d="M50.58509,45.4491l-.01197,4.22008c-.01018,3.59224-2.37186,7.17874-7.08735,9.91909-9.49029,5.51516-24.92869,5.51904-34.48767,.00017-4.8069-2.77526-7.20765-6.41941-7.19734-10.05798l.01195-4.22007c-.0103,3.63857,2.39045,7.28271,7.19735,10.05798,9.55898,5.51888,24.99737,5.51499,34.48767-.00017,4.71549-2.74034,7.07718-6.32685,7.08736-9.91909Z"/></clipPath></defs><g id="_レイヤー_1-2"><g><g><path class="cls-10" d="M27.16345,102.17664c.00075-.02183,.00087-.04333,0-.06522V60.5151h-2.94056v41.56712c-.0025,.03933-.00266,.07808,0,.11741v.00929h.00119c.0212,.27154,.15993,.53891,.42737,.74646,.57833,.44883,1.51245,.44883,2.08705,0,.2657-.20755,.4022-.47492,.4211-.74646h.00385v-.03229Z"/><g><path class="cls-2" d="M50.58509,45.4491l-.01197,4.22008c-.01018,3.59224-2.37186,7.17874-7.08735,9.91909-9.49029,5.51516-24.92869,5.51904-34.48767,.00017-4.8069-2.77526-7.20765-6.41941-7.19734-10.05798l.01195-4.22007c-.0103,3.63857,2.39045,7.28271,7.19735,10.05798,9.55898,5.51888,24.99737,5.51499,34.48767-.00017,4.71549-2.74034,7.07718-6.32685,7.08736-9.91909Z"/><g class="cls-12"><g class="cls-6"><path class="cls-2" d="M50.58509,45.4491l-.01196,4.22008c-.0002,.0714-.00133,.1428-.00339,.2142l.01196-4.22008c.00206-.07139,.00319-.14279,.00339-.2142"/><path class="cls-2" d="M50.5817,45.6633l-.01196,4.22008c-.01349,.46732-.06679,.93425-.1599,1.39896l.01196-4.22008c.09311-.46471,.14641-.93164,.1599-1.39896"/><path class="cls-2" d="M50.4218,47.06225l-.01196,4.22008c-.09225,.4604-.22357,.91861-.39399,1.37282l.01196-4.22008c.17041-.45422,.30174-.91243,.39399-1.37282"/><path class="cls-2" d="M50.02782,48.43508l-.01196,4.22008c-.17521,.467-.39173,.92978-.64957,1.38639l.01196-4.22008c.25784-.45661,.47436-.91939,.64957-1.38639"/><path class="cls-2" d="M49.37825,49.82147l-.01196,4.22008c-.27884,.4938-.60601,.98038-.98152,1.45726l.01196-4.22008c.3755-.47688,.70267-.96346,.98152-1.45726"/><path class="cls-2" d="M48.39673,51.27873l-.01196,4.22008c-.43834,.55669-.94255,1.10017-1.51263,1.6265l.01196-4.22008c.57008-.52633,1.07429-1.06981,1.51263-1.6265"/><path class="cls-2" d="M46.8841,52.90524l-.01196,4.22008c-.87454,.80742-1.9041,1.57449-3.08872,2.28699l.01196-4.22008c1.18462-.7125,2.21419-1.47957,3.08872-2.28699"/><path class="cls-2" d="M43.79538,55.19223l-.01196,4.22008c-.09815,.05903-.19736,.11769-.29764,.17597-1.62671,.94534-3.42819,1.72876-5.34485,2.35019l.01196-4.22008c1.91667-.62143,3.71814-1.40485,5.34485-2.35019,.10028-.05828,.19949-.11693,.29764-.17597"/><path class="cls-2" d="M38.15288,57.71838l-.01196,4.22008c-1.47953,.4797-3.02771,.86289-4.61713,1.14952l.01196-4.22008c1.58942-.28663,3.13759-.66982,4.61713-1.14952"/><path class="cls-2" d="M33.53575,58.8679l-.01196,4.22008c-1.02233,.18437-2.06173,.32879-3.1109,.43326l.01196-4.22008c1.04917-.10447,2.08857-.24889,3.1109-.43326"/><path class="cls-2" d="M30.42485,59.30116l-.01196,4.22008c-.89575,.08919-1.79862,.14927-2.70408,.18021l.01196-4.22008c.90546-.03095,1.80833-.09102,2.70408-.18021"/><path class="cls-2" d="M27.72078,59.48138l-.01196,4.22008c-.83143,.02842-1.66504,.03228-2.49731,.01157l.01196-4.22008c.83228,.0207,1.66589,.01684,2.49731-.01157"/><path class="cls-2" d="M25.22346,59.49295l-.01196,4.22008c-.80279-.01997-1.60434-.06279-2.4015-.12847l.01196-4.22008c.79716,.06568,1.59871,.1085,2.4015,.12847"/><path class="cls-2" d="M22.82196,59.36448l-.01196,4.22008c-.79554-.06554-1.5867-.15385-2.37036-.26492l.01196-4.22008c.78366,.11107,1.57482,.19937,2.37036,.26492"/><path class="cls-2" d="M20.4516,59.09957l-.01196,4.22008c-.81503-.11552-1.62194-.25566-2.4172-.42043l.01196-4.22008c.79526,.16477,1.60217,.30491,2.4172,.42043"/><path class="cls-2" d="M18.0344,58.67914l-.01196,4.22008c-.86302-.17881-1.71232-.38662-2.5434-.62343l.01196-4.22008c.83108,.23682,1.68038,.44463,2.5434,.62343"/><path class="cls-2" d="M15.491,58.05571l-.01196,4.22008c-1.01723-.28986-2.00716-.62318-2.96154-.99996l.01196-4.22008c.95438,.37678,1.94431,.7101,2.96154,.99996"/><path class="cls-2" d="M12.52947,57.05575l-.01196,4.22008c-1.2391-.48919-2.41826-1.05165-3.5194-1.68739-4.8069-2.77526-7.20765-6.41941-7.19734-10.05798l.01196-4.22008c-.01032,3.63857,2.39044,7.28272,7.19734,10.05798,1.10114,.63574,2.2803,1.1982,3.5194,1.68739"/></g></g></g><ellipse class="cls-13" cx="26.19768" cy="45.38" rx="14.12544" ry="24.38668" transform="translate(-19.2564 71.44892) rotate(-89.83757)"/></g><g><path class="cls-10" d="M27.16345,102.17664c.00075-.02183,.00087-.04333,0-.06522V60.5151h-2.94056v41.56712c-.0025,.03933-.00266,.07808,0,.11741v.00929h.00119c.0212,.27154,.15993,.53891,.42737,.74646,.57833,.44883,1.51245,.44883,2.08705,0,.2657-.20755,.4022-.47492,.4211-.74646h.00385v-.03229Z"/><g><path class="cls-2" d="M50.58509,45.4491l-.01197,4.22008c-.01018,3.59224-2.37186,7.17874-7.08735,9.91909-9.49029,5.51516-24.92869,5.51904-34.48767,.00017-4.8069-2.77526-7.20765-6.41941-7.19734-10.05798l.01195-4.22007c-.0103,3.63857,2.39045,7.28271,7.19735,10.05798,9.55898,5.51888,24.99737,5.51499,34.48767-.00017,4.71549-2.74034,7.07718-6.32685,7.08736-9.91909Z"/><g class="cls-8"><g class="cls-6"><path class="cls-2" d="M50.58509,45.4491l-.01196,4.22008c-.0002,.0714-.00133,.1428-.00339,.2142l.01196-4.22008c.00206-.07139,.00319-.14279,.00339-.2142"/><path class="cls-2" d="M50.5817,45.6633l-.01196,4.22008c-.01349,.46732-.06679,.93425-.1599,1.39896l.01196-4.22008c.09311-.46471,.14641-.93164,.1599-1.39896"/><path class="cls-2" d="M50.4218,47.06225l-.01196,4.22008c-.09225,.4604-.22357,.91861-.39399,1.37282l.01196-4.22008c.17041-.45422,.30174-.91243,.39399-1.37282"/><path class="cls-2" d="M50.02782,48.43508l-.01196,4.22008c-.17521,.467-.39173,.92978-.64957,1.38639l.01196-4.22008c.25784-.45661,.47436-.91939,.64957-1.38639"/><path class="cls-2" d="M49.37825,49.82147l-.01196,4.22008c-.27884,.4938-.60601,.98038-.98152,1.45726l.01196-4.22008c.3755-.47688,.70267-.96346,.98152-1.45726"/><path class="cls-2" d="M48.39673,51.27873l-.01196,4.22008c-.43834,.55669-.94255,1.10017-1.51263,1.6265l.01196-4.22008c.57008-.52633,1.07429-1.06981,1.51263-1.6265"/><path class="cls-2" d="M46.8841,52.90524l-.01196,4.22008c-.87454,.80742-1.9041,1.57449-3.08872,2.28699l.01196-4.22008c1.18462-.7125,2.21419-1.47957,3.08872-2.28699"/><path class="cls-2" d="M43.79538,55.19223l-.01196,4.22008c-.09815,.05903-.19736,.11769-.29764,.17597-1.62671,.94534-3.42819,1.72876-5.34485,2.35019l.01196-4.22008c1.91667-.62143,3.71814-1.40485,5.34485-2.35019,.10028-.05828,.19949-.11693,.29764-.17597"/><path class="cls-2" d="M38.15288,57.71838l-.01196,4.22008c-1.47953,.4797-3.02771,.86289-4.61713,1.14952l.01196-4.22008c1.58942-.28663,3.13759-.66982,4.61713-1.14952"/><path class="cls-2" d="M33.53575,58.8679l-.01196,4.22008c-1.02233,.18437-2.06173,.32879-3.1109,.43326l.01196-4.22008c1.04917-.10447,2.08857-.24889,3.1109-.43326"/><path class="cls-2" d="M30.42485,59.30116l-.01196,4.22008c-.89575,.08919-1.79862,.14927-2.70408,.18021l.01196-4.22008c.90546-.03095,1.80833-.09102,2.70408-.18021"/><path class="cls-2" d="M27.72078,59.48138l-.01196,4.22008c-.83143,.02842-1.66504,.03228-2.49731,.01157l.01196-4.22008c.83228,.0207,1.66589,.01684,2.49731-.01157"/><path class="cls-2" d="M25.22346,59.49295l-.01196,4.22008c-.80279-.01997-1.60434-.06279-2.4015-.12847l.01196-4.22008c.79716,.06568,1.59871,.1085,2.4015,.12847"/><path class="cls-2" d="M22.82196,59.36448l-.01196,4.22008c-.79554-.06554-1.5867-.15385-2.37036-.26492l.01196-4.22008c.78366,.11107,1.57482,.19937,2.37036,.26492"/><path class="cls-2" d="M20.4516,59.09957l-.01196,4.22008c-.81503-.11552-1.62194-.25566-2.4172-.42043l.01196-4.22008c.79526,.16477,1.60217,.30491,2.4172,.42043"/><path class="cls-2" d="M18.0344,58.67914l-.01196,4.22008c-.86302-.17881-1.71232-.38662-2.5434-.62343l.01196-4.22008c.83108,.23682,1.68038,.44463,2.5434,.62343"/><path class="cls-2" d="M15.491,58.05571l-.01196,4.22008c-1.01723-.28986-2.00716-.62318-2.96154-.99996l.01196-4.22008c.95438,.37678,1.94431,.7101,2.96154,.99996"/><path class="cls-2" d="M12.52947,57.05575l-.01196,4.22008c-1.2391-.48919-2.41826-1.05165-3.5194-1.68739-4.8069-2.77526-7.20765-6.41941-7.19734-10.05798l.01196-4.22008c-.01032,3.63857,2.39044,7.28272,7.19734,10.05798,1.10114,.63574,2.2803,1.1982,3.5194,1.68739"/></g></g></g><ellipse class="cls-13" cx="26.19768" cy="45.38" rx="14.12544" ry="24.38668" transform="translate(-19.2564 71.44892) rotate(-89.83757)"/></g><g><g><g class="cls-6"><polygon class="cls-14" points="25.90885 32.3676 25.98078 54.3762 44.8847 43.46202 44.81277 21.45342 25.90885 32.3676"/><polygon class="cls-11" points="25.90885 32.3676 3.47243 19.33296 3.54436 41.34156 25.98078 54.3762 25.90885 32.3676"/><polygon class="cls-17" points="44.81277 21.45134 22.37635 8.4167 3.47243 19.33088 25.90885 32.70646 44.81277 21.45134"/></g><polygon class="cls-16" points="5.78751 32.07254 5.78751 42.78359 23.20291 52.81466 23.20291 41.88939 5.78751 32.07254"/></g><polygon class="cls-11" points="14.53483 30.3574 12.90834 29.52334 12.98027 46.98136 14.60675 47.81542 14.53483 30.3574"/><g class="cls-6"><polygon class="cls-5" points="25.53115 37.80021 21.46015 40.8144 .00538 28.03437 3.41626 25.13467 25.53115 37.80021"/><polygon class="cls-2" points="21.51802 40.84563 21.51264 42.61027 0 30.03011 .00538 28.03437 21.51802 40.84563"/></g></g><g><ellipse class="cls-9" cx="33.55542" cy="45.10912" rx="6.37438" ry="3.69222" transform="translate(-22.30615 51.45607) rotate(-59.83757)"/><polyline class="cls-18" points="30.23762 52.25783 30.25433 45.14546 38.09634 40.35999"/><polyline class="cls-18" points="45.0937 45.32108 45.0498 38.99898 47.50839 37.46236"/><polyline class="cls-18" points="38.06915 41.06244 38.02524 34.74034 40.48384 33.20372"/><polygon class="cls-1" points="44.86744 39.07573 44.84322 47.61714 37.40994 43.32554 37.43416 34.78413 44.86744 39.07573"/><polygon class="cls-1" points="37.5136 52.57605 37.48939 54.77134 30.05611 50.47974 30.08032 48.28445 37.5136 52.57605"/><g class="cls-6"><polygon class="cls-7" points="44.87193 46.88527 37.48696 51.17695 30.05368 46.88534 37.43865 42.59367 44.87193 46.88527"/><polygon class="cls-1" points="44.87193 46.88527 44.86977 47.64848 37.4848 51.94015 37.48696 51.17695 44.87193 46.88527"/><polygon class="cls-1" points="37.48696 51.17695 37.4848 51.94015 30.05152 47.64855 30.05368 46.88534 37.48696 51.17695"/></g><polyline class="cls-18" points="37.19108 56.51647 37.20779 49.4041 45.0498 44.61862"/><ellipse class="cls-9" cx="42.74784" cy="51.08419" rx="6.37438" ry="3.69222" transform="translate(-22.89857 62.37674) rotate(-59.83757)"/><ellipse class="cls-15" cx="42.93169" cy="51.2159" rx="3.78393" ry="2.19176" transform="translate(-22.92097 62.60123) rotate(-59.83757)"/><circle class="cls-9" cx="37.19108" cy="56.82379" r="1.04663"/><circle class="cls-9" cx="30.12262" cy="52.34564" r="1.04663"/></g><g class="cls-6"><polygon class="cls-4" points="32.74082 14.97266 32.70116 28.96362 10.18099 15.9616 10.22066 1.97064 32.74082 14.97266"/><polygon class="cls-3" points="32.74082 14.97266 36.13183 13.00202 36.09216 26.99298 32.70116 28.96362 32.74082 14.97266"/><polygon class="cls-17" points="10.22066 1.97064 13.61167 0 36.13183 13.00202 32.74082 14.97266 10.22066 1.97064"/></g><g><path class="cls-2" d="M14.64107,12.27051c.21069,.12164,.31255,.29803,.31186,.54013l-.00358,1.26189c-.00064,.22741-.10319,.29313-.30106,.17889l-1.64086-.94735c-.19796-.11429-.2934-.28697-.29273-.52171l.00358-1.26189c.00069-.2421,.10319-.3005,.31389-.17885l1.6089,.9289Zm-.01706,1.51863l.00112-.39617-.64489-.37233-.00146,.51357,.54271,.31334c.07021,.04054,.10228,.02229,.10251-.05841m-.95801-.43551l.00146-.51357-.62575-.36128-.00112,.39617c-.00023,.0807,.02521,.13215,.08903,.169l.53638,.30968m.96005-.28346l.00106-.37416c.00021-.07336-.03165-.1285-.09546-.16534l-.54912-.31703-.00137,.48421,.64489,.37233m-.95768-.55292l.00137-.48421-.52998-.30598c-.06381-.03684-.09587-.01861-.09608,.05475l-.00106,.37416,.62575,.36128"/><path class="cls-2" d="M14.88233,10.63149l-2.09419-1.20908c-.08295-.04789-.14023-.16182-.13992-.27186,.00029-.10271,.05157-.13924,.14096-.09498l2.09419,1.20908c.07665,.04425,.13385,.15076,.13356,.25347-.00031,.11005-.05795,.15762-.1346,.11337Z"/><path class="cls-2" d="M13.16401,9.93334l1.33448,.77046c.20427,.11794,.30604,.29427,.3054,.5217l-.00141,.49888c-.00062,.22009-.10306,.27853-.29462,.16793l-1.3472-.77781c-.19145-.11053-.29331-.28692-.29268-.50701l.00141-.49888c.00067-.23477,.09675-.28952,.29462-.17528Zm1.31307,1.52971l.00102-.35951-.08272-.13594-1.12368-.64876-.0769,.04378-.00102,.35951c-.00017,.05867,.01889,.09907,.08912,.13961l1.11737,.64511,.07681-.04381"/><path class="cls-2" d="M12.13915,10.53209c.15918,.23887,.27374,.42993,.452,.73126l.08242,.23865c-.00027,.09537-.0772,.15384-.16656,.10224-.06383-.03685-.08931-.07361-.15925-.21686-.06356-.13223-.11442-.24243-.22891-.4555l-.00503,1.77544c-.00027,.09535-.07069,.12083-.16648,.06553-.10217-.05899-.16581-.16187-.16554-.25722l.00464-1.63603c-.12178,.09133-.21146,.1498-.33314,.20448l-.12792-.00774c-.08937-.0516-.16575-.18388-.16546-.28657l.06432-.10984c.38421-.19706,.70483-.48225,.92332-.84845,.05776-.09157,.07071-.12819,.07079-.15754l-.07647-.10292-.78535-.45342c-.08937-.0516-.14659-.15812-.14629-.26083,.00033-.1174,.05797-.15761,.14733-.10602l.41506,.23963,.0016-.56491c.00029-.10271,.07702-.12455,.16648-.0729,.09579,.0553,.16583,.16188,.16554,.26459l-.0016,.56491,.28724,.16584c.14046,.0811,.22327,.20974,.2229,.34179-.00046,.1614-.20617,.52028-.47563,.84236Z"/><path class="cls-2" d="M16.79721,14.17672c-.06383-.03685-.08294-.05522-.172-.21688-.14632-.27554-.21633-.39679-.36273-.65033l-.00505,1.78276c-.00029,.10271-.07071,.12819-.16648,.0729-.1021-.05895-.17215-.16552-.17185-.26823l.00468-1.6507c-.08981,.07307-.23706,.15709-.34595,.19708-.09602,.03274-.12795,.03635-.17905,.00685-.08937-.0516-.16575-.19123-.16546-.29394l.07709-.10981c.43535-.18956,.78153-.46,1.03195-.82979,.04492-.06226,.05774-.08426,.0578-.10627l-.0828-.10657-.88103-.50866c-.08946-.05165-.14025-.15446-.13994-.26453,.00029-.10271,.05153-.15396,.14098-.10232l.47238,.27273,.00162-.57222c.00029-.10273,.07715-.13182,.17292-.07653s.16579,.16919,.1655,.27192l-.00162,.57222,.33202,.19169c.14046,.0811,.2296,.21339,.22923,.34545-.00021,.07336-.01311,.12472-.06454,.21259-.12856,.21971-.3147,.46498-.45578,.60397l.08283,.12131c.4967,.72768,.59218,.88568,.59183,1.0104-.00029,.10271-.07709,.14655-.16654,.09491Z"/><path class="cls-2" d="M18.93366,16.26262c.08937,.0516,.15304,.17654,.15272,.28658-.00031,.11007-.06448,.16118-.15385,.10959l-2.19629-1.26803c-.08937-.0516-.15304-.16919-.15271-.28657s.05804-.15755,.15383-.1096l.3192,.18429,.00786-2.77318c.00027-.09537,.08353-.12077,.18563-.06182,.09577,.05529,.17221,.17289,.17194,.26827l-.00786,2.77318,.47888,.27648,.01015-3.58019c.00029-.10269,.07706-.13922,.17925-.08022,.10217,.05899,.17851,.18391,.17821,.2866l-.0036,1.26921,.61293,.35387c.08305,.04795,.14665,.1655,.14634,.27557-.00031,.11003-.06437,.15388-.14742,.10592l-.61293-.35387-.00547,1.92949,.68316,.39442Z"/><path class="cls-2" d="M22.57026,14.80556c.21701,.12529,.32525,.3127,.32454,.56214l-.00899,3.16935c-.0011,.38885-.11632,.43254-.50584,.20765-.52989-.30593-.65109-.42-.65055-.61073,.00035-.12472,.07724-.16853,.17934-.10959l.0639,.04424c.14042,.09577,.31269,.20993,.40215,.26158,.12124,.07,.1533,.05177,.15372-.09496l.00258-.90972-1.12368-.64876-.00358,1.26187c-.00029,.10271-.07715,.13182-.17292,.07653-.1085-.06264-.17853-.17656-.17824-.27927l.00358-1.26187-1.05987-.61192c-.02072,.54652-.09211,.91682-.22703,1.14023-.0836,.15014-.14763,.18666-.2434,.13136-.10219-.059-.19129-.20597-.19098-.31604,.00017-.05869,.00019-.06601,.07081-.16487,.167-.25631,.23846-.64861,.24018-1.25754l.00539-1.90014c.00071-.24944,.10956-.31151,.33308-.18247l2.5858,1.49291Zm-.03814,2.16048l.0021-.74098-1.12368-.64876-.0021,.74098,1.12368,.64876m.00312-1.10047l.00168-.59423c.00021-.07336-.02523-.12481-.09546-.16536l-1.02791-.59347-.002,.7043,1.12368,.64876m-1.47796,.24897l.0021-.74098-1.05347-.60822-.0021,.74098,1.05347,.60822m.00312-1.10047l.002-.7043-.94495-.54557c-.07665-.04425-.10863-.02595-.10885,.05473l-.00166,.58692,1.05347,.60822"/><g class="cls-6"><path class="cls-2" d="M24.69409,19.08136c.1021,.05895,.18485,.2096,.18453,.31965-.00033,.11738-.07075,.14286-.44813,.1675-.34536,.02104-.69699-.01296-.80559-.07566-.1021-.05895-.18486-.20961-.18451-.33433l.07711-.11713c.01276-.00735,.02558,.00005,.10232,.00761,.29403,.03749,.72891,.04607,.94639,.00996l.12787,.02239Z"/><path class="cls-2" d="M27.08324,19.99779c.07663,.04424,.13383,.15075,.13354,.25346s-.05793,.15029-.13456,.10604l-3.59458-2.07533c-.07654-.04419-.12741-.15441-.12712-.25712s.05157-.13924,.12814-.10238l3.59458,2.07533Z"/><path class="cls-2" d="M24.15356,17.9977c-.2235-.12904-.32527-.30537-.32454-.56212l.00453-1.59937c.00069-.2421,.10956-.31151,.32026-.18987l2.28574,1.31967c.21069,.12164,.32523,.32004,.32452,.56948l-.00451,1.59203c-.00071,.24944-.11597,.3078-.33306,.18246l-2.27294-1.31228Zm.02109-.67858l-.00069,.24212c-.00021,.07336,.03807,.13218,.1083,.17273l2.01753,1.16482c.07023,.04055,.10861,.02598,.10882-.04738l.00069-.24212-2.23465-1.29017m.00187-.66028l-.00094,.33016,2.23465,1.29017,.00094-.33016-2.23465-1.29017m.00154-.5429l-.0006,.21276,2.23465,1.29017,.0006-.21276c-.00617-.0844-.03161-.1358-.10817-.18001l-2.01753-1.16482c-.07665-.04425-.10871-.02604-.10894,.05466"/></g><path class="cls-2" d="M27.02922,21.00273c.08289,.0993,.1274,.19115,.12715,.27917-.00035,.12472-.09641,.17214-.21134,.10579q-.0575-.0332-.17862-.17661c-.24851-.30514-.63731-.75007-.91784-1.05166-.10204-.11035-.14655-.19484-.14628-.29021,.00033-.11738,.07724-.16851,.17934-.10956,.04467,.02579,.08933,.06627,.17228,.15092,.3826,.39726,.6694,.71714,.97532,1.09217Z"/><path class="cls-2" d="M30.98793,20.96618c.07663,.04424,.13381,.15811,.13352,.2608-.00031,.11005-.05795,.1576-.13458,.11336l-1.32797-.76671-.00177,.62362,.9704,.56026c.22352,.12905,.32526,.31272,.32456,.56213l-.00264,.93173c-.00071,.24944-.10956,.31151-.32668,.18616l-2.03027-1.17218c-.2171-.12534-.31895-.3017-.31823-.5585l.00264-.93173c.00071-.24942,.10325-.31514,.32035-.1898l.70231,.40548,.00399-1.40862c.00029-.10269,.07067-.12086,.17919-.05821,.1085,.06264,.17864,.16927,.17837,.26465l-.00116,.41084,1.32797,.76671Zm-.49549,1.08075l-1.76218-1.0174c-.06381-.03684-.09589-.01127-.09608,.05475l-.0021,.74098c-.00019,.06603,.03167,.12116,.09548,.158l1.76859,1.02109c.06383,.03685,.09589,.01862,.09608-.04741l.0021-.74098c.00021-.07336-.03165-.1285-.10188-.16905"/><path class="cls-2" d="M31.06113,19.95761c.07663,.04424,.13379,.16545,.1335,.26814-.00029,.10271-.05793,.15027-.13456,.10602l-2.83477-1.63666c-.07023-.04055-.10229-.0223-.10254,.06572l-.00223,.785c-.00268,.9464-.07479,1.56616-.22938,1.96923-.10951,.26011-.16085,.31865-.26936,.256s-.19769-.20967-.19738-.31971q.00015-.05136,.06454-.18319c.18009-.37366,.26499-.98602,.26768-1.93242l.00252-.88771c.00073-.25676,.11605-.32982,.34588-.19713l1.17478,.67826,.001-.35215c.00031-.11005,.07715-.13917,.18568-.07651,.1085,.06264,.18493,.18025,.18462,.2903l-.001,.35215,1.41103,.81466Z"/></g></g></g></svg>