<?xml version="1.0" encoding="UTF-8"?><svg id="_レイヤー_2" xmlns="http://www.w3.org/2000/svg" xmlns:xlink="http://www.w3.org/1999/xlink" viewBox="0 0 51.80201 107.82342"><defs><style>.cls-1{fill:#e17c00;}.cls-2{fill:#fbfbfd;}.cls-3{isolation:isolate;}.cls-4{fill:#c24669;}.cls-5{fill:#f4f7f9;}.cls-6{stroke:#231815;}.cls-6,.cls-7,.cls-8,.cls-9{fill:none;stroke-linecap:round;stroke-linejoin:round;}.cls-6,.cls-8{stroke-width:2.38299px;}.cls-10{clip-path:url(#clippath-1);}.cls-7,.cls-8{stroke:#b1b1b2;}.cls-7,.cls-9{stroke-width:1.19149px;}.cls-11{fill:url(#_名称未設定グラデーション_78);}.cls-12{fill:#b2b5b8;}.cls-13{fill:#e7e6f0;}.cls-14{clip-path:url(#clippath);}.cls-15{fill:#e8993c;}.cls-16{fill:#d3daeb;}.cls-17{fill:#5daddd;}.cls-18{fill:#c5c8cc;}.cls-19{fill:#231815;}.cls-9{stroke:#929292;}</style><linearGradient id="_名称未設定グラデーション_78" x1="26.90939" y1="60.38288" x2="26.90939" y2="131.71299" gradientUnits="userSpaceOnUse"><stop offset="0" stop-color="#949494"/><stop offset="1" stop-color="#000"/></linearGradient><clipPath id="clippath"><path class="cls-1" d="M51.80197,49.98051l-.01197,4.22008c-.01018,3.59224-2.37186,7.17874-7.08735,9.91909-9.49029,5.51516-24.92869,5.51904-34.48767,.00017-4.8069-2.77526-7.20765-6.41941-7.19734-10.05798l.01195-4.22007c-.0103,3.63857,2.39045,7.28271,7.19735,10.05798,9.55898,5.51888,24.99737,5.51499,34.48767-.00017,4.71549-2.74034,7.07718-6.32685,7.08736-9.91909Z"/></clipPath><clipPath id="clippath-1"><path class="cls-1" d="M51.80197,49.98051l-.01197,4.22008c-.01018,3.59224-2.37186,7.17874-7.08735,9.91909-9.49029,5.51516-24.92869,5.51904-34.48767,.00017-4.8069-2.77526-7.20765-6.41941-7.19734-10.05798l.01195-4.22007c-.0103,3.63857,2.39045,7.28271,7.19735,10.05798,9.55898,5.51888,24.99737,5.51499,34.48767-.00017,4.71549-2.74034,7.07718-6.32685,7.08736-9.91909Z"/></clipPath></defs><g id="_レイヤー_1-2"><g><g><path class="cls-11" d="M28.38033,106.70805c.00075-.02183,.00087-.04333,0-.06522v-41.59632h-2.94056v41.56712c-.0025,.03933-.00266,.07808,0,.11741v.00929h.00119c.0212,.27154,.15993,.53891,.42737,.74646,.57833,.44883,1.51245,.44883,2.08705,0,.2657-.20755,.4022-.47492,.4211-.74646h.00385v-.03229Z"/><g><path class="cls-1" d="M51.80197,49.98051l-.01197,4.22008c-.01018,3.59224-2.37186,7.17874-7.08735,9.91909-9.49029,5.51516-24.92869,5.51904-34.48767,.00017-4.8069-2.77526-7.20765-6.41941-7.19734-10.05798l.01195-4.22007c-.0103,3.63857,2.39045,7.28271,7.19735,10.05798,9.55898,5.51888,24.99737,5.51499,34.48767-.00017,4.71549-2.74034,7.07718-6.32685,7.08736-9.91909Z"/><g class="cls-14"><g class="cls-3"><path class="cls-1" d="M51.80197,49.98051l-.01196,4.22008c-.0002,.0714-.00133,.1428-.00339,.2142l.01196-4.22008c.00206-.07139,.00319-.14279,.00339-.2142"/><path class="cls-1" d="M51.79858,50.19471l-.01196,4.22008c-.01349,.46732-.06679,.93425-.1599,1.39896l.01196-4.22008c.09311-.46471,.14641-.93164,.1599-1.39896"/><path class="cls-1" d="M51.63868,51.59366l-.01196,4.22008c-.09225,.4604-.22357,.91861-.39399,1.37282l.01196-4.22008c.17041-.45422,.30174-.91243,.39399-1.37282"/><path class="cls-1" d="M51.2447,52.96649l-.01196,4.22008c-.17521,.467-.39173,.92978-.64957,1.38639l.01196-4.22008c.25784-.45661,.47436-.91939,.64957-1.38639"/><path class="cls-1" d="M50.59512,54.35288l-.01196,4.22008c-.27884,.4938-.60601,.98038-.98152,1.45726l.01196-4.22008c.3755-.47688,.70267-.96346,.98152-1.45726"/><path class="cls-1" d="M49.61361,55.81014l-.01196,4.22008c-.43834,.55669-.94255,1.10017-1.51263,1.6265l.01196-4.22008c.57008-.52633,1.07429-1.06981,1.51263-1.6265"/><path class="cls-1" d="M48.10098,57.43665l-.01196,4.22008c-.87454,.80742-1.9041,1.57449-3.08872,2.28699l.01196-4.22008c1.18462-.7125,2.21419-1.47957,3.08872-2.28699"/><path class="cls-1" d="M45.01225,59.72364l-.01196,4.22008c-.09815,.05903-.19736,.11769-.29764,.17597-1.62671,.94534-3.42819,1.72876-5.34485,2.35019l.01196-4.22008c1.91667-.62143,3.71814-1.40485,5.34485-2.35019,.10028-.05828,.19949-.11693,.29764-.17597"/><path class="cls-1" d="M39.36976,62.2498l-.01196,4.22008c-1.47953,.4797-3.02771,.86289-4.61713,1.14952l.01196-4.22008c1.58942-.28663,3.13759-.66982,4.61713-1.14952"/><path class="cls-1" d="M34.75263,63.39932l-.01196,4.22008c-1.02233,.18437-2.06173,.32879-3.1109,.43326l.01196-4.22008c1.04917-.10447,2.08857-.24889,3.1109-.43326"/><path class="cls-1" d="M31.64173,63.83257l-.01196,4.22008c-.89575,.08919-1.79862,.14927-2.70408,.18021l.01196-4.22008c.90546-.03095,1.80833-.09102,2.70408-.18021"/><path class="cls-1" d="M28.93765,64.01279l-.01196,4.22008c-.83143,.02842-1.66504,.03228-2.49731,.01157l.01196-4.22008c.83228,.0207,1.66589,.01684,2.49731-.01157"/><path class="cls-1" d="M26.44034,64.02436l-.01196,4.22008c-.80279-.01997-1.60434-.06279-2.4015-.12847l.01196-4.22008c.79716,.06568,1.59871,.1085,2.4015,.12847"/><path class="cls-1" d="M24.03884,63.8959l-.01196,4.22008c-.79554-.06554-1.5867-.15385-2.37036-.26492l.01196-4.22008c.78366,.11107,1.57482,.19937,2.37036,.26492"/><path class="cls-1" d="M21.66848,63.63098l-.01196,4.22008c-.81503-.11552-1.62194-.25566-2.4172-.42043l.01196-4.22008c.79526,.16477,1.60217,.30491,2.4172,.42043"/><path class="cls-1" d="M19.25128,63.21055l-.01196,4.22008c-.86302-.17881-1.71232-.38662-2.5434-.62343l.01196-4.22008c.83108,.23682,1.68038,.44463,2.5434,.62343"/><path class="cls-1" d="M16.70788,62.58712l-.01196,4.22008c-1.01723-.28986-2.00716-.62318-2.96154-.99996l.01196-4.22008c.95438,.37678,1.94431,.7101,2.96154,.99996"/><path class="cls-1" d="M13.74634,61.58716l-.01196,4.22008c-1.2391-.48919-2.41826-1.05165-3.5194-1.68739-4.8069-2.77526-7.20765-6.41941-7.19734-10.05798l.01196-4.22008c-.01032,3.63857,2.39044,7.28272,7.19734,10.05798,1.10114,.63574,2.2803,1.1982,3.5194,1.68739"/></g></g></g><ellipse class="cls-15" cx="27.41456" cy="49.91141" rx="14.12544" ry="24.38668" transform="translate(-22.57437 77.18436) rotate(-89.83757)"/></g><g><path class="cls-11" d="M28.38033,106.70805c.00075-.02183,.00087-.04333,0-.06522v-41.59632h-2.94056v41.56712c-.0025,.03933-.00266,.07808,0,.11741v.00929h.00119c.0212,.27154,.15993,.53891,.42737,.74646,.57833,.44883,1.51245,.44883,2.08705,0,.2657-.20755,.4022-.47492,.4211-.74646h.00385v-.03229Z"/><g><path class="cls-1" d="M51.80197,49.98051l-.01197,4.22008c-.01018,3.59224-2.37186,7.17874-7.08735,9.91909-9.49029,5.51516-24.92869,5.51904-34.48767,.00017-4.8069-2.77526-7.20765-6.41941-7.19734-10.05798l.01195-4.22007c-.0103,3.63857,2.39045,7.28271,7.19735,10.05798,9.55898,5.51888,24.99737,5.51499,34.48767-.00017,4.71549-2.74034,7.07718-6.32685,7.08736-9.91909Z"/><g class="cls-10"><g class="cls-3"><path class="cls-1" d="M51.80197,49.98051l-.01196,4.22008c-.0002,.0714-.00133,.1428-.00339,.2142l.01196-4.22008c.00206-.07139,.00319-.14279,.00339-.2142"/><path class="cls-1" d="M51.79858,50.19471l-.01196,4.22008c-.01349,.46732-.06679,.93425-.1599,1.39896l.01196-4.22008c.09311-.46471,.14641-.93164,.1599-1.39896"/><path class="cls-1" d="M51.63868,51.59366l-.01196,4.22008c-.09225,.4604-.22357,.91861-.39399,1.37282l.01196-4.22008c.17041-.45422,.30174-.91243,.39399-1.37282"/><path class="cls-1" d="M51.2447,52.96649l-.01196,4.22008c-.17521,.467-.39173,.92978-.64957,1.38639l.01196-4.22008c.25784-.45661,.47436-.91939,.64957-1.38639"/><path class="cls-1" d="M50.59512,54.35288l-.01196,4.22008c-.27884,.4938-.60601,.98038-.98152,1.45726l.01196-4.22008c.3755-.47688,.70267-.96346,.98152-1.45726"/><path class="cls-1" d="M49.61361,55.81014l-.01196,4.22008c-.43834,.55669-.94255,1.10017-1.51263,1.6265l.01196-4.22008c.57008-.52633,1.07429-1.06981,1.51263-1.6265"/><path class="cls-1" d="M48.10098,57.43665l-.01196,4.22008c-.87454,.80742-1.9041,1.57449-3.08872,2.28699l.01196-4.22008c1.18462-.7125,2.21419-1.47957,3.08872-2.28699"/><path class="cls-1" d="M45.01225,59.72364l-.01196,4.22008c-.09815,.05903-.19736,.11769-.29764,.17597-1.62671,.94534-3.42819,1.72876-5.34485,2.35019l.01196-4.22008c1.91667-.62143,3.71814-1.40485,5.34485-2.35019,.10028-.05828,.19949-.11693,.29764-.17597"/><path class="cls-1" d="M39.36976,62.2498l-.01196,4.22008c-1.47953,.4797-3.02771,.86289-4.61713,1.14952l.01196-4.22008c1.58942-.28663,3.13759-.66982,4.61713-1.14952"/><path class="cls-1" d="M34.75263,63.39932l-.01196,4.22008c-1.02233,.18437-2.06173,.32879-3.1109,.43326l.01196-4.22008c1.04917-.10447,2.08857-.24889,3.1109-.43326"/><path class="cls-1" d="M31.64173,63.83257l-.01196,4.22008c-.89575,.08919-1.79862,.14927-2.70408,.18021l.01196-4.22008c.90546-.03095,1.80833-.09102,2.70408-.18021"/><path class="cls-1" d="M28.93765,64.01279l-.01196,4.22008c-.83143,.02842-1.66504,.03228-2.49731,.01157l.01196-4.22008c.83228,.0207,1.66589,.01684,2.49731-.01157"/><path class="cls-1" d="M26.44034,64.02436l-.01196,4.22008c-.80279-.01997-1.60434-.06279-2.4015-.12847l.01196-4.22008c.79716,.06568,1.59871,.1085,2.4015,.12847"/><path class="cls-1" d="M24.03884,63.8959l-.01196,4.22008c-.79554-.06554-1.5867-.15385-2.37036-.26492l.01196-4.22008c.78366,.11107,1.57482,.19937,2.37036,.26492"/><path class="cls-1" d="M21.66848,63.63098l-.01196,4.22008c-.81503-.11552-1.62194-.25566-2.4172-.42043l.01196-4.22008c.79526,.16477,1.60217,.30491,2.4172,.42043"/><path class="cls-1" d="M19.25128,63.21055l-.01196,4.22008c-.86302-.17881-1.71232-.38662-2.5434-.62343l.01196-4.22008c.83108,.23682,1.68038,.44463,2.5434,.62343"/><path class="cls-1" d="M16.70788,62.58712l-.01196,4.22008c-1.01723-.28986-2.00716-.62318-2.96154-.99996l.01196-4.22008c.95438,.37678,1.94431,.7101,2.96154,.99996"/><path class="cls-1" d="M13.74634,61.58716l-.01196,4.22008c-1.2391-.48919-2.41826-1.05165-3.5194-1.68739-4.8069-2.77526-7.20765-6.41941-7.19734-10.05798l.01196-4.22008c-.01032,3.63857,2.39044,7.28272,7.19734,10.05798,1.10114,.63574,2.2803,1.1982,3.5194,1.68739"/></g></g></g><ellipse class="cls-15" cx="27.41456" cy="49.91141" rx="14.12544" ry="24.38668" transform="translate(-22.57437 77.18436) rotate(-89.83757)"/></g><g><g><g class="cls-3"><polygon class="cls-16" points="21.80651 37.71469 21.88605 57.02206 42.79249 44.95172 42.71294 25.64435 21.80651 37.71469"/><polygon class="cls-13" points="21.80651 37.71469 3.3309 26.97784 3.41045 46.28521 21.88605 57.02206 21.80651 37.71469"/><polygon class="cls-5" points="42.71294 25.64435 24.23734 14.9075 3.3309 26.97784 21.80651 37.71469 42.71294 25.64435"/></g><g class="cls-3"><polygon class="cls-4" points="22.71031 36.93344 22.70754 37.90993 2.79362 26.4074 2.79638 25.43091 22.71031 36.93344"/><polygon class="cls-12" points="22.71031 36.93344 42.37547 25.50529 42.3727 26.48179 22.70754 37.90993 22.71031 36.93344"/><polygon class="cls-5" points="2.79638 25.43091 22.60786 14.03288 42.37547 25.50529 22.71031 36.93344 2.79638 25.43091"/></g><g class="cls-3"><polygon class="cls-1" points="36.16608 25.19119 22.94577 36.98324 22.94977 38.39518 36.18186 30.75563 36.16608 25.19119"/><polygon class="cls-15" points="36.16608 25.19119 13.22032 12.16325 0 23.9553 22.94577 36.98324 36.16608 25.19119"/><polygon class="cls-1" points="22.94577 36.98324 0 23.9553 .004 25.36723 22.94977 38.39518 22.94577 36.98324"/></g><polygon class="cls-15" points="45.4772 24.63618 35.99435 25.22102 13.27214 12.19021 23.29806 11.93956 45.4772 24.63618"/></g><polygon class="cls-1" points="36.03613 30.8606 45.39365 25.38812 45.39365 24.63618 36.0779 25.17925 36.03613 30.8606"/><polygon class="cls-17" points="6.57475 33.15331 6.57475 41.22915 11.83065 44.35356 11.83065 36.11621 6.57475 33.15331"/><polygon class="cls-17" points="13.72142 37.26124 13.72142 45.33708 18.97732 48.46149 18.97732 40.22414 13.72142 37.26124"/></g><g class="cls-3"><polygon class="cls-2" points="32.00456 14.97266 31.9649 28.96362 9.44473 15.9616 9.4844 1.97064 32.00456 14.97266"/><polygon class="cls-18" points="32.00456 14.97266 35.39557 13.00202 35.3559 26.99298 31.9649 28.96362 32.00456 14.97266"/><polygon class="cls-18" points="9.4844 1.97064 12.87541 0 35.39557 13.00202 32.00456 14.97266 9.4844 1.97064"/></g><g><path class="cls-19" d="M36.37601,58.4216c-.73691,.4034-1.33094,1.38181-1.32856,2.18191,.00181,.60828,1.5076,1.48385,2.0857,1.16737,.73436-.40201,1.33094-1.37909,1.32856-2.18191-.00181-.60596-1.50975-1.48263-2.0857-1.16737Z"/><path class="cls-19" d="M48.55736,51.41732c-.73691,.4034-1.33094,1.38181-1.32856,2.18191,.00181,.60828,1.5076,1.48385,2.0857,1.16737,.73436-.40201,1.33094-1.37909,1.32856-2.18191-.00181-.60596-1.50975-1.48263-2.0857-1.16737Z"/><path class="cls-19" d="M28.1536,52.93999c-.73691,.4034-1.33094,1.38181-1.32856,2.18191,.00181,.60828,1.5076,1.48385,2.0857,1.16737,.73436-.40201,1.33094-1.37909,1.32856-2.18191-.00181-.60596-1.50975-1.48263-2.0857-1.16737Z"/><path class="cls-19" d="M40.33495,45.93571c-.73691,.4034-1.33094,1.38181-1.32856,2.18191,.00181,.60828,1.5076,1.48385,2.0857,1.16737,.73436-.40201,1.33094-1.37909,1.32856-2.18191-.00181-.60596-1.50975-1.48263-2.0857-1.16737Z"/><line class="cls-8" x1="28.70824" y1="51.42929" x2="41.09682" y2="44.4187"/><line class="cls-8" x1="36.67919" y1="56.3271" x2="49.06777" y2="49.31651"/><line class="cls-7" x1="36.87126" y1="56.3271" x2="36.87126" y2="58.63195"/><line class="cls-7" x1="28.70824" y1="51.04515" x2="28.70824" y2="53.35"/><line class="cls-7" x1="49.25984" y1="49.50858" x2="49.25984" y2="51.81343"/><line class="cls-7" x1="41.09682" y1="44.22663" x2="41.09682" y2="46.53148"/><polyline class="cls-9" points="33.24761 39.23721 33.14855 44.78431 30.07784 46.5673 36.61548 55.87849"/><line class="cls-7" x1="42.26163" y1="52.60967" x2="42.26163" y2="38.94005"/><line class="cls-7" x1="34.04005" y1="48.25124" x2="34.04005" y2="34.58162"/><polyline class="cls-9" points="29.97878 51.02478 38.10131 51.02478 42.85596 48.94462 42.85596 42.60509"/><polyline class="cls-6" points="41.09682 28.66888 32.06949 33.75876 41.48097 39.32882 50.2851 34.1854"/></g><g><path class="cls-1" d="M10.98276,13.87468c-.00027,.09538-.06421,.10258-.13446,.06202-.07022-.04054-.13397-.12146-.1337-.21684l.00349-1.23249c.00023-.08072,.06423-.08786,.13445-.04731,.07025,.04056,.13394,.12141,.13371,.20214l-.00349,1.23249Z"/><path class="cls-1" d="M12.11034,13.16625c.06382,.03684,.12756,.11773,.12733,.19845l-.00281,.99042c-.00258,.90969-.30998,1.06292-1.14663,.66804l-.01914-.01105c-.09579-.05531-.14663-.17282-.1464-.25351,.00021-.07336,.03872-.11726,.11537-.08038,.76001,.35797,.93304,.22274,.93502-.47423l.00281-.99042c.00023-.08072,.06423-.08786,.13445-.04731Z"/><path class="cls-1" d="M14.9136,16.89372l.00624,.0624c-.00027,.09535-.07709,.11714-.15369,.07292-.05109-.02949-.10204-.09565-.12733-.19842-.21477-.94705-.39215-1.54181-.65229-2.26516l-.01257-.0734c.00023-.08069,.07062-.09885,.14084-.05831l.10194,.13234c.26648,.74908,.46289,1.39157,.69686,2.32764Z"/><path class="cls-1" d="M13.43806,14.04303c.07022,.04054,.1403,.13246,.14007,.21315l-.00649,.02565c-.12345,.6856-.37423,1.18012-.70149,1.55704l-.11516,.01434c-.07657-.04421-.153-.16916-.15275-.25721l.03227-.08425c.33981-.31821,.55213-.7688,.6819-1.42873,.01301-.07331,.07053-.0695,.12165-.03999Z"/><path class="cls-1" d="M17.0267,15.94591c.08276,.13598,.2036,.35271,.20343,.41141l-.08325,.04744-.07015-.07724c-.05719-.12118-.0953-.20198-.17172-.32693l-.03171-.08445,.08963-.04379,.06377,.07356Z"/><path class="cls-1" d="M16.93785,17.95954c.07022,.04054,.11469,.1397,.11449,.21306s-.03872,.12461-.12179,.09871c-.2172-.08132-.4599-.1847-.83023-.39851-.6512-.37597-.89979-.6738-.89854-1.114l.00474-1.67269c.00021-.07336,.06413-.07323,.128-.03635,.06382,.03684,.12758,.11043,.12738,.1838l-.00204,.71896c.4535,.18834,1.01583,.3587,1.27785,.41444l.03832,.01478c.0766,.04423,.12111,.15075,.12088,.23144l-.08338,.08414c-.29398-.07419-.86262-.26287-1.35448-.45868l-.00162,.57227c-.00087,.30811,.14576,.48096,.64372,.76846,.31925,.18432,.58116,.29145,.80476,.36909l.03194,.0111Z"/><path class="cls-1" d="M16.84013,16.33788c-.0636-.13223-.12082-.25346-.17807-.35265l-.02536-.08075,.08963-.04379,.06379,.06623c.08907,.1543,.2163,.38941,.21613,.44811l-.09603,.04744-.0701-.08459Z"/><path class="cls-1" d="M17.92291,17.88158c-.00027,.09538-.07065,.09887-.14087,.05832-.06387-.03688-.13397-.12146-.1337-.21684l.00349-1.23249c.00023-.08072,.07058-.08419,.13445-.04731,.07022,.04054,.14035,.12511,.14012,.20584l-.00349,1.23249Z"/><path class="cls-1" d="M19.04408,17.16944c.06382,.03684,.12756,.11773,.12733,.19845l-.00281,.99042c-.00258,.90969-.31001,1.0629-1.14663,.66804l-.01914-.01105c-.09579-.05531-.1466-.17281-.14637-.2535,.00021-.07336,.0387-.11728,.11535-.0804,.75998,.35795,.93304,.22274,.93502-.47423l.00281-.99042c.00023-.08072,.0642-.08787,.13445-.04731Z"/><path class="cls-1" d="M21.71685,19.55764c.07022,.04054,.10196,.12501,.10175,.19837-.00019,.06603-.03232,.12096-.10254,.08042l-.77894-.44972c-.01466,.65291-.20109,1.00822-.76983,.86356l-.04476-.0185c-.08936-.05159-.1402-.16911-.13997-.24983l.08979-.08041c.4409,.11493,.58869-.1231,.60939-.66226l-.95769-.55292c-.08301-.04792-.11475-.13973-.11456-.20576,.00021-.07336,.03872-.11726,.11535-.07302l1.99201,1.15009Z"/><path class="cls-1" d="M20.01343,18.11856c-.0766-.04423-.11474-.13239-.11454-.20575,.00019-.06603,.0387-.10993,.1153-.06571l1.39187,.8036c.0766,.04423,.11474,.13239,.11456,.19842-.00021,.07336-.03872,.11726-.11533,.07304l-1.39187-.8036Z"/><path class="cls-1" d="M23.84244,20.96857c.07023,.04055,.10832,.14337,.10811,.21674-.00021,.07336-.03876,.13194-.10899,.09139l-1.65362-.95472c-.07023-.04055-.10832-.14337-.10811-.21673,.00023-.0807,.03876-.13194,.10899-.0914l1.65362,.95472Z"/><path class="cls-1" d="M26.22518,21.89596c.06382,.03684,.13389,.12876,.13364,.21678l-.00646,.03301c-.1875,.72213-.72564,1.04341-1.73492,.63707l-.03192-.01108c-.08939-.05161-.13384-.1581-.13363-.23146,.00019-.06603,.03228-.1063,.10254-.08042,.92629,.35109,1.34259,.13583,1.55553-.53487l.1152-.02903Z"/><path class="cls-1" d="M25.02946,21.83759l-.07016-.06253c-.14655-.20221-.35055-.43021-.55463-.62152l-.0763-.16161c.00021-.07336,.05152-.12459,.12815-.08035,.03827,.0221,.40181,.3716,.64391,.70246l.05075,.13952c-.00023,.08069-.0579,.12088-.12172,.08403Z"/><path class="cls-1" d="M25.28656,21.37611c-.15292-.19851-.36967-.44859-.58014-.65093l-.08265-.17263c.00021-.07339,.05153-.11724,.12816-.073,.06382,.03684,.43365,.42673,.67577,.74288l.05713,.14324c-.00021,.07336-.05787,.12089-.12812,.08033l-.07014-.06989Z"/><path class="cls-1" d="M28.16586,23.09728c.14687,.0848,.23593,.24644,.23551,.39317l-.00339,1.19584c-.00042,.14673-.08373,.20886-.23697,.12039l-1.17474-.67824c-.07023-.04055-.102-.12503-.10183-.18372,.00019-.06603,.03231-.10627,.10254-.06572l1.12369,.64876,.06401-.02918,.00133-.46953-1.13005-.65244c-.06387-.03687-.10202-.11769-.10183-.18372,.00017-.05869,.03867-.1026,.10254-.06572l1.13005,.65244,.00104-.36682-.06366-.09554-1.09819-.63404c-.07023-.04055-.10195-.125-.10179-.18369,.00019-.06603,.03226-.1063,.1025-.06575l1.14924,.66351Z"/><path class="cls-1" d="M29.70417,24.12504c-.14647-.2095-.41415-.53307-.62454-.76476l-.06989-.15792c.00023-.08069,.05792-.12824,.13452-.08401,.07022,.04054,.48457,.51493,.70114,.80899l.06352,.16158c-.00025,.08805-.07072,.13553-.14738,.09127l-.05738-.05515Z"/><path class="cls-1" d="M30.86048,24.55013c.07025,.04056,.13392,.12874,.13367,.2168l-.00015,.05134c-.19383,.71114-.80866,1.01754-1.81791,.60383l-.03189-.01841c-.08941-.05162-.14022-.16912-.14-.24982,.00019-.06603,.0323-.11363,.10256-.08778,.92627,.35842,1.4128,.19105,1.63856-.49428l.11515-.02168Z"/></g><g><path class="cls-1" d="M15.55896,11.48055c-.15961-.09215-.2422-.2868-.24179-.43352,.00042-.14676,.08384-.24555,.24345-.1534l1.32159,.76302c.16602,.09585,.24223,.28682,.24181,.43357-.00042,.14672-.07746,.24921-.24348,.15336l-1.32159-.76302Z"/><path class="cls-1" d="M15.56797,10.56719c-.15967-.09218-.24223-.28682-.24181-.43354,.00042-.14676,.08381-.24557,.24348-.15339l1.31518,.75932c.16602,.09585,.24223,.28682,.24181,.43357-.00042,.14672-.07746,.24921-.24348,.15336l-1.31518-.75932Z"/><path class="cls-1" d="M15.56676,8.72939c-.15961-.09215-.2422-.28683-.24179-.43355s.08384-.24552,.24345-.15337l1.32159,.76302c.16602,.09585,.24223,.28682,.24181,.43354s-.07746,.24924-.24348,.15339l-1.32159-.76302Z"/><path class="cls-1" d="M20.2705,12.055l-1.89621-1.09478c-.00073,.25677-.00144,.50623-.00855,.75197l1.49401,.86257c.30649,.17695,.46549,.47448,.46455,.80464-.00751,2.64845-.04809,3.44069-.96751,2.90987-.21708-.12533-.47871-.32046-.79775-.57814-.13399-.1141-.19743-.28301-.19706-.41504,.00054-.19077,.10962-.33355,.28204-.234l.0638,.04421c.22332,.1877,.38918,.32754,.52327,.40496,.46607,.26909,.47387-.2261,.47917-2.09689l.00042-.14672-.06991-.15059-1.28972-.74462c-.04173,1.19573-.17239,2.17113-.64748,2.8301-.06425,.09516-.15376,.08759-.24315,.03598-.15326-.08848-.31236-.34936-.31191-.51078l.00653-.04031c-.05146,.10257-.16018,.0986-.31979,.00645l-1.23864-.71513c-.22983-.13269-.34439-.33111-.34364-.59524l.00383-1.34989c.00075-.26413,.11605-.32984,.34589-.19714l1.23864,.71513c.22983,.13269,.34436,.3311,.34361,.59522l-.00395,1.39394c.58425-.80171,.60089-2.15159,.60538-3.73626l.00052-.1834-.37671-.2175-.07659-.0589c-.00046,.16138-.0775,.27124-.24349,.17541l-1.73028-.99898c-.15958-.09214-.24218-.28678-.24176-.43354,.00042-.14672,.08384-.24552,.24342-.15339l1.73028,.99898,.08294,.06257-.00614-.07703c.0005-.17607,.08393-.29693,.24357-.20476l1.05346,.60821,.00119-.41818c.00056-.19806,.16048-.19393,.32006-.1018,.15961,.09215,.31259,.26867,.31203,.46674l-.00119,.41818,1.17476,.67825c.16602,.09585,.24855,.31252,.24805,.48859-.00048,.16874-.08399,.29689-.25,.20104Zm-3.62486,1.84597l.00225-.79235-.06999-.12123-.70872-.40918-.0768,.03648-.00225,.79235,.07635,.1249,.70872,.40918,.07045-.04015"/><path class="cls-1" d="M25.17627,18.56894c-.00077,.27146-.14167,.35175-.37791,.21536l-2.05582-1.18693c-.22989-.13273-.36988-.3752-.36911-.64665l.00424-1.49665c.00077-.27146,.14167-.35175,.37156-.21903l2.05582,1.18693c.23624,.13639,.37623,.37886,.37546,.65032l-.00424,1.49665Zm-.54188-.58476l.0027-.95373-.07005-.1213-1.57699-.91048-.07045,.04018-.0027,.95373,.06999,.12123,1.57699,.91048,.07051-.04012"/><path class="cls-1" d="M25.98816,14.1583c.22989,.13273,.34442,.33113,.34365,.60255l-.01356,4.7834c-.00144,.5062-.09165,.75542-.68544,.4126-.14682-.08477-.33834-.21006-.55532-.37941-.16586-.1325-.23571-.31245-.2353-.45918,.00046-.16141,.0903-.27119,.23075-.1901l.03831,.02946c.24247,.18407,.39564,.30191,.49141,.3572,.15323,.08847,.17894,.04451,.17927-.07286l.00772-2.72184-1.4302-.82572c-.23618-.13636-.35077-.33476-.35-.60622l.00472-1.66539c.00077-.27143,.1161-.33712,.35229-.20076l1.6217,.93629Zm-.19691,1.7969l.00119-.41818-1.23864-.71513-.00094,.33016,.06997,.12856,1.16841,.67458m.00262-.92438l.00092-.3228-.07638-.1323-1.09178-.63034-.07047,.04751-.00092,.3228,1.23864,.71513"/><path class="cls-1" d="M23.60725,14.85595c-.00077,.27146-.1161,.33712-.35231,.20074l-1.41741-.81834-.00923,3.2574c-.00054,.19077-.13486,.20138-.2753,.1203-.12769-.07372-.26791-.24284-.26737-.43361l.0151-5.32628c.00077-.27143,.11605-.33715,.34588-.20446l1.61535,.93262c.23621,.13638,.3508,.33481,.35003,.60624l-.00472,1.66539Zm-.54202-.56278l.00094-.33016-1.22585-.70775-.00119,.41818,1.15563,.6672,.07047-.04748m.00237-.83636l.00092-.3228-.06997-.1286-1.0854-.62666-.07047,.04751-.00092,.3228,1.22585,.70775"/></g></g></g></svg>