<svg id="Group_299" data-name="Group 299" xmlns="http://www.w3.org/2000/svg" width="38.098" height="38.098" viewBox="0 0 38.098 38.098">
  <path id="Path_1027" data-name="Path 1027" d="M33.588,228.082a4.613,4.613,0,1,0-5.565,0,7.274,7.274,0,0,0-2.462,1.676,7.337,7.337,0,0,0-3.73-3.46,4.613,4.613,0,1,0-5.564,0,7.337,7.337,0,0,0-3.73,3.46,7.273,7.273,0,0,0-2.462-1.676,4.613,4.613,0,1,0-5.565,0A7.3,7.3,0,0,0,0,234.822v4.316a.744.744,0,0,0,.744.744h36.61a.744.744,0,0,0,.744-.744v-4.316A7.3,7.3,0,0,0,33.588,228.082ZM4.167,224.4a3.125,3.125,0,1,1,3.125,3.125A3.129,3.129,0,0,1,4.167,224.4Zm7.59,8.632v5.357H1.488v-3.572a5.8,5.8,0,0,1,10.463-3.459A7.287,7.287,0,0,0,11.757,233.037Zm4.167-10.418a3.125,3.125,0,1,1,3.125,3.125A3.129,3.129,0,0,1,15.924,222.619Zm8.929,15.775H23.377v-2.346a.744.744,0,1,0-1.488,0v2.346H13.245v-5.357a5.8,5.8,0,1,1,11.608,0ZM27.681,224.4a3.125,3.125,0,1,1,3.125,3.125A3.129,3.129,0,0,1,27.681,224.4Zm8.929,13.989H26.341v-5.357a7.287,7.287,0,0,0-.194-1.674,5.8,5.8,0,0,1,10.463,3.459Z" transform="translate(0 -201.784)" fill="#2680eb"/>
  <path id="Path_1028" data-name="Path 1028" d="M307.51,28.09a.744.744,0,0,0-1.052,0L303.9,30.643a.744.744,0,0,0,1.052,1.052l2.553-2.553A.744.744,0,0,0,307.51,28.09Z" transform="translate(-281.089 -25.798)" fill="#2680eb"/>
  <path id="Path_1029" data-name="Path 1029" d="M157.822,30.644l-2.553-2.553a.744.744,0,0,0-1.052,1.052l2.553,2.553a.744.744,0,1,0,1.052-1.052Z" transform="translate(-142.539 -25.798)" fill="#2680eb"/>
  <path id="Path_1030" data-name="Path 1030" d="M246.744,0A.744.744,0,0,0,246,.744v1.6a.744.744,0,0,0,1.488,0V.744A.744.744,0,0,0,246.744,0Z" transform="translate(-227.695)" fill="#2680eb"/>
  <path id="Path_1031" data-name="Path 1031" d="M189.181,60.7a1.092,1.092,0,0,0-.887-.748l-2.7-.393-1.208-2.448a1.1,1.1,0,0,0-1.971,0L181.2,59.56l-2.7.393a1.1,1.1,0,0,0-.609,1.875l1.955,1.905-.461,2.69a1.1,1.1,0,0,0,1.595,1.159l2.416-1.27,2.416,1.27a1.1,1.1,0,0,0,1.595-1.159l-.461-2.69,1.955-1.905A1.092,1.092,0,0,0,189.181,60.7Zm-3.418,2.109a1.1,1.1,0,0,0-.316.973l.363,2.115-1.9-1a1.1,1.1,0,0,0-1.023,0l-1.9,1,.363-2.115a1.1,1.1,0,0,0-.316-.973l-1.537-1.5L181.621,61a1.1,1.1,0,0,0,.828-.6l.95-1.924,1.032,2.091a.744.744,0,0,0,.56.407l2.308.335Z" transform="translate(-164.349 -52.296)" fill="#2680eb"/>
</svg>
