<?xml version="1.0" encoding="UTF-8"?><svg id="_レイヤー_2" xmlns="http://www.w3.org/2000/svg" viewBox="0 0 156.16724 116.17788"><defs><style>.cls-1{fill:#42bfec;}.cls-2{letter-spacing:.19987em;}.cls-3{letter-spacing:.18913em;}.cls-4{fill:#b3b3b3;font-family:SourceHanSans-Light-90ms-RKSJ-H, 'Source Han Sans';font-size:6px;}.cls-5{letter-spacing:.20003em;}.cls-6{letter-spacing:.17204em;}.cls-7{letter-spacing:.18896em;}.cls-8{letter-spacing:.18311em;}</style></defs><g id="_レイヤー_1-2"><path id="_パス_1996-2" class="cls-1" d="M19.182,70.15514h-7.888v20.526H0V30.26814H18.913c6.812,0,12.26467,1.85234,16.358,5.55701,4.0909,3.69591,6.33848,9.01138,6.14,14.521,0,5.97533-2.10634,10.77066-6.319,14.386-4.21267,3.61533-9.516,5.423-15.91,5.423Zm-1.255-30.65401h-6.633v21.51199h6.364c4.12334,0,7.20067-.98599,9.232-2.95799,2.08375-2.09975,3.1897-4.9782,3.048-7.933,.15987-2.91846-.95175-5.76317-3.048-7.8-2.032-1.882-5.01966-2.823-8.963-2.823"/><path id="_パス_1997-2" class="cls-1" d="M84.701,90.68115H49.834V30.26814h11.29401v50.37401h23.57401l-.00101,10.039Z"/><path id="_パス_1998-2" class="cls-1" d="M114.99597,73.47114c0,5.67667-1.43335,9.979-4.29999,12.907-2.86667,2.92799-6.81198,4.39233-11.836,4.39301-3.1839,.12421-6.3508-.52138-9.23199-1.882v-10.218c2.13312,1.39305,4.62332,2.14001,7.17099,2.151,4.59998-.00002,6.89999-2.45,6.89999-7.35001V30.36114h11.29401l.00299,43.11Z"/><path id="_パス_1407" class="cls-1" d="M141.44852,2.38051c-.01504-.05011-.03749-.0974-.06652-.14014-.06652,.2102,.06652,.14014,.06652,.14014Z"/><path id="_パス_1408" class="cls-1" d="M140.9164,4.44482l-.0324,.31441,.0324-.28027v-.03414Z"/><path id="_パス_1409" class="cls-1" d="M140.55143,5.67011h.0324s.17055,0,.19954-.07007h0l-.13304-.28027h0l.06652-.31441c-.10324-.00074-.20529,.02322-.29847,.07007h0l.13304,.28027c-.081,.35528-.18065,.70556-.29847,1.04922,.13304-.1042,.19954-.45454,.26606-.73481h.03243Zm.13304-.31441l-.06652,.24434,.06652-.24434Z"/><path id="_パス_1410" class="cls-1" d="M139.72082,7.1056h0c-.00187,.08611-.02479,.17027-.06652,.24434,.06652-.03414,0,.24434,.09892-.24434h-.0324Z"/><path id="_パス_1412" class="cls-1" d="M139.42236,8.08475v-.28027s-.09892,.28027-.09892,.17966c-.06652,.28027,0,.24434,.09892,.1042h0v-.00359Z"/><path id="_パス_1414" class="cls-1" d="M139.52127,7.91048l-.06652,.31441s.06652,0,0-.14014v-.17966h0l.06652,.00539Z"/><path id="_パス_1415" class="cls-1" d="M139.52128,8.57523l.0324-.1042,.06993-.52641-.09892,.63061h-.00341Z"/><path id="_パス_1417" class="cls-1" d="M138.05964,10.22093s-.17055-.1042-.0324-.14014c-.19102,.01468-.38015,.04959-.56453,.1042h.59864l-.0017,.03593Z"/><path id="_パス_1418" class="cls-1" d="M137.19494,10.29099s.17055-.03414,.26606-.07007c-.094-.01475-.1897,.01045-.26606,.07007Z"/><path id="_パス_1424" class="cls-1" d="M137.76116,10.35927s-.29847,.03414-.46561,.03414h.56284s.09892-.07007-.09892-.07007h0l.00169,.03593Z"/><path id="_パス_1428" class="cls-1" d="M136.69693,10.32513c.07854-.00151,.15681,.01001,.23195,.03414-.06652,0-.23195-.07007-.23195-.03414Z"/><path id="_パス_1430" class="cls-1" d="M138.39221,10.35927c-.07202-.00039-.14216,.02423-.19954,.07007h.19954v-.07007Z"/><path id="_パス_1431" class="cls-1" d="M135.19605,10.56947s.73167,.1042,.46561,.17966c-.4315,.03414-.36498,0-.56453-.07007,.17055,.1042-.56453,.14014-.46561,.28027l.36498-.07007s-.13304,.07007,0,.07007c0-.07007,.3991-.14014,.73167-.07007,.33258-.07007,.09892-.31441-.17055-.45454,0,0,0,.07007-.33258,.1042h0l-.02899,.03054Z"/><path id="_パス_1432" class="cls-1" d="M135.56785,10.42933h.7675c-.15766-.02123-.31338-.05608-.46561-.1042-.23195,.03414-.26606,.07007-.29847,.1042h-.00341Z"/><path id="_パス_1434" class="cls-1" d="M138.39221,10.6054h-.53213l.26606,.1042h0c.29847,0,.23195-.07007,.26607-.1042Z"/><path id="_パス_1435" class="cls-1" d="M135.46723,10.39699l.06652-.1042-.29847,.14014,.23195-.03414v-.0018Z"/><path id="_パス_1436" class="cls-1" d="M134.76968,10.3952l.0324-.07007-.19954,.03414,.17055,.03414-.00341,.0018Z"/><path id="_パス_1437" class="cls-1" d="M139.55538,21.24494l-.06652,.14014,.13304-.17966h-.06652v.03953Z"/><path id="_パス_1439" class="cls-1" d="M132.64458,10.77967l.06652-.03414s-.06652,0-.06652,.03414Z"/><path id="_パス_1441" class="cls-1" d="M152.51229,12.38944s-.33258,.35034-.19954,.24434l.36498-.28027h-.09892c.19634-.22773,.41993-.42763,.66516-.59468,.36498-.2102,.29847-.1042,.46561-.2102,0,0,.06652,0,.19954-.14014l.79819-.59468-.59864,.28027c.17055-.2102,.66516-.49048,0-.14014,.13304-.07007,.29847-.14014,.46561-.24434-.15585,.00272-.31163-.0087-.46561-.03414v-.07007c-.07145-.05675-.14938-.10383-.23195-.14014-.09892,0-.13304,0-.4315,.14014-.03539-.08325-.11298-.13774-.19954-.14014-.23208,.0036-.46006,.06518-.66516,.17966h-1.12906c-.25281,.0422-.50814,.06562-.76407,.07007h0c-.0517-.07605-.12018-.13771-.19954-.17966-.18023,.00063-.35526,.06377-.49801,.17966-.17055-.1042-.79819-.03414-1.02331-.2102,.09892,.03414-.0324,.07007-.23195,.07007-.33258-.1042-.73167-.24434-.83059-.28027-.03555-.00024-.07012-.01218-.09892-.03414-.13304-.03414-.23195,0-.63105,.28027h-.46561c-.24503-.00751-.48937-.03091-.73167-.07007h-.09892c-.33258-.1042-.79819-.2102-.92951-.24434v-.14732h0c.00172-.12899-.00913-.25782-.0324-.38448-.02609-.30628-.07053-.61051-.13304-.91088-.05962-.05712-.12911-.10164-.20468-.13115h-.17055l-.06652-.14014,.06652-.28027c.1223-.41939,.17989-.85674,.17055-1.29536-.05737-.05975-.12511-.10733-.19954-.14014-.13304,0-.13304-.03414-.56453,.24434l-.09892-.24434v-.07725c.01273-.33874,.0019-.67801-.0324-1.01509-.05737-.05975-.12511-.10733-.19954-.14014h-.13304l.09892-.31441c.18614-.41838,.29882-.86881,.33258-1.32949-.05737-.05975-.12511-.10733-.19954-.14014-.12872-.00361-.25561,.03262-.36498,.1042v-.07007c-.04636-.03178-.0908-.06658-.13304-.1042l-.06652-.14014c-.33258-.66475-.3991-.77075-.3991-.80488-.04558-.07343-.11767-.12405-.19954-.14014h-.19954c.00848-.07189-.00276-.14484-.0324-.2102-.04034-.06552-.1004-.11487-.17055-.14014-.10421-.01435-.2099,.01046-.29847,.07007h-.03926l.13304,.28027-.13304,.07007-.0324-.17966c0,.1042-.26606,.73481-.3991,1.15522-.2109,.43784-.34605,.91177-.3991,1.39956,.05737,.05975,.12511,.10733,.19954,.14014,.09892,0,.13304,.03414,.59864-.24434-.12466,.15944-.2579,.31121-.3991,.45454-.36498,.38448-.63105,.70068-.86471,.97915l.06652-.1042v-.17966c-.04224,.11365-.07533,.23084-.09892,.35034-.53212,.59468-.66516,.80488-.69756,.94502-.02363,.09679-.05679,.19072-.09892,.28027,.0324-.07007,.09892-.17966,.13304-.17966h0v.03414h.0324s.09892,.14014,.19954,.14014q.17055,.03414,1.32861-.66475c-.23195,.24434-.46561,.45454-.66516,.70068-.66516,.70068-1.09665,1.11929-1.36443,1.43729h0s-.19954,.24434-.26606,.31441v-.12936s-.09892,.28027-.17055,.28027h.06652c-.13304,.17966-.09892,.24434,0,.35034,0,0,.0324,.07007,.06652,.07007h0v.1042h0v-.07007h.13304l-.06652,.1042c.04259-.00274,.08044-.02955,.09892-.07007h0s.49801-.24434,2.09268-1.18936c.69756-.42041,1.66118-1.01509,1.89314-1.11929,.04678,.00551,.0939-.00658,.13304-.03414,.02544-.00224,.04916-.01442,.06652-.03414,0,0,.06652,0,.06652,.03414,.01754,.12101,.05084,.2389,.09892,.35034l.06652-.1042c.04729,.13442,.06986,.2771,.06652,.42041,.23195,.2102-.19954-.66475,0-.45454-.00515,.19212,.02857,.3832,.09892,.56054-.23195,0-.69756,.2102-5.34854,2.97519-1.12906,.70068-2.42526,1.46963-3.35649,1.99424,.19954-.24434,.4315-.49047,.63105-.73482,1.13021-1.28278,1.65096-2.00622,1.56227-2.17031-.03971-.04086-.08446-.07591-.13304-.1042h-.09892s.23195-.07007-.0324-.1042h.33258c-.10641,.00253-.21263-.01077-.31552-.03952h-.66516c.19907,.0204,.39956,.0204,.59864,0-.09892,.07007-.36498,.1042-.26606,.2102-.09892,.03414-.23195,.14014-.4315,.24434h-.0324c-.26606,.17966-.66516,.38448-1.22969,.73481-.3991,.24434-.89711,.52461-1.22969,.73481l.09892-.38448c.23195-1.01509,.26606-1.15522,.23195-1.25763h.19612c.0324-.07007-.06652-.07007-.23195-.07007-.03797-.04296-.08306-.07827-.13304-.1042,.19637-.04626,.39868-.0578,.59864-.03414-.19954-.1042-.09892,0-.3991-.1042,.26606,.17966-1.06255,0-.63105,.17966-.08501-.04438-.17418-.07931-.26606-.1042,.06623-.09319,.06623-.22122,0-.31441-.04558-.07343-.11767-.12405-.19954-.14014q-.13304,0-.89711,.42041h-.06652l-.17055,.1042-.13304,.07007c-.19078-.02069-.38355,.00323-.56453,.07007-.29847,0,.06652-.03414-.13304-.1042l-.29847,.07007-.26606-.07007-.19954-.14014h0c-.13995-.06822-.27355-.15002-.3991-.24434-.0324,0-.06652-.07007-.13304-.07007-.13304,0-.17055,0-.4315,.14014l-.13304,.07007c-.06907-.04253-.1357-.08933-.19954-.14014-.03666-.0369-.08302-.06132-.13304-.07007-.10421-.01435-.2099,.01046-.29847,.07007h-.06652l.06652,.2102h-.13129l.17055,.1042h-.06652s0,.1042,.06652,.14014v.14014h.17055c.13304,.07007,.29847,.2102,.59864,.42041,.26606,.17966,.56453,.42041,.66516,.49048,.09892,.1042,.19954,.1042,.36498,.03414,.06652,.03414,.13304,.1042,.19954,.14014,.05784,.21759,.13552,.42877,.23195,.63061,.04034,.06552,.1004,.11487,.17055,.14014q.06652,.2102,.09892,.24434c.04558,.07343,.11767,.12405,.19954,.14014h.19954c.09892,.1042,.23195,.24434,.4315,.49047s.46561,.52461,.49801,.56054c.03261,.06688,.09924,.10759,.17055,.1042,.14525,.00957,.28835-.04067,.3991-.14014h0s.33258,.1042,.69756,.2102h.06652c-.13304,.24434-.09892,.31441,0,.42041,.03451,.07092,.10052,.11884,.17572,.12756,.1141-.00065,.22702-.02443,.33258-.07007,.3705,.31626,.75893,.60845,1.16317,.87495q0,.17966,.06652,.2102c.04558,.07343,.11767,.12405,.19954,.14014,.08993,.00598,.18013-.0056,.26606-.03414l.3991,.52461c.13304,.2102,.29847,.38447,.36498,.49047-.03895,.07862-.07202,.16031-.09892,.24434,0,.03414-.0324,.07007-.0324,.14014-.0324,.14014-.06652,.31441-.09892,.49047h0c-1.02331,1.26002-1.48836,1.97148-1.39512,2.13437,.05737,.05975,.12511,.10733,.19954,.14014,.09892,0,.13304,0,.49801-.17966,0,.07007,.06652,.03414,.13304,0v.24434c-.06652,0-.09892,.1042-.13304,.17966-.66516,.52461-.59864,.63061-.49801,.80488,0,.07007,.06652,.1042,.13304,.14014-.05178,.08547-.05178,.19481,0,.28027h.03582c-.09892,.31441-.23195,.70068-.33258,.97915l-.19955,.55695h0c-.19954,.56054-.19954,.59468-.13304,.70068h0c0,.17966-.06652,.31441-.06652,.56054l-.09892,.07007c-.01541,.11809-.03762,.23509-.06652,.35034-.005,.12937-.05196,.25303-.13304,.35034-.0631,.12498-.12002,.25331-.17055,.38447,.29847-.14014,.92951-.59468,1.59467-1.04922,.33258-.24434,.69756-.49047,1.02331-.70068,.22519-.15323,.45804-.29357,.69756-.42041-.29847-.07007,.49801-.2102,.4315-.38447,.09892,0,.23195-.07007,.09892,.07007,.4315-.38447,.76407-.42041,.99603-.77075,.09892,0-.06652,.14014,0,.14014,0-.03414,.13304-.14014,.19954-.14014s-.0324,.07007-.09892,.17966c.46561-.35034,.4315-.52461,.36498-.66475,.22408-.05849,.41608-.21018,.53212-.42041,.09892,0,.29847-.07007,0,.14014,.17055-.1042,1.06255-.66475,1.02331-.77075,.06652,0,.23195-.17966,.26606-.2102l.3991-.28027c.07184-.03769,.13888-.08478,.19954-.14014h0c.0517,.07605,.12018,.13771,.19954,.17966,.08993,.00598,.18013-.0056,.26606-.03414,.29847,.28027,.36498,.31441,.46561,.35034l.06652,.07007c.23195,.24434,.49801,.56054,.53212,.59468,.03261,.06688,.09924,.10759,.17055,.1042,.09347,.0066,.18654-.01791,.26606-.07007h0c.00142,.11768-.00945,.23516-.0324,.35034-.09297,.42436-.1263,.8608-.09892,1.29536,.05737,.05975,.12511,.10733,.19954,.14014l1.19387-.59468,.09892-.07007h0s-.17055,.07007,.06652,.24434c0,.03414,.13304,.1042,.23195,.14014-.26606,.35034-.23195,.38447-.13304,.52461,.04558,.07343,.11767,.12405,.19954,.14014,.13304,0,.13304,.03414,.69756-.28027,.11142,.06384,.21223,.14637,.29847,.24434-.06652-.1042-.09892-.2102,.09892-.1042,.14873,.09536,.28324,.21343,.3991,.35034q0,.94502,.06652,1.01509c.04558,.07343,.11767,.12405,.19954,.14014,.13304,0,.13304,.03414,.86471-.38447,.29847,.17966,.69756,.42041,.89711,.52461-.01935,.11589-.01935,.23445,0,.35034,.04558,.07343,.11767,.12405,.19954,.14014h.06652c.07315,.00961,.14649-.01615,.19954-.07007,.1274,.12785,.273,.23393,.4315,.31441-.06652-.14014-.09892-.31441-.17055-.49047h.0324s.19954-.28027,.09892-.42041c0-.03414-.06652-.07007-.09892-.1042h0s.17055-.28027,.09892-.42041c0-.03414-.06652-.07007-.09892-.1042q.19954-.97915,.13304-1.07797c-.04558-.07343-.11767-.12405-.19954-.14014-.09892,0-.13304,0-.49801,.17966-.0324-.1042-.0324-.14014-.06652-.14014l-.05449-.08803c-.06198-.22719-.1395-.44936-.23195-.66475-.04975-.10545-.11738-.20043-.19954-.28027,0-.14014,.0324-.03414,.06652-.03414l-.06652-.24434c.4315-.77075,.3991-.80488,.33258-.94502-.04558-.07343-.11767-.12405-.19954-.14014-.12872-.00361-.25561,.03262-.36498,.1042,.06652-.2102,.09892-.42041,.17055-.59468v-.07007c.04513-.07537,.07853-.15786,.09892-.24434q.19954-.77075,.13304-.87495c-.04558-.07343-.11767-.12405-.19954-.14014q-.13304,0-.73167,.31441c-.05706-.20634-.13482-.40569-.23195-.59468,0,0,.0324,0,.06652,.07007-.17605-.43702-.29869-.89584-.36498-1.36543,0-.1042-.06652-.2102-.06652-.31441v-.14014h-.06652v-.07007c.03021-.0911,.05248-.18491,.06652-.28027h0s.17055-.17966,.13304-.28027l.69756-.52461h0c1.19387-.87495,2.42526-1.67983,3.55432-2.48472h-.19954l.3991-.31441c.13304-.03414,.19954,0-.06652,.17966,.09892,0,.19954-.1042,.29847-.2102,.06652-.1042,.17055-.24434,.17055-.24434,.3991-.24434,.3991-.2102,.26606-.07007h0l-.13475,.02874Zm1.16317-.87495l-.17055,.1042c.19954-.17966,.17055-.14014,.17055-.1042Zm-17.48167,3.91841h0s-.09892-.17966-.19954-.17966h-.09892v-.17966h.09892c-.007,.05663,.01931,.11206,.06652,.14014,.03539,.08325,.11298,.13774,.19954,.14014,.23195,.07007,.4315,0,4.286-2.38051,.4315-.24434,.89711-.56054,1.32861-.80488-.49801,.38447-.99603,.80488-1.42923,1.18936-1.79422,1.50556-2.65892,2.20444-3.05631,2.59072h0c-.06375-.05094-.13038-.09774-.19954-.14014,0,0-.06652-.07007-.09892-.07007l-.06652-.07007s-.26606-.42041-.33258-.35034c.06461,.21631-.00306,.45223-.17055,.59468-.13304-.17966-.23195-.35034-.29847-.42041h0l-.029-.05929Zm7.44293-6.02045c.05737,.05975,.12511,.10733,.19954,.14014h.13304c.04073,.13577,.0518,.27949,.0324,.42041,.13304,.35034,.06652-.14014,.19954,.2102v.1042l.06652,.07007h0c-.0511-.03662-.10941-.06057-.17055-.07007-.19954-.03414-.26606-.07007-3.92272,2.17031-.49801,.31441-1.02331,.63061-1.56227,.94502,.49801-.42041,1.06255-.84082,1.56227-1.22529,2.02617-1.57563,2.98979-2.38051,3.4554-2.79912h0l.00683,.03413Zm3.35649,6.09052v-.1042l.56453-.38447c-.29847,.24434,.06652,.17966-.46561,.49047l.17055-.28027-.29847,.24434h0l.029,.03414Zm-.96363,.70068h.09892c-.76407,.42041-2.09268,1.18936-4.51795,2.66078,.92951-.59468,1.89314-1.22529,2.79025-1.78583,.92951-.59468,1.76181-1.11929,2.49178-1.61695l-.09892,.07007-.09892,.07007-.13304,.1042s-.33258,.24434-.59864,.42041v.07186h0l.06652,.00539Zm.59864,3.88427c.05737,.05975,.12511,.10733,.19954,.14014h.13304c-.29847,.17966-.63105,.38447-1.06255,.63061l-.46561,.28027c.11695-.12216,.22796-.25048,.33258-.38447,.33258-.35034,.56453-.63061,.79819-.87495,0,.17966,.0324,.17966,.06652,.2102h0l-.0017-.0018Zm-2.1592,.63061s.06652,.1042,0,.1042v-.1042Zm.13304,0c-.04069-.03038-.08555-.05401-.13304-.07007v-.1042c.26606-.14014,.69756-.42041,1.42923-.87495l.09892-.07007c-.23195,.24434-.46561,.52461-.66516,.73482-.23195,.24434-.4315,.49047-.59864,.66475-.09892-.14014-.13304-.2102-.13304-.28027h.00172Zm-1.46164-1.92418c-.00023-.03744-.01155-.07387-.0324-.1042h0c.79819-.52461,1.56227-.97915,2.22572-1.36543h0c.07213,.04222,.15983,.04222,.23195,0h0c-.23195,.14014-.59864,.38447-1.19387,.73482-.3991,.24434-.86471,.52461-1.16317,.70068h0l-.06824,.03413Zm3.15693-1.39956c-.00023-.03744-.01155-.07387-.0324-.1042,0-.03414-.06652-.07007-.09892-.1042h0l.09892-.07007,.06652,.14014v.1042h-.0324l-.00172,.03413Zm-.10403,.35034c-.17055,.56054-.17055,.59468-.09892,.70068,.03539,.08325,.11298,.13774,.19954,.14014h.06652v.1042c-.19954,.14014-.46561,.28027-.76407,.49047-.19954,.14014-.4315,.28027-.66516,.42041,.11349-.17006,.23531-.33377,.36498-.49047,.53212-.73482,.79819-1.11929,.92951-1.32949h0l-.0324-.03593Zm.69756,3.2896c-.29657,.07445-.57795,.2047-.83059,.38447l.13304-.07007c.26606-.17966,.59864-.35034,.86471-.52461l-.19954,.2102h.03239Zm.59864,1.39956c-.03563-.01891-.06885-.04245-.09892-.07007l.17055-.1042-.09892,.17966h0l.02729-.00539Zm.17055-.91088s-.4315,.24434-.83059,.49047c.13543-.17148,.27946-.3352,.4315-.49047l.29847-.35034s.06652,.2102,.09892,.35034h.0017Zm-3.48951-5.95038c-1.79422,1.07797-3.82038,2.31044-5.44917,3.2896,1.26209-.84082,2.72884-1.81997,4.05404-2.69492,2.34847-1.43383,4.62236-2.99912,6.81189-4.68916h0c.21496-.03093,.42002-.11462,.59864-.24434h0s.09892,.35034,.13304,.52461v.07007c-1.32861,.77075-3.32237,1.9601-6.21324,3.74414h.0648Zm.19954-4.89936h0v.24434c.007-.05663-.01931-.11206-.06652-.14014,0-.03414,.06652-.07007,.06652-.1042Zm-.09892,.14014c.06652,.17966,.13304,.38448,.19954,.56054h.83059c-.76407,.45454-1.82662,1.07797-3.38889,2.03017-.76407,.45454-1.59467,.97915-2.35875,1.43729,.3991-.35034,.86471-.70068,1.26209-1.04922,1.20133-.93006,2.35532-1.92617,3.45713-2.98417h0l-.00172,.00539Zm4.01994,.42041h-.06652c.1503-.05101,.30776-.07471,.46561-.07007-.73167,.38448-2.1268,1.22529-4.85053,2.90512-1.19387,.73482-2.5924,1.57563-3.78798,2.31044,.56453-.38447,1.16317-.80488,1.7277-1.22529,3.22345-2.27451,4.65097-3.32553,5.24962-3.85014,.42182,.01345,.84396-.00999,1.26209-.07007Zm-6.0478,2.66078c.53212-.31441,1.09665-.66475,1.66118-1.01509-.83059,.59468-1.6953,1.22529-2.49178,1.78583-2.09268,1.46963-3.25585,2.31044-3.92272,2.83505v-.07007h-.0324l.19954-.14014s0-.03414-.06652-.07007v-.07007h.06652s.13304-.14014,.13304-.24434c.26606-.35034,.36498-.49047,.33258-.59468,.59864-.31441,1.76181-1.01509,4.09327-2.45058h0l.02729,.03414Zm-5.05007,3.77288h0l-.06652,.07007v-.07007h.06652Zm.19954,.84082c2.14102-1.09714,4.22578-2.31213,6.24565-3.63994-.3991,.28027-.79819,.52461-1.19387,.80488-2.49178,1.6457-4.15296,2.76499-5.28714,3.4998,.29847-.49047,.26606-.56054,.19954-.66475h.03581Zm-.69756-.17966c.00487,.0538,.02857,.10376,.06652,.14014v.07007l-.13304,.1042v-.14014l.06652-.14014h0v-.03413Zm-.86471,3.63994h0l.09892-.28027s.09892,.03414,.09892,.07007v-.31441s.0324-.2102,.0324-.24434c.06652,0,.13304-.07007,.19954-.1042,.00221-.06126,.01313-.12182,.0324-.17966,1.09665-.56054,3.35649-1.89004,8.207-4.86523,1.56227-.94502,3.32237-1.99424,4.81811-2.90512-1.59467,1.04922-3.48951,2.27451-5.21721,3.35966-4.94604,3.18539-7.24339,4.68916-8.30593,5.4599h0l.03585,.00359Zm12.26105-7.27987c-.05323,.07324-.11016,.1434-.17055,.2102l-.06652-.07007,.23195-.14014h.00511Zm-5.34854,4.82929s-.09892-.1042-.17055-.1042h-.06652l.17055-.1042v.07007c.03539,.08325,.11298,.13774,.19954,.14014,.17055,.03414,.19954,.03414,1.79422-.94502l.4315-.24434-.26606,.38447c-.39787,.51382-.76418,1.05391-1.09665,1.61695-.17055-.1042-.36498-.17966-.56453-.31441-.23195-.2102,.09892,0,0-.14014l-.19954-.07007-.26606-.28027h0l.0341-.00898Zm8.6061-8.39916l.13304,.07007h.09892l.06652-.07007h.0324l-.73167,.38448-.05969-.23356c.13622-.07846,.28117-.13881,.4315-.17966h0l.02899,.02874Zm-6.24565-.80488l-.06652-.07007,.06652,.07007Zm-2.79024-7.33916h0l-.09892,.07007,.06652-.14014v.07007h.0324Zm-.3991,.94502c.13304-.38447,.23195-.66475,.29847-.87495l.06652,.1042s-.06652,.38447-.17055,.38447c.10172,.14209,.16108,.3128,.17055,.49048l-.29847,.17966-.23195,.14014,.17055-.42041-.00511-.00359Zm-.09892,1.9601c.33258-.35034,.56453-.66475,.76407-.87495,0,.03414,.0324,.07007,.06652,.1042,0,.14014-.09892-.1042-.09892,0,.13559,.14361,.22812,.32605,.26606,.52461-.13304,0-.33258,.14014-1.39512,.77075h-.06652l.46561-.49047h0l-.0017-.03414Zm-.83059,2.62485l-.32917,.2102,.46561-.49047c.89711-.94502,1.42923-1.46963,1.6953-1.81997h.23195c.07224,.20524,.12926,.41608,.17055,.63061v.24434h0c-.17055-.03414-.19954-.07007-2.22572,1.18936h0l-.00854,.03593Zm-2.22742,3.56089c.89711-.52461,1.86074-1.11929,2.72884-1.6457-.49801,.42041-1.06255,.84081-1.56227,1.22529-1.36595,.91783-2.63572,1.98559-3.78798,3.18539-.04181-.02398-.07615-.06016-.09892-.1042l.09892,.1042v.07007s-.13304,0-.17055-.03414v-.106c-.00372-.31988-.04847-.63777-.13304-.94502,.66516-.38447,1.62878-.94502,2.92327-1.7499h.00172Zm-3.38889,0l.46561-.28027c-.19954,.2102-.36498,.42041-.53212,.63061-.53212,.59468-.89711,1.01509-1.12906,1.29536h-.17055v-.06288c-.26606-.17966-.4315-.35034-.63105-.49047,.17055,0,.26606,0,2.02617-1.07797h0l-.029-.01437Zm-2.95739,.28027c-.23195-.31441,.36498,.24434,.19954-.03414-.10762,.00052-.21245-.03608-.29847-.1042l-.23195-.1042h0s.33258-.2102,.56453-.35034,.49801-.31441,.76407-.45454l-.09892,.45454c-.19954,.94502-.23195,1.07797-.19954,1.18936-.06652-.07007-.17055-.1042-.23195-.17966,0-.07007-.26606-.28027-.09892-.24434-.12579-.02236-.24194-.08511-.33258-.17966h0l-.03581,.00719Zm-.17055,.14014c-.12467-.03752-.24663-.08435-.36498-.14014l-.13304-.07007,.26606-.14014s.46561,.28027,.63105,.38447c-.06596,.06947-.19897,.06947-.3991,0h0v-.03414Zm.99603-1.81997c-.19898,.1054-.49801,.28027-.89711,.52461-.29847,.17966-.66516,.42041-.96363,.56054h0l-.10062-.30722s.3991-.2102,.92951-.52461l.26606-.17966h.06652c.1169-.07886,.23886-.1491,.36498-.2102h.19954l.09892,.1042c-.1417-.03684-.28979-.03684-.4315,0,.15585-.00272,.31163,.0087,.46561,.03414h0l.00172-.0018Zm-.56453,2.69492h0l-.06652-.07007h0l-.06652-.07007,.06652,.07007,.13304,.07007h-.06652Zm6.24565,8.12069c.08916-.07719,.19008-.13793,.29847-.17966-.08217,.08731-.18535,.14942-.29847,.17966Zm.63105,0s-.0324-.03414,0-.14014l-.06652,.07007c-.19954,.07007-.17055-.03414-.06652-.17966l.23195-.07007s.13304-.28027,.06652-.35034l-.13304,.14014v-.07007l-.13304,.14014h-.19954l-.69756,.38447c-.38848,.53173-.83434,1.01407-1.32861,1.43729,.13304-.2102-.06652-.17966-.13304-.28027,.26606,0,.53212-.42041,.89711-.66475-.19954,.14014-.19954,.03414-.17055,0l-.59864,.56054c-.13835,.02784-.27257,.07497-.3991,.14014,.13304,0,0,.14014-.13304,.28027-.08248,.07838-.17154,.14873-.26606,.2102l-.06652,.07007h-.0324l-.06652,.1042v-.09522s0-.03414,.06652-.07007c.05504-.0627,.12343-.11074,.19954-.14014-.04981,.00141-.09655,.02569-.12792,.06647h-.06652v.07007h-.0324c-.01504,.05011-.03749,.0974-.06652,.14014-.03472,.1299-.13916,.22582-.26606,.24434,.06652-.03414,.09892-.03414,.09892-.1042-.07373,.08893-.16437,.16055-.26606,.2102-.06652,.03414-.09892,0-.06652-.03414h.0324c-.19516,.10383-.38373,.22086-.56453,.35034v-.24434l.23195-.14014s.33258-.2102,.3991-.24434h.0324s.19954-.28027,.09892-.42041l-.06652-.07007c.56453-.31441,1.59467-.91088,3.55432-2.06431h.0324v.07007h0c.04612,.00148,.09144,.01311,.13304,.03414h.06652c.04649,.00185,.09256-.00997,.13304-.03414-.08034,.13343-.18121,.25182-.29847,.35034,.10096-.01574,.20071-.03916,.29847-.07007l-.4315,.38447h0l.17056,.02875Z"/><path id="_パス_1442" class="cls-1" d="M139.55538,20.8946h.06652q0-.03414-.06652,0Z"/><path id="_パス_1444" class="cls-1" d="M133.47346,10.32513h-.29846c.10066,.01741,.20031,.04081,.29847,.07007,0,0-.06652-.03414-.00001-.07007Z"/><path id="_パス_1446" class="cls-1" d="M130.94929,10.46527c.19954,0,0-.1042,.13304-.07007,.06652-.03414-.23195,0-.3991,0-.17055,.03414-.17055,.07007,.23195,.03414h0l.0341,.03593Z"/><path id="_パス_1448" class="cls-1" d="M142.44455,2.45058l-.17055-.14014c.03124,.0784,.05357,.16041,.06652,.24434l.09892-.1042h.00511Z"/><path id="_パス_1450" class="cls-1" d="M136.06588,6.33485l-.06652,.03414h.0341s.0324-.03414,.03241-.03414Z"/><path id="_パス_1451" class="cls-1" d="M135.96525,6.33485h.09892s-.13304-.07007-.09892-.1042c-.09892,.1042,.06652,.03414,0,.1042Z"/><path id="_パス_1454" class="cls-1" d="M136.09998,5.95038h.06652c.00212-.0268,.01369-.05179,.0324-.07007-.0324,0-.06652,0-.09892,.07007Z"/><path id="_パス_1457" class="cls-1" d="M136.06588,6.02045s0,.03414-.06652,.07007c.0324,0,.13304,0,.06652-.07007Z"/><path id="_パス_1459" class="cls-1" d="M135.99936,5.84438h.0341s0-.03414,.06652-.07007c-.03563,.01891-.06885,.04245-.09892,.07007h-.0017Z"/><polygon id="_長方形_143" class="cls-1" points="135.87144 6.09231 136.00367 6.07693 136.00367 6.07693 135.87144 6.09231"/><path id="_パス_1461" class="cls-1" d="M135.99936,5.70424h.0341l.06652-.03414-.09892,.03414h-.0017Z"/><path id="_パス_1462" class="cls-1" d="M135.99936,5.63597s.06652-.07007,.09892-.07007h-.09892v.07007Z"/><path id="_パス_1464" class="cls-1" d="M136.00106,5.74018l-.06652,.07007h0c.03578,.00101,.06557-.02873,.06652-.06642,.00003-.00121,.00003-.00243,0-.00364Z"/><path id="_パス_1465" class="cls-1" d="M135.93284,5.80845h0l-.0324-.03414,.0324,.03414Z"/><path id="_パス_1467" class="cls-1" d="M135.7333,6.05458c.04661-.04486,.10742-.06984,.17055-.07007-.06393-.00459-.12647,.0211-.17055,.07007Z"/><path id="_パス_1469" class="cls-1" d="M135.83392,5.73838s.06652,0,.06652-.03414h-.06652v.07007h0v-.03593Z"/><path id="_パス_1476" class="cls-1" d="M135.50816,5.70424c.00212-.0268,.01369-.05179,.0324-.07007-.06652,.07007-.13304,0-.26606,.1042h.06311s-.06652,0-.06652,.03414c.06652-.03414,.13304-.03414,.09892,0,.14563-.05609,.28074-.1388,.3991-.24434h-.09892s-.06652,.1042-.13304,.1042h0l-.02899,.07186Z"/><path id="_パス_1477" class="cls-1" d="M135.7657,5.5659v.07007h0l.06652-.07007h-.06652Z"/><path id="_パス_1478" class="cls-1" d="M135.83222,5.63418h-.09892c-.06652,.03414-.13304,0-.19954,.1042h.10233c-.0324-.03414,.0324,0,.06652-.07007h.06652l.0631-.03414Z"/><path id="_パス_1479" class="cls-1" d="M135.56785,6.12465l.0324-.03414-.0324,.03414Z"/><path id="_パス_1480" class="cls-1" d="M135.7674,5.95038c-.06044,.04164-.1175,.08851-.17055,.14014h.0324c-.02544,.00224-.04916,.01442-.06652,.03414,.03555-.00024,.07012-.01218,.09892-.03414h0l.09892-.1042h0l.00683-.03593Z"/><path id="_パス_1482" class="cls-1" d="M135.79982,5.52997l.06652-.03414-.13304,.03414h.06652Z"/><path id="_パス_1483" class="cls-1" d="M135.83222,5.4599h-.06652l-.0324,.03414,.09892-.03414Z"/><path id="_パス_1485" class="cls-1" d="M135.03573,4.23461l.06652-.06108h-.06652v.06108Z"/><path id="_パス_1488" class="cls-1" d="M135.43484,4.96943v-.07007c-.0324,.03414-.09892,.1042,0,.07007Z"/><path id="_パス_1490" class="cls-1" d="M135.43484,4.93529s.0324-.07007,0-.03414h0c.01789,0,.0324,.01529,.0324,.03414h-.0324Z"/><path id="_パス_1497" class="cls-1" d="M134.0056,4.37475h.09892l.19954-.14014s-.29847,.14014-.29846,.14014Z"/><path id="_パス_1498" class="cls-1" d="M131.70654,.70068l-.06652,.07007c.06595-.03473,.09892-.03473,.09892,0h0s.0324,.14014,.06652,.24434l.07163-.07007v.06827c.13304-.07007,0-.03414,.09892-.14014-.13304,.14014,.09892,.1042-.06652,.28027,0,0,.06652-.07007,.09892-.07007h0c-.01796,.03752-.0403,.07253-.06652,.1042h0s.06652,.03414,.06652,.07007h0c.06319,.06253,.14537,.09945,.23195,.1042h0s0,.03414,.06652,.07007h.06652c-.06652,0-.06652,.1042-.13304,.1042,.09892,0,.06652,0,.23195-.07007l-.06652,.07007s.09892-.03414,.13304,0c-.06652,0-.06652,.07007-.17055,.1042-.09892,.14014,.19954,0,0,.14014,.19954-.1042,.06652-.1042,.09892-.14014,.0324-.07007,.13304-.07007,.13304-.03414,0,0-.19954,.17966-.13304,.24434h0s.06652,0,0,.07007c.09892-.07007,0,0,.13304-.07007h-.06652s.23195-.1042,.17055,0h-.0938c0,.03414,.0324,0,0,.03414-.13304,.1042-.06652,0-.19954,0-.0324,.03414,.13304,0,0,.07007,.19954-.1042,0,.07007,.17055,0l-.06652,.07007h-.0324s-.0324,.14014,0,.14014c-.0324-.03414,.09892-.07007,.13304-.14014,.13304,0-.17055,.17966-.09892,.2102-.00095-.03769,.02727-.06906,.06306-.07007,.00116-.00003,.0023-.00003,.00346,0-.00325,.04718-.0317,.0883-.07335,.106,.0324,.03414,.06652-.07007,.13304-.07007-.09892,.07007,.06652,0,.09892,0l-.06481,.07007s.17055-.1042,.13304,0l-.13304,.07007h.0324l-.09892,.07007s.06652,0,.06652,.03414c.06652-.03414,.13304-.1042,.17055-.07007-.0324,.03414-.06652,.03414-.0324,.07007-.06652,0-.13304,.07007-.06652,0h-.06652v.1042h.17055c-.05283,.03303-.11045,.0567-.17055,.07007h.09892s-.06652,.07007-.09892,.07007c0,.03414,.17055,0,.13304,.03414h.0324c0,.03414-.06652,.14014,.06652,.1042l-.09892,.1042s.13304-.14014,.19954-.1042c.06652,0-.09892,.07007-.13304,.1042,.06652,0,.19954-.07007,.13304,0h0l-.06652,.07007c-.07129,.00396-.14025,.02818-.19954,.07007,.23195-.14014,.09892,.07007,.33258-.03414h.09892s-.0324,.07007-.06652,.07007h.0324l.06652,.07007h.13304s-.13304,.07007-.13304,0c-.23195,.17966,.06652,0,0,.14014h-.0324l-.13304,.14014c.0324,0,.17055-.17966,.26606-.17966,0,0,0,.03414,.0324,0-.09892,.03414-.06652,.07007-.0324,.07007l-.09892,.07007c.05842,.00052,.11638-.01108,.17055-.03414l-.14325,.14373c0,.03414,.13304-.1042,.17055-.07007,0,.07007,.0324,.07007,.13304,.07007,0,.03414-.06652,0-.09892,.07007h.06652c.0511-.03662,.10941-.06057,.17055-.07007,.13304-.07007-.13304,.17966,0,.1042-.04259,.00274-.08044,.02955-.09892,.07007h.23195l-.06652,.07007c.09369-.05102,.1944-.08619,.29847-.1042l.06652-.07007h.09892c-.03563,.01891-.06885,.04245-.09892,.07007h0c-.0511,.03662-.10941,.06057-.17055,.07007l.06652-.07007s-.17055,.07007-.23195,.1042h.0324l-.13304,.1042h.06652v.07007c.12769-.04952,.26307-.07329,.3991-.07007-.09892,0-.17055,.07007-.26606,.14014,.09892-.07007-.06652,0-.06652-.07007,0,0-.06652,.03414-.06652,.07007h.13304c-.04181,.02398-.07615,.06016-.09892,.1042,.17055-.1042,.13304,0,.19954,0-.06652,0-.13304,.07007-.13304,0-.09892,.1042,.23195-.07007,.13304,0h0c.06652,0,.0324,.07007,0,.07007h0c.04563,.08681,.14942,.11821,.23182,.07014,.00004-.00003,.00009-.00005,.00013-.00008l-.19954,.1042,.56453-.17966c-.16878,.10081-.34713,.1827-.53212,.24434,0,.01885,.01451,.03413,.0324,.03414,.06302-.04171,.12987-.07662,.19954-.1042-.13304,.1042-.06652,.07007-.17055,.17966,0,0,.23195-.14014,.23195-.1042-.07462,.04103-.15219,.07587-.23195,.1042l.23195-.07007s-.17055,.1042-.23195,.14014c.0324,0,0,.03414,.0324,.03414h.0324s.29847-.14014,.33258-.07007c-.0324,0-.26606,.1042-.26606,.17966,.20531-.08588,.41619-.15613,.63105-.2102h0s-.53212,.2102-.66516,.24434c-.0324,.03414-.06652,.03414-.0324,.07007-.0324,.03414-.09892,0-.09892,0v.07007c.08225,.00173,.16308-.02269,.23195-.07007h-.17055s.36498-.14014,.36498-.07007c-.08522,.0537-.17415,.10054-.26606,.14014h0s.17055,0,.09892,.07007c0,0-.13304,.1042-.06652,.07007,.19978-.1368,.411-.25407,.63105-.35034-.04726,.0692-.10485,.12988-.17055,.17966-.09892,.07007-.26606,.1042-.33258,.17966h.09892s-.09892,.03414-.06652,.07007c.13304-.07007,0,.07007,.09892-.03414,.0324,0,0,.03414,0,.07007,.10579-.05066,.21771-.08572,.33258-.1042-.02831,.01918-.05463,.04146-.07849,.06647v.17966c-.01928,.03978-.05667,.06627-.09892,.07007h.06652s-.0324,0-.13304,.07007c.06652-.03414,.13304,0,.17055,0,.09892-.07007,0-.07007-.06652-.07007,.13041-.08018,.28095-.11653,.4315-.1042,.06652,0-.09892,.07007-.06652,.07007,0,.1042,.29847-.07007,.23195,.03414-.08151,.0605-.1712,.10774-.26606,.14014-.06652,0,0-.07007,0-.1042h0s-.06652,.03414-.06652,0c-.06652,.07007,.06652,.14014,0,.24434,.03615,.00463,.07239-.00787,.09892-.03414h0s.13304-.03414,.13304-.07007h.13304l-.09892,.07007s.06652-.07007,0-.03414c.06652,0-.09892,.14014,.0324,.07007l.06652-.07007s.19954-.03414,.17055,0c.09892-.07007,0,0,.09892-.1042-.13304,.1042-.0324-.07007-.17055,.03414,.13304-.1042,.0324-.07007,.13304-.17966-.0324,0-.06652,.03414-.06652,0h-.0324v.07007h-.19954c.02544-.00224,.04916-.01442,.06652-.03414h-.06652s.09892-.1042,.17055-.1042h0s.0324-.1042,0-.1042h-.09892s-.19954-.07007-.06652-.2102c0,0-.06652,0-.06652-.03414h.06652s0-.14014-.0324-.1042c.17055-.14014,0-.14014,0-.17966h-.26606v-.106h0c.13304-.14014-.19954-.03414-.09892-.17966h0v-.06647c-.04259,.00274-.08044,.02955-.09892,.07007h-.06652s-.06652,0,.06652-.1042c-.07636-.01821-.1556-.01821-.23195,0h0v-.07007l.09892-.07007h-.17055c.0581-.01983,.11504-.04323,.17055-.07007h-.17055s-.13304,0-.06652-.07007c.09892-.1042-.06652-.17966,0-.31441-.19954,.14014,.06652-.1042-.09892,0,.0324,0,.06652-.07007,.09892-.07007-.06652,0,.0324-.1042-.09892-.07007,.03615,.00463,.07239-.00787,.09892-.03414h.06652c-.0324-.03414-.19954,.03414-.33258,.1042,.06652-.07007,.0324-.07007-.06652,0,.0324,0,.06652-.07007,.09892-.07007,0,0,0-.14014-.09892-.07007h0q0-.03414-.0324-.07007h-.06652s-.06652,0,0-.14014h-.07846c-.17055,.14014,.06652-.07007,0-.07007h-.03412s.19954-.14014,.23195-.17966h.0324c-.05522,.02026-.11533,.02026-.17055,0,.06652-.03414,.17055-.07007,.13304-.1042,.0324-.03414-.23195,.03414-.13304-.07007-.0324,0-.06652,.07007-.13304,.07007,0,0,.13304-.17966,0-.1042h0c-.061-.04035-.13854-.04035-.19954,0,.26606-.17966-.23195-.03414,.0324-.2102l-.06652-.07007h0c-.05476-.023-.1158-.023-.17055,0,.02544-.00224,.04916-.01442,.06652-.03414q0-.1042-.17055-.07007l.06652-.07007s.06652-.17966-.06652-.17966h.0324s.13304-.31441-.19954-.14014h-.08699c-.06654,.0319-.12498,.07992-.17055,.14014,0,0,.06652-.1042,.09892-.1042h0c.00341-.07323,.04027-.14018,.09892-.17966-.06652-.1042-.06652-.28027-.13304-.38447l-.09892,.1042h0l.09892-.1042c.06652-.07007-.09892,0-.09892,0,0-.07007,.17055-.07007,.13304-.1042h-.0324s-.09892,.07007-.13304,0c0-.03414,.06652-.07007,.06652-.07007h-.09892l-.09892,.1042c.13304-.14014-.06652-.2102,0-.24434q-.09892,0-.13304-.03414s-.09892,.1042-.13304,.07007c.23195-.17966,.0324-.1042,.17055-.28027-.06652,.1042-.09892-.07007-.19954,.1042,0-.03414,.06652-.07007,.09892-.14014-.13304,0-.0324-.17966-.13304-.2102l-.09892,.1042,.09892-.14014s-.17055,.14014-.09892,0c0,0-.0324,.07007-.06652,.07007,0-.1042-.09892-.17966-.17055-.2102s-.13304-.1042-.09892-.28027c0,.07007-.0324,.07007-.06652,.03414l-.09892,.1042V.24434s0-.03414-.13304,.03414h0c-.10372,.14624-.21473,.28657-.33258,.42041,.13304-.1042-.09892,.24434,.09892,.1042h0l.30019-.10241Zm1.70553,2.55478h-.0324c.09892-.03414,.06652,0,.0324,0Z"/><path id="_パス_1502" class="cls-1" d="M135.50134,5.52997s-.0324,.03414,0,.03414h0s.06652-.07007,0-.03414Z"/><path id="_パス_1504" class="cls-1" d="M135.60026,5.24251s.09892-.03414,.06652,0c.09892-.03414-.13304,0-.06652,0Z"/><path id="_パス_1505" class="cls-1" d="M135.26939,5.66831l.09892-.03414h-.09892v.03414Z"/><path id="_パス_1508" class="cls-1" d="M135.06132,5.21556s-.0324,0,0,.03414h.0324l-.0324-.03414Z"/><path id="_パス_1509" class="cls-1" d="M134.93511,5.42397l.06652-.03414-.09892,.07007h.0324v-.03593Z"/><path id="_パス_1510" class="cls-1" d="M134.87029,5.3557s-.09892,0-.06652,.03414c0,0,.06652,0,.06652-.03414Z"/><path id="_パス_1511" class="cls-1" d="M134.73726,4.86343h.0324l.17055-.1042-.19954,.1042h-.00341Z"/><path id="_パス_1512" class="cls-1" d="M134.27506,4.65502s-.0324,0-.13304,.07007c0,.07007,.09892-.03414,.06652,0,.0324,0,0-.03414,.06652-.07007h0Z"/><path id="_パス_1513" class="cls-1" d="M132.11075,0l-.0324,.07007h.0324v-.07007Z"/><path id="_パス_1514" class="cls-1" d="M131.97772,.13834l.06652-.1042-.09892,.07007h0l.0324,.03414Z"/><path id="_パス_1515" class="cls-1" d="M133.27563,3.3956l-.06652,.07007h0v-.07007h.06652Z"/><path id="_パス_1516" class="cls-1" d="M133.14259,3.11533h0l.09892-.03414-.09892,.03414Z"/><path id="_パス_1520" class="cls-1" d="M153.27636,2.17031h0v-.07007s-.06652,.1042-.13304,.1042c.06652,.1042,.06652-.03414,.09892,0h0l.03412-.03414Z"/><path id="_パス_1523" class="cls-1" d="M152.87727,1.95831c-.01789,0-.0324-.01529-.0324-.03414-.0044,.03808,.00747,.07625,.0324,.1042v-.07007Z"/><path id="_パス_1526" class="cls-1" d="M153.01201,2.13438s0-.14014-.06652-.07007c.03578-.00101,.06557,.02873,.06652,.06642,.00003,.00121,.00003,.00243,0,.00364Z"/><path id="_パス_1528" class="cls-1" d="M152.77836,2.06431s-.0324,0-.06652-.07007c.01797,.03752,.04031,.07252,.06652,.1042h0v-.03414Z"/><path id="_パス_1531" class="cls-1" d="M152.57881,2.06431v-.07007l.0324,.1042-.0324-.03414Z"/><path id="_パス_1532" class="cls-1" d="M152.51229,2.09844s-.06652-.07007-.06652-.1042v.1042h.06652Z"/><path id="_パス_1534" class="cls-1" d="M152.71183,2.17031s-.0324-.07007-.06652-.07007l.06652,.07007Z"/><path id="_パス_1537" class="cls-1" d="M152.9472,2.37871c-.04259-.0491-.06631-.11315-.06652-.17966-.00436,.06734,.02003,.13321,.06652,.17966Z"/><path id="_パス_1538" class="cls-1" d="M152.77835,2.20444v.07007h.0324c-.00212-.0268-.01369-.05179-.0324-.07007Z"/><path id="_パス_1539" class="cls-1" d="M152.61121,2.27451s0-.07007-.0324-.07007v.07007h.0324Z"/><path id="_パス_1546" class="cls-1" d="M152.54639,2.62485h-.06652c.06652,.07007,0,.14014,.09892,.28027v-.07007s0,.07007,.0324,.07007c-.0324-.07007-.0324-.14014,0-.1042-.06186-.14659-.15186-.27811-.26434-.38627v.1042c.06151,.02422,.11004,.07534,.13304,.14014h0l.06651-.03414Z"/><path id="_パス_1547" class="cls-1" d="M152.41167,2.37871h.06652c-.02284-.04398-.05718-.08014-.09892-.1042v.1042h.0324Z"/><path id="_パス_1548" class="cls-1" d="M152.51229,2.30865c.00126,.08218,.03759,.15939,.09892,.2102v-.1042c-.0324,.03414,0-.03414-.06652-.07007h0v-.07007h0v.07007h0l-.0324-.03593Z"/><path id="_パス_1550" class="cls-1" d="M152.9455,2.48471v.07007c-.00023-.03744-.01155-.07387-.0324-.1042h0s-.09892-.07007-.09892-.1042c.03332,.0681,.07845,.12903,.13304,.17966v-.04132h-.00172Z"/><path id="_パス_1552" class="cls-1" d="M152.37925,2.34458l-.06652-.07007,.06652,.1042v-.03414Z"/><path id="_パス_1553" class="cls-1" d="M152.31445,2.38231l-.0324-.07007v.07007h.0324Z"/><path id="_パス_1555" class="cls-1" d="M151.01825,3.3956s-.17055-.1042-.09892-.03414l.06652,.07007h.0324v-.03593Z"/><path id="_パス_1556" class="cls-1" d="M150.65156,4.51489h0l-.06652-.07007v.07007h.06652Z"/><path id="_パス_1557" class="cls-1" d="M150.15354,5.98451l.06652,.07007s0-.03414-.06652-.07007Z"/><path id="_パス_1558" class="cls-1" d="M151.78232,2.79912h-.06652c.0324,0,.09892,.07007,.06652,0Z"/><path id="_パス_1559" class="cls-1" d="M149.68792,4.89936l.0324,.03414-.0324-.03414Z"/><path id="_パス_1565" class="cls-1" d="M152.08079,2.48471l-.0324,.03414h.0324v-.03414Z"/><path id="_パス_1567" class="cls-1" d="M151.41734,4.33882s-.0324-.1042,0-.07007l-.19954-.17966,.19954,.24434v.00539Z"/><path id="_パス_1568" class="cls-1" d="M147.92613,7.59428c.03563,.01891,.06885,.04245,.09892,.07007h-.17055s-.0324,.07007,.06652,.14014h0c.16054,.05613,.3163,.12645,.46561,.2102-.13304-.1042,.26606,.03414,.09892-.1042,.0324,0,.0324,.03414,.09892,.07007q-.06652-.07007,0-.07007h0c.07957-.04246,.15699-.08923,.23195-.14014h-.09892l.06652-.03414c-.09892-.1042-.0324,.03414-.17055-.07007,.17055,.07007,.09892-.14014,.26606,0,0,0-.09892-.03414-.06652-.07007h.13304s0-.07007,.0324-.03414h-.0324s.13304-.14014,.06652-.28027h-.0324c.03776-.02031,.06291-.0597,.06652-.1042h0s-.0324-.07007,0-.07007c.0324,.03414,.09892,0,.13304,.07007-.0324-.1042-.0324-.07007-.17055-.2102h.06652s-.06652-.03414-.06652-.07007c.0324,.07007,.09892,.03414,.17055,.1042,.17055,0-.06652-.17966,.13304-.07007-.17055-.14014-.13304,0-.17055-.03414-.06652,0-.09892-.1042-.06652-.1042,0,0,.23195,.1042,.26606,.07007h0s-.0324-.07007,.06652-.03414c-.09892-.07007,0,0-.09892-.1042v.07007s-.17055-.17966-.06652-.17966l.06652,.07007c.0324,0,0-.03414,.0324,0,.13304,.1042,0,.07007,.06652,.17966,.06652,0-.06652-.1042,.06652,0-.17055-.14014,.06652-.03414-.06652-.17966l.06652,.07007v-.07007l.06652,.07007s.09892,0,.09892-.07007c-.0324,.07007-.09892-.03414-.17055-.07007-.06652-.14014,.23195,.1042,.26606,0h.0324c0-.07007-.09892-.03414-.13304-.1042,.09892,.03414,0-.03414-.0324-.1042l.06652,.07007s-.17055-.14014-.06652-.14014l.09892,.1042h.06652v-.07186c-.06652,0-.13304-.1042-.13304-.14014,.06652,0,.06652,.07007,.09892,0,.0324,.03414,.09892,.1042,0,.07007l.06652,.07007,.06652-.07007h0l-.06652-.14014s.06652,.03414,.06652,.07007v-.06827c.06652,.03414,.13304,.1042,.13304,.14014v-.106c.03578-.00101,.06557,.02873,.06652,.06642,.00003,.00121,.00003,.00243,0,.00364,.06652,0-.06652-.14014,0-.14014h0s.13304,0,.06652-.14014l.13304,.07007s-.17055-.07007-.17055-.17966c0-.07007,.09892,.07007,.13304,.07007-.0324-.07007-.13304-.17966,0-.14014v.03953h.06652c-.00199,.08564,.0537,.16084,.13304,.17966-.19954-.17966,.06652-.1042-.17055-.28027h.06652s-.13304-.1042-.06652-.14014c.03555,.00024,.07012,.01218,.09892,.03414v-.07366h.0324c-.02885-.04286-.05128-.09012-.06652-.14014,.0324,0,0,0,.0324,.03414v-.06827s.06652,.1042,.0324,.1042c.23195,.14014-.0324-.07007,.13304,0h0c.06254,.0426,.12948,.07756,.19954,.1042-.10257-.03321-.19458-.09534-.26606-.17966,0,0,.0324,0,0-.03414,.06652,.07007,.06652,0,.06652,0l.09892,.07007c-.03878-.04184-.07204-.08898-.09892-.14014,.063,.0221,.12105,.05756,.17055,.1042,.0324,0-.13304-.07007-.13304-.14014,.06652,0,.0324-.07007,0-.14014,.06652,0,.06652,.07007,.09892,.07007l-.06652-.07007h.0324s-.09892-.07007-.09892-.1042c-.09892-.1042,.19954,.07007,.09892-.07007,.0324,0,.06652,.07007,.09892,.07007-.01137-.07921-.04596-.1527-.09892-.2102h.09892s-.17055-.1042-.19954-.2102h-.06656v-.13475l.06652,.07007h0c.05397,.01846,.10071,.05507,.13304,.1042h-.06652c.05136,.0537,.10861,.10074,.17055,.14014h.17055c-.08736-.11487-.1549-.245-.19954-.38447,.07461,.06099,.14165,.13161,.19954,.2102-.09892-.07007,0,.07007-.0324,.1042,0,0,.06652,.03414,.06652,.07007v-.13834s0,.03414,.06652,.07007c-.17055-.14014-.06652-.14014-.09892-.17966,.0324,.03414,.09892,.1042,.06652,.1042,.13304,.07007-.13304-.2102,0-.14014h0c0-.07007,.0324-.07007,.06652,0h0c.06405-.0506,.07703-.14632,.02899-.2138-.00824-.01158-.018-.02186-.02899-.03054l.17055,.17966-.33258-.49048s.36498,.31441,.3991,.42041c0,0,.06652,0,.0324-.03414l-.17055-.14014c.13304,.1042,.06652,.03414,.19954,.1042,0,0-.17055-.17966-.17055-.2102l.17055,.17966-.09892-.2102,.17055,.17966c-.0324,0,.0324,0,0-.07007h-.06652s-.17055-.28027-.13304-.31441c0,.03414,.17055,.2102,.23195,.2102-.13434-.17021-.2462-.35876-.33258-.56054h.0324s.26606,.42041,.33258,.56054c.06652,0,.06652,.07007,.06652,0,.06652,.03414,.06652,.07007,.0324,.1042h.09892c-.01774-.0946-.06448-.18044-.13304-.24434v.17966s-.19954-.31441-.13304-.35034c.0324,0,.13304,.17966,.17055,.2102h0s-.0324-.17966,.06652-.1042c0,0,.13304,.1042,.09892,.03414-.09892-.1042-.4315-.45454-.49801-.56054,.06971,.02748,.13658,.06239,.19954,.1042,.09892,.07007,.17055,.24434,.23195,.31441l-.0324-.07007s.06652,.1042,.06652,.07007c-.06652-.1042,.06652,0-.06652-.1042,0-.03414,.0324,0,.06652,0-.08139-.08775-.14011-.19599-.17055-.31441l.06652,.07007c.05889,.01054,.11943-.00157,.17055-.03414,.04181,.02398,.07615,.06016,.09892,.1042v-.08264s-.0324,.03414,.06652,.14014c-.0324-.07007,0-.1042-.0324-.17966-.06652-.1042-.06652,0-.06652,.07007-.08588-.11151-.14445-.24354-.17055-.38447,0-.07007,.06652,.07007,.06652,.03414,.09892,0-.09892-.28027,0-.24434,.07788,.06257,.13707,.14738,.17055,.24434,0,.07007-.09892,0-.09892,0h.06652v.07366c.06652,.07007,.13304-.07007,.23195-.03414,.0044-.03808-.00747-.07625-.0324-.1042h0s0-.1042-.06652-.1042v-.14193l.06652,.1042s-.06652-.03414-.06652,0c0-.07007,.13304,.1042,.06652-.03414l-.06652-.07007s-.0324-.2102,0-.17966c-.06652-.1042,0,0-.09892-.1042,.09892,.14014-.09892,.03414,.0324,.17966-.09892-.1042-.06652,0-.19954-.14014,0,0,.06652,.07007,0,.07007h0l.0324,.07007c.0324,.07007,0,.1042,0,.17966,0,0,0-.03414-.06652-.07007v.0557s-.09892-.1042-.09892-.17966h-.0324s-.09892,0-.09892,.03414v.1042h-.0324s0,.17966-.17055,.1042c0,0,0,.07007-.0324,.07007l-.06652-.07007s-.09892,0-.06652,.07007c-.17055-.14014-.13304,.03414-.19954,.07007l.06652,.07007c-.0158,.03278-.02673,.06793-.0324,.1042l.06652,.07007s-.09892,0-.13304,.07007h0c-.19954-.1042,0,.2102-.13304,.14014h0v.07007l-.06652-.07007h0s0,.03414,.06652,.1042v.07007s0,.07007-.09892-.03414c.0324,.07007,0,.1042,.09892,.24434h0l-.09892-.07007,.09892,.14014c-.06044-.04164-.1175-.08851-.17055-.14014,.06652,.14014,0,.07007,.06652,.2102l-.06652-.07007s.0324,.1042,0,.07007c-.13304-.07007-.17055,.14014-.33258,.1042,.19954,.14014-.09892,0,0,.1042-.03297,0-.06593-.03473-.09892-.1042,0,.07007-.13304,0,0,.14014-.0324,0-.06652-.07007-.06652-.07007h0c-.00212-.0268-.01369-.05179-.0324-.07007,.04882,.10605,.11656,.20121,.19954,.28027q-.06652,0,0,.07007c-.05319-.00351-.09559-.04817-.09892-.1042,0,0-.13304,.03414-.0324,.1042h0q-.0324,0-.06652,.07007h0v.1042h0s0,.03414-.13304,0l.06652,.07007s-.13304,0-.09892,.07007h.06652c-.09777-.03997-.19739-.07474-.29847-.1042v-.01797c-.13304,0,.09892,.07007,.09892,.14014-.06652-.03414-.13304-.1042-.17055-.1042-.06652,0,.09892,.2102,0,.17966,.05319,.00351,.09559,.04817,.09892,.1042,0,.03414-.19954-.03414-.09892,.07007h-.0324s0,.1042,.06652,.14014c-.26606-.17966,0,.2102-.19954,.03414v.07007h-.06652c.00141,.04858,.01244,.09631,.0324,.14014-.02544-.00224-.04916-.01442-.06652-.03414-.09892,0-.09892,.03414,0,.17966l-.09892-.07007s-.19954,0-.13304,.1042h0s-.33258,0-.06652,.2102v.1042c.07157,.04752,.14986,.08269,.23195,.1042,0,0-.13304,0-.13304-.03414h0c-.06807,.01956-.14084,.00711-.19954-.03414-.06652,.1042-.23195,.17966-.29847,.28027l.13304,.07007h0s-.09892,0-.06652-.03414c-.06652,0,0,.07007,.06652,.1042-.06035-.00297-.11296-.04418-.13304-.1042h0s.09892,.1042,.06652,.14014c-.0324,0-.09892-.03414-.09892,0h-.0324l.09892,.07007s-.0324,.03414,.09892,.1042c-.19954-.07007-.17055,.14014-.23195,.1042,.06652,.07007,0,.1042,0,.14014,0,0,.13304,.07007,.09892,.1042-.23195-.14014-.13304,0-.29847-.07007,.13304,.03414,0,.1042,.13304,.17966-.0601-.01336-.11772-.03703-.17055-.07007,.0324,.1042-.13304,.1042-.17055,.2102,0,0,.09892,0,.13304,.07007l-.17055-.07007s.17055,.1042,.0324,.07007c0,0,.06652,0,.06652,.03414-.23195,.07007-.06652,.38448-.4315,.35034q.06652,0,.06652,.03414h0l.09719-.08265Zm2.5924-2.31044s.0324,.07007,0,.03414c-.06652-.07007,0-.03414,0-.03414Z"/><path id="_パス_1572" class="cls-1" d="M152.37927,2.62485h.06652s-.06652-.07007-.06652,0Z"/><path id="_パス_1574" class="cls-1" d="M152.04668,2.58892s-.06652-.1042,0-.07007c-.0324-.1042,0,.14014,0,.07007Z"/><path id="_パス_1575" class="cls-1" d="M152.44577,2.76499l.0324,.07007,.0324,.03414-.06652-.1042h.00172Z"/><rect id="_長方形_151" class="cls-1" x="152.4362" y="2.86098" height=".03245"/><path id="_パス_1578" class="cls-1" d="M152.04839,3.11533s.0324,.03414,.0324,0v-.07007h0l-.0324,.07007Z"/><path id="_パス_1579" class="cls-1" d="M152.28204,3.21953s-.0324,0-.06652-.07007l.06652,.1042h0v-.03414Z"/><path id="_パス_1580" class="cls-1" d="M152.27863,3.35966s0-.07007-.0324-.07007c0,0,0,.1042,.0324,.07007Z"/><path id="_パス_1581" class="cls-1" d="M151.7141,3.4998h0l-.09892-.17966,.09892,.17966Z"/><path id="_パス_1582" class="cls-1" d="M151.71582,4.09448c-.03578,.00101-.06557-.02873-.06652-.06642-.00003-.00121-.00003-.00243,0-.00364,0,.07007,0,.03414,.09892,.14014,.06652,0-.06652-.1042,0-.07007h-.0324Z"/><path id="_パス_1583" class="cls-1" d="M147.7948,7.63021l-.06652,.03593h.06652v-.03593Z"/><path id="_パス_1584" class="cls-1" d="M147.89373,7.77035l-.09893-.07007s.09892,.07007,.09893,.07007Z"/><path id="_パス_1586" class="cls-1" d="M150.48613,5.60004h0l-.09892-.07007,.09892,.07007Z"/><path id="_パス_1588" class="cls-1" d="M156.10072,21.07067l.06652-.07007s-.06652,.1042-.06652,.07007Z"/><path id="_パス_1589" class="cls-1" d="M155.90118,21.17487l.0324-.03414-.06652,.07007,.0324-.03414,.00172-.0018Z"/><path id="_パス_1590" class="cls-1" d="M155.9097,21.1048s-.09892,.07007-.06652,0c-.06652,.14014,.0324,0,0,.03414h0l.06652-.07007h0v.03593Z"/><path id="_パス_1593" class="cls-1" d="M155.93699,20.75446c-.02686,.03115-.04926,.06625-.06652,.1042h.0324v-.1042h.03412Z"/><path id="_パス_1596" class="cls-1" d="M155.83467,21.0006s.06652-.1042,.0324-.07007c-.00212,.0268-.01369,.05179-.0324,.07007Z"/><path id="_パス_1598" class="cls-1" d="M155.83636,20.82453v-.07007c-.01797,.03752-.04031,.07252-.06652,.1042h0l.06652-.03414Z"/><path id="_パス_1600" class="cls-1" d="M155.73574,21.06887l.09892-.1042-.09892,.1042Z"/><path id="_パス_1601" class="cls-1" d="M155.80226,20.72033l.06652-.07007-.06652,.07007Z"/><path id="_パス_1602" class="cls-1" d="M155.76984,20.68439s.0324-.1042,.06652-.1042l-.06652,.07007v.03414Z"/><path id="_パス_1607" class="cls-1" d="M155.66922,21.1048c.01753-.05686,.05227-.10609,.09892-.14014,0,.03414-.06652,.07007-.09892,.14014Z"/><path id="_パス_1608" class="cls-1" d="M155.70334,20.96467c.00212-.0268,.01369-.05179,.0324-.07007h-.0324v.07007Z"/><path id="_パス_1616" class="cls-1" d="M155.43556,21.03473v-.07007c-.0324,.1042-.09892,.1042-.17055,.24434h0c.0324-.07007,.09892-.14014,.06652-.03414,.08679-.13409,.16432-.27459,.23195-.42041-.0026,.04487-.02805,.08474-.06652,.1042,.00436,.06734-.02003,.13321-.06652,.17966h0l.00511-.00359Z"/><path id="_パス_1617" class="cls-1" d="M155.6027,20.79039h0l.0324-.07007-.06652,.07007h.03412Z"/><path id="_パス_1618" class="cls-1" d="M155.60272,20.92873c.00396-.0367,.01498-.07215,.0324-.1042h0v-.07007h-.0324c-.0324,.07007-.06652,.1042-.09892,.17966,0,0,.0324-.07007,.06652-.07007h0l.0324,.06468Z"/><path id="_パス_1619" class="cls-1" d="M155.66923,21.03473s-.06652,.1042-.09892,.17966h-.0324c.02729-.0328,.04971-.06974,.06651-.10959h0c.01504-.05011,.03749-.0974,.06652-.14014h0l-.0017,.07007Z"/><path id="_パス_1620" class="cls-1" d="M155.5362,21.06887v.07007h0c.00023-.03744,.01155-.07387,.0324-.1042h-.0324v.03414Z"/><path id="_パス_1621" class="cls-1" d="M155.6027,20.75446l.06652-.1042-.09892,.1042h.0324Z"/><path id="_パス_1622" class="cls-1" d="M155.5703,20.71853h0l.0324-.03414-.0324,.03414Z"/><path id="_パス_1624" class="cls-1" d="M154.87275,20.36999s.06652-.17966,0-.1042v.07007h0v.03414Z"/><path id="_パス_1627" class="cls-1" d="M155.27014,20.61433v-.07007c0,.03414-.0324,.1042,0,.07007Z"/><path id="_パス_1635" class="cls-1" d="M154.27411,21.14073l.06652-.07007,.09892-.2102-.17055,.28027h.00511Z"/><path id="_パス_1636" class="cls-1" d="M155.30424,20.96467s.09892-.1042,.09892-.07007l-.06652,.1042v-.03414c.0324-.03414-.06652,.17966,.0324,0v-.07007c.04224-.03763,.08667-.07243,.13304-.1042,.06652-.1042,0,0,.0324-.1042-.06652,.17966-.0324,0-.09892,.14014,.06652-.14014,0-.07007,.06652-.2102,0,.03414,0,.07007-.0324,.03414h0v.1042c-.04636,.03177-.0908,.06658-.13304,.1042,.00212-.0268,.01369-.05179,.0324-.07007v.07007s0-.14014,.0324-.17966h0v-.06468h-.0324s-.13304,.1042-.06652-.03414h-.0324v-.07007h0c.09892-.17966-.0324-.07007-.0324-.1042v.1042h-.13304v.07007l-.06652-.07007h0c.06652-.2102-.13304,.1042-.09892-.03414h0v-.06288h0s0,.03414-.06652,.1042h-.0324s-.0324,.07007,0-.07007c-.0324,.07007-.06652,0-.13304,.17966h0c-.00049-.06155,.01051-.12259,.0324-.17966l-.13304,.14014v-.07725h0c.0324-.14014-.09892-.07007-.06652-.2102-.09892,.2102,0-.1042-.06652,.07007,0-.03414,0-.07007,.06652-.1042-.0324,.03414,0-.1042-.06652,0,0-.03414,.0324-.07007,.06652-.1042h0c.00212-.0268,.01369-.05179,.0324-.07007-.06362,.08865-.12065,.18236-.17055,.28027q0-.07007-.0324,0c0-.03414,0-.1042,.06652-.1042,0,0,0-.1042-.06652,0h-.0324s0,.03414-.06652,.07007h0s-.0324,0,0-.1042v.1042c-.13304,.17966,0-.14014-.06652-.07007v.07007s.06652-.28027,.06652-.31441v-.03773c0-.14014-.06652,.1042-.09892,.14014,0-.07007,.06652-.14014,.06652-.17966,0-.07007-.13304,.17966-.09892,.07007,.007,.05663-.01931,.11206-.06652,.14014,0,0,0-.2102-.0324-.07007h0s-.06652,0-.09892,.1042c.09892-.31441-.13304,.1042,0-.17966h0c-.04259,.00274-.08044,.02955-.09892,.07007v-.06109q0-.07007-.09892,.07007v-.1042s0-.17966-.0324-.07007h0s0-.31441-.13304,0l-.06652,.07007c-.03253,.06594-.05499,.13688-.06652,.2102v-.14193h0v-.17966c-.06652,0-.09892-.14014-.17055-.17966v.14014h-.06652s0-.14014,.0324-.1042c0-.07007-.0324,.07007-.06652,.1042,.00902-.06441,.03175-.12583,.06652-.17966h0s-.0324,.14014-.06652,.14014v-.08983h0v.07007s-.0324,0-.06652,.1042c.0324-.2102-.09892-.1042-.06652-.17966-.0324,.07007-.06652,.07007-.06652,.07007,0,0,0,.14014-.0324,.14014,.06652-.24434,0-.1042,0-.31441,0,.14014-.06652,0-.09892,.2102v-.17966c-.06652,.1042-.06652-.07007-.13304-.07007-.00141,.04858-.01244,.09631-.0324,.14014v-.17966s-.0324,.2102,0,.07007v.07007c-.06652-.17966-.23195,.1042-.26606-.24434v.07007s-.06652,0-.06652,.14014h0s-.0324,.31441-.06652,.49048c.0324-.17966,0,.24434,.06652,0v.12037c0-.07007,0-.1042,.0324-.07007h0c.01753,.05686,.05227,.10609,.09892,.14014v-.03773c.0324-.14014,0,0,0-.17966,0,.17966,.06652,0,.0324,.24434,0,0,0-.1042,.0324-.1042h0v.14014h.0324c.06951-.00359,.13308-.04243,.17055-.1042h.06652l.0324-.03414c.00523,.04928-.00625,.09891-.0324,.14014,.06652-.07007,.0324-.07007,.09892-.2102v.07546s0-.1042,.0324-.1042c.01001,.06812-.01537,.13667-.06652,.17966,0,.17966,.09892-.14014,.06652,.1042,.06652-.17966,0-.1042,0-.14014,0-.07007,.06652-.14014,.06652-.1042,0,0-.06652,.24434,0,.24434h0c.0324-.1042,0,0,.06652-.14014h-.0324s.09892-.17966,.09892-.07007c-.00023,.03744-.01155,.07387-.0324,.1042h0c-.0324,.14014-.0324,0-.09892,.14014,0,.07007,.06652-.1042,0,.07007,.06652-.2102,0,0,.09892-.1042v.1042h0v.07007s-.0324,.1042,0,.03413c-.00049-.06155,.01051-.12259,.0324-.17966,.06652-.1042-.06652,.24434,0,.2102h0c.0324,0,0-.1042,.06652-.14014,0,.1042,0-.03414,.06652-.07007v.1042s.0324-.17966,.0324-.1042l-.06652,.1042h0v.07007h0c.00902-.06441,.03175-.12583,.06652-.17966,0,.07007-.0324,.07007,0,.07007,0,.07007-.06652,.14014-.0324,.03414v.07007h0l.06652-.1042s0,.07007-.0324,.07007v-.06647s0,.14014-.0324,.17966l.06652-.07007v.1042c0,.03414,.09892-.14014,.09892-.07007h0s0,.07007,.06652,0v.13654s0-.17966,.06652-.2102c.0324,0-.0324,.1042-.0324,.14014,.0324-.07007,.09892-.17966,.09892-.07007h0v.07007c-.04468,.05183-.0784,.11307-.09892,.17966,.09892-.24434,.06652,0,.17055-.24434v.07007h0s.09892-.17966,.09892-.1042v.03414h.06652s.06652-.03414,.06652-.07007v.1042c-.09892,.24434,.0324-.07007,0,.1042h0c.00086,.07152-.0101,.14265-.0324,.2102,.01815-.09851,.05157-.1932,.09892-.28027h0c-.0324,.1042,0,.07007,0,.07007v-.03952c-.00069,.06642-.02435,.13029-.06652,.17966,.01269-.06332,.03516-.12401,.06652-.17966,0,.07007,0,0,.09892-.03414,0,.03414-.0324,.07007-.0324,.1042l.06652-.1042h0s.06652-.07007,.06652-.1042c.06652-.14014-.06652,.2102,0,.07007-.01797,.03751-.04031,.07252-.06652,.1042,.05262-.05254,.09747-.1131,.13304-.17966v.07007c.03694-.09712,.08144-.19086,.13304-.28027v-.10061h.09892l-.06652,.07007h0l-.06652,.14014v-.07007l-.09892,.2102h0l-.06652,.1042h0s.19954-.24434,.23195-.28027c-.05097,.08977-.09543,.18346-.13304,.28027,.0324-.1042-.06652,.03414-.06652,0,0,0,0,.07007-.0324,.07007l.09892-.1042c-.00023,.03744-.01155,.07387-.0324,.1042,.06652-.17966,.06652-.1042,.13304-.17966-.0036,.0445-.02876,.08389-.06652,.1042-.0324,.14014,.13304-.2102,.09892-.07007h0c.0324-.03414,.0324,0,0,.07007h0s.06652,.03414,.17055-.1042l-.09892,.2102,.29847-.49047c-.07633,.18152-.16525,.35687-.26606,.52461h0s.06652-.2102,.09892-.2102c-.06652,.14014,0,.07007-.06652,.2102,0,0,.09892-.24434,.13304-.2102l-.09892,.2102,.13304-.17966c-.04513,.07537-.07853,.15786-.09892,.24434,0-.03414,0,0,.0324,0h0s.17055-.31441,.19954-.28027c0,.03414-.13304,.24434-.13304,.28027,.06652-.1042,.26606-.49047,.33258-.56054h0s-.26606,.45454-.33258,.56054v.07007c.00095,.03769-.02727,.06906-.06306,.07007-.00116,.00003-.0023,.00003-.00346,0v.07007c.06238-.06487,.11943-.13519,.17055-.2102l-.09892,.1042s.19954-.31441,.19954-.28027c-.03155,.08847-.07649,.17098-.13304,.24434,0-.03414,.06652-.07007,.06652-.03414v.07007h0s-.06652,.17966,0,.1042c.06652-.14014,.26606-.56054,.33258-.66475-.01679,.07184-.03902,.14213-.06652,.2102-.05407,.12417-.12097,.24166-.19954,.35034,0,0,.0324-.07007,.06652-.07007,0,0-.06652,.1042-.0324,.1042l.06652-.1042h0c.05837-.09956,.12515-.19337,.19954-.28027v.1042s-.0324,.07007,0,.1042c-.0026,.04487-.02805,.08474-.06652,.1042v.07007c.0324-.07007,.06652-.07007,.09892-.1042,.06652-.1042,0,0-.0324,0,.06114-.12779,.13924-.24575,.23195-.35034,.0324,0-.0324,.1042,0,.07007,0,.03414,.17055-.24434,.17055-.1042-.03708,.0856-.08161,.1674-.13304,.24434-.0324,0,0-.07007,0-.07007h0s-.0324,.1042-.0324,.07007c-.0324,.1042,.06652,.07007,.0324,.14014,.01797-.03751,.04031-.07252,.06652-.1042h0c.03878-.04184,.07204-.08898,.09892-.14014h0l-.38204,.22279Z"/><path id="_パス_1642" class="cls-1" d="M155.43727,20.68439s.06652-.1042,.0324-.07007c.06652-.07007-.09892,.1042-.0324,.07007Z"/><path id="_パス_1643" class="cls-1" d="M155.30424,21.14073v.03414l.0324-.1042-.0324,.07007Z"/><path id="_パス_1646" class="cls-1" d="M155.1047,20.96646v.03414l.0324-.07007h0l-.0324,.03593Z"/><path id="_パス_1648" class="cls-1" d="M154.93925,21.315c.01777-.019,.02915-.04361,.0324-.07007,0,0-.06652,.07007-.0324,.07007Z"/><path id="_パス_1649" class="cls-1" d="M154.80623,20.96467h0l.09892-.17966-.09892,.17966Z"/><path id="_パス_1650" class="cls-1" d="M154.43955,21.24494v-.07007c-.0324,.03414,0,0-.06652,.14014,0,.07007,.06652-.1042,.0324-.03414h0l.03412-.03593Z"/><path id="_パス_1651" class="cls-1" d="M152.24622,19.49504l-.0324-.07007v.07007h.0324Z"/><path id="_パス_1654" class="cls-1" d="M153.50832,20.96467l.0324-.1042-.06652,.1042h.03412Z"/><path id="_パス_1658" class="cls-1" d="M141.21657,31.57007v.03414h.06652s-.09892,0-.06652-.03414Z"/><path id="_パス_1703" class="cls-1" d="M140.81747,31.14966h.29847c.06652,0,.17055,0,.09892,.03414h.29847c-.17055,0,0-.03414-.17055,0h.13984s.06652-.03414,0-.03414h0s-.13304-.07007,0-.1042h.06652s.06652,0,0-.03414c.19954,0,.0324-.03414,.06652-.07007h-.09892l-.06652-.03414h-.09892c.03578,.00101,.06557-.02873,.06652-.06642,.00003-.00121,.00003-.00243,0-.00364h0c.19954,0-.13304-.03414,0-.07007h-.23195c.17055,0,0-.07007,.17055-.1042h.06652c-.06652,0,.09892,0-.06652-.03414h-.06652s.06652-.03414-.06652-.03414h-.08186s-.06652,0,.06652-.03414h-.09892c-.19954,0,.13304,0,.0324-.03414h-.06652c.10054,.00414,.20112-.00736,.29847-.03414h.06652s-.23195-.03414-.09892-.07007h-.13304s.19954-.03414,0-.03414h-.13304c.33258-.03414-.17055-.03414,.13304-.07007h0c-.03584-.03811-.08259-.06273-.13304-.07007h.06652c.06652,0,.0324-.03414-.09892-.03414h.09892s.17055-.07007,.0324-.07007h.0324c-.13304,0,.26606-.1042-.09892-.07007h-.28994s.09892-.03414,.13304,0h0c.19954,0,.06652-.03414,.19954-.03414,0-.03414,.09892-.1042,.06652-.17966h-.23195c.19954-.03414,.06652-.1042,.13304-.1042h-.19954c.26606,0,.09892-.03414,.29847-.07007-.13304,0-.0324-.03414-.19954,0h.17055c-.09892,0,.06652-.07007,0-.1042h.0324s-.19954,0-.06652-.07007h-.09892s-.17055-.1042,.13304-.2102h-.19954l.13304-.07007h-.13304l-.49801,.1042c.17055,0-.23195,.07007,0,.07007h-.03072l-.09892,.1042h0l.17055-.03414c-.19954,.03414,0,.07007-.19954,.1042h.0324s0,.07007,.09892,.07007h.0324s-.0324,0,0,.03414h0c-.17055,.03414,.17055,0-.06652,.07007,.19954,0,.09892-.03414,.17055-.03414h.13304s-.26606,.03414-.26606,.07007h-.09892s-.09892,.07007,0,.07007c.05842,.00052,.11638-.01108,.17055-.03414,.13304,0-.23195,.03414-.19954,.07007h.09892s.06652,0,0,.03414h0c-.04327,.01561-.08781,.02703-.13304,.03414-.0324,0,.17055,0,.09892,.03414h.0324s-.09892,.03414,0,.03414h-.249c.26606,0,0,.03414,.29847,0h.17055s0,.03414-.06652,.03414h-.06652c-.26606,0,.06652,0-.09892,.03414h-.0324c-.06772,.00131-.13491,.01281-.19954,.03414,.09879-.01756,.19968-.01756,.29847,0h-.03071c-.0324,0,0,0,.09892,.03414h.13304c.13304,0-.19954,.03414-.0324,.03414h-.19955s.36498,.07007,.4315,.07007h-.29847c.13304,0-.06652,0,0-.03414h.0324c-.04612,.00148-.09144,.01311-.13304,.03414h.13304s0,.07007,.17055,.07007h.33258s-.49801,.03414-.56453,.03414h-.23195c.07606,.01946,.15375,.0309,.23195,.03414h.63105c-.07842,.0004-.15643,.01188-.23195,.03414h-.06652s-.06652,.03414-.06652,.07007h.26606c0,.03414,.29847,0,.17055,.07007h-.29847c-.09892,0,0,.07007-.09892,.07007h0l-.05114,.49407Z"/><path id="_パス_1710" class="cls-1" d="M140.91639,31.25386l.09892-.03414h-.09892v.03414Z"/><path id="_パス_1724" class="cls-1" d="M126.59677,21.48928l.0324,.03414-.0324-.06827v.03414Z"/><path id="_パス_1725" class="cls-1" d="M126.66328,21.45514h0v.07007s.0324-.1042,.06652-.07007c-.06652-.14014,0,0-.06652,0Z"/><path id="_パス_1733" class="cls-1" d="M126.96175,21.66534l.0324,.07007c-.00023-.03744-.01155-.07387-.0324-.1042h0v.03414Z"/><rect id="_長方形_160" class="cls-1" x="126.81456" y="21.48747" height=".10423"/><path id="_パス_1735" class="cls-1" d="M127.06239,21.73362v.07007l-.03412-.1042,.0324,.03414h.00172Z"/><path id="_パス_1736" class="cls-1" d="M127.09479,21.69948c.01481,.04558,.02566,.09248,.0324,.14014v-.106h-.0324v-.03414Z"/><path id="_パス_1738" class="cls-1" d="M126.96175,21.59528s0,.07007,.0324,.07007v-.07007h-.0324Z"/><path id="_パス_1741" class="cls-1" d="M126.82873,21.35094c.01802,.05819,.02891,.11857,.0324,.17966,.00321-.06177-.00791-.12343-.0324-.17966Z"/><path id="_パス_1743" class="cls-1" d="M127.06239,21.59348v-.03414h-.03412v.03414h.03412Z"/><path id="_パス_1750" class="cls-1" d="M127.06239,21.24494l.0324,.07007c-.0324-.1042,0-.14014-.06652-.28027v.07007c.03368,.14936,.09136,.29155,.17055,.42041v-.106c0-.03414-.06652-.07007-.06652-.14014h0l-.06991-.03414Z"/><path id="_パス_1751" class="cls-1" d="M127.12891,21.52521h0s0,.03414,.06652,.1042v-.1042h-.06652Z"/><path id="_パス_1752" class="cls-1" d="M127.09479,21.52521c.00038-.07587-.02301-.14975-.06652-.2102v.1042c.00212,.0268,.01369,.05179,.0324,.07007h0v.07007h0l.03412-.03414Z"/><path id="_パス_1753" class="cls-1" d="M126.82873,21.28267c.02885,.04286,.05128,.09012,.06652,.14014-.0069-.07444-.02963-.14629-.06652-.2102h0v.1042h0v-.03414Z"/><path id="_パス_1755" class="cls-1" d="M127.16131,21.55934l.0324,.07007-.0324-.1042v.03414Z"/><path id="_パス_1756" class="cls-1" d="M127.19541,21.52521l.0324,.07007v-.03593l-.0324-.03414Z"/><path id="_パス_1758" class="cls-1" d="M128.026,21.24494s.09892,.17966,.06652,.07007v-.07007h-.06652Z"/><path id="_パス_1761" class="cls-1" d="M127.52799,21.38507c0,.01885,.01451,.03413,.0324,.03414,0-.03414-.06652-.1042-.0324-.03414Z"/><path id="_パス_1769" class="cls-1" d="M127.89298,20.26578v.07007l.09892,.24434-.09892-.31441Z"/><path id="_パス_1770" class="cls-1" d="M130.65082,19.98551s-.13304-.31441-.19954-.49048c.0324,.17966-.13304-.2102-.06652,0v-.03593h0c-.0581-.01983-.11504-.04323-.17055-.07007h0c.0324,.14014,.0324,0,.06652,.14014-.06652-.17966-.09892,0-.17055-.17966,0,0,.0324,.1042,0,.1042h0s-.06652-.07007-.06652-.1042h-.0324c-.07934,.01882-.13503,.09402-.13304,.17966h0s-.0324,0-.06652,.07007h0v.07007c0-.03414-.06652-.1042-.06652-.14014-.00143,.08273,.0095,.16519,.0324,.24434v.06647c0-.07007-.06652-.1042-.06652-.17966-.09892-.14014,0,.17966-.09892-.03414,.06652,.2102,.06652,.1042,.06652,.14014,0,.07007,.0324,.14014,0,.14014,0,0-.09892-.24434-.13304-.2102h0s0,.07007-.0324,0c.0324,.1042,0,0,0,.14014h0s.0324,.17966,0,.1042v-.10061h0c-.06652-.14014,0-.03414,0-.17966,0-.07007,0,.1042-.0324-.03414,.06652,.2102-.0324,0,0,.14014h0l-.06652-.1042s-.06652-.07007-.06652,0c.0324,0,.06652,.1042,.09892,.17966,0,.14014-.09892-.2102-.13304-.14014l.06652,.07007-.06652-.07007c.01481,.04558,.02566,.09248,.0324,.14014-.06652-.1042,0,.03414,0,.1042v-.106h-.0324v-.06468s-.0324,.07007-.06652,.03414c0,.07007,.06652,.17966,.0324,.17966,0-.03414,0-.07007-.0324-.07007,0-.07007-.0324-.14014,0-.03414v-.07546h-.06652v.1042c-.02822-.0572-.05053-.11743-.06652-.17966v.106s-.06652-.07007-.06652-.1042c-.0324-.03414,0,.17966-.0324,.1042h0s-.09892-.03414-.06652,.07007l-.06652-.14014s.09892,.14014,.06652,.2102c0,.03414-.06652-.1042-.06652-.14014,0,.07007,.0324,.2102,0,.1042h0v-.06468c-.02098-.06638-.05464-.12752-.09892-.17966,.09892,.24434-.06652,.07007,.0324,.31441h-.0324v-.06468s.06652,.17966,0,.17966c-.01777-.019-.02915-.04361-.0324-.07007v.07007h-.0324v.1042s-.0324-.14014,0-.14014c-.13304-.24434,0,.07007-.09892-.07007h0c-.06652-.17966-.06652-.1042-.13304-.2102,0,.03414,.13304,.2102,.13304,.28027h0c-.0324-.1042-.0324-.07007-.0324-.07007v.03234s-.06652-.1042-.09892-.17966c.02822,.0572,.05053,.11743,.06652,.17966-.03297-.03473-.03297,0,0,.1042,.00625-.037-.0031-.07504-.02559-.1042v.1042h0c.0158,.03278,.02673,.06793,.0324,.1042,.0324,.14014-.09892-.17966-.06652,0-.00023-.03744-.01155-.07387-.0324-.1042v.2102l-.06652-.07007s.06652,.2102,.09892,.28027l.06652,.1042v.07007c-.00023-.03744-.01155-.07387-.0324-.1042h0l-.06652-.14014v.07007c.00086-.07152-.0101-.14265-.0324-.2102h0l-.07163-.1042h0v.41861c0-.1042-.06652-.17966-.09892-.28027,.06652,.1042,0-.07007,.0324-.03414l-.0324-.07007v.14014c-.00294-.04675-.03066-.08777-.07163-.106,.06652,.17966,0,.14014,0,.2102,0-.07007-.0324-.14014,0-.1042-.06652-.14014,.06652,.24434,0,.1042h0c0,.07007,0,0-.0324,0h0s-.09892,0-.0324,.17966l-.06652-.2102,.13132,.55695c-.07796-.16979-.14463-.34509-.19954-.52461h0c.0396,.06639,.07274,.13681,.09892,.2102l-.09892-.2102s.09892,.24434,.06652,.24434c-.02478-.08486-.05793-.16676-.09892-.24434l.06652,.2102s-.06652-.17966-.09892-.24434h0s.06652,.35034,.0324,.35034c0-.03414-.09892-.28027-.13304-.28027,0,.1042,.17055,.52461,.17055,.63061h0s-.17055-.52461-.19954-.66475c0-.03414,0-.07007-.0324-.07007v-.1078h-.06824c.00376,.07511,.02675,.14774,.06652,.2102v-.14014s.09892,.35034,.06652,.35034c-.02363-.09679-.05679-.19073-.09892-.28027h0s0,.17966-.0324,.07007c0,0-.06652-.14014-.06652-.07007,.06652,.14014,.23195,.59468,.26606,.70068,0,0-.09892-.14014-.13304-.17966-.06652-.1042-.06652-.28027-.13304-.35034v.1042s-.0324-.1042-.0324-.07007c.0324,.14014-.0324,0,0,.1042,0,.03414,0,0-.0324,0,.0324,.07007,.09892,.28027,.06652,.31441-.00023-.03744-.01155-.07387-.0324-.1042-.0324,0-.06652-.07007-.09892-.03414-.01797-.03751-.04031-.07252-.06652-.1042v.07007l-.0324-.14014v.17966c.0324,.1042,.0324,0,.0324-.03414,.06023,.13142,.09391,.27457,.09892,.42041,0,.03414-.0324-.1042-.0324-.07007-.06652,0,.06652,.28027,0,.17966-.04213-.08955-.07529-.18348-.09892-.28027,0-.03414,.06652,.07007,.06652,.03414h-.0324v-.07546c-.0324-.07007-.09892,0-.17055-.07007v.1042h0s0,.1042,.0324,.14014h0c0,.07007-.09892-.14014-.0324,0v.07007s.06652,.17966,.0324,.17966c.0324,.1042,0,0,.06652,.1042-.06652-.17966,.06652,0,0-.17966,.02507,.06434,.05835,.12479,.09892,.17966v-.06647h0v-.25153c.02822,.0572,.05053,.11743,.06652,.17966h0s.06652,.07007,.06652,0h0v-.07546h0s0-.14014,.09892,0v.03414s.09892,.07007,.06652,0c.09892,.17966,.06652,0,.13304,.03414v-.24254c.01759,.01935,.04674,.02001,.06511,.00149,.00048-.00048,.00095-.00098,.00141-.00149h0c.09892,.17966,0-.17966,.09892-.03414h.06652l-.0324-.07007v-.07007s0-.07007,.06652,.1042c-.00038-.08261-.01127-.16479-.0324-.24434h0v-.03593c.04044,.06588,.07364,.13641,.09892,.2102v-.14013s0-.1042,.0324-.03414c.06652,.14014,.09892,0,.19954,.1042-.09892-.2102,.06652,.07007,0-.07007,0,.03414,.0324,.07007,.06652,.14014,0-.07007,.06652,.07007,.0324-.07007-.0044,.03808,.00747,.07625,.0324,.1042h0v.06827c-.02156-.10841-.05476-.21389-.09892-.31441,.0324,.07007,.0324,.03414,0-.03414,0,.03414,.06652,.1042,.0324,.1042,0,0,.09892,.03414,.0324-.07007h.0324v-.06827h0s0-.03414,.09892,.07007v-.07007c-.09892-.17966,.0324,.1042,.0324,0h0s.13304,.2102,.17055,.2102v.03414c.06652,.1042-.0324-.1042,0-.14014,.00902,.06441,.03175,.12583,.06652,.17966,0,.03414-.0324-.2102,.0324-.1042-.00831-.05269-.03149-.10152-.06652-.14014,0,0,.13304,.17966,.06652,0h0v-.14373c.13304,.31441,0-.17966,.13304,.1042h.0324v-.07007c.06652,.03414,.06652,0,.0324-.14014v.1042s.17055,.1042,.13304,0h0s.19954,.24434,.06652-.07007v-.1042l-.09892-.2102s.06652,.07007,.06652,.1042h0s.06652,0,.09892,.14014c.06652-.03414,.17055,0,.23195,0l-.06652-.14014h0s.0324,.1042,0,.1042c.0324,.07007,0-.07007,0-.1042,.06652,.03414,.0324,.17966,.06652,.17966h0v-.14373l.0324,.07007h.0324l-.06652-.1042v-.106c.09892,.17966,.13304,0,.17055,.07007v-.1042s-.06652-.14014-.0324-.14014c.09892,.24434,.06652,.1042,.17055,.28027-.06652-.1042,.0324-.03414-.0324-.2102,.01504,.05011,.03749,.0974,.06652,.14014,0-.1042,.09892,0,.13304,0-.01967-.04393-.03071-.0916-.0324-.14014l.09892,.14014s-.06652-.17966,0-.07007v-.07007s.09892-.2102,.29847,.07007c-.0324-.07007,0-.07007,0-.07007h0s.06652,0,.0324-.14014h0l.0955-.17427Z"/><path id="_パス_1774" class="cls-1" d="M127.16131,21.27907s0-.03414-.0324,0h.0324Z"/><path id="_パス_1777" class="cls-1" d="M127.09479,21.06887v-.03414l.0324,.1042-.0324-.07007Z"/><path id="_パス_1783" class="cls-1" d="M127.5928,20.82453h0l.06652,.17966-.06652-.17966Z"/><path id="_パス_1784" class="cls-1" d="M127.66103,20.33406c.00212,.0268,.01369,.05179,.0324,.07007,0-.03414,0,0-.0324-.14014-.0324-.03414,.0324,.1042,0,.07007Z"/><path id="_パス_1785" class="cls-1" d="M130.71733,20.19572l.0324,.03414-.0324-.03414Z"/><path id="_パス_1788" class="cls-1" d="M128.65705,19.80944h0l.06652,.1042-.06652-.1042Z"/><text class="cls-4" transform="translate(7.342 109.88394)"><tspan class="cls-6" x="0" y="0">P</tspan><tspan class="cls-5" x="4.7041" y="0" xml:space="preserve">ersonal  Li</tspan><tspan class="cls-7" x="45.3418" y="0">f</tspan><tspan class="cls-5" x="48.26367" y="0">e Ja</tspan><tspan class="cls-8" x="64.00684" y="0">p</tspan><tspan class="cls-2" x="68.73535" y="0">an Cor</tspan><tspan class="cls-3" x="93.58691" y="0">p</tspan><tspan class="cls-2" x="98.35156" y="0">.</tspan></text></g></svg>