<svg xmlns="http://www.w3.org/2000/svg" width="28.986" height="28.986" viewBox="0 0 28.986 28.986">
  <g id="Enlarge" transform="translate(-6 -6)" opacity="0.45">
    <path id="Path_2107" data-name="Path 2107" d="M28.431,21.858A4.646,4.646,0,1,0,29.8,25.149a4.655,4.655,0,0,0-1.367-3.292Zm-1.338,4.4h-.836V27.1a1.115,1.115,0,1,1-2.23,0v-.836h-.836a1.115,1.115,0,1,1,0-2.23h.836V23.2a1.115,1.115,0,1,1,2.23,0v.836h.836a1.115,1.115,0,1,1,0,2.23Z" transform="translate(-6.41 -6.415)"/>
    <path id="Path_2108" data-name="Path 2108" d="M20.493,6A14.493,14.493,0,1,0,34.986,20.493,14.493,14.493,0,0,0,20.493,6Zm6.728,22.8L22.74,24.323a6.886,6.886,0,1,1,1.578-1.578L28.8,27.227A1.114,1.114,0,1,1,27.221,28.8Z" transform="translate(0 0)"/>
  </g>
</svg>
