<svg id="Component_367_26" data-name="Component 367 – 26" xmlns="http://www.w3.org/2000/svg" xmlns:xlink="http://www.w3.org/1999/xlink" width="456.077" height="134.558" viewBox="0 0 456.077 134.558">
  <defs>
    <filter id="_" x="287.147" y="56.558" width="48" height="62" filterUnits="userSpaceOnUse">
      <feOffset dy="3" input="SourceAlpha"/>
      <feGaussianBlur stdDeviation="3" result="blur"/>
      <feFlood flood-color="#f9bac8"/>
      <feComposite operator="in" in2="blur"/>
      <feComposite in="SourceGraphic"/>
    </filter>
  </defs>
  <path id="Rectangle_300" data-name="Rectangle 300" d="M10,0H411a15,15,0,0,1,15,15v94a0,0,0,0,1,0,0H0a0,0,0,0,1,0,0V10A10,10,0,0,1,10,0Z" transform="translate(0 25.558)" fill="#fff"/>
  <text id="へ戻る" transform="translate(339.147 93.058)" fill="#6e6e6e" font-size="20" font-family="SourceHanSansJP-Regular, Source Han Sans JP" letter-spacing="0.1em"><tspan x="0" y="0">へ戻る</tspan></text>
  <g transform="matrix(1, 0, 0, 1, 0, 0)" filter="url(#_)">
    <text id="_2" data-name="≫" transform="translate(296.15 97.56)" fill="#f18b9d" font-size="30" font-family="SourceHanSans-Medium, Source Han Sans" font-weight="500"><tspan x="0" y="0">≫</tspan></text>
  </g>
  <g id="logo_LS_full" transform="translate(52.127 46.745)">
    <g id="Group_945" data-name="Group 945" transform="translate(-0.01)">
      <g id="Group_942" data-name="Group 942" opacity="0.95">
        <path id="Path_1902" data-name="Path 1902" d="M5.653.535A.291.291,0,0,1,5.333.7c-.1.331-.217.662-.331.988h5.555V2.991h-6.1a14.279,14.279,0,0,1-1.3,2.255l.181.047c-.021.1-.114.191-.305.207v5.337H1.666V6.969a9.051,9.051,0,0,1-1,.8A9.7,9.7,0,0,0-.01,6.436,9.027,9.027,0,0,0,2.855,3H.357V1.683h3.1A14.2,14.2,0,0,0,3.967.09L5.653.535ZM7.748,6.658V9.275h2.777v1.262H3.647V9.275h2.72V6.658H4.081V5.4H6.367V3.483l1.686.093c-.01.124-.093.181-.305.228V5.4H10.07V6.658H7.748Z" transform="translate(0.01 -0.043)" fill="#f1a1b4"/>
        <path id="Path_1903" data-name="Path 1903" d="M34.681,8.748c0,.512.1.579.786.579h1.945c.615,0,.729-.248.807-1.593a4.491,4.491,0,0,0,1.365.569c-.181,1.841-.615,2.369-2.058,2.369H35.317c-1.686,0-2.141-.445-2.141-1.914V7.5l-3.745.4L29.24,6.586l3.936-.409V4.946c-.843.16-1.707.295-2.539.409A5.109,5.109,0,0,0,30.2,4.171c.134-.021.264-.021.4-.047v-.01H29.473V1.4h4.122V.09l1.784.093c-.01.124-.1.191-.331.228V1.4h4.189v2.72H37.779V2.686h-6.92V4.072a21.321,21.321,0,0,0,5.2-1.365L37.21,3.855c-.057.057-.078.057-.321.057a16.6,16.6,0,0,1-2.069.662l.171.01c-.01.114-.1.181-.321.228V6.027l4.722-.491L39.574,6.8l-4.9.522V8.743Z" transform="translate(-14.112 -0.043)" fill="#f1a1b4"/>
        <path id="Path_1904" data-name="Path 1904" d="M68.539,9.555v1.309H59.845v.476H58.48V1.12h9.785V2.429H62.007l1.117.321c-.021.078-.114.124-.274.124-.047.134-.114.284-.171.419h4.712V4.43H64.811V5.454H68V6.628H65.028a4.092,4.092,0,0,0,3.015,1.49,4.308,4.308,0,0,0-.8,1.148,4.551,4.551,0,0,1-3.015-1.707,5.457,5.457,0,0,1-3.072,1.753A5.347,5.347,0,0,0,60.326,8.3c1.841-.409,2.627-1.024,2.938-1.676H60.373V5.449h3.082V4.425h-1.4a5.926,5.926,0,0,1-.7.89A6.456,6.456,0,0,0,60.29,4.7a5.552,5.552,0,0,0,1.365-2.276h-1.81V9.545h8.694Z" transform="translate(-28.229 -0.541)" fill="#f1a1b4"/>
        <path id="Path_1905" data-name="Path 1905" d="M95.687,3.922l.874.672a.2.2,0,0,1-.171.067.352.352,0,0,1-.1-.01c-.16.124-.4.305-.636.476a5.392,5.392,0,0,0,1.091.548,4.239,4.239,0,0,0-.8.957,5.961,5.961,0,0,1-.615-.331V8.189H93.313V9.657c0,1.06-.5,1.195-2.126,1.195a5.747,5.747,0,0,0-.419-1.091c.419.01.9.01,1.045.01s.181-.047.181-.16V8.189H90.04V6.332c-.191.124-.4.248-.615.367a3.135,3.135,0,0,0-.626-.74,8.2,8.2,0,0,1-1.671,4.913,5.025,5.025,0,0,0-.946-.9,5.659,5.659,0,0,0,1.262-2.979L86.43,7.6a.242.242,0,0,1-.171.228L85.84,6.482c.455-.191,1.071-.5,1.727-.833.01-.305.01-.605.01-.89v-.4l-1.014.465a9.77,9.77,0,0,0-.615-2.312l.967-.409a9.314,9.314,0,0,1,.662,2.012V1.067h3.517V.11L92.848.2c-.01.114-.1.181-.321.228v.636h4.122V2.215H92.667v.01l.579.057c-.01.114-.1.191-.274.191-.047.134-.1.284-.16.419h3.651V3.917h-.786ZM91.452,8.783c-.036.093-.124.124-.274.114a6.834,6.834,0,0,1-1.671,1.764,7.59,7.59,0,0,0-.931-.74,4.922,4.922,0,0,0,1.49-1.593l1.386.455ZM88.835,2.215v2.55c0,.295-.01.615-.021.946a7.152,7.152,0,0,0,.931-.59c-.228-.181-.476-.378-.7-.533l.693-.605a8.038,8.038,0,0,1,.729.5,4.675,4.675,0,0,0,.465-.559H89.155V2.9h2.369a5.176,5.176,0,0,0,.248-.683H88.835Zm5.3,3.962V5.758H91.177v.419Zm0,1.205V6.937H91.177v.445Zm-.341-2.436A6.144,6.144,0,0,1,93.1,3.922h-.776a7.809,7.809,0,0,1-.719,1.024h2.183Zm1.583,5.746A10.725,10.725,0,0,0,93.82,8.871l1.034-.512a11.958,11.958,0,0,1,1.629,1.753l-1.1.579Zm-1.034-6.77a5.326,5.326,0,0,0,.59.646c.248-.217.512-.465.693-.646H94.338Z" transform="translate(-41.439 -0.053)" fill="#f1a1b4"/>
        <path id="Path_1906" data-name="Path 1906" d="M133.236,6.139a.352.352,0,0,1-.1.01.453.453,0,0,1-.238-.062c-3.114.838-5.431,1.955-5.42,3.062.01.776.817,1.086,2.245,1.086a24.548,24.548,0,0,0,3.672-.279l.124,1.324c-1.19.155-3.176.2-3.765.2-2.027,0-3.62-.5-3.62-2.276,0-1.086.972-2,2.5-2.824-.383-.745-.5-1.893-.486-4.127l1.841.145c-.01.155-.114.238-.341.269-.01.3-.01.579-.01.838a7.508,7.508,0,0,0,.238,2.286c.879-.393,1.872-.765,2.927-1.127l.434,1.479Z" transform="translate(-60.891 -1.086)" fill="#f1a1b4"/>
        <path id="Path_1907" data-name="Path 1907" d="M160.627,4.236l1.593.093a11.088,11.088,0,0,1-2.865-2.9,12.419,12.419,0,0,1-4.562,4.05,5.242,5.242,0,0,0-.843-1.117A11.114,11.114,0,0,0,158.6,0c.047,0,.093,0,1.867.1a.309.309,0,0,1-.295.228A10.535,10.535,0,0,0,164.9,4.169a7.26,7.26,0,0,0-.9,1.262,12.5,12.5,0,0,1-1.66-1.024.368.368,0,0,1-.284.15v6.237h-1.422V4.236Zm-2.539,1.479a5.385,5.385,0,0,1-2.483,5.074,5.663,5.663,0,0,0-1.138-.978,4.29,4.29,0,0,0,2.208-4.132V4.293c.662.047,1.195.067,1.727.1-.01.114-.1.181-.321.228V5.715Z" transform="translate(-74.322)" fill="#f1a1b4"/>
        <path id="Path_1908" data-name="Path 1908" d="M186.5,1.988V3.069h-3.8V1.988Zm-.321,4.758v3.46H184.2v.465h-1.06V6.746h3.036Zm-3-2.115V3.6H186.2V4.631Zm0,1.557V5.164H186.2V6.188h-3.026Zm3-5.736V1.486h-2.938V.452h2.938ZM185.1,7.817h-.9V9.136h.9Zm2.322-.957V4.574a4.269,4.269,0,0,1-.465.455,5.832,5.832,0,0,0-.729-.843,6.3,6.3,0,0,0,1.629-2.3l.321.1V1.647h-1.443V.669h1.443V.09l1.49.078c-.01.1-.093.171-.284.191V.664H190.7V.09l1.5.078c-.01.1-.078.171-.284.207V.669h1.49v.978h-1.49v.548h-.8l.331.078c-.021.093-.114.134-.274.134-.067.1-.16.228-.248.352h2.115V3.6h-2.095v.341h1.841v.672h-1.841v.352h1.841V5.65h-1.841V6h2.415v.853h-5.943Zm-.5.352h5.234l.207-.047s.036.021.833.362a.432.432,0,0,1-.134.15,4.958,4.958,0,0,1-1.66,1.7,12.611,12.611,0,0,0,2.162.409,5.094,5.094,0,0,0-.76,1.06,10.532,10.532,0,0,1-2.752-.776,14.018,14.018,0,0,1-3.155.786,3.811,3.811,0,0,0-.559-1.024,12.768,12.768,0,0,0,2.472-.455,5.325,5.325,0,0,1-1.024-.921l.693-.264h-1.546V7.212Zm2.845-3.269V3.6h-1.117v.341Zm0,1.024V4.615h-1.117v.352Zm0,1.034V5.65h-1.117V6Zm-.388-3.812h-.615l.378.124c-.047.093-.124.134-.274.124-.057.1-.1.217-.171.321h.967a7.49,7.49,0,0,0,.352-.833l.683.16V1.642h-1.319V2.19Zm-.409,6a4.582,4.582,0,0,0,1.1.7,5.03,5.03,0,0,0,1.1-.7h-2.208Z" transform="translate(-88.203 -0.043)" fill="#f1a1b4"/>
        <path id="Path_1909" data-name="Path 1909" d="M221.067,5.722a.3.3,0,0,1-.093.021.264.264,0,0,1-.16-.057c-.853.248-1.981.615-2.824.931.021.228.021.491.021.76s0,.569-.021.9l-1.433.1a11.452,11.452,0,0,0,.047-1.215c-.89.445-1.536,1.024-1.536,1.458,0,.5.626.7,1.914.7A26.418,26.418,0,0,0,219.8,9.2l.021,1.319c-.59.067-1.572.078-2.855.078-2.2,0-3.289-.491-3.289-1.9,0-.91,1.184-1.945,2.788-2.767-.036-.331-.207-.636-.548-.636a3.411,3.411,0,0,0-2.483,1.443c-.274.321-.693.76-1.184,1.241L211.24,7a13.116,13.116,0,0,0,1.386-1.319A6.846,6.846,0,0,0,213.9,3.306l-.434.01c-.248,0-1.479.01-1.764,0V2.034c.636.036,1.459.036,1.955.036l.605-.01A14.32,14.32,0,0,0,214.5.56l1.743.171a.3.3,0,0,1-.284.217c-.057.362-.15.7-.238,1.06a12.671,12.671,0,0,0,3.46-.626l.228,1.345a17.333,17.333,0,0,1-4.06.559,6.756,6.756,0,0,1-.559,1.329h.01a2.665,2.665,0,0,1,1.557-.559,1.471,1.471,0,0,1,1.412,1.329c.874-.378,1.945-.76,2.767-1.091l.522,1.433Z" transform="translate(-101.982 -0.27)" fill="#f1a1b4"/>
        <path id="Path_1910" data-name="Path 1910" d="M246.628,4.253l1.014.579a.382.382,0,0,1-.217.181,8.039,8.039,0,0,1-2.617,3.47,13.479,13.479,0,0,0,4.086,1.045,6.152,6.152,0,0,0-.874,1.329,12.288,12.288,0,0,1-4.588-1.49,14.743,14.743,0,0,1-4.572,1.469,5.318,5.318,0,0,0-.75-1.319A15.741,15.741,0,0,0,242.2,8.473a8.661,8.661,0,0,1-1.934-2.483l1.024-.352h-2.141V4.294h3.61V2.965h-4.277V1.61h4.277V.11L244.5.2c-.01.114-.1.181-.321.228V1.61h4.35V2.965h-4.35V4.294H246.4l.238-.047Zm-5.043,1.386a6.091,6.091,0,0,0,1.934,2.115,6.057,6.057,0,0,0,2.012-2.115H241.58Z" transform="translate(-114.955 -0.053)" fill="#f1a1b4"/>
        <path id="Path_1911" data-name="Path 1911" d="M271.158,6.661a2.731,2.731,0,0,1,.946-.191,1.023,1.023,0,0,1,1.034,1.081c0,.331-.021.729-.021.921,0,.864.476.864,1.071.864a10.213,10.213,0,0,0,1.6-.134c0,.191-.01.362-.01.522a8.315,8.315,0,0,0,.036.9c-.476.036-1.071.067-1.614.067a7.689,7.689,0,0,1-.993-.047A1.465,1.465,0,0,1,271.732,9.2c0-.274.021-.729.021-1.014,0-.352-.16-.569-.465-.569a3.027,3.027,0,0,0-1.877.921c-.579.579-1.743,1.727-2.058,2.115a13.108,13.108,0,0,0-1.081-1.117c1.148-1.081,4.236-3.936,5.156-4.825-.74.067-2.72.181-3.879.264-.067.1-.093.134-.181.134l-.114-1.536c1.546-.047,4.407-.15,5.612-.248l.207-.124,1.091,1.014a.4.4,0,0,1-.295.093c-.729.59-1.774,1.5-2.695,2.343v.01Zm2.152-3.982a26.3,26.3,0,0,0-4.665-.729L268.985.62a24.921,24.921,0,0,1,4.691.683l-.362,1.376Z" transform="translate(-128.551 -0.299)" fill="#f1a1b4"/>
        <path id="Path_1912" data-name="Path 1912" d="M294.909,5.4a5.983,5.983,0,0,1,2.172-.419,2.7,2.7,0,0,1,2.927,2.845c0,2.038-1.774,3.222-4.257,3.222-1.469,0-2.5-.672-2.5-1.821a1.883,1.883,0,0,1,2-1.671,2.3,2.3,0,0,1,2.312,1.8,1.642,1.642,0,0,0,.947-1.515c0-.978-.807-1.6-1.96-1.6a5.753,5.753,0,0,0-3.791,1.412c-.274.248-.729.7-1.024,1.034L290.72,7.67c.807-.807,3.677-3.527,5.2-4.939-.559.078-2.524.181-3.434.238a.429.429,0,0,1-.274.171l-.124-1.6c1.459,0,4.665-.124,5.415-.248l.171-.078.921,1.159a.58.58,0,0,1-.331.124c-.59.434-2.426,2.069-3.357,2.9V5.4Zm.605,4.407a4.566,4.566,0,0,0,.693-.067A1.138,1.138,0,0,0,295.137,8.7c-.378,0-.719.191-.719.522,0,.533.719.579,1.091.579Z" transform="translate(-140.355 -0.584)" fill="#f1a1b4"/>
      </g>
      <g id="Group_943" data-name="Group 943" transform="translate(1.174 18.603)">
        <path id="_パス_1380-2" d="M19.84,73.894H2.26V40.24H5.927V70.76H19.84Z" transform="translate(-2.26 -38.031)" fill="#f1a1b4"/>
        <path id="_パス_1381-2" d="M55.034,45.925a2.379,2.379,0,0,1-2.384-2.374v-.14a2.408,2.408,0,1,1,4.815-.109v.1a2.344,2.344,0,0,1-2.157,2.514,1.617,1.617,0,0,1-.274,0ZM56.89,74.236H53.223V50.166H56.89Z" transform="translate(-26.588 -38.373)" fill="#f1a1b4"/>
        <path id="_パス_1382-2" d="M81.14,47.761c0-3,0-6.936,2.648-9.63a7.946,7.946,0,0,1,5.565-2.162,8.861,8.861,0,0,1,3.579.709l-.615,2.87a6.876,6.876,0,0,0-2.783-.574c-3.8,0-4.727,3.532-4.727,7.422v1.371h5.829v2.87H84.807v21.2H81.14v-21.2H77.83v-2.87h3.31Z" transform="translate(-38.745 -35.968)" fill="#f1a1b4"/>
        <path id="_パス_1383-2" d="M133.924,81.271a17.406,17.406,0,0,1-7.551,1.5c-7.029,0-11.223-4.944-11.223-12.144,0-7.551,4.241-12.987,10.732-12.987,7.422,0,9.32,6.8,9.32,11,0,.838-.047,1.458-.088,2.033h-16.38c.047,6.667,3.843,9.18,8.172,9.18a15.224,15.224,0,0,0,6.315-1.236l.709,2.648h0Zm-2.343-13.333c.047-3.269-1.324-7.51-6.051-7.51-4.422,0-6.362,4.194-6.713,7.51Z" transform="translate(-56.764 -46.431)" fill="#f1a1b4"/>
        <path id="_パス_1384-2" d="M215.113,43.932a11.425,11.425,0,0,0-5.917-1.546c-4.681,0-6.449,2.87-6.449,5.3,0,3.31,2.033,4.986,6.537,6.889,5.431,2.3,8.213,5.079,8.213,9.894,0,5.343-3.889,9.449-11.13,9.449A15.494,15.494,0,0,1,198.33,71.8l1.019-3.046a13.685,13.685,0,0,0,7.246,2.074c4.5,0,7.153-2.431,7.153-6.051,0-3.31-1.815-5.343-6.186-7.111-5.079-1.9-8.523-4.856-8.523-9.5,0-5.125,4.153-8.875,10.292-8.875a13.7,13.7,0,0,1,6.889,1.588l-1.1,3.046h0Z" transform="translate(-96.923 -37.569)" fill="#f1a1b4"/>
        <path id="_パス_1385-2" d="M253.433,49.146l3.62-1.236v5.606h6.227v2.87h-6.227V70.3c0,3.046.926,4.727,3.269,4.727a7.285,7.285,0,0,0,2.472-.352l.222,2.829a9.271,9.271,0,0,1-3.579.574c-5.829,0-6.01-5.3-6.01-7.861V56.392H249.72v-2.87h3.708v-4.37Z" transform="translate(-121.734 -41.734)" fill="#f1a1b4"/>
        <path id="_パス_1386-2" d="M307.813,76.543a33.839,33.839,0,0,0,.352,5.741h-3.357l-.357-3.093h-.134a8.37,8.37,0,0,1-7.111,3.62,6.678,6.678,0,0,1-7.024-6.3c-.01-.181-.01-.357-.005-.538,0-5.782,5.038-8.922,13.954-8.875,0-2.033,0-6.625-5.477-6.625a10.449,10.449,0,0,0-5.875,1.722l-.884-2.519a13.672,13.672,0,0,1,7.344-2.033c6.8,0,8.57,4.815,8.57,9.584v9.32Zm-3.62-6.755c-4.551,0-10.246.662-10.246,5.741,0,3.093,1.945,4.458,4.153,4.458a5.881,5.881,0,0,0,6.093-5.653V69.783Z" transform="translate(-141.265 -46.431)" fill="#f1a1b4"/>
        <path id="_パス_1387-2" d="M357.321,61.355A10.349,10.349,0,0,0,356,61.267c-3.977,0-6.01,3.931-6.01,8V82.338h-3.662V65.467c0-2.56-.047-4.9-.176-7.2h3.222l.176,4.639h.135a7.2,7.2,0,0,1,6.532-5.167,8.662,8.662,0,0,1,1.1.134v3.491h0Z" transform="translate(-168.291 -46.48)" fill="#f1a1b4"/>
      </g>
      <g id="_グループ_125" transform="translate(197.032 4.091)">
        <path id="_パス_1407" d="M408,11.924a.466.466,0,0,0-.062-.124C407.872,11.986,408,11.924,408,11.924Z" transform="translate(-393.969 -9.788)" fill="#f2a5ba"/>
        <path id="_パス_1408" d="M407.071,15.62l-.031.284.031-.253Z" transform="translate(-393.546 -11.632)" fill="#f2a5ba"/>
        <path id="_パス_1409" d="M406.16,17.18h.031s.16,0,.186-.062h0l-.124-.253h0l.062-.284a.688.688,0,0,0-.284.062h0l.124.253a8.571,8.571,0,0,1-.284.941c.124-.093.186-.409.253-.657h.031Zm.124-.284-.062.217Z" transform="translate(-392.981 -12.096)" fill="#f2a5ba"/>
        <path id="_パス_1410" d="M404.862,20.23h0a.442.442,0,0,1-.062.217c.062-.031,0,.217.093-.217Z" transform="translate(-392.465 -13.858)" fill="#f2a5ba"/>
        <path id="_パス_1412" d="M404.26,21.693V21.44s-.093.253-.093.16c-.062.253,0,.217.093.093Z" transform="translate(-392.147 -14.442)" fill="#f2a5ba"/>
        <path id="_パス_1414" d="M404.492,21.63l-.062.284s.062,0,0-.124v-.16Z" transform="translate(-392.286 -14.534)" fill="#f2a5ba"/>
        <path id="_パス_1415" d="M404.55,22.254l.031-.093.067-.471-.093.564h0Z" transform="translate(-392.344 -14.563)" fill="#f2a5ba"/>
        <path id="_パス_1417" d="M401.354,25.514s-.16-.093-.031-.124a3.1,3.1,0,0,0-.533.093h.564Z" transform="translate(-390.529 -16.349)" fill="#f2a5ba"/>
        <path id="_パス_1418" d="M400.31,25.688s.16-.031.253-.062A.342.342,0,0,0,400.31,25.688Z" transform="translate(-390.297 -16.461)" fill="#f2a5ba"/>
        <path id="_パス_1424" d="M400.93,25.841s-.284.031-.44.031h.533s.093-.062-.093-.062h0Z" transform="translate(-390.384 -16.552)" fill="#f2a5ba"/>
        <path id="_パス_1428" d="M399.4,25.8a.761.761,0,0,1,.217.031C399.555,25.833,399.4,25.771,399.4,25.8Z" transform="translate(-389.858 -16.544)" fill="#f2a5ba"/>
        <path id="_パス_1430" d="M402.316,25.87a.3.3,0,0,0-.186.062h.186Z" transform="translate(-391.176 -16.581)" fill="#f2a5ba"/>
        <path id="_パス_1431" d="M396.155,26.129s.693.093.44.16c-.409.031-.347,0-.533-.062.16.093-.533.124-.44.253l.347-.062s-.124.062,0,.062c0-.062.378-.124.693-.062.315-.062.093-.284-.16-.409,0,0,0,.062-.315.093h0l-.026.026Z" transform="translate(-388.029 -16.649)" fill="#f2a5ba"/>
        <path id="_パス_1432" d="M397.33,25.9h.724a3.163,3.163,0,0,1-.44-.093c-.217.031-.253.062-.284.093Z" transform="translate(-388.858 -16.552)" fill="#f2a5ba"/>
        <path id="_パス_1434" d="M402.022,26.3h-.5l.253.093h0c.284,0,.217-.062.253-.093Z" transform="translate(-390.881 -16.789)" fill="#f2a5ba"/>
        <path id="_パス_1435" d="M396.942,25.853,397,25.76l-.284.124.217-.031h0Z" transform="translate(-388.564 -16.528)" fill="#f2a5ba"/>
        <path id="_パス_1436" d="M395.735,25.872l.031-.062-.186.031.16.031h0Z" transform="translate(-388.013 -16.552)" fill="#f2a5ba"/>
        <path id="_パス_1437" d="M404.562,44.706l-.062.124.124-.16h-.062Z" transform="translate(-392.32 -25.658)" fill="#f2a5ba"/>
        <path id="_パス_1439" d="M392,26.571l.062-.031S392,26.54,392,26.571Z" transform="translate(-386.285 -16.905)" fill="#f2a5ba"/>
        <path id="_パス_1441" d="M406.96,20.934s-.315.315-.186.217l.347-.253h-.093a3.413,3.413,0,0,1,.626-.533c.347-.186.284-.093.44-.186,0,0,.062,0,.186-.124l.755-.533-.564.253c.16-.186.626-.44,0-.124.124-.062.284-.124.44-.217a3.142,3.142,0,0,1-.44-.031v-.062a.908.908,0,0,0-.217-.124c-.093,0-.124,0-.409.124a.21.21,0,0,0-.186-.124,1.325,1.325,0,0,0-.626.16h-1.065a5.62,5.62,0,0,1-.724.062h0a.506.506,0,0,0-.186-.16.773.773,0,0,0-.471.16c-.16-.093-.755-.031-.967-.186.093.031-.031.062-.217.062-.315-.093-.693-.217-.786-.253a.155.155,0,0,1-.093-.031c-.124-.031-.217,0-.595.253h-.44a5.227,5.227,0,0,1-.693-.062H400.7c-.315-.093-.755-.186-.879-.217V18.87h0a1.959,1.959,0,0,0-.031-.347,7.23,7.23,0,0,0-.124-.817.621.621,0,0,0-.191-.119h-.16l-.062-.124.062-.253a3.7,3.7,0,0,0,.16-1.164.559.559,0,0,0-.186-.124c-.124,0-.124-.031-.533.217l-.093-.217v-.067a6.665,6.665,0,0,0-.031-.91.559.559,0,0,0-.186-.124h-.124l.093-.284a3.44,3.44,0,0,0,.315-1.19.559.559,0,0,0-.186-.124.669.669,0,0,0-.347.093v-.062c-.041-.031-.088-.062-.124-.093l-.062-.124a7.564,7.564,0,0,1-.378-.724.26.26,0,0,0-.186-.124h-.186a.293.293,0,0,0-.031-.186.3.3,0,0,0-.16-.124.461.461,0,0,0-.284.062h-.036l.124.253-.124.062-.031-.16c0,.093-.253.657-.378,1.034a3.685,3.685,0,0,0-.378,1.257.56.56,0,0,0,.186.124c.093,0,.124.031.564-.217a4.706,4.706,0,0,1-.378.409c-.347.347-.595.626-.817.879l.062-.093v-.16a1.7,1.7,0,0,0-.093.315c-.5.533-.626.724-.657.848a1.151,1.151,0,0,1-.093.253c.031-.062.093-.16.124-.16h0v.031h.031s.093.124.186.124a4.214,4.214,0,0,0,1.257-.595c-.217.217-.44.409-.626.626-.626.626-1.034,1-1.288,1.288h0s-.186.217-.253.284v-.114s-.093.253-.16.253h.062c-.124.16-.093.217,0,.315,0,0,.031.062.062.062h0v.093h0v-.062h.124l-.062.093a.1.1,0,0,0,.093-.062h0s.471-.217,1.976-1.065c.657-.378,1.567-.91,1.79-1a.2.2,0,0,0,.124-.031.074.074,0,0,0,.062-.031s.062,0,.062.031a1.16,1.16,0,0,0,.093.315l.062-.093a.936.936,0,0,1,.062.378c.217.186-.186-.595,0-.409a1.289,1.289,0,0,0,.093.5c-.217,0-.657.186-5.053,2.669-1.065.626-2.291,1.319-3.17,1.79.186-.217.409-.44.595-.657,1.065-1.148,1.557-1.8,1.474-1.945a.555.555,0,0,0-.124-.093h-.093s.217-.062-.031-.093h.315a1.19,1.19,0,0,1-.3-.036H391.6a2.568,2.568,0,0,0,.564,0c-.093.062-.347.093-.253.186-.093.031-.217.124-.409.217h-.031c-.253.16-.626.347-1.164.657-.378.217-.848.471-1.164.657l.093-.347c.217-.91.253-1.034.217-1.127h.186c.031-.062-.062-.062-.217-.062a.435.435,0,0,0-.124-.093,1.726,1.726,0,0,1,.564-.031c-.186-.093-.093,0-.378-.093.253.16-1,0-.595.16a1.149,1.149,0,0,0-.253-.093.241.241,0,0,0,0-.284.26.26,0,0,0-.186-.124,3.677,3.677,0,0,0-.848.378h-.062l-.16.093-.124.062a1.165,1.165,0,0,0-.533.062c-.284,0,.062-.031-.124-.093l-.284.062-.253-.062-.186-.124h0a2.468,2.468,0,0,1-.378-.217c-.031,0-.062-.062-.124-.062a.7.7,0,0,0-.409.124l-.124.062a1.166,1.166,0,0,1-.186-.124.236.236,0,0,0-.124-.062.461.461,0,0,0-.284.062h-.062l.062.186h-.124l.16.093h-.062s0,.093.062.124v.124h.16c.124.062.284.186.564.378.253.16.533.378.626.44.093.093.186.093.347.031.062.031.124.093.186.124a3.532,3.532,0,0,0,.217.564.3.3,0,0,0,.16.124.769.769,0,0,0,.093.217.26.26,0,0,0,.186.124h.186c.093.093.217.217.409.44s.44.471.471.5a.164.164,0,0,0,.16.093.523.523,0,0,0,.378-.124h0s.315.093.657.186h.062c-.124.217-.093.284,0,.378a.2.2,0,0,0,.165.114.836.836,0,0,0,.315-.062,12.467,12.467,0,0,0,1.1.786q0,.16.062.186a.26.26,0,0,0,.186.124.611.611,0,0,0,.253-.031l.378.471c.124.186.284.347.347.44a1.971,1.971,0,0,0-.093.217c0,.031-.031.062-.031.124-.031.124-.062.284-.093.44h0c-.967,1.127-1.407,1.769-1.319,1.914a.559.559,0,0,0,.186.124c.093,0,.124,0,.471-.16,0,.062.062.031.124,0v.217c-.062,0-.093.093-.124.16-.626.471-.564.564-.471.724,0,.062.062.093.124.124a.247.247,0,0,0,0,.253h.036c-.093.284-.217.626-.315.879l-.186.5h0c-.186.5-.186.533-.124.626h0c0,.16-.062.284-.062.5l-.093.062c-.016.1-.036.212-.062.315a.484.484,0,0,1-.124.315,3,3,0,0,0-.16.347,16.868,16.868,0,0,0,1.505-.941c.315-.217.657-.44.967-.626a6.944,6.944,0,0,1,.657-.378c-.284-.062.471-.186.409-.347.093,0,.217-.062.093.062.409-.347.724-.378.941-.693.093,0-.062.124,0,.124,0-.031.124-.124.186-.124s-.031.062-.093.16c.44-.315.409-.471.347-.595a.789.789,0,0,0,.5-.378c.093,0,.284-.062,0,.124.16-.093,1-.595.967-.693.062,0,.217-.16.253-.186l.378-.253a1.164,1.164,0,0,0,.186-.124h0a.506.506,0,0,0,.186.16.611.611,0,0,0,.253-.031c.284.253.347.284.44.315l.062.062c.217.217.471.5.5.533a.164.164,0,0,0,.16.093.441.441,0,0,0,.253-.062h0a1.631,1.631,0,0,1-.031.315,4,4,0,0,0-.093,1.164.561.561,0,0,0,.186.124l1.127-.533.093-.062h0s-.16.062.062.217c0,.031.124.093.217.124-.253.315-.217.347-.124.471a.26.26,0,0,0,.186.124c.124,0,.124.031.657-.253a1.152,1.152,0,0,1,.284.217c-.062-.093-.093-.186.093-.093a1.7,1.7,0,0,1,.378.315,2.969,2.969,0,0,0,.062.91.26.26,0,0,0,.186.124c.124,0,.124.031.817-.347.284.16.657.378.848.471a.811.811,0,0,0,0,.315.26.26,0,0,0,.186.124h.062a.224.224,0,0,0,.186-.062,1.608,1.608,0,0,0,.409.284c-.062-.124-.093-.284-.16-.44h.031s.186-.253.093-.378c0-.031-.062-.062-.093-.093h0s.16-.253.093-.378c0-.031-.062-.062-.093-.093a2.72,2.72,0,0,0,.124-.967.26.26,0,0,0-.186-.124c-.093,0-.124,0-.471.16-.031-.093-.031-.124-.062-.124l-.052-.078a4.1,4.1,0,0,0-.217-.595.892.892,0,0,0-.186-.253c0-.124.031-.031.062-.031l-.062-.217c.409-.693.378-.724.316-.848a.26.26,0,0,0-.186-.124.669.669,0,0,0-.347.093c.062-.186.093-.378.16-.533v-.062a.81.81,0,0,0,.093-.217,1.786,1.786,0,0,0,.124-.786.26.26,0,0,0-.186-.124,2.635,2.635,0,0,0-.693.284,2.805,2.805,0,0,0-.217-.533s.031,0,.062.062a5.03,5.03,0,0,1-.347-1.226c0-.093-.062-.186-.062-.284v-.124h-.062v-.062a1.068,1.068,0,0,0,.062-.253h0s.16-.16.124-.253l.657-.471h0c1.127-.786,2.291-1.505,3.357-2.229h-.186l.378-.284c.124-.031.186,0-.062.16.093,0,.186-.093.284-.186.062-.093.16-.217.16-.217.378-.217.378-.186.253-.062h0l-.129.026Zm1.1-.786-.16.093C408.082,20.08,408.056,20.117,408.056,20.148Zm-16.509,3.512h0s-.093-.16-.186-.16h-.093v-.16h.093a.131.131,0,0,0,.062.124.21.21,0,0,0,.186.124c.217.062.409,0,4.05-2.136.409-.217.848-.5,1.257-.724-.471.347-.941.724-1.35,1.065-1.7,1.35-2.514,1.976-2.886,2.322h0a1.941,1.941,0,0,0-.186-.124s-.062-.062-.093-.062l-.062-.062s-.253-.378-.316-.315a.49.49,0,0,1-.16.533c-.124-.16-.217-.315-.284-.378h0l-.026-.052Zm7.029-5.4a.56.56,0,0,0,.186.124h.124a.93.93,0,0,1,.031.378c.124.315.062-.124.186.186v.093l.062.062h0a.359.359,0,0,0-.16-.062c-.186-.031-.253-.062-3.7,1.945-.471.284-.967.564-1.474.848.471-.378,1-.755,1.474-1.1,1.914-1.412,2.824-2.136,3.264-2.508h0v.031Zm3.176,5.462v-.093l.533-.347c-.284.217.062.16-.44.44l.16-.253-.284.217h0l.026.031Zm-.91.626h.093c-.724.378-1.976,1.065-4.267,2.384.879-.533,1.789-1.1,2.638-1.6.879-.533,1.665-1,2.353-1.448l-.093.062-.093.062-.124.093s-.315.217-.564.378v.062h.062Zm.564,3.486a.56.56,0,0,0,.186.124h.124c-.284.16-.595.347-1,.564l-.44.253a4.043,4.043,0,0,0,.315-.347c.316-.315.533-.564.755-.786,0,.16.031.16.062.186h0Zm-2.038.564s.062.093,0,.093Zm.124,0a.557.557,0,0,0-.124-.062v-.093c.253-.124.657-.378,1.35-.786l.093-.062c-.217.217-.44.471-.626.657-.217.217-.409.44-.564.595-.093-.124-.124-.186-.124-.253h0Zm-1.381-1.727a.155.155,0,0,0-.031-.093h0c.755-.471,1.474-.879,2.1-1.226h0a.231.231,0,0,0,.217,0h0c-.217.124-.564.347-1.128.657-.378.217-.817.471-1.1.626h0l-.062.031Zm2.979-1.257a.155.155,0,0,0-.031-.093c0-.031-.062-.062-.093-.093h0l.093-.062.062.124v.093h-.031v.031Zm-.1.315c-.16.5-.16.533-.093.626a.21.21,0,0,0,.186.124h.062v.093c-.186.124-.44.253-.724.44-.186.124-.409.253-.626.378.109-.15.222-.3.347-.44.5-.657.755-1,.879-1.19h0Zm.657,2.948a2.328,2.328,0,0,0-.786.347l.124-.062c.253-.16.564-.315.817-.471l-.186.186Zm.564,1.257a.294.294,0,0,1-.093-.062l.16-.093-.093.16h.026Zm.16-.822s-.409.217-.786.44a5.477,5.477,0,0,1,.409-.44l.284-.315s.062.186.093.315Zm-3.295-5.332c-1.7.967-3.61,2.074-5.146,2.948,1.19-.755,2.576-1.629,3.827-2.415a72.3,72.3,0,0,0,6.434-4.2h0a1.3,1.3,0,0,0,.564-.217h0s.093.315.124.471v.062c-1.257.693-3.139,1.758-5.87,3.357h.062Zm.186-4.391h0V19.6a.131.131,0,0,0-.062-.124C399.2,19.449,399.264,19.418,399.264,19.387Zm-.093.124c.062.16.124.347.186.5h.786c-.724.409-1.727.967-3.2,1.821-.724.409-1.505.879-2.229,1.288.378-.315.817-.626,1.19-.941a40.4,40.4,0,0,0,3.264-2.674h0Zm3.8.383H402.9a1.258,1.258,0,0,1,.44-.062c-.693.347-2.007,1.1-4.582,2.607-1.128.657-2.446,1.412-3.579,2.074.533-.347,1.1-.724,1.629-1.1,3.046-2.038,4.391-2.979,4.96-3.45a7.609,7.609,0,0,0,1.19-.062Zm-5.71,2.384c.5-.284,1.034-.595,1.567-.91-.786.533-1.6,1.1-2.353,1.6-1.976,1.319-3.077,2.074-3.7,2.539v-.062h-.031l.186-.124s0-.031-.062-.062V25.2h.062s.124-.124.124-.217c.253-.315.347-.44.315-.533.564-.284,1.665-.91,3.863-2.2h0l.026.031Zm-4.769,3.382h0l-.062.062v-.062Zm.186.755a63.483,63.483,0,0,0,5.9-3.264c-.378.253-.755.471-1.127.724-2.353,1.474-3.92,2.477-4.991,3.139.284-.44.253-.5.186-.595h.036Zm-.657-.16a.171.171,0,0,0,.062.124v.062l-.124.093v-.124l.062-.124h0v-.031Zm-.817,3.264h0l.093-.253s.093.031.093.062v-.284s.031-.186.031-.217c.062,0,.124-.062.186-.093a.422.422,0,0,1,.031-.16c1.034-.5,3.17-1.7,7.753-4.36,1.474-.848,3.139-1.79,4.551-2.607-1.505.941-3.295,2.038-4.929,3.01-4.67,2.855-6.843,4.2-7.846,4.893h.036ZM402.781,23a1.894,1.894,0,0,1-.16.186l-.062-.062.217-.124h0Zm-5.053,4.329s-.093-.093-.16-.093h-.062l.16-.093V27.2a.21.21,0,0,0,.186.124c.16.031.186.031,1.7-.848l.409-.217-.253.347a13.419,13.419,0,0,0-1.034,1.448c-.16-.093-.347-.16-.533-.284-.217-.186.093,0,0-.124l-.186-.062-.253-.253h0l.031-.01Zm8.13-7.53.124.062h.093l.062-.062h.031l-.693.347-.057-.207a1.639,1.639,0,0,1,.409-.16h0l.026.026Zm-5.9-.724-.062-.062Zm-2.638-6.579h0l-.093.062.062-.124v.062Zm-.378.848c.124-.347.217-.595.284-.786l.062.093s-.062.347-.16.347a.8.8,0,0,1,.16.44l-.284.16-.217.124.16-.378h0Zm-.093,1.753c.315-.315.533-.595.724-.786,0,.031.031.062.062.093,0,.124-.093-.093-.093,0a.935.935,0,0,1,.253.471c-.124,0-.315.124-1.319.693h-.062l.44-.44h0v-.031Zm-.786,2.353-.31.186.44-.44c.848-.848,1.35-1.319,1.6-1.629h.217a3.668,3.668,0,0,1,.16.564v.217h0c-.16-.031-.186-.062-2.1,1.065h0l-.01.031Zm-2.105,3.191c.848-.471,1.758-1,2.576-1.474-.471.378-1,.755-1.474,1.1a21.847,21.847,0,0,0-3.579,2.855.2.2,0,0,1-.093-.093l.093.093v.062a.368.368,0,0,1-.16-.031v-.093a3.144,3.144,0,0,0-.124-.848c.626-.347,1.536-.848,2.762-1.567h0Zm-3.2,0,.44-.253c-.186.186-.347.378-.5.564-.5.533-.848.91-1.065,1.164h-.16v-.057c-.253-.16-.409-.315-.595-.44.16,0,.253,0,1.914-.967h0l-.026-.01Zm-2.793.253c-.217-.284.346.217.186-.031a.469.469,0,0,1-.284-.093l-.217-.093h0l.533-.315c.217-.129.471-.284.724-.409l-.093.409c-.186.848-.217.967-.186,1.065-.062-.062-.16-.093-.217-.16,0-.062-.253-.253-.093-.217a.615.615,0,0,1-.315-.16h-.036Zm-.16.134c-.119-.036-.233-.078-.347-.124l-.124-.062.253-.124s.44.253.595.347c-.062.062-.186.062-.378,0h0v-.031Zm.941-1.629c-.186.093-.471.253-.848.471-.284.16-.626.378-.91.5h0L386.9,20.1s.378-.186.879-.471l.253-.16h.062a2.232,2.232,0,0,1,.346-.186h.186l.093.093a.908.908,0,0,0-.409,0,3.142,3.142,0,0,1,.44.031h0Zm-.533,2.415h0l-.062-.062h0l-.062-.062.062.062.124.062Zm5.9,7.282a.963.963,0,0,1,.284-.16A.6.6,0,0,1,394.112,29.1Zm.595,0s-.031-.031,0-.124l-.062.062c-.186.062-.16-.031-.062-.16l.217-.062s.124-.253.062-.315l-.124.124v-.062l-.124.124h-.186l-.657.347a7.593,7.593,0,0,1-1.257,1.288c.124-.186-.062-.16-.124-.253.253,0,.5-.378.848-.595-.186.124-.186.031-.16,0l-.564.5a1.616,1.616,0,0,0-.378.124c.124,0,0,.124-.124.253a1.278,1.278,0,0,1-.253.186l-.062.062h-.031l-.062.093V30.6s0-.031.062-.062a.491.491,0,0,1,.186-.124.138.138,0,0,0-.119.062h-.062v.062h-.031a.467.467,0,0,1-.062.124.293.293,0,0,1-.253.217c.062-.031.093-.031.093-.093a.7.7,0,0,1-.253.186c-.062.031-.093,0-.062-.031h.031a4.244,4.244,0,0,0-.533.315V31.04l.217-.124s.315-.186.378-.217h.031s.186-.253.093-.378l-.062-.062c.533-.284,1.505-.817,3.357-1.852h.031v.062h0a.26.26,0,0,1,.124.031h.062a.26.26,0,0,0,.124-.031,1.271,1.271,0,0,1-.284.315,2.8,2.8,0,0,0,.284-.062l-.409.347h0l.16.026Z" transform="translate(-382.481 -9.824)" fill="#f2a5ba"/>
        <path id="_パス_1442" d="M404.62,44.116h.062Q404.682,44.084,404.62,44.116Z" transform="translate(-392.378 -25.383)" fill="#f2a5ba"/>
        <path id="_パス_1444" d="M393.245,25.81h-.284a2.8,2.8,0,0,1,.284.062S393.182,25.841,393.245,25.81Z" transform="translate(-386.749 -16.552)" fill="#f2a5ba"/>
        <path id="_パス_1446" d="M388.569,25.979c.186,0,0-.093.124-.062.062-.031-.217,0-.378,0-.16.031-.16.062.217.031h0l.031.031Z" transform="translate(-384.457 -16.597)" fill="#f2a5ba"/>
        <path id="_パス_1448" d="M409.74,12.044l-.16-.124a.86.86,0,0,1,.062.217l.093-.093h0Z" transform="translate(-394.773 -9.846)" fill="#f2a5ba"/>
        <path id="_パス_1450" d="M398.182,18.89l-.062.031h.031Z" transform="translate(-389.24 -13.211)" fill="#f2a5ba"/>
        <path id="_パス_1451" d="M398.031,18.8h.093s-.124-.062-.093-.093C397.938,18.8,398.094,18.741,398.031,18.8Z" transform="translate(-389.182 -13.124)" fill="#f2a5ba"/>
        <path id="_パス_1454" d="M398.31,18.172h.062a.132.132,0,0,1,.031-.062C398.372,18.11,398.341,18.11,398.31,18.172Z" transform="translate(-389.331 -12.835)" fill="#f2a5ba"/>
        <path id="_パス_1457" d="M398.182,18.35s0,.031-.062.062C398.151,18.412,398.244,18.412,398.182,18.35Z" transform="translate(-389.24 -12.95)" fill="#f2a5ba"/>
        <path id="_パス_1459" d="M398.12,17.982h.031s0-.031.062-.062a.293.293,0,0,0-.093.062Z" transform="translate(-389.24 -12.743)" fill="#f2a5ba"/>
        <path id="_長方形_143" d="M397.89,18.46l.124-.01h0Z" transform="translate(-389.129 -12.999)" fill="#f2a5ba"/>
        <path id="_パス_1461" d="M398.12,17.771h.031l.062-.031-.093.031Z" transform="translate(-389.24 -12.656)" fill="#f2a5ba"/>
        <path id="_パス_1462" d="M398.12,17.622s.062-.062.093-.062h-.093Z" transform="translate(-389.24 -12.569)" fill="#f2a5ba"/>
        <path id="_パス_1464" d="M398.072,17.86l-.062.062h0a.06.06,0,0,0,.062-.062Z" transform="translate(-389.187 -12.714)" fill="#f2a5ba"/>
        <path id="_パス_1465" d="M397.971,17.951h0l-.031-.031Z" transform="translate(-389.153 -12.743)" fill="#f2a5ba"/>
        <path id="_パス_1467" d="M397.64,18.352a.241.241,0,0,1,.16-.062A.222.222,0,0,0,397.64,18.352Z" transform="translate(-389.008 -12.921)" fill="#f2a5ba"/>
        <path id="_パス_1469" d="M397.82,17.831s.062,0,.062-.031h-.062v.062h0Z" transform="translate(-389.095 -12.685)" fill="#f2a5ba"/>
        <path id="_パス_1476" d="M397.022,17.655a.133.133,0,0,1,.031-.062c-.062.062-.124,0-.253.093h.062s-.062,0-.062.031c.062-.031.124-.031.093,0a1.306,1.306,0,0,0,.378-.217h-.093s-.062.093-.124.093h0l-.026.062Z" transform="translate(-388.602 -12.54)" fill="#f2a5ba"/>
        <path id="_パス_1477" d="M397.7,17.56v.062h0l.062-.062Z" transform="translate(-389.037 -12.569)" fill="#f2a5ba"/>
        <path id="_パス_1478" d="M397.559,17.68h-.093c-.062.031-.124,0-.186.093h.1c-.031-.031.031,0,.062-.062h.062l.062-.031Z" transform="translate(-388.834 -12.627)" fill="#f2a5ba"/>
        <path id="_パス_1479" d="M397.33,18.5l.031-.031Z" transform="translate(-388.858 -13.008)" fill="#f2a5ba"/>
        <path id="_パス_1480" d="M397.521,18.23a1.211,1.211,0,0,0-.16.124h.031a.133.133,0,0,0-.062.031.155.155,0,0,0,.093-.031h0l.093-.093h0V18.23Z" transform="translate(-388.858 -12.893)" fill="#f2a5ba"/>
        <path id="_パス_1482" d="M397.7,17.471l.062-.031-.124.031Z" transform="translate(-389.008 -12.511)" fill="#f2a5ba"/>
        <path id="_パス_1483" d="M397.733,17.38h-.062l-.031.031Z" transform="translate(-389.008 -12.482)" fill="#f2a5ba"/>
        <path id="_パス_1485" d="M396.36,15.2l.062-.057h-.062Z" transform="translate(-388.39 -11.401)" fill="#f2a5ba"/>
        <path id="_パス_1488" d="M397.044,16.472V16.41C397.013,16.441,396.951,16.5,397.044,16.472Z" transform="translate(-388.697 -12.014)" fill="#f2a5ba"/>
        <path id="_パス_1490" d="M397.09,16.433s.031-.062,0-.031h0s.031.016.031.031Z" transform="translate(-388.742 -12.006)" fill="#f2a5ba"/>
        <path id="_パス_1497" d="M394.475,15.384h.093l.186-.124-.284.124Z" transform="translate(-387.478 -11.459)" fill="#f2a5ba"/>
        <path id="_パス_1498" d="M389.942,8.724l-.062.062q.093-.047.093,0h0s.031.124.062.217l.067-.062V9c.124-.062,0-.031.093-.124-.124.124.093.093-.062.253,0,0,.062-.062.093-.062h0a.293.293,0,0,1-.062.093h0s.062.031.062.062h0a.357.357,0,0,0,.217.093h0s0,.031.062.062h.062c-.062,0-.062.093-.124.093.093,0,.062,0,.217-.062l-.062.062s.093-.031.124,0c-.062,0-.062.062-.16.093-.093.124.186,0,0,.124.186-.093.062-.093.093-.124.031-.062.124-.062.124-.031,0,0-.186.16-.124.217h0s.062,0,0,.062c.093-.062,0,0,.124-.062h-.062s.217-.093.16,0h-.088c0,.031.031,0,0,.031-.124.093-.062,0-.186,0-.031.031.124,0,0,.062.186-.093,0,.062.16,0l-.062.062h-.031s-.031.124,0,.124c-.031-.031.093-.062.124-.124.124,0-.16.16-.093.186a.06.06,0,0,1,.062-.062h0a.107.107,0,0,1-.067.093c.031.031.062-.062.124-.062-.093.062.062,0,.093,0l-.062.062s.16-.093.124,0l-.124.062h.031l-.093.062s.062,0,.062.031c.062-.031.124-.093.16-.062-.031.031-.062.031-.031.062-.062,0-.124.062-.062,0h-.062v.093h.16a.47.47,0,0,1-.16.062h.093s-.062.062-.093.062c0,.031.16,0,.124.031h.031c0,.031-.062.124.062.093l-.093.093s.124-.124.186-.093c.062,0-.093.062-.124.093.062,0,.186-.062.124,0h0l-.062.062a.334.334,0,0,0-.186.062c.217-.124.093.062.315-.031h.093s-.031.062-.062.062h.031l.062.062h.124s-.124.062-.124,0c-.217.16.062,0,0,.124h-.031l-.124.124c.031,0,.16-.16.253-.16,0,0,0,.031.031,0-.093.031-.062.062-.031.062l-.093.062a.421.421,0,0,0,.16-.031l-.134.129c0,.031.124-.093.16-.062,0,.062.031.062.124.062,0,.031-.062,0-.093.062h.062a.359.359,0,0,1,.16-.062c.124-.062-.124.16,0,.093a.1.1,0,0,0-.093.062h.217l-.062.062a.876.876,0,0,1,.284-.093l.062-.062h.093a.293.293,0,0,0-.093.062h0a.359.359,0,0,1-.16.062l.062-.062s-.16.062-.217.093h.031l-.124.093h.062v.062a.935.935,0,0,1,.378-.062c-.093,0-.16.062-.253.124.093-.062-.062,0-.062-.062,0,0-.062.031-.062.062h.124a.2.2,0,0,0-.093.093c.16-.093.124,0,.186,0-.062,0-.124.062-.124,0-.093.093.217-.062.124,0h0c.062,0,.031.062,0,.062h0a.16.16,0,0,0,.217.062h0l-.186.093.533-.16a2.537,2.537,0,0,1-.5.217.033.033,0,0,0,.031.031,1.56,1.56,0,0,1,.186-.093c-.124.093-.062.062-.16.16,0,0,.217-.124.217-.093a1.962,1.962,0,0,1-.217.093l.217-.062s-.16.093-.217.124c.031,0,0,.031.031.031h.031s.284-.124.316-.062c-.031,0-.253.093-.253.16a3.965,3.965,0,0,1,.595-.186h0s-.5.186-.626.217c-.031.031-.062.031-.031.062-.031.031-.093,0-.093,0v.062a.4.4,0,0,0,.217-.062h-.16s.347-.124.347-.062a2.3,2.3,0,0,1-.253.124h0s.16,0,.093.062c0,0-.124.093-.062.062a3.633,3.633,0,0,1,.595-.315.674.674,0,0,1-.16.16c-.093.062-.253.093-.315.16h.093s-.093.031-.062.062c.124-.062,0,.062.093-.031.031,0,0,.031,0,.062a1.11,1.11,0,0,1,.316-.093.272.272,0,0,0-.072.062v.16a.119.119,0,0,1-.093.062h.062s-.031,0-.124.062c.062-.031.124,0,.16,0,.093-.062,0-.062-.062-.062a.7.7,0,0,1,.409-.093c.062,0-.093.062-.062.062,0,.093.284-.062.217.031a.889.889,0,0,1-.253.124c-.062,0,0-.062,0-.093h0s-.062.031-.062,0c-.062.062.062.124,0,.217a.121.121,0,0,0,.093-.031h0s.124-.031.124-.062h.124l-.093.062s.062-.062,0-.031c.062,0-.093.124.031.062l.062-.062s.186-.031.16,0c.093-.062,0,0,.093-.093-.124.093-.031-.062-.16.031.124-.093.031-.062.124-.16-.031,0-.062.031-.062,0H393.5v.062h-.186a.133.133,0,0,0,.062-.031h-.062s.093-.093.16-.093h0s.031-.093,0-.093h-.093s-.186-.062-.062-.186c0,0-.062,0-.062-.031h.062s0-.124-.031-.093c.16-.124,0-.124,0-.16h-.253v-.093h0c.124-.124-.186-.031-.093-.16h0v-.062a.1.1,0,0,0-.093.062h-.062s-.062,0,.062-.093a.513.513,0,0,0-.217,0h0v-.062l.093-.062h-.16a.859.859,0,0,0,.16-.062h-.16s-.124,0-.062-.062c.093-.093-.062-.16,0-.284-.186.124.062-.093-.093,0,.031,0,.062-.062.093-.062-.062,0,.031-.093-.093-.062a.121.121,0,0,0,.093-.031h.062c-.031-.031-.186.031-.315.093.062-.062.031-.062-.062,0,.031,0,.062-.062.093-.062,0,0,0-.124-.093-.062h0a.089.089,0,0,0-.031-.062h-.062s-.062,0,0-.124h-.072c-.16.124.062-.062,0-.062h-.031a2.239,2.239,0,0,0,.217-.16h.031a.215.215,0,0,1-.16,0c.062-.031.16-.062.124-.093.031-.031-.217.031-.124-.062-.031,0-.062.062-.124.062,0,0,.124-.16,0-.093h0a.173.173,0,0,0-.186,0c.253-.16-.217-.031.031-.186l-.062-.062h0a.215.215,0,0,0-.16,0,.074.074,0,0,0,.062-.031q0-.093-.16-.062l.062-.062s.062-.16-.062-.16h.031s.124-.284-.186-.124h-.083a.478.478,0,0,0-.16.124s.062-.093.093-.093h0a.189.189,0,0,1,.093-.16c-.062-.093-.062-.253-.124-.347l-.093.093h0l.093-.093c.062-.062-.093,0-.093,0,0-.062.16-.062.124-.093h-.031s-.093.062-.124,0c0-.031.062-.062.062-.062h-.093l-.093.093c.124-.124-.062-.186,0-.217a.18.18,0,0,1-.124-.031s-.093.093-.124.062c.217-.16.031-.093.16-.253-.062.093-.093-.062-.186.093,0-.031.062-.062.093-.124-.124,0-.031-.16-.124-.186l-.093.093.093-.124s-.16.124-.093,0c0,0-.031.062-.062.062,0-.093-.093-.16-.16-.186s-.124-.093-.093-.253c0,.062-.031.062-.062.031l-.093.093V8.3s0-.031-.124.031h0a4.358,4.358,0,0,1-.315.378c.124-.093-.093.217.093.093h0l.284-.093Zm1.609,2.291h-.031C391.613,10.985,391.582,11.016,391.551,11.016Z" transform="translate(-385.117 -8.093)" fill="#f2a5ba"/>
        <path id="_パス_1502" d="M397.2,17.492s-.031.031,0,.031h0S397.259,17.461,397.2,17.492Z" transform="translate(-388.787 -12.532)" fill="#f2a5ba"/>
        <path id="_パス_1504" d="M397.379,16.987s.093-.031.062,0C397.535,16.956,397.317,16.987,397.379,16.987Z" transform="translate(-388.877 -12.286)" fill="#f2a5ba"/>
        <path id="_パス_1505" d="M396.79,17.711l.093-.031h-.093Z" transform="translate(-388.598 -12.627)" fill="#f2a5ba"/>
        <path id="_パス_1508" d="M396.4,16.95s-.031,0,0,.031h.031Z" transform="translate(-388.401 -12.275)" fill="#f2a5ba"/>
        <path id="_パス_1509" d="M396.151,17.291l.062-.031-.093.062h.031Z" transform="translate(-388.274 -12.424)" fill="#f2a5ba"/>
        <path id="_パス_1510" d="M396,17.2s-.093,0-.062.031C395.934,17.231,396,17.231,396,17.2Z" transform="translate(-388.181 -12.395)" fill="#f2a5ba"/>
        <path id="_パス_1511" d="M395.82,16.253h.031l.16-.093-.186.093h0Z" transform="translate(-388.129 -11.893)" fill="#f2a5ba"/>
        <path id="_パス_1512" d="M394.854,15.98s-.031,0-.124.062c0,.062.093-.031.062,0,.031,0,0-.031.062-.062Z" transform="translate(-387.603 -11.806)" fill="#f2a5ba"/>
        <path id="_パス_1513" d="M390.991,7.91l-.031.062h.031Z" transform="translate(-385.783 -7.91)" fill="#f2a5ba"/>
        <path id="_パス_1514" d="M390.751,8.063l.062-.093-.093.062h0l.031.031Z" transform="translate(-385.667 -7.939)" fill="#f2a5ba"/>
        <path id="_パス_1515" d="M393.092,13.8l-.062.062h0V13.8Z" transform="translate(-386.782 -10.754)" fill="#f2a5ba"/>
        <path id="_パス_1516" d="M392.91,13.281h0L393,13.25Z" transform="translate(-386.724 -10.488)" fill="#f2a5ba"/>
        <path id="_パス_1520" d="M429.554,11.622h0V11.56s-.062.093-.124.093c.062.093.062-.031.093,0h0Z" transform="translate(-404.356 -9.672)" fill="#f2a5ba"/>
        <path id="_パス_1523" d="M428.911,11.281s-.031-.016-.031-.031a.121.121,0,0,0,.031.093Z" transform="translate(-404.091 -9.523)" fill="#f2a5ba"/>
        <path id="_パス_1526" d="M429.132,11.536s0-.124-.062-.062a.06.06,0,0,1,.062.062Z" transform="translate(-404.182 -9.622)" fill="#f2a5ba"/>
        <path id="_パス_1528" d="M428.7,11.432s-.031,0-.062-.062a.293.293,0,0,0,.062.093h0Z" transform="translate(-403.975 -9.58)" fill="#f2a5ba"/>
        <path id="_パス_1531" d="M428.4,11.432V11.37l.031.093Z" transform="translate(-403.859 -9.58)" fill="#f2a5ba"/>
        <path id="_パス_1532" d="M428.222,11.463s-.062-.062-.062-.093v.093Z" transform="translate(-403.743 -9.58)" fill="#f2a5ba"/>
        <path id="_パス_1534" d="M428.582,11.622s-.031-.062-.062-.062Z" transform="translate(-403.917 -9.672)" fill="#f2a5ba"/>
        <path id="_パス_1537" d="M429.012,11.89a.241.241,0,0,1-.062-.16A.222.222,0,0,0,429.012,11.89Z" transform="translate(-404.125 -9.754)" fill="#f2a5ba"/>
        <path id="_パス_1538" d="M428.76,11.73v.062h.031A.133.133,0,0,0,428.76,11.73Z" transform="translate(-404.033 -9.754)" fill="#f2a5ba"/>
        <path id="_パス_1539" d="M428.431,11.8s0-.062-.031-.062V11.8Z" transform="translate(-403.859 -9.759)" fill="#f2a5ba"/>
        <path id="_パス_1546" d="M428.166,12.286H428.1c.062.062,0,.124.093.253v-.062s0,.062.031.062c-.031-.062-.031-.124,0-.093a1.094,1.094,0,0,0-.248-.347v.093a.21.21,0,0,1,.124.124h0l.062-.031Z" transform="translate(-403.656 -9.933)" fill="#f2a5ba"/>
        <path id="_パス_1547" d="M428.061,11.953h.062a.2.2,0,0,0-.093-.093v.093Z" transform="translate(-403.68 -9.817)" fill="#f2a5ba"/>
        <path id="_パス_1548" d="M428.28,11.891a.235.235,0,0,0,.093.186v-.093c-.031.031,0-.031-.062-.062h0V11.86h0v.062h0l-.031-.031Z" transform="translate(-403.801 -9.817)" fill="#f2a5ba"/>
        <path id="_パス_1550" d="M428.954,12.1v.062a.155.155,0,0,0-.031-.093h0s-.093-.062-.093-.093a.536.536,0,0,0,.124.16V12.1Z" transform="translate(-404.067 -9.875)" fill="#f2a5ba"/>
        <path id="_パス_1552" d="M427.972,11.922l-.062-.062.062.093Z" transform="translate(-403.622 -9.817)" fill="#f2a5ba"/>
        <path id="_パス_1553" d="M427.881,11.982l-.031-.062v.062Z" transform="translate(-403.593 -9.846)" fill="#f2a5ba"/>
        <path id="_パス_1555" d="M425.448,13.751s-.16-.093-.093-.031l.062.062h.031v-.031Z" transform="translate(-402.381 -10.705)" fill="#f2a5ba"/>
        <path id="_パス_1556" d="M424.822,15.682h0l-.062-.062v.062Z" transform="translate(-402.102 -11.632)" fill="#f2a5ba"/>
        <path id="_パス_1557" d="M423.97,18.29l.062.062S424.032,18.321,423.97,18.29Z" transform="translate(-401.72 -12.921)" fill="#f2a5ba"/>
        <path id="_パス_1558" d="M426.882,12.77h-.062C426.851,12.77,426.913,12.832,426.882,12.77Z" transform="translate(-403.096 -10.256)" fill="#f2a5ba"/>
        <path id="_パス_1559" d="M423.12,16.41l.031.031Z" transform="translate(-401.31 -12.014)" fill="#f2a5ba"/>
        <path id="_パス_1565" d="M427.461,12.22l-.031.031h.031Z" transform="translate(-403.391 -9.991)" fill="#f2a5ba"/>
        <path id="_パス_1567" d="M426.106,15.222s-.031-.093,0-.062L425.92,15l.186.217h0Z" transform="translate(-402.662 -11.333)" fill="#f2a5ba"/>
        <path id="_パス_1568" d="M419.736,16.807a.293.293,0,0,1,.093.062h-.16s-.031.062.062.124h0a3.3,3.3,0,0,1,.44.186c-.124-.093.253.031.093-.093.031,0,.031.031.093.062q-.062-.062,0-.062h0a1.482,1.482,0,0,0,.217-.124h-.093l.062-.031c-.093-.093-.031.031-.16-.062.16.062.093-.124.253,0,0,0-.093-.031-.062-.062h.124s0-.062.031-.031H420.7a.245.245,0,0,0,.062-.253h-.031a.119.119,0,0,0,.062-.093h0s-.031-.062,0-.062c.031.031.093,0,.124.062-.031-.093-.031-.062-.16-.186h.062s-.062-.031-.062-.062c.031.062.093.031.16.093.16,0-.062-.16.124-.062-.16-.124-.124,0-.16-.031-.062,0-.093-.093-.062-.093,0,0,.217.093.253.062h0s-.031-.062.062-.031c-.093-.062,0,0-.093-.093v.062s-.16-.16-.062-.16l.062.062c.031,0,0-.031.031,0,.124.093,0,.062.062.16.062,0-.062-.093.062,0-.16-.124.062-.031-.062-.16l.062.062V15.99l.062.062s.093,0,.093-.062c-.031.062-.093-.031-.16-.062-.062-.124.217.093.253,0h.031c0-.062-.093-.031-.124-.093.093.031,0-.031-.031-.093l.062.062s-.16-.124-.062-.124l.093.093h.062v-.062c-.062,0-.124-.093-.124-.124.062,0,.062.062.093,0,.031.031.093.093,0,.062l.062.062.062-.062h0l-.062-.124s.062.031.062.062v-.062c.062.031.124.093.124.124v-.093a.06.06,0,0,1,.062.062h0c.062,0-.062-.124,0-.124h0s.124,0,.062-.124l.124.062s-.16-.062-.16-.16c0-.062.093.062.124.062-.031-.062-.124-.16,0-.124v.036h.062a.162.162,0,0,0,.124.16c-.186-.16.062-.093-.16-.253h.062s-.124-.093-.062-.124a.155.155,0,0,1,.093.031v-.067h.031a.558.558,0,0,1-.062-.124c.031,0,0,0,.031.031v-.062s.062.093.031.093c.217.124-.031-.062.124,0h0a1.253,1.253,0,0,0,.186.093.591.591,0,0,1-.253-.16s.031,0,0-.031c.062.062.062,0,.062,0l.093.062a.558.558,0,0,1-.093-.124.451.451,0,0,1,.16.093c.031,0-.124-.062-.124-.124.062,0,.031-.062,0-.124.062,0,.062.062.093.062l-.062-.062h.031s-.093-.062-.093-.093c-.093-.093.186.062.093-.062.031,0,.062.062.093.062a.321.321,0,0,0-.093-.186h.093s-.16-.093-.186-.186h-.062V14.03l.062.062h0a.249.249,0,0,1,.124.093h-.062a.947.947,0,0,0,.16.124h.16a1.068,1.068,0,0,1-.186-.347,1.058,1.058,0,0,1,.186.186c-.093-.062,0,.062-.031.093,0,0,.062.031.062.062V14.18s0,.031.062.062c-.16-.124-.062-.124-.093-.16.031.031.093.093.062.093.124.062-.124-.186,0-.124h0c0-.062.031-.062.062,0h0a.134.134,0,0,0,.026-.191c-.01-.01-.016-.021-.026-.026l.16.16-.315-.44a2.141,2.141,0,0,1,.378.378s.062,0,.031-.031l-.16-.124c.124.093.062.031.186.093a1.192,1.192,0,0,1-.16-.186l.16.16-.093-.186.16.16c-.031,0,.031,0,0-.062h-.062s-.16-.253-.124-.284a.46.46,0,0,0,.217.186,2.213,2.213,0,0,1-.315-.5h.031s.253.378.316.5c.062,0,.062.062.062,0,.062.031.062.062.031.093h.093a.4.4,0,0,0-.124-.217v.16s-.186-.284-.124-.315c.031,0,.124.16.16.186h0s-.031-.16.062-.093c0,0,.124.093.093.031-.093-.093-.409-.409-.471-.5a1.042,1.042,0,0,1,.186.093c.093.062.16.217.217.284l-.031-.062s.062.093.062.062c-.062-.093.062,0-.062-.093,0-.031.031,0,.062,0a.6.6,0,0,1-.16-.284l.062.062a.217.217,0,0,0,.16-.031.2.2,0,0,1,.093.093v-.072s-.031.031.062.124c-.031-.062,0-.093-.031-.16-.062-.093-.062,0-.062.062a.763.763,0,0,1-.16-.347c0-.062.062.062.062.031.093,0-.093-.253,0-.217a.508.508,0,0,1,.16.217c0,.062-.093,0-.093,0h.062v.067c.062.062.124-.062.217-.031a.121.121,0,0,0-.031-.093h0s0-.093-.062-.093v-.129l.062.093s-.062-.031-.062,0c0-.062.124.093.062-.031l-.062-.062s-.031-.186,0-.16c-.062-.093,0,0-.093-.093.093.124-.093.031.031.16-.093-.093-.062,0-.186-.124,0,0,.062.062,0,.062h0l.031.062c.031.062,0,.093,0,.16,0,0,0-.031-.062-.062v.052s-.093-.093-.093-.16h-.031s-.093,0-.093.031V12.5h-.031s0,.16-.16.093c0,0,0,.062-.031.062l-.062-.062s-.093,0-.062.062c-.16-.124-.124.031-.186.062l.062.062a.329.329,0,0,0-.031.093l.062.062s-.093,0-.124.062h0c-.186-.093,0,.186-.124.124h0v.062l-.062-.062h0s0,.031.062.093v.062s0,.062-.093-.031c.031.062,0,.093.093.217h0l-.093-.062.093.124a1.207,1.207,0,0,1-.16-.124c.062.124,0,.062.062.186l-.062-.062s.031.093,0,.062c-.124-.062-.16.124-.315.093.186.124-.093,0,0,.093q-.047,0-.093-.093c0,.062-.124,0,0,.124-.031,0-.062-.062-.062-.062h0a.133.133,0,0,0-.031-.062.891.891,0,0,0,.186.253q-.062,0,0,.062a.1.1,0,0,1-.093-.093s-.124.031-.031.093h0q-.031,0-.062.062h0v.093h0s0,.031-.124,0l.062.062s-.124,0-.093.062h.062a2.611,2.611,0,0,0-.284-.093V14.17c-.124,0,.093.062.093.124-.062-.031-.124-.093-.16-.093-.062,0,.093.186,0,.16a.1.1,0,0,1,.093.093c0,.031-.186-.031-.093.062h-.031s0,.093.062.124c-.253-.16,0,.186-.186.031v.062h-.062a.26.26,0,0,0,.031.124.074.074,0,0,1-.062-.031c-.093,0-.093.031,0,.16l-.093-.062s-.186,0-.124.093h0s-.315,0-.062.186V15.3a.81.81,0,0,0,.217.093s-.124,0-.124-.031h0a.235.235,0,0,1-.186-.031c-.062.093-.217.16-.284.253l.124.062h0s-.093,0-.062-.031c-.062,0,0,.062.062.093a.134.134,0,0,1-.124-.093h0s.093.093.062.124c-.031,0-.093-.031-.093,0h-.031l.093.062s-.031.031.093.093c-.186-.062-.16.124-.217.093.062.062,0,.093,0,.124,0,0,.124.062.093.093-.217-.124-.124,0-.284-.062.124.031,0,.093.124.16a.469.469,0,0,1-.16-.062c.031.093-.124.093-.16.186,0,0,.093,0,.124.062l-.16-.062s.16.093.031.062c0,0,.062,0,.062.031-.217.062-.062.347-.409.315q.062,0,.062.031h0l.093-.072Zm2.446-2.074s.031.062,0,.031C422.12,14.7,422.182,14.733,422.182,14.733Z" transform="translate(-399.591 -9.996)" fill="#f2a5ba"/>
        <path id="_パス_1572" d="M428.03,12.434h.062S428.03,12.372,428.03,12.434Z" transform="translate(-403.68 -10.081)" fill="#f2a5ba"/>
        <path id="_パス_1574" d="M427.4,12.32s-.062-.093,0-.062C427.373,12.165,427.4,12.382,427.4,12.32Z" transform="translate(-403.365 -9.998)" fill="#f2a5ba"/>
        <path id="_パス_1575" d="M428.15,12.71l.031.062.031.031-.062-.093Z" transform="translate(-403.738 -10.227)" fill="#f2a5ba"/>
        <rect id="_長方形_151" height="0.031" transform="translate(24.407 2.565)" fill="#f2a5ba"/>
        <path id="_パス_1578" d="M427.43,13.252s.031.031.031,0V13.19h0Z" transform="translate(-403.391 -10.459)" fill="#f2a5ba"/>
        <path id="_パス_1579" d="M427.8,13.432s-.031,0-.062-.062l.062.093h0Z" transform="translate(-403.54 -10.546)" fill="#f2a5ba"/>
        <path id="_パス_1580" d="M427.821,13.682s0-.062-.031-.062C427.79,13.62,427.79,13.713,427.821,13.682Z" transform="translate(-403.564 -10.667)" fill="#f2a5ba"/>
        <path id="_パス_1581" d="M426.733,13.83h0l-.093-.16Z" transform="translate(-403.009 -10.691)" fill="#f2a5ba"/>
        <path id="_パス_1582" d="M426.762,14.952a.06.06,0,0,1-.062-.062h0c0,.062,0,.031.093.124.062,0-.062-.093,0-.062Z" transform="translate(-403.038 -11.28)" fill="#f2a5ba"/>
        <path id="_パス_1583" d="M419.6,21.14l-.062.031h.062Z" transform="translate(-399.581 -14.297)" fill="#f2a5ba"/>
        <path id="_パス_1584" d="M419.753,21.322l-.093-.062Z" transform="translate(-399.639 -14.355)" fill="#f2a5ba"/>
        <path id="_パス_1586" d="M424.493,17.562h0L424.4,17.5Z" transform="translate(-401.928 -12.54)" fill="#f2a5ba"/>
        <path id="_パス_1588" d="M434.83,44.382l.062-.062S434.83,44.413,434.83,44.382Z" transform="translate(-406.963 -25.489)" fill="#f2a5ba"/>
        <path id="_パス_1589" d="M434.431,44.591l.031-.031-.062.062.031-.031h0Z" transform="translate(-406.756 -25.605)" fill="#f2a5ba"/>
        <path id="_パス_1590" d="M434.4,44.471s-.093.062-.062,0c-.062.124.031,0,0,.031h0l.062-.062h0v.031Z" transform="translate(-406.716 -25.547)" fill="#f2a5ba"/>
        <path id="_パス_1593" d="M434.472,43.89a.3.3,0,0,0-.062.093h.031V43.89Z" transform="translate(-406.761 -25.281)" fill="#f2a5ba"/>
        <path id="_パス_1596" d="M434.34,44.256s.062-.093.031-.062A.074.074,0,0,1,434.34,44.256Z" transform="translate(-406.727 -25.425)" fill="#f2a5ba"/>
        <path id="_パス_1598" d="M434.292,43.952V43.89a.293.293,0,0,1-.062.093h0Z" transform="translate(-406.674 -25.281)" fill="#f2a5ba"/>
        <path id="_パス_1600" d="M434.16,44.353l.093-.093Z" transform="translate(-406.64 -25.46)" fill="#f2a5ba"/>
        <path id="_パス_1601" d="M434.28,43.772l.062-.062Z" transform="translate(-406.698 -25.194)" fill="#f2a5ba"/>
        <path id="_パス_1602" d="M434.22,43.683s.031-.093.062-.093l-.062.062Z" transform="translate(-406.669 -25.136)" fill="#f2a5ba"/>
        <path id="_パス_1607" d="M434.04,44.384a.249.249,0,0,1,.093-.124C434.133,44.291,434.071,44.322,434.04,44.384Z" transform="translate(-406.582 -25.46)" fill="#f2a5ba"/>
        <path id="_パス_1608" d="M434.1,44.2a.132.132,0,0,1,.031-.062H434.1Z" transform="translate(-406.611 -25.402)" fill="#f2a5ba"/>
        <path id="_パス_1616" d="M433.46,44.143v-.062c-.031.093-.093.093-.16.217h0c.031-.062.093-.124.062-.031a2.747,2.747,0,0,0,.217-.378.1.1,0,0,1-.062.093.223.223,0,0,1-.062.16h0Z" transform="translate(-406.225 -25.281)" fill="#f2a5ba"/>
        <path id="_パス_1617" d="M433.891,43.892h0l.031-.062-.062.062Z" transform="translate(-406.495 -25.252)" fill="#f2a5ba"/>
        <path id="_パス_1618" d="M433.833,44.045a.2.2,0,0,1,.031-.093h0V43.89h-.031c-.031.062-.062.093-.093.16,0,0,.031-.062.062-.062h0l.031.057Z" transform="translate(-406.437 -25.281)" fill="#f2a5ba"/>
        <path id="_パス_1619" d="M433.924,44.322a1.5,1.5,0,0,0-.093.16H433.8a.393.393,0,0,0,.062-.1h0a.464.464,0,0,1,.062-.124h0Z" transform="translate(-406.466 -25.46)" fill="#f2a5ba"/>
        <path id="_パス_1620" d="M433.8,44.411v.062h0a.155.155,0,0,1,.031-.093H433.8Z" transform="translate(-406.466 -25.518)" fill="#f2a5ba"/>
        <path id="_パス_1621" d="M433.891,43.8l.062-.093-.093.093Z" transform="translate(-406.495 -25.194)" fill="#f2a5ba"/>
        <path id="_パス_1622" d="M433.86,43.8h0l.031-.031Z" transform="translate(-406.495 -25.223)" fill="#f2a5ba"/>
        <path id="_パス_1624" d="M432.59,43.118s.062-.16,0-.093v.062h0Z" transform="translate(-405.882 -24.855)" fill="#f2a5ba"/>
        <path id="_パス_1627" d="M433.3,43.592V43.53C433.3,43.561,433.266,43.623,433.3,43.592Z" transform="translate(-406.217 -25.107)" fill="#f2a5ba"/>
        <path id="_パス_1635" d="M431.485,44.328l.062-.062.093-.186-.16.253h0Z" transform="translate(-405.346 -25.373)" fill="#f2a5ba"/>
        <path id="_パス_1636" d="M430.72,42.947s.093-.093.093-.062l-.062.093v-.031c.031-.031-.062.16.031,0v-.062a.97.97,0,0,1,.124-.093c.062-.093,0,0,.031-.093-.062.16-.031,0-.093.124.062-.124,0-.062.062-.186,0,.031,0,.062-.031.031h0v.093c-.041.031-.088.062-.124.093a.074.074,0,0,1,.031-.062v.062a.368.368,0,0,1,.031-.16h0v-.057h-.031s-.124.093-.062-.031h-.031v-.062h0c.093-.16-.031-.062-.031-.093v.093h-.124v.062l-.062-.062h0c.062-.186-.124.093-.093-.031h0v-.057h0s0,.031-.062.093h-.031s-.031.062,0-.062c-.031.062-.062,0-.124.16h0a.422.422,0,0,1,.031-.16l-.124.124v-.067h0c.031-.124-.093-.062-.062-.186-.093.186,0-.093-.062.062,0-.031,0-.062.062-.093-.031.031,0-.093-.062,0,0-.031.031-.062.062-.093h0a.133.133,0,0,1,.031-.062,1.61,1.61,0,0,0-.16.253q0-.062-.031,0c0-.031,0-.093.062-.093,0,0,0-.093-.062,0h-.031s0,.031-.062.062h0s-.031,0,0-.093v.093c-.124.16,0-.124-.062-.062v.062s.062-.253.062-.284v-.036c0-.124-.062.093-.093.124,0-.062.062-.124.062-.16,0-.062-.124.16-.093.062a.131.131,0,0,1-.062.124s0-.186-.031-.062h0s-.062,0-.093.093c.093-.284-.124.093,0-.16h0a.1.1,0,0,0-.093.062V42.1q0-.062-.093.062v-.093s0-.16-.031-.062h0s0-.284-.124,0l-.062.062a.608.608,0,0,0-.062.186v-.129h0v-.16c-.062,0-.093-.124-.16-.16v.124h-.062s0-.124.031-.093c0-.062-.031.062-.062.093a.432.432,0,0,1,.062-.16h0s-.031.124-.062.124v-.083h0v.062s-.031,0-.062.093c.031-.186-.093-.093-.062-.16-.031.062-.062.062-.062.062s0,.124-.031.124c.062-.217,0-.093,0-.284,0,.124-.062,0-.093.186v-.16c-.062.093-.062-.062-.124-.062a.26.26,0,0,1-.031.124v-.16s-.031.186,0,.062v.062c-.062-.16-.217.093-.253-.217V41.6s-.062,0-.062.124h0s-.031.284-.062.44c.031-.16,0,.217.062,0v.109c0-.062,0-.093.031-.062h0a.249.249,0,0,0,.093.124V42.3c.031-.124,0,0,0-.16,0,.16.062,0,.031.217,0,0,0-.093.031-.093h0v.124h.031a.189.189,0,0,0,.16-.093h.062l.031-.031a.2.2,0,0,1-.031.124c.062-.062.031-.062.093-.186v.067s0-.093.031-.093a.17.17,0,0,1-.062.16c0,.16.093-.124.062.093.062-.16,0-.093,0-.124,0-.062.062-.124.062-.093,0,0-.062.217,0,.217h0c.031-.093,0,0,.062-.124H428.6s.093-.16.093-.062a.155.155,0,0,1-.031.093h0c-.031.124-.031,0-.093.124,0,.062.062-.093,0,.062.062-.186,0,0,.093-.093v.093h0v.062s-.031.093,0,.031a.421.421,0,0,1,.031-.16c.062-.093-.062.217,0,.186h0c.031,0,0-.093.062-.124,0,.093,0-.031.062-.062v.093s.031-.16.031-.093l-.062.093h0v.062h0a.433.433,0,0,1,.062-.16c0,.062-.031.062,0,.062,0,.062-.062.124-.031.031v.062h0l.062-.093s0,.062-.031.062v-.062a.368.368,0,0,1-.031.16l.062-.062V42.7c0,.031.093-.124.093-.062h0s0,.062.062,0v.124s0-.16.062-.186c.031,0-.031.093-.031.124.031-.062.093-.16.093-.062h0V42.7a.5.5,0,0,0-.093.16c.093-.217.062,0,.16-.217v.062h0s.093-.16.093-.093v.031h.062s.062-.031.062-.062v.093c-.093.217.031-.062,0,.093h0a.563.563,0,0,1-.031.186.791.791,0,0,1,.093-.253h0c-.031.093,0,.062,0,.062V42.73a.222.222,0,0,1-.062.16.469.469,0,0,1,.062-.16c0,.062,0,0,.093-.031,0,.031-.031.062-.031.093l.062-.093h0s.062-.062.062-.093c.062-.124-.062.186,0,.062a.293.293,0,0,1-.062.093.609.609,0,0,0,.124-.16v.062a2.292,2.292,0,0,1,.124-.253v-.088h.093l-.062.062h0l-.062.124v-.062l-.093.186h0l-.062.093h0l.217-.253a2.3,2.3,0,0,0-.124.253c.031-.093-.062.031-.062,0,0,0,0,.062-.031.062l.093-.093a.155.155,0,0,1-.031.093c.062-.16.062-.093.124-.16a.1.1,0,0,1-.062.093c-.031.124.124-.186.093-.062h0c.031-.031.031,0,0,.062h0s.062.031.16-.093l-.093.186.284-.44a3.448,3.448,0,0,1-.253.471h0s.062-.186.093-.186c-.062.124,0,.062-.062.186,0,0,.093-.217.124-.186l-.093.186.124-.16a.811.811,0,0,0-.093.217c0-.031,0,0,.031,0h0s.16-.284.186-.253c0,.031-.124.217-.124.253.062-.093.253-.44.316-.5h0s-.253.409-.316.5v.062a.06.06,0,0,1-.062.062h0v.062a1.384,1.384,0,0,0,.16-.186l-.093.093s.186-.284.186-.253a.819.819,0,0,1-.124.217c0-.031.062-.062.062-.031v.062h0s-.062.16,0,.093c.062-.124.253-.5.315-.595a1.121,1.121,0,0,1-.062.186,1.747,1.747,0,0,1-.186.315s.031-.062.062-.062c0,0-.062.093-.031.093l.062-.093h0a2.282,2.282,0,0,1,.186-.253v.093s-.031.062,0,.093a.1.1,0,0,1-.062.093v.062c.031-.062.062-.062.093-.093.062-.093,0,0-.031,0a1.318,1.318,0,0,1,.217-.315c.031,0-.031.093,0,.062,0,.031.16-.217.16-.093a1.481,1.481,0,0,1-.124.217c-.031,0,0-.062,0-.062h0s-.031.093-.031.062c-.031.093.062.062.031.124a.294.294,0,0,1,.062-.093h0a.557.557,0,0,0,.093-.124h0l-.362.2Z" transform="translate(-403.608 -24.147)" fill="#f2a5ba"/>
        <path id="_パス_1642" d="M433.606,43.7s.062-.093.031-.062C433.7,43.574,433.544,43.729,433.606,43.7Z" transform="translate(-406.365 -25.152)" fill="#f2a5ba"/>
        <path id="_パス_1643" d="M433.37,44.5v.031l.031-.093Z" transform="translate(-406.259 -25.547)" fill="#f2a5ba"/>
        <path id="_パス_1646" d="M433.01,44.231v.031l.031-.062h0Z" transform="translate(-406.085 -25.431)" fill="#f2a5ba"/>
        <path id="_パス_1648" d="M432.7,44.8a.331.331,0,0,0,.031-.062S432.671,44.8,432.7,44.8Z" transform="translate(-405.932 -25.692)" fill="#f2a5ba"/>
        <path id="_パス_1649" d="M432.46,44.11h0l.093-.16Z" transform="translate(-405.819 -25.31)" fill="#f2a5ba"/>
        <path id="_パス_1650" d="M431.732,44.682V44.62c-.031.031,0,0-.062.124,0,.062.062-.093.031-.031h0Z" transform="translate(-405.438 -25.634)" fill="#f2a5ba"/>
        <path id="_パス_1651" d="M427.761,41.652l-.031-.062v.062Z" transform="translate(-403.536 -24.171)" fill="#f2a5ba"/>
        <path id="_パス_1654" d="M430.061,44.173l.031-.093-.062.093Z" transform="translate(-404.646 -25.373)" fill="#f2a5ba"/>
        <path id="_パス_1658" d="M407.644,62.64v.031h.062S407.613,62.671,407.644,62.64Z" transform="translate(-393.835 -34.334)" fill="#f2a5ba"/>
        <path id="_パス_1703" d="M406.384,60.312h.284c.062,0,.16,0,.093.031h.284c-.16,0,0-.031-.16,0h.134s.062-.031,0-.031h0s-.124-.062,0-.093h.062s.062,0,0-.031c.186,0,.031-.031.062-.062h-.093l-.062-.031H406.9a.06.06,0,0,0,.062-.062h0c.186,0-.124-.031,0-.062h-.217c.16,0,0-.062.16-.093h.062c-.062,0,.093,0-.062-.031h-.062s.062-.031-.062-.031H406.7s-.062,0,.062-.031h-.093c-.186,0,.124,0,.031-.031h-.062a1.067,1.067,0,0,0,.284-.031h.062s-.217-.031-.093-.062h-.124s.186-.031,0-.031h-.124c.315-.031-.16-.031.124-.062h0a.2.2,0,0,0-.124-.062h.062c.062,0,.031-.031-.093-.031h.093s.16-.062.031-.062h.031c-.124,0,.253-.093-.093-.062H406.4s.093-.031.124,0h0c.186,0,.062-.031.186-.031,0-.031.093-.093.062-.16h-.217c.186-.031.062-.093.124-.093h-.186c.253,0,.093-.031.284-.062-.124,0-.031-.031-.186,0h.16c-.093,0,.062-.062,0-.093h.031s-.186,0-.062-.062h-.093s-.16-.093.124-.186h-.186l.124-.062h-.124l-.471.093c.16,0-.217.062,0,.062h-.031l-.093.093h0l.16-.031c-.186.031,0,.062-.186.093h.031s0,.062.093.062h.031s-.031,0,0,.031h0c-.16.031.16,0-.062.062.186,0,.093-.031.16-.031h.124s-.253.031-.253.062h-.093s-.093.062,0,.062a.421.421,0,0,0,.16-.031c.124,0-.217.031-.186.062h.093s.062,0,0,.031h0a.545.545,0,0,1-.124.031c-.031,0,.16,0,.093.031h.031s-.093.031,0,.031h-.233c.253,0,0,.031.284,0h.16s0,.031-.062.031h-.062c-.253,0,.062,0-.093.031h-.031a.563.563,0,0,0-.186.031.875.875,0,0,1,.284,0h-.031c-.031,0,0,0,.093.031h.124c.124,0-.186.031-.031.031h-.186s.347.062.409.062H406.2c.124,0-.062,0,0-.031h.031a.26.26,0,0,0-.124.031h.124s0,.062.16.062h.315s-.471.031-.533.031h-.217a1.568,1.568,0,0,0,.217.031h.595a.76.76,0,0,0-.217.031h-.062s-.062.031-.062.062h.253c0,.031.284,0,.16.062h-.284c-.093,0,0,.062-.093.062h0l-.047.445Z" transform="translate(-392.953 -32.383)" fill="#f2a5ba"/>
        <path id="_パス_1710" d="M407.1,62.061l.093-.031H407.1Z" transform="translate(-393.575 -34.039)" fill="#f2a5ba"/>
        <path id="_パス_1724" d="M380.95,45.131l.031.031-.031-.062Z" transform="translate(-380.95 -25.865)" fill="#f2a5ba"/>
        <path id="_パス_1725" d="M381.07,45.059h0v.062s.031-.093.062-.062C381.07,44.934,381.132,45.059,381.07,45.059Z" transform="translate(-381.008 -25.819)" fill="#f2a5ba"/>
        <path id="_パス_1733" d="M381.62,45.441l.031.062a.155.155,0,0,0-.031-.093h0Z" transform="translate(-381.274 -26.015)" fill="#f2a5ba"/>
        <rect id="_長方形_160" height="0.093" transform="translate(0.207 19.266)" fill="#f2a5ba"/>
        <path id="_パス_1735" d="M381.771,45.561v.062l-.031-.093.031.031Z" transform="translate(-381.331 -26.073)" fill="#f2a5ba"/>
        <path id="_パス_1736" d="M381.86,45.53a.545.545,0,0,1,.031.124v-.093h-.031Z" transform="translate(-381.389 -26.073)" fill="#f2a5ba"/>
        <path id="_パス_1738" d="M381.62,45.35s0,.062.031.062V45.35Z" transform="translate(-381.274 -25.986)" fill="#f2a5ba"/>
        <path id="_パス_1741" d="M381.38,44.92a.877.877,0,0,1,.031.16A.342.342,0,0,0,381.38,44.92Z" transform="translate(-381.158 -25.779)" fill="#f2a5ba"/>
        <path id="_パス_1743" d="M381.771,45.321V45.29h-.031v.031Z" transform="translate(-381.331 -25.957)" fill="#f2a5ba"/>
        <path id="_パス_1750" d="M381.771,44.561l.031.062c-.031-.093,0-.124-.062-.253v.062a1.223,1.223,0,0,0,.16.378v-.093c0-.031-.062-.062-.062-.124h0Z" transform="translate(-381.331 -25.513)" fill="#f2a5ba"/>
        <path id="_パス_1751" d="M381.92,45.23h0s0,.031.062.093V45.23Z" transform="translate(-381.418 -25.928)" fill="#f2a5ba"/>
        <path id="_パス_1752" d="M381.8,45.056a.3.3,0,0,0-.062-.186v.093a.133.133,0,0,0,.031.062h0v.062h0l.031-.031Z" transform="translate(-381.331 -25.754)" fill="#f2a5ba"/>
        <path id="_パス_1753" d="M381.38,44.752a.558.558,0,0,1,.062.124.4.4,0,0,0-.062-.186h0v.093h0Z" transform="translate(-381.158 -25.667)" fill="#f2a5ba"/>
        <path id="_パス_1755" d="M381.98,45.261l.031.062-.031-.093Z" transform="translate(-381.447 -25.928)" fill="#f2a5ba"/>
        <path id="_パス_1756" d="M382.05,45.23l.031.062v-.031Z" transform="translate(-381.481 -25.928)" fill="#f2a5ba"/>
        <path id="_パス_1758" d="M383.56,44.74s.093.16.062.062V44.74Z" transform="translate(-382.21 -25.692)" fill="#f2a5ba"/>
        <path id="_パス_1761" d="M382.642,44.955s.016.031.031.031C382.673,44.955,382.611,44.893,382.642,44.955Z" transform="translate(-381.763 -25.783)" fill="#f2a5ba"/>
        <path id="_パス_1769" d="M383.32,43.035V43.1l.093.217-.093-.284Z" transform="translate(-382.094 -24.866)" fill="#f2a5ba"/>
        <path id="_パス_1770" d="M385.376,42.029s-.124-.284-.186-.44c.031.16-.124-.186-.062,0v-.031h0a.859.859,0,0,1-.16-.062h0c.031.124.031,0,.062.124-.062-.16-.093,0-.16-.16,0,0,.031.093,0,.093h0s-.062-.062-.062-.093h-.031a.157.157,0,0,0-.124.16h0s-.031,0-.062.062h0v.062c0-.031-.062-.093-.062-.124a.76.76,0,0,0,.031.217V41.9c0-.062-.062-.093-.062-.16-.093-.124,0,.16-.093-.031.062.186.062.093.062.124,0,.062.031.124,0,.124,0,0-.093-.217-.124-.186h0s0,.062-.031,0c.031.093,0,0,0,.124h0s.031.16,0,.093V41.9h0c-.062-.124,0-.031,0-.16,0-.062,0,.093-.031-.031.062.186-.031,0,0,.124h0l-.062-.093s-.062-.062-.062,0c.031,0,.062.093.093.16,0,.124-.093-.186-.124-.124l.062.062-.062-.062a.547.547,0,0,1,.031.124c-.062-.093,0,.031,0,.093V41.9h-.031v-.057s-.031.062-.062.031c0,.062.062.16.031.16,0-.031,0-.062-.031-.062,0-.062-.031-.124,0-.031v-.067H384v.093a.862.862,0,0,1-.062-.16V41.9s-.062-.062-.062-.093c-.031-.031,0,.16-.031.093h0s-.093-.031-.062.062l-.062-.124s.093.124.062.186c0,.031-.062-.093-.062-.124,0,.062.031.186,0,.093h0v-.057a.451.451,0,0,0-.093-.16c.093.217-.062.062.031.284h-.031V42s.062.16,0,.16a.141.141,0,0,1-.031-.062v.062h-.031v.093s-.031-.124,0-.124c-.124-.217,0,.062-.093-.062h0c-.062-.16-.062-.093-.124-.186,0,.031.124.186.124.253h0c-.031-.093-.031-.062-.031-.062v.031a1.513,1.513,0,0,1-.093-.16.858.858,0,0,1,.062.16q-.047-.047,0,.093a.105.105,0,0,0-.026-.093V42.2h0a.33.33,0,0,1,.031.093c.031.124-.093-.16-.062,0a.155.155,0,0,0-.031-.093v.186l-.062-.062s.062.186.093.253l.062.093v.062a.155.155,0,0,0-.031-.093h0l-.062-.124v.062a.563.563,0,0,0-.031-.186h0l-.067-.093h0v.378c0-.093-.062-.16-.093-.253.062.093,0-.062.031-.031l-.031-.062v.124a.107.107,0,0,0-.067-.093c.062.16,0,.124,0,.186,0-.062-.031-.124,0-.093-.062-.124.062.217,0,.093h0c0,.062,0,0-.031,0h0s-.093,0-.031.16l-.062-.186.124.5a3.709,3.709,0,0,1-.186-.471h0a1.562,1.562,0,0,1,.093.186l-.093-.186s.093.217.062.217a1.372,1.372,0,0,0-.093-.217l.062.186s-.062-.16-.093-.217h0s.062.315.031.315c0-.031-.093-.253-.124-.253,0,.093.16.471.16.564h0s-.16-.471-.186-.595c0-.031,0-.062-.031-.062v-.1H382.6a.335.335,0,0,0,.062.186v-.124s.093.315.062.315a1.148,1.148,0,0,0-.093-.253h0s0,.16-.031.062c0,0-.062-.124-.062-.062.062.124.217.533.253.626,0,0-.093-.124-.124-.16-.062-.093-.062-.253-.124-.315v.093s-.031-.093-.031-.062c.031.124-.031,0,0,.093,0,.031,0,0-.031,0,.031.062.093.253.062.284a.155.155,0,0,0-.031-.093c-.031,0-.062-.062-.093-.031a.293.293,0,0,0-.062-.093v.062l-.031-.124v.16c.031.093.031,0,.031-.031a.966.966,0,0,1,.093.378c0,.031-.031-.093-.031-.062-.062,0,.062.253,0,.16a1.148,1.148,0,0,1-.093-.253c0-.031.062.062.062.031h-.031V43.11c-.031-.062-.093,0-.16-.062v.093h0s0,.093.031.124h0c0,.062-.093-.124-.031,0v.062s.062.16.031.16c.031.093,0,0,.062.093-.062-.16.062,0,0-.16a.813.813,0,0,0,.093.16v-.062h0v-.228a.858.858,0,0,1,.062.16h0s.062.062.062,0h0v-.067h0s0-.124.093,0v.031s.093.062.062,0c.093.16.062,0,.124.031v-.217s.047.016.062,0h0c.093.16,0-.16.093-.031h.062l-.031-.062v-.062s0-.062.062.093a.762.762,0,0,0-.031-.217h0v-.031a1.251,1.251,0,0,1,.093.186v-.124s0-.093.031-.031c.062.124.093,0,.186.093-.093-.186.062.062,0-.062,0,.031.031.062.062.124,0-.062.062.062.031-.062a.121.121,0,0,0,.031.093h0V43.2a1.406,1.406,0,0,0-.093-.284c.031.062.031.031,0-.031,0,.031.062.093.031.093,0,0,.093.031.031-.062h.031v-.062h0s0-.031.093.062v-.062c-.093-.16.031.093.031,0h0s.124.186.16.186v.031c.062.093-.031-.093,0-.124a.433.433,0,0,0,.062.16c0,.031-.031-.186.031-.093a.257.257,0,0,0-.062-.124s.124.16.062,0h0v-.129c.124.284,0-.16.124.093h.031v-.062c.062.031.062,0,.031-.124v.093s.16.093.124,0h0s.186.217.062-.062V42.6l-.093-.186s.062.062.062.093h0s.062,0,.093.124c.062-.031.16,0,.217,0l-.062-.124h0s.031.093,0,.093c.031.062,0-.062,0-.093.062.031.031.16.062.16h0v-.129l.031.062h.031l-.062-.093v-.093c.093.16.124,0,.16.062v-.093s-.062-.124-.031-.124c.093.217.062.093.16.253-.062-.093.031-.031-.031-.186a.464.464,0,0,0,.062.124c0-.093.093,0,.124,0a.276.276,0,0,1-.031-.124l.093.124s-.062-.16,0-.062v-.062s.093-.186.284.062c-.031-.062,0-.062,0-.062h0s.062,0,.031-.124h0l.088-.155Z" transform="translate(-381.543 -24.108)" fill="#f2a5ba"/>
        <path id="_パス_1774" d="M381.951,44.787s0-.031-.031,0Z" transform="translate(-381.418 -25.708)" fill="#f2a5ba"/>
        <path id="_パス_1777" d="M381.86,44.411V44.38l.031.093Z" transform="translate(-381.389 -25.518)" fill="#f2a5ba"/>
        <path id="_パス_1783" d="M382.77,44.01h0l.062.16Z" transform="translate(-381.829 -25.339)" fill="#f2a5ba"/>
        <path id="_パス_1784" d="M382.892,43.1a.133.133,0,0,0,.031.062c0-.031,0,0-.031-.124-.031-.031.031.093,0,.062Z" transform="translate(-381.883 -24.866)" fill="#f2a5ba"/>
        <path id="_パス_1785" d="M388.48,42.92l.031.031Z" transform="translate(-384.585 -24.813)" fill="#f2a5ba"/>
        <path id="_パス_1788" d="M384.71,42.25h0l.062.093Z" transform="translate(-382.765 -24.489)" fill="#f2a5ba"/>
      </g>
      <g id="Group_944" data-name="Group 944" transform="translate(2.012 63.905)" opacity="0.71">
        <path id="Path_1913" data-name="Path 1913" d="M6.792,129.336a.373.373,0,0,1-.2.067l-1.246.093-.864.072-.45.036a.135.135,0,0,1-.1-.072.25.25,0,0,1-.047-.14.1.1,0,0,1,.031-.078.191.191,0,0,1,.072-.036.127.127,0,0,0,.052-.021c0-.259.005-.869.005-1.826a12.115,12.115,0,0,0-.083-1.64c-.057-.388-.083-.595-.083-.626a.194.194,0,0,1,.078-.16.273.273,0,0,1,.155-.057.091.091,0,0,1,.078.041.289.289,0,0,1,.041.129,4.832,4.832,0,0,1,.114.905c.026.44.041.9.041,1.376,0,.4,0,.781-.005,1.127s-.005.579-.005.7c.062,0,.181-.016.362-.026s.362-.026.548-.041c.279-.036.595-.083.946-.15a4.654,4.654,0,0,1,.512-.078.1.1,0,0,1,.1.072.586.586,0,0,1,.021.176.169.169,0,0,1-.083.15Z" transform="translate(-3.88 -124.231)" fill="#f695c1"/>
        <path id="Path_1914" data-name="Path 1914" d="M19.238,129.144a1.961,1.961,0,0,1-.191.574,2.549,2.549,0,0,1-.579.817,1.3,1.3,0,0,1-.952.378,1.1,1.1,0,0,1-.776-.29,1.162,1.162,0,0,1-.31-.89,2.63,2.63,0,0,1,.259-1.117,2.584,2.584,0,0,1,.683-.905,1.349,1.349,0,0,1,.869-.352.839.839,0,0,1,.455.119.386.386,0,0,1,.186.347.654.654,0,0,1-.284.491,2.654,2.654,0,0,1-.745.419,4.529,4.529,0,0,1-.941.259,2.63,2.63,0,0,0-.088.652.99.99,0,0,0,.2.652.7.7,0,0,0,.569.233,1.15,1.15,0,0,0,.905-.4,3.675,3.675,0,0,0,.579-.9c.01-.021.026-.057.052-.114s.047-.083.067-.083c.036,0,.052.036.052.109Zm-.807-1.427a.586.586,0,0,0-.279-.067.9.9,0,0,0-.528.181,1.613,1.613,0,0,0-.424.434,1.631,1.631,0,0,0-.222.45,2.791,2.791,0,0,0,.7-.186,3.128,3.128,0,0,0,.621-.331q.248-.178.248-.295a.2.2,0,0,0-.119-.181Z" transform="translate(-9.939 -125.395)" fill="#f695c1"/>
        <path id="Path_1915" data-name="Path 1915" d="M31.33,127.123a1.135,1.135,0,0,1-.378.1c-.445.078-.693.119-.745.129l-.471.078c0,.253,0,.512.01.791s.021.517.031.724a2.752,2.752,0,0,0,.1.646c.047.15.078.233.078.253a.172.172,0,0,1-.093.134.315.315,0,0,1-.171.062.112.112,0,0,1-.072-.026.207.207,0,0,1-.052-.083,1.557,1.557,0,0,1-.083-.378c-.026-.186-.047-.388-.062-.61-.016-.2-.026-.429-.031-.693s-.01-.517-.01-.765c-.269.041-.548.1-.833.16a4.052,4.052,0,0,1-.455.078.258.258,0,0,1-.16-.052.152.152,0,0,1-.078-.14.12.12,0,0,1,.067-.124.55.55,0,0,1,.217-.031,1.994,1.994,0,0,0,.321-.041c.14-.026.228-.047.269-.057.321-.062.543-.1.657-.124,0-.1,0-.233-.016-.4-.01-.222-.016-.393-.016-.507a3.268,3.268,0,0,1,.021-.44,1.105,1.105,0,0,1,.067-.279.209.209,0,0,1,.217-.145.129.129,0,0,1,.088.021.107.107,0,0,1,.021.078,1.91,1.91,0,0,1-.036.253,3.238,3.238,0,0,0-.036.559c0,.176,0,.378.016.6v.2c.222-.031.652-.124,1.3-.269a.162.162,0,0,0,.1-.1c.026-.062.052-.088.083-.088a.23.23,0,0,1,.16.088.274.274,0,0,1,.083.186.206.206,0,0,1-.1.186Z" transform="translate(-15.458 -124.443)" fill="#f695c1"/>
        <path id="Path_1916" data-name="Path 1916" d="M41.81,125.211c-.026.15-.057.238-.1.264a.2.2,0,0,1-.093.031.159.159,0,0,1-.124-.072,1.559,1.559,0,0,1-.031-.45l-.016-.44a2.2,2.2,0,0,0-.052-.362,2.266,2.266,0,0,1-.041-.347.16.16,0,0,1,.041-.129.187.187,0,0,1,.093-.016.41.41,0,0,1,.15.031.233.233,0,0,1,.109.083,1.3,1.3,0,0,1,.067.336,4.493,4.493,0,0,1,.031.538,3.274,3.274,0,0,1-.036.533Z" transform="translate(-21.971 -123.623)" fill="#f695c1"/>
        <path id="Path_1917" data-name="Path 1917" d="M51.911,130.459a1.825,1.825,0,0,1-.678.471,2.218,2.218,0,0,1-.874.176,1.058,1.058,0,0,1-.419-.057.181.181,0,0,1-.109-.16c0-.041.057-.119.166-.228s.186-.166.222-.166c.057,0,.088.01.088.036s-.01.036-.036.057-.036.036-.036.052.031.041.088.057a.852.852,0,0,0,.222.031,1.7,1.7,0,0,0,.61-.114,1.358,1.358,0,0,0,.5-.295.525.525,0,0,0,.2-.383.4.4,0,0,0-.124-.31.754.754,0,0,0-.31-.171q-.186-.054-.621-.155c-.321-.072-.564-.134-.745-.191a1.25,1.25,0,0,1-.424-.212.385.385,0,0,1-.16-.321.827.827,0,0,1,.341-.636,2.6,2.6,0,0,1,.781-.455,2.179,2.179,0,0,1,.683-.165c.16,0,.248.047.248.145a.422.422,0,0,1-.057.191.2.2,0,0,1-.176.1.167.167,0,0,1-.093-.031.2.2,0,0,0-.1-.031,1.783,1.783,0,0,0-.455.093,1.7,1.7,0,0,0-.564.284.55.55,0,0,0-.253.455.279.279,0,0,0,.2.259,5.147,5.147,0,0,0,.74.207.588.588,0,0,0,.129.031.618.618,0,0,1,.114.026,3.483,3.483,0,0,1,.853.295.54.54,0,0,1,.295.5.905.905,0,0,1-.259.61Z" transform="translate(-25.891 -125.375)" fill="#f695c1"/>
        <path id="Path_1918" data-name="Path 1918" d="M71.85,129.264a.553.553,0,0,1-.212.041c-.057,0-.114-.067-.16-.207a1.9,1.9,0,0,1-.078-.626c0-.543.016-1.205.026-1.976s.021-1.355.031-1.743a1.108,1.108,0,0,1,.078-.393.251.251,0,0,1,.243-.181.081.081,0,0,1,.078.062,1.035,1.035,0,0,1,.021.233v.186q-.132,1.908-.129,3.713a1.352,1.352,0,0,0,.1.491,2.42,2.42,0,0,1,.1.274.128.128,0,0,1-.093.114Z" transform="translate(-36.479 -123.859)" fill="#f695c1"/>
        <path id="Path_1919" data-name="Path 1919" d="M79.612,125.151a.4.4,0,0,1-.248-.1c-.083-.067-.124-.124-.124-.166a.2.2,0,0,1,.078-.15.238.238,0,0,1,.155-.072.434.434,0,0,1,.181.114c.036.041.083.088.129.15a.453.453,0,0,1,.072.114c0,.072-.078.109-.238.109Zm.357,4.557a.216.216,0,0,1-.14.031c-.067,0-.119-.114-.15-.326s-.062-.615-.1-1.21c-.021-.393-.036-.776-.052-1.148s-.026-.662-.031-.864a.239.239,0,0,1,.026-.119.111.111,0,0,1,.1-.041.2.2,0,0,1,.212.14,2.023,2.023,0,0,1,.041.528v.853a10.775,10.775,0,0,0,.036,1.174c0,.016.021.171.067.465a3.774,3.774,0,0,1,.052.4.13.13,0,0,1-.062.114Z" transform="translate(-40.264 -124.091)" fill="#f695c1"/>
        <path id="Path_1920" data-name="Path 1920" d="M91.354,126.932a.457.457,0,0,0-.119.093,4.279,4.279,0,0,0-.7,1.226,9.556,9.556,0,0,0-.512,1.722c-.016.072-.036.217-.072.434l-.036.253a.3.3,0,0,1-.1.181.426.426,0,0,1-.264.067,1.466,1.466,0,0,1-.248-.44c-.14-.29-.29-.605-.44-.946l-.31-.683c-.186-.409-.347-.729-.471-.962s-.217-.347-.274-.347a.048.048,0,0,0-.047.036c-.01.026-.026.036-.041.036a.074.074,0,0,1-.062-.031.122.122,0,0,1-.026-.067.515.515,0,0,1,.1-.248c.072-.1.14-.15.207-.15a.17.17,0,0,1,.109.031.413.413,0,0,1,.067.067.248.248,0,0,1,.041.057,7.549,7.549,0,0,1,.6,1.143c.1.217.352.786.755,1.7l.166.383a4.426,4.426,0,0,1,.072-.61,10.263,10.263,0,0,1,.476-1.7,5.689,5.689,0,0,1,.745-1.407.98.98,0,0,1,.14-.16.207.207,0,0,1,.14-.047c.026,0,.062.036.114.114a.36.36,0,0,1,.078.15c0,.026-.031.057-.1.1Z" transform="translate(-44.315 -125.013)" fill="#f695c1"/>
        <path id="Path_1921" data-name="Path 1921" d="M104.008,129.144a1.961,1.961,0,0,1-.191.574,2.549,2.549,0,0,1-.579.817,1.3,1.3,0,0,1-.952.378,1.1,1.1,0,0,1-.776-.29,1.162,1.162,0,0,1-.31-.89,2.63,2.63,0,0,1,.259-1.117,2.584,2.584,0,0,1,.683-.905,1.349,1.349,0,0,1,.869-.352.839.839,0,0,1,.455.119.386.386,0,0,1,.186.347.654.654,0,0,1-.284.491,2.654,2.654,0,0,1-.745.419,4.529,4.529,0,0,1-.941.259,2.63,2.63,0,0,0-.088.652.99.99,0,0,0,.2.652.7.7,0,0,0,.569.233,1.15,1.15,0,0,0,.905-.4,3.676,3.676,0,0,0,.579-.9c.01-.021.026-.057.052-.114s.047-.083.067-.083c.036,0,.052.036.052.109Zm-.807-1.427a.587.587,0,0,0-.279-.067.9.9,0,0,0-.528.181,1.613,1.613,0,0,0-.424.434,1.631,1.631,0,0,0-.222.45,2.791,2.791,0,0,0,.7-.186,3.128,3.128,0,0,0,.621-.331q.248-.178.248-.295a.2.2,0,0,0-.119-.181Z" transform="translate(-50.866 -125.395)" fill="#f695c1"/>
        <path id="Path_1922" data-name="Path 1922" d="M123.705,129.264a.553.553,0,0,1-.212.041c-.057,0-.114-.067-.165-.207a1.9,1.9,0,0,1-.078-.626c0-.543.016-1.205.026-1.976s.021-1.355.031-1.743a1.108,1.108,0,0,1,.078-.393.251.251,0,0,1,.243-.181.081.081,0,0,1,.078.062,1.138,1.138,0,0,1,.016.233v.186q-.132,1.908-.129,3.713a1.352,1.352,0,0,0,.1.491c.067.176.1.264.1.274a.128.128,0,0,1-.093.114Z" transform="translate(-61.512 -123.859)" fill="#f695c1"/>
        <path id="Path_1923" data-name="Path 1923" d="M131.458,125.151a.4.4,0,0,1-.248-.1c-.083-.067-.129-.124-.129-.166a.2.2,0,0,1,.078-.15.238.238,0,0,1,.155-.072.434.434,0,0,1,.181.114c.036.041.083.088.129.15a.454.454,0,0,1,.072.114c0,.072-.078.109-.238.109Zm.357,4.557a.216.216,0,0,1-.14.031c-.067,0-.119-.114-.15-.326s-.062-.615-.1-1.21c-.021-.393-.036-.776-.052-1.148s-.026-.662-.031-.864a.239.239,0,0,1,.026-.119.111.111,0,0,1,.1-.041.2.2,0,0,1,.212.14,2.025,2.025,0,0,1,.041.528v.853a10.769,10.769,0,0,0,.036,1.174c0,.016.021.171.067.465a2.744,2.744,0,0,1,.052.4.13.13,0,0,1-.062.114Z" transform="translate(-65.292 -124.091)" fill="#f695c1"/>
        <path id="Path_1924" data-name="Path 1924" d="M143.245,126.469a.256.256,0,0,1-.186.114.2.2,0,0,1-.129-.062.208.208,0,0,0-.1-.062,1.4,1.4,0,0,0-.621.269,8.752,8.752,0,0,0-.874.631,7.145,7.145,0,0,0-.688.615v.129c.372.171.781.352,1.231.543a6.043,6.043,0,0,0,.936.341c.067.01.134.016.2.021s.114.005.145.005a.694.694,0,0,1,.109.005c.031,0,.041.016.041.031,0,.057-.047.114-.134.176a.708.708,0,0,1-.4.088,1.711,1.711,0,0,1-.646-.176c-.274-.119-.595-.274-.967-.465l-.455-.222c.062.615.093.952.093,1.014a.148.148,0,0,1-.078.129.294.294,0,0,1-.176.052c-.041,0-.072-.057-.093-.176s-.052-.347-.088-.688l-.052-.44a.433.433,0,0,1-.15-.1.212.212,0,0,1-.067-.124c0-.057.047-.124.145-.2,0-.259-.021-.631-.041-1.117s-.036-.833-.047-1.055l-.036-1.009a.978.978,0,0,1,.052-.347.208.208,0,0,1,.222-.145.127.127,0,0,1,.088.026.154.154,0,0,1,.021.1c0,.222.016.74.047,1.546s.057,1.386.078,1.727q1.614-1.536,2.358-1.536a.562.562,0,0,1,.259.057c.072.036.1.072.1.114a.317.317,0,0,1-.1.212Z" transform="translate(-69.643 -123.888)" fill="#f695c1"/>
        <path id="Path_1925" data-name="Path 1925" d="M155.148,129.144a1.961,1.961,0,0,1-.191.574,2.549,2.549,0,0,1-.579.817,1.3,1.3,0,0,1-.952.378,1.1,1.1,0,0,1-.776-.29,1.162,1.162,0,0,1-.31-.89,2.63,2.63,0,0,1,.259-1.117,2.585,2.585,0,0,1,.683-.905,1.349,1.349,0,0,1,.869-.352.839.839,0,0,1,.455.119.386.386,0,0,1,.186.347.654.654,0,0,1-.284.491,2.7,2.7,0,0,1-.74.419,4.529,4.529,0,0,1-.941.259,2.63,2.63,0,0,0-.088.652.964.964,0,0,0,.2.652.708.708,0,0,0,.569.233,1.15,1.15,0,0,0,.905-.4,3.676,3.676,0,0,0,.579-.9c.01-.021.026-.057.052-.114s.047-.083.067-.083c.036,0,.052.036.052.109Zm-.807-1.427a.586.586,0,0,0-.279-.067.9.9,0,0,0-.528.181,1.614,1.614,0,0,0-.424.434,1.631,1.631,0,0,0-.222.45,2.791,2.791,0,0,0,.7-.186,3.128,3.128,0,0,0,.621-.331q.248-.178.248-.295a.2.2,0,0,0-.119-.181Z" transform="translate(-75.557 -125.395)" fill="#f695c1"/>
        <path id="Path_1926" data-name="Path 1926" d="M176.29,130.275a1.864,1.864,0,0,1-.595.631,1.5,1.5,0,0,1-.874.264.892.892,0,0,1-.719-.269.971.971,0,0,1-.233-.667,3.6,3.6,0,0,1,.129-.864,3.482,3.482,0,0,1,.357-.921c.01-.021.052-.093.119-.212a.808.808,0,0,1,.238-.279.435.435,0,0,1,.274-.1.24.24,0,0,1,.119.031.1.1,0,0,1,.057.083c0,.01-.016.031-.041.067s-.047.062-.062.083a3.45,3.45,0,0,0-.4.584,4.378,4.378,0,0,0-.316.729,2.567,2.567,0,0,0-.114.791c0,.383.233.574.693.574a1.07,1.07,0,0,0,.605-.186,1.45,1.45,0,0,0,.445-.46.989.989,0,0,0,.166-.5.645.645,0,0,0-.166-.44,2.831,2.831,0,0,0-.455-.4,2.846,2.846,0,0,1-.274-.222.249.249,0,0,1-.088-.145q0-.085.124-.14a.723.723,0,0,1,.29-.057.357.357,0,0,1,.124.01.039.039,0,0,1,.031.041.106.106,0,0,1-.026.047.109.109,0,0,0-.026.057c0,.016.047.062.145.145a3.316,3.316,0,0,1,.486.486.912.912,0,0,1,.2.579A1.383,1.383,0,0,1,176.29,130.275Z" transform="translate(-85.952 -125.636)" fill="#f695c1"/>
        <path id="Path_1927" data-name="Path 1927" d="M188.653,130.963a.248.248,0,0,1-.181.062c-.1,0-.186-.1-.264-.305a2.39,2.39,0,0,1-.15-.631c-.021-.207-.036-.626-.041-1.262,0-.1-.005-.2-.005-.305s0-.191-.005-.264a10.682,10.682,0,0,1-.574,1.138,8.308,8.308,0,0,1-.729,1.091c-.243.305-.445.455-.6.455a.312.312,0,0,1-.315-.253,3.014,3.014,0,0,1-.078-.8,5.956,5.956,0,0,1,.134-1.164,4.145,4.145,0,0,1,.305-.993.731.731,0,0,1,.124-.207.161.161,0,0,1,.114-.057c.119,0,.181.026.181.072a.556.556,0,0,1-.072.165,4.613,4.613,0,0,0-.341.869,5.047,5.047,0,0,0-.145,1.36c0,.383.052.574.16.574q.186,0,.512-.419a7.7,7.7,0,0,0,.641-.993,9.519,9.519,0,0,0,.486-1.009,3.026,3.026,0,0,0,.129-.45c.016-.083.031-.14.041-.176s.031-.052.052-.052a.314.314,0,0,1,.176.067.172.172,0,0,1,.093.14c0,.233.01.631.026,1.19s.036.952.062,1.169a1.527,1.527,0,0,0,.1.44,1.041,1.041,0,0,0,.15.248.373.373,0,0,1,.072.114.231.231,0,0,1-.067.181Z" transform="translate(-91.668 -125.419)" fill="#f695c1"/>
        <path id="Path_1928" data-name="Path 1928" d="M200.752,127.985a.254.254,0,0,1-.155.083.151.151,0,0,1-.1-.041.686.686,0,0,1-.1-.124.52.52,0,0,0-.134-.124.312.312,0,0,0-.171-.052c-.14,0-.326.186-.564.553a7.968,7.968,0,0,0-.693,1.4c0,.109.016.253.026.419s.021.295.026.378l.021.29a.384.384,0,0,1-.041.176.17.17,0,0,1-.16.078c-.083,0-.134-.109-.16-.331a8.673,8.673,0,0,1-.041-.962c0-.109-.01-.259-.01-.455s-.01-.434-.021-.709c-.016-.414-.021-.714-.021-.89,0-.109.067-.165.2-.165a.139.139,0,0,1,.15.1,2.128,2.128,0,0,1,.026.4v1.153a5.561,5.561,0,0,1,.471-.962,3.016,3.016,0,0,1,.5-.621.706.706,0,0,1,.429-.212.7.7,0,0,1,.305.072.6.6,0,0,1,.233.186.367.367,0,0,1,.088.212.245.245,0,0,1-.088.15Z" transform="translate(-97.819 -125.399)" fill="#f695c1"/>
        <path id="Path_1929" data-name="Path 1929" d="M211.941,130.459a1.826,1.826,0,0,1-.678.471,2.218,2.218,0,0,1-.874.176,1.058,1.058,0,0,1-.419-.057.181.181,0,0,1-.109-.16c0-.041.057-.119.165-.228s.186-.166.222-.166c.057,0,.088.01.088.036s-.01.036-.036.057-.036.036-.036.052.031.041.093.057a.7.7,0,0,0,.222.031,1.7,1.7,0,0,0,.61-.114,1.357,1.357,0,0,0,.5-.295.525.525,0,0,0,.2-.383.4.4,0,0,0-.124-.31.767.767,0,0,0-.305-.171q-.186-.054-.621-.155c-.321-.072-.564-.134-.745-.191a1.25,1.25,0,0,1-.424-.212.385.385,0,0,1-.16-.321.827.827,0,0,1,.341-.636,2.6,2.6,0,0,1,.781-.455,2.179,2.179,0,0,1,.683-.165c.16,0,.248.047.248.145a.422.422,0,0,1-.057.191.2.2,0,0,1-.176.1.167.167,0,0,1-.093-.031.2.2,0,0,0-.1-.031,1.783,1.783,0,0,0-.455.093,1.7,1.7,0,0,0-.564.284.55.55,0,0,0-.253.455.281.281,0,0,0,.2.259,4.946,4.946,0,0,0,.74.207.588.588,0,0,0,.129.031.618.618,0,0,1,.114.026,3.483,3.483,0,0,1,.853.295.54.54,0,0,1,.295.5.905.905,0,0,1-.259.61Z" transform="translate(-103.159 -125.375)" fill="#f695c1"/>
        <path id="Path_1930" data-name="Path 1930" d="M224.268,129.144a1.961,1.961,0,0,1-.191.574,2.549,2.549,0,0,1-.579.817,1.3,1.3,0,0,1-.952.378,1.1,1.1,0,0,1-.776-.29,1.162,1.162,0,0,1-.31-.89,2.63,2.63,0,0,1,.259-1.117,2.584,2.584,0,0,1,.683-.905,1.349,1.349,0,0,1,.869-.352.839.839,0,0,1,.455.119.386.386,0,0,1,.186.347.654.654,0,0,1-.284.491,2.7,2.7,0,0,1-.74.419,4.529,4.529,0,0,1-.941.259,2.63,2.63,0,0,0-.088.652.964.964,0,0,0,.2.652.708.708,0,0,0,.569.233,1.15,1.15,0,0,0,.905-.4,3.676,3.676,0,0,0,.579-.9c.01-.021.026-.057.052-.114s.047-.083.067-.083c.036,0,.052.036.052.109Zm-.807-1.427a.586.586,0,0,0-.279-.067.9.9,0,0,0-.528.181,1.613,1.613,0,0,0-.424.434,1.631,1.631,0,0,0-.222.45,2.791,2.791,0,0,0,.7-.186,3.128,3.128,0,0,0,.621-.331q.248-.178.248-.295a.2.2,0,0,0-.119-.181Z" transform="translate(-108.928 -125.395)" fill="#f695c1"/>
        <path id="Path_1931" data-name="Path 1931" d="M234.345,129.264a.553.553,0,0,1-.212.041c-.057,0-.114-.067-.166-.207a1.9,1.9,0,0,1-.078-.626c0-.543.016-1.205.026-1.976s.021-1.355.031-1.743a1.109,1.109,0,0,1,.078-.393.251.251,0,0,1,.243-.181.081.081,0,0,1,.078.062,1.136,1.136,0,0,1,.016.233v.186q-.132,1.908-.129,3.713a1.352,1.352,0,0,0,.1.491c.067.176.1.264.1.274a.128.128,0,0,1-.093.114Z" transform="translate(-114.929 -123.859)" fill="#f695c1"/>
        <path id="Path_1932" data-name="Path 1932" d="M245.2,126.932a.457.457,0,0,0-.119.093,4.279,4.279,0,0,0-.7,1.226,9.553,9.553,0,0,0-.512,1.722c-.016.072-.041.217-.072.434l-.036.253a.3.3,0,0,1-.1.181.426.426,0,0,1-.264.067,1.465,1.465,0,0,1-.248-.44c-.14-.295-.284-.605-.44-.946l-.31-.683c-.186-.409-.347-.729-.471-.962s-.217-.347-.274-.347a.048.048,0,0,0-.047.036c-.01.026-.026.036-.041.036a.074.074,0,0,1-.062-.031.122.122,0,0,1-.026-.067.515.515,0,0,1,.1-.248c.067-.1.14-.15.207-.15a.17.17,0,0,1,.109.031.412.412,0,0,1,.067.067.247.247,0,0,1,.041.057,7.549,7.549,0,0,1,.6,1.143c.1.217.352.786.755,1.7l.165.383a4.427,4.427,0,0,1,.072-.61,10.263,10.263,0,0,1,.476-1.7,5.688,5.688,0,0,1,.745-1.407.98.98,0,0,1,.14-.16.207.207,0,0,1,.14-.047c.026,0,.062.036.114.114a.36.36,0,0,1,.078.15c0,.026-.031.057-.1.1Z" transform="translate(-118.594 -125.013)" fill="#f695c1"/>
        <path id="Path_1933" data-name="Path 1933" d="M257.848,129.144a1.961,1.961,0,0,1-.191.574,2.549,2.549,0,0,1-.579.817,1.3,1.3,0,0,1-.952.378,1.1,1.1,0,0,1-.776-.29,1.162,1.162,0,0,1-.31-.89,2.63,2.63,0,0,1,.259-1.117,2.584,2.584,0,0,1,.683-.905,1.349,1.349,0,0,1,.869-.352.839.839,0,0,1,.455.119.386.386,0,0,1,.186.347.654.654,0,0,1-.284.491,2.7,2.7,0,0,1-.74.419,4.529,4.529,0,0,1-.941.259,2.629,2.629,0,0,0-.088.652.964.964,0,0,0,.2.652.708.708,0,0,0,.569.233,1.15,1.15,0,0,0,.905-.4,3.674,3.674,0,0,0,.579-.9c.01-.021.026-.057.052-.114s.047-.083.067-.083c.036,0,.052.036.052.109Zm-.807-1.427a.586.586,0,0,0-.279-.067.9.9,0,0,0-.528.181,1.613,1.613,0,0,0-.424.434,1.631,1.631,0,0,0-.222.45,2.791,2.791,0,0,0,.7-.186,3.128,3.128,0,0,0,.621-.331q.248-.178.248-.295a.2.2,0,0,0-.119-.181Z" transform="translate(-125.141 -125.395)" fill="#f695c1"/>
        <path id="Path_1934" data-name="Path 1934" d="M269.451,130.459a1.825,1.825,0,0,1-.677.471,2.218,2.218,0,0,1-.874.176,1.058,1.058,0,0,1-.419-.057.181.181,0,0,1-.109-.16c0-.041.057-.119.165-.228s.186-.166.222-.166c.057,0,.088.01.088.036s-.01.036-.036.057-.036.036-.036.052.031.041.093.057a.7.7,0,0,0,.222.031,1.7,1.7,0,0,0,.61-.114,1.357,1.357,0,0,0,.5-.295.525.525,0,0,0,.2-.383.4.4,0,0,0-.124-.31.767.767,0,0,0-.305-.171q-.186-.054-.621-.155c-.321-.072-.564-.134-.745-.191a1.25,1.25,0,0,1-.424-.212.385.385,0,0,1-.16-.321.827.827,0,0,1,.341-.636,2.6,2.6,0,0,1,.781-.455,2.179,2.179,0,0,1,.683-.165c.16,0,.248.047.248.145a.422.422,0,0,1-.057.191.2.2,0,0,1-.176.1.167.167,0,0,1-.093-.031.2.2,0,0,0-.1-.031,1.783,1.783,0,0,0-.455.093,1.7,1.7,0,0,0-.564.284.55.55,0,0,0-.253.455.281.281,0,0,0,.2.259,4.945,4.945,0,0,0,.74.207.587.587,0,0,0,.129.031.618.618,0,0,1,.114.026,3.483,3.483,0,0,1,.853.295.54.54,0,0,1,.295.5.905.905,0,0,1-.259.61Z" transform="translate(-130.925 -125.375)" fill="#f695c1"/>
        <path id="Path_1935" data-name="Path 1935" d="M291.38,127.123a1.135,1.135,0,0,1-.383.1c-.445.078-.693.119-.745.129l-.471.078c0,.253,0,.512.01.791s.016.517.031.724a2.757,2.757,0,0,0,.1.646c.047.15.072.233.078.253a.178.178,0,0,1-.088.134.315.315,0,0,1-.171.062.112.112,0,0,1-.072-.026.206.206,0,0,1-.052-.083,1.559,1.559,0,0,1-.083-.378c-.026-.186-.047-.388-.062-.61-.016-.2-.026-.429-.031-.693s-.01-.517-.01-.765c-.269.041-.548.1-.833.16a3.861,3.861,0,0,1-.455.078.259.259,0,0,1-.16-.052.152.152,0,0,1-.078-.14.12.12,0,0,1,.067-.124.55.55,0,0,1,.217-.031,1.992,1.992,0,0,0,.321-.041c.14-.026.228-.047.269-.057l.657-.124c0-.1,0-.233-.016-.4-.01-.222-.016-.393-.016-.507,0-.186.005-.336.016-.44a1.1,1.1,0,0,1,.067-.279.209.209,0,0,1,.217-.145.129.129,0,0,1,.088.021.107.107,0,0,1,.021.078,1.9,1.9,0,0,1-.036.253,3.24,3.24,0,0,0-.036.559c0,.176,0,.378.016.6v.2c.222-.031.652-.124,1.3-.269.041-.01.072-.041.1-.1s.052-.088.083-.088a.23.23,0,0,1,.16.088.274.274,0,0,1,.083.186.206.206,0,0,1-.1.186Z" transform="translate(-141.01 -124.443)" fill="#f695c1"/>
        <path id="Path_1936" data-name="Path 1936" d="M303.33,130.275a1.864,1.864,0,0,1-.595.631,1.5,1.5,0,0,1-.874.264.893.893,0,0,1-.719-.269.971.971,0,0,1-.233-.667,3.6,3.6,0,0,1,.129-.864,3.485,3.485,0,0,1,.357-.921c.01-.021.052-.093.119-.212a.808.808,0,0,1,.238-.279.435.435,0,0,1,.274-.1.24.24,0,0,1,.119.031.1.1,0,0,1,.057.083c0,.01-.016.031-.041.067s-.047.062-.062.083a3.452,3.452,0,0,0-.4.584,4.378,4.378,0,0,0-.315.729,2.568,2.568,0,0,0-.114.791c0,.383.233.574.693.574a1.07,1.07,0,0,0,.605-.186,1.45,1.45,0,0,0,.445-.46.989.989,0,0,0,.166-.5.645.645,0,0,0-.166-.44,2.832,2.832,0,0,0-.455-.4,2.851,2.851,0,0,1-.274-.222.249.249,0,0,1-.088-.145q0-.085.124-.14a.723.723,0,0,1,.29-.057.357.357,0,0,1,.124.01.039.039,0,0,1,.031.041.106.106,0,0,1-.026.047.109.109,0,0,0-.026.057c0,.016.047.062.145.145a3.319,3.319,0,0,1,.486.486.913.913,0,0,1,.2.579A1.383,1.383,0,0,1,303.33,130.275Z" transform="translate(-147.287 -125.636)" fill="#f695c1"/>
        <path id="Path_1937" data-name="Path 1937" d="M315.21,124.093c0,.1,0,.284-.016.569s-.016.564-.016.853c0,.548.01,1.112.036,1.681s.041.946.057,1.127a.592.592,0,0,0,.005.093.5.5,0,0,0,.016.093,2.448,2.448,0,0,1,.031.248c0,.047-.036.093-.1.14a.391.391,0,0,1-.166.067.1.1,0,0,1-.1-.062.493.493,0,0,1-.026-.171c0-.264.005-.543.021-.833v-.4c.005-.134,0-.31,0-.533s-.01-.4-.021-.553a8.959,8.959,0,0,1-.838,1.965c-.31.517-.647.781-1.009.781a.505.505,0,0,1-.419-.233,1.115,1.115,0,0,1-.171-.667,2.53,2.53,0,0,1,.388-1.246,5.35,5.35,0,0,1,.884-1.159c.331-.321.574-.486.734-.486s.233.052.233.15a.54.54,0,0,1-.067.238,1.783,1.783,0,0,1-.15.243c-.052.072-.088.109-.1.109a.038.038,0,0,1-.031-.01.034.034,0,0,1-.021-.026.359.359,0,0,1,.036-.124.406.406,0,0,0,.036-.114.129.129,0,0,0-.005-.052c0-.01-.021-.016-.041-.016-.1,0-.284.14-.548.419a4.829,4.829,0,0,0-.709.988,2.252,2.252,0,0,0-.31,1.065.788.788,0,0,0,.072.326.241.241,0,0,0,.238.15c.352,0,.678-.3.983-.895a11.988,11.988,0,0,0,.786-2.033l-.016-.61c-.016-.538-.021-.822-.021-.853a3.612,3.612,0,0,1,.036-.626.51.51,0,0,1,.031-.1q.015-.031.078-.031a.266.266,0,0,1,.145.047.145.145,0,0,1,.072.124l-.016.357Z" transform="translate(-152.878 -123.56)" fill="#f695c1"/>
        <path id="Path_1938" data-name="Path 1938" d="M327.9,130.554a.146.146,0,0,1,.052.088.417.417,0,0,1-.072.2c-.047.072-.1.114-.145.114a.2.2,0,0,1-.186-.15.915.915,0,0,1-.067-.357c0-.114.005-.465.021-1.045v-.274a.278.278,0,0,0-.078-.238c-.217.367-.419.683-.61.957a3.959,3.959,0,0,1-.719.765,1.42,1.42,0,0,1-.91.357.439.439,0,0,1-.357-.145.566.566,0,0,1-.129-.378,1.935,1.935,0,0,1,.259-.791,6.234,6.234,0,0,1,.667-1.019,5.352,5.352,0,0,1,.812-.848,2.471,2.471,0,0,1,.429-.295.674.674,0,0,1,.284-.078.486.486,0,0,1,.238.072.653.653,0,0,1,.212.2.5.5,0,0,1,.088.295.823.823,0,0,1-.124.429l.124-.036c.052,0,.083.062.093.2,0,.078.01.233.021.471s.016.434.021.584.01.315.016.465.01.269.016.357a.19.19,0,0,0,.057.1Zm-1.862-.264a3.316,3.316,0,0,0,.646-.693c.191-.269.4-.6.631-.988a1.271,1.271,0,0,0,.088-.471.416.416,0,0,0-.088-.264.3.3,0,0,0-.243-.114.818.818,0,0,0-.465.248,5.386,5.386,0,0,0-.688.734,5.99,5.99,0,0,0-.6.91,1.651,1.651,0,0,0-.238.709q0,.217.2.217A1.215,1.215,0,0,0,326.04,130.29Z" transform="translate(-158.773 -125.424)" fill="#f695c1"/>
        <path id="Path_1939" data-name="Path 1939" d="M340.148,128.477c-.057.424-.088.662-.093.719-.062.595-.109,1.045-.134,1.355s-.041.59-.041.843a2.047,2.047,0,0,0,.047.491,1.341,1.341,0,0,0,.1.284.572.572,0,0,1,.057.129c0,.041-.041.083-.114.114a.614.614,0,0,1-.238.052c-.062,0-.114-.083-.15-.253a4.222,4.222,0,0,1-.052-.791,10.232,10.232,0,0,1,.078-1.091l.109-1a3.793,3.793,0,0,1-.481.719.8.8,0,0,1-.59.347c-.186,0-.357-.165-.507-.491a4.974,4.974,0,0,1-.352-1.117,5.441,5.441,0,0,1-.129-.91c0-.119.036-.181.109-.181q.163,0,.2.295c.181,1.34.44,2.012.765,2.012a.477.477,0,0,0,.347-.155,2.766,2.766,0,0,0,.352-.481,3.348,3.348,0,0,0,.2-.409c.072-.171.129-.31.166-.419l.052-.729a1.059,1.059,0,0,1,.041-.233.11.11,0,0,1,.114-.067.194.194,0,0,1,.145.083.261.261,0,0,1,.072.16,7,7,0,0,1-.078.724Z" transform="translate(-165.03 -125.467)" fill="#f695c1"/>
        <path id="Path_1940" data-name="Path 1940" d="M350.307,133.612a.306.306,0,0,1-.248-.155,1.467,1.467,0,0,1-.181-.347.981.981,0,0,1-.067-.248.2.2,0,0,1,.078-.15.238.238,0,0,1,.155-.072.085.085,0,0,1,.078.041c.016.026.047.072.088.134a.43.43,0,0,0,.124.165.542.542,0,0,1,.155.269,1.114,1.114,0,0,1,.062.259c0,.072-.078.109-.238.109Z" transform="translate(-170.896 -127.944)" fill="#f695c1"/>
      </g>
    </g>
  </g>
  <g id="go-back-arrow" transform="translate(436.764 -1.315) rotate(40)">
    <path id="Path_2001" data-name="Path 2001" d="M4.385,6.61c-.361.473-.615.559-.615.159V6.043A1.885,1.885,0,0,0,0,6.043V12.5a1.885,1.885,0,0,0,1.885,1.885H8.346a1.885,1.885,0,1,0,0-3.769h-.7c-.385,0-.493-.44-.167-.937A8.094,8.094,0,1,1,14.25,22.214a2.154,2.154,0,0,0,0,4.308A12.4,12.4,0,1,0,4.385,6.61Z" transform="translate(0 0)" fill="#e3e3e3"/>
  </g>
</svg>
