<svg xmlns="http://www.w3.org/2000/svg" width="36.362" height="36.134" viewBox="0 0 36.362 36.134">
  <g id="go-back-arrow" transform="translate(17.048 -1.315) rotate(40)">
    <path id="Path_2001" data-name="Path 2001" d="M4.385,6.61c-.361.473-.615.559-.615.159V6.043A1.885,1.885,0,0,0,0,6.043V12.5a1.885,1.885,0,0,0,1.885,1.885H8.346a1.885,1.885,0,1,0,0-3.769h-.7c-.385,0-.493-.44-.167-.937A8.094,8.094,0,1,1,14.25,22.214a2.154,2.154,0,0,0,0,4.308A12.4,12.4,0,1,0,4.385,6.61Z" transform="translate(0 0)" fill="#e3e3e3"/>
  </g>
</svg>
