<svg id="scale-screen" xmlns="http://www.w3.org/2000/svg" width="20" height="20" viewBox="0 0 20 20">
  <path id="Path_2095" data-name="Path 2095" d="M62.751,61.667h3.737a.27.27,0,0,1,.191.46l-1.407,1.407,9.759,9.814,1.406-1.406a.269.269,0,0,1,.46.191v3.737a.269.269,0,0,1-.269.27H72.891a.27.27,0,0,1-.191-.46l1.406-1.406-7.435-7.492-2.323-2.323-1.406,1.406a.269.269,0,0,1-.46-.191V61.936A.269.269,0,0,1,62.751,61.667Z" transform="translate(-59.676 -58.924)" fill="#b1b0b0"/>
  <path id="Path_2096" data-name="Path 2096" d="M1.568,0H18.432A1.568,1.568,0,0,1,20,1.568V18.432A1.568,1.568,0,0,1,18.432,20H1.568A1.568,1.568,0,0,1,0,18.432V1.568A1.568,1.568,0,0,1,1.568,0ZM1.333,18.432a.235.235,0,0,0,.234.234H18.432a.235.235,0,0,0,.234-.234V1.568a.235.235,0,0,0-.234-.234H1.568a.235.235,0,0,0-.234.234V18.432Z" transform="translate(0 0)" fill="#b1b0b0"/>
</svg>
