<svg xmlns="http://www.w3.org/2000/svg" width="36" height="35.865" viewBox="0 0 36 35.865">
  <g id="desk-bell" transform="translate(0 -0.96)">
    <circle id="Ellipse_72" data-name="Ellipse 72" cx="0.703" cy="0.703" r="0.703" transform="translate(25.562 27.757) rotate(-67.486)" fill="#ffc2cc"/>
    <path id="Path_1495" data-name="Path 1495" d="M232.626,270.122h-1.193V268.77h.819a.817.817,0,1,0,0-1.633H228.98a.817.817,0,0,0,0,1.633h.819v1.351h-1.193a9.205,9.205,0,0,0-9.195,9.195v.013a.817.817,0,0,0,.817.817h4.288v1.638h-2.491a2.616,2.616,0,0,0,0,5.232h17.182a2.616,2.616,0,0,0,0-5.232h-2.491v-1.638H241a.817.817,0,0,0,.817-.817v-.013A9.205,9.205,0,0,0,232.626,270.122Zm7.561,14.282a.981.981,0,0,1-.98.98H222.025a.983.983,0,0,1,0-1.966h17.182A.982.982,0,0,1,240.187,284.4Zm-5.1-2.619H226.15v-1.638h8.933Zm-13.995-3.272a7.573,7.573,0,0,1,7.519-6.758h4.019a7.561,7.561,0,0,1,6.366,3.486H235.9a.817.817,0,0,0,0,1.633h3.882a7.5,7.5,0,0,1,.364,1.638H221.088Z" transform="translate(-207.062 -250.192)" fill="#ffc2cc"/>
    <path id="Path_1496" data-name="Path 1496" d="M12.172,10.974l1,4.247a1.887,1.887,0,0,0,.594.927,2.062,2.062,0,0,0,1.046.49A1.971,1.971,0,0,0,16.855,15.6a1.947,1.947,0,0,0,.112-1.48l-.113-.408,2.939,1.751a1.925,1.925,0,0,0,2.35-.123,2.039,2.039,0,0,0,.584-1.994,1.938,1.938,0,0,0-.657-1.044L13.606,5.785a.6.6,0,0,0-.157-.087L.808,1A.6.6,0,0,0,0,1.559V5.606a5.673,5.673,0,0,0,3.2,5.081l3.974,4.224a2.161,2.161,0,0,0,3.516-2.429l-.973-1.993,2.448.448c0,.013,0,.025.007.038Zm3.644,3.484a.79.79,0,0,1-.053.646.743.743,0,0,1-.456.334.844.844,0,0,1-.98-.521l-.737-3.144,1.782,1.061Zm-7.7-4.509,1.494,3.059A.963.963,0,0,1,8.048,14.09L4,9.783a.6.6,0,0,0-.188-.135A4.471,4.471,0,0,1,1.2,5.6V2.42L12.947,6.789l8.379,6.456a.822.822,0,0,1,.116,1.088.613.613,0,0,1-.468.283.954.954,0,0,1-.557-.172l-7.7-4.587a.6.6,0,0,0-.2-.075L8.767,9.1a.6.6,0,0,0-.646.852Z" fill="#ffc2cc"/>
    <path id="Path_1497" data-name="Path 1497" d="M421.522,157.056a.711.711,0,0,0,.987-.134l1.675-2.2a.7.7,0,0,0-1.121-.854l-1.675,2.2A.7.7,0,0,0,421.522,157.056Z" transform="translate(-391.625 -141.899)" fill="#ffc2cc"/>
    <path id="Path_1498" data-name="Path 1498" d="M388.529,124.236h0a.7.7,0,0,0,.7-.7l.01-3.116a.7.7,0,0,0-.7-.707h0a.7.7,0,0,0-.7.7l-.01,3.116a.7.7,0,0,0,.7.707Z" transform="translate(-360.558 -110.402)" fill="#ffc2cc"/>
    <path id="Path_1499" data-name="Path 1499" d="M453.67,200.769a.7.7,0,0,0-.868-.489l-3,.839a.7.7,0,1,0,.38,1.357l3-.839A.7.7,0,0,0,453.67,200.769Z" transform="translate(-417.696 -185.281)" fill="#ffc2cc"/>
  </g>
</svg>
