<svg xmlns="http://www.w3.org/2000/svg" width="22" height="22" viewBox="0 0 22 22">
  <g id="moon" transform="translate(0 0)">
    <circle id="Ellipse_70" data-name="Ellipse 70" transform="translate(20 2)" fill="#ffc2cc"/>
    <ellipse id="Ellipse_71" data-name="Ellipse 71" cx="1" cy="0.5" rx="1" ry="0.5" transform="translate(20 7)" fill="#ffc2cc"/>
    <path id="Path_1426" data-name="Path 1426" d="M11.043,22a10.987,10.987,0,0,0,10.374-7.492A.644.644,0,0,0,20.4,13.8a7.645,7.645,0,0,1-4.847,1.711A7.78,7.78,0,0,1,7.777,7.777a7.812,7.812,0,0,1,3.665-6.585A.631.631,0,0,0,11.69.467.68.68,0,0,0,11.043,0,11.08,11.08,0,0,0,0,11,11.08,11.08,0,0,0,11.043,22Z" fill="#ffc2cc"/>
    <path id="Path_1427" data-name="Path 1427" d="M272.645,33.91a1.936,1.936,0,0,1,1.934,1.934.645.645,0,0,0,1.289,0A1.936,1.936,0,0,1,277.8,33.91a.645.645,0,0,0,0-1.289,1.973,1.973,0,0,1-1.934-1.977.645.645,0,0,0-1.289,0,1.973,1.973,0,0,1-1.934,1.977.645.645,0,0,0,0,1.289Z" transform="translate(-260.313 -28.711)" fill="#ffc2cc"/>
  </g>
</svg>
