<svg xmlns="http://www.w3.org/2000/svg" width="14" height="18.765" viewBox="0 0 14 18.765">
  <path id="Path_1361" data-name="Path 1361" d="M19.717,17.762V11.349a7.018,7.018,0,0,0-2.191-5.081l.6-1.362a.681.681,0,0,0-.188-.8,9.091,9.091,0,0,0-5.369-1.883A8.215,8.215,0,0,0,7.437,4.1a.681.681,0,0,0-.223.766l.557,1.563a7.016,7.016,0,0,0-2.04,4.925v6.414A2.886,2.886,0,0,0,8.5,20.989a3.057,3.057,0,0,0,2.7-1.428A4.71,4.71,0,0,1,7.961,15.1l-.03-2.057a.681.681,0,0,1,.148-1.355c2.133.234,3.7-.059,4.531-.841A2.111,2.111,0,0,0,13.277,9.3.691.691,0,0,1,14,8.648a.669.669,0,0,1,.636.651,3.186,3.186,0,0,0,.911,2.009,2.4,2.4,0,0,0,1.879.463.68.68,0,0,1,.749.606.693.693,0,0,1-.793.76l.011,1.96a4.708,4.708,0,0,1-3.165,4.442,3.022,3.022,0,0,0,2.818,1.441,2.956,2.956,0,0,0,2.67-3.217ZM14.814,5.7a.309.309,0,0,1-.309.309H13.487V7.014a.309.309,0,0,1-.309.309h-.91a.309.309,0,0,1-.309-.309V6.007H10.943a.309.309,0,0,1-.309-.309V4.8a.309.309,0,0,1,.309-.309H11.96v-1a.309.309,0,0,1,.309-.309h.91a.309.309,0,0,1,.309.309v1H14.5a.309.309,0,0,1,.309.309Z" transform="translate(-5.723 -2.226)" fill="#fbfbfb"/>
</svg>
