<svg xmlns="http://www.w3.org/2000/svg" width="24.632" height="29" viewBox="0 0 24.632 29">
  <g id="checklist" transform="translate(-38.558 0)">
    <path id="パス_1532" data-name="パス 1532" d="M225.736,166.453a.425.425,0,0,0-.425-.425h-5.319a.425.425,0,0,0,0,.85h5.319A.425.425,0,0,0,225.736,166.453Z" transform="translate(-170.758 -156.624)" fill="#ffc2cc"/>
    <path id="パス_1533" data-name="パス 1533" d="M108.973,243.091a1.127,1.127,0,0,0,1.126,1.126h2.522a1.127,1.127,0,0,0,1.126-1.126v-2.51l.395-.395a.425.425,0,1,0-.6-.6l-.158.158a1.12,1.12,0,0,0-.762-.3H110.1a1.127,1.127,0,0,0-1.126,1.126v2.522Zm.85-2.522a.276.276,0,0,1,.276-.276h2.522a.274.274,0,0,1,.16.052l-1.306,1.306-.3-.3a.425.425,0,0,0-.6.6l.6.6a.425.425,0,0,0,.6,0l1.122-1.122v1.66a.276.276,0,0,1-.276.276H110.1a.276.276,0,0,1-.276-.276V240.57Z" transform="translate(-66.427 -225.882)" fill="#ffc2cc"/>
    <path id="パス_1534" data-name="パス 1534" d="M219.993,274.08a.425.425,0,0,0,0,.85h1.943a.425.425,0,1,0,0-.85Z" transform="translate(-170.758 -258.556)" fill="#ffc2cc"/>
    <path id="パス_1535" data-name="パス 1535" d="M108.973,351.141a1.127,1.127,0,0,0,1.126,1.126h2.522a1.127,1.127,0,0,0,1.126-1.126V348.62a1.127,1.127,0,0,0-1.126-1.126H110.1a1.127,1.127,0,0,0-1.126,1.126Zm.85-2.522a.276.276,0,0,1,.276-.276h2.522a.276.276,0,0,1,.276.276v2.522a.276.276,0,0,1-.276.276H110.1a.276.276,0,0,1-.276-.276Z" transform="translate(-66.427 -327.812)" fill="#ffc2cc"/>
    <path id="パス_1536" data-name="パス 1536" d="M63.19,9.937a1.876,1.876,0,0,0-.535-1.289,1.856,1.856,0,0,0-2.689.112V3.6a1.751,1.751,0,0,0-1.749-1.749H54.176V1.012A1.013,1.013,0,0,0,53.163,0h-7.8a1.014,1.014,0,0,0-1.012,1.012v.835H40.307A1.751,1.751,0,0,0,38.558,3.6V27.251A1.751,1.751,0,0,0,40.307,29H58.218a1.751,1.751,0,0,0,1.749-1.749v-11.3a.425.425,0,1,0-.85,0v11.3a.9.9,0,0,1-.9.9H40.307a.9.9,0,0,1-.9-.9V3.6a.9.9,0,0,1,.9-.9h2.5v.886a1.815,1.815,0,0,0,2.106,1.765l3.919-.7a2.425,2.425,0,0,1,.851,0l3.928.7a1.821,1.821,0,0,0,2.106-1.765V2.7h1.707V11.3l-7.1,7.1a3.208,3.208,0,0,0-.929,1.484l-.571,2.069c-.016.181,0,.6.522.522l2.069-.57A3.258,3.258,0,0,0,52.9,20.98l4.523-4.523V26.35a.107.107,0,0,1-.107.107H41.208a.107.107,0,0,1-.107-.107V4.275a.425.425,0,0,0-.85,0V26.35a.958.958,0,0,0,.957.957h16.11a.958.958,0,0,0,.957-.957V15.607l4.381-4.381h0a1.9,1.9,0,0,0,.534-1.288ZM45.2,1.012A.163.163,0,0,1,45.362.85h7.8a.163.163,0,0,1,.163.163v.835H45.2Zm9.669,2.57a.962.962,0,0,1-1.108.928l-3.928-.7a3.272,3.272,0,0,0-1.149,0l-3.919.7a.962.962,0,0,1-1.108-.928V2.7H54.868Zm7.187,7.042L60.8,11.88,59.425,10.5,60.68,9.249a.973.973,0,0,1,1.375,1.375ZM52.6,20.079,51.226,18.7l7.6-7.6L60.2,12.481ZM58.275,2.7a.9.9,0,0,1,.843.9V9.61l-.843.843ZM50.215,20.112a2.134,2.134,0,0,1,.417-.8l1.36,1.36a6.693,6.693,0,0,1-2.149.789Z" fill="#ffc2cc"/>
    <path id="パス_1537" data-name="パス 1537" d="M114.141,131.227a.425.425,0,0,0-.6,0l-.175.175a1.12,1.12,0,0,0-.744-.283H110.1a1.127,1.127,0,0,0-1.126,1.126v2.522a1.127,1.127,0,0,0,1.126,1.126h2.522a1.127,1.127,0,0,0,1.126-1.126v-2.522c0-.007,0-.014,0-.021l.4-.4A.425.425,0,0,0,114.141,131.227Zm-1.244,3.539a.276.276,0,0,1-.276.276H110.1a.276.276,0,0,1-.276-.276v-2.522a.276.276,0,0,1,.276-.276h2.522a.273.273,0,0,1,.139.039l-1.285,1.285-.3-.3a.425.425,0,1,0-.6.6l.6.6a.425.425,0,0,0,.6,0l1.122-1.122Z" transform="translate(-66.427 -123.677)" fill="#ffc2cc"/>
  </g>
</svg>
