<svg xmlns="http://www.w3.org/2000/svg" width="32.01" height="19.02" viewBox="0 0 32.01 19.02">
  <g id="follower" transform="translate(0.005 -7.41)">
    <path id="Path_1385" data-name="Path 1385" d="M16,18.07a5.33,5.33,0,1,1,5.33-5.33A5.33,5.33,0,0,1,16,18.07Zm0-8.53a3.2,3.2,0,1,0,3.2,3.2A3.2,3.2,0,0,0,16,9.54Z" fill="#ffc2cc"/>
    <path id="Path_1386" data-name="Path 1386" d="M26.67,19.14a4.27,4.27,0,1,1,4.27-4.27,4.27,4.27,0,0,1-4.27,4.27Zm0-6.4a2.13,2.13,0,1,0,2.13,2.13,2.13,2.13,0,0,0-2.13-2.13Z" fill="#ffc2cc"/>
    <path id="Path_1387" data-name="Path 1387" d="M5.33,19.14A4.27,4.27,0,1,1,9.6,14.87a4.27,4.27,0,0,1-4.27,4.27Zm0-6.4a2.13,2.13,0,1,0,2.13,2.13A2.13,2.13,0,0,0,5.33,12.74Z" fill="#ffc2cc"/>
    <path id="Path_1388" data-name="Path 1388" d="M22.4,26.41a1.07,1.07,0,0,1-1.06-1,3.7,3.7,0,0,0-3.69-3.34h-3.3a3.7,3.7,0,0,0-3.69,3.34,1.07,1.07,0,0,1-2.12-.21A5.82,5.82,0,0,1,14.35,20h3.3a5.82,5.82,0,0,1,5.81,5.26,1.07,1.07,0,0,1-1,1.17Z" fill="#ffc2cc"/>
    <path id="Path_1389" data-name="Path 1389" d="M30.93,25.69a1.07,1.07,0,0,1-1.06-1,2.1,2.1,0,0,0-2.11-1.9h-2.2a2.25,2.25,0,0,0-.62.09,1.07,1.07,0,1,1-.61-2,4.38,4.38,0,0,1,1.23-.18h2.2A4.23,4.23,0,0,1,32,24.52a1.07,1.07,0,0,1-1,1.17Z" fill="#ffc2cc"/>
    <path id="Path_1390" data-name="Path 1390" d="M1.07,25.69H1a1.07,1.07,0,0,1-1-1.17A4.23,4.23,0,0,1,4.23,20.7h2.2a4.38,4.38,0,0,1,1.23.18,1.07,1.07,0,1,1-.61,2,2.25,2.25,0,0,0-.62-.09H4.23a2.1,2.1,0,0,0-2.11,1.9,1.07,1.07,0,0,1-1.05,1Z" fill="#ffc2cc"/>
  </g>
</svg>
