<svg xmlns="http://www.w3.org/2000/svg" width="303.996" height="91.745" viewBox="0 0 303.996 91.745">
  <g id="arrow-up" transform="translate(-662.002 -1525)">
    <g id="arrow-up-2" data-name="arrow-up" transform="translate(662.002 1525)">
      <path id="パス_1958" data-name="パス 1958" d="M80.565,13.471a11.436,11.436,0,0,1-3.36,8.111L51.394,47.394a11.47,11.47,0,0,1-16.223,0L9.36,21.583A11.471,11.471,0,0,1,25.583,5.36l17.7,17.7,17.7-17.7a11.472,11.472,0,0,1,19.583,8.111Z" transform="translate(-3.129 38.136)" fill="#fbe1e8"/>
      <path id="パス_1959" data-name="パス 1959" d="M46.943,24.472v47.32a11.472,11.472,0,0,1-22.943,0V24.472a11.472,11.472,0,0,1,22.943,0Z" transform="translate(4.682 -10.146)" fill="#fbe1e8"/>
      <path id="パス_1960" data-name="パス 1960" d="M84.3,51.631a14.243,14.243,0,0,1-4.2,10.139L54.287,87.581a14.406,14.406,0,0,1-20.279,0L8.2,61.771A14.339,14.339,0,0,1,18.337,37.292a15.093,15.093,0,0,1,11.472,5.532V14.349a14.339,14.339,0,0,1,28.679,0V42.824c5.237-6.568,15.7-7.518,21.611-1.332a14.245,14.245,0,0,1,4.2,10.139Zm-74.561,0a8.579,8.579,0,0,0,2.516,6.084L38.064,83.526a8.644,8.644,0,0,0,12.167,0L76.043,57.715A8.6,8.6,0,1,0,63.876,45.548l-6.229,6.228a2.887,2.887,0,0,1-4.9-2.028v-35.4a8.6,8.6,0,0,0-17.207,0v35.4a2.887,2.887,0,0,1-4.9,2.028c-3.117-2.74-7.529-9.22-12.312-8.748a8.664,8.664,0,0,0-8.6,8.6Z" transform="translate(-3.998 -0.01)" fill="#f4afbc"/>
    </g>
    <g id="arrow-up-3" data-name="arrow-up" transform="translate(773.85 1525)">
      <path id="パス_1958-2" data-name="パス 1958" d="M80.565,13.471a11.436,11.436,0,0,1-3.36,8.111L51.394,47.394a11.47,11.47,0,0,1-16.223,0L9.36,21.583A11.471,11.471,0,0,1,25.583,5.36l17.7,17.7,17.7-17.7a11.472,11.472,0,0,1,19.583,8.111Z" transform="translate(-3.129 38.136)" fill="#fbe1e8"/>
      <path id="パス_1959-2" data-name="パス 1959" d="M46.943,24.472v47.32a11.472,11.472,0,0,1-22.943,0V24.472a11.472,11.472,0,0,1,22.943,0Z" transform="translate(4.682 -10.146)" fill="#fbe1e8"/>
      <path id="パス_1960-2" data-name="パス 1960" d="M84.3,51.631a14.243,14.243,0,0,1-4.2,10.139L54.287,87.581a14.406,14.406,0,0,1-20.279,0L8.2,61.771A14.339,14.339,0,0,1,18.337,37.292a15.093,15.093,0,0,1,11.472,5.532V14.349a14.339,14.339,0,0,1,28.679,0V42.824c5.237-6.568,15.7-7.518,21.611-1.332a14.245,14.245,0,0,1,4.2,10.139Zm-74.561,0a8.579,8.579,0,0,0,2.516,6.084L38.064,83.526a8.644,8.644,0,0,0,12.167,0L76.043,57.715A8.6,8.6,0,1,0,63.876,45.548l-6.229,6.228a2.887,2.887,0,0,1-4.9-2.028v-35.4a8.6,8.6,0,0,0-17.207,0v35.4a2.887,2.887,0,0,1-4.9,2.028c-3.117-2.74-7.529-9.22-12.312-8.748a8.664,8.664,0,0,0-8.6,8.6Z" transform="translate(-3.998 -0.01)" fill="#f4afbc"/>
    </g>
    <g id="arrow-up-4" data-name="arrow-up" transform="translate(885.697 1525)">
      <path id="パス_1958-3" data-name="パス 1958" d="M80.565,13.471a11.436,11.436,0,0,1-3.36,8.111L51.394,47.394a11.47,11.47,0,0,1-16.223,0L9.36,21.583A11.471,11.471,0,0,1,25.583,5.36l17.7,17.7,17.7-17.7a11.472,11.472,0,0,1,19.583,8.111Z" transform="translate(-3.129 38.136)" fill="#fbe1e8"/>
      <path id="パス_1959-3" data-name="パス 1959" d="M46.943,24.472v47.32a11.472,11.472,0,0,1-22.943,0V24.472a11.472,11.472,0,0,1,22.943,0Z" transform="translate(4.682 -10.146)" fill="#fbe1e8"/>
      <path id="パス_1960-3" data-name="パス 1960" d="M84.3,51.631a14.243,14.243,0,0,1-4.2,10.139L54.287,87.581a14.406,14.406,0,0,1-20.279,0L8.2,61.771A14.339,14.339,0,0,1,18.337,37.292a15.093,15.093,0,0,1,11.472,5.532V14.349a14.339,14.339,0,0,1,28.679,0V42.824c5.237-6.568,15.7-7.518,21.611-1.332a14.245,14.245,0,0,1,4.2,10.139Zm-74.561,0a8.579,8.579,0,0,0,2.516,6.084L38.064,83.526a8.644,8.644,0,0,0,12.167,0L76.043,57.715A8.6,8.6,0,1,0,63.876,45.548l-6.229,6.228a2.887,2.887,0,0,1-4.9-2.028v-35.4a8.6,8.6,0,0,0-17.207,0v35.4a2.887,2.887,0,0,1-4.9,2.028c-3.117-2.74-7.529-9.22-12.312-8.748a8.664,8.664,0,0,0-8.6,8.6Z" transform="translate(-3.998 -0.01)" fill="#f4afbc"/>
    </g>
  </g>
</svg>
