<svg xmlns="http://www.w3.org/2000/svg" width="645" height="492.352" viewBox="0 0 645 492.352">
  <g id="グループ_1213" data-name="グループ 1213" transform="translate(-548 -329.65)">
    <text id="専門家への_お困りごとの無料相談_が_できるサイトです" data-name="専門家への
　お困りごとの無料相談 が
                                             できるサイトです" transform="translate(548 625.002)" fill="#7b7b7b" font-size="29" font-family="SourceHanSans-Bold, Source Han Sans" font-weight="700"><tspan letter-spacing="0.05em"><tspan x="0" y="34">専門家への</tspan></tspan><tspan fill="#4c4948" font-size="34" font-family="SourceHanSans-Heavy, Source Han Sans" font-weight="800"><tspan x="0" y="85" letter-spacing="0.05em">　</tspan><tspan y="85" text-decoration="underline" letter-spacing="0.05em">お困りごとの無料相談</tspan><tspan y="85" letter-spacing="0.05em"> </tspan><tspan y="85" font-family="SourceHanSans-Bold, Source Han Sans" font-weight="700">が</tspan></tspan><tspan fill="#4c4948" font-size="34"><tspan x="0" y="136" xml:space="preserve">                                             できるサイト</tspan><tspan y="136" fill="#7b7b7b" font-size="29">です</tspan></tspan></text>
    <g id="Logo_LS" transform="translate(647.648 329.65)">
      <text id="在宅医療_と_介護を支える" data-name="在宅医療 と 介護を支える" transform="translate(0 18)" fill="#f1a1b4" font-size="17" font-family="YuGothicUI-Regular, Yu Gothic UI" letter-spacing="0.3em" opacity="0.95"><tspan x="0" y="0">在宅医療</tspan><tspan y="0" font-family="SegoeUI, Segoe UI"> </tspan><tspan y="0" font-size="16" letter-spacing="0.2em">と</tspan><tspan y="0" font-size="16" font-family="SegoeUI, Segoe UI" letter-spacing="0.2em"> </tspan><tspan y="0">介</tspan><tspan y="0" letter-spacing="0.26em">護を</tspan><tspan y="0" letter-spacing="0.23em">支</tspan><tspan y="0" letter-spacing="0.11em">え</tspan><tspan y="0" letter-spacing="0.24em">る</tspan></text>
      <g id="グループ_956" data-name="グループ 956" transform="translate(2.311 34.95)">
        <path id="_パス_1380-2" d="M31.6,96.065H2.72V40.77H8.745V90.915H31.6Z" transform="translate(-2.72 -37.131)" fill="#f1a1b4"/>
        <path id="_パス_1381-2" d="M57.027,49.655a3.91,3.91,0,0,1-3.917-3.9v-.229a3.957,3.957,0,0,1,7.911-.178v.17a3.852,3.852,0,0,1-3.544,4.13,2.658,2.658,0,0,1-.45,0Zm3.051,46.517H54.053V56.614h6.025V96.163Z" transform="translate(-10.29 -37.238)" fill="#f1a1b4"/>
        <path id="_パス_1382-2" d="M83.729,55.865c0-4.937,0-11.4,4.351-15.823a13.055,13.055,0,0,1,9.144-3.552,14.56,14.56,0,0,1,5.88,1.164l-1.011,4.716a11.3,11.3,0,0,0-4.572-.943c-6.237,0-7.767,5.8-7.767,12.194v2.252H99.33v4.716H89.753V95.422H83.729V60.589H78.29V55.873h5.439Z" transform="translate(-14.073 -36.488)" fill="#f1a1b4"/>
        <path id="_パス_1383-2" d="M146.457,97a28.6,28.6,0,0,1-12.407,2.464c-11.548,0-18.44-8.124-18.44-19.953,0-12.407,6.968-21.338,17.633-21.338,12.194,0,15.313,11.175,15.313,18.066,0,1.377-.076,2.4-.144,3.34H121.5c.076,10.954,6.314,15.083,13.426,15.083A25.015,25.015,0,0,0,145.3,92.628l1.164,4.351h0Zm-3.849-21.907c.076-5.371-2.175-12.339-9.942-12.339-7.266,0-10.452,6.892-11.03,12.339Z" transform="translate(-19.679 -39.745)" fill="#f1a1b4"/>
        <path id="_パス_1384-2" d="M226.375,47.44a18.772,18.772,0,0,0-9.721-2.541c-7.69,0-10.6,4.716-10.6,8.71,0,5.439,3.34,8.192,10.741,11.319,8.923,3.773,13.494,8.345,13.494,16.256,0,8.778-6.39,15.525-18.287,15.525A25.457,25.457,0,0,1,198.8,93.226l1.674-5.005a22.485,22.485,0,0,0,11.905,3.408c7.4,0,11.752-3.994,11.752-9.942,0-5.439-2.983-8.778-10.163-11.684-8.345-3.119-14-7.979-14-15.6,0-8.421,6.824-14.582,16.91-14.582a22.51,22.51,0,0,1,11.319,2.609l-1.81,5.005h0Z" transform="translate(-32.176 -36.986)" fill="#f1a1b4"/>
        <path id="_パス_1385-2" d="M256.281,50.471l5.948-2.031v9.212h10.231v4.716H262.23V85.227c0,5.005,1.521,7.767,5.371,7.767a11.969,11.969,0,0,0,4.062-.578l.365,4.648a15.233,15.233,0,0,1-5.88.943c-9.577,0-9.874-8.71-9.874-12.917V62.376H250.18V57.66h6.093V50.479Z" transform="translate(-39.895 -38.284)" fill="#f1a1b4"/>
        <path id="_パス_1386-2" d="M319.626,89.229a55.6,55.6,0,0,0,.578,9.432h-5.515L314.1,93.58h-.221A13.752,13.752,0,0,1,302.2,99.528a10.972,10.972,0,0,1-11.54-10.359c-.017-.3-.017-.586-.009-.884,0-9.5,8.277-14.659,22.927-14.582,0-3.34,0-10.886-9-10.886a17.168,17.168,0,0,0-9.653,2.83l-1.453-4.138a22.464,22.464,0,0,1,12.067-3.34c11.175,0,14.081,7.911,14.081,15.746V89.229Zm-5.948-11.1c-7.478,0-16.834,1.088-16.834,9.432,0,5.082,3.2,7.325,6.824,7.325a9.663,9.663,0,0,0,10.01-9.288V78.122Z" transform="translate(-45.974 -39.745)" fill="#f1a1b4"/>
        <path id="_パス_1387-2" d="M364.965,64.21a17,17,0,0,0-2.175-.144c-6.535,0-9.874,6.458-9.874,13.138V98.685H346.9V70.966c0-4.206-.076-8.056-.289-11.829H351.9l.289,7.622h.221a11.837,11.837,0,0,1,10.733-8.489,14.23,14.23,0,0,1,1.81.221v5.736h0Z" transform="translate(-54.381 -39.76)" fill="#f1a1b4"/>
      </g>
      <g id="_グループ_125" transform="translate(324.112 11.115)">
        <path id="_パス_1407" d="M408.507,12.534a.765.765,0,0,0-.1-.2C408.3,12.636,408.507,12.534,408.507,12.534Z" transform="translate(-385.461 -9.024)" fill="#f2a5ba"/>
        <path id="_パス_1408" d="M407.551,16.14l-.051.467.051-.416Z" transform="translate(-385.329 -9.597)" fill="#f2a5ba"/>
        <path id="_パス_1409" d="M406.816,18.1h.051s.263,0,.306-.1h0l-.2-.416h0l.1-.467a1.131,1.131,0,0,0-.467.1h0l.2.416a14.1,14.1,0,0,1-.467,1.547c.2-.153.306-.671.416-1.079h.051Zm.2-.467-.1.357Z" transform="translate(-385.155 -9.742)" fill="#f2a5ba"/>
        <path id="_パス_1410" d="M405.362,20.76h0a.727.727,0,0,1-.1.357c.1-.051,0,.357.153-.357Z" transform="translate(-384.993 -10.291)" fill="#f2a5ba"/>
        <path id="_パス_1412" d="M404.8,22.376V21.96s-.153.416-.153.263c-.1.416,0,.357.153.153Z" transform="translate(-384.894 -10.471)" fill="#f2a5ba"/>
        <path id="_パス_1414" d="M405,22.15l-.1.467s.1,0,0-.2V22.15Z" transform="translate(-384.939 -10.5)" fill="#f2a5ba"/>
        <path id="_パス_1415" d="M405.02,23.136l.051-.153.11-.773-.153.926h0Z" transform="translate(-384.957 -10.509)" fill="#f2a5ba"/>
        <path id="_パス_1417" d="M402.186,26.124s-.263-.153-.051-.2a5.1,5.1,0,0,0-.875.153h.926Z" transform="translate(-384.392 -11.066)" fill="#f2a5ba"/>
        <path id="_パス_1418" d="M400.77,26.261s.263-.051.416-.1A.562.562,0,0,0,400.77,26.261Z" transform="translate(-384.318 -11.101)" fill="#f2a5ba"/>
        <path id="_パス_1424" d="M401.672,26.391s-.467.051-.722.051h.875s.153-.1-.153-.1h0v.051Z" transform="translate(-384.345 -11.129)" fill="#f2a5ba"/>
        <path id="_パス_1428" d="M399.86,26.337a1.25,1.25,0,0,1,.357.051C400.115,26.388,399.86,26.286,399.86,26.337Z" transform="translate(-384.182 -11.127)" fill="#f2a5ba"/>
        <path id="_パス_1430" d="M402.9,26.4a.491.491,0,0,0-.306.1h.306Z" transform="translate(-384.592 -11.138)" fill="#f2a5ba"/>
        <path id="_パス_1431" d="M396.963,26.725s1.139.153.722.263c-.671.051-.569,0-.875-.1.263.153-.875.2-.722.416l.569-.1s-.2.1,0,.1c0-.1.62-.2,1.139-.1.518-.1.153-.467-.263-.671,0,0,0,.1-.518.153h0l-.042.042Z" transform="translate(-383.613 -11.158)" fill="#f2a5ba"/>
        <path id="_パス_1432" d="M397.8,26.493h1.19a5.194,5.194,0,0,1-.722-.153c-.357.051-.416.1-.467.153Z" transform="translate(-383.872 -11.129)" fill="#f2a5ba"/>
        <path id="_パス_1434" d="M402.8,26.82h-.824l.416.153h0c.467,0,.357-.1.416-.153Z" transform="translate(-384.5 -11.201)" fill="#f2a5ba"/>
        <path id="_パス_1435" d="M397.545,26.433l.1-.153-.467.2.357-.051h0Z" transform="translate(-383.779 -11.12)" fill="#f2a5ba"/>
        <path id="_パス_1436" d="M396.295,26.442l.051-.1-.306.051.263.051h0Z" transform="translate(-383.608 -11.129)" fill="#f2a5ba"/>
        <path id="_パス_1437" d="M405.062,45.259l-.1.2.2-.263h-.1Z" transform="translate(-384.948 -13.962)" fill="#f2a5ba"/>
        <path id="_パス_1439" d="M392.46,27.121l.1-.051S392.46,27.07,392.46,27.121Z" transform="translate(-383.07 -11.239)" fill="#f2a5ba"/>
        <path id="_パス_1441" d="M422.106,27.289s-.518.518-.306.357l.569-.416h-.153a5.608,5.608,0,0,1,1.028-.875c.569-.306.467-.153.722-.306,0,0,.1,0,.306-.2l1.241-.875-.926.416c.263-.306,1.028-.722,0-.2.2-.1.467-.2.722-.357a5.161,5.161,0,0,1-.722-.051v-.1a1.491,1.491,0,0,0-.357-.2c-.153,0-.2,0-.671.2a.345.345,0,0,0-.306-.2,2.176,2.176,0,0,0-1.028.263h-1.751a9.233,9.233,0,0,1-1.19.1h0a.831.831,0,0,0-.306-.263,1.269,1.269,0,0,0-.773.263c-.263-.153-1.241-.051-1.589-.306.153.051-.051.1-.357.1-.518-.153-1.139-.357-1.292-.416a.255.255,0,0,1-.153-.051c-.2-.051-.357,0-.977.416h-.722a8.59,8.59,0,0,1-1.139-.1h-.153c-.518-.153-1.241-.306-1.445-.357V23.9h0a3.223,3.223,0,0,0-.051-.569,11.9,11.9,0,0,0-.2-1.343,1.022,1.022,0,0,0-.314-.2h-.263l-.1-.2.1-.416a6.081,6.081,0,0,0,.263-1.912.92.92,0,0,0-.306-.2c-.2,0-.2-.051-.875.357l-.153-.357v-.11a10.956,10.956,0,0,0-.051-1.5.92.92,0,0,0-.306-.2h-.2l.153-.467a5.652,5.652,0,0,0,.518-1.954.92.92,0,0,0-.306-.2,1.1,1.1,0,0,0-.569.153v-.1c-.068-.051-.144-.1-.2-.153l-.1-.2a12.407,12.407,0,0,1-.62-1.19.428.428,0,0,0-.306-.2h-.306a.482.482,0,0,0-.051-.306.488.488,0,0,0-.263-.2.758.758,0,0,0-.467.1h-.059l.2.416-.2.1-.051-.263c0,.153-.416,1.079-.62,1.7a6.054,6.054,0,0,0-.62,2.065.92.92,0,0,0,.306.2c.153,0,.2.051.926-.357a7.744,7.744,0,0,1-.62.671c-.569.569-.977,1.028-1.343,1.445l.1-.153v-.263a2.785,2.785,0,0,0-.153.518c-.824.875-1.028,1.19-1.079,1.394a1.889,1.889,0,0,1-.153.416c.051-.1.153-.263.2-.263h0v.051h.051s.153.2.306.2a6.923,6.923,0,0,0,2.065-.977c-.357.357-.722.671-1.028,1.028-1.028,1.028-1.7,1.649-2.116,2.116h0s-.306.357-.416.467v-.187s-.153.416-.263.416h.1c-.2.263-.153.357,0,.518,0,0,.051.1.1.1h0v.153h0v-.1h.2l-.1.153a.168.168,0,0,0,.153-.1h0s.773-.357,3.246-1.751c1.079-.62,2.575-1.5,2.94-1.649a.333.333,0,0,0,.2-.051.121.121,0,0,0,.1-.051s.1,0,.1.051a1.908,1.908,0,0,0,.153.518l.1-.153a1.536,1.536,0,0,1,.1.62c.357.306-.306-.977,0-.671a2.118,2.118,0,0,0,.153.824c-.357,0-1.079.306-8.3,4.385-1.751,1.028-3.764,2.167-5.209,2.94.306-.357.671-.722.977-1.079,1.751-1.886,2.558-2.957,2.422-3.2a.915.915,0,0,0-.2-.153h-.153s.357-.1-.051-.153h.518a1.955,1.955,0,0,1-.493-.059h-1.028a4.219,4.219,0,0,0,.926,0c-.153.1-.569.153-.416.306-.153.051-.357.2-.671.357h-.051c-.416.263-1.028.569-1.912,1.079-.62.357-1.394.773-1.912,1.079l.153-.569c.357-1.5.416-1.7.357-1.853h.306c.051-.1-.1-.1-.357-.1a.715.715,0,0,0-.2-.153,2.836,2.836,0,0,1,.926-.051c-.306-.153-.153,0-.62-.153.416.263-1.649,0-.977.263a1.89,1.89,0,0,0-.416-.153.4.4,0,0,0,0-.467.428.428,0,0,0-.306-.2,6.04,6.04,0,0,0-1.394.62h-.1l-.263.153-.2.1a1.915,1.915,0,0,0-.875.1c-.467,0,.1-.051-.2-.153l-.467.1-.416-.1-.306-.2h0a4.056,4.056,0,0,1-.62-.357c-.051,0-.1-.1-.2-.1a1.148,1.148,0,0,0-.671.2l-.2.1a1.916,1.916,0,0,1-.306-.2.388.388,0,0,0-.2-.1.758.758,0,0,0-.467.1h-.1l.1.306h-.2l.263.153h-.1s0,.153.1.2v.2h.263c.2.1.467.306.926.62.416.263.875.62,1.028.722.153.153.306.153.569.051.1.051.2.153.306.2a5.8,5.8,0,0,0,.357.926.488.488,0,0,0,.263.2,1.264,1.264,0,0,0,.153.357.427.427,0,0,0,.306.2h.306c.153.153.357.357.671.722s.722.773.773.824a.27.27,0,0,0,.263.153.859.859,0,0,0,.62-.2h0s.518.153,1.079.306h.1c-.2.357-.153.467,0,.62a.336.336,0,0,0,.272.187,1.374,1.374,0,0,0,.518-.1,20.49,20.49,0,0,0,1.8,1.292q0,.263.1.306a.428.428,0,0,0,.306.2,1,1,0,0,0,.416-.051l.62.773c.2.306.467.569.569.722a3.213,3.213,0,0,0-.153.357c0,.051-.051.1-.051.2-.051.2-.1.467-.153.722h0c-1.589,1.853-2.311,2.906-2.167,3.144a.92.92,0,0,0,.306.2c.153,0,.2,0,.773-.263,0,.1.1.051.2,0v.357c-.1,0-.153.153-.2.263-1.028.773-.926.926-.773,1.19,0,.1.1.153.2.2a.407.407,0,0,0,0,.416h.059c-.153.467-.357,1.028-.518,1.445l-.306.824h0c-.306.824-.306.875-.2,1.028h0c0,.263-.1.467-.1.824l-.153.1c-.026.17-.059.348-.1.518a.8.8,0,0,1-.2.518,4.914,4.914,0,0,0-.263.569A27.719,27.719,0,0,0,396.1,44.99c.518-.357,1.079-.722,1.589-1.028a11.412,11.412,0,0,1,1.079-.62c-.467-.1.773-.306.671-.569.153,0,.357-.1.153.1.671-.569,1.19-.62,1.547-1.139.153,0-.1.2,0,.2,0-.051.2-.2.306-.2s-.051.1-.153.263c.722-.518.671-.773.569-.977a1.3,1.3,0,0,0,.824-.62c.153,0,.467-.1,0,.2.263-.153,1.649-.977,1.589-1.139.1,0,.357-.263.416-.306l.62-.416a1.916,1.916,0,0,0,.306-.2h0a.831.831,0,0,0,.306.263,1,1,0,0,0,.416-.051c.467.416.569.467.722.518l.1.1c.357.357.773.824.824.875a.27.27,0,0,0,.263.153.724.724,0,0,0,.416-.1h0a2.679,2.679,0,0,1-.051.518,6.567,6.567,0,0,0-.153,1.912.92.92,0,0,0,.306.2l1.853-.875.153-.1h0s-.263.1.1.357c0,.051.2.153.357.2-.416.518-.357.569-.2.773a.427.427,0,0,0,.306.2c.2,0,.2.051,1.079-.416a1.9,1.9,0,0,1,.467.357c-.1-.153-.153-.306.153-.153a2.8,2.8,0,0,1,.62.518,4.879,4.879,0,0,0,.1,1.5.428.428,0,0,0,.306.2c.2,0,.2.051,1.343-.569.467.263,1.079.62,1.394.773a1.33,1.33,0,0,0,0,.518.428.428,0,0,0,.306.2h.1a.367.367,0,0,0,.306-.1,2.642,2.642,0,0,0,.671.467c-.1-.2-.153-.467-.263-.722h.051s.306-.416.153-.62c0-.051-.1-.1-.153-.153h0s.263-.416.153-.62c0-.051-.1-.1-.153-.153a4.471,4.471,0,0,0,.2-1.589.428.428,0,0,0-.306-.2c-.153,0-.2,0-.773.263-.051-.153-.051-.2-.1-.2l-.085-.127a6.729,6.729,0,0,0-.357-.977,1.466,1.466,0,0,0-.306-.416c0-.2.051-.051.1-.051l-.1-.357c.671-1.139.62-1.19.518-1.394a.428.428,0,0,0-.306-.2,1.1,1.1,0,0,0-.569.153c.1-.306.153-.62.263-.875v-.1a1.33,1.33,0,0,0,.153-.357,2.934,2.934,0,0,0,.2-1.292.428.428,0,0,0-.306-.2,4.327,4.327,0,0,0-1.139.467,4.617,4.617,0,0,0-.357-.875s.051,0,.1.1a8.264,8.264,0,0,1-.569-2.014c0-.153-.1-.306-.1-.467v-.2h-.1v-.1a1.755,1.755,0,0,0,.1-.416h0s.263-.263.2-.416l1.079-.773h0c1.853-1.292,3.764-2.473,5.515-3.663h-.306l.62-.467c.2-.051.306,0-.1.263.153,0,.306-.153.467-.306.1-.153.263-.357.263-.357.62-.357.62-.306.416-.1h0l-.212.042Zm1.8-1.292-.263.153C423.95,25.887,423.908,25.946,423.908,26Zm-27.125,5.77h0s-.153-.263-.306-.263h-.153V31.24h.153a.215.215,0,0,0,.1.2.345.345,0,0,0,.306.2c.357.1.671,0,6.654-3.51.671-.357,1.394-.824,2.065-1.19-.773.569-1.547,1.19-2.218,1.751-2.787,2.218-4.13,3.246-4.742,3.815h0a3.189,3.189,0,0,0-.306-.2s-.1-.1-.153-.1l-.1-.1s-.416-.62-.518-.518a.805.805,0,0,1-.263.875c-.2-.263-.357-.518-.467-.62h0l-.042-.085ZM408.331,22.9a.92.92,0,0,0,.306.2h.2a1.528,1.528,0,0,1,.051.62c.2.518.1-.2.306.306v.153l.1.1h0a.59.59,0,0,0-.263-.1c-.306-.051-.416-.1-6.084,3.2-.773.467-1.589.926-2.422,1.394.773-.62,1.649-1.241,2.422-1.8,3.144-2.32,4.64-3.51,5.362-4.121h0V22.9Zm5.218,8.974v-.153l.875-.569c-.467.357.1.263-.722.722l.263-.416-.467.357h0l.042.051Zm-1.5,1.028h.153c-1.19.62-3.246,1.751-7.011,3.917,1.445-.875,2.94-1.8,4.334-2.634,1.445-.875,2.736-1.649,3.866-2.379l-.153.1-.153.1-.2.153s-.518.357-.926.62v.1h.1Zm.926,5.727a.921.921,0,0,0,.306.2h.2c-.467.263-.977.569-1.649.926l-.722.416a6.647,6.647,0,0,0,.518-.569c.518-.518.875-.926,1.241-1.292,0,.263.051.263.1.306h0Zm-3.348.926s.1.153,0,.153Zm.2,0a.917.917,0,0,0-.2-.1V39.3c.416-.2,1.079-.62,2.218-1.292l.153-.1c-.357.357-.722.773-1.028,1.079-.357.357-.671.722-.926.977-.153-.2-.2-.306-.2-.416h0Zm-2.269-2.838a.255.255,0,0,0-.051-.153h0c1.241-.773,2.422-1.445,3.45-2.014h0a.379.379,0,0,0,.357,0h0c-.357.2-.926.569-1.853,1.079-.62.357-1.343.773-1.8,1.028h0l-.1.051Zm4.895-2.065a.254.254,0,0,0-.051-.153c0-.051-.1-.1-.153-.153h0l.153-.1.1.2V34.6h-.051v.051Zm-.161.518c-.263.824-.263.875-.153,1.028a.345.345,0,0,0,.306.2h.1v.153c-.306.2-.722.416-1.19.722-.306.2-.671.416-1.028.62.178-.246.365-.493.569-.722.824-1.079,1.241-1.649,1.445-1.954h0l-.051-.051Zm1.079,4.844a3.824,3.824,0,0,0-1.292.569l.2-.1c.416-.263.926-.518,1.343-.773l-.306.306Zm.926,2.065a.482.482,0,0,1-.153-.1l.263-.153-.153.263h.042Zm.263-1.351s-.671.357-1.292.722a9.011,9.011,0,0,1,.671-.722l.467-.518s.1.306.153.518Zm-5.413-8.761c-2.787,1.589-5.931,3.408-8.455,4.844,1.954-1.241,4.232-2.677,6.288-3.968a118.794,118.794,0,0,0,10.571-6.909h0a2.132,2.132,0,0,0,.926-.357h0s.153.518.2.773v.1c-2.065,1.139-5.158,2.889-9.645,5.515h.1Zm.306-7.215h0V25.1a.215.215,0,0,0-.1-.2C409.359,24.85,409.461,24.8,409.461,24.748Zm-.153.2c.1.263.2.569.306.824h1.292c-1.19.671-2.838,1.589-5.26,2.991-1.19.671-2.473,1.445-3.663,2.116.62-.518,1.343-1.028,1.954-1.547a66.353,66.353,0,0,0,5.362-4.393h0Zm6.237.629h-.1a2.066,2.066,0,0,1,.722-.1c-1.139.569-3.3,1.8-7.529,4.283-1.853,1.079-4.019,2.32-5.88,3.408.875-.569,1.8-1.19,2.677-1.8,5.005-3.348,7.215-4.895,8.149-5.668a12.5,12.5,0,0,0,1.954-.1ZM406.164,29.5c.824-.467,1.7-.977,2.575-1.5-1.292.875-2.634,1.8-3.866,2.634-3.246,2.167-5.056,3.408-6.084,4.172v-.1h-.051l.306-.2s0-.051-.1-.1v-.1h.1s.2-.2.2-.357c.416-.518.569-.722.518-.875.926-.467,2.736-1.5,6.348-3.612h0l.042.051Zm-7.835,5.558h0l-.1.1v-.1Zm.306,1.241a104.309,104.309,0,0,0,9.687-5.362c-.62.416-1.241.773-1.852,1.19-3.866,2.422-6.441,4.07-8.2,5.158.467-.722.416-.824.306-.977h.06Zm-1.079-.263a.28.28,0,0,0,.1.2v.1l-.2.153v-.2l.1-.2h0ZM396.213,41.4h0l.153-.416s.153.051.153.1v-.467s.051-.306.051-.357c.1,0,.2-.1.306-.153a.692.692,0,0,1,.051-.263c1.7-.824,5.209-2.787,12.738-7.164,2.422-1.394,5.158-2.94,7.478-4.283-2.473,1.547-5.413,3.348-8.1,4.946-7.673,4.691-11.243,6.909-12.891,8.039h.06ZM415.24,30.679a3.1,3.1,0,0,1-.263.306l-.1-.1.357-.2h0Zm-8.3,7.113s-.153-.153-.263-.153h-.1l.263-.153v.1a.345.345,0,0,0,.306.2c.263.051.306.051,2.787-1.394l.671-.357-.416.569a22.052,22.052,0,0,0-1.7,2.379c-.263-.153-.569-.263-.875-.467-.357-.306.153,0,0-.2l-.306-.1-.416-.416h0l.051-.017ZM420.3,25.419l.2.1h.153l.1-.1h.051l-1.139.569-.093-.34a2.691,2.691,0,0,1,.671-.263h0l.042.042Zm-9.687-1.19-.1-.1ZM406.275,13.42h0l-.153.1.1-.2v.1Zm-.62,1.394c.2-.569.357-.977.467-1.292l.1.153s-.1.569-.263.569a1.315,1.315,0,0,1,.263.722l-.467.263-.357.2.263-.62h0Zm-.153,2.881c.518-.518.875-.977,1.19-1.292,0,.051.051.1.1.153,0,.2-.153-.153-.153,0a1.536,1.536,0,0,1,.416.773c-.2,0-.518.2-2.167,1.139h-.1l.722-.722h0v-.051Zm-1.292,3.866-.51.306.722-.722c1.394-1.394,2.218-2.167,2.634-2.677h.357a6.026,6.026,0,0,1,.263.926v.357h0c-.263-.051-.306-.1-3.45,1.751h0l-.017.051ZM400.751,26.8c1.394-.773,2.889-1.649,4.232-2.422-.773.62-1.649,1.241-2.422,1.8a35.9,35.9,0,0,0-5.88,4.691.333.333,0,0,1-.153-.153l.153.153v.1a.6.6,0,0,1-.263-.051v-.153a5.167,5.167,0,0,0-.2-1.394c1.028-.569,2.524-1.394,4.538-2.575h0Zm-5.26,0,.722-.416c-.306.306-.569.62-.824.926-.824.875-1.394,1.5-1.751,1.912h-.263v-.093c-.416-.263-.671-.518-.977-.722.263,0,.416,0,3.144-1.589h0L395.5,26.8Zm-4.589.416c-.357-.467.569.357.306-.051a.77.77,0,0,1-.467-.153l-.357-.153h0s.518-.306.875-.518.773-.467,1.19-.671l-.153.671c-.306,1.394-.357,1.589-.306,1.751-.1-.1-.263-.153-.357-.263,0-.1-.416-.416-.153-.357a1.01,1.01,0,0,1-.518-.263h-.06Zm-.263.221c-.2-.059-.382-.127-.569-.2l-.2-.1.416-.2s.722.416.977.569c-.1.1-.306.1-.62,0h0V27.45Zm1.547-2.677c-.306.153-.773.416-1.394.773-.467.263-1.028.62-1.5.824h0l-.153-.45s.62-.306,1.445-.773l.416-.263h.1a3.673,3.673,0,0,1,.569-.306h.306l.153.153a1.492,1.492,0,0,0-.671,0,5.161,5.161,0,0,1,.722.051h0Zm-.875,3.968h0l-.1-.1h0l-.1-.1.1.1.2.1ZM401,40.7a1.582,1.582,0,0,1,.467-.263A.987.987,0,0,1,401,40.7Zm.977,0s-.051-.051,0-.2l-.1.1c-.306.1-.263-.051-.1-.263l.357-.1s.2-.416.1-.518l-.2.2v-.1l-.2.2h-.306l-1.079.569a12.474,12.474,0,0,1-2.065,2.116c.2-.306-.1-.263-.2-.416.416,0,.824-.62,1.394-.977-.306.2-.306.051-.263,0l-.926.824a2.655,2.655,0,0,0-.62.2c.2,0,0,.2-.2.416a2.1,2.1,0,0,1-.416.306l-.1.1h-.051l-.1.153v-.144s0-.051.1-.1a.808.808,0,0,1,.306-.2.227.227,0,0,0-.2.1h-.1v.1h-.051a.765.765,0,0,1-.1.2.481.481,0,0,1-.416.357c.1-.051.153-.051.153-.153a1.154,1.154,0,0,1-.416.306c-.1.051-.153,0-.1-.051h.051a6.969,6.969,0,0,0-.875.518v-.357l.357-.2s.518-.306.62-.357h.051s.306-.416.153-.62l-.1-.1c.875-.467,2.473-1.343,5.515-3.042h.051v.1h0a.427.427,0,0,1,.2.051h.1a.427.427,0,0,0,.2-.051,2.088,2.088,0,0,1-.467.518,4.6,4.6,0,0,0,.467-.1l-.671.569h0l.263.042Z" transform="translate(-381.886 -9.036)" fill="#f2a5ba"/>
        <path id="_パス_1442" d="M405.08,44.655h.1Q405.182,44.6,405.08,44.655Z" transform="translate(-384.966 -13.877)" fill="#f2a5ba"/>
        <path id="_パス_1444" d="M393.887,26.34h-.467a4.6,4.6,0,0,1,.467.1S393.785,26.391,393.887,26.34Z" transform="translate(-383.214 -11.129)" fill="#f2a5ba"/>
        <path id="_パス_1446" d="M389.257,26.558c.306,0,0-.153.2-.1.1-.051-.357,0-.62,0-.263.051-.263.1.357.051h0l.051.051Z" transform="translate(-382.501 -11.143)" fill="#f2a5ba"/>
        <path id="_パス_1448" d="M410.3,12.654l-.263-.2a1.413,1.413,0,0,1,.1.357l.153-.153h0Z" transform="translate(-385.711 -9.042)" fill="#f2a5ba"/>
        <path id="_パス_1450" d="M398.692,19.42l-.1.051h.051Z" transform="translate(-383.991 -10.089)" fill="#f2a5ba"/>
        <path id="_パス_1451" d="M398.511,19.393h.153s-.2-.1-.153-.153C398.358,19.393,398.613,19.291,398.511,19.393Z" transform="translate(-383.971 -10.062)" fill="#f2a5ba"/>
        <path id="_パス_1454" d="M398.77,18.732h.1a.218.218,0,0,1,.051-.1C398.872,18.63,398.821,18.63,398.77,18.732Z" transform="translate(-384.018 -9.971)" fill="#f2a5ba"/>
        <path id="_パス_1457" d="M398.692,18.88s0,.051-.1.1C398.641,18.982,398.794,18.982,398.692,18.88Z" transform="translate(-383.991 -10.008)" fill="#f2a5ba"/>
        <path id="_パス_1459" d="M398.58,18.552h.051s0-.051.1-.1a.483.483,0,0,0-.153.1Z" transform="translate(-383.989 -9.944)" fill="#f2a5ba"/>
        <path id="_長方形_143" d="M398.35,19l.2-.025h0Z" transform="translate(-383.955 -10.022)" fill="#f2a5ba"/>
        <path id="_パス_1461" d="M398.58,18.321h.051l.1-.051-.153.051Z" transform="translate(-383.989 -9.917)" fill="#f2a5ba"/>
        <path id="_パス_1462" d="M398.58,18.192s.1-.1.153-.1h-.153Z" transform="translate(-383.989 -9.89)" fill="#f2a5ba"/>
        <path id="_パス_1464" d="M398.572,18.39l-.1.1h0a.1.1,0,0,0,.1-.1Z" transform="translate(-383.973 -9.935)" fill="#f2a5ba"/>
        <path id="_パス_1465" d="M398.451,18.5h0l-.051-.051Z" transform="translate(-383.962 -9.944)" fill="#f2a5ba"/>
        <path id="_パス_1467" d="M398.1,18.912a.4.4,0,0,1,.263-.1A.366.366,0,0,0,398.1,18.912Z" transform="translate(-383.917 -9.998)" fill="#f2a5ba"/>
        <path id="_パス_1469" d="M398.28,18.381s.1,0,.1-.051h-.1v.1h0v-.051Z" transform="translate(-383.944 -9.926)" fill="#f2a5ba"/>
        <path id="_パス_1476" d="M397.625,18.285a.218.218,0,0,1,.051-.1c-.1.1-.2,0-.416.153h.1s-.1,0-.1.051c.1-.051.2-.051.153,0a2.146,2.146,0,0,0,.62-.357h-.153s-.1.153-.2.153h0l-.043.1Z" transform="translate(-383.791 -9.881)" fill="#f2a5ba"/>
        <path id="_パス_1477" d="M398.16,18.09v.1h0l.1-.1Z" transform="translate(-383.926 -9.89)" fill="#f2a5ba"/>
        <path id="_パス_1478" d="M398.2,18.21h-.153c-.1.051-.2,0-.306.153h.161c-.051-.051.051,0,.1-.1h.1l.1-.051Z" transform="translate(-383.863 -9.908)" fill="#f2a5ba"/>
        <path id="_パス_1479" d="M397.8,19.051l.051-.051Z" transform="translate(-383.872 -10.026)" fill="#f2a5ba"/>
        <path id="_パス_1480" d="M398.1,18.75a1.987,1.987,0,0,0-.263.2h.051a.218.218,0,0,0-.1.051.254.254,0,0,0,.153-.051h0l.153-.153h0V18.75Z" transform="translate(-383.871 -9.989)" fill="#f2a5ba"/>
        <path id="_パス_1482" d="M398.2,18.011l.1-.051-.2.051Z" transform="translate(-383.917 -9.87)" fill="#f2a5ba"/>
        <path id="_パス_1483" d="M398.253,17.9h-.1l-.051.051Z" transform="translate(-383.917 -9.861)" fill="#f2a5ba"/>
        <path id="_パス_1485" d="M396.82,15.763l.1-.093h-.1Z" transform="translate(-383.725 -9.526)" fill="#f2a5ba"/>
        <path id="_パス_1488" d="M397.536,17.032v-.1C397.485,16.981,397.383,17.083,397.536,17.032Z" transform="translate(-383.82 -9.715)" fill="#f2a5ba"/>
        <path id="_パス_1490" d="M397.55,16.978s.051-.1,0-.051h0s.051.025.051.051Z" transform="translate(-383.835 -9.713)" fill="#f2a5ba"/>
        <path id="_パス_1497" d="M394.938,15.984h.153l.306-.2-.467.2Z" transform="translate(-383.441 -9.543)" fill="#f2a5ba"/>
        <path id="_パス_1498" d="M390.645,9.524l-.1.1q.153-.076.153,0h0s.051.2.1.357l.11-.1v.1c.2-.1,0-.051.153-.2-.2.2.153.153-.1.416,0,0,.1-.1.153-.1h0a.483.483,0,0,1-.1.153h0s.1.051.1.1h0a.587.587,0,0,0,.357.153h0s0,.051.1.1h.1c-.1,0-.1.153-.2.153.153,0,.1,0,.357-.1l-.1.1s.153-.051.2,0c-.1,0-.1.1-.263.153-.153.2.306,0,0,.2.306-.153.1-.153.153-.2.051-.1.2-.1.2-.051,0,0-.306.263-.2.357h0s.1,0,0,.1c.153-.1,0,0,.2-.1h-.1s.357-.153.263,0h-.145c0,.051.051,0,0,.051-.2.153-.1,0-.306,0-.051.051.2,0,0,.1.306-.153,0,.1.263,0l-.1.1h-.051s-.051.2,0,.2c-.051-.051.153-.1.2-.2.2,0-.263.263-.153.306a.1.1,0,0,1,.1-.1h0a.176.176,0,0,1-.11.153c.051.051.1-.1.2-.1-.153.1.1,0,.153,0l-.1.1s.263-.153.2,0l-.2.1h.051l-.153.1s.1,0,.1.051c.1-.051.2-.153.263-.1-.051.051-.1.051-.051.1-.1,0-.2.1-.1,0h-.1v.153h.263a.771.771,0,0,1-.263.1h.153s-.1.1-.153.1c0,.051.263,0,.2.051h.051c0,.051-.1.2.1.153l-.153.153s.2-.2.306-.153c.1,0-.153.1-.2.153.1,0,.306-.1.2,0h0l-.1.1a.549.549,0,0,0-.306.1c.357-.2.153.1.518-.051h.153s-.051.1-.1.1h.051l.1.1h.2s-.2.1-.2,0c-.357.263.1,0,0,.2h-.051l-.2.2c.051,0,.263-.263.416-.263,0,0,0,.051.051,0-.153.051-.1.1-.051.1l-.153.1a.692.692,0,0,0,.263-.051l-.221.212c0,.051.2-.153.263-.1,0,.1.051.1.2.1,0,.051-.1,0-.153.1h.1a.59.59,0,0,1,.263-.1c.2-.1-.2.263,0,.153a.168.168,0,0,0-.153.1h.357l-.1.1a1.44,1.44,0,0,1,.467-.153l.1-.1h.153a.481.481,0,0,0-.153.1h0a.59.59,0,0,1-.263.1l.1-.1s-.263.1-.357.153h.051l-.2.153h.1v.1a1.537,1.537,0,0,1,.62-.1c-.153,0-.263.1-.416.2.153-.1-.1,0-.1-.1,0,0-.1.051-.1.1h.2a.334.334,0,0,0-.153.153c.263-.153.2,0,.306,0-.1,0-.2.1-.2,0-.153.153.357-.1.2,0h0c.1,0,.051.1,0,.1h0a.263.263,0,0,0,.357.1h0l-.306.153.875-.263a4.167,4.167,0,0,1-.824.357.055.055,0,0,0,.051.051,2.569,2.569,0,0,1,.306-.153c-.2.153-.1.1-.263.263,0,0,.357-.2.357-.153a3.216,3.216,0,0,1-.357.153l.357-.1s-.263.153-.357.2c.051,0,0,.051.051.051h.051s.467-.2.518-.1c-.051,0-.416.153-.416.263a6.514,6.514,0,0,1,.977-.306h0s-.824.306-1.028.357c-.051.051-.1.051-.051.1-.051.051-.153,0-.153,0v.1a.648.648,0,0,0,.357-.1H394.4s.569-.2.569-.1a3.775,3.775,0,0,1-.416.2h0s.263,0,.153.1c0,0-.2.153-.1.1a5.968,5.968,0,0,1,.977-.518,1.108,1.108,0,0,1-.263.263c-.153.1-.416.153-.518.263h.153s-.153.051-.1.1c.2-.1,0,.1.153-.051.051,0,0,.051,0,.1a1.823,1.823,0,0,1,.518-.153.448.448,0,0,0-.119.1v.263a.2.2,0,0,1-.153.1h.1s-.051,0-.2.1c.1-.051.2,0,.263,0,.153-.1,0-.1-.1-.1a1.154,1.154,0,0,1,.671-.153c.1,0-.153.1-.1.1,0,.153.467-.1.357.051a1.46,1.46,0,0,1-.416.2c-.1,0,0-.1,0-.153h0s-.1.051-.1,0c-.1.1.1.2,0,.357a.2.2,0,0,0,.153-.051h0s.2-.051.2-.1h.2l-.153.1s.1-.1,0-.051c.1,0-.153.2.051.1l.1-.1s.306-.051.263,0c.153-.1,0,0,.153-.153-.2.153-.051-.1-.263.051.2-.153.051-.1.2-.263-.051,0-.1.051-.1,0h-.051v.1h-.306a.218.218,0,0,0,.1-.051h-.1s.153-.153.263-.153h0s.051-.153,0-.153h-.153s-.306-.1-.1-.306c0,0-.1,0-.1-.051h.1s0-.2-.051-.153c.263-.2,0-.2,0-.263h-.416v-.153h0c.2-.2-.306-.051-.153-.263h0v-.1a.168.168,0,0,0-.153.1h-.1s-.1,0,.1-.153a.842.842,0,0,0-.357,0h0v-.1l.153-.1h-.263a1.409,1.409,0,0,0,.263-.1h-.263s-.2,0-.1-.1c.153-.153-.1-.263,0-.467-.306.2.1-.153-.153,0,.051,0,.1-.1.153-.1-.1,0,.051-.153-.153-.1a.2.2,0,0,0,.153-.051h.1c-.051-.051-.306.051-.518.153.1-.1.051-.1-.1,0,.051,0,.1-.1.153-.1,0,0,0-.2-.153-.1h0a.147.147,0,0,0-.051-.1h-.1s-.1,0,0-.2h-.119c-.263.2.1-.1,0-.1H394a3.677,3.677,0,0,0,.357-.263h.051a.353.353,0,0,1-.263,0c.1-.051.263-.1.2-.153.051-.051-.357.051-.2-.1-.051,0-.1.1-.2.1,0,0,.2-.263,0-.153h0a.285.285,0,0,0-.306,0c.416-.263-.357-.051.051-.306l-.1-.1h0a.353.353,0,0,0-.263,0,.121.121,0,0,0,.1-.051q0-.153-.263-.1l.1-.1s.1-.263-.1-.263h.051s.2-.467-.306-.2h-.136a.785.785,0,0,0-.263.2s.1-.153.153-.153h0a.311.311,0,0,1,.153-.263c-.1-.153-.1-.416-.2-.569l-.153.153h0l.153-.153c.1-.1-.153,0-.153,0,0-.1.263-.1.2-.153h-.051s-.153.1-.2,0c0-.051.1-.1.1-.1h-.153l-.153.153c.2-.2-.1-.306,0-.357a.3.3,0,0,1-.2-.051s-.153.153-.2.1c.357-.263.051-.153.263-.416-.1.153-.153-.1-.306.153,0-.051.1-.1.153-.2-.2,0-.051-.263-.2-.306l-.153.153.153-.2s-.263.2-.153,0c0,0-.051.1-.1.1,0-.153-.153-.263-.263-.306s-.2-.153-.153-.416c0,.1-.051.1-.1.051l-.153.153V8.827s0-.051-.2.051h0a7.164,7.164,0,0,1-.518.62c.2-.153-.153.357.153.153h0l.467-.153Zm2.643,3.764h-.051C393.39,13.237,393.339,13.288,393.288,13.288Z" transform="translate(-382.708 -8.496)" fill="#f2a5ba"/>
        <path id="_パス_1502" d="M397.666,18.017s-.051.051,0,.051h0S397.768,17.966,397.666,18.017Z" transform="translate(-383.849 -9.877)" fill="#f2a5ba"/>
        <path id="_パス_1504" d="M397.857,17.526s.153-.051.1,0C398.112,17.475,397.755,17.526,397.857,17.526Z" transform="translate(-383.878 -9.802)" fill="#f2a5ba"/>
        <path id="_パス_1505" d="M397.25,18.251l.153-.051h-.153Z" transform="translate(-383.79 -9.906)" fill="#f2a5ba"/>
        <path id="_パス_1508" d="M396.866,17.48s-.051,0,0,.051h.051Z" transform="translate(-383.729 -9.798)" fill="#f2a5ba"/>
        <path id="_パス_1509" d="M396.631,17.831l.1-.051-.153.1h.051v-.051Z" transform="translate(-383.689 -9.843)" fill="#f2a5ba"/>
        <path id="_パス_1510" d="M396.5,17.72s-.153,0-.1.051C396.4,17.771,396.5,17.771,396.5,17.72Z" transform="translate(-383.66 -9.834)" fill="#f2a5ba"/>
        <path id="_パス_1511" d="M396.28,16.843h.051l.263-.153-.306.153h0Z" transform="translate(-383.644 -9.679)" fill="#f2a5ba"/>
        <path id="_パス_1512" d="M395.4,16.51s-.051,0-.2.1c0,.1.153-.051.1,0,.051,0,0-.051.1-.1Z" transform="translate(-383.482 -9.652)" fill="#f2a5ba"/>
        <path id="_パス_1513" d="M391.471,8.44l-.051.1h.051Z" transform="translate(-382.914 -8.44)" fill="#f2a5ba"/>
        <path id="_パス_1514" d="M391.231,8.653l.1-.153-.153.1h0Z" transform="translate(-382.878 -8.449)" fill="#f2a5ba"/>
        <path id="_パス_1515" d="M393.592,14.33l-.1.1h0v-.1Z" transform="translate(-383.225 -9.325)" fill="#f2a5ba"/>
        <path id="_パス_1516" d="M393.37,13.831h0l.153-.051Z" transform="translate(-383.207 -9.242)" fill="#f2a5ba"/>
        <path id="_パス_1520" d="M430.094,12.182h0v-.1s-.1.153-.2.153c.1.153.1-.051.153,0h0Z" transform="translate(-388.693 -8.987)" fill="#f2a5ba"/>
        <path id="_パス_1523" d="M429.391,11.821s-.051-.025-.051-.051a.2.2,0,0,0,.051.153Z" transform="translate(-388.61 -8.94)" fill="#f2a5ba"/>
        <path id="_パス_1526" d="M429.632,12.117s0-.2-.1-.1a.1.1,0,0,1,.1.1Z" transform="translate(-388.639 -8.973)" fill="#f2a5ba"/>
        <path id="_パス_1528" d="M429.2,12s-.051,0-.1-.1a.483.483,0,0,0,.1.153h0Z" transform="translate(-388.574 -8.96)" fill="#f2a5ba"/>
        <path id="_パス_1531" d="M428.86,12v-.1l.051.153Z" transform="translate(-388.538 -8.96)" fill="#f2a5ba"/>
        <path id="_パス_1532" d="M428.722,12.053s-.1-.1-.1-.153v.153Z" transform="translate(-388.502 -8.96)" fill="#f2a5ba"/>
        <path id="_パス_1534" d="M429.082,12.182s-.051-.1-.1-.1Z" transform="translate(-388.556 -8.987)" fill="#f2a5ba"/>
        <path id="_パス_1537" d="M429.512,12.513a.4.4,0,0,1-.1-.263A.366.366,0,0,0,429.512,12.513Z" transform="translate(-388.621 -9.012)" fill="#f2a5ba"/>
        <path id="_パス_1538" d="M429.22,12.26v.1h.051A.217.217,0,0,0,429.22,12.26Z" transform="translate(-388.592 -9.014)" fill="#f2a5ba"/>
        <path id="_パス_1539" d="M428.911,12.362s0-.1-.051-.1v.1Z" transform="translate(-388.538 -9.014)" fill="#f2a5ba"/>
        <path id="_パス_1546" d="M428.746,12.936h-.1c.1.1,0,.2.153.416v-.1s0,.1.051.1c-.051-.1-.051-.2,0-.153a1.8,1.8,0,0,0-.408-.569v.153a.345.345,0,0,1,.2.2h0l.1-.051Z" transform="translate(-388.475 -9.069)" fill="#f2a5ba"/>
        <path id="_パス_1547" d="M428.541,12.533h.1a.333.333,0,0,0-.153-.153v.153Z" transform="translate(-388.483 -9.032)" fill="#f2a5ba"/>
        <path id="_パス_1548" d="M428.74,12.431a.386.386,0,0,0,.153.306v-.153c-.051.051,0-.051-.1-.1h0v-.1h0v.1h0l-.051-.051Z" transform="translate(-388.52 -9.032)" fill="#f2a5ba"/>
        <path id="_パス_1550" d="M429.494,12.714v.1a.255.255,0,0,0-.051-.153h0s-.153-.1-.153-.153a.879.879,0,0,0,.2.263v-.059Z" transform="translate(-388.603 -9.051)" fill="#f2a5ba"/>
        <path id="_パス_1552" d="M428.472,12.482l-.1-.1.1.153Z" transform="translate(-388.465 -9.032)" fill="#f2a5ba"/>
        <path id="_パス_1553" d="M428.371,12.552l-.051-.1v.1Z" transform="translate(-388.457 -9.042)" fill="#f2a5ba"/>
        <path id="_パス_1555" d="M425.978,14.315s-.263-.153-.153-.051l.1.1h.051Z" transform="translate(-388.078 -9.31)" fill="#f2a5ba"/>
        <path id="_パス_1556" d="M425.322,16.252h0l-.1-.1v.1Z" transform="translate(-387.991 -9.598)" fill="#f2a5ba"/>
        <path id="_パス_1557" d="M424.43,18.81l.1.1S424.532,18.861,424.43,18.81Z" transform="translate(-387.873 -9.998)" fill="#f2a5ba"/>
        <path id="_パス_1558" d="M427.382,13.29h-.1C427.331,13.29,427.433,13.392,427.382,13.29Z" transform="translate(-388.301 -9.169)" fill="#f2a5ba"/>
        <path id="_パス_1559" d="M423.58,16.93l.051.051Z" transform="translate(-387.745 -9.715)" fill="#f2a5ba"/>
        <path id="_パス_1565" d="M427.941,12.75l-.051.051h.051Z" transform="translate(-388.393 -9.087)" fill="#f2a5ba"/>
        <path id="_パス_1567" d="M426.686,15.9s-.051-.153,0-.1l-.306-.263.306.357h0Z" transform="translate(-388.166 -9.505)" fill="#f2a5ba"/>
        <path id="_パス_1568" d="M420.309,20.271a.482.482,0,0,1,.153.1H420.2s-.051.1.1.2h0a5.415,5.415,0,0,1,.722.306c-.2-.153.416.051.153-.153.051,0,.051.051.153.1q-.1-.1,0-.1h0a2.432,2.432,0,0,0,.357-.2h-.153l.1-.051c-.153-.153-.051.051-.263-.1.263.1.153-.2.416,0,0,0-.153-.051-.1-.1h.2s0-.1.051-.051h-.051a.4.4,0,0,0,.1-.416h-.051a.2.2,0,0,0,.1-.153h0s-.051-.1,0-.1c.051.051.153,0,.2.1-.051-.153-.051-.1-.263-.306h.1s-.1-.051-.1-.1c.051.1.153.051.263.153.263,0-.1-.263.2-.1-.263-.2-.2,0-.263-.051-.1,0-.153-.153-.1-.153,0,0,.357.153.416.1h0s-.051-.1.1-.051c-.153-.1,0,0-.153-.153v.1s-.263-.263-.1-.263l.1.1c.051,0,0-.051.051,0,.2.153,0,.1.1.263.1,0-.1-.153.1,0-.263-.2.1-.051-.1-.263l.1.1v-.1l.1.1s.153,0,.153-.1c-.051.1-.153-.051-.263-.1-.1-.2.357.153.416,0h.051c0-.1-.153-.051-.2-.153.153.051,0-.051-.051-.153l.1.1s-.263-.2-.1-.2l.153.153h.1v-.1c-.1,0-.2-.153-.2-.2.1,0,.1.1.153,0,.051.051.153.153,0,.1l.1.1.1-.1h0l-.1-.2s.1.051.1.1v-.1c.1.051.2.153.2.2v-.153a.1.1,0,0,1,.1.1h0c.1,0-.1-.2,0-.2h0s.2,0,.1-.2l.2.1s-.263-.1-.263-.263c0-.1.153.1.2.1-.051-.1-.2-.263,0-.2V17.7h.1a.266.266,0,0,0,.2.263c-.306-.263.1-.153-.263-.416h.1s-.2-.153-.1-.2a.254.254,0,0,1,.153.051v-.11h.051a.917.917,0,0,1-.1-.2c.051,0,0,0,.051.051v-.1s.1.153.051.153c.357.2-.051-.1.2,0h0a2.059,2.059,0,0,0,.306.153.971.971,0,0,1-.416-.263s.051,0,0-.051c.1.1.1,0,.1,0l.153.1a.914.914,0,0,1-.153-.2.741.741,0,0,1,.263.153c.051,0-.2-.1-.2-.2.1,0,.051-.1,0-.2.1,0,.1.1.153.1l-.1-.1h.051s-.153-.1-.153-.153c-.153-.153.306.1.153-.1.051,0,.1.1.153.1a.527.527,0,0,0-.153-.306h.153s-.263-.153-.306-.306h-.1v-.2l.1.1h0a.409.409,0,0,1,.2.153h-.1a1.557,1.557,0,0,0,.263.2h.263a1.755,1.755,0,0,1-.306-.569,1.736,1.736,0,0,1,.306.306c-.153-.1,0,.1-.051.153,0,0,.1.051.1.1v-.2s0,.051.1.1c-.263-.2-.1-.2-.153-.263.051.051.153.153.1.153.2.1-.2-.306,0-.2h0c0-.1.051-.1.1,0h0a.22.22,0,0,0,.042-.314c-.017-.017-.026-.034-.042-.042l.263.263-.518-.722a3.517,3.517,0,0,1,.62.62s.1,0,.051-.051l-.263-.2c.2.153.1.051.306.153a1.958,1.958,0,0,1-.263-.306l.263.263-.153-.306.263.263c-.051,0,.051,0,0-.1h-.1s-.263-.416-.2-.467a.756.756,0,0,0,.357.306,3.632,3.632,0,0,1-.518-.824h.051s.416.62.518.824c.1,0,.1.1.1,0,.1.051.1.1.051.153h.153a.66.66,0,0,0-.2-.357v.263s-.306-.467-.2-.518c.051,0,.2.263.263.306h0s-.051-.263.1-.153c0,0,.2.153.153.051-.153-.153-.671-.671-.773-.824a1.713,1.713,0,0,1,.306.153c.153.1.263.357.357.467l-.051-.1s.1.153.1.1c-.1-.153.1,0-.1-.153,0-.051.051,0,.1,0a.987.987,0,0,1-.263-.467l.1.1a.356.356,0,0,0,.263-.051.333.333,0,0,1,.153.153V14.1s-.051.051.1.2c-.051-.1,0-.153-.051-.263-.1-.153-.1,0-.1.1a1.254,1.254,0,0,1-.263-.569c0-.1.1.1.1.051.153,0-.153-.416,0-.357a.836.836,0,0,1,.263.357c0,.1-.153,0-.153,0h.1v.11c.1.1.2-.1.357-.051a.2.2,0,0,0-.051-.153h0s0-.153-.1-.153v-.212l.1.153s-.1-.051-.1,0c0-.1.2.153.1-.051l-.1-.1s-.051-.306,0-.263c-.1-.153,0,0-.153-.153.153.2-.153.051.051.263-.153-.153-.1,0-.306-.2,0,0,.1.1,0,.1h0l.051.1c.051.1,0,.153,0,.263,0,0,0-.051-.1-.1v.085s-.153-.153-.153-.263h-.051s-.153,0-.153.051V13.2h-.051s0,.263-.263.153c0,0,0,.1-.051.1l-.1-.1s-.153,0-.1.1c-.263-.2-.2.051-.306.1l.1.1a.541.541,0,0,0-.051.153l.1.1s-.153,0-.2.1h0c-.306-.153,0,.306-.2.2h0v.1l-.1-.1h0s0,.051.1.153v.1s0,.1-.153-.051c.051.1,0,.153.153.357h0l-.153-.1.153.2a1.985,1.985,0,0,1-.263-.2c.1.2,0,.1.1.306l-.1-.1s.051.153,0,.1c-.2-.1-.263.2-.518.153.306.2-.153,0,0,.153q-.076,0-.153-.153c0,.1-.2,0,0,.2-.051,0-.1-.1-.1-.1h0a.218.218,0,0,0-.051-.1,1.464,1.464,0,0,0,.306.416q-.1,0,0,.1a.158.158,0,0,1-.153-.153s-.2.051-.051.153h0q-.051,0-.1.1h0v.153h0s0,.051-.2,0l.1.1s-.2,0-.153.1h.1a4.293,4.293,0,0,0-.467-.153v-.025c-.2,0,.153.1.153.2-.1-.051-.2-.153-.263-.153-.1,0,.153.306,0,.263a.158.158,0,0,1,.153.153c0,.051-.306-.051-.153.1h-.051s0,.153.1.2c-.416-.263,0,.306-.306.051v.1h-.1a.427.427,0,0,0,.051.2.121.121,0,0,1-.1-.051c-.153,0-.153.051,0,.263l-.153-.1s-.306,0-.2.153h0s-.518,0-.1.306v.153a1.332,1.332,0,0,0,.357.153s-.2,0-.2-.051h0a.386.386,0,0,1-.306-.051c-.1.153-.357.263-.467.416l.2.1h0s-.153,0-.1-.051c-.1,0,0,.1.1.153a.22.22,0,0,1-.2-.153h0s.153.153.1.2c-.051,0-.153-.051-.153,0h-.051l.153.1s-.051.051.153.153c-.306-.1-.263.2-.357.153.1.1,0,.153,0,.2,0,0,.2.1.153.153-.357-.2-.2,0-.467-.1.2.051,0,.153.2.263a.771.771,0,0,1-.263-.1c.051.153-.2.153-.263.306,0,0,.153,0,.2.1l-.263-.1s.263.153.051.1c0,0,.1,0,.1.051-.357.1-.1.569-.671.518q.1,0,.1.051h0l.153-.119Zm4.019-3.408s.051.1,0,.051C424.226,16.812,424.328,16.863,424.328,16.863Z" transform="translate(-387.21 -9.087)" fill="#f2a5ba"/>
        <path id="_パス_1572" d="M428.49,12.982h.1S428.49,12.88,428.49,12.982Z" transform="translate(-388.483 -9.116)" fill="#f2a5ba"/>
        <path id="_パス_1574" d="M427.882,12.905s-.1-.153,0-.1C427.831,12.65,427.882,13.007,427.882,12.905Z" transform="translate(-388.385 -9.09)" fill="#f2a5ba"/>
        <path id="_パス_1575" d="M428.62,13.23l.051.1.051.051-.1-.153Z" transform="translate(-388.502 -9.16)" fill="#f2a5ba"/>
        <rect id="_長方形_151" height="0.051" transform="translate(40.101 4.215)" fill="#f2a5ba"/>
        <path id="_パス_1578" d="M427.89,13.822s.051.051.051,0v-.1h0Z" transform="translate(-388.393 -9.233)" fill="#f2a5ba"/>
        <path id="_パス_1579" d="M428.3,14s-.051,0-.1-.1l.1.153h0Z" transform="translate(-388.439 -9.26)" fill="#f2a5ba"/>
        <path id="_パス_1580" d="M428.3,14.242s0-.1-.051-.1C428.25,14.14,428.25,14.293,428.3,14.242Z" transform="translate(-388.447 -9.296)" fill="#f2a5ba"/>
        <path id="_パス_1581" d="M427.253,14.463h0L427.1,14.2Z" transform="translate(-388.274 -9.305)" fill="#f2a5ba"/>
        <path id="_パス_1582" d="M427.262,15.522a.1.1,0,0,1-.1-.1h0c0,.1,0,.051.153.2.1,0-.1-.153,0-.1Z" transform="translate(-388.283 -9.489)" fill="#f2a5ba"/>
        <path id="_パス_1583" d="M420.1,21.67l-.1.051h.1Z" transform="translate(-387.207 -10.427)" fill="#f2a5ba"/>
        <path id="_パス_1584" d="M420.273,21.892l-.153-.1Z" transform="translate(-387.225 -10.446)" fill="#f2a5ba"/>
        <path id="_パス_1586" d="M425.013,18.132h0l-.153-.1Z" transform="translate(-387.937 -9.881)" fill="#f2a5ba"/>
        <path id="_パス_1588" d="M435.29,44.942l.1-.1S435.29,44.993,435.29,44.942Z" transform="translate(-389.504 -13.908)" fill="#f2a5ba"/>
        <path id="_パス_1589" d="M434.921,45.131l.051-.051-.1.1.051-.051h0Z" transform="translate(-389.441 -13.944)" fill="#f2a5ba"/>
        <path id="_パス_1590" d="M434.916,45.011s-.153.1-.1,0c-.1.2.051,0,0,.051h0l.1-.1h0v.051Z" transform="translate(-389.427 -13.926)" fill="#f2a5ba"/>
        <path id="_パス_1593" d="M434.972,44.42a.482.482,0,0,0-.1.153h.051V44.42Z" transform="translate(-389.441 -13.845)" fill="#f2a5ba"/>
        <path id="_パス_1596" d="M434.8,44.82s.1-.153.051-.1A.121.121,0,0,1,434.8,44.82Z" transform="translate(-389.431 -13.888)" fill="#f2a5ba"/>
        <path id="_パス_1598" d="M434.792,44.522v-.1a.483.483,0,0,1-.1.153h0Z" transform="translate(-389.414 -13.845)" fill="#f2a5ba"/>
        <path id="_パス_1600" d="M434.62,44.933l.153-.153Z" transform="translate(-389.404 -13.899)" fill="#f2a5ba"/>
        <path id="_パス_1601" d="M434.75,44.342l.1-.1Z" transform="translate(-389.423 -13.818)" fill="#f2a5ba"/>
        <path id="_パス_1602" d="M434.69,44.263s.051-.153.1-.153l-.1.1Z" transform="translate(-389.414 -13.799)" fill="#f2a5ba"/>
        <path id="_パス_1607" d="M434.5,44.984a.408.408,0,0,1,.153-.2C434.653,44.831,434.551,44.882,434.5,44.984Z" transform="translate(-389.386 -13.899)" fill="#f2a5ba"/>
        <path id="_パス_1608" d="M434.56,44.762a.218.218,0,0,1,.051-.1h-.051Z" transform="translate(-389.395 -13.881)" fill="#f2a5ba"/>
        <path id="_パス_1616" d="M434.033,44.826v-.1c-.051.153-.153.153-.263.357h0c.051-.1.153-.2.1-.051a4.513,4.513,0,0,0,.357-.62.168.168,0,0,1-.1.153.366.366,0,0,1-.1.263h0Z" transform="translate(-389.276 -13.844)" fill="#f2a5ba"/>
        <path id="_パス_1617" d="M434.371,44.462h0l.051-.1-.1.1Z" transform="translate(-389.358 -13.836)" fill="#f2a5ba"/>
        <path id="_パス_1618" d="M434.353,44.675a.327.327,0,0,1,.051-.153h0v-.1h-.051c-.051.1-.1.153-.153.263,0,0,.051-.1.1-.1h0l.051.093Z" transform="translate(-389.34 -13.845)" fill="#f2a5ba"/>
        <path id="_パス_1619" d="M434.464,44.882a2.486,2.486,0,0,0-.153.263h-.051a.647.647,0,0,0,.1-.161h0a.763.763,0,0,1,.1-.2h0Z" transform="translate(-389.349 -13.899)" fill="#f2a5ba"/>
        <path id="_パス_1620" d="M434.26,44.951v.1h0a.254.254,0,0,1,.051-.153h-.051Z" transform="translate(-389.349 -13.917)" fill="#f2a5ba"/>
        <path id="_パス_1621" d="M434.371,44.393l.1-.153-.153.153Z" transform="translate(-389.358 -13.818)" fill="#f2a5ba"/>
        <path id="_パス_1622" d="M434.32,44.341h0l.051-.051Z" transform="translate(-389.358 -13.826)" fill="#f2a5ba"/>
        <path id="_パス_1624" d="M433.05,43.718s.1-.263,0-.153v.1h0Z" transform="translate(-389.168 -13.713)" fill="#f2a5ba"/>
        <path id="_パス_1627" d="M433.766,44.152v-.1C433.766,44.1,433.715,44.2,433.766,44.152Z" transform="translate(-389.272 -13.79)" fill="#f2a5ba"/>
        <path id="_パス_1635" d="M431.948,45.018l.1-.1.153-.306-.263.416h0Z" transform="translate(-389.001 -13.874)" fill="#f2a5ba"/>
        <path id="_パス_1636" d="M433.015,44.371s.153-.153.153-.1l-.1.153v-.051c.051-.051-.1.263.051,0v-.1a1.6,1.6,0,0,1,.2-.153c.1-.153,0,0,.051-.153-.1.263-.051,0-.153.2.1-.2,0-.1.1-.306,0,.051,0,.1-.051.051h0v.153c-.068.051-.144.1-.2.153a.121.121,0,0,1,.051-.1v.1a.6.6,0,0,1,.051-.263h0v-.093h-.051s-.2.153-.1-.051h-.051v-.1h0c.153-.263-.051-.1-.051-.153v.153h-.2v.1l-.1-.1h0c.1-.306-.2.153-.153-.051h0v-.093h0s0,.051-.1.153H432.3s-.051.1,0-.1c-.051.1-.1,0-.2.263h0a.692.692,0,0,1,.051-.263l-.2.2v-.11h0c.051-.2-.153-.1-.1-.306-.153.306,0-.153-.1.1,0-.051,0-.1.1-.153-.051.051,0-.153-.1,0,0-.051.051-.1.1-.153h0a.218.218,0,0,1,.051-.1,2.646,2.646,0,0,0-.263.416q0-.1-.051,0c0-.051,0-.153.1-.153,0,0,0-.153-.1,0h-.051s0,.051-.1.1h0s-.051,0,0-.153v.153c-.2.263,0-.2-.1-.1v.1s.1-.416.1-.467v-.059c0-.2-.1.153-.153.2,0-.1.1-.2.1-.263,0-.1-.2.263-.153.1a.215.215,0,0,1-.1.2s0-.306-.051-.1h0s-.1,0-.153.153c.153-.467-.2.153,0-.263h0a.168.168,0,0,0-.153.1v-.093q0-.1-.153.1v-.153s0-.263-.051-.1h0s0-.467-.2,0l-.1.1a1,1,0,0,0-.1.306V43.02h0v-.263c-.1,0-.153-.2-.263-.263v.2h-.1s0-.2.051-.153c0-.1-.051.1-.1.153a.711.711,0,0,1,.1-.263h0s-.051.2-.1.2V42.5h0v.1s-.051,0-.1.153c.051-.306-.153-.153-.1-.263-.051.1-.1.1-.1.1s0,.2-.051.2c.1-.357,0-.153,0-.467,0,.2-.1,0-.153.306v-.263c-.1.153-.1-.1-.2-.1a.427.427,0,0,1-.051.2v-.263s-.051.306,0,.1v.1c-.1-.263-.357.153-.416-.357v.1s-.1,0-.1.2h0s-.051.467-.1.722c.051-.263,0,.357.1,0v.178c0-.1,0-.153.051-.1h0a.409.409,0,0,0,.153.2v-.059c.051-.2,0,0,0-.263,0,.263.1,0,.051.357,0,0,0-.153.051-.153h0v.2h.051a.311.311,0,0,0,.263-.153h.1l.051-.051a.333.333,0,0,1-.051.2c.1-.1.051-.1.153-.306v.11s0-.153.051-.153a.279.279,0,0,1-.1.263c0,.263.153-.2.1.153.1-.263,0-.153,0-.2,0-.1.1-.2.1-.153,0,0-.1.357,0,.357h0c.051-.153,0,0,.1-.2h-.051s.153-.263.153-.1a.255.255,0,0,1-.051.153h0c-.051.2-.051,0-.153.2,0,.1.1-.153,0,.1.1-.306,0,0,.153-.153v.153h0v.1s-.051.153,0,.051a.692.692,0,0,1,.051-.263c.1-.153-.1.357,0,.306h0c.051,0,0-.153.1-.2,0,.153,0-.051.1-.1v.153s.051-.263.051-.153l-.1.153h0v.1h0a.709.709,0,0,1,.1-.263c0,.1-.051.1,0,.1,0,.1-.1.2-.051.051v.1h0l.1-.153s0,.1-.051.1v-.1a.6.6,0,0,1-.051.263l.1-.1v.153c0,.051.153-.2.153-.1h0s0,.1.1,0v.2s0-.263.1-.306c.051,0-.051.153-.051.2.051-.1.153-.263.153-.1h0v.1a.821.821,0,0,0-.153.263c.153-.357.1,0,.263-.357v.1h0s.153-.263.153-.153v.051h.1s.1-.051.1-.1v.153c-.153.357.051-.1,0,.153h0a.924.924,0,0,1-.051.306,1.3,1.3,0,0,1,.153-.416h0c-.051.153,0,.1,0,.1v-.059a.366.366,0,0,1-.1.263.773.773,0,0,1,.1-.263c0,.1,0,0,.153-.051,0,.051-.051.1-.051.153l.1-.153h0s.1-.1.1-.153c.1-.2-.1.306,0,.1a.483.483,0,0,1-.1.153,1,1,0,0,0,.2-.263v.1a3.769,3.769,0,0,1,.2-.416v-.144h.153l-.1.1h0l-.1.2v-.1l-.153.306h0l-.1.153h0l.357-.416a3.78,3.78,0,0,0-.2.416c.051-.153-.1.051-.1,0,0,0,0,.1-.051.1l.153-.153a.255.255,0,0,1-.051.153c.1-.263.1-.153.2-.263a.168.168,0,0,1-.1.153c-.051.2.2-.306.153-.1h0c.051-.051.051,0,0,.1h0s.1.051.263-.153l-.153.306.467-.722a5.658,5.658,0,0,1-.416.773h0s.1-.306.153-.306c-.1.2,0,.1-.1.306,0,0,.153-.357.2-.306l-.153.306.2-.263a1.33,1.33,0,0,0-.153.357c0-.051,0,0,.051,0h0s.263-.467.306-.416c0,.051-.2.357-.2.416.1-.153.416-.722.518-.824h0s-.416.671-.518.824v.1a.1.1,0,0,1-.1.1h0v.1a2.269,2.269,0,0,0,.263-.306l-.153.153s.306-.467.306-.416a1.344,1.344,0,0,1-.2.357c0-.051.1-.1.1-.051v.1h0s-.1.263,0,.153c.1-.2.416-.824.518-.977a1.849,1.849,0,0,1-.1.306,2.87,2.87,0,0,1-.306.518s.051-.1.1-.1c0,0-.1.153-.051.153l.1-.153h0a3.753,3.753,0,0,1,.306-.416v.153s-.051.1,0,.153a.168.168,0,0,1-.1.153v.1c.051-.1.1-.1.153-.153.1-.153,0,0-.051,0a2.167,2.167,0,0,1,.357-.518c.051,0-.051.153,0,.1,0,.051.263-.357.263-.153a2.435,2.435,0,0,1-.2.357c-.051,0,0-.1,0-.1h0s-.051.153-.051.1c-.051.153.1.1.051.2a.481.481,0,0,1,.1-.153h0a.914.914,0,0,0,.153-.2h0l-.595.331Z" transform="translate(-388.462 -13.491)" fill="#f2a5ba"/>
        <path id="_パス_1642" d="M434.076,44.268s.1-.153.051-.1C434.229,44.064,433.974,44.319,434.076,44.268Z" transform="translate(-389.318 -13.803)" fill="#f2a5ba"/>
        <path id="_パス_1643" d="M433.84,45.072v.051l.051-.153Z" transform="translate(-389.286 -13.928)" fill="#f2a5ba"/>
        <path id="_パス_1646" d="M433.47,44.771v.051l.051-.1h0l-.051.051Z" transform="translate(-389.231 -13.89)" fill="#f2a5ba"/>
        <path id="_パス_1648" d="M433.168,45.372a.546.546,0,0,0,.051-.1S433.116,45.372,433.168,45.372Z" transform="translate(-389.183 -13.973)" fill="#f2a5ba"/>
        <path id="_パス_1649" d="M432.93,44.733h0l.153-.263Z" transform="translate(-389.15 -13.853)" fill="#f2a5ba"/>
        <path id="_パス_1650" d="M432.242,45.252v-.1c-.051.051,0,0-.1.2,0,.1.1-.153.051-.051h0Z" transform="translate(-389.031 -13.955)" fill="#f2a5ba"/>
        <path id="_パス_1651" d="M428.241,42.212l-.051-.1v.1Z" transform="translate(-388.438 -13.498)" fill="#f2a5ba"/>
        <path id="_パス_1654" d="M430.551,44.753l.051-.153-.1.153Z" transform="translate(-388.785 -13.872)" fill="#f2a5ba"/>
        <path id="_パス_1658" d="M408.108,63.16v.051h.1S408.057,63.211,408.108,63.16Z" transform="translate(-385.419 -16.66)" fill="#f2a5ba"/>
        <path id="_パス_1703" d="M407.213,61.943h.467c.1,0,.263,0,.153.051h.467c-.263,0,0-.051-.263,0h.221s.1-.051,0-.051h0s-.2-.1,0-.153h.1s.1,0,0-.051c.306,0,.051-.051.1-.1h-.153l-.1-.051h-.153a.1.1,0,0,0,.1-.1h0c.306,0-.2-.051,0-.1H407.8c.263,0,0-.1.263-.153h.1c-.1,0,.153,0-.1-.051h-.1s.1-.051-.1-.051h-.127s-.1,0,.1-.051h-.153c-.306,0,.2,0,.051-.051h-.1a1.753,1.753,0,0,0,.467-.051h.1s-.357-.051-.153-.1h-.2s.306-.051,0-.051h-.2c.518-.051-.263-.051.2-.1h0a.336.336,0,0,0-.2-.1h.1c.1,0,.051-.051-.153-.051h.153s.263-.1.051-.1h.051c-.2,0,.416-.153-.153-.1h-.45s.153-.051.2,0h0c.306,0,.1-.051.306-.051,0-.051.153-.153.1-.263h-.357c.306-.051.1-.153.2-.153h-.306c.416,0,.153-.051.467-.1-.2,0-.051-.051-.306,0h.263c-.153,0,.1-.1,0-.153h.051s-.306,0-.1-.1h-.153s-.263-.153.2-.306h-.306l.2-.1h-.2l-.773.153c.263,0-.357.1,0,.1h-.051l-.153.153h0l.263-.051c-.306.051,0,.1-.306.153h.051s0,.1.153.1h.051s-.051,0,0,.051h0c-.263.051.263,0-.1.1.306,0,.153-.051.263-.051h.2s-.416.051-.416.1h-.153s-.153.1,0,.1a.693.693,0,0,0,.263-.051c.2,0-.357.051-.306.1h.153s.1,0,0,.051h0a.9.9,0,0,1-.2.051c-.051,0,.263,0,.153.051h.051s-.153.051,0,.051h-.382c.416,0,0,.051.467,0H407s0,.051-.1.051h-.1c-.416,0,.1,0-.153.051h-.051a.924.924,0,0,0-.306.051,1.437,1.437,0,0,1,.467,0H406.7c-.051,0,0,0,.153.051h.2c.2,0-.306.051-.051.051H406.7s.569.1.671.1h-.467c.2,0-.1,0,0-.051h.051a.427.427,0,0,0-.2.051h.2s0,.1.263.1h.518s-.773.051-.875.051h-.357a2.579,2.579,0,0,0,.357.051h.977a1.249,1.249,0,0,0-.357.051h-.1s-.1.051-.1.1h.416c0,.051.467,0,.263.1h-.467c-.153,0,0,.1-.153.1h0l-.076.731Z" transform="translate(-385.145 -16.055)" fill="#f2a5ba"/>
        <path id="_パス_1710" d="M407.56,62.611l.153-.051h-.153Z" transform="translate(-385.338 -16.57)" fill="#f2a5ba"/>
        <path id="_パス_1724" d="M381.41,45.681l.051.051-.051-.1v.051Z" transform="translate(-381.41 -14.027)" fill="#f2a5ba"/>
        <path id="_パス_1725" d="M381.54,45.614h0v.1s.051-.153.1-.1C381.54,45.41,381.642,45.614,381.54,45.614Z" transform="translate(-381.43 -14.011)" fill="#f2a5ba"/>
        <path id="_パス_1733" d="M382.08,45.991l.051.1a.255.255,0,0,0-.051-.153h0Z" transform="translate(-381.511 -14.073)" fill="#f2a5ba"/>
        <rect id="_長方形_160" height="0.153" transform="translate(0.34 31.654)" fill="#f2a5ba"/>
        <path id="_パス_1735" d="M382.251,46.1v.1l-.051-.153.051.051Z" transform="translate(-381.529 -14.09)" fill="#f2a5ba"/>
        <path id="_パス_1736" d="M382.32,46.05a.9.9,0,0,1,.051.2V46.1h-.051Z" transform="translate(-381.547 -14.09)" fill="#f2a5ba"/>
        <path id="_パス_1738" d="M382.08,45.87s0,.1.051.1v-.1Z" transform="translate(-381.511 -14.063)" fill="#f2a5ba"/>
        <path id="_パス_1741" d="M381.84,45.45a1.436,1.436,0,0,1,.051.263A.562.562,0,0,0,381.84,45.45Z" transform="translate(-381.475 -14)" fill="#f2a5ba"/>
        <path id="_パス_1743" d="M382.251,45.861V45.81H382.2v.051Z" transform="translate(-381.529 -14.054)" fill="#f2a5ba"/>
        <path id="_パス_1750" d="M382.251,45.214l.051.1c-.051-.153,0-.2-.1-.416V45a2.01,2.01,0,0,0,.263.62v-.153c0-.051-.1-.1-.1-.2h0l-.11-.051Z" transform="translate(-381.529 -13.917)" fill="#f2a5ba"/>
        <path id="_パス_1751" d="M382.39,45.75h0s0,.051.1.153V45.75Z" transform="translate(-381.557 -14.045)" fill="#f2a5ba"/>
        <path id="_パス_1752" d="M382.3,45.7a.492.492,0,0,0-.1-.306v.153a.218.218,0,0,0,.051.1h0v.1h0l.051-.051Z" transform="translate(-381.529 -13.991)" fill="#f2a5ba"/>
        <path id="_パス_1753" d="M381.84,45.312a.917.917,0,0,1,.1.2.656.656,0,0,0-.1-.306h0v.153h0Z" transform="translate(-381.475 -13.964)" fill="#f2a5ba"/>
        <path id="_パス_1755" d="M382.45,45.8l.051.1-.051-.153Z" transform="translate(-381.566 -14.045)" fill="#f2a5ba"/>
        <path id="_パス_1756" d="M382.51,45.75l.051.1V45.8l-.051-.051Z" transform="translate(-381.575 -14.045)" fill="#f2a5ba"/>
        <path id="_パス_1758" d="M384.02,45.27s.153.263.1.1v-.1Z" transform="translate(-381.802 -13.973)" fill="#f2a5ba"/>
        <path id="_パス_1761" d="M383.117,45.5s.025.051.051.051C383.168,45.5,383.066,45.4,383.117,45.5Z" transform="translate(-381.664 -14.001)" fill="#f2a5ba"/>
        <path id="_パス_1769" d="M383.78,43.568v.1l.153.357-.153-.467Z" transform="translate(-381.766 -13.716)" fill="#f2a5ba"/>
        <path id="_パス_1770" d="M387.891,42.915s-.2-.467-.306-.722c.051.263-.2-.306-.1,0v-.051h0a1.41,1.41,0,0,1-.263-.1h0c.051.2.051,0,.1.2-.1-.263-.153,0-.263-.263,0,0,.051.153,0,.153h0s-.1-.1-.1-.153h-.051a.257.257,0,0,0-.2.263h0s-.051,0-.1.1h0v.1c0-.051-.1-.153-.1-.2a1.249,1.249,0,0,0,.051.357v.1c0-.1-.1-.153-.1-.263-.153-.2,0,.263-.153-.051.1.306.1.153.1.2,0,.1.051.2,0,.2,0,0-.153-.357-.2-.306h0s0,.1-.051,0c.051.153,0,0,0,.2h0s.051.263,0,.153V42.7h0c-.1-.2,0-.051,0-.263,0-.1,0,.153-.051-.051.1.306-.051,0,0,.2h0l-.1-.153s-.1-.1-.1,0c.051,0,.1.153.153.263,0,.2-.153-.306-.2-.2l.1.1-.1-.1a.9.9,0,0,1,.051.2c-.1-.153,0,.051,0,.153V42.7h-.051v-.093s-.051.1-.1.051c0,.1.1.263.051.263,0-.051,0-.1-.051-.1,0-.1-.051-.2,0-.051v-.11h-.1v.153a1.411,1.411,0,0,1-.1-.263V42.7s-.1-.1-.1-.153c-.051-.051,0,.263-.051.153h0s-.153-.051-.1.1l-.1-.2s.153.2.1.306c0,.051-.1-.153-.1-.2,0,.1.051.306,0,.153h0v-.093a.741.741,0,0,0-.153-.263c.153.357-.1.1.051.467h-.051v-.093s.1.263,0,.263a.231.231,0,0,1-.051-.1v.1h-.051v.153s-.051-.2,0-.2c-.2-.357,0,.1-.153-.1h0c-.1-.263-.1-.153-.2-.306,0,.051.2.306.2.416h0c-.051-.153-.051-.1-.051-.1v.051a2.481,2.481,0,0,1-.153-.263,1.412,1.412,0,0,1,.1.263q-.076-.076,0,.153a.173.173,0,0,0-.042-.153V43.2h0a.541.541,0,0,1,.051.153c.051.2-.153-.263-.1,0a.254.254,0,0,0-.051-.153V43.5l-.1-.1s.1.306.153.416l.1.153v.1a.255.255,0,0,0-.051-.153h0l-.1-.2v.1a.924.924,0,0,0-.051-.306h0l-.11-.153h0v.62c0-.153-.1-.263-.153-.416.1.153,0-.1.051-.051l-.051-.1v.2a.176.176,0,0,0-.11-.153c.1.263,0,.2,0,.306,0-.1-.051-.2,0-.153-.1-.2.1.357,0,.153h0c0,.1,0,0-.051,0h0s-.153,0-.051.263l-.1-.306.2.824a6.09,6.09,0,0,1-.306-.773h0a2.562,2.562,0,0,1,.153.306l-.153-.306s.153.357.1.357a2.252,2.252,0,0,0-.153-.357l.1.306s-.1-.263-.153-.357h0s.1.518.051.518c0-.051-.153-.416-.2-.416,0,.153.263.773.263.926h0s-.263-.773-.306-.977c0-.051,0-.1-.051-.1V43.51h-.1a.549.549,0,0,0,.1.306v-.2s.153.518.1.518a1.894,1.894,0,0,0-.153-.416h0s0,.263-.051.1c0,0-.1-.2-.1-.1.1.2.357.875.416,1.028,0,0-.153-.2-.2-.263-.1-.153-.1-.416-.2-.518v.153s-.051-.153-.051-.1c.051.2-.051,0,0,.153,0,.051,0,0-.051,0,.051.1.153.416.1.467a.255.255,0,0,0-.051-.153c-.051,0-.1-.1-.153-.051a.483.483,0,0,0-.1-.153v.1l-.051-.2v.263c.051.153.051,0,.051-.051a1.587,1.587,0,0,1,.153.62c0,.051-.051-.153-.051-.1-.1,0,.1.416,0,.263a1.891,1.891,0,0,1-.153-.416c0-.051.1.1.1.051h-.051v-.11c-.051-.1-.153,0-.263-.1v.153h0s0,.153.051.2h0c0,.1-.153-.2-.051,0v.1s.1.263.051.263c.051.153,0,0,.1.153-.1-.263.1,0,0-.263a1.335,1.335,0,0,0,.153.263v-.1h0v-.374a1.412,1.412,0,0,1,.1.263h0s.1.1.1,0h0v-.11h0s0-.2.153,0v.051s.153.1.1,0c.153.263.1,0,.2.051v-.357s.076.025.1,0h0c.153.263,0-.263.153-.051h.1l-.051-.1v-.1s0-.1.1.153a1.249,1.249,0,0,0-.051-.357h0v-.051a2.053,2.053,0,0,1,.153.306v-.2s0-.153.051-.051c.1.2.153,0,.306.153-.153-.306.1.1,0-.1,0,.051.051.1.1.2,0-.1.1.1.051-.1a.2.2,0,0,0,.051.153h0v.1a2.313,2.313,0,0,0-.153-.467c.051.1.051.051,0-.051,0,.051.1.153.051.153,0,0,.153.051.051-.1h.051v-.1h0s0-.051.153.1v-.1c-.153-.263.051.153.051,0h0s.2.306.263.306v.051c.1.153-.051-.153,0-.2a.711.711,0,0,0,.1.263c0,.051-.051-.306.051-.153a.422.422,0,0,0-.1-.2s.2.263.1,0h0v-.212c.2.467,0-.263.2.153h.051v-.1c.1.051.1,0,.051-.2v.153s.263.153.2,0h0s.306.357.1-.1v-.153l-.153-.306s.1.1.1.153h0s.1,0,.153.2c.1-.051.263,0,.357,0l-.1-.2h0s.051.153,0,.153c.051.1,0-.1,0-.153.1.051.051.263.1.263h0v-.212l.051.1h.051l-.1-.153v-.153c.153.263.2,0,.263.1V43.5s-.1-.2-.051-.2c.153.357.1.153.263.416-.1-.153.051-.051-.051-.306a.762.762,0,0,0,.1.2c0-.153.153,0,.2,0a.452.452,0,0,1-.051-.2l.153.2s-.1-.263,0-.1v-.1s.153-.306.467.1c-.051-.1,0-.1,0-.1h0s.1,0,.051-.2h0l.144-.255Z" transform="translate(-381.595 -13.479)" fill="#f2a5ba"/>
        <path id="_パス_1774" d="M382.441,45.326s0-.051-.051,0Z" transform="translate(-381.557 -13.978)" fill="#f2a5ba"/>
        <path id="_パス_1777" d="M382.32,44.951V44.9l.051.153Z" transform="translate(-381.547 -13.917)" fill="#f2a5ba"/>
        <path id="_パス_1783" d="M383.23,44.54h0l.1.263Z" transform="translate(-381.683 -13.863)" fill="#f2a5ba"/>
        <path id="_パス_1784" d="M383.357,43.671a.218.218,0,0,0,.051.1c0-.051,0,0-.051-.2C383.306,43.518,383.408,43.721,383.357,43.671Z" transform="translate(-381.7 -13.716)" fill="#f2a5ba"/>
        <path id="_パス_1785" d="M388.94,43.45l.051.051Z" transform="translate(-382.541 -13.699)" fill="#f2a5ba"/>
        <path id="_パス_1788" d="M385.18,42.78h0l.1.153Z" transform="translate(-381.976 -13.599)" fill="#f2a5ba"/>
      </g>
      <text id="Let_s_live_like_ourselves_today." data-name="Let&apos;s live like ourselves today." transform="translate(2.184 116.352)" fill="#f695c1" font-size="10" font-family="InkFree, Ink Free" letter-spacing="0.4em"><tspan x="0" y="0">Let&apos;s live like ourselves today.</tspan></text>
    </g>
    <text id="在宅療養の暮らしを支えてくれる_医療_介護などの事業者の検索_" data-name="在宅療養の暮らしを支えてくれる
   医療・介護などの事業者の検索
" transform="translate(548 495.002)" fill="#7b7b7b" font-size="29" font-family="SourceHanSans-Bold, Source Han Sans" font-weight="700" letter-spacing="0.05em"><tspan x="0" y="34">在宅療養の暮らしを支えてくれる</tspan><tspan fill="#666" font-size="31" font-family="SourceHanSans-Heavy, Source Han Sans" font-weight="800"><tspan x="0" y="85" xml:space="preserve">   </tspan><tspan y="85" fill="#4c4948" font-size="34" text-decoration="underline">医療・介護などの事業者の検索</tspan></tspan></text>
  </g>
</svg>
