<svg xmlns="http://www.w3.org/2000/svg" width="39.5" height="39.286" viewBox="0 0 39.5 39.286">
  <g id="House-Clean" transform="translate(0 -0.322)">
    <path id="Shape" d="M1.975,39.609H5.266a1.965,1.965,0,0,0,1.461-.658h16.51a5.261,5.261,0,0,0,2.739-.768l12.337-7.51a2.456,2.456,0,0,0,.738-3.517.63.63,0,0,0-.046-.066,2.471,2.471,0,0,0-2.748-.86L31.6,27.778V13.935h.862a1.317,1.317,0,0,0,.865-2.315L31.6,10.128V2.743a1.317,1.317,0,0,0-1.317-1.317H26.991a1.317,1.317,0,0,0-1.317,1.317v2.27L20.605.637a1.322,1.322,0,0,0-1.712,0L6.17,11.621a1.317,1.317,0,0,0,.867,2.313H7.9v9.216H7.12a1.975,1.975,0,0,0-1.854-1.317H1.975A1.975,1.975,0,0,0,0,23.809V37.634a1.975,1.975,0,0,0,1.975,1.975ZM36.668,27.475a1.155,1.155,0,0,1,1.251.362.547.547,0,0,0,.032.047,1.14,1.14,0,0,1-.323,1.662L25.292,37.058a3.95,3.95,0,0,1-2.054.575h-16V24.468H8.426a5.367,5.367,0,0,1,3.342,1.172A6.692,6.692,0,0,0,15.931,27.1h3.443a2.646,2.646,0,0,1,2.249,1.263c.007.016.015.032.022.043a1.7,1.7,0,0,1-.046,1.985H17.59A6.6,6.6,0,0,0,13.938,31.5l-.481.323a.658.658,0,1,0,.735,1.093l.477-.32a5.273,5.273,0,0,1,2.922-.885h5.852a3.233,3.233,0,0,0,1.044-.172Zm-12.31,2.719-.292.1a1.93,1.93,0,0,1-.623.1h-.359A3.168,3.168,0,0,0,22.8,27.77a.6.6,0,0,0-.036-.066,3.968,3.968,0,0,0-3.387-1.92H15.931a5.293,5.293,0,0,1-.79-.066V24.468a4.608,4.608,0,1,1,9.216,0ZM26.991,2.743h3.292V8.992L26.991,6.15ZM10.533,13.935a.658.658,0,1,0,0-1.317h-3.5L19.749,1.635l6.122,5.286,6.59,5.7H23.7a.658.658,0,1,0,0,1.317h6.583V28.22l-4.608,1.536V24.468a5.925,5.925,0,0,0-11.85,0v.879a5.31,5.31,0,0,1-1.234-.735A6.693,6.693,0,0,0,9.216,23.2v-9.27ZM1.317,23.809a.658.658,0,0,1,.658-.658H5.266a.658.658,0,0,1,.658.658V37.634a.658.658,0,0,1-.658.658H1.975a.658.658,0,0,1-.658-.658Z" transform="translate(0)" fill="#f299a9"/>
    <path id="Shape-2" data-name="Shape" d="M11.68,3.719a.68.68,0,0,0,.68-.68V1.68A.68.68,0,1,0,11,1.68V3.039A.68.68,0,0,0,11.68,3.719Z" transform="translate(-3.767 -0.217)" fill="#f299a9"/>
    <path id="Shape-3" data-name="Shape" d="M11.68,7a.68.68,0,0,0-.68.68V9.039a.68.68,0,1,0,1.359,0V7.68A.68.68,0,0,0,11.68,7Z" transform="translate(-3.767 -2.139)" fill="#f299a9"/>
    <path id="Shape-4" data-name="Shape" d="M13.68,6.359h1.359a.68.68,0,0,0,0-1.359H13.68a.68.68,0,1,0,0,1.359Z" transform="translate(-4.462 -1.498)" fill="#f299a9"/>
    <path id="Shape-5" data-name="Shape" d="M7.68,6.359H9.039A.68.68,0,0,0,9.039,5H7.68a.68.68,0,1,0,0,1.359Z" transform="translate(-2.242 -1.498)" fill="#f299a9"/>
    <path id="Shape-6" data-name="Shape" d="M55.18,28.383a.68.68,0,0,0,.481-.2l1.02-1.02a.68.68,0,0,0-.961-.961l-1.02,1.02a.68.68,0,0,0,.481,1.16Z" transform="translate(-18.74 -8.812)" fill="#f299a9"/>
    <path id="Shape-7" data-name="Shape" d="M51.215,30.7l-1.02,1.02a.68.68,0,1,0,.961.961l1.02-1.02a.68.68,0,0,0-.961-.961Z" transform="translate(-17.295 -10.356)" fill="#f299a9"/>
    <path id="Shape-8" data-name="Shape" d="M55.723,32.684a.68.68,0,0,0,.961-.961l-1.02-1.02a.68.68,0,0,0-.961.961Z" transform="translate(-18.744 -10.355)" fill="#f299a9"/>
    <path id="Shape-9" data-name="Shape" d="M50.2,26.2a.68.68,0,0,0,0,.961l1.02,1.02a.68.68,0,0,0,.961-.961L51.16,26.2A.68.68,0,0,0,50.2,26.2Z" transform="translate(-17.299 -8.808)" fill="#f299a9"/>
    <path id="Shape-10" data-name="Shape" d="M19.68,18.438a3.4,3.4,0,0,1,3.4,3.4.68.68,0,1,0,1.359,0,3.4,3.4,0,0,1,3.4-3.4.68.68,0,0,0,0-1.359,3.4,3.4,0,0,1-3.4-3.4.68.68,0,1,0-1.359,0,3.4,3.4,0,0,1-3.4,3.4.68.68,0,0,0,0,1.359Zm4.078-2.311a4.8,4.8,0,0,0,1.631,1.631,4.8,4.8,0,0,0-1.631,1.631,4.8,4.8,0,0,0-1.631-1.631A4.8,4.8,0,0,0,23.758,16.127Z" transform="translate(-6.616 -4.415)" fill="#f299a9"/>
  </g>
</svg>
