<svg xmlns="http://www.w3.org/2000/svg" width="17.857" height="17.683" viewBox="0 0 17.857 17.683">
  <g id="paper" transform="translate(0 -2.493)">
    <path id="パス_1970" data-name="パス 1970" d="M17.709,4.66,15.6,2.649a.428.428,0,0,0-.318-.156H6.839a.448.448,0,0,0-.447.447V4.314l-2.976.51a.441.441,0,0,0-.358.508l.151.881c-.967.326-1.961.661-2.919,1.006a.443.443,0,0,0-.265.563l1.907,5.3a.262.262,0,0,0,.492-.177L.546,7.683c.9-.323,1.839-.64,2.753-.948l.9,5.24L5.232,18.01a.443.443,0,0,0,.508.359l2.8-.481,2.189-.375L7.438,18.7l-2.6.933L2.826,14.021a.262.262,0,0,0-.492.177l2.045,5.687a.442.442,0,0,0,.414.29.433.433,0,0,0,.149-.026l2.674-.961,6.072-2.182,1.16-.2h2.562a.448.448,0,0,0,.447-.448V4.954a.376.376,0,0,0-.147-.295Zm-.693.062H15.675c-.063,0-.209,0-.247-.035a.147.147,0,0,1-.019-.09l0-1.41Zm.317,11.562H6.915v-5.1a.262.262,0,0,0-.523,0v5.173a.448.448,0,0,0,.447.448H11.75l-3.3.565-2.72.467-1.02-5.952L3.588,5.325l2.8-.481V9.972a.262.262,0,0,0,.523,0V3.016h7.968l0,1.581a.623.623,0,0,0,.173.461.8.8,0,0,0,.581.188h1.692Z" fill="#fff"/>
    <path id="パス_1971" data-name="パス 1971" d="M234.43,111.711a.262.262,0,0,0,.262.262h7.479a.262.262,0,0,0,0-.523h-7.479A.262.262,0,0,0,234.43,111.711Z" transform="translate(-226.254 -105.156)" fill="#fff"/>
    <path id="パス_1972" data-name="パス 1972" d="M242.17,164.731h-7.479a.262.262,0,0,0,0,.523h7.479a.262.262,0,0,0,0-.523Z" transform="translate(-226.254 -156.58)" fill="#fff"/>
    <path id="パス_1973" data-name="パス 1973" d="M242.17,218.013h-7.479a.262.262,0,1,0,0,.523h7.479a.262.262,0,1,0,0-.523Z" transform="translate(-226.254 -208.003)" fill="#fff"/>
    <path id="パス_1974" data-name="パス 1974" d="M242.17,271.3h-7.479a.262.262,0,1,0,0,.523h7.479a.262.262,0,1,0,0-.523Z" transform="translate(-226.254 -259.427)" fill="#fff"/>
    <path id="パス_1975" data-name="パス 1975" d="M242.17,324.578h-7.479a.262.262,0,0,0,0,.523h7.479a.262.262,0,0,0,0-.523Z" transform="translate(-226.254 -310.852)" fill="#fff"/>
  </g>
</svg>
