<svg id="グループ_1006" data-name="グループ 1006" xmlns="http://www.w3.org/2000/svg" xmlns:xlink="http://www.w3.org/1999/xlink" width="83.823" height="22" viewBox="0 0 83.823 22">
  <defs>
    <radialGradient id="radial-gradient" cx="0.5" cy="0.5" r="0.5" gradientUnits="objectBoundingBox">
      <stop offset="0" stop-color="#7d7d7d"/>
      <stop offset="0.594" stop-color="#787878"/>
      <stop offset="0.841" stop-color="#787878"/>
      <stop offset="1" stop-color="#bcbcbc"/>
    </radialGradient>
  </defs>
  <g id="Filled">
    <path id="パス_1384" data-name="パス 1384" d="M15,4A11,11,0,1,0,26,15,11,11,0,0,0,15,4Zm3.889,12.945a1.375,1.375,0,0,1-1.945,1.945L15,16.945l-1.945,1.945a1.375,1.375,0,0,1-1.945-1.945L13.055,15l-1.945-1.945a1.375,1.375,0,1,1,1.945-1.945L15,13.055l1.945-1.945a1.375,1.375,0,0,1,1.945,1.945L16.945,15Z" transform="translate(-4 -4)" fill="url(#radial-gradient)"/>
  </g>
  <path id="keikaneiyouhou" d="M6.128-11.776v1.328H2.672v-1.328ZM2.672-8.16V-9.568H6.128V-8.16Zm4.592.912V-12.7H1.488V1.232H2.672v-8.48Zm4.8,2.816v-.992H9.584V-6.848H8.5v1.424H4v.992H8.048A11.754,11.754,0,0,1,3.568-1.04a6.621,6.621,0,0,1,.752.864A13.3,13.3,0,0,0,8.5-3.52V-.432c0,.176-.064.224-.24.24-.192,0-.816.016-1.488-.016a4.987,4.987,0,0,1,.368.992A5.527,5.527,0,0,0,9.088.608c.384-.176.5-.464.5-1.024V-4.432ZM9.824-8.144V-9.568h3.584v1.424Zm3.584-3.632v1.328H9.824v-1.328Zm1.2-.928H8.688v5.472h4.72V-.384c0,.3-.1.4-.384.4C12.7.032,11.664.048,10.608,0a4.382,4.382,0,0,1,.416,1.216,10.141,10.141,0,0,0,2.848-.208c.544-.208.736-.592.736-1.392ZM28.864-11.04l-.912.384a19.581,19.581,0,0,1,1.5,2.592L30.4-8.5A26.047,26.047,0,0,0,28.864-11.04Zm2.064-.816-.9.416a16.692,16.692,0,0,1,1.552,2.528l.928-.448A21.609,21.609,0,0,0,30.928-11.856Zm-6.5-.5-1.616-.016a8.367,8.367,0,0,1,.144,1.632c0,1.664-.176,5.728-.176,8.1,0,2.608,1.6,3.568,3.9,3.568A8.034,8.034,0,0,0,33.36-2.608L32.448-3.7A6.645,6.645,0,0,1,26.72-.384c-1.52,0-2.624-.624-2.624-2.384,0-2.384.128-6.176.192-7.968A13.775,13.775,0,0,1,24.432-12.352ZM44.256-1.68A1.169,1.169,0,0,1,45.536-2.7,2.182,2.182,0,0,1,47.68-.528a8.215,8.215,0,0,1-1.3.1C45.136-.432,44.256-.912,44.256-1.68ZM42.208-11.792l.048,1.328c.336-.048.7-.08,1.056-.1.848-.048,4.048-.192,4.9-.224-.816.72-2.816,2.4-3.712,3.136-.928.784-2.976,2.5-4.3,3.584l.912.944c2.032-2.064,3.456-3.2,6.128-3.2,2.08,0,3.584,1.184,3.584,2.752a2.81,2.81,0,0,1-2,2.736,3.1,3.1,0,0,0-3.264-2.832,2.247,2.247,0,0,0-2.464,2.08c0,1.328,1.328,2.272,3.5,2.272,3.392,0,5.5-1.664,5.5-4.24,0-2.16-1.9-3.76-4.56-3.76a6.77,6.77,0,0,0-2.224.336c1.248-1.04,3.424-2.9,4.224-3.5.288-.24.608-.448.9-.656l-.736-.928a3.773,3.773,0,0,1-.864.128c-.848.08-4.656.208-5.488.208A9.54,9.54,0,0,1,42.208-11.792Z" transform="translate(31.727 16)" fill="#747474"/>
</svg>
