<svg id="nurse" xmlns="http://www.w3.org/2000/svg" width="50.146" height="26.959" viewBox="0 0 50.146 26.959">
  <path id="パス_1035" data-name="パス 1035" d="M49.746,126.555a41.018,41.018,0,0,0-49.349.1,1,1,0,0,0-.308,1.208L7.7,144.74a1,1,0,0,0,1.323.5,39.173,39.173,0,0,1,32.082-.064,1,1,0,0,0,1.319-.5l7.63-16.909A1,1,0,0,0,49.746,126.555Zm-8.735,16.4a41.192,41.192,0,0,0-31.893.062L2.241,127.779a39.08,39.08,0,0,1,45.663-.1Z" transform="translate(0 -118.369)" fill="#f4bbc3"/>
  <path id="パス_1036" data-name="パス 1036" d="M445.544,212.234a1.049,1.049,0,0,0-1.388.525l-.4.887a1.049,1.049,0,1,0,1.912.863l.4-.887A1.049,1.049,0,0,0,445.544,212.234Z" transform="translate(-400.545 -203.011)" fill="#f4bbc3"/>
  <path id="パス_1037" data-name="パス 1037" d="M400.548,255.07a1.049,1.049,0,0,0-1.387.525L395.819,263a1.049,1.049,0,1,0,1.912.863l3.342-7.405A1.049,1.049,0,0,0,400.548,255.07Z" transform="translate(-357.537 -241.936)" fill="#f4bbc3"/>
  <path id="パス_1038" data-name="パス 1038" d="M190.543,161.817h-3.7v-3.7a1.049,1.049,0,0,0-1.049-1.049h-5.08a1.049,1.049,0,0,0-1.049,1.049v3.7h-3.7a1.049,1.049,0,0,0-1.049,1.049v5.08a1.049,1.049,0,0,0,1.049,1.049h3.7v3.7a1.049,1.049,0,0,0,1.049,1.049h5.08a1.049,1.049,0,0,0,1.049-1.049v-3.7h3.7a1.049,1.049,0,0,0,1.049-1.049v-5.08A1.049,1.049,0,0,0,190.543,161.817Zm-1.049,5.08h-3.7a1.049,1.049,0,0,0-1.049,1.049v3.7h-2.983v-3.7a1.049,1.049,0,0,0-1.049-1.049h-3.7v-2.983h3.7a1.049,1.049,0,0,0,1.049-1.049v-3.7h2.983v3.7a1.049,1.049,0,0,0,1.049,1.049h3.7Z" transform="translate(-158.181 -153.089)" fill="#f4bbc3"/>
</svg>
