<svg id="icon-_magnifying_glass" data-name="icon- magnifying glass" xmlns="http://www.w3.org/2000/svg" width="49.993" height="49.773" viewBox="0 0 49.993 49.773">
  <path id="パス_1056" data-name="パス 1056" d="M18.251,40.5A18.3,18.3,0,0,1,0,22.251,18.254,18.254,0,0,1,18.251,4a18.251,18.251,0,0,1,0,36.5Zm0-4.1A14.165,14.165,0,1,1,28.27,32.27,14.093,14.093,0,0,1,18.251,36.4Z" transform="translate(0 -4)" fill="#767575" fill-rule="evenodd"/>
  <path id="パス_1057" data-name="パス 1057" d="M1046.57,1045.939a.908.908,0,0,1-.644-.264L1042,1041.75a16.929,16.929,0,0,0,1.875-1.67,17.429,17.429,0,0,0,1.816-2.08l3.955,3.955a.884.884,0,0,1,0,1.26.946.946,0,0,1-.615.234.817.817,0,0,1-.527-.176l-1.142,1.406a.91.91,0,0,1-.176,1A.893.893,0,0,1,1046.57,1045.939Z" transform="translate(-1011.474 -1007.708)" fill="#767575" fill-rule="evenodd"/>
  <path id="パス_1058" data-name="パス 1058" d="M1179.011,1178.819a3.675,3.675,0,0,1-2.666-1.113l-8.261-8.232a3.856,3.856,0,0,1,0-5.361,3.819,3.819,0,0,1,5.39,0l8.232,8.232a3.819,3.819,0,0,1,0,5.361A3.74,3.74,0,0,1,1179.011,1178.819Z" transform="translate(-1132.812 -1129.046)" fill="#767575" fill-rule="evenodd"/>
  <path id="パス_1059" data-name="パス 1059" d="M280.976,386.359a8.381,8.381,0,0,1,0-11.865.9.9,0,0,0,0-1.23.884.884,0,0,0-1.26,0,10.132,10.132,0,0,0,0,14.326.894.894,0,0,0,.615.264.879.879,0,0,0,.644-1.494Z" transform="translate(-268.642 -362.19)" fill="#767575" fill-rule="evenodd"/>
</svg>
