<svg id="bathtub" xmlns="http://www.w3.org/2000/svg" width="45.967" height="45.967" viewBox="0 0 45.967 45.967">
  <path id="パス_1040" data-name="パス 1040" d="M83.242,88a3.242,3.242,0,1,0,3.242,3.242A3.242,3.242,0,0,0,83.242,88Zm0,4.863a1.621,1.621,0,1,1,1.621-1.621A1.621,1.621,0,0,1,83.242,92.863Z" transform="translate(-72.407 -79.648)" fill="#f4bbc3"/>
  <path id="パス_1041" data-name="パス 1041" d="M186.432,112a2.432,2.432,0,1,0,2.432,2.432A2.432,2.432,0,0,0,186.432,112Zm0,3.242a.811.811,0,1,1,.811-.811A.811.811,0,0,1,186.432,115.242Z" transform="translate(-166.493 -101.344)" fill="#f4bbc3"/>
  <path id="パス_1042" data-name="パス 1042" d="M161.216,64a1.216,1.216,0,1,0,1.216,1.216A1.216,1.216,0,0,0,161.216,64Zm0,1.621a.405.405,0,1,1,.405-.405A.405.405,0,0,1,161.216,65.621Z" transform="translate(-144.725 -57.516)" fill="#f4bbc3"/>
  <path id="パス_1043" data-name="パス 1043" d="M45.946,26.9a1.907,1.907,0,0,0-1.086-1.432,5.019,5.019,0,0,0,.343-1.716,3.83,3.83,0,0,0-2.3-3.506V3.831a3.831,3.831,0,1,0-7.661,0v.018a4,4,0,0,0-3.831,3.813.766.766,0,0,0,.766.766h6.895a.766.766,0,0,0,.766-.766,3.907,3.907,0,0,0-3.064-3.682V3.831a2.3,2.3,0,1,1,4.6,0V19.919a3.7,3.7,0,0,0-1.014.142,6.507,6.507,0,0,0-12.194-.909,5.329,5.329,0,0,0-.865.1,3.808,3.808,0,0,0-6.245-1.277,6.5,6.5,0,0,0-9.694.591A5.359,5.359,0,0,0,5.1,21.482a3.81,3.81,0,0,0-4.329,3.8v.392a1.9,1.9,0,0,0,.843,3.407L2.1,33.7a10.925,10.925,0,0,0,6.289,8.528L8.08,43.443a2.032,2.032,0,0,0,3.662,1.619l1.016-1.524a14.657,14.657,0,0,0,1.866.13H31.349a14.657,14.657,0,0,0,1.866-.13l1.017,1.525a2.032,2.032,0,0,0,3.66-1.624l-.306-1.212A10.925,10.925,0,0,0,43.878,33.7l.486-4.621A1.907,1.907,0,0,0,45.946,26.9Zm-9-21.21a2.852,2.852,0,0,1,1.208,1.208H33.1A2.852,2.852,0,0,1,36.947,5.687ZM4.6,22.983a2.282,2.282,0,0,1,.726.132.766.766,0,0,0,.971-.481l.006-.018a3.826,3.826,0,0,1,4.784-2.527q.145.045.287.1A.766.766,0,0,0,12.3,19.9a4.968,4.968,0,0,1,8.179-.248.766.766,0,0,0,1.282-.08,2.281,2.281,0,0,1,4.253.756.766.766,0,0,0,1.02.6,3.807,3.807,0,0,1,1.317-.238c.077,0,.153.006.275.015a.783.783,0,0,0,.775-.511,4.974,4.974,0,0,1,9.634,1.039.766.766,0,0,0,1.158.562,2.261,2.261,0,0,1,1.182-.339,2.3,2.3,0,0,1,2.3,2.3,3.325,3.325,0,0,1-.4,1.532H2.3A2.3,2.3,0,0,1,4.6,22.983Zm5.868,21.228a.5.5,0,0,1-.9-.4l.244-.974a13.425,13.425,0,0,0,1.3.4Zm25.849.031h0a.487.487,0,0,1-.393.192.5.5,0,0,1-.415-.222l-.645-.971a13.591,13.591,0,0,0,1.3-.4l.244.972A.491.491,0,0,1,36.316,44.242Zm6.038-10.7c-.516,4.9-5.247,8.594-11.005,8.594H14.623c-5.758,0-10.489-3.694-11.005-8.594l-.467-4.43H42.82Zm1.7-5.962H1.918a.383.383,0,1,1,0-.766H44.054a.383.383,0,1,1,0,.766Z" transform="translate(-0.003)" fill="#f4bbc3"/>
  <path id="パス_1044" data-name="パス 1044" d="M328.81,104a.811.811,0,0,0-.81.811v2.432a.811.811,0,0,0,1.621,0v-2.432A.811.811,0,0,0,328.81,104Z" transform="translate(-296.653 -94.093)" fill="#f4bbc3"/>
  <path id="パス_1045" data-name="パス 1045" d="M352.811,96a.811.811,0,0,0-.811.811v1.621a.811.811,0,0,0,1.621,0V96.811A.811.811,0,0,0,352.811,96Z" transform="translate(-318.359 -86.845)" fill="#f4bbc3"/>
  <path id="パス_1046" data-name="パス 1046" d="M376.811,104a.811.811,0,0,0-.811.811v2.432a.811.811,0,0,0,1.621,0v-2.432A.811.811,0,0,0,376.811,104Z" transform="translate(-340.065 -94.093)" fill="#f4bbc3"/>
  <path id="パス_1047" data-name="パス 1047" d="M400.811,96a.811.811,0,0,0-.811.811v1.621a.811.811,0,1,0,1.621,0V96.811A.811.811,0,0,0,400.811,96Z" transform="translate(-362.139 -86.845)" fill="#f4bbc3"/>
</svg>
