<svg id="icon_search" xmlns="http://www.w3.org/2000/svg" width="26.541" height="26.424" viewBox="0 0 26.541 26.424">
  <path id="パス_1023" data-name="パス 1023" d="M9.689,23.379A9.689,9.689,0,0,0,16.533,6.831a9.706,9.706,0,0,0-13.7,0A9.7,9.7,0,0,0,9.689,23.379Zm0-2.177A7.52,7.52,0,1,0,4.37,19.009,7.482,7.482,0,0,0,9.689,21.2Z" transform="translate(7.162 -4)" fill="#f1899b" fill-rule="evenodd"/>
  <path id="パス_1024" data-name="パス 1024" d="M1043.773,1042.215a.481.481,0,0,0,.342-.14l2.084-2.084a9.02,9.02,0,0,1-1-.886,9.274,9.274,0,0,1-.964-1.1l-2.1,2.1a.469.469,0,0,0,0,.669.5.5,0,0,0,.326.124.431.431,0,0,0,.28-.093l.607.747a.484.484,0,0,0,.093.529A.474.474,0,0,0,1043.773,1042.215Z" transform="translate(-1035.864 -1021.918)" fill="#f1899b" fill-rule="evenodd"/>
  <path id="パス_1025" data-name="パス 1025" d="M1169.014,1171.4a1.95,1.95,0,0,0,1.415-.591l4.386-4.37a2.047,2.047,0,0,0,0-2.846,2.027,2.027,0,0,0-2.862,0l-4.37,4.37a2.028,2.028,0,0,0,0,2.846A1.986,1.986,0,0,0,1169.014,1171.4Z" transform="translate(-1167 -1144.974)" fill="#f1899b" fill-rule="evenodd"/>
  <path id="パス_1026" data-name="パス 1026" d="M276.878,380.092a4.449,4.449,0,0,0,0-6.3.48.48,0,0,1,0-.653.47.47,0,0,1,.669,0,5.379,5.379,0,0,1,0,7.605.475.475,0,0,1-.327.14.467.467,0,0,1-.342-.793Z" transform="translate(-256.885 -367.261)" fill="#f1899b" fill-rule="evenodd"/>
</svg>
