<svg id="stethoscope" xmlns="http://www.w3.org/2000/svg" width="50.146" height="47.741" viewBox="0 0 50.146 47.741">
  <path id="パス_1033" data-name="パス 1033" d="M50.085,38.26a5.85,5.85,0,0,0-4.955-4.955V31.786a7.377,7.377,0,0,0-7.1-7.605,7.4,7.4,0,0,0-7.1,7.378h.048l-.048.008v16.47c0,5.265-3.936,9.541-8.775,9.541s-8.775-4.282-8.775-9.541V46.61c1.212,0,2.507-.878,2.507-3.343v-2.1a11.852,11.852,0,0,0,9.193-11.2V28.224H23.4l-.035-10.877a4.183,4.183,0,0,0-3.438-4.091,2.494,2.494,0,1,0-.057,1.7,2.507,2.507,0,0,1,1.821,2.392l.038,10.872H20.058v1.767a6.646,6.646,0,0,1-4.811,6.236,7.6,7.6,0,0,1-4.6,0,6.642,6.642,0,0,1-4.8-6.236V28.224H3.343V17.359A2.507,2.507,0,0,1,5.2,14.949a2.519,2.519,0,1,0-.052-1.7,4.179,4.179,0,0,0-3.475,4.108V28.224H0v1.738a11.851,11.851,0,0,0,9.193,11.2v2.1c0,2.465,1.3,3.343,2.507,3.343v1.427c0,6.185,4.686,11.212,10.447,11.212s10.447-5.034,10.447-11.212V31.607a5.719,5.719,0,0,1,5.432-5.752,5.706,5.706,0,0,1,5.432,5.934v1.517a5.85,5.85,0,1,0,6.626,4.955ZM17.551,14.852a.836.836,0,1,1,.836-.836A.836.836,0,0,1,17.551,14.852ZM7.522,13.18a.836.836,0,1,1-.836.836A.836.836,0,0,1,7.522,13.18ZM1.671,29.962V29.9H4.179v.1a8.3,8.3,0,0,0,5.966,7.825,9.3,9.3,0,0,0,5.615,0,8.306,8.306,0,0,0,5.971-7.825v-.1H23.4v.067c0,4.649-3.584,8.74-8.525,9.73a11.922,11.922,0,0,1-3.526.173A10.918,10.918,0,0,1,10.2,39.69C5.255,38.7,1.671,34.611,1.671,29.962ZM11.7,44.939c-.752,0-.836-1.17-.836-1.671V41.494c.067.008.135.012.2.018.084.009.167.016.251.023.4.035.794.059,1.2.059h.042c.4,0,.8-.024,1.192-.059.084-.008.172-.014.258-.023.066-.008.135-.01.2-.018v1.773c0,.5-.084,1.671-.836,1.671Zm32.594-1.671a4.179,4.179,0,1,1,4.179-4.179A4.179,4.179,0,0,1,44.295,43.267Z" transform="translate(0 -11.508)" fill="#f4bbc3"/>
  <path id="パス_1034" data-name="パス 1034" d="M402.652,251.515a2.652,2.652,0,1,0,2.652,2.652A2.652,2.652,0,0,0,402.652,251.515Zm0,3.536a.884.884,0,1,1,.884-.884A.884.884,0,0,1,402.652,255.051Z" transform="translate(-365.598 -227.806)" fill="#f4bbc3"/>
</svg>
