<svg xmlns="http://www.w3.org/2000/svg" width="99" height="99" viewBox="0 0 99 99">
  <g id="グループ_1382" data-name="グループ 1382" transform="translate(-1736 -843)">
    <g id="chat_1_" data-name="chat (1)" transform="translate(1736 843)">
      <g id="グループ_1376" data-name="グループ 1376">
        <path id="パス_2283" data-name="パス 2283" d="M14.5,14.5A49.5,49.5,0,0,1,92.769,73.554l6.183,22.829-2.569,2.569L73.553,92.769A49.5,49.5,0,0,1,14.5,14.5Z" transform="translate(0 0)" fill="#f5b9c5"/>
      </g>
    </g>
    <path id="パス_2289" data-name="パス 2289" d="M-21.376-8.064h1.616V-9.872h-1.616v-3.472h-1.776v3.472h-1.872v1.808h1.872v4.512c-.8.3-1.5.576-2.08.784l.768,1.92c1.472-.672,3.3-1.536,4.992-2.384l-.432-1.68c-.48.208-.976.416-1.472.624ZM-15.92-.608c-.976,0-1.12-.144-1.12-1.072V-6.624l1.328-.576v4.88h1.776V-7.968l1.376-.608c0,2.272-.016,3.44-.048,3.7-.064.288-.16.352-.352.352a7.28,7.28,0,0,1-.768-.032,5.11,5.11,0,0,1,.4,1.6,4.461,4.461,0,0,0,1.664-.224,1.365,1.365,0,0,0,.816-1.328c.08-.656.112-2.576.112-5.616l.064-.32L-12-10.912l-.336.224-.336.224-1.264.544v-3.648h-1.776v4.416l-1.328.56v-3.424h-1.824v4.208l-1.568.656.7,1.7.864-.368v4.112c0,2.208.624,2.8,2.784,2.8h3.408c1.872,0,2.432-.768,2.688-3.008a4.816,4.816,0,0,1-1.664-.688c-.144,1.632-.3,2-1.184,2ZM1.1-7.872A10.475,10.475,0,0,0,0-10.656l-1.488.5A11.744,11.744,0,0,1-.48-7.28Zm1.344-2.384A12.435,12.435,0,0,1-.16-5.808C-1.072-6.272-2-6.7-2.832-7.04l1.216-.544A11.609,11.609,0,0,0-2.96-10.256l-1.424.608A13.015,13.015,0,0,1-3.136-6.912l.176-.08-.976,1.216c.784.336,1.632.736,2.464,1.184a12.833,12.833,0,0,1-3.12,1.84,8.878,8.878,0,0,1,1.2,1.536A14.78,14.78,0,0,0,.224-3.648,18.6,18.6,0,0,1,2.976-1.712L4.128-3.2A18.654,18.654,0,0,0,1.472-4.944,15.635,15.635,0,0,0,4.256-9.792Zm-7.312,9.12v-9.9h9.7v9.9Zm-1.9-11.728V1.344h1.9V.688h9.7v.656H6.816V-12.864Zm31.2,7.232a6.093,6.093,0,0,0-6.464-6.24,7.109,7.109,0,0,0-7.344,6.848c0,2.7,1.472,4.656,3.248,4.656,1.744,0,3.12-1.984,4.08-5.216a32.358,32.358,0,0,0,.96-4.336A3.955,3.955,0,0,1,22.272-5.7a4.342,4.342,0,0,1-3.648,4.288,12.306,12.306,0,0,1-1.488.256l1.2,1.9C22.368.128,24.432-2.256,24.432-5.632Zm-11.76.4a5.036,5.036,0,0,1,4.064-4.64A24.016,24.016,0,0,1,15.888-6c-.656,2.16-1.28,3.168-1.952,3.168C13.312-2.832,12.672-3.616,12.672-5.232ZM-37.6,15.328l-1.216.32V13.216h1.232V11.472h-1.232V8.464H-40.64v3.008H-42.5v1.744h1.856V16.1c-.816.192-1.568.368-2.176.5l.4,1.84,1.776-.48v3.28c0,.24-.08.3-.272.3-.208.016-.864.016-1.488-.016a6.913,6.913,0,0,1,.528,1.856,4.726,4.726,0,0,0,2.384-.384c.512-.288.672-.8.672-1.744V17.44c.48-.144.96-.272,1.424-.416Zm2.336-2.608h7.28V10.992H-31.52V8.464h-1.888v2.528h-3.664v3.7c0,2.24-.16,5.424-1.728,7.6a7.464,7.464,0,0,1,1.536,1.056c1.7-2.384,2-6.144,2-8.64Zm7.7,10.016a24.189,24.189,0,0,0-2.16-5.92l-1.616.512a27.964,27.964,0,0,1,1.184,2.928c-.912.1-1.84.176-2.72.272.544-1.92,1.12-4.448,1.52-6.7l-1.984-.3a52.626,52.626,0,0,1-1.376,7.168l-1.232.1.32,1.76c1.648-.176,3.856-.432,5.968-.672a12.848,12.848,0,0,1,.32,1.456ZM-10.5,14.7V12.736h-6.288c.16-1.488.176-2.96.192-4.272h-2.08c-.016,1.312,0,2.768-.16,4.272h-5.824V14.7h5.5a9.592,9.592,0,0,1-5.808,7.04,5.637,5.637,0,0,1,1.424,1.616,11.013,11.013,0,0,0,5.984-6.8,11.934,11.934,0,0,0,6,6.784,7.657,7.657,0,0,1,1.408-1.792A10.677,10.677,0,0,1-16.128,14.7ZM0,13.872a2.048,2.048,0,0,0,0,4.1A2.062,2.062,0,0,0,2.048,15.92,2.062,2.062,0,0,0,0,13.872Zm10.672,3.936a11.661,11.661,0,0,1-.816,3.712,8.493,8.493,0,0,1,1.328.64,13.544,13.544,0,0,0,.944-4.112Zm3.312.288a12.264,12.264,0,0,1,.736,2.928l1.328-.416a11.244,11.244,0,0,0-.816-2.88Zm9.024.3h-2.24V17.056h2.24Zm-2.24,2.848V19.856h2.24v1.392ZM24.9,14.432V12.944h-5.84l.08-.288-1.6-.4v-.784H23.1v1.12h1.76V9.9h-3.6V8.416h-1.92V9.9H15.856v2.912h1.536a14.5,14.5,0,0,1-1.28,3.216,14.528,14.528,0,0,0-.992-2.56l-1.264.5a11.736,11.736,0,0,1,.5,1.2l-1.472.1c.96-1.28,2-2.88,2.832-4.24l-1.5-.688c-.368.784-.848,1.712-1.376,2.608a8.239,8.239,0,0,0-.512-.656c.56-.9,1.216-2.16,1.792-3.264L12.5,8.464a19.792,19.792,0,0,1-1.152,2.784c-.128-.128-.256-.256-.384-.368l-.912,1.232a13.565,13.565,0,0,1,1.856,2.32c-.208.32-.432.64-.64.928-.464.016-.88.048-1.264.064l.192,1.648,2.112-.16v6.48h1.6V16.784l.912-.08a3.914,3.914,0,0,1,.1.544l.576-.256-.144.192a9.987,9.987,0,0,1,.928,1.28q.264-.312.528-.672V23.36h1.536V14.928c.224-.528.416-1.072.592-1.6v1.1h1.984c-.048.384-.128.784-.192,1.152h-1.5v7.76h1.552v-.608h2.24v.528h1.616v-7.68H22.416c.112-.368.208-.752.32-1.152Zm9.328-5.76V21.008c0,.3-.128.416-.48.416-.352.016-1.536.016-2.576-.032a8.562,8.562,0,0,1,.752,1.984,9.784,9.784,0,0,0,3.392-.368c.7-.3.976-.832.976-2V8.672Zm3.808,4.176a27.509,27.509,0,0,1,2.8,7.28l2.08-.816A27.982,27.982,0,0,0,39.9,12.144Zm-8-.528a15.494,15.494,0,0,1-2.416,6.5,16.025,16.025,0,0,1,1.856.992c1.328-1.76,2.192-4.736,2.736-7.12Z" transform="translate(1786 885)" fill="#0e0e0e"/>
  </g>
</svg>
