<svg id="carer" xmlns="http://www.w3.org/2000/svg" width="38" height="39.372" viewBox="0 0 38 39.372">
  <path id="パス_1039" data-name="パス 1039" d="M77.388,7.651C80.442,4.667,77.934,0,73.292,0c-4.486,0-7.033,4.389-4.322,7.416l-6.07,2.2L62.386,8.7a4.556,4.556,0,0,0,2.758-4.014c0-2.544-2.437-4.614-5.432-4.614-3.8,0-6.44,3.247-5.07,6.268-5.055,1.37-8.51,5.363-8.51,9.892V32.374a1.268,1.268,0,0,0,1.358,1.153h3.746l.782,4.847a1.3,1.3,0,0,0,1.345,1h5.444a1.3,1.3,0,0,0,1.345-1l.782-4.847h.136a1.268,1.268,0,0,0,1.358-1.153V19.595l4.238,1.015a3.481,3.481,0,0,0,1.2.587v4.228a1.265,1.265,0,0,0,1.342,1.153V38.218a1.268,1.268,0,0,0,1.358,1.153H81.428a1.268,1.268,0,0,0,1.358-1.153V26.577a1.266,1.266,0,0,0,1.346-1.153V14.848C84.132,11.371,81.282,8.411,77.388,7.651Zm4.028,16.62H70.58v-2.85c5.637.285,5.258.269,5.472.269a4.9,4.9,0,0,0,4.777-3.063l.587-1.737ZM73.292,2.307a2.542,2.542,0,0,1,2.716,2.314,2.751,2.751,0,0,1-5.432,0,2.542,2.542,0,0,1,2.716-2.314ZM70.776,9.27l5.353.532a6.238,6.238,0,0,1,4.155,2.074L78.219,17.99a2.256,2.256,0,0,1-2.31,1.389l-7.082-.358a.5.5,0,1,1,0-.991l5.93-.393a1.333,1.333,0,0,0,1.192-.81L77.2,13.394a1.133,1.133,0,0,0-.9-1.443,1.414,1.414,0,0,0-1.7.762L73.629,15.4l-2.768.184-6-2.518-.778-1.372ZM59.712,2.384a2.54,2.54,0,0,1,2.716,2.307,2.752,2.752,0,0,1-5.432,0A2.54,2.54,0,0,1,59.712,2.384ZM48.848,16.237c0-3.856,3.145-7.122,7.539-7.9a6.04,6.04,0,0,0,3.324.969l2.9,5.119a1.272,1.272,0,0,0,.622.533l3.471,1.456a2.767,2.767,0,0,0-1.072,1.553l-3.777-.9-4.707-5.016a1.526,1.526,0,0,0-1.908-.183,1.041,1.041,0,0,0-.215,1.621l4.683,4.99V31.22H48.848V16.237Zm8.774,20.828H54.547l-.57-3.537h4.215Zm19.732,0v-7a1.376,1.376,0,0,0-2.716,0v7H71.922V26.578H80.07V37.065Z" transform="translate(-46.132)" fill="#f4bbc3"/>
</svg>
