<svg xmlns="http://www.w3.org/2000/svg" width="101.65" height="88.243" viewBox="0 0 101.65 88.243">
  <g id="グループ_1385" data-name="グループ 1385" transform="translate(0 0)">
    <g id="oval-black-speech-bubble_1_" data-name="oval-black-speech-bubble (1)" transform="translate(0 -2.374)" opacity="0.99">
      <g id="グループ_297" data-name="グループ 297" transform="translate(0 2.374)">
        <path id="パス_1233" data-name="パス 1233" d="M99.326,43.947c0,10.2-4.5,19.517-11.911,26.7V88.293l-17.647-6.75a57.662,57.662,0,0,1-19.856,3.48C22.624,85.022.5,66.632.5,43.949S22.624,2.874,49.913,2.874,99.326,21.264,99.326,43.947Z" transform="translate(0.912 -1.462)" fill="#ef8a9e"/>
        <path id="パス_1234" data-name="パス 1234" d="M88.328,90.617a1.418,1.418,0,0,1-.506-.093L70.667,83.963a58.936,58.936,0,0,1-19.841,3.386C22.8,87.346,0,68.287,0,44.862S22.8,2.374,50.825,2.374,101.65,21.433,101.65,44.859c0,9.973-4.225,19.641-11.911,27.292V89.2a1.413,1.413,0,0,1-1.412,1.412ZM70.681,81.042a1.418,1.418,0,0,1,.506.093l15.729,6.016V71.558a1.41,1.41,0,0,1,.429-1.014c7.4-7.177,11.478-16.3,11.478-25.685,0-21.869-21.533-39.66-48-39.66s-48,17.791-48,39.663,21.533,39.663,48,39.663a56.053,56.053,0,0,0,19.37-3.395A1.379,1.379,0,0,1,70.681,81.042Z" transform="translate(0 -2.374)" fill="#ef8a9e"/>
      </g>
    </g>
    <text id="支援者を_検索する" data-name="支援者を
検索する" transform="translate(51.65 38)" fill="#fff" font-size="15" font-family="SourceHanSans-Regular, Source Han Sans"><tspan x="-30" y="0">支援者を</tspan><tspan x="-30" y="20">検索する</tspan></text>
  </g>
</svg>
