<svg xmlns="http://www.w3.org/2000/svg" width="45" height="48.769" viewBox="0 0 45 48.769">
  <g id="timer" transform="translate(-19.78 0.002)">
    <path id="パス_1011" data-name="パス 1011" d="M42.28,45.432A19.163,19.163,0,0,1,40.6,7.179l-1.5,1.4a1.668,1.668,0,1,0,2.276,2.438l3.9-3.643a2.247,2.247,0,0,0,0-3.286L41.375.447A1.668,1.668,0,1,0,39.1,2.886l1.052.981a22.5,22.5,0,0,0-13.779,38.31,22.35,22.35,0,0,0,15.9,6.59h.01a1.668,1.668,0,1,0,0-3.336Z" transform="translate(0 0)" fill="#2680eb"/>
    <circle id="楕円形_66" data-name="楕円形 66" cx="1.668" cy="1.668" r="1.668" transform="translate(61.444 24.599)" fill="#2680eb"/>
    <circle id="楕円形_67" data-name="楕円形 67" cx="1.668" cy="1.668" r="1.668" transform="translate(46.012 44.725)" fill="#2680eb"/>
    <path id="パス_1012" data-name="パス 1012" d="M451.458,314.89a1.668,1.668,0,1,0,1.668,1.668A1.668,1.668,0,0,0,451.458,314.89Z" transform="translate(-389.051 -284.897)" fill="#2680eb"/>
    <path id="パス_1013" data-name="パス 1013" d="M349.558,447.69a1.668,1.668,0,1,0,1.668,1.668A1.668,1.668,0,0,0,349.558,447.69Z" transform="translate(-296.857 -405.048)" fill="#2680eb"/>
    <path id="パス_1014" data-name="パス 1014" d="M429.6,367.62a1.668,1.668,0,1,0,1.668,1.668A1.668,1.668,0,0,0,429.6,367.62Z" transform="translate(-369.273 -332.605)" fill="#2680eb"/>
    <path id="パス_1015" data-name="パス 1015" d="M394.818,412.91a1.668,1.668,0,1,0,1.668,1.668A1.668,1.668,0,0,0,394.818,412.91Z" transform="translate(-337.806 -373.581)" fill="#2680eb"/>
    <path id="パス_1016" data-name="パス 1016" d="M249.834,172.876a1.668,1.668,0,0,0-1.668-1.668h-5.719a1.193,1.193,0,0,1-1.192-1.192v-8.578a1.668,1.668,0,0,0-3.336,0v8.578a4.532,4.532,0,0,0,4.527,4.527h5.719A1.668,1.668,0,0,0,249.834,172.876Z" transform="translate(-197.362 -144.553)" fill="#2680eb"/>
  </g>
</svg>
