<svg id="support" xmlns="http://www.w3.org/2000/svg" width="47" height="47" viewBox="0 0 47 47">
  <path id="パス_1017" data-name="パス 1017" d="M51.75,0A11.75,11.75,0,0,0,40,11.75v8.617a5.49,5.49,0,0,0,5.483,5.483h.783V24.283h-.783a3.921,3.921,0,0,1-3.917-3.917V11.75a10.183,10.183,0,1,1,20.367,0v8.617a3.921,3.921,0,0,1-3.917,3.917h-.783V25.85h.783A5.49,5.49,0,0,0,63.5,20.367V11.75A11.75,11.75,0,0,0,51.75,0Z" transform="translate(-36.083)" fill="#307ec6"/>
  <path id="パス_1018" data-name="パス 1018" d="M42.541,360.989l.573-.9-1.323-.84-.573.9a7.808,7.808,0,0,0,.324,8.838v2.083h1.567v-2.35a.783.783,0,0,0-.172-.49A6.241,6.241,0,0,1,42.541,360.989Z" transform="translate(-36.086 -324.072)" fill="#307ec6"/>
  <path id="パス_1019" data-name="パス 1019" d="M310.1,0H299.917A3.921,3.921,0,0,0,296,3.917V11.75a3.921,3.921,0,0,0,3.917,3.917h1.567V18.8a.783.783,0,0,0,.483.724.773.773,0,0,0,.3.06.783.783,0,0,0,.554-.23l3.687-3.687H310.1a3.921,3.921,0,0,0,3.917-3.917V3.917A3.921,3.921,0,0,0,310.1,0Zm2.35,11.75a2.35,2.35,0,0,1-2.35,2.35h-3.917a.783.783,0,0,0-.554.23l-2.579,2.58V14.883a.783.783,0,0,0-.783-.783h-2.35a2.35,2.35,0,0,1-2.35-2.35V3.917a2.35,2.35,0,0,1,2.35-2.35H310.1a2.35,2.35,0,0,1,2.35,2.35Z" transform="translate(-267.017)" fill="#307ec6"/>
  <rect id="長方形_123" data-name="長方形 123" width="5.739" height="1.722" transform="translate(33.287 3.956)" fill="#307ec6"/>
  <rect id="長方形_124" data-name="長方形 124" width="3.443" height="1.722" transform="translate(40.748 3.956)" fill="#307ec6"/>
  <rect id="長方形_125" data-name="長方形 125" width="10.904" height="1.722" transform="translate(33.287 6.252)" fill="#307ec6"/>
  <rect id="長方形_126" data-name="長方形 126" width="5.739" height="1.148" transform="translate(33.287 10.843)" fill="#307ec6"/>
  <path id="パス_1020" data-name="パス 1020" d="M250.12,360.15l-.573-.9-1.323.84.573.9a6.239,6.239,0,0,1-.4,7.242.784.784,0,0,0-.172.49v2.35H249.8v-2.083A7.808,7.808,0,0,0,250.12,360.15Z" transform="translate(-223.919 -324.072)" fill="#307ec6"/>
  <path id="パス_1021" data-name="パス 1021" d="M46.216,89.641h-7.05a5.483,5.483,0,0,0-5.472,5.26l-2.361,4.25V95.907a5.49,5.49,0,0,0-5.483-5.483H22.987l-.021-.016-.014.016h-1.8a1.567,1.567,0,0,1-1.567-1.567V87.014A7.834,7.834,0,0,0,23.5,80.241V73.974a7.849,7.849,0,0,0-.94-3.718.783.783,0,0,0-1.018-.337L8.283,76.158a.783.783,0,0,0-.45.709v3.374a7.834,7.834,0,0,0,3.917,6.773v1.843a1.567,1.567,0,0,1-1.567,1.567h-4.7A5.49,5.49,0,0,0,0,95.907v14.1H1.567v-14.1a3.921,3.921,0,0,1,3.917-3.917H7.976l7.054,9.856a.783.783,0,0,0,.627.327h.01a.783.783,0,0,0,.627-.313l7.442-9.87H25.85a3.921,3.921,0,0,1,3.917,3.917v6.267a.783.783,0,0,0,1.468.38l3.693-6.647h4.491l-7.637,14.1h1.782l7.641-14.1h.313A5.49,5.49,0,0,0,47,90.424.783.783,0,0,0,46.216,89.641ZM9.4,80.241V77.364l12.1-5.692a6.267,6.267,0,0,1,.438,2.3v6.267a6.267,6.267,0,0,1-12.533,0Zm6.283,19.828-2.417-3.378h4.963Zm3.731-4.944H12.142L9.9,91.991h.284a3.133,3.133,0,0,0,3.133-3.133V87.713a7.827,7.827,0,0,0,4.7,0v1.144a3.133,3.133,0,0,0,3.133,3.133h.627Zm22.1-.783H35.328a3.923,3.923,0,0,1,3.838-3.133h6.188A3.923,3.923,0,0,1,41.516,94.341Z" transform="translate(0 -63.007)" fill="#307ec6"/>
</svg>
