<svg xmlns="http://www.w3.org/2000/svg" width="49.219" height="51" viewBox="0 0 49.219 51">
  <g id="information" transform="translate(-8.941)">
    <g id="グループ_1203" data-name="グループ 1203" transform="translate(8.941)">
      <g id="グループ_1202" data-name="グループ 1202">
        <path id="パス_2117" data-name="パス 2117" d="M227.29,79.231a3.764,3.764,0,1,0-3.764-3.764A3.768,3.768,0,0,0,227.29,79.231Zm0-6.034a2.27,2.27,0,1,1-2.27,2.27A2.272,2.272,0,0,1,227.29,73.2Z" transform="translate(-202.151 -64.561)" fill="#f3a4b2"/>
        <path id="パス_2118" data-name="パス 2118" d="M19.893,43.233a23.461,23.461,0,0,1-6.915-8.113A23.1,23.1,0,0,1,33.55,1.494,22.657,22.657,0,0,1,43.9,3.973a.747.747,0,0,0,.676-1.332A24.136,24.136,0,0,0,33.55,0a24.586,24.586,0,0,0-21.9,35.8,24.965,24.965,0,0,0,7.357,8.632.747.747,0,0,0,.886-1.2Z" transform="translate(-8.941 0)" fill="#f3a4b2"/>
        <path id="パス_2119" data-name="パス 2119" d="M168.4,80.629a24.546,24.546,0,0,0-4.7-35.708.747.747,0,0,0-.871,1.214,23.051,23.051,0,0,1,4.424,33.54,8.387,8.387,0,0,0-1.8,3.788,8.936,8.936,0,0,0,.12,4.379,1.5,1.5,0,0,1-.36,1.528,1.46,1.46,0,0,1-1.474.394,20.58,20.58,0,0,1-4.53-1.945A5.146,5.146,0,0,0,155.3,87.3a23.21,23.21,0,0,1-6.092.747,22.75,22.75,0,0,1-10.45-2.634.747.747,0,0,0-.7,1.323,24.23,24.23,0,0,0,11.13,2.805,24.71,24.71,0,0,0,6.484-.795,3.662,3.662,0,0,1,2.78.368,22.092,22.092,0,0,0,4.864,2.088,3.033,3.033,0,0,0,.844.121,2.935,2.935,0,0,0,2.117-.908,3.013,3.013,0,0,0,.712-3.025,7.222,7.222,0,0,1-.075-3.648A6.891,6.891,0,0,1,168.4,80.629Z" transform="translate(-124.841 -40.32)" fill="#f3a4b2"/>
        <path id="パス_2120" data-name="パス 2120" d="M183.8,185.589v.75a2.592,2.592,0,0,0,2.589,2.589h10.264a2.592,2.592,0,0,0,2.589-2.589v-.75A2.592,2.592,0,0,0,196.652,183h-1.368V168.651a2.546,2.546,0,0,0-3.547-2.341,11.291,11.291,0,0,1-3.89.9l-2.355.117A1.78,1.78,0,0,0,183.8,169.1v1.473a1.783,1.783,0,0,0,1.781,1.781h2.066a.11.11,0,0,1,.11.11V183h-1.368A2.592,2.592,0,0,0,183.8,185.589Zm4.7-1.095a.747.747,0,0,0,.747-.747v-11.28a1.606,1.606,0,0,0-1.6-1.6H185.58a.287.287,0,0,1-.287-.287V169.1a.287.287,0,0,1,.273-.287l2.355-.117a12.781,12.781,0,0,0,4.4-1.016,1.052,1.052,0,0,1,1.466.968v15.1a.747.747,0,0,0,.747.747h2.115a1.1,1.1,0,0,1,1.095,1.095v.75a1.1,1.1,0,0,1-1.095,1.095H186.388a1.1,1.1,0,0,1-1.095-1.095v-.75a1.1,1.1,0,0,1,1.095-1.095Z" transform="translate(-166.381 -149.558)" fill="#f3a4b2"/>
      </g>
    </g>
  </g>
</svg>
