<svg id="teamwork" xmlns="http://www.w3.org/2000/svg" width="45" height="45" viewBox="0 0 45 45">
  <path id="パス_1027" data-name="パス 1027" d="M39.673,229.907a5.449,5.449,0,1,0-6.573,0,8.592,8.592,0,0,0-2.908,1.979,8.666,8.666,0,0,0-4.405-4.087,5.449,5.449,0,1,0-6.572,0,8.666,8.666,0,0,0-4.405,4.087,8.591,8.591,0,0,0-2.908-1.979,5.449,5.449,0,1,0-6.573,0A8.626,8.626,0,0,0,0,237.869v5.1a.879.879,0,0,0,.879.879H44.121a.879.879,0,0,0,.879-.879v-5.1A8.626,8.626,0,0,0,39.673,229.907ZM4.922,225.564a3.691,3.691,0,1,1,3.691,3.691A3.7,3.7,0,0,1,4.922,225.564Zm8.965,10.2v6.328H1.758v-4.219a6.854,6.854,0,0,1,12.358-4.086A8.607,8.607,0,0,0,13.887,235.76Zm4.922-12.3a3.691,3.691,0,1,1,3.691,3.691A3.7,3.7,0,0,1,18.809,223.455Zm10.547,18.632H27.612v-2.771a.879.879,0,1,0-1.758,0v2.771H15.645V235.76a6.855,6.855,0,1,1,13.711,0Zm3.34-16.523a3.691,3.691,0,1,1,3.691,3.691A3.7,3.7,0,0,1,32.7,225.564Zm10.547,16.523H31.113V235.76a8.607,8.607,0,0,0-.229-1.977,6.854,6.854,0,0,1,12.358,4.086Z" transform="translate(0 -198.846)" fill="#2680eb"/>
  <path id="パス_1028" data-name="パス 1028" d="M308.2,28.129a.879.879,0,0,0-1.243,0l-3.016,3.016a.879.879,0,0,0,1.243,1.243l3.016-3.016A.879.879,0,0,0,308.2,28.129Z" transform="translate(-276.995 -25.423)" fill="#2680eb"/>
  <path id="パス_1029" data-name="パス 1029" d="M158.514,31.146,155.5,28.13a.879.879,0,0,0-1.243,1.243l3.016,3.016a.879.879,0,0,0,1.243-1.243Z" transform="translate(-140.463 -25.423)" fill="#2680eb"/>
  <path id="パス_1030" data-name="パス 1030" d="M246.879,0A.879.879,0,0,0,246,.879V2.767a.879.879,0,0,0,1.758,0V.879A.879.879,0,0,0,246.879,0Z" transform="translate(-224.379 0)" fill="#2680eb"/>
  <path id="パス_1031" data-name="パス 1031" d="M191.285,61.462a1.29,1.29,0,0,0-1.048-.883l-3.19-.464-1.427-2.891a1.3,1.3,0,0,0-2.328,0l-1.427,2.891-3.19.464a1.3,1.3,0,0,0-.72,2.214l2.309,2.25-.545,3.178a1.3,1.3,0,0,0,1.884,1.369l2.854-1.5,2.854,1.5a1.3,1.3,0,0,0,1.884-1.369l-.545-3.178,2.309-2.25A1.29,1.29,0,0,0,191.285,61.462Zm-4.037,2.491a1.3,1.3,0,0,0-.373,1.149l.428,2.5-2.243-1.179a1.3,1.3,0,0,0-1.208,0L181.609,67.6l.428-2.5a1.3,1.3,0,0,0-.373-1.149l-1.815-1.769,2.508-.364a1.3,1.3,0,0,0,.978-.71l1.122-2.273,1.219,2.47a.879.879,0,0,0,.661.481l2.727.4Z" transform="translate(-161.956 -51.534)" fill="#2680eb"/>
  <path id="パス_1032" data-name="パス 1032" d="M295.67,411.8a.879.879,0,1,0,.258.622A.886.886,0,0,0,295.67,411.8Z" transform="translate(-268.315 -375.369)" fill="#2680eb"/>
</svg>
