<svg xmlns="http://www.w3.org/2000/svg" width="99" height="99" viewBox="0 0 99 99">
  <g id="グループ_1377" data-name="グループ 1377" transform="translate(-1736 -843)">
    <g id="chat_1_" data-name="chat (1)" transform="translate(1736 843)">
      <g id="グループ_1376" data-name="グループ 1376">
        <path id="パス_2283" data-name="パス 2283" d="M14.5,14.5A49.5,49.5,0,0,1,92.769,73.554l6.183,22.829-2.569,2.569L73.553,92.769A49.5,49.5,0,0,1,14.5,14.5Z" transform="translate(0 0)" fill="#f5b9c5"/>
      </g>
    </g>
    <path id="パス_2290" data-name="パス 2290" d="M6.368-4.224c-.624.176-1.28.352-1.9.528V-6.432H6.128V-8.176H4.464V-10.96H6.3v-1.76H.7v1.76h1.92v2.784H.848v1.744H2.624v3.216c-.864.224-1.648.432-2.3.576l.5,1.792c1.648-.48,3.792-1.1,5.808-1.7ZM8.7-6.528H12.88v.992H8.7Zm0-2.432H12.88v.992H8.7Zm0-2.432H12.88v.992H8.7ZM13.072-.32c-.272,0-.3-.064-.3-.528V-3.984h1.968v-8.96H6.928v8.96H8.1C7.888-2.112,7.376-.8,4.48-.08A5.635,5.635,0,0,1,5.536,1.488C8.944.48,9.68-1.376,9.968-3.984h.976V-.848c0,1.616.32,2.16,1.792,2.16h1.2c1.184,0,1.6-.592,1.76-2.784a4.892,4.892,0,0,1-1.584-.7C14.08-.576,14-.32,13.728-.32Zm15.808-4.1h3.168v-1.76H28.88V-8.832H26.96v2.656H23.712v1.76H26.96V-.768H23.088V.992h9.584V-.768H28.88Zm-3.952-6.928c.224-.576.432-1.152.608-1.744l-2-.48c-.192.736-.432,1.472-.7,2.224h-4.32V-9.52h3.472A12.126,12.126,0,0,1,18-4.912a13.3,13.3,0,0,1,.944,1.84,12.015,12.015,0,0,0,1.408-1.12V1.376h1.936V-6.368A18.391,18.391,0,0,0,24.16-9.52h8.56v-1.824Zm14.5,3.28H41.04V-9.872H39.424v-3.472H37.648v3.472H35.776v1.808h1.872v4.512c-.8.3-1.5.576-2.08.784l.768,1.92c1.472-.672,3.3-1.536,4.992-2.384L40.9-4.912c-.48.208-.976.416-1.472.624ZM44.88-.608c-.976,0-1.12-.144-1.12-1.072V-6.624L45.088-7.2v4.88h1.776V-7.968l1.376-.608c0,2.272-.016,3.44-.048,3.7-.064.288-.16.352-.352.352a7.28,7.28,0,0,1-.768-.032,5.109,5.109,0,0,1,.4,1.6,4.461,4.461,0,0,0,1.664-.224,1.365,1.365,0,0,0,.816-1.328c.08-.656.112-2.576.112-5.616l.064-.32L48.8-10.912l-.336.224-.336.224-1.264.544v-3.648H45.088v4.416l-1.328.56v-3.424H41.936v4.208l-1.568.656.7,1.7.864-.368v4.112c0,2.208.624,2.8,2.784,2.8h3.408C50,1.088,50.56.32,50.816-1.92a4.816,4.816,0,0,1-1.664-.688c-.144,1.632-.3,2-1.184,2Zm15.7-12.224-2.112-.176a8.9,8.9,0,0,1-.32,1.84h-.768a20.819,20.819,0,0,1-2.816-.192v1.872c.88.064,2.048.1,2.7.1h.208a15.7,15.7,0,0,1-3.536,4.416L55.648-3.7a18.422,18.422,0,0,1,1.488-1.76,3.9,3.9,0,0,1,2.5-1.1,1.231,1.231,0,0,1,1.12.544c-1.824.944-3.744,2.224-3.744,4.272C57.008.32,58.864.928,61.376.928A40.025,40.025,0,0,0,65.9.656l.064-2.064a26.174,26.174,0,0,1-4.544.448c-1.568,0-2.32-.24-2.32-1.12,0-.8.64-1.424,1.84-2.112-.016.7-.032,1.472-.08,1.952h1.92c-.016-.736-.048-1.92-.064-2.816.976-.448,1.888-.8,2.608-1.088.544-.208,1.392-.528,1.9-.672l-.8-1.856c-.592.3-1.152.56-1.776.832-.656.288-1.328.56-2.16.944a2.167,2.167,0,0,0-2.128-1.232,5.421,5.421,0,0,0-1.808.32,11.171,11.171,0,0,0,.912-1.632,47.662,47.662,0,0,0,5.216-.4L64.7-11.7a40.507,40.507,0,0,1-4.528.464A15.308,15.308,0,0,0,60.576-12.832ZM13.44,16.192a21.02,21.02,0,0,1-2.512,1.92,10.042,10.042,0,0,1-.96-2.144h5.088V14.352H8.912v-.9H13.92v-1.52H8.912V11.12h5.632V9.5H8.912V8.448h-1.9V9.5H1.5V11.12h5.5v.816H2.256v1.52H7.008v.9H.912v1.616H5.776A18.177,18.177,0,0,1,.32,18.416a9.851,9.851,0,0,1,1.216,1.536A18.339,18.339,0,0,0,4.192,18.9v2.288c-.8.16-1.552.3-2.176.416l.56,1.76c1.984-.432,4.672-.992,7.184-1.584l-.176-1.728c-1.152.256-2.352.512-3.488.752V17.824a14.521,14.521,0,0,0,2.1-1.616c1.056,3.552,2.816,5.984,6.192,7.136a7.675,7.675,0,0,1,1.232-1.7A7.778,7.778,0,0,1,11.84,19.36a30.379,30.379,0,0,0,3.184-1.984Zm17.792-6.72H19.952V11.36h11.28ZM20.768,16.384a11.209,11.209,0,0,1-2.784,4.4,11.045,11.045,0,0,1,1.76,1.136,16.037,16.037,0,0,0,3.04-5.008ZM32.72,15.216v-1.9H18.5v1.9h6.112V21.1c0,.224-.112.3-.416.3-.3.016-1.424,0-2.336-.048a8.184,8.184,0,0,1,.672,2.032,9.084,9.084,0,0,0,3.184-.336c.752-.3.976-.832.976-1.9V15.216Zm-4.4,1.856a19.769,19.769,0,0,1,2.464,4.9l1.984-.88a20.861,20.861,0,0,0-2.656-4.768ZM45.648,9.1h-2.32a11.611,11.611,0,0,1,.16,1.392c.016.128.016.288.032.5-2.176.032-5.088.1-6.912.1l.048,1.936c1.968-.112,4.464-.208,6.88-.24.016.352.016.72.016,1.072a4.152,4.152,0,0,0-.64-.048,3.018,3.018,0,0,0-3.2,2.992,2.823,2.823,0,0,0,2.752,2.944,3.421,3.421,0,0,0,.72-.08,7.19,7.19,0,0,1-3.9,1.824l1.712,1.7c3.9-1.088,5.12-3.744,5.12-5.824a4.072,4.072,0,0,0-.576-2.192c0-.7-.016-1.584-.016-2.4,2.176,0,3.664.032,4.624.08l.016-1.888c-.832-.016-3.024.016-4.64.016.016-.192.016-.368.016-.5C45.552,10.224,45.616,9.36,45.648,9.1Zm-4.016,7.664a1.2,1.2,0,0,1,1.232-1.28,1.18,1.18,0,0,1,1.04.56c.224,1.408-.368,1.92-1.04,1.92A1.2,1.2,0,0,1,41.632,16.768ZM59.04,20.112c0-.4.384-.768.992-.768.864,0,1.456.672,1.552,1.712a8.353,8.353,0,0,1-.928.048C59.7,21.1,59.04,20.7,59.04,20.112Zm-2.72-10.3.064,2.08c.368-.048.88-.1,1.312-.128.848-.048,3.056-.144,3.872-.16-.784.688-2.448,2.032-3.344,2.768-.944.784-2.88,2.416-4.016,3.328l1.456,1.5c1.712-1.952,3.312-3.248,5.76-3.248,1.888,0,3.328.976,3.328,2.416a2.319,2.319,0,0,1-1.328,2.176,3.2,3.2,0,0,0-3.408-2.736,2.681,2.681,0,0,0-2.864,2.5c0,1.6,1.68,2.624,3.9,2.624,3.872,0,5.792-2,5.792-4.528,0-2.336-2.064-4.032-4.784-4.032a6.25,6.25,0,0,0-1.52.176c1.008-.8,2.688-2.208,3.552-2.816.368-.272.752-.5,1.12-.736l-1.04-1.424a6.991,6.991,0,0,1-1.216.176c-.912.08-4.336.144-5.184.144A11.1,11.1,0,0,1,56.32,9.808Z" transform="translate(1753 889)" fill="#0e0e0e"/>
  </g>
</svg>
