<svg id="consultation" xmlns="http://www.w3.org/2000/svg" width="50.146" height="50.146" viewBox="0 0 50.146 50.146">
  <path id="パス_1048" data-name="パス 1048" d="M197.743,13.238l6.04-5.033h7.908V0H192V8.2h5.743Zm-4.1-6.674V1.641H210.05V6.564H203.19l-3.805,3.171V6.564Zm0,0" transform="translate(-172.766 0)" fill="#f4bbc3"/>
  <path id="パス_1049" data-name="パス 1049" d="M224,32h1.641v1.641H224Zm0,0" transform="translate(-201.364 -28.718)" fill="#f4bbc3"/>
  <path id="パス_1050" data-name="パス 1050" d="M256,32h6.564v1.641H256Zm0,0" transform="translate(-230.174 -28.718)" fill="#f4bbc3"/>
  <path id="パス_1051" data-name="パス 1051" d="M336,32h1.641v1.641H336Zm0,0" transform="translate(-302.047 -28.718)" fill="#f4bbc3"/>
  <path id="パス_1052" data-name="パス 1052" d="M41.172,156.229l-.654-6.517a5.647,5.647,0,0,0,4.775-5.559V133.686H42.057v-1.112a2.9,2.9,0,0,0-1.576-2.581,4.8,4.8,0,0,0,1.576-3.552v-1.61a4.853,4.853,0,0,0-9.706,0v1.61a4.835,4.835,0,0,0,3.2,4.535L31.208,135.3H26.672a3.232,3.232,0,0,0-2.328-2.885l-3.315-.942v-1.438a4.8,4.8,0,0,0,1.618-3.591v-1.61a4.853,4.853,0,0,0-9.706,0v1.61a4.807,4.807,0,0,0,1.618,3.591v1.439l-3.315.942a3.235,3.235,0,0,0-2.346,3.1v3.008H5.661v4.83H7.279v12.881H0v1.61H50.145v-1.61Zm-7.2-12.881v-3.692l5.731-5.7a2.517,2.517,0,0,0,.716-1.544,1.306,1.306,0,0,1,.023.167v9.968a2.424,2.424,0,0,1-2.426,2.415h-6.47v-1.61Zm-2.426,6.441h4.121l.647,6.441H31.543Zm5.747,0H38.9l.647,6.441h-1.61Zm4.768-7.246V135.3h1.618v8.856a4.039,4.039,0,0,1-4.044,4.025H31.543v-1.61h6.47A4.039,4.039,0,0,0,42.057,142.542Zm-8.088-16.1v-1.61a3.235,3.235,0,0,1,6.47,0v1.61a3.235,3.235,0,0,1-6.47,0Zm-2.092,10.466,5.4-5.371a.915.915,0,0,1,.641-.264.9.9,0,0,1,.641,1.541l-5.731,5.7H24.264a.805.805,0,1,1,0-1.61ZM14.558,124.83a3.235,3.235,0,0,1,6.47,0v1.61a3.235,3.235,0,0,1-6.47,0Zm3.235,6.441a4.849,4.849,0,0,0,1.618-.282v.865a2.068,2.068,0,0,1-1.618,1.027,2.068,2.068,0,0,1-1.618-1.027v-.865A4.849,4.849,0,0,0,17.793,131.271Zm-7.279,4.237a1.619,1.619,0,0,1,1.173-1.548l3.332-.947a3.526,3.526,0,0,0,2.774,1.479,3.525,3.525,0,0,0,2.774-1.48l3.332.947a1.607,1.607,0,0,1,1.138,1.337h-.774a2.424,2.424,0,0,0-2.426,2.415,2.372,2.372,0,0,0,.149.805H10.514Zm-3.235,4.619H32.352v1.61H7.279ZM8.9,146.568h2.426v-1.61H8.9v-1.61H29.925v1.61H12.94v1.61H29.925v9.661H28l-1.618-3.22H12.44l-1.618,3.22H8.9Zm17.294,9.661H12.632l.809-1.61H25.381Zm0,0" transform="translate(0 -107.693)" fill="#f4bbc3"/>
</svg>
