<svg xmlns="http://www.w3.org/2000/svg" width="220.977" height="68.644" viewBox="0 0 220.977 68.644">
  <g id="グループ_1134" data-name="グループ 1134" transform="translate(-579.647 -1015.354)">
    <path id="パス_2068" data-name="パス 2068" d="M9.741-12.074q0,.079-.084.079l-1.341-.02H4.442a9.376,9.376,0,0,1-1.4,2.24v3.332l.02,1.306a.07.07,0,0,1-.079.079H2.495a.07.07,0,0,1-.079-.079l.02-1.306V-9.1a12.37,12.37,0,0,1-1.167,1,.381.381,0,0,1-.154.079q-.045,0-.134-.134a1.1,1.1,0,0,0-.333-.323A9.052,9.052,0,0,0,2.425-9.968a5.324,5.324,0,0,0-.06-.581q.333.02.507.04a7.782,7.782,0,0,0,.909-1.5H2.4l-1.341.02q-.084,0-.084-.079v-.442q0-.079.084-.079l1.341.02H4.015a8.042,8.042,0,0,0,.3-.944,2.278,2.278,0,0,0,.094-.606q0-.03,0-.079a5.9,5.9,0,0,1,.651.134q.134.04.134.134a.218.218,0,0,1-.079.139,1.065,1.065,0,0,0-.174.387q-.114.4-.273.834h3.65l1.341-.02q.084,0,.084.079Zm.03,6.516a.07.07,0,0,1-.079.079L8.266-5.5H5.043l-1.415.02a.07.07,0,0,1-.079-.079V-6.01a.07.07,0,0,1,.079-.079l1.415.02H6.17V-8.657H5.45l-1.336.02a.07.07,0,0,1-.079-.079v-.432a.07.07,0,0,1,.079-.079l1.336.02h.72v-.71A9.991,9.991,0,0,0,6.1-11.3a6.128,6.128,0,0,1,.68.06q.124.02.124.084a.964.964,0,0,1-.04.184,4.218,4.218,0,0,0-.074,1.038v.73h.988L9.1-9.228a.07.07,0,0,1,.079.079v.432a.07.07,0,0,1-.079.079l-1.321-.02H6.791V-6.07H8.266l1.425-.02a.07.07,0,0,1,.079.079ZM22.848-8.935v.03q0,.06-.084.07-.015,0-.174.02L21.4-8.672l-2.98.387v1.912a.467.467,0,0,0,.417.531,9.256,9.256,0,0,0,1.415.079,2.682,2.682,0,0,0,1.485-.273.881.881,0,0,0,.273-.457,3.6,3.6,0,0,0,.1-.8,2.14,2.14,0,0,0,.477.214q.174.055.174.134,0,.025-.01.109A1.8,1.8,0,0,1,22.2-5.558a3.4,3.4,0,0,1-1.912.367,9.387,9.387,0,0,1-1.833-.124.817.817,0,0,1-.487-.343,1.021,1.021,0,0,1-.174-.6V-8.205l-2.036.268q-.606.074-1.018.149l-.214.04a.609.609,0,0,1-.079.01.214.214,0,0,1-.04,0q-.06,0-.07-.074l-.055-.467V-8.3q0-.05.084-.06.651-.055,1.341-.144l2.086-.273v-1.53q-1.237.3-2.279.467a.626.626,0,0,1-.109.015q-.065,0-.154-.174A.986.986,0,0,0,15-10.381a22.8,22.8,0,0,0,4.882-1.147,2.313,2.313,0,0,0,.6-.318,3.03,3.03,0,0,1,.457.387.2.2,0,0,1,.07.144q0,.074-.144.089a1.609,1.609,0,0,0-.333.094q-1.078.382-2.106.661v1.6l2.94-.387q.621-.074,1.038-.144.109-.015.219-.035l.074-.01a.214.214,0,0,1,.04,0q.055,0,.065.074Zm-.184-2.021a.07.07,0,0,1-.079.079h-.472q-.089,0-.089-.079v-1.475H15.086v1.475q0,.089-.079.089h-.482q-.079,0-.079-.089l.02-1.078v-.338l-.02-.561a.07.07,0,0,1,.079-.079l1.405.02h2.24v-.134a4.97,4.97,0,0,0-.074-1.048q.368.02.67.065.124.015.124.079a.694.694,0,0,1-.06.184,2.856,2.856,0,0,0-.05.72v.134h2.4l1.405-.02a.07.07,0,0,1,.079.079l-.02.492v.4ZM36.1-5.618a.07.07,0,0,1-.079.079L34.6-5.558H28.442V-5.1q0,.084-.089.084h-.482q-.079,0-.079-.084l.02-2.076v-4.37l-.02-2.066a.07.07,0,0,1,.079-.079l1.415.02h5.219l1.391-.02q.084,0,.084.079v.462q0,.079-.084.079l-1.391-.02H28.442v6.953H34.6l1.425-.02a.07.07,0,0,1,.079.079Zm-.343-1.51a1.389,1.389,0,0,0-.268.387q-.07.149-.124.149a.569.569,0,0,1-.139-.035A5.141,5.141,0,0,1,32.266-9,3.371,3.371,0,0,1,31.238-7.53,5.688,5.688,0,0,1,29.49-6.6a.5.5,0,0,1-.149.045q-.055,0-.134-.134a1.2,1.2,0,0,0-.318-.333A5.6,5.6,0,0,0,30.93-8.041a2.828,2.828,0,0,0,.829-1.281H30.548l-1.425.02a.07.07,0,0,1-.079-.079v-.4a.07.07,0,0,1,.079-.079l1.425.02h1.341a8.1,8.1,0,0,0,.1-1.405H30.528a9.33,9.33,0,0,1-.661.869q-.114.109-.154.109a.468.468,0,0,1-.154-.089,1.072,1.072,0,0,0-.333-.194A5.683,5.683,0,0,0,30.4-12.178a2.561,2.561,0,0,0,.2-.67,4.069,4.069,0,0,1,.581.174q.1.04.1.109t-.094.134A1.2,1.2,0,0,0,31-12.1l-.174.338h2.841l1.281-.02a.07.07,0,0,1,.079.079v.387q0,.089-.079.089l-1.281-.02H32.594a10.329,10.329,0,0,1-.114,1.405h1.689l1.435-.02a.07.07,0,0,1,.079.079v.4A.07.07,0,0,1,35.6-9.3l-1.435-.02H32.654A5.192,5.192,0,0,0,35.758-7.128ZM49.7-9.353a1.41,1.41,0,0,0-.243.313q-.089.164-.129.164a.5.5,0,0,1-.154-.05,7.027,7.027,0,0,1-1.088-.521v1.212l.02.824q0,.079-.084.079l-1.311-.02h-.5v.631l.015.939a.639.639,0,0,1-.268.6,1.878,1.878,0,0,1-.824.124h-.214a.361.361,0,0,1-.184-.025.478.478,0,0,1-.06-.169.908.908,0,0,0-.154-.367,5.582,5.582,0,0,0,.641.04.642.642,0,0,0,.4-.079.338.338,0,0,0,.074-.258V-7.351h-.531l-1.311.02a.07.07,0,0,1-.079-.079l.02-.894V-9.313a8.509,8.509,0,0,1-.795.492.529.529,0,0,1-.124.05q-.04,0-.109-.1a1.1,1.1,0,0,0-.268-.273,10.635,10.635,0,0,1-.169,1.381,6.433,6.433,0,0,1-1.132,2.553q-.094.114-.129.114t-.134-.114a1.1,1.1,0,0,0-.368-.283,4.967,4.967,0,0,0,1.2-2.513,6.847,6.847,0,0,0,.124-.884q-.367.214-.795.417a1.03,1.03,0,0,0-.358.233.156.156,0,0,1-.129.079q-.06,0-.1-.089-.1-.238-.223-.576a4.6,4.6,0,0,0,.834-.288q.67-.3.814-.367.02-.477.02-1.535l-.02-2.22a.07.07,0,0,1,.079-.079l1.445.02H45.27v-.169a3.485,3.485,0,0,0-.079-.814q.382.015.661.05.134.02.134.084a.612.612,0,0,1-.065.179,1.55,1.55,0,0,0-.05.482v.189h2.081l1.425-.02a.07.07,0,0,1,.079.079v.407a.07.07,0,0,1-.079.079l-1.425-.02H42.484v1.828q0,1.207-.03,1.748a9.077,9.077,0,0,0,1.3-.8,6.969,6.969,0,0,0-.7-.705.114.114,0,0,1-.035-.06q0-.025.079-.084l.189-.139a.211.211,0,0,1,.089-.045.113.113,0,0,1,.065.035,6.861,6.861,0,0,1,.715.675,4.364,4.364,0,0,0,.844-1.018h-.591l-1.435.02A.07.07,0,0,1,42.9-11.4v-.358a.07.07,0,0,1,.079-.079l1.435.02h.844l.089-.194a2.588,2.588,0,0,0,.194-.705,4.484,4.484,0,0,1,.581.144q.1.035.1.094a.151.151,0,0,1-.074.119,1.064,1.064,0,0,0-.2.348l-.089.194h1.947l1.435-.02q.084,0,.084.079v.358q0,.079-.084.079l-1.435-.02H46.735a3.8,3.8,0,0,0,.954,1.018,3.93,3.93,0,0,0,.516-.437,1.117,1.117,0,0,0,.233-.313,2.628,2.628,0,0,1,.417.283.147.147,0,0,1,.065.1q0,.079-.094.1a.849.849,0,0,0-.3.194,4.749,4.749,0,0,1-.437.333A6.912,6.912,0,0,0,49.7-9.353ZM47.544-7.808v-.7H44.262v.7Zm0-1.137v-.7H44.262v.7ZM47.172-10.1a4.617,4.617,0,0,1-1-1.242h-.546A4.91,4.91,0,0,1,44.7-10.1ZM44.7-6.73q0,.07-.114.124a.686.686,0,0,0-.129.1l-.114.1a6.671,6.671,0,0,1-1.351.978.4.4,0,0,1-.154.06q-.06,0-.154-.134a.848.848,0,0,0-.293-.263,5.161,5.161,0,0,0,1.391-.854,1.917,1.917,0,0,0,.4-.487,2.91,2.91,0,0,1,.437.253A.15.15,0,0,1,44.7-6.73Zm4.514.834a1.522,1.522,0,0,0-.283.328q-.084.139-.144.139a1.4,1.4,0,0,1-.154-.07A7.588,7.588,0,0,1,47.1-6.686a.086.086,0,0,1-.025-.05q0-.04.094-.1l.194-.144q.079-.07.109-.07a.1.1,0,0,1,.055.03A5.955,5.955,0,0,0,49.213-5.9Zm-7.578-4.872a.151.151,0,0,1,.015.055q0,.025-.1.089l-.253.154a.324.324,0,0,1-.114.045q-.035,0-.06-.07a7.168,7.168,0,0,0-.685-1.594.122.122,0,0,1-.02-.055q0-.035.114-.1l.214-.119a.3.3,0,0,1,.119-.05q.03,0,.065.06A7.344,7.344,0,0,1,41.635-10.768Zm20.581.5q.977-.584,2.239-1.243l.341.6a20.427,20.427,0,0,0-3.052,1.706A2.328,2.328,0,0,0,60.575-7.35q0,1.234,1.972,1.234,1.014,0,2.318-.093v.687q-1.6.047-2.365.047-2.585,0-2.585-1.884a3.086,3.086,0,0,1,1.692-2.529q-.4-1.463-.743-3.435l.706-.028A28.133,28.133,0,0,0,62.215-10.271Zm19.877.025a1.865,1.865,0,0,0-.293.422q-.084.154-.134.154a.563.563,0,0,1-.154-.05,9.512,9.512,0,0,1-2.553-1.669,10.138,10.138,0,0,1-1.624-1.972,8.963,8.963,0,0,1-1.8,2.25,11.2,11.2,0,0,1-2.17,1.465.863.863,0,0,1-.164.07q-.04,0-.134-.154a1.325,1.325,0,0,0-.3-.387,8.136,8.136,0,0,0,4.018-3.556,3.272,3.272,0,0,0,.253-.621,4.388,4.388,0,0,1,.631.119q.144.05.144.134a.115.115,0,0,1-.07.1.229.229,0,0,0-.094.074,9.382,9.382,0,0,0,2.036,2.275A9.291,9.291,0,0,0,82.093-10.246Zm-5.746-.134q0,.01-.04.194a4.679,4.679,0,0,0-.06.954,6.355,6.355,0,0,1-.194,1.708,3.462,3.462,0,0,1-.462,1,4.4,4.4,0,0,1-1.808,1.455.4.4,0,0,1-.154.06q-.035,0-.144-.154a1.463,1.463,0,0,0-.353-.372,3.625,3.625,0,0,0,1.932-1.376A4.355,4.355,0,0,0,75.6-9.243a8.071,8.071,0,0,0-.07-1.281q.353.02.69.055Q76.347-10.455,76.347-10.381ZM79.2-10.4a.347.347,0,0,1-.025.1q-.02.07-.025.094A7.987,7.987,0,0,0,79.1-9.05v2.577l.02,1.3q0,.07-.079.07h-.512q-.079,0-.079-.07l.02-1.3V-9.04a11.2,11.2,0,0,0-.07-1.515,6.085,6.085,0,0,1,.69.065Q79.2-10.475,79.2-10.4Zm15.71,2.036q0,.079-.084.079l-1.3-.02H91.381l-1.316.02a.07.07,0,0,1-.079-.079l.02-.949v-1.361a5.634,5.634,0,0,1-.467.531q-.109.109-.149.109t-.134-.124a.664.664,0,0,0-.243-.214,5.941,5.941,0,0,0,1.167-1.371,1.751,1.751,0,0,0,.243-.611,2.737,2.737,0,0,1,.512.159q.089.04.089.1t-.089.109a1.419,1.419,0,0,0-.233.328h1.42a1.826,1.826,0,0,0,.174-.338,1.405,1.405,0,0,0,.094-.363,4.647,4.647,0,0,1,.5.119q.089.03.089.094t-.07.1a.392.392,0,0,0-.109.154l-.134.233H93.5l1.212-.02a.07.07,0,0,1,.079.079v.308a.07.07,0,0,1-.079.079l-1.212-.02h-.824v.551h.6l1.157-.02q.084,0,.084.079v.288q0,.079-.084.079l-1.157-.02h-.6v.536h.611l1.157-.02q.084,0,.084.089v.278q0,.079-.084.079l-1.157-.02h-.611v.591h.854l1.3-.02q.084,0,.084.079Zm-2.756-.367v-.591H90.517v.591Zm0-1.942v-.551H90.517v.551Zm0,.944v-.536H90.517v.536Zm3.193,4.092a1.107,1.107,0,0,0-.214.348q-.079.179-.164.179a1.049,1.049,0,0,1-.114-.01,8.421,8.421,0,0,1-2.572-.73,9.643,9.643,0,0,1-2.642.765q-.109.015-.139.015-.084,0-.149-.169a1.108,1.108,0,0,0-.2-.348,10.156,10.156,0,0,0,2.617-.581,4.758,4.758,0,0,1-1.142-1.147q-.407,0-.725.015l-.219,0a.07.07,0,0,1-.079-.079v-.348a.07.07,0,0,1,.079-.079l1.271.02h2.582a.558.558,0,0,0,.194-.02.393.393,0,0,1,.1-.04q.1,0,.273.174t.174.253a.142.142,0,0,1-.089.119.965.965,0,0,0-.268.223,5.52,5.52,0,0,1-1.1.914A9.91,9.91,0,0,0,95.349-5.638ZM93.457-7.316h-2.23a4.308,4.308,0,0,0,1.058.894A4.514,4.514,0,0,0,93.457-7.316Zm-4.5,2.046q0,.079-.084.079h-.4a.07.07,0,0,1-.079-.079v-.348H87.061v.541q0,.07-.079.07h-.407q-.084,0-.084-.07l.02-1.495v-.616l-.02-.894a.07.07,0,0,1,.079-.079l.839.02h.616l.849-.02a.07.07,0,0,1,.079.079l-.025.745V-6.7ZM88.392-6.1v-1.54H87.061V-6.1Zm6.764-6.8q0,.079-.084.079l-1.391-.02h-.233l.02.477a.075.075,0,0,1-.084.084h-.407q-.079,0-.079-.084,0-.015.01-.159t.01-.318H91.451l.02.477q0,.084-.079.084h-.4q-.079,0-.079-.084,0-.015,0-.159t.015-.318h-.1l-1.391.02q-.084,0-.084-.079v-.348q0-.079.084-.079l1.391.02h.1v-.2a3.852,3.852,0,0,0-.05-.651,3.8,3.8,0,0,1,.566.06q.114.02.114.079a.263.263,0,0,1-.03.094.752.752,0,0,0-.084.382v.233h1.465v-.2a2.962,2.962,0,0,0-.06-.651,4.372,4.372,0,0,1,.591.06q.109.02.109.079a.263.263,0,0,1-.03.094.767.767,0,0,0-.079.372v.243h.233l1.391-.02q.084,0,.084.079Zm-5.92,1.088q0,.094-.084.094l-1.013-.02H87.2l-1.018.02q-.079,0-.079-.094v-.427q0-.07.079-.07l1.018.02h.939l1.013-.02q.084,0,.084.07Zm-.2-1.371q0,.079-.084.079l-.854-.02h-.7l-.854.02a.07.07,0,0,1-.079-.079v-.4a.07.07,0,0,1,.079-.079l.854.02h.7l.854-.02q.084,0,.084.079ZM88.819-9.04q0,.074-.094.074l-.76-.02h-.541l-.77.02q-.084,0-.084-.074v-.4a.075.075,0,0,1,.084-.084l.77.02h.541l.76-.02q.094,0,.094.084Zm0-1.391q0,.079-.094.079l-.76-.02h-.541l-.77.02q-.084,0-.084-.079v-.4q0-.079.084-.079l.77.02h.541l.76-.02q.094,0,.094.079Zm14.226,1.5v2.011h-.68v-1.7q-.233.119-.482.258-1.3.735-1.3,1.475a.674.674,0,0,0,.457.685,4.647,4.647,0,0,0,1.51.169q1.068,0,2.478-.124l.03.69q-1.852.094-2.458.094a4.271,4.271,0,0,1-2.155-.372A1.287,1.287,0,0,1,99.931-6.9,2.228,2.228,0,0,1,101.3-8.752q.516-.293,1.058-.561-.05-.954-.66-.954-.854,0-2.344,1.718l-.526-.467a11.877,11.877,0,0,0,2.106-3q-.929.015-1.862,0v-.621q1.073.02,2.145,0A9.089,9.089,0,0,0,101.669-14l.735.134a10.446,10.446,0,0,1-.427,1.2q1.43-.045,2.717-.174l.02.621q-1.669.134-3.01.174a10.387,10.387,0,0,1-.854,1.445l-.258.263.03.04a1.81,1.81,0,0,1,1.212-.516,1.1,1.1,0,0,1,.809.308,1.44,1.44,0,0,1,.382.884q.795-.363,2.066-.9l.283.7Q103.72-9.223,103.044-8.925Zm15.184,3.248a1.255,1.255,0,0,0-.3.447q-.074.164-.149.164a.939.939,0,0,1-.139-.02,11.524,11.524,0,0,1-3.973-1.728A12.519,12.519,0,0,1,109.786-5.1a.691.691,0,0,1-.134.025q-.055,0-.139-.169a1.432,1.432,0,0,0-.273-.387,12.238,12.238,0,0,0,3.923-1.584,7.082,7.082,0,0,1-1.788-2.5q-.521,0-.9.015-.07,0-.2,0h-.06a.07.07,0,0,1-.079-.079v-.452q0-.07.079-.07l1.415.02h1.689v-1.629h-2.5l-1.351.02q-.084,0-.084-.079v-.452q0-.079.084-.079l1.351.02h2.5v-.437a6.119,6.119,0,0,0-.079-1.232q.422.02.71.06.144.02.144.1a.347.347,0,0,1-.025.1.934.934,0,0,0-.04.1,3.341,3.341,0,0,0-.07.824v.477h2.677l1.351-.02a.07.07,0,0,1,.079.079v.452a.07.07,0,0,1-.079.079l-1.351-.02h-2.677v1.629h1.689a.689.689,0,0,0,.253-.04.374.374,0,0,1,.1-.02q.079,0,.273.194t.194.288q0,.06-.1.129a.779.779,0,0,0-.214.243,8.654,8.654,0,0,1-1.977,2.27A11.109,11.109,0,0,0,118.228-5.678Zm-2.7-4.038h-3.476a6.265,6.265,0,0,0,1.629,2.135A7.505,7.505,0,0,0,115.532-9.715Zm7.966-4.276q1.748.363,3.8.591l-.164.69a33.871,33.871,0,0,1-3.824-.641Zm-1.405,2.4q1.937-.055,4.912-.313l.427.536q-.72.656-2.523,2.5a.875.875,0,0,1,.328-.06.965.965,0,0,1,.77.4,1.921,1.921,0,0,1,.377.924,3.809,3.809,0,0,0,.353,1.321.7.7,0,0,0,.586.194,10.8,10.8,0,0,0,1.242-.07v.72q-.5.045-1.242.045a1.441,1.441,0,0,1-1.261-.442,3.706,3.706,0,0,1-.358-1.331,2.643,2.643,0,0,0-.248-.914.489.489,0,0,0-.442-.253.851.851,0,0,0-.477.124,2.084,2.084,0,0,0-.427.432q-.705.879-1.783,2.394l-.68-.348a55.867,55.867,0,0,1,4.524-5.483q-2.076.214-4.028.273Zm9.69-1.748q1.346-.01,4.137-.144l.427.531q-1.982,2.011-3.144,3.019l-.457.4.04.03.521-.353a3.352,3.352,0,0,1,1.435-.387,2.577,2.577,0,0,1,1.967.725,2.231,2.231,0,0,1,.586,1.6,2.409,2.409,0,0,1-.929,2.066,3.863,3.863,0,0,1-2.339.616q-1.991,0-1.991-1.351a1.181,1.181,0,0,1,.427-.954,1.578,1.578,0,0,1,1.038-.328,1.674,1.674,0,0,1,1.291.546,2.5,2.5,0,0,1,.571,1.222,1.873,1.873,0,0,0,.914-.71,2.123,2.123,0,0,0,.263-1.117,1.621,1.621,0,0,0-.631-1.361A1.94,1.94,0,0,0,134.7-9.67a3.559,3.559,0,0,0-2.458.988,9.044,9.044,0,0,0-.844.884l-.6-.487q2.433-2.5,4.455-4.559-1.46.109-3.466.164ZM134.648-5.9a2.2,2.2,0,0,0-.452-1.038.926.926,0,0,0-.715-.343.813.813,0,0,0-.586.219.6.6,0,0,0-.2.452.632.632,0,0,0,.338.6,2.086,2.086,0,0,0,.944.164A4.385,4.385,0,0,0,134.648-5.9Z" transform="translate(579 1029.648)" fill="#f1a1b4" opacity="0.95"/>
    <g id="グループ_956" data-name="グループ 956" transform="translate(580.642 1034.047)">
      <path id="_パス_1380-2" d="M20,73.852H2.72V40.77h3.6v30H20Z" transform="translate(-2.72 -38.593)" fill="#f1a1b4"/>
      <path id="_パス_1381-2" d="M55.453,46.37a2.339,2.339,0,0,1-2.344-2.334V43.9a2.367,2.367,0,0,1,4.733-.107v.1a2.3,2.3,0,0,1-2.12,2.471,1.59,1.59,0,0,1-.269,0ZM57.278,74.2h-3.6V50.534h3.6V74.2Z" transform="translate(-27.491 -38.942)" fill="#f1a1b4"/>
      <path id="_パス_1382-2" d="M81.544,48.081c0-2.954,0-6.818,2.6-9.466a7.811,7.811,0,0,1,5.47-2.125,8.711,8.711,0,0,1,3.518.7l-.605,2.822a6.759,6.759,0,0,0-2.735-.564c-3.732,0-4.647,3.472-4.647,7.3v1.347h5.73v2.822h-5.73V71.747h-3.6V50.907H78.29V48.086h3.254Z" transform="translate(-39.87 -36.488)" fill="#f1a1b4"/>
      <path id="_パス_1383-2" d="M134.065,81.4a17.11,17.11,0,0,1-7.423,1.474c-6.909,0-11.032-4.86-11.032-11.937,0-7.423,4.169-12.766,10.549-12.766,7.3,0,9.161,6.686,9.161,10.809,0,.824-.046,1.434-.086,2h-16.1c.046,6.553,3.777,9.024,8.033,9.024a14.966,14.966,0,0,0,6.208-1.215l.7,2.6h0Zm-2.3-13.107c.046-3.213-1.3-7.382-5.948-7.382-4.347,0-6.253,4.123-6.6,7.382Z" transform="translate(-58.216 -47.147)" fill="#f1a1b4"/>
      <path id="_パス_1384-2" d="M215.3,44.373a11.231,11.231,0,0,0-5.816-1.52c-4.6,0-6.34,2.822-6.34,5.211,0,3.254,2,4.9,6.426,6.772,5.338,2.257,8.073,4.993,8.073,9.726,0,5.252-3.823,9.289-10.941,9.289a15.231,15.231,0,0,1-7.9-2.084l1-2.994a13.452,13.452,0,0,0,7.123,2.039c4.428,0,7.031-2.39,7.031-5.948,0-3.254-1.784-5.252-6.081-6.991C202.882,56,199.5,53.1,199.5,48.536c0-5.038,4.082-8.724,10.117-8.724a13.467,13.467,0,0,1,6.772,1.561L215.3,44.368h0Z" transform="translate(-99.112 -38.118)" fill="#f1a1b4"/>
      <path id="_パス_1385-2" d="M253.83,49.655l3.559-1.215v5.511h6.121v2.822h-6.121V70.449c0,2.994.91,4.647,3.213,4.647a7.161,7.161,0,0,0,2.43-.346l.219,2.781a9.114,9.114,0,0,1-3.518.564c-5.73,0-5.908-5.211-5.908-7.728V56.778H250.18V53.956h3.645v-4.3Z" transform="translate(-124.37 -42.364)" fill="#f1a1b4"/>
      <path id="_パス_1386-2" d="M307.983,76.751a33.259,33.259,0,0,0,.346,5.643h-3.3l-.351-3.04h-.132a8.228,8.228,0,0,1-6.991,3.559,6.564,6.564,0,0,1-6.9-6.2c-.01-.178-.01-.351-.005-.529,0-5.684,4.952-8.77,13.717-8.724,0-2,0-6.513-5.384-6.513a10.272,10.272,0,0,0-5.775,1.693l-.869-2.476a13.44,13.44,0,0,1,7.219-2c6.686,0,8.424,4.733,8.424,9.421v9.161Zm-3.559-6.64c-4.474,0-10.071.651-10.071,5.643,0,3.04,1.912,4.382,4.083,4.382a5.781,5.781,0,0,0,5.989-5.557V70.106Z" transform="translate(-144.262 -47.146)" fill="#f1a1b4"/>
      <path id="_パス_1387-2" d="M357.591,61.824a10.174,10.174,0,0,0-1.3-.086c-3.91,0-5.908,3.864-5.908,7.86V82.45h-3.6V65.866c0-2.517-.046-4.82-.173-7.077h3.167l.173,4.56h.132A7.082,7.082,0,0,1,356.5,58.27a8.514,8.514,0,0,1,1.083.132v3.432h0Z" transform="translate(-171.775 -47.196)" fill="#f1a1b4"/>
    </g>
    <g id="_グループ_125" transform="translate(773.17 1019.787)">
      <path id="_パス_1407" d="M408.454,12.452a.458.458,0,0,0-.061-.122C408.333,12.513,408.454,12.452,408.454,12.452Z" transform="translate(-394.667 -10.352)" fill="#f2a5ba"/>
      <path id="_パス_1408" d="M407.531,16.14l-.031.28.031-.249Z" transform="translate(-394.236 -12.225)" fill="#f2a5ba"/>
      <path id="_パス_1409" d="M406.625,17.7h.03s.158,0,.183-.061h0l-.122-.249h0l.061-.28a.676.676,0,0,0-.28.061h0l.122.249a8.43,8.43,0,0,1-.28.925c.122-.092.183-.4.249-.646h.031Zm.122-.28-.061.214Z" transform="translate(-393.666 -12.702)" fill="#f2a5ba"/>
      <path id="_パス_1410" d="M405.321,20.76h0a.435.435,0,0,1-.061.214c.061-.031,0,.214.091-.214Z" transform="translate(-393.135 -14.496)" fill="#f2a5ba"/>
      <path id="_パス_1412" d="M404.718,22.209V21.96s-.092.249-.092.158c-.061.249,0,.214.092.092Z" transform="translate(-392.811 -15.086)" fill="#f2a5ba"/>
      <path id="_パス_1414" d="M404.961,22.15l-.061.28s.061,0,0-.122V22.15Z" transform="translate(-392.958 -15.18)" fill="#f2a5ba"/>
      <path id="_パス_1415" d="M405.02,22.764l.03-.092.066-.463-.091.554h0Z" transform="translate(-393.017 -15.209)" fill="#f2a5ba"/>
      <path id="_パス_1417" d="M401.814,26.042s-.158-.092-.03-.122a3.054,3.054,0,0,0-.524.092h.554Z" transform="translate(-391.168 -17.033)" fill="#f2a5ba"/>
      <path id="_パス_1418" d="M400.77,26.217s.158-.031.249-.061A.336.336,0,0,0,400.77,26.217Z" transform="translate(-390.927 -17.147)" fill="#f2a5ba"/>
      <path id="_パス_1424" d="M401.382,26.371s-.28.031-.432.031h.524s.092-.061-.092-.061h0v.031Z" transform="translate(-391.016 -17.24)" fill="#f2a5ba"/>
      <path id="_パス_1428" d="M399.86,26.332a.748.748,0,0,1,.214.031C400.013,26.362,399.86,26.3,399.86,26.332Z" transform="translate(-390.48 -17.231)" fill="#f2a5ba"/>
      <path id="_パス_1430" d="M402.773,26.4a.294.294,0,0,0-.183.061h.183Z" transform="translate(-391.822 -17.269)" fill="#f2a5ba"/>
      <path id="_パス_1431" d="M396.605,26.647s.681.092.432.158c-.4.031-.341,0-.524-.061.158.092-.524.122-.432.249l.341-.061s-.122.061,0,.061c0-.061.371-.122.681-.061.31-.061.092-.28-.158-.4,0,0,0,.061-.31.092h0l-.025.025Z" transform="translate(-388.618 -17.333)" fill="#f2a5ba"/>
      <path id="_パス_1432" d="M397.8,26.432h.712a3.107,3.107,0,0,1-.432-.092c-.214.031-.249.061-.28.092Z" transform="translate(-389.467 -17.24)" fill="#f2a5ba"/>
      <path id="_パス_1434" d="M402.473,26.82h-.493l.249.092h0c.28,0,.214-.061.249-.092Z" transform="translate(-391.522 -17.476)" fill="#f2a5ba"/>
      <path id="_パス_1435" d="M397.4,26.372l.061-.092-.28.122.214-.031h0Z" transform="translate(-389.162 -17.21)" fill="#f2a5ba"/>
      <path id="_パス_1436" d="M396.193,26.4l.03-.061-.183.031.158.031h0Z" transform="translate(-388.602 -17.24)" fill="#f2a5ba"/>
      <path id="_パス_1437" d="M405.021,45.236l-.061.122.122-.158h-.061Z" transform="translate(-392.987 -26.511)" fill="#f2a5ba"/>
      <path id="_パス_1439" d="M392.46,27.1l.061-.031S392.46,27.07,392.46,27.1Z" transform="translate(-386.842 -17.598)" fill="#f2a5ba"/>
      <path id="_パス_1441" d="M407.031,21.31s-.31.31-.183.214l.341-.249H407.1a3.356,3.356,0,0,1,.615-.524c.341-.183.28-.092.432-.183,0,0,.061,0,.183-.122l.742-.524-.554.249c.158-.183.615-.432,0-.122.122-.061.28-.122.432-.214a3.088,3.088,0,0,1-.432-.031v-.061a.892.892,0,0,0-.214-.122c-.091,0-.122,0-.4.122a.206.206,0,0,0-.183-.122,1.3,1.3,0,0,0-.615.158h-1.047a5.523,5.523,0,0,1-.712.061h0a.5.5,0,0,0-.183-.158.759.759,0,0,0-.463.158c-.158-.092-.742-.031-.951-.183.092.031-.03.061-.214.061-.31-.092-.681-.214-.773-.249a.152.152,0,0,1-.092-.031c-.122-.031-.214,0-.585.249h-.432a5.14,5.14,0,0,1-.681-.061h-.091c-.31-.092-.742-.183-.864-.214v-.132h0a1.927,1.927,0,0,0-.031-.341,7.119,7.119,0,0,0-.122-.8.611.611,0,0,0-.188-.117h-.158l-.061-.122.061-.249a3.64,3.64,0,0,0,.158-1.144.55.55,0,0,0-.183-.122c-.122,0-.122-.031-.524.214l-.092-.214v-.066a6.557,6.557,0,0,0-.03-.895.55.55,0,0,0-.183-.122h-.122l.092-.28a3.38,3.38,0,0,0,.31-1.169.55.55,0,0,0-.183-.122.658.658,0,0,0-.341.092V13.76c-.041-.031-.086-.061-.122-.092l-.061-.122a7.415,7.415,0,0,1-.371-.712.256.256,0,0,0-.183-.122H397.5a.288.288,0,0,0-.03-.183.292.292,0,0,0-.158-.122.454.454,0,0,0-.28.061H397l.122.249-.122.061-.031-.158c0,.092-.249.646-.371,1.017a3.622,3.622,0,0,0-.371,1.235.55.55,0,0,0,.183.122c.092,0,.122.031.554-.214a4.633,4.633,0,0,1-.371.4c-.341.341-.585.615-.8.864l.061-.092V15.8a1.662,1.662,0,0,0-.091.31c-.493.524-.615.712-.646.834a1.128,1.128,0,0,1-.092.249c.031-.061.092-.158.122-.158h0v.031h.03s.092.122.183.122a4.142,4.142,0,0,0,1.235-.585c-.214.214-.432.4-.615.615-.615.615-1.017.986-1.266,1.266h0s-.183.214-.249.28v-.112s-.091.249-.158.249h.061c-.122.158-.091.214,0,.31,0,0,.031.061.061.061h0v.092h0V19.3h.122l-.061.092a.1.1,0,0,0,.091-.061h0s.463-.214,1.942-1.047c.646-.371,1.54-.895,1.759-.986a.2.2,0,0,0,.122-.031.072.072,0,0,0,.061-.031s.061,0,.061.031a1.142,1.142,0,0,0,.092.31l.061-.092a.92.92,0,0,1,.061.371c.214.183-.183-.585,0-.4a1.267,1.267,0,0,0,.091.493c-.214,0-.646.183-4.967,2.623-1.047.615-2.252,1.3-3.117,1.759.183-.214.4-.432.585-.646,1.047-1.129,1.53-1.769,1.449-1.912a.547.547,0,0,0-.122-.092h-.091s.214-.061-.031-.092h.31a1.169,1.169,0,0,1-.295-.036h-.615a2.524,2.524,0,0,0,.554,0c-.091.061-.341.092-.249.183-.091.031-.214.122-.4.214h-.03c-.249.158-.615.341-1.144.646-.371.214-.834.463-1.144.646l.092-.341c.214-.895.249-1.017.214-1.108H390c.031-.061-.061-.061-.214-.061a.428.428,0,0,0-.122-.092,1.7,1.7,0,0,1,.554-.031c-.183-.092-.091,0-.371-.092.249.158-.986,0-.585.158a1.129,1.129,0,0,0-.249-.092.237.237,0,0,0,0-.28.256.256,0,0,0-.183-.122,3.614,3.614,0,0,0-.834.371h-.061l-.158.092-.122.061a1.146,1.146,0,0,0-.524.061c-.28,0,.061-.031-.122-.092l-.28.061-.249-.061-.183-.122h0a2.427,2.427,0,0,1-.371-.214c-.031,0-.061-.061-.122-.061a.687.687,0,0,0-.4.122l-.122.061a1.145,1.145,0,0,1-.183-.122.232.232,0,0,0-.122-.061.453.453,0,0,0-.28.061h-.061l.061.183h-.122l.158.092h-.061s0,.092.061.122v.122h.158c.122.061.28.183.554.371.249.158.524.371.615.432.092.092.183.092.341.031.061.031.122.092.183.122a3.471,3.471,0,0,0,.214.554.292.292,0,0,0,.158.122.756.756,0,0,0,.092.214.256.256,0,0,0,.183.122h.183c.091.092.214.214.4.432s.432.463.463.493a.162.162,0,0,0,.158.092.514.514,0,0,0,.371-.122h0s.31.092.646.183h.061c-.122.214-.091.28,0,.371a.2.2,0,0,0,.163.112.822.822,0,0,0,.31-.061,12.257,12.257,0,0,0,1.078.773q0,.158.061.183a.256.256,0,0,0,.183.122.6.6,0,0,0,.249-.031l.371.463c.122.183.28.341.341.432a1.927,1.927,0,0,0-.091.214c0,.031-.03.061-.03.122-.031.122-.061.28-.092.432h0c-.951,1.108-1.383,1.739-1.3,1.881a.55.55,0,0,0,.183.122c.091,0,.122,0,.463-.158,0,.061.061.031.122,0V28.1c-.061,0-.092.092-.122.158-.615.463-.554.554-.463.712,0,.061.061.092.122.122a.243.243,0,0,0,0,.249h.036c-.091.28-.214.615-.31.864l-.183.493h0c-.183.493-.183.524-.122.615h0c0,.158-.061.28-.061.493l-.091.061c-.015.1-.036.208-.061.31a.476.476,0,0,1-.122.31,2.946,2.946,0,0,0-.158.341,16.587,16.587,0,0,0,1.479-.925c.31-.214.646-.432.951-.615a6.823,6.823,0,0,1,.646-.371c-.28-.061.463-.183.4-.341.092,0,.214-.061.092.061.4-.341.712-.371.925-.681.092,0-.061.122,0,.122,0-.031.122-.122.183-.122s-.031.061-.091.158c.432-.31.4-.463.341-.585a.775.775,0,0,0,.493-.371c.092,0,.28-.061,0,.122.158-.092.986-.585.951-.681.061,0,.214-.158.249-.183l.371-.249a1.147,1.147,0,0,0,.183-.122h0a.5.5,0,0,0,.183.158.6.6,0,0,0,.249-.031c.28.249.341.28.432.31l.061.061c.214.214.463.493.493.524a.162.162,0,0,0,.158.092.433.433,0,0,0,.249-.061h0a1.6,1.6,0,0,1-.031.31,3.929,3.929,0,0,0-.091,1.144.55.55,0,0,0,.183.122l1.108-.524.092-.061h0s-.158.061.061.214c0,.031.122.092.214.122-.249.31-.214.341-.122.463a.256.256,0,0,0,.183.122c.122,0,.122.031.646-.249a1.134,1.134,0,0,1,.28.214c-.061-.092-.091-.183.091-.092a1.673,1.673,0,0,1,.371.31,2.92,2.92,0,0,0,.061.895.256.256,0,0,0,.183.122c.122,0,.122.031.8-.341.28.158.646.371.834.463a.8.8,0,0,0,0,.31.256.256,0,0,0,.183.122h.061a.22.22,0,0,0,.183-.061,1.581,1.581,0,0,0,.4.28c-.061-.122-.092-.28-.158-.432h.03s.183-.249.092-.371c0-.031-.061-.061-.092-.092h0s.158-.249.092-.371c0-.031-.061-.061-.092-.092a2.675,2.675,0,0,0,.122-.951.256.256,0,0,0-.183-.122c-.092,0-.122,0-.463.158-.031-.092-.031-.122-.061-.122l-.051-.076a4.019,4.019,0,0,0-.214-.585.877.877,0,0,0-.183-.249c0-.122.03-.031.061-.031l-.061-.214c.4-.681.371-.712.31-.834a.256.256,0,0,0-.183-.122.658.658,0,0,0-.341.092c.061-.183.092-.371.158-.524V27.98a.8.8,0,0,0,.092-.214,1.755,1.755,0,0,0,.122-.773.256.256,0,0,0-.183-.122,2.589,2.589,0,0,0-.681.28,2.759,2.759,0,0,0-.214-.524s.031,0,.061.061a4.943,4.943,0,0,1-.341-1.2c0-.092-.061-.183-.061-.28v-.122h-.061v-.061a1.049,1.049,0,0,0,.061-.249h0s.158-.158.122-.249l.646-.463h0c1.108-.773,2.252-1.479,3.3-2.191h-.183l.371-.28c.122-.031.183,0-.061.158.092,0,.183-.092.28-.183.061-.092.158-.214.158-.214.371-.214.371-.183.249-.061h0l-.127.025Zm1.078-.773-.158.092C408.134,20.471,408.109,20.506,408.109,20.537Zm-16.228,3.452h0s-.092-.158-.183-.158h-.092v-.158h.092a.128.128,0,0,0,.061.122.207.207,0,0,0,.183.122c.214.061.4,0,3.981-2.1.4-.214.834-.493,1.235-.712-.463.341-.925.712-1.327,1.047-1.668,1.327-2.471,1.942-2.837,2.283h0a1.909,1.909,0,0,0-.183-.122s-.061-.061-.092-.061l-.061-.061s-.249-.371-.31-.31a.482.482,0,0,1-.158.524c-.122-.158-.214-.31-.28-.371h0l-.025-.051Zm6.909-5.308a.551.551,0,0,0,.183.122h.122a.914.914,0,0,1,.031.371c.122.31.061-.122.183.183v.092l.061.061h0a.353.353,0,0,0-.158-.061c-.183-.031-.249-.061-3.64,1.912-.463.28-.951.554-1.449.834.463-.371.986-.742,1.449-1.078,1.881-1.388,2.776-2.1,3.208-2.466h0v.031Zm3.122,5.369v-.092l.524-.341c-.28.214.061.158-.432.432l.158-.249-.28.214h0l.025.031Zm-.895.615h.091c-.712.371-1.942,1.047-4.194,2.344.864-.524,1.759-1.078,2.593-1.576.864-.524,1.637-.986,2.313-1.424l-.091.061-.091.061-.122.092s-.31.214-.554.371v.061h.061Zm.554,3.427a.551.551,0,0,0,.183.122h.122c-.28.158-.585.341-.986.554l-.432.249a3.981,3.981,0,0,0,.31-.341c.31-.31.524-.554.742-.773,0,.158.031.158.061.183h0Zm-2,.554s.061.092,0,.092Zm.122,0a.548.548,0,0,0-.122-.061v-.092c.249-.122.646-.371,1.327-.773l.092-.061c-.214.214-.432.463-.615.646-.214.214-.4.432-.554.585-.091-.122-.122-.183-.122-.249h0Zm-1.357-1.7a.152.152,0,0,0-.031-.092h0c.742-.463,1.449-.864,2.064-1.2h0a.227.227,0,0,0,.214,0h0c-.214.122-.554.341-1.108.646-.371.214-.8.463-1.078.615h0l-.061.031Zm2.928-1.235a.152.152,0,0,0-.03-.092c0-.031-.061-.061-.091-.092h0l.091-.061.061.122v.092h-.031v.031Zm-.1.31c-.158.493-.158.524-.091.615a.206.206,0,0,0,.183.122h.061v.092c-.183.122-.432.249-.712.432-.183.122-.4.249-.615.371.107-.147.219-.295.341-.432.493-.646.742-.986.864-1.169h0l-.03-.031Zm.646,2.9a2.288,2.288,0,0,0-.773.341l.122-.061c.249-.158.554-.31.8-.463l-.183.183Zm.554,1.235a.288.288,0,0,1-.092-.061L402.43,30l-.091.158h.025Zm.158-.808s-.4.214-.773.432a5.391,5.391,0,0,1,.4-.432l.28-.31s.061.183.092.31Zm-3.239-5.242c-1.668.951-3.549,2.039-5.059,2.9,1.169-.742,2.532-1.6,3.762-2.374a71.076,71.076,0,0,0,6.325-4.133h0a1.276,1.276,0,0,0,.554-.214h0s.091.31.122.463v.061c-1.235.681-3.086,1.729-5.77,3.3h.061Zm.183-4.316h0V20a.128.128,0,0,0-.061-.122C399.405,19.851,399.466,19.82,399.466,19.79Zm-.092.122c.061.158.122.341.183.493h.773c-.712.4-1.7.951-3.147,1.79-.712.4-1.479.864-2.191,1.266.371-.31.8-.615,1.169-.925a39.7,39.7,0,0,0,3.208-2.628h0Zm3.732.376h-.061a1.236,1.236,0,0,1,.432-.061c-.681.341-1.973,1.078-4.5,2.562-1.108.646-2.4,1.388-3.518,2.039.524-.341,1.078-.712,1.6-1.078,2.995-2,4.316-2.928,4.876-3.391A7.48,7.48,0,0,0,403.1,20.3Zm-5.613,2.344c.493-.28,1.017-.585,1.54-.895-.773.524-1.576,1.078-2.313,1.576-1.942,1.3-3.025,2.039-3.64,2.5v-.061h-.031l.183-.122s0-.031-.061-.061V25.5h.061s.122-.122.122-.214c.249-.31.341-.432.31-.524.554-.28,1.637-.895,3.8-2.161h0l.025.031Zm-4.687,3.325h0l-.061.061v-.061Zm.183.742a62.41,62.41,0,0,0,5.8-3.208c-.371.249-.742.463-1.108.712-2.313,1.449-3.854,2.435-4.906,3.086.28-.432.249-.493.183-.585h.036Zm-.646-.158a.168.168,0,0,0,.061.122v.061l-.122.092v-.122l.061-.122h0Zm-.8,3.208h0l.091-.249s.092.031.092.061v-.28s.031-.183.031-.214c.061,0,.122-.061.183-.092a.414.414,0,0,1,.031-.158c1.017-.493,3.117-1.668,7.621-4.286,1.449-.834,3.086-1.759,4.474-2.562-1.479.925-3.238,2-4.845,2.959-4.591,2.806-6.726,4.133-7.713,4.81h.036Zm11.383-6.411a1.854,1.854,0,0,1-.158.183l-.061-.061.214-.122h0Zm-4.967,4.255s-.092-.092-.158-.092h-.061l.158-.092v.061a.207.207,0,0,0,.183.122c.158.031.183.031,1.668-.834l.4-.214-.249.341a13.19,13.19,0,0,0-1.017,1.424c-.158-.092-.341-.158-.524-.28-.214-.183.092,0,0-.122l-.183-.061-.249-.249h0l.031-.01Zm7.992-7.4.122.061h.091l.061-.061h.03l-.681.341-.056-.2a1.61,1.61,0,0,1,.4-.158h0l.025.025Zm-5.8-.712-.061-.061Zm-2.593-6.467h0l-.092.061.061-.122v.061Zm-.371.834c.122-.341.214-.585.28-.773l.061.092s-.061.341-.158.341a.787.787,0,0,1,.158.432l-.28.158-.214.122.158-.371h0ZM397.1,15.57c.31-.31.524-.585.712-.773,0,.031.03.061.061.092,0,.122-.092-.092-.092,0a.919.919,0,0,1,.249.463c-.122,0-.31.122-1.3.681h-.061l.432-.432h0V15.57Zm-.773,2.313-.3.183.432-.432c.834-.834,1.327-1.3,1.576-1.6h.214a3.608,3.608,0,0,1,.158.554V16.8h0c-.158-.031-.183-.061-2.064,1.047h0l-.01.031Zm-2.069,3.137c.834-.463,1.729-.986,2.532-1.449-.463.371-.986.742-1.449,1.078a21.475,21.475,0,0,0-3.518,2.806.2.2,0,0,1-.092-.092l.092.092v.061a.362.362,0,0,1-.158-.031v-.092a3.091,3.091,0,0,0-.122-.834c.615-.341,1.51-.834,2.715-1.54h0Zm-3.147,0,.432-.249c-.183.183-.341.371-.493.554-.493.524-.834.895-1.047,1.144h-.158v-.056c-.249-.158-.4-.31-.585-.432.158,0,.249,0,1.881-.951h0l-.025-.01Zm-2.745.249c-.214-.28.341.214.183-.031a.461.461,0,0,1-.28-.092l-.214-.092h0l.524-.31c.214-.127.463-.28.712-.4l-.091.4c-.183.834-.214.951-.183,1.047-.061-.061-.158-.092-.214-.158,0-.061-.249-.249-.092-.214a.6.6,0,0,1-.31-.158h-.036Zm-.158.132c-.117-.036-.229-.076-.341-.122l-.122-.061.249-.122s.432.249.585.341c-.061.061-.183.061-.371,0h0v-.031Zm.925-1.6c-.183.092-.463.249-.834.463-.28.158-.615.371-.895.493h0l-.092-.269s.371-.183.864-.463l.249-.158h.061a2.2,2.2,0,0,1,.341-.183h.183l.091.092a.893.893,0,0,0-.4,0,3.088,3.088,0,0,1,.432.031h0Zm-.524,2.374h0l-.061-.061h0l-.061-.061.061.061.122.061Zm5.8,7.158a.947.947,0,0,1,.28-.158A.59.59,0,0,1,394.4,29.332Zm.585,0s-.03-.031,0-.122l-.061.061c-.183.061-.158-.031-.061-.158l.214-.061s.122-.249.061-.31l-.122.122V28.8l-.122.122h-.183l-.646.341a7.463,7.463,0,0,1-1.235,1.266c.122-.183-.061-.158-.122-.249.249,0,.493-.371.834-.585-.183.122-.183.031-.158,0l-.554.493a1.588,1.588,0,0,0-.371.122c.122,0,0,.122-.122.249a1.257,1.257,0,0,1-.249.183l-.061.061H392l-.061.092v-.086s0-.031.061-.061a.484.484,0,0,1,.183-.122.136.136,0,0,0-.117.061H392v.061h-.031a.457.457,0,0,1-.061.122.288.288,0,0,1-.249.214c.061-.031.091-.031.091-.092a.69.69,0,0,1-.249.183c-.061.031-.091,0-.061-.031h.031a4.168,4.168,0,0,0-.524.31v-.214l.214-.122s.31-.183.371-.214h.031s.183-.249.091-.371l-.061-.061c.524-.28,1.479-.8,3.3-1.82h.031v.061h0a.255.255,0,0,1,.122.031h.061a.255.255,0,0,0,.122-.031,1.249,1.249,0,0,1-.28.31,2.751,2.751,0,0,0,.28-.061l-.4.341h0l.158.025Z" transform="translate(-382.968 -10.389)" fill="#f2a5ba"/>
      <path id="_パス_1442" d="M405.08,44.645h.061Q405.141,44.615,405.08,44.645Z" transform="translate(-393.046 -26.231)" fill="#f2a5ba"/>
      <path id="_パス_1444" d="M393.7,26.34h-.28a2.746,2.746,0,0,1,.28.061S393.639,26.371,393.7,26.34Z" transform="translate(-387.314 -17.24)" fill="#f2a5ba"/>
      <path id="_パス_1446" d="M389.023,26.508c.183,0,0-.092.122-.061.061-.031-.214,0-.371,0-.158.031-.158.061.214.031h0l.03.031Z" transform="translate(-384.981 -17.285)" fill="#f2a5ba"/>
      <path id="_パス_1448" d="M410.2,12.572l-.158-.122a.845.845,0,0,1,.061.214l.092-.092h0Z" transform="translate(-395.484 -10.411)" fill="#f2a5ba"/>
      <path id="_パス_1450" d="M398.651,19.42l-.061.031h.031Z" transform="translate(-389.856 -13.838)" fill="#f2a5ba"/>
      <path id="_パス_1451" d="M398.491,19.332h.092s-.122-.061-.092-.092C398.4,19.332,398.552,19.271,398.491,19.332Z" transform="translate(-389.792 -13.749)" fill="#f2a5ba"/>
      <path id="_パス_1454" d="M398.77,18.691h.061a.13.13,0,0,1,.031-.061C398.831,18.63,398.8,18.63,398.77,18.691Z" transform="translate(-389.944 -13.449)" fill="#f2a5ba"/>
      <path id="_パス_1457" d="M398.651,18.88s0,.031-.061.061C398.62,18.941,398.712,18.941,398.651,18.88Z" transform="translate(-389.856 -13.572)" fill="#f2a5ba"/>
      <path id="_パス_1459" d="M398.58,18.511h.031s0-.031.061-.061a.289.289,0,0,0-.092.061Z" transform="translate(-389.851 -13.361)" fill="#f2a5ba"/>
      <path id="_長方形_143" d="M398.35,18.985l.122-.015h0Z" transform="translate(-389.738 -13.617)" fill="#f2a5ba"/>
      <path id="_パス_1461" d="M398.58,18.3h.031l.061-.031-.092.031Z" transform="translate(-389.851 -13.272)" fill="#f2a5ba"/>
      <path id="_パス_1462" d="M398.58,18.151s.061-.061.092-.061h-.092Z" transform="translate(-389.851 -13.184)" fill="#f2a5ba"/>
      <path id="_パス_1464" d="M398.531,18.39l-.061.061h0a.059.059,0,0,0,.061-.061Z" transform="translate(-389.797 -13.331)" fill="#f2a5ba"/>
      <path id="_パス_1465" d="M398.43,18.481h0l-.03-.031Z" transform="translate(-389.762 -13.361)" fill="#f2a5ba"/>
      <path id="_パス_1467" d="M398.1,18.871a.237.237,0,0,1,.158-.061A.219.219,0,0,0,398.1,18.871Z" transform="translate(-389.615 -13.538)" fill="#f2a5ba"/>
      <path id="_パス_1469" d="M398.28,18.361s.061,0,.061-.031h-.061v.061h0Z" transform="translate(-389.703 -13.302)" fill="#f2a5ba"/>
      <path id="_パス_1476" d="M397.479,18.183a.13.13,0,0,1,.03-.061c-.061.061-.122,0-.249.092h.061s-.061,0-.061.031c.061-.031.122-.031.091,0a1.284,1.284,0,0,0,.371-.214h-.091s-.061.092-.122.092h0l-.025.061Z" transform="translate(-389.202 -13.154)" fill="#f2a5ba"/>
      <path id="_パス_1477" d="M398.16,18.09v.061h0l.061-.061Z" transform="translate(-389.644 -13.184)" fill="#f2a5ba"/>
      <path id="_パス_1478" d="M398.015,18.21h-.092c-.061.031-.122,0-.183.092h.1c-.031-.031.03,0,.061-.061h.061l.061-.031Z" transform="translate(-389.438 -13.243)" fill="#f2a5ba"/>
      <path id="_パス_1479" d="M397.8,19.031l.031-.031Z" transform="translate(-389.467 -13.631)" fill="#f2a5ba"/>
      <path id="_パス_1480" d="M397.978,18.75a1.189,1.189,0,0,0-.158.122h.031a.131.131,0,0,0-.061.031.152.152,0,0,0,.092-.031h0l.092-.092h0V18.75Z" transform="translate(-389.462 -13.508)" fill="#f2a5ba"/>
      <path id="_パス_1482" d="M398.161,17.991l.061-.031-.122.031Z" transform="translate(-389.615 -13.12)" fill="#f2a5ba"/>
      <path id="_パス_1483" d="M398.191,17.9h-.061l-.031.031Z" transform="translate(-389.615 -13.091)" fill="#f2a5ba"/>
      <path id="_パス_1485" d="M396.82,15.726l.061-.056h-.061Z" transform="translate(-388.986 -11.994)" fill="#f2a5ba"/>
      <path id="_パス_1488" d="M397.5,16.991V16.93C397.473,16.961,397.412,17.022,397.5,16.991Z" transform="translate(-389.298 -12.614)" fill="#f2a5ba"/>
      <path id="_パス_1490" d="M397.55,16.952s.031-.061,0-.031h0s.031.015.031.031Z" transform="translate(-389.344 -12.605)" fill="#f2a5ba"/>
      <path id="_パス_1497" d="M394.935,15.9h.092l.183-.122-.28.122Z" transform="translate(-388.056 -12.048)" fill="#f2a5ba"/>
      <path id="_パス_1498" d="M390.406,9.237l-.061.061q.092-.046.092,0h0s.03.122.061.214l.066-.061v.061c.122-.061,0-.031.091-.122-.122.122.092.092-.061.249,0,0,.061-.061.092-.061h0a.289.289,0,0,1-.061.092h0s.061.031.061.061h0a.351.351,0,0,0,.214.092h0s0,.031.061.061h.061c-.061,0-.061.092-.122.092.092,0,.061,0,.214-.061l-.061.061s.091-.031.122,0c-.061,0-.061.061-.158.092-.091.122.183,0,0,.122.183-.092.061-.092.092-.122.03-.061.122-.061.122-.031,0,0-.183.158-.122.214h0s.061,0,0,.061c.092-.061,0,0,.122-.061h-.061s.214-.092.158,0h-.086c0,.031.031,0,0,.031-.122.092-.061,0-.183,0-.031.031.122,0,0,.061.183-.092,0,.061.158,0l-.061.061h-.03s-.031.122,0,.122c-.031-.031.091-.061.122-.122.122,0-.158.158-.092.183a.059.059,0,0,1,.061-.061h0a.105.105,0,0,1-.066.092c.031.031.061-.061.122-.061-.091.061.061,0,.092,0l-.061.061s.158-.092.122,0l-.122.061h.03l-.091.061s.061,0,.061.031c.061-.031.122-.092.158-.061-.031.031-.061.031-.031.061-.061,0-.122.061-.061,0h-.061v.092h.158a.461.461,0,0,1-.158.061h.091s-.061.061-.091.061c0,.031.158,0,.122.031h.031c0,.031-.061.122.061.092l-.092.092s.122-.122.183-.092c.061,0-.091.061-.122.092.061,0,.183-.061.122,0h0l-.061.061a.329.329,0,0,0-.183.061c.214-.122.091.061.31-.031h.092s-.031.061-.061.061h.03l.061.061h.122s-.122.061-.122,0c-.214.158.061,0,0,.122h-.031l-.122.122c.03,0,.158-.158.249-.158,0,0,0,.031.031,0-.091.031-.061.061-.031.061l-.091.061a.414.414,0,0,0,.158-.031l-.132.127c0,.031.122-.092.158-.061,0,.061.03.061.122.061,0,.031-.061,0-.092.061h.061a.353.353,0,0,1,.158-.061c.122-.061-.122.158,0,.092a.1.1,0,0,0-.091.061h.214l-.061.061a.862.862,0,0,1,.28-.092l.061-.061h.091a.288.288,0,0,0-.091.061h0a.353.353,0,0,1-.158.061l.061-.061s-.158.061-.214.092h.03l-.122.092h.061v.061a.92.92,0,0,1,.371-.061c-.091,0-.158.061-.249.122.091-.061-.061,0-.061-.061,0,0-.061.031-.061.061h.122a.2.2,0,0,0-.092.092c.158-.092.122,0,.183,0-.061,0-.122.061-.122,0-.091.092.214-.061.122,0h0c.061,0,.031.061,0,.061h0a.157.157,0,0,0,.214.061h0l-.183.092.524-.158a2.494,2.494,0,0,1-.493.214.033.033,0,0,0,.031.031,1.536,1.536,0,0,1,.183-.092c-.122.092-.061.061-.158.158,0,0,.214-.122.214-.092a1.924,1.924,0,0,1-.214.092l.214-.061s-.158.092-.214.122c.031,0,0,.031.031.031h.03s.28-.122.31-.061c-.03,0-.249.092-.249.158a3.9,3.9,0,0,1,.585-.183h0s-.493.183-.615.214c-.03.031-.061.031-.03.061-.03.031-.092,0-.092,0v.061a.388.388,0,0,0,.214-.061h-.158s.341-.122.341-.061a2.259,2.259,0,0,1-.249.122h0s.158,0,.091.061c0,0-.122.092-.061.061a3.57,3.57,0,0,1,.585-.31.663.663,0,0,1-.158.158c-.092.061-.249.092-.31.158h.091s-.091.031-.061.061c.122-.061,0,.061.091-.031.031,0,0,.031,0,.061a1.091,1.091,0,0,1,.31-.092.268.268,0,0,0-.071.061v.158a.117.117,0,0,1-.092.061h.061s-.031,0-.122.061c.061-.031.122,0,.158,0,.092-.061,0-.061-.061-.061a.69.69,0,0,1,.4-.092c.061,0-.091.061-.061.061,0,.092.28-.061.214.031a.873.873,0,0,1-.249.122c-.061,0,0-.061,0-.092h0s-.061.031-.061,0c-.061.061.061.122,0,.214a.119.119,0,0,0,.091-.031h0s.122-.031.122-.061h.122l-.091.061s.061-.061,0-.031c.061,0-.091.122.031.061l.061-.061s.183-.031.158,0c.092-.061,0,0,.092-.092-.122.092-.031-.061-.158.031.122-.092.03-.061.122-.158-.031,0-.061.031-.061,0H393.9v.061h-.183a.13.13,0,0,0,.061-.031h-.061s.091-.092.158-.092h0s.031-.092,0-.092h-.091s-.183-.061-.061-.183c0,0-.061,0-.061-.031h.061s0-.122-.03-.092c.158-.122,0-.122,0-.158h-.249V12.6h0c.122-.122-.183-.031-.091-.158h0v-.061a.1.1,0,0,0-.092.061H393.2s-.061,0,.061-.092a.5.5,0,0,0-.214,0h0v-.061l.091-.061h-.158a.844.844,0,0,0,.158-.061h-.158s-.122,0-.061-.061c.091-.092-.061-.158,0-.28-.183.122.061-.092-.092,0,.03,0,.061-.061.092-.061-.061,0,.03-.092-.092-.061a.119.119,0,0,0,.092-.031h.061c-.031-.031-.183.031-.31.092.061-.061.031-.061-.061,0,.03,0,.061-.061.092-.061,0,0,0-.122-.092-.061h0a.088.088,0,0,0-.03-.061h-.061s-.061,0,0-.122h-.071c-.158.122.061-.061,0-.061h-.031a2.2,2.2,0,0,0,.214-.158h.03a.211.211,0,0,1-.158,0c.061-.031.158-.061.122-.092.03-.031-.214.031-.122-.061-.03,0-.061.061-.122.061,0,0,.122-.158,0-.092h0a.17.17,0,0,0-.183,0c.249-.158-.214-.031.03-.183l-.061-.061h0a.211.211,0,0,0-.158,0,.072.072,0,0,0,.061-.031q0-.092-.158-.061l.061-.061s.061-.158-.061-.158h.031s.122-.28-.183-.122h-.081a.47.47,0,0,0-.158.122s.061-.092.092-.092h0a.186.186,0,0,1,.092-.158c-.061-.092-.061-.249-.122-.341l-.091.092h0l.091-.092c.061-.061-.091,0-.091,0,0-.061.158-.061.122-.092h-.03s-.091.061-.122,0c0-.031.061-.061.061-.061h-.091l-.091.092c.122-.122-.061-.183,0-.214a.177.177,0,0,1-.122-.031s-.092.092-.122.061c.214-.158.03-.092.158-.249-.061.092-.092-.061-.183.092,0-.031.061-.061.092-.122-.122,0-.03-.158-.122-.183l-.092.092.092-.122s-.158.122-.092,0c0,0-.031.061-.061.061,0-.092-.091-.158-.158-.183s-.122-.092-.092-.249c0,.061-.031.061-.061.031l-.092.092V8.82s0-.031-.122.031h0a4.292,4.292,0,0,1-.31.371c.122-.092-.092.214.091.092h0l.28-.092Zm1.581,2.252h-.031C392.048,11.459,392.018,11.489,391.987,11.489Z" transform="translate(-385.658 -8.622)" fill="#f2a5ba"/>
      <path id="_パス_1502" d="M397.657,18.012s-.03.031,0,.031h0S397.718,17.981,397.657,18.012Z" transform="translate(-389.39 -13.141)" fill="#f2a5ba"/>
      <path id="_パス_1504" d="M397.849,17.517s.092-.031.061,0C398,17.486,397.788,17.517,397.849,17.517Z" transform="translate(-389.486 -12.896)" fill="#f2a5ba"/>
      <path id="_パス_1505" d="M397.25,18.231l.092-.031h-.092Z" transform="translate(-389.197 -13.238)" fill="#f2a5ba"/>
      <path id="_パス_1508" d="M396.857,17.48s-.03,0,0,.031h.031Z" transform="translate(-388.997 -12.884)" fill="#f2a5ba"/>
      <path id="_パス_1509" d="M396.611,17.811l.061-.031-.091.061h.031v-.031Z" transform="translate(-388.868 -13.032)" fill="#f2a5ba"/>
      <path id="_パス_1510" d="M396.455,17.72s-.092,0-.061.031C396.394,17.751,396.455,17.751,396.455,17.72Z" transform="translate(-388.773 -13.002)" fill="#f2a5ba"/>
      <path id="_パス_1511" d="M396.28,16.782h.031l.158-.092-.183.092h0Z" transform="translate(-388.72 -12.496)" fill="#f2a5ba"/>
      <path id="_パス_1512" d="M395.322,16.51s-.03,0-.122.061c0,.061.092-.031.061,0,.031,0,0-.031.061-.061Z" transform="translate(-388.189 -12.407)" fill="#f2a5ba"/>
      <path id="_パス_1513" d="M391.451,8.44l-.031.061h.031Z" transform="translate(-386.331 -8.44)" fill="#f2a5ba"/>
      <path id="_パス_1514" d="M391.211,8.592l.061-.092-.092.061h0Z" transform="translate(-386.213 -8.469)" fill="#f2a5ba"/>
      <path id="_パス_1515" d="M393.551,14.33l-.061.061h0V14.33Z" transform="translate(-387.348 -11.336)" fill="#f2a5ba"/>
      <path id="_パス_1516" d="M393.37,13.811h0l.092-.031Z" transform="translate(-387.289 -11.065)" fill="#f2a5ba"/>
      <path id="_パス_1520" d="M430.012,12.141h0V12.08s-.061.092-.122.092c.061.092.061-.031.091,0h0Z" transform="translate(-405.243 -10.229)" fill="#f2a5ba"/>
      <path id="_パス_1523" d="M429.37,11.8s-.03-.015-.03-.031a.119.119,0,0,0,.03.092Z" transform="translate(-404.972 -10.077)" fill="#f2a5ba"/>
      <path id="_パス_1526" d="M429.591,12.064s0-.122-.061-.061a.059.059,0,0,1,.061.061Z" transform="translate(-405.066 -10.183)" fill="#f2a5ba"/>
      <path id="_パス_1528" d="M429.161,11.961s-.031,0-.061-.061a.289.289,0,0,0,.061.092h0Z" transform="translate(-404.854 -10.141)" fill="#f2a5ba"/>
      <path id="_パス_1531" d="M428.86,11.961V11.9l.03.092Z" transform="translate(-404.736 -10.141)" fill="#f2a5ba"/>
      <path id="_パス_1532" d="M428.681,11.992s-.061-.061-.061-.092v.092Z" transform="translate(-404.618 -10.141)" fill="#f2a5ba"/>
      <path id="_パス_1534" d="M429.041,12.141s-.031-.061-.061-.061Z" transform="translate(-404.795 -10.229)" fill="#f2a5ba"/>
      <path id="_パス_1537" d="M429.471,12.408a.237.237,0,0,1-.061-.158A.219.219,0,0,0,429.471,12.408Z" transform="translate(-405.007 -10.313)" fill="#f2a5ba"/>
      <path id="_パス_1538" d="M429.22,12.26v.061h.031A.13.13,0,0,0,429.22,12.26Z" transform="translate(-404.913 -10.318)" fill="#f2a5ba"/>
      <path id="_パス_1539" d="M428.891,12.321s0-.061-.031-.061v.061Z" transform="translate(-404.736 -10.318)" fill="#f2a5ba"/>
      <path id="_パス_1546" d="M428.623,12.813h-.061c.061.061,0,.122.092.249V13s0,.061.031.061c-.031-.061-.031-.122,0-.092a1.074,1.074,0,0,0-.244-.341v.092a.207.207,0,0,1,.122.122h0l.061-.031Z" transform="translate(-404.53 -10.5)" fill="#f2a5ba"/>
      <path id="_パス_1547" d="M428.52,12.472h.061a.2.2,0,0,0-.092-.092v.092Z" transform="translate(-404.554 -10.377)" fill="#f2a5ba"/>
      <path id="_パス_1548" d="M428.74,12.411a.231.231,0,0,0,.092.183V12.5c-.031.031,0-.031-.061-.061h0V12.38h0v.061h0l-.031-.031Z" transform="translate(-404.677 -10.377)" fill="#f2a5ba"/>
      <path id="_パス_1550" d="M429.412,12.632v.061a.152.152,0,0,0-.031-.092h0s-.092-.061-.092-.092a.526.526,0,0,0,.122.158v-.036Z" transform="translate(-404.948 -10.441)" fill="#f2a5ba"/>
      <path id="_パス_1552" d="M428.431,12.441l-.061-.061.061.092Z" transform="translate(-404.495 -10.377)" fill="#f2a5ba"/>
      <path id="_パス_1553" d="M428.351,12.511l-.031-.061v.061Z" transform="translate(-404.471 -10.411)" fill="#f2a5ba"/>
      <path id="_パス_1555" d="M425.906,14.28s-.158-.092-.091-.031l.061.061h.03Z" transform="translate(-403.231 -11.286)" fill="#f2a5ba"/>
      <path id="_パス_1556" d="M425.281,16.211h0l-.061-.061v.061Z" transform="translate(-402.947 -12.23)" fill="#f2a5ba"/>
      <path id="_パス_1557" d="M424.43,18.81l.061.061S424.491,18.841,424.43,18.81Z" transform="translate(-402.558 -13.538)" fill="#f2a5ba"/>
      <path id="_パス_1558" d="M427.341,13.29h-.061C427.31,13.29,427.372,13.351,427.341,13.29Z" transform="translate(-403.96 -10.824)" fill="#f2a5ba"/>
      <path id="_パス_1559" d="M423.58,16.93l.031.031Z" transform="translate(-402.141 -12.614)" fill="#f2a5ba"/>
      <path id="_パス_1565" d="M427.921,12.75l-.031.031h.031Z" transform="translate(-404.259 -10.559)" fill="#f2a5ba"/>
      <path id="_パス_1567" d="M426.563,15.749s-.03-.092,0-.061l-.183-.158.183.214h0Z" transform="translate(-403.517 -11.925)" fill="#f2a5ba"/>
      <path id="_パス_1568" d="M420.193,17.249a.288.288,0,0,1,.091.061h-.158s-.031.061.061.122h0a3.24,3.24,0,0,1,.432.183c-.122-.092.249.031.091-.092.031,0,.031.031.091.061q-.061-.061,0-.061h0a1.455,1.455,0,0,0,.214-.122h-.091l.061-.031c-.092-.092-.03.031-.158-.061.158.061.092-.122.249,0,0,0-.092-.031-.061-.061h.122s0-.061.031-.031h-.031a.24.24,0,0,0,.061-.249h-.03a.117.117,0,0,0,.061-.092h0s-.03-.061,0-.061c.031.031.092,0,.122.061-.03-.092-.03-.061-.158-.183h.061s-.061-.031-.061-.061c.031.061.091.031.158.092.158,0-.061-.158.122-.061-.158-.122-.122,0-.158-.031-.061,0-.091-.092-.061-.092,0,0,.214.092.249.061h0s-.03-.061.061-.031c-.091-.061,0,0-.091-.092v.061s-.158-.158-.061-.158l.061.061c.03,0,0-.031.03,0,.122.092,0,.061.061.158.061,0-.061-.092.061,0-.158-.122.061-.031-.061-.158l.061.061v-.061l.061.061s.092,0,.092-.061c-.031.061-.092-.031-.158-.061-.061-.122.214.092.249,0h.031c0-.061-.091-.031-.122-.092.091.031,0-.031-.031-.092l.061.061s-.158-.122-.061-.122l.092.092h.061v-.061c-.061,0-.122-.092-.122-.122.061,0,.061.061.091,0,.031.031.092.092,0,.061l.061.061.061-.061h0l-.061-.122s.061.031.061.061v-.061c.061.031.122.092.122.122v-.092a.059.059,0,0,1,.061.061h0c.061,0-.061-.122,0-.122h0s.122,0,.061-.122l.122.061s-.158-.061-.158-.158c0-.061.091.061.122.061-.031-.061-.122-.158,0-.122v.036h.061a.159.159,0,0,0,.122.158c-.183-.158.061-.092-.158-.249h.061s-.122-.092-.061-.122a.152.152,0,0,1,.092.031v-.066h.031a.547.547,0,0,1-.061-.122c.03,0,0,0,.03.031v-.061s.061.092.031.092c.214.122-.031-.061.122,0h0a1.232,1.232,0,0,0,.183.092.581.581,0,0,1-.249-.158s.031,0,0-.031c.061.061.061,0,.061,0l.092.061a.547.547,0,0,1-.092-.122.443.443,0,0,1,.158.092c.03,0-.122-.061-.122-.122.061,0,.03-.061,0-.122.061,0,.061.061.091.061l-.061-.061h.031s-.092-.061-.092-.092c-.092-.092.183.061.092-.061.031,0,.061.061.091.061a.315.315,0,0,0-.091-.183h.091s-.158-.092-.183-.183h-.061v-.117l.061.061h0a.244.244,0,0,1,.122.092h-.061a.932.932,0,0,0,.158.122h.158a1.05,1.05,0,0,1-.183-.341,1.04,1.04,0,0,1,.183.183c-.092-.061,0,.061-.031.092,0,0,.061.031.061.061v-.122s0,.031.061.061c-.158-.122-.061-.122-.091-.158.03.031.091.092.061.092.122.061-.122-.183,0-.122h0c0-.061.03-.061.061,0h0a.132.132,0,0,0,.025-.188c-.01-.01-.015-.02-.025-.025l.158.158-.31-.432a2.1,2.1,0,0,1,.371.371s.061,0,.031-.031l-.158-.122c.122.092.061.031.183.092a1.171,1.171,0,0,1-.158-.183l.158.158-.091-.183.158.158c-.031,0,.03,0,0-.061h-.061s-.158-.249-.122-.28a.452.452,0,0,0,.214.183,2.172,2.172,0,0,1-.31-.493h.03s.249.371.31.493c.061,0,.061.061.061,0,.061.031.061.061.031.092h.091a.4.4,0,0,0-.122-.214v.158s-.183-.28-.122-.31c.031,0,.122.158.158.183h0s-.03-.158.061-.092c0,0,.122.092.091.031-.091-.092-.4-.4-.463-.493a1.024,1.024,0,0,1,.183.092c.092.061.158.214.214.28l-.031-.061s.061.092.061.061c-.061-.092.061,0-.061-.092,0-.031.031,0,.061,0a.591.591,0,0,1-.158-.28l.061.061a.213.213,0,0,0,.158-.031.2.2,0,0,1,.091.092v-.071s-.03.031.061.122c-.031-.061,0-.092-.031-.158-.061-.092-.061,0-.061.061a.75.75,0,0,1-.158-.341c0-.061.061.061.061.031.092,0-.091-.249,0-.214a.5.5,0,0,1,.158.214c0,.061-.091,0-.091,0h.061v.066c.061.061.122-.061.214-.031a.118.118,0,0,0-.031-.092h0s0-.092-.061-.092V13l.061.092s-.061-.031-.061,0c0-.061.122.092.061-.031L423.98,13s-.031-.183,0-.158c-.061-.092,0,0-.092-.092.092.122-.091.031.031.158-.092-.092-.061,0-.183-.122,0,0,.061.061,0,.061h0l.03.061c.031.061,0,.092,0,.158,0,0,0-.031-.061-.061v.051s-.091-.092-.091-.158h-.031s-.092,0-.092.031v.092h-.03s0,.158-.158.092c0,0,0,.061-.03.061l-.061-.061s-.091,0-.061.061c-.158-.122-.122.031-.183.061l.061.061a.323.323,0,0,0-.031.092l.061.061s-.092,0-.122.061h0c-.183-.092,0,.183-.122.122h0v.061l-.061-.061h0s0,.031.061.092v.061s0,.061-.092-.031c.03.061,0,.092.092.214h0l-.092-.061.092.122a1.184,1.184,0,0,1-.158-.122c.061.122,0,.061.061.183l-.061-.061s.03.092,0,.061c-.122-.061-.158.122-.31.092.183.122-.092,0,0,.092q-.046,0-.092-.092c0,.061-.122,0,0,.122-.031,0-.061-.061-.061-.061h0a.13.13,0,0,0-.03-.061.876.876,0,0,0,.183.249q-.061,0,0,.061a.1.1,0,0,1-.092-.092s-.122.031-.031.092h0q-.03,0-.061.061h0v.092h0s0,.031-.122,0l.061.061s-.122,0-.091.061h.061a2.569,2.569,0,0,0-.28-.092v-.015c-.122,0,.091.061.091.122-.061-.031-.122-.092-.158-.092-.061,0,.091.183,0,.158a.094.094,0,0,1,.091.092c0,.031-.183-.031-.091.061h-.03s0,.092.061.122c-.249-.158,0,.183-.183.031v.061h-.061a.256.256,0,0,0,.031.122.073.073,0,0,1-.061-.031c-.091,0-.091.031,0,.158l-.091-.061s-.183,0-.122.092h0s-.31,0-.061.183v.092a.8.8,0,0,0,.214.092s-.122,0-.122-.031h0a.231.231,0,0,1-.183-.031c-.061.092-.214.158-.28.249l.122.061h0s-.091,0-.061-.031c-.061,0,0,.061.061.092a.131.131,0,0,1-.122-.092h0s.092.092.061.122c-.031,0-.092-.031-.092,0h-.03l.091.061s-.031.031.091.092c-.183-.061-.158.122-.214.092.061.061,0,.092,0,.122,0,0,.122.061.091.092-.214-.122-.122,0-.28-.061.122.031,0,.092.122.158a.461.461,0,0,1-.158-.061c.03.092-.122.092-.158.183,0,0,.092,0,.122.061l-.158-.061s.158.092.031.061c0,0,.061,0,.061.031-.214.061-.061.341-.4.31q.061,0,.061.031h0l.092-.071Zm2.4-2.039s.031.061,0,.031C422.537,15.18,422.6,15.211,422.6,15.211Z" transform="translate(-400.391 -10.559)" fill="#f2a5ba"/>
      <path id="_パス_1572" d="M428.49,12.964h.061S428.49,12.9,428.49,12.964Z" transform="translate(-404.554 -10.651)" fill="#f2a5ba"/>
      <path id="_パス_1574" d="M427.864,12.849s-.061-.092,0-.061C427.833,12.7,427.864,12.91,427.864,12.849Z" transform="translate(-404.233 -10.566)" fill="#f2a5ba"/>
      <path id="_パス_1575" d="M428.62,13.23l.031.061.031.031-.061-.092Z" transform="translate(-404.618 -10.795)" fill="#f2a5ba"/>
      <rect id="_長方形_151" height="0.031" transform="translate(23.992 2.522)" fill="#f2a5ba"/>
      <path id="_パス_1578" d="M427.89,13.781s.031.031.031,0V13.72h0Z" transform="translate(-404.259 -11.036)" fill="#f2a5ba"/>
      <path id="_パス_1579" d="M428.261,13.961s-.03,0-.061-.061l.061.092h0Z" transform="translate(-404.412 -11.124)" fill="#f2a5ba"/>
      <path id="_パス_1580" d="M428.281,14.2s0-.061-.03-.061C428.25,14.14,428.25,14.232,428.281,14.2Z" transform="translate(-404.436 -11.242)" fill="#f2a5ba"/>
      <path id="_パス_1581" d="M427.191,14.358h0L427.1,14.2Z" transform="translate(-403.871 -11.272)" fill="#f2a5ba"/>
      <path id="_パス_1582" d="M427.221,15.481a.059.059,0,0,1-.061-.061h0c0,.061,0,.031.091.122.061,0-.061-.092,0-.061Z" transform="translate(-403.901 -11.871)" fill="#f2a5ba"/>
      <path id="_パス_1583" d="M420.061,21.67,420,21.7h.061Z" transform="translate(-400.381 -14.944)" fill="#f2a5ba"/>
      <path id="_パス_1584" d="M420.211,21.851l-.091-.061Z" transform="translate(-400.44 -15.003)" fill="#f2a5ba"/>
      <path id="_パス_1586" d="M424.952,18.091h0l-.092-.061Z" transform="translate(-402.77 -13.154)" fill="#f2a5ba"/>
      <path id="_パス_1588" d="M435.29,44.9l.061-.061S435.29,44.932,435.29,44.9Z" transform="translate(-407.897 -26.334)" fill="#f2a5ba"/>
      <path id="_パス_1589" d="M434.9,45.111l.03-.031-.061.061.031-.031h0Z" transform="translate(-407.691 -26.452)" fill="#f2a5ba"/>
      <path id="_パス_1590" d="M434.86,44.991s-.091.061-.061,0c-.061.122.031,0,0,.031h0l.061-.061h0v.031Z" transform="translate(-407.645 -26.393)" fill="#f2a5ba"/>
      <path id="_パス_1593" d="M434.931,44.42a.289.289,0,0,0-.061.092h.031V44.42Z" transform="translate(-407.691 -26.128)" fill="#f2a5ba"/>
      <path id="_パス_1596" d="M434.8,44.775s.061-.092.03-.061A.072.072,0,0,1,434.8,44.775Z" transform="translate(-407.656 -26.269)" fill="#f2a5ba"/>
      <path id="_パス_1598" d="M434.751,44.481V44.42a.288.288,0,0,1-.061.092h0Z" transform="translate(-407.602 -26.128)" fill="#f2a5ba"/>
      <path id="_パス_1600" d="M434.62,44.872l.092-.092Z" transform="translate(-407.568 -26.305)" fill="#f2a5ba"/>
      <path id="_パス_1601" d="M434.75,44.3l.061-.061Z" transform="translate(-407.632 -26.039)" fill="#f2a5ba"/>
      <path id="_パス_1602" d="M434.69,44.2s.031-.092.061-.092l-.061.061Z" transform="translate(-407.602 -25.975)" fill="#f2a5ba"/>
      <path id="_パス_1607" d="M434.5,44.9a.244.244,0,0,1,.092-.122C434.592,44.811,434.531,44.841,434.5,44.9Z" transform="translate(-407.509 -26.305)" fill="#f2a5ba"/>
      <path id="_パス_1608" d="M434.56,44.721a.13.13,0,0,1,.03-.061h-.03Z" transform="translate(-407.538 -26.246)" fill="#f2a5ba"/>
      <path id="_パス_1616" d="M433.928,44.659V44.6c-.031.092-.092.092-.158.214h0c.03-.061.091-.122.061-.031a2.7,2.7,0,0,0,.214-.371.1.1,0,0,1-.061.092.219.219,0,0,1-.061.158h0Z" transform="translate(-407.15 -26.123)" fill="#f2a5ba"/>
      <path id="_パス_1617" d="M434.351,44.421h0l.03-.061-.061.061Z" transform="translate(-407.42 -26.098)" fill="#f2a5ba"/>
      <path id="_パス_1618" d="M434.292,44.573a.2.2,0,0,1,.03-.092h0V44.42h-.03c-.031.061-.061.092-.092.158,0,0,.031-.061.061-.061h0Z" transform="translate(-407.361 -26.128)" fill="#f2a5ba"/>
      <path id="_パス_1619" d="M434.382,44.841a1.491,1.491,0,0,0-.092.158h-.03a.388.388,0,0,0,.061-.1h0a.456.456,0,0,1,.061-.122h0Z" transform="translate(-407.391 -26.305)" fill="#f2a5ba"/>
      <path id="_パス_1620" d="M434.26,44.931v.061h0a.152.152,0,0,1,.03-.092h-.03Z" transform="translate(-407.391 -26.364)" fill="#f2a5ba"/>
      <path id="_パス_1621" d="M434.351,44.332l.061-.092-.092.092Z" transform="translate(-407.42 -26.039)" fill="#f2a5ba"/>
      <path id="_パス_1622" d="M434.32,44.321h0l.031-.031Z" transform="translate(-407.42 -26.064)" fill="#f2a5ba"/>
      <path id="_パス_1624" d="M433.05,43.646s.061-.158,0-.092v.061h0Z" transform="translate(-406.796 -25.694)" fill="#f2a5ba"/>
      <path id="_パス_1627" d="M433.757,44.111V44.05C433.757,44.081,433.726,44.142,433.757,44.111Z" transform="translate(-407.137 -25.946)" fill="#f2a5ba"/>
      <path id="_パス_1635" d="M431.945,44.854l.061-.061.091-.183-.158.249h0Z" transform="translate(-406.25 -26.221)" fill="#f2a5ba"/>
      <path id="_パス_1636" d="M431.141,43.443s.092-.092.092-.061l-.061.092v-.031c.03-.031-.061.158.03,0v-.061a.954.954,0,0,1,.122-.092c.061-.092,0,0,.031-.092-.061.158-.031,0-.091.122.061-.122,0-.061.061-.183,0,.031,0,.061-.03.031h0v.092c-.041.031-.086.061-.122.092a.072.072,0,0,1,.03-.061v.061a.362.362,0,0,1,.031-.158h0v-.056H431.2s-.122.092-.061-.031h-.03v-.061h0c.091-.158-.031-.061-.031-.092v.092h-.122v.061l-.061-.061h0c.061-.183-.122.092-.091-.031h0V42.96h0s0,.031-.061.092h-.03s-.031.061,0-.061c-.031.061-.061,0-.122.158h0a.414.414,0,0,1,.03-.158l-.122.122v-.066h0c.031-.122-.091-.061-.061-.183-.091.183,0-.092-.061.061,0-.031,0-.061.061-.092-.031.031,0-.092-.061,0,0-.031.03-.061.061-.092h0a.13.13,0,0,1,.031-.061,1.579,1.579,0,0,0-.158.249q0-.061-.031,0c0-.031,0-.092.061-.092,0,0,0-.092-.061,0h-.031s0,.031-.061.061h0s-.031,0,0-.092V42.9c-.122.158,0-.122-.061-.061V42.9s.061-.249.061-.28v-.036c0-.122-.061.092-.091.122,0-.061.061-.122.061-.158,0-.061-.122.158-.092.061a.128.128,0,0,1-.061.122s0-.183-.031-.061h0s-.061,0-.091.092c.091-.28-.122.092,0-.158h0a.1.1,0,0,0-.091.061v-.056q0-.061-.092.061v-.092s0-.158-.03-.061h0s0-.28-.122,0l-.061.061a.6.6,0,0,0-.061.183v-.127h0v-.158c-.061,0-.091-.122-.158-.158v.122h-.061s0-.122.031-.092c0-.061-.031.061-.061.092a.425.425,0,0,1,.061-.158h0s-.031.122-.061.122v-.081h0v.061s-.031,0-.061.092c.03-.183-.092-.092-.061-.158-.031.061-.061.061-.061.061s0,.122-.031.122c.061-.214,0-.092,0-.28,0,.122-.061,0-.092.183v-.158c-.061.092-.061-.061-.122-.061a.255.255,0,0,1-.031.122v-.158s-.03.183,0,.061v.061c-.061-.158-.214.092-.249-.214v.061s-.061,0-.061.122h0s-.031.28-.061.432c.031-.158,0,.214.061,0v.107c0-.061,0-.092.03-.061h0a.244.244,0,0,0,.092.122v-.036c.03-.122,0,0,0-.158,0,.158.061,0,.03.214,0,0,0-.092.031-.092h0v.122h.031a.186.186,0,0,0,.158-.092h.061l.03-.03a.2.2,0,0,1-.03.122c.061-.061.03-.061.091-.183v.066s0-.092.031-.092a.167.167,0,0,1-.061.158c0,.158.092-.122.061.092.061-.158,0-.092,0-.122,0-.061.061-.122.061-.092,0,0-.061.214,0,.214h0c.031-.092,0,0,.061-.122h-.031s.091-.158.091-.061a.152.152,0,0,1-.03.092h0c-.031.122-.031,0-.092.122,0,.061.061-.092,0,.061.061-.183,0,0,.092-.092v.092h0v.061s-.031.092,0,.031a.414.414,0,0,1,.03-.158c.061-.092-.061.214,0,.183h0c.031,0,0-.092.061-.122,0,.092,0-.031.061-.061v.092s.031-.158.031-.092l-.061.092h0v.061h0a.424.424,0,0,1,.061-.158c0,.061-.031.061,0,.061,0,.061-.061.122-.031.031v.061h0l.061-.092s0,.061-.031.061v-.061a.362.362,0,0,1-.031.158l.061-.061V43.2c0,.031.091-.122.091-.061h0s0,.061.061,0v.122s0-.158.061-.183c.031,0-.031.092-.031.122.031-.061.092-.158.092-.061h0V43.2a.491.491,0,0,0-.092.158c.092-.214.061,0,.158-.214v.061h0s.091-.158.091-.092v.031h.061s.061-.031.061-.061v.092c-.091.214.031-.061,0,.092h0a.553.553,0,0,1-.031.183.778.778,0,0,1,.092-.249h0c-.031.092,0,.061,0,.061v-.036a.219.219,0,0,1-.061.158.462.462,0,0,1,.061-.158c0,.061,0,0,.091-.031,0,.031-.031.061-.031.092l.061-.092h0s.061-.061.061-.092c.061-.122-.061.183,0,.061a.288.288,0,0,1-.061.092.6.6,0,0,0,.122-.158v.061a2.254,2.254,0,0,1,.122-.249v-.086h.091l-.061.061h0l-.061.122V42.95l-.091.183h0l-.061.092h0l.214-.249a2.265,2.265,0,0,0-.122.249c.031-.092-.061.031-.061,0,0,0,0,.061-.031.061l.091-.092a.152.152,0,0,1-.03.092c.061-.158.061-.092.122-.158a.1.1,0,0,1-.061.092c-.031.122.122-.183.091-.061h0c.03-.03.03,0,0,.061h0s.061.031.158-.092l-.091.183.28-.432a3.385,3.385,0,0,1-.249.463h0s.061-.183.092-.183c-.061.122,0,.061-.061.183,0,0,.091-.214.122-.183l-.091.183.122-.158a.793.793,0,0,0-.091.214c0-.031,0,0,.03,0h0s.158-.28.183-.249c0,.031-.122.214-.122.249.061-.092.249-.432.31-.493h0s-.249.4-.31.493v.061a.059.059,0,0,1-.061.061h0v.061a1.353,1.353,0,0,0,.158-.183l-.091.092s.183-.28.183-.249a.8.8,0,0,1-.122.214c0-.031.061-.061.061-.031v.061h0s-.061.158,0,.092c.061-.122.249-.493.31-.585a1.1,1.1,0,0,1-.061.183,1.712,1.712,0,0,1-.183.31s.031-.061.061-.061c0,0-.061.092-.031.092l.061-.092h0a2.24,2.24,0,0,1,.183-.249v.092s-.031.061,0,.092a.1.1,0,0,1-.061.092v.061c.03-.061.061-.061.091-.092.061-.092,0,0-.031,0a1.3,1.3,0,0,1,.214-.31c.031,0-.03.092,0,.061,0,.03.158-.214.158-.092a1.464,1.464,0,0,1-.122.214c-.031,0,0-.061,0-.061h0s-.031.092-.031.061c-.031.092.061.061.031.122a.287.287,0,0,1,.061-.092h0a.547.547,0,0,0,.091-.122h0l-.356.2Z" transform="translate(-404.486 -24.967)" fill="#f2a5ba"/>
      <path id="_パス_1642" d="M434.066,44.217s.061-.092.031-.061C434.157,44.095,434,44.247,434.066,44.217Z" transform="translate(-407.288 -25.991)" fill="#f2a5ba"/>
      <path id="_パス_1643" d="M433.84,45.031v.031l.031-.092Z" transform="translate(-407.184 -26.398)" fill="#f2a5ba"/>
      <path id="_パス_1646" d="M433.47,44.751v.031l.031-.061h0l-.031.031Z" transform="translate(-407.003 -26.275)" fill="#f2a5ba"/>
      <path id="_パス_1648" d="M433.162,45.331a.326.326,0,0,0,.03-.061S433.131,45.331,433.162,45.331Z" transform="translate(-406.847 -26.545)" fill="#f2a5ba"/>
      <path id="_パス_1649" d="M432.93,44.628h0l.092-.158Z" transform="translate(-406.737 -26.152)" fill="#f2a5ba"/>
      <path id="_パス_1650" d="M432.2,45.211V45.15c-.03.031,0,0-.061.122,0,.061.061-.092.031-.031h0Z" transform="translate(-406.349 -26.487)" fill="#f2a5ba"/>
      <path id="_パス_1651" d="M428.221,42.171l-.031-.061v.061Z" transform="translate(-404.407 -24.992)" fill="#f2a5ba"/>
      <path id="_パス_1654" d="M430.53,44.692l.03-.092-.061.092Z" transform="translate(-405.542 -26.216)" fill="#f2a5ba"/>
      <path id="_パス_1658" d="M408.1,63.16v.031h.061S408.073,63.191,408.1,63.16Z" transform="translate(-394.53 -35.34)" fill="#f2a5ba"/>
      <path id="_パス_1703" d="M406.834,60.813h.28c.061,0,.158,0,.092.031h.28c-.158,0,0-.031-.158,0h.132s.061-.031,0-.031h0s-.122-.061,0-.092h.061s.061,0,0-.031c.183,0,.03-.031.061-.061h-.092l-.061-.031h-.092a.059.059,0,0,0,.061-.061h0c.183,0-.122-.031,0-.061h-.214c.158,0,0-.061.158-.092h.061c-.061,0,.092,0-.061-.031h-.061s.061-.031-.061-.031h-.076s-.061,0,.061-.031h-.092c-.183,0,.122,0,.031-.031h-.061a1.049,1.049,0,0,0,.28-.031h.061s-.214-.031-.092-.061h-.122s.183-.031,0-.031h-.122c.31-.031-.158-.031.122-.061h0a.2.2,0,0,0-.122-.061h.061c.061,0,.03-.031-.091-.031h.091s.158-.061.03-.061h.031c-.122,0,.249-.092-.092-.061h-.269s.091-.031.122,0h0c.183,0,.061-.031.183-.031,0-.031.092-.092.061-.158H407c.183-.031.061-.092.122-.092h-.183c.249,0,.091-.031.28-.061-.122,0-.03-.031-.183,0h.158c-.092,0,.061-.061,0-.092h.03s-.183,0-.061-.061h-.092s-.158-.092.122-.183h-.183l.122-.061h-.122l-.463.092c.158,0-.214.061,0,.061h-.031l-.091.092h0l.158-.031c-.183.031,0,.061-.183.092h.03s0,.061.091.061h.031s-.031,0,0,.031h0c-.158.031.158,0-.061.061.183,0,.091-.031.158-.031h.122s-.249.031-.249.061h-.091s-.091.061,0,.061a.414.414,0,0,0,.158-.031c.122,0-.214.031-.183.061h.091s.061,0,0,.031h0a.536.536,0,0,1-.122.031c-.03,0,.158,0,.092.031h.03s-.091.031,0,.031h-.229c.249,0,0,.031.28,0h.158s0,.031-.061.031h-.061c-.249,0,.061,0-.091.03h-.031a.553.553,0,0,0-.183.031.86.86,0,0,1,.28,0h-.031c-.031,0,0,0,.091.031h.122c.122,0-.183.031-.031.031h-.183s.341.061.4.061h-.28c.122,0-.061,0,0-.031h.031a.255.255,0,0,0-.122.031h.122s0,.061.158.061h.31s-.463.031-.524.031h-.214a1.542,1.542,0,0,0,.214.031h.585A.748.748,0,0,0,407,60.2h-.061s-.061.031-.061.061h.249c0,.031.28,0,.158.061H407c-.091,0,0,.061-.091.061h0l-.046.437Z" transform="translate(-393.631 -33.359)" fill="#f2a5ba"/>
      <path id="_パス_1710" d="M407.56,62.59l.092-.031h-.092Z" transform="translate(-394.265 -35.045)" fill="#f2a5ba"/>
      <path id="_パス_1724" d="M381.41,45.661l.03.031-.03-.061Z" transform="translate(-381.41 -26.722)" fill="#f2a5ba"/>
      <path id="_パス_1725" d="M381.54,45.578h0v.061s.03-.092.061-.061C381.54,45.456,381.6,45.578,381.54,45.578Z" transform="translate(-381.474 -26.67)" fill="#f2a5ba"/>
      <path id="_パス_1733" d="M382.08,45.971l.03.061a.152.152,0,0,0-.03-.092h0Z" transform="translate(-381.739 -26.875)" fill="#f2a5ba"/>
      <rect id="_長方形_160" height="0.092" transform="translate(0.203 18.938)" fill="#f2a5ba"/>
      <path id="_パス_1735" d="M382.231,46.081v.061l-.031-.092.031.031Z" transform="translate(-381.798 -26.929)" fill="#f2a5ba"/>
      <path id="_パス_1736" d="M382.32,46.05a.54.54,0,0,1,.031.122v-.092h-.031Z" transform="translate(-381.857 -26.929)" fill="#f2a5ba"/>
      <path id="_パス_1738" d="M382.08,45.87s0,.061.03.061V45.87Z" transform="translate(-381.739 -26.84)" fill="#f2a5ba"/>
      <path id="_パス_1741" d="M381.84,45.45a.858.858,0,0,1,.031.158A.336.336,0,0,0,381.84,45.45Z" transform="translate(-381.621 -26.634)" fill="#f2a5ba"/>
      <path id="_パス_1743" d="M382.231,45.841V45.81H382.2v.031Z" transform="translate(-381.798 -26.811)" fill="#f2a5ba"/>
      <path id="_パス_1750" d="M382.231,45.088l.03.061c-.03-.092,0-.122-.061-.249v.061a1.2,1.2,0,0,0,.158.371v-.092c0-.031-.061-.061-.061-.122h0l-.066-.031Z" transform="translate(-381.798 -26.364)" fill="#f2a5ba"/>
      <path id="_パス_1751" d="M382.39,45.75h0s0,.031.061.092V45.75Z" transform="translate(-381.892 -26.781)" fill="#f2a5ba"/>
      <path id="_パス_1752" d="M382.261,45.573a.294.294,0,0,0-.061-.183v.092a.13.13,0,0,0,.031.061h0V45.6h0l.03-.031Z" transform="translate(-381.798 -26.604)" fill="#f2a5ba"/>
      <path id="_パス_1753" d="M381.84,45.271a.547.547,0,0,1,.061.122.392.392,0,0,0-.061-.183h0V45.3h0Z" transform="translate(-381.621 -26.516)" fill="#f2a5ba"/>
      <path id="_パス_1755" d="M382.45,45.781l.031.061-.031-.092Z" transform="translate(-381.921 -26.781)" fill="#f2a5ba"/>
      <path id="_パス_1756" d="M382.51,45.75l.031.061V45.78l-.031-.031Z" transform="translate(-381.951 -26.781)" fill="#f2a5ba"/>
      <path id="_パス_1758" d="M384.02,45.27s.091.158.061.061V45.27Z" transform="translate(-382.693 -26.545)" fill="#f2a5ba"/>
      <path id="_パス_1761" d="M383.112,45.485s.015.031.03.031C383.142,45.485,383.081,45.424,383.112,45.485Z" transform="translate(-382.242 -26.638)" fill="#f2a5ba"/>
      <path id="_パス_1769" d="M383.78,43.565v.061l.092.214-.092-.28Z" transform="translate(-382.575 -25.705)" fill="#f2a5ba"/>
      <path id="_パス_1770" d="M385.781,42.539s-.122-.28-.183-.432c.03.158-.122-.183-.061,0v-.031h0a.843.843,0,0,1-.158-.061h0c.03.122.03,0,.061.122-.061-.158-.092,0-.158-.158,0,0,.031.092,0,.092h0s-.061-.061-.061-.092h-.031a.154.154,0,0,0-.122.158h0s-.031,0-.061.061h0v.061c0-.031-.061-.092-.061-.122a.747.747,0,0,0,.03.214v.061c0-.061-.061-.092-.061-.158-.091-.122,0,.158-.091-.031.061.183.061.092.061.122,0,.061.031.122,0,.122,0,0-.091-.214-.122-.183h0s0,.061-.03,0c.03.092,0,0,0,.122h0s.03.158,0,.092v-.086h0c-.061-.122,0-.031,0-.158,0-.061,0,.092-.031-.031.061.183-.03,0,0,.122h0l-.061-.092s-.061-.061-.061,0c.03,0,.061.092.092.158,0,.122-.092-.183-.122-.122l.061.061-.061-.061a.536.536,0,0,1,.03.122c-.061-.092,0,.031,0,.092v-.092h-.03v-.056s-.031.061-.061.031c0,.061.061.158.031.158,0-.031,0-.061-.031-.061,0-.061-.03-.122,0-.031v-.066h-.061v.092a.844.844,0,0,1-.061-.158v.092s-.061-.061-.061-.092c-.031-.031,0,.158-.031.092h0s-.091-.031-.061.061l-.061-.122s.091.122.061.183c0,.031-.061-.092-.061-.122,0,.061.031.183,0,.092h0v-.056a.443.443,0,0,0-.092-.158c.092.214-.061.061.03.28h-.03v-.056s.061.158,0,.158a.138.138,0,0,1-.03-.061v.061H384v.092s-.031-.122,0-.122c-.122-.214,0,.061-.092-.061h0c-.061-.158-.061-.092-.122-.183,0,.031.122.183.122.249h0c-.031-.092-.031-.061-.031-.061v.031a1.481,1.481,0,0,1-.091-.158.848.848,0,0,1,.061.158q-.046-.046,0,.092a.1.1,0,0,0-.025-.092v.092h0a.323.323,0,0,1,.031.092c.03.122-.092-.158-.061,0a.152.152,0,0,0-.03-.092v.183l-.061-.061s.061.183.091.249l.061.092v.061a.152.152,0,0,0-.031-.092h0l-.061-.122v.061a.553.553,0,0,0-.031-.183h0l-.066-.092h0v.371c0-.092-.061-.158-.092-.249.061.092,0-.061.031-.031l-.031-.061v.122a.105.105,0,0,0-.066-.092c.061.158,0,.122,0,.183,0-.061-.03-.122,0-.092-.061-.122.061.214,0,.092h0c0,.061,0,0-.03,0h0s-.092,0-.031.158l-.061-.183.122.493a3.644,3.644,0,0,1-.183-.463h0a1.532,1.532,0,0,1,.091.183l-.091-.183s.091.214.061.214a1.347,1.347,0,0,0-.092-.214l.061.183s-.061-.158-.092-.214h0s.061.31.03.31c0-.031-.091-.249-.122-.249,0,.092.158.463.158.554h0s-.158-.463-.183-.585c0-.031,0-.061-.03-.061v-.1h-.061a.329.329,0,0,0,.061.183v-.122s.091.31.061.31a1.134,1.134,0,0,0-.092-.249h0s0,.158-.031.061c0,0-.061-.122-.061-.061.061.122.214.524.249.615,0,0-.092-.122-.122-.158-.061-.092-.061-.249-.122-.31v.092s-.03-.092-.03-.061c.03.122-.031,0,0,.092,0,.031,0,0-.031,0,.031.061.091.249.061.28a.152.152,0,0,0-.03-.092c-.031,0-.061-.061-.092-.031a.289.289,0,0,0-.061-.092v.061l-.031-.122v.158c.031.092.031,0,.031-.031a.95.95,0,0,1,.091.371c0,.031-.03-.092-.03-.061-.061,0,.061.249,0,.158a1.129,1.129,0,0,1-.092-.249c0-.031.061.061.061.031h-.031V43.6c-.031-.061-.091,0-.158-.061v.092h0s0,.092.03.122h0c0,.061-.092-.122-.03,0v.061s.061.158.03.158c.03.092,0,0,.061.092-.061-.158.061,0,0-.158a.8.8,0,0,0,.091.158V44h0V43.78a.844.844,0,0,1,.061.158h0s.061.061.061,0h0v-.066h0s0-.122.091,0V43.9s.092.061.061,0c.091.158.061,0,.122.031v-.214s.046.015.061,0h0c.091.158,0-.158.091-.031h.061l-.03-.061v-.061s0-.061.061.092a.747.747,0,0,0-.031-.214h0v-.031a1.228,1.228,0,0,1,.092.183v-.122s0-.092.03-.031c.061.122.092,0,.183.092-.092-.183.061.061,0-.061,0,.031.031.061.061.122,0-.061.061.061.031-.061a.119.119,0,0,0,.03.092h0v.061a1.385,1.385,0,0,0-.091-.28c.03.061.03.031,0-.031,0,.031.061.092.03.092,0,0,.092.031.031-.061h.03v-.061h0s0-.031.091.061v-.061c-.091-.158.031.092.031,0h0s.122.183.158.183v.031c.061.092-.03-.092,0-.122a.425.425,0,0,0,.061.158c0,.031-.031-.183.03-.092a.252.252,0,0,0-.061-.122s.122.158.061,0h0v-.127c.122.28,0-.158.122.092h.03v-.061c.061.031.061,0,.03-.122v.092s.158.092.122,0h0s.183.214.061-.061V43.1l-.092-.183s.061.061.061.092h0s.061,0,.092.122c.061-.031.158,0,.214,0l-.061-.122h0s.03.092,0,.092c.03.061,0-.061,0-.092.061.031.03.158.061.158h0v-.127l.031.061h.03l-.061-.092v-.092c.091.158.122,0,.158.061V42.89s-.061-.122-.031-.122c.092.214.061.092.158.249-.061-.092.03-.031-.03-.183a.455.455,0,0,0,.061.122c0-.092.092,0,.122,0a.271.271,0,0,1-.03-.122l.092.122s-.061-.158,0-.061v-.061s.091-.183.28.061c-.031-.061,0-.061,0-.061h0s.061,0,.03-.122h0l.086-.153Z" transform="translate(-382.014 -24.928)" fill="#f2a5ba"/>
      <path id="_パス_1774" d="M382.421,45.317s0-.031-.03,0Z" transform="translate(-381.892 -26.562)" fill="#f2a5ba"/>
      <path id="_パス_1777" d="M382.32,44.931V44.9l.031.092Z" transform="translate(-381.857 -26.364)" fill="#f2a5ba"/>
      <path id="_パス_1783" d="M383.23,44.54h0l.061.158Z" transform="translate(-382.305 -26.187)" fill="#f2a5ba"/>
      <path id="_パス_1784" d="M383.351,43.626a.13.13,0,0,0,.03.061c0-.031,0,0-.03-.122C383.321,43.535,383.382,43.657,383.351,43.626Z" transform="translate(-382.36 -25.705)" fill="#f2a5ba"/>
      <path id="_パス_1785" d="M388.94,43.45l.031.031Z" transform="translate(-385.112 -25.651)" fill="#f2a5ba"/>
      <path id="_パス_1788" d="M385.18,42.78h0l.061.092Z" transform="translate(-383.263 -25.321)" fill="#f2a5ba"/>
    </g>
    <path id="パス_2067" data-name="パス 2067" d="M3.508-3.3l-1.029.078-.712.06-.371.03a.108.108,0,0,1-.087-.06A.21.21,0,0,1,1.27-3.31.075.075,0,0,1,1.3-3.373a.169.169,0,0,1,.06-.03A.282.282,0,0,0,1.4-3.418q.006-.323.006-1.508a10.191,10.191,0,0,0-.069-1.355Q1.27-6.762,1.27-6.8a.156.156,0,0,1,.063-.132.21.21,0,0,1,.129-.048.077.077,0,0,1,.066.033.253.253,0,0,1,.036.1,3.939,3.939,0,0,1,.093.748q.033.544.033,1.137,0,.5-.006.933t-.006.58l.3-.021L2.431-3.5q.347-.042.784-.126a3.734,3.734,0,0,1,.425-.066.079.079,0,0,1,.084.06.5.5,0,0,1,.018.144.147.147,0,0,1-.069.126A.317.317,0,0,1,3.508-3.3ZM8.952-4.477A1.666,1.666,0,0,1,8.793-4a2.124,2.124,0,0,1-.479.676,1.085,1.085,0,0,1-.787.311.9.9,0,0,1-.64-.239.959.959,0,0,1-.257-.736,2.152,2.152,0,0,1,.215-.924,2.15,2.15,0,0,1,.562-.748,1.11,1.11,0,0,1,.718-.29.674.674,0,0,1,.374.1.318.318,0,0,1,.153.284.546.546,0,0,1-.236.407,2.241,2.241,0,0,1-.613.347,3.749,3.749,0,0,1-.778.215,2.128,2.128,0,0,0-.072.538.8.8,0,0,0,.165.538.585.585,0,0,0,.47.191.946.946,0,0,0,.748-.329,3.112,3.112,0,0,0,.479-.742q.012-.024.042-.093t.054-.069Q8.952-4.567,8.952-4.477Zm-.9-1.232a.741.741,0,0,0-.437.15,1.392,1.392,0,0,0-.35.359,1.262,1.262,0,0,0-.182.371,2.137,2.137,0,0,0,.58-.156,2.485,2.485,0,0,0,.512-.275q.206-.15.206-.245a.165.165,0,0,0-.1-.15A.474.474,0,0,0,8.055-5.709Zm6.013.431-.616.108-.389.066q0,.311.009.652t.027.6a2.358,2.358,0,0,0,.084.532q.06.185.066.209A.14.14,0,0,1,13.173-3a.253.253,0,0,1-.141.051.088.088,0,0,1-.06-.021.17.17,0,0,1-.042-.069,1.429,1.429,0,0,1-.069-.311q-.033-.227-.051-.5-.018-.245-.027-.571t-.009-.631q-.335.054-.688.132a3.134,3.134,0,0,1-.377.066.238.238,0,0,1-.135-.042.13.13,0,0,1-.063-.114.1.1,0,0,1,.054-.1.481.481,0,0,1,.179-.024,1.541,1.541,0,0,0,.263-.033q.174-.033.221-.045.4-.078.544-.1,0-.126-.012-.329-.012-.275-.012-.419a3.338,3.338,0,0,1,.015-.362.866.866,0,0,1,.057-.23A.178.178,0,0,1,13-6.78a.1.1,0,0,1,.072.018.093.093,0,0,1,.018.066,1.962,1.962,0,0,1-.03.209,2.826,2.826,0,0,0-.03.461q0,.221.012.5l.006.162q.269-.042,1.065-.221a.134.134,0,0,0,.081-.084q.033-.072.069-.072a.191.191,0,0,1,.135.075.226.226,0,0,1,.069.153.172.172,0,0,1-.087.156A.863.863,0,0,1,14.067-5.279Zm3.512-.766a.159.159,0,0,1-.078.024.122.122,0,0,1-.1-.06,1.4,1.4,0,0,1-.024-.371l-.012-.365a2.717,2.717,0,0,0-.042-.3,2.2,2.2,0,0,1-.036-.287q0-.084.036-.108a.162.162,0,0,1,.078-.012.332.332,0,0,1,.126.027.174.174,0,0,1,.09.069,1.12,1.12,0,0,1,.054.278,3.983,3.983,0,0,1,.024.446,2.839,2.839,0,0,1-.03.44Q17.633-6.074,17.579-6.044Zm3.907,3.207a.837.837,0,0,1-.347-.048.146.146,0,0,1-.09-.132q0-.054.138-.188t.185-.135q.072,0,.072.03a.065.065,0,0,1-.03.048q-.03.024-.03.042t.075.048a.6.6,0,0,0,.182.024,1.468,1.468,0,0,0,.506-.093,1.217,1.217,0,0,0,.416-.242.433.433,0,0,0,.162-.317.336.336,0,0,0-.1-.257.619.619,0,0,0-.254-.141q-.153-.045-.512-.129-.395-.09-.613-.159a1.082,1.082,0,0,1-.35-.174.326.326,0,0,1-.132-.266.689.689,0,0,1,.281-.526,2.167,2.167,0,0,1,.646-.377,1.747,1.747,0,0,1,.562-.138q.2,0,.2.12a.333.333,0,0,1-.048.159.154.154,0,0,1-.144.087.146.146,0,0,1-.078-.027.154.154,0,0,0-.084-.027,1.479,1.479,0,0,0-.377.078,1.507,1.507,0,0,0-.467.233.458.458,0,0,0-.209.377.226.226,0,0,0,.165.212,4.341,4.341,0,0,0,.613.171.709.709,0,0,0,.108.027.874.874,0,0,1,.1.021,2.788,2.788,0,0,1,.706.245.445.445,0,0,1,.245.413.76.76,0,0,1-.212.506,1.51,1.51,0,0,1-.559.389A1.842,1.842,0,0,1,21.486-2.838Zm8.837-.233q-.072,0-.135-.171a1.594,1.594,0,0,1-.063-.518q.006-.676.021-1.633t.027-1.442a1,1,0,0,1,.063-.323.2.2,0,0,1,.2-.15.062.062,0,0,1,.063.051.819.819,0,0,1,.015.194s0,.017,0,.039,0,.061,0,.117Q30.4-5.332,30.4-3.837a1.091,1.091,0,0,0,.087.407q.087.215.087.227,0,.06-.078.1A.409.409,0,0,1,30.323-3.071ZM33.781-6.7a.332.332,0,0,1-.206-.084q-.1-.084-.1-.138a.174.174,0,0,1,.063-.126.187.187,0,0,1,.129-.06l.045.015a.278.278,0,0,1,.1.081,1.309,1.309,0,0,1,.108.126.293.293,0,0,1,.06.1Q33.978-6.7,33.781-6.7ZM33.96-2.9q-.084-.006-.123-.269t-.081-1q-.024-.485-.042-.948t-.024-.715a.186.186,0,0,1,.021-.1.089.089,0,0,1,.081-.033.161.161,0,0,1,.174.114A1.722,1.722,0,0,1,34-5.416L34-4.71q0,.6.036.969,0,.018.054.383a2.57,2.57,0,0,1,.042.335.1.1,0,0,1-.051.093A.179.179,0,0,1,33.96-2.9Zm6.079-3.009a3.6,3.6,0,0,0-.58,1.011,7.915,7.915,0,0,0-.425,1.424q-.018.09-.06.359l-.03.209a.25.25,0,0,1-.081.15.339.339,0,0,1-.218.054,1.306,1.306,0,0,1-.2-.362q-.174-.362-.365-.781l-.257-.562q-.233-.509-.389-.8T37.2-5.494a.044.044,0,0,0-.039.03q-.015.03-.033.03a.063.063,0,0,1-.051-.027.091.091,0,0,1-.021-.057.4.4,0,0,1,.087-.2q.087-.126.171-.126a.142.142,0,0,1,.09.024.344.344,0,0,1,.054.054q.024.03.036.048a6,6,0,0,1,.5.945q.126.269.622,1.406l.138.317a3.355,3.355,0,0,1,.06-.5,8.158,8.158,0,0,1,.395-1.4,4.652,4.652,0,0,1,.616-1.161.915.915,0,0,1,.117-.135.172.172,0,0,1,.117-.039q.03,0,.1.093a.314.314,0,0,1,.066.123q0,.03-.081.084A.478.478,0,0,0,40.039-5.913Zm5.139,1.436A1.666,1.666,0,0,1,45.019-4a2.124,2.124,0,0,1-.479.676,1.085,1.085,0,0,1-.787.311.9.9,0,0,1-.64-.239.959.959,0,0,1-.257-.736,2.152,2.152,0,0,1,.215-.924,2.15,2.15,0,0,1,.562-.748,1.11,1.11,0,0,1,.718-.29.674.674,0,0,1,.374.1.318.318,0,0,1,.153.284.546.546,0,0,1-.236.407,2.241,2.241,0,0,1-.613.347,3.749,3.749,0,0,1-.778.215,2.128,2.128,0,0,0-.072.538.8.8,0,0,0,.165.538.585.585,0,0,0,.47.191.946.946,0,0,0,.748-.329,3.112,3.112,0,0,0,.479-.742q.012-.024.042-.093t.054-.069Q45.178-4.567,45.178-4.477Zm-.9-1.232a.741.741,0,0,0-.437.15,1.392,1.392,0,0,0-.35.359,1.262,1.262,0,0,0-.182.371,2.137,2.137,0,0,0,.58-.156,2.485,2.485,0,0,0,.512-.275q.206-.15.206-.245a.165.165,0,0,0-.1-.15A.474.474,0,0,0,44.28-5.709Zm8.2,2.638q-.072,0-.135-.171a1.594,1.594,0,0,1-.063-.518q.006-.676.021-1.633t.027-1.442a1,1,0,0,1,.063-.323.2.2,0,0,1,.2-.15.062.062,0,0,1,.063.051.819.819,0,0,1,.015.194s0,.017,0,.039,0,.061,0,.117q-.108,1.573-.108,3.069a1.091,1.091,0,0,0,.087.407q.087.215.087.227,0,.06-.078.1A.409.409,0,0,1,52.483-3.071ZM55.941-6.7a.332.332,0,0,1-.206-.084q-.1-.084-.1-.138a.174.174,0,0,1,.063-.126.187.187,0,0,1,.129-.06l.045.015a.278.278,0,0,1,.1.081,1.309,1.309,0,0,1,.108.126.293.293,0,0,1,.06.1Q56.138-6.7,55.941-6.7ZM56.12-2.9q-.084-.006-.123-.269t-.081-1q-.024-.485-.042-.948t-.024-.715a.186.186,0,0,1,.021-.1.089.089,0,0,1,.081-.033.161.161,0,0,1,.174.114,1.721,1.721,0,0,1,.036.437l-.006.706q0,.6.036.969,0,.018.054.383a2.569,2.569,0,0,1,.042.335.1.1,0,0,1-.051.093A.179.179,0,0,1,56.12-2.9ZM61.93-5.35a.176.176,0,0,1-.108-.051.181.181,0,0,0-.084-.051,1.179,1.179,0,0,0-.515.221,7.545,7.545,0,0,0-.724.521,5.873,5.873,0,0,0-.568.509l.006.108q.455.209,1.011.449a4.642,4.642,0,0,0,.772.281q.084.012.168.018t.12.006a.56.56,0,0,1,.09.006q.036.006.036.024,0,.072-.111.144a.617.617,0,0,1-.332.072,1.455,1.455,0,0,1-.535-.147q-.338-.147-.8-.386l-.377-.185q.078.76.078.838a.124.124,0,0,1-.066.108.262.262,0,0,1-.144.042q-.048,0-.078-.144T59.7-3.538L59.656-3.9a.364.364,0,0,1-.126-.087.161.161,0,0,1-.054-.1q0-.072.12-.168-.006-.323-.033-.921t-.039-.873l-.03-.832a.873.873,0,0,1,.042-.287.176.176,0,0,1,.185-.12.093.093,0,0,1,.072.021.13.13,0,0,1,.018.081q0,.275.039,1.277t.063,1.427q1.334-1.268,1.95-1.268a.458.458,0,0,1,.212.045q.087.045.087.093a.276.276,0,0,1-.081.176A.218.218,0,0,1,61.93-5.35Zm5.1.873A1.666,1.666,0,0,1,66.875-4a2.124,2.124,0,0,1-.479.676,1.085,1.085,0,0,1-.787.311.9.9,0,0,1-.64-.239.959.959,0,0,1-.257-.736,2.152,2.152,0,0,1,.215-.924,2.15,2.15,0,0,1,.562-.748,1.11,1.11,0,0,1,.718-.29.674.674,0,0,1,.374.1.318.318,0,0,1,.153.284.546.546,0,0,1-.236.407,2.241,2.241,0,0,1-.613.347,3.749,3.749,0,0,1-.778.215,2.128,2.128,0,0,0-.072.538.8.8,0,0,0,.165.538.585.585,0,0,0,.47.191.946.946,0,0,0,.748-.329,3.112,3.112,0,0,0,.479-.742q.012-.024.042-.093t.054-.069Q67.033-4.567,67.033-4.477Zm-.9-1.232a.741.741,0,0,0-.437.15,1.392,1.392,0,0,0-.35.359,1.262,1.262,0,0,0-.182.371,2.137,2.137,0,0,0,.58-.156,2.485,2.485,0,0,0,.512-.275q.206-.15.206-.245a.165.165,0,0,0-.1-.15A.474.474,0,0,0,66.136-5.709ZM74.7-3A.742.742,0,0,1,74.1-3.22a.812.812,0,0,1-.191-.55,3.075,3.075,0,0,1,.1-.712,2.943,2.943,0,0,1,.3-.76q.012-.024.1-.176a.748.748,0,0,1,.194-.233.373.373,0,0,1,.227-.081.188.188,0,0,1,.1.027.079.079,0,0,1,.045.069.161.161,0,0,1-.033.057l-.051.069a2.816,2.816,0,0,0-.329.485,3.269,3.269,0,0,0-.26.6,2.193,2.193,0,0,0-.093.652q0,.473.574.473a.875.875,0,0,0,.5-.156,1.236,1.236,0,0,0,.368-.38.8.8,0,0,0,.138-.41.533.533,0,0,0-.138-.365,2.334,2.334,0,0,0-.377-.329,2.052,2.052,0,0,1-.227-.185.2.2,0,0,1-.072-.12q0-.072.1-.117a.589.589,0,0,1,.239-.045.358.358,0,0,1,.1.009.033.033,0,0,1,.024.033.082.082,0,0,1-.021.039.08.08,0,0,0-.021.045q0,.018.12.12a2.715,2.715,0,0,1,.4.4.747.747,0,0,1,.162.479,1.123,1.123,0,0,1-.174.538,1.588,1.588,0,0,1-.491.523A1.246,1.246,0,0,1,74.7-3Zm6.557.06q-.12,0-.218-.251a1.868,1.868,0,0,1-.123-.521q-.024-.257-.036-1.041-.006-.126-.006-.254t-.006-.218a9,9,0,0,1-.473.939,6.887,6.887,0,0,1-.6.9q-.3.377-.494.377a.256.256,0,0,1-.26-.209,2.526,2.526,0,0,1-.063-.664,4.838,4.838,0,0,1,.111-.963,3.37,3.37,0,0,1,.254-.82.733.733,0,0,1,.1-.171.128.128,0,0,1,.1-.045q.15,0,.15.06a.428.428,0,0,1-.06.138,3.6,3.6,0,0,0-.281.718,4.24,4.24,0,0,0-.12,1.125q0,.473.132.473.156,0,.422-.344a6.337,6.337,0,0,0,.529-.823,7.217,7.217,0,0,0,.4-.832,2.879,2.879,0,0,0,.108-.371.817.817,0,0,1,.036-.147q.018-.045.042-.045a.258.258,0,0,1,.144.054.146.146,0,0,1,.078.114q0,.287.021.984t.051.966a1.138,1.138,0,0,0,.087.365,1.08,1.08,0,0,0,.123.206.275.275,0,0,1,.06.093.2.2,0,0,1-.054.15A.2.2,0,0,1,81.254-2.939ZM86.19-5.368a.119.119,0,0,1-.081-.036.7.7,0,0,1-.087-.1.363.363,0,0,0-.111-.1.267.267,0,0,0-.141-.042q-.174,0-.467.458A7.1,7.1,0,0,0,84.73-4.04q.006.138.021.347t.021.311l.018.239A.29.29,0,0,1,84.754-3a.138.138,0,0,1-.132.063q-.1,0-.132-.272T84.455-4q-.006-.132-.009-.377t-.015-.586q-.018-.515-.018-.736,0-.138.168-.138a.111.111,0,0,1,.123.087,1.7,1.7,0,0,1,.021.332v.951a4.775,4.775,0,0,1,.389-.8,2.32,2.32,0,0,1,.41-.512.577.577,0,0,1,.356-.176.555.555,0,0,1,.251.06.546.546,0,0,1,.191.153.293.293,0,0,1,.072.176.186.186,0,0,1-.075.123A.21.21,0,0,1,86.19-5.368Zm3.679,2.531a.837.837,0,0,1-.347-.048.146.146,0,0,1-.09-.132q0-.054.138-.188t.185-.135q.072,0,.072.03a.065.065,0,0,1-.03.048q-.03.024-.03.042t.075.048a.6.6,0,0,0,.182.024,1.468,1.468,0,0,0,.506-.093,1.217,1.217,0,0,0,.416-.242.433.433,0,0,0,.162-.317.336.336,0,0,0-.1-.257.619.619,0,0,0-.254-.141q-.153-.045-.512-.129-.395-.09-.613-.159a1.081,1.081,0,0,1-.35-.174.326.326,0,0,1-.132-.266.689.689,0,0,1,.281-.526,2.167,2.167,0,0,1,.646-.377,1.747,1.747,0,0,1,.562-.138q.2,0,.2.12a.333.333,0,0,1-.048.159.154.154,0,0,1-.144.087.146.146,0,0,1-.078-.027.154.154,0,0,0-.084-.027,1.479,1.479,0,0,0-.377.078,1.507,1.507,0,0,0-.467.233.458.458,0,0,0-.209.377.226.226,0,0,0,.165.212,4.341,4.341,0,0,0,.613.171.709.709,0,0,0,.108.027.874.874,0,0,1,.1.021,2.788,2.788,0,0,1,.706.245.445.445,0,0,1,.245.413.76.76,0,0,1-.212.506,1.51,1.51,0,0,1-.559.389A1.842,1.842,0,0,1,89.869-2.838Zm6.7-1.639A1.666,1.666,0,0,1,96.412-4a2.124,2.124,0,0,1-.479.676,1.085,1.085,0,0,1-.787.311.9.9,0,0,1-.64-.239.959.959,0,0,1-.257-.736,2.152,2.152,0,0,1,.215-.924,2.15,2.15,0,0,1,.562-.748,1.11,1.11,0,0,1,.718-.29.674.674,0,0,1,.374.1.318.318,0,0,1,.153.284.546.546,0,0,1-.236.407,2.241,2.241,0,0,1-.613.347,3.749,3.749,0,0,1-.778.215,2.128,2.128,0,0,0-.072.538.8.8,0,0,0,.165.538.585.585,0,0,0,.47.191.946.946,0,0,0,.748-.329,3.112,3.112,0,0,0,.479-.742q.012-.024.042-.093t.054-.069Q96.57-4.567,96.57-4.477Zm-.9-1.232a.741.741,0,0,0-.437.15,1.392,1.392,0,0,0-.35.359,1.261,1.261,0,0,0-.182.371,2.137,2.137,0,0,0,.58-.156,2.485,2.485,0,0,0,.512-.275Q96-5.41,96-5.506a.165.165,0,0,0-.1-.15A.474.474,0,0,0,95.673-5.709Zm4.092,2.638q-.072,0-.135-.171a1.594,1.594,0,0,1-.063-.518q.006-.676.021-1.633t.027-1.442a1,1,0,0,1,.063-.323.2.2,0,0,1,.2-.15.062.062,0,0,1,.063.051.819.819,0,0,1,.015.194s0,.017,0,.039,0,.061,0,.117q-.108,1.573-.108,3.069a1.091,1.091,0,0,0,.087.407q.087.215.087.227,0,.06-.078.1A.409.409,0,0,1,99.765-3.071Zm6.019-2.842A3.6,3.6,0,0,0,105.2-4.9a7.914,7.914,0,0,0-.425,1.424q-.018.09-.06.359l-.03.209a.25.25,0,0,1-.081.15.339.339,0,0,1-.218.054,1.306,1.306,0,0,1-.2-.362q-.174-.362-.365-.781l-.257-.562q-.233-.509-.389-.8t-.227-.287a.044.044,0,0,0-.039.03q-.015.03-.033.03a.063.063,0,0,1-.051-.027.091.091,0,0,1-.021-.057.4.4,0,0,1,.087-.2q.087-.126.171-.126a.142.142,0,0,1,.09.024.343.343,0,0,1,.054.054q.024.03.036.048a6,6,0,0,1,.5.945q.126.269.622,1.406l.138.317a3.355,3.355,0,0,1,.06-.5,8.158,8.158,0,0,1,.395-1.4,4.652,4.652,0,0,1,.616-1.161.915.915,0,0,1,.117-.135.172.172,0,0,1,.117-.039q.03,0,.1.093a.314.314,0,0,1,.066.123q0,.03-.081.084A.478.478,0,0,0,105.784-5.913Zm5.139,1.436a1.666,1.666,0,0,1-.159.473,2.124,2.124,0,0,1-.479.676,1.085,1.085,0,0,1-.787.311.9.9,0,0,1-.64-.239.959.959,0,0,1-.257-.736,2.152,2.152,0,0,1,.215-.924,2.15,2.15,0,0,1,.562-.748,1.11,1.11,0,0,1,.718-.29.674.674,0,0,1,.374.1.318.318,0,0,1,.153.284.546.546,0,0,1-.236.407,2.242,2.242,0,0,1-.613.347A3.749,3.749,0,0,1,109-4.6a2.128,2.128,0,0,0-.072.538.8.8,0,0,0,.165.538.585.585,0,0,0,.47.191.946.946,0,0,0,.748-.329,3.112,3.112,0,0,0,.479-.742q.012-.024.042-.093t.054-.069Q110.923-4.567,110.923-4.477Zm-.9-1.232a.741.741,0,0,0-.437.15,1.392,1.392,0,0,0-.35.359,1.261,1.261,0,0,0-.182.371,2.137,2.137,0,0,0,.58-.156,2.485,2.485,0,0,0,.512-.275q.206-.15.206-.245a.165.165,0,0,0-.1-.15A.474.474,0,0,0,110.026-5.709Zm4.421,2.872a.837.837,0,0,1-.347-.048.146.146,0,0,1-.09-.132q0-.054.138-.188t.185-.135q.072,0,.072.03a.065.065,0,0,1-.03.048q-.03.024-.03.042t.075.048a.6.6,0,0,0,.182.024,1.468,1.468,0,0,0,.506-.093,1.217,1.217,0,0,0,.416-.242.433.433,0,0,0,.162-.317.336.336,0,0,0-.1-.257.619.619,0,0,0-.254-.141q-.153-.045-.512-.129-.395-.09-.613-.159a1.082,1.082,0,0,1-.35-.174.326.326,0,0,1-.132-.266A.689.689,0,0,1,114-5.452a2.167,2.167,0,0,1,.646-.377,1.747,1.747,0,0,1,.562-.138q.2,0,.2.12a.333.333,0,0,1-.048.159.154.154,0,0,1-.144.087.146.146,0,0,1-.078-.027.154.154,0,0,0-.084-.027,1.479,1.479,0,0,0-.377.078,1.507,1.507,0,0,0-.467.233.458.458,0,0,0-.209.377.226.226,0,0,0,.165.212,4.341,4.341,0,0,0,.613.171.709.709,0,0,0,.108.027.874.874,0,0,1,.1.021,2.788,2.788,0,0,1,.706.245.445.445,0,0,1,.245.413.76.76,0,0,1-.212.506,1.51,1.51,0,0,1-.559.389A1.842,1.842,0,0,1,114.447-2.838ZM125.2-5.279l-.616.108-.389.066q0,.311.009.652t.027.6a2.358,2.358,0,0,0,.084.532q.06.185.066.209A.14.14,0,0,1,124.31-3a.253.253,0,0,1-.141.051.088.088,0,0,1-.06-.021.17.17,0,0,1-.042-.069A1.429,1.429,0,0,1,124-3.352q-.033-.227-.051-.5-.018-.245-.027-.571t-.009-.631q-.335.054-.688.132a3.134,3.134,0,0,1-.377.066.238.238,0,0,1-.135-.042.13.13,0,0,1-.063-.114.1.1,0,0,1,.054-.1.481.481,0,0,1,.179-.024,1.541,1.541,0,0,0,.263-.033q.174-.033.221-.045.4-.078.544-.1,0-.126-.012-.329-.012-.275-.012-.419a3.338,3.338,0,0,1,.015-.362.866.866,0,0,1,.057-.23.178.178,0,0,1,.179-.12.1.1,0,0,1,.072.018.093.093,0,0,1,.018.066,1.961,1.961,0,0,1-.03.209,2.826,2.826,0,0,0-.03.461q0,.221.012.5l.006.162q.269-.042,1.065-.221a.134.134,0,0,0,.081-.084q.033-.072.069-.072a.191.191,0,0,1,.135.075.226.226,0,0,1,.069.153.172.172,0,0,1-.087.156A.863.863,0,0,1,125.2-5.279ZM128.991-3a.742.742,0,0,1-.592-.221.812.812,0,0,1-.191-.55,3.075,3.075,0,0,1,.1-.712,2.943,2.943,0,0,1,.3-.76q.012-.024.1-.176a.748.748,0,0,1,.194-.233.373.373,0,0,1,.227-.081.188.188,0,0,1,.1.027.079.079,0,0,1,.045.069.161.161,0,0,1-.033.057l-.051.069a2.816,2.816,0,0,0-.329.485,3.27,3.27,0,0,0-.26.6,2.193,2.193,0,0,0-.093.652q0,.473.574.473a.875.875,0,0,0,.5-.156,1.236,1.236,0,0,0,.368-.38.8.8,0,0,0,.138-.41.533.533,0,0,0-.138-.365,2.334,2.334,0,0,0-.377-.329,2.053,2.053,0,0,1-.227-.185.2.2,0,0,1-.072-.12q0-.072.1-.117a.589.589,0,0,1,.239-.045.358.358,0,0,1,.1.009.033.033,0,0,1,.024.033.082.082,0,0,1-.021.039.08.08,0,0,0-.021.045q0,.018.12.12a2.715,2.715,0,0,1,.4.4.747.747,0,0,1,.162.479,1.123,1.123,0,0,1-.174.538,1.588,1.588,0,0,1-.491.523A1.246,1.246,0,0,1,128.991-3ZM135.4-7.133q0,.12-.012.47t-.012.7q0,.682.03,1.391t.048.93a.551.551,0,0,0,.006.078q.006.042.012.078.024.168.024.2,0,.06-.087.114a.289.289,0,0,1-.135.054.084.084,0,0,1-.087-.051.38.38,0,0,1-.021-.141q0-.329.018-.688l.006-.335q0-.168-.006-.44t-.018-.458a7.518,7.518,0,0,1-.691,1.624q-.386.643-.835.643a.416.416,0,0,1-.344-.191.92.92,0,0,1-.141-.55,2.09,2.09,0,0,1,.32-1.029,4.391,4.391,0,0,1,.73-.957q.41-.4.607-.4t.191.126a.438.438,0,0,1-.057.194,1.316,1.316,0,0,1-.126.2q-.069.09-.081.09a.054.054,0,0,1-.027-.009.025.025,0,0,1-.015-.021.318.318,0,0,1,.03-.1.328.328,0,0,0,.03-.1.1.1,0,0,0-.006-.042q-.006-.012-.036-.012-.126,0-.452.344a3.864,3.864,0,0,0-.583.817,1.857,1.857,0,0,0-.257.879.618.618,0,0,0,.06.269.2.2,0,0,0,.2.126q.437,0,.811-.739a9.85,9.85,0,0,0,.649-1.678l-.012-.5q-.018-.664-.018-.706a3.071,3.071,0,0,1,.03-.515.271.271,0,0,1,.027-.084.069.069,0,0,1,.063-.024.218.218,0,0,1,.12.039.119.119,0,0,1,.06.1Zm5.66,3.871A.314.314,0,0,1,141-3.1q-.06.093-.12.093-.1,0-.156-.126a.739.739,0,0,1-.054-.293q0-.144.018-.862l.006-.227a.244.244,0,0,0-.072-.2q-.269.455-.5.79a3.18,3.18,0,0,1-.592.631,1.17,1.17,0,0,1-.754.3.373.373,0,0,1-.3-.12.455.455,0,0,1-.1-.311,1.564,1.564,0,0,1,.215-.655,5.42,5.42,0,0,1,.55-.844,4.479,4.479,0,0,1,.67-.7,1.971,1.971,0,0,1,.353-.242.554.554,0,0,1,.233-.063.389.389,0,0,1,.2.06.533.533,0,0,1,.173.168.432.432,0,0,1,.072.245.67.67,0,0,1-.1.353l.1-.03q.066,0,.078.162.006.1.015.389t.015.485q.006.2.012.383t.012.293a.166.166,0,0,0,.048.087A.125.125,0,0,1,141.058-3.262Zm-.521-1.681a1.038,1.038,0,0,0,.072-.389.337.337,0,0,0-.075-.218.244.244,0,0,0-.2-.093.663.663,0,0,0-.383.2,4.18,4.18,0,0,0-.568.607,5.075,5.075,0,0,0-.5.751,1.37,1.37,0,0,0-.2.586q0,.179.168.179a.985.985,0,0,0,.622-.239,2.819,2.819,0,0,0,.535-.571Q140.251-4.459,140.538-4.944Zm5.426-.144q-.072.526-.078.592-.078.736-.111,1.122t-.033.7a1.685,1.685,0,0,0,.039.407,1.169,1.169,0,0,0,.084.236.4.4,0,0,1,.045.1q0,.054-.1.1a.488.488,0,0,1-.2.042q-.078,0-.123-.209a3.414,3.414,0,0,1-.045-.652,8.289,8.289,0,0,1,.066-.9l.09-.826a3.332,3.332,0,0,1-.4.6.653.653,0,0,1-.488.284q-.233,0-.419-.407a4.272,4.272,0,0,1-.29-.921,4.25,4.25,0,0,1-.1-.754q0-.15.09-.15.132,0,.168.245.227,1.663.634,1.663a.382.382,0,0,0,.284-.129,2.556,2.556,0,0,0,.29-.4,2.594,2.594,0,0,0,.168-.335q.09-.209.138-.347l.042-.6a.715.715,0,0,1,.036-.194.093.093,0,0,1,.1-.057.165.165,0,0,1,.12.069.208.208,0,0,1,.06.135A5.577,5.577,0,0,1,145.964-5.087Zm3.548,2.2a.259.259,0,0,1-.206-.129,1.153,1.153,0,0,1-.15-.287.832.832,0,0,1-.057-.206.174.174,0,0,1,.063-.126.187.187,0,0,1,.129-.06.077.077,0,0,1,.066.033q.024.033.072.111a.444.444,0,0,0,.1.138.441.441,0,0,1,.129.221.924.924,0,0,1,.051.215Q149.71-2.891,149.512-2.891Z" transform="translate(580.056 1085.789)" fill="#f695c1"/>
  </g>
</svg>
