<svg id="Icons" xmlns="http://www.w3.org/2000/svg" width="52.572" height="52.562" viewBox="0 0 52.572 52.562">
  <path id="パス_2121" data-name="パス 2121" d="M12.39,26.34a1.342,1.342,0,0,0,.993.4c.829,0,1.985-.573,3.613-1.76A51.645,51.645,0,0,0,21.046,21.6L24.9,25.457a3.541,3.541,0,0,0,1.413.876l2.5.829a1.871,1.871,0,0,0,.606.1,1.85,1.85,0,0,0,1.746-2.433l-.832-2.51a3.738,3.738,0,0,0-.87-1.418l-3.778-3.779,1.534-1.534a1.88,1.88,0,0,0,.547-1.393,3.254,3.254,0,0,0,1.759-.912,3.242,3.242,0,0,0,.827-2,3.25,3.25,0,0,1,.654-1.752,1.115,1.115,0,0,0,.163-1.16,1.064,1.064,0,0,0-.923-.634,6.469,6.469,0,0,0-4.784,1.4,3.311,3.311,0,0,0-.943,1.807,1.872,1.872,0,0,0-1.4.542l-1.533,1.538L17.472,8.907a2.063,2.063,0,0,0-2.9,0l-1.665,1.672a2.061,2.061,0,0,0,0,2.9l4.206,4.2C10.746,24.665,11.864,25.808,12.39,26.34Zm16.29-3.466.832,2.517a.1.1,0,0,1-.129.118l-2.512-.832a1.794,1.794,0,0,1-.719-.445l-3.818-3.822q1.02-.964,2.119-2.046l3.768,3.768A1.993,1.993,0,0,1,28.68,22.873ZM26.693,10.4a3.866,3.866,0,0,1,2.317-.886,6.156,6.156,0,0,0-.38,1.516c-.08.531-.131.818-.333,1.02a1.469,1.469,0,0,1-1.147.446,1,1,0,0,1-.754-.427,1.363,1.363,0,0,1,.3-1.669ZM24.464,12.69a.134.134,0,0,1,.1.039l.784.789.014.014.632.636a.133.133,0,0,1,0,.189l-1.062,1.062L23.3,13.791l1.062-1.061a.136.136,0,0,1,.1-.04ZM14.15,11.814l1.657-1.665a.3.3,0,0,1,.423-.006l1.876,1.876L16.026,14.1l-1.869-1.866a.3.3,0,0,1-.007-.423Zm3.112,3.526,2.083-2.083,1.009,1.008c-.742.751-1.428,1.459-2.05,2.116Zm4.8-.311,1.625,1.625c-5.641,5.625-8.646,7.716-9.824,8.2.485-1.174,2.571-4.181,8.2-9.827Z" transform="translate(-1.481 -0.956)" fill="#f3a4b2"/>
  <path id="パス_2122" data-name="パス 2122" d="M11.876,34.752H29.4A.876.876,0,0,0,29.4,33H11.876a.876.876,0,0,0,0,1.752Z" transform="translate(-1.361 -4.084)" fill="#f3a4b2"/>
  <path id="パス_2123" data-name="パス 2123" d="M26.391,38H15.876a.876.876,0,0,0,0,1.752H26.391a.876.876,0,1,0,0-1.752Z" transform="translate(-1.856 -4.703)" fill="#f3a4b2"/>
  <path id="パス_2124" data-name="パス 2124" d="M41.183,29.792a11.357,11.357,0,0,0-2.629.318V1.752A1.752,1.752,0,0,0,36.8,0H3.5A3.5,3.5,0,0,0,0,3.5V47.317a3.5,3.5,0,0,0,3.5,3.5H35.137a11.385,11.385,0,1,0,6.046-21.03ZM3.5,1.752H36.8V30.668A11.331,11.331,0,0,0,30.11,43.812H3.5a3.469,3.469,0,0,0-1.752.487V3.5A1.752,1.752,0,0,1,3.5,1.752Zm-1.238,46.8A1.752,1.752,0,0,1,3.5,45.564H30.668a11.4,11.4,0,0,0,2.312,3.5H3.5a1.738,1.738,0,0,1-1.238-.514Zm38.916,2.267a9.639,9.639,0,1,1,9.639-9.639,9.639,9.639,0,0,1-9.639,9.639Z" fill="#f3a4b2"/>
  <path id="パス_2125" data-name="パス 2125" d="M49.921,41.372l-5.535,7.906-1.89-1.89a.876.876,0,1,0-1.239,1.239l2.629,2.629a.876.876,0,0,0,.62.257.74.74,0,0,0,.076,0,.876.876,0,0,0,.641-.371l6.134-8.762a.876.876,0,1,0-1.435-1Z" transform="translate(-5.074 -5.072)" fill="#f3a4b2"/>
</svg>
