<svg xmlns="http://www.w3.org/2000/svg" xmlns:xlink="http://www.w3.org/1999/xlink" width="518" height="108" viewBox="0 0 518 108">
  <defs>
    <filter id="長方形_367" x="0" y="0" width="518" height="108" filterUnits="userSpaceOnUse">
      <feOffset dy="3" input="SourceAlpha"/>
      <feGaussianBlur stdDeviation="3" result="blur"/>
      <feFlood flood-opacity="0.161"/>
      <feComposite operator="in" in2="blur"/>
      <feComposite in="SourceGraphic"/>
    </filter>
  </defs>
  <g id="グループ_1384" data-name="グループ 1384" transform="translate(-3820 2742.367)">
    <g id="グループ_1383" data-name="グループ 1383">
      <g transform="matrix(1, 0, 0, 1, 3820, -2742.37)" filter="url(#長方形_367)">
        <rect id="長方形_367-2" data-name="長方形 367" width="500" height="90" rx="10" transform="translate(9 6)" fill="#fff"/>
      </g>
      <g id="play-movie-button-with-a-triangle-in-a-circle" transform="translate(3993 -2709.371) rotate(90)">
        <g id="グループ_1334" data-name="グループ 1334" transform="translate(0.004)">
          <path id="パス_2279" data-name="パス 2279" d="M182.661,113.353l-10.529-5.291a3.322,3.322,0,0,0-2.5-.136,1.715,1.715,0,0,0-1.311,1.481v10.582a1.714,1.714,0,0,0,1.311,1.48,3.3,3.3,0,0,0,1.09.181,3.175,3.175,0,0,0,1.412-.317l10.529-5.291a1.408,1.408,0,0,0,0-2.689Z" transform="translate(-153.453 -94.697)" fill="#e890a5"/>
          <path id="パス_2280" data-name="パス 2280" d="M20,0A20,20,0,1,0,40,20,20.023,20.023,0,0,0,20,0Zm0,35.086A15.085,15.085,0,1,1,35.09,20,15.1,15.1,0,0,1,20,35.086Z" transform="translate(-0.004)" fill="#f6c1cf"/>
        </g>
      </g>
      <path id="パス_2336" data-name="パス 2336" d="M13.29-23.58l-2.7-.18a10.291,10.291,0,0,1-.03,2.13c-.06.87-.18,1.95-.33,3.15a29.746,29.746,0,0,1-6.57-1.11L3.54-17.4a41.375,41.375,0,0,0,6.45,1.05c-.24,1.77-.48,3.66-.66,5.43a26.773,26.773,0,0,1-6.39-1.23L2.82-9.84A29.65,29.65,0,0,0,9.09-8.76c-.15,1.41-.24,2.61-.24,3.45,0,4.92,3.27,6.69,7.35,6.69,5.94,0,9.9-2.7,9.9-7.17,0-2.58-.99-4.65-3.06-6.93l-2.64.54a8.322,8.322,0,0,1,3.27,6.12c0,3.09-2.91,5.1-7.47,5.1-3.42,0-5.04-1.8-5.04-4.71,0-.72.06-1.77.18-2.97h1.08a54.341,54.341,0,0,0,5.88-.3l.06-2.28a44.12,44.12,0,0,1-6.24.39h-.57c.21-1.77.45-3.66.66-5.43h.21c2.43,0,4.17-.09,6.09-.27l.06-2.25a40.455,40.455,0,0,1-6.09.39c.18-1.26.33-2.31.42-3.09A16.744,16.744,0,0,1,13.29-23.58ZM35.1-11.97l1.02,2.46c1.92-.75,8.49-3.51,12.21-3.51,3.06,0,5.07,1.92,5.07,4.44,0,4.89-5.7,6.75-12.18,6.96L42.18.69c8.1-.51,13.65-3.45,13.65-9.21,0-4.11-3.06-6.66-7.32-6.66-3.54,0-8.46,1.8-10.59,2.46A28.233,28.233,0,0,1,35.1-11.97ZM69.84-23.34l-2.37.99a100.543,100.543,0,0,0,4.35,9.24c-3.21,2.25-5.19,4.68-5.19,7.77,0,4.5,4.08,6.18,9.72,6.18A59.057,59.057,0,0,0,85.83.09V-2.58a44.638,44.638,0,0,1-9.6,1.02c-4.74,0-7.11-1.56-7.11-4.05,0-2.28,1.68-4.26,4.47-6.06a99.662,99.662,0,0,1,9.12-4.98c.87-.45,1.62-.84,2.31-1.26L83.7-20.04a16.386,16.386,0,0,1-2.13,1.41c-1.65.9-4.89,2.49-7.71,4.2A64.6,64.6,0,0,1,69.84-23.34ZM98.67-12.15h14.46v3.12H98.67Zm0-4.98h14.46v3.09H98.67Zm0-4.92h14.46v3.06H98.67ZM111.6-.06c-1.29,0-1.53-.15-1.53-1.02V-7.05h5.31V-24.06H96.51V-7.05h4.05C99.93-3.21,98.34-.87,92.19.36a6.209,6.209,0,0,1,1.26,1.95c6.81-1.56,8.73-4.56,9.45-9.36h4.92v6c0,2.43.75,3.09,3.57,3.09h4.83c2.52,0,3.18-1.08,3.45-5.43a6.119,6.119,0,0,1-2.07-.9c-.12,3.69-1.56,4.23-1.56,4.23Zm20.58-3.09a2.192,2.192,0,0,1,2.4-1.92c2.28,0,3.78,1.71,4.02,4.08a15.4,15.4,0,0,1-2.43.18C133.83-.81,132.18-1.71,132.18-3.15Zm-3.84-18.96.09,2.49c.63-.09,1.32-.15,1.98-.18,1.59-.09,7.59-.36,9.18-.42-1.53,1.35-5.28,4.5-6.96,5.88-1.74,1.47-5.58,4.68-8.07,6.72l1.71,1.77c3.81-3.87,6.48-6,11.49-6,3.9,0,6.72,2.22,6.72,5.16a5.269,5.269,0,0,1-3.75,5.13,5.808,5.808,0,0,0-6.12-5.31c-2.79,0-4.62,1.83-4.62,3.9,0,2.49,2.49,4.26,6.57,4.26,6.36,0,10.32-3.12,10.32-7.95,0-4.05-3.57-7.05-8.55-7.05a12.7,12.7,0,0,0-4.17.63c2.34-1.95,6.42-5.43,7.92-6.57.54-.45,1.14-.84,1.68-1.23l-1.38-1.74a7.074,7.074,0,0,1-1.62.24c-1.59.15-8.73.39-10.29.39A17.887,17.887,0,0,1,128.34-22.11Z" transform="translate(4004 -2678.367)" fill="rgba(0,0,0,0.75)"/>
    </g>
  </g>
</svg>
