<svg xmlns="http://www.w3.org/2000/svg" xmlns:xlink="http://www.w3.org/1999/xlink" width="386" height="77" viewBox="0 0 386 77">
  <defs>
    <filter id="長方形_367" x="0" y="0" width="386" height="77" filterUnits="userSpaceOnUse">
      <feOffset dy="3" input="SourceAlpha"/>
      <feGaussianBlur stdDeviation="3" result="blur"/>
      <feFlood flood-opacity="0.161"/>
      <feComposite operator="in" in2="blur"/>
      <feComposite in="SourceGraphic"/>
    </filter>
  </defs>
  <g id="グループ_1336" data-name="グループ 1336" transform="translate(-927 -1975)">
    <g transform="matrix(1, 0, 0, 1, 927, 1975)" filter="url(#長方形_367)">
      <rect id="長方形_367-2" data-name="長方形 367" width="368" height="59" rx="10" transform="translate(9 6)" fill="#fff"/>
    </g>
    <g id="play-movie-button-with-a-triangle-in-a-circle" transform="translate(1062.192 1992.399) rotate(90)">
      <g id="グループ_1334" data-name="グループ 1334" transform="translate(0.004)">
        <path id="パス_2279" data-name="パス 2279" d="M182.661,115.85,172.132,108.2a2.4,2.4,0,0,0-3.813,1.943v15.294a2.4,2.4,0,0,0,3.813,1.943l10.529-7.647a2.4,2.4,0,0,0,0-3.887Z" transform="translate(-155.747 -99.697)" fill="#e890a5"/>
        <path id="パス_2280" data-name="パス 2280" d="M18.1,0A18.1,18.1,0,1,0,36.2,18.1,18.117,18.117,0,0,0,18.1,0Zm0,31.746A13.649,13.649,0,1,1,31.75,18.1,13.665,13.665,0,0,1,18.1,31.746Z" transform="translate(-0.004)" fill="#f6c1cf"/>
      </g>
    </g>
    <path id="パス_2320" data-name="パス 2320" d="M10.632-18.864l-2.16-.144a8.233,8.233,0,0,1-.024,1.7c-.048.7-.144,1.56-.264,2.52a23.8,23.8,0,0,1-5.256-.888l-.1,1.752a33.1,33.1,0,0,0,5.16.84c-.192,1.416-.384,2.928-.528,4.344A21.418,21.418,0,0,1,2.352-9.72l-.1,1.848a23.72,23.72,0,0,0,5.016.864C7.152-5.88,7.08-4.92,7.08-4.248,7.08-.312,9.7,1.1,12.96,1.1c4.752,0,7.92-2.16,7.92-5.736a7.876,7.876,0,0,0-2.448-5.544l-2.112.432a6.658,6.658,0,0,1,2.616,4.9c0,2.472-2.328,4.08-5.976,4.08-2.736,0-4.032-1.44-4.032-3.768,0-.576.048-1.416.144-2.376h.864a43.472,43.472,0,0,0,4.7-.24l.048-1.824A35.3,35.3,0,0,1,9.7-8.664H9.24c.168-1.416.36-2.928.528-4.344h.168c1.944,0,3.336-.072,4.872-.216l.048-1.8a32.364,32.364,0,0,1-4.872.312c.144-1.008.264-1.848.336-2.472A13.4,13.4,0,0,1,10.632-18.864ZM28.08-9.576,28.9-7.608c1.536-.6,6.792-2.808,9.768-2.808,2.448,0,4.056,1.536,4.056,3.552,0,3.912-4.56,5.4-9.744,5.568L33.744.552c6.48-.408,10.92-2.76,10.92-7.368,0-3.288-2.448-5.328-5.856-5.328-2.832,0-6.768,1.44-8.472,1.968A22.587,22.587,0,0,1,28.08-9.576Zm27.792-9.1-1.9.792a80.436,80.436,0,0,0,3.48,7.392C54.888-8.688,53.3-6.744,53.3-4.272c0,3.6,3.264,4.944,7.776,4.944a47.246,47.246,0,0,0,7.584-.6V-2.064a35.71,35.71,0,0,1-7.68.816c-3.792,0-5.688-1.248-5.688-3.24,0-1.824,1.344-3.408,3.576-4.848a79.728,79.728,0,0,1,7.3-3.984c.7-.36,1.3-.672,1.848-1.008l-1.056-1.7a13.109,13.109,0,0,1-1.7,1.128c-1.32.72-3.912,1.992-6.168,3.36A51.683,51.683,0,0,1,55.872-18.672ZM78.936-9.72H90.5v2.5H78.936Zm0-3.984H90.5v2.472H78.936Zm0-3.936H90.5v2.448H78.936ZM89.28-.048c-1.032,0-1.224-.12-1.224-.816V-5.64H92.3V-19.248h-15.1V-5.64h3.24c-.5,3.072-1.776,4.944-6.7,5.928a4.967,4.967,0,0,1,1.008,1.56C80.208.6,81.744-1.8,82.32-5.64h3.936v4.8c0,1.944.6,2.472,2.856,2.472h3.864c2.016,0,2.544-.864,2.76-4.344a4.9,4.9,0,0,1-1.656-.72c-.1,2.952-.288,3.384-1.248,3.384ZM105.744-2.52a1.754,1.754,0,0,1,1.92-1.536A3.272,3.272,0,0,1,110.88-.792a12.323,12.323,0,0,1-1.944.144C107.064-.648,105.744-1.368,105.744-2.52Zm-3.072-15.168.072,1.992c.5-.072,1.056-.12,1.584-.144,1.272-.072,6.072-.288,7.344-.336-1.224,1.08-4.224,3.6-5.568,4.7C104.712-10.3,101.64-7.728,99.648-6.1l1.368,1.416c3.048-3.1,5.184-4.8,9.192-4.8,3.12,0,5.376,1.776,5.376,4.128a4.216,4.216,0,0,1-3,4.1,4.647,4.647,0,0,0-4.9-4.248c-2.232,0-3.7,1.464-3.7,3.12,0,1.992,1.992,3.408,5.256,3.408,5.088,0,8.256-2.5,8.256-6.36,0-3.24-2.856-5.64-6.84-5.64a10.156,10.156,0,0,0-3.336.5c1.872-1.56,5.136-4.344,6.336-5.256.432-.36.912-.672,1.344-.984L113.9-18.1a5.659,5.659,0,0,1-1.3.192c-1.272.12-6.984.312-8.232.312A14.31,14.31,0,0,1,102.672-17.688Z" transform="translate(1069 2021)" fill="rgba(0,0,0,0.75)"/>
  </g>
</svg>
