<svg xmlns="http://www.w3.org/2000/svg" width="224.997" height="63.37" viewBox="0 0 224.997 63.37">
  <g id="Group_960" data-name="Group 960" transform="translate(-400 -120.63)">
    <g id="Group_959" data-name="Group 959" transform="translate(443 120.63)">
      <g id="Group_957" data-name="Group 957" transform="translate(0.074 13.966)">
        <path id="_パス_1380-2" d="M17.069,64.719H.15V32.33H3.679V61.7H17.069Z" transform="translate(-0.15 -30.204)" fill="#fafafa"/>
        <path id="_パス_1381-2" d="M52.834,37.828a2.29,2.29,0,0,1-2.295-2.285v-.134a2.318,2.318,0,0,1,4.634-.1v.1A2.256,2.256,0,0,1,53.1,37.823a1.556,1.556,0,0,1-.264,0Zm1.787,27.247H51.092V41.909h3.529Z" transform="translate(-25.458 -30.56)" fill="#fafafa"/>
        <path id="_パス_1382-2" d="M78.906,39.408c0-2.892,0-6.675,2.548-9.268a7.647,7.647,0,0,1,5.356-2.081,8.528,8.528,0,0,1,3.444.682L89.662,31.5a6.618,6.618,0,0,0-2.678-.553c-3.653,0-4.549,3.4-4.549,7.143v1.319h5.61v2.763h-5.61v20.4H78.906V42.17H75.72V39.408Z" transform="translate(-38.105 -28.058)" fill="#fafafa"/>
        <path id="_パス_1383-2" d="M131.108,72.472a16.752,16.752,0,0,1-7.267,1.443c-6.764,0-10.8-4.758-10.8-11.687,0-7.267,4.082-12.5,10.328-12.5,7.143,0,8.969,6.545,8.969,10.582,0,.806-.045,1.4-.085,1.956H116.489c.045,6.416,3.7,8.835,7.864,8.835a14.652,14.652,0,0,0,6.078-1.19l.682,2.548h0ZM128.854,59.64c.045-3.146-1.274-7.227-5.824-7.227-4.256,0-6.122,4.037-6.461,7.227Z" transform="translate(-56.849 -38.943)" fill="#fafafa"/>
        <path id="_パス_1384-2" d="M212.382,35.837a11,11,0,0,0-5.694-1.488c-4.5,0-6.207,2.763-6.207,5.1,0,3.186,1.956,4.8,6.292,6.63,5.226,2.21,7.9,4.888,7.9,9.522,0,5.142-3.743,9.094-10.712,9.094a14.912,14.912,0,0,1-7.735-2.041l.981-2.932a13.17,13.17,0,0,0,6.973,2c4.335,0,6.884-2.339,6.884-5.824,0-3.186-1.747-5.142-5.953-6.844-4.888-1.827-8.2-4.674-8.2-9.139,0-4.933,4-8.541,9.905-8.541a13.185,13.185,0,0,1,6.63,1.528l-1.06,2.932h0Z" transform="translate(-98.631 -29.719)" fill="#fafafa"/>
        <path id="_パス_1385-2" d="M251.194,41.19,254.678,40v5.4h5.993v2.763h-5.993V61.548c0,2.932.891,4.549,3.146,4.549a7.011,7.011,0,0,0,2.379-.338l.214,2.723a8.922,8.922,0,0,1-3.444.553c-5.61,0-5.784-5.1-5.784-7.566v-13.3H247.62V45.4h3.569V41.195Z" transform="translate(-124.442 -34.056)" fill="#fafafa"/>
        <path id="_パス_1386-2" d="M305.05,67.922a32.565,32.565,0,0,0,.338,5.525h-3.23l-.343-2.977h-.129a8.055,8.055,0,0,1-6.844,3.484,6.427,6.427,0,0,1-6.759-6.068c-.01-.174-.01-.343-.005-.518,0-5.565,4.848-8.586,13.429-8.541,0-1.956,0-6.376-5.271-6.376a10.056,10.056,0,0,0-5.654,1.658l-.851-2.424a13.158,13.158,0,0,1,7.068-1.956c6.545,0,8.248,4.634,8.248,9.223v8.969Zm-3.484-6.5c-4.38,0-9.86.637-9.86,5.525,0,2.977,1.872,4.291,4,4.291a5.66,5.66,0,0,0,5.863-5.44v-4.38Z" transform="translate(-144.759 -38.942)" fill="#fafafa"/>
        <path id="_パス_1387-2" d="M354.791,53.309a9.961,9.961,0,0,0-1.274-.085c-3.828,0-5.784,3.783-5.784,7.7V73.5h-3.524V57.266c0-2.464-.045-4.719-.169-6.929h3.1l.169,4.465h.129a6.933,6.933,0,0,1,6.287-4.973,8.335,8.335,0,0,1,1.06.129v3.36h0Z" transform="translate(-172.869 -38.993)" fill="#fafafa"/>
      </g>
      <g id="_グループ_125" transform="translate(-43)">
        <path id="_パス_1407" d="M405.893,4.009a.446.446,0,0,0-.06-.119C405.773,4.069,405.893,4.009,405.893,4.009Z" transform="translate(-392.394 -1.954)" fill="#fafafa"/>
        <path id="_パス_1408" d="M404.96,7.7l-.03.274.03-.244Z" transform="translate(-391.949 -3.867)" fill="#fafafa"/>
        <path id="_パス_1409" d="M404.049,9.247h.03s.154,0,.179-.06h0l-.119-.244h0l.06-.274a.662.662,0,0,0-.274.06h0l.119.244a8.238,8.238,0,0,1-.274.906c.119-.09.179-.393.244-.632h.03Zm.119-.274-.06.209Z" transform="translate(-391.366 -4.355)" fill="#fafafa"/>
        <path id="_パス_1410" d="M402.75,12.32h0a.426.426,0,0,1-.06.209c.06-.03,0,.209.09-.209Z" transform="translate(-390.824 -6.188)" fill="#fafafa"/>
        <path id="_パス_1412" d="M402.155,13.764V13.52s-.09.244-.09.154c-.06.244,0,.209.09.09Z" transform="translate(-390.498 -6.79)" fill="#fafafa"/>
        <path id="_パス_1414" d="M402.39,13.71l-.06.274s.06,0,0-.119V13.71Z" transform="translate(-390.643 -6.886)" fill="#fafafa"/>
        <path id="_パス_1415" d="M402.45,14.313l.03-.09.065-.453-.09.543h0Z" transform="translate(-390.703 -6.916)" fill="#fafafa"/>
        <path id="_パス_1417" d="M399.233,17.6s-.154-.09-.03-.119a2.988,2.988,0,0,0-.513.09h.543Z" transform="translate(-388.815 -8.779)" fill="#fafafa"/>
        <path id="_パス_1418" d="M398.2,17.775s.154-.03.244-.06A.329.329,0,0,0,398.2,17.775Z" transform="translate(-388.569 -8.896)" fill="#fafafa"/>
        <path id="_パス_1424" d="M398.8,17.93s-.274.03-.423.03h.513s.09-.06-.09-.06h0Z" transform="translate(-388.659 -8.99)" fill="#fafafa"/>
        <path id="_パス_1428" d="M397.29,17.892a.732.732,0,0,1,.209.03C397.439,17.921,397.29,17.862,397.29,17.892Z" transform="translate(-388.111 -8.982)" fill="#fafafa"/>
        <path id="_パス_1430" d="M400.2,17.96a.288.288,0,0,0-.179.06h.179Z" transform="translate(-389.483 -9.02)" fill="#fafafa"/>
        <path id="_パス_1431" d="M394.024,18.2s.667.09.423.154c-.393.03-.333,0-.513-.06.154.09-.513.119-.423.244l.333-.06s-.119.06,0,.06c0-.06.363-.119.667-.06.3-.06.09-.274-.154-.393,0,0,0,.06-.3.09h0l-.025.025Z" transform="translate(-386.21 -9.086)" fill="#fafafa"/>
        <path id="_パス_1432" d="M395.23,17.99h.7a3.045,3.045,0,0,1-.423-.09c-.209.03-.244.06-.274.09Z" transform="translate(-387.077 -8.99)" fill="#fafafa"/>
        <path id="_パス_1434" d="M399.893,18.38h-.483l.244.09h0c.274,0,.209-.06.244-.09Z" transform="translate(-389.176 -9.231)" fill="#fafafa"/>
        <path id="_パス_1435" d="M394.824,17.93l.06-.09-.274.119.209-.03h0Z" transform="translate(-386.765 -8.96)" fill="#fafafa"/>
        <path id="_パス_1436" d="M393.619,17.96l.03-.06-.179.03.154.03h0Z" transform="translate(-386.193 -8.99)" fill="#fafafa"/>
        <path id="_パス_1437" d="M402.45,36.795l-.06.119.119-.154h-.06Z" transform="translate(-390.673 -18.463)" fill="#fafafa"/>
        <path id="_パス_1439" d="M389.89,18.66l.06-.03S389.89,18.63,389.89,18.66Z" transform="translate(-384.395 -9.357)" fill="#fafafa"/>
        <path id="_パス_1441" d="M403.991,12.683s-.3.3-.179.209l.334-.244h-.09a3.287,3.287,0,0,1,.6-.513c.333-.179.274-.09.423-.179,0,0,.06,0,.179-.119l.727-.513-.543.244c.154-.179.6-.423,0-.119.119-.06.274-.119.423-.209a3.023,3.023,0,0,1-.423-.03v-.06a.873.873,0,0,0-.209-.119c-.09,0-.119,0-.393.119a.2.2,0,0,0-.179-.119,1.275,1.275,0,0,0-.6.154h-1.025a5.408,5.408,0,0,1-.7.06h0a.487.487,0,0,0-.179-.154.743.743,0,0,0-.453.154c-.154-.09-.727-.03-.931-.179.09.03-.03.06-.209.06-.3-.09-.667-.209-.757-.244a.149.149,0,0,1-.09-.03c-.119-.03-.209,0-.572.244h-.423a5.031,5.031,0,0,1-.667-.06h-.09c-.3-.09-.727-.179-.846-.209V10.7h0a1.889,1.889,0,0,0-.03-.333,6.984,6.984,0,0,0-.119-.786.6.6,0,0,0-.184-.114h-.154l-.06-.119.06-.244a3.562,3.562,0,0,0,.154-1.12.539.539,0,0,0-.179-.119c-.119,0-.119-.03-.513.209l-.09-.209V7.8a6.415,6.415,0,0,0-.03-.876A.539.539,0,0,0,395.8,6.8h-.119l.09-.274a3.311,3.311,0,0,0,.3-1.145.538.538,0,0,0-.179-.119.644.644,0,0,0-.333.09v-.06c-.04-.03-.085-.06-.119-.09l-.06-.119a7.265,7.265,0,0,1-.363-.7.25.25,0,0,0-.179-.119h-.179a.282.282,0,0,0-.03-.179.286.286,0,0,0-.154-.119.444.444,0,0,0-.274.06h-.035l.119.244-.119.06-.03-.154c0,.09-.244.632-.363,1a3.546,3.546,0,0,0-.363,1.21.539.539,0,0,0,.179.119c.09,0,.119.03.543-.209a4.534,4.534,0,0,1-.363.393c-.333.333-.572.6-.786.846l.06-.09V7.287a1.632,1.632,0,0,0-.09.3c-.483.513-.6.7-.632.816a1.107,1.107,0,0,1-.09.244c.03-.06.09-.154.119-.154h0v.03h.03s.09.119.179.119a4.054,4.054,0,0,0,1.21-.572c-.209.209-.423.393-.6.6-.6.6-1,.966-1.239,1.239h0s-.179.209-.244.274v-.11s-.09.244-.154.244h.06c-.119.154-.09.209,0,.3,0,0,.03.06.06.06h0v.09h0v-.06h.119l-.06.09a.1.1,0,0,0,.09-.06h0s.453-.209,1.9-1.025c.632-.363,1.508-.876,1.722-.966a.2.2,0,0,0,.119-.03.071.071,0,0,0,.06-.03s.06,0,.06.03a1.118,1.118,0,0,0,.09.3l.06-.09a.9.9,0,0,1,.06.363c.209.179-.179-.572,0-.393a1.24,1.24,0,0,0,.09.483c-.209,0-.632.179-4.863,2.568-1.025.6-2.205,1.269-3.051,1.722.179-.209.393-.423.572-.632,1.025-1.105,1.5-1.732,1.419-1.872a.534.534,0,0,0-.119-.09h-.09s.209-.06-.03-.09h.3a1.145,1.145,0,0,1-.289-.035h-.6a2.471,2.471,0,0,0,.543,0c-.09.06-.333.09-.244.179-.09.03-.209.119-.393.209h-.03c-.244.154-.6.333-1.12.632-.363.209-.816.453-1.12.632l.09-.333c.209-.876.244-1,.209-1.085h.179c.03-.06-.06-.06-.209-.06a.418.418,0,0,0-.119-.09,1.661,1.661,0,0,1,.543-.03c-.179-.09-.09,0-.363-.09.244.154-.966,0-.572.154a1.106,1.106,0,0,0-.244-.09.232.232,0,0,0,0-.274.25.25,0,0,0-.179-.119,3.539,3.539,0,0,0-.816.363h-.06l-.154.09-.119.06a1.122,1.122,0,0,0-.513.06c-.274,0,.06-.03-.119-.09l-.274.06-.244-.06-.179-.119h0a2.376,2.376,0,0,1-.363-.209c-.03,0-.06-.06-.119-.06a.672.672,0,0,0-.393.119l-.119.06a1.124,1.124,0,0,1-.179-.119.228.228,0,0,0-.119-.06.444.444,0,0,0-.274.06h-.06l.06.179h-.119l.154.09h-.06s0,.09.06.119v.119h.154c.119.06.274.179.543.363.244.154.513.363.6.423.09.09.179.09.333.03.06.03.119.09.179.119a3.4,3.4,0,0,0,.209.543.286.286,0,0,0,.154.119.741.741,0,0,0,.09.209.25.25,0,0,0,.179.119h.179c.09.09.209.209.393.423s.423.453.453.483a.158.158,0,0,0,.154.09.5.5,0,0,0,.363-.119h0s.3.09.632.179h.06c-.119.209-.09.274,0,.363a.2.2,0,0,0,.159.11.8.8,0,0,0,.3-.06,12,12,0,0,0,1.055.757q0,.154.06.179a.25.25,0,0,0,.179.119.588.588,0,0,0,.244-.03l.363.453c.119.179.274.333.334.423a1.893,1.893,0,0,0-.09.209c0,.03-.03.06-.03.119-.03.119-.06.274-.09.423h0c-.931,1.085-1.354,1.7-1.269,1.842a.539.539,0,0,0,.179.119c.09,0,.119,0,.453-.154,0,.06.06.03.119,0v.209c-.06,0-.09.09-.119.154-.6.453-.543.543-.453.7,0,.06.06.09.119.119a.238.238,0,0,0,0,.244h.035c-.09.274-.209.6-.3.846l-.179.483h0c-.179.483-.179.513-.119.6h0c0,.154-.06.274-.06.483l-.09.06c-.015.1-.035.2-.06.3a.466.466,0,0,1-.119.3,2.882,2.882,0,0,0-.154.333,16.229,16.229,0,0,0,1.448-.906c.3-.209.632-.423.931-.6a6.679,6.679,0,0,1,.632-.363c-.274-.06.453-.179.393-.333.09,0,.209-.06.09.06.393-.333.7-.363.906-.667.09,0-.06.119,0,.119,0-.03.119-.119.179-.119s-.03.06-.09.154c.423-.3.393-.453.333-.572a.759.759,0,0,0,.483-.363c.09,0,.274-.06,0,.119.154-.09.966-.572.931-.667.06,0,.209-.154.244-.179l.363-.244a1.122,1.122,0,0,0,.179-.119h0a.487.487,0,0,0,.179.154.588.588,0,0,0,.244-.03c.274.244.333.274.423.3l.06.06c.209.209.453.483.483.513a.158.158,0,0,0,.154.09.424.424,0,0,0,.244-.06h0a1.571,1.571,0,0,1-.03.3,3.849,3.849,0,0,0-.09,1.12.539.539,0,0,0,.179.119l1.085-.513.09-.06h0s-.154.06.06.209c0,.03.119.09.209.119-.244.3-.209.333-.119.453a.25.25,0,0,0,.179.119c.119,0,.119.03.632-.244a1.111,1.111,0,0,1,.274.209c-.06-.09-.09-.179.09-.09a1.639,1.639,0,0,1,.363.3,2.858,2.858,0,0,0,.06.876.25.25,0,0,0,.179.119c.119,0,.119.03.786-.333.274.154.632.363.816.453a.779.779,0,0,0,0,.3.25.25,0,0,0,.179.119h.06a.215.215,0,0,0,.179-.06,1.547,1.547,0,0,0,.393.274c-.06-.119-.09-.274-.154-.423h.03s.179-.244.09-.363c0-.03-.06-.06-.09-.09h0s.154-.244.09-.363c0-.03-.06-.06-.09-.09a2.619,2.619,0,0,0,.119-.931.25.25,0,0,0-.179-.119c-.09,0-.119,0-.453.154-.03-.09-.03-.119-.06-.119l-.05-.075a3.935,3.935,0,0,0-.209-.572.858.858,0,0,0-.179-.244c0-.119.03-.03.06-.03l-.06-.209c.393-.667.363-.7.3-.816a.25.25,0,0,0-.179-.119.644.644,0,0,0-.333.09c.06-.179.09-.363.154-.513v-.06A.78.78,0,0,0,400.6,19a1.719,1.719,0,0,0,.119-.757.25.25,0,0,0-.179-.119,2.535,2.535,0,0,0-.667.274,2.7,2.7,0,0,0-.209-.513s.03,0,.06.06a4.84,4.84,0,0,1-.334-1.18c0-.09-.06-.179-.06-.274v-.119h-.06v-.06a1.027,1.027,0,0,0,.06-.244h0s.154-.154.119-.244l.632-.453h0c1.085-.757,2.205-1.448,3.23-2.145h-.179l.363-.274c.119-.03.179,0-.06.154.09,0,.179-.09.274-.179.06-.09.154-.209.154-.209.363-.209.363-.179.244-.06h0l-.124.025Zm1.055-.757-.154.09C405.071,11.862,405.046,11.9,405.046,11.927Zm-15.888,3.38h0s-.09-.154-.179-.154h-.09V15h.09a.126.126,0,0,0,.06.119.2.2,0,0,0,.179.119c.209.06.393,0,3.9-2.056.393-.209.816-.483,1.21-.7-.453.333-.906.7-1.3,1.025-1.633,1.3-2.419,1.9-2.777,2.235h0a1.864,1.864,0,0,0-.179-.119s-.06-.06-.09-.06l-.06-.06s-.244-.363-.3-.3a.472.472,0,0,1-.154.513c-.119-.154-.209-.3-.274-.363h0l-.025-.05Zm6.764-5.2a.539.539,0,0,0,.179.119h.119a.9.9,0,0,1,.03.363c.119.3.06-.119.179.179v.09l.06.06h0a.345.345,0,0,0-.154-.06c-.179-.03-.244-.06-3.564,1.872-.453.274-.931.543-1.419.816.453-.363.966-.727,1.419-1.055,1.842-1.359,2.718-2.056,3.141-2.414h0v.03Zm3.056,5.256v-.09l.513-.333c-.274.209.06.154-.423.423l.154-.244-.274.209h0l.025.03Zm-.876.6h.09c-.7.363-1.9,1.025-4.106,2.295.846-.513,1.722-1.055,2.539-1.543.846-.513,1.6-.966,2.265-1.394l-.09.06-.09.06-.119.09s-.3.209-.543.363v.06h.06Zm.543,3.355a.538.538,0,0,0,.179.119h.119c-.274.154-.572.333-.966.543l-.423.244a3.887,3.887,0,0,0,.3-.333c.3-.3.513-.543.727-.757,0,.154.03.154.06.179h0Zm-1.961.543s.06.09,0,.09Zm.119,0a.536.536,0,0,0-.119-.06v-.09c.244-.119.632-.363,1.3-.757l.09-.06c-.209.209-.423.453-.6.632-.209.209-.393.423-.543.572-.09-.119-.119-.179-.119-.244h0ZM395.474,18.2a.149.149,0,0,0-.03-.09h0c.727-.453,1.419-.846,2.021-1.18h0a.222.222,0,0,0,.209,0h0c-.209.119-.543.333-1.085.632-.363.209-.786.453-1.055.6h0l-.06.03Zm2.867-1.21a.149.149,0,0,0-.03-.09c0-.03-.06-.06-.09-.09h0l.09-.06.06.119v.09h-.03Zm-.095.3c-.154.483-.154.513-.09.6a.2.2,0,0,0,.179.119h.06v.09c-.179.119-.423.244-.7.423-.179.119-.393.244-.6.363.1-.144.214-.289.334-.423.483-.632.727-.966.846-1.145h0l-.03-.03Zm.632,2.837a2.24,2.24,0,0,0-.757.333l.119-.06c.244-.154.543-.3.786-.453l-.179.179Zm.543,1.21a.283.283,0,0,1-.09-.06l.154-.09-.09.154h.025Zm.154-.791s-.393.209-.757.423a5.269,5.269,0,0,1,.393-.423l.274-.3s.06.179.09.3Zm-3.171-5.132c-1.633.931-3.474,2-4.953,2.837,1.145-.727,2.479-1.568,3.683-2.324a69.592,69.592,0,0,0,6.192-4.047h0a1.249,1.249,0,0,0,.543-.209h0s.09.3.119.453v.06c-1.21.667-3.021,1.692-5.649,3.23h.06Zm.179-4.226h0V11.4a.126.126,0,0,0-.06-.119C396.524,11.255,396.584,11.225,396.584,11.195Zm-.09.119c.06.154.119.333.179.483h.757c-.7.393-1.663.931-3.081,1.752-.7.393-1.448.846-2.145,1.239.363-.3.786-.6,1.145-.906a38.873,38.873,0,0,0,3.141-2.573h0Zm3.653.368h-.06a1.211,1.211,0,0,1,.423-.06c-.667.333-1.931,1.055-4.41,2.509-1.085.632-2.354,1.359-3.444,2,.513-.333,1.055-.7,1.568-1.055,2.932-1.961,4.226-2.867,4.773-3.32a7.323,7.323,0,0,0,1.145-.06Zm-5.5,2.295c.483-.274,1-.572,1.508-.876-.757.513-1.543,1.055-2.265,1.543-1.9,1.269-2.962,2-3.564,2.444v-.06h-.03l.179-.119s0-.03-.06-.06v-.06h.06s.119-.119.119-.209c.244-.3.333-.423.3-.513.543-.274,1.6-.876,3.718-2.115h0l.025.03Zm-4.589,3.255h0l-.06.06v-.06Zm.179.727a61.1,61.1,0,0,0,5.674-3.141c-.363.244-.727.453-1.085.7-2.265,1.419-3.773,2.384-4.8,3.021.274-.423.244-.483.179-.572h.035Zm-.632-.154a.164.164,0,0,0,.06.119v.06l-.119.09v-.119l.06-.119h0Zm-.786,3.141h0l.09-.244s.09.03.09.06v-.274s.03-.179.03-.209c.06,0,.119-.06.179-.09a.405.405,0,0,1,.03-.154c1-.483,3.051-1.633,7.461-4.2,1.419-.816,3.021-1.722,4.38-2.509-1.448.906-3.171,1.961-4.744,2.9-4.495,2.748-6.585,4.047-7.551,4.709h.035Zm11.145-6.277a1.813,1.813,0,0,1-.154.179l-.06-.06.209-.119h0Zm-4.863,4.166s-.09-.09-.154-.09h-.06l.154-.09v.06a.2.2,0,0,0,.179.119c.154.03.179.03,1.633-.816l.393-.209-.244.333a12.907,12.907,0,0,0-1,1.394c-.154-.09-.333-.154-.513-.274-.209-.179.09,0,0-.119l-.179-.06-.244-.244h0l.03-.01Zm7.825-7.247.119.06h.09l.06-.06h.03l-.667.333-.055-.2a1.577,1.577,0,0,1,.393-.154h0l.025.025Zm-5.674-.7-.06-.06ZM394.718,4.56h0l-.09.06.06-.119v.06Zm-.363.816c.119-.333.209-.572.274-.757l.06.09s-.06.333-.154.333a.77.77,0,0,1,.154.423l-.274.154-.209.119.154-.363h0Zm-.09,1.687c.3-.3.513-.572.7-.757,0,.03.03.06.06.09,0,.119-.09-.09-.09,0a.9.9,0,0,1,.244.453c-.119,0-.3.119-1.269.667h-.06l.423-.423h0v-.03Zm-.757,2.265-.3.179.423-.423c.816-.816,1.3-1.269,1.543-1.568h.209a3.529,3.529,0,0,1,.154.543v.209h0c-.154-.03-.179-.06-2.021,1.025h0l-.01.03ZM391.482,12.4c.816-.453,1.692-.966,2.479-1.419-.453.363-.966.727-1.419,1.055a21.025,21.025,0,0,0-3.444,2.748.2.2,0,0,1-.09-.09l.09.09v.06a.354.354,0,0,1-.154-.03v-.09a3.027,3.027,0,0,0-.119-.816c.6-.333,1.478-.816,2.658-1.508h0Zm-3.081,0,.423-.244c-.179.179-.333.363-.483.543-.483.513-.816.876-1.025,1.12h-.154v-.055c-.244-.154-.393-.3-.572-.423.154,0,.244,0,1.842-.931h0l-.025-.01Zm-2.688.244c-.209-.274.333.209.179-.03a.451.451,0,0,1-.274-.09l-.209-.09h0l.513-.3c.209-.124.453-.274.7-.393l-.09.393c-.179.816-.209.931-.179,1.025-.06-.06-.154-.09-.209-.154,0-.06-.244-.244-.09-.209a.591.591,0,0,1-.3-.154h-.035Zm-.154.129c-.115-.035-.224-.075-.333-.119l-.119-.06.244-.119s.423.244.572.333c-.06.06-.179.06-.363,0h0v-.03Zm.906-1.568c-.179.09-.453.244-.816.453-.274.154-.6.363-.876.483h0l-.09-.264s.363-.179.846-.453l.244-.154h.06a2.15,2.15,0,0,1,.333-.179h.179l.09.09a.874.874,0,0,0-.393,0,3.023,3.023,0,0,1,.423.03h0Zm-.513,2.324h0l-.06-.06h0l-.06-.06.06.06.119.06Zm5.674,7.008a.926.926,0,0,1,.274-.154A.578.578,0,0,1,391.627,20.538Zm.572,0s-.03-.03,0-.119l-.06.06c-.179.06-.154-.03-.06-.154l.209-.06s.119-.244.06-.3l-.119.119v-.06l-.119.119h-.179l-.632.333a7.307,7.307,0,0,1-1.21,1.239c.119-.179-.06-.154-.119-.244.244,0,.483-.363.816-.572-.179.119-.179.03-.154,0l-.543.483a1.555,1.555,0,0,0-.363.119c.119,0,0,.119-.119.244a1.232,1.232,0,0,1-.244.179l-.06.06h-.03l-.06.09v-.085s0-.03.06-.06a.473.473,0,0,1,.179-.119.133.133,0,0,0-.115.06h-.06v.06h-.03a.449.449,0,0,1-.06.119.282.282,0,0,1-.244.209c.06-.03.09-.03.09-.09a.675.675,0,0,1-.244.179c-.06.03-.09,0-.06-.03h.03a4.081,4.081,0,0,0-.513.3v-.209l.209-.119s.3-.179.363-.209h.03s.179-.244.09-.363l-.06-.06c.513-.274,1.448-.786,3.23-1.782h.03v.06h0a.25.25,0,0,1,.119.03h.06a.25.25,0,0,0,.119-.03,1.223,1.223,0,0,1-.274.3,2.69,2.69,0,0,0,.274-.06l-.393.333h0l.154.025Z" transform="translate(-380.437 -1.991)" fill="#fafafa"/>
        <path id="_パス_1442" d="M402.51,36.2h.06Q402.57,36.175,402.51,36.2Z" transform="translate(-390.733 -18.176)" fill="#fafafa"/>
        <path id="_パス_1444" d="M391.124,17.9h-.274a2.7,2.7,0,0,1,.274.06S391.064,17.93,391.124,17.9Z" transform="translate(-384.877 -8.99)" fill="#fafafa"/>
        <path id="_パス_1446" d="M386.445,18.066c.179,0,0-.09.119-.06.06-.03-.209,0-.363,0-.154.03-.154.06.209.03h0l.03.03Z" transform="translate(-382.493 -9.037)" fill="#fafafa"/>
        <path id="_パス_1448" d="M407.624,4.129l-.154-.119a.826.826,0,0,1,.06.209l.09-.09h0Z" transform="translate(-393.224 -2.014)" fill="#fafafa"/>
        <path id="_パス_1450" d="M396.08,10.98l-.06.03h.03Z" transform="translate(-387.474 -5.515)" fill="#fafafa"/>
        <path id="_パス_1451" d="M395.92,10.89h.09s-.119-.06-.09-.09C395.831,10.89,395.98,10.83,395.92,10.89Z" transform="translate(-387.409 -5.424)" fill="#fafafa"/>
        <path id="_パス_1454" d="M396.2,10.25h.06a.128.128,0,0,1,.03-.06C396.26,10.19,396.23,10.19,396.2,10.25Z" transform="translate(-387.564 -5.118)" fill="#fafafa"/>
        <path id="_パス_1457" d="M396.08,10.44s0,.03-.06.06C396.05,10.5,396.139,10.5,396.08,10.44Z" transform="translate(-387.474 -5.243)" fill="#fafafa"/>
        <path id="_パス_1459" d="M396.01,10.07h.03s0-.03.06-.06a.282.282,0,0,0-.09.06Z" transform="translate(-387.469 -5.028)" fill="#fafafa"/>
        <path id="_長方形_143" d="M395.78,10.545l.12-.015h0Z" transform="translate(-387.353 -5.289)" fill="#fafafa"/>
        <path id="_パス_1461" d="M396.01,9.86h.03l.06-.03-.09.03Z" transform="translate(-387.469 -4.937)" fill="#fafafa"/>
        <path id="_パス_1462" d="M396.01,9.71s.06-.06.09-.06h-.09Z" transform="translate(-387.469 -4.847)" fill="#fafafa"/>
        <path id="_パス_1464" d="M395.96,9.95l-.06.06h0a.058.058,0,0,0,.06-.06Z" transform="translate(-387.413 -4.997)" fill="#fafafa"/>
        <path id="_パス_1465" d="M395.86,10.04h0l-.03-.03Z" transform="translate(-387.378 -5.028)" fill="#fafafa"/>
        <path id="_パス_1467" d="M395.53,10.44a.232.232,0,0,1,.154-.06A.214.214,0,0,0,395.53,10.44Z" transform="translate(-387.228 -5.213)" fill="#fafafa"/>
        <path id="_パス_1469" d="M395.71,9.92s.06,0,.06-.03h-.06v.06h0V9.92Z" transform="translate(-387.318 -4.967)" fill="#fafafa"/>
        <path id="_パス_1476" d="M394.9,9.739a.127.127,0,0,1,.03-.06c-.06.06-.119,0-.244.09h.06s-.06,0-.06.03c.06-.03.119-.03.09,0a1.257,1.257,0,0,0,.363-.209h-.09s-.06.09-.119.09h0l-.025.06Z" transform="translate(-386.806 -4.817)" fill="#fafafa"/>
        <path id="_パス_1477" d="M395.59,9.65v.06h0l.06-.06Z" transform="translate(-387.258 -4.847)" fill="#fafafa"/>
        <path id="_パス_1478" d="M395.439,9.77h-.09c-.06.03-.119,0-.179.09h.095c-.03-.03.03,0,.06-.06h.06l.06-.03Z" transform="translate(-387.047 -4.907)" fill="#fafafa"/>
        <path id="_パス_1479" d="M395.23,10.59l.03-.03Z" transform="translate(-387.077 -5.304)" fill="#fafafa"/>
        <path id="_パス_1480" d="M395.4,10.31a1.165,1.165,0,0,0-.154.119h.03a.128.128,0,0,0-.06.03.149.149,0,0,0,.09-.03h0l.09-.09h0v-.03Z" transform="translate(-387.072 -5.178)" fill="#fafafa"/>
        <path id="_パス_1482" d="M395.59,9.56l.06-.03-.119.03Z" transform="translate(-387.228 -4.786)" fill="#fafafa"/>
        <path id="_パス_1483" d="M395.62,9.46h-.06l-.03.03Z" transform="translate(-387.228 -4.751)" fill="#fafafa"/>
        <path id="_パス_1485" d="M394.26,7.285l.06-.055h-.06Z" transform="translate(-386.59 -3.631)" fill="#fafafa"/>
        <path id="_パス_1488" d="M394.932,8.55V8.49C394.9,8.52,394.843,8.58,394.932,8.55Z" transform="translate(-386.904 -4.264)" fill="#fafafa"/>
        <path id="_パス_1490" d="M394.98,8.521s.03-.06,0-.03h0s.03.015.03.03Z" transform="translate(-386.951 -4.261)" fill="#fafafa"/>
        <path id="_パス_1497" d="M392.365,7.459h.09l.179-.119-.274.119Z" transform="translate(-385.635 -3.687)" fill="#fafafa"/>
        <path id="_パス_1498" d="M387.829.788l-.06.06q.09-.045.09,0h0s.03.119.06.209l.065-.06v.06c.119-.06,0-.03.09-.119-.119.119.09.09-.06.244,0,0,.06-.06.09-.06h0a.282.282,0,0,1-.06.09h0s.06.03.06.06h0a.344.344,0,0,0,.209.09h0s0,.03.06.06h.06c-.06,0-.06.09-.119.09.09,0,.06,0,.209-.06l-.06.06s.09-.03.119,0c-.06,0-.06.06-.154.09-.09.119.179,0,0,.119.179-.09.06-.09.09-.119.03-.06.119-.06.119-.03,0,0-.179.154-.119.209h0s.06,0,0,.06c.09-.06,0,0,.119-.06h-.06s.209-.09.154,0h-.085c0,.03.03,0,0,.03-.119.09-.06,0-.179,0-.03.03.119,0,0,.06.179-.09,0,.06.154,0l-.06.06h-.03s-.03.119,0,.119c-.03-.03.09-.06.119-.119.119,0-.154.154-.09.179a.058.058,0,0,1,.06-.06h0a.1.1,0,0,1-.065.09c.03.03.06-.06.119-.06-.09.06.06,0,.09,0l-.06.06s.154-.09.119,0l-.119.06h.03l-.09.06s.06,0,.06.03c.06-.03.119-.09.154-.06-.03.03-.06.03-.03.06-.06,0-.119.06-.06,0h-.06v.09h.154a.452.452,0,0,1-.154.06h.09s-.06.06-.09.06c0,.03.154,0,.119.03h.03c0,.03-.06.119.06.09l-.09.09s.119-.119.179-.09c.06,0-.09.06-.119.09.06,0,.179-.06.119,0h0l-.06.06a.322.322,0,0,0-.179.06c.209-.119.09.06.3-.03h.09s-.03.06-.06.06h.03l.06.06h.119s-.119.06-.119,0c-.209.154.06,0,0,.119h-.03l-.119.119c.03,0,.154-.154.244-.154,0,0,0,.03.03,0-.09.03-.06.06-.03.06l-.09.06a.406.406,0,0,0,.154-.03l-.129.124c0,.03.119-.09.154-.06,0,.06.03.06.119.06,0,.03-.06,0-.09.06h.06a.345.345,0,0,1,.154-.06c.119-.06-.119.154,0,.09a.1.1,0,0,0-.09.06h.209l-.06.06a.844.844,0,0,1,.274-.09l.06-.06h.09a.282.282,0,0,0-.09.06h0a.346.346,0,0,1-.154.06l.06-.06s-.154.06-.209.09h.03l-.119.09h.06v.06a.9.9,0,0,1,.363-.06c-.09,0-.154.06-.244.119.09-.06-.06,0-.06-.06,0,0-.06.03-.06.06h.119a.2.2,0,0,0-.09.09c.154-.09.119,0,.179,0-.06,0-.119.06-.119,0-.09.09.209-.06.119,0h0c.06,0,.03.06,0,.06h0a.154.154,0,0,0,.209.06h0l-.179.09.513-.154a2.441,2.441,0,0,1-.483.209.032.032,0,0,0,.03.03,1.5,1.5,0,0,1,.179-.09c-.119.09-.06.06-.154.154,0,0,.209-.119.209-.09a1.883,1.883,0,0,1-.209.09l.209-.06s-.154.09-.209.119c.03,0,0,.03.03.03h.03s.274-.119.3-.06c-.03,0-.244.09-.244.154a3.815,3.815,0,0,1,.572-.179h0s-.483.179-.6.209c-.03.03-.06.03-.03.06-.03.03-.09,0-.09,0v.06a.38.38,0,0,0,.209-.06h-.154s.334-.119.334-.06a2.216,2.216,0,0,1-.244.119h0s.154,0,.09.06c0,0-.119.09-.06.06a3.5,3.5,0,0,1,.572-.3.649.649,0,0,1-.154.154c-.09.06-.244.09-.3.154h.09s-.09.03-.06.06c.119-.06,0,.06.09-.03.03,0,0,.03,0,.06a1.068,1.068,0,0,1,.3-.09.263.263,0,0,0-.07.06V4.75a.114.114,0,0,1-.09.06h.06s-.03,0-.119.06c.06-.03.119,0,.154,0,.09-.06,0-.06-.06-.06a.676.676,0,0,1,.393-.09c.06,0-.09.06-.06.06,0,.09.274-.06.209.03a.856.856,0,0,1-.244.119c-.06,0,0-.06,0-.09h0s-.06.03-.06,0c-.06.06.06.119,0,.209a.116.116,0,0,0,.09-.03h0s.119-.03.119-.06h.119l-.09.06s.06-.06,0-.03c.06,0-.09.119.03.06l.06-.06s.179-.03.154,0c.09-.06,0,0,.09-.09-.119.09-.03-.06-.154.03.119-.09.03-.06.119-.154-.03,0-.06.03-.06,0h-.03v.06h-.179a.128.128,0,0,0,.06-.03h-.06s.09-.09.154-.09h0s.03-.09,0-.09h-.09s-.179-.06-.06-.179c0,0-.06,0-.06-.03h.06s0-.119-.03-.09c.154-.119,0-.119,0-.154H390.8v-.09h0c.119-.119-.179-.03-.09-.154h0v-.06a.1.1,0,0,0-.09.06h-.06s-.06,0,.06-.09a.493.493,0,0,0-.209,0h0V3.78l.09-.06h-.154a.825.825,0,0,0,.154-.06h-.154s-.119,0-.06-.06c.09-.09-.06-.154,0-.274-.179.119.06-.09-.09,0,.03,0,.06-.06.09-.06-.06,0,.03-.09-.09-.06a.116.116,0,0,0,.09-.03h.06c-.03-.03-.179.03-.3.09.06-.06.03-.06-.06,0,.03,0,.06-.06.09-.06,0,0,0-.119-.09-.06h0a.086.086,0,0,0-.03-.06h-.06s-.06,0,0-.119h-.07c-.154.119.06-.06,0-.06h-.03A2.156,2.156,0,0,0,390,2.754h.03a.207.207,0,0,1-.154,0c.06-.03.154-.06.119-.09.03-.03-.209.03-.119-.06-.03,0-.06.06-.119.06,0,0,.119-.154,0-.09h0a.167.167,0,0,0-.179,0c.244-.154-.209-.03.03-.179l-.06-.06h0a.207.207,0,0,0-.154,0,.071.071,0,0,0,.06-.03q0-.09-.154-.06l.06-.06s.06-.154-.06-.154h.03s.119-.274-.179-.119h-.08a.46.46,0,0,0-.154.119s.06-.09.09-.09h0a.182.182,0,0,1,.09-.154c-.06-.09-.06-.244-.119-.333l-.09.09h0l.09-.09c.06-.06-.09,0-.09,0,0-.06.154-.06.119-.09h-.03s-.09.06-.119,0c0-.03.06-.06.06-.06h-.09l-.09.09c.119-.119-.06-.179,0-.209a.173.173,0,0,1-.119-.03s-.09.09-.119.06c.209-.154.03-.09.154-.244-.06.09-.09-.06-.179.09,0-.03.06-.06.09-.119-.119,0-.03-.154-.119-.179l-.09.09.09-.119s-.154.119-.09,0c0,0-.03.06-.06.06,0-.09-.09-.154-.154-.179s-.119-.09-.09-.244c0,.06-.03.06-.06.03l-.09.09V.38s0-.03-.119.03h0a4.194,4.194,0,0,1-.3.363c.119-.09-.09.209.09.09h0l.274-.09Zm1.548,2.205h-.03C389.436,2.963,389.406,2.993,389.377,2.993Z" transform="translate(-383.184 -0.186)" fill="#fafafa"/>
        <path id="_パス_1502" d="M395.1,9.582s-.03.03,0,.03h0S395.156,9.552,395.1,9.582Z" transform="translate(-387.003 -4.808)" fill="#fafafa"/>
        <path id="_パス_1504" d="M395.279,9.077s.09-.03.06,0C395.428,9.047,395.219,9.077,395.279,9.077Z" transform="translate(-387.096 -4.552)" fill="#fafafa"/>
        <path id="_パス_1505" d="M394.68,9.8l.09-.03h-.09Z" transform="translate(-386.801 -4.907)" fill="#fafafa"/>
        <path id="_パス_1508" d="M394.287,9.04s-.03,0,0,.03h.03Z" transform="translate(-386.596 -4.54)" fill="#fafafa"/>
        <path id="_パス_1509" d="M394.04,9.37l.06-.03-.09.06h.03V9.37Z" transform="translate(-386.464 -4.691)" fill="#fafafa"/>
        <path id="_パス_1510" d="M393.884,9.28s-.09,0-.06.03C393.824,9.31,393.884,9.31,393.884,9.28Z" transform="translate(-386.368 -4.661)" fill="#fafafa"/>
        <path id="_パス_1511" d="M393.71,8.34h.03l.154-.09-.179.09h0Z" transform="translate(-386.313 -4.144)" fill="#fafafa"/>
        <path id="_パス_1512" d="M392.749,8.07s-.03,0-.119.06c0,.06.09-.03.06,0,.03,0,0-.03.06-.06Z" transform="translate(-385.771 -4.053)" fill="#fafafa"/>
        <path id="_パス_1513" d="M388.88,0l-.03.06h.03Z" transform="translate(-383.872)" fill="#fafafa"/>
        <path id="_パス_1514" d="M388.64.15l.06-.09-.09.06h0Z" transform="translate(-383.752 -0.03)" fill="#fafafa"/>
        <path id="_パス_1515" d="M390.98,5.89l-.06.06h0V5.89Z" transform="translate(-384.912 -2.958)" fill="#fafafa"/>
        <path id="_パス_1516" d="M390.8,5.37h0l.09-.03Z" transform="translate(-384.852 -2.682)" fill="#fafafa"/>
        <path id="_パス_1520" d="M427.439,3.7h0V3.64s-.06.09-.119.09c.06.09.06-.03.09,0h0Z" transform="translate(-403.194 -1.828)" fill="#fafafa"/>
        <path id="_パス_1523" d="M426.8,3.36s-.03-.015-.03-.03a.116.116,0,0,0,.03.09V3.36Z" transform="translate(-402.918 -1.672)" fill="#fafafa"/>
        <path id="_パス_1526" d="M427.02,3.623s0-.119-.06-.06a.057.057,0,0,1,.06.06Z" transform="translate(-403.013 -1.781)" fill="#fafafa"/>
        <path id="_パス_1528" d="M426.59,3.52s-.03,0-.06-.06a.282.282,0,0,0,.06.09h0V3.52Z" transform="translate(-402.797 -1.738)" fill="#fafafa"/>
        <path id="_パス_1531" d="M426.29,3.52V3.46l.03.09-.03-.03Z" transform="translate(-402.677 -1.738)" fill="#fafafa"/>
        <path id="_パス_1532" d="M426.11,3.55s-.06-.06-.06-.09v.09Z" transform="translate(-402.556 -1.738)" fill="#fafafa"/>
        <path id="_パス_1534" d="M426.47,3.7s-.03-.06-.06-.06Z" transform="translate(-402.737 -1.828)" fill="#fafafa"/>
        <path id="_パス_1537" d="M426.9,3.964a.232.232,0,0,1-.06-.154A.214.214,0,0,0,426.9,3.964Z" transform="translate(-402.953 -1.914)" fill="#fafafa"/>
        <path id="_パス_1538" d="M426.65,3.82v.06h.03A.128.128,0,0,0,426.65,3.82Z" transform="translate(-402.858 -1.919)" fill="#fafafa"/>
        <path id="_パス_1539" d="M426.32,3.88s0-.06-.03-.06v.06Z" transform="translate(-402.677 -1.919)" fill="#fafafa"/>
        <path id="_パス_1546" d="M426.049,4.369h-.06c.06.06,0,.119.09.244v-.06s0,.06.03.06c-.03-.06-.03-.119,0-.09a1.053,1.053,0,0,0-.239-.333v.09a.2.2,0,0,1,.119.119h0l.06-.03Z" transform="translate(-402.466 -2.104)" fill="#fafafa"/>
        <path id="_パス_1547" d="M425.95,4.03h.06a.2.2,0,0,0-.09-.09v.09Z" transform="translate(-402.491 -1.979)" fill="#fafafa"/>
        <path id="_パス_1548" d="M426.17,3.97a.226.226,0,0,0,.09.179v-.09c-.03.03,0-.03-.06-.06h0V3.94h0V4h0l-.03-.03Z" transform="translate(-402.616 -1.979)" fill="#fafafa"/>
        <path id="_パス_1550" d="M426.839,4.189v.06a.149.149,0,0,0-.03-.09h0s-.09-.06-.09-.09a.515.515,0,0,0,.119.154V4.189Z" transform="translate(-402.893 -2.044)" fill="#fafafa"/>
        <path id="_パス_1552" d="M425.87,4l-.06-.06.06.09Z" transform="translate(-402.436 -1.979)" fill="#fafafa"/>
        <path id="_パス_1553" d="M425.78,4.07l-.03-.06v.06Z" transform="translate(-402.406 -2.014)" fill="#fafafa"/>
        <path id="_パス_1555" d="M423.334,5.839s-.154-.09-.09-.03l.06.06h.03Z" transform="translate(-401.139 -2.907)" fill="#fafafa"/>
        <path id="_パス_1556" d="M422.71,7.77h0l-.06-.06v.06Z" transform="translate(-400.849 -3.872)" fill="#fafafa"/>
        <path id="_パス_1557" d="M421.86,10.37l.06.06S421.92,10.4,421.86,10.37Z" transform="translate(-400.452 -5.208)" fill="#fafafa"/>
        <path id="_パス_1558" d="M424.78,4.85h-.06C424.75,4.85,424.81,4.91,424.78,4.85Z" transform="translate(-401.888 -2.436)" fill="#fafafa"/>
        <path id="_パス_1559" d="M421.01,8.49l.03.03Z" transform="translate(-400.025 -4.264)" fill="#fafafa"/>
        <path id="_パス_1565" d="M425.35,4.31l-.03.03h.03Z" transform="translate(-402.19 -2.165)" fill="#fafafa"/>
        <path id="_パス_1567" d="M423.989,7.3s-.03-.09,0-.06l-.179-.154.179.209h0Z" transform="translate(-401.431 -3.561)" fill="#fafafa"/>
        <path id="_パス_1568" d="M417.619,8.715a.283.283,0,0,1,.09.06h-.154s-.03.06.06.119h0a3.172,3.172,0,0,1,.423.179c-.119-.09.244.03.09-.09.03,0,.03.03.09.06q-.06-.06,0-.06h0a1.424,1.424,0,0,0,.209-.119h-.09l.06-.03c-.09-.09-.03.03-.154-.06.154.06.09-.119.244,0,0,0-.09-.03-.06-.06h.119s0-.06.03-.03h-.03a.235.235,0,0,0,.06-.244h-.03a.114.114,0,0,0,.06-.09h0s-.03-.06,0-.06c.03.03.09,0,.119.06-.03-.09-.03-.06-.154-.179h.06s-.06-.03-.06-.06c.03.06.09.03.154.09.154,0-.06-.154.119-.06-.154-.119-.119,0-.154-.03-.06,0-.09-.09-.06-.09,0,0,.209.09.244.06h0s-.03-.06.06-.03c-.09-.06,0,0-.09-.09v.06s-.154-.154-.06-.154l.06.06c.03,0,0-.03.03,0,.119.09,0,.06.06.154.06,0-.06-.09.06,0-.154-.119.06-.03-.06-.154l.06.06v-.06l.06.06s.09,0,.09-.06c-.03.06-.09-.03-.154-.06-.06-.119.209.09.244,0h.03c0-.06-.09-.03-.119-.09.09.03,0-.03-.03-.09l.06.06s-.154-.119-.06-.119l.09.09h.06V7.66c-.06,0-.119-.09-.119-.119.06,0,.06.06.09,0,.03.03.09.09,0,.06l.06.06.06-.06h0l-.06-.119s.06.03.06.06v-.06c.06.03.119.09.119.119v-.09a.057.057,0,0,1,.06.06h0c.06,0-.06-.119,0-.119h0s.119,0,.06-.119l.119.06s-.154-.06-.154-.154c0-.06.09.06.119.06-.03-.06-.119-.154,0-.119v.035h.06a.156.156,0,0,0,.119.154c-.179-.154.06-.09-.154-.244h.06s-.119-.09-.06-.119a.149.149,0,0,1,.09.03V6.968h.03a.541.541,0,0,1-.06-.119c.03,0,0,0,.03.03v-.06s.06.09.03.09c.209.119-.03-.06.119,0h0a1.206,1.206,0,0,0,.179.09.569.569,0,0,1-.244-.154s.03,0,0-.03c.06.06.06,0,.06,0l.09.06a.534.534,0,0,1-.09-.119.434.434,0,0,1,.154.09c.03,0-.119-.06-.119-.119.06,0,.03-.06,0-.119.06,0,.06.06.09.06l-.06-.06h.03s-.09-.06-.09-.09c-.09-.09.179.06.09-.06.03,0,.06.06.09.06a.309.309,0,0,0-.09-.179h.09s-.154-.09-.179-.179h-.06V6.042l.06.06h0a.239.239,0,0,1,.119.09h-.06a.913.913,0,0,0,.154.119h.154a1.028,1.028,0,0,1-.179-.333,1.017,1.017,0,0,1,.179.179c-.09-.06,0,.06-.03.09,0,0,.06.03.06.06V6.187s0,.03.06.06c-.154-.119-.06-.119-.09-.154.03.03.09.09.06.09.119.06-.119-.179,0-.119h0c0-.06.03-.06.06,0h0a.129.129,0,0,0,.025-.184c-.01-.01-.015-.02-.025-.025l.154.154-.3-.423a2.06,2.06,0,0,1,.363.363s.06,0,.03-.03l-.154-.119c.119.09.06.03.179.09a1.147,1.147,0,0,1-.154-.179l.154.154-.09-.179.154.154c-.03,0,.03,0,0-.06h-.06s-.154-.244-.119-.274a.443.443,0,0,0,.209.179,2.127,2.127,0,0,1-.3-.483h.03s.244.363.3.483c.06,0,.06.06.06,0,.06.03.06.06.03.09h.09a.387.387,0,0,0-.119-.209v.154s-.179-.274-.119-.3c.03,0,.119.154.154.179h0s-.03-.154.06-.09c0,0,.119.09.09.03-.09-.09-.393-.393-.453-.483a1,1,0,0,1,.179.09c.09.06.154.209.209.274l-.03-.06s.06.09.06.06c-.06-.09.06,0-.06-.09,0-.03.03,0,.06,0a.578.578,0,0,1-.154-.274l.06.06a.209.209,0,0,0,.154-.03.2.2,0,0,1,.09.09V5.1s-.03.03.06.119c-.03-.06,0-.09-.03-.154-.06-.09-.06,0-.06.06a.735.735,0,0,1-.154-.333c0-.06.06.06.06.03.09,0-.09-.244,0-.209a.489.489,0,0,1,.154.209c0,.06-.09,0-.09,0h.06v.065c.06.06.119-.06.209-.03a.116.116,0,0,0-.03-.09h0s0-.09-.06-.09V4.554l.06.09s-.06-.03-.06,0c0-.06.119.09.06-.03l-.06-.06s-.03-.179,0-.154c-.06-.09,0,0-.09-.09.09.119-.09.03.03.154-.09-.09-.06,0-.179-.119,0,0,.06.06,0,.06h0l.03.06c.03.06,0,.09,0,.154,0,0,0-.03-.06-.06v.05s-.09-.09-.09-.154h-.03s-.09,0-.09.03v.09h-.03s0,.154-.154.09c0,0,0,.06-.03.06l-.06-.06s-.09,0-.06.06c-.154-.119-.119.03-.179.06l.06.06a.314.314,0,0,0-.03.09l.06.06s-.09,0-.119.06h0c-.179-.09,0,.179-.119.119h0v.06l-.06-.06h0s0,.03.06.09v.06s0,.06-.09-.03c.03.06,0,.09.09.209h0l-.09-.06.09.119a1.165,1.165,0,0,1-.154-.119c.06.119,0,.06.06.179l-.06-.06s.03.09,0,.06c-.119-.06-.154.119-.3.09.179.119-.09,0,0,.09q-.045,0-.09-.09c0,.06-.119,0,0,.119-.03,0-.06-.06-.06-.06h0a.128.128,0,0,0-.03-.06.857.857,0,0,0,.179.244q-.06,0,0,.06a.092.092,0,0,1-.09-.09s-.119.03-.03.09h0q-.03,0-.06.06h0v.09h0s0,.03-.119,0l.06.06s-.119,0-.09.06h.06a2.514,2.514,0,0,0-.274-.09V6.177c-.119,0,.09.06.09.119-.06-.03-.119-.09-.154-.09-.06,0,.09.179,0,.154a.092.092,0,0,1,.09.09c0,.03-.179-.03-.09.06h-.03s0,.09.06.119c-.244-.154,0,.179-.179.03v.06h-.06a.25.25,0,0,0,.03.119.071.071,0,0,1-.06-.03c-.09,0-.09.03,0,.154l-.09-.06s-.179,0-.119.09h0s-.3,0-.06.179v.09a.78.78,0,0,0,.209.09s-.119,0-.119-.03h0a.226.226,0,0,1-.179-.03c-.06.09-.209.154-.274.244l.119.06h0s-.09,0-.06-.03c-.06,0,0,.06.06.09a.129.129,0,0,1-.119-.09h0s.09.09.06.119c-.03,0-.09-.03-.09,0h-.03l.09.06s-.03.03.09.09c-.179-.06-.154.119-.209.09.06.06,0,.09,0,.119,0,0,.119.06.09.09-.209-.119-.119,0-.274-.06.119.03,0,.09.119.154a.451.451,0,0,1-.154-.06c.03.09-.119.09-.154.179,0,0,.09,0,.119.06l-.154-.06s.154.09.03.06c0,0,.06,0,.06.03-.209.06-.06.333-.393.3q.06,0,.06.03h0l.09-.07Zm2.354-2s.03.06,0,.03C419.914,6.689,419.974,6.719,419.974,6.719Z" transform="translate(-398.237 -2.165)" fill="#fafafa"/>
        <path id="_パス_1572" d="M425.93,4.523h.06S425.93,4.463,425.93,4.523Z" transform="translate(-402.496 -2.258)" fill="#fafafa"/>
        <path id="_パス_1574" d="M425.293,4.407s-.06-.09,0-.06C425.263,4.258,425.293,4.467,425.293,4.407Z" transform="translate(-402.163 -2.172)" fill="#fafafa"/>
        <path id="_パス_1575" d="M426.05,4.79l.03.06.03.03-.06-.09Z" transform="translate(-402.556 -2.406)" fill="#fafafa"/>
        <rect id="_長方形_151" height="0.03" transform="translate(23.484 2.469)" fill="#fafafa"/>
        <path id="_パス_1578" d="M425.32,5.34s.03.03.03,0V5.28h0Z" transform="translate(-402.19 -2.652)" fill="#fafafa"/>
        <path id="_パス_1579" d="M425.69,5.52s-.03,0-.06-.06l.06.09h0Z" transform="translate(-402.345 -2.742)" fill="#fafafa"/>
        <path id="_パス_1580" d="M425.71,5.76s0-.06-.03-.06C425.68,5.7,425.68,5.79,425.71,5.76Z" transform="translate(-402.37 -2.863)" fill="#fafafa"/>
        <path id="_パス_1581" d="M424.62,5.914h0l-.09-.154Z" transform="translate(-401.793 -2.893)" fill="#fafafa"/>
        <path id="_パス_1582" d="M424.65,7.04a.057.057,0,0,1-.06-.06h0c0,.06,0,.03.09.119.06,0-.06-.09,0-.06Z" transform="translate(-401.823 -3.506)" fill="#fafafa"/>
        <path id="_パス_1583" d="M417.49,13.23l-.06.03h.06Z" transform="translate(-398.227 -6.645)" fill="#fafafa"/>
        <path id="_パス_1584" d="M417.64,13.41l-.09-.06Z" transform="translate(-398.287 -6.705)" fill="#fafafa"/>
        <path id="_パス_1586" d="M422.38,9.65h0l-.09-.06Z" transform="translate(-400.668 -4.817)" fill="#fafafa"/>
        <path id="_パス_1588" d="M432.72,36.47l.06-.06S432.72,36.5,432.72,36.47Z" transform="translate(-405.906 -18.287)" fill="#fafafa"/>
        <path id="_パス_1589" d="M432.33,36.68l.03-.03-.06.06.03-.03Z" transform="translate(-405.695 -18.407)" fill="#fafafa"/>
        <path id="_パス_1590" d="M432.288,36.55s-.09.06-.06,0c-.06.119.03,0,0,.03h0l.06-.06h0v.03Z" transform="translate(-405.649 -18.342)" fill="#fafafa"/>
        <path id="_パス_1593" d="M432.36,35.98a.281.281,0,0,0-.06.09h.03v-.09Z" transform="translate(-405.695 -18.071)" fill="#fafafa"/>
        <path id="_パス_1596" d="M432.24,36.334s.06-.09.03-.06A.071.071,0,0,1,432.24,36.334Z" transform="translate(-405.665 -18.215)" fill="#fafafa"/>
        <path id="_パス_1598" d="M432.18,36.04v-.06a.283.283,0,0,1-.06.09h0Z" transform="translate(-405.605 -18.071)" fill="#fafafa"/>
        <path id="_パス_1600" d="M432.05,36.43l.09-.09Z" transform="translate(-405.57 -18.252)" fill="#fafafa"/>
        <path id="_パス_1601" d="M432.18,35.86l.06-.06Z" transform="translate(-405.635 -17.981)" fill="#fafafa"/>
        <path id="_パス_1602" d="M432.12,35.77s.03-.09.06-.09l-.06.06Z" transform="translate(-405.605 -17.92)" fill="#fafafa"/>
        <path id="_パス_1607" d="M431.93,36.459a.24.24,0,0,1,.09-.119C432.02,36.37,431.96,36.4,431.93,36.459Z" transform="translate(-405.509 -18.252)" fill="#fafafa"/>
        <path id="_パス_1608" d="M432,36.28a.128.128,0,0,1,.03-.06H432Z" transform="translate(-405.545 -18.191)" fill="#fafafa"/>
        <path id="_パス_1616" d="M431.354,36.214v-.06c-.03.09-.09.09-.154.209h0c.03-.06.09-.119.06-.03a2.648,2.648,0,0,0,.209-.363.1.1,0,0,1-.06.09.214.214,0,0,1-.06.154h0Z" transform="translate(-405.143 -18.066)" fill="#fafafa"/>
        <path id="_パス_1617" d="M431.78,35.98h0l.03-.06-.06.06Z" transform="translate(-405.419 -18.041)" fill="#fafafa"/>
        <path id="_パス_1618" d="M431.72,36.129a.192.192,0,0,1,.03-.09h0v-.06h-.03c-.03.06-.06.09-.09.154,0,0,.03-.06.06-.06h0Z" transform="translate(-405.359 -18.071)" fill="#fafafa"/>
        <path id="_パス_1619" d="M431.809,36.4a1.454,1.454,0,0,0-.09.154h-.03a.379.379,0,0,0,.06-.095h0a.448.448,0,0,1,.06-.119h0Z" transform="translate(-405.389 -18.252)" fill="#fafafa"/>
        <path id="_パス_1620" d="M431.69,36.49v.06h0a.149.149,0,0,1,.03-.09h-.03Z" transform="translate(-405.389 -18.312)" fill="#fafafa"/>
        <path id="_パス_1621" d="M431.78,35.89l.06-.09-.09.09Z" transform="translate(-405.419 -17.981)" fill="#fafafa"/>
        <path id="_パス_1622" d="M431.75,35.89h0l.03-.03Z" transform="translate(-405.419 -18.011)" fill="#fafafa"/>
        <path id="_パス_1624" d="M430.48,35.2s.06-.154,0-.09v.06h0Z" transform="translate(-404.781 -17.628)" fill="#fafafa"/>
        <path id="_パス_1627" d="M431.187,35.67v-.06C431.187,35.64,431.157,35.7,431.187,35.67Z" transform="translate(-405.129 -17.885)" fill="#fafafa"/>
        <path id="_パス_1635" d="M429.385,36.409l.06-.06.09-.179-.154.244h0Z" transform="translate(-404.229 -18.166)" fill="#fafafa"/>
        <path id="_パス_1636" d="M428.513,34.974s.09-.09.09-.06l-.06.09v-.03c.03-.03-.06.154.03,0v-.06a.934.934,0,0,1,.119-.09c.06-.09,0,0,.03-.09-.06.154-.03,0-.09.119.06-.119,0-.06.06-.179,0,.03,0,.06-.03.03h0v.09c-.04.03-.085.06-.119.09a.071.071,0,0,1,.03-.06v.06a.354.354,0,0,1,.03-.154h0v-.055h-.03s-.119.09-.06-.03h-.03v-.06h0c.09-.154-.03-.06-.03-.09v.09h-.119v.06l-.06-.06h0c.06-.179-.119.09-.09-.03h0V34.5h0s0,.03-.06.09h-.03s-.03.06,0-.06c-.03.06-.06,0-.119.154h0a.4.4,0,0,1,.03-.154l-.12.119v-.065h0c.03-.119-.09-.06-.06-.179-.09.179,0-.09-.06.06,0-.03,0-.06.06-.09-.03.03,0-.09-.06,0,0-.03.03-.06.06-.09h0a.128.128,0,0,1,.03-.06,1.554,1.554,0,0,0-.154.244q0-.06-.03,0c0-.03,0-.09.06-.09,0,0,0-.09-.06,0h-.03s0,.03-.06.06h0s-.03,0,0-.09v.09c-.119.154,0-.119-.06-.06v.06s.06-.244.06-.274v-.035c0-.119-.06.09-.09.119,0-.06.06-.119.06-.154,0-.06-.119.154-.09.06a.126.126,0,0,1-.06.119s0-.179-.03-.06h0s-.06,0-.09.09c.09-.274-.119.09,0-.154h0a.1.1,0,0,0-.09.06v-.055q0-.06-.09.06v-.09s0-.154-.03-.06h0s0-.274-.119,0l-.06.06a.585.585,0,0,0-.06.179v-.124h0v-.154c-.06,0-.09-.119-.154-.154v.119h-.06s0-.119.03-.09c0-.06-.03.06-.06.09a.416.416,0,0,1,.06-.154h0s-.03.119-.06.119v-.08h0v.06s-.03,0-.06.09c.03-.179-.09-.09-.06-.154-.03.06-.06.06-.06.06s0,.119-.03.119c.06-.209,0-.09,0-.274,0,.119-.06,0-.09.179V33.8c-.06.09-.06-.06-.119-.06a.25.25,0,0,1-.03.119V33.71s-.03.179,0,.06v.06c-.06-.154-.209.09-.244-.209v.06s-.06,0-.06.119h0s-.03.274-.06.423c.03-.154,0,.209.06,0v.1c0-.06,0-.09.03-.06h0a.24.24,0,0,0,.09.119v-.035c.03-.119,0,0,0-.154,0,.154.06,0,.03.209,0,0,0-.09.03-.09h0v.119h.03a.182.182,0,0,0,.154-.09h.06l.03-.03a.2.2,0,0,1-.03.119c.06-.06.03-.06.09-.179v.065s0-.09.03-.09a.163.163,0,0,1-.06.154c0,.154.09-.119.06.09.06-.154,0-.09,0-.119,0-.06.06-.119.06-.09,0,0-.06.209,0,.209h0c.03-.09,0,0,.06-.119h-.03s.09-.154.09-.06a.149.149,0,0,1-.03.09h0c-.03.119-.03,0-.09.119,0,.06.06-.09,0,.06.06-.179,0,0,.09-.09v.09h0v.06s-.03.09,0,.03a.4.4,0,0,1,.03-.154c.06-.09-.06.209,0,.179h0c.03,0,0-.09.06-.119,0,.09,0-.03.06-.06v.09s.03-.154.03-.09l-.06.09h0v.06h0a.416.416,0,0,1,.06-.154c0,.06-.03.06,0,.06,0,.06-.06.119-.03.03v.06h0l.06-.09s0,.06-.03.06v-.06a.354.354,0,0,1-.03.154l.06-.06v.09c0,.03.09-.119.09-.06h0s0,.06.06,0V34.8s0-.154.06-.179c.03,0-.03.09-.03.119.03-.06.09-.154.09-.06h0v.06a.482.482,0,0,0-.09.154c.09-.209.06,0,.154-.209v.06h0s.09-.154.09-.09v.03h.06s.06-.03.06-.06v.09c-.09.209.03-.06,0,.09h0a.542.542,0,0,1-.03.179.762.762,0,0,1,.09-.244h0c-.03.09,0,.06,0,.06v-.035a.214.214,0,0,1-.06.154.451.451,0,0,1,.06-.154c0,.06,0,0,.09-.03,0,.03-.03.06-.03.09l.06-.09h0s.06-.06.06-.09c.06-.119-.06.179,0,.06a.281.281,0,0,1-.06.09.584.584,0,0,0,.119-.154v.06a2.212,2.212,0,0,1,.119-.244v-.085h.09l-.06.06h0l-.06.119v-.06l-.09.179h0l-.06.09h0l.209-.244a2.2,2.2,0,0,0-.119.244c.03-.09-.06.03-.06,0,0,0,0,.06-.03.06l.09-.09a.149.149,0,0,1-.03.09c.06-.154.06-.09.119-.154a.1.1,0,0,1-.06.09c-.03.119.119-.179.09-.06h0c.03-.03.03,0,0,.06h0s.06.03.154-.09l-.09.179.274-.423a3.316,3.316,0,0,1-.244.453h0s.06-.179.09-.179c-.06.119,0,.06-.06.179,0,0,.09-.209.119-.179l-.09.179.119-.154a.781.781,0,0,0-.09.209c0-.03,0,0,.03,0h0s.154-.274.179-.244c0,.03-.119.209-.119.244.06-.09.244-.423.3-.483h0s-.244.393-.3.483v.06a.058.058,0,0,1-.06.06h0v.06a1.335,1.335,0,0,0,.154-.179l-.09.09s.179-.274.179-.244a.787.787,0,0,1-.119.209c0-.03.06-.06.06-.03v.06h0s-.06.154,0,.09c.06-.119.244-.483.3-.572a1.088,1.088,0,0,1-.06.179,1.684,1.684,0,0,1-.179.3s.03-.06.06-.06c0,0-.06.09-.03.09l.06-.09h0a2.2,2.2,0,0,1,.179-.244v.09s-.03.06,0,.09a.1.1,0,0,1-.06.09v.06c.03-.06.06-.06.09-.09.06-.09,0,0-.03,0a1.268,1.268,0,0,1,.209-.3c.03,0-.03.09,0,.06,0,.03.154-.209.154-.09a1.431,1.431,0,0,1-.119.209c-.03,0,0-.06,0-.06h0s-.03.09-.03.06c-.03.09.06.06.03.119a.281.281,0,0,1,.06-.09h0a.536.536,0,0,0,.09-.119h0l-.348.194Z" transform="translate(-402.421 -16.886)" fill="#fafafa"/>
        <path id="_パス_1642" d="M431.5,35.785s.06-.09.03-.06C431.585,35.666,431.436,35.815,431.5,35.785Z" transform="translate(-405.284 -17.936)" fill="#fafafa"/>
        <path id="_パス_1643" d="M431.27,36.59v.03l.03-.09Z" transform="translate(-405.178 -18.347)" fill="#fafafa"/>
        <path id="_パス_1646" d="M430.9,36.31v.03l.03-.06h0Z" transform="translate(-404.992 -18.222)" fill="#fafafa"/>
        <path id="_パス_1648" d="M430.592,36.89a.316.316,0,0,0,.03-.06S430.562,36.89,430.592,36.89Z" transform="translate(-404.833 -18.498)" fill="#fafafa"/>
        <path id="_パス_1649" d="M430.36,36.184h0l.09-.154Z" transform="translate(-404.721 -18.096)" fill="#fafafa"/>
        <path id="_パス_1650" d="M429.63,36.77v-.06c-.03.03,0,0-.06.119,0,.06.06-.09.03-.03h0Z" transform="translate(-404.324 -18.438)" fill="#fafafa"/>
        <path id="_パス_1651" d="M425.65,33.73l-.03-.06v.06Z" transform="translate(-402.34 -16.911)" fill="#fafafa"/>
        <path id="_パス_1654" d="M427.96,36.25l.03-.09-.06.09Z" transform="translate(-403.5 -18.161)" fill="#fafafa"/>
        <path id="_パス_1658" d="M405.534,54.73v.03h.06S405.5,54.76,405.534,54.73Z" transform="translate(-392.249 -27.488)" fill="#fafafa"/>
        <path id="_パス_1703" d="M404.252,52.338h.274c.06,0,.154,0,.09.03h.274c-.154,0,0-.03-.154,0h.129s.06-.03,0-.03h0s-.12-.06,0-.09h.06s.06,0,0-.03c.179,0,.03-.03.06-.06h-.09l-.06-.03h-.09a.058.058,0,0,0,.06-.06h0c.179,0-.119-.03,0-.06H404.6c.154,0,0-.06.154-.09h.06c-.06,0,.09,0-.06-.03h-.06s.06-.03-.06-.03h-.075s-.06,0,.06-.03h-.09c-.179,0,.119,0,.03-.03h-.06a1.026,1.026,0,0,0,.274-.03h.06s-.209-.03-.09-.06h-.119s.179-.03,0-.03H404.5c.3-.03-.154-.03.119-.06h0a.2.2,0,0,0-.119-.06h.06c.06,0,.03-.03-.09-.03h.09s.154-.06.03-.06h.03c-.119,0,.244-.09-.09-.06h-.264s.09-.03.119,0h0c.179,0,.06-.03.179-.03,0-.03.09-.09.06-.154h-.209c.179-.03.06-.09.119-.09h-.179c.244,0,.09-.03.274-.06-.119,0-.03-.03-.179,0h.154c-.09,0,.06-.06,0-.09h.03s-.179,0-.06-.06h-.09s-.154-.09.119-.179h-.179l.119-.06h-.119l-.453.09c.154,0-.209.06,0,.06h-.03l-.09.09h0l.154-.03c-.179.03,0,.06-.179.09h.03s0,.06.09.06h.03s-.03,0,0,.03h0c-.154.03.154,0-.06.06.179,0,.09-.03.154-.03h.119s-.244.03-.244.06h-.09s-.09.06,0,.06a.406.406,0,0,0,.154-.03c.119,0-.209.03-.179.06h.09s.06,0,0,.03h0a.525.525,0,0,1-.119.03c-.03,0,.154,0,.09.03h.03s-.09.03,0,.03H403.7c.244,0,0,.03.274,0h.154s0,.03-.06.03h-.06c-.244,0,.06,0-.09.03h-.03a.541.541,0,0,0-.179.03.842.842,0,0,1,.274,0h-.03c-.03,0,0,0,.09.03h.119c.119,0-.179.03-.03.03h-.179s.334.06.393.06h-.274c.119,0-.06,0,0-.03h.03a.25.25,0,0,0-.119.03h.119s0,.06.154.06h.3s-.453.03-.513.03h-.209a1.509,1.509,0,0,0,.209.03h.572a.732.732,0,0,0-.209.03h-.06s-.06.03-.06.06h.244c0,.03.274,0,.154.06h-.274c-.09,0,0,.06-.09.06h0l-.045.428Z" transform="translate(-391.331 -25.459)" fill="#fafafa"/>
        <path id="_パス_1710" d="M404.99,54.15l.09-.03h-.09Z" transform="translate(-391.979 -27.182)" fill="#fafafa"/>
        <path id="_パス_1724" d="M378.85,37.22l.03.03-.03-.06v.03Z" transform="translate(-378.85 -18.679)" fill="#fafafa"/>
        <path id="_パス_1725" d="M378.97,37.136h0v.06s.03-.09.06-.06C378.97,37.017,379.03,37.136,378.97,37.136Z" transform="translate(-378.91 -18.625)" fill="#fafafa"/>
        <path id="_パス_1733" d="M379.51,37.53l.03.06a.149.149,0,0,0-.03-.09h0Z" transform="translate(-379.181 -18.834)" fill="#fafafa"/>
        <rect id="_長方形_160" height="0.09" transform="translate(0.194 18.541)" fill="#fafafa"/>
        <path id="_パス_1735" d="M379.67,37.64v.06l-.03-.09.03.03Z" transform="translate(-379.247 -18.89)" fill="#fafafa"/>
        <path id="_パス_1736" d="M379.75,37.62a.525.525,0,0,1,.03.119v-.09h-.03Z" transform="translate(-379.302 -18.895)" fill="#fafafa"/>
        <path id="_パス_1738" d="M379.51,37.43s0,.06.03.06v-.06Z" transform="translate(-379.181 -18.799)" fill="#fafafa"/>
        <path id="_パス_1741" d="M379.27,37.01a.842.842,0,0,1,.03.154A.329.329,0,0,0,379.27,37.01Z" transform="translate(-379.061 -18.588)" fill="#fafafa"/>
        <path id="_パス_1743" d="M379.67,37.4v-.03h-.03v.03Z" transform="translate(-379.247 -18.769)" fill="#fafafa"/>
        <path id="_パス_1750" d="M379.67,36.644l.03.06c-.03-.09,0-.119-.06-.244v.06a1.178,1.178,0,0,0,.154.363v-.09c0-.03-.06-.06-.06-.119h0l-.065-.03Z" transform="translate(-379.247 -18.312)" fill="#fafafa"/>
        <path id="_パス_1751" d="M379.82,37.31h0s0,.03.06.09v-.09Z" transform="translate(-379.337 -18.739)" fill="#fafafa"/>
        <path id="_パス_1752" d="M379.69,37.129a.288.288,0,0,0-.06-.179v.09a.128.128,0,0,0,.03.06h0v.06h0Z" transform="translate(-379.242 -18.558)" fill="#fafafa"/>
        <path id="_パス_1753" d="M379.27,36.83a.537.537,0,0,1,.06.119.384.384,0,0,0-.06-.179h0v.09h0Z" transform="translate(-379.061 -18.468)" fill="#fafafa"/>
        <path id="_パス_1755" d="M379.88,37.34l.03.06-.03-.09Z" transform="translate(-379.367 -18.739)" fill="#fafafa"/>
        <path id="_パス_1756" d="M379.94,37.31l.03.06v-.03Z" transform="translate(-379.397 -18.739)" fill="#fafafa"/>
        <path id="_パス_1758" d="M381.46,36.83s.09.154.06.06v-.06Z" transform="translate(-380.161 -18.498)" fill="#fafafa"/>
        <path id="_パス_1761" d="M380.542,37.044s.015.03.03.03C380.571,37.044,380.512,36.984,380.542,37.044Z" transform="translate(-379.695 -18.593)" fill="#fafafa"/>
        <path id="_パス_1769" d="M381.21,35.125v.06l.09.209-.09-.274Z" transform="translate(-380.035 -17.639)" fill="#fafafa"/>
        <path id="_パス_1770" d="M383.146,34.088s-.119-.274-.179-.423c.03.154-.119-.179-.06,0v-.03h0a.827.827,0,0,1-.154-.06h0c.03.119.03,0,.06.119-.06-.154-.09,0-.154-.154,0,0,.03.09,0,.09h0s-.06-.06-.06-.09h-.03a.151.151,0,0,0-.119.154h0s-.03,0-.06.06h0v.06c0-.03-.06-.09-.06-.119a.732.732,0,0,0,.03.209v.06c0-.06-.06-.09-.06-.154-.09-.119,0,.154-.09-.03.06.179.06.09.06.119,0,.06.03.119,0,.119,0,0-.09-.209-.119-.179h0s0,.06-.03,0c.03.09,0,0,0,.119h0s.03.154,0,.09v-.085h0c-.06-.119,0-.03,0-.154,0-.06,0,.09-.03-.03.06.179-.03,0,0,.119h0l-.06-.09s-.06-.06-.06,0c.03,0,.06.09.09.154,0,.119-.09-.179-.119-.119l.06.06-.06-.06a.527.527,0,0,1,.03.119c-.06-.09,0,.03,0,.09v-.09h-.03v-.055s-.03.06-.06.03c0,.06.06.154.03.154,0-.03,0-.06-.03-.06,0-.06-.03-.119,0-.03v-.065h-.06v.09a.82.82,0,0,1-.06-.154v.09s-.06-.06-.06-.09c-.03-.03,0,.154-.03.09h0s-.09-.03-.06.06l-.06-.119s.09.119.06.179c0,.03-.06-.09-.06-.119,0,.06.03.179,0,.09h0V34a.435.435,0,0,0-.09-.154c.09.209-.06.06.03.274h-.03v-.055s.06.154,0,.154a.136.136,0,0,1-.03-.06v.06h-.03v.09s-.03-.119,0-.119c-.119-.209,0,.06-.09-.06h0c-.06-.154-.06-.09-.119-.179,0,.03.119.179.119.244h0c-.03-.09-.03-.06-.03-.06v.03a1.454,1.454,0,0,1-.09-.154.822.822,0,0,1,.06.154q-.045-.045,0,.09a.1.1,0,0,0-.025-.09v.09h0a.318.318,0,0,1,.03.09c.03.119-.09-.154-.06,0a.149.149,0,0,0-.03-.09v.179l-.06-.06s.06.179.09.244l.06.09v.06a.149.149,0,0,0-.03-.09h0l-.06-.119v.06a.541.541,0,0,0-.03-.179h0l-.065-.09h0v.363c0-.09-.06-.154-.09-.244.06.09,0-.06.03-.03l-.03-.06V34.5a.1.1,0,0,0-.065-.09c.06.154,0,.119,0,.179,0-.06-.03-.119,0-.09-.06-.119.06.209,0,.09h0c0,.06,0,0-.03,0h0s-.09,0-.03.154l-.06-.179.119.483a3.573,3.573,0,0,1-.179-.453h0a1.5,1.5,0,0,1,.09.179l-.09-.179s.09.209.06.209a1.319,1.319,0,0,0-.09-.209l.06.179s-.06-.154-.09-.209h0s.06.3.03.3c0-.03-.09-.244-.119-.244,0,.09.154.453.154.543h0s-.154-.453-.179-.572c0-.03,0-.06-.03-.06v-.095h-.06a.322.322,0,0,0,.06.179V34.5s.09.3.06.3a1.108,1.108,0,0,0-.09-.244h0s0,.154-.03.06c0,0-.06-.119-.06-.06.06.119.209.513.244.6,0,0-.09-.119-.119-.154-.06-.09-.06-.244-.119-.3v.09s-.03-.09-.03-.06c.03.119-.03,0,0,.09,0,.03,0,0-.03,0,.03.06.09.244.06.274a.149.149,0,0,0-.03-.09c-.03,0-.06-.06-.09-.03a.283.283,0,0,0-.06-.09v.06l-.03-.119v.154c.03.09.03,0,.03-.03a.931.931,0,0,1,.09.363c0,.03-.03-.09-.03-.06-.06,0,.06.244,0,.154a1.107,1.107,0,0,1-.09-.244c0-.03.06.06.06.03h-.03v-.065c-.03-.06-.09,0-.154-.06v.09h0s0,.09.03.119h0c0,.06-.09-.119-.03,0v.06s.06.154.03.154c.03.09,0,0,.06.09-.06-.154.06,0,0-.154a.783.783,0,0,0,.09.154v-.06h0V35.3a.822.822,0,0,1,.06.154h0s.06.06.06,0h0v-.065h0s0-.119.09,0v.03s.09.06.06,0c.09.154.06,0,.119.03v-.209s.045.015.06,0h0c.09.154,0-.154.09-.03h.06l-.03-.06v-.06s0-.06.06.09a.731.731,0,0,0-.03-.209h0v-.03a1.2,1.2,0,0,1,.09.179V35s0-.09.03-.03c.06.119.09,0,.179.09-.09-.179.06.06,0-.06,0,.03.03.06.06.119,0-.06.06.06.03-.06a.116.116,0,0,0,.03.09h0v.06a1.356,1.356,0,0,0-.09-.274c.03.06.03.03,0-.03,0,.03.06.09.03.09,0,0,.09.03.03-.06h.03v-.06h0s0-.03.09.06v-.06c-.09-.154.03.09.03,0h0s.119.179.154.179v.03c.06.09-.03-.09,0-.119a.417.417,0,0,0,.06.154c0,.03-.03-.179.03-.09a.247.247,0,0,0-.06-.119s.119.154.06,0h0v-.124c.119.274,0-.154.119.09h.03v-.06c.06.03.06,0,.03-.119v.09s.154.09.119,0h0s.179.209.06-.06v-.09l-.09-.179s.06.06.06.09h0s.06,0,.09.119c.06-.03.154,0,.209,0l-.06-.119h0s.03.09,0,.09c.03.06,0-.06,0-.09.06.03.03.154.06.154h0V34.58l.03.06h.03l-.06-.09v-.09c.09.154.119,0,.154.06v-.09s-.06-.119-.03-.119c.09.209.06.09.154.244-.06-.09.03-.03-.03-.179a.447.447,0,0,0,.06.119c0-.09.09,0,.119,0a.265.265,0,0,1-.03-.119l.09.119s-.06-.154,0-.06v-.06s.09-.179.274.06c-.03-.06,0-.06,0-.06h0s.06,0,.03-.119h0l.085-.149Z" transform="translate(-379.462 -16.845)" fill="#fafafa"/>
        <path id="_パス_1774" d="M379.85,36.877s0-.03-.03,0Z" transform="translate(-379.337 -18.515)" fill="#fafafa"/>
        <path id="_パス_1777" d="M379.75,36.49v-.03l.03.09Z" transform="translate(-379.302 -18.312)" fill="#fafafa"/>
        <path id="_パス_1783" d="M380.66,36.1h0l.06.154Z" transform="translate(-379.759 -18.131)" fill="#fafafa"/>
        <path id="_パス_1784" d="M380.781,35.185a.128.128,0,0,0,.03.06c0-.03,0,0-.03-.119C380.751,35.1,380.811,35.215,380.781,35.185Z" transform="translate(-379.816 -17.639)" fill="#fafafa"/>
        <path id="_パス_1785" d="M386.37,35.01l.03.03Z" transform="translate(-382.627 -17.584)" fill="#fafafa"/>
        <path id="_パス_1788" d="M382.61,34.34h0l.06.09Z" transform="translate(-380.738 -17.247)" fill="#fafafa"/>
      </g>
      <text id="Let_s_live_like_ourselves_today." data-name="Let&apos;s live like ourselves today." transform="translate(0 61.37)" fill="#fafafa" font-size="6" font-family="InkFree, Ink Free" letter-spacing="0.4em"><tspan x="0" y="0">Let&apos;s live like ourselves today.</tspan></text>
    </g>
  </g>
</svg>
