<svg xmlns="http://www.w3.org/2000/svg" width="190" height="61.092" viewBox="0 0 190 61.092">
  <g id="Group_1279" data-name="Group 1279" transform="translate(-579.647 -1013.897)">
    <path id="Path_2068" data-name="Path 2068" d="M9.893-12.037q0,.081-.086.081l-1.363-.02H4.505A9.533,9.533,0,0,1,3.086-9.7v3.388l.02,1.328a.071.071,0,0,1-.081.081h-.5a.071.071,0,0,1-.081-.081l.02-1.328V-9.018A12.577,12.577,0,0,1,1.279-8a.387.387,0,0,1-.157.081q-.045,0-.136-.136a1.122,1.122,0,0,0-.338-.328A9.2,9.2,0,0,0,2.455-9.9a5.413,5.413,0,0,0-.061-.591q.338.02.515.04a7.912,7.912,0,0,0,.924-1.53H2.425l-1.363.02q-.086,0-.086-.081v-.449q0-.081.086-.081l1.363.02H4.071a8.176,8.176,0,0,0,.308-.959,2.316,2.316,0,0,0,.1-.616q0-.03-.005-.081a6,6,0,0,1,.661.136q.136.04.136.136a.222.222,0,0,1-.081.141,1.083,1.083,0,0,0-.177.394q-.116.409-.278.848H8.443l1.363-.02q.086,0,.086.081Zm.03,6.625a.071.071,0,0,1-.081.081l-1.449-.02H5.116l-1.439.02A.071.071,0,0,1,3.6-5.412v-.459a.071.071,0,0,1,.081-.081l1.439.02H6.262V-8.563H5.53l-1.358.02a.071.071,0,0,1-.081-.081v-.439a.071.071,0,0,1,.081-.081l1.358.02h.732v-.722a10.158,10.158,0,0,0-.071-1.409,6.23,6.23,0,0,1,.692.061q.126.02.126.086a.98.98,0,0,1-.04.187,4.289,4.289,0,0,0-.076,1.055v.742h1l1.343-.02a.071.071,0,0,1,.081.081v.439a.071.071,0,0,1-.081.081L7.9-8.563h-1v2.631h1.5l1.449-.02a.071.071,0,0,1,.081.081Zm13.3-3.433v.03q0,.061-.086.071-.015.005-.177.02l-1.207.146-3.03.394V-6.24a.475.475,0,0,0,.424.54,9.41,9.41,0,0,0,1.439.081,2.727,2.727,0,0,0,1.51-.278.9.9,0,0,0,.278-.465,3.661,3.661,0,0,0,.1-.818,2.175,2.175,0,0,0,.485.217q.177.056.177.136,0,.025-.01.111a1.832,1.832,0,0,1-.566,1.3,3.454,3.454,0,0,1-1.944.374,9.544,9.544,0,0,1-1.863-.126.831.831,0,0,1-.495-.348,1.038,1.038,0,0,1-.177-.611V-8.1l-2.07.273q-.616.076-1.035.151l-.217.04a.62.62,0,0,1-.081.01.217.217,0,0,1-.04.005q-.061,0-.071-.076l-.056-.475V-8.2q0-.05.086-.061.661-.056,1.363-.146l2.121-.278v-1.555q-1.257.3-2.318.475a.636.636,0,0,1-.111.015q-.066,0-.157-.177a1,1,0,0,0-.258-.384A23.184,23.184,0,0,0,20.2-11.482a2.352,2.352,0,0,0,.611-.323,3.081,3.081,0,0,1,.465.394.208.208,0,0,1,.071.146q0,.076-.146.091a1.636,1.636,0,0,0-.338.1q-1.1.389-2.141.672v1.631l2.989-.394q.631-.076,1.055-.146.111-.015.222-.035l.076-.01a.217.217,0,0,1,.04-.005q.056,0,.066.076ZM23.033-10.9a.071.071,0,0,1-.081.081h-.48q-.091,0-.091-.081v-1.5H15.327v1.5q0,.091-.081.091h-.49q-.081,0-.081-.091L14.7-12v-.343l-.02-.571a.071.071,0,0,1,.081-.081l1.429.02h2.277v-.136a5.053,5.053,0,0,0-.076-1.065q.374.02.682.066.126.015.126.081a.706.706,0,0,1-.061.187,2.9,2.9,0,0,0-.05.732v.136h2.439l1.429-.02a.071.071,0,0,1,.081.081l-.02.5v.4Zm13.66,5.428a.071.071,0,0,1-.081.081l-1.449-.02H28.907v.465q0,.086-.091.086h-.49q-.081,0-.081-.086l.02-2.111V-11.5l-.02-2.1a.071.071,0,0,1,.081-.081l1.439.02h5.307l1.414-.02q.086,0,.086.081v.47q0,.081-.086.081l-1.414-.02H28.907V-6h6.256l1.449-.02a.071.071,0,0,1,.081.081Zm-.348-1.535a1.412,1.412,0,0,0-.273.394q-.071.151-.126.151A.578.578,0,0,1,35.8-6.5a5.227,5.227,0,0,1-3.009-2.408,3.428,3.428,0,0,1-1.045,1.49,5.783,5.783,0,0,1-1.777.944.507.507,0,0,1-.151.045q-.056,0-.136-.136a1.217,1.217,0,0,0-.323-.338,5.691,5.691,0,0,0,2.075-1.035,2.875,2.875,0,0,0,.843-1.3H31.048L29.6-9.22a.071.071,0,0,1-.081-.081v-.4a.071.071,0,0,1,.081-.081l1.449.02h1.363a8.233,8.233,0,0,0,.106-1.429h-1.49a9.487,9.487,0,0,1-.672.884q-.116.111-.157.111a.475.475,0,0,1-.157-.091,1.09,1.09,0,0,0-.338-.2,5.778,5.778,0,0,0,1.2-1.656,2.6,2.6,0,0,0,.207-.682,4.137,4.137,0,0,1,.591.177q.106.04.106.111t-.1.136a1.225,1.225,0,0,0-.2.338l-.177.343h2.888l1.3-.02a.071.071,0,0,1,.081.081v.394q0,.091-.081.091l-1.3-.02h-1.1a10.5,10.5,0,0,1-.116,1.429h1.717l1.459-.02a.071.071,0,0,1,.081.081v.4a.071.071,0,0,1-.081.081l-1.459-.02h-1.54A5.279,5.279,0,0,0,36.344-7.008ZM50.519-9.27a1.434,1.434,0,0,0-.247.318q-.091.167-.131.167a.51.51,0,0,1-.157-.05,7.145,7.145,0,0,1-1.106-.53v1.232l.02.838q0,.081-.086.081l-1.333-.02h-.5v.641l.015.954a.65.65,0,0,1-.273.611,1.91,1.91,0,0,1-.838.126h-.217a.367.367,0,0,1-.187-.025.486.486,0,0,1-.061-.172.924.924,0,0,0-.157-.374,5.674,5.674,0,0,0,.651.04.653.653,0,0,0,.4-.081.344.344,0,0,0,.076-.263V-7.235h-.54l-1.333.02a.071.071,0,0,1-.081-.081l.02-.909V-9.23a8.652,8.652,0,0,1-.808.5.538.538,0,0,1-.126.05q-.04,0-.111-.106a1.115,1.115,0,0,0-.273-.278,10.813,10.813,0,0,1-.172,1.4,6.541,6.541,0,0,1-1.151,2.6q-.1.116-.131.116t-.136-.116a1.117,1.117,0,0,0-.374-.288A5.05,5.05,0,0,0,42.4-7.907a6.962,6.962,0,0,0,.126-.9q-.374.217-.808.424a1.048,1.048,0,0,0-.364.237.159.159,0,0,1-.131.081q-.061,0-.106-.091-.106-.242-.227-.586a4.679,4.679,0,0,0,.848-.293q.682-.3.828-.374.02-.485.02-1.56l-.02-2.257a.071.071,0,0,1,.081-.081l1.469.02h1.9v-.172a3.544,3.544,0,0,0-.081-.828q.389.015.672.05.136.02.136.086a.622.622,0,0,1-.066.182,1.576,1.576,0,0,0-.05.49v.192h2.116l1.449-.02a.071.071,0,0,1,.081.081v.414a.071.071,0,0,1-.081.081l-1.449-.02H43.183v1.858q0,1.227-.03,1.777a9.229,9.229,0,0,0,1.323-.813,7.087,7.087,0,0,0-.707-.717.116.116,0,0,1-.035-.061q0-.025.081-.086l.192-.141a.214.214,0,0,1,.091-.045.115.115,0,0,1,.066.035,6.976,6.976,0,0,1,.727.687,4.437,4.437,0,0,0,.858-1.035h-.6l-1.459.02a.071.071,0,0,1-.081-.081v-.364a.071.071,0,0,1,.081-.081l1.459.02h.858l.091-.2a2.632,2.632,0,0,0,.2-.717,4.559,4.559,0,0,1,.591.146q.106.035.106.1a.154.154,0,0,1-.076.121,1.082,1.082,0,0,0-.207.353l-.091.2H48.6l1.459-.02q.086,0,.086.081v.364q0,.081-.086.081L48.6-11.29H47.5a3.859,3.859,0,0,0,.969,1.035A4,4,0,0,0,49-10.7a1.136,1.136,0,0,0,.237-.318,2.671,2.671,0,0,1,.424.288.15.15,0,0,1,.066.106q0,.081-.1.1a.863.863,0,0,0-.308.2,4.829,4.829,0,0,1-.444.338A7.027,7.027,0,0,0,50.519-9.27ZM48.328-7.7v-.712H44.99V-7.7Zm0-1.156v-.707H44.99v.707Zm-.379-1.171a4.694,4.694,0,0,1-1.015-1.262h-.555a4.993,4.993,0,0,1-.944,1.262ZM45.435-6.6q0,.071-.116.126a.7.7,0,0,0-.131.106l-.116.1a6.782,6.782,0,0,1-1.373.995.408.408,0,0,1-.157.061q-.061,0-.157-.136a.862.862,0,0,0-.3-.268A5.247,5.247,0,0,0,44.5-6.488a1.949,1.949,0,0,0,.4-.495,2.958,2.958,0,0,1,.444.258A.152.152,0,0,1,45.435-6.6Zm4.59.848a1.548,1.548,0,0,0-.288.333q-.086.141-.146.141a1.421,1.421,0,0,1-.157-.071,7.714,7.714,0,0,1-1.56-1.207.088.088,0,0,1-.025-.05q0-.04.1-.106l.2-.146q.081-.071.111-.071a.1.1,0,0,1,.056.03A6.055,6.055,0,0,0,50.025-5.756Zm-7.705-4.953a.153.153,0,0,1,.015.056q0,.025-.106.091l-.258.157a.329.329,0,0,1-.116.045q-.035,0-.061-.071a7.288,7.288,0,0,0-.7-1.621.124.124,0,0,1-.02-.056q0-.035.116-.1l.217-.121a.3.3,0,0,1,.121-.05q.03,0,.066.061A7.467,7.467,0,0,1,42.319-10.709Zm20.925.5q.993-.594,2.276-1.264l.347.613a20.768,20.768,0,0,0-3.1,1.735,2.366,2.366,0,0,0-1.188,1.887q0,1.255,2.005,1.255,1.031,0,2.357-.1v.7q-1.63.048-2.4.048-2.628,0-2.628-1.915a3.138,3.138,0,0,1,1.72-2.571q-.409-1.487-.756-3.493l.718-.029A28.6,28.6,0,0,0,63.244-10.2Zm20.21.025a1.9,1.9,0,0,0-.3.429q-.086.157-.136.157a.572.572,0,0,1-.157-.05,9.671,9.671,0,0,1-2.6-1.7,10.309,10.309,0,0,1-1.651-2,9.113,9.113,0,0,1-1.828,2.287,11.386,11.386,0,0,1-2.207,1.49.877.877,0,0,1-.167.071q-.04,0-.136-.157a1.347,1.347,0,0,0-.308-.394,8.271,8.271,0,0,0,4.085-3.615,3.327,3.327,0,0,0,.258-.631,4.46,4.46,0,0,1,.641.121q.146.05.146.136a.117.117,0,0,1-.071.1.233.233,0,0,0-.1.076A9.538,9.538,0,0,0,81-11.547,9.446,9.446,0,0,0,83.454-10.179Zm-5.842-.136q0,.01-.04.2a4.757,4.757,0,0,0-.061.969,6.461,6.461,0,0,1-.2,1.737,3.519,3.519,0,0,1-.47,1.015,4.472,4.472,0,0,1-1.838,1.479.408.408,0,0,1-.157.061q-.035,0-.146-.157a1.488,1.488,0,0,0-.358-.379,3.685,3.685,0,0,0,1.964-1.4,4.428,4.428,0,0,0,.545-2.368,8.209,8.209,0,0,0-.071-1.3q.358.02.7.056Q77.612-10.391,77.612-10.315Zm2.9-.02a.353.353,0,0,1-.025.1q-.02.071-.025.1a8.119,8.119,0,0,0-.05,1.176v2.621l.02,1.323q0,.071-.081.071h-.52q-.081,0-.081-.071l.02-1.323v-2.61a11.385,11.385,0,0,0-.071-1.54,6.188,6.188,0,0,1,.7.066Q80.515-10.411,80.515-10.335Zm15.973,2.07q0,.081-.086.081L95.079-8.2H92.9l-1.338.02a.071.071,0,0,1-.081-.081l.02-.964v-1.383a5.726,5.726,0,0,1-.475.54q-.111.111-.151.111t-.136-.126a.675.675,0,0,0-.247-.217A6.04,6.04,0,0,0,91.676-11.7a1.78,1.78,0,0,0,.247-.621,2.783,2.783,0,0,1,.52.162q.091.04.091.106,0,.05-.091.111a1.443,1.443,0,0,0-.237.333H93.65a1.857,1.857,0,0,0,.177-.343,1.429,1.429,0,0,0,.1-.369,4.725,4.725,0,0,1,.5.121q.091.03.091.1,0,.05-.071.1a.4.4,0,0,0-.111.157l-.136.237h.848l1.232-.02a.071.071,0,0,1,.081.081v.313a.071.071,0,0,1-.081.081l-1.232-.02H94.21v.56h.611L96-10.633q.086,0,.086.081v.293q0,.081-.086.081l-1.176-.02H94.21v.545h.621l1.176-.02q.086,0,.086.091V-9.3q0,.081-.086.081l-1.176-.02H94.21v.6h.868l1.323-.02q.086,0,.086.081Zm-2.8-.374v-.6H92.019v.6Zm0-1.974v-.56H92.019v.56Zm0,.959V-10.2H92.019v.545Zm3.247,4.161a1.126,1.126,0,0,0-.217.353q-.081.182-.167.182a1.067,1.067,0,0,1-.116-.01,8.561,8.561,0,0,1-2.615-.742,9.8,9.8,0,0,1-2.686.778q-.111.015-.141.015-.086,0-.151-.172a1.126,1.126,0,0,0-.207-.353,10.326,10.326,0,0,0,2.661-.591A4.838,4.838,0,0,1,92.13-7.2q-.414.005-.737.015l-.222.005a.071.071,0,0,1-.081-.081v-.353a.071.071,0,0,1,.081-.081l1.293.02h2.626a.568.568,0,0,0,.2-.02.4.4,0,0,1,.106-.04q.1,0,.278.177.177.162.177.258a.144.144,0,0,1-.091.121.981.981,0,0,0-.273.227,5.613,5.613,0,0,1-1.116.929A10.076,10.076,0,0,0,96.932-5.493ZM95.008-7.2H92.741a4.38,4.38,0,0,0,1.075.909A4.59,4.59,0,0,0,95.008-7.2Zm-4.58,2.08q0,.081-.086.081h-.4a.071.071,0,0,1-.081-.081v-.353H88.5v.55q0,.071-.081.071H88.01q-.086,0-.086-.071l.02-1.52v-.626l-.02-.909a.071.071,0,0,1,.081-.081l.853.02h.626l.863-.02a.071.071,0,0,1,.081.081L90.4-7.22v.651Zm-.571-.848V-7.533H88.5v1.565Zm6.877-6.912q0,.081-.086.081l-1.414-.02H95l.02.485a.076.076,0,0,1-.086.086h-.414q-.081,0-.081-.086,0-.015.01-.162t.01-.323h-1.49l.02.485q0,.086-.081.086h-.4q-.081,0-.081-.086,0-.015.005-.162t.015-.323h-.106l-1.414.02q-.086,0-.086-.081v-.353q0-.081.086-.081l1.414.02h.106v-.2a3.916,3.916,0,0,0-.05-.661,3.868,3.868,0,0,1,.576.061q.116.02.116.081a.267.267,0,0,1-.03.1.765.765,0,0,0-.086.389v.237h1.49v-.2a3.011,3.011,0,0,0-.061-.661,4.445,4.445,0,0,1,.6.061q.111.02.111.081a.268.268,0,0,1-.03.1.78.78,0,0,0-.081.379v.247h.237l1.414-.02q.086,0,.086.081Zm-6.019,1.106q0,.1-.086.1L89.6-11.7h-.954l-1.035.02q-.081,0-.081-.1v-.434q0-.071.081-.071l1.035.02H89.6l1.03-.02q.086,0,.086.071Zm-.207-1.394q0,.081-.086.081l-.868-.02h-.712l-.868.02a.071.071,0,0,1-.081-.081v-.4a.071.071,0,0,1,.081-.081l.868.02h.712l.868-.02q.086,0,.086.081Zm-.217,4.216q0,.076-.1.076l-.773-.02h-.55l-.783.02q-.086,0-.086-.076v-.409a.076.076,0,0,1,.086-.086l.783.02h.55l.773-.02q.1,0,.1.086Zm0-1.414q0,.081-.1.081l-.773-.02h-.55l-.783.02q-.086,0-.086-.081v-.4q0-.081.086-.081l.783.02h.55l.773-.02q.1,0,.1.081Zm14.463,1.53v2.045h-.692V-8.518q-.237.121-.49.263-1.323.747-1.323,1.5a.685.685,0,0,0,.465.7,4.724,4.724,0,0,0,1.535.172q1.086,0,2.52-.126l.03.7q-1.883.1-2.5.1a4.342,4.342,0,0,1-2.191-.379,1.309,1.309,0,0,1-.52-1.182,2.265,2.265,0,0,1,1.389-1.883q.525-.3,1.075-.571-.051-.969-.672-.969-.868,0-2.383,1.747l-.535-.475a12.076,12.076,0,0,0,2.141-3.055q-.944.015-1.893,0v-.631q1.091.02,2.181,0A9.241,9.241,0,0,0,103.357-14l.747.136a10.622,10.622,0,0,1-.434,1.217q1.454-.045,2.762-.177l.02.631q-1.7.136-3.06.177a10.559,10.559,0,0,1-.868,1.469l-.263.268.03.04a1.84,1.84,0,0,1,1.232-.525,1.123,1.123,0,0,1,.823.313,1.464,1.464,0,0,1,.389.9q.808-.369,2.1-.914l.288.707Q105.442-9.139,104.756-8.836Zm15.438,3.3a1.276,1.276,0,0,0-.308.454q-.076.167-.151.167a.955.955,0,0,1-.141-.02,11.716,11.716,0,0,1-4.039-1.757,12.728,12.728,0,0,1-3.943,1.747.7.7,0,0,1-.136.025q-.056,0-.141-.172a1.456,1.456,0,0,0-.278-.394,12.442,12.442,0,0,0,3.989-1.611,7.2,7.2,0,0,1-1.818-2.545q-.53.005-.919.015-.071,0-.2.005h-.061a.071.071,0,0,1-.081-.081v-.459q0-.071.081-.071l1.439.02H115.2v-1.656h-2.545l-1.373.02q-.086,0-.086-.081v-.459q0-.081.086-.081l1.373.02H115.2v-.444a6.222,6.222,0,0,0-.081-1.252q.429.02.722.061.146.02.146.106a.353.353,0,0,1-.025.106.951.951,0,0,0-.04.1,3.4,3.4,0,0,0-.071.838v.485h2.721l1.373-.02a.071.071,0,0,1,.081.081v.459a.071.071,0,0,1-.081.081l-1.373-.02h-2.721v1.656h1.717a.7.7,0,0,0,.258-.04.381.381,0,0,1,.106-.02q.081,0,.278.2t.2.293q0,.061-.1.131a.791.791,0,0,0-.217.247,8.8,8.8,0,0,1-2.01,2.307A11.3,11.3,0,0,0,120.193-5.534Zm-2.742-4.1h-3.534a6.37,6.37,0,0,0,1.656,2.171A7.631,7.631,0,0,0,117.452-9.639Zm8.1-4.347q1.777.369,3.868.6l-.167.7a34.437,34.437,0,0,1-3.888-.651Zm-1.429,2.439q1.969-.056,4.994-.318l.434.545q-.732.666-2.565,2.545a.889.889,0,0,1,.333-.061.981.981,0,0,1,.783.4,1.953,1.953,0,0,1,.384.939,3.873,3.873,0,0,0,.359,1.343.713.713,0,0,0,.6.2,10.979,10.979,0,0,0,1.262-.071v.732q-.51.045-1.262.045a1.465,1.465,0,0,1-1.283-.449,3.768,3.768,0,0,1-.364-1.353,2.687,2.687,0,0,0-.252-.929.5.5,0,0,0-.449-.258.865.865,0,0,0-.485.126,2.119,2.119,0,0,0-.434.439q-.717.894-1.813,2.434l-.692-.353a56.805,56.805,0,0,1,4.6-5.574q-2.111.217-4.095.278Zm9.852-1.777q1.368-.01,4.206-.146l.434.54q-2.015,2.045-3.2,3.07l-.465.4.04.03.53-.358a3.408,3.408,0,0,1,1.459-.394,2.62,2.62,0,0,1,2,.737,2.268,2.268,0,0,1,.6,1.631,2.45,2.45,0,0,1-.944,2.1,3.927,3.927,0,0,1-2.378.626q-2.025,0-2.025-1.373a1.2,1.2,0,0,1,.434-.969,1.6,1.6,0,0,1,1.055-.333,1.7,1.7,0,0,1,1.313.555,2.544,2.544,0,0,1,.581,1.242,1.9,1.9,0,0,0,.929-.722,2.158,2.158,0,0,0,.268-1.136A1.648,1.648,0,0,0,138.17-9.2a1.972,1.972,0,0,0-1.232-.389,3.619,3.619,0,0,0-2.5,1,9.192,9.192,0,0,0-.858.9l-.611-.495q2.474-2.545,4.529-4.635-1.484.111-3.524.167Zm2.913,7.569a2.234,2.234,0,0,0-.459-1.055.942.942,0,0,0-.727-.348.827.827,0,0,0-.6.222.612.612,0,0,0-.2.459.643.643,0,0,0,.343.611,2.121,2.121,0,0,0,.959.167A4.458,4.458,0,0,0,136.888-5.756Z" transform="translate(579 1028.191)" fill="#f1a1b4" opacity="0.95"/>
    <g id="Group_956" data-name="Group 956" transform="translate(580.503 1031.426)">
      <path id="_パス_1380-2" d="M17.578,69.214H2.72V40.77h3.1v25.8H17.578Z" transform="translate(-2.72 -38.898)" fill="#f1a1b4"/>
      <path id="_パス_1381-2" d="M55.124,45.685a2.011,2.011,0,0,1-2.015-2.006V43.56a2.035,2.035,0,0,1,4.07-.092v.087a1.981,1.981,0,0,1-1.823,2.124,1.366,1.366,0,0,1-.232,0Zm1.569,23.929h-3.1V49.265h3.1V69.609Z" transform="translate(-31.082 -39.297)" fill="#f1a1b4"/>
      <path id="_パス_1382-2" d="M81.088,46.456c0-2.54,0-5.862,2.238-8.139a6.716,6.716,0,0,1,4.7-1.827,7.49,7.49,0,0,1,3.025.6l-.52,2.426a5.812,5.812,0,0,0-2.352-.485c-3.209,0-4,2.986-4,6.273V46.46h4.927v2.426H84.187V66.8h-3.1V48.886h-2.8V46.46h2.8Z" transform="translate(-45.256 -36.488)" fill="#f1a1b4"/>
      <path id="_パス_1383-2" d="M131.478,78.143A14.712,14.712,0,0,1,125.1,79.41c-5.941,0-9.486-4.179-9.486-10.264,0-6.382,3.585-10.976,9.071-10.976,6.273,0,7.877,5.748,7.877,9.294,0,.708-.039,1.233-.074,1.718H118.639c.039,5.635,3.248,7.759,6.907,7.759a12.868,12.868,0,0,0,5.337-1.045l.6,2.238h0ZM129.5,66.873c.039-2.763-1.119-6.347-5.114-6.347-3.738,0-5.377,3.545-5.674,6.347Z" transform="translate(-66.262 -48.692)" fill="#f1a1b4"/>
      <path id="_パス_1384-2" d="M212.985,43.732a9.656,9.656,0,0,0-5-1.307c-3.956,0-5.451,2.426-5.451,4.481,0,2.8,1.718,4.214,5.525,5.823,4.59,1.941,6.942,4.293,6.942,8.362,0,4.516-3.287,7.986-9.407,7.986a13.1,13.1,0,0,1-6.793-1.792l.861-2.575a11.566,11.566,0,0,0,6.124,1.753c3.807,0,6.046-2.055,6.046-5.114,0-2.8-1.534-4.516-5.228-6.011-4.293-1.6-7.2-4.1-7.2-8.026,0-4.332,3.51-7.5,8.7-7.5a11.579,11.579,0,0,1,5.823,1.342l-.931,2.575h0Z" transform="translate(-113.087 -38.355)" fill="#f1a1b4"/>
      <path id="_パス_1385-2" d="M253.319,49.485l3.06-1.045v4.739h5.263V55.6h-5.263V67.364c0,2.575.783,4,2.763,4a6.157,6.157,0,0,0,2.089-.3l.188,2.391a7.837,7.837,0,0,1-3.025.485c-4.927,0-5.08-4.481-5.08-6.644V55.609H250.18V53.183h3.134V49.489Z" transform="translate(-142.007 -43.215)" fill="#f1a1b4"/>
      <path id="_パス_1386-2" d="M305.553,74.146a28.6,28.6,0,0,0,.3,4.852h-2.837l-.3-2.614H302.6a7.074,7.074,0,0,1-6.011,3.06,5.644,5.644,0,0,1-5.936-5.329c-.009-.153-.009-.3,0-.455,0-4.887,4.258-7.541,11.794-7.5,0-1.718,0-5.6-4.629-5.6a8.832,8.832,0,0,0-4.966,1.456l-.748-2.129a11.556,11.556,0,0,1,6.207-1.718c5.748,0,7.243,4.07,7.243,8.1v7.877Zm-3.06-5.709c-3.847,0-8.66.56-8.66,4.852,0,2.614,1.644,3.768,3.51,3.768a4.971,4.971,0,0,0,5.149-4.778V68.433Z" transform="translate(-164.782 -48.691)" fill="#f1a1b4"/>
      <path id="_パス_1387-2" d="M356.052,61.326a8.75,8.75,0,0,0-1.119-.074c-3.362,0-5.079,3.322-5.079,6.758V79.06h-3.095V64.8c0-2.164-.039-4.144-.149-6.085h2.723l.149,3.921h.114a6.089,6.089,0,0,1,5.521-4.367,7.321,7.321,0,0,1,.931.114v2.951h0Z" transform="translate(-196.284 -48.748)" fill="#f1a1b4"/>
    </g>
    <g id="_グループ_125" transform="translate(746.042 1019.165)">
      <path id="_パス_1407" d="M408.444,12.435a.393.393,0,0,0-.052-.1C408.339,12.487,408.444,12.435,408.444,12.435Z" transform="translate(-396.589 -10.63)" fill="#f2a5ba"/>
      <path id="_パス_1408" d="M407.526,16.14l-.026.24.026-.214Z" transform="translate(-396.095 -12.774)" fill="#f2a5ba"/>
      <path id="_パス_1409" d="M406.585,17.617h.026s.136,0,.157-.052h0l-.1-.214h0l.052-.24a.582.582,0,0,0-.24.052h0l.1.214a7.24,7.24,0,0,1-.24.8c.1-.079.157-.345.214-.555h.026Zm.1-.24-.052.184Z" transform="translate(-395.442 -13.32)" fill="#f2a5ba"/>
      <path id="_パス_1410" d="M405.312,20.76h0a.374.374,0,0,1-.052.184c.052-.026,0,.184.079-.184Z" transform="translate(-394.834 -15.374)" fill="#f2a5ba"/>
      <path id="_パス_1412" d="M404.7,22.174V21.96s-.079.214-.079.136c-.052.214,0,.184.079.079Z" transform="translate(-394.464 -16.05)" fill="#f2a5ba"/>
      <path id="_パス_1414" d="M404.952,22.15l-.053.24s.053,0,0-.1V22.15Z" transform="translate(-394.632 -16.157)" fill="#f2a5ba"/>
      <path id="_パス_1415" d="M405.02,22.686l.026-.079.057-.4-.079.476h0Z" transform="translate(-394.699 -16.191)" fill="#f2a5ba"/>
      <path id="_パス_1417" d="M401.737,26.025s-.135-.079-.026-.1a2.624,2.624,0,0,0-.45.079h.476Z" transform="translate(-392.583 -18.279)" fill="#f2a5ba"/>
      <path id="_パス_1418" d="M400.77,26.208s.135-.026.214-.052A.289.289,0,0,0,400.77,26.208Z" transform="translate(-392.307 -18.409)" fill="#f2a5ba"/>
      <path id="_パス_1424" d="M401.322,26.366s-.24.026-.372.026h.45s.079-.052-.079-.052h0v.026Z" transform="translate(-392.409 -18.515)" fill="#f2a5ba"/>
      <path id="_パス_1428" d="M399.86,26.331a.643.643,0,0,1,.184.026C399.991,26.357,399.86,26.3,399.86,26.331Z" transform="translate(-391.795 -18.506)" fill="#f2a5ba"/>
      <path id="_パス_1430" d="M402.747,26.4a.253.253,0,0,0-.157.052h.157Z" transform="translate(-393.332 -18.549)" fill="#f2a5ba"/>
      <path id="_パス_1431" d="M396.531,26.631s.586.079.372.136c-.345.026-.293,0-.45-.052.136.079-.45.1-.371.214l.293-.052s-.1.052,0,.052c0-.052.319-.1.586-.052.267-.052.079-.24-.136-.345,0,0,0,.052-.267.079h0l-.022.022Z" transform="translate(-389.664 -18.622)" fill="#f2a5ba"/>
      <path id="_パス_1432" d="M397.8,26.419h.612a2.674,2.674,0,0,1-.372-.079c-.184.026-.214.052-.24.079Z" transform="translate(-390.635 -18.515)" fill="#f2a5ba"/>
      <path id="_パス_1434" d="M402.4,26.82h-.424l.214.079h0c.24,0,.184-.052.214-.079Z" transform="translate(-392.988 -18.785)" fill="#f2a5ba"/>
      <path id="_パス_1435" d="M397.368,26.359l.052-.079-.24.1.184-.026h0Z" transform="translate(-390.286 -18.482)" fill="#f2a5ba"/>
      <path id="_パス_1436" d="M396.171,26.392l.026-.052-.157.026.135.026h0Z" transform="translate(-389.645 -18.515)" fill="#f2a5ba"/>
      <path id="_パス_1437" d="M405.013,45.231l-.052.1.1-.136h-.052Z" transform="translate(-394.666 -29.131)" fill="#f2a5ba"/>
      <path id="_パス_1439" d="M392.46,27.1l.053-.026S392.46,27.07,392.46,27.1Z" transform="translate(-387.63 -18.926)" fill="#f2a5ba"/>
      <path id="_パス_1441" d="M403.884,20.061s-.267.267-.157.184l.293-.214h-.079a2.886,2.886,0,0,1,.529-.45c.293-.157.24-.079.372-.157,0,0,.052,0,.157-.1l.638-.45-.477.214c.136-.157.529-.372,0-.1.105-.052.241-.1.372-.184a2.657,2.657,0,0,1-.372-.026v-.052a.764.764,0,0,0-.184-.1c-.079,0-.1,0-.345.1a.178.178,0,0,0-.157-.1,1.12,1.12,0,0,0-.529.136h-.9a4.746,4.746,0,0,1-.612.052h0a.427.427,0,0,0-.157-.136.653.653,0,0,0-.4.136c-.136-.079-.638-.026-.818-.157.079.026-.026.052-.184.052-.267-.079-.586-.184-.664-.214a.131.131,0,0,1-.079-.026c-.1-.026-.184,0-.5.214h-.372a4.42,4.42,0,0,1-.586-.052h-.079c-.267-.079-.638-.157-.743-.184v-.114h0a1.652,1.652,0,0,0-.026-.293,6.113,6.113,0,0,0-.1-.691.526.526,0,0,0-.162-.1h-.135l-.052-.1.052-.214a3.127,3.127,0,0,0,.135-.984.474.474,0,0,0-.157-.1c-.1,0-.1-.026-.45.184l-.079-.184v-.057a5.649,5.649,0,0,0-.026-.769.473.473,0,0,0-.157-.1h-.1l.079-.24a2.908,2.908,0,0,0,.267-1.005.472.472,0,0,0-.157-.1.566.566,0,0,0-.293.079V13.57c-.035-.026-.074-.052-.1-.079l-.052-.1a6.384,6.384,0,0,1-.319-.612.22.22,0,0,0-.157-.1h-.157a.248.248,0,0,0-.026-.157.251.251,0,0,0-.136-.1.39.39,0,0,0-.24.052h-.031l.1.214-.1.052-.026-.136c0,.079-.214.555-.319.874a3.117,3.117,0,0,0-.319,1.062.474.474,0,0,0,.157.1c.079,0,.1.026.476-.184a3.983,3.983,0,0,1-.319.345c-.293.293-.5.529-.691.743l.053-.079v-.136a1.427,1.427,0,0,0-.079.267c-.424.45-.529.612-.555.717a.967.967,0,0,1-.079.214c.026-.052.079-.136.1-.136h0v.026h.026s.079.1.157.1a3.563,3.563,0,0,0,1.062-.5c-.184.184-.372.345-.529.529-.529.529-.874.848-1.088,1.088h0s-.157.184-.214.24v-.1s-.079.214-.135.214h.052c-.1.136-.079.184,0,.267,0,0,.026.052.052.052h0v.079h0v-.052h.1l-.052.079a.086.086,0,0,0,.079-.052h0s.4-.184,1.67-.9c.555-.319,1.325-.769,1.513-.848a.171.171,0,0,0,.1-.026.062.062,0,0,0,.052-.026s.052,0,.052.026a.983.983,0,0,0,.079.267l.053-.079a.791.791,0,0,1,.052.319c.184.157-.157-.5,0-.345a1.09,1.09,0,0,0,.079.424c-.184,0-.555.157-4.271,2.256-.9.529-1.936,1.115-2.68,1.512.157-.184.345-.372.5-.555.9-.97,1.316-1.521,1.246-1.644a.469.469,0,0,0-.1-.079h-.079s.184-.052-.026-.079h.267a1,1,0,0,1-.254-.031H390.9a2.17,2.17,0,0,0,.477,0c-.079.052-.293.079-.214.157-.079.026-.184.1-.345.184h-.026c-.214.136-.529.293-.984.555-.319.184-.717.4-.983.555l.079-.293c.184-.769.214-.874.184-.953h.157c.026-.052-.052-.052-.184-.052a.368.368,0,0,0-.1-.079,1.459,1.459,0,0,1,.476-.026c-.157-.079-.079,0-.319-.079.214.136-.848,0-.5.136a.971.971,0,0,0-.214-.079.2.2,0,0,0,0-.24.22.22,0,0,0-.157-.1,3.107,3.107,0,0,0-.717.319h-.052l-.135.079-.1.052a.985.985,0,0,0-.45.052c-.24,0,.052-.026-.1-.079l-.24.052-.214-.052-.157-.1h0a2.091,2.091,0,0,1-.319-.184c-.026,0-.052-.052-.1-.052a.591.591,0,0,0-.345.1l-.1.052a.984.984,0,0,1-.157-.1.2.2,0,0,0-.1-.052.39.39,0,0,0-.24.052h-.052l.052.157h-.1l.136.079h-.053s0,.079.053.1v.1h.135c.1.052.24.157.476.319.214.136.45.319.529.372.079.079.157.079.293.026.052.026.1.079.157.1a3,3,0,0,0,.184.476.251.251,0,0,0,.136.1.653.653,0,0,0,.079.184.22.22,0,0,0,.157.1h.157c.079.079.184.184.345.372s.372.4.4.424a.139.139,0,0,0,.136.079.442.442,0,0,0,.319-.1h0s.267.079.555.157h.052c-.1.184-.079.24,0,.319a.173.173,0,0,0,.14.1.707.707,0,0,0,.267-.052,10.535,10.535,0,0,0,.927.664q0,.136.052.157a.22.22,0,0,0,.157.1.517.517,0,0,0,.214-.026l.319.4c.1.157.24.293.293.372a1.624,1.624,0,0,0-.079.184c0,.026-.026.052-.026.1-.026.1-.052.24-.079.372h0c-.817.953-1.189,1.495-1.115,1.617a.472.472,0,0,0,.157.1c.079,0,.1,0,.4-.136,0,.052.053.026.1,0V25.9c-.052,0-.079.079-.1.136-.529.4-.476.476-.4.612,0,.052.052.079.1.1a.209.209,0,0,0,0,.214h.031c-.079.24-.184.529-.267.743l-.157.424h0c-.157.424-.157.45-.1.529h0c0,.136-.052.24-.052.424l-.079.052c-.013.087-.031.179-.052.267a.409.409,0,0,1-.1.267,2.528,2.528,0,0,0-.135.293,14.275,14.275,0,0,0,1.272-.8c.267-.184.555-.372.817-.529a5.874,5.874,0,0,1,.555-.319c-.24-.052.4-.157.345-.293.079,0,.184-.052.079.052.345-.293.612-.319.8-.586.079,0-.052.1,0,.1,0-.026.1-.1.157-.1s-.026.052-.079.136c.372-.267.345-.4.293-.5a.667.667,0,0,0,.424-.319c.079,0,.24-.052,0,.1.135-.079.848-.5.817-.586.052,0,.184-.136.214-.157l.319-.214a.986.986,0,0,0,.157-.1h0a.428.428,0,0,0,.157.136.517.517,0,0,0,.214-.026c.24.214.293.24.372.267l.052.052c.184.184.4.424.424.45a.139.139,0,0,0,.135.079.372.372,0,0,0,.214-.052h0a1.374,1.374,0,0,1-.026.267,3.38,3.38,0,0,0-.079.984.473.473,0,0,0,.157.1l.953-.45.079-.052h0s-.135.052.052.184c0,.026.1.079.184.1-.214.267-.184.293-.1.4a.22.22,0,0,0,.157.1c.1,0,.1.026.555-.214a.976.976,0,0,1,.24.184c-.053-.079-.079-.157.079-.079a1.438,1.438,0,0,1,.319.267,2.505,2.505,0,0,0,.053.769.22.22,0,0,0,.157.1c.105,0,.105.026.691-.293.24.136.555.319.717.4a.682.682,0,0,0,0,.267.22.22,0,0,0,.157.1h.053a.189.189,0,0,0,.157-.052,1.358,1.358,0,0,0,.345.24c-.052-.1-.079-.24-.135-.372h.026s.157-.214.079-.319c0-.026-.052-.052-.079-.079h0s.136-.214.079-.319c0-.026-.052-.052-.079-.079a2.3,2.3,0,0,0,.1-.817.22.22,0,0,0-.157-.1c-.079,0-.1,0-.4.136-.026-.079-.026-.1-.053-.1l-.044-.066a3.455,3.455,0,0,0-.184-.5.752.752,0,0,0-.157-.214c0-.1.026-.026.053-.026l-.053-.184c.345-.586.319-.612.267-.717a.22.22,0,0,0-.157-.1.566.566,0,0,0-.293.079c.053-.157.079-.319.136-.45V25.8a.689.689,0,0,0,.079-.184,1.509,1.509,0,0,0,.1-.664.22.22,0,0,0-.157-.1,2.225,2.225,0,0,0-.586.24,2.371,2.371,0,0,0-.184-.45s.026,0,.053.052a4.254,4.254,0,0,1-.293-1.036c0-.079-.052-.157-.052-.24v-.1h-.052v-.052a.906.906,0,0,0,.052-.214h0s.136-.136.1-.214l.555-.4h0c.953-.664,1.936-1.272,2.837-1.884h-.157l.319-.24c.1-.026.157,0-.053.136.079,0,.157-.079.24-.157.052-.079.135-.184.135-.184.319-.184.319-.157.214-.052h0l-.109.022Zm.927-.664-.136.079C404.833,19.34,404.811,19.371,404.811,19.4Zm-13.953,2.968h0s-.079-.136-.157-.136h-.079v-.136h.079a.111.111,0,0,0,.052.1.178.178,0,0,0,.157.1c.184.052.345,0,3.423-1.805.345-.184.717-.424,1.062-.612-.4.293-.8.612-1.141.9-1.434,1.141-2.125,1.67-2.439,1.963h0a1.645,1.645,0,0,0-.157-.1s-.052-.052-.079-.052l-.052-.052s-.214-.319-.267-.267a.414.414,0,0,1-.136.45c-.1-.136-.184-.267-.24-.319h0l-.022-.044ZM396.8,17.8a.474.474,0,0,0,.157.1h.1a.786.786,0,0,1,.026.319c.1.267.052-.1.157.157v.079l.052.052h0a.3.3,0,0,0-.135-.052c-.157-.026-.214-.052-3.13,1.644-.4.24-.817.476-1.246.717.4-.319.848-.638,1.246-.927,1.617-1.193,2.387-1.805,2.758-2.12h0V17.8Zm2.684,4.616v-.079l.45-.293c-.24.184.052.136-.372.372l.136-.214-.24.184h0l.022.026Zm-.769.529h.079c-.612.319-1.67.9-3.606,2.015.743-.45,1.512-.927,2.229-1.355.743-.45,1.408-.848,1.989-1.224l-.079.052-.079.052-.1.079s-.267.184-.476.319v.052h.052Zm.476,2.946a.473.473,0,0,0,.157.1h.1c-.24.136-.5.293-.848.476l-.371.214a3.434,3.434,0,0,0,.267-.293c.267-.267.45-.476.638-.664,0,.136.026.136.052.157h0Zm-1.722.476s.053.079,0,.079Zm.1,0a.472.472,0,0,0-.1-.052v-.079c.214-.1.555-.319,1.141-.664l.079-.052c-.184.184-.371.4-.529.555-.184.184-.345.372-.476.5-.079-.1-.1-.157-.1-.214h0Zm-1.167-1.46a.131.131,0,0,0-.026-.079h0c.638-.4,1.246-.743,1.775-1.036h0a.2.2,0,0,0,.184,0h0c-.184.1-.476.293-.953.555-.319.184-.691.4-.927.529h0l-.053.026Zm2.518-1.062a.131.131,0,0,0-.026-.079c0-.026-.052-.052-.079-.079h0l.079-.052.053.1v.079h-.026v.026Zm-.083.267c-.135.424-.135.45-.079.529a.177.177,0,0,0,.157.1h.052v.079c-.157.1-.372.214-.612.372-.157.1-.345.214-.529.319.092-.127.188-.254.293-.372.424-.555.638-.848.743-1.005h0Zm.555,2.492a1.967,1.967,0,0,0-.665.293l.1-.052c.214-.136.477-.267.691-.4l-.157.157Zm.476,1.062a.247.247,0,0,1-.079-.052l.136-.079-.079.136h.022Zm.136-.7s-.345.184-.665.372a4.652,4.652,0,0,1,.345-.372l.241-.267s.052.157.079.267Zm-2.785-4.507c-1.434.817-3.051,1.753-4.35,2.492,1.005-.638,2.177-1.377,3.235-2.041a61.116,61.116,0,0,0,5.438-3.554h0a1.1,1.1,0,0,0,.477-.184h0s.079.267.1.4v.052c-1.062.586-2.653,1.486-4.961,2.837h.052Zm.157-3.711h0v.184a.11.11,0,0,0-.052-.1C397.327,18.807,397.379,18.781,397.379,18.754Zm-.079.1c.052.136.1.293.157.424h.664c-.612.345-1.46.817-2.706,1.539-.612.345-1.272.743-1.884,1.088.319-.267.691-.529,1.005-.8a34.131,34.131,0,0,0,2.758-2.26h0Zm3.209.323h-.052a1.063,1.063,0,0,1,.372-.052c-.586.293-1.7.927-3.873,2.2-.953.555-2.068,1.193-3.025,1.753.45-.293.927-.612,1.377-.927,2.575-1.722,3.711-2.518,4.192-2.916a6.432,6.432,0,0,0,1.005-.052ZM395.683,21.2c.424-.24.874-.5,1.324-.769-.664.45-1.355.927-1.989,1.355-1.67,1.115-2.6,1.753-3.13,2.146v-.052h-.026l.157-.1s0-.026-.052-.052v-.052h.052s.1-.1.1-.184c.214-.267.293-.372.267-.45.476-.24,1.408-.769,3.265-1.858h0l.022.026Zm-4.03,2.859h0l-.052.052v-.052Zm.157.638a53.657,53.657,0,0,0,4.983-2.758c-.319.214-.638.4-.953.612-1.989,1.246-3.314,2.094-4.218,2.653.24-.372.214-.424.157-.5h.031Zm-.555-.136a.144.144,0,0,0,.053.1v.052l-.1.079v-.1l.052-.1h0Zm-.691,2.758h0l.079-.214s.079.026.079.052v-.24s.026-.157.026-.184c.052,0,.1-.052.157-.079a.356.356,0,0,1,.026-.136c.874-.424,2.68-1.434,6.553-3.685,1.246-.717,2.653-1.512,3.847-2.2-1.272.8-2.784,1.722-4.166,2.544-3.947,2.413-5.783,3.554-6.631,4.135h.031Zm9.787-5.512a1.589,1.589,0,0,1-.136.157l-.052-.052.184-.1h0Zm-4.271,3.659s-.079-.079-.135-.079h-.052l.135-.079v.052a.177.177,0,0,0,.157.1c.136.026.157.026,1.434-.717l.345-.184-.214.293a11.333,11.333,0,0,0-.874,1.224c-.135-.079-.293-.136-.45-.24-.184-.157.079,0,0-.1l-.157-.052-.214-.214h0l.026-.009Zm6.872-6.365.1.052h.079l.052-.052h.026l-.586.293-.048-.175a1.384,1.384,0,0,1,.345-.136h0l.022.022Zm-4.983-.612-.052-.052Zm-2.229-5.56h0l-.079.052.052-.1v.052Zm-.319.717c.1-.293.184-.5.24-.664l.052.079s-.052.293-.136.293a.676.676,0,0,1,.136.372l-.24.136-.184.1.135-.319h0Zm-.079,1.482c.267-.267.45-.5.612-.664,0,.026.026.052.053.079,0,.1-.079-.079-.079,0a.791.791,0,0,1,.214.4c-.1,0-.267.1-1.115.586h-.052l.372-.372h0v-.026Zm-.664,1.989-.262.157.372-.372c.717-.717,1.141-1.115,1.355-1.377h.184a3.1,3.1,0,0,1,.135.476v.184h0c-.135-.026-.157-.052-1.775.9h0l-.009.026Zm-1.779,2.7c.717-.4,1.486-.848,2.177-1.246-.4.319-.848.638-1.246.927a18.468,18.468,0,0,0-3.025,2.413.172.172,0,0,1-.079-.079l.079.079v.052a.311.311,0,0,1-.135-.026v-.079a2.661,2.661,0,0,0-.1-.717c.529-.293,1.3-.717,2.334-1.325h0Zm-2.706,0,.372-.214c-.157.157-.293.319-.424.476-.424.45-.717.769-.9.984H389.1V21.01c-.214-.136-.345-.267-.5-.372.135,0,.214,0,1.617-.817h0l-.022-.009Zm-2.36.214c-.184-.24.293.184.157-.026a.4.4,0,0,1-.24-.079l-.184-.079h0l.45-.267c.184-.109.4-.24.612-.345l-.079.345c-.157.717-.184.817-.157.9-.052-.052-.136-.079-.184-.136,0-.052-.214-.214-.079-.184a.52.52,0,0,1-.267-.136h-.031Zm-.135.114c-.1-.031-.2-.066-.293-.1l-.1-.052.214-.1s.372.214.5.293c-.052.052-.157.052-.319,0h0v-.026Zm.8-1.377c-.157.079-.4.214-.717.4-.24.136-.529.319-.769.424h0l-.079-.232s.319-.157.743-.4l.214-.136h.053a1.89,1.89,0,0,1,.293-.157h.157l.079.079a.767.767,0,0,0-.345,0,2.653,2.653,0,0,1,.372.026h0Zm-.45,2.041h0l-.053-.052h0l-.052-.052.052.052.1.052Zm4.983,6.155a.815.815,0,0,1,.241-.136A.508.508,0,0,1,393.025,26.959Zm.5,0s-.026-.026,0-.1l-.052.052c-.157.052-.136-.026-.052-.136l.184-.052s.1-.214.052-.267l-.1.1V26.5l-.1.1h-.157l-.555.293a6.416,6.416,0,0,1-1.062,1.088c.1-.157-.052-.136-.1-.214.214,0,.424-.319.717-.5-.157.1-.157.026-.136,0l-.476.424a1.365,1.365,0,0,0-.319.1c.1,0,0,.1-.1.214a1.078,1.078,0,0,1-.214.157l-.052.052h-.026l-.052.079v-.074s0-.026.052-.052a.416.416,0,0,1,.157-.1.117.117,0,0,0-.1.052h-.052v.052h-.026a.393.393,0,0,1-.052.1.248.248,0,0,1-.214.184c.052-.026.079-.026.079-.079a.594.594,0,0,1-.214.157c-.052.026-.079,0-.052-.026h.026a3.583,3.583,0,0,0-.45.267V28.6l.184-.1s.267-.157.319-.184h.026s.157-.214.079-.319l-.053-.052c.45-.24,1.272-.691,2.837-1.565h.026v.052h0a.219.219,0,0,1,.1.026h.052a.219.219,0,0,0,.1-.026,1.074,1.074,0,0,1-.24.267,2.366,2.366,0,0,0,.24-.052l-.345.293h0l.135.022Z" transform="translate(-383.194 -10.672)" fill="#f2a5ba"/>
      <path id="_パス_1442" d="M405.08,44.643h.052Q405.132,44.617,405.08,44.643Z" transform="translate(-394.733 -28.81)" fill="#f2a5ba"/>
      <path id="_パス_1444" d="M393.66,26.34h-.24a2.361,2.361,0,0,1,.24.052S393.608,26.366,393.66,26.34Z" transform="translate(-388.17 -18.515)" fill="#f2a5ba"/>
      <path id="_パス_1446" d="M388.974,26.5c.157,0,0-.079.1-.052.052-.026-.184,0-.319,0-.136.026-.136.052.184.026h0l.026.026Z" transform="translate(-385.499 -18.568)" fill="#f2a5ba"/>
      <path id="_パス_1448" d="M410.176,12.555l-.136-.1a.727.727,0,0,1,.052.184l.079-.079h0Z" transform="translate(-397.525 -10.697)" fill="#f2a5ba"/>
      <path id="_パス_1450" d="M398.642,19.42l-.052.026h.026Z" transform="translate(-391.08 -14.62)" fill="#f2a5ba"/>
      <path id="_パス_1451" d="M398.487,19.319h.079s-.1-.052-.079-.079C398.408,19.319,398.539,19.266,398.487,19.319Z" transform="translate(-391.007 -14.519)" fill="#f2a5ba"/>
      <path id="_パス_1454" d="M398.77,18.682h.052a.111.111,0,0,1,.026-.052C398.823,18.63,398.8,18.63,398.77,18.682Z" transform="translate(-391.181 -14.176)" fill="#f2a5ba"/>
      <path id="_パス_1457" d="M398.642,18.88s0,.026-.052.052C398.616,18.932,398.695,18.932,398.642,18.88Z" transform="translate(-391.08 -14.316)" fill="#f2a5ba"/>
      <path id="_パス_1459" d="M398.58,18.5h.026s0-.026.052-.052a.248.248,0,0,0-.079.052Z" transform="translate(-391.074 -14.074)" fill="#f2a5ba"/>
      <path id="_長方形_143" d="M398.35,18.983l.1-.013h0Z" transform="translate(-390.945 -14.367)" fill="#f2a5ba"/>
      <path id="_パス_1461" d="M398.58,18.3h.026l.052-.026-.079.026Z" transform="translate(-391.074 -13.973)" fill="#f2a5ba"/>
      <path id="_パス_1462" d="M398.58,18.142s.052-.052.079-.052h-.079Z" transform="translate(-391.074 -13.872)" fill="#f2a5ba"/>
      <path id="_パス_1464" d="M398.522,18.39l-.052.052h0a.05.05,0,0,0,.052-.052Z" transform="translate(-391.013 -14.041)" fill="#f2a5ba"/>
      <path id="_パス_1465" d="M398.426,18.476h0l-.026-.026Z" transform="translate(-390.973 -14.074)" fill="#f2a5ba"/>
      <path id="_パス_1467" d="M398.1,18.862a.2.2,0,0,1,.135-.052A.188.188,0,0,0,398.1,18.862Z" transform="translate(-390.804 -14.277)" fill="#f2a5ba"/>
      <path id="_パス_1469" d="M398.28,18.356s.052,0,.052-.026h-.052v.052h0Z" transform="translate(-390.906 -14.007)" fill="#f2a5ba"/>
      <path id="_パス_1476" d="M397.448,18.161a.113.113,0,0,1,.026-.052c-.052.052-.1,0-.214.079h.052s-.052,0-.052.026c.052-.026.1-.026.079,0a1.1,1.1,0,0,0,.319-.184h-.079s-.053.079-.1.079h0l-.022.052Z" transform="translate(-390.331 -13.838)" fill="#f2a5ba"/>
      <path id="_パス_1477" d="M398.16,18.09v.052h0l.052-.052Z" transform="translate(-390.838 -13.872)" fill="#f2a5ba"/>
      <path id="_パス_1478" d="M397.976,18.21H397.9c-.052.026-.1,0-.157.079h.083c-.026-.026.026,0,.052-.052h.052l.052-.026Z" transform="translate(-390.602 -13.939)" fill="#f2a5ba"/>
      <path id="_パス_1479" d="M397.8,19.026l.026-.026Z" transform="translate(-390.635 -14.384)" fill="#f2a5ba"/>
      <path id="_パス_1480" d="M397.952,18.75a1.021,1.021,0,0,0-.136.1h.026a.113.113,0,0,0-.052.026.131.131,0,0,0,.079-.026h0l.079-.079h0V18.75Z" transform="translate(-390.63 -14.243)" fill="#f2a5ba"/>
      <path id="_パス_1482" d="M398.152,17.986l.052-.026-.1.026Z" transform="translate(-390.804 -13.798)" fill="#f2a5ba"/>
      <path id="_パス_1483" d="M398.179,17.9h-.052l-.026.026Z" transform="translate(-390.804 -13.765)" fill="#f2a5ba"/>
      <path id="_パス_1485" d="M396.82,15.718l.052-.048h-.052Z" transform="translate(-390.084 -12.51)" fill="#f2a5ba"/>
      <path id="_パス_1488" d="M397.5,16.982V16.93C397.47,16.956,397.418,17.009,397.5,16.982Z" transform="translate(-390.441 -13.219)" fill="#f2a5ba"/>
      <path id="_パス_1490" d="M397.55,16.947s.026-.052,0-.026h0s.026.013.026.026Z" transform="translate(-390.495 -13.209)" fill="#f2a5ba"/>
      <path id="_パス_1497" d="M394.934,15.885h.079l.157-.1-.24.1Z" transform="translate(-389.02 -12.571)" fill="#f2a5ba"/>
      <path id="_パス_1498" d="M390.356,9.177l-.052.052q.079-.039.079,0h0s.026.1.053.184l.057-.052v.052c.1-.052,0-.026.079-.1-.1.1.079.079-.052.214,0,0,.052-.052.079-.052h0a.249.249,0,0,1-.052.079h0s.052.026.052.052h0a.3.3,0,0,0,.184.079h0s0,.026.052.052h.052c-.052,0-.052.079-.1.079.079,0,.052,0,.184-.052l-.052.052s.079-.026.1,0c-.052,0-.052.052-.135.079-.079.1.157,0,0,.1.157-.079.052-.079.079-.1.026-.052.1-.052.1-.026,0,0-.157.136-.1.184h0s.052,0,0,.052c.079-.052,0,0,.1-.052h-.053s.184-.079.136,0h-.074c0,.026.026,0,0,.026-.1.079-.052,0-.157,0-.026.026.1,0,0,.052.157-.079,0,.052.136,0l-.053.052h-.026s-.026.1,0,.1c-.026-.026.079-.052.1-.1.1,0-.136.136-.079.157a.051.051,0,0,1,.053-.052h0a.09.09,0,0,1-.057.079c.026.026.053-.052.105-.052-.079.052.052,0,.079,0l-.052.052s.136-.079.1,0l-.1.052h.026l-.079.052s.052,0,.052.026c.052-.026.1-.079.136-.052-.026.026-.052.026-.026.052-.053,0-.1.052-.053,0h-.052v.079h.135a.4.4,0,0,1-.135.052h.079s-.052.052-.079.052c0,.026.135,0,.1.026h.026c0,.026-.052.1.052.079l-.079.079s.1-.1.157-.079c.052,0-.079.052-.1.079.052,0,.157-.052.1,0h0l-.052.052a.283.283,0,0,0-.157.052c.184-.1.079.052.267-.026h.079s-.026.052-.052.052h.026l.052.052h.1s-.1.052-.1,0c-.184.136.052,0,0,.1h-.026l-.1.1c.026,0,.135-.136.214-.136,0,0,0,.026.026,0-.079.026-.052.052-.026.052l-.079.052a.356.356,0,0,0,.135-.026l-.114.109c0,.026.105-.079.136-.052,0,.052.026.052.1.052,0,.026-.052,0-.079.052h.052a.3.3,0,0,1,.135-.052c.1-.052-.1.136,0,.079a.086.086,0,0,0-.079.052h.184l-.052.052a.74.74,0,0,1,.24-.079l.052-.052h.079a.248.248,0,0,0-.079.052h0a.3.3,0,0,1-.135.052l.052-.052s-.135.052-.184.079h.026l-.1.079h.052v.052a.791.791,0,0,1,.319-.052c-.079,0-.135.052-.214.1.079-.052-.052,0-.052-.052,0,0-.052.026-.052.052h.1a.172.172,0,0,0-.079.079c.136-.079.1,0,.157,0-.052,0-.1.052-.1,0-.079.079.184-.052.1,0h0c.052,0,.026.052,0,.052h0a.135.135,0,0,0,.184.052h0l-.157.079.45-.136a2.142,2.142,0,0,1-.424.184.028.028,0,0,0,.026.026,1.322,1.322,0,0,1,.157-.079c-.1.079-.052.052-.135.136,0,0,.184-.1.184-.079a1.649,1.649,0,0,1-.184.079l.184-.052s-.135.079-.184.1c.026,0,0,.026.026.026h.026s.24-.1.267-.052c-.026,0-.214.079-.214.136a3.349,3.349,0,0,1,.5-.157h0s-.424.157-.529.184c-.026.026-.052.026-.026.052-.026.026-.079,0-.079,0v.052a.333.333,0,0,0,.184-.052h-.135s.293-.1.293-.052a1.94,1.94,0,0,1-.214.1h0s.135,0,.079.052c0,0-.1.079-.052.052a3.067,3.067,0,0,1,.5-.267.572.572,0,0,1-.135.136c-.079.052-.214.079-.267.136h.079s-.079.026-.052.052c.1-.052,0,.052.079-.026.026,0,0,.026,0,.052a.938.938,0,0,1,.267-.079.23.23,0,0,0-.061.052v.136a.1.1,0,0,1-.079.052h.052s-.026,0-.1.052c.052-.026.1,0,.136,0,.079-.052,0-.052-.053-.052a.594.594,0,0,1,.345-.079c.052,0-.079.052-.052.052,0,.079.24-.052.184.026a.751.751,0,0,1-.214.1c-.052,0,0-.052,0-.079h0s-.052.026-.052,0c-.052.052.052.1,0,.184a.1.1,0,0,0,.079-.026h0s.105-.026.105-.052h.1l-.079.052s.052-.052,0-.026c.052,0-.079.1.026.052l.052-.052s.157-.026.135,0c.079-.052,0,0,.079-.079-.1.079-.026-.052-.135.026.1-.079.026-.052.1-.136-.026,0-.053.026-.053,0h-.026v.052H393.2a.112.112,0,0,0,.052-.026H393.2s.079-.079.135-.079h0s.026-.079,0-.079h-.079s-.157-.052-.053-.157c0,0-.052,0-.052-.026h.052s0-.1-.026-.079c.135-.1,0-.1,0-.136h-.214v-.079h0c.1-.1-.157-.026-.079-.136h0v-.052a.086.086,0,0,0-.079.052h-.052s-.052,0,.052-.079a.433.433,0,0,0-.184,0h0V11.8l.079-.052h-.135a.724.724,0,0,0,.135-.052h-.135s-.1,0-.052-.052c.079-.079-.052-.136,0-.24-.157.1.052-.079-.079,0,.026,0,.052-.052.079-.052-.052,0,.026-.079-.079-.052a.1.1,0,0,0,.079-.026h.052c-.026-.026-.157.026-.267.079.052-.052.026-.052-.052,0,.026,0,.052-.052.079-.052,0,0,0-.1-.079-.052h0a.076.076,0,0,0-.026-.052h-.052s-.053,0,0-.1h-.061c-.135.1.052-.052,0-.052h-.026a1.9,1.9,0,0,0,.184-.136h.026a.182.182,0,0,1-.136,0c.052-.026.136-.052.1-.079.026-.026-.184.026-.1-.052-.026,0-.052.052-.1.052,0,0,.1-.136,0-.079h0a.146.146,0,0,0-.157,0c.214-.136-.184-.026.026-.157l-.052-.052h0a.182.182,0,0,0-.135,0,.062.062,0,0,0,.052-.026q0-.079-.135-.052l.053-.052s.052-.136-.053-.136h.026s.1-.24-.157-.1h-.07a.405.405,0,0,0-.136.1s.052-.079.079-.079h0a.16.16,0,0,1,.079-.136c-.052-.079-.052-.214-.1-.293l-.079.079h0l.079-.079c.052-.052-.079,0-.079,0,0-.052.136-.052.1-.079h-.026s-.079.052-.1,0c0-.026.052-.052.052-.052h-.079l-.079.079c.1-.1-.053-.157,0-.184a.152.152,0,0,1-.1-.026s-.079.079-.1.052c.184-.136.026-.079.136-.214-.052.079-.079-.052-.157.079,0-.026.052-.052.079-.1-.1,0-.026-.136-.1-.157l-.079.079.079-.1s-.136.1-.079,0c0,0-.026.052-.053.052,0-.079-.079-.136-.135-.157s-.1-.079-.079-.214c0,.052-.026.052-.052.026l-.079.079v-.1s0-.026-.1.026h0a3.7,3.7,0,0,1-.267.319c.1-.079-.079.184.079.079h0l.24-.079Zm1.359,1.937h-.026C391.768,11.087,391.742,11.114,391.716,11.114Z" transform="translate(-386.273 -8.648)" fill="#f2a5ba"/>
      <path id="_パス_1502" d="M397.655,18.011s-.026.026,0,.026h0S397.708,17.984,397.655,18.011Z" transform="translate(-390.547 -13.823)" fill="#f2a5ba"/>
      <path id="_パス_1504" d="M397.848,17.515s.079-.026.052,0C397.979,17.489,397.8,17.515,397.848,17.515Z" transform="translate(-390.657 -13.541)" fill="#f2a5ba"/>
      <path id="_パス_1505" d="M397.25,18.226l.079-.026h-.079Z" transform="translate(-390.326 -13.934)" fill="#f2a5ba"/>
      <path id="_パス_1508" d="M396.855,17.48s-.026,0,0,.026h.026Z" transform="translate(-390.097 -13.528)" fill="#f2a5ba"/>
      <path id="_パス_1509" d="M396.606,17.806l.052-.026-.079.052h.026Z" transform="translate(-389.949 -13.697)" fill="#f2a5ba"/>
      <path id="_パス_1510" d="M396.446,17.72s-.079,0-.052.026C396.393,17.746,396.446,17.746,396.446,17.72Z" transform="translate(-389.841 -13.663)" fill="#f2a5ba"/>
      <path id="_パス_1511" d="M396.28,16.769h.026l.136-.079-.157.079h0Z" transform="translate(-389.78 -13.084)" fill="#f2a5ba"/>
      <path id="_パス_1512" d="M395.3,16.51s-.026,0-.1.052c0,.052.079-.026.053,0,.026,0,0-.026.052-.052Z" transform="translate(-389.172 -12.982)" fill="#f2a5ba"/>
      <path id="_パス_1513" d="M391.446,8.44l-.026.052h.026Z" transform="translate(-387.044 -8.44)" fill="#f2a5ba"/>
      <path id="_パス_1514" d="M391.206,8.579l.052-.079-.079.052h0Z" transform="translate(-386.909 -8.474)" fill="#f2a5ba"/>
      <path id="_パス_1515" d="M393.543,14.33l-.053.052h0V14.33Z" transform="translate(-388.209 -11.755)" fill="#f2a5ba"/>
      <path id="_パス_1516" d="M393.37,13.806h0l.079-.026Z" transform="translate(-388.142 -11.446)" fill="#f2a5ba"/>
      <path id="_パス_1520" d="M430,12.132h0V12.08s-.052.079-.105.079c.053.079.053-.026.079,0h0Z" transform="translate(-408.698 -10.489)" fill="#f2a5ba"/>
      <path id="_パス_1523" d="M429.366,11.8s-.026-.013-.026-.026a.1.1,0,0,0,.026.079Z" transform="translate(-408.388 -10.314)" fill="#f2a5ba"/>
      <path id="_パス_1526" d="M429.583,12.054s0-.1-.053-.052a.051.051,0,0,1,.053.052Z" transform="translate(-408.495 -10.436)" fill="#f2a5ba"/>
      <path id="_パス_1528" d="M429.152,11.952s-.026,0-.052-.052a.25.25,0,0,0,.052.079h0Z" transform="translate(-408.253 -10.388)" fill="#f2a5ba"/>
      <path id="_パス_1531" d="M428.86,11.952V11.9l.026.079Z" transform="translate(-408.118 -10.388)" fill="#f2a5ba"/>
      <path id="_パス_1532" d="M428.673,11.979s-.052-.052-.052-.079v.079Z" transform="translate(-407.983 -10.388)" fill="#f2a5ba"/>
      <path id="_パス_1534" d="M429.033,12.132s-.026-.052-.052-.052Z" transform="translate(-408.186 -10.489)" fill="#f2a5ba"/>
      <path id="_パス_1537" d="M429.462,12.386a.2.2,0,0,1-.052-.136A.188.188,0,0,0,429.462,12.386Z" transform="translate(-408.428 -10.585)" fill="#f2a5ba"/>
      <path id="_パス_1538" d="M429.22,12.26v.052h.026A.112.112,0,0,0,429.22,12.26Z" transform="translate(-408.321 -10.59)" fill="#f2a5ba"/>
      <path id="_パス_1539" d="M428.886,12.312s0-.052-.026-.052v.052Z" transform="translate(-408.118 -10.59)" fill="#f2a5ba"/>
      <path id="_パス_1546" d="M428.6,12.787h-.052c.052.052,0,.1.079.214v-.052s0,.052.026.052c-.026-.052-.026-.1,0-.079a.923.923,0,0,0-.21-.293v.079a.178.178,0,0,1,.1.1h0l.052-.026Z" transform="translate(-407.882 -10.798)" fill="#f2a5ba"/>
      <path id="_パス_1547" d="M428.516,12.459h.052a.171.171,0,0,0-.079-.079v.079Z" transform="translate(-407.91 -10.658)" fill="#f2a5ba"/>
      <path id="_パス_1548" d="M428.74,12.406a.2.2,0,0,0,.079.157v-.079c-.026.026,0-.026-.052-.052h0V12.38h0v.052h0Z" transform="translate(-408.05 -10.658)" fill="#f2a5ba"/>
      <path id="_パス_1550" d="M429.4,12.615v.052a.131.131,0,0,0-.026-.079h0s-.079-.052-.079-.079a.451.451,0,0,0,.1.136v-.031Z" transform="translate(-408.36 -10.731)" fill="#f2a5ba"/>
      <path id="_パス_1552" d="M428.422,12.432l-.052-.052.052.079Z" transform="translate(-407.842 -10.658)" fill="#f2a5ba"/>
      <path id="_パス_1553" d="M428.346,12.5l-.026-.052V12.5Z" transform="translate(-407.814 -10.697)" fill="#f2a5ba"/>
      <path id="_パス_1555" d="M425.891,14.273s-.135-.079-.079-.026l.052.052h.026Z" transform="translate(-406.395 -11.698)" fill="#f2a5ba"/>
      <path id="_パス_1556" d="M425.273,16.2h0l-.053-.052V16.2Z" transform="translate(-406.069 -12.78)" fill="#f2a5ba"/>
      <path id="_パス_1557" d="M424.43,18.81l.052.052S424.482,18.836,424.43,18.81Z" transform="translate(-405.624 -14.277)" fill="#f2a5ba"/>
      <path id="_パス_1558" d="M427.332,13.29h-.052C427.306,13.29,427.359,13.342,427.332,13.29Z" transform="translate(-407.229 -11.17)" fill="#f2a5ba"/>
      <path id="_パス_1559" d="M423.58,16.93l.026.026Z" transform="translate(-405.146 -13.219)" fill="#f2a5ba"/>
      <path id="_パス_1565" d="M427.916,12.75l-.026.026h.026Z" transform="translate(-407.572 -10.866)" fill="#f2a5ba"/>
      <path id="_パス_1567" d="M426.537,15.718s-.026-.079,0-.052l-.157-.136.157.184h0Z" transform="translate(-406.722 -12.431)" fill="#f2a5ba"/>
      <path id="_パス_1568" d="M420.169,16.619a.249.249,0,0,1,.079.052h-.136s-.026.052.052.1h0a2.787,2.787,0,0,1,.372.157c-.1-.079.214.026.079-.079.026,0,.026.026.079.052q-.052-.052,0-.052h0a1.254,1.254,0,0,0,.184-.1H420.8l.052-.026c-.079-.079-.026.026-.135-.052.135.052.079-.1.214,0,0,0-.079-.026-.052-.052h.1s0-.052.026-.026h-.026a.207.207,0,0,0,.052-.214h-.026a.1.1,0,0,0,.052-.079h0s-.026-.052,0-.052c.026.026.079,0,.1.052-.026-.079-.026-.052-.135-.157h.052s-.052-.026-.052-.052c.026.052.079.026.135.079.136,0-.052-.136.105-.052-.136-.1-.105,0-.136-.026-.052,0-.079-.079-.052-.079,0,0,.184.079.214.052h0s-.026-.052.052-.026c-.079-.052,0,0-.079-.079v.052s-.136-.136-.052-.136l.052.052c.026,0,0-.026.026,0,.1.079,0,.052.052.136.052,0-.052-.079.052,0-.135-.1.053-.026-.052-.136l.052.052v-.052l.053.052s.079,0,.079-.052c-.026.052-.079-.026-.135-.052-.053-.1.184.079.214,0h.026c0-.052-.079-.026-.1-.079.079.026,0-.026-.026-.079l.052.052s-.136-.1-.052-.1l.079.079h.052v-.052c-.052,0-.1-.079-.1-.1.052,0,.052.052.079,0,.026.026.079.079,0,.052l.053.052.052-.052h0l-.052-.1s.052.026.052.052v-.052c.052.026.1.079.1.1v-.079a.05.05,0,0,1,.052.052h0c.052,0-.052-.1,0-.1h0s.105,0,.052-.1l.1.052s-.135-.052-.135-.136c0-.052.079.052.1.052-.026-.052-.1-.136,0-.1V15.3h.052a.137.137,0,0,0,.1.136c-.157-.136.052-.079-.135-.214h.052s-.1-.079-.052-.1a.131.131,0,0,1,.079.026v-.057h.026a.475.475,0,0,1-.053-.1c.026,0,0,0,.026.026v-.052s.052.079.026.079c.184.1-.026-.052.1,0h0a1.062,1.062,0,0,0,.157.079.5.5,0,0,1-.214-.136s.026,0,0-.026c.053.052.053,0,.053,0l.079.052a.465.465,0,0,1-.079-.1.382.382,0,0,1,.135.079c.026,0-.1-.052-.1-.1.052,0,.026-.052,0-.1.052,0,.052.052.079.052l-.052-.052h.026s-.079-.052-.079-.079c-.079-.079.157.052.079-.052.026,0,.052.052.079.052a.271.271,0,0,0-.079-.157h.079s-.136-.079-.157-.157h-.052v-.1l.052.052h0a.21.21,0,0,1,.1.079h-.052a.8.8,0,0,0,.135.1h.136a.9.9,0,0,1-.157-.293.9.9,0,0,1,.157.157c-.079-.052,0,.052-.026.079,0,0,.052.026.052.052v-.1s0,.026.052.052c-.135-.1-.052-.1-.079-.136.026.026.079.079.052.079.1.052-.105-.157,0-.1h0c0-.052.026-.052.052,0h0a.113.113,0,0,0,.022-.162c-.009-.009-.013-.017-.022-.022l.135.136-.267-.372a1.811,1.811,0,0,1,.319.319s.052,0,.026-.026l-.136-.1c.1.079.053.026.157.079a1.007,1.007,0,0,1-.135-.157l.135.136-.079-.157.136.136c-.026,0,.026,0,0-.052H422.9s-.136-.214-.1-.24a.389.389,0,0,0,.184.157,1.869,1.869,0,0,1-.267-.424h.026s.214.319.267.424c.052,0,.052.052.052,0,.052.026.052.052.026.079h.079a.34.34,0,0,0-.1-.184v.136s-.157-.24-.1-.267c.026,0,.1.136.135.157h0s-.026-.136.052-.079c0,0,.1.079.079.026-.079-.079-.345-.345-.4-.424a.882.882,0,0,1,.157.079c.079.052.136.184.184.24l-.026-.052s.052.079.052.052c-.052-.079.052,0-.052-.079,0-.026.026,0,.052,0a.508.508,0,0,1-.135-.24l.052.052a.183.183,0,0,0,.135-.026.171.171,0,0,1,.079.079v-.061s-.026.026.052.1c-.026-.052,0-.079-.026-.136-.052-.079-.052,0-.052.052a.647.647,0,0,1-.135-.293c0-.052.052.052.052.026.079,0-.079-.214,0-.184a.429.429,0,0,1,.135.184c0,.052-.079,0-.079,0h.052v.057c.052.052.1-.052.184-.026a.1.1,0,0,0-.026-.079h0s0-.079-.052-.079v-.109l.052.079s-.052-.026-.052,0c0-.052.1.079.052-.026l-.052-.052s-.026-.157,0-.136c-.053-.079,0,0-.079-.079.079.1-.079.026.026.136-.079-.079-.052,0-.157-.1,0,0,.052.052,0,.052h0l.026.052c.026.052,0,.079,0,.136,0,0,0-.026-.052-.052v.044s-.079-.079-.079-.136h-.026s-.079,0-.079.026v.079h-.026s0,.136-.136.079c0,0,0,.052-.026.052l-.052-.052s-.079,0-.052.052c-.135-.1-.1.026-.157.052l.052.052a.281.281,0,0,0-.026.079l.053.052s-.079,0-.1.052h0c-.157-.079,0,.157-.1.1h0v.052l-.052-.052h0s0,.026.052.079v.052s0,.052-.079-.026c.026.052,0,.079.079.184h0l-.079-.052.079.1a1.019,1.019,0,0,1-.135-.1c.052.1,0,.052.052.157l-.052-.052s.026.079,0,.052c-.1-.052-.135.1-.267.079.157.1-.079,0,0,.079q-.039,0-.079-.079c0,.052-.1,0,0,.1-.026,0-.052-.052-.052-.052h0a.111.111,0,0,0-.026-.052.755.755,0,0,0,.157.214q-.052,0,0,.052a.081.081,0,0,1-.079-.079s-.1.026-.026.079h0q-.026,0-.052.052h0v.079h0s0,.026-.1,0l.052.052s-.1,0-.079.052h.052a2.2,2.2,0,0,0-.24-.079v-.013c-.1,0,.079.052.079.1-.052-.026-.1-.079-.135-.079-.052,0,.079.157,0,.136a.081.081,0,0,1,.079.079c0,.026-.157-.026-.079.052h-.026s0,.079.052.1c-.214-.136,0,.157-.157.026v.052h-.052a.22.22,0,0,0,.026.1.062.062,0,0,1-.052-.026c-.079,0-.079.026,0,.136l-.079-.052s-.157,0-.1.079h0s-.267,0-.052.157v.079a.686.686,0,0,0,.184.079s-.1,0-.1-.026h0a.2.2,0,0,1-.157-.026c-.052.079-.184.136-.24.214l.1.052h0s-.079,0-.052-.026c-.052,0,0,.052.052.079a.113.113,0,0,1-.1-.079h0s.079.079.052.1c-.026,0-.079-.026-.079,0h-.026l.079.052s-.026.026.079.079c-.157-.052-.135.1-.184.079.052.052,0,.079,0,.1,0,0,.1.052.079.079-.183-.1-.1,0-.24-.052.1.026,0,.079.1.136a.4.4,0,0,1-.135-.052c.026.079-.1.079-.136.157,0,0,.079,0,.105.052l-.136-.052s.136.079.026.052c0,0,.052,0,.052.026-.184.052-.052.293-.345.267q.053,0,.052.026h0l.079-.061Zm2.068-1.753s.026.052,0,.026C422.184,14.84,422.236,14.866,422.236,14.866Z" transform="translate(-403.142 -10.866)" fill="#f2a5ba"/>
      <path id="_パス_1572" d="M428.49,12.96h.052S428.49,12.908,428.49,12.96Z" transform="translate(-407.91 -10.971)" fill="#f2a5ba"/>
      <path id="_パス_1574" d="M427.86,12.837s-.052-.079,0-.052C427.834,12.706,427.86,12.889,427.86,12.837Z" transform="translate(-407.542 -10.874)" fill="#f2a5ba"/>
      <path id="_パス_1575" d="M428.62,13.23l.026.052.026.026-.052-.079Z" transform="translate(-407.983 -11.136)" fill="#f2a5ba"/>
      <rect id="_長方形_151" height="0.026" transform="translate(20.628 2.168)" fill="#f2a5ba"/>
      <path id="_パス_1578" d="M427.89,13.772s.026.026.026,0V13.72h0Z" transform="translate(-407.572 -11.412)" fill="#f2a5ba"/>
      <path id="_パス_1579" d="M428.253,13.952s-.026,0-.052-.052l.052.079h0Z" transform="translate(-407.747 -11.513)" fill="#f2a5ba"/>
      <path id="_パス_1580" d="M428.276,14.192s0-.052-.026-.052C428.25,14.14,428.25,14.219,428.276,14.192Z" transform="translate(-407.775 -11.648)" fill="#f2a5ba"/>
      <path id="_パス_1581" d="M427.179,14.336h0L427.1,14.2Z" transform="translate(-407.127 -11.682)" fill="#f2a5ba"/>
      <path id="_パス_1582" d="M427.213,15.472a.051.051,0,0,1-.052-.052h0c0,.052,0,.026.079.1.052,0-.052-.079,0-.052Z" transform="translate(-407.161 -12.369)" fill="#f2a5ba"/>
      <path id="_パス_1583" d="M420.052,21.67,420,21.7h.052Z" transform="translate(-403.131 -15.887)" fill="#f2a5ba"/>
      <path id="_パス_1584" d="M420.2,21.842l-.079-.052Z" transform="translate(-403.199 -15.954)" fill="#f2a5ba"/>
      <path id="_パス_1586" d="M424.939,18.082h0l-.079-.052Z" transform="translate(-405.867 -13.838)" fill="#f2a5ba"/>
      <path id="_パス_1588" d="M435.29,44.892l.053-.052S435.29,44.919,435.29,44.892Z" transform="translate(-411.737 -28.928)" fill="#f2a5ba"/>
      <path id="_パス_1589" d="M434.9,45.106l.026-.026-.052.052.026-.026Z" transform="translate(-411.501 -29.063)" fill="#f2a5ba"/>
      <path id="_パス_1590" d="M434.849,44.986s-.079.052-.052,0c-.052.1.026,0,0,.026h0l.052-.052h0Z" transform="translate(-411.449 -28.996)" fill="#f2a5ba"/>
      <path id="_パス_1593" d="M434.922,44.42a.252.252,0,0,0-.052.079h.026V44.42Z" transform="translate(-411.501 -28.692)" fill="#f2a5ba"/>
      <path id="_パス_1596" d="M434.8,44.766s.053-.079.026-.052A.062.062,0,0,1,434.8,44.766Z" transform="translate(-411.461 -28.854)" fill="#f2a5ba"/>
      <path id="_パス_1598" d="M434.742,44.472V44.42a.247.247,0,0,1-.052.079h0Z" transform="translate(-411.399 -28.692)" fill="#f2a5ba"/>
      <path id="_パス_1600" d="M434.62,44.859l.079-.079Z" transform="translate(-411.36 -28.895)" fill="#f2a5ba"/>
      <path id="_パス_1601" d="M434.75,44.292l.052-.052Z" transform="translate(-411.433 -28.591)" fill="#f2a5ba"/>
      <path id="_パス_1602" d="M434.69,44.189s.026-.079.052-.079l-.052.052Z" transform="translate(-411.399 -28.517)" fill="#f2a5ba"/>
      <path id="_パス_1607" d="M434.5,44.885a.21.21,0,0,1,.079-.1C434.579,44.806,434.526,44.832,434.5,44.885Z" transform="translate(-411.293 -28.895)" fill="#f2a5ba"/>
      <path id="_パス_1608" d="M434.56,44.712a.112.112,0,0,1,.026-.052h-.026Z" transform="translate(-411.326 -28.827)" fill="#f2a5ba"/>
      <path id="_パス_1616" d="M433.906,44.624v-.052c-.026.079-.079.079-.135.184h0c.026-.052.079-.1.052-.026a2.322,2.322,0,0,0,.184-.319.086.086,0,0,1-.052.079.188.188,0,0,1-.052.136h0Z" transform="translate(-410.882 -28.686)" fill="#f2a5ba"/>
      <path id="_パス_1617" d="M434.346,44.412h0l.026-.052-.052.052Z" transform="translate(-411.191 -28.658)" fill="#f2a5ba"/>
      <path id="_パス_1618" d="M434.279,44.551a.168.168,0,0,1,.026-.079h0V44.42h-.026c-.026.052-.052.079-.079.136,0,0,.026-.052.052-.052h0Z" transform="translate(-411.124 -28.692)" fill="#f2a5ba"/>
      <path id="_パス_1619" d="M434.365,44.832a1.277,1.277,0,0,0-.079.136h-.026a.332.332,0,0,0,.052-.083h0a.4.4,0,0,1,.052-.1h0Z" transform="translate(-411.157 -28.895)" fill="#f2a5ba"/>
      <path id="_パス_1620" d="M434.26,44.926v.052h0a.131.131,0,0,1,.026-.079h-.026Z" transform="translate(-411.157 -28.962)" fill="#f2a5ba"/>
      <path id="_パス_1621" d="M434.346,44.319l.052-.079-.079.079Z" transform="translate(-411.191 -28.591)" fill="#f2a5ba"/>
      <path id="_パス_1622" d="M434.32,44.316h0l.026-.026Z" transform="translate(-411.191 -28.619)" fill="#f2a5ba"/>
      <path id="_パス_1624" d="M433.05,43.631s.052-.136,0-.079V43.6h0Z" transform="translate(-410.476 -28.196)" fill="#f2a5ba"/>
      <path id="_パス_1627" d="M433.755,44.1V44.05C433.755,44.076,433.729,44.129,433.755,44.1Z" transform="translate(-410.867 -28.484)" fill="#f2a5ba"/>
      <path id="_パス_1635" d="M431.944,44.82l.052-.052.079-.157-.135.214h0Z" transform="translate(-409.852 -28.799)" fill="#f2a5ba"/>
      <path id="_パス_1636" d="M430.75,43.249s.079-.079.079-.052l-.052.079v-.026c.026-.026-.052.136.026,0V43.2a.82.82,0,0,1,.1-.079c.053-.079,0,0,.026-.079-.052.136-.026,0-.079.1.052-.1,0-.052.052-.157,0,.026,0,.052-.026.026h0v.079c-.035.026-.074.052-.1.079a.062.062,0,0,1,.026-.052v.052a.311.311,0,0,1,.026-.136h0v-.048H430.8s-.1.079-.052-.026h-.026v-.052h0c.079-.136-.026-.052-.026-.079v.079h-.1v.052l-.053-.052h0c.053-.157-.1.079-.079-.026h0v-.048h0s0,.026-.053.079h-.026s-.026.052,0-.052c-.026.052-.052,0-.1.136h0a.356.356,0,0,1,.026-.136l-.1.1v-.057h0c.026-.1-.079-.052-.052-.157-.079.157,0-.079-.053.052,0-.026,0-.052.053-.079-.026.026,0-.079-.053,0,0-.026.026-.052.053-.079h0a.112.112,0,0,1,.026-.052,1.355,1.355,0,0,0-.136.214q0-.052-.026,0c0-.026,0-.079.052-.079,0,0,0-.079-.052,0h-.026s0,.026-.052.052h0s-.026,0,0-.079v.079c-.105.136,0-.1-.052-.052v.052s.052-.214.052-.24V42.51c0-.1-.052.079-.079.1,0-.052.052-.1.052-.136,0-.052-.1.136-.079.052a.11.11,0,0,1-.052.1s0-.157-.026-.052h0s-.052,0-.079.079c.079-.24-.1.079,0-.136h0a.086.086,0,0,0-.079.052v-.048q0-.052-.079.052v-.079s0-.136-.026-.052h0s0-.24-.1,0l-.052.052a.517.517,0,0,0-.052.157v-.109h0v-.136c-.052,0-.079-.1-.136-.136v.1h-.052s0-.1.026-.079c0-.052-.026.052-.052.079a.366.366,0,0,1,.052-.136h0s-.026.1-.052.1v-.07h0v.052s-.026,0-.052.079c.026-.157-.079-.079-.052-.136-.026.052-.052.052-.052.052s0,.1-.026.1c.053-.184,0-.079,0-.24,0,.1-.052,0-.079.157v-.136c-.052.079-.052-.052-.1-.052a.219.219,0,0,1-.026.1v-.136s-.026.157,0,.052v.052c-.052-.136-.184.079-.214-.184v.052s-.052,0-.052.1h0s-.026.24-.052.372c.026-.136,0,.184.052,0v.092c0-.052,0-.079.026-.052h0a.21.21,0,0,0,.079.1V42.7c.026-.1,0,0,0-.136,0,.136.052,0,.026.184,0,0,0-.079.026-.079h0v.1h.026a.16.16,0,0,0,.136-.079h.052l.026-.026a.171.171,0,0,1-.026.1c.053-.052.026-.052.079-.157v.057s0-.079.026-.079a.143.143,0,0,1-.052.136c0,.136.079-.1.052.079.053-.136,0-.079,0-.1,0-.052.053-.1.053-.079,0,0-.053.184,0,.184h0c.026-.079,0,0,.052-.1h-.026s.079-.136.079-.052a.131.131,0,0,1-.026.079h0c-.026.1-.026,0-.079.1,0,.052.052-.079,0,.052.052-.157,0,0,.079-.079v.079h0v.052s-.026.079,0,.026a.356.356,0,0,1,.026-.136c.052-.079-.052.184,0,.157h0c.026,0,0-.079.052-.1,0,.079,0-.026.052-.052v.079s.026-.136.026-.079l-.052.079h0v.052h0a.365.365,0,0,1,.052-.136c0,.052-.026.052,0,.052,0,.052-.052.1-.026.026v.052h0l.053-.079s0,.052-.026.052v-.052a.311.311,0,0,1-.026.136l.053-.052v.079c0,.026.079-.1.079-.052h0s0,.052.052,0v.1s0-.136.053-.157c.026,0-.026.079-.026.1.026-.052.079-.136.079-.052h0v.052a.424.424,0,0,0-.079.136c.079-.184.052,0,.136-.184v.052h0s.079-.136.079-.079V43h.052s.052-.026.052-.052v.079c-.079.184.026-.052,0,.079h0a.477.477,0,0,1-.026.157.669.669,0,0,1,.079-.214h0c-.026.079,0,.052,0,.052v-.031a.188.188,0,0,1-.052.136.4.4,0,0,1,.052-.136c0,.052,0,0,.079-.026,0,.026-.026.052-.026.079l.052-.079h0s.053-.052.053-.079c.052-.1-.053.157,0,.052a.249.249,0,0,1-.053.079.511.511,0,0,0,.105-.136v.052a1.933,1.933,0,0,1,.1-.214V42.72h.079l-.053.052h0l-.052.1v-.052l-.079.157h0l-.052.079h0l.184-.214a1.944,1.944,0,0,0-.1.214c.026-.079-.052.026-.052,0,0,0,0,.052-.026.052l.079-.079a.131.131,0,0,1-.026.079c.052-.136.052-.079.1-.136a.087.087,0,0,1-.052.079c-.026.1.1-.157.079-.052h0c.026-.026.026,0,0,.052h0s.052.026.136-.079l-.079.157.24-.372a2.924,2.924,0,0,1-.214.4h0s.052-.157.079-.157c-.052.1,0,.052-.052.157,0,0,.079-.184.1-.157l-.079.157.1-.136a.683.683,0,0,0-.079.184c0-.026,0,0,.026,0h0s.135-.24.157-.214c0,.026-.1.184-.1.214.052-.079.214-.372.267-.424h0s-.214.345-.267.424v.052a.05.05,0,0,1-.052.052h0v.052a1.167,1.167,0,0,0,.135-.157l-.079.079s.157-.24.157-.214a.691.691,0,0,1-.1.184c0-.026.052-.052.052-.026v.052h0s-.052.136,0,.079c.052-.1.214-.424.267-.5a.948.948,0,0,1-.052.157,1.478,1.478,0,0,1-.157.267s.026-.052.052-.052c0,0-.052.079-.026.079l.052-.079h0a1.935,1.935,0,0,1,.157-.214V43.1s-.026.052,0,.079a.086.086,0,0,1-.052.079v.052c.026-.052.052-.052.079-.079.052-.079,0,0-.026,0a1.115,1.115,0,0,1,.184-.267c.026,0-.026.079,0,.052,0,.026.135-.184.135-.079a1.255,1.255,0,0,1-.1.184c-.026,0,0-.052,0-.052h0s-.026.079-.026.052c-.026.079.052.052.026.1a.244.244,0,0,1,.052-.079h0a.468.468,0,0,0,.079-.1h0l-.306.17Z" transform="translate(-407.831 -27.364)" fill="#f2a5ba"/>
      <path id="_パス_1642" d="M434.064,44.206s.052-.079.026-.052C434.142,44.1,434.011,44.233,434.064,44.206Z" transform="translate(-411.04 -28.535)" fill="#f2a5ba"/>
      <path id="_パス_1643" d="M433.84,45.022v.026l.026-.079Z" transform="translate(-410.921 -29.001)" fill="#f2a5ba"/>
      <path id="_パス_1646" d="M433.47,44.746v.026l.026-.052h0Z" transform="translate(-410.713 -28.861)" fill="#f2a5ba"/>
      <path id="_パス_1648" d="M433.161,45.322a.28.28,0,0,0,.026-.052S433.134,45.322,433.161,45.322Z" transform="translate(-410.534 -29.17)" fill="#f2a5ba"/>
      <path id="_パス_1649" d="M432.93,44.606h0l.079-.136Z" transform="translate(-410.409 -28.72)" fill="#f2a5ba"/>
      <path id="_パス_1650" d="M432.192,45.2V45.15c-.026.026,0,0-.052.1,0,.052.052-.079.026-.026h0Z" transform="translate(-409.964 -29.103)" fill="#f2a5ba"/>
      <path id="_パス_1651" d="M428.216,42.162l-.026-.052v.052Z" transform="translate(-407.741 -27.392)" fill="#f2a5ba"/>
      <path id="_パス_1654" d="M430.526,44.679l.026-.079-.052.079Z" transform="translate(-409.041 -28.793)" fill="#f2a5ba"/>
      <path id="_パス_1658" d="M408.1,63.16v.026h.052S408.077,63.186,408.1,63.16Z" transform="translate(-396.432 -39.24)" fill="#f2a5ba"/>
      <path id="_パス_1703" d="M406.755,60.577H407c.052,0,.136,0,.079.026h.24c-.135,0,0-.026-.135,0h.114s.053-.026,0-.026h0s-.1-.052,0-.079h.053s.052,0,0-.026c.157,0,.026-.026.052-.052h-.079l-.053-.026h-.079a.05.05,0,0,0,.052-.052h0c.157,0-.1-.026,0-.052h-.184c.135,0,0-.052.135-.079h.052c-.052,0,.079,0-.052-.026h-.052s.052-.026-.053-.026h-.066s-.052,0,.052-.026H407c-.157,0,.1,0,.026-.026h-.052a.9.9,0,0,0,.24-.026h.052s-.184-.026-.079-.052h-.1s.157-.026,0-.026h-.1c.267-.026-.136-.026.1-.052h0a.173.173,0,0,0-.1-.052h.052c.052,0,.026-.026-.079-.026h.079s.136-.052.026-.052h.026c-.1,0,.214-.079-.079-.052h-.232s.079-.026.1,0h0c.157,0,.052-.026.157-.026,0-.026.079-.079.053-.136H406.9c.157-.026.052-.079.1-.079h-.157c.214,0,.079-.026.24-.052-.1,0-.026-.026-.157,0h.135c-.079,0,.052-.052,0-.079h.026s-.157,0-.052-.052h-.079s-.135-.079.105-.157h-.157l.1-.052h-.1l-.4.079c.136,0-.184.052,0,.052h-.026l-.079.079h0l.136-.026c-.157.026,0,.052-.157.079h.026s0,.052.079.052h.026s-.026,0,0,.026h0c-.135.026.135,0-.052.052.157,0,.079-.026.136-.026h.1s-.214.026-.214.052h-.079s-.079.052,0,.052a.356.356,0,0,0,.135-.026c.1,0-.184.026-.157.052h.079s.053,0,0,.026h0a.461.461,0,0,1-.1.026c-.026,0,.135,0,.079.026h.026s-.079.026,0,.026h-.2c.214,0,0,.026.24,0h.136s0,.026-.052.026h-.052c-.214,0,.052,0-.079.026h-.026a.475.475,0,0,0-.157.026.74.74,0,0,1,.24,0h-.026c-.026,0,0,0,.079.026h.1c.1,0-.157.026-.026.026h-.157s.293.052.345.052h-.24c.1,0-.052,0,0-.026h.026a.219.219,0,0,0-.1.026h.1s0,.052.135.052h.267s-.4.026-.45.026h-.184a1.323,1.323,0,0,0,.184.026h.5a.643.643,0,0,0-.184.026h-.052s-.052.026-.052.052H407c0,.026.24,0,.136.052h-.24c-.079,0,0,.052-.079.052h0l-.039.376Z" transform="translate(-395.403 -36.972)" fill="#f2a5ba"/>
      <path id="_パス_1710" d="M407.56,62.586l.079-.026h-.079Z" transform="translate(-396.129 -38.902)" fill="#f2a5ba"/>
      <path id="_パス_1724" d="M381.41,45.656l.026.026-.026-.052Z" transform="translate(-381.41 -29.373)" fill="#f2a5ba"/>
      <path id="_パス_1725" d="M381.54,45.57h0v.052s.026-.079.052-.052C381.54,45.465,381.592,45.57,381.54,45.57Z" transform="translate(-381.483 -29.313)" fill="#f2a5ba"/>
      <path id="_パス_1733" d="M382.08,45.966l.026.052a.131.131,0,0,0-.026-.079h0Z" transform="translate(-381.787 -29.547)" fill="#f2a5ba"/>
      <rect id="_長方形_160" height="0.079" transform="translate(0.175 16.283)" fill="#f2a5ba"/>
      <path id="_パス_1735" d="M382.226,46.076v.052l-.026-.079.026.026Z" transform="translate(-381.855 -29.609)" fill="#f2a5ba"/>
      <path id="_パス_1736" d="M382.32,46.05a.462.462,0,0,1,.026.1v-.079h-.026Z" transform="translate(-381.922 -29.609)" fill="#f2a5ba"/>
      <path id="_パス_1738" d="M382.08,45.87s0,.052.026.052V45.87Z" transform="translate(-381.787 -29.508)" fill="#f2a5ba"/>
      <path id="_パス_1741" d="M381.84,45.45a.737.737,0,0,1,.026.136A.288.288,0,0,0,381.84,45.45Z" transform="translate(-381.652 -29.272)" fill="#f2a5ba"/>
      <path id="_パス_1743" d="M382.226,45.836V45.81H382.2v.026Z" transform="translate(-381.855 -29.474)" fill="#f2a5ba"/>
      <path id="_パス_1750" d="M382.226,45.062l.026.052c-.026-.079,0-.1-.052-.214v.052a1.034,1.034,0,0,0,.136.319v-.079c0-.026-.052-.052-.052-.1h0l-.057-.026Z" transform="translate(-381.855 -28.962)" fill="#f2a5ba"/>
      <path id="_パス_1751" d="M382.39,45.75h0s0,.026.052.079V45.75Z" transform="translate(-381.962 -29.441)" fill="#f2a5ba"/>
      <path id="_パス_1752" d="M382.253,45.547a.253.253,0,0,0-.052-.157v.079a.112.112,0,0,0,.026.052h0v.052h0Z" transform="translate(-381.855 -29.238)" fill="#f2a5ba"/>
      <path id="_パス_1753" d="M381.84,45.262a.468.468,0,0,1,.052.1.337.337,0,0,0-.052-.157h0v.079h0Z" transform="translate(-381.652 -29.137)" fill="#f2a5ba"/>
      <path id="_パス_1755" d="M382.45,45.776l.026.052-.026-.079Z" transform="translate(-381.995 -29.441)" fill="#f2a5ba"/>
      <path id="_パス_1756" d="M382.51,45.75l.026.052v-.026l-.026-.026Z" transform="translate(-382.029 -29.44)" fill="#f2a5ba"/>
      <path id="_パス_1758" d="M384.02,45.27s.079.136.052.052V45.27Z" transform="translate(-382.879 -29.17)" fill="#f2a5ba"/>
      <path id="_パス_1761" d="M383.111,45.481s.013.026.026.026C383.137,45.481,383.084,45.429,383.111,45.481Z" transform="translate(-382.363 -29.277)" fill="#f2a5ba"/>
      <path id="_パス_1769" d="M383.78,43.564v.052l.079.184-.079-.24Z" transform="translate(-382.744 -28.208)" fill="#f2a5ba"/>
      <path id="_パス_1770" d="M385.341,42.461s-.1-.24-.157-.372c.026.136-.1-.157-.052,0v-.026h0a.725.725,0,0,1-.135-.052h0c.026.1.026,0,.052.1-.052-.136-.079,0-.135-.136,0,0,.026.079,0,.079h0s-.053-.052-.053-.079h-.026a.132.132,0,0,0-.1.136h0s-.026,0-.053.052h0v.052c0-.026-.052-.079-.052-.1a.642.642,0,0,0,.026.184v.052c0-.052-.052-.079-.052-.136-.079-.1,0,.136-.079-.026.052.157.052.079.052.1,0,.052.026.1,0,.1,0,0-.079-.184-.1-.157h0s0,.052-.026,0c.026.079,0,0,0,.1h0s.026.136,0,.079v-.074h0c-.052-.1,0-.026,0-.136,0-.052,0,.079-.026-.026.052.157-.026,0,0,.1h0l-.052-.079s-.052-.052-.052,0c.026,0,.052.079.079.136,0,.1-.079-.157-.1-.1l.052.052-.052-.052a.464.464,0,0,1,.026.1c-.052-.079,0,.026,0,.079v-.079h-.026V42.3s-.026.052-.052.026c0,.052.052.136.026.136,0-.026,0-.052-.026-.052,0-.052-.026-.1,0-.026V42.33h-.052v.079a.731.731,0,0,1-.052-.136v.079s-.052-.052-.052-.079c-.026-.026,0,.136-.026.079h0s-.079-.026-.052.052l-.052-.1s.079.1.052.157c0,.026-.052-.079-.052-.1,0,.052.026.157,0,.079h0v-.048a.381.381,0,0,0-.079-.136c.079.184-.052.052.026.24h-.026v-.048s.052.136,0,.136a.118.118,0,0,1-.026-.052v.052h-.026v.079s-.026-.1,0-.1c-.1-.184,0,.052-.079-.052h0c-.052-.136-.052-.079-.1-.157,0,.026.1.157.1.214h0c-.026-.079-.026-.052-.026-.052v.026a1.273,1.273,0,0,1-.079-.136.729.729,0,0,1,.052.136q-.039-.039,0,.079a.089.089,0,0,0-.022-.079v.079h0a.278.278,0,0,1,.026.079c.026.1-.079-.136-.052,0a.131.131,0,0,0-.026-.079v.157l-.052-.052s.052.157.079.214l.052.079v.052a.131.131,0,0,0-.026-.079h0l-.052-.1v.052a.476.476,0,0,0-.026-.157h0l-.057-.079h0v.319c0-.079-.052-.136-.079-.214.052.079,0-.052.026-.026l-.026-.052v.1a.09.09,0,0,0-.057-.079c.053.136,0,.1,0,.157,0-.052-.026-.1,0-.079-.052-.1.053.184,0,.079h0c0,.052,0,0-.026,0h0s-.079,0-.026.136l-.053-.157.1.424a3.126,3.126,0,0,1-.157-.4h0a1.309,1.309,0,0,1,.079.157l-.079-.157s.079.184.052.184a1.156,1.156,0,0,0-.079-.184l.052.157s-.052-.136-.079-.184h0s.052.267.026.267c0-.026-.079-.214-.1-.214,0,.079.135.4.135.476h0s-.135-.4-.157-.5c0-.026,0-.052-.026-.052v-.083H383a.283.283,0,0,0,.052.157v-.1s.079.267.053.267a.98.98,0,0,0-.079-.214h0s0,.136-.026.052c0,0-.052-.1-.052-.052.052.1.184.45.214.529,0,0-.079-.1-.1-.136-.052-.079-.052-.214-.1-.267v.079s-.026-.079-.026-.052c.026.1-.026,0,0,.079,0,.026,0,0-.026,0,.026.052.079.214.052.24a.131.131,0,0,0-.026-.079c-.026,0-.052-.052-.079-.026a.25.25,0,0,0-.052-.079v.052l-.026-.1v.136c.026.079.026,0,.026-.026a.817.817,0,0,1,.079.319c0,.026-.026-.079-.026-.052-.052,0,.052.214,0,.136a.972.972,0,0,1-.079-.214c0-.026.052.052.052.026h-.026v-.057c-.026-.052-.079,0-.136-.052V43.4h0s0,.079.026.1h0c0,.052-.079-.1-.026,0v.052s.052.136.026.136c.026.079,0,0,.052.079-.052-.136.052,0,0-.136a.689.689,0,0,0,.079.136V43.72h0v-.192a.724.724,0,0,1,.053.136h0s.052.052.052,0h0v-.057h0s0-.1.079,0v.026s.079.052.052,0c.079.136.053,0,.1.026v-.184s.039.013.052,0h0c.079.136,0-.136.079-.026h.052l-.026-.052v-.052s0-.052.053.079a.644.644,0,0,0-.026-.184h0v-.026a1.059,1.059,0,0,1,.079.157v-.1s0-.079.026-.026c.052.1.079,0,.157.079-.079-.157.052.052,0-.052,0,.026.026.052.052.1,0-.052.052.052.026-.052a.1.1,0,0,0,.026.079h0v.052a1.188,1.188,0,0,0-.079-.24c.026.052.026.026,0-.026,0,.026.052.079.026.079,0,0,.079.026.026-.052h.026v-.052h0s0-.026.079.052v-.052c-.079-.136.026.079.026,0h0s.1.157.135.157v.026c.052.079-.026-.079,0-.1a.366.366,0,0,0,.052.136c0,.026-.026-.157.026-.079a.217.217,0,0,0-.052-.1s.1.136.052,0h0v-.109c.1.24,0-.136.1.079h.026V43.1c.052.026.052,0,.026-.1v.079s.135.079.1,0h0s.157.184.053-.052v-.079l-.079-.157s.052.052.052.079h0s.052,0,.079.1c.052-.026.135,0,.184,0l-.052-.1h0s.026.079,0,.079c.026.052,0-.052,0-.079.052.026.026.136.052.136h0v-.109l.026.052h.026l-.052-.079v-.079c.079.136.1,0,.135.052v-.079s-.052-.1-.026-.1c.079.184.052.079.135.214-.052-.079.026-.026-.026-.157a.394.394,0,0,0,.052.1c0-.079.079,0,.1,0a.233.233,0,0,1-.026-.1l.079.1s-.052-.136,0-.052v-.052s.079-.157.24.052c-.026-.052,0-.052,0-.052h0s.052,0,.026-.1h0l.074-.131Z" transform="translate(-382.102 -27.319)" fill="#f2a5ba"/>
      <path id="_パス_1774" d="M382.416,45.315s0-.026-.026,0Z" transform="translate(-381.962 -29.189)" fill="#f2a5ba"/>
      <path id="_パス_1777" d="M382.32,44.926V44.9l.026.079Z" transform="translate(-381.922 -28.962)" fill="#f2a5ba"/>
      <path id="_パス_1783" d="M383.23,44.54h0l.052.136Z" transform="translate(-382.435 -28.759)" fill="#f2a5ba"/>
      <path id="_パス_1784" d="M383.35,43.617a.112.112,0,0,0,.026.052c0-.026,0,0-.026-.1C383.324,43.538,383.376,43.643,383.35,43.617Z" transform="translate(-382.498 -28.208)" fill="#f2a5ba"/>
      <path id="_パス_1785" d="M388.94,43.45l.026.026Z" transform="translate(-385.648 -28.146)" fill="#f2a5ba"/>
      <path id="_パス_1788" d="M385.18,42.78h0l.052.079Z" transform="translate(-383.532 -27.769)" fill="#f2a5ba"/>
    </g>
    <path id="Path_2067" data-name="Path 2067" d="M3.669-3l-1.1.083L1.8-2.848l-.4.032a.115.115,0,0,1-.093-.064A.225.225,0,0,1,1.27-3,.08.08,0,0,1,1.3-3.069.181.181,0,0,1,1.363-3.1a.3.3,0,0,0,.048-.016q.006-.346.006-1.617a10.928,10.928,0,0,0-.074-1.453Q1.27-6.7,1.27-6.742a.168.168,0,0,1,.067-.141.226.226,0,0,1,.138-.051.083.083,0,0,1,.071.035.272.272,0,0,1,.038.112,4.224,4.224,0,0,1,.1.8q.035.584.035,1.219,0,.539-.006,1t-.006.622l.321-.022L2.515-3.2q.372-.045.84-.135a4,4,0,0,1,.456-.071.084.084,0,0,1,.09.064.54.54,0,0,1,.019.154.157.157,0,0,1-.074.135A.34.34,0,0,1,3.669-3ZM9.508-4.253a1.787,1.787,0,0,1-.17.507,2.278,2.278,0,0,1-.513.725,1.164,1.164,0,0,1-.844.334.969.969,0,0,1-.686-.257,1.029,1.029,0,0,1-.276-.789,2.308,2.308,0,0,1,.231-.991,2.306,2.306,0,0,1,.6-.8,1.19,1.19,0,0,1,.77-.311.723.723,0,0,1,.4.106.341.341,0,0,1,.164.3.586.586,0,0,1-.253.436,2.4,2.4,0,0,1-.658.372,4.021,4.021,0,0,1-.834.231,2.282,2.282,0,0,0-.077.577.859.859,0,0,0,.176.577.628.628,0,0,0,.5.205,1.014,1.014,0,0,0,.8-.353,3.337,3.337,0,0,0,.513-.8q.013-.026.045-.1t.058-.074Q9.508-4.349,9.508-4.253ZM8.545-5.575a.8.8,0,0,0-.468.16,1.493,1.493,0,0,0-.375.385,1.353,1.353,0,0,0-.2.4A2.292,2.292,0,0,0,8.128-4.8a2.664,2.664,0,0,0,.549-.3q.221-.16.221-.263a.177.177,0,0,0-.106-.16A.508.508,0,0,0,8.545-5.575Zm6.448.462L14.332-5l-.417.071q0,.334.01.7t.029.642a2.528,2.528,0,0,0,.09.571q.064.2.071.225a.15.15,0,0,1-.08.119.272.272,0,0,1-.151.055.094.094,0,0,1-.064-.022.182.182,0,0,1-.045-.074,1.532,1.532,0,0,1-.074-.334q-.035-.244-.055-.539-.019-.263-.029-.613t-.01-.677q-.359.058-.738.141a3.361,3.361,0,0,1-.4.071.256.256,0,0,1-.144-.045.14.14,0,0,1-.067-.122.107.107,0,0,1,.058-.109.515.515,0,0,1,.192-.026A1.652,1.652,0,0,0,12.786-5q.186-.035.237-.048.43-.083.584-.109,0-.135-.013-.353-.013-.3-.013-.449a3.579,3.579,0,0,1,.016-.388.929.929,0,0,1,.061-.247.19.19,0,0,1,.192-.128.111.111,0,0,1,.077.019.1.1,0,0,1,.019.071,2.1,2.1,0,0,1-.032.225,3.031,3.031,0,0,0-.032.494q0,.237.013.533l.006.173q.289-.045,1.142-.237a.143.143,0,0,0,.087-.09q.035-.077.074-.077a.2.2,0,0,1,.144.08.242.242,0,0,1,.074.164.185.185,0,0,1-.093.167A.925.925,0,0,1,14.993-5.113Zm3.766-.821a.17.17,0,0,1-.083.026.131.131,0,0,1-.109-.064,1.5,1.5,0,0,1-.026-.4l-.013-.391a2.913,2.913,0,0,0-.045-.321,2.361,2.361,0,0,1-.038-.308q0-.09.038-.115a.174.174,0,0,1,.083-.013.356.356,0,0,1,.135.029.187.187,0,0,1,.1.074,1.2,1.2,0,0,1,.058.3,4.271,4.271,0,0,1,.026.478,3.045,3.045,0,0,1-.032.472Q18.817-5.966,18.759-5.934ZM22.949-2.5a.9.9,0,0,1-.372-.051.156.156,0,0,1-.1-.141q0-.058.148-.2t.2-.144q.077,0,.077.032a.07.07,0,0,1-.032.051q-.032.026-.032.045t.08.051a.648.648,0,0,0,.2.026,1.574,1.574,0,0,0,.542-.1,1.306,1.306,0,0,0,.446-.26.464.464,0,0,0,.173-.34.361.361,0,0,0-.109-.276.663.663,0,0,0-.273-.151q-.164-.048-.549-.138-.423-.1-.658-.17a1.16,1.16,0,0,1-.375-.186.349.349,0,0,1-.141-.286.739.739,0,0,1,.3-.565,2.324,2.324,0,0,1,.693-.4,1.874,1.874,0,0,1,.6-.148q.218,0,.218.128a.358.358,0,0,1-.051.17.166.166,0,0,1-.154.093.157.157,0,0,1-.083-.029.165.165,0,0,0-.09-.029,1.586,1.586,0,0,0-.4.083,1.617,1.617,0,0,0-.5.25.491.491,0,0,0-.225.4.243.243,0,0,0,.176.228,4.655,4.655,0,0,0,.658.183.76.76,0,0,0,.115.029.937.937,0,0,1,.1.022,2.99,2.99,0,0,1,.757.263.477.477,0,0,1,.263.443.816.816,0,0,1-.228.542,1.619,1.619,0,0,1-.6.417A1.975,1.975,0,0,1,22.949-2.5Zm9.476-.25q-.077,0-.144-.183a1.709,1.709,0,0,1-.067-.555q.006-.725.022-1.751t.029-1.546a1.073,1.073,0,0,1,.067-.346.218.218,0,0,1,.215-.16.066.066,0,0,1,.067.055.879.879,0,0,1,.016.209s0,.018,0,.042,0,.065,0,.125q-.115,1.687-.115,3.291a1.17,1.17,0,0,0,.093.436q.093.231.093.244,0,.064-.083.1A.439.439,0,0,1,32.425-2.745Zm3.708-3.888a.356.356,0,0,1-.221-.09q-.112-.09-.112-.148a.187.187,0,0,1,.067-.135A.2.2,0,0,1,36-7.07l.048.016a.3.3,0,0,1,.112.087,1.4,1.4,0,0,1,.115.135.315.315,0,0,1,.064.1Q36.345-6.633,36.133-6.633Zm.192,4.068q-.09-.006-.132-.289t-.087-1.071q-.026-.52-.045-1.017t-.026-.767a.2.2,0,0,1,.022-.106.1.1,0,0,1,.087-.035.173.173,0,0,1,.186.122,1.846,1.846,0,0,1,.038.468l-.006.757q0,.648.038,1.039,0,.019.058.411a2.756,2.756,0,0,1,.045.359.112.112,0,0,1-.055.1A.192.192,0,0,1,36.326-2.566Zm6.518-3.227a3.855,3.855,0,0,0-.622,1.084,8.487,8.487,0,0,0-.456,1.527q-.019.1-.064.385l-.032.225a.268.268,0,0,1-.087.16.364.364,0,0,1-.234.058,1.4,1.4,0,0,1-.218-.388q-.186-.388-.391-.837l-.276-.6q-.25-.545-.417-.853T39.8-5.344a.048.048,0,0,0-.042.032q-.016.032-.035.032a.067.067,0,0,1-.055-.029.1.1,0,0,1-.022-.061.425.425,0,0,1,.093-.218q.093-.135.183-.135a.152.152,0,0,1,.1.026.369.369,0,0,1,.058.058q.026.032.038.051a6.433,6.433,0,0,1,.533,1.014q.135.289.667,1.508l.148.34a3.6,3.6,0,0,1,.064-.539,8.748,8.748,0,0,1,.423-1.5,4.988,4.988,0,0,1,.661-1.245.981.981,0,0,1,.125-.144.184.184,0,0,1,.125-.042q.032,0,.1.1a.336.336,0,0,1,.071.132q0,.032-.087.09A.513.513,0,0,0,42.844-5.793Zm5.511,1.54a1.787,1.787,0,0,1-.17.507,2.277,2.277,0,0,1-.513.725,1.164,1.164,0,0,1-.844.334.969.969,0,0,1-.686-.257,1.029,1.029,0,0,1-.276-.789,2.308,2.308,0,0,1,.231-.991,2.306,2.306,0,0,1,.6-.8,1.19,1.19,0,0,1,.77-.311.723.723,0,0,1,.4.106.341.341,0,0,1,.164.3.586.586,0,0,1-.253.436,2.4,2.4,0,0,1-.658.372,4.021,4.021,0,0,1-.834.231,2.282,2.282,0,0,0-.077.577.859.859,0,0,0,.176.577.628.628,0,0,0,.5.205,1.014,1.014,0,0,0,.8-.353,3.337,3.337,0,0,0,.513-.8q.013-.026.045-.1t.058-.074Q48.355-4.349,48.355-4.253Zm-.962-1.322a.8.8,0,0,0-.468.16,1.493,1.493,0,0,0-.375.385,1.353,1.353,0,0,0-.2.4,2.292,2.292,0,0,0,.622-.167,2.664,2.664,0,0,0,.549-.3q.221-.16.221-.263a.177.177,0,0,0-.106-.16A.508.508,0,0,0,47.393-5.575Zm8.8,2.829q-.077,0-.144-.183a1.71,1.71,0,0,1-.067-.555q.006-.725.022-1.751t.029-1.546a1.073,1.073,0,0,1,.067-.346.218.218,0,0,1,.215-.16.066.066,0,0,1,.067.055.878.878,0,0,1,.016.209s0,.018,0,.042,0,.065,0,.125q-.115,1.687-.115,3.291a1.17,1.17,0,0,0,.093.436q.093.231.093.244,0,.064-.083.1A.439.439,0,0,1,56.189-2.745ZM59.9-6.633a.356.356,0,0,1-.221-.09q-.112-.09-.112-.148a.187.187,0,0,1,.067-.135.2.2,0,0,1,.138-.064l.048.016a.3.3,0,0,1,.112.087,1.4,1.4,0,0,1,.115.135.314.314,0,0,1,.064.1Q60.109-6.633,59.9-6.633Zm.192,4.068q-.09-.006-.132-.289t-.087-1.071q-.026-.52-.045-1.017T59.8-5.709a.2.2,0,0,1,.022-.106.1.1,0,0,1,.087-.035.173.173,0,0,1,.186.122,1.846,1.846,0,0,1,.038.468l-.006.757q0,.648.038,1.039,0,.019.058.411a2.756,2.756,0,0,1,.045.359.112.112,0,0,1-.055.1A.192.192,0,0,1,60.089-2.566Zm6.23-2.624a.188.188,0,0,1-.115-.055.194.194,0,0,0-.09-.055,1.264,1.264,0,0,0-.552.237,8.092,8.092,0,0,0-.776.558,6.3,6.3,0,0,0-.609.545l.006.115q.488.225,1.084.481a4.978,4.978,0,0,0,.828.3q.09.013.18.019t.128.006a.6.6,0,0,1,.1.006q.038.006.039.026,0,.077-.119.154a.662.662,0,0,1-.356.077,1.561,1.561,0,0,1-.574-.157q-.362-.157-.856-.414l-.4-.2q.083.815.083.9a.133.133,0,0,1-.071.115.281.281,0,0,1-.154.045q-.051,0-.083-.154t-.077-.609l-.045-.391a.391.391,0,0,1-.135-.093.173.173,0,0,1-.058-.112q0-.077.128-.18-.006-.346-.035-.988t-.042-.937l-.032-.892a.936.936,0,0,1,.045-.308.188.188,0,0,1,.2-.128.1.1,0,0,1,.077.022.139.139,0,0,1,.019.087q0,.3.042,1.37t.067,1.53q1.431-1.36,2.092-1.36a.491.491,0,0,1,.228.048q.093.048.093.1a.3.3,0,0,1-.087.189A.234.234,0,0,1,66.319-5.19Zm5.473.937a1.787,1.787,0,0,1-.17.507,2.277,2.277,0,0,1-.513.725,1.164,1.164,0,0,1-.844.334.969.969,0,0,1-.686-.257,1.029,1.029,0,0,1-.276-.789,2.308,2.308,0,0,1,.231-.991,2.306,2.306,0,0,1,.6-.8,1.19,1.19,0,0,1,.77-.311.723.723,0,0,1,.4.106.341.341,0,0,1,.164.3.586.586,0,0,1-.253.436,2.4,2.4,0,0,1-.658.372,4.021,4.021,0,0,1-.834.231,2.282,2.282,0,0,0-.077.577.859.859,0,0,0,.176.577.628.628,0,0,0,.5.205,1.014,1.014,0,0,0,.8-.353,3.338,3.338,0,0,0,.513-.8q.013-.026.045-.1t.058-.074Q71.792-4.349,71.792-4.253Zm-.962-1.322a.8.8,0,0,0-.468.16,1.493,1.493,0,0,0-.375.385,1.353,1.353,0,0,0-.2.4,2.292,2.292,0,0,0,.622-.167,2.664,2.664,0,0,0,.549-.3q.221-.16.221-.263a.177.177,0,0,0-.106-.16A.508.508,0,0,0,70.829-5.575ZM80.01-2.668a.8.8,0,0,1-.635-.237.87.87,0,0,1-.205-.59,3.3,3.3,0,0,1,.112-.763,3.155,3.155,0,0,1,.318-.815q.013-.026.106-.189a.8.8,0,0,1,.209-.25.4.4,0,0,1,.244-.087.2.2,0,0,1,.106.029.085.085,0,0,1,.048.074.172.172,0,0,1-.035.061l-.055.074a3.02,3.02,0,0,0-.353.52,3.506,3.506,0,0,0-.279.648,2.352,2.352,0,0,0-.1.7q0,.507.616.507a.938.938,0,0,0,.536-.167,1.325,1.325,0,0,0,.395-.407A.857.857,0,0,0,81.184-4a.572.572,0,0,0-.148-.391,2.5,2.5,0,0,0-.4-.353,2.2,2.2,0,0,1-.244-.2.21.21,0,0,1-.077-.128q0-.077.109-.125a.632.632,0,0,1,.257-.048.384.384,0,0,1,.109.01.035.035,0,0,1,.026.035.088.088,0,0,1-.022.042.086.086,0,0,0-.022.048q0,.019.128.128a2.911,2.911,0,0,1,.43.43.8.8,0,0,1,.173.513,1.2,1.2,0,0,1-.186.577,1.7,1.7,0,0,1-.526.561A1.336,1.336,0,0,1,80.01-2.668Zm7.032.064q-.128,0-.234-.269a2,2,0,0,1-.131-.558q-.026-.276-.038-1.116-.006-.135-.006-.273t-.006-.234a9.65,9.65,0,0,1-.507,1.007,7.384,7.384,0,0,1-.645.969q-.324.4-.529.4a.275.275,0,0,1-.279-.225,2.709,2.709,0,0,1-.067-.712,5.189,5.189,0,0,1,.119-1.033,3.614,3.614,0,0,1,.273-.879.786.786,0,0,1,.109-.183.137.137,0,0,1,.1-.048q.16,0,.16.064a.459.459,0,0,1-.064.148,3.854,3.854,0,0,0-.3.77,4.547,4.547,0,0,0-.128,1.206q0,.507.141.507.167,0,.452-.369a6.8,6.8,0,0,0,.568-.882,7.736,7.736,0,0,0,.43-.892,3.087,3.087,0,0,0,.115-.4.876.876,0,0,1,.038-.157q.019-.048.045-.048a.277.277,0,0,1,.154.058.157.157,0,0,1,.083.122q0,.308.022,1.055t.055,1.036a1.22,1.22,0,0,0,.093.391,1.158,1.158,0,0,0,.132.221.3.3,0,0,1,.064.1.217.217,0,0,1-.058.16A.217.217,0,0,1,87.042-2.6Zm5.293-2.6a.127.127,0,0,1-.087-.038.752.752,0,0,1-.093-.109.389.389,0,0,0-.119-.109.287.287,0,0,0-.151-.045q-.186,0-.5.491a7.611,7.611,0,0,0-.616,1.235q.006.148.022.372t.022.334l.019.257a.311.311,0,0,1-.038.157.148.148,0,0,1-.141.067q-.109,0-.141-.292t-.039-.85q-.006-.141-.01-.4t-.016-.629q-.019-.552-.019-.789,0-.148.18-.148a.119.119,0,0,1,.132.093,1.822,1.822,0,0,1,.022.356v1.02a5.119,5.119,0,0,1,.417-.853,2.488,2.488,0,0,1,.439-.549A.618.618,0,0,1,92-5.831a.6.6,0,0,1,.269.064.585.585,0,0,1,.205.164.314.314,0,0,1,.077.189.2.2,0,0,1-.08.132A.225.225,0,0,1,92.335-5.209ZM96.281-2.5a.9.9,0,0,1-.372-.051.156.156,0,0,1-.1-.141q0-.058.148-.2t.2-.144q.077,0,.077.032a.07.07,0,0,1-.032.051q-.032.026-.032.045t.08.051a.648.648,0,0,0,.2.026,1.574,1.574,0,0,0,.542-.1,1.306,1.306,0,0,0,.446-.26.464.464,0,0,0,.173-.34A.361.361,0,0,0,97.5-3.8a.663.663,0,0,0-.273-.151q-.164-.048-.549-.138-.423-.1-.658-.17a1.16,1.16,0,0,1-.375-.186.349.349,0,0,1-.141-.286.739.739,0,0,1,.3-.565,2.324,2.324,0,0,1,.693-.4,1.874,1.874,0,0,1,.6-.148q.218,0,.218.128a.358.358,0,0,1-.051.17.166.166,0,0,1-.154.093.157.157,0,0,1-.083-.029.165.165,0,0,0-.09-.029,1.587,1.587,0,0,0-.4.083,1.617,1.617,0,0,0-.5.25.491.491,0,0,0-.225.4.243.243,0,0,0,.176.228,4.656,4.656,0,0,0,.658.183.761.761,0,0,0,.115.029.938.938,0,0,1,.1.022,2.99,2.99,0,0,1,.757.263.477.477,0,0,1,.263.443.816.816,0,0,1-.228.542,1.619,1.619,0,0,1-.6.417A1.975,1.975,0,0,1,96.281-2.5Zm7.186-1.758a1.786,1.786,0,0,1-.17.507,2.278,2.278,0,0,1-.513.725,1.164,1.164,0,0,1-.844.334.969.969,0,0,1-.686-.257,1.029,1.029,0,0,1-.276-.789,2.308,2.308,0,0,1,.231-.991,2.306,2.306,0,0,1,.6-.8,1.19,1.19,0,0,1,.77-.311.723.723,0,0,1,.4.106.341.341,0,0,1,.164.3.586.586,0,0,1-.253.436,2.4,2.4,0,0,1-.658.372,4.021,4.021,0,0,1-.834.231,2.282,2.282,0,0,0-.077.577.859.859,0,0,0,.176.577.628.628,0,0,0,.5.205,1.014,1.014,0,0,0,.8-.353,3.337,3.337,0,0,0,.513-.8q.013-.026.045-.1t.058-.074Q103.466-4.349,103.466-4.253ZM102.5-5.575a.8.8,0,0,0-.468.16,1.492,1.492,0,0,0-.375.385,1.353,1.353,0,0,0-.2.4,2.292,2.292,0,0,0,.622-.167,2.664,2.664,0,0,0,.549-.3q.221-.16.221-.263a.177.177,0,0,0-.106-.16A.508.508,0,0,0,102.5-5.575Zm4.388,2.829q-.077,0-.144-.183a1.709,1.709,0,0,1-.067-.555q.006-.725.022-1.751t.029-1.546a1.072,1.072,0,0,1,.067-.346.218.218,0,0,1,.215-.16.066.066,0,0,1,.067.055.879.879,0,0,1,.016.209s0,.018,0,.042,0,.065,0,.125q-.115,1.687-.115,3.291a1.17,1.17,0,0,0,.093.436q.093.231.093.244,0,.064-.083.1A.439.439,0,0,1,106.892-2.745Zm6.454-3.047a3.855,3.855,0,0,0-.622,1.084,8.488,8.488,0,0,0-.456,1.527q-.019.1-.064.385l-.032.225a.268.268,0,0,1-.087.16.364.364,0,0,1-.234.058,1.4,1.4,0,0,1-.218-.388q-.186-.388-.391-.837l-.276-.6q-.25-.545-.417-.853t-.244-.308a.048.048,0,0,0-.042.032q-.016.032-.035.032a.067.067,0,0,1-.055-.029.1.1,0,0,1-.022-.061.425.425,0,0,1,.093-.218q.093-.135.183-.135a.152.152,0,0,1,.1.026.369.369,0,0,1,.058.058q.026.032.038.051a6.431,6.431,0,0,1,.533,1.014q.135.289.667,1.508l.148.34a3.6,3.6,0,0,1,.064-.539,8.745,8.745,0,0,1,.423-1.5,4.989,4.989,0,0,1,.661-1.245.981.981,0,0,1,.125-.144.184.184,0,0,1,.125-.042q.032,0,.1.1a.336.336,0,0,1,.071.132q0,.032-.087.09A.513.513,0,0,0,113.346-5.793Zm5.511,1.54a1.786,1.786,0,0,1-.17.507,2.278,2.278,0,0,1-.513.725,1.164,1.164,0,0,1-.844.334.969.969,0,0,1-.686-.257,1.029,1.029,0,0,1-.276-.789,2.308,2.308,0,0,1,.231-.991,2.306,2.306,0,0,1,.6-.8,1.19,1.19,0,0,1,.77-.311.723.723,0,0,1,.4.106.341.341,0,0,1,.164.3.586.586,0,0,1-.253.436,2.4,2.4,0,0,1-.658.372,4.02,4.02,0,0,1-.834.231,2.283,2.283,0,0,0-.077.577.859.859,0,0,0,.176.577.628.628,0,0,0,.5.205,1.014,1.014,0,0,0,.8-.353,3.338,3.338,0,0,0,.513-.8q.013-.026.045-.1t.058-.074Q118.857-4.349,118.857-4.253ZM117.9-5.575a.794.794,0,0,0-.468.16,1.493,1.493,0,0,0-.375.385,1.352,1.352,0,0,0-.2.4,2.292,2.292,0,0,0,.622-.167,2.664,2.664,0,0,0,.549-.3q.221-.16.221-.263a.177.177,0,0,0-.106-.16A.508.508,0,0,0,117.9-5.575Zm4.741,3.08a.9.9,0,0,1-.372-.051.156.156,0,0,1-.1-.141q0-.058.148-.2t.2-.144q.077,0,.077.032a.07.07,0,0,1-.032.051q-.032.026-.032.045t.08.051a.648.648,0,0,0,.2.026,1.574,1.574,0,0,0,.542-.1,1.306,1.306,0,0,0,.446-.26.464.464,0,0,0,.173-.34.361.361,0,0,0-.109-.276.663.663,0,0,0-.273-.151q-.164-.048-.549-.138-.423-.1-.658-.17A1.16,1.16,0,0,1,122-4.449a.35.35,0,0,1-.141-.286.738.738,0,0,1,.3-.565,2.324,2.324,0,0,1,.693-.4,1.874,1.874,0,0,1,.6-.148q.218,0,.218.128a.358.358,0,0,1-.051.17.166.166,0,0,1-.154.093.157.157,0,0,1-.083-.029.165.165,0,0,0-.09-.029,1.586,1.586,0,0,0-.4.083,1.616,1.616,0,0,0-.5.25.491.491,0,0,0-.225.4.243.243,0,0,0,.176.228,4.656,4.656,0,0,0,.658.183.761.761,0,0,0,.115.029.939.939,0,0,1,.1.022,2.99,2.99,0,0,1,.757.263.477.477,0,0,1,.263.443.815.815,0,0,1-.228.542,1.619,1.619,0,0,1-.6.417A1.975,1.975,0,0,1,122.636-2.5Zm11.535-2.618L133.511-5l-.417.071q0,.334.01.7t.029.642a2.528,2.528,0,0,0,.09.571q.064.2.071.225a.15.15,0,0,1-.08.119.272.272,0,0,1-.151.055A.094.094,0,0,1,133-2.64a.182.182,0,0,1-.045-.074,1.533,1.533,0,0,1-.074-.334q-.035-.244-.055-.539-.019-.263-.029-.613t-.01-.677q-.359.058-.738.141a3.362,3.362,0,0,1-.4.071.255.255,0,0,1-.144-.045.14.14,0,0,1-.067-.122.107.107,0,0,1,.058-.109.515.515,0,0,1,.192-.026A1.653,1.653,0,0,0,131.965-5q.186-.035.237-.048.43-.083.584-.109,0-.135-.013-.353-.013-.3-.013-.449a3.588,3.588,0,0,1,.016-.388.929.929,0,0,1,.061-.247.19.19,0,0,1,.192-.128.111.111,0,0,1,.077.019.1.1,0,0,1,.019.071,2.106,2.106,0,0,1-.032.225,3.03,3.03,0,0,0-.032.494q0,.237.013.533l.006.173q.289-.045,1.142-.237a.143.143,0,0,0,.087-.09q.035-.077.074-.077a.2.2,0,0,1,.144.08.242.242,0,0,1,.074.164.185.185,0,0,1-.093.167A.925.925,0,0,1,134.172-5.113Zm4.061,2.444a.8.8,0,0,1-.635-.237.87.87,0,0,1-.205-.59,3.3,3.3,0,0,1,.112-.763,3.156,3.156,0,0,1,.318-.815q.013-.026.106-.189a.8.8,0,0,1,.209-.25.4.4,0,0,1,.244-.087.2.2,0,0,1,.106.029.085.085,0,0,1,.048.074.172.172,0,0,1-.035.061l-.055.074a3.021,3.021,0,0,0-.353.52,3.507,3.507,0,0,0-.279.648,2.352,2.352,0,0,0-.1.7q0,.507.616.507a.938.938,0,0,0,.536-.167,1.325,1.325,0,0,0,.395-.407A.857.857,0,0,0,139.407-4a.572.572,0,0,0-.148-.391,2.5,2.5,0,0,0-.4-.353,2.2,2.2,0,0,1-.244-.2.21.21,0,0,1-.077-.128q0-.077.109-.125a.632.632,0,0,1,.257-.048.384.384,0,0,1,.109.01.035.035,0,0,1,.026.035.087.087,0,0,1-.022.042.086.086,0,0,0-.022.048q0,.019.128.128a2.912,2.912,0,0,1,.43.43.8.8,0,0,1,.173.513,1.2,1.2,0,0,1-.186.577,1.7,1.7,0,0,1-.526.561A1.336,1.336,0,0,1,138.233-2.668ZM145.1-7.1q0,.128-.013.5t-.013.754q0,.731.032,1.492t.051,1a.593.593,0,0,0,.006.083q.006.045.013.083.026.18.026.218,0,.064-.093.122a.31.31,0,0,1-.144.058.09.09,0,0,1-.093-.055A.407.407,0,0,1,144.854-3q0-.353.019-.738l.006-.359q0-.18-.006-.472t-.019-.491a8.062,8.062,0,0,1-.741,1.742q-.414.69-.895.69a.446.446,0,0,1-.369-.205.986.986,0,0,1-.151-.59,2.241,2.241,0,0,1,.343-1.1,4.707,4.707,0,0,1,.783-1.027q.439-.43.651-.43t.205.135a.47.47,0,0,1-.061.209,1.41,1.41,0,0,1-.135.215q-.074.1-.087.1a.058.058,0,0,1-.029-.01.027.027,0,0,1-.016-.022.341.341,0,0,1,.032-.109.351.351,0,0,0,.032-.1.11.11,0,0,0-.006-.045q-.006-.013-.038-.013-.135,0-.484.369a4.143,4.143,0,0,0-.626.876,1.991,1.991,0,0,0-.276.943.663.663,0,0,0,.064.289.219.219,0,0,0,.212.135q.468,0,.869-.792a10.563,10.563,0,0,0,.7-1.8l-.013-.539q-.019-.712-.019-.757a3.3,3.3,0,0,1,.032-.552.291.291,0,0,1,.029-.09.074.074,0,0,1,.067-.026.234.234,0,0,1,.128.042.128.128,0,0,1,.064.112Zm6.069,4.151a.337.337,0,0,1-.064.176q-.064.1-.128.1-.109,0-.167-.135a.793.793,0,0,1-.058-.314q0-.154.019-.924l.006-.244a.261.261,0,0,0-.077-.212q-.289.488-.539.847a3.411,3.411,0,0,1-.635.677,1.254,1.254,0,0,1-.808.318.4.4,0,0,1-.318-.128.488.488,0,0,1-.112-.334,1.678,1.678,0,0,1,.231-.7,5.813,5.813,0,0,1,.59-.9,4.8,4.8,0,0,1,.719-.754,2.113,2.113,0,0,1,.379-.26.594.594,0,0,1,.25-.067.417.417,0,0,1,.212.064.572.572,0,0,1,.186.18.463.463,0,0,1,.077.263.718.718,0,0,1-.109.379l.109-.032q.071,0,.083.173.006.1.016.417t.016.52q.006.212.013.411t.013.314a.178.178,0,0,0,.051.093A.134.134,0,0,1,151.174-2.951Zm-.558-1.8a1.113,1.113,0,0,0,.077-.417.362.362,0,0,0-.08-.234.262.262,0,0,0-.215-.1.711.711,0,0,0-.411.218,4.485,4.485,0,0,0-.609.651,5.445,5.445,0,0,0-.533.805,1.469,1.469,0,0,0-.212.629q0,.192.18.192a1.056,1.056,0,0,0,.667-.257,3.023,3.023,0,0,0,.574-.613Q150.307-4.234,150.615-4.753Zm5.819-.154q-.077.565-.083.635-.083.789-.119,1.2t-.035.747a1.807,1.807,0,0,0,.042.436,1.254,1.254,0,0,0,.09.253.432.432,0,0,1,.048.112q0,.058-.1.1a.523.523,0,0,1-.212.045q-.083,0-.132-.225a3.66,3.66,0,0,1-.048-.7,8.883,8.883,0,0,1,.071-.969l.1-.885a3.575,3.575,0,0,1-.427.638.7.7,0,0,1-.523.3q-.25,0-.449-.436a4.584,4.584,0,0,1-.311-.988,4.559,4.559,0,0,1-.112-.808q0-.16.1-.16.141,0,.18.263.244,1.784.68,1.784a.409.409,0,0,0,.3-.138,2.744,2.744,0,0,0,.311-.427,2.784,2.784,0,0,0,.18-.359q.1-.225.148-.372l.045-.648a.766.766,0,0,1,.039-.209.1.1,0,0,1,.1-.061.177.177,0,0,1,.128.074.223.223,0,0,1,.064.144A5.981,5.981,0,0,1,156.434-4.907Zm3.8,2.355a.277.277,0,0,1-.221-.138,1.236,1.236,0,0,1-.16-.308.892.892,0,0,1-.061-.221.187.187,0,0,1,.067-.135A.2.2,0,0,1,160-3.419a.083.083,0,0,1,.071.035q.026.035.077.119a.476.476,0,0,0,.109.148.473.473,0,0,1,.138.237.992.992,0,0,1,.055.231Q160.451-2.553,160.239-2.553Z" transform="translate(579.821 1076.362)" fill="#f695c1"/>
  </g>
</svg>
