<svg xmlns="http://www.w3.org/2000/svg" width="284.193" height="88.282" viewBox="0 0 284.193 88.282">
  <g id="Group_1279" data-name="Group 1279" transform="translate(-579.647 -1015.354)">
    <path id="Path_2068" data-name="Path 2068" d="M12.342-11.439q0,.1-.109.1l-1.724-.026H5.527a12.058,12.058,0,0,1-1.795,2.88V-4.2l.026,1.68a.09.09,0,0,1-.1.1H3.023a.09.09,0,0,1-.1-.1L2.947-4.2V-7.62a15.909,15.909,0,0,1-1.5,1.284.49.49,0,0,1-.2.1q-.057,0-.172-.172a1.42,1.42,0,0,0-.428-.415,11.642,11.642,0,0,0,2.287-1.91,6.847,6.847,0,0,0-.077-.747q.428.026.651.051a10.008,10.008,0,0,0,1.169-1.935H2.9l-1.724.026q-.109,0-.109-.1v-.568q0-.1.109-.1l1.724.026H4.978a10.342,10.342,0,0,0,.39-1.214,2.929,2.929,0,0,0,.121-.779q0-.038-.006-.1a7.586,7.586,0,0,1,.837.172q.172.051.172.172a.28.28,0,0,1-.1.179,1.369,1.369,0,0,0-.224.5q-.147.517-.351,1.073h4.694l1.724-.026q.109,0,.109.1Zm.038,8.38a.09.09,0,0,1-.1.1l-1.833-.026H6.3l-1.82.026a.09.09,0,0,1-.1-.1v-.581a.09.09,0,0,1,.1-.1l1.82.026H7.75V-7.045H6.824l-1.718.026a.09.09,0,0,1-.1-.1v-.556a.09.09,0,0,1,.1-.1l1.718.026H7.75v-.913a12.849,12.849,0,0,0-.089-1.782,7.88,7.88,0,0,1,.875.077q.16.026.16.109a1.24,1.24,0,0,1-.051.236,5.425,5.425,0,0,0-.1,1.335v.939H9.819l1.7-.026a.09.09,0,0,1,.1.1v.556a.09.09,0,0,1-.1.1l-1.7-.026H8.548v3.328h1.9l1.833-.026a.09.09,0,0,1,.1.1ZM29.2-7.4v.038q0,.077-.109.089-.019.006-.224.026-.645.077-1.526.185l-3.832.5v2.459a.6.6,0,0,0,.537.683,11.9,11.9,0,0,0,1.82.1,3.449,3.449,0,0,0,1.91-.351,1.133,1.133,0,0,0,.351-.588,4.63,4.63,0,0,0,.128-1.035,2.752,2.752,0,0,0,.613.275q.224.07.224.172,0,.032-.013.141a2.318,2.318,0,0,1-.715,1.648,4.37,4.37,0,0,1-2.459.473,12.073,12.073,0,0,1-2.357-.16,1.051,1.051,0,0,1-.626-.441A1.314,1.314,0,0,1,22.7-3.96v-2.5l-2.619.345q-.779.1-1.309.192l-.275.051a.783.783,0,0,1-.1.013.275.275,0,0,1-.051.006q-.077,0-.089-.1l-.07-.6v-.038q0-.064.109-.077.837-.07,1.724-.185L22.7-7.2V-9.172q-1.59.383-2.932.6a.8.8,0,0,1-.141.019q-.083,0-.2-.224a1.268,1.268,0,0,0-.326-.485,29.326,29.326,0,0,0,6.278-1.475,2.975,2.975,0,0,0,.773-.409,3.9,3.9,0,0,1,.588.5.263.263,0,0,1,.089.185q0,.1-.185.115a2.069,2.069,0,0,0-.428.121q-1.386.492-2.708.849v2.063l3.781-.5q.8-.1,1.335-.185.141-.019.281-.045.083-.013.1-.013a.275.275,0,0,1,.051-.006q.07,0,.083.1ZM28.963-10a.09.09,0,0,1-.1.1h-.607q-.115,0-.115-.1v-1.9H19.217V-10q0,.115-.1.115H18.5q-.1,0-.1-.115l.026-1.386v-.434l-.026-.722a.09.09,0,0,1,.1-.1l1.807.026h2.88v-.172a6.391,6.391,0,0,0-.1-1.348q.473.026.862.083.16.019.16.1a.893.893,0,0,1-.077.236,3.674,3.674,0,0,0-.064.926v.172h3.085l1.807-.026a.09.09,0,0,1,.1.1l-.026.632v.511ZM46.242-3.136a.09.09,0,0,1-.1.1l-1.833-.026H36.394v.588q0,.109-.115.109h-.62q-.1,0-.1-.109l.026-2.67v-5.62l-.026-2.657a.09.09,0,0,1,.1-.1l1.82.026h6.713l1.788-.026q.109,0,.109.1v.594q0,.1-.109.1l-1.788-.026h-7.8v8.942h7.913l1.833-.026a.09.09,0,0,1,.1.1ZM45.8-5.078a1.786,1.786,0,0,0-.345.5q-.089.192-.16.192a.732.732,0,0,1-.179-.045,6.612,6.612,0,0,1-3.807-3.047A4.336,4.336,0,0,1,39.99-5.595,7.315,7.315,0,0,1,37.741-4.4a.641.641,0,0,1-.192.057q-.07,0-.172-.172a1.54,1.54,0,0,0-.409-.428,7.2,7.2,0,0,0,2.625-1.309A3.637,3.637,0,0,0,40.66-7.9H39.1l-1.833.026a.09.09,0,0,1-.1-.1v-.511a.09.09,0,0,1,.1-.1l1.833.026h1.724a10.415,10.415,0,0,0,.134-1.807H39.076a12,12,0,0,1-.849,1.118q-.147.141-.2.141a.6.6,0,0,1-.2-.115,1.379,1.379,0,0,0-.428-.249,7.308,7.308,0,0,0,1.514-2.095,3.294,3.294,0,0,0,.262-.862,5.232,5.232,0,0,1,.747.224q.134.051.134.141t-.121.172a1.55,1.55,0,0,0-.249.428l-.224.434h3.653l1.648-.026a.09.09,0,0,1,.1.1v.5q0,.115-.1.115l-1.648-.026H41.733a13.283,13.283,0,0,1-.147,1.807h2.172L45.6-8.59a.09.09,0,0,1,.1.1v.511a.09.09,0,0,1-.1.1L43.758-7.9H41.81A6.678,6.678,0,0,0,45.8-5.078ZM63.732-7.939a1.814,1.814,0,0,0-.313.4q-.115.211-.166.211a.645.645,0,0,1-.2-.064,9.037,9.037,0,0,1-1.4-.671V-6.5l.026,1.06q0,.1-.109.1l-1.686-.026h-.639v.811l.019,1.207a.822.822,0,0,1-.345.773,2.416,2.416,0,0,1-1.06.16h-.275a.465.465,0,0,1-.236-.032.615.615,0,0,1-.077-.217,1.168,1.168,0,0,0-.2-.473,7.178,7.178,0,0,0,.824.051.826.826,0,0,0,.511-.1.435.435,0,0,0,.1-.332V-5.365h-.683l-1.686.026a.09.09,0,0,1-.1-.1l.026-1.15v-1.3a10.943,10.943,0,0,1-1.022.632.68.68,0,0,1-.16.064q-.051,0-.141-.134a1.41,1.41,0,0,0-.345-.351A13.676,13.676,0,0,1,54.177-5.9a8.274,8.274,0,0,1-1.456,3.283q-.121.147-.166.147t-.172-.147a1.413,1.413,0,0,0-.473-.364,6.388,6.388,0,0,0,1.546-3.232,8.807,8.807,0,0,0,.16-1.137q-.473.275-1.022.536a1.325,1.325,0,0,0-.46.3.2.2,0,0,1-.166.1q-.077,0-.134-.115-.134-.307-.287-.741a5.919,5.919,0,0,0,1.073-.37q.862-.383,1.047-.473.026-.613.026-1.974l-.026-2.855a.09.09,0,0,1,.1-.1l1.859.026h2.408v-.217a4.482,4.482,0,0,0-.1-1.047q.492.019.849.064.172.026.172.109a.787.787,0,0,1-.083.23,1.993,1.993,0,0,0-.064.62v.243h2.676l1.833-.026a.09.09,0,0,1,.1.1v.524a.09.09,0,0,1-.1.1l-1.833-.026H54.452v2.35q0,1.552-.038,2.248a11.673,11.673,0,0,0,1.673-1.028,8.964,8.964,0,0,0-.894-.907.147.147,0,0,1-.045-.077q0-.032.1-.109l.243-.179a.271.271,0,0,1,.115-.057.145.145,0,0,1,.083.045,8.825,8.825,0,0,1,.92.869A5.612,5.612,0,0,0,57.7-10.494h-.76l-1.846.026a.09.09,0,0,1-.1-.1v-.46a.09.09,0,0,1,.1-.1l1.846.026h1.086l.115-.249a3.329,3.329,0,0,0,.249-.907,5.767,5.767,0,0,1,.747.185q.134.045.134.121a.2.2,0,0,1-.1.153,1.369,1.369,0,0,0-.262.447l-.115.249h2.5l1.846-.026q.109,0,.109.1v.46q0,.1-.109.1L61.3-10.494h-1.38a4.881,4.881,0,0,0,1.226,1.309,5.055,5.055,0,0,0,.664-.562,1.437,1.437,0,0,0,.3-.4,3.379,3.379,0,0,1,.537.364.189.189,0,0,1,.083.134q0,.1-.121.128a1.091,1.091,0,0,0-.39.249,6.107,6.107,0,0,1-.562.428A8.888,8.888,0,0,0,63.732-7.939ZM60.96-5.953v-.9H56.739v.9Zm0-1.463v-.894H56.739v.894ZM60.481-8.9a5.937,5.937,0,0,1-1.284-1.6h-.7A6.315,6.315,0,0,1,57.3-8.9ZM57.3-4.567q0,.089-.147.16a.881.881,0,0,0-.166.134l-.147.128A8.579,8.579,0,0,1,55.1-2.887a.516.516,0,0,1-.2.077q-.077,0-.2-.172a1.09,1.09,0,0,0-.377-.339,6.638,6.638,0,0,0,1.788-1.1,2.466,2.466,0,0,0,.511-.626,3.742,3.742,0,0,1,.562.326A.193.193,0,0,1,57.3-4.567Zm5.806,1.073a1.958,1.958,0,0,0-.364.422q-.109.179-.185.179a1.8,1.8,0,0,1-.2-.089,9.758,9.758,0,0,1-1.974-1.526.111.111,0,0,1-.032-.064q0-.051.121-.134l.249-.185q.1-.089.141-.089a.128.128,0,0,1,.07.038A7.659,7.659,0,0,0,63.106-3.494ZM53.36-9.759a.194.194,0,0,1,.019.07q0,.032-.134.115l-.326.2a.416.416,0,0,1-.147.057q-.045,0-.077-.089a9.219,9.219,0,0,0-.881-2.05.157.157,0,0,1-.026-.07q0-.045.147-.128l.275-.153a.38.38,0,0,1,.153-.064q.038,0,.083.077A9.445,9.445,0,0,1,53.36-9.759Zm26.468.639q1.256-.751,2.879-1.6l.439.775A26.27,26.27,0,0,0,79.221-7.75a2.993,2.993,0,0,0-1.5,2.386q0,1.587,2.537,1.587,1.3,0,2.982-.12v.884q-2.062.06-3.042.06-3.324,0-3.324-2.423,0-1.833,2.176-3.252-.517-1.882-.956-4.418L79-13.082A36.182,36.182,0,0,0,79.828-9.121Zm25.564.032a2.4,2.4,0,0,0-.377.543q-.109.2-.172.2a.723.723,0,0,1-.2-.064,12.233,12.233,0,0,1-3.283-2.146,13.039,13.039,0,0,1-2.089-2.536A11.527,11.527,0,0,1,96.961-10.2,14.4,14.4,0,0,1,94.17-8.316a1.109,1.109,0,0,1-.211.089q-.051,0-.172-.2a1.7,1.7,0,0,0-.39-.5A10.463,10.463,0,0,0,98.564-13.5a4.207,4.207,0,0,0,.326-.8,5.642,5.642,0,0,1,.811.153q.185.064.185.172a.148.148,0,0,1-.089.128.294.294,0,0,0-.121.1,12.066,12.066,0,0,0,2.619,2.925A11.949,11.949,0,0,0,105.392-9.089ZM98-9.261q0,.013-.051.249a6.017,6.017,0,0,0-.077,1.226,8.173,8.173,0,0,1-.249,2.2A4.452,4.452,0,0,1,97.032-4.3a5.656,5.656,0,0,1-2.325,1.871.515.515,0,0,1-.2.077q-.045,0-.185-.2a1.882,1.882,0,0,0-.453-.479A4.662,4.662,0,0,0,96.355-4.8a5.6,5.6,0,0,0,.69-3,10.382,10.382,0,0,0-.089-1.648q.453.026.888.07Q98-9.357,98-9.261Zm3.672-.026a.447.447,0,0,1-.032.128q-.026.089-.032.121a10.273,10.273,0,0,0-.064,1.488v3.315l.026,1.673q0,.089-.1.089h-.658q-.1,0-.1-.089l.026-1.673v-3.3a14.4,14.4,0,0,0-.089-1.948,7.827,7.827,0,0,1,.888.083Q101.675-9.382,101.675-9.287Zm20.2,2.619q0,.1-.109.1L120.1-6.591h-2.759l-1.693.026a.09.09,0,0,1-.1-.1l.026-1.22v-1.75a7.245,7.245,0,0,1-.6.683q-.14.141-.192.141t-.172-.16a.854.854,0,0,0-.313-.275,7.64,7.64,0,0,0,1.5-1.763,2.252,2.252,0,0,0,.313-.786,3.521,3.521,0,0,1,.658.2q.115.051.115.134,0,.064-.115.141a1.825,1.825,0,0,0-.3.422h1.827a2.349,2.349,0,0,0,.224-.434,1.807,1.807,0,0,0,.121-.466,5.978,5.978,0,0,1,.639.153q.115.038.115.121,0,.064-.089.128a.5.5,0,0,0-.141.2l-.172.3h1.073l1.558-.026a.09.09,0,0,1,.1.1v.4a.09.09,0,0,1-.1.1l-1.558-.026H119v.709h.773l1.488-.026q.109,0,.109.1v.37q0,.1-.109.1l-1.488-.026H119v.69h.786l1.488-.026q.109,0,.109.115v.358q0,.1-.109.1L119.784-7.9H119v.76h1.1l1.673-.026q.109,0,.109.1Zm-3.545-.473V-7.9h-2.108v.76Zm0-2.5v-.709h-2.108v.709Zm0,1.214v-.69h-2.108v.69Zm4.107,5.263a1.424,1.424,0,0,0-.275.447q-.1.23-.211.23a1.35,1.35,0,0,1-.147-.013,10.83,10.83,0,0,1-3.308-.939,12.4,12.4,0,0,1-3.4.984q-.141.019-.179.019-.109,0-.192-.217a1.425,1.425,0,0,0-.262-.447,13.061,13.061,0,0,0,3.366-.747,6.119,6.119,0,0,1-1.469-1.475q-.524.006-.933.019l-.281.006a.09.09,0,0,1-.1-.1v-.447a.09.09,0,0,1,.1-.1l1.635.026h3.321a.718.718,0,0,0,.249-.026A.506.506,0,0,1,120.493-6q.128,0,.351.224.224.2.224.326a.182.182,0,0,1-.115.153,1.241,1.241,0,0,0-.345.287A7.1,7.1,0,0,1,119.2-3.832,12.745,12.745,0,0,0,122.441-3.162ZM120.008-5.32H117.14a5.541,5.541,0,0,0,1.36,1.15A5.806,5.806,0,0,0,120.008-5.32Zm-5.793,2.631q0,.1-.109.1H113.6a.09.09,0,0,1-.1-.1v-.447h-1.712v.7q0,.089-.1.089h-.524q-.109,0-.109-.089l.026-1.922v-.792l-.026-1.15a.09.09,0,0,1,.1-.1l1.079.026h.792l1.092-.026a.09.09,0,0,1,.1.1l-.032.958v.824Zm-.722-1.073v-1.98h-1.712v1.98Zm8.7-8.744q0,.1-.109.1l-1.788-.026H120l.026.613a.1.1,0,0,1-.109.109h-.524q-.1,0-.1-.109,0-.019.013-.2t.013-.409h-1.884l.026.613q0,.109-.1.109h-.511q-.1,0-.1-.109,0-.019.006-.2t.019-.409h-.134l-1.788.026q-.109,0-.109-.1v-.447q0-.1.109-.1l1.788.026h.134v-.255a4.952,4.952,0,0,0-.064-.837,4.893,4.893,0,0,1,.728.077q.147.026.147.1a.338.338,0,0,1-.038.121.968.968,0,0,0-.109.492v.3h1.884v-.255a3.809,3.809,0,0,0-.077-.837,5.622,5.622,0,0,1,.76.077q.141.026.141.1a.338.338,0,0,1-.038.121.987.987,0,0,0-.1.479v.313h.3l1.788-.026q.109,0,.109.1Zm-7.613,1.4q0,.121-.109.121l-1.3-.026H111.96l-1.309.026q-.1,0-.1-.121v-.549q0-.089.1-.089l1.309.026h1.207l1.3-.026q.109,0,.109.089Zm-.262-1.763q0,.1-.109.1l-1.1-.026h-.9l-1.1.026a.09.09,0,0,1-.1-.1v-.511a.09.09,0,0,1,.1-.1l1.1.026h.9l1.1-.026q.109,0,.109.1Zm-.275,5.333q0,.1-.121.1l-.977-.026h-.7l-.99.026q-.109,0-.109-.1v-.517a.1.1,0,0,1,.109-.109l.99.026h.7l.977-.026q.121,0,.121.109Zm0-1.788q0,.1-.121.1l-.977-.026h-.7l-.99.026q-.109,0-.109-.1v-.511q0-.1.109-.1l.99.026h.7l.977-.026q.121,0,.121.1Zm18.3,1.935V-4.8h-.875V-6.987q-.3.153-.62.332-1.673.945-1.673,1.9a.867.867,0,0,0,.588.881,5.976,5.976,0,0,0,1.942.217q1.373,0,3.187-.16l.038.888q-2.382.121-3.162.121a5.492,5.492,0,0,1-2.772-.479,1.655,1.655,0,0,1-.658-1.495,2.865,2.865,0,0,1,1.756-2.382q.664-.377,1.36-.722-.064-1.226-.849-1.226-1.1,0-3.015,2.21l-.677-.6a15.276,15.276,0,0,0,2.708-3.864q-1.194.019-2.4,0v-.8q1.38.026,2.759,0a11.689,11.689,0,0,0,.588-1.75l.945.172a13.435,13.435,0,0,1-.549,1.539q1.839-.057,3.494-.224l.026.8q-2.146.172-3.87.224a13.357,13.357,0,0,1-1.1,1.859l-.332.339.038.051a2.328,2.328,0,0,1,1.558-.664,1.421,1.421,0,0,1,1.041.4,1.851,1.851,0,0,1,.492,1.137q1.022-.466,2.657-1.156l.364.894Q133.206-7.773,132.338-7.39Zm19.528,4.177a1.614,1.614,0,0,0-.39.575q-.1.211-.192.211a1.208,1.208,0,0,1-.179-.026A14.82,14.82,0,0,1,146-4.675a16.1,16.1,0,0,1-4.988,2.21.888.888,0,0,1-.172.032q-.07,0-.179-.217a1.842,1.842,0,0,0-.351-.5,15.739,15.739,0,0,0,5.046-2.037,9.109,9.109,0,0,1-2.3-3.219q-.671.006-1.162.019-.089,0-.255.006h-.077a.09.09,0,0,1-.1-.1v-.581q0-.089.1-.089l1.82.026h2.172v-2.095H142.33l-1.737.026q-.109,0-.109-.1v-.581q0-.1.109-.1l1.737.026h3.219v-.562a7.87,7.87,0,0,0-.1-1.584q.543.026.913.077.185.026.185.134a.446.446,0,0,1-.032.134,1.2,1.2,0,0,0-.051.128,4.3,4.3,0,0,0-.089,1.06v.613h3.443l1.737-.026a.09.09,0,0,1,.1.1v.581a.09.09,0,0,1-.1.1l-1.737-.026h-3.443v2.095h2.172a.886.886,0,0,0,.326-.051A.481.481,0,0,1,149-9.2q.1,0,.351.249t.249.37q0,.077-.128.166a1,1,0,0,0-.275.313,11.13,11.13,0,0,1-2.542,2.919A14.287,14.287,0,0,0,151.866-3.213ZM148.4-8.405h-4.471a8.058,8.058,0,0,0,2.095,2.746A9.652,9.652,0,0,0,148.4-8.405Zm10.245-5.5q2.248.466,4.892.76l-.211.888a43.56,43.56,0,0,1-4.918-.824Zm-1.808,3.085q2.491-.07,6.317-.4l.549.69q-.926.843-3.245,3.219a1.125,1.125,0,0,1,.422-.077,1.241,1.241,0,0,1,.99.511,2.47,2.47,0,0,1,.485,1.188,4.9,4.9,0,0,0,.453,1.7.9.9,0,0,0,.754.249,13.888,13.888,0,0,0,1.6-.089v.926q-.645.057-1.6.057a1.853,1.853,0,0,1-1.622-.568,4.767,4.767,0,0,1-.46-1.712,3.4,3.4,0,0,0-.319-1.175.629.629,0,0,0-.568-.326,1.094,1.094,0,0,0-.613.16,2.68,2.68,0,0,0-.549.556q-.907,1.13-2.293,3.078l-.875-.447a71.852,71.852,0,0,1,5.818-7.051q-2.67.275-5.18.351ZM169.3-13.068q1.731-.013,5.32-.185l.549.683q-2.548,2.587-4.043,3.883l-.588.511.051.038.671-.453a4.311,4.311,0,0,1,1.846-.5,3.314,3.314,0,0,1,2.529.932,2.869,2.869,0,0,1,.754,2.063,3.1,3.1,0,0,1-1.194,2.657,4.967,4.967,0,0,1-3.008.792q-2.561,0-2.561-1.737a1.519,1.519,0,0,1,.549-1.226,2.03,2.03,0,0,1,1.335-.422,2.152,2.152,0,0,1,1.661.7,3.218,3.218,0,0,1,.734,1.571,2.409,2.409,0,0,0,1.175-.913,2.73,2.73,0,0,0,.339-1.437,2.084,2.084,0,0,0-.811-1.75,2.5,2.5,0,0,0-1.558-.492,4.577,4.577,0,0,0-3.162,1.271A11.63,11.63,0,0,0,168.8-5.94l-.773-.626q3.13-3.219,5.729-5.863-1.878.141-4.458.211Zm3.685,9.574a2.826,2.826,0,0,0-.581-1.335,1.191,1.191,0,0,0-.92-.441,1.046,1.046,0,0,0-.754.281.774.774,0,0,0-.255.581.813.813,0,0,0,.434.773,2.683,2.683,0,0,0,1.214.211A5.639,5.639,0,0,0,172.983-3.494Z" transform="translate(579 1029.648)" fill="#f1a1b4" opacity="0.95"/>
    <g id="Group_956" data-name="Group 956" transform="translate(580.927 1039.394)">
      <path id="_パス_1380-2" d="M24.944,83.316H2.72V40.77H7.356V79.353H24.944Z" transform="translate(-2.72 -37.97)" fill="#f1a1b4"/>
      <path id="_パス_1381-2" d="M56.124,47.77a3.008,3.008,0,0,1-3.014-3v-.177a3.044,3.044,0,1,1,6.087-.137v.131a2.964,2.964,0,0,1-2.727,3.178,2.043,2.043,0,0,1-.347,0Zm2.347,35.792H53.835V53.125h4.636v30.43Z" transform="translate(-20.162 -38.216)" fill="#f1a1b4"/>
      <path id="_パス_1382-2" d="M82.475,51.4c0-3.8,0-8.768,3.348-12.175a10.045,10.045,0,0,1,7.035-2.733,11.2,11.2,0,0,1,4.525.9L96.6,41.014a8.693,8.693,0,0,0-3.518-.726c-4.8,0-5.976,4.466-5.976,9.383V51.4h7.369v3.629H87.11v26.8H82.475v-26.8H78.29V51.4h4.185Z" transform="translate(-28.879 -36.488)" fill="#f1a1b4"/>
      <path id="_パス_1383-2" d="M139.345,88.044a22.006,22.006,0,0,1-9.546,1.9c-8.886,0-14.188-6.251-14.188-15.352,0-9.546,5.362-16.418,13.567-16.418,9.383,0,11.782,8.6,11.782,13.9,0,1.059-.059,1.844-.111,2.57H120.141c.059,8.428,4.858,11.606,10.331,11.606a19.247,19.247,0,0,0,7.983-1.563l.9,3.348h0Zm-2.962-16.856c.059-4.132-1.674-9.494-7.65-9.494-5.59,0-8.042,5.3-8.487,9.494Z" transform="translate(-41.797 -43.993)" fill="#f1a1b4"/>
      <path id="_パス_1384-2" d="M220.017,45.68a14.443,14.443,0,0,0-7.48-1.955c-5.917,0-8.153,3.629-8.153,6.7,0,4.185,2.57,6.3,8.265,8.709,6.865,2.9,10.383,6.421,10.383,12.508,0,6.754-4.917,11.946-14.071,11.946A19.588,19.588,0,0,1,198.8,80.909l1.288-3.851a17.3,17.3,0,0,0,9.16,2.622c5.7,0,9.043-3.073,9.043-7.65,0-4.185-2.295-6.754-7.82-8.99-6.421-2.4-10.775-6.14-10.775-12,0-6.48,5.25-11.22,13.012-11.22a17.32,17.32,0,0,1,8.709,2.007l-1.393,3.851h0Z" transform="translate(-70.594 -37.636)" fill="#f1a1b4"/>
      <path id="_パス_1385-2" d="M254.875,50l4.577-1.563v7.088h7.872v3.629h-7.872V76.745c0,3.851,1.17,5.976,4.132,5.976a9.21,9.21,0,0,0,3.125-.445l.281,3.577a11.721,11.721,0,0,1-4.525.726c-7.369,0-7.6-6.7-7.6-9.938V59.163H250.18V55.534h4.688V50.009Z" transform="translate(-88.379 -40.625)" fill="#f1a1b4"/>
      <path id="_パス_1386-2" d="M312.944,82.067a42.763,42.763,0,0,0,.445,7.258h-4.243l-.451-3.91h-.17a10.581,10.581,0,0,1-8.99,4.577,8.442,8.442,0,0,1-8.879-7.97c-.013-.229-.013-.451-.007-.68,0-7.31,6.368-11.279,17.641-11.22,0-2.57,0-8.376-6.924-8.376a13.21,13.21,0,0,0-7.428,2.177l-1.118-3.184a17.285,17.285,0,0,1,9.285-2.57c8.6,0,10.834,6.087,10.834,12.116V82.067Zm-4.577-8.539c-5.754,0-12.953.837-12.953,7.258,0,3.91,2.459,5.636,5.25,5.636a7.435,7.435,0,0,0,7.7-7.147V73.522Z" transform="translate(-102.386 -43.993)" fill="#f1a1b4"/>
      <path id="_パス_1387-2" d="M360.733,62.84a13.088,13.088,0,0,0-1.674-.111c-5.028,0-7.6,4.969-7.6,10.108V89.367h-4.629V68.038c0-3.237-.059-6.2-.222-9.1h4.074l.222,5.865h.17a9.108,9.108,0,0,1,8.258-6.532,10.95,10.95,0,0,1,1.393.17v4.413h0Z" transform="translate(-121.759 -44.028)" fill="#f1a1b4"/>
    </g>
    <g id="_グループ_125" transform="translate(828.532 1021.055)">
      <path id="_パス_1407" d="M408.477,12.487a.588.588,0,0,0-.078-.157C408.32,12.565,408.477,12.487,408.477,12.487Z" transform="translate(-390.745 -9.787)" fill="#f2a5ba"/>
      <path id="_パス_1408" d="M407.539,16.14l-.039.36.039-.32Z" transform="translate(-390.441 -11.105)" fill="#f2a5ba"/>
      <path id="_パス_1409" d="M406.706,17.868h.039s.2,0,.235-.078h0l-.157-.32h0l.078-.36a.87.87,0,0,0-.36.078h0l.157.32a10.818,10.818,0,0,1-.36,1.19c.157-.118.235-.517.32-.83h.039Zm.157-.36-.078.275Z" transform="translate(-390.04 -11.441)" fill="#f2a5ba"/>
      <path id="_パス_1410" d="M405.338,20.76h0a.559.559,0,0,1-.078.275c.078-.039,0,.275.118-.275Z" transform="translate(-389.666 -12.705)" fill="#f2a5ba"/>
      <path id="_パス_1412" d="M404.751,22.28v-.32s-.118.32-.118.2c-.078.32,0,.275.118.118Z" transform="translate(-389.438 -13.12)" fill="#f2a5ba"/>
      <path id="_パス_1414" d="M404.979,22.15l-.079.36s.079,0,0-.157v-.2Z" transform="translate(-389.541 -13.186)" fill="#f2a5ba"/>
      <path id="_パス_1415" d="M405.02,22.923l.039-.118.085-.6-.118.713h0Z" transform="translate(-389.583 -13.207)" fill="#f2a5ba"/>
      <path id="_パス_1417" d="M401.973,26.077s-.2-.118-.039-.157a3.925,3.925,0,0,0-.674.118h.713Z" transform="translate(-388.281 -14.491)" fill="#f2a5ba"/>
      <path id="_パス_1418" d="M400.77,26.235s.2-.039.32-.078A.432.432,0,0,0,400.77,26.235Z" transform="translate(-388.112 -14.571)" fill="#f2a5ba"/>
      <path id="_パス_1424" d="M401.506,26.379s-.36.039-.556.039h.673s.118-.078-.118-.078h0v.039Z" transform="translate(-388.174 -14.636)" fill="#f2a5ba"/>
      <path id="_パス_1428" d="M399.86,26.334a.962.962,0,0,1,.275.039C400.056,26.373,399.86,26.295,399.86,26.334Z" transform="translate(-387.797 -14.63)" fill="#f2a5ba"/>
      <path id="_パス_1430" d="M402.826,26.4a.379.379,0,0,0-.235.078h.235Z" transform="translate(-388.742 -14.657)" fill="#f2a5ba"/>
      <path id="_パス_1431" d="M396.758,26.68s.876.118.556.2c-.517.039-.438,0-.674-.078.2.118-.673.157-.556.32l.438-.078s-.157.078,0,.078c0-.078.477-.157.876-.078.4-.078.118-.36-.2-.517,0,0,0,.078-.4.118h0l-.033.033Z" transform="translate(-386.486 -14.702)" fill="#f2a5ba"/>
      <path id="_パス_1432" d="M397.8,26.458h.916a4,4,0,0,1-.556-.118c-.275.039-.32.078-.359.118Z" transform="translate(-387.083 -14.636)" fill="#f2a5ba"/>
      <path id="_パス_1434" d="M402.614,26.82h-.634l.32.118h0c.36,0,.275-.078.32-.118Z" transform="translate(-388.53 -14.802)" fill="#f2a5ba"/>
      <path id="_パス_1435" d="M397.461,26.4l.078-.118-.36.157.275-.039h0Z" transform="translate(-386.869 -14.615)" fill="#f2a5ba"/>
      <path id="_パス_1436" d="M396.236,26.418l.039-.078-.235.039.2.039h0Z" transform="translate(-386.474 -14.636)" fill="#f2a5ba"/>
      <path id="_パス_1437" d="M405.039,45.246l-.079.157.157-.2h-.078Z" transform="translate(-389.562 -21.165)" fill="#f2a5ba"/>
      <path id="_パス_1439" d="M392.46,27.109l.079-.039S392.46,27.07,392.46,27.109Z" transform="translate(-385.235 -14.889)" fill="#f2a5ba"/>
      <path id="_パス_1441" d="M413.454,23.857s-.4.4-.235.275l.438-.32h-.118a4.317,4.317,0,0,1,.791-.673c.438-.235.36-.118.556-.235,0,0,.078,0,.235-.157l.955-.673-.713.32c.2-.235.791-.556,0-.157.157-.078.36-.157.556-.275a3.974,3.974,0,0,1-.556-.039v-.078a1.144,1.144,0,0,0-.275-.157c-.118,0-.157,0-.517.157a.266.266,0,0,0-.235-.157,1.675,1.675,0,0,0-.791.2H412.2a7.1,7.1,0,0,1-.915.078h0a.639.639,0,0,0-.235-.2.977.977,0,0,0-.595.2c-.2-.118-.955-.039-1.223-.235.118.039-.039.078-.275.078-.4-.118-.876-.275-.994-.32a.2.2,0,0,1-.118-.039c-.157-.039-.275,0-.752.32h-.556a6.611,6.611,0,0,1-.876-.078h-.118c-.4-.118-.955-.235-1.111-.275v-.17h0a2.472,2.472,0,0,0-.039-.438,9.142,9.142,0,0,0-.157-1.033.787.787,0,0,0-.242-.15h-.2l-.078-.157.078-.32a4.678,4.678,0,0,0,.2-1.471.709.709,0,0,0-.235-.157c-.157,0-.157-.039-.674.275l-.118-.275v-.085a8.447,8.447,0,0,0-.039-1.151.708.708,0,0,0-.235-.157h-.157l.118-.36a4.349,4.349,0,0,0,.4-1.5.7.7,0,0,0-.235-.157.847.847,0,0,0-.438.118v-.078c-.052-.039-.111-.078-.157-.118l-.078-.157a9.559,9.559,0,0,1-.477-.915.329.329,0,0,0-.235-.157h-.235a.37.37,0,0,0-.039-.235.375.375,0,0,0-.2-.157.584.584,0,0,0-.36.078h-.046l.157.32-.157.078-.039-.2c0,.118-.32.83-.477,1.308a4.662,4.662,0,0,0-.477,1.589.709.709,0,0,0,.235.157c.118,0,.157.039.713-.275a5.957,5.957,0,0,1-.477.517c-.438.438-.752.791-1.033,1.112l.079-.118v-.2a2.138,2.138,0,0,0-.118.4c-.634.673-.791.915-.83,1.072a1.449,1.449,0,0,1-.118.32c.039-.078.118-.2.157-.2h0V18.4h.039s.118.157.235.157a5.329,5.329,0,0,0,1.589-.752c-.275.275-.556.517-.791.791-.791.791-1.308,1.268-1.628,1.628h0s-.235.275-.32.36v-.144s-.118.32-.2.32h.078c-.157.2-.118.275,0,.4,0,0,.039.078.079.078h0v.118h0v-.078h.157l-.078.118a.129.129,0,0,0,.118-.078h0s.6-.275,2.5-1.347c.83-.477,1.981-1.151,2.262-1.268a.256.256,0,0,0,.157-.039.093.093,0,0,0,.078-.039s.078,0,.078.039a1.469,1.469,0,0,0,.118.4l.079-.118a1.183,1.183,0,0,1,.078.477c.275.235-.235-.752,0-.517a1.63,1.63,0,0,0,.118.634c-.275,0-.83.235-6.388,3.374-1.347.791-2.9,1.667-4.008,2.262.235-.275.517-.556.752-.83,1.347-1.452,1.968-2.275,1.863-2.458a.7.7,0,0,0-.157-.118h-.118s.275-.078-.039-.118h.4a1.5,1.5,0,0,1-.379-.046h-.791a3.246,3.246,0,0,0,.713,0c-.118.078-.438.118-.32.235-.118.039-.275.157-.516.275h-.039c-.32.2-.791.438-1.471.83-.477.275-1.072.595-1.471.83l.118-.438c.275-1.151.32-1.308.275-1.425h.235c.039-.078-.078-.078-.275-.078a.55.55,0,0,0-.157-.118,2.182,2.182,0,0,1,.713-.039c-.235-.118-.118,0-.477-.118.32.2-1.268,0-.752.2a1.452,1.452,0,0,0-.32-.118.3.3,0,0,0,0-.36.329.329,0,0,0-.235-.157,4.646,4.646,0,0,0-1.072.477H388.9l-.2.118-.157.078a1.473,1.473,0,0,0-.673.078c-.36,0,.078-.039-.157-.118l-.36.078-.32-.078L386.8,21.6h0a3.126,3.126,0,0,1-.477-.275c-.039,0-.078-.078-.157-.078a.884.884,0,0,0-.517.157l-.157.078a1.473,1.473,0,0,1-.235-.157.3.3,0,0,0-.157-.078.583.583,0,0,0-.36.078h-.078l.078.235h-.157l.2.118H384.7s0,.118.078.157v.157h.2c.157.078.36.235.713.477.32.2.673.477.791.556.118.118.235.118.438.039.078.039.157.118.235.157a4.484,4.484,0,0,0,.275.713.376.376,0,0,0,.2.157.972.972,0,0,0,.118.275.329.329,0,0,0,.235.157h.235c.118.118.275.275.517.556s.556.595.595.634a.208.208,0,0,0,.2.118.661.661,0,0,0,.477-.157h0s.4.118.83.235h.078c-.157.275-.118.36,0,.477a.258.258,0,0,0,.209.144,1.057,1.057,0,0,0,.4-.078,15.761,15.761,0,0,0,1.386.994q0,.2.078.235a.33.33,0,0,0,.235.157.773.773,0,0,0,.32-.039l.477.595c.157.235.36.438.438.556a2.444,2.444,0,0,0-.118.275c0,.039-.039.078-.039.157-.039.157-.078.36-.118.556h0c-1.223,1.425-1.779,2.236-1.667,2.419a.706.706,0,0,0,.235.157c.118,0,.157,0,.6-.2,0,.078.079.039.157,0v.275c-.078,0-.118.118-.157.2-.791.6-.713.713-.6.915,0,.078.078.118.157.157a.313.313,0,0,0,0,.32h.046c-.118.36-.275.791-.4,1.112l-.235.634h0c-.235.634-.235.673-.157.791h0c0,.2-.078.36-.078.634l-.118.078c-.02.131-.046.268-.078.4a.612.612,0,0,1-.157.4,3.777,3.777,0,0,0-.2.438,21.356,21.356,0,0,0,1.9-1.19c.4-.275.83-.556,1.223-.791a8.78,8.78,0,0,1,.83-.477c-.36-.078.6-.235.517-.438.118,0,.275-.078.118.078.517-.438.915-.477,1.19-.876.118,0-.079.157,0,.157,0-.039.157-.157.235-.157s-.039.078-.118.2c.556-.4.516-.595.438-.752a1,1,0,0,0,.634-.477c.118,0,.359-.078,0,.157.2-.118,1.268-.752,1.223-.876.078,0,.275-.2.32-.235l.477-.32a1.474,1.474,0,0,0,.235-.157h0a.64.64,0,0,0,.235.2.773.773,0,0,0,.32-.039c.36.32.438.36.556.4l.078.078c.275.275.595.634.634.673a.208.208,0,0,0,.2.118.557.557,0,0,0,.32-.078h0a2.055,2.055,0,0,1-.039.4,5.056,5.056,0,0,0-.118,1.471.708.708,0,0,0,.235.157l1.425-.673.118-.078h0s-.2.078.078.275c0,.039.157.118.275.157-.32.4-.275.438-.157.595a.329.329,0,0,0,.235.157c.157,0,.157.039.83-.32a1.461,1.461,0,0,1,.36.275c-.079-.118-.118-.235.118-.118a2.15,2.15,0,0,1,.477.4,3.748,3.748,0,0,0,.079,1.151.329.329,0,0,0,.235.157c.157,0,.157.039,1.033-.438.36.2.83.477,1.072.595a1.02,1.02,0,0,0,0,.4.329.329,0,0,0,.235.157h.079a.282.282,0,0,0,.235-.078,2.033,2.033,0,0,0,.517.36c-.078-.157-.118-.36-.2-.556h.039s.235-.32.118-.477c0-.039-.078-.078-.118-.118h0s.2-.32.118-.477c0-.039-.078-.078-.118-.118a3.441,3.441,0,0,0,.157-1.223.329.329,0,0,0-.235-.157c-.118,0-.157,0-.595.2-.039-.118-.039-.157-.078-.157l-.065-.1a5.16,5.16,0,0,0-.275-.752,1.124,1.124,0,0,0-.235-.32c0-.157.039-.039.079-.039l-.079-.275c.517-.876.477-.915.4-1.072a.329.329,0,0,0-.235-.157.847.847,0,0,0-.438.118c.079-.235.118-.477.2-.673v-.078a1.03,1.03,0,0,0,.118-.275,2.258,2.258,0,0,0,.157-.994.329.329,0,0,0-.235-.157,3.328,3.328,0,0,0-.876.36,3.546,3.546,0,0,0-.275-.673s.039,0,.078.078a6.365,6.365,0,0,1-.438-1.55c0-.118-.078-.235-.078-.36v-.157h-.078V28.63a1.352,1.352,0,0,0,.078-.32h0s.2-.2.157-.32l.83-.595h0c1.425-.994,2.9-1.9,4.243-2.818h-.235l.477-.36c.157-.039.235,0-.079.2.118,0,.236-.118.36-.235.078-.118.2-.275.2-.275.477-.275.477-.235.32-.078h0l-.163.033Zm1.386-.994-.2.118C414.873,22.778,414.84,22.824,414.84,22.863ZM393.969,27.3h0s-.118-.2-.235-.2h-.118v-.2h.118a.166.166,0,0,0,.078.157.266.266,0,0,0,.235.157c.275.078.516,0,5.12-2.7.517-.275,1.072-.634,1.589-.915-.6.438-1.19.915-1.707,1.347-2.145,1.707-3.178,2.5-3.648,2.936h0a2.463,2.463,0,0,0-.235-.157s-.078-.078-.118-.078l-.078-.078s-.32-.477-.4-.4a.62.62,0,0,1-.2.673c-.157-.2-.275-.4-.36-.477h0l-.033-.065Zm8.886-6.826a.709.709,0,0,0,.235.157h.157a1.176,1.176,0,0,1,.039.477c.157.4.078-.157.235.235v.118l.078.078h0a.454.454,0,0,0-.2-.078c-.235-.039-.32-.078-4.682,2.458-.595.36-1.223.713-1.863,1.072.6-.477,1.268-.955,1.863-1.386,2.419-1.785,3.57-2.7,4.126-3.171h0v.039Zm4.015,6.9v-.118l.673-.438c-.36.275.078.2-.556.556l.2-.32-.36.275h0l.033.039Zm-1.151.791h.118c-.915.477-2.5,1.347-5.394,3.014,1.112-.673,2.262-1.386,3.335-2.027,1.112-.673,2.105-1.268,2.975-1.831l-.118.078-.118.078-.157.118s-.4.275-.713.477v.078h.078Zm.713,4.407a.707.707,0,0,0,.235.157h.157c-.36.2-.752.438-1.269.713l-.556.32a5.141,5.141,0,0,0,.4-.438c.4-.4.673-.713.955-.994,0,.2.039.2.079.235h0Zm-2.576.713s.079.118,0,.118Zm.157,0a.7.7,0,0,0-.157-.078V33.1c.32-.157.83-.477,1.706-.994l.118-.078c-.275.275-.556.595-.791.83-.275.275-.517.556-.713.752-.118-.157-.157-.235-.157-.32h0Zm-1.746-2.184a.2.2,0,0,0-.039-.118h0c.955-.6,1.864-1.112,2.655-1.55h0a.292.292,0,0,0,.275,0h0c-.275.157-.713.438-1.425.83-.477.275-1.033.595-1.386.791h0l-.079.039Zm3.766-1.589a.2.2,0,0,0-.039-.118c0-.039-.078-.078-.118-.118h0l.118-.078.079.157v.118h-.039v.039Zm-.124.4c-.2.634-.2.673-.118.791a.266.266,0,0,0,.235.157h.078v.118c-.235.157-.556.32-.915.556-.235.157-.516.32-.791.477.137-.19.281-.379.438-.556.634-.83.955-1.268,1.112-1.5h0Zm.83,3.727a2.942,2.942,0,0,0-.994.438L405.9,34c.32-.2.713-.4,1.033-.595l-.235.235Zm.713,1.589a.369.369,0,0,1-.118-.078l.2-.118-.118.2h.033Zm.2-1.04s-.517.275-.994.556a6.965,6.965,0,0,1,.517-.556l.36-.4s.078.235.118.4Zm-4.165-6.741c-2.145,1.223-4.564,2.622-6.506,3.727,1.5-.955,3.256-2.06,4.839-3.053a91.414,91.414,0,0,0,8.134-5.316h0a1.641,1.641,0,0,0,.713-.275h0s.118.4.157.6v.078c-1.589.876-3.969,2.223-7.421,4.243h.078Zm.235-5.551h0v.275a.165.165,0,0,0-.078-.157C403.646,21.981,403.725,21.941,403.725,21.9Zm-.118.157c.078.2.157.438.235.634h.994c-.915.517-2.184,1.223-4.047,2.3-.915.517-1.9,1.112-2.818,1.628.477-.4,1.033-.791,1.5-1.19a51.048,51.048,0,0,0,4.126-3.38h0Zm4.8.484h-.078a1.59,1.59,0,0,1,.556-.078c-.876.438-2.537,1.386-5.793,3.3-1.425.83-3.093,1.785-4.524,2.622.673-.438,1.386-.915,2.06-1.386,3.851-2.576,5.551-3.766,6.27-4.361a9.62,9.62,0,0,0,1.5-.078Zm-7.218,3.014c.634-.36,1.308-.752,1.981-1.151-.994.673-2.027,1.386-2.975,2.027-2.5,1.667-3.89,2.622-4.682,3.21v-.078h-.039l.235-.157s0-.039-.078-.078v-.078h.078s.157-.157.157-.275c.32-.4.438-.556.4-.673.713-.36,2.105-1.151,4.884-2.779h0l.033.039Zm-6.029,4.276h0l-.078.078v-.078Zm.235.955a80.26,80.26,0,0,0,7.454-4.126c-.477.32-.955.595-1.425.915-2.975,1.863-4.956,3.132-6.31,3.969.36-.556.32-.634.235-.752h.046Zm-.83-.2a.216.216,0,0,0,.079.157v.078l-.157.118v-.157l.078-.157h0Zm-1.033,4.126h0l.118-.32s.118.039.118.078v-.36s.039-.235.039-.275c.078,0,.157-.078.235-.118a.533.533,0,0,1,.039-.2c1.308-.634,4.008-2.145,9.8-5.512,1.863-1.072,3.969-2.262,5.754-3.3-1.9,1.19-4.165,2.576-6.231,3.805-5.9,3.609-8.65,5.316-9.919,6.185h.046Zm14.64-8.245a2.372,2.372,0,0,1-.2.235l-.078-.078.275-.157h0Zm-6.388,5.473s-.118-.118-.2-.118H401.5l.2-.118v.078a.266.266,0,0,0,.235.157c.2.039.235.039,2.145-1.072l.516-.275-.32.438a16.952,16.952,0,0,0-1.308,1.831c-.2-.118-.438-.2-.674-.36-.275-.235.118,0,0-.157l-.235-.078-.32-.32h0l.039-.013Zm10.278-9.52.157.078h.118l.078-.078h.039l-.876.438-.072-.262a2.07,2.07,0,0,1,.516-.2h0l.033.033Zm-7.454-.915-.078-.078Zm-3.335-8.317h0l-.118.078.078-.157v.078Zm-.477,1.072c.157-.438.275-.752.36-.994l.078.118s-.078.438-.2.438a1.011,1.011,0,0,1,.2.556l-.36.2-.275.157.2-.477h0Zm-.118,2.217c.4-.4.674-.752.915-.994,0,.039.039.078.079.118,0,.157-.118-.118-.118,0a1.183,1.183,0,0,1,.32.595c-.157,0-.4.157-1.667.876h-.078l.556-.556h0v-.039Zm-.994,2.975-.392.235.556-.556c1.072-1.072,1.706-1.667,2.027-2.06h.275a4.635,4.635,0,0,1,.2.713v.275h0c-.2-.039-.235-.078-2.655,1.347h0l-.013.039Zm-2.661,4.034c1.072-.595,2.223-1.268,3.256-1.863-.595.477-1.268.955-1.863,1.386a27.625,27.625,0,0,0-4.525,3.609.257.257,0,0,1-.118-.118l.118.118v.078a.465.465,0,0,1-.2-.039v-.118a3.98,3.98,0,0,0-.157-1.072c.791-.438,1.942-1.072,3.492-1.981h0Zm-4.047,0,.556-.32c-.235.235-.438.477-.634.713-.634.673-1.072,1.151-1.347,1.471h-.2v-.072c-.32-.2-.517-.4-.752-.556.2,0,.32,0,2.419-1.223h0l-.033-.013Zm-3.531.32c-.275-.36.438.275.235-.039a.593.593,0,0,1-.36-.118l-.275-.118h0l.673-.4c.275-.163.6-.36.915-.517l-.118.517c-.235,1.072-.275,1.223-.235,1.347-.078-.078-.2-.118-.275-.2,0-.078-.32-.32-.118-.275a.777.777,0,0,1-.4-.2h-.046Zm-.2.17c-.15-.046-.294-.1-.438-.157l-.157-.078.32-.157s.556.32.752.438c-.078.078-.235.078-.477,0h0v-.039Zm1.19-2.06c-.235.118-.595.32-1.072.6-.36.2-.791.477-1.151.634h0l-.118-.347s.477-.235,1.112-.595l.32-.2h.079a2.828,2.828,0,0,1,.438-.235h.235l.118.118a1.148,1.148,0,0,0-.516,0,3.968,3.968,0,0,1,.556.039h0Zm-.673,3.053h0l-.079-.078h0l-.078-.078.078.078.157.078Zm7.454,9.206a1.219,1.219,0,0,1,.36-.2A.759.759,0,0,1,397.212,34.175Zm.752,0s-.039-.039,0-.157l-.079.078c-.235.078-.2-.039-.078-.2l.275-.078s.157-.32.078-.4l-.157.157v-.078l-.157.157h-.235l-.83.438a9.6,9.6,0,0,1-1.589,1.628c.157-.235-.078-.2-.157-.32.32,0,.634-.477,1.072-.752-.235.157-.235.039-.2,0l-.713.634a2.042,2.042,0,0,0-.477.157c.157,0,0,.157-.157.32a1.613,1.613,0,0,1-.32.235l-.078.078h-.039l-.078.118v-.111s0-.039.078-.078a.623.623,0,0,1,.235-.157.175.175,0,0,0-.15.078h-.078V36h-.039a.588.588,0,0,1-.078.157.371.371,0,0,1-.32.275c.078-.039.118-.039.118-.118a.888.888,0,0,1-.32.235c-.079.039-.118,0-.079-.039h.039a5.355,5.355,0,0,0-.673.4v-.275l.275-.157s.4-.235.477-.275h.039s.235-.32.118-.477l-.079-.078c.674-.36,1.9-1.033,4.244-2.341h.039v.078h0a.328.328,0,0,1,.157.039h.079a.328.328,0,0,0,.157-.039,1.606,1.606,0,0,1-.36.4,3.539,3.539,0,0,0,.36-.078l-.517.438h0l.2.033Z" transform="translate(-382.507 -9.813)" fill="#f2a5ba"/>
      <path id="_パス_1442" d="M405.08,44.65h.078Q405.158,44.61,405.08,44.65Z" transform="translate(-389.604 -20.967)" fill="#f2a5ba"/>
      <path id="_パス_1444" d="M393.78,26.34h-.36a3.532,3.532,0,0,1,.36.078S393.7,26.379,393.78,26.34Z" transform="translate(-385.567 -14.636)" fill="#f2a5ba"/>
      <path id="_パス_1446" d="M389.122,26.529c.235,0,0-.118.157-.078.078-.039-.275,0-.477,0-.2.039-.2.078.275.039h0l.039.039Z" transform="translate(-383.924 -14.668)" fill="#f2a5ba"/>
      <path id="_パス_1448" d="M410.243,12.607l-.2-.157a1.087,1.087,0,0,1,.078.275l.118-.118h0Z" transform="translate(-391.32 -9.828)" fill="#f2a5ba"/>
      <path id="_パス_1450" d="M398.668,19.42l-.078.039h.039Z" transform="translate(-387.357 -12.241)" fill="#f2a5ba"/>
      <path id="_パス_1451" d="M398.5,19.358h.118s-.157-.078-.118-.118C398.382,19.358,398.578,19.279,398.5,19.358Z" transform="translate(-387.312 -12.178)" fill="#f2a5ba"/>
      <path id="_パス_1454" d="M398.77,18.708h.078a.167.167,0,0,1,.039-.078C398.849,18.63,398.809,18.63,398.77,18.708Z" transform="translate(-387.419 -11.967)" fill="#f2a5ba"/>
      <path id="_パス_1457" d="M398.668,18.88s0,.039-.078.078C398.629,18.958,398.747,18.958,398.668,18.88Z" transform="translate(-387.357 -12.054)" fill="#f2a5ba"/>
      <path id="_パス_1459" d="M398.58,18.528h.039s0-.039.078-.078a.372.372,0,0,0-.118.078Z" transform="translate(-387.353 -11.905)" fill="#f2a5ba"/>
      <path id="_長方形_143" d="M398.35,18.99l.157-.02h0Z" transform="translate(-387.274 -12.085)" fill="#f2a5ba"/>
      <path id="_パス_1461" d="M398.58,18.309h.039l.078-.039-.118.039Z" transform="translate(-387.353 -11.843)" fill="#f2a5ba"/>
      <path id="_パス_1462" d="M398.58,18.168s.078-.078.118-.078h-.118Z" transform="translate(-387.353 -11.78)" fill="#f2a5ba"/>
      <path id="_パス_1464" d="M398.548,18.39l-.078.078h0a.076.076,0,0,0,.078-.078Z" transform="translate(-387.315 -11.884)" fill="#f2a5ba"/>
      <path id="_パス_1465" d="M398.439,18.489h0l-.039-.039Z" transform="translate(-387.291 -11.905)" fill="#f2a5ba"/>
      <path id="_パス_1467" d="M398.1,18.888a.3.3,0,0,1,.2-.078A.281.281,0,0,0,398.1,18.888Z" transform="translate(-387.187 -12.03)" fill="#f2a5ba"/>
      <path id="_パス_1469" d="M398.28,18.369s.079,0,.079-.039h-.079v.078h0Z" transform="translate(-387.25 -11.863)" fill="#f2a5ba"/>
      <path id="_パス_1476" d="M397.541,18.226a.168.168,0,0,1,.039-.078c-.078.078-.157,0-.32.118h.078s-.078,0-.078.039c.078-.039.157-.039.118,0a1.648,1.648,0,0,0,.477-.275h-.118s-.079.118-.157.118h0l-.033.078Z" transform="translate(-386.897 -11.76)" fill="#f2a5ba"/>
      <path id="_パス_1477" d="M398.16,18.09v.078h0l.078-.078Z" transform="translate(-387.208 -11.78)" fill="#f2a5ba"/>
      <path id="_パス_1478" d="M398.093,18.21h-.118c-.078.039-.157,0-.235.118h.124c-.039-.039.039,0,.078-.078h.078l.078-.039Z" transform="translate(-387.063 -11.822)" fill="#f2a5ba"/>
      <path id="_パス_1479" d="M397.8,19.039l.039-.039Z" transform="translate(-387.083 -12.095)" fill="#f2a5ba"/>
      <path id="_パス_1480" d="M398.032,18.75a1.523,1.523,0,0,0-.2.157h.039a.168.168,0,0,0-.078.039.2.2,0,0,0,.118-.039h0l.118-.118h0V18.75Z" transform="translate(-387.08 -12.009)" fill="#f2a5ba"/>
      <path id="_パス_1482" d="M398.178,18l.078-.039L398.1,18Z" transform="translate(-387.187 -11.735)" fill="#f2a5ba"/>
      <path id="_パス_1483" d="M398.218,17.9h-.078l-.039.039Z" transform="translate(-387.187 -11.715)" fill="#f2a5ba"/>
      <path id="_パス_1485" d="M396.82,15.742l.078-.072h-.078Z" transform="translate(-386.744 -10.943)" fill="#f2a5ba"/>
      <path id="_パス_1488" d="M397.517,17.008V16.93C397.478,16.969,397.4,17.048,397.517,17.008Z" transform="translate(-386.964 -11.379)" fill="#f2a5ba"/>
      <path id="_パス_1490" d="M397.55,16.963s.039-.078,0-.039h0s.039.02.039.039Z" transform="translate(-386.997 -11.373)" fill="#f2a5ba"/>
      <path id="_パス_1497" d="M394.937,15.937h.118l.235-.157-.36.157Z" transform="translate(-386.09 -10.981)" fill="#f2a5ba"/>
      <path id="_パス_1498" d="M390.508,9.359l-.078.078q.118-.059.118,0h0s.039.157.079.275l.085-.078v.078c.157-.078,0-.039.118-.157-.157.157.118.118-.078.32,0,0,.078-.078.118-.078h0a.374.374,0,0,1-.079.118h0s.079.039.079.078h0a.451.451,0,0,0,.275.118h0s0,.039.078.078h.078c-.078,0-.078.118-.157.118.118,0,.078,0,.275-.078l-.078.078s.118-.039.157,0c-.078,0-.078.078-.2.118-.118.157.235,0,0,.157.235-.118.079-.118.118-.157.039-.078.157-.078.157-.039,0,0-.235.2-.157.275h0s.078,0,0,.078c.118-.078,0,0,.157-.078h-.078s.275-.118.2,0h-.111c0,.039.039,0,0,.039-.157.118-.078,0-.235,0-.039.039.157,0,0,.078.235-.118,0,.078.2,0l-.079.078h-.039s-.039.157,0,.157c-.039-.039.118-.078.157-.157.157,0-.2.2-.118.235a.076.076,0,0,1,.079-.078h0a.135.135,0,0,1-.085.118c.039.039.079-.078.157-.078-.118.078.078,0,.118,0l-.078.078s.2-.118.157,0l-.157.078h.039l-.118.078s.078,0,.078.039c.078-.039.157-.118.2-.078-.039.039-.078.039-.039.078-.079,0-.157.078-.079,0h-.078v.118h.2a.591.591,0,0,1-.2.078h.118s-.078.078-.118.078c0,.039.2,0,.157.039h.039c0,.039-.078.157.078.118l-.118.118s.157-.157.235-.118c.078,0-.118.078-.157.118.078,0,.235-.078.157,0h0l-.078.078a.423.423,0,0,0-.235.078c.275-.157.118.078.4-.039h.118s-.039.078-.078.078h.039l.078.078h.157s-.157.078-.157,0c-.275.2.078,0,0,.157h-.039l-.157.157c.039,0,.2-.2.32-.2,0,0,0,.039.039,0-.118.039-.078.078-.039.078l-.118.078a.533.533,0,0,0,.2-.039l-.17.163c0,.039.157-.118.2-.078,0,.078.039.078.157.078,0,.039-.078,0-.118.078h.078a.454.454,0,0,1,.2-.078c.157-.078-.157.2,0,.118a.129.129,0,0,0-.118.078h.275l-.078.078a1.107,1.107,0,0,1,.359-.118l.078-.078h.118a.372.372,0,0,0-.118.078h0a.454.454,0,0,1-.2.078l.078-.078s-.2.078-.275.118h.039l-.157.118h.078v.078a1.183,1.183,0,0,1,.477-.078c-.118,0-.2.078-.32.157.118-.078-.078,0-.078-.078,0,0-.078.039-.078.078h.157a.258.258,0,0,0-.118.118c.2-.118.157,0,.235,0-.078,0-.157.078-.157,0-.118.118.275-.078.157,0h0c.078,0,.039.078,0,.078h0a.2.2,0,0,0,.275.078h0l-.235.118.674-.2a3.2,3.2,0,0,1-.634.275.042.042,0,0,0,.039.039,1.974,1.974,0,0,1,.235-.118c-.157.118-.078.078-.2.2,0,0,.275-.157.275-.118a2.468,2.468,0,0,1-.275.118l.275-.078s-.2.118-.275.157c.039,0,0,.039.039.039h.039s.36-.157.4-.078c-.039,0-.32.118-.32.2a5.011,5.011,0,0,1,.752-.235h0s-.634.235-.791.275c-.039.039-.078.039-.039.078-.039.039-.118,0-.118,0v.078a.5.5,0,0,0,.275-.078h-.2s.438-.157.438-.078a2.9,2.9,0,0,1-.32.157h0s.2,0,.118.078c0,0-.157.118-.078.078a4.587,4.587,0,0,1,.752-.4.855.855,0,0,1-.2.2c-.118.078-.32.118-.4.2h.118s-.118.039-.078.078c.157-.078,0,.078.118-.039.039,0,0,.039,0,.078a1.4,1.4,0,0,1,.4-.118.343.343,0,0,0-.091.078v.2a.15.15,0,0,1-.118.078h.078s-.039,0-.157.078c.078-.039.157,0,.2,0,.118-.078,0-.078-.079-.078a.888.888,0,0,1,.517-.118c.078,0-.118.078-.078.078,0,.118.36-.078.275.039a1.122,1.122,0,0,1-.32.157c-.078,0,0-.078,0-.118h0s-.078.039-.078,0c-.078.078.078.157,0,.275a.152.152,0,0,0,.118-.039h0s.157-.039.157-.078h.157l-.118.078s.078-.078,0-.039c.078,0-.118.157.039.078l.078-.078s.235-.039.2,0c.118-.078,0,0,.118-.118-.157.118-.039-.078-.2.039.157-.118.039-.078.157-.2-.039,0-.079.039-.079,0H395v.078h-.235a.168.168,0,0,0,.078-.039h-.078s.118-.118.2-.118h0s.039-.118,0-.118h-.118s-.235-.078-.079-.235c0,0-.078,0-.078-.039h.078s0-.157-.039-.118c.2-.157,0-.157,0-.2h-.32v-.118h0c.157-.157-.235-.039-.118-.2h0v-.078a.129.129,0,0,0-.118.078H394.1s-.078,0,.078-.118a.648.648,0,0,0-.275,0h0v-.078l.118-.078h-.2a1.083,1.083,0,0,0,.2-.078h-.2s-.157,0-.078-.078c.118-.118-.078-.2,0-.36-.235.157.078-.118-.118,0,.039,0,.078-.078.118-.078-.078,0,.039-.118-.118-.078a.153.153,0,0,0,.118-.039h.078c-.039-.039-.235.039-.4.118.079-.078.039-.078-.078,0,.039,0,.078-.078.118-.078,0,0,0-.157-.118-.078h0a.113.113,0,0,0-.039-.078h-.078s-.079,0,0-.157h-.092c-.2.157.078-.078,0-.078h-.039a2.828,2.828,0,0,0,.275-.2h.039a.272.272,0,0,1-.2,0c.078-.039.2-.078.157-.118.039-.039-.275.039-.157-.078-.039,0-.078.078-.157.078,0,0,.157-.2,0-.118h0a.219.219,0,0,0-.235,0c.32-.2-.275-.039.039-.235l-.078-.078h0a.272.272,0,0,0-.2,0,.093.093,0,0,0,.078-.039q0-.118-.2-.078l.079-.078s.078-.2-.079-.2h.039s.157-.36-.235-.157h-.1a.605.605,0,0,0-.2.157s.078-.118.118-.118h0a.239.239,0,0,1,.118-.2c-.078-.118-.078-.32-.157-.438l-.118.118h0l.118-.118c.078-.078-.118,0-.118,0,0-.078.2-.078.157-.118h-.039s-.118.078-.157,0c0-.039.078-.078.078-.078h-.118l-.118.118c.157-.157-.079-.235,0-.275a.227.227,0,0,1-.157-.039s-.118.118-.157.078c.275-.2.039-.118.2-.32-.079.118-.118-.078-.235.118,0-.039.078-.078.118-.157-.157,0-.039-.2-.157-.235l-.118.118.118-.157s-.2.157-.118,0c0,0-.039.078-.079.078,0-.118-.118-.2-.2-.235s-.157-.118-.118-.32c0,.078-.039.078-.078.039l-.118.118V8.823s0-.039-.157.039h0a5.523,5.523,0,0,1-.4.477c.157-.118-.118.275.118.118h0l.36-.118Zm2.033,2.9H392.5C392.62,12.217,392.581,12.256,392.541,12.256Z" transform="translate(-384.401 -8.568)" fill="#f2a5ba"/>
      <path id="_パス_1502" d="M397.661,18.014s-.039.039,0,.039h0S397.739,17.975,397.661,18.014Z" transform="translate(-387.029 -11.75)" fill="#f2a5ba"/>
      <path id="_パス_1504" d="M397.852,17.521s.118-.039.078,0C398.049,17.482,397.774,17.521,397.852,17.521Z" transform="translate(-387.097 -11.577)" fill="#f2a5ba"/>
      <path id="_パス_1505" d="M397.25,18.239l.118-.039h-.118Z" transform="translate(-386.893 -11.818)" fill="#f2a5ba"/>
      <path id="_パス_1508" d="M396.861,17.48s-.039,0,0,.039h.039Z" transform="translate(-386.752 -11.569)" fill="#f2a5ba"/>
      <path id="_パス_1509" d="M396.619,17.819l.078-.039-.118.078h.039Z" transform="translate(-386.661 -11.673)" fill="#f2a5ba"/>
      <path id="_パス_1510" d="M396.474,17.72s-.118,0-.078.039C396.4,17.759,396.474,17.759,396.474,17.72Z" transform="translate(-386.595 -11.652)" fill="#f2a5ba"/>
      <path id="_パス_1511" d="M396.28,16.808h.039l.2-.118-.235.118h0Z" transform="translate(-386.557 -11.296)" fill="#f2a5ba"/>
      <path id="_パス_1512" d="M395.357,16.51s-.039,0-.157.078c0,.078.118-.039.078,0,.039,0,0-.039.078-.078Z" transform="translate(-386.184 -11.233)" fill="#f2a5ba"/>
      <path id="_パス_1513" d="M391.459,8.44l-.039.078h.039Z" transform="translate(-384.875 -8.44)" fill="#f2a5ba"/>
      <path id="_パス_1514" d="M391.219,8.618,391.3,8.5l-.118.078h0Z" transform="translate(-384.792 -8.461)" fill="#f2a5ba"/>
      <path id="_パス_1515" d="M393.568,14.33l-.078.078h0V14.33Z" transform="translate(-385.592 -10.479)" fill="#f2a5ba"/>
      <path id="_パス_1516" d="M393.37,13.819h0l.118-.039Z" transform="translate(-385.55 -10.288)" fill="#f2a5ba"/>
      <path id="_パス_1520" d="M430.047,12.158h0V12.08s-.078.118-.157.118c.079.118.079-.039.118,0h0Z" transform="translate(-398.192 -9.7)" fill="#f2a5ba"/>
      <path id="_パス_1523" d="M429.379,11.809s-.039-.02-.039-.039a.153.153,0,0,0,.039.118Z" transform="translate(-398.001 -9.593)" fill="#f2a5ba"/>
      <path id="_パス_1526" d="M429.609,12.087s0-.157-.079-.078a.076.076,0,0,1,.079.078Z" transform="translate(-398.067 -9.668)" fill="#f2a5ba"/>
      <path id="_パス_1528" d="M429.178,11.978s-.039,0-.078-.078a.373.373,0,0,0,.078.118h0Z" transform="translate(-397.918 -9.638)" fill="#f2a5ba"/>
      <path id="_パス_1531" d="M428.86,11.978V11.9l.039.118Z" transform="translate(-397.835 -9.638)" fill="#f2a5ba"/>
      <path id="_パス_1532" d="M428.7,12.018s-.078-.078-.078-.118v.118Z" transform="translate(-397.752 -9.638)" fill="#f2a5ba"/>
      <path id="_パス_1534" d="M429.059,12.158s-.039-.078-.078-.078Z" transform="translate(-397.877 -9.7)" fill="#f2a5ba"/>
      <path id="_パス_1537" d="M429.488,12.453a.3.3,0,0,1-.078-.2A.281.281,0,0,0,429.488,12.453Z" transform="translate(-398.026 -9.759)" fill="#f2a5ba"/>
      <path id="_パス_1538" d="M429.22,12.26v.078h.039A.167.167,0,0,0,429.22,12.26Z" transform="translate(-397.96 -9.762)" fill="#f2a5ba"/>
      <path id="_パス_1539" d="M428.9,12.338s0-.078-.039-.078v.078Z" transform="translate(-397.835 -9.762)" fill="#f2a5ba"/>
      <path id="_パス_1546" d="M428.675,12.865H428.6c.078.078,0,.157.118.32v-.078s0,.078.039.078c-.039-.078-.039-.157,0-.118a1.38,1.38,0,0,0-.314-.438v.118a.266.266,0,0,1,.157.157h0l.078-.039Z" transform="translate(-397.69 -9.89)" fill="#f2a5ba"/>
      <path id="_パス_1547" d="M428.529,12.5h.079a.256.256,0,0,0-.118-.118V12.5Z" transform="translate(-397.707 -9.804)" fill="#f2a5ba"/>
      <path id="_パス_1548" d="M428.74,12.419a.3.3,0,0,0,.118.235v-.118c-.039.039,0-.039-.078-.078h0V12.38h0v.078h0Z" transform="translate(-397.793 -9.804)" fill="#f2a5ba"/>
      <path id="_パス_1550" d="M429.447,12.667v.078a.2.2,0,0,0-.039-.118h0s-.118-.078-.118-.118a.674.674,0,0,0,.157.2v-.046Z" transform="translate(-397.984 -9.849)" fill="#f2a5ba"/>
      <path id="_パス_1552" d="M428.448,12.458l-.078-.078.078.118Z" transform="translate(-397.665 -9.804)" fill="#f2a5ba"/>
      <path id="_パス_1553" d="M428.359,12.528l-.039-.078v.078Z" transform="translate(-397.648 -9.828)" fill="#f2a5ba"/>
      <path id="_パス_1555" d="M425.937,14.295s-.2-.118-.118-.039l.078.078h.039Z" transform="translate(-396.775 -10.444)" fill="#f2a5ba"/>
      <path id="_パス_1556" d="M425.3,16.228h0l-.078-.078v.078Z" transform="translate(-396.575 -11.109)" fill="#f2a5ba"/>
      <path id="_パス_1557" d="M424.43,18.81l.078.078S424.508,18.849,424.43,18.81Z" transform="translate(-396.302 -12.03)" fill="#f2a5ba"/>
      <path id="_パス_1558" d="M427.358,13.29h-.078C427.319,13.29,427.4,13.368,427.358,13.29Z" transform="translate(-397.288 -10.119)" fill="#f2a5ba"/>
      <path id="_パス_1559" d="M423.58,16.93l.039.039Z" transform="translate(-396.007 -11.379)" fill="#f2a5ba"/>
      <path id="_パス_1565" d="M427.929,12.75l-.039.039h.039Z" transform="translate(-397.499 -9.932)" fill="#f2a5ba"/>
      <path id="_パス_1567" d="M426.615,15.811s-.039-.118,0-.078l-.235-.2.235.275h0Z" transform="translate(-396.977 -10.894)" fill="#f2a5ba"/>
      <path id="_パス_1568" d="M420.242,18.537a.372.372,0,0,1,.118.078h-.2s-.039.078.078.157h0a4.172,4.172,0,0,1,.556.235c-.157-.118.32.039.118-.118.039,0,.039.039.118.078q-.078-.078,0-.078h0a1.877,1.877,0,0,0,.275-.157h-.118l.078-.039c-.118-.118-.039.039-.2-.078.2.078.118-.157.32,0,0,0-.118-.039-.078-.078h.157s0-.078.039-.039h-.039a.309.309,0,0,0,.078-.32H421.5a.151.151,0,0,0,.078-.118h0s-.039-.078,0-.078c.039.039.118,0,.157.078-.039-.118-.039-.078-.2-.235h.078s-.078-.039-.078-.078c.039.078.118.039.2.118.2,0-.078-.2.157-.078-.2-.157-.157,0-.2-.039-.078,0-.118-.118-.078-.118,0,0,.275.118.32.078h0s-.039-.078.078-.039c-.118-.078,0,0-.118-.118v.078s-.2-.2-.078-.2l.078.078c.039,0,0-.039.039,0,.157.118,0,.078.078.2.078,0-.078-.118.078,0-.2-.157.079-.039-.078-.2l.078.078V17.5l.079.078s.118,0,.118-.078c-.039.078-.118-.039-.2-.078-.079-.157.274.118.32,0h.039c0-.078-.118-.039-.157-.118.118.039,0-.039-.039-.118l.078.078s-.2-.157-.078-.157l.118.118h.078V17.15c-.078,0-.157-.118-.157-.157.079,0,.079.078.118,0,.039.039.118.118,0,.078l.079.078.078-.078h0l-.078-.157s.078.039.078.078v-.078c.078.039.157.118.157.157v-.118a.075.075,0,0,1,.078.078h0c.078,0-.078-.157,0-.157h0s.157,0,.078-.157l.157.078s-.2-.078-.2-.2c0-.078.118.078.157.078-.039-.078-.157-.2,0-.157v.046h.079a.2.2,0,0,0,.157.2c-.235-.2.078-.118-.2-.32h.078s-.157-.118-.078-.157a.2.2,0,0,1,.118.039v-.085h.039a.711.711,0,0,1-.079-.157c.039,0,0,0,.039.039v-.078s.078.118.039.118c.275.157-.039-.078.157,0h0a1.588,1.588,0,0,0,.235.118.748.748,0,0,1-.32-.2s.039,0,0-.039c.079.078.079,0,.079,0l.118.078a.7.7,0,0,1-.118-.157.571.571,0,0,1,.2.118c.039,0-.157-.078-.157-.157.078,0,.039-.078,0-.157.078,0,.078.078.118.078l-.078-.078h.039s-.118-.078-.118-.118c-.118-.118.235.078.118-.078.039,0,.078.078.118.078a.4.4,0,0,0-.118-.235h.118s-.2-.118-.235-.235h-.078v-.15l.078.078h0a.315.315,0,0,1,.157.118h-.078a1.2,1.2,0,0,0,.2.157h.2a1.349,1.349,0,0,1-.235-.438,1.34,1.34,0,0,1,.235.235c-.118-.078,0,.078-.039.118,0,0,.078.039.078.078v-.157s0,.039.078.078c-.2-.157-.078-.157-.118-.2.039.039.118.118.078.118.157.078-.157-.235,0-.157h0c0-.078.039-.078.078,0h0A.169.169,0,0,0,424,14.81c-.013-.013-.02-.026-.033-.033l.2.2-.4-.556a2.707,2.707,0,0,1,.477.477s.078,0,.039-.039l-.2-.157c.157.118.079.039.235.118a1.506,1.506,0,0,1-.2-.235l.2.2-.118-.235.2.2c-.039,0,.039,0,0-.078h-.078s-.2-.32-.157-.36a.581.581,0,0,0,.275.235,2.8,2.8,0,0,1-.4-.634h.039s.32.477.4.634c.078,0,.078.078.078,0,.078.039.078.078.039.118h.118a.508.508,0,0,0-.157-.275v.2s-.235-.36-.157-.4c.039,0,.157.2.2.235h0s-.039-.2.078-.118c0,0,.157.118.118.039-.118-.118-.517-.517-.6-.634a1.321,1.321,0,0,1,.235.118c.118.078.2.275.275.36l-.039-.078s.078.118.078.078c-.078-.118.078,0-.078-.118,0-.039.039,0,.078,0a.76.76,0,0,1-.2-.36l.078.078a.274.274,0,0,0,.2-.039.256.256,0,0,1,.118.118V13.79s-.039.039.078.157c-.039-.078,0-.118-.039-.2-.078-.118-.078,0-.078.078a.966.966,0,0,1-.2-.438c0-.078.078.078.078.039.118,0-.118-.32,0-.275a.641.641,0,0,1,.2.275c0,.078-.118,0-.118,0h.078v.085c.078.078.157-.078.275-.039a.152.152,0,0,0-.039-.118h0s0-.118-.078-.118V13.07l.078.118s-.078-.039-.078,0c0-.078.157.118.078-.039l-.078-.078s-.039-.235,0-.2c-.078-.118,0,0-.118-.118.118.157-.118.039.039.2-.118-.118-.078,0-.235-.157,0,0,.078.078,0,.078h0l.039.078c.039.078,0,.118,0,.2,0,0,0-.039-.078-.078v.065s-.118-.118-.118-.2H424.6s-.118,0-.118.039V13.1h-.039s0,.2-.2.118c0,0,0,.078-.039.078l-.078-.078s-.118,0-.078.078c-.2-.157-.157.039-.235.078l.078.078a.42.42,0,0,0-.039.118l.079.078s-.118,0-.157.078h0c-.235-.118,0,.235-.157.157h0v.078l-.079-.078h0s0,.039.079.118v.078s0,.078-.118-.039c.039.078,0,.118.118.275h0l-.118-.078.118.157a1.522,1.522,0,0,1-.2-.157c.078.157,0,.078.078.235l-.078-.078s.039.118,0,.078c-.157-.078-.2.157-.4.118.235.157-.118,0,0,.118-.039,0-.078-.039-.118-.118,0,.078-.157,0,0,.157-.039,0-.078-.078-.078-.078h0a.166.166,0,0,0-.039-.078,1.129,1.129,0,0,0,.235.32q-.079,0,0,.078a.122.122,0,0,1-.118-.118s-.157.039-.039.118h0q-.039,0-.078.078h0v.118h0s0,.039-.157,0l.078.078s-.157,0-.118.078h.078a3.288,3.288,0,0,0-.36-.118V15.2c-.157,0,.118.078.118.157-.078-.039-.157-.118-.2-.118-.078,0,.118.235,0,.2a.121.121,0,0,1,.118.118c0,.039-.235-.039-.118.078h-.039s0,.118.078.157c-.32-.2,0,.235-.235.039v.078h-.078a.329.329,0,0,0,.039.157.093.093,0,0,1-.078-.039c-.118,0-.118.039,0,.2l-.118-.078s-.235,0-.157.118h0s-.4,0-.078.235v.118a1.025,1.025,0,0,0,.275.118s-.157,0-.157-.039h0a.3.3,0,0,1-.235-.039c-.078.118-.275.2-.36.32l.157.078h0s-.118,0-.078-.039c-.078,0,0,.078.078.118a.169.169,0,0,1-.157-.118h0s.118.118.078.157c-.039,0-.118-.039-.118,0h-.039l.118.078s-.039.039.118.118c-.235-.078-.2.157-.275.118.079.078,0,.118,0,.157,0,0,.157.078.118.118-.274-.157-.157,0-.359-.078.157.039,0,.118.157.2a.593.593,0,0,1-.2-.078c.039.118-.157.118-.2.235,0,0,.118,0,.157.078l-.2-.078s.2.118.039.078c0,0,.079,0,.079.039-.275.078-.079.438-.517.4q.079,0,.078.039h0l.118-.092Zm3.093-2.622s.039.078,0,.039C423.257,15.875,423.335,15.915,423.335,15.915Z" transform="translate(-394.775 -9.932)" fill="#f2a5ba"/>
      <path id="_パス_1572" d="M428.49,12.972h.078S428.49,12.893,428.49,12.972Z" transform="translate(-397.707 -9.997)" fill="#f2a5ba"/>
      <path id="_パス_1574" d="M427.872,12.873s-.078-.118,0-.078C427.832,12.677,427.872,12.951,427.872,12.873Z" transform="translate(-397.481 -9.937)" fill="#f2a5ba"/>
      <path id="_パス_1575" d="M428.62,13.23l.039.078.039.039-.078-.118Z" transform="translate(-397.752 -10.098)" fill="#f2a5ba"/>
      <rect id="_長方形_151" height="0.039" transform="translate(30.855 3.243)" fill="#f2a5ba"/>
      <path id="_パス_1578" d="M427.89,13.8s.039.039.039,0V13.72h0Z" transform="translate(-397.499 -10.268)" fill="#f2a5ba"/>
      <path id="_パス_1579" d="M428.279,13.978s-.039,0-.078-.078l.078.118h0Z" transform="translate(-397.607 -10.33)" fill="#f2a5ba"/>
      <path id="_パス_1580" d="M428.289,14.218s0-.078-.039-.078C428.25,14.14,428.25,14.258,428.289,14.218Z" transform="translate(-397.624 -10.413)" fill="#f2a5ba"/>
      <path id="_パス_1581" d="M427.218,14.4h0l-.118-.2Z" transform="translate(-397.226 -10.434)" fill="#f2a5ba"/>
      <path id="_パス_1582" d="M427.239,15.5a.076.076,0,0,1-.078-.078h0c0,.078,0,.039.118.157.078,0-.078-.118,0-.078Z" transform="translate(-397.247 -10.856)" fill="#f2a5ba"/>
      <path id="_パス_1583" d="M420.078,21.67l-.078.039h.078Z" transform="translate(-394.768 -13.02)" fill="#f2a5ba"/>
      <path id="_パス_1584" d="M420.238,21.868l-.118-.078Z" transform="translate(-394.81 -13.061)" fill="#f2a5ba"/>
      <path id="_パス_1586" d="M424.978,18.108h0l-.118-.078Z" transform="translate(-396.45 -11.76)" fill="#f2a5ba"/>
      <path id="_パス_1588" d="M435.29,44.918l.079-.078S435.29,44.958,435.29,44.918Z" transform="translate(-400.061 -21.04)" fill="#f2a5ba"/>
      <path id="_パス_1589" d="M434.909,45.119l.039-.039-.078.078.039-.039Z" transform="translate(-399.915 -21.123)" fill="#f2a5ba"/>
      <path id="_パス_1590" d="M434.884,45s-.118.078-.078,0c-.078.157.039,0,0,.039h0l.078-.078h0Z" transform="translate(-399.884 -21.082)" fill="#f2a5ba"/>
      <path id="_パス_1593" d="M434.948,44.42a.376.376,0,0,0-.078.118h.039V44.42Z" transform="translate(-399.915 -20.895)" fill="#f2a5ba"/>
      <path id="_パス_1596" d="M434.8,44.794s.078-.118.039-.078A.093.093,0,0,1,434.8,44.794Z" transform="translate(-399.891 -20.994)" fill="#f2a5ba"/>
      <path id="_パス_1598" d="M434.768,44.5V44.42a.369.369,0,0,1-.078.118h0Z" transform="translate(-399.853 -20.895)" fill="#f2a5ba"/>
      <path id="_パス_1600" d="M434.62,44.9l.118-.118Z" transform="translate(-399.829 -21.019)" fill="#f2a5ba"/>
      <path id="_パス_1601" d="M434.75,44.318l.078-.078Z" transform="translate(-399.874 -20.832)" fill="#f2a5ba"/>
      <path id="_パス_1602" d="M434.69,44.228s.039-.118.078-.118l-.078.078Z" transform="translate(-399.853 -20.787)" fill="#f2a5ba"/>
      <path id="_パス_1607" d="M434.5,44.937a.314.314,0,0,1,.118-.157C434.618,44.819,434.539,44.858,434.5,44.937Z" transform="translate(-399.787 -21.019)" fill="#f2a5ba"/>
      <path id="_パス_1608" d="M434.56,44.738a.168.168,0,0,1,.039-.078h-.039Z" transform="translate(-399.808 -20.978)" fill="#f2a5ba"/>
      <path id="_パス_1616" d="M433.973,44.73v-.078c-.039.118-.118.118-.2.275h0c.039-.078.118-.157.078-.039a3.471,3.471,0,0,0,.275-.477.129.129,0,0,1-.078.118.281.281,0,0,1-.078.2h0Z" transform="translate(-399.535 -20.891)" fill="#f2a5ba"/>
      <path id="_パス_1617" d="M434.359,44.438h0l.039-.078-.079.078Z" transform="translate(-399.725 -20.874)" fill="#f2a5ba"/>
      <path id="_パス_1618" d="M434.318,44.616a.251.251,0,0,1,.039-.118h0V44.42h-.039c-.039.078-.079.118-.118.2,0,0,.039-.078.078-.078h0Z" transform="translate(-399.684 -20.895)" fill="#f2a5ba"/>
      <path id="_パス_1619" d="M434.417,44.858a1.915,1.915,0,0,0-.118.2h-.039a.5.5,0,0,0,.078-.124h0a.59.59,0,0,1,.078-.157h0Z" transform="translate(-399.704 -21.019)" fill="#f2a5ba"/>
      <path id="_パス_1620" d="M434.26,44.939v.078h0a.2.2,0,0,1,.039-.118h-.039Z" transform="translate(-399.704 -21.061)" fill="#f2a5ba"/>
      <path id="_パス_1621" d="M434.359,44.358l.078-.118-.118.118Z" transform="translate(-399.725 -20.832)" fill="#f2a5ba"/>
      <path id="_パス_1622" d="M434.32,44.329h0l.039-.039Z" transform="translate(-399.725 -20.85)" fill="#f2a5ba"/>
      <path id="_パス_1624" d="M433.05,43.677s.078-.2,0-.118v.078h0Z" transform="translate(-399.285 -20.589)" fill="#f2a5ba"/>
      <path id="_パス_1627" d="M433.761,44.128V44.05C433.761,44.089,433.722,44.168,433.761,44.128Z" transform="translate(-399.525 -20.767)" fill="#f2a5ba"/>
      <path id="_パス_1635" d="M431.947,44.924l.078-.078.118-.235-.2.32h0Z" transform="translate(-398.901 -20.96)" fill="#f2a5ba"/>
      <path id="_パス_1636" d="M431.94,43.838s.118-.118.118-.078l-.078.118v-.039c.039-.039-.078.2.039,0V43.76a1.227,1.227,0,0,1,.157-.118c.078-.118,0,0,.039-.118-.078.2-.039,0-.118.157.078-.157,0-.078.078-.235,0,.039,0,.078-.039.039h0V43.6c-.052.039-.111.078-.157.118a.093.093,0,0,1,.039-.078v.078a.465.465,0,0,1,.039-.2h0v-.072h-.039s-.157.118-.078-.039H431.9v-.078h0c.118-.2-.039-.078-.039-.118v.118H431.7v.078l-.079-.078h0c.079-.235-.157.118-.118-.039h0v-.072h0s0,.039-.079.118h-.039s-.039.078,0-.078c-.039.078-.078,0-.157.2h0a.533.533,0,0,1,.039-.2l-.157.157v-.085h0c.039-.157-.118-.078-.078-.235-.118.235,0-.118-.078.078,0-.039,0-.078.078-.118-.039.039,0-.118-.078,0,0-.039.039-.078.078-.118h0a.168.168,0,0,1,.039-.078,2.031,2.031,0,0,0-.2.32q0-.078-.039,0c0-.039,0-.118.078-.118,0,0,0-.118-.078,0H430.8s0,.039-.078.078h0s-.039,0,0-.118v.118c-.157.2,0-.157-.078-.078v.078s.078-.32.078-.36v-.046c0-.157-.078.118-.118.157,0-.078.078-.157.078-.2,0-.078-.157.2-.118.078a.165.165,0,0,1-.078.157s0-.235-.039-.078h0s-.078,0-.118.118c.118-.36-.157.118,0-.2h0a.129.129,0,0,0-.118.078v-.072q0-.078-.118.078v-.118s0-.2-.039-.078h0s0-.36-.157,0l-.078.078a.774.774,0,0,0-.079.235V42.8h0v-.2c-.078,0-.118-.157-.2-.2v.157h-.078s0-.157.039-.118c0-.078-.039.078-.079.118a.546.546,0,0,1,.079-.2h0s-.039.157-.079.157v-.1h0v.078s-.039,0-.078.118c.039-.235-.118-.118-.078-.2-.039.078-.078.078-.078.078s0,.157-.039.157c.078-.275,0-.118,0-.36,0,.157-.078,0-.118.235v-.2c-.078.118-.078-.078-.157-.078a.328.328,0,0,1-.039.157v-.2s-.039.235,0,.078v.078c-.078-.2-.275.118-.32-.275v.078s-.078,0-.078.157h0s-.039.36-.078.556c.039-.2,0,.275.078,0v.137c0-.078,0-.118.039-.078h0a.314.314,0,0,0,.118.157v-.046c.039-.157,0,0,0-.2,0,.2.078,0,.039.275,0,0,0-.118.039-.118h0v.157h.039a.239.239,0,0,0,.2-.118h.078l.039-.039a.256.256,0,0,1-.039.157c.079-.078.039-.078.118-.235v.085s0-.118.039-.118a.215.215,0,0,1-.078.2c0,.2.118-.157.078.118.078-.2,0-.118,0-.157,0-.078.078-.157.078-.118,0,0-.078.275,0,.275h0c.039-.118,0,0,.079-.157h-.039s.118-.2.118-.078a.2.2,0,0,1-.039.118h0c-.039.157-.039,0-.118.157,0,.078.079-.118,0,.078.079-.235,0,0,.118-.118V43.3h0v.078s-.039.118,0,.039a.533.533,0,0,1,.039-.2c.079-.118-.078.275,0,.235h0c.039,0,0-.118.079-.157,0,.118,0-.039.078-.078v.118s.039-.2.039-.118l-.078.118h0v.078h0a.545.545,0,0,1,.078-.2c0,.078-.039.078,0,.078,0,.078-.078.157-.039.039v.078h0l.078-.118s0,.078-.039.078v-.078a.466.466,0,0,1-.039.2l.078-.078v.118c0,.039.118-.157.118-.078h0s0,.078.078,0v.157s0-.2.079-.235c.039,0-.039.118-.039.157.039-.078.118-.2.118-.078h0v.078a.634.634,0,0,0-.118.2c.118-.275.078,0,.2-.275v.078h0s.118-.2.118-.118v.039h.078s.078-.039.078-.078V43.5c-.118.275.039-.078,0,.118h0a.714.714,0,0,1-.039.235,1,1,0,0,1,.118-.32h0c-.039.118,0,.078,0,.078v-.046a.281.281,0,0,1-.079.2.594.594,0,0,1,.079-.2c0,.078,0,0,.118-.039,0,.039-.039.078-.039.118l.078-.118h0s.079-.078.079-.118c.078-.157-.079.235,0,.078a.372.372,0,0,1-.079.118.765.765,0,0,0,.157-.2v.078a2.907,2.907,0,0,1,.157-.32v-.111h.118l-.079.078h0l-.078.157V43.2l-.118.235h0l-.078.118h0l.275-.32a2.907,2.907,0,0,0-.157.32c.039-.118-.078.039-.078,0,0,0,0,.078-.039.078l.118-.118a.2.2,0,0,1-.039.118c.078-.2.078-.118.157-.2a.129.129,0,0,1-.078.118c-.039.157.157-.235.118-.078h0c.039-.039.039,0,0,.078h0s.078.039.2-.118l-.118.235.36-.556a4.37,4.37,0,0,1-.32.6h0s.078-.235.118-.235c-.078.157,0,.078-.078.235,0,0,.118-.275.157-.235l-.118.235.157-.2a1.02,1.02,0,0,0-.118.275c0-.039,0,0,.039,0h0s.2-.36.235-.32c0,.039-.157.275-.157.32.079-.118.32-.556.4-.634h0s-.32.517-.4.634v.078a.075.075,0,0,1-.078.078h0v.078a1.744,1.744,0,0,0,.2-.235l-.118.118s.235-.36.235-.32a1.035,1.035,0,0,1-.157.275c0-.039.078-.078.078-.039v.078h0s-.078.2,0,.118c.078-.157.32-.634.4-.752a1.422,1.422,0,0,1-.078.235,2.2,2.2,0,0,1-.235.4s.039-.078.078-.078c0,0-.078.118-.039.118l.078-.118h0a2.888,2.888,0,0,1,.235-.32v.118s-.039.078,0,.118a.129.129,0,0,1-.078.118v.078c.039-.078.078-.078.118-.118.078-.118,0,0-.039,0a1.667,1.667,0,0,1,.275-.4c.039,0-.039.118,0,.078,0,.039.2-.275.2-.118a1.873,1.873,0,0,1-.157.275c-.039,0,0-.078,0-.078h0s-.039.118-.039.078c-.039.118.078.078.039.157a.367.367,0,0,1,.078-.118h0a.7.7,0,0,0,.118-.157h0l-.458.255Z" transform="translate(-397.659 -20.078)" fill="#f2a5ba"/>
      <path id="_パス_1642" d="M434.07,44.239s.078-.118.039-.078C434.188,44.082,433.992,44.278,434.07,44.239Z" transform="translate(-399.632 -20.798)" fill="#f2a5ba"/>
      <path id="_パス_1643" d="M433.84,45.048v.039l.039-.118Z" transform="translate(-399.559 -21.085)" fill="#f2a5ba"/>
      <path id="_パス_1646" d="M433.47,44.759V44.8l.039-.078h0Z" transform="translate(-399.431 -20.998)" fill="#f2a5ba"/>
      <path id="_パス_1648" d="M433.164,45.348a.418.418,0,0,0,.039-.078S433.125,45.348,433.164,45.348Z" transform="translate(-399.321 -21.189)" fill="#f2a5ba"/>
      <path id="_パス_1649" d="M432.93,44.673h0l.118-.2Z" transform="translate(-399.244 -20.912)" fill="#f2a5ba"/>
      <path id="_パス_1650" d="M432.218,45.228V45.15c-.039.039,0,0-.078.157,0,.078.078-.118.039-.039h0Z" transform="translate(-398.97 -21.147)" fill="#f2a5ba"/>
      <path id="_パス_1651" d="M428.229,42.188l-.039-.078v.078Z" transform="translate(-397.603 -20.095)" fill="#f2a5ba"/>
      <path id="_パス_1654" d="M430.539,44.718l.039-.118-.078.118Z" transform="translate(-398.403 -20.957)" fill="#f2a5ba"/>
      <path id="_パス_1658" d="M408.106,63.16V63.2h.079S408.067,63.2,408.106,63.16Z" transform="translate(-390.648 -27.382)" fill="#f2a5ba"/>
      <path id="_パス_1703" d="M407,61.294h.36c.078,0,.2,0,.118.039h.36c-.2,0,0-.039-.2,0h.17s.078-.039,0-.039h0s-.157-.078,0-.118h.078s.078,0,0-.039c.235,0,.039-.039.078-.078h-.118l-.078-.039h-.118a.075.075,0,0,0,.078-.078h0c.235,0-.157-.039,0-.078h-.275c.2,0,0-.078.2-.118h.078c-.078,0,.118,0-.078-.039h-.078s.078-.039-.079-.039h-.1s-.078,0,.078-.039h-.118c-.235,0,.157,0,.039-.039h-.078a1.35,1.35,0,0,0,.36-.039h.078s-.275-.039-.118-.078h-.157s.235-.039,0-.039h-.157c.4-.039-.2-.039.157-.078h0a.258.258,0,0,0-.157-.078h.078c.078,0,.039-.039-.118-.039h.118s.2-.078.039-.078h.039c-.157,0,.32-.118-.118-.078h-.346s.118-.039.157,0h0c.235,0,.078-.039.235-.039,0-.039.118-.118.079-.2h-.275c.235-.039.078-.118.157-.118h-.235c.32,0,.118-.039.36-.078-.157,0-.039-.039-.235,0h.2c-.118,0,.078-.078,0-.118h.039s-.235,0-.078-.078H407.3s-.2-.118.157-.235h-.235l.157-.078h-.157l-.595.118c.2,0-.275.078,0,.078h-.039l-.118.118h0l.2-.039c-.235.039,0,.078-.235.118h.039s0,.078.118.078h.039s-.039,0,0,.039h0c-.2.039.2,0-.078.078.235,0,.118-.039.2-.039h.157s-.32.039-.32.078h-.118s-.118.078,0,.078a.533.533,0,0,0,.2-.039c.157,0-.275.039-.235.078h.118s.079,0,0,.039h0a.689.689,0,0,1-.157.039c-.039,0,.2,0,.118.039h.039s-.118.039,0,.039h-.294c.32,0,0,.039.36,0h.2s0,.039-.078.039h-.078c-.32,0,.078,0-.118.039h-.039a.711.711,0,0,0-.235.039,1.106,1.106,0,0,1,.36,0H406.6c-.039,0,0,0,.118.039h.157c.157,0-.235.039-.039.039H406.6s.438.078.516.078h-.36c.157,0-.078,0,0-.039h.039a.328.328,0,0,0-.157.039h.157s0,.078.2.078h.4s-.595.039-.673.039h-.275a1.979,1.979,0,0,0,.275.039h.752a.961.961,0,0,0-.275.039h-.078s-.078.039-.078.078h.32c0,.039.36,0,.2.078h-.36c-.118,0,0,.078-.118.078h0l-.059.562Z" transform="translate(-390.015 -25.987)" fill="#f2a5ba"/>
      <path id="_パス_1710" d="M407.56,62.6l.118-.039h-.118Z" transform="translate(-390.462 -27.174)" fill="#f2a5ba"/>
      <path id="_パス_1724" d="M381.41,45.669l.039.039-.039-.078Z" transform="translate(-381.41 -21.313)" fill="#f2a5ba"/>
      <path id="_パス_1725" d="M381.54,45.593h0v.078s.039-.118.078-.078C381.54,45.436,381.618,45.593,381.54,45.593Z" transform="translate(-381.455 -21.277)" fill="#f2a5ba"/>
      <path id="_パス_1733" d="M382.08,45.979l.039.078a.2.2,0,0,0-.039-.118h0Z" transform="translate(-381.642 -21.421)" fill="#f2a5ba"/>
      <rect id="_長方形_160" height="0.118" transform="translate(0.262 24.356)" fill="#f2a5ba"/>
      <path id="_パス_1735" d="M382.239,46.089v.078l-.039-.118.039.039Z" transform="translate(-381.684 -21.459)" fill="#f2a5ba"/>
      <path id="_パス_1736" d="M382.32,46.05a.694.694,0,0,1,.039.157v-.118h-.039Z" transform="translate(-381.725 -21.459)" fill="#f2a5ba"/>
      <path id="_パス_1738" d="M382.08,45.87s0,.078.039.078V45.87Z" transform="translate(-381.642 -21.397)" fill="#f2a5ba"/>
      <path id="_パス_1741" d="M381.84,45.45a1.1,1.1,0,0,1,.039.2A.431.431,0,0,0,381.84,45.45Z" transform="translate(-381.559 -21.251)" fill="#f2a5ba"/>
      <path id="_パス_1743" d="M382.239,45.849V45.81H382.2v.039Z" transform="translate(-381.684 -21.376)" fill="#f2a5ba"/>
      <path id="_パス_1750" d="M382.239,45.142l.039.078c-.039-.118,0-.157-.078-.32v.078a1.545,1.545,0,0,0,.2.477v-.118c0-.039-.078-.078-.078-.157h0l-.085-.039Z" transform="translate(-381.684 -21.061)" fill="#f2a5ba"/>
      <path id="_パス_1751" d="M382.39,45.75h0s0,.039.078.118V45.75Z" transform="translate(-381.749 -21.355)" fill="#f2a5ba"/>
      <path id="_パス_1752" d="M382.278,45.625a.378.378,0,0,0-.078-.235v.118a.168.168,0,0,0,.039.078h0v.078h0l.039-.039Z" transform="translate(-381.684 -21.23)" fill="#f2a5ba"/>
      <path id="_パス_1753" d="M381.84,45.288a.7.7,0,0,1,.078.157.5.5,0,0,0-.078-.235h0v.118h0Z" transform="translate(-381.559 -21.168)" fill="#f2a5ba"/>
      <path id="_パス_1755" d="M382.45,45.789l.039.078-.039-.118Z" transform="translate(-381.77 -21.355)" fill="#f2a5ba"/>
      <path id="_パス_1756" d="M382.51,45.75l.039.078v-.039l-.039-.039Z" transform="translate(-381.791 -21.355)" fill="#f2a5ba"/>
      <path id="_パス_1758" d="M384.02,45.27s.118.2.078.078V45.27Z" transform="translate(-382.314 -21.189)" fill="#f2a5ba"/>
      <path id="_パス_1761" d="M383.114,45.492s.02.039.039.039C383.154,45.492,383.075,45.414,383.114,45.492Z" transform="translate(-381.996 -21.254)" fill="#f2a5ba"/>
      <path id="_パス_1769" d="M383.78,43.567v.078l.118.275-.118-.36Z" transform="translate(-382.23 -20.597)" fill="#f2a5ba"/>
      <path id="_パス_1770" d="M386.68,42.7s-.157-.36-.235-.556c.039.2-.157-.235-.078,0V42.1h0a1.083,1.083,0,0,1-.2-.078h0c.039.157.039,0,.078.157-.078-.2-.118,0-.2-.2,0,0,.039.118,0,.118h0s-.079-.078-.079-.118h-.039a.2.2,0,0,0-.157.2h0s-.039,0-.079.078h0v.078c0-.039-.078-.118-.078-.157a.96.96,0,0,0,.039.275v.078c0-.078-.078-.118-.078-.2-.118-.157,0,.2-.118-.039.078.235.078.118.078.157,0,.078.039.157,0,.157,0,0-.118-.275-.157-.235h0s0,.078-.039,0c.039.118,0,0,0,.157h0s.039.2,0,.118v-.111h0c-.078-.157,0-.039,0-.2,0-.078,0,.118-.039-.039.078.235-.039,0,0,.157h0l-.078-.118s-.078-.078-.078,0c.039,0,.078.118.118.2,0,.157-.118-.235-.157-.157l.078.078-.078-.078a.691.691,0,0,1,.039.157c-.078-.118,0,.039,0,.118v-.118H385.1v-.072s-.039.078-.078.039c0,.078.078.2.039.2,0-.039,0-.078-.039-.078,0-.078-.039-.157,0-.039V42.5h-.078v.118a1.09,1.09,0,0,1-.078-.2v.118s-.078-.078-.078-.118c-.039-.039,0,.2-.039.118h0s-.118-.039-.078.078l-.078-.157s.118.157.078.235c0,.039-.078-.118-.078-.157,0,.078.039.235,0,.118h0v-.072a.57.57,0,0,0-.118-.2c.118.275-.078.078.039.36h-.039v-.072s.078.2,0,.2a.176.176,0,0,1-.039-.078v.078h-.039v.118s-.039-.157,0-.157c-.157-.275,0,.078-.118-.078h0c-.078-.2-.078-.118-.157-.235,0,.039.157.235.157.32h0c-.039-.118-.039-.078-.039-.078V42.8a1.911,1.911,0,0,1-.118-.2,1.086,1.086,0,0,1,.078.2q-.059-.059,0,.118a.133.133,0,0,0-.033-.118v.118h0a.418.418,0,0,1,.039.118c.039.157-.118-.2-.079,0a.2.2,0,0,0-.039-.118v.235l-.078-.078s.078.235.118.32l.079.118v.078a.2.2,0,0,0-.039-.118h0l-.078-.157v.078a.711.711,0,0,0-.039-.235h0l-.085-.118h0v.477c0-.118-.078-.2-.118-.32.078.118,0-.078.039-.039l-.039-.078v.157a.135.135,0,0,0-.085-.118c.079.2,0,.157,0,.235,0-.078-.039-.157,0-.118-.078-.157.079.275,0,.118h0c0,.078,0,0-.039,0h0s-.118,0-.039.2l-.079-.235.157.634a4.686,4.686,0,0,1-.235-.595h0a1.958,1.958,0,0,1,.118.235l-.118-.235s.118.275.078.275a1.731,1.731,0,0,0-.118-.275l.079.235s-.079-.2-.118-.275h0s.078.4.039.4c0-.039-.118-.32-.157-.32,0,.118.2.595.2.713h0s-.2-.6-.235-.752c0-.039,0-.078-.039-.078v-.124h-.078a.423.423,0,0,0,.078.235v-.157s.118.4.079.4a1.468,1.468,0,0,0-.118-.32h0s0,.2-.039.078c0,0-.078-.157-.078-.078.078.157.275.673.32.791,0,0-.118-.157-.157-.2-.078-.118-.078-.32-.157-.4v.118s-.039-.118-.039-.078c.039.157-.039,0,0,.118,0,.039,0,0-.039,0,.039.078.118.32.078.36a.2.2,0,0,0-.039-.118c-.039,0-.078-.078-.118-.039a.373.373,0,0,0-.078-.118v.078l-.039-.157v.2c.039.118.039,0,.039-.039a1.222,1.222,0,0,1,.118.477c0,.039-.039-.118-.039-.078-.078,0,.078.32,0,.2a1.452,1.452,0,0,1-.118-.32c0-.039.078.078.078.039h-.039v-.085c-.039-.078-.118,0-.2-.078V44.1h0s0,.118.039.157h0c0,.078-.118-.157-.039,0v.078s.078.2.039.2c.039.118,0,0,.078.118-.078-.2.078,0,0-.2a1.028,1.028,0,0,0,.118.2v-.078h0v-.288a1.082,1.082,0,0,1,.078.2h0s.078.078.078,0h0v-.085h0s0-.157.118,0v.039s.118.078.078,0c.118.2.079,0,.157.039v-.275s.059.02.078,0h0c.118.2,0-.2.118-.039h.078l-.039-.078V44.02s0-.078.079.118a.963.963,0,0,0-.039-.275h0v-.039a1.584,1.584,0,0,1,.118.235V43.9s0-.118.039-.039c.078.157.118,0,.235.118-.118-.235.078.078,0-.078,0,.039.039.078.078.157,0-.078.078.078.039-.078a.153.153,0,0,0,.039.118h0v.078a1.778,1.778,0,0,0-.118-.36c.039.078.039.039,0-.039,0,.039.078.118.039.118,0,0,.118.039.039-.078h.039v-.078h0s0-.039.118.078v-.078c-.118-.2.039.118.039,0h0s.157.235.2.235v.039c.078.118-.039-.118,0-.157a.547.547,0,0,0,.078.2c0,.039-.039-.235.039-.118a.324.324,0,0,0-.078-.157s.157.2.078,0h0v-.163c.157.36,0-.2.157.118h.039V43.66c.078.039.078,0,.039-.157v.118s.2.118.157,0h0s.235.275.079-.078v-.118l-.118-.235s.078.078.078.118h0s.078,0,.118.157c.078-.039.2,0,.275,0l-.078-.157h0s.039.118,0,.118c.039.078,0-.078,0-.118.078.039.039.2.078.2h0v-.163l.039.078h.039l-.078-.118V43.19c.118.2.157,0,.2.078V43.15s-.078-.157-.039-.157c.118.275.078.118.2.32-.078-.118.039-.039-.039-.235a.588.588,0,0,0,.078.157c0-.118.118,0,.157,0a.349.349,0,0,1-.039-.157l.118.157s-.078-.2,0-.078v-.078s.118-.235.36.078c-.039-.078,0-.078,0-.078h0s.078,0,.039-.157h0l.111-.2Z" transform="translate(-381.836 -20.05)" fill="#f2a5ba"/>
      <path id="_パス_1774" d="M382.429,45.321s0-.039-.039,0Z" transform="translate(-381.749 -21.2)" fill="#f2a5ba"/>
      <path id="_パス_1777" d="M382.32,44.939V44.9l.039.118Z" transform="translate(-381.725 -21.061)" fill="#f2a5ba"/>
      <path id="_パス_1783" d="M383.23,44.54h0l.078.2Z" transform="translate(-382.04 -20.936)" fill="#f2a5ba"/>
      <path id="_パス_1784" d="M383.354,43.645a.167.167,0,0,0,.039.078c0-.039,0,0-.039-.157C383.315,43.527,383.393,43.684,383.354,43.645Z" transform="translate(-382.079 -20.597)" fill="#f2a5ba"/>
      <path id="_パス_1785" d="M388.94,43.45l.039.039Z" transform="translate(-384.017 -20.559)" fill="#f2a5ba"/>
      <path id="_パス_1788" d="M385.18,42.78h0l.078.118Z" transform="translate(-382.715 -20.327)" fill="#f2a5ba"/>
    </g>
    <path id="Path_2067" data-name="Path 2067" d="M4.148-2.084l-1.323.1-.916.077-.477.038a.138.138,0,0,1-.112-.077.27.27,0,0,1-.05-.146A.1.1,0,0,1,1.3-2.172a.217.217,0,0,1,.077-.038.362.362,0,0,0,.058-.019q.008-.415.008-1.939a13.106,13.106,0,0,0-.088-1.743q-.088-.619-.088-.666a.2.2,0,0,1,.081-.169.271.271,0,0,1,.165-.062.1.1,0,0,1,.085.042.326.326,0,0,1,.046.135,5.066,5.066,0,0,1,.119.962q.042.7.042,1.462,0,.646-.008,1.2t-.008.746l.385-.027.585-.042q.446-.054,1.008-.162a4.8,4.8,0,0,1,.546-.085.1.1,0,0,1,.108.077.648.648,0,0,1,.023.185.189.189,0,0,1-.088.162A.407.407,0,0,1,4.148-2.084Zm7-1.508a2.143,2.143,0,0,1-.2.608,2.731,2.731,0,0,1-.616.869,1.4,1.4,0,0,1-1.012.4,1.163,1.163,0,0,1-.823-.308,1.234,1.234,0,0,1-.331-.946,2.768,2.768,0,0,1,.277-1.189,2.766,2.766,0,0,1,.723-.962,1.428,1.428,0,0,1,.923-.373.867.867,0,0,1,.481.127.409.409,0,0,1,.2.365.7.7,0,0,1-.3.523,2.883,2.883,0,0,1-.789.446,4.822,4.822,0,0,1-1,.277,2.737,2.737,0,0,0-.092.692,1.03,1.03,0,0,0,.212.692.753.753,0,0,0,.6.246,1.216,1.216,0,0,0,.962-.423,4,4,0,0,0,.616-.954q.015-.031.054-.119t.069-.088Q11.15-3.707,11.15-3.592ZM10-5.177a.953.953,0,0,0-.562.192,1.79,1.79,0,0,0-.45.462,1.622,1.622,0,0,0-.235.477,2.748,2.748,0,0,0,.746-.2,3.2,3.2,0,0,0,.658-.354q.265-.192.265-.315a.212.212,0,0,0-.127-.192A.609.609,0,0,0,10-5.177Zm7.733.554-.793.138-.5.085q0,.4.012.839t.035.769a3.032,3.032,0,0,0,.108.685q.077.239.085.269a.18.18,0,0,1-.1.142.326.326,0,0,1-.181.065.113.113,0,0,1-.077-.027.218.218,0,0,1-.054-.088,1.838,1.838,0,0,1-.088-.4q-.042-.292-.065-.646-.023-.315-.035-.735t-.012-.812q-.431.069-.885.169a4.031,4.031,0,0,1-.485.085.306.306,0,0,1-.173-.054.167.167,0,0,1-.081-.146.128.128,0,0,1,.069-.131.618.618,0,0,1,.231-.031,1.982,1.982,0,0,0,.339-.042q.223-.042.285-.058.516-.1.7-.131,0-.162-.015-.423-.015-.354-.015-.539a4.292,4.292,0,0,1,.019-.466,1.114,1.114,0,0,1,.073-.3.228.228,0,0,1,.231-.154.134.134,0,0,1,.092.023.119.119,0,0,1,.023.085,2.523,2.523,0,0,1-.038.269,3.635,3.635,0,0,0-.038.592q0,.285.015.639l.008.208q.346-.054,1.37-.285a.172.172,0,0,0,.1-.108q.042-.092.088-.092a.245.245,0,0,1,.173.1.29.29,0,0,1,.088.2.222.222,0,0,1-.112.2A1.11,1.11,0,0,1,17.728-4.623Zm4.517-.985a.2.2,0,0,1-.1.031.157.157,0,0,1-.131-.077,1.8,1.8,0,0,1-.031-.477L21.968-6.6a3.494,3.494,0,0,0-.054-.385,2.832,2.832,0,0,1-.046-.369q0-.108.046-.138a.208.208,0,0,1,.1-.015.427.427,0,0,1,.162.035.224.224,0,0,1,.115.088,1.44,1.44,0,0,1,.069.358,5.122,5.122,0,0,1,.031.573,3.651,3.651,0,0,1-.038.566Q22.314-5.646,22.245-5.608Zm5.024,4.124a1.077,1.077,0,0,1-.446-.062.187.187,0,0,1-.115-.169q0-.069.177-.242t.239-.173q.092,0,.092.038a.083.083,0,0,1-.038.062q-.038.031-.038.054t.1.062a.777.777,0,0,0,.235.031A1.887,1.887,0,0,0,28.119-2a1.566,1.566,0,0,0,.535-.312.557.557,0,0,0,.208-.408.433.433,0,0,0-.131-.331.8.8,0,0,0-.327-.181q-.2-.058-.658-.165-.508-.115-.789-.2a1.391,1.391,0,0,1-.45-.223.419.419,0,0,1-.169-.342.886.886,0,0,1,.362-.677,2.787,2.787,0,0,1,.831-.485,2.247,2.247,0,0,1,.723-.177q.262,0,.262.154a.429.429,0,0,1-.062.2.2.2,0,0,1-.185.112.188.188,0,0,1-.1-.035.2.2,0,0,0-.108-.035,1.9,1.9,0,0,0-.485.1,1.939,1.939,0,0,0-.6.3.589.589,0,0,0-.269.485.291.291,0,0,0,.212.273,5.583,5.583,0,0,0,.789.219.912.912,0,0,0,.138.035,1.124,1.124,0,0,1,.123.027,3.586,3.586,0,0,1,.908.315.573.573,0,0,1,.315.531.978.978,0,0,1-.273.65,1.942,1.942,0,0,1-.719.5A2.369,2.369,0,0,1,27.269-1.484Zm11.365-.3q-.092,0-.173-.219a2.05,2.05,0,0,1-.081-.666q.008-.869.027-2.1t.035-1.854a1.287,1.287,0,0,1,.081-.415.261.261,0,0,1,.258-.192.079.079,0,0,1,.081.065,1.054,1.054,0,0,1,.019.25q0,.008,0,.05t0,.15q-.138,2.024-.138,3.947a1.4,1.4,0,0,0,.112.523q.112.277.112.292,0,.077-.1.123A.526.526,0,0,1,38.634-1.784Zm4.447-4.663a.427.427,0,0,1-.265-.108q-.135-.108-.135-.177a.224.224,0,0,1,.081-.162.241.241,0,0,1,.165-.077l.058.019a.357.357,0,0,1,.135.1,1.684,1.684,0,0,1,.139.162.377.377,0,0,1,.077.123Q43.335-6.447,43.081-6.447Zm.231,4.878q-.108-.008-.158-.346T43.05-3.2Q43.02-3.823,43-4.419t-.031-.919a.24.24,0,0,1,.027-.127.114.114,0,0,1,.1-.042.207.207,0,0,1,.223.146,2.214,2.214,0,0,1,.046.562l-.008.908q0,.777.046,1.246,0,.023.069.492a3.305,3.305,0,0,1,.054.431.134.134,0,0,1-.065.119A.23.23,0,0,1,43.312-1.568Zm7.817-3.87a4.624,4.624,0,0,0-.746,1.3,10.179,10.179,0,0,0-.546,1.831q-.023.115-.077.462l-.038.269a.322.322,0,0,1-.1.192.437.437,0,0,1-.281.069,1.679,1.679,0,0,1-.262-.466q-.223-.466-.469-1l-.331-.723q-.3-.654-.5-1.023T47.482-4.9a.057.057,0,0,0-.05.038q-.019.038-.042.038a.08.08,0,0,1-.065-.035.117.117,0,0,1-.027-.073.51.51,0,0,1,.112-.262q.112-.162.219-.162a.182.182,0,0,1,.115.031.442.442,0,0,1,.069.069q.031.038.046.062A7.715,7.715,0,0,1,48.5-3.977q.162.346.8,1.808l.177.408a4.316,4.316,0,0,1,.077-.646,10.492,10.492,0,0,1,.508-1.8A5.983,5.983,0,0,1,50.852-5.7,1.177,1.177,0,0,1,51-5.873a.221.221,0,0,1,.15-.05q.038,0,.123.119a.4.4,0,0,1,.085.158q0,.038-.1.108A.615.615,0,0,0,51.129-5.439Zm6.609,1.847a2.143,2.143,0,0,1-.2.608,2.731,2.731,0,0,1-.616.869,1.4,1.4,0,0,1-1.012.4,1.163,1.163,0,0,1-.823-.308,1.234,1.234,0,0,1-.331-.946,2.768,2.768,0,0,1,.277-1.189,2.766,2.766,0,0,1,.723-.962,1.428,1.428,0,0,1,.923-.373.867.867,0,0,1,.481.127.409.409,0,0,1,.2.365.7.7,0,0,1-.3.523,2.882,2.882,0,0,1-.789.446,4.822,4.822,0,0,1-1,.277,2.737,2.737,0,0,0-.092.692,1.03,1.03,0,0,0,.212.692.753.753,0,0,0,.6.246,1.216,1.216,0,0,0,.962-.423,4,4,0,0,0,.616-.954q.015-.031.054-.119t.069-.088Q57.739-3.707,57.739-3.592ZM56.585-5.177a.953.953,0,0,0-.562.192,1.79,1.79,0,0,0-.45.462,1.623,1.623,0,0,0-.235.477,2.748,2.748,0,0,0,.746-.2,3.2,3.2,0,0,0,.658-.354q.265-.192.265-.315a.212.212,0,0,0-.127-.192A.609.609,0,0,0,56.585-5.177ZM67.134-1.784q-.092,0-.173-.219a2.05,2.05,0,0,1-.081-.666q.008-.869.027-2.1t.035-1.854a1.287,1.287,0,0,1,.081-.415.261.261,0,0,1,.258-.192.079.079,0,0,1,.081.065,1.053,1.053,0,0,1,.019.25q0,.008,0,.05t0,.15q-.139,2.024-.139,3.947a1.4,1.4,0,0,0,.112.523q.112.277.112.292,0,.077-.1.123A.526.526,0,0,1,67.134-1.784Zm4.447-4.663a.427.427,0,0,1-.265-.108q-.135-.108-.135-.177a.224.224,0,0,1,.081-.162.241.241,0,0,1,.165-.077l.058.019a.357.357,0,0,1,.135.1,1.683,1.683,0,0,1,.138.162.377.377,0,0,1,.077.123Q71.835-6.447,71.581-6.447Zm.231,4.878q-.108-.008-.158-.346T71.55-3.2q-.031-.623-.054-1.22t-.031-.919a.24.24,0,0,1,.027-.127.114.114,0,0,1,.1-.042.207.207,0,0,1,.223.146,2.214,2.214,0,0,1,.046.562l-.008.908q0,.777.046,1.246,0,.023.069.492a3.3,3.3,0,0,1,.054.431.134.134,0,0,1-.065.119A.23.23,0,0,1,71.812-1.568Zm7.471-3.147a.226.226,0,0,1-.138-.065.232.232,0,0,0-.108-.065,1.516,1.516,0,0,0-.662.285,9.7,9.7,0,0,0-.931.669,7.554,7.554,0,0,0-.731.654l.008.138q.585.269,1.3.577a5.97,5.97,0,0,0,.993.362q.108.015.215.023t.154.008a.721.721,0,0,1,.115.008q.046.008.046.031,0,.092-.142.185a.794.794,0,0,1-.427.092A1.872,1.872,0,0,1,78.287-2q-.435-.189-1.027-.5l-.485-.239q.1.977.1,1.077a.16.16,0,0,1-.085.138.337.337,0,0,1-.185.054q-.062,0-.1-.185t-.092-.731l-.054-.469a.469.469,0,0,1-.162-.112.207.207,0,0,1-.069-.135q0-.092.154-.215-.008-.415-.042-1.185t-.05-1.123l-.038-1.07a1.122,1.122,0,0,1,.054-.369.226.226,0,0,1,.239-.154.12.12,0,0,1,.092.027.167.167,0,0,1,.023.1q0,.354.05,1.643t.081,1.835Q78.406-5.239,79.2-5.239a.589.589,0,0,1,.273.058q.112.058.112.119a.355.355,0,0,1-.1.227A.281.281,0,0,1,79.283-4.715Zm6.563,1.123a2.143,2.143,0,0,1-.2.608,2.731,2.731,0,0,1-.616.869,1.4,1.4,0,0,1-1.012.4,1.162,1.162,0,0,1-.823-.308,1.234,1.234,0,0,1-.331-.946,2.768,2.768,0,0,1,.277-1.189,2.765,2.765,0,0,1,.723-.962,1.428,1.428,0,0,1,.923-.373.867.867,0,0,1,.481.127.409.409,0,0,1,.2.365.7.7,0,0,1-.3.523,2.883,2.883,0,0,1-.789.446,4.822,4.822,0,0,1-1,.277,2.737,2.737,0,0,0-.092.692,1.03,1.03,0,0,0,.212.692.753.753,0,0,0,.6.246,1.216,1.216,0,0,0,.962-.423,4,4,0,0,0,.616-.954q.015-.031.054-.119t.069-.088Q85.846-3.707,85.846-3.592ZM84.692-5.177a.953.953,0,0,0-.562.192,1.79,1.79,0,0,0-.45.462,1.622,1.622,0,0,0-.235.477,2.748,2.748,0,0,0,.746-.2A3.2,3.2,0,0,0,84.85-4.6q.265-.192.265-.315a.212.212,0,0,0-.127-.192A.609.609,0,0,0,84.692-5.177ZM95.7-1.692a.954.954,0,0,1-.762-.285,1.044,1.044,0,0,1-.246-.708,3.955,3.955,0,0,1,.135-.916,3.784,3.784,0,0,1,.381-.977q.015-.031.127-.227a.962.962,0,0,1,.25-.3.48.48,0,0,1,.292-.1.242.242,0,0,1,.127.035.1.1,0,0,1,.058.088.207.207,0,0,1-.042.073l-.065.088a3.622,3.622,0,0,0-.423.623,4.206,4.206,0,0,0-.335.777,2.82,2.82,0,0,0-.119.839q0,.608.739.608a1.125,1.125,0,0,0,.642-.2,1.589,1.589,0,0,0,.473-.489,1.028,1.028,0,0,0,.177-.527.686.686,0,0,0-.177-.469,3,3,0,0,0-.485-.423,2.638,2.638,0,0,1-.292-.239.252.252,0,0,1-.092-.154q0-.092.131-.15a.757.757,0,0,1,.308-.058.46.46,0,0,1,.131.012.042.042,0,0,1,.031.042.1.1,0,0,1-.027.05.1.1,0,0,0-.027.058q0,.023.154.154a3.491,3.491,0,0,1,.516.516.96.96,0,0,1,.208.616,1.445,1.445,0,0,1-.223.692,2.042,2.042,0,0,1-.631.673A1.6,1.6,0,0,1,95.7-1.692Zm8.433.077q-.154,0-.281-.323a2.4,2.4,0,0,1-.158-.669q-.031-.331-.046-1.339-.008-.162-.008-.327t-.008-.281a11.577,11.577,0,0,1-.608,1.208,8.856,8.856,0,0,1-.773,1.162q-.389.485-.635.485a.329.329,0,0,1-.335-.269,3.249,3.249,0,0,1-.081-.854,6.223,6.223,0,0,1,.142-1.239,4.334,4.334,0,0,1,.327-1.054.943.943,0,0,1,.131-.219.164.164,0,0,1,.123-.058q.192,0,.192.077a.551.551,0,0,1-.077.177,4.623,4.623,0,0,0-.362.923,5.453,5.453,0,0,0-.154,1.447q0,.608.169.608.2,0,.542-.442a8.149,8.149,0,0,0,.681-1.058,9.281,9.281,0,0,0,.516-1.07,3.7,3.7,0,0,0,.138-.477,1.051,1.051,0,0,1,.046-.189q.023-.058.054-.058a.332.332,0,0,1,.185.069.188.188,0,0,1,.1.146q0,.369.027,1.266t.065,1.243a1.464,1.464,0,0,0,.112.469A1.389,1.389,0,0,0,104.32-2a.354.354,0,0,1,.077.119.26.26,0,0,1-.069.192A.26.26,0,0,1,104.136-1.615Zm6.348-3.124a.152.152,0,0,1-.1-.046.9.9,0,0,1-.112-.131.467.467,0,0,0-.142-.131.344.344,0,0,0-.181-.054q-.223,0-.6.589a9.128,9.128,0,0,0-.739,1.481q.008.177.027.446t.027.4l.023.308a.373.373,0,0,1-.046.189.178.178,0,0,1-.169.081q-.131,0-.169-.35t-.046-1.02q-.008-.169-.012-.485t-.019-.754q-.023-.662-.023-.946,0-.177.215-.177a.142.142,0,0,1,.158.112,2.184,2.184,0,0,1,.027.427v1.223a6.141,6.141,0,0,1,.5-1.023,2.984,2.984,0,0,1,.527-.658.741.741,0,0,1,.458-.227.713.713,0,0,1,.323.077.7.7,0,0,1,.246.2.377.377,0,0,1,.092.227.239.239,0,0,1-.1.158A.27.27,0,0,1,110.484-4.738Zm4.732,3.255a1.077,1.077,0,0,1-.446-.062.187.187,0,0,1-.115-.169q0-.069.177-.242t.239-.173q.092,0,.092.038a.083.083,0,0,1-.038.062q-.038.031-.038.054t.1.062a.777.777,0,0,0,.235.031,1.887,1.887,0,0,0,.65-.119,1.566,1.566,0,0,0,.535-.312.557.557,0,0,0,.208-.408.433.433,0,0,0-.131-.331.8.8,0,0,0-.327-.181q-.2-.058-.658-.165-.508-.115-.789-.2a1.391,1.391,0,0,1-.45-.223.419.419,0,0,1-.169-.342.886.886,0,0,1,.362-.677,2.787,2.787,0,0,1,.831-.485,2.247,2.247,0,0,1,.723-.177q.262,0,.262.154a.429.429,0,0,1-.062.2.2.2,0,0,1-.185.112.188.188,0,0,1-.1-.035.2.2,0,0,0-.108-.035,1.9,1.9,0,0,0-.485.1,1.939,1.939,0,0,0-.6.3.589.589,0,0,0-.269.485.291.291,0,0,0,.212.273,5.584,5.584,0,0,0,.789.219.912.912,0,0,0,.139.035,1.125,1.125,0,0,1,.123.027,3.586,3.586,0,0,1,.908.315.573.573,0,0,1,.315.531.978.978,0,0,1-.273.65,1.942,1.942,0,0,1-.719.5A2.369,2.369,0,0,1,115.216-1.484Zm8.618-2.108a2.143,2.143,0,0,1-.2.608,2.731,2.731,0,0,1-.616.869,1.4,1.4,0,0,1-1.012.4,1.163,1.163,0,0,1-.823-.308,1.234,1.234,0,0,1-.331-.946,2.768,2.768,0,0,1,.277-1.189,2.765,2.765,0,0,1,.723-.962,1.428,1.428,0,0,1,.923-.373.867.867,0,0,1,.481.127.409.409,0,0,1,.2.365.7.7,0,0,1-.3.523,2.883,2.883,0,0,1-.789.446,4.822,4.822,0,0,1-1,.277,2.737,2.737,0,0,0-.092.692,1.03,1.03,0,0,0,.212.692.753.753,0,0,0,.6.246,1.216,1.216,0,0,0,.962-.423,4,4,0,0,0,.616-.954q.015-.031.054-.119t.069-.088Q123.833-3.707,123.833-3.592Zm-1.154-1.585a.953.953,0,0,0-.562.192,1.79,1.79,0,0,0-.45.462,1.623,1.623,0,0,0-.235.477,2.748,2.748,0,0,0,.746-.2,3.2,3.2,0,0,0,.658-.354q.265-.192.265-.315a.212.212,0,0,0-.127-.192A.609.609,0,0,0,122.679-5.177Zm5.263,3.393q-.092,0-.173-.219a2.05,2.05,0,0,1-.081-.666q.008-.869.027-2.1t.035-1.854a1.287,1.287,0,0,1,.081-.415.261.261,0,0,1,.258-.192.079.079,0,0,1,.081.065,1.054,1.054,0,0,1,.019.25q0,.008,0,.05t0,.15q-.138,2.024-.138,3.947a1.4,1.4,0,0,0,.112.523q.112.277.112.292,0,.077-.1.123A.526.526,0,0,1,127.942-1.784Zm7.741-3.655a4.624,4.624,0,0,0-.746,1.3,10.179,10.179,0,0,0-.546,1.831q-.023.115-.077.462l-.038.269a.322.322,0,0,1-.1.192.437.437,0,0,1-.281.069,1.68,1.68,0,0,1-.262-.466q-.223-.466-.469-1l-.331-.723q-.3-.654-.5-1.023t-.292-.369a.057.057,0,0,0-.05.038q-.019.038-.042.038a.08.08,0,0,1-.065-.035.117.117,0,0,1-.027-.073.51.51,0,0,1,.112-.262q.112-.162.219-.162a.182.182,0,0,1,.115.031.442.442,0,0,1,.069.069q.031.038.046.062a7.715,7.715,0,0,1,.639,1.216q.162.346.8,1.808l.177.408a4.317,4.317,0,0,1,.077-.646,10.49,10.49,0,0,1,.508-1.8,5.983,5.983,0,0,1,.793-1.493,1.175,1.175,0,0,1,.15-.173.221.221,0,0,1,.15-.05q.038,0,.123.119a.4.4,0,0,1,.085.158q0,.038-.1.108A.616.616,0,0,0,135.683-5.439Zm6.609,1.847a2.142,2.142,0,0,1-.2.608,2.731,2.731,0,0,1-.616.869,1.4,1.4,0,0,1-1.012.4,1.163,1.163,0,0,1-.823-.308,1.234,1.234,0,0,1-.331-.946,2.768,2.768,0,0,1,.277-1.189,2.766,2.766,0,0,1,.723-.962,1.428,1.428,0,0,1,.923-.373.867.867,0,0,1,.481.127.409.409,0,0,1,.2.365.7.7,0,0,1-.3.523,2.883,2.883,0,0,1-.789.446,4.822,4.822,0,0,1-1,.277,2.738,2.738,0,0,0-.092.692,1.03,1.03,0,0,0,.212.692.753.753,0,0,0,.6.246,1.216,1.216,0,0,0,.962-.423,4,4,0,0,0,.616-.954q.015-.031.054-.119t.069-.088Q142.292-3.707,142.292-3.592Zm-1.154-1.585a.953.953,0,0,0-.562.192,1.79,1.79,0,0,0-.45.462,1.622,1.622,0,0,0-.235.477,2.748,2.748,0,0,0,.746-.2A3.2,3.2,0,0,0,141.3-4.6q.265-.192.265-.315a.212.212,0,0,0-.127-.192A.609.609,0,0,0,141.138-5.177Zm5.686,3.693a1.077,1.077,0,0,1-.446-.062.187.187,0,0,1-.115-.169q0-.069.177-.242t.239-.173q.092,0,.092.038a.083.083,0,0,1-.038.062q-.038.031-.038.054t.1.062a.777.777,0,0,0,.235.031,1.888,1.888,0,0,0,.65-.119,1.566,1.566,0,0,0,.535-.312.557.557,0,0,0,.208-.408.433.433,0,0,0-.131-.331.8.8,0,0,0-.327-.181q-.2-.058-.658-.165-.508-.115-.789-.2a1.391,1.391,0,0,1-.45-.223.419.419,0,0,1-.169-.342.886.886,0,0,1,.362-.677,2.787,2.787,0,0,1,.831-.485,2.247,2.247,0,0,1,.723-.177q.262,0,.262.154a.429.429,0,0,1-.062.2.2.2,0,0,1-.185.112.188.188,0,0,1-.1-.035.2.2,0,0,0-.108-.035,1.9,1.9,0,0,0-.485.1,1.939,1.939,0,0,0-.6.3.589.589,0,0,0-.269.485.291.291,0,0,0,.212.273,5.583,5.583,0,0,0,.789.219.911.911,0,0,0,.138.035,1.126,1.126,0,0,1,.123.027,3.586,3.586,0,0,1,.908.315.573.573,0,0,1,.315.531.978.978,0,0,1-.273.65,1.942,1.942,0,0,1-.719.5A2.369,2.369,0,0,1,146.824-1.484Zm13.834-3.139-.793.138-.5.085q0,.4.012.839t.035.769a3.032,3.032,0,0,0,.108.685q.077.239.085.269a.18.18,0,0,1-.1.142.326.326,0,0,1-.181.065.113.113,0,0,1-.077-.027.218.218,0,0,1-.054-.088,1.839,1.839,0,0,1-.088-.4q-.042-.292-.065-.646-.023-.315-.035-.735T159-4.338q-.431.069-.885.169a4.032,4.032,0,0,1-.485.085.306.306,0,0,1-.173-.054.167.167,0,0,1-.081-.146.128.128,0,0,1,.069-.131.618.618,0,0,1,.231-.031,1.982,1.982,0,0,0,.339-.042q.223-.042.285-.058.516-.1.7-.131,0-.162-.015-.423-.015-.354-.015-.539a4.3,4.3,0,0,1,.019-.466,1.114,1.114,0,0,1,.073-.3.228.228,0,0,1,.231-.154.134.134,0,0,1,.092.023.119.119,0,0,1,.023.085,2.522,2.522,0,0,1-.038.269,3.634,3.634,0,0,0-.038.592q0,.285.015.639l.008.208q.346-.054,1.37-.285a.172.172,0,0,0,.1-.108q.042-.092.088-.092a.245.245,0,0,1,.173.1.29.29,0,0,1,.088.2.222.222,0,0,1-.112.2A1.11,1.11,0,0,1,160.658-4.623Zm4.87,2.932a.954.954,0,0,1-.762-.285,1.044,1.044,0,0,1-.246-.708,3.955,3.955,0,0,1,.135-.916,3.785,3.785,0,0,1,.381-.977q.015-.031.127-.227a.962.962,0,0,1,.25-.3.48.48,0,0,1,.292-.1.242.242,0,0,1,.127.035.1.1,0,0,1,.058.088.207.207,0,0,1-.042.073l-.065.088a3.622,3.622,0,0,0-.423.623,4.206,4.206,0,0,0-.335.777,2.82,2.82,0,0,0-.119.839q0,.608.739.608a1.125,1.125,0,0,0,.643-.2,1.589,1.589,0,0,0,.473-.489,1.028,1.028,0,0,0,.177-.527.686.686,0,0,0-.177-.469,3,3,0,0,0-.485-.423,2.642,2.642,0,0,1-.292-.239.252.252,0,0,1-.092-.154q0-.092.131-.15a.757.757,0,0,1,.308-.058.46.46,0,0,1,.131.012.042.042,0,0,1,.031.042.1.1,0,0,1-.027.05.1.1,0,0,0-.027.058q0,.023.154.154a3.492,3.492,0,0,1,.516.516.961.961,0,0,1,.208.616,1.445,1.445,0,0,1-.223.692,2.042,2.042,0,0,1-.631.673A1.6,1.6,0,0,1,165.529-1.692Zm8.241-5.317q0,.154-.015.6t-.015.9q0,.877.038,1.789t.062,1.2a.711.711,0,0,0,.008.1q.008.054.015.1.031.215.031.262,0,.077-.112.146a.372.372,0,0,1-.173.069A.108.108,0,0,1,173.5-1.9a.488.488,0,0,1-.027-.181q0-.423.023-.885L173.5-3.4q0-.215-.008-.566t-.023-.589a9.668,9.668,0,0,1-.889,2.089q-.5.827-1.073.827a.535.535,0,0,1-.442-.246,1.183,1.183,0,0,1-.181-.708,2.688,2.688,0,0,1,.412-1.323,5.646,5.646,0,0,1,.939-1.231q.527-.516.781-.516t.246.162a.563.563,0,0,1-.073.25,1.692,1.692,0,0,1-.162.258q-.088.115-.1.115a.069.069,0,0,1-.035-.012.032.032,0,0,1-.019-.027.409.409,0,0,1,.038-.131.422.422,0,0,0,.038-.123.132.132,0,0,0-.008-.054q-.008-.015-.046-.015-.162,0-.581.442a4.969,4.969,0,0,0-.75,1.05,2.388,2.388,0,0,0-.331,1.131.8.8,0,0,0,.077.346.262.262,0,0,0,.254.162q.562,0,1.043-.95a12.669,12.669,0,0,0,.835-2.158l-.015-.646q-.023-.854-.023-.908a3.95,3.95,0,0,1,.038-.662.349.349,0,0,1,.035-.108.089.089,0,0,1,.081-.031.281.281,0,0,1,.154.05.154.154,0,0,1,.077.135Zm7.279,4.978a.4.4,0,0,1-.077.212q-.077.119-.154.119-.131,0-.2-.162a.951.951,0,0,1-.069-.377q0-.185.023-1.108l.008-.292a.313.313,0,0,0-.092-.254q-.346.585-.646,1.016a4.09,4.09,0,0,1-.762.812,1.5,1.5,0,0,1-.97.381.479.479,0,0,1-.381-.154.586.586,0,0,1-.135-.4,2.012,2.012,0,0,1,.277-.843,6.971,6.971,0,0,1,.708-1.085,5.76,5.76,0,0,1,.862-.9,2.535,2.535,0,0,1,.454-.312.712.712,0,0,1,.3-.081.5.5,0,0,1,.254.077.686.686,0,0,1,.223.215.556.556,0,0,1,.092.315.861.861,0,0,1-.131.454l.131-.038q.085,0,.1.208.008.123.019.5t.019.623q.008.254.015.492t.015.377a.213.213,0,0,0,.062.112A.16.16,0,0,1,181.048-2.03Zm-.669-2.162a1.335,1.335,0,0,0,.092-.5.434.434,0,0,0-.1-.281.314.314,0,0,0-.258-.119.853.853,0,0,0-.492.262,5.378,5.378,0,0,0-.731.781,6.529,6.529,0,0,0-.639.966A1.762,1.762,0,0,0,178-2.33q0,.231.215.231a1.267,1.267,0,0,0,.8-.308,3.625,3.625,0,0,0,.689-.735Q180.01-3.569,180.379-4.192Zm6.979-.185q-.092.677-.1.762-.1.946-.142,1.443t-.042.9a2.167,2.167,0,0,0,.05.523,1.5,1.5,0,0,0,.108.3.519.519,0,0,1,.058.135q0,.069-.123.123a.627.627,0,0,1-.254.054q-.1,0-.158-.269a4.39,4.39,0,0,1-.058-.839,10.656,10.656,0,0,1,.085-1.162l.115-1.062a4.288,4.288,0,0,1-.512.766.84.84,0,0,1-.627.365q-.3,0-.539-.523a5.5,5.5,0,0,1-.373-1.185,5.468,5.468,0,0,1-.135-.969q0-.192.115-.192.169,0,.215.315.292,2.139.816,2.139a.491.491,0,0,0,.366-.165,3.289,3.289,0,0,0,.373-.512,3.337,3.337,0,0,0,.215-.431q.115-.269.177-.446l.054-.777a.92.92,0,0,1,.046-.25.12.12,0,0,1,.123-.073.212.212,0,0,1,.154.088.267.267,0,0,1,.077.173A7.173,7.173,0,0,1,187.358-4.377Zm4.563,2.824a.333.333,0,0,1-.265-.165,1.483,1.483,0,0,1-.192-.369,1.07,1.07,0,0,1-.073-.265.224.224,0,0,1,.081-.162.241.241,0,0,1,.165-.077.1.1,0,0,1,.085.042q.031.042.092.142a.571.571,0,0,0,.131.177.567.567,0,0,1,.165.285,1.19,1.19,0,0,1,.065.277Q192.174-1.553,191.921-1.553Z" transform="translate(580.537 1103.773)" fill="#f695c1"/>
  </g>
</svg>
