<?xml version="1.0" encoding="UTF-8"?><svg id="_レイヤー_2" xmlns="http://www.w3.org/2000/svg" viewBox="0 0 632.52057 756.864"><defs><style>.cls-1{fill:#c7937a;}.cls-1,.cls-2,.cls-3,.cls-4,.cls-5,.cls-6,.cls-7,.cls-8,.cls-9,.cls-10,.cls-11{stroke-width:0px;}.cls-2{fill:#00a99d;}.cls-3{fill:#f6d9c7;}.cls-4{fill:#e3b09a;}.cls-5{fill:#b3b3b3;}.cls-6{fill:#ccc;}.cls-7{fill:#e1e3e6;}.cls-8{fill:#edb29c;}.cls-9{fill:#ed9f8c;}.cls-10{fill:#404040;}.cls-11{fill:#ed9a7b;}</style></defs><g id="set_of_handdrawn_clipart_people"><path class="cls-1" d="M532.78847,604.94108c-.3602-.291-.6993-.6017-1.0539-.898-7.289-8.2069-13.113-17.7123-17.6236-27.8047-7.9211-17.723-11.8623-36.749-14.1064-55.948-2.7139-23.2182-3.2197-46.6435-6.3002-69.8242-2.1323-16.0461-5.65-32-11.6966-47.0267-1.228-6.1149-2.7952-12.1542-4.904-18.0285-4.0844-11.3776-10.4217-22.0222-19.6121-29.9968-8.2121-7.1257-18.8489-12.2132-29.8251-12.6783-1.8891-.08-3.7779-.0353-5.6576.1284-2.8603-1.0734-5.8018-1.9934-8.847-2.7019l-48.695,37.2718c22.8783,16.8113,24.3101,51.1624,15.2327,78.063-4.2477,12.588-10.2407,24.5069-16.1846,36.4322.6532-2.5737,1.3384-5.1382,2.0841-7.6817,2.1144-7.2114,4.5435-14.3271,7.1216-21.3849,2.5895-7.0887,5.4956-14.0782,7.7819-21.2739,4.6916-14.7668,6.2826-32.8475-5.1029-45.1422-.32-.3457-.6913-.6281-1.0907-.8401.0447-1.2688.1144-2.5364.1429-3.8057.0412-1.8335-.9679-3.559-2.9271-3.8156-1.6674-.2183-3.7741,1.081-3.8156,2.9272-.5405,24.0587-4.16,48.0864-10.9475,71.1819-3.4331,11.6819-7.6826,23.0818-12.5634,34.2333-4.8501,11.0814-10.0821,22.0799-13.2533,33.795-4.8023,17.7402-5.0038,36.5254-1.0718,54.4589,3.9466,18.0006,11.7538,35.1056,22.8257,49.8436,11.0027,14.6458,25.2929,26.8472,41.7919,34.8751,2.0562,1.0006,4.1464,1.9268,6.2633,2.7912,2.2328.9118,4.0122-.5835,4.4934-2.3872,4.2127,2.2989,8.5722,4.3486,13.0941,6.0648,45.7482,17.3644,101.0501,1.2612,132.8939-35.2729.1393.128.2787.2559.418.384,1.2705-1.9372,2.6262-3.837,3.5352-5.9427-5.1354-4.7155-10.2708-9.431-15.4062-14.1466,1.0969.8257,2.2067,1.6338,3.3407,2.4085,1.8002,1.2302,3.7273.4968,4.7557-.8537,8.5525,3.9616,17.7155,6.5209,27.091,7.2315.1877-.379.4305-.7301.7743-1.007,2.1864-1.7605,4.2902-3.5845,6.1125-5.6545-17.8063.4673-35.1983-6.7652-49.0683-17.9746ZM361.71557,634.86858c-11.1676-13.4475-19.4883-29.4246-23.9328-46.3455-4.4981-17.1243-5.2426-35.135-1.3605-52.4501,2.4656-10.9969,7.0791-21.3717,11.6259-31.634,4.8861-11.0277,9.4557-22.1382,13.1262-33.6373,6.7226-21.0611,10.9708-42.9016,12.5799-64.9514,5.3665,9.864,3.8664,22.3193.5545,32.8503-2.2654,7.2034-5.1757,14.1931-7.7694,21.2808-2.6175,7.1529-5.0842,14.3647-7.2274,21.675-3.2328,11.0269-5.7079,22.3746-6.8385,33.7793-2.4847,5.9341-4.6973,11.9675-6.4012,18.1896-12.187,44.5016,6.0614,94.6183,41.2164,123.8521-9.6317-6.1199-18.2567-13.7988-25.5731-22.6088ZM496.87847,545.45818c-1.2938-4.7342-2.3821-9.5047-3.3092-14.3019-1.8457-15.2152-2.5714-30.5927-3.4061-45.9574.7826,10.5805,1.5118,21.167,2.6271,31.7154,1.1927,11.2788,2.9031,22.5341,5.5544,33.5517-.5139-1.6643-1.0085-3.333-1.4662-5.0078ZM523.86767,606.17738c-.9521-.8743-2.4035-.8549-3.5442-.2981-2.8864-3.9421-5.5492-8.0999-7.9765-12.4236,3.6529,4.792,7.7243,9.2854,12.2577,13.3985-.2456-.2254-.4914-.4511-.737-.6768Z"/><path class="cls-10" d="M397.36157,669.52658c-17.3532-8.4146-32.3506-21.3227-43.5828-36.9791-11.2816-15.7253-18.8881-34.0064-21.7436-53.167-3.2781-21.9965,1.0113-44.001,7.942-64.8838,3.7996-11.4486,8.3335-22.6341,12.854-33.8119,4.6934-11.6056,9.2608-23.2531,13.4243-35.0609,3.7575-10.6564,7.8421-21.4768,9.8758-32.6275,1.7062-9.3554,2.0218-19.5879-2.6207-28.1996-1.1429-2.12-2.6101-4.0675-4.2626-5.8155-2.2151-2.343-5.7463,1.197-3.5355,3.5356,6.5637,6.9429,7.2902,16.8499,6.1162,25.8951-1.4054,10.8289-5.3526,21.3142-8.894,31.5802-4.1118,11.9196-8.6038,23.6949-13.3187,35.3878-4.5115,11.188-9.1186,22.346-13.0846,33.7431-7.4345,21.364-12.4806,43.941-9.9615,66.6545,2.157,19.4489,9.0361,38.2811,19.7237,54.6639,10.6617,16.3433,25.0431,30.3513,42.0494,39.9968,2.1272,1.2066,4.2946,2.3386,6.4951,3.4057,2.8831,1.398,5.4213-2.9123,2.5235-4.3174Z"/><path class="cls-10" d="M578.97977,621.93138c-21.4371.7557-40.5681-11.4284-53.783-27.5382-15.5048-18.9014-21.8955-43.1587-24.9099-66.9834-3.2002-25.2937-3.3056-50.8619-6.6859-76.1446-3.196-23.9051-8.7743-47.8069-20.0934-69.2734-5.4556-10.3464-12.2078-20.2626-20.6495-28.4111-8.0714-7.7911-18.0225-14.2804-29.1698-16.462-2.7966-.5474-5.6434-.8388-8.4928-.8512-3.2178-.0139-3.2219,4.9861,0,5,23.3454.101,40.9011,20.2814,51.6161,38.9281,12.019,20.9156,17.9989,44.6923,21.4156,68.403,3.6192,25.1171,3.764,50.5336,6.6847,75.7159,2.8228,24.3381,8.5396,49.1917,23.3421,69.2339,12.6629,17.1453,31.1713,30.9026,52.8544,33.1319,2.6158.2689,5.2441.3437,7.8714.2511,3.2084-.1132,3.2235-5.1137,0-5Z"/><path class="cls-10" d="M519.64007,645.94588c-10.5203-7.5034-18.0996-18.3358-23.2104-30.0866-5.4332-12.4919-8.0214-26.0933-8.9906-39.6229-1.2181-17.0076-.1797-34.0577.0706-51.0788.2211-15.0379-.2623-30.131-3.2799-44.91-2.7846-13.6375-7.803-27.101-16.1846-38.3215-1.0937-1.4641-2.2307-2.8948-3.4163-4.2854-.8765-1.0281-2.6342-.9014-3.5355,0-1.0188,1.0186-.8787,2.5049,0,3.5354,9.0052,10.5625,14.4561,23.5957,17.5765,37.0147,3.3536,14.4223,4.0045,29.2451,3.875,44.0017-.1503,17.1107-1.2726,34.2348-.2806,51.3393.8155,14.0613,3.1452,28.1096,8.3502,41.2537,4.8677,12.2925,12.1143,23.8428,22.3903,32.3262,1.3316,1.0994,2.7059,2.1489,4.1116,3.1516,1.1.7844,2.7826.1938,3.4205-.8969.7344-1.2555.2056-2.6341-.8968-3.4205Z"/><path class="cls-10" d="M426.25827,667.74408c-4.5082-.9202-7.6721-4.4054-10.1572-8.0696-3.0501-4.4974-5.636-9.3648-8.0927-14.2052-5.1528-10.1528-9.3207-20.7848-12.4735-31.7246-1.7821-6.1836-3.2307-12.4586-4.3585-18.7939-.2368-1.3302-1.86-2.0801-3.0753-1.7461-1.4022.3852-1.9836,1.7412-1.7461,3.0752,2.0985,11.7885,5.3322,23.3633,9.6712,34.5241,2.1382,5.5,4.5215,10.9082,7.16,16.1867,2.5653,5.1322,5.2871,10.2838,8.4913,15.0506,3.1957,4.7542,7.4021,9.3304,13.2516,10.5242,1.3217.2698,2.7007-.3826,3.0753-1.7461.3395-1.2356-.4169-2.8041-1.7461-3.0753Z"/><path class="cls-10" d="M433.58477,633.01278c-11.4602-9.7985-19.3233-22.9617-24.028-37.1914-4.9463-14.9605-6.5829-30.7301-6.1687-46.4285.5089-19.2956,3.7902-38.3518,6.6557-57.3972,2.6823-17.8286,5.0148-35.7842,4.4774-53.8539-.5071-17.0499-3.526-34.1715-10.8992-49.6573-.9174-1.9268-1.9058-3.8178-2.9531-5.677-1.5794-2.8036-5.9002-.2862-4.3174,2.5236,8.3376,14.8003,12.0547,31.6502,12.9871,48.501.9865,17.8291-.9883,35.6105-3.579,53.2258-2.8213,19.1821-6.2647,38.3373-7.1994,57.7356-.7822,16.2327.3935,32.6456,4.9225,48.3107,4.244,14.6793,11.4776,28.7033,22.3616,39.5678,1.35,1.3476,2.7553,2.6369,4.205,3.8764,1.0256.8769,2.5285,1.0071,3.5355,0,.8983-.8984,1.0309-2.6543,0-3.5356Z"/><path class="cls-3" d="M217.55097,528.17418c-16.9769,6.3797-27.2028,25.6728-25.5061,43.7293,1.6967,18.0566,13.8217,34.1464,29.4605,43.3303,15.6388,9.1839,34.3695,12.0562,52.4769,11.0371,16.5278-.9302,33.1816-5.1067,46.9331-14.3223,13.7516-9.2157,24.3133-23.88,26.3311-40.3105,2.0178-16.4304-5.5531-34.2396-19.994-42.3324l-109.7015-1.1315Z"/><path class="cls-2" d="M494.27157,750.93138c-2.6814-36.3804-8.1641-93.192-21.3721-121.7217-26.8406-57.9768-81.8063-97.4371-145.647-99.904,0,0,52.9428,81.3364-60.0384,83.1168-92.0963,1.4512-49.6631-84.2483-49.6631-84.2483-55.3769,9.9793-110.3354,41.3078-137.1744,90.7635-13.6454,25.1438-20.6118,89.1728-21.3015,131.9937h435.1965Z"/><path class="cls-10" d="M337.37597,573.20858c-2.4531,9.2125-9.016,16.7508-16.9029,21.8726-9.3729,6.0867-20.4082,8.8973-31.299,10.7988-20.8963,3.6486-44.6475,5.1532-62.734-7.9467-8.1243-5.8844-14.2851-14.482-15.899-24.4922-.2151-1.334-1.8751-2.0758-3.0753-1.7461-1.419.3901-1.9618,1.7374-1.7461,3.0754,1.5679,9.7246,7.2318,18.4054,14.6663,24.7183,8.2338,6.9914,18.3032,11.1704,28.9286,12.8537,12.2848,1.9466,24.7202.955,36.9449-.9427,11.7605-1.8256,23.671-4.4627,34.1131-10.4048,10.1433-5.7721,18.7716-14.9908,21.8248-26.4571.8289-3.1126-3.9929-4.4405-4.8214-1.3292Z"/><path class="cls-7" d="M181.73127,608.98368c-1.3574-25.8714,4.0369-57.8116,20.82-78.5708-49.0192,12.9844-98.238,44.4169-122.1747,88.5246-13.6454,25.1438-24.7452,89.173-25.4349,131.9939h151.9005c-1.0893-3.5632-23.1488-104.5523-25.1109-141.9477Z"/><path class="cls-10" d="M189.37197,661.77698c-2.0328-15.4685-3.8133-31.0348-4.581-46.6233-.7388-15.0015-.3471-30.1957,2.9916-44.8938,3.3083-14.5642,9.4194-28.6809,19.3234-39.9951.889-1.0154.9994-2.5361,0-3.5355-.9071-.9073-2.6423-1.0202-3.5354,0-19.5419,22.3241-24.6966,52.7887-24.0306,81.5714.3651,15.7802,2.1019,31.5468,4.0327,47.2019,1.9531,15.8354,4.3624,31.6144,7.2465,47.307,3.2251,17.5467,7.0418,34.9828,11.4286,52.2756.7906,3.117,5.6141,1.7962,4.8214-1.3292-7.6807-30.2776-13.6272-61.007-17.6972-91.979Z"/><path class="cls-10" d="M84.73997,616.56578c10.5587-16.6709,23.8348-31.5326,39.0533-44.0842,15.0685-12.4279,32.1434-22.5976,50.2875-29.8404,10.3308-4.1239,21.0198-7.3249,31.9198-9.544,1.3237-.2694,2.0864-1.8369,1.7461-3.0753-.3783-1.3766-1.7478-2.0163-3.0753-1.7461-19.738,4.0184-38.8011,11.2928-56.3033,21.2511-17.4945,9.9538-33.5064,22.6279-47.1481,37.4316-7.7217,8.3795-14.7003,17.4572-20.7973,27.0837-1.7268,2.7263,2.5983,5.2377,4.3173,2.5236h0Z"/><path class="cls-10" d="M75.78537,625.21528c-5.0286,15.4302-10.0398,30.8767-14.2629,46.5513-4.2369,15.7258-7.6519,31.6916-9.4564,47.8908-1.005,9.0228-1.4729,18.1011-1.2962,27.179.0625,3.2134,5.0628,3.2241,5,0-.311-15.9746,1.4158-31.897,4.4493-47.5676,3.0508-15.76,7.3337-31.2534,12.0429-46.5901,2.6843-8.7422,5.5112-17.4397,8.3447-26.1343.9994-3.0664-3.827-4.3804-4.8214-1.3291Z"/><path class="cls-7" d="M356.31057,576.60738c10.3948,40.6048-16.5624,164.4909-20.3516,174.324h158.2949c2.9536-33.4393-8.1464-93.1922-21.3544-121.7218-26.0512-56.272-75.9631-97.6874-145.647-99.9039,11.0063,13.797,24.6364,30.0294,29.0581,47.3017Z"/><path class="cls-10" d="M355.79917,561.39318c-5.0118-12.1147-12.5588-23.1127-23.0276-31.1367-1.2986-.9954-2.6353-1.9358-4.0077-2.8266-2.707-1.7569-5.216,2.57-2.5236,4.3174,10.512,6.8227,18.3048,16.9699,23.5371,28.2584,5.5695,12.0162,8.0948,25.2339,8.5025,38.4158.5063,16.3721-1.9805,32.6309-5.0169,48.6688-3.0739,16.2367-6.4001,32.4283-9.6176,48.6369-3.2444,16.3432-6.4886,32.6864-9.733,49.0295l-1.2104,6.0982c-.2627,1.3231.3776,2.6993,1.7461,3.0754,1.2297.3379,2.811-.4154,3.0752-1.7461,3.2927-16.5871,6.5854-33.1743,9.8782-49.7613,3.3017-16.6331,6.6582-33.2564,9.8952-49.9023,3.1853-16.3798,6.0405-32.9751,6.049-49.7122.0072-14.1215-2.1269-28.3146-7.5465-41.4152Z"/><rect class="cls-3" x="216.65387" y="456.62118" width="106.361" height="111.8963"/><path class="cls-3" d="M465.04577,278.73598c0,122.8181-44.7935,222.3819-201.5707,222.3819S61.90437,401.55408,61.90437,278.73598c0-48.9709,1.0807-99.4313,27.1408-136.1707,39.2981-55.4025,102.8827-91.3978,174.636-91.3978,68.1283,0,128.8923,32.4501,168.496,83.1516,29.7674,38.1088,32.8686,91.7152,32.8686,144.4169Z"/><path class="cls-1" d="M507.15047,298.22588c0-21.2967-.2445-70.0235-14.733-118.3714-12.9688-43.2768-38.1777-82.9714-76.7326-107.5549-1.927-1.2286-4.0502-2.0759-6.2639-2.5775-4.4047-19.6106-19.7019-36.4048-39.5521-45.8558-28.0023-13.3324-58.8048-20.5242-89.727-22.1426-53.2039-2.7847-106.227,14.2054-146.9423,48.3604-50.5057,30.6321-85.6268,86.3273-100.8668,142.6845-13.6016,50.2979-14.5832,103.1683-12.1501,154.8899.5683,12.0813,10.243,23.7332,23.1549,23.155,12.058-.5401,23.7645-10.1958,23.1549-23.155-.9806-20.8488-1.4491-41.7312-.6946-62.5959.3588-9.9222,1.0009-19.8351,1.9789-29.716,1.0116.4012,2.0564.7514,3.1707.9826,46.5975,9.6676,92.4331,2.1846,134.0766-16.3529,3.9425,10.9647,16.2425,19.6295,28.2346,15.4632,18.5022-6.4282,34.6862-15.8437,49.164-27.2966.2305.4313.4513.8684.716,1.2794,7.2033,11.1725,20.0191,14.0219,31.6804,8.3069,36.0525-17.6688,65.0151-50.3553,79.0969-88.1576.2138.3104.4213.6255.6338.9369,32.4197,20.5736,44.4363,25.6328,54.0818,61.7766,5.0478,18.9153,19.6023,111.3675,22.5832,142.8162,1.1472,12.1034,36.5964,11.5896,36.5964,0,0-15.2672-.6607-35.5786-.6607-56.8754Z"/><path class="cls-3" d="M83.96267,401.36448c-42.4867,6.9005-75.2863-36.2489-77.2558-70.3154-.6781-16.3731,15.5742-23.2104,34.254-23.9032,38.6033-1.9782,68.0445,29.2728,60.1126,54.0632-2.1981,16.0553-7.024,37.9553-17.1108,40.1554Z"/><path class="cls-4" d="M72.14997,368.60228c-.2106,2.0028-8.0463,8.9482-14.829,5.8792-8.6927-7.43,2.1058-20.0286-4.2557-27.1032-6.7828-3.069-15.686-8.4962-10.6026-11.7912,10.1667-6.5899,27.1309,12.2759,33.4778-3.0363,2.2208-5.3578,3.3578-11.8686,2.5583-18.2853,4.9256,3.2193,9.2405,7.0411,12.799,11.2303-.8822,15.459-10.6004,30.7156-19.1478,43.1065Z"/><path class="cls-3" d="M445.47957,401.36448c42.4867,6.9005,75.2863-36.2489,77.2558-70.3154.6781-16.3731-16.2216-26.0611-34.9014-26.7539-38.6032-1.9782-67.3971,32.1235-59.4652,56.9139,2.1981,16.0553,7.024,37.9553,17.1108,40.1554Z"/><path class="cls-4" d="M457.29227,368.60228c.2106,2.0028,8.0463,8.9482,14.829,5.8792,8.6927-7.43-2.1058-20.0286,4.2557-27.1032,6.7828-3.069,15.686-8.4962,10.6027-11.7912-10.1668-6.5899-27.131,12.2759-33.4778-3.0363-2.2209-5.3578-3.3579-11.8686-2.5584-18.2853-4.9256,3.2193-9.2405,7.0411-12.799,11.2303.8822,15.459,10.6004,30.7156,19.1478,43.1065Z"/><ellipse class="cls-10" cx="365.93457" cy="307.05213" rx="18.93485" ry="15.25199" transform="translate(48.18274 663.73532) rotate(-88.30338)"/><ellipse class="cls-10" cx="184.26137" cy="301.67111" rx="18.93488" ry="15.25199" transform="translate(-122.73243 476.92099) rotate(-88.30356)"/><path class="cls-10" d="M390.13387,276.52368c-1.8913.4162-4.0031-1.9492-6.9864-4.7617-.3856-.3503-.7696-.7176-1.1495-1.1027-.3902-.3792-.8697-.7239-1.2956-1.1127-.8207-.8032-1.8613-1.5086-2.8264-2.3244-2.0766-1.5103-4.3839-3.0416-6.9655-4.4196-2.6149-1.3164-5.1962-2.3202-7.6276-3.1472-1.2233-.3186-2.3995-.7624-3.5291-.9703-.5631-.1241-1.121-.3173-1.6559-.4176-.5335-.0887-1.0551-.1909-1.5638-.304-4.0175-.8176-7.1673-1.1804-7.9167-2.966-.3464-.8585.0295-1.9159,1.1771-3.1394.2864-.3054.6205-.6204,1.0018-.9435.3854-.3049.8308-.5617,1.3168-.849.9765-.542,2.1349-1.1928,3.4878-1.5523.6742-.2084,1.3918-.4101,2.1496-.6029.757-.181,1.5483-.2464,2.3791-.3552,1.6714-.2562,3.4396-.1733,5.327-.0818,3.7268.3638,7.7779,1.4417,11.6362,3.4067,3.828,2.0205,7.0424,4.7098,9.4868,7.5456,1.1619,1.4895,2.2487,2.8868,3.0023,4.4002.3902.7417.7925,1.426,1.0807,2.1489.2793.7304.5279,1.4331.746,2.1043.4859,1.313.6217,2.6346.7412,3.7452.0454.5626.0922,1.0746.065,1.5654-.0441.4977-.109.9525-.1937,1.3624-.3387,1.6434-.9862,2.5599-1.8872,2.7716Z"/><path class="cls-10" d="M202.38267,261.36288c-.8471,1.7216-3.9393,1.9551-8.0022,2.2715-.5139.0478-1.0414.0835-1.5807.1059-.5408.0292-1.1123.1276-1.6849.1695-1.1431.0528-2.3599.2718-3.611.3865-2.512.3732-5.2025.8411-7.9972,1.5317-2.782.7439-5.3649,1.6325-7.7455,2.5181-1.1513.5033-2.3227.899-3.3496,1.4042-.5216.2399-1.0696.4292-1.5575.6647-.4831.2409-.9624.4641-1.4355.6703-3.7112,1.6837-6.5319,2.9709-8.1046,1.8717-.7528-.5393-1.0296-1.6127-.7954-3.1966.1066-.8003.3574-1.7106.8137-2.6595.4446-.9577.977-2.0759,1.7802-3.1159.3876-.5364.8101-1.0911,1.2665-1.6609.4604-.5642,1.0032-1.0739,1.5536-1.6313,1.0872-1.1418,2.4182-2.1343,3.8439-3.1778,2.9124-1.9592,6.4507-3.6559,10.3848-4.6936,3.945-.9891,7.8619-1.21,11.3576-.8996,1.7521.2259,3.3967.4531,4.8997.9282.751.2227,1.4723.4071,2.1479.679.6746.279,1.3124.5608,1.9106.8435,1.2054.5232,2.2116,1.2457,3.063,1.8699.8577.6111,1.5168,1.2875,1.9964,1.9369.9696,1.2743,1.2452,2.348.8462,3.1836Z"/><circle class="cls-8" cx="157.95472" cy="373.19478" r="46.95429" transform="translate(-245.97759 405.79435) rotate(-71.67357)"/><path class="cls-9" d="M144.81067,357.53298c-2.6148,5.2742-5.2296,10.5484-7.8444,15.8227-.3626.7314-.5837,1.406-.4028,2.2362.155.7115.6561,1.4925,1.2964,1.8661,1.2629.7369,3.3657.5922,4.1023-.8936,2.6148-5.2743,5.2296-10.5485,7.8445-15.8227.3626-.7314.5836-1.406.4028-2.2362-.155-.7115-.6562-1.4925-1.2965-1.8661-1.2629-.7369-3.3656-.5923-4.1023.8936h0Z"/><path class="cls-9" d="M169.04247,349.56508c-4.536,11.0022-9.072,22.0043-13.608,33.0065-.6114,1.483.4634,3.2727,1.9052,3.7421,1.6251.5291,3.1293-.4187,3.7421-1.9052,4.536-11.0022,9.072-22.0043,13.608-33.0065.6114-1.483-.4634-3.2727-1.9052-3.7421-1.6251-.5291-3.1293.4187-3.7421,1.9052h0Z"/><circle class="cls-8" cx="378.38392" cy="378.19641" r="46.95422" transform="translate(-131.36083 215.81658) rotate(-27.31646)"/><path class="cls-9" d="M368.27567,360.40728c-3.2334,8.2269-6.4667,16.4539-9.7001,24.6808-.5867,1.4928.4456,3.2669,1.9052,3.7421,1.6046.5225,3.154-.4088,3.7421-1.9052,3.2334-8.2269,6.4668-16.4539,9.7001-24.6808.5868-1.4928-.4456-3.2669-1.9051-3.7421-1.6047-.5225-3.1541.4088-3.7422,1.9052h0Z"/><path class="cls-9" d="M390.94237,363.87768c-2.2502,5.5084-4.5003,11.0169-6.7505,16.5253-.5889,1.4416.4381,3.3336,1.9052,3.7421,1.6453.4582,3.1136-.3666,3.7421-1.9052,2.2502-5.5084,4.5003-11.0168,6.7505-16.5253.5889-1.4416-.4381-3.3335-1.9052-3.7421-1.6453-.4581-3.1136.3667-3.7421,1.9052h0Z"/><path class="cls-11" d="M251.98427,329.58718c.4749-1.3427,2.4271-1.7191,5.0749-1.8043,1.3275-.0295,2.8494-.0279,4.4952.0171,1.6364.0216,3.4213.0451,5.2949.0698,1.8724-.0222,3.6562-.0432,5.2914-.0624,1.6429-.0429,3.1648-.0423,4.4944-.011,2.6541.0886,4.633.468,5.2038,1.8112.5516,1.2854-.518,3.3766-3.1234,5.2761-1.2935.9539-2.9706,1.7959-4.9254,2.4335-1.9579.6073-4.1957.9903-6.5679.9994-2.3719-.0123-4.6368-.3986-6.6379-1.0086-2.0001-.6402-3.7373-1.4845-5.099-2.4401-2.7412-1.9032-3.9608-3.9961-3.501-5.2807Z"/><path class="cls-10" d="M226.69677,373.96878c12.704,9.3712,28.8165,14.0986,44.5718,13.2582,15.1507-.8082,29.5385-6.8083,41.0515-16.6375,6.2962-5.3755,11.6192-11.9382,15.5816-19.2064,1.9384-3.5556-3.4912-6.7342-5.4316-3.1749-6.5519,12.0181-16.9432,21.5831-29.3571,27.3233-12.7647,5.9025-27.4398,6.9875-41.0289,3.5365-8.036-2.0408-15.5408-5.6095-22.2124-10.5308-1.3679-1.009-3.5102-.2274-4.3032,1.1284-.935,1.5985-.2428,3.2918,1.1283,4.3032h0Z"/><path class="cls-10" d="M403.75167,48.61438c-14.2-14.8758-32.8176-25.1529-51.6815-32.9095-17.1951-7.0707-35.3044-11.6296-53.7354-13.9674-18.4077-2.3347-37.1091-2.3045-55.5165.0181-18.4597,2.3293-36.6052,6.817-53.9215,13.6499-17.3453,6.8442-33.8196,15.8447-48.715,27.0832-1.9094,1.4408-3.7963,2.9121-5.6598,4.4125-1.3567,1.0928-1.1376,3.4206,0,4.5586,1.341,1.341,3.1982,1.0954,4.5587,0,14.0225-11.292,29.6947-20.5306,46.2187-27.6528,16.5307-7.125,34.0711-12.0199,51.8464-14.7976,17.7961-2.781,35.9844-3.2867,53.9159-1.6234,17.8231,1.6533,35.4533,5.6187,52.255,11.7957,8.5237,3.1335,16.8083,6.8798,24.8,11.1928,9.0463,4.882,17.7715,10.4762,25.4498,17.3425,1.9485,1.7426,3.8218,3.5652,5.6265,5.456,2.8705,3.007,7.4248-1.5561,4.5587-4.5586Z"/><path class="cls-10" d="M113.63347,64.26588c-.799-1.366-3.0132-2.2123-4.4102-1.1565-25.7982,19.4962-45.2,46.1038-58.7569,75.2848-15.183,32.6812-22.985,68.0223-27.7448,103.587-2.8574,21.3478-4.6397,42.8183-6.3694,64.2812-.1228,1.5226,1.1842,2.8515,2.6143,3.1568-7.7787,3.9203-14.3618,10.2384-17.3526,18.5711-4.31,12.0072.6888,25.0919,7.0374,35.3661,5.8547,9.4744,13.5077,17.6878,22.368,24.4094,9.8584,7.479,21.3166,12.8946,33.3698,15.7069,4.0361.9418,5.759-5.2727,1.714-6.2164-19.4251-4.5326-35.317-18.0206-46.948-34.2684-6.1156-8.5431-12.0361-19.3025-10.7162-30.1838,1.1445-9.4359,6.6973-14.6804,15.0177-18.4226,12.196-5.4852,26.4479-3.3665,39.096-.8824.8638.1696,1.743.0413,2.4651-.3538.3283.1152.6648.1917.996.1917,1.8959,0,3.0383-1.4848,3.2234-3.2234,1.1313-10.6334,2.263-21.2669,3.3943-31.9003.1845-1.7337-1.6136-3.2234-3.2234-3.2234-1.8963,0-3.0383,1.4848-3.2234,3.2234-1.023,9.6159-2.0464,19.2318-3.0695,28.8479-12.5693-2.4219-26.0469-4.1853-38.4309-.0287-.8131.2729-1.617.5792-2.4153.9006.2934-.4923.481-1.063.5301-1.6707,3.0018-37.2461,6.1468-74.6764,14.9599-111.0867,7.6442-31.5804,19.7593-62.2784,38.6537-88.8871,10.075-14.1888,22.1634-27.1071,36.0644-37.6126,1.3869-1.0479,2.109-2.7817,1.1565-4.4101Z"/><path class="cls-10" d="M400.61667,141.33198c-1.3784-.8062-3.6933-.4395-4.4104,1.1565-8.5102,18.9428-17.4004,38.2187-30.5732,54.4528-11.7865,14.5258-27.0404,26.7933-45.36,31.7109-11.3231,3.0396-23.3146,3.2492-34.7391.6292-.3994-.0916-.7687-.0963-1.1194-.0604,4.9916-6.0159,9.4424-12.4771,13.4549-18.8649,6.5422-10.415,11.9754-21.4865,16.3528-32.9771.6195-1.6271-.6869-3.5354-2.2513-3.9652-1.8145-.4985-3.3434.6182-3.9654,2.2513-7.0638,18.5439-17.2505,36.3812-30.3192,51.3637-11.4415,13.1175-26.6324,24.4403-44.8119,23.9911-7.8658-.1945-15.6316-2.67-21.6053-7.7639,10.3782-4.7554,19.9766-11.3694,27.2535-20.2388,1.103-1.3449,1.3158-3.2426,0-4.5587-1.1383-1.1381-3.4491-1.3525-4.5587,0-13.3882,16.3185-33.7957,23.5673-53.7427,28.178-11.0625,2.557-22.2843,4.5074-33.4796,6.3791-12.5817,2.1033-25.2606,3.8001-38.0274,4.1332-14.1568.3694-28.2932-1.0552-41.7799-5.531-3.9468-1.3096-5.639,4.914-1.714,6.2166,25.186,8.3585,52.1238,6.3002,77.9097,2.2614,11.8416-1.8547,23.693-3.932,35.4068-6.481,8.9122-1.9395,17.7284-4.3303,26.2311-7.6179,13.0604,13.4615,34.27,14.0643,50.5869,6.7147,10.1062-4.5522,18.715-11.7878,26.17-20.141-.0327,1.2927.6456,2.549,2.2951,2.9272,21.1205,4.8435,43.26.6954,61.3763-11.116,17.1561-11.1854,30.0544-27.5912,40.1146-45.2107,6.1642-10.7956,11.3717-22.0983,16.4621-33.4288.7129-1.5869.458-3.466-1.1563-4.4103Z"/><path class="cls-10" d="M460.48227,237.36288c-.9305-10.5406-2.4736-21.0311-6.29-30.9528-3.3585-8.73-8.0094-16.8023-13.8125-24.1327-6.4244-8.1155-14.3076-15.0587-23.1307-20.4661-3.547-2.1738-6.7893,3.4-3.2537,5.5666,14.7723,9.0536,26.6079,22.8875,33.2474,38.9056,3.8252,9.2286,5.6387,18.9995,6.5925,28.9054,1.0744,11.158,1.7672,22.3606,2.6178,33.5377.9786,12.8546,1.957,25.7095,2.9357,38.5643.1319,1.7361,1.3866,3.2234,3.2234,3.2234,1.6419,0,3.3562-1.478,3.2234-3.2234-1.7742-23.3054-3.2977-46.6458-5.3533-69.928Z"/><path class="cls-10" d="M368.64557,130.35698c-1.5079-.4143-3.7227.5162-3.9651,2.2513-2.5176,18.0338-8.503,35.4139-17.718,51.1212-2.1037,3.586,3.4664,6.834,5.5667,3.2538,9.4756-16.1518,15.7783-34.1121,18.3677-52.661.2405-1.722-.419-3.4618-2.2513-3.9653Z"/><path class="cls-10" d="M508.29317,221.48418c-5.1024-23.4558-11.3209-46.7189-20.7765-68.8329-8.5184-19.9213-19.8717-38.7545-34.6956-54.6376-8.1234-8.7033-17.3154-16.428-27.3936-22.7757-3.5209-2.2175-6.7597,3.3586-3.2539,5.5667,17.2461,10.862,31.4795,25.9619,42.6547,42.9199,12.3578,18.7521,20.9801,39.6294,27.4801,61.0581,3.8369,12.6494,6.9593,25.5024,9.7684,38.4152.8814,4.0522,7.0978,2.3374,6.2164-1.7137Z"/><path class="cls-10" d="M524.51847,325.78858c-1.556-6.0549-5.5459-11.2964-10.3328-15.2032-.5124-.4184-1.0407-.8122-1.5692-1.2058.0339-.1585.0676-.3172.0842-.4813,2.3591-23.3308.7614-46.9857-4.5978-69.8122-.9478-4.0373-7.1654-2.3283-6.2164,1.7139,4.9787,21.2061,6.5141,43.09,4.6685,64.7819-9.5568-4.9866-20.7477-6.5152-31.3895-4.0998-4.0441.9179-2.3326,7.1349,1.714,6.2164,10.4383-2.3694,21.6182-.1839,30.4841,5.7864,4.1955,2.8255,8.0891,6.6876,10.0858,11.41,2.3546,5.5692,1.634,12.0119.294,17.7391-2.7081,11.5724-8.996,21.9012-15.5602,31.6608-3.275,4.8691-6.765,9.6101-11.173,13.5254-3.6594,3.2501-7.9508,5.8839-12.4633,7.7746-10.431,4.3701-22.2518,4.9698-33.0005,1.4284-3.9493-1.301-5.6422,4.9223-1.7137,6.2167,10.8324,3.5691,22.8733,3.3267,33.6405-.3783,5.4508-1.8758,10.5802-4.5594,15.1519-8.0733,5.0743-3.9005,9.1495-8.7237,12.842-13.9249,7.4818-10.538,14.6088-22.0261,18.0098-34.6059,1.7741-6.5623,2.7572-13.7914,1.0416-20.4689Z"/><path class="cls-10" d="M221.03417,506.51848c-1.1565-3.3618-3.0613-6.3676-5.8616-8.5913-2.7336-2.1708-5.924-3.547-9.2229-4.6289-6.959-2.2821-14.0518-4.1228-20.9915-6.4825-27.3243-9.2908-53.8302-22.9432-73.1218-44.904-9.8506-11.2133-17.4785-24.4044-21.4291-38.8397-1.0935-3.9966-7.3149-2.3-6.2163,1.7139,7.2778,26.5946,26.0145,48.5559,48.4502,63.9253,12.5193,8.5764,26.2622,15.2058,40.4049,20.6371,6.9265,2.6601,13.9664,5.0192,21.0679,7.1681,3.4466,1.043,6.9455,1.9402,10.3625,3.0772,2.9136.9695,5.8358,2.2504,7.9565,4.543,2.2554,2.4383,3.167,5.9274,3.4699,9.159.3812,4.0686.2253,8.1767.1989,12.2568-.0611,9.518-.1225,19.036-.1835,28.554-.0268,4.1492,6.42,4.1537,6.4468,0,.0544-8.4603.1086-16.9208.1634-25.3813.0462-7.225.899-15.2482-1.4943-22.2067Z"/><path class="cls-10" d="M436.05837,415.08168c-1.6255-.9507-3.3883-.2594-4.4101,1.1565-14.9243,20.6811-30.7498,42.3821-52.9847,55.7494-5.3945,3.2429-11.0864,5.9019-17.0717,7.8541-5.5485,1.8098-11.2266,3.188-16.7844,4.9684-11.4434,3.6663-22.4647,9.5317-26.662,21.5512-5.0237,14.3861,1.9567,29.9406-2.817,44.3276-1.3095,3.9467,4.9141,5.6389,6.2163,1.7138,2.1692-6.5368,2.1217-13.5077,1.7282-20.3058-.367-6.3412-1.1814-12.9017-.1281-19.2168.9683-5.8055,3.6883-10.8544,8.2842-14.57,4.0699-3.2903,9.0954-5.302,14.0149-6.9326,5.617-1.862,11.3751-3.2555,17.0138-5.0467,6.0146-1.9104,11.8382-4.4271,17.3318-7.5352,11.2202-6.3479,21.0595-14.9653,29.8077-24.3746,10.1172-10.8818,18.9349-22.8972,27.6177-34.9292,1.0192-1.4124.2439-3.5911-1.1566-4.4101Z"/><path class="cls-10" d="M528.73757,67.70018c9.5155-16.652,19.031-33.3041,28.5464-49.9562,1.8425-3.2244-3.1334-6.1301-4.9747-2.9079-9.5155,16.6521-19.0309,33.3042-28.5464,49.9563-1.8425,3.2243,3.1335,6.1301,4.9747,2.9078h0Z"/><path class="cls-10" d="M461.23027,29.79748c-2.3789-8.3261-4.7578-16.6521-7.1366-24.9781-1.0169-3.5589-6.5777-2.0459-5.5556,1.5315,2.3789,8.3261,4.7578,16.6521,7.1366,24.9782,1.0168,3.5588,6.5777,2.0458,5.5556-1.5316h0Z"/><path class="cls-10" d="M579.78397,102.63918c16.6513-.1092,33.3027-.2184,49.9541-.3276,3.7059-.0242,3.7141-5.7856,0-5.7613-16.6514.1092-33.3028.2183-49.9541.3275-3.706.0243-3.7142,5.7857,0,5.7614h0Z"/><path class="cls-5" d="M207.52507,670.14098c-.8556-13.5376-12.7228-23.8038-26.2689-22.592-1.2246.1095-2.2519.5133-3.0863,1.1068-9.1401,1.7898-16.9862,7.9217-18.5458,18.1285-2.2017,14.4094,9.5066,23.7089,22.7897,25.1504,13.9094,1.5092,26.0514-6.9194,25.1113-21.7937Z"/><path class="cls-6" d="M189.52237,653.96418c-.9639-1.106-2.3766-1.8694-4.2462-1.9412-10.4247-.4008-19.5239,7.448-19.9739,18.0281-.498,11.707,8.4404,17.5462,19.1806,17.5003,10.0546-.0428,19.0261-6.3167,18.9218-17.0677-.0815-8.4087-6.3234-14.5249-13.8823-16.5195Z"/><path class="cls-10" d="M216.90357,519.96698c-13.022.4465-27.2367,1.3939-37.9834,9.6064-11.8786,9.0777-14.519,24.0136-15.7442,38.0484-2.7321,31.2954,3.1712,62.6159,11.2217,92.7973-3.674,3.3986-5.5787,8.6656-3.8441,13.6286,2.3558,6.7407,10.8763,11.1704,17.702,8.6724,7.7222-2.826,10.8146-16.2189,5.256-22.2502-2.1927-2.379-4.869-3.3823-7.577-3.3857-6.9603-26.122-12.2229-52.8677-11.3236-80.0162.3946-11.9136.5989-27.8559,9.9646-36.653,8.347-7.8405,21.5763-8.0794,32.328-8.448,7.701-.2642,7.7366-12.2654,0-12Z"/><path class="cls-10" d="M358.65117,655.20588c4.0641-13.3956,7.0494-27.0643,8.919-40.9517,1.9795-14.7044,3.2726-29.9429,1.7522-44.7537-1.3706-13.3525-5.2445-26.3925-14.1856-36.6832-7.881-9.0705-19.2641-14.9967-31.4-14.7579-7.3297.1442-7.3543,11.5499,0,11.4052,25.16-.495,34.099,27.8241,34.6958,48.2516.7579,25.9391-3.7442,52.1299-11.5156,76.8392-8.0223,1.8476-14.4917,8.2612-19.6746,15.1876-8.3229,11.123-15.4043,23.1526-21.416,35.669-.2619.3036-.485.644-.6505,1.029-1.7273,4.0203-3.1982,8.0162-2.0149,12.4295,1.1661,4.349,4.7086,6.7889,8.8476,7.9347,7.0843,1.9612,10.1075-9.0389,3.0319-10.9977-.1507-.0418-.7778-.3662-1.0594-.4363.0036-.0387.0112-.0796.022-.1222.0577-.1792.1553-.4871.1758-.5504.1295-.3982.2471-.7958.372-1.1911,4.9127-10.5116,10.5727-20.647,17.0639-30.2685,4.604-6.8242,11.4613-19.1391,21.3098-17.7396,10.4819,1.4895,14.614,13.0636,16.2075,22.0658,2.0301,11.4679,1.5126,23.4748-.7925,34.8526-.759.0318-1.5158.0201-2.275.0014-2.9843-.0734-5.8382,2.6754-5.7026,5.7026.1412,3.1525,2.505,5.624,5.7026,5.7026,3.0151.0743,6.1689-.1606,8.816-1.7561,3.0145-1.8168,4.7472-4.8596,4.9373-8.3388.0125-.2295.0011-.4573-.0213-.684,4.0034-22.09,4.5487-59.789-21.1454-67.8396Z"/><path class="cls-10" d="M489.13087,693.08848c-1.8212-9.4241-3.9647-18.7823-6.2093-28.1135-2.155-8.9586-4.2752-17.9395-6.7148-26.8257-2.37-8.6326-5.1794-17.1692-9.0357-25.2629-3.839-8.0574-8.8956-15.4067-14.6081-22.2449-10.6896-12.7959-23.1873-24.4404-36.5872-34.3521-13.088-9.6806-27.7026-17.5937-43.4966-21.7992-1.9222-.5118-3.8591-.9631-5.8075-1.3634-1.3214-.2714-2.701.3838-3.0754,1.7461-.3399,1.2369.4173,2.8023,1.7461,3.0752,15.6318,3.2113,30.1067,10.1852,43.217,19.1724,13.3213,9.1316,25.4014,20.2485,36.2354,32.2012,5.7671,6.3625,11.0664,13.1643,15.2649,20.6743,4.237,7.5791,7.271,15.7339,9.7631,24.0327,2.5638,8.5363,4.6072,17.2235,6.7242,25.8782,2.2417,9.1645,4.4326,18.3435,6.3657,27.5787,3.85,18.3937,6.6666,37.0773,6.6255,55.91-.0052,2.3483-.0574,4.6957-.1504,7.042-.1275,3.2177,4.8728,3.2121,5,0,.7627-19.2531-1.609-38.4741-5.2569-57.3491Z"/><path class="cls-4" d="M409.16577,559.87538s-7.7853-44.0685-13.1288-48.2833c-5.3436-4.2148-23.4554-9.6808-23.4554-9.6808,0,0,25.6664,71.8057,36.5842,57.9641Z"/><path class="cls-3" d="M407.77747,589.32888c.5367-7.1369,1.202-14.2775,1.5925-21.4238.2412-4.4195.1248-9.0755-1.5005-13.1163.084-.504-.0037-1.053-.3555-1.5895-5.0265-7.6669-10.0533-15.3337-15.0799-23.0005-4.7614-7.2621-9.3214-14.722-14.4691-21.7193-4.522-6.1469-9.9747-12.171-17.1011-15.2834-6.4157-2.8019-14.052-2.5757-19.4388,2.2777-2.709,2.4405-4.6682,5.7437-4.7672,9.4594-.0008.0256.0014.0507.0009.0763-6.3893-.4577-12.7914.3158-17.9069,4.6159-4.9663,4.1745-6.3152,10.2076-5.2385,16.0357-1.7884.195-3.5458.6926-5.1723,1.517-5.1629,2.6171-8.0972,7.845-8.1406,13.5744-.0077,1.022.0984,2.0321.2931,3.0218-1.3524,1.6854-2.3664,3.6851-2.9763,5.7456-.8333,2.8146-1.1165,5.8371-.6019,8.742.6158,3.4771,2.1153,6.7333,3.8406,9.7856,1.7736,3.1375,3.811,6.1107,5.6634,9.1999,1.7774,2.964,3.1868,6.0999,4.3078,9.3674,2.2683,6.6105,3.4878,13.5212,5.6282,20.17,2.1064,6.5435,5.2819,12.604,10.3087,17.3733,4.561,4.3275,10.3063,7.3069,16.1948,9.3912,5.8075,2.0561,13.5945,4.4091,13.5945,4.4091.322,1.5451,5.8502,7.9334,6.3325,9.5059.4555,1.4847,1.4662,2.7184,3.0072,3.1389,1.451.3956,3.104.0873,4.5706-.0601,3.0467-.3065,6.0819-.7706,9.0748-1.4183,5.7756-1.2491,11.3839-3.1889,16.7357-5.6897,2.5846-1.2079,5.1991-2.5128,7.5629-4.1191,2.233-1.5176,4.3181-3.4377,5.1887-6.0694,1.1074-3.3473-.4928-6.6658-1.7039-9.7361-1.0119-2.5654-2.0766-5.1097-3.1641-7.6441.7625-2.3422,1.3447-4.7482,1.7805-7.1697,1.1494-6.386,1.4535-12.9079,1.9392-19.3678Z"/><path class="cls-4" d="M331.05627,609.37358c-5.6093-17.2179-15.2108-30.3884-23.257-45.5305-2.5964-6.8455-1.7701-14.9893,1.1321-20.6961,2.0204-5.6027,8.8659-8.1991,11.8722-13.0242s-4.1028-12.0317,1.6527-16.2875c6.4291-6.1233,16.3362-5.5052,25.1535-6.5464-5.7069-2.9021-4.5681-8.4007-1.3536-11.4624,1.9875-2.8971,4.5441-4.1253,7.4009-4.3941-4.3924-.2736-8.7753.9271-12.232,4.0414-2.7091,2.4406-4.6682,5.7438-4.7672,9.4594-.0006.0257.0013.0507.0008.0763-6.3892-.4577-12.7913.3158-17.9068,4.616-4.9663,4.1743-6.3151,10.2076-5.2385,16.0356-1.7883.195-3.5458.6926-5.1724,1.517-5.1627,2.6171-8.0969,7.8451-8.1405,13.5745-.0078,1.022.0983,2.032.2931,3.0217-1.3523,1.6854-2.3662,3.6851-2.9762,5.7455-.8335,2.8148.2878,5.9293-.6021,8.7422-1.9289,6.0977,17.2998,41.8741,19.4401,48.5227,2.1065,6.5435,5.282,12.6041,10.3088,17.3735,4.5609,4.3274,10.3063,7.3068,16.1946,9.3911,2.8109.9951,5.6795,1.8108,8.5778,2.5108-9.6666-6.8855-17.1706-15.8628-20.3803-26.6865Z"/><path class="cls-10" d="M410.89717,554.87008c-.2021-.5733-.4346-1.1321-.6703-1.6892.6923-.6074.8882-1.5887.6047-2.5058-2.818-9.1172-5.6359-18.2345-8.4539-27.3518-1.3025-4.2143-2.2911-8.7713-4.6235-12.5648-2.045-3.3258-5.4217-5.7111-9.0172-7.1151-4.6436-1.8133-9.6349-2.0967-14.5598-2.3144-.5607-.0248-1.1051.108-1.5494.3814-1.229-1.0964-2.4471-2.2056-3.6521-3.3326-2.81-2.628-5.7739-5.0729-9.3546-6.5776-6.6877-2.8103-14.4816-2.209-19.714,3.1219-2.1895,2.2308-3.5351,5.0916-3.8598,8.1472-8.0025-.1068-16.3703,1.8404-21.402,8.5426-2.4583,3.2746-3.9061,7.3956-3.4447,11.5154.0976.8709.6463,2.0062.5449,2.8624-.0787.6647-1.1373,1.1464-1.6411,1.4726-1.9114,1.2372-3.951,2.2673-5.8274,3.5597-3.6112,2.4871-6.6724,6.4067-6.3303,11.02.0797,1.0749.4342,2.0814.867,3.0576.3589.81.487.8752-.1386,1.4958-1.4859,1.4744-2.8928,2.6714-3.9435,4.5241-4.4815,7.9018-.7098,17.0385,3.561,24.0644,2.7833,4.5788,5.6392,9.027,7.8546,13.9239,2.2898,5.0612,4.0784,10.3505,5.2838,15.7737.26,1.1702,1.1873,2.0948,2.4646,1.944,1.0987-.1297,2.2057-1.2872,1.944-2.4646-2.0834-9.3736-5.6506-18.2745-10.6519-26.4735-4.0243-6.5974-9.7469-14.0368-7.5351-22.266.42-1.5628,1.1891-3.0351,2.2987-4.2183,1.335-1.4239,3.0603-2.3946,3.5277-4.4428.2481-1.087.0304-2.169-.3931-3.1841-.3477-.8335-.7527-1.5536-.75-2.4835.0053-1.7886,1.0402-3.4913,2.2161-4.7625,1.4183-1.5334,3.3486-2.6205,5.1325-3.6662,1.798-1.0542,3.9599-2.0442,5.3284-3.6684.6833-.811,1.0868-1.7736,1.1491-2.8321.0699-1.1885-.3469-2.2794-.5125-3.4398-.2287-1.6037-.059-3.2644.476-4.7941,3.2524-9.3007,13.9248-11.2104,22.587-10.5129,1.1937.0963,2.3409-.6156,2.5297-1.8598.116-.7638-.2386-1.607-.8517-2.1032.3297-4.7563,4.8667-8.4404,9.4075-9.0192,2.9287-.3731,5.8776.2504,8.5502,1.4548,3.0178,1.3603,5.4819,3.5327,7.8783,5.7739,3.0341,2.8378,6.1223,5.5947,9.3722,8.1851,2.2373,1.7833,4.9865-1.7023,2.7492-3.4854-.2588-.2065-.5105-.4201-.7672-.6284,6.1498.4363,12.7329,1.651,16.31,7.0002,1.0996,1.6442,1.7337,3.5854,2.3292,5.4566.6769,2.1263,1.3211,4.2637,1.9801,6.3958l3.9668,12.8342c.5098,1.6495,1.0197,3.2989,1.5295,4.9484-.8089-1.0528-1.6316-2.0926-2.4547-3.1203-4.6324-5.7836-9.2699-11.5626-13.9048-17.3441-1.7831-2.224-5.3379.437-3.5439,2.6747,4.0974,5.111,8.1948,10.2217,12.2922,15.3327,3.6385,4.5385,7.5579,9.0689,9.9135,14.4447,4.4622,10.1834,1.6903,21.5275.2258,32.0497-.8578,6.1632-1.401,12.4752-.344,18.6491.4803,2.8052,4.8919,2.3019,4.4086-.5206-1.912-11.1684,1.6477-22.244,2.4035-33.3463.3797-5.579.0769-11.2062-1.7953-16.5192Z"/><path class="cls-10" d="M356.88857,635.99718c-11.5373-.2793-22.6961-5.7025-30.0982-14.5613-2.0896-2.5008-3.8695-5.23-5.2657-8.1752-1.2173-2.568-5.3413-.9176-4.1127,1.6741,5.4876,11.5756,16.0357,20.2835,28.3144,23.8166,3.4222.9847,6.9307,1.549,10.4923,1.6355,1.1969.0289,1.8759-4.3605.6699-4.3897Z"/><path class="cls-7" d="M505.56397,750.93138c-22.8161-54.7672-51.1491-110.1976-87.2685-153.7611-17.5737,24.5429-39.967,45.6204-65.5224,61.6774,7.105,30.5546,13.5661,61.2588,19.3872,92.0837h133.4037Z"/><path class="cls-10" d="M364.94407,711.42238c2.671,13.0766,4.6011,26.2813,6.3534,39.509h4.8104c-.4276-3.1744-.8493-6.3496-1.2942-9.5214-2.6243-18.7085-5.8369-37.4047-11.2438-55.5343-2.705-9.0696-5.9842-17.9696-9.9269-26.5743,19.5294-12.9166,37.6929-27.9075,54.0111-44.7007,3.9938-4.11,7.8677-8.3347,11.6367-12.6514,7.3617,12.2064,16.3658,23.3064,24.8763,34.7173,8.9567,12.0091,17.0975,24.5919,24.4884,37.6217,7.3678,12.9891,14.0145,26.378,20.1522,39.9886,5.4419,12.0675,10.4621,24.3183,15.2608,36.6545h5.1362c-4.3775-11.2948-8.9385-22.5191-13.812-33.6092-6.0099-13.6768-12.4984-27.1505-19.6827-40.2514-7.208-13.1437-15.1203-25.9105-23.8954-38.0686-9.0234-12.5018-19.0028-24.3337-27.165-37.4434-1.0039-1.6126-1.9766-3.2445-2.92-4.8932-.7223-1.2625-2.7601-1.6699-3.7741-.4863-15.3885,17.9642-32.7362,34.2811-51.6984,48.4286-4.9297,3.678-9.9701,7.2045-15.1011,10.5957-.7183-.3201-1.6152-.2961-2.2737.0889-1.1949.6989-1.4272,2.1144-.8621,3.288,8.0575,16.7324,13.2162,34.6891,16.9239,52.8419Z"/><path class="cls-3" d="M256.29267,544.89768c-.3862-2.3513-.8554-4.7571-1.5701-7.0493,2.8279-10.2903-2.8644-21.62-11.8014-27.4991-4.2337-13.0588-20.0675-21.087-34.3067-20.0609-3.2183.232-6.3607.7912-9.4359,1.6097-9.8294-4.8195-22.7025-3.2517-31.9084,3.1314-11.1479,7.7297-17.4131,21.0071-19.7101,34.3768-2.2971,13.3696-1.1076,27.0575-.1692,40.5903.9384,13.5331,1.5971,27.3273-1.7115,40.4829-2.6476,10.5271-7.607,22.3739-1.6647,31.4579,4.1633,6.3639,12.6328,8.7685,20.1777,7.816,6.0672-.7659,11.7046-3.3084,17.1544-6.1631,0,0,34.6582-22.3948,39.7076-41.7603,2.538-9.734.8687-20.2032-3.8085-29.083l4.6183,5.3914c6.1301,5.2662,23.2503,7.9035,31.6109-6.6758,4.5347-7.9076,4.2953-17.5701,2.8176-26.5649Z"/><path class="cls-4" d="M151.67277,579.55728c.4535-25.2262-2.1146-53.5098,13.5004-72.5669,6.3015-7.9424,14.8886-13.5683,24.2386-17.7706-7.6549-.7118-15.7749,1.3951-22.1416,5.8097-11.1479,7.7297-17.4131,21.0071-19.7101,34.3768-2.2971,13.3696-1.1076,27.0575-.1692,40.5903.6154,8.8742,1.1025,17.8597.4376,26.7046,2.4534-5.4451,3.677-11.4085,3.8443-17.1439Z"/><path class="cls-4" d="M253.47507,571.46258c4.5347-7.9077,4.2953-17.5701,2.8176-26.5649-.3862-2.3513-.8554-4.7571-1.5701-7.0493,2.8279-10.2903-2.8644-21.62-11.8014-27.4991-2.6926-8.3056-10.0797-14.5709-18.7623-17.7715,3.5319,9.647-12.4892,14.1285-21.6196,17.9776,15.1616,6.1691,47.1575-7.3196,40.0243,16.6511-1.8561,5.4603-14.9242,5.0789-23.1507,8.3738,11.5393,1.8921,28.2837-2.5681,31.5605,8.6979,3.5862,10.3559-.4715,28.2656-14.4676,30.6144-7.6078,1.4747-14.2515-5.8597-21.2226-9.2446.8921,3.3488.732,5.3959,1.1796,8.3243,1.2014,2.4389,3.0115,8.1139,2.7021,9.024.8242,6.0244.6512,9.382,2.6525,15.1053,1.3029-8.6315-.4866-17.5992-4.5715-25.3546l4.6183,5.3913c6.1301,5.2662,23.2503,7.9035,31.6109-6.6757Z"/><path class="cls-10" d="M197.38767,488.26158c-9.2583-3.0793-19.3927-1.3156-27.756,3.4578-9.2337,5.2701-15.8582,13.5627-19.905,23.3204-9.5036,22.9158-4.0952,48.0214-4.2553,71.9552-.0468,6.9821-.6931,13.908-1.9,20.7844-1.2152,6.9237-2.9129,13.7527-4.5939,20.5745-.3106,1.2601.1966,2.6049,1.5017,3.0485,1.1489.3906,2.7362-.2343,3.0486-1.5017,2.9317-11.8973,5.8642-23.8905,6.5484-36.1686.6549-11.7488-.4822-23.4885-.993-35.2186-.9182-21.083.5559-46.4535,19.0917-60.1529,7.8366-5.7919,18.1969-8.6982,27.666-5.5488,2.9334.9758,4.4867-3.5722,1.5468-4.5502Z"/><path class="cls-10" d="M258.63537,549.30918c-.8237-3.4218-2.3037-6.7628-4.483-9.5521.8216-.3401,1.3418-1.154,1.5126-2.0903.4236-2.3224.862-4.6425,1.2709-6.9674.3822-2.1736.1721-4.1196-1.1968-5.9226-1.3308-1.7524-3.062-3.2775-4.5983-4.8484-1.65-1.6874-3.3112-3.3637-4.9834-5.0291-1.3998-1.3939-2.7721-2.8251-4.2735-4.0215.8873-.6571,1.3829-2.0169.7724-3.0128-2.2641-3.6943-4.5079-7.4018-6.7932-11.083-1.1038-1.7781-2.2896-3.3875-4.2676-4.2455-1.8216-.7905-4.0268-.8791-5.9832-1.0821-7.6207-.7916-15.3749-.5112-22.9277.7685-4.2263.716-8.3863,1.7695-12.4514,3.1275-1.2289.4103-2.1565,1.4547-1.8743,2.8353.2355,1.153,1.5969,2.2879,2.8353,1.8744,6.607-2.207,13.5163-3.6424,20.4743-4.0836,3.5164-.2226,7.0483-.2167,10.564.0143,1.7237.113,3.4437.2805,5.1566.5032,1.6996.221,2.8263.4283,3.839,1.8954,2.2201,3.2166,4.1664,6.6663,6.1786,10.0341-.7407-.2209-1.5213-.371-2.3577-.4223-2.247-.1382-4.5433.1881-6.7821.3565l-7.0818.5328c-5.3507.4024-10.7013.8048-16.052,1.2072-1.2945.0976-2.1109,1.6785-1.8744,2.8355.2866,1.4024,1.5359,1.9721,2.8354,1.8742,8.5766-.6449,17.1519-1.3169,25.7305-1.9354,1.6859-.1214,3.5293-.2899,5.1211.4001,1.6666.7225,2.9724,2.1927,4.2394,3.4456,3.0205,2.987,6.0054,6.01,8.9541,9.0678.6525.6767,1.531,1.3674,1.9982,2.1927.3634.6418.1802,1.3778.0646,2.0757-.3589,2.1649-.7771,4.3223-1.1775,6.4809-1.3974-1.1534-2.9578-2.1156-4.689-2.6657-2.4674-.7842-5.045-.7315-7.5955-.5604-5.855.392-11.6349,1.3316-17.2977,2.8766-2.9679.8099-2.0338,5.5268.961,4.7098,4.5313-1.2362,9.1525-2.1133,13.8261-2.591,2.2133-.2262,4.4868-.4502,6.7097-.2438,2.0571.1909,3.8349,1.0981,5.3831,2.4458,5.9,5.136,7.0555,13.7256,5.8752,21.0455-.6958,4.3155-2.2222,8.4769-3.9653,12.4922-.2409.2505-.4498.5446-.6127.8741-2.149,4.3463-7.1553,7.2083-11.9293,7.3544-3.0359.093-5.744-.9617-8.3647-2.4186-2.3738-1.3198-5.384-2.6853-6.5312-5.3114-.3084-.7059-.8077-1.0977-1.3626-1.2546,6.2053-3.3442,11.5651-8.1315,15.5415-13.9596.7311-1.0716.4343-2.612-.6377-3.3388-1.0801-.7325-2.6047-.4383-3.3388.6377-3.2977,4.8332-7.6331,8.8576-12.6882,11.793-.4785-1.681-1.1223-3.3146-1.9798-4.8518-.6122-1.0977-2.0388-1.7385-3.2175-1.0938-1.0944.5986-1.7477,2.0451-1.0938,3.2177.4216.7557.8006,1.5339,1.1281,2.3353.0818.2.1605.4015.2362.604.0269.0721.0532.1445.0793.2168.105.4003.2495.7924.3558,1.1932.2156.8128.383,1.6386.5008,2.4715.0568.4013.0961.804.1331,1.2075.004.0841.0087.168.0122.2519.0097.2403,1.5747,8.7705,1.7468,11.955.2532,4.6867.2787,9.5147-.5747,14.1457-.8372,4.5429-2.8714,8.4902-5.7938,12.0353-2.9434,3.5706-6.473,6.6676-9.808,9.862-4.1579,3.9823-8.3157,7.9648-12.4736,11.9471-2.2308,2.1367.9115,5.7746,3.1483,3.6321,3.8114-3.6503,7.6228-7.3009,11.4342-10.9515,3.628-3.475,7.3745-6.8633,10.6956-10.6399,3.308-3.7617,5.8586-8.0612,7.0494-12.9597,1.1944-4.9132,1.3697-10.002,1.1986-15.0356-.0747-2.1966-.2479-4.3863-.4758-6.57,1.4021,1.006,2.9412,1.8553,4.4117,2.6569,3.3416,1.8207,6.8595,3.1705,10.7209,3.0101,5.794-.2406,11.082-3.0115,14.5065-7.5087.6107-.2633,1.1114-.7838,1.4131-1.443,4.0881-8.9324,7.3484-18.932,4.9734-28.7989Z"/><path class="cls-7" d="M180.66887,750.93138c5.6916-29.9425,11.9863-59.7705,18.8895-89.4573-25.5554-16.0568-47.9487-37.1345-65.5224-61.6771-35.5419,42.8667-63.5489,97.2251-86.1745,151.1344h132.8074Z"/><path class="cls-10" d="M49.28637,750.93138c4.4901-11.448,9.182-22.8171,14.2374-34.0278,6.1377-13.6107,12.7844-26.9996,20.1522-39.9886,7.3909-13.0299,15.5317-25.6127,24.4884-37.6218,8.5105-11.4109,17.5146-22.5108,24.8763-34.7173,3.769,4.3167,7.6429,8.5414,11.6367,12.6514,16.3182,16.7932,34.4816,31.7842,54.0111,44.7007-3.9427,8.6047-7.2219,17.5047-9.9269,26.5743-5.407,18.1297-8.6195,36.8258-11.2438,55.5343-.3222,2.2967-.6245,4.5965-.937,6.8948h4.8041c1.6612-12.3486,3.5085-24.6715,6.0025-36.8823,3.7077-18.1529,8.8664-36.1096,16.9239-52.842.5651-1.1736.3328-2.5891-.8622-3.2879-.6584-.3851-1.5553-.4091-2.2736-.089-5.131-3.3911-10.1714-6.9177-15.1011-10.5956-18.9622-14.1476-36.3099-30.4644-51.6984-48.4286-1.014-1.1837-3.0519-.7763-3.7742.4862-.9433,1.6488-1.916,3.2806-2.9199,4.8933-8.1622,13.1096-18.1416,24.9415-27.165,37.4434-8.7751,12.158-16.6874,24.9248-23.8954,38.0685-7.1843,13.101-13.6729,26.5746-19.6827,40.2514-4.4959,10.2308-8.7305,20.5739-12.7968,30.9826h5.1444Z"/></g></svg>