<svg id="Expanded" height="512" viewBox="0 0 70 70" width="512" xmlns="http://www.w3.org/2000/svg"><path d="m9.916 69a1 1 0 0 1 -.976-1.2188c1.66-7.3945 3.96-10.1357 5.9892-12.5537a16.99 16.99 0 0 0 3.8608-6.6748c1.8218-5.8291-3.0293-9.1631-6.2392-11.3691a14.124 14.124 0 0 1 -1.9766-1.5068c-4.8852-5.0352-7.08-11.23-6.18-17.4414a20.0174 20.0174 0 0 1 37.0289-7.45 6.5328 6.5328 0 0 1 .5419 1.1689l.6709 1.877a4.6131 4.6131 0 0 0 1.8641 2.3347l5.2075 3.31a1 1 0 0 1 .1387 1.581l-2.94 2.6905 2.09 1.8174a1 1 0 0 1 .2383 1.2021l-.5.999.9506.1905a1 1 0 0 1 .7237 1.371 8.47 8.47 0 0 0 -.669 2.3106c.0874.0937.2256.2246.3423.3359.728.6914 1.9463 1.8487 1.6694 3.51-.1777 1.0664-1.5263 1.958-4.5605 3.873-2.4556 1.55-5.8193 3.6729-6.4917 5.1788a14.6249 14.6249 0 0 0 .1172 10.7783 14.0856 14.0856 0 0 0 1.5913 2.3642 17.7491 17.7491 0 0 1 4.2466 10.23 1 1 0 1 1 -1.9912.1856 15.82 15.82 0 0 0 -3.8418-9.1973 15.731 15.731 0 0 1 -1.8091-2.7187 16.39 16.39 0 0 1 -.1392-12.4561c.9195-2.06 4.2827-4.1826 7.25-6.0557a22.4084 22.4084 0 0 0 3.6646-2.5888c.0385-.5391-.4473-1.0489-1.083-1.6524a5.0223 5.0223 0 0 1 -.6739-.7217c-.4067-.582-.3716-1.5937.1016-3.0175l-.01-.002a1.83 1.83 0 0 1 -1.2757-2.6137l.2524-.5049-2.3511-2.0446a1 1 0 0 1 -.019-1.4922l2.8032-2.5654-4.1054-2.6094a6.6219 6.6219 0 0 1 -2.6748-3.35l-.6709-1.8769a4.5529 4.5529 0 0 0 -.376-.8174 18.0172 18.0172 0 0 0 -33.3316 6.7133c-1.0371 7.1575 2.4927 12.5214 5.6365 15.7617a13.786 13.786 0 0 0 1.6738 1.251c3.2422 2.2285 9.2773 6.3759 7.0156 13.6132a19.12 19.12 0 0 1 -4.2383 7.3653c-1.9751 2.3525-4.0171 4.7861-5.57 11.7051a1 1 0 0 1 -.9751.7812z"/><path d="m25.4531 27.624c-3.3481 0-9.6684-.6689-12.4907-5.4072a6.0467 6.0467 0 0 1 6.6265-8.9717 6.021 6.021 0 0 1 2.7524-3.6572 6.0567 6.0567 0 0 1 8.292 2.1016c3.8511 6.4628-2.0581 15.05-2.3115 15.4121a.999.999 0 0 1 -.7056.42 20.2978 20.2978 0 0 1 -2.1631.1024zm-7.3017-12.5517a4.0487 4.0487 0 0 0 -3.4714 6.1211c2.7907 4.6845 10.32 4.5107 12.2521 4.3789 1.03-1.64 4.7661-8.1885 1.9834-12.8594a4.0465 4.0465 0 0 0 -7.5215 1.9228 1 1 0 0 1 -1.4419.8584 4.0779 4.0779 0 0 0 -1.8007-.4218z"/><path d="m32.51 61.5957a.9863.9863 0 0 1 -.3624-.0684 1 1 0 0 1 -.5688-1.2949c2.4658-6.3291-1.3926-13.0791-4.21-18.0088-1.4189-2.4824-2.54-4.4433-2.7758-6.04a15.74 15.74 0 0 1 2.074-10.2036 1 1 0 0 1 1.6719 1.0967 13.9492 13.9492 0 0 0 -1.7671 8.8144c.1811 1.2246 1.2715 3.1319 2.5337 5.3408 3.0171 5.2793 7.1494 12.5088 4.3369 19.7276a.9994.9994 0 0 1 -.9324.6362z"/><path d="m27.502 27.5283a1 1 0 0 1 -.021-2c1.7778-.0381 3.2387-1.1777 4.7861-2.3838.27-.21.541-.4218.8159-.6289 1.793-1.3545 4.249-3.209 7.1206-3.2627a1.0183 1.0183 0 0 1 1.0186.9815 1.0008 1.0008 0 0 1 -.9815 1.0185c-2.0547.0381-3.9116 1.3174-5.9526 2.8584-.2661.2012-.5293.4063-.7915.61-1.7363 1.3545-3.5318 2.7539-5.9727 2.8066z"/><path d="m53.7974 21.7021a1 1 0 0 1 -.2974-1.9541c5.3457-1.6709 5.2363-8.7158 5.2349-8.7871a1 1 0 0 1 .9751-1.0244 1.0191 1.0191 0 0 1 1.0239.9756c.0088.3516.1323 8.6289-6.6372 10.7441a.99.99 0 0 1 -.2993.0459z"/><path d="m62.6055 33.4785a1 1 0 0 1 -.9825-.8193 7.2257 7.2257 0 0 0 -5.0771-6.003 1 1 0 0 1 .4351-1.9521 9.1881 9.1881 0 0 1 6.609 7.5938.9994.9994 0 0 1 -.8032 1.164.9558.9558 0 0 1 -.1813.0166z"/><path d="m58.584 22.7549a1 1 0 0 1 -.1861-1.9824c3.5-.6661 5.52-4.1651 5.54-4.2a1 1 0 0 1 1.7432.98c-.0992.1768-2.481 4.3418-6.9087 5.1846a1.0305 1.0305 0 0 1 -.1884.0178z"/></svg>