<svg xmlns="http://www.w3.org/2000/svg" width="30.627" height="30.93" viewBox="0 0 30.627 30.93"><g transform="translate(0 0)"><path d="M16.921,344c.986-3.57-1.81-10.074-8.672-10.764-.139-.014-.277-.027-.42-.036-.276-.015-.425.152-.171.4.089.086.176.173.262.259,3.4,3.379,5.024,5.9,5.511,8.93.033.2.062.406.082.613a.6.6,0,0,0,.656.6Z" transform="translate(-7.226 -313.072)" fill="#66b394" fill-rule="evenodd"/><path d="M351.036,344c-.988-3.57,1.808-10.074,8.67-10.764.139-.014.279-.027.421-.036.274-.015.423.152.17.4-.089.086-.175.173-.262.259-3.4,3.379-5.023,5.9-5.509,8.93-.033.2-.063.406-.082.613a.6.6,0,0,1-.656.6Z" transform="translate(-329.801 -313.072)" fill="#66b394" fill-rule="evenodd"/><path d="M62.148,263.782c1.1-4.132.556-12.6-9.783-15.8-.163-.05-.315-.1-.483-.144-.276-.075-.406.1-.236.337.123.176.229.332.349.5,5.091,7.393,5.391,9.607,6.307,15.1h3.846Z" transform="translate(-48.607 -232.852)" fill="#b3e59f" fill-rule="evenodd"/><path d="M284.106,263.782c-1.1-4.132-.555-12.6,9.785-15.8.161-.05.315-.1.481-.144.276-.075.408.1.238.337-.125.176-.231.332-.349.5-5.093,7.393-5.392,9.607-6.307,15.1Z" transform="translate(-266.718 -232.852)" fill="#b3e59f" fill-rule="evenodd"/><path d="M315.027,144.248a1.867,1.867,0,1,1-3.557,1.089c-1.269.1-3.158-.553-3.158-2.062,0-1.724,2.509-2.062,4.341-1.4Z" transform="translate(-289.839 -133.007)" fill="#98e5fa" fill-rule="evenodd"/><path d="M10.138,78.751A2.121,2.121,0,1,1,6.1,79.989c-1.442.113-3.588-.628-3.588-2.343,0-1.961,2.849-2.343,4.932-1.591Z" transform="translate(-2.511 -71.123)" fill="#fd91ba" fill-rule="evenodd"/><path d="M377.641,81.662a1.867,1.867,0,0,0,2.027-3.048,1.845,1.845,0,0,0-.938-.507c.1-1.271-.553-3.158-2.062-3.158-1.724,0-2.062,2.509-1.4,4.339Z" transform="translate(-352.453 -70.421)" fill="#98e5fa" fill-rule="evenodd"/><path d="M81.265,7.627A2.121,2.121,0,1,0,82.5,3.588C82.616,2.146,81.875,0,80.161,0,78.2,0,77.818,2.849,78.57,4.932Z" transform="translate(-73.638)" fill="#fd91ba" fill-rule="evenodd"/></g><path d="M328.132,94.1a.453.453,0,1,1-.64.64l-4.13-4.129h-.99a.451.451,0,1,1,0-.9h.726v-.73a.453.453,0,0,1,.906,0v.993Z" transform="translate(-302.623 -83.18)" fill="#27a9cc"/><path d="M25.932,22.756a.453.453,0,0,1-.64.64l-4.709-4.709H19.432a.451.451,0,1,1,0-.9h.887V16.9a.453.453,0,1,1,.906,0v1.152Z" transform="translate(-17.985 -15.449)" fill="#fc636e"/><path d="M212.4,214.282a28.854,28.854,0,0,1-.918-7.37c0-3.557.622-8.185,2.541-11.557a.318.318,0,0,1,.6,0,24.8,24.8,0,0,1,2.541,11.557,28.776,28.776,0,0,1-.92,7.37Z" transform="translate(-198.857 -183.352)" fill="#d6f6b2" fill-rule="evenodd"/><path d="M380.836,333.858c-3.4,3.379-5.024,5.9-5.511,8.93-.033.2-.063.406-.082.613a.6.6,0,0,1-.656.6h1.51a.6.6,0,0,0,.656-.6c.019-.207.05-.411.082-.613.486-3.031,2.106-5.552,5.509-8.93.087-.086.173-.173.262-.259.253-.245.1-.413-.17-.4-.142.009-.283.022-.421.036q-.406.041-.791.108c.012.067-.024.154-.128.254C381.007,333.684,380.921,333.772,380.836,333.858Z" transform="translate(-352.11 -313.072)" fill="#5aa687" fill-rule="evenodd"/><path d="M332.056,257.142a39,39,0,0,1,4.795-8.461c.118-.171.224-.327.349-.5.17-.241.038-.413-.238-.337-.166.046-.32.094-.481.144-.293.091-.579.185-.855.284-.1.14-.188.271-.286.413-5.093,7.393-5.391,9.607-6.307,15.1h1.51A34.525,34.525,0,0,1,332.056,257.142Z" transform="translate(-309.309 -232.851)" fill="#95d6a4" fill-rule="evenodd"/><path d="M248.525,214.282a28.775,28.775,0,0,0,.92-7.37c0-.491-.012-.992-.034-1.495a23.748,23.748,0,0,0-2.507-10.062.318.318,0,0,0-.6,0q-.247.431-.466.892a25.606,25.606,0,0,1,2.1,10.665,28.78,28.78,0,0,1-.92,7.37Z" transform="translate(-231.138 -183.352)" fill="#ccf49f" fill-rule="evenodd"/><path d="M188.908,341.354a28.853,28.853,0,0,1-.918-7.37c0-.479.01-.978.036-1.492a11.881,11.881,0,0,0-1.341-2.11,31.933,31.933,0,0,0-.205,3.6,28.856,28.856,0,0,0,.918,7.37Z" transform="translate(-175.366 -310.423)" fill="#95d6a4" fill-rule="evenodd"/><path d="M98.048,368.52a34.644,34.644,0,0,0-1.514-6.639,9.574,9.574,0,0,0-2.663-2.586c1.712,3.31,2.048,5.524,2.666,9.225Z" transform="translate(-88.352 -337.59)" fill="#5aa687" fill-rule="evenodd"/><path d="M393.342,78.615a1.867,1.867,0,0,1,0,2.641,1.643,1.643,0,0,1-.154.137.452.452,0,0,1,.074.39,1.867,1.867,0,0,0,1.591-3.168,1.845,1.845,0,0,0-.938-.507c.1-1.271-.553-3.158-2.062-3.158a1.451,1.451,0,0,0-.74.188,3,3,0,0,1,1.288,2.391c.033.387-.005.527.4.707A1.818,1.818,0,0,1,393.342,78.615Z" transform="translate(-367.636 -70.422)" fill="#8bdef5" fill-rule="evenodd"/><path d="M100.85,4.165a2.124,2.124,0,0,1,0,3,2.1,2.1,0,0,1-.373.3.453.453,0,0,1,.015.293,2.122,2.122,0,0,0,.8-4.166C101.406,2.146,100.665,0,98.95,0a1.681,1.681,0,0,0-.741.163,3.35,3.35,0,0,1,1.577,2.865c.033.555.014.522.49.728A1.862,1.862,0,0,1,100.85,4.165Z" transform="translate(-92.428 0)" fill="#f585b0" fill-rule="evenodd"/></svg>