<svg xmlns="http://www.w3.org/2000/svg" width="24.859" height="24.859" viewBox="0 0 24.859 24.859"><g transform="translate(13.259 6.213)"><path d="M260.357,122.121l-.266-.875a1.9,1.9,0,0,0-3.6,0l-.266.875a4.918,4.918,0,0,0-.137,2.279,2.143,2.143,0,0,0,1.1,1.494l-.3,6.659a1.312,1.312,0,0,0,.331,1.02,1.447,1.447,0,0,0,2.045.092q.048-.044.092-.092a1.294,1.294,0,0,0,.331-.992l-.3-6.688a2.143,2.143,0,0,0,1.1-1.493A4.918,4.918,0,0,0,260.357,122.121Zm-.679,2.135a1.314,1.314,0,0,1-.86.99.414.414,0,0,0-.268.406l.315,6.994a.479.479,0,0,1-.124.375.64.64,0,0,1-.9,0,.5.5,0,0,1-.122-.4l.312-6.967a.414.414,0,0,0-.268-.406,1.314,1.314,0,0,1-.86-.99,4.086,4.086,0,0,1,.114-1.892l.266-.876a1.074,1.074,0,0,1,2.015,0l.266.876A4.091,4.091,0,0,1,259.678,124.256Z" transform="translate(-256.012 -119.955)"/></g><g transform="translate(7.043 6.215)"><path d="M140.143,120a.414.414,0,0,0-.414.414v3.557l-1.122,1.122a.414.414,0,0,0-.121.314l.363,7.251a.564.564,0,0,1-.157.422.583.583,0,0,1-.825,0l0,0a.564.564,0,0,1-.157-.422l.365-7.251a.414.414,0,0,0-.121-.314l-1.122-1.122v-3.557a.414.414,0,1,0-.829,0v3.729a.414.414,0,0,0,.121.293l1.113,1.113-.353,7.068a1.4,1.4,0,1,0,2.8.136q0-.068,0-.136l-.353-7.068,1.113-1.113a.414.414,0,0,0,.121-.293v-3.729A.414.414,0,0,0,140.143,120Z" transform="translate(-136 -120)"/></g><g transform="translate(8.286 6.215)"><path d="M160.414,120a.414.414,0,0,0-.414.414v3.315a.414.414,0,1,0,.829,0v-3.315A.414.414,0,0,0,160.414,120Z" transform="translate(-160 -120)"/></g><g transform="translate(9.529 6.215)"><path d="M184.414,120a.414.414,0,0,0-.414.414v3.315a.414.414,0,1,0,.829,0v-3.315A.414.414,0,0,0,184.414,120Z" transform="translate(-184 -120)"/></g><path d="M12.43,0a12.43,12.43,0,1,0,12.43,12.43A12.43,12.43,0,0,0,12.43,0Zm0,24.031a11.6,11.6,0,1,1,11.6-11.6A11.6,11.6,0,0,1,12.43,24.031Z"/><g transform="translate(11.089 19.833)"><path d="M216.8,383.323a.414.414,0,0,0-.453-.372l-.016,0h0a7.61,7.61,0,0,1-1.756,0,.414.414,0,0,0-.1.823,8.393,8.393,0,0,0,1.947,0A.414.414,0,0,0,216.8,383.323Z" transform="translate(-214.113 -382.949)"/></g><g transform="translate(17.572 6.943)"><path d="M340.491,134.2a.414.414,0,0,0-.584-.051h0a.414.414,0,0,0-.05.584,7.458,7.458,0,0,1-.44,10.088.414.414,0,0,0,.585.587A8.286,8.286,0,0,0,340.491,134.2Z" transform="translate(-339.295 -134.053)"/></g><g transform="translate(9.238 4.145)"><path d="M186.354,105.743h0Z" transform="translate(-185.939 -104.411)"/><path d="M183.527,80.257a8.36,8.36,0,0,0-4.877.3.414.414,0,1,0,.29.775,7.527,7.527,0,0,1,4.392-.269.414.414,0,1,0,.195-.805Z" transform="translate(-178.382 -80.027)"/></g><g transform="translate(4.143 7.38)"><path d="M82.993,152.8a7.457,7.457,0,0,1-.749-9.649.414.414,0,0,0-.662-.5l-.007.01a8.286,8.286,0,0,0,.832,10.724.415.415,0,0,0,.587-.587Z" transform="translate(-79.989 -142.488)"/></g></svg>