<svg id="Слой_1" enable-background="new 0 0 512 512" height="512" viewBox="0 0 512 512" width="512" xmlns="http://www.w3.org/2000/svg"><g><path d="m274.749 286.718c-1.517.974-3.111 1.734-4.741 2.26-3.669 1.179-7.596 1.184-11.242.014-1.645-.524-3.255-1.29-4.787-2.273-1.847-1.19-4.306-.652-5.489 1.196-1.183 1.845-.649 4.302 1.198 5.487 2.115 1.36 4.357 2.42 6.658 3.156 2.599.835 5.299 1.256 8.018 1.256 2.734 0 5.454-.428 8.084-1.277 2.282-.737 4.5-1.792 6.591-3.137 1.847-1.184 2.383-3.642 1.198-5.489-1.187-1.841-3.646-2.382-5.488-1.193z"/><path d="m340.103 205.759c-25.878-1.039-41.446 9.346-42.098 9.788-1.812 1.234-2.285 3.705-1.051 5.521.768 1.128 2.017 1.737 3.29 1.737.768 0 1.548-.224 2.231-.686.14-.094 14.036-9.32 37.311-8.422 2.215.038 4.041-1.618 4.128-3.811.089-2.193-1.618-4.041-3.811-4.127z"/><path d="m189.983 205.759c-2.191.085-3.898 1.934-3.809 4.125.085 2.193 1.92 3.907 4.128 3.811 22.955-.906 37.071 8.264 37.32 8.426.683.461 1.459.683 2.222.683 1.273 0 2.521-.609 3.29-1.737 1.234-1.816.761-4.287-1.051-5.521-.654-.441-16.191-10.828-42.1-9.787z"/><path d="m285.326 336.997c-9.376-6.578-14.353-13.872-14.449-18.21-.034-1.454.485-2.429 1.731-3.251 2.814-1.859 10.047 1.219 19.69 7.805l.017.017c.009.007.019.009.027.015 18.347 12.542 45.39 37.769 67.333 65.932.783 1.005 1.956 1.531 3.139 1.531.853 0 1.71-.273 2.435-.838 1.731-1.35 2.041-3.845.695-5.576-14.012-17.985-44.191-50.441-68.33-66.906-.073-.072-.108-.167-.186-.236-2.917-2.458-4.26-5.139-3.681-7.359.497-1.9 2.319-3.369 4.756-3.835 11.389-2.203 62.488 46.498 91.341 80.524 4.222 5.951 10.102 14.853 17.188 27.228 1.085 1.901 3.507 2.567 5.424 1.473 1.905-1.091 2.563-3.517 1.475-5.422-15.222-26.585-24.991-37.589-25.332-37.965-12.65-14.874-14.575-22.895-12.158-25.443 1.137-1.201 3.197-1.005 4.528-.119 5.528 3.68 20.227 15.136 37.234 41.998 8.359 13.204 16.017 28.426 22.764 45.24.621 1.551 2.111 2.497 3.685 2.497.493 0 .993-.094 1.478-.287 2.036-.816 3.026-3.13 2.207-5.166-6.924-17.265-14.804-32.92-23.424-46.532-2.7-4.263-5.337-8.122-7.905-11.682 4.215-6.069 6.509-13.336 6.509-20.777 0-4.685-.889-9.254-2.611-13.527 17.756.631 32.57-13.699 32.57-31.415 0-8.835-3.755-17.186-10.117-23.071 9.243-5.613 15.101-15.7 15.101-26.87 0-8.649-3.523-16.768-9.639-22.639 7.603-5.888 12.138-14.956 12.138-24.796 0-11.204-6.076-21.514-15.548-27.092 3.611-5.214 5.559-11.392 5.559-17.85 0-11.201-6.071-21.514-15.544-27.092 3.611-5.214 5.559-11.392 5.559-17.848 0-17.751-14.819-32.169-32.698-31.409.159-1.184.241-2.362.241-3.543 0-15.957-12.981-28.94-28.937-28.94-2.157 0-4.352.273-6.567.816-7.34-12.732-21.069-20.789-35.876-20.789-6.862 0-13.507 1.775-19.49 4.98-8.055-9.153-19.82-14.967-32.942-14.967-10.051 0-19.673 3.418-27.462 9.689-7.789-6.27-17.415-9.689-27.465-9.689-14.795 0-28.455 7.409-36.559 19.587-5.41-2.906-11.426-4.444-17.623-4.562-.486-.212-1.019-.336-1.582-.336-16.869 0-31.172 11.172-35.912 26.505-1.384 3.99-2.176 8.257-2.176 12.713 0 2.208.195 4.408.573 6.588-2.179-.382-4.379-.573-6.588-.573-21.465 0-38.926 17.463-38.926 38.927 0 5.571 1.191 10.994 3.483 16.003-21.243.259-38.439 17.621-38.439 38.922 0 10.37 4.111 20.212 11.382 27.489-.205.382-.408.77-.597 1.162-9.9 7.34-15.776 18.946-15.776 31.27 0 9.846 3.627 19.108 10.257 26.31-.183 1.283-.268 2.475-.268 3.651 0 10.974 6.04 20.642 15.355 25.542-6.588 6.313-10.361 15.012-10.361 24.392 0 18.71 15.222 33.932 33.932 33.932.295 0 .597-.005.905-.015 5.888 17.073 22.004 28.728 40.291 28.728 18.756 0 34.691-12.18 40.397-29.034 4.548 4.207 9.257 8.265 14.235 11.953l1.096.811c.002.019-.005.036-.002.055.085.486 8.399 49.046-5.83 76.042-1.024 1.942-.28 4.343 1.661 5.367.594.311 1.225.457 1.85.457 1.427 0 2.804-.77 3.519-2.12 11.996-22.76 9.615-57.603 7.752-73.178l14.234 10.534c13.582 10.899 30.104 16.679 47.208 16.679 2.847 0 5.71-.159 8.578-.483.162-.015 1.299-.128 2.69-.509 11.511 13.247 32.365 38.89 42.214 56.479 7.576 13.536 17.143 23.373 24.626 30.433.768.724 1.749 1.082 2.727 1.082 1.055 0 2.111-.418 2.889-1.248 1.505-1.596 1.432-4.11-.162-5.615-7.076-6.67-16.099-15.942-23.148-28.534-10.443-18.656-32.66-45.834-44.14-58.953-6.412-7.322-8.306-14.491-4.942-18.708.171-.208.183-.203.399-.205 1.555.007 3.719 1.241 6.234 3.243l1.449 1.191c8.917 7.731 21.617 23.91 30.102 34.731 4.282 5.46 8.329 10.615 11.723 14.623 1.411 1.671 3.915 1.888 5.598.464 1.673-1.418 1.881-3.924.461-5.6-3.294-3.891-7.298-8.992-11.529-14.391-12.392-15.799-22.781-28.614-31.319-35.828-.038-.034-.05-.084-.087-.118l-11.479-10.358c-6.229-5.303-9.846-10.737-10.172-15.3-.167-2.34.521-4.4 2.002-6.098 1.138-.495 3.292.186 6.303 1.925l7.03 4.818c14.522 11.088 38.97 35.18 68.048 69.518.783.928 1.905 1.406 3.034 1.406.905 0 1.816-.309 2.563-.94 1.673-1.418 1.881-3.924.461-5.598-12.022-14.203-45.761-53.036-69.25-70.451zm-144.173 36.889c-15.797 0-29.604-10.691-33.572-26.001-.457-1.768-2.057-2.975-3.84-2.975-.167 0-.333.01-.503.031-1.075.138-2.169.232-3.279.232-14.331 0-25.987-11.657-25.987-25.987 0-9.148 4.698-17.452 12.564-22.217 1.389-.84 2.127-2.435 1.865-4.036-.261-1.601-1.466-2.881-3.05-3.238-9.639-2.173-16.374-10.58-16.374-20.442 0-1.248.152-2.574.478-4.178.268-1.321-.155-2.686-1.118-3.628-6.028-5.886-9.349-13.754-9.349-22.153 0-10.09 4.958-19.582 13.263-25.392.585-.41 1.051-.969 1.347-1.623.613-1.367 1.347-2.661 2.176-3.847 1.179-1.688.877-3.995-.701-5.32-7.049-5.914-11.092-14.566-11.092-23.738 0-17.084 13.899-30.983 30.985-30.983 2.005 0 4.05.203 6.071.602 1.615.314 3.243-.384 4.128-1.766.877-1.384.814-3.166-.159-4.487-3.968-5.388-6.067-11.716-6.067-18.295 0-17.084 13.899-30.983 30.979-30.983 3.663 0 7.308.671 10.842 1.993.029.012.061.01.09.02 1.232 2.323 2.679 4.538 4.39 6.571.787.935 1.913 1.417 3.045 1.417.899 0 1.807-.307 2.553-.934 1.679-1.411 1.898-3.919.485-5.596-4.477-5.325-6.944-12.093-6.944-19.065 0-3.034.461-5.961 1.312-8.719 4.273-12 15.717-20.628 29.164-20.628 6.269 0 12.308 1.871 17.473 5.405.932.637 2.087.85 3.185.582 1.097-.268 2.029-.986 2.56-1.98 6.292-11.711 18.442-18.987 31.71-18.987 9.221 0 18.004 3.514 24.731 9.899 1.536 1.454 3.934 1.454 5.47 0 6.726-6.383 15.51-9.899 24.726-9.899 19.838 0 35.977 16.138 35.977 35.975 0 3.932-.671 7.871-1.99 11.711-.375 1.085-.259 2.282.314 3.279.573.995 1.551 1.693 2.681 1.913 10.989 2.144 18.966 11.834 18.966 23.045 0 12.954-10.537 23.491-23.489 23.491-3.86 0-7.554-.918-10.97-2.727-1.145-.608-2.505-.616-3.657-.031s-1.947 1.695-2.133 2.975c-1.828 12.686-12.868 22.252-25.68 22.252-8.441 0-16.391-4.14-21.262-11.08-.78-1.114-2.029-1.729-3.444-1.686-1.359.067-2.591.824-3.263 2.009-5.504 9.714-15.831 15.747-26.957 15.747-6.555 0-12.844-2.051-18.178-5.938-1.109-.806-2.553-.98-3.818-.474-1.273.51-2.188 1.637-2.432 2.983-2.444 13.559-14.218 23.404-28.001 23.404-4.842 0-9.636-1.249-13.865-3.615-1.575-.877-3.546-.592-4.799.71-1.253 1.299-1.475 3.279-.536 4.82 1.819 2.999 2.743 6.211 2.743 9.547 0 9.714-7.639 17.783-17.391 18.371-1.715.102-3.166 1.292-3.604 2.949-.439 1.657.237 3.408 1.673 4.345 7.409 4.83 11.832 12.969 11.832 21.775s-4.422 16.945-11.832 21.772c-1.439.939-2.115 2.697-1.667 4.357.442 1.661 1.905 2.845 3.623 2.939 11.138.606 19.862 9.771 19.862 20.866 0 3.905-1.133 7.76-3.279 11.153-.652 1.033-.795 2.304-.387 3.453.408 1.15 1.319 2.048 2.475 2.435 14.155 4.763 23.665 17.983 23.665 32.893-.006 19.151-15.585 34.727-34.734 34.727zm127.64-41.429c-1.213.539-2.125 1.271-2.731 1.958-2.941 3.337-4.33 7.465-4.007 11.947.336 4.664 2.586 9.506 6.484 14.254-.831.113-1.673.188-2.528.188-10.26 0-18.604-8.346-18.604-18.604v-7.526c0-9.291 6.863-16.944 15.773-18.321-.162.841-.276 1.702-.256 2.606.094 4.192 2.224 8.875 5.869 13.498zm28.211-34.185c-5.478 1.048-9.675 4.739-10.952 9.634-.227.872-.321 1.753-.353 2.635-6.654-3.111-12.329-4.128-16.393-2.19-.055-.009-.097-.044-.154-.051-1.033-.119-2.079-.184-3.142-.184-14.64 0-26.551 11.911-26.551 26.552v7.526c0 14.64 11.909 26.551 26.551 26.551 2.393 0 4.719-.348 6.977-.963-.196.205-.413.375-.596.604-3.854 4.828-5.226 12.996.65 22.75-17.393 1.447-34.367-3.664-48.133-14.71l-24.397-18.062c-5.987-4.434-11.653-9.349-16.956-14.549.167-1.531.266-3.081.266-4.656 0-16.775-9.788-31.804-24.781-38.717 1.517-3.557 2.307-7.366 2.307-11.216 0-12.343-7.813-22.955-18.881-27.044 5.668-6.178 8.895-14.29 8.895-22.888 0-8.661-3.273-16.826-9.02-23.023 9.714-3.936 16.51-13.442 16.51-24.414 0-1.553-.143-3.106-.427-4.635 2.913.739 5.92 1.12 8.938 1.12 15.703 0 29.373-9.989 34.382-24.434 5.552 2.93 11.696 4.46 18.046 4.46 12.104 0 23.458-5.682 30.775-15.123 6.327 6.42 15.017 10.131 24.153 10.131 15.02 0 28.179-10.064 32.442-24.11 3.22 1.08 6.607 1.64 10.001 1.64 3.732 0 7.299-.688 10.624-1.888 3.987 11.296 13.326 19.983 24.859 23.088-1.335 3.959-2.005 8.071-2.005 12.276 0 16.041 10.074 30.418 24.668 36.2-6.153 6.286-9.69 14.78-9.69 23.719 0 11.998 6.39 22.909 16.297 28.959-8.453 5.338-14.334 14.041-16.007 24.223-1.789 10.895 1.661 21.903 8.974 29.843-9.443 3.355-17.101 10.544-21.137 19.758-21.589-20.932-45.604-40.923-56.74-38.812zm137.355-19.2c-1.49.492-2.553 1.814-2.712 3.378-.155 1.562.621 3.07 1.987 3.849 7.332 4.181 11.887 12.001 11.887 20.405 0 12.954-10.537 23.491-23.489 23.491-2.471 0-4.939-.398-7.335-1.184-1.618-.529-3.422.039-4.437 1.423-1.021 1.384-1.027 3.267-.027 4.664 3.487 4.869 5.33 10.59 5.33 16.548 0 4.92-1.294 9.737-3.681 13.976-11.518-14.606-21.079-22.258-26.523-25.882-4.779-3.18-10.959-2.659-14.691 1.265-2.481 2.616-3.454 5.973-2.929 10.056-2.51-2.58-5.11-5.216-7.777-7.875 3.328-10.665 12.638-18.548 23.864-19.825 1.652-.188 3.014-1.388 3.41-3.002.396-1.618-.259-3.309-1.64-4.238-8.931-6.021-13.578-16.756-11.839-27.351 1.695-10.319 8.974-18.685 18.99-21.833 1.679-.527 2.813-2.099 2.782-3.859s-1.213-3.29-2.91-3.761c-11.214-3.108-19.043-13.396-19.043-25.018 0-8.516 4.197-16.507 11.226-21.371 1.727-1.196 2.157-3.703 1.067-5.499-.116-.27-.237-.538-.369-.794-.546-1.036-1.517-1.778-2.657-2.031-14.051-3.12-24.245-15.829-24.245-30.225 0-4.685 1.055-9.23 3.135-13.508.563-1.154.531-2.509-.085-3.635-.613-1.126-1.734-1.889-3.007-2.045-11.138-1.355-20.371-9.247-23.661-19.847 8.223-5.675 13.629-15.153 13.629-25.878 0-13.539-8.694-25.421-21.2-29.722.814-3.376 1.23-6.801 1.23-10.226 0-8.23-2.318-15.91-6.27-22.499 4.581-2.26 9.607-3.488 14.781-3.488 12.899 0 24.784 7.572 30.287 19.29.877 1.865 3.022 2.756 4.961 2.043 2.499-.915 4.854-1.36 7.195-1.36 11.576 0 20.99 9.419 20.99 20.995 0 2.244-.423 4.524-1.292 6.97-.488 1.376-.183 2.91.795 3.992.981 1.082 2.459 1.545 3.891 1.198 15.51-3.782 29.065 8.037 29.065 22.793 0 6.185-2.393 12.029-6.738 16.452-.942.961-1.335 2.331-1.043 3.645.29 1.312 1.23 2.389 2.487 2.859 9.139 3.418 15.28 12.25 15.28 21.984 0 6.187-2.393 12.032-6.734 16.454-.942.957-1.338 2.331-1.048 3.645.29 1.312 1.23 2.389 2.49 2.859 9.139 3.418 15.28 12.25 15.28 21.984 0 8.846-4.912 16.853-12.814 20.902-1.261.645-2.079 1.913-2.157 3.326-.073 1.415.613 2.761 1.795 3.536 6.683 4.364 10.675 11.72 10.675 19.673-.003 10.164-6.493 19.125-16.156 22.301z"/><path d="m225.369 245.685c-2.188 1.014-4.504 1.812-6.886 2.367-5.415 1.265-11.262 1.266-16.678.017-2.41-.558-4.751-1.36-6.96-2.384-1.999-.922-4.357-.056-5.275 1.934-.923 1.99-.058 4.352 1.932 5.274 2.708 1.254 5.571 2.236 8.515 2.917 3.285.756 6.68 1.14 10.09 1.14 3.441 0 6.866-.389 10.179-1.162 2.91-.679 5.745-1.652 8.426-2.896 1.99-.923 2.855-3.285 1.932-5.275-.918-1.988-3.27-2.85-5.275-1.932z"/><path d="m334.502 245.685c-2.207 1.022-4.547 1.824-6.956 2.382-5.419 1.253-11.262 1.249-16.681-.015-2.377-.553-4.693-1.35-6.893-2.367-1.987-.922-4.349-.055-5.272 1.934-.923 1.992-.055 4.352 1.935 5.274 2.688 1.246 5.524 2.22 8.429 2.898 3.309.77 6.731 1.161 10.172 1.161 3.413 0 6.808-.384 10.098-1.142 2.944-.683 5.808-1.662 8.511-2.915 1.99-.922 2.855-3.284 1.932-5.274-.918-1.992-3.27-2.854-5.275-1.936z"/></g></svg>