<svg xmlns="http://www.w3.org/2000/svg" width="40.576" height="38.919" viewBox="0 0 40.576 38.919"><path d="M136.25,122.711h17.542V109.973h-18.48v11.8A.939.939,0,0,0,136.25,122.711Z" transform="translate(-124.263 -101.823)" fill="#d9def7"/><g transform="translate(13.544 0.735)"><path d="M277.883,24.607a.612.612,0,0,0,.612-.612V20.87a.5.5,0,0,1,.5-.5h2.061a.612.612,0,1,0,0-1.225h-2.061a1.724,1.724,0,0,0-1.722,1.722v3.125A.612.612,0,0,0,277.883,24.607Z" transform="translate(-277.271 -19.148)" fill="#685e68"/></g><g transform="translate(22.374 0.735)"><path d="M169.931,24.679a.612.612,0,0,0,.612-.612v-3.2a1.724,1.724,0,0,0-1.722-1.722H166.5a.612.612,0,0,0,0,1.225h2.324a.5.5,0,0,1,.5.5v3.2A.612.612,0,0,0,169.931,24.679Z" transform="translate(-165.885 -19.148)" fill="#685e68"/></g><path d="M326.957,109.973v11.8a.939.939,0,0,0,.939.939h-2.064a.939.939,0,0,1-.939-.939v-11.8Z" transform="translate(-313.845 -101.823)" fill="#bec6ed"/><path d="M202.033,12.839h5.112a1.347,1.347,0,1,0,0-2.694h-5.112a1.347,1.347,0,1,0,0,2.694Z" transform="translate(-184.301 -10.145)" fill="#7bacdf"/><path d="M255.866,10.145h2.064a1.347,1.347,0,1,0,0,2.694h-2.064a1.347,1.347,0,1,1,0-2.694Z" transform="translate(-238.134 -10.145)" fill="#5f99d7"/><path d="M117.955,73.422h19.59a.939.939,0,0,0,.939-.939v-3.2a.939.939,0,0,0-.939-.939h-19.59a.939.939,0,0,0-.939.939v3.2A.939.939,0,0,0,117.955,73.422Z" transform="translate(-107.461 -63.591)" fill="#7bacdf"/><path d="M344.127,68.341h2.064a.939.939,0,0,0-.939.939v3.2a.939.939,0,0,0,.939.939h-2.064a.939.939,0,0,1-.939-.939v-3.2A.939.939,0,0,1,344.127,68.341Z" transform="translate(-333.633 -63.59)" fill="#5f99d7"/><g transform="translate(17.518 12.719)"><path d="M215.008,167.547h1.158v-1.158a.45.45,0,0,1,.45-.45h1.424a.45.45,0,0,1,.45.45v1.158h1.158a.45.45,0,0,1,.45.45v1.424a.45.45,0,0,1-.45.45h-1.158v1.158a.45.45,0,0,1-.45.45h-1.424a.45.45,0,0,1-.45-.45v-1.158h-1.158a.45.45,0,0,1-.45-.45V168A.45.45,0,0,1,215.008,167.547Z" transform="translate(-214.558 -165.939)" fill="#eb5569"/><path d="M244.337,167.548V166.39a.45.45,0,0,1,.45-.45h1.183a.419.419,0,0,0-.419.419v1.19H244.4a.452.452,0,0,0-.452.452v1.421a.452.452,0,0,0,.452.452h1.157v1.19a.419.419,0,0,0,.419.419h-1.183a.45.45,0,0,1-.45-.45v-1.158h-1.158a.45.45,0,0,1-.45-.45V168a.45.45,0,0,1,.45-.45h1.158Z" transform="translate(-242.729 -165.94)" fill="#e53950"/></g><path d="M22.612,419.374l1.151-.547a.507.507,0,0,0,.24-.676l-2.246-4.723-2.067.983,2.246,4.723A.507.507,0,0,0,22.612,419.374Z" transform="translate(14.916 -380.504)" fill="#f8a5af"/><path d="M25.807,419.476l2.248,4.727a.5.5,0,0,0,.67.238l-1.025.487a.507.507,0,0,1-.676-.24l-2.246-4.723Z" transform="translate(9.827 -386.059)" fill="#f58a97"/><path d="M73.83,419.374l-1.151-.547a.507.507,0,0,1-.24-.676l2.246-4.723,2.067.983-2.246,4.723A.507.507,0,0,1,73.83,419.374Z" transform="translate(-42.087 -380.504)" fill="#f8a5af"/><path d="M86.211,418.648a.5.5,0,0,0,.235.662l-1.016-.483a.507.507,0,0,1-.24-.676l2.246-4.723,1.026.488Z" transform="translate(-54.838 -380.504)" fill="#f58a97"/><g transform="translate(0 19.855)"><path d="M269.556,285.311l10.95,4.142,1.358-3.591-10.95-4.142a1.92,1.92,0,1,0-1.358,3.591Z" transform="translate(-263.194 -279.289)" fill="#fed2a4"/><path d="M273.745,282.844a1.919,1.919,0,0,1,2.335-1.163,1.92,1.92,0,0,0,1.24,1.772l9.416,3.561-.925,2.446-10.95-4.142A1.92,1.92,0,0,1,273.745,282.844Z" transform="translate(-268.499 -279.296)" fill="#ffbd86"/><path d="M267.687,300.839l10.95,4.142,4.966-3.2-3.327-.293-11.23-4.245a1.92,1.92,0,0,0-1.358,3.591Z" transform="translate(-264.78 -293.549)" fill="#ffe5c2"/><path d="M304.451,300.841l10.95,4.142,1.964-1.264-10.978-4.146a1.918,1.918,0,0,1-1.127-2.443,1.92,1.92,0,0,0-.809,3.711Z" transform="translate(-301.544 -293.551)" fill="#fed2a4"/><path d="M0,262.337a1.919,1.919,0,0,0,1.24,1.794c2.529.956,9.524,3.42,12.924,4.613a10.322,10.322,0,0,0,3.916.57l4.03-.194a15.05,15.05,0,0,0,4.057-.763l3.6-1.207,3.932.8,1.164-.343,1.172.819,3.712.758a.691.691,0,0,0,.829-.677V256.566a.691.691,0,0,0-.589-.683l-3.954-.59-1.17.3-1.17-.652-3.513-1.5a8.487,8.487,0,0,0-4.7.638l-6.218,2.762a7.832,7.832,0,0,1-2.851.667l-3.224.135a1.754,1.754,0,0,0,.151,3.493l4.133.54h0l.018,0-6.165,1.9L2.641,260.51l-.025-.009a1.964,1.964,0,0,0-2.491,1.157A1.927,1.927,0,0,0,0,262.337Z" transform="translate(0 -253.345)" fill="#ffe5c2"/><g transform="translate(0 4.256)"><path d="M240.814,308.1l5.563,1.268a.116.116,0,0,1-.027.229l-3.647-.042-4.134-.541a1.754,1.754,0,0,1-.151-3.493l.926-.039A1.755,1.755,0,0,0,240.814,308.1Z" transform="translate(-225.23 -305.48)" fill="#fed2a4"/><path d="M264.459,340.893a1.963,1.963,0,0,1,2.377-1.193,3.85,3.85,0,0,0-.256.957,1.919,1.919,0,0,0,1.24,1.794c3.171,1.2,12.315,4.823,15.51,6.054l-.916.044a10.323,10.323,0,0,1-3.916-.57c-4.31-1.521-8.637-3.024-12.924-4.613a1.915,1.915,0,0,1-1.115-2.472Z" transform="translate(-264.334 -336.837)" fill="#ffe5c2"/></g></g><path d="M6.218,290.333l-1.169-.651-1.17.173L0,289.065l1.727-.727a1.649,1.649,0,0,1,.969-.1l2.351.48V277.311l1.17-.113,1.17.175V289.2l2.4.49a.981.981,0,0,0,.969-.358v1.082a.691.691,0,0,1-.829.677l-3.714-.758Z" transform="translate(29.815 -255.396)" fill="#fed2a4"/><path d="M55.64,272.918v13.008l2.34.478V273.267Z" transform="translate(-21.947 -251.465)" fill="#f8a5af"/><path d="M71.14,273.093v13.072l-1.17-.239V272.918Z" transform="translate(-36.277 -251.465)" fill="#f58a97"/><path d="M254.01,357.269l.468.225a1.577,1.577,0,0,0,1.16.082l6.884-2.182-2.365-.027.018,0Z" transform="translate(-242.683 -327.184)" fill="#fed2a4"/><g transform="translate(3.391 9.363)"><g transform="translate(1.129)"><path d="M427.257,128.317a.612.612,0,0,0,.612-.612v-2.259a.612.612,0,0,0-1.225,0V127.7A.612.612,0,0,0,427.257,128.317Z" transform="translate(-426.645 -124.834)" fill="#f8a5af"/></g><g transform="translate(0 1.129)"><path d="M413.424,139.892h2.259a.612.612,0,0,0,0-1.225h-2.259a.612.612,0,1,0,0,1.225Z" transform="translate(-412.812 -138.667)" fill="#f8a5af"/></g></g><ellipse cx="0.607" cy="0.607" rx="0.607" ry="0.607" transform="translate(6.683 16.977)" fill="#5f99d7"/></svg>