<svg xmlns="http://www.w3.org/2000/svg" xmlns:xlink="http://www.w3.org/1999/xlink" width="98.313" height="73.498" viewBox="0 0 98.313 73.498"><defs><filter id="a" x="38.112" y="0" width="60.201" height="50.054" filterUnits="userSpaceOnUse"><feOffset dy="3" input="SourceAlpha"/><feGaussianBlur stdDeviation="3" result="b"/><feFlood flood-opacity="0.349"/><feComposite operator="in" in2="b"/><feComposite in="SourceGraphic"/></filter><filter id="c" x="30.45" y="12.11" width="60.994" height="61.388" filterUnits="userSpaceOnUse"><feOffset dy="3" input="SourceAlpha"/><feGaussianBlur stdDeviation="3" result="d"/><feFlood flood-opacity="0.349"/><feComposite operator="in" in2="d"/><feComposite in="SourceGraphic"/></filter><filter id="e" x="0" y="6.922" width="47.305" height="43.132" filterUnits="userSpaceOnUse"><feOffset dy="3" input="SourceAlpha"/><feGaussianBlur stdDeviation="3" result="f"/><feFlood flood-opacity="0.349"/><feComposite operator="in" in2="f"/><feComposite in="SourceGraphic"/></filter></defs><g transform="translate(22.522 -11.472) rotate(29)"><path d="M6.051,6.051H0V0H2.017V4.034H6.051Zm0,0" transform="translate(35.762 8.068)"/><g transform="matrix(0.87, -0.48, 0.48, 0.87, -14.14, 20.95)" filter="url(#a)"><path d="M38.436,14.3A18.76,18.76,0,0,0,20.9,2.017,19,19,0,0,0,7.16,7.828L1.462,13.8,0,12.417,5.7,6.429A21.037,21.037,0,0,1,20.9,0,20.794,20.794,0,0,1,40.327,13.577Zm0,0" transform="translate(54.04 6) rotate(29)"/></g><g transform="matrix(0.87, -0.48, 0.48, 0.87, -14.14, 20.95)" filter="url(#c)"><path d="M20.17,32.276a11.141,11.141,0,0,1-5.055-1.21L2.08,24.385a3.835,3.835,0,0,1,.567-7.06,3.911,3.911,0,0,1,2.925.239L8.446,19.04,3.24,4.732a3.665,3.665,0,0,1-.1-2.118A3.506,3.506,0,0,1,5.572.131a3.546,3.546,0,0,1,4.3,2.181l2.824,7.765h12A4.534,4.534,0,0,1,28.931,13l1.651,4.324a10.918,10.918,0,0,1,.63,4.891,11.233,11.233,0,0,1-9.87,9.984,9.428,9.428,0,0,1-1.173.076ZM3.807,19.166a1.974,1.974,0,0,0-.58.088,1.757,1.757,0,0,0-1.135,1.135,1.82,1.82,0,0,0,.895,2.193l13.035,6.681a9.015,9.015,0,0,0,5.105.945,9.07,9.07,0,0,0,7.551-12.152L27.04,13.733a2.528,2.528,0,0,0-2.357-1.626H11.27l-3.3-9.089A1.52,1.52,0,0,0,6.1,2.085,1.5,1.5,0,0,0,5.081,3.131a1.676,1.676,0,0,0,.038.933L12.077,23.2,4.639,19.38a1.674,1.674,0,0,0-.832-.215Zm0,0" transform="translate(55.1 18.11) rotate(29)"/></g><g transform="matrix(0.87, -0.48, 0.48, 0.87, -14.14, 20.95)" filter="url(#e)"><path d="M27.543,10.509a2.1,2.1,0,0,0-.363-.027H6.507l.451-.21a4.193,4.193,0,0,0,1.185-.839l5.8-5.8a2.17,2.17,0,0,0,.3-2.778A2.1,2.1,0,0,0,11.1.586L.615,11.069a2.1,2.1,0,0,0,0,2.965l0,0L11.1,24.52a2.1,2.1,0,0,0,3.145-.21,2.17,2.17,0,0,0-.3-2.778L8.153,15.724A4.194,4.194,0,0,0,7.1,14.959l-.629-.283h20.59a2.17,2.17,0,0,0,2.212-1.761A2.1,2.1,0,0,0,27.543,10.509Z" transform="translate(9 12.92)" opacity="0.5"/></g></g></svg>