<svg id="Слой_1" enable-background="new 0 0 56 56" height="512" viewBox="0 0 56 56" width="512" xmlns="http://www.w3.org/2000/svg"><g id="XMLID_3968_"><path id="XMLID_26_" d="m10.75 52.697c-.552 0-1-.447-1-1v-6.048c0-3.268 2.09-6.138 5.2-7.142l4.585-1.149c.536-.135 1.079.191 1.213.727s-.192 1.079-.728 1.213l-4.52 1.131c-2.217.719-3.75 2.823-3.75 5.221v6.048c0 .552-.448.999-1 .999z"/><path id="XMLID_25_" d="m45.25 52.697c-.553 0-1-.447-1-1v-6.048c0-2.396-1.533-4.502-3.815-5.239l-4.507-1.137c-.535-.136-.859-.68-.725-1.215.136-.536.68-.861 1.215-.725l4.569 1.155c3.173 1.022 5.263 3.893 5.263 7.16v6.048c0 .554-.447 1.001-1 1.001z"/><path id="XMLID_22_" d="m23.307 46.577c-.084 0-.169-.011-.252-.032-.29-.076-.53-.276-.655-.548l-2.988-6.46c-.497-1.075-.206-2.353.708-3.107l1.107-.913c.391-.321.961-.302 1.328.049l6.148 5.883c.214.205.326.495.307.791-.021.296-.171.567-.412.741l-4.703 3.406c-.174.125-.38.19-.588.19zm-1.494-8.952-.421.348c-.213.176-.281.475-.165.726l2.478 5.356 2.748-1.99z"/><path id="XMLID_19_" d="m32.712 46.577c-.209 0-.414-.065-.587-.19l-4.702-3.406c-.24-.174-.391-.445-.411-.741-.021-.296.092-.586.306-.791l6.147-5.883c.366-.352.938-.372 1.327-.049l1.108.913c.915.756 1.205 2.033.707 3.107l-2.988 6.46c-.125.271-.365.472-.654.548-.084.021-.169.032-.253.032zm-3.145-4.513 2.747 1.99 2.479-5.357c.116-.251.048-.549-.165-.726l-.421-.347z"/><g id="XMLID_4016_"><path id="XMLID_18_" d="m28.917 48.395h-1.83c-.874 0-1.654-.555-1.941-1.381l-.867-2.497 1.89-.656.867 2.497 1.881.037.935-2.539 1.887.666-.884 2.503c-.29.819-1.069 1.37-1.938 1.37z"/></g><path id="XMLID_17_" d="m25.22 52.697c-.085 0-.171-.011-.257-.033-.534-.142-.852-.689-.71-1.224l1.142-4.303c.142-.533.691-.85 1.223-.71.534.142.852.689.71 1.224l-1.142 4.303c-.119.447-.523.743-.966.743z"/><path id="XMLID_16_" d="m30.779 52.697c-.442 0-.847-.296-.966-.743l-1.142-4.303c-.142-.534.177-1.082.71-1.224.533-.141 1.081.177 1.224.71l1.142 4.303c.142.534-.177 1.082-.71 1.224-.086.023-.173.033-.258.033z"/><path id="XMLID_15_" d="m17.191 52.697c-.552 0-1-.447-1-1v-2.209c0-.553.448-1 1-1s1 .447 1 1v2.209c0 .553-.448 1-1 1z"/><path id="XMLID_14_" d="m38.809 52.697c-.553 0-1-.447-1-1v-2.209c0-.553.447-1 1-1s1 .447 1 1v2.209c0 .553-.448 1-1 1z"/><path id="XMLID_13_" d="m28.739 51.692c-.256 0-.512-.098-.707-.293-.391-.391-.391-1.023 0-1.414l1.026-1.026c.391-.391 1.023-.391 1.414 0s.391 1.023 0 1.414l-1.026 1.026c-.195.196-.451.293-.707.293z"/><path id="XMLID_12_" d="m31.292 34.633h-6.564c-1.103 0-2-.897-2-2v-2.622h2v2.622h6.564v-2.622h2v2.622c0 1.102-.897 2-2 2z"/><path id="XMLID_11_" d="m32.946 31.011h-2.3c-.553 0-1-.447-1-1s.447-1 1-1h1.63c.133-1.983.834-3.857 2.007-5.337 1.129-1.425 1.726-3.14 1.726-4.96 0-2.233-.897-4.306-2.527-5.834-1.629-1.528-3.759-2.295-5.999-2.148-3.915.25-7.115 3.383-7.443 7.288-.168 1.998.404 3.968 1.611 5.545 1.258 1.645 1.977 3.517 2.097 5.447h3.262c.552 0 1 .447 1 1s-.448 1-1 1h-3.937c-.721 0-1.307-.586-1.307-1.307v-.115c0-1.69-.589-3.354-1.704-4.811-1.51-1.973-2.226-4.434-2.016-6.929.411-4.884 4.413-8.803 9.309-9.116 2.798-.177 5.459.776 7.495 2.686 2.008 1.883 3.159 4.542 3.159 7.293 0 2.276-.746 4.42-2.157 6.203-1.031 1.3-1.599 3.001-1.599 4.789 0 .72-.586 1.306-1.307 1.306z"/><path id="XMLID_10_" d="m22.661 19.4c-.028 0-.056-.001-.085-.003-.55-.046-.959-.53-.913-1.081.262-3.112 2.812-5.608 5.931-5.808.536-.045 1.026.383 1.062.935.035.551-.383 1.026-.935 1.062-2.138.136-3.885 1.847-4.064 3.979-.045.521-.482.916-.996.916z"/><path id="XMLID_9_" d="m29.264 37.451h-2.508c-.552 0-1-.447-1-1s.448-1 1-1h2.508c.553 0 1 .447 1 1s-.448 1-1 1z"/><path id="XMLID_8_" d="m27.98 6.974c-.552 0-1-.448-1-1v-1.671c0-.552.448-1 1-1s1 .448 1 1v1.671c0 .552-.448 1-1 1z"/><path id="XMLID_7_" d="m15.186 20.638h-1.671c-.552 0-1-.448-1-1s.448-1 1-1h1.671c.552 0 1 .448 1 1s-.448 1-1 1z"/><path id="XMLID_6_" d="m42.379 20.638h-1.671c-.553 0-1-.448-1-1s.447-1 1-1h1.671c.553 0 1 .448 1 1s-.447 1-1 1z"/><path id="XMLID_5_" d="m17.466 12.224c-.256 0-.512-.098-.707-.293l-1.182-1.182c-.391-.391-.391-1.023 0-1.414s1.023-.391 1.414 0l1.182 1.182c.391.391.391 1.023 0 1.414-.195.195-.451.293-.707.293z"/><path id="XMLID_4_" d="m38.554 12.224c-.256 0-.512-.098-.707-.293-.391-.391-.391-1.023 0-1.414l1.182-1.182c.391-.391 1.023-.391 1.414 0s.391 1.023 0 1.414l-1.182 1.182c-.196.195-.451.293-.707.293z"/><path id="XMLID_3_" d="m16.284 29.104c-.256 0-.512-.098-.707-.293-.391-.39-.391-1.023 0-1.414l1.182-1.182c.39-.391 1.023-.391 1.414 0 .391.39.391 1.023 0 1.414l-1.182 1.182c-.195.196-.451.293-.707.293z"/><path id="XMLID_2_" d="m39.735 29.104c-.256 0-.512-.098-.707-.293l-1.182-1.182c-.391-.391-.391-1.024 0-1.414.391-.391 1.023-.391 1.414 0l1.182 1.182c.391.391.391 1.024 0 1.414-.195.196-.451.293-.707.293z"/></g></svg>