<svg id="Layer_1" height="512" viewBox="0 0 64 64" width="512" xmlns="http://www.w3.org/2000/svg" data-name="Layer 1"><path d="m62.434 37a3.986 3.986 0 0 0 -5.407-1.383l-1.123.663a3.939 3.939 0 0 0 -.47-1.28 3.988 3.988 0 0 0 -5.407-1.383l-8.535 5.035a.955.955 0 0 0 -.133.12 3.9 3.9 0 0 0 -.473-.12l-22.177-3.552a8.04 8.04 0 0 0 -4.428.548l-12.675 5.433a1 1 0 0 0 .788 1.838l12.675-5.432a6.045 6.045 0 0 1 3.324-.412l22.177 3.549a1.7 1.7 0 0 1 -.27 3.376h-15.3a1 1 0 0 0 0 2h4.764l4.958 2.479a5.014 5.014 0 0 0 4.71-.163l18.607-10.976a1.966 1.966 0 0 1 2.042 3.36l-23.638 14.841a3 3 0 0 1 -1.595.459h-1.378a3.01 3.01 0 0 1 -.7-.081l-20.539-4.892a.993.993 0 0 0 -.231-.027h-2a1 1 0 0 0 -.447.1l-8 4a1 1 0 0 0 .894 1.79l7.789-3.89h1.647l20.429 4.864a5 5 0 0 0 1.158.136h1.378a4.989 4.989 0 0 0 2.659-.766l23.638-14.841a3.986 3.986 0 0 0 1.289-5.393zm-11.395-1.66a1.979 1.979 0 0 1 2.681.686 1.951 1.951 0 0 1 .228 1.4l-10.137 5.985a3.581 3.581 0 0 0 -.634-3.433zm-15.421 11.35-1.381-.69h5.185l-1.006.594a2.974 2.974 0 0 1 -2.798.096z"/><path d="m32 34a10.011 10.011 0 0 1 -10-10c0-5.154 8.258-16.341 9.2-17.6a1.036 1.036 0 0 1 1.6 0c.942 1.259 9.2 12.446 9.2 17.6a10.011 10.011 0 0 1 -10 10zm0-25.306c-2.8 3.911-8 11.868-8 15.306a8 8 0 0 0 16 0c0-3.44-5.195-11.4-8-15.306zm6 15.306a1 1 0 0 0 -2 0 4 4 0 0 1 -4 4 1 1 0 0 0 0 2 6.006 6.006 0 0 0 6-6z"/></svg>