<svg xmlns="http://www.w3.org/2000/svg" xmlns:xlink="http://www.w3.org/1999/xlink" width="49.869" height="45.085" viewBox="0 0 49.869 45.085"><defs><filter id="a" x="0" y="0" width="49.869" height="45.085" filterUnits="userSpaceOnUse"><feOffset dx="-9" dy="-2" input="SourceAlpha"/><feGaussianBlur stdDeviation="3" result="b"/><feFlood flood-color="#f585b0" flood-opacity="0.239"/><feComposite operator="in" in2="b"/><feComposite in="SourceGraphic"/></filter></defs><g transform="translate(12.301 10.01) rotate(-17)"><g transform="translate(2.834 10.221)"><g transform="translate(0 0)"><g transform="matrix(0.96, 0.29, -0.29, 0.96, -11.67, -23.39)" filter="url(#a)"><path d="M.037,16.508A3.687,3.687,0,0,1,.567,15.15C.562,15.12.554,15.1.55,15.064c-.017-.083-.031-.175-.044-.27A.423.423,0,0,1,.5,14.648c.016-.046.051-.089.063-.137a5.332,5.332,0,0,1,.665-1.268A4.083,4.083,0,0,1,2.592,12.03l.23-.114.257-.107.208-.073c.113-.036.162-.046.247-.071a7.555,7.555,0,0,1,.912-.2,7.185,7.185,0,0,1,.884-.092,5.8,5.8,0,0,1,.655,0l-.031-.033c-.077-.09-.137-.177-.206-.265l-.2-.264-.111-.176c-.031-.051-.064-.1-.092-.153a5.257,5.257,0,0,1-.7-2.631,3.052,3.052,0,0,1,.342-1.4A2.379,2.379,0,0,1,6.306,5.331,3.876,3.876,0,0,1,8.117,5.2a7.331,7.331,0,0,1,1.576.419,13.645,13.645,0,0,1,1.4.622l.473.257a10.6,10.6,0,0,1,.681-2.551,8.616,8.616,0,0,1,.869-1.592A6.467,6.467,0,0,1,14.444.943,4.453,4.453,0,0,1,16.47.036a3.388,3.388,0,0,1,1.256.051A2.969,2.969,0,0,1,18.807.6a3.8,3.8,0,0,1,1.207,1.591,5.355,5.355,0,0,1,.41,1.748,12.921,12.921,0,0,1-.34,3.411,13.084,13.084,0,0,1-.508,1.633c-.2.537-.407,1.067-.635,1.593-.2.47-.411.934-.631,1.395.744-.979,1.451-1.974,2.1-2.995a21.152,21.152,0,0,0,1.855-3.549l.168-.457.142-.459a7.132,7.132,0,0,0,.194-.919,4.392,4.392,0,0,0,.037-.9,3.319,3.319,0,0,0-.062-.433,3.521,3.521,0,0,0-.116-.376l-.086-.112a.632.632,0,0,0-.109-.132l-.119-.108c-.041-.036-.1-.044-.134-.075a1.176,1.176,0,0,0-.118-.086.463.463,0,0,0-.134-.079.9.9,0,0,0-.162-.06c-.06-.011-.122-.03-.188-.037l-.209-.015-.223.01a3.484,3.484,0,0,0-.468.071c-.157.035-.315.079-.474.128a4.5,4.5,0,0,0-.468.176A3.643,3.643,0,0,1,20.477.93a3.6,3.6,0,0,1,.471-.252c.086-.034.176-.069.267-.1L21.509.5c.1-.02.211-.025.32-.036a2.034,2.034,0,0,1,.338.007,1.524,1.524,0,0,1,.344.06.922.922,0,0,1,.322.119A2,2,0,0,1,23.1.838l.219.2a1.335,1.335,0,0,1,.181.213l.161.218.02.028.01.031a5.256,5.256,0,0,1,.172.548,3.953,3.953,0,0,1,.079.547A5.077,5.077,0,0,1,23.9,3.694a8.3,8.3,0,0,1-.216,1.026l-.155.5-.179.489a22.008,22.008,0,0,1-1.931,3.7c-.752,1.184-1.572,2.329-2.439,3.45l-.263.332.171-.208a1.271,1.271,0,0,1,.194-.05,1.562,1.562,0,0,1,.831.088c1.049-1.427,4.638-3.237,5.687-3.18a1.216,1.216,0,0,1,.854.319,1.055,1.055,0,0,1,.149.967.521.521,0,0,1-.27.33,1.578,1.578,0,0,1-.947.1c-.4-.069-.639-.2-.576-.623a.412.412,0,0,1,.252-.313A1.1,1.1,0,0,1,25.8,10.6l-.112.217a.747.747,0,0,0-.487.011.176.176,0,0,0-.111.139c-.038.248.018.307.35.364a1.246,1.246,0,0,0,.732-.065.268.268,0,0,0,.148-.18.88.88,0,0,0-.094-.778.933.933,0,0,0-.646-.227c-.95-.05-4.461,1.76-5.427,3.071.02.014.041.026.06.04,1.72-.58,5.74-1.174,6.589-.51a.859.859,0,0,1,.409.7c-.018.367-.372.645-.636.823a.662.662,0,0,1-.263.1.734.734,0,0,1-.2.008,1.387,1.387,0,0,1-.8-.424c-.257-.265-.338-.49.041-.782a.56.56,0,0,1,.435-.108.915.915,0,0,1,.588.372l-.253.107a.63.63,0,0,0-.383-.249.241.241,0,0,0-.193.048c-.222.171-.224.245-.013.466a1.1,1.1,0,0,0,.613.336.379.379,0,0,0,.253-.06c.128-.086.515-.344.53-.649a.658.658,0,0,0-.319-.515c-.669-.522-4.4-.049-6.188.524a.985.985,0,0,1,.214.405,1.106,1.106,0,0,1-1.02,1.28,1.546,1.546,0,0,1-.934-.132l.008.006-2.445,2.732c-1.282,1.433-5.827,2.67-6.382,2.259-.1-.074.36-.738,1.759-1.612-.212.059-.423.117-.634.178-.683.18-1.364.362-2.053.532s-1.374.335-2.089.468-1.44.295-2.142.363l-.53.067-.265.03-.132.015-.034,0H3.722l-.047,0-.077,0a4.533,4.533,0,0,1-1.237-.132,3.513,3.513,0,0,1-1.142-.5,2.81,2.81,0,0,1-.8-.834A2.945,2.945,0,0,1,.037,16.508Zm5.355-4.2a5.657,5.657,0,0,0-.726.076,6.313,6.313,0,0,0-.765.169l-.174.048-.2.072-.145.061-.158.079a3.006,3.006,0,0,0-.932.808,5.364,5.364,0,0,1,.495-.227,5.244,5.244,0,0,1,1.133-.313A6.785,6.785,0,0,1,5.1,13a11.7,11.7,0,0,1,2.249.283c.4.088.79.191,1.176.3l-.138-.1C8,13.2,7.625,12.912,7.264,12.6c-.139-.11-.27-.231-.4-.351-.069.013-.144.027-.219.042.088-.015.2-.036-.321.065a1.23,1.23,0,0,0-.281-.041A5.656,5.656,0,0,0,5.392,12.31ZM18.937,7.168a12.694,12.694,0,0,0,.3-1.6,8.987,8.987,0,0,0,.054-1.582,4.512,4.512,0,0,0-.35-1.5,2.863,2.863,0,0,0-.889-1.2A1.791,1.791,0,0,0,16.671.962a3.249,3.249,0,0,0-1.447.668,5.472,5.472,0,0,0-1.12,1.2,7.651,7.651,0,0,0-.779,1.426,10.35,10.35,0,0,0-.713,3.124l-.065.845-.841-.5-.6-.353-.613-.332a12.129,12.129,0,0,0-1.265-.563,6.035,6.035,0,0,0-1.3-.351,2.557,2.557,0,0,0-1.167.065,1.316,1.316,0,0,0-.728.64A2.265,2.265,0,0,0,5.79,7.872a4.438,4.438,0,0,0,.588,2.213c.023.044.053.085.077.128l.039.063.019.032.011.016,0,.006.193.25c.068.086.133.181.2.26l.212.22.207.222.242.222c.162.149.318.3.5.441.34.29.7.567,1.068.842s.745.541,1.134.8c.77.521,1.567,1.02,2.379,1.5q.69.41,1.4.8.448.236.894.488l.01-.008s.964-.6.948-.613c0,0,.125-.072.287-.163a10.828,10.828,0,0,1,.579-1.57c.073-.129.139-.26.216-.386l.038-.1c.4-1.053.77-2.112,1.1-3.173.166-.531.31-1.066.446-1.6Zm-.713,7.382a.988.988,0,0,1-.164-.336.7.7,0,0,1-.018-.161c-.016.02-.031.043-.048.063-.128.13-.281.244-.421.365a3.758,3.758,0,0,0-.583.7c.6-.335,1.221-.641,1.221-.641ZM1.435,18.072a1.931,1.931,0,0,0,1.256.859,3.506,3.506,0,0,0,.877.079l1.03-.048c.726-.014,1.389-.119,2.086-.185s1.393-.2,2.091-.295c.7-.114,1.392-.241,2.088-.364L12.5,17.8c.287-.163.906-.515,1.456-.833l-.515-.282c-.232-.123-.467-.244-.7-.362q-.9-.448-1.834-.848A21.956,21.956,0,0,0,7.058,14.19a10.242,10.242,0,0,0-1.973-.252,5.694,5.694,0,0,0-.945.068,3.954,3.954,0,0,0-.889.249,3.685,3.685,0,0,0-1.4.966,2.835,2.835,0,0,0-.683,1.408A2.108,2.108,0,0,0,1.435,18.072Z" transform="translate(18 18.96) rotate(-17)" fill="#f585b0"/></g><path d="M.121,2.424c.924-1.7,2.6.286,2.6.286S3.034-.422,4.7.048,3.87,6.966,3.87,6.966-.8,4.12.121,2.424Z" transform="translate(10.617 8.373)" fill="#f585b0"/><path d="M1.008.073C2.717-.4,5.327,1.561,5.327,1.561s-2.846,1.175-4.073.992S-.7.542,1.008.073Z" transform="translate(6.656 15.397)" fill="#f585b0"/></g></g><g transform="translate(7.514 8.595) rotate(-171)"><path d="M0,6.324C8.929,8.184,7.068,0,7.068,0" transform="translate(0.379 0.898)" fill="none" stroke="#fd91ba" stroke-width="1"/><path d="M0,4.278C6.041,5.536,4.783,0,4.783,0" transform="translate(0 0)" fill="none" stroke="#fd91ba" stroke-width="1"/></g></g></svg>