<svg id="Layer_1" enable-background="new 0 0 512 512" height="512" viewBox="0 0 512 512" width="512" xmlns="http://www.w3.org/2000/svg"><path clip-rule="evenodd" d="m329.921 385.57c-15.577-14.087-33.986-24.254-53.804-29.967 21.086-12.852 35.194-36.065 35.194-62.514 0-40.339-32.818-73.157-73.157-73.157-40.338 0-73.156 32.818-73.156 73.157 0 26.448 14.108 49.662 35.194 62.513-19.818 5.713-38.228 15.88-53.805 29.967-25.004 22.612-40.742 53.448-44.314 86.827-.242 2.258.487 4.511 2.004 6.199s3.68 2.652 5.95 2.652l256.253-.001c2.27 0 4.433-.965 5.95-2.652 1.517-1.688 2.246-3.942 2.004-6.199-3.571-33.377-19.309-64.213-44.313-86.825zm-148.922-92.48c0-31.517 25.64-57.157 57.156-57.157 31.517 0 57.157 25.641 57.157 57.157s-25.64 57.156-57.157 57.156c-31.516 0-57.156-25.641-57.156-57.156zm-61.742 172.159c10.35-57.032 59.977-99.003 118.898-99.003 58.919 0 108.546 41.971 118.897 99.002zm205.075-174.228c-.909 3.392.068 7.04 2.549 9.521 1.868 1.867 4.396 2.882 6.979 2.882.849 0 1.703-.109 2.542-.334l35.896-9.618c6.935 2.079 14.134 3.131 21.438 3.131 41.12 0 74.573-33.453 74.573-74.573s-33.454-74.574-74.573-74.574c-41.12 0-74.574 33.454-74.574 74.574 0 14.917 4.329 29.156 12.556 41.427zm69.404-127.567c32.297 0 58.573 26.276 58.573 58.574s-26.276 58.573-58.573 58.573c-6.398 0-12.689-1.024-18.697-3.046-1.492-.502-3.1-.553-4.621-.146l-27.876 7.469 5.604-20.911c.635-2.37.147-4.901-1.325-6.866-7.626-10.182-11.658-22.311-11.658-35.073 0-32.298 26.275-58.574 58.573-58.574zm-253.829 139.635c.839.225 1.693.334 2.542.334 2.583 0 5.112-1.015 6.979-2.882 2.481-2.48 3.458-6.129 2.549-9.521l-7.386-27.564c8.227-12.271 12.556-26.51 12.556-41.427 0-41.12-33.454-74.574-74.574-74.574s-74.573 33.453-74.573 74.573 33.454 74.573 74.574 74.573c7.304 0 14.503-1.052 21.438-3.131zm-38.636-25.533c-6.008 2.021-12.299 3.046-18.697 3.046-32.298 0-58.574-26.276-58.574-58.574s26.276-58.574 58.574-58.574 58.574 26.276 58.574 58.574c0 12.763-4.031 24.892-11.658 35.073-1.472 1.965-1.96 4.496-1.325 6.866l5.604 20.911-27.876-7.469c-.679-.182-1.375-.272-2.07-.272-.864.001-1.726.14-2.552.419zm116.242-100.555 15.117 26.184c1.754 3.04 5.023 4.93 8.53 4.931h.004c3.506 0 6.775-1.887 8.535-4.93l16.625-28.797c27.876-11.38 46.403-38.762 46.403-69.064 0-41.12-33.454-74.573-74.574-74.573s-74.573 33.453-74.573 74.573c.001 33.556 22.002 62.541 53.933 71.676zm20.641-130.25c32.298 0 58.574 26.275 58.574 58.573 0 24.59-15.528 46.73-38.641 55.095-1.773.642-3.263 1.89-4.206 3.522l-12.717 22.026-11.466-19.859c-1.102-1.908-2.942-3.277-5.086-3.785-26.514-6.272-45.032-29.711-45.032-56.999.001-32.298 26.276-58.573 58.574-58.573zm260.72 313.83-7.933-3.054c-1.281-4.191-2.961-8.244-5.023-12.117l3.453-7.773c1.344-3.024.686-6.563-1.654-8.904l-13.531-13.531c-2.34-2.34-5.879-2.995-8.904-1.654l-7.778 3.454c-3.873-2.062-7.924-3.741-12.112-5.021l-3.055-7.936c-1.188-3.088-4.156-5.126-7.466-5.126h-19.135c-3.309 0-6.277 2.038-7.466 5.126l-3.055 7.936c-4.188 1.28-8.239 2.96-12.112 5.021l-7.778-3.454c-3.024-1.345-6.564-.686-8.904 1.655l-13.531 13.531c-2.34 2.34-2.998 5.879-1.655 8.903l3.454 7.776c-2.062 3.873-3.742 7.925-5.022 12.113l-7.935 3.055c-3.088 1.188-5.126 4.156-5.126 7.466v19.136c0 3.31 2.038 6.277 5.126 7.466l7.933 3.054c1.281 4.191 2.961 8.244 5.023 12.117l-3.453 7.773c-1.344 3.024-.686 6.563 1.654 8.904l13.531 13.53c2.34 2.339 5.878 2.996 8.904 1.654l7.778-3.454c3.873 2.062 7.923 3.741 12.112 5.021l3.055 7.937c1.188 3.088 4.156 5.126 7.466 5.126h19.135c3.31 0 6.277-2.038 7.466-5.126l3.054-7.934c4.191-1.28 8.244-2.96 12.117-5.022l7.774 3.452c3.025 1.345 6.564.686 8.904-1.654l13.531-13.53c2.34-2.341 2.998-5.88 1.654-8.904l-3.454-7.777c2.062-3.873 3.741-7.924 5.021-12.112l7.936-3.055c3.088-1.188 5.126-4.156 5.126-7.466v-19.136c.001-3.31-2.037-6.277-5.125-7.466zm-10.874 21.108-6.589 2.536c-2.462.947-4.298 3.048-4.909 5.614-1.288 5.414-3.426 10.57-6.354 15.325-1.383 2.246-1.57 5.03-.499 7.441l2.869 6.461-5.763 5.762-6.457-2.867c-2.411-1.071-5.196-.884-7.442.5-4.754 2.927-9.911 5.065-15.329 6.354-2.566.611-4.667 2.447-5.614 4.909l-2.535 6.587h-8.149l-2.537-6.59c-.947-2.462-3.048-4.298-5.614-4.908-5.414-1.289-10.57-3.427-15.324-6.354-2.246-1.383-5.03-1.569-7.442-.499l-6.461 2.869-5.763-5.762 2.868-6.457c1.071-2.411.884-5.195-.5-7.442-2.927-4.753-5.065-9.911-6.355-15.33-.611-2.565-2.447-4.666-4.909-5.613l-6.586-2.535v-8.149l6.588-2.536c2.462-.947 4.299-3.048 4.909-5.614 1.288-5.414 3.426-10.57 6.354-15.326 1.383-2.246 1.57-5.03.5-7.441l-2.869-6.46 5.763-5.763 6.46 2.869c2.411 1.071 5.195.885 7.44-.499 4.758-2.929 9.915-5.066 15.326-6.354 2.566-.61 4.666-2.446 5.614-4.908l2.537-6.589h8.15l2.536 6.589c.947 2.462 3.048 4.298 5.614 4.908 5.412 1.288 10.568 3.426 15.326 6.354 2.245 1.383 5.03 1.569 7.44.499l6.46-2.869 5.763 5.763-2.868 6.457c-1.071 2.411-.884 5.195.5 7.442 2.928 4.754 5.065 9.911 6.354 15.328.61 2.566 2.447 4.667 4.909 5.614l6.588 2.535zm-62.697-49.1c-24.827 0-45.025 20.198-45.025 45.025s20.198 45.026 45.025 45.026 45.026-20.199 45.026-45.026-20.199-45.025-45.026-45.025zm0 74.052c-16.005 0-29.025-13.021-29.025-29.026s13.021-29.025 29.025-29.025 29.026 13.021 29.026 29.025-13.021 29.026-29.026 29.026zm-350.356-167.18-1.929-53.418c-.077-2.148.641-4.026 2.134-5.573 1.492-1.548 3.343-2.333 5.492-2.333h3.858c2.15 0 4 .786 5.492 2.333s2.211 3.425 2.134 5.573l-1.928 53.418c-.148 4.104-3.52 7.355-7.626 7.355-4.107 0-7.479-3.251-7.627-7.355zm17.403 23.508c0 5.399-4.377 9.776-9.776 9.776s-9.776-4.377-9.776-9.776 4.377-9.776 9.776-9.776 9.776 4.377 9.776 9.776zm138.178-143.624-1.929-53.418c-.077-2.148.641-4.026 2.134-5.573 1.492-1.547 3.343-2.333 5.492-2.333h3.858c2.15 0 4 .786 5.492 2.333s2.211 3.425 2.134 5.573l-1.929 53.418c-.148 4.104-3.52 7.356-7.626 7.356-4.106-.001-7.478-3.252-7.626-7.356zm-2.15 23.508c0-5.399 4.377-9.776 9.776-9.776s9.776 4.377 9.776 9.776-4.377 9.776-9.776 9.776-9.776-4.377-9.776-9.776zm157.732 93.195-1.929-53.418c-.077-2.148.641-4.026 2.134-5.573 1.492-1.547 3.343-2.333 5.492-2.333h3.858c2.15 0 4 .786 5.492 2.333s2.211 3.425 2.134 5.573l-1.929 53.418c-.148 4.104-3.52 7.356-7.626 7.356s-7.478-3.252-7.626-7.356zm-2.15 23.508c0-5.399 4.377-9.776 9.776-9.776s9.776 4.377 9.776 9.776-4.377 9.776-9.776 9.776c-5.399.001-9.776-4.376-9.776-9.776z" fill-rule="evenodd"/></svg>