<svg xmlns="http://www.w3.org/2000/svg" width="18.678" height="9.392" viewBox="0 0 18.678 9.392"><g transform="translate(0)"><g transform="translate(0)"><path d="M256.2.409l-.854,1.744a.73.73,0,0,1-.547.4l-1.964.3a.73.73,0,0,0-.389,1.255l1.4,1.311a.73.73,0,0,1,.22.662l-.351,1.963a.73.73,0,0,0,1.074.766l1.707-.95a.73.73,0,0,1,.71,0l1.707.95a.73.73,0,0,0,1.074-.766l-.351-1.963a.73.73,0,0,1,.22-.662l1.4-1.311a.73.73,0,0,0-.389-1.255l-1.964-.3a.73.73,0,0,1-.547-.4L257.508.409a.73.73,0,0,0-1.311,0Z" transform="translate(-247.514 0)" fill="#fed402"/><path d="M343.557,45.485l1.964-.3a.728.728,0,0,0,.156-.042.942.942,0,0,0,.106,1.264l1,.931a.944.944,0,0,1,.285.856l-.252,1.405a.931.931,0,0,0,.359.918l-1.657.922a.73.73,0,0,1-1.074-.766l.351-1.963a.73.73,0,0,0-.22-.662l-1.4-1.311A.73.73,0,0,1,343.557,45.485Z" transform="translate(-338.238 -42.635)" fill="#fac600"/><g transform="translate(0 0.473)"><path d="M456.917,81.994h1.78a.417.417,0,1,0,0-.835h-1.78a.417.417,0,0,0,0,.835Z" transform="translate(-456.5 -77.116)" fill="#fee45a"/><path d="M440.916,142.158a.415.415,0,0,0,.178-.04l1.552-.736a.417.417,0,1,0-.358-.754l-1.552.736a.417.417,0,0,0,.179.794Z" transform="translate(-439.38 -133.238)" fill="#fee45a"/><path d="M442.467,10.069a.417.417,0,0,0,.179-.794l-1.552-.736a.417.417,0,1,0-.358.754l1.552.736a.415.415,0,0,0,.179.04Z" transform="translate(-439.38 -8.498)" fill="#fee45a"/><path d="M168.206,81.994h1.78a.417.417,0,1,0,0-.835h-1.78a.417.417,0,1,0,0,.835Z" transform="translate(-151.726 -77.116)" fill="#fee45a"/><path d="M189.864,142.158a.417.417,0,0,0,.179-.794l-1.552-.736a.417.417,0,0,0-.358.754l1.552.736A.415.415,0,0,0,189.864,142.158Z" transform="translate(-172.722 -133.238)" fill="#fee45a"/><path d="M188.312,10.069a.415.415,0,0,0,.179-.04l1.552-.736a.417.417,0,1,0-.358-.754l-1.552.736a.417.417,0,0,0,.179.794Z" transform="translate(-172.722 -8.499)" fill="#fee45a"/></g></g></g></svg>