<svg xmlns="http://www.w3.org/2000/svg" xmlns:xlink="http://www.w3.org/1999/xlink" width="43.809" height="43.809" viewBox="0 0 43.809 43.809">
  <defs>
    <clipPath id="clip-path">
      <path id="path297" d="M0-682.665H43.809v43.809H0Z" transform="translate(0 682.665)"/>
    </clipPath>
  </defs>
  <g id="g291" transform="translate(0 682.665)">
    <g id="g293" transform="translate(0 -682.665)">
      <g id="g295" clip-path="url(#clip-path)">
        <g id="g301">
          <path id="path303" d="M-550.265,0h-33.883A3.855,3.855,0,0,0-588,3.85V37.734a3.855,3.855,0,0,0,3.85,3.85h25.327a1.283,1.283,0,0,0,.907-.376l11.123-11.123a1.283,1.283,0,0,0,.376-.907V3.85A3.855,3.855,0,0,0-550.265,0" transform="translate(587.998)" fill="#696969"/>
        </g>
        <g id="g305" transform="translate(0)">
          <path id="path307" d="M-303.207,0h-16.942A3.855,3.855,0,0,0-324,3.85V20.792h20.792Z" transform="translate(323.999)" fill="#696969"/>
        </g>
        <g id="g309" transform="translate(20.792)">
          <path id="path311" d="M-303.207-303.207v-16.942a3.855,3.855,0,0,0-3.85-3.85H-324v20.792Z" transform="translate(323.999 323.999)" fill="#555"/>
        </g>
        <g id="g313" transform="translate(20.792 20.792)">
          <path id="path315" d="M-284.491-122.281h0ZM-304-130.666v20.792h8.385a1.283,1.283,0,0,0,.908-.376l11.123-11.123a1.283,1.283,0,0,0,.376-.907v-8.385Z" transform="translate(303.999 130.666)" fill="#414141"/>
        </g>
        <g id="g317" transform="translate(0 20.792)">
          <path id="path319" d="M0,0V16.942a3.855,3.855,0,0,0,3.85,3.85H20.792V0Z" fill="#555"/>
        </g>
        <g id="g321" transform="translate(6.118 6.118)">
          <path id="path323" d="M-106.06-43.672h-1.711v-1.711a1.283,1.283,0,0,0-1.283-1.283,1.283,1.283,0,0,0-1.283,1.283v1.711h-1.711a1.283,1.283,0,0,0-1.283,1.283A1.283,1.283,0,0,0-112.05-41.1h1.711v1.711a1.283,1.283,0,0,0,1.283,1.283,1.283,1.283,0,0,0,1.283-1.283V-41.1h1.711a1.283,1.283,0,0,0,1.283-1.283,1.283,1.283,0,0,0-1.283-1.283" transform="translate(113.333 46.667)" fill="#dcf5fa"/>
        </g>
        <g id="g325" transform="translate(26.91 9.113)">
          <path id="path327" d="M-106.06-37.433h-5.989a1.283,1.283,0,0,1-1.283-1.283A1.283,1.283,0,0,1-112.05-40h5.989a1.283,1.283,0,0,1,1.283,1.283,1.283,1.283,0,0,1-1.283,1.283" transform="translate(113.333 40)" fill="#bedce6"/>
        </g>
        <g id="g329" transform="translate(6.973 27.765)">
          <path id="path331" d="M-76.38-49.911l1.232-1.232a1.283,1.283,0,0,0,0-1.815,1.283,1.283,0,0,0-1.815,0l-1.232,1.232-1.232-1.232a1.283,1.283,0,0,0-1.815,0,1.283,1.283,0,0,0,0,1.815l1.232,1.232-1.232,1.232a1.283,1.283,0,0,0,0,1.815,1.279,1.279,0,0,0,.907.376,1.279,1.279,0,0,0,.908-.376l1.232-1.232,1.232,1.232a1.279,1.279,0,0,0,.907.376,1.279,1.279,0,0,0,.908-.376,1.283,1.283,0,0,0,0-1.815Z" transform="translate(81.617 53.334)" fill="#dcf5fa"/>
        </g>
        <g id="g333" transform="translate(17.284 17.284)">
          <path id="path335" d="M-193.4-386.808a13.277,13.277,0,0,1-13.262-13.262A13.277,13.277,0,0,1-193.4-413.332a13.277,13.277,0,0,1,13.262,13.262A13.277,13.277,0,0,1-193.4-386.808" transform="translate(206.666 413.332)" fill="#5fc314"/>
        </g>
        <g id="g337" transform="translate(26.268 31.83)">
          <path id="path339" d="M-106.06-37.433h-5.989a1.283,1.283,0,0,1-1.283-1.283A1.283,1.283,0,0,1-112.05-40h5.989a1.283,1.283,0,0,1,1.283,1.283,1.283,1.283,0,0,1-1.283,1.283" transform="translate(113.333 40)" fill="#bedce6"/>
        </g>
        <g id="g341" transform="translate(26.268 26.696)">
          <path id="path343" d="M-106.06-37.433h-5.989a1.283,1.283,0,0,1-1.283-1.283A1.283,1.283,0,0,1-112.05-40h5.989a1.283,1.283,0,0,1,1.283,1.283,1.283,1.283,0,0,1-1.283,1.283" transform="translate(113.333 40)" fill="#bedce6"/>
        </g>
      </g>
    </g>
  </g>
</svg>
