<svg id="Layer_2" data-name="Layer 2" xmlns="http://www.w3.org/2000/svg" width="20.752" height="20.752" viewBox="0 0 20.752 20.752">
  <path id="Path_5470" data-name="Path 5470" d="M11.376,1A10.376,10.376,0,1,0,21.752,11.376,10.376,10.376,0,0,0,11.376,1Zm4,13.044a.943.943,0,1,1-1.334,1.334L11.376,12.71,8.708,15.378a.943.943,0,1,1-1.334-1.334l2.668-2.668L7.375,8.707A.943.943,0,1,1,8.709,7.374l2.667,2.669,2.668-2.669a.943.943,0,1,1,1.334,1.334L12.71,11.376Z" transform="translate(-1 -1)" fill="#ababab"/>
</svg>
