<svg xmlns="http://www.w3.org/2000/svg" width="43.052" height="43.052" viewBox="0 0 43.052 43.052">
  <g id="home" transform="translate(0 -0.001)">
    <g id="Group_5088" data-name="Group 5088" transform="translate(36.83 29.767)">
      <g id="Group_5087" data-name="Group 5087">
        <path id="Path_5436" data-name="Path 5436" d="M439.435,354.246a.84.84,0,1,0,.246.594A.847.847,0,0,0,439.435,354.246Z" transform="translate(-438 -354)" fill="#868686"/>
      </g>
    </g>
    <g id="Group_5090" data-name="Group 5090" transform="translate(0 0.001)">
      <g id="Group_5089" data-name="Group 5089">
        <path id="Path_5437" data-name="Path 5437" d="M42.211,41.371h-3.7v-7.82a.841.841,0,0,0-1.682,0v7.82H10.259v-7.9a.841.841,0,1,0-1.682,0v7.9H6.222V19.257l15.3-11.948,15.3,11.948v7.988a.841.841,0,1,0,1.682,0V20.569l.147.115a.841.841,0,0,0,1.112-.068L42.8,17.583a.841.841,0,0,0-.077-1.257l-5.056-3.947V3.953a.841.841,0,0,0-.841-.841H31.956a.841.841,0,0,0-.841.841V7.261L22.043.179a.841.841,0,0,0-1.035,0L.326,16.326a.841.841,0,0,0-.077,1.257l3.033,3.033a.841.841,0,0,0,1.112.068l.147-.115v20.8H.841a.841.841,0,1,0,0,1.682h41.37a.841.841,0,1,0,0-1.682ZM32.8,4.794h3.192v6.272L32.8,8.574ZM3.945,18.9,2.11,17.066,21.526,1.908,40.942,17.066,39.107,18.9,22.043,5.579a.841.841,0,0,0-1.035,0Z" transform="translate(0 -0.001)" fill="#868686"/>
      </g>
    </g>
    <g id="Group_5092" data-name="Group 5092" transform="translate(12.613 18.331)" opacity="0.65">
      <g id="Group_5091" data-name="Group 5091">
        <path id="Path_5438" data-name="Path 5438" d="M166.985,218H150.841a.841.841,0,0,0-.841.841v16.145a.841.841,0,0,0,.841.841h16.145a.841.841,0,0,0,.841-.841V218.841A.841.841,0,0,0,166.985,218Zm-8.913,16.145h-6.391v-6.391h6.391Zm0-8.072h-6.391v-6.391h6.391Zm8.072,8.072h-6.391v-6.391h6.391Zm0-8.072h-6.391v-6.391h6.391Z" transform="translate(-150 -218)" fill="#ffa8ba"/>
      </g>
    </g>
    <g id="Group_5094" data-name="Group 5094" transform="translate(8.577 29.305)">
      <g id="Group_5093" data-name="Group 5093">
        <path id="Path_5439" data-name="Path 5439" d="M102.841,348.506a.841.841,0,0,0-.841.841v.014a.841.841,0,1,0,1.682,0v-.014A.841.841,0,0,0,102.841,348.506Z" transform="translate(-102 -348.506)" fill="#868686"/>
      </g>
    </g>
  </g>
</svg>
