<svg xmlns="http://www.w3.org/2000/svg" width="52.775" height="56.336" viewBox="0 0 52.775 56.336">
  <g id="home" transform="translate(0 13.283)" opacity="0.63">
    <g id="Group_5088" data-name="Group 5088" transform="translate(36.83 29.767)">
      <g id="Group_5087" data-name="Group 5087">
        <path id="Path_5436" data-name="Path 5436" d="M439.435,354.246a.84.84,0,1,0,.246.594A.847.847,0,0,0,439.435,354.246Z" transform="translate(-438 -354)" fill="#333"/>
      </g>
    </g>
    <g id="Group_5090" data-name="Group 5090" transform="translate(0 0.001)">
      <g id="Group_5089" data-name="Group 5089">
        <path id="Path_5437" data-name="Path 5437" d="M42.211,41.371h-3.7v-7.82a.841.841,0,0,0-1.682,0v7.82H10.259v-7.9a.841.841,0,1,0-1.682,0v7.9H6.222V19.257l15.3-11.948,15.3,11.948v7.988a.841.841,0,1,0,1.682,0V20.569l.147.115a.841.841,0,0,0,1.112-.068L42.8,17.583a.841.841,0,0,0-.077-1.257l-5.056-3.947V3.953a.841.841,0,0,0-.841-.841H31.956a.841.841,0,0,0-.841.841V7.261L22.043.179a.841.841,0,0,0-1.035,0L.326,16.326a.841.841,0,0,0-.077,1.257l3.033,3.033a.841.841,0,0,0,1.112.068l.147-.115v20.8H.841a.841.841,0,1,0,0,1.682h41.37a.841.841,0,1,0,0-1.682ZM32.8,4.794h3.192v6.272L32.8,8.574ZM3.945,18.9,2.11,17.066,21.526,1.908,40.942,17.066,39.107,18.9,22.043,5.579a.841.841,0,0,0-1.035,0Z" transform="translate(0 -0.001)" fill="#333"/>
      </g>
    </g>
    <g id="Group_5092" data-name="Group 5092" transform="translate(12.613 18.331)">
      <g id="Group_5091" data-name="Group 5091">
        <path id="Path_5438" data-name="Path 5438" d="M166.985,218H150.841a.841.841,0,0,0-.841.841v16.145a.841.841,0,0,0,.841.841h16.145a.841.841,0,0,0,.841-.841V218.841A.841.841,0,0,0,166.985,218Zm-8.913,16.145h-6.391v-6.391h6.391Zm0-8.072h-6.391v-6.391h6.391Zm8.072,8.072h-6.391v-6.391h6.391Zm0-8.072h-6.391v-6.391h6.391Z" transform="translate(-150 -218)" fill="#ff7793"/>
      </g>
    </g>
    <g id="Group_5094" data-name="Group 5094" transform="translate(8.577 29.305)">
      <g id="Group_5093" data-name="Group 5093">
        <path id="Path_5439" data-name="Path 5439" d="M102.841,348.506a.841.841,0,0,0-.841.841v.014a.841.841,0,1,0,1.682,0v-.014A.841.841,0,0,0,102.841,348.506Z" transform="translate(-102 -348.506)" fill="#333"/>
      </g>
    </g>
    <g id="smoke" transform="matrix(-0.966, 0.259, -0.259, -0.966, 53.248, -2.139)">
      <path id="Path_5445" data-name="Path 5445" d="M10.691,1.281a2.584,2.584,0,0,0-1.3.346,3.063,3.063,0,0,0-5.709.834,2.826,2.826,0,1,0-.858,5.518,2.775,2.775,0,0,0,1.5-.435A2.624,2.624,0,0,0,6.389,8.557a2.544,2.544,0,0,0,.87-.149,3.057,3.057,0,0,0,5.387-2.765,2.63,2.63,0,0,0-1.955-4.362Zm.87,3.748c-.566.443.15,1.084.071,1.615A1.877,1.877,0,0,1,8.045,7.4a.6.6,0,0,0-.375-.334c-.457-.124-.8.374-1.281.3a1.439,1.439,0,0,1-1.341-.941.6.6,0,0,0-1-.191A1.633,1.633,0,1,1,2.825,3.516a1.611,1.611,0,0,1,1.049.393.6.6,0,0,0,.679.066c.35-.186.307-.572.262-.906a1.87,1.87,0,0,1,3.713-.328.6.6,0,0,0,1.055.268,1.425,1.425,0,1,1,1.978,2.02Z" transform="translate(0 1.829)" fill="#ffaabc"/>
      <path id="Path_5446" data-name="Path 5446" d="M1.638,0a1.651,1.651,0,0,0,0,3.3A1.651,1.651,0,0,0,1.638,0Zm0,2.11a.459.459,0,0,1,0-.918A.459.459,0,0,1,1.638,2.11Z" transform="translate(17.259)" fill="#ffaabc"/>
      <path id="Path_5447" data-name="Path 5447" d="M2.356,0a2.375,2.375,0,0,0,0,4.749A2.375,2.375,0,0,0,2.356,0Zm0,3.558a1.183,1.183,0,0,1,0-2.366,1.183,1.183,0,0,1,0,2.366Z" transform="translate(14.235 3.707)" fill="#ffaabc"/>
    </g>
  </g>
</svg>
