<svg xmlns="http://www.w3.org/2000/svg" width="65.383" height="73.077" viewBox="0 0 65.383 73.077">
  <g id="Group_5099" data-name="Group 5099" transform="translate(0 0)">
    <g id="home" transform="translate(0 25.257)" opacity="0.63">
      <g id="Group_5088" data-name="Group 5088" transform="translate(40.909 33.063)">
        <g id="Group_5087" data-name="Group 5087">
          <path id="Path_5436" data-name="Path 5436" d="M439.594,354.274a.933.933,0,1,0,.274.66A.94.94,0,0,0,439.594,354.274Z" transform="translate(-438 -354)" fill="#333"/>
        </g>
      </g>
      <g id="Group_5090" data-name="Group 5090" transform="translate(0 0)">
        <g id="Group_5089" data-name="Group 5089">
          <path id="Path_5437" data-name="Path 5437" d="M46.886,45.953h-4.11V37.267a.934.934,0,0,0-1.868,0v8.686H11.395v-8.78a.934.934,0,1,0-1.868,0v8.78H6.912V21.389l17-13.271,17,13.271v8.873a.934.934,0,1,0,1.868,0V22.848l.163.127a.934.934,0,0,0,1.235-.076l3.369-3.369a.934.934,0,0,0-.086-1.4L41.843,13.75V4.39a.934.934,0,0,0-.934-.934H35.5a.934.934,0,0,0-.934.934V8.065L24.485.2a.934.934,0,0,0-1.149,0L.362,18.134a.934.934,0,0,0-.086,1.4L3.645,22.9a.934.934,0,0,0,1.235.076l.163-.127V45.953H.934a.934.934,0,0,0,0,1.868H46.886a.934.934,0,1,0,0-1.868ZM36.43,5.324h3.545v6.967L36.43,9.524ZM4.382,20.994,2.344,18.956,23.91,2.12,45.476,18.956l-2.038,2.038L24.485,6.2a.934.934,0,0,0-1.149,0Z" transform="translate(0 -0.001)" fill="#333"/>
        </g>
      </g>
      <g id="Group_5092" data-name="Group 5092" transform="translate(14.01 20.361)">
        <g id="Group_5091" data-name="Group 5091">
          <path id="Path_5438" data-name="Path 5438" d="M168.867,218H150.934a.934.934,0,0,0-.934.934v17.933a.934.934,0,0,0,.934.934h17.933a.934.934,0,0,0,.934-.934V218.934A.934.934,0,0,0,168.867,218Zm-9.9,17.933h-7.1v-7.1h7.1Zm0-8.966h-7.1v-7.1h7.1Zm8.966,8.966h-7.1v-7.1h7.1Zm0-8.966h-7.1v-7.1h7.1Z" transform="translate(-150 -218)" fill="#ff7793"/>
        </g>
      </g>
      <g id="Group_5094" data-name="Group 5094" transform="translate(9.527 32.55)">
        <g id="Group_5093" data-name="Group 5093">
          <path id="Path_5439" data-name="Path 5439" d="M102.934,348.506a.934.934,0,0,0-.934.934v.015a.934.934,0,1,0,1.868,0v-.015A.934.934,0,0,0,102.934,348.506Z" transform="translate(-102 -348.506)" fill="#333"/>
        </g>
      </g>
    </g>
    <g id="smoke" transform="matrix(-0.966, 0.259, -0.259, -0.966, 66.062, 15.982)">
      <path id="Path_5445" data-name="Path 5445" d="M15.332,1.837a3.705,3.705,0,0,0-1.863.5,4.393,4.393,0,0,0-8.187,1.2,4.052,4.052,0,1,0-1.231,7.914A3.98,3.98,0,0,0,6.2,10.819a3.763,3.763,0,0,0,2.957,1.453,3.648,3.648,0,0,0,1.248-.214,4.384,4.384,0,0,0,7.726-3.965,3.772,3.772,0,0,0-2.8-6.256ZM16.58,7.213c-.811.635.215,1.555.1,2.316a2.692,2.692,0,0,1-5.145,1.077A.855.855,0,0,0,11,10.127c-.655-.178-1.15.536-1.837.436a2.064,2.064,0,0,1-1.923-1.35A.857.857,0,0,0,5.8,8.939a2.342,2.342,0,1,1-1.752-3.9,2.31,2.31,0,0,1,1.5.564A.866.866,0,0,0,6.53,5.7c.5-.267.44-.821.376-1.3a2.682,2.682,0,0,1,5.324-.47.862.862,0,0,0,1.513.385,2.043,2.043,0,1,1,2.837,2.9Z" transform="translate(0 2.623)" fill="#ffbecc"/>
      <path id="Path_5446" data-name="Path 5446" d="M2.349,0a2.367,2.367,0,0,0,0,4.734A2.367,2.367,0,0,0,2.349,0Zm0,3.025a.658.658,0,0,1,0-1.316A.658.658,0,0,1,2.349,3.025Z" transform="translate(24.751)" fill="#ffbecc"/>
      <path id="Path_5447" data-name="Path 5447" d="M3.379,0a3.406,3.406,0,0,0,0,6.811A3.406,3.406,0,0,0,3.379,0Zm0,5.1a1.7,1.7,0,0,1,0-3.393,1.7,1.7,0,0,1,0,3.393Z" transform="translate(20.414 5.316)" fill="#ffbecc"/>
    </g>
  </g>
</svg>
