<svg id="low-tide" xmlns="http://www.w3.org/2000/svg" width="166.15" height="8.235" viewBox="0 0 166.15 8.235">
  <path id="Path_5450" data-name="Path 5450" d="M37.295,78.482c-3.213,0-4.893-1.71-6.242-3.085-1.209-1.231-2.164-2.207-4.142-2.207s-2.934.973-4.142,2.207c-1.349,1.375-3.029,3.085-6.242,3.085s-4.893-1.71-6.242-3.085C9.076,74.165,8.122,73.19,6.143,73.19V70.247c3.213,0,4.893,1.71,6.242,3.085,1.209,1.231,2.164,2.207,4.142,2.207s2.934-.973,4.142-2.207c1.349-1.375,3.028-3.085,6.242-3.085s4.892,1.71,6.241,3.085c1.209,1.231,2.164,2.207,4.142,2.207s2.934-.973,4.143-2.207c1.349-1.375,3.029-3.085,6.243-3.085V73.19c-1.979,0-2.934.973-4.143,2.207C42.188,76.771,40.509,78.482,37.295,78.482Z" transform="translate(118.469 -70.247)" fill="#f1f1f1"/>
  <path id="Path_5451" data-name="Path 5451" d="M93.759,78.482c-3.214,0-4.893-1.71-6.242-3.085-1.209-1.231-2.164-2.207-4.142-2.207s-2.933.973-4.142,2.207c-1.349,1.375-3.029,3.085-6.242,3.085S68.1,76.771,66.749,75.4c-1.209-1.231-2.164-2.207-4.142-2.207V70.247c3.213,0,4.893,1.71,6.242,3.085,1.209,1.231,2.164,2.207,4.142,2.207s2.933-.973,4.142-2.207c1.349-1.375,3.028-3.085,6.241-3.085s4.893,1.71,6.242,3.085c1.209,1.231,2.164,2.207,4.142,2.207s2.934-.973,4.142-2.207c1.35-1.375,3.029-3.085,6.243-3.085V73.19c-1.979,0-2.933.973-4.142,2.207C98.649,76.771,96.972,78.482,93.759,78.482Z" transform="translate(20.467 -70.247)" fill="#f1f1f1"/>
  <path id="Path_5452" data-name="Path 5452" d="M37.295,100c-3.213,0-4.893-1.71-6.242-3.085-1.209-1.231-2.164-2.207-4.142-2.207s-2.934.973-4.142,2.207C21.419,98.288,19.74,100,16.527,100s-4.893-1.71-6.242-3.085c-1.209-1.231-2.163-2.207-4.142-2.207V91.764c3.213,0,4.893,1.71,6.242,3.085,1.209,1.231,2.164,2.207,4.142,2.207s2.934-.973,4.142-2.207c1.349-1.374,3.028-3.085,6.242-3.085s4.892,1.71,6.241,3.085c1.209,1.231,2.164,2.207,4.142,2.207s2.934-.973,4.143-2.207c1.349-1.374,3.029-3.085,6.243-3.085v2.943c-1.979,0-2.934.973-4.143,2.207C42.188,98.288,40.509,100,37.295,100Z" transform="translate(-6.143 -91.764)" fill="#f1f1f1"/>
  <path id="Path_5453" data-name="Path 5453" d="M93.759,100c-3.214,0-4.893-1.71-6.242-3.085-1.209-1.231-2.164-2.207-4.142-2.207s-2.933.973-4.142,2.207C77.883,98.288,76.2,100,72.991,100s-4.893-1.71-6.242-3.085c-1.209-1.231-2.164-2.207-4.142-2.207V91.764c3.213,0,4.893,1.71,6.242,3.085,1.209,1.231,2.164,2.207,4.142,2.207s2.933-.973,4.142-2.207c1.349-1.374,3.028-3.085,6.241-3.085s4.893,1.71,6.242,3.085c1.209,1.231,2.164,2.207,4.142,2.207s2.934-.973,4.142-2.207c1.35-1.374,3.029-3.085,6.243-3.085v2.943c-1.979,0-2.934.973-4.142,2.207C98.649,98.288,96.972,100,93.759,100Z" transform="translate(-21.069 -91.764)" fill="#f1f1f1"/>
</svg>
