<svg xmlns="http://www.w3.org/2000/svg" xmlns:xlink="http://www.w3.org/1999/xlink" width="53.835" height="46.494" viewBox="0 0 53.835 46.494">
  <defs>
    <filter id="Path_5428" x="28.602" y="14.372" width="21.521" height="20.348" filterUnits="userSpaceOnUse">
      <feOffset dy="3" input="SourceAlpha"/>
      <feGaussianBlur stdDeviation="3" result="blur"/>
      <feFlood flood-opacity="0.161"/>
      <feComposite operator="in" in2="blur"/>
      <feComposite in="SourceGraphic"/>
    </filter>
  </defs>
  <g id="Group_5204" data-name="Group 5204" transform="translate(-184.165 -61)">
    <g id="Group_5203" data-name="Group 5203" transform="translate(-26 1)">
      <circle id="Ellipse_318" data-name="Ellipse 318" cx="23" cy="23" r="23" transform="translate(218 60)" fill="#fff"/>
      <g id="Outline" transform="translate(226.656 66.307)">
        <path id="Path_5423" data-name="Path 5423" d="M7.55,20.022a.587.587,0,0,1,.047.822,1.761,1.761,0,0,0,1.174,2.934,10.852,10.852,0,0,1,.681-1.761h1.321a9.461,9.461,0,0,0-1.268,4.7,10.285,10.285,0,0,0,5.57,8.9.587.587,0,0,1,.3.493v3.521h2.348V37.482a.587.587,0,0,1,.722-.587,13.364,13.364,0,0,0,5.628.123.587.587,0,0,1,.7.587v2.019h2.342V36.438a.587.587,0,0,1,.323-.528,11.186,11.186,0,0,0,5.282-5.329.587.587,0,0,1,.534-.346h.816a1.262,1.262,0,0,0,1.262-1.262V24.453a1.262,1.262,0,0,0-1.262-1.262h-.81a.587.587,0,0,1-.534-.346,10.353,10.353,0,0,0-1.761-2.706.587.587,0,0,1-.123-.587,15.746,15.746,0,0,1,1.6-3.4,5.212,5.212,0,0,0-3.081,1.89.587.587,0,0,1-.763.112,12.959,12.959,0,0,0-6.174-1.972v-1.2A14.179,14.179,0,0,1,28.8,16.894a5.746,5.746,0,0,1,4.877-1.919.587.587,0,0,1,.358.927,14.532,14.532,0,0,0-2,3.7,11.538,11.538,0,0,1,1.59,2.418h.434A2.436,2.436,0,0,1,36.5,24.453v4.519a2.436,2.436,0,0,1-2.436,2.436h-.434A12.378,12.378,0,0,1,28.286,36.8v3.416a.587.587,0,0,1-.587.587H24.177a.587.587,0,0,1-.587-.587V38.3a14.373,14.373,0,0,1-4.7-.1v2.007a.587.587,0,0,1-.587.587H14.787a.587.587,0,0,1-.587-.587v-3.75a11.4,11.4,0,0,1-5.869-9.748,10.447,10.447,0,0,1,.158-1.8,2.934,2.934,0,0,1-1.761-4.836A.587.587,0,0,1,7.55,20.022Z" transform="translate(-6.001 -8.54)" fill="#f5b6c3"/>
        <path id="Path_5424" data-name="Path 5424" d="M40.643,19.978a.587.587,0,0,1-.722.411,4.7,4.7,0,0,0-5.775,3.275.6.6,0,1,1-1.156-.293,5.869,5.869,0,0,1,7.219-4.108.587.587,0,0,1,.434.716Z" transform="translate(-25.988 -10.238)" fill="#f5b6c3"/>
        <path id="Path_5425" data-name="Path 5425" d="M48.622,11.245a.587.587,0,0,1-.528-.634A4.971,4.971,0,0,0,43.61,5.188a5.053,5.053,0,0,0-.745,0A4.971,4.971,0,0,0,42.7,15.1a.587.587,0,0,1-.053,1.174h-.053a6.133,6.133,0,1,1,6.679-5.534A.587.587,0,0,1,48.622,11.245Z" transform="translate(-37.013 -4.035)" fill="#f5b6c3"/>
        <path id="Path_5427" data-name="Path 5427" d="M32,15.141A14.919,14.919,0,0,1,33.761,15v1.174A14.085,14.085,0,0,0,32,16.326Z" transform="translate(-18.519 -8.565)" fill="#f5b6c3"/>
        <g transform="matrix(1, 0, 0, 1, -16.49, -6.31)" filter="url(#Path_5428)">
          <path id="Path_5428-2" data-name="Path 5428" d="M17.174,28.587a.587.587,0,0,0,1.174,0,.587.587,0,0,1,1.174,0,1.761,1.761,0,0,1-3.521,0,.587.587,0,0,1,1.174,0Z" transform="translate(21.6 -7.63)" fill="#f5b6c3"/>
        </g>
        <g id="yen-sign" transform="translate(4.166 3.698)">
          <path id="Path_5432" data-name="Path 5432" d="M6.447,3.689H5.654V3.181h.793q.5,0,.5-.331t-.5-.324H6L7.053.874A2.642,2.642,0,0,0,7.219.592.436.436,0,0,0,7.257.405.4.4,0,0,0,7.147.111.389.389,0,0,0,6.859,0,.4.4,0,0,0,6.568.11,1.907,1.907,0,0,0,6.31.462L5.171,2.245,4.153.564C4.116.5,4.076.429,4.034.358A1.666,1.666,0,0,0,3.91.175.483.483,0,0,0,3.76.049.435.435,0,0,0,3.547,0,.4.4,0,0,0,3.26.107.351.351,0,0,0,3.149.37.552.552,0,0,0,3.194.6a2.063,2.063,0,0,0,.139.257L4.348,2.526H3.9q-.5,0-.5.324t.5.331h.8v.507H3.9q-.5,0-.5.331t.5.324h.8v.282q0,.715.476.715t.483-.715V4.344h.792c.334,0,.5-.109.5-.324S6.781,3.689,6.447,3.689Z" transform="translate(-3.149 0)" fill="#f5b6c3"/>
        </g>
      </g>
    </g>
    <path id="Polygon_27" data-name="Polygon 27" d="M5,0l5,12.8H0Z" transform="matrix(-0.602, -0.799, 0.799, -0.602, 190.184, 107.494)" fill="#fff"/>
  </g>
</svg>
