<svg xmlns="http://www.w3.org/2000/svg" xmlns:xlink="http://www.w3.org/1999/xlink" width="82.038" height="70.852" viewBox="0 0 82.038 70.852">
  <defs>
    <filter id="Path_5423" x="16.129" y="13.363" width="64.482" height="57.406" filterUnits="userSpaceOnUse">
      <feOffset dy="3" input="SourceAlpha"/>
      <feGaussianBlur stdDeviation="3" result="blur"/>
      <feFlood flood-color="#e91111" flood-opacity="0.329"/>
      <feComposite operator="in" in2="blur"/>
      <feComposite in="SourceGraphic"/>
    </filter>
    <filter id="Path_5425" x="16.162" y="3.611" width="36.693" height="36.653" filterUnits="userSpaceOnUse">
      <feOffset dy="3" input="SourceAlpha"/>
      <feGaussianBlur stdDeviation="3" result="blur-2"/>
      <feFlood flood-color="#e91111" flood-opacity="0.329"/>
      <feComposite operator="in" in2="blur-2"/>
      <feComposite in="SourceGraphic"/>
    </filter>
    <filter id="Path_5428" x="48.301" y="25.044" width="23.366" height="21.577" filterUnits="userSpaceOnUse">
      <feOffset dy="3" input="SourceAlpha"/>
      <feGaussianBlur stdDeviation="3" result="blur-3"/>
      <feFlood flood-opacity="0.161"/>
      <feComposite operator="in" in2="blur-3"/>
      <feComposite in="SourceGraphic"/>
    </filter>
  </defs>
  <g id="Group_5204" data-name="Group 5204" transform="translate(-184.165 -61)">
    <g id="Group_5203" data-name="Group 5203" transform="translate(196.104 61)">
      <circle id="Ellipse_318" data-name="Ellipse 318" cx="35" cy="35" r="35" transform="translate(0.099)" fill="#fadae1"/>
      <g id="Outline" transform="translate(13.19 9.611)">
        <g transform="matrix(1, 0, 0, 1, -25.13, -9.61)" filter="url(#Path_5423)">
          <path id="Path_5423-2" data-name="Path 5423" d="M8.363,22.685a.894.894,0,0,1,.072,1.252,2.683,2.683,0,0,0,1.789,4.472,16.537,16.537,0,0,1,1.037-2.683h2.012a14.417,14.417,0,0,0-1.932,7.155c0,5.509,3.175,10.58,8.487,13.558a.894.894,0,0,1,.456.751v5.366h3.577V49.292a.894.894,0,0,1,1.1-.894,20.365,20.365,0,0,0,8.577.188.894.894,0,0,1,1.064.894v3.077h3.569V47.7a.894.894,0,0,1,.492-.8,17.047,17.047,0,0,0,8.049-8.121.894.894,0,0,1,.814-.528H48.77a1.923,1.923,0,0,0,1.923-1.923V29.437a1.923,1.923,0,0,0-1.923-1.923H47.536a.894.894,0,0,1-.814-.528,15.776,15.776,0,0,0-2.683-4.123.894.894,0,0,1-.188-.894,24,24,0,0,1,2.433-5.187,7.942,7.942,0,0,0-4.7,2.88.894.894,0,0,1-1.163.17,19.748,19.748,0,0,0-9.409-3.005V14.994a21.608,21.608,0,0,1,9.731,2.925,8.756,8.756,0,0,1,7.432-2.925.894.894,0,0,1,.546,1.413,22.144,22.144,0,0,0-3.041,5.634,17.583,17.583,0,0,1,2.424,3.685h.662a3.712,3.712,0,0,1,3.712,3.712v6.887a3.712,3.712,0,0,1-3.712,3.712h-.662a18.862,18.862,0,0,1-8.148,8.21v5.205a.894.894,0,0,1-.894.894H33.7a.894.894,0,0,1-.894-.894V50.544a21.9,21.9,0,0,1-7.155-.152v3.059a.894.894,0,0,1-.894.894H19.39a.894.894,0,0,1-.894-.894V47.736C12.888,44.4,9.552,38.882,9.552,32.881a15.92,15.92,0,0,1,.241-2.746,4.472,4.472,0,0,1-2.683-7.37A.894.894,0,0,1,8.363,22.685Z" transform="translate(19.13 4.42)" fill="#fff"/>
        </g>
        <path id="Path_5424" data-name="Path 5424" d="M44.664,20.463a.894.894,0,0,1-1.1.626,7.155,7.155,0,0,0-8.8,4.991A.909.909,0,1,1,33,25.633a8.944,8.944,0,0,1,11-6.26.894.894,0,0,1,.662,1.091Z" transform="translate(-22.33 -5.621)" fill="#fff"/>
        <g transform="matrix(1, 0, 0, 1, -25.13, -9.61)" filter="url(#Path_5425)">
          <path id="Path_5425-2" data-name="Path 5425" d="M54.693,15.022a.894.894,0,0,1-.8-.966,7.575,7.575,0,0,0-6.833-8.264,7.7,7.7,0,0,0-1.136,0,7.575,7.575,0,0,0-.25,15.106.9.9,0,0,1-.081,1.789h-.08a9.346,9.346,0,1,1,10.178-8.434A.894.894,0,0,1,54.693,15.022Z" transform="translate(-11.87 5.58)" fill="#fff"/>
        </g>
        <path id="Path_5427" data-name="Path 5427" d="M32,15.215A22.735,22.735,0,0,1,34.683,15v1.789A21.465,21.465,0,0,0,32,17.021Z" transform="translate(-11.455 -5.193)" fill="#fff"/>
        <g transform="matrix(1, 0, 0, 1, -25.13, -9.61)" filter="url(#Path_5428)">
          <path id="Path_5428-2" data-name="Path 5428" d="M17.789,28.894a.894.894,0,0,0,1.789,0,.894.894,0,0,1,1.789,0,2.683,2.683,0,0,1-5.366,0,.894.894,0,0,1,1.789,0Z" transform="translate(41.3 3.04)" fill="#fff"/>
        </g>
        <g id="yen-sign" transform="translate(6.349 5.635)">
          <path id="Path_5432" data-name="Path 5432" d="M8.174,5.621H6.967V4.848H8.174q.762,0,.763-.5T8.174,3.85H7.492L9.1,1.332A4.026,4.026,0,0,0,9.35.9.665.665,0,0,0,9.41.618.608.608,0,0,0,9.241.169.593.593,0,0,0,8.8,0,.606.606,0,0,0,8.36.167,2.907,2.907,0,0,0,7.965.7L6.231,3.421,4.679.859c-.057-.1-.118-.2-.182-.314A2.538,2.538,0,0,0,4.309.266.736.736,0,0,0,4.08.075.663.663,0,0,0,3.756,0a.6.6,0,0,0-.437.164.535.535,0,0,0-.169.4.842.842,0,0,0,.068.343,3.144,3.144,0,0,0,.212.392L4.976,3.85H4.293q-.756,0-.757.494t.757.5H5.506v.773H4.293q-.756,0-.757.5t.757.494H5.506v.429q0,1.09.725,1.089t.736-1.089V6.619H8.175c.508,0,.763-.165.763-.494S8.683,5.621,8.174,5.621Z" transform="translate(-3.149 0)" fill="#fff"/>
        </g>
      </g>
    </g>
    <path id="Polygon_27" data-name="Polygon 27" d="M7.619,0l7.619,19.508H0Z" transform="matrix(-0.602, -0.799, 0.799, -0.602, 193.336, 131.852)" fill="#fadae1"/>
  </g>
</svg>
