<svg xmlns="http://www.w3.org/2000/svg" width="18" height="18" viewBox="0 0 18 18">
  <g id="Group_5384" data-name="Group 5384" transform="translate(-16)">
    <circle id="Ellipse_315" data-name="Ellipse 315" cx="9" cy="9" r="9" transform="translate(16)" fill="#8ac9fe"/>
    <path id="Path_5475" data-name="Path 5475" d="M8.444,17.7q-.23.014-.463.015C3.573,17.715,0,13.749,0,8.857S3.573,0,7.981,0q.233,0,.463.015C4.251.281.925,4.138.925,8.857S4.251,17.434,8.444,17.7Z" transform="translate(16 0.248)" fill="#60b7ff"/>
    <ellipse id="Ellipse_316" data-name="Ellipse 316" cx="7.573" cy="7.573" rx="7.573" ry="7.573" transform="translate(17.285 1.533)" fill="#eef5f6"/>
    <g id="Group_5182" data-name="Group 5182" transform="translate(21.9 4.1)">
      <g id="Group_5179" data-name="Group 5179">
        <path id="Path_5477" data-name="Path 5477" d="M164.22,103.1a.84.84,0,0,1-.84-.84v-.381a2.368,2.368,0,0,1,1.367-2.16,1.274,1.274,0,1,0-1.789-1.339,1.293,1.293,0,0,0-.012.179.84.84,0,0,1-1.679,0,2.986,2.986,0,0,1,.028-.411,2.954,2.954,0,1,1,4.149,3.1.686.686,0,0,0-.384.632v.381A.84.84,0,0,1,164.22,103.1Z" transform="translate(-161.266 -95.605)" fill="#8ac9fe"/>
      </g>
      <circle id="Ellipse_317" data-name="Ellipse 317" cx="0.84" cy="0.84" r="0.84" transform="translate(2.114 8.322)" fill="#8ac9fe"/>
      <g id="Group_5181" data-name="Group 5181" transform="translate(0 0)">
        <g id="Group_5180" data-name="Group 5180">
          <path id="Path_5478" data-name="Path 5478" d="M162.107,98.559a2.986,2.986,0,0,1,.028-.411,2.945,2.945,0,0,1,2.506-2.513l-.125-.015a2.949,2.949,0,0,0-3.221,2.528,2.986,2.986,0,0,0-.028.411.839.839,0,0,0,1.26.726A.839.839,0,0,1,162.107,98.559Z" transform="translate(-161.267 -95.606)" fill="#60b7ff"/>
          <path id="Path_5479" data-name="Path 5479" d="M229.909,154.455v-.381a2.368,2.368,0,0,1,1.367-2.16,1.275,1.275,0,0,0-.395-2.428,1.292,1.292,0,0,0-.551.065,1.284,1.284,0,0,1,.85,1.108,1.268,1.268,0,0,1-.744,1.256,2.369,2.369,0,0,0-1.367,2.16v.381a.839.839,0,0,0,1.26.726A.839.839,0,0,1,229.909,154.455Z" transform="translate(-226.955 -147.8)" fill="#60b7ff"/>
        </g>
        <path id="Path_5480" data-name="Path 5480" d="M229.909,363.368a.839.839,0,0,1,.42-.726.84.84,0,1,0,0,1.453A.839.839,0,0,1,229.909,363.368Z" transform="translate(-226.955 -354.206)" fill="#60b7ff"/>
      </g>
    </g>
  </g>
</svg>
