<svg xmlns="http://www.w3.org/2000/svg" width="20.21" height="16.458" viewBox="0 0 20.21 16.458">
  <g id="smoke" transform="matrix(-0.966, 0.259, -0.259, -0.966, 20.684, 11.144)">
    <path id="Path_5445" data-name="Path 5445" d="M10.691,1.281a2.584,2.584,0,0,0-1.3.346,3.063,3.063,0,0,0-5.709.834,2.826,2.826,0,1,0-.858,5.518,2.775,2.775,0,0,0,1.5-.435A2.624,2.624,0,0,0,6.389,8.557a2.544,2.544,0,0,0,.87-.149,3.057,3.057,0,0,0,5.387-2.765,2.63,2.63,0,0,0-1.955-4.362Zm.87,3.748c-.566.443.15,1.084.071,1.615A1.877,1.877,0,0,1,8.045,7.4a.6.6,0,0,0-.375-.334c-.457-.124-.8.374-1.281.3a1.439,1.439,0,0,1-1.341-.941.6.6,0,0,0-1-.191A1.633,1.633,0,1,1,2.825,3.516a1.611,1.611,0,0,1,1.049.393.6.6,0,0,0,.679.066c.35-.186.307-.572.262-.906a1.87,1.87,0,0,1,3.713-.328.6.6,0,0,0,1.055.268,1.425,1.425,0,1,1,1.978,2.02Z" transform="translate(0 1.829)" fill="#ffaabc"/>
    <path id="Path_5446" data-name="Path 5446" d="M1.638,0a1.651,1.651,0,0,0,0,3.3A1.651,1.651,0,0,0,1.638,0Zm0,2.11a.459.459,0,0,1,0-.918A.459.459,0,0,1,1.638,2.11Z" transform="translate(17.259)" fill="#ffaabc"/>
    <path id="Path_5447" data-name="Path 5447" d="M2.356,0a2.375,2.375,0,0,0,0,4.749A2.375,2.375,0,0,0,2.356,0Zm0,3.558a1.183,1.183,0,0,1,0-2.366,1.183,1.183,0,0,1,0,2.366Z" transform="translate(14.235 3.707)" fill="#ffaabc"/>
  </g>
</svg>
