<svg xmlns="http://www.w3.org/2000/svg" width="30.032" height="28.701" viewBox="0 0 30.032 28.701">
  <g id="up-right-arrow" transform="translate(0 3.743) rotate(-9)">
    <g id="Layer3" transform="translate(0 0)">
      <g id="Group_5326" data-name="Group 5326" transform="translate(0)">
        <path id="Path_5711" data-name="Path 5711" d="M211.952,172.251c.92,8.544,6.3,14.971,13.528,19.194a24.013,24.013,0,0,0,7.585,3.2,1,1,0,1,1-.361,1.967,26.038,26.038,0,0,1-8.232-3.437c-7.787-4.548-13.518-11.509-14.508-20.709a1,1,0,0,1,1.989-.214Z" transform="translate(-209.956 -171.358)" fill="#676767" fill-rule="evenodd"/>
      </g>
      <g id="Group_5327" data-name="Group 5327" transform="translate(13.871 18.361)">
        <path id="Path_5712" data-name="Path 5712" d="M233.925,175.58a44.052,44.052,0,0,0-1.9-4.427,1,1,0,0,1,1.859-.739c.737,1.856,2.125,4.182,2.226,6.145a.955.955,0,0,1-.614,1.009,1.084,1.084,0,0,1-.468.091,2.6,2.6,0,0,1-.364-.062c-.226-.008-.45-.016-.675-.016-.757,0-1.518.047-2.274.091-2.274.133-4.538.414-6.809.592a1,1,0,1,1-.156-1.994c2.284-.179,4.56-.46,6.848-.595.774-.046,1.551-.095,2.327-.095Z" transform="translate(-223.827 -169.784)" fill="#676767" fill-rule="evenodd"/>
      </g>
    </g>
  </g>
</svg>
