<svg xmlns="http://www.w3.org/2000/svg" xmlns:xlink="http://www.w3.org/1999/xlink" width="70.488" height="70.488" viewBox="0 0 70.488 70.488"><defs><filter id="a" x="0" y="0" width="70.488" height="70.488" filterUnits="userSpaceOnUse"><feOffset dy="2" input="SourceAlpha"/><feGaussianBlur stdDeviation="3" result="b"/><feFlood flood-color="red" flood-opacity="0.102"/><feComposite operator="in" in2="b"/><feComposite in="SourceGraphic"/></filter></defs><g transform="translate(9 7)"><g transform="matrix(1, 0, 0, 1, -9, -7)" filter="url(#a)"><g transform="translate(9 7)" fill="#fff"><path d="M 26.244140625 51.48828125 C 22.83576011657715 51.48828125 19.52987098693848 50.82097244262695 16.41829109191895 49.50487899780273 C 13.41235065460205 48.23348236083984 10.71254062652588 46.41313934326172 8.393840789794922 44.09444046020508 C 6.075140476226807 41.77574157714844 4.254800796508789 39.07593154907227 2.983400583267212 36.06999206542969 C 1.66731059551239 32.95841217041016 1.000000596046448 29.65252113342285 1.000000596046448 26.244140625 C 1.000000596046448 22.83576011657715 1.66731059551239 19.52987098693848 2.983400583267212 16.41829109191895 C 4.254800796508789 13.41235065460205 6.075140476226807 10.71254062652588 8.393840789794922 8.393840789794922 C 10.71254062652588 6.075140476226807 13.41235065460205 4.254800796508789 16.41829109191895 2.983400583267212 C 19.52987098693848 1.66731059551239 22.83576011657715 1.000000596046448 26.244140625 1.000000596046448 C 29.65252113342285 1.000000596046448 32.95841217041016 1.66731059551239 36.06999206542969 2.983400583267212 C 39.07593154907227 4.254800796508789 41.77574157714844 6.075140476226807 44.09444046020508 8.393840789794922 C 46.41313934326172 10.71254062652588 48.23348236083984 13.41235065460205 49.50487899780273 16.41829109191895 C 50.82097244262695 19.52987098693848 51.48828125 22.83576011657715 51.48828125 26.244140625 C 51.48828125 29.65252113342285 50.82097244262695 32.95841217041016 49.50487899780273 36.06999206542969 C 48.23348236083984 39.07593154907227 46.41313934326172 41.77574157714844 44.09444046020508 44.09444046020508 C 41.77574157714844 46.41313934326172 39.07593154907227 48.23348236083984 36.06999206542969 49.50487899780273 C 32.95841217041016 50.82097244262695 29.65252113342285 51.48828125 26.244140625 51.48828125 Z" stroke="none"/><path d="M 26.244140625 2 C 22.9703197479248 2 19.79549026489258 2.640731811523438 16.80784225463867 3.904399871826172 C 13.92110061645508 5.125389099121094 11.32812881469727 6.873760223388672 9.100940704345703 9.100940704345703 C 6.873760223388672 11.32812881469727 5.125389099121094 13.92110061645508 3.904399871826172 16.80784225463867 C 2.640731811523438 19.79549026489258 2 22.9703197479248 2 26.244140625 C 2 29.5179615020752 2.640731811523438 32.69279098510742 3.904399871826172 35.68044281005859 C 5.125389099121094 38.56718063354492 6.873760223388672 41.16014862060547 9.100940704345703 43.3873405456543 C 11.32812881469727 45.61452102661133 13.92110061645508 47.36289215087891 16.80784225463867 48.58388137817383 C 19.79549026489258 49.84754943847656 22.9703197479248 50.48828125 26.244140625 50.48828125 C 29.5179615020752 50.48828125 32.69279098510742 49.84754943847656 35.68044281005859 48.58388137817383 C 38.56718063354492 47.36289215087891 41.16014862060547 45.61452102661133 43.3873405456543 43.3873405456543 C 45.61452102661133 41.16014862060547 47.36289215087891 38.56718063354492 48.58388137817383 35.68044281005859 C 49.84754943847656 32.69279098510742 50.48828125 29.5179615020752 50.48828125 26.244140625 C 50.48828125 22.9703197479248 49.84754943847656 19.79549026489258 48.58388137817383 16.80784225463867 C 47.36289215087891 13.92110061645508 45.61452102661133 11.32812881469727 43.3873405456543 9.100940704345703 C 41.16014862060547 6.873760223388672 38.56718063354492 5.125389099121094 35.68044281005859 3.904399871826172 C 32.69279098510742 2.640731811523438 29.5179615020752 2 26.244140625 2 M 26.244140625 0 C 40.73838043212891 0 52.48828125 11.74990081787109 52.48828125 26.244140625 C 52.48828125 40.73838043212891 40.73838043212891 52.48828125 26.244140625 52.48828125 C 11.74990081787109 52.48828125 0 40.73838043212891 0 26.244140625 C 0 11.74990081787109 11.74990081787109 0 26.244140625 0 Z" stroke="none" fill="#fedfe0"/></g></g><g transform="translate(6.557 7.218)"><path d="M0,25.482a6.4,6.4,0,0,0,6.422,6.383,6.514,6.514,0,0,0,.9-.064A7.66,7.66,0,0,0,21.657,36.52a6.408,6.408,0,0,0,11.377-4.827,5.6,5.6,0,1,0,.634-10.933,6.336,6.336,0,0,0,.369-2.134A6.429,6.429,0,0,0,23.418,13.8,8.809,8.809,0,0,0,7.153,18.423c0,.243.01.484.03.722a6.521,6.521,0,0,0-.761-.046A6.4,6.4,0,0,0,0,25.482Z" transform="translate(0 -9.678)" fill="#d8ecfe"/><path d="M13.8,33.587a7.91,7.91,0,0,1,.089-1.186,6.634,6.634,0,0,1-.92.065A6.556,6.556,0,1,1,13.742,19.4c-.02-.245-.031-.493-.031-.742a8.985,8.985,0,0,1,5.778-8.394A8.988,8.988,0,0,0,7.3,18.66c0,.249.011.5.031.742a6.556,6.556,0,1,0-.777,13.065,6.617,6.617,0,0,0,.919-.065,7.909,7.909,0,0,0-.089,1.186,7.82,7.82,0,0,0,11.02,7.131A7.817,7.817,0,0,1,13.8,33.587Z" transform="translate(0 -9.677)" fill="#c4e2ff"/><ellipse cx="3.269" cy="3.269" rx="3.269" ry="3.269" transform="translate(19.593 32.094)" fill="#d8ecfe"/><path d="M255.03,427.074a3.268,3.268,0,1,1,0-6.144,3.27,3.27,0,0,0,0,6.144Z" transform="translate(-231.021 -388.639)" fill="#c4e2ff"/><g transform="translate(15.023 6.523)"><g transform="translate(0 0)"><path d="M198.163,107.208a1.462,1.462,0,0,1-1.462-1.462v-.62a3.409,3.409,0,0,1,2.262-3.213,2.4,2.4,0,1,0-3.2-2.265,1.462,1.462,0,0,1-2.925,0,5.326,5.326,0,1,1,7.1,5.022.479.479,0,0,0-.312.455v.62A1.463,1.463,0,0,1,198.163,107.208Z" transform="translate(-192.837 -94.322)" fill="#0573ce"/><path d="M242.516,278.84a1.462,1.462,0,0,1-1.462-1.462v-.012a1.462,1.462,0,0,1,2.925,0v.012A1.462,1.462,0,0,1,242.516,278.84Z" transform="translate(-237.191 -261.355)" fill="#0573ce"/></g><g transform="translate(0 0)"><path d="M194.179,98.905a5.335,5.335,0,0,0-.051.741,1.461,1.461,0,0,0,.816,1.312,1.463,1.463,0,0,1-2.109-1.312,5.327,5.327,0,0,1,5.682-5.314q.149.01.3.029A5.35,5.35,0,0,0,194.179,98.905Z" transform="translate(-192.835 -94.32)" fill="#0067c5"/><path d="M244.611,135.5a3.41,3.41,0,0,0-2.262,3.213v.62a1.462,1.462,0,0,0,.817,1.312,1.463,1.463,0,0,1-2.109-1.312v-.62a3.408,3.408,0,0,1,2.262-3.213,2.4,2.4,0,0,0-.149-4.576,2.4,2.4,0,0,1,1.441,4.576Z" transform="translate(-237.194 -127.906)" fill="#0067c5"/><path d="M243.166,278.684a1.463,1.463,0,0,1-2.109-1.312v-.012a1.463,1.463,0,0,1,2.109-1.312,1.463,1.463,0,0,0-.817,1.312v.012A1.462,1.462,0,0,0,243.166,278.684Z" transform="translate(-237.194 -261.349)" fill="#0067c5"/></g></g><ellipse cx="3.269" cy="3.269" rx="3.269" ry="3.269" transform="translate(19.593 32.094)" fill="#d8ecfe"/></g></g></svg>