<svg xmlns="http://www.w3.org/2000/svg" width="35.103" height="33.871" viewBox="0 0 35.103 33.871"><path d="M35.043,21.671a1.015,1.015,0,0,0-.9-.72l-11.427-.74L18.475,9.558a1.007,1.007,0,0,0-.925-.576,1.029,1.029,0,0,0-.987.576L12.326,20.211l-11.353.74a1.065,1.065,0,0,0-.925.72,1.042,1.042,0,0,0,.329,1.11L9.118,30.1,6.28,41.208a1.026,1.026,0,0,0,1.542,1.111l9.727-6.108,9.645,6.108a1.057,1.057,0,0,0,1.172-.041,1.022,1.022,0,0,0,.391-1.069L25.919,30.1l8.816-7.321A1,1,0,0,0,35.043,21.671Z" transform="translate(0 -8.982)" fill="#ffda2d"/><path d="M273.186,22.782,264.37,30.1l2.838,11.105a1.022,1.022,0,0,1-.391,1.069,1.058,1.058,0,0,1-1.172.041L256,36.211V8.983a1.007,1.007,0,0,1,.925.576l4.236,10.653,11.427.74a1.015,1.015,0,0,1,.9.72A1,1,0,0,1,273.186,22.782Z" transform="translate(-238.451 -8.983)" fill="#ffda2d"/><path d="M243.057,474.112a1.028,1.028,0,1,1-1.028-1.028A1.018,1.018,0,0,1,243.057,474.112Z" transform="translate(-224.479 -441.269)" fill="#979fef"/><circle cx="1.028" cy="1.028" r="1.028" transform="translate(29.945 23.554) rotate(-72.002)" fill="#737ee6"/><circle cx="1.028" cy="1.028" r="1.028" transform="matrix(0.588, -0.809, 0.809, 0.588, 24.575, 7.029)" fill="#737ee6"/><circle cx="1.028" cy="1.028" r="1.028" transform="matrix(0.809, -0.588, 0.588, 0.809, 7.651, 6.573)" fill="#979fef"/><circle cx="1.028" cy="1.028" r="1.028" transform="translate(2.562 22.236) rotate(-17.998)" fill="#979fef"/><path d="M257.028,474.112A1.018,1.018,0,0,1,256,475.141v-2.057A1.018,1.018,0,0,1,257.028,474.112Z" transform="translate(-238.451 -441.269)" fill="#737ee6"/><path d="M167.162,176.26a1.038,1.038,0,0,0-.9-.72l-3.722-.226-1.378-3.476a1.007,1.007,0,0,0-.925-.576.968.968,0,0,0-.987.576l-1.378,3.476-3.722.226a1.045,1.045,0,0,0-.6,1.83l2.879,2.386-.925,3.6a1.054,1.054,0,0,0,.391,1.09,1.025,1.025,0,0,0,1.152.041l3.188-1.995,3.126,1.995a1.025,1.025,0,0,0,1.152-.041,1.054,1.054,0,0,0,.391-1.09l-.925-3.6,2.859-2.386A1.042,1.042,0,0,0,167.162,176.26Z" transform="translate(-142.683 -160.137)" fill="#ff9100"/><path d="M262.6,177.392l-2.859,2.386.925,3.6a1.054,1.054,0,0,1-.391,1.09,1.025,1.025,0,0,1-1.152.041L256,182.513V171.284a1.007,1.007,0,0,1,.925.576l1.378,3.476,3.722.226a1.035,1.035,0,0,1,.576,1.83Z" transform="translate(-238.451 -160.158)" fill="#ff9100"/></svg>