<svg id="Capa_1" enable-background="new 0 0 512 512" height="512" viewBox="0 0 512 512" width="512" xmlns="http://www.w3.org/2000/svg"><g><path d="m437.469 441.87h-244.099v-32.325h265.673l-12.427 26.511c-1.664 3.548-5.229 5.814-9.147 5.814z" fill="#62dbfb"/><path d="m496.419 409.545h-303.049v-32.325h303.049c4.463 0 8.081 3.618 8.081 8.081v16.163c0 4.463-3.618 8.081-8.081 8.081z" fill="#99e6fc"/><path d="m437.469 377.22h-244.099v-32.325h265.673l-12.427 26.511c-1.664 3.547-5.229 5.814-9.147 5.814z" fill="#62dbfb"/><path d="m496.419 344.894h-303.049v-32.325h303.049c4.463 0 8.081 3.618 8.081 8.081v16.163c0 4.463-3.618 8.081-8.081 8.081z" fill="#99e6fc"/><path d="m437.469 312.569h-244.099v-32.325h265.673l-12.427 26.511c-1.664 3.548-5.229 5.814-9.147 5.814z" fill="#62dbfb"/><path d="m496.419 280.244h-303.049v-32.325h303.049c4.463 0 8.081 3.618 8.081 8.081v16.163c0 4.463-3.618 8.081-8.081 8.081z" fill="#99e6fc"/><circle cx="193.37" cy="256" fill="#dff6fd" r="185.87"/><path d="m307.764 109.498c24.665 31.542 39.368 71.25 39.368 114.394 0 102.653-83.217 185.87-185.87 185.87-43.144 0-82.852-14.704-114.395-39.368 34.02 43.507 86.993 71.475 146.502 71.475 102.653 0 185.87-83.217 185.87-185.87.001-59.508-27.968-112.481-71.475-146.501z" fill="#c8effe"/><circle cx="193.37" cy="256" fill="#99e6fc" r="121.219"/><path d="m455.976 174.453 8.586-4.04c4.64-2.184 4.64-8.784 0-10.968l-8.586-4.04c-1.388-.653-2.477-1.809-3.047-3.233l-5.432-13.581c-2.032-5.08-9.223-5.08-11.255 0l-5.432 13.581c-.57 1.424-1.659 2.58-3.047 3.233l-8.586 4.04c-4.64 2.184-4.64 8.784 0 10.968l8.586 4.04c1.388.653 2.477 1.809 3.047 3.233l5.432 13.581c2.032 5.08 9.223 5.08 11.255 0l5.432-13.581c.57-1.425 1.659-2.58 3.047-3.233z" fill="#ffe177"/><path d="m47.779 378.025 8.586-4.04c4.64-2.184 4.64-8.784 0-10.968l-8.586-4.04c-1.388-.653-2.477-1.809-3.047-3.233l-5.432-13.581c-2.032-5.08-9.223-5.08-11.255 0l-5.432 13.581c-.57 1.424-1.659 2.58-3.047 3.233l-8.586 4.04c-4.64 2.184-4.64 8.784 0 10.968l8.586 4.04c1.388.653 2.477 1.809 3.047 3.233l5.432 13.581c2.032 5.08 9.223 5.08 11.255 0l5.432-13.581c.57-1.425 1.658-2.58 3.047-3.233z" fill="#ffe177"/><g><path d="m496.42 287.74c8.591 0 15.58-6.989 15.58-15.58v-16.16c0-8.591-6.989-15.58-15.58-15.58h-42.03c-4.142 0-7.5 3.357-7.5 7.5s3.358 7.5 7.5 7.5h42.03c.32 0 .58.26.58.58v16.16c0 .325-.255.58-.58.58h-110.413c.476-5.519.733-11.1.733-16.74 0-.194-.008-.386-.009-.58h32.659c4.142 0 7.5-3.357 7.5-7.5s-3.358-7.5-7.5-7.5h-33.295c-4.739-59.163-36.281-112.922-86.437-145.991-3.458-2.279-8.11-1.325-10.39 2.134-2.28 3.458-1.325 8.109 2.133 10.39 50.306 33.167 80.339 88.886 80.339 149.047 0 98.354-80.017 178.37-178.37 178.37-49.439 0-96.318-20.397-130.01-56.253 2.521-2.491 3.984-5.904 3.984-9.616 0-5.309-2.983-10.011-7.787-12.271l-8.072-3.799-5.222-13.056c-2.072-5.178-7.014-8.523-12.592-8.523-.727 0-1.441.06-2.141.17-10.822-23.345-16.53-49.112-16.53-75.022 0-98.354 80.017-178.37 178.37-178.37 23.711 0 46.717 4.57 68.378 13.585 3.825 1.591 8.214-.219 9.806-4.043s-.219-8.215-4.043-9.807c-23.497-9.777-48.442-14.735-74.141-14.735-106.624 0-193.37 86.745-193.37 193.37 0 29.765 6.95 59.363 20.091 85.853l-4.232 10.579-8.072 3.799c-4.803 2.259-7.787 6.961-7.787 12.27 0 5.308 2.984 10.01 7.787 12.27l8.072 3.799 5.223 13.055c2.071 5.178 7.013 8.524 12.59 8.524h.001c5.577 0 10.519-3.346 12.591-8.524l4.442-11.105c36.638 40.026 88.216 62.851 142.665 62.851h244.099c6.797 0 13.052-3.977 15.938-10.131l10.406-22.199h32.607c8.591 0 15.58-6.989 15.58-15.58v-16.161c0-8.591-6.989-15.58-15.58-15.58h-40.731l8.121-17.325h32.608c8.592 0 15.582-6.989 15.582-15.581v-16.164c0-8.592-6.99-15.581-15.582-15.581h-40.729l8.123-17.329zm-451.835 83.498c-3.116 1.467-5.536 4.035-6.817 7.234l-4.096 10.24-4.097-10.242c-1.28-3.197-3.7-5.767-6.816-7.232l-5.818-2.738 5.818-2.737c3.116-1.467 5.537-4.036 6.816-7.234l4.097-10.24 4.096 10.24c1.279 3.198 3.7 5.768 6.817 7.234l5.818 2.738zm452.415 14.062v16.16c0 .325-.255.58-.58.58h-99.68c-4.142 0-7.5 3.357-7.5 7.5s3.358 7.5 7.5 7.5h50.506l-7.421 15.832c-.426.91-1.351 1.498-2.355 1.498h-169.44c11.342-4.765 22.133-10.585 32.259-17.33h61.453c4.142 0 7.5-3.357 7.5-7.5s-3.358-7.5-7.5-7.5h-41.759c6.214-5.395 12.074-11.186 17.557-17.32h158.88c.32 0 .58.259.58.58zm-57.173-17.082c-.428.912-1.355 1.502-2.361 1.502h-87.802c4.057-5.561 7.834-11.339 11.291-17.325h86.29zm57.173-47.568v16.163c0 .32-.261.581-.582.581h-127.67c2.625-5.634 4.986-11.414 7.068-17.325h120.602c.321 0 .582.261.582.581zm-57.173-17.083c-.428.912-1.355 1.502-2.361 1.502h-57.041c1.491-5.679 2.723-11.461 3.696-17.329h63.125z"/><path d="m64.65 256c0 70.977 57.744 128.72 128.72 128.72s128.719-57.743 128.719-128.72-57.743-128.72-128.719-128.72-128.72 57.743-128.72 128.72zm242.439 0c0 62.705-51.014 113.72-113.719 113.72s-113.72-51.015-113.72-113.72 51.015-113.72 113.72-113.72 113.719 51.015 113.719 113.72z"/><path d="m415.984 177.198 8.073 3.8 5.222 13.054c2.071 5.179 7.013 8.524 12.59 8.524h.001c5.577 0 10.52-3.346 12.591-8.524l5.221-13.054 8.073-3.8c4.803-2.26 7.787-6.962 7.787-12.271 0-5.308-2.983-10.01-7.787-12.27l-8.072-3.799-5.222-13.055c-2.071-5.178-7.014-8.524-12.592-8.523-5.577 0-10.519 3.346-12.59 8.523l-5.223 13.055-8.072 3.799c-4.803 2.26-7.787 6.962-7.787 12.27.001 5.309 2.984 10.011 7.787 12.271zm14.974-15.008c3.116-1.467 5.537-4.036 6.816-7.233l4.097-10.24 4.096 10.239c1.279 3.198 3.7 5.768 6.817 7.234l5.818 2.738-5.819 2.738c-3.116 1.467-5.537 4.035-6.816 7.233l-4.096 10.24-4.097-10.242c-1.279-3.196-3.7-5.765-6.815-7.231l-5.819-2.738z"/></g></g></svg>