<svg xmlns="http://www.w3.org/2000/svg" xmlns:xlink="http://www.w3.org/1999/xlink" width="36.451" height="38.576" viewBox="0 0 36.451 38.576"><defs><filter id="a" x="0" y="10.406" width="36.451" height="28.17" filterUnits="userSpaceOnUse"><feOffset dy="3" input="SourceAlpha"/><feGaussianBlur stdDeviation="3" result="b"/><feFlood flood-opacity="0.161"/><feComposite operator="in" in2="b"/><feComposite in="SourceGraphic"/></filter><filter id="c" x="0" y="0" width="36.451" height="28.17" filterUnits="userSpaceOnUse"><feOffset dy="3" input="SourceAlpha"/><feGaussianBlur stdDeviation="3" result="d"/><feFlood flood-opacity="0.161"/><feComposite operator="in" in2="d"/><feComposite in="SourceGraphic"/></filter></defs><g transform="translate(27.451 6) rotate(90)"><g transform="translate(10.406)"><g transform="matrix(0, -1, 1, 0, -16.41, 27.45)" filter="url(#a)"><path d="M282.91,47.771l-8.281-8.281a.944.944,0,0,0-1.336,1.336l7.613,7.613-7.613,7.613a.944.944,0,1,0,1.336,1.336l8.281-8.281A.944.944,0,0,0,282.91,47.771Z" transform="translate(66.66 -256.61) rotate(90)" fill="#f0a9b9"/></g></g><g transform="matrix(0, -1, 1, 0, -6, 27.45)" filter="url(#c)"><path d="M9.893,47.771,1.612,39.49A.944.944,0,0,0,.276,40.826l7.613,7.613L.277,56.052a.944.944,0,1,0,1.336,1.336l8.281-8.281A.944.944,0,0,0,9.893,47.771Z" transform="translate(66.66 6) rotate(90)" fill="#f0a9b9"/></g></g></svg>