<svg enable-background="new 0 0 512 512" height="512" viewBox="0 0 512 512" width="512" xmlns="http://www.w3.org/2000/svg"><g id="_x30_6_x2C__Field_x2C__grass_x2C__lawn_x2C__meadow_x2C__plant"><g id="XMLID_27467_"><g id="XMLID_27692_"><path id="XMLID_27718_" d="m345.36 158.52c-.69 1.48-46.78 99.98-43.49 224.63l12.72 95.35h-89.64l-8.72-73.76c29.74-140.96 127.9-244.93 129.13-246.22z" fill="#59c36a"/><path id="XMLID_27717_" d="m216.23 404.74c5.71 23.21 9.03 47.93 8.72 73.76h-62.61l-20.82-103.66c-.67-91.37-34.64-157.41-35.29-158.69 1.52 1.43 82.83 78.02 110 188.59z" fill="#97de3d"/><path id="XMLID_27716_" d="m141.52 374.84c12.53 30.53 21.27 65.61 20.82 103.66h-57.9l-13.73-73.74c3.38-85.47-29.49-148.21-29.97-149.14.88.81 51.3 47.41 80.78 119.22z" fill="#59c36a"/><path id="XMLID_27715_" d="m90.71 404.76c8.4 21.93 14.05 46.8 13.73 73.74h-64.63c27.5-93-13.19-169.01-13.8-170.15.89.79 42.44 38.29 64.7 96.41z" fill="#97de3d"/><path id="XMLID_27714_" d="m405.78 216.14c-.53 1.04-34.64 67.15-35.3 158.7l14.41 103.66h-70.3c-8.14-32.66-11.91-64.79-12.72-95.35h.01c31.6-99.05 102.79-165.97 103.9-167.01z" fill="#97de3d"/><path id="XMLID_27713_" d="m227.72 126.78c7.24 7.24 17.24 11.72 28.28 11.72-11.04 0-21.04 4.48-28.28 11.72s-11.72 17.24-11.72 28.28c0-22.09-17.91-40-40-40 11.04 0 21.04-4.48 28.28-11.72s11.72-17.24 11.72-28.28c0 11.04 4.48 21.04 11.72 28.28z" fill="#fee46f"/><g fill="#fd697f"><path id="XMLID_27712_" d="m66 108.5c11.05 0 20 8.95 20 20s-8.95 20-20 20-20-8.95-20-20 8.95-20 20-20z"/><circle id="XMLID_27711_" cx="436" cy="68.5" r="30"/><path id="XMLID_27708_" d="m456 168.5c5.52 0 10 4.48 10 10s-4.48 10-10 10-10-4.48-10-10 4.48-10 10-10z"/><path id="XMLID_27705_" d="m346 48.5c5.52 0 10 4.48 10 10s-4.48 10-10 10-10-4.48-10-10 4.48-10 10-10z"/><path id="XMLID_27702_" d="m206 228.5c5.52 0 10 4.48 10 10s-4.48 10-10 10-10-4.48-10-10 4.48-10 10-10z"/><path id="XMLID_27699_" d="m156 28.5c5.52 0 10 4.48 10 10s-4.48 10-10 10-10-4.48-10-10 4.48-10 10-10z"/><path id="XMLID_27696_" d="m36 198.5c5.52 0 10 4.48 10 10s-4.48 10-10 10-10-4.48-10-10 4.48-10 10-10z"/></g><path id="XMLID_27695_" d="m451.26 255.62c-.48.93-33.36 63.67-29.98 149.16l12.1 73.72h-48.49c-10.8-36.53-14.65-71.65-14.41-103.66 29.49-71.84 79.94-118.45 80.78-119.22z" fill="#59c36a"/><path id="XMLID_27694_" d="m472.19 478.5h-38.81c-7.61-25.73-11.19-50.56-12.1-73.72h.01c22.2-58 63.63-95.47 64.69-96.41-.94 1.76-41.18 77.52-13.79 170.13z" fill="#97de3d"/><path id="XMLID_27693_" d="m486 483.5h-460c-2.762 0-5-2.239-5-5s2.238-5 5-5h460c2.762 0 5 2.239 5 5s-2.238 5-5 5z" fill="#c9885b"/></g></g></g></svg>