<svg id="Capa_1" enable-background="new 0 0 512 512" height="512" viewBox="0 0 512 512" width="512" xmlns="http://www.w3.org/2000/svg"><g><circle cx="448.594" cy="267.617" fill="#3692bc" r="39.606"/><path d="m448.1 342.375c-2.467-1.062-4.982 8.269-7.542 7.393-2.56-.875-5.163-11.957-7.807-12.637-8.44-2.172-17.287-3.326-26.404-3.326h-55.193c-9.255 0-18.232 1.19-26.786 3.425-2.942.769-5.834 11.963-8.67 12.973-2.132.759-4.232-8.717-6.297-7.827-37.586 16.187-63.9 53.561-63.9 97.082v15.494l42.257 48.949h181.985l42.257-48.951v-15.494c0-43.52-26.314-80.895-63.9-97.081z" fill="#62dbfb"/><path d="m448.1 342.375c-3.827-1.648-7.771 4.135-11.816 2.942-1.044-.308-2.094-7.811-3.151-8.087-8.554-2.235-17.531-3.426-26.786-3.426h-23.694c58.35 0 105.653 47.303 105.653 105.653v23.841l23.694-8.348v-15.494c0-43.52-26.314-80.895-63.9-97.081z" fill="#01c0fa"/><path d="m282.607 454.95h-37.106v40.82c0 4.49 3.64 8.129 8.129 8.129h34.128v-43.798c0-2.844-2.306-5.151-5.151-5.151z" fill="#d8ecfe"/><path d="m512 454.95h-37.106c-2.845 0-5.151 2.306-5.151 5.151v43.799h34.128c4.49 0 8.129-3.64 8.129-8.129z" fill="#d8ecfe"/><path d="m512 495.77v-40.82h-23.694v40.82c0 4.49-3.64 8.129-8.129 8.129h23.694c4.489.001 8.129-3.639 8.129-8.129z" fill="#b3dafe"/><path d="m348.534 272.049v64.373c0 16.688 13.529 30.217 30.217 30.217s30.217-13.529 30.217-30.217v-64.373z" fill="#ffb09e"/><path d="m368.679 68.813h20.143c51.74 0 93.684 41.944 93.684 93.684v54.933h-207.511v-54.933c0-51.74 41.944-93.684 93.684-93.684z" fill="#3692bc"/><path d="m492.362 223.443c.42 11.821-9.032 21.542-20.767 21.542h-15.061c-3.294 0-6.136 2.282-6.858 5.501-3.66 16.213-12.725 30.381-25.213 40.49s-28.389 16.17-45.711 16.17c-34.633 0-63.615-24.234-70.914-56.66-.721-3.219-3.563-5.501-6.858-5.501h-15.072c-11.724 0-21.187-9.722-20.767-21.542.409-11.261 10.001-20.014 21.262-20.014h19.648v-24.588c0-9.249 6.948-16.944 16.127-18.077 29.748-3.671 58.747-13.516 84.536-28.793 4.629-2.742 9.882-4.258 15.263-4.258 16.285 0 29.487 13.202 29.487 29.487v46.229h19.637c11.27 0 20.862 8.753 21.261 20.014z" fill="#ffcebf"/><path d="m51.55 11.859v65.676h37.69v-65.676c0-2.076-1.683-3.758-3.758-3.758h-30.174c-2.075-.001-3.758 1.682-3.758 3.758z" fill="#62dbfb"/><path d="m216.894 256.248-88.108 10.302-88.107-10.302v-163.547l88.107-43.28 88.108 43.28z" fill="#d8ecfe"/><path d="m188.049 78.531v177.717h28.845v-163.547z" fill="#b3dafe"/><path d="m107.423 168.031h42.726c2.915 0 5.278 2.363 5.278 5.278v82.938l-26.641 10.302-26.641-10.302v-82.938c0-2.915 2.363-5.278 5.278-5.278z" fill="#3692bc"/><path d="m232.077 256.248h-206.582c-4.044 0-7.322 3.278-7.322 7.322v25.797c0 4.044 3.278 7.322 7.322 7.322h206.582c4.044 0 7.322-3.278 7.322-7.322v-25.797c0-4.044-3.278-7.322-7.322-7.322z" fill="#ae6c6c"/><path d="m232.077 256.248h-28.845c4.044 0 7.322 3.278 7.322 7.322v25.797c0 4.044-3.278 7.322-7.322 7.322h28.845c4.044 0 7.322-3.278 7.322-7.322v-25.797c0-4.044-3.278-7.322-7.322-7.322z" fill="#9b5e5e"/><path d="m240.669 116.561c-2.328 0-4.691-.483-6.95-1.505l-102.758-46.47c-1.382-.625-2.967-.625-4.35 0l-102.759 46.47c-8.498 3.846-18.505.07-22.349-8.429s-.07-18.505 8.43-22.348l111.893-50.602c4.423-2.002 9.495-2.002 13.919 0l111.892 50.602c8.499 3.843 12.273 13.849 8.43 22.348-2.821 6.24-8.967 9.933-15.398 9.934z" fill="#fd9468"/><path d="m132.661 468.526c-2.226 1.922-5.524 1.922-7.749 0l-55.164-47.626c-15.898-13.719-17.658-37.732-3.936-53.63 13.724-15.898 37.732-17.655 53.63-3.931l5.471 4.722c2.225 1.921 5.522 1.921 7.748 0l5.471-4.722c15.89-13.729 39.903-11.962 53.63 3.931 13.722 15.898 11.962 39.91-3.936 53.63z" fill="#fe93bb"/><path d="m191.761 367.27c-10.665-12.347-27.536-16.163-41.985-10.816 5.842 2.154 11.238 5.77 15.595 10.816 13.722 15.898 11.962 39.91-3.936 53.63l-45.843 39.579 9.32 8.047c2.226 1.922 5.524 1.922 7.749 0l55.164-47.626c15.898-13.719 17.658-37.732 3.936-53.63z" fill="#fe76a8"/><g fill="#ae6c6c"><path d="m348.522 214.56c-4.267 0-7.726-3.459-7.726-7.726v-4.114c0-4.268 3.459-7.726 7.726-7.726s7.726 3.459 7.726 7.726v4.114c0 4.268-3.459 7.726-7.726 7.726z"/><path d="m408.987 214.56c-4.267 0-7.726-3.459-7.726-7.726v-4.114c0-4.268 3.459-7.726 7.726-7.726s7.726 3.459 7.726 7.726v4.114c.001 4.268-3.458 7.726-7.726 7.726z"/></g><path d="m309.404 342.381c4.149 30.097 25.494 58.257 64.928 85.75 1.328.926 2.873 1.388 4.419 1.388 1.545 0 3.092-.463 4.419-1.388 39.434-27.493 60.779-55.653 64.928-85.75-4.815-2.073-9.813-3.801-14.965-5.147-2.353 25.653-20.212 50.308-54.382 75.08-34.17-24.773-52.028-49.428-54.381-75.081-5.154 1.347-10.152 3.074-14.966 5.148z" fill="#3692bc"/><path d="m448.1 342.38c-.56 4.07-1.44 8.11-2.64 12.11-4.33-3.2-8.91-6.09-13.72-8.61.66-2.87 1.13-5.76 1.39-8.65 5.03 1.32 9.9 2.99 14.61 5h.01c.12.05.23.1.35.15z" fill="#0681af"/><path d="m378.75 267.701c-6.843 0-13.684-1.873-20.338-5.622-3.718-2.094-5.034-6.806-2.94-10.523s6.805-5.036 10.524-2.94c8.7 4.9 16.806 4.9 25.507 0 3.719-2.097 8.43-.778 10.524 2.94s.778 8.43-2.94 10.523c-6.65 3.748-13.495 5.622-20.337 5.622z" fill="#ae6c6c"/><path d="m358.219 424.021v41.413c0 3.245 2.631 5.876 5.876 5.876h29.311c3.245 0 5.876-2.631 5.876-5.876v-41.413c0-3.245-2.631-5.876-5.876-5.876h-29.311c-3.245-.001-5.876 2.63-5.876 5.876z" fill="#d8ecfe"/></g></svg>