<svg id="Capa_1" enable-background="new 0 0 512 512" height="512" viewBox="0 0 512 512" width="512" xmlns="http://www.w3.org/2000/svg"><g><g><path d="m63.028 476.468c-4.287 0-7.762-3.475-7.762-7.762v-302.781c0-4.287 3.475-7.762 7.762-7.762s7.762 3.475 7.762 7.762v302.781c0 4.287-3.475 7.762-7.762 7.762z" fill="#8c808a"/><path d="m98.489 278.585c-4.287 0-7.762-3.475-7.762-7.762v-104.898c0-4.287 3.475-7.762 7.762-7.762s7.762 3.475 7.762 7.762v104.899c0 4.286-3.475 7.761-7.762 7.761z" fill="#ff656b"/><path d="m226.32 54.533h187.238v122.613h-187.238z" fill="#ffe9c8"/><path d="m413.558 140.72-34.099-37.511c-5.593-6.213-15.336-6.213-20.929 0l-46.637 51.803 19.629 21.803 82.036.331z" fill="#009e65"/><path d="m360.83 103.209 52.728 55.072v-17.56l-34.1-37.511c-5.227-5.806-14.077-6.183-19.778-1.136.399.352.785.729 1.15 1.135z" fill="#008954"/><path d="m331.522 176.815-50.432-56.018c-5.026-5.583-13.782-5.583-18.808 0l-35.962 39.946v16.403z" fill="#00e0a7"/><path d="m281.09 120.797c-4.998-5.551-13.678-5.577-18.718-.09.029.032.061.058.09.09l50.432 56.018-86.573.272v.059l105.202-.331z" fill="#00c988"/><path d="m105.208 487.361h-84.36v-1.166c0-14.803 12-26.803 26.803-26.803h30.754c14.803 0 26.803 12 26.803 26.803z" fill="#ff656b"/><path d="m78.405 459.391h-18.628c14.803 0 26.803 12 26.803 26.803v1.167h18.628v-1.167c0-14.803-12-26.803-26.803-26.803z" fill="#ff3e4c"/><ellipse cx="311.893" cy="92.683" fill="#ffdc00" rx="14.157" ry="14.157" transform="matrix(.993 -.122 .122 .993 -8.988 38.803)"/><path d="m438.453 24.639h-237.027c-1.381 0-2.63.56-3.535 1.465l28.429 28.429h5 177.238 5l28.429-28.429c-.904-.905-2.154-1.465-3.534-1.465z" fill="#e8834d"/><path d="m441.987 205.574-28.429-28.429h-5-177.238-5l-28.429 28.429c.905.905 2.155 1.465 3.535 1.465h237.025c1.382 0 2.632-.56 3.536-1.465z" fill="#e8834d"/><path d="m226.32 177.145v-5-112.612-5l-28.429-28.429c-.905.905-1.465 2.155-1.465 3.535v172.4c0 1.381.56 2.631 1.465 3.535z" fill="#bc6640"/><path d="m413.558 59.533v112.613 5l28.429 28.429c.905-.905 1.464-2.155 1.464-3.535v-172.4c0-1.381-.56-2.631-1.464-3.535l-28.429 28.429z" fill="#bc6640"/><path d="m120.88 175.239h-115.703c-3.323 0-5.785-3.088-5.044-6.328l24.852-108.708c.538-2.353 2.631-4.021 5.044-4.021h65.997c2.414 0 4.507 1.669 5.044 4.021l24.853 108.708c.742 3.239-1.72 6.328-5.043 6.328z" fill="#ffe9c8"/><path d="m96.027 56.181h-14.503l27.219 119.057h12.137c3.323 0 5.785-3.088 5.044-6.328l-24.853-108.707c-.538-2.353-2.631-4.022-5.044-4.022z" fill="#ffdca7"/><path d="m188.177 413.403h263.525v73.958h-263.525z" fill="#bc6640"/><path d="m433.074 413.403h18.628v73.958h-18.628z" fill="#a05638"/><path d="m188.177 487.361h-55.124c-2.858 0-5.175-2.317-5.175-5.174v-105.373c0-16.651 13.498-30.149 30.149-30.149 16.651 0 30.149 13.498 30.149 30.149v110.547z" fill="#ff9a00"/><path d="m158.028 346.665c-3.251 0-6.38.521-9.314 1.474 12.091 3.925 20.835 15.276 20.835 28.676v110.547h18.628v-110.548c0-16.65-13.498-30.149-30.149-30.149z" fill="#ef8800"/><path d="m506.826 487.361h-55.124v-110.547c0-16.651 13.498-30.149 30.149-30.149 16.651 0 30.149 13.498 30.149 30.149v105.372c0 2.858-2.317 5.175-5.174 5.175z" fill="#ff9a00"/><path d="m481.851 346.665c-3.252 0-6.38.521-9.314 1.474 12.091 3.925 20.835 15.276 20.835 28.676v110.547h13.454c2.858 0 5.174-2.317 5.174-5.174v-105.374c0-16.65-13.498-30.149-30.149-30.149z" fill="#ef8800"/><path d="m188.177 376.814v36.588h263.525v-36.588c0-16.651 13.498-30.149 30.149-30.149v-35.394c0-22.27-18.054-40.324-40.324-40.324h-243.175c-22.27 0-40.324 18.054-40.324 40.324v35.394c16.651 0 30.149 13.499 30.149 30.149z" fill="#e8834d"/><path d="m441.527 270.948h-18.628c22.27 0 40.324 18.053 40.324 40.324v16.447c0 2.079-1.257 3.929-3.161 4.762-17.068 7.456-26.988 22.873-26.988 35.02v45.902h18.628v-36.588c0-16.651 13.498-30.149 30.149-30.149v-35.394c0-22.271-18.054-40.324-40.324-40.324z" fill="#d66e41"/></g></g></svg>