<?xml version="1.0" encoding="UTF-8"?><svg id="_レイヤー_2" xmlns="http://www.w3.org/2000/svg" viewBox="0 0 521.67188 380.18692"><defs><style>.cls-1{fill:#231f20;stroke-width:0px;}</style></defs><g id="Warstwa_1"><path class="cls-1" d="m521.51363,378.03712c-.241-.5104-1.2086-.6778-1.8453-1.0013-1.8015-.1316-4.3235,1.7611-4.8573-1.9173-.1352-.9313-1.5077-.5797-2.3229-.7984-3.1185-.8362-6.4854-.3994-9.4798-1.8574-.7404.0009-1.481.0018-2.2213.0028-4.3689,1.3374-8.83949,1.2903-13.3297.9799-1.4835.3764-2.9627.2526-4.4406-.0382-1.85219-.0017-3.70419-.0034-5.5563-.005-2.5921.1546-5.1846.309-7.7767.4636-7.0517,1.2212-14.05319-.4458-21.085-.3659-1.1257.3698-2.2388.2611-3.3463-.0843-3.7086-.1817-7.3571-1.4717-11.1226-.6007-4.7265.6226-9.4688.5216-14.2134.3062-5.4497.3924-10.8696-.304-16.3042-.4546-.7985-.022-1.3341-.419-1.33669-1.3075-.17411-1.6506-.52021-3.304-.495-4.9516.21629-14.2106.298-28.3983-.42241-42.621-.3781-7.4623,1.53941-15.0268,2.2407-22.5618.7706-8.2767,1.4832-16.5647,1.93371-24.8631.265-4.8821-.99641-6.0423-5.71181-5.5652-7.9715.8065-15.8645-.4892-23.8005-.5869-29.7826-.3665-59.5654-.5422-89.3423.1652-6.4599.1533-12.9155.8445-19.3941.8259-2.7648-.0078-5.5567.3579-8.2599-.5736-.9368-.3227-1.951-.3735-2.29739.7151-.43051,1.3526.60269,2.1135,1.693,2.3556,1.59829.355,3.11269.9756,4.86559.8685,9.7805-.5962,19.5685-1.0803,29.357-1.5367,3.50741-.1636,7.03241-.0061,10.5343-.2306,18.10211-1.16,36.2026-.8357,54.30311-.0528,5.53969.2394,11.07319.6258,16.60949.9448,7.1133.9838,14.2908.4509,21.4336.826,2.5773.1354,3.21,1.1867,3.1568,3.2652-.1364,5.3345-.3264,10.6678-.5362,15.9999-.0863,2.1872-.5859,4.3895.41931,6.502-1.49511,23.8204-.21091,47.6719-1.29871,72.3239-16.0249,0-32.5715-.3324-49.0987.0934-16.4638.4246-32.8984-.0503-49.3444-.3747-.6386.0097-1.2783.0114-1.9188.0083.6405.0031,1.2801.0014,1.91861-.0083-4.90361-1.3303-9.93341-.7983-14.90231-.8717-6.6493-.0981-13.3043.1782-19.9566.3107-1.7163.0342-3.578.1558-3.5774-2.263.0012-6.6444-1.3589-13.1846-1.6499-20.0598,16.58321-1.393,32.9058-3.4477,49.3756-3.4776,9.4345-.0171,18.8695.1091,28.3043.1708.5051.2049,1.0089.5849,1.5156.5889,12.9073.1007,25.815.1669,38.72271.2181.79119.0031,1.39569-.3456,1.23449-1.4763-.3792-.1889-.83549-.6142-1.2924-.6144-11.2432-.0069-22.4862.0313-33.7292.0612-24.326-.2588-48.6677-1.3638-72.9228,1.7049-3.27409.4142-6.6403.0418-9.9517.2382-2.5555.1513-2.44439-1.5396-2.5738-3.1835.3957-2.7585-.1401-5.4609-.391-8.1949-.9012-9.825-2.2805-19.6293-1.64159-29.5413-.77231-.0355-1.54481-.0711-2.31731-.1068-.1979.2989-.5859.611-.5662.8947.6348,9.1163,1.0422,18.2615,2.1229,27.3262.3761,3.1543-.2131,6.6454,1.7892,9.5461.25741,1.5132-1.1971,3.1646-.7915,4.1138,3.2745,7.6605,2.6791,15.7617,3.14491,23.745l-.04791.0819c-1.1962.2596-2.3926.5196-3.5889.7794-.6545.0326-1.30919.065-1.9638.0975-.4112-.3459-.8085-.3209-1.1932.0447h-.00019c-6.08611-.0314-12.17251-.1205-18.25771-.0684-2.8319.0243-4.0727-1.0706-3.71929-3.9848,2.15789-17.8064-.31181-35.704,1.02509-53.5342.4691-6.2578-.0229-12.5292-.5854-18.7688-1.3613-15.0998-.1024-30.1702.3526-45.2511.0611-2.0196-.0542-4.0447-.0878-6.0672l.0002.0001c.1787-.6321.0567-1.1736-.4794-1.5903-.0217-8.5767-.04329-17.1533-.0651-25.7298,5.9776-1.8065,12.01581-.8805,18.0692-.5268,14.5773.8524,29.1643,1.5371,43.7474,2.2893,3.1898.0562,6.4426-.5855,9.50821.8561,2.10619-1.061,4.01759.4297,6.04019.4591.4003-.1246.80081-.2491,1.2013-.3734,8.0877.1822,16.1751.4913,24.2632.5192,15.043.0523,30.0896-.2364,45.128.015,4.02631.0672,8.0724.1972,12.1105.289,1.6255.037,3.3446-.0582,4.60981,1.3214.70029-.9122,1.62979-.5022,2.50019-.4329,4.7823-1.0172,9.6067-1.6152,14.5059-1.4038,1.0341.0446,2.2055-.2927,2.9357.8452-.0074-.4387.20721-.6376.644-.5968,5.1514-.59,10.3027-1.1799,15.454-1.7699l.3334.0591c.8451-.9645,1.69181-.9603,2.5404-.0044l.401.0382c2.0819.1032,3.6906.5136,2.5018,3.2257-.3561.8125-.3681,1.776-.5378,2.6701.41741,19.4099,1.2511,38.8041.5096,58.2397-.42919,11.2478.1757,22.5385.4352,33.8072.077,3.341.0815,6.6505-.4853,9.947.5901,1.0515.5943,2.1593.3163,3.2941.85261,10.3623,2.4328,20.6884,1.5482,31.1369.4887,1.7637-.074,3.4736-.244,5.2075-.1699,1.7319.5753,2.6701,2.4229,2.4821.2491-1.8781.1176-3.8537,1.4017-5.4663.2086-8.6578-.2997-17.311-.3764-25.9659-.0417-4.687,1.7307-7.192,5.5155-8.9649.9913-.4642,2.0735-.7339,3.1139-1.0928.40981-1.001,1.0973-2.3129,2.1587-1.4207.9978.8389-.5598,1.6338-1.01489,2.4385-.638,1.2277-1.27651,2.4551-1.91511,3.6827-1.5074,2.0639-3.50489,3.9182-3.2584,7.5008,2.659-1.7368,3.672-3.9076,4.69551-6.0703-.441-.0958-.75581-.3183-.99471-.6174.2389.2991.55371.5216.9949.6174,1.3709-1.7134,2.7514-3.4193,4.1089-5.1433.9082-1.1535,1.8897-2.2929,2.1691-3.7845.1711-.9135.04081-1.8668-.5796-2.6145-.83359-1.0046-1.6663-.1835-2.4391.1447-2.3622,1.0037-4.7291,1.9725-6.85749,3.4829-1.41651,1.0053-3.06061,1.6899-4.90911,2.1209,5.4103-7.4058,10.9615-14.5469,17.2202-21.1127,2.6556,1.255,3.0448,3.9927,3.9591,6.3037,1.5055,3.8049,2.02681,7.5101-2.1696,10.2217-1.7424,1.126-1.4313,2.3201-.3588,4.1035,2.3849,3.9663,3.2836,7.8765,1.1705,12.8299-1.599,3.748-3.8292,6.4855-6.46829,9.2123-4.04251,4.1774-7.98491,8.4263-10.19151,13.9446,2.0769-.7544,2.7272-3.7213,5.0698-3.7229,2.4934-.0017,3.8818-1.6373,5.6439-2.787.6792-1.6287,1.9104-2.808,3.2045-3.9372.857-1.8125,1.6422-3.6621,2.5848-5.4277,3.5202-6.5947,4.5643-13.3985,1.91251-20.5571-2.73751-2.7503.94009-3.2364,1.67929-4.7597,2.80871-6.3515-.6322-11.3256-3.6144-16.4008-.3294.0562-.67889.0621-1.0147.1022.33581-.0401.6853-.046,1.0145-.1022-.1941-.7372-.3885-1.4744-.58269-2.2115-.269-.3512-.53831-.7022-.80751-1.0533.24451-3.0945,2.8578-3.8029,5.0057-4.9771-.0056-.0025.1926-.1486.1926-.1486.3933-1.2116,1.3707-1.8184,2.4249-2.3466.9774-1.7016.8101-3.3345-.2893-4.9125-.8051-.4088-1.7059-.6967-2.39839-1.247-3.413-2.7118-3.42221-3.1073-.56431-7.0353,2.8548-2.8564,5.8388-5.596,8.5281-8.5995,2.6933-3.008,5.2067-6.2389,3.8675-10.7668-.019-.6826-.0382-1.3654-.0572-2.0481-.7934-.5641-1.5867-1.1282-2.3798-1.6922-.9271-.0136-1.8538-.0272-2.7805-.0407-.539.9326-.5151,1.6908.7715,1.7186,1.5594.0337,2.5658.8736,3.4274,2.0222.0981,3.9408-1.5823,7.1493-4.2918,9.8195-2.8734,2.8313-5.8962,5.5109-8.85389,8.2566-.36411.2764-.90681.8667-1.06261.7777-.9012-.5136-.1967-1.0632.10161-1.5898.54689-4.3354-1.63231-7.3435-4.68111-10.0527-2.83289-2.5176-2.7035-3.3465.8163-4.8219,2.5342-1.0621,5.268-1.6399,7.8416-2.6201,1.9117-.7283,3.4169-2.0068,1.5947-4.1348-1.68149-1.9634.6501-2.9166.8207-4.386.1815-.1914.4031-.2699.6644-.2354.05441-1.3027.1091-2.6056.1635-3.9086-1.8902-.1864-3.7802-.373-5.8584-.578.2899-2.838,2.726-4.2594,3.70331-6.4835-.08821-1.7682.60719-3.7223-1.20541-5.0814-1.7378-.9661-3.9128-.9579-5.3583-2.6297-1.5828-1.831-2.4847-.8248-3.7734.7254-1.9465,2.3412-1.3117,5.1368-1.44089,7.5499-.09261,1.7271,2.90609-.2687,4.23549.8215.1264.1038-.0706.6015-.1171.9162q-4.0918,2.2365-2.1745,5.3494c.8108.7454,1.6217,1.4908,2.4324,2.236,1.989,2.4982,5.26571,3.8971,6.4123,7.2205-2.8484,2.2116-6.3171,2.0868-9.29859,3.3308-3.61461,1.508-3.77461,1.7067-3.53371,6.1133,1.1356.8674,2.2884,1.7137,3.4042,2.6063,3.6093,2.889,4.0969,4.6353,2.637,9.2913-.0029.4213-.00549.8438-.0083,1.2661.345.0843.9953.1895.9911.25-.3126,4.5793,2.5618,7.2502,5.7451,9.7608.2414.1901.2921.6217.4554.9964-1.4057,2.2628-3.79679,3.3457-5.9126,4.7392-1.6438,1.0827-2.8839,2.28-2.39319,4.4604-1.80151,1.8918-4.70171,2.6678-5.58141,5.4956.3097.353,1.1415.3933,1.3547.7982-.2132-.4048-1.0448-.4449-1.3545-.7974,0,.0008.006.0103.0065.0106-1.7497-.5528-2.4447,1.5674-3.9756,1.5679-.3733.4803-.9185.7548-1.3919.3718-.5589-.4519-.0433-.9043.2729-1.2972,1.89231-4.5023,5.4247-7.6869,8.80831-10.9973,1.29659-1.2686,2.6-2.5448,3.75149-3.9403.5738-.6948.7891-1.7809.2747-2.5833-.5764-.8992-1.5705-.6309-2.4659-.3435-2.3826.7646-4.56729,2.3846-7.2871,1.7084-.1267-.8537-.1169-1.4392.729-2.2048,2.7867-2.5225,5.334-5.3099,7.973-7.9955.00281-.4223.0054-.8448.0081-1.2672-2.2015.5092-4.6344.0242-6.6028,1.5356l-1.1112-1.1283c1.2295-1.0648,2.4148-2.1864,3.7003-3.1787,1.3821-1.0667,2.1888-2.305,1.9013-4.4998-3.1424.0701-4.7936,3.4624-7.7828,3.2412-.6489-1.7462,1.446-2.0215,1.8488-3.2217.4852-1.4462,1.61011-2.9464-.6647-3.9015-3.04,2.3202-4.1628,6.3502-7.4963,8.4097q-.5117,3.3602,4.619,3.8304c-1.7461,1.5739-3.1224,2.7152-4.3755,3.9787-.813.82-1.145,1.8203-.3478,2.9405,2.566,3.607,2.56,3.6218-.31659,6.2042-.23251.2088-.62111.2438-1.43671.5425-2.437-5.8832.113-11.8605-.3894-17.6828-1.00589-14.5609-.485-29.1316-.1725-43.6959.0901-4.198-1.029-8.4086-.02239-12.728,7.33759.876,14.06289,3.4545,20.95509,5.3692,1.11191.4476,2.2238.8952,3.33591,1.3429.648-.2075,1.20469-.4934,1.13179-1.3193l.005-.0162c.7284-.0178,1.4566-.0357,2.18521-.0535l.00739.2099c.36861-.0469.7373-.0939,1.1059-.1407.0976-1.2399-.0935-2.5958.3491-3.6971,1.104-2.7483-.7436-3.4446-2.588-4.2586-1.4035.1728-2.7948.2875-3.9318-.8219-.9037-.1183-1.8059-.2363-2.7082-.3543-3.0468-.0466-5.6225-1.7866-8.5201-2.3697-7.4761-1.0269-14.3824-4.0345-21.526-6.2127-9.6322-2.9368-19.2364-5.9658-28.878-8.8706-.9621-.29-2.0797-.0634-3.1356-.0411,2.3272,1.3043,4.7757,2.2543,7.2755,3.0554-2.5-.8012-4.9487-1.7511-7.2759-3.0554h.0002c-.0248-.014-.05049-.0261-.0757-.0403l-.0002.0002c-.0244.0002-.0484-.0012-.0728-.001.0225-.7394-1.0144-1.9458.4271-2.0398,1.7896-.1167,3.6237.2691,5.4239.5364,4.0257.5973,8.0013.5836,11.9009-.7422l.0002.0001c1.9816-.3734,3.9672-.7269,5.9426-1.1311.7091-.1452,1.6886-.8202,2.0442-.5624,4.3178,3.1285,7.9679-.0982,11.8384-1.1128.8773-.2299,1.7323-.6331,2.7981-.0924.0856,2.4354-2.0685,2.4759-3.5366,3.2224v.0001c-1.8483.738-3.7137,1.4365-5.5379,2.2298-.9786.4256-2.2315.888-1.9944,2.2263.2076,1.1733,1.3392,1.7128,2.4576,1.7828,1.1086.0695,1.8459-.2026,2.1547-1.7131.5466-2.6706,2.3248-3.1398,4.5671-1.5466-.7883,2.0706-1.2202,4.1691-.6279,6.3784,1.3654.2149,1.0689-.8752,1.1731-1.3922,1.0822-5.3649,3.626-9.4861,9.03511-11.499,1.87079-.6962,3.655-1.7446,4.93839-3.3933.7799-1.0015,1.7834-1.1425,2.9488-.9422,6.30681,1.0837,9.752,1.044,5.988,9.7287.5144.053,1.02881.1061,1.5432.1592,3.0523-1.9401,3.8102-5.7083,6.3921-8.0233,1.8909,1.7563.9492,3.9645.8476,5.9793-.0887,1.7607-.5605,3.5022-.8629,5.2521-.3057,2.5894-.8378,5.0692-3.2159,6.6576.015.7214.0301,1.4427.0456,2.1638,4.5042-1.1242,4.9996-5.0914,5.54-8.5717.9834-6.3334,1.463-12.7471,2.0687-19.1354.1479-1.5597.7889-3.3369-1.0031-4.5109-.5131,1.7555-1.01049,3.5158-1.543,5.2654-.8864,2.9108-1.0072,2.9381-4.6166,1.2571-.4706.4859-.7651,1.185-.6014,1.6292-.1637-.4442.13051-1.1433.6008-1.6291.9891-2.5591,3.1134-5.5841,1.83071-7.7736-1.47611-2.5201-5.05461-.1953-7.653-.7781-.12151-.0272-.19561-.2655-.55651-.7906.8466-2.0306,2.8769-3.3397,4.4038-5.0335.22271-.6888.4455-1.3778.6682-2.0667-.139-1.0797-.339-2.135-1.1749-2.935-.4278.4045-.8978.3125-1.3765.1254-.694.1302-1.3885.3749-2.0816.3711-3.3903-.0184-3.9168-.897-2.5329-4.1904.2008-.4782.5998-.8733.9071-1.3068,1.1269-3.5714,4.1732-6.7291,2.3571-10.9347.0007.0002.3988.2362.3988.2362l.42741-.1809c-1.05681-3.4891,2.06309-4.1363,3.86469-5.6806.7021-.8257,1.3829-1.6709,2.1105-2.4735,4.2381-4.6748,4.2526-6.7214.0581-11.663-1.6798-.6773-2.6569-2.7424-4.8291-2.4458-.5923.0021-1.1845.0044-1.7765.0065,2.0816,1.801,4.2001,3.5612,6.2338,5.415,1.8189,1.6581,1.8317,3.5014.2383,5.3497-1.6757,1.9439-3.1906,3.9913-5.3273,5.5597-1.7222,1.2638-3.673,2.4946-4.4781,4.7096-2.973,1.8472-4.2846,4.8066-5.2289,7.9662-1.1147,3.7299-1.1152,3.7625-4.5089,1.7061-.46-.2788-.88359-.6172-1.324-.9281-.025.5882.0552,1.1431.2192,1.6714-.164-.5283-.2442-1.0832-.2194-1.6714-.3193-1.3732-1.398-2.1494-2.4536-2.8366-1.0191-.6632-.814-1.4613-.6237-2.3456-.3852-.1377-.6822-.1676-.9172-.1216.235-.0461.532-.0163.9172.1215.2995-.1886.4665-.4589.501-.8112v-.0001c2.2112-1.1693,4.5132-2.1982,6.6053-3.5516,1.6828-1.0885,3.807-2.0279,3.6882-4.6029-3.3442,2.9443-7.1641,5.1247-11.202,6.9548h0c-3.03.6331-6.0601,1.266-9.751,2.0371,1.4729-6.7472,7.1407-9.8083,9.8302-14.8035.082-.7762.1639-1.5524.2456-2.3284-.7975-2.6269-3.0069-2.4261-4.905-2.1173-5.6062.912-11.1416,2.1662-16.222,4.8752-.7107-.3516-1.4228-.7019-1.5706-1.6043.8893-.9044,1.8705-1.5187,3.0917-2.0693,4.9027-2.2097,10.1362-4.2067,11.4391-10.467.1812-.8705.9468-1.7628.3906-2.5818-.7795-1.1479-1.9946-.4002-3.05-.3412-1.4073.0788-2.3028,1.0832-3.39519,1.736-3.63761,2.1739-7.23091,4.4339-11.28351,5.8-1.3201-.6878-1.126-2.1069-1.5566-3.2239,0-.0004.227.2543.227.2543.0279-.3688.0559-.7378.0839-1.1066.0527-.7359.1055-1.4717.1581-2.2077-.3452-1.5234.9868-2.1096,1.6955-3.0473.4889-.6468,1.4385-1.2296.8364-2.0615,1.1925.7138,1.9534-.535,2.6784-1.1142,1.9509-1.5587,3.7314-3.3307,5.5805-5.0167.1149-1.648.7404-3.725-2.3099-2.4807-2.7323,1.1145-5.4823,2.1921-8.2599,3.1871-1.501.5377-2.8604,1.7198-5.1761,1.2723,3.2786-4.2425,6.9349-7.3795,11.3563-9.6522,1.5334.0792,2.915-.6009,4.09191-1.3406,1.71839-1.0804,3.32039-1.091,5.18259-.6494,3.17741.7538,6.44641,1.1462,9.5919,2.0035,4.5013,1.2272,8.3484,3.5613,10.94351,7.6137-.00021.0014-.00021.0028-.00041.0041,1.2229,4.4896-1.6937,7.1855-4.3337,10.0013.4502.0487.7699.2246.9829.5042-.213-.2796-.5327-.4555-.9831-.5041-1.3034,3.5616-1.0518,4.3489,2.22331,4.6058,3.48589.2734,6.81459.9689,10.04769,2.2382.592-.0021,1.1842-.0044,1.77631-.0067-2.99141-2.1979-6.45141-3.0931-10.042-3.6547-1.16721-.1824-2.72051.1021-2.70761-1.849,2.4201-1.2706,3.7272-3.573,5.2557-5.6701.5443-2.8939.6131-5.6619-2.0413-7.709-.3676-.7427-.7353-1.4855-1.1029-2.2286-1.1936-.8767-2.38689-1.7535-3.5804-2.6298-1.8073-.8771-3.6143-1.7547-5.4214-2.6322-3.0415-.5428-6.0956-1.0257-9.1209-1.6478-2.33619-.4806-2.8198-1.7388-1.082-3.2987,3.1289-2.8084,6.4623-5.3889,9.719-8.0552-3.1449-.5743-4.6119,2.1934-6.8303,3.4914-1.8706,1.0946-3.03389,3.8683-5.94189,2.6343-1.38721-1.851-3.23271-2.9853-5.47471-3.4986-.6832-.6153-1.4777-1.1654-1.3284-2.2682.6472-.3399,1.3267-.6301,1.9362-1.0279,4.3233-2.8207,4.3988-6.1059.1376-8.8418-.8798-.5649-1.8705-1.1798-3.0512-1.0314-2.7372-.231-4.2147-1.4233-2.8366-4.2609.9318-1.9187,1.5793-3.8547.1702-5.6104-2.60809-3.2496-2.7083-7.9512-6.2725-10.6103-.09459-.0705-.0335-.3498-.0449-.5316.1889-1.5351-.5984-2.2358-2.0358-2.3812-1.98489-.4791-4.39389-.6331-2.4722-3.7507.5725-.9291.9792-1.9966,1.2777-3.0528,1.7688-6.2569.1079-8.1486-6.3897-7.3409-1.04869.1302-2.8453.8714-2.984-.1611-.5778-4.2913-4.03569-4.0257-6.96069-4.5459-.26991-2.8888.99039-4.9374,2.32269-6.8992,1.5718-2.3145,2.5615-4.823,3.0441-7.5562,4.5507.0161,7.7689,2.8989,11.115,5.351,2.7028,1.9805,3.7698,4.7975,3.1628,8.2265-.1723.974.6489,1.6865,1.6635,1.8198,1.2584.1651,2.53191.2139,3.7987.3128l.0004.0002c.2506.5336.6015.9285,1.2546.9049,0,0,.0801.0116.1094.016-.0184.0101-.0345.0162-.053.0268.555,3.3181,2.7181,5.4935,5.4271,7.0731,5.3743,3.1335,8.0031,7.5968,7.9281,13.904-.0389,3.2661.9367,6.4686,3.0179,9.1721.4306-.43.8612-.86,1.2919-1.29l.5063.0456c-3.1801-4.9841-3.0588-10.7631-3.92549-16.3044-1.10351-1.5705-2.20691-3.1409-3.31161-4.7104-.0009.0012-.0248.0225-.0248.0225-3.2775-1.3707-5.9435-3.4873-8.0765-6.3463-.63709-.8538-1.0378-2.5416-2.7609-1.6026.92581-1.7595.0727-3.2152-1.5098-3.2679-3.3512-.1113-3.2097-2.2625-3.2678-4.4955-2.5264-3.7631-6.2112-6.2206-9.8427-8.7381-1.4126-.0841-2.3972-1.04-3.5148-1.7248-1.374-.635-3.1276-.3526-4.1932-1.7339-3.995-3.1787-4.116-3.72-1.7992-8.056,1.0014-2.0389.6112-4.27.88531-6.4093-1.29741-3.0118-3.56511-4.5924-6.86311-4.6537-.7396.0282-1.4793.0564-2.21889.0846-4.32931-.8967-8.13021.667-11.863,2.5481-5.03421,3.4622-7.88111,8.3046-8.98881,14.2444.1925,1.244.3849,2.488.5745,3.7135-2.5775.9355-5.0679,1.8394-7.5579,2.7431l-.142.1261c-.685.7226-1.37,1.4453-2.055,2.1678-.8883,1.7784-1.21979,3.64-.8352,5.6083.8767.4743.46941,1.2821.5125,1.9729.181.1463.3686.2837.563.4122l-.0004.0005c-.1934-.1285-.3813-.2662-.5626-.4126-.2609.1123-.5248.217-.7915.3144-.0379,1.115-.0757,2.23-.1137,3.3451,1.2652,2.912-.9338,4.9475-1.9906,7.2031-.2801.5974-1.1082-.3545-1.4786-.9279-1.7008.0597-1.9164,1.0759-1.5781,2.4492,3.9436,2.8597,3.9905,3.2311.9348,7.4327-.516.8333-1.0316,1.6653-1.5476,2.4972-.29979.0186-.5956.0637-.8874.1353-.2409,1.2288-1.0968,2.0016-2.0196,2.7274-.4511,1.8766-2.0672,2.9767-2.9995,4.5199-2.89029,4.7851-5.9599,9.4971-7.1638,15.0871,1.3583-.4187,1.7166-1.6729,2.3789-2.7226,2.08261-3.3006,3.43661-7.0659,6.2661-9.8915,1.1429-3.3046,4.2649-5.3731,5.4156-8.6722l-.0006-.0005c1.5711-1.8058,3.18-3.5805,4.70051-5.4277,1.09869-1.335,1.85-2.8941.91909-4.5779-.83809-1.5162-.2683-2.8344.1072-4.2565.637-2.4114,2.0302-2.7935,4.1399-1.7687,1.8216.8846,3.6535,1.7782,5.5555,2.4593,2.2222.7958,4.5142,1.0289,3.441,4.6135-.678,2.2642,1.5585,3.6934,3.4547,4.4166,2.5647.9782,5.2958,1.52,7.957,2.2439,1.0671.2903,2.1643.4937,3.20361.8611,6.78769,2.3993,8.00959,6.5788,3.56359,12.1987-.6831.8637-1.489,1.6357-2.2784,2.409-1.0186.9981-2.631,1.7784-1.814,3.5722.7529,1.6536,2.453,1.4108,3.90081,1.4334,3.184.0494,6.28239.2758,8.74849,2.676,2.7989,2.7245,2.6614,4.5814-.5382,6.5521-.3127.1927-.7112.262-.9924.4858-1.0591.8428-3.4354.4433-3.2125,2.2896.2373,1.9653,2.4282.9943,3.716,1.4427,1.0422.3628,2.1787.6027,3.0827,1.1902,4.82791,3.1377,4.90591,7.8529.2182,11.2508-1.4971,1.0853-3.124,1.9655-4.932,2.4548-.8522.2308-2.0021.2589-1.5286,1.6421.2866.8369,1.0711.8681,1.8355.7553,1.4504-.2141,2.897-.4614,4.3525-.6315.9458-.1104,1.8531-.1289,1.6947-1.4945-.0891-.7667.3295-1.3469.77861-1.973,4.257-5.9369,3.80159-9.3464-1.83761-13.9822-.5631-.4631-1.2599-.7638-1.89539-1.1385,4.83679-5.3098,3.02549-11.184-4.01761-12.9535-1.9515-.4903-4.0735-.1213-6.2475-1.2678,1.3506-2.374,3.4456-4.2081,4.47-6.7487,1.8002-4.4641,1.36011-6.6009-2.2904-9.7526-2.4796-2.1407-5.4873-2.9101-8.57849-3.5553-2.34141-.4887-4.76451-.7681-6.87131-2.0249-2.2224-1.3258-2.2058-2.7032-.15769-4.195,1.27309-.9273,3.44129-.4125,3.99409-2.4641-.2514-1.3298-1.2908-1.1661-2.1396-1.07-4.81749.5457-8.974-1.3296-13.2704-3.1425-3.0657-1.2934-1.8597-2.8725-1.116-4.6877-.2506-.0481-.5103-.0577-.7737-.0518.2634-.006.5231.0037.7739.0518l.2046-.1515c.926.1769,1.496-.485,2.16311-.9186,2.50069-3.2888,6.189-5.1258,9.33009-7.632,2.0914-.9285,1.0492-2.1804.0251-2.8599-2.7729-1.8404-5.6426-3.4487-4.65219-7.5809.979-4.0856,3.09739-7.3659,6.54539-9.794.9211-.6485,1.8751-1.1398,3.00461-1.2624.19879.2949.56989.596.56109.8855-.056,1.8346.4052,3.4523,2.4217,3.7303,2.1924.3022,3.1903-1.4286,4.0953-3.0683.6512-1.1796.1153-3.1176,2.2106-3.3714,1.651-.2003,3.31-.4152,4.8809.3024,1.7499.7996,2.2882,2.305,2.0307,4.0943-.2349,1.6315-1.6446.9735-2.5956,1.1948-4.8645,2.0558-7.3683,6.4008-9.5442,10.7006-2.3312,4.6067.0812,7.586,5.1789,7.0364,1.2651-.1365,2.4907-.607,3.7505-.8356,1.0672-.1935,2.1566-.5078,3.4704.0393-1.1036,3.1114-2.0159,6.0974-6.15229,6.5627-2.02171.2274-2.335,1.3242-.07781,2.1322-3.6874,6.3606,3.5049,6.9797,5.4611,10.3624.0888.1534.0984.3525.1449.5303-1.1156.6353-2.2366,1.261-3.3447,1.909-.6582.3851-1.1913.8942-.91049,1.7425.28569.8635,1.04769.934,1.78389.82,1.44811-.224,2.8757-.6317,4.3297-.7541,1.8189-.1532,3.8367-.3658,5.0616,1.3511,1.30381,1.8276.1993,3.465-.9011,4.9923-.2143.2977-.4009.6151-.6004.9232-.9552.4065-2.4695.6033-2.06969,1.9712.438,1.4989,1.78159.5627,2.76439.3982.1747-.0291.3361-.1366.5037-.2079,1.5164-.2894,2.2625.5859,2.766,1.8286.0872.9984.3396,1.9346,1.0133,2.7134.0259.5242.2865.8399.8151.9174,1.6191,1.4194,3.9394.4896,5.7043,1.5885-.3709,3.1811-4.0014,2.8445-5.6603,5.1331,2.7543.9408,4.4857-1.1151,6.6358-1.129,2.2218-.0142,3.3735.6313,3.7964,2.8548.3845,2.0242,1.1397,4.0036-1.5399,5.0547-2.5689,1.0078-5.11179,2.0801-7.8951,2.382-.5799.063-1.0225.4473-1.0672,1.0388-.0789,1.0426.77551,1.2216,1.4622,1.1261,1.8177-.2529,3.607-.7039,5.4194-1.004,2.0152-.3335,4.0348-.3826,6.01991.2374.38119.924.86439,1.7115,2.00409.9523,1.8217-1.2135,3.1197-.0525,4.4283.9515.5079.3898.43061,1.0782-.0681,1.3167-.4389.2099-1.072.0135-1.61929-.0036l-.00021-.0002c-1.5631.0323-2.146,1.3845-2.8213,2.3647-1.8832,2.733-3.55749,5.6152-7.9008,5.1243,1.2091,1.9997,3.7435,1.9659,2.8536,4.694-.7002,2.1464,1.2404,3.1482,3.3425,3.3068,1.2315.093,2.4825-.8607,3.9373.2213-1.6244,2.9106-4.5068,4.6303-6.6536,7.0024-1.6008,1.7686-3.49,3.2729-5.1402,5.0002-3.7099,3.8834-3.209,5.2316,2.3665,6.6354.3308,1.2049.6616,2.4101.9924,3.615-1.39,1.4599-2.87519,2.8422-4.1434,4.4011-1.2623,1.5516-3.3223,3.1877-3.00579,5.0833.54219,3.2473-1.40521,3.6348-3.50211,4.305-.8146.2605-1.883.2262-2.0444,2.2887,3.0861.1809,6.2091.9465,8.35251,3.5647.288.7635.04769,1.8651,1.29129,2.0174l.0524.0766c1.12431.4413,2.2487.8827,3.3731,1.3239,4.2019-.025,7.8101-1.9475,11.1627-4.0733,1.9737-1.2514,2.9502-.2507,4.2927.5388,1.2755,4.6954.6799,6.5442-3.04519,8.7808-3.53191,2.1205-7.42781,3.1196-11.51271,3.4849-1.5461.1382-3.4488-.4924-4.3181,1.9627,1.8772.2213,3.7054.2972,5.4684.6776,2.5678.554,4.3377,2.4094,4.9687,4.7556.6042,2.2468-1.8105,2.8369-3.2528,3.8553-.29349.2074-.5241.5043-.7836.7601-1.3807.489-2.7615.9782-4.1424,1.4673-1.1443-.0518-2.2889-.1035-3.4336-.1551-.3373-2.2682,3.0252-2.7372,2.4819-5.1043-.0792-.3454-.1686-.6882-.3477-1.4144-2.7565-.2753-4.87309,2.0632-7.5155,2.2258-.1749-.2817-.3203-.6286-.5778-.7664-2.66979-1.4285-3.1724-3.1885-.9644-5.4737.5045-.5222.91261-1.1377,1.3651-1.7105,1.5036-.5605,3.0008-1.1395,4.51251-1.6782,3.831-1.3645,5.87429-3.9558,5.64159-8.1328-1.1242-.4414-2.24859-.8828-3.3729-1.3241q1.19431,5.4559-4.0379,7.8989c-.966.4541-1.8607,1.0603-2.7884,1.5966-3.4743.9104-6.3366,2.0937-7.0991,6.4435-.4077,2.3265-2.5338,4.3794-3.989,6.4835-.7728,1.1173-1.5052,2.1247-.4619,3.4238,1.058,1.3179,2.27961.7227,3.4864.275,1.0304-.3824,2.0643-.755,3.0966-1.1321.5125-1.1946,1.4695-1.6703,2.7154-1.6787.49821.461.996.9219,1.4944,1.3828-.80119.5822-1.6025,1.1645-2.402,1.7474-3.2934,3.0534-6.5887,6.1061-9.8839,9.1587.3664,1.9886,1.4343,2.9914,3.4683,2.1702,1.687-.6812,3.2815-1.5891,4.9328-2.363.6475-.3035,1.3841-.619,1.9279.1489.4825.6819.1618,1.3055-.2486,1.9504-3.8248,6.0111-7.60469,7.6352-14.85769,6.4267-.68731-.1143-1.43761.1476-2.15871.2347-.3687.3917-.7532.5268-1.1481.4893.3949.0374.7794-.0977,1.1484-.4896-.7263-.4588-1.414-.2854-2.0868.1283-1.14679-.1059-2.2934-.2117-3.4401-.3177-.6303-1.4517.0464-2.4115,1.2085-3.1759,1.6777-1.1035,3.0604-2.5117,4.2741-4.0975-.0205-.721-.0409-1.4421-.0615-2.1632-.7492-.6447-1.4983-1.2896-2.2476-1.934-5.779-2.1218-10.6453-5.7966-15.7357-9.1198-7.41549-4.8409-7.47049-4.7567-.8177-10.2311,3.5345-2.9088,3.19421-5.6607-1.0924-7.3717-2.5568-1.0205-5.256-1.71-7.9282-2.4053-1.7083-.4445-3.2808-1.0557-3.6695-2.9062-.44269-2.1066.9797-3.4644,2.4992-4.5702,1.3374-.9728,2.8723-1.6743,4.2064-2.6508,3.6605-2.6798,3.4901-4.4409-.3398-7.0301-1.6291-1.1013-4.8293-.9157-4.0524-4.3622.02291-.1013-.9186-.6195-1.3913-.5931-1.1439.0629-2.2271.567-2.5894,1.715-.31039.9832.4052,1.7372,1.1848,2.2895,2.3372,1.6559,5.6014,1.8032,7.4747,4.4075-1.2202,2.7884-4.0482,3.2056-6.06,4.683-1.9957,1.4657-3.5951,3.2695-3.2257,6.0096.372,2.7582,2.3537,4.0377,4.7599,4.8133.872.2811,1.799.3864,2.6884.6199,1.6027.4209,3.2458.7525,4.7761,1.3622,1.1162.4446,2.7157.6535,2.8069,2.2536.0704,1.2288-1.0483,1.8555-1.9678,2.4762-1.0691.7218-2.22669,1.3352-3.2093,2.1585-2.7738,2.3245-2.843,4.9976-.1296,7.4574,1.3584,1.231,2.9371,2.2188,4.4163,3.3167,2.4817,1.1032,4.5464,2.8394,6.7105,4.4238.7961.5158,1.5922,1.0322,2.3881,1.5487,2.1028,1.0237,4.2328,1.9972,6.2947,3.0979.7563.4038,1.3515,1.1096,2.1743,1.8085-1.6135,2.3465-3.65069,3.7054-5.9306,4.77.0065.003.0405.2394.0394.2387-.8524,1.9806-1.0702,3.7528,1.5181,4.5981,7.205.8583,14.4091-.3385,21.6381-.1517,3.8357.0991,8.2191-1.8177,11.1916-5.2415.951-1.0953,1.9452-2.2306,3.48171-2.5816.62619.2603,1.14009.6256,1.26579,1.3538-3.4256,3.4012-6.4557,7.0508-7.5061,11.9446.8172.7997,1.4495,1.8945,2.8398,1.779-.8489.9653-1.9226.8838-3.0291.6509-2.5827.0698-5.1747.3022-7.696-.5458-.8522-.2868-2.1323-.7555-2.3763.334-.6165,2.7526-2.4488,1.7864-3.8795,1.3965-13.15359-3.585-26.5329-6.3814-39.3442-11.1708-1.2613.0907-2.44439-.0675-3.36739-1.0559-.93811-.0291-1.874-.0648-2.56551-.8438-1.0429-.2209-2.0858-.442-3.1287-.663-1.3929-.6477-3.1005-.5183-4.2654-1.7286-1.2008-.0517-2.386-.1553-3.3377-1.022-5.3231-.7085-10.2082-2.895-15.2478-4.5495-9.9148-3.2549-20.0283-5.9076-29.7386-9.7885-3.86029-.1257-7.1996-1.818-10.5438-3.4943-.7811-.1454-1.5622-.2906-2.3431-.4354-.7123-.3121-1.4249-.6245-2.1378-.9369-.548.0674-1.0765.0857-1.3529-.5343-.00169.0018-.0883.1186-.0883.1186-3.879-.6091-7.4665-2.1146-11.0628-3.5948-2.6283-.4405-5.1102-1.3038-7.4495-2.5788-1.8542-.2891-3.7085-.5782-5.5627-.8672-2.94339-.8938-5.765-2.2067-8.86239-2.5667-1.14531-1.5494-3.09821-1.6184-4.60041-2.513-1.1774-.2786-2.3879-.4819-3.2694-1.4349-1.7293-.5458-3.4587-1.0915-5.188-1.6371-.0868-1.3727-.4525-2.7462.014-4.1169-.5798-5.6813-1.065-11.3604-.6293-17.0854.617-8.1105-1.2403-16.2044-.62389-24.2546.73479-9.6014-.01361-19.1179-.30071-28.6694-.0808-2.6877-.61629-5.403-.3688-8.0519.8902-9.5314,1.6766-19.074,1.775-28.6386.0389-3.7892,1.666-7.3022,1.301-11.0793-.20749-.7158-.10049-1.3473.4944-1.8499-.9114-4.35-.3356-8.6893.0732-13.0297-4.2619-.1547-7.1174,3.0046-10.667,4.5278-1.5004.6593-3.001,1.3186-4.5017,1.9778-4.5039,2.3786-9.0077,4.7572-13.5117,7.1358-1.1492.0754-1.3423,1.6778-2.5783,1.6146-4.6316,2.3108-9.263,4.6214-13.8945,6.9322-.56489.5413-1.249.7151-2.0101.6512-.3251.5811-.8393.7663-1.4722.7021-.6775.3267-1.3549.6532-2.0323.9798-2.0539,1.5321-4.4295,2.2861-6.885,2.8474l-.2958.0892c-2.159,1.7397-4.7831,2.5707-7.2481,3.7121-.4371.5053-.9669.7876-1.6554.6869-3.5327,1.9692-7.0656,3.9382-10.5985,5.9075-1.8953,1.2547-3.8556,2.3767-6.0792,2.957-5.1944,3.3504-10.486,6.5172-16.3344,8.6298l-.1391.2727-.306-.0069c-2.6433,1.778-5.3463,3.4397-8.4377,4.3477l-.3329.2076c-2.7085,1.6827-5.4356,3.3267-8.5548,4.1662l-.3522.1111c-.4342.7114-1.1278.9364-1.9003,1.0141-.6839,1.0678-1.8805,1.0853-2.9192,1.4259-3.326,2.5766-7.2958,3.8785-11.0592,5.5882.0011.0007-.0197-.075-.0197-.075-.3348.6137-.8947.8285-1.5499.8746-.5369,1.0178-1.5409,1.0827-2.505,1.2291-1.5508,1.6519-3.7524,1.8501-5.7232,2.5628.0005.0004-.2502.0213-.2502.0213-2.0185,1.4728-4.3143,2.3624-6.6521,3.163.0011.0011-.0505-.075-.0505-.075-.8033.4424-1.6066.8848-2.4102,1.3274-.4632.5889-1.0748.7822-1.799.6748-2.1707,1.6527-4.6098,2.7452-7.228,3.4649l-.3049-.0006c-3.8564,2.0766-7.7011,4.1788-11.9204,5.4635l-.2942.0906c-3.0253,1.8508-6.1299,3.5342-9.561,4.5277-.7188.4157-1.4378.8314-2.1568,1.2471-.4413.9457-1.2339,1.2697-2.2185,1.2542-.7061,2.4159-.2787,4.8559.5197,7.0597.9665,2.668-1.5635,4.846-.5683,7.3698,1.47.2104,2.325,1.0589,2.6027,2.5072.3109-.0753.5079.0412.5913.3498.3653-.0612.7318-.0698,1.0991-.0258,0,0-.0451-.208-.0451-.2086,1.9363.33,3.5515-.7939,5.3315-1.1773.4458-.5897.8905-1.1804,1.335-1.7708,3.3053-1.5631,6.5787-3.1989,9.9251-4.6679,2.9657-1.3017,3.4496-.991,3.7086,2.2073.0863,1.0662-.1894,2.1618-.2994,3.244.1065,10.4133-1.3382,20.7325-1.8862,31.106.8846,1.9156-.1919,3.702-.3662,5.5478.4199,1.4873.4271,2.9685-.0651,4.4423.0965,2.6351.0604,5.2556-.8665,7.7766.151,5.6344.4605,11.2778-.9808,16.8194.9693-.0516,1.6461-.2192,1.7167-1.5149.0961-1.7645-.6137-3.6906,1.0184-5.5966,2.1798,2.933,1.293,6.1412,1.3724,9.1736,1.081,1.6908.622,3.5589.6276,5.3765.0516,16.7036.0909,33.4074.1745,50.1108.0255,5.1263-.6598,10.1615-1.1432,15.5611-2.0957-.7647-3.6178-1.3202-5.1401-1.8756-2.6443,1.1926-4.9141.2331-7.0955-1.2353-1.027-.2386-2.0537-.4774-3.0806-.7162-2.1462-.4651-4.2781-1.033-6.5065-.8994-.1625.1136-.3433.1739-.5419.1813-.7461.978-1.5937,1.8385-2.7304,2.3655-.0687.367-.0791.7356-.0314,1.1056-2.9959,1.7883-4.3914,4.7513-5.7065,7.7736-.9707,5.6652-5.8453,4.8529-9.6491,5.8168.0009.0013.035-.1158.035-.1158-.2142.6324-.6871.8708-1.3194.8658-1.4299,2.0696-1.2304,4.4589-1.3311,6.7892.3882-.0381.7764-.076,1.1647-.1139.3278-1.6045.5338-3.2489,1.8897-4.4296.9976-.8688,2.1736-1.5494,3.4276-1.5464,2.0516.0047,1.2103,1.7417,1.4297,2.8603.3227,1.6463,1.3469,1.8925,2.8475,1.4132.8507-.2717,1.5999-1.5807,2.6708-.5761-.638-2.028,1.2682-4.3754-.7785-6.3236-.2371-.2256.5113-1.6127.9371-2.3871,1.8343-3.336,3.7188-6.6443,5.5853-9.9628,4.1453-2.8773,8.0872-.6315,12.0345.2975.1156.5095.3348.8884.2401,1.1565-.4979,1.4092-2.8375,2.8384-.8897,4.1994,1.418.9911,3.0209-.7025,4.1677-1.8917.4968-.5151.6322-1.4106,1.1642-1.8539,1.4782-1.2316,2.9926-.9616,4.4696.1676,1.4249,1.0892.7873,1.8583-.0162,3.0767-1.0946,1.6596-1.5929,3.7157-3.4517,4.8374-2.668-.2482-5.3326-.3184-7.9876.1475-3.2889.1518-6.3785-1.7976-10.5018-1.2431,2.3616,2.7808,4.8058,4.1838,7.2847,5.5433.7083,1.2017,2.5684,1.3763,2.8388,3.3265-3.4715,1.2241-7.2021-.3117-10.5878,1.0054-1.4633-.1394-2.9097.619-4.3802.1032.018,2.3374-1.0827,4.4883-.6938,6.9714.8489,5.4225,2.001,6.9385,7.358,8.1099,1.0002.2187,2.0108.3887,3.158.6081-1.4667,2.9454-4.4359,2.8681-6.4697,4.2644-2.4721,1.8271-4.6147,4.0033-6.6655,6.2779-.7506.8328-1.5819,1.8276-.4753,2.7647,2.2958,1.944.2162,2.9619-.7139,4.2552-.0107.0551-.0288.1028-.0456.1518.0168-.0491.0349-.0969.0456-.152-1.12.0334-2.24.067-3.3605.1003-.8964-.1608-1.5594-.6438-1.9925-1.4446-.476-.0105-.9521-.021-1.4281-.0313-.3021.0919-.5899.2169-.8637.3749-2.0845,1.3467-.9661,3.9262-2.1609,5.6155-.025.6252-.0502,1.2503-.0752,1.8756,1.2108.3694,1.3788,1.6394,2.1004,2.4315-.2252,1.3696-1.3121,2.0935-2.2532,2.8804-4.066,3.3996-4.8344,3.2162-7.2239-1.5984-.5306-.0631-1.0601-.1268-1.5899-.1902-.3894-.1169-.7788-.2336-1.1682-.3505-.735.0563-1.4698.1124-2.2046.1685l.094.2707c-3.1266.1211-6.2058.4401-8.9574,2.1346-.1433.7421-.2868,1.4842-.4301,2.2263-.4604.4379-.9207.8759-1.3786,1.3152-1.0098,5.3608,1.0696,11.5662,5.1266,15.3239.7322,2.255,1.9679,4.0065,4.4793,4.4821.3682.3914.7363.7826,1.1042,1.1734.6875-1.397-.3776-1.1437-1.0976-1.2151-.4197-2.5439-2.0997-3.8278-4.448-4.4432-.2752-.8228-.3697-1.7957-.8862-2.4178-3.7039-4.461-3.177-9.2677-1.3515-14.2224,2.4806-2.3694,5.8743-1.9246,8.8281-2.8278,1.4473-.4424,2.2733.4497,3.0683,1.6835,2.6575,4.1237,2.7809,4.13,6.7088,1.7304,1.2485-.7626,2.4048-1.7101,3.4899-2.6978,1.4292-1.3006,2.853-2.2086,4.7538-.9734.1224.1616.2419.2764.3586.3505-.0718-.1132-.1725-.2257-.3373-.3378l-.1222-.1514c-.7409-1.258-.1769-1.9986,1.0707-2.051,1.3185-.0552.9817,1.1106,1.0429,1.9161-.5401.3819-1.0656.9967-1.6541.6241.2856.4493-.0496.9144-.2352,1.4466-1.2378,3.5525-1.2121,3.5614,2.7947,5.1004-.5629,1.6959-2.0606,2.9958-2.1102,4.9073-4.0994,3.6725-4.1065,4.5118-.1049,12.1521-3.3386,1.2807-5.4603-2.6085-8.6286-2.0512-.5429-2.4511-2.3757-3.3154-4.6059-3.6386-1.9425-.2813-2.6722.7136-2.5243,2.5436-1.0901,1.773-.4591,3.6181-.2278,5.4463,3.0745,3.827,4.6242,8.9165,9.3921,11.3412-.0219,1.9471.9865,3.3457,2.4079,4.5246,1.0679.0808,2.1358.1614,3.2033.2419.3579-.0814.7164-.1624,1.0748-.2435-.2797.5325.2623.8845.3649,1.3325,2.7583,1.4029,2.8962,4.4164,3.8709,6.8357,4.5637-2.9149,8.8918-5.6794,13.5052-8.6261.8607,2.2843-.2889,3.9561-.3263,5.6805-.0518,2.3721.4818,4.1242,3.4339,3.3967,1.5471-.381,2.8967-.4134,3.581,1.3617.1859.5067.0401.7592-.4446.7592-8.6355-.0006-17.2711.0037-25.9065-.0328-.2875-.0012-.5732-.4186-.8602-.6401-1.6835,1.103-3.2738.443-4.8619-.2544-2.2005.712-4.2029-1.8875-6.4505-.385-.0139.666-.0283,1.3309-.0426,1.9959.8222,1.8317,3.216,1.3052,4.2674,2.7928-.0109.0343-.0247.0607-.0359.0941.0369.0025.0737.0048.1107.0073l-.0701-.1135c11.5791.1057,23.1584.2041,34.7373.3418.5035.006,1.0025.3713,1.5046.567.4977-.4991,1.0098-.3862,1.5278-.0399,2.4782-.2393,4.9539-.5113,7.4358-.6996.8626-.0655,1.833-.0679,1.9266,1.2041.6634.2318,1.3309.5135,1.9001-.191.1414-.8293.6818-1.2247,1.4739-1.2286,6.1186-.031,12.2374-.0441,18.3561-.0629,8.1485-.6667,16.2969-1.3388,24.438.0856,13.4027-.0442,26.8053-.0879,40.208-.1331,1.5686-.0053,3.0838.0435,2.7032,2.3127.3942,1.2586-.2626,3.6377,2.5133,2.3556-1.2869-5.1405-.081-4.6912,4.0392-5.1642,1.2367-.1419,2.5128.0601,3.7705.1042,1.8775.2322,3.7554.4651,5.6331.698.7405.0178,1.48081.0358,2.2212.0537,1.8307-.4621,3.6855-.633,5.5687-.4566,2.17891-.4376,4.3716-.5232,6.5776-.256,5.21131.1729,10.44131-.9133,15.6385.2287,6.7744.1526,13.5505.2574,20.3226.4783,3.4317.1116,3.4285.2065,3.3436,4.1807,2.0431.7868,2.6305-.5962,3.1349-2.1032-.13029-.7528.0954-1.1939.9496-1.0851,3.3457-.6417,6.68411-.4911,10.0184.0928,1.0829.0621,2.1659.1244,3.2484.1865,1.1371-.3817,2.2802-.5434,3.4391-.088,1.6983.1843,3.544-.6005,5.06221.7694,2.30669-.9275,4.39809-1.4327,5.62089,1.6683.3067.778,1.213.2383,1.66-.4148.00911-2.7113,1.805-1.9756,3.3449-1.7342,5.6273.1403,11.2546.2808,16.8819.4213.4945-.6197,1.1506-.8172,1.9249-.8143,9.9019.0362,19.8039.0635,29.706.0841.7665.0015,1.436.1818,1.9552.7753.6577-.8094,1.3145-.6558,1.9711.0006,1.5639-1.1515,3.1314-1.1781,4.7033-.0159,1.0049-1.0373,2.0219-.7004,3.0419-.0279,1.1608-1.241,2.6056-.8775,4.0156-.7103,1.514-.4569,3.0234-.3306,4.5307.0378,4.7825-.2367,9.5651-.4056,14.3493-.047,1.8697-.7168,3.7486-.3368,5.6268-.0473,2.9368.0276,5.8736.0551,8.8103.0826,1.8727-.4335,3.7494-.5314,5.6327-.0647,8.4911.0152,16.98251.0301,25.47351.0451,1.87459-.2757,3.74789-.7916,5.62819-.031,3.3599-.1369,6.7253-.4899,10.0614.2641-.0003,0,.40141.1208.40141.1208l-.04281.4173c1.9186-1.1792,3.8387-1.1922,5.7611-.0084,4.2214-.0442,8.4425-.0883,12.6634-.1324,2.1991-.6117,4.4131-.6346,6.6394-.1677,1.9622-.5359,3.7835.1345,5.6222.657,1.7191.0728,3.5482-.6168,5.0833.7328,4.6221-.8731,9.2017-.109,13.7891.3493,7.7705.1599,15.5858-.6957,23.2874,1.0257,1.1262.0471,2.2523.0943,3.3783.1415,5.1474.1018,10.2949.2039,15.4417.3047,1.5338-.0225,3.0678-.044,4.6017-.0654,2.5863-.1764,5.171-.331,7.6793.5605,2.7296-.1664,5.4648-.2749,8.1856-.5345.806-.0768,2.0297-.3522,1.4334-1.6153Zm-69.0562-21.3154c.8887-2.0553,2.5029-3.5456,4.3989-4.7395-.6977,2.3076-2.2883,3.744-4.3989,4.7395Zm10.6358-104.13l-.0001-.0002c.342.048.7265-.0769,1.1223-.2475-.3958.1706-.7803.2956-1.1222.2477Zm-8.9864,42.6421c.1246-.0554.4686.0778.4669.0882-.1229.8469-.5965,1.4024-1.3973,1.6691-.4787-.9516.1396-1.407.9304-1.7573Zm-5.9646-17.9357c.4686-.3268.9126-.9967,1.5279-.3187-.1641.761-.5845,1.1145-1.37559.7777-.10371-.0441-.194-.43-.15231-.459Zm-6.171,21.0853c3.9785,2.077,7.20931-2.2745,11.0916-1.305-2.1644,2.6361-4.3358,5.2667-6.4969,7.9057-.34539.4218-.7759.8381-.9405,1.3326-.66,1.9825-2.8218,4.0509-1.0783,6.0473,2.1883,2.5056,4.2502-.0481,6.2768-.9676.3044.2683.6088.5364.9131.8048-2.91,3.5225-5.3474,7.4562-9.37649,10.679-1.36651-4.2556-.12611-8.4197-.622-12.4423-.49121-3.9821-.69571-7.9767.23269-12.0545Zm18.5519-146.9244l.0002.0001c-.5563.1178-1.04079.0463-1.4856-.1301.44481.1764.9293.2477,1.4854.13Zm-30.81859-54.639l-.00011.0013c-.0558-.1234-.0833-.2481-.0944-.3736.0111.1253.0387.2496.09451.3723Zm-2.366,3.6005c-.114.2981-.22871.5949-.35421.865.1255-.2701.2401-.5669.35421-.865Zm-56.925-75.5468c-2.84951,4.0635-6.93521,5.7998-11.71771,6.2238-.8497-3.2352.6412-5.3448,3.4342-6.5915,2.762-1.2329,5.6692-2.9198,8.28351.3677Zm22.47509-2.4183c-1.9418.3845-3.8688.9483-5.8289,1.1064-2.2768.1838-2.9118-.7743-2.1319-3.0016,1.2516-3.5754,4.02-5.8711,6.9981-7.9568-.1281,3.4686,1.3109,6.2159,4.2993,8.3235-1.3699.6275-2.3532,1.078-3.3366,1.5285Zm14.3576,25.2548c-1.0283,2.9086-1.8742,5.9354-4.2209,8.1728-.569-.3089-.5056-.7504-.38079-1.3071,1.46859-6.556.70079-7.5166-5.944-7.9352-3.00621-.1894.19539-1.0562-.11661-1.5653,2.7564-.0864,5.5164-.1156,8.2684-.2775,2.2367-.1313,3.1517.7679,2.3939,2.9123Zm9.169,31.4c.30031-.1079.5516-.2808.7066-.5627-.1546.282-.406.4547-.7066.5627Zm-3.0528,61.8426c-.7451.9537-1.5943.4829-2.4374.3388-.7112-2.2492-3.1266-2.9196-4.78049-5.101,6.25439-2.1067,12.27229-4.1339,19.01839-6.4063-3.5225,5.0844-8.6176,7.0948-11.8005,11.1685Zm15.7256,48.0411c.4144-.2765.6371-.607-.0422-1.1915-.13729.486-.2736.9718-.41,1.4575-1.6272,3.867-4.7505,5.7187-8.6958,6.4887-1.9409.3788-3.8718.8106-5.8071,1.2182-.6533-.2759-1.4985-.1486-1.9203-.9122,4.6344-2.6269,9.2676-5.2556,13.9038-7.8791.9219-.5217,1.8036-1.4288,2.9302-.3734.67891.5848.4558.9153.0414,1.1918Zm-1.0828-3.9158c-3.922,1.0049-6.7329,4.0272-10.4336,5.3716-.535.3617-1.1069.6442-1.7022.9098.5953-.2656,1.1672-.5481,1.7022-.9099-1.4587-.7281.1694-1.5446-.0658-2.3077.4521-1.0067,1.1596-1.9759,1.3142-3.0264.9033-6.1373,5.1169-8.9318,10.8706-4.6115-.0598,1.7234.7461,3.9512-1.6854,4.5741Zm25.4252-28.2848c.4324-.9184.9354-2.0751,2.4068-1.3897,1.1877.553,1.6687,1.3679.9216,2.5677-.9275,1.4891-1.1355,3.4383-3.3095,4.8221-1.1993-2.2825-.8752-4.18-.0189-6.0001Zm-12.7434-.8019c.9976,1.6237,3.3544,1.9129,3.97351,3.9475-.92351.5947-2.556.5591-2.44651,1.8606.12151,1.4463,1.48951,1.1461,2.5599.9748.889-.1423,1.7848-.2435,2.6773-.363.82.7396,1.64,1.4791,2.4601,2.2187.2674,1.595,1.7701,2.8333,1.3369,4.6303-.3203.3127-.6401.6253-.9604.9379.6266.1237,1.2533.2474,1.8799.371.2082.0094.4163.0044.624-.0145h.0002c1.392,1.1877,3.081.7731,4.676.8657,1.1608.7588,1.7699-1.2475,3.3288-.3324-1.9874,2.2212-3.9496,4.3784-5.8679,6.5738-.8896,1.0177-1.673,2.4294-.4086,3.3518.9194.6705,1.8539,2.1735,3.8309.8715,1.6682-1.0982,4.06-1.2868,6.2665-.4874-.0405,2.0004-1.283,3.2549-1.97009,4.6842-1.96311,4.0851-2.18471,3.9879-6.532,2.9584-2.161-.5117-2.24711-1.3834-1.20931-3.0162.2335-.3675.0638-.4753-1.7455-.2584-.48319-2.3636-1.5805-4.4156-3.0493-6.3184-3.6471-4.7253-3.6251-4.7373,1.3033-8.1043.2912-.1991.5037-.5132.753-.7738-.6266-.1236-1.2533-.2473-1.88-.371-.8183.3695-1.6853.6587-2.4464,1.1217-3.97279,2.4169-4.2869,3.8475-.9584,7.0344,2.3045,2.2068,3.6537,4.9499,5.3351,7.5217-.8568,3.4839-2.2502,6.3784-6.2371,7.363-1.7561.4338-3.2407,1.882-4.0033-1.13-.3887-1.5365-1.8357-.8381-2.7909-.5408-2.7597.858-5.47819,1.8484-8.8908,3.0195.3475-3.3327,2.5998-4.7131,4.1862-6.4491.98641-1.0797,2.2431-1.9229,2.6891-3.419.5214-1.7486-.4424-2.3262-1.9552-2.4652-.9638.3358-1.9048.8004-2.897.9769-1.4381.2557-1.7886-.5397-1.3728-1.8086-.2393-.4979-.5658-.8815-1.1411-.9403.3237-2.1211-2.6233-2.6557-2.3679-4.7478v-.0001c8.0158-4.988,9.7864-10.3085,6.0275-18.3066,1.3804-.4852,2.7525-.9674,4.12481-1.4499,1.03259.0044,2.065.0088,3.09749.0134Zm-10.042-16.9965c2.9598-.8621,6.0109-3.2125,9.2316-.2037-1.4933,3.6468-5.06,5.7711-6.9689,9.1294-1.467-.5948-.6987-1.8005-.7535-2.7768-.0771-1.3732.5021-2.9822-1.3615-3.695.19681-.8681-1.2-2.1474-.1477-2.4539Zm-22.194,28.0826c-.2373.0472-.4447.1139-.6223.1995.1776-.0857.385-.1523.6223-.1995Zm-1.1038.5543c-.4771.5443-.4195,1.4319.1442,2.6447h-.0002c-.5635-1.2127-.6211-2.1004-.144-2.6447Zm-10.0381-1.6309c1.7791-4.9133,1.8059-4.9616,6.9397-3.2474-2.0118,1.6556-4.3941,2.4947-6.9397,3.2474Zm8.4111,4.2066c-1.2376.0364-2.2411.5555-2.6509,2.2974h-.0005c.4102-1.742,1.4136-2.261,2.6514-2.2974Zm-.109,7.2675c-.2391.1873-.4999.3526-.8038.4788.3039-.1263.5647-.2915.8038-.4788Zm-1.3881.67c-.6405.6113-1.40359,1.3489-2.1155.316-.4829-.7003.2915-1.1709.9092-1.4897.5776.2108,1.0771.5022,1.2063,1.1737Zm-3.1662-2.7941c1.0755-.4546,1.9335-1.1461,1.9302-2.7702-1.745.2587-2.9697,1.0984-3.82059,2.3555.85089-1.2572,2.07559-2.0971,3.82059-2.356v.0005l.0003-.0001c.0034,1.6243-.855,2.3157-1.9305,2.7703Zm.2435,9.3992c2.2345-2.2203,4.49111-4.4188,6.69411-6.6693,1.07059-1.0936,1.91889-.1481,2.84549.1587-1.3209,4.5421-5.8613,4.8753-9.5396,6.5106Zm9.7132-6.5711c.3855-1.1237-.61109-2.4335.5871-3.5053,1.7761-1.5893,3.2306-3.3417,3.7314-5.8832.234-1.1866,2.0265-1.408,3.1507-2.0041,2.0518-.8297,4.14871-1.6819,4.66-4.1574.7043-3.4118-2.1496-5.2519-4.2978-7.8581,4.5316-.3452,7.5652-3.1764,11.4533-3.4593l-.0005.0003c-.97,1.0243-.6241,2.2367-.5068,3.4164.51351.2079,1.0327.4109.9473,1.1399-.3787-.2533-1.194-.1264-1.1299-.7648-.8697,1.0066-3.3394-.6529-3.3778,1.7901,8.3076,2.2989,9.9494,8.1454,4.1448,14.5201-.9642,1.0589-2.3965,1.6909-2.9065,3.1639-.3517.1183-.7033.2364-1.055.3544-.4178.0228-.8359.0454-1.2536.0681l-.1481-.1238c-.5248-.2388-.6954-.6552-.6982-1.1558.0028.5006.1736.917.6989,1.1558.121-.6348-.0361-1.1299-.69039-1.3753l-.02131-.0196c-.0002,0-.0004-.0001-.0004-.0001-.4486-1.0475-.9888-.7325-1.55029-.1038-2.52941.593-4.787,1.7678-6.87211,3.2804-1.4675,1.0645-2.9734,1.9177-4.8648,1.5212Zm15.5624,31.7628c5.30751.9464,10.1894,3.256,15.31551,4.7775,7.22579,2.1451,14.48449,4.1791,22.24459,6.4086-1.9571,2.202-3.8121,1.2284-5.6.7827-11.2835-2.8132-22.5351-5.7242-33.109-10.7282.3831-.4135.766-.827,1.1489-1.2406Zm-15.4933-5.0392c-.68019-.1838-1.35919-.3711-2.03719-.5614.678.1903,1.357.3776,2.03719.5614Zm6.5361,8.7878c2.409.8572,4.87471,1.5549,8.24,2.6195-3.0299,1.5141-5.4315,2.0058-7.8414,1.9768-14.7717-.1778-29.4997,1.2624-44.2855.9302-15.3455-.3447-30.7036-.1322-46.05639-.1634-1.19731-.6178-2.49921-.5987-3.78691-.5718-8.86109.1853-17.6879-.3486-26.4934-1.2754-4.7839-.5033-9.5656-.3881-14.35269-.1435-4.42561-.0469-8.85121-.0938-13.27681-.1407l-.0004-.0001c-10.6805-1.5817-21.4375-2.0299-32.2154-2.162-1.4867-.0048-2.97339-.0096-4.4601-.0145-.3612-.0005-.72229-.001-1.0835-.0015-1.717-.4731-1.4994-1.8366-1.4466-3.1303.398-9.7827-.7494-19.5496-.00019-29.3623.38959-5.1014-.55081-10.2967-.56051-15.4765-.00549-2.8347.90151-3.658,3.5558-3.0375,7.5421,1.7637,15.14471,3.291,22.6354,5.2474,12.6572,3.3058,25.3281,6.601,37.84531,10.3888,18.90489,5.7205,38.26489,9.5775,57.33589,14.5782,22.2873,5.8442,44.5089,12.0044,66.2474,19.7386Zm-187.6872-63.1832c.776-1.1175,1.7715-.9943,2.90191-.6117,3.453,1.1685,6.92549,2.2796,10.39019,3.413h.0002c2.4059,1.2113,4.94461,2.0446,7.5619,2.6538,15.0345,4.8525,30.0565,9.7447,45.1072,14.5458,14.3594,4.5806,28.7937,8.9304,43.1128,13.6315,14.499,4.7603,29.1096,9.1177,43.8365,13.1003.0687.3604.1421.72.2206,1.0784-15.7369-3.0086-31.0367-7.7901-46.6011-11.4932-17.9302-4.2661-35.4911-9.7686-53.0705-15.2551-14.2553-4.4494-28.9763-7.045-43.5952-10.0039-2.5213-.5102-5.056-.9537-7.58459-1.4278-.87931-.6385-1.66681-1.3506-1.96291-2.4555-.0664-1.2411-.1329-2.4822-.1993-3.7232v-.0003c.5048-.5669.5271-1.1425.033-1.7285v-.0001c-.0502-.5744-.1004-1.1489-.1507-1.7234v-.0001Zm-194.68509,120.6142c.0841.0049.1709-.0348.2586-.0878-.0877.0531-.1745.0927-.2586.0878Zm.8204-.5214c-.0988-.2262-.1641-.5557-.2782-.735.1143.1793.1796.509.2789.7344-.0002.0002-.0004.0004-.0007.0006Zm31.2238,20.7715c.0388.9084-.7703,1.1196-1.4824,1.3117-1.9013.5134-3.6764,1.583-6.1256,1.454.0266-6.1264,3.8734-10.1325,7.3206-15.7194,1.181,5.1201.1211,9.0647.2874,12.9537Zm-2.9669-22.989c-.0357-2.0909-.0477-4.0206,2.733-5.2859q.9261,7.7493-6.7516,9.7144c-.2338-2.9544,4.0628-1.8452,4.0186-4.4285Zm-17.7456,35.5569c-2.9211-2.525-2.903-2.5321-3.9767-5.2986-.1692-.436-.9219-1.0033-.8399-1.1227.7213-1.0529,1.5707-2.0178,2.3821-3.0089,2.4264-1.001,4.5779-2.4492,6.3412-4.3658,1.3332-1.449.7937-2.8293-1.1676-3.0618-2.012-.238-4.0973-.0001-6.0725-.3774-3.5329-.675-4.8459-3.1396-4.433-7.68.2713-2.9842.7042-3.3412,5.0303-3.4181,3.8697-.0687,7.751.1519,11.5585-.7877,3.26,1.7464,6.6014.964,10.1844-.16-.6712,3.6969-2.869,6.0259-4.3812,8.6968-1.5403,2.72-3.4051,5.2712-4.2676,8.3379-1.2384,4.4031-.1713,5.7238,4.3535,5.4673,1.0776-.061,2.1622-.5574,3.7138.1959-.554,3.4599-2.2299,6.9305-1.9167,10.666-.3856.6704-.7711,1.3409-1.1567,2.0114-.6225.2043-1.2453.4085-1.8678.6129-.5334.5045-1.1028.9208-1.777,1.2027.6742-.2819,1.2436-.6983,1.7772-1.2031-.8593-.3528-1.494-.9365-1.8533-1.8034.9452-1.9729,1.8151-3.9874,2.8659-5.9025.5684-1.0358.2515-1.7988-.4597-2.3708-.5767-.4638-1.4451-.4281-2.0609.0823-.6998.58-1.8827,1.3302-1.8392,1.9331.3111,4.3191-2.8571,6.9371-4.6976,10.1896-1.1675,2.0631-2.6696,4.155,1.479,4.3909-.1479.6613-.2958,1.3226-.4439,1.984.0006-.0001.0011-.0002.0016-.0003-2.8532,2.3686-3.0105,2.9469-1.0392,4.8012,1.5948,1.5,3.7269,2.4165,5.0434,4.7604-2.0372,2.1329-4.7638,2.872-7.3874,3.6988-1.314-1.2344-.7148-2.5739-.5669-3.7617.6313-5.0736.6723-5.0676-4.2693-3.2283-.5186.1929-1.0448.3654-1.5675.5475v-.0002c-1.5996-.691-.703-2.2027-1.0829-3.2948l.0286-.1117c.3117-.4028.6235-.8058.9353-1.2089.6963-3.4946.6999-3.4503-2.3414-3.1965-1.0313.0859-2.0842-.0914-3.1282-.1589-.1551-.8443-.8047-1.8078.1607-2.4645,2.8369-1.9293,4.9998-4.8071,8.1279-5.8795-2.6887-2.2054-6.1695-.7616-10.5247-1.2005,3.5255-3.0403,4.908-7.31,11.1354-4.5121Zm-6.0919,23.7387c-.1929.0318-.3867.0469-.5815.0446.1947.0023.3886-.0128.5815-.0446Zm-7.4094-20.5229c-.1741.4152-.5648.6113-.9757.787.4109-.1757.8016-.3718.9757-.787Zm-2.9935,6.2006c-.1137-.6176-.2273-1.2352-.341-1.8527-.3635-.0261-.7369-.0205-1.1043-.0344.3674.0139.7408.0083,1.1045.0344.0343-.7709.0688-1.5419.1031-2.3128l.0258-.0149.4452.1369.4635-.0462c.6348,2.7052,2.4578,3.8002,5.25,3.3987-.3718,1.914-1.5608,2.2775-2.8234,2.5501-1.0411-.6198-2.0823-1.2393-3.1234-1.8591Zm3.14,4.7765l-.0007-.0001c-.003-.5566-.006-1.1133-.009-1.6699.003.5566.0061,1.1133.0091,1.6698.0002.0001.0004.0001.0006.0002Zm-1.1776-.1026c.4054.043.811.0862,1.2165.1291,0,0,.0014.0009.0021.0014-.4062-.044-.8125-.0874-1.2186-.1305Zm-7.7804,35.3874c-1.7798-2.2529-3.5788-4.4911-5.334-6.7629-1.6953-2.1945-2.8341-4.5874-2.3988-7.4753,2.2645-1.7286,3.5419,1.5697,5.5587,1.102,1.6722,3.0415,4.9303,3.3472,7.7328,4.4385-1.3332,3.2313-2.7484,6.4104-5.5587,8.6977Zm25.8566,2.7498c-3.0987.7309-5.8436,2.9622-8.7459,4.5264-.5058.5218-1.095,1.0125-1.7165.3188-.148-.1651.2986-.863.4708-1.3162.6786-1.8006,2.2012-2.9343,3.4733-4.2345,1.6447-1.6809,2.3344-3.5615,2.2195-6.1516-6.778,1.2605-11.33,7.0116-18.3828,7.9933.5783-4.1355,2.9784-6.5222,4.6054-9.2918,1.2251-.9894,1.0827-3.3766,3.3618-3.2884,1.048-.0398,2.5526.2599,2.7729-.9731.2823-1.5811-1.3536-1.1468-2.2791-1.3739-.5218-.128-1.0515-.2224-1.5777-.3298.0813.3571.0767.7486.1059,1.1263-.0292-.3777-.0246-.7691-.1059-1.1262-2.6485-2.4267-5.1717-4.9117-4.3348-9.0129,5.7479.3576,10.4997-2.6458,15.9276-5.2252.2172,3.012-.7026,5.6218.6633,7.9083,1.026,1.6864,2.1263,1.0765,3.2384.1048l.026-.0096c.1363-.1318.28-.2489.425-.3636-.145.1147-.2887.2319-.425.3638.8433.1719,1.9723-.2243,2.2277,1.1188-1.6147,1.0508-2.5449,2.3585-2.7815,4.4435-.4687,4.132.3412,5.1376,4.2853,4.3847.7147-.1364,1.3834-.5834,2.0956-.6515,1.5389-.147,3.0382.3285,3.8401,1.6261.672,1.0872-.4728,2.0227-1.033,2.9257-1.9786,3.1889-4.327,5.5574-8.3564,6.5078Zm18.3808,15.0265h-8.8912c-.5197-1.5687,2.3907-2.0038,1.3998-3.6-.8204-1.3209-1.8251,1.0855-3.1544-.1452.7254-1.9159,2.3336-3.3172,3.7545-4.8495.7471-.806,1.6464-1.55,2.1263-2.4994.3867-.7649.5885-1.9569.2533-2.6672-.4061-.8604-1.567-.6715-2.5102-.4805-1.5999.3239-3.049,1.4315-4.7962.9646-.1356-1.1228.63-1.8024,1.3943-2.1616,5.2296-2.4591,4.4941-7.6144,5.3338-11.9516.481-2.4839-1.6791-3.972-4.3387-3.3766-1.9229.4305-3.5445,1.8937-6.248,1.9604,1.7712-3.1229,3.0308-5.8644,6.4126-6.7836,1.0266-.2787,1.9207-.7425,2.3314-2.048.7713-2.45,2.2258-4.5819,3.9246-6.5135.916-1.0416,1.1693-2.257,1.2293-3.5853.0865-1.9154-.8647-2.9014-2.6699-2.5094-1.9368.4208-3.7872,1.2394-6.0581,2.0151.7526-3.9294,4.4848-5.8557,5.3348-9.4245.7721-3.2415,1.2629-6.6318,3.8219-10.707.3583,4.3516.6201,7.531.8818,10.7103.266.1791.4317.3902.5056.6307-.0739-.2405-.2397-.4516-.5057-.6307-.2782.6169-.0321,1.0664.4593,1.4375.0478,1.7789.0957,3.5579.1434,5.3368-.0651,1.097-.1899,2.194-.1862,3.2906.054,15.8625.6047,31.7244.0519,47.5876Zm-10.9437-43.7504c1.7193-2.2775,3.958-2.6434,7.151-3.8403-1.7992,3.9168-3.5787,5.2743-7.151,3.8403Zm-6.679-216.5524c-.875.266-1.7265.6277-2.7696.2471-.6045-1.4012-1.2805-3.3893-1.0585-4.4622.3258-1.5753,2.7063-2.2033,4.2904-3.1338,13.3913-7.8665,27.6135-14.0522,41.584-20.7598,9.767-4.6895,19.2467-9.9756,28.8807-14.9446,4.2566-2.1955,8.6127-4.1989,12.8633-6.4057,13.4086-6.9607,26.8152-13.9259,40.1697-20.9892,8.1542-4.313,16.9041-7.291,25.0936-11.5473,7.48281-3.889,15.7971-6.1336,22.5376-11.5301,1.2569-1.0064,2.9264-1.4977,4.7087-2.3762.7496,3.216-1.6462,5.8903-.7018,8.8005.1027.3167-.8393,1.1582-1.4432,1.4905-9.8404,5.4166-18.8633,12.3184-29.5592,16.1922-2.4185.8757-4.7449,2.0556-7.01929,3.272-28.3261,15.15-57.1523,29.299-86.1826,43.0362-8.674,4.1046-16.6643,9.5391-25.6066,13.1027-8.5652,3.4135-16.9402,7.3189-25.7872,10.0077Zm175.14479-42.1807c.19,8.1064.2829,16.2151.44861,24.3222.08769,4.2852-.74541,5.4286-5.11821,4.8995-20.16379-2.4396-40.2439-.0004-60.247,1.5356-18.0382,1.385-36.1361,2.4902-54.1116,4.961-10.0102,1.3759-20.2154,1.332-30.3327,1.9281-.0726-.4048-.1453-.8094-.2178-1.214,5.2139-2.6228,10.4392-5.2232,15.6396-7.8721,19.3974-9.8799,39.1142-19.1258,58.2177-29.5928,8.3896-4.5968,16.6666-9.4658,25.733-12.7301,1.54249-.5554,2.95-1.4976,4.39949-2.2979,14.5458-8.0315,29.8258-14.4462,44.9747-20.7534,1.5173.9018,1.02481,2.111.9385,3.0565-1.0274,11.2462-.588,22.5009-.3243,33.7574Zm-73.4152,300.2964c-5.3457-.1457-10.6982-.0353-16.0478-.0288h-.0002c-.2475-.0313-.4768-.0764-.6482-.1652.1714.0888.4008.1339.6484.1652-.1025-.5044-.2199-.9976-.8396-1.1117-.1349-1.0514-.2699-2.1029-.4049-3.1542,1.2798-.8764,1.108-2.2529,1.1122-3.5034.015-4.4131-.0443-8.8267-.0753-13.2402.1167-8.4357.2334-16.8714.35-25.3072.9777-.9629,2.1025-1.1851,3.4948-1.1319,3.1333.1195,6.2814.084,9.4137-.0773,5.2112-.2683,4.7255-.204,4.873,4.7713.3936,13.2783.519,26.5648.8332,39.8461.0486,2.0554-.3915,3.0006-2.7093,2.9373Zm11.7979-11.8844v-12.7324c1.74,4.2827.9871,8.5787,0,12.7324Zm63.6084-120.9921c.0702,21.4142-.8309,42.8192-.95749,64.2246-.06971,11.7976.44119,23.6233.45069,35.4425.0086,10.7151.2142,21.4301.244,32.1453.0109,3.9542-.0991,3.8293-4.0102,3.6512-15.5121-.7061-31.0128-1.7587-46.5531-1.6927-3.7077.0159-7.3939-.1842-11.4891-1.0496,2.0122-1.4842,3.1453-2.8666,2.8389-5.6153-.9791-8.7796-.5175-17.6372-.5869-26.4667-.0523-6.645-.5711-13.2849-1.6863-19.834-.3697-2.1712-.4384-5.9825-4.6669-3.2714-.3198.2052-1.256.0581-1.4404-.2267-2.1329-3.2951-5.2944-2.0091-8.0534-1.679-4.95.5917-9.8087,1.4458-14.8494.4133-3.4983-.7167-2.1661,1.8612-1.8813,3.5489,1.313.5131,2.3876,1.1105,4.104.7822,5.6007-1.0702,11.2768-1.9295,17.0307-1.4949,4.8932.3694,5.1249.6557,6.3607,5.2629,1.4624,5.4516,1.2042,11.0491.9692,16.5285-.388,9.0435-.7651,18.0571-.0222,27.0916.0899,1.0941-.0171,2.2115-.1086,3.3118-.1407,1.6923-1.2759,1.9479-2.7323,1.9568-1.7536.0106-2.134-.8317-2.0967-2.4094.2572-10.8824-.7529-21.7533-.282-32.6441.1912-4.4217.392-8.8813-.3711-13.2747-.6077-3.4988-1.017-3.6051-4.7758-3.2504-6.0454.5699-12.1019,1.154-18.1671.1747-.5908,1.5902-.264,3.17.0541,4.75-.0373,8.5578-.0747,17.1156-.1115,25.6725-1.5375,5.5118-1.3133,11.1042-.7721,16.7113-.3273,1.5309.641,3.4333-1.2911,4.5041-2.2404-.3582-2.2731-2.0791-2.2386-3.7547.0908-4.4089-.2144-8.8324.4454-13.2221,1.3837-10.454,1.2202-20.9158.1581-31.382-.4026-2.823.0838-5.8234-.944-8.5216-.4457.0484-.8915.0968-1.3372.1454.2077,2.8866.4154,5.7733.623,8.66.0128,10.4094.0259,20.8188.0385,31.2283-1.0274,5.4756-1.0992,11.024-1.2627,16.5655-4.7733.7911-9.5856.6818-14.3953.6143-14.44-.2021-28.8369.765-43.239,1.5894-.7782-1.185-.4169-2.488-.3845-3.7552.4026-15.7761.3468-31.5458-.6535-47.3025.0349-1.7502.0697-3.5006.1044-5.2509v-.0004c.5-.9486.3628-1.9277.1391-2.9108-.1701-5.0336-.34-10.0674-.5099-15.101-.2411-.1876-.4186-.3763-.5355-.566.1169.1897.2945.3784.5355.566-.0121-.7657-.0243-1.5316-.0362-2.2974-.0044-.7195-.0088-1.4389-.0132-2.1583.3142-.7746.3413-1.5414-.0643-2.296.5517-9.2207.9211-18.4415.3268-27.678-.5377-8.3557,1.3052-16.5827,1.4863-24.8824.3261-14.9308,1.7217-29.869.1664-44.8058-.4597-4.4141-.3141-8.7945-.0616-13.224.5346-9.3774.8279-18.7683-.1576-28.1591-1.4085-13.4228-1.1702-26.8634-.0195-40.339,51.1924-6.6746,102.86369-7.3338,154.22609-12.0133,1.3103,1.5491.7767,3.2647.8236,4.8204.3105,10.3441.833,20.6938.7221,31.0357-.1202,11.1956.7743,22.3677.3461,33.5701-.2179,5.7091.2775,11.4478.5035,17.1711.663,16.7964.0053,33.594.0604,50.391Zm172.8179,39.4803c-.0733-.7571-.3319-1.2608-.7387-1.5809.4068.32.6655.8236.7388,1.5804.8359.6155,1.1639,1.3705,1.278,2.1771-.1142-.8066-.4421-1.5613-1.2781-2.1766Zm103.3992,101.1593c.37441-.3724.7489-.7448,1.1233-1.1173-1.9951-.7566-3.9658-1.002-5.923-.9726,1.9574-.0294,3.9279.216,5.9232.9726,2.6956.1322,5.3912.2643,8.08691.3965-3.04421,1.1788-6.143.6458-9.21041.7208Z"/><path class="cls-1" d="m317.45424,149.16942c.1798-.0304.3317-.0753.4602-.1324-.1285.0571-.2806.1021-.4605.1326-1.2438.5448-2.5925.9413-3.2482,2.3118-1.2014.2553-1.2324,1.6629-2.1569,2.1909-.7629,5.1929,2.4762,8.4934,5.6024,11.8474,2.6761,2.0407,6.4257,3.46,4.3764,8.0958,2.3606.1821,2.9838-2.3471,4.8852-2.4539,2.1205-2.4285.3733-2.8054-1.6189-3.0524-1.5879.0785-2.6687-.7833-3.5918-1.9372l-.0472.0184c-2.6495-1.4029-4.232-3.8477-5.95739-6.1419-1.78831-2.3781-2.08761-4.9076-.59951-7.5619.4361-.2056.8722-.4113,1.3081-.6168,1.5655-.716,2.6755-2.6794,4.8363-1.767.84711-.9877,1.6936-.9691,2.5402.0009.0005-.0005-.1233-.344-.1233-.344l.3215-.173c.5079-.4025,1.3202-.5577,1.1948-1.4735-2.1726-.4266-4.34509-.8532-6.5179-1.2797-7.4084-5.2649-7.7888-7.8908-1.38919-14.8051,3.52449-3.8078,6.59329-7.899,9.56689-12.1117,1.2983-1.8395,1.06611-2.8301-1.0301-3.7341-4.4904-1.9364-5.0203-3.6419-2.7093-7.777.8227-1.4717,1.8659-2.7287,3.3398-3.5896,2.9324.0439,5.8653.1291,8.7973.1109,1.12-.007,2.3876-.285,2.2995-1.7315-.0764-1.2548-1.1807-1.7432-2.3489-1.9158-2.21419-.3269-4.3868-.0911-6.5329.4901-4.323-.9909-5.7611-2.8933-4.51329-6.7348,1.99669-6.1471,6.42579-9.5387,12.82409-10.3702,1.7747-1.1676,3.8786-.8707,5.8176-1.3082l.0508.1516c.2076-.6473.7572-.8239,1.3308-.9675-.0532-.5561-.1065-1.1124-.1597-1.6686-1.2184-.7468-1.2425-1.3777.1812-1.8683.579-.3199,1.158-.6399,1.73721-.9597,1.75249-1.2767,3.59989-2.2042,5.86529-1.5964.14771-.55.2956-1.0999.4435-1.65-5.22979-1.5637-8.5994,1.7326-11.8926,4.8069-.8965.8369-1.2239,2.23-2.8145,2.1096-.5023.3616-1.01469.4926-1.5522.0709-2.3879,1.1883-4.7758,2.3767-7.16349,3.5662-4.54291,1.5119-5.03091,6.0683-7.09161,9.4434-.0696,3.2904.7527,6.2753,3.0052,8.77l-.0001.0002c-.37749.3972-.7546.7946-1.1313,1.1916-.6498.488-1.2987.976-1.9471,1.464-1.7576,2.967-2.4277,6.1075-1.5152,9.5006,1.442,1.0475,2.8842,2.0949,4.539,3.2972-1.1654,1.754-2.34989,3.5362-3.53289,5.3199-3.45191,2.3252-4.74871,6.3804-7.43651,9.2856-3.0442,3.2902-3.61949,6.6884-1.4681,10.5834,1.5543,1.8523,4.5339,2.2032,5.2273,4.9623Zm17.4666-45.9818c-1.4899.6287-2.8667.6061-4.3356-.1437,1.5038-.3679,2.8924-.7254,4.3356.1437Z"/><path class="cls-1" d="m442.76383,89.60482c-.1109.0911-.2232.1805-.3341.2715.0493.0089.0954.0114.1457.022-.0033.0044.1859-.2965.1884-.2935Z"/><path class="cls-1" d="m25.25364,275.75712c-.3885.0377-.7767.0756-1.1649.1137-1.6272,6.704-.9211,13.4658-.3517,20.1965.2776,3.2792.6541,6.6301,2.6269,9.4856.476.0103.9521.0208,1.4281.0311-2.5645-9.7959-2.547-19.8117-2.5384-29.8269Z"/><path class="cls-1" d="m14.29054,377.08062c2.3118-.5027,5.4335,1.1972,6.6271-2.3459-1.4686-.0958-2.937-.1918-4.4056-.2874q-3.2771.7518-2.2215,2.6333Z"/><path class="cls-1" d="m37.64724,273.67712c-.0001-.0239.0034-.0474.0028-.0714-.0445-.0487-.0878-.0865-.1313-.1274.0189.0596.0319.1198.0551.1786.0245.0094.049.0117.0734.0202Z"/><path class="cls-1" d="m437.82893,72.50372c-2.0629,2.1212-5.89439.6548-8.0768,3.8615,3.9967-.0459,7.4156-.9939,10.8425-.2134,5.6084,2.5155,6.1045,3.9271,3.1128,9.4404-.54889,1.0117-.91,1.9536-.7184,3.0837,5.3107-4.6827,5.8547-7.7317,2.3132-12.9698-.7558-.2924-1.5119-.5848-2.2676-.8771-.1395.6463-.4518.9316-.8468,1.0439.395-.1124.7072-.3977.8466-1.0441-.6832-.2069-1.3144-1.0541-2.0856-.1686l-.0115-.0042c.2174-2.9233-2.759-4.1158-3.5256-6.5059-.4307.43-.8613.86-1.2917,1.2899.5699,1.0213,1.13951,2.0426,1.7089,3.0637Z"/><path class="cls-1" d="m429.60843,155.10342c.0745-.086.1412-.1847.1896-.3139-.0019-.0204-.0049-.0409-.007-.0612-.0231-.0095-.0462-.0189-.0692-.0283-.0724.1645-.1021.2922-.1134.4034Z"/><path class="cls-1" d="m453.20913,214.57652c2.5809.0736,1.6267-2.2697,2.3635-3.457-.1546-.3288-.12309-.6384.0947-.9293-.1676-2.7478,1.4041-4.4328,3.5308-5.7788,0,0-.0069-.1124-.0081-.1129.9622-1.2872,1.9261-2.5739,2.8899-3.8605-.51439-.0531-1.0288-.1062-1.5432-.1591-5.1696,3.3683-7.9119,7.9805-7.3276,14.2976Z"/><path class="cls-1" d="m117.40824,291.85762c-6.1366,3.0507-12.5103,1.6652-18.7619,1.0976-4.5665-.4146-4.8337-.616-4.5045,3.8899.4968,6.8007,1.1093,13.5931,1.6726,20.3889.9489,1.4167,2.109,2.8588-.4632,3.8519-1.8345,1.2003-1.7277,2.8284.2731,3.0062,7.3328.6519,14.6977,1.3274,22.0475-.1619,2.9827-.6044,4.5703-2.1841,4.7115-5.2193.0683-1.4703.2609-2.9426.2169-4.4087-.1944-6.4448-.4468-12.8878-.6956-19.3309-.0734-1.9034-2.7567-3.9787-4.4964-3.1137Zm-.7841,19.8856c-.375,2.3488-.902,4.6731-1.2967,7.0192-.4889,2.9063-2.0276,3.1675-4.2801,1.7922-.3901-.0807-.7802-.1612-1.1702-.2418-1.5984.3292-2.6514-1.2211-4.1481-1.2081-.603.0053-1.6225-.26-1.0697.9598.187.4125.738.6601,1.2299,1.0734-7.661.4938-8.546.3868-9.2653-5.9381-.756-6.6482-1.9559-13.4053-.8884-19.9783,3.3446,0,6.4493.0316,9.5528-.017,1.0963-.017,1.6952.4961,2.03,1.4387.1218.3426.1824.7147.219,1.0786.825,8.2161,2.6066,7.1297-5.2366,8.7764-.4993.1051-.9591.4382-1.4054.7163-.0826.0513-.0118.3486-.0118.7726,2.7581,1.2899,5.0828-1.5156,7.7254-.9709.0502,4.4677,1.9744,8.7567,1.2682,13.2966.39.0806.7801.1611,1.1734.2408.6883-.432.9718-1.0653.833-1.8457-.6989-3.9314-1.4159-7.8596-2.1266-11.789.2532-.2485.4718-.6604.764-.7217,6.48-1.3575,7.1141-.7891,6.1032,5.546Zm-5.9905-7.4346c-.3912-.2214-.7033-.8327-.7813-1.308-.1785-1.0869-.1567-2.2045-.2739-3.3035-.5088-4.7631-.2924-4.8773,4.3165-4.8137,2.2153.0307,2.9634.9568,2.9898,2.9425.0121.921.0975,1.8409.1496,2.7614.0799,2.9979-3.7202,5.2378-6.4007,3.7213Zm8.628,16.8814c-1.1869-1.2024-.654-2.2948-.4918-3.3167.3927-2.4768.852-4.943,1.2844-7.4135.3938.1004.7876.2009,1.1814.3012-.0824,3.5018.956,7.1997-1.974,10.429Z"/><path class="cls-1" d="m173.66164,160.92442c1.9946-.3451,3.967-.8056,5.9673-.3298.9205,2.5152-2.0751,1.2597-2.4138,2.5523.6368.9984,1.7069.4801,2.5141.8.90931-.15,1.8189-.2999,2.7286-.45.7709-1.0087,1.8398-.8587,2.89871-.7459l-.06161-.3112c1.5103.1202,3.02061.2404,4.5311.3605.34151-.0994.6889-.1713,1.0418-.2155.2708-.3135.4723-.6471.5492-.9529-.0769.3058-.2784.6396-.5492.9531.1819.2989.3481.6063.5018.9222,1.0054-.177,2.1694.1378,2.8732-.9451,1.4524-.7376,2.13171-1.7536,1.2049-3.3475-.3711-.0225-.7421-.045-1.1134-.0674-1.2361.1378-2.4936.0667-3.749.0169,1.2554.0498,2.5129.1208,3.74921-.0171.37109.0226.74209.0451,1.11319.0676.03481-.6503.0697-1.3005.1045-1.9507.5437-.5366.7445-1.1378.3477-1.8506-.917-9.7625-.8033-19.5396-.3297-29.3143.0996-2.0568-.2412-2.9154-2.6472-2.8963-3.6433.029-7.291-.5372-10.9369-.8505-.7454.1731-1.3869.0162-1.8882-.5919-.1865.1798-.3849.1972-.5975.0531-.5222.6035-1.1697.7001-1.8982.4695-2.4879-.0987-5.0074.0135-7.4545-.3563-2.3754-.3589-3.1859.721-3.4788,2.6957,2.2599-.8095,4.6245-.4602,6.9367-.5146,6.64191-.1564,6.9808.309,6.0405,7.3332-2.2814,1.475-4.6129.8469-6.9457.1661-1.7555.3025-3.5102-1.0057-5.30089-.1275-.0995,2.3693,1.6185,2.2002,2.9822,2.2528,3.0977.1197,6.2005.1025,9.3014.141.1979.4927.407.9741,1.0443,1.0142.0519.7072.1039,1.4142.1558,2.1215-1.2498.9002-1.0012,2.2659-1.0174,3.5014-.0718,5.4724-.0908,10.9455-.1288,16.4181-4.317,1.2227-8.7108,1.3946-13.1487.9589-1.6535-11.0604-2.0628-22.1235-.0763-33.1918-2.6519-.3782-3.4526,1.2002-3.5248,3.512-.1144,3.6717-.207,7.3438-.3087,11.0159.5913,3.3174.3066,6.6613.3012,9.9966.358,2.4088.6587,4.82.295,7.2582.3037.5237.6074,1.0472.9111,1.5708-.2442.3027-.4886.6053-.7308.9108.3002.736.5986,1.4693.8968,2.2027,3.1278.9112,6.2248.2956,9.3098-.2382Zm10.7733-.7678h.0002c.04541.1206.0907.2412.1361.3617-.0454-.1205-.0909-.2411-.1363-.3617Zm-.37039-28.5483c-3.05211.1993-2.16781-2.1805-2.216-3.9085-.04861-1.735-.19351-3.4812,2.38049-3.297,2.9494.2109,5.8989.4223,9.4969.6799-3.1996,1.9752.1564,5.5801-2.732,7.4327,1.1018-.1059,1.7765.3444,1.74161,1.4978-.20051,6.6173-.45951,13.2328-.62141,19.8509-.0481,1.9629-1.2281,2.5134-2.8259,2.6135-2.3812.1492-4.7684.2046-7.1531.2996-.1205-6.6691-.2409-13.3384-.3613-20.0076-.1535-2.0421.2364-3.4079,2.8359-3.3368,2.074.0567,4.2929.4808,6.234-.7995-2.3051.0018-4.3959-1.1808-6.77919-1.025Z"/><path class="cls-1" d="m166.66894,124.62232c-.0507.0181-.1021.0289-.1528.0482-.0014.0085-.0027.0167-.0041.0251.0476.0068.0912.0094.1402.0175.0044-.0322.0119-.0591.0167-.0908Z"/><path class="cls-1" d="m91.18834,161.81402c9.003-.1222,18.0125.0028,27.0035-.9776,3.2755-.3574,3.2415-1.4998,2.8662-4.2196-1.2341-8.9399-2.2659-17.9172-3.0268-26.9096-.5369-6.347-.2843-6.3835-6.5834-6.373-.9142.0015-1.828.2293-2.7419.3522.028.2526.1278.4336.2641.5782-.1363-.1446-.2361-.3256-.2641-.578-6.4845.6052-12.6735,2.8686-19.1827,3.3933-1.5365.1237-2.6505,1.1615-2.4868,2.984-1.0772,1.7095-.4253,3.6022-.5875,5.4106-.6802,7.5886,1.357,15.0358,1.1435,22.5979-1.2651,3.5924,1.6171,3.7683,3.5959,3.7416Zm15.8704-2.4665c.7152-.0295,1.4257-.1207,2.1287-.3076-.703.1869-1.4135.2781-2.1287.3076Zm9.3107-18.0868c-.0745,4.0267-.1254,8.06-.4121,12.0747-.3205,4.4885-.4278,4.4809-5.0144,5.0071l.0002-.0001c-.9038.0276-1.8078.0755-2.7122.0801-3.7589.0193-3.5181-.0386-4.4009-4.0521-.8567-3.8954.0519-7.9559-1.3889-11.7483-.0936-.9101-.1688-1.8222-.2846-2.7296-.2953-2.3145.9702-2.9593,2.9503-2.6595,3.2428.4906,6.4664,1.1074,9.7086,1.6019,1.5205.2319,1.5735,1.3727,1.554,2.4258Zm-28.1535-11.0519h-.0005c1.2101-.9998,2.7472-.9687,4.1633-1.2844q7.3538-1.6399,7.7951,5.9568c.5889-.0164,1.178-.0328,1.7667-.0493.6925-2.5931-1.0709-5.9122.9006-7.7368,1.6344-1.5127,4.6341-1.5505,7.0288-2.2414v.0001c4.8006.4353,5.1613.6922,5.3994,4.8883.1436,2.5338.0264,5.0824.0264,7.9924-4.4577-.9687-8.9066-1.9358-13.3552-2.9026-.5887.0165-1.1778.0329-1.7665.0493l-.2579.4026c-.5356.6141-1.1703.7172-1.844.6179.6737.0992,1.3085-.0042,1.8444-.619-.8239.1592-1.6482.3196-2.4724.4798-2.4701.3688-4.9401.7376-7.7763,1.161q2.4144,1.8374,6.8202.7428l-.0007.0004c1.4354.3391,2.9871-.1712,4.3656.5932.1216,1.3986.2432,2.7972.3649,4.1958-.4653,2.0123.1815,3.9545.3662,5.9268.2693,2.8752.9605,5.7437.179,8.6412.3354.6613.4391,1.3332.0921,2.0254-3.1398-.2272-6.3907,1.0382-9.4199-.6989-.9402.5041-1.7087-.0993-2.5257-.3872-1.6971-9.1825-.8141-18.5223-1.6936-27.7542Zm11.362,6.6999c-.401-.1665-.8262-.1574-1.2644-.0516.4382-.1058.8632-.1151,1.2644.0516Zm-1.3859-.0248c-.001.0003-.0018.0007-.0027.0009.0009-.0002.0018-.0006.0027-.0009Z"/><path class="cls-1" d="m192.22364,271.86262c.8554.1356,1.6344-.7061,1.9518-1.6621.5758-.3161.6864-.7695.3952-1.3411-.17409-2.0918-.3486-4.1834-.5232-6.275.19211-6.3149.8596-12.6269.11111-18.9474.10419-1.7682.20839-3.5363.31259-5.3044.0715-.1475.2417-.3494.1962-.4324-.1409-.2565-.3643-.4675-.5557-.6961l.1361-.3136c-1.2844-.2864-2.5687-.5731-3.8554-.8599-7.1987-.8519-14.152.8313-21.1751,1.9291-2.5603.4001-1.4119,1.9615-1.4403,3.2278-.0896,1.2788-.2111,2.5561-.2639,3.8365-.3364,8.1758,1.5804,16.1348,2.3474,24.2049-.2531,2.1432,1.3176,2.1936,2.775,2.5209,6.5199,1.4643,13.057-.9228,19.5882.1128Zm-.2639-11.5907c.0037.4303.0347.8436.15881,1.1989-.12421-.3553-.15511-.7686-.15881-1.1989Zm.0093-1.0236v.0001c-.8621-3.2894-1.1513-6.5763-1.1339-9.9676-.0174,3.3912.272,6.6782,1.1339,9.9675Zm-3.2991,8.7668c-1.9543.3562-4.1843,1.0459-4.5612-2.1139.9015-5.6205-.6237-11.2213-.1354-16.8383,4.78621-1.1015,4.7244-1.0971,5.0253,3.0377.2927,4.0204.6751,8.0366,1.1302,12.0419.1836,1.6169,1.0779,3.4105-1.4589,3.8726Zm-5.5497-30.2759c1.3126-.7224,2.1971-.3835,3.0928-.3399,2.6072.1269,3.5091,1.384,3.0121,3.929-.20659,1.0583-.0364,2.197.0099,3.297.11,2.6081-1.7606,2.2018-3.3868,2.3328-1.8201.1469-2.775-.4667-2.7385-2.4029.0445-2.3579.0105-4.7175.0105-6.816Zm-11.01469,30.1782c-1.7521-9.0959-2.6938-18.2584-2.2581-27.5336,2.095-1.3055,4.5726-1.3338,6.8679-1.9002,1.3904-.3433,3.1945-1.4169,4.5057.3089.812,1.069,1.0568,7.322.412,8.0948-.6424.77-1.6374.6563-2.492.9203-2.1336.6592-4.7961-1.0085-6.5003,1.4778,2.3103,2.6439,4.601-.5722,6.91881-.0336.70419.1633,1.46169.0968,2.19479.1357.4931,5.5033.98621,11.0064,1.4795,16.5096-.4667.9065-.3009,2.4493-1.6452,2.5153-3.1653.156-6.4223,1.4508-9.48309-.495Z"/><path class="cls-1" d="m200.91184,307.39822c-.2382-4.7856-.7567-9.547-.7179-14.3613.0331-4.126-1.1501-4.7351-5.074-3.52-1.6309.505-3.2921.2267-4.9438.0647-4.5419-.4458-9.0848-.8848-13.6273-1.3267-1.3864.0397-2.9268.391-2.4094,2.0795,1.0028,3.2729.5232,6.8591,2.2342,9.9495.0808,1.0946.1616,2.1891.2424,3.2837.096,5.8104.9538,11.4914,2.8822,16.9909,1.7455,1.6263-1.8212,1.7693-.9406,3.1497.2263.081.4115.2207.5653.1919,7.3529-1.3685,14.683-3.2899,22.1371-.4421.9334.3565,1.9439-.0993,1.9939-1.2439.07761-1.7727,1.3452-3.578.02361-5.3291-2.13931-2.8345-2.20091-6.1807-2.36571-9.4868Zm-17.4795,11.4247c-1.6821-.8527-3.6232-1.0663-3.6781-3.9079-.0665-3.438-.9961-6.8595-1.5529-10.2879,2.6509-1.0133,5.2326-2.2994,8.1969-2.077.7799,5.5503,1.5596,11.1006,2.3395,16.6509-1.7684-.126-3.537-.2521-5.3054-.3781Zm6.1595.4417c.1352-1.1848.7523-2.1432.5965-3.5587-.5192-4.7117-2.2585-9.3319-1.3339-14.175,1.8059.0001,3.61211.0001,5.7583.0001-.6539-1.6804-2.0885-2.0371-3.3759-1.9353-2.9255.2304-4.076-.8949-3.7109-3.8036.1254-.9979.29861-2.1977-1.1847-2.8996-1.541,1.1463-.4226,2.4625-.218,3.7279.5095,3.1511.03331,3.9095-3.15369,4.4718-1.909.337-3.97551,1.0109-5.66951-.7223.3834-1.6341-.2849-3.1873-.35249-4.7751-.07891-1.8517-1.11721-3.8897.68889-5.5245,5.43211.9073,10.9169,1.2901,16.4092,1.3987,2.5768.0512,3.754.9532,3.485,3.5945-.1674,1.6448-.1707,3.3062-.2623,4.9592-.1727,3.1168-.8811,6.2486-.2839,9.348.54611,2.8351,1.4647,5.5984,2.259,8.5405-3.02989,1.7209-6.379,1.2918-9.6516,1.3534Z"/><path class="cls-1" d="m170.96884,220.14422c4.048.6188,8.0786.2944,12.119-.1435,2.7263-.2954,5.336-.509,8.071.8364,3.141,1.5451,5.8279-.3382,6.0673-3.7866.0875-1.2601-.1394-2.5666-.3829-3.8207-1.9383-9.9861-3.313-20.0122-2.5831-30.2298.1176-1.6465-.00359-3.3183-.1243-4.9703-.06129-.8378-.8165-1.2816-1.5422-1.2605-.4097.0118-1.1932.6995-1.1436.9508.7331,3.7037-1.69549,3.1534-3.9608,3.1766-2.9455.0305-5.8883.3277-8.8321.5102v-.0002c-2.9417-.0635-5.88559-.2228-8.825-.1663-3.6024.0692-4.6026,1.1105-4.1015,4.7027,1.2988,9.3128.8052,18.7248,1.6956,28.0641.2703,2.8332,1.05,4.8417,3.5426,6.1371Zm22.2262-8.6407c.2422,5.1732.157,5.1802-4.993,5.2989-1.6524.0384-3.3053.0562-4.958.0833-1.6746-6.6218-1.0871-13.4069-1.445-20.1235-.1097-2.0604.5438-3.4201,2.9361-3.646,2.3467-.2215,4.6531-.9437,7.033-.3006-.1348,6.2768,1.1346,12.447,1.4269,18.6879Zm-9.9917-28.8686c.359.0004.7183.0082,1.0769-.0005,8.3937-.2001,7.70731-.4641,7.4494,7.3825-1.9869.3774-3.9628.961-5.96409,1.0673-1.60611.0852-3.78781,1.2628-4.57831-1.5057-.83669-2.9297-.188-5.2731,2.0161-6.9436Zm-1.7397-.1542c-.3324.0423-.6665.0908-.9887.0956.3224-.0048.6563-.0534.9887-.0956Zm-13.8992,4.2142c-.0964-1.9906.6945-3.1581,2.8455-3.0891.366.0119.7353-.0968,1.1017-.0873,7.1552.1852,7.3516-1.7798,7.9516,7.2182-2.5319,2.074-6.1521-.0988-8.7058,1.9915.4933,1.5874,1.5231,1.5674,2.7014,1.5236,6.1752-.2289,6.3208-.214,6.6639,6.0088.30381,5.5086,1.2392,11.0017.6337,16.5464l-.0323.017c-2.39659.0232-4.794.0911-7.1899.0598-3.9769-.052-4.3824-.2002-4.6631-4.2947-.5914-8.6206-.8893-17.2616-1.3067-25.8942Z"/><path class="cls-1" d="m94.74114,269.28492c-.4808-1.1406-.4481-2.1189.8554-2.6933.5179.192,1.2253.231,1.5237.6005,2.2569,2.7936,7.3581-1.7288,8.6549,3.393.2658-.2076.7264-.3833.7669-.6283.3459-2.0915,1.9995-1.7801,3.4057-1.919,2.0381-.2008,3.9794.0829,5.9671.6924,3.3482,1.0266,4.333.3044,4.7712-3.0436.0944-.7203-.0257-1.468-.0424-2.2032-.1921-8.462-1.7221-16.8352-1.6559-25.3178.0173-2.206-1.4467-3.0019-3.3561-2.3651-6.5806,2.1941-13.3838,2.2783-20.1952,2.3935-1.521-.1534-3.0732-.5861-4.4583.4939-.829.3831-2.6243-.0502-1.9511,1.7042,1.095,2.8537.4123,5.8213.8957,8.6958-.9628,7.0045.8797,13.7076,2.2307,20.4586.2022,1.0104.4198,2.4124,1.9271,2.0055,1.0109-.273,1.0588-1.3215.6606-2.2671Zm22.2133-5.3418c-.8936.3427-1.0625.4564-1.2376.4672-10.6413.6536-9.2439,2.372-9.5681-9.2219-.0543-1.9398.7952-2.6377,2.6134-2.5759,1.1008.0374,2.2099-.0035,3.3081-.0951,2.003-.1669,3.1322.491,3.1283,2.7182-.0053,2.9252,1.045,5.7076,1.7559,8.7075Zm-6.5047-25.1446c1.3997-.2912,2.7685-1.0318,4.5375-.2778.6315,4.0635-.2327,8.2133-.1225,12.3833-.8109.1758-1.3422.4112-1.8604.3854-8.892-.4406-6.4896.2047-6.9979-7.3326-.2834-4.2025.0301-4.2402,4.4433-5.1583Zm-6.0902,1.2685v.0001c-.5919-.8151-1.3237-1.0113-2.0955-1.0315.7718.0201,1.5036.2162,2.0955,1.0314Zm-12.1854,15.6173c-.2137-2.1462.306-4.4099-1.0878-6.3522-.0431-2.0183.0724-4.0559-.1681-6.0505-.3258-2.7025,1.3881-2.9413,3.3009-3.1083,2.9762.0044,5.9525.0086,8.9287.0129.404-.0394.8079-.079,1.2117-.1189-.0394.4487-.0787.8973-.1183,1.3459.1606.715.3709,1.423.4738,2.1461q.9953,7.0003-6.237,7.3389c-1.0834.0529-2.1666.2804-3.2259.5299-.2699.0633-.4475.5197-.8871,1.0708,2.3914,1.6514,4.933.4028,7.2466.3631,2.5819-.0442,3.8121.7545,3.8241,3.313.013,2.7248.003,5.4498.003,8.5366-2.4868.4426-4.7158.241-6.9317-.7284-1.3281-.5811-2.6963-1.3211-4.1288-.2025-.0355.572.1562,1.0453.4134,1.4904-.2572-.4451-.4491-.9184-.4135-1.4903-2.1776-2.3047-1.9233-5.2804-2.204-8.0965Z"/><path class="cls-1" d="m91.13164,214.94012c-.7,1.0302-1.8212,1.9588-.77,3.3937.8577,1.1703,1.9254.4683,2.9815.4525,6.6651-.0995,13.3446-2.8915,20.0132.2306,1.7364.8128,2.6715-.3545,2.9865-2.1145.7785-4.3482,1.3497-8.6864.8082-13.1295-.8001-6.5658-1.2418-13.1529-.4375-19.7596.156-1.2821.2521-2.523-.1735-3.8098-.781-2.362-1.123-2.3812-3.4611.0171-4.4416.8371-8.9326-.4072-13.377.3148-1.9559-.2451-3.9213-.4339-5.8645-.7556-1.2446-.2062-2.7261-.7708-2.9914,1.0175-.2371,1.5992,1.1869,2.0705,2.5122,2.0817.6669.0057,1.3373-.4164,2.0055-.6449q5.3834.5814,5.4804,5.5517c.0207,1.0912.0297,2.1828.0285,3.2741-.0053,5.1473-.4507,5.5841-5.5002,5.4418-1.6712-.0471-3.2576-.3363-4.5478-1.5182v-.0006c.0007-.8003.0014-1.6002.0021-2.4002,0,0-.0678.0007-.1527.0016.0851-.0009.1529-.0017.1529-.0017.0019-.3973.0035-.7944.0054-1.1915-.0736-1.7409.9802-3.5849-.4795-5.2638-1.3235,1.6942-.5562,3.5288-.5078,5.2932.0041.3787.0081.7575.012,1.1362.7061,2.0245-2.2199,3.3378-1.0673,5.4498,1.0524,1.6695.8353,3.5711.9304,5.3969.2019,3.8813.4804,7.7472,1.4115,11.5367Zm11.0928-12.2509c.1354-2.611.9452-4.2126,4.0295-3.7354,1.3202.2041,2.8039.7078,4.3403-.3147-.6414-1.4855-1.7214-1.7638-3.0914-1.5056-.8939.6841-1.8729.8869-2.8773.9472,1.0044-.0603,1.9834-.2632,2.8773-.9474-1.0443-.0864-2.0884-.173-3.1327-.2594h-.0004c-2.6576-2.147-1.5441-5.079-1.4721-7.7072.1799-6.5562.2611-6.5525,6.9551-6.6306.7383-.0087,1.4767-.0476,2.2148-.0725,1.4667,8.6777,2.6293,17.4025,2.3833,26.2136-.1295,4.646-1.0695,5.5048-5.6623,5.5722-2.2458.0329-4.7306,1.4253-6.8456-.5538.6929-3.6526.0916-7.3388.2815-11.0064Zm-6.9177-3.5385c1.8096.085,3.6207.1393,5.431.2072.0542-.1711.0828-.3426.0856-.5146-.0028.172-.0314.3435-.0854.5145.3081,4.7767-.4561,9.5776.3204,14.3439-2.4419,1.7703-5.0967,1.8405-7.8671.9841-.7502-3.9335-.988-7.9119-1.2181-11.9041-.1489-2.5833.7563-3.7526,3.3336-3.631Z"/><path class="cls-1" d="m261.80434,287.96832c.5481-.0258,1.08921-.1779,1.6359-.2563,19.1196-2.7357,38.2408-2.0385,57.3624-.0233,3.35091.6997,6.7224.7437,10.1084.3161.3787.0026.7572.0053,1.1361.0077,12.8929,1.7132,25.7808.6518,38.6697-.0672h16.4003c-.0331-1.073-.38859-1.8163-1.1859-1.8826-6.2243-.5179-12.4512-.868-18.6086.6427-9.2179.1214-18.4359.2431-27.6538.3648-2.9402-.0345-5.88029-.0691-8.8206-.1036-1.6858-1.5226-3.6854-1.23-5.6775-.98-4.048-.2606-8.1076-.4046-12.1423-.8021-17.1326-1.6879-34.23789-1.1638-51.3364.4699-.8744.0834-2.06249-.0523-2.0044,1.2293.0572,1.2622,1.2131,1.1277,2.1167,1.0846Z"/><path class="cls-1" d="m335.39093,325.01412v.0001c-2.0077-.2496-4.0086-.617-6.024-.7274-6.63039-.364-13.3073-.2755-19.8893-1.0321-8.264-.95-16.5619-1.1167-24.8373-1.6211-7.3411-.4475-14.7565-.4831-22.0874.6142-.7973.1194-2.4659-.6406-2.2685,1.3623.3614.1301.7094.3738,1.0462.3592,16.4235-.7124,32.8257-.2992,49.2135.9062,8.2713.6084,16.5362,1.4535,24.8445.6598,10.8907.1135,21.7816.2192,32.672.3476,1.8437.0219,4.3596-.6027,5.4097.3476,3.9931,3.6134,7.5366.7917,12.0687.2629-4.9392-2.1467-33.0847-2.7877-50.1481-1.4793Z"/><path class="cls-1" d="m270.33294,303.08802c2.4882.2791,4.9772.3486,7.468-.6054,8.0277.634,16.0575-.0799,24.0823.1377.521.1695,1.0402.4799,1.5638.4878,12.8298.1955,25.6604.3591,38.4907.5283,10.0682.1073,20.1373.1599,30.2044.3457,4.708.0868,9.514-.3902,13.9842,1.7225,1.8177.3088,4.77121,1.0764,4.809-.9336.0354-1.8764-3.0313-1.2634-4.874-1.0792-3.827-1.8699-7.9479-1.2588-11.9607-1.2956-10.7163-.0986-21.434-.0444-32.15109-.0507-4.77141-1.6922-9.687-.8382-14.55481-.8235-18.1979-.4514-36.3988-.5759-54.5977-.2013-2.4988.0514-5.1861-.3684-7.5038,1.1637-3.73569-.6674-7.23269,1.582-10.9698.8975-.0711-5.352-.0926-10.705-.2272-16.0554-.1296-5.1474.8416-10.3462-.2532-15.7048-.7079.4536-1.224.6111-1.2483.8247-1.16919,10.2549-1.4088,20.5074.2392,30.7411.0254.1579.2218.2882.3385.4312-.035.7371-.07,1.4743-.1052,2.2113.7725.0357,1.545.0713,2.3174.1068,4.8723-1.67,9.8928-2.3791,14.9483-2.8488Z"/><path class="cls-1" d="m395.84893,120.07682c8.0857-1.026,12.09261-7.2081,8.683-13.2791.7943,6.79-3.5109,10.3032-8.683,13.2791Z"/><path class="cls-1" d="m388.44593,104.62332c-7.47339-5.0337-14.0401-5.9303-17.7585-2.0552,5.5632-.3513,10.8106-.3623,15.5736,2.3691,2.9929,3.1079,6.5552,6.0452,3.301,11.0246-2.6014,2.089-5.4423,3.729-8.594,4.8775-1.4723.5365-3.5396.5682-3.8162,2.6633-.291,2.2062,1.5304,3.1546,3.0099,4.2455,2.2247,1.6403,4.4324,3.3037,6.6526,4.9503,2.538,1.8823,4.7803,4.0785,6.5816,6.6627,1.8753,2.6908,1.6538,3.7233-1.1307,5.2614-1.599.8831-3.3824,1.4268-5.0605,2.1731-5.7225,2.5448-8.4773,7.3686-10.5728,13.1424,1.388-.0745,1.932-.5979,2.267-1.2568,3.07161-6.0395,7.8608-9.8357,14.2169-12.2981,4.685-1.815,4.9091-4.6387,1.5785-8.635-3.2109-3.8526-7.1883-6.8572-11.1386-9.8903-1.4088-1.0816-3.3037-1.7419-3.7324-4.0964,3.2847-1.8279,6.9637-3.1131,9.9225-5.6079,5.0634-4.717,4.615-9.3872-1.2999-13.5302Z"/><path class="cls-1" d="m454.08593,142.47262c.2013-3.167-2.596-3.5064-4.5452-4.3151-1.9633-.8143-4.2013-.9668-6.3188-1.4093-.0817.776-.1636,1.5522-.24539,2.3283,4.15919-.3434,7.86289.7867,11.10939,3.3961Z"/><path class="cls-1" d="m454.18413,144.81632c-.0002-.0404-.0004-.0807-.0005-.121-.0314.0182-.055.0365-.0875.0548-.0002-.0001.0246.0185.0487.0368l-.0489-.0369c.0035.0479.001.0913.0032.1382.0279-.0247.0572-.047.0852-.0719h-.0002Z"/><path class="cls-1" d="m427.50454,115.29112c-.59661,5.1541-5.68171,4.7232-8.91571,6.6725,1.1686,1.2158,2.3395.5984,3.36.8216,6.5183-2.4292,5.4825-1.1866,5.55571-7.4941Z"/><path class="cls-1" d="m454.17483,142.65612c.0029.6797.0059,1.3595.0088,2.0392,1.1781-.6879,1.353-1.3687-.0088-2.0392Z"/><path class="cls-1" d="m454.17483,142.65612c-.0002-.0393-.0004-.0785-.0004-.1177-.029-.0236-.0595-.0423-.0885-.0658-.003.0457-.0002.0861-.0045.133.0363.0167.0592.0336.0934.0505Z"/></g></svg>