<?xml version="1.0" encoding="UTF-8"?><svg id="_レイヤー_2" xmlns="http://www.w3.org/2000/svg" viewBox="0 0 734.4575 397.9303"><defs><style>.cls-1{fill:#231f20;stroke-width:0px;}</style></defs><g id="Warstwa_1"><path class="cls-1" d="m687.58696,365.3456c.0535.0069.1077.011.1615.0171.0056-.0157.0126-.0279.0185-.0441-.3976-.4133-.7475-.6757-1.0641-.8332.1279.288.3931.5766.8841.8602Z"/><path class="cls-1" d="m730.68666,388.1333c-1.982.664-3.9518.6977-5.9048-.116-1.9858.6361-3.9652.6808-5.9369-.0605-4.928.1115-9.8468,1.0688-14.7854.1577-1.9691.7855-3.9814.6872-6.0083.295-2.906.4478-5.7882.3727-9.0488-.3107.238-2.5766,2.7863-3.3156,3.6606-5.1326-.1746-1.3484-.3493-2.6968-.5239-4.0452q-3.8199-.7642-1.3375-5.9431c.9172-.6322,1.8346-1.2643,2.7516-1.8965.4295-1.1869.8595-2.3737,1.2897-3.561-1.8288-2.5071-4.5992-1.874-7.0945-2.1577-.8262,2.2222-2.665,1.2439-4.1814,1.285.9235-1.1048,1.6246-2.9139,3.1358-2.1623-.2873-.646.1931-1.288.9101-1.8594,1.8835-1.5007,3.0347-3.1193,1.3836-5.4815-.8109.0925-1.6218.1849-2.4329.2773-3.3538,1.5688-6.0726.6158-8.3468-2.1022-2.4203-.8622-3.0931-2.6353-3.2518-5.1192-1.1789-18.4689-4.6534-36.7562-4.4534-55.3348.0929-8.625-2.1055-16.9337-3.2523-25.3875-.8592-1.4668-1.0378-3.0398-.7308-4.6883-1.5368-5.0364-.7215-10.5665-3.5818-15.3756-1.9815-3.3318-3.3756-7.0131-5.0322-10.5381-3.5418-4.0234-7.9389-6.883-12.6618-9.3009-1.2371.7929-2.3272.2931-3.3984-.3776-5.0981.7577-9.5901-1.3938-14.074-3.1856-4.3419-1.7349-8.436-1.8398-12.5757.3281-1.9771.3702-3.9544.7405-5.9317,1.1106-4.1127,5.5162-1.7188,11.005.0699,16.4962,1.9574,1.4221,3.5775,3.4474,6.3578,3.3512,3.4479-.1195,6.0529,1.7233,8.5404,3.7986.9973.4828,1.9945.9657,2.992,1.4485,3.5909,1.3212,7.9131,1.0248,10.4319,4.7168.6433.3955,1.2866.7912,1.9297,1.1869,1.2805.4255,2.2405,1.2019,2.7296,2.4935.5156.1401,1.031.2811,1.5466.4219.5028-1.0525.9398-2.0482.2817-3.2687-1.3901-2.5779.7651-1.786,1.917-1.9254l.0005.0005c-.6929,3.8648,3.823,3.1965,4.8451,5.5685.7306.011,1.4612.022,2.1914.0327-1.078-3.8799-3.2907-7.1723-6.3479-9.5715-3.3499-2.6289-6.0902-5.7405-8.1863-9.2715-3.1995-5.3894-8.5973-5.2801-13.5408-5.7844-3.5369-.3608-4.6898,2.6863-2.6488,5.9445.5107.8158,1.2601,1.4824,1.8997,2.2174-.0486.6827-.0972,1.3653-.146,2.0476-2.1745-1.5708-4.534-2.7329-7.157-3.3682-4.9162-1.1906-6.84-3.3506-7.0675-8.22-.1861-3.9854,1.7638-6.361,5.78-6.9858.4267-.0665.7926-.5266,1.1862-.8042,6.599,3.7394,14.2382,3.5821,21.2461,5.6949,9.016,2.7185,17.0549,6.7608,20.0936,17.0435,5.4093,18.3063,7.7383,37.0295,8.6343,56.0046.545,11.5423,1.1822,23.0804,1.7096,34.6234.157,3.4383.1075,6.8875.1051,10.3314-.0016,2.9838-1.0176,5.3005-4.2438,6.0412-2.3273-10.6888-1.1545-21.5468-1.5762-32.3286-.8166-20.8632-.8339-41.8453-8.7161-61.7107-.264-.6652-.679-1.2703-1.0237-1.9032-.7307-.0111-1.4613-.0221-2.1919-.0331.1382.9426.2765,1.8853.4157,2.8279,1.9764,4.2019,3.918,8.4466,4.7331,13.0369,4.0341,22.7172,5.0137,45.6328,4.2439,68.6518.3513,3.0882,2.0346,6.2869-.7567,9.1142q-7.4355-2.3344-12.992-.9384c-1.3798.9524-3.5987,1.151-3.2713,3.6385,5.9722-2.5971,9.9274,2.6842,15.4163,3.9329-1.4615,2.7094-4.2556,4.8999-3.4081,8.3535-2.7286.1796-2.4986-2.8564-4.1647-3.8318-.5511-1.8536.2218-4.318-2.5202-5.5663-1.7471,1.8116-1.231,4.0699-1.7723,5.9731-.8789,1.0406-1.3284,3.1516-3.3501,1.344-1.4173-4.6991-4.4919-3.1127-7.4533-1.9658-.3255.3035-.709.4589-1.1531.465-.8531,2.4911-.3445,4.9176.3493,7.3355.3234.8874.6458,1.775.9681,2.6631.8644,1.212,1.7288,2.4232,2.5934,3.6345.116.9269.2319,1.8541.3476,2.781.4011.3439.7466.7354,1.0089,1.1487-.2623-.4133-.608-.8048-1.0089-1.1487.2504,2.4995.2636,4.764-3.3567,4.3239-.9144-.111-1.8762.1676-2.8161.2671-.9883-.1628-1.9767-.3254-2.965-.4879-1.4777.0176-2.9556.0352-4.4332.053-8.4041,1.4742-16.9193.5659-25.7468,1.3392.6797-3.2168.7414-6.2574-.8613-9.274,6.9098-1.8536,12.689-5.149,18.84-7.5505,2.0132-3.8651,6.5268-6.7252,4.8496-12.0724-.7909-.2907-1.5418-.6117-1.292-1.6955-.4988-1.8709.5698-3.9255-.6696-5.7096-.7811.0826-1.5622.1652-2.3433.2477-.3037.8466-.6074,1.6931-.9111,2.5399.2099,2.6226-.9277,4.422-3.3282,5.4508-.5068,5.7174-2.7542,9.9812-8.9501,11.2562-.7153.1473-1.2873,1.3386-2.3514,1.36-8.1211,3.1154-16.2424,6.2308-24.3637,9.3464-2.4989.8942-4.8604,2.3012-7.6651,2.0551-5.5609,2.3671-5.5809,2.3572-5.7747-2.8848-.9968-1.0538-2.075-2.9492-3.4159-2.3904-3.6758,1.5321-5.7959-1.4771-8.6219-2.3416-1.7889,1.3314-1.4995,2.9375-.4945,4.5295,1.1559,1.831,2.4238,3.5911,4.0814,6.0254-3.8209,1.5348-6.76,1.2547-9.4663-1.3751-2.4684.0723-4.9365.1448-7.4046.2172-1.4889.6229-2.9708.6904-4.4424-.0555-1.9569.0613-3.9136.1228-5.8703.184-1.617.3978-2.3263-.2849-2.2587-1.896-.9775-2.9841.7466-5.7258.7384-8.6701-.043-15.1428.0011-30.2868,1.13-45.407.2714-3.6335.1134-7.3497-2.9093-10.1357-3.2733-1.3448-6.7014-.7653-10.0789-.8108-6.4167.836-12.8599.8871-19.3127.6547-15.7162.9095-31.4174,2.4532-47.1868,1.1206-.1636.9726-1.7845,1.2178-1.2634,2.5319-.319,1.1635-1.2627,2.6462-.8574,3.4393,2.968,5.8051.6177,11.827.9602,17.7139.3668,6.3023,1.6926,12.5431,1.2329,18.8957.0704.9855.1405,1.971.2121,2.9565,1.0785,4.46,1.0113,8.9516.3715,13.4587v5.3543c-3.5859,1.1923-7.4449-.2565-11.1517.4584-.4994-.0026-.9989-.0054-1.4986-.0082-2.6788-.0556-5.3736.0512-8.0323-.2115-2.7627-.2727-5.8044,1.1041-8.2523-1.2486.8834-.5996,1.5871-1.7626,1.0102-2.4237-1.9917-2.2822.1614-3.4642,1.0221-5.0099-.0416-.5125-.0829-1.0249-.1242-1.5373-1.6419-1.626-3.673-3.1238-1.929-5.8637-.8047-2.7997.0714-5.8855-1.4558-8.5626-4.7949-.6423-5.0972-1.1561-3.3316-5.6588-.3813-.774-.7606-1.5468-1.1401-2.3194-.4694.01-.9362-.0202-1.4007-.0905-.2148.43-.5593.606-1.0334.5283-.315,4.4879-4.7257,4.6053-7.2719,6.6857-.69.5637-1.7457.0613-2.1262-1.1418-.4208-1.3309-1.0732-2.5883-1.6248-3.8778-.4516-.2466-.9029-.4931-1.3537-.7401.0007-.0003-.1613.3697-.1613.3697l-.3614-.1803c1.5572,3.4035,1.1843,7.9445,5.7053,9.6252.3121.1161.659,1.1222.5694,1.1946-3.5224,2.8488-1.0036,9.4222-6.9481,11.0323-1.307-3.2034,3.3013-5.799.7201-9.1695-2.9138.866-5.7112,1.9189-6.9504,5.1901-2.4174.7774-4.8073,1.358-4.1333-2.6462.3727-2.2133-1.7499-5.7477,3.7301-5.3601,2.5418.1798,4.1499-3.5864,3.5111-6.876-.3997,1.4804-1.3002,2.5655-2.6202,3.3199-1.0752,1.7154-1.9431,1.353-2.6852-.2679-2.1243-2.4664-1.8858-5.461-1.8924-8.4071-.0258-11.7838-.1075-23.5678-.0727-35.3514.0183-6.1283-1.2946-12.2309-.3211-18.3727-.7219-1.4509-.9752-2.9231-.2032-4.4422-.0533-1.1965-.2305-2.4023-.1404-3.588.9207-12.0972,2.2372-24.1734,1.7842-36.3379.0155-1.0284.031-2.0567.0467-3.0851,2.304-23.6732,1.2545-47.3213-.5325-70.9637-.0043-1.5096-.0085-3.0192-.0127-4.5289l.0002-.0001c.4837-1.9532.3584-3.8939-.1185-5.8275-.035-.2101-.0829-.4207-.1204-.631.0375.2103.0854.4209.1206.631.1362-.538.2723-1.0763.4084-1.6146-.0763-1.921-.1525-3.8424-.2288-5.7635.3548-.8237-.0254-1.3948-.6471-1.883-.0812-.8804-.1626-1.7606-.2438-2.641.1035-5.4293.207-10.8585.3107-16.2878-.9998-4.4392-.9799-8.8812-.0345-13.3255.4788-4.4417.9576-8.8833,1.4364-13.325-.2418-2.3875-1.3242-4.3275-3.1314-5.8817,6.9959-.7633,13.7581,1.3354,20.6622,1.6884.2164-.5741.4331-1.1486.6502-1.7231-.6889-.9472-1.332-1.9322-2.0757-2.8341-1.6917-2.0518-1.8826-3.6103,1.142-4.5155.549-.1644.8945-1.0099,1.3336-1.5408-3.9763-3.5176-5.6628-8.4191-7.8643-13.0095-1.3676-1.7979-3.0495-3.4396-2.9629-5.9603-3.3571-4.3646-6.5645-8.8167-8.2675-14.1481-1.6643-1.3691-2.6631-3.2174-3.6536-5.0719-.555-.9771-1.1096-1.9544-1.6645-2.9318-3.3235-4.4676-6.822-8.819-9.9029-13.4483-1.7346-2.6068-2.3136-5.809-2.7067-8.9501-1.4812-1.7156-2.7392-3.5444-2.9873-5.8857-.5391-.5231-1.0784-1.0462-1.6176-1.5691.0881-.4347.0909-.8701.009-1.306-.3439-.0814-.6837-.0672-1.0198.0425-.9569-1.2019-1.9135-2.4039-2.8704-3.6059-.9761.2196-1.2882-.2039-1.0883-1.1235-4.0523-5.61-9.7888-10.2808-9.8489-18.1116-.008-1.0476-1.5354-.9874-2.3853-1.3948-.7292.3966-1.3622.2214-1.9336-.323-.001.0019-.4403-.2094-.4403-.2094-.7727-.4194-1.5451-.8387-2.3175-1.2578-.3124.3301-.689.5031-1.1298.5192-.1176.8979-.5311,1.4354-1.5317,1.2593-1.9876.4897-3.9673.2197-5.9468-.0648-2.1817.4452-3.7258.1785-2.967-2.6583l-.0031-.003c-7.49-.0468-14.9806-.0505-22.4694-.1654-2.3881-.0366-4.8517.3174-7.1292-.8059-3.6541.2189-7.3321,1.5743-10.94413-.2282-2.5611,1.6472-5.13777,1.895-7.73877.0908-.10653.7668-.54052,1.0871-1.30282.9629-5.5779,1.6515-11.3139,1.5756-17.0441,1.5645l.18492.273c-1.76072-.4389-3.45122-.5866-4.69232,1.1305-2.93068.2188-5.8703.3543-8.7902.6713-9.5119,1.0323-19.0168.8433-28.5247-.0064-.7022.8445-1.5962.8546-2.554.5876-1.0183.0089-2.0367.0179-3.05478.0269-1.458.0683-2.91592.1364-4.37392.2046-6.3986,1.4908-12.8193,1.2959-19.251.2499-1.4769-.11-2.95408-.2201-4.43108-.3302-1.99892-.0233-3.99762-.0465-5.99662-.0699-1.4152.2202-2.8408.4958-3.9753-.7581-7.6078,1.6531-15.0959-.9886-22.66608-.6156-3.42972.8171-6.85772.1751-10.28622-.0123-.4314.5555-.863,1.1114-1.2946,1.6672.442,1.1096.8839,2.2193,1.3256,3.3289,3.919-.1386,7.838-.2772,11.757-.4156v.0001c1.9891-.0623,3.9787-.1246,5.96822-.187,1.43118.1855,2.86238.371,4.29338.5566-4.936.7613-9.872,1.5226-14.8079,2.284-3.7876,1.3893-7.8378,1.2363-11.732,2.0005-.12948,1.0332-.5698,1.5448-1.1774,1.7753.3795-.0214.7653.0933,1.1638.4859,11.0304-.8647,21.9036-2.6904,32.643-5.3342,11.0632-.2929,22.1065.704,33.1304.7952,10.5385.0875,21.1311-.7139,31.718-.8134,16.18372-.1523,32.3749-1.0994,48.5436-.7654,15.00083.3098,29.90993-1.819,44.89403-.9586.243.0139.4894-.0552.7351-.0682,6.7758-.3581,11.7955,1.8057,15.9723,7.8192,5.1725,7.4473,9.79,15.1574,14.2767,22.9911,7.1999,12.5708,15.5625,24.4194,22.6232,37.1018,5.0533,9.076,7.485,19.2621,13.6623,28.3486-5.4671.1752-9.7072-2.2737-14.3218-2.7042-15.9138-1.4848-31.7239-3.0511-47.8508-2.369-30.2628,1.2801-60.57482,1.2438-90.81142-1.7988-11.312-1.1383-22.6238.8933-33.915,1.7092-4.1692.3014-8.3546.9536-12.5179.807-16.325-.5742-32.4439,1.6098-48.57358,3.4773-11.26422,1.3042-22.53192,2.3769-33.85592,2.8883h-.0002c-8.4842.3376-16.9686.6752-25.453,1.0128-1.3486.0232-2.6971.0465-4.0457.0697-1.0874-.2865-2.17518-.5729-3.2628-.8594l-.1202-.4003c5.7091-9.1544,11.1999-18.4383,17.0232-27.5303,4.8698-7.603,7.5581-16.4836,12.391-24.2137,3.1058-4.9671,5.1298-10.5757,8.9275-15.1385,1.5528-4.3426,4.2105-7.9209,7.601-10.9929.12512-.484.4283-.7972.9097-.9395.2882-.9185,1.1143-1.8336.0178-2.7612-1.8121-1.6028-2.676-.7175-3.1471,1.1993l-.49728.3501c.127-.0894.49708-.3502.49568-.3508.4727-1.9161,1.3366-2.8014,3.1489-1.1988-1.5142-1.1963-1.3115-2.4352-.0258-3.6219,2.1236-1.9598,5.1174-2.8959,6.6059-5.608,0-.0003-.0148-.1984-.0265-.3547l.0265.3542c.43932-.1073.8728-.3407,1.3101-.4922-.4152.0439-.871.02-1.3503-.0437-2.661-.4245-3.953,2.3922-6.3181,2.6684-1.686,1.4401-3.3721,2.8804-5.0582,4.3206-.1993.9229-.3983,1.8457-.5973,2.7686-2.79288.1938-2.27588,2.6069-2.8676,4.2766l.17772.2045s-.17772-.2045-.17632-.2028c-.43668.0076-.86768.0664-1.2913.1784-.0091.9905-.0183,1.981-.0272,2.9713-.84118-.5116-1.366.1809-1.9825.5213-1.7422,5.404-5.97868,9.56-7.5332,15.058l-.0117.0169c.5213-.2653,1.2387-.8901,1.5288-.7319,1.0717.5855.43,1.4216.0282,2.1629-.8207,3.2216-2.7732,5.8216-4.6494,8.4635-1.6269,2.093-3.1851,4.0585-3.643,6.9478-.491,3.0985-2.082,5.9832-3.8235,8.6904-3.5846,5.5722-7.1058,11.1851-10.6528,16.7813-.5454,2.5004-2.3296,4.2347-3.808,6.1579-1.787,2.8931-3.5747,5.7861-5.3628,8.6791-4.6192,3.4624-4.61728,4.6584.0122,7.5467,5.4023-.044,10.8046-.088,16.2067-.1319,1.0045-.4922,2.013-.4618,3.0245-.0223,1.2057-.1823,2.5491-.6383,2.66832,1.3413.30508.3886.44008.8293.40488,1.3221-.1831,1.0412-.3664,2.0824-.5494,3.1236.5614,1.9469.6057,3.9214.3159,5.9138,3.037,6.9349,1.269,13.8339-.1549,20.7355-.5037,3.9454-1.0074,7.8908-1.51148,11.836,2.194,8.8794,1.67928,17.7703.11258,26.6659-.0741,1.4781-.148,2.9564-.2229,4.4346-.9832,6.3922.8731,12.9032-.80568,19.2663.01308.9763.02648,1.9523.03958,2.9286.1209.9251.2418,1.8504.3626,2.7757.1021,3.9439,2.3806,8.0874-1.0709,11.7057-2.1717-7.1652-6.1832-13.4506-9.5861-20.0221.6283-2.3048,1.5622-4.5532,1.0646-7.0632-1.9785-9.9799-3.0187-19.9833-.5266-30.0446-1.6727-1.2227-2.9415-2.5143-1.9159-4.8944.5668-1.3155.7088-2.8139,1.0423-4.2298l.55842-.4336c-.03382-1.7367-.06762-3.4732-.10142-5.2098-3.1032-4.0203-7.1323-1.0764-10.7237-1.4256l-.1293-.2185c-.0291.2448.0319.6282-.1002.7141-2.577,1.6727-5.5072,5.0277-8.2139,3.072-2.421-1.7495.2416-5.3547.8534-8.118.1062-.4802.1646-.9709.245-1.4567,3.9116.0517,4.6162,4.1019,7.2162,5.7884,0,0,.1288.2187.1307.2182-1.0409-1.6368,2.501-2.212.92122-3.9726-3.402-1.2906-4.25132-4.9125-6.56982-7.1929-.0318-.3991-.1806-.7483-.4465-1.0478-.442-2.4132-1.7011-4.0999-4.1804-4.7017-.5128-1.326-2.1421-2.0926-1.9018-3.7962-.4237-.1634-.8577-.2932-1.3017-.3894l-.00378-.0051c-.71062-2.259-2.22632-3.6949-4.47792-4.3779-.0213.7198-.0425,1.4395-.0635,2.1588.4196.6682.8388,1.3369,1.258,2.0057-3.72.642-6.7138,3.7124-10.7723,3.3232-.0338-8.1104.3655-8.3297,9.5142-5.3285.0211-.7197.0423-1.4394.0636-2.1592-.3304-.4022-.6607-.8044-.9922-1.2059-.65788-.2198-1.3146-.4402-1.9713-.6605-.7188.1851-1.3834.1404-1.92-.4498-.0014.0027-.2005-.0585-.2005-.0585-1.2756-.3033-1.8684-.8921-.8932-2.1364-.0987-2.0118,1.2842-4.0019.0877-6.0296-1.9643-.3597-3.1848.5974-4.2958,2.1276-1.4382,1.981-2.9183,4.0484-5.99278,4.2569-2.04222-3.4239,2.77718-6.8483.25408-10.2623-.7609-.0401-1.5203-.0812-2.2797-.1223-1.8271,2.0075-1.1202,4.9344-2.5689,7.0792.6198,1.7362.2731,3.2269-1.1299,4.4494.0589,2.2465-1.6164,4.4989.0233,6.7399l.6094-.0662.50272.3507c2.93858-.4575,4.78978-3.0041,7.99058-4.4145-.6312,4.8701-3.1703,9.2853-.1829,13.5697.7724-.0318,1.5449-.0635,2.31732-.0953,1.41368-1.1743,2.90158-2.1978,4.56388-2.9541-1.6623.7564-3.1501,1.7799-4.5635,2.9542-.7728.0317-1.5453.0634-2.3177.0952-.9781,1.6162.2362,4.8135-3.3042,4.5822-.0463.3082-.2249.4533-.5366.435-2.54288,2.6752-2.987,6.0249-2.9115,9.477.2209,10.1127-.5531,20.3289,2.9585,30.1199.3354-.0378.6308-.112.8855-.2232-.2547.1112-.55.1854-.8853.2232-.5762,2.0109-.06708,3.9054.6201,5.7809.973.0394,1.9463.0789,2.9196.1184,1.2958-.6674,2.6045-1.3112,3.8836-2.0089,1.1085-.6049,2.2455-1.1118,3.3099-.073.9946.9707.9016,2.1907.3726,3.3813-.69188,1.5575-1.4956,3.0703-2.0994,4.6602-.6133,1.6142-1.0663,3.3285.2161,4.8613,1.5528,1.8565,3.5132,1.1963,5.4.7245,2.6415-.6605,4.7571-3.1541,8.2518-2.7039-.8428,4.0476-2.1677,7.4782-2.08538,11.1943.06328,2.8638.30188,5.39,3.35908,6.6229.7395,1.2785,4.2316.7947,2.142,4.0043-1.2419,1.9076.469,2.993,2.49592,3.0954,5.26828,3.7869,6.03948,5.9284,3.98718,11.0702-2.6367,6.6056-.9744,12.7214,4.6426,17.0812,4.7424,3.681,4.7657,3.6967,1.7755,8.1877-.9401,1.412-2.04228,2.7162-3.0702,4.0697-3.6673,1.7366-6.1205,4.3153-6.0156,8.6694-2.4862.1258-4.7077,2.4894-7.5252,1.1244,1.0523-3.8845,5.2193-6.4988,3.4596-11.1541-1.7672-.2779-3.1826.9264-4.7873,1.331-.7881-.4661-3.01958.8505-2.2632-1.412.8477-2.5359,2.6688-4.7658,3.3935-7.3196,1.751-6.1718-1.1117-9.3049-7.4817-8.627-1.206.1284-2.44318.3795-3.6231.2309-1.4465-.1821-2.8478-.725-4.6122-1.2054.8637-2.7751,3.6178-3.9047,4.8822-6.132,1.1178-1.9686.304-3.5784-1.9174-3.3336-2.5969.2862-5.1499.9693-7.7455,1.4849-.8383-3.6059,1.3256-5.3742,3.0175-7.3973,2.0492-2.4502,4.0408-4.9514,5.9736-7.4939.617-.8117.7171-1.8966.0343-2.7469-.9968-1.2416-2.2508-.7857-3.25758-.0611-2.37542,1.7094-4.66,3.5447-7.61252,5.8144-.2826-4.5791,1.5804-7.9241,2.4606-11.4676.6503-2.618,1.1141-5.2886,1.52692-7.9565.15628-1.0116-.31522-2.0106-1.43382-2.2541-1.0501-.2288-1.9203.2559-2.3047,1.3129-1.0896,2.9952-2.0664,6.0343-3.2521,8.99-.4923,1.2272-.4146,2.9652-2.26938,3.371-1.91572-.8752-1.71032-2.8143-2.08232-4.3831-.8252-3.4815-2.9269-6.2533-5.0599-8.9142-1.5256-1.9034-5.0235-1.8436-4.89678-5.5752.16638-4.8995,1.89968-10.6025,4.94328-13.9716,3.8171,2.83,6.4906,6.6162,8.8912,10.6293.7563,1.2644,1.3402,2.6416,2.1776,3.8457.8565,1.2317,1.941,2.2673,3.6802,1.4384,1.3238-.631,1.418-1.7958,1.5091-3.075.1901-2.6665-1.7727-5.2173-.3908-7.9292-.9731-.0396-1.9464-.0791-2.9194-.1185v5.8656c-4.1486-3.7594-6.0994-8.5581-9.864-11.8528-3.9598-3.4658-4.4316-3.8357-7.2246.2326-2.7022,3.9356-5.7163,2.4316-8.9478,1.7222-.0204-2.6284,1.8701-3.0602,3.1771-3.9624,1.2139-.8377,2.59112-1.4458,3.7719-2.3229,3.0936-2.2977,8.1951-4.3589,7.071-8.4577-1.2134-4.424-6.3586-1.5186-9.7656-1.9394-.4573-.0564-.9099-.1512-1.7607-.2953.9239-3.6382,4.5163-4.3342,6.7863-6.2047,5.3677-4.4224,5.5889-4.3266,1.6086-10.034-1.1922-1.7098-.348-2.5113.5095-3.7661,1.65212-2.4179,5.1475-3.118,5.84012-6.3782-2.476-.4039-4.38952.0559-5.49272,2.7195-.3734.9016-1.7494,1.3879-2.6671,2.0641-1.8128,2.1909-3.257,4.8802-.8653,7.0729,3.33312,3.0555,1.6047,4.7857-.87588,6.7055-1.32,1.0213-2.69922,1.966-4.04242,2.9489.0091.0037-.4197.3387-.4197.3387-1.738,2.6194-4.4588,4.1764-6.7263,6.2237.9883.2666,2.0555.208,3.0877.2932-1.0322-.0852-2.0995-.0266-3.0878-.2932-.4424.0592-.8861.0763-1.3314.0509l-.1325.3556-.3767.0441c-.1748.7947-.3495,1.5892-.5236,2.3839,3.0282,1.0672,5.5555-.9082,8.3299-1.3852,2.39282.6919,4.8084-1.0455,7.278.0557.3854,2.8309-1.9975,3.6414-3.6439,4.8387-3.12528,2.2726-6.9502,3.5022-9.2392,7.0258-1.3967,2.1498-4.0705.8856-6.1378,1.3146-.3378.3898-.7631.6142-1.2755.6732-5.9146,6.0345-6.118,7.1674-2.2689,14.4796.7024,1.334,1.188,2.4441.6275,4.0662-1.1663,3.3753-3.9143,7.1568-8.352,10.4284-.5267-6.0551,1.1342-11.13,3.5761-16.1588,1.2136-2.4996-.1434-3.0723-2.4089-2.0293.1273.3237.0262.538-.3029.6449-.0639.97-.3444,1.8263-1.2401,2.3623-1.8433,6.3238-3.2703,12.6527-1.6531,19.3055.4444,1.8282,1.2006,3.0637,2.9338,3.7034.7011-.0142,1.4092.0299,2.1023-.0532,2.8061-.3369,4.1366.4026,2.5911,3.3884-.4253.8217-.7841,1.6774-1.1723,2.5176-2.4237,5.6368-2.7548,11.4238-1.2451,17.3433.6158,1.5172,1.01,3.0738.8368,4.7309.5784,1.3432.7803,3.2764,1.8,3.927,4.28592,2.7338,3.5807,6.481,2.83792,10.4777-1.291,6.9464-4.67042,14.1795,2.31008,20.2184.3172.2744.5442.9771.4324,1.3728-1.0563,3.7359,1.81352,5.6622,3.6284,8.076,1.5135,1.3063,3.0267,2.6129,4.54,3.9192,1.2944,1.0636,2.6199,2.0919,3.8725,3.2025.8841.7839,2.0517,1.6973,1.25962,3.0004-.72032,1.1848-2.16762,1.2021-3.12782.3668-1.9251-1.6743-4.0385-1.2847-6.18318-.9514-.91452.1421-2.02532.109-2.40312,1.2399-.4612,1.3811.4464,2.2604,1.3425,3.0727,1.0537.9554,2.41062,1.3744,3.8251,1.5491-.5462,2.0812-1.6482,3.3012-2.81,4.4817-1.3812,7.1487-.4204,8.5691,6.4458,9.5807.9434.1391,1.8745.3646,2.8113.5501,1.166-.3631,2.7527-.7424,3.3296.2668,1.499,2.6223,4.493,2.3185,6.4993,3.8294,1.9839-.7715,3.512.551,5.2018,1.1289,3.3581,1.0107,6.4261,2.4857,8.6086,5.378.8235.0107,1.52712.249,1.9473,1.0258,3.117-.7509,5.3227.613,7.0692,3.0429.01962.0028.0395.004.0591.0066-.0197-.0026-.03948-.0038-.0592-.0066-.10628,1.0162-.2126,2.0325-.3196,3.0487.0392.9886.0789,1.9771.1188,2.9658-.0556,1.4785-.1111,2.9571-.1672,4.4355.0113,3.4578.023,6.9156.035,10.3734-.0385.9848-.077,1.9694-.1161,2.9542.6909,6.5101-1.0514,12.8309-1.5005,19.2524.04432,1.8213.0888,3.6425.13332,5.4638.68578-.0099,1.37158-.0197,2.05708-.0296,2.1234-3.5015,1.2091-7.4207,1.4675-11.1656.10242-1.4873.4377-2.1753,1.9955-1.7482.6405-.2143,1.4032-.307,2.0215-.5755-.6183.2686-1.3811.3613-2.0215.5757.8064,2.732,2.0004,5.418,2.3322,8.2065.5574,4.6827-.2279,5.1548-5.7952,4.7071-.6855.0099-1.3713.0197-2.057.0296-1.3793.5398-2.778.5133-4.1888.1448-1.9884-.0016-3.977-.0034-5.96528-.0052-4.42672.173-8.85342.346-13.28.519-.445.1727-.90112.322-1.33342.5219-2.1192.9791-6.60958-1.4028-6.2065,2.3867.328,3.0835,4.492,2.477,7.3523,1.9591.4638-.0839.95462-.0176,1.4329-.0207,7.3083-.2472,14.6516-1.6119,21.8799.6914.8812-.4875,1.7606-.7267,2.6364.0096,5.5283-2.0678,11.0487-1.4913,16.5665.0491,1.3458-.9898,2.7165-1.1646,4.125-.1276,3.0852-2.0903,6.4993-.5421,9.7424-.8802,1.0096-.1692,2.01952-.3385,3.0297-.5077,1.952-1.1166,3.9331-.9349,5.9283-.1327,4.3346-.9645,8.7134-.7672,13.095-.5011,1.151-.4804,2.2923-.4395,3.4248.0635.8303-.0042,1.66072-.0077,2.4911-.0115,8.7599-.4159,17.53462-1.4346,26.2342.6356,4.0547-1.4498,8.19942-.6732,12.3198-.4984,3.2377,1.0672,6.896-.0531,9.9602,1.9156,2.734-1.3434,5.3699-.2653,8.0258.3228,2.3902-.3694,4.76062-.613,6.8258,1.0785.0011-.0012.13982-.4589.13982-.4589l.47758.0223c16.74142,1.4108,33.5095.9935,50.275.7322,4.1335-.6268,8.26142-1.5811,12.4278-.2048,7.5031-1.7797,15.0048-1.8843,22.50562.0164.89488-.8854,1.79428-1.1322,2.704-.0199,6.58558-2.3374,13.36488-.7502,20.05407-.9878,2.006-.5948,4.0171-.4686,6.03063-.0423,1.9395-.4759,3.8812-.3267,5.8234-.019,2.4904-1.1665,4.9886-1.421,7.5003-.0628,4.7287.324,9.6018-1.2236,14.1766,1.0947,1.8717-.8489,3.7427-1.7705,5.6215-.0157,2.5702-1.8717,5.442-.7632,8.1945-.8296,1.0493-.4347,2.0982-.3901,3.1466.0055,1.3679-.2088,2.7718-.6139,3.8601.7075,4.1098-1.2924,8.3323.5127,12.4522-.4636,17.2293.1823,34.4509,1.909,51.6898.2691,7.1226-.6452,14.2439-1.1522,21.3384.2902,2.5765-1.6342,5.1479-1.4557,7.7167.0205,4.6524-1.6515,9.276-.1669,13.9104.125,11.8464-.5764,23.6938-.3313,35.5414-.0462,3.9712-1.3209,7.9188-1.2265,11.8444.1967,4.4684-.0396,8.9587-.366,13.3204,1.0066,1.9811-.663,3.9596-.6661,5.9357.0228,18.2087-.4104,36.4118.0021,54.6125.4602,1.8166.0456,3.9781-.6211,5.4281,1.2817.9902-1.6566,2.4756-.9261,3.8367-.7961,5.5771-.0009,11.1543.0034,16.7312-.004,12.6423-.0166,25.1208-2.2334,37.7202-2.8166-.0009-.0007.4849-.0243.4849-.0243l.1551.4608c1.0893-1.1969,2.4895-1.0173,3.8805-.8777,3.4609-.4517,6.923-.8722,10.4144-.3152,1.4959-.3922,2.9762-.3134,4.4435.1484,10.1606-1.7501,20.39-.6798,30.5896-.6997,7.336-.0144,14.664.1704,22.0099.0356,7.2796-.1337,14.6379-1.054,21.9211.2763.5739-.911,1.5211-.9771,2.4505-1.0835,2.45-3.8331-1.1744-3.3018-2.9469-4.101Zm-86.7838-133.7616c-.6309-.5396-1.2418-1.0977-1.7903-1.7129.5485.6152,1.1594,1.1733,1.7903,1.7129Zm-8.0028-4.3794l-.0005.0002c-.567-.189-1.1172-.395-1.3641-.9032.2472.5084.7975.7142,1.3646.903Zm-2.6667-8.5124q-4.1732,3.1966-8.3895-1.2223c3.4751-1.0772,5.8149.5649,8.3895,1.2223ZM130.94174,26.4481c.0133,1.2733-.2656,2.4163-.74448,3.4424.47888-1.0261.75748-2.1691.74448-3.4424Zm212.10692,77.3133c4.7315-.0994,9.464-.6504,14.1948.0156-1.5924,1.5335-4.2431.3507-5.7039,2.2214l-.6529.1042-.6595-.0504c-1.9161-2.2592-5.1826-.2846-7.179-2.2908-.0131,0-.0261-.0001-.0392-.0001.0134,0,.0265.0001.0397.0001Zm-47.584-.0524h.0002c-1.20803.447-2.4296.6971-3.65923.8298,1.22963-.1327,2.451-.3828,3.65903-.8298Zm-19.51202-.1935c1.174.0116,2.3482.0233,3.5224.0349-1.174-.0116-2.3484-.0232-3.5224-.0348-.57238.7348-1.18938,1.1974-1.8362,1.4759.64682-.2786,1.26382-.7411,1.8362-1.476Zm-40.41938-1.2969c10.58868-.6763,20.97648,1.5787,31.49778,1.5373-.0146.4164.0824.8051.2908,1.1659-15.3224-1.1215-30.6588,1.7203-45.9753-.165-1.8708-.2302-3.9516.5141-5.5595-1.0866,6.6574.6131,13.1574-1.0307,19.74622-1.4516Zm-125.19692,10.0972c.59092-.2987,1.18692-.5432,1.7874-.7426-.60048.1994-1.19648.4439-1.7874.7426h0Zm-16.5942,91.1433c-.09788.1542-.1958.3084-.29388.4623-.24712-.1789-.49452-.358-.74162-.537.1842-.1474.3771-.4196.5499-.4074.1725.0124.3246.3097.4856.4821Zm-.8543-5.3533c.5503,4.3712-2.0283,4.0831-4.9411,3.1837-.4104-.2206-.847-.3018-1.30948-.2439-3.343-2.5493-2.28232-5.8458-.94862-8.6787,1.6171-3.4344,3.3713-6.3078.1143-9.9393-1.568-1.7482.2262-4.0987,1.025-6.1453,1.0335-2.6481,1.8897-5.3352,4.022-8.0837,2.0219,3.1667.4726,5.5425-.20768,7.5422-1.27492,3.747-1.14772,7.2025.25728,10.7612,1.47172,3.7271,1.49772,7.7093,1.9883,11.6038Zm-9.4257-42.9643c1.5118-.5635,3.0238-1.127,4.5357-1.6904,1.30542.3132,2.611.6263,3.9167.9393v.0001c-.0174.5938-.0348,1.1875-.0521,1.7813.2825.42.5447.862.8756,1.2305-.3309-.3685-.5933-.8105-.8759-1.2306-2.1497,5.3829-2.8064,11.778-9.5314,14.0592-.3238.5878-.8404,1.0913-1.4286.5864-.6096-.523-.0254-1.0745.3577-1.5325.3366-3.1493,3.9146-4.8399,3.7035-8.2376.5845-1.7403,1.5836-3.6207-1.40408-4.1533-.12412-.3838-.294-.7606-.35212-1.1541-.027-.1829.1634-.3979.255-.5983Zm-20.3754,23.6105c1.3896-1.9314,2.4602-4.1821,5.2902-5.1871,1.749,3.2131-.3286,6.5173.3282,9.6254-.7726-.6816-1.6887-.3536-2.5698-.2717.3617-2.397-.7653-3.7048-3.0486-4.1666Zm4.3702,7.6942c1.3128-.6659,1.802-1.6929,1.3852-3.1178,3.8864-3.0396,7.2178-6.9623,12.3698-8.0957,2.6,6.8725,2.5759,6.8107-3.2043,9.072-2.9528,1.155-5.8243,2.5293-8.685,3.9038-1.0482.5037-1.7858.5032-2.3856-.5445.2601-.3689.4333-.7748.5199-1.2178Zm-1.2282-39.4492c2.1334-.8737,3.6656-1.5011,5.2903-2.1665q-.3316,4.7507-5.2903,2.1665Zm8.4497,12.553c.5363-.4248,1.0794-.836,1.6296-1.233-.5502.397-1.0933.8082-1.6296,1.2331,1.0934,4.5033,4.455,1.4879,7.5264,1.994-2.8888,5.1717-4.196,10.7651-9.8077,15.8521.5777-6.8737.19412-12.1908-.3295-17.4983.8702-.1159,1.7407-.232,2.6108-.3479Zm-6.0083-26.9326c1.2947.8441,2.5896,1.688,3.884,2.5323l-.0001.0002c.6787,1.2274,1.3575,2.4548,2.03622,3.6823-3.27722,1.834-6.21092,4.535-10.87282,4.5007,1.8032-3.9016,3.3779-7.3086,4.9527-10.7155Zm-17.5707,48.5511c-.0009.1711-.0128.3321-.0353.4835.0225-.1512.0342-.312.0352-.4827-4.403-7.5213-2.9903-10.3862,6.7018-12.63-2.2338,4.2095-4.4677,8.4189-6.7017,12.6292Zm6.2125,1.0479c-.5179.7731-1.1286,1.5648-2.0252.6168-.1931-.2042.3761-1.1291.5927-1.7222.8641-3.8773,3.3291-6.9707,5.0801-10.4153,1.4004-2.7551,3.1972-5.3941,3.294-9.0613-3.271-.9878-5.1182,1.2977-7.3069,2.4501.053.4156.2368.7165.4768.9673-.24-.2508-.4238-.5516-.4769-.9672-2.8147.8255-4.5061,3.6768-8.5896,4.3388-.1921-6.229-.63868-12.3639.7537-18.3936.9593-4.1544,2.0157-4.3136,5.9172-1.5978,1.1078.7712,2.0798,1.1236,3.3343.7491.8446.0943,1.3749.5096,1.4353,1.405-2.3685,2.1715-3.6961,4.7473-3.2345,8.2933,2.6821-4.5152,5.5952-8.2829,11.57632-7.5334,1.49358,2.4538,1.38768,5.4894,2.16858,8.2768-.0699,1.4488-.3134,2.9145-.1747,4.343.3202,3.2951.2979,5.9101-3.7015,7.4487-2.8813,1.1081-4.68438,4.0623-5.10338,7.4305-1.30632,1.1624-1.91072,3.1611-4.01632,3.3714Zm5.0884,14.4955c-.0376-3.5625,3.639-2.8401,4.871-4.5911-.1526-.2686-.37908-.5318-.624-.7936.24492.2618.4714.5249.6241.7935,4.0634-2.0184,7.763-4.8169,12.3223-5.7719,2.6103-.547,3.7362.6095,3.1792,3.1286-.8963,4.0543-2.1212,7.9478-7.1208,8.6859.4145-1.8856,1.324-3.7688-.0815-5.866-4.6906-.02-7.8877,4.839-13.1703,4.4146Zm13.8778,17.6529c-3.2896-6.5129-3.2363-6.7093,2.828-10.4489-.3931-.7422-1.2893-1.1825-2.1388-1.6508.8495.4683,1.7458.9084,2.13892,1.6507,1.02258-.0003,2.04488-.0007,3.06748-.001-.19048-1.7816-.2978-2.7836.0521-3.2466-.3499.463-.2425,1.4652-.0518,3.2468.6939.6157,1.3063,1.3753,2.0958,1.8216,3.1997,1.8088,2.8383,3.8279.5667,6.1323-.6458.6552-1.091,1.5081-1.6282,2.2704.0918.019.161.0521.2321.0839-.0711-.0318-.1401-.0649-.2319-.0838-2.3241-.3615-4.4552,5.2198-6.9304.2254Zm3.3752,6.299c1.1065-2.6668,3.8297-3.3772,4.1238-5.6094.0332-.1258.0463-.2393.0392-.3403.0074.1016-.0053.2159-.0386.3428,2.9914-1.22,3.2158-.0201,2.0754,2.3732-.7203-.1064-.8794.3515-.9265.9217-.5759.5153-1.152,1.0304-1.7279,1.5458-.881.1904-1.7619.3808-3.5454.7662Zm7.6507,23.6819c-.7762,1.0302-1.978,1.432-3.1161.4421-1.0606-.9222-1.0939-2.1634-.3692-3.2607,1.8326-2.7746,4.8893-3.3928,8.192-3.9702-1.559,2.2705-3.0509,4.5914-4.7067,6.7888Zm2.6603-10.9841c.3548-.2391.6691-.5013.94792-.785-.27882.2837-.59312.5459-.94792.785Zm.9817-.8165c.8594-.8895,1.3551-2.0037,1.51322-3.3895-.15792,1.3858-.65372,2.5-1.51322,3.3895Zm-7.9369,35.7642c.67812-.9362,1.3933-1.8454,2.0925-2.7694.3201-.2415.6783-.4019,1.0738-.4783.087.7276.1874,1.454.2572,2.1834.0619.6468-.2162,1.6215.8951,1.4363.79952-.1333.8921-.9822.8931-1.7182,4.0178-4.8089,6.7926-10.4873,11.1109-15.1467,3.8878-4.1949,3.2219-5.4298-2.6528-7.6483-.1864-1.0583.2631-2.2786-.7931-3.1158-.011-3.6433,4.8343-7.6607-.8273-10.9375-.1711-.0993.1112-1.4457.5013-1.9756,2.3942-3.2523-.1624-5.4611-1.55958-7.9227-1.22632-1.3877-2.45282-2.7752-3.68012-4.1632-1.0728-2.4374-1.1763-4.978-.8022-7.5691,3.5269-1.7037,4.8515,1.1343,6.0316,3.2999,2.523,4.6301,4.6773,9.461,6.9814,14.215.429-.4677.8592-.9406,1.2894-1.4133-.43.4729-.8604.9458-1.2909,1.4188-.1607,1.2922.1392,2.4157,1.194,3.2628.0007.0002.0014.0002.0014.0002,1.8137,9.2511,3.858,18.4838,2.2153,28.0078-.05488,6.0894-.1974,12.1797-.1394,18.2681.0551,5.7978-.9449,11.6498.7506,17.3784,1.0507,6.4248.4365,12.9032.62592,19.3553-.46192,1.3554-.92352,2.7102-1.385,4.0653v-.0002c-3.44162-.9297-2.74312-3.5762-2.39232-5.9773.6028-4.1273,1.3972-8.2113,1.4244-12.4232.058-8.9869-2.10708-12.0034-10.8665-14.6908-.6755-.2072-1.2454-.759-1.9985-1.2353.5837-3.0609,3.2541-4.7833,4.606-7.2987.9176-1.7076,2.0458-3.5418.4858-5.4541-1.4162-1.7361-3.1896-.7841-4.7714-.3044-1.8499.5612-3.52148,1.7405-5.5851,1.5246-1.0147.1769-2.0293.3537-3.0439.5307v-.0001c-1.5352-.5876-1.46148-1.5722-.6416-2.7044Zm9.6505-40.7639c.342-.9767-.3978-2.556,1.4507-2.6571.3305-.0181.9801.4701.9874.7379.0462,1.6944-1.3878,1.5715-2.4381,1.9192Zm14.074,90.6284c-.1742-.3947-.457-.8796-.692-1.3249.2351.4453.5178.9303.692,1.3249Zm-.7281-1.392c-.0024-.0044-.0039-.0084-.00628-.0129.00228.0045.00388.0085.00628.0129Zm-11.6882-.1354c-2.8248.5823-4.4664-1.8342-6.9053-1.9194q2.4979-6.7955-4.1154-5.814c2.7001-3.8474,4.144-7.1029-.43-10.5182-2.06638-1.543-3.1373-2.5611-5.469-1.2306-1.3183.7525-2.8288.744-4.2952.2495.2044-2.4318,3.2115-3.3949,3.1574-5.9623,1.9693-.893,2.6739-2.5161,2.5918-4.5937,2.9074-4.4859,8.2013-7.2241,9.45962-12.9176,1.76978-.7739,3.29628-2.7846,5.66248-1.3226-.839,2.9051-2.791,4.8131-4.3978,6.9145-1.8045,2.3601-1.05968,4.0696,1.19732,5.3457,1.46258.8269,3.07568,1.8189,4.66408,1.8997,3.13.1591,3.447,2.4479,4.7158,4.4806,2.3463,3.7587-1.4011,7.0202-.2342,10.5052.8987.0178,2.5211-1.9072,2.46432.4275-.06992,2.8827-.99532,5.7465-1.57252,8.6141-.387,1.9249-1.2514,4.2625.2538,5.6393,3.9333,3.5977.9735,5.3645-1.5448,7.3413-1.722,1.3517-3.3271,2.9319-5.6009,3.385-1.1381-.9092-2.57-1.7714-.805-3.35,1.2716-1.1373,2.86142-2.0083,3.3146-3.8205.4589-1.8341.4544-3.8824-2.1111-3.3535Zm-16.8315-6.908c1.79342-2.7452,3.4508-5.2825,5.4012-8.2684.8937,5.0104.123,6.0963-5.4012,8.2684Zm.9048-34.055c1.1519-.3826,2.5209-.8046,3.356.3076,1.2528,1.6689-.637,2.4794-1.3463,3.5745-.7249,1.1198-1.8806,1.4192-3.1468,1.4178-3.23228-.0035-6.4645-.0011-9.6966-.0011-.0916-.5151-.1828-1.0301-.2744-1.5453,3.70172-1.2538,7.3992-2.5215,11.1081-3.7535ZM7.38875,216.1279c2.11352-3.5375,3.858-6.7424,5.879-9.7626,2.1509-3.2143,2.5464-5.5849-.61048-8.8765-3.56722-3.7193-1.59362-8.7134,3.30078-10.4566,5.813-2.0704,12.6737,2.3104,13.4813,8.6054.18692,1.4563.143,2.9979.626,4.35,1.4946,4.1834-.6255,5.0946-4.6357,4.4152,2.1931,7.8884,3.9309,15.2892,6.36662,22.4527,1.37888,4.0552.68178,6.5199-3.14912,8.1847.3065.0482.6169.0945.91312.1481-.29622-.0536-.60672-.0999-.91322-.1481-1.3291,1.9912-.4033,2.8298,1.595,3.1199,1.5037.9617,3.00722,1.9233,4.5109,2.885,2.5421,2.3799,3.6304,5.5726,4.8575,8.6878-.06418,3.5737,1.3087,6.7499,3.399,9.4304,4.7891,6.1414,6.2374,12.9923,5.3507,20.5673-.3948,3.3724-.5027,6.7784-.74088,10.1692.34518.9891-.51242,1.1768-1.051,1.577l-.71252-.1819s-.7351.0117-.7349.0116c-4.4151,5.6285-5.2268,5.7367-11.83458,1.5775-.28452-.1179-.56342-.2523-.84032-.3921.2769.1398.5558.2741.84032.392-1.46582-7.0803-.66292-9.2163,4.934-13.0777.40348-.2785.86788-.4688,1.27088-.7481,2.1646-1.4997,5.8433-2.6881,5.1118-5.5307-.8313-3.2309-4.6098-1.1735-7.052-1.6471-2.1619-.4193-4.40168-.4755-6.535-.9907-1.9293-.4659-2.04368-.8555.2562-2.6788,1.6613-1.3172.5485-1.9992-.155-2.7918-2.2836-2.5721-4.7718-4.9709-6.95188-7.6248-4.25132-5.1748-7.08682-10.5689-7.39532-17.8567-.2022-4.7809-1.1553-9.9835-2.3558-14.8812-.9728-3.9692-3.8566-6.6551-7.0254-8.9284Zm18.5581,52.5965c-5.1604,1.1992-6.5999-1.7783-8.3024-5.0612,4.6833-1.4016,6.3649,1.3815,8.3024,5.0612Zm-17.9548-31.2372c.0726-3.7085.69722-7.2088,3.6637-10.3243,1.0376,11.7317,1.2171,23.5491,10.9561,32.5162-5.0188,1.1456-6.5907-.5895-8.8301-4.4489-3.3112-5.7064-5.91948-11.1203-5.7897-17.743Zm19.5438,57.0209c.55242,1.3494-.7551,1.1294-1.544,1.2087-4.8548-1.9555-8.3724-5.0374-9.0347-10.5884-.0852-.7135-.2638-1.5542-.7095-2.0652-4.63738-5.3152-3.80638-11.1379-1.5655-17.3602,6.1236,8.3497,15.5059,7.9495,25.1687,8.628-2.1784,3.9167-5.639,5.0598-7.9168,7.4144-2.7329,2.8247-1.141,6.7545-3.2966,9.5309-1.5245.6865-1.7454,1.6591-1.1016,3.2318Zm27.7942,38.2704c-2.1109.4271-2.9142-1.4323-4.2387-2.401-3.6679-2.6826-8.4743-3.8469-11.67008-6.6465-2.93612-2.5723-5.25132-3.1679-8.65532-2.676-2.1669.3131-4.4214.2586-6.6156.0922-4.2229-.3201-5.5893-2.7516-3.5077-6.4505,1.55362-2.7605,3.8507-4.9277,6.9487-6.7002-.1983.9764-.4005,1.5999-.4422,2.2339-.3924,5.961-.0923,6.0648,5.6246,7.9805,6.9903,2.3425,13.8481,5.0796,20.7632,7.646.5379,2.3226,2.1685,4.3623,1.7931,6.9216Zm-13.9724-18.0359c.2683-.2334.5365-.4668.80462-.7002.789.0358,1.36028.4088,1.80878.9408-.4485-.532-1.02-.9047-1.8094-.939-.2675.2316-.5357.465-.804.6984Zm18.3571,20.108c.3319.3002.6236.6396.8659,1.0282-.2423-.3886-.5341-.728-.8659-1.0282Zm2.3389-10.709c-3.9801-1.9608-1.9498-5.0323-2.8317-6.8755-.6623,1.4733.473,3.8645-.8401,5.5747-7.3412.3124-7.9202-7.7396-13.02458-10.0977,2.68108-5.3582-2.63762-5.5968-4.95532-7.7739-2.1036-1.9762-4.5858-3.7054-5.0899-7.3466,3.4515.6069,7.221-1.2761,9.1643,3.6036.694,1.7424,2.9628,1.0383,3.9732-.888,2.5458-5.804,1.1713-11.8631,1.1393-17.8308-.01458-2.7133-.7821-5.4918.5641-8.7584,2.0192,1.6605,2.0434,3.3884,2.2487,4.9829.6537,5.076,1.2944,10.1545,1.8539,15.2414.30972,2.8135.4211,5.6573,2.6636,7.7735-.0981.44-.1962.8801-.2938,1.3204.5376,1.9994-1.95908,5.6161,2.8687,5.3774.2189-.0108.5967.7217.6963,1.1548,1.0576,4.6092,2.222,9.2134,1.8633,14.5422Zm-3.914-41.2619c-.0148-.4275-.1655-.7772-.3877-1.0859.2222.3087.3729.6583.3877,1.0858.5458,6.2319,1.09162,12.4638,1.6373,18.6958h0c-.9161.0518-1.832.1033-2.7482.1549.3199-5.6544-1.186-11.1535-1.4489-16.7614-.09458-2.0181.6549-2.6799,2.5598-2.0892Zm3.5505-.812c-.6058-3.6963-2.4751-5.131-6.1266-3.6923-.0935.5205-.0055.9371.1851,1.295-.1906-.3579-.2787-.7745-.1852-1.295-2.1765-4.7464-2.4605-10.1725-5.2764-14.6892h-.0001c.422-3.2088.8438-6.4174,1.4684-11.1669-3.2057,3.6672-.7778,7.7023-3.8228,9.6526-2.9244-4.3954-7.0274-8.285-6.162-14.3131-.7518-2.4625-1.4307-4.9505-2.2766-7.3804-.7905-2.2696-2.4959-2.623-4.5861-1.8394-.6454-.6973-2.0548-1.666-1.45858-2.277,3.54418-3.6326,1.489-7.0998.19828-10.7668-1.6168-4.594-3.1722-9.2095-4.1895-14.0099-.5157-2.4334.0911-3.7289,2.25422-4.5504,0,0,.10458-.0251.10418-.0251,4.3966-.9901,5.4119,2.4287,6.6292,5.2906,1.5857,3.7289,1.4632,8.3058,5.876,10.5442,1.2928.6557.5393,2.1655.3845,3.3536-.6334,4.8627-.6112,4.8656,4.7829,2.9718.5316-1.7756,2.1233-2.4886,4.3666-4.0747-1.0896,2.5898-2.0703,3.9303-3.9891,4.5311-.1589,2.4054-2.208,3.7874-3.1038,5.7856-.5787,1.2915-1.735,2.5978-.6252,4.0822,1.1658,1.5596,2.7922,1.8517,4.628,1.2807,1.3524-.4207,2.59772-1.5518,4.1833-.7219-5.5675,6.9475-5.537,6.8172,3.6559,8.9755,2.2583.5302,4.1521.5927,6.40452.0479,3.48228-.8421,5.16058.9037,4.40458,4.3882-1.09158,5.0296-4.452,8.676-8.0572,12.0999-.00138-.0007-.0026-.0011-.004-.0017.0662-.294-.02838-.5139-.2849-.6639.0798-.544.1597-1.0879.23952-1.6318-.77782-3.1638-2.67452-2.6579-3.72392-.5947-1.5333,3.0153-1.6896,6.3678.1972,9.7885,1.44972-.4595,2.5638-.9313,3.7256-1.1488,1.2866-.2408,2.51612-1.4846,3.7366-.5572.6952.9695.174,1.6131-.16848,2.163-1.84192,2.9588-1.37782,6.4809-.32882,9.0352,1.2794,3.1154,4.7656.4635,7.2661.696.7226.0673,1.4589.0067,2.1883-.0163,3.1546-.0995,3.5107,1.9039,3.2809,4.3518-1.6241,1.1308-2.2168,2.5603-1.3468,4.4138-3.2343.2011-3.6509,3.1764-5.0178,5.2164-1.7457,1.6404-3.491,3.2817-5.5233,5.1927-2.5065-2.4769-2.0798-5.5563-2.2955-8.2131-.3156-3.8885-.9795-7.6965-1.6072-11.5267Zm1.3087,76.6124c-.0373-6.1523-.1535-12.3041-.23858-18.4563.605.0214,1.20978.0429,1.81468.0643.3789-1.8368.5925-3.4613.6256-4.8942-.0331,1.4329-.2467,3.0575-.6256,4.8944,1.396,7.3361,1.6234,14.756,1.594,22.1944-2.7549.1453-3.1566-1.5894-3.1701-3.8026Zm1.5059-53.8072c2.3392-1.7061,3.7427.3441,5.4576-.1116,1.6056-.4265,3.593-2.7233,5.005.1935,1.11692,2.3074-.92308,3.7958-2.1659,4.9827-3.228,3.0821-2.3017,5.9107-.22218,8.9672.48208.7084,1.39078.9097,1.37208,2.2635-.062,4.4834.09692,4.4855,4.0294,5.51-4.9293,1.9782-.4611,9.7978-7.7027,10.8967-2.9065-10.7273-2.46478-22.2088-5.7733-32.702Zm9.43652,38.3264c.08048,2.6094-1.86742,1.8748-3.41542,1.2227-.2171.6294-.32958,1.2557-.3182,1.8784-.0115-.6227.1011-1.2492.3182-1.8785.0538-.7264.1078-1.4528.1615-2.1792,1.3325-.4124,3.1981-.8498,3.25392.9566Zm22.72118,44.3294c-8.3201.2059-16.6298,1.367-24.9598.173-.3437-1.144-.68738-2.2879-1.0313-3.4318-.5323-9.2292.50892-18.4908-.5722-27.7088.6672-.9715.672-1.9439.0033-2.917.177-1.8289.354-3.6577.53082-5.4866l-.00012-.0001c3.0553.3226,5.8222.1361,7.0262-3.4358.2004-.5945.9754-.9954,1.48492-1.4855,1.29188-.6966,2.56548-1.4112,2.94968-3.0001,3.88032-4.1929,9.12632-6.6457,13.3134-10.4478,3.3411-1.3531,6.5471-3.227,10.37792-2.6982-.45882,7.7924-.29272,15.5888-.91182,23.405-.8677,10.9521-3.1084,21.736-3.5097,32.7187-.0702,3.0712-1.72648,4.2413-4.7013,4.315Zm6.89082-.8015c.23938.1849.51378.2833.82.2929-.30622-.0095-.58062-.108-.82-.2929Zm172.09688-8.4104c-.0282,1.1612-.6691,2.3074-1.02588,3.4606-2.48732.2351-2.68522-1.4303-2.69482-3.2489-.0371-7.0531.1131-14.1589,1.84082-20.9753.85308-3.3662-.79052-7.3868,2.446-10.1419-.17392,10.3021-.31572,20.6052-.56612,30.9055Zm4.01412-17.3093c.06888-2.4744-1.15752-5.1116,1.211-8.1092,1.35938,2.9695.78558,5.5122.83858,7.9565-.6832.0509-1.3664.1017-2.04958.1527h0Zm2.16768,10.0526c-.0729,1.4545-.17168,2.9081-.2803,4.3615.10862-1.4534.2074-2.907.2803-4.3615s.1199-2.9101.1248-4.3671c-.0049,1.457-.0519,2.9125-.1248,4.3671Zm1.2361-62.977c-.9963,12.541-.6696,25.1068-.7564,37.6631-.0155,2.2434-.25538,4.3983-.8243,6.7348-2.3702-.6522-2.0339-2.0726-2.0696-3.1682-.5107-15.6853-1.989-31.3767.03952-47.054.38978-3.0137-.027-4.6761-3.73112-4.2698-16.186,1.7752-32.42388-.039-50.1005,1.0125,3.9047-2.6428,7.1869-2.4717,9.8041-2.2478,13.7911,1.1798,27.4957.2219,41.2214-.76,5.2516-.3757,5.9179.1885,6.3465,5.4439.1795,2.2041.2453,4.4448.0704,6.6455Zm101.80282,82.2495h-58.0383c-.0322-.2886-.0329-.5773-.0024-.866h58.0414c-.0002.2887-.0004.5774-.0007.866Zm-.5137-167.3881c.0422,11.9997.3401,23.9985.5269,35.9976l.0002-.0001c-.0436,1.393-.0871,2.7858-.1305,4.1786-.9608,3.5653-.6093,7.1337-.0256,10.7028-.7512,23.8842.7701,47.743.8006,71.618.0153,12.0481-.1047,24.0964-.0972,36.1445.0021,3.0418-.4051,5.1133-4.3506,5.1349-30.774.1681-61.5473.5056-92.32103.774-.2121.002-.4264-.2313-.8763-.4918-2.6878-20.828-1.9635-41.8697-.7971-62.8892.46573-8.3891-.1274-16.7035-.5025-25.0392-.2229-4.9551-3.673-8.3623-8.5055-7.6849-18.1408,2.5418-36.4286.5621-54.5911,2.1261-2.8009.2413-5.3466.4607-7.5035,2.9338,2.0369,1.8639,6.787.6548,6.37932,5.2469.63938.4825,1.27868.9651,1.918,1.4476,11.80818.1047,23.61658.1927,35.42458.3299,1.9562.0228,3.9699.002,5.8543.4414,8.29712,1.9348,8.6642,2.6088,9.2003,11.2299.5534,8.8983-.9949,17.6728-1.24818,26.5186-2.77552,14.7314-5.05962,29.5129-4.56682,44.5791-5.3689,2.953-11.3355,1.4828-17.0011,2.18-9.7382,1.1983-19.4735-1.0072-29.2393-.7056-2.324-2.5971-2.6512-5.825-2.0734-8.9378.4502-2.4253.7515-4.7959.8384-7.2547.8064-22.7988.1173-45.6601,2.81122-68.3808-.63932-.4825-1.27862-.9651-1.918-1.4474-1.181.5969-2.05692,1.5847-1.94592,2.866,1.1475,13.2332-1.0352,26.4092-.5524,39.6522.3292,9.0359.24732,18.1798-1.3625,27.1327-.7294,4.0565-2.38918,7.872-1.012,12.1437,1.00782,3.1267-1.5204,3.5796-3.72,4.0743-.8808-.0113-1.7616-.0226-2.6425-.0339-10.8905-1.6721-21.8564-.8693-32.7938-.9965-24.1257-.0266-48.2516-.0534-72.3773-.08-2.7549-3.0375-1.2097-6.5037-.7579-9.7254,3.0075-21.4432,4.122-42.9783,3.51632-64.6126.87818-6.3627.86088-12.7165-.192-19.0597-.25282-11.9412.993-23.8812.02678-35.8227,1.8611-7.8183-.1714-15.6016-.2099-23.4028-.1483-.5821-.2966-1.164-.444-1.7464.0333-.8423.068-1.6849.1037-2.528,1.1496-3.6143.7762-7.3228.6332-11.0072-.4942-12.7592-.5304-25.4749,1.067-38.206.8829-7.0371,1.5819-14.2159-.35578-21.3169-.50342-1.8457.28468-4.085-.34952-5.8448-1.0611-2.944,2.9983-.8854,2.65452-3.2434-.34972-2.3986.13158-4.909.13728-7.3708.0063-2.7095-.0911-5.42-.1864-8.1285-.0868-2.4626-.1863-4.9264-.364-7.3837-.177-2.4471-.5208-4.8827-.6762-7.3306-.1558-2.4578-.1694-4.9246-.2455-7.3874l.0219-.0224c4.9641-.1153,9.9831.3392,14.7902-1.4179,9.4859-.6538,18.9781-1.227,28.4562-1.9804,14.1566-1.1255,28.3458-.887,42.5219-1.201,3.669.039,7.3381.1155,11.0072.1111,23.9968-.0293,47.99342-.0761,71.99-.1171,24.64612.0754,49.29212.1544,73.93822.2224,3.9441.0109,7.8887-.0272,11.833-.0426,6.4475.4305,12.8949.8611,19.3426,1.2916l.0962.0638c1.6868,12.7009.6898,25.4855,1.1887,38.2235.1052,2.6862.1854,5.3735.2737,8.055-.0014-.0011-.0026-.0023-.0038-.0034.0526,11.7416.105,23.4833.1578,35.225-1.6242,10.6785-1.6091,21.4456-1.5711,32.1986Zm4.8233,166.9281c1.576-.843,3.0302-.8864,4.571.1112-1.5823.6976-3.0457,1.1029-4.571-.1112Zm6.9171-3.0959c-.5143.1298-1.0151.4162-1.4517.3389-2.0029-.3544-5.1465,1.1272-5.644-1.7985-.4854-2.8528-1.6436-6.3558,1.8663-8.6836,1.2026-.7979,3.1795-1.4613,2.3571-3.5879,1.5866.8682,2.2548-1.3298,4.1692-1.2803-2.3186,4.9085.0777,10.0513-1.2969,15.0114Zm1.184,3.2022c3.2058-.5022,6.3402-1.0312,10.3263-.1758-4.014,1.2285-7.2193.5079-10.3263.1758Zm18.2026-.4364c.8879-.1767,1.7757-.3534,2.6638-.5302.3305-.9417.5366-1.9727,1.0266-2.8001-.49.8274-.6961,1.8585-1.0266,2.8005-.8881.1764-1.7759.3531-2.6638.5298Zm108.5677-63.6698c-3.6324,1.745-7.2458.7796-10.8987.0659,3.6167-2.5254,7.2088-1.6931,10.8987-.0659Zm-18.7046-2.0128c.4767.1093.9459.333,1.412.6455-.4661-.3125-.9353-.5362-1.412-.6455-.4766-.1096-.9611-.1048-1.4572.0396.4961-.1445.9806-.1492,1.4572-.0396Zm4.1394,12.4983c.242,7.6511-.6034,15.2475-1.0721,22.8631q-.4544,7.38-8.4238,7.4523c-.3396-.3451-.9053-.6443-.9862-1.0421-2.4104-11.8256-.3873-23.5686.6966-35.3317.1868-2.0266,1.5774-2.1024,3.0844-2.0907,6.5256,1.7151,6.4974,1.716,6.7011,8.1491Zm-7.8101-10.9102v.0001h-.0002c-2.9445.0042-5.8896.0185-8.8346.0253,2.945-.0068,5.8901-.0211,8.8348-.0254Zm-36.821,34.8602c4.1565-4.431,3.3381-9.6487,2.8164-14.9596-.6175-6.2881.2694-12.6469-.9111-18.8251.7036-.3234,1.1286-.6663,1.5793-.7041,8.9612-.7485,9.1894-.7042,9.0878,8.2024-.1038,9.0625-.7375,18.1183-.9137,27.1813-.062,3.1927-1.1268,4.3258-4.3626,4.0383-2.739-.2436-5.308-.6978-7.885-2.1325.1821-.9658.0359-2.2112.5889-2.8007Zm60.0542-26.2964c-.6211,11.0351-.568,22.1081-1.1871,33.1433-.2615,4.6586.4403,9.3109-.4333,13.9806-.7107,3.7993-2.2714,5.2568-6.3702,5.1495-11.5606-.3024-23.1343-.0781-34.7031-.091-7.3734-.0082-14.6392,2.2972-22.0695,1.0087-6.4921-.8012-6.8906-.7855-7.0805-5.5894-.6494-16.4185-3.5437-32.756-1.7271-49.2713.5863-5.3283.3858-5.3582,5.9942-5.4333,1.9297-.0261,3.9847-.487,5.4326,1.3915-.0502-.8063-.2318-1.3749-.5065-1.7743.2747.3994.4563.9679.5065,1.7743.0838,10.5643,1.8584,21.2294-.5316,31.6363-.7658,3.3361-.1427,6.0591.2422,9.0648.2988,2.3357,1.2998,3.685,3.9113,2.9661.4706-.1295.97-.165,1.4591-.2171,3.8322-.4079,8.705,1.8596,11.2581-1.2472,2.3214-2.8248,1.1948-7.5737,1.2523-11.4478.1491-10.0712,1.4303-20.1305.4316-30.2158v-.0002c.6511-1.3669,1.3998-2.4704,3.2382-2.3087,2.1738.1909,4.3687.2649,6.5505.2138,5.2197-.1221,5.5973-.1589,5.5346,4.8195-.1342,10.6783-.6872,21.3516-1.1176,32.0248-.0279.6933-.4708,1.37-.7208,2.0546-.5323,5.6332.2441,6.9619,4.6464,8.1442,3.4144.9172,6.857.2659,10.2829.2293,4.2445-.0455,6.4094-3.4261,4.0913-6.8849-.891-1.3291-1.3336-2.2942-1.3061-3.8035.183-10.099,1.1021-20.1267,2.2463-30.1619.4959-4.3502,3.0311-3.6355,5.6635-3.5266,2.784.1151,5.2516.1067,5.0118,4.3717Zm14.9491,57.5394c6.3759-.7658,12.7027-1.1503,19.033-.1903-6.3465,1.16-12.724.2802-19.033.1903Zm54.1818-6.4368c-1.5028.2921-2.631-.3488-3.7493-1.4198,1.2038-2.1322,2.934-2.3141,4.4821-2.3101,1.1134.0029,2.4789.5804,2.4627,2.0944-.0254,2.3752-1.9931,1.4019-3.1955,1.6355Zm26.9797,5.1301c-4.7804.3113-9.5615.6235-14.3423.9357,4.7808-.3122,9.5619-.6244,14.343-.9368,1.9987-1.43,4.0941-1.2748,6.4589-1.0719-2.3648-.2027-4.4605-.3578-6.4596,1.073Zm19.986-21.7623c1.3249,2.8165-.1335,5.8428.6584,8.6993,0,0-.1226-.4687-.1348-.522-.0016-.007-.0016-.0152-.0032-.0223-.8173-.033-1.6347-.0659-2.4519-.099-.4518-1.5779-1.0116-3.1342-1.3306-4.7384-.5151-2.5915,1.02-3.3437,3.2614-3.318.6588.0998,1.3179.1998,1.9767.2996-.6588-.0998-1.3179-.1998-1.976-.2992Zm8.2701-.1492c.4638.3165.9276.6334,1.3913.9501-1.0547.9069-.2556,1.4864.3699,2.0966.2357.4179.3777,1.0876.7213,1.2155,4.7763,1.7807,1.8975,3.9226.3243,6.0081-1.3357.1476-2.5052-.0753-3.1715-1.4212-.0957-1.406-.1915-2.8118-.2873-4.2177.3953-.8177.0338-1.3415-.6726-1.7314l-.0033-.0145c.2629-1.0447.1542-2.2603,1.3279-2.8855Zm4.6959,16.0277c-2.8936.3922-6.3259,1.8711-8.7449-1.4296.215-.8949.157-2.0403.7013-2.6321,1.1082-1.2045,1.4049.3136,1.9161.8947,1.833,2.0841,3.926.4045,5.8991.4355.3927.9384,2.0919,2.4792.2284,2.7315Zm5.6319-27.7084c-.0414-.2774-.0573-.556-.0587-.8353.0014.2792.0173.5578.0589.8353h-.0002Zm5.8278,5.2436c-.0003-.0004-.0005-.0006-.0005-.0006.3058-.1545.7104-.2561.967-.4361-.2568.1803-.6617.282-.9665.4367Zm2.9769,8.3186c-.2715.8786-.9139,1.2563-1.6077,1.3032.6935-.0469,1.3357-.4248,1.6051-1.3037.2727-1.449-.1413-2.5102-1.0467-3.2874.9059.7772,1.3199,1.8386,1.0493,3.2879Z"/><path class="cls-1" d="m142.53404,15.1152c.215-.0229.4187-.0649.6053-.1357-.2033.0114-.4047.0661-.6053.1357Z"/><path class="cls-1" d="m17.40905,172.745c.0021-.0097.0043-.0196.0065-.0292-.0101-.0037-.02-.0054-.0301-.0092l.0236.0384Z"/><path class="cls-1" d="m253.49426,222.3944c-5.88222.2098-11.76172.5776-17.66252.4459-3.9584-.0885-7.8178.4166-11.4991,2.0505-2.3301,1.034-1.6755,2.5924-1.0033,4.2414v.0002c.2961,2.4299.8308,4.858.8482,7.2901.09172,12.7506,2.3235,25.4075,1.53872,38.2028-.24552,4.0018.04308,4.0238,4.61668,2.7879.00332-.0006.0139-.003.0136-.0029,1.7056,2.1195,3.7749.5535,5.6899.561,8.3475-1.5468,16.6493-3.9682,25.2179-1.3294,6.0891-.1265,7.6721-1.815,7.7515-7.6132.165-12.0788-1.6788-24.0276-2.2154-36.0665-.3943-8.8433-3.3289-10.9236-13.29618-10.5678Zm-26.50832,5.3957c-.2918.1539-.5694.3664-.8456.5851.2762-.2187.5538-.4314.8456-.5851Zm35.322,18.9311c-.9679,4.196-.5199,8.3086.72832,12.3742.28958,1.7679.57918,3.5356.86878,5.3035v.0006c-.5201.7392-.4327,1.3957.2681,1.9689-.0115,1.8857-.0233,3.7714-.0348,5.6572-1.3589,2.0327-3.4329,1.9151-5.265,1.2873-5.41-1.8539-10.7182-.7996-15.8528.675-3.7509,1.0771-7.85528.494-11.3298,2.6114-.4802.2772-.96.5544-1.4402.8319,0,0,.01272-.0029.0179-.004l-.0179.004c-3.34628-4.2927-1.58928-9.4088-2.0214-14.0987-.9386-10.1872-1.0677-20.4472-1.6558-30.67-.1232-2.1448.023-3.8847,2.2306-4.8179,4.1377.1228,8.2752.2601,12.4134.364,3.0718.0772,4.3504,1.5617,4.0317,4.6567-.2833,2.7508.9177,6.2272-3.6784,6.4795-1.7011.0936-3.4069.1143-5.1047.2448-1.3796.1059-3.3891-.1071-3.0192,2.0176.3389,1.9469,2.23152,1.2901,3.5923,1.1046,1.2021-.1638,2.3824-.4861,3.5724-.7384,2.7283.1158,3.7333,1.3984,3.6329,4.241-.2427,6.8781.3121,13.7786-.51,20.646-.1707,1.4248.2837,2.5879,1.794,2.4855,1.1254-.0765,1.1458-1.2946,1.1611-2.3206.10582-7.1161.2776-14.2315.3837-21.3476.0462-3.1039,1.52012-4.4941,4.6212-4.1391,3.1748.3635,6.3515.7131,9.5274,1.0688-.077-.6675-.1542-1.3353-.2316-2.003-1.7988-1.1976-3.8594-.3982-5.7685-.7562q-7.40938-1.0055-7.5723-8.5137c-.02108-.9411-.1099-1.8808-.1648-2.7865,13.3326-3.3876,14.6349-2.2039,13.5056,12.0562.0774.6679.1546,1.3357.2316,2.0032-.0002-.0002.0333.0255.034.0259.234.4883.4683.9766.70252,1.465.11668.8743.23328,1.7484.34988,2.6227,1.4777,1.0653,2.4977,2.2464,3.0592,3.5223-.5615-1.2759-1.5816-2.4569-3.0594-3.5221Zm-13.4375-5.6666c-1.867-.0162-3.75-.1421-5.5748.1354,1.82462-.2776,3.7078-.1516,5.5748-.1354Z"/><path class="cls-1" d="m344.26066,291.0712c-2.9826.3319-5.9654.6636-8.9482.9954-4.375,1.0106-8.8313,1.1644-13.2931,1.2584-2.4731.9088-4.9501.8151-7.4299.0312-2.9119,1.0818-6.1008-.3382-8.9848.9941-.1504.5387-.3009,1.0776-.4513,1.6165.3082.4623.6165.9249.9247,1.3874,4.7989.0447,9.5978.0896,14.3967.1344-4.7989-.0448-9.5978-.0897-14.3967-.1343-.4081.3622-.8165.7243-1.2178,1.0911-.377,9.7321-.5845,19.4711-1.1942,29.1847-.6229,9.9251,3.4388,19.2791,2.8678,28.9421,2.527,1.2001,5.2354-.6526,7.2712,1.3868,4.5558-2.0767,9.3345-.7421,14.0144-.9164,4.4698-.655,8.9465-.9402,13.4405-.2358.9529-.0238,1.9058-.0475,2.8587-.0712,1.042.3675,2.0839.7349,3.1264,1.1017-1.6762-14.9461-1.2848-29.8779.4992-44.7762.7318-6.1114,1.6307-12.1948,1.4612-18.3718-.8993-2.2296-2.3453-3.712-4.9448-3.6181Zm-.7091,31.4192c-.4485,10.0207-.982,20.0377-1.5128,30.6175-2.532.175-5.3531.3699-8.1742.5649h-24.2392c-.4361-1.6192.6876-3.1428-.0045-4.8558-3.966-9.8128-4.0429-20.0538-3.1579-30.399.4389-5.1297,1.0761-10.2916.879-15.4102-.1502-3.8904,1.4166-4.5864,4.655-4.3274,2.9553.2363,5.8959.0017,8.6792-1.1899,1.3964-.0167,2.7929-.0333,4.1894-.0498,1.6192,4.639,1.5969,9.3419,1.2699,14.0319-5.7205,1.2675-11.1064-.6409-16.6977,1.5033,3.751,2.1549,3.7599,1.8978,9.4251,2.1081,7.6324.2833,7.3667-1.3218,7.3146,7.0032-.0183,2.9417-.4917,5.8906-.3753,8.8211.2082,5.235-1.6032,10.4808-.3551,15.74,2.5869-.2296,2.471-1.8117,2.4705-3.3009-.0024-5.6648.0434-11.3303-.038-16.9941-.1688-11.7713-.1141-11.8387,11.1888-9.8359.714.1264,1.4664.0343,2.201.0438,3.7214.8287,2.3824,3.6844,2.2822,5.9292Zm1.9997-17.1955c-.0765,2.711-.1976,5.421-1.2214,7.9995-.5945,1.4975-1.8297,1.3748-3.0579,1.3455h0c-.6227-.3396-1.2096-.8491-1.8746-.9897-3.0762-.6505-6.7365-.3757-9.1152-2.0013-2.6836-1.8337-.5156-5.921-1.5657-8.8805-.4797-1.352-.6032-2.8305-.8881-4.2516,3.8369,1.0403,7.6491,1.319,11.6721.8198,5.8013-.7198,6.2216-.0828,6.0508,5.9583Z"/><path class="cls-1" d="m302.58546,143.0464c-1.9846,16.9348,1.1663,33.717,1.5392,50.5823.0498,2.2477,1.4131,3.5775,3.874,3.4043,1.4682-.1035,2.941-.1426,4.4118-.2051,9.511-.4054,19.0074-2.5385,28.5475-.1716.9561.2373,1.9088-.2758,2.0702-1.5068.6535-.692.5025-1.4927.3103-2.2991.1406-.9524.2814-1.9046.4239-2.8582-.2293-2.0961-.4607-4.191-.6921-6.2859.5783-.7406.4778-1.4176-.1918-2.041.3978-13.4241-1.6196-26.8611.5476-40.3011.6008-3.726-4.9198-8.117-8.958-8.4628-9.5471-.8178-19.083,1.2729-28.6209-.0243-2.1044-.2861-3.2382.6607-3.2734,2.8258-.6032.4752-1.0205.9956-.4271,1.7613-.8816,1.9414-.4308,3.7783.4388,5.5822Zm20.1776-3.8958c4.6992-.5309,9.315-.9495,13.9632-.1062,2.1203,5.1208,1.2627,10.5313,1.4683,15.8283.0643,1.6558-1.5187,1.4997-2.6772,1.6198-.9958-.8998-2.1651-1.0751-3.4367-.8217-1.641-.141-3.298-.4967-4.9202-.3781-3.3234.243-3.9327-1.7483-3.9892-4.362,1.0371-3.8751-.9409-7.6678-.4082-11.7801Zm-14.1455-1.247c-.3946.1474-.7722.3565-1.1278.6418.3556-.2854.7332-.4944,1.1278-.6418Zm-1.4305.8919l-.0003.0002c2.4104-.0547,4.8266-.0254,7.2304-.1831,3.98-.2609,5.6366,1.7238,5.9046,5.5034.2006,2.8275-.4492,5.835,1.4096,8.3955-.5046,3.7678-3.4961,2.255-5.6098,2.6809-2.5291.5097-5.7008-1.2908-7.7962,1.9882,2.6126,2.1288,5.2542.6475,7.7331.784,1.9306.125,3.861.25,5.7916.3748.085,1.8927.17,3.7853.2549,5.6779.7475.011,1.4953.0219,2.2428.0327-.2244-1.9206-.4483-3.8409-.6722-5.7614.4558-.0821.8743-.2546,1.2554-.5173,3.0115.0639,6.0229.1278,9.0341.1918,1.9933.4093,4.2424-.2095,4.5856,3.2651,1.0376,10.5101,1.1192,21.0126,1.054,31.7682-2.923,0-5.5572-.2412-8.13.0551-4.1248.4751-5.174-1.7164-5.1122-5.1819,1.0169-8.0826-1.4265-15.8726-2.0144-23.8194-.7478-.011-1.4956-.0219-2.2431-.0329-.0439,7.9801.4699,15.903,2.4113,23.6808q-.8083,5.8023-6.8741,6.303c-.2443-.0338-.4898-.1044-.7327-.0961-9.833.3351-10.051.3517-10.7546-9.3362-.8562-11.7906-2.3071-23.5636-1.6326-35.4356.1103-1.9375-.3178-3.9055-.4971-5.8595.4762-1.9006-.4593-4.798,3.1619-4.4782Z"/><path class="cls-1" d="m153.51064,147.3328c2.3937.3445,4.87.7027,7.2119-.4228,3.1579.2613,6.3559-.6517,10.1003.4784-.5938,4.4277,1.4281,8.9283-.0582,13.5702-2.6146.0384-5.2289.0774-7.8435.1154-1.18.0171-2.6711-.0579-2.3944,1.6426.24552,1.5086,1.73752,1.2501,2.904,1.1916.4743-.0238.9467-.0854,1.4201-.1298,5.90042.8321,5.7988.8372,6.0691,6.3039.2882,5.8341-.8576,11.716.59432,17.5076.02108.8872.04288,1.7751.06478,2.6629-.277.5842-.5539,1.1683-.8309,1.7527-3.4012.4215-6.8063.818-10.2024,1.2772-1.32248.1789-3.4066-.203-2.8863,2.0904.3497,1.541,1.9189,1.1308,3.06.6758,2.3761-.9475,4.9315-.1675,7.2691-.7211,4.2073-.9964,1.626,4.3043,4.2718,4.3402,2.24.0305,1.6694-4.8379,5.3183-3.0812,2.62062,1.2617,5.5375,1.9079,8.3222,2.8289,1.1707.5912,1.8297,1.4941,2.0475,2.8318.215,1.32-.0488,3.3443,2.1555,2.9948,1.8051-.2861,1.7715-2.076,1.8992-3.5386.6208-7.1035.1814-14.1997-.09878-21.3012-.40512-10.2689-1.849-20.5149-1.13342-30.8036.4326-6.2231-.5717-8.3604-6.2939-8.3163-10.2921.0794-20.5789.7709-30.8686,1.1914-1.4854.0607-2.2243.8387-2.2564,2.26-.03268,1.4501.9751,2.4284,2.1587,2.5988Zm35.6205,47.5716c-.0551-.3613-.1792-.757-.3874-1.1945-.2556.6846-.3513,1.8305-.7914,1.9831-4.6367,1.6064-8.241-2.0972-12.5313-2.6857-2.3146-.3174-1.3077-3.3178-1.5946-5.168-.0051-7.9483-.0103-15.8966-.0154-23.8447l.0384-.0613c.3804-1.0315,1.0457-1.3497,1.7979-1.437-.7522.0874-1.4175.4058-1.7979,1.4376,4.4725.0472,8.9447.0939,13.4173.1407.4924,9.8784.9846,19.7568,1.477,29.635.2082.4378.3323.8335.3874,1.1948Zm-3.4997-47.0512c.1229.4902.2459.9802.3691,1.4704.4922,3.4194.9841,6.8387,1.4763,10.2582.0446.5555.0892,1.1113.1338,1.6669l-.2706-.0567c.1281.2437.2187.4863.2743.7282-.0556-.2419-.1462-.4844-.2743-.728-1.6141.0677-3.2281.1354-4.8423.2031-.72148.6265-1.52348.8773-2.3583.9815-.4175.0521-.8433.0676-1.2714.0751.4281-.0075.8539-.023,1.2714-.0751.83482-.1043,1.63682-.3551,2.3583-.9815-2.7826-.1467-5.5652-.2932-8.3478-.4397-.5924-4.8428.82332-9.9033-1.5789-14.5496,4.318.8027,9.01722-1.8346,13.0604,1.4472Z"/><path class="cls-1" d="m325.03076,270.5858c3.3226.8716,6.6117,1.9125,9.9752,2.5781,6.136,1.2143,8.1689-.546,8.0354-6.7854-.084-3.9287-.4978-7.8554-.4685-11.7808.0683-9.0852.5758-18.1737.4105-27.2519-.1354-7.4336-2.0865-8.9189-9.5217-8.5125-8.6006.4702-17.0993-.0578-25.4567-2.2667-3.5968-.9507-8.0709,2.2088-9.5277,6.702-.1303.8381.0024,1.5885.7163,2.1446.1028.7767.2061,1.5529.3093,2.329-2.5791,14.4874.2031,28.7693,1.7056,43.0951.1073,1.0221,1.3902,1.9357,2.1814,1.5154,6.991-3.712,14.4671-.8296,21.6409-1.7669Zm14.3941-10.6738v.0005c-.8336.7564-1.016,1.5755-.2401,2.4871-.0075.2424-.0063.4856-.0239.7273q-.5872,8.1117-8.8742,6.2494c-1.1731-.261-2.4076-.2465-3.6135-.3596-.9397-1.0294-3.3592-.6994-3.2182-2.45.7872-9.7687-.5327-19.4592-1.1481-29.827,5.4452,0,10.5673,0,15.6899.0003,1.0115-1.2332,1.5527-2.5459,1.5908-3.9437-.0378,1.3978-.579,2.7106-1.5904,3.944,1.9067,7.6358.3378,15.4856,1.4277,23.1717Zm-7.2276-36.4825q6.344.0703,6.9079,6.7574c-.8791,1.5762-.7928,4.0417-3.6491,3.7721-.9571-.0905-1.9433.1945-2.9147.1837-13.0228-.1427-10.4676-.2817-8.9991-10.7824,2.885.0224,5.7701.0372,8.655.0692Zm-29.0762-3.0809c-.3428.1647-.6757.4242-.997.7958.3213-.3717.6542-.6311.997-.7958Zm.0437,44.1476c-1.85-9.6896-2.3931-19.4578-1.7472-29.2917.1146-1.7452,1.6373-1.3908,2.7611-1.557-.3821-.788-.7644-1.5761-1.1465-2.3642-1.8115-.5681-1.2801-2.3213-1.7937-3.5458.0726-1.8753.1453-3.7507.2181-5.6259,1.9302-.1998,3.8608-.3997,5.7912-.5997,4.2401,1.4145,8.8827.1195,13.0622,1.941-.0744.975-.1633,1.9492-.2206,2.9253q-.3912,6.6675-7.1665,6.1746l-.0003.0001c-3.2965-.4232-6.5936-.8464-9.8904-1.2696.3821.7881.7644,1.5762,1.1474,2.3644.0005,0,.1545.0374.1538.0372,2.9938,1.2909,6.2441,1.1854,9.3746,1.7318,5.7299,1.0003,6.066,1.206,6.4486,6.8992.5576,8.3009.8939,16.6167,1.353,25.4763-4.644,0-9.5051-.0886-14.3603.0368-2.4702.064-3.5592-1.1051-3.9845-3.3328Z"/><path class="cls-1" d="m166.31426,276.2957c-1.554-.0827-2.77792-.7583-4.054-1.5321-1.39532-.8461-2.97742-1.0128-3.47992.9492-.36608,1.4285.9724,2.1075,2.1536,2.4246,3.5895.9634,7.95632-.0613,10.2954,4.1065.0596.1063,1.0747-.046,1.1824-.2854,1.564-3.4766,4.6118-1.7332,7.0654-2.098,2.577-.3829,5.5046.5397,7.551-1.931,2.8485-1.8943,2.9145-4.5093,2.711-7.7038-.883-13.8555-3.4445-27.6861-.68488-41.6337.81788-4.1334-1.18012-6.3511-6.03742-5.7648-9.4995,1.1467-18.9585,2.0224-28.5258,1.4052-1.7835-.1151-3.5365.2405-4.1566,2.2467-.6691,2.1653,1.0665,2.9883,2.4794,3.9357-3.4287,4.0241-1.6267,8.9124-1.9909,13.368-.9346,11.4341.08232,22.7905,3.3482,33.9765.65312-7.7047-1.1066-15.329-1.0238-23.0147.0873-8.078,1.369-16.0506,1.3831-24.1079,2.0266-.4665,4.0533-.933,6.0799-1.3994,1.71192.0814,3.4261.1296,5.1352.2518,3.5456.2534,4.7524,2.122,5.4122,7.0983.4429,3.3397-.994,4.3189-3.97348,4.5009-1.42792.0872-2.819.7904-4.22432,1.2217-1.19368.3664-1.5063,1.3113-1.0003,2.2495.26262.4867,1.2235.8817,1.829.8319.9423-.0776,1.8288-.6795,2.7772-.8665,4.6538-.9184,5.00942-.675,5.227,4.1438.367,8.1235-.7947,16.1816-1.1233,24.2745-.1307,3.2189-1.8811,3.4842-4.35528,3.3525Zm6.28688-45.4226c.15-2.7383,2.9804-1.9175,4.4194-2.972,2.39372.3108,5.0563-.6723,7.06872,1.4709h.00018c.1643.4682.3286.9364.4929,1.4047.0136,3.4401.0272,6.8802.0408,10.3202-.7245.0885-1.4547.2854-2.17288.2488-8.00532-.4094-10.27022-2.7742-9.84912-10.4726Zm-.0854,40.1433c1.72152-7.4825,1.3431-15.0922,1.598-22.6528.11152-3.3088.9022-5.1619,4.6536-4.593,1.9225.2917,3.9043.1915,5.8598.2687.4616-.491.7449-.9817.7707-1.4723-.0258.4906-.3091.9813-.7702,1.4725.45362,10.4066,1.7757,20.7794,1.2159,31.2255-2.3066,1.6841-11.0891,2.2089-12.536.6137-1.2436-1.3712-1.1444-3.3308-.7918-4.8623Z"/><path class="cls-1" d="m205.35464,318.2003c-.04438,12.3239-.0113,24.639-1.1956,36.9488-.8013,8.3299-.6534,16.752-.8919,25.1339-.0274.957.1183,2.1663,1.2024,2.3822,1.646.3277,2.0419-1.0127,2.1109-2.2733.3779-6.8867.7532-13.7745,1.0277-20.666.4903-12.2988,1.0797-24.5976,1.2846-36.9021.1039-6.2346,1.6351-12.5545-1.1566-18.8606-1.4892,4.6706-2.36388,9.3559-2.3815,14.2371Z"/><path class="cls-1" d="m150.76934,152.2173c-.0103-1.1696-.4062-2.4555-2.7018-2.52.7346,16.3685,1.7182,32.4518,2.5596,48.5687,1.7309-15.3579.2779-30.7068.1422-46.0487Z"/><path class="cls-1" d="m230.55244,193.8293c-.3277-10.3828-2.5944-20.7347-1.5033-31.1988-.4332-6.4275-.1378-12.8024,1.3775-19.0894,4.2985.0015,8.5972.0031,12.896.0045.3755,1.126,1.0475,2.2459,1.0714,3.3794.0711,3.3517,1.5704,7.3022-.32878,9.9006-1.85982,2.5445-5.87672.9377-8.93992,1.1425-2.1412.1432-3.9214.419-3.61,3.2023,3.15392-.0219,6.3264.1606,9.4573-.1191,3.6629-.327,3.8889,1.8935,3.8725,4.5122-.4492,7.0776-.0146,14.0419,2.6554,20.7198.4292,1.4349-.0366,3.1105,1.1646,4.3386-1.6073,2.2202-4.0596.9783-6.087,1.4784-3.3794.8337-7.097.9144-9.4016,4.3488,6.8788-2.2086,13.7792-2.4271,20.7604-1.3566,2.73632.6447,4.808,2.4141,6.9325,4.0946,3.905,3.0891,6.5636,2.3829,6.63782-2.3146.12088-7.6292,1.94658-15.2102.80528-22.8497-1.135-7.5966-.48328-15.2083-.5075-22.8158-.0072-2.2135.1221-4.4398-.0692-6.6377-.3387-3.8912-2.2179-6.0108-6.473-6.4718-10.36758-1.1232-20.5794,1.6802-30.91558.8714-1.518-.1188-1.75412,1.4037-1.84562,2.6681-1.2651.9815-1.5615,2.2735-1.6319,3.8531-.6874,15.4327-.042,30.8268,1.1911,46.2068.0967,1.2047.241,2.4933,2.4916,2.1324Zm33.5765-9.2506c.1254,4.0584.26532,8.1642-.7149,12.1109-3.4737-.1474-5.0744-3.1332-7.9337-3.0837-1.8729-1.9156-5.1498-.5578-6.8272-2.9288,1.2807-1.2512.4417-2.8197.6337-4.2339-.2842-7.0298-1.016-14.0038-2.6153-20.869.1066-.8788.2129-1.7575.3195-2.6364-.0003-.0005-.0003-.0011-.0005-.0017.2948-.6192.59072-1.2379.8869-1.8567,5.4779.2563,11.064-.6337,16.3604,1.5451-.4787,7.3162-.3349,14.6318-.1089,21.9542Zm-17.3276-37.3591c-.038-1.2232-.03208-2.448-.0462-3.672,3.5026-1.4145,7.1416-1.6347,10.837-1.1501,5.8346.7653,6.69012,1.674,6.7159,7.4045.0143,3.1815-.1842,6.3641-.2866,9.5462-2.6917.1798-5.3563.225-8.0278-.4132-2.8101-.671-6.7479-.1652-8.2579-1.8788-2.1076-2.3922-.8302-6.4739-.9344-9.8366Z"/><path class="cls-1" d="m187.71644,345.6412c.1615-3.2286-.0631-6.3958-.601-9.5636-1.5338-9.0327-2.2191-18.0664-.3871-27.1615.9191-4.5612-5.0962-6.5748-4.3916-11.1816.0072-.0484-1.3191-.4228-2.0276-.4404-9.3615-.2324-18.7236-.439-28.0863-.6218-1.449-.0283-3.0518-.203-3.8352,1.472-2.0339,4.3488-5.8841,8.1003-4.5187,13.5811,0,.0005.00032.001.0005.0013-1.7156,2.135-.981,4.6517-1.0306,7.0184-.2701,12.9148,3.172,25.4363,4.1148,38.2252,1.0012,2.4315,2.86362,2.2409,4.9167,1.6792,3.5956-.9837,7.24192-1.2953,10.9795-.9725,10.0463.8677,19.6122-2.6751,30.6719-2.6246-6.00848-3.6271-6.0939-3.6313-5.8053-9.4112Zm-17.833-45.1069c.208.0014.41582.0396.6232.1055-.20738-.0659-.4152-.1041-.6232-.1055-.5199-.0038-1.0419.2213-1.5669.8156.525-.5943,1.0469-.8196,1.5669-.8156Zm-1.8824,1.2176c1.4791.0124,2.9584.0244,4.4379.0364,1.4479.1609,2.8924.3703,4.3448.471,2.0489.1425,2.9903,1.1848,3.1557,3.2353.3324,4.1197.8006,8.2284,1.2125,12.3417-3.452.508-6.6561-.986-10.0104-1.2361-2.6061-.1946-3.2037-1.8151-2.9051-3.9918.4971-3.6296.2502-7.2248-.25818-10.8218l.02278-.0347Zm12.7153,51.8503c-4.7292,1.4916-9.6025,1.6877-14.4934,1.6579-3.17668-.0193-6.35168-.2562-9.529-.3074-7.2262-.1161-7.2264-.0941-8.3225-7.1469-1.5769-10.8837-2.76218-21.8038-3.0638-32.8066.2559-1.6982.3854-3.4269.78962-5.0889,1.38488-5.6957,3.73308-7.9251,9.52338-8.4723,3.0623-.2895,6.2829-1.6146,9.2669.458.8406,4.694,1.2636,9.3978.8376,14.1113-4.0645.7618-7.7871.5601-11.23388,1.9187-1.95882.2539-4.13562-1.0047-6.37472,1.1153,3.7888,2.9649,7.4311.4097,10.9145.3839q7.3088.3378,7.39422,7.8406c.06308,6.1537.07858,12.3081.17108,18.4613.0197,1.328-.5124,3.1381,2.85092,3.0913-.65272-9.5997-1.25852-19.2124-.95032-29.4036,4.65132.6859,8.8686-.4965,12.78832,1.6895,1.86118,8.7936,2.63118,17.7252,3.40758,26.6587.269,3.0932-1.081,4.926-3.9765,5.8392Z"/><path class="cls-1" d="m343.76256,189.9922c-.1427.9536-.2835,1.9058-.4241,2.8582.8395-.8491.9555-1.8061.4241-2.8582Z"/><path class="cls-1" d="m228.47364,344.5495c3.1772.1695,2.66362-2.8663,3.1068-4.7434.352-1.4897-.5293-3.1181-2.22118-3.1316-2.992-.024-2.08772,2.6597-2.56552,4.2769-.0813,1.5809-.0484,3.5059,1.6799,3.5981Z"/><path class="cls-1" d="m94.31474,312.9306c2.3982-4.5872,4.6539-7.4604,5.511-11.0353-4.1992,1.8149-5.0226,5.434-5.511,11.0353Z"/><path class="cls-1" d="m99.82574,301.8953c.0394-.0171.0741-.0367.114-.0535l.00052.0007c-.00932-.0265-.01242-.0528-.02132-.0793-.0186-.0005-.0385.0035-.0561.0014-.0103.0446-.0265.0863-.0371.1307Z"/><path class="cls-1" d="m227.03964,67.2362c1.8631.0011,2.5512,1.2769,2.5723,2.7911.0331,2.3867-.56768,4.8222-.2699,7.1566.5917,4.6361-2.0149,9.5058,1.0325,13.9349,1.4666,1.4581,3.2205,1.9754,5.2974,2.077,12.20032.5973,24.346-2.4736,36.5889-.4296,2.1822.3643,4.019-1.4486,2.6805-3.7456-3.5562-6.1022-1.84-12.7171-3.3118-19.1271,3.56272.0779,3.2623,4.0064,5.7381,3.9049,2.8207-.1157,2.455-3.2474,3.8209-4.7718,1.1233-1.2537,2.5378-2.2648,3.8986-3.2828,1.829-1.368,1.8227-2.7718.1587-4.1735-.9264-.7805-2.0093-1.3757-3.0215-2.0545v.0001c-1.3296-1.6616-2.5174-3.4729-4.5856-4.358,0,0,.0538-.1258.0526-.1268-5.0737-6.1088-10.508-11.8079-17.7156-15.4769.0002.0001-.0472-.0293-.0472-.0293-.6412-1.3588-1.8485-1.3396-3.0788-1.2649-.8587-.8168-1.6741-1.6864-2.5878-2.4364-1.03968-.8536-1.9571-2.2161-3.6446-1.2217-1.6288.9599-1.1183,2.3702-.878,3.7731.0716.4173-.1887.8914-.2969,1.3395-2.6061,1.3052-5.3258,2.4917-6.0334,5.7792l.0049.0102c-1.3249-.3145-1.8372.1607-1.4969,1.4651-.5004-.001-1.00078-.002-1.5012-.003.0658.1553.1312.297.1967.4229-.0655-.1259-.1309-.2675-.1967-.4229-5.7935,4.4847-12.2137,8.2673-16.3569,14.6006-1.56468,1.4428-3.7892,2.6273-1.8062,5.3166,1.49852,2.0326,3.0426,2.2477,4.7869.353Zm27.3491-19.0593c1.9823-.6522,3.2034,1.8401,4.3813,3.2552,2.6449,3.177,5.7166,6.113,6.8507,10.308-3.8726.5434-7.7453.4275-11.6183.0065-.0998-.4282-.2444-.8405-.4345-1.2369-.0652-.5515-.1309-1.1031-.1962-1.6546.2319-1.9423.18452-3.9753.7759-5.8011.5647-1.742-2.6105-3.939.2411-4.8771Zm-12.41348-1.1505c-.19332.5659-.38612.8764-.57852.9772.1924-.1008.3852-.4113.57852-.9772Zm-10.45422,22.2184c1.2075-7.6358,1.2319-7.7255,7.0309-8.9471,1.2317-5.1203,6.48-5.5662,9.5201-8.7808,1.7159,2.2139-.3894,4.0289.2478,5.8195-.29658,2.9153-.8954,5.4868-4.8409,4.3448-1.6105-.466-3.2288-.9053-4.8435-1.3562-1.8565,1.137-.9615,2.2772.2929,3.0688,1.3977.8825,2.9582,1.6119,4.7407,1.2672,1.3484.1352,2.6967.2704,4.0451.4057.0347,7.7931.0699,15.5862.1046,23.3795,1.0757.0072,2.1513.0144,3.2272.0216-.5098-1.2658-.6323-2.4789,1.1176-2.6792,1.7572-.2011,3.0379-1.0824,2.4446-2.7498-1.276-3.5857.6253-7.3474-.9017-10.8447-.03-1.4356-.0598-2.8712-.0896-4.3068.1797-.9397.3597-1.8796.5398-2.8194.3837-.0978.76162-.2147,1.13362-.3505,3.53238-.0774,7.06458-.1548,10.59688-.2321,2.8523,6.1607,2.7335,12.8129,3.1252,19.3658.1002,1.6765.0444,3.6509-2.6152,3.3615-5.1986-.566-10.1745,1.571-15.3515,1.2552-1.0756-.0072-2.1512-.0144-3.2269-.0216-3.3693.0088-6.7391.0291-10.1087.0229-2.4892-.0045-4.8156-.4098-6.2611-2.7805.227-5.4804.9184-10.9587.0721-16.4438Z"/><path class="cls-1" d="m101.60714,265.3032c-.4274,2.9118-.855,5.8235-1.2824,8.7351,3.3888-2.5885,2.411-5.8428,1.2824-8.7351Z"/><path class="cls-1" d="m238.63544,60.325c.0369-.0226.0676-.045.1066-.0675l.0047-.0011c-.0017.0004-.0029.0006-.00448.001.00138-.0009.00258-.0017.004-.0026,0,0-.01622.0046-.03832.0098-.0551.0117-.1018.0217-.156.0331-.0003.0013-.00068.0023-.001.0036.0282.0078.0564.0158.0845.0237Z"/></g></svg>