<?xml version="1.0" encoding="UTF-8"?><svg id="_レイヤー_2" xmlns="http://www.w3.org/2000/svg" viewBox="0 0 661.74756 445.7171"><defs><style>.cls-1{fill:#231f20;stroke-width:0px;}</style></defs><g id="Warstwa_1"><path class="cls-1" d="m504.61888,347.5403c-.0111.0017-.0198.0064-.0308.0082-.0085.0169-.019.0317-.0275.0487l.0583-.0569Z"/><path class="cls-1" d="m490.38848,445.3734c-.0438-.0263-.0879-.0476-.1317-.0735-.0348.1034-.0692.2074-.0992.3173,0,0,.2311-.2449.2309-.2438Z"/><path class="cls-1" d="m615.48658,353.2437c-.0003-.0051-.0003-.0098-.0005-.0149l.0002-.0002c-.0237-.0106-.0423-.0161-.0649-.026.0214.0135.0381.0274.0601.0409.002.0002.0031,0,.0051.0002Z"/><path class="cls-1" d="m613.54678,355.0772c.0972.0333.1718.043.2597.0668-.0325-.0628-.0545-.1211-.0935-.1864l-.1662.1196Z"/><path class="cls-1" d="m634.85938,361.8997c-.013-.0129-.0257-.0212-.0385-.0336.0023.0192.0009.0365.0031.0558l.0354-.0222Z"/><path class="cls-1" d="m613.59428,354.9417c-.0144.0467-.0288.0932-.0475.1355,0,0,.1662-.1196.1662-.1198-.0427-.0038-.0774-.0113-.1187-.0157Z"/><path class="cls-1" d="m600.73458,341.9362c1.8062,4.8724,3.7923,3.0808,6.3568.7021,2.4097-2.2349,3.3817-6.3921,8.1412-6.2504.4086,5.1511-3.6182,8.7727-4.1932,13.4356-.3108,2.5196-.9022,4.7558,2.5549,5.1182.2834-.9212-.1531-2.5976,1.8271-1.7391-2.0562-1.2915-1.0017-2.9246-.3812-4.4493,2.0692-5.0837,4.1853-10.1481,6.2833-15.2199.1444-3.3673-2.3238-4.2109-4.8389-5.009-3.1802,2.9961-6.2033,6.1859-9.5893,8.9277-2.7725,2.2453-1.9293-1.6552-3.1243-2.2282.132-2.9764.557-5.982-.883-8.8009-2.7937-.4651-3.7742,1.091-3.9502,3.5435.0918,1.1829.1837,2.3657.2755,3.5487-1.3032,1.2145-2.2611,2.5765-1.9197,4.4936.0376,1.3904.0749,2.7807.1124,4.171,1.1001-.5117,2.4208-2.6926,3.3286-.2436Zm15.0643-7.7929c.1986,0,.4461-.0773.5662.0136.4835.3647.3713.7851-.3261,1.0885-.0808.0352-.4193-.3373-.5052-.5699-.0486-.1319.1741-.3637.2651-.5322Z"/><path class="cls-1" d="m660.77788,407.1459c-1.9999-.8405-4.0502-.7483-6.118-.3294-.0856.4434-.1862.8835-.302,1.3202.1158-.4367.2164-.8768.302-1.3202-.5959-.6254-1.1921-1.2508-1.788-1.8762,3.552-2.2387,3.8654-6.1639,5.0242-9.6488l.5058.1281.5142-.09c.4284-1.1001,1.2812-2.1094.7268-3.4212.0051.0024-.0992-.1832-.0992-.1832.1382-1.2053-.1921-2.2645-.9909-3.1775.0412-.54-.0133-1.0702-.1642-1.5905-.6075-.0832-1.2147-.1663-1.8222-.2495-2.1854-3.7225-6.7191-.718-9.6512-3.3924,2.4989-5.6477,8.9682-7.1746,12.2236-11.8801-.3399-.7313-.6731-1.4598-1.0062-2.1882-5.4642-.4595-10.6704,1.1061-15.9583,2.0313-1.5292-.6708-2.5908-1.4795-.69-2.9287,4.8265-3.6795,9.6704-7.336,14.5048-11.0048-.4756-.8198-.9486-1.6365-1.4216-2.4532-4.8685.3885-8.4232,3.8432-12.7619,5.4652-2.2342.8354-4.1206,3.2653-6.918,1.5997.4227.7625.2524,1.5055-.6219,1.456-.5061-.0286-.9616-.9553-1.4399-1.4772.6535-.6715,1.3181-.7225,1.9951-.0692-.577-4.9748,4.3826-6.7959,6.0212-10.5087-1.9907-4.8359-4.9709-.4126-7.4374-.7949-1.7965.659-3.3969,2.1647-5.8182,1.1947.3173-1.8912.6423-3.8262.9669-5.7612-1.0291-1.682-2.493-1.3826-4.0019-.8784-.8217,1.4303-1.6434,2.8606-2.4654,4.2909.0099.0051.019.0103.0289.0154-2.885.1028-3.4346,4.2579-6.6284,3.8198.0729,1.2973-.1116,2.3248-1.6801,1.9003,1.2811,2.4618-2.0322,3.033-2.1881,4.9035-1.36,1.0226-2.7203,2.0452-4.0802,3.0679-1.3193,1.8575-2.4778,3.9417-5.7465,3.8397.8403-2.495,2.5382-3.8738,4.3105-5.1968-3.1351-2.9253-2.7349-5.9088.4405-8.5442-2.1774-1.627-3.7279-.0337-5.304-.3197-1.237-3.586-7.6521-5.3193-3.8327-10.7142-.0375-1.3907-.0748-2.781-.1124-4.1714-2.9621,1.214-4.9336.8529-4.9514-2.9559-.0079-1.6662-.2475-3.3313-.3817-4.9968-.835-.2886-2.0873.0313-2.1071-1.4456-2.8335,2.1454-2.8883,5.3047-3.0714,8.4172.0339.2447.0466.4759.0401.6946.0065-.2186-.0062-.4498-.0401-.6945-1.0215-.5468-2.0989-1.01-3.0556-1.6536-8.2011-5.5178-10.2514-5.2851-17.3123,2.0533-.6417,2.7546-1.2283,5.5097-.076,8.2809,2.7821,2.3827,3.4144,1.278,2.7829-1.7435-.6793-3.2512.4202-5.6833,3.2842-7.3119,3.2125-1.8267,6.1407-1.0123,8.825,1.1343,1.1195.8952,2.0768,1.9933,3.1076,2.9991.3106-.1324.5999-.2783.8635-.4412-.2636.1629-.5529.3089-.8635.4413.2947,2.8857.5894,5.7714.9325,9.1333,2.716-2.5779,5.3856-1.6126,7.6568-.0651,2.7932,1.903,5.2543,4.294,7.8589,6.4741,3.6759,3.3499.3377,5.5034-1.2921,8.0341-1.1961,1.8576-3.3817,3.9374-1.1517,6.1406,2.2232,2.1962,4.7549,1.2275,7.0756-.4607,1.7519-1.2746,3.178-3.6674,5.9691-2.1871,2.2684,2.8663,4.3877-.2447,6.5866-.1648.1022-.3535.3272-.5906.675-.711,1.1577.4299,1.9703,1.1916,2.3136,2.4046h.0003c-.1862.3912-.4781.6732-.8748.8461.9081,6.5023,7.3955,2.9072,10.4477,5.5186-.2419,3.3245-2.2749,5.4751-4.0098,7.7793.3207,6.9218.7163,7.2064,6.5424,4.5874,1.05-.4721,2.0155-1.1361,3.0749-1.5815,1.1986-.504,2.5442-1.8913,3.6755-.045.8511,1.3891.2628,2.7707-.6165,4.0055h.0003c-1.4962,1.135-3.4479,1.7122-4.3648,3.5584-1.5264.9004-3.2076,1.6169-4.5441,2.7425-2.2464,1.8921-5.0517,4.1908-4.4447,7.1626.7584,3.7137,4.654,2.7481,7.4924,3.0751.7527.0867,1.7188-.3507,2.2379.945-1.5883,4.1361-7.7448,3.4189-9.5794,7.8001,3.6874,3.3625,8.3468-.2206,11.7952,2.1058-2.0127,5.255-7.9756,5.6475-10.042,10.0405-3.6312-.1714-5.8419,3.8673-10.249,3.2963.7773-11.5579,2.5314-22.9347,3.9513-34.3694.3758-3.0267,5.3724-3.5862,3.0076-6.041-2.2187-2.3031-1.7799-4.7509-2.5145-7.1336-2.0735-.1893-4.1469-.3787-6.2206-.5681h-.0003c-4.0692-4.4928-9.3794-3.1331-14.8229-3.5322,0,2.1467.0282,3.8343-.0077,5.5206-.0373,1.7374-.1373,3.4736-.2099,5.2103-.8463.0887-1.7002.1324-2.5377.2736-4.1472.6991-6.4865-.7252-6.2393-5.2423h.0003-.0003v-.0001c-2.2087-2.7168-5.8617-2.3687-8.6433-4.1402-5.6218-3.5797-7.2381-2.6037-7.5884,4.4517-.2089,4.2048-1.8847,5.9599-5.9491,5.6705-1.4693-.1045-2.9378-.2175-4.4068-.3265,1.9934-10.1562,1.3014-10.9105-9.2681-10.1551-5.1203.366-10.2321.505-10.0595,7.8912.0599,2.5556-2.5077,1.7954-4.0935,1.8213-1.8038.0297-3.6766-.1734-3.3288-2.7951.5801-4.3712-1.9963-4.7129-5.3944-4.5718-2.0099.0834-4.0997-.3738-6.0658-.9098-3.9745-1.0838-5.2096.7412-3.7284,3.9907,1.4199,3.1149.7539,4.2628-2.3941,4.5541-1.2877.1101-2.5756.2204-3.8632.3295.0164-.86-.0814-1.7413.067-2.5791q1.4602-8.2325-7.0308-8.6708c-2.1997,1.7657-4.5984.4426-6.9117.445-.2642.5728-.5287,1.1455-.7926,1.7182-.0644,1.1029-.1286,2.2058-.1927,3.3087.5801,3.0233,1.1478,5.9768-3.4097,6.2837-4.6405.3125-6.4729-1.7726-5.7052-6.2906-.7386-1.8595.0689-4.6859-3.1311-5.0062-.9991.8311-2.083,2.0944-2.4156-.4738-1.3851-4.751-.9613-9.502.0006-14.253-.6335-4.2428-1.373-8.5326,4.4034-9.9339,2.9698-1.8787,5.9395-3.7572,8.9092-5.6357.8635-1.3672,2.0517-2.2572,3.6711-2.5135.9816-1.9281,2.5447-3.1671,4.5823-3.8448,1.582-2.4696,1.4244-5.3323.224-7.542-1.46-2.6871.9048-3.6401,1.4445-5.3853v-.0002c2.0104-2.318,4.6467-2.9563,7.5715-2.8197.5595-.8609,1.3998-1.0279,2.3402-.9474,2.3018-1.1302,4.6038-2.2603,6.9058-3.3905,1.8666-1.4738,3.7332-2.9476,5.5993-4.4212-.0003.0002-.0017.0114-.0017.0114.5708-.7227,1.1415-1.4455,1.7117-2.1687.5437-1.3484,1.1823-2.6669,1.614-4.0499,1.4092-4.5131.8946-5.2558-4.6255-7.0079-2.506,2.5062,2.2286,3.3245,1.2144,6.0293-2.322,6.1935-10.173,11.275-18.1557,10.9174.9178-1.1236,1.4416-2.2694.1992-3.5154-1.1723-1.7272,2.1715-3.3877.0757-5.1285-2.0929-2.2833-5.556-3.3834-6.0183-7.0815,2.6228-2.4333,6.0534-1.5853,9.1901-2.0853,1.8762-.2992,4.9002.1307,4.5074-2.7981-.3314-2.4694-2.8216-1.1917-4.4043-.9094-2.2947.4093-3.5396.2471-4.2675-2.6347-1.3235-5.2409-1.1585-6.2215,4.0494-7.2138,2.6052-.4965,5.2927-.5616,7.9431-.8219,3.9446,4.3617,2.755,8.7223-.1876,12.9195-1.5202,2.1683-3.4473,4.0476-5.1141,6.1189-.8282,1.0296-.9508,2.311.3145,2.9922.5772.3109,1.961.0874,2.3661-.4016,2.64-3.182,5.1116-6.5038,7.6377-9.781.5843-2.7571,1.1687-5.513,1.753-8.2688-1.5699-2.7585-2.2904-5.1504,1.6067-6.8009,2.6097-1.1051,4.9657-2.8088,7.435-4.2445,5.9268-5.59,4.3552-12.2059,2.5781-18.8497-2.3602-5.1228-5.4647-9.5131-10.9413-11.7893-2.6019-1.0815-2.5762-2.814-.6824-4.6868,1.072-6.4398,2.7306-12.9012-.7124-19.1732-1.9358-1.8956-3.9245-3.7193-6.4969-4.7428-1.0797-.4515-2.1591-.9039-3.2388-1.3562-.9799.0476-1.6829-.1487-1.2136-1.3777-.6936-1.7449-1.3873-3.49-2.081-5.2351-.0003.0003-.0003.0007-.0003.0007-1.0243-2.9802-2.8827-5.2887-5.5868-6.9176-1.6717,1.0074-1.262,2.212-.3518,3.4961,1.6304,2.3003,3.2387,4.6162,4.8561,6.9256.1738,2.5787-.6849,4.4102-3.2673,5.4782-2.5637,1.0602-5.0635,2.3467-6.8442,4.6097-.3032-.1775-.6242-.3271-.9562-.4588.1585.2601.3868.5086.7231.7389,0,0,.0093-.0073.0116-.0088-.0031.0043-.0068.0079-.0099.0122l.3009-.2464c-2.2444,4.5647-6.4551,5.5624-11.4887,6.1239-.4249-4.2703-.1322-8.1874,2.9686-11.5062,1.0181,3.9716,4.6736,3.7682,7.4944,4.8864-.7632-1.2508.2085-2.7911-.0946-4.1171.417-6.7356,1.3515-13.3889,3.1635-19.9027-.9112-3.997.3334-7.4348,2.4318-10.823,1.9977-3.2265,2.569-6.5347-1.3595-9.0093-.2944-.5539-.5891-1.1079-.8835-1.6618l-.1896-.0869c-3.668-1.3721-7.1279-2.862-6.4068-7.8735.1737-1.2094-.5824-2.2459-1.6101-2.958-6.1932-4.2915-7.0567-11.0094-8.0567-17.6668-5.5235-1.2379-5.8069-1.7808-3.6385-6.9696-.05-1.1767-.1-2.3533-.1498-3.5299-4.6286-4.3302-10.2511-3.8865-15.9014-3.3103-1.2509,1.3047-2.8211,1.9295-4.5801,2.1532,0,0-.0839.0022-.0757.0026-5.1133,3.4286-5.8016,9.9864-9.9482,14.1027-.1989,1.3715-.3978,2.7431-.6309,4.352,2.7979-1.696,1.8233-4.8581,3.2881-6.8349.744-1.0042,1.683-3.5418,3.026-1.9716,4.3311,5.065,4.771.3051,6.3687-2.0966,1.183-1.7789,2.8677-3.3755,5.1313-2.629,2.7055.8921,2.5343,3.5001,2.8329,5.8838.3696,2.9451-3.8013,4.8495-1.4667,8.6031,3.341-1.674,6.4003-4.2958,10.1434-4.3336,2.3136-.0233,5.0499.9666,2.1842,4.2225-1.5637-.2274-3.0246-.2082-3.7547,1.5643-2.6188-.4068-4.7145,1.1005-7.0002,1.912-3.0935.3708-5.0774,2.6344-7.45,4.2779-3.8191,2.6455-4.1153,5.9812-2.5326,11.6239,1.6117-7.9777,5.1502-11.9676,11.7209-12.8041.7062,1.1787,1.4123,2.3573,2.1181,3.5361,1.3168,1.9423,2.6332,3.8847,3.9497,5.827-1.6643,2.2998-4.527,4.9489.367,6.533,3.6626,1.1855,3.9505,2.8191,1.9616,5.6099-.9585,1.3451-.9839,2.6404.1412,3.9022,1.514,2.4815,3.6971,1.3782,5.7324,1.0709-.0006-.0014.3261.2272.3261.2272-.8715,2.491,2.4933,5.0626-.1433,7.52-2.419,4.4891-.5708,9.3342-1.1656,13.9754-1.9528,5.0648,1.1289,11.3309-3.8208,15.9885-3.2345-5.274-2.6021-10.8583-2.3933-16.3829.0585-1.5452-.1627-3.1515-2.1616-3.0065-1.3888.1008-1.5529,1.5129-1.5707,2.6897-.0862,5.6396-1.1317,11.11-2.8293,16.4711-.6361,2.0093-1.2636,4.0172-4.0181,3.7549-.5928-3.7683-1.2263-7.5307-1.76-11.3074-.2456-1.7352.2023-4.2494-1.4448-4.8577-5.8925-2.1763-3.0446-5.0705-1.4413-8.5192,2.1791-4.6865,1.0194-6.5198-4.4261-8.8897-2.2221-.5846-4.71.9229-6.9109-.9719.3278-.7413.5668-1.5956,1.0356-2.2958,6.8663-10.2538,6.4823-12.6104-3.6027-20.1582-1.2014-.899-2.7329-1.4102-2.1748-3.2847,1.8137-6.0934-1.8853-10.1105-5.2718-14.2617-.3524-.2079-.592-.5049-.7183-.8936-2.2681-.0347-4.617-2.0571-6.6792-.6558-3.8445,2.6125-3.9355-1.816-5.8592-2.7197-.0542-.9745-.1085-1.949-.163-2.9234-2.5592-.4463-4.3981,1.746-6.8053,1.8576-2.3805,2.5691-4.7614,5.1381-7.1414,7.7118-4.2936,5.9588-5.959,12.1982-2.0653,19.0405,2.8799,1.2336,4.2407,1.5099,3.0692-2.6785-2.7369-9.7841,1.6948-17.3253,11.5232-20.6538.8889,2.4199-.735,4.6282-.5982,6.9578.1161,1.9775,1.486,2.4842,3.0562,1.6276.9864-.538,1.5617-1.7831,2.5009-2.4632,4.3583-3.1555,7.4111-2.6168,10.4503,1.7292,2.653,3.7936,2.1916,5.4292-2.3631,8.9527-.6255.4843-.9657,1.3377-1.7111,2.4147,3.3209,1.1048,6.5308,1.7904,9.3697,3.2152,3.4343,1.7236,7.1228,3.9221,5.9971,8.6954-1.0429,4.4219-3.2263,8.3236-8.1276,9.5813-1.6923.4342-3.5357.2528-5.2591.6031-.8403.1707-1.4413,1.0481-1.0785,2.0346.1828.4974.6694,1.2177,1.0636,1.2477,2.339.178,4.6925.2556,7.0392.227,2.4461-.0299,2.9864,1.2653,2.5981,3.354.9924-.2252,1.9847-.4505,2.9731-.6816v-.0005c.3052.401.6214.7933.9486,1.1763-.3286-.3845-.6462-.7784-.9486-1.1758-.9884.2311-1.9807.4564-2.9731.6819-.8635,1.2181-.8804,2.5587-.5719,3.9457-.2226,1.0904.7039,2.7382-.5643,3.2187-4.2342,1.6048-8.4378,4.3009-13.0812.6848-3.2353-2.5198-6.795-4.7136-10.8365-5.5967-2.5631-.56-4.007-2.0366-5.2367-4.0503.0096-10.0718-.8127-11.4161-8.2681-13.5123l-.1681-.0684c-.5671.884-1.3947.9146-2.2967.7013-1.0949.5588-2.1898,1.1175-3.2848,1.6764-1.7414,1.9691-3.2588,4.0523-3.8612,6.6947-.6329,2.7758-2.812,3.4074-5.2514,3.6102.0011.002-.5369.0299-.5369.0299l-.1706-.511c-1.5448.6611-3.0898,1.322-4.6349,1.983-.7301.0498-1.46.0997-2.1944.154-.1319.5397-.4696.7803-1.0175.7262-1.2294,1.0791-2.4591,2.1583-3.6874,3.2402-2.8234,3.7492-2.0528,7.5653-.2193,11.4019,2.8643.5918,5.729,1.1835,8.5936,1.7752.143-4.5882-4.1045-5.9528-6.7745-9.1077,2.8093-3.3191,5.3343-6.883,10.6467-5.7879-.8692-1.9429-2.9098-1.273-4.4133-1.7995,1.5035.5263,3.5441-.1439,4.4127,1.7969,1.0938,3.8401,4.0791,5.5821,7.3591,4.1273,1.9839-.8798,3.8239-3.6477,1.8847-6.9772-1.5629-2.6829,1.0489-3.3834,3.059-3.9681,2.9745-.8654,6.1785-3.0937,8.35,1.2401.3863.7705.486,1.6846.718,2.5324,1.1215,3.7821-3.0296,4.658-4.0005,7.2679-.9376,2.5201-.4179,4.7971,1.9971,6.1367,2.59,1.4369,4.061-.1424,4.3097-2.5223.4913-4.7006,3.4139-4.0133,6.4017-3.1396,2.9078.85,9.283,7.7595,8.9682,9.5119-.7527,4.193-6.0946,7.4886-11.7119,7.6883-2.2023.0784-4.1825-1.7209-6.6114-.6353,7.751,4.6933,15.5779,3.2048,19.9656-3.753.935-1.4828,1.3792-3.2671,2.1477-4.8652.6166-1.2812,1.9395-1.1768,3.0715-1.2031,1.3065-.0304,2.4159.68,2.3913,2.0116-.1139,6.1773,2.3812,12.0496,1.8703,18.2997-.5148,6.3016,2.4992,8.2243,7.9595,5.3623,1.8502-.9697,3.4673-2.2608,4.4961-4.1538,6.8948,1.4692,8.1923,3.7951,3.5894,7.8865-4.8827,4.3398-9.081,11.3217-17.7198,7.9178-1.1181-.4405-3.0002-.4626-3.491,1.5447,2.9886,4.2453,5.8807,8.0527,11.9976,4.2837,1.7581-1.0833,4.6303-.3587,6.9917-.4631,3.1308,2.2609,7.1369,2.7996,10.1491,5.4176,2.5054,2.1777,2.1471,4.0048-.0351,5.8164-3.0149,2.503-6.552,3.9779-10.4342,4.5604-4.1047.6158-8.216,1.1902-12.3245,1.7827.7169.3593,1.4869.4657,2.2778.4714-.7909-.0057-1.5612-.112-2.2778-.4714-.9742-.0911-1.9485-.1822-2.9222-.2733-2.1842-1.276-4.3684-2.5519-7.0516-4.1197.4303,4.0292,2.118,5.6206,4.9968,6.0569,4.6769,1.0145,9.3765.7645,14.0812.2532,3.0573.5544,5.8544-.5704,8.5554-1.6304,4.6544-1.8268,10.7023-3.7477,10.372-9.4075-.3478-5.9646-6.3554-7.6097-11.7266-8.5408-.319-.5412-.284-1.0585.1048-1.5519,6.7137-4.395,13.5206-8.488,22.106-6.828-.0014,0,.3846.2708.3851.2714-.1158.4863.063.8122.5369.9764.1141.5842.1057,1.1667-.026,1.7474-1.0848.9966-2.3498,1.8592-3.2127,3.0206-1.3561,1.8249-1.2196,1.8382,1.8745,2.7568,2.4591.7301,4.7137,1.8997,6.4989,3.8232q-6.2559,7.2664-6.6286,15.6579c2.1285,2.6552,5.1745-2.7057,6.5266.3808.9559,2.1827,1.2003,4.2512,3.7301,5.4025,1.451.6604.2198,2.0542-.49,2.7302-.8253.7858-1.9564,1.6544-3.0084,1.7285-4.8295.3403-5.0245,3.8185-5.2997,7.3283-10.146,1.3648-20.208.4754-30.2811-1.0793,9.4873,5.6131,19.8461,5.3372,30.2788,4.5773,1.1269.4088,2.6058.0132,3.2882,1.4384.5716-.1918,1.1432-.384,1.6996-.61-.5564.226-1.128.4182-1.6996.6101-1.208.837-2.6273,1.4853-3.5789,2.5512-1.8788,2.1046-5.5323,3.2419-4.9969,6.7668.5767,3.7951,4.8934,1.7304,7.3311,3.163-2.8765,5.3422-6.0748,2.434-9.0259,1.3344-.8115,3.936,2.7564,8.4802-1.8301,11.7896-1.4807,1.1427-2.961,2.2853-4.4411,3.4278-1.7372,5.8539-1.8287,5.9395-5.003,2.5484-6.1384-6.5575-14.3146-10.4219-21.0136-16.321-18.8551-16.6035-38.1504-32.704-56.5217-49.8621-3.4546-3.2263-7.2808-6.084-11.1033-8.8823-18.1609-13.2946-35.7879-27.2431-52.464-42.3739-1.3082-1.1869-2.7126-2.2679-4.2407-3.5381,3.0184-3.826,5.1175-7.7522,10.3277-7.4457.4267,3.0867,3.2215,4.1981,5.2333,5.6719,15.3014,11.2085,28.4612,24.9364,43.3722,36.599,7.4484,5.8257,14.3827,12.3366,22.0317,17.872,14.9772,10.8393,26.8038,24.9219,39.8904,37.7058,2.9607,2.892,5.469,6.2911,9.0047,8.529,8.1338,5.148,14.4672,12.1483,20.4863,19.497,1.4801-1.1425,2.9604-2.2851,4.4408-3.4276-2.9195.1092-3.6838-2.6652-5.4317-4.1045-17.1168-14.0969-33.3065-29.2212-48.5416-45.3059-8.8103-9.3013-19.5401-16.2086-28.8926-24.7865-8.372-6.0964-16.0964-12.9471-23.4849-20.19-1.8352-.6303-3.4077-1.6148-4.4718-3.29-4.2376-3.6189-8.9148-6.7563-12.3389-11.2659-3.3563-2.7739-6.7128-5.5478-10.0694-8.3217-3.1546-2.1686-6.3054-4.3428-9.4656-6.5032-1.3998-.957-.2783-2.0925-.254-3.1507,5.4254-4.2672,9.6707-9.9836,16.0521-13.0777,4.9327-4.4542,11.3536-8.3328,6.4207-16.6022-5.7123-.742-11.5071-2.0268-16.4155,2.5026-.922,2.0211-2.9994,2.091-4.7058,2.7878-3.3207,3.1397-7.3062,5.1539-11.5111,6.796-2.9683,4.5907-8.988,5.6426-11.9286,10.349-.8937,1.4302-2.4784.9209-3.9471.2183-8.309-3.9748-14.674-9.8898-18.7975-18.1943-.8801-1.7728-1.081-3.3593.1097-4.9671,1.3362-1.8045,3.1381-1.1371,4.8612-.8187,2.9649.548,5.4831,1.6441,7.7165,3.9478,4.1155,4.2445,8.4641,8.3266,13.6681,11.2762,1.8502,1.0486,2.6688.054,2.5978-1.8749-6.728-3.2174-11.4576-8.6987-16.1328-14.241-2.449-.8307-4.898-1.6616-7.3469-2.4925-2.3868.343-5.154-2.8914-7.1415.47-1.5507,2.6222-2.7827,4.9185-2.0554,8.7867,1.7635,9.3838,8.2192,14.5842,14.9396,19.6537,3.8983,2.9402,2.9432,4.9458.0195,7.4258h-.0002c-7.9437,3.6199-13.9962,9.8181-20.4044,15.4338-2.0865,1.8287-5.3311,3.7405-4.6578,7.5873-3.1839-.7885-4.688,1.885-6.2717,3.5826-7.8309,8.3944-16.867,15.3498-25.738,22.5369-2.0175,1.6347-5.6815,2.1754-5.4227,5.9663-2.994-.6311-4.124,1.5344-5.3181,3.6038-.5691.0634-1.1379.1265-1.7067.1895-.3376.4543-.6838.8954-1.0406,1.3206.3568-.4252.703-.8664,1.0406-1.3207-1.1582-.2316-1.7357-1.0241-2.0237-2.0959,1.1015-2.7198,1.9285-5.3713-1.7157-6.9134.1119-4.3742,1.4908-8.8697-1.243-12.9709.024-1.4655.1051-2.9325.0596-4.3954-.0861-2.7813,2.4527-3.1775,3.3346-2.0526,2.9428,3.7529,3.4633.638,5.4596-.9183,2.4388-1.9012,5.9759-2.354,8.1986-4.8982.9262-1.0602,2.4424-2.174,1.4116-3.6885-1.2031-1.7676-2.3667-.3482-3.5693.4767-1.6804,1.1524-3.4241,2.3887-5.3297,3.0033-6.2169,2.0053-9.2965-.574-8.9044-7.0738.2804-4.643,1.3691-9.3891-1.3184-13.7577.9113-2.1312-.18-5.6571,3.8915-5.5874,2.9361.4707,5.8719.5842,8.808-.0003,8.9614-.4326,9.8956-.8476,14.0464-6.2379q-9.8964,3.8938-14.5985-2.6413c2.0149-1.0651,4.4839-4.0285,6.0007-2.7679,4.9545,4.1186,7.6021-.2375,10.7289-2.2552,3.2563-2.101,6.2006-4.5936,10.4511-3.6322,5.4877,4.0101,5.5838,4.6878,1.1628,8.7522-.6409.5889-1.3744,1.0779-2.0729,1.6027-3.4851,2.619-6.6295,6.4281-10.5452,7.5536-5.0517,1.4521-4.6182,5.7581-6.7821,8.645-.33.4407-.868.7259-1.3099,1.0829-4.0627,1.0228-8.1251,2.0454-13.6031,3.4245,5.9555,2.0527,9.734.0249,13.633-1.0954,6.2786-1.2571,12.7747-1.9917,17.1281-7.6259.7236-.9363,1.9825-1.667,3.0635-.9069,2.3425,1.6464,2.8779,4.2625,2.9619,6.94.0816,2.5988.6015,5.5768-3.54,5.4964-.6894.6572-1.3789,1.3143-2.0683,1.9715.1709,1.0935.3419,2.1869.5128,3.2802-2.7343,2.4883-4.1022,6.7156-8.6984,6.8337l.0003-.0002c1.3413-4.0897,3.8573-7.3602,7.0742-10.1415.3705-.0038.7406.0054,1.1108.0276.6897-.657,1.3792-1.3141,2.0686-1.9713-2.3388-1.051-4.2514-.5148-5.7552,1.5447-4.5043,2.2804-6.8004,5.7849-6.0765,10.9633-.5346,4.03-5.5789,3.479-7.124,6.8133,11.9329-2.7425,12.0911.3833,21.4663-13.9947,4.1361-4.6563,4.8606-10.1869,2.8979-15.7241-1.393-3.9315-1.0135-6.1759,2.3029-9.0324,7.1138-6.1279,6.6668-9.1079-1.1571-14.0908-1.4549-.9264-3.187-1.4168-4.7914-2.1085-1.0805-.6148-3.5832-.2504-2.5433-2.4539,1.4247-3.0188,4.4127-4.5978,7.218-6.2267,5.4077-3.1399,10.1327-7.0327,13.5726-12.3436,1.7106-2.6408,3.0556-6.0677.3967-8.0086-3.8942-2.8428-2.6818-4.5933-.1805-7.1827,2.671-2.7654,2.2441-6.5367,2.6696-10.0002,1.2357-1.7119,2.7248-2.3726,4.2328-.4868,2.5919,3.241,3.7877,7.0758,5.1124,11.0073,1.4151,4.1983-1.5383,8.7691,1.7081,12.5151,3.7126-10.5734,1.6196-20.0528-5.3848-28.6078-.6027-.0034-1.2054-.0064-1.8084-.0094h0c-2.9076-1.2557-5.8151-2.5113-8.7227-3.767l-.0706.0795c-.0942,1.4708-.5296,2.3804-1.2191,2.9186.6894-.5382,1.1246-1.4478,1.2188-2.9186.0003,0,.0709-.0795.0698-.0788.2161-1.5802-.7245-2.4794-1.831-3.2806-.0156-.0772-.0246-.1575-.0461-.2317-.0599.0126-.1113.03-.1698.0435-1.0839-1.706-2.1681-3.412-3.2523-5.118,3.8468-1.3335,5.2133-5.1266,7.7213-7.7871,3.1025-8.4781-1.5434-14.6671-6.1627-20.8638-1.2822-.675-2.495-1.6643-3.8598-1.9684-4.8109-1.0715-4.0282-4.0022-2.6527-7.235-.1921-4.5448.1492-9.16-1.7756-13.4768-.6866-.4193-1.2636-1.2673-2.1865-.7618.0738-.1542.1464-.308.1182-.4405-.0888-.4179-.2908-.8116-.4462-1.2151.1246-.5712.2243-1.1466.2992-1.7264-1.3054-1.1463-2.6111-2.2926-3.9166-3.4389-.6388-.8802-1.2774-1.7605-1.916-2.6407-1.6471-.5293-3.2939-1.0587-4.9409-1.5881-1.6589.5153-3.3179,1.0305-4.9768,1.5457-.1359,1.4348-.2721,2.8696-.408,4.3043,1.6188-.6315,3.1969-1.4372,4.8719-1.8266-1.675.3894-3.2531,1.1951-4.8719,1.8267.0085.629.017,1.258.0257,1.887-2.074,1.613-4.0299,3.5359-7.042,2.6892-.0003-.0004,0-.0007-.0003-.0011-2.6108-1.1385-1.252-2.6679-.2602-3.94,2.252-2.8884,4.6374-5.673,6.9685-8.5022.5804-1.5269,1.1611-3.0514,1.7417-4.5759.1724-1.1881.3448-2.3761.5171-3.5642-1.918-7.9381-3.4031-16.0983-10.8676-21.192-1.0949-.185-1.6533-.7572-1.3888-1.9234.7618-6.274-4.4314-10.2561-6.0152-15.6274-1.8394-2.1921-3.6789-4.3842-5.519-6.5754-2.2412-.9922-4.4825-1.9851-6.7238-2.978-5.0299,1.2096-8.53113,6.2846-14.29003,5.6523-3.45487,1.3749-6.9095,2.7495-10.3641,4.124-2.49,1.4978-4.9802,2.9955-7.4701,4.4932-5.213,5.6338-4.8773,12.8588-5.6668,19.7613.5629,2.983,2.4566,5.691,1.8429,8.9172.4323,1.0752.8646,2.1505,1.2969,3.2258,2.3834,6.3203,8.07232,5.1279,12.9798,5.7114,2.935.983,5.56652,2.1935,8.12652-1.3717,1.88127-2.6204,3.37287-5.8917,6.7024-7.2927,2.5597-.1351,5.1183-1.2659,8.1264.1836-1.5676,2.3798-3.0963,4.7001-4.6249,7.0204-3.0198,2.3941-4.03473,5.5129-3.7355,10.0548,3.0935-2.4716,2.2633-7.8519,7.1454-7.2196,1.9118,1.0516,5.7685-.2595,5.0486,3.9911-.5324,3.1419.0901,7.2507-5.1136,7.0616-4.8934-5.2134-8.40173-.1112-12.35723,1.6596-.861-2.165-2.4575-2.0123-4.2198-1.3398-2.573.9819-5.1463,1.9633-7.6029,2.9007-2.0622-4.0413,3.9725-6.1095,1.2367-9.6861-1.8338,3.2556-3.3774-1.0179-5.29258-.1078-1.41882,3.1329-2.497,6.461-1.92432,10.1284,1.00932,4.8369-2.5168,8.3475-3.67068,12.5517l-.02322.012c-2.0093-.1168-4.04878-.3362-5.4439,1.6167,0,0-.03188.0114-.0313.0114-7.9448,1.7764-6.2672,9.7574-9.2093,14.6755-4.1972-.2013-5.5608-3.3098-6.8829-6.2165-4.3461-9.5566-.6366-25.7409,7.3588-32.6639,3.6676-3.1757,4.734-2.9356,7.25782,1.3554,1.17548,1.9983,1.12208,5.4224,5.97678,4.7404-3.467-4.5417-2.3229-11.4713-9.6487-12.5488-5.40108,2.2704-8.2299,7.3624-12.2397,11.1589-.2311,4.4358-2.2851,8.3515-3.5623,12.4888-.4837,7.0634,1.35892,13.7217,3.538,20.3214,1.38992,1.0986,2.885,2.0905,4.1398,3.3261,1.232,1.2128,3.44612,1.1313,4.2037,3.7237-2.8542.8732-5.7547,1.7603-8.6552,2.6473-5.29238.8978-6.26238,5.8978-8.498,9.4297-7.4356,11.7467-13.5986,24.0086-11.8422,38.6268,1.0689,1.9694,2.1382,3.9387,3.2071,5.908-.1501.5451-.4199,1.0224-.80928,1.4322-2.20312.5223-3.11722,2.6384-4.76112,3.8512-1.7954,5.1537-2.4507,10.4633-2.1746,15.9003,2.1042,2.8175,1.072,7.3894,5.1056,9.1279.3673,1.0775.7346,2.1551,1.1037,3.2323.3927.5613.7841,1.1231,1.17542,1.685,2.05568,6.6626,6.35988,10.3113,13.49178,11.0159,4.9508.489,9.8719.5001,14.8167.5262,2.1709-1.3927,5.5987-.6097,7.7247-4.773-6.1364,2.097-11.3361,2.6255-16.5214,2.0859-5.2449-.5459-10.5012-1.5399-14.4324-5.5707-2.9808-3.056-1.32838-5.0589,1.7609-6.5887,2.6832-1.3656,5.6744-2.3136,7.1652-5.2932,3.0228-3.0345.9081-5.3826-1.2656-7.3631-1.9655-1.7907-4.5382-1.4937-6.52888-.0281-2.75472,2.0285-5.20762,4.4672-7.92752,6.8513-2.876-4.5669-2.742-9.3009-1.9396-13.8885.6547-3.7426,2.0173-7.5075,6.91212-7.7916-.11562-.2402-.27862-.4215-.46682-.5713.1887.15.35182.3315.4676.572,1.2911.8368,2.8706,1.1847,3.7375-.1296.9206-1.3958-.1605-2.5151-1.55128-3.2093-.74542-.3723-1.41822-.891-2.12372-1.3434-4.2554-8.1514-4.7674-16.289-.0978-24.524,6.0968,3.8293,9.5173,4.0825,12.2496.5392,2.7768-3.6012,2.7725-7.0755-1.6383-9.6242-.67078.6472-1.3416,1.2944-2.0124,1.9416,1.451,1.442,2.8827,2.9271,1.6587,5.1814-.7618,1.4028-2.1873,1.9446-3.6177,1.6526-2.8869-.589-3.2551-2.7684-2.8553-5.2605,1.518-.7892,2.9596-1.811,4.8138-1.5736.6713-.6471,1.34212-1.2943,2.0129-1.9415-2.2429-1.0477-4.5913.0205-6.8685-.3423,1.19872-7.9452,6.0262-13.2561,12.676-17.1163,2.245-1.3032,5.2794-3.3623,7.3153-1.2793,2.2806,2.3329,4.0706,5.3262,3.0856,9.5441-2.7683,11.8549.9392,19.017,11.8382,24.4359,2.62162,1.3035,5.4218,2.0718,7.749,4.1406,4.5944,4.0836,4.8329,4.0134,9.1047-1.1675,2.1384-2.5934,4.4775-4.5869,7.0423-1.3458,2.76433,3.4928,4.65293,2.6409,6.88663-.1529.9418-1.1779,1.6674-1.9458,3.5566-.9947,5.554,2.7961,5.7462,2.6809,7.2918-3.1415.4069-1.5325,1.3594-2.5566,2.0226-3.8339-.1707-1.237.2571-2.0083,1.6061-2.0612.0641.6309.1283,1.2619.1924,1.8926,2.3526,1.0649,1.1452,4.2779,3.2972,5.464,3.8638,3.654,7.6676,3.0039,11.8891.3555,2.8533-1.7898,5.2025-4.8042,8.8852-4.8958,2.779,5.005.9341,8.0372-3.4962,10.236-2.6402,1.3103-5.1468,2.8296-8.185,3.1571-1.2624.1361-2.1511,1.1326-1.9369,2.4835.3441,2.1676,2.1022,1.6947,3.4619,1.4484,3.093-.5602,5.2978-3.7452,9.1282-3.2266-.5151,1.3323-.9364,2.422-1.3577,3.5117.0014.001.0023.0023.0037.0033-.9718.8035-1.9491,1.6054-2.9265,2.4072l.2811.3053c-.1404-.1526-.2811-.3052-.2811-.3052-.724.4293-1.4484.8582-2.1727,1.287-1.2435.5713-2.5806,1.0133-3.2621,2.361l.1085.09c-.0622-.0515-.1085-.09-.1085-.09-2.0379-.0606-4.0836-.0331-6.1104-.2145-1.249-.1116-2.3405-.2429-2.4866,1.3887-.1147,1.2813.5428,2.8193,1.6377,2.6362,4.6714-.781,5.33,2.1031,5.7999,5.5636.0899.6613,1.1181,1.195,1.7135,1.7877-.0127,4.6104-1.8452,7.9444-6.0172,10.3555-2.8725,1.66-6.2421,3.4986-6.0785,7.7632.0481,1.2502,1.3501,2.9811-1.0087,3.296-2.5518.3407-2.1418-2.1798-2.9658-3.5009-.2712-1.3995-.4179-2.8385-.8477-4.1875-.4614-1.4496-1.523-2.7323-3.1076-2.5621-1.7047.1831-1.7895,2.016-2.3229,3.3168-.217.529-.5615,1.0056-.8483,1.5061-2.0237.3795-4.5408.2712-3.7244,3.4618-2.178-.9139-2.7296.7647-3.254,2.3625-.4414,1.3462-.486,3.035-2.4323,3.0536-1.99383.0192-3.06363-1.5066-3.9384-2.9676-1.31953-2.2037.76317-5.2725-1.81743-7.4422-2.0667,1.1499-2.276,5.9369-6.2308,3.4465-2.82078-3.2307,3.2633-7.5517-1.2079-10.8736-2.4357,2.1651-2.2012,4.7879-2.1631,7.3527l-.0412.0643c-3.6934-.3158-7.9403,2.4506-10.8993-1.9563,1.1755-3.9782,2.3512-7.9568,3.7849-12.8085-4.335,2.5194-5.7761,5.9252-7.1541,9.3786-.9458.5277-1.1755,1.28-.7059,2.2514-.1608.7158-.321,1.4315-.4809,2.1471.0003.0005.0006.001.0008.0015-1.02508.9136.0263,2.8714-1.9225,3.6108-2.0573-5.1016-2.6018-10.5244-4.5563-15.6997-1.0116,5.9372-3.2094,11.8753.3701,17.5297,3.3764,5.333,7.1602,10.4082,10.7645,15.5968h0s.067.1904.0642.1757c.159.512.4317,1.4504.4555,1.4442,4.7487-1.2516,8.61242.5038,12.4787,3.1096,1.7895,1.2058,4.8895.1424,6.2475,2.4078,1.7553,2.9289-3.1195,3.0772-2.6719,5.5803.091.5094.532.9562.81213,1.4318-.01333,1.4553-.64773,3.4413.06547,4.2759,3.4981,4.0941.8412,5.5769-2.5298,6.9853-.8183.3419-1.5868.8007-2.3955,1.1674-6.4549,2.9263-6.9041,2.8022-8.7863-4.2306-.7016-2.6209-1.3605-4.0217-4.6298-3.8384-7.0459.3952-7.0623.1427-5.29208-6.8926.21448-.852.65418-1.6902.672-2.5415.09548-4.55-2.32212-3.8507-5.07512-2.3448-3.5476,5.9913-2.9652,11.9582,1.7312,17.7362,1.7395-.0023,3.4993.1656,5.2127-.0455,2.7426-.3376,3.5747,1.1867,3.8496,3.4583-2.6196,2.6848-6.0671.9631-9.0527,1.7002-1.02.5241-2.0384,1.0515-3.0604,1.5717-10.2802,5.2331-11.8815,14.0294-3.8301,21.0428,3.0923.5978,6.1847,1.1956,9.3316,1.8041,1.21022,2.5305-.1379,5.0637-.078,7.6012,1.3215,3.1676,3.64222,5.3528,6.6987,6.8148,5.1282,1.8604,10.2567,3.7201,15.4194,5.5923,1.2806-3.4136-1.3518-3.9544-2.9115-4.7806-2.5911-1.3723-5.5023-2.1299-8.1367-3.4335-7.7388-3.8297-7.9066-4.3466-4.7996-12.8545.4708-1.2891.2402-2.2401-.8047-3.3931-3.5532.3498-7.1856,1.7099-11.0705.3318-6.75688-2.397-7.983-6.5599-3.0958-11.8953,4.1721-4.5547,9.5594-5.4543,15.38192-4.9345l.16838.0697c.4461.7226,1.3631,1.5187,1.26362,2.1563-.78892,5.0496,1.28538,3.6267,3.65718,1.7112l.02182.009c2.21978,3.9384-3.36852,5.3572-3.34782,8.9872q7.1395-3.1765,7.0075-10.8887l.013-.0137c4.1299-.3874,6.877,2.4341,10.0276,4.3202.2851.9142.5702,1.8284.8556,2.7427.0785.64.15713,1.28.2356,1.92.1597,1.6651.3193,3.3301.4787,4.9952-.9777,6.7555,1.0763,13.3648,1.0036,20.1468-.0539,5.0231-1.58877,7.6176-5.6439,9.515-1.63487,2.4985-3.9674,4.1789-6.5393,5.5784-1.2568,1.0412-2.5137,2.0826-3.7702,3.1247-.81238,1.3577-1.8757,2.4433-3.343,3.092-3.16438,3.6396-6.5733,6.9826-11.0157,9.0702-2.0989,1.8123-4.19768,3.6247-6.2966,5.437-2.4295,2.5886-4.7779,5.2708-8.01008,6.931-.24812.9625-.92,1.4281-1.85672,1.5829-1.0596,2.1474-2.8889,3.2835-5.1166,3.8969.0008.0014.0587-.0946.0587-.0946-1.9101,2.289-3.8202,4.5781-5.7303,6.8672.0921,1.17.1842,2.3398.276,3.5097,2.9596,1.6593,2.8686,5.6711,5.7183,7.4152,3.3291,4.8809,5.0694,5.5613,8.7275,2.8607,1.8677-1.379,3.3056-3.3405,4.9377-5.0387,1.8005.394,2.3249,1.8377,2.1088,3.2946-.8307,5.5984,3.4958,8.8697,5.3845,13.2372,3.237,7.4846,8.3003,2.8252,12.5765,3.3213,1.1628.1349,2.3377.2685,3.5047.249,5.2675-.0884,10.5407-.1858,15.54792-2.1626,9.8725-1.8659,19.8806-1.7249,29.8265-2.3983,22.7708-1.5416,45.5679.2502,68.2749-1.7742,13.1524,1.0339,26.3085-.2046,39.4641.0053,1.0833.0172,2.1794-.7729,3.2701-1.1879.6592.0103,1.319.0205,1.9788.0307,11.2332,2.7598,22.6479,1.4699,34.0021,1.5219,15.29,1.4214,30.6198,1.0401,45.9268.6744,5.7849-.1382,11.1437.5362,16.2515,3.19,4.6211,6.3776,3.792,13.4949,2.3679,20.757,6.4583-5.1837,5.3342-12.1361,2.9963-17.6595-1.9398-4.583-1.0627-8.0182-.0802-12.0135.369-2.0142.664-4.1103,3.6145-3.2771,9.5797,3.1677,10.0541,2.9601,15.1436-6.6229,2.1574-4.0627,4.3063-4.7066,13.6822-3.8401-2.5314,4.6734-7.0832,7.753-7.962,13.3731-.4521,2.8911-5.4992,5.5935-7.7871,4.6336-5.0635-2.1241-5.6787,1.5148-7.0652,4.5361-2.8101-2.2639-1.5487-4.911-2.2257-7.0367-.6731-2.113-2.141-1.5002-3.5518-1.2988,1.7849,6.7998,1.324,13.7902,1.7569,20.7048-.7993,2.5435-.2936,5.1268-.2515,7.6985.0323,1.9663.4601,4.1073-1.8982,5.2165-3.8782-2.9288-8.4817-2.2037-12.821-2.2921-6.7888-.1382-13.6096-.0934-20.3733.4353-4.1876.3274-6.1011-.5878-5.7046-5.0946.228-2.5971.128-5.186-1.0085-7.7909-3.2884-7.5365-5.4772-9.0225-14.0767-8.7571-2.0652.0638-4.1361-.0654-6.2045-.106-9.3991-2.6106-11.5325-2.5877-17.2018.3433,2.6211,2.3142,5.6501,1.1228,8.3695,1.3438,2.5617.2082,3.7165,1.3008,3.3241,3.8822.0415,1.4507-.0424,2.9186.152,4.3486.3625,2.6681-.779,3.7777-3.3758,3.7499-3.747-.0401-7.4949-.0102-12.0182-.0102,1.8135,4.5304,5.0206,4.4726,8.4814,4.4463,7.3616-.0558,7.4376-1.5041,7.9388,7.5888.2394,4.344,1.1416,8.7501.1238,13.0208-2.6626,1.5642-4.5255-.6865-6.7213-1.0967h.0003c-17.939-7.345-13.6913-21.8474-11.428-35.9912-6.1479,7.2621-5.3432,15.6845-4.8631,24.8372-9.623-.4091-18.9275-2.2518-28.2777-1.3222-2.2727-4.019-1.3139-8.5725-2.1158-12.8364-1.0825-5.7567-2.6027-7.035-7.9093-7.5645-17.6539-1.761-35.1101.2868-52.6199,2.1392-5.2039.5505-7.4243,2.6681-7.5319,7.5905h.0002c-2.1076,1.902-1.239,4.2885-.6874,6.3509,1.0644,3.9816-1.6428,4.0987-4.1622,4.5855-4.1254-.2596-8.2793-.941-12.368-.6618-4.213.2878-5.0403-1.4983-4.8875-5.1146.0986-2.3341-.2758-4.7337-.753-7.0389-2.0624-9.9608-5.5767-12.8205-15.7582-13.0515q-11.6574-.2644-19.0487,3.4794c2.6838,1.4725,5.8304-.7363,8.5193,1.2841,1.0308,1.8806-.4179,3.8078-.2803,5.7856.2676,3.8445-1.5609,5.4473-5.3766,4.6327-3.28-.7002-6.49103-1.163-8.7526,2.1897-2.74513-4.5229,2.37457-9.5183-.98083-14.8646-5.6925,6.5717-3.059,14.0158-3.6948,20.7588-3.2763,1.5212-6.5676.5035-9.7326.862-.4639-.2607-.9624-.3924-1.495-.3947-1.36678-.4559-2.742-.8885-4.0991-1.3729-2.6321-.9397-6.6298,2.0039-7.927-2.629-.8542-3.0501-3.2181-5.4851-3.2419-8.8962-.0141-2.0615.4298-4.0343.5403-6.0218.2164-3.8844-2.3925-3.1255-4.7725-2.2824-.4572,2.0585,1.0209,4.1175-.0017,6.1759.8697.6469,1.0616,1.5372.9147,2.5489.57442,2.8783,1.1486,5.7567,1.7225,8.6351.8364,1.2459,2.7778,1.8214,2.3328,3.8448-4.966,2.3246-1.6352,6.6531-2.4125,9.9893.6612,1.4241,1.8957,2.8062.5287,4.437-.6505.7765-1.679.5444-2.2272.0831-.9282-.7809-.8101-1.921-.2427-2.9696-1.4578-1.5204-5.174.0135-5.0796-3.4434.1689-6.1766-4.3778-5.6049-8.2647-6.0807-.8485,1.0511-1.9932,1.1519-3.2161,1.0011-4.8067,1.3653-9.6136,2.7305-14.4206,4.0959-4.3576-3.9992-8.9905-7.3586-15.1046-7.1068-1.4874,2.3076.636,3.6704.36,5.4265-.3012,1.9183-.746,3.345-3.0839,3.4988-2.6202.172-3.842-.9282-3.866-3.4931.4145-1.6997-1.4253-2.1925-1.8446-3.4459.3351-1.6433-4.6682-2.0638-.9932-4.5141,2.475-1.6503,4.5493-5.2592,7.5724-.3818,1.25,2.0161,3.5902,1.1339,5.65772.388,2.47358-.8924,4.33678-3.482,7.21068-3.0027,2.3405.3903,4.6024.6684,3.8254-2.5344-.6403-2.6396-3.0003-1.8363-5.1497-1.4565-2.946.5206-5.31838,3.926-9.3141,1.8752,1.22972-2.9283,2.3582-5.6145,3.4862-8.3009-.2676-.3638-.23-.6926.113-.9864-2.7736-1.8867-4.0366.0938-5.6899,1.9358-3.2102,3.5762-6.1333,7.6027-10.66758,9.8069-2.10682-3.1603-.73752-5.8265-1.05542-8.3569-.2591-2.0632-.3034-4.2908-2.5673-5.1616-2.5038-.9632-2.6406,2.5244-4.5761,2.8278,4.0494,4.0149,3.6665,9.1233,3.4156,14.199-1.1472.0322-2.295.0644-3.4424.0965v-.0001c-1.5821.6389-1.9511,1.9262-2.0571,3.4944-.4467,6.6136-.4736,6.6118-7.187,7.1213q.3114-10.9072-10.1041-11.0093-.3874-10.8714,12.066-16.2021c1.0296,3.168-1.7711,4.6591-2.98218,6.8526-.92372,1.6721-3.04742,3.1079-.97462,5.7482,4.6979-2.3624,5.421-9.126,11.0194-10.3874-.508-1.8848.4609-3.5651.7793-5.3357-1.6256-2.6835-3.9412-1.0207-6.0036-.9559-1.8347.8756-3.6696,1.7539-5.5046,2.6321-1.1158.1998-2.2317.3997-3.3478.5996-2.2817-.4533-1.6572-1.765-.9245-3.116.8251-1.521,1.6422-3.0463,2.4628-4.5699,1.7688-4.5596,1.6538-4.7443-3.4046-5.4707-1.96578.331-1.9505,2.2722-2.8324,3.4845-1.3145.4582-2.6287.9165-3.9429,1.3746-1.441,1.3261-3.6336,1.6811-4.63,3.5821-1.5502.5067-3.1003,1.0136-7.0511,2.3056,5.3762-5.4727,1.6002-9.8625,2.366-14.2045,1.53362-.4634,1.3912-2.3699,2.5834-3.1236,1.2199-2.9524,1.1069-5.82-1.73578-7.5961-2.25092-1.4064-4.37072.1771-6.33052,1.4528-.9537.6208-2.0141,1.0774-3.0263,1.6082-1.2175.6782-2.07818,2.4665-3.9033,1.2557-1.7051-.4208-3.3862-.4606-5.0165.3145-2.0933,1.4479-3.58438,3.7628-6.93838,4.5804-1.74582-2.398-2.13082-5.5194-3.13792-8.3485-.0019.0019.0478-.0954.0478-.0954-1.3656-1.4645-2.9731-2.5509-4.9022-3.134-1.706.4029-2.5498,1.8743-3.6908,2.978-.143,1.0008-.286,2.0016-.4264,3.0024.00252-.0002-.1769.348-.1769.348,2.0958.8467,2.5169-2.3754,5.0257-1.7152.7403,4.6325,1.5769,9.4822,2.2685,14.3525.3698,2.6036,1.6558,3.566,4.1834,2.8907-1.1033-5.795,3.6875-6.9752,7.15-9.5807q.5845,7.8047-6.1731,10.6987c-.2814,1.1239-.2276,2.9244-.90208,3.2595-4.82922,2.4-2.64572,5.4065-.99762,8.4342.21062.0725.4093.155.5967.2469-.1874-.0919-.3862-.1744-.5968-.2469-2.0154.7483-3.2889-.5185-4.67428-1.6416-3.89912-3.1611-5.97162-7.627-6.75072-12.19-.8838-5.1788-3.7462-4.2796-7.0222-3.6797-.8963-1.2033-1.7929-2.4071-2.6897-3.611-4.2122-2.3596-5.5495-6.71-7.37038-10.7094-.62712-1.378-1.26982-2.9805-3.00372-2.4503-.8445.2582-1.3466,1.7456-1.9292,2.7211-.634,1.0615-.7477,2.2125-.3072,3.3925,1.2684,1.7931,4.0678,2.1264,4.4995,4.7178-1.8286,1.3041-.8115,2.5948.0184,3.8863-.114.5553-.06,1.0938.1619,1.6154-1.1428,3.3589,1.6608,5.8494,1.957,8.8918,1.501,2.5941,3.2256,4.6552,4.6312.1044.7638-2.4726,1.989-2.1859,3.7-1.5399-1.5816,3.5773-1.5097,7.4596-1.735,11.6889-6.304-.8587-4.95388-7.8558-8.9577-10.0239-4.0018-.2127-1.8084,5.3077-5.22018,5.6406-2.51032-3.18-6.88772-3.6237-9.58022-6.5368-.5123-.264-1.0222-.5329-1.5375-.7909-1.3372-.6698-2.9036-1.2729-3.7549.339-.5745,1.0878.493,2.2396,1.5293,2.7627,3.8504,1.9441,7.7602,3.7703,11.6474,5.6407.0154,3.7725,4.6185,2.5733,5.6654,5.228-3.44448,6.8537-3.2902,6.6148-9.259,2.7609-2.4871-1.6058-4.256-3.9279-6.7671-5.4101-1.5793-.9321-2.6822-.5839-3.5951.8784l.35.3697-.2256.4561c2.9659,2.2107,7.85032,3.3779,7.24232,7.9757-.70762,5.3494-6.19182,3.1675-9.50482,4.4047-1.6764.6261-3.3486,1.0897-4.6586,2.3672.2857,2.4374.5677,4.871.8495,7.3045,2.8653,2.3368,2.5288,4.8729.46792,7.5164-.87842.0111-1.76072-.0269-2.63472.0427-2.5956.2066-5.8796.1162-6.5228,3.1013-.6599,3.0616,2.4344,4.3468,4.7379,5.5993,2.4492,1.332,5.5574,1.4552,7.8764,4.0516-2.3337,1.8847-4.36178,3.5225-6.3899,5.1604-.0743,2.3355,1.464,3.7923,2.8929,5.3087.62022-.0955,1.2401-.1908,1.8604-.2863,2.91782.7101,5.5436,2.758,8.7992,1.92.66662.4009,1.3332.8019,1.9999,1.2028.2889,1.3534.57772,2.7067.8664,4.0601.0941.1811.1961.3596.2956.5389-.0995-.1793-.2015-.3579-.2957-.539-.1117.2552-.3744.5649-.3059.7553.1806.5021.50532.9524.77232,1.4233,1.59588,4.1818,4.66758,4.6949,8.27168,3.0203,2.31632-1.0762,3.7332-.6725,4.6756,1.6386,2.1926.8154,3.6648,1.1218,3.3328-2.3038-.0767-.7896,3.0305,1.3977,4.5658-.2002.4059-.4222.7673-.9763,1.2694-1.2025,3.7895-1.7065,6.8336,6.2417,10.5299,1.2057,3.1941-4.3519,6.972-2.1313,10.3669-1.7042,3.9876.5016,8.2527-.0074,11.9524,2.1832.2492.1475.45352.3709.6787.5591l-.00018-.0001c.07888.6469.15788,1.2939.23668,1.9409l-.1814.3707c-.8849,1.1453-1.9465,1.2988-3.0748,1.0763,1.1283.2224,2.1899.0685,3.0747-1.0784-1.5005-.272-2.9127-.0482-4.2213.7533-5.2977-.4283-10.6443,1.1282-15.921-.4586-3.2201-.9684-4.9041,2.7384-8.1966,2.5425-11.4776-.6827-23.0454.721-34.47228-1.4385-2.05642.4716-5.29332-.5524-5.08342,3.0779.1568,2.7091,2.7568,2.4478,4.7487,2.6939,3.1719.392,6.3366.8396,9.5044,1.2636,4.1856-.6569,8.3654-.9506,12.5228.1955,16.7301-.6013,33.4173-2.0497,50.2007-1.6874,8.8381.1906,17.5767,1.1998,26.3675,1.7102,1.2046.0038,2.4092.0077,3.6134.0117,9.2472.5368,18.6305-1.6421,27.7505,1.3971,6.7741-1.5381,13.5726-1.3111,20.382-.2676,1.1017-.8104,2.2715-.9358,3.5123-.3519,7.4266-.3408,14.8817-1.6681,22.2342.6271,1.5335-1.957,3.768-1.345,5.7001-1.355,10.81882-.0563,21.6375.0439,32.45652.0695,1.225.0029,2.2885.2825,3.1113,1.2354,4.0686-1.8396,8.1322-1.5543,12.192.0321,3.7595-2.5683,8.031-1.1622,12.0304-1.3329,9.3938-.4007,18.8102-.2757,28.2172-.3634,1.2043.1274,2.4086.2549,3.6129.3823,2.9522-.0945,5.9049-.1891,8.8571-.2836,2.3609-1.4864,4.7477-.4316,7.1274-.0737,2.7928-1.2672,5.7233-1.3543,8.7026-1.017,1.6431-.2865,3.382-1.0419,4.5722.9221,8.5056-2.9264,17.2351-1.1511,25.8762-1.2305,1.2305-.0055,2.4611-.011,3.6919-.0164,19.563.0244,39.1262.049,58.6885.0735,1.2461-.0107,2.4922-.0214,3.7389-.0321,18.9788-.229,37.9616-.7894,56.9227.62,1.7982.0862,3.5973.1732,5.3958.2602,6.0098-1.1206,11.9549-1.5983,17.5231,1.6923.3221-.9536.8819-1.6012,2.1054-1.3938,2.9717-.6333,5.9312-.3271,8.8888.1148,7.1601,1.2562,14.1338-2.126,21.2936-.8561,1.7231-.0503,3.4467-.0992,5.1703-.1482,1.3741-.5462,2.7471-.5456,4.1184.0081.8674-.2505,1.7112-.428,2.1178.7058,1.3865-1.4849,2.7654-1.436,4.1398.019,7.8473-.2644,15.6926-.5274,23.538-.7904,3.4766-.5673,6.9615-1.2254,10.1976.9143,1.3445-1.0837,2.8226-.7946,4.3085-.4257,11.6673-2.0195,23.4527-.811,35.1739-1.067,6.7061-.1465,13.5379-.9673,20.2284.6381,1.642-.0075,3.2845-.015,4.9273-.0224,4.6936.9267,8.0454-3.8993,12.7393-2.9714,1.6765-.3598,3.449-.6122,3.3292-2.9796-.4945.0164-.9752-.0577-1.4419-.222-.3626-1.1163-2.7409-1.8526-.7972-3.3951,3.1178-2.4743,6.334-4.8252,9.5085-7.2282.0376-1.7691.0749-3.5381.1125-5.3072-1.6807-.2337-3.3611-.4675-5.3232-.7403,1.3868-3.4623,5.0551-4.2657,6.8668-6.8769.4098-2.1141.5392-4.1968-.6807-6.1298Zm-2.6894-14.7134c.3377-.2765.7124-.4444,1.1266-.5026-.4142.0582-.7889.2262-1.1266.5032v-.0006Zm-173.8379-238.5806c-1.0175-3.1851-1.8909-5.9193-2.7674-8.6638,2.2407-1.6234,4.2803-.7376,5.2204,1.0723,1.4571,2.8056.8635,5.5066-2.453,7.5915Zm20.5163,70.8927c-2.4258.1571-2.7293-1.9875-3.6984-3.4104.2418-.9291.0373-1.6386-.9622-1.9577-.7072-4.0227-1.4145-8.0453-2.1217-12.068-.2832-.4432-.3956-.9687-.5052-1.4955.1096.5268.222,1.0523.5055,1.4955,1.6035-.7101,2.6642-.2842,3.4882,1.3307,2.5914,5.0778,3.5563,10.4589,3.2938,16.1054Zm5.2223-36.3268c.6268.4125,1.1495,1.3608,1.2362,2.1209.1125.9839-.7185,1.7807-1.6724,1.2906-.5926-.3044-.7943-1.3693-1.1289-2.0116.4606-.7857.1388-2.3387,1.5651-1.3999Zm-2.3407,16.2342c-.4083,1.9909-.7932,3.9866-1.5869,7.9921-1.4227-3.4958-2.5524-5.5779-3.0819-7.8028-.3899-1.6373,1.1904-2.7699,2.5634-2.9818,1.8545-.2864,2.4657,1.0355,2.1054,2.7925Zm-10.9072-14.9084c.5567-2.4102,2.8033-3.5985,4.1585-5.4439,2.2444-3.0564,3.2929-.3752,4.5472,1.1024.5344,2.8285,1.2018,5.64,1.5674,8.4902.4052,3.161-1.8013,4.827-4.2706,5.8137-3.0438,1.2162-3.911-1.4416-5.0325-3.4217,1.7468-.9718,4.0788-1.6483,3.8047-4.1778-.3142-2.8983-3.5944-.5522-4.7747-2.3629Zm-27.523,23.4428c.0509-.8562-.0087-1.7514-.0777-2.65l.0003-.0002c.069.8987.1283,1.794.0774,2.6502Zm-2.6038,4.4751c1.6101-.9331,2.2749-2.2013,2.5109-3.6215-.236,1.4203-.9005,2.6885-2.5106,3.6217-.95,1.1773-1.8997,2.3547-2.8496,3.5321v.0003h0c-2.3902,3.3058-1.5163,7.1116-1.6496,10.7633-.2176.4685-.3046.9601-.2614,1.4748-5.8945-8.7373-4.1958-14.3656,4.7603-15.7707Zm-3.7366,27.5551c-1.2975.8082-3.009.9822-3.8796-.4183-.9564-1.5383,1.002-2.4856,1.4708-3.779,1.9954-.438,3.2147,1.1758,4.8021,1.8167-.7886.8083-1.4622,1.8008-2.3933,2.3806Zm7.6255-15.5738c-1.3549,1.1623-.7985,3.533-2.9293,4.1587-1.7411.5113-1.9019-.6741-2.2345-1.779.6154-1.8213.5064-3.6646.1679-5.5147,1.3178-2.052,2.6094-4.3689,5.4769-2.0482,2.3,1.8615,1.2475,3.7004-.481,5.1832Zm5.762,26.6834c-.0881-.1599-.1432-.324-.1653-.4925.0221.1684.0772.3325.1653.4922.0444.2008.0619.3885.0568.5653.0051-.1768-.0124-.3642-.0568-.565Zm32.3938,20.0131c-2.0926-2.2002-.0636-2.8194,1.4303-3.6292,1.3213-.4383,2.6132-1.0379,3.9695-1.2852,4.2472-.7743,2.0254,1.764,1.6467,3.3434-2.0482,1.8755-3.8434,4.9388-7.0465,1.571Zm8.3237,10.2294c-1.6631.4244-1.8468-.9772-1.8434-1.9587.0028-.7837.8268-1.3401,1.7883-1.1215.7533.1714,1.6488.2168,1.5697,1.3644-.0518.9688-.698,1.5074-1.5146,1.7158Zm-17.3956-31.2328c-.0492.0112-.0986.0225-.1481.0337.0495-.0112.0989-.0225.1481-.0338.4035-.149.8039-.307,1.2062-.4593-.4023.1523-.8027.3103-1.2062.4594Zm5.7583-14.5701q2.7445,7.9492-5.8838,10.7542c-5.903-1.8358-10.9436,2.6808-16.7938,2.6108-1.1438-2.8841.2114-6.2596-2.4142-8.3673-.5499-1.9311.6335-3.2702,1.5993-4.6836,7.4433-1.1742,15.1253-.8082,22.3365-3.546.9797-.3719,1.3456.7546,1.5603,1.6032,1.4733-.0253,2.9466-.0507,4.4202-.0761.8663-6.3771,6.6382-8.5994,10.754-11.9316,2.7581-2.2329,8.8736,1.6901,10.1389,6.2113,1.3088,4.677.974,9.2286-1.8951,13.5511-1.4199,2.1394-4.406,3.0809-4.6423,5.993.8124,1.5823,2.1337,1.9348,3.6445,2.2783,9.541,2.1688,14.3324,7.4494,15.4887,16.758.5377,4.3292-1.3962,7.4962-4.7731,9.7574-2.9013,1.9429-6.0782,3.4746-9.1335,5.1882-2.9474-.551-7.8745,3.1064-7.7374-4.0339.0404-2.0879-2.7646-2.4456-4.7962-3.0684-2.6589-.8155.009-2.1126.1398-3.2152,1.5112-.5151,2.3072-1.7931,3.0167-3.0528.968-1.7189,2.658-3.5484.981-5.5575-1.2709-1.5229-3.2387-.8715-4.9835-.6694-2.6081.3021-4.8649,2.2281-7.658,1.6309.2314-5.6541,6.2743-8.1566,7.6181-13.0749-2.797-2.5424-4.5633,1.0001-6.9922.4275.2766-5.7301.5529-11.4611.8296-17.192-1.4736.0254-2.9469.0508-4.4204.0762-.1475.5473-.5572,1.1851-.4041,1.6286Zm-7.604,62.9927c-.0181-.4638-.0362-.9287-.0546-1.3934.0184.4645.0365.9289.0549,1.3933l-.0003.0001Zm-328.04682-122.9095c2.2983-1.0351,3.5783.8784,4.0539,3.0896-2.5295,2.7236-5.2791,5.0442-9.2841,5.063-1.705-4.9056,1.9598-6.6799,5.2302-8.1526Zm119.83882-41.3008c5.2045.9422,6.571,4.9859,2.9593,8.8955-3.4487,3.7331-7.671,6.4786-12.2423,8.6817-1.2865-.2725-2.8553.0427-3.4552-1.6596,1.8938-2.0536,5.0635-3.1023,5.5196-7.1333-2.8245,1.95-5.1466,3.5533-7.469,5.1567-.2246-.6823-.449-1.3645-.6725-2.0465,5.1367-6.2131,4.4411-12.7244.9899-19.3767-.3934-.0233-.7873-.0466-1.1806-.0699.3933.0233.7872.0466,1.1806.0699,1.0257-5.1316,5.2166-4.6518,8.8153-4.6343,1.501.0072,2.41,1.6963,1.382,3.3305-.9392,1.4932-2.254,2.7529-3.1706,4.2571-1.9983,3.2796-1.1681,4.5837,2.9341,4.6955,1.4699.04,2.9969-.4222,4.4094-.1666Zm-14.0589,20.056c-.1427-.1311-.2853-.2622-.4283-.3933-.3552-.2098-.7064-.4167-1.0557-.6072.3494.1905.7006.3974,1.056.6071.1427.1312.2853.2623.428.3934Zm1.3354-89.6324v-.0001c1.1122-.0802,2.2241-.1606,3.336-.2409.972,5.6265,2.3373,11.2098,1.8564,16.9954-.2165.1594-.4003.327-.5562.5015.1559-.1745.3397-.3421.5562-.5016-5.3305.9094-6.0621-4.6511-9.9626-6.4347,2.0328-3.5637,5.3732-6.1343,4.7702-10.3196Zm-17.5132,46.203c-1.1398-3.767-4.0708-7.083-.6623-10.5904,4.4504-4.5798,7.7425,1.3196,13.2753,1.0814-4.4563,4.6721-8.1587,7.0175-12.613,9.509Zm10.5351-1.4674c-.5451.8563-1.3682,1.4045-2.5612,1.4524,0,0-.0003-.0002-.0005-.0004,1.1935-.048,2.0166-.5959,2.5617-1.452Zm-.4832-21.7744l-.1905.0188c.1071-.0106.1905-.0188.1905-.0188-.0947-1.4205.4117-3.1142-1.5719-3.6753.0941-2.2469.9765-3.7633,3.5391-3.7227.9867.5443,2.1525.9086,2.92,1.673,1.3371,1.3318,3.4585,2.7788,1.5558,4.9704-1.7686,2.0365-3.9483,3.5284-6.443.7546Zm3.8081-23.0727c-.4809,4.1648-3.6318,6.3004-5.3026,9.2752-3.1791-.9262-1.3317-4.2563-2.8575-5.9733h-.0006c1.6835-3.5443,4.5591-3.8734,8.1607-3.3019Zm-8.8222,17.8147c.5222-.0637,1.0424-.0532,1.5617.0318.0619-.6629.1628-1.2286.3006-1.7023-.1378.4737-.2387,1.0394-.3006,1.7024.1439,1.0609.5084,1.8726,1.772,1.6676.0845,1.195.1692,2.3901.2535,3.5851-2.3733,3.4602-5.4269,6.2655-8.6094,8.9479-1.5324,1.2915-3.0737,1.738-4.6609.0932-.3235-2.3565,1.1421-3.8044,2.5917-5.3299,2.6374-2.7759,5.3582-5.5011,7.0914-8.9958Zm-45.38543-38.1675c-.3221-.2023-.6439-.4045-.9658-.6068.2097-.2101.4165-.5816.6293-.5849.2125-.0032.4306.3625.6462.5664-.10307.2085-.2066.4169-.3097.6253Zm6.03363-11.746c-.25173,1.2289-.27893,2.3019-.00333,3.1646-.2756-.8626-.2485-1.9356.003-3.1645-2.6148,5.3788-7.8075,7.4859-12.7506,9.7466-3.7889,1.7329-6.7129.5787-8.6094-3.4146-2.3374-4.9214-3.1452-10.2494-3.17068-15.4351-.04572-9.2289,8.99028-17.2495,18.522-17.2899.28817-.0012.58007.8914.87057,1.3673-2.2605,4.2879-6.4145,7.5214-7.6849,13.4253,4.9005-1.1993,5.93132-7.3303,11.4899-6.73-.2247,3.5226-2.87257,5.7487-4.0071,8.5807-.5682,1.4187-1.0107,2.8259.3628,4.0292,1.01873.8925,2.2461.5973,3.32473.2246,2.62017-.9055,5.0434-3.1021,8.485-.9509-.9064,3.7495-4.87363,4.1129-6.832,6.4467Zm12.6133-5.7379c-1.1102-7.6239-1.7409-7.9418-12.6413-5.427,2.41137-4.7385,5.9561-8.9041,2.83437-13.8334,1.62023-1.3545,2.69623-3.0798,3.73663-4.9127,2.3257-4.0981,4.5826-4.6833,8.3661-2.0676,4.5817,3.1674,6.5599,8.3532,9.1021,12.967,2.6047,4.7274,1.861,6.8711-3.0183,14.5872.9842,1.2673,2.0305.7713,3.0053.0399,5.64-4.2319,6.7315-4.1902,9.6755,1.7056,2.3617,4.7296,4.7347,9.6219,3.2026,16.2637-3.5422-5.158-6.7411-9.8577-13.6952-8.1106-2.4662.6196-4.0065-2.2564-5.4218-4.0721-1.7988-2.308-2.8251-5.1889-5.146-7.14Zm9.5421,22.7286c-.5533.9738-1.0091,2.111-2.3023,2.2003-1.0294.071-1.5242-.757-1.6053-1.6273-.1559-1.6707,1.2218-1.6089,2.2795-1.7098.7609-.0726,1.632-.0093,1.6281,1.1368Zm-11.4483,11.2005c1.6332,1.5531,3.8937,3.1719,2.825,5.6269-1.157,2.6578-3.9428,1.3731-6.1106,1.3771-.2377-.5255-.4897-1.0449-.7104-1.5772q-2.1068-5.0801,3.996-5.4268Zm-9.82193,3.2879c3.02513-.8495,2.78983,2.6417,4.27973,3.9372-1.6208-.0879-3.24183-.1758-4.8629-.2637-.39443-1.3472-.94833-3.2435.58317-3.6735Zm-29.4469,14.789c1.9231.2809,4.2254-.7417,5.547,1.6115-.2467,2.3944-1.1679,4.7674-.2716,7.1984-4.2356-.8156-5.5794,4.5818-10.0662,4.462-1.9302-5.6528,1.6272-9.4,4.7908-13.2719Zm3.5829,46.389c-1.4857.3296-3.04518,2.5376-4.4617.3311-2.6792-4.1743-4.82748-8.5382-.8332-13.2022,2.0771,2.4134,3.27372,5.4828,6.0779,7.3887,3.1104,2.1139.9073,3.848-.783,5.4822.08482.5101.31282.8702.6301,1.1373-.31728-.2671-.5456-.627-.6301-1.1371Zm-1.5634-17.677c4.30822-1.0789,7.5311-.2806,8.285,4.7893-3.98778.5249-6.10278-2.1904-8.2853-4.7889-.7884-.7841-1.5767-1.5678-2.3653-2.3514-1.0421-.078-2.08418-.156-3.1263-.2343v-.0003c-.0144-1.8861.1365-3.6232,2.8064-2.8885,2.7609.7599.5222,2.0497.3199,3.1231.7886.7836,1.5769,1.5673,2.3656,2.351Zm21.3057,19.2739c-.1616,1.4388-.2551,2.8896-.4998,4.3143-.4804,2.7967-2.547,3.6718-5.0285,3.8828-2.5654.2181-3.2896-1.6006-4.2045-3.5604-.97368-2.0858-.6256-4.6586-2.4544-6.3822-.9245.191-1.84928.3818-2.7739.5727.5971,2.232,1.1938,4.464,1.79062,6.6959-2.27152-1.2478-8.17172.6949-4.77812-5.4035.9957-.4308,1.9915-.8616,2.9872-1.2925.92492-.1908,1.8497-.3816,2.7742-.5726v-5.4535c4.5109,2.6644,8.3489,4.9316,12.1872,7.1989.8511.0451,1.70253.0902,2.55353.1353-.851-.0451-1.70243-.0902-2.55353-.1352Zm13.72243,3.6064c-.416.3749-.9308.6852-1.2275,1.1383-.6117.9341-.9921,2.4683-2.4145,1.8595-1.3238-.5667-.768-1.7464-.2051-2.827.512-.9823.714-2.1262,1.0522-3.1985l.0639-.0554v-.0006c1.1071.0215,1.6496-.6413,1.9432-1.6057,1.7666,1.3105,1.0435,3.0392.7878,4.6894Zm8.3064,2.8759c-3.5054-.1939-2.1443-3.8383-3.9211-5.0661-.9451-5.3074,2.7214-6.0346,6.5529-6.5985.6917.0832,1.3787.2116,2.0647.3464-.686-.1348-1.373-.2632-2.0647-.3463.8378,4.2579-1.1828,7.8222-2.6318,11.6645Zm8.0364-27.7958c-1.36,2.7103-2.6716,5.4509-4.8338,7.6542-6.9273,1.8561-14.2335,2.9672-18.1329,9.8669-3.45993-1.4643-.98443-4.8357-3.12713-6.2642-.8315-.1201-1.9058-.3728-1.89287.8814.04577,4.4658-2.45683,5.3978-5.47232,3.1007-2.8641-2.1816-8.74-2.0357-7.4512-8.1164,1.6414-4.8839-.7564-7.7358-4.93548-9.57-4.19612-1.8417-8.44952-3.5525-13.06092-5.4811,3.1901-4.2816,9.11892-4.8171,10.8507-9.8196,1.5804-.6748,3.0197-1.5446,4.968-.9648,2.3108.6877,5.443,3.0696,6.8643-.3453,1.07-2.5708-1.7084-4.743-3.7163-6.4234-1.0794-.9031-2.5481-1.3412-3.8411-1.9894-.126-.4374-.3719-.7923-.7369-1.0646,1.1901-4.1075.60522-9.5434,7.1929-9.612,4.8366,2.5388,10.001,4.1209,14.1936,8.2636,3.86093,3.8152,12.41783,2.2756,15.94053-1.5175-2.5651-2.5574,5.743-4.5457.3029-7.4734-2.5702-1.3833-1.3173-3.426.1904-5.1505,2.8223-3.2287,5.5801-6.5141,8.3644-9.7759.0382-2.2262.076-4.4525.1142-6.6788-.2936-.6176-.5872-1.2351-.881-1.8527-.3999.167-.7242.2083-.9947.1598.2705.0484.5946.0071.9941-.1599,2.0621-3.2435,4.3944-2.2072,6.4992-.2041,2.0941,1.993,2.879,4.5438,1.189,7.1388-.6756,1.0374-2.0158.3279-3.0943.0829.0209-2.606-1.8234-3.9012-3.7123-5.1648-.0382,2.2263-.076,4.4526-.1142,6.6789,1.0043-1.2002,2.0376-2.3204,3.8095-1.3953,4.1427,4.9736-.6216,7.6604-3.0929,10.7907.1899,2.6941,4.2096.6643,3.9714,3.5293.21.0553.3877.0767.5341.0645-.1467.0124-.3253-.0087-.5361-.0639,1.1509,2.7434,4.7002,1.2447,6.1421,3.4729h-.0003c-.6233,1.3549,2.6171,5.3349-2.4885,3.6484-2.2026-.7276-4.2811-.894-6.6642,1.9879,3.5783,1.1715,6.8204,1.2439,9.1914,3.2437.7884,1.8075.1385,3.5538-.226,5.3123-3.857,2.6731-5.4131,7.7044-10.1742,9.5731-2.3176.91-.6816,3.0275-.4027,4.6322-3.1766,2.5021-2.2984,5.7835-1.7304,9.0053.2277-.0764.4584-.2084.6905-.3596-.2321.1513-.4628.2833-.6905.3597Zm3.717,22.9164c-.0222.268.032.5467.1457.8337-.1137-.287-.1679-.5657-.1457-.8337Zm16.5622-1.8529c-5.7694,1.1261-9.1242,7.1592-15.273,7.513-.1139-1.1832-.2281-2.3662-.3419-3.5495.1749-1.247.3498-2.4941.5247-3.7412,0,0,.1266-.1202.1266-.1203-1.1066-1.3584-2.2187-1.3719-3.3326-1.044,1.1136-.328,2.226-.3146,3.3328,1.0439.9667-.1197,1.5861-.6602,1.9017-1.5693-.1051-.6851-.2227-1.383-.4614-1.9438.239.5608.3566,1.2587.4614,1.9438,6.6368-3.0348,12.3378-7.5013,17.928-12.0589,4.3113-3.5148,4.8414-8.7857.9567-12.9793-2.5043-2.7035-3.4224-4.2629-.0525-6.7931,1.8197-1.3666,3.0508-3.5176,4.5475-5.3148,5.4388-1.4442,8.1073,2.5256,10.9827,5.8069,2.5863,2.9516,4.1316,6.4634,3.8606,10.5174-.3473,5.1998-5.2503,6.7683-8.0889,9.9834-8.5831.1036-14.0818,4.0671-17.0724,12.3058Zm6.8377,29.1738c1.5284.2639,4.757.8143,2.6835,2.393-3.7897,2.8853-5.621,8.3851-11.3443,8.7917-1.2565-1.5506.6705-5.925-3.9689-4.8184,2.7107-5.0968,8.6238-3.8403,12.6297-6.3663Zm-11.6839-2.9936c-.7895.6891-1.8432.8208-2.9511.8384l-.0003-.0003c1.1082-.0173,2.1619-.1491,2.9514-.8381Zm6.3941,16.2455c5.0285-2.0092,8.8792-5.2965,11.2177-10.0089,2.471-4.979,6.1788-5.6588,12.3717-4.1994-5.0186,6.5147-8.2746,12.945-16.6042,13.0138-.5281,3.6195-8.8182,1.4056-5.8708,8.0504.6516,1.4684-3.6391,3.6519-11.2225,5.9518.7471-6.5059,4.4498-10.5468,10.1081-12.8077Zm-23.0667,22.4751c-.547.5709-.7369,1.3555-.9101,2.15l-.0003-.0002c.1735-.7938.3628-1.5787.9104-2.1498Zm-7.5292,6.823v.0002l-.5018-.1375c.2196.0601.5018.1374.5018.1373Zm185.5632,100.9784c-6.3952,1.6751-12.3516,2.0444-18.3448,2.2489-19.4855.6651-38.9693,1.372-58.454,2.0629-20.113.0085-40.2348-.3211-60.3352.1938-7.9137.2028-15.9605-.9194-23.7985,1.18,2.7499.0703,5.5004.1232,8.2505.1883-2.7501-.0651-5.5009-.118-8.2508-.1883-1.0322.011-2.0644.0219-3.0966.0328-1.3323-.7908-2.6668-.7794-4.0033-.0107-4.0342.1548-8.0683.3097-12.1024.4645-7.1763-.2239-14.3898-1.1953-21.44253,1.0662,1.0932.6371,2.1864,1.2741,3.27993,1.9111,7.1619.2555,14.3587,1.2489,21.3985-1.0267,13.6308-.2819,27.261-.5639,40.8924-.846,1.3613.0146,2.7233.029,4.0852.0435v-.0001c15.2601.5449,30.5196.834,45.7771-.1064,3.8332.6268,7.5532.187,11.1722-1.1974,18.2912.2432,36.5631.3394,54.8423-1.0544,7.2703-.5543,14.7175-1.6393,22.0065.3044,3.9109,1.0427,7.5331,2.4611,5.7874,7.784h.0003c-1.1113,2.4137-2.7004,4.7323-1.8536,8.8522,2.7962-3.2408,4.703-5.5274,4.4588-8.9626.7115-4.1853,2.9277-3.8088,5.4967-1.6998,5.1842,4.2558,10.2949,8.6013,16.1157,13.4795-40.2428-.8282-79.7439,3.0838-119.1927-1.2278,0,.0001-.0003,0-.0003.0001-9.6868-1.8452-19.3725-2.3484-29.057.0166-12.9981-.385-25.9415.1603-38.7907,2.2973-17.9571,1.2577-35.9207-.5018-53.87952.1134-1.7395-.2039-3.5343-.2019-5.2085-.65-5.1293-1.3731-6.47518-6.7085-2.8745-10.4195,5.2596-5.4209,12.30332-4.6254,18.82352-5.7003-1.09333-.637-2.18653-1.274-3.27973-1.9111-1.8977-.5905-4.1721.7011-6.4368-1.838,8.1689-6.6255,15.08033-13.7592,27.14523-14.6632,13.8229-1.0356,27.6481-2.1501,41.5035-2.8277,9.4633.1831,18.9275.5727,28.3891.5121,32.1753-.2063,64.3499-.5717,96.525-.8759,4.9112,3.6754,10.1315,7.0003,14.4516,12.4543Zm-27.1596-24.2971c1.6521,2.3185,4.5272,3.7321,6.6586,5.753,1.6134,1.5299.5021,2.4959-1.0879,3.1109-.6307.0233-1.2613.0467-1.892.0701-8.8581-.5058-17.7161-.5205-26.5739.0086l-.0002-.0001c-6.7423.1634-13.4842.3655-20.2273.4814-11.1641.1919-22.3286-.9101-33.4975.1438-6.1415.5794-12.2397.436-18.4321-.365-6.3206-.8174-12.8879-1.5599-19.1221,1.0964-13.8396-.3164-27.6334.3946-41.7062,1.6111,9.7015-6.8482,16.6079-17.9129,30.584-17.5524,5.5261.1424,11.09-1.1916,16.6367-1.8533,4.1409-.0769,8.3189.1716,12.4169-.288,16.2001-1.8171,32.4073-3.1372,48.7355-3.1915,6.4594-.0215,13.0717.6581,19.4245-1.4059,11.6483-1.0641,21.1116,2.5979,28.083,12.3809Zm-35.4019-30.6979c5.7659,4.8936,11.5322,9.7873,18.3467,15.5708-9.9162.3573-18.5524.6685-27.1889.9797.4795.2883.9645.5272,1.454.7241-.4895-.1969-.9745-.4357-1.454-.7241-18.9818-.1196-37.788,2.7853-56.7329,3.2868-2.7338.0724-5.245.8434-7.6617,2.0385-7.3952-1.1666-14.637.7084-22.6103,1.4095,9.8967-10.797,21.3193-16.5924,35.4197-17.7322,9.4062-.7603,18.7938-1.5533,28.2265-1.786-.9812-1.1219-2.1287-1.474-3.3341-1.5579,1.2054.0839,2.3531.436,3.3344,1.5579,9.7803-.2259,19.4168-2.4261,29.2461-2.1429.9686.0279,1.9689-1.0562,2.9545-1.6242Zm-21.5197-17.52c6.4986,4.1508,12.4263,9.0351,18.1733,14.1512-.6126,1.8344-2.1585,1.538-3.6047,1.6804-11.4732,1.1292-22.9412,2.3123-34.411,3.4787-9.109.7352-18.2182,1.4704-27.3272,2.2057,9.2336-7.963,13.6385-22.0998,28.7917-21.9527-1.5318-.8604-3.38-1.4778-3.0582-3.0828-.3215,1.605,1.527,2.2223,3.0605,3.0825,6.1265.1454,12.251.2912,18.3756.437Zm-103.0143-28.5828v.0003c-1.0062-.1113-2.0727-.0358-3.0744-.1627,1.0015.1269,2.0679.0514,3.0744.1624Zm-3.1725-.1795c-.3658-.0516-.7237-.1284-1.0647-.2571.341.1287.6988.2055,1.0647.2571Zm-5.5007-4.1342c-.314-.2224-.6397-.3975-.9846-.4943.3449.0968.6706.2719.9846.4943Zm.428,8.4491c2.963-.604,2.2029,1.5959,2.5637,3.0097-.5758,5.1576-1.152,10.3153-1.7321,15.5095q-6.65233-2.3028-6.61843-10.1266c1.6883-2.9545,1.0647-7.4302,5.78683-8.3926Zm-4.88773,33.4093v-.0003c.0362-.6436.07233-1.2871.1085-1.9306.2574-.5581.2501-1.1125-.022-1.6635.2192-2.299.43883-4.5981.658-6.8971,2.52053,1.3837,3.56883,3.4658,3.69653,6.3833.2153,4.9149.8062,9.8134,1.2391,14.7189.2246-.1634.4552-.3664.6869-.5772-.2317.2108-.4623.4139-.6869.5772-.5519,1.3191-1.1379,2.5948-2.9441,2.3278,0,0-.1249-.2383-.1234-.2395.0008.0001.0014.0002.0022.0003-.6519-4.2784-2.84113-8.2402-2.61483-12.6993Zm-3.4735-2.1761c-1.9839-.576-3.9675-1.1519-5.9514-1.728-1.1189.0224-2.2356.0497-3.1375.5465.9019-.4969,2.0183-.5241,3.137-.5467.0624-3.2491,2.7058-3.6153,4.68772-3.1898,2.71.5816.99007,3.1973,1.26417,4.918Zm-2.0616-32.7028c-.8243-2.2285,1.8505-4.2705.4001-6.5399-2.73267-.2606-1.4448,3.7961-4.8561,3.2948-1.78858-3.4231-.10458-7.6196-.1289-11.6768,1.787-.1309,4.28732-.0088,4.514,1.6177.50433,3.6221,3.9739,5.3868,4.6379,8.7242q1.0503,4.7785-4.567,4.58Zm-38.3657,131.324c-.8805,1.582-3.1046,4.0494-5.8536,1.6026-5.1186-10.3159-5.2249-10.4425,3.6696-17.9111,15.4045-12.9345,29.5996-27.2683,45.6412-39.4529,5.41723-4.1147,11.09763-7.8812,16.61183-11.8704,1.2825-.9278,3.2825-1.669,2.0181-3.926,3.029.677,4.5647-.8862,5.3254-3.6119,10.513-4.8924,19.0012-12.604,27.135-20.532,3.6222-3.5304,8.79-5.998,10.2669-11.5263,2.5473.4281,3.5967-1.7272,4.6976-3.181,5.9321-7.8338,15.0159-11.7677,22.0811-18.1724,6.6227-3.3888,12.6164-7.9443,17.7212-13.0756,7.1109-7.1475,16.2106-10.8108,24.2306-16.2991,3.543-2.4245,6.6936-.367,10.6065.5854-12.531,13.2633-26.1305,24.161-40.2211,34.5988-7.4322,5.5055-14.1676,11.8309-22.0698,16.8978-3.6204,2.3215-6.6289,6.9622-9.9284,10.554-8.0807,8.7962-18.8754,14.0444-27.6535,21.925-5.6769,5.0968-11.9461,9.5148-16.8212,15.502-4.3543,5.3479-11.1773,7.3641-16.2233,11.9744-7.18693,6.5663-15.173,12.2006-21.79632,19.4891-3.9513,4.3484-8.8885,7.805-13.4084,11.6319-5.5441,4.6944-12.2632,8.0309-16.0294,14.7977Zm6.2856-1.839c.7523-.3827,1.49952-.0909,2.2452.3734-.74568-.4643-1.4929-.7559-2.2452-.3734Zm273.23342,14.3058c-14.7419-2.0048-29.5281.1506-44.2846-.4719-5.4916-1.8683-11.1914-.1148-16.7404-.9614-23.4724-.7316-46.9432-1.0602-70.4128.0604-1.4261-.0518-2.8525-.1035-4.2786-.1553-2.9157-.4939-5.812-.4297-8.6851.3014-2.5134-.7459-4.9084-.6296-7.0991.9748-8.8566-.3198-17.7554-1.3236-26.5597-.7858-10.953.6688-21.8887.9621-32.823.6176-7.1824-.2262-14.2312.2469-21.0381,2.31-3.48633,1.0565-6.94063,1.1999-10.44523,1.5268v-.0001c-4.0754-.0475-8.1746-.3957-12.2192-.0674-5.1985.4218-8.483-2.2082-11.954-5.5632-3.31508-3.2044-1.8305-7.1389-2.85108-10.6419.43938-1.3117.34618-2.9111,2.40008-3.1178,5.8516-.5891,11.593-2.512,17.581-1.3986,2.6925,1.679,5.7456,1.303,8.6591,1.3178,12.13583.0616,24.27553.1167,36.40733-.1329,5.8485-.1203,11.8928,1.2699,17.505-1.6105-.3078-.1489-.6402-.2461-.9789-.3298-.3388-.0837-.684-.154-1.0174-.2492.3334.0952.6786.1655,1.0174.2492s.6712.1809.9792.3298c12.9317-.7429,25.8632-1.4859,38.7949-2.2288-.1044-.1785-.2217-.3307-.3494-.4618.1277.1311.245.2832.3494.4617,5.4303-.0075,10.8612-.015,16.2914-.0226.1634-.1633.3304-.3086.5005-.4379-.1701.1293-.3371.2747-.5005.438,27.7398,3.3856,55.5804,2.7425,83.4274,2.2065,12.1688-.2342,24.3467.0168,36.5186-.117,4.8627-.0535,9.4224,1.577,13.8097,2.9754,4.7561,1.5159,4.9138,6.7072,5.0895,11.1682-1.8632,2.2037-3.7448,4.3732-7.0934,3.8163Zm-355.13272,3.6328c-.8194,1.1316-1.9318,2.1322-1.6634,3.7517-1.3097,1.5039-2.6196,3.0078-3.9313,4.5136-2.1887-1.129-2.3566-3.2012-2.992-5.0005,2.862-1.0883,5.7244-2.1765,8.5867-3.2648Zm-20.9291,69.0459c-.5603-.5828-1.1212-1.1655-1.6822-1.7482.1842-3.3498.368-6.6995.5545-10.0508.2444-.8755.4914-1.7527.73862-2.6299.06458-.2894.15378-.5758.19018-.8687q1.5586-12.5648,14.5537-10.6724c0,7.9707.0209,15.8621-.0212,23.7532-.0068,1.2779-.8421,2.1386-1.9961,2.6598-4.1125-.1476-8.2251-.2953-12.3375-.443Zm-2.3479-40.6983c.6085-1.7573,2.00582-1.9189,3.4694-1.5091,1.5449.4323,1.1698,1.6732.8063,2.7529-.6432,1.9105-.8374,4.3313-2.1394,5.5764-1.9421,1.8571-1.4984-1.0606-2.2177-1.7636.4494-1.6787.9188-3.3572.0814-5.0566Zm-7.8989-31.1154c.5336-6.1839,6.7326-12.5511,13.422-13.7081,2.0669-.3576,3.4605.3178,2.7855,2.8843-.3737,1.4201-.5779,2.8847-.8601,4.3271.0039-.0009.0065-.0031.01032-.004-3.09272,4.3374-7.43322,7.061-12.22552,9.0782-2.2178.9335-3.3262-.3308-3.1322-2.5775Zm7.9103,4.5412c-1.0892,2.9265-1.5704,5.1543-4.7445,5.0235-1.0774-3.4043,1.2752-4.0803,4.7445-5.0235Zm-50.9437,26.0293c6.5038-4.7568,12.3737.2152,19.951,1.2644-8.8564,4.7847-16.93388,6.0642-25.5366,4.3797.6572-3.048-1.1821-8.514,5.5856-5.6441Zm-.703,15.7042c-1.1678.3202-1.44288-1.5522-2.0743-2.4641.4842-2.4789,2.5999-2.2184,4.3416-2.5855,2.8525.3377,5.7047.6755,9.0157,1.0675-3.198,3.6864-7.5885,2.9691-11.283,3.9821Zm12.221,1.4777c-2.1513,1.9084-4.4327.3986-6.6926.4513,2.1274-.8339,4.36572-1.6912,6.6926-.4513Zm-30.543-12.9414c4.1337-.9097,6.852-4.2377,10.3394-5.4606,3.022,1.7236.1791,5.3713,2.8391,6.8828-1.2461,1.2551-.52438,2.5112.0477,3.7673.1756,1.9283.025,3.9758,1.9262,5.274-.6982,1.7222-1.8444,3.6808-3.7026,1.9541-3.4619-3.217-7.40368-5.4028-11.57368-7.4891-2.97742-1.4898-2.857-4.2724.12388-4.9285Zm12.8422,37.8761c-.4568-.3231-.9165-.1912-1.3819.8099.3865,2.5034.6521,4.2245,1.0116,5.3138-.3596-1.0895-.6256-2.8111-1.0123-5.3153.4658-1.0001.9257-1.1316,1.3826-.8084.1523.1077.3042.2659.45592.4593-.15172-.1934-.30372-.3516-.45592-.4593Zm11.6247,4.0004c-.6531.5574-1.4055.5613-2.046.2461.6405.3151,1.3929.3107,2.0457-.2504-.0089-.1327.01852-.3194-.0008-.4404.01932.1213-.0079.3089.0011.4447Zm-1.0729-7.7687c-3.1761-.9548-5.9311-1.7153-9.1575.4739-2.6488,1.7973-4.9381-.1962-6.4919-2.6382-1.1266-2.6009-7.2339-2.4563-3.9364-7.7776.7525-1.2142-2.3847-2.9146-4.2102-3.9242-2.5303-1.3994-5.89188-1.0246-7.8622-3.7105,2.5478-.7913,5.0609-1.5721,7.5736-2.3526l-.00028-.0001c4.77488-1.6989,9.36148-2.8119,13.151,2.1615,1.376,1.8058,3.451,1.8356,5.61308.8144,4.4697-2.1113,9.1637-.6752,14.7191-1.2771-3.136,6.0349-9.1355,5.0039-13.2437,8.0537,3.03352,6.7453,9.62352,3.4587,14.4138,4.9399-3.7496,6.5868-4.5241,7.054-10.5684,5.2369Zm7.2678,4.9106c8.0084-11.1953,8.863-11.33,18.2609-2.7844.8202-4.6721-2.0253-6.5363-5.0147-8.5228-2.2444-1.4914-5.47088-.3392-7.211-2.9112-.00588-.0015-.0118-.002-.018-.0035,3.3093-3.3088,7.3312-6.32,5.04512-11.9525,5.40128-4.1,11.55278-2.073,17.40778-1.8175,1.7601.0768,2.6155,2.5638,2.6656,4.218.21362,7.0634,2.0555,14.0497,1.29,20.9211-3.0257,2.3962-6.6421-1.3382-9.5636,1.7081,1.9237,4.0721,6.4879,1.2469,10.062,4.266-12.0069,3.0855-21.8523-5.7194-32.9241-3.1213Zm35.2245-42.6121c-.2721,2.2874-.54418,4.5747-.8163,6.8621-1.1634-.0108-2.3267-.0213-3.49-.0319-.0376-2.2238.1837-4.4802-.99188-6.9729-1.52122,2.349-.21422,4.821-.96282,6.9395-1.7935.0917-3.5867.1834-5.38.275h-.0003c-3.141-.0358-6.2831-.1337-9.42288-.0835-1.829.0292-2.31532,1.3337-2.29042,2.9294-.2323.7085-.4647,1.4171-.6971,2.1257h.0001c-2.6113,1.3063,1.3093,2.9914-.1208,4.3662-.0141-.0348-.022-.067-.0367-.1021-1.9293-2.0565-6.9652-.0817-6.4458-5.9567.2015-2.2785-5.1257-1.2479-8.4215-2.4931,4.883-1.4978,9.2656-2.8367,13.6447-4.1887,1.4811-.4573,2.826-1.3725,3.0663-2.8548.2889-1.783-1.4953-2.011-2.6965-2.7894-3.94228-2.5545-7.8501-4.672-12.85028-4.0099-5.03672.667-5.68632-2.8595-5.739-6.6943,1.624-4.239,2.787-.694,4.04588.2641,4.6374,3.5301,6.409,3.0632,7.6366-2.5665.806-3.6959.9353-7.5394,1.36752-11.3167l.07538-.0812.0003-.0004c3.2961-.0846,2.9412,2.9626,4.0265,4.7443,3.4323,5.6355,7.5862,10.0056,14.9953,8.9621,1.65452,2.3192,3.2417,4.6821,4.1393,7.7687,3.39822-4.1372,3.97422-7.178.2475-11.0242-2.4391-2.5173-4.4679-6.3521-1.6801-10.4063,3.6227.1443,5.532,2.9123,8.0061,4.7096.1839,1.6388-.1769,3.6589,2.5145,3.5205,1.777-.0912,3.5705-.0708,4.6305,1.6672,1.0114,1.6583,2.8142,3.3,1.2022,5.4451-1.1179,1.4873-2.7374,2.1591-4.6002,1.2523-.9612-.4681-1.7801-1.4049-3.0126-.6222-.0881,1.6793.94432,2.618,2.247,3.3794.2896-.0384.59032-.0568.8934-.0712-.303.0144-.6037.0328-.8932.0712q-5.2137,2.8546-2.1907,6.9836Zm2.64,19.1177v-.0002c1.1551.4111,1.6139,1.157,1.815,2.0269-.2011-.8698-.6599-1.6157-1.815-2.0267Zm1.8205,24.9077c.2071-.2831.4306-.5069.6629-.6996-.2321.1926-.4555.4163-.66258.6994,5.40028.0617,10.80038.1235,16.20038.1851,1.161,1.7284-.4292,1.7172-1.2955,1.8069-1.9318.2002-3.8861.1822-5.8311.2531-3.0256.1233-6.051.2467-9.0755.371-.627-.8721-.627-1.744.0014-2.6159Zm14.0075,10.9829c-3.8355-.2525-7.6761-.5407-11.4856-1.0378-2.6669-.3482-3.213-2.2098-2.5544-4.5824,3.0765-.1353,6.2695.464,9.066-1.438,1.77282.0276,3.546.0889,5.3185.0752,3.0112-.0234,3.0482,2.0183,3.1202,4.2176.0848,2.5921-1.5994,2.8882-3.4647,2.7654Zm3.7351-48.8733c-.6171,2.291-2.6035,1.6033-4.3517,1.566-2.2927-.0488-4.593.2748-7.4404.4774-.1373-4.7828.1819-9.1327,4.6176-12.0856h-.0001c1.4961-2.0411,2.99232-4.0823,5.0566-6.8985,1.4761,3.2213.3226,5.9093.2749,8.4881-1.9941,1.4484-2.8868,3.7655-.4814,4.7549,2.194.9025,2.7984,1.9385,2.3245,3.6977Zm162.67642,5.4393q.9542-8.214,8.3947-9.778c3.8835,1.7557,8.0702,1.3812,12.1521,1.6786,2.2029.1605,4.1104.4975,4.434,3.1744-.332,3.0483.9223,5.5859,2.5784,7.9937.1175,1.5617.6719,3.1966-.7799,4.4842-6.9852-1.1879-14.0383-1.3097-21.0834-1.0767-6.4952.2149-6.4907.3637-5.6959-6.4762Zm-4.2452-1.9112c-.8327,3.5115-2.649,5.8059-6.3904,6.2479-3.4187.4037-5.7487-.4728-5.6877-4.5186.0661-4.3962-.03-8.7948.0348-13.191.0364-2.4862,1.5258-3.6101,3.9154-3.8477,2.612-.2599,5.2116-.6443,8.7137-1.0881.0517,5.9676.6524,11.1749-.5858,16.3975Zm-.8104-20.2666c-11.5599,1.9681-11.6528,1.8952-12.2846-9.6217,11.5341-.7136,11.7528-.5424,12.2846,9.6217Zm-16.5883,16.0932c-.1718-1.5276-.1136-2.9045,1.5622-3.6084.0094-.3629.0184-.7031.0252-1.0219-.0068.3188-.0158.659-.0252,1.0219-.4798,4.2697.9071,8.64-.7083,12.8398-.0328.0855-.4801.1013-.672.0136-.2557-.1172-.4504-.3675-.6713-.5606.7569-2.8612.8177-5.7662.4894-8.6844Zm-17.84443-11.5388c4.05363,3.6507,9.17653,1.7696,13.76363,2.6597.106,5.7564.2122,11.5128.3182,17.2693-5.1206-.6805-10.673-.1599-14.25563-5.1219.0579-4.9357.1159-9.8714.1738-14.8071Zm-24.245,6.2242c1.4434-.2056,2.9302-.1075,4.397-.1491,4.9287,2.4817,10.3485,1.2485,15.5417,1.9318.629,2.2949,1.2314,4.4936,1.8344,6.6925-.816,4.5369,3.3442,5.7444,7.30313,8.5836-10.41523.7935-19.13902-.6771-27.78832.4789-1.63428.2183-2.7544-.6893-3.3924-2.188-1.0274-2.4131-2.5267-4.5712-3.1056-7.2408-1.3922-6.419-1.0065-7.2232,5.2101-8.1089Zm-14.6378,11.4315c1.1463-.4623,2.1853-.1583,2.9621.8557-.2846.8374-.85868,1.3599-1.7451,1.254-.7779-.093-1.8307-.1361-2.2359-.6315-.8528-1.0425.43-1.2408,1.0189-1.4782Zm-23.6638.974c-.1791-.374-.3037-.9329-.5066-1.2353.2032.3026.3281.8619.5092,1.2376-.1989.8737-.7533,1.2578-1.4611,1.1182.7078.1395,1.2619-.2448,1.4585-1.1205Zm-3.0485,4.3556c3.5772-.3184,2.7838,2.4294,3.3642,4.1516-.8404,7.0516.9434,14.1632-.4846,21.2013-1.7567-.0294-3.5131-.0533-5.2695-.0893-2.8508-.0584-3.4648-1.7896-2.8929-4.1421,1.7202-7.0733,3.5264-14.1256,5.2828-21.1215Zm-10.6481-12.575c2.3252-2.2483,4.1141.0654,6.0895.8212,1.4289-.0669,2.8576-.134,4.2862-.2012-1.4286.0672-2.8573.1343-4.2862.2013.0901.3966.1515.7976.1834,1.2031-.282.0535-.562.1372-.8463.1558-1.9093.1248-3.9482,1.1368-5.591-.6182-.2453-.2618-.1379-1.2697.1644-1.562Zm-12.5223,6.4586c.9867-.5425,1.91612-1.3298,2.972-1.577,2.24812-.5262,4.3023.2142,4.3085,2.7379.0068,2.7453-2.40038,1.4317-3.8493,1.5631-1.1342.1028-2.284.0291-3.4267.0337-.0166.085-.033.17-.0497.2549.0167-.0849.0331-.17.0497-.255-.00138-.9192-.0031-1.8383-.0045-2.7576Zm-1.61988,10.3298c.40488-1.8239.80918-3.6479,1.21408-5.4718,8.4215.7154,8.4885.7141,8.6527,9.067.1153,5.8536.0166,11.7115.01322,17.5674-12.84042.336-12.761.3412-11.906-12.4769.16138-2.42.60238-4.6331,1.597-6.7882.66458-.5146.89858-1.1265.429-1.8975Zm-3.93872-21.1131c.5943.5217,1.1885,1.0435,1.78272,1.5655.53348-.288,1.067-.5761,1.60048-.8642-.53348.2881-1.067.5764-1.60048.8645-.20852,1.6835-.41762,3.3669-.62642,5.0504-1.6414.1013-3.2828.2026-4.9242.3041-2.1848-5.8411-1.8695-6.4205,3.7679-6.9203Zm-25.4088,1.3929c.1554-.494.30352-.9903.4436-1.4887,1.2162.0015,1.7742.9582,2.4773,1.705.1109-.1689.2535-.3265.4141-.4771-.16048.1505-.3031.3081-.4139.4769-.0782,1.7667-.1565,3.5335-.2345,5.3002-3.6597-.4925-1.6032-3.7689-2.6866-5.5163Zm5.8168,53.7874c-2.6182.0723-3.7609-.9367-3.7501-3.5587.0082-2.0103.5075-3.5474,2.7756-3.639,3.8239-.1545,7.693-.5435,11.468-.1369,3.1933.344,3.1701,3.6759,4.6694,7.298-5.7736,0-10.47118-.0931-15.1629.0366Zm-2.4012-10.203h10.9468c.0002.1566.0002.3131.0002.4698h-10.9464c0-.1567-.0003-.3132-.0006-.4698Zm19.7802-11.6158c-2.6111-1.5818-.9194-5.2855-3.4147-6.9243-.4861-.0602-.9723-.1188-1.45858-.1758-1.05792,4.8309-.353,9.6756-.11392,14.517.0003-.0003-.028.0345-.028.0345-2.3779,1.8826-4.9227,2.265-7.5069,2.1336,2.5842.1313,5.129-.2512,7.5069-2.1339-4.8962-.7484-10.3485,2.3292-14.7045-2.1377.8985-6.6868,2.07542-13.3521,2.5939-20.0682.3244-4.2018,2.4956-4.59,5.8499-4.5068,3.10562.0771,6.0624-.2637,6.01462,4.2239-.028,2.6442.24838,5.2916.388,7.9375.48628.0571.97248.1157,1.45858.1759.1339-2.9296.2678-5.8591.4018-8.7887,1.37462-1.3141,2.9409-2.101,4.90862-1.7811.17688,5.9189-.43232,11.7528-1.89572,17.4941Zm8.0711,22.8794c-4.7453-.4964-6.2579-2.5279-5.539-6.9641.135-.8329-.0416-1.9168,1.0437-2.2513,3.7655-1.1605,7.6106-1.0246,11.3616-.1319,3.0398.7235,2.4981,3.5983,2.9042,5.851.204,1.1326.5538,2.2389.8468,3.3938-3.545.941-7.1036.4701-10.6173.1025Zm11.8433-16.1903c-2.543-7.1995-1.7052-14.6989-1.5566-22.0802.05592-2.7841,3.3727-1.1465,5.0095-2.0186.0461-.5754.0981-1.1502.1557-1.7245-.8652-.1434-1.7377-.2516-2.593-.4396-1.0348-.2274-2.5872.0185-2.3741-1.6929.0895-.7185.7784-1.5668,1.4326-1.974,2.3368-1.4539,4.4947-.3031,6.621.7245.328,2.3659-1.1747,3.0608-3.0865,3.382-.0576.5743-.1096,1.1491-.1557,1.7246,3.2009,2.9845,1.3626,6.5878.9475,9.8432-.6296,4.9341-1.8508,9.7927-2.8206,14.6833-.5453-.1359-1.4766-.1356-1.5798-.4278Zm9.5215,17.3134c-4.1921-.0755-5.7744-1.9678-5.5314-6.1342.22522-3.8589,1.8025-5.0116,6.6738-4.8767,4.5173.1252,4.9858,1.0945,5.15142,6.1151.16418,4.9899-3.03362,4.9545-6.29382,4.8958Zm13.3251-5.7469c-.048.8674-.373,1.7315-.3408,2.5885.0458,1.2269.1142,2.3603-1.508,2.4911-1.78948.1441-2.6807-.7286-2.6818-2.5188-.0003-.8757,0-1.7513,0-1.7468-.2651-3.0362-.3363-5.2808,2.7719-4.9139,2.6002.307,1.8497,2.4511,1.7587,4.0999Zm-5.1867-10.7986c-.2425-6.5954.202-13.2483-1.6471-19.7095.50952-1.5717-.03048-3.7168,2.1156-4.4167,2.5317-.8254,5.2195-1.049,7.775-.459,1.7072.3944,1.5642,2.2405,1.3975,3.6868-.6685,5.7972-1.1933,11.6207-2.1469,17.3722-.883,5.326-1.0938,5.2911-7.4941,3.5262Zm7.4783,16.1432c3.7482-3.7046,1.43512-9.1925,7.65012-8.8119,7.745.4741,9.16428,1.3422,10.86478,8.3163-5.4043,1.543-10.80178.1675-18.5149.4956Zm14.8599-11.8791c-3.4422-1.5471-7.1824-2.4304-11.22-3.7376,1.3507-6.0751,2.5129-12.1557,4.076-18.1315,2.178-8.3262,9.9945-9.9639,16.3804-3.5823,2.05482-.0132,3.7081,1.6168,5.9505,1.1682,12.3364-2.4675,24.5699.0351,36.84352.8592,1.8002.121,3.4699-.1263,4.5835,1.716.6776,1.1212,1.8194,1.5681,2.9988.8419,10.5786-6.5129,22.2215-1.7037,33.281-3.1171,3.1808-.4065,6.4636-.0149,9.6998.0108,4.0104,3.8991,4.2721,9.1821,5.326,14.2018.6765,3.221-2.1528,3.6317-3.7089,5.0862-17.028,2.4132-34.175,1.6373-51.2825,1.9159-7.771-1.5907-15.62933-1.7266-23.51452-1.4127-4.9787-1.5615-10.2881-.0978-15.3683-2.6773-6.8535-3.4801-8.6184-5.5746-6.6843-12.9813.3191-1.2219.4688-2.1968.0696-3.3164-5.768,1.678-3.8669,6.3624-3.6222,10.0698.1481,2.2514,1.7784,4.3663,2.3453,6.6417.4139,1.663,3.2862,3.2903.3317,5.2524-2.0186,1.3402-3.7813,2.4077-6.4854,1.1923Zm163.99482-30.8371c-.2105,10.0126-.5744,20.0266-.5007,30.0374.019,2.577-1.6835,4.3541-1.8126,6.6973,1.163.9013,2.0695,2.2586.9121,3.3438-1.2212,1.1452-3.0881.7059-4.699.2598-1.2105.0047-2.421.0093-3.6315.014-1.1667-.0057-2.3334-.0113-3.4998-.0171-3.0039-.0301-6.0076-.0601-9.0112-.0902-4.1455.2998-8.2906.5996-12.4361.8994-.8881.5566-1.7462.5732-2.5637-.1428-10.207,2.4821-20.6146,1.2205-30.9148,1.4194-27.8423.5377-55.6944,1.0462-83.54092-.0046-1.1826-.0446-2.4131.1719-3.5408-.086-2.3413-.5355-3.642-4.9546-1.6564-6.3064,5.118-3.4841,9.2412-9.4527,16.8079-7.5146,4.7931,1.8917,9.7521,1.7416,14.743,1.1944,21.56463.7382,43.12803,1.3509,64.65443-.8272,5.473-.5539,5.8909-.2599,6.8262,5.2235.2382,1.3969.0443,3.1398.82,4.104.9663,1.2015,2.0101.0054,2.6541-1.0473-1.271-4.585-2.1144-9.2388-2.2574-14.0057-.1489-8.2004-3.4518-15.7137-5.1373-23.5795-.4244-.0506-.8166-.1913-1.1766-.4219.0224-.9553.0447-1.9106.0681-2.8651-.6377-1.9193-.2178-4.1559-1.7383-5.813-.321-5.2577-.6442-10.5152-.9675-15.7728,3.2424-2.325,7.2285-2.1795,10.8009-2.4837,13.1448-1.1193,26.2232-4.1735,39.5551-1.6661,8.817,1.6585,11.06,3.6548,11.5443,12.6914.2981,5.565-.1842,11.1714-.3015,16.7596Zm80.909-4.0156q3.0383-10.5373,13.9876-11.5815c6.5583-.6131,13.0487.4135,19.5084,1.2054,4.4207.5419,6.3314,4.0539,5.8747,9.2889-.4659,5.3404-1.6332,6.515-7.1041,6.7332-11.2016.4468-22.4058.8182-34.5314,1.2538,1.0057-3.0481,1.7039-4.9542,2.2648-6.8998Zm-17.1705-32.7259c7.9671-.1518,12.3805,3.5059,14.3516,10.6941-13.5926,2.2552-14.583,1.5379-14.3516-10.6941Zm-1.527,24.573c.7771-9.8577,2.4448-10.9798,12.3155-9.367,2.627.4292,3.775,1.3266,3.3947,3.8188-.6623,4.34-1.2684,8.7095-2.321,12.9618-.7606,3.0722-6.4079,6.163-9.867,5.9391-1.3165-.0851-2.1354-.6401-2.3388-2.0224-.4247-2.8918-.8943-5.7771-1.1924-7.6863,0-1.8886-.0596-2.7713.009-3.644Zm-47.0548,1.0367c-.5741-.8967-1.3252-1.3386-2.159-1.5675.8338.2289,1.5849.6708,2.1593,1.5675.8714.0984,1.7409.2544,2.6149.2862,9.4692.3444,19.4795-.937,25.8219,8.7067.1311.1995.5287.2236.8019.3294h.0003c.6846.9181,1.3693,1.836,2.8731,3.8521-4.8889.3221-9.0592.6667-13.2369.8572-8.3045.3786-16.6164.6093-24.9186,1.0342-3.024.1548-4.0989-.9757-4.2738-4.0295-.5854-10.2313-.5736-10.3556,10.3169-11.0363Zm110.2216,53.042c-37.6763-2.3948-75.3994-.1453-113.0825-1.4333-7.3028-.2495-7.398-.1014-7.4848-7.1118-.0845-6.8269.1715-13.6594.0232-20.4838-.0777-3.5821.9754-5.5011,4.8671-5.7386,19.1947-1.1715,38.3002-3.9062,57.6269-.5422,7.4596,1.2984,15.1447-1.4479,22.8632-1.5262,7.6834-.078,15.3962,1.1587,23.0808-.1561,2.8567-.4888,4.5018,1.0099,4.7934,3.884.2091,2.0634.5883,4.1532.4445,6.1998-.349,4.9592-1.7677,6.287-7.1638,6.2882-13.0315.0028-26.052.0817-39.0128,1.6625-15.55-.0512-31.0898.2159-46.5937,1.5504-5.8889.1689-11.9029-1.1429-18.1475.7925.907,1.1168,1.2594,1.9204,1.5981,1.9146,12.7097-.2171,25.4179-.5088,38.1264-.7904-.3679-.5176-.7821-.866-1.2274-1.0986.4453.2326.8595.581,1.2274,1.0985,10.8583.7868,21.6494.099,32.4-1.4765-.8869-.3724-1.8785-.358-2.8708-.3387.9926-.0193,1.9839-.0338,2.8711.3386,9.1898.0375,18.3795.068,27.5696.1173,2.0757.0112,4.1568.0082,6.226.1508,4.5108.3111,7.1361,2.4655,6.864,7.3119-.0814,1.448-.5078,2.957.8406,4.4336,4.126-.2035-.0407-6.6264,4.6346-6.5141,3.2223.0775,6.454-.2407,9.5003-.3742.4865.7519,1.0443,1.2114,1.0347,1.6585-.2291,10.4659-.2656,10.8661-11.0086,10.1833Zm8.5136-15.5633c-6.7651,1.3729-11.8388.1556-14.1247-3.7227-.4487-.7612-1.1289-1.4881-.6389-2.3222,2.9098-4.9535,1.5329-10.2476,1.3682-15.4561-.052-1.6454.725-2.9322,2.5046-2.9515,3.5145-.0382,7.0389-.0029,10.5444.2239,1.9519.1262,1.8553,1.968,2.0183,3.3423.5177,4.3701.9441,8.751,1.4199,13.2588-1.208,2.4293,2.3068,6.5318-3.0918,7.6275Zm23.1921-38.5222c1.4151-.0134,2.9754-.4384,3.195,1.7877.3147,3.1958-1.6926,5.9321-4.6914,6.2459-1.5061.0163-3.0054.0132-3.0828-2.079-.1195-3.2463.5109-5.9163,4.5792-5.9546Zm-14.5542,16.649c.6406-4.8955,5.0002-2.0482,7.7346-2.5471-.3473,8.0421,1.1009,16.0855-.0161,24.1272.2905.0242.5838.057.8745.082-.2907-.025-.584-.0577-.8745-.082-2.6143-.0001-5.2283-.0001-8.274-.0001-1.18-7.2119-.3769-14.4567.5555-21.58Zm4.382,37.6237c-4.3119.0028-4.8411-.8391-4.9019-7.6293-1.098-4.1274,1.7564-4.6642,5.0375-4.8013,4.4764-.1871,5.3,1.3601,5.5413,7.7871.171,4.5523-2.5942,4.6415-5.6769,4.6435Zm10.6964-36.2731c-1.2501,6.2612-2.208,12.5807-3.291,18.8751-1.67-.6332-1.9294-2.0218-1.9019-3.5604.1155-6.4845.2328-12.969.3495-19.4535,3.3862-.699,5.7603-.4539,4.8434,4.1388Zm8.7597,35.3766c-2.5623.0255-5.2421.5532-6.9855-.2154-1.6507-1.1772-1.3312-2.1481-1.1373-2.9358.7513-3.049-1.9279-7.2869,1.4105-9.047,3.2939-1.7365,7.543-.6601,11.3757-.4038,1.2602.0843,2.0271.7783,2.484,2.0536,2.4911,6.9558.2131,10.4751-7.1474,10.5484Zm9.3511-30.0232c-2.0279,2.7005-2.0582,5.4288-1.8974,8.3633.1919,3.5028-.7734,5.086-4.8575,5.3322-11.5992.6988-11.6128.9504-9.5447-10.1174.5962-3.192,1.4343-6.3382,2.122-9.514.8246-3.808,3.2569-5.4094,7.0305-5.2301-.0331-.7065-.2891-1.2489-.6544-1.7105.3653.4616.6213,1.004.6547,1.7105.918,1.1606,2.259,1.2768,3.5772,1.4493,1.1057,2.9373,3.4803.4752,5.1364,1.189.3097,3.0145.1588,6.2299-1.5668,8.5277Zm80.6054-23.6815c1.7123.2201,3.3856.7463,5.0762,1.1333,1.1034.8889,1.3668,1.7602-.1664,2.4266-2.707,1.1764-5.5529,1.4901-8.4758,1.2282-.8392-3.1093-.3351-5.2896,3.566-4.7881Zm-28.1633.0455c2.6521,1.2168,5.2729,2.4193,7.8937,3.6217.3817,2.4675-1.304,3.6057-3.0325,4.7164q-6.9507-1.7854-4.8612-8.3381Zm-14.3734,12.6619c6.3433-2.8467,9.721-.6659,9.9417,6.3414.158,5.0125.4431,10.021.6923,15.4887-17.7842,2.087-17.8896,2.0643-14.3646-14.2772.5713-2.6484.4235-6.0688,3.7306-7.5529Zm-14.4149-11.359c3.3323-1.2997,6.8866-1.4883,11.389-1.4191-1.0545,1.6366-1.9582,2.7576-2.5578,4.0225-1.734,3.6589-6.4511,5.2005-9.6223,3.0463-1.9599-1.3314-1.6061-4.7144.7911-5.6497Zm-2.4659,33.8634c.668.0636,1.336.1272,2.004.1907-.668-.0635-1.336-.1271-2.004-.1906v-.0001Zm-17.0995,4.9289c.5179-.7951,1.4176-1.245,2.7564-1.2984l.1492-.0472c-.5923-.6867-1.1848-1.3732-1.7773-2.0598-1.2162-6.7596,1.1305-13.1787,1.916-19.7456.4145-3.4663,3.2006-3.6106,5.8346-3.9647,2.8005-.3765,5.9259-1.702,6.7646,2.729-1.2953,6.6156,1.6219,12.9183,1.4456,19.4508-5.3111.6028-10.7569-.1996-15.9603,1.531.592.6861,1.1845,1.3726,1.7768,2.0593.8513.1437,1.7143.1582,2.5973.1299-.883.0283-1.746.0139-2.5973-.1299,0,0-.1492.0472-.1481.0475-1.3393.0532-2.2396.5031-2.7575,1.2981-.1727.265-.3029.5684-.3928.9082.0899-.3398.2201-.6432.3928-.9082Zm16.9161,12.8066c-2.6625.0803-5.3246.208-7.9877.2324q-10.3268.0948-9.476-10.6819c5.9211.0302,11.8419.0603,17.763.0904l.0607.0417c.3529,3.4554.3956,6.9003-.36,10.3174Zm2.0158-10.4957c-.146-.0128-.2887.0021-.4331.0038.1441-.0017.2868-.0166.4326-.0038.7092-.1531,1.2921-.2245,1.7694-.2274-.477.003-1.0599.0744-1.7689.2274Zm5.0893-7.5793c-1.5815.71-3.2071,1.0094-4.9163.5276.2506-6.6176.4303-13.2286-1.8426-19.6091.9703-5.2029,4.7637-3.3229,7.5642-2.6527,2.7287.6531,1.6719,3.2317,1.569,5.2185-.2885,5.5809-2.868,10.8275-2.3743,16.5157Zm22.9991,12.1058c-.093.744-.1859,1.4879-.2786,2.2319.22.9576,1.2602,2.1426.9237,2.9459.3365-.8033-.7047-1.9881-.9265-2.9456-1.015,1.0865-.9138,2.4795-1.0517,3.8066-4.7095.0671-9.4195.1092-14.1281.2115-2.4846.0539-5.0277.0439-4.9796-3.3354.0441-3.086-1.1808-7.575,2.5173-8.5046,3.9175-.9849,7.4984-2.958,11.554-3.4797,3.5283-.454,4.751,1.4541,5.4438,4.3025.8121-.1063,1.3349-.4215,1.7013-.8615-.3664.44-.8892.7552-1.7013.8616-.3017,1.7075-.0666,3.3107.9257,4.7668Zm2.8869-11.6833c-2.2641-.177-2.9954-1.7191-3.2-3.5351-.395-3.5063-.5866-7.0356-.8146-9.9404,0-2.3921.0557-4.1612-.011-5.9255-.1532-4.0451,2.1037-4.8276,5.6346-4.7162,3.9959.1259,5.07,1.999,4.4862,5.6229-.7951,4.9337-1.4411,9.8914-2.1483,14.8392-.3269,2.2869-1.2272,3.8675-3.9469,3.6551Zm5.1944,17.2365c1.1458-4.5509-1.9107-10.0958,4.8753-11.9607-.2647-.3371-.4566-.6726-.5879-1.0069.1314.3343.3234.6698.5882,1.0069q12.0968.4249,12.6469,10.914c-5.5481,3.0399-11.2734,1.6087-17.5225,1.0467Zm24.0395-2.1866c-.0438,1.8615-1.0067,2.5282-2.6575,2.6329h-.0003c-.4871-.6626-.9742-1.325-1.4616-1.9876l-.0535-.1868c.0557-2.2335.1679-4.4673.1532-6.7003-.0215-3.2636,2.0839-3.4807,4.5269-3.287-.1786,3.176-.432,6.3503-.5072,9.5288Zm2.2665-16.7672c-4.2964.4361-7.5936-.2325-6.9536-5.808.5411-4.7112-1.0449-9.1766-1.8584-13.7277-.6024-.0058-1.2049-.0115-1.8073-.0173-.8731,4.8075.8338,9.3677,1.3766,14.037.4047,3.4818-.2068,5.7356-4.5046,5.4616-2.6004-.1658-5.3652-.1879-7.5732,1.745-2.4673-.5265-2.1636-2.4714-1.9491-4.1558.7033-5.5287,1.4727-11.0512,2.3489-16.555.4513-2.8335,2.1687-3.985,5.0627-3.173,1.9291.5414,4.1997.3513,5.2387,2.6402.6024.0058,1.2049.0115,1.8073.0172,2.5354-5.4267,7.502-3.327,11.8727-4.4936,1.295,8.7968-.2764,16.487-3.0607,24.0294Zm21.2311,11.1c-1.1024-1.0094-2.2435-1.1982-3.3989-1.0852,1.1555-.1132,2.2968.0755,3.3992,1.0849l-.0003.0003Zm21.9435-34.2588c-.4727.4428-.9748.8086-1.5117,1.085.5369-.2764,1.039-.6422,1.5117-1.085Zm-24.8104-29.1697c-.5467-.4415-.7509-1.0168-.0514-1.9458-.6993.929-.4952,1.5043.0514,1.9458Zm-10.0027-12.3178c.091-1.0631.1817-2.1262.2693-3.1903-.0876,1.0641-.1783,2.1272-.2664,3.1926-.6075.7241-1.1547,1.4557-.8544,2.2747-.3005-.8191.2463-1.5511.8515-2.277Zm-6.0378,12.5398c-.1842-1.0452-.3687-2.0906-.5529-3.1358-.2035.0128-.4004.0141-.5911.0036.1907.0105.3876.0092.5911-.0036,1.3249-1.1136,2.6419-3.1651,3.977-3.1769,5.5176-.0492,9.8061-3.3261,15.641-5.7057-.7709,3.0003-1.8782,4.3773-3.7779,5.2242-5.0929,2.2706-10.1911,4.5302-15.2872,6.7942Zm8.8745,5.3208c2.0505-5.918,7.5904-.3891,10.1688-3.3478,2.4626,2.2925-1.3563,2.5097-1.3212,3.9999h.0002c-2.8674.9612-5.5964.0928-8.8478-.6521Zm6.8219,14.8969c-.6067,1.5449-1.6598,1.4142-2.8522.7599.5527-.668,1.1057-1.3359,1.6586-2.0039,3.5289-10.4983,12.5952-10.3561,21.2275-11.0946-5.7278,5.6936-11.6229,11.0678-20.0339,12.3386Zm3.979,18.9785c-1.597-.4976-2.4752-1.6876-1.5405-3.358.9833-1.7568.4476-4.2356,2.5976-5.4163,2.6188-.7671,4.5142-2.4043,5.7775-4.8022.4976-.104.9859-.2415,1.4648-.4125,1.4061.0065,2.8127.0418,4.2178.0143q4.5465-.0886,2.3993,5.015c1.4781.4958,2.7706.5102,3.9157.1423-1.1449.368-2.4374.3536-3.9154-.1421-2.1212,2.7081-6.4043,2.8442-7.8697,5.9007,1.7802,3.9455,4.3879-1.3146,6.3774,1.66-2.4885,1.203-4.1672,5.8912-6.5588,4.215-2.3091-1.6185-4.4913-2.0765-6.8657-2.8162Zm19.8627,20.8395c-2.6852,2.9296-5.6122,5.156-9.4195,6.0918-.3297-1.4661-.6699-2.7399-2.7332-1.8501-1.0664.4599-2.2661.3257-2.6004-1.2149,2.2401-.7619,4.4806-1.5237,6.7207-2.2855l.0003.0001c2.6428.3552,4.961-2.2027,8.0321-.7414Zm1.3976-12.0635c-4.2574,3.1467-8.5947,6.1855-12.8998,9.2677-1.3925.1691-2.785.3383-6.3729.7744,4.487-3.3627,3.8355-8.1509,7.2132-9.8831,3.5159-1.8031,7.6716-2.3584,11.5478-3.4594,1.6193.878,2.2186,2.0386.5117,3.3004Z"/><path class="cls-1" d="m634.88758,361.9565c-.0107-.019-.0169-.0377-.0282-.0568l-.0356.0227c.0217.0133.0421.0213.0638.0341Z"/><path class="cls-1" d="m541.37618,356.1565c1.6409,3.1817,4.623,5.5846,5.3899,9.274,1.7527,2.5944-2.3939,4.506-.8186,7.0827,5.0568,2.4284,8.1073-2.3045,12.1739-3.4115,3.3142.1483,3.6759,6.6719,8.3704,3.8616,7.1304-4.2684,13.7946-3.6002,20.8807,3.9946-2.0081-4.7195-3.8281-7.0549-3.8287-10.2002-.0011-6.5985-.5456-6.9168-6.244-4.5062-1.306.5525-2.5575,1.5448-4.4552.2246.2902-6.4183-4.2825-8.5418-9.7995-9.7l-.6166-.1967c-1.5422,1.1251-2.66.4278-3.6462-.8483-.4523.92-1.198.5644-1.89.439-1.8242,2.9739-5.6377,5.0421-4.3046,9.4537-1.9799,1.0058-3.0725.0851-3.905-1.686-1.0587-2.2528-1.8573-4.7637-4.6467-5.5956-.8867.6048-1.7731,1.2096-2.6598,1.8143Z"/><path class="cls-1" d="m123.22795,363.9336c.0786-.0019.1486-.0188.2221-.0302-.041-.0406-.07518-.0827-.1173-.1231v-.0001c-.0455.0094-.0845.0262-.1291.0363.0105.0394.0124.0776.0243.1172v-.0001Z"/><path class="cls-1" d="m498.22018,155.7911c7.7617,3.6456,8.2774,10.5264,8.278,17.7724.0003,2.6152-1.4665,6.3348,3.4964,6.3269.0299-.4975.1266-.9818.2899-1.4527-1.4382-7.1039-.4498-14.6257-3.6874-21.4199-2.7522-1.9453-5.2896-4.4316-9.1336-3.6274.2405.8256.2422,2.159.7567,2.4007Z"/><path class="cls-1" d="m393.05318,223.966c.3811.6139.8767.7267,1.4865.3384.5092.8206,1.0178,1.6414,1.5267,2.4622,1.154.5567,2.3082,1.1133,3.4622,1.6699,1.5182,1.3682,3.061,2.7103,4.5487,4.1114,1.7429,1.6417,1.8124,2.8746.1054,5.078-4.326,5.5845-4.0935,5.7647,2.2495,10.7161,3.2384,2.8048,6.686-1.0468,9.9696.3129,1.4388-1.717,1.3527-3.2162-.8776-4.0068-1.6646-.5902-3.4456-.5334-5.1508.1031-2.1568-.3387-5.6956.3889-5.0141-3.0836.6366-3.2413,3.5382-3.5769,6.2932-1.6252,1.2639.8955,2.6417,1.3221,4.1701,1.0966,1.3116-.1936,2.3082-2.0679,1.6431-2.1143-3.8157-.2658-3.6572-5.4902-5.5168-5.419-4.5131.173-5.7846-3.7247-8.7727-5.2562-.0494-1.1655-.0989-2.3311-.1483-3.4966-2.8646-.5918-5.7293-1.1835-8.5936-1.7753l-.0311.0918c-.4501.2657-.8999.5311-1.35.7966Z"/><path class="cls-1" d="m420.10138,251.3581c1.2269-1.5941-1.1381-.4277-1.8304-.6229-3.9604,2.9732-8.465,1.3863-13.9281.4917,1.9765,2.1192,2.9098,3.1197,3.8434,4.1206,4.5826.447,9.0768-.3021,11.9151-3.9894Z"/><path class="cls-1" d="m306.90698,397.3082c-1.0557.1379-1.6138-.3212-1.6652-1.3877-1.5719-.3125-2.0014-3.3775-4.1093-2.0143-1.9347,1.2514-.4786,3.037-.0819,4.5896.2119.8293.4379,1.6552.6572,2.4825,1.74.1239,3.4795.2478,5.2195.3716.8765-1.3516,1.9895-2.7045-.0203-4.0417Z"/></g></svg>