<svg id="Layer_1" enable-background="new 0 0 64 64" height="512" viewBox="0 0 64 64" width="512" xmlns="http://www.w3.org/2000/svg"><g><path d="m37 32c0-8.525-7.111-15.388-15.725-14.983-8.068.38-14.275 7.33-14.275 15.407v20.576c0 5.523 4.477 10 10 10 5.523 0 10-4.477 10-10v-1.271c0-3.086 1.553-5.904 4.019-7.76 3.631-2.733 5.981-7.073 5.981-11.969z" fill="#ffde55"/><g fill="#003f8a"><path d="m17 64c-6.065 0-11-4.935-11-11v-20.576c0-8.797 6.689-16.003 15.228-16.406 4.424-.205 8.62 1.356 11.815 4.404 3.197 3.05 4.957 7.161 4.957 11.578 0 5.062-2.326 9.716-6.38 12.768-2.301 1.732-3.62 4.269-3.62 6.961v1.271c0 6.065-4.935 11-11 11zm5.006-46c-.228 0-.455.005-.684.016-7.47.352-13.322 6.68-13.322 14.408v20.576c0 4.963 4.038 9 9 9s9-4.037 9-9v-1.271c0-3.325 1.61-6.444 4.417-8.559 3.548-2.671 5.583-6.742 5.583-11.17 0-3.864-1.541-7.462-4.337-10.131-2.631-2.509-6.038-3.869-9.657-3.869z"/><path d="m29.521 23.973c-2.242-2.102-5.174-3.154-8.251-2.95-5.759.373-10.27 5.345-10.27 11.319v2.658c0 .553.448 1 1 1h1c1.103 0 2 .897 2 2s-.897 2-2 2h-1c-.552 0-1 .447-1 1v4c0 2.206 1.794 4 4 4s4-1.794 4-4c0-.553-.448-1-1-1s-1 .447-1 1c0 1.103-.897 2-2 2s-2-.897-2-2v-3c2.206 0 4-1.794 4-4s-1.794-4-4-4v-1.658c0-4.923 3.689-9.018 8.399-9.323 2.521-.161 4.921.694 6.754 2.413 1.836 1.721 2.847 4.053 2.847 6.568 0 2.843-1.308 5.458-3.589 7.175-.441.332-.53.959-.198 1.4.196.261.496.398.8.398.209 0 .42-.065.6-.201 2.788-2.097 4.387-5.294 4.387-8.772 0-3.029-1.268-5.955-3.479-8.027z"/><path d="m26.001 30c-.304 0-.604-.138-.8-.399-.765-1.018-1.931-1.601-3.201-1.601s-2.437.583-3.201 1.601c-.331.442-.959.53-1.4.199-.442-.331-.531-.958-.199-1.4 1.146-1.525 2.895-2.4 4.8-2.4s3.654.875 4.8 2.399c.332.441.243 1.068-.199 1.4-.18.136-.391.201-.6.201z"/><path d="m35 58c-.552 0-1-.447-1-1s.448-1 1-1c6.065 0 11-4.935 11-11 0-.553.448-1 1-1s1 .447 1 1c0 7.168-5.832 13-13 13z"/><path d="m35 52c-.552 0-1-.447-1-1s.448-1 1-1c2.757 0 5-2.243 5-5 0-.553.448-1 1-1s1 .447 1 1c0 3.859-3.14 7-7 7z"/></g><path d="m47 21h-10v-10c0-5.523 4.477-10 10-10 5.523 0 10 4.477 10 10 0 5.523-4.477 10-10 10z" fill="#d1e7f8"/><path d="m47 22h-10c-.552 0-1-.448-1-1v-10c0-6.065 4.935-11 11-11s11 4.935 11 11-4.935 11-11 11zm-9-2h9c4.962 0 9-4.038 9-9s-4.038-9-9-9-9 4.038-9 9z" fill="#003f8a"/><path d="m52 8h-7c-.552 0-1-.448-1-1s.448-1 1-1h7c.552 0 1 .448 1 1s-.448 1-1 1z" fill="#003f8a"/><path d="m44 12h-2c-.552 0-1-.448-1-1s.448-1 1-1h2c.552 0 1 .448 1 1s-.448 1-1 1z" fill="#003f8a"/><path d="m52 12h-5c-.552 0-1-.448-1-1s.448-1 1-1h5c.552 0 1 .448 1 1s-.448 1-1 1z" fill="#003f8a"/><path d="m47 16h-5c-.552 0-1-.448-1-1s.448-1 1-1h5c.552 0 1 .448 1 1s-.448 1-1 1z" fill="#003f8a"/></g></svg>