<svg xmlns="http://www.w3.org/2000/svg" width="123.329" height="23.745" viewBox="0 0 123.329 23.745"><path d="M82.049,65.727H70.58V43.77h2.392V63.682h9.077Z" transform="translate(-70.58 -42.325)" fill="#f5b6c3"/><path d="M122.525,47.725a1.552,1.552,0,0,1-1.556-1.549v-.091a1.571,1.571,0,0,1,3.142-.071v.067a1.53,1.53,0,0,1-1.407,1.64,1.056,1.056,0,0,1-.179,0ZM123.736,66.2h-2.392V50.489h2.392v15.7Z" transform="translate(-103.966 -42.795)" fill="#f5b6c3"/><path d="M148.32,47.182c0-1.96,0-4.525,1.728-6.283a5.184,5.184,0,0,1,3.631-1.41,5.781,5.781,0,0,1,2.335.462l-.4,1.873a4.486,4.486,0,0,0-1.815-.375c-2.477,0-3.084,2.3-3.084,4.842v.894h3.8v1.873h-3.8V62.89H148.32V49.058h-2.16V47.186h2.16Z" transform="translate(-120.657 -39.488)" fill="#f5b6c3"/><path d="M195.719,76.587a11.356,11.356,0,0,1-4.927.979c-4.586,0-7.322-3.226-7.322-7.923,0-4.927,2.767-8.473,7-8.473,4.842,0,6.081,4.437,6.081,7.174,0,.547-.03.952-.057,1.326H185.808c.03,4.35,2.507,5.989,5.331,5.989a9.933,9.933,0,0,0,4.12-.806l.462,1.728h0Zm-1.529-8.7c.03-2.133-.864-4.9-3.948-4.9-2.885,0-4.15,2.737-4.38,4.9Z" transform="translate(-145.377 -53.854)" fill="#f5b6c3"/><path d="M277.61,45.836a7.454,7.454,0,0,0-3.86-1.009c-3.054,0-4.208,1.873-4.208,3.459,0,2.16,1.326,3.253,4.265,4.495,3.543,1.5,5.358,3.314,5.358,6.455,0,3.486-2.538,6.165-7.262,6.165a10.109,10.109,0,0,1-5.244-1.383l.665-1.987a8.928,8.928,0,0,0,4.727,1.353c2.939,0,4.667-1.586,4.667-3.948,0-2.16-1.184-3.486-4.036-4.64-3.314-1.238-5.561-3.169-5.561-6.2,0-3.344,2.71-5.79,6.715-5.79a8.938,8.938,0,0,1,4.495,1.036l-.719,1.987h0Z" transform="translate(-200.496 -41.685)" fill="#f5b6c3"/><path d="M320.473,52.246l2.362-.806V55.1H326.9v1.873h-4.063v9.077c0,1.987.6,3.084,2.133,3.084a4.753,4.753,0,0,0,1.613-.229l.145,1.846a6.049,6.049,0,0,1-2.335.375c-3.8,0-3.921-3.459-3.921-5.129v-9.02H318.05V55.1h2.419V52.25Z" transform="translate(-234.545 -47.407)" fill="#f5b6c3"/><path d="M370.012,73.5a22.082,22.082,0,0,0,.229,3.746h-2.19l-.233-2.018h-.088a5.461,5.461,0,0,1-4.64,2.362,4.357,4.357,0,0,1-4.582-4.113c-.007-.118-.007-.233,0-.351,0-3.773,3.287-5.821,9.1-5.79,0-1.326,0-4.323-3.573-4.323a6.817,6.817,0,0,0-3.833,1.124l-.577-1.643a8.92,8.92,0,0,1,4.792-1.326c4.437,0,5.591,3.142,5.591,6.253V73.5ZM367.65,69.1c-2.969,0-6.685.432-6.685,3.746a2.611,2.611,0,0,0,2.71,2.909,3.837,3.837,0,0,0,3.975-3.688V69.092Z" transform="translate(-261.348 -53.853)" fill="#f5b6c3"/><path d="M421.759,63.629a6.752,6.752,0,0,0-.864-.057c-2.595,0-3.921,2.564-3.921,5.217v8.53h-2.389V66.311c0-1.67-.03-3.2-.115-4.7h2.1l.115,3.027h.088a4.7,4.7,0,0,1,4.262-3.371,5.65,5.65,0,0,1,.719.088v2.278h0Z" transform="translate(-298.43 -53.92)" fill="#f5b6c3"/></svg>