<svg xmlns="http://www.w3.org/2000/svg" width="166.029" height="62.018" viewBox="0 0 166.029 62.018"><g transform="translate(57 12.658)"><g transform="translate(-57 -9.018)"><text transform="translate(30.531 7.359)" fill="#f5b6c3" font-size="10" font-family="YuGothicUI-Regular, Yu Gothic UI" letter-spacing="0.3em" opacity="0.95"><tspan x="0" y="0">人生の最期を支える</tspan></text><g transform="translate(22.145 16.447)"><path d="M83.961,69.386H70.58V43.77h2.791V67h10.59Z" transform="translate(-70.58 -42.084)" fill="#f5b6c3"/><path d="M122.784,48.266a1.811,1.811,0,0,1-1.815-1.807v-.106a1.833,1.833,0,1,1,3.665-.083v.079a1.784,1.784,0,0,1-1.642,1.913,1.231,1.231,0,0,1-.209,0Zm1.413,21.55h-2.791V51.491H124.2V69.812Z" transform="translate(-101.132 -42.514)" fill="#f5b6c3"/><path d="M148.68,48.465c0-2.287,0-5.279,2.016-7.33a6.048,6.048,0,0,1,4.236-1.646,6.745,6.745,0,0,1,2.724.539l-.468,2.185a5.234,5.234,0,0,0-2.118-.437c-2.89,0-3.6,2.689-3.6,5.649v1.043h4.437v2.185h-4.437V66.79H148.68V50.654h-2.52V48.469h2.52Z" transform="translate(-116.406 -39.488)" fill="#f5b6c3"/><path d="M197.76,79.157a13.249,13.249,0,0,1-5.748,1.142c-5.35,0-8.543-3.764-8.543-9.243,0-5.748,3.228-9.885,8.169-9.885,5.649,0,7.094,5.177,7.094,8.37,0,.638-.035,1.11-.067,1.547H186.2c.035,5.074,2.925,6.988,6.22,6.988a11.588,11.588,0,0,0,4.807-.941l.539,2.016h0Zm-1.783-10.149c.035-2.488-1.008-5.716-4.606-5.716-3.366,0-4.842,3.193-5.11,5.716Z" transform="translate(-139.028 -52.634)" fill="#f5b6c3"/><path d="M279.435,46.342a8.7,8.7,0,0,0-4.5-1.177c-3.563,0-4.909,2.185-4.909,4.035,0,2.52,1.547,3.8,4.976,5.244,4.134,1.748,6.252,3.866,6.252,7.531,0,4.067-2.96,7.192-8.472,7.192a11.794,11.794,0,0,1-6.118-1.614l.776-2.319a10.417,10.417,0,0,0,5.515,1.579c3.429,0,5.445-1.85,5.445-4.606,0-2.52-1.382-4.067-4.708-5.413-3.866-1.445-6.488-3.7-6.488-7.228,0-3.9,3.161-6.755,7.834-6.755a10.428,10.428,0,0,1,5.244,1.209l-.839,2.319h0Z" transform="translate(-189.468 -41.499)" fill="#f5b6c3"/><path d="M320.877,52.381l2.756-.941v4.267h4.74v2.185h-4.74v10.59c0,2.319.7,3.6,2.488,3.6A5.545,5.545,0,0,0,328,71.813l.169,2.153a7.057,7.057,0,0,1-2.724.437c-4.437,0-4.575-4.035-4.575-5.984V57.9H318.05V55.711h2.823V52.385Z" transform="translate(-220.627 -46.735)" fill="#f5b6c3"/><path d="M371.93,75.558a25.758,25.758,0,0,0,.268,4.37h-2.555l-.272-2.354h-.1a6.371,6.371,0,0,1-5.413,2.756,5.083,5.083,0,0,1-5.346-4.8c-.008-.138-.008-.272,0-.409,0-4.4,3.834-6.791,10.621-6.755,0-1.547,0-5.043-4.169-5.043a7.953,7.953,0,0,0-4.472,1.311l-.673-1.917a10.407,10.407,0,0,1,5.59-1.547c5.177,0,6.523,3.665,6.523,7.295v7.094Zm-2.756-5.141c-3.464,0-7.8.5-7.8,4.37a3.046,3.046,0,0,0,3.161,3.393,4.476,4.476,0,0,0,4.638-4.3V70.412Z" transform="translate(-245.155 -52.633)" fill="#f5b6c3"/><path d="M422.973,64.022a7.877,7.877,0,0,0-1.008-.067c-3.027,0-4.575,2.992-4.575,6.086v9.952H414.6V67.152c0-1.949-.035-3.732-.134-5.48h2.453l.134,3.531h.1a5.484,5.484,0,0,1,4.972-3.933,6.592,6.592,0,0,1,.839.1V64.03h0Z" transform="translate(-279.089 -52.695)" fill="#f5b6c3"/></g><g transform="translate(0 -1.459)" opacity="0.85"><path d="M21.352,6.585a.2.2,0,0,0-.039-.075C21.274,6.624,21.352,6.585,21.352,6.585Z" transform="translate(-12.916 -5.301)" fill="#f5b6c3"/><path d="M20.63,9.53l-.02.169.02-.15Z" transform="translate(-12.496 -7.133)" fill="#f5b6c3"/><path d="M19.875,10.648h.02s.1,0,.114-.039h0l-.075-.15h0l.039-.169a.357.357,0,0,0-.169.039h0l.075.15a5.53,5.53,0,0,1-.169.567c.075-.055.114-.244.15-.4h.02Zm.075-.169-.039.13Z" transform="translate(-11.951 -7.593)" fill="#f5b6c3"/><path d="M18.869,13.17h0a.251.251,0,0,1-.039.13c.039-.02,0,.13.055-.13h-.02Z" transform="translate(-11.417 -9.34)" fill="#f5b6c3"/><path d="M18.391,14.28v-.15s-.055.15-.055.1c-.039.15,0,.13.055.055h0Z" transform="translate(-11.108 -9.922)" fill="#f5b6c3"/><path d="M18.589,14.264l-.039.169s.039,0,0-.075v-.1h.039Z" transform="translate(-11.247 -10)" fill="#f5b6c3"/><path d="M18.65,14.659l.02-.055.039-.283-.055.339h0Z" transform="translate(-11.308 -10.037)" fill="#f5b6c3"/><path d="M16.019,17.325s-.1-.055-.02-.075a1.687,1.687,0,0,0-.319.055h.339Z" transform="translate(-9.507 -11.813)" fill="#f5b6c3"/><path d="M15.29,17.466a1.235,1.235,0,0,0,.15-.039A.186.186,0,0,0,15.29,17.466Z" transform="translate(-9.271 -11.919)" fill="#f5b6c3"/><path d="M15.7,17.6s-.169.02-.264.02h.319s.055-.039-.055-.039h0Z" transform="translate(-9.362 -12.013)" fill="#f5b6c3"/><path d="M14.57,17.572a.359.359,0,0,1,.13.02C14.661,17.591,14.57,17.552,14.57,17.572Z" transform="translate(-8.834 -12.005)" fill="#f5b6c3"/><path d="M16.844,17.63a.175.175,0,0,0-.114.039h.114Z" transform="translate(-10.144 -12.044)" fill="#f5b6c3"/><path d="M11.911,17.795s.417.055.264.1c-.244.02-.209,0-.319-.039.1.055-.319.075-.264.15l.209-.039s-.075.039,0,.039c0-.039.228-.075.417-.039.189-.039.055-.169-.1-.244,0,0,0,.039-.189.055h0l-.016.016Z" transform="translate(-7.026 -12.098)" fill="#f5b6c3"/><path d="M12.94,17.635h.437a1.959,1.959,0,0,1-.264-.055c-.13.02-.15.039-.169.055h0Z" transform="translate(-7.846 -12.013)" fill="#f5b6c3"/><path d="M16.553,17.96h-.3l.15.055h0c.169,0,.13-.039.15-.055Z" transform="translate(-9.853 -12.244)" fill="#f5b6c3"/><path d="M12.6,17.6l.039-.055-.169.075.13-.02Z" transform="translate(-7.561 -11.989)" fill="#f5b6c3"/><path d="M11.644,17.619l.02-.039-.114.02.1.02h0Z" transform="translate(-7.003 -12.013)" fill="#f5b6c3"/><path d="M18.639,32.5l-.039.075.075-.1h-.039v.02Z" transform="translate(-11.278 -21.048)" fill="#f5b6c3"/><path d="M8.73,18.17l.039-.02S8.73,18.15,8.73,18.17Z" transform="translate(-5.293 -12.359)" fill="#f5b6c3"/><path d="M16.217,12.021s-.189.189-.114.13l.209-.15h-.055a1.826,1.826,0,0,1,.378-.319c.209-.114.169-.055.264-.114,0,0,.039,0,.114-.075l.453-.319-.339.15c.1-.114.378-.264,0-.075.075-.039.169-.075.264-.13a1.488,1.488,0,0,1-.264-.02V11.06a.616.616,0,0,0-.13-.075c-.055,0-.075,0-.244.075a.126.126,0,0,0-.114-.075.807.807,0,0,0-.378.1h-.642a3.161,3.161,0,0,1-.433.039h0a.31.31,0,0,0-.114-.1.467.467,0,0,0-.283.1c-.1-.055-.453-.02-.583-.114.055.02-.02.039-.13.039-.189-.055-.417-.13-.472-.15a.094.094,0,0,1-.055-.02c-.075-.02-.13,0-.358.15h-.264a2.992,2.992,0,0,1-.417-.039h-.055c-.189-.055-.453-.114-.528-.13v-.079h0a.937.937,0,0,0-.02-.209,4.123,4.123,0,0,0-.075-.492.364.364,0,0,0-.118-.071h-.1l-.039-.075.039-.15a2.194,2.194,0,0,0,.1-.7.32.32,0,0,0-.114-.075c-.075,0-.075-.02-.319.13l-.055-.13V8.97a3.634,3.634,0,0,0-.02-.547.32.32,0,0,0-.114-.075h-.075l.055-.169a2.056,2.056,0,0,0,.189-.716.32.32,0,0,0-.114-.075.386.386,0,0,0-.209.055V7.4a.524.524,0,0,1-.075-.055l-.039-.075c-.189-.358-.228-.417-.228-.433a.174.174,0,0,0-.114-.075h-.114a.191.191,0,0,0-.02-.114.172.172,0,0,0-.1-.075.237.237,0,0,0-.169.039h-.024l.075.15-.075.039-.02-.1c0,.055-.15.4-.228.622a2.3,2.3,0,0,0-.228.756.32.32,0,0,0,.114.075c.055,0,.075.02.339-.13a2.234,2.234,0,0,1-.228.244c-.209.209-.358.378-.492.528l.039-.055v-.1a1.141,1.141,0,0,0-.055.189c-.3.319-.378.433-.4.508a.683.683,0,0,1-.055.15c.02-.039.055-.1.075-.1h0v.02h.02s.055.075.114.075a2.463,2.463,0,0,0,.756-.358c-.13.13-.264.244-.378.378-.378.378-.622.6-.776.776h0l-.15.169v-.071s-.055.15-.1.15h.039c-.075.1-.055.13,0,.189,0,0,.02.039.039.039h0v.055h0v-.039H8.56l-.039.055a.059.059,0,0,0,.055-.039h0s.283-.13,1.189-.642c.4-.228.945-.547,1.075-.6a.1.1,0,0,0,.075-.02.055.055,0,0,0,.039-.02s.039,0,.039.02a.749.749,0,0,0,.055.189l.039-.055a.633.633,0,0,1,.039.228c.13.114-.114-.358,0-.244a.81.81,0,0,0,.055.3c-.13,0-.4.114-3.039,1.6-.642.378-1.378.791-1.905,1.075.114-.13.244-.264.358-.4q.963-1.039.886-1.169a.333.333,0,0,0-.075-.055H7.352s.13-.039-.02-.055h.189a.709.709,0,0,1-.181-.02H6.962a1.622,1.622,0,0,0,.339,0c-.055.039-.209.055-.15.114-.055.02-.13.075-.244.13h-.02c-.15.1-.378.209-.7.4-.228.13-.508.283-.7.4l.055-.209c.13-.547.15-.622.13-.677h.11c.02-.039-.039-.039-.13-.039a.206.206,0,0,0-.075-.055,1.09,1.09,0,0,1,.339-.02c-.114-.055-.055,0-.228-.055.15.1-.6,0-.358.1a.683.683,0,0,0-.15-.055.136.136,0,0,0,0-.169.174.174,0,0,0-.114-.075,2.177,2.177,0,0,0-.508.228H4.525l-.1.055-.075.039a.675.675,0,0,0-.319.039c-.169,0,.039-.02-.075-.055l-.169.039-.15-.039-.114-.075h0a1.886,1.886,0,0,1-.228-.13c-.02,0-.039-.039-.075-.039a.409.409,0,0,0-.244.075l-.075.039a1.14,1.14,0,0,1-.114-.075.171.171,0,0,0-.075-.039.237.237,0,0,0-.169.039H2.505l.039.114H2.47l.1.055H2.529a.089.089,0,0,0,.039.075v.075h.1c.075.039.169.114.339.228.15.1.319.228.378.264.055.055.114.055.209.02.039.02.075.055.114.075a1.943,1.943,0,0,0,.13.339.172.172,0,0,0,.1.075.525.525,0,0,0,.055.13.174.174,0,0,0,.114.075h.114c.055.055.13.13.244.264s.264.283.283.3a.1.1,0,0,0,.1.055.34.34,0,0,0,.228-.075h0l.4.114h.039c-.075.13-.055.169,0,.228a.124.124,0,0,0,.1.067.452.452,0,0,0,.189-.039,6.689,6.689,0,0,0,.661.472q0,.1.039.114a.174.174,0,0,0,.114.075.383.383,0,0,0,.15-.02l.228.283c.075.114.169.209.209.264a.917.917,0,0,0-.055.13c0,.02-.02.039-.02.075-.02.075-.039.169-.055.264h0c-.583.681-.846,1.063-.791,1.15a.32.32,0,0,0,.114.075c.055,0,.075,0,.283-.1,0,.039.039.02.075,0v.13c-.039,0-.055.055-.075.1-.378.283-.339.339-.283.433,0,.039.039.055.075.075a.146.146,0,0,0,0,.15h.02c-.055.169-.13.378-.189.528l-.114.3h0c-.114.3-.114.319-.075.378h0c0,.1-.039.169-.039.3l-.055.039a1.076,1.076,0,0,1-.039.189.279.279,0,0,1-.075.189c-.035.067-.067.138-.1.209a10.171,10.171,0,0,0,.905-.567c.189-.13.4-.264.583-.378a4.35,4.35,0,0,1,.4-.228c-.169-.039.283-.114.244-.209.055,0,.13-.039.055.039.244-.209.433-.228.567-.417.055,0-.039.075,0,.075,0-.02.075-.075.114-.075s-.02.039-.055.1c.264-.189.244-.283.209-.358a.492.492,0,0,0,.3-.228c.055,0,.169-.039,0,.075.1-.055.6-.358.583-.417.039,0,.13-.1.15-.114l.228-.15a.712.712,0,0,0,.114-.075h0a.31.31,0,0,0,.114.1.383.383,0,0,0,.15-.02c.169.15.209.169.264.189l.039.039c.13.13.283.3.3.319a.1.1,0,0,0,.1.055.252.252,0,0,0,.15-.039h0a.771.771,0,0,1-.02.189,2.442,2.442,0,0,0-.055.7.32.32,0,0,0,.114.075l.677-.319.055-.039h0s-.1.039.039.13c0,.02.075.055.13.075-.15.189-.13.209-.075.283a.174.174,0,0,0,.114.075c.075,0,.075.02.4-.15a.691.691,0,0,1,.169.13c-.039-.055-.055-.114.055-.055a1.042,1.042,0,0,1,.228.189,1.708,1.708,0,0,0,.039.547.174.174,0,0,0,.114.075c.075,0,.075.02.492-.209.169.1.4.228.508.283a.508.508,0,0,0,0,.189.174.174,0,0,0,.114.075h.039a.137.137,0,0,0,.114-.039.875.875,0,0,0,.244.169c-.039-.075-.055-.169-.1-.264h.02s.114-.15.055-.228c0-.02-.039-.039-.055-.055h0s.1-.15.055-.228c0-.02-.039-.039-.055-.055a1.566,1.566,0,0,0,.075-.583.174.174,0,0,0-.114-.075c-.055,0-.075,0-.283.1-.02-.055-.02-.075-.039-.075l-.031-.047a2.771,2.771,0,0,0-.13-.358.522.522,0,0,0-.114-.15c0-.075.02-.02.039-.02l-.039-.13c.244-.417.228-.433.189-.508a.174.174,0,0,0-.114-.075.386.386,0,0,0-.209.055c.039-.114.055-.228.1-.319v-.039a.417.417,0,0,0,.055-.13q.114-.417.075-.472a.174.174,0,0,0-.114-.075,1.6,1.6,0,0,0-.417.169,1.506,1.506,0,0,0-.13-.319s.02,0,.039.039a3.205,3.205,0,0,1-.209-.736c0-.055-.039-.114-.039-.169V14.32H13.28v-.039a.927.927,0,0,0,.039-.15h0s.1-.1.075-.15l.4-.283h0c.677-.472,1.378-.905,2.02-1.338H15.7l.228-.169c.075-.02.114,0-.039.1.055,0,.114-.055.169-.114.039-.055.1-.13.1-.13.228-.13.228-.114.15-.039h0l-.075.016Zm.661-.472-.1.055C16.894,11.505,16.879,11.529,16.879,11.549ZM6.95,13.663h0s-.055-.1-.114-.1H6.781v-.1h.055a.074.074,0,0,0,.039.075.126.126,0,0,0,.114.075c.13.039.244,0,2.433-1.283.244-.13.508-.3.756-.433-.283.209-.567.433-.811.642-1.02.811-1.512,1.189-1.736,1.4h0a1.14,1.14,0,0,0-.114-.075s-.039-.039-.055-.039l-.039-.039s-.15-.228-.189-.189a.29.29,0,0,1-.1.319c-.075-.1-.13-.189-.169-.228h0l-.016-.031Zm4.228-3.248a.32.32,0,0,0,.114.075h.075a.558.558,0,0,1,.02.228c.075.189.039-.075.114.114v.055l.039.039h0a.272.272,0,0,0-.1-.039c-.114-.02-.15-.039-2.228,1.169-.283.169-.583.339-.886.508.283-.228.6-.453.886-.661,1.15-.85,1.7-1.283,1.964-1.508h0v.02ZM13.087,13.7v-.055l.319-.209c-.169.13.039.1-.264.264l.1-.15-.169.13h0Zm-.547.378H12.6c-.433.228-1.189.642-2.567,1.433.528-.319,1.075-.661,1.587-.965.528-.319,1-.6,1.413-.87l-.055.039-.055.039-.075.055s-.189.13-.339.228v.039h.039Zm.339,2.1a.32.32,0,0,0,.114.075h.075c-.169.1-.358.209-.6.339l-.264.15a2.376,2.376,0,0,0,.189-.209c.189-.189.319-.339.453-.472,0,.1.02.1.039.114h0Zm-1.228.339s.039.055,0,.055Zm.075,0a.449.449,0,0,0-.075-.039v-.055c.15-.075.4-.228.811-.472l.055-.039c-.13.13-.264.283-.378.4-.13.13-.244.264-.339.358-.055-.075-.075-.114-.075-.15h0Zm-.831-1.039a.094.094,0,0,0-.02-.055h0c.453-.283.886-.528,1.264-.736h0a.128.128,0,0,0,.13,0h0c-.13.075-.339.209-.677.4-.228.13-.492.283-.661.378h0l-.039.02Zm1.791-.756a.094.094,0,0,0-.02-.055c0-.02-.039-.039-.055-.055h0l.055-.039.039.075V14.7h-.02v.02Zm-.059.189c-.1.3-.1.319-.055.378a.126.126,0,0,0,.114.075h.039v.055c-.114.075-.264.15-.433.264-.114.075-.244.15-.378.228a2.667,2.667,0,0,1,.209-.264c.3-.4.453-.6.528-.716h0l-.02-.02Zm.4,1.775a1.411,1.411,0,0,0-.472.209l.075-.039c.15-.1.339-.189.492-.283L13,16.682h.02Zm.339.756a.28.28,0,0,1-.055-.039l.1-.055-.055.1h.016Zm.1-.492s-.244.13-.472.264c.079-.091.157-.181.244-.264l.169-.189s.039.114.055.189h0Zm-1.98-3.208c-1.02.583-2.169,1.244-3.094,1.775.716-.453,1.551-.98,2.3-1.453a43.222,43.222,0,0,0,3.87-2.527h0a.79.79,0,0,0,.339-.13h0s.055.189.075.283v.039c-.756.417-1.886,1.055-3.527,2.02h.035ZM11.6,11.1h0v.13a.074.074,0,0,0-.039-.075C11.556,11.131,11.6,11.112,11.6,11.1Zm-.055.075c.039.1.075.209.114.3h.472c-.433.244-1.039.583-1.925,1.094-.433.244-.905.528-1.338.776.228-.189.492-.378.716-.567a23.98,23.98,0,0,0,1.964-1.61h0Zm2.283.228h-.039a.857.857,0,0,1,.264-.039c-.417.209-1.209.661-2.756,1.567-.677.4-1.472.85-2.153,1.244.319-.209.661-.433.98-.661,1.831-1.228,2.642-1.791,2.98-2.075a3.958,3.958,0,0,0,.716-.039Zm-3.437,1.433c.3-.169.622-.358.945-.547-.472.319-.965.661-1.413.965-1.189.791-1.85,1.244-2.228,1.527v-.039H7.67l.114-.075s0-.02-.039-.039v-.039h.039s.075-.075.075-.13c.15-.189.209-.264.189-.319.339-.169,1-.547,2.327-1.323h0l.016.02Zm-2.87,2.035h0l-.039.039v-.039Zm.114.453a37.943,37.943,0,0,0,3.547-1.964c-.228.15-.453.283-.677.433-1.413.886-2.358,1.492-3,1.886.169-.264.15-.3.114-.358h.02Zm-.4-.1a.1.1,0,0,0,.039.075v.039l-.075.055v-.075l.039-.075h0v-.02Zm-.492,1.964h0l.055-.15s.055.02.055.039v-.169s.02-.114.02-.13c.039,0,.075-.039.114-.055a.292.292,0,0,1,.02-.1c.622-.3,1.905-1.02,4.661-2.622.886-.508,1.886-1.075,2.736-1.567-.905.567-1.98,1.228-2.964,1.811-2.811,1.716-4.114,2.527-4.716,2.945h.02Zm6.964-3.925a1.365,1.365,0,0,1-.1.114l-.039-.039.13-.075h0Zm-3.039,2.6s-.055-.055-.1-.055h-.039l.1-.055v.039a.126.126,0,0,0,.114.075c.1.02.114.02,1.02-.508l.244-.13-.15.209a8.51,8.51,0,0,0-.622.87c-.1-.055-.209-.1-.319-.169-.13-.114.055,0,0-.075l-.114-.039-.15-.15h.02Zm4.889-4.535.075.039h.055l.039-.039h.02l-.417.209-.035-.126a1.174,1.174,0,0,1,.244-.1h0l.016.016ZM12.009,10.9l-.039-.039ZM10.422,6.939h0l-.055.039.039-.075v.039h.02Zm-.228.508c.075-.209.13-.358.169-.472l.039.055s-.039.209-.1.209a.492.492,0,0,1,.1.264l-.169.1-.13.075.1-.228h0ZM10.139,8.5c.189-.189.319-.358.433-.472,0,.02.02.039.039.055,0,.075-.055-.055-.055,0a.538.538,0,0,1,.15.283c-.075,0-.189.075-.791.417H9.875l.264-.264h0V8.5ZM9.666,9.915l-.185.114.264-.264c.508-.508.811-.791.965-.98h.13a2.558,2.558,0,0,1,.1.339v.13h0c-.1-.02-.114-.039-1.264.642h0v.02ZM8.395,11.836c.508-.283,1.055-.6,1.551-.886-.283.228-.6.453-.886.661a13.3,13.3,0,0,0-2.153,1.716.124.124,0,0,1-.055-.055l.055.055v.039a.223.223,0,0,1-.1-.02v-.059a1.843,1.843,0,0,0-.075-.508c.378-.209.925-.508,1.661-.945h0Zm-1.925,0,.264-.15c-.114.114-.209.228-.3.339-.3.319-.508.547-.642.7h-.1v-.035c-.15-.1-.244-.189-.358-.264.1,0,.15,0,1.15-.583h0l-.016-.008Zm-1.681.15c-.13-.169.209.13.114-.02a.281.281,0,0,1-.169-.055l-.13-.055h0s.189-.114.319-.189.283-.169.433-.244l-.055.244c-.114.508-.13.583-.114.642-.039-.039-.1-.055-.13-.1,0-.039-.15-.15-.055-.13a.352.352,0,0,1-.189-.1h-.02Zm-.1.079a1.875,1.875,0,0,1-.209-.075l-.075-.039.15-.075s.264.15.358.209c-.039.039-.114.039-.228,0h0v-.02Zm.567-.98q-.171.083-.508.283c-.169.1-.378.228-.547.3h0l-.059-.165s.228-.114.528-.283l.15-.1H4.86a1.766,1.766,0,0,1,.209-.114h.114l.055.055a.512.512,0,0,0-.244,0,1.488,1.488,0,0,1,.264.02h0Zm-.319,1.453h0L4.9,12.5h0l-.039-.039L4.9,12.5l.075.039H4.934Zm3.547,4.378a.561.561,0,0,1,.169-.1A.409.409,0,0,1,8.485,16.914Zm.358,0s-.02-.02,0-.075l-.039.039c-.114.039-.1-.02-.039-.1l.13-.039s.075-.15.039-.189l-.075.075v-.039l-.075.075H8.67l-.4.209a4.545,4.545,0,0,1-.756.776c.075-.114-.039-.1-.075-.15.15,0,.3-.228.508-.358-.114.075-.114.02-.1,0l-.339.3a.969.969,0,0,0-.228.075c.075,0,0,.075-.075.15a1.366,1.366,0,0,1-.15.114l-.039.039H7l-.039.055v-.051s0-.02.039-.039a.275.275,0,0,1,.114-.075.1.1,0,0,0-.071.035H7.005v.039h-.02a.2.2,0,0,1-.039.075.177.177,0,0,1-.15.13c.039-.02.055-.02.055-.055a.522.522,0,0,1-.15.114c-.039.02-.055,0-.039-.02h.02a2.611,2.611,0,0,0-.319.189v-.13l.13-.075s.189-.114.228-.13h.02s.114-.15.055-.228l-.039-.039c.319-.169.905-.492,2.02-1.114H8.8v.039h0a.163.163,0,0,1,.075.02h.039a.126.126,0,0,0,.075-.02.857.857,0,0,1-.169.189.815.815,0,0,0,.169-.039l-.244.209h0l.1.016Z" transform="translate(-1.498 -5.34)" fill="#f5b6c3"/><path d="M18.7,32.047h.039S18.739,32.027,18.7,32.047Z" transform="translate(-11.338 -20.78)" fill="#f5b6c3"/><path d="M9.659,17.58H9.49a1.178,1.178,0,0,1,.169.039S9.62,17.6,9.659,17.58Z" transform="translate(-5.754 -12.013)" fill="#f5b6c3"/><path d="M5.947,17.7c.114,0,0-.055.075-.039.039-.02-.13,0-.228,0-.1.02-.1.039.13.02h0l.02.02Z" transform="translate(-3.475 -12.055)" fill="#f5b6c3"/><path d="M22.708,6.685l-.1-.075a.545.545,0,0,1,.039.13l.055-.055h0Z" transform="translate(-13.709 -5.362)" fill="#f5b6c3"/><path d="M13.6,12.12l-.039.02h.02Z" transform="translate(-8.222 -8.703)" fill="#f5b6c3"/><path d="M13.493,12.035h.055s-.075-.039-.055-.055C13.438,12.035,13.532,12,13.493,12.035Z" transform="translate(-8.17 -8.618)" fill="#f5b6c3"/><path d="M13.71,11.529h.039a.114.114,0,0,1,.02-.039c-.02,0-.039,0-.055.039Z" transform="translate(-8.313 -8.321)" fill="#f5b6c3"/><path d="M13.6,11.68s0,.02-.039.039C13.58,11.719,13.635,11.719,13.6,11.68Z" transform="translate(-8.222 -8.436)" fill="#f5b6c3"/><path d="M13.57,11.379h.02s0-.02.039-.039a.279.279,0,0,0-.055.039h0Z" transform="translate(-8.228 -8.23)" fill="#f5b6c3"/><path d="M13.38,11.768l.075-.008h0Z" transform="translate(-8.113 -8.485)" fill="#f5b6c3"/><path d="M13.57,11.22h.02l.039-.02-.055.02h0Z" transform="translate(-8.228 -8.145)" fill="#f5b6c3"/><path d="M13.57,11.1s.039-.039.055-.039H13.57Z" transform="translate(-8.228 -8.06)" fill="#f5b6c3"/><path d="M13.509,11.3l-.039.039h0a.042.042,0,0,0,.039-.035h0Z" transform="translate(-8.167 -8.206)" fill="#f5b6c3"/><path d="M13.44,11.36h0l-.02-.02Z" transform="translate(-8.137 -8.23)" fill="#f5b6c3"/><path d="M13.18,11.669a.147.147,0,0,1,.1-.039A.137.137,0,0,0,13.18,11.669Z" transform="translate(-7.991 -8.406)" fill="#f5b6c3"/><path d="M13.33,11.27s.039,0,.039-.02H13.33v.039h0Z" transform="translate(-8.082 -8.175)" fill="#f5b6c3"/><path d="M12.654,11.1a.115.115,0,0,1,.02-.039c-.039.039-.075,0-.15.055h.035s-.039,0-.039.02c.039-.02.075-.02.055,0a.818.818,0,0,0,.228-.13h-.055s-.039.055-.075.055h0l-.016.039Z" transform="translate(-7.591 -8.03)" fill="#f5b6c3"/><path d="M13.23,11.06V11.1h0l.039-.039Z" transform="translate(-8.022 -8.06)" fill="#f5b6c3"/><path d="M13.059,11.154H13c-.039.02-.075,0-.114.055h.059s.02,0,.039-.039h.039l.035-.02Z" transform="translate(-7.816 -8.115)" fill="#f5b6c3"/><path d="M12.94,11.8l.02-.02Z" transform="translate(-7.846 -8.497)" fill="#f5b6c3"/><path d="M13.048,11.59a.924.924,0,0,0-.1.075h.02a.114.114,0,0,0-.039.02.094.094,0,0,0,.055-.02h0l.055-.055h0v-.02Z" transform="translate(-7.84 -8.382)" fill="#f5b6c3"/><path d="M13.225,10.98l.039-.02-.075.02h.039Z" transform="translate(-7.997 -8)" fill="#f5b6c3"/><path d="M13.229,10.92H13.19l-.02.02.055-.02Z" transform="translate(-7.985 -7.975)" fill="#f5b6c3"/><path d="M12.18,9.191l.039-.031H12.18V9.2h0Z" transform="translate(-7.385 -6.908)" fill="#f5b6c3"/><path d="M12.712,10.189V10.15S12.657,10.205,12.712,10.189Z" transform="translate(-7.693 -7.508)" fill="#f5b6c3"/><path d="M12.75,10.161s.02-.039,0-.02h0s.02.008.02.02Z" transform="translate(-7.731 -7.5)" fill="#f5b6c3"/><path d="M10.69,9.315h.055l.114-.075Z" transform="translate(-6.482 -6.957)" fill="#f5b6c3"/><path d="M6.982,4l-.039.039c.039-.02.055-.02.055,0H7s.02.075.039.13l.039-.039v.035c.075-.039,0-.02.055-.075-.075.075.055.055-.039.15,0,0,.039-.039.055-.039h0a.279.279,0,0,1-.039.055h0s.039.02.039.039h0a.185.185,0,0,0,.13.055h0s0,.02.039.039h.039c-.039,0-.039.055-.075.055.055,0,.039,0,.13-.039l-.039.039s.055-.02.075,0c-.039,0-.039.039-.1.055-.055.075.114,0,0,.075.114-.055.039-.055.055-.075.02-.039.075-.039.075-.02,0,0-.114.1-.075.13h0s.039,0,0,.039c.055-.039,0,0,.075-.039H7.439s.13-.055.1,0H7.482s.02,0,0,.02c-.075.055-.039,0-.114,0-.02.02.075,0,0,.039.114-.055,0,.039.1,0l-.039.039h-.02s-.02.075,0,.075c-.02-.02.055-.039.075-.075.075,0-.1.1-.055.114a.042.042,0,0,1,.035-.039h0a.073.073,0,0,1-.043.059c.02.02.039-.039.075-.039-.055.039.039,0,.055,0l-.035.039s.1-.055.075,0l-.075.039h.02l-.055.039s.039,0,.039.02c.039-.02.075-.055.1-.039-.02.02-.039.02-.02.039-.039,0-.075.039-.039,0H7.517V5h.1a.3.3,0,0,1-.1.039h.055s-.039.039-.055.039c0,.02.1,0,.075.02h.02s-.039.075.039.055L7.6,5.2s.075-.075.114-.055c.039,0-.055.039-.075.055.039,0,.114-.039.075,0h0l-.039.039a.21.21,0,0,0-.114.039c.13-.075.055.039.189-.02H7.8s-.02.039-.039.039h.02l.039.039H7.9s-.075.039-.075,0c-.13.1.039,0,0,.075H7.8l-.075.075s.1-.1.15-.1c0,0,0,.02.02,0-.055.02-.039.039-.02.039l-.055.039a.292.292,0,0,0,.1-.02l-.083.079s.075-.055.1-.039c0,.039.02.039.075.039,0,.02-.039,0-.055.039h.039a.272.272,0,0,1,.1-.039c.075-.039-.075.1,0,.055a.059.059,0,0,0-.055.039h.13l-.039.039A.534.534,0,0,1,8.3,5.61l.039-.039h.055a.279.279,0,0,0-.055.039h0a.272.272,0,0,1-.1.039l.039-.039s-.1.039-.13.055h.02l-.075.055h.039V5.76A.633.633,0,0,1,8.36,5.72a.284.284,0,0,0-.15.075c.055-.039-.039,0-.039-.039,0,0-.039.02-.039.039h.075a.124.124,0,0,0-.055.055c.1-.055.075,0,.114,0-.039,0-.075.039-.075,0-.055.055.13-.039.075,0h0c.039,0,.02.039,0,.039h0a.1.1,0,0,0,.13.039h0l-.114.055.319-.1a1.38,1.38,0,0,1-.3.13.019.019,0,0,0,.02.02.61.61,0,0,1,.114-.055c-.075.055-.039.039-.1.1,0,0,.13-.075.13-.055a.917.917,0,0,1-.13.055l.13-.039s-.1.055-.13.075c.02,0,0,.02.02.02h.02s.169-.075.189-.039c-.02,0-.15.055-.15.1a2.912,2.912,0,0,1,.358-.114h0s-.3.114-.378.13c-.02.02-.039.02-.02.039-.02.02-.055,0-.055,0v.039a.212.212,0,0,0,.13-.039h-.1s.209-.075.209-.039a1.061,1.061,0,0,1-.15.075h0s.1,0,.055.039c0,0-.075.055-.039.039a2.076,2.076,0,0,1,.358-.189.466.466,0,0,1-.1.1c-.055.039-.15.055-.189.1h.055s-.055.02-.039.039c.075-.039,0,.039.055-.02.02,0,0,.02,0,.039a.616.616,0,0,1,.189-.055.418.418,0,0,0-.043.035v.1a.081.081,0,0,1-.055.039h.039s-.02,0-.075.039c.039-.02.075,0,.1,0,.055-.039,0-.039-.039-.039a.414.414,0,0,1,.244-.055c.039,0-.055.039-.039.039,0,.055.169-.039.13.02a.591.591,0,0,1-.15.075c-.039,0,0-.039,0-.055h0s-.039.02-.039,0c-.039.039.039.075,0,.13a.074.074,0,0,0,.055-.02h0s.075-.02.075-.039h.075l-.055.039s.039-.039,0-.02c.039,0-.055.075.02.039l.039-.039s.114-.02.1,0c.055-.039,0,0,.055-.055-.075.055-.02-.039-.1.02.075-.055.02-.039.075-.1-.02,0-.039.02-.039,0H9.1v.039H8.99a.114.114,0,0,0,.039-.02H8.99s.055-.055.1-.055h0s.02-.055,0-.055H9.033s-.114-.039-.039-.114c0,0-.039,0-.039-.02h.039s0-.075-.02-.055c.1-.075,0-.075,0-.1h-.15V6.09h0c.075-.075-.114-.02-.055-.1h0V5.956A.059.059,0,0,0,8.714,6H8.675s-.039,0,.039-.055a.36.36,0,0,0-.13,0h0V5.9l.055-.039h-.1a1.025,1.025,0,0,0,.1-.039h-.1s-.075,0-.039-.039c.055-.055-.039-.1,0-.169-.114.075.039-.055-.055,0,.02,0,.039-.039.055-.039-.039,0,.02-.055-.055-.039a.074.074,0,0,0,.055-.02h.039a.9.9,0,0,0-.189.055c.039-.039.02-.039-.039,0,.02,0,.039-.039.055-.039,0,0,0-.075-.055-.039h0a.061.061,0,0,0-.02-.039H8.254s-.039,0,0-.075H8.21c-.1.075.039-.039,0-.039h-.02a.938.938,0,0,0,.13-.1h.02a.141.141,0,0,1-.1,0c.039-.02.1-.039.075-.055.02-.02-.13.02-.075-.039-.02,0-.039.039-.075.039,0,0,.075-.1,0-.055h0a.1.1,0,0,0-.114,0c.15-.1-.13-.02.02-.114l-.039-.039h0a.141.141,0,0,0-.1,0,.055.055,0,0,0,.039-.02q0-.055-.1-.039l.039-.039s.039-.1-.039-.1H7.9S7.97,4.61,7.781,4.7H7.73a.262.262,0,0,0-.1.075s.039-.055.055-.055h0a.127.127,0,0,1,.055-.1c-.039-.055-.039-.15-.075-.209l-.055.055h0l.055-.055c.039-.039-.055,0-.055,0,0-.039.1-.039.075-.055h-.02s-.055.039-.075,0c0-.02.039-.039.039-.039H7.576l-.055.055c.075-.075-.039-.114,0-.13a.107.107,0,0,1-.075-.02s-.055.055-.075.039c.13-.1.02-.055.1-.15-.039.055-.055-.039-.114.055,0-.02.039-.039.055-.075-.075,0-.02-.1-.075-.114l-.055.055.055-.075s-.1.075-.055,0c0,0-.02.039-.039.039a.14.14,0,0,0-.1-.114c-.043-.016-.075-.055-.055-.15,0,.039-.02.039-.039.02l-.055.055V3.748s0-.02-.075.02h0C6.86,3.846,6.8,3.921,6.73,4c.075-.055-.055.13.055.055h0L6.954,4ZM7.95,5.378h-.02C7.986,5.358,7.97,5.378,7.95,5.378Z" transform="translate(-4.081 -3.622)" fill="#f5b6c3"/><path d="M12.837,11s-.02.02,0,.02h0S12.876,10.982,12.837,11Z" transform="translate(-7.778 -8.021)" fill="#f5b6c3"/><path d="M12.98,10.607s.055-.02.039,0C13.075,10.587,12.945,10.607,12.98,10.607Z" transform="translate(-7.867 -7.78)" fill="#f5b6c3"/><path d="M12.51,11.17l.055-.02H12.51Z" transform="translate(-7.585 -8.115)" fill="#f5b6c3"/><path d="M12.2,10.58s-.02,0,0,.02h.02Z" transform="translate(-7.39 -7.769)" fill="#f5b6c3"/><path d="M12.006,10.84l.039-.02-.055.039h.02v-.02Z" transform="translate(-7.27 -7.915)" fill="#f5b6c3"/><path d="M11.875,10.77s-.055,0-.039.02C11.836,10.79,11.875,10.79,11.875,10.77Z" transform="translate(-7.175 -7.884)" fill="#f5b6c3"/><path d="M11.74,10.015h.02l.1-.055-.114.055h0Z" transform="translate(-7.118 -7.393)" fill="#f5b6c3"/><path d="M10.965,9.81s-.02,0-.075.039c0,.039.055-.02.039,0,.02,0,0-.02.039-.039h0Z" transform="translate(-6.603 -7.302)" fill="#f5b6c3"/><path d="M7.93,3.44l-.02.039h.02Z" transform="translate(-4.796 -3.44)" fill="#f5b6c3"/><path d="M7.736,3.545l.039-.055-.055.039h0l.02.02Z" transform="translate(-4.681 -3.47)" fill="#f5b6c3"/><path d="M9.579,8.09l-.039.039h0V8.09Z" transform="translate(-5.784 -6.259)" fill="#f5b6c3"/><path d="M9.44,7.68h0L9.5,7.66Z" transform="translate(-5.724 -5.999)" fill="#f5b6c3"/><path d="M38.375,6.349h0V6.31s-.039.055-.075.055c.039.055.039-.02.055,0h0l.02-.02Z" transform="translate(-23.222 -5.18)" fill="#f5b6c3"/><path d="M37.89,6.09s-.02-.008-.02-.02a.074.074,0,0,0,.02.055V6.086Z" transform="translate(-22.962 -5.035)" fill="#f5b6c3"/><path d="M38.049,6.285s0-.075-.039-.039a.042.042,0,0,1,.039.035h0Z" transform="translate(-23.046 -5.135)" fill="#f5b6c3"/><path d="M37.709,6.209s-.02,0-.039-.039a.279.279,0,0,0,.039.055h0v-.02Z" transform="translate(-22.84 -5.095)" fill="#f5b6c3"/><path d="M37.49,6.209V6.17l.02.055-.02-.02Z" transform="translate(-22.731 -5.095)" fill="#f5b6c3"/><path d="M37.329,6.225s-.039-.039-.039-.055v.055Z" transform="translate(-22.61 -5.095)" fill="#f5b6c3"/><path d="M37.619,6.349s-.02-.039-.039-.039Z" transform="translate(-22.786 -5.18)" fill="#f5b6c3"/><path d="M37.959,6.548a.147.147,0,0,1-.039-.1A.137.137,0,0,0,37.959,6.548Z" transform="translate(-22.992 -5.265)" fill="#f5b6c3"/><path d="M37.77,6.46V6.5h.02A.115.115,0,0,0,37.77,6.46Z" transform="translate(-22.901 -5.271)" fill="#f5b6c3"/><path d="M37.5,6.489s0-.039-.02-.039v.039Z" transform="translate(-22.725 -5.265)" fill="#f5b6c3"/><path d="M37.264,6.854h-.039c.039.039,0,.075.055.15V6.964s0,.039.02.039c-.02-.039-.02-.075,0-.055a.655.655,0,0,0-.15-.209V6.8a.118.118,0,0,1,.075.075h0l.039-.02Z" transform="translate(-22.525 -5.441)" fill="#f5b6c3"/><path d="M37.216,6.615h.039A.124.124,0,0,0,37.2,6.56v.055h.02Z" transform="translate(-22.555 -5.332)" fill="#f5b6c3"/><path d="M37.384,6.57a.145.145,0,0,0,.055.114V6.629s0-.02-.039-.039h0V6.55h0v.039h0l-.02-.02Z" transform="translate(-22.664 -5.326)" fill="#f5b6c3"/><path d="M37.895,6.731V6.77a.094.094,0,0,0-.02-.055h0s-.055-.039-.055-.055a.362.362,0,0,0,.075.1V6.735h0Z" transform="translate(-22.931 -5.392)" fill="#f5b6c3"/><path d="M37.139,6.589,37.1,6.55l.039.055v-.02Z" transform="translate(-22.495 -5.326)" fill="#f5b6c3"/><path d="M37.07,6.639,37.05,6.6v.039Z" transform="translate(-22.464 -5.356)" fill="#f5b6c3"/><path d="M35.128,8.041s-.1-.055-.055-.02l.039.039h.02v-.02Z" transform="translate(-21.259 -6.211)" fill="#f5b6c3"/><path d="M34.639,9.559h0L34.6,9.52v.039Z" transform="translate(-20.979 -7.126)" fill="#f5b6c3"/><path d="M33.99,11.64l.039.039S34.029,11.66,33.99,11.64Z" transform="translate(-20.609 -8.412)" fill="#f5b6c3"/><path d="M36.279,7.27H36.24S36.3,7.309,36.279,7.27Z" transform="translate(-21.973 -5.762)" fill="#f5b6c3"/><path d="M33.31,10.15l.02.02Z" transform="translate(-20.197 -7.508)" fill="#f5b6c3"/><path d="M36.74,6.84l-.02.02h.02Z" transform="translate(-22.264 -5.502)" fill="#f5b6c3"/><path d="M35.634,9.168s-.02-.055,0-.039l-.114-.1.114.13h0Z" transform="translate(-21.537 -6.829)" fill="#f5b6c3"/><path d="M30.631,9.62a.28.28,0,0,1,.055.039h-.1s-.02.039.039.075h0a1.57,1.57,0,0,1,.264.114c-.075-.055.15.02.055-.055.02,0,.02.02.055.039q-.039-.039,0-.039h0a1.4,1.4,0,0,0,.13-.075h-.055l.039-.02c-.055-.055-.02.02-.1-.039.1.039.055-.075.15,0,0,0-.055-.02-.039-.039H31.2s0-.039.02-.02H31.2s.075-.075.039-.15h-.02A.081.081,0,0,0,31.26,9.4h0s-.02-.039,0-.039c.02.02.055,0,.075.039-.02-.055-.02-.039-.1-.114h.039s-.039-.02-.039-.039c.02.039.055.02.1.055.1,0-.039-.1.075-.039-.1-.075-.075,0-.1-.02-.039,0-.055-.055-.039-.055,0,0,.13.055.15.039h0s-.02-.039.039-.02c-.055-.039,0,0-.055-.055v.039s-.1-.1-.039-.1l.039.039s0-.02.02,0c.075.055,0,.039.039.1.039,0-.039-.055.039,0-.1-.075.039-.02-.039-.1l.039.039V9.128l.039.039s.055,0,.055-.039c-.02.039-.055-.02-.1-.039-.039-.075.13.055.15,0h.02c0-.039-.055-.02-.075-.055.055.02,0-.02-.02-.055l.039.039s-.1-.075-.039-.075L31.63,9h.039V8.959c-.039,0-.075-.055-.075-.075.039,0,.039.039.055,0,.02.02.055.055,0,.039l.039.039.039-.039h0l-.039-.075s.039.02.039.039V8.852c.039.02.075.055.075.075V8.868a.042.042,0,0,1,.039.035h0c.039,0-.039-.075,0-.075h0s.075,0,.039-.075l.075.039s-.1-.039-.1-.1c0-.039.055.039.075.039-.02-.039-.075-.1,0-.075v.02h.039a.1.1,0,0,0,.075.1c-.114-.1.039-.055-.1-.15h.039s-.075-.055-.039-.075a.094.094,0,0,1,.055.02V8.533h.02a.449.449,0,0,1-.039-.075c.02,0,0,0,.02.02V8.443s.039.055.02.055c.13.075-.02-.039.075,0h0a.436.436,0,0,0,.114.055.322.322,0,0,1-.15-.1s.02,0,0-.02c.039.039.039,0,.039,0l.055.039A.333.333,0,0,1,32.1,8.4a.349.349,0,0,1,.1.055c.02,0-.075-.039-.075-.075.039,0,.02-.039,0-.075.039,0,.039.039.055.039l-.039-.039h.02s-.055-.039-.055-.055c-.055-.055.114.039.055-.039.02,0,.039.039.055.039a.239.239,0,0,0-.055-.114h.055s-.1-.055-.114-.114h-.039V7.951l.039.039h0a.156.156,0,0,1,.075.055h-.039a.464.464,0,0,0,.1.075h.1a.719.719,0,0,1-.114-.209.627.627,0,0,1,.114.114c-.055-.039,0,.039-.02.055,0,0,.039.02.039.039V8.045s0,.02.039.039c-.1-.075-.039-.075-.055-.1.02.02.055.055.039.055.075.039-.075-.114,0-.075h0c0-.039.02-.039.039,0h0a.082.082,0,0,0,.016-.114c0-.008-.012-.012-.016-.016l.1.1-.189-.264s.209.169.228.228c0,0,.039,0,.02-.02l-.1-.075c.075.055.039.02.114.055a.736.736,0,0,1-.1-.114l.1.1-.055-.114.1.1s.02,0,0-.039h-.039s-.1-.15-.075-.169a.286.286,0,0,0,.13.114,1.265,1.265,0,0,1-.189-.3h.02s.15.228.189.3c.039,0,.039.039.039,0,.039.02.039.039.02.055h.055a.229.229,0,0,0-.075-.13v.1s-.114-.169-.075-.189c.02,0,.075.1.1.114h0s-.02-.1.039-.055c0,0,.075.055.055.02a4.048,4.048,0,0,1-.283-.3,1.02,1.02,0,0,1,.114.055.812.812,0,0,1,.13.169l-.02-.039s.039.055.039.039c-.039-.055.039,0-.039-.055,0-.02.02,0,.039,0a.409.409,0,0,1-.1-.169l.039.039a.149.149,0,0,0,.1-.02.124.124,0,0,1,.055.055V7.376s-.02.02.039.075c-.02-.039,0-.055-.02-.1-.039-.055-.039,0-.039.039a.488.488,0,0,1-.1-.209c0-.039.039.039.039.02.055,0-.055-.15,0-.13a.318.318,0,0,1,.1.13c0,.039-.055,0-.055,0h.039v.039c.039.039.075-.039.13-.02a.074.074,0,0,0-.02-.055h0s0-.055-.039-.055V7.037l.039.055s-.039-.02-.039,0c0-.039.075.055.039-.02l-.039-.039s-.02-.114,0-.1c-.039-.055,0,0-.055-.055.055.075-.055.02.02.1-.055-.055-.039,0-.114-.075,0,0,.039.039,0,.039h0l.02.039c.02.039,0,.055,0,.1,0,0,0-.02-.039-.039v.031s-.055-.055-.055-.1h-.02s-.055,0-.055.02v.055h-.02s0,.1-.1.055c0,0,0,.039-.02.039L32.5,7.1s-.055,0-.039.039c-.1-.075-.075.02-.114.039l.039.039a.367.367,0,0,0-.02.055l.039.039a.089.089,0,0,0-.075.039h0c-.114-.055,0,.114-.075.075h0v.039l-.039-.039h0s0,.02.039.055v.039s0,.039-.055-.02c.02.039,0,.055.055.13h0L32.2,7.6l.055.075a.924.924,0,0,1-.1-.075c.039.075,0,.039.039.114l-.039-.039s.02.055,0,.039c-.075-.039-.1.075-.189.055.114.075-.055,0,0,.055-.02,0-.039-.02-.055-.055,0,.039-.075,0,0,.075-.02,0-.039-.039-.039-.039h0a.115.115,0,0,0-.02-.039.433.433,0,0,0,.114.15q-.039,0,0,.039a.056.056,0,0,1-.055-.055s-.075.02-.02.055h0s-.02,0-.039.039h0v.055h0s0,.02-.075,0l.039.039s-.075,0-.055.039H31.8c-.055-.02-.11-.039-.169-.055V8.061c-.075,0,.055.039.055.075-.039-.02-.075-.055-.1-.055-.039,0,.055.114,0,.1a.056.056,0,0,1,.055.055c0,.02-.114-.02-.055.039h-.02a.089.089,0,0,0,.039.075c-.15-.1,0,.114-.114.02v.039h-.039a.163.163,0,0,0,.02.075.055.055,0,0,1-.039-.02c-.055,0-.055.02,0,.1l-.055-.039s-.114,0-.075.055h0s-.189,0-.039.114v.055a.417.417,0,0,0,.13.055s-.075,0-.075-.02h0a.147.147,0,0,1-.114-.02c-.039.055-.13.1-.169.15l.075.039h0s-.055,0-.039-.02c-.039,0,0,.039.039.055a.08.08,0,0,1-.075-.055h0s.055.055.039.075c-.02,0-.055-.02-.055,0H31l.055.039s-.02.02.055.055c-.114-.039-.1.075-.13.055.039.039,0,.055,0,.075,0,0,.075.039.055.055-.13-.075-.075,0-.169-.039.075.02,0,.055.075.1a.3.3,0,0,1-.1-.039c.02.055-.075.055-.1.114a.089.089,0,0,1,.075.039l-.1-.039s.1.055.02.039c0,0,.039,0,.039.02-.13.039-.039.209-.244.189q.039,0,.039.02h0l.055-.043ZM32.1,8.376s.02.039,0,.02C32.064,8.356,32.1,8.376,32.1,8.376Z" transform="translate(-18.517 -5.526)" fill="#f5b6c3"/><path d="M37.2,7h.039S37.2,6.964,37.2,7Z" transform="translate(-22.555 -5.59)" fill="#f5b6c3"/><path d="M36.693,6.9s-.039-.055,0-.039C36.673,6.8,36.693,6.934,36.693,6.9Z" transform="translate(-22.237 -5.504)" fill="#f5b6c3"/><path d="M37.29,7.23l.02.039.02.02-.039-.055h0Z" transform="translate(-22.61 -5.738)" fill="#f5b6c3"/><rect height="0.02" transform="translate(14.676 1.543)" fill="#f5b6c3"/><path d="M36.72,7.649s.02.02.02,0V7.61h0Z" transform="translate(-22.264 -5.968)" fill="#f5b6c3"/><path d="M37,7.789s-.02,0-.039-.039L37,7.805h0v-.02Z" transform="translate(-22.41 -6.053)" fill="#f5b6c3"/><path d="M37.02,7.979s0-.039-.02-.039C37,7.94,37,8,37.02,7.979Z" transform="translate(-22.434 -6.168)" fill="#f5b6c3"/><path d="M36.155,8.078h0l-.055-.1Z" transform="translate(-21.888 -6.193)" fill="#f5b6c3"/><path d="M36.179,9a.042.042,0,0,1-.039-.035h0c0,.039,0,.02.055.075.039,0-.039-.055,0-.039h-.02Z" transform="translate(-21.913 -6.787)" fill="#f5b6c3"/><path d="M30.519,13.89l-.039.02h.039Z" transform="translate(-18.481 -9.776)" fill="#f5b6c3"/><path d="M30.645,14.019l-.055-.039Z" transform="translate(-18.547 -9.831)" fill="#f5b6c3"/><path d="M34.385,11.049h0l-.055-.039Z" transform="translate(-20.815 -8.03)" fill="#f5b6c3"/><path d="M42.57,32.239l.039-.039S42.57,32.255,42.57,32.239Z" transform="translate(-25.811 -20.878)" fill="#f5b6c3"/><path d="M42.25,32.41l.02-.02-.039.039.02-.02Z" transform="translate(-25.605 -20.993)" fill="#f5b6c3"/><path d="M42.208,32.31s-.055.039-.039,0c-.039.075.02,0,0,.02h0l.039-.039h0Z" transform="translate(-25.559 -20.932)" fill="#f5b6c3"/><path d="M42.269,31.86s-.028.035-.039.055h.02V31.86Z" transform="translate(-25.605 -20.672)" fill="#f5b6c3"/><path d="M42.18,32.135s.039-.055.02-.039A.055.055,0,0,1,42.18,32.135Z" transform="translate(-25.575 -20.813)" fill="#f5b6c3"/><path d="M42.129,31.9V31.86a.28.28,0,0,1-.039.055h0l.039-.02Z" transform="translate(-25.52 -20.672)" fill="#f5b6c3"/><path d="M42.04,32.205l.055-.055Z" transform="translate(-25.49 -20.848)" fill="#f5b6c3"/><path d="M42.14,31.759l.039-.039Z" transform="translate(-25.551 -20.587)" fill="#f5b6c3"/><path d="M42.09,31.685s.02-.055.039-.055l-.039.039v.02Z" transform="translate(-25.52 -20.532)" fill="#f5b6c3"/><path d="M41.94,32.225A.156.156,0,0,1,42,32.15C42,32.17,41.956,32.189,41.94,32.225Z" transform="translate(-25.429 -20.848)" fill="#f5b6c3"/><path d="M41.99,32.089a.115.115,0,0,1,.02-.039h-.02Z" transform="translate(-25.46 -20.787)" fill="#f5b6c3"/><path d="M41.458,32.007v-.039c-.02.055-.055.055-.1.13h0c.02-.039.055-.075.039-.02a1.312,1.312,0,0,0,.13-.228.059.059,0,0,1-.039.055.137.137,0,0,1-.039.1h0Z" transform="translate(-25.078 -20.666)" fill="#f5b6c3"/><path d="M41.82,31.849h0l.02-.039-.039.039Z" transform="translate(-25.344 -20.641)" fill="#f5b6c3"/><path d="M41.765,31.954a.094.094,0,0,1,.02-.055h0V31.86h-.02a.792.792,0,0,0-.055.1s.02-.039.039-.039h0l.02.035Z" transform="translate(-25.29 -20.672)" fill="#f5b6c3"/><path d="M41.825,32.2a.521.521,0,0,0-.055.1h-.02s.028-.039.039-.059h0a.2.2,0,0,1,.039-.075h0V32.2Z" transform="translate(-25.314 -20.854)" fill="#f5b6c3"/><path d="M41.75,32.266v.039h0a.094.094,0,0,1,.02-.055h-.02v.02Z" transform="translate(-25.314 -20.908)" fill="#f5b6c3"/><path d="M41.826,31.775l.039-.055-.055.055h.02Z" transform="translate(-25.35 -20.587)" fill="#f5b6c3"/><path d="M41.8,31.78h0l.02-.02Z" transform="translate(-25.344 -20.611)" fill="#f5b6c3"/><path d="M40.79,31.238s.039-.1,0-.055v.039h0v.02Z" transform="translate(-24.732 -20.255)" fill="#f5b6c3"/><path d="M41.357,31.609V31.57S41.337,31.625,41.357,31.609Z" transform="translate(-25.07 -20.496)" fill="#f5b6c3"/><path d="M39.924,32.154l.039-.039L40.018,32l-.1.15h0Z" transform="translate(-24.204 -20.757)" fill="#f5b6c3"/><path d="M38.746,30.834s.055-.055.055-.039l-.039.055v-.02s-.039.1.02,0v-.039a.909.909,0,0,1,.075-.055c.039-.055,0,0,.02-.055-.039.1-.02,0-.055.075.039-.075,0-.039.039-.114,0,.02,0,.039-.02.02h0v.055a.523.523,0,0,0-.075.055.055.055,0,0,1,.02-.039v.039a.223.223,0,0,1,.02-.1h0v-.035h-.02s-.075.055-.039-.02h-.02v-.039h0c.055-.1-.02-.039-.02-.055v.055h-.075v.039l-.039-.039h0c.039-.114-.075.055-.055-.02h0v-.035h0s0,.02-.039.055h-.02s-.02.039,0-.039c-.02.039-.039,0-.075.1h0a.292.292,0,0,1,.02-.1l-.075.075v-.043h0c.02-.075-.055-.039-.039-.114-.055.114,0-.055-.039.039,0-.02,0-.039.039-.055-.02.02,0-.055-.039,0,0-.02.02-.039.039-.055h0a.114.114,0,0,1,.02-.039c-.035.047-.067.1-.1.15q0-.039-.02,0s0-.055.039-.055c0,0,0-.055-.039,0h-.02s0,.02-.039.039h0s-.02,0,0-.055v.055c-.075.1,0-.075-.039-.039v.039s.039-.15.039-.169v-.02c0-.075-.039.055-.055.075,0-.039.039-.075.039-.1,0-.039-.075.1-.055.039a.074.074,0,0,1-.039.075s0-.114-.02-.039h0s-.039,0-.055.055c.055-.169-.075.055,0-.1h0a.059.059,0,0,0-.055.039v-.031q0-.039-.055.039v-.055s0-.1-.02-.039h0s0-.169-.075,0l-.039.039a.393.393,0,0,0-.039.114V30.33h0v-.1c-.039,0-.055-.075-.1-.1v.075h-.039s0-.075.02-.055c0-.039-.02.039-.039.055a.236.236,0,0,1,.039-.1h0s-.02.075-.039.075v-.047h0v.039s-.02,0-.039.055c.02-.114-.055-.055-.039-.1-.02.039-.039.039-.039.039s0,.075-.02.075c.039-.13,0-.055,0-.169,0,.075-.039,0-.055.114v-.1c-.039.055-.039-.039-.075-.039a.163.163,0,0,1-.02.075v-.1s-.02.114,0,.039v.039c-.039-.1-.13.055-.15-.13v.039s-.039,0-.039.075h0s-.02.169-.039.264c.02-.1,0,.13.039,0v.063c0-.039,0-.055.02-.039h0a.156.156,0,0,0,.055.075v-.02c.02-.075,0,0,0-.1,0,.1.039,0,.02.13,0,0,0-.055.02-.055h0v.075h.02a.127.127,0,0,0,.1-.055h.039l.02-.02a.1.1,0,0,1-.02.075c.039-.039.02-.039.055-.114v.039s0-.055.02-.055a.107.107,0,0,1-.039.1c0,.1.055-.075.039.055.039-.1,0-.055,0-.075,0-.039.039-.075.039-.055,0,0-.039.13,0,.13h0c.02-.055,0,0,.039-.075h-.02s.055-.1.055-.039a.094.094,0,0,1-.02.055h0c-.02.075-.02,0-.055.075,0,.039.039-.055,0,.039.039-.114,0,0,.055-.055v.055h0v.039s-.02.055,0,.02a.292.292,0,0,1,.02-.1c.039-.055-.039.13,0,.114h0a.089.089,0,0,1,.039-.075c0,.055,0-.02.039-.039v.055s.02-.1.02-.055l-.039.055h0v.039h0a.236.236,0,0,1,.039-.1c0,.039-.02.039,0,.039,0,.039-.039.075-.02.02v.039h0l.039-.055s0,.039-.02.039v-.035a.223.223,0,0,1-.02.1l.039-.039v.055s.055-.075.055-.039h0s0,.039.039,0v.075s0-.1.039-.114c.02,0-.02.055-.02.075.02-.039.055-.1.055-.039h0v.039a.267.267,0,0,0-.055.1c.055-.13.039,0,.1-.13v.039h0s.055-.1.055-.055v.02h.039s.039-.02.039-.039v.055c-.055.13.02-.039,0,.055h0a.279.279,0,0,1-.02.114.528.528,0,0,1,.055-.15h0c-.02.055,0,.039,0,.039v-.02a.155.155,0,0,1-.039.1.3.3,0,0,1,.039-.1c0,.039,0,0,.055-.02,0,.02-.02.039-.02.055l.039-.055h0s.039-.039.039-.055c.039-.075-.039.114,0,.039a.279.279,0,0,1-.039.055.311.311,0,0,0,.075-.1v.039a1.061,1.061,0,0,1,.075-.15v-.055h.055l-.039.039h0l-.039.075v-.039l-.055.114h0l-.039.055h0s.114-.13.13-.15a1.061,1.061,0,0,0-.075.15c.02-.055-.039.02-.039,0,0,0,0,.039-.02.039l.055-.055a.094.094,0,0,1-.02.055c.039-.1.039-.055.075-.1a.063.063,0,0,1-.039.055c-.02.075.075-.114.055-.039h0s.02,0,0,.039h0s.039.02.1-.055l-.055.114.169-.264a2.428,2.428,0,0,1-.15.283h0s.039-.114.055-.114c-.039.075,0,.039-.039.114,0,0,.055-.13.075-.114l-.055.114.075-.1a.417.417,0,0,0-.055.13c0-.02,0,0,.02,0h0s.1-.169.114-.15c0,.02-.075.13-.075.15.039-.055.15-.264.189-.3h0s-.15.244-.189.3v.039a.042.042,0,0,1-.035.039h0v.039a1.365,1.365,0,0,0,.1-.114l-.055.055s.114-.169.114-.15a.532.532,0,0,1-.075.13c0-.02.039-.039.039-.02v.039h0s-.039.1,0,.055c.039-.075.15-.3.189-.358a.654.654,0,0,1-.039.114.929.929,0,0,1-.114.189s.02-.039.039-.039c0,0-.039.055-.02.055l.039-.055h0a.836.836,0,0,1,.114-.15v.055s-.02.039,0,.055a.059.059,0,0,1-.039.055v.039c.02-.039.039-.039.055-.055.039-.055,0,0-.02,0a.8.8,0,0,1,.13-.189c.02,0-.02.055,0,.039,0,.02.1-.13.1-.055a.7.7,0,0,1-.075.13c-.02,0,0-.039,0-.039h0s-.02.055-.02.039c-.02.055.039.039.02.075a.279.279,0,0,1,.039-.055h0a.333.333,0,0,0,.055-.075h0l-.217.122Z" transform="translate(-22.44 -19.532)" fill="#f5b6c3"/><path d="M41.6,31.694s.039-.055.02-.039C41.657,31.616,41.562,31.71,41.6,31.694Z" transform="translate(-25.217 -20.542)" fill="#f5b6c3"/><path d="M41.42,32.335v.02l.02-.055-.02.039Z" transform="translate(-25.114 -20.939)" fill="#f5b6c3"/><path d="M41.13,32.12v.02l.02-.039h0Z" transform="translate(-24.938 -20.817)" fill="#f5b6c3"/><path d="M40.882,32.569a.171.171,0,0,0,.02-.039S40.862,32.569,40.882,32.569Z" transform="translate(-24.784 -21.078)" fill="#f5b6c3"/><path d="M40.7,32h0l.055-.1Z" transform="translate(-24.677 -20.696)" fill="#f5b6c3"/><path d="M40.109,32.479V32.44l-.039.075c0,.039.039-.055.02-.02h0l.02-.02Z" transform="translate(-24.295 -21.023)" fill="#f5b6c3"/><path d="M36.98,30.079l-.02-.039v.039Z" transform="translate(-22.41 -19.568)" fill="#f5b6c3"/><path d="M38.8,32.065l.02-.055-.039.055Z" transform="translate(-23.513 -20.763)" fill="#f5b6c3"/><path d="M21.086,46.68v.02h.039S21.07,46.7,21.086,46.68Z" transform="translate(-12.783 -29.657)" fill="#f5b6c3"/><path d="M20,44.469h.169c.039,0,.1,0,.055.02h.169c-.1,0,0-.02-.1,0h.079s.039-.02,0-.02h0s-.075-.039,0-.055h.039s.039,0,0-.02c.114,0,.02-.02.039-.039H20.4l-.039-.02H20.3a.042.042,0,0,0,.039-.035h0c.114,0-.075-.02,0-.039h-.13c.1,0,0-.039.1-.055h.039c-.039,0,.055,0-.039-.02H20.27s.039-.02-.039-.02h-.047s-.039,0,.039-.02h-.055c-.114,0,.075,0,.02-.02h-.039a.6.6,0,0,0,.169-.02h.039s-.13-.02-.055-.039h-.075s.114-.02,0-.02h-.075c.189-.02-.1-.02.075-.039h0a.139.139,0,0,0-.075-.039h.039c.039,0,.02-.02-.055-.02h.055s.1-.039.02-.039h.02c-.075,0,.15-.055-.055-.039H20.01s.055-.02.075,0h0c.114,0,.039-.02.114-.02,0-.02.055-.055.039-.1h-.13c.114-.02.039-.055.075-.055h-.114c.15,0,.055-.02.169-.039-.075,0-.02-.02-.114,0h.1c-.055,0,.039-.039,0-.055h.02s-.114,0-.039-.039h-.055s-.1-.055.075-.114h-.114l.075-.039h-.075l-.283.055c.1,0-.13.039,0,.039H19.81l-.055.055h0l.1-.02c-.114.02,0,.039-.114.055h.02s0,.039.055.039h.02s-.02,0,0,.02h0c-.1.02.1,0-.039.039.114,0,.055-.02.1-.02h.075s-.15.02-.15.039h-.055s-.055.039,0,.039a.292.292,0,0,0,.1-.02c.075,0-.13.02-.114.039H19.8s.039,0,0,.02h0a.525.525,0,0,1-.075.02c-.02,0,.1,0,.055.02h.02s-.055.02,0,.02H19.66c.15,0,0,.02.169,0h.1s0,.02-.039.02h-.039c-.15,0,.039,0-.055.02h-.02a.387.387,0,0,0-.114.02.61.61,0,0,1,.169,0h-.016l.055.02h.075c.075,0-.114.02-.02.02H19.81s.209.039.244.039h-.169c.075,0-.039,0,0-.02h.02a.163.163,0,0,0-.075.02H19.9s0,.039.1.039h.189s-.283.02-.319.02h-.13a.74.74,0,0,0,.13.02h.358a.471.471,0,0,0-.13.02h-.039s-.039.02-.039.039h.15s.169,0,.1.039H20.1c-.055,0,0,.039-.055.039h0l-.028.268Z" transform="translate(-11.92 -27.675)" fill="#f5b6c3"/><path d="M20.66,46.21l.055-.02H20.66Z" transform="translate(-12.527 -29.36)" fill="#f5b6c3"/><path d="M0,32.846l.02.02L0,32.83v.02Z" transform="translate(0 -21.26)" fill="#f5b6c3"/><path d="M.1,32.769h0v.039s.02-.055.039-.039C.1,32.694.139,32.769.1,32.769Z" transform="translate(-0.061 -21.203)" fill="#f5b6c3"/><path d="M.53,33.086l.02.039a.094.094,0,0,0-.02-.055h0v.02Z" transform="translate(-0.321 -21.405)" fill="#f5b6c3"/><rect height="0.055" transform="translate(0.122 11.586)" fill="#f5b6c3"/><path d="M.64,33.186v.039L.62,33.17l.02.02h0Z" transform="translate(-0.376 -21.466)" fill="#f5b6c3"/><path d="M.72,33.154a.525.525,0,0,1,.02.075V33.17H.72v-.02Z" transform="translate(-0.437 -21.454)" fill="#f5b6c3"/><path d="M.53,33.02s0,.039.02.039V33.02Z" transform="translate(-0.321 -21.375)" fill="#f5b6c3"/><path d="M.33,32.68a.4.4,0,0,1,.02.1A.22.22,0,0,0,.33,32.68Z" transform="translate(-0.2 -21.169)" fill="#f5b6c3"/><path d="M.64,32.98v-.02H.62v.02Z" transform="translate(-0.376 -21.339)" fill="#f5b6c3"/><path d="M.64,32.37l.02.039c-.02-.055,0-.075-.039-.15V32.3a.73.73,0,0,0,.1.228v-.059a.137.137,0,0,1-.039-.075h0l-.039-.02Z" transform="translate(-0.376 -20.914)" fill="#f5b6c3"/><path d="M.77,32.92h0s0,.02.039.055V32.92Z" transform="translate(-0.467 -21.314)" fill="#f5b6c3"/><path d="M.659,32.744A.175.175,0,0,0,.62,32.63v.055a.114.114,0,0,0,.02.039h0v.039h0Z" transform="translate(-0.376 -21.139)" fill="#f5b6c3"/><path d="M.33,32.529a.449.449,0,0,1,.039.075A.21.21,0,0,0,.33,32.49h0v.055h0v-.02Z" transform="translate(-0.2 -21.054)" fill="#f5b6c3"/><path d="M.81,32.946l.02.039L.81,32.93v.02Z" transform="translate(-0.491 -21.321)" fill="#f5b6c3"/><path d="M.86,32.92l.02.039v-.02Z" transform="translate(-0.521 -21.314)" fill="#f5b6c3"/><path d="M2.06,32.54s.055.1.039.039V32.54Z" transform="translate(-1.249 -21.084)" fill="#f5b6c3"/><path d="M1.332,32.707s.008.02.02.02C1.351,32.707,1.312,32.671,1.332,32.707Z" transform="translate(-0.804 -21.176)" fill="#f5b6c3"/><path d="M1.87,31.19v.039l.055.13Z" transform="translate(-1.134 -20.266)" fill="#f5b6c3"/><path d="M2.843,30.276s-.075-.169-.114-.264c.02.1-.075-.114-.039,0v-.02h0a1.025,1.025,0,0,1-.1-.039h0c.02.075.02,0,.039.075-.039-.1-.055,0-.1-.1,0,0,.02.055,0,.055h0s-.039-.039-.039-.055h-.02a.1.1,0,0,0-.075.1h0s-.02,0-.039.039h0v.039a.255.255,0,0,1-.039-.075.359.359,0,0,0,.02.13V30.2c0-.039-.039-.055-.039-.1-.055-.075,0,.1-.055-.02.039.114.039.055.039.075,0,.039.02.075,0,.075,0,0-.055-.13-.075-.114h0s0,.039-.02,0c.02.055,0,0,0,.075h0s.02.1,0,.055V30.19h0c-.039-.075,0-.02,0-.1,0-.039,0,.055-.02-.02.039.114-.02,0,0,.075h0l-.039-.055s-.039-.039-.039,0c.02,0,.039.055.055.1,0,.075-.055-.114-.075-.075l.039.039-.039-.039a.524.524,0,0,1,.02.075c-.039-.055,0,.02,0,.055v-.059h-.02V30.15s-.02.039-.039.02c0,.039.039.1.02.1,0-.02,0-.039-.02-.039,0-.039-.02-.075,0-.02V30.17H1.992v.055a.733.733,0,0,1-.039-.1v.059s-.039-.039-.039-.055c-.02-.02,0,.1-.02.055h0s-.055-.02-.039.039l-.039-.075s.055.075.039.114c0,.02-.039-.055-.039-.075,0,.039.02.114,0,.055h0V30.21a.349.349,0,0,0-.055-.1c.055.13-.039.039.02.169H1.76v-.035s.039.1,0,.1a.075.075,0,0,1-.02-.039v.039h-.02V30.4s-.02-.075,0-.075c-.075-.13,0,.039-.055-.039h0c-.039-.1-.039-.055-.075-.114,0,.02.075.114.075.15h0c-.02-.055-.02-.039-.02-.039V30.3a.521.521,0,0,1-.055-.1.732.732,0,0,1,.039.1c-.02-.02-.02,0,0,.055a.071.071,0,0,0-.016-.055v.055h0a.367.367,0,0,1,.02.055c.02.075-.055-.1-.039,0a.094.094,0,0,0-.02-.055v.114l-.039-.039s.039.114.055.15l.039.055v.039a.094.094,0,0,0-.02-.055h0l-.039-.075v.039a.279.279,0,0,0-.02-.114h0l-.039-.055h0v.224c0-.055-.039-.1-.055-.15.039.055,0-.039.02-.02l-.02-.039V30.5a.069.069,0,0,0-.039-.059c.039.1,0,.075,0,.114,0-.039-.02-.075,0-.055-.039-.075.039.13,0,.055h0c0,.039,0,0-.02,0h0s-.055,0-.02.1l-.039-.114.075.3a2.242,2.242,0,0,1-.114-.283h0a.61.61,0,0,1,.055.114L1.3,30.556s.055.13.039.13a.645.645,0,0,0-.055-.13l.039.114s-.039-.1-.055-.13h0s.039.189.02.189c0-.02-.055-.15-.075-.15,0,.055.1.283.1.339h0s-.1-.283-.114-.358c0-.02,0-.039-.02-.039v-.059H1.138a.21.21,0,0,0,.039.114V30.5s.055.189.039.189a.683.683,0,0,0-.055-.15h0s0,.1-.02.039c0,0-.039-.075-.039-.039.039.075.13.319.15.378,0,0-.055-.075-.075-.1-.039-.055-.039-.15-.075-.189v.055s-.02-.055-.02-.039c.02.075-.02,0,0,.055,0,.02,0,0-.02,0,.02.039.055.15.039.169a.094.094,0,0,0-.02-.055c-.02,0-.039-.039-.055-.02a.279.279,0,0,0-.039-.055v.039l-.02-.075v.1c.02.055.02,0,.02-.02a.514.514,0,0,1,.055.228c0,.02-.02-.055-.02-.039-.039,0,.039.15,0,.1a.683.683,0,0,1-.055-.15c0-.02.039.039.039.02H.988V30.9c-.02-.039-.055,0-.1-.039v.055H.918a.137.137,0,0,0,.02.075h0c0,.039-.055-.075-.02,0v.039s.039.1.02.1c.02.055,0,0,.039.055-.039-.1.039,0,0-.1a.484.484,0,0,0,.055.1V31.15h0v-.134a.733.733,0,0,1,.039.1h0s.039.039.039,0h0v-.039h0s0-.075.055,0v.02s.055.039.039,0c.055.1.039,0,.075.02v-.13s.028.012.035,0h0c.055.1,0-.1.055-.02H1.41l-.02-.039v-.039s0-.039.039.055a.471.471,0,0,0-.02-.13h0v-.02a.436.436,0,0,1,.055.114v-.075s0-.055.02-.02c.039.075.055,0,.114.055-.055-.114.039.039,0-.039,0,.02.02.039.039.075,0-.039.039.039.02-.039a.074.074,0,0,0,.02.055h0v.035a.851.851,0,0,0-.055-.169c.02.039.02.02,0-.02,0,.02.039.055.02.055,0,0,.055.02.02-.039h.02v-.035h0s0-.02.055.039v-.039c-.055-.1.02.055.02,0h0s.075.114.1.114v.02c.039.055-.02-.055,0-.075a.236.236,0,0,0,.039.1c0,.02-.02-.114.02-.055a.139.139,0,0,0-.039-.075s.075.1.039,0h0v-.079c.075.169,0-.1.075.055h.02v-.039c.039.02.039,0,.02-.075v.055s.1.055.075,0h0s.114.13.039-.039V30.6l-.055-.114s.039.039.039.055h0s.039,0,.055.075c.039-.02.1,0,.13,0l-.039-.075h0s.02.055,0,.055c.02.039,0-.039,0-.055.039.02.02.1.039.1h0v-.079l.02.039h.02l-.039-.055v-.059c.055.1.075,0,.1.039v-.055s-.039-.075-.02-.075c.055.13.039.055.1.15-.039-.055.02-.02-.02-.114a.2.2,0,0,0,.039.075c0-.055.055,0,.075,0a.263.263,0,0,1-.02-.075l.055.075s-.039-.1,0-.039v-.039s.055-.114.169.039c-.02-.039,0-.039,0-.039h0s.039,0,.02-.075h0l.055-.094Z" transform="translate(-0.54 -19.502)" fill="#f5b6c3"/><path d="M.78,32.567s0-.02-.02,0Z" transform="translate(-0.461 -21.095)" fill="#f5b6c3"/><path d="M.72,32.26v-.02l.02.055-.02-.039Z" transform="translate(-0.437 -20.902)" fill="#f5b6c3"/><path d="M1.44,31.96h0l.039.1Z" transform="translate(-0.873 -20.732)" fill="#f5b6c3"/><path d="M1.531,31.23a.114.114,0,0,0,.02.039c0-.02,0,0-.02-.075-.02-.02.02.055,0,.039Z" transform="translate(-0.925 -20.266)" fill="#f5b6c3"/><path d="M5.94,31.1l.02.02Z" transform="translate(-3.602 -20.211)" fill="#f5b6c3"/><path d="M2.97,30.57h0l.039.055Z" transform="translate(-1.801 -19.89)" fill="#f5b6c3"/></g><text transform="translate(22.145 56.377)" fill="#f5b6c3" font-size="5" font-family="InkFree, Ink Free" letter-spacing="0.4em"><tspan x="0" y="0">Let&apos;s live like ourselves today.</tspan></text></g></g></svg>