<svg xmlns="http://www.w3.org/2000/svg" width="57" height="51.861" viewBox="0 0 57 51.861">
  <g id="グループ_3275" data-name="グループ 3275" transform="translate(-43.692 -2985)">
    <g id="upload" transform="translate(53.707 2985)">
      <path id="パス_2849" data-name="パス 2849" d="M18.545,10.871a1.273,1.273,0,0,0-1.808,0L10.37,17.237a1.278,1.278,0,0,0,1.808,1.808l4.189-4.2V30.237a1.273,1.273,0,0,0,2.546,0V14.843l4.189,4.2a1.278,1.278,0,1,0,1.808-1.808Z" transform="translate(-2.985 0.401)" fill="#d8d8d8"/>
      <path id="パス_2850" data-name="パス 2850" d="M32.921,5H6.33a1.274,1.274,0,1,0,0,2.546H32.921a1.274,1.274,0,1,0,0-2.546Z" transform="translate(-5 -5)" fill="#d8d8d8"/>
    </g>
    <text id="もくじ_へ戻る" data-name="もくじ へ戻る" transform="translate(43.692 3033.861)" fill="#9e9e9e" font-size="10" font-family="SourceHanSans-Bold, Source Han Sans" font-weight="700"><tspan x="0" y="0">もくじ </tspan><tspan y="0" font-size="8">へ戻る</tspan></text>
  </g>
</svg>
