<svg id="Capa_1" enable-background="new 0 0 511.999 511.999" height="512" viewBox="0 0 511.999 511.999" width="512" xmlns="http://www.w3.org/2000/svg"><path id="XMLID_2096_" d="m435.023 256.814c0-49.436-40.076-89.512-89.512-89.512-2.702 0-5.37.141-8.01.375-14.082-30.967-45.266-52.51-81.501-52.51s-67.419 21.544-81.501 52.51c-2.641-.234-5.309-.375-8.01-.375-49.436 0-89.512 40.076-89.512 89.512z" fill="#fff"/><path id="XMLID_2025_" d="m277.373 461.999h-42.747c-103.09 0-186.662-83.571-186.662-186.662v-18.524h416.07v18.524c.001 103.091-83.571 186.662-186.661 186.662z" fill="#cee3ff"/><path id="XMLID_2024_" d="m187 461.999h138v40h-138z" fill="#9bc6ff"/><path id="XMLID_586_" d="m464.035 246.814h-19.513c-5.031-50.193-47.515-89.512-99.011-89.512-.662 0-1.328.008-2 .022-17.291-31.899-50.92-52.157-87.512-52.157s-70.221 20.258-87.512 52.157c-.672-.015-1.337-.022-2-.022-51.496 0-93.979 39.319-99.011 89.512h-19.512c-5.523 0-10 4.478-10 10v18.523c0 88.396 58.626 163.35 139.035 188.041v38.621c0 5.522 4.477 10 10 10h138c5.523 0 10-4.478 10-10v-38.621c80.409-24.692 139.035-99.646 139.035-188.041v-18.523c.001-5.523-4.476-10-9.999-10zm-149.035 245.185h-118v-23.626c12.183 2.37 24.76 3.626 37.626 3.626h42.747c12.866 0 25.443-1.256 37.626-3.626v23.626zm139.035-216.662c0 97.412-79.25 176.662-176.662 176.662h-42.747c-97.412 0-176.662-79.25-176.662-176.662v-8.523h152.22c5.523 0 10-4.478 10-10s-4.477-10-10-10h-122.556c4.936-39.136 38.406-69.512 78.86-69.512 2.242 0 4.573.11 7.126.337 4.223.367 8.23-1.959 9.987-5.821 12.887-28.339 41.305-46.65 72.398-46.65s59.511 18.312 72.398 46.65c1.757 3.862 5.756 6.19 9.987 5.821 2.553-.227 4.884-.337 7.126-.337 40.454 0 73.924 30.375 78.86 69.512h-124.185c-5.523 0-10 4.478-10 10s4.477 10 10 10h153.85z"/><path id="XMLID_588_" d="m272.736 58.789c0 8.814-3.432 17.102-9.665 23.335-1.953 1.952-4.512 2.929-7.071 2.929s-5.119-.977-7.071-2.929c-3.905-3.905-3.906-10.237 0-14.143 2.456-2.455 3.808-5.72 3.808-9.192s-1.352-6.736-3.808-9.191c-12.866-12.867-12.866-33.803 0-46.67 3.905-3.903 10.237-3.904 14.142 0 3.905 3.905 3.906 10.236 0 14.143-5.069 5.068-5.069 13.316 0 18.385 6.233 6.232 9.665 14.519 9.665 23.333z"/><path id="XMLID_589_" d="m368.668 103.598c-1.953 1.952-4.512 2.929-7.071 2.929s-5.119-.977-7.071-2.929c-3.905-3.905-3.906-10.236 0-14.143 5.069-5.068 5.069-13.316 0-18.385-12.866-12.867-12.866-33.803 0-46.67 3.904-3.903 10.237-3.904 14.142 0 3.905 3.905 3.906 10.236 0 14.143-5.069 5.068-5.069 13.316 0 18.385 12.866 12.867 12.866 33.803 0 46.67z"/><path id="XMLID_590_" d="m157.475 103.598c-1.953 1.952-4.512 2.929-7.071 2.929s-5.119-.977-7.071-2.929c-3.905-3.905-3.906-10.236 0-14.143 5.069-5.068 5.069-13.316 0-18.385-12.867-12.867-12.867-33.803 0-46.67 3.905-3.904 10.237-3.904 14.143 0 3.905 3.905 3.905 10.237 0 14.143-5.069 5.068-5.069 13.316 0 18.385 12.865 12.867 12.865 33.803-.001 46.67z"/><path id="XMLID_591_" d="m255.19 246.809c-2.64 0-5.22 1.07-7.07 2.931-1.87 1.859-2.93 4.439-2.93 7.079 0 2.631 1.06 5.2 2.93 7.061 1.85 1.87 4.43 2.93 7.07 2.93 2.63 0 5.21-1.06 7.07-2.93 1.86-1.86 2.93-4.43 2.93-7.061 0-2.64-1.07-5.22-2.93-7.079-1.861-1.861-4.441-2.931-7.07-2.931z"/></svg>