<svg xmlns="http://www.w3.org/2000/svg" width="136.161" height="119.748" viewBox="0 0 136.161 119.748"><g transform="translate(0.007 -0.001)"><path d="M99.492,4.016a56.647,56.647,0,0,1,11.036,5.573,57.446,57.446,0,0,1,25.453,42.827,57.448,57.448,0,0,1-18.3,46.338c-9.49,8.64-21.735,13.834-34.29,16.488-16.242,3.434-33.373,1.137-48.673-5.049-12.983-5.25-26.639-12.217-32.1-25.94C-.712,75.881-.692,66.4,1.655,57.7s6.91-16.676,12.374-23.84C25.1,19.352,40.357,7.72,57.9,2.675A66.885,66.885,0,0,1,99.492,4.016Z" transform="translate(0 0)" fill="#fdcfcf"/><g transform="translate(13.798 14.718)"><g transform="translate(28.762)"><g transform="translate(47.973 46.382)"><path d="M693.424,481.346c-.238,3.317,2.211,6.378,5.215,7.8a11.94,11.94,0,0,0,12.1-1.246A11.646,11.646,0,0,0,715,476.542a11.368,11.368,0,0,0-8.507-8.6Z" transform="translate(-693.408 -467.94)" fill="#fff"/><g transform="translate(0.099 1.119)"><path d="M711,477.521c4.079,3.142,5.016,9.122,2.758,13.616a10.913,10.913,0,0,1-12.352,5.668,10.572,10.572,0,0,1-6.256-4.678c-.35-.576-1.259-.05-.906.53a11.609,11.609,0,0,0,13.84,4.822,12.315,12.315,0,0,0,7.829-13.137,11.608,11.608,0,0,0-4.383-7.727c-.535-.411-1.058.5-.53.906Z" transform="translate(-694.169 -476.511)" fill="#201d29"/><path d="M805.572,513.472c1.778.6,2.192,2.852,2.015,4.488a7.293,7.293,0,0,1-2.752,4.89c-.529.419.218,1.158.742.742a8.272,8.272,0,0,0,3.092-6.057c.094-2.046-.725-4.368-2.817-5.075-.641-.217-.917.8-.279,1.012h0Z" transform="translate(-790.227 -507.739)" fill="#201d29"/><path d="M724.247,584.922A8,8,0,0,0,732.9,587.5c.638-.212.364-1.225-.279-1.012a6.986,6.986,0,0,1-7.632-2.312c-.418-.53-1.156.217-.742.742Z" transform="translate(-720.214 -569.963)" fill="#201d29"/><path d="M753.6,563.684a3.511,3.511,0,0,0,2.647,1.423c.675.039.673-1.011,0-1.05a2.371,2.371,0,0,1-1.74-.9c-.4-.529-1.318-.007-.906.53Z" transform="translate(-745.747 -551.649)" fill="#201d29"/></g></g><path d="M344.964,707.63l3.75-14.42,2.482-15.82a21.369,21.369,0,0,0-16.684,8.482c-3.708,5.192-6.34,15.668-7.632,21.758h18.085Z" transform="translate(-326.765 -603.66)" fill="#8fcbe3"/><path d="M327.013,706.6c1.951-9.938,4.5-20.677,13.378-26.467a17.559,17.559,0,0,1,8.64-2.933c.637-.034.641-1.029,0-.995a20.236,20.236,0,0,0-14.12,7.492c-3.87,4.592-6.022,10.327-7.45,16.09-.559,2.255-1.018,4.531-1.461,6.811h1.013Z" transform="translate(-326 -602.628)" fill="#201d29"/><path d="M716.837,698.779h18.015c-1.166-5.767-3.912-17.494-7.907-23.087a21.37,21.37,0,0,0-16.684-8.482l2.482,15.82,4.1,15.749Z" transform="translate(-660.087 -594.809)" fill="#8fcbe3"/><path d="M717.779,667.038a17.547,17.547,0,0,1,8.64,2.933c9.273,6.049,11.643,17.5,13.637,27.8h1.012c-.525-2.724-1.052-5.448-1.72-8.14-1.428-5.763-3.58-11.5-7.45-16.09a20.23,20.23,0,0,0-14.12-7.492c-.641-.034-.637.961,0,.995Z" transform="translate(-666.207 -593.795)" fill="#201d29"/><path d="M564.114,609.222H550.008L548.2,587.37l17.26-2.81Z" transform="translate(-519.187 -522.951)" fill="#fff"/><path d="M480.373,681.678c-.209-3.639-.346-6.633-.364-8.469-.054-5.37-.323-9.673-1.464-13.211a15.373,15.373,0,0,0-6.778-8.649c-1.513-.96-5.9-2.277-8.125-3.04,0,0-.4,13.744-7.854,13.744s-7.858-14.513-7.858-14.513c-12.9,4.426-14.646,12.6-15.21,25.183l-.021.452c-.094,2.076-.264,5.04-.479,8.5h48.15Z" transform="translate(-418.351 -577.707)" fill="#fdcfcf"/><g transform="translate(1.065)"><path d="M429.387,189.489c2.768,15.773-.739,29.569-20.873,33.1s-28.13-8.242-30.9-24.015c-1.1-6.288-2.1-12.793.415-18.1a27.7,27.7,0,0,1,43.88-8.794c4.682,4.223,6.288,11.037,7.476,17.806Z" transform="translate(-370.933 -157.639)" fill="#fff"/><path d="M403.591,147.443a54.5,54.5,0,0,0-4.561-14.869,24.72,24.72,0,0,0-12.279-12.083,2.554,2.554,0,0,0-.863-.189,9.134,9.134,0,0,0-6.113-5,31.055,31.055,0,0,0-12.022-.821,27.625,27.625,0,0,0-17.78,9.523c-5.8,5.073-9.05,13.017-9.737,20.6-.612,6.766.453,13.578,1.931,20.165a3.019,3.019,0,1,0,5.947-1.043c-.6-2.656-1.127-5.326-1.5-8.024-.178-1.282-.319-2.57-.415-3.861a2.544,2.544,0,0,0,.43.055,28.431,28.431,0,0,0,16.85-5.122,3.047,3.047,0,0,0,3.975,1.349,21.789,21.789,0,0,0,5.7-4.614c.039.05.061.127.12.148a7.109,7.109,0,0,0,6.381-.9c4.232-3.081,5.088-6.685,6.044-11.857l.1.106c4.627,1.912,6.284,2.29,8.338,6.714,1.075,2.315,5.028,13.86,6.12,17.832.42,1.529,4.962.663,4.7-.825-.345-1.961-.887-4.554-1.367-7.29Z" transform="translate(-339.29 -114.039)" fill="#fff"/><g transform="translate(0.706 34.549)"><path d="M347.564,456.369a8.606,8.606,0,0,0-4.073-.048c-2.383.511-4.317,1.755-3.86,3.841,1.021,4.331,6.206,9.132,11.506,7.288a1.753,1.753,0,0,0,.871-1.1,27.151,27.151,0,0,1-4.446-9.986Z" transform="translate(-339.564 -445.812)" fill="#fff"/><path d="M780.431,380.031c-.282-2.118-2.67-2.981-5.086-2.649a8.01,8.01,0,0,0-4.193,1.828,16.423,16.423,0,0,1,.107,6.256,22.112,22.112,0,0,1-.919,3.789c.513.88,1.106,1.521,1.754,1.547,5.612-.072,8.851-6.352,8.336-10.772Z" transform="translate(-714.094 -377.312)" fill="#fff"/></g><g transform="translate(11.603 29.582)"><g transform="translate(7.764)"><ellipse cx="1.909" cy="2.37" rx="1.909" ry="2.37" transform="translate(24.391 5.276) rotate(-8.26)" fill="#201d29"/><ellipse cx="1.909" cy="2.37" rx="1.909" ry="2.37" transform="translate(1.881 8.544) rotate(-8.26)" fill="#201d29"/><path d="M666.742,342.335c-.225.093-.535-.154-.964-.436-.055-.035-.111-.072-.166-.111s-.123-.07-.184-.11c-.119-.081-.262-.146-.4-.226a5.948,5.948,0,0,0-1.963-.618c-.158-.013-.312-.042-.456-.043-.072,0-.145-.014-.213-.016s-.134,0-.2,0c-.513-.014-.909.009-1.039-.195-.061-.1-.038-.236.077-.413a1.412,1.412,0,0,1,.1-.138,1.447,1.447,0,0,1,.144-.133,1.894,1.894,0,0,1,.4-.266c.078-.04.163-.081.252-.121a2.721,2.721,0,0,1,.286-.1,3.41,3.41,0,0,1,.655-.125,3.949,3.949,0,0,1,2.841.893,3.319,3.319,0,0,1,.465.478c.064.084.128.158.18.242s.1.166.137.243a1.9,1.9,0,0,1,.172.445,1.278,1.278,0,0,1,.042.192,1.578,1.578,0,0,1,.005.172c-.007.21-.067.337-.172.383Z" transform="translate(-637.802 -339.273)" fill="#201d29"/><path d="M487.954,373.83c-.067.231-.443.326-.937.453q-.094.025-.192.047c-.067.016-.135.039-.2.057-.14.031-.285.085-.436.125-.3.1-.623.217-.953.362s-.625.317-.9.478c-.131.087-.266.161-.383.245-.059.04-.123.076-.178.116s-.108.078-.162.114c-.42.287-.74.508-.958.406-.1-.05-.162-.176-.167-.377a1.1,1.1,0,0,1,.043-.346,2.033,2.033,0,0,1,.151-.423c.037-.074.076-.151.12-.232s.1-.154.157-.235a3.6,3.6,0,0,1,.4-.475,4.152,4.152,0,0,1,2.559-1.159,3.526,3.526,0,0,1,.624.008c.1.012.191.018.279.038s.174.041.253.063a1.959,1.959,0,0,1,.418.165,1.08,1.08,0,0,1,.289.2c.148.136.2.263.174.375Z" transform="translate(-482.484 -368.574)" fill="#201d29"/></g><g transform="translate(0 11.31)"><circle cx="6.454" cy="6.454" r="6.454" transform="translate(0 6.074) rotate(-28.07)" fill="#fdc3c3"/><g transform="translate(5.866 4.916)"><path d="M468.66,477.276l-.685,2.328a.443.443,0,0,0,0,.312.408.408,0,0,0,.753,0l.685-2.328a.443.443,0,0,0,0-.312.408.408,0,0,0-.753,0Z" transform="translate(-467.945 -475.271)" fill="#fda4a4"/><path d="M490,463.89l-1.058,4.792a.408.408,0,0,0,.808.114L490.807,464a.408.408,0,0,0-.808-.114Z" transform="translate(-486.194 -463.538)" fill="#fda4a4"/></g></g><g transform="translate(29.959 6.75)"><circle cx="6.454" cy="6.454" r="6.454" transform="translate(0 6.074) rotate(-28.07)" fill="#fdc3c3"/><g transform="translate(6.208 6.143)"><path d="M700.743,438.88q-.364,1.786-.727,3.571a.408.408,0,0,0,.808.114q.362-1.786.727-3.571a.408.408,0,0,0-.808-.114Z" transform="translate(-700.009 -438.461)" fill="#fda4a4"/><path d="M726.244,438.361l-.521,2.4a.409.409,0,0,0,.347.461.417.417,0,0,0,.461-.347l.521-2.4a.409.409,0,0,0-.347-.461.418.418,0,0,0-.461.347Z" transform="translate(-722.359 -438.011)" fill="#fda4a4"/></g></g><path d="M588.246,417.88c-.709.218-.9-.687-.969-1.2-.078-.615-1.026-.447-.948.166a2.589,2.589,0,0,0,.654,1.58,1.471,1.471,0,0,0,1.429.4.5.5,0,0,0,.39-.558.482.482,0,0,0-.558-.39Z" transform="translate(-565.002 -406.239)" fill="#201d29"/><g transform="translate(17.652 13.016)"><path d="M571.564,446.535a6.849,6.849,0,0,0,.283-2.64,19.361,19.361,0,0,0-1-4.245,14.555,14.555,0,0,1-9.785,2.089,7.664,7.664,0,0,0,.991,5.25,6.024,6.024,0,0,0,4.272,2.794,4.991,4.991,0,0,0,4.617-1.981,4.88,4.88,0,0,0,.625-1.268Z" transform="translate(-560.6 -439.56)" fill="#fff"/><path d="M568.954,439.137a.315.315,0,0,0-.415-.154.338.338,0,0,0-.056.033.279.279,0,0,0-.3-.022,13.658,13.658,0,0,1-9.626,1.874.318.318,0,0,0-.346.277.3.3,0,0,0,.052.2.41.41,0,0,0-.05.215,11.107,11.107,0,0,0,.606,3.947,6.767,6.767,0,0,0,2.195,2.7,14.263,14.263,0,0,0,1.662,1.086.323.323,0,0,0,.438-.071.315.315,0,0,0-.071-.437,10.645,10.645,0,0,1-2.647-1.982,5.409,5.409,0,0,1-.927-1.375,6.454,6.454,0,0,1-.492-1.8,19.1,19.1,0,0,1-.144-2.1,14.406,14.406,0,0,0,7.6-.947,13.747,13.747,0,0,0,2-1.031,10.93,10.93,0,0,1,.764,5.438,4.921,4.921,0,0,1-2.621,3.76,3.52,3.52,0,0,1-2.524.213c-.383-.123-.61.461-.226.584a4.5,4.5,0,0,0,4.744-1.581,7.087,7.087,0,0,0,1.291-5.266,15.71,15.71,0,0,0-.919-3.576Z" transform="translate(-558.214 -438.957)" fill="#201d29"/></g></g><path d="M450.828,116.39a19.393,19.393,0,0,0-7.379-3.062,27.5,27.5,0,0,0-7.215-.582,29.342,29.342,0,0,0-13.746,4.221,26.953,26.953,0,0,0-5.646,4.577q-.319.343-.627.695a.421.421,0,0,0,.1.585.429.429,0,0,0,.585-.1,26.045,26.045,0,0,1,5.312-4.593,28.128,28.128,0,0,1,6.325-3.07,28.526,28.526,0,0,1,6.888-1.425,27.036,27.036,0,0,1,6.976.337,24.743,24.743,0,0,1,3.437.879A17.187,17.187,0,0,1,449.5,116.5c.29.18.571.372.846.573.436.321.918-.367.483-.688Z" transform="translate(-405.432 -112.713)" fill="#201d29"/><path d="M342.649,205.371a.423.423,0,0,0-.593-.05,25.765,25.765,0,0,0-5.848,10.993,46.476,46.476,0,0,0-1.227,13.928c.115,2.806.37,5.6.631,8.4a.418.418,0,0,0,.407.346,4.473,4.473,0,0,0-1.81,2.776,5.5,5.5,0,0,0,1.7,4.383,11.8,11.8,0,0,0,3.422,2.631,11.609,11.609,0,0,0,4.639,1.265c.539.03.62-.807.08-.837a10.784,10.784,0,0,1-6.8-3.343,5.916,5.916,0,0,1-2.057-3.635,2.9,2.9,0,0,1,1.513-2.7,8.527,8.527,0,0,1,5-.995.478.478,0,0,0,.308-.1.408.408,0,0,0,.132,0,.43.43,0,0,0,.341-.487q-.141-2.086-.283-4.173a.422.422,0,0,0-.487-.341.429.429,0,0,0-.341.487q.127,1.886.256,3.773a9.914,9.914,0,0,0-4.936.863c-.1.054-.195.111-.29.17a.5.5,0,0,0,.03-.226,93.154,93.154,0,0,1-.584-14.6,33.512,33.512,0,0,1,2.96-12.287,22.354,22.354,0,0,1,3.784-5.643.436.436,0,0,0,.05-.593Z" transform="translate(-334.158 -193.142)" fill="#201d29"/><path d="M423.013,232.466a.425.425,0,0,0-.541.248,31.611,31.611,0,0,1-2.7,7.683,11.741,11.741,0,0,1-5.111,5.095,9.422,9.422,0,0,1-4.447.864.466.466,0,0,0-.145.017,23.2,23.2,0,0,0,1.3-2.726,24.361,24.361,0,0,0,1.357-4.6.423.423,0,0,0-.379-.458.43.43,0,0,0-.458.379,22.343,22.343,0,0,1-2.735,7.279c-1.174,1.943-2.869,3.74-5.214,4.091a4.487,4.487,0,0,1-2.95-.511,9.848,9.848,0,0,0,3.044-3.213.432.432,0,0,0-.1-.585.423.423,0,0,0-.585.1c-1.351,2.4-3.809,3.788-6.266,4.83-1.363.577-2.76,1.081-4.156,1.573a35.747,35.747,0,0,1-4.791,1.388,15.875,15.875,0,0,1-5.491.231c-.537-.08-.614.759-.08.837,3.422.505,6.835-.366,10.057-1.466,1.479-.505,2.953-1.039,4.4-1.631a23.089,23.089,0,0,0,3.2-1.569,5.886,5.886,0,0,0,6.647-.278,10.344,10.344,0,0,0,2.906-3.177.363.363,0,0,0,.36.324,10.4,10.4,0,0,0,7.632-2.811,16.813,16.813,0,0,0,4.133-6.71c.548-1.525.962-3.095,1.361-4.664a.434.434,0,0,0-.248-.541Z" transform="translate(-375.93 -216.81)" fill="#201d29"/><path d="M718.216,258.395a14.718,14.718,0,0,0-1.506-3.834,12,12,0,0,0-2.318-2.788,11.572,11.572,0,0,0-3.431-2.107.421.421,0,0,0-.293.789,10.894,10.894,0,0,1,5.147,4.247,12.971,12.971,0,0,1,1.5,3.563c.389,1.409.731,2.832,1.091,4.247q.623,2.442,1.247,4.886a.431.431,0,0,0,.487.341.423.423,0,0,0,.341-.487c-.753-2.954-1.475-5.916-2.264-8.859Z" transform="translate(-661.281 -231.756)" fill="#201d29"/><path d="M650.687,227.33a.423.423,0,0,0-.458.379,18.118,18.118,0,0,1-1.123,6.965.421.421,0,0,0,.789.292,18.71,18.71,0,0,0,1.171-7.177A.434.434,0,0,0,650.687,227.33Z" transform="translate(-607.958 -212.363)" fill="#201d29"/><path d="M718.01,180.018a49.389,49.389,0,0,0-4.22-8.371,24.512,24.512,0,0,0-5.688-6.235,18.075,18.075,0,0,0-4.031-2.307c-.5-.2-.793.584-.292.789a18.71,18.71,0,0,1,6.445,4.55,30.392,30.392,0,0,1,4.906,7.222c.778,1.538,1.469,3.118,2.12,4.714.205.5.964.14.76-.36Z" transform="translate(-655.292 -156.496)" fill="#201d29"/><path d="M788.672,319.388a3.88,3.88,0,0,0-1.67-1.72c-.076-.042-.151-.081-.229-.119,0-.021,0-.042,0-.064a27.715,27.715,0,0,0-2.163-8.862c-.213-.5-.973-.137-.76.36a26.967,26.967,0,0,1,2.06,8.214,6,6,0,0,0-4.123.182c-.5.209-.138.969.36.76a5.14,5.14,0,0,1,4.045.056,3.541,3.541,0,0,1,1.552,1.238,3.787,3.787,0,0,1,.437,2.272,12.821,12.821,0,0,1-1.285,4.417,9.064,9.064,0,0,1-1.129,1.989,5.868,5.868,0,0,1-1.426,1.28,6.179,6.179,0,0,1-4.206.927c-.537-.078-.614.76-.08.837a7.012,7.012,0,0,0,6.075-2.186,8.279,8.279,0,0,0,1.336-2.077A14.6,14.6,0,0,0,789,322.041a5.317,5.317,0,0,0-.328-2.652Z" transform="translate(-721.52 -282.836)" fill="#201d29"/><path d="M681.041,130.255a.341.341,0,0,0-.616.292,14.408,14.408,0,0,1,1.141,3.767.341.341,0,0,0,.671-.117,15.132,15.132,0,0,0-1.2-3.941Z" transform="translate(-635.183 -127.799)" fill="#201d29"/><path d="M703.854,144.893a.344.344,0,0,0-.454-.162,4.967,4.967,0,0,0-2.109,2.691.341.341,0,0,0,.64.238,4.118,4.118,0,0,1,.693-1.332,3.645,3.645,0,0,1,.479-.524c.1-.09.2-.176.306-.257.048-.037.1-.073.146-.107l.09-.061.021-.014.026-.016a.353.353,0,0,0,.162-.454Z" transform="translate(-653.339 -140.518)" fill="#201d29"/><path d="M426.062,543.917a14.3,14.3,0,0,0,4.033,4.194,18.815,18.815,0,0,0,4.729,2.9,20.259,20.259,0,0,0,7.068,1.278l-.525-.525q.174,1.927.35,3.856c.06.667,1.111.674,1.05,0q-.174-1.927-.35-3.856a.537.537,0,0,0-.525-.525,19.639,19.639,0,0,1-6.425-1.107,16.7,16.7,0,0,1-4.493-2.66,13.86,13.86,0,0,1-4.006-4.082c-.326-.591-1.234-.063-.906.53h0Z" transform="translate(-414.001 -486.93)" fill="#201d29"/><path d="M682.37,486.635a20.843,20.843,0,0,1-6.922,10.372,19.92,19.92,0,0,1-2.7,1.825,13.883,13.883,0,0,0-2.56,1.539c-1.573,1.411-1.611,3.7-1.55,5.656.021.674,1.071.676,1.05,0a10.6,10.6,0,0,1,.235-3.23,3.793,3.793,0,0,1,2-2.341A26.4,26.4,0,0,0,677,497.064a21.824,21.824,0,0,0,6.384-10.149.525.525,0,0,0-1.012-.279Z" transform="translate(-624.955 -437.491)" fill="#201d29"/></g></g><g transform="translate(73.631 68.927)"><path d="M679.9,679.408h24.671c-1.5-8.114-3.622-16.18-8.572-22.681-4.925-6.467-13.958-10.737-22.013-11.8a78.953,78.953,0,0,1,5.8,28.65Q679.863,676.494,679.9,679.408Z" transform="translate(-673.423 -644.365)" fill="#fff"/><path d="M672.023,647.812c.68,2.218,1.252,4.471,1.722,6.743q.353,1.7.631,3.412c.188,1.152.338,2.225.474,3.353q.411,3.441.552,6.906c.1,2.456.128,4.917.163,7.375v.05h1.12c-.03-2.192-.063-4.386-.133-6.577q-.112-3.478-.491-6.94-.386-3.508-1.058-6.978-.668-3.418-1.641-6.766a68.762,68.762,0,0,0-2.264-6.523l.148.024q.572.1,1.142.211,1.132.229,2.248.531a38.376,38.376,0,0,1,4.477,1.509l.257.106.127.052.1.042c.187.08.373.162.56.244q.546.243,1.084.5,1.087.527,2.138,1.124c.687.392,1.362.806,2.02,1.243q.49.325.969.67c.155.111.308.225.462.338l.217.163.108.083.078.061a26.753,26.753,0,0,1,3.383,3.13q.376.417.733.85c.115.141.229.282.339.426l.01.013.013.017.1.137c.073.1.145.193.217.291q.768,1.042,1.451,2.143a37.631,37.631,0,0,1,2.412,4.58,48.216,48.216,0,0,1,1.8,4.792,85.367,85.367,0,0,1,2.486,10.247c.016.082.03.166.046.248h1.135a92.491,92.491,0,0,0-2.246-9.693,45.658,45.658,0,0,0-4.082-9.764,31.382,31.382,0,0,0-2.946-4.291,25.384,25.384,0,0,0-3.268-3.273,34.316,34.316,0,0,0-8.252-5.076,38.029,38.029,0,0,0-9.153-2.763c-.4-.065-.8-.123-1.2-.176a.561.561,0,0,0-.539.709,68.47,68.47,0,0,1,2.35,6.491Z" transform="translate(-669.645 -640.606)" fill="#1a1a1a"/></g><g transform="translate(26.624 68.931)"><path d="M338.766,679.408q.047-2.914.116-5.829a78.813,78.813,0,0,1,5.663-28.65c-8.055,1.059-17.088,5.329-22.013,11.8-4.95,6.5-7.068,14.568-8.572,22.681Z" transform="translate(-313.395 -644.369)" fill="#fff"/><path d="M310.765,675.675a91.753,91.753,0,0,1,2.157-9.28,43.964,43.964,0,0,1,3.945-9.508q.641-1.12,1.365-2.19.372-.548.768-1.082c.06-.081.12-.162.182-.243l.1-.137a.08.08,0,0,0,.009-.013c.121-.155.244-.311.37-.464a25.356,25.356,0,0,1,3.219-3.245q.454-.384.923-.749l.033-.025.112-.086.217-.163c.161-.12.321-.238.484-.354q.969-.7,1.99-1.32a36.611,36.611,0,0,1,4.247-2.228c.17-.076.339-.149.509-.222l.1-.042.1-.042c.1-.043.205-.085.308-.127q.552-.223,1.11-.431,1.108-.411,2.242-.753a36.118,36.118,0,0,1,4.543-1.065l.1-.016q-1.128,2.791-1.993,5.68-1,3.328-1.675,6.744c-.461,2.3-.816,4.631-1.084,6.966q-.4,3.457-.531,6.938c-.1,2.456-.128,4.915-.168,7.372,0,.029,0,.056,0,.085h1.119c.034-2.182.069-4.364.137-6.544q.108-3.476.465-6.94c.239-2.286.556-4.493.987-6.777q.643-3.4,1.592-6.732A65.869,65.869,0,0,1,341,642.131q.159-.392.324-.782a.562.562,0,0,0-.539-.709,37.5,37.5,0,0,0-9.2,2.45,35.945,35.945,0,0,0-8.525,4.853,26.931,26.931,0,0,0-3.434,3.157,28.648,28.648,0,0,0-3.015,4.041,42.818,42.818,0,0,0-4.353,9.627,85.05,85.05,0,0,0-2.517,10.332c-.037.192-.07.384-.106.576ZM319.3,653.21c.026-.035.013-.018,0,0Z" transform="translate(-309.63 -640.636)" fill="#1a1a1a"/></g><g transform="translate(46.705 68.71)"><g transform="translate(0 22.411)"><circle cx="5.398" cy="5.398" r="5.398" fill="#b3b3b3"/><path d="M477.095,828.41a4.155,4.155,0,1,1,4.155-4.155A4.16,4.16,0,0,1,477.095,828.41Z" transform="translate(-471.697 -818.857)" fill="#ccc"/><circle cx="2.466" cy="2.466" r="2.466" transform="translate(2.931 2.931)" fill="#201d29"/></g><path d="M507.043,638.94a6.27,6.27,0,0,0-4.22,2.2,10.445,10.445,0,0,0-2,5.234,92.582,92.582,0,0,0-.872,12.583c-.031,2.37-.017,4.738,0,7.108a.629.629,0,1,0,1.259,0c-.026-4.093-.052-8.189.163-12.277.107-2.041.275-4.08.533-6.108.055-.431.1-.774.18-1.27.073-.449.158-.9.265-1.34a10.983,10.983,0,0,1,.392-1.3q.047-.123.1-.247l.043-.1c.016-.037.033-.073.05-.108a7.043,7.043,0,0,1,.334-.636c.11-.185.228-.363.355-.537.017-.024.05-.064.055-.072.046-.056.093-.111.141-.166q.108-.123.223-.239a5.957,5.957,0,0,1,.486-.437l.021-.017.025-.017c.052-.037.1-.075.155-.11.1-.065.2-.128.3-.188s.187-.106.283-.153l.145-.069.087-.036a4.366,4.366,0,0,1,.612-.188l.1-.021c.018,0,.11-.017.141-.022.087-.009.176-.018.265-.021h.06l.324-1.452Z" transform="translate(-495.169 -638.94)" fill="#201d29"/></g><g transform="translate(71.621 68.687)"><g transform="translate(0 19.862)"><path d="M657.629,883.575c-.155-1.909-.264-3.333-.266-3.371a.483.483,0,1,0-.962.074c0,.036.11,1.424.261,3.3h.969Z" transform="translate(-656.118 -868.153)" fill="#a2a9ae"/><path d="M759.641,883.056c.2-1.906.342-3.327.346-3.363a.483.483,0,0,0-.961-.1c0,.038-.151,1.507-.356,3.46h.97Z" transform="translate(-745.036 -867.634)" fill="#a2a9ae"/><path d="M655.669,803.442l-1.419-.017.06-5.039a7.6,7.6,0,0,1,15.2.179l-.059,4.968-1.419-.017.059-4.968a6.182,6.182,0,0,0-12.363-.146l-.06,5.039Z" transform="translate(-654.25 -790.876)" fill="#201d29"/></g><path d="M675.717,659.2q-.1-4.846-.2-9.692c-.127-2.917.3-6.233-1.5-8.736a4.579,4.579,0,0,0-3.857-1.994.7.7,0,1,0,0,1.4,3.194,3.194,0,0,1,.623.012c-.158-.02.035.01.09.022a3.391,3.391,0,0,1,.4.115c.05.018.2.078.068.022a4.036,4.036,0,0,1,.739.426c.024.016.1.081,0-.005a4.861,4.861,0,0,1,.782.781c1.442,1.885,1.163,5.086,1.246,7.723q.1,4.963.2,9.925a.7.7,0,1,0,1.4,0Z" transform="translate(-667.478 -638.762)" fill="#201d29"/></g><g transform="translate(0 46.675)"><path d="M115.959,578.319c-.065-1.645-1.393-2.969-2.8-3.818a27.532,27.532,0,0,1-4.244-2.508,3.166,3.166,0,0,1-.936-1.251,1.585,1.585,0,0,1,.172-1.5,1.094,1.094,0,0,1,.435-.329,3.84,3.84,0,0,1-.415-.311,2.484,2.484,0,0,1-.926-2.376,2.308,2.308,0,0,1,1.425-1.5,3.7,3.7,0,0,1,1.225-.243,3.061,3.061,0,0,1-1.075-1.7,2.071,2.071,0,0,1,2.593-2.359,10.581,10.581,0,0,1,6.48-1.775,4.99,4.99,0,0,1,4.127,2.077,6.447,6.447,0,0,1,.55,3.37c-.054,2.88-.785,5.827-.161,8.64.3,1.332-6.446,5.59-6.446,5.59Z" transform="translate(-106.996 -547.076)" fill="#fff"/><path d="M152.481,599.961A6.478,6.478,0,0,0,148.375,598c-.434-.037-.954-.023-1.145.448a1.2,1.2,0,0,0,.239,1.081,10.643,10.643,0,0,1,1.317,2.311,5.373,5.373,0,0,1,.21,2.5c-.127.82-.533,1.622-.161,2.44a1.337,1.337,0,0,0,.78.727,1.243,1.243,0,0,0,1.173-.283,2.853,2.853,0,0,0,.7-1.021,8.935,8.935,0,0,0,.447-1.186,20.592,20.592,0,0,0,.574-2.828,6.458,6.458,0,0,0-.023-2.227Z" transform="translate(-141.762 -581.296)" fill="#eed0c2"/><path d="M123.5,489.789c-1.039-3.409-1.769-7.68-2.809-11.088a3.831,3.831,0,0,1-.247-1.712,1.309,1.309,0,0,1,1.123-1.153c.749-.023,1.223.774,1.522,1.461q2.288,5.255,4.076,10.709l-3.668,1.784Z" transform="translate(-118.497 -475.098)" fill="#fff"/><path d="M218.276,641a8.092,8.092,0,0,0,.428,3.029.4.4,0,0,0,.461.294.39.39,0,0,0,.294-.461,7.515,7.515,0,0,1-.411-2.822.387.387,0,0,0-.772-.039Z" transform="translate(-203.572 -618.394)" fill="#2e2e2e"/><path d="M129.446,482.242a4.8,4.8,0,0,0-2.512-.772,9.315,9.315,0,0,0-3.395.521.292.292,0,0,0,.014-.225q-.921-2.513-1.84-5.027l-.913-2.5c-.3-.826-.586-1.663-.913-2.481a2.3,2.3,0,0,0-1.526-1.55,1.645,1.645,0,0,0-1.816,1.116,4.656,4.656,0,0,0-.047,2.414,20.639,20.639,0,0,0,.623,2.485l1.708,5.757a.4.4,0,0,0,.461.294.391.391,0,0,0,.294-.461q-.707-2.382-1.413-4.763c-.232-.782-.477-1.563-.678-2.354a9.285,9.285,0,0,1-.35-2.269c0-.546.15-1.371.813-1.474.648-.1,1.038.646,1.236,1.136.3.739.554,1.5.828,2.247q.423,1.158.847,2.314.966,2.64,1.932,5.279a.482.482,0,0,0,.187.245c-.569.206-1.129.437-1.678.671a3.325,3.325,0,0,0-1.157.644,1.591,1.591,0,0,0-.424.962,2.313,2.313,0,0,0,.863,1.936,6.386,6.386,0,0,0,2.651.983,2.874,2.874,0,0,1,2.076,1.286c.215.448.9.086.683-.362a3.022,3.022,0,0,0-1.75-1.427c-.727-.274-1.507-.358-2.243-.6a2.109,2.109,0,0,1-1.418-1.148,1.239,1.239,0,0,1-.057-.789.938.938,0,0,1,.582-.559,23.8,23.8,0,0,1,2.469-.987,9.846,9.846,0,0,1,2.568-.547,5.115,5.115,0,0,1,2.425.384,2.48,2.48,0,0,1,1.37,1.684,10.221,10.221,0,0,1,.132,2.967q-.07,1.643-.282,3.275a.39.39,0,0,0,.367.4.394.394,0,0,0,.4-.367q.2-1.557.275-3.126a13.857,13.857,0,0,0-.063-2.943,3.41,3.41,0,0,0-1.334-2.28Z" transform="translate(-114.973 -470.183)" fill="#2e2e2e"/><path d="M114.519,573.132a.387.387,0,0,0-.683.362c.125.243-.4.32-.541.321a6.655,6.655,0,0,1-1.214-.116,13.8,13.8,0,0,1-2.362-.693,3.164,3.164,0,0,1-1.831-1.146,1.769,1.769,0,0,1,.1-1.9,2.639,2.639,0,0,1,2.247-.909c.5-.005.537-.777.039-.772a3.529,3.529,0,0,0-2.765,1.045,2.565,2.565,0,0,0-.423,2.648,2.23,2.23,0,0,0,.516.757,2.573,2.573,0,0,0-1.734,1.6,2.67,2.67,0,0,0,.662,2.754,3.74,3.74,0,0,0,.359.315,1.586,1.586,0,0,0-.538,1.5,3.474,3.474,0,0,0,1.533,1.929A11.715,11.715,0,0,0,110,582.143a3.843,3.843,0,0,0,2.37.593,1.82,1.82,0,0,0,1.375-1.8.4.4,0,0,0-.367-.4.388.388,0,0,0-.4.367,1.056,1.056,0,0,1-.695,1.068,1.349,1.349,0,0,1-.85-.064,8.92,8.92,0,0,1-.923-.364,10.842,10.842,0,0,1-1.752-1.015,5.394,5.394,0,0,1-1.431-1.27,1.061,1.061,0,0,1-.2-.829.59.59,0,0,1,.426-.486.387.387,0,0,0,.1-.038,11.789,11.789,0,0,0,1.383.606c.582.222,1.165.441,1.746.663a4.825,4.825,0,0,0,1.579.41,1.9,1.9,0,0,0,1.921-2.289.387.387,0,0,0-.755.167,1.125,1.125,0,0,1-1.127,1.349,4.014,4.014,0,0,1-1.312-.347l-1.466-.556c-1.306-.495-3.332-1.205-3.1-2.967a1.806,1.806,0,0,1,1.748-1.537.452.452,0,0,0,.227-.067c.259.128.531.236.8.339a14.552,14.552,0,0,0,2.92.829,3.449,3.449,0,0,0,1.734-.026.985.985,0,0,0,.576-1.34Z" transform="translate(-105.724 -555.471)" fill="#2e2e2e"/><path d="M154.369,680.306a7.426,7.426,0,0,1,2,3.036.4.4,0,0,0,.461.294.39.39,0,0,0,.294-.461,8.206,8.206,0,0,0-2.182-3.393.4.4,0,0,0-.546-.021.39.39,0,0,0-.021.546h0Z" transform="translate(-147.93 -652.31)" fill="#2e2e2e"/><path d="M147.18,668.06s3.514,11.531,6.95,18.226,6.053,9.242,12.6,9.055c7.6-.218,7.8-.569,7.8-.569l4.088-14.181L161.041,662.6Z" transform="translate(-141.767 -637.476)" fill="#fff"/><path d="M160.992,691.626a8.6,8.6,0,0,1-1.884-.477c-.081-.03-.159-.064-.24-.1-.06-.024.091.041.031.013l-.072-.031-.129-.057c-.172-.08-.342-.163-.509-.253a9.5,9.5,0,0,1-1.077-.679c-.082-.06-.163-.12-.244-.183.091.07-.047-.038-.07-.056l-.154-.125c-.187-.154-.368-.315-.544-.479a14.331,14.331,0,0,1-1.123-1.18c-.091-.107-.183-.217-.272-.326-.043-.054-.086-.106-.128-.159l-.064-.081s-.1-.123-.052-.067q-.3-.392-.581-.8c-.4-.585-.782-1.191-1.136-1.808a67.2,67.2,0,0,1-3.038-6.053q-1.5-3.347-2.722-6.88a50.382,50.382,0,0,1-1.841-6.561c-.047-.24-.093-.48-.134-.722-.114.2-.229.4-.342.6,1.2-.452,2.389-.921,3.58-1.391q2.074-.821,4.144-1.649c1.218-.486,2.435-.971,3.657-1.447.719-.281,1.44-.581,2.179-.811.039-.012.078-.025.118-.034l.044-.01c.08-.025-.069.01-.09.01h.02a.67.67,0,0,1-.23-.06.325.325,0,0,1,.043.03c-.018-.012-.129-.106-.064-.048l.037.03c.031.026.063.054.093.081q.123.11.243.223c.588.548,1.159,1.114,1.733,1.678q1.308,1.287,2.608,2.583,1.541,1.534,3.081,3.071,1.573,1.569,3.147,3.135,1.406,1.4,2.819,2.789l.584.572a.489.489,0,0,0,.692-.692q-1.349-1.32-2.688-2.652-1.569-1.557-3.134-3.119-1.581-1.575-3.161-3.151-1.377-1.371-2.758-2.737c-.65-.642-1.3-1.285-1.964-1.916-.18-.172-.36-.345-.548-.509a.825.825,0,0,0-.551-.286,2.253,2.253,0,0,0-.648.176c-.368.129-.733.269-1.1.407-1.137.435-2.268.885-3.4,1.336q-2.06.819-4.121,1.641c-1.281.509-2.562,1.016-3.848,1.509l-.781.3a.508.508,0,0,0-.342.6,45.231,45.231,0,0,0,1.709,6.5c.8,2.412,1.725,4.781,2.738,7.111.93,2.136,1.936,4.244,3.07,6.28a19.294,19.294,0,0,0,4.449,5.723,9.593,9.593,0,0,0,4.247,2.058c.151.029.3.054.456.074a.5.5,0,0,0,.6-.342.5.5,0,0,0-.342-.6h0Z" transform="translate(-139.047 -634.223)" fill="#2e2e2e"/></g></g></g></svg>