<svg xmlns="http://www.w3.org/2000/svg" width="112.996" height="99.374" viewBox="0 0 112.996 99.374"><g transform="translate(0.001)"><g transform="translate(-0.001 0)"><path d="M82.57,3.332a47.06,47.06,0,0,1,9.158,4.625A47.674,47.674,0,0,1,112.852,43.5,47.674,47.674,0,0,1,97.667,81.951C89.792,89.121,79.63,93.432,69.21,95.635c-13.479,2.85-27.7.944-40.392-4.19C18.043,87.088,6.711,81.305,2.179,69.917-.586,62.97-.57,55.1,1.378,47.884A57.964,57.964,0,0,1,11.647,28.1C20.833,16.058,33.5,6.406,48.051,2.219A55.511,55.511,0,0,1,82.57,3.332Z" transform="translate(0.001 0)" fill="#c1e9ec"/><path d="M339.725,716.3l2.9-11.166,1.922-12.25a16.547,16.547,0,0,0-12.92,6.568c-2.871,4.02-4.91,12.133-5.91,16.849h14Z" transform="translate(-290.426 -617.807)" fill="#8fcbe3"/><path d="M325.694,715.318c1.511-7.7,3.486-16.011,10.359-20.495a13.593,13.593,0,0,1,6.69-2.271c.493-.026.5-.8,0-.77a15.665,15.665,0,0,0-10.934,5.8c-3,3.556-4.663,8-5.769,12.46-.433,1.746-.789,3.508-1.132,5.274h.784Z" transform="translate(-289.703 -616.822)" fill="#201d29"/><path d="M688.555,707.834H702.5c-.9-4.466-3.03-13.547-6.123-17.878a16.547,16.547,0,0,0-12.92-6.568l1.922,12.25,3.172,12.2Z" transform="translate(-609.404 -609.339)" fill="#8fcbe3"/><path d="M690.411,683.055a13.594,13.594,0,0,1,6.69,2.27c7.181,4.684,9.016,13.552,10.56,21.524h.783c-.406-2.109-.814-4.218-1.331-6.3-1.106-4.463-2.772-8.9-5.769-12.46a15.665,15.665,0,0,0-10.934-5.8c-.5-.026-.493.744,0,.77Z" transform="translate(-615.27 -608.354)" fill="#201d29"/><path d="M544.567,643.261H533.645l-1.4-16.921h12.719Z" transform="translate(-474.572 -558.472)" fill="#fff"/><path d="M461.33,691.461c-.162-2.818-.268-5.137-.282-6.558-.041-4.159-.25-7.49-1.133-10.23a11.9,11.9,0,0,0-5.249-6.7,44.738,44.738,0,0,0-6.292-2.354s-.314,10.642-6.081,10.642-6.085-11.239-6.085-11.239c-9.988,3.427-11.341,9.76-11.778,19.5l-.016.35c-.072,1.608-.2,3.9-.371,6.585Z" transform="translate(-378.096 -592.965)" fill="#00a99d"/><path d="M327.518,442.732c-4.88.793-8.648-4.164-8.874-8.077-.078-1.881,1.863-2.993,4.009-3.073,4.434-.227,7.741,3.69,6.83,6.537C329.231,439.964,328.677,442.48,327.518,442.732Z" transform="translate(-284.115 -384.809)" fill="#fff"/><path d="M750.707,442.732c4.88.793,8.648-4.164,8.874-8.077.078-1.881-1.863-2.993-4.009-3.073-4.434-.227-7.741,3.69-6.83,6.537C748.994,439.964,749.548,442.48,750.707,442.732Z" transform="translate(-667.474 -384.809)" fill="#fff"/><path d="M418.276,184.768c0,14.107-5.145,25.543-23.153,25.543s-23.153-11.436-23.153-25.543c0-5.625.124-11.421,3.117-15.641a24.4,24.4,0,0,1,39.413-.947c3.419,4.377,3.775,10.535,3.775,16.588Z" transform="translate(-331.664 -141.44)" fill="#fff"/><ellipse cx="2.175" cy="1.752" rx="2.175" ry="1.752" transform="translate(72.907 46.578) rotate(-88.303)" fill="#2e2e2e"/><ellipse cx="2.175" cy="1.752" rx="2.175" ry="1.752" transform="translate(52.04 46.578) rotate(-88.303)" fill="#2e2e2e"/><path d="M675.894,350.371c-.217.048-.46-.224-.8-.547q-.066-.06-.132-.127c-.045-.044-.1-.083-.149-.128-.094-.092-.214-.173-.325-.267a5.452,5.452,0,0,0-1.676-.869c-.141-.037-.276-.088-.405-.111-.065-.014-.129-.036-.19-.048s-.121-.022-.18-.035c-.461-.094-.823-.136-.909-.341-.04-.1,0-.22.135-.361a1.382,1.382,0,0,1,.115-.108,1.349,1.349,0,0,1,.151-.1,1.746,1.746,0,0,1,.4-.178q.116-.036.247-.069a2.687,2.687,0,0,1,.273-.041,3.1,3.1,0,0,1,.612-.009,3.62,3.62,0,0,1,2.426,1.258,3.1,3.1,0,0,1,.345.505,2.681,2.681,0,0,1,.124.247q.048.126.086.242a1.747,1.747,0,0,1,.085.43,1.358,1.358,0,0,1,.008.18,1.4,1.4,0,0,1-.022.156C676.072,350.241,676,350.346,675.894,350.371Z" transform="translate(-598.392 -309.421)" fill="#201d29"/><path d="M472.8,356.194c-.1.2-.452.225-.919.261q-.089.008-.182.012c-.062,0-.128.015-.194.019-.131.006-.271.031-.415.044-.289.043-.6.1-.919.176s-.616.188-.89.289c-.132.058-.267.1-.385.161-.06.028-.123.049-.179.076s-.111.053-.165.077c-.426.193-.75.341-.931.215-.086-.062-.118-.185-.091-.367a1.021,1.021,0,0,1,.093-.305,1.824,1.824,0,0,1,.2-.358q.067-.092.145-.191c.053-.065.115-.123.178-.187a3.273,3.273,0,0,1,.441-.365,3.808,3.808,0,0,1,2.5-.642,3.274,3.274,0,0,1,.563.107c.086.026.169.047.247.078s.151.064.219.1a2.858,2.858,0,0,1,.581.437C472.816,355.975,472.848,356.1,472.8,356.194Z" transform="translate(-416.865 -316.618)" fill="#201d29"/><path d="M582.075,426.568c.24-.375-.356-.721-.6-.348-.275.429-.01.81-.084,1.263a.971.971,0,0,1-1.035.772c-.434-.065-.621.6-.183.665a1.638,1.638,0,0,0,1.551-.587,1.576,1.576,0,0,0,.35-.779C582.12,427.263,581.918,426.813,582.075,426.568Z" transform="translate(-517.089 -379.894)" fill="#201d29"/><circle cx="5.393" cy="5.393" r="5.393" transform="matrix(0.991, -0.136, 0.136, 0.991, 44.166, 47.443)" fill="#f2c4bd"/><path d="M441.876,462.532l-.9,1.817a.37.37,0,0,0-.046.257.341.341,0,0,0,.62.112l.9-1.817a.37.37,0,0,0,.046-.257.341.341,0,0,0-.62-.112Z" transform="translate(-393.144 -412.278)" fill="#e09184"/><path d="M462.392,453.4l-1.563,3.791a.344.344,0,0,0,.219.43.348.348,0,0,0,.43-.219l1.563-3.791a.344.344,0,0,0-.219-.43.348.348,0,0,0-.43.219Z" transform="translate(-410.876 -404.06)" fill="#e09184"/><circle cx="5.393" cy="5.393" r="5.393" transform="matrix(1, -0.018, 0.018, 1, 71.256, 47.333)" fill="#f2c4bd"/><path d="M688.221,464.894l-1.114,2.835a.341.341,0,0,0,.649.211l1.114-2.835a.341.341,0,1,0-.649-.211Z" transform="translate(-612.637 -414.309)" fill="#e09184"/><path d="M715.036,468.592l-.775,1.9a.343.343,0,0,0,.219.43.35.35,0,0,0,.43-.219l.775-1.9a.343.343,0,0,0-.219-.43.35.35,0,0,0-.43.219Z" transform="translate(-636.848 -417.609)" fill="#e09184"/><path d="M534.193,469.3a22.4,22.4,0,0,0,7.938.5c.79-.079,1.578-.188,2.361-.324a.373.373,0,0,0,.259-.455.379.379,0,0,0-.455-.259,25.549,25.549,0,0,1-7.817.246,17.6,17.6,0,0,1-2.088-.419.371.371,0,0,0-.2.714Z" transform="translate(-476.075 -417.796)" fill="#2e2e2e"/><path d="M347.2,97.844a6.487,6.487,0,0,1,2.037,2.922,6.819,6.819,0,0,1-2.416,7.438,44.792,44.792,0,0,1-3.02,8.541l-3.981-11.3a2.164,2.164,0,0,1-1.5-1.054c-.454-.766-.579-1.684-.969-2.485-.974-2-3.431-2.89-5.659-2.812s-4.35.906-6.513,1.444-4.562.761-6.527-.292-3.148-3.824-1.841-5.661a18.018,18.018,0,0,0-18.326,22.448,9.239,9.239,0,0,1-5.77-7.969A8.553,8.553,0,0,1,289.5,98.386c1.319-2.7,3.984-4.463,5.859-6.815,2.379-2.984,3.449-6.879,5.989-9.728,3.426-3.843,9.108-5.12,14.17-4.182,4.846.9,9.19,3.56,12.991,6.714a12.945,12.945,0,0,1,11.375,3.046,12.708,12.708,0,0,1,3.786,8.879,6.9,6.9,0,0,1,3.522,1.543Z" transform="translate(-257.458 -68.984)" fill="#fff"/><path d="M549.047,243.347a5.367,5.367,0,0,1-4.356.313,5.16,5.16,0,0,1-2.984-2.924,5.312,5.312,0,0,1-.375-2.413.373.373,0,0,0-.37-.37.378.378,0,0,0-.37.37,5.222,5.222,0,0,0,1.565,4.494,5.9,5.9,0,0,0,4.5,1.9,6.022,6.022,0,0,0,2.76-.733C549.839,243.757,549.466,243.118,549.047,243.347Z" transform="translate(-481.99 -212.169)" fill="#201d29"/><path d="M656.017,241.551c-1.986-1.191-4.423-1.285-6.385-2.52a4.021,4.021,0,0,1-1.939-2.511c-.04-.2-.272-.434-.455-.383-.2.056-.3.384-.259.58.433,2.111,2.526,3.293,4.408,3.919,2.005.666,4.478,1.025,5.714,2.949a2.789,2.789,0,0,1,.306,2.832c-.229.418.41.792.639.374C659.112,244.848,657.719,242.572,656.017,241.551Z" transform="translate(-576.867 -210.544)" fill="#201d29"/><path d="M603.685,252.44a6.391,6.391,0,0,0,8.368,2.613c.471-.226.06-.927-.41-.7a5.563,5.563,0,0,1-7.256-2.321.407.407,0,0,0-.7.41h0Z" transform="translate(-538.222 -224.543)" fill="#201d29"/><path d="M417.13,236.273a15.421,15.421,0,0,0-14.8,7.684c-.255.457.447.867.7.41a14.626,14.626,0,0,1,14.1-7.281c.519.055.516-.758,0-.813Z" transform="translate(-358.688 -210.6)" fill="#201d29"/><path d="M763.4,324.04a.378.378,0,0,0-.37.37,23.949,23.949,0,0,1-1.712,6.95c-.221.536-.466,1.062-.727,1.579-.41-3.373-2.2-6.363-3.175-9.588a13.363,13.363,0,0,1-.569-2.912.379.379,0,0,0-.37-.37.373.373,0,0,0-.37.37c.257,3.643,2.224,6.806,3.249,10.242a13.214,13.214,0,0,1,.556,2.913.379.379,0,0,0,.37.37.386.386,0,0,0,.356-.263.326.326,0,0,0,.466-.139,24.591,24.591,0,0,0,2.385-7.025q.186-1.057.282-2.128a.373.373,0,0,0-.37-.37Z" transform="translate(-674.176 -285.388)" fill="#201d29"/><path d="M451.08,212.639a7.189,7.189,0,0,0-1.9,4.708.37.37,0,0,0,.74,0,8.162,8.162,0,0,1,1.687-4.184C451.927,212.813,451.4,212.288,451.08,212.639Z" transform="translate(-400.505 -189.495)" fill="#201d29"/><path d="M389.052,257.52A2.35,2.35,0,0,1,387.264,254c.227-.419-.412-.793-.639-.374a3.263,3.263,0,0,0,2.428,4.631.372.372,0,0,0,.37-.37A.379.379,0,0,0,389.052,257.52Z" transform="translate(-344.425 -225.983)" fill="#201d29"/><path d="M308.534,324.855a8.1,8.1,0,0,0-1.71,4.159,38.6,38.6,0,0,0-.5,5.392c-.021.858-.012,1.715.023,2.572a7.837,7.837,0,0,1-3.168-2.9,7.583,7.583,0,0,1-.973-2.406,7.567,7.567,0,0,0-.306-1.32,2.225,2.225,0,0,0-1.058-1.088,2.978,2.978,0,0,1-1.07-.973,2.818,2.818,0,0,1-.45-1.41c-.018-.475-.759-.477-.74,0a3.571,3.571,0,0,0,1.281,2.615,4.92,4.92,0,0,0,.657.437,1.741,1.741,0,0,1,.538.407,3,3,0,0,1,.392,1.316,8.51,8.51,0,0,0,5.517,6.376.37.37,0,0,0,.2-.714l-.062-.023a40.129,40.129,0,0,1,.079-5.109c.069-.867.166-1.732.294-2.593a13.955,13.955,0,0,1,.467-2.153,4.632,4.632,0,0,1,1.113-1.808C309.373,325.281,308.851,324.5,308.534,324.855Z" transform="translate(-266.232 -289.573)" fill="#201d29"/><path d="M677.785,156.946a6.762,6.762,0,0,0-2.221-2.086,7.794,7.794,0,0,1-2.25-1.746,4,4,0,0,1-.621-1.546c-.123-.557-.23-1.115-.4-1.661a12.156,12.156,0,0,0-13.087-8.522c-.3.037-.6.083-.9.14a.374.374,0,0,0-.259.455.378.378,0,0,0,.456.259,11.622,11.622,0,0,1,6.552.676,11.278,11.278,0,0,1,4.88,3.89,11.371,11.371,0,0,1,1.884,4.223,10.221,10.221,0,0,0,.44,1.7,4.952,4.952,0,0,0,2.018,2.193A12.023,12.023,0,0,1,676.6,156.6a5.5,5.5,0,0,1,1.14,5.191,5.026,5.026,0,0,1-.227.632.382.382,0,0,0,.133.507.373.373,0,0,0,.507-.133A6.362,6.362,0,0,0,677.785,156.946Z" transform="translate(-586.736 -125.988)" fill="#201d29"/><path d="M645.215,117.1a.374.374,0,0,0-.455.259,10,10,0,0,0-.144,2.854.381.381,0,0,0,.37.37.373.373,0,0,0,.37-.37,9.083,9.083,0,0,1,.117-2.658A.38.38,0,0,0,645.215,117.1Z" transform="translate(-574.727 -104.405)" fill="#201d29"/><path d="M628.393,115.338c-.066-.1-.122.056-.171-.051a5.1,5.1,0,0,1-.118-.7,2.109,2.109,0,0,1-.011-.269.373.373,0,0,0-.37-.37.378.378,0,0,0-.37.37,2.38,2.38,0,0,0,.4,1.389.4.4,0,0,0,.221.17.37.37,0,0,0,.418-.544Z" transform="translate(-559.373 -101.605)" fill="#201d29"/><path d="M319.632,80.905a17.423,17.423,0,0,0-9.433-4.484,17.009,17.009,0,0,0-10.079,1.687,17.457,17.457,0,0,0-7.289,6.981,35.459,35.459,0,0,1-2.9,5.013c-1.158,1.445-2.6,2.626-3.88,3.955a13.332,13.332,0,0,0-1.723,2.119,8.438,8.438,0,0,0-.96,2.152,5.737,5.737,0,0,0,.359,4.476,4.257,4.257,0,0,0,.708.888c.344.33.868-.192.524-.524a4.257,4.257,0,0,1-1.061-3.827,8.282,8.282,0,0,1,2.063-4.1c1.191-1.361,2.6-2.509,3.821-3.841a14.452,14.452,0,0,0,1.678-2.212c.5-.819.932-1.68,1.374-2.533a19.263,19.263,0,0,1,2.855-4.273,16.869,16.869,0,0,1,3.77-3.067,16.293,16.293,0,0,1,9.409-2.3,16.744,16.744,0,0,1,9.3,3.592q.485.389.938.815C319.456,81.754,319.981,81.232,319.632,80.905Z" transform="translate(-252.407 -67.993)" fill="#201d29"/><path d="M781.687,431.534a4.241,4.241,0,0,0-2.872-2.179.38.38,0,0,0-.455.259.374.374,0,0,0,.259.455,3.487,3.487,0,0,1,2.27,1.566,3.414,3.414,0,0,1,.39,2.868,8.131,8.131,0,0,1-1.677,2.862,9.088,9.088,0,0,1-2.425,2.033,6.13,6.13,0,0,1-3.293.826c-.476-.022-.475.718,0,.74a7.921,7.921,0,0,0,6.071-2.881,9.571,9.571,0,0,0,1.959-3.14A4.192,4.192,0,0,0,781.687,431.534Z" transform="translate(-689.71 -382.824)" fill="#2e2e2e"/><path d="M320.335,445.128a.379.379,0,0,0-.507-.133,3.944,3.944,0,0,1-3.1-.058,7.981,7.981,0,0,1-2.679-1.983,15.993,15.993,0,0,1-2.188-2.672,4.268,4.268,0,0,1-.676-3.235,2.239,2.239,0,0,1,2.258-1.76.383.383,0,0,0,.455-.259.373.373,0,0,0-.259-.455,2.89,2.89,0,0,0-2.871,1.523,4.316,4.316,0,0,0,.043,3.784,12.233,12.233,0,0,0,2.3,3.158,10.22,10.22,0,0,0,2.934,2.4,4.813,4.813,0,0,0,4.155.2A.373.373,0,0,0,320.335,445.128Z" transform="translate(-276.722 -387.463)" fill="#2e2e2e"/><path d="M417.281,553.019a3.717,3.717,0,0,0-1.181-1.6,6.551,6.551,0,0,0-2.226-.928,18.546,18.546,0,0,1-7.516-4.3,18.345,18.345,0,0,1-3.083-3.787c-.248-.406-.889-.034-.639.374a19.334,19.334,0,0,0,10.077,8.125c.724.253,1.484.412,2.2.7a2.884,2.884,0,0,1,1.445,1.2,7.36,7.36,0,0,1,.55,4.261.374.374,0,0,0,.37.37.377.377,0,0,0,.37-.37A9.093,9.093,0,0,0,417.281,553.019Z" transform="translate(-358.956 -483.47)" fill="#1a1a1a"/><path d="M655.291,544.2a14.575,14.575,0,0,1-5.306,5.579,16.664,16.664,0,0,1-3.542,1.646,14.124,14.124,0,0,0-2.031.732,3.668,3.668,0,0,0-1.527,1.44c-.907,1.572-.652,3.428-.385,5.135a.373.373,0,0,0,.455.259.379.379,0,0,0,.259-.455,7.2,7.2,0,0,1,.214-4.387,3,3,0,0,1,1.33-1.338,13.221,13.221,0,0,1,1.935-.689,16.991,16.991,0,0,0,6.633-4.035,14.451,14.451,0,0,0,2.6-3.513C656.151,544.154,655.512,543.779,655.291,544.2Z" transform="translate(-572.658 -485.068)" fill="#1a1a1a"/><path d="M654.2,689.3h19.1c-1.165-6.283-2.8-12.53-6.637-17.563-3.813-5.008-10.809-8.315-17.046-9.135a61.14,61.14,0,0,1,4.493,22.185q.054,2.256.086,4.513Z" transform="translate(-579.229 -590.802)" fill="#fff"/><path d="M647.4,664.156q.79,2.577,1.334,5.221.273,1.316.488,2.642c.145.891.262,1.723.367,2.6q.319,2.664.428,5.348c.079,1.9.1,3.807.127,5.711,0,.013,0,.026,0,.038h.867c-.023-1.7-.049-3.4-.1-5.093q-.087-2.693-.38-5.374-.3-2.717-.819-5.4-.517-2.646-1.271-5.239a53.292,53.292,0,0,0-1.753-5.052l.114.018q.443.075.884.164.877.178,1.741.411a29.779,29.779,0,0,1,3.467,1.169l.2.082.1.041.076.032q.218.093.434.189.423.189.839.39.841.408,1.655.87.8.454,1.564.963.38.253.75.519.18.129.357.262l.168.127.084.065.061.047a20.705,20.705,0,0,1,2.62,2.424q.291.322.567.659.134.163.263.33l.008.01.01.013.081.107.168.225q.595.807,1.124,1.659a29.013,29.013,0,0,1,1.867,3.547,37.323,37.323,0,0,1,1.4,3.711,66.049,66.049,0,0,1,1.925,7.935c.012.064.023.128.035.192h.878a71.576,71.576,0,0,0-1.739-7.506,35.305,35.305,0,0,0-3.161-7.56,24.293,24.293,0,0,0-2.281-3.322,19.658,19.658,0,0,0-2.531-2.535,26.6,26.6,0,0,0-6.39-3.931,29.454,29.454,0,0,0-7.088-2.14c-.31-.051-.621-.1-.932-.136a.435.435,0,0,0-.418.549A52.868,52.868,0,0,1,647.4,664.156Z" transform="translate(-575.606 -587.216)" fill="#1a1a1a"/><path d="M332.885,689.3q.037-2.257.09-4.513A61.032,61.032,0,0,1,337.36,662.6c-6.237.82-13.232,4.127-17.046,9.135-3.833,5.034-5.473,11.281-6.637,17.563h19.208Z" transform="translate(-279.687 -590.802)" fill="#fff"/><path d="M310.509,685.712a70.97,70.97,0,0,1,1.67-7.186,34.059,34.059,0,0,1,3.054-7.363q.5-.867,1.057-1.7.288-.425.594-.838l.14-.188.081-.107.007-.01q.141-.181.286-.359a19.581,19.581,0,0,1,2.492-2.513c.234-.2.473-.391.715-.58l.025-.019.087-.067.168-.127q.186-.139.375-.274.751-.54,1.541-1.023a28.2,28.2,0,0,1,3.289-1.725q.2-.087.394-.172l.077-.033.077-.032.238-.1q.427-.173.86-.334.859-.318,1.736-.583a28.2,28.2,0,0,1,3.517-.826l.075-.012q-.873,2.162-1.543,4.4-.775,2.577-1.3,5.222c-.356,1.785-.632,3.586-.839,5.394q-.307,2.677-.412,5.373c-.077,1.9-.1,3.806-.131,5.708q0,.033,0,.066h.867c.026-1.689.054-3.379.107-5.068q.084-2.692.36-5.374c.185-1.771.431-3.479.765-5.248s.74-3.5,1.233-5.214a50.87,50.87,0,0,1,1.747-5.075q.123-.3.25-.605a.435.435,0,0,0-.418-.549,29.036,29.036,0,0,0-7.125,1.9,27.8,27.8,0,0,0-6.6,3.759,20.845,20.845,0,0,0-2.659,2.445,22.1,22.1,0,0,0-2.334,3.129,33.123,33.123,0,0,0-3.371,7.455,65.627,65.627,0,0,0-1.949,8c-.028.148-.055.3-.082.446h.878Zm6.611-17.4Z" transform="translate(-276.08 -587.216)" fill="#1a1a1a"/><circle cx="4.18" cy="4.18" r="4.18" transform="translate(47.37 92.725) rotate(-45)" fill="#b3b3b3"/><path d="M465.237,832.475a3.217,3.217,0,1,1,3.217-3.217A3.221,3.221,0,0,1,465.237,832.475Z" transform="translate(-411.956 -736.533)" fill="#ccc"/><circle cx="1.91" cy="1.91" r="1.91" transform="translate(50.58 92.725) rotate(-45)" fill="#201d29"/><path d="M492.465,658.5a4.131,4.131,0,0,0-3.017,1.544A8.091,8.091,0,0,0,487.9,664.1a71.671,71.671,0,0,0-.675,9.744c-.025,1.835-.013,3.67,0,5.5a.488.488,0,1,0,.975,0c-.02-3.169-.04-6.341.126-9.508.083-1.581.213-3.16.412-4.73.042-.334.077-.6.14-.984.056-.348.122-.695.2-1.037a8.589,8.589,0,0,1,.3-1c.024-.064.049-.128.075-.191l.034-.078.038-.084q.117-.252.258-.493c.084-.143.177-.281.275-.416l.043-.055q.053-.065.109-.128.084-.095.172-.185a4.633,4.633,0,0,1,.376-.338l.016-.013.019-.013c.04-.028.079-.057.12-.085q.112-.076.23-.145t.219-.119l.112-.054.068-.028a3.436,3.436,0,0,1,.475-.146l.08-.017.109-.018c.068-.007.136-.014.205-.016h.046V658.5Z" transform="translate(-434.42 -587.146)" fill="#201d29"/><path d="M634.154,884.672c-.12-1.478-.2-2.582-.207-2.61a.374.374,0,0,0-.745.057c0,.028.085,1.1.2,2.553Z" transform="translate(-564.589 -786.176)" fill="#a2a9ae"/><path d="M729.392,884.179c.155-1.476.265-2.576.268-2.6a.374.374,0,1,0-.744-.074c0,.029-.117,1.167-.276,2.679Z" transform="translate(-649.687 -785.683)" fill="#a2a9ae"/><path d="M632.3,808.509l-1.1-.013.046-3.9a5.886,5.886,0,0,1,11.771.139l-.045,3.847-1.1-.013.045-3.847a4.787,4.787,0,0,0-9.573-.113l-.046,3.9Z" transform="translate(-562.802 -712.225)" fill="#201d29"/><path d="M650.237,672.66q-.076-3.752-.151-7.505c-.1-2.258.236-4.827-1.16-6.765a3.546,3.546,0,0,0-2.987-1.544.543.543,0,0,0,0,1.086,2.385,2.385,0,0,1,.482.01c-.122-.015.027.008.07.017a2.553,2.553,0,0,1,.313.089c.039.014.152.061.053.017a3.094,3.094,0,0,1,.572.329c.018.012.081.062,0,0a3.719,3.719,0,0,1,.605.6c1.116,1.46.9,3.939.965,5.981q.077,3.843.155,7.685a.543.543,0,0,0,1.086,0Z" transform="translate(-575.463 -585.665)" fill="#201d29"/><path d="M114.468,574.963a4.229,4.229,0,0,0-2.328-3.168,22.948,22.948,0,0,1-3.522-2.081,2.631,2.631,0,0,1-.777-1.038,1.317,1.317,0,0,1,.143-1.246.914.914,0,0,1,.361-.273A3.335,3.335,0,0,1,108,566.9a2.062,2.062,0,0,1-.768-1.973,1.917,1.917,0,0,1,1.182-1.249,3.073,3.073,0,0,1,1.016-.2,2.535,2.535,0,0,1-.891-1.411,1.719,1.719,0,0,1,2.152-1.958,8.778,8.778,0,0,1,5.378-1.472,4.137,4.137,0,0,1,3.425,1.724,5.343,5.343,0,0,1,.456,2.8c-.044,2.39-.651,4.836-.133,7.17C120.063,571.43,114.468,574.963,114.468,574.963Z" transform="translate(-95.573 -498.088)" fill="#fff"/><path d="M151.58,599.624a5.381,5.381,0,0,0-3.408-1.631c-.36-.03-.792-.02-.95.371a1,1,0,0,0,.2.9,8.836,8.836,0,0,1,1.093,1.918,4.449,4.449,0,0,1,.174,2.078c-.105.681-.442,1.346-.133,2.025a1.11,1.11,0,0,0,.647.6,1.032,1.032,0,0,0,.973-.235,2.36,2.36,0,0,0,.578-.847,7.342,7.342,0,0,0,.37-.984,17.149,17.149,0,0,0,.477-2.347A5.352,5.352,0,0,0,151.58,599.624Z" transform="translate(-131.228 -533.187)" fill="#eed0c2"/><path d="M122.976,487.412c-.862-2.829-1.468-6.373-2.331-9.2a3.176,3.176,0,0,1-.2-1.42,1.087,1.087,0,0,1,.932-.957c.622-.02,1.016.642,1.264,1.213q1.9,4.361,3.383,8.887Z" transform="translate(-107.37 -424.272)" fill="#fff"/><path d="M218.274,640.937a6.712,6.712,0,0,0,.355,2.513.33.33,0,0,0,.382.243.322.322,0,0,0,.243-.382,6.223,6.223,0,0,1-.341-2.342A.321.321,0,0,0,218.274,640.937Z" transform="translate(-194.615 -571.226)" fill="#2e2e2e"/><path d="M127.219,480.194a3.993,3.993,0,0,0-2.085-.64,7.719,7.719,0,0,0-2.817.432.243.243,0,0,0,.012-.187l-1.527-4.171-.758-2.071c-.251-.686-.486-1.381-.757-2.059a1.913,1.913,0,0,0-1.267-1.287,1.366,1.366,0,0,0-1.508.927,3.863,3.863,0,0,0-.039,2,17.181,17.181,0,0,0,.517,2.062q.708,2.389,1.418,4.778a.328.328,0,0,0,.382.243.323.323,0,0,0,.243-.382l-1.173-3.953c-.193-.65-.4-1.3-.563-1.954a7.728,7.728,0,0,1-.29-1.884c0-.453.124-1.138.676-1.223s.861.537,1.026.943c.248.613.459,1.243.686,1.865l.7,1.921,1.6,4.381a.406.406,0,0,0,.155.2c-.473.171-.937.363-1.392.557a2.76,2.76,0,0,0-.96.534,1.32,1.32,0,0,0-.353.8,1.92,1.92,0,0,0,.717,1.607,5.292,5.292,0,0,0,2.2.816,2.384,2.384,0,0,1,1.723,1.067c.179.372.745.072.567-.3a2.515,2.515,0,0,0-1.452-1.185c-.6-.228-1.251-.3-1.862-.5a1.754,1.754,0,0,1-1.177-.952,1.031,1.031,0,0,1-.048-.655.78.78,0,0,1,.484-.464,19.783,19.783,0,0,1,2.049-.82,8.159,8.159,0,0,1,2.132-.454,4.237,4.237,0,0,1,2.012.319,2.058,2.058,0,0,1,1.136,1.4,8.493,8.493,0,0,1,.11,2.462q-.058,1.363-.234,2.717a.324.324,0,0,0,.3.336.327.327,0,0,0,.336-.3q.166-1.292.228-2.594a11.478,11.478,0,0,0-.052-2.442A2.833,2.833,0,0,0,127.219,480.194Z" transform="translate(-103.752 -419.238)" fill="#2e2e2e"/><path d="M113.012,572.312a.321.321,0,0,0-.567.3c.1.2-.329.266-.449.267a5.494,5.494,0,0,1-1.008-.1,11.449,11.449,0,0,1-1.96-.575,2.628,2.628,0,0,1-1.519-.951,1.471,1.471,0,0,1,.082-1.576,2.19,2.19,0,0,1,1.865-.754c.411,0,.445-.645.032-.64a2.929,2.929,0,0,0-2.295.867,2.128,2.128,0,0,0-.351,2.2,1.858,1.858,0,0,0,.428.629,2.132,2.132,0,0,0-1.439,1.332,2.216,2.216,0,0,0,.549,2.285,3.23,3.23,0,0,0,.3.262,1.315,1.315,0,0,0-.447,1.247,2.886,2.886,0,0,0,1.272,1.6,9.718,9.718,0,0,0,1.755,1.086,3.2,3.2,0,0,0,1.967.492,1.509,1.509,0,0,0,1.141-1.5.331.331,0,0,0-.3-.336.323.323,0,0,0-.336.3.878.878,0,0,1-.576.887,1.123,1.123,0,0,1-.7-.053,7.364,7.364,0,0,1-.766-.3,8.977,8.977,0,0,1-1.454-.842,4.468,4.468,0,0,1-1.187-1.054.879.879,0,0,1-.169-.688.489.489,0,0,1,.353-.4.332.332,0,0,0,.086-.031,9.778,9.778,0,0,0,1.147.5l1.449.55a4.005,4.005,0,0,0,1.31.34,1.573,1.573,0,0,0,1.593-1.9.321.321,0,0,0-.626.139.934.934,0,0,1-.935,1.119,3.323,3.323,0,0,1-1.089-.288l-1.217-.462c-1.083-.411-2.766-1-2.574-2.462a1.5,1.5,0,0,1,1.451-1.275.365.365,0,0,0,.188-.056c.215.106.441.2.667.281a12.085,12.085,0,0,0,2.423.688,2.859,2.859,0,0,0,1.439-.022A.818.818,0,0,0,113.012,572.312Z" transform="translate(-94.258 -506.708)" fill="#2e2e2e"/><path d="M154.346,680.188a6.16,6.16,0,0,1,1.655,2.52.33.33,0,0,0,.382.243.323.323,0,0,0,.243-.382,6.82,6.82,0,0,0-1.811-2.817.329.329,0,0,0-.453-.017.323.323,0,0,0-.017.453Z" transform="translate(-137.546 -606.008)" fill="#2e2e2e"/><path d="M147.176,667.131s2.916,9.569,5.768,15.125,5.024,7.67,10.458,7.514c6.307-.181,6.471-.473,6.471-.473l3.393-11.768L158.679,662.6l-11.5,4.532Z" transform="translate(-131.228 -590.802)" fill="#fff"/><path d="M158.121,686.042a7.185,7.185,0,0,1-1.564-.4c-.067-.025-.133-.053-.2-.079-.05-.019.075.033.026.011l-.059-.026-.107-.048q-.214-.1-.422-.211a8.017,8.017,0,0,1-.894-.563q-.1-.074-.2-.151c.076.058-.039-.032-.058-.046l-.128-.1q-.232-.192-.452-.4a12.08,12.08,0,0,1-.932-.979q-.115-.134-.226-.271l-.106-.133-.053-.068-.043-.055q-.249-.325-.482-.662c-.336-.486-.649-.988-.943-1.5a55.69,55.69,0,0,1-2.522-5.023c-.827-1.851-1.586-3.753-2.259-5.709a41.749,41.749,0,0,1-1.527-5.445q-.059-.3-.111-.6l-.284.5c.994-.375,1.983-.764,2.971-1.154q1.721-.681,3.44-1.368c1.011-.4,2.021-.806,3.035-1.2.6-.233,1.2-.482,1.808-.673.032-.01.065-.02.1-.028l.036-.009c.066-.02-.057.009-.075.009h.016a.532.532,0,0,1-.191-.05.231.231,0,0,1,.035.024c-.015-.009-.107-.087-.053-.04l.03.025.077.068c.068.061.135.123.2.185.488.455.963.924,1.438,1.392q1.086,1.068,2.164,2.143,1.279,1.273,2.557,2.548,1.305,1.3,2.612,2.6,1.167,1.16,2.339,2.315l.484.475a.406.406,0,1,0,.575-.575q-1.12-1.1-2.231-2.2-1.3-1.292-2.6-2.588l-2.623-2.615q-1.142-1.138-2.288-2.271c-.54-.533-1.08-1.066-1.63-1.59-.15-.143-.3-.286-.455-.422a.68.68,0,0,0-.457-.237,1.853,1.853,0,0,0-.538.146c-.305.108-.608.223-.91.338-.943.361-1.882.735-2.82,1.108q-1.71.68-3.42,1.362c-1.063.422-2.126.843-3.194,1.253l-.648.247a.421.421,0,0,0-.284.5,37.5,37.5,0,0,0,1.418,5.392c.663,2,1.431,3.968,2.273,5.9.771,1.773,1.607,3.522,2.547,5.212A16.022,16.022,0,0,0,154,685.056a7.96,7.96,0,0,0,3.525,1.708q.188.036.378.062a.418.418,0,0,0,.5-.284.411.411,0,0,0-.284-.5Z" transform="translate(-128.453 -587.457)" fill="#2e2e2e"/></g></g></svg>