<?xml version="1.0" encoding="UTF-8"?><svg id="_レイヤー_2" xmlns="http://www.w3.org/2000/svg" xmlns:xlink="http://www.w3.org/1999/xlink" viewBox="0 0 226 52"><defs><style>.cls-1{fill:#fff;font-family:KozGoPr6N-Bold-90ms-RKSJ-H, 'Kozuka Gothic Pr6N';font-size:16px;letter-spacing:.01999em;}.cls-2{fill:#ff90b4;}.cls-3{fill:#fffcfd;}.cls-4{fill:#cf577e;}.cls-5{fill:url(#_名称未設定グラデーション_2);}</style><linearGradient id="_名称未設定グラデーション_2" x1="-514.84318" y1="163.09696" x2="-514.84318" y2="162.09696" gradientTransform="translate(115952.21641 6523.87831) scale(225 -40)" gradientUnits="userSpaceOnUse"><stop offset="0" stop-color="#e15884"/><stop offset=".067" stop-color="#f06793"/><stop offset=".577" stop-color="#fa87ad"/><stop offset=".879" stop-color="#ff9abb"/><stop offset="1" stop-color="#ff8eb3"/></linearGradient></defs><g id="_レイヤー_1-2"><g id="_グループ_1170"><rect id="_長方形_159-2" class="cls-4" x="1" y="2" width="225" height="40" rx="5" ry="5"/><path id="_多角形_3" class="cls-4" d="M23,52l-7-11h14l-7,11Z"/><rect id="_長方形_160" class="cls-5" width="225" height="40" rx="5" ry="5"/><path id="_多角形_4" class="cls-2" d="M23,48l-6-9h12l-6,9Z"/><path id="alert" class="cls-3" d="M23.263,23.652c.97478,0,1.765,.79022,1.765,1.765s-.79022,1.765-1.765,1.765c-.974,0-1.76389-.789-1.765-1.763-.0011-.97478,.78822-1.76589,1.763-1.767,.00067,0,.00133,0,.002,0Zm-.744-11.527h1.49c.74961,.05546,1.31357,.70611,1.262,1.456l-.443,7.151c.01669,.7907-.61077,1.44521-1.40146,1.4619-.05458,.00115-.10918-.00082-.16354-.0059-.78693,.07309-1.48412-.5056-1.55721-1.29253-.00505-.05433-.00698-.10891-.00579-.16347l-.443-7.151c-.05044-.74932,.51307-1.39901,1.262-1.455v-.001Zm.744-3.517c-6.10054,.00055-11.04555,4.94646-11.045,11.047,.00055,6.10054,4.94646,11.04555,11.047,11.045,6.10054-.00055,11.04555-4.94646,11.045-11.047v-.001c-.00221-6.09953-4.94747-11.043-11.047-11.043v-.001Z"/><text class="cls-1" transform="translate(44.8365 25.32812)"><tspan x="0" y="0">種類を選んでください</tspan></text></g></g></svg>