<svg xmlns="http://www.w3.org/2000/svg" width="118.654" height="97.664" viewBox="0 0 118.654 97.664">
  <g id="chat" transform="translate(0 -45.286)">
    <path id="Path_2281" data-name="Path 2281" d="M149.772,125.965v13.7a22.7,22.7,0,0,1-22.679,22.679h-.842a10.243,10.243,0,0,0-8.334,4.322,10.174,10.174,0,0,0-8.343-4.322H80.679A22.7,22.7,0,0,1,58,139.666v-13.7a22.7,22.7,0,0,1,22.679-22.679h46.413a22.7,22.7,0,0,1,22.679,22.679Z" transform="translate(-44.559 -44.559)" fill="#fff"/>
    <path id="Path_2282" data-name="Path 2282" d="M82.534,45.286H36.12A36.161,36.161,0,0,0,0,81.406v13.7a36.161,36.161,0,0,0,36.12,36.12H61.6a14.829,14.829,0,0,1-2.723,6.541,3.244,3.244,0,0,0,2.6,5.181c.035,0,.07,0,.1,0a27.416,27.416,0,0,0,21.9-11.733,36.164,36.164,0,0,0,35.176-36.108v-13.7a36.161,36.161,0,0,0-36.12-36.12Zm29.632,49.822a29.665,29.665,0,0,1-29.632,29.632h-.842a3.245,3.245,0,0,0-2.8,1.6,20.465,20.465,0,0,1-11.66,9.148,21.942,21.942,0,0,0,1.02-7.644,3.244,3.244,0,0,0-3.241-3.1H36.121A29.665,29.665,0,0,1,6.489,95.108v-13.7A29.665,29.665,0,0,1,36.12,51.775H82.534a29.665,29.665,0,0,1,29.632,29.631Z" fill="#fbe3e8"/>
  </g>
</svg>
