<svg id="give-love" xmlns="http://www.w3.org/2000/svg" width="43.115" height="32" viewBox="0 0 43.115 32">
  <g id="Group_993" data-name="Group 993" transform="translate(11.071 6.601)">
    <path id="Path_1979" data-name="Path 1979" d="M141.237,165.764c2.4,2.145,4.394,2.145,6.748-.042l7.486-7.955a8.57,8.57,0,0,0,0-11.561c-2.85-3.025-7.168-1.878-10.006.519-1.166.986-.578.993-1.741,0-3-2.561-7.294-3.406-10.011-.519a8.57,8.57,0,0,0,0,11.561Z" transform="translate(-131.469 -144.386)" fill="#fe76a8" fill-rule="evenodd"/>
  </g>
  <g id="Group_994" data-name="Group 994" transform="translate(22.917 9.889)">
    <path id="Path_1980" data-name="Path 1980" d="M285.985,186c-1.534,1.428-2.838,1.428-4.4.027l-.167-.174-2.277-2.421a8.6,8.6,0,0,1-1.276,9.767l-5.725,6.083,1.773.4a10.117,10.117,0,0,0,3.31.332l1.131-.172,5.941-6.314a8.546,8.546,0,0,0,2-7.847Z" transform="translate(-272.138 -183.428)" fill="#fe5694" fill-rule="evenodd"/>
  </g>
  <g id="Group_995" data-name="Group 995" transform="translate(4.377 17.078)">
    <path id="Path_1981" data-name="Path 1981" d="M68.09,268.993c-2.353-.43-4.067-.108-7.677.708l-.789.177-6.128,1.384-1.515,4.392,1.515,4.237,6.834,1.735,7.1,1.8a7.416,7.416,0,0,0,3.681.12l14.415-3.119c2.516-.546,2.5-4.188-.352-3.709l-8.44,1.3-1.131.172a10.117,10.117,0,0,1-3.31-.332l-6-1.347a1.433,1.433,0,0,1,.516-2.819c1.193.15,1.739.174,3.094.312,3.566.361,3.876-3.782.767-4.542Z" transform="translate(-51.98 -268.802)" fill="#fed1a3" fill-rule="evenodd"/>
  </g>
  <g id="Group_996" data-name="Group 996" transform="translate(0 17.78)">
    <path id="Path_1982" data-name="Path 1982" d="M5.892,278.16a1.024,1.024,0,0,0-1.021-1.02H1.021A1.022,1.022,0,0,0,0,278.16v10.1a1.022,1.022,0,0,0,1.021,1.02H4.872a1.024,1.024,0,0,0,1.021-1.02v-10.1Z" transform="translate(0 -277.14)" fill="#99e6fc" fill-rule="evenodd"/>
  </g>
  <g id="Group_997" data-name="Group 997" transform="translate(0 26.674)">
    <path id="Path_1983" data-name="Path 1983" d="M5.892,382.759a1.024,1.024,0,0,1-1.021,1.02H1.021A1.023,1.023,0,0,1,0,382.759v2.229a1.023,1.023,0,0,0,1.021,1.02H4.872a1.024,1.024,0,0,0,1.021-1.02v-2.229Z" transform="translate(0 -382.759)" fill="#2ed1e2" fill-rule="evenodd"/>
  </g>
  <g id="Group_998" data-name="Group 998" transform="translate(5.892 25.504)">
    <path id="Path_1984" data-name="Path 1984" d="M76.8,371.035,69.969,369.3v2.229l6.834,1.735,7.1,1.8a7.416,7.416,0,0,0,3.681.12L102,372.069a2.089,2.089,0,0,0,1.473-3.2,2.321,2.321,0,0,1-1.473.971l-11.774,2.551-2.417.521-.224.049a7.416,7.416,0,0,1-3.681-.12Z" transform="translate(-69.969 -368.867)" fill="#ffbc85" fill-rule="evenodd"/>
  </g>
  <g id="Group_999" data-name="Group 999" transform="translate(26.348)">
    <path id="Path_1985" data-name="Path 1985" d="M320.775,80.749c.246.194.369.3.492.3s.243-.108.489-.3l6.46-6.4a5.233,5.233,0,0,0,0-7.2c-1.736-1.8-4.54-1.347-6.4.324-.342.307-.462.462-.553.46s-.214-.152-.556-.46c-1.854-1.671-4.66-2.121-6.4-.324a5.233,5.233,0,0,0,0,7.2Z" transform="translate(-312.881 -65.999)" fill="#fe0263" fill-rule="evenodd"/>
  </g>
  <g id="Group_1000" data-name="Group 1000" transform="translate(32.478 0.001)">
    <path id="Path_1986" data-name="Path 1986" d="M387.931,81.067c.121,0,.243-.108.489-.3l6.46-6.4a5.123,5.123,0,0,0,1.313-2.477,5.211,5.211,0,0,0-1.313-4.719,3.782,3.782,0,0,0-2.921-1.15,5.122,5.122,0,0,1,1.207,2.871,5.186,5.186,0,0,1-1.409,4.1l-6.081,6.024,1.763,1.75C387.685,80.959,387.808,81.065,387.931,81.067Z" transform="translate(-385.676 -66.017)" fill="#e30256" fill-rule="evenodd"/>
  </g>
</svg>
