<svg xmlns="http://www.w3.org/2000/svg" width="16.186" height="14.514" viewBox="0 0 16.186 14.514">
  <g id="icon_next--blue" transform="translate(-269.648 -73.233)">
    <g id="Group_416" data-name="Group 416" transform="translate(277.834 73.233)">
      <path id="Path_1420" data-name="Path 1420" d="M280.8,45.945l-6.514-6.514a.743.743,0,0,0-1.051,1.051l5.989,5.989-5.989,5.989a.743.743,0,1,0,1.051,1.051L280.8,47A.743.743,0,0,0,280.8,45.945Z" transform="translate(-273.017 -39.214)" fill="#1492e6"/>
    </g>
    <g id="Group_418" data-name="Group 418" transform="translate(269.648 73.233)">
      <path id="Path_1421" data-name="Path 1421" d="M7.782,45.945,1.268,39.431A.743.743,0,0,0,.217,40.482l5.988,5.989L.217,52.459A.743.743,0,1,0,1.268,53.51L7.782,47A.743.743,0,0,0,7.782,45.945Z" transform="translate(0 -39.214)" fill="#1492e6"/>
    </g>
  </g>
</svg>
