<svg xmlns="http://www.w3.org/2000/svg" width="85" height="87" viewBox="0 0 85 87">
  <g id="icon_face" transform="translate(-424 -264)">
    <g id="Ellipse_111" data-name="Ellipse 111" transform="translate(424 264)" fill="#fff" stroke="#e9e9e9" stroke-width="1">
      <ellipse cx="42.5" cy="43.5" rx="42.5" ry="43.5" stroke="none"/>
      <ellipse cx="42.5" cy="43.5" rx="42" ry="43" fill="none"/>
    </g>
    <g id="face-id" transform="translate(428 269)">
      <path id="Path_2236" data-name="Path 2236" d="M77,38.5A38.5,38.5,0,0,1,15.638,69.48c-.194-.143-.021-.8-.212-.944a38.728,38.728,0,0,1-7.01-6.982c-.18-.232-.722.043-.9-.193A38.5,38.5,0,1,1,77,38.5Z" fill="#e890a5"/>
      <path id="Path_2237" data-name="Path 2237" d="M96.5,62.2A34.305,34.305,0,1,1,62.2,27.894,34.305,34.305,0,0,1,96.5,62.2Z" transform="translate(-23.699 -23.699)" fill="#f1a1b4"/>
      <path id="Path_2238" data-name="Path 2238" d="M111.961,56.016v49.93a6.016,6.016,0,0,1-6.016,6.016H58.119A38.72,38.72,0,0,1,50,103.842V56.016A6.016,6.016,0,0,1,56.016,50h49.93A6.016,6.016,0,0,1,111.961,56.016Z" transform="translate(-42.48 -42.48)" fill="#f3b0c2"/>
      <path id="Path_2239" data-name="Path 2239" d="M63.535,111.961H58.119A38.72,38.72,0,0,1,50,103.842V56.016A6.016,6.016,0,0,1,56.016,50h7.52a6.016,6.016,0,0,0-6.016,6.016v49.93A6.016,6.016,0,0,0,63.535,111.961Z" transform="translate(-42.48 -42.48)" fill="#f3b0c2"/>
      <path id="Path_2240" data-name="Path 2240" d="M72.5,87.974V78.14a5.646,5.646,0,0,1,5.64-5.64h9.835a1.128,1.128,0,1,1,0,2.256H78.14a3.388,3.388,0,0,0-3.384,3.384v9.835a1.128,1.128,0,1,1-2.256,0Zm15.474,37.463H78.14a3.388,3.388,0,0,1-3.384-3.384v-9.835a1.128,1.128,0,0,0-2.256,0v9.835a5.646,5.646,0,0,0,5.64,5.64h9.835a1.128,1.128,0,1,0,0-2.256Zm.091-40.906a1.128,1.128,0,0,0-1.128,1.128v6.016a1.128,1.128,0,0,0,2.256,0V85.659A1.128,1.128,0,0,0,88.065,84.531Zm7.612,21.022a1.133,1.133,0,0,0,.3-.041l1.789-.5a4.968,4.968,0,0,0,3.627-4.772V85.659a1.128,1.128,0,0,0-2.256,0v14.584a2.705,2.705,0,0,1-1.975,2.6l-1.789.5a1.128,1.128,0,0,0,.3,2.215Zm17.978,4.874a1.128,1.128,0,0,0-1.6,0,16.909,16.909,0,0,1-23.927,0,1.128,1.128,0,0,0-1.6,1.6,19.164,19.164,0,0,0,27.117,0A1.128,1.128,0,0,0,113.655,110.428Z" transform="translate(-61.597 -61.597)" fill="#fff"/>
      <path id="Path_2241" data-name="Path 2241" d="M129.295,73.663a1.159,1.159,0,0,1-1.175,1.093h-7.184a1.128,1.128,0,0,1,0-2.256h7.232A1.128,1.128,0,0,1,129.295,73.663Zm-1.175,51.775h-7.184a1.128,1.128,0,0,0,0,2.256h7.232a1.128,1.128,0,0,0,1.127-1.163A1.159,1.159,0,0,0,128.12,125.438Zm24.2-32.635a1.128,1.128,0,0,0,1.128-1.128V85.659a1.128,1.128,0,0,0-2.256,0v6.016A1.128,1.128,0,0,0,152.321,92.8Zm1.548,17.647a1.128,1.128,0,0,0-1.616-.022,16.952,16.952,0,0,1-17.035,4.189,1.129,1.129,0,0,0-1.472,1.073v0a1.121,1.121,0,0,0,.778,1.072,19.215,19.215,0,0,0,19.287-4.7A1.16,1.16,0,0,0,153.87,110.45Zm8.377-37.95h-9.835a1.128,1.128,0,0,0,0,2.256h9.835a3.388,3.388,0,0,1,3.384,3.384v9.835a1.128,1.128,0,1,0,2.256,0V78.14A5.646,5.646,0,0,0,162.247,72.5Zm4.512,38.591a1.128,1.128,0,0,0-1.128,1.128v9.835a3.388,3.388,0,0,1-3.384,3.384h-9.835a1.128,1.128,0,0,0,0,2.256h9.835a5.646,5.646,0,0,0,5.64-5.64v-9.835A1.128,1.128,0,0,0,166.759,111.091ZM140.427,84.532a1.159,1.159,0,0,0-1.093,1.175v14.536a2.706,2.706,0,0,1-1.148,2.207,1.128,1.128,0,0,0,1.285,1.853,4.969,4.969,0,0,0,2.119-4.06V85.659A1.128,1.128,0,0,0,140.427,84.532Z" transform="translate(-101.79 -61.597)" fill="#fff"/>
    </g>
  </g>
</svg>
