<svg xmlns="http://www.w3.org/2000/svg" xmlns:xlink="http://www.w3.org/1999/xlink" width="677.654" height="110.753" viewBox="0 0 677.654 110.753">
  <defs>
    <filter id="AIhoumonkango" x="110.29" y="60.376" width="567.364" height="50.377" filterUnits="userSpaceOnUse">
      <feOffset dy="3" input="SourceAlpha"/>
      <feGaussianBlur stdDeviation="3" result="blur"/>
      <feFlood flood-color="#f1a1b4" flood-opacity="0.31"/>
      <feComposite operator="in" in2="blur"/>
      <feComposite in="SourceGraphic"/>
    </filter>
  </defs>
  <g id="img_home" transform="translate(-585.711 -454.62)">
    <g id="Group_1256" data-name="Group 1256" transform="translate(20 34)">
      <g transform="matrix(1, 0, 0, 1, 565.71, 420.62)" filter="url(#AIhoumonkango)">
        <path id="AIhoumonkango-2" data-name="AIhoumonkango" d="M51.269,33.68H65.515V31.23H54.174V8.058H51.269Zm20.266,0H74.37v-18.9H71.535ZM72.97,10.718a1.883,1.883,0,0,0,1.96-2,1.978,1.978,0,0,0-3.955,0A1.874,1.874,0,0,0,72.97,10.718ZM83.121,33.68h2.87V17.124h4.06V14.779h-4.06V11.523c0-2.52.875-3.85,2.73-3.85a5.181,5.181,0,0,1,2.17.525l.63-2.205a7.754,7.754,0,0,0-3.045-.63c-3.605,0-5.355,2.31-5.355,6.125v3.29l-2.59.175v2.17h2.59Zm19.531.455a11.034,11.034,0,0,0,6.2-1.925l-1.05-1.89a8.33,8.33,0,0,1-4.8,1.54c-3.78,0-6.3-2.8-6.475-7h12.916a8.281,8.281,0,0,0,.14-1.715c0-5.46-2.73-8.856-7.456-8.856-4.34,0-8.436,3.815-8.436,9.941C93.692,30.46,97.682,34.135,102.652,34.135Zm-6.16-11.376c.385-3.885,2.87-6.16,5.67-6.16,3.08,0,4.9,2.135,4.9,6.16Zm36.438,11.376c5.285,0,8.611-3.15,8.611-7.175,0-3.815-2.38-5.565-5.32-6.86l-3.71-1.575c-1.96-.84-4.27-1.82-4.27-4.445,0-2.415,2-3.92,4.97-3.92a8.238,8.238,0,0,1,5.915,2.45l1.54-1.855a10.205,10.205,0,0,0-7.456-3.15c-4.55,0-7.911,2.8-7.911,6.685,0,3.745,2.835,5.5,5.215,6.51l3.71,1.645c2.45,1.085,4.375,1.96,4.375,4.725,0,2.625-2.135,4.41-5.635,4.41a9.908,9.908,0,0,1-7.176-3.255l-1.75,2A11.967,11.967,0,0,0,132.929,34.135Zm20.056,0a11.522,11.522,0,0,0,3.36-.7l-.56-2.17a5.989,5.989,0,0,1-2.205.525c-2.275,0-2.975-1.4-2.975-3.71V17.124h5.215V14.779h-5.215V9.423h-2.38l-.35,5.355-2.975.175v2.17h2.87V27.974C147.77,31.65,149.031,34.135,152.986,34.135Zm12.356,0a10.134,10.134,0,0,0,6.37-2.765h.105l.245,2.31h2.345V21.954c0-4.55-1.82-7.665-6.405-7.665a13.754,13.754,0,0,0-7.351,2.485l1.155,2a10.233,10.233,0,0,1,5.74-2.1c3.255,0,4.06,2.52,4.025,5.075-8.121.91-11.726,2.94-11.726,7.07C159.846,32.245,162.226,34.135,165.342,34.135Zm.77-2.31c-1.925,0-3.5-.91-3.5-3.185,0-2.59,2.275-4.2,8.961-4.97V29.2C169.647,30.915,168.037,31.825,166.112,31.825Zm16.276,1.855h2.835V21.359c1.3-3.29,3.255-4.48,4.865-4.48a4.905,4.905,0,0,1,1.785.315l.56-2.485a4.083,4.083,0,0,0-2-.42c-2.135,0-4.06,1.575-5.355,3.955h-.105l-.28-3.465h-2.31ZM223.131,6.343h-2.94a11.853,11.853,0,0,1,.245,2.38v3.745H210.53a24.311,24.311,0,0,1-2.87-.175v2.66c.91-.07,1.82-.105,2.905-.105h9.871V30.915c0,.945-.42,1.365-1.365,1.365a25.644,25.644,0,0,1-4.1-.42l.245,2.485a44.2,44.2,0,0,0,4.83.245c2.065,0,2.905-.875,2.905-2.66V14.849h9.486c.805,0,1.82,0,2.7.07V12.293a18.464,18.464,0,0,1-2.73.175h-9.451V8.723A21.518,21.518,0,0,1,223.131,6.343ZM230.1,19.294l-2.135,1.12a55.119,55.119,0,0,1,5.88,9.311l2.31-1.3A71.208,71.208,0,0,0,230.1,19.294Zm-14.561,1.015-2.17-1.05a35.827,35.827,0,0,1-6.72,9.136l2.17,1.505A51.391,51.391,0,0,0,215.535,20.309Zm28.492-1.61v3.045c1.05-.07,2.8-.14,4.725-.14h19.286c1.575,0,2.975.105,3.675.14V18.7a36.822,36.822,0,0,1-3.71.175H248.753C246.758,18.874,245.042,18.8,244.027,18.7ZM294.186,7.638l-3.15-.665a20.45,20.45,0,0,1-.665,3.255c-.945,3.43-4.655,14.981-6.546,19.636-.7.07-1.33.105-1.89.14-1.015.035-2.17.07-3.185.035l.49,2.905c.98-.14,1.96-.28,2.835-.35,4.725-.455,16.661-1.785,21.982-2.45.84,1.75,1.54,3.43,2,4.655l2.59-1.19a99.536,99.536,0,0,0-7.736-14.176l-2.345,1.05a50.385,50.385,0,0,1,4.34,7.35c-3.85.49-10.921,1.3-16.241,1.785,1.75-4.445,5.32-15.611,6.336-18.866A26.05,26.05,0,0,1,294.186,7.638Zm46.8.6-2.87-.98c-.14.735-.455,1.82-.665,2.485a40.038,40.038,0,0,1-4.935,9.766c-2.7-2.135-6.861-5.075-9.906-7.035L321,14.429a114.265,114.265,0,0,1,9.941,7.14,39.628,39.628,0,0,1-14,11.131l2.135,1.925a44.027,44.027,0,0,0,13.861-11.411,86.956,86.956,0,0,1,8.331,8.12l1.96-2.1a92.388,92.388,0,0,0-8.681-8.085A46.4,46.4,0,0,0,339.9,10.683,25.938,25.938,0,0,1,340.984,8.233Zm15.821,0v2.625c.875-.07,1.96-.105,3.115-.105H372.1c.98,0,2.17.035,3.185.105V8.233a24.34,24.34,0,0,1-3.185.21H359.886A27.793,27.793,0,0,1,356.805,8.233Zm-4.165,8.786v2.59c.945-.07,1.925-.07,2.975-.07h10.641c-.07,3.36-.455,6.37-2,8.856a14.9,14.9,0,0,1-6.651,5.425l2.31,1.715a17.228,17.228,0,0,0,6.861-6.3,21.924,21.924,0,0,0,2.065-9.7h9.661c.84,0,1.925.035,2.66.07v-2.59a23.8,23.8,0,0,1-2.66.14H355.615A26.52,26.52,0,0,1,352.64,17.019ZM377.072,5.328l-1.715.735a35.551,35.551,0,0,1,2.835,4.83l1.75-.77A45.7,45.7,0,0,0,377.072,5.328Zm3.78-1.365-1.68.735a34.226,34.226,0,0,1,2.905,4.8l1.715-.77A42.6,42.6,0,0,0,380.852,3.963Zm7.421,20.861,1.19,2.31a63.306,63.306,0,0,0,11.131-4.725V33.4c0,1.05-.105,2.415-.14,2.94h2.87a16.653,16.653,0,0,1-.175-2.94V20.869a46.583,46.583,0,0,0,7.946-6.58l-1.96-1.89a34.344,34.344,0,0,1-8.226,7.07A48.451,48.451,0,0,1,388.273,24.824ZM438.256,6.238h-2.905a20.165,20.165,0,0,1,.21,2.87c0,1.3-.07,2.485-.14,3.64h-6.37c-1.33,0-2.73-.105-3.885-.21V15.2c1.19-.105,2.52-.105,3.92-.105h6.09c-.945,7.6-3.64,12.041-7.141,15.121a16.6,16.6,0,0,1-3.4,2.45l2.275,1.855c5.74-3.955,9.451-9.206,10.711-19.426h10.151c0,3.71-.42,12.636-1.82,15.4a1.989,1.989,0,0,1-2.065,1.12,43.609,43.609,0,0,1-5.25-.385l.315,2.59c1.82.105,3.85.21,5.565.21,1.855,0,2.94-.56,3.64-2.03,1.575-3.325,2-13.546,2.135-16.836a10.156,10.156,0,0,1,.175-1.68l-1.785-.91a14.868,14.868,0,0,1-2.135.175h-8.681c.105-1.19.175-2.415.21-3.71C438.116,8.2,438.186,7.043,438.256,6.238Zm37.628,26.707,1.645,1.4a5.391,5.391,0,0,1,1.155-.77,34.831,34.831,0,0,0,11.936-9.731l-1.47-2.1a27.379,27.379,0,0,1-10.5,8.821V10.018a22.419,22.419,0,0,1,.14-2.52h-2.87a18.983,18.983,0,0,1,.175,2.52V31.09A9.672,9.672,0,0,1,475.884,32.945Zm-16-.105,2.345,1.575a19.2,19.2,0,0,0,6.2-9.521c.98-3.5,1.085-11.026,1.085-14.841,0-.98.14-1.96.175-2.415h-2.87a12.157,12.157,0,0,1,.21,2.415c0,3.85,0,10.886-1.05,14.141A16.621,16.621,0,0,1,459.888,32.84ZM504.1,14.149h5.11v-2.17H504.1V4.418h-2.205v7.56h-5.775v2.17h5.5c-1.3,4.935-3.815,10.536-6.265,13.476a15.884,15.884,0,0,1,1.26,2.1,37.477,37.477,0,0,0,5.285-10.746V36.235H504.1V20.1a56.415,56.415,0,0,1,3.745,5.18l1.47-1.89c-.735-.945-4.025-4.76-5.215-5.95Zm8.926,17.641v-6.37h11.061v6.37ZM524.082,8.723v6.125H513.022V8.723Zm-11.061,8.26h11.061v6.3H513.022Zm-2.24-10.466V36.06h2.24V33.925h11.061v2.03h2.275V6.518Zm50.509.14a32.49,32.49,0,0,1-3.045,5.635l1.715.735a55.153,55.153,0,0,0,3.5-5.565Zm-12.461.175a9.3,9.3,0,0,1-2.765,5.74l1.75.91a10.365,10.365,0,0,0,2.975-6.265ZM564.265,18.1a73.02,73.02,0,0,0-9.031-6.125,32.077,32.077,0,0,0,1.015-7.525h-2.24c-.35,7.525-1.4,11.691-8.611,13.9a6.093,6.093,0,0,1,1.33,1.82c4.13-1.4,6.44-3.4,7.771-6.23a66.722,66.722,0,0,1,8.226,5.95ZM560.1,28.394a60.849,60.849,0,0,0,3.85-6.055l-2.275-.84a35.652,35.652,0,0,1-3.325,6.125Zm-13.091.6c1.96-1.505,3.08-4.165,3.535-6.79l-2.065-.455c-.455,2.485-1.575,4.9-3.29,6.09ZM544.034,5.678h-9.871v1.89h9.871Zm1.3,4.585H532.413v1.89h12.916Zm-1.19,4.655H534.023v1.89h10.116Zm-10.116,6.545h10.116v-1.89H534.023Zm8.121,4.725v6.2h-6.125v-6.2Zm2.03-1.96H533.988V35.955h2.03v-1.68h8.156Zm11.936-5.39h-2.345v4.935c0,1.96-1.12,7.805-9.486,10.711a12.341,12.341,0,0,1,1.365,1.82c6.37-2.275,8.786-6.79,9.276-8.891A13.742,13.742,0,0,0,563.25,36.3a15.838,15.838,0,0,1,1.4-1.96c-7.421-2.765-8.541-8.646-8.541-10.571Zm16.416-9.556h25.307v4.13h2.31V7.148h-13.9v-2.7H583.9v2.7H570.286v6.265h2.24Zm13.721,23.941v-4.69h11.271V26.469H586.247V22.234c2.975-.105,6.021-.21,9.031-.315a20.3,20.3,0,0,1,2.135,2.17l1.785-1.33a38.784,38.784,0,0,0-8.261-6.72l-1.645,1.19c1.225.805,2.555,1.785,3.815,2.8-4.655.14-9.311.245-13.406.35,1.155-1.61,2.415-3.57,3.465-5.32h13.651V12.994H573.751v2.065h6.685a51.624,51.624,0,0,1-3.15,5.39l-4.9.105.14,2.135c3.08-.105,7.07-.21,11.376-.35v4.13H573.016v2.065H583.9v4.69H569.831v2.1h30.8v-2.1Z" transform="translate(68.02 62.41)" fill="#f1a1b4"/>
      </g>
      <g id="home" transform="translate(572.156 456.497)">
        <path id="Path_2227" data-name="Path 2227" d="M173.12,206c-4.134,0-7.114,3.459-7.114,7.66,0,4.617,3.553,7.644,8.932,12.227.937.8,1.907,1.624,2.936,2.525a1.422,1.422,0,0,0,1.873,0c1.029-.9,2-1.726,2.936-2.525,5.379-4.583,8.932-7.61,8.932-12.227,0-4.2-2.98-7.66-7.114-7.66a6.759,6.759,0,0,0-5.691,3.172A6.759,6.759,0,0,0,173.12,206Zm7.063,6.779c.011-.039,1.116-3.933,4.319-3.933,2.433,0,4.268,2.07,4.268,4.814,0,3.3-2.986,5.847-7.932,10.061-.656.559-1.328,1.132-2.027,1.735-.7-.6-1.371-1.176-2.027-1.735-4.946-4.214-7.932-6.758-7.932-10.061,0-2.745,1.835-4.814,4.268-4.814,3.162,0,4.27,3.76,4.32,3.937a1.423,1.423,0,0,0,2.743,0Z" transform="translate(-142.388 -176.692)" fill="#f4b5c3"/>
        <circle id="Ellipse_110" data-name="Ellipse 110" cx="1.5" cy="1.5" r="1.5" transform="translate(16.501 12.504)" fill="#f4b5c3"/>
        <path id="Path_2228" data-name="Path 2228" d="M63.707,33.84A5.639,5.639,0,0,0,67.153,35,5.691,5.691,0,0,0,70.6,24.785l-7.15-5.495V1.426A1.423,1.423,0,0,0,62.031,0H53.495a1.423,1.423,0,0,0-1.423,1.423v9.118l-12.2-9.379a5.691,5.691,0,0,0-6.9,0L22.139,9.493a1.423,1.423,0,1,0,1.734,2.256L34.7,3.428a2.846,2.846,0,0,1,3.438,0L68.875,27.045a2.846,2.846,0,0,1-3.438,4.535L37.29,9.933A1.423,1.423,0,0,0,35.6,9.9C35.54,9.941,7.416,31.575,7.413,31.577a2.846,2.846,0,0,1-2.011.565,2.5,2.5,0,0,1-2.478-2.149,2.867,2.867,0,0,1,1.051-2.951l9.75-7.493a1.423,1.423,0,1,0-1.734-2.256L2.246,24.782a5.68,5.68,0,0,0-2.1,5.839,5.307,5.307,0,0,0,4.978,4.353,5.679,5.679,0,0,0,4.012-1.134l0,0c.06-.045.143-.107.255-.192V53.164a8.506,8.506,0,0,0-6.374,6.783,7.094,7.094,0,0,0,4.1,12.9H65.73a7.094,7.094,0,0,0,4.1-12.9,8.505,8.505,0,0,0-6.374-6.784V33.645ZM54.918,2.848h5.691V17.1L54.918,12.73ZM22.765,70H7.115a4.25,4.25,0,0,1-2.079-7.967,1.423,1.423,0,0,0,.717-1.1A5.655,5.655,0,0,1,16.02,58.186a1.423,1.423,0,0,0,1.49.561,4.218,4.218,0,0,1,5.254,4.089,1.436,1.436,0,0,0,.929,1.647A2.835,2.835,0,0,1,22.765,70Zm24.5-7.774a5.651,5.651,0,0,0-2.109,2.084H27.688a5.652,5.652,0,0,0-2.109-2.084,7.215,7.215,0,0,0-.113-.763H47.379A7.248,7.248,0,0,0,47.266,62.226ZM27.692,70a5.656,5.656,0,0,0,.764-2.845H44.39A5.658,5.658,0,0,0,45.153,70Zm39.4-9.072a1.423,1.423,0,0,0,.717,1.1A4.25,4.25,0,0,1,65.73,70H50.081a2.835,2.835,0,0,1-.929-5.517,1.436,1.436,0,0,0,.929-1.647,4.218,4.218,0,0,1,5.254-4.089,1.423,1.423,0,0,0,1.49-.561,5.655,5.655,0,0,1,10.267,2.742Zm-6.484-7.956a8.556,8.556,0,0,0-5.529,2.843,6.405,6.405,0,0,0-.73-.043,7.14,7.14,0,0,0-5.688,2.845H24.184A7.141,7.141,0,0,0,18.5,55.773a6.4,6.4,0,0,0-.73.043,8.555,8.555,0,0,0-5.529-2.843V31.457l24.186-18.6,24.186,18.6Z" transform="translate(0)" fill="#f4b5c3"/>
      </g>
    </g>
    <g id="Group_1255" data-name="Group 1255" transform="translate(209.449 18.613)">
      <line id="Line_216" data-name="Line 216" x2="268.102" transform="translate(609.5 480)" fill="none" stroke="#707070" stroke-width="1" opacity="0.26"/>
      <path id="Path_2128" data-name="Path 2128" d="M23.114-9.925,25.655-7.7q.741.741-.212.953H11.259Q9.777-3.892,7.977-1.033V11.14q0,.529-1.694.741Q4.8,12.092,4.8,11.457V2.142L2.685,3.836A12.727,12.727,0,0,1,.673,5.106q-.635.212-.318-.212.318-.318,1.164-1.27A31.22,31.22,0,0,0,4.8-.5V-3.786l1.482.529A22.928,22.928,0,0,0,7.977-6.75H1.1L.673-7.491H8.189q1.059-3.176,1.694-5.822l3.176,1.27q.953.847.106,1.588l-.423.212q-.423,1.164-1.164,2.752H21.1ZM21.527,9.658l1.905-2.54,2.752,2.329q.423.318.318.529,0,.318-.529.423H8.824l-.318-.741h6.457V1.4H9.671L9.248.66h5.716V-6.009l3.387.423q.635.106.741.423t-1.164,1.27V.66H20.68l1.8-2.329L24.808.448q.741.741-.212.953H17.928V9.658Zm9.59-6.775,9.527-1.059V-2.092l-3.387.635a40.707,40.707,0,0,1-4.975.741q-.741-.106.106-.635a7.323,7.323,0,0,1,.847-.212,68.485,68.485,0,0,0,9.1-3.176,31.046,31.046,0,0,0,4.552-2.435l2.646,2.117q.741.635-.212.847h-1.27a43.217,43.217,0,0,1-4.446,1.27V1.507L50.171.66l1.905-2.646,2.54,1.8q1.059.741-.106,1.059l-10.9,1.376V7.435a1.817,1.817,0,0,0,.106.741.712.712,0,0,0,.635.318,34.3,34.3,0,0,0,3.811,0,25.083,25.083,0,0,0,2.858-.318q.847-.212,1.482-2.117l.318-.953a4.108,4.108,0,0,0,.212-.529q.529-.529.635.529l-.106,1.905a1.8,1.8,0,0,0,.529,1.482l.318.212q.741.529.529,1.164t-2.011.953a54.088,54.088,0,0,1-5.822.423,22.085,22.085,0,0,1-3.917-.106,3.3,3.3,0,0,1-2.117-.847,3.157,3.157,0,0,1-.423-1.905V2.566L31.752,3.624ZM35.88-8.232a4.388,4.388,0,0,1,.106,2.117,2.524,2.524,0,0,1-1.8,2.223A2.606,2.606,0,0,1,32.916-4q-1.164-.635-.529-2.117a6.347,6.347,0,0,1,1.164-1.27A2.745,2.745,0,0,0,34.5-9.29a5.385,5.385,0,0,1,.106-1.059q.423-.212,1.059,1.376h5.716v-3.7l3.281.423q1.376.423.212,1.27l-.529.212v1.8h6.88l.953-1.482L55.146-7.6q.847.847-.318,1.164H53.134Q51.758-5.162,50.7-4.315q-.953.847-.529-.847.529-1.482,1.059-3.07ZM64.736,9.658V10.5q0,.847-1.059,1.164a4.123,4.123,0,0,1-1.482.212.5.5,0,0,1-.423-.529V-11.513l3.6,1.482h14.5l2.011-2.54,2.54,2.329q.635.741-.318.953H64.736V8.917H80.508l2.223-2.54,2.646,2.329q.741.741-.318.953Zm5.5-4.869A8.376,8.376,0,0,0,71.828.237H65.583L65.265-.5h6.669q.106-1.588.106-4.022H70.029a20.23,20.23,0,0,1-3.176,3.281q-.953.529-.635-.212A15.784,15.784,0,0,0,67.7-4.738a34.17,34.17,0,0,0,.953-4.128L71.828-7.6q.741.529.106.953l-.529.212q-.423.635-.847,1.164h6.986l1.694-2.223,2.329,2.117q.635.635-.212.847H75Q74.9-1.457,74.9-.5h4.763l1.8-2.435L83.79-.716q.635.741-.212.953H74.792q-.106.741-.212,1.27,5.5.847,6.457,3.6Q81.567,6.8,80.3,7.435a1.617,1.617,0,0,1-2.011-.847,15.941,15.941,0,0,1-1.059-2.011,6.916,6.916,0,0,0-2.752-2.54q-1.059,3.493-5.293,5.4-2.964,1.27-3.281.953-.212-.212.106-.423a1.857,1.857,0,0,0,.529-.212A10.439,10.439,0,0,0,70.24,4.788ZM99.519.978a13.178,13.178,0,0,1-3.07,1.8q-.212.847-.423,1.8a10.348,10.348,0,0,1-1.376,3.07,15.624,15.624,0,0,1-3.07,3.7q-1.164.741-.741-.212,2.752-3.281,3.176-9.421a21.493,21.493,0,0,0-1.482,1.8l-.106.212q-.318.953-.953,0L89.993,1.613A32.024,32.024,0,0,0,94.121.025a40.9,40.9,0,0,0,0-5.928l-.212-4.975,3.281,1.27h4.975v-3.176l2.752.212q1.905.318.318,1.27l-.318.106v1.588h5.928l1.905-2.117,2.223,2.011q.635.635-.212.847H104.177l1.905.529q.847.529.106,1.059l-.529.212q-.318.635-.635,1.164h5.293l1.8-2.011,2.117,1.905q.529.741,0,.847h-2.858L113.6-3.574q.635.529-.212.741h-.953q-.635.212-1.8.529A18.149,18.149,0,0,0,115.5-.5a5.423,5.423,0,0,0-2.011,2.435,11.9,11.9,0,0,1-2.54-1.8V4.259q0,.741-1.27.847a2.164,2.164,0,0,1-.953,0,.415.415,0,0,1-.318-.423V4.365h-1.8V9.234a2.243,2.243,0,0,1-.953,2.011q-1.694,1.164-2.223.318a2.427,2.427,0,0,1-.212-.741.678.678,0,0,0-.423-.635q-1.8-.741-2.223-.953-.318-.423.529-.318,1.27.106,2.329.106.635,0,.635-1.059v-3.6H102.06v.318q0,.318-.953.529a6.575,6.575,0,0,1-1.27.106l2.646,1.694q.847.529-.212.741h-.953a36.164,36.164,0,0,1-5.61,3.281q-1.588.529-.741-.423a3.154,3.154,0,0,0,.423-.318,19.3,19.3,0,0,0,4.234-5.081.431.431,0,0,1-.106-.318ZM96.767-8.867V-4.95a63.558,63.558,0,0,1-.318,6.88q1.059-.741,1.588-1.164a10.806,10.806,0,0,0,1.694-2.011,1,1,0,0,1-1.059-.847l-.212-.741a3.333,3.333,0,0,0-.847-1.27q-1.059-.953,1.588-.318A2.075,2.075,0,0,1,100.9-2.833a12.282,12.282,0,0,0,1.27-2.329H97.4L97.085-5.9h5.4a23.361,23.361,0,0,0,.847-2.964ZM102.06,3.624h6.351V1.613H102.06Zm0-4.658V.872h6.351V-1.033Zm2.646-4.128a25.628,25.628,0,0,1-2.223,3.387h6.034a12.247,12.247,0,0,1-2.223-3.387Zm2.117,0a10.779,10.779,0,0,0,1.27,1.27,6.71,6.71,0,0,0,1.482,1.059,15.049,15.049,0,0,0,1.376-2.329ZM91.369-3.892a5.429,5.429,0,0,0-.741-2.964q-.318-.847.741-.212A4.988,4.988,0,0,1,93.7-3.786q.318,2.011-1.059,2.223A.942.942,0,0,1,91.475-2.3,7.763,7.763,0,0,1,91.369-3.892ZM110.1,7.541a9.482,9.482,0,0,0-2.223-1.588q-1.376-.741,1.376-.423,3.6.529,4.658,2.329.847,1.694-.423,2.54a1.385,1.385,0,0,1-1.8-.741A13.446,13.446,0,0,0,110.1,7.541Zm46.491,2.54v.953q0,.635-.741.741l-1.482.212a1.618,1.618,0,0,1-.847,0q-.318-.106-.318-.741V-9.4l3.6,1.376h1.905a46.324,46.324,0,0,0,.847-5.293l3.6,1.482a.6.6,0,0,1,.106.953l-.635.423q-1.164,1.27-2.435,2.435h7.833l1.164-1.8,2.752,2.435q.529.423-.106,1.27l-.212.212v16.09a1.033,1.033,0,0,1-.212.741,3.81,3.81,0,0,1-1.8.529q-1.376.212-1.376-.635v-.741Zm0-.741H168.24V4.259H156.6Zm0-5.822H168.24V-1.563H156.6Zm0-10.8V-2.3H168.24V-7.279ZM180.159,2.883l9.527-1.059V-2.092l-3.387.635a40.707,40.707,0,0,1-4.975.741q-.741-.106.106-.635a7.322,7.322,0,0,1,.847-.212,68.486,68.486,0,0,0,9.1-3.176,31.046,31.046,0,0,0,4.552-2.435l2.646,2.117q.741.635-.212.847H197.1a43.219,43.219,0,0,1-4.446,1.27V1.507L199.212.66l1.905-2.646,2.54,1.8q1.059.741-.106,1.059l-10.9,1.376V7.435a1.817,1.817,0,0,0,.106.741.712.712,0,0,0,.635.318,34.3,34.3,0,0,0,3.811,0,25.084,25.084,0,0,0,2.858-.318q.847-.212,1.482-2.117l.318-.953a4.107,4.107,0,0,0,.212-.529q.529-.529.635.529L202.6,7.011a1.8,1.8,0,0,0,.529,1.482l.318.212q.741.529.529,1.164t-2.011.953a54.087,54.087,0,0,1-5.822.423,22.085,22.085,0,0,1-3.917-.106,3.3,3.3,0,0,1-2.117-.847,3.157,3.157,0,0,1-.423-1.905V2.566l-8.892,1.059Zm4.763-11.115a4.388,4.388,0,0,1,.106,2.117,2.524,2.524,0,0,1-1.8,2.223A2.606,2.606,0,0,1,181.958-4q-1.164-.635-.529-2.117a6.347,6.347,0,0,1,1.164-1.27,2.745,2.745,0,0,0,.953-1.905,5.385,5.385,0,0,1,.106-1.059q.423-.212,1.059,1.376h5.716v-3.7l3.281.423q1.376.423.212,1.27l-.529.212v1.8h6.88l.953-1.482L204.187-7.6q.847.847-.318,1.164h-1.694q-1.376,1.27-2.435,2.117-.953.847-.529-.847.529-1.482,1.059-3.07ZM219.706-1.88v3.07a14.083,14.083,0,0,1-.635,4.763,8.364,8.364,0,0,1-3.387,4.128,11.54,11.54,0,0,1-4.34,1.694q-.847,0-.423-.423a30.633,30.633,0,0,0,2.646-1.694,10.629,10.629,0,0,0,1.27-1.27q1.905-2.329,1.905-6.669V-2.939A25.7,25.7,0,0,1,213.46-.293,14.189,14.189,0,0,1,210.39,1.3q-1.059.212-.318-.635a16.645,16.645,0,0,0,2.964-2.54A32.177,32.177,0,0,0,216.212-5.8a29.131,29.131,0,0,0,3.6-7.092l3.6,1.059q1.164.529.318,1.164l-.423.212a17.4,17.4,0,0,0,2.964,3.07,30.418,30.418,0,0,0,8.786,4.552A5.982,5.982,0,0,0,232.3.448a37.779,37.779,0,0,1-6.14-5.4,20.409,20.409,0,0,1-3.387-5.187,35.172,35.172,0,0,1-5.187,6.457l2.435.423q1.164.529.212,1.164Zm7.727,0V10.293q0,.635-.318.741a3.33,3.33,0,0,1-1.588.423q-1.059.106-1.059-.529V-3.68l3.176.423q.847.318.106,1.164Zm19.646-7.3,1.694,1.8q.423.529-.212.741h-9l-.423-.741h6.351ZM242.845,9.552v1.27q0,.423-.741.635a3.674,3.674,0,0,1-1.482.106q-.318,0-.318-.423V1.613l2.54,1.164h2.011L245.7,1.4l2.329,2.011q.635.635-.212.847H247.5v5.4q0,.741-.953.953-1.588.318-1.588-.423V9.552Zm0-.741h2.117V3.518h-2.117ZM240.3.131V-.61h4.658l1.482-1.8,1.27,1.376A21.562,21.562,0,0,0,250.89-7.7l.741.318V-8.973h-2.964l-.423-.741h3.387v-3.07l2.646.212q.635.212.106,1.164l-.212.212v1.482h2.646v-3.07l2.54.212q1.694.318.318,1.164l-.318.106v1.588h.953l1.905-2.117,2.223,2.011q.635.635-.212.847h-4.869v.847q0,.529-1.27.635a1.694,1.694,0,0,1-.847,0q-.423-.106-.423-.423V-8.973h-2.646v1.059a.5.5,0,0,1-.423.529,6.96,6.96,0,0,1-1.694.212l1.164.529q.741.423.318.635a.431.431,0,0,1-.318.106l-.423.212a6.91,6.91,0,0,1-.635.741h3.07q.212-.953.529-2.752l2.223.847q.741.529.106.847l-.318.106-1.059.953h3.281l1.694-1.694,1.8,1.694q.529.529-.106.741h-6.139v1.376h2.223L260.84-4.1l1.588,1.376q.529.529-.106.635h-5.081V-.61h2.117l1.482-1.376L262.428-.5q.423.529-.106.635h-5.081V1.719h3.281L262.216.237l1.905,1.588q.529.423-.106.635h-11.75v.423q0,.529-1.376.741-1.164.212-1.164-.635V-1.986a10.506,10.506,0,0,1-1.694,1.27q.847.847-.212.847Zm11.961,1.588H254.7V.131h-2.435Zm0-2.329H254.7V-2.092h-2.435Zm0-2.223H254.7V-4.209h-2.435ZM240.3-3.151v-.741h4.552l1.588-1.8,1.588,1.8q.423.529-.212.741Zm0-6.88v-.741h4.446l1.482-1.905,1.694,1.8q.529.635-.106.847Zm20.43,15.984q-1.27,1.059-2.646,2.011a43.845,43.845,0,0,0,6.351.741,12.045,12.045,0,0,0-2.223,2.752,23.449,23.449,0,0,1-6.14-2.223,27.715,27.715,0,0,1-8.151,2.54q-1.482.212-1.27-.106a10.183,10.183,0,0,1,1.8-.635,21.632,21.632,0,0,0,5.822-2.964,10.346,10.346,0,0,1-2.964-3.176h-2.223l-.423-.741h10.056l.953-.953L261.9,4.894q.953.741-.318.953Zm-8.786-1.059a8.935,8.935,0,0,0,3.7,2.223q1.059-.847,2.54-2.223Z" transform="translate(610.432 463.319)" fill="#818181"/>
    </g>
    <g id="Group_1268" data-name="Group 1268" transform="translate(-278.141 274.742)">
      <g id="Group_1267" data-name="Group 1267" transform="translate(863.852 179.878)">
        <path id="Path_2232" data-name="Path 2232" d="M881.047,203.393a73.642,73.642,0,0,0-9.352,4.632,1.369,1.369,0,0,1-1.887-.382l-5.8-9.462a1.48,1.48,0,0,1,.754-1.966q1.832-1.076,3.7-2.054-.036-.665-.065-1.332a.738.738,0,0,1,.487-.773c.342-.173.971-.368,1.131-.041a.691.691,0,0,1,.062.278q.016.512.037,1.025,2.832-1.407,5.738-2.6a1.458,1.458,0,0,1,1.992.6l4.013,10.347A1.352,1.352,0,0,1,881.047,203.393ZM876.361,192.4a.538.538,0,0,0-.742-.216,86.208,86.208,0,0,0-9.514,4.71.545.545,0,0,0-.286.726l1.2,2.063a83.191,83.191,0,0,1,10.248-5.074Q876.816,193.508,876.361,192.4Zm1.391,3.378a81.882,81.882,0,0,0-10.092,5l1.44,2.467a79,79,0,0,1,9.74-4.823Zm1.57,3.81a77.858,77.858,0,0,0-9.585,4.745l1.213,2.078a.5.5,0,0,0,.706.151,74.944,74.944,0,0,1,8.281-4.1.5.5,0,0,0,.3-.65Z" transform="translate(-863.852 -183.451)" fill="#f4b5c3"/>
        <path id="Path_2233" data-name="Path 2233" d="M916.348,192.263c-.376,1.823-1.094,2.4-2.375,2.5q-2.536.215-5.056.605a1.973,1.973,0,0,1-2.445-1.745l-.511-2.775q-3.036.859-5.985,1.955c-.521.141-.721-.215-.828-.6-.1-.367.065-.575.436-.711q3.018-1.118,6.129-1.99l-.473-2.571c-1.1.356-2.768.99-3.833,1.245a.98.98,0,0,1-1.144-.561c-.071-.286.184-.456.362-.516,4.718-1.543,8.365-2.551,10.88-3.407a.561.561,0,0,1,.186-.037.845.845,0,0,1,.959.639.468.468,0,0,1-.352.467c-1.992.591-3.657,1.11-5.369,1.649l.427,2.632a80.328,80.328,0,0,1,8.129-1.643c.358-.021.584.125.666.571l.008.155c.018.38-.169.545-.557.6a79.009,79.009,0,0,0-8.026,1.663q.22,1.35.439,2.7c.117.718.475.956,1.1.864q2.166-.324,4.344-.52c1.911-.159.821-2.118,1.895-2.194a1.016,1.016,0,0,1,1.013.9C916.363,192.193,916.346,192.228,916.348,192.263Zm-1.677-8.122c-.619.041-.84-.13-.872-.545q-.04-.518-.079-1.036a.531.531,0,0,0-.629-.436,86.229,86.229,0,0,0-13.306,2.155.533.533,0,0,0-.463.613q.126.5.253,1.008c.1.4-.076.642-.681.8-.625.164-.875.037-.985-.364q-.2-.718-.392-1.436a1.451,1.451,0,0,1,1.232-1.666q3.258-.824,6.559-1.392-.073-.426-.147-.853c-.071-.409.11-.653.782-.763s.942.063,1,.474l.13.856q3.308-.5,6.639-.748A1.444,1.444,0,0,1,915.4,182q.041.743.083,1.487C915.508,183.9,915.29,184.1,914.671,184.14Z" transform="translate(-875.089 -179.983)" fill="#f4b5c3"/>
        <path id="Path_2234" data-name="Path 2234" d="M952.842,184.122a86.252,86.252,0,0,0-13.314-2.156.532.532,0,0,0-.63.436q-.175,2.305-.349,4.609A12.984,12.984,0,0,1,935.536,194a.615.615,0,0,1-.5.188.8.8,0,0,1-.764-.7.614.614,0,0,1,.138-.36,11.339,11.339,0,0,0,2.533-5.336,16.392,16.392,0,0,1-2.256.788.642.642,0,0,1-.611-.708.713.713,0,0,1,.51-.646c.8-.221,1.671-.5,2.495-.814q.131-2.282.261-4.563a1.445,1.445,0,0,1,1.687-1.19q2.752.209,5.489.589.059-.419.117-.84c.057-.411.306-.606,1-.5.674.1.877.364.81.774q-.068.418-.134.837,3.434.551,6.827,1.377c.443.108.632.336.517.788S953.277,184.228,952.842,184.122Zm-16.707.075a.537.537,0,0,1-.424-.243q-.582-.725-1.185-1.441a.456.456,0,0,1-.12-.3c.005-.26.521-.507.819-.5a.559.559,0,0,1,.458.241q.588.715,1.155,1.438a.43.43,0,0,1,.13.3C936.952,183.959,936.423,184.208,936.135,184.2Zm2.764,10.451a.672.672,0,0,1-.587-.623.383.383,0,0,1,.208-.313,13.27,13.27,0,0,0,2.438-1.816.5.5,0,0,1,.435-.142c.282.033.573.3.538.571A8.33,8.33,0,0,1,938.9,194.648Zm12.537-4.169a7.578,7.578,0,0,1-1.468-1.126q-.208.929-.415,1.858a1.288,1.288,0,0,1-1.619.929q-1.069-.219-2.141-.407-.2,1.16-.407,2.319a1.562,1.562,0,0,1-1.895,1.374c-.34-.051-.68-.1-1.021-.148-.358-.049-.519-.21-.459-.673a.509.509,0,0,1,.615-.459c.2.045.4.073.634.108a.69.69,0,0,0,.837-.591q.17-1.078.339-2.155-1.094-.172-2.191-.312a1.284,1.284,0,0,1-1.227-1.4q.1-.938.206-1.876a5.088,5.088,0,0,1-1.522.525.752.752,0,0,1-.689-.737.517.517,0,0,1,.354-.4,16.471,16.471,0,0,0,1.8-.7q-.566-.583-1.148-1.159a.374.374,0,0,1-.14-.273c.019-.207.451-.429.7-.4a.543.543,0,0,1,.334.173q.589.6,1.162,1.207a9.794,9.794,0,0,0,1.817-1.286q-1.629-.225-3.264-.385c-.39-.039-.563-.192-.523-.624.038-.413.239-.552.635-.514q2.063.2,4.117.506c.315-.407.535-.867,1.29-.746.314.051.611.206.561.5-.029.171-.229.348-.338.487q2.814.468,5.6,1.126c.389.092.557.294.459.7-.1.421-.338.505-.722.415q-1.7-.4-3.407-.73a9.328,9.328,0,0,0,1.433,1.917q.824-.442,1.666-.868a.5.5,0,0,1,.354-.059c.242.057.567.386.513.6-.021.084-.077.141-.2.2q-.808.409-1.6.834a13.614,13.614,0,0,0,1.605,1.254.523.523,0,0,1,.238.525A.735.735,0,0,1,951.436,190.479Zm-2.758-1.279c.056-.271-.089-.461-.4-.523q-2.635-.526-5.294-.876c-.316-.041-.513.091-.548.366l-.03.24q3.127.392,6.225,1.031C948.645,189.359,948.661,189.279,948.678,189.2Zm-.27,1.306q-3.054-.63-6.141-1.017c-.011.092-.023.184-.035.275-.034.275.119.451.425.491q2.576.34,5.131.85a.42.42,0,0,0,.563-.328Zm-1.493-5.166q-.744-.131-1.491-.248a14.234,14.234,0,0,1-2.171,1.732q2.59.346,5.16.857A11.344,11.344,0,0,1,946.915,185.34Zm2.392,10.984a.542.542,0,0,1-.33-.272q-.743-1.21-1.543-2.4a.438.438,0,0,1-.1-.339c.047-.238.539-.475.8-.42a.5.5,0,0,1,.313.261q.821,1.176,1.586,2.369a.462.462,0,0,1,.1.364A.848.848,0,0,1,949.307,196.324Z" transform="translate(-887.32 -179.878)" fill="#f4b5c3"/>
        <path id="Path_2235" data-name="Path 2235" d="M981.115,207.837a15.45,15.45,0,0,1-5.856-7.138q-1.362-.617-2.743-1.178l-.723,1.78c1.156.34,2.237.641,3.28.912l.069.031a.4.4,0,0,1,.212.576.661.661,0,0,1-.728.368c-1.611-.424-3.43-.961-6.626-1.752l-.035-.012a.654.654,0,0,1-.374-.826.487.487,0,0,1,.6-.307c.73.218,1.436.4,2.123.593l1.931-5.045a1.133,1.133,0,0,1,.392-.517,15.234,15.234,0,0,1-3.2.2.918.918,0,0,1-.61-.991.5.5,0,0,1,.473-.28,14.029,14.029,0,0,0,4.751-.529q-1.79-.708-3.6-1.33c-.312-.107-.429-.274-.314-.619a.431.431,0,0,1,.634-.315q3.651,1.252,7.2,2.85l.419-.931q-2.554-1.15-5.163-2.123c-.336-.125-.453-.3-.323-.654.125-.342.333-.413.674-.286q2.639.984,5.225,2.148.213-.473.426-.947-3.133-1.41-6.345-2.56c-.346-.125-.469-.3-.344-.655.12-.343.332-.416.682-.29q1.9.679,3.768,1.449a3.74,3.74,0,0,1-.173-1.1c.116-.289.63-.249.961-.112.808.336.834,1.35.895,1.924q1.849.806,3.667,1.7.547-.31,1.1-.613a.793.793,0,0,1,.835,0c.3.153.864.585.718.862a.567.567,0,0,1-.264.213q-.365.19-.728.382,1.745.9,3.458,1.892c.329.19.432.412.248.725-.193.329-.425.333-.75.145q-2.994-1.727-6.086-3.2l-.446.938q2.537,1.206,5.009,2.587c.324.181.426.4.246.715s-.416.341-.735.162q-2.443-1.365-4.95-2.557l-.439.923q3.513,1.671,6.9,3.687a.451.451,0,0,1,.2.7c-.188.311-.414.316-.7.143q-1.64-.977-3.313-1.872a14.262,14.262,0,0,0,2.683,3.937.517.517,0,0,1,.126.583.918.918,0,0,1-1.17.164,15.1,15.1,0,0,1-2.068-2.751,1.152,1.152,0,0,1-.115.765l-.973,1.776a1.4,1.4,0,0,1-1.91.449q-1.2-.626-2.408-1.207a9.938,9.938,0,0,0,1.616,2.434q1.4-.335,2.836-.614a.69.69,0,0,1,.487.056c.24.135.571.666.439.89a.5.5,0,0,1-.333.187q-1.258.214-2.49.471a20.8,20.8,0,0,0,2.745,2.195.417.417,0,0,1,.149.557A.856.856,0,0,1,981.115,207.837Zm-.2-11.033q-2.5-1.263-5.062-2.347a13.423,13.423,0,0,1-2.021.647,1.79,1.79,0,0,1,.3.082q1.483.6,2.947,1.26l.121-.268c.156-.347.412-.462.976-.2.545.253.643.531.479.875l-.126.266q1.426.677,2.832,1.413a1.444,1.444,0,0,1,.4.292A12.622,12.622,0,0,1,980.91,196.8Zm-.316,2.913a.518.518,0,0,0-.282-.692q-2.9-1.485-5.88-2.721a.512.512,0,0,0-.7.235c-.057.139-.113.278-.169.417q3.469,1.41,6.827,3.161Zm-.632,1.212q-3.316-1.731-6.749-3.124l-.359.882q3.135,1.274,6.179,2.833a.512.512,0,0,0,.713-.177Z" transform="translate(-898.508 -182.575)" fill="#f4b5c3"/>
      </g>
    </g>
  </g>
</svg>
