<svg xmlns="http://www.w3.org/2000/svg" width="249.128" height="83.747" viewBox="0 0 249.128 83.747">
  <g id="no-logo-footer" transform="translate(-0.647 6.486)">
    <path id="Path_2127" data-name="Path 2127" d="M13.956-11.045q0,.116-.124.116l-1.963-.029H6.2A13.723,13.723,0,0,1,4.158-7.68V-2.8L4.187-.891a.1.1,0,0,1-.116.116h-.72a.1.1,0,0,1-.116-.116L3.264-2.8V-6.7A18.105,18.105,0,0,1,1.556-5.237a.558.558,0,0,1-.225.116q-.065,0-.2-.2A1.616,1.616,0,0,0,.647-5.79a13.249,13.249,0,0,0,2.6-2.173,7.792,7.792,0,0,0-.087-.85q.487.029.741.058a11.389,11.389,0,0,0,1.33-2.2H3.206l-1.963.029q-.124,0-.124-.116v-.647q0-.116.124-.116l1.963.029h2.37a11.77,11.77,0,0,0,.443-1.381,3.334,3.334,0,0,0,.138-.887q0-.044-.007-.116a8.634,8.634,0,0,1,.952.2q.2.058.2.2a.319.319,0,0,1-.116.2A1.558,1.558,0,0,0,6.928-13q-.167.589-.4,1.221H11.87l1.963-.029q.124,0,.124.116ZM14-1.508a.1.1,0,0,1-.116.116L11.8-1.421H7.08l-2.072.029a.1.1,0,0,1-.116-.116V-2.17a.1.1,0,0,1,.116-.116l2.072.029H8.73V-6.044H7.676l-1.955.029A.1.1,0,0,1,5.6-6.131v-.632a.1.1,0,0,1,.116-.116l1.955.029H8.73V-7.89a14.623,14.623,0,0,0-.1-2.028,8.97,8.97,0,0,1,1,.087q.182.029.182.124a1.411,1.411,0,0,1-.058.269,6.174,6.174,0,0,0-.109,1.519v1.068h1.446l1.933-.029a.1.1,0,0,1,.116.116v.632a.1.1,0,0,1-.116.116l-1.933-.029H9.639v3.787H11.8l2.086-.029A.1.1,0,0,1,14-2.17ZM33.141-6.451v.044q0,.087-.124.1-.022.007-.254.029-.734.087-1.737.211L26.665-5.5v2.8a.684.684,0,0,0,.611.778,13.546,13.546,0,0,0,2.072.116,3.926,3.926,0,0,0,2.173-.4,1.289,1.289,0,0,0,.4-.669,5.269,5.269,0,0,0,.145-1.178,3.132,3.132,0,0,0,.7.313q.254.08.254.2,0,.036-.015.16a2.638,2.638,0,0,1-.814,1.875,4.973,4.973,0,0,1-2.8.538,13.739,13.739,0,0,1-2.682-.182,1.2,1.2,0,0,1-.712-.5,1.5,1.5,0,0,1-.254-.88V-5.383l-2.98.393q-.887.109-1.49.218l-.313.058a.892.892,0,0,1-.116.015.313.313,0,0,1-.058.007q-.087,0-.1-.109l-.08-.683v-.044q0-.073.124-.087.952-.08,1.963-.211l3.053-.4V-8.465q-1.81.436-3.336.683a.916.916,0,0,1-.16.022q-.094,0-.225-.254a1.443,1.443,0,0,0-.371-.552,33.375,33.375,0,0,0,7.145-1.679,3.385,3.385,0,0,0,.88-.465,4.435,4.435,0,0,1,.669.567.3.3,0,0,1,.1.211q0,.109-.211.131a2.354,2.354,0,0,0-.487.138q-1.577.56-3.082.967v2.348l4.3-.567q.909-.109,1.519-.211.16-.022.32-.051.094-.015.109-.015a.312.312,0,0,1,.058-.007q.08,0,.094.109Zm-.269-2.958a.1.1,0,0,1-.116.116h-.691q-.131,0-.131-.116v-2.159H21.78v2.159q0,.131-.116.131h-.705q-.116,0-.116-.131l.029-1.577v-.494l-.029-.821a.1.1,0,0,1,.116-.116l2.057.029h3.278v-.2a7.274,7.274,0,0,0-.109-1.534q.538.029.981.094.182.022.182.116a1.016,1.016,0,0,1-.087.269,4.18,4.18,0,0,0-.073,1.054v.2H30.7l2.057-.029a.1.1,0,0,1,.116.116l-.029.72V-11ZM52.537-1.6a.1.1,0,0,1-.116.116l-2.086-.029H41.328V-.84q0,.124-.131.124h-.705q-.116,0-.116-.124l.029-3.038v-6.4L40.376-13.3a.1.1,0,0,1,.116-.116l2.072.029H50.2l2.035-.029q.124,0,.124.116v.676q0,.116-.124.116L50.2-12.535H41.328V-2.359h9.006l2.086-.029a.1.1,0,0,1,.116.116Zm-.5-2.21a2.033,2.033,0,0,0-.392.567q-.1.218-.182.218a.832.832,0,0,1-.2-.051,7.525,7.525,0,0,1-4.332-3.467,4.934,4.934,0,0,1-1.5,2.144,8.325,8.325,0,0,1-2.559,1.359.73.73,0,0,1-.218.065q-.08,0-.2-.2a1.753,1.753,0,0,0-.465-.487,8.192,8.192,0,0,0,2.987-1.49,4.139,4.139,0,0,0,1.214-1.875H44.41l-2.086.029a.1.1,0,0,1-.116-.116v-.581a.1.1,0,0,1,.116-.116l2.086.029h1.963a11.853,11.853,0,0,0,.153-2.057H44.381a13.655,13.655,0,0,1-.967,1.272q-.167.16-.225.16a.684.684,0,0,1-.225-.131,1.569,1.569,0,0,0-.487-.283A8.317,8.317,0,0,0,44.2-11.2a3.749,3.749,0,0,0,.3-.981,5.955,5.955,0,0,1,.85.254q.153.058.153.16t-.138.2a1.763,1.763,0,0,0-.283.487l-.254.494h4.158l1.875-.029a.1.1,0,0,1,.116.116v.567q0,.131-.116.131l-1.875-.029H47.4a15.116,15.116,0,0,1-.167,2.057h2.471l2.1-.029a.1.1,0,0,1,.116.116v.581a.1.1,0,0,1-.116.116l-2.1-.029H47.492A7.6,7.6,0,0,0,52.035-3.805ZM72.441-7.062a2.065,2.065,0,0,0-.356.458q-.131.24-.189.24a.735.735,0,0,1-.225-.073A10.286,10.286,0,0,1,70.079-7.2v1.774l.029,1.207q0,.116-.124.116l-1.919-.029h-.727v.923l.022,1.374a.936.936,0,0,1-.393.88,2.749,2.749,0,0,1-1.207.182h-.313a.529.529,0,0,1-.269-.036.7.7,0,0,1-.087-.247,1.33,1.33,0,0,0-.225-.538,8.169,8.169,0,0,0,.938.058.94.94,0,0,0,.582-.116.5.5,0,0,0,.109-.378v-2.1h-.778L63.8-4.1a.1.1,0,0,1-.116-.116l.029-1.308V-7a12.455,12.455,0,0,1-1.163.72.774.774,0,0,1-.182.073q-.058,0-.16-.153a1.6,1.6,0,0,0-.393-.4,15.564,15.564,0,0,1-.247,2.021A9.416,9.416,0,0,1,59.91-1.007q-.138.167-.189.167t-.2-.167a1.608,1.608,0,0,0-.538-.414A7.27,7.27,0,0,0,60.746-5.1a10.023,10.023,0,0,0,.182-1.294q-.538.313-1.163.611a1.508,1.508,0,0,0-.523.342.228.228,0,0,1-.189.116q-.087,0-.153-.131-.153-.349-.327-.843a6.736,6.736,0,0,0,1.221-.422q.981-.436,1.192-.538.029-.7.029-2.246l-.029-3.249a.1.1,0,0,1,.116-.116l2.115.029h2.74v-.247a5.1,5.1,0,0,0-.116-1.192q.56.022.967.073.2.029.2.124a.9.9,0,0,1-.094.262,2.269,2.269,0,0,0-.073.705v.276h3.046l2.086-.029a.1.1,0,0,1,.116.116v.6a.1.1,0,0,1-.116.116l-2.086-.029h-8v2.675q0,1.766-.044,2.559a13.286,13.286,0,0,0,1.9-1.17,10.2,10.2,0,0,0-1.018-1.032.167.167,0,0,1-.051-.087q0-.036.116-.124l.276-.2a.308.308,0,0,1,.131-.065.165.165,0,0,1,.094.051,10.043,10.043,0,0,1,1.047.989,6.387,6.387,0,0,0,1.236-1.49h-.865l-2.1.029a.1.1,0,0,1-.116-.116v-.523a.1.1,0,0,1,.116-.116l2.1.029h1.236l.131-.283a3.789,3.789,0,0,0,.283-1.032,6.563,6.563,0,0,1,.85.211q.153.051.153.138a.221.221,0,0,1-.109.174,1.558,1.558,0,0,0-.3.509l-.131.283h2.849l2.1-.029q.124,0,.124.116v.523q0,.116-.124.116l-2.1-.029H68.1a5.555,5.555,0,0,0,1.4,1.49,5.753,5.753,0,0,0,.756-.64,1.635,1.635,0,0,0,.342-.458,3.848,3.848,0,0,1,.611.414.216.216,0,0,1,.094.153q0,.116-.138.145a1.242,1.242,0,0,0-.443.283,6.952,6.952,0,0,1-.64.487A10.116,10.116,0,0,0,72.441-7.062ZM69.286-4.8V-5.826h-4.8V-4.8Zm0-1.665V-7.483h-4.8v1.018Zm-.545-1.686A6.757,6.757,0,0,1,67.28-9.969h-.8a7.186,7.186,0,0,1-1.359,1.817Zm-3.62,4.928q0,.1-.167.182a1,1,0,0,0-.189.153l-.167.145a9.764,9.764,0,0,1-1.977,1.432.587.587,0,0,1-.225.087q-.087,0-.225-.2a1.241,1.241,0,0,0-.429-.385,7.554,7.554,0,0,0,2.035-1.25,2.806,2.806,0,0,0,.581-.712A4.259,4.259,0,0,1,65-3.4.219.219,0,0,1,65.121-3.224ZM71.729-2a2.228,2.228,0,0,0-.414.48q-.124.2-.211.2a2.048,2.048,0,0,1-.225-.1,11.106,11.106,0,0,1-2.246-1.737.126.126,0,0,1-.036-.073q0-.058.138-.153l.283-.211q.116-.1.16-.1a.146.146,0,0,1,.08.044A8.717,8.717,0,0,0,71.729-2ZM60.637-9.133a.221.221,0,0,1,.022.08q0,.036-.153.131l-.371.225a.474.474,0,0,1-.167.065q-.051,0-.087-.1a10.492,10.492,0,0,0-1-2.333.179.179,0,0,1-.029-.08q0-.051.167-.145l.313-.174a.433.433,0,0,1,.174-.073q.044,0,.094.087A10.748,10.748,0,0,1,60.637-9.133Zm30.122.727q1.43-.855,3.277-1.82l.5.882a29.9,29.9,0,0,0-4.467,2.5,3.407,3.407,0,0,0-1.71,2.716q0,1.806,2.887,1.806,1.485,0,3.393-.137v1.006q-2.346.068-3.462.068-3.783,0-3.783-2.757,0-2.087,2.476-3.7-.588-2.141-1.088-5.028l1.033-.041A41.17,41.17,0,0,0,90.759-8.406Zm29.093.036a2.728,2.728,0,0,0-.429.618q-.124.225-.2.225A.823.823,0,0,1,119-7.6a13.922,13.922,0,0,1-3.736-2.442,14.84,14.84,0,0,1-2.377-2.886,13.118,13.118,0,0,1-2.631,3.293,16.39,16.39,0,0,1-3.176,2.144,1.264,1.264,0,0,1-.24.1q-.058,0-.2-.225a1.939,1.939,0,0,0-.443-.567,11.907,11.907,0,0,0,5.88-5.2,4.791,4.791,0,0,0,.371-.909,6.422,6.422,0,0,1,.923.174q.211.073.211.2a.169.169,0,0,1-.1.145.335.335,0,0,0-.138.109,13.731,13.731,0,0,0,2.98,3.329A13.6,13.6,0,0,0,119.852-8.37Zm-8.41-.2q0,.015-.058.283a6.845,6.845,0,0,0-.087,1.4,9.3,9.3,0,0,1-.283,2.5,5.066,5.066,0,0,1-.676,1.461A6.437,6.437,0,0,1,107.692-.8a.587.587,0,0,1-.225.087q-.051,0-.211-.225a2.142,2.142,0,0,0-.516-.545,5.305,5.305,0,0,0,2.827-2.013,6.374,6.374,0,0,0,.785-3.409,11.808,11.808,0,0,0-.1-1.875q.516.029,1.01.08Q111.442-8.675,111.442-8.566Zm4.179-.029a.509.509,0,0,1-.036.145q-.029.1-.036.138a11.686,11.686,0,0,0-.073,1.694v3.772l.029,1.9q0,.1-.116.1h-.749q-.116,0-.116-.1l.029-1.9V-6.6a16.4,16.4,0,0,0-.1-2.217,8.906,8.906,0,0,1,1.01.094Q115.622-8.7,115.622-8.6Zm22.994,2.98q0,.116-.124.116l-1.9-.029h-3.14l-1.926.029a.1.1,0,0,1-.116-.116L131.434-7V-9a8.251,8.251,0,0,1-.683.778q-.16.16-.218.16t-.2-.182a.972.972,0,0,0-.356-.313,8.7,8.7,0,0,0,1.708-2.006,2.562,2.562,0,0,0,.356-.894,4.006,4.006,0,0,1,.749.233q.131.058.131.153,0,.073-.131.16a2.076,2.076,0,0,0-.342.48h2.079a2.672,2.672,0,0,0,.254-.494,2.059,2.059,0,0,0,.138-.531,6.8,6.8,0,0,1,.727.174q.131.044.131.138,0,.073-.1.145a.573.573,0,0,0-.16.225l-.2.342h1.221l1.774-.029a.1.1,0,0,1,.116.116v.451a.1.1,0,0,1-.116.116L136.544-9.8h-1.207V-9h.879l1.694-.029q.124,0,.124.116v.422q0,.116-.124.116L136.216-8.4h-.879v.785h.894l1.694-.029q.124,0,.124.131v.407q0,.116-.124.116l-1.694-.029h-.894v.865h1.25l1.9-.029q.124,0,.124.116Zm-4.034-.538v-.865h-2.4v.865Zm0-2.842V-9.8h-2.4V-9Zm0,1.381V-8.4h-2.4v.785Zm4.674,5.989a1.622,1.622,0,0,0-.313.509q-.116.262-.24.262a1.536,1.536,0,0,1-.167-.015,12.324,12.324,0,0,1-3.765-1.068A14.114,14.114,0,0,1,130.9-.818q-.16.022-.2.022-.124,0-.218-.247a1.622,1.622,0,0,0-.3-.509,14.864,14.864,0,0,0,3.831-.85,6.965,6.965,0,0,1-1.672-1.679q-.6.007-1.061.022l-.32.007a.1.1,0,0,1-.116-.116v-.509a.1.1,0,0,1,.116-.116l1.861.029h3.78a.817.817,0,0,0,.283-.029.576.576,0,0,1,.153-.058q.145,0,.4.254.254.233.254.371a.207.207,0,0,1-.131.174,1.412,1.412,0,0,0-.392.327,8.079,8.079,0,0,1-1.606,1.337A14.505,14.505,0,0,0,139.255-1.625Zm-2.769-2.457h-3.264a6.3,6.3,0,0,0,1.548,1.308A6.607,6.607,0,0,0,136.485-4.082Zm-6.593,2.995q0,.116-.124.116h-.581a.1.1,0,0,1-.116-.116V-1.6h-1.948V-.8q0,.1-.116.1h-.6q-.124,0-.124-.1l.029-2.188v-.9L126.288-5.2a.1.1,0,0,1,.116-.116l1.228.029h.9l1.243-.029a.1.1,0,0,1,.116.116l-.036,1.09v.938Zm-.821-1.221V-4.561h-1.948v2.253Zm9.9-9.951q0,.116-.124.116l-2.035-.029h-.342l.029.7a.109.109,0,0,1-.124.124h-.6q-.116,0-.116-.124,0-.022.015-.233t.014-.465h-2.144l.029.7q0,.124-.116.124h-.581q-.116,0-.116-.124,0-.022.007-.233t.022-.465h-.153l-2.035.029q-.124,0-.124-.116v-.509q0-.116.124-.116l2.035.029h.153v-.291a5.637,5.637,0,0,0-.073-.952,5.57,5.57,0,0,1,.829.087q.167.029.167.116a.384.384,0,0,1-.044.138,1.1,1.1,0,0,0-.124.56v.342h2.144v-.291a4.336,4.336,0,0,0-.087-.952,6.4,6.4,0,0,1,.865.087q.16.029.16.116a.384.384,0,0,1-.044.138,1.123,1.123,0,0,0-.116.545v.356h.342l2.035-.029q.124,0,.124.116Zm-8.664,1.592q0,.138-.124.138l-1.483-.029h-1.374l-1.49.029q-.116,0-.116-.138v-.625q0-.1.116-.1l1.49.029H128.7l1.483-.029q.124,0,.124.1Zm-.3-2.006q0,.116-.124.116l-1.25-.029H127.61l-1.25.029a.1.1,0,0,1-.116-.116v-.581a.1.1,0,0,1,.116-.116l1.25.029h1.025l1.25-.029q.124,0,.124.116ZM129.7-6.6q0,.109-.138.109l-1.112-.029h-.792l-1.127.029q-.124,0-.124-.109v-.589a.109.109,0,0,1,.124-.124l1.127.029h.792l1.112-.029q.138,0,.138.124Zm0-2.035q0,.116-.138.116l-1.112-.029h-.792l-1.127.029q-.124,0-.124-.116V-9.22q0-.116.124-.116l1.127.029h.792l1.112-.029q.138,0,.138.116Zm20.821,2.2v2.944h-1V-5.979q-.342.174-.705.378-1.9,1.076-1.9,2.159a.986.986,0,0,0,.669,1,6.8,6.8,0,0,0,2.21.247q1.563,0,3.627-.182l.044,1.01q-2.711.138-3.6.138a6.251,6.251,0,0,1-3.155-.545,1.884,1.884,0,0,1-.749-1.7q0-1.555,2-2.711.756-.429,1.548-.821-.073-1.4-.967-1.4-1.25,0-3.431,2.515l-.77-.683a17.382,17.382,0,0,0,3.082-4.4q-1.359.022-2.726,0v-.909q1.57.029,3.14,0a13.309,13.309,0,0,0,.669-1.992l1.076.2a15.292,15.292,0,0,1-.625,1.752q2.093-.065,3.976-.254l.029.909q-2.442.2-4.4.254a15.2,15.2,0,0,1-1.25,2.115l-.378.385.044.058a2.649,2.649,0,0,1,1.774-.756,1.617,1.617,0,0,1,1.185.451,2.107,2.107,0,0,1,.56,1.294q1.163-.531,3.024-1.316l.414,1.018Q151.506-6.873,150.517-6.437Zm22.224,4.754a1.837,1.837,0,0,0-.443.654q-.109.24-.218.24a1.375,1.375,0,0,1-.2-.029,16.866,16.866,0,0,1-5.815-2.529,18.322,18.322,0,0,1-5.677,2.515,1.011,1.011,0,0,1-.2.036q-.08,0-.2-.247a2.1,2.1,0,0,0-.4-.567,17.912,17.912,0,0,0,5.742-2.319,10.367,10.367,0,0,1-2.617-3.663q-.763.007-1.323.022-.1,0-.291.007h-.087a.1.1,0,0,1-.116-.116v-.661q0-.1.116-.1l2.072.029h2.471V-10.8h-3.663l-1.977.029q-.124,0-.124-.116v-.661q0-.116.124-.116l1.977.029h3.663v-.64a8.955,8.955,0,0,0-.116-1.8q.618.029,1.039.087.211.029.211.153a.507.507,0,0,1-.036.153,1.375,1.375,0,0,0-.058.145,4.891,4.891,0,0,0-.1,1.207v.7h3.918l1.977-.029a.1.1,0,0,1,.116.116v.661a.1.1,0,0,1-.116.116l-1.977-.029H166.49v2.384h2.471a1.008,1.008,0,0,0,.371-.058.548.548,0,0,1,.153-.029q.116,0,.4.283t.283.422q0,.087-.145.189a1.139,1.139,0,0,0-.313.356,12.666,12.666,0,0,1-2.893,3.322A16.259,16.259,0,0,0,172.741-1.683Zm-3.947-5.909h-5.088a9.17,9.17,0,0,0,2.384,3.126A10.984,10.984,0,0,0,168.794-7.592Zm11.659-6.258q2.559.531,5.568.865l-.24,1.01a49.575,49.575,0,0,1-5.6-.938ZM178.4-10.34q2.835-.08,7.189-.458l.625.785q-1.054.959-3.692,3.663a1.281,1.281,0,0,1,.48-.087,1.412,1.412,0,0,1,1.127.581,2.812,2.812,0,0,1,.552,1.352,5.576,5.576,0,0,0,.516,1.933,1.026,1.026,0,0,0,.858.283,15.806,15.806,0,0,0,1.817-.1v1.054q-.734.065-1.817.065a2.109,2.109,0,0,1-1.846-.647,5.424,5.424,0,0,1-.523-1.948,3.869,3.869,0,0,0-.363-1.337.715.715,0,0,0-.647-.371,1.245,1.245,0,0,0-.7.182,3.049,3.049,0,0,0-.625.632q-1.032,1.287-2.609,3.5l-1-.509a81.771,81.771,0,0,1,6.622-8.025q-3.038.313-5.895.4ZM192.579-12.9q1.97-.015,6.055-.211l.625.778q-2.9,2.944-4.6,4.419l-.669.581.058.044.763-.516a4.906,4.906,0,0,1,2.1-.567,3.771,3.771,0,0,1,2.878,1.061,3.265,3.265,0,0,1,.858,2.348,3.526,3.526,0,0,1-1.359,3.024,5.653,5.653,0,0,1-3.424.9q-2.915,0-2.915-1.977a1.728,1.728,0,0,1,.625-1.4,2.31,2.31,0,0,1,1.519-.48,2.45,2.45,0,0,1,1.89.8A3.663,3.663,0,0,1,197.82-2.3a2.742,2.742,0,0,0,1.337-1.039,3.107,3.107,0,0,0,.385-1.635,2.372,2.372,0,0,0-.923-1.992,2.839,2.839,0,0,0-1.774-.56,5.209,5.209,0,0,0-3.6,1.446,13.237,13.237,0,0,0-1.236,1.294l-.879-.712q3.562-3.663,6.52-6.673-2.137.16-5.073.24ZM196.773-2a3.216,3.216,0,0,0-.661-1.519,1.356,1.356,0,0,0-1.047-.5,1.19,1.19,0,0,0-.858.32.881.881,0,0,0-.291.661.925.925,0,0,0,.494.88,3.054,3.054,0,0,0,1.381.24A6.418,6.418,0,0,0,196.773-2Z" transform="translate(0 7.808)" fill="#fff" opacity="0.95"/>
    <g id="Group_956" data-name="Group 956" transform="translate(1.77 20.14)">
      <path id="_パス_1380-2" d="M22.2,78.066H2.72V40.77H6.784V74.593H22.2Z" transform="translate(-2.72 -38.316)" fill="#fff"/>
      <path id="_パス_1381-2" d="M55.752,46.993a2.637,2.637,0,0,1-2.642-2.631v-.155a2.669,2.669,0,1,1,5.336-.12V44.2a2.6,2.6,0,0,1-2.39,2.786,1.792,1.792,0,0,1-.3,0Zm2.058,31.375H53.746V51.688h4.064V78.363Z" transform="translate(-24.227 -38.618)" fill="#fff"/>
      <path id="_パス_1382-2" d="M81.958,49.558c0-3.33,0-7.686,2.935-10.672a8.806,8.806,0,0,1,6.167-2.4,9.821,9.821,0,0,1,3.966.785l-.682,3.181a7.62,7.62,0,0,0-3.084-.636c-4.207,0-5.239,3.915-5.239,8.225v1.519h6.46v3.181h-6.46V76.239H81.958V52.744H78.29V49.563h3.668Z" transform="translate(-34.975 -36.488)" fill="#fff"/>
      <path id="_パス_1383-2" d="M136.416,84.358a19.29,19.29,0,0,1-8.368,1.662c-7.789,0-12.438-5.48-12.438-13.458,0-8.368,4.7-14.392,11.893-14.392,8.225,0,10.329,7.537,10.329,12.186,0,.929-.052,1.616-.1,2.253H119.582c.052,7.388,4.259,10.174,9.056,10.174a16.872,16.872,0,0,0,7-1.37l.785,2.935h0Zm-2.6-14.776c.052-3.622-1.467-8.322-6.706-8.322-4.9,0-7.05,4.648-7.44,8.322Z" transform="translate(-50.905 -45.743)" fill="#fff"/>
      <path id="_パス_1384-2" d="M217.4,44.955a12.661,12.661,0,0,0-6.557-1.714c-5.187,0-7.147,3.181-7.147,5.875,0,3.668,2.253,5.525,7.245,7.635,6.018,2.545,9.1,5.629,9.1,10.965,0,5.921-4.31,10.472-12.335,10.472a17.171,17.171,0,0,1-8.907-2.35l1.129-3.376a15.166,15.166,0,0,0,8.03,2.3c4.992,0,7.927-2.694,7.927-6.706,0-3.668-2.012-5.921-6.855-7.881-5.629-2.1-9.446-5.382-9.446-10.523,0-5.68,4.6-9.836,11.406-9.836a15.182,15.182,0,0,1,7.635,1.76l-1.221,3.376h0Z" transform="translate(-86.413 -37.904)" fill="#fff"/>
      <path id="_パス_1385-2" d="M254.3,49.81l4.012-1.37v6.213h6.9v3.181h-6.9V73.253c0,3.376,1.026,5.239,3.622,5.239a8.073,8.073,0,0,0,2.74-.39l.247,3.135a10.275,10.275,0,0,1-3.966.636c-6.46,0-6.66-5.875-6.66-8.712V57.84h-4.11V54.659h4.11V49.816Z" transform="translate(-108.343 -41.59)" fill="#fff"/>
      <path id="_パス_1386-2" d="M310.192,79.119a37.5,37.5,0,0,0,.39,6.362h-3.72l-.4-3.428h-.149a9.276,9.276,0,0,1-7.881,4.012,7.4,7.4,0,0,1-7.784-6.987c-.011-.2-.011-.4-.006-.6,0-6.408,5.583-9.887,15.464-9.836,0-2.253,0-7.342-6.07-7.342a11.58,11.58,0,0,0-6.511,1.909l-.98-2.791a15.152,15.152,0,0,1,8.139-2.253c7.537,0,9.5,5.336,9.5,10.621V79.119Zm-4.012-7.486c-5.044,0-11.355.734-11.355,6.362,0,3.428,2.155,4.941,4.6,4.941a6.517,6.517,0,0,0,6.752-6.265V71.627Z" transform="translate(-125.614 -45.742)" fill="#fff"/>
      <path id="_パス_1387-2" d="M358.991,62.276a11.47,11.47,0,0,0-1.467-.1c-4.408,0-6.66,4.356-6.66,8.861V85.53H346.8v-18.7c0-2.837-.052-5.434-.195-7.979h3.571L350.376,64h.149a7.984,7.984,0,0,1,7.239-5.726,9.6,9.6,0,0,1,1.221.149v3.869h0Z" transform="translate(-149.502 -45.785)" fill="#fff"/>
    </g>
    <g id="_グループ_125" transform="translate(218.824 4.063)">
      <path id="_パス_1407" d="M408.464,12.468a.517.517,0,0,0-.069-.138C408.327,12.536,408.464,12.468,408.464,12.468Z" transform="translate(-392.92 -10.1)" fill="#fff"/>
      <path id="_パス_1408" d="M407.534,16.14l-.034.315.034-.281Z" transform="translate(-392.546 -11.727)" fill="#fff"/>
      <path id="_パス_1409" d="M406.661,17.775h.034s.178,0,.206-.069h0l-.138-.281h0l.069-.315a.763.763,0,0,0-.315.069h0l.138.281a9.513,9.513,0,0,1-.315,1.043c.138-.1.206-.453.281-.728h.034Zm.138-.315-.069.241Z" transform="translate(-392.051 -12.141)" fill="#fff"/>
      <path id="_パス_1410" d="M405.329,20.76h0a.49.49,0,0,1-.069.241c.069-.034,0,.241.1-.241Z" transform="translate(-391.59 -13.699)" fill="#fff"/>
      <path id="_パス_1412" d="M404.733,22.241V21.96s-.1.281-.1.178c-.069.281,0,.241.1.1Z" transform="translate(-391.309 -14.211)" fill="#fff"/>
      <path id="_パス_1414" d="M404.969,22.15l-.069.315s.069,0,0-.138V22.15Z" transform="translate(-391.436 -14.292)" fill="#fff"/>
      <path id="_パス_1415" d="M405.02,22.835l.034-.1.075-.522-.1.625h0Z" transform="translate(-391.488 -14.317)" fill="#fff"/>
      <path id="_パス_1417" d="M401.885,26.058s-.178-.1-.034-.138a3.442,3.442,0,0,0-.59.1h.625Z" transform="translate(-389.883 -15.901)" fill="#fff"/>
      <path id="_パス_1418" d="M400.77,26.225s.178-.034.281-.069A.379.379,0,0,0,400.77,26.225Z" transform="translate(-389.673 -16)" fill="#fff"/>
      <path id="_パス_1424" d="M401.437,26.374s-.315.034-.487.034h.59s.1-.069-.1-.069h0Z" transform="translate(-389.75 -16.08)" fill="#fff"/>
      <path id="_パス_1428" d="M399.86,26.333a.843.843,0,0,1,.241.034C400.032,26.367,399.86,26.3,399.86,26.333Z" transform="translate(-389.285 -16.073)" fill="#fff"/>
      <path id="_パス_1430" d="M402.8,26.4a.332.332,0,0,0-.206.069h.206Z" transform="translate(-390.45 -16.106)" fill="#fff"/>
      <path id="_パス_1431" d="M396.673,26.662s.768.1.487.178c-.453.034-.384,0-.59-.069.178.1-.59.138-.487.281l.384-.069s-.138.069,0,.069c0-.069.418-.138.768-.069.35-.069.1-.315-.178-.453,0,0,0,.069-.35.1h0l-.029.029Z" transform="translate(-387.669 -16.161)" fill="#fff"/>
      <path id="_パス_1432" d="M397.8,26.443h.8a3.5,3.5,0,0,1-.487-.1c-.241.034-.281.069-.315.1Z" transform="translate(-388.406 -16.08)" fill="#fff"/>
      <path id="_パス_1434" d="M402.536,26.82h-.556l.281.1h0c.315,0,.241-.069.281-.1Z" transform="translate(-390.19 -16.285)" fill="#fff"/>
      <path id="_パス_1435" d="M397.427,26.383l.069-.1-.315.138.241-.034h0Z" transform="translate(-388.141 -16.055)" fill="#fff"/>
      <path id="_パス_1436" d="M396.212,26.409l.034-.069-.206.034.178.034h0Z" transform="translate(-387.655 -16.08)" fill="#fff"/>
      <path id="_パス_1437" d="M405.029,45.24l-.069.138.138-.178h-.069Z" transform="translate(-391.462 -24.13)" fill="#fff"/>
      <path id="_パス_1439" d="M392.46,27.1l.069-.034S392.46,27.07,392.46,27.1Z" transform="translate(-386.126 -16.392)" fill="#fff"/>
      <path id="_パス_1441" d="M409.891,22.444s-.35.35-.206.241l.384-.281h-.1a3.783,3.783,0,0,1,.694-.59c.384-.206.315-.1.487-.206,0,0,.069,0,.206-.138l.837-.59-.625.281c.178-.206.694-.487,0-.138.138-.069.315-.138.487-.241a3.482,3.482,0,0,1-.487-.034v-.069a1,1,0,0,0-.241-.138c-.1,0-.138,0-.453.138a.233.233,0,0,0-.206-.138,1.467,1.467,0,0,0-.693.178h-1.181a6.227,6.227,0,0,1-.8.069h0a.561.561,0,0,0-.206-.178.856.856,0,0,0-.522.178c-.178-.1-.837-.034-1.072-.206.1.034-.034.069-.241.069-.35-.1-.768-.241-.871-.281a.172.172,0,0,1-.1-.034c-.138-.034-.241,0-.659.281h-.487a5.793,5.793,0,0,1-.768-.069h-.1c-.35-.1-.837-.206-.974-.241v-.149h0a2.178,2.178,0,0,0-.034-.384,8.022,8.022,0,0,0-.138-.906.689.689,0,0,0-.212-.132h-.178l-.069-.138.069-.281a4.1,4.1,0,0,0,.178-1.29.62.62,0,0,0-.206-.138c-.138,0-.138-.034-.59.241l-.1-.241v-.075a7.39,7.39,0,0,0-.034-1.009.62.62,0,0,0-.206-.138h-.138l.1-.315a3.811,3.811,0,0,0,.35-1.318.62.62,0,0,0-.206-.138.742.742,0,0,0-.384.1v-.069c-.046-.034-.1-.069-.138-.1l-.069-.138a8.369,8.369,0,0,1-.418-.8.288.288,0,0,0-.206-.138h-.206a.325.325,0,0,0-.034-.206.329.329,0,0,0-.178-.138.511.511,0,0,0-.315.069h-.04l.138.281-.138.069-.034-.178c0,.1-.281.728-.418,1.146a4.083,4.083,0,0,0-.418,1.393.621.621,0,0,0,.206.138c.1,0,.138.034.625-.241a5.216,5.216,0,0,1-.418.453c-.384.384-.659.694-.906.974l.069-.1v-.178a1.879,1.879,0,0,0-.1.35c-.556.59-.694.8-.728.94a1.279,1.279,0,0,1-.1.281c.034-.069.1-.178.138-.178h0v.034h.034s.1.138.206.138a4.67,4.67,0,0,0,1.393-.659c-.241.241-.487.453-.694.694-.694.694-1.146,1.112-1.427,1.427h0s-.206.241-.281.315v-.126s-.1.281-.178.281h.069c-.138.178-.1.241,0,.35,0,0,.034.069.069.069h0v.1h0V20.18h.138l-.069.1a.113.113,0,0,0,.1-.069h0s.522-.241,2.19-1.181c.728-.418,1.737-1.009,1.983-1.112a.225.225,0,0,0,.138-.034.082.082,0,0,0,.069-.034s.069,0,.069.034a1.285,1.285,0,0,0,.1.35l.069-.1a1.037,1.037,0,0,1,.069.418c.241.206-.206-.659,0-.453a1.429,1.429,0,0,0,.1.556c-.241,0-.728.206-5.6,2.958-1.181.694-2.539,1.462-3.514,1.983.206-.241.453-.487.659-.728,1.181-1.272,1.725-1.995,1.634-2.155a.617.617,0,0,0-.138-.1h-.1s.241-.069-.034-.1h.35a1.319,1.319,0,0,1-.332-.04h-.694a2.846,2.846,0,0,0,.625,0c-.1.069-.384.1-.281.206-.1.034-.241.138-.453.241h-.034c-.281.178-.694.384-1.29.728-.418.241-.94.522-1.29.728l.1-.384c.241-1.009.281-1.146.241-1.25h.206c.034-.069-.069-.069-.241-.069a.483.483,0,0,0-.138-.1,1.913,1.913,0,0,1,.625-.034c-.206-.1-.1,0-.418-.1.281.178-1.112,0-.659.178a1.275,1.275,0,0,0-.281-.1.267.267,0,0,0,0-.315.288.288,0,0,0-.206-.138,4.077,4.077,0,0,0-.94.418h-.069l-.178.1-.138.069a1.291,1.291,0,0,0-.59.069c-.315,0,.069-.034-.138-.1l-.315.069-.281-.069-.206-.138h0a2.736,2.736,0,0,1-.418-.241c-.034,0-.069-.069-.138-.069a.774.774,0,0,0-.453.138l-.138.069a1.291,1.291,0,0,1-.206-.138.262.262,0,0,0-.138-.069.511.511,0,0,0-.315.069h-.069l.069.206h-.138l.178.1h-.069s0,.1.069.138v.138h.178c.138.069.315.206.625.418.281.178.59.418.694.487.1.1.206.1.384.034.069.034.138.1.206.138a3.914,3.914,0,0,0,.241.625.329.329,0,0,0,.178.138.853.853,0,0,0,.1.241.289.289,0,0,0,.206.138h.206c.1.1.241.241.453.487s.487.522.522.556a.182.182,0,0,0,.178.1.579.579,0,0,0,.418-.138h0s.35.1.728.206h.069c-.138.241-.1.315,0,.418a.227.227,0,0,0,.183.126.927.927,0,0,0,.35-.069,13.815,13.815,0,0,0,1.215.871q0,.178.069.206a.289.289,0,0,0,.206.138.678.678,0,0,0,.281-.034l.418.522c.138.206.315.384.384.487a2.147,2.147,0,0,0-.1.241c0,.034-.034.069-.034.138-.034.138-.069.315-.1.487h0c-1.072,1.25-1.559,1.96-1.462,2.121a.621.621,0,0,0,.206.138c.1,0,.138,0,.522-.178,0,.069.069.034.138,0V30.1c-.069,0-.1.1-.138.178-.694.522-.625.625-.522.8,0,.069.069.1.138.138a.274.274,0,0,0,0,.281h.04c-.1.315-.241.694-.35.974l-.206.556h0c-.206.556-.206.59-.138.694h0c0,.178-.069.315-.069.556l-.1.069c-.017.115-.04.235-.069.35a.537.537,0,0,1-.138.35,3.313,3.313,0,0,0-.178.384,18.682,18.682,0,0,0,1.668-1.043c.35-.241.728-.487,1.072-.694a7.694,7.694,0,0,1,.728-.418c-.315-.069.522-.206.453-.384.1,0,.241-.069.1.069.453-.384.8-.418,1.043-.768.1,0-.069.138,0,.138,0-.034.138-.138.206-.138s-.034.069-.1.178c.487-.35.453-.522.384-.659a.874.874,0,0,0,.556-.418c.1,0,.315-.069,0,.138.178-.1,1.112-.659,1.072-.768.069,0,.241-.178.281-.206l.418-.281a1.292,1.292,0,0,0,.206-.138h0a.561.561,0,0,0,.206.178.678.678,0,0,0,.281-.034c.315.281.384.315.487.35l.069.069c.241.241.522.556.556.59a.182.182,0,0,0,.178.1.488.488,0,0,0,.281-.069h0a1.806,1.806,0,0,1-.034.35,4.428,4.428,0,0,0-.1,1.29A.62.62,0,0,0,400.9,33l1.25-.59.1-.069h0s-.178.069.069.241c0,.034.138.1.241.138-.281.35-.241.384-.138.522a.288.288,0,0,0,.206.138c.138,0,.138.034.728-.281a1.279,1.279,0,0,1,.315.241c-.069-.1-.1-.206.1-.1a1.884,1.884,0,0,1,.418.35,3.29,3.29,0,0,0,.069,1.009.288.288,0,0,0,.206.138c.138,0,.138.034.906-.384.315.178.728.418.94.522a.9.9,0,0,0,0,.35.288.288,0,0,0,.206.138h.069a.248.248,0,0,0,.206-.069,1.783,1.783,0,0,0,.453.315c-.069-.138-.1-.315-.178-.487h.034s.206-.281.1-.418c0-.034-.069-.069-.1-.1h0s.178-.281.1-.418c0-.034-.069-.069-.1-.1A3.015,3.015,0,0,0,407.243,33a.288.288,0,0,0-.206-.138c-.1,0-.138,0-.522.178-.034-.1-.034-.138-.069-.138l-.057-.086a4.54,4.54,0,0,0-.241-.659.99.99,0,0,0-.206-.281c0-.138.034-.034.069-.034l-.069-.241c.453-.768.418-.8.35-.94a.289.289,0,0,0-.206-.138.742.742,0,0,0-.384.1c.069-.206.1-.418.178-.59v-.069a.9.9,0,0,0,.1-.241,1.979,1.979,0,0,0,.138-.871.288.288,0,0,0-.206-.138,2.918,2.918,0,0,0-.768.315,3.11,3.11,0,0,0-.241-.59s.034,0,.069.069a5.571,5.571,0,0,1-.384-1.358c0-.1-.069-.206-.069-.315V26.7h-.069v-.069a1.186,1.186,0,0,0,.069-.281h0s.178-.178.138-.281l.728-.522h0c1.25-.871,2.539-1.668,3.72-2.47H408.9l.418-.315c.138-.034.206,0-.069.178.1,0,.206-.1.315-.206.069-.1.178-.241.178-.241.418-.241.418-.206.281-.069h0l-.143.029Zm1.215-.871-.178.1C411.135,21.5,411.106,21.538,411.106,21.573Zm-18.3,3.892h0s-.1-.178-.206-.178h-.1v-.178h.1a.145.145,0,0,0,.069.138.233.233,0,0,0,.206.138c.241.069.453,0,4.488-2.367.453-.241.94-.556,1.393-.8-.522.384-1.043.8-1.5,1.181-1.88,1.5-2.786,2.19-3.2,2.574h0a2.152,2.152,0,0,0-.206-.138s-.069-.069-.1-.069l-.069-.069s-.281-.418-.35-.35a.543.543,0,0,1-.178.59c-.138-.178-.241-.35-.315-.418h0l-.029-.057Zm7.789-5.984a.621.621,0,0,0,.206.138h.138a1.032,1.032,0,0,1,.034.418c.138.35.069-.138.206.206v.1l.069.069h0a.4.4,0,0,0-.178-.069c-.206-.034-.281-.069-4.1,2.155-.522.315-1.072.625-1.634.94.522-.418,1.112-.837,1.634-1.215,2.121-1.565,3.129-2.367,3.617-2.78h0v.034Zm3.519,6.053v-.1l.59-.384c-.315.241.069.178-.487.487l.178-.281-.315.241h0l.029.034Zm-1.009.694h.1c-.8.418-2.19,1.181-4.729,2.642.974-.59,1.983-1.215,2.923-1.777.974-.59,1.846-1.112,2.608-1.6l-.1.069-.1.069-.138.1s-.35.241-.625.418v.069h.069Zm.625,3.863a.621.621,0,0,0,.206.138h.138c-.315.178-.659.384-1.112.625l-.487.281a4.5,4.5,0,0,0,.35-.384c.35-.35.59-.625.837-.871,0,.178.034.178.069.206h0Zm-2.258.625s.069.1,0,.1Zm.138,0a.617.617,0,0,0-.138-.069v-.1c.281-.138.728-.418,1.5-.871l.1-.069c-.241.241-.487.522-.694.728-.241.241-.453.487-.625.659-.1-.138-.138-.206-.138-.281h0Zm-1.53-1.914a.171.171,0,0,0-.034-.1h0c.837-.522,1.634-.974,2.327-1.358h0a.256.256,0,0,0,.241,0h0c-.241.138-.625.384-1.249.728-.418.241-.906.522-1.215.694h0l-.069.034Zm3.3-1.393a.172.172,0,0,0-.034-.1c0-.034-.069-.069-.1-.1h0l.1-.069.069.138v.1h-.034v.034Zm-.109.35c-.178.556-.178.59-.1.694a.233.233,0,0,0,.206.138h.069v.1c-.206.138-.487.281-.8.487-.206.138-.453.281-.694.418.12-.166.246-.332.384-.487.556-.728.837-1.112.974-1.318h0ZM404,31.024a2.579,2.579,0,0,0-.871.384l.138-.069c.281-.178.625-.35.906-.522l-.206.206Zm.625,1.393a.324.324,0,0,1-.1-.069l.178-.1-.1.178h.029Zm.178-.911s-.453.241-.871.487a6.07,6.07,0,0,1,.453-.487l.315-.35s.069.206.1.35ZM401.156,25.6c-1.88,1.072-4,2.3-5.7,3.267,1.318-.837,2.854-1.805,4.241-2.677a80.132,80.132,0,0,0,7.13-4.66h0a1.438,1.438,0,0,0,.625-.241h0s.1.35.138.522v.069c-1.393.768-3.479,1.949-6.505,3.72h.069Zm.206-4.866h0v.241a.145.145,0,0,0-.069-.138C401.294,20.8,401.363,20.765,401.363,20.73Zm-.1.138c.069.178.138.384.206.556h.871c-.8.453-1.914,1.072-3.548,2.018-.8.453-1.668.974-2.47,1.427.418-.35.906-.694,1.318-1.043a44.751,44.751,0,0,0,3.617-2.963h0Zm4.207.424H405.4a1.394,1.394,0,0,1,.487-.069c-.768.384-2.224,1.215-5.078,2.889-1.25.728-2.711,1.565-3.966,2.3.59-.384,1.215-.8,1.805-1.215,3.376-2.258,4.866-3.3,5.5-3.823a8.433,8.433,0,0,0,1.318-.069Zm-6.328,2.642c.556-.315,1.146-.659,1.737-1.009-.871.59-1.777,1.215-2.608,1.777-2.19,1.462-3.41,2.3-4.1,2.814v-.069h-.034l.206-.138s0-.034-.069-.069v-.069h.069s.138-.138.138-.241c.281-.35.384-.487.35-.59.625-.315,1.846-1.009,4.282-2.436h0l.029.034Zm-5.285,3.749h0l-.069.069v-.069Zm.206.837a70.363,70.363,0,0,0,6.534-3.617c-.418.281-.837.522-1.25.8-2.608,1.634-4.345,2.745-5.531,3.479.315-.487.281-.556.206-.659h.04Zm-.728-.178a.189.189,0,0,0,.069.138v.069l-.138.1v-.138l.069-.138h0Zm-.906,3.617h0l.1-.281s.1.034.1.069v-.315s.034-.206.034-.241c.069,0,.138-.069.206-.1a.467.467,0,0,1,.034-.178c1.146-.556,3.514-1.88,8.592-4.832,1.634-.94,3.479-1.983,5.044-2.889-1.668,1.043-3.651,2.258-5.462,3.336-5.176,3.164-7.583,4.66-8.7,5.422h.04Zm12.833-7.228a2.083,2.083,0,0,1-.178.206l-.069-.069.241-.138h0Zm-5.6,4.8s-.1-.1-.178-.1h-.069l.178-.1v.069a.233.233,0,0,0,.206.138c.178.034.206.034,1.88-.94l.453-.241-.281.384a14.87,14.87,0,0,0-1.146,1.6c-.178-.1-.384-.178-.59-.315-.241-.206.1,0,0-.138l-.206-.069-.281-.281h0l.034-.011Zm9.01-8.345.138.069h.1l.069-.069h.034l-.768.384-.063-.229a1.816,1.816,0,0,1,.453-.178h0l.029.029Zm-6.534-.8-.069-.069Zm-2.923-7.291h0l-.1.069.069-.138v.069Zm-.418.94c.138-.384.241-.659.315-.871l.069.1s-.069.384-.178.384a.887.887,0,0,1,.178.487l-.315.178-.241.138.178-.418h0Zm-.1,1.943c.35-.35.59-.659.8-.871,0,.034.034.069.069.1,0,.138-.1-.1-.1,0a1.037,1.037,0,0,1,.281.522c-.138,0-.35.138-1.462.768h-.069l.487-.487h0v-.034Zm-.871,2.608-.344.206.487-.487c.94-.94,1.5-1.462,1.777-1.805h.241a4.068,4.068,0,0,1,.178.625v.241h0c-.178-.034-.206-.069-2.327,1.181h0l-.011.034Zm-2.333,3.536c.94-.522,1.949-1.112,2.854-1.634-.522.418-1.112.837-1.633,1.215a24.208,24.208,0,0,0-3.966,3.164.225.225,0,0,1-.1-.1l.1.1v.069a.408.408,0,0,1-.178-.034v-.1a3.484,3.484,0,0,0-.138-.94c.694-.384,1.7-.94,3.061-1.737h0Zm-3.548,0,.487-.281c-.206.206-.384.418-.556.625-.556.59-.94,1.009-1.181,1.29h-.178v-.063c-.281-.178-.453-.35-.659-.487.178,0,.281,0,2.121-1.072h0l-.029-.011Zm-3.1.281c-.241-.315.384.241.206-.034a.519.519,0,0,1-.315-.1l-.241-.1h0l.59-.35c.241-.143.522-.315.8-.453l-.1.453c-.206.94-.241,1.072-.206,1.181-.069-.069-.178-.1-.241-.178,0-.069-.281-.281-.1-.241a.681.681,0,0,1-.35-.178h-.04Zm-.178.149c-.132-.04-.258-.086-.384-.138l-.138-.069.281-.138s.487.281.659.384c-.069.069-.206.069-.418,0h0v-.034Zm1.043-1.805c-.206.1-.522.281-.94.522-.315.178-.694.418-1.009.556h0l-.1-.3s.418-.206.974-.522l.281-.178h.069a2.48,2.48,0,0,1,.384-.206h.206l.1.1a1.007,1.007,0,0,0-.453,0,3.482,3.482,0,0,1,.487.034h0Zm-.59,2.677h0l-.069-.069h0l-.069-.069.069.069.138.069Zm6.534,8.07a1.067,1.067,0,0,1,.315-.178A.666.666,0,0,1,395.654,31.489Zm.659,0s-.034-.034,0-.138l-.069.069c-.206.069-.178-.034-.069-.178l.241-.069s.138-.281.069-.35l-.138.138v-.069l-.138.138H396l-.728.384a8.412,8.412,0,0,1-1.393,1.427c.138-.206-.069-.178-.138-.281.281,0,.556-.418.94-.659-.206.138-.206.034-.178,0l-.625.556a1.791,1.791,0,0,0-.419.138c.138,0,0,.138-.138.281a1.417,1.417,0,0,1-.281.206l-.069.069h-.034l-.069.1v-.1s0-.034.069-.069a.545.545,0,0,1,.206-.138.153.153,0,0,0-.132.069h-.069v.069h-.034a.517.517,0,0,1-.069.138.325.325,0,0,1-.281.241c.069-.034.1-.034.1-.1a.779.779,0,0,1-.281.206c-.069.034-.1,0-.069-.034h.034a4.705,4.705,0,0,0-.59.35v-.241l.241-.138s.35-.206.418-.241h.034s.206-.281.1-.418l-.069-.069c.59-.315,1.668-.906,3.72-2.052h.034V30.8h0a.288.288,0,0,1,.138.034h.069a.288.288,0,0,0,.138-.034,1.41,1.41,0,0,1-.315.35,3.1,3.1,0,0,0,.315-.069l-.453.384h0l.178.029Z" transform="translate(-382.763 -10.132)" fill="#fff"/>
      <path id="_パス_1442" d="M405.08,44.647h.069Q405.149,44.613,405.08,44.647Z" transform="translate(-391.513 -23.887)" fill="#fff"/>
      <path id="_パス_1444" d="M393.735,26.34h-.315a3.1,3.1,0,0,1,.315.069S393.666,26.374,393.735,26.34Z" transform="translate(-386.536 -16.08)" fill="#fff"/>
      <path id="_パス_1446" d="M389.067,26.517c.206,0,0-.1.138-.069.069-.034-.241,0-.418,0-.178.034-.178.069.241.034h0l.034.034Z" transform="translate(-384.51 -16.12)" fill="#fff"/>
      <path id="_パス_1448" d="M410.218,12.588l-.178-.138a.958.958,0,0,1,.069.241l.1-.1h0Z" transform="translate(-393.63 -10.152)" fill="#fff"/>
      <path id="_パス_1450" d="M398.659,19.42l-.069.034h.034Z" transform="translate(-388.743 -13.127)" fill="#fff"/>
      <path id="_パス_1451" d="M398.495,19.343h.1s-.138-.069-.1-.1C398.392,19.343,398.564,19.274,398.495,19.343Z" transform="translate(-388.688 -13.05)" fill="#fff"/>
      <path id="_パス_1454" d="M398.77,18.7h.069a.147.147,0,0,1,.034-.069C398.839,18.63,398.8,18.63,398.77,18.7Z" transform="translate(-388.82 -12.789)" fill="#fff"/>
      <path id="_パス_1457" d="M398.659,18.88s0,.034-.069.069C398.624,18.949,398.728,18.949,398.659,18.88Z" transform="translate(-388.743 -12.896)" fill="#fff"/>
      <path id="_パス_1459" d="M398.58,18.519h.034s0-.034.069-.069a.326.326,0,0,0-.1.069Z" transform="translate(-388.739 -12.713)" fill="#fff"/>
      <path id="_長方形_143" d="M398.35,18.987l.138-.017h0Z" transform="translate(-388.641 -12.935)" fill="#fff"/>
      <path id="_パス_1461" d="M398.58,18.3h.034l.069-.034-.1.034Z" transform="translate(-388.739 -12.636)" fill="#fff"/>
      <path id="_パス_1462" d="M398.58,18.159s.069-.069.1-.069h-.1Z" transform="translate(-388.739 -12.559)" fill="#fff"/>
      <path id="_パス_1464" d="M398.539,18.39l-.069.069h0a.066.066,0,0,0,.069-.069Z" transform="translate(-388.692 -12.687)" fill="#fff"/>
      <path id="_パス_1465" d="M398.434,18.484h0l-.034-.034Z" transform="translate(-388.662 -12.713)" fill="#fff"/>
      <path id="_パス_1467" d="M398.1,18.879a.267.267,0,0,1,.178-.069A.247.247,0,0,0,398.1,18.879Z" transform="translate(-388.534 -12.866)" fill="#fff"/>
      <path id="_パス_1469" d="M398.28,18.364s.069,0,.069-.034h-.069V18.4h0Z" transform="translate(-388.611 -12.661)" fill="#fff"/>
      <path id="_パス_1476" d="M397.507,18.2a.147.147,0,0,1,.034-.069c-.069.069-.138,0-.281.1h.069s-.069,0-.069.034c.069-.034.138-.034.1,0a1.447,1.447,0,0,0,.418-.241h-.1s-.069.1-.138.1h0l-.029.069Z" transform="translate(-388.175 -12.533)" fill="#fff"/>
      <path id="_パス_1477" d="M398.16,18.09v.069h0l.069-.069Z" transform="translate(-388.559 -12.559)" fill="#fff"/>
      <path id="_パス_1478" d="M398.05,18.21h-.1c-.069.034-.138,0-.206.1h.109c-.034-.034.034,0,.069-.069h.069l.069-.034Z" transform="translate(-388.38 -12.61)" fill="#fff"/>
      <path id="_パス_1479" d="M397.8,19.034l.034-.034Z" transform="translate(-388.406 -12.947)" fill="#fff"/>
      <path id="_パス_1480" d="M398,18.75a1.333,1.333,0,0,0-.178.138h.034a.147.147,0,0,0-.069.034.172.172,0,0,0,.1-.034h0l.1-.1h0V18.75Z" transform="translate(-388.401 -12.841)" fill="#fff"/>
      <path id="_パス_1482" d="M398.169,17.994l.069-.034-.138.034Z" transform="translate(-388.534 -12.503)" fill="#fff"/>
      <path id="_パス_1483" d="M398.2,17.9h-.069l-.034.034Z" transform="translate(-388.534 -12.478)" fill="#fff"/>
      <path id="_パス_1485" d="M396.82,15.733l.069-.063h-.069Z" transform="translate(-387.987 -11.526)" fill="#fff"/>
      <path id="_パス_1488" d="M397.509,17V16.93C397.475,16.964,397.406,17.033,397.509,17Z" transform="translate(-388.258 -12.064)" fill="#fff"/>
      <path id="_パス_1490" d="M397.55,16.957s.034-.069,0-.034h0s.034.017.034.034Z" transform="translate(-388.299 -12.057)" fill="#fff"/>
      <path id="_パス_1497" d="M394.936,15.918h.1l.206-.138-.315.138Z" transform="translate(-387.181 -11.573)" fill="#fff"/>
      <path id="_パス_1498" d="M390.451,9.291l-.069.069q.1-.052.1,0h0s.034.138.069.241l.075-.069V9.6c.138-.069,0-.034.1-.138-.138.138.1.1-.069.281,0,0,.069-.069.1-.069h0a.325.325,0,0,1-.069.1h0s.069.034.069.069h0a.4.4,0,0,0,.241.1h0s0,.034.069.069h.069c-.069,0-.069.1-.138.1.1,0,.069,0,.241-.069l-.069.069s.1-.034.138,0c-.069,0-.069.069-.178.1-.1.138.206,0,0,.138.206-.1.069-.1.1-.138.034-.069.138-.069.138-.034,0,0-.206.178-.138.241h0s.069,0,0,.069c.1-.069,0,0,.138-.069h-.069s.241-.1.178,0h-.1c0,.034.034,0,0,.034-.138.1-.069,0-.206,0-.034.034.138,0,0,.069.206-.1,0,.069.178,0l-.069.069h-.034s-.034.138,0,.138c-.034-.034.1-.069.138-.138.138,0-.178.178-.1.206a.066.066,0,0,1,.069-.069h0a.119.119,0,0,1-.075.1c.034.034.069-.069.138-.069-.1.069.069,0,.1,0l-.069.069s.178-.1.138,0l-.138.069h.034l-.1.069s.069,0,.069.034c.069-.034.138-.1.178-.069-.034.034-.069.034-.034.069-.069,0-.138.069-.069,0h-.069v.1h.178a.52.52,0,0,1-.178.069h.1s-.069.069-.1.069c0,.034.178,0,.138.034h.034c0,.034-.069.138.069.1l-.1.1s.138-.138.206-.1c.069,0-.1.069-.138.1.069,0,.206-.069.138,0h0l-.069.069a.37.37,0,0,0-.206.069c.241-.138.1.069.35-.034h.1s-.034.069-.069.069h.034l.069.069h.138s-.138.069-.138,0c-.241.178.069,0,0,.138h-.034l-.138.138c.034,0,.178-.178.281-.178,0,0,0,.034.034,0-.1.034-.069.069-.034.069l-.1.069a.467.467,0,0,0,.178-.034l-.149.143c0,.034.138-.1.178-.069,0,.069.034.069.138.069,0,.034-.069,0-.1.069h.069a.4.4,0,0,1,.178-.069c.138-.069-.138.178,0,.1a.113.113,0,0,0-.1.069h.241l-.069.069a.971.971,0,0,1,.315-.1l.069-.069h.1a.325.325,0,0,0-.1.069h0a.4.4,0,0,1-.178.069l.069-.069s-.178.069-.241.1h.034l-.138.1h.069V12.5a1.036,1.036,0,0,1,.418-.069c-.1,0-.178.069-.281.138.1-.069-.069,0-.069-.069,0,0-.069.034-.069.069h.138a.225.225,0,0,0-.1.1c.178-.1.138,0,.206,0-.069,0-.138.069-.138,0-.1.1.241-.069.138,0h0c.069,0,.034.069,0,.069h0a.178.178,0,0,0,.241.069h0l-.206.1.59-.178a2.812,2.812,0,0,1-.556.241.037.037,0,0,0,.034.034,1.73,1.73,0,0,1,.206-.1c-.138.1-.069.069-.178.178,0,0,.241-.138.241-.1a2.168,2.168,0,0,1-.241.1l.241-.069s-.178.1-.241.138c.034,0,0,.034.034.034h.034s.315-.138.35-.069c-.034,0-.281.1-.281.178a4.391,4.391,0,0,1,.659-.206h0s-.556.206-.694.241c-.034.034-.069.034-.034.069-.034.034-.1,0-.1,0v.069a.437.437,0,0,0,.241-.069h-.178s.384-.138.384-.069a2.551,2.551,0,0,1-.281.138h0s.178,0,.1.069c0,0-.138.1-.069.069a4.023,4.023,0,0,1,.659-.35.747.747,0,0,1-.178.178c-.1.069-.281.1-.35.178h.1s-.1.034-.069.069c.138-.069,0,.069.1-.034.034,0,0,.034,0,.069a1.23,1.23,0,0,1,.35-.1.3.3,0,0,0-.08.069v.178a.132.132,0,0,1-.1.069h.069s-.034,0-.138.069c.069-.034.138,0,.178,0,.1-.069,0-.069-.069-.069a.779.779,0,0,1,.453-.1c.069,0-.1.069-.069.069,0,.1.315-.069.241.034a.986.986,0,0,1-.281.138c-.069,0,0-.069,0-.1h0s-.069.034-.069,0c-.069.069.069.138,0,.241a.134.134,0,0,0,.1-.034h0s.138-.034.138-.069h.138l-.1.069s.069-.069,0-.034c.069,0-.1.138.034.069l.069-.069s.206-.034.178,0c.1-.069,0,0,.1-.1-.138.1-.034-.069-.178.034.138-.1.034-.069.138-.178-.034,0-.069.034-.069,0h-.034v.069h-.206a.147.147,0,0,0,.069-.034h-.069s.1-.1.178-.1h0s.034-.1,0-.1h-.1s-.206-.069-.069-.206c0,0-.069,0-.069-.034h.069s0-.138-.034-.1c.178-.138,0-.138,0-.178h-.281v-.1h0c.138-.138-.206-.034-.1-.178h0v-.069a.113.113,0,0,0-.1.069H393.6s-.069,0,.069-.1a.568.568,0,0,0-.241,0h0v-.069l.1-.069h-.178a.949.949,0,0,0,.178-.069h-.178s-.138,0-.069-.069c.1-.1-.069-.178,0-.315-.206.138.069-.1-.1,0,.034,0,.069-.069.1-.069-.069,0,.034-.1-.1-.069a.134.134,0,0,0,.1-.034h.069c-.034-.034-.206.034-.35.1.069-.069.034-.069-.069,0,.034,0,.069-.069.1-.069,0,0,0-.138-.1-.069h0a.1.1,0,0,0-.034-.069h-.069s-.069,0,0-.138h-.08c-.178.138.069-.069,0-.069h-.034a2.488,2.488,0,0,0,.241-.178h.034a.238.238,0,0,1-.178,0c.069-.034.178-.069.138-.1.034-.034-.241.034-.138-.069-.034,0-.069.069-.138.069,0,0,.138-.178,0-.1h0a.192.192,0,0,0-.206,0c.281-.178-.241-.034.034-.206l-.069-.069h0a.238.238,0,0,0-.178,0,.082.082,0,0,0,.069-.034q0-.1-.178-.069l.069-.069s.069-.178-.069-.178h.034s.138-.315-.206-.138h-.092a.53.53,0,0,0-.178.138s.069-.1.1-.1h0a.209.209,0,0,1,.1-.178c-.069-.1-.069-.281-.138-.384l-.1.1h0l.1-.1c.069-.069-.1,0-.1,0,0-.069.178-.069.138-.1h-.034s-.1.069-.138,0c0-.034.069-.069.069-.069h-.1l-.1.1c.138-.138-.069-.206,0-.241a.2.2,0,0,1-.138-.034s-.1.1-.138.069c.241-.178.034-.1.178-.281-.069.1-.1-.069-.206.1,0-.034.069-.069.1-.138-.138,0-.034-.178-.138-.206l-.1.1.1-.138s-.178.138-.1,0c0,0-.034.069-.069.069,0-.1-.1-.178-.178-.206s-.138-.1-.1-.281c0,.069-.034.069-.069.034l-.1.1V8.821s0-.034-.138.034h0a4.823,4.823,0,0,1-.35.418c.138-.1-.1.241.1.1h0l.315-.1Zm1.783,2.539H392.2C392.3,11.8,392.268,11.831,392.234,11.831Z" transform="translate(-385.098 -8.598)" fill="#fff"/>
      <path id="_パス_1502" d="M397.659,18.013s-.034.034,0,.034h0S397.727,17.978,397.659,18.013Z" transform="translate(-388.339 -12.522)" fill="#fff"/>
      <path id="_パス_1504" d="M397.851,17.519s.1-.034.069,0C398.023,17.484,397.782,17.519,397.851,17.519Z" transform="translate(-388.422 -12.308)" fill="#fff"/>
      <path id="_パス_1505" d="M397.25,18.234l.1-.034h-.1Z" transform="translate(-388.171 -12.606)" fill="#fff"/>
      <path id="_パス_1508" d="M396.859,17.48s-.034,0,0,.034h.034Z" transform="translate(-387.997 -12.299)" fill="#fff"/>
      <path id="_パス_1509" d="M396.615,17.814l.069-.034-.1.069h.034Z" transform="translate(-387.885 -12.427)" fill="#fff"/>
      <path id="_パス_1510" d="M396.464,17.72s-.1,0-.069.034C396.395,17.754,396.464,17.754,396.464,17.72Z" transform="translate(-387.803 -12.401)" fill="#fff"/>
      <path id="_パス_1511" d="M396.28,16.793h.034l.178-.1-.206.1h0Z" transform="translate(-387.757 -11.961)" fill="#fff"/>
      <path id="_パス_1512" d="M395.338,16.51s-.034,0-.138.069c0,.069.1-.034.069,0,.034,0,0-.034.069-.069Z" transform="translate(-387.296 -11.885)" fill="#fff"/>
      <path id="_パス_1513" d="M391.454,8.44l-.034.069h.034Z" transform="translate(-385.683 -8.44)" fill="#fff"/>
      <path id="_パス_1514" d="M391.214,8.6l.069-.1-.1.069h0Z" transform="translate(-385.58 -8.466)" fill="#fff"/>
      <path id="_パス_1515" d="M393.559,14.33l-.069.069h0V14.33Z" transform="translate(-386.566 -10.954)" fill="#fff"/>
      <path id="_パス_1516" d="M393.37,13.814h0l.1-.034Z" transform="translate(-386.515 -10.719)" fill="#fff"/>
      <path id="_パス_1520" d="M430.028,12.149h0V12.08s-.069.1-.138.1c.069.1.069-.034.1,0h0Z" transform="translate(-402.103 -9.994)" fill="#fff"/>
      <path id="_パス_1523" d="M429.374,11.8s-.034-.017-.034-.034a.134.134,0,0,0,.034.1Z" transform="translate(-401.868 -9.861)" fill="#fff"/>
      <path id="_パス_1526" d="M429.6,12.074s0-.138-.069-.069a.066.066,0,0,1,.069.069Z" transform="translate(-401.949 -9.954)" fill="#fff"/>
      <path id="_パス_1528" d="M429.169,11.969s-.034,0-.069-.069a.326.326,0,0,0,.069.1h0Z" transform="translate(-401.765 -9.917)" fill="#fff"/>
      <path id="_パス_1531" d="M428.86,11.969V11.9l.034.1Z" transform="translate(-401.663 -9.917)" fill="#fff"/>
      <path id="_パス_1532" d="M428.689,12s-.069-.069-.069-.1V12Z" transform="translate(-401.561 -9.917)" fill="#fff"/>
      <path id="_パス_1534" d="M429.049,12.149s-.034-.069-.069-.069Z" transform="translate(-401.714 -9.994)" fill="#fff"/>
      <path id="_パス_1537" d="M429.479,12.428a.266.266,0,0,1-.069-.178A.246.246,0,0,0,429.479,12.428Z" transform="translate(-401.898 -10.066)" fill="#fff"/>
      <path id="_パス_1538" d="M429.22,12.26v.069h.034A.147.147,0,0,0,429.22,12.26Z" transform="translate(-401.817 -10.07)" fill="#fff"/>
      <path id="_パス_1539" d="M428.894,12.329s0-.069-.034-.069v.069Z" transform="translate(-401.663 -10.07)" fill="#fff"/>
      <path id="_パス_1546" d="M428.646,12.836h-.069c.069.069,0,.138.1.281v-.069s0,.069.034.069c-.034-.069-.034-.138,0-.1a1.211,1.211,0,0,0-.275-.384v.1a.233.233,0,0,1,.138.138h0l.069-.034Z" transform="translate(-401.484 -10.228)" fill="#fff"/>
      <path id="_パス_1547" d="M428.524,12.483h.069a.225.225,0,0,0-.1-.1v.1Z" transform="translate(-401.505 -10.122)" fill="#fff"/>
      <path id="_パス_1548" d="M428.74,12.414a.261.261,0,0,0,.1.206v-.1c-.034.034,0-.034-.069-.069h0V12.38h0v.069h0l-.034-.034Z" transform="translate(-401.612 -10.122)" fill="#fff"/>
      <path id="_パス_1550" d="M429.428,12.648v.069a.172.172,0,0,0-.034-.1h0s-.1-.069-.1-.1a.593.593,0,0,0,.138.178v-.04Z" transform="translate(-401.847 -10.177)" fill="#fff"/>
      <path id="_パス_1552" d="M428.439,12.449l-.069-.069.069.1Z" transform="translate(-401.454 -10.122)" fill="#fff"/>
      <path id="_パス_1553" d="M428.354,12.519l-.034-.069v.069Z" transform="translate(-401.433 -10.152)" fill="#fff"/>
      <path id="_パス_1555" d="M425.919,14.287s-.178-.1-.1-.034l.069.069h.034Z" transform="translate(-400.356 -10.911)" fill="#fff"/>
      <path id="_パス_1556" d="M425.289,16.219h0l-.069-.069v.069Z" transform="translate(-400.109 -11.731)" fill="#fff"/>
      <path id="_パス_1557" d="M424.43,18.81l.069.069S424.5,18.844,424.43,18.81Z" transform="translate(-399.772 -12.866)" fill="#fff"/>
      <path id="_パス_1558" d="M427.349,13.29h-.069C427.314,13.29,427.383,13.359,427.349,13.29Z" transform="translate(-400.989 -10.51)" fill="#fff"/>
      <path id="_パス_1559" d="M423.58,16.93l.034.034Z" transform="translate(-399.409 -12.064)" fill="#fff"/>
      <path id="_パス_1565" d="M427.924,12.75l-.034.034h.034Z" transform="translate(-401.249 -10.28)" fill="#fff"/>
      <path id="_パス_1567" d="M426.586,15.776s-.034-.1,0-.069l-.206-.178.206.241h0Z" transform="translate(-400.604 -11.466)" fill="#fff"/>
      <path id="_パス_1568" d="M420.215,17.823a.326.326,0,0,1,.1.069h-.178s-.034.069.069.138h0a3.652,3.652,0,0,1,.487.206c-.138-.1.281.034.1-.1.034,0,.034.034.1.069q-.069-.069,0-.069h0a1.644,1.644,0,0,0,.241-.138h-.1l.069-.034c-.1-.1-.034.034-.178-.069.178.069.1-.138.281,0,0,0-.1-.034-.069-.069h.138s0-.069.034-.034h-.034a.271.271,0,0,0,.069-.281h-.034a.132.132,0,0,0,.069-.1h0s-.034-.069,0-.069c.034.034.1,0,.138.069-.034-.1-.034-.069-.178-.206h.069s-.069-.034-.069-.069c.034.069.1.034.178.1.178,0-.069-.178.138-.069-.178-.138-.138,0-.178-.034-.069,0-.1-.1-.069-.1,0,0,.241.1.281.069h0s-.034-.069.069-.034c-.1-.069,0,0-.1-.1v.069s-.178-.178-.069-.178l.069.069c.034,0,0-.034.034,0,.138.1,0,.069.069.178.069,0-.069-.1.069,0-.178-.138.069-.034-.069-.178l.069.069v-.069l.069.069s.1,0,.1-.069c-.034.069-.1-.034-.178-.069-.069-.138.241.1.281,0h.034c0-.069-.1-.034-.138-.1.1.034,0-.034-.034-.1l.069.069s-.178-.138-.069-.138l.1.1h.069v-.069c-.069,0-.138-.1-.138-.138.069,0,.069.069.1,0,.034.034.1.1,0,.069l.069.069.069-.069h0l-.069-.138s.069.034.069.069V16.4c.069.034.138.1.138.138v-.1a.066.066,0,0,1,.069.069h0c.069,0-.069-.138,0-.138h0s.138,0,.069-.138l.138.069s-.178-.069-.178-.178c0-.069.1.069.138.069-.034-.069-.138-.178,0-.138v.04h.069a.179.179,0,0,0,.138.178c-.206-.178.069-.1-.178-.281h.069s-.138-.1-.069-.138a.171.171,0,0,1,.1.034v-.075h.034a.62.62,0,0,1-.069-.138c.034,0,0,0,.034.034v-.069s.069.1.034.1c.241.138-.034-.069.138,0h0a1.384,1.384,0,0,0,.206.1.655.655,0,0,1-.281-.178s.034,0,0-.034c.069.069.069,0,.069,0l.1.069a.617.617,0,0,1-.1-.138.5.5,0,0,1,.178.1c.034,0-.138-.069-.138-.138.069,0,.034-.069,0-.138.069,0,.069.069.1.069l-.069-.069h.034s-.1-.069-.1-.1c-.1-.1.206.069.1-.069.034,0,.069.069.1.069a.356.356,0,0,0-.1-.206h.1s-.178-.1-.206-.206h-.069v-.132l.069.069h0a.275.275,0,0,1,.138.1h-.069a1.049,1.049,0,0,0,.178.138h.178a1.183,1.183,0,0,1-.206-.384,1.17,1.17,0,0,1,.206.206c-.1-.069,0,.069-.034.1,0,0,.069.034.069.069v-.138s0,.034.069.069c-.178-.138-.069-.138-.1-.178.034.034.1.1.069.1.138.069-.138-.206,0-.138h0c0-.069.034-.069.069,0h0a.148.148,0,0,0,.029-.212c-.011-.011-.017-.023-.029-.029l.178.178-.35-.487a2.372,2.372,0,0,1,.418.418s.069,0,.034-.034l-.178-.138c.138.1.069.034.206.1a1.321,1.321,0,0,1-.178-.206l.178.178-.1-.206.178.178c-.034,0,.034,0,0-.069H423.8s-.178-.281-.138-.315a.51.51,0,0,0,.241.206,2.449,2.449,0,0,1-.35-.556h.034s.281.418.35.556c.069,0,.069.069.069,0,.069.034.069.069.034.1h.1a.446.446,0,0,0-.138-.241v.178s-.206-.315-.138-.35c.034,0,.138.178.178.206h0s-.034-.178.069-.1c0,0,.138.1.1.034-.1-.1-.453-.453-.522-.556a1.155,1.155,0,0,1,.206.1c.1.069.178.241.241.315l-.034-.069s.069.1.069.069c-.069-.1.069,0-.069-.1,0-.034.034,0,.069,0A.666.666,0,0,1,424,13.6l.069.069a.24.24,0,0,0,.178-.034.225.225,0,0,1,.1.1v-.08s-.034.034.069.138c-.034-.069,0-.1-.034-.178-.069-.1-.069,0-.069.069a.846.846,0,0,1-.178-.384c0-.069.069.069.069.034.1,0-.1-.281,0-.241a.564.564,0,0,1,.178.241c0,.069-.1,0-.1,0h.069v.075c.069.069.138-.069.241-.034a.134.134,0,0,0-.034-.1h0s0-.1-.069-.1v-.143l.069.1s-.069-.034-.069,0c0-.069.138.1.069-.034l-.069-.069s-.034-.206,0-.178c-.069-.1,0,0-.1-.1.1.138-.1.034.034.178-.1-.1-.069,0-.206-.138,0,0,.069.069,0,.069h0l.034.069c.034.069,0,.1,0,.178,0,0,0-.034-.069-.069v.057s-.1-.1-.1-.178h-.034s-.1,0-.1.034v.1H423.9s0,.178-.178.1c0,0,0,.069-.034.069l-.069-.069s-.1,0-.069.069c-.178-.138-.138.034-.206.069l.069.069a.364.364,0,0,0-.034.1l.069.069s-.1,0-.138.069h0c-.206-.1,0,.206-.138.138h0v.069l-.069-.069h0s0,.034.069.1v.069s0,.069-.1-.034c.034.069,0,.1.1.241h0l-.1-.069.1.138a1.34,1.34,0,0,1-.178-.138c.069.138,0,.069.069.206l-.069-.069s.034.1,0,.069c-.138-.069-.178.138-.35.1.206.138-.1,0,0,.1q-.052,0-.1-.1c0,.069-.138,0,0,.138-.034,0-.069-.069-.069-.069h0a.147.147,0,0,0-.034-.069.987.987,0,0,0,.206.281q-.069,0,0,.069a.107.107,0,0,1-.1-.1s-.138.034-.034.1h0q-.034,0-.069.069h0v.1h0s0,.034-.138,0l.069.069s-.138,0-.1.069h.069a2.9,2.9,0,0,0-.315-.1V14.9c-.138,0,.1.069.1.138-.069-.034-.138-.1-.178-.1-.069,0,.1.206,0,.178a.107.107,0,0,1,.1.1c0,.034-.206-.034-.1.069h-.034s0,.1.069.138c-.281-.178,0,.206-.206.034v.069h-.069a.288.288,0,0,0,.034.138.082.082,0,0,1-.069-.034c-.1,0-.1.034,0,.178l-.1-.069s-.206,0-.138.1h0s-.35,0-.069.206v.1a.9.9,0,0,0,.241.1s-.138,0-.138-.034h0a.261.261,0,0,1-.206-.034c-.069.1-.241.178-.315.281l.138.069h0s-.1,0-.069-.034c-.069,0,0,.069.069.1a.148.148,0,0,1-.138-.1h0s.1.1.069.138c-.034,0-.1-.034-.1,0h-.034l.1.069s-.034.034.1.1c-.206-.069-.178.138-.241.1.069.069,0,.1,0,.138,0,0,.138.069.1.1-.241-.138-.138,0-.315-.069.138.034,0,.1.138.178a.52.52,0,0,1-.178-.069c.034.1-.138.1-.178.206,0,0,.1,0,.138.069l-.178-.069s.178.1.034.069c0,0,.069,0,.069.034-.241.069-.069.384-.453.35q.069,0,.069.034h0l.1-.08Zm2.711-2.3s.034.069,0,.034C422.857,15.49,422.926,15.524,422.926,15.524Z" transform="translate(-397.89 -10.28)" fill="#fff"/>
      <path id="_パス_1572" d="M428.49,12.967h.069S428.49,12.9,428.49,12.967Z" transform="translate(-401.505 -10.359)" fill="#fff"/>
      <path id="_パス_1574" d="M427.867,12.859s-.069-.1,0-.069C427.833,12.687,427.867,12.928,427.867,12.859Z" transform="translate(-401.226 -10.286)" fill="#fff"/>
      <path id="_パス_1575" d="M428.62,13.23l.034.069.034.034-.069-.1Z" transform="translate(-401.561 -10.485)" fill="#fff"/>
      <rect id="_長方形_151" height="0.034" transform="translate(27.048 2.843)" fill="#fff"/>
      <path id="_パス_1578" d="M427.89,13.789s.034.034.034,0V13.72h0Z" transform="translate(-401.249 -10.694)" fill="#fff"/>
      <path id="_パス_1579" d="M428.269,13.969s-.034,0-.069-.069l.069.1h0Z" transform="translate(-401.381 -10.77)" fill="#fff"/>
      <path id="_パス_1580" d="M428.284,14.209s0-.069-.034-.069C428.25,14.14,428.25,14.243,428.284,14.209Z" transform="translate(-401.403 -10.873)" fill="#fff"/>
      <path id="_パス_1581" d="M427.2,14.378h0l-.1-.178Z" transform="translate(-400.912 -10.899)" fill="#fff"/>
      <path id="_パス_1582" d="M427.229,15.489a.066.066,0,0,1-.069-.069h0c0,.069,0,.034.1.138.069,0-.069-.1,0-.069Z" transform="translate(-400.937 -11.419)" fill="#fff"/>
      <path id="_パス_1583" d="M420.069,21.67,420,21.7h.069Z" transform="translate(-397.881 -14.087)" fill="#fff"/>
      <path id="_パス_1584" d="M420.223,21.859l-.1-.069Z" transform="translate(-397.933 -14.138)" fill="#fff"/>
      <path id="_パス_1586" d="M424.963,18.1h0l-.1-.069Z" transform="translate(-399.956 -12.533)" fill="#fff"/>
      <path id="_パス_1588" d="M435.29,44.909l.069-.069S435.29,44.943,435.29,44.909Z" transform="translate(-404.407 -23.977)" fill="#fff"/>
      <path id="_パス_1589" d="M434.9,45.114l.034-.034-.069.069.034-.034h0Z" transform="translate(-404.228 -24.079)" fill="#fff"/>
      <path id="_パス_1590" d="M434.871,44.994s-.1.069-.069,0c-.069.138.034,0,0,.034h0l.069-.069h0v.034Z" transform="translate(-404.189 -24.028)" fill="#fff"/>
      <path id="_パス_1593" d="M434.939,44.42a.326.326,0,0,0-.069.1h.034v-.1Z" transform="translate(-404.228 -23.797)" fill="#fff"/>
      <path id="_パス_1596" d="M434.8,44.784s.069-.1.034-.069A.082.082,0,0,1,434.8,44.784Z" transform="translate(-404.198 -23.92)" fill="#fff"/>
      <path id="_パス_1598" d="M434.759,44.489V44.42a.324.324,0,0,1-.069.1h0Z" transform="translate(-404.151 -23.797)" fill="#fff"/>
      <path id="_パス_1600" d="M434.62,44.883l.1-.1Z" transform="translate(-404.122 -23.951)" fill="#fff"/>
      <path id="_パス_1601" d="M434.75,44.309l.069-.069Z" transform="translate(-404.177 -23.72)" fill="#fff"/>
      <path id="_パス_1602" d="M434.69,44.213s.034-.1.069-.1l-.069.069Z" transform="translate(-404.151 -23.665)" fill="#fff"/>
      <path id="_パス_1607" d="M434.5,44.918a.275.275,0,0,1,.1-.138C434.6,44.814,434.534,44.849,434.5,44.918Z" transform="translate(-404.07 -23.951)" fill="#fff"/>
      <path id="_パス_1608" d="M434.56,44.729a.147.147,0,0,1,.034-.069h-.034Z" transform="translate(-404.096 -23.9)" fill="#fff"/>
      <path id="_パス_1616" d="M433.948,44.691v-.069c-.034.1-.1.1-.178.241h0c.034-.069.1-.138.069-.034a3.044,3.044,0,0,0,.241-.418.113.113,0,0,1-.069.1.247.247,0,0,1-.069.178h0Z" transform="translate(-403.759 -23.793)" fill="#fff"/>
      <path id="_パス_1617" d="M434.354,44.429h0l.034-.069-.069.069Z" transform="translate(-403.994 -23.772)" fill="#fff"/>
      <path id="_パス_1618" d="M434.3,44.592a.221.221,0,0,1,.034-.1h0V44.42H434.3c-.034.069-.069.1-.1.178,0,0,.034-.069.069-.069h0Z" transform="translate(-403.942 -23.797)" fill="#fff"/>
      <path id="_パス_1619" d="M434.4,44.849a1.68,1.68,0,0,0-.1.178h-.034a.437.437,0,0,0,.069-.109h0a.513.513,0,0,1,.069-.138h0Z" transform="translate(-403.968 -23.951)" fill="#fff"/>
      <path id="_パス_1620" d="M434.26,44.934V45h0a.172.172,0,0,1,.034-.1h-.034Z" transform="translate(-403.968 -24.002)" fill="#fff"/>
      <path id="_パス_1621" d="M434.354,44.343l.069-.1-.1.1Z" transform="translate(-403.994 -23.72)" fill="#fff"/>
      <path id="_パス_1622" d="M434.32,44.324h0l.034-.034Z" transform="translate(-403.994 -23.742)" fill="#fff"/>
      <path id="_パス_1624" d="M433.05,43.66s.069-.178,0-.1v.069h0Z" transform="translate(-403.451 -23.421)" fill="#fff"/>
      <path id="_パス_1627" d="M433.759,44.119V44.05C433.759,44.084,433.724,44.153,433.759,44.119Z" transform="translate(-403.747 -23.639)" fill="#fff"/>
      <path id="_パス_1635" d="M431.946,44.885l.069-.069.1-.206-.178.281h0Z" transform="translate(-402.978 -23.878)" fill="#fff"/>
      <path id="_パス_1636" d="M431.5,43.619s.1-.1.1-.069l-.069.1v-.034c.034-.034-.069.178.034,0V43.55a1.079,1.079,0,0,1,.138-.1c.069-.1,0,0,.034-.1-.069.178-.034,0-.1.138.069-.138,0-.069.069-.206,0,.034,0,.069-.034.034h0v.1c-.046.034-.1.069-.138.1a.082.082,0,0,1,.034-.069v.069a.408.408,0,0,1,.034-.178h0v-.063h-.034s-.138.1-.069-.034h-.034v-.069h0c.1-.178-.034-.069-.034-.1v.1h-.138v.069l-.069-.069h0c.069-.206-.138.1-.1-.034h0v-.063h0s0,.034-.069.1h-.034s-.034.069,0-.069c-.034.069-.069,0-.138.178h0a.468.468,0,0,1,.034-.178l-.137.138v-.075h0c.034-.138-.1-.069-.069-.206-.1.206,0-.1-.069.069,0-.034,0-.069.069-.1-.034.034,0-.1-.069,0,0-.034.034-.069.069-.1h0a.148.148,0,0,1,.034-.069,1.794,1.794,0,0,0-.178.281q0-.069-.034,0c0-.034,0-.1.069-.1,0,0,0-.1-.069,0h-.034s0,.034-.069.069h0s-.034,0,0-.1v.1c-.138.178,0-.138-.069-.069v.069s.069-.281.069-.315v-.04c0-.138-.069.1-.1.138,0-.069.069-.138.069-.178,0-.069-.138.178-.1.069a.145.145,0,0,1-.069.138s0-.206-.034-.069h0s-.069,0-.1.1c.1-.315-.138.1,0-.178h0a.113.113,0,0,0-.1.069v-.063q0-.069-.1.069v-.1s0-.178-.034-.069h0s0-.315-.138,0l-.069.069a.675.675,0,0,0-.069.206v-.143h0V42.53c-.069,0-.1-.138-.178-.178v.138h-.069s0-.138.034-.1c0-.069-.034.069-.069.1a.48.48,0,0,1,.069-.178h0s-.034.138-.069.138v-.092h0v.069s-.034,0-.069.1c.034-.206-.1-.1-.069-.178-.034.069-.069.069-.069.069s0,.138-.034.138c.069-.241,0-.1,0-.315,0,.138-.069,0-.1.206v-.178c-.069.1-.069-.069-.138-.069a.289.289,0,0,1-.034.138v-.178s-.034.206,0,.069V42.3c-.069-.178-.241.1-.281-.241v.069s-.069,0-.069.138h0s-.034.315-.069.487c.034-.178,0,.241.069,0v.12c0-.069,0-.1.034-.069h0a.276.276,0,0,0,.1.138V42.9c.034-.138,0,0,0-.178,0,.178.069,0,.034.241,0,0,0-.1.034-.1h0V43h.034a.209.209,0,0,0,.178-.1h.069l.034-.034a.225.225,0,0,1-.034.138c.069-.069.034-.069.1-.206v.075s0-.1.034-.1a.188.188,0,0,1-.069.178c0,.178.1-.138.069.1.069-.178,0-.1,0-.138,0-.069.069-.138.069-.1,0,0-.069.241,0,.241h0c.034-.1,0,0,.069-.138h-.034s.1-.178.1-.069a.172.172,0,0,1-.034.1h0c-.034.138-.034,0-.1.138,0,.069.069-.1,0,.069.069-.206,0,0,.1-.1v.1h0v.069s-.034.1,0,.034a.468.468,0,0,1,.034-.178c.069-.1-.069.241,0,.206h0c.034,0,0-.1.069-.138,0,.1,0-.034.069-.069v.1s.034-.178.034-.1l-.069.1h0v.069h0a.479.479,0,0,1,.069-.178c0,.069-.034.069,0,.069,0,.069-.069.138-.034.034v.069h0l.069-.1s0,.069-.034.069v-.069a.407.407,0,0,1-.034.178l.069-.069v.1c0,.034.1-.138.1-.069h0s0,.069.069,0v.138s0-.178.069-.206c.034,0-.034.1-.034.138.034-.069.1-.178.1-.069h0v.069a.555.555,0,0,0-.1.178c.1-.241.069,0,.178-.241v.069h0s.1-.178.1-.1v.034h.069s.069-.034.069-.069v.1c-.1.241.034-.069,0,.1h0a.623.623,0,0,1-.034.206.879.879,0,0,1,.1-.281h0c-.034.1,0,.069,0,.069v-.04a.247.247,0,0,1-.069.178.521.521,0,0,1,.069-.178c0,.069,0,0,.1-.034,0,.034-.034.069-.034.1l.069-.1h0s.069-.069.069-.1c.069-.138-.069.206,0,.069a.325.325,0,0,1-.069.1.675.675,0,0,0,.138-.178V43.3a2.554,2.554,0,0,1,.138-.281v-.1h.1l-.069.069h0l-.069.138v-.069l-.1.206h0l-.069.1h0l.241-.281a2.543,2.543,0,0,0-.138.281c.034-.1-.069.034-.069,0,0,0,0,.069-.034.069l.1-.1a.172.172,0,0,1-.034.1c.069-.178.069-.1.138-.178a.113.113,0,0,1-.069.1c-.034.138.138-.206.1-.069h0c.034-.034.034,0,0,.069h0s.069.034.178-.1l-.1.206.315-.487a3.811,3.811,0,0,1-.281.522h0s.069-.206.1-.206c-.069.138,0,.069-.069.206,0,0,.1-.241.138-.206l-.1.206.138-.178a.9.9,0,0,0-.1.241c0-.034,0,0,.034,0h0s.178-.315.206-.281c0,.034-.138.241-.138.281.069-.1.281-.487.35-.556h0s-.281.453-.35.556v.069a.066.066,0,0,1-.069.069h0v.069a1.527,1.527,0,0,0,.178-.206l-.1.1s.206-.315.206-.281a.909.909,0,0,1-.138.241c0-.034.069-.069.069-.034v.069h0s-.069.178,0,.1c.069-.138.281-.556.35-.659a1.25,1.25,0,0,1-.069.206,1.94,1.94,0,0,1-.206.35s.034-.069.069-.069c0,0-.069.1-.034.1l.069-.1h0a2.536,2.536,0,0,1,.206-.281v.1s-.034.069,0,.1a.113.113,0,0,1-.069.1v.069c.034-.069.069-.069.1-.1.069-.1,0,0-.034,0a1.46,1.46,0,0,1,.241-.35c.034,0-.034.1,0,.069,0,.034.178-.241.178-.1a1.656,1.656,0,0,1-.138.241c-.034,0,0-.069,0-.069h0s-.034.1-.034.069c-.034.1.069.069.034.138a.324.324,0,0,1,.069-.1h0a.619.619,0,0,0,.1-.138h0l-.4.224Z" transform="translate(-401.445 -22.79)" fill="#fff"/>
      <path id="_パス_1642" d="M434.068,44.227s.069-.1.034-.069C434.171,44.089,434,44.261,434.068,44.227Z" transform="translate(-403.879 -23.678)" fill="#fff"/>
      <path id="_パス_1643" d="M433.84,45.039v.034l.034-.1Z" transform="translate(-403.789 -24.032)" fill="#fff"/>
      <path id="_パス_1646" d="M433.47,44.754v.034l.034-.069h0Z" transform="translate(-403.631 -23.925)" fill="#fff"/>
      <path id="_パス_1648" d="M433.163,45.339a.366.366,0,0,0,.034-.069S433.128,45.339,433.163,45.339Z" transform="translate(-403.495 -24.16)" fill="#fff"/>
      <path id="_パス_1649" d="M432.93,44.648h0l.1-.178Z" transform="translate(-403.4 -23.819)" fill="#fff"/>
      <path id="_パス_1650" d="M432.209,45.219V45.15c-.034.034,0,0-.069.138,0,.069.069-.1.034-.034h0Z" transform="translate(-403.063 -24.109)" fill="#fff"/>
      <path id="_パス_1651" d="M428.224,42.179l-.034-.069v.069Z" transform="translate(-401.377 -22.811)" fill="#fff"/>
      <path id="_パス_1654" d="M430.534,44.7l.034-.1-.069.1Z" transform="translate(-402.363 -23.874)" fill="#fff"/>
      <path id="_パス_1658" d="M408.1,63.16v.034h.069S408.07,63.194,408.1,63.16Z" transform="translate(-392.801 -31.796)" fill="#fff"/>
      <path id="_パス_1703" d="M406.906,61.027h.315c.069,0,.178,0,.1.034h.315c-.178,0,0-.034-.178,0h.149s.069-.034,0-.034h0s-.138-.069,0-.1h.069s.069,0,0-.034c.206,0,.034-.034.069-.069h-.1l-.069-.034h-.1a.066.066,0,0,0,.069-.069h0c.206,0-.138-.034,0-.069H407.3c.178,0,0-.069.178-.1h.069c-.069,0,.1,0-.069-.034h-.069s.069-.034-.069-.034h-.086s-.069,0,.069-.034h-.1c-.206,0,.138,0,.034-.034h-.069a1.183,1.183,0,0,0,.315-.034h.069s-.241-.034-.1-.069h-.138s.206-.034,0-.034h-.138c.35-.034-.178-.034.138-.069h0a.226.226,0,0,0-.138-.069h.069c.069,0,.034-.034-.1-.034h.1s.178-.069.034-.069h.034c-.138,0,.281-.1-.1-.069h-.3s.1-.034.138,0h0c.206,0,.069-.034.206-.034,0-.034.1-.1.069-.178H407.1c.206-.034.069-.1.138-.1h-.206c.281,0,.1-.034.315-.069-.138,0-.034-.034-.206,0h.178c-.1,0,.069-.069,0-.1h.034s-.206,0-.069-.069h-.1s-.178-.1.138-.206h-.206l.138-.069h-.138l-.522.1c.178,0-.241.069,0,.069h-.034l-.1.1h0l.178-.034c-.206.034,0,.069-.206.1h.034s0,.069.1.069h.034s-.034,0,0,.034h0c-.178.034.178,0-.069.069.206,0,.1-.034.178-.034h.138s-.281.034-.281.069h-.1s-.1.069,0,.069a.467.467,0,0,0,.178-.034c.138,0-.241.034-.206.069h.1s.069,0,0,.034h0a.6.6,0,0,1-.138.034c-.034,0,.178,0,.1.034h.034s-.1.034,0,.034h-.258c.281,0,0,.034.315,0h.178s0,.034-.069.034h-.069c-.281,0,.069,0-.1.034h-.034a.624.624,0,0,0-.206.034.97.97,0,0,1,.315,0h-.034c-.034,0,0,0,.1.034h.138c.138,0-.206.034-.034.034h-.206s.384.069.453.069H406.7c.138,0-.069,0,0-.034h.034a.288.288,0,0,0-.138.034h.138s0,.069.178.069h.35s-.522.034-.59.034h-.241a1.739,1.739,0,0,0,.241.034h.659a.843.843,0,0,0-.241.034h-.069s-.069.034-.069.069h.281c0,.034.315,0,.178.069H407.1c-.1,0,0,.069-.1.069h0l-.052.493Z" transform="translate(-392.021 -30.076)" fill="#fff"/>
      <path id="_パス_1710" d="M407.56,62.594l.1-.034h-.1Z" transform="translate(-392.572 -31.54)" fill="#fff"/>
      <path id="_パス_1724" d="M381.41,45.664l.034.034-.034-.069Z" transform="translate(-381.41 -24.314)" fill="#fff"/>
      <path id="_パス_1725" d="M381.54,45.584h0v.069s.034-.1.069-.069C381.54,45.447,381.609,45.584,381.54,45.584Z" transform="translate(-381.466 -24.268)" fill="#fff"/>
      <path id="_パス_1733" d="M382.08,45.974l.034.069a.172.172,0,0,0-.034-.1h0Z" transform="translate(-381.696 -24.446)" fill="#fff"/>
      <rect id="_長方形_160" height="0.103" transform="translate(0.229 21.351)" fill="#fff"/>
      <path id="_パス_1735" d="M382.234,46.084v.069l-.034-.1.034.034Z" transform="translate(-381.747 -24.493)" fill="#fff"/>
      <path id="_パス_1736" d="M382.32,46.05a.607.607,0,0,1,.034.138v-.1h-.034Z" transform="translate(-381.798 -24.493)" fill="#fff"/>
      <path id="_パス_1738" d="M382.08,45.87s0,.069.034.069V45.87Z" transform="translate(-381.696 -24.416)" fill="#fff"/>
      <path id="_パス_1741" d="M381.84,45.45a.971.971,0,0,1,.034.178A.379.379,0,0,0,381.84,45.45Z" transform="translate(-381.593 -24.237)" fill="#fff"/>
      <path id="_パス_1743" d="M382.234,45.844V45.81H382.2v.034Z" transform="translate(-381.747 -24.391)" fill="#fff"/>
      <path id="_パス_1750" d="M382.234,45.112l.034.069c-.034-.1,0-.138-.069-.281v.069a1.357,1.357,0,0,0,.178.418v-.1c0-.034-.069-.069-.069-.138h0l-.075-.034Z" transform="translate(-381.747 -24.002)" fill="#fff"/>
      <path id="_パス_1751" d="M382.39,45.75h0s0,.034.069.1v-.1Z" transform="translate(-381.828 -24.365)" fill="#fff"/>
      <path id="_パス_1752" d="M382.269,45.6a.332.332,0,0,0-.069-.206v.1a.147.147,0,0,0,.034.069h0v.069h0Z" transform="translate(-381.747 -24.211)" fill="#fff"/>
      <path id="_パス_1753" d="M381.84,45.279a.617.617,0,0,1,.069.138.442.442,0,0,0-.069-.206h0v.1h0Z" transform="translate(-381.593 -24.134)" fill="#fff"/>
      <path id="_パス_1755" d="M382.45,45.784l.034.069-.034-.1Z" transform="translate(-381.854 -24.365)" fill="#fff"/>
      <path id="_パス_1756" d="M382.51,45.75l.034.069v-.034Z" transform="translate(-381.88 -24.365)" fill="#fff"/>
      <path id="_パス_1758" d="M384.02,45.27s.1.178.069.069V45.27Z" transform="translate(-382.524 -24.16)" fill="#fff"/>
      <path id="_パス_1761" d="M383.113,45.488s.017.034.034.034C383.147,45.488,383.078,45.419,383.113,45.488Z" transform="translate(-382.133 -24.241)" fill="#fff"/>
      <path id="_パス_1769" d="M383.78,43.566v.069l.1.241-.1-.315Z" transform="translate(-382.422 -23.43)" fill="#fff"/>
      <path id="_パス_1770" d="M386.182,42.61s-.138-.315-.206-.487c.034.178-.138-.206-.069,0v-.034h0a.951.951,0,0,1-.178-.069h0c.034.138.034,0,.069.138-.069-.178-.1,0-.178-.178,0,0,.034.1,0,.1h0s-.069-.069-.069-.1h-.034a.174.174,0,0,0-.138.178h0s-.034,0-.069.069h0V42.3c0-.034-.069-.1-.069-.138a.842.842,0,0,0,.034.241v.069c0-.069-.069-.1-.069-.178-.1-.138,0,.178-.1-.034.069.206.069.1.069.138,0,.069.034.138,0,.138,0,0-.1-.241-.138-.206h0s0,.069-.034,0c.034.1,0,0,0,.138h0s.034.178,0,.1v-.1h0c-.069-.138,0-.034,0-.178,0-.069,0,.1-.034-.034.069.206-.034,0,0,.138h0l-.069-.1s-.069-.069-.069,0c.034,0,.069.1.1.178,0,.138-.1-.206-.138-.138l.069.069-.069-.069a.607.607,0,0,1,.034.138c-.069-.1,0,.034,0,.1v-.1h-.034V42.4s-.034.069-.069.034c0,.069.069.178.034.178,0-.034,0-.069-.034-.069,0-.069-.034-.138,0-.034v-.075h-.069v.1a.954.954,0,0,1-.069-.178v.1s-.069-.069-.069-.1c-.034-.034,0,.178-.034.1h0s-.1-.034-.069.069l-.069-.138s.1.138.069.206c0,.034-.069-.1-.069-.138,0,.069.034.206,0,.1h0v-.063a.5.5,0,0,0-.1-.178c.1.241-.069.069.034.315h-.034v-.063s.069.178,0,.178a.156.156,0,0,1-.034-.069v.069h-.034v.1s-.034-.138,0-.138c-.138-.241,0,.069-.1-.069h0c-.069-.178-.069-.1-.138-.206,0,.034.138.206.138.281h0c-.034-.1-.034-.069-.034-.069V42.7a1.668,1.668,0,0,1-.1-.178A.959.959,0,0,1,384,42.7q-.052-.052,0,.1a.117.117,0,0,0-.029-.1v.1h0a.364.364,0,0,1,.034.1c.034.138-.1-.178-.069,0a.172.172,0,0,0-.034-.1v.206l-.069-.069s.069.206.1.281l.069.1v.069a.172.172,0,0,0-.034-.1h0l-.069-.138v.069a.623.623,0,0,0-.034-.206h0l-.075-.1h0v.418c0-.1-.069-.178-.1-.281.069.1,0-.069.034-.034l-.034-.069v.138a.119.119,0,0,0-.075-.1c.069.178,0,.138,0,.206,0-.069-.034-.138,0-.1-.069-.138.069.241,0,.1h0c0,.069,0,0-.034,0h0s-.1,0-.034.178l-.069-.206.138.556a4.1,4.1,0,0,1-.206-.522h0a1.73,1.73,0,0,1,.1.206l-.1-.206s.1.241.069.241a1.515,1.515,0,0,0-.1-.241l.069.206s-.069-.178-.1-.241h0s.069.35.034.35c0-.034-.1-.281-.138-.281,0,.1.178.522.178.625h0s-.178-.522-.206-.659c0-.034,0-.069-.034-.069v-.109h-.069a.37.37,0,0,0,.069.206V43.08s.1.35.069.35a1.277,1.277,0,0,0-.1-.281h0s0,.178-.034.069c0,0-.069-.138-.069-.069.069.138.241.59.281.694,0,0-.1-.138-.138-.178-.069-.1-.069-.281-.138-.35v.1s-.034-.1-.034-.069c.034.138-.034,0,0,.1,0,.034,0,0-.034,0,.034.069.1.281.069.315a.172.172,0,0,0-.034-.1c-.034,0-.069-.069-.1-.034a.325.325,0,0,0-.069-.1V43.6l-.034-.138v.178c.034.1.034,0,.034-.034a1.07,1.07,0,0,1,.1.418c0,.034-.034-.1-.034-.069-.069,0,.069.281,0,.178a1.276,1.276,0,0,1-.1-.281c0-.034.069.069.069.034h-.034v-.075c-.034-.069-.1,0-.178-.069v.1h0s0,.1.034.138h0c0,.069-.1-.138-.034,0v.069s.069.178.034.178c.034.1,0,0,.069.1-.069-.178.069,0,0-.178a.9.9,0,0,0,.1.178v-.069h0v-.252a.954.954,0,0,1,.069.178h0s.069.069.069,0h0v-.075h0s0-.138.1,0v.034s.1.069.069,0c.1.178.069,0,.138.034V43.94s.052.017.069,0h0c.1.178,0-.178.1-.034h.069l-.034-.069v-.069s0-.069.069.1a.842.842,0,0,0-.034-.241h0V43.6a1.38,1.38,0,0,1,.1.206v-.138s0-.1.034-.034c.069.138.1,0,.206.1-.1-.206.069.069,0-.069,0,.034.034.069.069.138,0-.069.069.069.034-.069a.134.134,0,0,0,.034.1h0v.069a1.563,1.563,0,0,0-.1-.315c.034.069.034.034,0-.034,0,.034.069.1.034.1,0,0,.1.034.034-.069h.034v-.069h0s0-.034.1.069v-.069c-.1-.178.034.1.034,0h0s.138.206.178.206v.034c.069.1-.034-.1,0-.138a.48.48,0,0,0,.069.178c0,.034-.034-.206.034-.1a.285.285,0,0,0-.069-.138s.138.178.069,0h0v-.143c.138.315,0-.178.138.1h.034v-.069c.069.034.069,0,.034-.138v.1s.178.1.138,0h0s.206.241.069-.069v-.1l-.1-.206s.069.069.069.1h0s.069,0,.1.138c.069-.034.178,0,.241,0l-.069-.138h0s.034.1,0,.1c.034.069,0-.069,0-.1.069.034.034.178.069.178h0v-.143l.034.069h.034l-.069-.1v-.1c.1.178.138,0,.178.069v-.1s-.069-.138-.034-.138c.1.241.069.1.178.281-.069-.1.034-.034-.034-.206a.515.515,0,0,0,.069.138c0-.1.1,0,.138,0a.3.3,0,0,1-.034-.138l.1.138s-.069-.178,0-.069v-.069s.1-.206.315.069c-.034-.069,0-.069,0-.069h0s.069,0,.034-.138h0l.1-.172Z" transform="translate(-381.935 -22.756)" fill="#fff"/>
      <path id="_パス_1774" d="M382.424,45.319s0-.034-.034,0Z" transform="translate(-381.828 -24.174)" fill="#fff"/>
      <path id="_パス_1777" d="M382.32,44.934V44.9l.034.1Z" transform="translate(-381.798 -24.002)" fill="#fff"/>
      <path id="_パス_1783" d="M383.23,44.54h0l.069.178Z" transform="translate(-382.187 -23.849)" fill="#fff"/>
      <path id="_パス_1784" d="M383.353,43.635a.147.147,0,0,0,.034.069c0-.034,0,0-.034-.138C383.318,43.531,383.387,43.669,383.353,43.635Z" transform="translate(-382.235 -23.43)" fill="#fff"/>
      <path id="_パス_1785" d="M388.94,43.45l.034.034Z" transform="translate(-384.624 -23.383)" fill="#fff"/>
      <path id="_パス_1788" d="M385.18,42.78h0l.069.1Z" transform="translate(-383.019 -23.097)" fill="#fff"/>
    </g>
    <path id="Path_2126" data-name="Path 2126" d="M4.744-1.824a.206.206,0,0,1-.1.177.445.445,0,0,1-.231.076l-1.447.109-1,.084-.522.042a.151.151,0,0,1-.122-.084.3.3,0,0,1-.055-.16.1.1,0,0,1,.038-.088.237.237,0,0,1,.084-.042.4.4,0,0,0,.063-.021q.008-.454.008-2.12a14.329,14.329,0,0,0-.1-1.905q-.1-.677-.1-.728a.22.22,0,0,1,.088-.185.3.3,0,0,1,.181-.067.108.108,0,0,1,.093.046.356.356,0,0,1,.05.147,5.539,5.539,0,0,1,.13,1.052q.046.766.046,1.6,0,.707-.008,1.312t-.008.816l.421-.029L2.9-1.841Q3.39-1.9,4-2.018a5.251,5.251,0,0,1,.6-.093.111.111,0,0,1,.118.084A.708.708,0,0,1,4.744-1.824Zm7.268-1.523q.059,0,.059.126a2.343,2.343,0,0,1-.223.665,2.986,2.986,0,0,1-.673.951,1.526,1.526,0,0,1-1.106.437,1.271,1.271,0,0,1-.9-.336,1.349,1.349,0,0,1-.362-1.035,3.026,3.026,0,0,1,.3-1.3A3.024,3.024,0,0,1,9.9-4.891,1.561,1.561,0,0,1,10.91-5.3a.948.948,0,0,1,.526.139.448.448,0,0,1,.215.4.768.768,0,0,1-.332.572,3.152,3.152,0,0,1-.862.488,5.272,5.272,0,0,1-1.094.3,2.992,2.992,0,0,0-.1.757,1.126,1.126,0,0,0,.231.757.823.823,0,0,0,.66.269A1.33,1.33,0,0,0,11.2-2.077a4.376,4.376,0,0,0,.673-1.043q.017-.034.059-.13T12.012-3.347Zm-.74-1.321a.232.232,0,0,0-.139-.21.666.666,0,0,0-.324-.076,1.042,1.042,0,0,0-.614.21,1.957,1.957,0,0,0-.492.5,1.774,1.774,0,0,0-.257.522,3,3,0,0,0,.816-.219,3.494,3.494,0,0,0,.719-.387Q11.272-4.533,11.272-4.668Zm8.555-.017a.243.243,0,0,1-.122.219,1.213,1.213,0,0,1-.442.118L18.4-4.2l-.547.093q0,.437.013.917t.038.841a3.315,3.315,0,0,0,.118.749q.084.261.093.294a.2.2,0,0,1-.105.156.356.356,0,0,1-.2.072.123.123,0,0,1-.084-.029.239.239,0,0,1-.059-.1,2.009,2.009,0,0,1-.1-.437q-.046-.32-.072-.707-.025-.345-.038-.8t-.013-.887q-.471.076-.967.185a4.407,4.407,0,0,1-.53.093.335.335,0,0,1-.189-.059.183.183,0,0,1-.088-.16.14.14,0,0,1,.076-.143A.676.676,0,0,1,16-4.155a2.167,2.167,0,0,0,.37-.046q.244-.046.311-.063.564-.109.766-.143,0-.177-.017-.463-.017-.387-.017-.589a4.693,4.693,0,0,1,.021-.509,1.218,1.218,0,0,1,.08-.324.25.25,0,0,1,.252-.168.146.146,0,0,1,.1.025.131.131,0,0,1,.025.093,2.759,2.759,0,0,1-.042.294,3.974,3.974,0,0,0-.042.648q0,.311.017.7l.008.227q.379-.059,1.5-.311a.188.188,0,0,0,.114-.118q.046-.1.1-.1a.268.268,0,0,1,.189.105A.318.318,0,0,1,19.828-4.685ZM24.362-6.35a3.991,3.991,0,0,1-.042.618q-.042.265-.118.307a.223.223,0,0,1-.109.034.171.171,0,0,1-.143-.084A1.966,1.966,0,0,1,23.916-6L23.9-6.51a3.819,3.819,0,0,0-.059-.421,3.1,3.1,0,0,1-.05-.4q0-.118.05-.151A.228.228,0,0,1,23.95-7.5a.466.466,0,0,1,.177.038.245.245,0,0,1,.126.1,1.574,1.574,0,0,1,.076.391A5.6,5.6,0,0,1,24.362-6.35ZM31.8-2.38a1.069,1.069,0,0,1-.3.711,2.123,2.123,0,0,1-.787.547A2.59,2.59,0,0,1,29.7-.916a1.177,1.177,0,0,1-.488-.067.2.2,0,0,1-.126-.185q0-.076.193-.265t.261-.189q.1,0,.1.042a.091.091,0,0,1-.042.067q-.042.034-.042.059t.105.067a.85.85,0,0,0,.257.034,2.064,2.064,0,0,0,.711-.13,1.712,1.712,0,0,0,.585-.341.609.609,0,0,0,.227-.446.473.473,0,0,0-.143-.362.87.87,0,0,0-.358-.2q-.215-.063-.719-.181-.555-.126-.862-.223a1.521,1.521,0,0,1-.492-.244.458.458,0,0,1-.185-.374.968.968,0,0,1,.4-.74,3.047,3.047,0,0,1,.909-.53,2.457,2.457,0,0,1,.791-.193q.286,0,.286.168a.469.469,0,0,1-.067.223.217.217,0,0,1-.2.122.205.205,0,0,1-.109-.038.216.216,0,0,0-.118-.038,2.08,2.08,0,0,0-.53.109,2.12,2.12,0,0,0-.656.328.644.644,0,0,0-.294.53.318.318,0,0,0,.231.3,6.1,6.1,0,0,0,.862.24,1,1,0,0,0,.151.038,1.229,1.229,0,0,1,.135.029,3.92,3.92,0,0,1,.993.345A.626.626,0,0,1,31.8-2.38Zm10.675.951q0,.084-.109.135a.575.575,0,0,1-.244.05q-.1,0-.189-.24a2.241,2.241,0,0,1-.088-.728q.008-.951.029-2.3t.038-2.027A1.407,1.407,0,0,1,42-6.99a.286.286,0,0,1,.282-.21.087.087,0,0,1,.088.072,1.152,1.152,0,0,1,.021.273q0,.008,0,.055t0,.164q-.151,2.212-.151,4.316a1.534,1.534,0,0,0,.122.572Q42.473-1.446,42.473-1.429ZM47.26-6.468q0,.126-.278.126a.467.467,0,0,1-.29-.118q-.147-.118-.147-.193a.245.245,0,0,1,.088-.177.263.263,0,0,1,.181-.084l.063.021a.39.39,0,0,1,.147.114,1.839,1.839,0,0,1,.151.177A.413.413,0,0,1,47.26-6.468Zm.21,5.291a.147.147,0,0,1-.072.13.251.251,0,0,1-.164.038q-.118-.008-.172-.379t-.114-1.4q-.034-.681-.059-1.333T46.856-5.13a.262.262,0,0,1,.029-.139A.124.124,0,0,1,47-5.316a.227.227,0,0,1,.244.16,2.42,2.42,0,0,1,.05.614l-.008.993q0,.85.05,1.363,0,.025.076.538A3.614,3.614,0,0,1,47.47-1.177Zm8.564-4.29q0,.042-.114.118a.673.673,0,0,0-.139.109,5.056,5.056,0,0,0-.816,1.422,11.129,11.129,0,0,0-.6,2q-.025.126-.084.5l-.042.294a.352.352,0,0,1-.114.21.477.477,0,0,1-.307.076,1.836,1.836,0,0,1-.286-.509q-.244-.509-.513-1.1l-.362-.791q-.328-.715-.547-1.119t-.32-.4a.063.063,0,0,0-.055.042q-.021.042-.046.042a.088.088,0,0,1-.072-.038.128.128,0,0,1-.029-.08.557.557,0,0,1,.122-.286q.122-.177.24-.177a.2.2,0,0,1,.126.034.484.484,0,0,1,.076.076q.034.042.05.067a8.435,8.435,0,0,1,.7,1.329q.177.379.875,1.977l.193.446a4.718,4.718,0,0,1,.084-.707,11.47,11.47,0,0,1,.555-1.968,6.541,6.541,0,0,1,.866-1.632,1.286,1.286,0,0,1,.164-.189.241.241,0,0,1,.164-.055q.042,0,.135.13A.441.441,0,0,1,56.034-5.467Zm6.915,2.12q.059,0,.059.126a2.343,2.343,0,0,1-.223.665,2.986,2.986,0,0,1-.673.951,1.526,1.526,0,0,1-1.106.437,1.271,1.271,0,0,1-.9-.336,1.349,1.349,0,0,1-.362-1.035,3.026,3.026,0,0,1,.3-1.3,3.024,3.024,0,0,1,.791-1.052A1.561,1.561,0,0,1,61.847-5.3a.948.948,0,0,1,.526.139.448.448,0,0,1,.215.4.768.768,0,0,1-.332.572,3.152,3.152,0,0,1-.862.488,5.272,5.272,0,0,1-1.094.3,2.992,2.992,0,0,0-.1.757,1.126,1.126,0,0,0,.231.757.823.823,0,0,0,.66.269,1.33,1.33,0,0,0,1.052-.463,4.376,4.376,0,0,0,.673-1.043q.017-.034.059-.13T62.949-3.347Zm-.74-1.321a.232.232,0,0,0-.139-.21.666.666,0,0,0-.324-.076,1.042,1.042,0,0,0-.614.21,1.957,1.957,0,0,0-.492.5,1.774,1.774,0,0,0-.257.522,3,3,0,0,0,.816-.219,3.493,3.493,0,0,0,.719-.387Q62.209-4.533,62.209-4.668ZM73.633-1.429q0,.084-.109.135a.575.575,0,0,1-.244.05q-.1,0-.189-.24A2.241,2.241,0,0,1,73-2.211q.008-.951.029-2.3t.038-2.027a1.407,1.407,0,0,1,.088-.454.286.286,0,0,1,.282-.21.087.087,0,0,1,.088.072,1.152,1.152,0,0,1,.021.273q0,.008,0,.055t0,.164q-.151,2.212-.151,4.316a1.534,1.534,0,0,0,.122.572Q73.633-1.446,73.633-1.429Zm4.787-5.039q0,.126-.278.126a.467.467,0,0,1-.29-.118q-.147-.118-.147-.193a.245.245,0,0,1,.088-.177.263.263,0,0,1,.181-.084l.063.021a.39.39,0,0,1,.147.114,1.839,1.839,0,0,1,.151.177A.412.412,0,0,1,78.419-6.468Zm.21,5.291a.147.147,0,0,1-.072.13.251.251,0,0,1-.164.038q-.118-.008-.172-.379t-.114-1.4q-.034-.681-.059-1.333T78.015-5.13a.262.262,0,0,1,.029-.139.124.124,0,0,1,.114-.046.227.227,0,0,1,.244.16,2.42,2.42,0,0,1,.05.614l-.008.993q0,.85.05,1.363,0,.025.076.538A3.611,3.611,0,0,1,78.629-1.177ZM86.89-4.828a.388.388,0,0,1-.114.248.307.307,0,0,1-.215.13.247.247,0,0,1-.151-.072.254.254,0,0,0-.118-.072,1.657,1.657,0,0,0-.723.311,10.611,10.611,0,0,0-1.018.732,8.258,8.258,0,0,0-.8.715l.008.151q.639.294,1.422.631a6.527,6.527,0,0,0,1.085.4q.118.017.236.025t.168.008a.788.788,0,0,1,.126.008q.05.008.05.034,0,.1-.156.2a.868.868,0,0,1-.467.1,2.046,2.046,0,0,1-.753-.206Q85-1.69,84.35-2.026l-.53-.261q.109,1.068.109,1.178a.175.175,0,0,1-.093.151.369.369,0,0,1-.2.059q-.067,0-.109-.2t-.1-.8l-.059-.513a.512.512,0,0,1-.177-.122.226.226,0,0,1-.076-.147q0-.1.168-.236-.008-.454-.046-1.3T83.18-5.442l-.042-1.169a1.227,1.227,0,0,1,.059-.4.247.247,0,0,1,.261-.168.131.131,0,0,1,.1.029.183.183,0,0,1,.025.114q0,.387.055,1.8t.088,2.006Q85.6-5.021,86.47-5.021a.644.644,0,0,1,.3.063Q86.89-4.895,86.89-4.828Zm6.789,1.481q.059,0,.059.126a2.343,2.343,0,0,1-.223.665,2.986,2.986,0,0,1-.673.951,1.526,1.526,0,0,1-1.106.437,1.271,1.271,0,0,1-.9-.336,1.349,1.349,0,0,1-.362-1.035,3.026,3.026,0,0,1,.3-1.3,3.024,3.024,0,0,1,.791-1.052A1.561,1.561,0,0,1,92.577-5.3a.948.948,0,0,1,.526.139.448.448,0,0,1,.215.4.768.768,0,0,1-.332.572,3.152,3.152,0,0,1-.862.488,5.272,5.272,0,0,1-1.094.3,2.993,2.993,0,0,0-.1.757,1.126,1.126,0,0,0,.231.757.823.823,0,0,0,.66.269,1.33,1.33,0,0,0,1.052-.463,4.376,4.376,0,0,0,.673-1.043q.017-.034.059-.13T93.679-3.347Zm-.74-1.321a.232.232,0,0,0-.139-.21.666.666,0,0,0-.324-.076,1.042,1.042,0,0,0-.614.21,1.957,1.957,0,0,0-.492.5,1.774,1.774,0,0,0-.257.522,3,3,0,0,0,.816-.219,3.494,3.494,0,0,0,.719-.387Q92.939-4.533,92.939-4.668Zm13.527,1.725a1.58,1.58,0,0,1-.244.757,2.233,2.233,0,0,1-.69.736,1.752,1.752,0,0,1-1.018.307,1.043,1.043,0,0,1-.833-.311,1.141,1.141,0,0,1-.269-.774,4.323,4.323,0,0,1,.147-1,4.137,4.137,0,0,1,.416-1.068q.017-.034.139-.248a1.051,1.051,0,0,1,.273-.328.524.524,0,0,1,.32-.114.265.265,0,0,1,.139.038.111.111,0,0,1,.063.1.226.226,0,0,1-.046.08l-.072.1a3.96,3.96,0,0,0-.463.681,4.6,4.6,0,0,0-.366.85,3.083,3.083,0,0,0-.13.917q0,.665.808.665a1.23,1.23,0,0,0,.7-.219,1.737,1.737,0,0,0,.517-.534,1.124,1.124,0,0,0,.193-.576.75.75,0,0,0-.193-.513,3.282,3.282,0,0,0-.53-.463,2.885,2.885,0,0,1-.32-.261.276.276,0,0,1-.1-.168q0-.1.143-.164a.828.828,0,0,1,.336-.063.5.5,0,0,1,.143.013.046.046,0,0,1,.034.046.115.115,0,0,1-.029.055.113.113,0,0,0-.029.063q0,.025.168.168a3.818,3.818,0,0,1,.564.564A1.05,1.05,0,0,1,106.466-2.943Zm7.554,1.6a.284.284,0,0,1-.076.21.284.284,0,0,1-.21.076q-.168,0-.307-.353a2.627,2.627,0,0,1-.172-.732q-.034-.362-.05-1.464-.008-.177-.008-.358t-.008-.307a12.656,12.656,0,0,1-.665,1.321,9.684,9.684,0,0,1-.845,1.27q-.425.53-.694.53a.36.36,0,0,1-.366-.294,3.552,3.552,0,0,1-.088-.934,6.8,6.8,0,0,1,.156-1.354,4.738,4.738,0,0,1,.358-1.152,1.031,1.031,0,0,1,.143-.24.18.18,0,0,1,.135-.063q.21,0,.21.084a.6.6,0,0,1-.084.193,5.054,5.054,0,0,0-.4,1.009,5.962,5.962,0,0,0-.168,1.582q0,.665.185.665.219,0,.593-.484A8.909,8.909,0,0,0,112.4-3.3a10.149,10.149,0,0,0,.564-1.169,4.052,4.052,0,0,0,.151-.522,1.147,1.147,0,0,1,.05-.206q.025-.063.059-.063a.362.362,0,0,1,.2.076.206.206,0,0,1,.109.16q0,.4.029,1.384t.072,1.359a1.6,1.6,0,0,0,.122.513,1.519,1.519,0,0,0,.172.29A.386.386,0,0,1,114.02-1.345Zm6.94-3.4a.261.261,0,0,1-.105.172.3.3,0,0,1-.181.1.167.167,0,0,1-.114-.05.989.989,0,0,1-.122-.143.511.511,0,0,0-.156-.143.376.376,0,0,0-.2-.059q-.244,0-.656.644a9.981,9.981,0,0,0-.808,1.619q.008.193.029.488t.029.437l.025.336a.408.408,0,0,1-.05.206.2.2,0,0,1-.185.088q-.143,0-.185-.383t-.05-1.115q-.008-.185-.013-.53T118.2-3.9q-.025-.723-.025-1.035,0-.193.236-.193a.155.155,0,0,1,.172.122,2.387,2.387,0,0,1,.029.467V-3.2a6.714,6.714,0,0,1,.547-1.119,3.262,3.262,0,0,1,.576-.719.811.811,0,0,1,.5-.248.78.78,0,0,1,.353.084.767.767,0,0,1,.269.215A.412.412,0,0,1,120.96-4.743Zm6.991,2.364a1.069,1.069,0,0,1-.3.711,2.123,2.123,0,0,1-.787.547,2.59,2.59,0,0,1-1.018.206,1.177,1.177,0,0,1-.488-.067.2.2,0,0,1-.126-.185q0-.076.193-.265t.261-.189q.1,0,.1.042a.091.091,0,0,1-.042.067q-.042.034-.042.059t.105.067a.85.85,0,0,0,.257.034,2.063,2.063,0,0,0,.711-.13,1.712,1.712,0,0,0,.585-.341.609.609,0,0,0,.227-.446.473.473,0,0,0-.143-.362.87.87,0,0,0-.358-.2q-.215-.063-.719-.181-.555-.126-.862-.223a1.521,1.521,0,0,1-.492-.244.458.458,0,0,1-.185-.374.968.968,0,0,1,.4-.74,3.047,3.047,0,0,1,.909-.53,2.457,2.457,0,0,1,.791-.193q.286,0,.286.168a.469.469,0,0,1-.067.223.217.217,0,0,1-.2.122.206.206,0,0,1-.109-.038.216.216,0,0,0-.118-.038,2.08,2.08,0,0,0-.53.109,2.12,2.12,0,0,0-.656.328.644.644,0,0,0-.294.53.318.318,0,0,0,.231.3,6.1,6.1,0,0,0,.862.24,1,1,0,0,0,.151.038,1.229,1.229,0,0,1,.135.029,3.92,3.92,0,0,1,.993.345A.626.626,0,0,1,127.951-2.38Zm7.26-.967q.059,0,.059.126a2.343,2.343,0,0,1-.223.665,2.986,2.986,0,0,1-.673.951,1.526,1.526,0,0,1-1.106.437,1.271,1.271,0,0,1-.9-.336,1.349,1.349,0,0,1-.362-1.035,3.026,3.026,0,0,1,.3-1.3,3.024,3.024,0,0,1,.791-1.052,1.561,1.561,0,0,1,1.009-.408.948.948,0,0,1,.526.139.448.448,0,0,1,.215.4.768.768,0,0,1-.332.572,3.152,3.152,0,0,1-.862.488,5.272,5.272,0,0,1-1.094.3,2.993,2.993,0,0,0-.1.757,1.126,1.126,0,0,0,.231.757.823.823,0,0,0,.66.269,1.33,1.33,0,0,0,1.052-.463,4.377,4.377,0,0,0,.673-1.043q.017-.034.059-.13T135.21-3.347Zm-.74-1.321a.232.232,0,0,0-.139-.21.666.666,0,0,0-.324-.076,1.042,1.042,0,0,0-.614.21,1.958,1.958,0,0,0-.492.5,1.774,1.774,0,0,0-.257.522,3,3,0,0,0,.816-.219,3.494,3.494,0,0,0,.719-.387Q134.47-4.533,134.47-4.668Zm5.645,3.239q0,.084-.109.135a.575.575,0,0,1-.244.05q-.1,0-.189-.24a2.241,2.241,0,0,1-.088-.728q.008-.951.029-2.3t.038-2.027a1.407,1.407,0,0,1,.088-.454.286.286,0,0,1,.282-.21.087.087,0,0,1,.088.072,1.151,1.151,0,0,1,.021.273q0,.008,0,.055t0,.164q-.151,2.212-.151,4.316a1.534,1.534,0,0,0,.122.572Q140.115-1.446,140.115-1.429Zm8.362-4.038q0,.042-.114.118a.673.673,0,0,0-.139.109,5.055,5.055,0,0,0-.816,1.422,11.126,11.126,0,0,0-.6,2q-.025.126-.084.5l-.042.294a.352.352,0,0,1-.114.21.477.477,0,0,1-.307.076,1.837,1.837,0,0,1-.286-.509q-.244-.509-.513-1.1l-.362-.791q-.328-.715-.547-1.119t-.32-.4a.062.062,0,0,0-.055.042q-.021.042-.046.042a.088.088,0,0,1-.071-.038.128.128,0,0,1-.029-.08.557.557,0,0,1,.122-.286q.122-.177.24-.177a.2.2,0,0,1,.126.034.482.482,0,0,1,.076.076q.034.042.05.067a8.434,8.434,0,0,1,.7,1.329q.177.379.875,1.977l.193.446a4.72,4.72,0,0,1,.084-.707,11.469,11.469,0,0,1,.555-1.968,6.541,6.541,0,0,1,.866-1.632,1.287,1.287,0,0,1,.164-.189.241.241,0,0,1,.164-.055q.042,0,.135.13A.441.441,0,0,1,148.477-5.467Zm6.915,2.12q.059,0,.059.126a2.343,2.343,0,0,1-.223.665,2.986,2.986,0,0,1-.673.951,1.526,1.526,0,0,1-1.106.437,1.271,1.271,0,0,1-.9-.336,1.349,1.349,0,0,1-.362-1.035,3.026,3.026,0,0,1,.3-1.3,3.024,3.024,0,0,1,.791-1.052A1.561,1.561,0,0,1,154.29-5.3a.948.948,0,0,1,.526.139.448.448,0,0,1,.215.4.768.768,0,0,1-.332.572,3.152,3.152,0,0,1-.862.488,5.271,5.271,0,0,1-1.094.3,2.993,2.993,0,0,0-.1.757,1.126,1.126,0,0,0,.231.757.823.823,0,0,0,.66.269,1.33,1.33,0,0,0,1.052-.463,4.376,4.376,0,0,0,.673-1.043q.017-.034.059-.13T155.392-3.347Zm-.74-1.321a.232.232,0,0,0-.139-.21.666.666,0,0,0-.324-.076,1.042,1.042,0,0,0-.614.21,1.957,1.957,0,0,0-.492.5,1.773,1.773,0,0,0-.257.522,3,3,0,0,0,.816-.219,3.493,3.493,0,0,0,.719-.387Q154.651-4.533,154.651-4.668Zm7.857,2.288a1.069,1.069,0,0,1-.3.711,2.124,2.124,0,0,1-.787.547,2.59,2.59,0,0,1-1.018.206,1.177,1.177,0,0,1-.488-.067.205.205,0,0,1-.126-.185q0-.076.193-.265t.261-.189q.1,0,.1.042a.091.091,0,0,1-.042.067q-.042.034-.042.059t.105.067a.85.85,0,0,0,.257.034,2.064,2.064,0,0,0,.711-.13,1.712,1.712,0,0,0,.585-.341.609.609,0,0,0,.227-.446A.473.473,0,0,0,162-2.632a.87.87,0,0,0-.358-.2q-.215-.063-.719-.181-.555-.126-.862-.223a1.521,1.521,0,0,1-.492-.244.458.458,0,0,1-.185-.374.968.968,0,0,1,.4-.74,3.047,3.047,0,0,1,.909-.53,2.457,2.457,0,0,1,.791-.193q.286,0,.286.168a.469.469,0,0,1-.067.223.217.217,0,0,1-.2.122.205.205,0,0,1-.109-.038.216.216,0,0,0-.118-.038,2.08,2.08,0,0,0-.53.109,2.119,2.119,0,0,0-.656.328.644.644,0,0,0-.294.53.318.318,0,0,0,.231.3,6.1,6.1,0,0,0,.862.24,1,1,0,0,0,.151.038,1.23,1.23,0,0,1,.135.029,3.92,3.92,0,0,1,.993.345A.626.626,0,0,1,162.508-2.38Zm13.586-2.3a.243.243,0,0,1-.122.219,1.213,1.213,0,0,1-.442.118l-.866.151-.547.093q0,.437.013.917t.038.841a3.317,3.317,0,0,0,.118.749q.084.261.093.294a.2.2,0,0,1-.105.156.356.356,0,0,1-.2.072.123.123,0,0,1-.084-.029.238.238,0,0,1-.059-.1,2.01,2.01,0,0,1-.1-.437q-.046-.32-.072-.707-.025-.345-.038-.8t-.013-.887q-.471.076-.967.185a4.407,4.407,0,0,1-.53.093.335.335,0,0,1-.189-.059.183.183,0,0,1-.088-.16.14.14,0,0,1,.076-.143.676.676,0,0,1,.252-.034,2.167,2.167,0,0,0,.37-.046q.244-.046.311-.063.564-.109.766-.143,0-.177-.017-.463-.017-.387-.017-.589a4.693,4.693,0,0,1,.021-.509,1.218,1.218,0,0,1,.08-.324.25.25,0,0,1,.252-.168.146.146,0,0,1,.1.025.131.131,0,0,1,.025.093,2.761,2.761,0,0,1-.042.294,3.975,3.975,0,0,0-.042.648q0,.311.017.7l.008.227q.379-.059,1.5-.311a.188.188,0,0,0,.114-.118q.046-.1.1-.1A.268.268,0,0,1,176-4.9.317.317,0,0,1,176.094-4.685Zm6.713,1.741a1.58,1.58,0,0,1-.244.757,2.233,2.233,0,0,1-.69.736,1.751,1.751,0,0,1-1.018.307,1.043,1.043,0,0,1-.833-.311,1.141,1.141,0,0,1-.269-.774,4.324,4.324,0,0,1,.147-1,4.139,4.139,0,0,1,.416-1.068q.017-.034.139-.248a1.051,1.051,0,0,1,.273-.328.524.524,0,0,1,.32-.114.265.265,0,0,1,.139.038.111.111,0,0,1,.063.1.226.226,0,0,1-.046.08l-.072.1a3.96,3.96,0,0,0-.463.681,4.6,4.6,0,0,0-.366.85,3.083,3.083,0,0,0-.13.917q0,.665.808.665a1.23,1.23,0,0,0,.7-.219,1.737,1.737,0,0,0,.517-.534,1.124,1.124,0,0,0,.193-.576.75.75,0,0,0-.193-.513,3.281,3.281,0,0,0-.53-.463,2.887,2.887,0,0,1-.32-.261.276.276,0,0,1-.1-.168q0-.1.143-.164a.828.828,0,0,1,.336-.063.5.5,0,0,1,.143.013.046.046,0,0,1,.034.046.115.115,0,0,1-.029.055.113.113,0,0,0-.029.063q0,.025.168.168a3.816,3.816,0,0,1,.564.564A1.05,1.05,0,0,1,182.807-2.943Zm7.058-4.013q0,.168-.017.66t-.017.988q0,.959.042,1.956t.067,1.308a.771.771,0,0,0,.008.109q.008.059.017.109.034.236.034.286,0,.084-.122.16a.407.407,0,0,1-.189.076.118.118,0,0,1-.122-.072.533.533,0,0,1-.029-.2q0-.463.025-.967l.008-.471q0-.236-.008-.618t-.025-.644a10.571,10.571,0,0,1-.972,2.284q-.543.9-1.174.9a.584.584,0,0,1-.484-.269,1.293,1.293,0,0,1-.2-.774,2.939,2.939,0,0,1,.45-1.447,6.173,6.173,0,0,1,1.026-1.346q.576-.564.854-.564t.269.177a.616.616,0,0,1-.08.273,1.853,1.853,0,0,1-.177.282q-.1.126-.114.126a.075.075,0,0,1-.038-.013.035.035,0,0,1-.021-.029.446.446,0,0,1,.042-.143.461.461,0,0,0,.042-.135A.144.144,0,0,0,188.957-5q-.008-.017-.05-.017-.177,0-.635.484a5.433,5.433,0,0,0-.82,1.148,2.611,2.611,0,0,0-.362,1.237.869.869,0,0,0,.084.379.287.287,0,0,0,.278.177q.614,0,1.14-1.039A13.854,13.854,0,0,0,189.5-5l-.017-.707q-.025-.934-.025-.993a4.318,4.318,0,0,1,.042-.723.382.382,0,0,1,.038-.118.1.1,0,0,1,.088-.034.307.307,0,0,1,.168.055.168.168,0,0,1,.084.147ZM197.7-1.74a.233.233,0,0,0,.067.122.175.175,0,0,1,.059.105.442.442,0,0,1-.084.231q-.084.13-.168.13-.143,0-.219-.177a1.04,1.04,0,0,1-.076-.412q0-.2.025-1.211l.008-.32a.342.342,0,0,0-.1-.278q-.379.639-.707,1.11a4.47,4.47,0,0,1-.833.887,1.645,1.645,0,0,1-1.06.416.524.524,0,0,1-.416-.168.64.64,0,0,1-.147-.437,2.2,2.2,0,0,1,.3-.921,7.619,7.619,0,0,1,.774-1.186,6.3,6.3,0,0,1,.942-.988,2.77,2.77,0,0,1,.5-.341.779.779,0,0,1,.328-.088.547.547,0,0,1,.278.084.75.75,0,0,1,.244.236.607.607,0,0,1,.1.345.942.942,0,0,1-.143.5l.143-.042q.093,0,.109.227.008.135.021.547t.021.681q.008.278.017.538T197.7-1.74Zm-2.97.151a1.385,1.385,0,0,0,.875-.336,3.964,3.964,0,0,0,.753-.8q.332-.467.736-1.148a1.459,1.459,0,0,0,.1-.547.474.474,0,0,0-.105-.307.343.343,0,0,0-.282-.13.932.932,0,0,0-.538.286,5.879,5.879,0,0,0-.8.854,7.138,7.138,0,0,0-.7,1.056,1.926,1.926,0,0,0-.278.824Q194.492-1.589,194.727-1.589ZM204.814-4.92a7.841,7.841,0,0,1-.093.841q-.1.74-.109.833-.109,1.035-.156,1.577t-.046.98a2.369,2.369,0,0,0,.055.572,1.644,1.644,0,0,0,.118.332.567.567,0,0,1,.063.147q0,.076-.135.135a.686.686,0,0,1-.278.059q-.109,0-.172-.294A4.8,4.8,0,0,1,204-.655a11.657,11.657,0,0,1,.093-1.27l.126-1.161a4.685,4.685,0,0,1-.559.837.919.919,0,0,1-.686.4q-.328,0-.589-.572a6.007,6.007,0,0,1-.408-1.3,5.977,5.977,0,0,1-.147-1.06q0-.21.126-.21.185,0,.236.345.32,2.339.892,2.339a.537.537,0,0,0,.4-.181,3.591,3.591,0,0,0,.408-.559,3.653,3.653,0,0,0,.236-.471q.126-.294.193-.488l.059-.85a1,1,0,0,1,.05-.273.131.131,0,0,1,.135-.08.232.232,0,0,1,.168.1A.293.293,0,0,1,204.814-4.92Zm5.174,3.8q0,.126-.278.126a.364.364,0,0,1-.29-.181,1.622,1.622,0,0,1-.21-.4,1.171,1.171,0,0,1-.08-.29.245.245,0,0,1,.088-.177.263.263,0,0,1,.181-.084.108.108,0,0,1,.093.046q.034.046.1.156a.623.623,0,0,0,.143.193.62.62,0,0,1,.181.311A1.3,1.3,0,0,1,209.987-1.118Z" transform="translate(1.27 76.704)" fill="#fff"/>
  </g>
</svg>
