<svg xmlns="http://www.w3.org/2000/svg" width="184.087" height="57.185" viewBox="0 0 184.087 57.185">
  <g id="Logo_LS" transform="translate(-0.647 0.934)">
    <path id="Path_2127" data-name="Path 2127" d="M8.223-12.445q0,.066-.07.066l-1.117-.017H3.808a7.811,7.811,0,0,1-1.163,1.866v2.776l.017,1.088A.059.059,0,0,1,2.6-6.6h-.41a.059.059,0,0,1-.066-.066l.017-1.088V-9.971a10.305,10.305,0,0,1-.972.832.317.317,0,0,1-.128.066Q1-9.073.925-9.185a.92.92,0,0,0-.277-.269A7.541,7.541,0,0,0,2.129-10.69a4.435,4.435,0,0,0-.05-.484q.277.017.422.033a6.483,6.483,0,0,0,.757-1.254H2.1l-1.117.017q-.07,0-.07-.066v-.368q0-.066.07-.066l1.117.017H3.452a6.7,6.7,0,0,0,.252-.786,1.9,1.9,0,0,0,.079-.5q0-.025,0-.066a4.914,4.914,0,0,1,.542.112q.112.033.112.112a.182.182,0,0,1-.066.116.887.887,0,0,0-.145.323q-.1.335-.228.7H7.035l1.117-.017q.07,0,.07.066Zm.025,5.428a.059.059,0,0,1-.066.066L6.994-6.967H4.309L3.13-6.951a.059.059,0,0,1-.066-.066v-.376a.059.059,0,0,1,.066-.066l1.179.017h.939V-9.6h-.6l-1.113.017a.059.059,0,0,1-.066-.066v-.36a.059.059,0,0,1,.066-.066l1.113.017h.6v-.592A8.323,8.323,0,0,0,5.19-11.8a5.105,5.105,0,0,1,.567.05q.1.017.1.07a.8.8,0,0,1-.033.153,3.514,3.514,0,0,0-.062.865v.608h.823l1.1-.017a.059.059,0,0,1,.066.066v.36a.059.059,0,0,1-.066.066L6.588-9.6H5.765v2.155H6.994l1.187-.017a.059.059,0,0,1,.066.066ZM19.142-9.83v.025q0,.05-.07.058-.012,0-.145.017l-.989.12-2.482.323V-7.7a.389.389,0,0,0,.348.443,7.71,7.71,0,0,0,1.179.066,2.234,2.234,0,0,0,1.237-.228.734.734,0,0,0,.228-.381,3,3,0,0,0,.083-.67,1.782,1.782,0,0,0,.4.178q.145.046.145.112,0,.021-.008.091A1.5,1.5,0,0,1,18.6-7.017a2.83,2.83,0,0,1-1.593.306,7.82,7.82,0,0,1-1.527-.1.68.68,0,0,1-.405-.285.851.851,0,0,1-.145-.5V-9.222L13.234-9q-.5.062-.848.124l-.178.033a.508.508,0,0,1-.066.008.178.178,0,0,1-.033,0q-.05,0-.058-.062l-.046-.389V-9.3q0-.041.07-.05.542-.046,1.117-.12L14.931-9.7v-1.274q-1.03.248-1.9.389a.521.521,0,0,1-.091.012q-.054,0-.128-.145a.821.821,0,0,0-.211-.314,19,19,0,0,0,4.067-.956,1.927,1.927,0,0,0,.5-.265,2.525,2.525,0,0,1,.381.323.17.17,0,0,1,.058.12q0,.062-.12.074a1.34,1.34,0,0,0-.277.079q-.9.319-1.754.55v1.336l2.449-.323q.517-.062.865-.12.091-.012.182-.029l.062-.008a.178.178,0,0,1,.033,0q.046,0,.054.062Zm-.153-1.684a.059.059,0,0,1-.066.066H18.53q-.074,0-.074-.066v-1.229h-5.78v1.229q0,.074-.066.074h-.4q-.066,0-.066-.074l.017-.9v-.281l-.017-.467a.059.059,0,0,1,.066-.066l1.171.017h1.866v-.112a4.14,4.14,0,0,0-.062-.873q.306.017.559.054.1.012.1.066a.578.578,0,0,1-.05.153,2.38,2.38,0,0,0-.041.6v.112h2l1.171-.017a.059.059,0,0,1,.066.066l-.017.41v.331ZM30.182-7.066A.059.059,0,0,1,30.116-7l-1.187-.017H23.8v.381q0,.07-.074.07h-.4q-.066,0-.066-.07l.017-1.729v-3.641l-.017-1.721a.059.059,0,0,1,.066-.066l1.179.017h4.348l1.158-.017q.07,0,.07.066v.385q0,.066-.07.066l-1.158-.017H23.8V-7.5h5.126l1.187-.017a.059.059,0,0,1,.066.066ZM29.9-8.324A1.157,1.157,0,0,0,29.673-8q-.058.124-.1.124a.474.474,0,0,1-.116-.029A4.283,4.283,0,0,1,26.988-9.88a2.808,2.808,0,0,1-.856,1.22,4.738,4.738,0,0,1-1.456.774.415.415,0,0,1-.124.037q-.046,0-.112-.112a1,1,0,0,0-.265-.277,4.663,4.663,0,0,0,1.7-.848,2.356,2.356,0,0,0,.691-1.067H25.556l-1.187.017A.059.059,0,0,1,24.3-10.2v-.331a.059.059,0,0,1,.066-.066l1.187.017h1.117a6.746,6.746,0,0,0,.087-1.171H25.54a7.772,7.772,0,0,1-.55.724q-.1.091-.128.091a.389.389,0,0,1-.128-.074.893.893,0,0,0-.277-.161,4.734,4.734,0,0,0,.981-1.357,2.134,2.134,0,0,0,.17-.559,3.389,3.389,0,0,1,.484.145q.087.033.087.091t-.079.112a1,1,0,0,0-.161.277l-.145.281h2.366l1.067-.017a.059.059,0,0,1,.066.066v.323q0,.074-.066.074l-1.067-.017h-.9a8.6,8.6,0,0,1-.1,1.171h1.407l1.2-.017a.059.059,0,0,1,.066.066v.331a.059.059,0,0,1-.066.066l-1.2-.017H27.311A4.326,4.326,0,0,0,29.9-8.324Zm11.615-1.853a1.175,1.175,0,0,0-.2.261q-.074.137-.108.137a.418.418,0,0,1-.128-.041,5.854,5.854,0,0,1-.906-.434v1.009l.017.687q0,.066-.07.066L39.02-8.51h-.414v.525l.012.782a.533.533,0,0,1-.223.5,1.565,1.565,0,0,1-.687.1h-.178a.3.3,0,0,1-.153-.021.4.4,0,0,1-.05-.141.757.757,0,0,0-.128-.306,4.65,4.65,0,0,0,.534.033.535.535,0,0,0,.331-.066.282.282,0,0,0,.062-.215v-1.2h-.443l-1.092.017a.059.059,0,0,1-.066-.066l.017-.745v-.84a7.089,7.089,0,0,1-.662.41.441.441,0,0,1-.1.041q-.033,0-.091-.087a.913.913,0,0,0-.223-.228,8.859,8.859,0,0,1-.141,1.15,5.359,5.359,0,0,1-.943,2.126q-.079.1-.108.1t-.112-.1a.915.915,0,0,0-.306-.236,4.138,4.138,0,0,0,1-2.093,5.7,5.7,0,0,0,.1-.736q-.306.178-.662.348a.858.858,0,0,0-.3.194.13.13,0,0,1-.108.066q-.05,0-.087-.074-.087-.2-.186-.48a3.834,3.834,0,0,0,.7-.24q.559-.248.678-.306.017-.4.017-1.278l-.017-1.849a.059.059,0,0,1,.066-.066l1.2.017h1.56v-.141a2.9,2.9,0,0,0-.066-.678q.319.012.55.041.112.017.112.07a.51.51,0,0,1-.054.149,1.291,1.291,0,0,0-.041.4v.157h1.733l1.187-.017a.059.059,0,0,1,.066.066v.339a.059.059,0,0,1-.066.066l-1.187-.017H35.5v1.522q0,1.005-.025,1.456a7.562,7.562,0,0,0,1.084-.666,5.806,5.806,0,0,0-.579-.587.1.1,0,0,1-.029-.05q0-.021.066-.07l.157-.116a.176.176,0,0,1,.074-.037.094.094,0,0,1,.054.029,5.716,5.716,0,0,1,.6.563,3.635,3.635,0,0,0,.7-.848h-.492l-1.2.017a.059.059,0,0,1-.066-.066v-.3a.059.059,0,0,1,.066-.066l1.2.017h.7l.074-.161a2.156,2.156,0,0,0,.161-.587,3.735,3.735,0,0,1,.484.12q.087.029.087.079a.126.126,0,0,1-.062.1.887.887,0,0,0-.17.29l-.074.161h1.622l1.2-.017q.07,0,.07.066v.3q0,.066-.07.066l-1.2-.017h-.894a3.162,3.162,0,0,0,.794.848,3.274,3.274,0,0,0,.43-.364.93.93,0,0,0,.194-.261,2.189,2.189,0,0,1,.348.236.123.123,0,0,1,.054.087q0,.066-.079.083a.707.707,0,0,0-.252.161,3.957,3.957,0,0,1-.364.277A5.758,5.758,0,0,0,41.511-10.177Zm-1.8,1.287v-.583H36.981v.583Zm0-.947v-.579H36.981v.579Zm-.31-.96a3.846,3.846,0,0,1-.832-1.034h-.455a4.09,4.09,0,0,1-.774,1.034Zm-2.06,2.8q0,.058-.1.1a.571.571,0,0,0-.108.087l-.1.083a5.557,5.557,0,0,1-1.125.815.334.334,0,0,1-.128.05q-.05,0-.128-.112a.706.706,0,0,0-.244-.219A4.3,4.3,0,0,0,36.579-7.9,1.6,1.6,0,0,0,36.91-8.3a2.424,2.424,0,0,1,.364.211A.125.125,0,0,1,37.345-7.993Zm3.761.7a1.268,1.268,0,0,0-.236.273q-.07.116-.12.116a1.166,1.166,0,0,1-.128-.058,6.321,6.321,0,0,1-1.278-.989A.072.072,0,0,1,39.322-8q0-.033.079-.087l.161-.12q.066-.058.091-.058a.083.083,0,0,1,.046.025A4.961,4.961,0,0,0,41.105-7.3Zm-6.313-4.059a.126.126,0,0,1,.012.046q0,.021-.087.074l-.211.128a.27.27,0,0,1-.1.037q-.029,0-.05-.058a5.971,5.971,0,0,0-.571-1.328.1.1,0,0,1-.017-.046q0-.029.1-.083l.178-.1a.246.246,0,0,1,.1-.041q.025,0,.054.05A6.118,6.118,0,0,1,34.792-11.357Zm17.145.414q.814-.487,1.865-1.036l.284.5a17.017,17.017,0,0,0-2.543,1.421,1.939,1.939,0,0,0-.973,1.546q0,1.028,1.643,1.028.845,0,1.931-.078v.572q-1.336.039-1.97.039-2.153,0-2.153-1.569a2.571,2.571,0,0,1,1.41-2.107q-.335-1.219-.619-2.862l.588-.023A23.435,23.435,0,0,0,51.937-10.943Zm16.559.021a1.553,1.553,0,0,0-.244.352q-.07.128-.112.128a.469.469,0,0,1-.128-.041,7.924,7.924,0,0,1-2.126-1.39,8.446,8.446,0,0,1-1.353-1.642,7.467,7.467,0,0,1-1.5,1.874,9.329,9.329,0,0,1-1.808,1.22.719.719,0,0,1-.137.058q-.033,0-.112-.128a1.1,1.1,0,0,0-.252-.323,6.777,6.777,0,0,0,3.347-2.962,2.726,2.726,0,0,0,.211-.517,3.655,3.655,0,0,1,.525.1q.12.041.12.112a.1.1,0,0,1-.058.083.191.191,0,0,0-.079.062,7.815,7.815,0,0,0,1.7,1.895A7.74,7.74,0,0,0,68.5-10.922Zm-4.787-.112q0,.008-.033.161a3.9,3.9,0,0,0-.05.794,5.293,5.293,0,0,1-.161,1.423,2.884,2.884,0,0,1-.385.832,3.664,3.664,0,0,1-1.506,1.212.334.334,0,0,1-.128.05q-.029,0-.12-.128A1.219,1.219,0,0,0,61.033-7a3.02,3.02,0,0,0,1.609-1.146,3.628,3.628,0,0,0,.447-1.94,6.723,6.723,0,0,0-.058-1.067q.294.017.575.046Q63.71-11.1,63.71-11.034Zm2.379-.017a.29.29,0,0,1-.021.083q-.017.058-.021.079a6.653,6.653,0,0,0-.041.964v2.147l.017,1.084q0,.058-.066.058H65.53q-.066,0-.066-.058l.017-1.084V-9.917a9.332,9.332,0,0,0-.058-1.262,5.069,5.069,0,0,1,.575.054Q66.088-11.112,66.088-11.05Zm13.087,1.7q0,.066-.07.066L78.022-9.3H76.234l-1.1.017a.059.059,0,0,1-.066-.066l.017-.79v-1.134a4.7,4.7,0,0,1-.389.443q-.091.091-.124.091t-.112-.1a.554.554,0,0,0-.2-.178,4.949,4.949,0,0,0,.972-1.142,1.458,1.458,0,0,0,.2-.509,2.28,2.28,0,0,1,.426.132q.074.033.074.087t-.074.091a1.182,1.182,0,0,0-.194.273h1.183A1.522,1.522,0,0,0,77-12.374a1.17,1.17,0,0,0,.079-.3,3.87,3.87,0,0,1,.414.1q.074.025.074.079t-.058.083a.326.326,0,0,0-.091.128l-.112.194H78l1.009-.017a.059.059,0,0,1,.066.066v.257a.059.059,0,0,1-.066.066L78-11.737H77.31v.459h.5l.964-.017q.07,0,.07.066v.24q0,.066-.07.066l-.964-.017h-.5v.447h.509l.964-.017q.07,0,.07.074v.232q0,.066-.07.066l-.964-.017H77.31v.492h.712l1.084-.017q.07,0,.07.066Zm-2.3-.306v-.492H75.515v.492Zm0-1.618v-.459H75.515v.459Zm0,.786v-.447H75.515v.447Zm2.66,3.409a.922.922,0,0,0-.178.29q-.066.149-.137.149a.874.874,0,0,1-.1-.008,7.015,7.015,0,0,1-2.143-.608,8.033,8.033,0,0,1-2.2.637q-.091.012-.116.012-.07,0-.124-.141a.923.923,0,0,0-.17-.29,8.461,8.461,0,0,0,2.18-.484,3.964,3.964,0,0,1-.952-.956q-.339,0-.6.012l-.182,0a.059.059,0,0,1-.066-.066v-.29a.059.059,0,0,1,.066-.066l1.059.017H78.03a.465.465,0,0,0,.161-.017.328.328,0,0,1,.087-.033q.083,0,.228.145t.145.211a.118.118,0,0,1-.074.1.8.8,0,0,0-.223.186,4.6,4.6,0,0,1-.914.761A8.256,8.256,0,0,0,79.54-7.083Zm-1.576-1.4H76.106a3.589,3.589,0,0,0,.881.745A3.761,3.761,0,0,0,77.964-8.481Zm-3.752,1.7q0,.066-.07.066H73.81a.059.059,0,0,1-.066-.066v-.29H72.635v.451q0,.058-.066.058H72.23q-.07,0-.07-.058l.017-1.245v-.513l-.017-.745a.059.059,0,0,1,.066-.066l.7.017h.513l.707-.017a.059.059,0,0,1,.066.066l-.021.621v.534Zm-.467-.7V-8.754H72.635v1.283Zm5.635-5.664q0,.066-.07.066l-1.158-.017h-.194l.017.4a.062.062,0,0,1-.07.07h-.339q-.066,0-.066-.07,0-.012.008-.132t.008-.265h-1.22l.017.4q0,.07-.066.07h-.331q-.066,0-.066-.07,0-.012,0-.132t.012-.265h-.087l-1.158.017q-.07,0-.07-.066v-.29q0-.066.07-.066l1.158.017h.087v-.165a3.21,3.21,0,0,0-.041-.542,3.17,3.17,0,0,1,.472.05q.1.017.1.066a.219.219,0,0,1-.025.079.627.627,0,0,0-.07.319v.194h1.22v-.165a2.467,2.467,0,0,0-.05-.542,3.642,3.642,0,0,1,.492.05q.091.017.091.066a.219.219,0,0,1-.025.079.639.639,0,0,0-.066.31v.2h.194l1.158-.017q.07,0,.07.066Zm-4.931.906q0,.079-.07.079l-.844-.017h-.782l-.848.017q-.066,0-.066-.079v-.356q0-.058.066-.058l.848.017h.782l.844-.017q.07,0,.07.058Zm-.17-1.142q0,.066-.07.066l-.712-.017h-.583l-.712.017a.059.059,0,0,1-.066-.066V-13.7a.059.059,0,0,1,.066-.066l.712.017H73.5l.712-.017q.07,0,.07.066ZM74.1-9.917q0,.062-.079.062l-.633-.017h-.451l-.641.017q-.07,0-.07-.062v-.335a.062.062,0,0,1,.07-.07l.641.017h.451l.633-.017q.079,0,.079.07Zm0-1.158q0,.066-.079.066l-.633-.017h-.451l-.641.017q-.07,0-.07-.066v-.331q0-.066.07-.066l.641.017h.451l.633-.017q.079,0,.079.066ZM85.95-9.822v1.676h-.567V-9.561q-.194.1-.4.215Q83.9-8.734,83.9-8.117a.561.561,0,0,0,.381.571,3.871,3.871,0,0,0,1.258.141q.889,0,2.064-.1l.025.575q-1.543.079-2.048.079a3.558,3.558,0,0,1-1.8-.31,1.072,1.072,0,0,1-.426-.968,1.856,1.856,0,0,1,1.138-1.543q.43-.244.881-.467-.041-.794-.55-.794-.712,0-1.953,1.431L82.434-9.9a9.894,9.894,0,0,0,1.754-2.5q-.774.012-1.551,0v-.517q.894.017,1.787,0A7.573,7.573,0,0,0,84.8-14.05l.612.112a8.7,8.7,0,0,1-.356,1q1.192-.037,2.263-.145l.017.517q-1.39.112-2.507.145a8.653,8.653,0,0,1-.712,1.2L83.907-11l.025.033a1.508,1.508,0,0,1,1.009-.43.921.921,0,0,1,.674.257,1.2,1.2,0,0,1,.319.736q.662-.3,1.721-.749l.236.579Q86.513-10.07,85.95-9.822ZM98.6-7.116a1.045,1.045,0,0,0-.252.372q-.062.137-.124.137a.783.783,0,0,1-.116-.017,9.6,9.6,0,0,1-3.31-1.44,10.429,10.429,0,0,1-3.231,1.431.575.575,0,0,1-.112.021q-.045,0-.116-.141a1.192,1.192,0,0,0-.228-.323,10.2,10.2,0,0,0,3.268-1.32,5.9,5.9,0,0,1-1.489-2.085q-.434,0-.753.012l-.165,0h-.05a.059.059,0,0,1-.066-.066v-.376q0-.058.066-.058l1.179.017h1.407V-12.3H92.423l-1.125.017q-.07,0-.07-.066v-.376q0-.066.07-.066l1.125.017h2.085v-.364a5.1,5.1,0,0,0-.066-1.026q.352.017.592.05.12.017.12.087a.289.289,0,0,1-.021.087.778.778,0,0,0-.033.083,2.783,2.783,0,0,0-.058.687v.4h2.23L98.4-12.8a.059.059,0,0,1,.066.066v.376a.059.059,0,0,1-.066.066L97.272-12.3h-2.23v1.357h1.407a.574.574,0,0,0,.211-.033A.312.312,0,0,1,96.746-11q.066,0,.228.161t.161.24q0,.05-.083.108a.649.649,0,0,0-.178.2,7.209,7.209,0,0,1-1.647,1.891A9.255,9.255,0,0,0,98.6-7.116Zm-2.246-3.364h-2.9A5.219,5.219,0,0,0,94.814-8.7,6.252,6.252,0,0,0,96.353-10.479Zm6.636-3.562q1.456.3,3.169.492l-.137.575a28.216,28.216,0,0,1-3.186-.534Zm-1.171,2q1.614-.046,4.092-.261l.356.447q-.6.546-2.1,2.085a.729.729,0,0,1,.273-.05.8.8,0,0,1,.641.331,1.6,1.6,0,0,1,.314.77,3.174,3.174,0,0,0,.294,1.1.584.584,0,0,0,.488.161,9,9,0,0,0,1.034-.058v.6q-.418.037-1.034.037a1.2,1.2,0,0,1-1.051-.368,3.087,3.087,0,0,1-.3-1.109,2.2,2.2,0,0,0-.207-.761.407.407,0,0,0-.368-.211.709.709,0,0,0-.4.1,1.736,1.736,0,0,0-.356.36q-.587.732-1.485,1.994l-.567-.29a46.54,46.54,0,0,1,3.769-4.567q-1.729.178-3.355.228Zm8.073-1.456q1.121-.008,3.446-.12l.356.443q-1.651,1.676-2.619,2.515l-.381.331.033.025.434-.294a2.793,2.793,0,0,1,1.2-.323,2.146,2.146,0,0,1,1.638.6,1.859,1.859,0,0,1,.488,1.336,2.007,2.007,0,0,1-.774,1.721,3.218,3.218,0,0,1-1.949.513q-1.659,0-1.659-1.125a.984.984,0,0,1,.356-.794,1.315,1.315,0,0,1,.865-.273,1.394,1.394,0,0,1,1.076.455,2.085,2.085,0,0,1,.476,1.018,1.561,1.561,0,0,0,.761-.592,1.768,1.768,0,0,0,.219-.931,1.35,1.35,0,0,0-.525-1.134,1.616,1.616,0,0,0-1.009-.319,2.965,2.965,0,0,0-2.048.823,7.534,7.534,0,0,0-.7.736l-.5-.405q2.027-2.085,3.711-3.8-1.216.091-2.888.137Zm2.387,6.2a1.831,1.831,0,0,0-.376-.865.772.772,0,0,0-.6-.285.677.677,0,0,0-.488.182.5.5,0,0,0-.165.376.526.526,0,0,0,.281.5,1.738,1.738,0,0,0,.786.137A3.653,3.653,0,0,0,112.278-7.3Z" transform="translate(0 13.36)" fill="#f1a1b4" opacity="0.95"/>
    <g id="Group_956" data-name="Group 956" transform="translate(1.477 14.638)">
      <path id="_パス_1380-2" d="M17.116,68.329H2.72V40.77h3V65.763H17.116Z" transform="translate(-2.72 -38.957)" fill="#f1a1b4"/>
      <path id="_パス_1381-2" d="M55.062,45.554a1.949,1.949,0,0,1-1.952-1.944V43.5a1.972,1.972,0,1,1,3.943-.089v.085a1.92,1.92,0,0,1-1.766,2.058,1.324,1.324,0,0,1-.224,0Zm1.52,23.184h-3V49.022h3V68.734Z" transform="translate(-31.768 -39.365)" fill="#f1a1b4"/>
      <path id="_パス_1382-2" d="M81,46.146c0-2.461,0-5.68,2.168-7.886a6.507,6.507,0,0,1,4.557-1.77,7.257,7.257,0,0,1,2.931.58l-.5,2.351a5.631,5.631,0,0,0-2.279-.47C84.766,38.95,84,41.842,84,45.027V46.15h4.773V48.5H84V65.861H81V48.5H78.29V46.15H81Z" transform="translate(-46.284 -36.488)" fill="#f1a1b4"/>
      <path id="_パス_1383-2" d="M130.984,77.521a14.254,14.254,0,0,1-6.184,1.228c-5.756,0-9.191-4.049-9.191-9.945,0-6.184,3.473-10.635,8.788-10.635,6.078,0,7.632,5.569,7.632,9,0,.686-.038,1.194-.072,1.664H118.545c.038,5.459,3.147,7.518,6.692,7.518a12.467,12.467,0,0,0,5.171-1.012l.58,2.168h0ZM129.066,66.6c.038-2.677-1.084-6.15-4.955-6.15-3.621,0-5.209,3.435-5.5,6.15Z" transform="translate(-67.798 -48.987)" fill="#f1a1b4"/>
      <path id="_パス_1384-2" d="M212.544,43.61a9.356,9.356,0,0,0-4.845-1.266c-3.833,0-5.281,2.351-5.281,4.341,0,2.711,1.664,4.083,5.353,5.641,4.447,1.88,6.726,4.159,6.726,8.1,0,4.375-3.185,7.738-9.114,7.738A12.688,12.688,0,0,1,198.8,66.43l.834-2.495a11.207,11.207,0,0,0,5.934,1.7c3.689,0,5.857-1.991,5.857-4.955,0-2.711-1.487-4.375-5.065-5.824-4.159-1.554-6.98-3.977-6.98-7.776,0-4.2,3.4-7.268,8.428-7.268a11.219,11.219,0,0,1,5.641,1.3l-.9,2.495h0Z" transform="translate(-115.754 -38.4)" fill="#f1a1b4"/>
      <path id="_パス_1385-2" d="M253.221,49.452l2.965-1.012v4.591h5.1v2.351h-5.1V66.775c0,2.495.758,3.871,2.677,3.871a5.965,5.965,0,0,0,2.024-.288l.182,2.317a7.592,7.592,0,0,1-2.931.47c-4.773,0-4.921-4.341-4.921-6.438V55.386H250.18V53.035h3.037V49.456Z" transform="translate(-145.373 -43.378)" fill="#f1a1b4"/>
      <path id="_パス_1386-2" d="M305.089,73.649a27.712,27.712,0,0,0,.288,4.7h-2.749l-.292-2.533h-.11a6.854,6.854,0,0,1-5.824,2.965,5.469,5.469,0,0,1-5.752-5.163c-.008-.148-.008-.292,0-.44,0-4.735,4.125-7.306,11.427-7.268,0-1.664,0-5.425-4.485-5.425a8.557,8.557,0,0,0-4.811,1.41l-.724-2.063a11.2,11.2,0,0,1,6.014-1.664c5.569,0,7.018,3.943,7.018,7.848v7.632Zm-2.965-5.531c-3.727,0-8.39.542-8.39,4.7,0,2.533,1.593,3.651,3.4,3.651a4.816,4.816,0,0,0,4.989-4.629V68.113Z" transform="translate(-168.699 -48.986)" fill="#f1a1b4"/>
      <path id="_パス_1387-2" d="M355.758,61.23a8.476,8.476,0,0,0-1.084-.072c-3.257,0-4.921,3.219-4.921,6.548V78.413h-3V64.6c0-2.1-.038-4.015-.144-5.9h2.639l.144,3.8h.11a5.9,5.9,0,0,1,5.349-4.231,7.093,7.093,0,0,1,.9.11v2.859h0Z" transform="translate(-200.962 -49.045)" fill="#f1a1b4"/>
    </g>
    <g id="_グループ_125" transform="translate(161.864 2.759)">
      <path id="_パス_1407" d="M408.441,12.432a.382.382,0,0,0-.051-.1C408.34,12.482,408.441,12.432,408.441,12.432Z" transform="translate(-396.955 -10.682)" fill="#f2a5ba"/>
      <path id="_パス_1408" d="M407.525,16.14l-.025.233.025-.208Z" transform="translate(-396.45 -12.879)" fill="#f2a5ba"/>
      <path id="_パス_1409" d="M406.577,17.6h.025s.131,0,.152-.051h0l-.1-.208h0l.051-.233a.564.564,0,0,0-.233.051h0l.1.208a7.026,7.026,0,0,1-.233.771c.1-.076.152-.335.207-.538h.025Zm.1-.233-.051.178Z" transform="translate(-395.781 -13.438)" fill="#f2a5ba"/>
      <path id="_パス_1410" d="M405.311,20.76h0a.362.362,0,0,1-.051.178c.051-.025,0,.178.076-.178Z" transform="translate(-395.159 -15.542)" fill="#f2a5ba"/>
      <path id="_パス_1412" d="M404.7,22.168V21.96s-.076.208-.076.131c-.051.208,0,.178.076.076Z" transform="translate(-394.779 -16.234)" fill="#f2a5ba"/>
      <path id="_パス_1414" d="M404.951,22.15l-.051.233s.051,0,0-.1V22.15Z" transform="translate(-394.951 -16.343)" fill="#f2a5ba"/>
      <path id="_パス_1415" d="M405.02,22.672l.025-.076.055-.385-.076.462h0Z" transform="translate(-395.02 -16.378)" fill="#f2a5ba"/>
      <path id="_パス_1417" d="M401.722,26.022s-.131-.076-.025-.1a2.543,2.543,0,0,0-.436.076h.462Z" transform="translate(-392.853 -18.517)" fill="#f2a5ba"/>
      <path id="_パス_1418" d="M400.77,26.206s.131-.025.208-.051A.28.28,0,0,0,400.77,26.206Z" transform="translate(-392.57 -18.65)" fill="#f2a5ba"/>
      <path id="_パス_1424" d="M401.31,26.365s-.233.025-.36.025h.436s.076-.051-.076-.051h0Z" transform="translate(-392.674 -18.759)" fill="#f2a5ba"/>
      <path id="_パス_1428" d="M399.86,26.33a.623.623,0,0,1,.178.025C399.987,26.356,399.86,26.3,399.86,26.33Z" transform="translate(-392.046 -18.749)" fill="#f2a5ba"/>
      <path id="_パス_1430" d="M402.742,26.4a.245.245,0,0,0-.152.051h.152Z" transform="translate(-393.62 -18.793)" fill="#f2a5ba"/>
      <path id="_パス_1431" d="M396.517,26.627s.568.076.36.131c-.335.025-.284,0-.436-.051.131.076-.436.1-.36.208l.284-.051s-.1.051,0,.051c0-.051.309-.1.567-.051.258-.051.076-.233-.131-.335,0,0,0,.051-.258.076h0l-.021.021Z" transform="translate(-389.863 -18.868)" fill="#f2a5ba"/>
      <path id="_パス_1432" d="M397.8,26.416h.593a2.589,2.589,0,0,1-.36-.076c-.178.025-.207.051-.233.076Z" transform="translate(-390.858 -18.759)" fill="#f2a5ba"/>
      <path id="_パス_1434" d="M402.391,26.82h-.411l.208.076h0c.233,0,.178-.051.208-.076Z" transform="translate(-393.268 -19.035)" fill="#f2a5ba"/>
      <path id="_パス_1435" d="M397.362,26.356l.051-.076-.233.1.178-.025h0Z" transform="translate(-390.501 -18.724)" fill="#f2a5ba"/>
      <path id="_パス_1436" d="M396.167,26.391l.025-.051-.152.025.131.025h0Z" transform="translate(-389.844 -18.759)" fill="#f2a5ba"/>
      <path id="_パス_1437" d="M405.011,45.23l-.051.1.1-.131h-.051Z" transform="translate(-394.986 -29.631)" fill="#f2a5ba"/>
      <path id="_パス_1439" d="M392.46,27.1l.051-.025S392.46,27.07,392.46,27.1Z" transform="translate(-387.78 -19.18)" fill="#f2a5ba"/>
      <path id="_パス_1441" d="M403.283,19.823s-.258.258-.152.178l.284-.208h-.076a2.8,2.8,0,0,1,.512-.436c.284-.152.233-.076.36-.152,0,0,.051,0,.152-.1l.618-.436-.462.208c.131-.152.512-.36,0-.1.1-.051.233-.1.36-.178a2.573,2.573,0,0,1-.36-.025v-.051a.743.743,0,0,0-.178-.1c-.076,0-.1,0-.335.1a.172.172,0,0,0-.152-.1,1.084,1.084,0,0,0-.512.131h-.872a4.6,4.6,0,0,1-.593.051h0a.414.414,0,0,0-.152-.131.633.633,0,0,0-.385.131c-.131-.076-.618-.025-.792-.152.076.025-.025.051-.178.051-.258-.076-.568-.178-.644-.208a.127.127,0,0,1-.076-.025c-.1-.025-.178,0-.487.208h-.36a4.281,4.281,0,0,1-.568-.051h-.076c-.258-.076-.618-.152-.72-.178v-.11h0a1.607,1.607,0,0,0-.025-.284,5.931,5.931,0,0,0-.1-.669.509.509,0,0,0-.157-.1h-.131l-.051-.1.051-.208a3.031,3.031,0,0,0,.131-.953.458.458,0,0,0-.152-.1c-.1,0-.1-.025-.436.178l-.076-.178v-.055a5.46,5.46,0,0,0-.025-.745.458.458,0,0,0-.152-.1h-.1l.076-.233a2.817,2.817,0,0,0,.258-.974.458.458,0,0,0-.152-.1.548.548,0,0,0-.284.076v-.051c-.034-.025-.072-.051-.1-.076l-.051-.1a6.181,6.181,0,0,1-.309-.593.213.213,0,0,0-.152-.1h-.152a.24.24,0,0,0-.025-.152.243.243,0,0,0-.131-.1.378.378,0,0,0-.233.051h-.03l.1.208-.1.051-.025-.131c0,.076-.208.538-.309.847a3.017,3.017,0,0,0-.309,1.029.459.459,0,0,0,.152.1c.076,0,.1.025.462-.178a3.853,3.853,0,0,1-.309.335c-.284.284-.487.512-.669.72l.051-.076v-.131a1.388,1.388,0,0,0-.076.258c-.411.436-.512.593-.538.695a.945.945,0,0,1-.076.208c.025-.051.076-.131.1-.131h0v.025h.025s.076.1.152.1a3.451,3.451,0,0,0,1.029-.487c-.178.178-.36.335-.512.512-.512.512-.847.822-1.055,1.055h0s-.152.178-.208.233v-.093s-.076.208-.131.208h.051c-.1.131-.076.178,0,.258,0,0,.025.051.051.051h0V18.2h0V18.15h.1l-.051.076a.084.084,0,0,0,.076-.051h0s.385-.178,1.618-.872c.538-.309,1.283-.745,1.465-.822a.166.166,0,0,0,.1-.025.06.06,0,0,0,.051-.025s.051,0,.051.025a.95.95,0,0,0,.076.258l.051-.076a.766.766,0,0,1,.051.309c.178.152-.152-.487,0-.335a1.056,1.056,0,0,0,.076.411c-.178,0-.538.152-4.138,2.185-.872.512-1.876,1.08-2.6,1.465.152-.178.335-.36.487-.538.872-.94,1.275-1.474,1.207-1.592a.456.456,0,0,0-.1-.076h-.076s.178-.051-.025-.076h.258a.974.974,0,0,1-.246-.03H390.7a2.1,2.1,0,0,0,.462,0c-.076.051-.284.076-.208.152-.076.025-.178.1-.335.178H390.6c-.208.131-.512.284-.953.538-.309.178-.695.385-.953.538l.076-.284c.178-.745.208-.847.178-.923h.152c.025-.051-.051-.051-.178-.051a.356.356,0,0,0-.1-.076,1.413,1.413,0,0,1,.462-.025c-.152-.076-.076,0-.309-.076.208.131-.822,0-.487.131a.942.942,0,0,0-.208-.076.2.2,0,0,0,0-.233.213.213,0,0,0-.152-.1,3.011,3.011,0,0,0-.695.309h-.051l-.131.076-.1.051a.954.954,0,0,0-.436.051c-.233,0,.051-.025-.1-.076l-.233.051-.208-.051-.152-.1h0a2.021,2.021,0,0,1-.309-.178c-.025,0-.051-.051-.1-.051a.572.572,0,0,0-.335.1l-.1.051a.954.954,0,0,1-.152-.1.194.194,0,0,0-.1-.051.378.378,0,0,0-.233.051h-.051l.051.152h-.1l.131.076h-.051s0,.076.051.1v.1h.131c.1.051.233.152.462.309.208.131.436.309.512.36.076.076.152.076.284.025.051.025.1.076.152.1a2.892,2.892,0,0,0,.178.462.243.243,0,0,0,.131.1.631.631,0,0,0,.076.178.213.213,0,0,0,.152.1h.152c.076.076.178.178.335.36s.36.385.385.411a.135.135,0,0,0,.131.076.428.428,0,0,0,.309-.1h0s.258.076.538.152h.051c-.1.178-.076.233,0,.309a.167.167,0,0,0,.136.093.685.685,0,0,0,.258-.051,10.211,10.211,0,0,0,.9.644q0,.131.051.152a.213.213,0,0,0,.152.1.5.5,0,0,0,.208-.025l.309.385c.1.152.233.284.284.36a1.6,1.6,0,0,0-.076.178c0,.025-.025.051-.025.1-.025.1-.051.233-.076.36h0c-.792.923-1.152,1.448-1.08,1.567a.459.459,0,0,0,.152.1c.076,0,.1,0,.385-.131,0,.051.051.025.1,0v.178c-.051,0-.076.076-.1.131-.512.385-.462.462-.385.593,0,.051.051.076.1.1a.2.2,0,0,0,0,.208h.03c-.076.233-.178.512-.258.72l-.152.411h0c-.152.411-.152.436-.1.512h0c0,.131-.051.233-.051.411l-.076.051c-.013.085-.03.174-.051.258a.4.4,0,0,1-.1.258,2.447,2.447,0,0,0-.131.284,13.813,13.813,0,0,0,1.232-.771c.258-.178.538-.36.792-.512a5.684,5.684,0,0,1,.538-.309c-.233-.051.385-.152.335-.284.076,0,.178-.051.076.051.335-.284.593-.309.771-.568.076,0-.051.1,0,.1,0-.025.1-.1.152-.1s-.025.051-.076.131c.36-.258.335-.385.284-.487a.646.646,0,0,0,.411-.309c.076,0,.233-.051,0,.1.131-.076.822-.487.792-.568.051,0,.178-.131.208-.152l.309-.208a.955.955,0,0,0,.152-.1h0a.414.414,0,0,0,.152.131.5.5,0,0,0,.208-.025c.233.208.284.233.36.258l.051.051c.178.178.385.411.411.436a.135.135,0,0,0,.131.076.361.361,0,0,0,.208-.051h0a1.333,1.333,0,0,1-.025.258,3.273,3.273,0,0,0-.076.953.458.458,0,0,0,.152.1l.923-.436.076-.051h0s-.131.051.051.178c0,.025.1.076.178.1-.207.258-.178.284-.1.385a.213.213,0,0,0,.152.1c.1,0,.1.025.538-.208a.944.944,0,0,1,.233.178c-.051-.076-.076-.152.076-.076a1.393,1.393,0,0,1,.309.258,2.431,2.431,0,0,0,.051.745.213.213,0,0,0,.152.1c.1,0,.1.025.669-.284.233.131.538.309.695.385a.664.664,0,0,0,0,.258.213.213,0,0,0,.152.1h.051A.183.183,0,0,0,401,29.31a1.317,1.317,0,0,0,.335.233c-.051-.1-.076-.233-.131-.36h.025s.153-.208.076-.309c0-.025-.051-.051-.076-.076h0s.131-.208.076-.309c0-.025-.051-.051-.076-.076a2.228,2.228,0,0,0,.1-.792.213.213,0,0,0-.152-.1c-.076,0-.1,0-.385.131-.025-.076-.025-.1-.051-.1l-.042-.064a3.355,3.355,0,0,0-.178-.487.732.732,0,0,0-.152-.208c0-.1.025-.025.051-.025l-.051-.178c.335-.568.309-.593.258-.695a.213.213,0,0,0-.152-.1.548.548,0,0,0-.284.076c.051-.152.076-.309.131-.436V25.38a.662.662,0,0,0,.076-.178,1.462,1.462,0,0,0,.1-.644.213.213,0,0,0-.152-.1,2.156,2.156,0,0,0-.568.233,2.3,2.3,0,0,0-.178-.436s.025,0,.051.051a4.118,4.118,0,0,1-.284-1c0-.076-.051-.152-.051-.233v-.1h-.051v-.051a.875.875,0,0,0,.051-.208h0s.131-.131.1-.208l.538-.385h0c.923-.644,1.876-1.232,2.749-1.825h-.152l.309-.233c.1-.025.152,0-.051.131.076,0,.152-.076.233-.152.051-.076.131-.178.131-.178.309-.178.309-.152.208-.051h0l-.106.021Zm.9-.644-.131.076C404.2,19.124,404.181,19.154,404.181,19.179Zm-13.519,2.876h0s-.076-.131-.152-.131h-.076v-.131h.076a.107.107,0,0,0,.051.1.172.172,0,0,0,.152.1c.178.051.335,0,3.316-1.749.335-.178.695-.411,1.029-.593-.385.284-.771.593-1.105.872-1.389,1.105-2.058,1.618-2.363,1.9h0a1.586,1.586,0,0,0-.152-.1s-.051-.051-.076-.051l-.051-.051s-.208-.309-.258-.258a.4.4,0,0,1-.131.436c-.1-.131-.178-.258-.233-.309h0l-.021-.042Zm5.756-4.422a.459.459,0,0,0,.152.1h.1a.762.762,0,0,1,.025.309c.1.258.051-.1.152.152v.076l.051.051h0a.294.294,0,0,0-.131-.051c-.152-.025-.208-.051-3.033,1.592-.385.233-.792.462-1.207.695.385-.309.822-.618,1.207-.9,1.567-1.156,2.312-1.749,2.673-2.054h0v.025Zm2.6,4.472V22.03l.436-.284c-.233.178.051.131-.36.36l.131-.208-.233.178h0l.021.025Zm-.745.512h.076c-.593.309-1.618.872-3.494,1.952.72-.436,1.465-.9,2.16-1.313.72-.436,1.364-.822,1.927-1.186l-.076.051-.076.051-.1.076s-.258.178-.462.309v.051h.051Zm.462,2.855a.459.459,0,0,0,.152.1h.1c-.233.131-.487.284-.822.462l-.36.208a3.318,3.318,0,0,0,.258-.284c.258-.258.436-.462.618-.644,0,.131.025.131.051.152h0Zm-1.669.462s.051.076,0,.076Zm.1,0a.456.456,0,0,0-.1-.051v-.076c.208-.1.538-.309,1.105-.644l.076-.051c-.178.178-.36.385-.512.538-.178.178-.335.36-.462.487-.076-.1-.1-.152-.1-.208h0Zm-1.131-1.415a.127.127,0,0,0-.025-.076h0c.618-.385,1.207-.72,1.72-1h0a.189.189,0,0,0,.178,0h0c-.178.1-.462.284-.923.538-.309.178-.669.385-.9.512h0l-.051.025Zm2.44-1.029a.127.127,0,0,0-.025-.076c0-.025-.051-.051-.076-.076h0l.076-.051.051.1v.076h-.025v.025Zm-.08.258c-.131.411-.131.436-.076.512a.172.172,0,0,0,.152.1h.051v.076c-.152.1-.36.208-.593.36-.152.1-.335.208-.512.309.089-.123.182-.246.284-.36.411-.538.618-.822.72-.974h0l-.025-.025Zm.538,2.414a1.906,1.906,0,0,0-.644.284l.1-.051c.208-.131.462-.258.669-.385l-.153.152Zm.462,1.029a.24.24,0,0,1-.076-.051l.131-.076-.076.131h.021Zm.131-.673s-.335.178-.644.36a4.489,4.489,0,0,1,.335-.36l.233-.258s.051.152.076.258Zm-2.7-4.367c-1.389.792-2.956,1.7-4.214,2.414.974-.618,2.109-1.334,3.134-1.978a59.208,59.208,0,0,0,5.269-3.443h0a1.063,1.063,0,0,0,.462-.178h0s.076.258.1.385V19.4c-1.029.568-2.571,1.44-4.807,2.749h.051Zm.152-3.6h0v.178a.107.107,0,0,0-.051-.1C396.93,18.608,396.981,18.582,396.981,18.557Zm-.076.1c.051.131.1.284.152.411h.644c-.593.335-1.415.792-2.622,1.491-.593.335-1.233.72-1.825,1.055.309-.258.669-.512.974-.771a33.073,33.073,0,0,0,2.672-2.19h0Zm3.109.313h-.051a1.03,1.03,0,0,1,.36-.051c-.568.284-1.643.9-3.753,2.135-.923.538-2,1.156-2.931,1.7.436-.284.9-.593,1.334-.9,2.495-1.669,3.6-2.44,4.062-2.825a6.231,6.231,0,0,0,.974-.051Zm-4.676,1.952c.411-.233.847-.487,1.283-.745-.644.436-1.313.9-1.927,1.313-1.618,1.08-2.52,1.7-3.032,2.08v-.051h-.025l.152-.1s0-.025-.051-.051v-.051h.051s.1-.1.1-.178c.208-.258.284-.36.258-.436.462-.233,1.364-.745,3.164-1.8h0l.021.025Zm-3.9,2.77h0l-.051.051v-.051Zm.152.618a51.993,51.993,0,0,0,4.828-2.672c-.309.208-.618.385-.923.593-1.927,1.207-3.21,2.029-4.087,2.571.233-.36.207-.411.152-.487h.03Zm-.538-.131a.14.14,0,0,0,.051.1v.051l-.1.076v-.1l.051-.1h0Zm-.669,2.672h0l.076-.208s.076.025.076.051v-.233s.025-.152.025-.178c.051,0,.1-.051.152-.076a.345.345,0,0,1,.025-.131c.847-.411,2.6-1.389,6.349-3.57,1.207-.695,2.571-1.465,3.727-2.135-1.232.771-2.7,1.669-4.036,2.465-3.824,2.338-5.6,3.443-6.425,4.007h.03Zm9.483-5.341a1.541,1.541,0,0,1-.131.152l-.051-.051.178-.1h0Zm-4.138,3.545s-.076-.076-.131-.076h-.051l.131-.076v.051a.172.172,0,0,0,.152.1c.131.025.152.025,1.389-.695l.335-.178-.208.284a10.99,10.99,0,0,0-.847,1.186c-.131-.076-.284-.131-.436-.233-.178-.152.076,0,0-.1l-.152-.051-.208-.208h0l.025-.008Zm6.658-6.167.1.051h.076l.051-.051h.025l-.568.284-.047-.169a1.341,1.341,0,0,1,.335-.131h0l.021.021Zm-4.828-.593-.051-.051Zm-2.16-5.387h0l-.076.051.051-.1v.051Zm-.309.695c.1-.284.178-.487.233-.644l.051.076s-.051.284-.131.284a.655.655,0,0,1,.131.36l-.233.131-.178.1.131-.309h0Zm-.076,1.436c.258-.258.436-.487.593-.644,0,.025.025.051.051.076,0,.1-.076-.076-.076,0a.766.766,0,0,1,.207.385c-.1,0-.258.1-1.08.568h-.051l.36-.36h0v-.025Zm-.644,1.927-.254.152.36-.36c.695-.695,1.105-1.08,1.313-1.334h.178a3.01,3.01,0,0,1,.131.462v.178h0c-.131-.025-.152-.051-1.72.872h0l-.008.025Zm-1.724,2.613c.695-.385,1.44-.822,2.109-1.207-.385.309-.822.618-1.207.9a17.89,17.89,0,0,0-2.931,2.338.166.166,0,0,1-.076-.076l.076.076v.051a.3.3,0,0,1-.131-.025V21.56a2.575,2.575,0,0,0-.1-.695c.513-.284,1.258-.695,2.262-1.283h0Zm-2.622,0,.36-.208c-.152.152-.284.309-.411.462-.411.436-.695.745-.872.953h-.131v-.047c-.208-.131-.335-.258-.487-.36.131,0,.208,0,1.567-.792h0l-.021-.008Zm-2.287.208c-.178-.233.284.178.152-.025a.384.384,0,0,1-.233-.076l-.178-.076h0l.436-.258c.178-.106.385-.233.593-.335l-.076.335c-.152.695-.178.792-.152.872-.051-.051-.131-.076-.178-.131,0-.051-.208-.208-.076-.178a.5.5,0,0,1-.258-.131h-.03Zm-.131.11c-.1-.03-.191-.064-.284-.1l-.1-.051.208-.1s.36.208.487.284c-.051.051-.152.051-.309,0h0V19.9Zm.771-1.334c-.152.076-.385.208-.695.385-.233.131-.513.309-.745.411h0l-.076-.224s.309-.152.72-.385l.208-.131h.051a1.832,1.832,0,0,1,.284-.152h.152l.076.076a.744.744,0,0,0-.335,0,2.572,2.572,0,0,1,.36.025h0Zm-.436,1.978h0l-.051-.051h0l-.051-.051.051.051.1.051Zm4.828,5.963a.788.788,0,0,1,.233-.131A.492.492,0,0,1,392.763,26.506Zm.487,0s-.025-.025,0-.1l-.051.051c-.152.051-.131-.025-.051-.131l.178-.051s.1-.208.051-.258l-.1.1v-.051l-.1.1h-.152l-.538.284a6.216,6.216,0,0,1-1.029,1.055c.1-.152-.051-.131-.1-.208.208,0,.411-.309.695-.487-.152.1-.152.025-.131,0l-.462.411a1.323,1.323,0,0,0-.309.1c.1,0,0,.1-.1.208a1.048,1.048,0,0,1-.208.152l-.051.051h-.025l-.051.076v-.072s0-.025.051-.051a.4.4,0,0,1,.152-.1.113.113,0,0,0-.1.051h-.051v.051h-.025a.381.381,0,0,1-.051.1.24.24,0,0,1-.208.178c.051-.025.076-.025.076-.076a.575.575,0,0,1-.208.152c-.051.025-.076,0-.051-.025h.025a3.475,3.475,0,0,0-.436.258V28.1l.178-.1s.258-.152.309-.178h.025s.152-.208.076-.309l-.051-.051c.436-.233,1.232-.669,2.749-1.516h.025v.051h0a.213.213,0,0,1,.1.025h.051a.213.213,0,0,0,.1-.025,1.041,1.041,0,0,1-.233.258,2.291,2.291,0,0,0,.233-.051l-.335.284h0l.131.021Z" transform="translate(-383.238 -10.726)" fill="#f2a5ba"/>
      <path id="_パス_1442" d="M405.08,44.643h.051Q405.131,44.617,405.08,44.643Z" transform="translate(-395.055 -29.302)" fill="#f2a5ba"/>
      <path id="_パス_1444" d="M393.653,26.34h-.233a2.288,2.288,0,0,1,.233.051S393.6,26.365,393.653,26.34Z" transform="translate(-388.333 -18.759)" fill="#f2a5ba"/>
      <path id="_パス_1446" d="M388.964,26.5c.152,0,0-.076.1-.051.051-.025-.178,0-.309,0-.131.025-.131.051.178.025h0l.025.025Z" transform="translate(-385.597 -18.813)" fill="#f2a5ba"/>
      <path id="_パス_1448" d="M410.171,12.552l-.131-.1a.707.707,0,0,1,.051.178l.076-.076h0Z" transform="translate(-397.914 -10.752)" fill="#f2a5ba"/>
      <path id="_パス_1450" d="M398.641,19.42l-.051.025h.025Z" transform="translate(-391.314 -14.77)" fill="#f2a5ba"/>
      <path id="_パス_1451" d="M398.486,19.316h.076s-.1-.051-.076-.076C398.41,19.316,398.537,19.265,398.486,19.316Z" transform="translate(-391.239 -14.666)" fill="#f2a5ba"/>
      <path id="_パス_1454" d="M398.77,18.681h.051a.109.109,0,0,1,.025-.051C398.821,18.63,398.8,18.63,398.77,18.681Z" transform="translate(-391.418 -14.314)" fill="#f2a5ba"/>
      <path id="_パス_1457" d="M398.641,18.88s0,.025-.051.051C398.615,18.931,398.692,18.931,398.641,18.88Z" transform="translate(-391.314 -14.458)" fill="#f2a5ba"/>
      <path id="_パス_1459" d="M398.58,18.5h.025s0-.025.051-.051a.241.241,0,0,0-.076.051Z" transform="translate(-391.308 -14.21)" fill="#f2a5ba"/>
      <path id="_長方形_143" d="M398.35,18.983l.1-.013h0Z" transform="translate(-391.175 -14.51)" fill="#f2a5ba"/>
      <path id="_パス_1461" d="M398.58,18.3h.025l.051-.025-.076.025Z" transform="translate(-391.308 -14.107)" fill="#f2a5ba"/>
      <path id="_パス_1462" d="M398.58,18.141s.051-.051.076-.051h-.076Z" transform="translate(-391.308 -14.003)" fill="#f2a5ba"/>
      <path id="_パス_1464" d="M398.521,18.39l-.051.051h0a.049.049,0,0,0,.051-.051Z" transform="translate(-391.245 -14.176)" fill="#f2a5ba"/>
      <path id="_パス_1465" d="M398.425,18.475h0l-.025-.025Z" transform="translate(-391.204 -14.21)" fill="#f2a5ba"/>
      <path id="_パス_1467" d="M398.1,18.861a.2.2,0,0,1,.131-.051A.182.182,0,0,0,398.1,18.861Z" transform="translate(-391.031 -14.418)" fill="#f2a5ba"/>
      <path id="_パス_1469" d="M398.28,18.355s.051,0,.051-.025h-.051v.051h0Z" transform="translate(-391.135 -14.141)" fill="#f2a5ba"/>
      <path id="_パス_1476" d="M397.442,18.157a.108.108,0,0,1,.025-.051c-.051.051-.1,0-.208.076h.051s-.051,0-.051.025c.051-.025.1-.025.076,0a1.069,1.069,0,0,0,.309-.178h-.076s-.051.076-.1.076h0l-.021.051Z" transform="translate(-390.547 -13.968)" fill="#f2a5ba"/>
      <path id="_パス_1477" d="M398.16,18.09v.051h0l.051-.051Z" transform="translate(-391.066 -14.003)" fill="#f2a5ba"/>
      <path id="_パス_1478" d="M397.969,18.21h-.076c-.051.025-.1,0-.152.076h.08c-.025-.025.025,0,.051-.051h.051l.051-.025Z" transform="translate(-390.824 -14.072)" fill="#f2a5ba"/>
      <path id="_パス_1479" d="M397.8,19.025l.025-.025Z" transform="translate(-390.858 -14.528)" fill="#f2a5ba"/>
      <path id="_パス_1480" d="M397.947,18.75a.989.989,0,0,0-.131.1h.025a.109.109,0,0,0-.051.025.127.127,0,0,0,.076-.025h0l.076-.076h0V18.75Z" transform="translate(-390.853 -14.383)" fill="#f2a5ba"/>
      <path id="_パス_1482" d="M398.151,17.985l.051-.025-.1.025Z" transform="translate(-391.031 -13.928)" fill="#f2a5ba"/>
      <path id="_パス_1483" d="M398.176,17.9h-.051l-.025.025Z" transform="translate(-391.031 -13.893)" fill="#f2a5ba"/>
      <path id="_パス_1485" d="M396.82,15.717l.051-.047h-.051Z" transform="translate(-390.293 -12.608)" fill="#f2a5ba"/>
      <path id="_パス_1488" d="M397.5,16.981V16.93C397.47,16.955,397.419,17.006,397.5,16.981Z" transform="translate(-390.659 -13.334)" fill="#f2a5ba"/>
      <path id="_パス_1490" d="M397.55,16.946s.025-.051,0-.025h0s.025.013.025.025Z" transform="translate(-390.714 -13.325)" fill="#f2a5ba"/>
      <path id="_パス_1497" d="M394.934,15.882h.076l.152-.1-.233.1Z" transform="translate(-389.204 -12.671)" fill="#f2a5ba"/>
      <path id="_パス_1498" d="M390.347,9.166l-.051.051q.076-.038.076,0h0s.025.1.051.178l.055-.051v.051c.1-.051,0-.025.076-.1-.1.1.076.076-.051.208,0,0,.051-.051.076-.051h0a.24.24,0,0,1-.051.076h0s.051.025.051.051h0a.292.292,0,0,0,.178.076h0s0,.025.051.051h.051c-.051,0-.051.076-.1.076.076,0,.051,0,.178-.051l-.051.051s.076-.025.1,0c-.051,0-.051.051-.131.076-.076.1.152,0,0,.1.152-.076.051-.076.076-.1.025-.051.1-.051.1-.025,0,0-.152.131-.1.178h0s.051,0,0,.051c.076-.051,0,0,.1-.051h-.051s.178-.076.131,0h-.072c0,.025.025,0,0,.025-.1.076-.051,0-.152,0-.025.025.1,0,0,.051.152-.076,0,.051.131,0l-.051.051h-.025s-.025.1,0,.1c-.025-.025.076-.051.1-.1.1,0-.131.131-.076.152a.049.049,0,0,1,.051-.051h0a.088.088,0,0,1-.055.076c.025.025.051-.051.1-.051-.076.051.051,0,.076,0l-.051.051s.131-.076.1,0l-.1.051h.025l-.076.051s.051,0,.051.025c.051-.025.1-.076.131-.051-.025.025-.051.025-.025.051-.051,0-.1.051-.051,0H391.1v.076h.131a.385.385,0,0,1-.131.051h.076s-.051.051-.076.051c0,.025.131,0,.1.025h.025c0,.025-.051.1.051.076l-.076.076s.1-.1.152-.076c.051,0-.076.051-.1.076.051,0,.152-.051.1,0h0l-.051.051a.274.274,0,0,0-.152.051c.178-.1.076.051.258-.025h.076s-.025.051-.051.051h.025l.051.051h.1s-.1.051-.1,0c-.178.131.051,0,0,.1h-.025l-.1.1c.025,0,.131-.131.208-.131,0,0,0,.025.025,0-.076.025-.051.051-.025.051l-.076.051a.345.345,0,0,0,.131-.025l-.11.106c0,.025.1-.076.131-.051,0,.051.025.051.1.051,0,.025-.051,0-.076.051h.051a.294.294,0,0,1,.131-.051c.1-.051-.1.131,0,.076a.084.084,0,0,0-.076.051h.178l-.051.051a.718.718,0,0,1,.233-.076l.051-.051h.076a.24.24,0,0,0-.076.051h0a.294.294,0,0,1-.131.051l.051-.051s-.131.051-.178.076h.025l-.1.076h.051v.051a.766.766,0,0,1,.309-.051c-.076,0-.131.051-.208.1.076-.051-.051,0-.051-.051,0,0-.051.025-.051.051h.1a.166.166,0,0,0-.076.076c.131-.076.1,0,.152,0-.051,0-.1.051-.1,0-.076.076.178-.051.1,0h0c.051,0,.025.051,0,.051h0a.131.131,0,0,0,.178.051h0l-.152.076.436-.131a2.077,2.077,0,0,1-.411.178.027.027,0,0,0,.025.025,1.279,1.279,0,0,1,.152-.076c-.1.076-.051.051-.131.131,0,0,.178-.1.178-.076a1.605,1.605,0,0,1-.178.076l.178-.051s-.131.076-.178.1c.025,0,0,.025.025.025h.025s.233-.1.258-.051c-.025,0-.208.076-.208.131a3.244,3.244,0,0,1,.487-.152h0s-.411.152-.513.178c-.025.025-.051.025-.025.051-.025.025-.076,0-.076,0v.051a.323.323,0,0,0,.178-.051h-.131s.284-.1.284-.051a1.883,1.883,0,0,1-.208.1h0s.131,0,.076.051c0,0-.1.076-.051.051a2.974,2.974,0,0,1,.487-.258.552.552,0,0,1-.131.131c-.076.051-.208.076-.258.131h.076s-.076.025-.051.051c.1-.051,0,.051.076-.025.025,0,0,.025,0,.051a.909.909,0,0,1,.258-.076.223.223,0,0,0-.059.051v.131a.1.1,0,0,1-.076.051h.051s-.025,0-.1.051c.051-.025.1,0,.131,0,.076-.051,0-.051-.051-.051a.575.575,0,0,1,.335-.076c.051,0-.076.051-.051.051,0,.076.233-.051.178.025a.728.728,0,0,1-.208.1c-.051,0,0-.051,0-.076h0s-.051.025-.051,0c-.051.051.051.1,0,.178a.1.1,0,0,0,.076-.025h0s.1-.025.1-.051h.1l-.076.051s.051-.051,0-.025c.051,0-.076.1.025.051l.051-.051s.152-.025.131,0c.076-.051,0,0,.076-.076-.1.076-.025-.051-.131.025.1-.076.025-.051.1-.131-.025,0-.051.025-.051,0h-.025v.051H393.1a.108.108,0,0,0,.051-.025H393.1s.076-.076.131-.076h0s.025-.076,0-.076h-.076s-.153-.051-.051-.152c0,0-.051,0-.051-.025h.051s0-.1-.025-.076c.131-.1,0-.1,0-.131h-.208V11.97h0c.1-.1-.152-.025-.076-.131h0v-.051a.084.084,0,0,0-.076.051h-.051s-.051,0,.051-.076a.42.42,0,0,0-.178,0h0v-.051l.076-.051h-.131a.7.7,0,0,0,.131-.051h-.131s-.1,0-.051-.051c.076-.076-.051-.131,0-.233-.153.1.051-.076-.076,0,.025,0,.051-.051.076-.051-.051,0,.025-.076-.076-.051a.1.1,0,0,0,.076-.025h.051c-.025-.025-.152.025-.258.076.051-.051.025-.051-.051,0,.025,0,.051-.051.076-.051,0,0,0-.1-.076-.051h0a.073.073,0,0,0-.025-.051H392.1s-.051,0,0-.1h-.059c-.131.1.051-.051,0-.051h-.025a1.835,1.835,0,0,0,.178-.131h.025a.176.176,0,0,1-.131,0c.051-.025.131-.051.1-.076.025-.025-.178.025-.1-.051-.025,0-.051.051-.1.051,0,0,.1-.131,0-.076h0a.142.142,0,0,0-.152,0c.208-.131-.178-.025.025-.152l-.051-.051h0a.176.176,0,0,0-.131,0,.06.06,0,0,0,.051-.025q0-.076-.131-.051l.051-.051s.051-.131-.051-.131h.025s.1-.233-.152-.1h-.068a.391.391,0,0,0-.131.1s.051-.076.076-.076h0a.155.155,0,0,1,.076-.131c-.051-.076-.051-.208-.1-.284l-.076.076h0l.076-.076c.051-.051-.076,0-.076,0,0-.051.131-.051.1-.076h-.025s-.076.051-.1,0c0-.025.051-.051.051-.051H391.2l-.076.076c.1-.1-.051-.152,0-.178a.147.147,0,0,1-.1-.025s-.076.076-.1.051c.178-.131.025-.076.131-.208-.051.076-.076-.051-.152.076,0-.025.051-.051.076-.1-.1,0-.025-.131-.1-.152l-.076.076.076-.1s-.131.1-.076,0c0,0-.025.051-.051.051,0-.076-.076-.131-.131-.152s-.1-.076-.076-.208c0,.051-.025.051-.051.025l-.076.076V8.818s0-.025-.1.025h0a3.568,3.568,0,0,1-.258.309c.1-.076-.076.178.076.076h0l.233-.076Zm1.317,1.876h-.025C391.715,11.017,391.689,11.042,391.664,11.042Z" transform="translate(-386.391 -8.653)" fill="#f2a5ba"/>
      <path id="_パス_1502" d="M397.655,18.01s-.025.025,0,.025h0S397.705,17.985,397.655,18.01Z" transform="translate(-390.768 -13.953)" fill="#f2a5ba"/>
      <path id="_パス_1504" d="M397.847,17.515s.076-.025.051,0C397.974,17.489,397.8,17.515,397.847,17.515Z" transform="translate(-390.88 -13.665)" fill="#f2a5ba"/>
      <path id="_パス_1505" d="M397.25,18.225l.076-.025h-.076Z" transform="translate(-390.541 -14.066)" fill="#f2a5ba"/>
      <path id="_パス_1508" d="M396.855,17.48s-.025,0,0,.025h.025Z" transform="translate(-390.307 -13.651)" fill="#f2a5ba"/>
      <path id="_パス_1509" d="M396.605,17.805l.051-.025-.076.051h.025Z" transform="translate(-390.155 -13.824)" fill="#f2a5ba"/>
      <path id="_パス_1510" d="M396.444,17.72s-.076,0-.051.025C396.393,17.745,396.444,17.745,396.444,17.72Z" transform="translate(-390.044 -13.79)" fill="#f2a5ba"/>
      <path id="_パス_1511" d="M396.28,16.766h.025l.131-.076-.152.076h0Z" transform="translate(-389.982 -13.196)" fill="#f2a5ba"/>
      <path id="_パス_1512" d="M395.3,16.51s-.025,0-.1.051c0,.051.076-.025.051,0,.025,0,0-.025.051-.051Z" transform="translate(-389.36 -13.092)" fill="#f2a5ba"/>
      <path id="_パス_1513" d="M391.445,8.44l-.025.051h.025Z" transform="translate(-387.18 -8.44)" fill="#f2a5ba"/>
      <path id="_パス_1514" d="M391.205,8.576l.051-.076-.076.051h0Z" transform="translate(-387.042 -8.475)" fill="#f2a5ba"/>
      <path id="_パス_1515" d="M393.541,14.33l-.051.051h0V14.33Z" transform="translate(-388.374 -11.835)" fill="#f2a5ba"/>
      <path id="_パス_1516" d="M393.37,13.805h0l.076-.025Z" transform="translate(-388.305 -11.518)" fill="#f2a5ba"/>
      <path id="_パス_1520" d="M429.992,12.131h0V12.08s-.051.076-.1.076c.051.076.051-.025.076,0h0Z" transform="translate(-409.357 -10.538)" fill="#f2a5ba"/>
      <path id="_パス_1523" d="M429.365,11.8s-.025-.013-.025-.025a.1.1,0,0,0,.025.076Z" transform="translate(-409.04 -10.36)" fill="#f2a5ba"/>
      <path id="_パス_1526" d="M429.581,12.051s0-.1-.051-.051a.049.049,0,0,1,.051.051Z" transform="translate(-409.15 -10.484)" fill="#f2a5ba"/>
      <path id="_パス_1528" d="M429.151,11.951s-.025,0-.051-.051a.241.241,0,0,0,.051.076h0Z" transform="translate(-408.902 -10.435)" fill="#f2a5ba"/>
      <path id="_パス_1531" d="M428.86,11.951V11.9l.025.076Z" transform="translate(-408.763 -10.435)" fill="#f2a5ba"/>
      <path id="_パス_1532" d="M428.671,11.976s-.051-.051-.051-.076v.076Z" transform="translate(-408.625 -10.435)" fill="#f2a5ba"/>
      <path id="_パス_1534" d="M429.031,12.131s-.025-.051-.051-.051Z" transform="translate(-408.833 -10.538)" fill="#f2a5ba"/>
      <path id="_パス_1537" d="M429.461,12.381a.2.2,0,0,1-.051-.131A.182.182,0,0,0,429.461,12.381Z" transform="translate(-409.08 -10.636)" fill="#f2a5ba"/>
      <path id="_パス_1538" d="M429.22,12.26v.051h.025A.108.108,0,0,0,429.22,12.26Z" transform="translate(-408.971 -10.642)" fill="#f2a5ba"/>
      <path id="_パス_1539" d="M428.885,12.311s0-.051-.025-.051v.051Z" transform="translate(-408.763 -10.642)" fill="#f2a5ba"/>
      <path id="_パス_1546" d="M428.592,12.782h-.051c.051.051,0,.1.076.208v-.051s0,.051.025.051c-.025-.051-.025-.1,0-.076a.894.894,0,0,0-.2-.284v.076a.172.172,0,0,1,.1.1h0l.051-.025Z" transform="translate(-408.521 -10.855)" fill="#f2a5ba"/>
      <path id="_パス_1547" d="M428.515,12.456h.051a.166.166,0,0,0-.076-.076v.076Z" transform="translate(-408.55 -10.711)" fill="#f2a5ba"/>
      <path id="_パス_1548" d="M428.74,12.405a.193.193,0,0,0,.076.152v-.076c-.025.025,0-.025-.051-.051h0V12.38h0v.051h0l-.025-.025Z" transform="translate(-408.694 -10.711)" fill="#f2a5ba"/>
      <path id="_パス_1550" d="M429.392,12.612v.051a.127.127,0,0,0-.025-.076h0s-.076-.051-.076-.076a.438.438,0,0,0,.1.131v-.03Z" transform="translate(-409.011 -10.786)" fill="#f2a5ba"/>
      <path id="_パス_1552" d="M428.421,12.431l-.051-.051.051.076Z" transform="translate(-408.481 -10.711)" fill="#f2a5ba"/>
      <path id="_パス_1553" d="M428.345,12.5l-.025-.051V12.5Z" transform="translate(-408.452 -10.752)" fill="#f2a5ba"/>
      <path id="_パス_1555" d="M425.888,14.272s-.131-.076-.076-.025l.051.051h.025Z" transform="translate(-406.998 -11.777)" fill="#f2a5ba"/>
      <path id="_パス_1556" d="M425.271,16.2h0l-.051-.051V16.2Z" transform="translate(-406.665 -12.885)" fill="#f2a5ba"/>
      <path id="_パス_1557" d="M424.43,18.81l.051.051S424.481,18.835,424.43,18.81Z" transform="translate(-406.21 -14.418)" fill="#f2a5ba"/>
      <path id="_パス_1558" d="M427.331,13.29h-.051C427.305,13.29,427.356,13.341,427.331,13.29Z" transform="translate(-407.853 -11.236)" fill="#f2a5ba"/>
      <path id="_パス_1559" d="M423.58,16.93l.025.025Z" transform="translate(-405.72 -13.334)" fill="#f2a5ba"/>
      <path id="_パス_1565" d="M427.915,12.75l-.025.025h.025Z" transform="translate(-408.204 -10.925)" fill="#f2a5ba"/>
      <path id="_パス_1567" d="M426.532,15.712s-.025-.076,0-.051l-.152-.131.152.178h0Z" transform="translate(-407.334 -12.527)" fill="#f2a5ba"/>
      <path id="_パス_1568" d="M420.164,16.5a.24.24,0,0,1,.076.051h-.131s-.025.051.051.1h0a2.7,2.7,0,0,1,.36.152c-.1-.076.208.025.076-.076.025,0,.025.025.076.051q-.051-.051,0-.051h0a1.214,1.214,0,0,0,.178-.1h-.076l.051-.025c-.076-.076-.025.025-.131-.051.131.051.076-.1.208,0,0,0-.076-.025-.051-.051h.1s0-.051.025-.025h-.025a.2.2,0,0,0,.051-.208h-.025a.1.1,0,0,0,.051-.076h0s-.025-.051,0-.051c.025.025.076,0,.1.051-.025-.076-.025-.051-.131-.152h.051s-.051-.025-.051-.051c.025.051.076.025.131.076.131,0-.051-.131.1-.051-.131-.1-.1,0-.131-.025-.051,0-.076-.076-.051-.076,0,0,.178.076.208.051h0s-.025-.051.051-.025c-.076-.051,0,0-.076-.076v.051s-.131-.131-.051-.131l.051.051c.025,0,0-.025.025,0,.1.076,0,.051.051.131.051,0-.051-.076.051,0-.131-.1.051-.025-.051-.131l.051.051v-.051l.051.051s.076,0,.076-.051c-.025.051-.076-.025-.131-.051-.051-.1.178.076.207,0h.025c0-.051-.076-.025-.1-.076.076.025,0-.025-.025-.076l.051.051s-.131-.1-.051-.1l.076.076h.051V15.6c-.051,0-.1-.076-.1-.1.051,0,.051.051.076,0,.025.025.076.076,0,.051l.051.051.051-.051h0l-.051-.1s.051.025.051.051v-.051c.051.025.1.076.1.1v-.076a.049.049,0,0,1,.051.051h0c.051,0-.051-.1,0-.1h0s.1,0,.051-.1l.1.051s-.131-.051-.131-.131c0-.051.076.051.1.051-.025-.051-.1-.131,0-.1v.03h.051a.132.132,0,0,0,.1.131c-.152-.131.051-.076-.131-.208h.051s-.1-.076-.051-.1a.127.127,0,0,1,.076.025v-.055h.025a.457.457,0,0,1-.051-.1c.025,0,0,0,.025.025v-.051s.051.076.025.076c.178.1-.025-.051.1,0h0a1.024,1.024,0,0,0,.152.076.484.484,0,0,1-.208-.131s.025,0,0-.025c.051.051.051,0,.051,0l.076.051a.455.455,0,0,1-.076-.1.369.369,0,0,1,.131.076c.025,0-.1-.051-.1-.1.051,0,.025-.051,0-.1.051,0,.051.051.076.051l-.051-.051h.025s-.076-.051-.076-.076c-.076-.076.152.051.076-.051.025,0,.051.051.076.051a.263.263,0,0,0-.076-.152h.076s-.131-.076-.152-.152h-.051v-.1l.051.051h0a.2.2,0,0,1,.1.076h-.051a.776.776,0,0,0,.131.1h.131a.875.875,0,0,1-.152-.284.866.866,0,0,1,.152.152c-.076-.051,0,.051-.025.076,0,0,.051.025.051.051v-.1s0,.025.051.051c-.131-.1-.051-.1-.076-.131.025.025.076.076.051.076.1.051-.1-.152,0-.1h0c0-.051.025-.051.051,0h0a.11.11,0,0,0,.021-.157c-.008-.008-.013-.017-.021-.021l.131.131-.258-.36a1.753,1.753,0,0,1,.309.309s.051,0,.025-.025l-.131-.1c.1.076.051.025.152.076a.976.976,0,0,1-.131-.152l.131.131-.076-.152.131.131c-.025,0,.025,0,0-.051h-.051s-.131-.208-.1-.233a.377.377,0,0,0,.178.152,1.81,1.81,0,0,1-.258-.411h.025s.208.309.258.411c.051,0,.051.051.051,0,.051.025.051.051.025.076h.076a.329.329,0,0,0-.1-.178v.131s-.152-.233-.1-.258c.025,0,.1.131.131.152h0s-.025-.131.051-.076c0,0,.1.076.076.025-.076-.076-.335-.335-.385-.411a.855.855,0,0,1,.152.076c.076.051.131.178.178.233l-.025-.051s.051.076.051.051c-.051-.076.051,0-.051-.076,0-.025.025,0,.051,0a.492.492,0,0,1-.131-.233l.051.051a.177.177,0,0,0,.131-.025.166.166,0,0,1,.076.076v-.059s-.025.025.051.1c-.025-.051,0-.076-.025-.131-.051-.076-.051,0-.051.051a.625.625,0,0,1-.131-.284c0-.051.051.051.051.025.076,0-.076-.208,0-.178a.417.417,0,0,1,.131.178c0,.051-.076,0-.076,0h.051v.055c.051.051.1-.051.178-.025a.1.1,0,0,0-.025-.076h0s0-.076-.051-.076v-.106l.051.076s-.051-.025-.051,0c0-.051.1.076.051-.025l-.051-.051s-.025-.152,0-.131c-.051-.076,0,0-.076-.076.076.1-.076.025.025.131-.076-.076-.051,0-.152-.1,0,0,.051.051,0,.051h0l.025.051c.025.051,0,.076,0,.131,0,0,0-.025-.051-.051V13s-.076-.076-.076-.131h-.025s-.076,0-.076.025v.076h-.025s0,.131-.131.076c0,0,0,.051-.025.051l-.051-.051s-.076,0-.051.051c-.131-.1-.1.025-.152.051l.051.051a.27.27,0,0,0-.025.076l.051.051s-.076,0-.1.051h0c-.152-.076,0,.152-.1.1h0v.051l-.051-.051h0s0,.025.051.076v.051s0,.051-.076-.025c.025.051,0,.076.076.178h0l-.076-.051.076.1a.988.988,0,0,1-.131-.1c.051.1,0,.051.051.152l-.051-.051s.025.076,0,.051c-.1-.051-.131.1-.258.076.152.1-.076,0,0,.076q-.038,0-.076-.076c0,.051-.1,0,0,.1-.025,0-.051-.051-.051-.051h0a.108.108,0,0,0-.025-.051.729.729,0,0,0,.152.208q-.051,0,0,.051a.079.079,0,0,1-.076-.076s-.1.025-.025.076h0q-.025,0-.051.051h0v.076h0s0,.025-.1,0l.051.051s-.1,0-.076.051h.051a2.139,2.139,0,0,0-.233-.076v-.013c-.1,0,.076.051.076.1-.051-.025-.1-.076-.131-.076-.051,0,.076.152,0,.131a.079.079,0,0,1,.076.076c0,.025-.152-.025-.076.051h-.025s0,.076.051.1c-.208-.131,0,.152-.152.025V14.8h-.051a.213.213,0,0,0,.025.1.06.06,0,0,1-.051-.025c-.076,0-.076.025,0,.131l-.076-.051s-.152,0-.1.076h0s-.258,0-.051.152v.076a.664.664,0,0,0,.178.076s-.1,0-.1-.025h0a.193.193,0,0,1-.152-.025c-.051.076-.178.131-.233.208l.1.051h0s-.076,0-.051-.025c-.051,0,0,.051.051.076a.109.109,0,0,1-.1-.076h0s.076.076.051.1c-.025,0-.076-.025-.076,0h-.025l.076.051s-.025.025.076.076c-.152-.051-.131.1-.178.076.051.051,0,.076,0,.1,0,0,.1.051.076.076-.178-.1-.1,0-.233-.051.1.025,0,.076.1.131a.384.384,0,0,1-.131-.051c.025.076-.1.076-.131.152,0,0,.076,0,.1.051l-.131-.051s.131.076.025.051c0,0,.051,0,.051.025-.178.051-.051.284-.335.258q.051,0,.051.025h0l.076-.059Zm2-1.7s.025.051,0,.025C422.117,14.774,422.167,14.8,422.167,14.8Z" transform="translate(-403.667 -10.925)" fill="#f2a5ba"/>
      <path id="_パス_1572" d="M428.49,12.959h.051S428.49,12.908,428.49,12.959Z" transform="translate(-408.55 -11.032)" fill="#f2a5ba"/>
      <path id="_パス_1574" d="M427.859,12.835s-.051-.076,0-.051C427.834,12.708,427.859,12.885,427.859,12.835Z" transform="translate(-408.174 -10.933)" fill="#f2a5ba"/>
      <path id="_パス_1575" d="M428.62,13.23l.025.051.025.025-.051-.076Z" transform="translate(-408.625 -11.201)" fill="#f2a5ba"/>
      <rect id="_長方形_151" height="0.025" transform="translate(19.986 2.101)" fill="#f2a5ba"/>
      <path id="_パス_1578" d="M427.89,13.771s.025.025.025,0V13.72h0Z" transform="translate(-408.204 -11.484)" fill="#f2a5ba"/>
      <path id="_パス_1579" d="M428.251,13.951s-.025,0-.051-.051l.051.076h0Z" transform="translate(-408.383 -11.588)" fill="#f2a5ba"/>
      <path id="_パス_1580" d="M428.275,14.191s0-.051-.025-.051C428.25,14.14,428.25,14.216,428.275,14.191Z" transform="translate(-408.412 -11.726)" fill="#f2a5ba"/>
      <path id="_パス_1581" d="M427.176,14.331h0L427.1,14.2Z" transform="translate(-407.749 -11.76)" fill="#f2a5ba"/>
      <path id="_パス_1582" d="M427.211,15.471a.049.049,0,0,1-.051-.051h0c0,.051,0,.025.076.1.051,0-.051-.076,0-.051Z" transform="translate(-407.783 -12.464)" fill="#f2a5ba"/>
      <path id="_パス_1583" d="M420.051,21.67,420,21.7h.051Z" transform="translate(-403.656 -16.067)" fill="#f2a5ba"/>
      <path id="_パス_1584" d="M420.2,21.841l-.076-.051Z" transform="translate(-403.725 -16.136)" fill="#f2a5ba"/>
      <path id="_パス_1586" d="M424.936,18.081h0l-.076-.051Z" transform="translate(-406.458 -13.968)" fill="#f2a5ba"/>
      <path id="_パス_1588" d="M435.29,44.891l.051-.051S435.29,44.916,435.29,44.891Z" transform="translate(-412.47 -29.423)" fill="#f2a5ba"/>
      <path id="_パス_1589" d="M434.9,45.105l.025-.025-.051.051.025-.025h0Z" transform="translate(-412.228 -29.562)" fill="#f2a5ba"/>
      <path id="_パス_1590" d="M434.846,44.985s-.076.051-.051,0c-.051.1.025,0,0,.025h0l.051-.051h0v.025Z" transform="translate(-412.175 -29.493)" fill="#f2a5ba"/>
      <path id="_パス_1593" d="M434.921,44.42a.24.24,0,0,0-.051.076h.025V44.42Z" transform="translate(-412.228 -29.181)" fill="#f2a5ba"/>
      <path id="_パス_1596" d="M434.8,44.764s.051-.076.025-.051A.06.06,0,0,1,434.8,44.764Z" transform="translate(-412.188 -29.347)" fill="#f2a5ba"/>
      <path id="_パス_1598" d="M434.741,44.471V44.42a.24.24,0,0,1-.051.076h0Z" transform="translate(-412.124 -29.181)" fill="#f2a5ba"/>
      <path id="_パス_1600" d="M434.62,44.856l.076-.076Z" transform="translate(-412.084 -29.389)" fill="#f2a5ba"/>
      <path id="_パス_1601" d="M434.75,44.291l.051-.051Z" transform="translate(-412.159 -29.078)" fill="#f2a5ba"/>
      <path id="_パス_1602" d="M434.69,44.186s.025-.076.051-.076l-.051.051Z" transform="translate(-412.124 -29.003)" fill="#f2a5ba"/>
      <path id="_パス_1607" d="M434.5,44.882a.2.2,0,0,1,.076-.1C434.576,44.805,434.525,44.831,434.5,44.882Z" transform="translate(-412.015 -29.389)" fill="#f2a5ba"/>
      <path id="_パス_1608" d="M434.56,44.711a.108.108,0,0,1,.025-.051h-.025Z" transform="translate(-412.049 -29.32)" fill="#f2a5ba"/>
      <path id="_パス_1616" d="M433.9,44.618v-.051c-.025.076-.076.076-.131.178h0c.025-.051.076-.1.051-.025A2.25,2.25,0,0,0,434,44.41a.084.084,0,0,1-.051.076.182.182,0,0,1-.051.131h0Z" transform="translate(-411.594 -29.176)" fill="#f2a5ba"/>
      <path id="_パス_1617" d="M434.345,44.411h0l.025-.051-.051.051Z" transform="translate(-411.911 -29.147)" fill="#f2a5ba"/>
      <path id="_パス_1618" d="M434.276,44.547a.163.163,0,0,1,.025-.076h0V44.42h-.025c-.025.051-.051.076-.076.131,0,0,.025-.051.051-.051h0Z" transform="translate(-411.842 -29.181)" fill="#f2a5ba"/>
      <path id="_パス_1619" d="M434.362,44.831a1.243,1.243,0,0,0-.076.131h-.025a.323.323,0,0,0,.051-.08h0a.379.379,0,0,1,.051-.1h0Z" transform="translate(-411.876 -29.389)" fill="#f2a5ba"/>
      <path id="_パス_1620" d="M434.26,44.925v.051h0a.127.127,0,0,1,.025-.076h-.025Z" transform="translate(-411.876 -29.458)" fill="#f2a5ba"/>
      <path id="_パス_1621" d="M434.345,44.316l.051-.076-.076.076Z" transform="translate(-411.911 -29.078)" fill="#f2a5ba"/>
      <path id="_パス_1622" d="M434.32,44.315h0l.025-.025Z" transform="translate(-411.911 -29.106)" fill="#f2a5ba"/>
      <path id="_パス_1624" d="M433.05,43.628s.051-.131,0-.076V43.6h0Z" transform="translate(-411.179 -28.673)" fill="#f2a5ba"/>
      <path id="_パス_1627" d="M433.755,44.1V44.05C433.755,44.075,433.729,44.126,433.755,44.1Z" transform="translate(-411.579 -28.968)" fill="#f2a5ba"/>
      <path id="_パス_1635" d="M431.944,44.813l.051-.051.076-.152-.131.208h0Z" transform="translate(-410.539 -29.291)" fill="#f2a5ba"/>
      <path id="_パス_1636" d="M430.675,43.212s.076-.076.076-.051l-.051.076v-.025c.025-.025-.051.131.025,0v-.051a.794.794,0,0,1,.1-.076c.051-.076,0,0,.025-.076-.051.131-.025,0-.076.1.051-.1,0-.051.051-.152,0,.025,0,.051-.025.025h0v.076c-.034.025-.072.051-.1.076a.06.06,0,0,1,.025-.051v.051a.3.3,0,0,1,.025-.131h0v-.047h-.025s-.1.076-.051-.025h-.025v-.051h0c.076-.131-.025-.051-.025-.076v.076h-.1v.051l-.051-.051h0c.051-.152-.1.076-.076-.025h0V42.81h0s0,.025-.051.076h-.025s-.025.051,0-.051c-.025.051-.051,0-.1.131h0a.346.346,0,0,1,.025-.131l-.1.1v-.055h0c.025-.1-.076-.051-.051-.152-.076.152,0-.076-.051.051,0-.025,0-.051.051-.076-.025.025,0-.076-.051,0,0-.025.025-.051.051-.076h0a.109.109,0,0,1,.025-.051,1.32,1.32,0,0,0-.131.208q0-.051-.025,0c0-.025,0-.076.051-.076,0,0,0-.076-.051,0h-.025s0,.025-.051.051h0s-.025,0,0-.076v.076c-.1.131,0-.1-.051-.051v.051s.051-.208.051-.233V42.5c0-.1-.051.076-.076.1,0-.051.051-.1.051-.131,0-.051-.1.131-.076.051a.107.107,0,0,1-.051.1s0-.152-.025-.051h0s-.051,0-.076.076c.076-.233-.1.076,0-.131h0a.084.084,0,0,0-.076.051v-.047q0-.051-.076.051v-.076s0-.131-.025-.051h0s0-.233-.1,0l-.051.051a.5.5,0,0,0-.051.152v-.106h0v-.131c-.051,0-.076-.1-.131-.131v.1h-.051s0-.1.025-.076c0-.051-.025.051-.051.076a.354.354,0,0,1,.051-.131h0s-.025.1-.051.1V42.28h0v.051s-.025,0-.051.076c.025-.152-.076-.076-.051-.131-.025.051-.051.051-.051.051s0,.1-.025.1c.051-.178,0-.076,0-.233,0,.1-.051,0-.076.152v-.131c-.051.076-.051-.051-.1-.051a.213.213,0,0,1-.025.1v-.131s-.025.152,0,.051v.051c-.051-.131-.178.076-.208-.178v.051s-.051,0-.051.1h0s-.025.233-.051.36c.025-.131,0,.178.051,0v.089c0-.051,0-.076.025-.051h0a.2.2,0,0,0,.076.1v-.03c.025-.1,0,0,0-.131,0,.131.051,0,.025.178,0,0,0-.076.025-.076h0v.1h.025a.155.155,0,0,0,.131-.076h.051l.025-.025a.166.166,0,0,1-.025.1c.051-.051.025-.051.076-.152v.055s0-.076.025-.076a.139.139,0,0,1-.051.131c0,.131.076-.1.051.076.051-.131,0-.076,0-.1,0-.051.051-.1.051-.076,0,0-.051.178,0,.178h0c.025-.076,0,0,.051-.1h-.025s.076-.131.076-.051a.127.127,0,0,1-.025.076h0c-.025.1-.025,0-.076.1,0,.051.051-.076,0,.051.051-.152,0,0,.076-.076v.076h0v.051s-.025.076,0,.025a.345.345,0,0,1,.025-.131c.051-.076-.051.178,0,.152h0c.025,0,0-.076.051-.1,0,.076,0-.025.051-.051v.076s.025-.131.025-.076l-.051.076h0v.051h0a.353.353,0,0,1,.051-.131c0,.051-.025.051,0,.051,0,.051-.051.1-.025.025v.051h0l.051-.076s0,.051-.025.051v-.051a.3.3,0,0,1-.025.131l.051-.051v.076c0,.025.076-.1.076-.051h0s0,.051.051,0v.1s0-.131.051-.152c.025,0-.025.076-.025.1.025-.051.076-.131.076-.051h0v.051a.409.409,0,0,0-.076.131c.076-.178.051,0,.131-.178v.051h0s.076-.131.076-.076v.025h.051s.051-.025.051-.051v.076c-.076.178.025-.051,0,.076h0a.46.46,0,0,1-.025.152.649.649,0,0,1,.076-.208h0c-.025.076,0,.051,0,.051v-.03a.182.182,0,0,1-.051.131.385.385,0,0,1,.051-.131c0,.051,0,0,.076-.025,0,.025-.025.051-.025.076l.051-.076h0s.051-.051.051-.076c.051-.1-.051.152,0,.051a.24.24,0,0,1-.051.076.5.5,0,0,0,.1-.131v.051a1.884,1.884,0,0,1,.1-.208V42.7h.076l-.051.051h0l-.051.1V42.8l-.076.152h0l-.051.076h0l.178-.208a1.878,1.878,0,0,0-.1.208c.025-.076-.051.025-.051,0,0,0,0,.051-.025.051l.076-.076a.127.127,0,0,1-.025.076c.051-.131.051-.076.1-.131a.084.084,0,0,1-.051.076c-.025.1.1-.152.076-.051h0c.025-.025.025,0,0,.051h0s.051.025.131-.076l-.076.152.233-.36a2.82,2.82,0,0,1-.208.385h0s.051-.152.076-.152c-.051.1,0,.051-.051.152,0,0,.076-.178.1-.152l-.076.152.1-.131a.661.661,0,0,0-.076.178c0-.025,0,0,.025,0h0s.131-.233.152-.208c0,.025-.1.178-.1.208.051-.076.208-.36.258-.411h0s-.207.335-.258.411v.051a.049.049,0,0,1-.051.051h0v.051a1.131,1.131,0,0,0,.131-.152l-.076.076s.152-.233.152-.208a.672.672,0,0,1-.1.178c0-.025.051-.051.051-.025v.051h0s-.051.131,0,.076c.051-.1.207-.411.258-.487a.922.922,0,0,1-.051.152,1.433,1.433,0,0,1-.152.258s.025-.051.051-.051c0,0-.051.076-.025.076l.051-.076h0a1.871,1.871,0,0,1,.152-.208v.076s-.025.051,0,.076a.084.084,0,0,1-.051.076v.051c.025-.051.051-.051.076-.076.051-.076,0,0-.025,0a1.079,1.079,0,0,1,.178-.258c.025,0-.025.076,0,.051,0,.025.131-.178.131-.076a1.22,1.22,0,0,1-.1.178c-.025,0,0-.051,0-.051h0s-.025.076-.025.051c-.025.076.051.051.025.1a.24.24,0,0,1,.051-.076h0a.456.456,0,0,0,.076-.1h0l-.3.165Z" transform="translate(-408.47 -27.821)" fill="#f2a5ba"/>
      <path id="_パス_1642" d="M434.063,44.2s.051-.076.025-.051C434.14,44.1,434.013,44.23,434.063,44.2Z" transform="translate(-411.756 -29.021)" fill="#f2a5ba"/>
      <path id="_パス_1643" d="M433.84,45.021v.025l.025-.076Z" transform="translate(-411.634 -29.498)" fill="#f2a5ba"/>
      <path id="_パス_1646" d="M433.47,44.745v.025l.025-.051h0Z" transform="translate(-411.421 -29.354)" fill="#f2a5ba"/>
      <path id="_パス_1648" d="M433.16,45.321a.271.271,0,0,0,.025-.051S433.135,45.321,433.16,45.321Z" transform="translate(-411.238 -29.671)" fill="#f2a5ba"/>
      <path id="_パス_1649" d="M432.93,44.6h0l.076-.131Z" transform="translate(-411.11 -29.21)" fill="#f2a5ba"/>
      <path id="_パス_1650" d="M432.191,45.2V45.15c-.025.025,0,0-.051.1,0,.051.051-.076.025-.025h0Z" transform="translate(-410.654 -29.602)" fill="#f2a5ba"/>
      <path id="_パス_1651" d="M428.215,42.161l-.025-.051v.051Z" transform="translate(-408.377 -27.85)" fill="#f2a5ba"/>
      <path id="_パス_1654" d="M430.525,44.676l.025-.076-.051.076Z" transform="translate(-409.709 -29.285)" fill="#f2a5ba"/>
      <path id="_パス_1658" d="M408.1,63.16v.025h.051S408.078,63.185,408.1,63.16Z" transform="translate(-396.795 -39.984)" fill="#f2a5ba"/>
      <path id="_パス_1703" d="M406.74,60.532h.233c.051,0,.131,0,.076.025h.233c-.131,0,0-.025-.131,0h.11s.051-.025,0-.025h0s-.1-.051,0-.076h.051s.051,0,0-.025c.152,0,.025-.025.051-.051h-.076l-.051-.025h-.076a.049.049,0,0,0,.051-.051h0c.152,0-.1-.025,0-.051h-.178c.131,0,0-.051.131-.076h.051c-.051,0,.076,0-.051-.025h-.051s.051-.025-.051-.025H407s-.051,0,.051-.025h-.076c-.152,0,.1,0,.025-.025h-.051a.874.874,0,0,0,.233-.025h.051s-.178-.025-.076-.051h-.1s.152-.025,0-.025h-.1c.258-.025-.131-.025.1-.051h0a.167.167,0,0,0-.1-.051H407c.051,0,.025-.025-.076-.025H407s.131-.051.025-.051h.025c-.1,0,.208-.076-.076-.051h-.224s.076-.025.1,0h0c.152,0,.051-.025.152-.025,0-.025.076-.076.051-.131h-.178c.152-.025.051-.076.1-.076h-.152c.208,0,.076-.025.233-.051-.1,0-.025-.025-.152,0h.131c-.076,0,.051-.051,0-.076h.025s-.152,0-.051-.051h-.076s-.131-.076.1-.152h-.152l.1-.051h-.1l-.385.076c.131,0-.178.051,0,.051h-.025l-.076.076h0l.131-.025c-.152.025,0,.051-.152.076h.025s0,.051.076.051h.025s-.025,0,0,.025h0c-.131.025.131,0-.051.051.152,0,.076-.025.131-.025h.1s-.208.025-.208.051h-.076s-.076.051,0,.051a.345.345,0,0,0,.131-.025c.1,0-.178.025-.152.051h.076s.051,0,0,.025h0a.446.446,0,0,1-.1.025c-.025,0,.131,0,.076.025h.025s-.076.025,0,.025h-.191c.208,0,0,.025.233,0h.131s0,.025-.051.025h-.051c-.208,0,.051,0-.076.025h-.025a.461.461,0,0,0-.152.025.716.716,0,0,1,.233,0h-.025c-.025,0,0,0,.076.025h.1c.1,0-.152.025-.025.025h-.152s.284.051.335.051h-.233c.1,0-.051,0,0-.025h.025a.213.213,0,0,0-.1.025h.1s0,.051.131.051H407s-.385.025-.436.025h-.178a1.285,1.285,0,0,0,.178.025h.487a.623.623,0,0,0-.178.025h-.051s-.051.025-.051.051h.208c0,.025.233,0,.131.051h-.233c-.076,0,0,.051-.076.051h0l-.038.364Z" transform="translate(-395.741 -37.661)" fill="#f2a5ba"/>
      <path id="_パス_1710" d="M407.56,62.585l.076-.025h-.076Z" transform="translate(-396.485 -39.638)" fill="#f2a5ba"/>
      <path id="_パス_1724" d="M381.41,45.655l.025.025-.025-.051Z" transform="translate(-381.41 -29.879)" fill="#f2a5ba"/>
      <path id="_パス_1725" d="M381.54,45.569h0v.051s.025-.076.051-.051C381.54,45.467,381.591,45.569,381.54,45.569Z" transform="translate(-381.485 -29.817)" fill="#f2a5ba"/>
      <path id="_パス_1733" d="M382.08,45.965l.025.051a.127.127,0,0,0-.025-.076h0Z" transform="translate(-381.796 -30.058)" fill="#f2a5ba"/>
      <rect id="_長方形_160" height="0.076" transform="translate(0.169 15.777)" fill="#f2a5ba"/>
      <path id="_パス_1735" d="M382.225,46.075v.051l-.025-.076.025.025Z" transform="translate(-381.865 -30.121)" fill="#f2a5ba"/>
      <path id="_パス_1736" d="M382.32,46.05a.448.448,0,0,1,.025.1v-.076h-.025Z" transform="translate(-381.935 -30.121)" fill="#f2a5ba"/>
      <path id="_パス_1738" d="M382.08,45.87s0,.051.025.051V45.87Z" transform="translate(-381.796 -30.017)" fill="#f2a5ba"/>
      <path id="_パス_1741" d="M381.84,45.45a.715.715,0,0,1,.025.131A.28.28,0,0,0,381.84,45.45Z" transform="translate(-381.658 -29.775)" fill="#f2a5ba"/>
      <path id="_パス_1743" d="M382.225,45.835V45.81H382.2v.025Z" transform="translate(-381.865 -29.983)" fill="#f2a5ba"/>
      <path id="_パス_1750" d="M382.225,45.057l.025.051c-.025-.076,0-.1-.051-.208v.051a1,1,0,0,0,.131.309v-.076c0-.025-.051-.051-.051-.1h0l-.055-.025Z" transform="translate(-381.865 -29.458)" fill="#f2a5ba"/>
      <path id="_パス_1751" d="M382.39,45.75h0s0,.025.051.076V45.75Z" transform="translate(-381.975 -29.948)" fill="#f2a5ba"/>
      <path id="_パス_1752" d="M382.251,45.542a.245.245,0,0,0-.051-.152v.076a.109.109,0,0,0,.025.051h0v.051h0l.025-.025Z" transform="translate(-381.865 -29.741)" fill="#f2a5ba"/>
      <path id="_パス_1753" d="M381.84,45.261a.456.456,0,0,1,.051.1.327.327,0,0,0-.051-.152h0v.076h0Z" transform="translate(-381.658 -29.637)" fill="#f2a5ba"/>
      <path id="_パス_1755" d="M382.45,45.775l.025.051-.025-.076Z" transform="translate(-382.01 -29.948)" fill="#f2a5ba"/>
      <path id="_パス_1756" d="M382.51,45.75l.025.051v-.025Z" transform="translate(-382.044 -29.948)" fill="#f2a5ba"/>
      <path id="_パス_1758" d="M384.02,45.27s.076.131.051.051V45.27Z" transform="translate(-382.915 -29.671)" fill="#f2a5ba"/>
      <path id="_パス_1761" d="M383.11,45.48s.013.025.025.025C383.136,45.48,383.085,45.43,383.11,45.48Z" transform="translate(-382.386 -29.78)" fill="#f2a5ba"/>
      <path id="_パス_1769" d="M383.78,43.564v.051l.076.178-.076-.233Z" transform="translate(-382.776 -28.686)" fill="#f2a5ba"/>
      <path id="_パス_1770" d="M385.257,42.446s-.1-.233-.152-.36c.025.131-.1-.152-.051,0V42.06h0a.7.7,0,0,1-.131-.051h0c.025.1.025,0,.051.1-.051-.131-.076,0-.131-.131,0,0,.025.076,0,.076h0s-.051-.051-.051-.076h-.025a.128.128,0,0,0-.1.131h0s-.025,0-.051.051h0v.051c0-.025-.051-.076-.051-.1a.622.622,0,0,0,.025.178v.051c0-.051-.051-.076-.051-.131-.076-.1,0,.131-.076-.025.051.152.051.076.051.1,0,.051.025.1,0,.1,0,0-.076-.178-.1-.152h0s0,.051-.025,0c.025.076,0,0,0,.1h0s.025.131,0,.076V42.34h0c-.051-.1,0-.025,0-.131,0-.051,0,.076-.025-.025.051.152-.025,0,0,.1h0l-.051-.076s-.051-.051-.051,0c.025,0,.051.076.076.131,0,.1-.076-.152-.1-.1l.051.051-.051-.051a.448.448,0,0,1,.025.1c-.051-.076,0,.025,0,.076V42.34h-.025v-.047s-.025.051-.051.025c0,.051.051.131.025.131,0-.025,0-.051-.025-.051,0-.051-.025-.1,0-.025v-.055h-.051V42.4a.706.706,0,0,1-.051-.131v.076s-.051-.051-.051-.076c-.025-.025,0,.131-.025.076h0s-.076-.025-.051.051l-.051-.1s.076.1.051.152c0,.025-.051-.076-.051-.1,0,.051.025.152,0,.076h0V42.37a.369.369,0,0,0-.076-.131c.076.178-.051.051.025.233h-.025v-.047s.051.131,0,.131a.115.115,0,0,1-.025-.051v.051h-.025v.076s-.025-.1,0-.1c-.1-.178,0,.051-.076-.051h0c-.051-.131-.051-.076-.1-.152,0,.025.1.152.1.208h0c-.025-.076-.025-.051-.025-.051v.025a1.237,1.237,0,0,1-.076-.131.7.7,0,0,1,.051.131q-.038-.038,0,.076a.086.086,0,0,0-.021-.076v.076h0a.27.27,0,0,1,.025.076c.025.1-.076-.131-.051,0a.127.127,0,0,0-.025-.076v.152l-.051-.051s.051.152.076.208l.051.076v.051a.127.127,0,0,0-.025-.076h0l-.051-.1v.051a.461.461,0,0,0-.025-.152h0l-.055-.076h0v.309c0-.076-.051-.131-.076-.208.051.076,0-.051.025-.025l-.025-.051v.1a.088.088,0,0,0-.055-.076c.051.131,0,.1,0,.152,0-.051-.025-.1,0-.076-.051-.1.051.178,0,.076h0c0,.051,0,0-.025,0h0s-.076,0-.025.131l-.051-.152.1.411a3.034,3.034,0,0,1-.152-.385h0a1.277,1.277,0,0,1,.076.152l-.076-.152s.076.178.051.178a1.12,1.12,0,0,0-.076-.178l.051.152s-.051-.131-.076-.178h0s.051.258.025.258c0-.025-.076-.208-.1-.208,0,.076.131.385.131.462h0s-.131-.385-.152-.487c0-.025,0-.051-.025-.051v-.08h-.051a.274.274,0,0,0,.051.152v-.1s.076.258.051.258a.944.944,0,0,0-.076-.208h0s0,.131-.025.051c0,0-.051-.1-.051-.051.051.1.178.436.208.512,0,0-.076-.1-.1-.131-.051-.076-.051-.208-.1-.258v.076s-.025-.076-.025-.051c.025.1-.025,0,0,.076,0,.025,0,0-.025,0,.025.051.076.208.051.233a.127.127,0,0,0-.025-.076c-.025,0-.051-.051-.076-.025a.24.24,0,0,0-.051-.076v.051l-.025-.1V43.2c.025.076.025,0,.025-.025a.791.791,0,0,1,.076.309c0,.025-.025-.076-.025-.051-.051,0,.051.208,0,.131a.943.943,0,0,1-.076-.208c0-.025.051.051.051.025h-.025v-.055c-.025-.051-.076,0-.131-.051v.076h0s0,.076.025.1h0c0,.051-.076-.1-.025,0v.051s.051.131.025.131c.025.076,0,0,.051.076-.051-.131.051,0,0-.131a.666.666,0,0,0,.076.131v-.051h0v-.186a.7.7,0,0,1,.051.131h0s.051.051.051,0h0v-.055h0s0-.1.076,0v.025s.076.051.051,0c.076.131.051,0,.1.025v-.178s.038.013.051,0h0c.076.131,0-.131.076-.025h.051l-.025-.051V43.3s0-.051.051.076a.622.622,0,0,0-.025-.178h0v-.025a1.02,1.02,0,0,1,.076.152v-.1s0-.076.025-.025c.051.1.076,0,.152.076-.076-.152.051.051,0-.051,0,.025.025.051.051.1,0-.051.051.051.025-.051a.1.1,0,0,0,.025.076h0V43.4a1.153,1.153,0,0,0-.076-.233c.025.051.025.025,0-.025,0,.025.051.076.025.076,0,0,.076.025.025-.051h.025v-.051h0s0-.025.076.051v-.051c-.076-.131.025.076.025,0h0s.1.152.131.152V43.3c.051.076-.025-.076,0-.1a.354.354,0,0,0,.051.131c0,.025-.025-.152.025-.076a.211.211,0,0,0-.051-.1s.1.131.051,0h0v-.106c.1.233,0-.131.1.076h.025v-.051c.051.025.051,0,.025-.1v.076s.131.076.1,0h0s.152.178.051-.051v-.076l-.076-.152s.051.051.051.076h0s.051,0,.076.1c.051-.025.131,0,.178,0l-.051-.1h0s.025.076,0,.076c.025.051,0-.051,0-.076.051.025.025.131.051.131h0v-.106l.025.051h.025l-.051-.076v-.076c.076.131.1,0,.131.051v-.076s-.051-.1-.025-.1c.076.178.051.076.131.208-.051-.076.025-.025-.025-.152a.38.38,0,0,0,.051.1c0-.076.076,0,.1,0a.226.226,0,0,1-.025-.1l.076.1s-.051-.131,0-.051v-.051s.076-.152.233.051c-.025-.051,0-.051,0-.051h0s.051,0,.025-.1h0l.072-.127Z" transform="translate(-382.118 -27.775)" fill="#f2a5ba"/>
      <path id="_パス_1774" d="M382.415,45.315s0-.025-.025,0Z" transform="translate(-381.975 -29.691)" fill="#f2a5ba"/>
      <path id="_パス_1777" d="M382.32,44.925V44.9l.025.076Z" transform="translate(-381.935 -29.458)" fill="#f2a5ba"/>
      <path id="_パス_1783" d="M383.23,44.54h0l.051.131Z" transform="translate(-382.459 -29.251)" fill="#f2a5ba"/>
      <path id="_パス_1784" d="M383.35,43.615a.108.108,0,0,0,.025.051c0-.025,0,0-.025-.1C383.325,43.539,383.375,43.641,383.35,43.615Z" transform="translate(-382.524 -28.686)" fill="#f2a5ba"/>
      <path id="_パス_1785" d="M388.94,43.45l.025.025Z" transform="translate(-385.751 -28.622)" fill="#f2a5ba"/>
      <path id="_パス_1788" d="M385.18,42.78h0l.051.076Z" transform="translate(-383.583 -28.236)" fill="#f2a5ba"/>
    </g>
    <path id="Path_2126" data-name="Path 2126" d="M3.328-4.166a.122.122,0,0,1-.057.1.264.264,0,0,1-.137.045l-.857.065-.593.05-.309.025a.09.09,0,0,1-.072-.05.175.175,0,0,1-.032-.095.062.062,0,0,1,.022-.052.141.141,0,0,1,.05-.025.235.235,0,0,0,.037-.012q0-.269,0-1.256A8.489,8.489,0,0,0,1.327-6.5q-.057-.4-.057-.431a.13.13,0,0,1,.052-.11.175.175,0,0,1,.107-.04.064.064,0,0,1,.055.027.211.211,0,0,1,.03.087,3.282,3.282,0,0,1,.077.623q.027.454.027.947,0,.419,0,.778t0,.483l.249-.017.379-.027q.289-.035.653-.1a3.111,3.111,0,0,1,.354-.055.066.066,0,0,1,.07.05A.42.42,0,0,1,3.328-4.166Zm4.306-.9q.035,0,.035.075a1.388,1.388,0,0,1-.132.394,1.769,1.769,0,0,1-.4.563.9.9,0,0,1-.655.259.753.753,0,0,1-.533-.2.8.8,0,0,1-.214-.613,1.793,1.793,0,0,1,.179-.77,1.791,1.791,0,0,1,.469-.623.925.925,0,0,1,.6-.242.562.562,0,0,1,.312.082.265.265,0,0,1,.127.237.455.455,0,0,1-.2.339,1.867,1.867,0,0,1-.511.289,3.123,3.123,0,0,1-.648.179A1.773,1.773,0,0,0,6-4.649a.667.667,0,0,0,.137.449.488.488,0,0,0,.391.159.788.788,0,0,0,.623-.274,2.593,2.593,0,0,0,.4-.618q.01-.02.035-.077T7.635-5.068ZM7.2-5.851a.138.138,0,0,0-.082-.125.4.4,0,0,0-.192-.045.617.617,0,0,0-.364.125,1.16,1.16,0,0,0-.292.3,1.051,1.051,0,0,0-.152.309,1.78,1.78,0,0,0,.483-.13,2.07,2.07,0,0,0,.426-.229Q7.2-5.771,7.2-5.851Zm5.069-.01a.144.144,0,0,1-.072.13.719.719,0,0,1-.262.07l-.513.09-.324.055q0,.259.007.543t.022.5a1.964,1.964,0,0,0,.07.444q.05.155.055.174a.116.116,0,0,1-.062.092.211.211,0,0,1-.117.042.073.073,0,0,1-.05-.017.141.141,0,0,1-.035-.057,1.19,1.19,0,0,1-.057-.259q-.027-.189-.042-.419-.015-.2-.022-.476t-.007-.526q-.279.045-.573.11a2.611,2.611,0,0,1-.314.055.2.2,0,0,1-.112-.035A.108.108,0,0,1,9.8-5.442a.083.083,0,0,1,.045-.085.4.4,0,0,1,.15-.02,1.284,1.284,0,0,0,.219-.027q.145-.027.184-.037.334-.065.454-.085,0-.1-.01-.274-.01-.229-.01-.349a2.78,2.78,0,0,1,.012-.3.722.722,0,0,1,.047-.192.148.148,0,0,1,.15-.1.087.087,0,0,1,.06.015.077.077,0,0,1,.015.055,1.635,1.635,0,0,1-.025.174,2.354,2.354,0,0,0-.025.384q0,.184.01.414l0,.135q.224-.035.887-.184a.111.111,0,0,0,.067-.07q.027-.06.057-.06a.159.159,0,0,1,.112.062A.188.188,0,0,1,12.265-5.86Zm2.686-.987a2.365,2.365,0,0,1-.025.366q-.025.157-.07.182a.132.132,0,0,1-.065.02.1.1,0,0,1-.085-.05,1.165,1.165,0,0,1-.02-.309l-.01-.3a2.263,2.263,0,0,0-.035-.249,1.834,1.834,0,0,1-.03-.239q0-.07.03-.09a.135.135,0,0,1,.065-.01.276.276,0,0,1,.1.022.145.145,0,0,1,.075.057.933.933,0,0,1,.045.232A3.318,3.318,0,0,1,14.951-6.847Zm4.406,2.352a.634.634,0,0,1-.177.421,1.258,1.258,0,0,1-.466.324,1.535,1.535,0,0,1-.6.122.7.7,0,0,1-.289-.04.121.121,0,0,1-.075-.11q0-.045.115-.157t.155-.112q.06,0,.06.025a.054.054,0,0,1-.025.04q-.025.02-.025.035t.062.04a.5.5,0,0,0,.152.02,1.223,1.223,0,0,0,.421-.077,1.014,1.014,0,0,0,.346-.2.361.361,0,0,0,.135-.264.28.28,0,0,0-.085-.214.515.515,0,0,0-.212-.117q-.127-.037-.426-.107-.329-.075-.511-.132a.9.9,0,0,1-.292-.145.271.271,0,0,1-.11-.222.574.574,0,0,1,.234-.439,1.805,1.805,0,0,1,.538-.314,1.456,1.456,0,0,1,.469-.115q.169,0,.169.1a.278.278,0,0,1-.04.132.129.129,0,0,1-.12.072.122.122,0,0,1-.065-.022.128.128,0,0,0-.07-.022,1.232,1.232,0,0,0-.314.065,1.256,1.256,0,0,0-.389.194.382.382,0,0,0-.174.314.188.188,0,0,0,.137.177,3.616,3.616,0,0,0,.511.142.59.59,0,0,0,.09.022.728.728,0,0,1,.08.017,2.323,2.323,0,0,1,.588.2A.371.371,0,0,1,19.357-4.495Zm6.325.563q0,.05-.065.08a.341.341,0,0,1-.145.03q-.06,0-.112-.142a1.328,1.328,0,0,1-.052-.431q0-.563.017-1.361t.022-1.2a.833.833,0,0,1,.052-.269.169.169,0,0,1,.167-.125.051.051,0,0,1,.052.042.682.682,0,0,1,.012.162s0,.014,0,.032,0,.051,0,.1q-.09,1.311-.09,2.557a.909.909,0,0,0,.072.339Q25.682-3.942,25.682-3.932Zm2.836-2.985q0,.075-.164.075a.277.277,0,0,1-.172-.07q-.087-.07-.087-.115a.145.145,0,0,1,.052-.1.156.156,0,0,1,.107-.05l.037.012a.231.231,0,0,1,.087.067,1.09,1.09,0,0,1,.09.1A.244.244,0,0,1,28.518-6.917Zm.125,3.135A.087.087,0,0,1,28.6-3.7a.149.149,0,0,1-.1.022q-.07,0-.1-.224t-.067-.832q-.02-.4-.035-.79t-.02-.6a.155.155,0,0,1,.017-.082.074.074,0,0,1,.067-.027.134.134,0,0,1,.145.095,1.434,1.434,0,0,1,.03.364l0,.588q0,.5.03.807,0,.015.045.319A2.141,2.141,0,0,1,28.642-3.782Zm5.074-2.542q0,.025-.067.07a.4.4,0,0,0-.082.065,3,3,0,0,0-.483.842,6.594,6.594,0,0,0-.354,1.186q-.015.075-.05.3l-.025.174a.208.208,0,0,1-.067.125.283.283,0,0,1-.182.045,1.088,1.088,0,0,1-.169-.3q-.145-.3-.3-.65l-.214-.469q-.194-.424-.324-.663T31.2-5.841a.037.037,0,0,0-.032.025q-.012.025-.027.025a.052.052,0,0,1-.042-.022.076.076,0,0,1-.017-.047.33.33,0,0,1,.072-.169q.072-.1.142-.1a.118.118,0,0,1,.075.02.287.287,0,0,1,.045.045q.02.025.03.04a5,5,0,0,1,.414.787q.1.224.518,1.171l.115.264a2.8,2.8,0,0,1,.05-.419,6.8,6.8,0,0,1,.329-1.166,3.875,3.875,0,0,1,.513-.967.762.762,0,0,1,.1-.112.143.143,0,0,1,.1-.032q.025,0,.08.077A.261.261,0,0,1,33.716-6.324Zm4.1,1.256q.035,0,.035.075a1.388,1.388,0,0,1-.132.394,1.769,1.769,0,0,1-.4.563.9.9,0,0,1-.655.259.753.753,0,0,1-.533-.2.8.8,0,0,1-.214-.613,1.793,1.793,0,0,1,.179-.77,1.791,1.791,0,0,1,.468-.623.925.925,0,0,1,.6-.242.562.562,0,0,1,.312.082.265.265,0,0,1,.127.237.455.455,0,0,1-.2.339,1.867,1.867,0,0,1-.511.289,3.124,3.124,0,0,1-.648.179,1.773,1.773,0,0,0-.06.449.667.667,0,0,0,.137.449.488.488,0,0,0,.391.159.788.788,0,0,0,.623-.274,2.593,2.593,0,0,0,.4-.618q.01-.02.035-.077T37.813-5.068Zm-.439-.782a.138.138,0,0,0-.082-.125A.4.4,0,0,0,37.1-6.02a.617.617,0,0,0-.364.125,1.16,1.16,0,0,0-.292.3,1.051,1.051,0,0,0-.152.309,1.78,1.78,0,0,0,.483-.13,2.07,2.07,0,0,0,.426-.229Q37.374-5.771,37.374-5.851Zm6.768,1.919q0,.05-.065.08a.341.341,0,0,1-.145.03q-.06,0-.112-.142a1.328,1.328,0,0,1-.052-.431q0-.563.017-1.361t.022-1.2a.833.833,0,0,1,.052-.269.169.169,0,0,1,.167-.125.051.051,0,0,1,.052.042.683.683,0,0,1,.012.162s0,.014,0,.032,0,.051,0,.1Q44-5.706,44-4.46a.909.909,0,0,0,.072.339Q44.143-3.942,44.143-3.932Zm2.836-2.985q0,.075-.164.075a.277.277,0,0,1-.172-.07q-.087-.07-.087-.115a.145.145,0,0,1,.052-.1.156.156,0,0,1,.107-.05l.037.012a.231.231,0,0,1,.087.067,1.09,1.09,0,0,1,.09.1A.244.244,0,0,1,46.979-6.917ZM47.1-3.782a.087.087,0,0,1-.042.077.149.149,0,0,1-.1.022q-.07,0-.1-.224t-.067-.832q-.02-.4-.035-.79t-.02-.6a.155.155,0,0,1,.017-.082.074.074,0,0,1,.067-.027.134.134,0,0,1,.145.095,1.434,1.434,0,0,1,.03.364l0,.588q0,.5.03.807,0,.015.045.319A2.14,2.14,0,0,1,47.1-3.782ZM52-5.945a.23.23,0,0,1-.067.147.182.182,0,0,1-.127.077.146.146,0,0,1-.09-.042.15.15,0,0,0-.07-.042.982.982,0,0,0-.429.184,6.286,6.286,0,0,0-.6.434,4.892,4.892,0,0,0-.473.424l0,.09q.379.174.842.374a3.867,3.867,0,0,0,.643.234q.07.01.14.015l.1,0a.467.467,0,0,1,.075,0q.03,0,.03.02,0,.06-.092.12a.514.514,0,0,1-.277.06,1.212,1.212,0,0,1-.446-.122q-.282-.122-.665-.321l-.314-.155q.065.633.065.7a.1.1,0,0,1-.055.09.218.218,0,0,1-.12.035q-.04,0-.065-.12t-.06-.473l-.035-.3a.3.3,0,0,1-.1-.072.134.134,0,0,1-.045-.087q0-.06.1-.14,0-.269-.027-.768T49.8-6.309L49.775-7a.727.727,0,0,1,.035-.239.146.146,0,0,1,.155-.1.078.078,0,0,1,.06.017.108.108,0,0,1,.015.067q0,.229.032,1.064T50.124-5Q51.235-6.06,51.748-6.06a.382.382,0,0,1,.177.037Q52-5.985,52-5.945Zm4.022.877q.035,0,.035.075a1.388,1.388,0,0,1-.132.394,1.769,1.769,0,0,1-.4.563.9.9,0,0,1-.655.259.753.753,0,0,1-.533-.2.8.8,0,0,1-.214-.613,1.793,1.793,0,0,1,.179-.77,1.791,1.791,0,0,1,.468-.623.925.925,0,0,1,.6-.242.562.562,0,0,1,.312.082.265.265,0,0,1,.127.237.455.455,0,0,1-.2.339,1.867,1.867,0,0,1-.511.289,3.124,3.124,0,0,1-.648.179,1.773,1.773,0,0,0-.06.449.667.667,0,0,0,.137.449.488.488,0,0,0,.391.159.788.788,0,0,0,.623-.274,2.593,2.593,0,0,0,.4-.618q.01-.02.035-.077T56.02-5.068Zm-.439-.782a.138.138,0,0,0-.082-.125.4.4,0,0,0-.192-.045.617.617,0,0,0-.364.125,1.16,1.16,0,0,0-.292.3,1.051,1.051,0,0,0-.152.309,1.78,1.78,0,0,0,.483-.13,2.07,2.07,0,0,0,.426-.229Q55.581-5.771,55.581-5.851ZM63.6-4.829a.936.936,0,0,1-.145.449,1.323,1.323,0,0,1-.409.436,1.038,1.038,0,0,1-.6.182.618.618,0,0,1-.493-.184.676.676,0,0,1-.159-.459A2.561,2.561,0,0,1,61.874-5a2.451,2.451,0,0,1,.247-.633q.01-.02.082-.147a.623.623,0,0,1,.162-.194.311.311,0,0,1,.189-.067.157.157,0,0,1,.082.022.066.066,0,0,1,.037.057.134.134,0,0,1-.027.047l-.042.057a2.346,2.346,0,0,0-.274.4,2.723,2.723,0,0,0-.217.5,1.827,1.827,0,0,0-.077.543q0,.394.478.394a.729.729,0,0,0,.416-.13,1.029,1.029,0,0,0,.307-.316.666.666,0,0,0,.115-.341.444.444,0,0,0-.115-.3,1.944,1.944,0,0,0-.314-.274,1.709,1.709,0,0,1-.189-.155.163.163,0,0,1-.06-.1q0-.06.085-.1a.491.491,0,0,1,.2-.037.3.3,0,0,1,.085.007.027.027,0,0,1,.02.027.068.068,0,0,1-.017.032.067.067,0,0,0-.017.037q0,.015.1.1a2.262,2.262,0,0,1,.334.334A.622.622,0,0,1,63.6-4.829Zm4.476.947a.168.168,0,0,1-.045.125.168.168,0,0,1-.125.045q-.1,0-.182-.209a1.557,1.557,0,0,1-.1-.434q-.02-.214-.03-.867,0-.1,0-.212t0-.182a7.5,7.5,0,0,1-.394.782,5.738,5.738,0,0,1-.5.753q-.252.314-.411.314a.213.213,0,0,1-.217-.174A2.1,2.1,0,0,1,66-4.495a4.031,4.031,0,0,1,.092-.8,2.807,2.807,0,0,1,.212-.683.611.611,0,0,1,.085-.142.106.106,0,0,1,.08-.037q.125,0,.125.05a.357.357,0,0,1-.05.115,2.994,2.994,0,0,0-.234.6,3.532,3.532,0,0,0-.1.937q0,.394.11.394.13,0,.351-.287a5.279,5.279,0,0,0,.441-.685,6.013,6.013,0,0,0,.334-.693,2.4,2.4,0,0,0,.09-.309.68.68,0,0,1,.03-.122q.015-.037.035-.037a.215.215,0,0,1,.12.045.122.122,0,0,1,.065.095q0,.239.017.82t.042.8a.948.948,0,0,0,.072.3.9.9,0,0,0,.1.172A.229.229,0,0,1,68.071-3.882ZM72.183-5.9a.155.155,0,0,1-.062.1.175.175,0,0,1-.107.057.1.1,0,0,1-.067-.03.586.586,0,0,1-.072-.085.3.3,0,0,0-.092-.085.223.223,0,0,0-.117-.035q-.145,0-.389.381a5.913,5.913,0,0,0-.478.959q0,.115.017.289t.017.259l.015.2a.242.242,0,0,1-.03.122.115.115,0,0,1-.11.052q-.085,0-.11-.227t-.03-.66q0-.11-.007-.314T70.548-5.4q-.015-.429-.015-.613,0-.115.14-.115a.092.092,0,0,1,.1.072,1.414,1.414,0,0,1,.017.277v.792a3.978,3.978,0,0,1,.324-.663,1.933,1.933,0,0,1,.341-.426.48.48,0,0,1,.3-.147.462.462,0,0,1,.209.05.455.455,0,0,1,.16.127A.244.244,0,0,1,72.183-5.9Zm4.142,1.4a.634.634,0,0,1-.177.421,1.258,1.258,0,0,1-.466.324,1.535,1.535,0,0,1-.6.122.7.7,0,0,1-.289-.04.121.121,0,0,1-.075-.11q0-.045.115-.157t.155-.112q.06,0,.06.025a.054.054,0,0,1-.025.04q-.025.02-.025.035t.062.04a.5.5,0,0,0,.152.02,1.223,1.223,0,0,0,.421-.077,1.014,1.014,0,0,0,.346-.2.361.361,0,0,0,.135-.264.28.28,0,0,0-.085-.214.515.515,0,0,0-.212-.117q-.127-.037-.426-.107-.329-.075-.511-.132a.9.9,0,0,1-.292-.145.271.271,0,0,1-.11-.222.574.574,0,0,1,.234-.439,1.805,1.805,0,0,1,.538-.314,1.456,1.456,0,0,1,.469-.115q.169,0,.169.1a.278.278,0,0,1-.04.132.129.129,0,0,1-.12.072.122.122,0,0,1-.065-.022.128.128,0,0,0-.07-.022,1.232,1.232,0,0,0-.314.065,1.256,1.256,0,0,0-.389.194.382.382,0,0,0-.174.314.188.188,0,0,0,.137.177,3.616,3.616,0,0,0,.511.142.591.591,0,0,0,.09.022.729.729,0,0,1,.08.017,2.323,2.323,0,0,1,.588.2A.371.371,0,0,1,76.325-4.495Zm4.3-.573q.035,0,.035.075a1.388,1.388,0,0,1-.132.394,1.769,1.769,0,0,1-.4.563.9.9,0,0,1-.655.259.753.753,0,0,1-.533-.2.8.8,0,0,1-.214-.613,1.793,1.793,0,0,1,.179-.77,1.791,1.791,0,0,1,.469-.623.925.925,0,0,1,.6-.242.562.562,0,0,1,.312.082.265.265,0,0,1,.127.237.455.455,0,0,1-.2.339,1.867,1.867,0,0,1-.511.289,3.124,3.124,0,0,1-.648.179,1.773,1.773,0,0,0-.06.449.667.667,0,0,0,.137.449.488.488,0,0,0,.391.159.788.788,0,0,0,.623-.274,2.593,2.593,0,0,0,.4-.618q.01-.02.035-.077T80.626-5.068Zm-.439-.782a.138.138,0,0,0-.082-.125.4.4,0,0,0-.192-.045.617.617,0,0,0-.364.125,1.16,1.16,0,0,0-.292.3,1.051,1.051,0,0,0-.152.309,1.78,1.78,0,0,0,.483-.13,2.07,2.07,0,0,0,.426-.229Q80.187-5.771,80.187-5.851Zm3.344,1.919q0,.05-.065.08a.341.341,0,0,1-.145.03q-.06,0-.112-.142a1.328,1.328,0,0,1-.052-.431q0-.563.017-1.361t.022-1.2a.833.833,0,0,1,.052-.269.169.169,0,0,1,.167-.125.051.051,0,0,1,.052.042.682.682,0,0,1,.012.162s0,.014,0,.032,0,.051,0,.1q-.09,1.311-.09,2.557a.909.909,0,0,0,.072.339Q83.532-3.942,83.532-3.932Zm4.954-2.392q0,.025-.067.07a.4.4,0,0,0-.082.065,3,3,0,0,0-.483.842A6.592,6.592,0,0,0,87.5-4.161q-.015.075-.05.3l-.025.174a.209.209,0,0,1-.067.125.283.283,0,0,1-.182.045,1.088,1.088,0,0,1-.169-.3q-.145-.3-.3-.65l-.214-.469q-.194-.424-.324-.663t-.189-.239a.037.037,0,0,0-.032.025q-.012.025-.027.025a.052.052,0,0,1-.042-.022.076.076,0,0,1-.017-.047.33.33,0,0,1,.072-.169q.072-.1.142-.1a.118.118,0,0,1,.075.02.286.286,0,0,1,.045.045q.02.025.03.04a5,5,0,0,1,.414.787q.1.224.518,1.171l.115.264a2.8,2.8,0,0,1,.05-.419,6.8,6.8,0,0,1,.329-1.166,3.875,3.875,0,0,1,.513-.967.762.762,0,0,1,.1-.112.143.143,0,0,1,.1-.032q.025,0,.08.077A.261.261,0,0,1,88.486-6.324Zm4.1,1.256q.035,0,.035.075a1.388,1.388,0,0,1-.132.394,1.769,1.769,0,0,1-.4.563.9.9,0,0,1-.655.259.753.753,0,0,1-.533-.2.8.8,0,0,1-.214-.613,1.793,1.793,0,0,1,.179-.77,1.791,1.791,0,0,1,.469-.623.925.925,0,0,1,.6-.242.562.562,0,0,1,.312.082.265.265,0,0,1,.127.237.455.455,0,0,1-.2.339,1.867,1.867,0,0,1-.511.289,3.123,3.123,0,0,1-.648.179,1.773,1.773,0,0,0-.06.449.667.667,0,0,0,.137.449.488.488,0,0,0,.391.159.788.788,0,0,0,.623-.274,2.593,2.593,0,0,0,.4-.618q.01-.02.035-.077T92.583-5.068Zm-.439-.782a.138.138,0,0,0-.082-.125.394.394,0,0,0-.192-.045.617.617,0,0,0-.364.125,1.16,1.16,0,0,0-.292.3,1.051,1.051,0,0,0-.152.309,1.78,1.78,0,0,0,.483-.13,2.07,2.07,0,0,0,.426-.229Q92.144-5.771,92.144-5.851ZM96.8-4.495a.634.634,0,0,1-.177.421,1.258,1.258,0,0,1-.466.324,1.535,1.535,0,0,1-.6.122.7.7,0,0,1-.289-.04.121.121,0,0,1-.075-.11q0-.045.115-.157t.155-.112q.06,0,.06.025a.054.054,0,0,1-.025.04q-.025.02-.025.035t.062.04a.5.5,0,0,0,.152.02,1.223,1.223,0,0,0,.421-.077,1.014,1.014,0,0,0,.346-.2.361.361,0,0,0,.135-.264.28.28,0,0,0-.085-.214.515.515,0,0,0-.212-.117q-.127-.037-.426-.107-.329-.075-.511-.132a.9.9,0,0,1-.292-.145.271.271,0,0,1-.11-.222.574.574,0,0,1,.234-.439,1.805,1.805,0,0,1,.538-.314,1.456,1.456,0,0,1,.469-.115q.169,0,.169.1a.278.278,0,0,1-.04.132.129.129,0,0,1-.12.072.122.122,0,0,1-.065-.022.128.128,0,0,0-.07-.022,1.232,1.232,0,0,0-.314.065,1.256,1.256,0,0,0-.389.194.382.382,0,0,0-.174.314.188.188,0,0,0,.137.177,3.616,3.616,0,0,0,.511.142.591.591,0,0,0,.09.022.729.729,0,0,1,.08.017,2.323,2.323,0,0,1,.588.2A.371.371,0,0,1,96.8-4.495Zm8.049-1.366a.144.144,0,0,1-.072.13.719.719,0,0,1-.262.07l-.513.09-.324.055q0,.259.007.543t.022.5a1.965,1.965,0,0,0,.07.444q.05.155.055.174a.116.116,0,0,1-.062.092.211.211,0,0,1-.117.042.073.073,0,0,1-.05-.017.141.141,0,0,1-.035-.057,1.191,1.191,0,0,1-.057-.259q-.027-.189-.042-.419-.015-.2-.022-.476t-.007-.526q-.279.045-.573.11a2.611,2.611,0,0,1-.314.055.2.2,0,0,1-.112-.035.108.108,0,0,1-.052-.095.083.083,0,0,1,.045-.085.4.4,0,0,1,.15-.02,1.284,1.284,0,0,0,.219-.027q.145-.027.184-.037.334-.065.454-.085,0-.1-.01-.274-.01-.229-.01-.349a2.781,2.781,0,0,1,.012-.3.722.722,0,0,1,.047-.192.148.148,0,0,1,.15-.1.087.087,0,0,1,.06.015.077.077,0,0,1,.015.055,1.635,1.635,0,0,1-.025.174,2.354,2.354,0,0,0-.025.384q0,.184.01.414l0,.135q.224-.035.887-.184a.111.111,0,0,0,.067-.07q.027-.06.057-.06a.159.159,0,0,1,.112.062A.188.188,0,0,1,104.849-5.86Zm3.977,1.032a.936.936,0,0,1-.145.449,1.323,1.323,0,0,1-.409.436,1.038,1.038,0,0,1-.6.182.618.618,0,0,1-.493-.184.676.676,0,0,1-.159-.459A2.562,2.562,0,0,1,107.1-5a2.452,2.452,0,0,1,.247-.633q.01-.02.082-.147a.623.623,0,0,1,.162-.194.311.311,0,0,1,.189-.067.157.157,0,0,1,.082.022.066.066,0,0,1,.037.057.134.134,0,0,1-.027.047l-.042.057a2.346,2.346,0,0,0-.274.4,2.724,2.724,0,0,0-.217.5,1.827,1.827,0,0,0-.077.543q0,.394.478.394a.729.729,0,0,0,.416-.13,1.029,1.029,0,0,0,.307-.316.666.666,0,0,0,.115-.341.444.444,0,0,0-.115-.3,1.944,1.944,0,0,0-.314-.274,1.71,1.71,0,0,1-.189-.155.163.163,0,0,1-.06-.1q0-.06.085-.1a.491.491,0,0,1,.2-.037.3.3,0,0,1,.085.007.027.027,0,0,1,.02.027.068.068,0,0,1-.017.032.067.067,0,0,0-.017.037q0,.015.1.1a2.262,2.262,0,0,1,.334.334A.622.622,0,0,1,108.826-4.829Zm4.182-2.377q0,.1-.01.391t-.01.586q0,.568.025,1.159t.04.775a.457.457,0,0,0,0,.065q0,.035.01.065.02.14.02.169,0,.05-.072.095a.241.241,0,0,1-.112.045.07.07,0,0,1-.072-.042.316.316,0,0,1-.017-.117q0-.274.015-.573l0-.279q0-.14,0-.366t-.015-.381a6.263,6.263,0,0,1-.576,1.353q-.321.536-.7.536a.346.346,0,0,1-.287-.159.766.766,0,0,1-.117-.459,1.741,1.741,0,0,1,.267-.857,3.657,3.657,0,0,1,.608-.8q.341-.334.506-.334t.159.1a.365.365,0,0,1-.047.162,1.1,1.1,0,0,1-.1.167q-.057.075-.067.075a.045.045,0,0,1-.022-.007.021.021,0,0,1-.012-.017.265.265,0,0,1,.025-.085.273.273,0,0,0,.025-.08.085.085,0,0,0,0-.035q0-.01-.03-.01-.1,0-.376.287a3.219,3.219,0,0,0-.486.68,1.547,1.547,0,0,0-.214.733.515.515,0,0,0,.05.224.17.17,0,0,0,.164.1q.364,0,.675-.616a8.208,8.208,0,0,0,.541-1.4l-.01-.419q-.015-.553-.015-.588a2.557,2.557,0,0,1,.025-.429.226.226,0,0,1,.022-.07.057.057,0,0,1,.052-.02.182.182,0,0,1,.1.032.1.1,0,0,1,.05.087Zm4.64,3.09a.138.138,0,0,0,.04.072.1.1,0,0,1,.035.062.262.262,0,0,1-.05.137q-.05.077-.1.077-.085,0-.13-.1a.616.616,0,0,1-.045-.244q0-.12.015-.718l0-.189a.2.2,0,0,0-.06-.164q-.224.379-.419.658a2.649,2.649,0,0,1-.493.526.974.974,0,0,1-.628.247.31.31,0,0,1-.247-.1.379.379,0,0,1-.087-.259,1.3,1.3,0,0,1,.179-.546,4.514,4.514,0,0,1,.459-.7,3.731,3.731,0,0,1,.558-.586,1.642,1.642,0,0,1,.294-.2.461.461,0,0,1,.194-.052.324.324,0,0,1,.164.05.444.444,0,0,1,.145.14.36.36,0,0,1,.06.2.558.558,0,0,1-.085.294l.085-.025q.055,0,.065.135,0,.08.012.324t.012.4q0,.164.01.319T117.648-4.116Zm-1.759.09a.821.821,0,0,0,.518-.2,2.349,2.349,0,0,0,.446-.476q.2-.277.436-.68a.864.864,0,0,0,.06-.324.281.281,0,0,0-.062-.182.2.2,0,0,0-.167-.077.552.552,0,0,0-.319.169,3.483,3.483,0,0,0-.473.506,4.229,4.229,0,0,0-.414.625,1.141,1.141,0,0,0-.164.488Q115.749-4.026,115.888-4.026ZM121.864-6a4.644,4.644,0,0,1-.055.5q-.06.439-.065.493-.065.613-.092.935t-.027.581a1.4,1.4,0,0,0,.032.339.974.974,0,0,0,.07.2.335.335,0,0,1,.037.087q0,.045-.08.08a.406.406,0,0,1-.164.035q-.065,0-.1-.174a2.844,2.844,0,0,1-.037-.543,6.905,6.905,0,0,1,.055-.753l.075-.688a2.776,2.776,0,0,1-.331.5.544.544,0,0,1-.406.237q-.194,0-.349-.339a3.558,3.558,0,0,1-.242-.768,3.542,3.542,0,0,1-.087-.628q0-.125.075-.125.11,0,.14.2.189,1.386.528,1.386a.318.318,0,0,0,.237-.107,2.128,2.128,0,0,0,.242-.331,2.163,2.163,0,0,0,.14-.279q.075-.174.115-.289l.035-.5a.6.6,0,0,1,.03-.162.078.078,0,0,1,.08-.047.137.137,0,0,1,.1.057A.173.173,0,0,1,121.864-6Zm3.065,2.253q0,.075-.164.075a.215.215,0,0,1-.172-.107.961.961,0,0,1-.125-.239.693.693,0,0,1-.047-.172.145.145,0,0,1,.052-.1.156.156,0,0,1,.107-.05.064.064,0,0,1,.055.027q.02.027.06.092a.37.37,0,0,0,.085.115.367.367,0,0,1,.107.184A.77.77,0,0,1,124.929-3.747Z" transform="translate(0.776 59.006)" fill="#f695c1"/>
  </g>
</svg>
