<svg xmlns="http://www.w3.org/2000/svg" width="36.193" height="36.192" viewBox="0 0 36.193 36.192">
  <g id="play-movie-button-with-a-triangle-in-a-circle" transform="translate(36.193 -0.004) rotate(90)">
    <g id="Group_1334" data-name="Group 1334" transform="translate(0.004)">
      <path id="Path_2279" data-name="Path 2279" d="M182.661,115.85,172.132,108.2a2.4,2.4,0,0,0-3.813,1.943v15.294a2.4,2.4,0,0,0,3.813,1.943l10.529-7.647a2.4,2.4,0,0,0,0-3.887Z" transform="translate(-155.747 -99.697)" fill="#e890a5"/>
      <path id="Path_2280" data-name="Path 2280" d="M18.1,0A18.1,18.1,0,1,0,36.2,18.1,18.117,18.117,0,0,0,18.1,0Zm0,31.746A13.649,13.649,0,1,1,31.75,18.1,13.665,13.665,0,0,1,18.1,31.746Z" transform="translate(-0.004)" fill="#f6c1cf"/>
    </g>
  </g>
</svg>
