<svg xmlns="http://www.w3.org/2000/svg" width="1276.973" height="1276.972" viewBox="0 0 1276.973 1276.972">
  <g id="question" transform="translate(0)" opacity="0.2">
    <path id="Path_2223" data-name="Path 2223" d="M1267.821,761.122l-80.654-92.977a409.7,409.7,0,0,0,89.8-256.621C1276.972,184.61,1092.365,0,865.448,0S453.924,184.61,453.924,411.524a414.254,414.254,0,0,0,2.457,44.881,414.723,414.723,0,0,0-44.856-2.482C184.61,453.923,0,638.533,0,865.448a409.71,409.71,0,0,0,89.8,256.621L9.151,1215.046a37.411,37.411,0,0,0,28.26,61.926H411.524c226.914,0,411.524-184.61,411.524-411.524a414.736,414.736,0,0,0-2.482-44.856,414.252,414.252,0,0,0,44.881,2.457h374.113a37.411,37.411,0,0,0,28.26-61.926Zm-856.3,441.027H119.39l48.2-55.561a37.411,37.411,0,0,0-1.045-50.183,335.363,335.363,0,0,1-91.72-230.957c0-185.657,151.044-336.7,336.7-336.7a338.912,338.912,0,0,1,61.108,5.557A413.36,413.36,0,0,0,742.669,804.34a338.909,338.909,0,0,1,5.557,61.107C748.226,1051.107,597.184,1202.149,411.524,1202.149ZM865.448,748.225c-185.657,0-336.7-151.044-336.7-336.7s151.044-336.7,336.7-336.7,336.7,151.044,336.7,336.7a335.362,335.362,0,0,1-91.72,230.957,37.411,37.411,0,0,0-1.045,50.184l48.2,55.561Z" transform="translate(0 0)" fill="#fff3f6"/>
    <ellipse id="Ellipse_109" data-name="Ellipse 109" cx="37" cy="37.5" rx="37" ry="37.5" transform="translate(827.972 591)" fill="#fff3f6"/>
    <path id="Path_2224" data-name="Path 2224" d="M435.923,62.03a143.423,143.423,0,0,0-146.47,143.5,37.411,37.411,0,1,0,74.823,0,69.763,69.763,0,0,1,.663-9.63,68.7,68.7,0,0,1,68.071-59.077c.469,0,.935,0,1.407.015A68.685,68.685,0,0,1,482.8,252.81a68.094,68.094,0,0,1-49.824,21.424,37.412,37.412,0,0,0-37.411,37.411V422.61a37.411,37.411,0,1,0,74.822,0V344.046a144.139,144.139,0,0,0,66.672-39.718A142.352,142.352,0,0,0,576.31,197.945C572.434,123.24,510.768,63.539,435.923,62.03Z" transform="translate(432.468 92.633)" fill="#fff3f6"/>
    <path id="Path_2225" data-name="Path 2225" d="M386.82,302H137.411a37.411,37.411,0,0,0,0,74.823H386.82a37.411,37.411,0,1,0,0-74.823Z" transform="translate(149.409 451.214)" fill="#fff3f6"/>
    <path id="Path_2226" data-name="Path 2226" d="M386.82,362H137.411a37.411,37.411,0,1,0,0,74.822H386.82a37.411,37.411,0,1,0,0-74.822Z" transform="translate(149.409 540.859)" fill="#fff3f6"/>
  </g>
</svg>
