<svg xmlns="http://www.w3.org/2000/svg" width="33.541" height="41.066" viewBox="0 0 33.541 41.066">
  <g id="search" transform="translate(5.588) rotate(14)">
    <path id="Path_1987" data-name="Path 1987" d="M13.551,10.856h0a2.728,2.728,0,0,1-2.695,2.695h0a2.8,2.8,0,0,1-2-.847L.231,3.311a.744.744,0,0,1,0-1.078l2-2a.744.744,0,0,1,1.078,0l9.393,8.7A2.624,2.624,0,0,1,13.551,10.856Z" transform="translate(20.326 20.326)" fill="#b06328"/>
    <rect id="Rectangle_282" data-name="Rectangle 282" width="2.156" height="3.234" transform="translate(22.308 20.784) rotate(135)" fill="#b0c4d8"/>
    <path id="Path_1988" data-name="Path 1988" d="M2.695,2.695l.385.385.77-.77L1.54,0,0,1.54,1.155,2.695h0A1.029,1.029,0,0,1,2.695,2.695Z" transform="translate(18.478 18.478)" fill="#99b4cd"/>
    <path id="Path_1989" data-name="Path 1989" d="M11.549,0A11.549,11.549,0,1,0,23.1,11.549,11.534,11.534,0,0,0,11.549,0Zm0,20.788a9.239,9.239,0,1,1,9.239-9.239A9.266,9.266,0,0,1,11.549,20.788Z" transform="translate(0 0)" fill="#c4d7e5"/>
    <circle id="Ellipse_92" data-name="Ellipse 92" cx="9.239" cy="9.239" r="9.239" transform="translate(2.31 2.31)" fill="#70b7e5"/>
    <path id="Path_1990" data-name="Path 1990" d="M2.317,7.981a6.535,6.535,0,0,1,5.62-5.62h.077A1.133,1.133,0,0,0,8.168.128,7.757,7.757,0,0,0,5.858.051,6.86,6.86,0,0,0,.084,5.825a5.791,5.791,0,0,0,.077,2.31,1.129,1.129,0,0,0,2.233-.154C2.317,8.058,2.317,7.981,2.317,7.981Z" transform="translate(4.69 4.646)" fill="#92c5eb"/>
    <path id="Path_1991" data-name="Path 1991" d="M.77,10.009A9.266,9.266,0,0,1,10.009.77a9.647,9.647,0,0,1,6.159,2.31A9.134,9.134,0,0,0,9.239,0,9.266,9.266,0,0,0,0,9.239a9.408,9.408,0,0,0,3.08,6.929A9.647,9.647,0,0,1,.77,10.009Z" transform="translate(2.31 2.31)" fill="#4c9cd6"/>
    <path id="Path_1992" data-name="Path 1992" d="M0,11.549H0A11.533,11.533,0,0,0,11.549,0h0a.772.772,0,0,0-.77.77A10.472,10.472,0,0,1,7.7,7.545,10.848,10.848,0,0,1,.77,10.779.772.772,0,0,0,0,11.549Z" transform="translate(11.549 11.549)" fill="#b0c9db"/>
    <path id="Path_1993" data-name="Path 1993" d="M11.549,0h0A11.534,11.534,0,0,0,0,11.549H0a.772.772,0,0,0,.77-.77A10.423,10.423,0,0,1,3.619,4.235,11.3,11.3,0,0,1,10.779.77.771.771,0,0,0,11.549,0Z" transform="translate(0 0)" fill="#e2e7f0"/>
    <path id="Path_1994" data-name="Path 1994" d="M12.242,6.429l-.462-.385A2.691,2.691,0,0,1,12.4,7.738h0a1.106,1.106,0,0,1-1.925.693L2.387.346A1.116,1.116,0,0,0,.77.346L0,1.116l8.392,9.008a3.09,3.09,0,0,0,1.694.924,2.849,2.849,0,0,0,2.233-.77,2.85,2.85,0,0,0,.77-2.233A2.4,2.4,0,0,0,12.242,6.429Z" transform="translate(20.711 22.751)" fill="#a35425"/>
    <path id="Path_1995" data-name="Path 1995" d="M2.348,2.656a.463.463,0,0,1-.308-.077L.116.654a.372.372,0,0,1,0-.539.372.372,0,0,1,.539,0L2.579,2.04a.372.372,0,0,1,0,.539C2.579,2.656,2.425,2.656,2.348,2.656Z" transform="translate(22.674 21.212)" fill="#c97629"/>
  </g>
</svg>
