<svg xmlns="http://www.w3.org/2000/svg" width="46.5" height="52.269" viewBox="0 0 46.5 52.269">
  <g id="star" transform="translate(-28.254)">
    <g id="Group_1301" data-name="Group 1301" transform="translate(29.02 0.766)">
      <path id="Path_2242" data-name="Path 2242" d="M80.723,29.984A22.484,22.484,0,1,0,52.166,51.639a2.514,2.514,0,0,1,1.533,1.22l1.241,2.285q.031.058.066.114l1.09,1.779a2.512,2.512,0,0,0,4.284,0L61.5,55.2l1.272-2.343a2.508,2.508,0,0,1,1.529-1.219A22.494,22.494,0,0,0,80.723,29.984Z" transform="translate(-35.754 -7.5)" fill="#f3b0c2"/>
    </g>
    <g id="Group_1302" data-name="Group 1302" transform="translate(35.155 0.766)">
      <path id="Path_2243" data-name="Path 2243" d="M112.161,7.5a22.426,22.426,0,0,0-16.305,7.086h.2a20.839,20.839,0,1,1,19.631,35.492,2.326,2.326,0,0,0-1.418,1.13l-1.18,2.173-1.043,1.7a2.323,2.323,0,0,1-2.541,1.046l.557.909a2.512,2.512,0,0,0,4.284,0l1.125-1.835,1.272-2.343a2.508,2.508,0,0,1,1.529-1.219A22.488,22.488,0,0,0,112.161,7.5Z" transform="translate(-95.856 -7.5)" fill="#e890a5"/>
    </g>
    <g id="Group_1303" data-name="Group 1303" transform="translate(39.492 10.635)">
      <path id="Path_2244" data-name="Path 2244" d="M151.737,105l2.69,4.946a1.583,1.583,0,0,0,1.1.8l5.535,1.03a1.583,1.583,0,0,1,.86,2.645l-3.873,4.087a1.583,1.583,0,0,0-.421,1.295l.731,5.583a1.583,1.583,0,0,1-2.25,1.635l-5.083-2.42a1.583,1.583,0,0,0-1.361,0l-5.083,2.42a1.583,1.583,0,0,1-2.25-1.635l.731-5.583a1.583,1.583,0,0,0-.421-1.295l-3.873-4.087a1.583,1.583,0,0,1,.86-2.645l5.535-1.03a1.584,1.584,0,0,0,1.1-.8l2.69-4.946A1.583,1.583,0,0,1,151.737,105Z" transform="translate(-138.334 -104.176)" fill="#ffeba8"/>
    </g>
    <g id="Group_1304" data-name="Group 1304" transform="translate(49.342 10.635)">
      <path id="Path_2245" data-name="Path 2245" d="M248.563,114.426a1.583,1.583,0,0,0-.86-2.645l-5.535-1.03a1.584,1.584,0,0,1-1.1-.8L238.377,105a1.583,1.583,0,0,0-2.782,0l-.771,1.417a1.451,1.451,0,0,1,.373.446l1.272,2.339a6.69,6.69,0,0,0,4.653,3.381l2.618.487a1.45,1.45,0,0,1,.787,2.423L242.7,117.43a6.69,6.69,0,0,0-1.777,5.47l.346,2.64a1.438,1.438,0,0,1-.092.733l1.578.751A1.583,1.583,0,0,0,245,125.39l-.731-5.583a1.583,1.583,0,0,1,.421-1.295Z" transform="translate(-234.824 -104.177)" fill="#fddf7c"/>
    </g>
    <g id="Group_1305" data-name="Group 1305" transform="translate(38.727 9.869)">
      <path id="Path_2246" data-name="Path 2246" d="M150.065,121.209a2.347,2.347,0,0,1-1.01-.228l-5.083-2.42a.814.814,0,0,0-.7,0l-5.083,2.42a2.349,2.349,0,0,1-3.339-2.426l.731-5.583a.815.815,0,0,0-.217-.669l-3.873-4.087a2.349,2.349,0,0,1,1.275-3.925l5.535-1.03a.814.814,0,0,0,.569-.413l2.69-4.946a2.349,2.349,0,0,1,4.127,0l2.69,4.946a.814.814,0,0,0,.569.413l5.535,1.03a2.349,2.349,0,0,1,1.275,3.925L151.88,112.3a.814.814,0,0,0-.217.668l.731,5.583a2.35,2.35,0,0,1-2.329,2.654Zm-6.445-4.26a2.347,2.347,0,0,1,1.01.229l5.083,2.42a.818.818,0,0,0,1.162-.844l-.731-5.583a2.34,2.34,0,0,1,.624-1.921l3.873-4.087a.818.818,0,0,0-.444-1.366l-5.535-1.03a2.339,2.339,0,0,1-1.634-1.187l-2.69-4.946a.818.818,0,0,0-1.436,0l-2.69,4.946a2.339,2.339,0,0,1-1.634,1.187l-5.535,1.03a.818.818,0,0,0-.444,1.366l3.873,4.087a2.339,2.339,0,0,1,.624,1.921l-.731,5.583a.818.818,0,0,0,1.162.844l5.083-2.42A2.35,2.35,0,0,1,143.621,116.949Z" transform="translate(-130.844 -96.677)"/>
    </g>
    <g id="Group_1306" data-name="Group 1306" transform="translate(34.205 0)">
      <path id="Path_2247" data-name="Path 2247" d="M122.7,36.276a.766.766,0,0,1-.641-1.184A21.721,21.721,0,0,0,103.847,1.531H103.8a21.437,21.437,0,0,0-8.832,1.9,21.757,21.757,0,0,0-7.1,5.129A.766.766,0,0,1,86.75,7.528,23.279,23.279,0,0,1,94.343,2.04,22.962,22.962,0,0,1,103.8,0h.045a23.253,23.253,0,0,1,19.491,35.929.765.765,0,0,1-.642.348Z" transform="translate(-86.548 0)"/>
    </g>
    <g id="Group_1307" data-name="Group 1307" transform="translate(28.254 9.701)">
      <path id="Path_2248" data-name="Path 2248" d="M51.5,137.6h0a3.255,3.255,0,0,1-2.795-1.565l-1.09-1.779c-.03-.049-.059-.1-.086-.149l-1.241-2.285a1.758,1.758,0,0,0-1.067-.848,23.408,23.408,0,0,1-12.157-8.223A23.2,23.2,0,0,1,32.4,95.357a.766.766,0,0,1,1.257.874,21.669,21.669,0,0,0,.623,25.581,21.868,21.868,0,0,0,11.356,7.683,3.3,3.3,0,0,1,2,1.592l1.241,2.285q.022.04.045.079l1.091,1.78a1.747,1.747,0,0,0,2.978,0l1.114-1.818,1.263-2.326a3.292,3.292,0,0,1,2-1.591,21.66,21.66,0,0,0,10.52-6.658.766.766,0,0,1,1.155,1.006,23.186,23.186,0,0,1-11.262,7.127,1.752,1.752,0,0,0-1.062.847l-1.272,2.343-.02.035L54.3,136.031A3.256,3.256,0,0,1,51.5,137.6Z" transform="translate(-28.254 -95.028)"/>
    </g>
  </g>
</svg>
