<svg xmlns="http://www.w3.org/2000/svg" width="50.749" height="55" viewBox="0 0 50.749 55">
  <g id="timer" transform="translate(-19.78 0.002)">
    <path id="Path_1011" data-name="Path 1011" d="M45.155,51.236A21.612,21.612,0,0,1,43.263,8.1l-1.7,1.582a1.881,1.881,0,1,0,2.566,2.75l4.4-4.109a2.534,2.534,0,0,0,0-3.706L44.134.5a1.881,1.881,0,1,0-2.567,2.75l1.186,1.106a25.376,25.376,0,0,0-15.54,43.2A25.205,25.205,0,0,0,45.144,55h.011a1.881,1.881,0,0,0,0-3.762Z" transform="translate(0 0)" fill="#e890a5"/>
    <circle id="Ellipse_66" data-name="Ellipse 66" cx="1.881" cy="1.881" r="1.881" transform="translate(66.767 27.742)" fill="#e890a5"/>
    <circle id="Ellipse_67" data-name="Ellipse 67" cx="1.881" cy="1.881" r="1.881" transform="translate(49.364 50.439)" fill="#e890a5"/>
    <path id="Path_1012" data-name="Path 1012" d="M451.671,314.89a1.881,1.881,0,1,0,1.881,1.881A1.881,1.881,0,0,0,451.671,314.89Z" transform="translate(-383.818 -281.066)" fill="#e890a5"/>
    <path id="Path_1013" data-name="Path 1013" d="M349.771,447.69a1.881,1.881,0,1,0,1.881,1.881A1.881,1.881,0,0,0,349.771,447.69Z" transform="translate(-292.864 -399.6)" fill="#e890a5"/>
    <path id="Path_1014" data-name="Path 1014" d="M429.811,367.62a1.881,1.881,0,1,0,1.881,1.881A1.881,1.881,0,0,0,429.811,367.62Z" transform="translate(-364.306 -328.131)" fill="#e890a5"/>
    <path id="Path_1015" data-name="Path 1015" d="M395.031,412.91a1.881,1.881,0,1,0,1.881,1.881A1.881,1.881,0,0,0,395.031,412.91Z" transform="translate(-333.262 -368.556)" fill="#e890a5"/>
    <path id="Path_1016" data-name="Path 1016" d="M251.356,174.55a1.881,1.881,0,0,0-1.881-1.881h-6.45a1.345,1.345,0,0,1-1.344-1.344v-9.674a1.881,1.881,0,0,0-3.762,0v9.674a5.111,5.111,0,0,0,5.106,5.106h6.45A1.881,1.881,0,0,0,251.356,174.55Z" transform="translate(-194.707 -142.609)" fill="#e890a5"/>
  </g>
</svg>
