<svg xmlns="http://www.w3.org/2000/svg" width="31.816" height="31.816" viewBox="0 0 31.816 31.816"><path d="M29.9,164.182H1.921A1.92,1.92,0,0,1,0,162.261v-19.2a1.92,1.92,0,0,1,1.92-1.92H29.9a1.92,1.92,0,0,1,1.92,1.92v19.2A1.92,1.92,0,0,1,29.9,164.182Z" transform="translate(0 -132.366)" fill="#d8ecfe"/><path d="M452.11,141.135h-1.92a1.92,1.92,0,0,1,1.92,1.92v19.2a1.92,1.92,0,0,1-1.92,1.92h1.92a1.92,1.92,0,0,0,1.92-1.92v-19.2A1.92,1.92,0,0,0,452.11,141.135Z" transform="translate(-422.215 -132.365)" fill="#c4e2ff"/><path d="M44.894,434.192H31.155a.249.249,0,0,1-.249-.249v-2.723H44.894Z" transform="translate(-28.985 -404.425)" fill="#eddbb9"/><path d="M269.739,434.192H256v-2.971h13.988v2.723A.249.249,0,0,1,269.739,434.192Z" transform="translate(-240.092 -404.425)" fill="#e0cfaf"/><path d="M44.894,136.058H31.155a.249.249,0,0,1-.249-.249V115.63a.249.249,0,0,1,.249-.249H44.894Z" transform="translate(-28.985 -108.211)" fill="#fbf2df"/><path d="M269.739,136.058H256V115.381h13.739a.249.249,0,0,1,.249.249v20.18A.249.249,0,0,1,269.739,136.058Z" transform="translate(-240.092 -108.211)" fill="#eddbb9"/><path d="M267.975,88.223,256,91.217V70.54l11.854-2.964a.249.249,0,0,1,.309.241V87.982A.248.248,0,0,1,267.975,88.223Z" transform="translate(-240.092 -63.37)" fill="#f2e5ce"/><path d="M134.547,399.681h-4.931a.466.466,0,0,0,0,.932h4.931a.466.466,0,0,0,0-.932Z" transform="translate(-121.125 -374.845)" fill="#78909c"/><path d="M204.463,3.793l-2.517-.945.913-2.432a.64.64,0,0,1,.824-.374l1.318.5a.64.64,0,0,1,.374.824Z" transform="translate(-189.397 -0.001)" fill="#c4e2ff"/><path d="M87.615,51.608l-3.6-1.35L90.931,31.85a.249.249,0,0,1,.32-.145l3.13,1.175a.249.249,0,0,1,.145.32Z" transform="translate(-78.798 -29.72)" fill="#c4e2ff"/><path d="M119.951,41.4l-7,18.64,1.8.675,6.912-18.407a.249.249,0,0,0-.145-.32Z" transform="translate(-105.933 -38.829)" fill="#0573ce"/><path d="M81.791,330.5l-.148,4.144a.659.659,0,0,0,1.127.423l2.616-3.217Z" transform="translate(-76.57 -309.965)" fill="#78909c"/><path d="M83.589,341.367l-1.946,3.469a.659.659,0,0,0,1.127.423l2.616-3.217Z" transform="translate(-76.57 -320.154)" fill="#607d8b"/><path d="M0,0H3.841V6.914H0Z" transform="matrix(0.936, 0.352, -0.352, 0.936, 8.838, 10.889)" fill="#78909c"/><path d="M0,0H6.914V1.92H0Z" transform="matrix(0.352, -0.936, 0.936, 0.352, 8.213, 18.043)" fill="#607d8b"/></svg>