<svg height="456pt" viewBox="-24 0 456 456" width="456pt" xmlns="http://www.w3.org/2000/svg"><path d="m242.535156 456c-14.558594 0-29.214844-3.785156-42.445312-11.527344l-43.945313-25.761718c-11.648437-6.832032-24.9375-10.4375-38.433593-10.4375h-22.277344c-2.210938 0-4-1.792969-4-4 0-2.210938 1.789062-4 4-4h22.277344c14.914062 0 29.601562 3.984374 42.480468 11.527343l43.945313 25.757813c29.824219 17.503906 67.726562 12.625 92.167969-11.824219l83.566406-83.566406c6.242187-6.238281 6.242187-16.390625 0-22.632813-6.046875-6.046875-16.574219-6.046875-22.625 0l-33.933594 33.945313c-1.558594 1.558593-4.097656 1.558593-5.65625 0-1.558594-1.558594-1.558594-4.097657 0-5.65625l33.9375-33.945313c9.0625-9.070312 24.871094-9.054687 33.933594 0 9.359375 9.359375 9.359375 24.585938 0 33.945313l-83.558594 83.574219c-16.175781 16.175781-37.695312 24.601562-59.433594 24.601562zm0 0" fill="#263238"/><path d="m19.433594 300.273438v116c0 4.414062 3.582031 8 8 8h44c4.414062 0 8-3.585938 8-8v-116c0-4.417969-3.585938-8-8-8h-44c-4.417969 0-8 3.582031-8 8zm0 0" fill="#40c4ff"/><path d="m71.441406 428.273438h-44c-6.617187 0-12-5.386719-12-12v-116c0-6.617188 5.382813-12 12-12h44c6.613282 0 12 5.382812 12 12v116c0 6.613281-5.386718 12-12 12zm-44-132c-2.203125 0-4 1.796874-4 4v116c0 2.199218 1.796875 4 4 4h44c2.199219 0 4-1.800782 4-4v-116c0-2.203126-1.800781-4-4-4zm0 0" fill="#263238"/><path d="m279.441406 388.273438h-52c-2.210937 0-4-1.792969-4-4 0-2.210938 1.789063-4 4-4h52c8.824219 0 16-7.175782 16-16 0-8.824219-7.175781-16-16-16h-56c-.488281 0-.96875-.089844-1.425781-.265626l-63.367187-24.136718c-13.234376-5.046875-27.128907-7.597656-41.296876-7.597656h-21.910156c-2.210937 0-4-1.792969-4-4 0-2.210938 1.789063-4 4-4h21.910156c15.152344 0 30 2.734374 44.144532 8.132812l62.679687 23.867188h55.265625c13.230469 0 24 10.765624 24 24 0 13.230468-10.769531 24-24 24zm0 0" fill="#263238"/><path d="m204 44.472656c-21.960938-21.960937-57.566406-21.960937-79.527344 0-21.960937 21.960938-21.960937 57.566406 0 79.527344l79.527344 79.527344 79.535156-79.527344c21.960938-21.960938 21.960938-57.566406 0-79.527344-21.96875-21.960937-57.566406-21.960937-79.535156 0zm0 0" fill="#ff5252"/><path d="m204 207.527344c-1.0625 0-2.078125-.421875-2.832031-1.167969l-79.519531-79.527344c-23.488282-23.488281-23.488282-61.695312 0-85.175781 22.558593-22.558594 58.703124-23.457031 82.351562-2.65625 23.632812-20.800781 59.792969-19.902344 82.359375 2.65625 23.488281 23.488281 23.488281 61.695312 0 85.175781l-79.527344 79.527344c-.753906.753906-1.769531 1.167969-2.832031 1.167969zm-39.769531-175.496094c-13.375 0-26.75 5.097656-36.925781 15.273438-20.367188 20.367187-20.367188 53.503906 0 73.863281l76.695312 76.703125 76.703125-76.703125c20.367187-20.367188 20.367187-53.503907 0-73.863281-20.375-20.359376-53.503906-20.359376-73.871094 0-1.558593 1.558593-4.097656 1.558593-5.65625 0-10.183593-10.175782-23.558593-15.273438-36.945312-15.273438zm0 0" fill="#263238"/><path d="m288 200.121094c-10.984375-10.984375-28.785156-10.984375-39.769531 0s-10.984375 28.78125 0 39.765625l39.769531 39.769531 39.769531-39.769531c10.984375-10.984375 10.984375-28.78125 0-39.765625s-28.785156-10.984375-39.769531 0zm0 0" fill="#ff5252"/><path d="m288 283.648438c-1.0625 0-2.078125-.425782-2.832031-1.167969l-39.761719-39.769531c-6.070312-6.0625-9.414062-14.125-9.414062-22.710938 0-8.574219 3.34375-16.640625 9.414062-22.710938 11.625-11.609374 30.007812-12.457031 42.585938-2.511718 12.609374-9.953125 30.992187-9.097656 42.59375 2.511718 6.070312 6.070313 9.40625 14.136719 9.40625 22.710938 0 8.585938-3.335938 16.648438-9.40625 22.710938l-39.769532 39.769531c-.738281.742187-1.753906 1.167969-2.816406 1.167969zm-19.878906-87.769532c-6.441406 0-12.496094 2.503906-17.050782 7.066406-4.550781 4.558594-7.070312 10.613282-7.070312 17.054688 0 6.449219 2.511719 12.496094 7.070312 17.054688l36.929688 36.9375 36.9375-36.9375c4.550781-4.550782 7.0625-10.605469 7.0625-17.054688 0-6.441406-2.503906-12.496094-7.0625-17.054688-9.402344-9.410156-24.699219-9.410156-34.113281 0-1.558594 1.558594-4.097657 1.558594-5.65625 0-4.550781-4.554687-10.609375-7.066406-17.046875-7.066406zm0 0" fill="#263238"/><path d="m120 200.121094c-10.984375-10.984375-28.785156-10.984375-39.769531 0s-10.984375 28.78125 0 39.765625l39.769531 39.769531 39.769531-39.769531c10.984375-10.984375 10.984375-28.78125 0-39.765625s-28.785156-10.984375-39.769531 0zm0 0" fill="#ff5252"/><g fill="#263238"><path d="m120 283.648438c-1.0625 0-2.078125-.425782-2.832031-1.167969l-39.761719-39.769531c-6.070312-6.0625-9.414062-14.125-9.414062-22.710938 0-8.574219 3.34375-16.640625 9.414062-22.710938 11.617188-11.609374 30.007812-12.457031 42.585938-2.511718 12.617187-9.953125 30.984374-9.097656 42.59375 2.511718 6.070312 6.070313 9.40625 14.136719 9.40625 22.710938 0 8.585938-3.335938 16.648438-9.40625 22.710938l-39.769532 39.769531c-.738281.742187-1.753906 1.167969-2.816406 1.167969zm-19.878906-87.769532c-6.441406 0-12.496094 2.503906-17.050782 7.066406-4.550781 4.558594-7.070312 10.613282-7.070312 17.054688 0 6.449219 2.511719 12.496094 7.070312 17.054688l36.929688 36.9375 36.9375-36.9375c4.550781-4.550782 7.0625-10.605469 7.0625-17.054688 0-6.441406-2.503906-12.496094-7.0625-17.054688-9.402344-9.410156-24.699219-9.410156-34.113281 0-1.558594 1.558594-4.097657 1.558594-5.65625 0-4.550781-4.554687-10.609375-7.066406-17.046875-7.066406zm0 0"/><path d="m12 139.527344h-8c-2.207031 0-4-1.792969-4-4 0-2.207032 1.792969-4 4-4h8c2.207031 0 4 1.792968 4 4 0 2.207031-1.792969 4-4 4zm0 0"/><path d="m76 139.527344h-48c-2.207031 0-4-1.792969-4-4 0-2.207032 1.792969-4 4-4h48c2.207031 0 4 1.792968 4 4 0 2.207031-1.792969 4-4 4zm0 0"/><path d="m404 139.527344h-8c-2.207031 0-4-1.792969-4-4 0-2.207032 1.792969-4 4-4h8c2.207031 0 4 1.792968 4 4 0 2.207031-1.792969 4-4 4zm0 0"/><path d="m380 139.527344h-48c-2.207031 0-4-1.792969-4-4 0-2.207032 1.792969-4 4-4h48c2.207031 0 4 1.792968 4 4 0 2.207031-1.792969 4-4 4zm0 0"/><path d="m344 24h-32c-2.207031 0-4-1.792969-4-4s1.792969-4 4-4h32c2.207031 0 4 1.792969 4 4s-1.792969 4-4 4zm0 0"/><path d="m328 40c-2.207031 0-4-1.792969-4-4v-32c0-2.207031 1.792969-4 4-4s4 1.792969 4 4v32c0 2.207031-1.792969 4-4 4zm0 0"/><path d="m376 68h-32c-2.207031 0-4-1.792969-4-4s1.792969-4 4-4h32c2.207031 0 4 1.792969 4 4s-1.792969 4-4 4zm0 0"/><path d="m360 84c-2.207031 0-4-1.792969-4-4v-32c0-2.207031 1.792969-4 4-4s4 1.792969 4 4v32c0 2.207031-1.792969 4-4 4zm0 0"/></g></svg>