<?xml version="1.0" encoding="UTF-8"?><svg id="_レイヤー_2" xmlns="http://www.w3.org/2000/svg" viewBox="0 0 6000 4000"><defs><style>.cls-1{fill:none;stroke:#161616;stroke-miterlimit:10;stroke-width:16px;}.cls-2{fill:#fff;stroke-width:0px;}</style></defs><g id="Layer_1"><rect class="cls-2" width="6000" height="4000"/><path class="cls-1" d="M1528.1021,1291.4451c143.5364-91.5815,161.1482,23.776,208.70009,9.6865,47.552-14.0895,125.9246-279.1474,188.4466-439.4151,62.522-160.2676,149.7005-229.83429,252.72969-260.65499s120.641,14.9701,136.4916,37.8654c15.8507,22.8954-34.343-20.2536-36.1042-33.4624-1.7612-13.2089,45.7907-36.9849,147.9393,64.2831,102.14862,101.268,91.58152,228.07319,80.13382,374.25129-11.44773,146.1782,64.2832,269.461,63.4026,327.58-.8806,58.119-149.70052-112.7157-172.59592-112.7157s-62.522,69.5667-57.2384,84.5368c5.2835,14.97,335.39422,121.5925,365.66552,203.4166,30.2714,81.824-79.2532,346.7328-63.4026,380.4154,15.8507,33.6826,336.8262,105.0105,357.7298,105.0105s-215.074-493.3512-252.7192-527.0339c-37.6453-33.6826-287.29302-134.7304-332.86362-134.7304s59.44,150.5811,57.4586,213.9837c-1.9813,63.4025-39.6266,37.6452-41.6079,65.3839-1.9813,27.7386,57.4586-3.9627,95.10382,7.9253,37.6453,11.888,1.3209,322.2964-12.7685,361.0424-14.08953,38.746,14.0894,84.5368-7.9253,102.1486-22.01482,17.6118-103.02922-44.9101-105.67102-52.8355-2.6418-7.9253,94.2233,3.5224,118.87982,11.4477,24.6566,7.9253,36.1043,36.1043,62.522,73.9697s.4403,34.5632,69.7869,75.5107c69.3465,40.9475,91.1412,134.7305,93.7829,162.4691,2.6418,27.7386-72.6487,0-118.2193-8.5858-45.5706-8.5857-245.68502-21.1342-295.87872-18.4924-50.1937,2.6418-65.3839-42.2684-60.7608-55.4772,4.6231-13.2089,10.5671-12.5485,33.6826-9.2462,23.1155,3.3022,52.8355,12.5484,51.5146,1.3208-1.32088-11.2275-52.1751-16.511-77.27188-26.4177-25.09692-9.9066-53.49592-54.1564-46.89152-70.6675,6.6044-16.511,11.888-.6604,38.3057,7.9254,26.41782,8.5857,88.4995,31.7013,93.1226,23.1155s-150.5812-68.0257-186.2451-79.9137c-35.6639-11.888-42.2684-36.9848-21.1342-42.2684,21.1342-5.2835,233.79699,59.44,192.1891,58.1191-41.608-1.3209-169.07358-58.1191-163.79-72.6488,5.2835-14.5298,23.7759-9.9067,83.2159-7.2649,59.4399,2.6418,122.182,11.888,131.4282,25.0969,9.2462,13.2088-68.6861-33.0222-71.9883-38.9662s12.5484-111.6149,4.6231-124.8238-187.566-6.6045-225.87169,22.4551c-38.3057,29.0595,175.678,5.2835,199.45389-19.8133,23.776-25.0969,21.1342-155.8647,18.4925-247.0059-2.6418-91.1412-14.9701-327.58-14.5298-380.4155.4403-52.8354-5.7238-59.4399-39.1863-60.3205-33.4625-.8806-131.20808-67.8055-158.5065-67.3652-27.2983.4403,71.7682,72.6488,133.4096,82.7756s56.3579,5.2835,103.90982-35.664c47.55188-40.9475,121.52158-130.7678,121.52158-245.68494s38.30572-161.14816-22.4551-240.40145c-60.7608-79.2532-234.67759-74.8502-309.96809-28.1789-75.2906,46.6714-66.925,168.63319-96.4248,173.47649-29.4998,4.8433-51.51459-61.6414-83.2158-36.5445-31.7013,25.0968-29.9401,169.0735,25.9774,202.0957,55.9176,33.0221,52.3952-34.7834,39.1863-36.9849-7.7603-1.2934,2.9408,95.2386.4403,156.0848-1.9813,48.2124-17.1715,292.5765-11.888,309.748,5.2836,17.1716,139.3536,107.6523,151.902,105.0106,12.5485-2.6418,135.3909-136.7118,125.4843-131.4283-9.9067,5.2835-95.1039,102.3687-146.6185,81.895-51.51458-20.4738-93.7829-54.8168-105.0105-82.5554-11.2275-27.7387-8.7503-365.1418-33.7649-320.6036-20.9376,37.2792-23.61719,83.6754-52.3129,104.1982-69.5667,49.7534-337.26639,147.0588-354.43799,160.2677-17.1715,13.2088,87.1786,227.1925,87.1786,272.1027s-224.5508,39.6266-233.797,27.7386,56.79811-232.4761,92.4621-291.916c35.6639-59.4399,244.364-97.7457,289.27419-79.2532,44.9102,18.4924-19.8133,314.3711-36.9848,351.3559-17.1716,36.9848,36.9848-260.2147,55.4772-294.5578,18.49241-34.3431,108.3128-130.7678,132.0887-120.2007,23.776,10.5671-31.70129,322.2964-63.4026,424.0047-31.7012,101.7083-10.5671,129.4469,14.5298,136.0514,25.0969,6.6044,30.3804,480.8028,30.3804,480.8028,0,0-746.96159,17.832-766.77489-5.944-19.8133-23.7759-47.5519-493.3513-41.6079-497.3139,5.944-3.9627,812.34549-7.9253,822.25209,0,9.9067,7.9253,33.6826,439.8553,33.6826,493.3513s112.9359,144.6371,126.80521,170.3944c13.86928,25.7573-897.5427,39.6266-911.412,23.776-13.8693-15.8507-51.5146-114.9172-45.5706-120.8612s893.57999-15.8506,919.33728-35.664c25.75732-19.8133-55.4773-596.3804-69.3466-600.8935-13.8693-4.513-925.28129,2.5317-939.15059,16.4011-13.8693,13.8693,57.4586,645.9137,67.3652,651.8577,9.9067,5.944,922.85969-17.6118,933.42679-15.8507,10.5671,1.7612,227.63289,108.9732,239.52089,118.8799,11.8879,9.9066-1091.71308,19.8133-1137.28368,41.6079-45.5706,21.7946,0,303.1436,110.9545,324.9382,110.9545,21.7946,499.29529-61.4212,705.35359,5.944,206.05839,67.3652-295.21819,148.5998-212.00229,178.3197,83.2158,29.72,865.84141,69.3466,1054.06781,43.5893,188.2264-25.7573,160.4877,144.6371,328.9008,97.0852s315.0316-509.2019,330.8822-568.6418c15.8507-59.44-99.0665,528.3547-146.6184,607.608-47.552,79.2532-220.5882,93.7829-459.6687,31.7012-239.0805-62.0816-223.2299-174.357-136.0514-373.811,87.1786-199.4539,165.1109-198.133,194.1704-202.0957,29.0595-3.9626,63.4026-51.5146,63.4026-71.3279s-85.8577-59.4399-97.7456-87.1785c-11.888-27.7386-63.4026-46.2311-89.8204-29.0595-26.4177,17.1715-58.119,10.5671-85.8576,71.3279-27.7386,60.7608,27.7386,183.6033,64.7235,192.8495,36.9848,9.2462,167.7526-91.1412,220.5881-60.7608,52.8355,30.3804,48.8728,229.8343,29.0595,248.3267s3.5224-319.2143-2.6418-439.8553c-6.1641-120.641,32.5819-332.8636,39.6266-352.2366,7.0448-19.373-11.4477-52.8354-58.119-72.5217-46.6713-19.6863-129.4469-75.1975-183.6033-81.8019s-105.6709,6.6044-156.5251-16.5111c-50.8541-23.1155-96.4247-17.1715-97.0852,9.9067-.6604,27.0782,185.5846,109.6336,202.0957,118.8798s-7.9253-23.776-27.0782-38.9662c-19.1528-15.1902-109.6336-36.3244-129.4469-45.5706-19.8133-9.2462-70.007-5.2835-66.0443,11.888,3.9626,17.1715,103.0291,60.1004,123.5029,67.3653,20.4737,7.2648-58.7795-39.6267-81.2346-40.2871-22.455-.6604-31.7012,23.776-18.4924,51.5146,13.2089,27.7386,116.8985,65.3839,126.8052,62.7421,9.9066-2.6418-42.2684-48.8728-58.119-54.8168-15.8507-5.944-25.0969,15.8507-22.4551,36.9848,2.6417,21.1342,53.4959,50.8542,116.8985,68.0257,63.4025,17.1716,107.6523-8.5857,147.2789,1.3209,39.6266,9.9067,144.6371,162.4691,160.4877,174.3571,15.8507,11.888-21.7946-35.664,47.552-237.7597,69.3465-202.0957,252.2894-292.5764,346.0724-304.4644,93.7829-11.888,270.7818,375.1319,334.1844,460.9895,63.4025,85.8577,63.4025-70.007,101.7083-112.2753,38.3057-42.2684,73.9696,249.6476,130.7678,319.6546,56.7981,70.007,50.1937-95.1039,95.1038-157.1855,44.9102-62.0817,109.6336,95.1038,167.7527,171.7153,58.119,76.6114,14.5297-47.552,26.4177-91.1412,11.888-43.5893,146.6185-101.7083,163.79-216.6255s-120.2007-430.6092-203.4166-560.0561c-83.2159-129.4469-133.4096-322.2964-184.9242-560.0561-51.5146-237.7596-192.8495-344.75149-282.6698-339.4679-89.8203,5.2835-18.4924,64.7235,7.9253,77.9323,26.4178,13.2089-35.6639-79.2532-158.5064-70.007-122.8425,9.2462-280.028,133.4096-303.804,233.797-23.776,100.3874,29.0595,77.9323,63.4026,274.7445,34.343,196.8122-30.3804,253.6103-52.8355,221.909-22.4551-31.7013-17.1715-179.6406-13.2089-203.4166,3.9627-23.776-17.1715-133.4096-13.2088-145.2976,3.9626-11.8879,29.0595,0,58.119,132.0887,29.0595,132.0887,7.9253,385.699,87.1785,525.7131,79.2532,140.014,113.5963,301.1622,224.5508,594.3991s142.6558,92.4621,174.3571,68.6861c31.7013-23.7759,42.2684,95.1039,105.6709,171.7153,63.4026,76.6115,147.9394-81.895,179.6407-129.4469,31.7013-47.5519,63.4025,108.3127,105.6709,137.3722,42.2684,29.0596,84.5368-190.2077,116.2381-198.133,31.7013-7.9253-52.8355,583.832-58.119,723.8461-5.2836,140.014,134.7304,235.1178,306.4457,121.5216,171.7153-113.5963,254.9312,66.0443,254.9312,66.0443"/></g></svg>