<?xml version="1.0" encoding="UTF-8"?><svg id="_レイヤー_2" xmlns="http://www.w3.org/2000/svg" viewBox="0 0 1769.84575 1167.71877"><defs><style>.cls-1{fill:#fefefe;fill-rule:evenodd;}.cls-1,.cls-2{stroke-width:0px;}.cls-2{fill:#292929;}</style></defs><g id="Layer_1"><polygon class="cls-1" points="0 1167.71877 1769.84575 1167.71877 1769.84575 0 0 0 0 1167.71877 0 1167.71877"/><path class="cls-2" d="M315.81544,943.3184h293.58009c1.48432-35.47849,5.124-115.19339,8.7441-194.47849,4.6934-102.7774,9.3525-204.80809,9.2305-208.45019-.1241-3.7202.4091-9.05132,1.7334-12.3179.5156-1.271,1.1777-2.3018,2.0068-2.9453-.6816-.91112-1.4766-1.5606-2.2412-1.875-.3838-.1592-.7354-.2207-1.0195-.1694-.1954.0351-.378.1499-.5332.352-.35158.4639-.5704,1.2949-.5704,2.57028h-.0078v.69242c.003,3.231.0069,6.209-.5703,8.3477-.791,2.9384-2.4199,4.4765-5.7158,3.5888-.7617-.2051-1.5566-.5381-2.3555-.96192-.4687.75982-1.1914,1.18362-2.2119,1.17142-.4023-.00442-.8457-.0947-1.333-.2827.0186.34228.0293.7109.0293,1.1094,0,1.3125.0967,3.3847.208,5.81.3584,7.69288.8652,18.63188-1.5371,19.7241-1.1924.5411-3.3418.9073-5.3545.9073-1.7998,0-3.60058-.2989-4.7432-1.0264-1.4062-.8945-2.1552-4.03612-2.2929-8.2129-.126-3.9067.166-8.916.8603-13.7729.3789-2.6587,1.086-4.6651,2.0049-6.13532.4697-.751.9951-1.36818,1.5625-1.86668-2.7139-1.481-3.4551-3.4526-4.6807-6.7095-.541-1.4389-1.1943-3.17282-2.2353-5.3071-1.877-3.853-2.6055-6.8301-1.2588-10.022,1.0518-2.4922,3.3897-4.9272,7.5078-7.8686-.1523-.398-.2744-.8184-.3701-1.2564-.373-1.7138-.32808-3.7568.16892-5.748.52248-2.0908,1.56448-3.8428,2.61038-5.605,1.5078-2.5366,3.0303-5.1011,2.3701-8.4023-.6699-3.3433.9024-6.8951,2.85552-11.3081,2.16888-4.899,4.85348-10.9615,5.11618-18.5694.38282-11.1455,3.84082-14.0644,7.5644-17.2095,1.2901-1.0893,2.6182-2.20942,3.7696-3.7456,2.1806-2.9087,4.4863-6.54882,6.6133-11.4111,2.1406-4.8921,4.0996-11.021,5.5742-18.8838,1.959-10.44292,6.9765-20.3442,12.7168-31.66992,3.2109-6.33548,6.6513-13.12348,9.8857-20.66988,4.7422-11.0684,12.336-20.7696,23.1865-28.6778,1.5791-1.15132,3.2286-2.2636,4.9454-3.3369,4.3164-3.4692,7.3447-4.8672,12.8125-6.6865,6.4765-2.8096,13.6845-5.1904,21.664-7.0986,1.6045-.6221,13.7783-4.9971,9.9385,7.0092v.0074c-1.6768,5.2412-1.7207,15.4848,3.1094,24.5713,3.3086,6.2246,8.93552,11.8779,17.9463,14.9301,1.038.3506,2.0293.6548,2.9746.9126,6.4843,1.76808,12.55662,2.0293,17.93362,1.24908-1.44242.15622-2.94242.24072-4.47862.248-8.0253.03712-17.1406-2.00238-24.27338-6.92328-.80762-.5562-1.57912-1.13972-2.30662-1.7486-.541-.45312-1.042-.91112-1.503-1.3716-6.2392-6.2387-8.3955-15.5507-8.31338-24.0913.082-8.53222,2.44628-16.4165,5.207-19.7168l.00288.003c.1963-.2373.3623-.4219.49512-.5547,2.54108-2.541,3.85158-4.5049,4.39458-6.2178h.0078c.5029-1.58692.3359-3.0581-.0889-4.6553-.2334-.8789-1.0576-1.206-2.0918-1.6172-2.0254-.8037-4.5469-1.8056-6.748-5.7353-.2715-.4834-.5225-1.0186-.752-1.5947-1.3701-3.419-1.6279-7.7691-1.0976-11.4976.0888-.6284.2011-1.2436.33692-1.8379l-.72852-.5122c-3.6836-2.5791-5.1758-6.9121-5.3594-11.5049-.2363-5.917,1.7461-12.38382,3.9033-15.7744,1.9912-3.1299,2.9785-8.4013,3.8877-13.2578.583-3.12162,1.1367-6.0801,1.9404-8.3887,1.3116-3.7705,11.8389-14.6806,25.8096-21.2041,8.7422-4.082,18.8887-6.5395,29.0752-4.6425,20.7568,3.8662,22.875,11.9824,22.6562,15.7543,3.253.7916,7.23252,3.1602,10.3809,6.7461,2.9502,3.356,5.2295,7.7994,5.5859,13.0367.4151,6.09858.4473,11.8007.4795,17.4672.0245,4.4517.0489,8.88238.2705,13.5601.4004,8.4131-2.7509,10.98-4.86228,12.7002-.50872.4136-.91892.749-.97262.9053-.3291.9892-.9776,1.916-1.75,3.0176-1.2861,1.8334-2.9795,4.2504-3.4268,7.6699-.4101,3.1465-1.4277,6.1997-2.708,10.039-1.1484,3.4375-2.5127,7.52928-3.8222,12.8848-1.459,5.9668-3.7315,10.1621-7.4883,13.6484-3.6709,3.4092-8.6973,6.06008-15.74908,9.0098-7.21672,3.0181-14.30762,1.63528-18.93752.3154,2.0674,1.4297,4.7051,2.229,7.4864,2.5996,5.53812.73828,11.5547-.2138,15.03812-1.3291l.97848-.3188c2.166-.7036,3.6054-1.1733,4.8017-.8472.6104.167,1.0616.4297,1.3731.8223,4.4023-4.77592,8.4775-9.5508,10.3525-13.3018,2.626-5.2529,6.7188-6.78412,11.1416-6.4922,4.083.2696,8.3535,2.167,11.8838,3.99608,3.8887,2.01662,12.3662,11.22122,19.8877,21.43072,6.24712,8.479,11.91412,17.7344,13.8477,24.2407.749,2.52,1.667,5.4439,2.6357,8.5288,4.1494,13.21878,9.2402,29.4375,9.0313,40.0655-.0899,4.5298-.2735,8.6621-.6504,12.226l.1904.07428c.8232.34222,1.5449.90672,2.10842,1.62942,1.11328,1.42958,1.626,3.5185,1.04778,5.7119-.67278,2.5581-2.2509,10.6933-3.707,19.0918-1.1953,6.9004-2.3017,13.935-2.7451,18.145-.30268,2.87988-1.0488,5.1723-2.1016,6.853-1.0068,1.60788-2.2968,2.6787-3.7685,3.2007-1.5.5317-3.1348.4849-4.8057-.1523-1.5742-.6001-3.1885-1.7442-4.7402-3.438-5.8086-6.336-10.88768-28.1856-10.9014-28.2481l-.0254-.1513c-.0322-.22612-10.7715-78.5923-19.6845-100.1358-4.4249-10.6885-7.7559-17.269-10.4278-20.2651-1.6963-1.9029-3.0224-1.61822-4.2441.5234v.00638c-1.9336,3.38182-4.10648,7.72552-5.2461,14.01852-1.1533,6.37748-1.2686,14.7954.9375,26.3174.9512,4.9624,2.291,11.3935,3.8232,18.7549,5.8848,28.2529,14.5996,70.0879,14.1992,90.0761-.2666,13.376,2.8311,29.6465,5.3223,42.7413,2.1611,11.3564,3.8818,20.3916,2.5635,23.8154-.2959.7725-1.126,1.5381-2.4024,2.292.6944,1.1738,1.2276,2.623,1.7129,4.3467.42,1.4848.77542,3.124,1.1778,4.9765l.0918.4239c1.2812,5.8906,3.2099,22.7021,4.79682,40.0415,1.52928,16.7343,2.74218,33.9492,2.74218,42.3007,0,6.086-.57318,11.2325-1.042,15.4473-.7548,6.79879-1.206,10.8613,1.4981,11.9883.2383.0996.499.1797.7754.2383,2.331.4941,5.6718-.4063,9.0166-2.6914,1.3252-.9043,2.63672-2.0215,3.876-3.3516,2.2539-17.832,3.9169-32.5391,3.999-33.2734.01272-.1758,4.1172-47.0826,4.458-77.8189-1.0869-.1211-2.3291-.126-3.6182-.1299-5.0049-.01562-10.6484-.0342-13.6416-5.5927-1.1904-2.209-2.2392-9.27492-2.9092-17.9844-.7138-9.2661-1.04-20.5484-.6777-29.8086.3789-9.7388,1.6729-17.41992,4.3076-18.8394.3584-.1933.7393-.3081,1.1397-.3383,4.2832-.3296,7.91112,7.4633,10.873,18.038,2.7725,9.8946,5.1582,22.3179,6.91312,32.3467.751,4.2905,1.02638,11.2769.99608,19.6177,2.12692.73,3.959,1.9897,5.3564,4.0293,1.68752,2.4604,2.6719,6.022,2.6719,11.1362,0,5.2891-1.8389,25.7481-4.0771,45.77388-1.8096,16.19341-3.8828,32.129-5.46,39.56061-.4824,2.2793-1.1504,4.3887-1.957,6.3262-1.378,3.3066-3.166,6.11519-5.1582,8.4238-2.70508,21.3281-6.2168,46.77339-8.8887,58.2617-2.85638,12.2891-5.2393,41.332-7.31538,66.6328-1.52352,18.5762-2.88382,35.1465-4.169,41.7891-2.88772,14.9219-6.94532,63.7226-7.87112,74.873l-.0791.9375c-.4189,5.02929-3.2773,9.0039-7.92378,11.7188l-.002-.0039c-4.54,2.6523-10.80462,4.084-18.125,4.084-13.67382,0-17.35052-1.084-23.51462-2.9004l-.5811-.1719c-1.1796-.3477-2.1562-.4824-2.9511-.4082,4.9629,2.1523,9.8281,3.6777,14.2256,4.6367,5.2529,1.1445,9.7968,1.4766,12.997,1.1016.0977-.0137.2256-.0235.3741-.0313,3.7353-.209,6.95212,3.0645,9.3046,7.375,2.1719,3.9727,3.6719,8.9024,4.0987,12.5352.0459.3945.082.7949.1035,1.1972.0107.2071.0166.3614.0166.4688,0,.5371-.0508,1.0625-.1475,1.5742,14.36622-.35551,40.7617.4863,40.8633.4902l.8174.0274.4844.6523c.0166.0215,5.6025,7.8125,19.74312,7.8125.96978,0,1.96778-.0371,2.99028-.1074-4.6631-.6133-11.07428-2.0332-15.7061-4.3496-1.915-.957-3.5527-2.0742-4.6973-3.3613-1.3017-1.4668-1.999-3.1465-1.8251-5.0567.0761-.83.32122-1.6836.7597-2.5605,2.8526-5.7031,9.1426-9.2188,14.10552-11.9902,2.57028-1.4375,4.74608-2.6524,5.54588-3.6719,1.667-2.1211,3.5928-3.8906,4.9277-5.0117-1.1963-1.4551-2.4385-4.0977-2.2842-8.7442.042-1.2812.1954-3.65041.4053-6.9082,1.1406-17.6738,3.9609-61.4121-.417-81.4336-5.2451-23.9844-1.6318-47.1074,2.0928-70.9433l.14352-.9121c.69438-4.4454,1.39068-8.377,2.09278-12.334,3.4278-19.3223,6.9668-39.28321,3.8858-75.0137l-.2705-3.1543c-3.5206-40.8184-4.2344-49.1133-4.2344-66.7285,0-18.1206,2.2627-32.4566,2.2705-32.4981l.0381-.1845,1.4013-5.1787c-2.2295-5.6592-21.7841-56.066-18.8935-76.316,1.1055-7.7338,3.0224-19.18842,5.1533-31.9248,3.6563-21.8491,7.9463-47.4824,9.8389-64.5053,1.7031-15.3462,6.7734-34.38532,12.4179-45.7071,1.7872-3.583,3.6602-6.4448,5.5401-8.2505,1.667-1.5986,3.3721-2.4345,5.081-2.332-.0859-3.6826.4336-6.8642,1.8448-9.1221,2.6045-4.1655,8.6162-8.2412,15.415-11.6411,8.8223-4.4106,19.0772-7.7597,24.7568-8.6338,5.2588-.8081,11.7559-2.6186,17.0459-4.0932,4.5567-1.27052,8.2539-2.2998,9.8233-2.2998,2.04293,0,2.8428,2.291,3.5078,6.0385-.251-6.34222,1.12213-10.3149,1.7158-11.7133-.2754-1.2217-1.1064-4.2686-2.6474-4.6533-3.1758-.793-3.1719-3.6265-3.1641-7.5171.0029-1.7408.0049-3.7583-.3418-5.8413-.168-1.0059-.375-2.1104-.5938-3.2803-.6787-3.6157-1.47257-7.8438-1.47257-10.8198,0-3.0572.84567-5.1148,3.23137-5.1148,1.0742,0,2.0752.2412,2.9629.4551.59573.1431,1.1153.2685,1.2744.2392.2315-.041-.4336-.2807-.6464-1.456-.2471-1.3623-.2198-2.8081.0332-4.2598-3.0596.3106-5.3702.0274-6.6426-1.4267-1.959-2.2393-2.3574-5.9493-1.7871-9.9864.6328-4.4843,2.4609-9.5053,4.5957-13.208,1.915-3.3174,5.7519-6.1591,10.74903-8.5742,5.6338-2.7246,12.8037-4.9541,20.3223-6.7314,6.7431-1.5909,13.9531-1.8955,21.041-1.2198,7.7187.7359,15.2939,2.6368,21.9599,5.3028,6.5967,2.6377,11.5918,7.2285,15.5518,13.08588,3.8769,5.73542,6.751,12.69042,9.1719,20.207,4.0947,12.71392-.8975,16.28082-5.1934,17.66412-.8965.2891-1.7178.46088-2.4092.6065l-.624.1352c-.9727.2251-2.1006.8071-3.165,1.4756,1.1777.3735,2.1611,1.1265,2.4463,2.5493.3837,1.9199-.252,3.814-1.6163,7.8765-.8408,2.5053-1.9882,5.9179-3.415,10.9121-3.0537,10.6875-9.1963,10.5688-12.0703,9.84568-.7412,1.46632-2.0479,4.30962-3.5117,8.63332.3281-.3086.6953-.5928,1.1045-.8467,2.3603-1.4604,6.0517-1.7471,12.0781.0342,5.5605,1.6426,13.5869,4.1074,20.9834,7.5527,7.5879,3.5342,14.5566,8.1279,17.7617,14.0054,1.4336,2.6294,2.0547,5.1704,2.0869,7.7085.1504.0591.2989.124.4463.1953,1.3399.6562,2.2998,1.7769,3.1699,2.7939l.3477.4043c1.3447,1.53908,2.5117,3.78808,4.1631,6.9717,1.8564,3.5772,4.3506,8.3858,8.3554,14.5962,7.5879,11.7505,25.5313,61.0874,25.6622,61.4414.0117.02978,3.9804,10.8609,12.3007,18.4536,6.8467,6.2525,5.8594,11.15818,4.7364,16.7471-.3936,1.95508-.8067,4.0078-.8067,6.24508,0,3.35842.9268,4.98292,1.958,6.794,1.4463,2.53562,3.0674,5.37892,3.2813,12.28122.1924,6.249-.3047,8.8643-.6953,10.9151-.336,1.7724-.584,3.0698-.0723,6.5058.5039,3.3516-.3603,7.4507-1.7959,11.4668-2.0332,5.6846-5.2451,11.2988-7.2334,14.2012-.3262.477-.6885.9126-1.0791,1.3037l-.0029-.0034c-1.8858,1.8838-4.6094,3.0278-7.4678,3.3452.8887,1.3979,1.7012,2.8125,2.3506,4.1753v.0073c3.8672,8.1309-5.1973,16.2676-5.2227,16.291-.2783.2632-2.6455,2.4951-5.4375,4.55178.5323.42232,1.0117.97122,1.4307,1.69142,1.4082,2.4355,1.2314,5.0879.9707,8.998-.1406,2.1241-.3076,4.6553-.25,7.6534.1357,6.96918-1.2139,8.2006-3.8311,8.2509-.4951.0098-.9355-.041-1.4169-.0966-.4366-.0503-.92-.1065-1.4327-.1065-2.1015,0-3.7812-.4683-5.0097-1.6689-1.2129-1.1836-1.8487-2.9488-1.8487-5.5205,0-.8375-.04-1.78522-.0849-2.8829-.0694-1.6948-.1514-3.7041-.1514-5.5097,0-3.8828.3857-7.6963,1.9258-9.51762-.3799-.08588-.7686-.18648-1.1611-.30758-1.2491-.3838-2.0235-.9082-2.4131-1.5586-.6426-.0864-1.294-.2354-1.9502-.4531-2.4024-.8013-3.7549-1.9112-4.3545-3.2442l-.1231-.0117c-3.0966-.3203-5.0341-1.7959-6.1006-4.2603-.0595-.1362-.1152-.2749-.1679-.4174-1.5928,2.2636-2.5889,4.8408-2.8731,5.625-.0673,9.9384-2.205,321.67529-3.1904,396.94479h338.9229v3.3808h-338.9688c-.1016,7.2637-.1894,11.711-.2598,12.6758-.2558,3.47849-.0947,6.1348.0254,8.125.0762,1.2832.1416,2.3614.1172,3.2617.2158.2774.4082.5782.5772.9004.5752,1.1036.8418,2.4356.9004,3.8516.1162,2.7715-.5635,5.9551-1.1836,8.1875-.1192.4316-.2754.834-.4629,1.209-1.0176,2.0312-2.7998,2.9648-4.6563,3.293-1.6582.2949-3.3916.0703-4.5732-.2559-.4629-.1289-.8692-.2852-1.1807-.4395-1.1992-.6015-2.1709-2.3925-2.7861-4.6855-.5528-2.0586-.8994-4.6387-.8994-7.0684,0-3.5312,1.334-4.5078,3.6445-4.6523-1.9512-1.0293-2.4102-2.4102-2.4111-2.416l-.0948-.2715.1329-21.7149h-51.253c.6455,3.5411.8467,7.3926.4951,11.0918-.4082,4.2774-3.5019,8.2696-7.7334,11.334-4.4961,3.2559-10.3486,5.52149-15.5566,5.93749-.7607.06251-1.543.09181-2.332.09181-4.7256,0-10.2588-1.0742-14.7373-3.4746-4.6914-2.5117-8.2491-6.45121-8.6993-12.0996-.0332-.4043-.0488-.8027-.0488-1.1992v-11.0567h-62.30962c-1.7324.8985-3.7773,1.6426-6.1787,2.3086-1.999.55469-4.747,1.4532-7.9257,2.4922-10.6875,3.4942-26.22068,8.5723-38.01568,8.5723-13.28122,0-20.05172-6.4277-21.91212-8.5293-4.6748-.14451-29.8203-.9004-41.248-.7363-1.0918,1.71479-2.7813,3.2187-4.919,4.455-3.6093,2.0899-8.5615,3.4395-14.0136,3.7422-.8282.045-1.6172.0684-2.36528.0684-4.91892,0-8.87792-.7246-12.00972-1.75-4.1729-1.3652-6.90428-3.2793-8.5157-4.7481h-54.0537c-2.3144,1.7208-4.2861,2.5879-4.2998,2.5938l-.334.1523h-97.1347l-.42,12.0957c.0625.7227.26862,4.6934-2.5273,7.4903l-.0039-.0039c-1.28518,1.2832-3.8398,2.2148-6.416,2.3535-1.21.0644-2.4561-.0391-3.6084-.3535-1.2383-.33791-2.3682-.91991-3.2481-1.79891h-.0058c-1.0098-1.00969-1.668-2.36909-1.7627-4.13859-.0381-.6953.1631-6.2657.54882-15.6446h-293.44041v-3.38081h0ZM612.76463,943.3184h10.6797c2.5771-74.461,13.582-392.69828,13.582-397.81738,0-2.62062-.68648-6.3325-1.68848-9.958-.73342-2.6567-1.62982-5.24762-2.54292-7.3135-.1905.2837-.378.6616-.5606,1.1104-1.1494,2.8344-1.6074,7.5883-1.4961,10.9438.126,3.7866-4.5361,105.8706-9.23138,208.70268-3.61922,79.27531-7.25982,158.98241-8.74222,194.332h0ZM626.81543,943.3184h66.2392c-.7832-.86919-7.6787-8.83989-4.0097-15.98829,1.1113-2.1699,2.21092-3.8359,3.1455-5.252,1.6367-2.4824,2.665-4.041,1.9306-6.0781-.8544-2.3789-.8896-12.38861-.9306-25.1035-.041-12.1953-.0908-26.9238-.833-39.5195-.1455-2.502-.3174-5.5039-.4961-8.668-1.4649-25.7402-3.583-62.97661-8.48148-94.1543-4.334-27.5801-5.57132-42.1035-6.38672-51.6719-.2305-2.7168-.4307-5.0488-.624-6.9023-.23728-2.2559-.6309-4.3203-.9639-6.0859-.5332-2.8047-.9365-4.9336-.4511-6.4883.748-2.3965,2.7001-3.0782,7.09172-1.7071.65828.2071,1.39558.3047,2.18658.3047,3.0849,0,6.81442-1.4961,10.1416-4.082,3.3711-2.6172,6.2783-6.3262,7.6455-10.7012.5312-1.7011.831-3.5117.831-5.4062,0-5.959,2.2022-19.6934,4.7627-35.6602,3.5244-21.9765,7.7344-48.227,7.7344-63.8198,0-11.5112,2.6416-34.1279,5.5127-58.7354,3.8926-33.3413,8.2148-70.3564,6.9297-87.92572-1.9336-26.42388-1.6524-67.86138-1.53518-85.20948.01568-2.2891.02738-4.0479.02738-6.4024,0-4.206-.3106-6.5625-1.626-7.2543-1.5645-.8233-4.8105-.17682-10.6016,1.6757-2.3759.7608-3.0449.9717-3.6591,1.1661-1.836.5791-3.4229,1.081-4.8389,1.5527-4.3135,1.8808-8.2822,3.956-11.9209,6.2119-.4815.3862-.9766.7993-1.4961,1.2441-4.4482,3.8125-3.7539,16.4668-3.0039,30.1309.2939,5.3765.5976,10.9043.5976,16.0791,0,5.1719.39952,12.5146.8438,20.7041,1.0439,19.2163,2.335,43-.6934,54.1895.20712.0488.41312.102.6182.1616,2.7412.7993,5.1963,2.5923,7.126,5.4809,2.8164,4.2178,4.5156,10.8389,4.2822,20.1861-.4736,18.9526-4.5215,53.9926-9.1455,76.4292-1.3066,6.3457-2.667,11.7109-4.0147,15.4599-1.62008,4.5078-3.5146,6.9737-5.6865,6.605-.3095-.0522-.6113-.1597-.9033-.3208-1.2119-.67382-2.3926-1.0889-3.4805-1.1216-.8095-.0244-1.58978.1695-2.3134.6372-.8067.522-1.5762,1.3872-2.2871,2.668-1.9737,3.5537-3.3497,9.9424-3.6651,20.3872-.2695,8.8809.7471,22.4238,1.7529,35.8399,1.4463,19.3027,2.8741,38.3457.3663,43.8613-.9903,2.1797-2.4541,2.9648-4.4971,2.0371h-.0069c-4.56638-2.0781-7.4707-5.3906-9.2285-10.1465-1.6718-4.52341-2.2617-10.3301-2.2617-17.6406,0-2.4942-.0215-4.7676-.0469-7.5664-.207-22.0528-.6875-73.3775,4.5743-102.9663,3.2168-18.0987,7.83-39.0244,12.5068-56.0469,3.874-14.104,7.8164-25.5591,11.0937-30.5986-.538.1259-1.082.29-1.6289.4941-3.9716,1.4844-8.0468,4.9814-11.3955,10.1167-5.5908,8.5747-10.3183,16.32758-14.0644,23.561-3.7198,7.18358-6.4639,13.8369-8.11328,20.2535l-.23342.9096c-1.667,6.4951-2.4893,9.6978-4.7363,10.5152-2.3135.84128-4.57028-1.1519-9.0205-5.0831l-1.127-.99362-.0019.00392c-4.3711-3.8467-8.1504-5.6826-12.0196-5.7241-3.1387-.0337-6.4541,1.0923-10.2881,3.2661,2.4727-.9844,5.5733-1.6885,8.7383-1.8184,3.2549-.1338,6.6153.335,9.5049,1.7168,3.18362,1.5225,6.6221,4.503,9.4092,8.0352h.0058c2.6329,3.3379,4.7217,7.2163,5.5059,10.8799.7383,3.4428.9512,8.1914.2715,11.01658-.2803,1.16842-.7354,2.11422-1.3906,2.70362-.9629.8657-2.1084,1.0347-3.4483.2632-.5478-.3155-1.1465-.8477-1.793-1.63282.9405,3.60542,1.5674,7.23732,1.5674,9.91062,0,4.898-11.0078,323.12599-13.5937,397.81738h0ZM623.32713,946.69921h-10.7041c-.3828,9.2989-.584,14.8125-.5479,15.4727.0459.8437.3379,1.4707.7852,1.918l-.0039.0039c.4453.4433,1.0576.748,1.7539.9394.7813.2129,1.666.2813,2.5498.2344,1.7979-.0977,3.47272-.6387,4.2012-1.36721v-.00579c1.915-1.9161,1.5527-4.7989,1.5517-4.8067l-.0058-.2578.4199-12.1309h0ZM727.35153,940.57231c2.3926-1.9668,4.86332-4.9102,5.03032-8.75591.13768-3.16789.82808-6.17579,1.43358-8.80469.3867-1.6855.7373-3.2089.8525-4.3886-3.3887.373-7.2529.584-11.6318.584-11.9707,0-19.3926-1-22.6338-1.875-1.2012-.3262-2.0166-.7129-2.4287-1.09971-.1426-.13279-.2715-.26359-.38578-.39059.74028,3.043-.58592,5.0528-2.58392,8.086-.8887,1.3437-1.9327,2.9277-2.961,4.9355-2.3174,4.5156,1.67192,9.9766,3.1016,11.709h32.207ZM735.74903,931.96101c-.1514,3.4961-1.70018,6.3671-3.6201,8.6113h51.7548l.4952.49409c1.2324,1.23051,3.5722,3.02741,7.4453,4.33991l-.02738-.0137c-3.63472-1.8184-7.11132-5.99221-9.68062-10.8398-2.6407-4.9786-4.378-10.7422-4.378-15.4082,0-3.545.3838-6.3184,1.2705-8.334-7.2548-6.334-8.2714-21.2227-9.4423-38.4258-.3418-5.0391-.7002-10.2832-1.2159-15.44141-1.7451-17.44529-2.2744-72.63669-2.6045-106.97269-.1425-14.9336-.247-25.90231-.4013-28.0488-.08688-1.2188-.2451-2.8848-.4512-5.0488l-.4199-4.4453c-2.1279,21.8339-4.7529,49.3847-4.7529,62.3652,0,6.6641-.79988,28.2637-1.6807,52.06639-1.3164,35.57811-2.8164,76.11331-2.127,78.73051.1221.4687.1875.9414.1875,1.414,0,1.9434-1.0058,3.98249-3.26168,5.8086-1.998,1.6172-5.04392,3.1114-9.331,4.2403-1.62212.4257-3.42872.80459-5.43172,1.1191-.0097.2227-.0244.4492-.0459.6836-.1328,1.459-.5097,3.0937-.9267,4.9101-.5733,2.4961-1.2305,5.3516-1.3545,8.1954h0ZM733.93653,913.08991c1.7812.1621,2.8799.7793,3.4941,1.76749,1.9356-.30069,3.6709-.66009,5.2197-1.06639,3.7959-1,6.4161-2.2617,8.06252-3.5937,1.38678-1.1231,2.00488-2.2324,2.00488-3.1934,0-.1992-.0224-.3847-.0664-.5566-.81348-3.08991.6953-43.8926,2.02252-79.707.872-23.6133,1.666-45.043,1.666-51.9473,0-13.7051,2.92478-43.6699,5.11028-66.0762.5352-5.48241,1.0264-10.5156,1.4034-14.5605l.122-1.3203c-.7011-12.1387-1.0576-26.4532-.1289-40.1329,1.3233-19.5351,3.751-35.1875,5.5401-42.5878.4072-1.6856.791-2.9747,1.1269-3.8164.8496-2.1211,1.9854-2.7188,3.3535-1.668.3672.2793.6299.6894.7862,1.2324.873,3.0547-3.0244,43.03709-5.6914,70.3965-.6348,6.5195-1.2012,12.3242-1.6075,16.6191.5752,9.8653,1.377,18.27349,1.8926,23.6778.2246,2.34369.3965,4.1445.46682,5.1289.14938,2.1113.25688,13.1836.40038,28.25779.3291,34.26561.8584,89.33981,2.5918,106.66991.5332,5.3496.8877,10.5508,1.2285,15.5488,1.1094,16.3008,2.07032,30.4004,8.0967,35.9297,1.7861-1.4219,4.2275-1.65041,7.4941-.68941l.5821.17181c5.85642,1.7266,9.3496,2.7559,22.56342,2.7559,6.73538,0,12.41118-1.2656,16.42388-3.6113v-.0059c3.6797-2.1523,5.9404-5.2324,6.2607-9.0781l.0781-.9395c.9288-11.1757,4.9952-60.0996,7.9229-75.2285,1.2471-6.4433,2.6006-22.9316,4.1172-41.4199,2.084-25.4063,4.4775-54.5703,7.3935-67.1191,2.4776-10.6485,5.6934-33.5,8.3028-53.8008-.4346.3418-.875.6621-1.3145.9629-4.1211,2.8144-8.4414,3.8789-11.6181,3.205-.48148-.10151-.94048-.2421-1.3711-.4218-5.043-2.1016-4.48638-7.1035-3.5577-15.4746.4581-4.1075,1.0157-9.12311,1.0157-15.0782,0-8.3437-1.2012-25.4257-2.7159-41.998-1.5712-17.1763-3.4814-33.8184-4.7441-39.6304l-.0928-.4238c-.3955-1.8272-.747-3.4429-1.124-4.7793-.4394-1.5635-.9629-2.8018-1.7637-3.6997-5.42088,2.1352-14.1445,4.1221-24.0908,5.7905-18.8047,3.1524-42.2314,5.4453-55.2617,5.4453-11.0723,0-18.4141-1.1181-21.7002-2.3222-1.3096-.4825-2.1826-1.0767-2.5928-1.7246-.8613-1.3624-.4853-2.5088,1.169-3.3291,1.207-.5987,3.751-1.0035,7.626-1.0035,13.9433,0,57.2685-.0005,76.5302-5.434,10.9658-3.0918,16.4248-3.4893,19.5557-1.28912.7236-.40718,1.17672-.80368,1.3232-1.186.9717-2.52148-.6709-11.149-2.7343-21.99168-2.5206-13.2354-5.6495-29.6807-5.376-43.4278.3926-19.5908-8.2774-61.2138-14.1338-89.3242-1.5537-7.4639-2.9131-13.9854-3.835-18.8066-2.2929-11.97272-2.1591-20.8028-.9375-27.5469,1.2344-6.8286,3.5625-11.4854,5.6289-15.1011l.003.0015c2.7724-4.8516,5.7959-5.4717,9.6963-1.0987,2.9257,3.2832,6.4443,10.17,11.0214,21.2286,8.917,21.5546,19.4844,97.8847,19.8946,100.8584.2734,1.16548,5.0381,21.1831,10.083,26.68648,1.1738,1.28122,2.3496,2.13082,3.459,2.55272.9052.3447,1.749.3858,2.4804.126.7608-.2686,1.4561-.8711,2.0391-1.8008.7861-1.2544,1.3516-3.0591,1.5996-5.4131.4561-4.3457,1.5723-11.4497,2.7715-18.3691,1.4658-8.4629,3.0732-16.72072,3.7744-19.3828.2891-1.104.0615-2.1153-.45508-2.7798l-.12112-.1426-.1035.5942c-.8721,4.74128-2.3701,8.0777-4.8633,9.4795-3.99408,2.2452-5.5263,1.354-5.1484-2.0844.1738-1.564,1.3252-4.1773,3.1699-7.6021,1.1768-2.1865,2.60842-3.4385,4.042-3.9839.3955-3.5366.585-7.7143.6758-12.3305.1982-10.0557-4.8066-26-8.8867-38.9952-.9434-3.0127-1.8399-5.8662-2.6485-8.5815-1.8105-6.0962-7.2793-14.98-13.333-23.1978-7.2529-9.8471-15.2363-18.624-18.7109-20.4257-3.2207-1.67-7.0752-3.3975-10.5508-3.6275-3.1377-.2075-6.0459.8853-7.918,4.63038-2.4004,4.79782-7.7802,10.79982-13.1533,16.51762-.3056,1.5512-.8135,3.4941-1.4736,5.9179-.0889.3194-.1748.60448-.2568.8511-1.88478,5.5601-7.38378,10.9903-15.2256,14.2105-7.6885,3.1562-17.6787,4.2265-28.7256,1.2138-1.085-.29592-2.14358-.6181-3.1738-.9668-9.9532-3.3715-16.17878-9.6357-19.8497-16.541-5.2968-9.9658-5.206-21.332-3.332-27.1865,1.8877-5.9102-5.6133-2.80962-5.6338-2.8008l-.2451.086-.1016.0244c2.252,1.6093,2.8096,4.75578,2.8096,9.8549l-.041,6.4166c-.11818,17.2792-.3975,58.5546,1.5342,84.9575,1.30762,17.8803-3.0332,55.0591-6.94238,88.5454-2.85842,24.4897-5.48632,46.998-5.48632,58.3535,0,15.7935-4.2383,42.2222-7.7871,64.3491-2.5313,15.791-4.711,29.3731-4.711,35.1309,0,2.2363-.3545,4.3847-.9873,6.4101-1.5889,5.084-4.9326,9.3633-8.7949,12.3653-3.9092,3.0371-8.40238,4.7949-12.2158,4.7949-1.1162,0-2.1895-.15041-3.1895-.4629-2.0263-.6328-2.793-.7461-2.8662-.5117-.2353.7558.0996,2.5293.542,4.8633.3467,1.8203.749,3.9472,1.0039,6.3632.2354,2.2422.4219,4.4239.6387,6.9688.8154,9.5801,2.0556,24.1172,6.3467,51.4355,4.9316,31.3809,7.0537,68.69139,8.5195,94.48439.1699,2.95311.3271,5.74611.499,8.65431.73932,12.584.7891,27.4258.8301,39.7168.0371,10.9356.0664,19.8145.5293,23.00589.3066-.44729,1.0068-.78909,2.0996-1.01179.96-.1953,2.9394-.1796,5.8232.2051,6.7979.9063,14.0606.5,19.8829.1739,3.6855-.2071,6.8115-.3829,9.0449-.1797h0ZM765.71773,664.51561c1.4688-15.1425,3.0518-31.82221,3.9756-43.36521-1.3017,8.11131-2.6201,19.09961-3.47948,31.77741-.26072,3.832-.41892,7.7168-.49612,11.5878h0ZM782.10933,912.80861l-.2344-.1113c-.5263,1.498-.7558,3.6504-.7558,6.4473,0,4.1269,1.581,9.3085,3.9814,13.8359,2.2705,4.2812,5.2276,7.9141,8.2012,9.4004,2.3008,1.1504,6.0918,1.2344,9.9697.8301,6.21-.6504,12.3496-2.4649,13.3487-3.2637.4404-.3516,2.455-.58591,5.4394-.7324.1992-.5508.3037-1.1192.3037-1.7012l-.0029-.2832c-.0176-.2949-.0469-.6309-.0908-1-.3838-3.2695-1.7393-7.7149-3.7022-11.3066-1.7773-3.2559-3.9726-5.7403-6.1611-5.6192l-.1689.0176c-3.5459.416-8.4834.0703-14.1026-1.1543-4.9385-1.0762-10.4394-2.8359-16.0254-5.3594h0ZM817.73433,943.72271c.7227-.418,1.376-.8692,1.9492-1.3477-.5283.0547-.8642.1211-.9648.2012-1.2881,1.03119-8.3252,3.2793-15.1035,3.9883-1.9795.207-3.9629.291-5.8145.1855,1.5909.2031,3.335.3203,5.24612.3203.78418,0,1.51168-.0195,2.18068-.0566,4.9248-.2734,9.3428-1.4609,12.5068-3.291h0ZM685.76753,352.97372c-.5615-10.2476-1.09568-19.9605.6455-26.5122-9.1367,7.2006-15.6396,15.831-19.8134,25.5693-3.2784,7.6494-6.7442,14.4868-9.9786,20.8682-5.624,11.0996-10.5419,20.8017-12.4111,30.77238-1.5244,8.13382-3.5654,14.50442-5.7998,19.61042-2.2461,5.1342-4.6924,8.99358-7.0088,12.0844-1.39648,1.8628-2.8613,3.09918-4.2842,4.3003-3.1347,2.6475-6.0459,5.1045-6.3769,14.7393-.2861,8.289-3.10938,14.6689-5.3926,19.8242-1.7139,3.8711-3.09278,6.9863-2.63178,9.2876.91308,4.564-.94242,7.6885-2.77932,10.77978-.9209,1.55082-1.8369,3.09372-2.2393,4.70652-.3711,1.481-.4111,2.9717-.1465,4.2007,5.543-3.581,10.2207-5.4619,14.8028-5.4126,4.7529.0518,9.2236,2.1538,14.2236,6.5562v.0068l1.1299.9966c3.4502,3.04778,5.2012,4.5942,5.6387,4.436.57912-.2109,1.2539-2.8423,2.624-8.1777l.2334-.9092c1.7226-6.7041,4.55372-13.5859,8.376-20.9678,3.7968-7.331,8.58-15.1767,14.2373-23.8506,3.7519-5.75292,8.4218-9.7094,13.0459-11.4375,1.5712-.5869,3.1406-.9218,4.6757-.9873,3.0606-9.70212,1.7354-34.1357.6709-53.7138-.45108-8.3184-.8554-15.7774-.8554-20.876,0-5.2324-.2979-10.6367-.586-15.894h0ZM688.72753,446.96152c-.2549.5214-.5274.9892-.8242,1.3896-3.1201,4.23728-7.10348,15.7588-11.0821,30.2402-4.6279,16.8535-9.2138,37.6709-12.4267,55.7422-5.2178,29.3487-4.7403,80.4165-4.5362,102.35788.0352,3.58791.0606,6.47461.0606,7.59381,0,6.9355.5371,12.3769,2.0527,16.4785,1.4297,3.8672,3.7774,6.5566,7.458,8.2305.0567.0214-.0586-.1582.0274-.3457,2.1523-4.7364.75582-23.3536-.65818-42.2246-1.00982-13.4629-2.03032-27.0567-1.75392-36.1817.33492-11.0395,1.872-17.9409,4.0888-21.9336.9932-1.7876,2.1407-3.0434,3.3955-3.8564,1.3379-.8657,2.76662-1.2232,4.2432-1.1782,1.627.0488,3.27542.5913,4.8945,1.4711.2823-.1469.958-1.7461,1.9131-4.4018,1.2881-3.584,2.6045-8.7935,3.88382-14.9976,4.58988-22.2788,8.61038-57.0449,9.07908-75.8344.21392-8.5987-1.2617-14.5567-3.7158-18.232-1.4648-2.1938-3.2764-3.5405-5.2627-4.1206-.2754-.0791-.5537-.1455-.8369-.1972h0ZM606.59085,507.93072c-3.58692,2.5474-5.57422,4.5439-6.37212,6.435-.8672,2.05468-.2598,4.254,1.1934,7.2354,1.083,2.2212,1.7783,4.0664,2.3525,5.5972,1.03322,2.7465,1.61622,4.2964,3.8066,5.2592.9297.4097,1.7754.6773,2.4912.9034l.1543.0493c.25.01318.501.0376.75.0727.7657.1094,1.5264.3243,2.2627.6211-2.3974-2.2422-4.22458-4.8047-4.34858-6.1128-.083-.9253.21-1.7046.77048-2.268.4492-.4522,1.0449-.73,1.7256-.7969.5488-.0537,1.1523.0303,1.7598.2773,1.2246.501,2.6084,1.7344,3.6172,3.9356.7148,1.5576,1.33692,3.3017,1.6416,4.7934,1.0097.6729,2.0195,1.1949,2.9287,1.439.874.2354,1.331-.2685,1.583-1.19922.4697-1.74418.4677-4.49318.4648-7.47558l-.001-.69242h-.0078c0-2.06588.4873-3.58638,1.2735-4.61718.6914-.9091,1.5976-1.435,2.6172-1.6201.9316-.1689,1.9248-.0332,2.8974.3672,1.5986.6582,3.207,2.0732,4.35652,4.0122.11228.19.22358.3887.33688.5972.0947.0459.1904.09568.28612.1504,1.27538.7212,2.667,2.3379,4.16208,5.15328,1.1826,2.22312,2.0733,3.49322,2.7256,4.04692.0615-.1631.1201-.3716.1807-.6172.5654-2.3604.3554-6.482-.2989-9.5371-.6699-3.1319-2.5156-6.5235-4.8574-9.4937l.00292-.0034c-2.48432-3.1489-5.48822-5.7759-8.21772-7.0801-2.3477-1.123-5.1582-1.5-7.9209-1.3872-3.3555.1377-6.5899.9946-8.8477,2.1235-1.0068.503-1.9502.7247-2.8203.7134-1.0215-.0136-1.9062-.3296-2.64838-.8818h0ZM611.19923,539.66952c0-2.0518-.4903-2.5069-1.5547-2.8887-.4336.0205-.8526.1113-1.2461.2847-.6533.2885-1.2705.8266-1.8047,1.6811-.6846,1.0947-1.2227,2.666-1.5313,4.8272-.6679,4.6875-.9531,9.4838-.832,13.1918.1006,3.0992.3487,5.2344.73342,5.4795.53908.34328,1.68458.4844,2.93358.4844,1.583,0,3.1748-.2436,3.9678-.603.3154-.1445-.1299-9.74812-.44238-16.502-.12012-2.57912-.22362-4.7822-.22362-5.955h0ZM790.30563,349.47812c4.9404-2.80772,8.3496-6.587,9.6387-10.3941.0859-.2544.1543-.4722.2031-.6538l.0147-.0479c-3.2657,3.4659-6.1387,6.6099-7.751,8.9473-.1504.2197-.3057.4229-.46.6069-.4551.54588-1.0088,1.0611-1.6455,1.5416h0ZM802.39943,331.10312c-.2188-.0542-1.2793.291-2.8692.8076l-.9931.3174c-3.8262,1.2265-10.4288,2.2724-16.5039,1.4619-4.4913-.5987-8.7403-2.2051-11.5372-5.4683-1.9863-2.3174-2.3515-3.6587-1.19618-4.6479.95888-.8228,2.28118-.4063,4.32418.2363,3.8984,1.2251,11.541,3.6274,19.0019.5068,6.6953-2.7993,11.418-5.2724,14.7461-8.3623,3.2432-3.0107,5.21882-6.6904,6.50982-11.9707,1.334-5.4599,2.73048-9.6421,3.90228-13.1567v-.0064c1.22372-3.667,2.1953-6.584,2.5635-9.4048.5518-4.2348,2.5166-7.03562,4.0068-9.1621.6202-.8862,1.1446-1.6323,1.3145-2.146.3672-1.0991,1.1172-1.7104,2.041-2.4629,1.583-1.289,3.9424-3.2109,3.6231-9.9267-.2227-4.6597-.2481-9.17192-.2725-13.7061-.0293-5.5522-.0615-11.1396-.4775-17.25582-.2998-4.416-2.24318-8.18358-4.753-11.04248-3.1855-3.62552-7.1924-5.7603-9.8838-5.8828l-2.3447-.106.8457-2.1855c.0108-.0244,3.7422-8.8579-19.7275-13.2295-9.4063-1.752-18.8574.5566-27.042,4.3779-13.1514,6.1416-22.9014,15.9546-24.0537,19.2627-.7139,2.05368-1.2471,4.8994-1.8086,7.9004-.9639,5.1558-2.0117,10.7524-4.3613,14.4458-1.8702,2.938-3.584,8.5981-3.375,13.83348.1435,3.59182,1.2148,6.92332,3.83,8.81252.72372-1.5684,1.6573-2.77252,2.751-3.3838.1406-.0796.30572-.1572.4961-.2334,1.0977-.4419,1.30862-3.0308,1.6865-7.666.3535-4.3399.835-10.2354,2.5459-17.8804,1.961-8.7627,5.7031-15.2485,11.78322-20.2768,5.99028-4.95412,14.20018-8.4307,25.18748-11.2412,19.125-4.8907,28.77052,7.2495,31.4014,11.32608,1.5605-.42478,4.1055-.69238,6.6426.86872,2.01752,1.2422,3.8213,3.8618,5.27152,8.1167,1.25088,3.666,2.28608,8.6474,3.01948,15.1343.9658,8.5278,1.2109,17.50528.2168,22.8032-.27928,1.4887-.6651,2.7363-1.1729,3.666-.68938,1.2637-1.623,2.0215-2.8242,2.1577-.3096.0347-.6289.023-.957-.03862-3.9317-.73818-4.75-6.57908-5.8477-14.43208-.457-3.2632-.9677-6.9106-1.7422-10.62792-.7851-3.77788-2.2949-6.27788-4.0771-7.72118-.8526-.6909-1.7715-1.1362-2.6983-1.3599-.9111-.2192-1.8378-.2256-2.7246-.0415-1.4511.3028-2.7959,1.1187-3.7871,2.3438-2.3525,2.9072-6.122,5.9404-10.8496,8.5654-4.248,2.3603-9.2949,4.4092-14.80758,5.7559-5.28522,1.291-8.84282,3.144-11.65922,6.1909-2.88278,3.1181-5.1074,7.5918-7.6611,14.0385h-.0059c-2.7754,7.001-4.67178,10.37208-6.3506,11.3858-2.7119,1.6396-4.2451-.3696-5.98918-4.0313l-.15242-.3291c-1.7109-3.5957-2.3125-4.8579-5.788-7.5459l-.0147.0928c-.456,3.2227-.25488,6.9321.8848,9.7813v.0068c.1601.3984.3486.7969.56932,1.1914,1.62308,2.8965,3.52148,3.6504,5.04588,4.2559,1.91312.7597,3.4385,1.3662,4.1113,3.8886.5743,2.1504.7813,4.1812.0371,6.5284l.0059.0019c-.7051,2.2227-2.2705,4.6348-5.2275,7.5928-.1358.1338-.2364.24168-.3018.3193v.0069c-2.3418,2.8007-4.3516,9.8086-4.4258,17.5781-.0752,7.7597,1.8262,16.164,7.336,21.6733.4218.4219.8486.815,1.2793,1.1738.6718.563,1.3593,1.0845,2.0537,1.564,6.5234,4.499,14.92092,6.36328,22.3476,6.3291,7.2471-.0342,13.4444-1.8291,15.8457-4.7002.1094-.1299.2022-.25.2754-.3559,2.1016-3.0503,5.9766-7.1402,10.16122-11.5601.85928-.9062,1.72938-1.8257,2.59958-2.7519h0ZM771.49123,326.13632c-.3233.2773-.0889.1572.2939.0058-.0625-.1133-.1318-.1455-.2939-.0058h0ZM740.68063,264.91992c5.1768,3.79348,5.78322,5.0669,7.9736,9.6734l.1504.3164c.7588,1.5854,1.1729,2.6059,1.20022,2.5908,1.00778-.6094,2.48538-3.4873,4.959-9.7319l-.00582-.0025c2.6943-6.7998,5.0957-11.5771,8.3369-15.082,3.3056-3.57672,7.372-5.7246,13.33592-7.1811,5.20118-1.271,9.96088-3.2027,13.96188-5.4263,4.3487-2.4151,7.7744-5.1558,9.87312-7.7471,1.48428-1.834,3.51168-3.06,5.71378-3.5185,1.3633-.2832,2.794-.2725,4.2061.06828,1.3965.33792,2.7695.999,4.0312,2.01962,2.34092,1.8955,4.292,5.0361,5.253,9.64938.7978,3.832,1.3164,7.53812,1.7802,10.85252.8995,6.4326,1.5713,11.2266,3.09872,11.5718.02238-.0308.10348-.1734.23038-.4087.3291-.60162.60062-1.51662.8174-2.6748.9297-4.958.6778-13.5625-.25678-21.8115-.70412-6.231-1.68562-10.9742-2.86042-14.4229-1.1767-3.4512-2.4834-5.4809-3.8447-6.3193-2.4277-1.4927-4.8164-.2066-4.8232-.2036l-1.503.8066-.788-1.5132c-.0235-.0454-8.1416-16.0508-28.3282-10.8887-10.5088,2.6875-18.2968,5.96-23.8672,10.5674-5.4785,4.5313-8.86128,10.418-10.6484,18.4019-1.6455,7.353-2.1182,13.1504-2.4648,17.41748-.4883,5.97652-.7598,9.313-3.8008,10.53022l-.1006.04978c-.6279.35212-1.1846,1.22222-1.6299,2.41652h0ZM875.91893,429.98392c1.1572-.8179,2.00192-2.6929,2.62992-5.3852-.07422.1245-.14752.2544-.22172.392-1.124,2.0879-1.9551,3.7823-2.4082,4.9932h0ZM875.54003,431.36382c-.0361.3257-.0195.1777.0127-.1113l-.0127.1113h0ZM810.23923,544.25052c8.0537-1.3506,15.2012-2.8008,20.1543-4.2085-2.7744-.0884-6.8242.7002-12.9189,2.4195-19.7286,5.5654-63.3887,5.5654-77.4414,5.5654-1.168,0-2.1739.0317-3.0225.0893,3.6055.84718,9.8096,1.5279,18.5205,1.5279,12.89362,0,36.085-2.2715,54.708-5.3936h0ZM866.96285,648.09181c.40038-.7617.77538-1.5586,1.12408-2.3926.7295-1.75,1.33392-3.6621,1.7714-5.7304,1.5538-7.3203,3.6084-23.1348,5.4073-39.2305,2.2236-19.896,4.0508-40.1914,4.0508-45.4048,0-4.3828-.7657-7.3213-2.0772-9.2344-.6992-1.02-1.5801-1.7573-2.6025-2.2783-.4102,31.0528-4.4287,76.9722-4.4424,77.146l-.0078.041c-.0098.0821-1.3252,11.7715-3.22368,27.084h0ZM867.66793,539.3614c1.2715.00432,2.50292.00832,3.6406.10692.0137-7.8076-.25968-14.311-.9648-18.33692-1.7432-9.96728-4.1074-22.29148-6.833-32.01658-2.4902-8.8843-5.0654-15.5088-7.25288-15.583-1.35652.9785-2.12112,7.4892-2.45022,15.93058-.3565,9.09772-.0313,20.24512.6767,29.439.6387,8.28562,1.5528,14.852,2.5137,16.63722,2.0439,3.7954,6.6152,3.8101,10.6699,3.82278h0ZM921.43353,940.66211l3.044-.9922c1.7881-.5839,3.4414-1.125,4.9267-1.5918h-1.1972c-.8545.3399-3.3887,1.3379-6.7735,2.584h0ZM938.77443,934.69731c1.0556-.6192,1.9316-1.3164,2.64842-2.1192,1.78808-2.0058,2.66108-4.8085,2.88868-8.9042.2197-3.9766.0634-6.125-1.0479-7.19151-.5791-.55659-1.4902-.94329-2.79878-1.246-.39452.19331-.80572.375-1.23632.541-4.6778,1.80271-11.3789,1.68751-19.335,1.17381-7.9463-.5117-13.1016-1.4277-16.1484-2.4102-1.4776-.47461-2.52928-.9902-3.21-1.5039-.5215-.3945-.8838-.8183-1.1035-1.2578l-2.1807,1.5996c-.0078.0059-3.3135,2.3672-5.917,5.6797-1.207,1.5371-3.664,2.9102-6.5644,4.5313-4.5625,2.5468-10.34768,5.7793-12.7324,10.5507-.2432.4864-.378.9395-.4151,1.3594-.081.8828.2959,1.7227.9922,2.5059.8535.9609,2.14162,1.8281,3.6797,2.5976,4.91992,2.459,12.126,3.8321,16.5078,4.2305,7.8428.7129,34.3897-9.9805,34.4649-10.0117l.3105-.125h11.1973ZM947.67963,923.8574c-.2685,4.82231-1.3632,8.23831-3.625,10.83991h60.28232c-.0293-.8242-.044-1.6387-.044-2.4336,0-1.1797.1924-2.3691.5586-3.541.6777-2.168,1.9619-4.2696,3.7236-6.1582-7.0488-.5645-9.1084-4.3067-15.67573-16.24811l-.127-.23239c-8.124-14.7715-7.1123-23.4609-6.9941-24.2773.1259-1.1485,4.5713-41.61331,9.77053-66.875,2.5957-12.6075,3.1513-29.3536,2.5-48.82431-.6553-19.54489-2.5283-41.82419-4.77543-65.41989-3.6065-37.8808-11.05957-65.9902-13.8447-75.5625-2.9854,5.3028-8.6377,17.0899-10.7676,33.4082-1.90628,14.625-8.5742,45.44919-13.9932,70.502-3.165,14.6367-5.9062,27.3008-7.0078,33.5508-1.2998,7.3613-2.0332,32.3789-2.32028,59.33-.37312,34.7286-.00592,72.6133.832,80.168.55078,4.94339-.35252,8.3711-2.43362,10.7149.7237.3398,1.3389.75,1.8633,1.2539,2.0127,1.93159,2.3574,4.7832,2.0781,9.80459h0ZM935.16303,911.08991c1.793.1797,3.3379.3632,4.6709.5976,2.3848-1.6484,3.5108-4.5019,2.9834-9.2324-.8476-7.6328-1.2197-45.7051-.8457-80.5664.291-27.1445,1.03422-52.377,2.3604-59.8828,1.1103-6.3008,3.8594-19.0039,7.0342-33.6836,5.415-25.0371,12.0781-55.8418,13.9541-70.2246,3.0537-23.40431,13.2148-37.9766,13.2451-38.0176l1.9385-2.8184,1.0517,3.2598c.0303.0938,10.5567,32.4141,15.07232,79.8496,2.2519,23.6524,4.1299,45.9942,4.7871,65.6309.6611,19.7129.0889,36.7148-2.5635,49.6035-5.22953,25.4043-9.70903,66.4668-9.72263,66.58589l-.0118.09381c-.0039.0215-1.3535,7.6894,6.61333,22.1738l.1279.23239c6.7159,12.211,8.1241,14.76961,16.7237,14.51571l.4814-.3106c4.0176-2.5234,9.1602-4.1523,14.8086-4.1523,2.9209,0,5.9873.4355,9.1084,1.4121,7.2598,2.2676,11.8242,1.3437,14.7344-1.9434,3.0996-3.5019,4.6211-9.707,5.583-17.6406,1.9287-15.92191,3.3857-46.13091,3.4873-48.252l-4.9873-49.8672c-1.9531-19.5195-1.0928-49.59371-1.04-51.38671-.1807-2.07029-3.0039-34.34959-3.0039-51.78509,0-9.0723.5703-17.58791,1.8017-26.0254,1.2285-8.4063,3.1231-16.7363,5.7803-25.459,2.3008-7.56451,3.7314-16.01951,4.5244-24.209.9873-10.2051.9785-19.9941.4277-27.1348-.498-6.4882.4356-10.32471,1.4268-14.3964,1.0078-4.1411,2.0791-8.5464,1.5732-16.6236-.3769-6.0288-2.083-10.125-4.2568-12.8598-1.2695-1.5977-2.6963-2.73-4.1016-3.5113-6.3652,3.4483-33.6923,17.5059-56.9121,17.9551l-4.6455.0918c-23.28512.4644-32.51562.6489-35.35252-4.456-.8701-1.5674-.501-2.6988.9717-3.5171,1.6855-.9351,5.6943-.8926,11.4931-.8296,9.7373.1054,24.80572.2695,40.59482-3.6084,15.8164-3.8858,24.373-6.69142,29.6201-8.4121,4.3515-1.42632,6.5263-2.1397,8.7763-2.1397,1.3985,0,3.2657.2969,5.2559,1.0982,2.0498-1.8443,12.124-11.4077,10.1025-19.4947q-2.164-8.66112-1.1894-15.125c.2021-1.3369.4453-2.9492.6572-4.5048.5078-3.7237,1.1963-10.3956,1.9854-18.043,1.5253-14.7857,3.4277-33.2075,5.1709-41.4219.7822-3.6899,1.3759-6.2568,1.8564-8.3325,1.084-4.69392,1.5752-6.8164,2.6152-15.1411.6768-5.4136.0782-9.5249-.5263-13.6641-.7217-4.9453-1.4492-9.9316-.21-17.1572,1.249-7.2852,3.7656-17.6826,7.2295-28.5352,2.8164-8.8154,6.2607-17.9287,10.1641-25.9087,4.124-8.4243,7.3652-12.018,10.0088-13.0874-.0166-2.07522-.5-4.1074-1.6114-6.1445-2.7929-5.1201-9.1963-9.2768-16.2295-12.55272-7.2246-3.36528-15.0713-5.77538-20.5088-7.38088-4.9697-1.4697-7.7793-1.3799-9.3544-.4048-1.4083.8716-1.9356,2.7095-2.2461,4.7793-.2959,1.9707-1.8926,7.29838-4.7422,13.2632-.5869,2.7178-1.9102,6.2568-3.836,9.8228-2.3808,4.4077-5.6836,8.9897-9.6259,12.2465-.6875.5694-1.4532,1.0957-2.2823,1.5752-4.6318,2.6758-11.2256,3.76368-17.9267,2.6104-6.6768-1.1484-13.4991-4.5098-18.6328-10.72272-1.0997-1.332-2.126-2.80218-3.0577-4.416-6.09183-10.54288-7.88963-22.51168-9.05863-30.29438-.6103-4.0689-.4511-6.7271-.7304-6.7271-1.1455,0-4.6299.9707-8.9268,2.168-5.3994,1.5059-12.0342,3.35448-17.4394,4.1856-5.419.83388-15.25388,4.0532-23.75388,8.3032-6.30372,3.1523-11.81352,6.8286-14.05372,10.4135-1.2598,2.0147-1.5821,5.1617-1.3028,8.8897.5781.5332,1.1289,1.20748,1.6504,2.0352.6943,1.1044,1.4883,2.3408,2.2549,3.5322,7.3574,11.4629,12.07422,18.8105,12.999,43.7978.9971,26.9395,1.9981,48.9141,2,48.9776v.0849c0,.03078-.1055,10.7652.584,13.17578l.0146.05372c.7461.8262,1.5264,1.5694,2.2989,2.3052,2.71972,2.5923,5.3652,5.1128,6.6972,10.4399,2.1143,8.459-3.9472,14.4795-10.39248,20.8799-1.17392,1.1646-2.36142,2.3438-3.51862,3.5625-2.2471,2.36478-5.249,4.2266-8.8516,5.7559.2139,1.08588.3223,2.37888.3223,3.9521,0,3.7779.4453,7.0899,1.4668,10.42478,1.0352,3.375,2.6709,6.82332,5.043,10.83742,2.3662,4.0064,2.41012,6.1822,2.457,8.5601.0498,2.5078.1065,5.2886,4.2715,12.0322,7.3232,11.8604,13.64262,25.5557,14.60162,27.6597.86128.9082,3.497,4.1089.52138,6.6011l.1407.1269c.8154.7403,1.7246,1.5664,2.5986,2.3272,3.3887,2.955,6.8154,6.9091,9.6377,11.00138,2.7793,4.03372,4.9932,8.23592,6.0342,11.79451,1.5859,5.4184,1.56642,9.0844,1.542,13.5493-.0069,1.3515-.0157,2.78119.02442,4.3769.05858,2.3262-.35162,4.0684-1.07622,5.1172-.58978.8555-1.3721,1.336-2.3076,1.41409-.82418.07031-1.6807-.19919-2.5234-.82809l.0019-.00391c-1.4326-1.06839-3.0439-3.43169-4.5156-7.22079-1.6133-4.1484-2.9746-6.15421-4.086-6.9394-.5224-.3711-.9433-.2773-1.2519-.04881-.03418.03121,1.59282,2.55471,3.458,5.68551,2.2324,3.7422,5.09082,7.875,6.9092,10.1504l.0039-.00391c.1992.248.414.50591.6445.77151v.0058c1.3613,1.5645,2.2041,3.2735,2.542,4.8301.2549,1.1719.2305,2.2949-.0654,3.2578-.3418,1.1153-1.0323,2.0059-2.0567,2.541-.6816.3555-1.4951.5333-2.4326.4922-2.332-.10741-6.1387-1.6582-9.9443-4.4961l-.25878-.19531c-.26952.71881-.72072,1.26571-1.38182,1.58991-.4463.2207-.9463.3125-1.4971.2597-1.583-.1504-3.4424-.6757-5.5879-1.80661-1.874.90041-4.9307,1.40621-8.3955-1.80079-.9414-.8711-2.1104-1.86521-3.3711-2.9394-4.9375-4.2032-11.2295-9.5567-11.9824-14.3692-.0938-.59961-.3184-1.8613-.5801-3.332-1.294-7.2593-3.5283-19.8008-.793-22.9263,1.2334-1.4096,4.6826-3.8076,8.8086-6.2129-.4541.18558-.9101.3643-1.3652.5342-3.5694,1.3355-7.1094,2.1397-9.8467,1.6846-3.4443-.57422-8.1103-4.2666-12.5391-9.5205-4.1533-4.92972-8.1953-11.2959-10.84268-17.7285-.69632-1.6944-1.68662-3.8926-2.82032-6.4156-1.1202-2.4887-2.3799-5.2915-3.6553-8.26462,4.6474,14.25192,9.1767,25.57472,9.2051,25.646l.2089.52732-1.663,6.1416c-.1866,1.2207-2.2168,14.8325-2.2168,31.9058,0,17.4922.7138,25.7598,4.2207,66.4492l.2734,3.1563c3.1162,36.1582-.4619,56.33779-3.9268,75.871-.7441,4.2051-1.4863,8.3809-2.0927,12.2676l-.1426.9141c-3.6748,23.5078-7.2393,46.3125-2.1211,69.7148,4.4766,20.4649,1.6338,64.545.4844,82.3575-.21388,3.3242-.3701,5.7402-.4043,6.8027-.21,6.2734,2.1387,7.1074,2.1445,7.1094l2.4238.8886c-.1015-.37891-.1045-.7656-.0156-1.1601.0684-.29881.1875-.5742.3535-.8223,1.3604-2.043,16.3994-.3652,27.8213.9102,3.0391.3398,5.8213.6504,7.7451.8418h0ZM929.69233,913.89651l-2.64448-.293c-8.12212-.9082-18.22462-2.03511-22.53422-2.3574l.2617.086c2.8116.9062,7.6827,1.7578,15.3301,2.25,3.4951.2265,6.7237.375,9.5869.3144h0ZM1016.88675,922.32421c-1.1573.0977-2.2246.1758-3.2198.2305-2.7949,2.0352-4.7783,4.5664-5.5918,7.1719-.2627.83979-.4003,1.6914-.4003,2.5371,0,5.1934.6064,11.1328,2.5918,15.9551,1.4589,3.541,3.663,6.4785,6.9296,8.01359.2647.125.5821.254.9444.38291,3.9277,1.4023,9.4482,1.039,14.3652-.42391,4.8018-1.42769,8.9229-3.84759,10.2197-6.60539.0537-.1094.1084-.2383.1602-.3868v-.00581c2.3516-6.58789,1.1875-13.11529,1.1836-13.13279l-.3584-1.9883h2.5351c-.7119-2.2578-1.6386-4.2188-2.7285-5.67191-1.5254-2.03509-5.0752-3.84569-9.9248-5.00979-4.6445-1.11521-10.4111-1.5878-16.706-1.0664h0ZM1022.27635,918.7364c4.4561.02731,8.5645.53121,12.0967,1.37891,5.6143,1.3476,9.8506,3.6132,11.8389,6.2636,1.4863,1.98249,2.6982,4.6621,3.5537,7.6934h52.0547c.4824-79.1328,1.9521-322.84569,1.9521-360.24169,0-19.8071.7363-30.5239,1.8633-37.0283-.2305.29-.46.5263-.6885.7129-1.2207.9985-2.4258.9985-3.5625.2773-.7783-.4932-1.4326-1.376-1.958-2.4902v-.00692c-1.4033-2.98238-2.1387-8.29778-1.626-11.23918,1.0664-6.13282,10.6319-17.5137,10.8692-17.7959.0215-.0264,5.6826-6.9141,12.6738-9.2901-1.4844.0025-2.3828-.6601-2.8506-1.8867-.7598-1.9834.5781-5.3388,2.3115-9.6894.9795-2.461,2.1016-5.2754,3.042-8.2979,1.7334-5.5727,1.8057-11.1621,1.7002-16.1933-1.2871.791-2.7119.7187-4.3574-.0123-2.082-.9248-4.3174-3.0844-7.2119-5.8793-2.041-1.9707-4.4248-4.2725-7.2012-6.5884-8.3799-6.98-8.9599-12.19-9.6318-18.2271-.2647-2.3828-.5459-4.9072-1.4024-7.69042-1.3945-4.53128-3.8798-7.17868-6.2373-9.687-2.6103-2.78178-5.084-5.41458-6.1797-10.07418-.9482-4.0352.0479-11.7183,1.9932-20.4297,2.3897-10.7036,6.2158-23.08112,9.5733-32.0308,1.832-4.8887,4-9.1689,5.9882-13.0962,2.2608-4.4629,4.2764-8.4448,5.1934-12.2007-1.5488,1.4844-3.6113,4.5879-6.4619,10.4087-3.8262,7.8228-7.209,16.77588-9.9795,25.4458-3.4024,10.6568-5.877,20.8955-7.1104,28.086-1.1494,6.707-.4609,11.4297.2237,16.1147.6377,4.3692,1.2705,8.7085.54,14.54838-1.0576,8.45162-1.5635,10.64252-2.6836,15.48432-.4678,2.0254-1.0469,4.5284-1.8428,8.2803-1.7119,8.0703-3.5996,26.374-5.1171,41.06538-.7911,7.66512-1.4815,14.35262-1.9981,18.14852-.2871,2.1093-.4902,3.4428-.6572,4.5576q-.877,5.8037,1.124,13.8047c2.2412,8.9687-6.7861,18.6758-10.2393,21.99218,1.3233.90182,2.6231,2.06542,3.8018,3.54982,2.5566,3.2158,4.5576,7.9394,4.9844,14.7607.5351,8.56448-.6006,13.22948-1.668,17.6152-.9238,3.795-1.793,7.3697-1.332,13.3521.5595,7.2754.5654,17.2656-.4424,27.7031-.8125,8.3887-2.2842,17.0684-4.6572,24.8692-2.5957,8.5234-4.4522,16.6933-5.6602,24.9707-1.206,8.25-1.7617,16.6074-1.7617,25.5371,0,18,2.9785,51.5019,2.9863,51.5996l.0059.1914c-.002.0898-.9658,31.1562,1.0244,51.0508l4.998,49.9922.0069.24409c-.0039.09181-1.5049,32.09771-3.5049,48.60941-1.0381,8.5605-2.7666,15.3554-6.416,19.4765-3.8389,4.336-9.5215,5.66209-18.2598,2.9336-2.7705-.8672-5.499-1.2539-8.1045-1.2539-1.9482,0-3.8252.2168-5.5957.61139h0ZM1047.68745,948.22661c.21-2.209.2022-4.4844.0049-6.7051-.1006,2.5703-.5117,5.6914-1.623,8.8066-.0791.2129-.1768.4454-.293.6915v.00579c-1.7236,3.666-6.6709,6.72271-12.3183,8.40241-5.5303,1.6445-11.8379,2.0175-16.4532.3711-.3906-.1387-.8037-.3106-1.2353-.5137-4.1309-1.9434-6.8623-5.5176-8.6192-9.7852-.8027-1.9472-1.4004-4.039-1.8349-6.1797v5.8145c0,.3301.0117.64259.0342.93359.3457,4.32031,3.1767,7.39061,6.917,9.39451,3.9511,2.1152,8.8974,3.06449,13.1533,3.06449.7246,0,1.417-.02539,2.0683-.07819,4.6123-.3691,9.8194-2.3925,13.8389-5.3027,3.5049-2.53911,6.0537-5.70311,6.3603-8.9199h0ZM883.17873,472.0874c-.6426,4.48592-.1065,10.586,1.1259,17.38282.4444-5.4287,2.9659-9.3076,8.8243-10.2641l2.5322-.4116c10.2285-1.6617,19.5146-3.1705,26.6816-5.58112-.8144-.89838-1.9316-1.54488-3.3437-2.36078-1.0391-.6011-2.209-1.2784-3.4366-2.0953-3.0585-2.039-5.8359-4.7465-7.8857-7.39592-2.2803-2.94778-3.6992-5.92528-3.6992-8.00788,0-.6567.15432-1.2534.4385-1.7856.42282-.792,1.0986-1.3667,1.957-1.7266l-.1729-.334c-1.8955-3.75292-2.2441-7.4335-.81828-9.8447.86328-1.4599,1.92868-2.2934,3.18358-2.5781-.2871-1.458-.1738-2.8252.4443-4.0088,1.291-2.4751,2.8526-3.2422,5.0889-2.9297-.0625-.9629.207-1.8218.8047-2.5537l-.0039-.00292c.6172-.75288,1.5586-1.29448,2.8125-1.58738,2.1582-.503,5.5263-.2901,10.042.8906,2.997.7837,5.3242,1.6372,7.1093,2.415-.14738-.3159-.292-.643-.4306-.9834l.0058-.0019c-1.7314-4.2456-2.3691-19.19392-3.0254-34.5942-.6826-16.0098-1.3886-32.5196-3.2089-37.0752-1.8897-4.7212-5.4795-13.8843-7.8936-23.0206-1.0176-3.8535-1.8232-7.7138-2.207-11.2714-.84568-.2681-1.8614.2207-2.9786,1.2934-1.5849,1.51908-3.2304,4.0669-4.8544,7.3267-5.4883,11.0058-10.4229,29.5742-12.0879,44.5703-1.9014,17.1103-6.2012,42.7969-9.8643,64.6894-2.1269,12.7081-4.0391,24.13768-5.1396,31.84668h0ZM934.81443,369.92732c-.8887-23.9658-5.3838-31.0503-12.3965-41.9756.335,1.5835.7266,3.20068,1.1543,4.8223,2.3662,8.9516,5.9004,17.9736,7.7608,22.6245,2.0341,5.08588,2.7529,21.89688,3.4462,38.1977.5323,12.4805,1.0518,24.6563,2.0655,30.5938-.0508-2.6104-.0362-4.85162-.0332-5.2735-.0254-.562-1.0088-22.2534-1.9971-48.9892h0ZM938.94143,435.07572c-.501-.0615-.9844-.34332-1.6768-.748l-.0029.0048c-1.46388-.8554-4.54888-2.66012-10.3526-4.1777-3.9531-1.0342-6.7646-1.2529-8.4297-.8642-.5029.1171-.8222.2661-.9638.4384h-.00778c-.04692.0576-.05472.1719-.02452.3379v.0059c.0684.3672.2784.80658.6319,1.3125,1.3008.53508,2.7617,1.209,4.418,1.9726.8417.3887,1.748.8057,2.8242,1.292,4.6777,2.1094,7.3769,4.3867,8.7041,6.1538.5908.78668.9482,1.5191,1.11232,2.1402.25778.9756.09668,1.8198-.38282,2.4292-.3067.3906-.7207.6572-1.2188.7827-1.1689.2954-4.7392-1.5068-8.4521-4.1299-2.9922-2.1143-6.2676-4.7729-8.5215-7.18752-.1973-.21-.3809-.41888-.5547-.625-2.1748-.78908-3.416-.79248-4.0498.42092-.374.7168-.27828,1.7158.1641,2.8687,2.2441.8481,4.8671,2.833,7.83,5.6235,2.6485,2.4922,4.6875,4.66888,5.5244,5.9336.45222.6855.6768,1.3174.6319,1.8701-.1113,1.4409-.9229,2.0449-2.5293,1.6719-.7393-.1714-1.9942-.7979-3.8613-1.9951-3.5938-2.3047-6.95408-5.5401-9.043-8.689-.32908-.49762-.6279-.9951-.8936-1.4907-.6367.0107-1.1504.3115-1.5302.9526-.8262,1.4009-.4541,3.8784.9238,6.6084.248.4902.5273.9854.83792,1.48.40918.0508.82708.1245,1.25488.2246,2.11712.4932,4.499,1.6138,6.6074,3.3589,2.1631,1.791,3.6709,3.7007,4.1728,4.977.3203.8194.335,1.5811.0118,2.22558-.4297.85792-1.209,1.29012-2.3575,1.17292-1.06538-.1075-2.8291-.90192-5.3759-2.69492-2.4766-1.74648-4.5313-3.80318-6.1084-5.92478l-.168.0279c-.375.0727-.625.1806-.6983.3164-.0185.0351-.0293.10148-.0293.2016,0,1.3477,1.1446,3.56788,2.9864,5.9468,1.834,2.37208,4.333,4.8023,7.0937,6.6436,1.2471.83048,2.3086,1.4453,3.252,1.9902,2.2793,1.3184,3.9883,2.3062,5.1025,3.9736,3.1455-1.3466,5.7363-2.9536,7.627-4.9448,1.165-1.227,2.3818-2.43552,3.584-3.6284,5.7431-5.70312,11.1464-11.0689,9.496-17.6709-1.0957-4.3828-3.3876-6.5674-5.747-8.8145-.6045-.5766-1.2139-1.1562-1.8115-1.7734h0ZM927.50485,439.57772c.65238.457,1.27248.88468,1.84478,1.2705-.5274-.4102-1.1387-.836-1.84478-1.2705h0ZM923.95313,478.99562c0-1.063-.0674-1.95022-.2041-2.7075-7.5127,2.5801-17.0508,4.1294-27.5459,5.8345l-2.53228.4116c-5.76952.9424-6.79682,6.5786-5.61522,13.813,1.6514,10.1177,7.5225,23.1699,11.542,32.1123,1.1416,2.5391,2.1367,4.752,2.8594,6.5073,2.5176,6.1118,6.3554,12.1612,10.3037,16.8452,3.9346,4.6685,7.8672,7.9151,10.5176,8.3565,2.0859.3476,5.04-.3613,8.1162-1.5117,4.7988-1.795,9.7929-4.6553,12.5224-6.4092,3.917-2.5186,5.8858-2.0913,8.9375.3721.7979-.959-.2509-1.9136-.2548-1.918l-.2403-.2266-.1357-.30172c-.0195-.04248-6.71778-14.92528-14.5176-27.55278-4.6475-7.5273-4.7139-10.7929-4.7705-13.7373-.0391-1.9072-.0732-3.6533-1.9951-6.9082-2.502-4.2334-4.2403-7.9096-5.3604-11.5644-1.1338-3.6944-1.6269-7.32032-1.6269-11.4151h0ZM952.46973,556.74662c-.4014.1299-.8311.2529-1.29788.3696-3.32322.8306-8.08882,3.0005-12.51562,5.3843-5.126,2.7593-9.7061,5.7393-10.9941,7.2105-1.6622,1.8989.3935,13.4438,1.5849,20.1269.21882,1.2188.4063,2.27149.5811,3.39649.5595,3.58011,6.3154,8.47851,10.832,12.32231,1.2998,1.1054,2.5029,2.1289,3.4785,3.0332.3428.3183.6778.5742.999.7812-1.8945-1.5683-3.9687-3.5664-6.2314-6.0898-2.5742-2.877-3.7939-4.71291-4.1602-5.8223-.3544-1.0762-.1679-1.9004.4131-2.51761.55572-.58979,1.3155-.77729,2.1885-.664,1.0791.13861,2.6016.83981,3.8604,1.60931,3.3056,2.0196,11.1503,13.4473,11.17282,13.4805l.792,1.1504c.96388.4023,1.82618.6367,2.59278.7461-.0615-.0449-.124-.1172-.1192-.2422.0059-.2578-.0068-.5488-.0381-.8633-1.8076-1.7402-3.541-3.7754-5.0341-6.08981-2.5176-3.89849-3.8155-7.07229-4.0528-8.85739-.1162-.875-.0097-1.60161.3047-2.1387.5655-.9707,1.4453-1.3125,2.6133-.9492.8223.2558,1.9092,1.0996,3.1816,2.6269,2.4629,2.9551,4.8594,8.31639,5.8672,12.4356.1104.4492.2051.8867.2813,1.3086.7334.65819,1.4746,1.2617,2.2099,1.8105,3.2666,2.4336,6.333,3.7539,8.083,3.834.3106.01369.5538-.03131.7286-.1211.1845-.0957.3183-.28521.3935-.53521.124-.40229.1201-.93749-.01368-1.55269-.22652-1.043-.81832-2.2187-1.78712-3.334l-.00288.0039c-.18262-.2109-.42582-.5078-.72262-.8769v-.0059c-1.9131-2.3906-4.8868-6.6816-7.1778-10.52341-2.6553-4.457-4.3115-8.625-2.7705-9.96489l.0664-.0488c1.3526-1.084,3.1719-1.6308,5.332-.1016,1.5967,1.1309,3.4014,3.625,5.2881,8.4727,1.2266,3.1563,2.417,5.0098,3.3838,5.7324h.0069l.1123.084c.288-.5293.4423-1.5391.4062-3.0019-.039-1.6114-.0322-3.0801-.0244-4.4688.0225-4.1953.042-7.6406-1.4092-12.59811-.9365-3.19928-2.9824-7.05858-5.57218-10.81638-2.67092-3.8755-5.90242-7.6084-9.084-10.3809-1.09382-.9531-1.91512-1.69872-2.65042-2.3672l-1.0957-.9873h0ZM944.23243,556.02592c1.6103-.6963,3.1543-1.29252,4.5527-1.7363-.9316-.2129-1.8535.0312-3.0459.7969-.4463.2871-.9531.6035-1.5068.9394h0ZM944.44333,604.20711c-1.8652-2.4004-3.7881-4.6622-4.9248-5.3985.4971.625,1.1221,1.3613,1.8965,2.2266,1.0566,1.1777,2.0644,2.2304,3.0283,3.1719h0ZM952.40333,600.61331c-.292-.5664-.5957-1.1113-.9073-1.623.2676.5097.5704,1.0527.9073,1.623h0ZM991.96772,299.72902c1.252,6.7725,3.31553,14.855,7.49123,22.085.8291,1.4346,1.75,2.7515,2.7422,3.9531,4.5703,5.53128,10.6485,8.5235,16.5987,9.5479,5.9257,1.0195,11.6875.0996,15.6689-2.2002.3047-.1768.5986-.3623.8838-.5562-2.4297,1.4009-5.0674,2.3706-7.9111,2.73678-9.3721,1.20412-16.2041-1.94718-21.5674-7.74608-5.1836-5.60692-8.9014-13.6591-12.21493-22.582-.6816-1.831-1.23727-3.5771-1.6914-5.2383h0ZM1049.41995,306.69192c.5195-.1606.9677-.1797,1.3515-.0454,1.4854-3.685,2.334-6.6792,2.5332-8.0102l.0381-.2491c-1.6738,2.78418-3.9824,5.6778-6.6133,8.3994h-.0068c-4.2949,4.4395-9.4961,8.4742-14.2412,10.8467-4.9629,2.4815-10.2734,2.6197-13.9746,2.7163-.8985.0235-1.6826.044-2.2695.083,1.122,1.024,3.2246,1.6123,6.0605,1.6451,3.5146.04,8.002-.8135,13.0723-2.7725,6.2441-2.4121,9.6015-7.2607,11.4648-9.9521.9746-1.4083,1.6445-2.3721,2.585-2.6612h0ZM1046.67775,315.15732c-2.2471,2.6215-5.4512,5.498-10.0918,7.2915-5.4854,2.1191-10.4053,3.041-14.3145,2.9965-4.6347-.0532-8.0058-1.4907-9.4843-3.9536-1.0635-1.7705-.7442-2.937.6611-3.7802,1.043-.626,2.7402-.6709,4.9785-.7295,3.3926-.0879,8.2617-.2159,12.5508-2.3594,4.4131-2.208,9.2832-5.99222,13.3242-10.1699l-.0039-.003c3.8584-3.9882,6.9287-8.2841,8.0732-11.833,2.5567-7.9258,4.9073-11.8427,4.9131-11.854l.8018-1.3222,1.3857.6821c.0157.00778,5.9395,3.0786,8.876-7.1997,1.4014-4.9038,2.5938-8.4527,3.4678-11.0572,1.166-3.4707,1.709-5.0878,1.497-6.1464-.1582-.79592-3.6835.0556-3.6943.05708l-6.5166,1.59332,4.999-4.4854c.0078-.0078,2.4297-2.1587,5.1416-3.71292-.455-.11518-.9189-.28468-1.3877-.50878-1.6396-.7846-3.373-2.2783-4.998-4.5371-1.8223-2.5312-7.2656-5.0806-14.1641-7.3135-8.4804-2.7441-19.0302-4.9145-27.9082-5.9912-8.3076-1.0058-17.6211,1.0342-25.0957,2.6709-1.9638.4302-3.8105.835-5.50973,1.1514-.4004,1.4482-.5225,2.8935-.2832,4.2017.6757,3.7265-.22267,5.0288-2.0762,5.3657-.8467.1533-1.68747-.0484-2.64747-.2798-.68063-.1641-1.45023-.3491-2.18363-.3491-.1123,0,.1504.6977.1504,1.7339,0,2.7065.7588,6.7446,1.4053,10.1987.2295,1.2246.4463,2.3808.6074,3.34718.3877,2.32122.3848,4.50832.3799,6.39552-.0039,2.3647-.0059,4.0864.6162,4.2417,4.06543,1.0166,5.24323,7.81878,5.24713,7.83878l.1015.56742-.2597.502c-.0137.0249-4.65633,8.602,1.5781,25.3852,3.1846,8.5733,6.7178,16.2681,11.5293,21.4722,4.6357,5.01118,10.5498,7.7344,18.6758,6.6904,5.9492-.7656,10.9658-4.789,14.9638-9.7959,1.7686-2.2139,3.334-4.6089,4.6944-7.0014h0ZM1078.79005,247.24902c.1865-.0507.374-.1059.5605-.1655,2.8965-.9326,6.2032-3.5234,3.0137-13.4248-2.3281-7.2305-5.0771-13.8994-8.7617-19.3486-3.5996-5.3262-8.1045-9.4849-14.0059-11.84472-6.3867-2.55328-13.6386-4.37408-21.0224-5.07818-6.7285-.6406-13.5694-.354-19.959,1.1538-7.3057,1.7271-14.2363,3.8775-19.6231,6.48-4.42093,2.1377-7.75483,4.544-9.29393,7.2149-1.94037,3.3623-3.6006,7.9218-4.1758,11.9922-.4433,3.143-.25,5.8955.98243,7.3051.58007.6626,2.45017.5938,5.14257.1509.2861-.6885.6172-1.3633.9883-2.0176,1.7617-3.1113,4.44533-5.79,7.43853-7.0732,3.1328-1.3428,9.0976-2.7671,17.6552-3.2984,6.3565-.395,14.1914-.3042,23.4209.6729.584.062,1.17.1333,1.7579.2134,10.4541,1.42618,19.7988,5.5547,26.456,10.0185,6.9951,4.6924,11.1397,10.0039,10.792,13.2876,0,.042-.0049.0884-.0156.1284-.2022,1.4874-.6739,2.7081-1.3506,3.6333h0ZM995.83695,230.87062c.9961-.2119,2.0468-.4414,3.1377-.6806,7.7197-1.6914,17.3378-3.7979,26.2041-2.7237,9.0566,1.0982,19.8418,3.3194,28.5439,6.1368,7.5264,2.4365,13.584,5.38228,15.8672,8.5537,1.2812,1.7793,2.5625,2.915,3.7178,3.4677.6416.3072,1.2177.4146,1.6923.335.3877-.0645.7334-.2822,1.0157-.6406.3779-.48052.6494-1.1924.7812-2.12552l.0049-.07568c.1943-2.1221-3.3799-6.1387-9.3135-10.1172-6.2968-4.2236-15.1377-8.1279-25.0293-9.4785-.542-.0737-1.0937-.14062-1.6533-.1992-9.0244-.9561-16.6758-1.0449-22.8789-.6602-8.1221.5044-13.6768,1.8106-16.5312,3.0337-2.1582.9253-4.1446,2.8638-5.5586,5.1743h0ZM1109.68555,324.47612c-.8496,4.4648-3.1729,9.0537-5.7939,14.2305-1.9581,3.8652-4.0918,8.0776-5.8438,12.7524-3.3145,8.8335-7.0869,21.0391-9.4404,31.5816-1.8457,8.2617-2.8203,15.4257-1.9932,18.9375.8897,3.7792,3.0566,6.0888,5.3486,8.52828,2.6153,2.78612,5.375,5.72462,7.003,11.00782.9531,3.1035,1.2509,5.78318,1.5322,8.3115.5918,5.3169,1.1025,9.9043,8.4316,16.0093,2.9258,2.438,5.3282,4.7602,7.3858,6.7471,2.6621,2.5717,4.7197,4.5585,6.2344,5.2309,1.0039.4453,1.8798-.0683,2.8808-2.1172-.0312-2.8579.0713-5.4599.6397-7.7446v-.00682c.3711-1.47808.9619-2.75438,1.6884-3.84428,1.459-2.1855,3.458-3.5849,5.3399-4.3745,1.9638-.8218,3.9043-.9878,5.0605-.6977.3711.0922.7012.2343.9795.4194,1.2803.852,1.2959,1.9189.4024,3.2632-.4717.7104-1.3184,1.5605-2.4014,2.6465-2.4102,2.4213-6.1182,6.1435-8.3311,11.0463.0147.7979.0352,1.6192.0577,2.459.1523,5.7818.3261,12.4156-1.7959,19.2378-.9493,3.0469-2.1162,5.9756-3.1358,8.5352-1.4551,3.6557-2.5791,6.4765-2.2861,7.24608.0244.06542.5342-.31938,1.959-.86428,9.5351-3.6426,22.4326,10.5156,22.5888,10.6865l.003-.0029c.0156.0166,3.4951,3.7949,6.8506,8.438.4882.0244.9785.0181,1.4668-.0181,2.289-.1714,4.4531-.9995,5.8613-2.4077v-.0063c.2617-.2627.4922-.5357.6826-.8155,1.875-2.7382,4.9082-8.0429,6.8379-13.4355,1.2705-3.5566,2.0478-7.1055,1.6387-9.8418-.5948-3.9819-.3018-5.5171.0976-7.6148.3613-1.9028.8223-4.32862.6406-10.2021-.1875-6.0493-1.5918-8.5127-2.8427-10.7104-1.2686-2.2256-2.4092-4.2232-2.4092-8.45712,0-2.50388.4541-4.75778.8867-6.90618.9219-4.5909,1.7344-8.6221-3.706-13.5909-8.9375-8.1542-13.1875-19.7543-13.1983-19.7875v-.00642c-.0527-.14158-17.9277-49.30658-25.331-60.77438-4.084-6.3325-6.626-11.23-8.5147-14.8721-1.5439-2.9756-2.6348-5.0776-3.7021-6.2993l-.3731-.4307c-.4443-.519-.9209-1.0737-1.3994-1.4858h0ZM1129.25785,449.13432c1.917-2.56492,3.9521-4.6074,5.4912-6.1543l.4209-.4228c-.2481.0786-.5078.1728-.7764.2856-1.3564.5688-2.793,1.5718-3.833,3.1328-.5166.7739-.9404,1.6973-1.2139,2.7876l-.0888.3711h0ZM1124.80955,496.17392l-.1601.06048c1.2187-.12058,2.456-.06588,3.6914.21632,7.79,1.7813,12.3183,6.6006,16.333,10.8735.6513.6929,1.2871,1.3697,2.0136,2.1031-1.707-2.0684-2.9628-3.4322-2.9716-3.4414v-.0069c-.0323-.0351-11.4766-12.6435-18.9063-9.8051h0ZM1154.59965,521.06592c-.8926-1.8662-2.1192-3.8496-3.4268-5.7426-1.8311-.3101-3.5957-.9717-5.1113-2.0083-.5606-.3838-1.0811-.80962-1.5469-1.2764-.6777-.67722-1.4775-1.5298-2.2979-2.4023-3.6835-3.9224-7.8378-8.3438-14.6279-9.897-7.7295-1.7652-16.3076,8.6567-16.332,8.686l-.0049.0069c-.0264.03118-9.2012,10.8955-10.123,16.1914-.42,2.4096.1894,6.77678,1.3457,9.2402.1796.375.3505.6758.5058.87058.6797-.731,1.4678-2.58638,2.3496-6.06148,2.2657-8.9287,5.3574-13.0093,8.3916-14.5806,3.3692-1.7441,6.5196-.541,8.6514.82908.0713.04592.1631.11092.2764.19532,2.1328,1.6006,2.4795,4.6612,1.9394,7.8008-.206,1.1924-.54,2.4126-.9492,3.561-.0088,1.6783.1836,3.0616.6377,4.1075.5117,1.1831,1.4531,1.9336,2.9531,2.1855.0664-.28712.1504-.5786.249-.8755.7129-2.1377,2.2813-4.3691,3.8614-6.61962l.4033-.57468.0029.0029c1.7363-2.48,3.4131-3.9746,4.6641-4.539.6933-.3116,1.3506-.4053,1.9375-.2891.8281.1641,1.4336.6601,1.7685,1.4746.3008.7275.3164,1.7246-.0302,2.94428v.00642c-.6387,2.2397-2.7979,5.9971-5.5118,8.6264-1.041,1.0108-2.1796,1.8716-3.373,2.4585.3682.3248.8965.6114,1.6201.8531.4287.1425.8565.2412,1.2803.2998.5957-.94,1.5498-1.9038,2.6221-2.9864,1.1728-1.1855,2.5127-2.5395,3.497-3.9931l.0059-.0073c1.5654-2.3013,3.2724-3.6939,4.5771-4.1631.7071-.253,1.3789-.2881,1.9766-.107.7783.2359,1.3408.76468,1.6279,1.5791v.0069c.2998.8535.2227,2.0718-.3886,3.5976-1.0635,2.6543-3.6836,5.9659-7.0684,7.8775-.2744.1548-.5537.3008-.8379.438.3984.041.793.0752,1.1777.1088.668.0582,1.3145.11478,1.9307.19778,3.2266-2.10938,6.8897-5.61818,6.9033-5.63228l.0283-.0269c.0186-.0185,7.2276-6.5005,4.4454-12.3633h0ZM1143.68455,542.63092c-1.4873.83148-2.917,1.396-4.0566,1.396-.7295,0-.8819,3.5781-.8819,7.2461,0,1.9961.0743,3.831.1387,5.3779.0508,1.27048.0967,2.3721.0967,3.0147,0,1.5952.2812,2.58.8184,3.1035.5185.5068,1.4257.705,2.6591.705.666,0,1.2686.0704,1.8164.1329.3975.0459.7588.0878.9815.0835.3994-.0074.5957-.7222.5156-4.83112-.0625-3.20258.1074-5.76608.25-7.91748.2207-3.3091.3692-5.5527-.5234-7.0957-.375-.645-1.0098-.999-1.8145-1.2153h0ZM1143.01955,531.44782c-.8516,1.2627-1.8887,2.4121-2.8955,3.4551,2.2744-1.5381,4.0019-3.7989,4.7509-5.64852-.5556.49032-1.1914,1.21882-1.8554,2.19342h0ZM1134.10255,527.21782c-.958,1.3628-1.9102,2.7173-2.6016,3.9507.2442-.20612.4864-.4258.7246-.6568,1.9952-1.9336,3.6172-4.5297,4.3467-6.3676-.6045.5766-1.3037,1.4018-2.0674,2.4922v.0068l-.4023.5747h0ZM1120.28325,525.84672c.0205-.7978.08-1.6367.1689-2.5132.1328-1.2969-.1133-2.207-.585-2.72212-.2236-.24568-.5205-.40388-.8535-.46828-.3974-.0752-.8613-.0269-1.3545.1528-1.3369.4873-2.7705,1.855-3.8222,4.2241v.00638c-.5254,1.18312-1.0303,2.11962-1.5254,3.03952-2.711,5.0411-5.1592,9.5928-5.1592,46.2647,0,35.4155-1.4785,280.77489-1.9649,360.24169h6.3965c1.001-75.9043,3.1905-396.20949,3.1973-397.24069l.0029-.2696.083-.2519c.003-.01172,1.3379-4.0161,3.75-7.2315.0791-.1054.1778-.248.292-.42722.4756-.74018.958-1.71828,1.3741-2.80468h0ZM1116.51075,517.12652c.5869-.2149,1.1748-.3399,1.748-.3779-.9463-.2168-1.9726-.1846-2.9912.34178-1.6933.87692-3.4629,2.997-5.0713,7.25092.1905-.3813.3789-.7754.5645-1.18892,1.4639-3.291,3.6406-5.25738,5.75-6.02588h0ZM1105.16695,937.45311l-.1279,21.0372c.2832.37109,1.3516,1.2402,5.1074,1.0839.4317-.0175.8409,0,1.2246.0508-.0146-.34761-.038-.7363-.0644-1.1719-.125-2.09371-.294-4.88671-.0254-8.5625.0703-.955.1582-5.3144.2568-12.4375h-6.3711ZM1112.90235,966.39851c-.0195-.4844-.0693-.9434-.1563-1.3594-.623.2187-1.4228.3496-2.4492.40229-1.4531.07621-2.6982-.02929-3.7822-.123-.6201-.05279-1.1826-.10159-1.6504-.10159-.6006,0-.9541.2207-.9541,1.291,0,2.1504.3008,4.4102.7803,6.1973.3779,1.4141.7568,2.4082,1.0293,2.5449.1162.0586.3105.1289.5722.2012.8057.2227,1.9805.375,3.0948.1777.9209-.1621,1.7822-.584,2.2246-1.4707.0869-.1699.1621-.3711.2275-.6015.5528-1.9961,1.1611-4.8125,1.0635-7.1582h0ZM1001.95895,559.64992c19.9473-.3847,43.2364-11.2754,52.5371-16.06-.3652-.043-.7089-.063-1.0205-.063-1.7295,0-3.7304.6562-7.7314,1.9687-5.2822,1.7315-13.8945,4.5557-29.8594,8.4771-16.1855,3.9751-31.51952,3.8086-41.42672,3.7012-4.1065-.04452-7.2266-.0782-8.835.1469,2.834,2.49558,11.7861,2.3174,31.68362,1.9204l4.6523-.0913h0Z"/></g></svg>