<?xml version="1.0" encoding="UTF-8"?><svg id="_レイヤー_2" xmlns="http://www.w3.org/2000/svg" viewBox="0 0 1108.29999 882.34478"><defs><style>.cls-1{fill:#bce0ee;}.cls-1,.cls-2,.cls-3,.cls-4,.cls-5,.cls-6,.cls-7,.cls-8,.cls-9,.cls-10,.cls-11,.cls-12{stroke-width:0px;}.cls-2{fill:#fca3a1;}.cls-3{fill:#c1e9ec;}.cls-4{fill:#00a99d;}.cls-5{fill:#fcbebd;}.cls-6{fill:#2a2626;}.cls-7{fill:#b3b3b3;}.cls-8{fill:#201d29;}.cls-9{fill:#ccc;}.cls-10{fill:#fff;}.cls-11{fill:#a2a9ae;}.cls-12{fill:#404040;}</style></defs><g id="set_of_doctor_clip_art"><path class="cls-3" d="M327.75798,62.55031C458.67748,15.19501,599.07238-1.61789,736.27348,14.99531c84.0953,10.1828,169.4776,33.8859,236.6711,89.6024,261.6252,216.9383,88.1158,612.2198-181.0431,700.0739-193.7268,63.2328-463.5048,92.6541-640.0588-15.9162C-29.35752,677.32811-29.35752,326.72611,52.87868,238.54881c31.6983-33.9884,62.3127-66.9492,100.3393-90.8386,55.3087-34.7465,113.9082-63.2286,174.54-85.1599Z"/><path class="cls-10" d="M501.85758,638.22811c-18.0039,6.7657-28.8483,27.2259-27.049,46.3747,1.7993,19.1488,14.6577,36.2119,31.2426,45.9513,16.5848,9.7395,36.4486,12.7856,55.6513,11.7048,17.5276-.9865,35.1888-5.4156,49.7722-15.1887,14.5833-9.7731,25.784-25.3245,27.9238-42.7489,2.1398-17.4244-5.889-36.3108-21.2034-44.8932l-116.3375-1.2Z"/><path class="cls-1" d="M795.31728,874.46021c-2.8435-38.5811-8.6579-98.8293-22.6649-129.0847-28.4642-61.484-86.7548-103.3312-154.4573-105.9474,0,0,56.1453,86.2566-63.6703,88.1447-97.6672,1.539-52.6672-89.3447-52.6672-89.3447-58.7267,10.583-117.0098,43.8067-145.4723,96.2539-14.4707,26.6648-21.8586,94.567-22.59,139.9782h461.522Z"/><path class="cls-6" d="M628.93098,685.98681c-2.6015,9.7697-9.5615,17.764-17.9254,23.1957-9.94,6.4548-21.6427,9.4355-33.1923,11.452-22.1604,3.8693-47.3484,5.465-66.5289-8.4274-8.6158-6.2404-15.1492-15.358-16.8607-25.9738-.2281-1.4147-1.9886-2.2014-3.2614-1.8517-1.5048.4137-2.0804,1.8425-1.8517,3.2615,1.6627,10.3128,7.6693,19.5187,15.5535,26.2135,8.7319,7.4143,19.4104,11.8461,30.6785,13.6313,13.028,2.0642,26.2155,1.0127,39.1798-.9998,12.4718-1.936,25.1029-4.7326,36.1765-11.0342,10.7569-6.1212,19.9072-15.8977,23.1451-28.0576.879-3.3008-4.2344-4.709-5.113-1.4095Z"/><path class="cls-10" d="M463.87108,723.92601c-1.4395-27.4365,4.2811-61.3088,22.0794-83.3237-51.9844,13.7699-104.1805,47.1037-129.5652,93.8796-14.4707,26.6648-26.242,94.5671-26.9734,139.9783h161.0891c-1.1552-3.7787-24.5491-110.8767-26.6299-150.5342Z"/><path class="cls-6" d="M471.97398,779.91281c-2.1558-16.4042-4.044-32.9121-4.8581-49.4436-.7835-15.9089-.3681-32.0223,3.1725-47.6095,3.5085-15.4452,9.9892-30.4158,20.4924-42.4145.9427-1.0768,1.0598-2.6895,0-3.7494-.962-.9621-2.8022-1.0818-3.7493,0-20.7241,23.6746-26.1905,55.982-25.4842,86.5058.3872,16.7349,2.229,33.4552,4.2766,50.0572,2.0713,16.7934,4.6263,33.5268,7.6848,50.1687,3.4202,18.6082,7.4679,37.0989,12.1199,55.4378.8385,3.3055,5.9538,1.9048,5.1131-1.4096-8.1453-32.1091-14.4515-64.6973-18.7677-97.5429Z"/><path class="cls-6" d="M361.01268,731.96671c11.1974-17.6793,25.2766-33.44,41.4157-46.7509,15.98-13.1797,34.0878-23.9646,53.3294-31.6455,10.9558-4.3734,22.2913-7.768,33.8507-10.1213,1.4037-.2857,2.2126-1.9481,1.8517-3.2613-.4012-1.46-1.8535-2.1383-3.2613-1.8517-20.932,4.2614-41.1482,11.9759-59.7092,22.5365-18.5527,10.556-35.5333,23.9968-50.0001,39.696-8.1888,8.8864-15.5896,18.5131-22.0554,28.7219-1.8312,2.8913,2.7555,5.5546,4.5785,2.6763h0Z"/><path class="cls-6" d="M351.51638,741.13941c-5.3328,16.3636-10.6471,32.7445-15.1257,49.3672-4.4931,16.6771-8.1148,33.6088-10.0284,50.7879-1.0658,9.5685-1.562,19.196-1.3746,28.823.0663,3.4078,5.369,3.4192,5.3024,0-.3298-16.9409,1.5015-33.8264,4.7185-50.445,3.2353-16.7134,7.7774-33.144,12.7714-49.4084,2.8467-9.271,5.8446-18.4946,8.8495-27.7152,1.0598-3.2519-4.0586-4.6453-5.1131-1.4095Z"/><path class="cls-10" d="M649.01088,689.59121c11.0236,43.061-17.5643,174.4411-21.5826,184.869h167.8703c3.1323-35.4621-8.6392-98.8294-22.6462-129.0848-27.6271-59.676-80.5582-103.5967-154.4573-105.9473,11.6721,14.6317,26.1267,31.846,30.8158,50.1631Z"/><path class="cls-6" d="M648.46848,673.45671c-5.3148-12.8476-13.3184-24.5108-24.4205-33.0203-1.3771-1.0555-2.7947-2.0529-4.2501-2.9975-2.8708-1.8632-5.5315,2.7254-2.6762,4.5786,11.1478,7.2353,19.412,17.9963,24.9609,29.9678,5.9063,12.743,8.5843,26.7603,9.0167,40.7396.537,17.3624-2.1003,34.6047-5.3203,51.6128-3.2599,17.2189-6.7873,34.3899-10.1995,51.579-3.4406,17.3318-6.881,34.6636-10.3216,51.9954l-1.2837,6.467c-.2786,1.4031.4004,2.8626,1.8517,3.2615,1.3041.3583,2.9811-.4406,3.2612-1.8518,3.4919-17.5905,6.9838-35.181,10.4758-52.7714,3.5014-17.6392,7.0609-35.2681,10.4938-52.9209,3.378-17.3707,6.4059-34.9698,6.4148-52.7194.0077-14.9757-2.2554-30.0274-8.003-43.9204Z"/><circle class="cls-7" cx="458.81155" cy="821.14041" r="38.25574"/><path class="cls-9" d="M458.81118,850.58811c-16.2371,0-29.4474-13.2103-29.4474-29.4473s13.2103-29.4481,29.4474-29.4481,29.4481,13.2103,29.4481,29.4481-13.2103,29.4473-29.4481,29.4473Z"/><circle class="cls-8" cx="458.81155" cy="821.14043" r="17.47819" transform="translate(-446.25117 564.93523) rotate(-45)"/><path class="cls-8" d="M502.42068,625.53531c-10.6755.2511-20.7435,5.8589-27.616,14.1351-8.6921,10.4674-12.1527,23.9155-14.1445,37.1029-4.4529,29.4803-5.7815,59.4045-6.1794,89.1833-.2244,16.792-.1179,33.5857-.0101,50.3782.015,2.3339,2.042,4.5712,4.4629,4.4628,2.4051-.1077,4.4789-1.9612,4.4628-4.4628-.1864-29.0079-.3703-58.0394,1.1532-87.0186.7606-14.4681,1.9482-28.9181,3.7722-43.2927.3879-3.0567.7078-5.4888,1.2779-9.003.5165-3.1845,1.119-6.3565,1.8753-9.4931.7504-3.1118,1.6515-6.1908,2.7759-9.189.2203-.5873.4516-1.1705.6894-1.7511.0785-.1785.2938-.6833.3088-.7167.1156-.258.2328-.5152.3521-.7716.7167-1.5397,1.5032-3.0473,2.3656-4.5106.7732-1.3118,1.6157-2.5759,2.5158-3.8035.1249-.162.3485-.4559.3892-.506.3242-.3981.656-.7898.9951-1.1752.5098-.5792,1.0363-1.1437,1.5786-1.6926,1.0863-1.0992,2.2399-2.1229,3.4391-3.097.0575-.0467.104-.0848.1443-.1181.0471-.0322.103-.0709.1741-.1206.3671-.257.7267-.5237,1.0972-.7761.685-.4667,1.3851-.9113,2.1008-1.3294.6569-.3838,1.3256-.7473,2.0063-1.0873.3388-.1691.6804-.3328,1.0247-.4903.1097-.0501.4643-.1932.6192-.2569,1.4199-.5388,2.8573-1.0055,4.3429-1.3355.2423-.0539.4855-.1045.7291-.152.1286-.0249.7805-.1216.9966-.1604.6242-.0678,1.2492-.1277,1.877-.1508.1412-.0052.2825.006.4239.0032v-8.8046Z"/><path class="cls-11" d="M612.70938,874.70871c-1.098-13.531-1.8716-23.6286-1.8915-23.8905-.1443-1.8815-1.7798-3.2912-3.6707-3.1501-1.8834.1441-3.2942,1.7875-3.1502,3.6708.0201.2595.7739,10.0956,1.8502,23.3698h6.8622Z"/><path class="cls-11" d="M705.51628,874.70871c1.4179-13.5075,2.429-23.5755,2.4554-23.8382.1886-1.8793-1.183-3.5553-3.0627-3.744-1.8868-.1855-3.5551,1.1851-3.7438,3.0625-.0265.266-1.0718,10.6779-2.5262,24.5197h6.8773Z"/><path class="cls-8" d="M612.05698,854.47101l-10.0575-.1186.4214-35.715c.3505-29.702,24.7989-53.5795,54.5014-53.229,29.7025.3504,53.5807,24.7981,53.2302,54.5001l-.4154,35.2119-10.0575-.1187.4155-35.2118c.285-24.1548-19.1363-44.0395-43.2915-44.3245-24.1554-.285-44.0402,19.136-44.3252,43.2907l-.4214,35.7149Z"/><path class="cls-8" d="M660.39388,769.45011c-.4618-22.8969-.9235-45.7938-1.3852-68.6907-.8952-20.6695,2.1567-44.1765-10.6149-61.921-6.4503-8.451-16.3139-14.9614-27.3392-14.1304-2.5857.1949-5.095,2.1457-4.9686,4.9685.1131,2.5247,2.1931,5.1778,4.9686,4.9686,1.4705-.1148,2.9498-.0961,4.4142.0876-1.1204-.1367.2463.071.6375.1556.971.2098,1.9276.4847,2.8641.8157.3542.1252,1.3956.5592.4829.1572,1.854.804,3.5989,1.8385,5.2389,3.0154.1686.1143.7442.5718-.0272-.0382,2.0571,1.6166,3.909,3.4879,5.5414,5.5307,10.2175,13.3651,8.2451,36.0482,8.832,54.7417.4727,23.4464.9455,46.8929,1.4183,70.3393.0524,2.5968,2.2479,5.0904,4.9686,4.9685,2.6471-.1185,5.0247-2.1845,4.9686-4.9685h0Z"/><rect class="cls-10" x="506.03278" y="575.60831" width="112.7948" height="118.6651"/><path class="cls-10" d="M369.96698,515.86951c-45.0567,7.3179-79.8404-38.4417-81.929-74.5689-.7191-17.3635,17.2028-27.6375,37.0125-28.3722,40.9385-2.0979,71.4741,34.0667,63.0625,60.3567-2.3311,17.0264-7.449,40.2512-18.146,42.5844Z"/><path class="cls-10" d="M737.69388,515.86951c45.0567,7.3179,79.8404-38.4417,81.929-74.5689.7191-17.3635-17.2028-27.6375-37.0126-28.3722-40.9384-2.0979-71.474,34.0667-63.0624,60.3567,2.3311,17.0264,7.449,40.2512,18.146,42.5844Z"/><path class="cls-10" d="M768.89548,381.11441c0,130.2475-47.5031,235.834-213.7639,235.834s-213.764-105.5865-213.764-235.834c0-51.9332,1.1461-105.446,28.7826-144.4079,41.6753-58.7539,109.1062-96.9265,185.1999-96.9265,72.2495,0,136.6892,34.4131,178.6886,88.1815,31.568,40.4141,34.8568,97.2632,34.8568,153.1529Z"/><ellipse class="cls-6" cx="660.13218" cy="381.52886" rx="20.08025" ry="16.17459" transform="translate(259.22335 1030.07405) rotate(-88.30316)"/><ellipse class="cls-6" cx="467.4693" cy="375.82231" rx="20.0803" ry="16.17462" transform="translate(77.97198 831.96021) rotate(-88.30347)"/><path class="cls-6" d="M685.79528,349.15371c-2.0057.4414-4.2452-2.0671-7.409-5.0497-.4089-.3715-.8161-.7611-1.219-1.1694-.4138-.4022-.9223-.7677-1.374-1.1801-.8704-.8518-1.9739-1.5998-2.9974-2.465-2.2022-1.6017-4.649-3.2255-7.3868-4.687-2.7731-1.3959-5.5105-2.4604-8.089-3.3375-1.2973-.3378-2.5447-.8085-3.7426-1.029-.5971-.1316-1.1888-.3365-1.756-.4429-.5658-.094-1.119-.2024-1.6584-.3224-4.2606-.867-7.6009-1.2518-8.3957-3.1453-.3673-.9105.0313-2.0318,1.2483-3.3294.3038-.3238.6581-.6579,1.0625-1.0005.4087-.3234.881-.5958,1.3965-.9004,1.0355-.5748,2.2639-1.265,3.6987-1.6462.7149-.221,1.476-.4349,2.2796-.6394.8028-.1919,1.642-.2613,2.5231-.3767,1.7724-.2716,3.6476-.1837,5.6492-.0867,3.9522.3858,8.2483,1.5289,12.34,3.6128,4.0596,2.1427,7.4685,4.9947,10.0607,8.002,1.2323,1.5796,2.3848,3.0615,3.184,4.6664.4137.7865.8403,1.5122,1.1461,2.2789.2961.7746.5598,1.5197.791,2.2316.5153,1.3924.6593,2.7939.7861,3.9717.0481.5966.0977,1.1396.069,1.6601-.0468.5278-.1157,1.0102-.2055,1.4448-.3592,1.7428-1.0458,2.7148-2.0014,2.9393Z"/><path class="cls-6" d="M486.68688,333.07581c-.8984,1.8257-4.1777,2.0733-8.4863,2.4089-.545.0507-1.1044.0885-1.6763.1123-.5736.031-1.1796.1353-1.7868.1798-1.2123.056-2.5027.2882-3.8295.4098-2.664.3958-5.5172.892-8.4809,1.6244-2.9504.7889-5.6895,1.7313-8.2141,2.6704-1.2209.5338-2.4632.9534-3.5522,1.4892-.5532.2544-1.1343.4552-1.6517.7049-.5124.2554-1.0206.4922-1.5224.7108-3.9357,1.7856-6.9269,3.1506-8.5948,1.985-.7983-.572-1.0919-1.7103-.8435-3.39.1131-.8487.379-1.8141.8629-2.8204.4715-1.0156,1.0361-2.2015,1.8879-3.3044.411-.5689.859-1.1571,1.3431-1.7613.4882-.5984,1.0639-1.1389,1.6476-1.73,1.1529-1.2109,2.5644-2.2635,4.0764-3.3701,3.0885-2.0777,6.8409-3.877,11.0129-4.9775,4.1837-1.049,8.3376-1.2832,12.0447-.954,1.8582.2396,3.6022.4805,5.1961.9843.7964.2362,1.5614.4317,2.2778.7202.7155.2958,1.3918.5946,2.0262.8945,1.2784.5548,2.3454,1.321,3.2483,1.9829.9096.6482,1.6086,1.3654,2.1172,2.0541,1.0282,1.3514,1.3205,2.49.8974,3.3762Z"/><circle class="cls-5" cx="434.10193" cy="451.67256" r="49.79457" transform="translate(-192.23522 439.24825) rotate(-45)"/><path class="cls-2" d="M420.16288,435.06331c-2.773,5.5933-5.546,11.1866-8.319,16.7798-.3846.7757-.619,1.4911-.4272,2.3715.1644.7545.6958,1.5828,1.3749,1.979,1.3393.7815,3.5692.6281,4.3504-.9477,2.773-5.5932,5.546-11.1865,8.319-16.7798.3846-.7757.619-1.491.4272-2.3715-.1644-.7545-.6958-1.5827-1.3749-1.9789-1.3393-.7815-3.5692-.6281-4.3504.9476h0Z"/><path class="cls-2" d="M445.86038,426.61351c-4.8104,11.6676-9.6207,23.3353-14.4311,35.003-.6484,1.5728.4914,3.4707,2.0204,3.9685,1.7234.5611,3.3186-.444,3.9685-2.0204,4.8104-11.6677,9.6208-23.3354,14.4311-35.0031.6485-1.5728-.4914-3.4707-2.0204-3.9685-1.7234-.5611-3.3186.444-3.9685,2.0205h0Z"/><circle class="cls-5" cx="678.80403" cy="456.97676" r="49.79457" transform="translate(-124.31427 613.83233) rotate(-45)"/><path class="cls-2" d="M668.08438,438.11151l-10.287,26.1738c-.6222,1.5831.4727,3.4645,2.0205,3.9685,1.7017.554,3.3448-.4336,3.9685-2.0205,3.4289-8.7246,6.8579-17.4492,10.2869-26.1738.6222-1.5831-.4726-3.4645-2.0204-3.9685-1.7017-.554-3.3448.4336-3.9685,2.0205h0Z"/><path class="cls-2" d="M692.12218,441.79181c-2.3863,5.8417-4.7726,11.6833-7.1588,17.525-.6246,1.5288.4645,3.5352,2.0204,3.9685,1.7448.4858,3.302-.3889,3.9685-2.0205,2.3862-5.8416,4.7725-11.6833,7.1588-17.5249.6245-1.5289-.4646-3.5352-2.0205-3.9685-1.7447-.4859-3.3019.3888-3.9684,2.0204h0Z"/><path class="cls-6" d="M544.23038,465.29971c5.6643-11.3166,18.7718-18.6425,31.4403-16.8591,1.4161.1993,2.8476-.3459,3.2613-1.8518.3412-1.2414-.4247-3.0604-1.8517-3.2613-14.9603-2.106-30.6042,5.662-37.4284,19.2959-1.5231,3.043,3.0493,5.7315,4.5785,2.6763h0Z"/><path class="cls-6" d="M555.61458,401.18141c1.8907,1.6447.5235,3.5288-.8292,5.3249-1.5949,2.1175-3.2847,4.0679-4.1721,6.4906-1.6527,4.512-.9877,9.9165,2.4091,13.7819,2.0967,2.386,4.9258,4.0608,8.3253,4.9404,3.2655.8448,4.6623-3.4051,1.4096-4.2466-6.204-1.6051-8.6566-7.279-7.3946-12.1377.7476-2.8783,2.9116-4.9436,4.657-7.5156,2.2277-3.2827,2.6738-6.8557-.6557-9.7519-2.3612-2.0539-6.107,1.0632-3.7494,3.114h0Z"/><path class="cls-10" d="M776.57588,324.03711c-3.1756-25.7588-6.972-52.077-14.7802-76.9018-7.57-24.0677-20.1817-44.7131-39.2272-61.3896-18.6299-16.3127-39.4319-31.6649-61.3864-43.1866-19.2302-10.092-39.86-16.6478-61.1311-16.4971,1.25-3.5131,1.1653-7.4585-1.0906-10.486-7.2907-9.7845-17.8151-15.7155-29.2149-17.2521.7859.0086,1.574.0338,2.364.0777,16.7052.9277,16.6529-25.0549,0-25.9797-22.5398-1.2517-44.4935,8.2511-60.0799,24.0218-3.5143-4.7705-9.7652-7.2781-16.271-3.1723-14.1383,8.9227-19.7206,27.1441-14.3964,42.1402-36.0295,7.4269-71.7273,19.0125-99.0944,44.3771-35.8675,33.2429-45.2942,83.0474-49.6612,129.5951-2.8669,30.5582-4.7363,61.2298-7.025,91.8357-.5239,7.0046,6.3452,12.9899,12.9899,12.9899,7.4652,0,12.4645-5.9652,12.9898-12.9899,1.9642-26.2656,3.8276-52.541,5.9076-78.7978,1.7177-21.6831,3.9837-43.384,9.6057-64.4563.583-2.1849,1.2112-4.3614,1.8746-6.5285,1.5674,5.1016,4.6801,9.8242,9.865,13.7805,17.8177,13.5956,41.8595,2.0656,59.4739-5.7956,19.5006-8.7028,38.0745-19.4738,55.3361-32.0445.8264-.6018,1.6316-1.2287,2.4523-1.8374-.7821,9.2875,1.1517,18.392,8.2629,25.499,7.3802,7.3759,17.8524,10.4813,28.0116,11.1793,23.2948,1.6002,45.6686-9.6968,64.2766-22.5838,6.18-4.2799,12.2283-8.7635,18.1728-13.3871-.4228,5.3429-.2214,10.7927.8043,16.3638,4.316,23.4439,22.8076,37.1797,45.5991,40.1967,27.1118,3.5889,58.1559-4.5913,76.7362-24.7222,6.0939,20.5575,9.5959,42.1379,12.3255,63.317,3.6212,28.0977,5.1468,56.4348,4.837,84.7577-.1829,16.7226,25.7967,16.7345,25.9798,0,.3002-27.4447-1.1478-54.8796-4.5064-82.1232Z"/><path class="cls-6" d="M511.19838,199.54731c-1.733-.3948-3.788.5211-4.205,2.3875-.9887,4.4253-2.3353,7.6723-4.7466,11.4494-.5578.8737-1.1488,1.7304-1.7808,2.5527-.0467.0588-.1079.1359-.1428.1785-.1858.2263-.37.4537-.5587.6776-.3397.4029-.6873.7991-1.0434,1.1875-.7515.82-1.5392,1.6068-2.3603,2.357-.3889.3555-.7849.7032-1.1888,1.0416-.4892.41-.7158.5883-.9613.773-1.4728,1.1084-2.2352,2.9521-1.2263,4.677.8488,1.4511,3.1931,2.3432,4.677,1.2263,7.9606-5.9913,13.7413-14.5315,15.9246-24.3032.3889-1.741-.5272-3.7812-2.3876-4.2049Z"/><path class="cls-6" d="M482.09788,134.24411c-1.2803-8.9094,2.1387-18.1423,6.1954-25.9201,3.4184-6.5538,9.728-14.4279,18.1347-13.101,3.6861.5818,6.9179,3.2085,7.6659,6.9231.2828,1.4044,1.9502,2.212,3.2613,1.8517,1.4624-.4018,2.1354-1.8529,1.8518-3.2613-.9362-4.649-4.5567-8.1772-8.8526-9.8919-4.5898-1.8321-9.7495-1.0134-14.0718,1.1472-4.573,2.2859-8.1077,6.2155-10.7766,10.5032-2.8275,4.5426-5.0304,9.6282-6.6771,14.7109-1.9392,5.9858-2.7417,12.2013-1.8441,18.4478.2039,1.4186,2.0056,2.1968,3.2614,1.8517,1.5236-.4187,2.0562-1.8384,1.8517-3.2613h0Z"/><path class="cls-6" d="M517.33418,97.43261c8.9814-9.4036,20.5248-16.1163,33.1084-19.3775,6.0263-1.5617,12.438-2.503,18.6746-2.1195,4.3803.2694,10.24,1.622,11.7625,6.2053,1.0207,3.0727-.3265,6.5245-2.2958,8.9179-2.3984,2.9149-5.6819,4.8968-8.8538,6.8529-2.8993,1.788-.2392,6.3765,2.6763,4.5785,6.4756-3.9935,13.2375-8.8295,14.056-17.0406.7169-7.1929-4.9004-12.2012-11.3392-13.9025-6.6572-1.7591-13.9726-.9818-20.6572.2081-7.317,1.3024-14.4265,3.766-21.0413,7.1464-7.3707,3.7666-14.1231,8.796-19.8399,14.7816-2.357,2.4678,1.3868,6.2231,3.7494,3.7494h0Z"/><path class="cls-6" d="M732.99738,259.51331c-15.0063,9.4301-32.1993,15.3582-49.86,17.0184-15.221,1.4309-32.2742.7223-45.8258-7.1456-6.396-3.7133-11.552-9.1474-13.2924-16.473-1.0165-4.2789-7.6105-2.4674-6.5925,1.8174,3.7478,15.7753,19.7213,24.1699,34.4278,27.2481,18.0177,3.7712,37.5776,2.0545,55.1151-3.2028,10.3594-3.1055,20.3218-7.605,29.4785-13.3592,3.7164-2.3354.2891-8.2535-3.4507-5.9033Z"/><path class="cls-6" d="M598.40288,221.09331c-1.3116-1.2041-3.549-1.4126-4.8343,0-5.2957,5.8198-10.5914,11.6396-15.8872,17.4593-1.2034,1.3226-1.4042,3.5454,0,4.8344,1.3117,1.2041,3.549,1.4125,4.8344,0,5.2957-5.8198,10.5914-11.6396,15.8871-17.4594,1.2035-1.3225,1.4043-3.5452,0-4.8343Z"/><path class="cls-6" d="M607.45858,124.02901c-2.3042-8.4797-7.5294-15.8027-14.6126-20.9509-1.4515-1.0549-3.8731-.295-4.677,1.2264-.9375,1.7745-.3229,3.551,1.2264,4.677.1998.1453.3969.2945.5964.4401.0083.006.0081.0056.0154.0109.035.029.0597.0499.1113.0922.3439.2819.6869.5645,1.0219.8569.7073.617,1.389,1.2634,2.0429,1.9367.6539.6735,1.28,1.374,1.8768,2.0986.1425.1729.2816.3486.4221.5232.0171.0228.029.0381.0505.0672.2932.398.5833.7976.8623,1.2058,1.0317,1.5093,1.9442,3.1001,2.7249,4.7532.1055.2233.2046.4497.3095.6732.0251.0533.0396.0836.055.1155.0036.0093.0038.0104.0083.0217.1635.4136.3295.8257.4821,1.2435.3391.9287.632,1.8723.8912,2.8263.4688,1.7251,2.4524,2.9547,4.205,2.3875,1.7676-.572,2.89-2.356,2.3876-4.205Z"/><path class="cls-6" d="M815.03698,422.22981c-8.7975-10.6703-23.6459-11.336-36.3721-11.3716-.4631-.0012-.8664.0873-1.2321.2218.15-.3939.234-.842.215-1.3565-.8968-24.3265-1.7935-48.6531-2.6903-72.9797-.8206-22.2599-.9144-44.7141-3.4203-66.8678-2.3177-20.4897-7.1665-41.1541-18.6396-58.5928-11.6945-17.7752-28.9045-30.9473-46.2348-42.8554-18.4968-12.7097-38.0402-23.8955-58.3672-33.4077-2.5528-1.1946-5.1185-2.3608-7.6946-3.5042-1.6861-.7485-3.6727-.4907-4.677,1.2264-.8516,1.456-.4696,3.9241,1.2264,4.677,20.2294,8.9793,39.7331,19.5683,58.2585,31.6809,17.2348,11.2688,34.8019,23.595,47.565,39.9971,12.4262,15.9692,18.2468,35.592,21.0469,55.3698,3.0143,21.291,3.0213,43.0174,3.8121,64.4696.8842,23.9871,1.7685,47.9743,2.6528,71.9614.1085,2.9418.2169,5.8837.3254,8.8254.1023,2.7771,2.8777,3.7985,4.8613,3.0601-.8581,2.0194.1295,4.9034,2.9925,4.9114,9.9239.0278,21.4501-.0651,29.2986,7.0309,3.5197,3.1822,5.4134,7.2926,5.6875,12.0321.2981,5.1557-.5468,10.3969-1.5009,15.4487-3.7458,19.8323-12.9216,39.5056-29.5024,51.7597-8.6281,6.3766-18.8078,10.7355-29.5737,11.5227-1.8414.1346-3.4184,1.4747-3.4184,3.4184,0,1.7456,1.5672,3.5537,3.4184,3.4184,22.2404-1.6261,41.5512-15.6619,52.9875-34.3625,6.0262-9.8541,10.0387-20.9405,12.3457-32.2329,2.2724-11.1226,4.4402-24.0277-3.3702-33.5007Z"/><path class="cls-6" d="M451.95038,138.84481c-.9979-1.706-3.0034-2.0218-4.677-1.2264-17.0004,8.0809-34.0427,16.3179-49.6906,26.8532-15.5306,10.4565-29.6416,23.27-39.4554,39.3623-10.8506,17.7924-16.0357,38.3465-19.519,58.6981-3.8613,22.5597-6.4656,45.3805-8.1886,68.1988-1.7583,23.2862-2.4695,46.6516-2.1275,70.0018.0427,2.9187.1031,5.8372.1775,8.7553.008.3147.0587.6005.1307.8702-11.3394,1.3073-22.9073,3.3523-32.3133,10.1647-4.84,3.5053-8.9403,7.9839-11.3519,13.5027-2.5186,5.7633-3.3959,12.1346-2.7593,18.385,1.3234,12.9963,8.298,24.2067,16.343,34.1572,7.3764,9.1233,16.0609,17.3079,25.9536,23.6552,11.005,7.0608,23.6733,11.5644,36.8277,11.6927,4.4006.0429,4.4042-6.7939,0-6.8368-21.4024-.2087-40.1339-13.1918-53.932-28.6223-7.4447-8.3255-14.5455-17.9103-17.3831-28.8799-2.6704-10.323-.8684-21.5134,7.1498-28.9823,9.8055-9.1339,24.0101-10.6394,36.7251-11.9718,1.8359-.1924,3.4184-1.4334,3.4184-3.4184,0-1.2408-.8419-2.5869-2.0134-3.1521.0223-.1823.0465-.3634.0414-.5641-.5836-22.8972-.1735-45.8163,1.2547-68.6766,1.4259-22.8239,3.8381-45.593,7.3043-68.1978,3.0407-19.8291,6.9852-40.0431,16.1302-58.0781,8.3832-16.5324,21.2295-29.9922,36.1825-40.7784,14.999-10.8193,31.5739-19.221,48.2026-27.2075,2.1121-1.0143,4.2273-2.0219,6.3433-3.0277,1.6673-.7925,2.1017-3.1805,1.2263-4.677Z"/><path class="cls-6" d="M620.50348,112.12591c-1.9539-.5368-3.5093.6693-4.205,2.3876-3.5039,8.6544-4.3625,18.0797-2.901,27.2697.2903,1.8247,2.5668,2.8377,4.2051,2.3876,1.9433-.5342,2.6786-2.375,2.3875-4.2051-1.2673-7.9683-.1228-16.166,2.901-23.6348.6931-1.7119-.7541-3.7561-2.3876-4.205Z"/><path class="cls-6" d="M353.92568,355.80751c-.2284-4.3774-7.0666-4.4043-6.8368,0,.8283,15.8725,1.6567,31.7451,2.485,47.6176.2284,4.3773,7.0666,4.4044,6.8368,0-.8283-15.8725-1.6567-31.7451-2.485-47.6176Z"/><path class="cls-6" d="M614.83598,235.30701c-33.4733,29.0577-85.7203,31.3302-121.9168,6.032-1.0973-.7668-2.9123-.7214-4.0144,0-32.9941,21.5932-74.8654,26.5897-112.0286,13.4325-.1347-.0476-.2587-.0621-.3889-.0955-.5826-3.8548-6.7627-5.0749-7.7088-.6052-10.0198,47.3393-13.5168,95.8612-10.2541,144.1423.3433,5.0797,8.2996,5.1178,7.9537,0-3.0688-45.4133-.1789-91.011,8.6758-135.6398,38.1399,13.365,81.5175,8.4037,115.7082-13.0639,39.1359,25.9798,94.1619,22.1834,129.598-8.5782,3.8722-3.3615-1.7733-8.9669-5.6241-5.6242Z"/><path class="cls-6" d="M749.88218,308.80381c-1.1289-12.577-1.381-26.0231-4.6953-38.26-2.5951-9.5824-8.5697-18.0305-18.3269-21.0902-4.8955-1.5352-6.9898,6.1406-2.1143,7.6695,10.9602,3.4371,13.4066,15.995,14.6051,25.9462,1.4447,11.9955,2.484,24.0567,3.4647,36.0975,1.9421,23.8451,3.1872,47.7408,3.7915,71.6568.1289,5.109,8.0831,5.1286,7.9537,0-.6918-27.3823-2.23-54.7378-4.6785-82.0198Z"/><path class="cls-12" d="M506.88188,620.63561c-.179-3.1234-.6613-6.2221-2.8729-8.6034-1.9678-2.1187-4.8113-3.0713-7.5208-3.8267-13.4616-3.7528-26.9502-7.4109-40.4242-11.1179-12.0495-3.315-23.8422-6.8957-33.9076-14.5962-9.6725-7.4001-17.7902-17.0184-25.3535-26.491-8.9057-11.1535-16.8196-23.0994-23.7583-35.5681-2.1399-3.8452-8.047-.4013-5.9034,3.4507,6.0863,10.9368,12.9307,21.4438,20.5096,31.4057,7.4597,9.8054,15.4395,19.4999,24.6006,27.7764,4.4991,4.0648,9.3787,7.7957,14.7024,10.7183,5.5973,3.0727,11.6424,5.2975,17.7341,7.1662,12.855,3.9434,25.9347,7.2345,38.8987,10.8001,3.6946,1.0161,7.3928,2.0201,11.0839,3.0484,2.5339.7059,4.7739,1.2667,5.2417,4.1508.5569,3.4321.3626,7.1543.3389,10.6219-.0262,3.8634-.2103,7.7222-.5271,11.5725-.1519,1.8423,1.6794,3.4184,3.4183,3.4184,1.9756,0,3.2662-1.5708,3.4184-3.4184.5609-6.8148.7129-13.6785.3212-20.5077Z"/><path class="cls-6" d="M737.41658,522.38121c-12.1974,19.5719-28.0433,36.9269-46.4229,50.8654-18.5746,14.0864-39.327,24.439-61.5715,31.2967-2.8242.8707-5.6856,1.8973-8.063,3.6934-3.2514,2.4562-4.4983,5.6896-4.986,9.6434-1.0135,8.217-1.8699,16.4566-2.8042,24.6831-.2086,1.8373,1.7206,3.4184,3.4184,3.4184,2.0214,0,3.2093-1.5758,3.4184-3.4184.8229-7.2463,1.6458-14.4926,2.4685-21.7388.2789-2.4569.2322-5.2598,2.2949-6.9606,1.8232-1.5034,4.3094-2.1933,6.5223-2.8657,11.125-3.3802,21.9535-7.6356,32.3422-12.8676,20.6622-10.406,39.5402-24.5122,55.4143-41.3392,8.9533-9.4908,16.9713-19.8865,23.872-30.9594,2.3338-3.7447-3.5786-7.1809-5.9034-3.4507Z"/><path class="cls-10" d="M707.55338,685.43701c-.6994-6.2256-3.703-11.7727-6.6518-17.1911-2.7632-5.0775-5.5265-10.1547-8.2896-15.2319,7.1178-33.7758-5.4393-67.4566-6.1256-90.8359-.1186-4.0388-.4292-8.5282-3.3669-11.3023-5.9914-5.6579-15.5876.9685-20.072,7.882-4.4845,6.9135-10.0853,15.6718-18.2341,14.4449-3.9105-.5887-7.0145-3.4852-9.8489-6.2427-25.2449-24.561-30.9802-33.8371-54.3821-60.16-16.6828-18.765-26.4409-2.3925-15.0799,13.3627,11.3611,15.7553,45.2691,62.0666,45.2691,62.0666,0,0-11.9082-3.1209-21.6609,2.6372-16.1957,9.562-28.805,43.5851-15.5307,64.1472,11.0538,17.1222,47.14,45.3285,64.0071,58.9867,1.089,2.3558,2.391,4.6099,3.9021,6.7071,2.7564,3.8257,6.0721,7.1462,9.9522,9.8334,4.2016,2.9099,9.4392,5.3715,14.6707,5.0046,5.5307-.3877,10.0384-3.8334,14.3218-7.0351,4.4948-3.3599,8.8155-6.9483,12.9082-10.7882,7.3312-6.8776,15.4359-15.3832,14.2113-26.2852Z"/><path class="cls-10" d="M829.76578,874.55071c-28.3816-77.0595-65.9461-162.9274-118.3602-226.1437-19.3893,27.078-44.0958,50.3331-72.2913,68.0488,12.3678,53.1873,22.9804,106.7827,31.8144,160.6697l158.8371-2.5748Z"/><path class="cls-6" d="M837.03568,878.98781c-5.838-15.9752-12.1061-31.7896-18.7785-47.4344-6.6448-15.5804-13.7055-30.9831-21.1709-46.1873-7.4654-15.2044-15.3355-30.21-23.5989-44.9955-8.2633-14.7858-16.9199-29.3518-25.9592-43.6764-9.0392-14.3244-18.46-28.408-28.252-42.2289-1.0838-1.5299-2.174-3.0553-3.2667-4.5788.3713-.9493.2891-1.998-.5314-2.8185-.9129-.9129-2.8682-1.1392-3.7494,0-3.4729,4.4895-7.0832,8.8747-10.8102,13.1596-1.515-3.2098-3.3492-6.2258-5.483-9.0737.7729-.4622,1.2377-1.3264,1.3508-2.2958,1.4126-12.112,1.2163-24.3238-.467-36.3974-.8353-5.9919-2.0532-11.929-3.6572-17.7626-1.5582-5.6668-3.5342-11.2964-4.3121-17.1448-.7156-5.3796.3552-10.425.9222-15.7414.5071-4.756.0589-9.9512-3.6085-13.4392-3.5009-3.3298-8.6272-3.7767-13.0971-2.4342-4.8634,1.4607-8.572,4.7054-11.7288,8.5706-3.3682,4.1242-6.3454,9.2766-11.1004,11.9649-3.6182,2.0455-8.6275,2.9035-11.5904-.4456-.6524-.7373-21.6053-20.2156-30.8776-30.3578-4.7324-5.1763-9.3838-10.4267-13.9527-15.748-2.2844-2.6606-4.548-5.3392-6.7905-8.0351-2.1315-2.5625-4.1592-5.2483-6.4652-7.6586-3.9971-4.1779-9.8749-7.3753-15.7252-5.1514-2.8114,1.0686-4.9768,3.1828-5.8402,6.1074-.9131,3.0929-.1733,6.4797.9347,9.417,2.4104,6.3905,5.9712,12.2737,9.8332,17.8785,4.0257,5.8423,8.3036,11.5175,12.6379,17.1331,7.9893,10.3511,16.3142,20.4317,24.7061,30.4567-4.4016-1.0657-8.9342-1.2777-13.3587.2462-5.2725,1.816-9.6942,6.3453-10.762,11.6843-6.2794,1.7614-11.2191,6.847-13.6261,12.8494-2.1077,5.2558-1.798,11.1372.2683,16.3338-3.3785,6.8345-3.1088,14.7241-.4235,21.775,2.9259,7.6824,8.0786,13.9337,14.2405,19.2724,6.3956,5.5414,13.5285,10.1637,19.8655,15.7753,3.3494,2.9664,6.347,6.2861,9.5552,9.3982,3.2813,3.1827,6.9532,5.7628,10.5835,8.5152,6.3656,4.8266,10.1594,11.5929,13.303,18.7248-.3795.5451-.5579,1.2485-.369,2.076,4.7787,20.9286,9.5566,41.8596,13.9242,62.8789,4.3637,21.0006,8.3204,42.0929,11.4459,63.3159,1.7543,11.9122,3.2288,23.8644,4.3762,35.8504.1364,1.4253,1.1209,2.6512,2.6512,2.6512,1.3281,0,2.7885-1.2171,2.6512-2.6512-2.066-21.5817-5.1964-43.0517-8.9938-64.3933-3.7752-21.2171-8.2052-42.3117-12.868-63.3496-2.3205-10.47-4.7016-20.9268-7.0878-31.3818.6289-.5101,1.0747-1.3016,1.0576-2.0933,21.5005-14.0171,41.204-30.804,58.3776-49.881,3.8926-4.3242,7.6473-8.7698,11.2753-13.3174,9.2517,12.9638,18.1931,26.1483,26.7838,39.5597,9.093,14.1955,17.8089,28.6328,26.1366,43.2904,8.3277,14.6579,16.2671,29.5363,23.8072,44.6144,7.5759,15.1493,14.7486,30.5005,21.5071,46.0317,6.6988,15.3945,12.9754,30.9725,18.8373,46.7049.7253,1.9464,1.4438,3.8955,2.1568,5.8466.4912,1.3443,1.8,2.2533,3.2614,1.8518,1.2957-.356,2.3455-1.9098,1.8517-3.2613ZM657.16938,701.17561c-5.2361,3.9611-10.6148,7.7292-16.1049,11.3294-2.6476-6.0771-5.7066-12.0155-10.3574-16.8149-2.9543-3.0486-6.5495-5.3084-9.8896-7.8905-3.511-2.7144-6.5344-5.987-9.6442-9.1353-5.9374-6.0111-12.75-10.8693-19.3987-16.0379-6.1505-4.7814-12.1426-9.989-15.9699-16.8824-3.0974-5.5787-4.8915-12.3717-3.2958-18.5963,2.2329,2.95,5.0346,5.4362,8.2576,7.2763,2.9681,1.6945,5.6425-2.8851,2.6762-4.5786-6.5732-3.7527-11.2635-10.9671-10.6956-18.6941.4367-5.9426,4.4713-11.3385,9.9069-13.5657.0773.2949.143.5896.2436.8852,1.5333,4.5082,4.899,8.3708,7.604,12.2154.8228,1.1695,2.3177,1.7172,3.6274.9512,1.1569-.6768,1.7792-2.4506.9511-3.6275-1.4584-2.0729-2.9305-4.1372-4.3741-6.2204-1.1063-1.5961-2.2655-3.2616-2.828-5.1414-.2072-.6926-.3042-1.3893-.3126-2.0792.0442-.2517.054-.5029.0289-.7488.2086-2.4634,1.5647-4.7809,3.4999-6.4099,6.622-5.5738,16.4139-2.1054,23.2248,1.0859,1.2958.6071,2.8588.3629,3.6274-.9512.6725-1.1497.3513-3.0171-.9511-3.6273-.1582-.0741-.3195-.1463-.4786-.2199-.0499-.0691-.0934-.1416-.1489-.2077-8.7414-10.4031-17.4845-20.8085-25.9112-31.4698-4.1769-5.2846-8.2687-10.6362-12.2392-16.0777-3.7778-5.1777-7.5048-10.4265-10.5504-16.0777-1.4343-2.6614-2.8174-5.4322-3.6927-8.3351-.6338-2.1016-1.1717-4.9604.6821-6.6185,3.607-3.2262,8.7609.0859,11.5048,2.9096,2.1433,2.2058,4.0144,4.6803,5.9755,7.0452,2.1318,2.571,4.283,5.1258,6.4528,7.6648,4.3397,5.0777,8.755,10.0909,13.2438,15.0374,10.1005,11.1298,20.5745,21.9177,31.3914,32.3525.6415.6188,7.5446,4.6596,13.6223,3.2643,4.7282-1.0855,8.6581-3.8783,11.8045-7.4592,3.328-3.7877,5.9781-8.196,9.7632-11.5737,2.7681-2.4703,7.1317-4.3414,10.7967-3.4373,4.0411.9967,5.072,4.9928,4.9364,8.7221-.1824,5.0183-1.59,9.8861-1.3726,14.9371.2565,5.959,1.8896,11.73,3.5426,17.4233,1.6372,5.6387,3.0874,11.3067,4.105,17.0933,2.3113,13.1429,2.6067,26.6239,1.0704,39.8729-.4408.1227-.8473.3365-1.1385.6536-1.0522,1.1463-.9395,2.5984,0,3.7496.1886.231.3739.4647.5609.6971.0378.0484.0627.0801.085.1086.0611.0802.1222.1602.1829.241.3584.4768.7078.9604,1.0481,1.4504.6804.98,1.3242,1.9856,1.9294,3.0137.6053,1.0282,1.1722,2.0788,1.6988,3.1494.2634.5352.5167,1.0755.7598,1.6202.031.0696.2178.5041.2503.5748.0728.1763.1447.3529.2157.5299-12.1335,13.4111-25.4991,25.7168-39.9162,36.6238Z"/><circle class="cls-4" cx="972.73278" cy="135.58398" r="132.05607" transform="translate(189.03448 727.53757) rotate(-45)"/><path class="cls-10" d="M953.87608,202.12531c-3.3742,6.3347-10.7829,8.5941-17.1176,5.2199-6.3346-3.3735-8.5957-10.7827-5.2215-17.1174,3.3741-6.3356,10.7854-8.5945,17.12-5.2211,6.3347,3.3743,8.5934,10.7839,5.2191,17.1186ZM952.24858,170.22851c2.9302-5.5017,4.0847-7.6684,6.3483-10.3138,5.4185-6.958,14.2602-12.3071,26.8567-15.8697,13.7082-4.0409,13.9641-4.1195,17.8298-6.5538,5.4963-3.4924,9.5829-7.949,12.424-13.2838,3.7291-7.0015,4.6813-14.4138,2.6544-21.0567-2.0365-6.2201-6.4712-11.1502-13.8057-15.0567-9.8368-5.239-18.7925-5.3015-25.8557-.075-3.9634,3.0248-6.6735,6.5035-10.4804,13.2489-2.9303,5.501-5.651,6.1914-11.3195,3.1737-6.5017-3.4633-8.3469-7.2293-5.7723-12.0634,4.8835-9.169,15.5223-15.4853,27.022-15.7812,9.8113-.3378,19.7117,2.3669,30.3798,8.0502,23.8396,12.6962,32.3274,30.913,22.6488,49.0842-4.0839,7.6683-9.7025,12.5933-17.4581,15.0969q-5.4536,1.8031-20.9517,3.1784c-16.5993,1.4314-26.7269,7.5921-34.5196,21.4179l-6.0008-3.1961Z"/><circle class="cls-4" cx="164.54535" cy="166.04306" r="94.59093" transform="translate(-69.21595 164.98402) rotate(-45)"/><path class="cls-10" d="M193.04398,187.16321c-4.3459-2.7334-6.058-3.8102-8.0972-5.8279-5.3953-4.8637-9.2658-12.4442-11.4456-23.0048-2.5071-11.5016-2.556-11.7161-4.3276-15.0359-2.5428-4.7237-5.9627-8.345-10.1769-10.9956-5.5312-3.4788-11.5636-4.6998-17.1413-3.4293-5.2314,1.3044-9.5451,4.6564-13.1897,10.451-4.8869,7.7701-5.4685,15.1235-1.5939,21.2363,2.2496,3.4366,4.9472,5.8685,10.2639,9.3962,4.346,2.7334,4.7518,5.0103,1.9356,9.488-3.2304,5.1361-6.4334,6.4298-10.2526,4.0278-7.2432-4.5557-11.8019-13.6718-11.3628-23.1366.3033-8.0799,3.1129-16.0537,8.414-24.4822,11.8447-18.8325,27.3138-24.7255,41.6686-15.697,6.058,3.8102,9.7711,8.7187,11.3688,15.2373q1.1579,4.5878,1.3689,17.4022c.1919,13.7213,4.6529,22.4084,15.5497,29.6295l-2.9819,4.741ZM219.34608,187.71611c5.0044,3.1475,6.4215,9.3688,3.274,14.3732-3.1476,5.0044-9.3688,6.4215-14.3732,3.274-5.0045-3.1476-6.4216-9.3688-3.274-14.3732,3.1475-5.0045,9.3688-6.4216,14.3732-3.274Z"/><circle class="cls-4" cx="259.14875" cy="253.36971" r="14.39059"/><circle class="cls-4" cx="899.25778" cy="307.40498" r="33.71915" transform="translate(311.43028 1054.14537) rotate(-70.66312)"/><circle class="cls-4" cx="861.98328" cy="354.55906" r="14.39063" transform="translate(74.89202 853.77308) rotate(-54.74379)"/><path class="cls-6" d="M259.27528,142.02041c-4.8377-19.1443-15.5871-36.7409-30.529-49.6667-3.8492-3.3298-7.9542-6.3722-12.257-9.09-17.0598-10.684-37.3031-15.9802-57.4154-14.7979-19.8425,1.1665-38.9751,8.3557-54.6692,20.5436-16.0896,12.4952-28.0087,30.1712-33.7179,49.7179-5.5037,18.8419-5.1145,39.3335,1.061,57.9635,6.3557,19.1737,18.5482,35.9386,34.7619,47.9654,16.2884,12.0824,36.3094,18.8256,56.5832,19.1176,19.4721.2806,39.0067-5.3822,55.2579-16.125,17.2108-11.3772,30.433-28.0813,37.7337-47.3619,7.0068-18.504,8.0337-39.1027,3.1908-58.2665ZM255.84988,171.66001c-.2793,4.769-.807,8.6715-1.8092,13.355-4.0496,18.9261-13.9811,36.1113-28.3728,49.0947-6.8593,6.188-14.7822,11.347-23.4007,15.2741-2.033.9263-3.8412,1.665-6.132,2.4991-2.163.7875-4.3546,1.4963-6.5691,2.1247-2.2129.628-4.4483,1.1758-6.7008,1.6419-1.1263.233-2.2569.4456-3.3909.6376-1.1102.1881-2.3918.3809-3.0927.4689-4.6363.5817-9.3109.8324-13.9826.7309-4.7484-.1033-9.1745-.5336-13.5511-1.3086-9.49-1.6806-18.5003-4.7588-26.8481-9.1727-17.0113-8.995-30.6947-22.9238-39.3005-40.1135-4.016-8.0214-6.893-16.9345-8.4267-26.0903-.6919-4.1319-1.1144-8.8377-1.183-13.4381-.0344-2.3133.0158-4.6279.1512-6.9375.0678-1.1583.1572-2.3155.2675-3.4705.0554-.5785.1159-1.1566.1822-1.734.0588-.5132.1595-1.3168.1735-1.4181,2.6383-19.1892,11.2858-37.0808,24.5746-50.984,12.926-13.5239,29.6081-22.656,47.9556-26.4176,17.9064-3.671,37.4492-1.7598,54.3093,5.6003,4.3678,1.9068,8.5802,4.1499,12.6187,6.6792,15.8564,10.0155,28.6628,25.0895,35.6909,42.2257,1.7908,4.3665,3.2552,8.8668,4.3784,13.4508,1.1123,4.5389,1.8243,8.7647,2.223,13.111.4329,4.7156.5121,9.4636.2353,14.191Z"/><path class="cls-6" d="M265.02178,236.86191c-6.7125-2.4742-14.7677-.3008-19.29,5.251-4.6451,5.7023-5.4708,13.812-1.6599,20.2015,3.8269,6.416,11.3115,9.5937,18.5938,8.2202,8.1308-1.5335,13.9096-9.0329,14.0109-17.1649-.0925-7.4097-4.7044-13.9457-11.6548-16.5078ZM268.25218,260.00791c-1.1063,1.5828-3.2685,3.2367-5.0609,3.8798-4.6873,1.6821-9.5695.4039-12.8059-3.4359-2.9334-3.4804-3.2977-8.8328-.8956-12.86,2.3608-3.9579,7.2609-6.1945,11.682-5.304,1.5887.3201,2.4822.6639,3.755,1.423,1.1697.6977,1.9832,1.3877,2.9854,2.5767,1.5442,1.8322,2.4584,4.5555,2.49,7.0822-.0301,2.4073-.6698,4.5204-2.15,6.6382Z"/><path class="cls-6" d="M1106.89148,116.03291c-2.0666-14.031-6.2762-27.7875-12.5721-40.5022-6.0481-12.2145-13.9324-23.5421-23.3593-33.3891-9.5302-9.9549-20.4426-18.3693-32.4664-25.0945-11.8891-6.6498-24.7644-11.4015-38.0902-14.2107-13.8014-2.9095-28.0843-3.5535-42.1053-2.0569-14.1053,1.5056-28.0354,5.2416-40.9858,11.0354-12.5239,5.6031-24.2336,13.1538-34.4833,22.2751-10.0811,8.9714-18.867,19.4224-25.8673,30.963-7.192,11.8566-12.5162,24.6485-15.8797,38.0992-3.3915,13.5632-4.541,27.6243-3.6128,41.5682.951,14.2843,4.2106,28.4517,9.5597,41.7306,5.1409,12.763,12.3044,24.7706,21.07,35.3758,8.5942,10.3979,18.768,19.5538,30.042,26.9632,11.379,7.4783,23.8556,13.3007,36.9491,17.0539,13.584,3.8938,27.5868,5.6424,41.7105,5.2439,14.3604-.4052,28.6364-3.1719,42.1522-8.0297,12.9393-4.6506,25.167-11.3648,36.0896-19.7134,10.7735-8.2348,20.3358-18.1498,28.1877-29.205,7.8284-11.0222,14.0551-23.2398,18.2777-36.0852,4.3408-13.2053,6.6925-27.0531,6.7886-40.9576.0489-7.0505-.3985-14.0847-1.4049-21.064ZM1099.44788,157.37191c-1.1348,6.6578-2.5909,12.4532-4.7119,18.7797-2.0876,6.2266-4.642,12.2964-7.6321,18.1435-5.5852,10.9213-13.6347,22.1504-22.1758,30.9003-4.5799,4.6916-9.5136,9.0398-14.74,12.9983-5.2729,3.9935-10.4376,7.329-16.0521,10.3651-12.0139,6.4963-24.5992,10.936-37.7795,13.3764-13.6468,2.5269-26.86,2.9062-40.5423,1.0999-13.1116-1.7309-25.3632-5.3226-37.4651-10.9658-11.5805-5.3998-22.3912-12.5981-32.092-21.3615-2.4449-2.2086-4.3158-4.0348-6.6478-6.492-2.2564-2.3778-4.4245-4.8394-6.4981-7.3784-2.0814-2.5481-4.0672-5.1741-5.9521-7.8709-.9271-1.3267-1.8297-2.6706-2.7071-4.0306-.9417-1.4593-1.6311-2.5732-2.3892-3.8628-3.3897-5.7656-6.3368-11.7906-8.8076-18.0056-2.5645-6.4503-4.4139-12.439-5.8909-19.0484-3.0148-13.4886-3.9049-26.908-2.6375-40.4376,1.2484-13.3312,4.3662-25.6782,9.5622-37.9737,5.069-11.9949,11.6887-22.7839,20.1652-32.878,4.2453-5.0556,8.3482-9.2537,13.3452-13.6483,4.942-4.3466,10.2093-8.3236,15.7447-11.8839,5.1865-3.3357,11.1544-6.5305,17.1403-9.1762,6.0549-2.676,12.683-5.0207,18.6803-6.6042,6.742-1.7802,13.6246-3.0276,20.561-3.7357,6.9598-.7105,13.1782-.8558,20.0497-.4629,13.3998.7664,26.0695,3.473,38.4301,8.1915,12.2513,4.6768,23.1071,10.8102,33.4495,18.8749,10.2548,7.9963,19.0192,17.2484,26.5622,28.0756,3.7928,5.4441,6.8409,10.6357,9.8018,16.7066,2.9606,6.0705,5.45,12.3698,7.4418,18.8233.8754,2.8353,1.6739,5.8511,2.396,9.0594.7524,3.3411,1.3696,6.7102,1.8688,10.0981,1.9565,13.5727,1.8434,26.7073-.4777,40.3239Z"/><path class="cls-6" d="M919.22778,276.42001c-12.9796-8.4426-30.3501-7.5487-42.5387,1.8776-12.1413,9.3896-17.3371,26.0064-12.446,40.6166,4.9257,14.7145,18.7442,24.9942,34.2878,25.3458,15.3416.3472,29.3282-9.2549,35.019-23.3832.6941-1.7234,1.2332-3.4999,1.6464-5.3106,3.2617-15.0384-3.0256-30.7274-15.9685-39.1462ZM929.79598,309.22451c-.0964,1.7422-.2677,2.9115-.6499,4.6737-1.4584,6.3865-4.5951,11.8598-9.4261,16.2431-2.1971,1.9934-4.7398,3.6693-7.628,5.0379-1.228.5818-2.6129,1.1023-4.1687,1.5604-.7342.2163-1.4758.4071-2.2232.5727-.4039.0895-.8094.172-1.2164.2466-.1885.0345-1.1829.1978-.9245.1618-3.1536.4391-6.6737.3506-9.5054-.1667-3.3684-.6155-6.4383-1.6644-9.2919-3.2101-5.5389-3.0004-9.8288-7.4096-12.7332-13.007-2.7822-5.3618-3.9155-11.9163-3.1302-17.8484.8632-6.5224,3.7586-12.5058,8.1378-17.1028,4.3447-4.5611,9.757-7.5877,15.9521-8.9264,5.9296-1.2814,12.8831-.6253,18.4973,1.8869,5.885,2.6332,10.6383,6.7941,13.8871,12.1442,3.2762,5.3953,4.7737,11.3851,4.4232,17.7341Z"/><path class="cls-6" d="M871.39958,339.77341c-6.0971-3.9472-14.3208-3.5242-20.0456.8803-5.7754,4.4434-8.385,12.3138-6.047,19.2961,2.3387,6.9847,8.7493,11.8376,16.1246,12.129,8.2607.3263,15.7388-5.5773,17.6236-13.5587,1.517-7.2523-1.3849-14.687-7.6556-18.7467ZM873.00478,356.85211c-1.1102,4.7008-4.9516,8.3027-9.4067,8.8734-4.9415.633-9.4351-1.8268-11.6638-6.0914-1.0064-1.9262-1.4481-4.2814-1.1102-6.7268.2879-2.0845,1.4198-4.4427,2.9487-6.0474,3.2358-3.3963,8.3309-4.513,12.563-2.7044,2.592,1.1076,4.4349,2.9143,5.6965,5.3285.4863.9305.9329,2.2586,1.1315,3.5861.1302.8701.0533,2.7677-.159,3.782Z"/></g></svg>