<?xml version="1.0" encoding="UTF-8"?><svg xmlns="http://www.w3.org/2000/svg" viewBox="0 0 976.68197 880.17323"><defs><style>.cls-1{fill:#c1e9ec;}.cls-1,.cls-2,.cls-3,.cls-4,.cls-5,.cls-6,.cls-7,.cls-8,.cls-9,.cls-10,.cls-11,.cls-12{stroke-width:0px;}.cls-2{fill:#e6e6e6;}.cls-13{isolation:isolate;}.cls-3{fill:#2a2626;}.cls-14{mix-blend-mode:soft-light;}.cls-4{fill:#b3b3b3;}.cls-5{fill:#201d29;}.cls-6{fill:#ccc;}.cls-7{fill:#fff;}.cls-8{fill:#a2a9ae;}.cls-9{fill:#fdaa93;}.cls-10{fill:#fdcfcf;}.cls-11{fill:#f8e0d7;}.cls-12{fill:#f2c4bd;}</style></defs><g class="cls-13"><g id="_レイヤー_2"><g id="set_of_doctor_clip_art"><path class="cls-1" d="M869.98368,246.69901c-6.2789-8.9429-12.8167-17.7062-19.6085-26.2737C759.25748,105.48451,623.38768,26.99831,478.29708,5.49151c-109.4139-16.2184-229.1164,2.0526-313.0714,74.0664-66.9583,57.4346-104.1955,142.1497-128.886,226.8405-40.9318,140.3995-56.2508,383.9531,2.1302,455.1355,120.4399,146.8494,496.6387,68.0022,764.5551,37.3223,44.6177-5.1093,92.1777-13.037,124.7832-43.9194,32.6479-30.9227,43.2013-78.3933,46.9314-123.2061,11.2599-135.2751-26.7965-273.9966-104.7559-385.0317Z"/><path class="cls-10" d="M321.23918,876.09781l28.1295-108.164,17.7355-113.0555c-46.1908,1.2947-92.3804,23.009-119.2364,60.6125-27.5691,38.6023-46.8189,118.0801-55.6126,160.607h128.984Z"/><path class="cls-5" d="M198.75498,876.09781c14.0926-72.4192,31.6441-151.8838,96.6033-194.2548,18.5009-12.0675,39.6043-19.7889,61.7435-20.954,4.5509-.2394,4.5791-7.3492,0-7.1083-39.6359,2.0856-75.6668,23.5949-100.9034,53.5426-27.6548,32.8173-43.0323,73.8028-53.2391,114.9915-4.4101,17.7969-7.9591,35.7832-11.4354,53.783h7.2311Z"/><path class="cls-10" d="M599.40168,876.09781h128.4312c-7.6692-38.9827-27.745-128.3997-57.5298-170.104-26.8559-37.6037-73.0454-59.3179-119.2363-60.6127l17.7355,113.0555,30.5994,117.6612Z"/><path class="cls-5" d="M561.06918,651.39191c22.1392,1.1648,43.2427,8.8864,61.7434,20.9539,67.8121,44.2317,83.9616,128.8873,98.4443,203.752h7.225c-4.0858-21.1651-8.0844-42.3531-13.2702-63.2801-10.2068-41.1888-25.5844-82.1743-53.2391-114.9916-25.2366-29.9476-61.2676-51.4571-100.9034-53.5426-4.5792-.2409-4.5509,6.8689,0,7.1084Z"/><polygon class="cls-7" points="531.17368 744.49541 394.67038 744.49541 395.85858 588.33211 531.17368 588.33211 531.17368 744.49541"/><path class="cls-7" d="M309.02328,559.07191c-43.0536,16.6891-87.0702-21.3011-96.7122-56.6146-4.3523-17.0322,11.229-30.9571,30.6786-35.8378,40.0727-10.6598,77.8736,18.7259,75.0618,46.5062,1.2632,17.3381,1.0683,41.3944-9.0282,45.9462Z"/><path class="cls-7" d="M672.92508,481.96831c46.1224-2.2055,70.9496-54.7824,65.4415-90.9717-2.9291-17.3337-22.8188-23.743-42.5766-20.3165-40.9524,6.5078-63.5876,48.6988-49.7511,72.9516,5.8769,16.3605,15.8112,38.2706,26.8862,38.3366Z"/><path class="cls-7" d="M675.54718,342.07271c27.3098,128.8927,2.4398,243.3412-162.0916,278.2021-164.5314,34.861-233.6793-59.6669-260.9891-188.5597-10.8892-51.3929-20.9754-104.5894-1.7958-148.9407,28.9226-66.881,87.6481-118.7953,162.9503-134.7503,71.4979-15.149,142.483,5.3946,195.3195,49.7975,39.7134,33.3746,54.888,88.9428,66.6067,144.2511Z"/><ellipse class="cls-5" cx="564.69271" cy="379.47584" rx="15.80013" ry="19.61543" transform="translate(-58.58964 106.71426) rotate(-10.26606)"/><ellipse class="cls-5" cx="379.42163" cy="413.03291" rx="15.80022" ry="19.61545" transform="translate(-67.53614 74.23251) rotate(-10.26605)"/><path class="cls-5" d="M582.66198,343.34071c-1.8274.8279-4.4754-1.1158-8.1028-3.3255-.466-.2722-.934-.5621-1.4017-.8707-.4768-.3006-1.0369-.5469-1.552-.8495-1.0042-.6378-2.2102-1.1292-3.3635-1.7488-2.4288-1.0847-5.0959-2.141-8.0082-2.9833-2.9327-.7726-5.7642-1.2355-8.4059-1.5516-1.3081-.0602-2.5955-.2574-3.7848-.2255-.5974-.0049-1.2043-.0809-1.7679-.0677-.5597.0246-1.1103.0331-1.6501.0277-4.2471.0341-7.5171.3427-8.66-1.3059-.5354-.7957-.3815-1.948.5188-3.4344.2247-.3709.4956-.762.8127-1.1712.3251-.3919.7213-.7478,1.1522-1.1433.8732-.7589,1.9074-1.6672,3.2013-2.322.6385-.356,1.3225-.7145,2.0491-1.0726.7282-.346,1.5162-.5822,2.3348-.8709,1.6388-.6185,3.4486-.9141,5.381-1.2267,3.8551-.4316,8.192-.2091,12.5241.9538,4.3134,1.2257,8.1485,3.261,11.2347,5.61,1.4974,1.26,2.8988,2.4428,3.9875,3.8147.5547.6678,1.1093,1.2749,1.5567,1.9457.4399.6803.8427,1.339,1.2078,1.9724.7744,1.2263,1.1958,2.5365,1.5554,3.6364.1668.5604.3241,1.0693.402,1.5724.0622.5139.0941.9888.0963,1.4224.0096,1.7382-.4498,2.8061-1.3175,3.2141Z"/><path class="cls-5" d="M389.13128,368.29161c-.4889,1.9267-3.5725,2.8273-7.6221,4.0204-.5105.1588-1.0374.3082-1.5791.4467-.5419.1458-1.0999.3682-1.6712.5336-1.1471.299-2.3333.7822-3.5766,1.1671-2.4656.9176-5.0918,1.9695-7.7758,3.2695-2.6597,1.3513-5.0865,2.8065-7.3089,4.2151-1.0587.7573-2.1609,1.4098-3.0931,2.1424-.4771.3551-.9919.6646-1.4357,1.008-.4379.3479-.8757.6771-1.3109.9876-3.3996,2.5033-5.9817,4.4134-7.8116,3.6372-.8787-.3849-1.3898-1.4133-1.4925-3.0688-.0638-.8339-.0051-1.8103.2536-2.87.2449-1.0661.5443-2.3136,1.135-3.5401.2776-.6268.5867-1.2797.9269-1.9551.3454-.6707.7861-1.3038,1.2242-1.9869.8566-1.3905,1.9924-2.6823,3.2132-4.0459,2.5308-2.6109,5.7524-5.0901,9.5165-6.9866,3.7856-1.8495,7.7079-2.9144,11.3171-3.3505,1.8243-.1473,3.5397-.2702,5.1649-.1114.8089.0644,1.5796.0963,2.3226.2269.7437.1378,1.4505.2865,2.1174.4446,1.334.2714,2.5088.7876,3.5058,1.2372,1.0004.4353,1.8136.9792,2.4391,1.5343,1.2562,1.0833,1.7661,2.1122,1.5412,3.0447Z"/><circle class="cls-12" cx="360.50393" cy="489.04919" r="50.3706" transform="translate(-146.6746 154.53143) rotate(-20.19663)"/><path class="cls-9" d="M343.22728,475.53551c-1.5714,6.1165-3.1427,12.233-4.7141,18.3495-.2179.8483-.2999,1.6054.0745,2.4364.3208.7122,1.0204,1.4204,1.7755,1.6701,1.4892.4925,3.6638-.1268,4.1065-1.85,1.5714-6.1165,3.1427-12.233,4.7141-18.3495.2179-.8483.2999-1.6054-.0745-2.4364-.3209-.7122-1.0205-1.4204-1.7755-1.6701-1.4893-.4925-3.6638.1268-4.1065,1.85h0Z"/><path class="cls-9" d="M366.88578,461.78531c-2.3139,12.555-4.6278,25.1099-6.9417,37.6648-.3119,1.6924,1.214,3.3316,2.8315,3.5036,1.8231.1939,3.1909-1.1352,3.5036-2.8315,2.3139-12.555,4.6278-25.1099,6.9417-37.6648.3119-1.6924-1.214-3.3316-2.8315-3.5036-1.8232-.1939-3.191,1.1352-3.5036,2.8315h0Z"/><circle class="cls-12" cx="603.77278" cy="442.99001" r="50.37053" transform="translate(-136.40029 556.6806) rotate(-45)"/><path class="cls-9" d="M589.20908,426.56871c-1.564,9.3528-3.128,18.7056-4.692,28.0584-.2837,1.6971,1.1942,3.3294,2.8316,3.5036,1.8001.1915,3.2191-1.1304,3.5035-2.8315,1.564-9.3529,3.128-18.7057,4.6919-28.0585.2838-1.6971-1.1941-3.3294-2.8315-3.5036-1.8001-.1914-3.2191,1.1304-3.5035,2.8316h0Z"/><path class="cls-9" d="M613.76848,425.17061l-3.4098,18.8436c-.2975,1.6439,1.201,3.4011,2.8315,3.5036,1.8285.115,3.1861-1.0771,3.5036-2.8315,1.1366-6.2812,2.2732-12.5624,3.4098-18.8437.2974-1.6439-1.201-3.401-2.8315-3.5035-1.8286-.115-3.1862,1.0771-3.5036,2.8315h0Z"/><path class="cls-5" d="M447.04118,459.26771c2.4575,12.3374,12.9891,22.4344,25.2503,24.9323,12.9325,2.6348,25.7417-3.531,32.5786-14.7159,3.8282-6.2629,5.4614-13.4654,4.546-20.7488-.2871-2.2837-2.9307-3.7297-5.0459-3.2815-2.4093.5105-3.5693,2.7557-3.2815,5.0459.1341,1.0663.1699,1.8188.1095,3.2016-.0425.9728-.2489,2.7296-.344,3.2048-.4473,2.2347-1.3804,4.79-2.278,6.4657-2.2929,4.2805-5.5244,7.8165-9.4647,10.0937-4.268,2.4667-8.4051,3.3489-13.3246,2.7475-4.3869-.5362-8.8847-2.5983-12.5938-5.6884-3.9253-3.2701-6.8174-7.9652-7.8246-13.0213-1.0705-5.374-9.3984-3.6129-8.3273,1.7644h0Z"/><path class="cls-5" d="M481.31868,414.97761c5.2499,5.7238,2.0216,15.1308-5.6401,16.457-4.8066.832-4.4175,8.4804.4291,7.6414,14.5429-2.517,20.2242-18.9832,10.2393-29.8694-3.3194-3.619-8.3307,2.1705-5.0283,5.771Z"/><path class="cls-7" d="M178.97638,350.80021c-5.4304-5.5819-10.4468-11.4163-13.5991-18.4926-9.5857-21.5186,3.3099-49.1092,13.8757-70.1638,16.9778-33.8316,34.2025-68.0392,58.8492-96.7682,24.837-28.9508,58.3849-52.2331,96.276-56.8876,24.958-30.1011,58.5835-53.0714,95.9403-64.7121,21.2356-6.6172,44.4964-9.6222,65.5765-2.5251,14.1457,4.7625,26.4174,13.7466,38.4363,22.5969,31.7298,23.3646,63.4596,46.7292,95.1894,70.0938,18.0045,13.2578,36.2979,26.8005,49.5522,44.8077,19.7757,26.8672,26.5184,61.5645,25.1708,94.8978-1.3163,32.5597-9.7459,64.3488-18.2911,95.8096-14.899,3.7244-32.0166-4.1518-42.398-16.2061-12.0394-13.9793-17.5099-32.2438-24.0548-49.4929-3.1385-8.2716-6.7841-16.6503-11.4619-24.1815-8.5129,10.4522-23.0881,15.7679-36.3093,12.9037-10.9829-2.3793-20.4804-10.2839-25.3367-20.3576-20.6449,18.1454-49.5204,26.6405-76.6951,22.3713-28.4164-4.4644-54.3231-22.7844-68.0029-48.0884-6.29-11.635-10.4188-25.0024-20.3282-33.7625-10.4412-9.2303-30.744-9.242-34.4994,5.0694-19.4351.944-36.5799,16.9846-43.7794,35.5036-7.842,20.1716-6.5178,42.6009-4.6708,64.1643,1.847,21.5633,4.0401,43.7594-2.2606,64.4642-2.7559,9.056-7.3846,17.9493-15.0861,23.4532-5.945,4.2486-14.0025,5.9623-20.8477,3.9019-5.3005,23.4038-1.8668,48.8277,10.5032,69.5529-21.1793-5.6444-35.9615-26.8198-44.3451-47.703-9.1452-22.78-16.4235-44.9904-31.9248-64.024-4.6887-5.7571-10.2739-10.875-15.4786-16.2249Z"/><path class="cls-5" d="M467.51168,288.17621c-19.7924-5.7721-37.7087-17.1545-51.3973-32.57-3.338-3.7591-6.4458-7.7378-9.2065-11.9408-3.0678-4.6702-5.7025-9.6007-8.5363-14.4121-5.4604-9.2711-12.0385-18.575-22.3612-22.7428-9.9207-4.0056-22.5319-2.9127-29.1091,6.3338-2.5854,3.6348,3.2205,7.394,5.7976,3.7706,4.7739-6.7116,14.3394-6.3476,21.3536-3.4485,9.1867,3.7973,14.7487,13.294,19.4789,21.5077,5.2392,9.0977,10.6243,17.9181,17.642,25.7836,6.7509,7.5662,14.5411,14.2703,23.0079,19.8488,9.5841,6.3147,20.1347,11.2219,31.1534,14.435,4.2722,1.246,6.456-5.3175,2.177-6.5653Z"/><path class="cls-5" d="M609.00438,278.50221c-8.6099,8.113-20.7404,11.1584-32.3181,9.5238-11.6059-1.6385-21.719-8.6359-28.7908-17.7737-3.9446-5.0969-6.9411-11.0171-8.8099-17.1798-.5419-1.7873-2.1597-3.0771-4.0996-2.6661-1.7089.3621-3.2112,2.3022-2.666,4.0996,2.1231,7.0018,5.4247,13.6302,9.7784,19.4637-.2672.2082-.5235.4484-.7495.7636-2.1591,3.0122-6.0198,4.3759-9.3278,5.7058-4.3467,1.7473-8.7704,3.2814-13.2619,4.6128-9.0448,2.6813-18.3141,4.5383-27.6869,5.5983-1.8584.2103-3.0267,2.3974-2.666,4.0995.4186,1.9757,2.2358,2.8768,4.0995,2.6661,10.0347-1.1349,19.9507-3.1859,29.5976-6.1777,4.8475-1.5033,9.6406-3.2187,14.3313-5.1579,3.856-1.5942,7.4783-3.5707,10.1149-6.8278,2.6264,2.7664,5.5241,5.2845,8.6982,7.4732,11.0727,7.6351,25.0481,10.4586,38.195,7.4813,7.5234-1.7038,14.589-5.2856,20.2142-10.5864,3.2345-3.0478-1.4015-8.1818-4.6526-5.1183Z"/><path class="cls-5" d="M340.24898,219.34981c-10.223-.299-20.2625,3.0802-28.2563,9.4553-7.2436,5.7771-12.1781,14.0562-14.8434,22.8534-5.6923,18.7878-2.0655,38.3155-.2484,57.3776,1.0863,11.3958,1.3766,23.1193-1.9562,34.1898-1.2839,4.264,5.2807,6.4445,6.5653,2.177,5.9482-19.7569,1.3689-40.0956-.1896-60.1179-1.2423-15.9605-.3889-34.8866,11.0369-47.3612,6.9928-7.6344,17.12-11.9717,27.4755-11.6691,4.4473.13,4.8701-6.7748.4162-6.9049Z"/><path class="cls-5" d="M295.33608,370.09581c-1.97,5.4883-4.1202,10.9099-6.4686,16.2473-2.029,4.6113-4.1473,9.2502-7.2022,13.2896-5.7204,7.5642-15.717,10.9313-24.8274,8.1835-4.2635-1.2858-6.4439,5.2785-2.1771,6.5655,11.1317,3.3574,23.5444-.1045,31.1462-8.9443,3.8564-4.4845,6.427-9.7825,8.8362-15.1415,2.6566-5.9096,5.0695-11.925,7.2583-18.023,1.5079-4.2008-5.0629-6.3629-6.5654-2.1771Z"/><path class="cls-5" d="M593.04658,96.80171c-17.6374-10.6714-35.2531-21.3791-52.9139-32.0114-16.1145-9.7013-32.7266-18.8711-51.3896-22.457-36.7269-7.0569-74.0425,5.5102-105.3096,24.3084-18.8867,11.3548-36.2863,24.9697-53.4884,38.687-3.4804,2.7751,1.1789,7.8883,4.6525,5.1185,29.0761-23.1856,59.5688-46.9272,95.8155-57.5329,16.7276-4.8945,34.3333-7.0086,51.6774-4.7,17.9566,2.3902,34.0695,10.4075,49.491,19.519,19.3433,11.4287,38.4718,23.2353,57.6945,34.8659,3.8056,2.3026,7.5883-3.4877,3.7706-5.7975Z"/><path class="cls-5" d="M725.14568,373.08941c-11.9332-7.1257-25.8631-5.569-38.9268-2.9593,1.0082-38.278,15.2381-74.7205,17.9291-112.8296,1.3877-19.6513-.1966-39.8369-7.8025-58.1851-7.442-17.9523-21.1416-32.5661-34.9759-45.8527-15.5729-14.9564-32.7417-28.2405-51.143-39.536-3.7923-2.3281-7.5727,3.4635-3.7702,5.7977,15.9785,9.8086,31.0508,21.0893,44.8683,33.7665,6.9645,6.3897,13.6641,13.098,19.9458,20.1619,6.3157,7.1023,12.0904,14.6784,16.3577,23.2042,17.5045,34.9733,8.7725,75.9485.9083,112.2413-4.3173,19.9235-8.6318,40.022-9.2126,60.4576-18.2519-9.4648-34.0407-23.208-45.9427-39.9891-3.4487-4.8626-6.4935-10.0211-9.206-15.3269-2.024-3.9585-8.1749-.7933-6.1431,3.181,10.0518,19.6608,25.0139,36.7006,43.1456,49.296,5.0712,3.5227,10.3918,6.6684,15.9107,9.4363,1.0718.5375,2.2745.6235,3.2976.194.6012.6057,1.471.9453,2.5643.7107,11.6548-2.5011,24.1805-5.1876,35.6483-.4669,4.952,2.0385,9.0347,5.5435,11.6326,10.2393,2.7876,5.0384,4.2409,10.8021,4.8792,16.4966,1.2337,11.0062-1.2006,22.221-5.4197,32.3603-4.2739,10.2708-10.567,20.0378-18.5979,27.7706-8.7171,8.3933-20.1148,14.7651-32.565,12.886-1.582-.2388-3.0466,1.2844-3.1354,2.7789-.1022,1.719,1.1912,2.8959,2.7789,3.1355,12.2552,1.8497,24.0541-3.4973,33.3121-11.1949,9.5191-7.9147,16.7891-18.4058,22.0602-29.5346,5.1817-10.9399,8.3424-23.196,7.6923-35.3614-.6642-12.4302-4.8064-26.1399-16.0902-32.8779Z"/><path class="cls-5" d="M296.80538,91.03861c-1.8656-.0448-3.5471,1.3335-3.6607,3.2444-.108,1.8168,1.3696,3.6156,3.2444,3.6607,3.0263.0728,4.9207.411,7.7478,1.401.665.233,1.3218.4901,1.9685.7702.0656.0284.5138.2312.6068.2696.2229.1092.4439.2221.6633.3377,1.2494.6587,2.4523,1.4043,3.5988,2.2294,1.9699,1.4176,3.8002,3.1638,5.5366,5.3982.5617.7226.5102.6465.9158,1.2723.3828.5906.744,1.1955,1.0813,1.8132.3092.5667.5983,1.1444.8667,1.7315.1466.3206.2869.6439.4207.97.0486.1183.4506,1.1945.2479.6134.6151,1.763,2.1059,3.0885,4.0995,2.666,1.6482-.3492,3.2857-2.3239,2.6661-4.0996-4.4131-12.6452-16.4636-21.9521-30.0035-22.278Z"/><path class="cls-5" d="M310.68848,117.16441c-10.2532-3.9825-21.3755-5.7122-32.3511-4.9615-1.8606.1274-3.5399,1.2121-3.6605,3.2444-.0997,1.6773,1.3692,3.7889,3.2444,3.6607,10.4516-.7148,20.8242.8285,30.5903,4.6219,4.1609,1.6162,6.3139-4.9588,2.1769-6.5655Z"/><path class="cls-5" d="M279.55328,127.10791c-22.2223,11.576-38.4299,31.8766-55.0093,50.0749-5.2421,5.7538-10.484,11.5077-15.726,17.2616-1.2559,1.3787-1.5733,3.4117-.2329,4.8854,1.166,1.2823,3.6209,1.6208,4.8854.2331,9.0779-9.9645,18.1543-19.9304,27.2339-29.8933,8.0898-8.8764,16.2536-17.7677,25.5524-25.4082,5.1273-4.2127,10.5879-7.9427,16.4774-11.0106,3.9416-2.0531.7792-8.2056-3.1809-6.1429Z"/><path class="cls-5" d="M269.18388,478.28401c-16.392-3.9273-27.7623-17.2327-35.4567-31.5224-9.1368-16.9678-13.2854-35.9851-20.8813-53.6098-4.0092-9.3022-9.0555-18.2767-15.8565-25.8411-6.3035-7.0112-14.0233-12.5341-20.6627-19.1998-6.8485-6.8759-11.5486-14.8607-12.4325-24.6828-.9246-10.2753,1.9473-20.6543,5.4201-30.2171,3.7887-10.4323,8.489-20.5695,13.1371-30.6407,4.6904-10.1625,9.609-20.2183,14.7434-30.1638,1.3173-2.5518,2.6499-5.0956,3.9941-7.6335.8736-1.649.6506-3.7018-1.0136-4.7838-1.4587-.9488-3.9056-.6445-4.784,1.0136-10.8794,20.5361-21.1142,41.5473-29.9358,63.0568-4.1625,10.1493-7.7574,20.8342-8.484,31.8556-.7046,10.6885,1.8392,21.0001,8.1124,29.7343,5.6351,7.8461,13.4965,13.6659,20.5643,20.1218,7.4503,6.8053,13.2979,14.6211,17.8342,23.633,9.0846,18.0479,13.0747,38.1333,21.9186,56.2758,7.6042,15.5996,18.9627,30.7518,35.604,37.2965,1.9545.7684,3.9601,1.3835,6.0021,1.8727,1.815.4349,3.748-.3169,4.3712-2.1942.5498-1.6571-.3702-3.9343-2.1944-4.3711Z"/><path class="cls-5" d="M521.24998,271.27281c-17.3012-11.7312-30.7413-29.1321-37.4761-48.9533-.6007-1.768-2.1164-3.0863-4.0996-2.6661-1.6603.3518-3.2707,2.3195-2.666,4.0996,7.3501,21.6323,21.5362,40.4784,40.4712,53.3173,3.6908,2.5028,7.4568-3.2981,3.7705-5.7975Z"/><path class="cls-3" d="M391.66488,394.58101c-33.7341-2.2444-62.9005,23.2829-65.1449,57.017-2.2445,33.7341,23.2829,62.9004,57.017,65.1449,33.7341,2.2444,62.9004-23.2829,65.1448-57.017,2.2445-33.734-23.2828-62.9004-57.0169-65.1449ZM384.08678,508.47891c-29.1234-1.9377-51.2406-27.2078-49.3029-56.331,1.9377-29.1234,27.2077-51.2406,56.3311-49.3029,29.1235,1.9377,51.2407,27.2077,49.303,56.3312-1.9377,29.1232-27.2078,51.2404-56.3312,49.3027Z"/><g class="cls-14"><circle class="cls-2" cx="387.60091" cy="455.66201" r="52.93377" transform="translate(-101.60351 799.96039) rotate(-84.75203)"/></g><g class="cls-14"><path class="cls-7" d="M361.59898,501.75711c4.6056,2.6072,9.649,4.5508,15.0113,5.6854l61.8073-66.6118c-1.7396-5.9378-4.5034-11.4654-8.0913-16.3702l-68.7273,77.2966Z"/></g><g class="cls-14"><path class="cls-7" d="M391.11498,402.84501c-3.3238-.2212-6.5965-.1256-9.791.2546l-46.5567,49.3521c-.411,6.7588.4758,13.3036,2.441,19.3944l68.6483-65.8719c-4.6303-1.704-9.5748-2.7855-14.7416-3.1292Z"/></g><path class="cls-3" d="M576.97968,359.94951c-33.7341-2.2445-62.9004,23.2829-65.1449,57.017-2.2444,33.734,23.2829,62.9004,57.017,65.1448,33.7341,2.2445,62.9004-23.2829,65.1449-57.0169,2.2444-33.7341-23.2829-62.9005-57.017-65.1449ZM569.40168,473.84731c-29.1235-1.9377-51.2407-27.2077-49.303-56.3309,1.9377-29.1235,27.2078-51.2407,56.3312-49.303s51.2406,27.2078,49.3029,56.3312c-1.9377,29.1232-27.2077,51.2404-56.3311,49.3027Z"/><g class="cls-14"><circle class="cls-2" cx="572.91576" cy="421.03044" r="52.93379" transform="translate(-58.97395 746.93609) rotate(-63.59485)"/></g><g class="cls-14"><path class="cls-7" d="M546.91388,467.12561c4.6055,2.6071,9.649,4.5508,15.0112,5.6853l61.8073-66.6118c-1.7395-5.9378-4.5033-11.4653-8.0912-16.3702l-68.7273,77.2967Z"/></g><g class="cls-14"><path class="cls-7" d="M576.42988,368.21341c-3.3238-.2211-6.5965-.1255-9.791.2546l-46.5567,49.3521c-.4111,6.7588.4757,13.3036,2.4409,19.3944l68.6484-65.8718c-4.6303-1.704-9.5748-2.7855-14.7416-3.1293Z"/></g><path class="cls-3" d="M516.72038,425.11911c-.6256.1169-1.295.0073-1.8756-.3593-.1616-.1012-16.7648-10.3003-38.3547-6.2656-21.5897,4.0347-33.3889,19.5416-33.5054,19.6978-.8636,1.1561-2.5014,1.3959-3.6585.5343-1.1573-.8616-1.3997-2.4959-.5398-3.6546.5223-.7041,13.0661-17.2946,36.7428-21.7193,23.6769-4.4248,41.3657,6.5159,42.1071,6.9839,1.2217.7707,1.587,2.386.816,3.6075-.4044.6409-1.0415,1.0462-1.7319,1.1753Z"/><path class="cls-3" d="M391.66488,394.58101c-33.7341-2.2444-62.9005,23.2829-65.1449,57.017-2.2445,33.7341,23.2829,62.9004,57.017,65.1449,33.7341,2.2444,62.9004-23.2829,65.1448-57.017,2.2445-33.734-23.2828-62.9004-57.0169-65.1449ZM384.08678,508.47891c-29.1234-1.9377-51.2406-27.2078-49.3029-56.331,1.9377-29.1234,27.2077-51.2406,56.3311-49.3029,29.1235,1.9377,51.2407,27.2077,49.303,56.3312-1.9377,29.1232-27.2078,51.2404-56.3312,49.3027Z"/><g class="cls-14"><circle class="cls-2" cx="387.60091" cy="455.66201" r="52.93377" transform="translate(-101.60351 799.96039) rotate(-84.75203)"/></g><g class="cls-14"><path class="cls-7" d="M361.59898,501.75711c4.6056,2.6072,9.649,4.5508,15.0113,5.6854l61.8073-66.6118c-1.7396-5.9378-4.5034-11.4654-8.0913-16.3702l-68.7273,77.2966Z"/></g><g class="cls-14"><path class="cls-7" d="M391.11498,402.84501c-3.3238-.2212-6.5965-.1256-9.791.2546l-46.5567,49.3521c-.411,6.7588.4758,13.3036,2.441,19.3944l68.6483-65.8719c-4.6303-1.704-9.5748-2.7855-14.7416-3.1292Z"/></g><path class="cls-3" d="M576.97968,359.94951c-33.7341-2.2445-62.9004,23.2829-65.1449,57.017-2.2444,33.734,23.2829,62.9004,57.017,65.1448,33.7341,2.2445,62.9004-23.2829,65.1449-57.0169,2.2444-33.7341-23.2829-62.9005-57.017-65.1449ZM569.40168,473.84731c-29.1235-1.9377-51.2407-27.2077-49.303-56.3309,1.9377-29.1235,27.2078-51.2407,56.3312-49.303s51.2406,27.2078,49.3029,56.3312c-1.9377,29.1232-27.2077,51.2404-56.3311,49.3027Z"/><g class="cls-14"><circle class="cls-2" cx="572.91576" cy="421.03044" r="52.93379" transform="translate(-58.97395 746.93609) rotate(-63.59485)"/></g><g class="cls-14"><path class="cls-7" d="M546.91388,467.12561c4.6055,2.6071,9.649,4.5508,15.0112,5.6853l61.8073-66.6118c-1.7395-5.9378-4.5033-11.4653-8.0912-16.3702l-68.7273,77.2967Z"/></g><g class="cls-14"><path class="cls-7" d="M576.42988,368.21341c-3.3238-.2211-6.5965-.1255-9.791.2546l-46.5567,49.3521c-.4111,6.7588.4757,13.3036,2.4409,19.3944l68.6484-65.8718c-4.6303-1.704-9.5748-2.7855-14.7416-3.1293Z"/></g><path class="cls-3" d="M516.72038,425.11911c-.6256.1169-1.295.0073-1.8756-.3593-.1616-.1012-16.7648-10.3003-38.3547-6.2656-21.5897,4.0347-33.3889,19.5416-33.5054,19.6978-.8636,1.1561-2.5014,1.3959-3.6585.5343-1.1573-.8616-1.3997-2.4959-.5398-3.6546.5223-.7041,13.0661-17.2946,36.7428-21.7193,23.6769-4.4248,41.3657,6.5159,42.1071,6.9839,1.2217.7707,1.587,2.386.816,3.6075-.4044.6409-1.0415,1.0462-1.7319,1.1753Z"/><path class="cls-3" d="M621.75108,393.60141s52.7257-28.5428,63.0896-31.3725c10.3638-2.8296,11.2371,7.2879,11.2371,7.2879l-65.9924,35.5062-8.3343-11.4216Z"/><path class="cls-3" d="M330.17988,449.68981s-73.5894,5.0752-88.7663,4.3934c-15.177-.6818-7.1725,14.7968-7.1725,14.7968h95.7191l.2197-19.1902Z"/><path class="cls-10" d="M636.04698,876.09781c-1.6581-28.3127-2.7569-51.6661-2.8966-65.6343-.3829-38.3806-2.3081-69.124-10.456-94.4119-8.5859-26.6448-23.9775-46.2843-48.4375-61.8055-10.8113-6.8615-23.7918-12.847-39.6827-18.3002,0,0-21.2739,94.791-74.5042,94.791s-66.4308-94.7905-66.4308-94.7905c-92.173,31.6291-94.3932,81.1472-98.4246,171.0403l-.1452,3.2291c-.713,15.8494-2.0484,38.9319-3.7393,65.882h344.7169Z"/><path class="cls-5" d="M295.66388,559.95131c-4.5503,3.5267-14.7216-.3541-19.5188-1.8508-5.695-1.7766-11.2118-4.1095-16.4802-6.9048-10.6482-5.6496-20.8822-12.7692-28.8526-21.8815-7.5138-8.5904-12.901-19.4304-12.1146-31.0771.7206-10.6743,6.0354-20.6911,15.9653-25.297,4.1482-1.924.8818-8.2392-3.2694-6.3138-11.124,5.1595-17.6999,16.0252-19.4442,27.9271-2.0485,13.9768,3.5449,27.4137,12.3461,38.0669,9.6033,11.6241,22.8114,20.5233,36.3309,26.9637,6.9901,3.3299,14.2848,5.9176,21.881,7.4546,6.3139,1.2773,12.5463,2.3528,17.9386-1.8264,3.6148-2.8016-1.1785-8.0539-4.7821-5.2609Z"/><path class="cls-10" d="M532.18188,635.60481s20.0923-1.4987,24.9976,20.7743c4.9053,22.2731-31.6878,127.4442-31.6878,127.4442,0,0-44.3404-54.2712-65.9501-54.2712,0,0,62.598-43.6238,72.6403-93.9473Z"/><path class="cls-10" d="M394.89528,635.60481s-25.5206-1.4987-30.4259,20.7743c-4.9053,22.2731,26.3902,124.564,26.3902,124.564,0,0,41.9517-51.6323,63.5614-51.6323,0,0-49.4834-43.3825-59.5257-93.706Z"/><path class="cls-5" d="M676.12968,481.89261c-5.883,28.8611-20.4507,55.3732-41.1942,76.2423-10.3419,10.4045-22.1088,19.3231-34.9773,26.3742-13.9552,7.6465-28.6288,11.2776-43.6197,16.1645-15.2272,4.964-31.2509,15.4906-31.1579,33.3527.0238,4.5727,7.1323,4.5824,7.1084,0-.0961-18.4585,20.526-25.1382,35.0104-29.1527,14.018-3.8852,27.4368-8.9938,40.0202-16.3654,24.4507-14.3238,45.0136-35.3389,58.9262-60.016,7.8558-13.934,13.5436-29.0367,16.7383-44.7099.9103-4.4657-5.9399-6.376-6.8544-1.8897h0Z"/><path class="cls-5" d="M304.90028,564.15761c10.8779,16.0677,24.7247,29.8674,40.9072,40.5921,7.8543,5.2054,16.2086,9.5895,24.9131,13.1902,4.5723,1.8913,9.2314,3.5251,13.9693,4.9494,4.1578,1.25,15.0141,4.0588,11.8417,10.6642-1.9713,4.1044,4.156,7.7143,6.1379,3.5877,4.5234-9.4183-3.2037-16.8043-11.6272-19.7494-10.6348-3.7183-20.9827-6.9221-30.9519-12.3414-19.6345-10.6735-36.5256-25.9774-49.0522-44.4805-2.5505-3.7674-8.7119-.2143-6.1379,3.5877h0Z"/><path class="cls-5" d="M461.76058,732.30651c31.3409-19.057,55.5575-47.9966,69.0124-82.0908,1.6797-4.2562-5.1918-6.1027-6.8544-1.8897-12.7502,32.3085-36.0912,59.811-65.7457,77.8426-3.9033,2.3734-.3353,8.5232,3.5877,6.1379h0Z"/><path class="cls-5" d="M454.90118,727.36631c-28.4857-16.8856-44.6055-48.0924-52.9145-79.1495-1.1811-4.4148-8.04-2.5418-6.8545,1.8896,8.1746,30.5547,23.7437,61.0003,50.0803,79.4483-21.084,8.3882-39.3579,22.6543-52.5729,41.0809-4.5978-22.0973-11.7331-43.5611-17.2377-65.4454-3.0278-12.0379-6.3292-24.7272-6.3986-37.2068-.0605-10.8962,4.8925-24.8186,17.663-25.6277,4.5432-.2877,4.5757-7.3982,0-7.1083-10.879.6891-19.2578,8.6182-22.7365,18.6837-4.4295,12.8165-1.0718,27.5394,1.6399,40.3602,6.1557,29.104,16.6576,57.114,21.8024,86.4553.5527,3.1517,5.022,3.2698,6.4962.849,13.7095-22.5128,35.1244-39.5331,60.1839-47.7331,2.8644-.9373,3.5617-4.8881.849-6.4962Z"/><path class="cls-5" d="M555.49608,642.45491c-.3464-4.6348-7.4128-4.6733-7.0636,0,3.473,46.4672-10.8464,91.1728-25.9268,134.3688-13.5905-23.7892-34.8803-42.1532-60.0315-52.0082-4.2523-1.6661-6.0913,5.3589-1.8778,7.0099,25.8706,10.1368,47.1307,30.2339,59.5109,55.6602,1.4712,3.0216,5.5025,1.8436,6.4552-.8681,16.2339-46.2129,32.6644-94.2451,28.9336-144.1626Z"/><circle class="cls-4" cx="354.94361" cy="823.82514" r="38.57428" transform="translate(-528.39267 979.99764) rotate(-76.71749)"/><path class="cls-6" d="M354.94328,853.51801c-16.3723,0-29.6926-13.3203-29.6926-29.6925s13.3203-29.6933,29.6926-29.6933,29.6932,13.3203,29.6932,29.6933-13.3202,29.6925-29.6932,29.6925Z"/><circle class="cls-5" cx="354.94361" cy="823.82514" r="17.62368" transform="translate(-528.39262 979.99791) rotate(-76.71751)"/><path class="cls-5" d="M398.91588,626.59141c-10.7644.2532-20.9162,5.9077-27.8459,14.2528-8.7645,10.5546-12.2539,24.1146-14.2624,37.4117-4.4899,29.7259-5.8296,59.8992-6.2307,89.9259-.2263,16.9318-.119,33.8654-.0102,50.7976.0151,2.3534,2.0589,4.6093,4.5,4.5,2.4251-.1086,4.5162-1.9775,4.5-4.5-.188-29.2494-.3734-58.5225,1.1628-87.743.7669-14.5886,1.9644-29.1589,3.8036-43.6532.3911-3.0822.7137-5.5345,1.2885-9.078.5208-3.2109,1.1284-6.4094,1.8909-9.5721.7566-3.1377,1.6653-6.2424,2.7991-9.2656.2221-.5921.4553-1.1801.6951-1.7656.0791-.18.2962-.6889.3114-.7226.1165-.2602.2347-.5196.355-.7781.7226-1.5525,1.5157-3.0726,2.3853-4.5481.7796-1.3228,1.6291-2.5974,2.5367-3.8352.1259-.1633.3515-.4597.3925-.5103.3268-.4013.6614-.7963,1.0034-1.1849.514-.584,1.0449-1.1532,1.5917-1.7067,1.0953-1.1084,2.2586-2.1406,3.4677-3.1228.058-.0471.1049-.0855.1455-.1191.0475-.0325.1039-.0714.1756-.1216.3701-.2591.7328-.5281,1.1063-.7826.6907-.4706,1.3967-.9188,2.1183-1.3404.6624-.387,1.3367-.7536,2.023-1.0964.3416-.1705.686-.3355,1.0333-.4943.1105-.0506.4681-.1949.6243-.2591,1.4317-.5433,2.881-1.0139,4.3791-1.3466.2443-.0544.4895-.1054.7352-.1532.1296-.0252.7869-.1227,1.0048-.1618.6294-.0683,1.2596-.1288,1.8926-.1521.1425-.0052.2849.0061.4275.0033v-8.8779Z"/><path class="cls-8" d="M525.12578,876.09781c-1.0002-12.387-1.6888-21.3754-1.7075-21.6233-.1456-1.8973-1.7947-3.3188-3.7013-3.1764-1.899.1452-3.3217,1.8023-3.1764,3.7013.0189.2455.6884,8.9796,1.6661,21.0984h6.9191Z"/><path class="cls-8" d="M619.16348,876.09781c1.2926-12.3617,2.1924-21.3221,2.2173-21.5707.1904-1.8949-1.1928-3.5849-3.0881-3.7752-1.9025-.1869-3.5847,1.195-3.775,3.0882-.0251.252-.9584,9.5487-2.2885,22.2577h6.9343Z"/><path class="cls-5" d="M524.66758,858.15761l-10.1412-.1196.4249-36.0123c.3534-29.9493,25.0053-54.0256,54.9552-53.6723,29.9498.3534,54.0268,25.0047,53.6734,54.954l-.4189,35.505-10.1412-.1196.419-35.5051c.2873-24.3558-19.2957-44.4061-43.652-44.6935-24.3565-.2874-44.4069,19.2953-44.6943,43.6511l-.4249,36.0123Z"/><path class="cls-5" d="M573.40698,772.42881c-.4656-23.0875-.9312-46.1751-1.3967-69.2626-.9027-20.8416,2.1746-44.5443-10.7033-62.4366-6.504-8.5213-16.4498-15.0859-27.5668-14.248-2.6073.1965-5.1375,2.1635-5.01,5.0099.114,2.5456,2.2113,5.2208,5.01,5.0099,1.4827-.1157,2.9743-.0969,4.4509.0883-1.1298-.1378.2483.0716.6428.1569.9791.2116,1.9436.4887,2.888.8225.3571.1262,1.4072.5638.4868.1585,1.8695.8107,3.6289,1.8538,5.2826,3.0406.17.1152.7504.5765-.0274-.0385,2.0742,1.63,3.9415,3.5168,5.5875,5.5767,10.3026,13.4764,8.3138,36.3483,8.9056,55.1974.4766,23.6417.9533,47.2834,1.4301,70.925.0528,2.6184,2.2665,5.1328,5.0099,5.0099,2.6692-.1195,5.0666-2.2027,5.01-5.0099h0Z"/><path class="cls-7" d="M793.29098,575.27791c.9891,7.1125.7809,14.9193.3527,20.7866-2.4703,8.4222-3.4863,18.2578-2.9768,27.8791-6.3386,9.4731-12.7837,18.8917-18.9222,28.4913-1.4076,2.2011-2.5429,4.6294-2.0462,7.3072.3914,2.1108,1.6642,3.8965,3.1613,5.3772,1.7008,1.6824,3.641,3.1095,5.5349,4.5642,2.231,1.7135,4.4904,3.3898,6.7771,5.0281,8.8957,6.3733,18.2054,12.1529,27.8347,17.3499,2.4103,1.3008,4.841,2.5645,7.293,3.7848,2.2022,1.0959,4.5212,1.9431,6.9528,1.0278,4.0594-1.5281,5.239-6.3723,6.7953-9.93,2.8122-6.4284,7.0055-12.1543,12.1663-16.8516,11.7791-1.9318,23.2151-5.8662,32.6606-8.0408,22.3073-5.1357,20.7056-10.4577,45.0627-12.4892,19.6362-1.6377,21.9027-8.3943,12.5303-10.317-12.1504-2.4924-41.1764,3.2431-42.4802-6.3751-.8934-6.59,44.6072-40.1814,54.1754-48.0908,13.3638-11.0472,12.7345-20.9318,1.6968-18.4417-11.0376,2.4901-59.4561,39.5008-61.2275,36.3014-1.7714-3.1993,29.9868-35.1459,42.3261-45.4431,13.3755-11.1618,15.1578-23.929,5.1346-23.5579-13.1701.4876-51.05,39.0928-56.7429,42.2028-8.6342,4.7169-11.9769,3.0038-7.8137-5.9481,7.4107-15.935,15.3523-30.0738,22.2782-46.1833,8.3555-19.4349-2.3242-29.1584-14.454-11.003-14.8028,22.1561-13.3528,16.5329-34.9618,46.5784-9.598,13.3452-17.931,15.843-23.2197,15.608-2.0628-3.4979-3.9644-6.8405-5.4321-9.6392-6.0711-11.5762-15.9666-38.6228-29.7986-36.7468-13.8319,1.8761,5.438,33.0731,7.3429,46.7708Z"/><path class="cls-11" d="M851.21938,594.69121c7.6497,5.0445,14.6059,11.142,20.5864,18.0849,1.7849,2.0721,3.5795,4.5018,3.3968,7.2306-.2562,3.8267-4.1286,6.2207-7.5462,7.9612-10.063,5.125-20.126,10.2499-30.189,15.3749,7.7666-18.3851,5.4357-40.6109-5.6119-57.1775.1022-.0748.2121-.1383.3291-.1878,1.2491-.5293,2.6731-.0126,3.9178.5269,5.2648,2.2821,10.3269,5.028,15.117,8.1868Z"/><path class="cls-5" d="M778.00728,527.70981c1.8306-2.4745,5.0631-2.8444,7.9129-2.7139,11.0233.505,18.9139,10.4574,23.1783,19.67,2.5618,5.5342,4.4342,11.3626,7.0944,16.8534,1.2938,2.6705,2.7721,5.2956,4.6668,7.5919.789.9563,1.7952,2.013,3.0234,2.3696.7703.2237,1.9085.2308,2.4811-.4307.8164-.9432,2.1907-1.2425,3.2371-.4558.9468.7118,1.2764,2.2891.4559,3.2371-1.7537,2.0259-4.3756,2.7855-6.9739,2.18-3.0155-.7027-5.1959-3.0262-6.9332-5.4598-3.1355-4.3922-5.2936-9.3615-7.2827-14.3497-3.6551-9.1664-7.4579-19.9721-16.868-24.7925-2.1175-1.0847-4.3676-1.7447-6.7518-1.8251-.9766-.033-2.2392-.0577-3.0972.4834-.8955.5647-1.0114,1.7822-1.037,2.7422-.0694,2.6044.79,5.419,1.5604,7.8834.8601,2.7515,1.9232,5.4346,3.0463,8.088,2.4329,5.748,4.9876,11.4467,7.4884,17.1654,1.2093,2.7654,2.475,5.5134,3.6063,8.3118,1.0173,2.5167,1.8513,5.1592,1.9399,7.8899.1124,3.4632-.9596,6.7344-1.8621,10.0358-.8505,3.1112-1.5281,6.2683-2.0605,9.4491-1.1231,6.709-1.5934,13.5429-1.3329,20.3417.0423,1.1023-.4634,2.1533-1.5018,2.5239-.1215.1649-.2605.3199-.4389.4473-.5004.3577-.9643.7576-1.4067,1.1829-.6201.6676-1.1633,1.3961-1.6277,2.1798-.2629.5092-.4998,1.0299-.6921,1.571-.4053,1.1403-1.8863,1.7979-2.9988,1.2995-1.1768-.5274-1.7337-1.7772-1.2995-2.9988.9699-2.729,2.8141-5.1866,5.1711-6.871.0576-.0412.1223-.0709.1834-.1069-.1478-5.7156.1167-11.4276.8952-17.0969.4085-2.9748.9481-5.9317,1.6175-8.8589.6865-3.0019,1.673-5.9378,2.3163-8.9456.5611-2.6235.5615-5.1205-.2298-7.6985-.8324-2.7115-2.1054-5.2975-3.2395-7.8907-2.5975-5.9399-5.207-11.8748-7.7916-17.8203-2.3661-5.4428-4.6483-11.0194-5.6596-16.8989-.4761-2.7684-.5408-5.9157,1.2106-8.2831Z"/><path class="cls-5" d="M835.20518,567.08501c14.1037-20.3516,28.6679-40.427,43.914-59.9407,2.8831-3.6901,6.7688-7.4143,11.8708-6.2958,4.6259,1.0142,8.0313,5.2673,8.8627,9.8123,1.0056,5.4973-1.212,10.966-3.2409,15.9589-2.3537,5.7922-4.8659,11.5202-7.5314,17.1757-2.9906,6.3452-6.1746,12.5993-9.5464,18.7504-1.5604,2.8464-3.5908,5.7356-4.4581,8.8968-.58,2.1139-.3898,4.6636,1.5496,5.9955,2.4509,1.6832-.3286,5.3774-2.7813,3.693-4.6987-3.227-4.1856-9.5681-1.9829-14.1101,1.2873-2.6543,2.8456-5.1873,4.2497-7.7814,1.4519-2.6821,2.868-5.3836,4.2482-8.1033,2.6913-5.3034,5.2454-10.6764,7.659-16.1119,2.3401-5.2699,4.8615-10.6205,6.5472-16.1442,1.2196-3.9966,1.6074-8.8103-1.6911-11.943-1.2314-1.1695-2.7516-1.8995-4.4449-1.6045-1.886.3285-3.3679,1.8674-4.5494,3.267-3.7461,4.4379-7.1468,9.2166-10.6491,13.8478-3.6501,4.8267-7.2691,9.6767-10.8567,14.55-7.9822,10.8432-15.8068,21.802-23.476,32.8687-1.6936,2.4437-5.3884-.3348-3.693-2.7812Z"/><path class="cls-5" d="M879.55298,572.78691c14.2793-11.8988,28.5585-23.7977,42.8379-35.6965,4.9596-4.1329,13.2167-11.4348,19.4058-5.027,2.7701,2.8681,2.8959,7.3063,1.5924,10.8655-1.4348,3.9173-4.3192,7.405-6.8671,10.6547-10.0982,12.8799-22.6475,23.5244-33.4591,35.7639-2.7135,3.0719-5.3167,6.2445-7.7267,9.5611-.5931.8161-1.1747,1.6408-1.7429,2.4746-.2656.3896-.5295.7805-.788,1.1749-.0369.0564-.1876.3079-.3047.4812.0661.0365.1233.0698.1586.0704.7234.0114,1.4375-.5735,1.9821-.978,6.9139-5.1359,13.7254-10.3738,20.8101-15.2798,7.2427-5.0153,14.6285-9.8241,22.1454-14.4183,3.6838-2.2514,7.368-4.5626,11.1684-6.6133,3.1837-1.7179,7.6615-2.5697,10.11.8435,2.0082,2.7994,1.3101,6.706-.1287,9.5925-1.9187,3.8492-4.5902,7.1544-7.624,10.1772-2.9123,2.9016-6.1406,5.4597-9.3751,7.9879-3.6709,2.8694-7.3452,5.7345-11.0178,8.6017-7.3119,5.7083-14.6237,11.4166-21.9356,17.1249-1.8128,1.4153-3.6256,2.8307-5.4385,4.2459-1.5871,1.239-3.6653,2.4527-4.7664,4.1849-1.8435,2.9,2.1162,4.7533,4.427,4.9841,1.9596.1957,3.926-.0237,5.887-.0796,2.208-.0629,4.4141-.0483,6.6204.0588,4.3789.2127,8.7353.7348,13.0787,1.3129,4.194.5582,9.0292.7748,12.1983,3.9436,3.0027,3.0023,3.1773,7.5129.0442,10.487-2.7395,2.6003-7.0284,3.6649-10.593,4.5565-3.708.9276-7.5035,1.4434-11.299,1.8529-7.4147.8-14.8907,1.2449-22.0937,3.3213-13.3996,3.8625-25.5135,11.5159-39.3436,14.0116-3.3627.6069-6.7827.8454-10.1974.709-1.2471-.0497-2.1787-1.3655-2.0503-2.5462.1429-1.3135,1.2946-2.1002,2.5462-2.0502,13.493.5388,25.8409-6.2947,38.0144-11.1332,6.5937-2.6207,13.3174-4.6521,20.3635-5.5984,7.4153-.9959,14.9518-1.2059,22.2674-2.8753,1.6944-.3866,3.3613-.8593,4.9955-1.4523,1.5352-.557,3.3525-1.1509,4.4862-2.3956.8867-.9736.7636-2.1526.0019-3.1646-1.0612-1.4102-2.813-1.9815-4.489-2.2999-4.1502-.7884-8.4275-1.2202-12.6291-1.6409-4.1463-.415-8.3285-.673-12.4953-.4794-3.8968.181-8.0643.5007-11.4007-1.9251-3.1463-2.2875-4.4104-6.2988-2.405-9.7656,1.0841-1.8742,2.848-3.2093,4.5277-4.5207,1.8129-1.4153,3.6258-2.8306,5.4386-4.2459,3.5652-2.7834,7.1306-5.5668,10.6958-8.3502,7.1306-5.5668,14.2611-11.1336,21.3917-16.7004,6.2883-4.9093,13.0745-9.7945,17.1983-16.7951.7472-1.2684,1.4403-2.6529,1.6468-4.0813.0895-.6196.1315-1.0959-.0032-1.6843-.0868-.3794-.1971-.6559-.4964-.8675-1.0712-.7573-2.6733.0667-3.6939.5714-1.7711.8756-3.4576,1.9519-5.1581,2.9554-7.3546,4.3404-14.5803,8.9027-21.6774,13.6521-7.0815,4.739-14.0323,9.6733-20.8415,14.7958-1.6735,1.2588-3.3383,2.5291-4.9945,3.8107-1.5098,1.1682-3.0814,2.4112-5.0278,2.7031-1.772.2657-3.6656-.4041-4.8155-1.7955-1.5365-1.8591-.887-4.0765.2867-5.9122,8.5823-13.4224,20.7938-24.1479,31.7743-35.5234,5.518-5.7163,10.852-11.6485,15.43-18.1556,1.8846-2.6786,4.3922-6.2776,3.0369-9.711-1.126-2.8524-3.9167-2.6405-6.3003-1.5232-3.3504,1.5704-6.1257,4.3851-8.9364,6.7272-3.4813,2.901-6.9626,5.802-10.4439,8.7029-6.9627,5.8019-13.9253,11.6038-20.8879,17.4058-3.4224,2.8517-6.8447,5.7035-10.267,8.5553-2.2857,1.9048-5.142-1.7299-2.8537-3.6367Z"/><path class="cls-5" d="M832.42148,587.56811c9.5603,12.9484,13.2389,29.9701,10.1194,45.7454-.8839,4.4701-2.2642,8.8265-4.1995,12.9533-1.2571,2.6803-5.5642.9998-4.2983-1.6992,6.3173-13.4703,6.5475-29.4321.9011-43.1763-1.6033-3.9028-3.6532-7.5752-6.1594-10.9694-1.7629-2.3877,1.8631-5.256,3.6367-2.8538Z"/><path class="cls-10" d="M869.12008,675.23331s-25.9319,85.0918-51.2963,134.5075c-25.3644,49.4157-44.6741,68.2061-93.0029,66.8227-56.09-1.6056-57.5427-4.2052-57.5427-4.2052l-30.1748-104.6519,129.7244-132.7723,102.2923,40.2992Z"/><path class="cls-5" d="M749.03228,880.11861c10.9306-1.5171,21.299-5.8548,30.2394-12.3016,14.426-10.4024,25.331-25.0057,34.2142-40.2403,8.5721-14.7011,16.0515-30.062,23.002-45.5861,7.6394-17.0627,14.609-34.4421,20.7215-52.1109,5.563-16.0806,10.5277-32.458,13.8422-49.163.3526-1.7771.6829-3.5584.9913-5.3437.3568-2.0657-.5416-3.6983-2.5238-4.4451-8.9346-3.366-17.8192-6.865-26.6975-10.3761-10.2512-4.054-20.488-8.1443-30.7285-12.2252-8.9866-3.5811-17.9724-7.1655-26.9875-10.6746-5.2418-2.0404-10.4909-4.2556-15.8808-5.8858-1.5544-.4701-3.116-.7035-4.5597.2535-1.2599.8352-2.3795,1.9642-3.4823,2.9883-4.2641,3.9598-8.4056,8.0543-12.5561,12.1322-6.4537,6.3409-12.8733,12.7164-19.2879,19.0968-7.6104,7.5698-15.2096,15.1509-22.81,22.7308-7.8206,7.7993-15.6413,15.5985-23.4742,23.3853-6.9637,6.9227-13.935,13.8378-20.939,20.7198-1.4553,1.43-2.9123,2.8583-4.3713,4.2844-1.3958,1.3643-1.3689,3.7414,0,5.1103,1.3973,1.3973,3.7103,1.3683,5.1102,0,6.5749-6.4265,13.1103-12.8933,19.6366-19.369,7.6421-7.5827,15.2684-15.1814,22.8923-22.7825,7.7509-7.7278,15.4983-15.4593,23.2532-23.1832,6.7788-6.7516,13.5615-13.4994,20.3694-20.2217,4.8389-4.778,9.6793-9.5566,14.5972-14.2536,1.3872-1.3249,2.7755-2.6517,4.2096-3.9261.2149-.1909.4304-.3813.65-.5667.3728-.3149,1.0541-.6463-.1953.1292.103-.0639.1915-.1503.301-.205-.723.3607-1.4506.4748-2.0049.4001-.9393-.1264-.1115.0074.1377.0723.2945.0766.5856.1675.876.2584.8845.2768,1.7598.5837,2.6331.894,2.7683.9836,5.5144,2.0306,8.2572,3.083,8.3719,3.2123,16.7038,6.5292,25.0357,9.8433,10.0954,4.0157,20.1833,8.0501,30.281,12.0601,9.3467,3.7118,18.6984,7.4131,28.0872,11.0175,1.9066.732,3.8152,1.4591,5.7264,2.1791-.8413-1.4817-1.6826-2.9634-2.5239-4.445-2.7817,16.1041-7.3118,31.8999-12.4309,47.4016-5.7015,17.2656-12.4198,34.6278-19.5046,50.9347-6.7949,15.6395-14.15,31.0675-22.4088,45.991-8.5089,15.3754-18.0094,29.8548-31.6301,41.1096-.6187.5113-1.2454,1.0125-1.8777,1.5067.6711-.5246-.4216.3162-.5522.4138-.3465.2587-.6949.5146-1.0456.7675-1.2753.9196-2.5788,1.8001-3.9103,2.6364-2.4795,1.5574-5.0564,2.9609-7.719,4.1798-.3265.1495-.6549.2947-.9832.4402-.1445.0641-.2906.1246-.4351.1884.0725-.032.7909-.324.2127-.0899-.6433.2604-1.2857.5212-1.9353.7657-1.1825.4452-2.3787.8541-3.5864,1.2255-2.2584.6947-4.5563,1.2584-6.8783,1.6949-1.0882.2046-2.1815.3798-3.2782.5321-1.9349.2685-2.9924,2.7399-2.5238,4.445.5727,2.0838,2.5041,2.7932,4.4451,2.5238h0Z"/></g></g></g></svg>