<?xml version="1.0" encoding="UTF-8"?><svg id="_レイヤー_2" xmlns="http://www.w3.org/2000/svg" viewBox="0 0 1053.59787 901.02381"><defs><style>.cls-1{fill:#bce0ee;}.cls-1,.cls-2,.cls-3,.cls-4,.cls-5,.cls-6,.cls-7,.cls-8{stroke-width:0px;}.cls-2{fill:#1a1a1a;}.cls-3{fill:#2a2626;}.cls-4{fill:#201d29;}.cls-5{fill:#fdc3c3;}.cls-6{fill:#fff;}.cls-7{fill:#ed9f8c;}.cls-8{fill:#fdcfcf;}</style></defs><g id="set_of_doctor_clip_art"><path class="cls-8" d="M228.14453,829.34779c-27.8085-14.9655-54.0389-32.8189-78.0745-53.565C50.36773,689.72609-6.46977,556.24449.58834,424.72839,7.64634,293.21219,78.44334,166.58039,186.78313,91.68869,267.63392,35.79919,365.87802,8.87139,463.89434,1.53989c126.79028-9.4832,254.47458,25.4409,364.2901,88.0183,93.1877,53.1021,189.7279,119.9348,217.1691,229.6701,16.741,66.9459,6.9123,138.8739-19.7787,202.5104-26.6911,63.6365-69.4705,119.525-118.2659,168.3207-98.8355,98.8361-226.52512,171.5394-364.80442,191.9316-106.8683,15.7599-219.74818-1.727-314.35999-52.6432Z"/><path class="cls-6" d="M564.14134,598.48089c2.66178-7.2866,5.64908-14.4712,7.99918-21.8677,4.8226-15.1791,6.4579-33.7645-5.2453-46.4023-.329-.3554-.7107-.6456-1.1212-.8636.0459-1.3042.1176-2.6071.1469-3.9119.04242-1.8846-.995-3.6584-3.0088-3.9221-1.7139-.2244-3.8795,1.1112-3.9221,3.0089-.5556,24.7303-4.2762,49.4287-11.2531,73.1689-3.529,12.0079-7.8971,23.726-12.9141,35.1888-4.98548,11.3908-10.36348,22.6963-13.6233,34.7384-4.9364,18.2354-5.1435,37.545-1.1017,55.979,4.0568,18.5031,12.082,36.0855,23.4629,51.235,11.3098,15.0545,25.9989,27.5965,42.9584,35.8486,2.1137,1.0285,4.26222,1.9805,6.4381,2.869,2.2952.9374,4.1242-.5997,4.6189-2.4538,4.3303,2.3631,8.8114,4.47,13.4596,6.2341,47.0252,17.8491,103.8708,1.2964,136.60352-36.2574.1432.1315.2864.263.4297.3946,1.3059-1.9912,2.6995-3.944,3.6339-6.1085-5.2788-4.8472-10.5576-9.6943-15.8363-14.5415,1.1275.8487,2.2683,1.6794,3.4339,2.4757,1.8505,1.2646,3.8314.5107,4.8885-.8775,8.7912,4.0721,18.21,6.7029,27.8472,7.4333.193-.3896.4425-.7505.7959-1.035,2.2475-1.8097,4.41-3.6846,6.2831-5.8124-18.3033.4803-36.1808-6.954-50.43803-18.4764-.3702-.2991-.71877-.6185-1.0833-.923-7.49247-8.436-13.479-18.2067-18.11547-28.5808-8.14222-18.2177-12.19352-37.7748-14.50022-57.5097-2.7896-23.8664-3.3096-47.9456-6.476-71.7733-2.1919-16.4941-5.8077-32.8932-12.0232-48.3394-1.2622-6.2856-2.8731-12.4935-5.0408-18.5317-4.1984-11.6953-10.7126-22.637-20.1596-30.8342-8.4413-7.3246-19.375-12.5541-30.6576-13.0322-1.9418-.0822-3.8834-.0363-5.81558.132-2.94012-1.1033-5.96372-2.049-9.09382-2.7773l-50.0543,38.3122c23.5169,17.2806,24.9886,52.5905,15.6579,80.242-4.3663,12.9394-10.5266,25.1909-16.6364,37.4491M691.76471,683.38179c-1.3299-4.8663-2.4485-9.7699-3.4015-14.7011-1.8973-15.6399-2.6432-31.4466-3.5012-47.2402.8045,10.8759,1.554,21.7578,2.7005,32.6007,1.226,11.5937,2.984,23.1631,5.7094,34.4882-.5282-1.7107-1.0367-3.426-1.5072-5.1476ZM719.50734,745.79599c-.97862-.8987-2.47062-.8788-3.643-.3065-2.967-4.0521-5.70422-8.3259-8.19922-12.7703,3.7549,4.9257,7.9399,9.5446,12.5999,13.7724-.2526-.2316-.5052-.4636-.75768-.6956Z"/><path class="cls-3" d="M589.47002,810.91349c-17.8376-8.6495-33.25368-21.9179-44.7994-38.0114-11.5965-16.1642-19.41528-34.9556-22.3505-54.6511-3.3697-22.6104,1.0395-45.2292,8.1637-66.6949,3.9057-11.7682,8.5661-23.2659,13.2127-34.7557,4.8245-11.9296,9.5193-23.9022,13.7991-36.0396,3.8624-10.9539,8.061-22.0763,10.1514-33.5382,1.7539-9.6166,2.07832-20.1347-2.6938-28.9868-1.1748-2.1791-2.68288-4.181-4.3816-5.9779-2.2769-2.4084-5.9067,1.2305-3.6342,3.6344,6.74692,7.1367,7.4937,17.3202,6.287,26.6178-1.4447,11.1313-5.50208,21.9092-9.1423,32.4618-4.2266,12.2524-8.8439,24.3563-13.6905,36.3756-4.6374,11.5003-9.3732,22.9698-13.4499,34.685-7.6419,21.9604-12.8289,45.1675-10.2395,68.515,2.2172,19.9919,9.2883,39.3497,20.2742,56.1899,10.9594,16.7994,25.7422,31.1985,43.2232,41.1133,2.1866,1.2402,4.4145,2.4039,6.6764,3.5007,2.9636,1.4371,5.5727-2.9936,2.594-4.4379Z"/><path class="cls-3" d="M776.15784,761.98969c-22.0354.7768-41.7005-11.7474-55.28433-28.3069-15.9375-19.429-22.5066-44.3634-25.60517-68.8532-3.28962-25.9997-3.39792-52.2815-6.87252-78.27-3.2853-24.5724-9.0192-49.1414-20.6543-71.2071-5.6079-10.6353-12.5486-20.8282-21.2259-29.2042-8.2967-8.0085-18.5256-14.679-29.984-16.9215-2.8748-.5626-5.801-.8622-8.7299-.8749-3.3076-.0143-3.3119,5.1253,0,5.1396,23.997.1037,42.0428,20.8475,53.0569,40.0147,12.3544,21.4994,18.5013,45.9398,22.0133,70.3123,3.7203,25.8182,3.8692,51.9442,6.87142,77.8295,2.90158,25.0174,8.77788,50.5648,23.99368,71.1665,13.01632,17.6238,32.04132,31.7652,54.32972,34.0566,2.6888.2765,5.3905.3534,8.0911.2582,3.298-.1164,3.3135-5.2564,0-5.1396Z"/><path class="cls-3" d="M715.16171,786.67449c-10.8139-7.7128-18.6048-18.8476-23.8583-30.9263-5.5849-12.8407-8.2453-26.8218-9.2415-40.729-1.2521-17.4823-.1847-35.0084.0725-52.5046.2274-15.4577-.2696-30.9721-3.3714-46.1636-2.8623-14.0182-8.0208-27.8575-16.6364-39.3912-1.1242-1.505-2.2929-2.9756-3.5116-4.405-.901-1.0568-2.7078-.9265-3.6343,0-1.0471,1.047-.9031,2.5748,0,3.6341,9.25662,10.8573,14.8597,24.2543,18.0672,38.0478,3.4472,14.825,4.1163,30.0615,3.9831,45.23-.1544,17.5883-1.308,35.1905-.2883,52.7724.8382,14.4538,3.233,28.8943,8.5832,42.4052,5.0036,12.6357,12.45242,24.5084,23.0153,33.2286,1.3688,1.1301,2.7814,2.2089,4.2264,3.2395,1.13072.8064,2.8602.1993,3.516-.9218.7549-1.2906.2113-2.7077-.9219-3.5161Z"/><path class="cls-3" d="M619.17334,809.08119c-4.63412-.9458-7.88632-4.5283-10.44072-8.2948-3.13528-4.623-5.7934-9.6263-8.3186-14.6017-5.29668-10.4363-9.5809-21.365-12.82168-32.6102-1.83192-6.3562-3.32092-12.8064-4.48022-19.3185-.2434-1.3674-1.9119-2.1382-3.1611-1.7949-1.4414.396-2.0389,1.7898-1.7948,3.1611,2.15712,12.1176,5.481,24.0154,9.94112,35.4878,2.19778,5.6536,4.64768,11.2127,7.35978,16.6385,2.637,5.2755,5.4347,10.5709,8.7284,15.4708,3.2849,4.8868,7.60882,9.5908,13.6215,10.8179,1.3586.2773,2.776-.3932,3.1611-1.7948.349-1.2701-.4285-2.8824-1.79478-3.1612Z"/><path class="cls-3" d="M626.70434,773.38039c-11.78012-10.0719-19.86272-23.6026-24.69882-38.2295-5.0843-15.3781-6.7665-31.5879-6.3408-47.7245.5231-19.8343,3.896-39.4223,6.8414-58.9994,2.75722-18.3263,5.1549-36.783,4.6024-55.3571-.52118-17.5259-3.6244-35.1254-11.2034-51.0435-.943-1.9805-1.9589-3.9243-3.0355-5.8355-1.6235-2.8818-6.0649-.2941-4.4379,2.5942,8.5703,15.2134,12.3912,32.5336,13.34962,49.8548,1.014,18.3268-1.01592,36.6045-3.67892,54.7115-2.9,19.7175-6.4396,39.4075-7.4004,59.3473-.804,16.6857.4045,33.5567,5.06,49.6592,4.3624,15.089,11.7979,29.5044,22.9857,40.6722,1.3877,1.3853,2.8322,2.7106,4.3224,3.9847,1.0543.9013,2.599,1.0352,3.63422,0,.92338-.9236,1.05958-2.7284,0-3.6344Z"/><path class="cls-1" d="M296.43492,897.89779l23.95041-92.0947,36.39278-129.0607c-47.48,1.3309-108.10778,41.514-135.7136,80.1672-24.2978,34.0218-44.1811,97.0678-55.9777,140.9882h131.3481Z"/><path class="cls-1" d="M572.43342,897.89779h131.75592c-10.99732-44.1277-31.60032-115.1311-57.82452-151.8503-27.6057-38.6531-84.7514-69.3795-132.2319-70.7104l31.8113,120.7036,26.4892,101.8571Z"/><polygon class="cls-6" points="507.26522 829.75169 366.95162 829.75169 368.17302 621.18799 507.26522 621.18799 507.26522 829.75169"/><path class="cls-1" d="M613.99302,897.89779c-1.09568-20.4746-1.79368-37.2993-1.9045-48.3779-.3936-39.4519-2.3726-71.0536-10.7481-97.0471-8.8252-27.3887-24.6467-47.5765-49.7893-63.5309-11.113-7.0529-27.2449-13.2056-43.5793-18.8112l-18.8228,89.7903c-19.5603,33.1479-44.10668,62.7822-54.9722,62.7822-10.81048,0-34.26748-29.3335-51.3608-62.2763l-14.9248-91.1214c-94.7458,32.512-99.0276,84.2381-103.1716,176.6406l-.1492,3.3191c-.55809,12.4077-1.4875,29.1296-2.6665,48.6326h352.08909Z"/><path class="cls-6" d="M637.44101,409.31739c0,126.2465-46.0438,228.5894-207.19729,228.5894s-207.19719-102.3429-207.19719-228.5894c0-50.3378,1.11081-102.2067,27.8983-139.9717,40.3951-56.949,105.7546-93.9491,179.5108-93.9491,70.03,0,132.4902,33.356,173.1994,85.4727,30.59832,39.1726,33.786,94.2753,33.786,148.4481Z"/><path class="cls-4" d="M240.49552,535.61859c25.0166,50.3364,73.1025,87.857,127.9997,99.9175-.7547-.9912-1.5094-1.9823-2.264-2.9735.8544,12.1625-.3418,24.6211-1.4238,36.7428-.3528,3.9523,5.81692,3.9285,6.1675,0,1.082-12.1216,2.2782-24.5804,1.4238-36.7428-.0916-1.3039-.88738-2.6712-2.264-2.9736-53.4777-11.7488-99.94738-48.0552-124.3138-97.0832-1.7665-3.5546-7.0881-.434-5.3254,3.1128h0Z"/><path class="cls-4" d="M611.12052,543.95229c-21.4686,41.0324-60.7016,71.228-105.86318,81.475-1.30722.2966-2.26932,1.6659-2.264,2.9736.05218,12.7214.10438,25.4429.15658,38.1643.0163,3.9677,6.1838,3.9757,6.1675,0-.0522-12.7214-.1044-25.4429-.1566-38.1643-.7546.9912-1.5093,1.9824-2.2639,2.9735,46.6051-10.5745,87.3941-41.9651,109.549-84.3093,1.8382-3.5132-3.4827-6.6347-5.3254-3.1128h0Z"/><path class="cls-6" d="M680.72101,429.35139c0-21.8912-.2513-71.9781-15.1442-121.6756-13.3307-44.4849-39.2434-85.2875-78.87448-110.5572-1.98082-1.2629-4.16332-2.1338-6.43872-2.6494-4.5277-20.1581-20.2519-37.4211-40.6562-47.1358-28.7839-13.7046-60.4462-21.0972-92.2316-22.7608-54.6891-2.8624-109.1922,14.602-151.044,49.7103-51.9156,31.4872-88.017,88.7371-103.6824,146.6674-13.9813,51.7019-14.9903,106.0481-12.4893,159.2135.58421,12.4185,10.529,24.3957,23.8013,23.8013,12.3946-.5551,24.4278-10.4804,23.8013-23.8013-1.008-21.4307-1.4897-42.896-.7141-64.3432.3688-10.1991,1.0289-20.3888,2.0342-30.5455,1.0398.4124,2.1137.7724,3.2592,1.0101,47.8982,9.9374,95.01331,2.2455,137.8191-16.8095,4.0526,11.2709,16.696,20.1776,29.0229,15.895,19.0185-6.6077,35.65432-16.286,50.53632-28.0586.23688.4433.46378.8926.73588,1.3151,7.4044,11.4843,20.578,14.4133,32.5647,8.5387,37.0589-18.162,66.83-51.7609,81.3048-90.6184.2198.3191.4331.643.6515.9631,33.3247,21.1479,45.6767,26.3483,55.5914,63.501,5.1888,19.4433,20.1496,114.4762,23.21372,146.8027,1.17918,12.4413,37.61788,11.9132,37.61788,0,0-15.6933-.6792-36.5717-.6792-58.4629Z"/><path class="cls-6" d="M245.72052,535.36889c-43.6726,7.0931-77.3878-37.2607-79.4123-72.2781-.697-16.8302,16.009-23.8583,35.2102-24.5705,39.6808-2.0334,69.9438,30.09,61.7906,55.5724-2.2595,16.5034-7.2201,39.0147-17.5885,41.2762Z"/><path class="cls-6" d="M617.32872,535.36889c43.67262,7.0931,77.3878-37.2607,79.4123-72.2781.697-16.8302-16.6744-26.7885-35.8756-27.5007-39.6808-2.0334-69.2784,33.0202-61.1252,58.5026,2.2595,16.5034,7.22012,39.0147,17.5885,41.2762Z"/><ellipse class="cls-4" cx="524.40512" cy="437.89887" rx="19.46346" ry="15.67777" transform="translate(71.17323 949.11018) rotate(-88.30352)"/><ellipse class="cls-4" cx="337.66067" cy="432.36762" rx="19.46341" ry="15.67772" transform="translate(-104.51456 757.07911) rotate(-88.30339)"/><path class="cls-4" d="M549.27992,406.51829c-1.9441.4278-4.1148-2.0037-7.1814-4.8946-.3964-.3601-.7911-.7377-1.1816-1.1335-.4011-.3899-.894-.7441-1.3318-1.1438-.8436-.8256-1.9132-1.5507-2.9053-2.3893-2.13448-1.5525-4.5062-3.1265-7.1599-4.543-2.6879-1.3531-5.3412-2.3849-7.8405-3.235-1.2574-.3275-2.4665-.7837-3.6276-.9974-.5788-.1276-1.1523-.3262-1.7021-.4293-.54838-.0911-1.0846-.1962-1.6075-.3125-4.1297-.8403-7.3674-1.2133-8.1377-3.0487-.356-.8825.0303-1.9694,1.21-3.2271.2944-.3138.63782-.6377,1.0297-.9698.3962-.3134.854-.5774,1.3536-.8727,1.0038-.5571,2.19452-1.2261,3.5851-1.5956.693-.2142,1.4307-.4216,2.2097-.6198.7781-.186,1.5915-.2533,2.4455-.3651,1.718-.2633,3.5356-.1781,5.4757-.0841,3.8308.374,7.9949,1.482,11.9609,3.5018,3.9349,2.077,7.239,4.8413,9.7517,7.7563,1.1944,1.5311,2.3115,2.9674,3.0861,4.523.4011.7624.8146,1.4658,1.1109,2.2089.2871.7508.5426,1.473.7667,2.163.4995,1.3497.6391,2.7081.762,3.8497.0466.5783.0947,1.1047.0668,1.6091-.0453.5116-.112.9792-.1991,1.4005-.3482,1.6892-1.0137,2.6313-1.9399,2.849Z"/><path class="cls-4" d="M356.28782,390.93419c-.8707,1.7697-4.0492,2.0097-8.22548,2.3349-.52832.0492-1.07052.0859-1.62482.1089-.556.03-1.1434.1312-1.7319.1743-1.1751.0543-2.4259.2794-3.7119.3972-2.5821.3837-5.3477.8646-8.22038,1.5745-2.85972.7646-5.51472,1.6781-7.96172,2.5883-1.1834.5175-2.3875.9241-3.4431,1.4435-.53619.2466-1.0995.4412-1.601.6832-.4966.2476-.98919.4771-1.4756.689-3.8148,1.7308-6.7142,3.0538-8.3308,1.924-.77379-.5543-1.0583-1.6577-.8176-3.2858.1096-.8226.3674-1.7584.8365-2.7338.457-.9844,1.0042-2.1338,1.8299-3.2029.3983-.5514.8326-1.1215,1.3018-1.7072.4732-.58,1.0312-1.1039,1.597-1.6768,1.1175-1.1737,2.48561-2.194,3.9511-3.2666,2.9937-2.0138,6.6307-3.7579,10.6747-4.8245,4.0551-1.0168,8.0814-1.2438,11.6746-.9248,1.8011.2323,3.4915.4658,5.0365.9541.7719.2289,1.5135.4184,2.2079.698.6934.2868,1.349.5764,1.9639.8671,1.2391.5377,2.2733,1.2804,3.1485,1.922.8817.6282,1.5592,1.3234,2.0521,1.991.9967,1.3098,1.28,2.4135.8698,3.2724Z"/><path class="cls-4" d="M403.91322,498.37529c2.5262,12.6818,13.3517,23.0606,25.9552,25.6283,13.2934,2.7082,26.4602-3.6296,33.48792-15.1267,3.93518-6.4378,5.61388-13.8413,4.67288-21.3281-.295-2.3473-3.0125-3.8337-5.1867-3.373-2.4765.5247-3.6689,2.8326-3.373,5.1867.1377,1.0961.1746,1.8696.1125,3.291-.04368,1-.2559,2.8058-.35368,3.2943-.45972,2.2971-1.41892,4.9237-2.34152,6.6461-2.357,4.4001-5.6786,8.0347-9.7289,10.3755-4.3871,2.5355-8.6398,3.4424-13.69658,2.8242-4.50932-.5512-9.13262-2.6709-12.94532-5.8472-4.0348-3.3613-7.00768-8.1875-8.043-13.3847-1.1004-5.5241-9.6608-3.7138-8.5598,1.8136h0Z"/><path class="cls-4" d="M432.94022,450.90589c5.3964,5.8836,2.078,15.5531-5.7976,16.9164-4.9408.8552-4.5408,8.7171.4411,7.8547,14.9488-2.5872,20.7887-19.5131,10.5251-30.7031-3.4121-3.7201-8.5632,2.231-5.1686,5.932Z"/><circle class="cls-5" cx="320.75005" cy="504.35874" r="48.26498" transform="translate(-58.10248 42.0503) rotate(-6.87936)"/><path class="cls-7" d="M307.23912,488.25979c-2.68779,5.4214-5.3756,10.8429-8.0634,16.2643-.3728.7519-.6,1.4453-.4141,2.2987.1593.7313.6745,1.5341,1.3326,1.9182,1.2982.7574,3.4597.6088,4.2169-.9186,2.6878-5.4214,5.3756-10.8429,8.0634-16.2643.3727-.7519.5999-1.4453.414-2.2987-.1593-.7313-.6744-1.5341-1.3326-1.9182-1.2982-.7574-3.45959-.6088-4.2168.9186h0Z"/><path class="cls-7" d="M332.14734,480.06949c-4.66272,11.3093-9.32531,22.6185-13.98791,33.9278-.6285,1.5244.4764,3.364,1.9584,3.8466,1.67051.5438,3.2166-.4304,3.8466-1.9584,4.6626-11.3093,9.3252-22.6185,13.9878-33.9278.6285-1.5245-.4763-3.3641-1.9584-3.8466-1.6704-.5439-3.2166.4304-3.84648,1.9584h0Z"/><circle class="cls-5" cx="547.33225" cy="504.35874" r="48.26499" transform="translate(-51.73934 62.69873) rotate(-6.26097)"/><path class="cls-7" d="M536.94192,486.07309c-3.3237,8.4565-6.6473,16.9131-9.971,25.3697-.6031,1.5345.4581,3.3581,1.95842,3.8466,1.64938.537,3.24208-.4203,3.84658-1.9584,3.3236-8.4566,6.6473-16.9132,9.9709-25.3697.6031-1.5345-.4581-3.3582-1.9584-3.8466-1.6494-.537-3.242.4202-3.8465,1.9584h0Z"/><path class="cls-7" d="M560.24122,489.64039c-2.31288,5.6621-4.62588,11.3243-6.93888,16.9865-.60532,1.4819.45028,3.4267,1.95838,3.8466,1.6912.4709,3.2005-.3769,3.84662-1.9584,2.31288-5.6622,4.62588-11.3244,6.93888-16.9865.6053-1.4819-.4503-3.4267-1.9584-3.8466-1.6912-.471-3.20048.3769-3.8466,1.9584h0Z"/><path class="cls-3" d="M574.43602,172.77229c-14.5963-15.2911-33.73368-25.8551-53.1241-33.8282-17.6751-7.2681-36.2899-11.9542-55.2354-14.3572-18.9215-2.4-38.145-2.3689-57.06618.0186-18.97492,2.3943-37.62692,7.0073-55.42662,14.0309-17.8295,7.0353-34.7637,16.287-50.0748,27.8392-1.9628,1.481-3.9023,2.9933-5.8178,4.5356-1.3946,1.1233-1.1694,3.5161,0,4.6859,1.3784,1.3784,3.2875,1.126,4.686,0,14.4138-11.6072,30.5235-21.1037,47.5088-28.4247,16.9921-7.3239,35.0222-12.3555,53.2936-15.2107,18.2929-2.8586,36.9889-3.3784,55.4209-1.6686,18.3206,1.6994,36.44292,5.7754,53.7136,12.1249,8.7617,3.221,17.2775,7.0718,25.49232,11.5052,9.29878,5.0183,18.26758,10.7687,26.16018,17.8266,2.0029,1.7913,3.9285,3.6648,5.7835,5.6083,2.9507,3.0909,7.6321-1.5996,4.686-4.6858Z"/><path class="cls-3" d="M276.21952,188.86059c-.82119-1.4041-3.0973-2.274-4.5333-1.1888-26.5183,20.0405-46.4617,47.3907-60.397,77.3864-15.60689,33.5934-23.6266,69.921-28.5193,106.4784-2.9371,21.9437-4.7692,44.0136-6.5472,66.0756-.1262,1.5651,1.2173,2.931,2.6873,3.2449-7.9958,4.0298-14.76269,10.5242-17.837,19.0895-4.4303,12.3423.708,25.7923,7.2338,36.3533,6.0182,9.7389,13.8848,18.1816,22.9924,25.0908,10.1337,7.6878,21.9117,13.2545,34.3013,16.1453,4.14881.9681,5.9197-5.4199,1.76181-6.3899-19.96731-4.6591-36.30281-18.5236-48.25841-35.225-6.2864-8.7816-12.3721-19.8413-11.0154-31.0264,1.1765-9.6992,6.8842-15.0902,15.4369-18.9368,12.5365-5.6382,27.1862-3.4604,40.1874-.907.8878.1743,1.7916.0424,2.5339-.3637.3374.1185.6833.1971,1.0237.1971,1.94891,0,3.1232-1.5263,3.3134-3.3134,1.1629-10.9303,2.3262-21.8605,3.4891-32.7908.1896-1.7821-1.65859-3.3134-3.3134-3.3134-1.94919,0-3.1231,1.5263-3.3134,3.3134-1.0516,9.8843-2.1035,19.7686-3.1551,29.6531-12.9203-2.4894-26.774-4.302-39.50369-.0294-.83581.2805-1.66221.5954-2.48271.9257.3015-.506.4944-1.0927.5449-1.7173,3.0855-38.2858,6.3184-76.7609,15.3774-114.1876,7.8576-32.4619,20.311-64.0168,39.7327-91.3682,10.3563-14.5849,22.7821-27.8638,37.0711-38.6625,1.42561-1.0772,2.1679-2.8594,1.1888-4.5333Z"/><path class="cls-3" d="M571.21352,268.07789c-1.4169-.8286-3.7964-.4517-4.5335,1.1888-8.7478,19.4716-17.8861,39.2856-31.42668,55.9729-12.11552,14.9312-27.79512,27.5411-46.62612,32.596-11.6392,3.1244-23.9654,3.3399-35.7088.6468-.4106-.0942-.79008-.099-1.1506-.0621,5.1309-6.1838,9.7059-12.8255,13.83052-19.3916,6.72478-10.7057,12.30958-22.0862,16.80918-33.8975.63682-1.6726-.706-3.6341-2.31418-4.0759-1.865-.5124-3.43662.6355-4.076,2.3142-7.261,19.0614-17.73212,37.3967-31.16552,52.7974-11.7609,13.4836-27.3759,25.1225-46.0628,24.6608-8.0854-.2-16.068-2.7446-22.2084-7.9806,10.6679-4.8882,20.5342-11.6868,28.0142-20.8038,1.1338-1.3825,1.3526-3.3331,0-4.686-1.17-1.1698-3.5453-1.3902-4.6859,0-13.7619,16.774-34.7391,24.2252-55.2429,28.9646-11.3713,2.6284-22.9063,4.6332-34.4142,6.5572-12.9328,2.162-25.9657,3.9062-39.0888,4.2485-14.552.3797-29.083-1.0846-42.9461-5.6853-4.057-1.3462-5.7965,5.0511-1.7619,6.39,25.8891,8.5919,53.5788,6.4762,80.0845,2.3246,12.1721-1.9065,24.3543-4.0417,36.3951-6.6619,9.161-1.9937,18.2233-4.4512,26.9633-7.8306,13.425,13.8373,35.2266,14.4569,51.999,6.9021,10.3883-4.6791,19.23742-12.1168,26.9005-20.7031-.0336,1.3288.6637,2.6201,2.3592,3.0089,21.7101,4.9787,44.4675.7148,63.0895-11.4263,17.635-11.4977,30.8933-28.3614,41.2344-46.4727,6.3362-11.097,11.689-22.7151,16.9215-34.362.7329-1.6311.4708-3.5627-1.1885-4.5334Z"/><path class="cls-3" d="M632.75022,366.78949c-.9565-10.8348-2.5426-21.6182-6.4656-31.8169-3.4522-8.9736-8.233-17.2713-14.198-24.8063-6.6038-8.3421-14.7071-15.4791-23.7765-21.0374-3.646-2.2344-6.97878,3.4949-3.3444,5.722,15.18462,9.3063,27.35062,23.5263,34.1754,39.9916,3.932,9.4862,5.7961,19.5299,6.7766,29.7122,1.1043,11.4695,1.8165,22.9848,2.6908,34.4739,1.006,13.2134,2.0116,26.4271,3.0176,39.6408.1356,1.7845,1.4253,3.3134,3.3134,3.3134,1.6877,0,3.4499-1.5193,3.3134-3.3134-1.8237-23.956-3.3898-47.9479-5.5027-71.8799Z"/><path class="cls-3" d="M538.34992,256.79659c-1.5499-.4258-3.8265.5306-4.0757,2.3142-2.58788,18.5371-8.7403,36.4023-18.2126,52.5481-2.1624,3.6861,3.5632,7.0248,5.7221,3.3446,9.7401-16.6027,16.2187-35.0642,18.8804-54.1309.24722-1.7701-.4307-3.5585-2.3142-4.076Z"/><path class="cls-3" d="M681.89571,350.46749c-5.2448-24.1105-11.637-48.023-21.3565-70.7542-8.7562-20.4775-20.4264-39.8363-35.6641-56.1628-8.3501-8.9463-17.7987-16.8866-28.1582-23.4114-3.6192-2.2794-6.9484,3.4523-3.3448,5.722,17.7276,11.1652,32.35822,26.6866,43.8453,44.118,12.7028,19.2755,21.5658,40.7356,28.2473,62.7625,3.944,13.0024,7.1535,26.2142,10.0411,39.4874.906,4.1654,7.2959,2.4027,6.3899-1.7615Z"/><path class="cls-3" d="M698.57391,457.68339c-1.5994-6.2239-5.7007-11.6117-10.6213-15.6276-.5267-.43-1.0697-.8348-1.6129-1.2394.0348-.1629.0694-.326.0865-.4948,2.4249-23.982.7827-48.2972-4.7261-71.7609-.9743-4.1499-7.3655-2.3933-6.39,1.7617,5.1177,21.7981,6.696,44.2929,4.7988,66.5902-9.8235-5.1257-21.3268-6.6969-32.2657-4.2142-4.15688.9436-2.3976,7.3341,1.7619,6.3899,10.7296-2.4355,22.2216-.1889,31.3351,5.948,4.3125,2.9043,8.3148,6.8742,10.3672,11.7285,2.4203,5.7246,1.6797,12.3472.3022,18.2342-2.7837,11.8955-9.247,22.5126-15.9945,32.5446-3.3664,5.005-6.9539,9.8784-11.48478,13.903-3.76162,3.3408-8.17282,6.0482-12.81122,7.9915-10.7223,4.4922-22.873,5.1086-33.9217,1.4684-4.0596-1.3373-5.7998,5.0597-1.7616,6.3902,11.1348,3.6687,23.5118,3.4196,34.57952-.3889,5.603-1.9282,10.87558-4.6866,15.57488-8.2987,5.216-4.0093,9.4049-8.9671,13.2004-14.3135,7.69072-10.8322,15.01672-22.641,18.5126-35.5719,1.8236-6.7455,2.83412-14.1764,1.0707-21.0403Z"/><path class="cls-1" d="M186.19443,345.48099c156.5767-83.5692,349.95119-74.0093,497.44329,20.5063l53.86312-91.6069S579.24122,63.03629,431.79472,63.03629s-302.39129,200.6267-302.39129,200.6267l56.791,81.818Z"/><path class="cls-2" d="M128.78283,269.95909c7.7508,11.1665,15.5016,22.333,23.25251,33.4995,8.41929,12.1296,16.83859,24.2592,25.258,36.3889,1.78359,2.5696,3.56719,5.1392,5.35079,7.7088,1.3046,1.8795,3.5338,2.5894,5.6255,1.475,40.5424-21.6,84.1356-37.1877,129.1271-46.4357,44.1862-9.0824,89.6024-11.9371,134.5924-8.7503,25.1197,1.7793,50.0645,5.4995,74.6248,11.0583,5.15342,1.1663,7.3537-6.76,2.1861-7.9296-22.4866-5.0894-45.3201-8.6556-68.2872-10.6753-22.7252-1.9984-45.5863-2.4501-68.37248-1.3421-23.08912,1.1227-46.11532,3.8417-68.83331,8.1159-22.5915,4.2503-44.8859,10.0835-66.6544,17.4725-22.1986,7.535-43.8756,16.6726-64.7574,27.3274-2.6045,1.3289-5.1956,2.6835-7.7761,4.0584,1.87521.4916,3.7504.9833,5.6256,1.475-4.9855-7.1824-9.9709-14.3648-14.9563-21.5472-9.19109-13.2415-18.38209-26.483-27.5732-39.7244-3.7773-5.4419-7.5546-10.8838-11.3318-16.3256-1.2646-1.8219-3.60309-2.658-5.6255-1.4751-1.8039,1.0551-2.7475,3.7924-1.4751,5.6256h0Z"/><path class="cls-2" d="M608.29002,331.02819c25.4742,10.6986,49.9948,23.6312,73.2725,38.5094,1.8753,1.1986,4.5334.3824,5.6255-1.475,6.0394-10.2715,12.0789-20.543,18.11832-30.8145,9.69158-16.4828,19.38317-32.9657,29.0748-49.4485,2.2233-3.7813,4.4466-7.5626,6.67-11.3439.68-1.1566.8524-3.0127,0-4.1505-4.398-5.8703-9.0211-11.5812-13.67363-17.2499-11.5937-14.1258-23.6614-27.8657-36.1154-41.2383-17.2006-18.4693-35.165-36.2438-53.9973-53.0501-21.0858-18.8174-43.2891-36.4984-66.8822-52.0826-23.2666-15.3686-48.0561-28.7653-74.4205-38.0061-25.2172-8.8387-51.95978-13.4218-78.6873-11.1208-30.37548,2.6151-59.5879,12.6416-86.8122,26.0455-28.39828,13.982-54.7785,31.7862-79.6692,51.2654-23.0276,18.0213-44.771,37.6689-65.4394,58.343-15.2215,15.2257-29.8846,31.0224-43.8858,47.3783-2.2297,2.6046-4.441,5.2249-6.6326,7.8615-3.3596,4.0419,2.4273,9.8902,5.8148,5.8148,11.77-14.1602,24.0844-27.8719,36.7966-41.191,19.0052-19.9125,38.9534-38.9519,59.96131-56.7449,23.57549-19.9677,48.56589-38.4074,75.32759-53.8977,26.12041-15.1191,54.1567-27.5377,83.8366-33.6088,26.3846-5.3969,53.08882-4.5252,79.1226,2.2516,26.213,6.8234,50.92122,18.5206,74.11,32.3736,23.9297,14.2956,46.3738,30.9875,67.64722,48.9698,19.79338,16.7312,38.61928,34.5987,56.62828,53.2315,14.0156,14.501,27.548,29.4742,40.5502,44.8905,4.2191,5.0024,8.3822,10.0523,12.4711,15.1617,1.3856,1.7313,2.7627,3.4695,4.12803,5.2169.2404.3077.4802.6158.72.9238.165.2119.9664,1.2482.4475.5762-.4853-.6285.5104.6642.7432.9693.271.3549.5421.7099.8099,1.0673v-4.1505c-6.03953,10.2715-12.07893,20.543-18.11832,30.8145-9.6916,16.4828-19.3832,32.9657-29.0748,49.4485-2.2233,3.7813-4.4466,7.5626-6.67,11.3439,1.8752-.4917,3.7504-.9834,5.6255-1.475-23.9038-15.2784-49.0854-28.3555-75.2368-39.3385-2.0637-.8667-4.5016.9346-5.05778,2.8717-.67862,2.3632.83478,4.2024,2.87168,5.0579h0Z"/><path class="cls-4" d="M441.69252,835.43909c20.2212-6.8899,38.886-17.3728,58.4133-25.8944,5.448-2.3774,10.98-4.5604,16.6071-6.4777,1.6902-.5759,3.1107-2.8268,1.843-4.53-6.0142-8.0803-12.0284-16.1607-18.04258-24.241-1.16082,1.51-2.32172,3.02-3.48252,4.53,19.0717,3.2564,38.1434,6.5128,57.2151,9.7691,2.4483.4181,4.1909-1.3598,3.79342-3.7933-3.04972-18.6688-7.38922-37.1461-13.21272-55.1481-5.7156-17.6688-12.8442-35.003-22.0471-51.156-.5049-.8862-.9728-1.6434-1.8201-2.2495-.2656-.19-.5415-.3672-.8118-.5505-1.0625-.7206-2.1251-1.4411-3.1876-2.1616-1.708-1.1583-3.416-2.3165-5.124-3.4747-1.379-.9352-3.4183-.263-4.2191,1.1062-.8898,1.5212-.276,3.2819,1.1063,4.2192,3.0726,2.0837,6.1453,4.1673,9.218,6.251l-1.1063-1.1063c7.093,12.3029,12.9433,25.2846,17.84642,38.6043,5.15388,14.0014,9.31208,28.366,12.64008,42.9069,1.8492,8.0798,3.4344,16.2185,4.7707,24.3986,1.2644-1.2644,2.5289-2.5289,3.7934-3.7933-19.0717-3.2564-38.1435-6.5128-57.21518-9.7692-1.24232-.2121-2.44522.0397-3.24142,1.1051-.6753.9038-.978,2.4348-.2411,3.4249,6.0142,8.0804,12.0284,16.1607,18.0426,24.2411.6143-1.51,1.2286-3.0201,1.843-4.5301-20.2212,6.89-38.886,17.3729-58.4133,25.8944-5.448,2.3775-10.98,4.5604-16.6071,6.4777-1.5759.537-2.614,2.1189-2.1538,3.7934.4219,1.5352,2.2099,2.6933,3.7933,2.1538h0Z"/><path class="cls-4" d="M432.92922,829.49259c-19.99788-6.8139-38.4283-17.2624-57.7676-25.6324-5.6688-2.4534-11.4047-4.7471-17.2527-6.7397l1.8429,4.53c6.0142-8.0803,12.0284-16.1606,18.0426-24.241.7184-.9652.4478-2.56-.24108-3.4249-.824-1.0345-1.966-1.3229-3.24142-1.1051-19.0717,3.2564-38.1434,6.5128-57.2151,9.7691,1.2644,1.2645,2.5289,2.529,3.7933,3.7934,2.3791-14.5634,5.5487-29.0009,9.5844-43.1961,4.00882-14.1004,8.8437-28.0054,14.8352-41.3913,3.2589-7.2809,6.853-14.411,10.83762-21.3224-.36872.3688-.73752.7375-1.10632,1.1063,3.0727-2.0837,6.1454-4.1673,9.2181-6.251,1.3767-.9336,1.987-2.7134,1.1063-4.2192-.7986-1.3653-2.8343-2.0454-4.2192-1.1063-3.0521,2.0698-6.1631,4.0719-9.1642,6.2146-1.5922,1.1367-2.478,3.4395-3.4064,5.1306-1.0798,1.967-2.1294,3.9506-3.1494,5.9492-2.0762,4.068-4.0328,8.1966-5.8815,12.3727-7.6975,17.3879-13.6542,35.5116-18.2303,53.9593-2.5497,10.2786-4.6642,20.6629-6.3714,31.1141-.3976,2.4335,1.345,4.2114,3.79331,3.7933,19.07168-3.2564,38.14338-6.5127,57.21508-9.7691-1.1608-1.51-2.3216-3.02-3.4825-4.53-6.0142,8.0803-12.0283,16.1607-18.0425,24.241-1.2677,1.7032.1527,3.9541,1.84292,4.53,19.998,6.8139,38.42838,17.2624,57.76758,25.6324,5.6689,2.4535,11.4047,4.7471,17.2528,6.7397,1.5763.5371,3.3709-.6164,3.7934-2.1538.46422-1.6895-.5717-3.2543-2.1539-3.7934h0Z"/><path class="cls-4" d="M365.63552,673.77109c-.96518,57.8607,22.3794,114.9726,63.5797,155.6052,2.7518,2.7139,6.9973-1.526,4.2426-4.2427-40.1141-39.5613-62.7619-95.0328-61.8223-151.3625.0644-3.8624-5.9356-3.8633-6,0h0Z"/><path class="cls-4" d="M503.23362,666.56519c-.63628,15.8173-2.167,31.6854-4.50828,47.3362-1.75832,11.7532-3.93632,23.588-7.74042,34.8724-4.4581,13.2246-12.4818,25.5145-20.9124,36.5296-11.6053,15.1631-25.7524,28.3029-41.60618,38.9215-3.19222,2.1381-.19192,7.3377,3.02828,5.1808,26.3798-17.6687,50.4938-43.2544,62.9333-72.83,9.1676-21.7963,11.4547-46.9228,13.4765-70.2689.5688-6.5681,1.0642-13.1531,1.3292-19.7416.1553-3.8611-5.8449-3.8541-6,0h0Z"/><path class="cls-4" d="M436.05112,897.89779v-51.0817c0-3.9685-6.1675-3.9749-6.1675,0v51.0817h6.1675Z"/><path class="cls-4" d="M355.47962,674.65059c-40.3616,1.7456-77.89,17.9585-106.6925,46.2815-28.5607,28.0854-47.1465,64.3628-60.4352,101.7511-8.5487,24.052-15.0889,48.7482-21.6103,73.4078-.9881,3.7366,4.7978,5.3306,5.78571,1.5951,19.54729-73.9155,43.49939-159.7845,116.01409-199.0377,20.5722-11.136,43.62191-16.9894,66.9382-17.9978,3.8464-.1663,3.8671-6.1672,0-6h0Z"/><path class="cls-4" d="M514.13292,678.33709c38.3976,3.8669,77.2308,16.7256,106.3611,42.8305,30.715,27.5251,49.5034,65.5557,61.9899,104.2739,7.7666,24.0829,13.3873,48.7796,18.9939,73.4333.8559,3.7636,6.6421,2.1708,5.7857-1.595-9.9979-43.9632-20.2605-88.665-42.22618-128.4718-19.56882-35.4631-47.97362-64.2291-85.48922-80.269-20.8056-8.8955-42.9449-13.939-65.4152-16.2019-3.8385-.3865-3.81158,5.6162,0,6h0Z"/></g></svg>