<?xml version="1.0" encoding="UTF-8"?><svg id="_レイヤー_2" xmlns="http://www.w3.org/2000/svg" xmlns:xlink="http://www.w3.org/1999/xlink" viewBox="0 0 235.12927 353.12676"><defs><style>.cls-1{fill:#3e5177;}.cls-1,.cls-2,.cls-3,.cls-4,.cls-5,.cls-6,.cls-7,.cls-8,.cls-9,.cls-10,.cls-11,.cls-12,.cls-13,.cls-14,.cls-15,.cls-16,.cls-17,.cls-18,.cls-19,.cls-20{stroke-width:0px;}.cls-2{fill:#ba4742;}.cls-3{fill:#844913;}.cls-4{fill:#a9abaa;}.cls-5{fill:#843f2c;}.cls-6{fill:#ececec;}.cls-7,.cls-21{fill:#ff7f72;}.cls-22{clip-path:url(#clippath-2);}.cls-23,.cls-10{fill:#f49d18;}.cls-9{fill:#3d71b0;}.cls-11{fill:#a4ead8;}.cls-24{clip-path:url(#clippath-1);}.cls-12{opacity:.48;}.cls-12,.cls-17{fill:#ce8463;}.cls-13{fill:#fff;}.cls-14{fill:#f9d0bd;}.cls-25{clip-path:url(#clippath);}.cls-15{fill:#fe8074;}.cls-16{fill:#607cb0;}.cls-26{clip-path:url(#clippath-3);}.cls-18{fill:#e35d58;}.cls-19{fill:#6ab7a1;}.cls-20{fill:#b66248;}</style><clipPath id="clippath"><path class="cls-7" d="M186.95928,324.64986c.7815,4.8126,1.2548,9.6753,1.4159,14.5483,3.8055.1957,7.6155.3037,11.426.324.2405.0013.5113-.0103.6739-.1874.1406-.153.1532-.3805.1582-.5882.1097-4.5348.2194-9.0696.3291-13.6043-4.7594-.1037-9.5138-.4414-14.2402-1.0114l.2371.519Z"/></clipPath><clipPath id="clippath-1"><polygon class="cls-10" points="202.03938 336.16556 188.75048 335.87746 163.73688 347.74196 189.77718 347.74196 192.87058 343.09436 194.56668 347.74196 202.03938 347.74196 202.03938 336.16556"/></clipPath><clipPath id="clippath-2"><path class="cls-7" d="M150.36548,322.90726c.7815,4.8127,1.2548,9.6753,1.4159,14.5484,3.8055.1956,7.6156.3036,11.426.324.2405.0012.5113-.0103.674-.1875.1405-.153.1531-.3805.1581-.5882.1097-4.5348.2195-9.0695.3292-13.6043-4.7595-.1037-9.5139-.4414-14.2403-1.0114l.2371.519Z"/></clipPath><clipPath id="clippath-3"><polygon class="cls-10" points="165.44558 334.42296 152.15668 334.13496 127.14308 345.99936 153.18338 345.99936 156.27678 341.35176 157.97288 345.99936 165.44558 345.99936 165.44558 334.42296"/></clipPath></defs><g id="_饑1"><path class="cls-21" d="M186.95928,324.64986c.7815,4.8126,1.2548,9.6753,1.4159,14.5483,3.8055.1957,7.6155.3037,11.426.324.2405.0013.5113-.0103.6739-.1874.1406-.153.1532-.3805.1582-.5882.1097-4.5348.2194-9.0696.3291-13.6043-4.7594-.1037-9.5138-.4414-14.2402-1.0114l.2371.519Z"/><g class="cls-25"><path class="cls-13" d="M188.79818,322.48706c-.9493-.2159-1.4994.8668-1.3535,1.676.1963,1.0887,1.4762,1.5107,2.3208,1.9645.4653.2501.9656.6066,1.1706,1.1145.1647.4078.0434.811-.1895,1.1609-.4352.6537-1.1322,1.0848-1.568,1.7386-.4652.6979-.213,1.5137.549,1.8695.4531.2115.9903.2689,1.3976.5725.3937.2934.6058.7686.6793,1.2434.181,1.1689-.4909,2.203-1.1896,3.0733-.5796.7221-1.9418,2.0188-.9246,2.9415.2222.2016.5006.3172.7472.4827.1993.1337.3782.3057.5247.4955.2987.3868.4796.8644.5472,1.3464.1341.9568-.1757,2.024-.9771,2.6125-.2479.182-.0072.6013.2438.417,1.4555-1.0689,1.6364-3.3259.5311-4.7131-.2876-.361-.6441-.5828-1.0346-.8166-.2394-.1434-.455-.3181-.4553-.621-.0002-.3126.1915-.6123.369-.8571.7152-.9862,1.6282-1.8232,1.9929-3.025.2731-.8998.1581-1.9967-.489-2.7141-.3307-.3666-.7717-.5344-1.2305-.6813-.3986-.1276-.9137-.2729-1.032-.7351-.0741-.2899.0917-.5612.2657-.7807.2437-.3072.5434-.5687.82-.8451.5605-.56,1.1343-1.254.9462-2.1034-.2799-1.2642-1.7224-1.6393-2.6774-2.2292-.4664-.288-.9315-.7125-.8769-1.3078.0351-.3836.3025-.9186.7645-.8136.3027.0689.4319-.3967.1284-.4657h0Z"/><path class="cls-13" d="M196.12328,345.19546c.9494.2159,1.4995-.8668,1.3536-1.6759-.1963-1.0887-1.4763-1.5108-2.3208-1.9646-.4653-.25-.9656-.6066-1.1707-1.1144-.1646-.4078-.0434-.811.1896-1.1609.4352-.6538,1.1321-1.0848,1.568-1.7387.4652-.6978.2129-1.5137-.549-1.8694-.4531-.2115-.9904-.269-1.3977-.5725-.3937-.2934-.6057-.7686-.6793-1.2435-.1809-1.1688.4909-2.2029,1.1896-3.0732.5797-.7221,1.9418-2.0189.9247-2.9415-.2223-.2016-.5006-.3173-.7473-.4828-.1992-.1337-.3781-.3056-.5247-.4954-.2987-.3869-.4796-.8644-.5471-1.3464-.1342-.9568.1756-2.024.977-2.6125.2479-.1821.0073-.6014-.2438-.417-1.4555,1.0688-1.6363,3.3258-.5311,4.713.2877.3611.6442.5829,1.0346.8167.2395.1433.4551.318.4553.6209.0003.3127-.1914.6123-.3689.8571-.7153.9862-1.6282,1.8233-1.993,3.0251-.2731.8998-.158,1.9966.4891,2.714.3307.3667.7717.5345,1.2305.6813.3986.1276.9136.273,1.0319.7352.0742.2898-.0916.5612-.2656.7806-.2437.3072-.5435.5687-.8201.8451-.5604.5601-1.1342,1.2541-.9461,2.1035.2799,1.2642,1.7224,1.6393,2.6773,2.2291.4664.2881.9316.7125.877,1.3079-.0352.3836-.3025.9186-.7646.8135-.3026-.0688-.4318.3967-.1284.4657h0Z"/><path class="cls-13" d="M197.62838,320.47236c-.9493-.2159-1.4994.8668-1.3535,1.6759.1963,1.0887,1.4762,1.5108,2.3208,1.9646.4653.2501.9656.6066,1.1706,1.1145.1647.4078.0434.8109-.1895,1.1609-.4352.6537-1.1322,1.0848-1.568,1.7386-.4652.6979-.213,1.5137.549,1.8694.4531.2116.9903.269,1.3976.5726.3937.2933.6058.7686.6793,1.2434.181,1.1688-.4909,2.203-1.1895,3.0733-.5797.722-1.9419,2.0188-.9247,2.9415.2223.2016.5006.3172.7473.4827.1992.1337.3781.3056.5246.4954.2987.3869.4796.8644.5472,1.3464.1341.9568-.1757,2.024-.977,2.6125-.248.1821-.0073.6014.2437.4171,1.4555-1.0689,1.6364-3.3259.5311-4.7131-.2876-.361-.6441-.5829-1.0346-.8166-.2394-.1434-.455-.3181-.4552-.621-.0003-.3127.1914-.6123.3689-.8571.7153-.9862,1.6282-1.8233,1.993-3.025.273-.8998.158-1.9967-.4891-2.7141-.3307-.3666-.7717-.5344-1.2305-.6813-.3986-.1276-.9136-.2729-1.0319-.7352-.0742-.2898.0916-.5612.2656-.7806.2437-.3072.5434-.5687.82-.8451.5605-.56,1.1343-1.254.9462-2.1034-.2799-1.2642-1.7224-1.6394-2.6774-2.2292-.4664-.2881-.9315-.7125-.8769-1.3078.0351-.3837.3025-.9187.7645-.8136.3027.0688.4319-.3967.1284-.4657h0Z"/></g><polygon class="cls-23" points="202.03938 336.16556 188.75048 335.87746 163.73688 347.74196 189.77718 347.74196 192.87058 343.09436 194.56668 347.74196 202.03938 347.74196 202.03938 336.16556"/><g class="cls-24"><path class="cls-9" d="M201.49978,338.57676c-1.5668,1.2244-2.7619,2.8736-3.4929,4.7186-.1816.4586-.3314.9298-.447,1.4093-.1085.4506-.2123.9262-.1731,1.3923.0381.4512.18.901.5429,1.1959.4585.3724,1.0453.3292,1.6016.3248,1.4147-.0112,2.8293-.0223,4.244-.0335.6213-.0049.6228-.9709,0-.966l-3.3759.0267c-.2733.0022-.5465.0043-.8198.0065-.2545.002-.5265.029-.7798-.0044-.3129-.0412-.4167-.2621-.447-.55-.0416-.3953.0543-.7915.1475-1.1724.1022-.4177.2305-.8289.3832-1.2309.3082-.8113.7326-1.5815,1.2339-2.2892.5758-.8128,1.2813-1.5319,2.0655-2.1446.2057-.1608.1686-.5145,0-.6831-.2031-.2031-.4768-.1611-.6831,0h0Z"/><path class="cls-9" d="M170.19328,343.80956c2.1103.4255,3.734,2.6441,3.3692,4.7994-.0434.2569.068.5201.3374.5941.2318.0637.5503-.0787.5941-.3373.448-2.6472-1.3792-5.4504-4.0439-5.9877-.2555-.0515-.5217.0735-.5942.3374-.0654.2382.0804.5423.3374.5941h0Z"/><rect class="cls-3" x="161.54718" y="346.62746" width="48.4862" height="6.4993"/></g><path class="cls-9" d="M175.37178,340.09766c1.9841.188,3.7585,1.6858,4.3202,3.5878.1757.5948,1.1082.3416.9315-.2568-.6916-2.3419-2.8305-4.0676-5.2517-4.297-.26-.0246-.483.2397-.483.483,0,.2817.2222.4583.483.483h0Z"/><path class="cls-9" d="M177.56428,338.81966c1.828.1617,3.4749,1.5466,3.9851,3.3077.1727.5959,1.1051.3424.9315-.2568-.6365-2.1969-2.6478-3.8162-4.9166-4.0168-.2601-.0231-.4829.2384-.4829.4829,0,.2804.222.4599.4829.483h0Z"/><path class="cls-9" d="M180.26688,337.42026c1.9508.3393,3.5767,1.8563,4.0247,3.7888.1403.6054,1.0718.3492.9314-.2567-.5171-2.2309-2.439-4.0704-4.6993-4.4636-.2567-.0446-.5203.0688-.5941.3374-.064.2327.0789.5491.3373.5941h0Z"/><path class="cls-21" d="M150.36548,322.90726c.7815,4.8127,1.2548,9.6753,1.4159,14.5484,3.8055.1956,7.6156.3036,11.426.324.2405.0012.5113-.0103.674-.1875.1405-.153.1531-.3805.1581-.5882.1097-4.5348.2195-9.0695.3292-13.6043-4.7595-.1037-9.5139-.4414-14.2403-1.0114l.2371.519Z"/><g class="cls-22"><path class="cls-13" d="M152.20438,320.74456c-.9493-.2159-1.4994.8668-1.3535,1.6759.1963,1.0887,1.4763,1.5108,2.3208,1.9646.4653.25.9656.6066,1.1706,1.1144.1647.4078.0434.811-.1895,1.1609-.4352.6538-1.1322,1.0848-1.568,1.7387-.4652.6978-.213,1.5137.549,1.8694.4531.2115.9903.269,1.3977.5725.3936.2934.6057.7686.6792,1.2435.181,1.1688-.4909,2.2029-1.1895,3.0732-.5797.7221-1.9418,2.0189-.9247,2.9415.2223.2016.5006.3173.7473.4828.1992.1337.3781.3056.5246.4954.2988.3869.4796.8644.5472,1.3464.1342.9568-.1756,2.024-.977,2.6125-.248.1821-.0073.6014.2437.417,1.4556-1.0688,1.6364-3.3258.5311-4.713-.2876-.3611-.6441-.5829-1.0346-.8167-.2394-.1433-.455-.318-.4552-.621-.0003-.3126.1914-.6122.3689-.857.7153-.9862,1.6282-1.8233,1.993-3.0251.2731-.8998.158-1.9967-.4891-2.714-.3307-.3667-.7717-.5345-1.2305-.6813-.3986-.1276-.9136-.273-1.0319-.7352-.0742-.2898.0916-.5612.2656-.7806.2437-.3072.5434-.5687.8201-.8451.5604-.5601,1.1342-1.2541.9461-2.1035-.2799-1.2642-1.7224-1.6393-2.6774-2.2291-.4663-.2881-.9315-.7125-.8769-1.3079.0352-.3836.3025-.9186.7645-.8135.3027.0688.4319-.3967.1284-.4657h0Z"/><path class="cls-13" d="M159.52958,343.45296c.9493.2158,1.4994-.8668,1.3535-1.676-.1963-1.0887-1.4762-1.5107-2.3208-1.9645-.4653-.2501-.9656-.6066-1.1706-1.1145-.1647-.4078-.0434-.811.1895-1.1609.4352-.6537,1.1322-1.0848,1.568-1.7386.4652-.6979.213-1.5137-.549-1.8695-.4531-.2115-.9903-.2689-1.3977-.5725-.3936-.2934-.6057-.7686-.6792-1.2435-.181-1.1688.4909-2.2029,1.1895-3.0732.5797-.7221,1.9419-2.0188.9247-2.9415-.2223-.2016-.5006-.3172-.7473-.4828-.1992-.1336-.3781-.3056-.5246-.4954-.2987-.3868-.4796-.8644-.5472-1.3464-.1341-.9568.1756-2.024.977-2.6125.248-.182.0073-.6014-.2437-.417-1.4556,1.0688-1.6364,3.3259-.5311,4.7131.2876.361.6441.5828,1.0346.8166.2394.1434.455.318.4552.621.0003.3126-.1914.6123-.3689.857-.7153.9863-1.6282,1.8233-1.993,3.0251-.2731.8998-.158,1.9967.4891,2.7141.3307.3666.7717.5344,1.2305.6813.3986.1275.9136.2729,1.0319.7351.0742.2899-.0916.5612-.2656.7806-.2437.3073-.5434.5688-.8201.8452-.5604.56-1.1342,1.254-.9461,2.1034.2799,1.2642,1.7224,1.6393,2.6774,2.2292.4663.288.9315.7125.8769,1.3078-.0351.3836-.3025.9186-.7645.8135-.3027-.0688-.4319.3968-.1284.4658h0Z"/><path class="cls-13" d="M161.03468,318.72976c-.9494-.2158-1.4995.8668-1.3536,1.676.1963,1.0887,1.4763,1.5107,2.3208,1.9646.4653.25.9656.6065,1.1707,1.1144.1646.4078.0434.811-.1896,1.1609-.4352.6537-1.1321,1.0848-1.568,1.7386-.4652.6979-.213,1.5137.549,1.8695.4531.2115.9904.2689,1.3977.5725.3936.2934.6057.7686.6792,1.2435.181,1.1688-.4908,2.2029-1.1895,3.0732-.5797.7221-1.9418,2.0188-.9247,2.9415.2223.2016.5006.3172.7473.4828.1992.1336.3781.3056.5247.4954.2987.3868.4795.8644.5471,1.3464.1342.9568-.1756,2.024-.977,2.6125-.2479.182-.0073.6014.2438.417,1.4555-1.0688,1.6363-3.3259.5311-4.7131-.2877-.361-.6442-.5828-1.0347-.8166-.2394-.1434-.455-.318-.4552-.621-.0003-.3126.1914-.6123.3689-.857.7153-.9862,1.6282-1.8233,1.993-3.0251.2731-.8998.158-1.9967-.4891-2.7141-.3307-.3666-.7717-.5344-1.2305-.6813-.3986-.1275-.9136-.2729-1.0319-.7351-.0742-.2899.0916-.5612.2656-.7806.2437-.3073.5434-.5688.8201-.8452.5604-.56,1.1342-1.254.9461-2.1034-.2799-1.2642-1.7224-1.6393-2.6773-2.2292-.4664-.288-.9316-.7125-.877-1.3078.0352-.3836.3025-.9186.7646-.8135.3026.0688.4318-.3968.1284-.4658h0Z"/></g><polygon class="cls-23" points="165.44558 334.42296 152.15668 334.13496 127.14308 345.99936 153.18338 345.99936 156.27678 341.35176 157.97288 345.99936 165.44558 345.99936 165.44558 334.42296"/><g class="cls-26"><path class="cls-9" d="M164.90608,336.83426c-1.5669,1.2244-2.7619,2.8735-3.4929,4.7186-.1817.4585-.3315.9297-.447,1.4092-.1086.4506-.2124.9263-.1731,1.3924.038.4511.1799.901.5428,1.1958.4585.3725,1.0453.3293,1.6017.3249,1.4146-.0112,2.8293-.0224,4.2439-.0336.6213-.0049.6228-.9709,0-.966l-3.3759.0267c-.2732.0022-.5465.0044-.8198.0065-.2545.002-.5265.029-.7798-.0043-.3128-.0412-.4167-.2622-.447-.55-.0416-.3954.0543-.7915.1475-1.1725.1022-.4176.2306-.8289.3832-1.2309.3082-.8113.7326-1.5815,1.2339-2.2892.5758-.8128,1.2814-1.5318,2.0655-2.1446.2057-.1607.1686-.5144,0-.683-.2031-.2031-.4768-.1612-.683,0h0Z"/><path class="cls-9" d="M133.59948,342.06696c2.1103.4255,3.734,2.6441,3.3693,4.7994-.0435.2569.0679.5201.3373.5941.2318.0637.5504-.0787.5941-.3373.448-2.6472-1.3792-5.4504-4.0439-5.9876-.2555-.0515-.5216.0734-.5941.3373-.0655.2382.0804.5423.3373.5941h0Z"/><rect class="cls-3" x="124.95338" y="344.88486" width="48.4863" height="6.4993"/></g><path class="cls-9" d="M138.77798,338.35506c1.9841.188,3.7585,1.6858,4.3202,3.5878.1757.5949,1.1082.3416.9315-.2568-.6916-2.3418-2.8304-4.0675-5.2517-4.2969-.26-.0247-.4829.2396-.4829.483,0,.2817.2222.4582.4829.4829h0Z"/><path class="cls-9" d="M140.97058,337.07716c1.8279.1616,3.4748,1.5465,3.985,3.3076.1727.5959,1.1051.3425.9315-.2568-.6365-2.1969-2.6478-3.8161-4.9165-4.0168-.2602-.023-.483.2384-.483.483,0,.2804.222.4599.483.483h0Z"/><path class="cls-9" d="M143.67308,335.67766c1.9508.3394,3.5767,1.8564,4.0247,3.7889.1403.6053,1.0719.3491.9314-.2568-.517-2.2308-2.439-4.0704-4.6993-4.4635-.2567-.0447-.5203.0687-.5941.3373-.064.2328.0789.5492.3373.5941h0Z"/><path class="cls-4" d="M175.30858,34.55286c1.66,5.5009,1.447,11.5489-.5961,16.9195-3.0423-6.0086-8.8124-10.4698-11.0507-16.8218l11.6468-.0977Z"/><path class="cls-16" d="M158.29158,59.63076c7.4975-4.6097,17.1334-5.5599,25.3868-2.5034-5.8776,22.9944-13.7743,45.4723-23.5695,67.0904-2.0531-5.2154-2.9865-10.7919-3.907-16.3207-1.958-11.76-3.9159-23.5199-5.8738-35.2799l7.9635-12.9864Z"/><path class="cls-16" d="M200.91098,174.73196c3.743,20.0553,5.6005,126.4208,3.7039,150.7106-7.8589,1.7403-15.1028.4331-22.9617,2.1734.0218-19.9608-2.7107-36.8076-4.8258-56.656-.6483-6.0836-1.2965-12.1671-1.9448-18.2507-1.3523-12.6899-2.7045-25.3797-4.0568-38.0696-.4633,16.8896-.9266,33.7792-1.3899,50.6688-.1096,3.9952-.2189,8.0009.1276,11.9826.4082,4.6897.2446,28.5059.1621,35.7306-.0542,4.7331-1.4973,8.9568-.1392,13.4911-7.6843.898-15.5204.4811-23.066-1.227-.4137-12.4105-.8274-24.8209-1.241-37.2314-.1547-4.6411-.3103-9.2925-.9523-13.8916-.605-4.3334-1.6392-8.6004-2.1792-12.9425-.8989-7.2275-.4166-14.5541-.8858-21.8222-.4103-6.3554-1.5462-12.6398-2.2517-18.9692-1.8286-16.4044-.7564-32.9777.3177-49.4487,20.0785-.0896,40.1508-1.5481,60.0313-4.3622l1.5516,8.114Z"/><path class="cls-14" d="M141.85208,20.39426c6.2144-3.7125,12.9191-6.6031,19.8849-8.5729.9323-.2636,2.0135-.4884,2.8053.0701.5432.3831.8045,1.0433,1.0376,1.6659,1.8475,4.936,3.6951,9.872,5.5426,14.8081.2377.6349.4932,1.2966,1.0009,1.746.588.5207,1.4067.6654,2.1366.9553,2.4545.9752,3.9155,3.947,3.1887,6.4861s-3.5391,4.2878-6.1377,3.8165c1.2523,3.3364,2.5047,6.6728,3.757,10.0092,1.4931,3.978,2.8951,8.7636.3875,12.1937-1.5932,2.1794-4.3375,3.1249-6.9084,3.9492-.8102.2598-1.7127.5156-2.4856.1599-.6595-.3034-1.0539-.9783-1.3962-1.6184-1.8481-3.456-3.3993-7.0707-4.6308-10.7913-1.9608,1.9462-5.3897,1.5763-7.599-.0824-2.2093-1.6586-3.479-4.2548-4.6161-6.7726-3.3341-7.3824-6.0955-19.1084-8.5185-26.8379l2.5512-1.1845Z"/><path class="cls-4" d="M171.78338,30.18886c-1.3561,1.1761-3.5041,1.0117-5.0267.0609-1.5225-.9509-2.5421-2.5182-3.4185-4.0848-1.4559-2.6028-2.6572-5.348-3.581-8.1836-3.3931,5.0844-9.804,7.9749-15.8608,7.1512.8303-1.2774,1.6606-2.5548,2.491-3.8322-4.9125,3.3026-12.2641,2.2213-16.0176-2.3558,3.4974-.5055,6.8968-1.6812,9.9593-3.4444-3.3501-2.2967-4.5643-7.2224-2.6656-10.813,2.9587,2.551,7.2766,3.4208,10.9922,2.2142,2.3092-.7499,4.3303-2.2172,6.6281-3.0013,2.2979-.7841,5.2094-.6833,6.7161,1.2206,1.9724-2.9258,6.4453-3.3713,9.4672-1.5493s4.6935,5.33,5.2062,8.8213c.5128,3.4912.0347,7.0405-.3133,10.5519-.348,3.5115-.556,7.1277.4679,10.5046-1.6678-1.1669-3.6204-1.9235-5.639-2.1849l.5945-1.0754Z"/><path class="cls-6" d="M180.04438,55.77996c-10.0325,18.396-15.7964,39.1031-16.7115,60.037-3.1482-19.1439-4.3422-38.6085-3.5573-57.9936-5.7714,2.0726-11.7577,4.2804-16.0259,8.6835-2.6989,2.7841-4.5317,6.2734-6.3271,9.7102-6.9205,13.2474-13.841,26.4949-20.7615,39.7423-3.6922,7.0678-7.4938,14.6697-6.6512,22.5992,1.091,10.267,11.0817,18.7599,21.3904,18.1835-4.6411,29.8213-7.03,59.9928-7.1397,90.1728,31.0205,4.6109,63.2863,11.1433,92.802.5433-4.9498-27.3763-10.2976-66.7219-15.2474-94.0983-.2158-1.1937,15.2457-6.9022,21.0051-9.3719,4.5558-1.9535,9.4003-4.4739,11.3213-9.0436.998-2.3741,1.0673-5.0296.9399-7.6018-.9511-19.1927-11.7786-36.3233-22.5536-52.2345-2.7601-4.0759-5.5975-8.2021-9.4366-11.2831-6.4265-5.1575-14.8925-6.821-22.9947-8.3229l-.0522.2779Z"/><path class="cls-4" d="M193.19398,71.22756c2.8031,12.5403,5.6062,25.0807,8.4092,37.621.7945,3.5542,1.589,7.1084,2.3834,10.6626.1743.7795,1.3716.4496,1.1973-.3301-2.8031-12.5403-5.6061-25.0806-8.4092-37.6209-.7945-3.5543-1.5889-7.1085-2.3834-10.6627-.1742-.7795-1.3716-.4496-1.1973.3301h0Z"/><path class="cls-4" d="M198.19238,124.40806c4.0977-1.9424,8.089-4.101,11.9575-6.467.6807-.4163.0576-1.4906-.6267-1.0722-3.8685,2.366-7.8598,4.5247-11.9575,6.4671-.7216.342-.0922,1.4129.6267,1.0721h0Z"/><path class="cls-4" d="M205.65838,120.57086c1.8816.3795,3.7632.7591,5.6448,1.1386.3284.0663.6705-.0944.7637-.4336.0842-.3062-.1033-.6971-.4336-.7637-1.8816-.3795-3.7632-.7591-5.6448-1.1386-.3284-.0663-.6705.0945-.7637.4336-.0842.3062.1033.6971.4336.7637h0Z"/><path class="cls-4" d="M119.06508,123.73926c4.4412.2189,8.8436.8746,13.1568,1.9549.7753.1942,1.106-1.0029.3301-1.1973-4.4176-1.1065-8.9384-1.7751-13.4869-1.9993-.7987-.0393-.7966,1.2024,0,1.2417h0Z"/><path class="cls-8" d="M163.50038,38.16536c0,.8421-.6826,1.5247-1.5247,1.5247s-1.5248-.6826-1.5248-1.5247.6827-1.5248,1.5248-1.5248,1.5247.6827,1.5247,1.5248Z"/><path class="cls-8" d="M150.43118,41.21486c0,.8421-.6827,1.5247-1.5247,1.5247-.8421,0-1.5248-.6826-1.5248-1.5247s.6827-1.5248,1.5248-1.5248c.842,0,1.5247.6827,1.5247,1.5248Z"/><path class="cls-4" d="M180.94098,58.46356c.425,1.0343.85,2.0686,1.275,3.103.2189.5328.4378,1.0656.6568,1.5984.1995.4857.5129,1.0211.6081,1.5387.0835.454-.5451.663-.8729.8572-.4955.2935-.9909.587-1.4863.8805-.9909.5869-1.9817,1.1738-2.9726,1.7608-.3509.2079-.4009.6849-.1256.9751l4.5294,4.7754c.3775.398.7549.7959,1.1324,1.1939.2596.2737.8713.7131.9362,1.1115.0654.4015-.4855,1.0125-.6811,1.3313-.3056.4982-.6112.9965-.9168,1.4947-2.3011,3.7514-4.6021,7.5028-6.9031,11.2542-1.3123,2.1394-2.6246,4.2789-3.9369,6.4184-.419.683.6545,1.3074,1.0721.6267,2.4448-3.9859,4.8897-7.9717,7.3345-11.9576,1.2225-1.9929,2.4449-3.9859,3.6673-5.9788.3056-.4982.6112-.9964.9168-1.4947.2769-.4513.6149-.9127.6784-1.4528.1214-1.0331-.8675-1.7861-1.5018-2.4548-1.8165-1.9151-3.6329-3.8303-5.4494-5.7454l-.1257.975c1.1074-.656,2.2149-1.312,3.3223-1.968.5669-.3358,1.1481-.6552,1.7031-1.0104.4177-.2673.7804-.5934.9055-1.0902.1425-.5656-.1176-1.1075-.3275-1.6185-.2447-.5955-.4894-1.1911-.7341-1.7866-.5023-1.2223-1.0045-2.4447-1.5068-3.667-.2995-.729-1.5013-.4098-1.1973.33h0Z"/><path class="cls-4" d="M154.88378,59.45686c-.7274,1.0625-1.4547,2.1251-2.1821,3.1876-.3828.5592-.7657,1.1184-1.1485,1.6776-.3126.4567-.6736.925-.6743,1.505-.0005.5102.2882.926.6382,1.2719.4446.4394.9204.851,1.3798,1.2749.9709.8959,1.9417,1.7917,2.9126,2.6875.0419-.325.0837-.65.1256-.9751-1.9503,1.3383-3.9007,2.6766-5.851,4.0149-.4522.3104-.9045.6207-1.3568.931-.3796.2605-.7965.5131-1.0595.9021-.6192.9157.0011,2.0352.3239,2.9482,1.5583,4.4086,3.1166,8.8173,4.6749,13.2259.8938,2.5285,1.7875,5.0569,2.6813,7.5854.2645.7483,1.4646.4261,1.1973-.3301-1.4896-4.2141-2.9792-8.4282-4.4687-12.6423-.7334-2.0747-1.4667-4.1493-2.2-6.224-.3666-1.037-.7462-2.0705-1.1-3.1119-.1598-.4704-.1984-.7145.2074-1.026.443-.3401.9271-.6373,1.3877-.9534,2.0634-1.4159,4.1268-2.8317,6.1902-4.2476.3146-.2159.4383-.6866.1257-.9751l-2.4645-2.274-1.2696-1.1715c-.2753-.2539-.931-.654-.7833-1.0769.1597-.4571.5851-.9019.8572-1.2994.3254-.4753.6508-.9506.9762-1.426.6508-.9506,1.3016-1.9013,1.9525-2.852.4525-.661-.623-1.2828-1.0722-.6267h0Z"/><path class="cls-4" d="M194.17238,127.69636c1.7653-.0965,3.4546.9345,4.5263,2.3407,1.0717,1.4061,1.6104,3.1449,1.9713,4.8756,1.0367,4.9713.749,10.2124-.8257,15.0403-.2405.7373-.5537,1.52-1.2155,1.9242-.7054.4308-1.6201.3084-2.3929.0153-1.8156-.6883-3.2217-2.203-4.1624-3.9017-.9406-1.6986-1.4694-3.5888-1.9902-5.4594-.764-2.7443-1.5281-5.4887-2.2922-8.2331l6.3813-6.6019Z"/><path class="cls-4" d="M131.86038,128.81046c-3.9608,4.5541-6.7072,10.1549-7.8824,16.0749-.366,1.8437-.5775,3.7818-.0336,5.581s2.001,3.4293,3.8642,3.6774c2.1478.2859,4.0976-1.2493,5.5375-2.8684,4.6914-5.2755,7.036-12.5651,6.2998-19.5863l-7.7855-2.8786Z"/><path class="cls-13" d="M125.61818,92.74356c14.0989-5.8271,28.1977-11.6541,42.2966-17.4812,9.8262,19.398,13.7634,41.7879,26.4625,59.4392-11.586,4.3544-23.172,8.7087-34.758,13.0631l-34.0011-55.0211Z"/><polygon class="cls-7" points="191.79548 141.17156 147.34438 156.97626 123.09238 95.09736 167.54348 79.29266 191.79548 141.17156"/><path class="cls-7" d="M140.66848,86.58236c-.5213-1.3621-.6505-2.8337-.4835-4.2685.0773-.6645.1738-1.4344.4968-2.0388.2775-.5192.8055-.846,1.369-1.0352,1.2868-.4322,2.6998-.2448,3.6306.7455.4887.5198.8575,1.1348,1.2525,1.7192.5089.7528,1.0178,1.5057,1.5267,2.2585.2251.3331.6365.5153,1.0351.323.3419-.165.5657-.6508.3391-.986-.8825-1.3056-1.7069-2.6776-2.6865-3.9197-.8375-1.0621-2.0463-1.7559-3.454-1.8162-1.3009-.0557-2.7886.2977-3.732,1.1981-1.012.9658-1.2343,2.4762-1.3473,3.778-.1394,1.6072.1006,3.1933.6793,4.7051.1427.3728.6955.4868,1.0351.323.4082-.197.4822-.6121.3391-.986h0Z"/><path class="cls-2" d="M158.42138,85.00976l-24.5051,8.7128-.4147-1.0583c-1.2409-3.1659.4478-6.6905,3.7718-7.8723l12.468-4.4331c3.324-1.1818,7.0244.4266,8.2653,3.5926l.4147,1.0583Z"/><path class="cls-14" d="M193.78528,146.09546c-3.776-.3791-7.4832-1.4358-10.8908-3.1066-.3411-.1672-.6336-.4443-.7616-.802-.3761-1.0517.7644-1.68,1.7026-1.9447,1.9557-.5518,3.9773-.8699,6.008-.9454-2.8203.1652-5.6818-.4177-8.2096-1.6809-.4282-.214-.7491-.6256-.8007-1.1016-.1031-.9502.787-1.3124,1.546-1.5164,2.1619-.5808,4.3795-.954,6.6123-1.1129-3.1532-.1694-6.5728-.4642-9.3031-1.8603-1.3273-.6787-.9865-2.6771.489-2.8898,3.9315-.5668,7.9887-.2687,11.7892.8894-2.7983-.1103-5.561-1.0305-7.8613-2.6293-.4557-.3167-.7693-.8336-.7212-1.3864.0797-.9172.9627-1.1455,1.7184-1.257,3.9667-.585,8.0357-.4695,11.9629.3394,1.5068.3104,3.1082.7974,4.0255,2.0324.9173,1.2351.6358,3.404-.8379,3.846,1.1556.2857,1.3426,1.8932.9508,3.0172s-1.1167,2.2335-.8956,3.4031c.0931.4922.3504.9399.4624,1.4282.2622,1.1427-.4057,2.4268-1.4918,2.8683-.4913.1998-1.1156.3011-1.327.7874-.1496.3445-.0164.737.0349,1.1091.1277.9273-.3239,1.9097-1.1108,2.4166l-3.0906.0962Z"/><path class="cls-14" d="M125.31878,143.20526c2.8856,2.4648,6.213,4.4111,9.7766,5.7164.3567.1307.7591.1503,1.106-.0048,1.0197-.4558.6846-1.714.2268-2.5746-.9543-1.7942-2.1228-3.4742-3.473-4.9929,1.8315,2.151,4.2318,3.8144,6.8925,4.7662.4507.1613.97.1083,1.3494-.1836.7576-.5829.4035-1.4763.0257-2.1655-1.0759-1.963-2.3402-3.8227-3.7699-5.5452,2.3034,2.1601,4.8816,4.4258,7.7785,5.4319,1.4081.4891,2.6156-1.1393,1.7487-2.352-2.3101-3.2313-5.3317-5.9551-8.7969-7.8988,2.0153,1.9446,4.5907,3.3033,7.3365,3.8587.5439.11,1.1341-.021,1.5001-.4382.6072-.692.1614-1.4875-.2809-2.1104-2.3212-3.2694-5.2191-6.1281-8.5197-8.4048-1.2664-.8735-2.7258-1.6932-4.2522-1.5014-1.5265.1919-2.8981,1.8955-2.198,3.2654-1.0056-.6369-2.2959.34-2.8366,1.4004-.5408,1.0604-.8406,2.3513-1.8382,3.0006-.4199.2733-.9211.3971-1.3513.654-1.0066.6011-1.472,1.9715-1.0396,3.0614.1956.4929.5543,1.0139.3492,1.5029-.1452.3463-.5209.5216-.825.742-.7581.5491-1.1553,1.5548-.977,2.4738l2.0683,2.2985Z"/><polygon class="cls-12" points="160.03448 55.27166 170.03878 52.06496 162.38508 61.36936 160.03448 55.27166"/><path class="cls-17" d="M171.27998,37.91016c.058-.0785.1164-.1567.1759-.2342-.0528.0688.0058-.0069.0288-.0362.0302-.0383.0606-.0765.0912-.1145.1224-.1522.2478-.3019.376-.4492.2501-.2872.511-.5649.782-.8323.271-.2675.5521-.5248.8425-.7711.1489-.1263.3005-.2494.454-.3701.0321-.0252.0651-.0497.0134-.0104.0389-.0295.0777-.0591.1167-.0884.086-.0644.1727-.1277.2599-.1904.263-.1891.4163-.5493.2228-.8494-.1682-.2608-.5675-.4255-.8495-.2228-1.3789.9916-2.5766,2.1767-3.5859,3.5423-.1937.2622-.052.7043.2227.8494.3243.1713.6427.0571.8495-.2227h0Z"/><path class="cls-17" d="M172.13458,36.80606c.1219.0536.2355.1214.3412.2022-.0418-.0324-.0837-.0647-.1256-.0971.1153.0903.2179.1939.3078.3096-.0324-.0419-.0648-.0838-.0971-.1257.0885.1167.1621.2427.2198.3773-.0209-.0494-.0417-.0988-.0626-.1483.0535.1291.0911.2628.1115.4011l-.0222-.165c.0026.0197.005.0394.0071.0593.0182.1693.0572.3142.1819.439.1076.1076.2843.1887.439.1818.1605-.0072.3271-.0599.439-.1818.1044-.1139.1991-.2785.1818-.439-.043-.4001-.1589-.7904-.3993-1.1192-.2344-.3207-.5274-.6044-.8956-.7664-.0712-.0454-.1482-.0699-.2308-.0737-.0825-.0184-.165-.0147-.2475.0111-.1441.0397-.3001.151-.3711.2853-.0761.1441-.1143.3187-.0626.4784.0465.1437.1409.3075.2853.3711h0Z"/><path class="cls-17" d="M151.20128,33.99496c.932,4.3843,2.4503,8.6264,4.4955,12.6145.1513.2952.5746.3892.8494.2227,1.1646-.7054,2.3292-1.4107,3.4939-2.1161.6826-.4134.0592-1.4876-.6267-1.0721-1.1647.7053-2.3293,1.4107-3.4939,2.1161.2831.0742.5663.1485.8494.2227-1.9973-3.8949-3.4603-8.0368-4.3703-12.3179-.1661-.7812-1.3633-.4506-1.1973.3301h0Z"/><path class="cls-4" d="M136.80718,21.71486c1.4241,4.7823,3.6675,9.3779,6.6322,13.5866-.7638-4.9639-1.2825-9.9565-1.5541-14.9594l-5.0781,1.3728Z"/><path class="cls-4" d="M147.58908,34.51036c-.7061-.0395-1.4123-.079-2.1184-.1184-.1162-.0065-.2448-.0079-.3246.0851-.0633.0736-.0799.1889-.0936.2972-.1363,1.0758-.2726,2.1517-.409,3.2275,1.6661-.4922,3.4494-.5499,5.2014-.1684-.0079-.5918-.0159-1.1837-.0238-1.7755l-2.232-1.5475Z"/><path class="cls-4" d="M159.60048,29.83136c.8038-.1981,1.6077-.3961,2.4115-.5942.1323-.0325.2801-.0629.3967.011.0922.0585.1417.1687.1859.2726.44,1.0322.88,2.0643,1.3199,3.0965-2.0504-.111-4.1217.2336-6.0416,1.005l-.4392-1.7595,2.1668-2.0314Z"/><path class="cls-17" d="M161.71478,44.00446c1.4845.8049,2.9131,1.7082,4.2768,2.7044.2709.1979.6923.0458.8494-.2227.1839-.3145.0488-.6511-.2228-.8494-1.3636-.9962-2.7922-1.8995-4.2768-2.7044-.2947-.1598-.6764-.0731-.8494.2227-.1655.283-.073.6891.2228.8494h0Z"/><path class="cls-17" d="M155.02338,48.37056c-.0488,1.3019.1227,2.6163.5026,3.8625.0945.3103.4386.5388.7637.4336.313-.1013.535-.431.4336-.7637-.3636-1.1927-.5052-2.2794-.4582-3.5324.0122-.3249-.2943-.6355-.6208-.6209-.3468.0156-.6078.2728-.6209.6209h0Z"/><path class="cls-17" d="M150.61358,30.70206c1.9837-.5714,3.9673-1.1428,5.951-1.7142.7664-.2207.4405-1.4193-.3301-1.1973-1.9837.5714-3.9673,1.1428-5.951,1.7142-.7664.2207-.4405,1.4192.3301,1.1973h0Z"/><path class="cls-17" d="M149.43048,28.19186c1.6453-.4538,3.326-.7477,5.0287-.8672.3345-.0234.6209-.2685.6209-.6208,0-.3178-.2846-.6444-.6209-.6208-1.8112.127-3.6083.4287-5.3588.9115-.7693.2122-.4426,1.4105.3301,1.1973h0Z"/><path class="cls-4" d="M161.56978,1.03106c.7269,1.2768.8063,2.7844.2665,4.1531-.123.312.1349.6816.4337.7637.3525.0969.6401-.1205.7636-.4336.6512-1.651.4831-3.5734-.3916-5.1099-.3953-.6944-1.4685-.0695-1.0722.6267h0Z"/><path class="cls-4" d="M164.89518.30216c-.6536,1.4779-1.0791,3.0111-1.2858,4.6134-.043.3331.3161.6208.6208.6208.3712,0,.5778-.2867.6209-.6208.1731-1.3416.5617-2.7327,1.1163-3.9867.1355-.3064.0894-.6668-.2227-.8494-.2642-.1545-.7131-.0855-.8495.2227h0Z"/><path class="cls-17" d="M158.92338,45.43396c.2542.8572.5083,1.7144.7624,2.5716.0945.3185.4356.5285.7637.4337,1.0485-.3031,2.097-.6063,3.1455-.9094.3117-.0901.5378-.4418.4336-.7637-.1025-.3167-.4295-.5302-.7637-.4336-1.0485.3031-2.097.6062-3.1454.9093.2545.1446.5091.2891.7636.4337-.2541-.8573-.5082-1.7145-.7623-2.5717-.0923-.3111-.4403-.5383-.7637-.4336-.315.1019-.5325.4302-.4337.7637h0Z"/><path class="cls-17" d="M161.43648,51.42446c-.1505.0129-.2815.0331-.413.1146-.0523.0357-.1004.0734-.1404.1074-.0063.0053-.0125.0105-.0181.0165-.04.0469-.081.0995-.1091.1403-.0045.0066-.0089.0133-.0126.0204-.0316.0601-.061.1234-.0783.1893-.0018.007-.0032.0142-.0045.0213-.0107.0614-.02.125-.0248.1873-.0013.0176-.0009.0352.0006.0527.0064.0719.0146.1451.0301.2159.019.0873.0617.1737.0979.2525.0165.0357.0369.0693.0605.1008.0511.0685.102.1458.1701.2004.1223.0981.1988.1556.3535.2023.0683.0205.1417.0287.2128.0298.0696-.0034.1323-.0141.1874-.0235.0087-.0014.0172-.0029.0257-.0055.0644-.0236.122-.0474.1706-.0712.0088-.0043.0173-.009.0254-.0144.0509-.0342.1011-.0736.1474-.1138.0094-.0082.018-.017.0262-.0263.0606-.0562.1034-.1228.1284-.1998.0389-.074.0567-.1537.0535-.2392.0032-.0854-.0146-.1652-.0535-.2392-.025-.0769-.0678-.1435-.1284-.1998-.0419-.0323-.0837-.0647-.1256-.097-.0968-.0562-.2013-.0844-.3134-.0848l-.165.0222c-.1052.0295-.1965.0827-.274.1596-.0111.0125-.023.0241-.0362.0345.0419-.0324.0838-.0647.1257-.0971-.0137.0104-.0282.0192-.044.026.0494-.0208.0988-.0417.1483-.0626-.0134.0054-.027.0091-.0412.0111.055-.0074.11-.0148.165-.0221-.0138.0016-.0274.0015-.0412-.0002.055.0074.1101.0148.1651.0222-.0176-.0025-.0343-.0074-.0506-.0142.0494.0209.0989.0417.1483.0626-.0207-.0091-.0399-.0209-.0578-.0346.0418.0323.0837.0647.1256.097-.027-.0211-.0507-.046-.0717-.073.0323.0419.0647.0837.097.1256-.0283-.0371-.0515-.0776-.0697-.1206.0209.0494.0417.0988.0626.1483-.0158-.0382-.0274-.0779-.0332-.1188.0074.055.0147.11.0221.165-.0037-.0285-.0046-.0571-.001-.0857l-.0222.165c.0026-.0191.0073-.0376.0145-.0554-.0208.0494-.0417.0988-.0625.1483.0059-.0139.0133-.0267.0224-.0387-.0324.0419-.0647.0837-.0971.1256.008-.01.0169-.019.027-.027-.0419.0323-.0838.0647-.1257.097.0119-.0091.0246-.0164.0383-.0225-.0494.0209-.0988.0417-.1483.0626.0184-.0077.0375-.0125.0572-.0155l-.165.0222c.1044.0011.1841-.0167.2581-.0556.077-.025.1436-.0678.1998-.1284.0606-.0562.1033-.1228.1284-.1998.0389-.0739.0567-.1537.0535-.2392l-.0222-.165c-.0295-.1052-.0827-.1965-.1597-.2739-.0419-.0324-.0837-.0648-.1256-.0971-.0969-.0562-.2013-.0844-.3134-.0848h0Z"/><path class="cls-17" d="M184.45538,128.99226c4.7683.4727,9.5528.762,14.3433.8675.7993.0176.7991-1.224,0-1.2416-4.7905-.1055-9.575-.3949-14.3433-.8676-.7946-.0787-.7891,1.1635,0,1.2417h0Z"/><path class="cls-17" d="M182.58258,134.48006c4.5425,1.0645,9.2257,1.458,13.8813,1.1493.7932-.0526.7991-1.2947,0-1.2417-4.549.3017-9.1121-.0646-13.5512-1.1049-.7772-.1822-1.109,1.0147-.3301,1.1973h0Z"/><path class="cls-17" d="M183.62378,140.31586c4.5121.9261,9.1262,1.0548,13.6844.402.7879-.1129.4528-1.3094-.33-1.1973-4.3235.6192-8.7474.4758-13.0243-.402-.78-.1601-1.1136,1.0365-.3301,1.1973h0Z"/><path class="cls-17" d="M132.82948,129.80226l11.2992,7.4112c.6701.4395,1.2929-.6352.6267-1.0722-3.7664-2.4704-7.5328-4.9407-11.2992-7.4111-.6701-.4395-1.2929.6352-.6267,1.0721h0Z"/><path class="cls-17" d="M129.73378,134.94586c4.198,3.0811,8.8915,5.446,13.8586,7.0077.764.2403,1.0909-.958.3301-1.1973-4.8686-1.5307-9.4482-3.8632-13.562-6.8826-.6449-.4733-1.2649.6037-.6267,1.0722h0Z"/><path class="cls-17" d="M125.99348,139.12166c2.9971,2.7733,6.3934,5.0925,10.0761,6.8572.7171.3437,1.3478-.7266.6267-1.0721-3.5899-1.7203-6.9028-3.9592-9.8248-6.6631-.5858-.5421-1.466.3339-.878.878h0Z"/><path class="cls-4" d="M120.79508,121.15216c1.6433.6682,3.1463,1.7121,4.3797,2.9968.5545.5775,1.4318-.3012.878-.878-1.3901-1.4478-3.0713-2.5612-4.9276-3.3161-.3107-.1264-.6823.1373-.7637.4336-.0976.3553.1217.6369.4336.7637h0Z"/><path class="cls-4" d="M121.67328,141.55966c-1.1141,2.7787-1.243,5.9039-.3912,8.7717.2269.7642,1.4257.4388,1.1973-.3301-.7951-2.6768-.6472-5.5216.3913-8.1115.1257-.3137-.1374-.6786-.4337-.7637-.3526-.1012-.6395.1241-.7637.4336h0Z"/><path class="cls-4" d="M203.72718,133.72076c.4944,4.7914.1268,9.6273-1.1041,14.2847-.2044.7733.993,1.1032,1.1973.3301,1.2573-4.7573,1.6535-9.7198,1.1485-14.6148-.0812-.7871-1.3238-.7954-1.2417,0h0Z"/><path class="cls-4" d="M190.39118,150.21266c1.2324,2.0008,3.3606,3.226,5.6358,3.6651,2.6794.5171,5.3847-.0441,7.9076-.9818,2.8412-1.0561,5.5776-2.4209,8.3359-3.6727,2.8801-1.307,5.7601-2.614,8.6402-3.921,3.2557-1.4774,6.5114-2.9549,9.7671-4.4324.7265-.3297.0961-1.4002-.6267-1.0721-5.5097,2.5003-11.0193,5.0006-16.529,7.501-2.7056,1.2278-5.3976,2.4931-8.1239,3.6743-2.4191,1.048-5.0298,1.9845-7.7054,1.8625-2.4145-.11-4.9217-1.1265-6.2294-3.2496-.4184-.6791-1.4928-.0562-1.0722.6267h0Z"/><path class="cls-7" d="M190.16808,97.46486c.0615-1.6651.5331-3.3136,1.3616-4.7593.1807-.3153.457-.6616.8179-.6197.4442.0516.5897.6156.6276,1.0612.1024,1.2027.2048,2.4054.3071,3.6081.0227.2667.0319.5722-.1601.7587-.1649.1602-.4191.1723-.649.1749-.708.008-1.4161.0159-2.1242.0239l-.1809-.2478Z"/><path class="cls-4" d="M181.88398,97.75696c4.588.457,9.1941.705,13.8046.7431.7992.0066.8-1.2351,0-1.2417-4.6105-.0381-9.2166-.286-13.8046-.743-.7945-.0792-.789,1.163,0,1.2416h0Z"/><path class="cls-7" d="M191.89938,97.25776c.08,1.8535.16,3.707.2401,5.5606.0343.796,1.2762.8003,1.2416,0-.08-1.8536-.16-3.7071-.2401-5.5606-.0343-.796-1.2762-.8003-1.2416,0h0Z"/><path class="cls-4" d="M162.26398,153.28886c.6366,12.2985,1.3265,24.5942,2.0706,36.8866.7399,12.2238,1.533,24.4443,2.3795,36.6612.4755,6.8634.968,13.7256,1.4769,20.5867.0588.792,1.3009.7984,1.2417,0-.911-12.2813-1.7688-24.5664-2.5725-36.8551-.7991-12.22-1.5451-24.4436-2.2377-36.6701-.389-6.8689-.7612-13.7387-1.1168-20.6093-.0412-.7951-1.2831-.8-1.2417,0h0Z"/><path class="cls-4" d="M170.93398,206.63176c2.1536-.3336,4.3399-.4433,6.517-.3674.7992.0278.7981-1.2139,0-1.2417-2.2917-.0799-4.5812.0608-6.8471.4118-.3316.0513-.5151.4671-.4336.7637.0972.3539.431.4851.7637.4336h0Z"/><path class="cls-4" d="M173.91368,204.69646c-.34.1102-.6457.3343-.7447.694-.0911.3306.0251.6689.2546.9133.4195.4467,1.1809.4921,1.7299.3012.3209-.1116.6136-.2851.8043-.5742.1841-.2791.1903-.6535.0236-.9419-.2762-.478-.8547-.657-1.3685-.7199-.5065-.0619-1.1328.0444-1.4807.4514-.2195.2569-.3209.5875-.2358.9218.0734.288.2752.5195.5219.676.5327.338,1.2455.2792,1.7954.0249.2327-.1076.4511-.2865.5778-.5121.1945-.3463.1334-.7516-.1279-1.0434-.3222-.3597-.8967-.4505-1.3547-.4137-.5368.0431-1.161.2277-1.3345.8062-.0933.311.1118.6904.4336.7637.3343.0762.6638-.1005.7637-.4336.0036-.0121.0077-.0233.0126-.035-.0209.0495-.0418.0989-.0626.1483.0094-.0194.0203-.0372.0332-.0545-.0324.0418-.0647.0837-.0971.1256.0208-.0257.044-.0478.0698-.0684-.0419.0323-.0838.0647-.1257.097.0482-.0362.1004-.0641.1556-.0881-.0495.0209-.0989.0418-.1483.0626.1151-.0475.2362-.0755.3593-.0929-.055.0074-.11.0147-.165.0221.1689-.022.3395-.0236.5086-.0018l-.165-.0222c.1023.0146.2027.0376.2988.0762-.0494-.0209-.0989-.0418-.1483-.0626.0514.0219.0999.0478.1449.0809-.0419-.0323-.0838-.0647-.1257-.097.0304.0239.0566.0497.0805.0802-.0324-.0419-.0647-.0838-.0971-.1257.0136.0195.0249.039.0347.0607-.0209-.0494-.0417-.0989-.0626-.1483.0077.0204.0129.0401.0163.0616l-.0222-.165c.0019.021.0015.0409-.0009.0619l.0222-.165c-.0038.0213-.0094.0412-.0169.0615.0209-.0494.0417-.0989.0626-.1483-.014.0324-.0316.0615-.0526.0898.0323-.0418.0647-.0837.097-.1256-.0339.0421-.0724.0782-.1148.1116.0419-.0324.0838-.0647.1257-.0971-.0699.052-.1451.0934-.2248.1284.0495-.0209.0989-.0418.1483-.0626-.1165.0485-.2368.081-.3615.0999l.165-.0222c-.1232.0164-.2458.0185-.3693.0043l.165.0222c-.0999-.0138-.1963-.0374-.29-.0749.0495.0209.0989.0417.1483.0626-.0633-.0273-.1225-.0601-.1777-.1014.0418.0324.0837.0647.1256.0971-.0366-.0292-.0692-.0606-.099-.0967.0324.0419.0647.0838.0971.1257-.0258-.0337-.0468-.0684-.064-.1072.0209.0495.0418.0989.0626.1483-.0124-.0315-.0211-.063-.0264-.0965l.0222.165c-.0037-.0329-.0037-.0648.0001-.0978-.0073.055-.0147.1101-.0221.1651.0054-.0335.0144-.0647.0272-.0961-.0209.0494-.0418.0988-.0626.1483.015-.0328.0331-.0625.0546-.0915-.0323.0419-.0647.0838-.0971.1257.0296-.0365.0622-.0677.099-.0968-.0419.0323-.0838.0647-.1257.097.0502-.0369.1034-.0665.1603-.0919-.0495.0209-.0989.0418-.1484.0626.1019-.042.2075-.0679.3164-.0834-.055.0074-.11.0147-.165.0221.1553-.0194.3109-.0169.4661.0027-.055-.0074-.1101-.0148-.1651-.0222.1561.0219.3085.0603.4542.1208-.0495-.0209-.0989-.0417-.1483-.0626.0849.0369.1657.0805.2395.1366-.0419-.0323-.0838-.0647-.1257-.0971.0379.0304.0724.0631.1029.1008-.0323-.0419-.0647-.0838-.097-.1256.0195.0259.036.0526.0496.0822-.0209-.0495-.0418-.0989-.0626-.1483.0095.0236.0164.0469.0208.072l-.0222-.165c.0026.0217.003.0424.0015.0642l.0222-.165c-.004.0299-.0116.0572-.0227.0851.0209-.0494.0417-.0988.0626-.1483-.0136.0293-.0296.0558-.0486.0819.0324-.0419.0647-.0838.0971-.1257-.0316.0398-.0668.0739-.106.1061.0419-.0324.0838-.0648.1256-.0971-.0735.0566-.1535.1006-.2386.1373.0494-.0208.0988-.0417.1483-.0626-.1157.0471-.2351.0784-.3586.0965l.165-.0222c-.1315.0167-.2621.0174-.3935-.0002l.165.0222c-.0806-.0128-.1582-.0325-.234-.0631.0495.0208.0989.0417.1484.0626-.0561-.0247-.1081-.054-.157-.0909.0419.0324.0838.0647.1257.0971-.0312-.0253-.0592-.0524-.0849-.0833.0324.0419.0647.0838.0971.1257-.022-.0287-.0402-.0583-.0551-.0913.0209.0494.0417.0989.0626.1483-.0102-.0259-.0175-.0515-.0221-.079l.0222.165c-.0029-.0268-.0028-.0523.0005-.079l-.0222.165c.004-.0213.0096-.0412.0173-.0615-.0209.0494-.0417.0989-.0626.1483.0118-.0263.026-.0497.0434-.0726-.0324.0419-.0647.0838-.0971.1256.0208-.0245.0432-.0456.0684-.0655-.0419.0324-.0838.0648-.1257.0971.0367-.0263.075-.0473.1163-.0656-.0494.0209-.0989.0417-.1483.0626.024-.0096.0479-.0182.0726-.0262.3084-.0999.5401-.4347.4336-.7637-.0998-.3084-.4329-.5408-.7637-.4336h0Z"/><path class="cls-4" d="M170.93398,169.16666c2.1536-.3336,4.3399-.4433,6.517-.3674.7992.0279.7981-1.2138,0-1.2416-2.2917-.0799-4.5812.0607-6.8471.4117-.3316.0514-.5151.4671-.4336.7637.0972.354.431.4851.7637.4336h0Z"/><path class="cls-4" d="M173.91368,167.23136c-.34.1102-.6457.3343-.7447.694-.0911.3307.0251.669.2546.9133.4195.4468,1.1809.4922,1.7299.3012.3209-.1116.6136-.285.8043-.5741.1841-.2792.1903-.6536.0236-.9419-.2762-.478-.8547-.6571-1.3685-.7199-.5065-.062-1.1328.0443-1.4807.4513-.2195.2569-.3209.5875-.2358.9219.0734.288.2752.5194.5219.676.5327.338,1.2455.2791,1.7954.0248.2327-.1076.4511-.2864.5778-.512.1945-.3464.1334-.7517-.1279-1.0434-.3222-.3597-.8967-.4505-1.3547-.4137-.5368.043-1.161.2276-1.3345.8062-.0933.311.1118.6904.4336.7637.3343.0761.6638-.1006.7637-.4336.0036-.0121.0077-.0234.0126-.035-.0209.0494-.0418.0989-.0626.1483.0094-.0195.0203-.0372.0332-.0546-.0324.0419-.0647.0838-.0971.1256.0208-.0257.044-.0477.0698-.0684-.0419.0324-.0838.0647-.1257.0971.0482-.0362.1004-.0642.1556-.0881-.0495.0208-.0989.0417-.1483.0626.1151-.0475.2362-.0755.3593-.093l-.165.0222c.1689-.022.3395-.0236.5086-.0018l-.165-.0222c.1023.0145.2027.0375.2988.0761-.0494-.0208-.0989-.0417-.1483-.0626.0514.0219.0999.0478.1449.081-.0419-.0324-.0838-.0647-.1257-.0971.0304.0239.0566.0497.0805.0802-.0324-.0419-.0647-.0838-.0971-.1256.0136.0195.0249.039.0347.0606-.0209-.0494-.0417-.0988-.0626-.1483.0077.0204.0129.0402.0163.0617-.0074-.055-.0148-.11-.0222-.1651.0019.0211.0015.041-.0009.062.0074-.055.0148-.11.0222-.1651-.0038.0213-.0094.0412-.0169.0615.0209-.0494.0417-.0988.0626-.1483-.014.0325-.0316.0615-.0526.0899.0323-.0419.0647-.0838.097-.1257-.0339.0421-.0724.0782-.1148.1116.0419-.0323.0838-.0647.1257-.0971-.0699.052-.1451.0934-.2248.1284.0495-.0208.0989-.0417.1483-.0626-.1165.0485-.2368.081-.3615.0999.055-.0074.11-.0147.165-.0221-.1232.0163-.2458.0184-.3693.0042l.165.0222c-.0999-.0137-.1963-.0373-.29-.0748.0495.0208.0989.0417.1483.0626-.0633-.0274-.1225-.0601-.1777-.1014.0418.0323.0837.0647.1256.097-.0366-.0292-.0692-.0605-.099-.0966.0324.0418.0647.0837.0971.1256-.0258-.0337-.0468-.0683-.064-.1071.0209.0494.0418.0989.0626.1483-.0124-.0316-.0211-.063-.0264-.0966.0074.0551.0148.1101.0222.1651-.0037-.033-.0037-.0648.0001-.0978-.0073.055-.0147.11-.0221.165.0054-.0334.0144-.0647.0272-.0961-.0209.0495-.0418.0989-.0626.1483.015-.0327.0331-.0625.0546-.0914-.0323.0419-.0647.0838-.0971.1256.0296-.0364.0622-.0677.099-.0968-.0419.0324-.0838.0647-.1257.0971.0502-.037.1034-.0666.1603-.0919-.0495.0208-.0989.0417-.1484.0626.1019-.0421.2075-.068.3164-.0835l-.165.0222c.1553-.0194.3109-.017.4661.0026-.055-.0073-.1101-.0147-.1651-.0221.1561.0218.3085.0603.4542.1207-.0495-.0208-.0989-.0417-.1483-.0626.0849.0369.1657.0805.2395.1367-.0419-.0324-.0838-.0648-.1257-.0971.0379.0303.0724.063.1029.1008-.0323-.0419-.0647-.0838-.097-.1257.0195.026.036.0527.0496.0822-.0209-.0494-.0418-.0989-.0626-.1483.0095.0236.0164.047.0208.0721-.0074-.0551-.0148-.1101-.0222-.1651.0026.0217.003.0425.0015.0643.0074-.055.0148-.1101.0222-.1651-.004.0299-.0116.0572-.0227.0852.0209-.0494.0417-.0989.0626-.1483-.0136.0293-.0296.0557-.0486.0818.0324-.0419.0647-.0838.0971-.1256-.0316.0397-.0668.0739-.106.106.0419-.0324.0838-.0647.1256-.0971-.0735.0566-.1535.1006-.2386.1374.0494-.0209.0988-.0418.1483-.0626-.1157.047-.2351.0783-.3586.0965l.165-.0222c-.1315.0166-.2621.0173-.3935-.0002.055.0073.11.0147.165.0221-.0806-.0127-.1582-.0325-.234-.0631.0495.0209.0989.0417.1484.0626-.0561-.0247-.1081-.054-.157-.0909.0419.0324.0838.0648.1257.0971-.0312-.0253-.0592-.0524-.0849-.0832.0324.0419.0647.0838.0971.1256-.022-.0287-.0402-.0583-.0551-.0912.0209.0494.0417.0988.0626.1483-.0102-.026-.0175-.0516-.0221-.0791.0074.055.0148.11.0222.1651-.0029-.0269-.0028-.0523.0005-.0791-.0074.055-.0148.11-.0222.1651.004-.0214.0096-.0413.0173-.0616-.0209.0495-.0417.0989-.0626.1484.0118-.0264.026-.0497.0434-.0727-.0324.0419-.0647.0838-.0971.1257.0208-.0245.0432-.0456.0684-.0655-.0419.0323-.0838.0647-.1257.0971.0367-.0263.075-.0473.1163-.0656-.0494.0208-.0989.0417-.1483.0626.024-.0097.0479-.0183.0726-.0263.3084-.0999.5401-.4347.4336-.7637-.0998-.3084-.4329-.5408-.7637-.4336h0Z"/><path class="cls-4" d="M202.58948,162.07216c-4.3868.4081-8.7737.8161-13.1605,1.2242-.4402.041-.6573.3618-.5987.7859,1.0277,7.4312,2.0553,14.8625,3.083,22.2938.5185,3.7497,1.0371,7.4994,1.5556,11.2491l.3819,2.7612c.1125.8135.1314,1.7223.3819,2.5071.5345,1.6752,2.6775,1.238,4.0274,1.182,4.1218-.171,8.2291-.6523,12.2823-1.4185.7842-.1483.4521-1.3452-.3301-1.1973-3.4829.6584-7.0028,1.0966-10.5415,1.3036-.8729.0511-1.7467.0884-2.6208.1119-.3544.0095-.7209.0426-1.0748.0113-.371-.0329-.5184-.167-.5986-.5319-.1795-.8175-.2422-1.674-.3568-2.5029-.1226-.8862-.2451-1.7725-.3677-2.6588-.9852-7.1245-1.9705-14.249-2.9557-21.3734-.5563-4.0224-1.1125-8.0449-1.6688-12.0673-.1995.262-.3991.5239-.5986.7859,4.3868-.4081,8.7737-.8162,13.1605-1.2243.789-.0733.7966-1.3157,0-1.2416h0Z"/><path class="cls-4" d="M130.70778,166.49696c3.6246.2436,7.2493.4873,10.8739.7309-.207-.2069-.4139-.4139-.6208-.6208-.3476,9.2972-.6485,18.5961-.9018,27.8964-.072,2.6425-.14,5.2851-.2044,7.9278.2069-.2069.4138-.4139.6208-.6208-4.013.0276-8.0254-.2427-11.9958-.8293-.7817-.1155-1.119,1.0808-.3301,1.1973,4.0822.6031,8.1991.902,12.3259.8737.3417-.0024.6126-.2827.6208-.6209.2268-9.3009.5001-18.6007.8211-27.8989.0912-2.6419.1864-5.2837.2851-7.9253.0132-.3516-.2959-.599-.6208-.6209-3.6246-.2436-7.2493-.4872-10.8739-.7309-.7977-.0536-.7944,1.1883,0,1.2417h0Z"/><path class="cls-20" d="M67.59568,58.87046c2.7591-4.4088.5628-10.3578-1.6735-15.1075-.9602-2.0392-1.9359-4.1034-3.3373-5.8099-3.5218-4.2885-9.6698-5.6356-14.4793-3.2771-1.9039.9336-3.6087,2.3784-5.623,2.9741-3.4225,1.0121-7.5154-.4725-10.3418,1.8683-2.8638,2.3717-2.5955,7.1077-4.1032,10.6734-1.0104,2.3894-2.8412,4.251-4.0098,6.5525-1.7504,3.4473-1.8795,7.5659-1.9666,11.5078-.0522,2.3576-.0937,4.7862.6799,6.9875.7736,2.2014,2.5741,4.1446,4.7297,4.217,1.5264.0512,3.1644-.7952,4.5101-.0056.6754.3963,1.1185,1.134,1.7051,1.6735,1.4245,1.3102,3.494,1.3038,5.3341.9971,7.1737-1.1957,14.3663-7.4083,14.0788-15.3376l14.4968-7.9135Z"/><path class="cls-15" d="M65.92858,93.08436c-8.6426-5.0297-19.0726-6.9117-28.9281-5.2199-.7928.1361-1.6475.332-2.1585.9532-.3786.4601-.4987,1.0739-.6056,1.66-4.7244,25.8969-8.0998,52.0398-10.1079,78.2873-.0384.5019-.0613,1.0564.2496,1.4522.2862.3645.7748.489,1.2271.5899,14.1667,3.1609,28.6402,4.9455,43.1504,5.3206.5549.0144,1.1514.0149,1.6082-.3005.6258-.4321.7622-1.2838.8431-2.04,2.138-19.9726,3.4798-40.0304,4.0213-60.1099l-9.2996-20.5929Z"/><path class="cls-14" d="M75.22698,183.51516c1.3605,16.4019,2.721,32.8038,4.0814,49.2057.3926,4.733.7853,9.4905.416,14.2253-.3657,4.6875-1.4724,9.28-2.4028,13.8888-1.5859,7.8553-2.666,15.8027-3.7451,23.7435-1.3013,9.5762-5.9489,25.5492-7.2502,35.1255-.289,2.1267,5.3425,12.0101,7.0179,14.0117,2.3898,2.855,5.0538,5.4803,7.9434,7.828-2.9811,1.9966-7.0637.5847-10.0048-1.4703s-5.6168-4.7762-9.1204-5.5493c-2.0354-.4491-4.3973-.2659-5.1272-3.4449-.213-.928-.1961-1.8922-.0337-2.8304,3.4087-19.6968-6.1021-45.9294-1.3365-65.2633,1.1389-4.6208,6.4133-9.7131,6.0084-14.4549-.2397-2.8071-1.303-5.4663-2.2379-8.1239-3.2108-9.127-8.4266-19.6002-8.7412-29.2704-6.5335,28.0867-3.6572,37.6568-6.5436,66.3486-.5574,5.5401-9.606,40.9776-8.7423,44.1381,1.6482,6.0316-10.4482,24.5212-18.1244,24.5212.0854-.2056,6.4753-23.2644,6.8233-25.1609,1.0601-5.7768,1.7057-12.2587,1.4304-18.1256-1.4304-30.4902-2.0493-42.7752-1.4304-45.8426.5243-2.5982,3.0479-51.4544,1.4926-70.5782l49.6271-2.9217Z"/><path class="cls-1" d="M74.48928,152.19406c-16.8206-2.9367-34.0571-2.9588-50.8839-.0653-3.0383,14.0074-6.061,28.1238-6.6403,42.5121-.5127,12.7356.8987,25.4593,2.3074,38.1125,1.1121,9.9897,3.548,31.7247,4.0643,32.3636.4892.6055,36.3615,8.4268,53.8415,8.0311,1.8648-15.1028,3.7331-30.2626,3.7115-45.5047-.0113-7.9642-.539-15.9152-1.0664-23.8581-1.1514-17.3399-2.3075-34.7209-5.1678-51.8188l-.1663.2276Z"/><path class="cls-14" d="M65.47338,53.59616c-.1035-.4638,0,0-1.7058,0,1.7058,0,5.1644,12.314,4.8875,19.5243-.1229,3.203-.4295,6.7071-2.6671,9.0022-2.0839,2.1374-5.3001,2.6447-8.2815,2.7906-.4117.0202-.8733.0586-1.1414.3715-.2359.2753-.2419.6734-.2358,1.0358.0487,2.8842.0975,5.7685.1462,8.6527.0116.6843-.0004,1.4369-.4489,1.9538-.349.4022-.8902.5715-1.4072.6988-2.8408.6992-5.8563.6613-8.6846-.0833-1.4699-.387-2.4802-1.7385-2.4689-3.2585l.1432-19.2373c-1.8901,1.7191-5.4848.6196-6.0898-1.8627-.605-2.4824,2.0807-5.1126,4.5499-4.4559.4363-6.292,9.3214-21.6336,9.7577-27.9256,8.2559-.2534,8.5291,1.2794,11.9407,12.7936h1.7058Z"/><path class="cls-6" d="M94.73258,156.43466c-7.2979-6.5293-14.4788-13.1893-21.5381-19.9758-2.9615,2.9617-5.7894,6.057-8.4722,9.2734-.3872.4642-.7874.967-.8575,1.5673-.0624.5349.1486,1.0602.3647,1.5534,2.3724,5.4151,5.8564,10.271,9.6019,14.8452,1.8256,2.2295,3.7612,4.439,6.2175,5.9455,2.4564,1.5065,5.5396,2.2342,8.2649,1.2981,3.7696-1.2947,5.892-5.3476,6.6888-9.2529l-.27-5.2542Z"/><path class="cls-6" d="M61.23148,231.55846c.7052-22.2817-2.7726-106.5079-2.1549-142.5665,2.939,1.4094,9.6758,4.1282,12.6147,5.5376,3.0539,1.4644,6.1722,2.9739,8.5602,5.3755,2.6172,2.632,4.1501,6.1248,5.604,9.54,5.8096,13.6466,20.1311,36.6918,12.4549,57.5881-1.9181,5.2217-13.4737,7.296-17.4667,3.4228-2.7228,18.5176,3.0369,50.405.835,70.3538-2.3361.1543-10.5414-.0467-20.7252-.4662.0927-2.9283.1854-5.8567.278-8.7851Z"/><path class="cls-6" d="M.24318,152.68546c.9619-13.4668,1.9238-26.9336,2.8858-40.4005.2174-3.0434.4712-6.2092,2.0137-8.8418,1.7445-2.9773,4.8713-4.8284,7.8957-6.4901,7.9851-4.3873,15.7599-8.814,25.1419-9.2405,2.3452,11.296-.7313,21.9203-.8762,33.5472-.0613,4.9234.4301,9.8367.5407,14.7593.1099,4.8911-.1561,9.782-.4221,14.6671-.8484,15.5814-1.6968,31.1627-2.5452,46.7441-.7524,13.8192-1.5115,27.6791-3.8024,41.3218-8.3457-.5571-15.7151-1.1729-20.1879-1.7803,1.0049-25.8457,2.78-26.9107,4.1439-41.2043-4.99-8.4773-8.9635-17.5498-11.8305-26.9597-1.1748-1.4453-2.0271-3.1997-2.5115-4.998-.97-3.6012-.7116-7.4042-.4459-11.1243Z"/><path class="cls-4" d="M35.30238,88.49956c-1.2797,2.4765-2.5593,4.9531-3.839,7.4296-.6191,1.1981-1.3479,2.3902-1.83,3.6517-.3566.933-.3527,1.8995.0509,2.8129.7371,1.6678,2.4279,2.6324,3.3587,4.1639.8437,1.3881.5761,2.9489-.066,4.3599-1.374,3.0194-4.1955,5.9443-3.6028,9.5102.1941,1.1678.8023,2.2069,1.3888,3.2157.6206,1.0676,1.1846,2.1647,1.6443,3.312.8842,2.2069,1.4613,4.5269,1.8163,6.8751.8159,5.3971.4843,10.9075.1375,16.3293-.0511.7979,1.1908.7948,1.2416,0,.3064-4.7897.5792-9.6145.1014-14.4027-.2364-2.3693-.6474-4.7288-1.3494-7.0067-.707-2.2941-1.7626-4.3544-2.9268-6.4412-.5226-.9367-.9279-1.9084-.8927-2.9972.0254-.7861.2557-1.5606.5553-2.2833.6617-1.5963,1.6727-3.0226,2.4869-4.5402.7469-1.3923,1.4154-2.9572,1.2219-4.5723-.2259-1.8842-1.5594-3.1342-2.7997-4.4405-.5963-.628-1.2631-1.3531-1.3842-2.2491-.0866-.6412.1687-1.2551.4473-1.8167.3245-.6543.6694-1.2992,1.0047-1.948,1.4357-2.7786,2.8714-5.5572,4.3072-8.3357.3662-.7089-.7048-1.3376-1.0722-.6267h0Z"/><path class="cls-4" d="M63.65788,93.77026c1.2139,2.0601,2.4278,4.1201,3.6416,6.1801.5731.9725,1.1923,1.9314,1.7131,2.9331.2389.4597.445.9646.3996,1.4933-.0456.5306-.3148,1.0119-.5843,1.4595-1.1857,1.9687-2.4583,3.8896-3.6868,5.832-.5304.8385-1.0877,1.7272-1.0988,2.7537-.0089.8362.3602,1.5889.8683,2.2311,1.059,1.3385,2.5118,2.2111,3.2945,3.7804.784,1.5721.9241,3.3884.8415,5.1172-.0871,1.8228-.4461,3.6174-.8473,5.3933-.5236,2.3176-1.0488,4.6349-1.5731,6.9523-1.1856,5.2395-2.3711,10.479-3.5567,15.7185-.1761.7781,1.0208,1.1104,1.1973.3301,1.0716-4.7357,2.1431-9.4714,3.2147-14.2071.5396-2.3846,1.0791-4.7693,1.6187-7.1539.4326-1.9117.8745-3.8207,1.0874-5.7724.1936-1.7751.1968-3.6175-.2784-5.3516-.4741-1.73-1.4431-3.0896-2.7489-4.2917-.6096-.5611-1.3122-1.1331-1.6788-1.8947-.4409-.916-.0096-1.7861.482-2.5817,1.2445-2.0145,2.5477-3.9927,3.7979-6.0036.61-.9811,1.0697-2.0132.8118-3.1881-.2603-1.1859-1.0746-2.2639-1.6813-3.2935-1.3873-2.3543-2.7746-4.7086-4.1619-7.063-.4054-.6879-1.4791-.0639-1.0721.6267h0Z"/><rect class="cls-19" x="50.5485" y="114.29778" width="39.4044" height="57.59108" transform="translate(84.06105 301.90179) rotate(-158.82165)"/><path class="cls-19" d="M84.52128,115.75616c.4476-1.1822.5708-2.4638.4476-3.7166-.0571-.5801-.1289-1.2523-.3906-1.7826-.2249-.4556-.6598-.7459-1.1258-.9167-1.0639-.3899-2.2393-.241-3.0229.6128-.4114.4482-.7243.9806-1.0587,1.486-.4307.6512-.8614,1.3024-1.2921,1.9535-.1905.2882-.5341.4428-.8631.271-.2821-.1473-.4627-.5732-.2709-.8631.7469-1.1293,1.4463-2.317,2.2731-3.3899.707-.9174,1.7183-1.5099,2.8879-1.5481,1.0809-.0352,2.3126.2882,3.0863,1.0829.8299.8525.9983,2.1716,1.078,3.3077.0985,1.4027-.1179,2.7831-.6147,4.0953-.1225.3236-.5828.4173-.8631.271-.3368-.1759-.3938-.5386-.271-.8632h0Z"/><path class="cls-11" d="M69.79578,114.20296l20.2558,7.8479h0c1.261-3.2548-.3552-6.9156-3.61-8.1766l-8.4691-3.2813c-3.2548-1.2611-6.9156.3552-8.1767,3.61h0Z"/><path class="cls-14" d="M76.10798,145.38566c-2.2624,2.7612-4.5249,5.5225-6.7873,8.2837-6.9127-7.4418-13.9144-15.0089-18.5426-24.0502-.3719-.7265-.7376-1.5184-.6209-2.3262.1166-.8078.9374-1.5597,1.7086-1.2924-.4806-1.1021-.9658-2.3552-.5107-3.468.455-1.1128,2.3561-1.4945,2.7744-.3674-.2099-.9096-.4207-1.8508-.2482-2.7682.1725-.9175.8346-1.8111,1.7581-1.9478.9234-.1367,1.9209.809,1.6047,1.6873-.132-.4706-.1667-.9634-.1144-1.4479.1664-1.5436,2.3725-1.7276,2.8096-.2379.6983,2.38.7103,5.1137,1.5281,7.3419.431,1.1741,2.1469,1.0237,2.4019-.2007l1.1148-5.3544c1.0521-.3416,1.6102,1.214,1.6075,2.3201-.0066,2.7103.5942,12.0606.5876,14.7709-.0028,1.1703,8.9288,9.0572,8.9288,9.0572Z"/><path class="cls-6" d="M93.10998,151.10906l-16.2474-9.5763c-.5804-.3421-1.2208-.6969-1.8872-.5984-.4958.0732-.9176.3876-1.3128.6958-4.4688,3.4846-11.0371,10.3237-14.586,14.7416,2.8101,2.5672,9.7744,7.9218,15.8875,12.1072,4.9638,3.3984,11.2283,4.2795,16.9506,2.4238,2.3161-.751,4.3703-1.5392,5.1164-2.1638,3.6375-3.0455-.7827-9.0084-1.83-13.6355l-2.0911-3.9944Z"/><path class="cls-1" d="M57.03248,326.11156c-.0929,4.4637.1412,8.9341.6997,13.3636.0266.2113.0609.4377.2073.5924.1415.1495.3563.1985.5578.2404l2.7252.5664c.2579-.9728.5753-1.9298.9499-2.8639.112-.2792.2375-.5681.4704-.7585.7887-.6446,1.8696.2724,2.5225,1.0542,4.438,5.314,12.1133,7.6749,18.7706,5.774.1923-.5404-.2419-1.0847-.6428-1.4949-3.9762-4.0679-9.1524-9.4314-13.1287-13.4993,1.377,1.8467,3.5275,5.4154,4.9045,7.2621.1496.2007.3054.4177.3179.6678.0381.7615-.6523.4849-1.3882.2853-6.4078-1.7383-10.5599-7.9072-16.3993-11.0667l-.5668-.1229Z"/><path class="cls-20" d="M67.43468,58.55996c-1.8161-.8008-3.3545-2.45-4.2078-4.5108-.6317-1.5256-1.2409-3.5748-2.6748-3.6277-.4655-.0172-.912.2083-1.3743.2746-1.8476.265-3.1969-1.8899-4.3782-3.5933-1.1813-1.7035-3.3964-3.2107-4.7426-1.6887-1.72,1.9445.611,5.8285-.8217,8.0761-1.0923,1.7136-3.7289,1.3203-4.5609,3.2279-.3634.8332-.2348,1.8357-.3667,2.7603-.2926,2.052-1.8051,3.5008-3.2106,4.7497-.6012.5343-1.2299,1.0835-1.9675,1.2554-1.937.4514-3.6341-2.0347-3.6273-4.373.0068-2.3384,1.1492-4.4314,2.2442-6.3771s2.2252-4.0538,2.2024-6.3919c-.0154-1.5815-.5665-3.1498-.3389-4.7082.4706-3.2227,3.7462-4.4745,6.4587-5.0863,2.5722-.5801,5.261-1.1552,7.7736-.2822,1.6789.5834,3.2707,1.8067,5.0158,1.6556.7494-.0649,1.4994-.3859,2.2358-.2089.5602.1346,1.0438.5445,1.4792.9833,2.9239,2.9463,4.361,7.4114,5.685,11.6793.3327,1.0723.6704,2.181.6224,3.3221s-.5828,2.3339-1.4998,2.6883l.054.1755Z"/><path class="cls-20" d="M29.24648,82.87286c.3575-1.7067-1.593-3.0782-3.3349-3.1584-1.7419-.0801-3.4577.5862-5.1982.4793-1.908-.1171-3.7457-1.1574-5.6353-.8679-3.0781.4716-4.4799,3.9593-6.2513,6.5203-1.3058,1.8878-3.0538,3.4428-4.3115,5.363-2.315,3.5343-2.666,8.4733-.2461,11.9366,2.4198,3.4633,7.7668,4.7305,11.1407,2.1874,1.4734-1.1105,2.523-2.8113,4.2203-3.5346,1.2872-.5486,2.7559-.4454,4.1076-.8068,2.142-.5726,3.8327-2.2878,4.8832-4.2403s1.5491-4.1462,2.0364-6.3092c.2481-1.1011.4976-2.2347.3195-3.3493-.242-1.5143-1.2315-2.782-1.958-4.1324l.2276-.0877Z"/><path class="cls-15" d="M30.30208,80.28666c-1.4162-1.2958-3.1438-2.2262-5.013-2.6708-.326-.0775-.6727.1024-.7637.4337-.0867.3152.106.6858.4336.7637,1.6623.3953,3.2014,1.1952,4.4651,2.3514.2473.2262.6335.2445.878,0,.2294-.2295.2483-.6508,0-.878h0Z"/><path class="cls-15" d="M29.33858,81.45996c-1.313-.8873-2.7698-1.5608-4.2929-1.9978-.312-.0895-.6898.1092-.7637.4337-.0754.331.0995.6678.4336.7637,1.4367.4121,2.7457,1.0274,3.9963,1.8726.278.1878.688.0532.8495-.2228.1789-.3058.0558-.6611-.2228-.8494h0Z"/><polygon class="cls-12" points="56.56508 85.28476 47.77548 84.51416 56.37458 89.00146 56.56508 85.28476"/><path class="cls-17" d="M57.01458,65.84706c.8638,1.2964,1.7333,2.5893,2.5917,3.8893.3193.4837.5841.9201.2763,1.4737-.2652.4771-.7395.8357-1.1759,1.1471-.2726.1944-.4029.5413-.2227.8494.1575.2694.575.4185.8494.2227,1.1841-.845,2.4322-2.0901,1.7291-3.657-.3475-.7744-.927-1.4773-1.3965-2.1818-.5264-.79-1.0529-1.5801-1.5793-2.3701-.441-.6618-1.5169-.0408-1.0721.6267h0Z"/><path class="cls-8" d="M51.73218,67.47116c0,.8328-.7425,1.5079-1.6585,1.5079-.9159,0-1.6585-.6751-1.6585-1.5079,0-.8327.7426-1.5078,1.6585-1.5078.916,0,1.6585.6751,1.6585,1.5078Z"/><ellipse class="cls-8" cx="63.72028" cy="64.05956" rx="1.6585" ry="1.5078"/><path class="cls-17" d="M59.61868,75.35216c-.3323-.0158-.6649-.0286-.997-.0484-.1383-.0082-.2764-.0186-.4142-.0329-.0326-.0034-.0652-.0069-.0977-.0108-.016-.0019-.1242-.0182-.0394-.0046.085.0136-.0232-.0044-.0388-.0069-.0402-.0065-.0804-.0133-.1204-.0208-.1265-.0237-.2522-.0527-.3757-.0889-.0682-.0199-.1356-.0422-.2022-.0671-.0151-.0056-.1114-.0467-.0343-.0122.0772.0345-.0176-.0095-.0317-.0164-.0621-.03-.1229-.0628-.1818-.0987-.026-.0159-.0511-.0333-.0769-.0495-.0861-.054.012.0176.0153.0161-.0166.0075-.1432-.1274-.1533-.1377-.0303-.0307-.156-.1893-.0685-.0707-.1922-.2606-.5469-.4178-.8494-.2227-.258.1663-.4289.5699-.2227.8494.4326.5864,1.0469.9278,1.7556,1.0768.6995.1469,1.4221.1539,2.1331.1877.3249.0154.6354-.2966.6209-.6208-.0157-.3496-.2728-.6043-.6209-.6209h0Z"/><path class="cls-20" d="M50.03748,61.73316c-1.2754,1.1256-2.8371,1.9269-4.498,2.2964.4541-1.6805,1.5208-3.1821,2.9365-4.1914.5889-.4199,1.4095-.2579,1.7808.3627.2981.4984.2161,1.1481-.2193,1.5323Z"/><path class="cls-20" d="M60.86168,58.32156c1.2754,1.1256,2.8371,1.9269,4.498,2.2963-.4541-1.6804-1.5208-3.182-2.9365-4.1914-.5889-.4198-1.4095-.2579-1.7808.3628-.2981.4984-.2161,1.148.2193,1.5323Z"/><path class="cls-17" d="M43.10788,71.78396c-.8862-.4678-1.8377-.8137-2.8216-1.0055-.3178-.062-.6853.0896-.7637.4336-.07.3073.0928.6972.4336.7637.4577.0892.9085.2097,1.3487.3637.108.0378.2154.0775.322.1192.0533.0208.1063.0425.1594.0638.0646.0269.0604.0251-.0127-.0055.0226.0097.0451.0194.0675.0293.2172.0953.4304.1991.6401.3098.2871.1515.6882.0824.8494-.2227.1516-.2869.084-.6876-.2227-.8494h0Z"/><path class="cls-17" d="M41.49238,71.60326c-.3752.1479-.7215.3608-.9834.6731-.2584.308-.461.6642-.5419,1.0619-.0335.1646-.0243.33.0626.4784.0753.1288.223.2516.371.2853.1589.0362.3373.0284.4784-.0626.1307-.0843.2532-.2133.2853-.371.0228-.1122.0564-.2211.1002-.3269-.0209.0494-.0418.0988-.0626.1483.0624-.1465.1429-.2832.2401-.4092-.0324.0418-.0647.0837-.0971.1256.0946-.1201.2023-.2278.3227-.3219-.0419.0323-.0838.0647-.1257.097.1163-.0889.2416-.1633.3758-.2217-.0494.0209-.0988.0417-.1483.0626.0176-.0074.0352-.0146.0529-.0216.1556-.0614.2836-.1358.3711-.2853.0779-.1331.1108-.3292.0626-.4784-.0487-.1502-.1417-.2952-.2853-.371-.1387-.0733-.3259-.1228-.4784-.0626h0Z"/><path class="cls-20" d="M45.59548,36.87796c-3.67-.6355-7.4975-.9415-11.143.0083-2.9288.763-5.6333,2.4194-7.4434,4.8717-.862,1.1679-1.4921,2.5239-1.7576,3.9547-.3282,1.7684-.0967,3.5601.1073,5.328.2068,1.7912.4062,3.6578-.154,5.4074-.4831,1.5093-1.5058,2.7669-2.3663,4.0721-.9573,1.4522-1.7109,3.0399-1.5215,4.8244.2105,1.9828,1.3169,3.7274,2.3879,5.3552.2187.3324.7565.0218.5361-.3133-.9469-1.4393-1.9459-2.9652-2.2506-4.6919-.289-1.6378.275-3.1057,1.1341-4.4736.7656-1.219,1.6893-2.3469,2.3017-3.6575.6813-1.458.8291-3.0381.7339-4.6288-.1032-1.7228-.4393-3.4277-.4553-5.1565-.0142-1.5389.295-3.0277,1.0142-4.3941,1.3615-2.5864,3.8566-4.5214,6.5847-5.496,3.8876-1.3888,8.129-1.1036,12.1268-.4115.3907.0677.5585-.5305.165-.5986h0Z"/><path class="cls-20" d="M26.88048,86.36946c2.0821,3.9162,2.0485,8.8448-.1227,12.7202-.5362.957-1.1951,1.8552-2.0231,2.5803-.9057.7932-1.9778,1.2279-3.1414,1.4916-1.14.2584-2.3127.3905-3.4193.7824-1.0616.3761-2.0135.9787-2.9983,1.5133-1.0329.5607-2.1069,1.0319-3.3056.9577-.9833-.0609-2.0245-.4922-2.4168-1.46-.1481-.3655-.7489-.2058-.5986.165.7144,1.7628,2.847,2.2006,4.54,1.7696,1.1985-.3051,2.263-1.0019,3.3347-1.5906,1.2131-.6665,2.4383-1.0338,3.7924-1.2915,1.2426-.2366,2.5008-.4752,3.6034-1.129.9893-.5866,1.7964-1.4323,2.4625-2.361,1.3836-1.9292,2.1698-4.2604,2.3897-6.6144.2524-2.7016-.287-5.451-1.5609-7.8469-.1876-.3529-.7237-.0396-.536.3133h0Z"/><path class="cls-5" d="M27.81948,85.00876c-.224-.2041-.475-.2111-.7048-.0012-.2844.2598-.2946.6324-.2493.985.1614,1.259.6515,2.4546.7806,3.7177.1102,1.0786-.0495,2.2563-.9035,3.012-.7.6194-1.6732.7886-2.58.7666-.9922-.0241-1.9118-.303-2.8463-.6088-1.0007-.3276-2.1223-.6421-3.1519-.2479-1.8602.7122-2.1303,3.0751-2.5506,4.7426-.2937,1.1653-.6743,2.406-1.5781,3.2512-.8207.7673-2.0646,1.2242-3.1129.6504-.3506-.1919-.6643.344-.3133.5361,1.5839.8669,3.4688-.043,4.4373-1.4101.6343-.8953.9494-1.9808,1.2079-3.0333.2466-1.0038.4098-2.0782.9126-2.9952,1.3057-2.3815,3.8683-.7238,5.8301-.3846,1.6191.2799,3.5392.1323,4.6009-1.2893.6905-.9246.7839-2.131.6393-3.2406-.0852-.6528-.2563-1.2885-.4186-1.9252-.0799-.3134-.1597-.6269-.2258-.9435-.033-.1579-.0633-.3163-.088-.4757-.0223-.1318-.0392-.2643-.0507-.3976.0973-.1426.0727-.2324-.0739-.2696.2948.2687.7351-.1691.439-.439h0Z"/><path class="cls-5" d="M20.36178,85.03166c-1.1543-.3999-2.4868-.0355-3.2373.9409-.8957,1.1654-.851,2.766-2.0362,3.7501-1.0993.9127-2.4232,1.422-3.3466,2.5609-.9015,1.1118-1.0899,2.3858-.6957,3.7484.2624.9072.7103,1.7963.7344,2.756.0222.8786-.4869,1.91-1.4922,1.8721-.3996-.015-.399.6059,0,.6209,1.2633.0475,2.0757-1.1525,2.1128-2.3119.0516-1.6143-1.1446-3.0439-.9346-4.6593.1933-1.486,1.5157-2.5002,2.7044-3.2298.5776-.3546,1.1772-.7028,1.655-1.1912.4528-.4629.7305-1.034.9519-1.6355.2817-.765.4808-1.6394,1.1144-2.2044.6291-.5609,1.5223-.6896,2.3046-.4186.3783.1311.5409-.4684.1651-.5986h0Z"/><path class="cls-5" d="M11.91148,87.67476c-1.5824.8454-3.3736,1.8885-4.1087,3.6181-.9062,2.132.5388,4.0315,1.1205,6.0201.112.3826.7113.2198.5987-.1651-.5239-1.7908-1.9626-3.6517-1.1683-5.5764.6675-1.6176,2.4058-2.5778,3.8711-3.3606.3526-.1883.0393-.7244-.3133-.5361h0Z"/><path class="cls-5" d="M46.07968,43.91106c-.1598,2.4666-.3518,5.1974-2.0963,7.1238-.7922.8748-1.7907,1.3309-2.9205,1.6058-.971.2363-1.9723.377-2.8946.7793-1.8113.79-2.6269,2.5919-2.5186,4.5034.0522.9205.2828,1.8184.6538,2.661.5173,1.1749,1.3174,2.3212,1.3058,3.6537-.0263,3.0008-3.2115,4.4481-5.622,5.2531-.3771.126-.2154.7258.165.5987,2.2153-.7398,4.5932-1.7672,5.6396-4.0141.4738-1.0174.5578-2.1191.2225-3.1921-.3635-1.1633-1.0831-2.1761-1.4433-3.3403-.6296-2.0345-.3698-4.5382,1.7739-5.5265,1.0012-.4616,2.1278-.5709,3.1838-.8539,1.0369-.2779,1.9747-.7494,2.7334-1.5203,2.011-2.0432,2.2627-5.0222,2.4383-7.7316.0258-.399-.5951-.3974-.6208,0h0Z"/><path class="cls-5" d="M31.64848,57.61416c-.984.9636-1.9928,2.0011-2.479,3.3175-.5052,1.368-.0895,2.6623.3771,3.972.2322.6516.4831,1.3333.4713,2.0349-.0118.6986-.3423,1.2645-.8057,1.7638-.7198.7755-1.7099,1.4104-2.0846,2.4457-.2447.6762-.0969,1.3635.1406,2.0192.3157.8715.733,1.6988,1.2349,2.4776.2158.3347.7534.0238.5361-.3133-.5468-.8485-1.0333-1.772-1.3122-2.7465-.2427-.8482.0013-1.5044.5804-2.1326.8903-.9655,2.1034-1.7273,2.3002-3.1338.2302-1.6454-.896-3.0765-1.0525-4.6706-.1855-1.8905,1.2907-3.3789,2.5324-4.5949.2859-.28-.1532-.7189-.439-.439h0Z"/><path class="cls-5" d="M25.81698,64.21666c-1.2749.9999-2.0567,2.5919-2.0305,4.2178.0256,1.5855.8048,3.1174,2.0566,4.0852.3122.2414.7548-.1948.439-.439-1.1271-.8713-1.8516-2.2105-1.8748-3.6462-.0238-1.4784.6942-2.8733,1.8487-3.7789.3141-.2463-.1279-.6829-.439-.4389h0Z"/><path class="cls-5" d="M34.25658,74.81366c-.6228.782-1.7821,1.0705-2.6824.6051-.3544-.1832-.6688.3524-.3133.5361,1.129.5836,2.6342.3029,3.4347-.7022.1044-.131.128-.311,0-.439-.1082-.1082-.3339-.1318-.439,0h0Z"/><path class="cls-5" d="M40.37468,39.98806c-1.1799.5419-2.4218,1.1662-3.2746,2.1764-.3906.4627-.6935,1.0009-.8176,1.5979-.1492.7178.0156,1.5053-.4238,2.1399-.6086.8788-1.8294,1.2096-2.7469,1.6509-1.0172.4893-1.9495,1.1697-2.2634,2.3113-.4293,1.5618.313,3.2231.9985,4.5952.1786.3575.7143.0434.5361-.3133-.6063-1.2135-1.3169-2.7312-.9359-4.1169.3124-1.1363,1.3741-1.6709,2.3664-2.12.8594-.389,1.8277-.7465,2.4393-1.503.7996-.9889.3428-2.3028.9732-3.3629.7401-1.2446,2.1955-1.9377,3.4621-2.5194.3626-.1666.0476-.7018-.3134-.5361h0Z"/><path class="cls-5" d="M51.61908,43.24676c-.9577-2.2046-3.2146-3.715-5.6082-3.8105-.3996-.016-.3989.6049,0,.6208,2.1921.0875,4.2012,1.4983,5.0722,3.5031.1588.3655.6938.0497.536-.3134h0Z"/><path class="cls-5" d="M54.59968,41.55576c.2973.828.7752,1.5783,1.4249,2.1753.716.6578,1.5515,1.0196,2.4652,1.3167.943.3066,1.769.7197,2.3415,1.5611.5131.7542.7689,1.6819.6441,2.5918-.0536.3907.5445.5598.5987.1651.2416-1.7616-.6212-3.6106-2.2213-4.4478-.923-.4829-1.9771-.6145-2.8528-1.2025-.8305-.5577-1.4642-1.385-1.8017-2.3247-.134-.3733-.7341-.2123-.5986.165h0Z"/><path class="cls-4" d="M26.79098,164.17646c-5.395,7.1519-10.3775,14.6149-14.9146,22.3395-.4609.7847-.8273,1.9802-.0439,2.4434,1.6848-1.1875,2.8986-2.9162,4.0375-4.6342,4.2088-6.3493,7.8795-13.0553,10.9599-20.0223l-.0389-.1264Z"/><path class="cls-14" d="M25.29638,173.47516c-.9026-1.3442-1.8053-2.6884-2.708-4.0327-1.5438,2.7228-3.0875,5.4456-4.6312,8.1684-.2281.4022-.4615.8213-.497,1.2823-.0539.6983.3506,1.34.7388,1.9229.6143.9224,1.2286,1.8447,1.8428,2.7671,1.7432-3.3462,3.4863-6.6924,5.2295-10.0386l.0251-.0694Z"/><path class="cls-4" d="M27.32888,170.05366c-3.3708,5.7991-6.5966,11.6823-9.6691,17.6449-.8713,1.6909-1.7299,3.3882-2.5771,5.0913-.3548.7132.7159,1.3429,1.0722.6267,2.9875-6.0057,6.1249-11.9363,9.413-17.7828.9324-1.658,1.8772-3.3089,2.8331-4.9534.4024-.6922-.6703-1.318-1.0721-.6267h0Z"/><path class="cls-4" d="M25.61908,164.36206c-4.0709,5.6087-7.7951,11.4567-11.4329,17.3525-1.0273,1.6649-2.0482,3.3338-3.069,5.0026-.4181.6835.6554,1.3081,1.0721.6267,3.6155-5.9104,7.2329-11.824,11.1306-17.5543,1.0998-1.617,2.2226-3.2182,3.3713-4.8008.47-.6475-.6067-1.2679-1.0721-.6267h0Z"/><path class="cls-4" d="M26.18638,163.84036c-2.1283-3.5428-4.2567-7.0857-6.3851-10.6285-1.0642-1.7714-2.1284-3.5428-3.1926-5.3143-.4326-.7201-.8278-1.597-1.6617-1.9214-.8176-.3181-1.8384-.1663-2.6957-.1605-2.3181.0158-4.6362.0333-6.9542.0523-.7986.0066-.8005,1.2483,0,1.2417,1.9431-.0159,3.8861-.0308,5.8292-.0445.9315-.0066,1.8666-.0368,2.7978-.0163.4113.009.7106.0784.9669.422.2842.381.5075.8235.752,1.2306,2.0042,3.3362,4.0085,6.6723,6.0127,10.0085,1.1529,1.919,2.3057,3.8381,3.4586,5.7571.411.6842,1.4851.0607,1.0721-.6267h0Z"/><path class="cls-4" d="M15.36158,145.76866c-1.1489-.6746-2.2977-1.3492-3.4466-2.0239-.2803-.1645-.6931-.0732-.8494.2228-.1575.2981-.0765.6737.2227.8494,1.1489.6746,2.2978,1.3492,3.4466,2.0238.2803.1646.6931.0733.8495-.2227.1575-.2981.0764-.6737-.2228-.8494h0Z"/><path class="cls-4" d="M16.75528,110.30726c-.1469,9.7476-.4599,19.4925-.942,29.2293-.1358,2.7427-.2854,5.4848-.4476,8.2261-.0472.7982,1.1946.7954,1.2417,0,.5758-9.7317.9857-19.473,1.2264-29.2188.0678-2.7452.1218-5.4908.1632-8.2366.012-.7993-1.2297-.7996-1.2417,0h0Z"/><path class="cls-4" d="M77.54378,143.57766c-3.8801,3.5939-7.7602,7.1877-11.6403,10.7815-.5875.5442.2922,1.4207.878.878,3.8801-3.5938,7.7602-7.1876,11.6403-10.7815.5875-.5442-.2921-1.4206-.878-.878h0Z"/><path class="cls-4" d="M78.83408,143.23236c5.8356,3.8053,11.4706,7.912,16.8746,12.3088.6147.5001,1.4983-.3733.878-.878-5.486-4.4635-11.2017-8.6399-17.1259-12.5029-.6713-.4378-1.2942.6368-.6267,1.0721h0Z"/><path class="cls-4" d="M89.53718,150.86436c1.1305,2.0496,2.2609,4.0991,3.3914,6.1486.386.6999,1.4588.0742,1.0722-.6267-1.1305-2.0495-2.261-4.099-3.3915-6.1486-.386-.6998-1.4587-.0741-1.0721.6267h0Z"/><path class="cls-4" d="M71.35408,177.28096c2.6057,3.4401,5.0102,7.0273,7.2022,10.7448.4056.6878,1.4793.0638,1.0722-.6267-2.192-3.7174-4.5966-7.3047-7.2023-10.7448-.4764-.6289-1.5551-.0109-1.0721.6267h0Z"/><path class="cls-1" d="M35.91148,321.53496c.0725,5.5566-.5994,11.1225-1.9921,16.5022-1.2786.0004-1.1206.0003-2.3993.0007l-.5223-2.0243c-3.0202,4.832-6.8225,9.5353-12.1779,11.5516-.3454.13-.7166.2002-1.0845.1698-1.1488-.0951-1.38-.9971-1.4894-1.8102-.568-4.22,1.4815-7.6547,2.7439-11.7214,1.4089-4.5388,5.312-13.785,5.2288-13.1814-.432,3.1318-2.4695,9.4994-3.9495,14.0343-.4288,1.3139,1.2317,1.224,2.112.1584,3.7078-4.4884,8.3087-10.1217,11.0431-13.2054.6116-.6897,1.8704-1.3173,2.2643-.4839l.2229.0096Z"/><path class="cls-17" d="M56.53048,118.74336c.4467,2.3933.8934,4.7866,1.34,7.18.0616.3298.46.5171.7637.4336.3461-.0951.4954-.433.4336-.7637-.4466-2.3933-.8933-4.7867-1.34-7.18-.0615-.3298-.46-.5171-.7637-.4336-.3461.0951-.4953.433-.4336.7637h0Z"/><path class="cls-17" d="M53.82038,122.02626c.3444,2.0658.6889,4.1316,1.0333,6.1973.0552.331.4645.5159.7637.4337.351-.0965.489-.4318.4336-.7637-.3444-2.0658-.6889-4.1316-1.0333-6.1974-.0552-.331-.4644-.5159-.7637-.4336-.351.0964-.489.4317-.4336.7637h0Z"/><path class="cls-17" d="M50.92798,126.92636c.3398.8659.6797,1.7318,1.0195,2.5977.061.1555.136.2836.2853.371.1331.0779.3292.1109.4784.0626.2925-.0947.5606-.44.4336-.7637-.3398-.8659-.6797-1.7318-1.0195-2.5977-.061-.1554-.136-.2836-.2853-.371-.1331-.0779-.3292-.1108-.4784-.0626-.2925.0947-.5606.4401-.4336.7637h0Z"/><path class="cls-17" d="M58.95698,124.66576c-2.1501,1.7755-4.3003,3.5509-6.4504,5.3263-.2587.2136-.2212.6568,0,.878.2559.2559.6186.2141.878,0,2.1501-1.7754,4.3002-3.5509,6.4504-5.3263.2587-.2136.2212-.6568,0-.878-.256-.2559-.6186-.2141-.878,0h0Z"/><path class="cls-17" d="M66.26278,137.29466c-.5434.3282-1.0869.6564-1.6304.9846-.1348.0815-.2433.2184-.2853.3711-.0409.1486-.0224.3465.0626.4784.1801.2793.5519.4023.8494.2227.5435-.3282,1.0869-.6564,1.6304-.9846.1349-.0815.2433-.2184.2853-.371.041-.1487.0225-.3465-.0626-.4784-.18-.2793-.5519-.4024-.8494-.2228h0Z"/><path class="cls-18" d="M57.14548,99.07726c-4.3634,3.0234-9.8333,1.028-14.2803-.6815-.7465-.287-1.0695.913-.3301,1.1973,4.7666,1.8324,10.5834,3.7808,15.2371.5563.6524-.452.0323-1.5287-.6267-1.0721h0Z"/><path class="cls-18" d="M51.96688,112.68816c-3.4262,5.3374-7.0305,10.5588-10.8065,15.6549-.476.6425.6012,1.2623,1.0722.6266,3.7759-5.096,7.3802-10.3174,10.8064-15.6548.433-.6744-.6413-1.2977-1.0721-.6267h0Z"/><path class="cls-18" d="M49.62478,121.46326c-1.3919,1.9056-2.6669,3.8932-3.8186,5.9528-.3905.6982.6816,1.325,1.0721.6267,1.1517-2.0596,2.4267-4.0472,3.8186-5.9528.1979-.2709.0458-.6923-.2227-.8494-.3145-.1839-.6511-.0489-.8494.2227h0Z"/></g></svg>