<svg xmlns="http://www.w3.org/2000/svg" xmlns:xlink="http://www.w3.org/1999/xlink" width="29.416" height="30.704" viewBox="0 0 29.416 30.704"><defs><filter id="a" x="0" y="5" width="29.416" height="25.704" filterUnits="userSpaceOnUse"><feOffset dy="3" input="SourceAlpha"/><feGaussianBlur stdDeviation="3" result="b"/><feFlood flood-opacity="0.102"/><feComposite operator="in" in2="b"/><feComposite in="SourceGraphic"/></filter><filter id="c" x="0" y="0" width="29.416" height="25.704" filterUnits="userSpaceOnUse"><feOffset dy="3" input="SourceAlpha"/><feGaussianBlur stdDeviation="3" result="d"/><feFlood flood-opacity="0.102"/><feComposite operator="in" in2="d"/><feComposite in="SourceGraphic"/></filter></defs><g transform="translate(-327.489 -646.045)"><g transform="matrix(1, 0, 0, 1, 327.49, 646.04)" filter="url(#a)"><path d="M2.764,291.965a.739.739,0,0,0-.487,1.309L6.8,297.15l-4.524,3.874a.739.739,0,1,0,.96,1.119l5.179-4.431a.739.739,0,0,0,0-1.125l-5.179-4.435a.739.739,0,0,0-.474-.186Z" transform="translate(311.87 9.53) rotate(90)" fill="#f0a9b9" stroke="#f0a9b9" stroke-width="1"/></g><g transform="translate(639.358 650.573) rotate(90)"><g transform="matrix(0, -1, 1, 0, -4.53, 311.87)" filter="url(#c)"><path d="M2.764,291.965a.739.739,0,0,0-.487,1.309L6.8,297.15l-4.524,3.874a.739.739,0,1,0,.96,1.119l5.179-4.431a.739.739,0,0,0,0-1.125l-5.179-4.435a.739.739,0,0,0-.474-.186Z" transform="translate(311.87 4.53) rotate(90)" fill="#f0a9b9" stroke="#f0a9b9" stroke-width="1"/></g></g></g></svg>