<?xml version="1.0" encoding="UTF-8"?><svg id="_レイヤー_2" xmlns="http://www.w3.org/2000/svg" viewBox="0 0 450 450.00049"><defs><style>.cls-1{fill:#badbac;}.cls-1,.cls-2,.cls-3,.cls-4,.cls-5,.cls-6,.cls-7,.cls-8,.cls-9,.cls-10,.cls-11,.cls-12,.cls-13,.cls-14,.cls-15,.cls-16,.cls-17,.cls-18,.cls-19,.cls-20,.cls-21,.cls-22,.cls-23,.cls-24,.cls-25,.cls-26,.cls-27,.cls-28,.cls-29,.cls-30,.cls-31,.cls-32,.cls-33,.cls-34,.cls-35,.cls-36,.cls-37,.cls-38,.cls-39,.cls-40,.cls-41,.cls-42,.cls-43,.cls-44,.cls-45,.cls-46,.cls-47,.cls-48,.cls-49,.cls-50,.cls-51,.cls-52{stroke-width:0px;}.cls-2{fill:#e2421e;}.cls-3{fill:#f9b39a;}.cls-4{fill:#b2b2b2;}.cls-5{fill:#3f5ca8;}.cls-6{fill:#e8721b;}.cls-7{fill:#caecf4;}.cls-8{fill:#ffe167;}.cls-9{fill:#e6e6e6;}.cls-10{fill:#f7971e;}.cls-11{fill:#89695e;}.cls-12{fill:#64b044;}.cls-13{fill:#ea4d20;}.cls-14{fill:#f15723;}.cls-15{fill:#43459c;}.cls-16{fill:#95d8e9;}.cls-17{fill:#5f9653;}.cls-18{fill:#d3362d;}.cls-19{fill:#fcf6a8;}.cls-20{fill:#e74c3c;}.cls-21{fill:#ccc;}.cls-22{fill:#fff;}.cls-23{fill:#c0392b;}.cls-24{fill:#f0851d;}.cls-25{fill:#cf9860;}.cls-26{fill:#1ac;}.cls-27{fill:#cddc39;}.cls-28{fill:#b9c147;}.cls-29{fill:#e8f0a7;}.cls-30{fill:#fbcb43;}.cls-31{fill:#d73d32;}.cls-32{fill:#f9b256;}.cls-33{fill:#f5df3c;}.cls-34{fill:#eca402;}.cls-35{fill:#6b7f28;}.cls-36{fill:#8dc375;}.cls-37{fill:#79544e;}.cls-38{fill:#64a74a;}.cls-39{fill:#b37e4c;}.cls-40{fill:#4dbfd9;}.cls-41{fill:#fbd099;}.cls-42{fill:#f5b400;}.cls-43{fill:#dae56b;}.cls-44{fill:#795547;}.cls-45{fill:#582a1a;}.cls-46{fill:#f5815a;}.cls-47{fill:#663f30;}.cls-48{fill:#c3d140;}.cls-49{fill:#e49306;}.cls-50{fill:#ecf0f1;}.cls-51{fill:#f2f2f2;}.cls-52{fill:#109d59;}</style></defs><g id="background"><rect class="cls-22" width="450" height="450.00049"/></g><g id="icons"><path class="cls-7" d="M412.334,256.34129c-.02051-3.8808-2.87111-7.9267-5.74021-11.9287-2.1504-2.9844-2.4805-7.4355-2.5-9.5049h.2597c1.2403,0,2.2403-.8633,2.2403-1.9238v-1.6826c0-1.0694-1-1.9317-2.2403-1.9317h-14.0996c-1.2393,0-2.2393.8623-2.2393,1.9317v1.6826c0,1.0605,1,1.9238,2.2393,1.9238h.2607c-.0205,2.0694-.3505,6.5205-2.5,9.5049-2.871,4.002-5.7207,8.0479-5.7402,11.9287,0,.0264.0098.0606.0098.086,0,.0263-.0098.0429-.0098.0605v39.6777c0,3.4854,5.6074,7.1797,14.999,7.1924v.001c.0108,0,.0205-.001.0303-.001s.0195.001.03031.001v-.001c9.39159-.0127,15-3.707,15-7.1924v-39.6777c0-.0176-.01081-.0342-.01081-.0605,0-.0254.01081-.0596.01081-.086Z"/><path class="cls-51" d="M385.43849,257.02199v39.2021c0,2.3213,5.3261,4.2022,11.89651,4.2022,6.56929,0,11.89549-1.8809,11.89549-4.2022v-39.2021h-23.792Z"/><path class="cls-22" d="M409.23049,257.02199c0,1.1338-5.3262,2.0527-11.89549,2.0527-6.57041,0-11.89651-.9189-11.89651-2.0527s5.3261-2.0527,11.89651-2.0527c6.56929,0,11.89549.9189,11.89549,2.0527Z"/><rect class="cls-40" x="387.86039" y="229.36959" width="18.7539" height="6.2657" rx="2" ry="2"/><rect class="cls-22" x="397.53029" y="237.52199" width="4.42771" height="14.8476" rx="2" ry="2"/><rect class="cls-22" x="402.11229" y="262.06789" width="4.7891" height="29.9736" rx="2" ry="2"/><path class="cls-16" d="M366.72949,269.83249l2,31.1543c0,1.334,4.14751,4.416,11.73051,4.416s11.73039-3.082,11.73039-4.416l2-31.1543h-27.4609Z"/><path class="cls-7" d="M394.19039,269.83249c0,1.334-6.14739,2.416-13.73039,2.416s-13.73051-1.082-13.73051-2.416c0-1.3349,6.14751-2.417,13.73051-2.417s13.73039,1.0821,13.73039,2.417Z"/><path class="cls-16" d="M392.917,269.69389c0,.997-5.80661,1.8046-12.35841,1.8046-6.5527,0-12.5791-.8076-12.5791-1.8046,0-.9981,6.0264-1.8057,12.5791-1.8057,6.5518,0,12.35841.8076,12.35841,1.8057Z"/><path class="cls-7" d="M369.41889,278.23489l1.0118,21.376c0,2.2431,4.331,4.0566,10.1269,4.0566,5.7949,0,9.9317-1.8135,9.9317-4.0566l1-21.376h-22.0704Z"/><path class="cls-22" d="M391.47749,278.60989c0,1.0898-5.1367,1.9717-10.9316,1.9717-5.79589,0-11.127-.8819-11.127-1.9717,0-1.0899,5.33111-1.9717,11.127-1.9717,5.7949,0,10.9316.8818,10.9316,1.9717Z"/><rect class="cls-22" x="383.22359" y="284.30709" width="4.4287" height="14.8467" rx="2" ry="2"/><path class="cls-30" d="M277.38569,51.00439c-13.4599,0-24.3701,2.8516-24.3701,6.3731v4.416c0,11.0381,7.1455,20.4111,16.5489,22.2851.8584.544,4.1914.9502,8.1816.9502,4.1797,0,7.6387-.4463,8.2842-1.0303,9.0234-2.2177,15.7353-11.455,15.7353-22.205v-4.416c0-3.5215-10.9101-6.3731-24.3799-6.3731Z"/><path class="cls-30" d="M277.38569,51.00439c-13.4599,0-24.3701,2.8516-24.3701,6.3731v4.416c0,11.0381,7.1455,20.4111,16.5489,22.2851.8584.544,4.1914.9502,8.1816.9502,4.1797,0,7.6387-.4463,8.2842-1.0303,9.0234-2.2177,15.7353-11.455,15.7353-22.205v-4.416c0-3.5215-10.9101-6.3731-24.3799-6.3731Z"/><path class="cls-19" d="M301.76559,56.70459c0,3.1504-10.9101,5.7002-24.3799,5.7002-13.4599,0-24.3701-2.5498-24.3701-5.7002,0-3.1494,10.9102-5.7002,24.3701-5.7002,13.4698,0,24.3799,2.5508,24.3799,5.7002Z"/><ellipse class="cls-22" cx="277.39062" cy="56.65479" rx="21.70312" ry="4.5"/><path class="cls-22" d="M294.416,59.44479c-3.97071,1.0401-10.12111,1.71-17.03031,1.71-6.5,0-12.3408-.5898-16.3095-1.54,3.9687-1.0401,10.1191-1.71,17.0195-1.71,6.5098,0,12.3496.5898,16.32031,1.54Z"/><path class="cls-49" d="M294.416,59.44479c-3.97071,1.0401-10.12111,1.71-17.03031,1.71-6.5,0-12.3408-.5898-16.3095-1.54,3.9687-1.0401,10.1191-1.71,17.0195-1.71,6.5098,0,12.3496.5898,16.32031,1.54Z"/><path class="cls-30" d="M310.79489,63.18409c-1.2187-3.1895-4.62889-5.25-9.0293-5.5098v4.0098c2.6699.2012,4.6602,1.2812,5.2901,2.9209.6699,1.7803-.38969,3.6494-1.0899,4.5996-1.3603,1.8701-3.6601,3.5098-6.29,4.5098l-1.2803.4902c-1.3603,2.29-3.0898,4.2803-5.1103,5.8604,1.1806-.21,2.3711-.5401,3.5302-.9805l4.2803-1.6299c3.3906-1.2803,6.2695-3.3799,8.0996-5.8896,2.0303-2.7803,2.5899-5.75,1.5996-8.3809Z"/><path class="cls-36" d="M270.33979,49.65089c5.4356,3.543,7.2159,10.4473,7.2159,10.4473,0,0-7.0352,1.1601-12.47169-2.3829-5.43651-3.5429-7.21681-10.4472-7.21681-10.4472,0,0,7.0351-1.1602,12.4726,2.3828Z"/><path class="cls-12" d="M270.34179,49.64699c5.4375,3.5439,7.2129,10.4531,7.2129,10.4531l-19.6885-12.8301s7.0381-1.166,12.4756,2.377Z"/><path class="cls-1" d="M382.72949,81.43169c.457,1.0048.0137,2.1914-.9922,2.6484l-4.4004,2.0019c-1.0058.4581-2.1914.0137-2.6494-.9921l-11.042-24.2725c-.457-1.0049-.0137-2.1904.9922-2.6484l4.4004-2.002c1.0058-.457,2.1914-.0127,2.6484.9922l11.043,24.2725Z"/><path class="cls-17" d="M371.97359,61.81349c2.5098,5.5156.0723,12.0215-5.4433,14.5303-5.5157,2.5097-12.0205.0722-14.52929-5.4434-2.50981-5.5156-.07231-12.0205,5.44329-14.5303,5.51571-2.5088,12.0196-.0722,14.5293,5.4434Z"/><path class="cls-17" d="M368.96579,51.17579c1.7461,3.8398.0488,8.3682-3.791,10.1152-3.83979,1.7471-8.3682.0508-10.1152-3.789-1.7471-3.8399-.0508-8.3692,3.79-10.1162,3.8389-1.7461,8.3682-.0499,10.1162,3.79Z"/><path class="cls-17" d="M387.56739,52.69529c3.001,6.5977.0859,14.378-6.5117,17.3789-6.59669,3.002-14.377.0869-17.3789-6.5107-3.002-6.5967-.086-14.3779,6.5107-17.3789s14.3779-.0869,17.3799,6.5107Z"/><path class="cls-12" d="M364.36519,66.75589c1.0606,2.332.0303,5.082-2.3017,6.1425-2.3321,1.0616-5.0821.0303-6.1426-2.3007-1.0605-2.3321-.0303-5.0821,2.3018-6.1436,2.331-1.0605,5.081-.0303,6.1425,2.3018Z"/><path class="cls-12" d="M379.18459,51.55179c1.0449,2.2978.0293,5.0088-2.26959,6.0556-2.29881,1.045-5.00971.0303-6.05661-2.2685-1.0449-2.2988-.0293-5.0108,2.2695-6.0567,2.2989-1.0459,5.0098-.0293,6.0567,2.2696Z"/><path class="cls-12" d="M365.63379,54.58299c.709,1.5576.0215,3.3946-1.5361,4.1035-1.55769.708-3.3936.0196-4.1026-1.5381-.709-1.5576-.0215-3.3935,1.5371-4.1025,1.5567-.708,3.3936-.0205,4.1016,1.5371Z"/><path class="cls-12" d="M376.48929,62.35059c.50871,1.1172.0146,2.4346-1.1016,2.9424-1.1172.5078-2.4336.0146-2.9434-1.1026-.5078-1.1162-.0136-2.4336,1.1036-2.9414,1.1162-.5078,2.4335-.0146,2.9414,1.1016Z"/><path class="cls-36" d="M402.81739,54.67479c-9.207,8.7813-18.3252,14.1641-18.3252,14.1641,0,0,5.8066-8.8545,15.0127-17.6367,9.20511-8.7813,18.3252-14.1651,18.3252-14.1651,0,0-5.8076,8.8565-15.0127,17.6377Z"/><path class="cls-12" d="M404.92869,57.36519c-10.3242,7.4336-20.0976,11.5137-20.0976,11.5137,0,0,6.9687-7.9736,17.29391-15.4072,10.32519-7.4336,20.09769-11.5137,20.09769-11.5137,0,0-6.9678,7.9737-17.294,15.4072Z"/><path class="cls-12" d="M395.82419,55.41599c-4.8213,7.9551-10.2314,13.4942-10.2314,13.4942,0,0,2.4101-7.3584,7.2314-15.3125s10.2315-13.4951,10.2315-13.4951c0,0-2.4102,7.3583-7.2315,15.3134Z"/><path class="cls-10" d="M380.61329,77.15819c-8.7774,8.3731-16.9268,14.0791-18.2002,12.7432-1.2754-1.336,4.8086-9.2071,13.58591-17.5801,8.77829-8.373,12.40729-9.7666,13.68169-8.4316,1.2734,1.3359-.2891,4.8955-9.0674,13.2685Z"/><path class="cls-6" d="M384.125,73.02049c-.24511.2334-.63181.2246-.86431-.0205l-1.416-1.4834c-.2334-.2451-.2246-.6318.0196-.8652h0c.2451-.2324.6318-.2237.8652.0215l1.416,1.4834c.2324.2441.2246.6318-.02049.8642h0Z"/><path class="cls-6" d="M376.94729,75.94239c-.2442.2334-.6319.2236-.86429-.0205l-1.416-1.4844c-.23241-.2441-.22461-.6308.02049-.8642h0c.2441-.2334.6318-.2247.8652.0195l1.4151,1.4844c.2334.2441.2246.6318-.0205.8652h0Z"/><path class="cls-6" d="M374.13959,82.54589c-.2441.2324-.6308.2236-.8632-.0215l-1.416-1.4834c-.23339-.2451-.2247-.6318.0195-.8652h0c.24411-.2324.6328-.2236.8652.0205l1.416,1.4834c.2334.2451.2237.6328-.0215.8662h0Z"/><path class="cls-6" d="M367.80569,86.32519c-.2442.2334-.6319.2246-.8653-.0195l-1.416-1.4844c-.23239-.2441-.2226-.6318.0215-.8652h0c.24411-.2334.6318-.2237.8652.0205l1.4151,1.4843c.2334.2442.2236.6309-.0205.8643h0Z"/><path class="cls-18" d="M405.71779,78.42189c0,6.2324-6.0371,11.2851-13.4844,11.2851s-13.48339-5.0527-13.48339-11.2851c0-6.2334,6.03609-11.2861,13.48339-11.2861s13.4844,5.0527,13.4844,11.2861Z"/><path class="cls-17" d="M395.06739,70.20699c1.6787-.0976,3.01561-1.0966,3.01561-1.0966,0,0-1.31051-1.0879-3.00981-1.253,1.1172-1.2568,1.3565-2.9082,1.3565-2.9082,0,0-1.6973.1582-3.0156,1.2432-.0967-1.6797-1.0967-3.0166-1.0967-3.0166,0,0-1.0879,1.3125-1.252,3.0117-1.2558-1.1191-2.9082-1.3584-2.9082-1.3584,0,0,.1582,1.6973,1.2422,3.0166-1.6797.0957-3.0156,1.0957-3.0156,1.0957,0,0,1.3115,1.0879,3.0117,1.2529-1.1201,1.2559-1.3584,2.9083-1.3584,2.9083,0,0,1.6973-.1583,3.0156-1.2432.0967,1.6797,1.0967,3.0166,1.0967,3.0166,0,0,1.0869-1.3115,1.252-3.0108,1.2578,1.1182,2.9082,1.3565,2.9082,1.3565,0,0-.1582-1.6973-1.2422-3.0147Z"/><path class="cls-30" d="M92.7368,64.79199c-.7563-.3984-1.7519-.2393-2.7085.3184-.1982.1191-.3984.2783-.5971.4375-5.7334,4.4609-13.7774,7.247-22.6182,7.247-15.8306,0-28.937-8.874-31.2876-20.4658v-2.1933c0-.8711-.7061-1.5772-1.5747-1.5772-.8711,0-1.5772.7061-1.5772,1.5772v6.1396c0,.1484.0469.2822.0835.418-1.0537,2.4111-1.6797,4.9697-1.6797,7.6592,0,13.3808,14.1758,24.2509,31.6963,24.2509,14.6929,0,27.0762-7.6445,30.6597-18.039.041-.0391.0796-.1182.0796-.1592.4394-.916.6787-1.8701.6787-2.668.0796-1.3525-.3188-2.4687-1.1548-2.9453Z"/><path class="cls-42" d="M34.3472,58.31059s14.9165,34.3339,55.3481,10.2705c0,0-10.4263,10.8203-24.0151,13.4511-12.2749,2.376-30.5-4.5546-31.333-23.7216Z"/><path class="cls-37" d="M93.8413,66.52249c-.251.5947-1.2192.7558-2.1582.3593-.9394-.3984-1.4971-1.205-1.2466-1.7978.253-.5977,1.2193-.7568,2.1582-.3584.939.3965,1.4991,1.2021,1.2466,1.7969Z"/><path class="cls-18" d="M80.21,81.10449c-2.5298,5.21-6.1597,8.7197-10.6597,8.8897-.8999.0302-1.5801-.5596-2.4399-.6094-.44.0293-.9502.3398-1.44.54-.2602.0996-.52.1797-.75.1699-4.6504-.25-8.6103-3.5205-11.2803-8.9902-3.7197-7.6602-2.5698-15.8896,2.5601-18.3896.73-.3604,1.4199-.6299,2.1001-.8204.8301-.2197,1.6499-.33,2.5498-.2998,1.5801.0303,3.3901.46,5.8301,1.3194.0801.0302.1699.0605.25.0908,4.1699-1.8408,7.5-1.8506,10.73-.29,5.1298,2.5,6.27,10.7294,2.5498,18.3896Z"/><path class="cls-37" d="M67.2866,64.46679c-.3291,0-.6509-.1621-.8418-.459-.0718-.1113-1.7456-2.7578-1.0356-5.5517.4092-1.6114,1.4985-2.9121,3.2383-3.8662.4838-.2666,1.0918-.0889,1.3579.3955.2656.4843.0884,1.0927-.396,1.3584-1.2339.6757-1.9947,1.5527-2.2617,2.6045-.4903,1.9287.7661,3.957.7788,3.9775.2988.4639.1645,1.083-.2998,1.3818-.1675.1075-.355.1592-.5401.1592Z"/><path class="cls-22" d="M77.4795,67.49709c1.5776,1.5898,2.0967,3.6328,1.1597,4.5625-.9375.9306-2.9761.3965-4.5542-1.1924-1.5777-1.5898-2.0972-3.6328-1.1597-4.5635.9375-.9306,2.9766-.3955,4.5542,1.1934Z"/><path class="cls-35" d="M70.1289,55.36039s-5.1851.9297-9.4873-1.5518c-4.3018-2.4824-6.0913-7.4375-6.0913-7.4375,0,0,5.1855-.9297,9.4873,1.5518,4.3018,2.4824,6.0913,7.4375,6.0913,7.4375Z"/><path class="cls-23" d="M165.6274,398.69189c0,6.1934-5.02,11.2149-11.2143,11.2149-6.1929,0-11.2139-5.0215-11.2139-11.2149s5.021-11.2129,11.2139-11.2129c6.1943,0,11.2143,5.0195,11.2143,11.2129Z"/><path class="cls-17" d="M175.3193,368.61769c4.2471-3,6.5699-7.0176,6.5699-7.0176,0,0-4.6529.2754-9.251,2.8399,1.4575-4.1075.1802-7.4356.1802-7.4356,0,0-4.2198,3.1348-6.3965,7.2734-2.1836-2.8144-6.312-3.5019-6.312-3.5019,0,0-1.3125,4.1543.206,7.4434-4.5415.1289-9.1064,2.4824-9.1064,2.4824,0,0,2.3618,2.7422,6.6904,3.2558-4.248,2.9942-6.5684,7.0157-6.5684,7.0157,0,0,4.6548-.2754,9.2554-2.8438-1.4629,4.1094-.1855,7.4395-.1855,7.4395,0,0,4.2226-3.1348,6.4004-7.2754,2.1782,2.8183,6.3076,3.5039,6.3076,3.5039,0,0,1.3154-4.1524-.2075-7.4414,4.5478-.1309,9.1079-2.4883,9.1079-2.4883,0,0-2.3604-2.7402-6.6905-3.25Z"/><path class="cls-2" d="M190.1929,375.67629c5.2802,8.1504,6.6103,24.5312-1.4556,29.7578-8.0684,5.2285-22.477-2.6797-27.7573-10.8281-5.2798-8.1504-3.0215-18.9942,5.0449-24.2227,8.0684-5.2265,18.8892-2.8574,24.168,5.293Z"/><path class="cls-10" d="M179.2788,380.54929c.6914,1.0684.8511,2.1992.3525,2.5196-.497.3222-1.4619-.2813-2.1557-1.3516-.6914-1.0664-.8486-2.1973-.3526-2.5195.4981-.3223,1.4629.2851,2.1558,1.3515Z"/><path class="cls-10" d="M171.1333,376.29349c.6938,1.0683.8506,2.1972.354,2.5175-.498.3243-1.4619-.2812-2.1548-1.3496-.6924-1.0703-.8496-2.1972-.3525-2.5214.4946-.3223,1.4599.2871,2.1533,1.3535Z"/><path class="cls-22" d="M185.9463,376.23099c.6929,1.0683.8506,2.1972.353,2.5175-.4971.3223-1.4609-.2832-2.1533-1.3515-.6943-1.0703-.8501-2.1973-.353-2.5195.4946-.3223,1.4624.2832,2.1533,1.3535Z"/><path class="cls-22" d="M178.0972,372.80319c.6938,1.0703.8501,2.1973.353,2.5196-.4951.3222-1.4609-.2832-2.1538-1.3535-.6939-1.0665-.8511-2.1973-.3526-2.5176.4947-.3223,1.462.2832,2.1534,1.3515Z"/><path class="cls-10" d="M172.6108,384.86959c.6929,1.0684.8506,2.1973.3531,2.5176-.4951.3223-1.4624-.2832-2.1538-1.3515-.6939-1.0664-.8526-2.1954-.3526-2.5196.4976-.3203,1.461.2832,2.1533,1.3535Z"/><path class="cls-10" d="M164.5732,381.56689c.6919,1.0684.8511,2.1973.3531,2.5176-.4961.3242-1.461-.2813-2.1548-1.3516-.6924-1.0683-.8516-2.1953-.3526-2.5176.4971-.3242,1.462.2832,2.1543,1.3516Z"/><path class="cls-10" d="M172.5093,393.81499c.6914,1.0683.8501,2.1953.3515,2.5175-.4961.3243-1.4609-.2832-2.1547-1.3496-.6915-1.0703-.8501-2.1972-.3526-2.5195.4971-.3242,1.4619.2812,2.1558,1.3516Z"/><path class="cls-10" d="M179.3843,397.29929c.6938,1.0723.8525,2.1973.355,2.5215-.4971.3203-1.461-.2851-2.1548-1.3535-.6924-1.0684-.8516-2.1973-.354-2.5176.4985-.3242,1.4633.2793,2.1538,1.3496Z"/><path class="cls-10" d="M179.5356,389.26029c.6924,1.0703.8526,2.1972.3526,2.5195-.4971.3242-1.4619-.2813-2.1533-1.3496-.6934-1.0703-.8496-2.1992-.3531-2.5215.4961-.3203,1.4624.2871,2.1538,1.3516Z"/><path class="cls-10" d="M186.9526,392.39699c.6924,1.0703.8511,2.1973.354,2.5195-.4965.3223-1.4619-.2851-2.1547-1.3535-.691-1.0684-.8511-2.1973-.3526-2.5176.4961-.3242,1.461.2832,2.1533,1.3516Z"/><path class="cls-10" d="M186.3101,399.71729c.6914,1.0664.8501,2.1973.353,2.5195-.4976.3203-1.4624-.2851-2.1548-1.3535-.6914-1.0664-.8501-2.1973-.353-2.5176.4975-.3222,1.4624.2832,2.1548,1.3516Z"/><path class="cls-10" d="M186.9336,384.46729c.6938,1.0703.8506,2.1973.353,2.5215-.497.3203-1.4619-.2852-2.1533-1.3535-.6938-1.0684-.8525-2.1953-.353-2.5196.4951-.3222,1.4624.2832,2.1533,1.3516Z"/><path class="cls-10" d="M164.9146,389.85599c.6938,1.0703.8525,2.1972.3525,2.5195-.4946.3203-1.4609-.2852-2.1524-1.3535-.6933-1.0684-.8515-2.1973-.354-2.5176.4971-.3223,1.4624.2832,2.1539,1.3516Z"/><path class="cls-52" d="M210.79349,396.79349c3.3974,2.4082,7.0532,3.0937,7.0532,3.0937,0,0-1.4512-3.4433-4.6148-6.2363,3.4952.0078,5.666-1.8438,5.666-1.8438,0,0-3.4912-2.3535-7.1977-2.8925,1.5435-2.4004.9639-5.7051.9639-5.7051,0,0-3.4917.1172-5.5718,2.1406-1.3057-3.3965-4.3008-6.2187-4.3008-6.2187,0,0-1.4434,2.5156-.6772,5.9238-3.397-2.4121-7.05029-3.0938-7.05029-3.0938,0,0,1.4502,3.4434,4.61469,6.2364-3.4961-.0118-5.6699,1.8418-5.6699,1.8418,0,0,3.4912,2.3554,7.2016,2.8964-1.5493,2.3965-.9658,5.6993-.9658,5.6993,0,0,3.4888-.1153,5.56841-2.1407,1.30859,3.4024,4.30469,6.2207,4.30469,6.2207,0,0,1.4438-2.5156.6758-5.9218Z"/><path class="cls-15" d="M204.38479,407.49459c-4.6773,4.1172-11.3619,4.168-14.9287.1172-3.5665-4.0527-2.6665-10.6758,2.0122-14.7949,4.6767-4.1152,11.3584-4.168,14.9282-.1152,3.5654,4.0508,2.66451,10.6758-2.0117,14.7929Z"/><path class="cls-5" d="M194.729,392.96339c-1.5522,1.3652-3.9155,1.2148-5.2817-.3379-1.3662-1.5508-1.2144-3.916.3359-5.2812,1.5503-1.3653,3.9141-1.2129,5.2808.3398,1.3647,1.5508,1.2133,3.916-.335,5.2793Z"/><path class="cls-5" d="M189.9268,407.15869c-1.5513,1.3652-3.9151,1.2129-5.2813-.3379-1.3652-1.5488-1.2124-3.914.3384-5.2793,1.5498-1.3652,3.914-1.2148,5.2788.336,1.3628,1.5507,1.2139,3.916-.3359,5.2812Z"/><path class="cls-5" d="M202.01219,391.53759c-1.55219,1.3652-3.9155,1.2149-5.2803-.3359-1.3662-1.5528-1.2158-3.916.336-5.2813,1.5488-1.3652,3.914-1.2129,5.2807.336,1.3648,1.5527,1.2119,3.916-.3364,5.2812Z"/><path class="cls-5" d="M206.95649,397.15679c-1.5527,1.3632-3.9169,1.2109-5.2817-.3399-1.3662-1.5508-1.21479-3.9141.3374-5.2793,1.5483-1.3652,3.9116-1.2129,5.27881.3379,1.36529,1.5488,1.21489,3.916-.33451,5.2813Z"/><path class="cls-5" d="M211.89939,402.77199c-1.5527,1.3672-3.917,1.2148-5.2807-.3379-1.3638-1.5508-1.2149-3.9141.3378-5.2773,1.5494-1.3653,3.9136-1.2149,5.2789.3359,1.3662,1.5508,1.2143,3.9141-.336,5.2793Z"/><path class="cls-5" d="M194.8721,412.77589c-1.5523,1.3652-3.9165,1.2148-5.2827-.3379-1.3653-1.5508-1.2139-3.9141.3374-5.2793,1.5498-1.3652,3.9155-1.2148,5.2817.3359,1.3647,1.5528,1.2119,3.9161-.3364,5.2813Z"/><path class="cls-5" d="M199.67189,398.58059c-1.5528,1.3672-3.9165,1.2148-5.2818-.336-1.3647-1.5507-1.2133-3.916.3389-5.2812,1.5483-1.3633,3.915-1.2129,5.27879.3379,1.3643,1.5508,1.2144,3.916-.3359,5.2793Z"/><path class="cls-5" d="M204.61519,404.19779c-1.5517,1.3652-3.916,1.2148-5.2807-.336-1.3643-1.5508-1.2154-3.914.3374-5.2812,1.5503-1.3633,3.916-1.2129,5.2802.3359,1.3658,1.5528,1.2144,3.916-.3369,5.2813Z"/><path class="cls-5" d="M209.55959,409.81299c-1.5508,1.3672-3.9151,1.2168-5.2813-.334-1.3652-1.5508-1.2148-3.916.3369-5.2812,1.5513-1.3653,3.9156-1.2129,5.28081.3359,1.36469,1.5527,1.21479,3.916-.33641,5.2793Z"/><path class="cls-5" d="M192.3193,400.06889c-1.5517,1.3652-3.916,1.2168-5.2812-.336-1.3662-1.5527-1.2149-3.916.3374-5.2832,1.5508-1.3633,3.915-1.2109,5.2803.3399,1.3662,1.5507,1.2148,3.914-.3365,5.2793Z"/><path class="cls-5" d="M197.2637,405.68599c-1.5513,1.3653-3.9165,1.2149-5.2818-.3359-1.3672-1.5527-1.2143-3.916.3374-5.2812,1.5513-1.3653,3.9121-1.2149,5.2793.3379,1.3662,1.5488,1.2149,3.914-.3349,5.2792Z"/><path class="cls-5" d="M202.20649,411.30319c-1.5512,1.3633-3.914,1.2149-5.2802-.3359-1.3662-1.5527-1.2139-3.916.3374-5.2813,1.5498-1.3652,3.914-1.2148,5.2788.3379,1.3662,1.5508,1.2148,3.9121-.336,5.2793Z"/><path class="cls-22" d="M204.355,402.28759c-.44041.3906-1.11531.3457-1.50591-.0957-.3882-.4453-.34809-1.1191.0952-1.5098.4424-.3886,1.1172-.3437,1.5069.0977.3906.4453.3467,1.1191-.09619,1.5078Z"/><path class="cls-22" d="M197.022,403.79739c-.4429.3906-1.1167.3476-1.5059-.0957-.3906-.4414-.3481-1.1172.0947-1.5059.4429-.3906,1.1177-.3476,1.5074.0957.3891.4434.3466,1.1172-.0962,1.5059Z"/><path class="cls-22" d="M209.30129,407.90679c-.4439.3886-1.1172.3437-1.5069-.0977-.3896-.4434-.3481-1.1172.0948-1.5078.44281-.3887,1.1176-.3457,1.50681.0976.38959.4434.34719,1.1172-.09471,1.5079Z"/><path class="cls-22" d="M199.41209,396.67039c-.4414.3887-1.1162.3477-1.5068-.0957-.3897-.4433-.3467-1.1172.0962-1.5078.4414-.3887,1.1172-.3457,1.5068.0977.3882.4414.34671,1.1172-.0962,1.5058Z"/><path class="cls-22" d="M201.75539,409.55909c-.4405.3906-1.1177.3477-1.5049-.0938-.3906-.4433-.3482-1.1171.0947-1.5078.4429-.3886,1.1177-.3457,1.5064.0957.3906.4414.3462,1.1172-.0962,1.5059Z"/><path class="cls-22" d="M194.7383,391.36179c-.4429.3887-1.1167.3457-1.5059-.0976-.3882-.4414-.3471-1.1172.0962-1.5059.4424-.3906,1.1172-.3457,1.5068.0977.3892.4394.3458,1.1152-.0971,1.5058Z"/><path class="cls-31" d="M176.7725,402.97319c0,6.1933-5.0201,11.2148-11.2149,11.2148-6.1919,0-11.2134-5.0215-11.2134-11.2148s5.0215-11.2129,11.2134-11.2129c6.1948,0,11.2149,5.0195,11.2149,11.2129Z"/><path class="cls-22" d="M172.4219,402.55909c0,1.6973-1.375,3.0742-3.0728,3.0742-1.6977,0-3.0742-1.3769-3.0742-3.0742s1.3765-3.0723,3.0742-3.0723c1.6978,0,3.0728,1.375,3.0728,3.0723Z"/><path class="cls-10" d="M309.54789,411.68799c0,1.3809-5.919,2.5-13.2217,2.5-7.3018,0-13.2207-1.1191-13.2207-2.5s5.9189-2.5,13.2207-2.5c7.3027,0,13.2217,1.1191,13.2217,2.5Z"/><path class="cls-41" d="M302.09859,374.24459c.9043-1.0761,1.4502-2.4648,1.4502-3.9804,0-3.4258-2.7763-6.2012-6.2011-6.2012h-28.84769c-3.42481,0-6.20121,2.7754-6.20121,6.2012,0,1.5156.5459,2.9043,1.44921,3.9804-1.86131,2.5-2.97651,5.5879-2.97651,8.9434v13.5c0,8.2832,6.7148,15,15,15h14.3047c8.2842,0,15-6.7168,15-15v-13.5c0-3.3555-1.1153-6.4434-2.9776-8.9434Z"/><path class="cls-24" d="M262.84379,385.43799v8.6191c0,8.2911,6.7207,15,15,15h10.1601c8.29,0,15-6.7089,15-15v-8.6191h-40.1601Z"/><path class="cls-10" d="M303.001,385.50829c0,1.0645-8.99031,1.9297-20.08011,1.9297-11.0908,0-20.0801-.8652-20.0801-1.9297,0-1.0664,8.9893-1.9316,20.0801-1.9316,11.0898,0,20.08011.8652,20.08011,1.9316Z"/><path class="cls-9" d="M304.43459,370.01609c0,3.5117-2.8457,6.3594-6.3575,6.3594h-30.3134c-3.51169,0-6.3574-2.8477-6.3574-6.3594h0c0-3.5097,2.84571-6.3574,6.3574-6.3574h30.3134c3.5118,0,6.3575,2.8477,6.3575,6.3574h0Z"/><path class="cls-9" d="M305.71479,376.42429c0,1.3789-1.1181,2.4981-2.498,2.4981h-41.0039c-1.38089,0-2.4981-1.1192-2.4981-2.4981h0c0-1.3808,1.11721-2.498,2.4981-2.498h41.0039c1.3799,0,2.498,1.1172,2.498,2.498h0Z"/><path class="cls-22" d="M297.88179,395.99849c0,2.0254-1.6416,3.6661-3.667,3.6661h0c-2.0253,0-3.6669-1.6407-3.6669-3.6661v-7.625c0-2.0253,1.6416-3.6679,3.6669-3.6679h0c2.0254,0,3.667,1.6426,3.667,3.6679v7.625Z"/><path class="cls-21" d="M271.88089,372.63139c0,.5976-.4854,1.0839-1.084,1.0839h0c-.5996,0-1.085-.4863-1.085-1.0839v-2.5293c0-.5996.4854-1.084,1.085-1.084h0c.5986,0,1.084.4844,1.084,1.084v2.5293Z"/><path class="cls-21" d="M284.13279,372.63139c0,.5976-.4863,1.0839-1.0849,1.0839h0c-.5987,0-1.085-.4863-1.085-1.0839v-2.5293c0-.5996.4863-1.084,1.085-1.084h0c.5986,0,1.0849.4844,1.0849,1.084v2.5293Z"/><path class="cls-21" d="M296.38379,372.63139c0,.5976-.4854,1.0839-1.084,1.0839h0c-.5996,0-1.085-.4863-1.085-1.0839v-2.5293c0-.5996.4854-1.084,1.085-1.084h0c.5986,0,1.084.4844,1.084,1.084v2.5293Z"/><path class="cls-18" d="M303.00389,373.51029c0,.6289-.5107,1.1406-1.1406,1.1406h-37.5166c-.6299,0-1.1406-.5117-1.1406-1.1406h0c0-.6309.5107-1.1407,1.1406-1.1407h37.5166c.6299,0,1.1406.5098,1.1406,1.1407h0Z"/><path class="cls-16" d="M286.22849,359.93019c2.6846,2.4941,5.6992,3.6055,6.7363,2.4902,1.03521-1.1152-.29879-4.041-2.9804-6.5312-2.6826-2.4942-5.7012-3.6055-6.7393-2.4903-1.0342,1.1172.2998,4.043,2.9834,6.5313Z"/><path class="cls-16" d="M293.00389,355.76809c-2.4912,2.6836-3.6045,5.6992-2.4902,6.7383,1.1181,1.0332,4.041-.2969,6.5332-2.9805,2.4912-2.6836,3.6074-5.7012,2.4892-6.7402-1.1152-1.0352-4.04.3007-6.5322,2.9824Z"/><path class="cls-30" d="M287.251,361.28569h8.36519c.6221,0,1.2031.1621,1.7022.4589.999.5938,1.6748,1.6758,1.6748,2.918,0,.9492-.377,1.7871-.9854,2.3926-.206.2012-.4346.3808-.6894.5293-.4991.2949-1.0801.4609-1.7022.4609h-8.36519c-1.86431,0-3.37991-1.5019-3.37991-3.3828,0-.9297.37891-1.7832.9873-2.3887.623-.6113,1.459-.9882,2.39261-.9882Z"/><rect class="cls-45" x="288.65819" y="361.29349" width="1.9209" height="6.7558"/><rect class="cls-45" x="292.01459" y="361.29349" width="1.919" height="6.7558"/><path class="cls-45" d="M295.38379,361.28569h.2324c.6221,0,1.2031.1621,1.7022.4589v5.8399c-.4991.2949-1.0801.4609-1.7022.4609h-.2324v-6.7597Z"/><path class="cls-8" d="M406.35349,381.18209v25.3614h-53.7197v-10.2813c.5098.1309,1.0693.2012,1.6396.2012,2.7305,0,4.9502-1.5918,4.9502-3.5508,0-1.9707-2.2197-3.5605-4.9502-3.5605-.5703,0-1.1298.0703-1.6396.2011v-8.3711h53.7197Z"/><path class="cls-42" d="M352.63669,381.18409l31.2168-11.0508s18.5.9238,22.5,11.0508h-53.7168Z"/><path class="cls-49" d="M373.52049,389.26419c0,2.3926-1.9404,4.332-4.333,4.332-2.3936,0-4.334-1.9394-4.334-4.332,0-2.3946,1.9404-4.334,4.334-4.334,2.3926,0,4.333,1.9394,4.333,4.334Z"/><path class="cls-49" d="M385.18749,394.64889c0,.9922-.8047,1.7969-1.7979,1.7969-.9931,0-1.7978-.8047-1.7978-1.7969,0-.9941.8047-1.7988,1.7978-1.7988.9932,0,1.7979.8047,1.7979,1.7988Z"/><path class="cls-49" d="M375.18749,401.15479c0,1.2441-1.0078,2.252-2.251,2.252-1.2431,0-2.251-1.0079-2.251-2.252,0-1.2422,1.0079-2.25,2.251-2.25,1.2432,0,2.251,1.0078,2.251,2.25Z"/><circle class="cls-49" cx="396.35349" cy="389.45169" r="4.5"/><circle class="cls-49" cx="395.35349" cy="401.51419" r="3.5"/><path class="cls-49" d="M361.18259,402.11569c0,1.0801-.875,1.9571-1.956,1.9571-1.0801,0-1.9561-.877-1.9561-1.9571,0-1.08.876-1.955,1.9561-1.955,1.081,0,1.956.875,1.956,1.955Z"/><path class="cls-50" d="M379.19239,400.85399v9.6094c0,2.5332,7.2607,4.5879,16.2168,4.5879s16.21581-2.0547,16.21581-4.5879v-9.6094h-32.43261Z"/><path class="cls-9" d="M411.625,400.85399c0,2.5352-7.25981,4.5879-16.21581,4.5879s-16.2168-2.0527-16.2168-4.5879c0-2.5332,7.2607-4.5879,16.2168-4.5879s16.21581,2.0547,16.21581,4.5879Z"/><path class="cls-30" d="M408.875,380.03369c-.75981,2.1895,0,0-.68951,1.9609-3,8.4493-5.3603,14.7403-7.02049,18.8594h-1.42961c1.2792-4.2402,3.4101-10.7793,6.3994-19.5703.6699-1.9687-.0909.2305.6699-1.9687l2.07031.7187Z"/><path class="cls-27" d="M428.17379,378.56299c-2.9863,8.627-12.3994,13.1973-21.0244,10.2129-8.624-2.9863-13.1953-12.3984-10.209-21.0234,2.9854-8.625,12.3965-13.1973,21.0225-10.211,8.624,2.9863,13.1973,12.3985,10.2109,21.0215Z"/><path class="cls-22" d="M406.10549,367.39699l-.4307,1.2207-1.2393-.4297,1.4493-4.1816.5107.1718.43951-1.2714-3.04011-1.0489-.4394,1.2696.5293.1796-1.4493,4.1895-.5302-.1895-.4405,1.2793,5.3907,1.8711.8691-2.5-1.6191-.5605Z"/><path class="cls-22" d="M413.01459,364.84819c-1.9892-.6914-3.8798.2597-4.59959,2.3398-.83,2.4102.20019,4.0801,2.21979,4.7695,2.1699.75,3.8506-.1504,4.6006-2.33.75-2.17.13961-3.961-2.2208-4.7793ZM412.82519,368.79739c-.41019,1.1894-1.0606,1.8594-1.6699,1.6504-.6201-.2207-.7901-1.17-.3604-2.4297.4199-1.2012,1.1104-1.9102,1.7002-1.6914.7403.25.7403,1.3008.3301,2.4707Z"/><path class="cls-22" d="M423.67479,368.73679l-.4297,1.2598.5303.1816-.8301,1.3496c-.2305.3692-.7402,1.3204-.9307,1.7403l-.0498-.0215c.12021-.5.2901-1.3184.37021-1.9902l.31049-2.8692-2-.6894-1.23049,2c-.50971.8398-1.19041,1.9492-1.29981,2.2187l-.0498-.0195c.05961-.2988.2901-1.5.34961-2l.24029-1.4902.5498.1914.4404-1.25-3.1807-1.1016-.4296,1.25.54.1914-.6299,5.9199,2.2295.7696,1.3906-2.1094c.17-.25.5-.8203.6397-1.0899l.04.0098c-.0596.3086-.1504.9199-.1797,1.2793l-.2099,2.4902,2.2793.7891,3.33-4.9785.5303.1797.4404-1.25-2.7607-.961Z"/><path class="cls-22" d="M407.06539,374.57669l.7393-2.1289-5.7598-1.9903-.4394,1.2696.5898.2109-1.4404,4.168-.5996-.1992-.4405,1.2792,3.5801,1.2403.4405-1.2793-.9805-.3399.4306-1.2304,1.8291.6406.4405-1.2793-1.83009-.6309.58009-1.6796,1.4502.5-.2901.8593,1.7002.5899Z"/><path class="cls-22" d="M413.165,380.42629l.19049-6.0586-3.7002-1.2813-.4307,1.2403.40041.1406-2.76951,3.7793-.6504-.2305-.4405,1.2715,3.0606,1.0586.4394-1.2695-.75-.2598.4307-.5801,1.96971.6797-.01951.7305-.9209-.3203-.4394,1.2597,3.8701,1.3399.42971-1.2598-.67-.2402ZM410.96479,377.63719l-1.2695-.4297,1.3496-1.8711-.0801,2.3008Z"/><path class="cls-22" d="M416.02539,375.29739l-.8701,2.5,1.4199.4902.4297-1.2305.83011.2891-1.45021,4.1797-.7901-.2793-.4492,1.2812,3.5899,1.25.4394-1.291-.79979-.2695,1.45019-4.1797.8096.2793-.4297,1.2305,1.41991.4902.87009-2.5117-6.4697-2.2285Z"/><path class="cls-7" d="M80.3818,364.12549c-.0205-3.8809-2.8711-7.9258-5.7402-11.9277-2.1504-2.9844-2.4805-7.4356-2.5-9.5059h.2598c1.2402,0,2.2402-.8633,2.2402-1.9238v-1.6817c0-1.0703-1-1.9316-2.2402-1.9316h-14.0996c-1.2398,0-2.2398.8613-2.2398,1.9316v1.6817c0,1.0605,1,1.9238,2.2398,1.9238h.2602c-.02,2.0703-.3501,6.5215-2.5,9.5059-2.8701,4.0019-5.7202,8.0468-5.7402,11.9277,0,.0273.0102.0605.0102.0859,0,.0274-.0102.043-.0102.0606v39.6777c0,3.4863,5.6079,7.1797,14.9995,7.1934h.0605c9.3916-.0137,15-3.7071,15-7.1934v-39.6777c0-.0176-.0107-.0332-.0107-.0606,0-.0254.0107-.0586.0107-.0859Z"/><path class="cls-40" d="M53.4863,364.80709v39.2012c0,2.3223,5.3262,4.2031,11.896,4.2031s11.896-1.8808,11.896-4.2031v-39.2012h-23.792Z"/><path class="cls-16" d="M77.2783,364.80709c0,1.1329-5.3262,2.0528-11.896,2.0528s-11.896-.9199-11.896-2.0528c0-1.1347,5.3262-2.0527,11.896-2.0527s11.896.918,11.896,2.0527Z"/><rect class="cls-40" x="55.9087" y="337.15479" width="18.7529" height="6.2656" rx="2" ry="2"/><rect class="cls-22" x="65.5776" y="345.30709" width="4.4283" height="14.8477" rx="2" ry="2"/><rect class="cls-22" x="70.1602" y="369.85209" width="4.7885" height="29.9746" rx="2" ry="2"/><path class="cls-16" d="M69.0718,392.09029c0,1.0196-.8262,1.8457-1.8452,1.8457-1.0191,0-1.8448-.8261-1.8448-1.8457,0-1.0175.8257-1.8437,1.8448-1.8437,1.019,0,1.8452.8262,1.8452,1.8437Z"/><path class="cls-16" d="M67.1299,382.60599c0,1.0195-.8262,1.8457-1.8452,1.8457-1.0191,0-1.8448-.8262-1.8448-1.8457,0-1.0196.8257-1.8457,1.8448-1.8457,1.019,0,1.8452.8261,1.8452,1.8457Z"/><path class="cls-16" d="M61.3701,370.71529c0,1.0196-.8262,1.8457-1.8452,1.8457s-1.8447-.8261-1.8447-1.8457c0-1.0195.8257-1.8457,1.8447-1.8457s1.8452.8262,1.8452,1.8457Z"/><path class="cls-16" d="M69.6367,372.56099c0,1.0196-.8262,1.8458-1.8452,1.8458s-1.8447-.8262-1.8447-1.8458c0-1.0195.8257-1.8457,1.8447-1.8457s1.8452.8262,1.8452,1.8457Z"/><path class="cls-16" d="M70.9165,404.01609c0,1.0196-.8262,1.8457-1.8452,1.8457-1.0191,0-1.8447-.8261-1.8447-1.8457,0-1.0195.8256-1.8457,1.8447-1.8457,1.019,0,1.8452.8262,1.8452,1.8457Z"/><path class="cls-16" d="M65.3818,400.58059c0,1.0195-.8261,1.8457-1.8452,1.8457-1.019,0-1.8447-.8262-1.8447-1.8457,0-1.0196.8257-1.8457,1.8447-1.8457,1.0191,0,1.8452.8261,1.8452,1.8457Z"/><path class="cls-16" d="M34.7773,377.61769l2,31.1543c0,1.334,4.1475,4.416,11.7305,4.416s11.7305-3.082,11.7305-4.416l2-31.1543h-27.461Z"/><path class="cls-7" d="M62.2383,377.61769c0,1.334-6.1475,2.416-13.7305,2.416s-13.7305-1.082-13.7305-2.416c0-1.3359,6.1475-2.418,13.7305-2.418s13.7305,1.0821,13.7305,2.418Z"/><path class="cls-16" d="M60.9648,377.47899c0,.9961-5.8061,1.8047-12.3584,1.8047-6.5527,0-12.5791-.8086-12.5791-1.8047,0-.998,6.0264-1.8066,12.5791-1.8066,6.5523,0,12.3584.8086,12.3584,1.8066Z"/><path class="cls-26" d="M37.4673,386.01999l1.0117,21.375c0,2.2442,4.3306,4.0567,10.1265,4.0567,5.7954,0,9.9311-1.8125,9.9311-4.0567l1-21.375h-22.0693Z"/><path class="cls-40" d="M59.5249,386.39499c0,1.0899-5.1357,1.9707-10.9311,1.9707-5.7959,0-11.1265-.8808-11.1265-1.9707,0-1.0898,5.3306-1.9726,11.1265-1.9726,5.7954,0,10.9311.8828,10.9311,1.9726Z"/><rect class="cls-22" x="51.272" y="392.09229" width="4.4282" height="14.8457" rx="2" ry="2"/><path class="cls-16" d="M44.2275,391.63529c0,1.0195-.8261,1.8457-1.8452,1.8457-1.019,0-1.8447-.8262-1.8447-1.8457,0-1.0196.8257-1.8457,1.8447-1.8457,1.0191,0,1.8452.8261,1.8452,1.8457Z"/><path class="cls-16" d="M49.7275,396.20169c0,1.0195-.8261,1.8457-1.8452,1.8457-1.019,0-1.8447-.8262-1.8447-1.8457,0-1.0196.8257-1.8457,1.8447-1.8457,1.0191,0,1.8452.8261,1.8452,1.8457Z"/><path class="cls-16" d="M43.561,400.58059c0,1.0195-.8261,1.8457-1.8452,1.8457-1.019,0-1.8447-.8262-1.8447-1.8457,0-1.0196.8257-1.8457,1.8447-1.8457,1.0191,0,1.8452.8261,1.8452,1.8457Z"/><path class="cls-16" d="M47.8828,405.85989c0,1.0195-.8262,1.8457-1.8452,1.8457s-1.8447-.8262-1.8447-1.8457c0-1.0176.8257-1.8438,1.8447-1.8438s1.8452.8262,1.8452,1.8438Z"/><path class="cls-29" d="M206.95459,280.10989c0-7.9942-5.2149-14.7617-12.4248-17.1094v-19.1855c1.0537-.7051,1.749-1.9043,1.749-3.2676,0-2.168-1.7588-3.9278-3.9277-3.9278h-6.7901c-2.1689,0-3.9267,1.7598-3.9267,3.9278,0,1.3633.6943,2.5625,1.748,3.2676v19.1875c-7.209,2.3476-12.4248,9.1132-12.4248,17.1074,0,6.2383,3.1758,11.7324,7.9971,14.9629-.1104.2656-.1719.5547-.1719.8613,0,1.2461,1.0098,2.2559,2.2559,2.2559h15.8349c1.2461,0,2.2569-1.0098,2.2569-2.2559,0-.3066-.0625-.5957-.1719-.8613,4.8203-3.2305,7.9961-8.7246,7.9961-14.9629Z"/><path class="cls-11" d="M188.0669,231.80319h2.7842c1.10438,0,2.001.89662,2.001,2.001v5.6358c0,1.10383-.89617,2-2,2h-2.7852c-1.10383,0-2-.89617-2-2v-5.6368c0-1.10383.89617-2,2-2Z"/><path class="cls-48" d="M203.75149,280.14889c0,8.17-6.6192,14.8008-14.7998,14.8008-8.17,0-14.7998-6.6308-14.7998-14.8008,0-2.6894.7207-5.2089,1.9902-7.3886h25.6299c1.25969,2.1797,1.97949,4.6992,1.97949,7.3886Z"/><path class="cls-22" d="M192.5806,262.54149c0,1.002-.8125,1.8145-1.8145,1.8145h0c-1.0019,0-1.8144-.8125-1.8144-1.8145v-14.8769c0-1.002.8125-1.8145,1.8144-1.8145h0c1.002,0,1.8145.8125,1.8145,1.8145v14.8769Z"/><rect class="cls-22" x="192.6812" y="275.10399" width="9.1425" height="5.9903" rx="2" ry="2"/><path class="cls-27" d="M201.772,272.76029c0,.6484-5.7373,1.1718-12.8145,1.1718s-12.8154-.5234-12.8154-1.1718c0-.6485,5.7383-1.1719,12.8154-1.1719s12.8145.5234,12.8145,1.1719Z"/><path class="cls-36" d="M184.7271,297.69579v.75c-1.7403,0-3.3799.0801-4.92.2402-.6396.0586-1.2705.129-1.8799.2188-5.2001.7305-9.1503,2.2305-11.9296,3.6602-.4805.25-.92.4902-1.3301.7304-.5703.3399-1.0801.6602-1.5108.9492-1.4599.9903-2.1796,1.711-2.2002,1.7305l-.7197-.6894c.1397-.1407,1.7197-1.7305,4.9102-3.4297,2.5097-1.3496,6.0205-2.7696,10.6103-3.6211,1.2198-.2285,2.5196-.4199,3.8994-.5489.3702-.041.75-.0703,1.1299-.0898.961-.0801,1.961-.1309,2.9903-.1406h.0195c.2705-.0098.5508-.0098.831-.0098.0391.0899.0694.1699.0997.25Z"/><path class="cls-28" d="M165.2847,301.82859c1.5976,1.6035.8281,4.959-1.7159,7.4903-2.5439,2.5332-5.9023,3.2832-7.499,1.6796-1.5976-1.6054-.8301-4.9609,1.7149-7.4921,2.5439-2.5313,5.9023-3.2852,7.5-1.6778Z"/><path class="cls-36" d="M174.2778,305.94579l-.8974-.4414c1.9394-3.9414,3.8086-5.9844,4.9414-6.9609-8.5781-1.0274-8.7754-1.1075-8.8516-1.1387l.1856-.4629.1347-.4805c.3946.0899,6.1446.7891,9.9121,1.2383l1.6426.1973-1.4765.7461c-.0245.0117-2.7178,1.4629-5.5909,7.3027Z"/><path class="cls-28" d="M170.1958,297.25049c-.5088,2.207-3.7568,3.3418-7.2549,2.5371-3.498-.8066-5.9219-3.25-5.4131-5.4551.5088-2.207,3.7569-3.3418,7.2549-2.5371,3.4981.8067,5.9209,3.25,5.4131,5.4551Z"/><path class="cls-28" d="M174.6753,302.67819c2.1475.7168,2.9668,4.0586,1.8281,7.4629-1.1367,3.4043-3.8008,5.5821-5.9472,4.8672-2.1485-.7187-2.9668-4.0605-1.8301-7.4668,1.1377-3.4023,3.8017-5.582,5.9492-4.8633Z"/><path class="cls-22" d="M176.5044,307.26029c-.3047.7578-1.167,1.125-1.9248.8203s-1.125-1.166-.8203-1.9238c.3047-.7579,1.166-1.125,1.9238-.8204.7578.3047,1.127,1.1661.8213,1.9239Z"/><path class="cls-22" d="M165.9097,305.31499c-.3047.7578-1.166,1.125-1.9239.8203-.7587-.3047-1.1269-1.166-.8212-1.9239.3046-.7597,1.166-1.1269,1.9248-.8222.7578.3047,1.125,1.166.8203,1.9258Z"/><path class="cls-22" d="M169.4556,297.43999c-.3047.7597-1.167,1.1269-1.9248.8222-.7579-.3047-1.125-1.166-.8204-1.9258.3047-.7578,1.1661-1.125,1.9239-.8203s1.1269,1.166.8213,1.9239Z"/><path class="cls-17" d="M167.0171,292.75049c-9.3555-4.4141-15.874-10.252-15.874-10.252,0,0,8.6504,1.3204,18.0058,5.7344,9.3565,4.416,15.8731,10.252,15.8731,10.252,0,0-8.6494-1.3184-18.0049-5.7344Z"/><path class="cls-12" d="M185.0171,298.47509c-.0205-.0098-.04-.0293-.0703-.0605-.0498-.0293-.1201-.0899-.2197-.1582-.21-.1817-.5303-.4512-.9502-.8008-.0293-.0293-.0606-.0508-.0899-.0801-.04-.0391-.0801-.0801-.1299-.1094-1.8603-1.6406-5.2002-4.8105-8.2402-9.0097-4.5205-6.2618-6.6807-12.42-6.6807-12.42,0,0,5.1807,3.9786,9.7012,10.2286,3.4102,4.7109,5.4795,9.371,6.29,11.3808.0391.0899.0694.1699.0997.25.1796.4492.2792.7188.29.7793Z"/><path class="cls-47" d="M190.4941,64.42379c-.0068,6.1446-4.997,11.1202-11.1416,11.1114l-7.914-.0088c-6.1455-.0078-11.1221-4.9971-11.1143-11.1416,0,0-1.8525-4.7715.0166-13.1074,1.8692-8.334,14.8565-14.8204,14.8565-14.8204,0,0,13.7783,5.6319,15.3144,14.8594,1.5362,9.2276-.0176,13.1074-.0176,13.1074Z"/><path class="cls-39" d="M168.5107,45.71679s1.7735-2.208,2.5079.0029c.7353,2.2149-1.334,5.3086,1.3193,6.7891,2.6533,1.4775,2.9482,1.3291,2.9287,16.8174,0,0,1.1758,3.2461-3.3984,3.5361-4.5723.2881-6.9297-1.9248-5.8916-5.6113,1.0361-3.6865-2.3594-1.9209-2.9434-5.4639-.5859-3.54,2.3643-3.5361,3.1055-6.1894.7402-2.6553-3.9766-4.8721-2.2041-7.2315,1.7734-2.3564,2.8008,2.6572,4.5761-2.6494Z"/><path class="cls-39" d="M182.3545,45.73439s-1.7666-2.2129-2.5068-.002c-.7403,2.211,1.3203,5.3106-1.336,6.7823-2.6582,1.4716-2.9531,1.3232-2.9726,16.8115,0,0-1.1836,3.2441,3.3886,3.5449,4.5723.3008,6.9346-1.9072,5.9082-5.5967-1.0273-3.6885,2.3614-1.914,2.9561-5.4551.5947-3.54-2.3545-3.5419-3.0899-6.1982-.7333-2.6572,3.9903-4.8613,2.2217-7.2246-1.7656-2.3633-2.8056,2.6514-4.5693-2.6621Z"/><path class="cls-25" d="M170.4814,54.62499s.8858-1.1045,1.253.002c.3662,1.1045-.666,2.6484.6572,3.3857,1.3262.7412,1.4727.666,1.4629,8.4004,0,0,.5869,1.6201-1.6963,1.7656-2.2822.1426-3.46-.9619-2.9434-2.8056.5196-1.8389-1.1757-.958-1.4677-2.7266-.292-1.7676,1.1806-1.7656,1.5508-3.0889.3701-1.3261-1.9864-2.4345-1.0997-3.6093.8848-1.1778,1.3965,1.3251,2.2832-1.3233Z"/><path class="cls-25" d="M181.3506,54.63769s-.8828-1.1045-1.252,0c-.3701,1.1045.6592,2.6514-.666,3.3838-1.3281.7363-1.4746.6641-1.4853,8.3955,0,0-.5909,1.6201,1.6923,1.7705,2.2823.1504,3.462-.9541,2.9483-2.7949-.5108-1.8438,1.1797-.9561,1.4775-2.7246.2979-1.7656-1.1767-1.7696-1.5429-3.0957-.3662-1.3252,1.9921-2.4258,1.1103-3.6045-.8838-1.1817-1.4014,1.3232-2.2822-1.3301Z"/><path class="cls-25" d="M178.7061,46.35349c-.004,3.3467-1.4737,6.0586-3.2832,6.0557-1.8067-.0039-3.2696-2.7178-3.2657-6.0625.0049-3.3477,3.2832-6.0547,3.2832-6.0547,0,0,3.2696,2.7158,3.2657,6.0615Z"/><path class="cls-36" d="M159.5811,70.76559c6.8378,2.0069,11.58,6.3789,10.5839,9.7666-.9912,3.3868-7.3427,4.5039-14.1816,2.4971-6.8418-2.0068-11.5811-6.3789-10.5879-9.7666.9941-3.3867,7.3447-4.5039,14.1856-2.4971Z"/><path class="cls-41" d="M162.9561,66.87699c8.3886,2.4619,13.7929,9.2129,12.0722,15.08-1.7226,5.8672-9.917,8.628-18.3066,6.168-3.2149-.9453-11.4365-6.6103-12.2637-11.3818l15.3809.7578-13.4756-7.5342c3.2334-3.6719,13.376-4.0332,16.5928-3.0898Z"/><path class="cls-41" d="M174.0674,84.02339c-2.8379,4.4112-10.0205,6.2481-17.3467,4.1036-3.2119-.9453-11.4404-6.6104-12.2646-11.3838l15.3447.7578,12.1445,5.2578c.7686.3408,1.4844.7598,2.1221,1.2646Z"/><path class="cls-22" d="M169.8643,74.02929c-.4571.9815-2.5967.9541-4.7813-.0605-2.1855-1.0137-3.5869-2.6319-3.1318-3.6133.457-.9844,2.5967-.9561,4.7812.0576,2.1856,1.0146,3.5869,2.6318,3.1319,3.6162Z"/><path class="cls-44" d="M191.5039,86.68749c-3.0137,1.3584-6.4043.7119-8.6973-1.3682-.8056-.7265-1.4863-1.6328-1.958-2.6816l-1.3798-3.0674c-.4795-1.0615-.7012-2.1592-.709-3.2422-.0196-3.0898,1.7441-6.0566,4.7461-7.4082,3.583-1.6132,7.4462-.7002,10.4228.5938,2.9522,1.3076,5.0332,3.0205,5.0332,3.0205,0,0,.0576,10.7695-7.458,14.1533Z"/><path class="cls-47" d="M198.96389,72.70799c-.0332,1.3858-.50689,10.8457-7.459,13.9795-3.0137,1.3535-6.4004.7158-8.7012-1.375-.8017-.7148-1.4853-1.6279-1.958-2.6719l-.833-1.8632c.6592-.5606,18.9512-8.0694,18.9512-8.0694Z"/><path class="cls-25" d="M174.0674,84.02339c-2.8379,4.4112-10.0205,6.2481-17.3467,4.1036-3.2119-.9453-11.4404-6.6104-12.2646-11.3838l15.3447.7578,12.1445,5.2578c.7686.3408,1.4844.7598,2.1221,1.2646Z"/><path class="cls-39" d="M182.8066,85.31929c-.8056-.7265-1.4863-1.6328-1.958-2.6816l-1.3798-3.0674c-.4795-1.0615-.7012-2.1592-.709-3.2422.664-.1572,1.372-.1074,1.9892.127.8272.3135,1.5244.9404,1.919,1.8174l1.2734,2.8291c.6875,1.5283.1729,3.292-1.1348,4.2177Z"/><path class="cls-4" d="M318.75489,277.61959v9.4317c0,3.959-3.207,7.164-7.1641,7.164h-44.7871c-3.959,0-7.1641-3.205-7.1641-7.164v-9.4317h59.1153Z"/><path class="cls-2" d="M318.75489,277.61959c0,.5743-.0645,1.125-.1934,1.6602-.7461,3.1562-3.5879,5.5039-6.9707,5.5039h-44.7871c-3.959,0-7.1641-3.2051-7.1641-7.1641,0-1.9746.8008-3.7734,2.0958-5.0683,1.2968-1.2949,3.0859-2.0957,5.0683-2.0957h44.7871c3.5371,0,6.4688,2.5566,7.0586,5.9258.0645.4043.1055.8164.1055,1.2382Z"/><path class="cls-22" d="M276.63959,277.51219c0,1.1074-2.1738,2.002-4.8574,2.002-2.6816,0-4.8574-.8946-4.8574-2.002,0-1.1054,2.1758-2,4.8574-2,2.6836,0,4.8574.8946,4.8574,2Z"/><path class="cls-23" d="M318.75489,277.61959v1.6602h-23.2598c-.8008,0-1.4492-.6484-1.4492-1.4492,0-.0723.0078-.1465.0254-.211.0976-.705.6953-1.2382,1.4238-1.2382h23.1543c.0645.4043.1055.8164.1055,1.2382Z"/><path class="cls-46" d="M293.69429,286.96139l-1.5175-1.5722-3.5625-3.6856c-1.0274-1.0625-2.7051-1.082-3.7657-.0644l-.39059.3769-2.60551,2.5196c-3.3632,2.9824-7.9316,6.5644-11.041,6.5644-5.64649,0-10.6054-2.8906-13.4648-7.25.31831-.7578.6367-1.8242.8808-3.0254.4883-2.4121.4903-4.4472.002-4.5469-.4883-.0996-1.2793,1.7774-1.76949,4.1895-.09381.4629-.16411.9043-.22271,1.3301-.0586-.4258-.1289-.8672-.2246-1.3321-.4883-2.4121-1.2813-4.2871-1.7715-4.1875-.4863.0997-.4863,2.1368.0059,4.5469.3886,1.918.9687,3.4903,1.4375,4.0078.06441,8.7207,8.1718,15.7793,18.1699,15.7793,7.5781,0,17.60351-4.9023,20.332-10.6738.0039-.0059.0039-.0137.0059-.0195.4433-.9688.2832-2.1426-.4981-2.9571Z"/><path class="cls-14" d="M261.70209,294.96529c-.1933.3692-.6484.5118-1.0175.3165h0c-.3692-.1915-.5117-.6485-.3164-1.0176l2.3711-4.5176c.1933-.3691.6484-.5098,1.0175-.3184h0c.36921.1934.5098.6504.3164,1.0196l-2.3711,4.5175Z"/><path class="cls-14" d="M269.26269,297.87159c0,.4121-.332.7461-.7441.7461h0c-.4122,0-.7461-.334-.7461-.7461v-6.3125c0-.4121.3339-.7461.7461-.7461h0c.4121,0,.7441.334.7441.7461v6.3125Z"/><path class="cls-14" d="M276.56539,298.32079c.10161.3945-.1367.7949-.5312.8965h0c-.3946.0996-.7949-.1387-.8946-.5313l-1.9199-7.5117c-.0996-.3945.1367-.7949.53131-.8945h0c.39449-.1016.79489.1367.89649.5293l1.9179,7.5117Z"/><path class="cls-14" d="M284.23339,294.83639c.2461.375.14061.877-.23239,1.1211h0c-.375.2461-.877.1407-1.12111-.2324l-4.7324-7.2246c-.2461-.373-.1407-.875.2324-1.1211h0c.375-.2441.8769-.1387,1.12111.2344l4.73239,7.2226Z"/><path class="cls-14" d="M289.49709,290.41459c.2441.375.1406.8769-.2344,1.1211h0c-.375.2461-.877.1406-1.1211-.2325l-4.7324-7.2246c-.2461-.373-.1406-.875.2344-1.1211h0c.373-.2441.875-.1386,1.1191.2344l4.7344,7.2227Z"/><path class="cls-22" d="M288.76859,277.83059c0,.4004-.1739.7246-.3887.7246h-14.6953c-.2149,0-.3887-.3242-.3887-.7246h0c0-.4004.1738-.7246.3887-.7246h14.6953c.2148,0,.3887.3242.3887.7246h0Z"/><path class="cls-18" d="M85.5176,293.41849c0,2.9179-2.3672,5.2851-5.2862,5.2851h-42.4589c-2.919,0-5.2862-2.3672-5.2862-5.2851h0c0-2.918,2.3672-5.2852,5.2862-5.2852h42.4589c2.919,0,5.2862,2.3672,5.2862,5.2852h0Z"/><path class="cls-13" d="M85.5176,290.22709c0,2.9179-2.3672,5.2851-5.2862,5.2851h-42.4589c-2.919,0-5.2862-2.3672-5.2862-5.2851h0c0-2.918,2.3672-5.2852,5.2862-5.2852h42.4589c2.919,0,5.2862,2.3672,5.2862,5.2852h0Z"/><path class="cls-22" d="M40.3545,290.17819c.0137-1.3222,1.0996-2.3808,2.4199-2.3652l3.5293.043c1.3223.0136,2.3799,1.0976,2.3652,2.4199h0c-.0166,1.3223-1.1005,2.3809-2.4228,2.3652l-3.5273-.0429c-1.3223-.0137-2.3809-1.0977-2.3643-2.42h0Z"/><path class="cls-49" d="M100.6748,261.54739c0,4.9472-4.2344,8.957-9.458,8.957-5.2227,0-9.457-4.0098-9.457-8.957s4.2343-8.959,9.457-8.959c5.2236,0,9.458,4.0117,9.458,8.959Z"/><path class="cls-30" d="M113.9258,251.95749l.7187-1.8379c.5078-1.2988-.1338-2.7656-1.4326-3.2734-1.2998-.5098-2.7666.1328-3.2754,1.4316l-1.2754,3.2598-12.1865,5.332c-1.2617.5528-1.8379,2.0235-1.2851,3.2852.5517,1.2617,2.0224,1.8359,3.2841,1.2852l12.1866-5.3321,3.2597,1.2754c1.2998.5078,2.7666-.1328,3.2744-1.4336.5088-1.2988-.1328-2.7656-1.4326-3.2734l-1.8359-.7188Z"/><ellipse class="cls-34" cx="76.67382" cy="273.22901" rx="28.39062" ry="17.78517"/><path class="cls-49" d="M99.5645,276.57469c0,4.9473-4.2344,8.959-9.4581,8.959-5.2226,0-9.457-4.0117-9.457-8.959s4.2344-8.957,9.457-8.957c5.2237,0,9.4581,4.0098,9.4581,8.957Z"/><path class="cls-30" d="M112.8154,266.98489l.7188-1.836c.5078-1.3007-.1338-2.7656-1.4326-3.2754-1.2998-.5078-2.7666.1329-3.2754,1.4336l-1.2754,3.2598-12.1865,5.3301c-1.2618.5527-1.8379,2.0234-1.2852,3.2851.5518,1.2637,2.0225,1.8379,3.2842,1.2852l12.1865-5.3301,3.2598,1.2735c1.2998.5097,2.7666-.1329,3.2744-1.4317.5088-1.2988-.1328-2.7656-1.4326-3.2754l-1.836-.7187Z"/><path class="cls-46" d="M114.0938,292.52199c0,5.7988-4.7012,10.5-10.5,10.5h-13.8038c-5.7988,0-10.5-4.7012-10.5-10.5h0c0-5.7988,4.7012-10.5,10.5-10.5h13.8038c5.7988,0,10.5,4.7012,10.5,10.5h0Z"/><circle class="cls-3" cx="105.6924" cy="292.52199" r="10.3945"/><path class="cls-46" d="M111.0645,289.83639c0,1.4825-1.2022,2.6856-2.6856,2.6856-1.4844,0-2.6865-1.2031-2.6865-2.6856,0-1.4843,1.2021-2.6875,2.6865-2.6875,1.4834,0,2.6856,1.2032,2.6856,2.6875Z"/><circle class="cls-46" cx="104.6924" cy="297.18999" r="1"/><path class="cls-46" d="M102.666,291.82279c0,1.0976-.8896,1.9882-1.9883,1.9882-1.0976,0-1.9873-.8906-1.9873-1.9882,0-1.0977.8897-1.9864,1.9873-1.9864,1.0987,0,1.9883.8887,1.9883,1.9864Z"/><path class="cls-46" d="M111.1924,297.59619c0,.7773-.6299,1.4082-1.4072,1.4082-.7764,0-1.4063-.6309-1.4063-1.4082s.6299-1.4062,1.4063-1.4062c.7773,0,1.4072.6289,1.4072,1.4062Z"/><path class="cls-30" d="M51.1289,290.35399h-1.8096c-1.0703-3.6914-2.3398-8.2597-3.8203-13.6816-.54-2.0098-1.1201-4.1387-1.7197-6.3789l2.1504-.5703c.5898,2.25,1.1494,4.3808,1.6699,6.3906,1.46,5.6699,2.6299,10.4199,3.5293,14.2402Z"/><path class="cls-27" d="M58.2773,256.19779c2.3487,8.8222-2.8984,17.875-11.7177,20.2246-8.8194,2.3476-17.8731-2.8985-20.2217-11.7188-2.3486-8.8183,2.8965-17.873,11.7168-20.2207,8.8193-2.3496,17.875,2.8965,20.2226,11.7149Z"/><path class="cls-22" d="M35.3896,258.84429l-1.6601.4394.3398,1.25-1.2705.3398-1.1396-4.2792.5205-.1407-.3506-1.3008-3.1094.8301.3496,1.3008.5401-.1406,1.1396,4.2695-.54.1504.3506,1.3105,5.5097-1.4707-.6797-2.5585Z"/><path class="cls-22" d="M42.5488,256.02389c-.5898-2.2109-2.0996-3.3613-4.5097-2.7207-2.0401.5411-3.0694,2.3907-2.5,4.5196.6601,2.4609,2.4404,3.2597,4.5,2.7109,2.2304-.5898,3.1103-2.2812,2.5097-4.5098ZM39.6289,258.98289c-.6299.1699-1.3096-.5195-1.6592-1.8105-.3203-1.2188-.1406-2.1992.4698-2.3496.75-.1993,1.33.6699,1.6494,1.8613.33,1.2187.1601,2.1387-.46,2.2988Z"/><path class="cls-22" d="M52.2197,251.10399l-.3506-1.2812-2.8095.75.3398,1.2812.5401-.1504.0595,1.5899c.0303.4394.1299,1.5097.21,1.959l-.0498.0117c-.1797-.4805-.5-1.2617-.8096-1.8614l-1.3506-2.5488-2.04.5391.0898,2.3496c.0508.9902.1201,2.291.1709,2.5703l-.0508.0098c-.1201-.2793-.5996-1.4102-.83-1.8496l-.6397-1.3692.5703-.1504-.3398-1.2812-3.25.8613.3398,1.2793.5498-.1504,2.7998,5.2598,2.2803-.6094-.0303-2.5195c0-.3008-.04-.961-.08-1.2598l.04-.0098c.1299.2891.3906.8399.5703,1.1485l1.21,2.1914,2.3398-.6211-.0303-6,.5508-.1387Z"/><path class="cls-22" d="M37.4092,265.89309l-1.8701.5-.4502-1.709,1.4804-.4004.2403.8789,1.7392-.4687-.5791-2.17-5.8906,1.5704.3506,1.2988.6094-.1602,1.1298,4.2696-.5996.1601.3399,1.3106,3.6699-.9707-.3496-1.3184-1.0098.2695-.3301-1.25,1.8702-.5-.3506-1.3105Z"/><path class="cls-22" d="M47.5693,265.95359l-.6904.1895-3.2295-5.1289-3.79,1,.3398,1.2695.4102-.0996-.1797,4.6699-.6699.1797.3398,1.2891,3.1299-.8301-.3399-1.2891-.7705.1992.0303-.7187,2.0195-.541.3799.6094-.9297.25.3399,1.3007,3.9502-1.0605-.3399-1.2891ZM42.1992,265.40279l.0703-2.2988,1.2198,1.959-1.2901.3398Z"/><path class="cls-22" d="M52.1992,264.70359l-1.1396-4.2695.83-.2305.3301,1.2696,1.4492-.3907-.6796-2.5586-6.6104,1.7598.6807,2.5606,1.4502-.3907-.3409-1.2597.8506-.2207,1.1397,4.2695-.8096.2207.3496,1.3105,3.6699-.9804-.3496-1.3106-.8203.2207Z"/><path class="cls-18" d="M210.75389,170.64059c0,15.6377-14.6475,19.7344-32.7012,19.7344-18.0625,0-32.7089-4.0967-32.7089-19.7344,0-3.2851,14.6464-5.9463,32.7089-5.9463,18.0537,0,32.7012,2.6612,32.7012,5.9463Z"/><path class="cls-20" d="M210.75389,170.26369c0,3.2851-14.6475,5.9443-32.7012,5.9443-18.0625,0-32.7089-2.6592-32.7089-5.9443,0-3.2861,14.6464-5.9463,32.7089-5.9463,18.0537,0,32.7012,2.6602,32.7012,5.9463Z"/><path class="cls-22" d="M209.34079,170.26269c0,2.7383-13.9892,4.9541-31.2344,4.9541-17.2529,0-31.2412-2.2158-31.2412-4.9541s13.9883-4.9551,31.2412-4.9551c17.2452,0,31.2344,2.2168,31.2344,4.9551Z"/><path class="cls-22" d="M205.15529,172.74419c-5.4092,1.4755-15.4971,2.4687-27.0479,2.4687-11.5625,0-21.6601-.9932-27.0586-2.4687,5.3985-1.4854,15.4961-2.4795,27.0586-2.4795,11.5508,0,21.6387.9941,27.0479,2.4795Z"/><path class="cls-42" d="M205.15529,172.74419c-5.4092,1.4755-15.4971,2.4687-27.0479,2.4687-11.5625,0-21.6601-.9932-27.0586-2.4687,5.3985-1.4854,15.4961-2.4795,27.0586-2.4795,11.5508,0,21.6387.9941,27.0479,2.4795Z"/><path class="cls-9" d="M199.34769,152.29879l-19.4512,21.0948h-3.7666c.0732-.3243.251-.67.5127-.9532l19.5137-22.9775c.6386-.7217,2.0097-.5439,2.5117-.1045l.48139.4287c.1465.126.2725.335.3662.5762.2403.5859.2832,1.4228-.1679,1.9355Z"/><path class="cls-4" d="M199.51559,150.36329c-.041.2617-.1465.5019-.3242.7012l-20.5713,22.3291h-2.4902c.0732-.3243.251-.67.5127-.9532l19.5137-22.9775c.6386-.7217,2.0097-.5439,2.5117-.1045l.48139.4287c.1465.126.2725.335.3662.5762Z"/><path class="cls-19" d="M172.7344,173.39839h-8.5489l1.9454-3.3369c.4609-.7851,1.4765-1.0576,2.2607-.5976l3.5674,2.083c.6592.3857.9531,1.1504.7754,1.8515Z"/><path class="cls-49" d="M191.333,173.02929h-6.833c0-1.8935,1.5283-3.4219,3.4219-3.4219,1.8838,0,3.4111,1.5284,3.4111,3.4219Z"/><path class="cls-49" d="M163.4063,173.02929h-4.2803c0-1.1865.958-2.1426,2.1435-2.1426,1.1797,0,2.1368.9561,2.1368,2.1426Z"/><path class="cls-7" d="M302.85839,144.14839c-.0215-3.8808-2.8711-7.9267-5.7402-11.9287-2.1504-2.9843-2.4805-7.4355-2.5-9.5048h.2597c1.2403,0,2.2403-.8633,2.2403-1.9239v-1.6816c0-1.0693-1-1.9326-2.2403-1.9326h-14.1006c-1.2392,0-2.2392.8633-2.2392,1.9326v1.6816c0,1.0606,1,1.9239,2.2392,1.9239h.2608c-.0205,2.0693-.3506,6.5205-2.5,9.5048-2.87009,4.002-5.7197,8.0479-5.7402,11.9287,0,.0264.0107.0606.0107.086,0,.0264-.0107.043-.0107.0605v39.6778c0,3.4853,5.6084,7.1797,15,7.1924v.0009c.0097,0,.0195-.0009.0292-.0009.0108,0,.0206.0009.0313.0009v-.0009c9.39061-.0127,15-3.7071,15-7.1924v-39.6778c0-.0175-.0117-.0341-.0117-.0605,0-.0254.0117-.0596.0117-.086Z"/><path class="cls-10" d="M275.96289,144.82909v39.2022c0,2.3213,5.3262,4.2021,11.8955,4.2021,6.5703,0,11.8965-1.8808,11.8965-4.2021v-39.2022h-23.792Z"/><path class="cls-32" d="M299.75489,144.82909c0,1.1338-5.3262,2.0527-11.8965,2.0527-6.5693,0-11.8955-.9189-11.8955-2.0527s5.3262-2.0527,11.8955-2.0527c6.5703,0,11.8965.9189,11.8965,2.0527Z"/><rect class="cls-6" x="278.38479" y="117.17679" width="18.7529" height="6.2656" rx="2" ry="2"/><rect class="cls-22" x="288.05369" y="125.33009" width="4.4277" height="14.8467" rx="2" ry="2"/><rect class="cls-22" x="292.48139" y="149.45799" width="4.7891" height="29.9737" rx="2" ry="2"/><path class="cls-16" d="M257.25389,157.63969l2,31.1543c0,1.3339,4.1465,4.416,11.7305,4.416,7.582,0,11.7304-3.0821,11.7304-4.416l1.9991-31.1543h-27.46Z"/><path class="cls-7" d="M284.71389,157.63969c0,1.3339-6.1475,2.416-13.7295,2.416-7.584,0-13.7305-1.0821-13.7305-2.416,0-1.335,6.1465-2.417,13.7305-2.417,7.582,0,13.7295,1.082,13.7295,2.417Z"/><path class="cls-16" d="M283.44039,157.50099c0,.9971-5.8056,1.8047-12.35839,1.8047s-12.57811-.8076-12.57811-1.8047c0-.9981,6.0254-1.8057,12.57811-1.8057s12.35839.8076,12.35839,1.8057Z"/><path class="cls-24" d="M259.94339,166.04199l1.0117,21.376c0,2.2431,4.3301,4.0566,10.12691,4.0566,5.795,0,9.93069-1.8135,9.93069-4.0566l1-21.376h-22.0693Z"/><path class="cls-10" d="M282.001,166.41699c0,1.0898-5.13581,1.9717-10.93071,1.9717-5.7969,0-11.1269-.8819-11.1269-1.9717s5.33-1.9717,11.1269-1.9717c5.7949,0,10.93071.8819,10.93071,1.9717Z"/><rect class="cls-22" x="273.748" y="171.33399" width="4.42779" height="14.8477" rx="2" ry="2"/><circle class="cls-6" cx="290.97752" cy="182.84861" r="11.52638" transform="translate(46.44734 424.31605) rotate(-76.78395)"/><path class="cls-6" d="M304.00779,182.85059c0,6.3135-5.1191,11.4316-11.4316,11.4316-6.3135,0-11.4326-5.1181-11.4326-11.4316,0-6.3145,5.1191-11.4326,11.4326-11.4326,6.3125,0,11.4316,5.1181,11.4316,11.4326Z"/><path class="cls-32" d="M302.48139,182.84859c0,.1426,0,.2862-.0136.4288-.0967,2.416-1.0645,4.6035-2.584,6.2666-.2012.207-.4024.415-.6172.6035-1.6611,1.5254-3.84959,2.4931-6.2588,2.5908-.1435.0127-.2861.0127-.4287.0127-.1494,0-.292,0-.4346-.0127-2.4091-.1035-4.5976-1.0654-6.2597-2.5908-.2139-.1885-.416-.3965-.6172-.6035-1.51859-1.6631-2.4863-3.8506-2.584-6.2666-.0127-.1426-.0127-.2862-.0127-.4288,0-.1425,0-.2851.0127-.4287.0977-2.4082,1.06541-4.5966,2.5908-6.2588.1944-.2148.3965-.415.6104-.6103,1.6621-1.5264,3.8506-2.4863,6.2597-2.5908.1426-.0127.2852-.0127.4346-.0127.1426,0,.2852,0,.4287.0127,2.40921.0967,4.5977,1.0644,6.2588,2.5908.2148.1953.416.3955.6113.6103,1.5254,1.6622,2.4932,3.8506,2.5899,6.2588.0136.1436.0136.2862.0136.4287Z"/><path class="cls-10" d="M302.46779,183.27739h-8.8496l6.2656,6.2666c-.2012.207-.4024.415-.6172.6035l-6.2588-6.2588v8.8496c-.1435.0127-.2861.0127-.4287.0127-.1494,0-.292,0-.4346-.0127v-8.8496l-6.2597,6.2588c-.2139-.1885-.416-.3965-.6172-.6035l6.2656-6.2666h-8.8496c-.0127-.1426-.0127-.2862-.0127-.4288,0-.1425,0-.2851.0127-.4287h8.8496l-6.2588-6.2588c.1944-.2148.3965-.415.6104-.6103l6.2597,6.2598v-8.8506c.1426-.0127.2852-.0127.4346-.0127.1426,0,.2852,0,.4287.0127v8.8506l6.2588-6.2598c.2148.1953.416.3955.6113.6103l-6.2597,6.2588h8.8496c.0136.1436.0136.2862.0136.4287,0,.1426,0,.2862-.0136.4288Z"/><path class="cls-19" d="M295.98439,177.12309c-.44139.8593-1.6045,1.1406-1.6045,1.1406,0,0-.4483-1.1104-.00689-1.9688.44239-.8584,1.16019-1.3701,1.60549-1.1406.4453.2285.4483,1.1104.0059,1.9688Z"/><path class="cls-19" d="M299.00979,181.28609c-.9219.2881-1.9385-.3437-1.9385-.3437,0,0,.4766-1.0977,1.3984-1.3857.9219-.2872,1.7901-.1338,1.9395.3437.1484.4785-.4776,1.0986-1.3994,1.3857Z"/><path class="cls-19" d="M298.24119,186.20309c-.8555-.4472-1.1279-1.6132-1.1279-1.6132,0,0,1.1133-.4395,1.96871.0087.85549.4483,1.36039,1.1719,1.12889,1.6153-.2334.4424-1.1142.4385-1.9697-.0108Z"/><path class="cls-19" d="M294.17189,189.25199c-.2881-.9209.3427-1.9395.3427-1.9395,0,0,1.0997.4766,1.3877,1.3984.2872.9219.1329,1.7901-.3437,1.9405-.4785.1484-1.09859-.4776-1.3867-1.3994Z"/><path class="cls-19" d="M289.33789,188.57519c.4209-.8682,1.57711-1.1768,1.57711-1.1768,0,0,.47459,1.0987.05279,1.9678-.4229.8692-1.1309,1.3955-1.5811,1.1778-.4492-.2188-.47169-1.1006-.0488-1.9688Z"/><path class="cls-19" d="M286.123,184.38769c.919-.293,1.93949.333,1.93949.333,0,0-.4697,1.1016-1.3906,1.3936-.92089.2929-1.7891.1425-1.9424-.334-.1514-.4766.4726-1.0996,1.39351-1.3926Z"/><path class="cls-19" d="M286.73629,179.52439c.8731.4121,1.1924,1.5645,1.1924,1.5645,0,0-1.09469.4863-1.9668.0722-.874-.413-1.4062-1.1152-1.1953-1.5683.2158-.4512,1.0957-.4815,1.9697-.0684Z"/><path class="cls-19" d="M290.875,176.33989c.332.9062-.25,1.9511-.25,1.9511,0,0-1.12011-.4218-1.45121-1.3291-.332-.9082-.2187-1.7822.25-1.956.4698-.17,1.11821.4258,1.45121,1.334Z"/><path class="cls-49" d="M408.84469,189.38089l-9.9961,2.1386-18.8818-2.1386c-3.2334,0-5.8652-2.6319-5.8652-5.8662v-22.1631c-2.584-.6123-4.5127-2.9395-4.5127-5.7071v-2.0312c0-1.4141-7.4864-2.4873-6.6485-3.502,0,0,10.6944-2.3642,12.5147-2.3632h37.9023c3.2344,0,5.8653,2.6308,5.8653,5.8652v2.0312c0,2.7676-1.9278,5.0948-4.5118,5.7071v22.1631c0,3.2343-2.6318,5.8662-5.8662,5.8662Z"/><path class="cls-30" d="M402.45019,152.19339h-37.9014c-2.4922,0-4.5127,2.0195-4.5127,4.5117v2.0312c0,2.4913,2.0205,4.5118,4.5127,4.5118v23.3584c0,2.4921,2.0196,4.5127,4.5117,4.5127h28.878c2.4922,0,4.5117-2.0206,4.5117-4.5127v-23.3584c2.4922,0,4.5127-2.0205,4.5127-4.5118v-2.0312c0-2.4922-2.0205-4.5117-4.5127-4.5117Z"/><path class="cls-49" d="M397.93849,191.51949h-28.878c-3.2343,0-5.8662-2.6328-5.8662-5.8671v-22.1622c-2.583-.6123-4.5117-2.9394-4.5117-5.708v-2.0302c0-3.2344,2.6319-5.8653,5.8662-5.8653h37.9014c3.2344,0,5.8662,2.6309,5.8662,5.8653v2.0302c0,2.7686-1.9287,5.0957-4.5127,5.708v22.1622c0,3.2343-2.6308,5.8671-5.8652,5.8671ZM364.54879,152.59379c-1.7422,0-3.1592,1.416-3.1592,3.1582v2.0302c0,1.7412,1.417,3.1592,3.1592,3.1592.7471,0,1.3535.6055,1.3535,1.3535v23.3575c0,1.7421,1.417,3.1591,3.1582,3.1591h28.878c1.7412,0,3.1582-1.417,3.1582-3.1591v-23.3575c0-.748.6064-1.3535,1.3535-1.3535,1.7412,0,3.1582-1.418,3.1582-3.1592v-2.0302c0-1.7422-1.417-3.1582-3.1582-3.1582h-37.9014Z"/><path class="cls-8" d="M375.46679,166.61519c1.0947,1.25,1.5508,2.6407,1.0195,3.1055-.5312.4649-1.8486-.1719-2.94329-1.4219-1.09481-1.249-1.55181-2.6386-1.01961-3.1045.5313-.4658,1.8487.1709,2.9434,1.4209Z"/><path class="cls-42" d="M388.52249,170.45309c-1.02349,1.461-2.377,2.2784-3.02349,1.8243-.64551-.4512-.34081-2.003.68169-3.4639,1.0234-1.46,2.3769-2.2783,3.0234-1.8252s.3418,2.0039-.6816,3.4648Z"/><path class="cls-42" d="M372.22749,159.01759c-1.5947.7969-3.1738.8711-3.5273.1641-.3525-.7051.6553-1.9239,2.251-2.7208,1.5957-.7968,3.17481-.8701,3.5273-.164.3526.707-.6543,1.9248-2.251,2.7207Z"/><path class="cls-42" d="M398.126,157.08009c.82219,1.582.92189,3.1601.22069,3.5244-.6992.3643-1.9336-.624-2.7569-2.2061-.8222-1.582-.92179-3.1601-.2226-3.5234.7012-.3652,1.9355.6231,2.75881,2.2051Z"/><path class="cls-42" d="M381.07809,161.36519c.8213,1.5811.92091,3.1592.2207,3.5235-.7002.3652-1.9345-.6231-2.75779-2.2051-.82221-1.582-.92191-3.1602-.22171-3.5244.7002-.3643,1.9356.623,2.7588,2.206Z"/><path class="cls-42" d="M381.09859,173.93749c.7705,1.6084.81841,3.1895.1055,3.5303-.7119.3408-1.91309-.6865-2.6826-2.2959-.77049-1.6074-.8184-3.1885-.1074-3.5293.71291-.3408,1.914.6865,2.6845,2.2949Z"/><path class="cls-42" d="M395.88089,175.04879c-1.7471.3555-3.2911.0157-3.4483-.7587-.1562-.7725,1.1319-1.6875,2.8799-2.042,1.748-.3555,3.293-.0157,3.4492.7578.1572.7744-1.1318,1.6884-2.8808,2.0429Z"/><path class="cls-42" d="M372.585,186.48049c-1.74811.3545-3.292.0156-3.44831-.7598-.1572-.7724,1.1309-1.6875,2.8799-2.041,1.7471-.3555,3.292-.0156,3.4492.7568.1563.7744-1.13279,1.6885-2.88079,2.044Z"/><path class="cls-42" d="M394.49509,186.44919c-1.7099-.5058-2.914-1.5293-2.6894-2.2871.2236-.7558,1.79-.959,3.5009-.4531,1.71.5059,2.9151,1.5303,2.69141,2.2871-.22461.7578-1.79191.9609-3.50291.4531Z"/><path class="cls-8" d="M372.19919,176.82809c1.5733.8536,2.5772,2.0479,2.2403,2.67-.336.6201-1.8848.4316-3.46-.4219-1.5732-.8535-2.5772-2.0488-2.2402-2.669.3359-.622,1.88471-.4326,3.4599.4209Z"/><path class="cls-8" d="M387.41019,179.70699c-.6387-1.6718-.6231-3.2324.0371-3.4843.6601-.252,1.7129.8994,2.3515,2.5722.6387,1.6719.6231,3.2325-.0371,3.4844-.6601.2529-1.7109-.8984-2.3515-2.5723Z"/><path class="cls-8" d="M388.52439,162.53519c-.7139,1.6406-1.81739,2.7441-2.4658,2.4629-.6475-.2813-.5928-1.8409.1211-3.4834.7139-1.6416,1.8164-2.7452,2.4648-2.4639.64851.2822.5938,1.8408-.1201,3.4844Z"/><path class="cls-8" d="M380.58889,180.90039c1.2236-1.3066,2.6338-1.9746,3.1494-1.4922.5156.4834-.0596,1.9336-1.2852,3.2402-1.2236,1.3067-2.6338,1.9747-3.1494,1.4922-.5156-.4843.0596-1.9336,1.2852-3.2402Z"/><path class="cls-42" d="M379.95509,194.23439c-1.74809.3555-3.292.0156-3.4483-.7588-.1572-.7725,1.1309-1.6865,2.8799-2.042,1.7471-.3545,3.292-.0156,3.4492.7578.1563.7744-1.1328,1.6895-2.8808,2.043Z"/><path class="cls-42" d="M365.06449,192.91989c-1.7471.3545-3.2911.0157-3.4483-.7597-.15619-.7725,1.13181-1.6875,2.8799-2.041,1.748-.3555,3.293-.0157,3.4492.7568.1572.7744-1.1318,1.6885-2.8808,2.0439Z"/><path class="cls-49" d="M371.74019,192.55569c-1.7089-.5059-2.914-1.5293-2.6894-2.2881.2236-.7559,1.791-.959,3.501-.4522,1.7099.5059,2.916,1.5303,2.6914,2.2862-.2246.7578-1.792.9609-3.503.4541Z"/><path class="cls-8" d="M374.33789,190.31059c1.2236-1.3067,2.6338-1.9747,3.1494-1.4913s-.0596,1.9327-1.2852,3.2403c-1.2236,1.3066-2.6337,1.9746-3.1494,1.4912-.5156-.4824.0596-1.9326,1.2852-3.2402Z"/><path class="cls-21" d="M52.5952,165.45999c.2178.8916-.1059,1.7363-.7241,1.8877l-.5952.1455c-.6177.1513-1.2954-.4492-1.5137-1.3408l-7.395-27.836c-.2183-.8916.6655-1.873,1.2832-2.0244l.5952-.1455c.6182-.1514,1.855.3125,2.0732,1.2041l6.2764,28.1094Z"/><path class="cls-21" d="M69.708,166.74609c-.6079.6875-1.4863.9023-1.9634.4815l-.4585-.4073c-.4765-.4209-.3696-1.3193.2378-2.0068l18.6548-21.9453c.6079-.6865,1.9185-.5205,2.395-.0987l.4585.4063c.4766.4219.8008,1.7021.1929,2.3887l-19.5171,21.1816Z"/><path class="cls-43" d="M93.418,166.30959c0,14.9453-13.9981,21.0654-31.252,21.0654-17.2627,0-31.2607-6.1201-31.2607-21.0654,0-3.1397,13.998-5.6817,31.2607-5.6817,17.2539,0,31.252,2.542,31.252,5.6817Z"/><path class="cls-29" d="M93.418,165.94919c0,3.1397-13.9981,5.6817-31.252,5.6817-17.2627,0-31.2607-2.542-31.2607-5.6817,0-3.1406,13.998-5.6826,31.2607-5.6826,17.2539,0,31.252,2.542,31.252,5.6826Z"/><path class="cls-43" d="M92.0679,165.94829c0,2.6171-13.3697,4.7353-29.8506,4.7353-16.4883,0-29.8579-2.1182-29.8579-4.7353,0-2.6163,13.3696-4.7344,29.8579-4.7344,16.4809,0,29.8506,2.1181,29.8506,4.7344Z"/><path class="cls-12" d="M56.6206,170.59769c-.3799,0-.7598-.0205-1.1401-.0303-.3799-.0195-.7598-.0303-1.1397-.0498-1.1103-.0498-2.2002-.0996-3.25-.1699-.27-.0205-.54-.0401-.81-.0498-.48-.0401-.9502-.0703-1.42-.1104-6.2299-.5-11.2202-1.3301-14.02-2.3398-.75-.9004-1.4302-1.8106-2.02-2.7305-3.3003-5.0801-4.0801-10.2197-1.5303-12.8701,3.4302-3.5498,11.5303-1.2891,18.1104,5.0508,1.0996,1.0595,2.0898,2.1699,2.9599,3.2998.2198.2802.4297.5703.6299.8496,1.3501,1.9101,2.3501,3.8506,2.96,5.6806.1802.5401.3198,1.0694.4302,1.5899.1396.6494.2197,1.2793.2397,1.8799Z"/><path class="cls-29" d="M51.0908,170.34769c-.27-.0205-.54-.0401-.81-.0498-.48-.0401-.9502-.0703-1.42-.1104-.5-.4795-1.02-.9697-1.54-1.4697-2.3403-2.25-4.46-4.3701-6.1602-6.1299-2.58-2.6807-4.1699-4.5107-4-4.6807.1802-.1894,2.3799,1.6104,5.5303,4.46,1.6699,1.5107,3.6099,3.3203,5.6499,5.29.6397.6202,1.27,1.2305,1.8696,1.8301.3003.2901.5904.5801.8804.8604Z"/><path class="cls-18" d="M62.1616,165.91599c-4.2412,2.9356-10.0669,1.876-13.0029-2.3662-2.936-4.2412-1.8765-10.0674,2.3657-13.0029l10.6372,15.3691Z"/><path class="cls-13" d="M60.7041,164.90429c-3.5181,2.4356-8.3496,1.5557-10.7842-1.9619-2.4394-3.5254-1.561-8.3565,1.9575-10.791.1709-.1182.3462-.2295.5264-.334l8.7988,12.7119c-.1611.1318-.3276.2568-.4985.375Z"/><path class="cls-18" d="M53.3662,158.98149c-.6045.1005-1.1284-.0342-1.1724-.2979-.0429-.2646.4107-.5586,1.0147-.6582.6035-.0986,1.1284.0342,1.1714.2988.0439.2637-.4097.5586-1.0137.6573Z"/><path class="cls-18" d="M56.2827,162.40239c-.2607.5546-.667.9111-.9097.7978-.2417-.1143-.2285-.6553.0318-1.21.2598-.5527.666-.9101.9087-.7968.2427.1142.2285.6543-.0308,1.209Z"/><path class="cls-18" d="M58.9258,162.37889c.1953.5801.1499,1.1201-.104,1.2061-.2539.0849-.6182-.3145-.8155-.8946-.1953-.5791-.1494-1.1191.1041-1.205.2548-.085.6191.3144.8154.8935Z"/><path class="cls-18" d="M53.9185,155.13969c.4633.4004.6977.8886.5234,1.0918-.1753.2021-.6929.0429-1.1572-.3575-.4624-.3984-.6968-.8867-.5225-1.0898.1753-.2031.6924-.043,1.1563.3555Z"/><path class="cls-18" d="M59.7451,154.75879c2.2935-4.6201,7.9058-6.5088,12.5264-4.2148,4.6201,2.2939,6.5088,7.9062,4.2148,12.5263l-16.7412-8.3115Z"/><path class="cls-13" d="M61.5098,154.93949c1.9023-3.8321,6.5576-5.3975,10.3891-3.4952,3.8394,1.9063,5.4058,6.5596,3.5025,10.3926-.0928.1856-.1919.3682-.2993.5469l-13.8477-6.875c.0776-.1934.1631-.3838.2554-.5693Z"/><path class="cls-18" d="M70.7969,156.57719c.4804-.3799,1.0039-.5157,1.1699-.3067.1655.211-.0894.6885-.5698,1.0674-.481.3789-1.0044.5156-1.1699.3057-.1666-.211.0888-.6875.5698-1.0664Z"/><path class="cls-18" d="M66.5898,154.99219c-.0395-.6113.1436-1.1201.4107-1.1377.2671-.0166.5166.4629.5571,1.0742.0401.6094-.143,1.1192-.4101,1.1367-.2676.0176-.5171-.4619-.5577-1.0732Z"/><path class="cls-18" d="M64.2876,156.29009c-.4517-.4131-.6729-.9073-.4922-1.1055.1812-.1973.6929-.0235,1.146.3887.4512.413.6719.9072.4917,1.1044-.1816.1983-.6934.0245-1.1455-.3876Z"/><path class="cls-18" d="M72.1704,160.20699c-.5991-.1269-1.0405-.4404-.9858-.7021.0556-.2617.5859-.3731,1.185-.2471.5977.126,1.0391.4395.9844.7012-.0552.2627-.5845.373-1.1836.248Z"/><path class="cls-17" d="M66.1709,158.38769c.0098.7998-.0601,1.6299-.2105,2.5v.0098c-.0097.1201-.0297.2304-.0498.3496-.04.2207-.08.4404-.1401.6601-.1099.5606-.2598,1.1299-.4497,1.71-.0903.3105-.1899.6104-.3101.9199-.25.6905-.54,1.3809-.8701,2.0703-.1299.2705-.2597.5303-.4101.7901-.2198.4297-.4497.8398-.6997,1.2304-.4502.7393-.9302,1.4297-1.44,2.0596-1.6899-.0098-3.3501-.0303-4.9702-.0898-.3799,0-.7598-.0205-1.1401-.0303-.3799-.0195-.7598-.0303-1.1397-.0498-1.1103-.0498-2.2002-.0996-3.25-.1699-.27-.0205-.54-.0401-.81-.0498-.0303-.2608-.0503-.5303-.0704-.8106-.1098-2.3301.4605-5.1494,1.7203-7.9795.0898-.2099.1899-.4306.29-.6406.04-.0898.0898-.1797.1401-.2695,2.9497-5.9405,7.8999-9.4698,11.1397-7.9102,1.4502.7002,2.3203,2.2998,2.5903,4.4004.0498.4092.0698.8496.0801,1.2998Z"/><path class="cls-12" d="M59.8105,161.23729c-.77,1.8301-1.8999,4.3106-3.1997,7.0205-.0703.1602-.1504.3096-.2299.46-.3003.6396-.6001,1.25-.9004,1.8496-.3799-.0195-.7598-.0303-1.1397-.0498.3999-.8701.8301-1.79,1.2901-2.7305.1098-.2197.2099-.4394.3198-.6592,1.1001-2.2802,2.1499-4.3203,2.98-5.8906,1.0698-1.9697,1.81-3.1797,1.9502-3.1094.1396.0694-.2803,1.25-1.0704,3.1094Z"/><path class="cls-36" d="M75.9009,163.91799c0,.2998-.02.5996-.0601.8896-.0102.1299-.0303.2598-.06.3799-.1602.9697-.5303,1.8701-1.0401,2.6699-.2402.3702-.5102.7198-.8198,1.0401-.5703.6201-1.2603,1.1504-2.0303,1.5302-1.9497.1094-3.9897.1895-6.1001.2295-1.0698-.4492-2.02-1.1494-2.7597-2.0293-1.0801-1.2705-1.7203-2.9199-1.7203-4.7099,0-.9502.1802-1.8604.5201-2.7002.7602-1.9199,2.3203-3.4307,4.2602-4.1299.7798-.3008,1.6299-.46,2.5098-.46,3.2602,0,6.0303,2.1397,6.9502,5.0899h.0097c.19.6094.3101,1.25.3204,1.9199.02.0899.02.1797.02.2803Z"/><path class="cls-1" d="M74.6172,163.88669c0,3.3213-2.6924,6.0137-6.0137,6.0137s-6.0132-2.6924-6.0132-6.0137,2.6919-6.0136,6.0132-6.0136,6.0137,2.6923,6.0137,6.0136Z"/><path class="cls-22" d="M69.0669,160.64259c0,.6885-.2075,1.2461-.4629,1.2461-.2559,0-.4634-.5576-.4634-1.2461,0-.6875.2075-1.2461.4634-1.2461.2554,0,.4629.5586.4629,1.2461Z"/><path class="cls-29" d="M69.0669,160.64259c0,.6885-.2075,1.2461-.4629,1.2461-.2559,0-.4634-.5576-.4634-1.2461,0-.6875.2075-1.2461.4634-1.2461.2554,0,.4629.5586.4629,1.2461Z"/><path class="cls-29" d="M68.0908,167.61039c-.0615-.6856.0947-1.2608.3496-1.2832.2549-.0225.5113.5146.5728,1.2002.0615.6845-.0947,1.2597-.3496,1.2822-.2549.0224-.5113-.5137-.5728-1.1992Z"/><path class="cls-29" d="M65.1113,163.60839c.688,0,1.2461.208,1.2461.4639,0,.2549-.5581.4629-1.2461.4629s-1.2461-.208-1.2461-.4629c0-.2559.5581-.4639,1.2461-.4639Z"/><path class="cls-29" d="M72.0786,164.58499c-.6855.0615-1.2598-.0948-1.2827-.3496-.0225-.2549.5146-.5118,1.1997-.5733s1.2603.0947,1.2827.3496c.023.2549-.5141.5117-1.1997.5733Z"/><path class="cls-29" d="M66.4746,161.30669c.4868.4863.7344,1.0273.5537,1.2089-.1802.1807-.7221-.0673-1.2085-.5537-.4863-.4863-.7344-1.0273-.5532-1.209.1802-.1806.7217.0674,1.208.5538Z"/><path class="cls-29" d="M70.7114,166.92289c-.5283-.4405-.8242-.9571-.6596-1.1534.1635-.1962.7246.002,1.2534.4424.5278.4405.8237.958.6596,1.1543-.164.1963-.7251-.0019-1.2534-.4433Z"/><path class="cls-29" d="M65.8467,166.20119c.4868-.4863,1.0278-.7334,1.209-.5528.1811.1797-.0674.7217-.5533,1.209-.4868.4854-1.0278.7344-1.2089.5528-.1807-.1807.0673-.7217.5532-1.209Z"/><path class="cls-29" d="M71.4634,161.96489c-.4405.5283-.9575.8242-1.1538.6601s.0024-.7246.4428-1.2539c.4405-.5273.958-.8232,1.1548-.6592.1963.1641-.0024.7256-.4438,1.253Z"/><path class="cls-33" d="M57.023,165.15819h2.3252c.55296,0,1.0019.44894,1.0019,1.0019v2.5645c0,.55302-.44898,1.002-1.002,1.002h-2.3251c-.55274,0-1.0015-.44876-1.0015-1.0015v-2.5654c0-.55274.44876-1.0015,1.0015-1.0015Z"/><rect class="cls-33" x="44.14113" y="163.40848" width="4.32852" height="4.56981" rx="1.00159" ry="1.00159" transform="translate(-89.67323 60.29746) rotate(-36.60724)"/><path class="cls-17" d="M94.8384,155.89649c-2.4351,1.9209-5.835,1.6709-5.835,1.6709,0,0,.5508-3.3633,2.9868-5.2832,2.4356-1.9209,5.834-1.6709,5.834-1.6709,0,0-.5503,3.3623-2.9858,5.2832Z"/><path class="cls-38" d="M94.8403,155.89839c-2.4365,1.9209-5.8374,1.668-5.8374,1.668l8.8213-6.9551s-.5483,3.3663-2.9839,5.2871Z"/><path class="cls-17" d="M87.4922,155.64649c-.3633,3.0801-2.9439,5.3076-2.9439,5.3076,0,0-1.9892-2.7676-1.6245-5.8476.3638-3.0801,2.9439-5.3077,2.9439-5.3077,0,0,1.9892,2.7676,1.6245,5.8477Z"/><path class="cls-38" d="M87.4946,155.64649c-.3637,3.0811-2.9472,5.3066-2.9472,5.3066l1.3188-11.1552s1.9927,2.7685,1.6284,5.8486Z"/><path class="cls-12" d="M90.6206,159.61519c-3.0796-.3652-5.8477,1.6231-5.8477,1.6231,0,0,2.2266,2.581,5.3067,2.9453,3.0806.3652,5.8476-1.623,5.8476-1.623,0,0-2.226-2.5801-5.3066-2.9454Z"/><path class="cls-17" d="M90.6216,159.61329c-3.0806-.3652-5.8487,1.626-5.8487,1.626l11.1548,1.3222s-2.2256-2.583-5.3061-2.9482Z"/><path class="cls-17" d="M80.9917,160.77149c-.3638,3.0791-2.9438,5.3066-2.9438,5.3066,0,0-1.9893-2.7675-1.6246-5.8476.3643-3.0801,2.9439-5.3067,2.9439-5.3067,0,0,1.9888,2.7666,1.6245,5.8477Z"/><path class="cls-38" d="M80.9941,160.77049c-.3642,3.0811-2.9472,5.3076-2.9472,5.3076l1.3193-11.1552s1.9922,2.7675,1.6279,5.8476Z"/><path class="cls-12" d="M84.1201,164.73929c-3.0796-.3653-5.8476,1.624-5.8476,1.624,0,0,2.2265,2.5801,5.3071,2.9443,3.0796.3653,5.8476-1.623,5.8476-1.623,0,0-2.2265-2.5801-5.3071-2.9453Z"/><path class="cls-17" d="M84.1216,164.73729c-3.0811-.3652-5.8491,1.627-5.8491,1.627l11.1547,1.3213s-2.2255-2.583-5.3056-2.9483Z"/><rect class="cls-12" x="72.33356" y="161.88494" width="21.33729" height=".83025" transform="translate(-82.70857 86.33548) rotate(-38.28674)"/><path class="cls-18" d="M88.3408,163.64749c-.54,2.0801-1.81,3.9804-3.7202,5.2998-.1001.0703-.1997.1299-.2998.1904h-.0103c-2.27.3994-4.9497.7295-7.9599.9902h-.0098c-.8603-.29-1.6699-.6904-2.4199-1.2304-.3501-.2403-.6904-.5098-1.0103-.8203-.33-.2998-.6298-.6299-.9199-.9893-.1299-.1602-.25-.3301-.3701-.5l.04-.0303,1.23-.8496,1.69-1.1709,1.3003-.8994,2.4096-1.6699h.0103l7.2998-5.0606,1.3901-.9599c1.6201,2.3301,2.02,5.1504,1.3501,7.7002Z"/><path class="cls-13" d="M85.979,157.40429c2.4351,3.5176,1.5557,8.3496-1.9619,10.7842-3.5249,2.4394-8.356,1.5615-10.791-1.957-.1182-.1719-.2295-.3467-.334-.5264l12.7124-8.7988c.1318.1611.2568.3271.3745.498Z"/><path class="cls-18" d="M80.0566,164.74219c.0997.6045-.0341,1.1289-.2978,1.1729-.2647.0429-.5591-.4112-.6587-1.0147-.0991-.6045.0347-1.1289.2983-1.1719.2647-.0439.5586.4092.6582,1.0137Z"/><path class="cls-18" d="M83.4771,161.82619c.5542.2607.9116.667.7978.9092-.1147.2422-.6548.2285-1.21-.0313-.5532-.2598-.9106-.666-.7968-.9092.1142-.2422.6548-.2285,1.209.0313Z"/><path class="cls-18" d="M83.4536,159.18259c.5806-.1953,1.1201-.1494,1.2061.1045.0849.2539-.3145.6182-.8946.8155-.5791.1953-1.1186.1484-1.2046-.1045-.0854-.2549.314-.6192.8931-.8155Z"/><path class="cls-18" d="M76.2144,164.19039c.4008-.4638.8886-.6982,1.0918-.5234.2021.1748.0429.6924-.357,1.1563-.3989.4628-.8872.6972-1.0903.5224-.2026-.1748-.043-.6914.3555-1.1553Z"/><path class="cls-33" d="M72.11619,165.41712h2.32473c.5531,0,1.00216.44905,1.00216,1.00216v2.56579c0,.5525-.44856,1.00106-1.00106,1.00106h-2.32478c-.55312,0-1.00219-.44906-1.00219-1.00219v-2.56568c0-.55254.44859-1.00114,1.00114-1.00114Z" transform="translate(-85.55003 76.77871) rotate(-36.60724)"/></g></svg>