<?xml version="1.0" encoding="UTF-8"?><svg id="_レイヤー_2" xmlns="http://www.w3.org/2000/svg" viewBox="0 0 2502.87111 1377.44624"><defs><style>.cls-1{fill:#2e3552;}.cls-1,.cls-2,.cls-3,.cls-4,.cls-5,.cls-6,.cls-7,.cls-8,.cls-9,.cls-10,.cls-11,.cls-12,.cls-13,.cls-14,.cls-15,.cls-16,.cls-17,.cls-18,.cls-19,.cls-20,.cls-21,.cls-22,.cls-23,.cls-24,.cls-25,.cls-26,.cls-27,.cls-28{stroke-width:0px;}.cls-2{fill:#2c3a64;}.cls-3{fill:#ed985f;}.cls-4{fill:#163560;}.cls-5{fill:#fff3e9;}.cls-6{fill:#4a82d3;}.cls-7{fill:#efcdaf;}.cls-8{fill:#c8d9e8;}.cls-9{fill:#35488b;}.cls-10{fill:#b2443b;}.cls-11{fill:#0f2949;}.cls-12{fill:#fff;}.cls-13{fill:#a8d29f;}.cls-14{fill:#aa443e;}.cls-15{fill:#1f396d;}.cls-16{fill:#ed9f4a;}.cls-17{fill:#233862;}.cls-18{fill:#ebf2f9;}.cls-19{fill:#ffb27d;}.cls-20{fill:#f9ddbf;}.cls-21{fill:#fbecdb;}.cls-22{fill:#739af0;}.cls-23{fill:#e58638;}.cls-24{fill:#c65447;}.cls-25{fill:#2b478b;}.cls-26{fill:#f99746;}.cls-27{fill:#e8945b;}.cls-28{fill:#ed7d2b;}</style></defs><g id="_Layer_"><path class="cls-21" d="M638.62211,1370.57904s-409.57912-370.3388-178.92092-870.9131c110.66312-240.1601,405.37502-296.5185,494.71192-247.372,117.7939,64.8017,274.0303-110.2598,611.7256-230.4566,253.8144-90.3408,828.3369,93.8594,641.2353,660.4351-113.4941,343.6797,323.3897,253.2734,255.6309,692.5039l-1824.3828-4.1973Z"/><rect class="cls-20" x="458.37789" y="926.32324" width="325.13482" height="443.9824"/><rect class="cls-5" x="783.51271" y="926.32324" width="252.5723" height="444.0009"/><polygon class="cls-16" points="866.15821 736.92964 759.62891 956.25384 435.98529 956.25384 604.71781 737.73044 866.15821 736.92964"/><polygon class="cls-20" points="878.92971 736.92964 772.40141 956.25384 448.75779 956.25384 617.49021 737.73044 878.92971 736.92964"/><path class="cls-7" d="M620.39651,846.59174h-6.7988c-23.0899,0-41.8096,18.7188-41.8096,41.8106v106.2461h89.0605v-107.6045c0-22.3408-18.1103-40.4522-40.4521-40.4522Z"/><polygon class="cls-16" points="1071.26951 968.42184 777.49321 968.42184 603.85741 736.92574 701.60641 736.94624 892.56841 736.97844 1071.26951 968.42184"/><polygon class="cls-23" points="1071.26951 968.42184 1017.43951 968.42184 701.60641 736.94624 892.56841 736.97844 1071.26951 968.42184"/><polygon class="cls-16" points="582.21191 1017.51074 506.36721 1173.65814 275.95119 1173.65814 396.08009 1018.08104 582.21191 1017.51074"/><polygon class="cls-20" points="589.11521 1017.51074 513.27251 1173.65814 282.85549 1173.65814 402.98339 1018.08104 589.11521 1017.51074"/><path class="cls-20" d="M512.76951,1173.65724v167.2265h-76.28222c-2.5527-.3779-3.85158-.6328-3.85158-.6328,0,0-38.92872,0-84.98432-15.7959-21.1241-7.249-43.7354-17.8164-64.792-33.2344v-117.5634h229.91012Z"/><path class="cls-5" d="M707.45701,1173.65724v135.9345c-13.9082,4.0518-27.3506,7.6592-40.3154,10.8565-44.6123,10.9892-83.5527,17.1718-116.2207,20.4355h-38.1514v-167.2265h194.6875Z"/><polygon class="cls-16" points="728.85161 1182.89154 519.70511 1182.89154 396.07709 1018.07714 458.37699 1018.08784 601.63091 1018.11914 728.85161 1182.89154"/><path class="cls-7" d="M444.51371,1208.32324v132.5605h-8.02642c-2.5527-.3779-3.85158-.6328-3.85158-.6328,0,0-38.92872,0-84.98432-15.7959v-114.5332c0-14.3525,6.1386-27.2734,15.9404-36.2646,8.7578-8.0586,20.4473-12.9659,33.29-12.9659,12.6436,0,24.1426,4.9287,32.6573,12.9659,9.22362,8.6806,14.97462,21.0019,14.97462,34.666Z"/><circle class="cls-7" cx="396.08009" cy="1104.76654" r="10.8701"/><polygon class="cls-23" points="728.85161 1182.89154 689.15821 1182.89154 458.37699 1018.08784 601.63091 1018.11914 728.85161 1182.89154"/><path class="cls-13" d="M1773.00781,1370.32324c-166.8769-49.4727-369.1699-94.9492-535.3467-55.1514-166.1758,39.7969-230.0244,93.4961-412.5166-30.0459-16.5615-11.2109-31.8408-19.5205-46.1474-25.457,32.2216-5.8418,75.2783-16.043,56.1943-26.3633-19.8984-10.7627-53.1934,7.6328-72.4443,20.4912-4.8174-1.4736-9.5264-2.6689-14.1407-3.6133,43.9659-31.4814,121.9405-91.0293,85.6709-93.0293-35.7822-1.9746-79.041,57.7764-100.1562,90.8389-3.6191-.3516-7.1885-.5586-10.709-.6172-1.8701-17.1758-8.7461-47.6025-33.9961-49.499-25.8115-1.9385,4.668,31.6084,22.9219,49.7861-98.2529,6.5371-164.7588,118.0781-371.06642,47.6846-31.6904-10.8125-64.4112-10.1582-95.2432-3.4873-19.4004-42.8555-77.0068-159.4199-124.6455-147.293-47.5869,12.1143,70.2842,113.0479,115.0186,149.584-5.3262,1.3779-10.583,2.9228-15.7569,4.6064-27.0849-19.9707-77.8799-52.2548-106.8994-38.08-28.3652,13.8545,42.7432,33.6787,89.0293,44.5341-61.7275,24.4864-107.7285,64.9903-107.7285,64.9903l1677.96192.1211Z"/><path class="cls-13" d="M2384.87111,1370.36914h-194.0986c-10.4913-8.8008,7.1123-28.8789,25.54-30.2442,8.0039-.5957,18.0898,1.0537,29.623,3.501,2.6778-35.4912,17.9415-194.9228,75.4043-188.5283,64.627,7.1933,0,70.2256-18.2675,107.5547-13.5332,27.6357-27.8243,67.3047-34.3282,86.0302,5.2461,1.1368,10.668,2.2725,16.2256,3.2852,8.544-26.3105,40.4248-114.8008,80.9727-109.6494,47.6064,6.0293,28.4609,41.5068-5.2588,62.5723-24.7695,15.4804-55.1777,37.5048-69.6162,48.1328,12.2353,2,25.0263,3.3261,37.9912,3.0283,33.3281-.7852,49.5664,9.0586,55.8125,14.3174Z"/><path class="cls-27" d="M1363.42191,280.04884s46.1924,21.8535,56.6875,19.0976c10.4941-2.7549,50.3691-9.7949,55.9687-7.3144,0,0,6.3496,10.1279,1.5576,16.791-4.792,6.6631-43.5849,24.6855-57.5976,25.3369-14.0127.6514-67.208-8.9834-78.4951-17.8018l21.8789-36.1093Z"/><path class="cls-27" d="M1474.67771,292.03414s17.8125-7.3935,23.6436.8662c5.8301,8.2608,9.1377,16.6279,8.414,20.8613-.7226,4.2334-12.7509,6.0957-17.5615,2.8057-4.8115-3.29-16.7187-7.8867-16.7187-7.8867l2.2226-16.6465Z"/><path class="cls-4" d="M1559.81841,1328.84764s-9.835,15.9092-10.0469,34.3662c-.0469,4.1084,3.3056,7.4531,7.414,7.4531h61.2989c5.9365,0,10.3154-5.583,8.8525-11.3359-2.8545-11.2246-8.9639-28.1856-21.206-38.4805-19.5323-16.4238-46.3125,7.9971-46.3125,7.9971Z"/><path class="cls-4" d="M1462.82811,1312.56544s-3.5244,56.8349-14.5195,57.6503c-1.4629.1084-55.7715.1084-55.7715.1084l-70.0518-.0019s1.1797-17.1045,21.4444-20.6357c20.2637-3.5313,54.1826-17.7735,66.459-44.5567,12.914-28.1767,52.4394,7.4356,52.4394,7.4356Z"/><path class="cls-25" d="M1492.17381,961.45794c-2.4511,31.5733-2.7676,56.4971.4698,68.3135,14.458,52.8604-26.0547,291.544-26.0547,291.544-29.8672,14.2861-72.2823-.1514-72.2823-.1514,2.5772-33.0625-13.1425-329.043-27.7695-509.6065-6.123-75.8056-10.7168-128.8457-10.7168-128.8457l178.9141-20.83s-34.0879,189.9179-42.5606,299.5761Z"/><path class="cls-17" d="M1534.73441,661.88184s-34.0879,189.9179-42.5606,299.5761l-125.6367-149.9004c-6.123-75.8056-10.7168-128.8457-10.7168-128.8457l178.9141-20.83Z"/><path class="cls-25" d="M1446.96971,702.38274s90.5655,527.3516,106.1475,629.4659c0,0,33.9082,9.4687,68.5527-5.2032,0,0,4.4785-245.0507-7.376-318.8711-11.8544-73.8193,6.3155-302.0214-12.7919-323.25-19.1084-21.2275-154.5323,17.8584-154.5323,17.8584Z"/><path class="cls-19" d="M1456.29881,252.69044s-6.9492,46.8652-3.9062,60.8642c3.0429,13.9981,49.6045,21.6065,69.081,10.042,19.4766-11.5635,13.6192-15.8623,13.6192-15.8623,0,0-2.9727-53.6523-5.7071-57.4795-2.7343-3.8262-73.0869,2.4356-73.0869,2.4356Z"/><path class="cls-26" d="M1606.13091,538.69134c6.1621-58.8769,4.582-103.1836-1.2247-136.5156-17.0078-97.8242-70.2978-101.083-70.2978-100.4531,0,13.165-28.3203,25.3154-51.1621,23.8193-19.2549-1.2597-31.7442-15.8955-31.7442-23.8193,0-.0664-.3584-.0596-1.0068.0058-4.9756.0459-27.8223.462-49.416,4.2022-15.6582,2.7031-30.6484,7.1494-37.6875,14.4805-3.6338,3.7793-16.5889,14.3701-33.2324,28.7675-42.3887,36.6563-108.6699,98.0157-105.7393,134.5801,0,0,81.9287,60.1641,133.8496,22.4502-2.8271,97.9072-20.5976,201.6123-16.2412,201.5361,0,0,28.9414,25.0616,116.8692,25.0616,48.0761,0,82.8418-4.1172,106.9628-8.8828,32.8653-6.4825,45.9493-14.1426,45.9493-14.1426,7.3222-.1094-8.0069-150.7666-5.8789-171.0899Z"/><path class="cls-28" d="M1612.00981,709.78124s-13.084,7.6601-45.9493,14.1426c-45.4296-20.1221-135.6035-72.129-139.1269-159.4551-4.6738-116.1651,137.1455-185.336,137.1455-185.336,0,0,19.0264,10.5723,40.8271,23.043,5.8067,33.332,7.3868,77.6387,1.2247,136.5156-2.128,20.3233,13.2011,170.9805,5.8789,171.0899Z"/><path class="cls-27" d="M1455.56151,257.97064s18.0596,25.4551,37.1553,25.6846c19.0947.2275,38.5898-25.2852,38.5898-25.2852l-75.7451-.3994Z"/><path class="cls-19" d="M1453.81541,256.70314c4.9981,3.9326,16.1729,9.3681,25.3106,12.9599,6.9326,2.7266,14.6025,2.8858,21.6455.458,10.5371-3.6318,26.4922-9.3125,30.5351-11.751,9.5635-5.7968,8.9473-17.5312,9.4375-33.8447.5879-19.3096,2.5332-34.4746.378-45.6064-2.5625-13.3164-11.0059-20.8921-34.6436-22.9507-43.3935-3.7661-61.4707,7.0996-62.2275,21.6479-.1953,3.9073-.377,7.6319-.5039,11.1602-1.7364,45.3691,1.8486,61.458,10.0683,67.9268Z"/><path class="cls-2" d="M1443.99021,182.97704s7.1026-10.4761,20.459-6.3677c13.3545,4.1084,14.7236,15.5205,37.5479,13.6948,22.8242-1.8261,28.3017-12.6274,32.4111-7.227,4.1074,5.4009,6.4844,37.3105,6.4844,37.3105,0,0,45.8886-104.6352-47.1221-104.6352,0,0-95.8516-5.7896-49.7803,100.5708v-33.3462Z"/><path class="cls-19" d="M1274.99021,282.07614l.1231.0713c-.1055.0537-.1231-.0713-.1231-.0713Z"/><path class="cls-27" d="M1489.06051,603.87794s-12.1699,9.5859-29.9726,9.5859c0,0-18.1582-20.0117-33.46-39.3672-9.9062-12.5351-18.6064-24.7969-20.4052-31.168-4.5645-16.1972-89.9913-20.7617-100.4532-32.1738-10.4717-11.4121,42.4434-40.042,42.4434-40.042,0,0,86.7226,13.2647,99.7598,30.3008,5.1855,6.7832,12.9091,24.458,20.332,43.2842,11.2207,28.4756,21.7558,59.5801,21.7558,59.5801Z"/><path class="cls-28" d="M1367.67771,366.12794s16.4375-31.9102,24.5567-30.9825c8.1191.9287-18.6612,66.0537-21.0957,97.7032-2.4346,31.6494-3.461-66.7207-3.461-66.7207Z"/><path class="cls-19" d="M1419.10941,585.81054c-11.4033,27.6084-26.1748,52.7773-28.0655,55.9551-.1269.2197-.2002.3378-.2002.3378h-.2656c-2.7656-.0273-26.5752-.5478-28.9043-10.1064,0,0-.7666-33.0869.5489-59.3701.5927-11.751,1.5976-22.1309,3.2675-27.6084,0,0-129.1386-.8672-126.8662-37.3945,2.2647-36.5284,69.7783-55.8555,108.5889-36.9112,0,0,51.4639,18.6973,78.5517,43.4014,13.3018,12.1338,5.1221,43.2109-6.6552,71.6963Z"/><path class="cls-25" d="M1242.46681,456.40134s-17.1934,25.2705-13.1621,48.8496c4.0322,23.5781,53.0879,36.1777,87.417,37.6787,0,0,98.1845-22.501,82.9599-61.6435-3.4531-8.876-157.2148-24.8848-157.2148-24.8848Z"/><path class="cls-14" d="M1278.12401,145.84714s-15.5947-31.919-53.2617-12.4014-.9951,93.0542-20.7646,111.4331c-19.7676,18.3789,7.164,30.4121,3.1533,43.5918-4.0108,13.1797,7.4492,28.167,33.8086,26.4034,26.3593-1.7627,54.1162-.3418,66.0234-23.4004,11.9082-23.0586,9.2022-73.8028,4.6006-80.9346-4.6006-7.1318-33.5596-64.6919-33.5596-64.6919Z"/><path class="cls-19" d="M1339.16211,320.79684l-64.0488-38.6494c.3554-.1416,1.6504-2.0752,6.4394-15.9277,2.0391-5.9063,3.1221-11.0323,3.6543-15.0948.0528-.4072.1055-.7978.1416-1.1884.6553-5.9063.1768-9.3116.1768-9.3116l14.0303,5.0733,25.9502,9.4004c-.3018,6.581.6201,11.2099,2.0214,14.3847,3.3877,7.7158,9.7022,7.7686,9.8799,7.7686l1.7549,43.5449Z"/><path class="cls-3" d="M1327.52731,269.48334c-25.081,2.1289-39.1992-14.2256-42.3203-18.3584-.4619-.6025-.6924-.9394-.6924-.9394,0,0,.3018-.0889.834-.249,2.0401-.6026,7.5733-2.2696,14.2071-4.2383l25.9502,9.4004c-.3018,6.581.6201,11.2099,2.0214,14.3847Z"/><path class="cls-19" d="M1328.78421,260.47554s-55.7197,6.1211-56.8604-31.5557c-1.1406-37.6762-9.3779-54.9169,29.1739-58.2739,38.5527-3.3564,47.6582,10.5288,49.9296,23.2759,7.0977,39.8213-6.5468,64.8643-22.2431,66.5537Z"/><path class="cls-14" d="M1304.09281,189.05024c-19.7158-4.9912-12.1778,29.9409-17.1592,27.5493-5.5742-2.6767-15.1524-2.6357-13.6406,4.0938,1.5117,6.7305,3.6923,9.1377,4.831,13.3398,1.1377,4.2022-.0088,12.5225-4.5928,10.8457-4.5839-1.6777-47.2246-50.3652-17.1171-88.2905,30.1054-37.9248,119.8808-14.561,91.6103,25.1084-4.9717,6.9761-29.8926,10.9077-43.9316,7.3535Z"/><path class="cls-22" d="M1375.65041,470.68654s-16.7412,8.8837-43.1016,8.4648c-16.792-.2529-52.4551-7.5527-75.3808-15.8281-13.0664-4.7022-22.001-9.7325-20.9239-13.9532,1.5459-6.083,12.7373-52.7841,23.0782-96.0009,9.455-39.5157,18.1992-76.1162,18.1992-76.1162,0,0,26.0947,18.541,41.3027,12.0019,15.208-6.5517,13.2559-13.9404,13.2559-13.9404,0,0,17.9179-2.1983,22.7773-1.626,7.7608.9121,35.1641,10.9033,35.1641,10.9033,0,0,3.6015,10.1231-5.9492,25.9199-7.9121,13.085-15.6075,15.6231-15.6075,15.6231,0,0,22.3946,70.6025,7.1856,144.5518Z"/><path class="cls-19" d="M1291.80371,407.64934s16.0918-3.0039,22.3867,1.1153c6.2959,4.1191,8.1563,10.5693,3.6241,13.2031-14.2032,8.2559-28.6016-.8721-28.6016-.8721l2.5908-13.4463Z"/><path class="cls-6" d="M1257.16801,463.32324c-13.0664-4.7022-22.001-9.7325-20.9239-13.9532,1.5459-6.083,12.7373-52.7841,23.0782-96.0009,3.0547-5.6016,4.9931-8.9473,4.9931-8.9473,0,0,19.6192,89.7012-7.1474,118.9014Z"/><path class="cls-19" d="M1278.16891,282.29194s-49.5654,10.4932-69.1132,87.5479c-1.9141,7.542.0644,15.5879,5.2754,21.3642,8.9882,9.9619,28.8037,24.5283,74.8818,29.8916,5.0312.585,5.707-12.1787,5.707-12.1787-.501,1.0176-31.3008-19.9004-44.4101-31.1426-2.3721-2.0332-2.2725-6.3007-.5606-8.913,4.4297-6.7608,11.8613-18.4483,14.3604-24.4454,3.6455-8.75,27.7138-58.1523,13.8593-62.124Z"/><path class="cls-22" d="M1277.52731,277.25194s-29.1425,2.0732-52.9043,33.7558c0,0,8.0411,29.1446,45.7891,36.9248,0,0,23.2666-52.4765,7.1152-70.6806Z"/><path class="cls-18" d="M1419.10941,585.81054c-11.4033,27.6084-26.1748,52.7773-28.0655,55.9551-.1552.1093-.3095.2197-.4658.3378-2.7656-.0273-26.5752-.5478-28.9043-10.1064,0,0-.7666-33.0869.5489-59.3701,3.789,3.6338,18.414,14.4795,56.8867,13.1836Z"/><path class="cls-18" d="M1489.06051,603.87794s-12.1699,9.5859-29.9726,9.5859c0,0-18.1582-20.0117-33.46-39.3672,17.2178-7.4414,35.4043-23.8467,41.6768-29.7988,11.2207,28.4756,21.7558,59.5801,21.7558,59.5801Z"/><path class="cls-14" d="M1427.58891,677.81734c-.5371,3.0117-3.5069,4.9541-6.5049,4.3428-7.1358-1.4551-20.0371-4.211-25.3867-6.1582-7.5879-2.7608-22.1446-11.3604-29.7325-14.1201-2.6084-.9493-8.8779-3.4805-12.9326-5.1299-2.1513-.876-3.2939-3.2276-2.6445-5.458,1.3467-4.627,3.9473-12.5078,7.6572-19.0977.6836-1.2217,1.7832-2.1416,3.166-2.8086,3.9385,3.1572,10.1465,6.6328,18.4473,6.666,6.8018.0293,12.4492-1.6377,16.6396-3.5039.5157,1.0576,10.8672,21.9297,18.1954,24.5957,6.5957,2.3985,15.2304,8.6973,13.0957,20.6719Z"/><path class="cls-14" d="M1535.92381,604.12494c1.4434,2.6983.3145,6.0616-2.4179,7.4385-6.5039,3.2773-18.3399,9.1035-23.7461,10.8877-7.667,2.5322-24.4219,4.7969-32.0889,7.3281-2.6357.8701-9.125,2.7656-13.3311,3.9834-2.2314.6446-4.5839-.4941-5.456-2.6474-1.8086-4.4688-4.6475-12.2666-5.8174-19.7373-.2187-1.3829.0752-2.7852.7481-4.167,5.0478.042,12.0742-1.0752,18.6113-6.1895,5.3584-4.1894,8.7607-8.9961,10.8945-13.0566,1.0596.5107,22.1133,10.4863,29.5176,8.041,6.665-2.2002,17.3457-2.6035,23.0859,8.1191Z"/><path class="cls-26" d="M1431.44341,562.38374s-3.7159,21.5361-17.7207,31.4512c0,0-56.8692-7.8242-109.8116-21.2168-38.9199-9.8428-75.7304-22.6875-86.2568-37.6524-24.8691-35.2949,13.0098-78.2587,13.0098-78.2587,0,0,73.0097,35.2314,152.0546,78.3974,16.1866,8.8369,32.6114,18.0127,48.7247,27.2793Z"/><path class="cls-19" d="M1345.88091,593.83204s-16.8907,1.372-23.2813,7.7627c-6.3906,6.3906-16.0732,24.9785-9.1777,32.3466,6.8955,7.3682,39.7617-8.7832,40.6748-11.4345.9131-2.6524-8.2158-28.6748-8.2158-28.6748Z"/><path class="cls-28" d="M1431.44341,562.38374s-3.7159,21.5361-17.7207,31.4512c0,0-56.8692-7.8242-109.8116-21.2168,24.8867-21.6377,57.4073-32.4111,78.8076-37.5137,16.1866,8.8369,32.6114,18.0127,48.7247,27.2793Z"/><path class="cls-26" d="M1624.38771,330.09764c-11.3662-27.002-86.1367-28.0342-86.1367-28.0342-38.041,99.8213-47.1826,165.2891-57.2403,207.3633-1.6269-.1563-3.1533-.1611-4.5478.0058,0,0-53.4375,20.8506-132.8652,78.5323,0,0-8.3086,22.7763,6.6084,41.4228,0,0,136.8603-30.207,175.0869-52.6133.0371.0059.0615.0108.0615.0108.3838-.2432.7598-.4893,1.1416-.7334.581-.3584,1.1348-.7149,1.6631-1.0684,124.3135-80.7754,112.4892-206.25,96.2285-244.8857Z"/><path class="cls-19" d="M1306.30271,809.05174s38.375,13.2558,32.9756,57.457c0,0-3.5439,17.9385-14.5908,9.9824-11.0469-7.956-5.8682-6.4882-21.6445-17.3671-15.7744-10.878-26.0743-28.0293-24.2793-41.6543l27.539-8.418Z"/><path class="cls-22" d="M1308.05861,811.89154l-22.7285,27.5762c-1.0586,1.2891-2.7305,1.875-4.3672,1.5732-21.3057-3.913-94.6338-51.1757-118.6524-70.4638-2.6054-2.0899-4.624-3.8506-5.9404-5.1934-8.9551-9.123-39.8379-54.1465-61.7578-94.2422-12.6182-23.0937-22.2666-44.5508-23.0312-56.5742-2.7315-42.9238,19.8466-102.9482,19.8466-102.9482,66.792,23.2441,73.8174,76.5732,73.8174,76.5732l37.0283,137.8067,104.878,78.3876c2.3925,1.7872,2.8017,5.21.9072,7.5049Z"/><path class="cls-6" d="M1162.31051,770.57714c-2.6054-2.0899-4.624-3.8506-5.9404-5.1934-8.9551-9.123-39.8379-54.1465-61.7578-94.2422-2.8369-24.2324-.8896-46.9619,9.0967-62.8525,0,0,56.7783,99.9072,58.6015,162.2881Z"/><path class="cls-19" d="M1123.83011,1167.61424l-11.3545,47.3467-7.0254,29.3076-23.3936,97.5517s-20.0234,6.1709-40.8339,0c0,0-7.709-32.2802-7.9278-72.5439-.123-21.0576,1.8135-44.3096,7.9658-66.2588,2.4971-8.9346,5.7061-17.6396,9.75-25.9092,33.002-67.4082,72.8194-9.4941,72.8194-9.4941Z"/><path class="cls-25" d="M1143.21681,1370.32224h-109.9326s-1.7373-16.6338,3.1045-32.5469c.7129-2.3633,1.5771-4.709,2.6113-6.9873,0,0,24.543,5.5645,45.7051,0,0,0,19.8994,16.9473,31.9277,22.1406,12.0195,5.2032,25.3115,2.3731,26.584,17.3936Z"/><path class="cls-27" d="M1112.47561,1214.96094l-7.0254,29.3076c-11.9531,7.624-37.7393,21.4375-72.1553,25.0078-.123-21.0576,1.8135-44.3096,7.9658-66.2588,10.1114-5.1279,20.4024-7.8135,29.1661-6.2852,21.8164,3.8077,34.7861,11.7823,42.0488,18.2286Z"/><path class="cls-15" d="M1086.11911,1370.32224h-52.8349s-1.7373-16.6338,3.1045-32.5469c13.2636,4.1309,40.2558,14.4883,49.7304,32.5469Z"/><path class="cls-19" d="M1036.20021,1167.61424l-11.3555,47.3467-7.0263,29.3076-23.3926,97.5517s-20.0235,6.1709-40.834,0c0,0-7.709-32.2802-7.9277-72.5439-.1241-21.0576,1.8134-44.3096,7.9658-66.2588,2.4961-8.9346,5.706-17.6396,9.751-25.9092,33-67.4082,72.8193-9.4941,72.8193-9.4941Z"/><path class="cls-25" d="M951.36721,1330.78414s24.541,5.5703,45.706,0c0,0,19.9004,16.9522,31.9268,22.1475,12.0254,5.1963,25.3174,2.373,26.583,17.3925h-109.9297s-2.2939-21.9433,5.7139-39.54Z"/><path class="cls-27" d="M1024.84471,1214.96094l-7.0263,29.3076c-11.9532,7.624-37.7383,21.4375-72.1543,25.0078-.1241-21.0576,1.8134-44.3096,7.9658-66.2588,10.1103-5.1279,20.4023-7.8135,29.165-6.2852,21.8184,3.8077,34.7862,11.7823,42.0498,18.2286Z"/><path class="cls-24" d="M1146.76761,1211.82814c-2.6397,9.7685-11.5069,16.5478-21.628,16.5478h-176.2666c-13.2724,0-23.7265-11.2891-22.7099-24.5137,1.8506-24.0107,8.459-63.2207,11.3457-89.7002,1.1963-11.0039,1.7471-19.8047,1.0537-24.3994-17.792-117.7265-32.7266-256.3965-30.9131-282.9043.2568-3.7314.4365-5.6582.4365-5.6582,0,0,12.8369-1.083,32.3662-1.8418,56.7647-2.2412,170.0762-1.8515,188.9034,35.2705,19.1777,37.8135,30.7597,288.8946,30.7597,288.8946,2.8008,23.4599-7.1006,65.1855-13.3476,88.3047Z"/><path class="cls-10" d="M937.50881,1114.16204c1.1963-11.0039,1.7471-19.8047,1.0537-24.3994-17.792-117.7265-32.7266-256.3965-30.9131-282.9043.2568-3.7314.4365-5.6582.4365-5.6582,0,0,12.8369-1.083,32.3662-1.8418,29.3643,17.2969,48.4766,46.7676,48.4766,46.7676,0,0-5.915,220.3096-51.4199,268.0361Z"/><path class="cls-10" d="M1046.96091,316.27344c-14.081-3.5205-22.2607,7.5742-22.2607,20.6377,0,13.0654,10.5908,23.6562,23.6553,23.6562,13.0654,0,23.6562-15.1357,23.6562-28.2012,0-13.0644-12.375-12.9248-25.0508-16.0927Z"/><path class="cls-24" d="M1039.69241,451.73824s-73.3545-66.0635-6.9492-112.834c0,0,19.8173-5.2812,29.8886-3.3945,0,0,36.0967-10.5615,57.2188,13.956,21.1221,24.5166,30.3008,42.2442,12.1963,64.1202-18.1055,21.8769-92.3545,38.1523-92.3545,38.1523Z"/><path class="cls-19" d="M955.52051,850.73334s18.1084,36.3369-16.7012,64.1065c0,0-15.0927,10.3242-17.4062-3.0918-2.3125-13.416.3555-8.7412-3.2871-27.5557-3.6426-18.8135,1.0176-38.2676,11.8408-46.7373l25.5537,13.2783Z"/><path class="cls-19" d="M1099.78121,451.12494s-.9023,9.8926-2.582,23.2608c-.8174,6.5312-1.8144,13.8984-2.9912,21.3427-.8359,5.3448-1.7656,10.7383-2.7812,15.8926l-22.71,76.7022-53.3291-86.2998s12.5332-10.3682,29.5176-66.5635c.1611-.5977.2763-.9219.2763-.9219l54.5996,16.5869Z"/><path class="cls-22" d="M1130.85551,829.53024c.6933,8.6201-1.4912,10.1865-1.4912,10.1865,0,0-32.792,11.8867-115.2579,7.7764-8.9238-.4463-17.3261-.9024-25.1777-1.3672-53.1484-3.1338-81.5732-6.4092-81.5732-6.4092,0,0-43.5303-100.4746,38.2509-224.2685,9.2471-13.9942,20.0997-28.292,32.793-42.7705,13.2442-15.1055,16.169-35.3174,21.1817-54.5245,1.4335-5.5058-2.7159-6.7216-.6456-11.915,0,0,14.9151-4.2148,16.4522-4.2148,8.4697,7.4609,19.6445,21.9687,47.376,24.8359,18.7509,1.9561,26.0898-8.6103,28.7578-14.9434,7.1484,2.5821,14.5547,7.045,20.6211,9.9581,50.2519,24.1259,54.8662,70.9121,54.8662,70.9121,0,0-46.1787,151.8476-49.0459,170.8076-1.2822,8.4316,9.3135,21.542,12.8926,65.9365Z"/><path class="cls-27" d="M1097.19921,474.38574c-.8174,6.5312-3.5801,24.4091-4.7568,31.8525-56.4707-22.0166-49.0752-64.9209-47.5371-70.7783.1611-.5977.2763-.9219.2763-.9219,0,0,29.877,21.211,52.0176,39.8477Z"/><path class="cls-19" d="M1109.30271,481.97364s-65.2226,2.0927-65.8994-38.544c-.6787-40.6377-9.5537-67.7353,32.0606-70.79,41.6142-3.0547,49.9658,12.3164,53.4912,25.8252s-2.7031,81.917-19.6524,83.5088Z"/><path class="cls-24" d="M1115.00001,366.55174s-4.0928,67.8467-83.6064,60.5674c0,0,1.6914-93.96,83.6064-60.5674Z"/><path class="cls-24" d="M1099.78121,373.29684s22.2803,27.5772,32.3868,36.374c0,0,24.7871-35.5635-32.3868-36.374Z"/><path class="cls-24" d="M1099.78121,373.29684s20.0176,33.8057,30.125,42.6025c0,0,27.0489-41.792-30.125-42.6025h0Z"/><path class="cls-6" d="M988.92871,846.12594c-53.1484-3.1338-81.5732-6.4092-81.5732-6.4092,0,0-43.5303-100.4746,38.2509-224.2685,16.5586,38.5937,55.6075,141.7363,43.3223,230.6777Z"/><path class="cls-22" d="M1015.38771,502.02344s-63.0967,12.9463-91.207,45.497c-21.5391,24.9424-45.1026,146.8907-45.1026,167.0411,0,19.2539,22.1348,121.6298,35.9502,141.2578.96,1.3632,2.5606,2.1172,4.2197,1.9414l35.5342-3.7676c2.9649-.3145,5.0664-3.044,4.6114-5.9912l-19.9668-129.4112,70.081-124.2968s41.3233-48.9785,5.8799-92.2705Z"/><path class="cls-2" d="M1286.07811,1335.28704s5.3457,10.4317,17.1885,13.0118c7.46,1.625,13.8477,5.5068,17.8232,10.9511,3.3584,4.6006.1094,11.0723-5.5869,11.0723h-60.1142c-5.1201,0-9.1143-4.418-8.6026-9.5107.4483-4.4542.917-9.6397,1.1201-13.6172.4444-8.6807,9.1397-15.67,9.1397-15.67l29.0322,3.7627Z"/><path class="cls-9" d="M1299.69341,1183.68454c2.5097,45.7119-3.7256,149.6074-3.7256,149.6074,0,0-4.1905,11.585-30.6573,14.3516-14.1787,1.4795-26.9414-2.2002-26.9414-2.2002-5.3408-24.5957-10.2802-48.0947-14.8271-70.417-32.6748-160.3076-45.4199-259.3281-45.4199-259.3281l128.9834-29.9825s-5.6504,90.503-7.3125,152.2188c-.5196,19.2637-.6475,35.7256-.0996,45.75Z"/><path class="cls-2" d="M1307.10551,985.71574s-5.6504,90.503-7.3125,152.2188l-76.251,137.0918c-32.6748-160.3076-45.4199-259.3281-45.4199-259.3281l128.9834-29.9825Z"/><path class="cls-9" d="M1177.42681,778.43844s-49.9102-22.7178-87.6709-2.8437c-37.7618,19.875-14.6748,183.9121,39.3212,199.8115h0s101.1612,32.3457,48.3497-196.9678Z"/><path class="cls-27" d="M1321.80271,1023.95504c-.1474-.2217-.3105-.4336-.4882-.6357-1.1934-1.8135-3.1954-6.3321-4.6749-9.8301h0c10.0391-49.1504,3.2823-77.5713,3.2823-77.5713,1.1924-14.3096,9.7383-114.2744-9.9375-160.5859-9.4922-22.3448-25.3897-22.3838-25.3897-22.3838,0,0,3.7266,35.7002,1.2666,54.8896-2.2578,17.6153,14.5362,182.6934,17.3086,209.6758-.0449-.0088-.0801-.0078-.0937.0117l.7949,27.4336,8.0527-1.9033c.3438-.0879.6817-.207,1.0059-.3574h0c.9765-.4512,1.8408-1.1748,2.4551-2.1485l6.5019-10.3017c1.251-1.9815,1.1358-4.4502-.084-6.293h0ZM1306.48631,1019.50484l.3428-.2031-.1699.2226c-.0225.0254-.086.0137-.1729-.0195Z"/><path class="cls-2" d="M1181.42871,1335.28704s5.3457,10.4317,17.1895,13.0118c7.4589,1.625,13.8466,5.5068,17.8213,10.9511,3.3593,4.6006.1093,11.0723-5.586,11.0723h-60.1142c-5.1192,0-9.1143-4.418-8.6026-9.5107.4473-4.4542.917-9.6397,1.1201-13.6172.4444-8.6807,9.1397-15.67,9.1397-15.67l29.0322,3.7627Z"/><path class="cls-9" d="M1223.24801,569.73144c-12.8554,0-29.0058,5.5361-37.6718,13.957-9.2041,8.9453-18.7813,9.4014-25.5996,19.9619-7.1094,11.0088-11.5137,22.4473-7.9414,37.9346,3.9013,16.918,3.1093,33.2851,13.7343,45.706,5.2617,6.1485,13.8301,6.8448,19.8067,12.4942,10.9716,10.3711,23.4424,13.6533,37.6718,13.6533,26.8204,0,43.5137-15.8887,57.2422-35.6875,10.9991-15.8623,8.8203-26.5557,11.4004-40.125,8.1201-42.708-27.5039-67.8945-68.6426-67.8945Z"/><path class="cls-19" d="M1261.00981,741.89354l-51.2705,26.2031-10.2725-35.5684s6.5312-12.3095,9.4853-32.4736c1.2364-8.4795,1.8487-18.3486,1.0616-29.2783l41.7734,21.3906s-.9961,3.8613-1.6641,9.5625c-.7109,6.1582-1.0283,14.4639.7227,22.3516,1.5098,6.7734,4.54,13.2392,10.1641,17.8125Z"/><path class="cls-9" d="M1142.22951,999.63474s-9.7451,129.2021-7.5752,335.1152c0,0,11.7607,6.1826,25.9414,7.5938,26.4814,2.6357,32.9297-7.8623,32.9297-7.8623,0,0,27.081-100.4971,33.8516-145.7793,6.2421-41.7451,47.2294-192.3906,47.2294-192.3906l-132.3769,3.3232Z"/><path class="cls-26" d="M1294.89841,745.47844c-4.5605-2.1367-18.8925-7.9238-40.4023-11.4638.2256,7.3711-1.707,14.3076-14.6436,16.001-17.2089,2.2421-32.5957-9.5-40.3857-17.4844-.001.001-.002.001-.0029.001l.0029-.004s-12.1348,1.3018-26.2813,4.3975c-7.0781,1.5537-14.6611,3.5566-21.4765,6.084-8.2676,3.04-15.4072,6.833-19.2168,11.501-.0029.0019-.0069.0029-.0098.0049l.002.0058c-13.2403,16.249-35.0225,65.1846-35.0225,65.1846,0,0,36.2578,13.4414,45.4082,21.2851l.209,1.75,5.6777,47.128-16.9033,93.8711c-.1445.8232-.2265,1.6455-.2265,2.4511,0,6.2754,4.291,11.92,10.5976,13.4366,0,0,1.4522.2421,4.1289.6123,17.919,2.5166,90.6602,11.1933,147.6924-4.2901,12.8223-3.4834,21.2744-15.7256,20.21-28.9834l-9.2979-116.6777c4.9639-.8516,10.6895-1.7549,15.3457-2.2734,3.8721-.419,6.9844-.5645,8.2744-.1778,0,0-6.4433-91.1152-33.6797-102.3594Z"/><path class="cls-28" d="M1187.27931,918.63274c-.7217,32.7539-22.1836,71.2364-40.9258,81.6075-2.6767-.3702-4.1289-.6123-4.1289-.6123-6.3066-1.5166-10.5976-7.1612-10.5976-13.4366,0-.8056.082-1.6279.2265-2.4511l16.9033-93.8711-5.6777-47.128c.2744-.8222.4199-1.2588.4199-1.2588,0,0,45.0547,19.2891,43.7803,77.1504Z"/><path class="cls-28" d="M1320.30371,848.01564c-4.7734.5322-15.373,2.2773-15.373,2.2773l-5.3682-48.874s17.9355,34.4511,20.7412,46.5967Z"/><path class="cls-9" d="M1134.87211,966.97554l4.3906-24.3808c74.3447-107.5625,79.9707-126.8575,46.5381-175.1514-9.5752-13.8301-26.9922-22.4756-34.0918-24.4336,6.8154-2.5274,14.3984-4.5303,21.4765-6.084,7.0567,3.3154,13.5459,6.5733,18.5782,10.9307,102.0371,88.3388-56.8916,219.1191-56.8916,219.1191Z"/><path class="cls-19" d="M1221.69041,828.93354c-29.1074,2.0127-33.1367,31.8379-33.1367,31.8379,0,0-48.8516,4.4326-56.0693,7.6426,0,0,3.9638-10.7236,11.0117-26.9297-6.3701-6.2627-27.3027-15.5791-41.1631-19.8594-10.5723,26.9688-14.6348,53.6651-8.7041,79.4024.627,2.7177,3.0156,4.6631,5.8008,4.7939,15.5478.7246,66.9219.4678,104.5371-30.6806l.6621-.1788c9.0029-.5351,17.459-9.4785,20.7041-21.2373,3.2471-11.7588,3.5068-8.164,5.9941-16.4404,2.4874-8.2773-9.6367-8.3506-9.6367-8.3506Z"/><path class="cls-27" d="M1250.84571,724.08104c-23.7529-.6348-41.8936-24.0264-41.8936-24.0264l41.1709,1.6748c-.7109,6.1582-1.0283,14.4639.7227,22.3516Z"/><path class="cls-19" d="M1253.10641,709.73334s-52.4834,6.3955-53.6025-30.5791c-1.1201-36.9756,20.7559-60.9258,35.3574-60.6533,29.1153.5459,33.918,12.3125,37.294,24.5635,3.375,12.25,5.1133,64.0625-19.0489,66.6689Z"/><path class="cls-12" d="M1239.06931,688.42184s1.1436,4.6113,12.6377,3.7607c0,0,9.6504-.7099,9.295-5.788,0,0-9.4063-3.5049-21.9327,2.0273Z"/><path class="cls-9" d="M1247.85161,618.84474s-44.8516-.0274-34.545,30.7656c6.4952,19.4072-15.1045,22.4248-15.1045,22.4248l-10.3935-31.1065,6.5107-24.2343,53.5323,2.1504Z"/><path class="cls-19" d="M1857.27641,599.34664c-11.1748-18.5605-18.1123-101.4131-26.1768-123.6045-5.0967-14.0273-18.7471-30.791-17.3057-31.832-14.5244-8.5635-53.8193-12.6817-53.8193-12.6817,0,.0284-.0098.0557-.0098.0831-1.5332-.3204-3.0586-.6397-4.5273-.9317-4.7109-.9492-9.1572-3.6973-9.6875-8.4717-.0176-.2373-.0449-.4853-.0723-.7226-.6025-5.8701-.7304-11.8682-.6582-17.0723-.0088-.0723-.0088-.1455,0-.2178.1289-8.5.7774-14.8086.7774-14.8086l-.1563-.0185-50.9433-8.1895c-.6934,15.9043-1.6162,27.7442-2.5928,36.5733-.7393,6.7558-6.2354,12.0146-13.0186,12.4258-1.0136.0546-2.0449.1181-3.0673.1914v-.0088s-32.8399-1.2783-45.4024,2.5566c-.9863.3008-2.0537.7471-3.1943,1.3233.7617.7988-120.9385,122.7753-117.7989,136.9033,3.1397,14.1279,56.5411,94.3447,75.9024,109.1269h19.3799s-42.9532-97.9629-43.5098-105.9043c-.8154-11.6269,108.0068-76.6943,108.0068-88.5556,0-4.3135,30.3399-5.6182,50.1827-5.4659,21.0107.1622,60.581-10.8125,60.581-10.8125,0,0,17.1055,129.6231,38.7236,168.0704,17.0479,30.3183,92.3506,108.0009,92.3506,108.0009l15.8838-14.0879s-42.7803-86.9169-69.8476-131.8691Z"/><path class="cls-24" d="M1703.08981,1098.21874c9.1934,90.54-1.9443,209.0967-1.9443,209.0967h-31.1963c-47.1084-123.8975-48.5234-201.628-51.208-230.8155-1.4609-15.9043-22.9336-79.4736-42.206-140.6152-16.1055-51.0527-30.6573-100.417-30.7579-118.9131-.2099-42.3887,42.0235-110.3789,42.0235-110.3789,0,0,60.6845,23.4092,98.1347,46.5352,12.4991,7.7236,22.0665,15.2734,25.336,21.6738,8.6816,17.0264,15.1172,138.5605-7.9893,212.8027-13.9052,44.6992-6.7832,67.6231-6.7832,67.6231,2.8858,13.0468,5.0303,27.6084,6.5908,42.9912Z"/><path class="cls-10" d="M1703.28221,987.60444c-13.9052,44.6992-6.7832,67.6231-6.7832,67.6231,2.8858,13.0468,5.0303,27.6084,6.5908,42.9912l-126.5546-162.334c-16.1055-51.0527-30.6573-100.417-30.7579-118.9131-.2099-42.3887,42.0235-110.3789,42.0235-110.3789,0,0,60.6845,23.4092,98.1347,46.5352,12.4991,7.7236,22.0665,15.2734,25.336,21.6738,8.6816,17.0264,15.1172,138.5605-7.9893,212.8027Z"/><path class="cls-25" d="M1669.94731,1307.31734s-1.7666,20.3477-4.3828,24.5342c-2.6172,4.1865-13.6055,18.3154-26.1651,23.0254-12.5596,4.709-48.4912,2.2695-51.2822,15.3252h126.6387s1.7421-19.5684-3.1416-32.4473c-4.8838-12.8808-10.4659-30.4375-10.4659-30.4375h-31.2011Z"/><path class="cls-25" d="M1881.65331,1302.73044s14.1602,19.3535,17.6494,27.0283c3.4883,7.6748,26.5078,40.1699,23.7227,40.4434-2.7852.2744-64.1904,0-64.1904,0,0,0-6.2803-15.3252-5.583-25.792.6982-10.4658-8.3721-30.333-6.628-41.6797,1.7451-11.3467,35.0293,0,35.0293,0Z"/><path class="cls-24" d="M1881.65331,1302.73044h-35.0293s-136.5898-197.46-141.289-247.665c-5.8711-62.7842-49.7442-310.6065-49.7442-310.6065l140.1172-43.6211s12.2451,31.4912,22.5117,63.2451c4.4698,13.8467,8.5615,27.7442,11.1045,39.0996,5.6104,25.0665-10.1836,119.7832-20.9629,187.1211-5.3271,33.1651-9.4297,59.6963-9.1582,67.9854.8164,25.1182,46.8672,28.373,82.4502,244.4414Z"/><path class="cls-25" d="M1693.99801,394.62304c-.0761,1.2666-.1533,2.499-.2382,3.6894.0771-1.1904.1621-2.4228.2382-3.6894Z"/><path class="cls-25" d="M1694.29591,389.39544c-.0684,1.3516-.1445,2.67-.2207,3.961.0762-1.291.1435-2.6094.2207-3.961Z"/><path class="cls-25" d="M1694.71291,380.87884c-.043.9942-.0859,1.9727-.1367,2.9317.0429-.959.0849-1.9375.1279-2.9317h.0088Z"/><path class="cls-25" d="M1815.26761,733.84174c4.5644,13.7276-61.3614,21.751-134.5293,20.7823-20.6719-.2725-39.8906-2.7881-55.7256-6.8936-33.4912-8.6611-51.919-24.4209-37.2139-41.1318,4.1826-4.752,50.5586-71.1202,50.5586-71.1202,2.7363-5.9404-.2295-25.414-14.3906-71.6884-5.7969-18.9209,1.7598-30.6934,4.4629-38.1983,0,0,0-.0088.0078-.0166.9268-2.6103,1.2842-4.7021.2891-6.4101-6.3321-10.9483-15.4786-21.5049-23.7579-29.92-10.6416-10.8369-19.872-18.1054-19.872-18.1054,0,0,27.1572-29.5967,42.3379-37.2041,15.6406,16.3965,49.5634,45.7724,92.165,46.1045,36.7539.2802,72.4629-20.4258,94.2061-36.1328,1.6318.9589,2.958,1.9804,3.8681,3.0507,13.5821,15.9375,17.458,44.6934,17.458,44.6934,0,0-43.7158,24.1221-42.9336,31.9766,2.169,21.6416,4.2159,27.9726,3.2647,35.6992l-.0088.0761c-.3408,2.7129-1.0537,5.6114-2.2607,9.4102-7.4551,23.418-23.5957,59.585-19.5664,71.7656,1.0449,3.1621,35.0957,73.5508,41.6406,93.2627Z"/><path class="cls-19" d="M1630.63091,432.60934c.705-.2129,1.4707-.417,2.2949-.5947-.8242.1875-1.5977.3906-2.3037.6035l.0088-.0088Z"/><path class="cls-19" d="M1748.10061,426.72754c1.0625,1.0879,2.4228,1.955,3.9189,2.5927-1.4961-.6377-2.8476-1.4951-3.9189-2.5927Z"/><path class="cls-19" d="M1752.01951,429.32024c.543.2295,1.1045.4336,1.6826.6123-.5781-.1699-1.1396-.375-1.6826-.6123Z"/><path class="cls-19" d="M1927.12401,731.21574s26.7754,6.9307,30.4395,10.67c3.6621,3.7383,14.1562,32.7744,10.4658,33.0429-19.1885,1.3965-29.3057-8.8964-29.3057-8.8964-11.5996-12.7657-28.9316-14.8028-28.0713-24.1465.8614-9.3438,16.4717-10.67,16.4717-10.67Z"/><path class="cls-19" d="M1585.52541,679.97064s-19.3867,24.4873-19.3867,28.9366c0,4.4472,3.9248,23.0244,8.6347,23.2851,4.709.2627,6.2793-15.1748,9.9414-18.0527,3.6641-2.878,16.7461-8.2891,18.5782-13.3018,1.831-5.0137,1.6123-20.8672,1.6123-20.8672h-19.3799Z"/><path class="cls-27" d="M1692.29001,415.87794c24.0655-3.0948,53.3623-26.8135,53.3623-26.8135-17.0996-9.2764-31.9355-10.1709-43.457-6.9844-2.7471.7578-5.3125,1.7441-7.6777,2.9131l-2.2276,30.8848Z"/><path class="cls-19" d="M1683.56841,392.55074s59.5234,19.8643,71.3242-17.3945c11.7998-37.2588,27.4297-59.7881-10.0762-74.0459-37.5049-14.2598-49.4277-2.3926-56.3916,9.0859-6.9639,11.4785-20.0361,76.2256-4.8564,82.3545Z"/><path class="cls-12" d="M1704.92581,376.15524s-2.1963,4.3232-13.4336.8369c0,0-9.4356-2.9248-7.9151-7.8945,0,0,10.1612-1.3242,21.3487,7.0576Z"/><path class="cls-24" d="M1843.28521,305.07614c-6.668-8.5645,15.2197-26.2285-29.2442-47.4619-33.7265-16.1055-44.1797,8.291-47.2617,21.0156-20.0547-11.4453-52.7871-44.4141-73.6621-22.9355-24.9932,25.7148,2.1152,48.3496,2.1152,48.3496,9.4805,6.9043,14.085,4.9951,27.9434,8.04,13.8594,3.044,5.0068,19.0801,6.0888,24.4883,1.0821,5.4082,10.5411,16.3428,23.3575,10.8193,12.8174-5.5224,11.3427,15.5908-.8418,19.9336-3.4717,1.2383-7.0782,20.6504-2.0459,21.4697,4.2304.6875,19.5058.8321,21.0586-11.6308.9209-7.3984,10.3222-11.2627,20.289-18.9043,6.8965,6.5605,16.5928,9.9072,21.9395,9.1406,7.875-1.1289,7.959-7.4463,24.8301-18.7041s12.1005-35.0556,5.4336-43.6201Z"/><path class="cls-17" d="M1625.01171,747.73334c-33.4883-8.664-51.9209-24.4218-37.2129-41.1377,4.1817-4.747,50.5596-71.1201,50.5596-71.1201,0,0,12.4268,74.9453-13.3467,112.2578Z"/><path class="cls-17" d="M1842.12401,1370.27344l-5.0117-536.9981s-4.3311-38.6758-38.0693-38.6758c-36.003,0-38.0694,38.6758-38.0694,38.6758,0,0,.5186,3.3428,4.211,3.3428,3.8701,0,4.5078-3.3428,4.5078-3.3428,0,0,1.5928-29.8174,29.3506-29.8174,26.0117,0,29.3506,29.8174,29.3506,29.8174v536.9981h13.7304Z"/><path class="cls-17" d="M1823.76561,1370.27344h22.3906l-1.9951-23.4151s.1914-3.2519-4.332-3.4365c-4.2041-.1719-12.5059-.7715-13.2949,1.7715-.6934,2.2334-2.7686,25.0801-2.7686,25.0801Z"/><path class="cls-19" d="M1798.76561,766.14254l-1.5283,7.6797s-37.9678-.1436-46.8428,40.542c0,0-2.4092,16.9297,9.7979,13.3164,12.207-3.6152,10.3056-12.2539,27.5898-16.9863,17.2842-4.7344,28.5459-8.3594,31.167-20.9405l2.8262-14.0009-23.0098-9.6104Z"/><path class="cls-26" d="M1933.01761,433.18944s-10.043,39.5127-18.7061,75.6396c-3.4883,14.5528-6.747,28.5479-9.0478,39.1924-2.3457,10.9385-3.6797,18.3428-3.168,19.1631,7.5313,12.2256-6.2266,86.7695-17.1094,113.8389-.959,2.4004-2.2832,5.2129-3.8711,8.3359-15.2187,29.835-55.7363,88.3926-55.7363,88.3926,0,0-11.4307,1.1963-18.9072-1.625-6.2364-2.3643-10.499-9.9883-10.499-9.9883,3.624-5.833,18.2861-74.7256,37.1484-113.3535,8.0703-16.5244,19.957-169.8389,35.5879-190.4815,13.0371-17.2187,64.3086-29.1142,64.3086-29.1142Z"/><path class="cls-28" d="M1902.09571,567.18454c7.5313,12.2256-6.2266,86.7695-17.1094,113.8389-.959,2.4004-2.2832,5.2129-3.8711,8.3359-14.5429-64.3379,9.5586-155.4785,9.5586-155.4785,6.0166,2.3818,10.9102,32.4834,11.4219,33.3037Z"/><path class="cls-11" d="M2007.47561,1311.12204s3.8681,58.2285-7.127,59.042c-1.4619.1094-55.7705.1094-55.7705.1094l-70.0527-.003s1.1797-17.1035,21.4443-20.6357c20.2637-3.5313,54.1826-17.7725,66.459-44.5566,12.9141-28.1768,45.0469,6.0439,45.0469,6.0439Z"/><path class="cls-4" d="M2112.83791,1311.12204s3.8682,58.2285-7.127,59.042c-1.4629.1094-55.7714.1094-55.7714.1094l-70.0518-.003s1.1787-17.1035,21.4443-20.6357c20.2637-3.5313,54.1817-17.7725,66.458-44.5566,12.9151-28.1768,45.0479,6.0439,45.0479,6.0439Z"/><path class="cls-25" d="M2010.79301,1170.77434c1.7256,24.6231,5.2382,56.2842,3.9863,84.8243-1.752,39.9052-3.0156,73.5586-3.0156,73.5586-26.3116,8.9472-74.586-1.9063-74.586-1.9063,0,0-17.124-100.8496-31.2295-181.3545-6.3271-36.0713-11.5761-67.2764-13.539-82.0117-6.3457-47.6289,6.7558-300.8682,6.7558-300.8682,0,0,71.1934-45.6299,100.6084-22.1025,29.4063,23.5176,47.5118,46.5068.1192,304.1904-3.5977,19.5469,7.039,70.5176,10.9004,125.6699Z"/><path class="cls-17" d="M2010.79301,1170.77434c1.7256,24.6231,4.9004,64.0284,3.6484,92.5674-24.749-26.1924-73.5273-81.456-108.4932-117.4453-6.3271-36.0713-11.5761-67.2764-13.539-82.0117-6.3457-47.6289,6.7558-300.8682,6.7558-300.8682,0,0,71.1934-45.6299,100.6084-22.1025,29.4063,23.5176,47.5118,46.5068.1192,304.1904-3.5977,19.5469,7.039,70.5176,10.9004,125.6699Z"/><path class="cls-25" d="M1963.50201,768.16694s6.3945,253.5,16.3837,300.501c9.9893,46.999,62.1309,262.1592,62.1309,262.1592,0,0,48.875,4.4511,74.418-6.4903,0,0-1.626-99.6455-10.293-158.1914-8.0957-54.6933-22.6162-104.6992-20.5342-124.4638,27.4531-260.5606,7.6338-282.0889-23.499-303.2842-31.1318-21.1953-98.6064,29.7695-98.6064,29.7695Z"/><path class="cls-19" d="M2060.12011,790.36034s-16.9346,33.9814,15.6182,59.9502c0,0,14.1142,9.6533,16.2773-2.8916,2.1631-12.5459-.332-8.1748,3.0742-25.7686,3.4063-17.5937-.9511-35.7871-11.0722-43.707l-23.8975,12.417Z"/><path class="cls-19" d="M1917.37301,375.74904s19.5459,29.7089,15.6485,57.4355l28.9238,69.6875,52.1836-79.7773s-27.5664-30.0059-37.8564-70.9102l-58.8995,23.5645Z"/><path class="cls-19" d="M1908.80081,401.09764s71.1777,3.081,72.4726-39.6475c1.293-42.7304,20.5293-71.1553-32.7089-74.9101-43.7803-3.0879-58.334,15.1689-62.2354,29.3252-3.9004,14.1582-3.9092,82.9423,22.4717,85.2324Z"/><path class="cls-26" d="M2083.05471,780.38184c-15.293,1.4238-36.3457,3.1865-61.8906,4.7929-5.1026.3194-10.3809.6387-15.8301.9395-77.127,4.3183-107.7852-8.1709-107.7852-8.1709,0,0-2.0449-1.6514-1.3965-10.709,3.3506-46.6436,13.2559-60.4199,12.0596-69.2842-2.6836-19.9219-51.0156-182.4931-51.0156-182.4931,0,0-.9317-51.3545,56.1836-75.4571,5.8887-2.4922,12.3799-4.6826,19.5547-6.5,2.5019,6.6465,9.3584,17.7481,26.8965,15.7022,25.9287-3.0215,44.3886-18.3047,52.3037-26.1465,1.4336,0,2,.0459,2,.0459,1.9355,5.459,3.4414,11.1562,4.7832,16.9443,4.6836,20.1856,7.4228,41.4209,19.8125,57.2979,12.2246,15.6748,22.6865,31.1318,31.6152,46.25,7.4316,12.581,13.8047,24.9345,19.2549,36.9668,50.5596,111.747,11.4482,198.1318-6.5459,199.8213Z"/><path class="cls-28" d="M2083.05471,780.38184c-15.293,1.4238-36.3457,3.1865-61.8906,4.7929-7.4493-125.542,43.7041-246.1181,43.7041-246.1181,1.9267,1.3515,3.7519,2.8672,5.4775,4.5371,8.9102,8.6553,15.1191,21.501,19.2549,36.9668,15.2373,56.9238,2.4834,149.4072-6.5459,199.8213Z"/><path class="cls-8" d="M1885.85641,360.34274s-13.8564,54.9717,9.6582,62.7139c23.5147,7.7412,85.9405,1.539,85.9151-65.8575,0,0-32.7598,19.5381-48.4082,19.044-15.6485-.4941-25.749-9.5234-40.211-2.4697,0,0-5.291-.3516-6.9541-13.4307Z"/><path class="cls-26" d="M2014.12891,423.09474s49.7539,1.1191,76.042,35.3232c20.1426,26.209,41.4365,166.8389,41.4365,188.0146s-22.6777,138.0332-35.375,150.7315c0,0-8.2168,2.1182-19.1846,0-11.6396-2.2481-18.4951-8.9815-18.4951-8.9815,0,0,6.3184-130.1044,6.3184-142.3085,0-17.668-55.2383-125.8184-55.2383-125.8184,0,0-28.6484-51.4697,4.4961-96.9609Z"/><path class="cls-8" d="M1977.92581,299.82904c-1.1973-4.3623-6.5703-6.6533-6.5703-6.6533-40.0889-17.4609-69.377,1.6436-69.377,1.6436,24.5713-32.9825,83.8711-26.0577,96.3613,3.6914,20.3946,48.5732-16.9101,58.6884-16.9101,58.6884,0,0-37.25-15.6523-15.6797-35.2763,7.1484-6.502,10.6045-12.2832,11.75-17.3125h0c.3818-1.6778.5088-3.2725.4258-4.7813Z"/><path class="cls-12" d="M1914.41111,386.48724s-1.3095,4.67-13.0107,3.4473c0,0-9.8252-1.0234-9.3057-6.1934,0,0,9.7061-3.2851,22.3164,2.7461Z"/><path class="cls-1" d="M2.9375,1370.32414h2496.99711c1.6207,0,2.9365,1.3158,2.9365,2.9365v1.2491c0,1.6207-1.3158,2.9365-2.9365,2.9365H2.9375c-1.62125,0-2.9375-1.31625-2.9375-2.9375v-1.2471c0-1.62125,1.31625-2.9375,2.9375-2.9375Z"/></g></svg>