<svg xmlns="http://www.w3.org/2000/svg" width="60.304" height="37.983" viewBox="0 0 60.304 37.983"><g transform="translate(-54 -235.387)"><g transform="matrix(1, 0.017, -0.017, 1, 89.318, 254.545)"><path d="M428.332,775.121a12.425,12.425,0,0,0-3.457,7.1,5.16,5.16,0,0,0,.055,2.232,4.534,4.534,0,0,0,1.125,1.781c3.092,3.233,8.154,3.439,12.6,2.921a13.67,13.67,0,0,0,5.806-1.687,7,7,0,0,0,2.97-7.961c-.846-2.346-3.015-3.93-5.157-5.208C437.983,771.735,432.132,771.419,428.332,775.121Z" transform="translate(-424.782 -770.942)" fill="#eef5e8"/><path d="M457.524,780.051a1.1,1.1,0,0,0,.672,1.156,1.637,1.637,0,0,0,.5.092c.1.006.206.009.309.009a5.207,5.207,0,0,0,.775-.058,1,1,0,0,0,.67-.321,1.035,1.035,0,0,0,.159-.348c.007-.024.015-.047.022-.071a.742.742,0,0,0,.354-.138,1.009,1.009,0,0,0,.281-.39c.019-.039.037-.076.057-.111a1.225,1.225,0,0,0,.365.057,1.071,1.071,0,0,0,.908-.456,3.227,3.227,0,0,0,.327.186.391.391,0,0,0,.171.045.293.293,0,0,0,.1-.018.344.344,0,0,0,.186-.181,7.937,7.937,0,0,0,.659-1.849c.044.017.087.037.131.052a.626.626,0,0,0,.206.041.415.415,0,0,0,.094-.011c.124-.029.334-.141.351-.558a9.632,9.632,0,0,0-.325-2.9,2.109,2.109,0,0,0-.429-.9,2.189,2.189,0,0,0-1.241-.567,5.888,5.888,0,0,0,.987-2.031,9.068,9.068,0,0,0,1.374,1.04c.209.128.427.244.65.353a.225.225,0,0,0,.017.02,5.429,5.429,0,0,1,1.493,1.923c-.095.071-.188.15-.275.225-.058.049-.111.1-.157.13a5.321,5.321,0,0,0-.75.686,2.793,2.793,0,0,0-.775,1.953,3.331,3.331,0,0,0,.252,1.036.473.473,0,0,0,.23.281.367.367,0,0,0,.155.034.589.589,0,0,0,.269-.079l.047-.026a2.165,2.165,0,0,0,.3.918,4.8,4.8,0,0,0,.446.665.4.4,0,0,0,.275.167h.025a.391.391,0,0,0,.231-.085,3.807,3.807,0,0,0,.265.453.669.669,0,0,0,.327.279.505.505,0,0,0,.162.025.871.871,0,0,0,.226-.035l.038-.012a.152.152,0,0,0,.01.013.79.79,0,0,1,.12.156.756.756,0,0,0,.379.346.574.574,0,0,0,.186.029,1.11,1.11,0,0,0,.167-.015,3.293,3.293,0,0,0,.419-.1l.3.522a.882.882,0,0,0,.249.308.7.7,0,0,0,.41.115,1.474,1.474,0,0,0,.172-.011,3.293,3.293,0,0,0,.617-.133,1.1,1.1,0,0,0,1.336-.055,1.644,1.644,0,0,0,.315-.4,5.222,5.222,0,0,0,.463-.982.986.986,0,0,0,.029-.742,1.028,1.028,0,0,0-.233-.3l-.051-.052a.74.74,0,0,0,.042-.378,1,1,0,0,0-.214-.431c-.025-.035-.05-.068-.071-.1a1.126,1.126,0,0,0,.241-1.312,3.219,3.219,0,0,0,.318-.2.314.314,0,0,0,.077-.475,7.957,7.957,0,0,0-1.327-1.446c.035-.031.073-.059.107-.091a.534.534,0,0,0,.167-.252c.032-.123.031-.36-.33-.57a9.642,9.642,0,0,0-2.716-1.066l-.154-.032c.053,0,.106.005.158.005a8.546,8.546,0,0,0,2.088-.253c.063-.016.125-.034.188-.052a13.149,13.149,0,0,1,1.423.423,1.15,1.15,0,0,1,.6.377.221.221,0,1,0,.376-.233,1.5,1.5,0,0,0-.828-.56c-.267-.1-.538-.183-.812-.263.162-.064.321-.136.478-.211a.2.2,0,0,0,.057.006,4.471,4.471,0,0,1,2.43.475.221.221,0,0,0,.2-.393,4.921,4.921,0,0,0-1.833-.521.248.248,0,0,0,.094-.054,5.8,5.8,0,0,1,2.379-.176.221.221,0,0,0,.06-.439,6.226,6.226,0,0,0-2.478.168.216.216,0,0,0-.067-.014,6.282,6.282,0,0,0,.7-1.483.221.221,0,0,0-.422-.135,5.848,5.848,0,0,1-1.144,2.034.219.219,0,0,0-.038.067c-.126.064-.253.123-.382.179a6.063,6.063,0,0,0,.525-1.737.221.221,0,1,0-.438-.062,5.616,5.616,0,0,1-.689,2,.211.211,0,0,0-.011.034q-.159.052-.32.1a3.784,3.784,0,0,0,.285-1.182.222.222,0,0,0-.2-.237.224.224,0,0,0-.237.2,3.316,3.316,0,0,1-.4,1.347,8.6,8.6,0,0,1-5.988-1.043,11.765,11.765,0,0,1-3.876-4.313.221.221,0,0,0-.382.224,15.282,15.282,0,0,0,2.282,3.069,5.434,5.434,0,0,1-.988,2.146c-.107-.051-.219-.1-.327-.139-.071-.028-.136-.054-.189-.078a5.331,5.331,0,0,0-.956-.343,2.8,2.8,0,0,0-2.09.225,3.344,3.344,0,0,0-.8.706.416.416,0,0,0,.1.689l.044.029a2.158,2.158,0,0,0-.671.693,4.7,4.7,0,0,0-.381.705.4.4,0,0,0-.02.321.377.377,0,0,0,.194.187,3.871,3.871,0,0,0-.278.447.681.681,0,0,0-.094.42.665.665,0,0,0,.19.337l.028.028c0,.005-.005.009-.007.015a.814.814,0,0,1-.082.179.756.756,0,0,0-.13.5.73.73,0,0,0,.153.318,3.3,3.3,0,0,0,.28.326l-.324.5a.88.88,0,0,0-.157.365.823.823,0,0,0,.18.563,3.291,3.291,0,0,0,.406.484Zm8.567-2.057-.031.015-.007-.018a2.943,2.943,0,0,1-.223-.9,2.361,2.361,0,0,1,.665-1.639h0a4.86,4.86,0,0,1,.688-.629c.05-.039.109-.089.173-.143.092-.079.213-.182.322-.257a.2.2,0,0,0,.037-.008.216.216,0,0,0,.082-.063.375.375,0,0,1,.039-.016.216.216,0,0,0,.083-.014c.273,0,.667.417.792.712a1.263,1.263,0,0,1-.1,1.156,2.441,2.441,0,0,1-.586.571A13.393,13.393,0,0,1,466.091,777.994Zm5.521-.363a.605.605,0,0,1-.071.408,2.614,2.614,0,0,1-.684,1.044.557.557,0,0,1-.236.126.766.766,0,0,1-.309-.036,4.9,4.9,0,0,1-1.111-.445.778.778,0,0,1-.14-.134,1.742,1.742,0,0,0,.085-.291.732.732,0,0,0,.3.079h.022a.952.952,0,0,0,.418-.115,2.525,2.525,0,0,0,.887-.731.879.879,0,0,0,.066-.1,1.867,1.867,0,0,0,.552.17C471.464,777.617,471.538,777.625,471.612,777.631Zm1.305,1.155c.024.035.048.071.071.1a.655.655,0,0,1,.135.243.559.559,0,0,1-.109.33,2.719,2.719,0,0,1-1.451,1.156.411.411,0,0,1-.2.031.5.5,0,0,1-.129-.086.533.533,0,0,0-.1-.062,2.615,2.615,0,0,0,.325-.352.624.624,0,0,0,.126-.25.641.641,0,0,0-.172-.522c-.032-.039-.066-.075-.1-.112a2.275,2.275,0,0,0,.225-.273,1.066,1.066,0,0,0,.319.044,2.028,2.028,0,0,0,.2-.011A2.332,2.332,0,0,0,472.917,778.787Zm-2.662-1.937a2.285,2.285,0,0,0,.2.284.2.2,0,0,0,.006.027.067.067,0,0,1,0,.049.335.335,0,0,1-.038.057,2.072,2.072,0,0,1-.731.6.6.6,0,0,1-.23.07.5.5,0,0,1-.289-.155,1.647,1.647,0,0,0-.032-.19.942.942,0,0,0-.185-.406,1.153,1.153,0,0,0-.3-.235l-.081-.05-.011-.007a2.242,2.242,0,0,0,.419-.462,1.637,1.637,0,0,0,.187-.4,1.545,1.545,0,0,0,.581.093c.1,0,.19,0,.279-.009A1.288,1.288,0,0,0,470.255,776.85Zm-3.226,2.215a1.4,1.4,0,0,1-.229-.954,13.844,13.844,0,0,0,1.391-.918c.079.044.1.059.152.089l.084.051a.752.752,0,0,1,.187.14.528.528,0,0,1,.094.221,1.3,1.3,0,0,1-.242,1.067,2.814,2.814,0,0,1-.52.465l-.54.408A4.367,4.367,0,0,1,467.029,779.064Zm1.322,1.275c-.035-.011-.087-.087-.1-.112a3.37,3.37,0,0,1-.269-.473l.234-.178a3.154,3.154,0,0,0,.6-.544c.009-.011.015-.023.024-.034a.865.865,0,0,0,.149.115,5.293,5.293,0,0,0,.6.284.213.213,0,0,0,0,.028c.008.284-.3.514-.436.6a2.361,2.361,0,0,1-.665.295A.319.319,0,0,1,468.351,780.34Zm1.079.489a.382.382,0,0,1-.145,0c-.048-.016-.1-.091-.15-.17-.019-.029-.041-.06-.063-.091a2.8,2.8,0,0,0,.314-.173,1.255,1.255,0,0,0,.632-.852c.06.018.119.038.18.054a1.4,1.4,0,0,0,.357.057.789.789,0,0,0,.146-.013.847.847,0,0,0,.258-.1c.037.037.076.072.109.112.088.107.081.148.081.15a.327.327,0,0,1-.046.074A2.583,2.583,0,0,1,469.43,780.829Zm1.562.836a.465.465,0,0,1-.277-.026.535.535,0,0,1-.118-.163l-.258-.456a3.1,3.1,0,0,0,.376-.2c.041.017.081.031.117.042a.493.493,0,0,1,.121.05.819.819,0,0,0,.281.165.572.572,0,0,0,.165.023.971.971,0,0,0,.3-.058,3.1,3.1,0,0,0,.724-.352.394.394,0,0,1,0,.27.807.807,0,0,1-.406.381A2.87,2.87,0,0,1,470.992,781.664Zm2.364-1.276a4.776,4.776,0,0,1-.424.9,1.256,1.256,0,0,1-.227.3.642.642,0,0,1-.469.143,1.235,1.235,0,0,0,.61-.617.842.842,0,0,0-.061-.7,3.131,3.131,0,0,0,.509-.57.515.515,0,0,1,.106.136A.62.62,0,0,1,473.355,780.389Zm-.224-2.955a.694.694,0,0,1-.18.793,1.556,1.556,0,0,1-.939.358,1.234,1.234,0,0,1-.239,0c.063-.124.12-.25.174-.376a1.236,1.236,0,0,0,.12-.575,3.308,3.308,0,0,0,1.055-.232A.207.207,0,0,0,473.132,777.433Zm.359-.721a2.849,2.849,0,0,1-2.032.456,1.13,1.13,0,0,1-.589-.234,1.333,1.333,0,0,1-.237-.313c-.152-.253-.2-.428-.146-.55h0a4.246,4.246,0,0,0,1.74-.7A7.5,7.5,0,0,1,473.491,776.713Zm-1.186-2.151c.077.045.11.079.123.075a.541.541,0,0,1-.04.041,3.782,3.782,0,0,1-2.353,1c-.264.015-.652.035-.787-.112a1.67,1.67,0,0,0-.128-.7,1.923,1.923,0,0,0-.854-.9,1.4,1.4,0,0,1,.66-.463,1.67,1.67,0,0,1,.787.044A9.2,9.2,0,0,1,472.305,774.561Zm-3.491-1.489a2.194,2.194,0,0,0-1.081.833,5.882,5.882,0,0,0-.827-1.29,9.253,9.253,0,0,0,2.065.427A1.309,1.309,0,0,0,468.815,773.072Zm-9.1,7.74a4.734,4.734,0,0,1-.992.045,1.25,1.25,0,0,1-.368-.063.638.638,0,0,1-.346-.348,1.328,1.328,0,0,0,.717.259.827.827,0,0,0,.7-.388,3.128,3.128,0,0,0,.741.184.538.538,0,0,1-.07.157A.628.628,0,0,1,459.714,780.812Zm1-.791a.565.565,0,0,1-.344.057,2.72,2.72,0,0,1-1.7-.745.408.408,0,0,1-.121-.164.508.508,0,0,1,.015-.154.527.527,0,0,0,.009-.117,2.632,2.632,0,0,0,.463.123.884.884,0,0,0,.141.013.5.5,0,0,0,.139-.019.642.642,0,0,0,.381-.4c.019-.046.036-.092.052-.139a2.256,2.256,0,0,0,.351.069,1.31,1.31,0,0,0,.211.478,2.33,2.33,0,0,0,.612.65c-.02.038-.04.076-.058.111A.656.656,0,0,1,460.718,780.021Zm-3.218-3.549a.344.344,0,0,1-.077-.108.373.373,0,0,1,.05-.144,3.424,3.424,0,0,1,.293-.459l.266.125a3.176,3.176,0,0,0,.761.278l.041.006a.872.872,0,0,0-.033.185,5.326,5.326,0,0,0,.03.664.2.2,0,0,0-.027.009.831.831,0,0,1-.734-.1A2.378,2.378,0,0,1,457.5,776.472Zm1.8-.294a1.738,1.738,0,0,0,.3-.061.729.729,0,0,0,.07.3.933.933,0,0,0,.307.336,2.524,2.524,0,0,0,1.06.443.938.938,0,0,0,.12.012,1.862,1.862,0,0,0,.107.567c.024.07.053.138.082.206a.6.6,0,0,1-.4.129,2.618,2.618,0,0,1-1.243-.117.564.564,0,0,1-.222-.151.758.758,0,0,1-.112-.29,4.916,4.916,0,0,1-.124-1.19A.779.779,0,0,1,459.3,776.178Zm1.194-.753a1.136,1.136,0,0,0,.069-.371l.006-.1v-.012a2.251,2.251,0,0,0,.605.155c.049,0,.1.007.148.007a1.653,1.653,0,0,0,.291-.028,2.053,2.053,0,0,0,.328.8,1.285,1.285,0,0,0-.541.54,2.3,2.3,0,0,0-.159.307.2.2,0,0,0-.02.017.07.07,0,0,1-.043.024.289.289,0,0,1-.07-.007,2.077,2.077,0,0,1-.874-.365.531.531,0,0,1-.169-.171.5.5,0,0,1,0-.33,1.624,1.624,0,0,0,.153-.115A.943.943,0,0,0,460.492,775.425Zm1.732,3.811a.693.693,0,0,1-.785.211,1.555,1.555,0,0,1-.755-.663,1.247,1.247,0,0,1-.115-.211c.139,0,.278-.01.413-.021a1.24,1.24,0,0,0,.562-.164,3.307,3.307,0,0,0,.7.825A.217.217,0,0,0,462.224,779.236Zm.806-.018a2.849,2.849,0,0,1-1.351-1.585,1.128,1.128,0,0,1-.067-.63,1.352,1.352,0,0,1,.166-.355c.152-.252.285-.375.418-.385h0a4.248,4.248,0,0,0,1.432,1.211A7.487,7.487,0,0,1,463.029,779.218Zm1.039-4.82a9.19,9.19,0,0,1,.31,2.767c0,.089-.019.136-.009.143a.432.432,0,0,1-.055-.016,3.781,3.781,0,0,1-1.981-1.615c-.136-.226-.333-.557-.269-.746a1.67,1.67,0,0,0,.56-.442,1.925,1.925,0,0,0,.4-1.175,1.4,1.4,0,0,1,.717.368A1.681,1.681,0,0,1,464.069,774.4Zm-5.641-1.163a2.939,2.939,0,0,1,.689-.616,2.364,2.364,0,0,1,1.76-.177,4.9,4.9,0,0,1,.877.316c.058.027.13.055.209.086.112.045.26.1.377.165a.219.219,0,0,0,.024.03.215.215,0,0,0,.094.042.387.387,0,0,1,.032.027.218.218,0,0,0,.039.055,1.216,1.216,0,0,1-.248,1.045,1.265,1.265,0,0,1-1.069.45,2.447,2.447,0,0,1-.779-.251,13.412,13.412,0,0,1-1.992-1.139l-.027-.019Zm-.494,1.363a1.4,1.4,0,0,1,.737-.647,13.843,13.843,0,0,0,1.461.8c0,.089,0,.119-.007.174l-.006.1a.763.763,0,0,1-.036.23.525.525,0,0,1-.152.186,1.3,1.3,0,0,1-1.056.284,2.822,2.822,0,0,1-.655-.243l-.612-.287A4.282,4.282,0,0,1,457.934,774.6Zm-.082,2.709a1.5,1.5,0,0,0,.727.217.921.921,0,0,0,.321-.057c.012.062.023.124.037.185a1.129,1.129,0,0,0,.2.465.846.846,0,0,0,.212.185c-.016.049-.033.1-.053.145-.054.129-.093.141-.095.142a.322.322,0,0,1-.088-.006,2.581,2.581,0,0,1-1.617-1.038.375.375,0,0,1-.072-.126.44.44,0,0,1,.081-.212c.017-.031.034-.065.051-.1A2.8,2.8,0,0,0,457.853,777.307Zm-.386,1.572.283-.44a3.1,3.1,0,0,0,.355.238c0,.044.011.086.017.124a.485.485,0,0,1,.013.131.822.822,0,0,0-.015.324.77.77,0,0,0,.249.4,3.1,3.1,0,0,0,.649.476.394.394,0,0,1-.236.13.8.8,0,0,1-.527-.181,2.879,2.879,0,0,1-.771-.761.457.457,0,0,1-.105-.257A.538.538,0,0,1,457.467,778.879Z" transform="translate(-451.912 -766.444)" fill="#6d6d6d"/><path d="M517.175,779.2a.724.724,0,0,0-.169.588.768.768,0,0,0,.4.489,1.2,1.2,0,0,0,.622.2h.045a.722.722,0,0,0,.65-.446,1.085,1.085,0,0,0-.423-1.239A1.014,1.014,0,0,0,517.175,779.2Zm.349.271c.13-.167.414-.364.591-.282a.671.671,0,0,1,.193.686.286.286,0,0,1-.256.155.744.744,0,0,1-.418-.133c-.115-.07-.183-.139-.2-.2A.312.312,0,0,1,517.524,779.469Z" transform="translate(-502.593 -776.317)" fill="#6d6d6d"/><path d="M535.144,775.258h.008a.653.653,0,0,0,.62-.417.743.743,0,0,0-.186-.816.618.618,0,0,0-.724-.083.729.729,0,0,0-.39.73h0A.7.7,0,0,0,535.144,775.258Zm-.076-.925a.179.179,0,0,1,.218.018.3.3,0,0,1,.074.327.212.212,0,0,1-.212.138.259.259,0,0,1-.239-.209A.286.286,0,0,1,535.069,774.333Z" transform="translate(-517.335 -772.212)" fill="#6d6d6d"/><path d="M523.619,764.439a.527.527,0,0,0,.227.061l.041,0a.436.436,0,0,0,.23-.1.6.6,0,0,0-.333-1.092h0a.55.55,0,0,0-.515.434h0a.541.541,0,0,0,.018.421A.666.666,0,0,0,523.619,764.439Zm.064-.56c.022-.064.06-.133.1-.133h0a.169.169,0,0,1,.13.114.175.175,0,0,1-.06.2.362.362,0,0,1-.048-.02.4.4,0,0,1-.131-.082A.125.125,0,0,1,523.683,763.879Z" transform="translate(-507.855 -763.303)" fill="#6d6d6d"/></g><g transform="translate(54 235.387)"><path d="M263.658,791.264c-1.349-6.74-9.044-9.351-15.218-10.078a16.72,16.72,0,0,0-16.559,7.921c-2.467,3.922-3.475,9.273-.857,13.1,1.845,2.693,5.033,4.049,7.859,5.684a15.883,15.883,0,0,0,4.934,2.292,11.194,11.194,0,0,0,5.386-.694A24.561,24.561,0,0,0,260,802.99C262.84,799.836,264.492,795.429,263.658,791.264Z" transform="translate(-228.878 -777.549)" fill="#fef9e2"/><path d="M272.285,789.673a.325.325,0,0,0-.023-.044,5.279,5.279,0,0,0,.124-1.064,2.4,2.4,0,0,0-.506-1.664,2.744,2.744,0,0,0-1.751-.748,14.974,14.974,0,0,0-3.007-.107c-.3-.173-.617-.346-.956-.5a3.375,3.375,0,0,0-1.723-.439,3.054,3.054,0,0,0-1.794,1.039,3.634,3.634,0,0,0-1.9.472,11.748,11.748,0,0,0-1.955,1.218,2.17,2.17,0,0,0-.723.819,2.139,2.139,0,0,0-.049,1.278,9.368,9.368,0,0,0,.98,2.69c.156.284.327.558.5.827a.344.344,0,0,0-.014.073,5.919,5.919,0,0,0,.423,2.582,4.734,4.734,0,0,0,.712,1.021,13.676,13.676,0,0,1-4.482,1.8c-.336.091-.676.183-1.015.28a2.96,2.96,0,0,0-.465-3.063,1.777,1.777,0,0,0,.729-.228,2.645,2.645,0,0,0,1.072-1.63,5.411,5.411,0,0,0-.633-4.727l-.082-.106a1.024,1.024,0,0,1-.281-.564.685.685,0,0,0-.161-.5.666.666,0,0,0-.391-.187,1.5,1.5,0,0,0-.669.065,1.619,1.619,0,0,0-.84-.85.364.364,0,0,0-.088-.018l-.005-.006c-.542-.481-1.3-.029-1.55.119a10.964,10.964,0,0,1-2.56,1.1,2.511,2.511,0,0,0-.762.318,1.079,1.079,0,0,0-.492,1.006,1.391,1.391,0,0,0,.161.437,2.494,2.494,0,0,0,.2.306c-.17.039-.339.085-.505.139-.506.163-.552.495-.549.633a.708.708,0,0,0,.132.362l2.014,3.107a5.488,5.488,0,0,0,1.335,1.568,2.986,2.986,0,0,0,3.316.045,2.257,2.257,0,0,1,.215,2.771.352.352,0,0,0-.053.185,11.146,11.146,0,0,0-2.778,1.313,5.094,5.094,0,0,0-2.366,3.389.361.361,0,0,0,.317.4l.042,0a.361.361,0,0,0,.358-.319,4.4,4.4,0,0,1,2.052-2.875,14.463,14.463,0,0,1,4.495-1.776,14.175,14.175,0,0,0,4.8-1.968,6.335,6.335,0,0,0,2.448,1.571,2.055,2.055,0,0,0,.63.117,1.356,1.356,0,0,0,.139-.008,2.12,2.12,0,0,0,.642-.2l.289-.13a.351.351,0,0,0,.155.1,9.977,9.977,0,0,0,2.27.383c.094,0,.194.009.3.009a2.988,2.988,0,0,0,.572-.05,4.172,4.172,0,0,0,.873-.307,3.276,3.276,0,0,0,1.211-.771,3.334,3.334,0,0,0,.628-1.966s0,0,0-.007a2.937,2.937,0,0,0,1.409-.736,2.467,2.467,0,0,0,.568-1.735,8.716,8.716,0,0,0-.434-2.323Zm-17.55-.8h.016v.011s0,.08,0,.084a1.636,1.636,0,0,0,.431.918l.075.1a4.7,4.7,0,0,1,.516,4.093,1.91,1.91,0,0,1-.744,1.206,1.31,1.31,0,0,1-1.224-.018h0a3.778,3.778,0,0,1-1.781-2.53,1.687,1.687,0,0,1,.427-1.03l.083-.122c.034-.051.063-.1.1-.156a.355.355,0,0,0,.025-.041c.178-.284.34-.573.493-.857.177-.328.344-.637.54-.935A1.463,1.463,0,0,1,254.735,788.877Zm-4.264,1.186c0-.01.031-.067.249-.184l.623-.333a.877.877,0,0,0,.027.257,4.19,4.19,0,0,1-.377.2.8.8,0,0,1-.421.11A.236.236,0,0,1,250.47,790.063Zm.828.594a4.983,4.983,0,0,0,1.708-1.321c-.177.283-.338.573-.491.856-.139.257-.276.5-.421.739a2.607,2.607,0,0,1-1.069-.166A2.488,2.488,0,0,0,251.3,790.657Zm2.046-1.781a1.886,1.886,0,0,0,.194-.432.875.875,0,0,1,.075.17A2.5,2.5,0,0,0,253.345,788.875Zm-4.376,1.477a2.325,2.325,0,0,1-.213-.316.817.817,0,0,1-.087-.208.379.379,0,0,1,.189-.31,2.129,2.129,0,0,1,.615-.236,11.558,11.558,0,0,0,2.664-1.156c.485-.287.65-.247.7-.2.1.087.028.38-.151.64a4.232,4.232,0,0,1-.626.718.6.6,0,0,0-.18-.385.658.658,0,0,0-.822-.022l-.683.365a1.024,1.024,0,0,0-.627.76.728.728,0,0,0,.183.531,5.866,5.866,0,0,0-.821.018C249.068,790.484,249.019,790.418,248.969,790.352Zm2.187,5.543a4.884,4.884,0,0,1-1.148-1.373l-1.981-3.023h0a5.19,5.19,0,0,1,.944-.21l.017,0a5.28,5.28,0,0,1,.967-.032,3.872,3.872,0,0,1,.807.184,5.558,5.558,0,0,0,.869.206,1.918,1.918,0,0,0-.327,1.127,4.432,4.432,0,0,0,2.183,3.145c.036.018.074.031.11.047A2.264,2.264,0,0,1,251.156,795.9Zm20.185-8.517a1.72,1.72,0,0,1,.325,1.178,4.666,4.666,0,0,1-.517,2.066,2.092,2.092,0,0,0-.212-.222,5.915,5.915,0,0,0-.936-2.578,2.714,2.714,0,0,0-.676-.73,2.023,2.023,0,0,0-.837-.308l-.087-.044a14.371,14.371,0,0,1,1.631.126A2.1,2.1,0,0,1,271.341,787.379Zm-1.529,8.9a1.4,1.4,0,0,1-.373.694,1.481,1.481,0,0,1-.99.172,5.965,5.965,0,0,1-1.8-.339,3.131,3.131,0,0,1-.995-.611l.152-.034c.6-.138,1.2-.275,1.8-.441a2.339,2.339,0,0,0,1.033-.5,1.181,1.181,0,0,0,.369-1c.1-.02.192-.035.288-.057a5.036,5.036,0,0,0,.934-.3A9.605,9.605,0,0,1,269.812,796.283Zm-8.7-3.331a1.6,1.6,0,0,1-.121-.651.9.9,0,0,1,.506-.7,5.73,5.73,0,0,0,.976,2.041,1.5,1.5,0,0,0,.714.575,1.041,1.041,0,0,0,.318.049,2,2,0,0,0,1.142-.5l.176-.134a1.283,1.283,0,0,0,.642.788,1.489,1.489,0,0,0,.623.1,14.682,14.682,0,0,0,2.207-.174.474.474,0,0,1-.152.352,1.74,1.74,0,0,1-.73.332c-.585.162-1.175.3-1.816.444a11.545,11.545,0,0,1-1.7.3,1.512,1.512,0,0,1-.586-.043,1.609,1.609,0,0,1-.509-.354A6.119,6.119,0,0,1,261.115,792.953Zm1.167-4.383a1.4,1.4,0,0,1,.261-.511c.357-.38,1.065-.255,1.6-.081a10.792,10.792,0,0,1,2.153.977,2.211,2.211,0,0,0-.379.188,1.663,1.663,0,0,0-.768.091,2.374,2.374,0,0,0-.952.7,1.912,1.912,0,0,0-.525,1.217,2.064,2.064,0,0,0,.361,1.09,2.032,2.032,0,0,0,.594.642l-.409.312c-.272.206-.58.411-.8.336a.89.89,0,0,1-.359-.323A5.111,5.111,0,0,1,262.282,788.57Zm5.7-1.1a1.706,1.706,0,0,1,.937.223,2.091,2.091,0,0,1,.489.546,5.1,5.1,0,0,1,.707,1.651c-.12-.053-.238-.1-.35-.141a9.338,9.338,0,0,0-1.581-.425,1.171,1.171,0,0,0-.334-.331,1.208,1.208,0,0,0-.46-.155.361.361,0,0,0-.1-.1,11.612,11.612,0,0,0-1.5-.863A5.485,5.485,0,0,1,267.984,787.466Zm2.339,5.522a2.961,2.961,0,0,1-1.184.47,13.994,13.994,0,0,1-3.049.341.865.865,0,0,1-.326-.038c-.156-.07-.247-.309-.319-.568a.36.36,0,0,0,.068-.075,1.083,1.083,0,0,1,.656-.375c.108-.027.218-.05.327-.072a3.906,3.906,0,0,0,.728-.2,2.131,2.131,0,0,0,1.281-2.348,8.5,8.5,0,0,1,1.013.3,2.423,2.423,0,0,1,1.1.688A1.424,1.424,0,0,1,270.323,792.988Zm-2.677-3.169a.347.347,0,0,0,.016.034,1.412,1.412,0,0,1-.715,1.951,3.259,3.259,0,0,1-.6.158c-.121.025-.242.05-.362.08a2.636,2.636,0,0,0-.391.134,2.914,2.914,0,0,1,.259-.52,3.636,3.636,0,0,1,.311-.417,2.154,2.154,0,0,0,.591-1.133,1,1,0,0,0-.076-.525,1.47,1.47,0,0,1,.512-.053.585.585,0,0,1,.269.07A.6.6,0,0,1,267.646,789.819Zm-1.874.023a.355.355,0,0,0,.264.052.372.372,0,0,1,.007.141,1.559,1.559,0,0,1-.431.748,4.2,4.2,0,0,0-.373.5,3.1,3.1,0,0,0-.382.855,1.826,1.826,0,0,1-.216-.286,1.34,1.34,0,0,1-.252-.7,1.277,1.277,0,0,1,.35-.754,1.663,1.663,0,0,1,.658-.492A1.121,1.121,0,0,1,265.772,789.842Zm-1.26-4.021a2.706,2.706,0,0,1,1.349.375c.4.187.765.4,1.148.614a6.236,6.236,0,0,0-1.934.591.353.353,0,0,0-.123.107c-.2-.076-.39-.151-.59-.216a3.012,3.012,0,0,0-1.587-.146,2.1,2.1,0,0,1,.379-.49A2.439,2.439,0,0,1,264.512,785.82Zm-5.781,3.968a1.5,1.5,0,0,1,0-.85,1.566,1.566,0,0,1,.5-.535,11.1,11.1,0,0,1,1.836-1.144,3.961,3.961,0,0,1,1.033-.376,1.25,1.25,0,0,0-.115.673c0,.011.008.021.01.032a2.06,2.06,0,0,0-.4.755,5.756,5.756,0,0,0-.235,2.531,1.607,1.607,0,0,0-1.087,1.37,2.308,2.308,0,0,0,.16.949,5.76,5.76,0,0,0,.44.944,3.571,3.571,0,0,1-.216-.288,17.493,17.493,0,0,1-1.022-1.579A8.627,8.627,0,0,1,258.732,789.788Zm5.966,8.68a1.555,1.555,0,0,1-.427.144,1.276,1.276,0,0,1-.47-.078,6.064,6.064,0,0,1-2.588-1.84,4.172,4.172,0,0,1-.647-.908,3.627,3.627,0,0,1-.311-1.269,1.828,1.828,0,0,0,.4.393,1.153,1.153,0,0,0,.649.211.939.939,0,0,0,.236-.031,8.3,8.3,0,0,0,.776.817,2.229,2.229,0,0,0,.758.5,1.834,1.834,0,0,0,.61.093c.093,0,.182,0,.268-.01a8.043,8.043,0,0,0,.883-.12,3.537,3.537,0,0,0,1.45,1.065,3.983,3.983,0,0,1-1.587,1.031Zm4.46,0a3.537,3.537,0,0,1-.722.26,2.947,2.947,0,0,1-.7.029,9.238,9.238,0,0,1-1.61-.227,2.853,2.853,0,0,0,.872-.865,7.854,7.854,0,0,0,1.4.2c.1.006.2.01.311.01a1.815,1.815,0,0,0,1.175-.341,1.836,1.836,0,0,0,.546-.859c.031-.015.067-.026.1-.04a2.218,2.218,0,0,1-.421,1.244A2.69,2.69,0,0,1,269.158,798.471Zm3.009-3.311a2.519,2.519,0,0,1-1.17.561c-.1.03-.208.062-.313.1a10.349,10.349,0,0,0,.282-2.44,2.189,2.189,0,0,0,.561-1.971,5.321,5.321,0,0,0,.331-.59l.276.975a8.151,8.151,0,0,1,.407,2.131A1.826,1.826,0,0,1,272.167,795.159Z" transform="translate(-242.074 -780.547)" fill="#6d6d6d"/><path d="M285.741,846.854a.361.361,0,0,0,.3-.525,4.537,4.537,0,0,0-4.7-2.353h0a2.064,2.064,0,0,0-1.477,1.23,3.836,3.836,0,0,0,.018,1.352,16.529,16.529,0,0,0,.724,2.962,1.882,1.882,0,0,0,.646,1,.682.682,0,0,0,.666.1.752.752,0,0,0,.315-.281l.271-.382a4.556,4.556,0,0,0,2.846,1.01q.187,0,.374-.016a.621.621,0,0,0,.629-.7,6.606,6.606,0,0,0-1-3.379Z" transform="translate(-266.25 -824.222)" fill="#6d6d6d"/><path d="M235.352,832.846c.467-1.423-1.189-3.812-2.49-4.667a.735.735,0,0,0-.892-.07.786.786,0,0,0-.268.425l-.227.72a2.353,2.353,0,0,0-2.043-.343,5.775,5.775,0,0,0-1.773.911c-.587.4-.556.8-.486,1a.9.9,0,0,0,.4.439,26.151,26.151,0,0,0,4.17,2.36,3.815,3.815,0,0,0,1.261.336c.1.006.192.008.282.008,1.4,0,1.9-.6,2.069-1.118Z" transform="translate(-227.136 -812.398)" fill="#6d6d6d"/><path d="M274.181,778.276c-.365-.211-1.122-.651-1.68-.013a2.09,2.09,0,0,0-.432.854,1.024,1.024,0,0,0,.482,1.338,2.331,2.331,0,0,0,.956.464,1.291,1.291,0,0,0,.224.02,1.1,1.1,0,0,0,.947-.49,1.488,1.488,0,0,0,.17-.513,1.546,1.546,0,0,0-.17-1.281A1.643,1.643,0,0,0,274.181,778.276Zm-.041,1.524a.922.922,0,0,1-.078.273.431.431,0,0,1-.43.135,1.734,1.734,0,0,1-.656-.338c-.075-.055-.252-.183-.27-.283a.718.718,0,0,1,.051-.254,1.491,1.491,0,0,1,.271-.577l.015-.016a.223.223,0,0,1,.18-.088,1.59,1.59,0,0,1,.645.276.953.953,0,0,1,.248.177A.966.966,0,0,1,274.14,779.8Z" transform="translate(-260.432 -775.229)" fill="#6d6d6d"/><path d="M291.536,767.57a1.317,1.317,0,0,0-1.211.032,1.185,1.185,0,0,0-.572,1.155,1.384,1.384,0,0,0,.921,1.143,1.5,1.5,0,0,0,.493.084,1.357,1.357,0,0,0,.758-.225,1.2,1.2,0,0,0,.511-1.216A1.474,1.474,0,0,0,291.536,767.57Zm-.014,1.592a.706.706,0,0,1-.611.057.667.667,0,0,1-.441-.542.458.458,0,0,1,.237-.463.413.413,0,0,1,.218-.054.869.869,0,0,1,.331.073.793.793,0,0,1,.475.464A.477.477,0,0,1,291.522,769.162Z" transform="translate(-273.62 -767.44)" fill="#6d6d6d"/></g></g></svg>