<?xml version="1.0" encoding="UTF-8"?><svg xmlns="http://www.w3.org/2000/svg" viewBox="0 0 103.57189 140.04753"><defs><style>.cls-1{isolation:isolate;}.cls-2{fill:#ffda73;mix-blend-mode:multiply;}.cls-2,.cls-3{stroke-width:0px;}.cls-3{fill:#6d6d6d;}</style></defs><g class="cls-1"><g id="_レイヤー_2"><g id="Object"><path class="cls-2" d="M44.81879,91.37773c1.1382-2.2481,2.2879-4.5145,3.8639-6.4807,1.5471-1.93,3.4663-3.5227,5.3739-5.0974,4.8509-4.0046,9.821-8.0482,15.6628-10.381,2.9088-1.1615,5.9739-1.8729,9.0252-2.58,7.5076-1.7397,15.0151-3.4794,22.5226-5.2192.9468-.2194,2.3894-.0452,2.3008.9227-.027.2944-.2178.5457-.4141.7668-1.4742,1.6603-3.5931,2.5621-5.4947,3.7084-2.8496,1.7179-5.276,4.0405-7.7184,6.3002-9.8182,9.0844-20.2935,17.4584-31.3169,25.0352-3.9298,2.7012-8.1687,5.3848-12.9276,5.6911-2.554.1644-5.4702-1.1957-5.0399-4.2028.3906-2.7295,2.9199-6.009,4.1624-8.4633Z"/><path class="cls-2" d="M23.16559,91.48353c1.0206,1.4065,2.1216,2.7905,3.5402,3.7943,1.4186,1.0037,3.2085,1.5957,4.9124,1.2544,1.5824-.317,2.9267-1.4016,3.8885-2.6975,1.3656-1.8399,2.0662-4.2269,1.6288-6.4761-.4462-2.2945-1.9721-4.1993-3.2235-6.1736-3.2957-5.1995-4.9302-11.4312-8.9232-16.1165-2.633-3.0895-6.1253-5.3022-9.1659-7.9916-2.6874-2.3769-5.0728-5.1676-8.1923-6.9397-2.043-1.1606-3.8672-2.3174-5.7557-3.6569,2.331,5.9672,5.3111,11.7674,7.7018,17.7466,2.4201,6.0524,4.84,12.1227,7.8632,17.9058,1.6945,3.2414,3.5765,6.3889,5.7257,9.3508Z"/><path class="cls-2" d="M27.29959,47.98323c.9847,5.5488,2.163,11.4784,6.1833,15.4274,1.2991,1.2761,3.1207,2.3361,4.8725,1.839,2.2864-.6489,3.1007-3.4717,3.1481-5.848.0704-3.5234-.6979-7.0045-1.4968-10.4368-2.0148-8.657-4.2605-17.2907-7.5693-25.5402-1.6218-4.0433-3.5013-7.9892-5.7069-11.748-2.0654-3.5199-4.5411-7.9469-7.7075-10.5539.7542,7.773,2.7326,15.6192,4.0983,23.3148,1.3927,7.8485,2.7855,15.6971,4.1783,23.5457Z"/><path class="cls-2" d="M55.69189,54.42663c-5.965,8.0188-11.0589,16.9164-13.1281,26.6939-.0601.2839-.1113.6038.0507.8446.167.2483.4994.318.7983.3308,1.6557.0707,3.1553-.9443,4.3888-2.0509,4.8633-4.3631,7.5565-10.5773,11.2426-15.9718,3.5993-5.2674,8.2103-9.8302,11.387-15.3628,1.9103-3.3272,3.2634-6.9709,4.0072-10.7339.1967-.9954,1.3105-5.0655.6571-5.8748-.9166-1.1352-2.6677,1.9063-3.3229,2.6905-5.3909,6.452-11.0583,12.6826-16.0807,19.4344Z"/><path class="cls-2" d="M38.71609,21.38103c.6735,4.6898,2.4548,9.3244,5.6931,12.7829.351.3748.739.7477,1.231.8947.919.2746,1.9192-.3654,2.3487-1.223.4294-.8577.4146-1.8656.3213-2.8203-.2895-2.9624-1.2348-5.816-2.1738-8.6405-.7886-2.3721-1.5775-4.7472-2.5066-7.0688-.784-1.9592-1.781-5.4189-3.388-6.8542-2.0871-1.8641-1.7151,3.0652-1.8005,4.5923-.1555,2.7798-.1214,5.5772.2748,8.3369Z"/><path class="cls-3" d="M40.42839,102.78863c4.0064-1.6918,7.6301-4.5501,11.1357-7.3146.8958-.7075,1.7812-1.4058,2.6588-2.0704,5.1606-3.92,12.0537-8.4465,18.721-12.8255,14.2587-9.3636,27.7254-18.208,28.8022-23.5836.0816-.4031-.0833-.8163-.4192-1.0545-.3359-.2392-.7799-.2575-1.134-.0468-5.8161,3.4435-12.5343,5.4162-19.0326,7.3237-7.3695,2.1641-14.9916,4.4024-21.4775,8.8038h-.0019c-4.8289,3.2776-9.2488,7.9334-13.5117,14.2342-.3033.4479-.7144,1.0179-1.1908,1.6744-1.6078,2.2248-3.1674,4.4689-4.3442,6.5683.2932-5.4811.7392-10.7482,1.3374-15.8236-.0812.9448-.0996,1.8846-.0265,2.8131.0263.3614.2421.682.5638.8469.1486.0763.3115.114.4742.114.1895,0,.3768-.0509.5437-.1527,10.6349-6.4942,19.1039-23.4757,24.7409-34.7814,2.6181-5.2483,4.951-10.92,4.2853-16.8258-.0468-.4193-.3441-.7695-.7512-.8856-.397-.1109-.8407.0245-1.1033.3573-6.7935,8.6206-13.2002,17.69-19.0428,26.9559l-.6698,1.0586c-3.4414,5.4351-7.9405,12.5632-8.8938,19.4832,1.4371-11.7234,3.7077-22.4112,6.8474-32.3015.3531.187.7457.2982,1.1528.2982.0487,0,.0996-.001.1505-.0041.7675-.0478,1.4434-.4377,1.8608-1.0708,5.2298-7.9793,7.1291-20.5696,8.5177-29.7632l.1892-1.2581c.0877-.569-.3052-1.1004-.8734-1.1868-.5658-.0835-1.1011.3033-1.1866.8733v.0031c-.2302,1.5023-2.1193,4.8217-4.1165,8.3354-4.2602,7.4928-9.4677,16.6539-7.2629,21.827-1.1325,3.4578-2.1523,7.0169-3.0727,10.6755-.6274-7.6452-3.4813-16.1899-5.8426-23.2508l-.3076-.9202C33.98099,17.43923,27.92259,7.46793,20.13949.27753c-.35-.3237-.8773-.3694-1.2721-.1099-.399.2575-.5743.7543-.4236,1.2052,2.4897,7.4622,3.8415,15.3987,5.1507,23.0746,1.6448,9.6436,3.3448,19.6158,7.3105,28.8665,1.1012,2.564,6.0543,11.1367,10.0446,11.1367.1688,0,.3378-.0152.5027-.0478.2269-.044.4305-.1223.6237-.215-1.2754,6.7107-2.2367,13.7694-2.8919,21.2275-1.1267-3.1137-2.9387-6.9475-5.1826-11.3405-.3176-.6209-.5783-1.1278-.7514-1.483v-.0011c-2.4571-5.0294-5.6105-10.7988-10.3478-15.4516-3.2268-3.1677-7.048-5.6595-10.7429-8.0699-3.5972-2.3452-7.3167-4.7698-10.3887-7.7777-.3196-.3135-.8021-.3868-1.1969-.1863-.399.2005-.625.6311-.5639,1.0729,1.0851,7.9202,4.1306,11.9063,7.0763,15.7601,1.7549,2.2973,3.414,4.4675,4.5744,7.4092,2.6098,6.6102,6.14,12.8112,10.4925,18.4289.0957.1232,8.4302,10.6289,14.5802,10.6289.6417,0,1.2565-.124,1.8386-.376-.0955,1.7407-.1814,3.4946-.2467,5.2782-.4825,13.1939.0388,28.2954,7.5612,40.2525.1973.3156.5351.4876.8815.4876.1912,0,.3826-.0519.5555-.1598.4867-.3064.6333-.9497.3259-1.4373-6.5861-10.4727-7.5677-23.6326-7.3327-35.6391.0369-.011.0757-.0073.1118-.0227ZM43.99969,79.43953c.0594-.031.1175-.0638.1703-.1012-.0578.0431-.1151.09-.1729.1324.0004-.0104.0022-.0209.0026-.0312ZM66.36839,46.65283c-4.8596,9.744-12.8021,25.663-22.1601,32.6563.062-.0472.1205-.097.1675-.1499,6.3169-7.1375,11.6343-15.1005,15.8017-23.6681.5149-1.0596,1.0137-2.1284,1.5125-3.1972.8856-1.9014,1.7997-3.867,2.8054-5.7439.4988-.9335,1.0281-1.8587,1.5554-2.785,1.7651-3.0939,3.5726-6.2894,4.3292-9.8007.0587-.0761.1151-.1546.1738-.2307-.2484,4.4116-2.1151,8.7672-4.1854,12.9192ZM52.74689,59.28993l.6717-1.0627c5.0045-7.936,10.4351-15.7158,16.1598-23.2002-.8582,2.9853-2.4345,5.7726-3.9796,8.4795-.5313.9313-1.0608,1.8607-1.5635,2.7971-1.0117,1.8902-1.93,3.8619-2.8175,5.7694-.4967,1.0668-.9935,2.1325-1.5086,3.1901-4.1315,8.4891-9.3951,16.3815-15.6469,23.4595.6242-6.687,5.2148-13.9543,8.6846-19.4327ZM36.47879,31.49533c2.6913,8.0455,6.0423,18.0584,5.8591,26.1629-.0494,2.2247-.3685,3.5214-.7376,4.1726l-5.4898-10.1903c-1.0688-1.9799-2.1743-4.0289-3.0801-6.139-2.49-5.7857-3.5424-12.1404-4.5622-18.2854-.6822-4.1205-1.3886-8.3814-2.5226-12.4611-.8301-2.9863-1.8987-5.9126-3.1856-8.7344,5.6048,6.4708,10.1148,14.6878,13.4094,24.5535l.3094.9212ZM32.82259,52.49143c-3.87-9.0226-5.5496-18.8707-7.172-28.3951-1.067-6.2546-2.1675-12.6811-3.8848-18.9291,1.5028,3.1263,2.7484,6.3845,3.679,9.7283,1.126,4.0522,1.8282,8.2989,2.5102,12.4061,1.024,6.1755,2.0807,12.5618,4.5948,18.4055.9183,2.1315,2.0277,4.1907,3.1006,6.1807l5.5929,10.3809c-.0633.0432-.1266.0753-.188.0871-1.7751.3746-6.3597-5.4936-8.2327-9.8644ZM71.79989,78.83553c-6.6958,4.3983-13.6196,8.9453-18.8392,12.9069-.8856.6728-1.7814,1.3792-2.6874,2.0948-3.0739,2.4236-6.2397,4.9215-9.5904,6.5471-.0026-.0933.0113-.1978.0176-.2972.163-.1284.342-.2525.4832-.3441.0935-.0601.177-.116.2482-.1659,2.7993-1.9808,5.1384-4.5663,7.4002-7.0662.4764-.5283.9547-1.0556,1.4351-1.5778,10.6858-11.5948,24.0244-20.94,38.5741-27.025l.5904-.2453c1.9078-.7923,3.8691-1.613,5.5398-2.8709,1.0344-.4317,2.061-.8822,3.0675-1.3748-4.2731,4.9928-15.8282,12.5812-26.2391,19.4184ZM81.74869,65.21713c3.4086-1.0013,6.8781-2.0204,10.2669-3.2616-.9128.4454-1.8547.8402-2.7834,1.2258l-.5904.2463c-14.6189,6.1135-28.0205,15.5025-38.7573,27.1523-.4825.5233-.9609,1.0515-1.4392,1.5808-2.1702,2.3982-4.4117,4.8747-7.0458,6.7975,9.42-13.5023,21.8742-24.6426,36.2985-32.531,1.3524-.4125,2.7057-.8151,4.0507-1.2101ZM46.66799,89.15083c.4906-.6779.9161-1.2662,1.2276-1.7273,4.1123-6.0779,8.3508-10.5515,12.9578-13.6785h-.0022c4.3606-2.9584,9.3363-4.912,14.4077-6.5505-13.5528,7.8304-25.265,18.5721-34.2493,31.4358,1.0046-3.0347,4.0969-7.3182,5.6584-9.4795ZM50.36089,43.43523c-.0692.1079-.1851.1303-.2462.1343-.0377-.0019-.0842-.0045-.1323-.0166,1.9546-4.3577,3.4887-8.9552,4.9753-13.4409l2.0529-6.1909c-1.3246,7.0048-3.2661,14.3521-6.6497,19.5141ZM56.44589,22.61423c.3783-.6665.7407-1.3038,1.0877-1.9215l-3.0808,9.289c-1.4508,4.3744-2.9609,8.8862-4.8648,13.1628-2.6013-3.8924,3.0688-13.8684,6.8579-20.5303ZM21.44039,58.62733c4.5135,4.4308,7.557,10.0079,9.9367,14.8795.1773.3634.4418.8815.7677,1.5167,5.4338,10.6347,6.4123,14.6117,6.3144,16.0899-.5075-.8821-1.0385-1.7635-1.571-2.6242-.7492-1.2073-1.5228-2.4562-2.1743-3.6817-1.4334-2.6964-2.9133-5.4834-4.5481-8.1524-3.0272-4.9479-6.5755-9.504-10.2482-14.1232-3.3428-4.2035-6.7377-8.3991-10.1333-12.5257.412.2701.8251.5423,1.235.8097,3.6115,2.3534,7.3432,4.7882,10.4211,7.8114ZM38.14819,91.90123c-.0749.0518-.1547.0931-.2346.1346-.9554-.2376-1.8277-1.0366-2.5849-1.8447-7.5895-8.1116-13.8576-17.3052-20.1401-26.7991-3.8722-5.8489-7.7284-11.7904-11.5119-17.7002,1.4943,1.1744,3.0436,2.2712,4.6101,3.3199,3.7582,4.5509,7.5224,9.191,11.2238,13.8439,3.6623,4.6069,7.1986,9.1488,10.2115,14.0724,1.6245,2.6546,3.1025,5.4345,4.5317,8.1238.6596,1.2408,1.4373,2.4968,2.1906,3.7122.6165.9949,1.2421,2.0179,1.8117,3.0341-.0346.044-.0712.0777-.1079.1031ZM23.80199,82.49993c-4.2324-5.463-7.6647-11.491-10.2034-17.918-1.266-3.2114-3.0923-5.5994-4.8574-7.909-2.3418-3.0671-4.7501-6.2278-6.0564-11.5587,3.9596,6.1939,8.0084,12.4308,12.0681,18.5648,6.2968,9.5133,12.5793,18.7273,20.197,26.8683.6324.6772,1.347,1.347,2.1415,1.7388-3.6344.4358-10.3146-5.9435-13.2894-9.7862Z"/><path class="cls-3" d="M46.68819,35.10683c.1732,0,.3483-.0306.5254-.0977,1.1766-.4469,1.2458-2.0012,1.1584-3.4619-.1954-3.3102-1.0464-6.7537-1.7284-9.5193-.9223-3.7327-2.1151-7.4317-3.5465-10.9932-.8264-2.0542-2.109-2.0328-2.63-1.928-.4094.0835-.729.4031-.8123.8123-.4886,2.3972-.3563,4.8513-.1629,7.3655.4377,5.6391,1.1664,11.5266,4.7597,16.0909.4294.5486,1.3598,1.7314,2.4366,1.7314ZM41.42989,12.48413c1.2765,3.2634,2.3494,6.6387,3.19,10.0426.6617,2.6841,1.4862,6.0238,1.6715,9.1447.0225.3848.0244.682.0142.91-.116-.1282-.2543-.2901-.4172-.4947-3.2309-4.1062-3.9046-9.6435-4.3201-14.962-.124-1.6398-.2197-3.1687-.1384-4.6406Z"/></g></g></g></svg>