<?xml version="1.0" encoding="UTF-8"?><svg xmlns="http://www.w3.org/2000/svg" viewBox="0 0 75.10554 105.72686"><defs><style>.cls-1{isolation:isolate;}.cls-2{fill:#ffda73;mix-blend-mode:multiply;}.cls-2,.cls-3{stroke-width:0px;}.cls-3{fill:#6d6d6d;}</style></defs><g class="cls-1"><g id="_レイヤー_2"><g id="Object"><path class="cls-2" d="M7.05316,19.00545c-1.2777-.5572-2.6209-1.1103-4.0121-1.0233-1.3913.087-2.8331,1.0207-3.0196,2.4022-.1086.8043.2127,1.6004.5656,2.3314,2.234,4.6265,5.9826,8.4031,10.2378,11.2821,2.8349,1.9181,24.3571,13.2732,20.5236,2.3121-1.4393-4.1153-7.0144-7.6683-10.4605-9.9771-4.3426-2.9094-9.0509-5.2411-13.8348-7.3274Z"/><path class="cls-2" d="M61.17546,30.00795c-1.7358.5863-3.2392,1.6956-4.6961,2.8065-3.8929,2.9685-7.7093,6.0975-10.8447,9.8573s-5.5794,8.2098-6.3635,13.0422c-.1455.8963-.1824,1.9488.4855,2.564.9047.8333,2.3533.2678,3.4092-.3631,6.172-3.6877,11.6218-8.5661,16.0147-14.2546,2.0405-2.6424,12.0289-17.0416,1.9949-13.6523Z"/><path class="cls-2" d="M30.89296,56.90605c-.5947-.9395-1.4618-1.7534-2.5317-2.056-.7779-.2201-1.6121-.1576-2.3991.0274-1.0562.2482-2.089.7367-2.7931,1.5622-.7623.8937-1.0715,2.1121-1.0289,3.286s.41,2.3136.8717,3.3937c.1883.4406.3995.8839.7382,1.2228.3228.3229.7423.5311,1.1677.6969,1.6837.6566,3.6868.6941,5.2221-.2592,2.749-1.7069,2.2448-5.5169.7531-7.8738Z"/><path class="cls-2" d="M18.34236,62.96865c-1.0267.1092-2.0623.4446-2.821,1.1448-1.4196,1.3103-1.4924,3.6978-.428,5.3099s3.0287,2.4754,4.9583,2.5682c1.6681.0802,3.5441-.5088,4.2833-2.0063.4024-.8151.4029-1.7848.1679-2.6631-.8256-3.0855-2.9844-4.6913-6.1605-4.3535Z"/><path class="cls-2" d="M13.66936,55.57165c-.9829-.049-1.9976.1455-2.8236.6806-.8259.5351-1.4389,1.4368-1.499,2.4191-.0362.5926.1233,1.1818.3476,1.7314.2205.5404.5114,1.0632.9354,1.4643.5216.4935,1.207.7704,1.8823,1.0146.5725.2069,1.1727.4011,1.7782.3386.6847-.0707,1.29-.4595,1.86-.8454,3.7801-2.5596,1.6813-6.5958-2.4809-6.8032Z"/><path class="cls-3" d="M37.81666,104.03525c-1.2633-1.5903-2.2328-3.5701-3.0537-6.2258-1.2513-4.0518-1.7277-8.2126-1.7184-12.3116,3.0382-2.6542,6.7216-4.6795,10.657-5.8569.9983-.2979,2.0483-.485,3.0635-.6659.8875-.1578,1.7839-.3181,2.6631-.5516,1.0888,2.1165,2.5356,3.9406,4.2544,5.0298,1.6716,1.0652,3.7768,1.7257,6.4338,2.017,3.2851.3654,7.9877.228,11.7399-2.5004,2.1372-1.5506,3.8983-4.3323,3.017-7.0463-.535-1.6494-1.9926-3.0094-4.2099-3.9331-2.9421-1.2306-6.2835-1.5428-9.4083-.8862-1.8813.3983-3.6489,1.1277-5.3126,2.0068,1.8413-3.2303,2.6861-7.0262,2.3459-10.7369-.054-.5933-.1531-1.2207-.4978-1.7909-.5214-.8745-1.5419-1.4275-2.6601-1.4583-.7995-.0244-1.6282.1932-2.5379.667-2.8494,1.4812-4.8975,4.5884-5.3437,8.1081-.3151,2.5036.1811,5.6852,1.3111,8.5933-.6847.1668-1.4081.2943-2.1595.4299-1.0737.1906-2.1839.3887-3.2946.721-3.6157,1.0803-7.03,2.8343-9.9878,5.1058.3332-6.2425,1.6826-12.2461,3.0592-17.3811l.5616-2.058c.6582-2.3992,1.3244-4.8471,1.8106-7.3374.0407.1086.0776.2181.141.3222.0536.088.1138.1679.1758.2406.7136.8363,1.9699.8,2.407.7885,2.3042-.069,4.8953-.7866,7.7043-2.1396,3.1149-1.4993,5.8526-3.5223,8.8546-5.8189,2.9326-2.2399,5.535-4.3055,7.7037-6.8917,2.5719-3.0672,4.0575-6.4195,4.2969-9.6909.0355-.4853.0391-1.0049-.1883-1.5253-.5591-1.3077-2.1115-1.7816-4.1401-1.2656-8.5365,2.1647-15.7432,6.6281-20.2926,12.5652-2.1195,2.7693-3.7137,5.8879-5.2551,8.9051-.1179.2319-.2558.478-.3957.7312-.1937.3501-.3931.7121-.5712,1.0775.112-.8621.2026-1.7276.2469-2.5992.2279-4.5032-.7765-8.4685-3.2461-12.7521,2.1221-.6306,4.1205-2.071,5.67-4.097,1.2695-1.6611,2.2799-3.7169,3.1796-6.4731,1.2689-3.8792,1.9732-7.9244,2.6553-11.8358l2.1736-12.4256c.0808-.465.3279-1.8721-.7111-2.6743-.4255-.3246-.9858-.4622-1.6195-.4003-1.2647.1237-2.2722.8764-3.1714,1.6731-6.6229,5.8625-10.9507,14.4744-11.8731,23.6273-.2283,2.2821-.3924,4.8766-.1596,7.3304-1.4725-1.7943-3.2736-3.4263-4.9318-4.8699-4.61-4.0227-10.073-7.0847-15.8001-8.8537-2.0282-.6268-4.694-1.2827-7.3274-.7967-1.121.2074-1.9069.6319-2.4,1.296-.8181,1.1049-.714,2.5818.3122,4.3928.953,1.6785,2.0707,3.2643,3.3248,4.7339,2.8675,3.3606,6.4545,6.1153,10.4555,7.9815,3.6651,1.711,7.7645,2.6982,11.8585,2.8606,2.5169.0993,4.9685.0029,6.0704-1.2594.0302.0519.0561.1071.0873.1584,2.583,4.2377,3.5919,7.9103,3.3704,12.2768-.2085,4.112-1.3364,8.2191-2.428,12.1932l-.5623,2.0695c-.2954,1.1013-.5884,2.2455-.8721,3.4192-1.0488-1.2402-2.3041-2.3103-3.6988-3.1413.4411-.1388.8718-.3076,1.272-.5433,1.0905-.6415,2.0435-1.6448,2.9144-3.0674,1.4293-2.3332,1.8412-4.6731,1.1657-6.5908-.5627-1.594-1.8989-2.9372-3.6565-3.6829-1.365-.5772-2.9496-.8096-4.849-.7116-2.829.1471-5.0552,1.8569-5.9549,4.5755-.8277,2.4998-.3385,5.2905,1.1497,7.3236-.4672-.0217-.9517-.0235-1.4625.0032-2.8273.1459-5.0524,1.8569-5.9535,4.577-.8881,2.682-.2759,5.711,1.4776,7.7659.2642.3096.5561.5985.8721.859,2.3201,1.9192,5.6223,2.2702,8.0306.8523,1.0889-.6402,2.0434-1.6448,2.9173-3.0703,1.3725-2.2482,1.7947-4.4975,1.2213-6.3712,1.5147.9431,2.8376,2.211,3.8222,3.6948.0359.0576.0904.0929.1352.1402-1.8166,8.4099-2.8129,18.2102.0761,27.5627.8873,2.8746,2.0038,5.1334,3.4125,6.9098.008.0094.0159.0185.0239.0279.3634.4259.9994.4907,1.4416.1402.4499-.3572.5263-1.0141.1679-1.4655ZM72.58206,79.03275c-6.6883,2.1577-14.1401,1.9582-20.7186-.5203-.0232-.0375-.0479-.0723-.0709-.1103,2.8041-.0263,5.6946.1333,8.502.2922,4.0992.2309,8.3235.461,12.3825.1274-.0314.0705-.0599.1415-.095.211ZM70.63236,81.28465c-3.2143,2.3332-7.3669,2.4377-10.2871,2.1141-2.3334-.2569-4.1464-.8135-5.543-1.7037-.9226-.5865-1.7533-1.4423-2.4763-2.463,6.345,2.2325,13.4276,2.4078,19.864.4617-.4298.6177-.9808,1.1709-1.5576,1.5909ZM61.68556,73.14555c2.7152-.5721,5.6179-.3004,8.1729.7681,1.1447.4792,2.6011,1.3266,3.0331,2.6545.1814.5601.1452,1.143-.018,1.713-4.0962.3617-8.3866.1268-12.5493-.107-2.6862-.1518-5.4442-.2986-8.1395-.2901,2.8343-1.9067,6.028-4.0068,9.5008-4.7385ZM52.86836,73.96515c-.681.8753-1.4684,1.4535-2.3434,1.8665l.4971-.8343c2.094-3.5113,4.4236-7.4443,5.2195-11.763.1863,3.8305-1.0135,7.7059-3.3732,10.7308ZM53.55516,61.64135c.5858-.3045,1.0808-.4457,1.5144-.4332.3572.0109.6912.1515.8736.3651.0038.0045.0065.0095.0101.0139-.0011.0154-.0023.0344-.0032.0445-.4393,4.8201-3.0618,9.2174-5.3747,13.0993l-.2807.471c-.8553-2.4245-1.2315-5.0142-.9755-7.0397.3601-2.8523,1.9831-5.3505,4.236-6.5209ZM41.10656,53.71375c6.1309-7.7176,13.8919-14.5658,23.1563-20.3867-.3687.3896-.7241.7917-1.0776,1.1896l-.1727.1929c-6.6123,7.4397-14.111,14.0896-22.2867,19.7702.1115-.249.2477-.5173.3807-.766ZM67.70576,32.04575c.0118.0139.0209.0277.0268.044.0511.1195.0286.4224.0209.5389-.2619,3.582-2.2195,6.604-3.8156,8.5063-2.03,2.4228-4.5397,4.4119-7.3725,6.5775-2.9082,2.2245-5.5555,4.181-8.4919,5.5947-2.5445,1.2238-4.853,1.8743-6.8605,1.9335-.4517.0132-.6668-.0413-.7201-.0254,0-.0052.0026-.0132.0028-.0187.1634-.0646.3186-.1425.4398-.2278,8.2431-5.7171,15.8029-12.4166,22.4686-19.9133l.1713-.1944c.9468-1.0681,1.9285-2.1528,3.0856-2.9643.5399-.0584.9266.0106,1.0448.149ZM46.86726,43.82695c4.0808-5.3284,10.4876-9.3941,18.1141-11.5316-8.9113,5.4716-16.5096,11.853-22.6222,19.0502,1.3339-2.5935,2.7449-5.2161,4.5081-7.5186ZM45.54956,3.24815c.5925-.5241,1.2834-1.0897,2.0975-1.2302.0109.0253.061.1781-.0313.7144l-2.1728,12.4249c-.6692,3.8386-1.3633,7.8081-2.5846,11.5454-.8238,2.5253-1.7306,4.3858-2.8548,5.8533-1.3726,1.7975-3.1391,3.0266-4.9715,3.4635-.0133.0032-.028.0079-.0413.0112-1.1839-3.0309-.9395-7.3581-.6224-10.5054.8701-8.6401,4.9451-16.7579,11.1812-22.2771ZM4.02596,23.14625c-.0126-.0213-.0268-.0417-.0393-.0631,8.2969,4.464,17.0481,8.5076,25.525,12.4258l2.531,1.1722c-10.6095-.9622-20.6677-5.8258-28.0167-13.5349ZM3.35006,20.66255c.1617-.2181.5328-.3822,1.1029-.4888,2.1864-.4016,4.5343.1828,6.3342.7397,5.4507,1.6833,10.6523,4.5991,15.0464,8.4314,1.4897,1.3005,3.1046,2.754,4.434,4.3119.6026.7062,1.1485,1.4338,1.595,2.1797.0547.0913.0918.1687.1303.2468l-2.2648-1.0483c-8.7123-4.028-17.7111-8.1922-26.2058-12.8017-.3226-.7173-.3905-1.277-.1722-1.5707ZM27.70866,37.30695c-3.8191-.1508-7.6435-1.073-11.0581-2.666-4.4882-2.0951-8.4027-5.399-11.2769-9.4284,7.0838,6.6548,16.2719,10.8912,25.9534,11.9181-.6286.1465-1.7108.251-3.6184.1763ZM22.46306,55.74185c.6297-1.8996,2.1171-3.0482,4.0832-3.1496,1.5761-.0818,2.8615.098,3.929.5493.7336.3107,1.3655.7723,1.8308,1.3175.2998.3514.5307.738.6722,1.139.6278,1.7739-.342,3.7737-.977,4.8078-.6883,1.1254-1.405,1.8975-2.1926,2.3608-1.6404.9661-4.0139.6872-5.6458-.6606-1.7533-1.4559-2.4585-4.0763-1.6998-6.3642ZM25.73796,72.30705c-.6915,1.1278-1.4081,1.9001-2.1958,2.3632-1.6403.9663-4.0138.6874-5.6458-.6606-1.7521-1.4512-2.4587-4.0733-1.6981-6.3652.6283-1.9013,2.117-3.0484,4.0802-3.1501,1.5791-.0814,2.8644.0983,3.9305.551.732.3091,1.3642.7708,1.8293,1.3158.3.3516.5307.738.6736,1.1407.6251,1.7708-.3419,3.7706-.9739,4.8052Z"/><path class="cls-3" d="M18.71366,55.34975c-.4303-1.2225-1.4425-2.2456-2.7784-2.8076-1.0144-.4298-2.1905-.6038-3.5983-.5318-2.1488.1101-3.84,1.4087-4.5234,3.4744-.6678,2.0149-.2054,4.2913,1.1147,5.8383.1996.2339.4191.4535.659.65,1.752,1.4542,4.2529,1.7128,6.0796.6358.8207-.4809,1.5356-1.2302,2.1887-2.2932,1.0667-1.7451,1.371-3.5086.8581-4.9659ZM10.91576,60.36845c-1.163-.9771-1.6284-2.7049-1.1238-4.2275.241-.7275.9059-1.9585,2.6517-2.0485,1.0845-.0557,1.9615.0657,2.6781.3693.4821.2042.896.5043,1.1986.8589.1903.223.3369.4669.4265.7225.407,1.1513-.2463,2.4902-.6693,3.1831-.4676.763-.949,1.2807-1.4686,1.5877-1.068.6301-2.6198.4424-3.6932-.4455Z"/></g></g></g></svg>