<?xml version="1.0" encoding="UTF-8"?><svg xmlns="http://www.w3.org/2000/svg" viewBox="0 0 139.81149 118.2137"><defs><style>.cls-1{isolation:isolate;}.cls-2{fill:#ffda73;mix-blend-mode:multiply;}.cls-2,.cls-3{stroke-width:0px;}.cls-3{fill:#6d6d6d;}</style></defs><g class="cls-1"><g id="_レイヤー_2"><g id="Object"><path class="cls-2" d="M6.26214,47.96659c-1.1777,1.2699-2.4119,2.7634-2.2984,4.4917.0216.3281.0979.6633.2939.9273.4785.6447,1.4346.6306,2.2292.5155,4.6891-.6792,9.1776-2.692,12.8037-5.7416,4.032-3.3911.9642-6.4702-3.473-6.2116-3.8118.2221-7.1,3.3713-9.5554,6.0187Z"/><path class="cls-2" d="M19.87164,37.83939c.4835,1.0737,1.1416,2.1126,2.1208,2.7667.9791.6541,2.3317.8462,3.3365.232,3.5937-2.197.7401-10.7636-2.0222-12.5911-5.7234-3.7865-4.683,6.8216-3.4351,9.5924Z"/><path class="cls-2" d="M1.81944,36.64759c2.5615,1.9552,5.6939,3.1206,8.8984,3.4597.9767.1034,1.994.127,2.9085-.2312s1.7061-1.1775,1.7705-2.1575c.0801-1.2177-.908-2.2134-1.831-3.0118-2.2871-1.9786-6.4337-5.6203-9.7065-5.3571-4.1612.3346-5.1394,4.9319-2.0399,7.2979Z"/><path class="cls-2" d="M31.24574,35.72799c-.914,1.6119-1.2804,3.4912-1.2981,5.3441-.0112,1.1682.1305,2.3935.7906,3.3574.6602.9638,1.9658,1.5644,3.0394,1.1037.8077-.3467,1.2893-1.171,1.6784-1.9593,1.262-2.5562,2.7275-6.5389,1.619-9.3996-1.3339-3.4424-4.4758-.8335-5.8293,1.5537Z"/><path class="cls-2" d="M61.26664,13.30989c-.5776.101-1.1728.2876-1.5712.7179-.348.3757-.5018.8905-.5923,1.3945-.4079,2.2717.2876,4.6645,1.6335,6.5394s3.2975,3.2594,5.4115,4.1854c.735.322,1.6235.5821,2.3041.157.7725-.4825.8487-1.565.7804-2.4733-.3638-4.8365-1.8392-11.5928-7.966-10.5209Z"/><path class="cls-2" d="M67.76674,6.04029c.2956,3.2146,1.0221,6.3872,2.1254,9.4209.3996,1.0986.8765,2.22,1.7522,2.9946.8756.7747,2.2565,1.0964,3.2282.4464,1.1341-.7587,1.2206-2.375,1.0923-3.7334-.3764-3.9851-1.5545-8.4817-3.7237-11.8941-2.2961-3.6121-4.816-.9492-4.4744,2.7656Z"/><path class="cls-2" d="M80.76264,18.12129c-1.0048.8443-1.9746,1.8443-2.2971,3.1164-.0547.2158-.088.4522.0041.6549.0853.1877.264.3145.4436.4156,1.0236.5763,2.2597.5872,3.4342.5635,3.3867-.0683,6.7701-.2996,10.1346-.693,2.1679-.2535,4.3695-.5867,6.328-1.5503,1.0622-.5227,2.0788-1.2776,2.5514-2.363.6591-1.514.041-3.403-1.2451-4.4386-4.8619-3.9152-15.4096.9802-19.3537,4.2945Z"/><path class="cls-2" d="M75.31154,32.16599c2.671,1.8935,5.9203,2.9592,9.1939,3.0155,1.9766.034,4.2087-.4511,5.2428-2.136.9913-1.6152.4528-3.8459-.8613-5.2115-2.3516-2.4436-8.3703-3.3071-11.6799-3.4121-4.6729-.1482-5.4547,5.221-1.8955,7.7441Z"/><path class="cls-2" d="M14.10864,89.93299c-1.3837,1.3725-2.6069,3.0705-2.7552,5.0138-.0347.4559.0066.9563.3118,1.2969.2502.2792.6306.3978.9958.4825,3.1304.7257,6.4028-.1749,9.3962-1.3434,2.1993-.8586,4.3407-1.8657,6.4046-3.0123,1.0152-.564,2.036-1.1826,2.7515-2.0973.7156-.9146,1.0731-2.1937.6178-3.2621-.3486-.8178-1.1069-1.3889-1.895-1.8004-5.2335-2.7322-12.0638.989-15.8275,4.7223Z"/><path class="cls-2" d="M18.81984,70.88709c-1.1222-.1011-2.3324.269-3.0309,1.1532-.7323.9269-.7806,2.2616-.3742,3.3708s1.2046,2.0292,2.055,2.8492c1.5815,1.5251,3.4039,2.8,5.3788,3.7629,1.1114.5419,2.4236.986,3.5561.4898,1.4614-.6402,1.9014-2.627,1.3563-4.1265-.5451-1.4996-1.7907-2.617-2.9903-3.669-1.7493-1.534-3.468-3.6198-5.9508-3.8304Z"/><path class="cls-2" d="M32.90834,68.58629c-.795,1.0025-1.055,2.3239-1.1638,3.5988-.3132,3.6717.4459,7.4286,2.1601,10.6907.5014.9539,1.2632,1.9753,2.3408,1.9923.6305.01,1.2136-.344,1.6748-.7741,1.6691-1.5565,2.0825-4.0228,2.1797-6.303.123-2.8827-.1516-5.9191-1.7224-8.3394-1.285-1.9798-3.6954-3.1019-5.4692-.8653Z"/><path class="cls-2" d="M109.19114,34.85409c-1.7941,4.6724-2.2996,9.8322-1.4464,14.7639.1152.6657.3236,1.4194.9356,1.7055.5266.2463,1.1777.0277,1.5962-.3758s.6535-.9564.8673-1.4971c1.5431-3.9038,2.5393-8.0234,2.9503-12.201.1399-1.4223.3938-4.6438-1.2556-5.4151-1.7187-.8036-3.172,1.7815-3.6474,3.0196Z"/><path class="cls-2" d="M122.48074,51.10559c-1.3839,1.0129-2.7415,2.6873-2.0979,4.2769.6327,1.5624,2.6875,1.8425,4.3728,1.8743,4.4434.0839,9.2401.0028,12.8092-2.6452.9956-.7386,1.8898-1.7183,2.1642-2.9273.274-1.2069-.1485-2.5468-1.0651-3.3783-1.7017-1.5439-5.7315-.8325-7.8264-.5483-3.0033.4076-5.9092,1.5565-8.3568,3.3479Z"/><path class="cls-2" d="M113.98254,58.73499c-.6586.9179-.8883,2.0783-.9376,3.2069-.1242,2.8438.8019,5.6686,2.2811,8.1005,1.4793,2.4318,3.4915,4.5,5.6511,6.3543,1.075.923,2.2388,1.8227,3.6164,2.154,1.3775.3313,3.022-.0538,3.7781-1.2521.6728-1.0661.4928-2.4462.2037-3.6733-.9586-4.0678-2.8947-7.8918-5.5555-11.1104-1.8284-2.2117-6.2241-7.7012-9.0373-3.7799Z"/><path class="cls-3" d="M109.17304,53.75879c.0373.0096.0774.0177.1181.0228.4162.0571.8264-.1426,1.039-.5053.4798-.8155,1.0674-1.552,1.6917-2.3327l.6239-.7881c3.4447-4.4383,4.5951-10.5447,3.0008-15.9442-.0707-.2326-.1882-.6198-.5212-.9361-.5659-.5398-1.4236-.6038-2.3019-.1687-1.6334.8157-2.8782,2.4862-3.6976,4.9663-1.5508,4.6906-1.8327,10.6966-.7025,14.9447.0994.3669.3867.6484.7497.7413ZM111.10604,38.72749l.0002-.001c.6283-1.9059,1.5038-3.1593,2.597-3.7285,1.3243,4.7128.2963,10.0131-2.7058,13.8796l-.6053.7645c-.1304.1642-.2628.3289-.3938.496-.4353-3.5722-.0389-7.9477,1.1077-11.4106Z"/><path class="cls-3" d="M116.58814,50.46649c.2467.5716.681.9769,1.2512,1.1711.0579.0201.1146.0367.1718.0513,2.1399.5474,4.6673-2.1199,6.9661-4.9454,2.4375-2.9898,3.7313-6.4454,3.645-9.7308-.0311-1.1511-.5744-1.6232-1.0249-1.8172-.5627-.2322-1.1009-.0747-1.3307-.0063-3.3849,1.0336-6.3231,3.8449-8.0643,7.7104-1.7026,3.7808-2.2146,6.185-1.6142,7.5669ZM120.10174,43.75519c1.4185-3.1463,3.7111-5.4628,6.4396-6.4522.0064,2.7177-1.1208,5.596-3.286,8.2529-3.5497,4.3642-4.6295,4.1406-4.7369,4.1173-.0062-.0089-.672-.9053,1.5833-5.918Z"/><path class="cls-3" d="M132.88564,49.22789c-.1752.0122-13.2736,1.0644-14.2204,5.1203-10.9019-.2652-22.0783,1.6968-32.3389,5.6813-1.9003.7379-3.6151,1.4878-5.2034,2.2676.2815-1.0076.4047-2.1377.512-3.1504.0421-.3948.0817-.7629.1271-1.0802,1.0053-6.9683.259-14.0894-2.161-20.5975-.1506-.4053-.5281-.671-.9739-.6789-.4344-.0018-.8221.2657-.9785.6711l-3.1783,8.3341c-1.2649,3.318-2.7,7.0791-2.393,11.0051.195,2.4694,1.5849,6.5876,4.6128,7.9668-.3503.2227-.6962.448-1.0353.6783-8.9611,6.0881-15.4216,14.5373-18.611,24.1665-.0926-.6645-.1688-1.3144-.275-1.9914-.2551-1.6392-.5436-3.2796-.8318-4.921-1.0472-5.9614-2.1285-12.125-1.6132-18.1564.7616-8.9239,5.0301-17.2481,8.6645-23.5029,2.8523-4.9124,5.9875-9.6854,9.3601-14.2709.2703,2.5317,3.8982,5.0969,3.938,5.1247,1.1065.759,2.3574,1.3154,3.6709,1.6515,1.4714.3763,3.024.4761,4.5433.2711,1.8496-.2486,3.2394-.9258,4.1351-2.0121,1.117-1.3597,1.3228-3.692-.1567-4.9972-.6241-.5505-1.3556-.7713-2.1148-.9665l-.0018-.0005c-.4497-.115-1.0019-.2731-1.6208-.4493-4.0705-1.1645-7.9156-2.1325-10.3004-1.4008.6021-.782,1.209-1.5597,1.8249-2.3293,1.6206.7385,3.618,1.6186,5.5384,2.1098,1.2404.3174,2.4415.4691,3.4658.3088,2.2308-.3497,4.2955-1.1842,6.2883-1.9919,2.0226-.8171,4.3145-1.7427,6.096-3.4083,1.2707-1.1889,2.1226-3.1395.9885-4.6116-.6899-.8931-1.7952-1.1149-2.6794-1.2067-3.7359-.3873-8.369.0792-12.5523,1.4655.329-.5556.579-1.1053.7556-1.6475,1.077-3.3314,1.3172-6.8906,1.4081-9.9321.0612-2.0626-1.0365-2.5683-1.514-2.6904-1.0161-.2578-1.8281.4359-2.0922.6626-2.4443,2.0801-3.9934,5.2613-4.7406,9.7257l-.1206.7751c-.1741,1.1658-.3485,2.1677-.5202,3.0273-.6853-3.7938-1.9884-7.7762-2.2255-8.484-.395-1.1832-1.0987-2.7775-2.6706-3.1796-.0554-.0142-.1127-.0278-.1729-.039-1.5861-.3059-2.9831.8675-3.4898,2.1258-.4664,1.1489-.3791,2.3606-.2165,3.4991.4657,3.207,1.3253,7.8303,3.4385,10.9555.3568.5289,1.2867,1.8952,2.5685,2.2749-.9361,1.1893-1.8555,2.3928-2.7587,3.61-.3688-1.8154-1.2244-3.7643-1.6109-4.5868,0,0,.0003-.001-.0016-.0015-1.2925-2.7429-3.3025-4.7838-5.6583-5.7446-1.4996-.6023-2.8892-.4523-3.722.421-.6653.6955-.8748,1.7767-.5478,2.8238.257.8106.7567,1.4439,1.16,1.9537.3577.4508.819,1.111,1.3471,1.8649,2.3393,3.3407,4.4428,6.1665,6.404,6.9059-2.0083,2.8712-3.92,5.8106-5.7332,8.8029-.2427-1.41-.9171-3.1901-2.0695-5.4285-1.8678-3.6235-5.1175-6.5511-8.9164-8.0314-.4778-.1779-.9809-.0103-1.2497.4001-.7845,1.1935-.2577,2.6584-.06,3.2081,1.5499,4.3417,5.2139,10.3024,10.4635,12.9497-3.6689,6.379-7.8457,14.7446-8.6189,23.8187-.0716.8349-.1106,1.6698-.1284,2.5042-5.2005-8.8905-13.0778-14.7516-21.4788-20.6884.7349-.2848,1.3503-.8712,1.626-1.1377,2.2591-2.1854,4.0286-6.03,4.3019-9.3495.1204-1.4485-.5218-2.5605-1.6067-2.7383-.4078-.0738-.7622.0057-1.0599.0934-1.7232.5175-3.2407,1.7841-4.2746,3.5663-.7786,1.3442-1.2865,2.9427-1.5925,5.0341l-.0003.0009c-.1562,1.0696-.1742,1.9403-.0691,2.6417-.8769-.6188-1.7551-1.2441-2.6376-1.8759,1.5251-1.4663,1.9073-4.6914,1.9919-5.7744.235-2.9721-.4488-5.7044-1.9256-7.6939-1.1148-1.4987-3.0847-2.4975-4.6904-1.5025-1.1041.6852-1.4168,1.9816-1.5543,2.8973l-.0003.001c-.3602,2.3937-.6797,9.1708,2.1303,11.7399.3705.3392.72.572,1.0505.7395,1.8484,1.3487,3.697,2.6561,5.5245,3.9432,9.9542,7.0132,19.3544,13.6409,24.4174,24.9548.298,3.8254.9603,7.6209,1.6132,11.3385.2851,1.629.5708,3.256.8271,4.8829,1.3926,8.8945,1.5701,16.6335.569,23.5145-1.2345-4.8031-4.1083-9.7088-8.6075-14.6481-1.9937-2.1869-4.1539-4.2651-6.2435-6.2738-.3038-.2922-.6092-.5864-.9144-.8808,1.166-.0048,2.2446-.5207,3.1349-1.5161,1.6843-1.8849,2.3495-5.1262,1.9987-7.0483-.246-1.3636-1.2143-2.786-2.7094-2.6999-.726.0454-2.0123.4897-2.482,2.9667-.1174.6067-.2716,1.2503-.4298,1.9105-.4135,1.7254-.8353,3.5057-.7714,5.165-.6102-.5965-1.2165-1.2004-1.8177-1.8111.5515-.5113.892-1.3271,1.1335-2.0672,1.2204-3.736,1.0867-8.7326-.3546-13.366-.8033-2.5695-2.2416-3.0257-3.0123-3.0684-.8913-.0483-1.7807.3734-2.5738,1.2223-2.4662,2.642-2.2402,6.4654-1.734,8.9389-1.0797-2.7453-2.962-5.1127-5.4245-6.7482-1.6602-1.1003-4.0078-1.7723-5.639-.3572-1.118.9695-1.4586,2.7284-.8292,4.2763.5432,1.3346,1.6218,2.2768,2.501,2.9471,2.0494,1.5665,4.3558,2.6704,6.3412,3.5428.7348.3235,1.6369.5259,2.5899.7761.0252.0085.0486.0155.0708.0191.3028.0808.5981.1682.8777.2607,2.6148,3.2755,5.651,6.2043,8.6009,9.0407,2.064,1.9854,4.1991,4.0382,6.1467,6.1755,5.9339,6.515,8.8829,12.8863,8.7618,18.9366-.0106.4932.3235.9127.783,1.0303.075.0192.1561.0305.2375.0324.3051.0062.5761-.1251.7709-.3308.2883-.1236.5248-.3592.6073-.6867,1.634-6.4694,2.0895-13.7025,1.3967-21.9306,2.2433-11.2574,9.0356-21.2332,19.1381-28.0953,2.8463-1.9343,6.1054-3.5853,10.2538-5.197,6.2794-2.4391,12.9107-4.1009,19.6061-4.9367-1.2528,1.8549-1.4476,5.5984-1.4292,9.5194l.001.596c-.0092.8571-.0195,1.9241.413,2.9194.3213.7399.8486,1.2331,1.476,1.3936.0986.0252.1972.042.3001.0505.485.0421,1.6844-.0703,2.3338-2.0181.4543-1.3726.8602-2.7703,1.2079-4.1543l.0003-.001c.0164-.0648,1.5792-6.4349-.3367-8.7016,2.7223-.2061,5.4461-.2768,8.1518-.204.0801.002.1516-.0247.2269-.0399.1351.1958.2951.3784.4901.5395.4198.347.9769.5924,1.6238.7579,3.6663.938,10.2093-.6862,10.9495-.9508,2.2739-.8146,3.7525-1.9284,4.5215-3.4064.3405-.6578.4622-1.2897.3607-1.8788-.2683-1.5385-1.844-2.3934-4.0924-2.2299ZM78.36544,42.02699c-.2815,6.8592-.2179,13.79-.1551,20.5262l.0003.0074c-2.2244-2.6242-3.0207-6.7563-2.1865-11.4706.3413-1.9342.8937-3.8637,1.43-5.7302.3135-1.0944.6316-2.2066.9113-3.3328ZM79.69944,57.76789c-.0497.3414-.0918.7362-.1368,1.1586-.115,1.0884-.3192,2.9702-.8304,3.7631l-.0014-.142c-.0615-6.6558-.1033-13.4981.1686-20.2726,1.2618,5.0196,1.5494,10.2996.8,15.4929ZM74.15744,56.63699c-.2712-3.4578,1.0748-6.9862,2.262-10.0993l.6191-1.6236c-.0287.1004-.0572.2026-.0857.3027-.5393,1.8783-1.0953,3.8217-1.4434,5.7815-.8756,4.951.0256,9.2809,2.4401,12.0185-.0983-.0245-.2028-.0574-.3216-.1084-1.9284-.8158-3.28-3.8292-3.4705-6.2714ZM81.50744,26.66509c.9664.2472,1.8868.51,2.6625.7305,1.357.3881,2.4071.5129,2.9297.9754.5419.478.4061,1.5265-.0749,2.1085-.6832.8306-1.9017,1.1503-2.8027,1.2718-2.3677.3179-4.8304-.2575-6.7562-1.576-1.4493-.9959-3.1424-2.9209-3.0504-3.7485.0049-.0523.0223-.2107.4606-.3875,1.3541-.5456,4.1404-.0114,6.6314.6258ZM95.74644,14.93419c.4374.0479,1.0403.139,1.2452.4058.292.3783-.1671,1.2611-.7632,1.8168-1.4952,1.4015-3.5058,2.2131-5.4509,2.9984-1.8848.763-3.8349,1.5522-5.8291,1.8647-1.8446.2857-4.9356-.9632-7.2306-1.9884.9935-.7293,1.8754-1.4419,2.6446-2.1403,4.5143-2.4333,10.6759-3.4458,15.384-2.957ZM79.17044,11.52799l.1134-.74c.6543-3.9041,2.0105-6.7575,4.0384-8.4829.0538-.0461.1011-.0834.1403-.1133.021.1147.0342.2767.0274.4924-.0907,3.0406-.3119,6.2789-1.3063,9.3531-.4088,1.2612-1.4221,2.6432-3.0258,4.1315-.3453.1911-.68.3903-1.0062.5979.3981-1.4742.7207-3.244,1.0188-5.2387ZM69.87604,7.87269c-.1212-.8484-.1965-1.7292.0833-2.4204.2169-.536.7613-.9389,1.1658-.8606.014.0025.026.0055.0398.009.4496.1151.8495.7123,1.2209,1.8233,1.3376,4.0037,2.9155,10.412,2.4978,12.7595-.1431.1483-.2617.2094-.3506.2287-.176.039-.7167-.2128-1.5549-1.4548-1.4054-2.0795-2.4211-5.3788-3.1021-10.0847ZM63.73444,20.54459c-.5572-.7951-1.0438-1.489-1.4206-1.9626-.3758-.4776-.6756-.8747-.8057-1.2862-.0923-.2958-.0637-.6215.0678-.7581.156-.166.5517-.1846,1.013-.0665.1343.0343.272.079.413.1361,1.8703.7632,3.4894,2.434,4.5624,4.7048.9513,2.0232,1.6747,4.4935,1.6104,5.3942-1.4987-.5326-3.9598-4.0473-5.4403-6.1617ZM21.20844,30.65279c.1208-.7928.3148-1.2633.5921-1.4361.4838-.2975,1.4007.2753,1.9191.9753,1.1772,1.584,1.7153,3.8168,1.5226,6.287-.1744,2.2185-.8828,4.314-1.5467,4.5761-.0762.0285-.1866.007-.311-.0403-.1042-.0762-.2083-.1489-.3124-.2253-.0637-.0468-.1373-.0655-.2072-.0958-.0598-.048-.1175-.0904-.1803-.1473-1.7761-1.6248-1.9297-6.8639-1.4762-9.8936ZM30.09594,41.95169c.268-1.8196.6922-3.182,1.3349-4.2899.7224-1.2462,1.7743-2.1717,3.0383-2.5944.0218.1117.0356.2708.0199.4558-.2304,2.8147-1.7762,6.188-3.6722,8.0218-.3548.3433-.6047.5231-.7631.617-.0741-.3342-.1292-1.0312.0422-2.2103ZM41.05444,83.75389c.1667-.6928.3272-1.3694.45-2.0051.0003-.001.0005-.0021.0005-.0021.182-.9578.4761-1.2693.5614-1.2747.0044-.001.0104.0005.0164.002.1163.0298.4081.4008.5159.9894.2574,1.417-.2966,3.9356-1.5035,5.2859-.2363.2663-.4807.4664-.7321.6028.101-1.1341.3992-2.3817.6914-3.5982ZM27.68724,80.03489c-1.8737-.824-4.0402-1.8594-5.918-3.2916-.6675-.5113-1.4809-1.209-1.8328-2.0764-.2467-.6043-.2386-1.4817.2634-1.9164.3783-.3287.9558-.3522,1.5712-.1948.5186.1327,1.0671.3959,1.5467.714,2.4646,1.636,4.2504,4.1343,5.0516,7.0069-.2557-.0769-.4876-.1562-.6821-.2417ZM33.15404,70.76489c.3418-.3665.6917-.5764.9363-.5632.4002.0288.8345.639,1.1354,1.607,1.3185,4.2352,1.4557,8.7587.3639,12.098-.1734.5304-.3203.8332-.4219,1.0006-.2784-.2835-.6693-.8584-.9241-1.2336-.0993-.1462-.1985-.2924-.3001-.4372-.1695-.4383-.4262-1.0693-.6988-1.7368-.4214-1.0313-1.0563-2.5902-1.1433-2.9318-.4989-1.96-1.0231-5.5791,1.0526-7.803ZM30.59464,80.50549c-.0073-.0002-.0145.0014-.0218.0012-.0089-.0397-.0162-.0797-.0253-.1194.0145.0367.0319.0803.0471.1182ZM108.96814,64.83509c-.3352,1.3348-.7284,2.6831-1.1652,4.0045-.0666.2035-.1358.3507-.1954.4522-.0067-.0154-.0149-.0322-.0228-.051-.2568-.589-.2494-1.3415-.2413-2.0707l-.0001-.6241c-.038-7.9097,1.1362-8.5738,1.3727-8.6269.1249-.0289.2026-.028.2497-.0158.0474.0121.0709.0359.089.0552.8093.8281.4048,4.923-.0866,6.8766ZM134.76624,52.37449c-.5138.9896-1.6185,1.7766-3.3743,2.4054-1.8323.6566-8.9651,1.843-10.5421.5487-.1162-.0959-.2109-.2021-.1616-.5099.2246-1.445,7.7429-3.1854,12.3463-3.5113l.0003-.001c.4685-.0325.913.0045,1.2542.0918.3588.0918.6047.2398.635.4168.0104.0583.0149.2296-.1578.5595Z"/><path class="cls-3" d="M121.60374,58.77219c-.2585-.1145-.567-.2722-.909-.4469-1.9181-.9792-4.8165-2.4635-6.5032-.4942-1.7706,2.0749.1981,6.0511,1.1903,8.0542,1.3917,2.8147,3.1744,5.4162,5.2969,7.7317,1.1748,1.2808,2.6394,2.6693,4.5861,3.2493.0722.0216.1427.0417.2156.0604,1.6983.4344,3.4001.024,4.3819-1.0697,1.1838-1.3173,1.095-3.1314.8862-4.5654-.6685-4.5902-2.3511-8.0098-5.0027-10.1632-1.188-.9659-2.5158-1.6407-4.1421-2.3562ZM125.85974,74.86879c-1.4603-.4356-2.6611-1.5897-3.6435-2.6615-1.9915-2.1706-3.6628-4.608-5.0131-7.3385-1.6466-3.3252-1.8104-4.7956-1.5669-5.437.9909,1.5874,2.0186,3.2137,3.192,4.7107.691.8807,1.4404,1.7301,2.1674,2.5517.6742.7651,1.3735,1.5555,2.0176,2.3643.4211.5302.8277,1.0765,1.2361,1.6243,1.0819,1.4528,2.1978,2.9405,3.598,4.1118-.5889.2749-1.3853.2437-1.9876.0742ZM128.31064,74.46399c-.0069.0078-.0162.0129-.0236.0206-1.4047-1.1465-2.5301-2.6488-3.6198-4.113-.4114-.5518-.821-1.1031-1.2473-1.6378-.6519-.8192-1.3542-1.6145-2.0336-2.3841-.7222-.8161-1.4664-1.6601-2.1478-2.5289-1.1878-1.5149-2.2319-3.1768-3.2416-4.7924.2717-.1174.6638-.0886,1.1054.0244.8737.2235,1.9403.7695,2.643,1.1278.3827.1957.7287.3714,1.0175.4989,1.473.649,2.6605,1.2479,3.6696,2.0672,2.7784,2.2573,3.8468,6.0567,4.2515,8.8447.2144,1.4617.0994,2.3473-.3733,2.8726Z"/><path class="cls-3" d="M13.83584,52.37539c.3514-.1255.846-.2763,1.4294-.4539,3.7472-1.1438,10.0157-3.0588,8.9285-6.7023-.3138-1.049-.9652-1.8376-1.9339-2.3461-2.644-1.3866-6.9054-.2861-10.3252.8259-2.5398.8265-5.6458,2.1333-7.1455,4.9237-.7181,1.3366-.9095,3.202.2868,4.358.4063.3908.8878.6117,1.3593.7323.783.2003,1.5384.1224,1.8705.0887,1.9896-.2034,3.8994-.8432,5.5301-1.4263ZM6.62524,49.61039c1.15-2.1381,3.7853-3.2228,5.9538-3.9289,1.6091-.5235,6.5027-2.1241,8.7123-.962.4671.2444.754.5931.9048,1.0961.496,1.6588-5.5532,3.505-7.5389,4.1128-.622.1886-1.1487.3502-1.5213.4839-1.5174.5428-3.283,1.1365-5.0434,1.3154-.7858.0816-1.313-.0017-1.5695-.248-.3855-.3729-.2351-1.2411.1022-1.8693Z"/><path class="cls-3" d="M3.53734,37.90079c2.9791,1.2917,5.4955,2.2001,7.5368,2.7223,2.5776.6595,4.4005.7045,5.4473.1286.6455-.3549,1.0474-.9235,1.1606-1.6458.1111-.7134-.0885-1.4191-.5972-2.1007-2.1826-2.9266-10.2211-4.9851-11.6888-5.1788l-.0021-.0005c-.8496-.1123-1.7586-.1726-2.6645.14-1.1573.4005-1.9887,1.3993-2.0689,2.4851-.0685.9743.3611,2.3587,2.8768,3.4498ZM2.74054,34.60059c.0175-.2497.3127-.5409.6701-.6649.4956-.1706,1.1134-.1218,1.709-.0429,2.0257.2703,8.7914,2.3435,10.295,4.3598.1094.1468.234.3583.1012.6721-.8874.4874-4.3387.0143-11.2208-2.9671-.9873-.4281-1.5833-.9493-1.5545-1.357Z"/><path class="cls-3" d="M19.48064,53.83519c-.6803,1.4029-.466,3.0454.5205,3.9944.3728.358.8406.6079,1.3573.7401.6035.1544,1.2714.1477,1.9278-.0364,1.0117-.2833,1.8138-.8966,2.4659-1.4579.0585-.0481,5.5295-5.1784,4.1309-7.6218-.89-1.5557-3.2854-.7353-4.1864-.4248-1.4859.5099-2.7443,1.3878-3.8858,2.2609-.8422.6472-1.7863,1.4301-2.3302,2.5455ZM26.37324,51.00069c.8984-.3092,1.3943-.3745,1.6434-.3791-.2352,1.002-2.1373,3.5991-3.6233,4.8738-.4796.4122-1.0518.8583-1.6697,1.0312-.4932.1375-1.005.0602-1.2789-.2001-.3642-.3506-.3309-1.0806-.0874-1.5805.3423-.7056,1.0391-1.2775,1.7219-1.8026,1.0004-.7643,2.0894-1.5301,3.294-1.9427Z"/><path class="cls-3" d="M15.08584,95.52579c.6942.1776,1.4291.1638,2.0314.1173,5.041-.3937,13.8147-1.6941,15.9387-5.9723.8498-1.7116.3631-2.8312-.1947-3.4687-2.5166-2.8785-11.9005-1.1069-13.3686-.6084-3.7583,1.2776-6.1541,3.5867-6.5736,6.3351-.1485.9832.016,1.8437.4767,2.4901.4415.6152,1.049.9429,1.6901,1.1069ZM14.98004,92.24269c.4216-2.7731,3.7667-4.1931,5.1842-4.6742,1.6916-.5749,7.288-1.2751,9.9327-.5984.5423.1387.9605.336,1.1945.604.083.0947.306.3482-.1035,1.1691-1.198,2.4158-6.5199,4.2191-14.2304,4.8217-1.0133.076-1.6406-.0435-1.8648-.3583-.1361-.1903-.1767-.5411-.1127-.9639Z"/><path class="cls-3" d="M27.08174,99.13459c-.5493,1.3504-.078,2.1118.253,2.4445.272.2755.5975.4156.8756.4867.2506.0641.4627.0731.5723.0792,1.9438.0906,3.6328-.9346,4.7336-1.7141,1.6519-1.1671,3.9475-2.9692,4.8336-5.1191.1553-.3773.0771-.8103-.2019-1.1086-.7921-.8457-2.1787-1.7258-3.6826-1.6628-.9344.0383-1.7295.4359-2.3189.7767-2.2755,1.3134-4.0736,3.3803-5.0647,5.8175ZM34.55024,94.62349c.1722-.0075.3554.0153.5428.0632.3313.0847.6778.2501.9966.4745-.9932,1.5983-3.0456,3.0506-3.7772,3.5685-1.2542.8863-2.2823,1.3157-3.3486,1.3192.0141-.0384.0293-.0817.0478-.1296.8189-2.0095,2.3013-3.7137,4.1779-4.7982.5694-.3282.9892-.4824,1.3607-.4976Z"/><path class="cls-3" d="M99.49964,86.88939c.3214-.0239.6154-.1956.7937-.4653.178-.2686.22-.6055.1156-.9117-1.9093-5.5895-5.639-10.5183-10.4992-13.8787l-.0017-.0016c-2.3415-1.616-10.2703-6.6661-13.9499-3.7083-.932.7514-1.4401,1.7193-1.4679,2.7975-.0672,2.62,2.5454,5.1806,5.0014,7.3754l.4083.3672c4.4706,4.0623,9.0344,6.7082,13.4642,7.8414,2.0827.5328,4.1373.7317,6.1355.5841ZM76.76424,70.12629c1.2802.7026,2.7157,1.4191,4.1195,2.1182,1.8007.8956,3.663,1.8217,5.1643,2.7058,2.0815,1.227,4.2342,2.4964,6.0681,4.1255,1.567,1.3906,2.6902,3.0459,3.8807,4.7983.2016.2981.4068.5981.6123.8971-.0031-.0003-.0061-.0008-.009-.0012-6.7379-3.3022-12.9307-7.5706-18.4207-12.6984-.5624-.5255-1.1183-1.0866-1.5237-1.7138.0255-.0741.0625-.1505.1085-.2315ZM80.70604,69.34119c2.3923.612,5.4296,2.219,8.0189,4.0077l-.0018-.0015c4.1069,2.8389,7.3395,6.8861,9.2136,11.5031-.2197-.0036-.437-.0232-.6555-.0357-.2875-.4113-.5749-.8229-.8541-1.2341-1.2089-1.7802-2.3506-3.4613-3.9634-4.895-1.8736-1.6624-4.048-2.9448-6.1498-4.1842-1.5175-.8936-3.3893-1.8242-5.1993-2.7244-1.3672-.6803-2.768-1.3785-4.0193-2.0612.0573-.0559.0992-.1102.1704-.1674.7228-.5832,1.9571-.5868,3.4403-.2073ZM81.30334,76.92119l-.4221-.3791c-1.2094-1.0807-3.9217-3.5066-4.2677-5.3486.3666.4501.7885.8648,1.2116,1.2604,5.1409,4.8017,10.8972,8.8509,17.1374,12.0693-5.4245-1.0547-10.2721-4.5224-13.6592-7.602Z"/><path class="cls-3" d="M43.85454,53.91559c.426.109.8019.0528,1.0705-.0287,2.6586-.814,4.0197-7.5399,3.9242-9.0227-.1783-2.7122-1.005-5.2793-1.805-7.7629-.1232-.3887-.465-.679-.8758-.7158-.4063-.0461-.8038.1517-1.0115.5041-1.2923,2.1763-5.6064,11.1707-3.1302,15.4059.6099,1.0417,1.2616,1.4753,1.8278,1.6201Z"/><path class="cls-3" d="M31.46274,14.43849c-.5835.1702-1.1361.4817-1.7392.983-1.2579,1.0483-1.8808,2.3578-1.7092,3.5931.0823.5821.3383,1.1582.7825,1.7625.727.9782,1.685,1.652,2.691,1.9093.1814.0465.3641.0795.5485.0983,1.3662.1384,2.8297-.5138,3.8197-1.7063.7339-.8892,1.0481-1.8878.8829-2.8106-.0925-.5258-.3329-.9656-.5056-1.2524-.9872-1.6279-2.7512-3.1603-4.7706-2.5769Z"/><path class="cls-3" d="M44.97884,15.62049c.1141-.4458.06-.8673.0247-1.14-.0386-.3093-.0853-.6932-.2181-1.078-.4304-1.2744-1.4537-2.1697-2.6955-2.334-1.2192-.1627-2.389.4007-3.1315,1.5051l-.0002.001c-.7385,1.1035-.8459,2.5753-.2827,3.8404.4335.9746,1.2164,1.6676,2.104,1.8947.152.0388.3053.0634.4619.0751,1.3661.0983,2.3814-.8481,3.0307-1.5708.2716-.3057.5742-.6758.7067-1.1935ZM42.93434,14.74129c.0128.0978.0389.2999.0252.3615-.0148.0498-.0974.159-.2422.3226-.5442.6078-.9921.9041-1.3283.88-.3066-.0259-.6272-.3253-.8093-.7386-.267-.5989-.2218-1.3344.1115-1.8322.2925-.4369.7016-.6559,1.1241-.5993.4237.0527.8181.4079.9975.9392.0625.183.0927.4261.1215.6668Z"/><path class="cls-3" d="M34.40764,10.90299c.1167.0362.2513.0779.4011.1163.4635.1185,1.0666.2004,1.6744-.0486.8911-.3615,1.4669-1.3478,1.4323-2.4526-.0328-1.1861-.7796-2.3985-1.8139-2.9468-.8564-.4555-1.8109-.4128-2.6317.1096-.6508.4166-1.1237,1.1235-1.3299,1.9954-.1251.5385-.1173,1.0091.0243,1.4404.3994,1.2075,1.691,1.6125,2.2434,1.7863ZM34.16954,8.15349c.0779-.3289.2344-.5957.4223-.7146.1387-.0896.2611-.1161.3912-.0828.0474.0121.0928.0311.1431.0565.3699.1966.6937.7301.7058,1.1672.0083.2553-.0947.436-.1346.4604-.0749.0302-.296-.0094-.667-.1275-.7626-.2392-.8713-.4058-.8871-.4507-.0013-.0035-.0267-.0846.0263-.3085Z"/><path class="cls-3" d="M72.65374,87.20719c-.5335.245-1.0123.6542-1.4643,1.2551-.8595,1.1502-1.2234,2.4902-.9953,3.677.2575,1.3508,1.302,2.5667,2.7232,3.1709.2237.0951.4459.1709.665.2269.8264.2114,1.6194.1505,2.2848-.1835.4801-.2419.8318-.5984,1.054-.8431,1.2794-1.4116,2.2418-3.5472,1.1052-5.3058-.3273-.5113-.7861-.9523-1.4393-1.3884-1.3672-.9066-2.7963-1.1272-3.9333-.6091Z"/><path class="cls-3" d="M98.53404,40.43479c-1.3649-.9081-2.796-1.1292-3.9315-.6086-.5405.2484-1.0196.6585-1.4637,1.2531-.8614,1.1497-1.2253,2.4897-.9978,3.6784.2576,1.3509,1.3018,2.5668,2.7233,3.1711.2236.095.4459.1708.6647.2268.8266.2114,1.6196.1505,2.285-.1836.4801-.2417.8319-.5983,1.0541-.843,1.2794-1.4115,2.2418-3.5472,1.1075-5.3063,0,0,0-.0009-.0018-.0014-.3295-.5109-.7866-.9504-1.4398-1.3865ZM97.32204,45.73109c-.1759.1946-.318.3148-.4435.3783-.2774.1392-.7189.1071-1.1979-.0984-.7787-.3316-1.3661-.9767-1.4936-1.645-.1163-.6129.1092-1.3547.62-2.0373.2295-.3058.4522-.5105.6637-.6066.2381-.1093.5468-.1165.8919-.0282.3156.0807.6632.2421,1.0151.476.4077.2714.6762.5197.8461.7829.4968.769-.1754,1.9755-.9018,2.7783Z"/><path class="cls-3" d="M80.10544,102.41819c.1993.0509.4198.0842.6534.0747.454-.0173.8305-.1826,1.1054-.3045.3319-.1474.6636-.3021.9656-.5137,1.0985-.7781,1.6591-2.0247,1.4645-3.2523-.1936-1.2147-1.0678-2.1749-2.3372-2.569-1.2706-.3975-2.7101-.0765-3.7654.8282-.9454.813-1.3848,1.972-1.1494,3.023.2984,1.3392,1.4957,2.0395,2.3682,2.4486.1592.0754.4009.1898.6949.265ZM79.55044,98.26269c.4791-.4102,1.1593-.5807,1.7174-.438.0237.0061.0474.0121.0707.0201.5042.1564.8298.4855.8965.906.0713.4448-.1573.9023-.6039,1.2188-.1892.1323-.4031.2205-.6094.3127-.1064.0463-.282.1244-.3418.128-.0521-.0009-.1787-.0479-.3814-.1429-.7374-.3462-1.1501-.6881-1.223-1.0188-.0639-.2843.1326-.6911.4749-.9859Z"/><path class="cls-3" d="M85.54604,93.69409c1.127-.3726,2.0755-1.4349,2.3042-2.5836.1878-.9479-.1244-1.8547-.8595-2.4892-.5855-.5039-1.3994-.7563-2.2911-.7038-.5526.0329-1.0032.1762-1.3724.4358-1.046.7295-1.0622,2.0828-1.0711,2.6595-.0058.4997-.0176,1.334.5282,2.0095.2948.3675.7096.6186,1.1811.7392.491.1257,1.0437.1094,1.5806-.0674ZM84.34204,91.04099c.009-.7994.1401-.9507.1815-.9811.0024-.0015.0708-.047.2993-.0611.1707-.0099.333.0043.475.0406.1341.0344.2484.0888.331.1604.1668.1445.2179.29.1759.5031-.0821.4118-.4989.8746-.9121,1.0106-.2411.0802-.4425.0381-.4838.0023-.0492-.062-.0731-.2888-.0668-.6748Z"/><path class="cls-3" d="M98.81154,29.68179c1.1267-.3716,2.0752-1.4339,2.3058-2.5821.1879-.948-.1242-1.8548-.8573-2.4888-.5869-.5073-1.4008-.7596-2.2928-.7053-.5529.033-1.0033.1762-1.3725.4359-1.0438.729-1.0621,2.0818-1.0711,2.6594-.0057.4987-.0169,1.3311.5283,2.0096.293.3659.7096.6176,1.1811.7382.4912.1256,1.0414.1099,1.5785-.0669ZM97.67614,27.70499c-.0495-.062-.0731-.2898-.0671-.6748.0115-.7999.1407-.9517.1821-.9821.0024-.0015.0708-.0471.2993-.0611.1725-.0094.3348.0048.4748.0406.1342.0343.2484.0888.3293.1588,0,0,.0019.0005.0016.0016.1671.1445.2179.29.1764.5021-.0826.4128-.5014.8751-.9144,1.0111-.248.0826-.445.0311-.482.0038Z"/></g></g></g></svg>