<?xml version="1.0" encoding="UTF-8"?><svg xmlns="http://www.w3.org/2000/svg" viewBox="0 0 74.5548 147.73145"><defs><style>.cls-1{isolation:isolate;}.cls-2{fill:#ffda73;mix-blend-mode:multiply;}.cls-2,.cls-3{stroke-width:0px;}.cls-3{fill:#6d6d6d;}</style></defs><g class="cls-1"><g id="_レイヤー_2"><g id="Object"><path class="cls-2" d="M38.78785,109.36422c1.0882,1.3056,2.519,2.4474,4.2041,2.6693,1.7699.233,3.5054-.5777,5.0265-1.5122,5.6938-3.4982,9.9296-8.9105,13.6933-14.4325,3.8171-5.6004,7.2849-11.4389,10.3763-17.4704.3754-.7322.7522-1.4919.812-2.3126.0378-.5179-.1006-1.1121-.553-1.367-.4316-.2433-.9698-.0883-1.4366.0775-6.3335,2.2502-12.2374,5.6688-17.3989,9.9685-5.2081,4.3384-9.6703,9.579-13.0785,15.4406-.9446,1.6245-1.8535,3.3013-2.5958,5.0294-.6311,1.4691-.0558,2.702.9506,3.9094Z"/><path class="cls-2" d="M.00235,109.41972c-.03.5638.2315,1.1014.5332,1.5787,1.315,2.0805,3.436,3.4866,5.4009,4.9689,2.8005,2.1126,5.4052,4.5021,8.4011,6.327s6.5113,3.0731,9.9862,2.5925c1.2498-.1729,2.4594-.5639,3.6392-1.0112,2.6328-.9982,5.375-2.5213,6.348-5.1635.8528-2.3159.0792-4.9955-1.4421-6.9388-1.5212-1.9433-3.6905-3.2666-5.8906-4.3846-1.2323-.6262-2.4948-1.2037-3.8161-1.6096-1.8754-.5762-3.8392-.7982-5.793-.9764-2.8497-.2599-5.7338-.4315-8.5628-.0017-1.7902.272-3.5588.7956-5.1602,1.6504-.8127.4338-1.4655,1.0385-2.2312,1.5229-.6179.3911-1.3646.5455-1.4126,1.4454Z"/><path class="cls-2" d="M21.90775,52.63792c3.5394,6.4447,8.5623,12.0688,14.5675,16.3113.996.7036,2.1809,1.401,3.3637,1.1042,1.1994-.3009,1.9477-1.5779,2.031-2.8117s-.3536-2.4372-.7955-3.5921c-1.9575-5.1161-4.1476-10.1432-6.5612-15.0606-1.1476-2.338-2.3663-4.6814-4.1207-6.6063-1.9942-2.188-11.3933-11.2987-12.9931-6.4939-1.6262,4.8841,2.2374,13.0142,4.5083,17.1491Z"/><path class="cls-2" d="M53.63535,39.68402c2.4379-3.9354,4.9226-7.9276,8.3598-11.0287,1.2086.6103,1.3275,2.2647,1.2378,3.6156-.696,10.4859-4.0799,20.7725-9.6796,29.6605-1.6145,2.5627-5.1613,9.8903-8.9847,6.913-3.4675-2.7002-.5418-9.9182.6396-13.135,2.0866-5.6812,5.2523-10.9006,8.4271-16.0254Z"/><path class="cls-3" d="M12.85355,117.95982c2.1036,1.2779,4.279,2.6004,6.7148,3.4179,3.129,1.0467,9.9691,1.3175,14.1548-.9384.9478-.5107,1.7052-1.1239,2.2867-1.8264.2772,5.849,1.3214,11.6371,3.1133,17.2023,1.0759,3.3408,2.9223,8.1793,6.5341,11.6278.4166.3975,1.076.3825,1.474-.0349.0628-.0653.116-.1384.1582-.2149.2235-.4046.1573-.9249-.1927-1.2576-2.521-2.4086-4.3686-5.7269-5.9893-10.7593-.6974-2.1672-1.2736-4.3695-1.7368-6.5954.1724.2533.393.4895.6802.7012,5.1957,3.8252,11.1194-12.3529,11.3529-15.5009.0102-.1349.0153-.282-.0643-.391-.1797-.2455-.5654-.0825-.8096.099-1.8174,1.3507-10.829,8.4485-11.5494,13.0574-.4764-2.7281-.7811-5.4874-.9019-8.2624-.1321-3.0443-.0419-6.1054.182-9.1634.7055.6745,1.9285,1.2368,4.0545.9054,5.2099-.8134,9.9503-4.2255,13.0077-6.9442,4.4313-3.9365,7.9039-8.8303,11.0816-13.5057,1.7173-2.5261,3.4628-5.1622,4.9923-7.9315,1.1446-2.0725,2.1685-4.2211,2.9687-6.4534.3204-.8978.234-1.613-.2561-2.1278-.4805-.5048-1.1826-.6275-2.0853-.3679-5.1239,1.4748-10.0426,3.7654-14.6185,6.808-7.5375,5.0095-13.7421,11.7597-18.0267,19.6095.2684-1.9127.5536-3.8166.8384-5.7045.5798-3.852,1.1813-7.836,1.6061-11.776.4734-4.3859.6472-8.4705.5402-12.2893.1034.0411.1979.0711.2788.0923,1.5412.4095,3.3133-.5863,4.624-2.5973,1.5509-2.3785,3.008-4.8018,4.3719-7.2716,5.5296-10.0116,9.5131-20.7466,11.8713-32.0123.0554-.2668.0058-.5432-.1398-.7723-.3655-.5763-.9384-.9138-1.6129-.9537-1.189-.0684-2.4645.8178-3.1998,1.7259-5.9224,7.306-10.6924,15.4857-14.1733,24.3102-.2724.6935-.6012,1.4656-.9521,2.2882-.7045,1.6566-1.4872,3.5018-2.1037,5.3452-1.0631-5.4798-2.9143-10.2563-5.5855-14.3783-4.344-6.7063-10.9758-11.7715-16.8266-16.2402-.2765-.2131-.6422-.2709-.9721-.1578-.329.1136-.5806.3817-.6693.7234-3.7474,14.3959,4.2147,31.1334,17.748,37.3079,1.4642.6692,3.3436,1.3489,5.1972.896.2258,4.2083.0681,8.7866-.4683,13.7603-.3109,2.8757-.718,5.7869-1.142,8.6562-.0742-.1721-.1538-.3604-.2346-.5677-.97-2.4901-1.4321-5.1595-2.6344-7.5623-2.0037-4.0042-5.8595-6.8348-10.0128-8.5078s-8.6364-2.3183-13.0689-2.9506c-3.7137-.5295-7.4274-1.0591-11.141-1.5886-.803,1.9948.3668,4.2229,1.7149,5.8982,3.2154,3.9956,7.6034,6.8858,12.1524,9.2543,5.5605,2.895,11.4761,5.1072,17.57,6.5779,1.4581.3519,3.1001.9002,4.602.9641.3487.0147.6164.0123.8271-.0072-.0762.5079-.1521,1.0187-.228,1.5225-.9076,6.0177-1.8307,12.1855-2.1236,18.3844-.9709-1.5699-2.312-2.9631-3.3372-3.9093-2.5875-2.3895-5.9022-4.104-9.3342-4.8274-8.0403-1.6918-15.9488,1.2708-21.1674,4.0538-.4427.2371-1.3564.723-1.6207,1.7259-.1995.7759-.0528,1.9336,1.7811,3.0513l10.4996,6.3828ZM45.51965,65.70172c-.8546,1.3094-1.8256,1.8568-2.3438,1.7193-.0834-.0218-.1569-.0879-.2307-.1513,3.9027-10.0867,8.5509-19.9754,13.8498-29.4255l.286-.5095c1.6373-2.9142,3.3208-5.9357,4.0064-9.2374.0686-.0395.1373-.0785.1972-.1063-2.9275,13.4673-8.2282,26.1471-15.7649,37.7107ZM45.35095,54.96852c.3569-.84.6928-1.629.9724-2.3397,1.443-3.659,3.1127-7.2043,4.9986-10.6188,2.5608-4.6367,5.5211-9.0322,8.8542-13.1427.088-.1085.1831-.2087.281-.3011-.7377,3.0036-2.3037,5.7962-3.8314,8.5148l-.2852.5078c-5.2466,9.3467-9.8639,19.1625-13.7489,29.1565-.1382-.3447-.2332-.7987-.2655-1.3399-.1757-2.9158,1.599-7.0869,3.0248-10.4369ZM33.99395,46.25172c2.5277,3.9029,4.2901,8.4384,5.3016,13.6656-4.2371-7.2337-8.4153-14.5787-12.4685-21.9175,2.6958,2.4777,5.1698,5.1708,7.1669,8.2519ZM25.64615,36.93992c4.4998,8.1765,9.1624,16.3773,13.8917,24.4243.1365.8345.2549,1.6861.3549,2.5549-1.595-3.1931-3.8321-6.2506-6.0196-9.2315-.7543-1.0282-1.4948-2.0371-2.1868-3.0263-1.4799-2.1104-2.7822-4.3926-4.0422-6.6001-.8748-1.5299-1.7786-3.1127-2.736-4.6299-1.8477-2.9289-3.9664-5.7286-6.0492-8.4538.0272-.1525.049-.3057.0789-.4577,2.2711,1.7415,4.5465,3.5224,6.7083,5.4201ZM18.73805,32.67792c1.9751,2.5879,3.978,5.2529,5.7295,8.031.9516,1.5069,1.8518,3.0855,2.7232,4.6111,1.2659,2.2178,2.5761,4.509,4.0678,6.6399.6966.9916,1.4386,2.004,2.1947,3.0353,2.4855,3.3884,5.0355,6.875,6.6078,10.524-.012.0042-.0239.0087-.0362.0127-.3206.1173-.6585.1691-1.0036.1741-2.908-2.1102-5.674-4.4336-8.2276-6.9586-3.1648-3.1293-5.5673-6.1167-7.3464-9.1296-2.181-3.6933-3.642-7.7965-5.0052-11.8208-.0554-1.7125.0398-3.4262.296-5.1191ZM18.57995,39.79962c1.2026,3.451,2.5444,6.9093,4.4191,10.0823,1.802,3.0534,4.2314,6.0743,7.4277,9.2351,2.3547,2.3284,4.8832,4.4936,7.5392,6.4747-.7278-.156-1.4481-.4476-2.0776-.735-9.6402-4.3997-16.2516-14.5292-17.3084-25.0571ZM66.75025,76.79612c.453-.1949.9097-.379,1.3672-.5599-1.2467,1.7635-2.3054,3.5159-3.3269,5.2276-1.4637,2.45-2.9753,4.9826-5.0493,7.4977-4.287,5.2021-8.7201,10.5819-13.8216,15.1574-1.9394,1.741-4.3349,2.5546-6.6938,2.3292-.0249-.245-.0282-.5098-.0084-.7922,7.4448-10.988,16.886-20.8813,27.5328-28.8598ZM64.67905,88.40492c-3.1028,4.5654-6.4886,9.3397-10.7412,13.1191-2.8493,2.5335-7.2346,5.7069-11.9429,6.4416-1.2343.1927-2.0548.0233-2.4376-.5045-.0969-.1336-.1712-.2926-.227-.4706,2.4533.191,4.9305-.6823,6.9378-2.4836,5.13-4.6018,9.5764-9.9975,13.875-15.2119,2.0991-2.5477,3.6214-5.0978,5.0939-7.5637,1.1424-1.9123,2.3237-3.8749,3.7691-5.8402,1.0852-.4052,2.1807-.776,3.2874-1.1022-1.7913,4.8665-4.6241,9.2208-7.6145,13.616ZM58.55985,81.23892c1.9566-1.3012,3.9808-2.4512,6.055-3.4601-9.6602,7.5343-18.2709,16.6367-25.215,26.6835.2237-.9993.6188-2.0668,1.0882-2.9898.2694-.5278.5469-1.0513.8334-1.57,4.119-7.4578,10.0492-13.8852,17.2384-18.6636ZM10.30785,105.79522c9.1188.1176,18.2561,4.074,24.625,10.6095-.1209.2708-.2748.5292-.4649.7741-1.5692-.8411-3.1058-1.8121-4.5912-2.7593-2.6996-1.7189-5.4906-3.4954-8.5829-4.5265-6.6692-2.2231-12.351-2.7788-17.2889-1.6835,1.7897-.9078,3.8629-1.802,6.1149-2.505.0471.053.1116.0893.188.0907ZM2.75555,109.06862c5.1512-1.5157,11.171-1.0816,18.3741,1.3197,3.0311,1.0091,5.7937,2.7698,8.4667,4.4716,1.3345.8512,2.7092,1.7266,4.1195,2.5103-4.3809.4409-8.7728-.4918-12.531-1.4837-6.3382-1.6703-12.536-3.9631-18.4293-6.8179ZM32.73395,118.60472c-3.5342,1.9039-9.6637,1.7465-12.5031.7946-2.2147-.7419-4.2889-2.0015-6.2928-3.2221l-9.2923-5.6488c5.285,2.4118,10.7894,4.3825,16.4073,5.8621,3.8136,1.006,8.2765,1.9354,12.7508,1.476-.313.2646-.6576.516-1.0699.7382ZM22.93095,104.78772c3.0698.6444,6.0349,2.1773,8.35,4.3165,2.8447,2.6266,4.2887,5.1561,3.8631,6.7693-6.1893-6.262-14.8953-10.1391-23.6907-10.5547,3.5732-.9553,7.5217-1.3643,11.4776-.5311Z"/><path class="cls-3" d="M40.34505,35.33352c.1653-.2994.2977-.617.3915-.949.4917-1.7471-.046-3.7928-1.436-5.4699-.829-1.0044-1.7547-1.6297-2.7513-1.8569-1.2169-.2767-2.4669.1378-3.5223,1.1665-1.4834,1.4458-2.3443,3.8403-1.9974,5.562.4457,2.2184,2.383,3.9511,4.6037,4.122,1.9084.1493,3.8063-.9352,4.7118-2.5747ZM33.07285,33.37522c-.1808-.9044.354-2.6326,1.4101-3.6585.3758-.3668.9592-.7725,1.6029-.6263.5372.1222,1.079.5098,1.6093,1.1539.7364.888,1.3949,2.2937,1.0344,3.576-.3445,1.2216-1.6555,2.1089-2.9354,2.0092-1.269-.0963-2.4639-1.1749-2.7213-2.4543Z"/><path class="cls-3" d="M46.68885,26.41602c.0966.6231.289,1.1758.5677,1.6438.9668,1.6246,3.1679,2.3636,5.0128,1.6803,1.0373-.3831,1.9053-1.1736,2.4534-2.1661.3377-.6113.5534-1.2968.6157-2.0137.0545-.6629-.0208-1.2719-.2248-1.8101-.4505-1.1885-1.5801-2.1055-2.949-2.3937-1.73-.3626-3.2586-.0161-4.3051.9756-1.0164.9621-1.432,2.4138-1.1707,4.0839ZM49.04815,26.99102c-.1444-.2378-.244-.5394-.2997-.8933-.1502-.9808.0512-1.7834.5451-2.2525.5348-.5071,1.4025-.6675,2.4412-.4471.6705.1399,1.2315.5684,1.4297,1.0896.0929.2466.126.5487.0971.8978-.0942,1.0782-.7987,2.0612-1.7157,2.4013-.9003.3331-2.0435-.0308-2.4977-.7958Z"/><path class="cls-3" d="M38.64065,17.79332c.506-.2575,1.0079-.5904,1.2652-1.0967.3329-.6553.172-1.4812-.2473-2.0849-.4194-.6037-1.0583-1.0187-1.7142-1.3505-2.5682-1.299-3.5821,2.7332-2.1121,4.3114.2288.2456.5071.4521.8259.5568.6542.2145,1.3689-.0239,1.9825-.3361Z"/><path class="cls-3" d="M43.52735,2.91402c.4019.7937,1.3434,1.2311,2.231,1.1695.598-.0415,1.2123-.3142,1.5145-.8318.1221-.2089.1881-.4469.2188-.6867.1117-.8683-.2735-1.803-1.0115-2.274-1.6179-1.0322-3.8351.8802-2.9528,2.623Z"/></g></g></g></svg>