<?xml version="1.0" encoding="UTF-8"?><svg xmlns="http://www.w3.org/2000/svg" viewBox="0 0 83.71979 137.16806"><defs><style>.cls-1{isolation:isolate;}.cls-2{fill:#ffda73;mix-blend-mode:multiply;}.cls-2,.cls-3{stroke-width:0px;}.cls-3{fill:#6d6d6d;}</style></defs><g class="cls-1"><g id="_レイヤー_2"><g id="Object"><path class="cls-2" d="M.63866,89.83345c1.1237,1.4711,3.0494,2.0737,4.8827,2.3302,2.616.366,5.3058.1952,7.8545-.4987,2.7172-.7397,5.4374-2.2428,6.6293-4.7942.4324-.9256.623-2.0705.0807-2.9363-.3435-.5486-.9259-.8977-1.5054-1.1859-3.8788-1.9294-8.4539-1.9885-12.7134-1.1984-.9488.176-1.9088.3991-2.7359.8962-2.1382,1.2853-4.2148,5.1322-2.4925,7.3871Z"/><path class="cls-2" d="M9.99056,71.17235c.2003,1.2905.8142,2.4843,1.5561,3.5591,2.0547,2.9766,5.1815,5.1962,8.6693,6.1538.9089.2495,2.0299.3576,2.6547-.3482.6486-.7325.3605-1.8686.023-2.7869-.7329-1.9945-1.5346-3.9731-2.6014-5.8109-.9928-1.7105-2.2581-3.3307-3.9775-4.308-3.2123-1.8258-6.9751-.6531-6.3242,3.5411Z"/><path class="cls-2" d="M63.82836,63.20135c1.1319,1.9136,2.8411,3.4217,4.6565,4.7051,1.7899,1.2652,3.7109,2.3449,5.7222,3.2162,2.0186.8744,4.4556,1.5081,6.3288.3546,1.7941-1.1048,2.3804-3.5809,1.7863-5.6025-.594-2.0216-2.1269-3.6362-3.7982-4.9194-3.3684-2.5861-7.5183-4.134-11.7538-4.4148-1.3941-.0924-3.4369-.4416-4.0849,1.0749-.6931,1.6218.3239,4.2011,1.1431,5.5859Z"/><path class="cls-2" d="M65.68376,53.39495c1.7037,1.4737,4.1455,1.8027,6.3806,1.5222,4.7358-.5943,9.062-3.7885,11.0242-8.1394.4177-.9264.7387-1.9412.5974-2.9476-.2295-1.6344-1.6572-2.8938-3.2178-3.4307-2.0785-.7152-4.4033-.3831-6.4333.4601-3.9052,1.6221-14.0607,7.5968-8.3511,12.5354Z"/><path class="cls-3" d="M68.95146,30.14545s.0007-.0019.0013-.0037c.1441-.5582-.192-1.1258-.7502-1.2689-.4949-.1272-.9976.1228-1.2051.5698-.2607.2706-1.2095.8575-1.677,1.1481-.4583.283-.8525.5343-1.0332.6823-1.0413.8521-2.0529,1.7818-3.0076,2.7615-1.9083,1.9625-3.5659,4.0953-4.9251,6.34-.1287.2115-.2919.4538-.4683.7177-.9096,1.3628-2.1559,3.2263-1.7127,4.9093.3802,1.4425,1.2667,1.9799,1.9445,2.1761,1.4947.435,3.3071-.43,4.4392-1.4812,2.3506-2.1818,5.0145-4.6545,6.3999-7.9306.1062-.2518.2047-.5063.2955-.7635.5463-1.5473.8171-3.1552,1.08-4.716.1837-1.0923.3578-2.1234.6188-3.1409Z"/><path class="cls-3" d="M53.86386,3.65455c-.5514.926-3.9185,9.2646-2.1207,12.03.4927.757,1.2964,1.1099,2.2618.993,1.8377-.2213,3.1246-3.0593,4.1863-5.7026l.1565-.3852c.2317-.5616.4478-1.1308.6484-1.699.6201-1.7565,1.1046-3.5199,1.5433-5.1204.6764-2.4511-.4664-3.3079-.988-3.5612-.5743-.2782-1.2506-.2796-2.0111.0002-1.3938.5141-2.5971,1.6416-3.6765,3.4452Z"/><path class="cls-3" d="M59.65566,14.00925c-.0047.0134-.0088.0249-.0136.0384-.6899,1.9543-2.03,6.6151-.4653,9.7691-.7541.6835-1.5459,1.3454-2.3294,1.9992-.4825.4034-.9566.804-1.4211,1.2048-.4484-3.6073-1.508-7.2051-3.4662-10.5686-.0532-.0913-.1283-.1588-.2019-.2273-.3585-.6583-.9876-1.4325-1.861-2.3988-1.3425-1.5146-2.8011-2.7614-4.3336-3.7041-2.8764-1.7775-6.1155-2.5367-9.1187-2.142-1.6402.2154-2.1203,1.0952-2.277,1.5817-.1562.5343-.0518,1.0245.0713,1.4371,1.1773,3.9024,5.166,6.9384,9.7,7.3843.9483.093,1.8905.0845,2.803.0742,1.1731-.0113,2.2827-.0232,3.3542.1737.2672.0487.4949.0548.6951.0369,4.7134,9.2686,2.6291,20.3091.1098,27.8389.0987-2.1215-2.9798-5.8454-3.0107-5.8819-2.3291-2.7071-6.0945-3.5228-8.8443-4.1178-.4329-.0947-.8787.0977-1.1104.4759-.2264.369-.1958.8633.0844,1.204.7151.87,1.3453,1.7941,2.0133,2.7728.8414,1.2339,1.7116,2.5084,2.7596,3.6557l.0009.0003c.049.054,5.0065,5.2499,7.499,3.1894.0818-.0684.1698-.1599.2534-.2683-.3435.9699-.6892,1.8756-1.022,2.6957-1.3296,3.2741-2.8721,6.2764-4.5064,9.4561-2.4496,4.7649-5.1151,9.9648-7.4624,16.9465.3291-5.8764.2298-11.7746-.8627-17.5819-1.2985-6.906-3.9925-13.4903-7.1-19.6847.6148.5636,1.5237.672,2.712.309,3.3831-1.0336,5.3261-4.2531,6.3612-6.7721.4111-1.0055.7562-2.0409,1.1025-3.0737.5781-1.7476,1.1266-3.3868,1.9942-4.8811.0332-.0573.0599-.1147.0817-.1763.1037-.2937.0718-.6222-.0951-.8927-.2005-.3278-.5655-.5171-.948-.4945-2.1434.124-4.2698,1.2214-6.3205,3.263-1.9235,1.9137-3.4638,4.2889-4.4548,6.8666l-.1052.2736c-.6239,1.5983-1.1461,3.1352-.9683,4.3124-1.7416-3.3841-3.5869-6.6457-5.378-9.7756.5033-.3082,1.2203-.9993,2.1784-2.5931.3219-.536.5657-1.1042.7671-1.6744.1361-.3857.2524-.77.3602-1.1486,1.2906-4.5271,1.237-8.1299-.167-11.0113-.091-.1855-.2799-.5738-.6674-.8336-.8907-.6081-2.0278-.228-2.8305.948-1.9067,2.8048-3.0085,5.2377-3.4605,7.6645-.393,2.1045-.2426,4.1984.4838,6.2448-.8944-.7873-1.8006-1.4378-2.4828-1.8577-3.9884-2.4529-8.9424-2.3541-12.9234-2.2721-.3945.0077-.7495.2365-.9196.5931-.1721.3559-.1251.7762.1167,1.0881.3979.5119.7664,1.0457,1.1366,1.578.5622.8138,1.1443,1.654,1.8304,2.4317,1.9601,2.2206,4.8126,3.9248,8.2486,4.9307l.456.1393c2.6675.8253,5.6367,1.606,7.1049.4317.2608-.2096.4463-.4775.5785-.7757,3.8935,6.9016,7.8085,14.3998,10.0766,22.3058-3.1116-1.12-6.1396-2.494-9.0177-4.1231-.0192-.022-.0395-.0442-.0604-.0645-.3872-.3734-.7909-.7039-1.2016-1.0118,1.1255.085,1.7111-.4437,1.9749-.8267.1007-.1479.1815-.3094.2431-.484.892-2.5264-2.1802-7.6201-2.5248-8.0568-1.4335-1.8253-3.0838-2.8075-4.7745-2.8343-.3043-.0062-.7593.0168-1.1943.2734-.8688.5071-1.1633,1.5583-.7992,2.8936l.001.0003c.0158.0592,1.2809,4.5624,3.7154,7.1877-1.4302-.5541-2.8165-.8546-3.964-1.0078-2.6629-.3551-5.5662-.1971-9.1411.4989-1.8132.3509-2.3405,1.2571-2.4606,1.9552-.1349.7857.2367,1.4544.5294,1.8881,1.2333,1.83,3.2306,3.2757,5.6232,4.0752,1.8899.6305,4.0712.8975,6.6693.8154,1.3381-.0416,2.8926-.1793,4.2857-.8813,1.1041-.5559,1.9489-1.4169,2.4109-2.4045,3.21,1.7897,6.5929,3.2883,10.0706,4.4665.0822.0277.1648.025.2476.0318.2019.8402.3901,1.6832.5496,2.5318.5817,3.0911.8697,6.2244.959,9.3761-1.2796-1.6443-3.8788-2.8561-3.9119-2.8712-1.0835-.4776-2.0571-.6829-2.9749-.6272-.9581.0569-1.8159.3952-2.5706.6923l-2.1937.8598c-.2921.1149-.5135.3629-.6106.6502-.0958.2986-.0536.6224.116.8851.6725,1.0428,1.4351,2.2274,2.6256,3.0321l.001.0003c1.4349.9685,3.1418,1.148,4.7745,1.1954.1934.0058.4466.0283.7324.0535,1.6018.1381,2.894.1991,3.7255-.3858.1162-.0813.2171-.1656.3083-.2511-.0658,5.5993-.6592,11.232-1.2859,16.7731-3.592-2.0657-7.3801-3.8107-11.3026-5.175.8784-1.9071.4163-4.2336-.1257-6.1565-.5353-1.9052-1.108-3.7504-2.2194-5.3691-1.3343-1.9413-3.3122-3.1664-5.2889-3.2792-1.1918-.0669-2.2744.2721-3.051.9523-.5851.5167-1.0153,1.2368-1.23,2.0958-.5197,2.0102.154,4.3119,1.9458,6.6544.679.8896,1.4313,1.7186,2.2468,2.4815-2.9112-.514-5.9015-.5441-8.7414.4675-1.524.5436-2.629,1.2826-3.3761,2.2581-1.0124,1.3264-1.2269,3.1053-.5294,4.4224.7343,1.3906,2.2667,2.1928,4.5546,2.3809,5.1852.4358,10.6047-1.5563,14.3073-5.219,4.3088,1.435,8.4664,3.326,12.3712,5.6243.0602.0358.1265.044.1901.0662-.2693,2.3711-.5349,4.7405-.7563,7.1024-.1405,1.4931-.2667,3.0403-.3654,4.6259-.5543-.6903-1.171-1.3198-1.7961-1.8549-1.8806-1.6138-4.1245-2.8681-6.49-3.6255-7.1216-2.2769-14.7036-.0118-19.786,1.8878-.3208.1197-.5701.416-.6467.7217-.0831.3333.0012.6846.2278.9418,2.9691,3.3861,6.0387,6.8881,10.0984,9.2215,3.5827,2.0638,7.8647,3.1287,12.3842,3.0834,2.4713-.0251,4.4583-.5039,5.8474-1.3653.2721,8.4708,1.934,17.334,6.8789,24.9285.3144.4822.9591.6191,1.442.3061.1993-.1304.3402-.3182.4141-.5275.1037-.2937.0742-.6322-.1098-.9154-5.1645-7.9322-6.5695-17.4243-6.584-26.3112.0336-.1097.0692-.2183.0946-.3327.1799-.8194.1388-1.6496-.0539-2.4635.072-2.4693.2321-4.8679.434-7.1543,1.942,1.0185,5.1363.275,6.1349.0006,1.2225-.3348,2.2899-1.0222,3.0824-1.5823,1.7653-1.2484,3.2923-2.6783,4.5396-4.248,1.9597-2.4687,3.2483-5.2933,4.2785-8.2111.6018-1.7048,1.1161-3.4424,1.6221-5.1571.7269-2.4593,1.4789-4.9961,2.467-7.3483.1623-.4262.0539-.9263-.3102-1.2191-.3647-.2907-.8783-.3037-1.2572-.0314-1.8132,1.2986-3.8742,2.3757-5.8677,3.4206-3.1556,1.6517-6.4195,3.3598-8.9588,6.0363-1.3095,1.3793-2.4946,3.094-3.62,5.2419-.2486.4726-.5025.9724-.7559,1.4832,2.4656-11.2065,5.8652-18.5312,9.0476-24.7975.0453-.0247.0953-.034.1377-.0659,5.1017-3.8527,11.4022-6.2902,17.7702-6.9001-.2794,1.2364.4216,2.5719.9153,3.4883l.1007.1888c2.0352,3.8297,5.5652,6.1531,8.1677,7.4283,1.3662.6678,3.4349,1.5256,5.6076,1.2543.9006-.1139,1.6577-.4056,2.2519-.8718.5815-.4575.9709-1.0409,1.1994-1.6879.4811-1.3628.2438-2.999-.4238-4.2818-1.1696-2.2458-3.2518-3.5639-4.7932-4.2765-1.6344-.7519-3.3441-1.1742-5.0207-1.5438,2.2701-.5564,4.4278-1.5068,6.3625-2.8163,1.8598-1.2563,3.107-2.6058,3.8111-4.1232.952-2.0451.7848-4.3539-.3943-5.9338-.1162-.1552-.255-.291-.3897-.4304-.0003-.0054.0002-.0105,0-.0159-.0072-.1322-.1158-.2263-.2452-.2356-1.4853-1.3253-3.8288-1.7887-6.031-1.1123-2.1597.6625-3.8677,2.1494-5.392,3.66-1.3231,1.3074-2.8223,2.9091-3.923,4.865-.8095,1.4362-1.3063,2.9155-1.4733,4.3589-.0749-.0101-.1466-.0322-.2251-.0253-5.6362.4899-11.2229,2.3621-16.086,5.3101,1.3647-2.6704,2.6573-5.275,3.8038-8.0984.35-.8631.7141-1.8119,1.0754-2.8351,1.7618-4.9903,3.4367-11.7211,3.1056-18.611.0534-.0338.1127-.0534.1608-.0978.7488-.69,1.5614-1.3682,2.3865-2.0571.7617-.6377,1.5311-1.2794,2.2734-1.9477.7721.6502,1.7502,1.0691,2.9263,1.2447,3.0039.4473,6.233-1.0336,7.8505-3.5972.0622-.0969.1734-.2712.2541-.4998.0583-.1651.101-.3593.0971-.5745-.0059-.4512-.199-.8733-.5687-1.2479-.6622-.6806-1.9595-1.3998-4.3801-.9614-.6511.1199-1.2943.2815-1.9238.4868.1061-.2087.2064-.4195.3013-.6365,1.0192-2.3149,1.3737-4.9057,1.6602-6.983.0854-.6089.2841-2.0369-.7603-2.9067-.6109-.505-1.4848-.6407-2.3942-.3703-2.2355.6572-3.2763,2.9324-3.8643,4.5858ZM18.11786,39.73145c-.1057-.3915-.0737-.6046-.0527-.5324,1.3157.0218,2.4501,1.1197,3.1702,2.0367.8537,1.083,2.6723,5.3521,2.2812,6.0106-.0017.0015-.1655.0496-.6293-.0948-2.0413-.63-4.0523-4.8007-4.7694-7.4201ZM15.58326,48.52795c2.485.3315,4.7342,1.2204,6.4581,2.5345-.7202.501-1.7819.7645-3.2215.7975-4.2201.0982-8.4149-.8503-12.1907-2.7219.1203-.0435.2691-.0893.4874-.1319,3.3448-.65,6.0353-.801,8.4667-.4782ZM17.01376,53.61235c-2.3469.0736-4.2908-.1593-5.9442-.7106-1.9411-.6468-3.545-1.7932-4.5249-3.2232,3.8127,1.8594,8.0377,2.7994,12.2872,2.7038,1.169-.0268,2.1108-.2062,2.8532-.5326-.2912.4382-.7174.8305-1.2581,1.1022-1.0297.5195-2.3028.6247-3.4132.6604ZM15.28406,70.92495c1.3379.0751,2.7178.9639,3.689,2.3777.9306,1.354,1.4444,3.0206,1.9304,4.7533.4121,1.4623.7792,3.2048.3224,4.4987-.002.0058-.004.0115-.0054.0152-.1109-.0532-.2177-.114-.3274-.1696-2.8459-3.2637-5.3661-6.8146-7.5288-10.5678.0918-.1692.2078-.3354.3623-.4707.3571-.3143.9246-.4725,1.5575-.4368ZM14.72346,77.27955c-.9593-1.2532-2.0031-3.1023-1.5926-4.8147,1.9007,3.249,4.074,6.3383,6.4896,9.2254-1.8844-1.1557-3.5539-2.65-4.897-4.4107ZM4.85156,85.01855c.4946-.6458,1.2859-1.1565,2.4199-1.5615,3.0469-1.0852,6.4035-.7577,9.6221.0465-4.3164.0685-8.5899,1.3018-12.4905,2.4783.0202-.0882.0379-.1765.0688-.2641.0861-.2437.2133-.4816.3797-.6992ZM7.39396,88.47875c-1.054-.0872-2.41-.3803-2.8848-1.2797-.103-.1932-.1544-.4188-.1646-.6565,4.5497-1.3741,9.623-2.8575,14.6359-2.452.2097.065.4227.1257.6301.1929-3.2577,2.9713-7.8309,4.5627-12.2166,4.1953ZM73.73346,65.14825c-2.3259-1.1384-5.471-3.1944-7.243-6.5317l-.1066-.1995c-.1917-.3549-.6297-1.1696-.7263-1.7066.8832.414,1.7777.8135,2.6754,1.2094,3.3349,1.4755,6.7836,3.0017,9.5014,5.4488.6697.6039,1.4016,1.4409,1.6003,2.3492-.0168.0143-.0282.0338-.0458.0477-.2908.2274-.7033.3776-1.2238.4423-1.2331.154-2.6412-.1811-4.4316-1.0596ZM75.78606,59.05305c1.246.5737,2.9183,1.6218,3.8171,3.3445.4572.8748.5965,2.0216.2149,2.8097-.2647-.73-.8078-1.4802-1.6356-2.2253-2.7789-2.5031-6.2663-4.0453-9.6393-5.5383-.8157-.36-1.627-.7258-2.4321-1.0989.7879.0731,2.0563.4716,2.8759.7286.5644.1778,1.0626.332,1.4105.4076,1.8215.3902,3.7034.7958,5.3886,1.5721ZM79.92196,47.79695c-.5418,1.1646-1.5519,2.2371-3.0886,3.2751-2.5694,1.7375-5.5816,2.7725-8.7103,2.9935-.231.0155-.5012-.0021-.7839-.0177-.065-.0038-.1449-.0053-.215-.0088l.6546-.2852c3.1217-1.3633,6.3488-2.7716,9.1611-4.8271,1.2058-.8809,2.5354-2.1058,3.3433-3.6001.1249.7846.0072,1.6675-.3612,2.4703ZM67.25406,50.49435c.9729-1.7312,2.3512-3.1983,3.5721-4.4061,1.3342-1.3208,2.8074-2.6163,4.5375-3.1476,1.4528-.4457,3.4259-.2282,4.384,1.0513.1337.1784.2369.3821.325.5955-.7081,1.6343-2.1536,2.9786-3.4403,3.92-2.7662,2.0199-5.9672,3.418-9.0622,4.767l-1.5135.6604c.1834-1.3681.7107-2.5765,1.1974-3.4405ZM69.38436,22.13755c-1.2194,1.8061-3.536,2.8364-5.6921,2.5135-.69-.1034-1.2577-.3146-1.7113-.6411.0187-.0193.039-.0402.0577-.0595,1.4814-1.0314,3.1909-1.7426,4.9701-2.0645.7626-.1388,1.7565-.2022,2.3756.2516ZM64.61076,12.41225c-.2854,2.056-.6127,4.3801-1.5063,6.4373-.5397,1.2322-1.3575,2.3468-2.3194,3.3867-.7846-2.5567.3687-6.297.8349-7.5291.6921-1.9449,1.4828-2.9891,2.4893-3.2838.2608-.0784.4435-.0483.4739-.0246.0146.0137.1474.1512.0276,1.0135Z"/></g></g></g></svg>