<?xml version="1.0" encoding="UTF-8"?><svg xmlns="http://www.w3.org/2000/svg" viewBox="0 0 77.6743 103.65887"><defs><style>.cls-1{isolation:isolate;}.cls-2{fill:#ffcd42;mix-blend-mode:multiply;}.cls-2,.cls-3{stroke-width:0px;}.cls-3{fill:#6d6d6d;}</style></defs><g class="cls-1"><g id="_レイヤー_2"><g id="Object"><path class="cls-2" d="M21.47919,8.64967c.4255,1.5696,1.0912,3.2043,1.9766,4.8594.275.5131,1.0322,1.8078,2.1253,2.7666.9855.8663,1.8832,1.134,2.6181,1.134.6169,0,1.1177-.1893,1.4555-.3716.8613-.461,1.3092-1.3161,1.2624-2.4073-.1466-3.4577-5.865-10.1433-8.3345-11.5378-.0753-.0519-.1629-.0906-.275-.1394-.0039-.0011-.008-.0031-.0122-.0051-.5273-.2301-1.142.0132-1.37.5415-.1057.2474-.1099.513-.0305.7502.0529.2881.1486,1.1136.2485,1.9564.1831,1.538.2645,2.1905.3358,2.4531Z"/><path class="cls-2" d="M44.29629,17.76087c-.7797,1.197-.9813,2.2302-.6026,3.072.2319.514.7919,1.1685,2.1415,1.369.11.0163.224.0245.338.0245,1.2765,0,2.7584-.9925,4.4095-2.1885.34-.2463.6393-.4642.8715-.6117l7.5098-4.7353c1.8832-1.1869,3.8315-2.4144,5.4336-4.1204.2767-.2952.3583-.7227.2097-1.0984-.1507-.3766-.5029-.631-.906-.6554-3.5383-.2087-6.83,1.2336-9.6741,2.6027l-1.26.5914c-3.017,1.3976-6.7711,3.1361-8.4709,5.7501Z"/><path class="cls-2" d="M34.34329,14.61957c.1079.0265.2139.0387.3176.0387.9017-.001,1.5593-.9324,1.8567-1.3558,2.1802-3.1016.7205-9.3127-.3278-11.834-.4358-1.0536-1.2154-1.6001-2.0725-1.4414-.4886.0865-.9039.3868-1.2317.8938-.804,1.2407-.7755,2.6872-.6778,4.0624.1363,1.9278.3176,4.2089.6617,6.6214.2156,1.538.3868,2.7533,1.4738,3.0149Z"/><path class="cls-2" d="M32.33909,33.45637c-.114-.2029-.2579-.4054-.4362-.6074-.7523-.8527-1.9824-1.0352-3.0635-1.3876-1.8375-.599-3.4575-1.8431-4.5104-3.4638-.5722-.8808-1.0763-1.7623-2.0637-2.2321-.9103-.433-1.8425-.2185-2.832-.2942-1.1849-.0906-2.3599-.2551-3.5484-.3195-.9694-.0526-1.94-.0799-2.9106-.0946-3.3836-.0539-8.2064.5354-12.1232,3.6268C.62099,28.86827.00619,29.35687.00009,30.16297c-.008.7695.5315,1.4149,1.4475,1.7294.7329.2484,1.486.34,2.2272.34,1.1379,0,2.2473-.2148,3.2145-.4011,3.8456-.741,7.3817-1.3558,10.812-1.3181.4255.0041.8937.0305,1.3823.057.2536.0142.5155.0285.7818.0407-1.1999.3762-2.4864.8317-3.8639,1.3711-4.4971,1.7619-8.6114,4.4746-11.8971,7.8459-.2058.2128-.5904.6077-.6822,1.198-.0814.5263.0774,1.0302.4479,1.419.5151.5405,1.3131.7257,1.9524.7257.1159,0,.2258-.006.3298-.0172,2.4856-.2688,4.6416-1.474,6.7262-2.6394l.788-.4377c3.5197-1.9371,7.2533-3.5159,11.1886-4.721.6406-.1961,1.3554-.4234,2.062-.7128-.5945,1.1367-.9609,2.0668-.9689,2.091-.8162,2.332-1.1521,4.948-1.0301,7.9976.1038,2.5172,1.1789,3.3957,2.0603,3.6878.2198.0743.4416.11.6555.11.3583,0,.6963-.1008.9772-.2972.4031-.279.5823-.678.6717-.8744.6211-1.3946.7697-2.8614.9122-4.2803.0874-.8581.1688-1.6693.35-2.447.1018-.4438.4927-1.2958.9038-2.1986.7308-1.6048,1.8305-3.3014.8903-4.975Z"/><path class="cls-2" d="M76.67079,25.95687c.3237-.0122.6228-.1731.8101-.4367.1873-.2626.2423-.5985.1486-.9069-.5313-1.7508-2.2516-2.8857-5.1117-3.3723-5.7981-.9853-11.6631-.911-17.4305.2199-1.6905.331-3.3825.7259-4.9921,1.3491-.8446.3271-1.7519.6023-2.5039,1.1224-1.0622.7346-1.0855,1.6379-1.3234,2.8384-.2735,1.3799-.7212,2.5415-1.3179,3.8022-.4034.8525-.6441,1.7634-.3069,2.6826.6952,1.8947,3.1203,2.6584,4.8691,3.1276,2.6641.7147,5.4141,1.0488,8.1443,1.3975.8286.1059,1.6285.2067,2.3798.3146,2.6546.3797,5.1037.6107,7.4835.7054.0346.001.0733.002.116.002.3726,0,1.1381-.0437,2.034-.0987.9526-.0591,2.0622-.1273,2.9761-.1527.7655-.0234,1.4129-.4774,1.6876-1.1869.277-.7145.0938-1.5238-.462-2.0622-2.2291-2.1579-5.2807-3.3092-7.3817-3.9871-4.6631-1.508-9.5281-2.3229-14.4641-2.4295.1421-.035.2844-.0702.3946-.0918,7.9785-1.5757,16.1378-2.5305,24.2505-2.8369Z"/><path class="cls-2" d="M41.74099,15.70657c.5577-.53.9117-1.3963,1.3092-1.978.7646-1.1189,1.5745-2.2237,2.442-3.2651.0015-.0018.3664-.4398.3664-.4398.7981-.9527,1.6226-1.939,2.2537-3.0852.6269-1.1329,1.2908-2.8786.8997-4.7556-.0975-.4713-.5047-.8143-.9852-.8296-1.0851-.002-1.9381.8336-2.28,1.2062-2.7772,3.0267-5.304,6.7958-6.3108,10.8238-.3167,1.2668-.2444,3.4841,1.7539,2.6879.2055-.0819.3871-.2087.5511-.3646Z"/><path class="cls-2" d="M25.76269,21.41567c.3465-.6244.5955-1.3318.3374-2.0328-.2723-.7394-.9758-1.2645-1.5745-1.7306-.7661-.5964-1.5345-1.1939-2.3357-1.7428-1.1322-.7759-2.3126-1.4815-3.508-2.1551l-.226-.1272c-1.9195-1.0932-3.9879-2.162-6.2844-2.1895-.2117-.001-.7655-.0082-1.1889.4306-.2932.3003-.4296.7054-.4011,1.2011.0857,1.6266,1.1951,2.8806,2.1519,3.7906l.2625.2515c3.3817,3.2369,7.1274,6.4005,10.0446,6.4005,1.2087-.0001,1.917-.7923,2.5129-1.7436.0714-.114.1422-.2318.2093-.3527Z"/><path class="cls-3" d="M68.22499,45.22157c-.1224-.0475-.2558-.0733-.3951-.0733-8.4504.1395-16.9213,2.1895-24.5008,5.9282-3.9285,1.9395-6.6692,3.8142-8.2764,5.6639.2887-2.9351.7764-5.8916,1.2632-8.7675.8491-5.0049,1.7245-10.1677,1.5208-15.3569-.0031-.0799,2.1684-.5362,2.3984-.5911,1.9231-.4586,3.1568-1.1747,4.0567-2.9849.255-.513.5131-1.0351.61-1.5997.0547-.3186.0566-.6436.0584-.9668.0067-1.2074.1278-2.2646-.4021-3.3538-.5822-1.1966-1.1944-2.463-2.0356-3.502-1.534-1.8943-5.1513-3.3603-7.5631-3.1714-.4116.0322-.8208.0932-1.2243.1799-2.1763.4678-4.0064,1.6568-5.7237,3.0195-.6206.4924-1.1733.804-1.6204,1.4819-.6195.9393-1.3615,1.7026-1.5874,2.8475-.497,2.4926,1.0953,4.8956,3.3729,5.8966.7558.3321,1.5693.5068,2.3635.7323,1.5131.4297,3.4604,1.0094,4.587,2.1761.9093.9416.6601,2.2611.6008,3.4803-.1861,3.8202-.8289,7.5991-1.4661,11.3644-.5862,3.4538-1.1908,7.0245-1.4392,10.5851-.5456,7.8001-1.995,28.5193,3.974,44.766.1566.4224.5536.683.9791.683.1201,0,.2402-.0204.3605-.0642.5393-.1985.8162-.797.6187-1.3375-4.7397-12.8944-4.6697-28.8181-4.1905-38.4299.4253.5196.9487,1.0241,1.5948,1.5078,1.6511,1.2378,3.8661,1.8842,6.4393,1.8842.2178,0,.4377-.0051.6576-.0143,3.0456-.1282,6.028-1.0362,8.6237-2.6261,3.8047-2.329,6.498-5.9089,9.0998-9.3717,2.2291-2.9642,4.5337-6.029,7.4796-8.1737.3685-.2678.519-.7421.3765-1.1737-.0997-.2978-.3251-.5273-.6106-.6382ZM62.84049,47.56047c-.0659.0633-.139.1262-.2038.1895-7.5719,6.8473-17.0852,11.6367-27.0956,13.6531-.1007-.3152-.144-.6318-.1147-.9518.0013-.0146.0053-.0309.007-.0457,7.6164-5.4368,16.3386-9.1577,24.2306-12.4152,1.0546-.1767,2.1145-.3142,3.1765-.4299ZM36.24179,62.59637c-.2021-.2357-.3655-.4715-.4923-.7076,8.7817-1.7869,17.1817-5.6839,24.2406-11.2265-.4438.5354-.8693,1.0677-1.2906,1.595-1.9688,2.4622-3.8294,4.7881-6.9443,6.7904-3.3161,2.1301-9.42,5.1465-15.5134,3.5487ZM59.31419,53.95507c-2.5996,3.4578-5.0569,6.7242-8.5218,8.8466-2.2963,1.4046-4.9327,2.2077-7.6221,2.3207-1.6672.0642-3.992-.1292-5.7612-1.4555-.1625-.1218-.312-.2431-.4545-.3643.9535.1876,1.9037.2757,2.8404.2757,4.949,0,9.5173-2.3422,12.2413-4.093,3.188-2.048,5.0732-4.4064,7.0704-6.9023,1.1703-1.4647,2.3757-2.9702,3.8902-4.4553.2367-.214.4666-.4324.6981-.6497.3824-.0356.7635-.0831,1.1464-.1107-2.0766,1.9961-3.8232,4.3199-5.5272,6.5878ZM44.25339,52.94537c4.0756-2.0106,8.4207-3.5089,12.88-4.4687-7.1054,2.971-14.7088,6.4138-21.5014,11.1692.6072-1.5369,2.7088-3.7817,8.6214-6.7005ZM40.87619,28.32047c-.3729-3.4809-1.9964-6.7273-3.5755-9.6456.4634.0949.9035.2367,1.3153.4246.0844.1134.1673.2287.2467.3449.8144,1.1961,1.8323,2.7952,2.4797,4.5684.6432,1.7569.8407,3.5015.5719,5.0477-.0072.0418.0139.0769.0256.1149-.3008.2137-.6517.3756-1.0337.5027.0398-.4822.0133-.9522-.03-1.3576ZM42.52289,23.83767c.5817,1.5247.8589,3.5849-.0476,4.818.1705-1.5096-.0346-3.1601-.6443-4.8221-.5702-1.5641-1.409-2.9708-2.1617-4.1149,1.4634,1.1016,2.3524,2.8079,2.8536,4.119ZM28.48219,23.16277c.2006-.6909.4436-1.2761.7257-1.7866.3685-.3181.7388-.6122,1.1108-.8781-1.3594,2.5013-1.6927,5.5726-.9054,8.3075-.2526-.0667-.4951-.1459-.7136-.248-.7322-1.4279-.8138-3.3324-.2175-5.3948ZM31.13289,29.21727c-.7938-3.0418-.4016-6.3926,1.0727-9.1733-.6885,3.3243-.8073,6.4076-.3738,9.365-.234-.0666-.4677-.1306-.6989-.1917ZM30.56659,29.08027c-.1766-.0422-.3571-.0929-.5312-.1287-.0126-.0026-.0254-.0058-.0383-.0085-.9097-2.8388-.5386-6.1154,1.0238-8.6548l.1344-.2229c.0407-.0677.0774-.1258.1151-.1869.2112-.1248.4229-.2408.6348-.3486-1.6105,2.8661-2.0969,6.3541-1.3386,9.5504ZM26.84759,24.38027c.1554-.7827.7764-1.4935,1.3751-2.0921-.0851.2324-.1664.4728-.2413.7291-.509,1.7565-.5464,3.415-.1357,4.8024-.2045-.2968-.3746-.6412-.5238-.9894-.3055-.7146-.6352-1.6398-.4743-2.45ZM32.60669,29.62947c-.0739-.0216-.1464-.0412-.2204-.0627-.5153-3.2848-.3256-6.7336.5815-10.5057.1536-.0574.3076-.1159.4614-.1643.2086-.0655.4205-.0985.6311-.1468.5006.8433.7614,1.8288.9528,2.7109.6378,2.9405.9663,5.9587.9759,8.9721-1.0897-.1444-2.2504-.4735-3.3823-.8035ZM36.77189,30.51097c-.0855-.0031-.1764-.02-.263-.0262,0-.0025.0026-.0039.0026-.0064-.0063-3.0649-.3402-6.1358-.9896-9.1274-.1892-.8755-.4464-1.8512-.9315-2.7244.32-.0516.6374-.0697.9542-.0823,1.3598,3.8229,2.0376,7.9558,1.9602,12.0056l-.2972.0731c-.1303-.0672-.2789-.1069-.4357-.112ZM38.02599,30.42177c.0605-4.0095-.6069-8.0944-1.9332-11.8878.187.0059.3739.013.5571.0326,1.6137,2.9665,3.3307,6.2848,3.7092,9.8088.0461.4384.0676.9555-.0004,1.468-.191.0511-.384.0993-.5759.1464l-1.7568.432Z"/><path class="cls-3" d="M26.86589,51.81137c-.3198-.1007-.6087-.1903-.8245-.2789l-.7248-.2992c-3.8783-1.5991-7.8888-3.2542-12.1353-4.0675-3.4404-.6556-6.0728-.3654-8.0454.8937-.3359.2158-.8123.568-1.0588,1.142-.521,1.2083.2017,2.5366,1.8384,3.3825,5.4783,2.8298,11.5571,3.8324,17.4385,4.8024l.2097.0357c.7635.1282,1.8691.3135,2.9824.3135,1.5698,0,3.1595-.3685,3.8335-1.7864.3909-.8205.2586-1.4852.0774-1.8974-.5599-1.2876-2.2393-1.8159-3.5911-2.2404ZM9.86909,48.90127c.8651,0,1.8342.1048,2.9213.3125,4.037.7736,7.9477,2.3869,11.7302,3.9474l.7268.2992c.2626.1079.6087.2189.9935.34.2415.076.4573.1486.6611.2201-1.0413.0933-2.1301-.016-3.1876-.1539-5.9037-.7792-11.7324-2.1638-17.3525-4.1042.9391-.5721,2.0827-.8611,3.5072-.8611ZM23.90979,55.36587l-.2178-.0356c-5.7186-.9446-11.6345-1.9197-16.8195-4.5989-.3155-.1628-.536-.338-.6822-.4761,5.6544,1.9515,11.519,3.3435,17.455,4.1284.8122.1068,1.6428.1985,2.4631.1985.5872,0,1.1667-.0551,1.7321-.1779.4255.2152.6526.4241.658.6491-.3217.6668-1.8708.7685-4.5887.3125Z"/></g></g></g></svg>