<svg xmlns="http://www.w3.org/2000/svg" width="99.995" height="48.716" viewBox="0 0 99.995 48.716"><g transform="translate(-1145.49 -1367.945)"><g transform="translate(1185.486 1367.945)"><g transform="translate(0 0)"><path d="M40.148,71.071a1.446,1.446,0,0,1-.163-.715,1.075,1.075,0,0,1,1.1-.852,2.482,2.482,0,0,1,1.393.572,7.844,7.844,0,0,1,2.145,2.371,6.227,6.227,0,0,0,.585-1.8,1.984,1.984,0,0,1,1.1-1.452,1.527,1.527,0,0,1,1.777.976,3.017,3.017,0,0,1-.144,2.181c-.275.694-.674,1.334-.935,2.033a3.137,3.137,0,0,1,2.227-1.262c.449-.04.995.085,1.146.51a1.16,1.16,0,0,1-.314,1.03,7.235,7.235,0,0,1-1.995,1.8c1.364-.193,3.055.069,3.594,1.337a.564.564,0,0,1,.046.409.624.624,0,0,1-.312.293,5.193,5.193,0,0,1-3.472.546A9.844,9.844,0,0,1,49.123,81.1a2.64,2.64,0,0,1,.282,1.416,1.1,1.1,0,0,1-.939.969,1.657,1.657,0,0,1-1.054-.506,3.267,3.267,0,0,1-1.437-2.045,4.724,4.724,0,0,1,.7-2.13,3.482,3.482,0,0,0-.011-3.071c-.779-1.351-2.11-.824-3.28-1.318a6.559,6.559,0,0,1-3.238-3.339Z" transform="translate(-26.737 -46.238)" fill="#ffda73"/><path d="M24.428.435A1.7,1.7,0,0,0,22.9.077a1.532,1.532,0,0,0-.74,1.275,5.087,5.087,0,0,0,3.152,5.269,1.628,1.628,0,0,0,1.632-.092c.678-.6.57-2.259.28-3.016a6.867,6.867,0,0,0-2.8-3.079Z" transform="translate(-14.796 0)" fill="#ffda73"/><path d="M58.026,30.457a1.144,1.144,0,0,0-.431.134,1.041,1.041,0,0,0-.4.69,3.429,3.429,0,0,0,.141,1.855,1.911,1.911,0,0,0,.777,1.064,1.522,1.522,0,0,0,.714.186A2.339,2.339,0,0,0,61,31.836C60.84,30.479,59.108,30.286,58.026,30.457Z" transform="translate(-38.201 -20.333)" fill="#ffda73"/><path d="M44.881,55.746a3.565,3.565,0,0,0-3.511,1.588,1.327,1.327,0,0,0-.05,1.6,1.514,1.514,0,0,0,1.487.136,11.938,11.938,0,0,0,1.267-.446,4.252,4.252,0,0,0,1.267-.745c.84-.772.8-1.923-.46-2.13Z" transform="translate(-27.466 -37.251)" fill="#ffda73"/><path d="M3.72,60.026A3.11,3.11,0,0,0,1.754,59.3,1.821,1.821,0,0,0,.088,60.428a2.116,2.116,0,0,0-.056.987,2.627,2.627,0,0,0,.745,1.55,2.057,2.057,0,0,0,2.5.178c.8-.559,1.3-2.448.439-3.117Z" transform="translate(0 -39.655)" fill="#ffda73"/><path d="M10.9,78.129a2.444,2.444,0,0,0-1.175-.359,1.082,1.082,0,0,0-.781.156,1.044,1.044,0,0,0-.3.515,2.5,2.5,0,0,0,.03,1.575A2.028,2.028,0,0,0,9.72,81.182a1.412,1.412,0,0,0,1.621-.346,1.96,1.96,0,0,0-.436-2.707Z" transform="translate(-5.707 -52.002)" fill="#ffda73"/><path d="M9.717,8.776a7.887,7.887,0,0,0,1.87,1.9l1.762,1.42c-.2,1.115-.382,2.237-.548,3.361a4.294,4.294,0,0,0-.724-1.275,5.894,5.894,0,0,0-1.72-1.391,1.5,1.5,0,0,0-1.248-.242,1.007,1.007,0,0,0-.571.956,1.793,1.793,0,0,0,.45,1.072,3.98,3.98,0,0,0,1.784,1.174,7.583,7.583,0,0,0,1.926.418q-.464,3.314-.706,6.665l-1.234-.746a.785.785,0,0,1-.28-.228.777.777,0,0,1-.029-.349,4.775,4.775,0,0,0-3.576-4.529,1.154,1.154,0,0,0-1.341.395,1.028,1.028,0,0,0,0,.937,2.792,2.792,0,0,0,.169.324A11.819,11.819,0,0,0,7.39,21.018a4.264,4.264,0,0,0,2.587,1.33,1.633,1.633,0,0,0,.424.333l1.539.93q-.158,2.459-.2,4.927l-4.7-.679a2.979,2.979,0,0,1-1.543-1l-.15-.143a2.092,2.092,0,0,0-.259-2.154h0a1.977,1.977,0,0,0-2.412-.617,1.932,1.932,0,0,0-.934,2.5,2.344,2.344,0,0,0,.419.646,1.848,1.848,0,0,0,2.634.328,1.944,1.944,0,0,0,.15-.136l.07.067a3.536,3.536,0,0,0,1.926,1.193l.434.063-.817,1.049a1.565,1.565,0,0,0-.476-.331,1.981,1.981,0,0,0-1.874.194,1.234,1.234,0,0,0-.462.495,1.314,1.314,0,0,0-.094.69,2.411,2.411,0,0,0,.182.73,1.837,1.837,0,0,0,.842.938,1.616,1.616,0,0,0,1.55-.075,1.753,1.753,0,0,0,.716-2.008l1.221-1.568,3.564.515q-.031,3.538.188,7.071a8.85,8.85,0,0,0-2.062-1.55,2.825,2.825,0,0,0-.973-.349,1.327,1.327,0,0,0-.984.237,1.4,1.4,0,0,0-.449.725,1.345,1.345,0,0,0-.053.55,1.264,1.264,0,0,0,.582.848,2.713,2.713,0,0,0,.991.359,6.617,6.617,0,0,0,2.988-.086,99.472,99.472,0,0,0,2.134,14.815.333.333,0,0,0,.02.061.345.345,0,0,0,.654-.212q-.783-3.52-1.3-7.109a.343.343,0,0,0,.133-.047L15.458,43.4a1.212,1.212,0,0,0,.5.135c.059.007.118.014.171.024a1.676,1.676,0,0,0,1.032-.189c.42-.191.819-.415,1.193-.627a3.642,3.642,0,0,0,1.983-2.069,1.417,1.417,0,0,0,.009-.711,1.5,1.5,0,0,0-.3-.547,2.488,2.488,0,0,0-3.935.095,3.552,3.552,0,0,0-.536,1.19,8.52,8.52,0,0,0-.346,2.028L13.363,43.88q-.329-2.375-.546-4.768c.264-.315.529-.629.806-.932A15.2,15.2,0,0,1,18.591,34.6a5.378,5.378,0,0,1,.539,1.555.732.732,0,0,0,.324.547.674.674,0,0,0,.433.063h0a10.213,10.213,0,0,0,1.442,3.325,1.465,1.465,0,0,0,.973.744,1.113,1.113,0,0,0,1.052-.546,1.806,1.806,0,0,0,.235-1.015,4.191,4.191,0,0,0-.738-2.182c-.153-.233-.3-.444-.447-.638a5.237,5.237,0,0,0,1.836.236,1.918,1.918,0,0,0,1.126-.4,1.141,1.141,0,0,0,.355-1.3,1.315,1.315,0,0,0-.341-.436,3.608,3.608,0,0,0-2.028-.843c-.215-.022-.447-.048-.689-.065a8.2,8.2,0,0,0,1.115-.89,2.21,2.21,0,0,0,.527-.676,1.121,1.121,0,0,0-.014-1.021,1.136,1.136,0,0,0-1.06-.513,2.476,2.476,0,0,0-.941.3q-.374.184-.741.386a4.311,4.311,0,0,0,.452-1.966,5.087,5.087,0,0,0-.582-2,.966.966,0,0,0-.556-.559.789.789,0,0,0-.819.294,1.629,1.629,0,0,0-.265.588l-.7,2.464c-.013.045-.027.091-.041.137a5.666,5.666,0,0,0-1.251-2.185,2.7,2.7,0,0,0-1.117-.787,1.507,1.507,0,0,0-1.479.244,1.58,1.58,0,0,0-.3,1.8q.026.061.056.119a4.112,4.112,0,0,0,1.216,1.277q.807.634,1.593,1.3a1.1,1.1,0,0,0-.089,1.1c.016.049.035.1.055.142a3.972,3.972,0,0,0,.435.721l.064.091a15.893,15.893,0,0,0-5.112,3.7c-.126.138-.25.28-.374.423a100.837,100.837,0,0,1-.267-11.5l2.2-1.11c.043-.021.094-.047.147-.079l.017,0a20.921,20.921,0,0,0,3.51-.62c.78-.231,1.226-.654,1.255-1.19a1.32,1.32,0,0,0-.539-1.048,2.734,2.734,0,0,0-4.5,2,.616.616,0,0,1-.028.206.608.608,0,0,1-.175.112l-1.85.935q.138-3.248.483-6.475a4.752,4.752,0,0,1,1.992-1.009A14.807,14.807,0,0,1,17.419,18c.082-.008.167-.021.251-.034a.33.33,0,0,0,.011.043.354.354,0,0,0,.055.088,13.2,13.2,0,0,0,2.917,2.547c0,.011,0,.022,0,.034a1.653,1.653,0,0,0,.125.767,1.448,1.448,0,0,0,.3.447,1.811,1.811,0,0,0,.7.432A1.781,1.781,0,0,0,23.6,21.9a1.429,1.429,0,0,0,.317-1.532,1.854,1.854,0,0,0-1.223-1.1,1.615,1.615,0,0,0-1.442.25,1.5,1.5,0,0,0-.388.451A12.5,12.5,0,0,1,18.392,17.8a9.1,9.1,0,0,0,2.093-1,2.336,2.336,0,0,0,.582.433,2.362,2.362,0,0,0,2.073.164,1.544,1.544,0,0,0,.871-1.18A2.735,2.735,0,0,0,22.3,13.4a1.412,1.412,0,0,0-1.374.117,1.739,1.739,0,0,0-.5.766,4.476,4.476,0,0,0-.339,1.112,1.957,1.957,0,0,0,.056.8,6.723,6.723,0,0,1-2.79,1.114,15.437,15.437,0,0,0-2.546.381,5.961,5.961,0,0,0-1.706.73q.406-3.449,1.047-6.851a6.123,6.123,0,0,0-.371-3.848A4.466,4.466,0,0,0,11.69,5.311a1.781,1.781,0,0,0-1.326-.146,1.618,1.618,0,0,0-.9.833,2.892,2.892,0,0,0,.256,2.778ZM7.881,20.532A11.279,11.279,0,0,1,6.3,18.288c-.062-.1-.25-.423-.169-.565.061-.1.3-.132.587-.066A4.044,4.044,0,0,1,9.44,20.012a3.846,3.846,0,0,1,.317,1.538c0,.022,0,.045,0,.068A3.744,3.744,0,0,1,7.881,20.532ZM6.336,30.74a1.045,1.045,0,0,1-.472.968.926.926,0,0,1-.875.042,1.367,1.367,0,0,1-.644-1.113.645.645,0,0,1,.03-.33.578.578,0,0,1,.218-.214,1.3,1.3,0,0,1,1.214-.14A.9.9,0,0,1,6.336,30.74ZM2.678,26.627a1.559,1.559,0,0,1-.351-.605,1.288,1.288,0,0,1,.654-1.461,1.288,1.288,0,0,1,1.55.4h0a1.4,1.4,0,0,1,.147,1.554c-.008.007-.018.01-.025.018a.337.337,0,0,0-.07.125,1.292,1.292,0,0,1-.217.225,1.176,1.176,0,0,1-1.689-.253Zm13.388,15.7a20.943,20.943,0,0,1,2.587-3.049,1.827,1.827,0,0,1,.855.572A13.883,13.883,0,0,1,15.926,42.7c0-.11.012-.227.025-.35A.086.086,0,0,0,16.067,42.326Zm3.614-2.178a.747.747,0,0,1-.012.365c-.183.739-.95,1.231-1.655,1.634-.359.205-.743.42-1.135.6a1.106,1.106,0,0,1-.611.143c-.069-.014-.146-.024-.224-.033l-.034,0a14.06,14.06,0,0,0,3.6-2.856.756.756,0,0,1,.046.087.545.545,0,0,1,.024.068Zm-3.437.739a2.9,2.9,0,0,1,.427-.964,1.837,1.837,0,0,1,1.4-.732,1.74,1.74,0,0,1,.385.036,21.155,21.155,0,0,0-2.488,2.934A9.98,9.98,0,0,1,16.244,40.887Zm6.033-3.416A3.511,3.511,0,0,1,22.9,39.29a1.152,1.152,0,0,1-.132.637.428.428,0,0,1-.377.224c-.185-.024-.357-.248-.485-.441a9.5,9.5,0,0,1-1.357-3.147,2.152,2.152,0,0,0,.626-.476A8.544,8.544,0,0,1,22.277,37.471Zm2.647-2.4a.684.684,0,0,1,.171.2l0,0a.461.461,0,0,1-.169.483,1.266,1.266,0,0,1-.734.237,6.362,6.362,0,0,1-2.616-.562,2.156,2.156,0,0,0,.118-1.1,8.5,8.5,0,0,1,1.588.065,2.924,2.924,0,0,1,1.64.671Zm-2.324-3.6a1.878,1.878,0,0,1,.677-.232.46.46,0,0,1,.421.17.444.444,0,0,1-.017.386,1.621,1.621,0,0,1-.374.463,7.578,7.578,0,0,1-1.679,1.207l-.183.095-.022.012a3.773,3.773,0,0,0-.336-.494c-.111-.141-.232-.273-.356-.4l.139-.22a2.2,2.2,0,0,1,.444-.291l.169-.1q.548-.317,1.116-.6Zm-2.856-1.227.7-2.464a1.087,1.087,0,0,1,.141-.348.187.187,0,0,1,.083-.061c.013.006.052.037.131.2a4.437,4.437,0,0,1,.513,1.726,5.007,5.007,0,0,1-.992,2.732,1.217,1.217,0,0,0-.123.164c-.084-.067-.169-.133-.258-.195a2.191,2.191,0,0,0-.487-.247,2.1,2.1,0,0,1,.175-1.148c.04-.123.08-.243.113-.357Zm-3.167-.138a3.56,3.56,0,0,1-1.012-1.038.942.942,0,0,1,.083-1.086.833.833,0,0,1,.8-.107,2.058,2.058,0,0,1,.829.6,4.953,4.953,0,0,1,1.174,2.2c.028.116.051.233.075.349.038.187.079.379.134.569a1.617,1.617,0,0,0-.24.017c-.6-.508-1.21-1.007-1.846-1.506Zm2.292,3.62-.143-.206a2.949,2.949,0,0,1-.4-.689c-.047-.138-.11-.384.005-.47a1.383,1.383,0,0,1,1.214.2,4.784,4.784,0,0,1,1,.945,2.609,2.609,0,0,1,.367.586c.008.02.014.039.021.059s0,.012,0,.018.007.01.009.016c.01.027.021.054.029.081a1.42,1.42,0,0,1-1.159,1.809l-.008-.043A6.1,6.1,0,0,0,18.871,33.727Zm-3.614-9.157a2.043,2.043,0,0,1,3.359-1.454.943.943,0,0,1,.264.327.352.352,0,0,1,.032.157c-.017.311-.539.5-.762.565a17.7,17.7,0,0,1-2.9.537C15.253,24.659,15.255,24.615,15.257,24.571ZM22.5,19.923a1.166,1.166,0,0,1,.767.684.735.735,0,0,1-.165.807A1.091,1.091,0,0,1,22,21.671a1.146,1.146,0,0,1-.438-.264.873.873,0,0,1-.226-.681.873.873,0,0,1,1.167-.8Zm-1.731-4.439a3.975,3.975,0,0,1,.294-.942,1.2,1.2,0,0,1,.281-.479.77.77,0,0,1,.712-.014,2.188,2.188,0,0,1,1.15,1.156,1.548,1.548,0,0,1,.122.885.877.877,0,0,1-.487.681,1.685,1.685,0,0,1-1.443-.143,1.477,1.477,0,0,1-.473-.367,1.11,1.11,0,0,1-.156-.778ZM11.4,5.936a3.8,3.8,0,0,1,1.722,2l.024.056a5.988,5.988,0,0,1,.394,1.332,13.791,13.791,0,0,0-1.193-1.9,5.4,5.4,0,0,0-1.833-1.563.659.659,0,0,1,.074-.036,1.157,1.157,0,0,1,.812.117Zm-1.319.375a1.133,1.133,0,0,1,.265-.344,5.156,5.156,0,0,1,1.864,1.559,15.522,15.522,0,0,1,1.351,2.2c.007.012.019.017.03.025a5.315,5.315,0,0,1,.008.726A13.035,13.035,0,0,1,10.131,7.39a3.065,3.065,0,0,1-.225-.361A1.656,1.656,0,0,1,10.076,6.311Zm-.15,1.082c.022.032.042.066.064.1a13.585,13.585,0,0,0,3.588,3.181c-.019.211-.045.428-.086.657L12.02,10.141a7.254,7.254,0,0,1-1.714-1.726A2.782,2.782,0,0,1,9.926,7.393Z" transform="translate(-1.066 -3.407)" fill="#6d6d6d"/><path d="M42.74,13.764c.164,1.706,2.921.154,3.677-.243a4.583,4.583,0,0,0,1.576-1.146,1.587,1.587,0,0,0,.168-1.825,1.483,1.483,0,0,0-1.249-.56,3.009,3.009,0,0,0-1.346.424c-.936.513-2.946,2.1-2.825,3.351Z" transform="translate(-28.578 -6.68)" fill="#6d6d6d"/></g></g><g transform="translate(1220.487 1374.709)"><g transform="translate(0 0)"><path d="M2.348,18.317a2.957,2.957,0,0,0-1.335-.341,1.046,1.046,0,0,0-1.005.8,1.4,1.4,0,0,0,.188.776A9.807,9.807,0,0,0,3.6,23.307c.944.638,8.107,4.418,6.831.77-.479-1.37-2.335-2.552-3.482-3.321a29.174,29.174,0,0,0-4.6-2.439Z" transform="translate(0 -11.991)" fill="#ffda73"/><path d="M46.5,29.665a5.633,5.633,0,0,0-1.563.934,21.828,21.828,0,0,0-3.609,3.281,9.2,9.2,0,0,0-2.118,4.341.939.939,0,0,0,.162.853c.3.277.783.089,1.135-.121a19.215,19.215,0,0,0,5.33-4.744c.679-.879,4-5.672.664-4.544Z" transform="translate(-26.142 -19.678)" fill="#ffda73"/><path d="M25.051,55.441a1.536,1.536,0,0,0-.843-.684,1.6,1.6,0,0,0-.8.009,1.724,1.724,0,0,0-.93.52,1.6,1.6,0,0,0-.342,1.094,3.2,3.2,0,0,0,.29,1.13,1.26,1.26,0,0,0,.246.407,1.106,1.106,0,0,0,.389.232,1.978,1.978,0,0,0,1.738-.086C25.715,57.494,25.547,56.225,25.051,55.441Z" transform="translate(-14.769 -36.501)" fill="#ffda73"/><path d="M15.69,62.939a1.626,1.626,0,0,0-.939.381,1.415,1.415,0,0,0-.142,1.767,2.089,2.089,0,0,0,1.65.855,1.475,1.475,0,0,0,1.426-.668,1.274,1.274,0,0,0,.056-.886A1.78,1.78,0,0,0,15.69,62.939Z" transform="translate(-9.585 -41.981)" fill="#ffda73"/><path d="M10.782,55.567a1.586,1.586,0,0,0-.94.227,1.069,1.069,0,0,0-.5.805,1.328,1.328,0,0,0,.116.576,1.374,1.374,0,0,0,.311.487A1.753,1.753,0,0,0,10.4,58a1.359,1.359,0,0,0,.592.113,1.406,1.406,0,0,0,.619-.281c1.258-.852.56-2.2-.826-2.264Z" transform="translate(-6.232 -37.071)" fill="#ffda73"/><path d="M13.341,34.626a6.171,6.171,0,0,1-1.016-2.072,13.738,13.738,0,0,1-.572-4.1A9.611,9.611,0,0,1,15.3,26.507a9.255,9.255,0,0,1,1.02-.222c.3-.053.594-.106.886-.184a4.271,4.271,0,0,0,1.416,1.674,4.916,4.916,0,0,0,2.141.671,5.617,5.617,0,0,0,3.907-.832,2.218,2.218,0,0,0,1-2.345,2.28,2.28,0,0,0-1.4-1.309,5.344,5.344,0,0,0-3.131-.295,6.826,6.826,0,0,0-1.768.668,6.138,6.138,0,0,0,.781-3.574,1.356,1.356,0,0,0-.166-.6,1.058,1.058,0,0,0-.885-.485,1.7,1.7,0,0,0-.845.222,3.537,3.537,0,0,0-1.779,2.7,6.2,6.2,0,0,0,.436,2.86c-.228.056-.469.1-.719.143a9.674,9.674,0,0,0-1.1.24,10.348,10.348,0,0,0-3.324,1.7A28.367,28.367,0,0,1,12.8,21.757l.187-.685c.219-.8.441-1.613.6-2.442a.608.608,0,0,0,.047.107.624.624,0,0,0,.059.08,1.012,1.012,0,0,0,.8.262,6.467,6.467,0,0,0,2.564-.712A17.137,17.137,0,0,0,20,16.431a15.485,15.485,0,0,0,2.564-2.294A5.751,5.751,0,0,0,24,10.911a1.036,1.036,0,0,0-.063-.508c-.186-.435-.7-.593-1.378-.421A12.22,12.22,0,0,0,15.8,14.165a19.052,19.052,0,0,0-1.749,2.964c-.039.077-.085.159-.132.243-.064.117-.131.237-.19.359.037-.287.067-.575.082-.865a7.361,7.361,0,0,0-1.08-4.244,3.789,3.789,0,0,0,1.887-1.364A7.083,7.083,0,0,0,15.679,9.1a28.2,28.2,0,0,0,.884-3.939l.723-4.136a.9.9,0,0,0-.237-.89A.751.751,0,0,0,16.51,0a1.91,1.91,0,0,0-1.056.557A12.214,12.214,0,0,0,11.5,8.425a12.86,12.86,0,0,0-.053,2.44A14.046,14.046,0,0,0,9.808,9.244,14.643,14.643,0,0,0,4.55,6.3a5.205,5.205,0,0,0-2.439-.265,1.213,1.213,0,0,0-.8.431,1.294,1.294,0,0,0,.1,1.462A10.154,10.154,0,0,0,2.522,9.5,10.351,10.351,0,0,0,6,12.158a10.38,10.38,0,0,0,3.947.952c.838.033,1.654,0,2.02-.419.01.017.019.036.029.053a6.729,6.729,0,0,1,1.122,4.086,19.258,19.258,0,0,1-.808,4.058l-.187.689c-.1.367-.2.747-.29,1.138A4.909,4.909,0,0,0,10.6,21.669a2.025,2.025,0,0,0,.423-.181A2.877,2.877,0,0,0,12,20.468a2.593,2.593,0,0,0,.388-2.194,2.155,2.155,0,0,0-1.217-1.226,3.605,3.605,0,0,0-1.614-.237,2.147,2.147,0,0,0-1.982,1.523,2.73,2.73,0,0,0,.383,2.438c-.156-.007-.317-.008-.487,0A2.147,2.147,0,0,0,5.487,22.3a2.725,2.725,0,0,0,.492,2.585,2.335,2.335,0,0,0,.29.286,2.381,2.381,0,0,0,2.673.284,2.884,2.884,0,0,0,.971-1.022,2.635,2.635,0,0,0,.406-2.121,4.188,4.188,0,0,1,1.272,1.23.311.311,0,0,0,.045.047,18.2,18.2,0,0,0,.025,9.174,6.931,6.931,0,0,0,1.136,2.3l.008.009a.347.347,0,0,0,.536-.441ZM24.912,26.3a10.565,10.565,0,0,1-6.9-.173l-.024-.037c.933-.009,1.9.044,2.83.1a30.2,30.2,0,0,0,4.121.042C24.933,26.258,24.924,26.282,24.912,26.3Zm-.649.75a4.955,4.955,0,0,1-3.424.7,4.257,4.257,0,0,1-1.845-.567,3.041,3.041,0,0,1-.824-.82,10.74,10.74,0,0,0,6.611.154A2.275,2.275,0,0,1,24.263,27.054Zm-2.978-2.709a4.638,4.638,0,0,1,2.72.256,1.7,1.7,0,0,1,1.01.884.967.967,0,0,1-.006.57,29.408,29.408,0,0,1-4.177-.036c-.894-.051-1.812-.1-2.709-.1a9.441,9.441,0,0,1,3.162-1.577Zm-2.935.273a2.092,2.092,0,0,1-.78.621l.165-.278a12.228,12.228,0,0,0,1.737-3.915A5.423,5.423,0,0,1,18.351,24.618Zm.229-4.1a1.051,1.051,0,0,1,.5-.144.405.405,0,0,1,.291.122l0,0v.015a10.774,10.774,0,0,1-1.789,4.36l-.093.157a5.4,5.4,0,0,1-.325-2.343,2.833,2.833,0,0,1,1.41-2.17Zm-4.143-2.639a30.419,30.419,0,0,1,7.707-6.785c-.123.13-.241.264-.359.4l-.057.064a41.988,41.988,0,0,1-7.418,6.58c.037-.083.082-.172.127-.255Zm8.853-7.212a.047.047,0,0,1,.009.015.554.554,0,0,1,.007.179,5.151,5.151,0,0,1-1.27,2.831,14.94,14.94,0,0,1-2.454,2.189,16.593,16.593,0,0,1-2.826,1.862,5.8,5.8,0,0,1-2.283.644c-.15,0-.222-.014-.24-.008,0,0,0,0,0-.006a.722.722,0,0,0,.146-.076,42.2,42.2,0,0,0,7.478-6.628l.057-.065a6.162,6.162,0,0,1,1.027-.987c.18-.019.308,0,.348.05Zm-6.936,3.921a11.4,11.4,0,0,1,6.029-3.838,31.25,31.25,0,0,0-7.529,6.341,16.5,16.5,0,0,1,1.5-2.5ZM15.915,1.081a1.508,1.508,0,0,1,.7-.409.507.507,0,0,1-.01.238l-.723,4.135a27.722,27.722,0,0,1-.86,3.843,6.4,6.4,0,0,1-.95,1.948,3.032,3.032,0,0,1-1.655,1.153l-.014,0a8.257,8.257,0,0,1-.207-3.5,11.51,11.51,0,0,1,3.721-7.415ZM2.094,7.7l-.013-.021c2.761,1.486,5.674,2.832,8.5,4.136l.842.39A14.8,14.8,0,0,1,2.094,7.7Zm-.225-.827a.6.6,0,0,1,.367-.163,4.584,4.584,0,0,1,2.108.246A13.951,13.951,0,0,1,9.353,9.767,14.341,14.341,0,0,1,10.829,11.2a5.424,5.424,0,0,1,.531.725c.018.03.031.056.043.082l-.754-.349C7.749,10.32,4.754,8.934,1.927,7.4c-.107-.239-.13-.425-.057-.523Zm8.107,5.54A9.684,9.684,0,0,1,6.3,11.53,9.673,9.673,0,0,1,2.543,8.391a14.985,14.985,0,0,0,8.638,3.967A4.808,4.808,0,0,1,9.977,12.417ZM8.231,18.553A1.457,1.457,0,0,1,9.59,17.5a2.937,2.937,0,0,1,1.308.183,1.647,1.647,0,0,1,.609.439,1.211,1.211,0,0,1,.224.379,2.005,2.005,0,0,1-.325,1.6,2.213,2.213,0,0,1-.73.786,1.7,1.7,0,0,1-1.879-.22,1.987,1.987,0,0,1-.566-2.118Zm1.09,5.513a2.22,2.22,0,0,1-.731.787,1.7,1.7,0,0,1-1.879-.22,1.985,1.985,0,0,1-.565-2.119A1.456,1.456,0,0,1,7.5,21.466a2.93,2.93,0,0,1,1.308.183,1.642,1.642,0,0,1,.609.438,1.217,1.217,0,0,1,.224.38,2.012,2.012,0,0,1-.324,1.6Z" transform="translate(-0.754 0)" fill="#6d6d6d"/><path d="M11.239,53.111a1.63,1.63,0,0,0-.925-.934A2.674,2.674,0,0,0,9.117,52a1.63,1.63,0,0,0-1.506,1.156A2.048,2.048,0,0,0,7.982,55.1a1.734,1.734,0,0,0,.219.216,1.8,1.8,0,0,0,2.024.212,2.153,2.153,0,0,0,.728-.763,1.952,1.952,0,0,0,.286-1.653Zm-2.6,1.67a1.321,1.321,0,0,1-.374-1.407.941.941,0,0,1,.883-.682,2.007,2.007,0,0,1,.891.123,1.077,1.077,0,0,1,.4.286.762.762,0,0,1,.142.24,1.346,1.346,0,0,1-.223,1.059,1.5,1.5,0,0,1-.489.528A1.112,1.112,0,0,1,8.644,54.782Z" transform="translate(-5.011 -34.689)" fill="#6d6d6d"/></g></g><g transform="translate(1145.49 1372.023)"><g transform="translate(0 0)"><path d="M41.832,70.178A10.59,10.59,0,0,1,42.951,68.3a10.5,10.5,0,0,1,1.556-1.476,17.667,17.667,0,0,1,4.536-3.007,17.893,17.893,0,0,1,2.614-.747l6.523-1.512c.274-.064.692-.013.666.267a.409.409,0,0,1-.12.222,6.414,6.414,0,0,1-1.591,1.074A14.187,14.187,0,0,0,54.9,64.947,80.508,80.508,0,0,1,45.83,72.2a7.761,7.761,0,0,1-3.744,1.648c-.74.048-1.584-.346-1.46-1.217A9.741,9.741,0,0,1,41.832,70.178Z" transform="translate(-28.851 -43.713)" fill="#ffda73"/><path d="M8.041,59.514a4.626,4.626,0,0,0,1.025,1.1,1.881,1.881,0,0,0,1.423.363,1.93,1.93,0,0,0,1.126-.781,2.429,2.429,0,0,0,.472-1.876,5.479,5.479,0,0,0-.934-1.788c-.955-1.506-1.428-3.311-2.584-4.668a25.1,25.1,0,0,0-2.655-2.315,15.063,15.063,0,0,0-2.373-2.01A19.209,19.209,0,0,1,1.875,46.48c.675,1.728,1.538,3.408,2.231,5.14a55.938,55.938,0,0,0,2.277,5.186,21.774,21.774,0,0,0,1.658,2.708Z" transform="translate(-1.332 -33.019)" fill="#ffda73"/><path d="M21.42,14.694c.285,1.607.626,3.324,1.791,4.468a1.537,1.537,0,0,0,1.411.533c.662-.188.9-1.005.912-1.694a12.335,12.335,0,0,0-.434-3.023,50.576,50.576,0,0,0-2.192-7.4,25.393,25.393,0,0,0-1.653-3.4,11.627,11.627,0,0,0-2.232-3.057c.218,2.251.791,4.524,1.187,6.752l1.21,6.819Z" transform="translate(-13.514 -0.798)" fill="#ffda73"/><path d="M46.325,38.531a20.229,20.229,0,0,0-3.8,7.731.32.32,0,0,0,.015.245.283.283,0,0,0,.231.1,1.886,1.886,0,0,0,1.271-.594c1.409-1.264,2.189-3.063,3.256-4.626,1.042-1.526,2.378-2.847,3.3-4.449a10.245,10.245,0,0,0,1.161-3.109c.057-.288.38-1.467.19-1.7-.265-.329-.773.552-.962.779-1.561,1.869-3.2,3.673-4.657,5.629Z" transform="translate(-30.195 -22.768)" fill="#ffda73"/><path d="M38.46,11.9a6.8,6.8,0,0,0,1.649,3.7.851.851,0,0,0,.357.259.617.617,0,0,0,.68-.354,1.5,1.5,0,0,0,.093-.817,11.586,11.586,0,0,0-.63-2.5c-.228-.687-.457-1.375-.726-2.047A5.871,5.871,0,0,0,38.9,8.157c-.6-.54-.5.888-.521,1.33A12.2,12.2,0,0,0,38.46,11.9Z" transform="translate(-27.247 -5.709)" fill="#ffda73"/><path d="M11.709,29.77a14.69,14.69,0,0,0,3.225-2.118c.259-.2.516-.407.77-.6,1.495-1.135,3.491-2.446,5.422-3.715,4.13-2.712,8.03-5.273,8.342-6.83a.3.3,0,0,0-.45-.319,24.01,24.01,0,0,1-5.512,2.121,21.756,21.756,0,0,0-6.22,2.55h0a14.988,14.988,0,0,0-3.913,4.123c-.088.13-.207.295-.345.485a20.617,20.617,0,0,0-1.258,1.9q.127-2.381.387-4.583a4.965,4.965,0,0,0-.008.815.3.3,0,0,0,.458.234c3.08-1.881,5.533-6.8,7.165-10.073a8.883,8.883,0,0,0,1.241-4.873.3.3,0,0,0-.218-.256.305.305,0,0,0-.32.1,91.584,91.584,0,0,0-5.515,7.807l-.194.307a15.53,15.53,0,0,0-2.576,5.643,51.507,51.507,0,0,1,1.983-9.355.714.714,0,0,0,.334.086h.044a.69.69,0,0,0,.539-.31c1.515-2.311,2.065-5.957,2.467-8.62l.055-.364a.3.3,0,1,0-.6-.091h0a11.545,11.545,0,0,1-1.192,2.414c-1.234,2.17-2.742,4.823-2.1,6.322q-.492,1.5-.89,3.092A30.517,30.517,0,0,0,11.138,8.93l-.089-.267A20.153,20.153,0,0,0,5.833.08.3.3,0,0,0,5.342.4,45.083,45.083,0,0,1,6.833,7.08a36.611,36.611,0,0,0,2.117,8.36c.319.743,1.753,3.225,2.909,3.225a.752.752,0,0,0,.146-.014.74.74,0,0,0,.181-.062,61.941,61.941,0,0,0-.838,6.148,30.715,30.715,0,0,0-1.5-3.284c-.092-.18-.167-.327-.218-.43h0a15.958,15.958,0,0,0-3-4.475,19.7,19.7,0,0,0-3.111-2.337A19.281,19.281,0,0,1,.513,11.959a.3.3,0,0,0-.51.257A8.616,8.616,0,0,0,2.052,16.78a8.711,8.711,0,0,1,1.325,2.146,21.757,21.757,0,0,0,3.039,5.337c.028.036,2.442,3.078,4.223,3.078a1.328,1.328,0,0,0,.532-.109c-.028.5-.053,1.012-.071,1.529-.14,3.821.011,8.195,2.19,11.658A.3.3,0,1,0,13.8,40.1c-1.907-3.033-2.192-6.844-2.124-10.322a.281.281,0,0,0,.032-.007Zm1.034-6.763a.427.427,0,0,0,.049-.029l-.05.038s0-.006,0-.009Zm6.478-9.5c-1.407,2.822-3.708,7.433-6.418,9.458a.343.343,0,0,0,.049-.043,30.424,30.424,0,0,0,4.577-6.855c.149-.307.294-.616.438-.926.256-.551.521-1.12.813-1.664.144-.27.3-.538.45-.807a10.216,10.216,0,0,0,1.254-2.838l.05-.067a9.915,9.915,0,0,1-1.212,3.742Zm-3.945,3.66.195-.308c1.449-2.3,3.022-4.552,4.68-6.719A11.485,11.485,0,0,1,19,12.6c-.154.27-.307.539-.453.81-.293.547-.559,1.118-.816,1.671-.144.309-.288.618-.437.924A30.279,30.279,0,0,1,12.761,22.8c.181-1.937,1.51-4.041,2.515-5.628Zm-4.712-8.05c.779,2.33,1.75,5.23,1.7,7.577a2.775,2.775,0,0,1-.214,1.208l-1.59-2.951c-.31-.573-.63-1.167-.892-1.778a22.738,22.738,0,0,1-1.321-5.3,34.632,34.632,0,0,0-.731-3.609,17.214,17.214,0,0,0-.923-2.53,20.822,20.822,0,0,1,3.884,7.111l.09.267ZM9.506,15.2A36.1,36.1,0,0,1,7.429,6.979C7.12,5.167,6.8,3.306,6.3,1.5A17.093,17.093,0,0,1,7.369,4.314,34.7,34.7,0,0,1,8.1,7.907a22.848,22.848,0,0,0,1.331,5.331c.266.617.587,1.214.9,1.79l1.62,3.007a.151.151,0,0,1-.054.025C11.376,18.168,10.049,16.468,9.506,15.2Zm11.289,7.63c-1.939,1.274-3.945,2.591-5.456,3.738-.256.195-.516.4-.778.607a16.011,16.011,0,0,1-2.778,1.9c0-.027,0-.057.005-.086.047-.037.1-.073.14-.1L12,28.84a13.578,13.578,0,0,0,2.143-2.047q.207-.23.416-.457A32.189,32.189,0,0,1,25.73,18.509l.171-.071a7.222,7.222,0,0,0,1.6-.831c.3-.125.6-.256.888-.4C27.157,18.654,23.81,20.852,20.795,22.832Zm2.881-3.944c.987-.29,1.992-.585,2.974-.945-.264.129-.537.243-.806.355l-.171.071a32.34,32.34,0,0,0-11.225,7.864q-.21.227-.417.458A13.967,13.967,0,0,1,11.99,28.66,30.907,30.907,0,0,1,22.5,19.239c.392-.119.784-.236,1.173-.35ZM13.516,25.82c.142-.2.265-.367.356-.5a14.406,14.406,0,0,1,3.753-3.962h0a16.248,16.248,0,0,1,4.173-1.9,31.064,31.064,0,0,0-9.919,9.1A12.746,12.746,0,0,1,13.516,25.82Zm1.07-13.24a.09.09,0,0,1-.071.039.194.194,0,0,1-.038,0,41.055,41.055,0,0,0,1.441-3.893l.595-1.793a16.246,16.246,0,0,1-1.926,5.652Zm1.762-6.03c.11-.193.215-.378.315-.557l-.892,2.69c-.42,1.267-.858,2.574-1.409,3.812C13.608,11.368,15.251,8.479,16.348,6.55ZM6.21,16.98a15.4,15.4,0,0,1,2.878,4.309c.051.105.128.255.222.439,1.574,3.08,1.857,4.232,1.829,4.66-.147-.255-.3-.511-.455-.76-.217-.35-.441-.711-.63-1.066-.415-.781-.844-1.588-1.317-2.361a41.122,41.122,0,0,0-2.968-4.09c-.968-1.217-1.951-2.433-2.935-3.628l.358.235A19.176,19.176,0,0,1,6.21,16.98Zm4.839,9.637a.619.619,0,0,1-.068.039,1.709,1.709,0,0,1-.749-.534A57.953,57.953,0,0,1,4.4,18.36c-1.121-1.694-2.238-3.415-3.334-5.126.433.34.881.658,1.335.962,1.088,1.318,2.179,2.662,3.251,4.009A41.05,41.05,0,0,1,8.608,22.28c.47.769.9,1.574,1.312,2.353.191.359.416.723.634,1.075.179.288.36.584.525.879A.145.145,0,0,1,11.049,26.617ZM6.894,23.894A21.167,21.167,0,0,1,3.938,18.7a9.3,9.3,0,0,0-1.407-2.291A8.4,8.4,0,0,1,.778,13.066c1.147,1.794,2.319,3.6,3.5,5.377a58.1,58.1,0,0,0,5.849,7.782,2.286,2.286,0,0,0,.62.5C9.69,26.854,7.755,25.007,6.894,23.894Z" transform="translate(0 0)" fill="#6d6d6d"/><path d="M41.452,16.611a.426.426,0,0,0,.152-.028c.341-.129.361-.58.335-1a15.7,15.7,0,0,0-.5-2.757,24.014,24.014,0,0,0-1.027-3.184c-.239-.595-.611-.589-.762-.558a.3.3,0,0,0-.235.235,7.693,7.693,0,0,0-.047,2.133,8.342,8.342,0,0,0,1.379,4.66c.124.159.394.5.706.5Zm-1.523-6.552a23.429,23.429,0,0,1,.924,2.909,15.265,15.265,0,0,1,.484,2.648,2.6,2.6,0,0,1,0,.264c-.034-.037-.074-.084-.121-.143A7.861,7.861,0,0,1,39.969,11.4a10.4,10.4,0,0,1-.04-1.344Z" transform="translate(-27.93 -6.443)" fill="#6d6d6d"/></g></g></g></svg>