<?xml version="1.0" encoding="UTF-8"?><svg xmlns="http://www.w3.org/2000/svg" viewBox="0 0 110.92777 145.4324"><defs><style>.cls-1{isolation:isolate;}.cls-2{fill:#ffda73;mix-blend-mode:multiply;}.cls-2,.cls-3{stroke-width:0px;}.cls-3{fill:#6d6d6d;}</style></defs><g class="cls-1"><g id="_レイヤー_2"><g id="Object"><path class="cls-2" d="M17.88423,15.8295c-1.4617.1146-2.9383.3577-4.2563.9998-1.318.6422-2.4715,1.7277-2.936,3.1183-.0661.198-.1183.4104-.072.6139.0577.2531.2572.4483.4641.605.8614.6521,1.9668.8828,3.0409.9986,2.0697.223,4.1593.0856,6.2364-.052,2.2812-.151,4.5624-.3021,6.8436-.4532.685-.0454,1.3939-.0973,1.9989-.4216,2.5604-1.3727-.6566-4.0426-2.237-4.5569-2.8464-.9262-6.1217-1.0842-9.0826-.8519Z"/><path class="cls-2" d="M29.80483,5.311c-1.3815.6184-2.3845,2.0505-2.4082,3.5639-.0127.8166.2383,1.6132.5235,2.3785.6721,1.8042,1.5727,3.5637,2.9425,4.9167,1.3699,1.353,3.2643,2.262,5.1847,2.1235.2976-.0215.6061-.0724.8482-.2468.2203-.1586.3623-.4029.4754-.6496.7801-1.7016.4481-3.6872.0155-5.5084-.8091-3.4065-3.0922-8.5874-7.5816-6.5778Z"/><path class="cls-2" d="M42.23293,1.9528c-2.5975,4.3908-2.9137,10.0519-.8211,14.7045.2305.5125.5214,1.0468,1.0274,1.2914.9344.4517,2.0124-.325,2.5851-1.1906.6868-1.0379,1.0543-2.2546,1.3029-3.4741.6186-3.0329.5527-6.1583.4842-9.253-.0256-1.1531-.0166-3.228-1.2424-3.8423-1.4002-.7018-2.7086.7034-3.3361,1.7641Z"/><path class="cls-2" d="M55.52373,7.1519c-3.8628,2.8585-6.3575,7.4884-6.6201,12.2867-.0792,1.4467.2237,3.1911,1.5543,3.7645,1.2151.5237,2.5736-.237,3.658-.9953,2.0182-1.4114,3.9905-2.938,5.5313-4.8593,1.5407-1.9213,2.6316-4.2848,2.658-6.7474.011-1.0245-.1732-2.0795-.7268-2.9416-1.3302-2.0713-4.296-1.8091-6.0547-.5076Z"/><path class="cls-2" d="M48.29283,24.9259c-.8463.272-1.8113.7288-1.9495,1.6069-.1112.7065.4136,1.3894,1.0589,1.6977.6454.3083,1.3858.3274,2.1008.3408,4.9626.0928,9.9251.1855,14.8877.2783.7716.0144,1.6229.001,2.2001-.5112.6894-.6118.6875-1.7554.1927-2.5331-1.5826-2.488-5.9354-2.3632-8.4758-2.3891-3.3898-.0346-6.787.4722-10.0149,1.5097Z"/><path class="cls-2" d="M49.98623,43.7414c.6728.6062,1.5207,1.217,2.4034,1.0145.6946-.1594,1.1948-.8094,1.3703-1.5.1755-.6907.0823-1.4192-.0447-2.1204-.9106-5.0263-3.6233-9.9633-7.5892-13.2307-1.7585-1.4488-4.8727-2.1598-4.5695,1.2091.2294,2.5477,1.6068,5.3555,2.827,7.5594,1.4627,2.642,3.3585,5.0462,5.6027,7.0681Z"/><path class="cls-2" d="M35.99283,46.4262c.208.6571.4367,1.3272.8767,1.8577s1.1411.8987,1.8155.7566c1.1858-.2498,1.5488-1.7467,1.6103-2.9569.2568-5.0547-.325-11.2463-2.726-15.8067-.6145-1.1669-2.5467-2.9802-3.5037-1.2103-1.0123,1.8722-.2863,5.967-.0747,8.0018.3305,3.179,1.0385,6.3129,2.0019,9.3578Z"/><path class="cls-2" d="M18.79943,41.9381c-.2117,1.1488-.1872,2.6024.8406,3.1576.3919.2118.859.2379,1.3021.1918,1.9579-.2039,3.5236-1.6576,4.9179-3.0472,2.882-2.8723,5.8735-6.158,6.1673-10.2163.0747-1.0312-.0457-2.1099-.5721-2.9998-2.1099-3.5671-6.2889,1.2302-7.9028,3.1-2.4017,2.7826-4.086,6.1943-4.753,9.8139Z"/><path class="cls-2" d="M10.66473,30.6308c-.1133.3635-.2034.7485-.133,1.1227.186.988,1.3736,1.4426,2.3785,1.4107,1.2885-.0409,2.5048-.57,3.6842-1.0904,3.7584-1.658,7.5365-3.3268,10.9701-5.5817.6645-.4365,1.3995-1.2204.9952-1.9051-.2721-.4608-.9005-.5307-1.4357-.53-2.2891.0029-4.5775.3522-6.7634,1.0324-1.1979.3728-2.3991.811-3.6725.7573-.8292-.0349-1.4384-.3392-2.244-.0531-1.7968.6383-3.2506,3.1413-3.7794,4.8372Z"/><path class="cls-2" d="M59.72063,41.8541c-1.2908.4998-2.5581,1.1175-3.5928,2.0369-1.0347.9195-1.824,2.173-1.9645,3.55-.0253.2479-.0251.5151.1097.7246.1602.2489.4686.3538.7585.4136,1.9198.396,3.8512-.4336,5.6813-1.136,2.993-1.1487,6.1002-1.9997,9.2608-2.5364,1.3139-.2231,2.9345-.6616,3.1737-1.9726.9465-5.186-11.6767-1.7579-13.4267-1.0801Z"/><path class="cls-2" d="M59.64773,32.2987c-.5842.3336-1.1564.8124-1.2864,1.4725-.1374.6977.2765,1.4115.8476,1.8352.5711.4236,1.2763.6161,1.9638.7979,4.9594,1.311,9.9726,2.5144,15.0843,2.9453.4843.0408,1.0567.0373,1.3476-.3521.1509-.2021.1871-.4682.1788-.7203-.0476-1.4448-1.3208-2.5182-2.5371-3.2996-4.3326-2.7836-10.6045-5.5306-15.5986-2.6789Z"/><path class="cls-2" d="M78.44263,27.3665c-.8421.7894-.7016,2.1391-.496,3.2748.3311,1.8287.6666,3.673,1.37,5.3932.258.6309.5823,1.2643,1.1225,1.6798.5403.4155,1.3468.5525,1.902.1571.3438-.2448.5396-.6463.6762-1.0457.2361-.69.3369-1.4261.295-2.1542-.0374-.6513-.1872-1.2903-.3363-1.9254-.4171-1.7765-1.0918-8.6058-4.5334-5.3796Z"/><path class="cls-2" d="M89.17093,32.9988c-1.0958.8314-2.1477,1.8624-2.4774,3.1978-.3298,1.3355.3555,2.9936,1.6999,3.2848.7696.1667,1.5807-.139,2.1974-.6285.6167-.4896,1.0739-1.1472,1.5219-1.7948.4124-.5962.8248-1.1924,1.2374-1.7889.7458-1.0782,2.1032-3.0444.3917-3.9279-1.4207-.7334-3.5057.8492-4.5709,1.6575Z"/><path class="cls-2" d="M90.04453,41.9668c-.2012.1066-.4101.2242-.529.4183-.3136.5124.1831,1.1519.7089,1.4426,1.512.836,3.3653.5486,5.0788.3278,2.2863-.2945,4.5935-.4272,6.8984-.397,2.2824.03,4.6214.2124,6.7986-.473.5991-.1886,1.2528-.5268,1.3866-1.1406.1685-.7734-.5808-1.4225-1.2759-1.8011-5.6875-3.0981-13.6604-1.2404-19.0664,1.623Z"/><path class="cls-2" d="M92.80953,48.6072c-.6467.4209-1.2967,1.0617-1.2152,1.829.0935.8788,1.0557,1.3495,1.8842,1.6572,4.4694,1.6598,8.9531,3.324,13.5951,4.4112.674.1579,1.3677.3043,2.0537.2116s1.3727-.4706,1.6525-1.1037c.2233-.5054.1599-1.0899.0318-1.6273-.5869-2.4622-2.4592-4.5127-4.7369-5.6169-3.5904-1.7406-9.8364-1.9924-13.2652.2389Z"/><path class="cls-2" d="M95.32113,65.9245c.3771.9264.6689,1.888,1.0978,2.7916.528,1.1126,1.262,2.1271,2.1537,2.9766.3124.2976.6776.5894,1.1085.6128.5563.0303,1.0358-.3986,1.3365-.8676,1.2199-1.9031.489-4.3996-.2755-6.527-.7953-2.2132-1.5991-4.4442-2.827-6.45-.8591-1.4034-7.369-8.6716-8.5063-3.9801-.4159,1.7152,1.8201,4.3841,2.6966,5.7614,1.1691,1.837,2.391,3.6562,3.2157,5.6823Z"/><path class="cls-2" d="M81.46333,73.3473c.2758.7631.6796,1.6074,1.4609,1.8266.7869.2209,1.6036-.3211,2.0736-.9898.7852-1.1169.9294-2.5488,1.0266-3.9106.1372-1.9227.2303-3.8485.2791-5.7754.0612-2.4115.0468-4.8685-.6705-7.1716-.6438-2.0672-2.1519-4.6082-4.3394-5.346-2.8794-.9713-2.4516,2.5599-2.3837,4.3724.2145,5.7272.5887,11.558,2.5534,16.9944Z"/><path class="cls-2" d="M59.29413,52.2413c-.6017,1.207-1.0252,2.5654-.8091,3.8967.2161,1.3312,1.2116,2.601,2.5465,2.7934.9994.1441,2.0018-.3207,2.7749-.9703.7731-.6495,1.3717-1.4774,2.041-2.2335,2.2941-2.5918,5.3849-4.3104,8.2968-6.1816.3712-.2386.7659-.5128.8982-.9338.2768-.8807-.7457-1.6171-1.6451-1.825-1.9311-.4464-3.9569.0046-5.8311.6497-2.3773.8182-7.0683,2.3897-8.2721,4.8044Z"/><path class="cls-3" d="M107.22943,51.5515c-.5686-.6765-1.2467-1.447-2.1134-2.0311-.7751-.5192-1.68-.8913-2.9341-1.2048-3.6592-.9144-7.366-.6908-10.3324-.3319-.1244-.5816-.2828-1.1552-.4596-1.7231,2.2747-.9334,4.8343-1.1297,7.3166-1.3098l8.6965-.6316c1.4151-.1023,1.885-.7696,2.0294-1.3098.1864-.6929-.1225-1.4223-.8501-1.9991-2.0312-1.6216-4.6527-1.7843-6.5338-1.7843-4.3037.026-8.567,1.0955-12.3815,3.0755-.1223-.2136-.2459-.4265-.3759-.6354,1.8751-1.7246,3.5982-3.6155,5.1138-5.6495.4514-.6051.9361-1.3263.9544-2.2404.0054-.5942-.2176-.9644-.4097-1.1737-.296-.3199-.7165-.4917-1.2467-.5092-1.214-.0603-2.3894.6289-3.2139,1.2213-1.7131,1.2285-2.8684,2.5247-3.5339,3.9634-.1098.2377-.2066.4818-.3034.7258-.0407.1033-.0831.1967-.1238.2965-.2513-.2001-.5162-.3897-.8142-.546-.4917-.2579-1.0447-.4075-1.6353-.4966.119-2.2604-.1981-4.5614-.9369-6.7-.1719-.4982-.6948-2.0119-2.0897-2.3748-.6086-.1554-1.2613-.0466-1.8336.3181-.6928.4415-1.1956,1.192-1.3455,2.0092-.2121,1.1654.1645,2.2559.521,3.2889.4501,1.2996.8419,2.6362,1.1958,3.9805-.3765.1118-.7903.2477-1.2264.4093-.7882-1.2711-1.8291-2.377-3.0773-3.2043-2.2633-1.5028-4.9816-2.0302-7.3784-2.4964-1.4515-.2824-2.9542-.5749-4.4772-.7312-.6746-.0686-1.4607-.1207-2.2413.1536-.9983.351-1.7076,1.2175-1.7625,2.1562-.0639,1.0833.6729,2.076,2.0184,2.725,1.98.957,4.1336,1.1938,6.2159,1.4241,1.3509.1481,2.6269.2888,3.8591.6106.7825.2048,1.3583.4424,1.8064.7495.3533.2403.6876.5616,1.0466,1.0092-.223.2396-.4112.4986-.5752.7697-.6541-.309-1.4244-.3874-2.0072-.4443l-.384-.0402c-3.1425-.4095-6.2742-.0887-8.3582.1883-1.1427.1508-2.3548.3428-3.4919.8748-1.6069.7523-2.9818,2.1426-4.084,4.1335-.4791.8647-.521,1.6069-.1282,2.2001.2963.4525.799.7267,1.4973.8136.2269.0283.4536.0411.6766.0411,1.479,0,2.8774-.5667,4.1297-1.074l.4645-.1865c3.0903-1.2329,6.0864-1.8744,9.0821-1.9175-.7866.146-1.4085.3033-1.6837.3773-3.0438.8172-5.7478,2.4305-7.8189,4.6655h-.002c-1.5373,1.659-2.4991,3.4104-2.8611,5.2056-.0931.4644-.179,1.1545.1519,1.7862.2358.4497.6526.8117,1.2101,1.0457.4571.1928.9507.2888,1.4717.2888.8684,0,1.8045-.2678,2.7405-.7943,1.4351-.8081,2.5596-1.9662,3.6473-3.085.6417-.6618,1.2467-1.2861,1.9104-1.8419,1.4533-1.2148,3.307-2.1783,5.6124-2.8958.129-.0397.2628-.0813.3983-.1268-11.3191,10.9742-19.4652,27.3685-22.4165,44.7887-.7025-6.8989-1.5946-13.7762-2.6707-20.6273.4794.5474,1.0109.823,1.5899.823.1005,0,.203-.0083.3072-.0247,2.9563-.4781,4.3072-8.6134,4.3164-8.6948.415-3.3519.0713-6.7761-.32-9.6828-.0403-.299-.2212-.5604-.4862-.7021-.4259-.2257-.905-.2569-1.3566-.0823-.9726.373-1.4479,1.5046-1.5704,1.8428-.2029.5549-.477,1.2395-.7859,2.0092-.9994,2.4855-2.2104,5.5082-2.734,8.2307-2.3229-13.3387-5.3419-26.5696-9.0779-39.6439l.0762-.0127c.127.698.3563,1.4221.571,2.0811.0748.2276.1425.436.1938.6133.1864.6381.3746,1.2779.6196,1.8958.9506,2.4096,2.6509,4.3328,4.2963,6.192,1.0146,1.1481,2.0658,2.3364,2.8922,3.5997.4277.6508,1.2064,1.841,2.4971,1.841.0548,0,.1096-.0019.1647-.0064,1.0639-.0823,1.9013-.9626,2.2395-2.3529.424-1.7249.2924-3.6481-.3785-5.5631-.5284-1.5137-1.4005-3.0475-2.6618-4.6874-1.28-1.6649-2.7557-3.1719-4.3762-4.5099.5906.2574,1.2593.3597,1.8075.4422,3.2816.4982,6.5997.7478,9.9143.7478,1.9909,0,3.9816-.0897,5.9616-.2697.2741-.0247.8428-.075,1.2596-.5247.3893-.4214.4972-1.054.2797-1.6499-.4425-1.2267-1.8045-1.5476-2.3877-1.6847-3.6068-.8492-7.3125-1.3602-11.0165-1.5173-.6159-.0275-1.2404-.0369-1.865-.0088,2.8443-1.5932,5.1537-4.1889,7.1357-6.601.8904-1.085,1.885-2.373,2.4114-3.9333.6032-1.7824.4222-3.6371-.4827-4.9616-.1116-.1637-.4497-.6618-1.0475-.8593-.5943-.1984-1.1536-.0146-1.5247.1389-1.7057.6993-3.0329,1.9754-3.9964,3.0102-1.9671,2.1087-3.6106,4.4917-4.8811,7.0813l-.0861.1792c-.3433.7031-.6792,1.3575-1.149,1.7744-.2267-.1718-.4571-.3345-.6846-.4856-.4579-.3033-.9365-.5679-1.4229-.8124,1.9563-4.3831,2.6926-9.3502,2.0426-14.1026-.0731-.5403-.179-1.1646-.5081-1.7332-.4351-.7595-1.1902-1.2331-1.9709-1.2358h-.0072c-.777,0-1.4973.4324-2.139,1.2843-1.4132,1.8657-2.1354,4.3118-2.2724,7.6975-.0329.8373-.0329,1.6773-.0348,2.5174-.0013,1.4446-.0131,2.8205-.1745,4.1772-.4225-.0273-.8436-.0348-1.2632-.0177-.3651-.8866-.7864-1.8755-1.2113-2.8716-.5119-1.2011-1.0237-2.4022-1.4294-3.4058-.3657-.9105-.7808-1.9425-1.5176-2.7981-.4076-.4771-.8921-.8774-1.4422-1.1901-1.066-.5996-2.1593-.6645-3.0021-.1819-.9323.5357-1.4222,1.6728-1.3437,3.1216.097,1.7624.766,3.5576,1.9855,5.3346.8525,1.2394,1.8617,2.3206,2.8789,3.3526-.8454.4461-1.6274.9917-2.3244,1.6276-.2463-.1369-.488-.2846-.7447-.4509-.2614-.1691-.5284-.341-.8244-.5101-4.6949-2.6847-9.5175-3.5457-13.5907-2.4205-2.404.6636-4.0055,2.064-4.3966,3.8419-.1336.6115-.0714,1.1417.181,1.5713.2412.415.6104.6564.903.8191,1.3291.7413,2.7899.9634,4.2541.9634,1.1554,0,2.3109-.138,3.4023-.2688l.6252-.074c2.0212-.2332,4.0612-.327,6.098-.3029-3.8269.3476-7.5722,1.2296-11.162,2.6411-.9307.3675-1.9983.8236-2.8939,1.5987-1.0531.9105-1.6509,2.118-1.6418,3.3045,0,.4799.139.8674.4114,1.1508.3874.4004.8884.447,1.1773.447.0511,0,.0968-.0009.1333-.0028,1.6455-.0612,3.1445-.6462,4.7535-1.2733,3.3672-1.3133,6.8267-2.4981,10.306-3.549-.2228.1271-.4229.2496-.5858.3553q0,.0008-.0018.0008c-4.4899,2.9123-7.1372,7.7835-9.3291,12.6144-.3017.6645-1.2175,2.6865.0768,4.0494.5119.5393,1.1919.7541,1.8574.7541.4424,0,.8793-.0951,1.2523-.2541.8665-.3675,1.4862-1.0147,2.0347-1.5851l7.0897-7.3994c.618-.6453,1.2776-1.3553,1.8554-2.1476l-.0126,2.4117c-.0092,1.4059-.02,2.9991.4516,4.5137.1279.4123.2906.8136.4551,1.214.1792.4387.3637.8775.4772,1.3382.104.4159.1517.8474.2028,1.2761.0988.8464.2012,1.7221.6343,2.564.5339,1.0274,1.4499,1.7376,2.1867,2.3089.4808.3711.8939.4982,1.2358.4982.2852,0,.5193-.0887.7003-.1965.2484-.149.3985-.3437.5173-.5183.7403-1.1079,1.0529-2.5777.905-4.2523-.0879-.9653-.3055-1.894-.5156-2.7916-.0805-.3465-.1627-.6929-.2358-1.0403-.3822-1.8043-.5412-3.6618-.4736-5.5183.0128-.3464.0329-.6929.0531-1.0393.0639-1.074.1299-2.1837-.0274-3.3108-.0572-.413-.2065-1.0616-.4645-1.748.0618-.007.1232-.0111.1843-.0191,4.6475,16.2311,8.2031,32.7024,10.6602,49.3264-2.7732-3.5217-10.1527-5.454-11.1059-5.6906h.0019c-3.3401-.8301-6.8428-1.0896-10.2286-1.3401-5.3347-.3949-10.375-.7678-14.8082-3.1837-4.8391-2.6372-8.2597-7.4662-11.276-11.7268-.1573-.2212-.4023-.3629-.6709-.3903-.2652-.0265-.5358.064-.7351.2495C.24893,56.8129-.00887,57.4153.00023,58.089c.022,1.5932,1.5339,3.1124,2.1828,3.691,2.6141,2.3328,4.7332,5.2688,6.128,8.4901.2156.4981.4168,1.0082.6198,1.5182.7222,1.8255,1.4697,3.7121,2.8756,5.2213,1.883,2.0201,4.4663,2.8739,6.9636,3.6983,1.5356.5083,3.1225,1.033,4.4697,1.8191,1.0971.6408,2.0714,1.468,3.1043,2.3446,1.097.9305,2.2304,1.8931,3.5413,2.6307,2.0309,1.1408,4.5337,1.6838,7.1115,1.6838,4.3418,0,8.9014-1.5384,11.8025-4.351.6324-.6129,1.0925-1.2369,1.3975-1.8685,2.7566,20.3388,3.8863,40.8918,3.3339,61.5051-.0128.5164.3949.9461.9104.9607h.0257c.5062,0,.9213-.4032.9361-.9114.358-13.3879.0006-26.7498-1.0327-40.0461.297-4.6941,1.0153-9.3612,2.0725-13.9274.0078.0755.0002.1461.0113.2227.6472,4.5211,7.1409,5.2194,11.4388,5.6819.9817.1061,1.8556.1984,2.5193.3236.9415.1783,1.9726.373,3.0309.373.4553,0,.9161-.0357,1.3786-.1244,1.7859-.3445,3.2193-1.3884,4.607-2.3976l.6763-.4881c4.9727-3.5183,11.0476-5.3794,17.15-5.1875l.3748.012c1.2395.0393,2.6709.0905,3.9544-.5421.9432-.4662,1.6855-1.3839,1.9378-2.3958.203-.8163.0659-1.6134-.3876-2.2468-.2213-.3099-.6087-.4534-.9798-.3647-6.9854,1.6819-14.3895,1.2467-21.5469.8299-4.1517-.244-8.4461-.499-12.6672-.3418h-.0056c-5.4498.2303-8.8867,1.2916-10.5084,3.2441-.0844.1018-.1405.2146-.2147.3204,4.0159-14.8777,11.8349-28.3751,22.0565-37.3932.146.1194.282.2349.3962.3422l.3167.3004c-.3237.1551-.5662.3547-.7335.5469-1.1702,1.3419-.5887,3.7313-.1627,5.4763.073.3007.1387.5686.1883.8272,1.0384,5.3355,2.1115,10.8539,3.552,16.2067.0676.2532.2104.7797.7185,1.0905.2267.138.4679.2039.7112.2039.5538,0,1.1187-.341,1.5429-.9699,3.7863-5.596,2.2339-12.82.9305-16.7158-.0477-.7292-.3881-1.7575-.9074-2.7986.4301.0894.8732.1404,1.3189.1404.3068,0,.6117-.0301.9139-.0745.0946,1.3808,1.4057,3.2004,3.0951,5.3698.4188.5366.7697.9817.9398,1.2569,1.3694,2.2221,2.6215,4.5576,3.7221,6.9424.6711,1.4598,1.6874,3.6664,3.8227,4.1938.0749.0184.1499.0275.225.0275.181,0,.36-.053.5155-.1545.2176-.1435.3655-.3721.4077-.6289.722-4.3702-.8775-8.4022-2.3457-11.0147-.0529-.094-3.9205-6.4367-7.0719-7.9713.0544-.0839.1161-.1606.1651-.25.0172-.0312.0272-.064.0435-.0955,1.4464.1148,2.9161.2584,4.3057.6074,1.8556.4653,3.5907,1.2834,5.4243,2.15,2.1991,1.0375,4.4734,2.1106,6.9671,2.5146.0748.0118.1481.0173.2229.0173.3457,0,.6875-.1279.9618-.3674.3802-.3281.5995-.8236.5904-1.3254-.0129-.6938-.4022-1.2359-.6344-1.5585-.6911-.9662-1.4242-1.9114-2.181-2.8108ZM49.79213,33.5468c1.1391,1.4799,1.9179,2.8418,2.3803,4.1645.5502,1.5723.6635,3.128.3272,4.5-.137.5595-.4003.9187-.5649.9315-.0055,0-.0092.0009-.0129.0009-.2889,0-.7622-.7221-.9415-.9954-.8993-1.3757-1.9963-2.6152-3.0546-3.8136-1.6089-1.8181-3.1282-3.5356-3.9581-5.6399-.223-.564-.3931-1.1471-.5632-1.7322-.0566-.1937-.1297-.4205-.2102-.6681-.2047-.6308-.7513-2.3081-.6234-2.6509,0,0,.0274-.0082.0913-.0082.1099,0,.3329.0256.7205.1627.6215.2194,1.2065.638,1.746,1.0585,1.7477,1.3602,3.3161,2.9379,4.6635,4.6902ZM52.63863,25.3099c3.5868.1527,7.1755.6472,10.6691,1.4699.3018.0704.5193.1417.6766.2102-4.9947.4169-10.0385.2505-15.0862-.5155-.2981-.0457-.9013-.1362-1.2705-.3044.1591-.0896.3509-.1837.4917-.2523,1.3217-.6463,2.9581-.6727,4.5193-.6079ZM50.06453,18.3053l.0859-.1745c1.1884-2.4242,2.7258-4.6555,4.5668-6.629.8353-.8949,1.9689-1.9936,3.3401-2.5558.1261-.0521.1992-.0722.2138-.0868.0202.0219.0531.0612.1007.1307.5758.8428.6726,2.0786.2558,3.3062-.4259,1.2633-1.2997,2.3895-2.0859,3.3456-2.1206,2.5828-4.4234,5.1783-7.2784,6.521-.0148-.1168-.0359-.2289-.0655-.3336-.1318-.4648-.3524-.8727-.6202-1.2422.6881-.6524,1.1088-1.5057,1.4869-2.2816ZM42.10833,12.3912c.0017-.8153.0017-1.6307.0348-2.4442.1205-2.9854.7222-5.0961,1.8939-6.6445.2997-.3985.5303-.5403.6454-.5403.0896,0,.2504.1134.3566.2971.159.277.2229.6728.276,1.054.6037,4.4223-.0855,9.046-1.9145,13.1224-.4895-.1667-.985-.3038-1.4854-.4116.1788-1.489.1917-2.9817.1932-4.4329ZM32.38073,13.4973c-1.022-1.49-1.5813-2.9626-1.6601-4.3767-.0365-.6846.1245-1.2321.4097-1.3967.2467-.1417.6946-.0676,1.1444.1892.3601.203.6764.4644.945.7779.5358.6243.8741,1.4653,1.2013,2.2797.4094,1.0156.9267,2.2277,1.4442,3.4407.3465.8131.6904,1.6214,1.0041,2.3736-.4394.0899-.8725.2006-1.2967.3386-1.1308-1.1342-2.2855-2.3091-3.1919-3.6263ZM20.98763,21.15l-.6344.074c-2.3017.2779-4.6783.5585-6.5211-.4708-.1298-.0722-.1792-.1115-.1884-.1115,0,0-.0017,0-.0017.001-.002-.0156-.0128-.0878.022-.2441.3454-1.5713,2.4351-2.2633,3.0657-2.4379,3.5813-.9917,7.9051-.1938,12.1647,2.2413.2632.1509.5027.3054.7368.4571.1388.0905.2795.1819.426.2715-3.0166-.1993-6.0678-.1289-9.0696.2194ZM17.23983,28.8895c-1.2543.489-2.4462.9534-3.7422,1.0631.0896-.5521.4387-1.1298.9706-1.5914.6728-.5823,1.5687-.9617,2.3548-1.2715,3.8509-1.5145,7.8906-2.3888,12.0155-2.6174-.0002.153.0074.3041.0209.4545-3.8693,1.1367-7.7317,2.447-11.6196,3.9627ZM31.82663,31.1628c-.5373,1.1554-1.4845,2.1445-2.402,3.1006l-7.0896,7.3986c-.4425.4625-.9015.9406-1.4151,1.1581-.3785.1637-.8247.1353-1.0183-.0649-.276-.2906-.1792-.9972.2687-1.989,2.0751-4.5704,4.5576-9.1655,8.6436-11.8155,1.5156-.9808,2.8591-1.2943,3.1663-.9808.4864.4927.3219,2.1674-.1536,3.1929ZM38.12103,47.5176c-.636-.4936-1.2832-1.0064-1.616-1.649-.2778-.5375-.3564-1.2093-.4388-1.9205-.0603-.5091-.1225-1.0201-.245-1.5119-.137-.5484-.3474-1.0722-.5612-1.5959-.1445-.3492-.2889-.6985-.4003-1.0595-.3857-1.2377-.3765-2.6143-.3674-3.947l.0274-5.1911c.0072-1.213.2687-2.2477.6489-2.5731.0805-.0668.1865-.1207.4077-.0896.2051.0309.4155.1895.6178.4202.0015.0058.0004.0119.002.0176.0552.2019.194.378.3672.5084.3698.6303.6682,1.4669.7698,2.2001.1299.9433.0731,1.914.0129,2.9424-.022.3611-.042.7212-.0566,1.0814-.0714,2.01.1005,4.0201.5136,5.9735.0768.3611.1608.7212.245,1.0814.2047.8729.3985,1.6974.4735,2.5302.0714.7998.0401,1.9085-.4005,2.7824ZM35.85413,26.128c-.7148-.1069-1.3783.0705-1.9013.5183-.134.1146-.2528.2449-.3611.3846-.0866-.1294-.1675-.2626-.2787-.3754-.5843-.5915-1.3502-.7385-2.139-.6531-.3959-.5576-.5658-1.3465-.4112-2.1312.1699-.8556.6653-1.7157,1.4697-2.5567,1.6198-1.6883,3.9507-2.7422,6.395-2.8913,2.362-.148,4.8082.5339,6.8868,1.9123.7988.5293,1.6489,1.1819,1.881,2.0055.1314.4612-.3876,2.5532-3.3955,3.689-1.1895-.4154-2.0866-.3385-2.6794.2361-.1821.1773-.2994.3895-.3912.6148l-1.4516.2417c-.5908.0987-1.2015.194-1.7529.1827-.4829-.5988-1.0966-1.0602-1.8706-1.1773ZM102.05943,41.098c2.5191-.0082,4.1206.4113,5.3162,1.3446-.0329.0037-.0694.0073-.1079.0101l-8.6965.6316c-2.4871.1804-5.277.3931-7.8179,1.4158-.0748-.1789-.1555-.3553-.2355-.5319,3.5567-1.848,7.5291-2.8459,11.5416-2.8702ZM88.65523,38.0632c.5247-1.1371,1.4827-2.1929,2.925-3.2276.5467-.3939,1.1812-.7925,1.8667-.8565-.0877.2925-.3126.6115-.543.9187-1.3942,1.8728-2.9763,3.6174-4.6931,5.2165-.0955-.1247-.1878-.2518-.2863-.3741.1892-.3544.3376-.7145.4692-1.0481.0842-.212.1664-.4241.2615-.6289ZM79.71553,30.8484c.0548-.3008.2595-.6097.5084-.7687.1333-.0832.2521-.1097.3563-.085.1938.0502.4882.2952.7916,1.1736.6676,1.9354.9337,4.0168.8154,6.0601-.2509.027-.5119.0685-.7775.117-.3687-1.4072-.7805-2.8132-1.27-4.2283-.2835-.8162-.5504-1.5886-.4242-2.2687ZM71.99143,37.0148c-1.3637-.3556-2.7677-.5101-4.126-.66-2.0146-.2221-3.9159-.4314-5.6071-1.2495-.5832-.2807-.978-.6618-.9634-.9269.0111-.181.2412-.4059.5155-.5018.4131-.1463.9324-.1097,1.4297-.0567,1.4388.1471,2.8976.4314,4.309.7057,2.3346.4543,4.7495.9232,6.7021,2.2185.95.6301,1.7566,1.4545,2.3864,2.4023-.277.1438-.5469.3002-.8101.4665-.3807-.4755-.85-.977-1.4447-1.3835-.6326-.4314-1.3931-.7541-2.3914-1.0146ZM61.41933,46.1227l-.4736.1901c-1.3491.5476-2.6398,1.0613-3.8719.9105-.0311-.0037-.0568-.0074-.0788-.0119.0237-.0585.0585-.1371.1153-.2377.9067-1.638,1.9964-2.7632,3.2394-3.3446.8958-.4187,1.9452-.5832,2.9435-.7148,3.1902-.4214,5.6196-.4799,7.872-.1874l.4442.0475c.4168.0402,1.3949.1353,1.5667.3931.0842.1271.0788.2111.0457.2989-.0822.2185-.3546.4369-.6343.5091-.3401.0887-.744.0887-1.1717.0896h-.1921c-3.1225.0146-6.4206.7075-9.8044,2.0576ZM73.95863,45.3537c.0596.0939.119.1878.1845.2799-.253.0018-.5071.0102-.7608.0268.205-.0813.396-.1827.5763-.3067ZM74.91473,48.9399c-2.4406.7596-4.5118,1.8419-6.1535,3.2167-.7386.617-1.4077,1.3062-2.0549,1.9726-1.0402,1.0713-2.022,2.0832-3.2213,2.7578-.4553.2577-1.6269.8126-2.5667.4122-.1827-.0767-.2615-.1563-.2797-.1892-.0183-.0356-.0531-.16.0256-.5476.2924-1.4524,1.1005-2.9003,2.4003-4.3034h-.0017c1.8062-1.9479,4.2687-3.4141,6.9325-4.1299,2.2393-.5969,5.1223-.904,6.0621-.3025.1553.0996.1993.191.2195.2979.0091.0595-.0659.2322-.2543.3694-.2487.1818-.6141.2943-1.1079.446ZM84.47613,72.6969c-1.3455-5.106-2.3712-10.3821-3.3729-15.5312-.0477-.2385-.1188-.5356-.1993-.8693-.2523-1.0365-.7788-3.1929-.2449-3.8034.117-.1344.3454-.1737.5703-.1737.084,0,.1682.0055.245.0137,1.1645.1197,3.3875,3.8044,3.3875,5.2194,0,.1024.0165.2038.0494.3017,1.1736,3.4506,2.6417,9.8949-.4351,14.8428ZM85.55663,52.5679c-1.5267-.5823-2.7606-1.7577-4.0677-3.0036l-.543-.5138c-.4808-.4516-1.1445-.9397-1.8465-1.457-1.7148-1.2633-4.064-2.9937-3.9635-4.5175.112-1.6808,3.1452-3.0279,5.557-3.6628.0191.0011.0363.0093.0557.0093.0731,0,.1479-.0083.221-.0265.0864-.021.1575-.0667.231-.1083.0892-.0205.1801-.0425.2663-.0608.6034-.128,1.1482-.192,1.6363-.192.6837,0,1.2595.1253,1.7403.3775.6235.3273,1.1425.9049,1.5667,1.4269.2698.3318.5232.6764.7681,1.0269.039.1044.0916.2055.1699.294.0161.0183.039.0246.0562.0413,1.2495,1.8766,2.1501,3.9865,2.6182,6.1936.2106.9856.2428,1.7564.1158,2.3823-.0894.1378-.1571.2883-.1649.456-.0009.0154.0072.0298.0074.0452-.0329.0785-.0535.1673-.0936.24-.7548,1.3802-2.8391,1.6179-4.3307,1.0493ZM96.80523,61.5579v.0009c1.1645,2.0732,2.4241,5.1235,2.2707,8.4453-.6198-.6015-1.0988-1.5558-1.565-2.5695-1.1316-2.4535-2.4205-4.8557-3.8282-7.1408-.1919-.3109-.5832-.8191-1.0566-1.426-.7753-.9945-2.8319-3.6344-2.7368-4.3529.0274-.0703.1299-.3026.2249-.3089.0109-.001.0237-.001.0366-.001,1.5082,0,5.6124,5.4964,6.6544,7.3529ZM102.10143,53.3887c-1.8354-.8665-3.7332-1.7623-5.766-2.2724-1.4151-.3557-2.8526-.5118-4.2653-.6291.0165-.2174.0218-.4316.0167-.6435,3.9499-.4709,6.9541-.3829,9.6417.2872,1.0346.2597,1.7586.5512,2.3436.9443.6637.4461,1.2378,1.1005,1.7242,1.6801.7257.8629,1.4294,1.7697,2.0931,2.6975.0348.0493.0896.1252.1462.1974-2.0292-.4196-3.9305-1.3163-5.9342-2.2615Z"/></g></g></g></svg>