<svg xmlns="http://www.w3.org/2000/svg" width="109.998" height="39.635" viewBox="0 0 109.998 39.635"><g transform="translate(-1144.875 -1002.703)"><g transform="translate(1144.875 1005.61)"><g transform="translate(0 0)"><path d="M4.616,43.659a1.859,1.859,0,0,0-.658,1.285.5.5,0,0,0,.084.265.658.658,0,0,0,.638.147,7.367,7.367,0,0,0,3.663-1.643c1.154-.97.276-1.851-.994-1.777a4.531,4.531,0,0,0-2.734,1.722Z" transform="translate(-2.825 -29.936)" fill="#ffda73"/><path d="M19.173,30.415a1.821,1.821,0,0,0,.607.792.91.91,0,0,0,.955.066c1.028-.629.212-3.079-.579-3.6C18.518,26.587,18.816,29.622,19.173,30.415Z" transform="translate(-13.488 -19.589)" fill="#ffda73"/><path d="M.521,31.428a5.091,5.091,0,0,0,2.546.99,1.77,1.77,0,0,0,.832-.066.763.763,0,0,0,.507-.617,1.159,1.159,0,0,0-.524-.862C3.227,30.307,2.04,29.265,1.1,29.34a1.131,1.131,0,0,0-.584,2.088Z" transform="translate(0 -20.943)" fill="#ffda73"/><path d="M30.319,33.434a3.158,3.158,0,0,0-.371,1.529,1.658,1.658,0,0,0,.226.961.753.753,0,0,0,.87.316,1.081,1.081,0,0,0,.48-.561,3.761,3.761,0,0,0,.463-2.689c-.382-.985-1.28-.238-1.668.445Z" transform="translate(-21.379 -23.212)" fill="#ffda73"/><path d="M59.639,13.229a.641.641,0,0,0-.619.6,2.507,2.507,0,0,0,.467,1.871,3.722,3.722,0,0,0,1.548,1.2.725.725,0,0,0,.659.045.738.738,0,0,0,.223-.708C61.814,14.855,61.392,12.922,59.639,13.229Z" transform="translate(-42.111 -9.421)" fill="#ffda73"/><path d="M67.744,2.842a10.79,10.79,0,0,0,.608,2.7,2.029,2.029,0,0,0,.5.857.787.787,0,0,0,.924.128,1.118,1.118,0,0,0,.313-1.068,7.972,7.972,0,0,0-1.065-3.4c-.657-1.033-1.378-.272-1.28.791Z" transform="translate(-48.357 -1.114)" fill="#ffda73"/><path d="M79.084,14.02a1.823,1.823,0,0,0-.657.892.286.286,0,0,0,0,.187.283.283,0,0,0,.127.119,1.906,1.906,0,0,0,.983.161q1.453-.029,2.9-.2a5.513,5.513,0,0,0,1.81-.444,1.461,1.461,0,0,0,.73-.676,1.12,1.12,0,0,0-.356-1.27c-1.391-1.12-4.409.28-5.537,1.229Z" transform="translate(-55.979 -8.836)" fill="#ffda73"/><path d="M73.726,26.635a4.721,4.721,0,0,0,2.63.863,1.673,1.673,0,0,0,1.5-.611A1.273,1.273,0,0,0,77.61,25.4c-.673-.7-2.395-.946-3.342-.976-1.337-.042-1.561,1.494-.542,2.216Z" transform="translate(-52.18 -17.433)" fill="#ffda73"/><path d="M12.134,85.89a2.372,2.372,0,0,0-.788,1.434.494.494,0,0,0,.089.371.53.53,0,0,0,.285.138,4.636,4.636,0,0,0,2.688-.384,15.027,15.027,0,0,0,1.832-.862,2.5,2.5,0,0,0,.787-.6.955.955,0,0,0,.177-.933,1.123,1.123,0,0,0-.542-.515C15.165,83.757,13.211,84.822,12.134,85.89Z" transform="translate(-8.098 -60.161)" fill="#ffda73"/><path d="M16.207,70.876a.993.993,0,0,0-.867.33,1.014,1.014,0,0,0-.107.964,2.252,2.252,0,0,0,.588.815,6.026,6.026,0,0,0,1.539,1.077,1.246,1.246,0,0,0,1.017.14.943.943,0,0,0,.388-1.181,2.746,2.746,0,0,0-.856-1.05C17.409,71.533,16.917,70.936,16.207,70.876Z" transform="translate(-10.823 -50.595)" fill="#ffda73"/><path d="M32.028,67.706a1.891,1.891,0,0,0-.333,1.03,5.6,5.6,0,0,0,.618,3.059c.143.273.361.565.67.57a.715.715,0,0,0,.479-.221,2.555,2.555,0,0,0,.624-1.8,4.04,4.04,0,0,0-.493-2.386C33.225,67.387,32.536,67.066,32.028,67.706Z" transform="translate(-22.613 -48.084)" fill="#ffda73"/><path d="M107.87,32.59a8.032,8.032,0,0,0-.414,4.224.616.616,0,0,0,.268.488.425.425,0,0,0,.457-.108,1.174,1.174,0,0,0,.248-.428,12.964,12.964,0,0,0,.844-3.491c.04-.407.113-1.329-.359-1.549C108.422,31.5,108.006,32.236,107.87,32.59Z" transform="translate(-76.631 -22.618)" fill="#ffda73"/><path d="M120.866,48.421c-.4.29-.784.769-.6,1.224s.769.527,1.251.536a5.871,5.871,0,0,0,3.665-.757,1.516,1.516,0,0,0,.619-.837,1.025,1.025,0,0,0-.3-.967c-.487-.442-1.64-.238-2.239-.157a5.263,5.263,0,0,0-2.391.958Z" transform="translate(-85.825 -33.8)" fill="#ffda73"/><path d="M113.306,57.754a1.688,1.688,0,0,0-.268.917,4.17,4.17,0,0,0,.653,2.318,7.778,7.778,0,0,0,1.617,1.818,2.583,2.583,0,0,0,1.035.616,1,1,0,0,0,1.081-.358,1.383,1.383,0,0,0,.058-1.051,7.838,7.838,0,0,0-1.589-3.179C115.368,58.2,114.111,56.632,113.306,57.754Z" transform="translate(-80.696 -40.95)" fill="#ffda73"/><path d="M108.147,38.811l.034.007a.3.3,0,0,0,.3-.145,5.769,5.769,0,0,1,.484-.667l.178-.225A5.169,5.169,0,0,0,110,33.218a.58.58,0,0,0-.149-.268.561.561,0,0,0-.659-.048,2.287,2.287,0,0,0-1.058,1.421,8.169,8.169,0,0,0-.2,4.276A.3.3,0,0,0,108.147,38.811Zm.553-4.3h0a1.75,1.75,0,0,1,.743-1.067,4.562,4.562,0,0,1-.774,3.971l-.173.219-.113.142a7.993,7.993,0,0,1,.317-3.265Z" transform="translate(-76.913 -23.43)" fill="#6d6d6d"/><path d="M116.416,39.477a.591.591,0,0,0,.358.335l.049.015c.612.157,1.335-.606,1.993-1.415a4.3,4.3,0,0,0,1.043-2.784.521.521,0,0,0-.293-.52.562.562,0,0,0-.381,0,3.891,3.891,0,0,0-2.307,2.206C116.39,38.394,116.244,39.082,116.416,39.477Zm1.005-1.92a3.358,3.358,0,0,1,1.842-1.846,3.784,3.784,0,0,1-.94,2.361c-1.016,1.249-1.324,1.185-1.355,1.178,0,0-.192-.259.453-1.693Z" transform="translate(-83.06 -25.039)" fill="#6d6d6d"/><path d="M50.648,14.084c-.05,0-3.8.3-4.068,1.465a24.159,24.159,0,0,0-9.252,1.625c-.544.211-1.034.426-1.489.649a5.632,5.632,0,0,0,.146-.9c.012-.113.023-.218.036-.309A12.026,12.026,0,0,0,35.4,10.72a.3.3,0,0,0-.559,0L33.936,13.1a7.351,7.351,0,0,0-.685,3.148,2.853,2.853,0,0,0,1.32,2.279q-.15.1-.3.194a13.534,13.534,0,0,0-5.325,6.914c-.026-.19-.048-.376-.079-.57-.073-.469-.156-.938-.238-1.408a20.362,20.362,0,0,1-.462-5.194,16.7,16.7,0,0,1,2.479-6.724,45.246,45.246,0,0,1,2.678-4.083c.077.724,1.115,1.458,1.127,1.466a3.309,3.309,0,0,0,1.05.472,3.419,3.419,0,0,0,1.3.078A1.775,1.775,0,0,0,37.988,9.1a1.057,1.057,0,0,0-.045-1.43,1.38,1.38,0,0,0-.605-.277h0c-.129-.033-.287-.078-.464-.129a6.211,6.211,0,0,0-2.947-.4q.258-.336.522-.666a9.928,9.928,0,0,0,1.585.6,2.545,2.545,0,0,0,.992.088,8.187,8.187,0,0,0,1.8-.57,5.463,5.463,0,0,0,1.744-.975,1.008,1.008,0,0,0,.283-1.319,1.058,1.058,0,0,0-.767-.345,8.987,8.987,0,0,0-3.591.419,2.361,2.361,0,0,0,.216-.471,10.3,10.3,0,0,0,.4-2.842c.018-.59-.3-.735-.433-.77a.681.681,0,0,0-.6.19,4.443,4.443,0,0,0-1.356,2.782l-.035.222c-.05.334-.1.62-.149.866A19.541,19.541,0,0,0,33.9,1.649a1.246,1.246,0,0,0-.764-.91L33.091.728a.941.941,0,0,0-1,.608,1.9,1.9,0,0,0-.062,1,7.956,7.956,0,0,0,.984,3.134,1.563,1.563,0,0,0,.735.651q-.4.51-.789,1.033A6.4,6.4,0,0,0,32.5,5.843h0A3.189,3.189,0,0,0,30.88,4.2a.944.944,0,0,0-1.065.12.813.813,0,0,0-.157.808,1.771,1.771,0,0,0,.332.559c.1.129.234.318.385.534A5.588,5.588,0,0,0,32.208,8.2q-.862,1.232-1.64,2.518a5.715,5.715,0,0,0-.592-1.553,4.915,4.915,0,0,0-2.551-2.3.3.3,0,0,0-.358.114,1.042,1.042,0,0,0-.017.918,6.9,6.9,0,0,0,2.994,3.7,16.971,16.971,0,0,0-2.466,6.814c-.02.239-.032.478-.037.716-1.488-2.544-3.741-4.22-6.145-5.919a1.494,1.494,0,0,0,.465-.325,4.555,4.555,0,0,0,1.231-2.675c.034-.414-.149-.733-.46-.783a.639.639,0,0,0-.3.027,2.165,2.165,0,0,0-1.223,1.02,3.944,3.944,0,0,0-.456,1.44h0a2.631,2.631,0,0,0-.02.756q-.376-.266-.755-.537a2.915,2.915,0,0,0,.57-1.652,3.253,3.253,0,0,0-.551-2.2,1.05,1.05,0,0,0-1.342-.43,1.121,1.121,0,0,0-.445.829h0c-.1.685-.194,2.624.609,3.359a1.339,1.339,0,0,0,.3.212c.529.386,1.058.76,1.581,1.128,2.848,2.006,5.537,3.9,6.986,7.139.085,1.094.275,2.18.462,3.244.082.466.163.932.237,1.4a22.535,22.535,0,0,1,.163,6.727A10.113,10.113,0,0,0,25.983,27.7c-.57-.626-1.188-1.22-1.786-1.795l-.262-.252a1.2,1.2,0,0,0,.9-.434A2.7,2.7,0,0,0,25.4,23.2c-.07-.39-.347-.8-.775-.772-.208.013-.576.14-.71.849-.034.174-.078.358-.123.547a5.647,5.647,0,0,0-.221,1.478q-.262-.256-.52-.518a1.408,1.408,0,0,0,.324-.591,6.589,6.589,0,0,0-.1-3.824c-.23-.735-.641-.866-.862-.878a.949.949,0,0,0-.736.35,2.886,2.886,0,0,0-.5,2.557,4.127,4.127,0,0,0-1.552-1.931,1.348,1.348,0,0,0-1.613-.1,1.088,1.088,0,0,0-.237,1.223,2.107,2.107,0,0,0,.716.843,8.771,8.771,0,0,0,1.814,1.014,5.24,5.24,0,0,0,.741.222l.02.005c.087.023.171.048.251.075a27.253,27.253,0,0,0,2.461,2.586c.59.568,1.2,1.155,1.759,1.767,1.7,1.864,2.541,3.687,2.507,5.418a.3.3,0,0,0,.224.295.305.305,0,0,0,.068.009.574.574,0,0,0,.394-.291,19,19,0,0,0,.4-6.274,12.764,12.764,0,0,1,5.475-8.038,14.364,14.364,0,0,1,2.934-1.487,23.624,23.624,0,0,1,5.609-1.412,5.62,5.62,0,0,0-.409,2.723v.171a2,2,0,0,0,.118.835.654.654,0,0,0,.422.4.515.515,0,0,0,.086.014c.139.012.482-.02.668-.577.13-.393.246-.793.346-1.189h0c0-.019.452-1.841-.1-2.489a22.792,22.792,0,0,1,2.332-.058.286.286,0,0,0,.065-.011.752.752,0,0,0,.14.154,1.186,1.186,0,0,0,.465.217,7.729,7.729,0,0,0,3.133-.272,2.184,2.184,0,0,0,1.294-.975.849.849,0,0,0,.1-.538c-.077-.44-.528-.685-1.171-.638Zm-15.6-2.06c-.081,1.962-.062,3.945-.044,5.872v0a3.98,3.98,0,0,1-.626-3.282,16.19,16.19,0,0,1,.409-1.639C34.879,12.664,34.97,12.346,35.05,12.024Zm.382,4.5c-.014.1-.026.211-.039.331a3.162,3.162,0,0,1-.238,1.077v-.041c-.018-1.9-.03-3.862.048-5.8a11.484,11.484,0,0,1,.229,4.432ZM33.846,16.2a6.9,6.9,0,0,1,.647-2.889l.177-.465-.025.087a16.511,16.511,0,0,0-.413,1.654,4.08,4.08,0,0,0,.7,3.438A.591.591,0,0,1,34.839,18,2.24,2.24,0,0,1,33.846,16.2Zm2.1-8.575c.276.071.54.146.762.209a2.645,2.645,0,0,1,.838.279.471.471,0,0,1-.021.6,1.267,1.267,0,0,1-.8.364,2.8,2.8,0,0,1-1.933-.451c-.415-.285-.9-.836-.873-1.072,0-.015.006-.06.132-.111a3.934,3.934,0,0,1,1.9.179Zm4.074-3.356c.125.014.3.04.356.116.084.108-.048.361-.218.52a4.917,4.917,0,0,1-1.559.858,7.749,7.749,0,0,1-1.668.533,4.719,4.719,0,0,1-2.069-.569,9.416,9.416,0,0,0,.757-.612A8.207,8.207,0,0,1,40.022,4.273ZM35.28,3.3l.032-.212A3.94,3.94,0,0,1,36.468.659l.04-.032a.681.681,0,0,1,.008.141,9.6,9.6,0,0,1-.374,2.676,3.009,3.009,0,0,1-.866,1.182q-.148.082-.288.171a13.7,13.7,0,0,0,.291-1.5ZM32.621,2.252a1.4,1.4,0,0,1,.024-.692c.062-.153.218-.269.334-.246l.011,0c.129.033.243.2.349.522a11.409,11.409,0,0,1,.715,3.65.208.208,0,0,1-.1.065c-.05.011-.205-.061-.445-.416a7.138,7.138,0,0,1-.887-2.885ZM30.864,5.878c-.159-.227-.3-.426-.406-.561a1.267,1.267,0,0,1-.231-.368.242.242,0,0,1,.019-.217.327.327,0,0,1,.29-.019.923.923,0,0,1,.118.039A2.6,2.6,0,0,1,31.96,6.1a4.519,4.519,0,0,1,.461,1.543C31.992,7.488,31.288,6.483,30.864,5.878ZM18.7,8.77c.035-.227.09-.361.169-.411.138-.085.4.079.549.279a2.664,2.664,0,0,1,.436,1.8c-.05.635-.253,1.234-.443,1.309a.137.137,0,0,1-.089-.012l-.089-.064a.283.283,0,0,0-.059-.027c-.017-.014-.034-.026-.052-.042-.508-.465-.552-1.964-.422-2.831ZM21.24,12a3.382,3.382,0,0,1,.382-1.227,1.608,1.608,0,0,1,.869-.742.483.483,0,0,1,.006.13,3.963,3.963,0,0,1-1.051,2.295,1.235,1.235,0,0,1-.218.177A1.878,1.878,0,0,1,21.24,12Zm3.135,11.959c.048-.2.094-.392.129-.574h0c.052-.274.136-.363.161-.365h0a.415.415,0,0,1,.148.283,2.091,2.091,0,0,1-.43,1.512.784.784,0,0,1-.209.172,7.44,7.44,0,0,1,.2-1.029ZM20.551,22.9a8.278,8.278,0,0,1-1.693-.942,1.574,1.574,0,0,1-.524-.594.507.507,0,0,1,.075-.548.492.492,0,0,1,.45-.056,1.508,1.508,0,0,1,.443.2,3.545,3.545,0,0,1,1.445,2,1.745,1.745,0,0,1-.2-.069Zm1.564-2.652a.414.414,0,0,1,.268-.161c.115.008.239.183.325.46a5.972,5.972,0,0,1,.1,3.461,1.412,1.412,0,0,1-.121.286,3.068,3.068,0,0,1-.264-.353l-.086-.125c-.048-.125-.122-.306-.2-.5-.121-.3-.3-.741-.327-.839A2.478,2.478,0,0,1,22.115,20.245Zm-.732,2.787h-.006L21.369,23Zm22.422-4.483c-.1.382-.208.768-.333,1.146a.667.667,0,0,1-.056.129l-.007-.015a1.5,1.5,0,0,1-.069-.592v-.179c-.011-2.263.325-2.453.393-2.468a.158.158,0,0,1,.071,0,.049.049,0,0,1,.025.016C44.061,16.819,43.946,17.99,43.805,18.549Zm7.381-3.565a1.637,1.637,0,0,1-.965.688c-.524.188-2.565.527-3.016.157a.13.13,0,0,1-.046-.146c.064-.413,2.215-.911,3.532-1h0a1.172,1.172,0,0,1,.359.026c.1.026.173.069.182.119a.271.271,0,0,1-.045.16Z" transform="translate(-12.63 0)" fill="#6d6d6d"/><path d="M115.8,57.409c-.074-.033-.162-.078-.26-.128-.549-.28-1.378-.7-1.861-.141-.507.594.057,1.731.341,2.3a9.513,9.513,0,0,0,1.515,2.212,3.011,3.011,0,0,0,1.312.93l.062.017a1.258,1.258,0,0,0,1.254-.306,1.558,1.558,0,0,0,.254-1.306,4.409,4.409,0,0,0-1.431-2.908A5,5,0,0,0,115.8,57.409Zm1.218,4.605a2.483,2.483,0,0,1-1.042-.761,8.956,8.956,0,0,1-1.434-2.1c-.471-.951-.518-1.372-.448-1.555a15.308,15.308,0,0,0,.913,1.348c.2.252.412.495.62.73.193.219.393.445.577.676.12.152.237.308.354.465a6.722,6.722,0,0,0,1.029,1.176A.872.872,0,0,1,117.022,62.014Zm.7-.116-.007.006a6.438,6.438,0,0,1-1.036-1.177c-.118-.158-.235-.316-.357-.469-.187-.234-.387-.462-.582-.682s-.42-.475-.614-.724a15.668,15.668,0,0,1-.927-1.371.52.52,0,0,1,.316.007,4.128,4.128,0,0,1,.756.323c.109.056.208.106.291.143a4.5,4.5,0,0,1,1.05.591,4,4,0,0,1,1.216,2.53c.061.418.028.672-.107.822Z" transform="translate(-81.014 -40.594)" fill="#6d6d6d"/><path d="M6.967,45.128c.1-.036.242-.079.409-.13,1.072-.327,2.865-.875,2.554-1.917a1.084,1.084,0,0,0-.553-.671c-.756-.4-1.976-.082-2.954.236a3.37,3.37,0,0,0-2.044,1.409A1.049,1.049,0,0,0,4.461,45.3a.859.859,0,0,0,.389.21,1.533,1.533,0,0,0,.535.025,6.819,6.819,0,0,0,1.582-.408ZM4.9,44.337a2.857,2.857,0,0,1,1.7-1.124c.46-.15,1.86-.608,2.493-.275a.493.493,0,0,1,.259.314c.142.475-1.589,1-2.157,1.177-.178.054-.329.1-.435.138a6.285,6.285,0,0,1-1.443.376.587.587,0,0,1-.449-.071C4.764,44.765,4.807,44.517,4.9,44.337Z" transform="translate(-3.009 -30.144)" fill="#6d6d6d"/><path d="M1.479,33.5a14.965,14.965,0,0,0,2.156.779,2.323,2.323,0,0,0,1.558.037.633.633,0,0,0,.332-.471.783.783,0,0,0-.171-.6c-.624-.837-2.924-1.426-3.344-1.482h0a1.633,1.633,0,0,0-.762.04.854.854,0,0,0-.592.711c-.02.279.1.675.823.987Zm-.228-.944c.005-.071.089-.155.192-.19a1.118,1.118,0,0,1,.489-.012A6.677,6.677,0,0,1,4.877,33.6a.178.178,0,0,1,.029.192c-.254.139-1.241,0-3.21-.849C1.413,32.821,1.243,32.672,1.251,32.555Z" transform="translate(-0.467 -22.656)" fill="#6d6d6d"/><path d="M19.2,50.051a1,1,0,0,0,.149,1.143.867.867,0,0,0,.388.212,1.068,1.068,0,0,0,.552-.01,1.872,1.872,0,0,0,.705-.417c.017-.014,1.582-1.482,1.182-2.181-.255-.445-.94-.21-1.2-.122a3.981,3.981,0,0,0-1.112.647A2.145,2.145,0,0,0,19.2,50.051Zm1.972-.811a1.633,1.633,0,0,1,.47-.108A4.169,4.169,0,0,1,20.6,50.526a1.344,1.344,0,0,1-.478.3.394.394,0,0,1-.366-.057.421.421,0,0,1-.025-.452,1.616,1.616,0,0,1,.493-.516,3.451,3.451,0,0,1,.942-.556Z" transform="translate(-13.625 -34.649)" fill="#6d6d6d"/><path d="M13.5,87.724a1.817,1.817,0,0,0,.581.034c1.442-.113,3.952-.485,4.56-1.709a.835.835,0,0,0-.056-.992c-.72-.824-3.4-.317-3.825-.174a2.509,2.509,0,0,0-1.881,1.812.958.958,0,0,0,.136.712.825.825,0,0,0,.484.317Zm-.03-.939c.121-.793,1.078-1.2,1.483-1.337a7.266,7.266,0,0,1,2.842-.171.676.676,0,0,1,.342.173c.024.027.088.1-.03.334-.343.691-1.865,1.207-4.071,1.379-.29.022-.469-.012-.534-.1a.4.4,0,0,1-.032-.276Z" transform="translate(-9.185 -60.394)" fill="#6d6d6d"/><path d="M26.9,94.425a.6.6,0,0,0,.072.7.534.534,0,0,0,.251.139.806.806,0,0,0,.164.023,2.235,2.235,0,0,0,1.354-.49,3.9,3.9,0,0,0,1.383-1.465.3.3,0,0,0-.058-.317,1.277,1.277,0,0,0-1.717-.254A3.416,3.416,0,0,0,26.9,94.425Zm2.137-1.291a.537.537,0,0,1,.155.018.89.89,0,0,1,.285.136A4.208,4.208,0,0,1,28.4,94.309a1.665,1.665,0,0,1-.958.377l.014-.037a2.823,2.823,0,0,1,1.2-1.373A.878.878,0,0,1,29.038,93.134Z" transform="translate(-19.154 -66.063)" fill="#6d6d6d"/><path d="M81.644,72.7a.3.3,0,0,0,.26-.394,8.008,8.008,0,0,0-3-3.971h0c-.67-.462-2.938-1.907-3.991-1.061a1.049,1.049,0,0,0-.42.8c-.019.75.728,1.482,1.431,2.11l.117.105a9.309,9.309,0,0,0,3.852,2.243A5.446,5.446,0,0,0,81.644,72.7Zm-6.5-4.8c.366.2.777.406,1.179.606.515.256,1.048.521,1.477.774a10.91,10.91,0,0,1,1.736,1.18,7.009,7.009,0,0,1,1.11,1.373l.175.257h0a21.707,21.707,0,0,1-5.27-3.633,2.722,2.722,0,0,1-.436-.49.4.4,0,0,1,.031-.066Zm1.128-.225a7.971,7.971,0,0,1,2.294,1.147h0A7.41,7.41,0,0,1,81.2,72.116c-.063,0-.125-.007-.188-.01-.082-.118-.164-.235-.244-.353a7.14,7.14,0,0,0-1.134-1.4,11.061,11.061,0,0,0-1.759-1.2c-.434-.256-.97-.522-1.487-.779-.391-.195-.792-.394-1.15-.59a.615.615,0,0,1,.049-.048,1.156,1.156,0,0,1,.984-.059Zm.171,2.169-.121-.108c-.346-.309-1.122-1-1.221-1.53a3.716,3.716,0,0,0,.347.361,21.841,21.841,0,0,0,4.9,3.453A8.579,8.579,0,0,1,76.438,69.847Z" transform="translate(-53.178 -47.841)" fill="#6d6d6d"/><path d="M42.012,41.4a.566.566,0,0,0,.306-.008c.761-.233,1.15-2.157,1.123-2.581a9.25,9.25,0,0,0-.516-2.221.293.293,0,0,0-.251-.2.3.3,0,0,0-.289.144c-.37.623-1.6,3.2-.9,4.408a.89.89,0,0,0,.523.464Z" transform="translate(-29.465 -25.971)" fill="#6d6d6d"/><path d="M28.981,14.348a1.375,1.375,0,0,0-.5.281,1.168,1.168,0,0,0-.489,1.028,1.115,1.115,0,0,0,.224.5,1.423,1.423,0,0,0,.77.546,1.067,1.067,0,0,0,.157.028,1.292,1.292,0,0,0,1.093-.488,1,1,0,0,0,.253-.8,1.059,1.059,0,0,0-.145-.358A1.281,1.281,0,0,0,28.981,14.348Z" transform="translate(-19.98 -10.217)" fill="#6d6d6d"/><path d="M40.223,12.351a.848.848,0,0,0,.007-.326,1.49,1.49,0,0,0-.062-.308.958.958,0,0,0-.771-.668.926.926,0,0,0-.9.431h0a1.15,1.15,0,0,0-.081,1.1.934.934,0,0,0,.6.542.761.761,0,0,0,.132.021,1.1,1.1,0,0,0,.867-.449A.815.815,0,0,0,40.223,12.351Zm-.585-.252a.521.521,0,0,1,.007.1.4.4,0,0,1-.069.092c-.156.174-.284.259-.38.252a.326.326,0,0,1-.232-.211A.563.563,0,0,1,39,11.812a.337.337,0,0,1,.322-.171.373.373,0,0,1,.285.269A1.006,1.006,0,0,1,39.639,12.1Z" transform="translate(-27.355 -7.882)" fill="#6d6d6d"/><path d="M32.726,6.872c.033.01.072.022.115.033a.753.753,0,0,0,.479-.014.717.717,0,0,0,.41-.7,1.025,1.025,0,0,0-.519-.843.729.729,0,0,0-.753.031.913.913,0,0,0-.38.571.75.75,0,0,0,.007.412.9.9,0,0,0,.642.511Zm-.068-.787a.333.333,0,0,1,.121-.2.135.135,0,0,1,.112-.024.2.2,0,0,1,.041.016.435.435,0,0,1,.2.334.184.184,0,0,1-.039.132A.434.434,0,0,1,32.9,6.3c-.218-.068-.249-.116-.254-.129a.186.186,0,0,1,.008-.088Z" transform="translate(-22.882 -3.753)" fill="#6d6d6d"/><path d="M70.85,87.011a1.11,1.11,0,0,0-.419.359,1.36,1.36,0,0,0-.285,1.052,1.289,1.289,0,0,0,.779.907,1.326,1.326,0,0,0,.19.065.929.929,0,0,0,.654-.052,1.06,1.06,0,0,0,.3-.241,1.28,1.28,0,0,0,.316-1.518,1.369,1.369,0,0,0-.412-.4,1.167,1.167,0,0,0-1.125-.174Z" transform="translate(-50.064 -62.061)" fill="#6d6d6d"/><path d="M93.923,39.8a1.163,1.163,0,0,0-1.125-.174,1.1,1.1,0,0,0-.419.359,1.36,1.36,0,0,0-.285,1.052,1.289,1.289,0,0,0,.779.907,1.331,1.331,0,0,0,.19.065.929.929,0,0,0,.654-.053,1.059,1.059,0,0,0,.3-.241,1.282,1.282,0,0,0,.317-1.518h0a1.377,1.377,0,0,0-.412-.4Zm-.347,1.515a.475.475,0,0,1-.127.108.431.431,0,0,1-.343-.028.7.7,0,0,1-.427-.471.772.772,0,0,1,.177-.583.539.539,0,0,1,.19-.174.386.386,0,0,1,.255-.008.975.975,0,0,1,.29.136.813.813,0,0,1,.242.224C93.976,40.743,93.784,41.089,93.576,41.318Z" transform="translate(-65.733 -28.235)" fill="#6d6d6d"/><path d="M77.874,97.611a.648.648,0,0,0,.187.021.845.845,0,0,0,.316-.087,1.617,1.617,0,0,0,.276-.147.962.962,0,0,0,.419-.93.925.925,0,0,0-.669-.735,1.146,1.146,0,0,0-1.077.237.9.9,0,0,0-.329.865,1.1,1.1,0,0,0,.678.7,1.08,1.08,0,0,0,.2.076Zm-.159-1.189a.569.569,0,0,1,.491-.125l.02.006a.337.337,0,0,1,.256.259.365.365,0,0,1-.173.349,1.03,1.03,0,0,1-.174.089.531.531,0,0,1-.1.037A.4.4,0,0,1,77.929,97c-.211-.1-.329-.2-.35-.291A.331.331,0,0,1,77.715,96.423Z" transform="translate(-54.956 -68.31)" fill="#6d6d6d"/><path d="M83.2,89.565a1.026,1.026,0,0,0,.659-.739.731.731,0,0,0-.246-.712.913.913,0,0,0-.655-.2.74.74,0,0,0-.393.125.9.9,0,0,0-.306.761.859.859,0,0,0,.151.575.627.627,0,0,0,.338.211A.81.81,0,0,0,83.2,89.565Zm-.344-.759c0-.229.04-.272.052-.281a.192.192,0,0,1,.086-.017.449.449,0,0,1,.136.012.233.233,0,0,1,.095.046.135.135,0,0,1,.05.144.433.433,0,0,1-.261.289.183.183,0,0,1-.138,0A.447.447,0,0,1,82.852,88.806Z" transform="translate(-58.722 -62.76)" fill="#6d6d6d"/><path d="M96.463,25.553a1.027,1.027,0,0,0,.66-.739.731.731,0,0,0-.245-.712.908.908,0,0,0-.656-.2.74.74,0,0,0-.393.125.9.9,0,0,0-.306.761.861.861,0,0,0,.151.575.628.628,0,0,0,.338.211A.809.809,0,0,0,96.463,25.553Zm-.325-.566a.448.448,0,0,1-.019-.193c0-.229.04-.272.052-.281a.192.192,0,0,1,.086-.017.455.455,0,0,1,.136.012.233.233,0,0,1,.094.045h0a.135.135,0,0,1,.05.144.435.435,0,0,1-.262.289A.19.19,0,0,1,96.138,24.987Z" transform="translate(-68.194 -17.061)" fill="#6d6d6d"/></g></g><g transform="translate(1194.874 1002.703)"><g transform="translate(0 0)"><path d="M37.9,84.082a1.858,1.858,0,0,0,1.128.716,2.131,2.131,0,0,0,1.349-.406,12.813,12.813,0,0,0,3.674-3.872,43.787,43.787,0,0,0,2.784-4.687,1.659,1.659,0,0,0,.218-.62.379.379,0,0,0-.148-.367.475.475,0,0,0-.385.021,15.35,15.35,0,0,0-4.668,2.674,15.648,15.648,0,0,0-3.509,4.143,12.615,12.615,0,0,0-.7,1.349.958.958,0,0,0,.255,1.049Z" transform="translate(-27.493 -54.741)" fill="#ffda73"/><path d="M0,105.849a.743.743,0,0,0,.143.424,5.516,5.516,0,0,0,1.449,1.333c.751.567,1.45,1.208,2.254,1.7a4.165,4.165,0,0,0,2.679.7,4.52,4.52,0,0,0,.976-.271,2.694,2.694,0,0,0,1.7-1.385,1.992,1.992,0,0,0-.387-1.862,4.571,4.571,0,0,0-1.58-1.176,6.471,6.471,0,0,0-1.024-.432,7.632,7.632,0,0,0-1.554-.262,9.542,9.542,0,0,0-2.3,0,4.316,4.316,0,0,0-1.384.443c-.218.116-.393.279-.6.409-.166.1-.366.146-.379.388Z" transform="translate(0 -76.493)" fill="#ffda73"/><path d="M18.325,39.08a13.1,13.1,0,0,0,3.908,4.376,1.161,1.161,0,0,0,.9.3A.814.814,0,0,0,23.68,43a2.311,2.311,0,0,0-.213-.964q-.788-2.059-1.76-4.041A7.428,7.428,0,0,0,20.6,36.221c-.535-.587-3.057-3.031-3.486-1.742C16.679,35.789,17.715,37.971,18.325,39.08Z" transform="translate(-12.447 -24.958)" fill="#ffda73"/><path d="M45.8,31.614a13.237,13.237,0,0,1,2.243-2.959c.324.164.356.608.332.97a17.139,17.139,0,0,1-2.6,7.958c-.433.688-1.385,2.653-2.41,1.855-.93-.724-.145-2.661.172-3.524A24.051,24.051,0,0,1,45.8,31.614Z" transform="translate(-31.411 -20.967)" fill="#ffda73"/><path d="M3.818,50.544a9.077,9.077,0,0,0,1.8.917,5.718,5.718,0,0,0,3.8-.252,2.039,2.039,0,0,0,.613-.49,17.813,17.813,0,0,0,.835,4.615,7.44,7.44,0,0,0,1.753,3.12.279.279,0,0,0,.4-.009.275.275,0,0,0,.042-.058.28.28,0,0,0-.052-.337A6.6,6.6,0,0,1,11.4,55.163a17.243,17.243,0,0,1-.466-1.769.771.771,0,0,0,.182.188c1.394,1.026,2.983-3.314,3.046-4.159a.156.156,0,0,0-.017-.1c-.048-.066-.152-.022-.217.027-.488.362-2.905,2.267-3.1,3.5a17.246,17.246,0,0,1-.242-2.217,21.14,21.14,0,0,1,.049-2.458,1.213,1.213,0,0,0,1.088.243,7.334,7.334,0,0,0,3.49-1.863,19.054,19.054,0,0,0,2.973-3.623c.461-.678.929-1.385,1.339-2.128a11.9,11.9,0,0,0,.8-1.731.48.48,0,0,0-.628-.67,14.155,14.155,0,0,0-3.922,1.827,14.915,14.915,0,0,0-4.836,5.261c.072-.513.149-1.024.225-1.53.156-1.033.317-2.1.431-3.159a24.382,24.382,0,0,0,.145-3.3.649.649,0,0,0,.075.025c.413.11.889-.157,1.241-.7q.624-.957,1.173-1.951a30.747,30.747,0,0,0,3.185-8.589.28.28,0,0,0-.038-.207.538.538,0,0,0-.433-.256,1.154,1.154,0,0,0-.858.463,24.785,24.785,0,0,0-3.8,6.522c-.073.186-.161.393-.255.614-.189.444-.4.939-.564,1.434A10.778,10.778,0,0,0,9.959,31a18.54,18.54,0,0,0-4.514-4.357A.279.279,0,0,0,5,26.8,8.939,8.939,0,0,0,9.766,36.806a2.18,2.18,0,0,0,1.394.24,23.037,23.037,0,0,1-.126,3.692c-.083.772-.193,1.553-.306,2.322-.02-.046-.041-.1-.063-.152-.26-.668-.384-1.384-.707-2.029A5.032,5.032,0,0,0,7.272,38.6,14.965,14.965,0,0,0,3.766,37.8L.777,37.379a1.673,1.673,0,0,0,.46,1.582A10.03,10.03,0,0,0,4.5,41.444a20.773,20.773,0,0,0,4.714,1.765,6.812,6.812,0,0,0,1.235.259,1.7,1.7,0,0,0,.222,0l-.061.408a48.538,48.538,0,0,0-.57,4.932,5.3,5.3,0,0,0-.9-1.049,5.381,5.381,0,0,0-2.5-1.3A8.645,8.645,0,0,0,.958,47.55a.786.786,0,0,0-.435.463c-.054.208-.014.519.478.819l2.817,1.712Zm8.764-14.02c-.229.351-.49.5-.629.461a.172.172,0,0,1-.062-.041,61.723,61.723,0,0,1,3.716-7.895l.077-.137a8.877,8.877,0,0,0,1.075-2.478c.018-.011.037-.021.053-.029a30.211,30.211,0,0,1-4.23,10.117Zm-.045-2.88c.1-.225.186-.437.261-.628a24.425,24.425,0,0,1,1.341-2.849,24.079,24.079,0,0,1,2.375-3.526.833.833,0,0,1,.075-.081,9.353,9.353,0,0,1-1.028,2.284l-.077.136A61.716,61.716,0,0,0,11.8,36.8a1.171,1.171,0,0,1-.071-.359,7.5,7.5,0,0,1,.812-2.8ZM9.49,31.305a10.236,10.236,0,0,1,1.422,3.666c-1.137-1.941-2.258-3.911-3.345-5.88A11.618,11.618,0,0,1,9.49,31.305Zm-2.24-2.5C8.458,31,9.709,33.2,10.977,35.36q.055.336.1.685a17.771,17.771,0,0,0-1.615-2.477c-.2-.276-.4-.547-.587-.812-.4-.566-.746-1.178-1.084-1.771-.235-.41-.477-.835-.734-1.242-.5-.786-1.064-1.537-1.623-2.268.007-.041.013-.082.021-.123.609.467,1.22.945,1.8,1.454ZM5.4,27.664c.53.694,1.067,1.409,1.537,2.155.255.4.5.828.731,1.237.34.6.691,1.21,1.091,1.781.187.266.386.538.589.814a15.185,15.185,0,0,1,1.773,2.823l-.01,0a.814.814,0,0,1-.269.047,19.062,19.062,0,0,1-2.207-1.867A12.2,12.2,0,0,1,6.66,32.208a16.75,16.75,0,0,1-1.343-3.171A7.547,7.547,0,0,1,5.4,27.664Zm-.042,1.911a14.94,14.94,0,0,0,1.186,2.7,12.331,12.331,0,0,0,1.993,2.478,19.233,19.233,0,0,0,2.023,1.737A2.78,2.78,0,0,1,10,36.3a8.4,8.4,0,0,1-4.644-6.723ZM18.278,39.5c.122-.052.244-.1.367-.15-.334.473-.619.943-.893,1.4A15.56,15.56,0,0,1,16.4,42.764a36.8,36.8,0,0,1-3.708,4.067,2.351,2.351,0,0,1-1.8.625,1.246,1.246,0,0,1,0-.213A32.6,32.6,0,0,1,18.278,39.5Zm-.556,3.115a18.6,18.6,0,0,1-2.882,3.52,6.79,6.79,0,0,1-3.2,1.728c-.331.052-.551.006-.654-.135a.436.436,0,0,1-.061-.126,2.5,2.5,0,0,0,1.861-.666,36.961,36.961,0,0,0,3.723-4.081,15.694,15.694,0,0,0,1.367-2.029c.306-.513.623-1.04,1.011-1.567.291-.109.585-.208.882-.3A17.112,17.112,0,0,1,17.722,42.614Zm-1.642-1.923a13.951,13.951,0,0,1,1.624-.928,32.765,32.765,0,0,0-6.765,7.159,3.536,3.536,0,0,1,.292-.8q.108-.212.224-.421a14.376,14.376,0,0,1,4.625-5.007ZM3.135,47.28a9.56,9.56,0,0,1,6.607,2.846,1.007,1.007,0,0,1-.125.208c-.421-.226-.833-.486-1.232-.74a10.678,10.678,0,0,0-2.3-1.214,8.7,8.7,0,0,0-4.638-.452,10.707,10.707,0,0,1,1.641-.672A.069.069,0,0,0,3.135,47.28Zm-2.026.878a8.191,8.191,0,0,1,4.93.354,10.554,10.554,0,0,1,2.272,1.2c.358.228.727.463,1.105.673a9.587,9.587,0,0,1-3.362-.4,27.355,27.355,0,0,1-4.944-1.829Zm8.043,2.558A5.131,5.131,0,0,1,5.8,50.93a8.586,8.586,0,0,1-1.688-.864L1.616,48.55a27.475,27.475,0,0,0,4.4,1.573,9.689,9.689,0,0,0,3.421.4,1.658,1.658,0,0,1-.287.2ZM6.522,47.01a4.8,4.8,0,0,1,2.24,1.158c.763.7,1.151,1.383,1.036,1.816a9.72,9.72,0,0,0-6.356-2.832A6.632,6.632,0,0,1,6.522,47.01Z" transform="translate(-0.37 -18.896)" fill="#6d6d6d"/><path d="M33.473,29.217a1.2,1.2,0,0,0,.105-.255,1.645,1.645,0,0,0-.385-1.468,1.367,1.367,0,0,0-.738-.5,1.017,1.017,0,0,0-.945.313,1.808,1.808,0,0,0-.536,1.492,1.4,1.4,0,0,0,1.235,1.106A1.36,1.36,0,0,0,33.473,29.217Zm-1.951-.525a1.281,1.281,0,0,1,.378-.982.489.489,0,0,1,.43-.168.831.831,0,0,1,.432.31,1.124,1.124,0,0,1,.278.959.78.78,0,0,1-.788.539A.85.85,0,0,1,31.522,28.691Z" transform="translate(-22.649 -19.737)" fill="#6d6d6d"/><path d="M46.633,22.611a1.224,1.224,0,0,0,.152.441,1.137,1.137,0,0,0,1.345.451,1.266,1.266,0,0,0,.658-.581,1.363,1.363,0,0,0,.165-.54,1.106,1.106,0,0,0-.06-.486,1.073,1.073,0,0,0-.791-.642,1.254,1.254,0,0,0-1.155.262A1.2,1.2,0,0,0,46.633,22.611Zm.633.154a.659.659,0,0,1-.08-.24.674.674,0,0,1,.146-.6.716.716,0,0,1,.655-.12.518.518,0,0,1,.384.292.556.556,0,0,1,.026.241.764.764,0,0,1-.46.644A.579.579,0,0,1,47.266,22.766Z" transform="translate(-34.107 -15.524)" fill="#6d6d6d"/><path d="M36.089,14.291A.732.732,0,0,0,36.429,14a.561.561,0,0,0-.066-.559,1.2,1.2,0,0,0-.46-.362c-.689-.349-.961.733-.567,1.157a.539.539,0,0,0,.222.149A.714.714,0,0,0,36.089,14.291Z" transform="translate(-25.722 -9.518)" fill="#6d6d6d"/><path d="M43.381.782a.627.627,0,0,0,.6.314.505.505,0,0,0,.406-.223.486.486,0,0,0,.059-.184.638.638,0,0,0-.271-.61A.561.561,0,0,0,43.381.782Z" transform="translate(-31.703 0)" fill="#6d6d6d"/></g></g><g transform="translate(1224.876 1005.615)"><g transform="translate(0 0)"><path d="M2.235,40.507A10.583,10.583,0,0,0,.2,41.456a.482.482,0,0,0-.19.242c-.071.28.3.451.581.5,2.6.477,5.4.93,7.794-.2a2.691,2.691,0,0,0,1.806-2.514,2.233,2.233,0,0,0-1.446-1.636C5.852,36.688,4.517,39.4,2.235,40.507Z" transform="translate(0 -25.649)" fill="#ffda73"/><path d="M13.222,16.416a.619.619,0,0,1,.045-.563.562.562,0,0,1,.353-.147,4.241,4.241,0,0,1,2.418.48,6.914,6.914,0,0,1,3.772,5.491,1.194,1.194,0,0,1-.295,1.07,1.121,1.121,0,0,1-.518.191,4.39,4.39,0,0,1-2.349-.263c-.671-.271-1.284-.356-1.626-1.02a24.614,24.614,0,0,1-1.8-5.239Z" transform="translate(-8.996 -10.703)" fill="#ffda73"/><path d="M61.846,1.966a16.107,16.107,0,0,0-1.914,1.908,3.836,3.836,0,0,0-.971,3.286,3.694,3.694,0,0,0,1.1,1.648,7.407,7.407,0,0,0,7.668,1.426,3.808,3.808,0,0,0,1.655-1.163.563.563,0,0,0,.147-.479.629.629,0,0,0-.359-.323,12,12,0,0,0-5.461-1.719,5.484,5.484,0,0,0,1.361-3.933A9.313,9.313,0,0,0,64.495.36c-.283-.813-.8-.045-1.183.3L61.846,1.966Z" transform="translate(-40.191 0)" fill="#ffda73"/><path d="M.911,13.857a5.24,5.24,0,0,0,1.938,1.328,3.122,3.122,0,0,1-.278.177l-.152.081c-.371.194-.833.436-.948.945a.331.331,0,0,0,.265.4,16.047,16.047,0,0,0,2.789.245,16.015,16.015,0,0,0,3.142-.312,5.136,5.136,0,0,0,1.569-.525,2.355,2.355,0,0,0,1.138-1.35,1.943,1.943,0,0,0,.08-.648,7.372,7.372,0,0,1,2.838,2.947.918.918,0,0,0-.462.048,9.1,9.1,0,0,0-3.5,2.606A4.7,4.7,0,0,0,8,22.218a.7.7,0,0,0,.061.458.544.544,0,0,0,.348.265.654.654,0,0,0,.16.019,1.108,1.108,0,0,0,.562-.185,12.083,12.083,0,0,0,2.511-2.145,17.342,17.342,0,0,0,1.439-1.9l.075-.11a3.185,3.185,0,0,0,.468-.843,8.818,8.818,0,0,1,.857,3.066c-.013.289-.022.57-.03.839a75.185,75.185,0,0,0,.66,12.327.331.331,0,0,0,.654-.1A74.475,74.475,0,0,1,15.11,21.7a26.994,26.994,0,0,1,.771-6.215,2.219,2.219,0,0,0,.2.1,13.812,13.812,0,0,0,5.633,1.078c.416,0,.788-.014,1.1-.033a.931.931,0,0,0,.5-.145.751.751,0,0,0,.218-.9,1.414,1.414,0,0,0-.463-.547,6.943,6.943,0,0,0-3.04-1.359,7.31,7.31,0,0,0-2.916.051,5.95,5.95,0,0,0-.716.2,8.877,8.877,0,0,1,3.667-4.579,2.911,2.911,0,0,0,.433.584,4.189,4.189,0,0,0,3.048,1.177,5.388,5.388,0,0,0,.944-.084,11.777,11.777,0,0,0,3.755-1.6.719.719,0,0,0,.318-.311.55.55,0,0,0-.04-.53,3.6,3.6,0,0,0,1.185-.9,1.735,1.735,0,0,0,.16-2.075,2.351,2.351,0,0,0-.593-.513l-.147-.1a.81.81,0,0,1-.377-.459,1.08,1.08,0,0,1-.008-.159,1.066,1.066,0,0,0-.083-.475.776.776,0,0,0-.486-.4,3.636,3.636,0,0,0,.377-.4,1.015,1.015,0,0,0,.254-.6.866.866,0,0,0-.16-.494,1.382,1.382,0,0,0-.776-.562,2.167,2.167,0,0,0-.8-.034,9.939,9.939,0,0,0-2.134.454,3.45,3.45,0,0,0-.346-.654.768.768,0,0,0-.621-.385.78.78,0,0,0-.459.2L21.5,2.587a11.763,11.763,0,0,0-1.834,1.644,3.439,3.439,0,0,0-.762,1.379,4.449,4.449,0,0,0-.059,1.411,3.336,3.336,0,0,0,.612,1.924,10.1,10.1,0,0,0-3.935,5.44c-.023.068-.041.139-.063.207a.571.571,0,0,0-.048.158,20.43,20.43,0,0,0-.758,3.786,8.922,8.922,0,0,0-3.786-4.875,2.731,2.731,0,0,0,.641-1.973,4.439,4.439,0,0,0-.939-2.573,3.409,3.409,0,0,0-.985-.955A4.482,4.482,0,0,0,8.362,7.71a5.368,5.368,0,0,1-.833-.264,5.337,5.337,0,0,1-.743-.436c-.194-.128-.388-.256-.592-.367a2.072,2.072,0,0,0-1.809-.2.568.568,0,0,0-.293.258.584.584,0,0,0-.008.448c.018.057.038.114.057.172A1.712,1.712,0,0,0,2.8,7.993a2.5,2.5,0,0,0-.426.957l-.059.206a1.327,1.327,0,0,1-.084.231,1.372,1.372,0,0,1-.215.1l-.1.043A2.1,2.1,0,0,0,.752,10.571a2.335,2.335,0,0,0-.129.8c0,.072-.006.144-.011.215a.783.783,0,0,1-.225.562.332.332,0,0,0-.138.2,1.707,1.707,0,0,0,.663,1.517ZM20.6,5.465A8.984,8.984,0,0,1,21.7,3.945a25.294,25.294,0,0,1,2.111-2.193,1.389,1.389,0,0,1,.144-.119c-.3.409-.618.823-.929,1.225C21.639,4.641,20.212,6.486,20.1,8.649a.813.813,0,0,1-.1-.1A5.358,5.358,0,0,1,20.6,5.465ZM24.226,1.9s0,0,0,0c-.18,2.071-1.575,3.884-2.7,5.354a7.358,7.358,0,0,1-.756.883,2.023,2.023,0,0,1-.247.19,1.761,1.761,0,0,0-.24.188c.158-2.054,1.539-3.837,2.876-5.562.321-.415.649-.841.955-1.264.042.068.083.135.119.207Zm-.869,5.757c.006,0,.011,0,.017,0a9.809,9.809,0,0,1,3.968.923c.008,0,.012.013.02.017a.334.334,0,0,0,.06.023l.067.033a4.856,4.856,0,0,0-1.8.155c-.254.072-.5.166-.747.257-.2.077-.414.156-.625.221a5.547,5.547,0,0,1-3.2,0,4.167,4.167,0,0,0,.928-.442A5.7,5.7,0,0,0,23.357,7.658Zm1.015,2.723a3.792,3.792,0,0,1-3.4-.9c-.024-.025-.042-.052-.064-.077a5.742,5.742,0,0,0,1.8.291,5.628,5.628,0,0,0,1.658-.247c.214-.066.428-.147.634-.224.239-.09.486-.182.734-.253a4.707,4.707,0,0,1,1.955-.13.079.079,0,0,0,.078-.044l.036.018a.635.635,0,0,1,.088.057A11.025,11.025,0,0,1,24.372,10.381Zm4.37-4.837.161.111a1.794,1.794,0,0,1,.436.363,1.087,1.087,0,0,1-.147,1.263,3.51,3.51,0,0,1-1.214.847,5.725,5.725,0,0,0,.415-1.29,1.341,1.341,0,0,0-.017-.729A1.6,1.6,0,0,0,28,5.571c-.59-.648-.689-1.018-.656-1.134a1,1,0,0,1,.213-.317c.329-.038.479.016.508.077a.615.615,0,0,1,.019.2,1.773,1.773,0,0,0,.017.263A1.406,1.406,0,0,0,28.741,5.543ZM25.166,2.487a9.286,9.286,0,0,1,1.969-.413,1.623,1.623,0,0,1,.559.014.713.713,0,0,1,.4.29.241.241,0,0,1,.05.119.578.578,0,0,1-.12.211,4.628,4.628,0,0,1-.451.46,2.949,2.949,0,0,0-.866,1.084c-.131.451.131,1.028.8,1.765l.046.05a.957.957,0,0,1,.2.267.782.782,0,0,1-.011.378,5.054,5.054,0,0,1-.376,1.16,10.485,10.485,0,0,0-3.513-.85,7.124,7.124,0,0,0,1.24-2.532,4.526,4.526,0,0,0,.037-1.969.336.336,0,0,0,.035-.035Zm-.715,1.851a6.9,6.9,0,0,1-1.383,2.629,5.571,5.571,0,0,1-1.375,1.327,2.3,2.3,0,0,1-1.367.437.944.944,0,0,1,.285-.262,2.224,2.224,0,0,0,.266-.206,7.51,7.51,0,0,0,.783-.915c1.084-1.41,2.42-3.151,2.7-5.154a3.712,3.712,0,0,1,.1,2.144Zm-4.9,1.432a2.8,2.8,0,0,1,.625-1.112A11.263,11.263,0,0,1,21.907,3.11l1.259-.978c-.558.544-1.093,1.116-1.6,1.706a9.13,9.13,0,0,0-1.112,1.548,5.523,5.523,0,0,0-.643,2.921,3.469,3.469,0,0,1-.309-1.333,3.919,3.919,0,0,1,.041-1.205ZM4.457,13.7c-.322-.092-.481-.528-.534-.712a3.1,3.1,0,0,1,1.044-3.2c.173.5.345,1,.522,1.5a3.635,3.635,0,0,0,.518,1.053,1.063,1.063,0,0,0,.368.262,5.122,5.122,0,0,0-1.635.861c-.1.076-.184.16-.275.241l-.007,0ZM4.9,6.98A12.31,12.31,0,0,1,6.132,8.088,10.013,10.013,0,0,0,7.7,9.428c.2.128.41.243.614.354a6.427,6.427,0,0,1,.9.556,3.247,3.247,0,0,1,1.2,2.705,2.5,2.5,0,0,0-1.027-1.226,8.8,8.8,0,0,0-.833-.471,7.461,7.461,0,0,1-.937-.545A7.3,7.3,0,0,1,5.723,8.381a15.422,15.422,0,0,0-.879-1.39c.017,0,.035-.009.052-.011ZM5.58,8.464a7.546,7.546,0,0,0,1.938,2.472,7.644,7.644,0,0,0,.958.557,8.708,8.708,0,0,1,.817.461,2.293,2.293,0,0,1,1.013,1.328c-.037.031-.076.06-.117.089-.012-.019-.022-.038-.035-.057a2.4,2.4,0,0,0-1.8-.945c-.084-.006-.168,0-.252-.007a.322.322,0,0,0-.04-.007,3.7,3.7,0,0,1-1.531-.42,3.09,3.09,0,0,1-.415-.867q-.674-1.885-1.306-3.85c.28.4.532.826.774,1.245ZM3.508,15.989c.2-.025.409-.052.612-.1a18.772,18.772,0,0,0,5.532-2.12.992.992,0,0,1-.411.858,5.958,5.958,0,0,1-3.313,1.311c-.53.069-1.072.1-1.6.138l-.46.031c-.119.008-.247.013-.38.017a5.227,5.227,0,0,0-.971.092,3.119,3.119,0,0,1,.988-.23Zm.825-1.242a9.425,9.425,0,0,1,.818-.763A4.582,4.582,0,0,1,8.3,13.029a1.789,1.789,0,0,1,1.26.6,18.6,18.6,0,0,1-5.478,2.1c-.2.043-.4.069-.6.094s-.37.048-.55.086A6.657,6.657,0,0,0,4.333,14.747Zm5.407-.089a1.726,1.726,0,0,1-.831.961,4.56,4.56,0,0,1-1.371.451,15.326,15.326,0,0,1-4.376.236c.113-.006.226-.01.335-.014.135,0,.265-.009.386-.017l.459-.031c.528-.034,1.072-.07,1.608-.139a6.115,6.115,0,0,0,3.4-1.352,1.616,1.616,0,0,0,.435-.611,1.239,1.239,0,0,1-.047.515Zm-3.319-7.1a5.819,5.819,0,0,0,.839.488,5.885,5.885,0,0,0,.935.3,3.934,3.934,0,0,1,1.05.378,2.785,2.785,0,0,1,.792.779,3.86,3.86,0,0,1,.811,2.185,2.418,2.418,0,0,1-.265,1.262,3.421,3.421,0,0,0-1.271-2.747,6.6,6.6,0,0,0-.921-.57c-.2-.11-.41-.223-.6-.348A9.93,9.93,0,0,1,6.248,7.971a14.216,14.216,0,0,0-1.081-.987,2.085,2.085,0,0,1,.712.241c.187.1.365.22.543.337Zm-5.15,4.071c.006-.079.009-.159.012-.239a1.8,1.8,0,0,1,.082-.576,1.435,1.435,0,0,1,.826-.678l.094-.041a.908.908,0,0,0,.667-.752l.063-.22A1.942,1.942,0,0,1,3.323,8.4a1.009,1.009,0,0,1,.945-.412.315.315,0,0,0,.094,0c.126.383.249.766.379,1.148a3.727,3.727,0,0,0-1.453,4.039,1.778,1.778,0,0,0,.667,1.014l-.092.091c-.126.127-.25.249-.375.369a3.82,3.82,0,0,1-2.116-1.267C1.039,13.058.88,12.8.879,12.6a1.419,1.419,0,0,0,.392-.963Z" transform="translate(-0.148 -0.566)" fill="#6d6d6d"/><path d="M39.23,20.136a1.324,1.324,0,0,0-.877-.256.351.351,0,0,0-.256.183c-.186.364.856,2.671.867,2.692A12.413,12.413,0,0,0,40.506,25l.087.107a1.14,1.14,0,0,0,.837.541.832.832,0,0,0,.24-.037,1.052,1.052,0,0,0,.656-1.084A5.268,5.268,0,0,0,41.3,22.149a6.976,6.976,0,0,0-2.068-2.013Z" transform="translate(-25.995 -13.567)" fill="#6d6d6d"/></g></g></g></svg>