<?xml version="1.0" encoding="UTF-8"?><svg xmlns="http://www.w3.org/2000/svg" viewBox="0 0 96.27687 118.81116"><defs><style>.cls-1{isolation:isolate;}.cls-2{fill:#ffda73;mix-blend-mode:multiply;}.cls-2,.cls-3{stroke-width:0px;}.cls-3{fill:#6d6d6d;}</style></defs><g class="cls-1"><g id="_レイヤー_2"><g id="Object"><path class="cls-2" d="M71.885,61.44016c2.8052-1.3499,5.8948-1.9907,8.9703-2.4731,4.5591-.7152,9.4656-1.0555,13.563,1.0677.9738.5046,1.9948,1.3795,1.8436,2.4658-.1341.9628-1.1134,1.5375-1.9845,1.969-4.0091,1.9865-8.0449,3.9834-12.3433,5.2256-4.2984,1.2423-8.9193,1.7007-13.25.5732-6.8655-1.7883-.0046-7.2858,3.2009-8.8282Z"/><path class="cls-2" d="M64.3159,44.61986c-.5216-1.1087-1.1771-2.2149-2.2086-2.8764-1.0314-.6616-2.5242-.7411-3.4038.112-.639.6198-.8227,1.5572-1.0047,2.4285-.7387,3.5361-1.9611,6.972-2.4436,10.552-.5393,4.002,1.774,16.2481,7.851,10.1709,4.6742-4.6743,3.724-15.0422,1.2097-20.387Z"/><path class="cls-2" d="M22.9224,59.44366c-1.7566-.9663-3.5382-1.9426-5.484-2.4256-3.7226-.9239-7.8806.1532-10.6865,2.7682-.5567.5189-1.0975,1.3057-.7508,1.9832.1176.2298.3217.4012.5229.5628,5.7469,4.6126,13.7088,6.3252,20.844,4.4836,7.2033-1.8592-2.2468-6.1626-4.4456-7.3722Z"/><path class="cls-2" d="M61.2348,29.18076c.6993.0282,1.4244.1008,2.026.4585,1.4308.8507,1.5383,3.0177.6609,4.4323-.8774,1.4147-2.4208,2.252-3.8991,3.0173-4.5359,2.3481-9.1261,4.6193-13.8984,6.4523-2.4095.9254-9.1238,2.4931-7.8968-2.7062.755-3.1994,7.3364-6.7789,10.0001-8.2483,3.9732-2.1917,8.4336-3.5903,13.0073-3.4059Z"/><path class="cls-3" d="M25.1212,36.18066l.6657.0753c.7777.0906,1.5634.1822,2.28.1822.7294,0,1.384-.0986,1.8882-.3847,1.496,3.0435,2.4736,6.4896,2.9313,10.3216-.04-.0324-.082-.0668-.1209-.098-2.6181-2.1019-5.4802-3.582-8.5014-4.3993-3.4934-.9456-7.1457-.9548-10.574-.0315-2.5631.6901-4.4746,1.8403-5.8427,3.5137-.3685.4489-.4803,1.1034-.2849,1.6673.1668.4876.5497.8428,1.022.9487.7492.1689,1.9421.57,2.8114.8621.5373.1802.9567.3176,1.1095.3522,1.6469.3767,3.3285.6973,4.9937.9548,3.3836.5242,6.8281.8062,10.2319.8367.3766.0031.8082.0448,1.2622.0866.5984.0539,1.2297.1119,1.8545.1119.8164,0,1.6206-.0977,2.3209-.4306.0058-.0028.0098-.0064.0159-.0092.0574,3.129-.1836,6.4756-.7305,10.0365-.1471.9584-.3172,1.9185-.4954,2.8781-.9445-1.4549-2.8151-2.4849-4.2235-3.2506l-.6861-.3807c-3.4627-2.0042-7.2453-3.0496-10.9952-2.9621-2.9356.0519-5.0508.9843-6.4656,2.8532-.2343.3114-.5112.744-.5641,1.3252-.0855.9498.4418,1.7946,1.4475,2.3188,5.8957,3.0608,12.1984,3.6023,18.2936,4.1255.285.0245.6413.055,1.0239.055.4523,0,.9398-.043,1.3844-.1895-.4363,2.0183-.9038,4.0246-1.3661,5.9976-.273,1.1652-.5473,2.3405-.8166,3.5218-.533-.4422-1.0908-.832-1.6037-1.1857l-.2302-.1578v-.001c-5.4193-3.7418-12.2636-3.1779-17.4345,1.426-.2687.2393-.3948.5996-.3359.9538.0611.3542.2993.6525.6333.7889,2.2758.9344,3.4423,1.1634,4.2139,1.3161.1731.0336.3217.0621.4562.0967,1.8606.4764,3.5115.7797,5.0447.9253l.2094.0204c.8389.0814,2.0623.2005,3.3775.2005,1.6959,0,3.5346-.2104,4.9142-.9408-.6439,3.0641-1.2041,6.1663-1.543,9.2854-1.2865,11.8443,1.2461,22.0242,7.1335,28.6629.2056.2331.4925.3512.7796.3512.0858,0,.1693-.0243.2528-.0454.0527.0083.102.0281.1564.0281.057,0,.114-.0041.171-.0133.568-.0936.9528-.629.8591-1.197-.5782-3.5331-.0305-7.5467,1.6735-12.2697,2.0805-5.7735,5.1811-11.0492,9.2118-15.6806,1.4821-1.702,3.1169-3.3398,4.6986-4.9226,1.6553-1.6581,3.3653-3.3722,4.9349-5.1882,2.7992-3.246,5.1689-6.8341,7.0499-10.6797.2972.2565.6881.4642,1.1562.6046,3.3897,1.0241,6.9727.4214,10.0609-.2239,3.5587-.7441,7.1294-1.6704,10.6086-2.7524,2.388-.7431,4.8879-1.6154,6.8851-3.3703.7836-.6891,1.1175-1.4219.9955-2.1792-.0979-.6077-.5254-1.4159-2.0033-1.8231-2.6242-.7258-5.348-.6932-7.9071-.5476-2.8541.1598-7.1211.5324-11.2151,1.9268-1.7177.5854-3.6281,1.2408-5.3586,2.1473.3165-2.324-.0342-4.8963-.2541-6.5028-.4131-3.0313-1.1338-6.0158-2.1395-8.871-.3929-1.1217-.8978-2.3981-1.9076-3.3661-.1405-.1344-.5171-.4917-1.0931-.513-.7005-.0479-1.3742.3694-1.6328,1.5309l-1.3396,5.8936c-.4029,1.7813-.8204,3.6216-.8386,5.5261,0,.0835,0,8.4251,2.8806,10.7602.4076.3309.8582.5367,1.3337.617-1.8212,3.7687-4.1215,7.2879-6.8609,10.4607-1.5186,1.7589-3.2024,3.4456-4.8309,5.0773-1.6063,1.6082-3.2654,3.2714-4.7943,5.0273-4.2019,4.8258-7.4326,10.3245-9.6027,16.3423-1.3779,3.8213-2.0433,7.2374-2.0144,10.3565-5.7321-8.1921-5.6275-18.9536-4.9766-24.9419.1103-1.0162.2512-2.0327.4053-3.0487.2995.0908.618.1243.9158.1243.3665,0,.7005-.0448.9243-.0754.1325-.0172.2526-.0345.3522-.0406,2.0827-.1222,4.1754-.4439,6.2194-.9558,4.1223-1.0322,8.0719-2.8226,11.7444-5.3226.2077-.1415.5517-.3787.7757-.8163.57-1.1055-.0857-2.3758-1.0261-3.0599-2.2028-1.6031-5.0834-2.0439-8.1126-1.2377-2.5935.6901-4.9388,2.1264-7.2066,3.5138-1.2482.7635-2.5319,1.5632-3.6664,2.7189.5354-2.6271,1.1456-5.2343,1.7466-7.7982.3875-1.6535.7751-3.3333,1.1495-5.0227,1.0992.7211,2.7286.9317,4.1617.9317,1.3194,0,2.4634-.1699,2.8604-.2625,3.0007-.6994,5.8833-2.4542,8.308-4.0787,2.8502-1.9106,5.7512-4.2009,7.6525-7.9824.2952-.5904.7146-1.7141.1895-2.6088-.3441-.5792-.908-.7207-1.1218-.7746-2.6281-.6566-5.5109-.7146-9.0633-.1833-1.8708.28-4.0614.741-6.1176,2.0369-1.8445,1.1614-3.7503,3.0728-5.3949,5.3241.0161-.1031.0372-.2059.0531-.309.7883-5.1294.9604-9.845.5338-14.1362.2852.063.5802.0984.8852.0984,1.2886,0,2.7116-.4936,3.9045-.9069.3318-.115.6455-.224.9304-.3125,7.3389-2.274,14.5254-5.5058,21.3492-9.6028.2788-.1649.8571-.5079,1.1138-1.2245.1931-.5477.1422-1.139-.1428-1.6664-.3458-.6371-1.0422-1.1634-1.7772-1.3405-1.7854-.4316-3.5381-.002-5.0874.3787-4.0185.9863-8.1737,2.0062-12.0924,3.9962-3.1317,1.5894-7.1818,4.2536-9.3959,8.1262-.6256-3.8984-1.7993-7.4041-3.5039-10.5101.4194-1.3191,1.6866-2.6031,2.9263-3.8477.8308-.8336,1.6877-1.6958,2.329-2.6047,2.2537-3.2044,4.0166-6.8036,5.572-9.9784,2.5874-5.2809,4.7902-10.4568,3.359-15.7143-.0896-.3338-.3663-1.3477-1.3131-1.7212-.6006-.2341-1.1786-.1018-1.6184.0407-1.5065.4896-10.7971,7.8651-12.4706,9.2586-7.8107,6.4981-3.8904,11.3049-2.0694,20.847-1.7327-1.1931-3.8961-1.9034-5.9177-2.4779-4.4114-1.2531-8.9534-1.761-13.4973-1.5279-3.0616.1618-7.0113.9782-8.43,3.9515-.1447.3043-.1345.6606.0304.9558.5252.9446,24.7551,4.9805,24.9894,5.005ZM28.9442,65.60786c-5.8913-.5059-11.9846-1.029-17.5096-3.8985-.2506-.1303-.3278-.2474-.3339-.282.002-.0142.0163-.0773.1505-.2565,1.0159-1.3405,2.5531-1.9838,4.8392-2.0246,3.3775-.058,6.7813.8673,9.9142,2.6812.2139.1242.4623.2595.7351.4081,1.2193.6637,3.0638,1.6663,3.5991,2.7524.171.3451.2017.5334.2322.567-.1549.0794-.5661.1456-1.6268.0529ZM64.9936,67.18266c-.0115-.0434-.02-.0878-.0369-.1289,7.9396-3.4238,16.6163-5.292,25.2695-5.4309l-25.2326,5.5598ZM84.8204,64.48006c-3.416,1.0627-6.9216,1.9727-10.417,2.7035-2.7124.5663-5.8195,1.0863-8.6384.3627l24.3344-5.3613c-1.5608,1.0751-3.4495,1.7264-5.279,2.2951ZM72.9031,62.43816c2.9437-1.0026,6.2213-1.5594,10.6247-1.8067,2.3586-.1285,4.8676-.163,7.1903.4657-8.7022.0768-17.4215,1.887-25.4297,5.2576.1416-.1516.2776-.3081.3977-.4778,1.898-1.6171,4.7603-2.6011,7.217-3.4388ZM64.542,56.58126c.4179,3.057.6322,6.2069-.4276,7.8891-.2163.195-.4242.3972-.62.6103.5273-5.3188.3211-10.6469-.618-15.8995.7463,2.3484,1.3091,4.791,1.6656,7.4001ZM59.7153,56.34206c.0142-1.6806.407-3.411.7877-5.0885l1.1747-5.121c.0279.0455.0464.0981.0729.1446,1.479,6.3198,1.8678,12.7761,1.1777,19.2141-.1383.0565-.2819.1066-.4383.1411-.2606.058-.4499.005-.6657-.168-1.5208-1.2337-2.1333-6.6377-2.109-9.1223ZM45.0759,38.23676c3.7032-1.8821,7.74-2.8725,11.6448-3.8303,1.0035-.2464,2.0316-.4988,3.0148-.4988.3705,0,.7329.0356,1.0851.1211.2017.0489.4175.2392.4601.2565-.0224.0285-.0996.0804-.2319.1588-6.6856,4.0146-13.7172,7.1772-20.8995,9.4023-.3034.0947-.6393.2107-.9934.3339-.6618.229-1.4578.5048-2.1885.6636,2.0357-3.0628,5.4354-5.2502,8.1085-6.6071ZM48.1519,78.98206c-3.4669,2.3594-7.1922,4.0491-11.0746,5.0222-1.9198.4794-3.8822.7818-5.8346.8968-.0785.0045-.1849.0197-.2806.0308,5.4247-1.4477,11.2623-3.2403,15.7793-7.0442.3889.1747.7644.3743,1.1092.6251.2321.1689.3726.4173.3013.4693ZM31.4361,83.41496c.9833-1.0495,2.1599-1.7702,3.4079-2.5336,2.1417-1.31,4.3567-2.6648,6.6571-3.2766.8101-.2158,1.6022-.3226,2.3614-.3226.8255,0,1.6061.1387,2.3333.3884-4.4926,3.6841-10.3097,5.4158-15.6812,6.8412.2232-.304.5191-.6681.9195-1.0958l.002-.001Z"/></g></g></g></svg>