<?xml version="1.0" encoding="UTF-8"?><svg xmlns="http://www.w3.org/2000/svg" viewBox="0 0 75.34097 110.61025"><defs><style>.cls-1{isolation:isolate;}.cls-2{fill:#ffda73;mix-blend-mode:multiply;}.cls-2,.cls-3{stroke-width:0px;}.cls-3{fill:#6d6d6d;}</style></defs><g class="cls-1"><g id="_レイヤー_2"><g id="Object"><path class="cls-2" d="M12.47769,90.66881c.769,1.1635,2.3528,1.579,3.7201,1.3045s2.5517-1.1136,3.6051-2.0275c3.1357-2.7202,5.5117-6.3072,6.7932-10.2556.2414-.7439.4457-1.5437.2461-2.2999-.2505-.9485-1.1163-1.6464-2.0594-1.9166s-1.9535-.1727-2.9133.0305c-5.6923,1.2047-13.6284,8.7548-9.3918,15.1646Z"/><path class="cls-2" d="M11.89869,67.34081c3.3722.164,6.7385-.6208,9.877-1.865,1.4314-.5674,2.9947-1.4351,3.3003-2.9442.1987-.9812-.2083-1.9891-.7555-2.8274-1.3429-2.0576-3.5033-3.439-5.7169-4.5054-2.257-1.0874-4.6393-1.9144-7.0846-2.4594C7.20049,51.77681-.18631,52.90561.00359,58.79621c.1778,5.515,7.305,8.3215,11.8951,8.5446Z"/><path class="cls-2" d="M22.80129,22.00951c1.6759.9407,3.4589,1.6904,5.3035,2.23,1.8176.5316,3.7803.8552,5.5914.3023,1.8112-.5529,3.3993-2.1931,3.36-4.0864-.0387-1.8649-1.5276-3.3382-2.9278-4.5705-2.3594-2.0764-4.8392-4.1361-7.7992-5.1926-3.0878-1.1021-8.3812-1.1453-9.386,2.8367-.9423,3.7343,3.0588,6.9091,5.8581,8.4805Z"/><path class="cls-2" d="M37.45409,16.65881c.161,1.2447.415,2.5128,1.0874,3.5725.6724,1.0598,1.844,1.8799,3.0977,1.8199,1.3857-.0662,2.4931-1.1288,3.4456-2.1375,1.7361-1.8387,3.4383-3.7381,4.7191-5.9185s2.1268-4.6789,2.0138-7.2052c-.0658-1.4698-.4714-2.9526-1.3451-4.1364s-2.2503-2.0353-3.7207-2.0876c-.9078-.0323-1.8028.2315-2.6378.5889-6.6565,2.8492-7.5064,8.9621-6.66,15.5039Z"/><path class="cls-3" d="M48.95619,86.97031c.0108-.2157.0087-.4328.0096-.6495.9804-6.4721,1.052-13.5088.1378-20.93-.5316-4.3193-1.3456-8.6106-2.2958-12.8622,1.0674-4.2961,2.9834-8.3959,5.5544-12.0314,1.6973.0581,3.4611-.0205,5.1915-.1157-.1622.7172.0692,1.6117.2768,2.3825.7131,2.6573,1.7387,5.6977,3.9476,8.1033.0004.0021.0029.0045.0055.0073.1082.1158.3606.3861.7751.4682.17.0351.3379.0365.4961.0073.5446-.0998.9942-.5599,1.1462-1.2317.2391-1.0661.0686-2.1423-.0688-3.0038-.1636-1.0382-.3502-2.2135-.813-3.3261-.3861-.9237-1.2718-2.5422-2.4034-3.5676,1.0347-.0317,2.056-.0367,3.029.017.0188.0012.0363-.0035.0551-.0034.1026.3798.343.8072.8165,1.2571,1.5909,1.5078,4.7282,1.3017,6.8059,1.1648l.6733-.0417c.2502-.0129.5621-.0276.8965-.0891.3544-.065.7344-.1823,1.0871-.4033.8339-.5203,1.3816-1.6639.8541-2.6775-.2365-.4546-.6093-.7153-.8561-.8872-.9835-.6899-2.2108-1.5471-3.6942-1.7128-.7836-.0861-1.546.0343-2.1988.1541l.188,1.025-.2841-1.0075c-1.3329.2546-2.8429.5869-3.6895,1.3496-.1559-.1121-.3327-.1974-.5388-.2086-2.0097-.1126-4.1426.0057-6.2058.1203-1.3035.0723-2.6324.1399-3.9259.154,1.9305-2.3573,4.1534-4.4678,6.6073-6.2472.8244.4402,1.8386.518,2.8658.3294.6147-.1126,1.2331-.3182,1.816-.5929,1.4706-.6942,2.7586-1.8981,3.7282-3.4832,2.0846-3.4055,2.1911-7.8677.2714-11.3705-.3348-.607-.8916-1.4528-1.8508-1.7849-.9135-.32-1.8083-.0533-2.3976.1757-2.8971,1.1205-5.2241,3.9037-6.075,7.2638-.455,1.7935-.8934,5.4285.2424,7.9081-3.1507,2.3143-5.9342,5.147-8.238,8.3333-.0039.0075-.0108.0127-.0146.0205-2.1056,2.9164-3.8071,6.1243-5.0195,9.4977-.9549-3.9188-1.9936-7.7996-3.0236-11.6241-1.2984-4.8199-2.6224-9.7832-3.7529-14.7323.0734.0131.1447.0323.2195.0416,6.6048.7907,11.0114-8.0537,12.4263-12.8418.3015-1.0188.5574-2.1173.4051-3.2411-.1913-1.4261-1.0831-2.6204-2.272-3.0427-.1174-.0417-.2418-.0767-.3662-.1119-.0698-.0194-.161-.0429-.1981-.0195-.0018-.0547.0003-.1223.0013-.1731.0017-.2052.001-.4122-.0288-.6085C49.06649.75891,47.69669-.02889,46.49139.00081c-1.0627.0292-1.9579.5423-2.6876,1.0437-3.1665,2.1673-5.5611,5.3717-6.746,9.0219-.7465,2.3052-.9837,4.9834-.6655,7.4284-.2055-.2623-.4046-.5239-.5936-.7759-.5266-.693-1.0236-1.3489-1.5252-1.8602-2.6154-2.6695-5.3796-4.7176-8.2163-6.0888-1.0584-.5117-2.4723-1.0998-4.0101-1.1106-1.72-.0114-3.296.762-4.1126,2.0192-.7878,1.2114-.8999,2.8681-.3087,4.5449.5754,1.6247,1.6723,3.125,3.4537,4.723,2.6143,2.3362,5.7641,4.1167,9.1077,5.1488,1.2658.3899,2.8737.7716,4.4976.4738.2442-.045.488-.104.7324-.1822.7669-.2444,1.3599-.5894,1.821-.9957,1.099,4.7178,2.356,9.428,3.5882,14.0085,2.4742,9.1881,5.0327,18.6887,6.2087,28.2466.6011,4.8816.7573,9.5827.5132,14.06-1.2582-2.9321-3.3182-5.7784-6.0749-8.2969-1.9791-1.8087-4.1638-3.3664-6.3871-4.8187.8527-.4721,1.6875-1.5687,2.6374-3.0747.9452-1.4929,1.5985-3.076,2.2416-4.7038.2669-.6773.8888-2.263-.0167-3.5207-.2816-.3955-.6753-.6688-1.1019-.7719-.8032-.192-1.5711.1685-2.2875,1.0697l.0002.001c-1.2784,1.6172-3.0635,4.1054-3.8092,7.0241l-.054.2023c-.1463.5424-.353,1.3104-.3322,2.0437-.2942-.1835-.5888-.3671-.8817-.5491-.9969-.6194-1.9898-1.2436-2.9756-1.8773.4382-.3193.7583-.7966,1.0309-1.209.582-.8777.9361-1.9372,1.0274-3.0644.1262-1.5796-.2369-3.2879-1.1109-5.2199-1.068-2.3581-2.627-4.5383-4.5095-6.304-1.1633-1.0949-2.4534-1.3466-3.3879-.6411-.4557.3475-.6689.8212-.8179,1.2387-.9403,2.6478-.6953,5.7544.6923,8.7492.2421.5218.6388,1.3268,1.1566,2.2074-2.909-1.8243-6.0095-3.3235-9.2544-4.4578-1.6497-.5759-3.6052-1.1485-5.6132-1.0263-2.3157.137-4.3031,1.2292-5.3462,2.9108-1.3665,2.1973-.995,5.3052.9003,7.5581,1.4045,1.6652,3.4955,2.8526,6.3888,3.6297,3.3263.8925,6.8812,1.0899,10.2835.5692.1931-.0304.3839-.0622.5702-.0963,2.0283-.3721,3.6473-1.0126,4.9385-1.9513.5254-.3825,1.099-.858,1.4548-1.442,1.1468.7456,2.3072,1.4738,3.4711,2.1972,2.7563,1.7122,5.5859,3.4774,8.1267,5.536-4.7788-.2059-9.639,1.2765-13.9336,2.8756-2.6142-.6648-6.2978,1.8438-8.0537,3.0427l-.1492.1009.0002.0009c-1.8343,1.2493-3.0487,2.4935-3.8205,3.9164-1.043,1.9185-1.1651,4.1866-.3193,5.92,1.229,2.5243,4.116,3.4477,6.5088,3.0086.2643-.0485.5235-.1137.7716-.1944,2.7826-.9089,4.5553-3.3514,5.552-5.2409,1.501-2.8459,2.8906-6.6194,1.454-9.0429.6652-.2365,1.3414-.4653,2.0266-.683-.0756.2319-.1438.4747-.1995.7374-.345,1.6166-.2199,3.2462-.0951,4.3328.3017,2.6033,1.1813,4.2728,2.6894,5.1032.5753.3156,1.1727.4245,1.7054.3267.2783-.051.5399-.159.7726-.3239.3807-.2716.5973-.6364.7585-.9535,1.1031-2.1665,1.3673-4.822.7246-7.287-.1575-.6036-.5976-2.0766-1.3802-3.1901,2.5844-.454,5.1913-.5516,7.6856-.0072,3.6176,3.7224,5.6471,8.0329,5.6791,12.1003-1.3759,8.9388-4.5622,16.7181-9.462,22.7506-.3631.4465-.2945,1.1024.1529,1.4654.2458.2.5565.2693.8449.2165.2363-.0433.4577-.1679.6216-.3686,4.9544-6.1008,8.2429-13.8739,9.7545-22.7767.0861-.1426.1507-.2997.1592-.4776ZM63.32689,49.47171l-.7819.6908.7671-.7035c.0073.0059.0124.0111.0148.0127ZM61.39649,44.59041c.3667.8818.5232,1.8816.676,2.8501.026.1641.0523.33.0764.4951-1.1469-1.795-1.8059-3.8526-2.3065-5.7126-.0132-.0493-.0296-.1166-.0501-.1947.6207.6759,1.247,1.7096,1.6042,2.5621ZM67.16869,27.35001c-.5289.8628-1.4491,2.0292-2.8397,2.685-.0611.0283-.8953.4135-1.7259.4858,1.6115-1.5681,2.9079-3.7866,3.8563-6.6422.5599-1.6846.9643-3.4189,1.2196-5.176,1.213,2.7239,1.0422,6.1079-.5103,8.6474ZM60.91239,23.23541s-.0002-.0011.0018-.0013c.6877-2.7166,2.5275-4.951,4.8042-5.8314.2011-.0771.3797-.1306.5318-.1586.1802-.0328.3235-.0303.4318.0068.2259.0783.438.3728.5775.5993-.2352,1.992-.6613,3.9605-1.2938,5.8645-.9917,2.9859-2.3656,5.2513-4.0829,6.7685-.3435-.0792-.6398-.2616-.8151-.6138-.7981-1.6088-.6826-4.5555-.1553-6.634ZM70.35269,38.91741c.955.1062,1.8976.7654,2.7311,1.3483.0596.0429.1715.1227.0928.0887-.2081.129-.5692.1582-.9876.1789l-.704.0433c-1.5052.0992-4.305.2828-5.2321-.5966-.0699-.0648-.1193-.1198-.1541-.1632.2388-.1648.8655-.4381,2.5094-.7397.016-.003.034-.0063.052-.0097,0,0,.0981-.0179.1002-.0183.5306-.0973,1.0915-.1877,1.5923-.1317ZM49.16889,5.00591c.4451.1582.8185.7159.9051,1.3573.1045.7724-.1212,1.6294-.3409,2.3723-1.3647,4.6246-5.2485,11.6969-9.9568,11.3657.7541-.7137,1.443-1.4952,2.1124-2.2612,1.0075-1.1536,2.051-2.3478,2.8458-3.7126.8591-1.4772,1.4069-3.1278,1.9379-4.7238.5178-1.564,1.0667-3.1612,1.896-4.5835.132.0468.2582.0847.3682.1155l.2323.0703ZM39.04279,10.71031l-.0002-.0011c1.0414-3.214,3.1502-6.0359,5.9376-7.9455.4799-.3291,1.0403-.6699,1.5622-.6797.3174-.0076.6462.194.6699.3572.0136.0855.0074.1758.0052.2651-.0052.3444-.0112.8641.3149,1.3557.1583.2381.3546.3956.5561.5209-.8437,1.4579-1.3872,3.0773-1.912,4.6561-.521,1.5713-1.0592,3.1955-1.8919,4.6253-.7693,1.3229-1.7957,2.4976-2.7899,3.633-.7454.8538-1.518,1.7253-2.3707,2.4914-.1367-.0505-.2733-.1152-.4097-.1941.0181-.8601-.1101-1.6376-.1914-2.137-.3708-2.2584-.1813-4.7904.5199-6.9473ZM30.80279,22.10311c-3.0606-.9444-5.9425-2.5734-8.332-4.7108-1.5108-1.3537-2.4253-2.5811-2.8778-3.863-.3696-1.0446-.3365-2.0598.0897-2.7154.3326-.5113.9627-.8784,1.6976-1.0132.2102-.0386.4301-.0582.6519-.0565,1.1211.0075,2.2563.4864,3.1192.9026,2.6188,1.2663,5.1854,3.1737,7.6346,5.6706.4076.4168.8663,1.0219,1.3501,1.6618.7202.9472,1.4878,1.9614,2.3644,2.7566-.2292.8606-.7821,1.3668-1.7168,1.6646-1.322.4205-2.8183.0605-3.9809-.2973ZM34.70859,63.36121l.061-.2315c.6485-2.5344,2.2652-4.7787,3.4259-6.248.0523-.0645.0963-.118.1361-.1606.0529.4126-.2095,1.0805-.3071,1.3272-.603,1.5306-1.2146,3.0139-2.1182,4.4402-.7198,1.1422-1.1894,1.7187-1.447,2.0072.0362-.2766.1197-.6564.2493-1.1345ZM15.95069,63.00251c-3.7792-.4616-7.3723-1.0711-9.8146-3.4401-.4553-.4399-1.4251-1.5289-1.4594-2.8214,1.2329.9662,2.9789,1.571,3.5307,1.747,5.5228,1.7633,11.4829,3.3833,16.5323,4.4957-2.9386.7359-6.1512.3391-8.789.0188ZM23.32349,55.10651c-1.1405-2.4598-1.3657-5.0751-.6187-7.1744.0504-.1427.0843-.2172.0815-.2436.1186.026.3969.1549.7317.4682,1.6849,1.5804,3.08,3.5319,4.0365,5.6436.7246,1.6026,1.0301,2.9745.931,4.1943-.0606.7644-.3039,1.5024-.6883,2.0811-.1778.2716-.3163.4648-.4117.5764-.0504-.0269-.1157-.0666-.1985-.123-1.8246-1.2362-3.4185-4.4634-3.8635-5.4226ZM7.14469,54.87251c.2283-.0417.4631-.0705.7007-.0838,1.6354-.1004,3.2736.3793,4.8016.9123,3.9147,1.3692,7.6152,3.2858,10.9967,5.6976.3549.2527,1.0908.7788,1.3935,1.1133-5.0753-1.1105-11.09-2.739-16.6725-4.5206-1.1901-.3794-2.7676-1.0836-3.6802-1.9304.6174-.5877,1.4837-1.0092,2.4602-1.1884ZM19.63039,65.31301c-3.1184.478-6.3782.2977-9.4262-.5216-2.4707-.6623-4.2151-1.6307-5.3343-2.9588-1.1167-1.3258-1.7241-3.5087-.7255-5.116.0043-.0067.0112-.0122.0155-.0189.0134,1.0841.5808,2.2371,1.6145,3.2396,2.558,2.481,6.2437,3.1099,10.1138,3.5816,2.4454.2988,5.3817.6562,8.177.1434.0636-.0118.1265-.0292.19-.0418-.0103.0075-.0176.0138-.0282.0213-1.1321.8236-2.6643,1.3736-4.5966,1.6712ZM32.88169,77.78311c.5161,1.9782.311,4.0981-.5656,5.8184-.0468.0946-.0784.1481-.0809.1682-.059-.0059-.1632-.0322-.2897-.1011-.8748-.4811-1.4047-1.632-1.6239-3.5156-.1742-1.5133-.1555-2.6415.0613-3.6593.1293-.6043.3122-1.0508.5628-1.3658.2421-.3051.3853-.3594.3822-.365.3365.0851,1.1077,1.2993,1.5538,3.0202ZM14.38109,82.54961c.6081-1.1195,1.6143-2.1331,3.1633-3.1893l.1509-.1021c2.6471-1.8062,4.3185-2.5558,5.3698-2.7487.7989-.1465,1.2405.027,1.4813.3017.0194.0221.029.0544.0473.0779.0669,1.1059-.2249,2.1283-.5257,2.8538-.5194,1.2636-1.3598,2.403-2.111,3.351-1.0184,1.2858-2.2749,2.7178-3.8713,3.5944-1.0718.5878-2.2107.8575-3.2658.8035-.2842-.2613-.5358-.5625-.7148-.93-.5546-1.1391-.4495-2.6756.276-4.0122ZM18.86689,88.30651c-1.0364.3413-2.331.2497-3.3587-.3111.2276-.0163.4558-.0352.6858-.0773.7188-.1318,1.4455-.3902,2.1411-.7724,1.6793-.922,2.9788-2.401,4.0292-3.7271.7748-.9772,1.6415-2.1536,2.1853-3.4765.1844-.4434.3622-.9934.4719-1.6029.0428,1.395-.5633,3.3908-1.7998,5.7366-.8171,1.5481-2.2361,3.5386-4.3548,4.2307Z"/></g></g></g></svg>