<?xml version="1.0" encoding="UTF-8"?><svg xmlns="http://www.w3.org/2000/svg" viewBox="0 0 108.08608 108.33078"><defs><style>.cls-1{isolation:isolate;}.cls-2{fill:#ffda73;mix-blend-mode:multiply;}.cls-2,.cls-3{stroke-width:0px;}.cls-3{fill:#6d6d6d;}</style></defs><g class="cls-1"><g id="_レイヤー_2"><g id="Object"><path class="cls-2" d="M59.8464,36.78767c1.1773,1.0481,2.9911.7241,4.5191.3374,5.7333-1.4513,11.4666-2.9025,17.1999-4.3537,5.6068-1.4192,11.2522-2.8519,16.4949-5.2943,1.3317-.6204,2.8153-1.576,2.8554-3.0446.0228-.835-.4603-1.6107-1.0648-2.1871-2.0509-1.9553-5.2396-1.9834-8.0508-1.6275-6.558.8301-12.8423,3.0738-19.0655,5.3026-2.3968.8584-18.1472,6.1857-12.8882,10.8672Z"/><path class="cls-2" d="M3.9767,13.50387c1.0633,6.8865,4.5127,13.3815,9.6227,18.1189,1.4743,1.3668,3.3668,2.6653,5.3377,2.2687.2705-.0544.5541-.1543.7112-.3811.1233-.1779.1479-.4045.1599-.6206.13-2.3445-.7711-4.6127-1.7186-6.7612-1.1656-2.6429-2.4269-5.2438-3.7804-7.7956-1.4968-2.8221-3.163-5.7264-5.5749-7.8759-2.9735-2.6498-5.3348-.6915-4.7576,3.0468Z"/><path class="cls-3" d="M61.399,37.93137c.2577-.0375.5381-.1041.8361-.205l18.1505-6.1384c6.0196-2.0362,12.2446-4.1424,17.9485-7.2867,1.0056-.5548,2.0642-1.2961,2.2728-2.5907.2769-1.7302-1.2515-3.1155-2.9029-3.5912-2.4477-.7054-5.0529-.172-7.1415.2615-8.0637,1.6589-16.4009,3.3751-23.8843,7.3667-4.1938,2.2396-6.8078,4.2956-7.989,6.286-.5476.922-.7736,2.0015-.6997,2.9841-3.9271,2.4057-7.5803,5.2348-10.9101,8.4022,1.9399-2.1543,2.2518-7.8215,2.255-7.8979.2346-5.3294-2.2773-10.4474-4.2972-14.5601-.2052-.4207-.5804-.6942-1.1314-.5646-.4603.0875-.8056.4731-.8423.9413l-.5912,7.4735c-.0416.5193-.1192,1.1879-.2098,1.9509-.6084,5.2204-.9925,10.0891.9704,12.3102.9384,1.0628,1.7991,1.2523,2.4438,1.1585.1451-.0211.28-.0562.4012-.0995.2982-.1054.564-.2957.811-.5284-1.1893,1.1404-2.3368,2.3229-3.4382,3.5482-.2758.2227-.5075.4868-.6967.7878-4.7653,5.4716-8.6462,11.7119-11.3829,18.448-.0728.1794-.1363.3622-.2075.5422.1076-12.608-3.5935-25.7167-10.1862-34.9583.4227-.3145.738-.7352.8969-1.2434.3508-1.124-.1742-2.2017-.4861-2.8464L13.226,11.12027c-1.4666-3.0103-4.7211-4.9756-6.8384-4.1152-.7751.3145-2.4402,1.4681-1.1549,5.3801,1.3795,4.2069,3.67,8.1999,5.8838,12.0612.4551.7947.9072,1.5826,1.346,2.3653.9906,1.7589,2.2203,3.9478,4.3547,5.1708.622.3555,1.3586.5505,2.07.5746.0263.0523.0374.109.0733.1577,8.2748,11.2597,11.9901,28.8326,9.2492,43.7383-2.3217,10.1998-2.2192,20.9403.3867,31.0941.1333.5206.6378.8484,1.1575.7728.0383-.0056.0744-.0129.1119-.0225.5574-.1428.8924-.711.7495-1.2683-2.5263-9.8488-2.6227-20.2677-.363-30.1591.0006-.0033.0027-.0059.0033-.0092.0013-.0061.0017-.0124.003-.0185.7544-3.2956,1.7703-6.5326,3.0453-9.6702,2.3532-5.7939,5.5844-11.2075,9.5092-16.0602.6618.9755,1.7971,1.7554,2.6908,2.3653.4912.3359.9657.6557,1.3271.9775,1.0771.9542,2.4,1.493,3.6675,1.9329,6.1122,2.1214,12.6491,2.7368,19.0372,1.8073.691-.1006,1.3794-.2192,2.0653-.355.3738-.075.6777-.3476.7912-.7128.1136-.3642.0188-.7608-.2473-1.0348-3.5706-3.6844-8.2683-5.7143-13.5943-7.805-2.2254-.8725-4.7474-1.8612-7.3983-2.2377-.5267-.0754-2.0228-.2517-3.6399-.1507,3.3883-3.3656,7.1519-6.3529,11.2157-8.8797.3413.4043,1.1756,1.1296,2.6709.9121ZM60.4815,33.09767c.9683-1.6304,3.3833-3.4846,7.178-5.5118,7.2163-3.8489,15.4038-5.534,23.3234-7.1636.7093-.1454,1.4522-.2988,2.2056-.4084,1.3315-.1938,2.6893-.2504,3.9389.1088.7344.211,1.498.7798,1.4197,1.2582-.066.4107-.686.8003-1.2194,1.0939-5.5398,3.0556-11.6769,5.1316-17.6099,7.1388l-18.1486,6.138c-.6258.2094-1.0454.1809-1.2591-.0852-.3688-.4555-.3739-1.6511.1714-2.5687ZM14.2806,25.79017c-.4417-.7875-.8964-1.5802-1.3565-2.3804-2.1616-3.7711-4.3972-7.6703-5.7124-11.6747-.559-1.7074-.414-2.647-.041-2.799.787-.3017,3.0582.7852,4.1802,3.0968l8.1621,16.7606c.1787.3659.4759.9789.3705,1.3151-.0179.0613-.0572.1873-.2964.2818-.4562.1734-1.2056.0859-1.7352-.2176-1.6338-.9359-2.7079-2.8471-3.5713-4.3826Z"/><path class="cls-3" d="M17.5748,48.17377c1.3854.6995,3.3305,1.6816,4.8677,1.4579.4047-.0589.783-.2024,1.1143-.4563.9087-.6969,1.0314-1.4523.9754-1.9636-.163-1.474-1.9245-2.4108-3.7163-3.2445l-.4176-.1974c-4.2461-2.1337-8.9463-3.4031-13.5955-3.6709-.5121-.0283-.9515.303-1.0722.7896-.1113.4513-.1861,1.5896,1.5451,2.4043l9.7755,4.6197.5236.2612Z"/><path class="cls-3" d="M28.6459,42.21587c.0301-.0044.0623-.0101.0941-.0178,3.7546-.9043,5.1047-5.8344,5.7924-9.4637.4856-2.5578.8356-5.171,1.0379-7.7679.1148-1.4722-.4277-2.5144-1.4508-2.7883-.4967-.1335-1.0215.1198-1.2277.5973-.2883.6755-.6785,1.5141-1.117,2.4604-2.2886,4.9269-5.7456,12.3719-4.2539,16.3177.1741.4602.6456.732,1.125.6623Z"/><path class="cls-3" d="M3.2971,6.47867c.256-.0373.5092-.107.753-.2124.9777-.4211,1.7342-1.3725,1.9744-2.4783.2296-1.0373-.0096-2.0877-.6415-2.8104C4.6971.19477,3.749-.14343,2.7803.05617,1.6177.29417.5737,1.26387.1793,2.46917l.0002.001C-.193,3.61477.0231,4.81757.7455,5.61047c.6335.6917,1.609,1.0054,2.5516.8682ZM2.1619,3.11567c.158-.4838.6134-.9306,1.035-1.0166.1757-.0359.3679-.0309.6166.2507.19.2182.259.6062.1733.9931-.0983.4556-.3966.8518-.7624,1.0089-.3272.1412-.7408.0698-.939-.1473-.208-.2268-.2587-.6751-.1235-1.0888Z"/><path class="cls-3" d="M105.6337,15.46787c-1.1877-.1173-2.4681.5-3.2018,1.5367-.6944.9826-.8427,2.1963-.3869,3.1647.5046,1.0797,1.7239,1.7406,2.9636,1.6065.0364-.0033.0728-.0086.109-.0138,1.0173-.1481,1.971-.8186,2.5112-1.7726.5215-.9255.6019-1.9987.2157-2.8714-.4223-.9507-1.2278-1.5524-2.2108-1.6501ZM105.813,18.96377c-.2307.4069-.6766.6796-1.0277.7399-.3446.0368-.7275-.1502-.8534-.4199-.1309-.2792-.0493-.7211.2018-1.0745.2953-.4163.8579-.706,1.2936-.6665.1671.0168.3614.0801.5116.4203.1168.2649.0691.6576-.1259,1.0007Z"/></g></g></g></svg>