<?xml version="1.0" encoding="UTF-8"?><svg xmlns="http://www.w3.org/2000/svg" viewBox="0 0 61.51631 112.96115"><defs><style>.cls-1{isolation:isolate;}.cls-2{fill:#ffda73;mix-blend-mode:multiply;}.cls-2,.cls-3{stroke-width:0px;}.cls-3{fill:#6d6d6d;}</style></defs><g class="cls-1"><g id="_レイヤー_2"><g id="Object"><path class="cls-2" d="M6.76847,78.07637c.3912.8793,1.256,1.4796,2.1764,1.7607.9204.2812,1.9009.2829,2.8627.2476,3.2558-.1192,6.799-.7965,8.8922-3.2932.7465-.8905,1.2426-2.2488.545-3.1781-.449-.5981-1.2399-.8056-1.9719-.9587-2.1785-.4556-4.4287-.7726-6.6252-.4137-2.2542.3682-7.2559,2.7411-5.8792,5.8354Z"/><path class="cls-2" d="M9.35697,66.02097c1.2811-.2145,2.7243-.6175,3.2876-1.7878.5717-1.188-.1022-2.6813-1.1835-3.4356s-2.4522-.9368-3.7673-1.0297c-1.487-.1049-3.0027-.1207-4.4438.2604-2.6908.7117-4.7467,3.0056-1.8252,5.0625,2.2543,1.5871,5.3605,1.3609,7.9322.9302Z"/><path class="cls-2" d="M8.08747,47.18557c.1169,1.1846.9293,2.3909,2.1091,2.5489.6729.0901,1.3609-.1745,1.8838-.6076s.8968-1.0213,1.1869-1.6351c.5158-1.0915.7911-2.2958.8007-3.503.0056-.7114-.0883-1.4482-.4574-2.0564-.369-.6082-1.0637-1.0583-1.7697-.9705-.5509.0685-1.0127.4362-1.4284.8042-1.5892,1.407-2.5451,3.1875-2.325,5.4195Z"/><path class="cls-2" d="M25.46187,58.21847c.8266.6188,1.9236.7092,2.9557.7406,2.2532.0686,4.7029-.1051,6.413-1.5739.4448-.382.8289-.8521,1.0261-1.4042.4084-1.1438-.0759-2.4729-.9591-3.3065-.8833-.8335-2.0941-1.2377-3.2955-1.4149-1.3269-.1958-2.7163-.1366-3.9593.3673-2.1874.8868-4.7399,4.6762-2.1809,6.5916Z"/><path class="cls-2" d="M36.74467,46.74017c.1958.4195.4773.8298.9006,1.0173.5911.262,1.276.0235,1.8611-.2514,1.1606-.5452,2.2528-1.2359,3.2429-2.0507.4643-.3821.9133-.8001,1.2145-1.3205.5463-.944.542-2.0965.5225-3.187-.0175-.9832-.0587-2.0387-.6487-2.8254-.7771-1.0363-2.3205-1.2531-3.5332-.7979-3.3438,1.2552-5.025,6.2754-3.5597,9.4156Z"/><path class="cls-2" d="M30.55057,36.39537c1.4069-.0693,2.8218-.6566,3.7118-1.7483.3717-.4558.6536-1.0244.6078-1.6108-.0452-.577-.4004-1.0873-.8202-1.486-1.9028-1.807-7.5362-2.7741-9.6114-.6621-2.9877,3.0405,3.9809,5.6122,6.112,5.5072Z"/><path class="cls-2" d="M21.49487,18.60517c-1.2178-.6327-2.4015-1.4134-3.1963-2.5322s-1.1394-2.6333-.5949-3.893c.7117-1.6462,2.7918-2.3988,4.5377-1.9884s3.1494,1.7467,4.1033,3.2654c.7725,1.23,2.4654,4.8256.9701,6.0678-1.3121,1.09-4.6078-.29-5.8199-.9196Z"/><path class="cls-2" d="M16.73967,4.57367c.3317.6568.7631,1.2937,1.3921,1.6755.8359.5076,1.8769.4884,2.8543.4536.4591-.0164.9422-.0397,1.3319-.2832.4817-.3011.7201-.8854.7742-1.4509.144-1.5061-.8479-2.9567-2.1578-3.7137-2.6457-1.5291-5.7382.2621-4.1947,3.3187Z"/><path class="cls-2" d="M43.75137,72.40987c1.4511.4947,2.9653.8045,4.4942.9189,1.8284.1368,3.8008-.0521,5.2373-1.1914,1.4364-1.1394,2.0177-3.4761.798-4.845-.6699-.7519-1.7013-1.0607-2.6922-1.2414-3.0089-.5485-6.8593-.3609-9.5612,1.234-3.1127,1.8376-.7983,4.265,1.7239,5.1249Z"/><path class="cls-2" d="M37.88077,61.92487c-.0819-1.6246.2187-3.293,1.0353-4.6998.3906-.6728.9554-1.3175,1.7169-1.4766.6748-.141,1.3861.1377,1.9053.5911.5193.4533.8745,1.0635,1.1808,1.681.4684.9445.8507,1.9671.8215,3.0211-.0555,1.9969-2.0321,5.0301-3.8306,5.942-2.3387,1.1858-2.7514-3.5138-2.8292-5.0588Z"/><path class="cls-2" d="M53.37587,50.32517c.6343.2137,1.3205.2078,1.9877.1555.6017-.0471,1.2089-.1322,1.7649-.367,1.0369-.4378,1.8098-1.3724,2.2367-2.4139.427-1.0414.5392-2.1861.5354-3.3117-.0014-.402-.0269-.8335-.2721-1.1522-.2888-.3753-.8051-.4908-1.2786-.4972-.9129-.0122-1.8035.2828-2.6359.6577-1.2859.5792-3.4795,1.6271-4.1713,2.9539-.7779,1.4917.3425,3.4727,1.8332,3.9749Z"/><path class="cls-2" d="M46.02957,36.21317c.1581-.4638.3911-.9218.7781-1.2223.4229-.3282.9816-.4303,1.5169-.4277,1.3324.0064,2.6405.6208,3.5345,1.6093,1.9061,2.108,1.9466,6.8896-1.758,7.0775-3.3063.1678-4.9485-4.4632-4.0715-7.0368Z"/><path class="cls-2" d="M55.78677,35.72607c1.2342.7381,2.9283.6072,4.0344-.3119,1.322-1.0984,1.6543-2.9813,1.6944-4.6996.0666-2.8475-4.3612-3.4587-6.0646-1.7107-1.7188,1.7637-1.9481,5.3562.3358,6.7222Z"/><path class="cls-3" d="M33.45657,77.58777c.0238-.0853.0475-.1716.0713-.2569,2.7088-2.1155,5.1614-4.4562,7.3415-6.9903.6994,1.1067,2.0107,1.8806,2.7542,2.1757,1.4075.56,2.836.8794,4.2245.9531.866.0461,1.7167-.0035,2.5399-.1505,1.8977-.3385,3.2974-1.2437,3.9435-2.5456.888-1.7888.1207-4.231-1.7087-5.4444-1.416-.9396-3.3246-1.1989-5.3737-.7339-.9612.2183-1.8594.5659-2.7286.9309,1.4228-2.1282,2.6768-4.3583,3.7529-6.6783.0869.21.1666.4163.2825.6406.3255.629.7378,1.1931,1.2257,1.6798,1.1116,1.1049,2.6584,1.768,4.2257,1.8511.3883.0208.7765.0057,1.1625-.0462,1.9367-.2671,3.7384-1.4884,4.6992-3.1885.8411-1.4803,1.0946-3.6431-.2328-5.1356-.5117-.5755-1.233-1.0053-2.2032-1.3157-2.2292-.7127-4.7557-.5462-6.9335.4604-.0813.0376-.1677.0803-.2541.123.6443-1.8971,1.174-3.8418,1.5924-5.8265.6263.5516,1.4629.9086,2.3266.9544.0874.0047.1751.0064.2628.0039.8019-.0135,1.842-.0959,2.7687-.6177,1.0548-.5921,1.8361-1.7127,2.0918-2.9956.2084-1.045.0548-2.0694-.4318-2.8873-.6052-1.0046-1.702-1.6163-2.7944-1.5479-.7894.0477-1.4519.4294-1.8808.7145-.5831.3835-1.083.7578-1.5164,1.1241.0339-.3208.0776-.6389.1057-.9613.7173-.8659.9777-1.9313.69-2.8687-.5069-1.665-3.1776-4.0045-5.2606-3.5544-1.2316.273-2.1345,1.5359-2.1028,2.9362.0251,1.1389.5869,2.1156,1.0744,2.8398.4971.7357,1.3022,1.7378,2.5515,1.9366.0929.015.1862.0252.2797.0302.1757.0092.353-.0168.5299-.0403-.2384,2.0515-.5886,4.0697-1.0707,6.04-.2856-.6746-.6565-1.3168-1.1121-1.9023-.2804-.3614-.7279-.8804-1.3682-1.2213-.7336-.3906-1.5501-.4483-2.2504-.1593-.392.1646-.745.4396-1.0462.8139-.8835,1.0885-.9743,2.4904-1.0409,3.5134-.054.8248-.1206,1.8497.2512,2.8329.6474,1.706,2.3468,2.6046,3.4731,3.2005.1323.0699.3636.1861.6435.2831-.7085,1.6677-1.5158,3.2877-2.4085,4.8604-.0422-1.2484-.2569-2.6301-1.4835-3.6666-1.28-1.0813-3.2356-1.0322-4.2712.1197-.3142.3482-.5427.7754-.7174,1.3378-.4674,1.4686-.3931,2.9883-.3255,4.3251.0255.5569.0604,1.3192.4417,2.0102.465.8447,1.3652,1.4283,2.5049,1.6447-1.8522,2.3756-3.9433,4.5906-6.2554,6.6237,1.2668-4.676,2.4367-9.4625,3.022-14.3201.4894-4.067.5537-8.1561.233-12.2062.8839.4016,1.7933.4726,2.6984-.076.6847-.4153,1.3694-.8333,2.0221-1.3003.7523-.5369,1.6794-1.2961,2.1769-2.4092.6476-1.4457.3766-3.1767-.6724-4.3068-1.1147-1.1987-2.9526-1.5236-4.3625-.773-.8496.4524-1.4171,1.195-1.9025,1.9296-.0068.0107-.0135.0217-.0201.0326l-.4409.7013c-.0775.121-.1555.2443-.2335.368-.5376-3.0623-1.3115-6.0795-2.3014-9.0288.2878.0788.5957.1471.9503.1875.0729.009.148.015.2212.019.5672.0299,1.17-.0725,1.7898-.3046.8049-.3008,1.4502-.7435,1.919-1.3169.746-.9187,1.0308-2.2114.7586-3.458-.2281-1.0407-.8161-2.0229-1.7044-2.8397-1.0671-.9824-2.2974-1.3473-3.3734-1.0079-.9768.3121-1.5739,1.1132-2.0312,1.8553,0,0-.0001.0011-.0001.002-.278.4541-.503.8976-.6857,1.3299-.5335-1.1954-1.1019-2.3761-1.712-3.538.4521-.1875.9842-.4728,1.6216-.9125,1.0073-.6956,1.8252-1.6237,2.3647-2.6856.6671-1.3133.7972-2.6497.3649-3.7625-.5286-1.3695-2.1508-2.4554-3.7345-1.8851-.5571.2007-.9779.5635-1.3295.8883-.4911.4562-1.0442,1.0059-1.3876,1.7521-.0102.0273-.0769.2267-.1674.5335-.2407-1.2779-.8598-2.4202-.9007-2.4955-.3514-.6383-.8479-1.2303-1.5626-1.8627-1.1897-1.0519-2.3425-1.6095-3.5238-1.7067-1.7124-.1554-3.2583.8155-3.7288,2.2654-.4606,1.418.1434,3.0199,1.6564,4.3956.2301.2085,1.621,1.4371,3.2905,2.2017-.8639.0896-1.5902.3341-2.1935.7506-1.2148.8396-1.7498,2.3534-1.2755,3.5958.1951.5107.542.9644,1.0353,1.3484.7263.5655,1.651.8899,2.6675.9438.2927.0157.5907.0081.894-.0208.1341-.0131,3.1397-.3226,4.4189-1.6927.808,1.588,1.5398,3.21,2.2006,4.859-1.1083-.6038-2.3425-.9445-3.2381-1.0417-.9747-.1099-1.7427.0316-2.3566.4211-.7489.4741-1.1368,1.2516-1.3615,1.7983-.1941.4686-.3986,1.095-.2762,1.7833.1518.8287.7185,1.404,1.0938,1.7849,1.0774,1.0937,2.3553,2.2515,4.0061,2.339.1138.006.2279.007.3464.0031,1.1244-.0437,2.6989-.7111,3.6267-1.7751.6701,2.2678,1.2091,4.5721,1.6074,6.9027-.6232-.6687-1.1868-1.2281-1.7165-1.5383-1.2911-.7554-2.7059-1.0243-3.998-.7627-1.5624.3227-2.8252,1.4503-3.221,2.8767-.4544,1.6475.3301,3.574,1.9041,4.6841.782.5532,1.6665.8653,2.5366.9113.3802.0204.7569-.0096,1.1221-.0933.326-.0734.6359-.1884.946-.3074.1519-.0594.3039-.1185.4614-.1672.3173-.1005.6465-.1573.9759-.2172.5249-.0954,1.0663-.1941,1.6187-.4218.0028-.001.0049-.0027.0077-.0038.1415,1.6447.2168,3.296.2216,4.9508-.6004-.6946-1.3503-1.3281-2.322-1.7422-1.6308-.6942-3.4558-.6096-4.8902.2194-1.7982,1.039-2.9257,3.2287-3.0956,6.0056-.0343.5313-.032,1.1013.2114,1.6626.2606.6202.7735,1.1368,1.5208,1.5354.7217.3838,1.5259.5967,2.3411.64,1.1059.0588,2.2304-.1945,3.1838-.7564.3998-.2347.7676-.5201,1.1315-.8073.3318-.2598.6578-.5248,1.029-.7193.1866-.097.3727-.186.5506-.2713.024-.0115.0487-.0236.0728-.0353-.0478.508-.0888,1.0162-.1499,1.5234-.7231,6.0156-2.3884,11.9992-3.9984,17.785-.7556,2.7121-1.5113,5.4251-2.1782,8.154-.0725.2965-.1458.6071-.2189.9154-1.1591-4.8138-3.3021-9.3508-6.3225-13.3254-.5292-.696-1.0761-1.3251-1.6275-1.9274.0177.0014.0361.0061.0537.007,1.2381.0657,2.2375-.9402,2.8923-1.6007,1.5485-1.5578,1.7194-3.8158.4181-5.4922-.6032-.7732-1.5471-1.2718-2.5245-1.333-1.7308-.0755-2.9726.8106-3.5715,2.4534-.3257.8952-.3948,2.0062-.1447,3.0419-1.6807-1.6562-3.1723-3.2148-4.163-5.2544.8841.0125,1.7917-.3021,2.7782-1.0032.4725-.3367,1.1514-.8745,1.5969-1.6611.826-1.4658.5284-3.1951.2319-4.3679-.1197-.4711-.3975-1.5744-1.4121-2.0462-.7958-.3696-1.8046-.1857-2.6254.4904-.7569.6255-1.1988,1.4612-1.5545,2.1314-.1359.2559-.3121.541-.4994.844-.4174.6801-.8704,1.4175-1.1492,2.1765-1.076-.6606-2.2591-1.1465-2.6883-1.2793-1.3759-.4267-2.6811-.5339-3.877-.3172-1.4616.265-2.7486,1.0456-3.5285,2.1409-.5969.8368-.8171,1.7588-.6189,2.5948.361,1.533,1.9521,2.2056,2.4744,2.427.9432.3988,1.9278.7069,2.9299.9159.3568.0752.7791.1475,1.2304.1715.7501.0398,1.5829-.0556,2.3345-.504.3853-.2291.6922-.5186.9626-.7734.264-.2501.5151-.4865.913-.6091.1838-.0443.3659-.0946.5329-.1683.0657-.0287.1123-.0619.1723-.092,1.2364,2.4649,3.0631,4.2654,4.9722,6.1377.1188.1162.2388.2361.3581.3531-2.7645-.2129-5.6969.5297-7.7117,1.4173l-.0001.0009c-.8287.3649-2.0211.9753-2.8385,2.0469-.9072,1.1915-1.1133,2.7298-.5282,3.92.4912.9995,1.4585,1.7113,2.9548,2.173.8825.2721,1.7691.4304,2.6351.4764,1.7951.0954,3.5036-.2911,4.9105-1.1387.4043-.2427.7821-.5243,1.16-.8068.2718-.2038.5436-.4085.8265-.5913.287-.1845.6777-.3238,1.0932-.4709.6966-.2481,1.689-.6123,2.2312-1.4332,3.0368,4.604,4.971,10.0267,5.4906,15.4951.0107.1168.0462.2245.0915.3256-1.0607,6.1914-1.53,13.5688.4931,20.5651.1276.4379.5159.7285.9469.7516.1138.006.2306-.0061.3445-.04.5529-.1601.871-.7375.7128-1.2902-2.05-7.0802-1.7758-15.0836.8869-25.9509.6637-2.7088,1.4121-5.3999,2.1605-8.0908ZM54.99027,54.99127c.6159.0327,1.2258.1415,1.8071.3272v.0011c.6054.1933,1.0253.4266,1.2811.7143.6098.6859.4502,1.8883-.0223,2.7235-.6481,1.1469-1.864,1.9702-3.1702,2.1496-1.312.1771-2.6981-.288-3.6334-1.2174-.335-.3329-.6181-.7218-.8456-1.1601-.403-.7798-.5433-1.3642-.4153-1.7385.1276-.3685.5917-.7393,1.3817-1.1039,1.137-.5258,2.393-.7609,3.6169-.6958ZM56.25677,43.08137c.2968.0158.6278.2321.8094.5355.2171.3661.2816.8802.1759,1.4107-.1368.695-.5373,1.2874-1.0689,1.5865-.5191.2926-1.225.3405-1.7821.3507-.4689-.0004-1.0183-.2121-1.3026-.5379-.1788-.2044-.2428-.4207-.2023-.6827.0447-.3054.7346-1.1658,2.4415-2.2892,0,0,.0021-.0008.0021-.0018.2283-.151.5652-.3542.8556-.3715.0226-.0018.047-.0017.0714-.0003ZM47.34037,54.43097c-1.1224-.5936-2.1563-1.201-2.4961-2.0967-.2129-.5588-.165-1.2687-.1203-1.9575.0635-.965.149-1.8065.5809-2.3391.1156-.1426.2016-.1881.2308-.2006.0396-.0164.0889-.023.1458-.0199.0976.0051.214.0389.3211.0955.2181.1166.4414.3263.7009.661l-.0001.0011c1.3093,1.681,1.7149,4.0624,1.0054,6.0217-.0802-.0268-.1979-.0759-.3684-.1655ZM41.40577,65.18057c-.5009-.0501-1.1144-.2456-1.3337-.6446-.1469-.2658-.1683-.7083-.1861-1.1015-.0595-1.2213-.123-2.4836.2319-3.5992.0835-.2678.1749-.4534.2789-.5693.1365-.1519.3786-.2185.6347-.2049.2602.0139.5386.1092.7434.2822.6986.5894.7517,1.4689.7581,2.8464l.009.6753c.0365,1.3852-.0495,2.1206-.6236,2.2991-.1139.0337-.2875.0376-.5126.0165ZM51.47037,67.06587c.8448.5605,1.4598,1.8398.9939,2.7815-.4818.9734-1.87,1.3165-2.4443,1.4194-1.7597.3143-3.7062.0764-5.6248-.687-.7887-.3132-1.7927-1.1014-1.9064-1.6466-.0148-.0679-.0372-.1824.1783-.4002.1614-.1617.707-.3396,1.066-.4571.2675-.0866.5228-.1711.7335-.2618l.2399-.1024c1.0243-.439,1.9922-.8534,3.0055-1.084.8584-.1951,2.4941-.3997,3.7584.4382ZM50.05187,41.10877c-.3376-.0536-.7149-.3958-1.1514-1.0438-.3289-.4874-.7069-1.1231-.7179-1.7211-.0099-.3909.2136-.7981.4673-.8537.7698-.1775,2.5231,1.1645,2.8165,2.1279.0818.2644-.0463.6418-.3263.9623-.3128.3625-.7608.5835-1.0882.5284ZM40.59277,40.26077c.5643-.3004,1.3979-.1419,1.8568.3513.4725.5093.5962,1.3661.2955,2.0372-.2938.6559-.9475,1.1809-1.4836,1.5643-.6123.4364-1.2548.8263-1.9058,1.2218-.3855.2323-1.0118-.1037-1.6857-.6584.0793-.1883.1526-.3771.2277-.5636.278-.7048.6806-1.337,1.1096-2.0063l.4476-.7131c.3836-.581.7245-1.0137,1.1379-1.2332ZM35.90907,25.68937c.3152-.1003.8462.1124,1.3304.5548.5616.5183.9445,1.1389,1.0772,1.7505.1361.6228.0057,1.2745-.3369,1.6976-.2267.2773-.5838.5133-1.033.6801-.3889.1444-.7325.2046-1.0425.1678-.618-.0705-1.4108-.2676-1.67-.7981-.3015-.6205,0-1.8054.7881-3.0937.2565-.4153.5612-.8549.8867-.959ZM26.90397,33.14467c-.1954-.198-.4914-.4982-.526-.6916-.0315-.1738.1066-.5101.1511-.6177.1168-.2814.2987-.6742.5498-.8322.1666-.1055.4319-.1484.7917-.1292.0711.0037.1442.0096.2212.0179l.0021.0001c1.5607.1704,3.5746,1.1346,3.9681,2.2493.0265.0759.0814.2328-.1133.5199-.4314.6368-1.5876,1.1798-2.2556,1.2055-.9595.0652-1.911-.8295-2.7891-1.722ZM29.17827,45.63487c-.7349-.518-1.3484-1.519-1.0984-2.4263.1817-.6579.8542-1.2287,1.6313-1.3892.2308-.0468.4723-.0637.7223-.0504.5896.0313,1.2173.2267,1.8026.5698.4013.2344,1.0853.9822,1.7482,1.7053.3084.3345.6263.6838.9568,1.0254-.0315.0168-.0649.0313-.1004.0457-.346.1436-.7597.2184-1.1961.2973-.4159.0758-.8297.1537-1.2299.2803-.197.0618-.3905.1351-.582.2096-.2164.0823-.4331.1696-.66.2208-.6148.1355-1.3638-.041-1.9944-.4883ZM30.64187,17.61597c.1822-.3981.567-.772.9101-1.0914.2101-.1946.4305-.3899.6197-.4584.3529-.1208.9039.2153,1.0832.6784.2115.5465.1104,1.2995-.2789,2.0646-.3825.7534-.9681,1.4155-1.6918,1.9142-.5841.4032-1.0744.6524-1.3243.7899-.0291-1.0258.4342-3.3386.6819-3.8953l-.9472-.4365.9473.4345ZM21.92337,16.33437c-.669-.6084-1.3042-1.5085-1.0753-2.21.1633-.503.8414-.8705,1.5285-.8341.0162.0009.0304.0016.0467.0036.7165.0583,1.4726.4472,2.3138,1.19.5277.4685.8828.8828,1.1152,1.3049.5856,1.0656.8842,2.5066.6359,2.8043-1.164.191-3.2113-1.0278-4.5648-2.2587ZM22.65917,24.12857c-.186-.1435-.3124-.2969-.3677-.4467-.1289-.3361.1047-.8579.511-1.138.4508-.3123,1.1023-.4501,1.9876-.4202.0468.0014.0956.0028.1404.0053.6424.0341,1.1438.1514,1.5305.3554,1.0668.5633,1.3839,1.0053,1.4031,1.0652-.308.4252-1.8259.9448-3.1271,1.0716-.8176.0778-1.5727-.0998-2.0778-.4926ZM28.26967,57.82987c-.3053-.1631-.5118-.3431-.5844-.5133-.0707-.1646-.0642-.4406-.0475-.716.0601-.9783.3802-3.3599,2.0565-4.3299.5174-.2976,1.1402-.4317,1.7765-.398.4228.0225.8499.1195,1.2525.2919h.002c1.2699.5415,2.0438,1.7088,2.6332,2.7799.1488.2688.1703.4016.1821.4082-.1072.137-.5903.3672-.9144.5214-.2009.0962-.4101.1961-.6177.3055-.5138.2693-.9393.6044-1.352.9292-.2915.2291-.579.4606-.8988.6474-1.046.6172-2.4134.6445-3.488.0737ZM20.33067,65.59337c.2747-.7591.763-1.1246,1.4481-1.0881.0102.0004.0286-.0006.0305.0015.3861.0236.7748.2288,1.0115.5319.7499.9653.4137,2.0738-.3229,2.8155-1.0856,1.0953-1.2189.9953-1.5388.7613-.7397-.5417-1.0291-1.9262-.6284-3.0221ZM14.35537,58.14587c.2099-.3435.4085-.6664.5626-.9579.3442-.6463.6389-1.1668,1.044-1.5022.1898-.1581.3741-.2103.4148-.2082.0216.0155.1324.1161.2723.6678.209.8257.4331,2.018-.026,2.8315-.1843.3235-.4986.637-.9923.9889-.6738.479-1.2189.6855-1.6929.6278-.1902-.0265-.3989-.1638-.5659-.5153.0175-.0581.0287-.1178.0339-.1765.2198-.5684.626-1.2298.9495-1.7559ZM6.54737,63.67287c-.8691-.1817-1.7253-.4495-2.5448-.7956-.9411-.3986-1.2035-.7562-1.2585-.9864-.0547-.2364.0529-.5742.2887-.9051.4691-.657,1.271-1.1312,2.2034-1.2999.3665-.0672.753-.0893,1.1575-.0679.5469.0291,1.1241.1381,1.7319.3253.4674.1442,2.3024.946,3.1465,1.7503.0291.0279.0583.054.0916.0782.0069.0248.0136.0516.0204.0775-.0689.03-.1689.0706-.3186.1248-.1176.0285-.2334.0579-.3455.0959-.6559.2209-1.1066.6464-1.5037,1.0218-.2104.199-.41.3872-.5973.4985-.44.261-1.1018.2851-2.0716.0826ZM16.92817,76.64867c-.3207.241-.6414.4828-.9847.6899-1.5795.9518-3.7125,1.1168-5.8548.4565-.9066-.2794-1.4781-.6503-1.6988-1.1012-.2338-.4732-.1041-1.1869.3144-1.7367.399-.5251,1.0424-.9711,2.0215-1.4033,2.528-1.1144,6.252-1.7943,8.8593-.7935.7334.2797.9693.9812,1.0384,1.5209.0552.421.0708.5482-1.2238,1.0094-.4841.1731-1.0327.3683-1.5224.6826-.3251.21-.6371.4423-.9491.6754Z"/><path class="cls-3" d="M4.71937,50.14717c-.8564.1951-1.52.8295-1.688,1.6126-.1412.6622.0586,1.3527.6003,2.0552.8299,1.0726,2.8107,2.352,4.5677,2.5514.0871.0098.1744.0174.2618.0221.866.046,1.6283-.1806,2.2124-.6612.567-.4644.8095-1.116.6658-1.7882-.4229-1.9786-4.3355-3.5462-4.8478-3.6865-.4744-.1282-1.1015-.2574-1.7722-.1054ZM5.18227,52.17987c.2229-.0524.5391.0225.758.0841.8299.2264,2.7656,1.3211,3.2604,1.9466-.1925.0918-.4607.1133-.767.0846-1.2016-.1359-2.6697-1.1303-3.1504-1.7533-.1965-.253-.2108-.3678-.103-.3621l.002.0001Z"/><path class="cls-3" d="M13.02517,48.22237c.6926-1.2556.5912-2.8788-.2561-4.0451-.2776-.3764-.5821-.6322-.9348-.7855-.7374-.3175-1.657-.1227-2.2887.4859-.4898.4704-.7192,1.0669-.8663,1.5341-.7834,2.4658-.6129,4.0152.5095,4.6078.2439.1291.4953.1936.7494.2071,1.3398.0709,2.6946-1.2954,3.087-2.0043ZM10.66617,46.04007c.0021-.0008.0022-.003.0023-.0049.0663-.2115.1718-.5097.4166-.6273.3666.5036.414,1.2635.114,1.8063-.1488.2694-.6603.7252-.9202.897-.0156-.3188.042-.9825.3873-2.0711Z"/><path class="cls-3" d="M53.96357,37.50937c.2915.155.6075.2319.9368.2494,1.2726.0677,2.7108-.7572,3.4153-1.3149,1.2407-.983,1.8583-2.5159,1.5772-3.903-.1693-.8417-.723-1.6243-1.4789-2.0936-.7006-.4347-1.4972-.5618-2.2292-.3661-.8189.2185-1.533.8045-2.1249,1.7393-.641,1.0127-1.0312,2.1816-1.1316,3.38-.1204,1.4616.5973,2.0735,1.0353,2.3089ZM56.72197,32.09527c.2398-.0627.4724.0497.5928.1233.2724.1694.4776.4505.5338.7358.1247.6079-.2176,1.3716-.8284,1.8559-.7597.602-1.7975.9472-1.9906.937-.004.001-.0741.2449-.0228-.3752.0703-.8636.3536-1.7071.8165-2.4375.2982-.4716.6092-.7618.8987-.8393Z"/><path class="cls-3" d="M51.16867,28.29587c-.5783-1.1274-1.5908-1.907-2.7814-2.1375h-.002c-.5791-.1133-1.0945-.0827-1.5436.0822-.6755.2434-1.1841.8004-1.3289,1.4532-.169.7627.1698,1.4097.3754,1.7986l.9411,1.7798c.2165.4142.4868.9292.9184,1.3627.4857.4918,1.0923.7757,1.7063.8084.1118.0059.224.0037.3368-.0077.4038-.0418.7627-.197,1.0413-.4534.2146-.2006.3389-.4305.4263-.6174.5919-1.2805.5585-2.8021-.0897-4.0689ZM49.22827,31.16737c-.213-.2131-.385-.5433-.5554-.8675l-.941-1.7807c-.0463-.0882-.1667-.3168-.1788-.3195.054-.0185.1838-.0432.4381.0049.7626.1497,1.1546.7159,1.3208,1.0406.3215.6266.3685,1.3907.1202,2.0745-.0615-.0316-.1343-.0813-.2039-.1523Z"/><path class="cls-3" d="M30.86087,8.69417c.3671-1.0763.3154-2.291-.1409-3.3347-.4055-.9244-1.1025-1.5059-1.9111-1.5946-.406-.035-.8628.0449-1.2759.2624-.9418.4973-1.561,1.5624-1.6155,2.7786-.051,1.0767.3346,2.9136,1.6049,3.5612.1886.0966.4586.1956.794.2134.4696.0247,1.0639-.1107,1.7282-.6423.362-.2895.6282-.6964.8163-1.244ZM27.99987,6.90427c.0001-.0011.0001-.002.0001-.002.0208-.468.2243-.8822.5524-1.0728.0418.0196.1579.1358.2578.3654.251.572.2789,1.2371.0764,1.8245-.0798.2366-.1439.2911-.1439.2911-.1831.1463-.2973.1861-.2715.1996-.2018-.1155-.5039-.9144-.4713-1.6058Z"/><path class="cls-3" d="M23.17657,6.32607c.1075-.4888-.0568-.8891-.1687-1.161-.1133-.2842-.1248-.6825-.1351-1.1039-.0222-.7719-.0465-1.7333-.75-2.5363-.8531-.9799-2.7556-2.0472-4.1297-1.2406-.825.4862-1.2629,1.5151-1.1158,2.6216.1173.9011.5736,1.7898,1.3213,2.5675.6066.6325,1.3249,1.1172,1.9547,1.5421.2735.1858.6867.4675,1.2342.5243.0324.0037.0628.0064.0953.0081.8051.0428,1.5403-.4819,1.6938-1.2218ZM19.70227,4.03027c-.3032-.3178-.6823-.8171-.7596-1.396-.0379-.2863.0473-.5082.1046-.5511.2158-.07,1.0682.3097,1.5063.813.1979.2266.2182.612.2348,1.2214.0064.2623.0141.5411.053.8439-.4129-.287-.8126-.5906-1.1391-.9312Z"/></g></g></g></svg>