<svg xmlns="http://www.w3.org/2000/svg" width="30.002" height="31.091" viewBox="0 0 30.002 31.091"><path d="M671.194,792.961a9.9,9.9,0,0,0-1.138,5.865,8.3,8.3,0,0,0,3.62,5.346c3.41,2.325,7.9,2.371,11.858,1.265,4.591-1.284,8.985-4.272,10.774-8.78,2.678-6.748-1.631-12.584-8.179-13.049C681.325,783.125,674.316,786.6,671.194,792.961Z" transform="translate(-669.962 -775.638)" fill="#fff0f0"/><path d="M685.408,760.573a1.849,1.849,0,0,1-1.017.3,2.93,2.93,0,0,1-1.576-.409.309.309,0,0,0-.315.532,3.6,3.6,0,0,0,1.816.5h.092a2.429,2.429,0,0,0,1.363-.414,2.17,2.17,0,0,0,.679-.842,7.481,7.481,0,0,0,4.3,1.356,7.173,7.173,0,0,0,1.863-.243.3.3,0,0,0,.06-.03,2.514,2.514,0,0,0,.17.359,8.8,8.8,0,0,1-2.9.955c-.011-.025-.02-.05-.032-.075a.989.989,0,0,0-.716-.544,1.108,1.108,0,0,0-1.107.679,1.069,1.069,0,0,0-.114.455.956.956,0,0,0,.412.76,1.292,1.292,0,0,0,.751.221.872.872,0,0,0,.774-.4,1.028,1.028,0,0,0,.142-.483,9.428,9.428,0,0,0,3.167-1.066c.059.06.121.116.184.169a6.307,6.307,0,0,1-3.39,3.1.31.31,0,0,0-.1-.046,2.874,2.874,0,0,0-2.6-.8,5.192,5.192,0,0,0-1.795.571.309.309,0,1,0,.291.546,4.573,4.573,0,0,1,1.581-.5,2.973,2.973,0,0,1,1.387.138,4.113,4.113,0,0,0-2.555,1.233.309.309,0,0,0,.449.425,3.489,3.489,0,0,1,2.641-1.06,6.825,6.825,0,0,1-2.618,2.335.309.309,0,0,0,.272.556,7.422,7.422,0,0,0,2.78-2.434,2.3,2.3,0,0,1-.1,1.3,6.477,6.477,0,0,1-1.141,1.743.309.309,0,0,0,.478.392,7.056,7.056,0,0,0,1.242-1.918,2.737,2.737,0,0,0,.051-1.911,6.935,6.935,0,0,0,3.642-3.3c.1.061.2.117.3.168a.271.271,0,0,0-.02.047,7.194,7.194,0,0,1-1.006,2.477l-.026-.009a.869.869,0,0,0-.775.158.972.972,0,0,0-.2,1.116.924.924,0,0,0,.234.337.808.808,0,0,0,.535.195.9.9,0,0,0,.206-.024,1.109,1.109,0,0,0,.571-.358.77.77,0,0,0,.185-.752.885.885,0,0,0-.2-.343,7.819,7.819,0,0,0,1.062-2.582q.119.049.237.091a13.11,13.11,0,0,1-1.2,6.846.3.3,0,0,0-.111.024,3.446,3.446,0,0,0-2.761.65.309.309,0,1,0,.328.525,3.73,3.73,0,0,1,1.685-.64,3.774,3.774,0,0,0-1.149,2.153.309.309,0,0,0,.611.093,3.154,3.154,0,0,1,1.22-2.016,3.508,3.508,0,0,1,.049,1.3,10.5,10.5,0,0,1-.465,1.7.309.309,0,1,0,.586.2,10.988,10.988,0,0,0,.49-1.8,4.079,4.079,0,0,0,.019-1.075,2.09,2.09,0,0,1,.4.649,2.564,2.564,0,0,1,.036,1.676.309.309,0,0,0,.2.389.3.3,0,0,0,.094.015.31.31,0,0,0,.295-.215,3.2,3.2,0,0,0-.049-2.088,2.641,2.641,0,0,0-.948-1.219,13.386,13.386,0,0,0,1.292-6.985c.12.025.238.044.353.057a9.4,9.4,0,0,1,.586,3.474c-.033.008-.065.014-.1.024a1.033,1.033,0,0,0-.682.645,1.167,1.167,0,0,0,.515,1.259,1.1,1.1,0,0,0,.448.193.867.867,0,0,0,.145.012,1,1,0,0,0,.708-.306,1.357,1.357,0,0,0,.357-.737.91.91,0,0,0-.283-.869,1.08,1.08,0,0,0-.49-.233,10.047,10.047,0,0,0-.547-3.458c.063-.007.123-.019.183-.03a27.027,27.027,0,0,1,2.914,14.576.309.309,0,0,0,.282.334h.027a.309.309,0,0,0,.308-.283,27.657,27.657,0,0,0-2.936-14.823c.038-.019.078-.034.116-.056a2.324,2.324,0,0,0,.6-.495,9.417,9.417,0,0,1,2.284,2.4c-.023.025-.046.049-.067.076a1.03,1.03,0,0,0-.194.919,1.166,1.166,0,0,0,1.142.743,1.1,1.1,0,0,0,.475-.1.985.985,0,0,0,.534-.728,1.355,1.355,0,0,0-.126-.808.91.91,0,0,0-.727-.554,1.079,1.079,0,0,0-.536.086,10.031,10.031,0,0,0-2.429-2.543,4.79,4.79,0,0,0,.363-.827,23.745,23.745,0,0,1,4.829,2.039,2.139,2.139,0,0,0-.178.3,2.551,2.551,0,0,0-.187,1.529,1.766,1.766,0,0,0,.189.566,2.086,2.086,0,0,0,.361.45,7.414,7.414,0,0,0,.817.711.309.309,0,1,0,.371-.495,6.847,6.847,0,0,1-.75-.652,1.523,1.523,0,0,1-.259-.316,1.171,1.171,0,0,1-.12-.371,2.029,2.029,0,0,1,.025-.828,3.832,3.832,0,0,0,2.4,1.812.306.306,0,0,0,.073.009.309.309,0,0,0,.072-.61,3.208,3.208,0,0,1-2.081-1.646.369.369,0,0,1-.056-.158.31.31,0,0,0,.017-.109.289.289,0,0,0,.075.025,5.075,5.075,0,0,1,2.237.851.3.3,0,0,0,.175.055.309.309,0,0,0,.175-.564,5.748,5.748,0,0,0-1.783-.816,2.889,2.889,0,0,1,1.082.053,1.83,1.83,0,0,1,.883.5.309.309,0,0,0,.452-.422,2.452,2.452,0,0,0-1.179-.681,3.522,3.522,0,0,0-1.313-.068,2.526,2.526,0,0,0-.505.108,1.908,1.908,0,0,0-.565.31.3.3,0,0,0-.07-.06,24.352,24.352,0,0,0-5.009-2.121c.012-.051.023-.1.035-.156a.305.305,0,0,0,.092,0,9.37,9.37,0,0,1,3.565.031c0,.034,0,.067.006.1a1.033,1.033,0,0,0,.515.786.919.919,0,0,0,.437.108,1.319,1.319,0,0,0,.893-.392,1.1,1.1,0,0,0,.27-.408,1,1,0,0,0-.139-.891,1.358,1.358,0,0,0-.662-.481.91.91,0,0,0-.905.125,1.083,1.083,0,0,0-.316.441,10.013,10.013,0,0,0-3.677-.045,3.059,3.059,0,0,0-.008-.425,16.014,16.014,0,0,0,4.195-.935,5.153,5.153,0,0,0,2.619-1.8,2.016,2.016,0,0,0,.873.413,1.981,1.981,0,0,0,.356.031,3.172,3.172,0,0,0,.847-.135,6.269,6.269,0,0,0,1.458-.614.309.309,0,0,0-.31-.535,5.664,5.664,0,0,1-1.314.553,2.048,2.048,0,0,1-.924.091,1.464,1.464,0,0,1-.727-.4c.05,0,.1.008.15.008a3.047,3.047,0,0,0,1.765-.687,1.4,1.4,0,0,0,.556-.789.309.309,0,0,0-.607-.122.8.8,0,0,1-.333.425,2.245,2.245,0,0,1-1.529.547.382.382,0,0,0-.066-.009,1.486,1.486,0,0,1,.373-.68,4.173,4.173,0,0,1,1.11-.836.309.309,0,0,0-.307-.537,4.711,4.711,0,0,0-1.272.97,2.847,2.847,0,0,0-.372.55,1.747,1.747,0,0,1,.018-.191,2.219,2.219,0,0,1,.691-1.261.309.309,0,1,0-.417-.457,2.841,2.841,0,0,0-.885,1.614,1.843,1.843,0,0,0,.323,1.462c.035.052.072.1.109.148a.3.3,0,0,0-.056.058,4.546,4.546,0,0,1-2.347,1.6,15.4,15.4,0,0,1-4.111.906,2.771,2.771,0,0,0-.169-.411,7.817,7.817,0,0,0,2.454-1.112.885.885,0,0,0,.348.194.75.75,0,0,0,.2.027.8.8,0,0,0,.55-.233,1.111,1.111,0,0,0,.341-.581.837.837,0,0,0-.192-.737.905.905,0,0,0-.343-.223.973.973,0,0,0-1.111.229.859.859,0,0,0-.135.779c0,.009.006.017.009.026a7.191,7.191,0,0,1-2.447,1.078.291.291,0,0,0-.042.019,2.585,2.585,0,0,0-.329-.311,5.9,5.9,0,0,0,1.179-1.94c.031.012.059.026.091.038a2.5,2.5,0,0,0,.584.142,1.788,1.788,0,0,0,.185.009,2.235,2.235,0,0,0,1.263-.421,3.842,3.842,0,0,0,.975-1.038.309.309,0,0,0-.512-.347,3.247,3.247,0,0,1-.816.878,1.545,1.545,0,0,1-1.032.3,1.61,1.61,0,0,1-.261-.054l.012-.006a4.885,4.885,0,0,0,.9-.6,2.134,2.134,0,0,0,.652-.969.309.309,0,0,0-.593-.176,1.517,1.517,0,0,1-.469.681,3.86,3.86,0,0,1-.662.449,3.375,3.375,0,0,1,.575-1.3.309.309,0,1,0-.481-.39,4.427,4.427,0,0,0-.771,1.858.921.921,0,0,1-.073-.079,1.239,1.239,0,0,1-.205-.734,3.805,3.805,0,0,1,.147-.886.309.309,0,1,0-.6-.153,4.284,4.284,0,0,0-.166,1.035,1.821,1.821,0,0,0,.327,1.107,1.651,1.651,0,0,0,.379.36,5.261,5.261,0,0,1-1.135,1.869.313.313,0,0,0-.018.03,3.165,3.165,0,0,0-.72-.243c-.108-.022-.217-.038-.327-.051a11.668,11.668,0,0,0,.028-5.987,2.774,2.774,0,0,0,.938-.518,3.373,3.373,0,0,0,1.131-2.332.31.31,0,0,0-.286-.331.315.315,0,0,0-.331.286,2.749,2.749,0,0,1-.914,1.906,2.158,2.158,0,0,1-.4.263,10.222,10.222,0,0,0,.317-2.8.325.325,0,0,0-.318-.3.31.31,0,0,0-.3.318,9.585,9.585,0,0,1-.36,2.889.066.066,0,0,0,0,.01c-.029-.044-.055-.093-.08-.14a4.708,4.708,0,0,1-.512-2.414.309.309,0,0,0-.618-.035,5.326,5.326,0,0,0,.557,2.685,1.718,1.718,0,0,1-.245-.067,2.605,2.605,0,0,1-.665-.373,2.67,2.67,0,0,1-.623-.613,1.38,1.38,0,0,1-.26-.743.309.309,0,1,0-.619.009,1.976,1.976,0,0,0,.369,1.086,3.261,3.261,0,0,0,.765.759,3.183,3.183,0,0,0,.825.459,2.388,2.388,0,0,0,.8.135c.074,0,.147,0,.221-.01a11.047,11.047,0,0,1-.056,5.843c-.061,0-.121.006-.182.012a7.8,7.8,0,0,0-.343-2.714.89.89,0,0,0,.288-.276.772.772,0,0,0,.021-.775,1.117,1.117,0,0,0-.456-.5.83.83,0,0,0-.761-.031.918.918,0,0,0-.314.262.971.971,0,0,0-.106,1.129.87.87,0,0,0,.7.358h.028a7.171,7.171,0,0,1,.313,2.654,4.167,4.167,0,0,0-.463.145,10.316,10.316,0,0,0-2.65-4.769.3.3,0,0,0-.115-.071,2.175,2.175,0,0,0,.219-.684,2.98,2.98,0,0,0-.172-1.391,3.365,3.365,0,0,0-1.227-1.723.309.309,0,1,0-.345.513,2.76,2.76,0,0,1,.987,1.41,2.385,2.385,0,0,1,.145,1.105,1.513,1.513,0,0,1-.118.392,5.377,5.377,0,0,0-1.829-2.24.309.309,0,1,0-.341.517,4.743,4.743,0,0,1,1.547,1.854,3.085,3.085,0,0,1-2.14-1.034.309.309,0,1,0-.466.407,3.71,3.71,0,0,0,2.617,1.241,1.738,1.738,0,0,1-.717.3,2.036,2.036,0,0,1-1.93-.852.309.309,0,1,0-.509.352,2.663,2.663,0,0,0,2.156,1.142,2.348,2.348,0,0,0,.382-.031,2.409,2.409,0,0,0,1.4-.787s0,.01.009.014a9.691,9.691,0,0,1,2.524,4.606,3.487,3.487,0,0,0-.81.634,4.94,4.94,0,0,1-1.583-1.42.3.3,0,0,0-.077-.072,1.722,1.722,0,0,0-.125-1.215,4.282,4.282,0,0,0-.774-1.045.309.309,0,1,0-.456.418,3.776,3.776,0,0,1,.669.89,1.1,1.1,0,0,1,.078.8,1.705,1.705,0,0,0-.289-.572c-.213-.27-.44-.53-.675-.774a.309.309,0,1,0-.446.429c.221.23.435.475.636.729a1.044,1.044,0,0,1,.112.182,2.346,2.346,0,0,1-1.3-.577.309.309,0,0,0-.414.46,2.933,2.933,0,0,0,1.551.718,2.545,2.545,0,0,1-.572.024,1.785,1.785,0,0,1-1.148-.4.309.309,0,1,0-.427.448,2.368,2.368,0,0,0,1.538.569c.085.005.166.008.245.008a2.444,2.444,0,0,0,.818-.125,1.672,1.672,0,0,0,.648-.413,5.569,5.569,0,0,0,1.615,1.433,3.008,3.008,0,0,0-.34.831,7.139,7.139,0,0,1-2.547-.433c0-.009,0-.018,0-.028a.86.86,0,0,0-.326-.72.973.973,0,0,0-1.133.055.913.913,0,0,0-.276.3.828.828,0,0,0,0,.761,1.11,1.11,0,0,0,.476.478.852.852,0,0,0,.409.111.733.733,0,0,0,.365-.1.886.886,0,0,0,.289-.275,7.825,7.825,0,0,0,2.656.467,3,3,0,0,0,.031.568.285.285,0,0,0-.069,0,6.834,6.834,0,0,1-5.788-1.124,3.594,3.594,0,0,0-.832-3.214.309.309,0,0,0-.457.417,3.017,3.017,0,0,1,.741,2.354c-.046-.047-.093-.094-.141-.142-.248-.247-.507-.483-.77-.713-.183-.161-.509-.568-.777-.557a.245.245,0,0,0-.2.126.424.424,0,0,0-.035.22c.01.241.343.447.512.594.3.258.589.522.867.8.048.048.1.1.143.145a1.711,1.711,0,0,1-.3.035,3.737,3.737,0,0,1-2.247-.649.309.309,0,0,0-.377.49l.067.057a.307.307,0,0,0,.1.058,4.379,4.379,0,0,0,2.313.665q.082,0,.163,0c.077,0,.166-.009.258-.022a1.4,1.4,0,0,1-.282.289Zm7.865,5.829a.507.507,0,0,1-.25.166.222.222,0,0,1-.19-.032.337.337,0,0,1-.074-.117.375.375,0,0,1,.028-.4.219.219,0,0,1,.139-.043.3.3,0,0,1,.078.01.467.467,0,0,1,.326.252C693.336,766.261,693.352,766.314,693.273,766.4Zm8.085-1.142.036,0c.065.007.16.036.237.2a.759.759,0,0,1,.077.438.378.378,0,0,1-.189.276.431.431,0,0,1-.214.036.567.567,0,0,1-.547-.3.413.413,0,0,1,.088-.357A.73.73,0,0,1,701.358,765.261Zm2.172-5.18a.292.292,0,0,1,.31-.026.753.753,0,0,1,.364.255.375.375,0,0,1,.063.327.509.509,0,0,1-.125.178.57.57,0,0,1-.6.175.416.416,0,0,1-.192-.315A.7.7,0,0,1,703.53,760.08Zm-1.958-3.585a.376.376,0,0,1,.4-.039.326.326,0,0,1,.117.07.225.225,0,0,1,.038.189.509.509,0,0,1-.159.255c-.086.081-.139.067-.162.06a.471.471,0,0,1-.262-.318.254.254,0,0,1,.026-.218Zm-6.978-2.677a.375.375,0,0,1,.078-.392.325.325,0,0,1,.1-.093.16.16,0,0,1,.07-.015.261.261,0,0,1,.123.033.508.508,0,0,1,.2.226c.052.106.023.153.01.173a.471.471,0,0,1-.375.157H694.8A.251.251,0,0,1,694.6,753.818Zm-5.361,5.627c-.021.011-.069.038-.172-.018a.509.509,0,0,1-.217-.208.223.223,0,0,1-.01-.192.331.331,0,0,1,.1-.1.483.483,0,0,1,.272-.1.2.2,0,0,1,.123.035.252.252,0,0,1,.08.2.469.469,0,0,1-.174.373Zm.148,3.949a.257.257,0,0,1-.249.112h0a.69.69,0,0,1-.392-.107.335.335,0,0,1-.151-.253.459.459,0,0,1,.054-.191.545.545,0,0,1,.419-.335l.037,0a.369.369,0,0,1,.254.207h0A.635.635,0,0,1,689.383,763.394Zm7.98,4.534a.762.762,0,0,1-.187.4.386.386,0,0,1-.312.119.5.5,0,0,1-.2-.092.569.569,0,0,1-.279-.561.415.415,0,0,1,.276-.245.7.7,0,0,1,.617.073A.291.291,0,0,1,697.363,767.928Zm-.59-10.193a2.1,2.1,0,0,1,1.722,1.657,3.223,3.223,0,0,1-.167,1.629,2.675,2.675,0,0,1-1.087,1.632,2.877,2.877,0,0,1-2.556-.237,3.411,3.411,0,0,1-1.147-.812,2.293,2.293,0,0,1,0-2.7A3.329,3.329,0,0,1,696.772,757.735Z" transform="translate(-679.644 -747.262)" fill="#6d6d6d"/></svg>