<svg xmlns="http://www.w3.org/2000/svg" width="99.998" height="39.328" viewBox="0 0 99.998 39.328"><g transform="translate(-1144.3 -1172.855)"><g transform="translate(1144.3 1172.855)"><g transform="translate(0 0)"><path d="M12.571,15.76a3.181,3.181,0,0,0-1.151.27,1.515,1.515,0,0,0-.794.843.312.312,0,0,0-.019.166.3.3,0,0,0,.126.164,1.633,1.633,0,0,0,.822.27,9.743,9.743,0,0,0,1.686-.014l1.851-.123a1.314,1.314,0,0,0,.541-.114c.692-.371-.178-1.093-.6-1.232a6.5,6.5,0,0,0-2.456-.23Z" transform="translate(-7.735 -11.479)" fill="#ffda73"/><path d="M28.047,4.983a1.108,1.108,0,0,0-.651.964,1.786,1.786,0,0,0,.142.643,3.606,3.606,0,0,0,.8,1.33,1.861,1.861,0,0,0,1.4.574.442.442,0,0,0,.229-.067.429.429,0,0,0,.129-.176,2.316,2.316,0,0,0,0-1.49c-.219-.921-.836-2.322-2.05-1.779Z" transform="translate(-19.988 -3.547)" fill="#ffda73"/><path d="M40.631.528A4.4,4.4,0,0,0,40.409,4.5a.661.661,0,0,0,.278.349c.253.122.544-.088.7-.322a2.642,2.642,0,0,0,.352-.939,11.261,11.261,0,0,0,.131-2.5c-.007-.312,0-.873-.336-1.039-.379-.19-.732.19-.9.477Z" transform="translate(-29.211 0)" fill="#ffda73"/><path d="M50.685,6.413A4.5,4.5,0,0,0,48.9,9.736c-.021.391.06.863.42,1.018a1.082,1.082,0,0,0,.989-.269A7.034,7.034,0,0,0,51.8,9.17a3.031,3.031,0,0,0,.719-1.825,1.439,1.439,0,0,0-.2-.8,1.152,1.152,0,0,0-1.637-.137Z" transform="translate(-35.67 -4.479)" fill="#ffda73"/><path d="M46.86,23.823c-.229.074-.49.2-.527.435a.466.466,0,0,0,.286.459,1.366,1.366,0,0,0,.568.092l4.026.075a.854.854,0,0,0,.595-.138.548.548,0,0,0,.052-.685c-.428-.673-1.605-.639-2.292-.646a8.583,8.583,0,0,0-2.708.408Z" transform="translate(-33.8 -17.083)" fill="#ffda73"/><path d="M43.821,31.307a.783.783,0,0,0,.65.274.539.539,0,0,0,.371-.406,1.357,1.357,0,0,0-.012-.573,6.127,6.127,0,0,0-2.052-3.578c-.476-.392-1.318-.584-1.236.327a5.653,5.653,0,0,0,.764,2.044A7.4,7.4,0,0,0,43.821,31.307Z" transform="translate(-30.304 -19.478)" fill="#ffda73"/><path d="M34.2,33.221a1.455,1.455,0,0,0,.237.5.526.526,0,0,0,.491.2c.321-.068.419-.472.435-.8a8.717,8.717,0,0,0-.737-4.274c-.166-.316-.689-.806-.947-.327a4.772,4.772,0,0,0-.02,2.164,12.792,12.792,0,0,0,.541,2.531Z" transform="translate(-24.471 -20.667)" fill="#ffda73"/><path d="M18.722,31.579c-.057.311-.051.7.227.854a.608.608,0,0,0,.352.052,2.378,2.378,0,0,0,1.33-.824A4.68,4.68,0,0,0,22.3,28.9a1.394,1.394,0,0,0-.155-.811c-.571-.965-1.7.333-2.137.838a5.662,5.662,0,0,0-1.285,2.654Z" transform="translate(-13.638 -20.238)" fill="#ffda73"/><path d="M10.55,25.835a.637.637,0,0,0-.036.3c.05.267.371.39.643.381a2.736,2.736,0,0,0,1-.295,20.138,20.138,0,0,0,2.967-1.509c.18-.118.378-.33.269-.515A.429.429,0,0,0,15,24.057a6.193,6.193,0,0,0-1.829.279,2.949,2.949,0,0,1-.993.2c-.224-.009-.389-.092-.607-.014A2.142,2.142,0,0,0,10.55,25.835Z" transform="translate(-7.666 -17.551)" fill="#ffda73"/><path d="M55.657,40.586a3.154,3.154,0,0,0-.972.551,1.529,1.529,0,0,0-.531.96.243.243,0,0,0,.235.308,2.819,2.819,0,0,0,1.536-.307,13.129,13.129,0,0,1,2.5-.686c.355-.06.794-.179.858-.533C59.544,39.476,56.13,40.4,55.657,40.586Z" transform="translate(-39.507 -29.268)" fill="#ffda73"/><path d="M58.69,31.42a.647.647,0,0,0-.348.4.524.524,0,0,0,.229.5,1.526,1.526,0,0,0,.531.216,23.889,23.889,0,0,0,4.079.8.4.4,0,0,0,.364-.1.306.306,0,0,0,.048-.195,1.24,1.24,0,0,0-.686-.892c-1.172-.753-2.868-1.5-4.218-.724Z" transform="translate(-42.56 -22.685)" fill="#ffda73"/><path d="M77.966,26.744a.963.963,0,0,0-.134.886,7.222,7.222,0,0,0,.37,1.458,1.056,1.056,0,0,0,.3.454.447.447,0,0,0,.514.042A.555.555,0,0,0,79.2,29.3a1.533,1.533,0,0,0,.08-.583,3.057,3.057,0,0,0-.091-.521C79.079,27.718,78.9,25.871,77.966,26.744Z" transform="translate(-56.754 -19.343)" fill="#ffda73"/><path d="M87.3,31.652a1.659,1.659,0,0,0-.67.865.726.726,0,0,0,.46.888.734.734,0,0,0,.594-.17,2.174,2.174,0,0,0,.412-.485l.335-.484c.2-.292.569-.823.106-1.062C88.156,31.005,87.592,31.433,87.3,31.652Z" transform="translate(-63.19 -22.728)" fill="#ffda73"/><path d="M89.587,39.613a.348.348,0,0,0-.143.113c-.085.139.05.312.192.39a2.24,2.24,0,0,0,1.373.089,13.25,13.25,0,0,1,1.865-.107,5.843,5.843,0,0,0,1.838-.128c.162-.051.339-.142.375-.308.046-.209-.157-.385-.345-.487-1.538-.838-3.694-.335-5.156.439Z" transform="translate(-65.237 -28.264)" fill="#ffda73"/><path d="M91.918,47.433a.584.584,0,0,0-.329.495c.025.238.285.365.51.448a30.829,30.829,0,0,0,3.676,1.193,1.547,1.547,0,0,0,.555.057.561.561,0,0,0,.447-.3.7.7,0,0,0,.009-.44,2.355,2.355,0,0,0-1.281-1.519A4.194,4.194,0,0,0,91.918,47.433Z" transform="translate(-66.82 -34.289)" fill="#ffda73"/><path d="M90.97,56.439c.1.251.181.511.3.755a2.733,2.733,0,0,0,.582.8.5.5,0,0,0,.3.166.438.438,0,0,0,.361-.235,2.047,2.047,0,0,0-.075-1.765,9.348,9.348,0,0,0-.764-1.744c-.232-.38-1.993-2.345-2.3-1.076-.112.464.492,1.186.729,1.558A9.8,9.8,0,0,1,90.97,56.439Z" transform="translate(-65.193 -38.612)" fill="#ffda73"/><path d="M79.555,57.637c.075.206.184.435.4.494a.554.554,0,0,0,.561-.268,2.062,2.062,0,0,0,.278-1.058q.056-.78.075-1.562a6,6,0,0,0-.181-1.939,2.2,2.2,0,0,0-1.173-1.446c-.779-.263-.663.692-.645,1.182A15.1,15.1,0,0,0,79.555,57.637Z" transform="translate(-57.526 -37.803)" fill="#ffda73"/><path d="M58.662,48.131a1.77,1.77,0,0,0-.219,1.054.889.889,0,0,0,.689.755.987.987,0,0,0,.75-.262,5.563,5.563,0,0,0,.552-.6A10.238,10.238,0,0,1,62.678,47.4a.522.522,0,0,0,.243-.253c.075-.238-.2-.437-.445-.494a2.9,2.9,0,0,0-1.577.176c-.643.221-1.911.646-2.237,1.3Z" transform="translate(-42.628 -34.004)" fill="#ffda73"/><path d="M29,14.59a2.845,2.845,0,0,0-.572-.549,2.437,2.437,0,0,0-.793-.326,7.746,7.746,0,0,0-2.794-.09c-.034-.157-.076-.312-.124-.466a6.44,6.44,0,0,1,1.979-.354l2.352-.171c.383-.028.51-.208.549-.354a.522.522,0,0,0-.23-.541,2.779,2.779,0,0,0-1.767-.483,7.386,7.386,0,0,0-3.348.832c-.033-.058-.066-.115-.1-.172a11.063,11.063,0,0,0,1.383-1.528,1.054,1.054,0,0,0,.258-.606.447.447,0,0,0-.111-.317.461.461,0,0,0-.337-.138,1.46,1.46,0,0,0-.869.33,2.789,2.789,0,0,0-.956,1.072c-.03.064-.056.13-.082.2-.011.028-.022.053-.033.08a1.234,1.234,0,0,0-.662-.282,4.806,4.806,0,0,0-.253-1.812.924.924,0,0,0-.565-.642.628.628,0,0,0-.5.086.832.832,0,0,0-.364.543,1.746,1.746,0,0,0,.141.889c.122.351.228.713.323,1.076-.1.03-.214.067-.332.111a2.816,2.816,0,0,0-.832-.867,5.387,5.387,0,0,0-2-.675c-.393-.076-.8-.155-1.211-.2a1.373,1.373,0,0,0-.606.042.689.689,0,0,0-.477.583.808.808,0,0,0,.546.737,5.05,5.05,0,0,0,1.681.385,7.245,7.245,0,0,1,1.044.165,1.544,1.544,0,0,1,.488.2,1.311,1.311,0,0,1,.283.273,1.262,1.262,0,0,0-.156.208,1.659,1.659,0,0,0-.543-.12l-.1-.011a8.831,8.831,0,0,0-2.26.051,3.165,3.165,0,0,0-.944.237A2.527,2.527,0,0,0,15,13.107a.55.55,0,0,0-.035.595.533.533,0,0,0,.4.22,1.48,1.48,0,0,0,.183.011,3.022,3.022,0,0,0,1.117-.29l.126-.05a6.839,6.839,0,0,1,2.456-.519c-.213.039-.381.082-.455.1a4.442,4.442,0,0,0-2.114,1.262h0a2.95,2.95,0,0,0-.774,1.408.725.725,0,0,0,.041.483.635.635,0,0,0,.327.283,1.016,1.016,0,0,0,.4.078,1.527,1.527,0,0,0,.741-.215,4.48,4.48,0,0,0,.986-.834,6.934,6.934,0,0,1,.517-.5,4.343,4.343,0,0,1,1.518-.783l.108-.034a22.316,22.316,0,0,0-6.062,12.112q-.285-2.8-.722-5.578a.568.568,0,0,0,.43.223.534.534,0,0,0,.083-.007c.8-.129,1.165-2.329,1.167-2.351a10.342,10.342,0,0,0-.087-2.618.254.254,0,0,0-.131-.19.435.435,0,0,0-.367-.022.853.853,0,0,0-.425.5c-.055.15-.129.335-.213.543a12.911,12.911,0,0,0-.739,2.226A103.867,103.867,0,0,0,11.024,8.439l.021,0A4.429,4.429,0,0,0,11.2,9c.02.062.039.118.052.166.05.173.1.346.168.513a5.832,5.832,0,0,0,1.162,1.674,8.793,8.793,0,0,1,.782.973c.116.176.326.5.675.5l.045,0a.733.733,0,0,0,.606-.636,2.648,2.648,0,0,0-.1-1.5,4.565,4.565,0,0,0-.72-1.268,7.565,7.565,0,0,0-1.183-1.22,1.959,1.959,0,0,0,.489.12,17.873,17.873,0,0,0,2.681.2c.538,0,1.077-.024,1.612-.073a.5.5,0,0,0,.341-.142.434.434,0,0,0,.076-.446.83.83,0,0,0-.646-.456,15.985,15.985,0,0,0-2.979-.41c-.167-.007-.335-.01-.5,0A7.237,7.237,0,0,0,15.682,5.2a3.458,3.458,0,0,0,.652-1.064A1.525,1.525,0,0,0,16.2,2.8a.574.574,0,0,0-.283-.232.584.584,0,0,0-.412.038,3.184,3.184,0,0,0-1.081.814,7.92,7.92,0,0,0-1.32,1.915l-.023.048a1.547,1.547,0,0,1-.311.48c-.061-.046-.124-.09-.185-.131a3.715,3.715,0,0,0-.385-.22,7.087,7.087,0,0,0,.552-3.814,1.247,1.247,0,0,0-.137-.469A.633.633,0,0,0,12.085.89h0a.736.736,0,0,0-.578.347,3.559,3.559,0,0,0-.615,2.082c-.009.226-.009.454-.009.681a9.636,9.636,0,0,1-.047,1.13,3.246,3.246,0,0,0-.342,0c-.1-.24-.213-.507-.328-.777-.138-.325-.277-.65-.387-.921a2.607,2.607,0,0,0-.41-.757,1.46,1.46,0,0,0-.39-.322A.815.815,0,0,0,8.166,2.3a.866.866,0,0,0-.363.844,2.835,2.835,0,0,0,.537,1.443,6.781,6.781,0,0,0,.779.907,3.029,3.029,0,0,0-.629.44c-.067-.037-.132-.077-.2-.122s-.143-.092-.223-.138a4.88,4.88,0,0,0-3.675-.655A1.518,1.518,0,0,0,3.2,6.057a.576.576,0,0,0,.049.425.613.613,0,0,0,.244.222,2.316,2.316,0,0,0,1.15.261,7.758,7.758,0,0,0,.92-.073l.169-.02A13.049,13.049,0,0,1,7.382,6.79,10.936,10.936,0,0,0,4.364,7.5a2.651,2.651,0,0,0-.783.432,1.2,1.2,0,0,0-.444.894.4.4,0,0,0,.43.432H3.6a3.953,3.953,0,0,0,1.285-.344c.911-.355,1.846-.676,2.787-.96-.06.034-.114.067-.158.1h0a7.576,7.576,0,0,0-2.523,3.411c-.082.18-.329.726.021,1.1a.678.678,0,0,0,.5.2.876.876,0,0,0,.339-.069,1.7,1.7,0,0,0,.55-.429l1.917-2a5.742,5.742,0,0,0,.5-.581l0,.652a3.988,3.988,0,0,0,.122,1.221c.035.111.079.22.123.328a2.63,2.63,0,0,1,.129.362,2.777,2.777,0,0,1,.055.345,1.947,1.947,0,0,0,.172.693,2,2,0,0,0,.591.624.551.551,0,0,0,.334.135.366.366,0,0,0,.189-.053.443.443,0,0,0,.14-.14,1.77,1.77,0,0,0,.245-1.15,5.49,5.49,0,0,0-.139-.755c-.022-.094-.044-.187-.064-.281a6.132,6.132,0,0,1-.128-1.492c0-.094.009-.187.014-.281A4.487,4.487,0,0,0,10.6,9a2.347,2.347,0,0,0-.126-.473l.05-.005A103.336,103.336,0,0,1,13.4,21.858a6.583,6.583,0,0,0-3-1.539h0a16.551,16.551,0,0,0-2.766-.362,9.656,9.656,0,0,1-4-.861A9.9,9.9,0,0,1,.581,15.925a.253.253,0,0,0-.38-.038.622.622,0,0,0-.2.471,1.609,1.609,0,0,0,.59,1,6.627,6.627,0,0,1,1.657,2.3c.058.135.113.273.168.411a4.3,4.3,0,0,0,.778,1.412,4.237,4.237,0,0,0,1.883,1,6.409,6.409,0,0,1,1.209.492,6.023,6.023,0,0,1,.839.634,6.226,6.226,0,0,0,.958.711A3.955,3.955,0,0,0,10,24.767,4.7,4.7,0,0,0,13.2,23.591a1.8,1.8,0,0,0,.378-.505,103.209,103.209,0,0,1,.9,16.632.254.254,0,0,0,.246.26h.007a.253.253,0,0,0,.253-.246A103.9,103.9,0,0,0,14.7,28.9a23.227,23.227,0,0,1,.56-3.766c0,.02,0,.04,0,.06.175,1.223,1.931,1.411,3.093,1.537.265.029.5.054.681.088a4.4,4.4,0,0,0,.82.1,1.974,1.974,0,0,0,.373-.034,3.183,3.183,0,0,0,1.246-.648l.183-.132A7.658,7.658,0,0,1,26.3,24.7l.1,0a2.209,2.209,0,0,0,1.069-.147,1.017,1.017,0,0,0,.524-.648.725.725,0,0,0-.1-.608.253.253,0,0,0-.265-.1,20.029,20.029,0,0,1-5.827.224c-1.123-.066-2.284-.135-3.425-.092h0c-1.474.062-2.4.349-2.842.877-.023.028-.038.058-.058.087A20.815,20.815,0,0,1,21.436,14.19c.039.032.076.064.107.093l.086.081a.614.614,0,0,0-.2.148c-.316.363-.159,1.009-.044,1.481.02.081.038.154.051.224.281,1.443.571,2.935.961,4.383a.463.463,0,0,0,.194.295.366.366,0,0,0,.192.055.525.525,0,0,0,.417-.262,5.283,5.283,0,0,0,.252-4.52,2.2,2.2,0,0,0-.245-.757,1.756,1.756,0,0,0,.357.038,1.7,1.7,0,0,0,.247-.02,3.446,3.446,0,0,0,.837,1.452c.113.145.208.265.254.34A17.843,17.843,0,0,1,25.909,19.1c.181.395.456.991,1.034,1.134a.253.253,0,0,0,.31-.2,4.654,4.654,0,0,0-.634-2.979,7.227,7.227,0,0,0-1.912-2.156c.015-.023.031-.043.045-.068,0-.008.007-.017.012-.026a7.118,7.118,0,0,1,1.164.164,8.068,8.068,0,0,1,1.467.581,7.142,7.142,0,0,0,1.884.68.383.383,0,0,0,.06,0,.4.4,0,0,0,.26-.1.467.467,0,0,0,.16-.358.752.752,0,0,0-.172-.421c-.187-.261-.385-.517-.59-.76ZM13.465,9.721a4.075,4.075,0,0,1,.644,1.126,2.15,2.15,0,0,1,.088,1.217c-.037.151-.108.248-.153.252h0c-.078,0-.206-.2-.255-.269a9.171,9.171,0,0,0-.826-1.031,5.374,5.374,0,0,1-1.07-1.525c-.06-.153-.106-.31-.152-.468-.015-.052-.035-.114-.057-.181a2.581,2.581,0,0,1-.169-.717.1.1,0,0,1,.025,0,.619.619,0,0,1,.195.044,1.763,1.763,0,0,1,.472.286,7.066,7.066,0,0,1,1.261,1.268Zm.77-2.227a15.491,15.491,0,0,1,2.885.4,1.081,1.081,0,0,1,.183.057,17.46,17.46,0,0,1-4.08-.139,1.5,1.5,0,0,1-.344-.082c.043-.024.095-.05.133-.068A2.58,2.58,0,0,1,14.235,7.494Zm-.7-1.894.023-.047A7.405,7.405,0,0,1,14.8,3.76a2.729,2.729,0,0,1,.9-.691.57.57,0,0,0,.058-.023.314.314,0,0,1,.027.035,1.02,1.02,0,0,1,.069.894,3.015,3.015,0,0,1-.564.9,6.158,6.158,0,0,1-1.968,1.763.619.619,0,0,0-.018-.09,1.066,1.066,0,0,0-.168-.336,2.059,2.059,0,0,0,.4-.617ZM11.387,4c0-.22,0-.441.009-.661a3.093,3.093,0,0,1,.512-1.8c.081-.108.143-.146.175-.146a.149.149,0,0,1,.1.08.835.835,0,0,1,.075.285,6.576,6.576,0,0,1-.518,3.549,3.592,3.592,0,0,0-.4-.111A10.121,10.121,0,0,0,11.387,4Zm-2.631.3a2.344,2.344,0,0,1-.449-1.184c-.01-.185.034-.333.111-.378a.346.346,0,0,1,.309.051A.949.949,0,0,1,8.983,3a2.2,2.2,0,0,1,.325.616c.111.275.251.6.391.93.094.22.187.438.272.642a3.216,3.216,0,0,0-.351.092A7.285,7.285,0,0,1,8.756,4.3ZM5.676,6.369l-.172.02a2.945,2.945,0,0,1-1.763-.127c-.035-.02-.048-.03-.051-.03h0A.184.184,0,0,1,3.7,6.166c.093-.425.659-.612.829-.659a4.388,4.388,0,0,1,3.29.606c.071.041.136.083.2.124.038.024.076.049.115.073a13.571,13.571,0,0,0-2.453.059ZM4.662,8.462a3.644,3.644,0,0,1-1.012.287.756.756,0,0,1,.262-.43,2.213,2.213,0,0,1,.637-.344A10.435,10.435,0,0,1,7.8,7.267c0,.041,0,.082.006.123C6.758,7.7,5.713,8.052,4.662,8.462Zm3.945.615a3.3,3.3,0,0,1-.65.838l-1.917,2a1.294,1.294,0,0,1-.383.313.266.266,0,0,1-.275-.018c-.075-.079-.048-.27.073-.538a7.145,7.145,0,0,1,2.337-3.2c.41-.265.773-.35.856-.265.132.133.087.586-.042.863Zm1.7,4.423a1.512,1.512,0,0,1-.437-.446,1.535,1.535,0,0,1-.119-.519,3.3,3.3,0,0,0-.066-.409,3.2,3.2,0,0,0-.152-.432c-.039-.094-.078-.189-.108-.287a3.544,3.544,0,0,1-.1-1.067l.007-1.4a1.077,1.077,0,0,1,.175-.7.126.126,0,0,1,.11-.024.307.307,0,0,1,.167.114s0,0,0,0a.265.265,0,0,0,.1.137,1.72,1.72,0,0,1,.208.595,4.105,4.105,0,0,1,0,.8c-.006.1-.011.2-.015.292a6.67,6.67,0,0,0,.139,1.615c.021.1.043.2.066.292a4.977,4.977,0,0,1,.128.684,1.458,1.458,0,0,1-.108.752ZM9.7,7.715a.627.627,0,0,0-.514.14.7.7,0,0,0-.1.1.666.666,0,0,0-.075-.1.673.673,0,0,0-.578-.177A.756.756,0,0,1,8.319,7.1a1.427,1.427,0,0,1,.4-.691,2.636,2.636,0,0,1,1.729-.782,3.055,3.055,0,0,1,1.862.517,1.138,1.138,0,0,1,.509.542c.036.125-.1.69-.918,1a.67.67,0,0,0-.725.064.475.475,0,0,0-.106.166l-.393.065a2.663,2.663,0,0,1-.474.049A.811.811,0,0,0,9.7,7.715Zm17.9,4.048a2.211,2.211,0,0,1,1.438.364l-.029,0-2.352.171a6.985,6.985,0,0,0-2.114.383c-.02-.048-.042-.1-.064-.144A6.878,6.878,0,0,1,27.6,11.763Zm-3.625-.821a2.3,2.3,0,0,1,.791-.873,1.081,1.081,0,0,1,.5-.232.893.893,0,0,1-.147.248A10.517,10.517,0,0,1,23.854,11.5c-.026-.034-.051-.068-.077-.1a2.7,2.7,0,0,0,.127-.283c.023-.057.045-.115.071-.17ZM21.557,8.992a.331.331,0,0,1,.137-.208.127.127,0,0,1,.1-.023c.052.014.132.08.214.317a4.289,4.289,0,0,1,.221,1.639c-.068.007-.138.019-.21.032-.1-.381-.211-.761-.343-1.143a1.285,1.285,0,0,1-.115-.614Zm-2.089,1.668a7.791,7.791,0,0,0-1.116-.178,4.592,4.592,0,0,1-1.516-.338c-.158-.076-.264-.179-.261-.251,0-.049.065-.11.139-.136a.92.92,0,0,1,.387-.015c.389.04.784.117,1.165.191a4.938,4.938,0,0,1,1.812.6,2.314,2.314,0,0,1,.645.65c-.075.039-.148.081-.219.126a1.83,1.83,0,0,0-.391-.374,2.03,2.03,0,0,0-.647-.274Zm-2.859,2.463-.128.051a2.211,2.211,0,0,1-1.047.246l-.021,0a.54.54,0,0,1,.031-.064,2.037,2.037,0,0,1,.876-.9,2.743,2.743,0,0,1,.8-.193,8.053,8.053,0,0,1,2.129-.051l.12.013c.113.011.377.037.424.106a.079.079,0,0,1,.012.081.262.262,0,0,1-.172.138,1.322,1.322,0,0,1-.317.024H19.26a7.27,7.27,0,0,0-2.651.556ZM20,12.914c.016.025.032.051.05.076-.068,0-.137,0-.206.007A.782.782,0,0,0,20,12.914Zm.259.97a4.785,4.785,0,0,0-1.664.87,7.4,7.4,0,0,0-.556.533,4.022,4.022,0,0,1-.871.746.866.866,0,0,1-.694.111.164.164,0,0,1-.076-.051c0-.01-.014-.043.007-.148a2.457,2.457,0,0,1,.649-1.164h0a4,4,0,0,1,1.875-1.117,2.911,2.911,0,0,1,1.639-.082.113.113,0,0,1,.059.081.147.147,0,0,1-.069.1,1.063,1.063,0,0,1-.3.121Zm2.586,6.424c-.364-1.381-.641-2.808-.912-4.2-.013-.064-.032-.145-.054-.235-.068-.28-.211-.863-.066-1.029a.207.207,0,0,1,.154-.047.633.633,0,0,1,.066,0c.315.032.916,1.029.916,1.411a.255.255,0,0,0,.013.082,4.911,4.911,0,0,1-.118,4.014Zm.292-5.443a3.5,3.5,0,0,1-1.1-.812l-.147-.139a5.813,5.813,0,0,0-.5-.394c-.464-.342-1.1-.81-1.072-1.222.03-.455.851-.819,1.5-.991l.015,0a.248.248,0,0,0,.06-.007.244.244,0,0,0,.062-.029l.072-.016a2.151,2.151,0,0,1,.442-.052,1,1,0,0,1,.471.1,1.469,1.469,0,0,1,.424.386c.073.09.141.183.208.278a.25.25,0,0,0,.046.08s.011.007.015.011a4.847,4.847,0,0,1,.708,1.675,1.6,1.6,0,0,1,.031.644.248.248,0,0,0-.045.123s0,.008,0,.012a.679.679,0,0,1-.025.065.969.969,0,0,1-1.171.284ZM26.178,17.3h0a4.375,4.375,0,0,1,.614,2.284,2.368,2.368,0,0,1-.423-.695,18.343,18.343,0,0,0-1.035-1.931c-.052-.084-.158-.222-.286-.386-.21-.269-.766-.983-.74-1.177.007-.019.035-.082.061-.084h.01C24.787,15.308,25.9,16.794,26.178,17.3Zm1.432-2.209a8.591,8.591,0,0,0-1.559-.615A7.127,7.127,0,0,0,24.9,14.3q.007-.088,0-.174a7.115,7.115,0,0,1,2.607.078,1.964,1.964,0,0,1,.634.255,2.392,2.392,0,0,1,.466.454c.2.233.387.479.566.729.009.013.024.034.04.053a7.29,7.29,0,0,1-1.6-.612Z" transform="translate(0 -0.649)" fill="#6d6d6d"/></g></g><g transform="translate(1224.295 1174.156)"><g transform="translate(0 0)"><path d="M6.609,74.034a1.113,1.113,0,0,0,.708.572,2.826,2.826,0,0,0,.931.081,3.86,3.86,0,0,0,2.891-1.071.874.874,0,0,0,.177-1.033,1.026,1.026,0,0,0-.641-.312,5.916,5.916,0,0,0-2.154-.135C7.788,72.256,6.162,73.028,6.609,74.034Z" transform="translate(-4.409 -48.648)" fill="#ffda73"/><path d="M3.042,61.758a1.354,1.354,0,0,0,1.069-.581.943.943,0,0,0-.385-1.117A2.4,2.4,0,0,0,2.5,59.725a4.432,4.432,0,0,0-1.445.085c-.875.231-1.543.977-.593,1.646A3.511,3.511,0,0,0,3.042,61.758Z" transform="translate(0 -40.291)" fill="#ffda73"/><path d="M8.066,42.978a.9.9,0,0,0,.686.829.814.814,0,0,0,.613-.2,1.52,1.52,0,0,0,.386-.532,2.727,2.727,0,0,0,.26-1.139,1.263,1.263,0,0,0-.149-.669.619.619,0,0,0-.575-.316.91.91,0,0,0-.464.261,2.017,2.017,0,0,0-.756,1.762Z" transform="translate(-5.437 -27.636)" fill="#ffda73"/><path d="M24.739,53.452a1.661,1.661,0,0,0,.961.241,3.011,3.011,0,0,0,2.085-.512,1.11,1.11,0,0,0,.334-.457,1.049,1.049,0,0,0-.312-1.075,1.958,1.958,0,0,0-1.072-.46,2.475,2.475,0,0,0-1.287.119C24.737,51.6,23.907,52.829,24.739,53.452Z" transform="translate(-16.46 -34.523)" fill="#ffda73"/><path d="M36.385,40.234a.637.637,0,0,0,.293.331.749.749,0,0,0,.605-.082,5.021,5.021,0,0,0,1.054-.667,1.646,1.646,0,0,0,.395-.429,1.977,1.977,0,0,0,.17-1.036,1.549,1.549,0,0,0-.211-.919,1.011,1.011,0,0,0-1.149-.259A2.441,2.441,0,0,0,36.385,40.234Z" transform="translate(-24.438 -25.036)" fill="#ffda73"/><path d="M25.931,31.869a1.663,1.663,0,0,0,1.207-.568.762.762,0,0,0,.2-.524.779.779,0,0,0-.267-.483c-.619-.588-2.45-.9-3.125-.215C22.972,31.067,25.238,31.9,25.931,31.869Z" transform="translate(-15.998 -20.035)" fill="#ffda73"/><path d="M18.758,12.853a2.839,2.839,0,0,1-1.039-.823,1.331,1.331,0,0,1-.193-1.266A1.3,1.3,0,0,1,19,10.117a2.274,2.274,0,0,1,1.334,1.062c.251.4.8,1.569.315,1.973-.427.354-1.5-.094-1.892-.3Z" transform="translate(-11.769 -6.804)" fill="#ffda73"/><path d="M16.461,1.959a1.3,1.3,0,0,0,.453.545,1.656,1.656,0,0,0,.928.147.864.864,0,0,0,.433-.092.615.615,0,0,0,.252-.472,1.323,1.323,0,0,0-.7-1.207c-.86-.5-1.866.085-1.364,1.079Z" transform="translate(-11.018 -0.471)" fill="#ffda73"/><path d="M41.577,67.931a5.9,5.9,0,0,0,1.461.3,2.429,2.429,0,0,0,1.7-.387A1.144,1.144,0,0,0,45,66.267a1.5,1.5,0,0,0-.875-.4,4.784,4.784,0,0,0-3.109.4C40,66.862,40.757,67.651,41.577,67.931Z" transform="translate(-27.352 -44.387)" fill="#ffda73"/><path d="M37.872,57.732a2.772,2.772,0,0,1,.337-1.528.919.919,0,0,1,.558-.48.74.74,0,0,1,.619.192,1.719,1.719,0,0,1,.384.547,2.118,2.118,0,0,1,.267.982,2.764,2.764,0,0,1-1.245,1.932c-.76.386-.895-1.142-.92-1.645Z" transform="translate(-25.555 -37.597)" fill="#ffda73"/><path d="M51.967,45.205a1.625,1.625,0,0,0,.646.051,1.836,1.836,0,0,0,.574-.119,1.421,1.421,0,0,0,.727-.785,2.807,2.807,0,0,0,.174-1.077A.608.608,0,0,0,54,42.9a.521.521,0,0,0-.416-.162,2.049,2.049,0,0,0-.857.214,3.028,3.028,0,0,0-1.356.96A.99.99,0,0,0,51.967,45.205Z" transform="translate(-34.612 -28.842)" fill="#ffda73"/><path d="M45.872,35.1a.827.827,0,0,1,.253-.4.793.793,0,0,1,.493-.139,1.586,1.586,0,0,1,1.149.523c.62.685.633,2.24-.572,2.3C46.121,37.442,45.587,35.936,45.872,35.1Z" transform="translate(-30.906 -23.325)" fill="#ffda73"/><path d="M54.66,30.53a1.169,1.169,0,0,0,1.312-.1,2,2,0,0,0,.551-1.528c.022-.926-1.418-1.125-1.972-.556a1.467,1.467,0,0,0,.109,2.186Z" transform="translate(-36.522 -18.914)" fill="#ffda73"/><path d="M11.314,32.785l.023-.084a16.719,16.719,0,0,0,2.387-2.273,2.031,2.031,0,0,0,.9.707,4.35,4.35,0,0,0,1.374.31,3.6,3.6,0,0,0,.826-.049,1.685,1.685,0,0,0,1.282-.828,1.444,1.444,0,0,0-.556-1.77A2.241,2.241,0,0,0,15.8,28.56a5.354,5.354,0,0,0-.887.3,16.077,16.077,0,0,0,1.22-2.171c.028.068.054.135.092.208a2.192,2.192,0,0,0,.4.546,2.13,2.13,0,0,0,1.374.6,2.021,2.021,0,0,0,.378-.015A2.122,2.122,0,0,0,19.9,27a1.454,1.454,0,0,0-.076-1.67,1.562,1.562,0,0,0-.716-.428,3.149,3.149,0,0,0-2.254.15l-.083.04a16.422,16.422,0,0,0,.518-1.894,1.262,1.262,0,0,0,.756.31c.028,0,.057,0,.085,0a1.882,1.882,0,0,0,.9-.2,1.44,1.44,0,0,0,.68-.974,1.324,1.324,0,0,0-.14-.939,1.013,1.013,0,0,0-.909-.5,1.264,1.264,0,0,0-.612.232,5.117,5.117,0,0,0-.493.365c.011-.1.025-.208.034-.313a1.008,1.008,0,0,0,.224-.933,1.818,1.818,0,0,0-1.71-1.156.941.941,0,0,0-.684.955,1.755,1.755,0,0,0,.349.923,1.309,1.309,0,0,0,.83.63.857.857,0,0,0,.091.01.943.943,0,0,0,.172-.013,16.063,16.063,0,0,1-.348,1.964,2.756,2.756,0,0,0-.362-.619,1.43,1.43,0,0,0-.445-.4.857.857,0,0,0-.732-.052.873.873,0,0,0-.34.265,1.943,1.943,0,0,0-.338,1.142,2.157,2.157,0,0,0,.082.921,2.181,2.181,0,0,0,1.129,1.041,1.511,1.511,0,0,0,.209.092,15.4,15.4,0,0,1-.783,1.58,1.509,1.509,0,0,0-.482-1.192,1.02,1.02,0,0,0-1.389.039,1.124,1.124,0,0,0-.233.435,3.923,3.923,0,0,0-.106,1.406,1.452,1.452,0,0,0,.144.654,1.138,1.138,0,0,0,.814.535,15.83,15.83,0,0,1-2.034,2.154,33,33,0,0,0,.983-4.656,20,20,0,0,0,.076-3.969.89.89,0,0,0,.877-.025c.223-.135.445-.271.657-.423a2.014,2.014,0,0,0,.708-.783,1.3,1.3,0,0,0-.219-1.4,1.2,1.2,0,0,0-1.418-.251,1.767,1.767,0,0,0-.619.627l-.007.011-.143.228-.076.12a20.211,20.211,0,0,0-.748-2.936,2.008,2.008,0,0,0,.309.061l.072.006a1.569,1.569,0,0,0,1.206-.527,1.34,1.34,0,0,0,.247-1.124A1.785,1.785,0,0,0,13,15.592a1.13,1.13,0,0,0-1.1-.328,1.268,1.268,0,0,0-.66.6h0a3.249,3.249,0,0,0-.223.432q-.26-.583-.557-1.15a2.88,2.88,0,0,0,.527-.3,2.376,2.376,0,0,0,.769-.873,1.5,1.5,0,0,0,.119-1.223.994.994,0,0,0-1.214-.613,1.285,1.285,0,0,0-.432.289,1.844,1.844,0,0,0-.451.57c0,.009-.025.074-.054.173a3.081,3.081,0,0,0-.293-.811,2.277,2.277,0,0,0-.508-.606A1.982,1.982,0,0,0,7.782,11.2a1.145,1.145,0,0,0-1.212.737,1.386,1.386,0,0,0,.539,1.429,4.638,4.638,0,0,0,1.07.716,1.5,1.5,0,0,0-.713.244.959.959,0,0,0-.078,1.608,1.533,1.533,0,0,0,.867.307,1.957,1.957,0,0,0,.291-.007,2.717,2.717,0,0,0,1.437-.55q.394.774.716,1.58a3.013,3.013,0,0,0-1.053-.339,1.145,1.145,0,0,0-.766.137,1.214,1.214,0,0,0-.443.585,1.035,1.035,0,0,0-.09.58,1.135,1.135,0,0,0,.356.58,2.085,2.085,0,0,0,1.3.761c.037,0,.074,0,.113,0a1.819,1.819,0,0,0,1.179-.577,19.532,19.532,0,0,1,.523,2.244,2.8,2.8,0,0,0-.558-.5,1.856,1.856,0,0,0-1.3-.248,1.36,1.36,0,0,0-1.047.935,1.456,1.456,0,0,0,.619,1.523,1.583,1.583,0,0,0,.825.3,1.315,1.315,0,0,0,.365-.03,2.224,2.224,0,0,0,.308-.1c.049-.019.1-.039.15-.054a2.566,2.566,0,0,1,.317-.071,2.51,2.51,0,0,0,.526-.137h0q.069.8.072,1.61a2.067,2.067,0,0,0-.755-.566,1.79,1.79,0,0,0-1.59.071,2.327,2.327,0,0,0-1.007,1.953,1.136,1.136,0,0,0,.069.541,1.036,1.036,0,0,0,.494.5,1.829,1.829,0,0,0,.761.208,1.855,1.855,0,0,0,1.035-.246,3.3,3.3,0,0,0,.368-.262,2.25,2.25,0,0,1,.335-.234c.061-.032.121-.06.179-.088l.024-.011c-.016.165-.029.33-.049.5a39.385,39.385,0,0,1-1.3,5.783c-.246.882-.491,1.764-.708,2.651-.024.1-.047.2-.071.3a11.674,11.674,0,0,0-2.056-4.333c-.172-.226-.35-.431-.529-.627l.017,0a1.345,1.345,0,0,0,.94-.52,1.327,1.327,0,0,0,.136-1.786,1.147,1.147,0,0,0-.821-.433,1.114,1.114,0,0,0-1.161.8,1.762,1.762,0,0,0-.047.989,6.3,6.3,0,0,1-1.354-1.708,1.514,1.514,0,0,0,.9-.326,1.74,1.74,0,0,0,.519-.54,1.937,1.937,0,0,0,.075-1.42.936.936,0,0,0-.459-.665.816.816,0,0,0-.854.159,2.167,2.167,0,0,0-.505.693c-.044.083-.1.176-.162.274a4.128,4.128,0,0,0-.374.708,4.647,4.647,0,0,0-.874-.416,2.65,2.65,0,0,0-1.261-.1,1.8,1.8,0,0,0-1.147.7,1.042,1.042,0,0,0-.2.844,1.271,1.271,0,0,0,.8.789,5.151,5.151,0,0,0,.953.3,2.62,2.62,0,0,0,.4.056,1.324,1.324,0,0,0,.759-.164,1.8,1.8,0,0,0,.313-.251.734.734,0,0,1,.3-.2,1.025,1.025,0,0,0,.173-.055c.021-.009.037-.02.056-.03a7.6,7.6,0,0,0,1.617,2l.116.115a5.531,5.531,0,0,0-2.507.461h0a2.308,2.308,0,0,0-.923.666,1.235,1.235,0,0,0-.172,1.275,1.467,1.467,0,0,0,.961.707,3.552,3.552,0,0,0,.857.155,2.8,2.8,0,0,0,1.6-.37,4.535,4.535,0,0,0,.377-.262c.088-.066.177-.133.269-.192a1.8,1.8,0,0,1,.355-.153,1.379,1.379,0,0,0,.725-.466,11.168,11.168,0,0,1,1.785,5.038.332.332,0,0,0,.03.106,15.142,15.142,0,0,0,.16,6.687.34.34,0,0,0,.308.244.331.331,0,0,0,.112-.013.339.339,0,0,0,.232-.419c-.667-2.3-.577-4.9.288-8.438.216-.881.459-1.756.7-2.631Zm7-7.347a2.342,2.342,0,0,1,.588.106h0a.922.922,0,0,1,.417.232.808.808,0,0,1-.007.886,1.4,1.4,0,0,1-2.212.3,1.508,1.508,0,0,1-.275-.377.81.81,0,0,1-.135-.565c.041-.12.192-.24.449-.359A2.5,2.5,0,0,1,18.315,25.438Zm.412-3.872a.354.354,0,0,1,.263.174.661.661,0,0,1,.057.459.755.755,0,0,1-.348.516,1.274,1.274,0,0,1-.579.114.6.6,0,0,1-.424-.175.256.256,0,0,1-.066-.222c.015-.1.239-.379.794-.744h0a.649.649,0,0,1,.278-.121h.023Zm-2.9,3.69a1.6,1.6,0,0,1-.812-.682,1.586,1.586,0,0,1-.039-.636,1.378,1.378,0,0,1,.189-.761.214.214,0,0,1,.075-.065.109.109,0,0,1,.047-.006.263.263,0,0,1,.1.031.765.765,0,0,1,.228.215h0a2.107,2.107,0,0,1,.327,1.958.838.838,0,0,1-.12-.054Zm-1.93,3.5a.57.57,0,0,1-.434-.21.915.915,0,0,1-.061-.358,3.379,3.379,0,0,1,.075-1.17.5.5,0,0,1,.091-.185.259.259,0,0,1,.206-.067.417.417,0,0,1,.242.092c.227.192.244.478.246.925l0,.22c.012.45-.016.689-.2.748A.48.48,0,0,1,13.9,28.751Zm3.272.613a.777.777,0,0,1,.323.9,1.123,1.123,0,0,1-.795.462,3.372,3.372,0,0,1-1.829-.223c-.256-.1-.583-.358-.62-.535,0-.022-.012-.059.058-.13a1.224,1.224,0,0,1,.347-.149c.087-.028.17-.056.238-.085l.078-.033a5.763,5.763,0,0,1,.977-.352,1.629,1.629,0,0,1,1.222.142Zm-.461-8.44c-.11-.017-.232-.129-.374-.339a1.142,1.142,0,0,1-.233-.56c0-.127.069-.259.152-.278.25-.058.82.379.916.692a.36.36,0,0,1-.106.313A.434.434,0,0,1,16.71,20.924Zm-3.076-.276a.533.533,0,0,1,.6.114.63.63,0,0,1,.1.662,1.409,1.409,0,0,1-.482.509c-.2.142-.408.269-.62.4-.125.076-.329-.034-.548-.214.026-.061.05-.123.074-.183a3.824,3.824,0,0,1,.361-.652l.146-.232a1.146,1.146,0,0,1,.37-.4Zm-1.523-4.738a.527.527,0,0,1,.433.18,1.128,1.128,0,0,1,.35.569.668.668,0,0,1-.11.552.781.781,0,0,1-.336.221.732.732,0,0,1-.339.055c-.2-.023-.459-.087-.543-.259a1.242,1.242,0,0,1,.256-1.006c.083-.135.182-.278.288-.312ZM9.183,18.335a.656.656,0,0,1-.171-.225.493.493,0,0,1,.049-.2.609.609,0,0,1,.179-.271A.451.451,0,0,1,9.5,17.6l.072.006h0a1.687,1.687,0,0,1,1.29.731c.009.025.026.076-.037.169a1.129,1.129,0,0,1-.733.392C9.778,18.916,9.469,18.625,9.183,18.335ZM9.923,22.4a.791.791,0,0,1-.357-.789.7.7,0,0,1,.53-.452.931.931,0,0,1,.235-.016,1.314,1.314,0,0,1,.586.185,3.776,3.776,0,0,1,.568.554c.1.109.2.222.311.333l-.033.015a1.948,1.948,0,0,1-.389.1,3.255,3.255,0,0,0-.4.091c-.064.02-.127.044-.189.068a1.6,1.6,0,0,1-.215.072.844.844,0,0,1-.648-.159Zm.476-9.11a1.268,1.268,0,0,1,.3-.355.724.724,0,0,1,.2-.149.335.335,0,0,1,.352.221.857.857,0,0,1-.091.671,1.693,1.693,0,0,1-.55.622,4.334,4.334,0,0,1-.431.257,4.786,4.786,0,0,1,.222-1.267l-.308-.142.308.141Zm-2.835-.417c-.218-.2-.424-.49-.35-.719a.5.5,0,0,1,.5-.271h.015a1.345,1.345,0,0,1,.752.387,1.639,1.639,0,0,1,.363.424c.19.346.287.815.207.912A2.4,2.4,0,0,1,7.564,12.869ZM7.8,15.4a.349.349,0,0,1-.12-.145.358.358,0,0,1,.166-.37,1.062,1.062,0,0,1,.646-.137l.046,0a1.2,1.2,0,0,1,.5.116,1.129,1.129,0,0,1,.456.346,1.928,1.928,0,0,1-1.017.348A.961.961,0,0,1,7.8,15.4ZM9.627,26.361a.412.412,0,0,1-.19-.167.589.589,0,0,1-.015-.233,1.773,1.773,0,0,1,.669-1.408,1.049,1.049,0,0,1,.578-.129,1.2,1.2,0,0,1,.407.095h0a1.9,1.9,0,0,1,.856.9.9.9,0,0,1,.059.133,1.279,1.279,0,0,1-.3.17c-.065.031-.133.064-.2.1a2.837,2.837,0,0,0-.44.3,2.618,2.618,0,0,1-.292.21A1.183,1.183,0,0,1,9.627,26.361ZM7.046,28.885a.456.456,0,0,1,.471-.354h.01a.466.466,0,0,1,.329.173.671.671,0,0,1-.1.915c-.353.356-.4.324-.5.248a.911.911,0,0,1-.2-.983ZM5.1,26.464c.068-.112.133-.217.183-.311a1.6,1.6,0,0,1,.339-.488.278.278,0,0,1,.135-.068c.007.005.043.038.089.217a1.341,1.341,0,0,1-.008.921,1.068,1.068,0,0,1-.323.322.823.823,0,0,1-.55.2c-.062-.009-.13-.053-.184-.168a.288.288,0,0,0,.011-.057,3.886,3.886,0,0,1,.309-.571Zm-2.539,1.8A4.5,4.5,0,0,1,1.737,28c-.306-.13-.391-.246-.409-.321a.4.4,0,0,1,.094-.294,1.119,1.119,0,0,1,.716-.423,1.612,1.612,0,0,1,.376-.022,2.34,2.34,0,0,1,.563.106,3.528,3.528,0,0,1,1.023.569.284.284,0,0,0,.03.025l.007.025c-.022.01-.055.023-.1.041s-.076.019-.112.031a1.324,1.324,0,0,0-.489.332,1.246,1.246,0,0,1-.194.162.961.961,0,0,1-.674.027ZM5.94,32.48a3.849,3.849,0,0,1-.32.224,2.358,2.358,0,0,1-1.9.148.865.865,0,0,1-.552-.358.573.573,0,0,1,.1-.565,1.611,1.611,0,0,1,.657-.456A4.185,4.185,0,0,1,6.8,31.215a.569.569,0,0,1,.338.495c.018.137.023.178-.4.328a2.39,2.39,0,0,0-.495.222c-.106.068-.207.144-.309.22Z" transform="translate(-0.436 -7.558)" fill="#6d6d6d"/><path d="M3.551,50.1A.71.71,0,0,0,3,50.625a.806.806,0,0,0,.2.668,2.51,2.51,0,0,0,1.485.83l.085.007a1.022,1.022,0,0,0,.719-.215.579.579,0,0,0,.216-.581c-.138-.643-1.41-1.153-1.576-1.2a1.184,1.184,0,0,0-.576-.034Zm.151.661a.561.561,0,0,1,.246.027,3.068,3.068,0,0,1,1.06.633.492.492,0,0,1-.249.028,1.851,1.851,0,0,1-1.024-.57c-.064-.082-.069-.12-.033-.118Z" transform="translate(-2.016 -33.796)" fill="#6d6d6d"/><path d="M9.767,44.861a1.248,1.248,0,0,0-.083-1.315.749.749,0,0,0-.3-.255.7.7,0,0,0-.744.158,1.146,1.146,0,0,0-.282.5c-.255.8-.2,1.306.166,1.5a.581.581,0,0,0,.244.067A1.32,1.32,0,0,0,9.767,44.861ZM9,44.151s0,0,0,0a.318.318,0,0,1,.135-.2.572.572,0,0,1,.037.587,1.223,1.223,0,0,1-.3.292A2.078,2.078,0,0,1,9,44.151Z" transform="translate(-5.532 -29.182)" fill="#6d6d6d"/><path d="M53.256,32.436a.723.723,0,0,0,.3.081,1.884,1.884,0,0,0,1.11-.428,1.323,1.323,0,0,0,.513-1.269,1.068,1.068,0,0,0-.481-.681.92.92,0,0,0-.725-.119,1.207,1.207,0,0,0-.691.566,2.444,2.444,0,0,0-.368,1.1A.708.708,0,0,0,53.256,32.436Zm.9-1.76a.259.259,0,0,1,.193.04.383.383,0,0,1,.174.239.662.662,0,0,1-.269.6,1.584,1.584,0,0,1-.647.3s-.024.08-.007-.122a1.753,1.753,0,0,1,.265-.793A.583.583,0,0,1,54.153,30.676Z" transform="translate(-35.71 -20.24)" fill="#6d6d6d"/><path d="M47.321,26.808a1.3,1.3,0,0,0-.9-.695h0a.924.924,0,0,0-.5.027.67.67,0,0,0-.432.472.842.842,0,0,0,.122.585l.306.579a1.75,1.75,0,0,0,.3.443.85.85,0,0,0,.555.263.713.713,0,0,0,.11,0,.581.581,0,0,0,.339-.147.631.631,0,0,0,.139-.2,1.523,1.523,0,0,0-.029-1.323Zm-.631.934a1.2,1.2,0,0,1-.181-.282L46.2,26.88a1.179,1.179,0,0,0-.058-.1.29.29,0,0,1,.142,0,.622.622,0,0,1,.429.338.853.853,0,0,1,.039.675A.262.262,0,0,1,46.69,27.741Z" transform="translate(-30.684 -17.608)" fill="#6d6d6d"/><path d="M27.522,5.362a1.515,1.515,0,0,0-.046-1.084.8.8,0,0,0-.621-.518.762.762,0,0,0-.415.085,1.06,1.06,0,0,0-.525.9,1.281,1.281,0,0,0,.522,1.158.641.641,0,0,0,.258.069.822.822,0,0,0,.562-.209A.851.851,0,0,0,27.522,5.362Zm-.93-.582h0a.417.417,0,0,1,.18-.349.265.265,0,0,1,.084.119.824.824,0,0,1,.025.593.235.235,0,0,1-.047.095c-.06.048-.1.061-.088.065a.773.773,0,0,1-.153-.522Z" transform="translate(-17.488 -2.535)" fill="#6d6d6d"/><path d="M18.906,2.057a.608.608,0,0,0-.055-.377,1.127,1.127,0,0,1-.044-.359A1.211,1.211,0,0,0,18.564.5c-.277-.319-.9-.666-1.343-.4a.841.841,0,0,0-.363.852,1.5,1.5,0,0,0,.43.835,3.8,3.8,0,0,0,.636.5.866.866,0,0,0,.4.17l.031,0A.527.527,0,0,0,18.906,2.057Zm-1.13-.746A.864.864,0,0,1,17.53.857a.234.234,0,0,1,.034-.179.789.789,0,0,1,.49.264c.064.074.071.2.076.4a2.591,2.591,0,0,0,.017.274A2.444,2.444,0,0,1,17.777,1.31Z" transform="translate(-11.371 0)" fill="#6d6d6d"/></g></g><g transform="translate(1184.297 1177.486)"><g transform="translate(0 0)"><path d="M59.075,24.979a1.378,1.378,0,0,0,1.254.094L65.1,23.864A25.634,25.634,0,0,0,69.681,22.4c.37-.172.781-.437.792-.845a.844.844,0,0,0-.3-.607,2.707,2.707,0,0,0-2.234-.452,25.282,25.282,0,0,0-5.291,1.472c-.665.238-5.037,1.717-3.577,3.016Z" transform="translate(-42.465 -14.769)" fill="#ffda73"/><path d="M3.914,10.421a8.737,8.737,0,0,0,2.671,5.029,1.806,1.806,0,0,0,1.481.63.3.3,0,0,0,.2-.106.33.33,0,0,0,.044-.172,4.177,4.177,0,0,0-.477-1.877q-.485-1.1-1.049-2.164A7.645,7.645,0,0,0,5.234,9.575c-.825-.735-1.481-.192-1.32.846Z" transform="translate(-2.81 -6.673)" fill="#ffda73"/><path d="M20.48,15.442a1.319,1.319,0,0,0,.232-.057l5.038-1.7a30.366,30.366,0,0,0,4.981-2.022,1.067,1.067,0,0,0,.631-.719.98.98,0,0,0-.806-1,4.159,4.159,0,0,0-1.982.073,24.205,24.205,0,0,0-6.629,2.045A5.629,5.629,0,0,0,19.728,13.8a1.436,1.436,0,0,0-.194.828,18.175,18.175,0,0,0-3.028,2.332,4.648,4.648,0,0,0,.626-2.192,8.63,8.63,0,0,0-1.193-4.041.262.262,0,0,0-.314-.157.289.289,0,0,0-.234.261l-.164,2.074c-.012.144-.033.33-.058.541-.169,1.449-.275,2.8.269,3.417a.755.755,0,0,0,.678.322.58.58,0,0,0,.111-.028.651.651,0,0,0,.225-.147q-.5.475-.954.985a.883.883,0,0,0-.193.219,18.311,18.311,0,0,0-3.159,5.12c-.02.05-.038.1-.058.15a17,17,0,0,0-2.827-9.7.681.681,0,0,0,.249-.345,1.081,1.081,0,0,0-.135-.79L7.11,8C6.7,7.165,5.8,6.619,5.212,6.858c-.215.087-.677.407-.321,1.493A18.531,18.531,0,0,0,6.525,11.7c.126.221.252.439.374.656a3.524,3.524,0,0,0,1.209,1.435,1.262,1.262,0,0,0,.575.159.274.274,0,0,0,.02.044,16.627,16.627,0,0,1,2.567,12.139,18.411,18.411,0,0,0,.107,8.63.289.289,0,0,0,.321.214l.031-.006a.289.289,0,0,0,.208-.352,17.833,17.833,0,0,1-.1-8.37v-.008a17.508,17.508,0,0,1,.845-2.684A17.688,17.688,0,0,1,15.322,19.1a2.8,2.8,0,0,0,.747.656,3.822,3.822,0,0,1,.368.271,2.952,2.952,0,0,0,1.018.536,11.2,11.2,0,0,0,5.284.5q.288-.042.573-.1a.289.289,0,0,0,.151-.485,10.182,10.182,0,0,0-3.773-2.166,9.268,9.268,0,0,0-2.053-.621,5.284,5.284,0,0,0-1.01-.042,17.636,17.636,0,0,1,3.113-2.464.779.779,0,0,0,.741.253ZM20.226,14.1a5.238,5.238,0,0,1,1.992-1.53,23.778,23.778,0,0,1,6.473-1.988c.2-.04.4-.083.612-.113a2.616,2.616,0,0,1,1.093.03c.2.059.416.216.394.349-.018.114-.19.222-.338.3a29.9,29.9,0,0,1-4.887,1.981l-5.037,1.7q-.261.087-.349-.024a.728.728,0,0,1,.048-.713ZM7.4,12.072c-.123-.219-.249-.439-.376-.661a18.157,18.157,0,0,1-1.585-3.24c-.155-.474-.115-.735-.011-.777.218-.084.849.218,1.16.859l2.265,4.652c.05.1.132.272.1.365,0,.017-.016.052-.082.078a.632.632,0,0,1-.482-.06A3.08,3.08,0,0,1,7.4,12.072Z" transform="translate(-3.44 -4.914)" fill="#6d6d6d"/><path d="M8.982,42.339a2.622,2.622,0,0,0,1.351.4.655.655,0,0,0,.309-.127.589.589,0,0,0,.271-.545c-.045-.409-.534-.669-1.031-.9l-.116-.055A9.722,9.722,0,0,0,5.992,40.1a.287.287,0,0,0-.3.219c-.031.125-.052.441.429.667l2.713,1.282.145.072Z" transform="translate(-4.104 -28.969)" fill="#6d6d6d"/><path d="M27.572,27.714l.026,0c1.042-.251,1.417-1.619,1.608-2.627a19.881,19.881,0,0,0,.288-2.156c.032-.409-.119-.7-.4-.774a.29.29,0,0,0-.341.166c-.08.187-.188.42-.31.683-.635,1.367-1.595,3.434-1.181,4.529a.29.29,0,0,0,.312.184Z" transform="translate(-19.621 -15.997)" fill="#6d6d6d"/><path d="M.915,1.8a.826.826,0,0,0,.209-.059.978.978,0,0,0,.548-.688.892.892,0,0,0-.178-.78A.744.744,0,0,0,.772.016,1.009,1.009,0,0,0,.05.685h0a.885.885,0,0,0,.157.872A.806.806,0,0,0,.915,1.8ZM.6.865A.439.439,0,0,1,.887.583a.162.162,0,0,1,.171.07.326.326,0,0,1,.048.276.4.4,0,0,1-.212.28.242.242,0,0,1-.261-.041A.323.323,0,0,1,.6.865Z" transform="translate(0 0)" fill="#6d6d6d"/><path d="M102.853,15.458a1.008,1.008,0,0,0-.889.426.883.883,0,0,0-.107.878.815.815,0,0,0,.823.446l.03,0a.985.985,0,0,0,.7-.492.9.9,0,0,0,.06-.8A.744.744,0,0,0,102.853,15.458Zm.05.97a.439.439,0,0,1-.285.205.244.244,0,0,1-.237-.117.322.322,0,0,1,.056-.3.441.441,0,0,1,.359-.185.163.163,0,0,1,.142.117A.328.328,0,0,1,102.9,16.428Z" transform="translate(-73.535 -11.165)" fill="#6d6d6d"/></g></g></g></svg>