<svg xmlns="http://www.w3.org/2000/svg" width="104.997" height="37.018" viewBox="0 0 104.997 37.018"><g transform="translate(-1131.103 -809.469)"><g transform="translate(1166.103 811.799)"><g transform="translate(0 0)"><path d="M10.029,16.591a7.566,7.566,0,0,1-.749-1.985A.994.994,0,0,1,9.261,14a.357.357,0,0,1,.5-.2.815.815,0,0,1,.653-.8,2.15,2.15,0,0,1,1.1.1,14.76,14.76,0,0,1,1.684.59,2.206,2.206,0,0,1,.588.327,2.392,2.392,0,0,1,.615,1.64,2.149,2.149,0,0,1-.242,1.566,1.936,1.936,0,0,1-.7.5A2.4,2.4,0,0,1,10.029,16.591Z" transform="translate(-6.773 -9.522)" fill="#ffda73"/><path d="M65.356,63.057a1.024,1.024,0,0,0,.026.458.884.884,0,0,0,.231.325,3.011,3.011,0,0,0,1.832.731,1.061,1.061,0,0,0,.767-.145.725.725,0,0,0,.228-.347,1.924,1.924,0,0,0-.213-1.3,3.955,3.955,0,0,0-.787-1.343c-.355-.348-1.093-.67-1.518-.275A3.548,3.548,0,0,0,65.356,63.057Z" transform="translate(-48.002 -44.796)" fill="#ffda73"/><path d="M78.954,42.8a2.08,2.08,0,0,0-.432,1.049,10.766,10.766,0,0,0,.164,4.024c.1.48.3,1.049.783,1.135a.43.43,0,0,0,.274-.032.648.648,0,0,0,.237-.283l.594-1.08a6.821,6.821,0,0,0,1.957.974c.727.225,1.668.256,2.09-.378a1.724,1.724,0,0,0,.068-1.445,5.937,5.937,0,0,0-2.365-3.071c-.734-.509-2.571-1.778-3.371-.893Z" transform="translate(-57.592 -31.214)" fill="#ffda73"/><path d="M4.979,28.924c.209.443.458.868.7,1.278s.482.822.682,1.247a15.641,15.641,0,0,1,.752,2.115c.127.42.254.841.4,1.254a18.626,18.626,0,0,0,2.469,4.563c.084.117.2.289.33.494.992,1.516,2.032,2.987,2.937,2.987a.808.808,0,0,0,.643-.319.557.557,0,0,0,.437.2,1.161,1.161,0,0,0,.75-.356,9.784,9.784,0,0,0,1.413-1.732c.247-.354.481-.689.726-.987.68-.828,1.386-1.648,2.1-2.436a3.468,3.468,0,0,1,1.607-1.2,2.283,2.283,0,0,1,1.727.38,7.233,7.233,0,0,1,1.427,1.343.274.274,0,0,0,.324.067.278.278,0,0,0,.157-.291,8.826,8.826,0,0,0-2.748-5.195,1.637,1.637,0,0,0-.7-.432,1.6,1.6,0,0,0-.891.091,7.029,7.029,0,0,0-4.033,3.458,13.693,13.693,0,0,0-.8,2.122c-.116.368-.232.736-.365,1.1a8.8,8.8,0,0,1-.545,1.124c-.085.156-.17.314-.251.473l.122-10.441a11.538,11.538,0,0,1,2.105-4.763,2.722,2.722,0,0,1,.827-.915.873.873,0,0,1,.967,0,1.391,1.391,0,0,1,.319.537c.123.3.236.611.341.922a1.061,1.061,0,0,0-1.031.573,3.589,3.589,0,0,0-.266,2.346,10.575,10.575,0,0,0,.181,1.186.277.277,0,0,0,.373.2,2.019,2.019,0,0,0,.91-.76l.072.072a2.871,2.871,0,0,0,.641.536,2.587,2.587,0,0,0,1.265.363h.046a.579.579,0,0,0,.608-.639,4.769,4.769,0,0,0-.265-1.652,2.811,2.811,0,0,0,.595,0,.277.277,0,0,0,.235-.358,3.143,3.143,0,0,0-.982-1.33,2.347,2.347,0,0,0-.434-.325,2.319,2.319,0,0,0-1.233-.2l-.129,0c-.126-.389-.261-.775-.415-1.153a1.859,1.859,0,0,0-.471-.747,1.407,1.407,0,0,0-1.607-.059,3.221,3.221,0,0,0-1.011,1.093,19.54,19.54,0,0,0-1.615,2.892l.072-6.167a10.451,10.451,0,0,1,.518-3.813,4.177,4.177,0,0,1,2.828-2.559,2.2,2.2,0,0,1,1.112.008A2.615,2.615,0,0,1,20.034,16a12.235,12.235,0,0,1,2.813,5.874c0,.007.006.012.007.018a.594.594,0,0,0-.057.032,1.942,1.942,0,0,0-.524,1.3,12.255,12.255,0,0,0-.134,2.534,5.239,5.239,0,0,0,.769,2.479.276.276,0,0,0,.232.127.28.28,0,0,0,.081-.012.276.276,0,0,0,.2-.27,1.089,1.089,0,0,1,.33-.625A2.977,2.977,0,0,0,24.07,27a1.772,1.772,0,0,0,.178-.541,2.551,2.551,0,0,0,.746.765,5.98,5.98,0,0,0,2.355.79.468.468,0,0,0,.511-.168.494.494,0,0,0,.056-.374l-.152-.834a2.53,2.53,0,0,1,.259-.006.3.3,0,0,0,.268-.188,1.591,1.591,0,0,0-.284-1.274c-.236-.4-.481-.8-.726-1.2a6.852,6.852,0,0,0,.967.069,9.559,9.559,0,0,0,2.344-.316.277.277,0,0,0,.108-.482,3.692,3.692,0,0,0-.625-.389l-.09-.048c-.342-.184-.674-.385-1.005-.587-.358-.218-.729-.443-1.109-.644a5.57,5.57,0,0,0-2.442-.732h0a4.2,4.2,0,0,0-2.088.649,12.812,12.812,0,0,0-2.883-5.852A3.1,3.1,0,0,0,19.06,14.6a2.754,2.754,0,0,0-1.394-.019,4.7,4.7,0,0,0-3.222,2.893,11.04,11.04,0,0,0-.558,4.012l-.016,1.393a6.044,6.044,0,0,0-.682-1.037A11.819,11.819,0,0,0,11.131,20c-.228-.173-.457-.343-.685-.515a4.537,4.537,0,0,0,.577-.682,2.76,2.76,0,0,0,.323-1.727,4.226,4.226,0,0,0-.967-2.575.445.445,0,0,0-.764.025,1.859,1.859,0,0,0-.252.754,3.549,3.549,0,0,0-.449-.276,4.8,4.8,0,0,0-1.586-.4q-.614-.079-1.233-.143a.408.408,0,0,0-.3.068.394.394,0,0,0-.146.383c0,.036.013.072.019.108-.2-.041-.393-.076-.593-.1a.557.557,0,0,0-.484.13.529.529,0,0,0-.136.343A2.276,2.276,0,0,0,4.7,16.46l.029.067a6.136,6.136,0,0,0,1.543,2.36c-.173.007-.345.011-.517.008l-.1,0a2.164,2.164,0,0,0-1.272.241.277.277,0,0,0,.07.5,6.78,6.78,0,0,1,1.1.49A6.263,6.263,0,0,0,6.94,20.7a3.218,3.218,0,0,0,.757.089,3.366,3.366,0,0,0,1.7-.46,4.8,4.8,0,0,0,.639-.463q.383.287.766.575a11.577,11.577,0,0,1,1.963,1.75,4.391,4.391,0,0,1,1.081,2.666.259.259,0,0,0,0,.035l-.15,12.84c-.519-2.125-1.238-4.118-1.252-4.154A24.426,24.426,0,0,0,9.75,28.549c-.632-.905-1.333-1.777-2.01-2.62-.725-.9-1.475-1.834-2.134-2.8A22.154,22.154,0,0,1,2.6,16.706a.276.276,0,0,0-.538.124c.525,2.963,1.225,5.938,1.909,8.851a16.182,16.182,0,0,0,1.009,3.243Zm16.169.531c0,.076-.015.109-.011.115a.4.4,0,0,1-.057,0,1.955,1.955,0,0,1-1.029-.291,2.446,2.446,0,0,1-.516-.441c-.064-.065-.129-.13-.195-.193a3.289,3.289,0,0,0,.193-.675,6.025,6.025,0,0,0,.094-.987,3.135,3.135,0,0,0,1.166.707,4.55,4.55,0,0,1,.355,1.761Zm2.433-2.717a2.558,2.558,0,0,1-.266.374c-.076.094-.155.193-.226.3a5.11,5.11,0,0,1-.4-1.693,11.779,11.779,0,0,1,.13-2.419c.1-.734.249-.891.313-.925.031.007.2.091.363,1.049l.014.078c.044.24.076.486.109.734.024.182.049.367.078.554.017.248.032.714.037.953A2.08,2.08,0,0,1,23.581,26.738Zm3.01-2.842q.48.769.939,1.552a1.644,1.644,0,0,1,.257.632,3.294,3.294,0,0,0-.4.045.277.277,0,0,0-.225.323l.183,1a5.241,5.241,0,0,1-2.048-.689,2.736,2.736,0,0,1-1.055-2.032.24.24,0,0,0-.006-.041c-.027-.173-.05-.35-.074-.528-.034-.256-.068-.511-.113-.759l-.013-.074a4.287,4.287,0,0,0-.248-.947c.054.014.1.027.127.036a4.235,4.235,0,0,1,.5.285c.128.081.253.167.379.253.2.139.407.277.621.4a4.883,4.883,0,0,0,1.141.467A.272.272,0,0,0,26.591,23.9ZM6.233,15.032c.342.037.685.077,1.025.121a4.28,4.28,0,0,1,1.407.348,4.158,4.158,0,0,1,.621.413c-.019.168-.037.34-.052.512a4.543,4.543,0,0,0-1.506-.781c-.473-.168-.955-.338-1.45-.476A1.227,1.227,0,0,1,6.233,15.032ZM5.238,16.3l-.029-.067a2.137,2.137,0,0,1-.217-.772l.019,0a12.105,12.105,0,0,1,2.532.7,2.759,2.759,0,0,1,1.643,1.068,5.914,5.914,0,0,0,.207,1.78,5.561,5.561,0,0,0-1.518-.2c-.227,0-.455.011-.682.022A4.669,4.669,0,0,1,5.238,16.3Zm5.194,22.757a18.069,18.069,0,0,1-2.4-4.427c-.144-.4-.269-.817-.393-1.229a15.99,15.99,0,0,0-.781-2.19c-.21-.448-.462-.877-.706-1.292s-.478-.813-.676-1.234A15.965,15.965,0,0,1,4.5,25.519q-.237-1.007-.474-2.031c1.9,4.091,3.691,8.274,5.422,12.329l2.07,4.846c-.3-.421-.572-.829-.744-1.091C10.635,39.361,10.519,39.182,10.432,39.061ZM13.5,42.142a.287.287,0,0,1-.219.165.363.363,0,0,1-.092-.005,22.9,22.9,0,0,0-.424-5.92c.622,2.205,1.205,4.956.736,5.76Zm1.208-.172c-.023.021-.045.038-.067.055a31.66,31.66,0,0,1,3.4-6.213,7.3,7.3,0,0,1,1.388-1.58,2.693,2.693,0,0,1,1.921-.665,2.6,2.6,0,0,1,1.663,1.169,8.288,8.288,0,0,1,.606,1.315l-1.28-1.308a1.045,1.045,0,0,0-.416-.3.906.906,0,0,0-.426,0A5.3,5.3,0,0,0,18.8,36.147a18.816,18.816,0,0,0-3.578,5.282,5.046,5.046,0,0,1-.516.541Zm8.239-6.022a2.837,2.837,0,0,0-2.157-.452A3.963,3.963,0,0,0,18.9,36.858c-.718.795-1.43,1.621-2.115,2.456-.258.315-.509.674-.752,1.021-.137.2-.277.4-.419.589A18.682,18.682,0,0,1,18.9,36.243a5.179,5.179,0,0,1,2.617-1.668.787.787,0,0,1,.361,0,.926.926,0,0,1,.358.264l1.385,1.415a.065.065,0,0,0,.065.014c.042.128.084.256.12.386a5.35,5.35,0,0,0-.861-.708ZM22.4,33.811a2.045,2.045,0,0,0-1.041-.382,2.953,2.953,0,0,0-2.017.694,7.42,7.42,0,0,0-1.416,1.609,31.826,31.826,0,0,0-3.487,6.423c-.073.033-.119.036-.132.028a.113.113,0,0,1-.033-.053l2.28-4.617A14.6,14.6,0,0,1,18.5,34.3a5.027,5.027,0,0,1,2.747-1.708c.064.049.126.1.183.155a8.192,8.192,0,0,1,.966,1.067Zm-7.444,6.25a9.316,9.316,0,0,0,.578-1.2c.135-.37.254-.746.372-1.122a13.328,13.328,0,0,1,.767-2.038,6.472,6.472,0,0,1,3.713-3.183,1.136,1.136,0,0,1,.587-.079.572.572,0,0,1,.118.045A5.221,5.221,0,0,0,18.4,34.207a14.7,14.7,0,0,0-1.97,3.245l-2.185,4.423a1.548,1.548,0,0,1,.034-.253A6.249,6.249,0,0,1,14.957,40.061Zm-3.028-6.277.015.04s0,0,0,0a22.756,22.756,0,0,1,1.11,8.436c-.025-.01-.05-.021-.077-.035q-.078-.147-.146-.3A31.377,31.377,0,0,0,8.25,27.46c.36.461.714.929,1.046,1.405A23.9,23.9,0,0,1,11.929,33.785ZM7.308,26.276l.029.037a31.248,31.248,0,0,1,5.329,15.213c-.1-.267-.186-.54-.272-.808l-.028-.089A66.791,66.791,0,0,0,7.48,29.1q-.237-.437-.477-.872c-.394-.718-.8-1.461-1.169-2.209-.418-.855-.823-1.8-1.275-2.969-.1-.265-.22-.541-.334-.808-.15-.352-.3-.711-.433-1.07A22.727,22.727,0,0,0,5.148,23.44c.672.985,1.428,1.926,2.16,2.836ZM3.424,20.435A11.693,11.693,0,0,0,4.1,22.3c.119.278.231.541.333.8.453,1.175.86,2.121,1.279,2.98.368.751.777,1.495,1.172,2.215q.239.435.476.871a66.663,66.663,0,0,1,4.877,11.5l.028.089a11.6,11.6,0,0,0,.432,1.205c0,.024,0,.048,0,.072a6.219,6.219,0,0,1-.832-.907L9.575,35.763c-1.816-4.253-3.694-8.648-5.7-12.929-.207-.9-.409-1.807-.6-2.715.049.107.1.211.153.317Z" transform="translate(-1.511 -10.506)" fill="#6d6d6d"/><path d="M94.166,70.774a.988.988,0,0,0-.741-.8,1.567,1.567,0,0,0-1.47.577h0a.982.982,0,0,0-.259.642.887.887,0,0,0,.348.661,1.337,1.337,0,0,0,.849.283,1.687,1.687,0,0,0,.333-.034,1.276,1.276,0,0,0,.686-.355A1.081,1.081,0,0,0,94.166,70.774Zm-.656.6a.751.751,0,0,1-.393.192.881.881,0,0,1-.724-.136.349.349,0,0,1-.144-.241.476.476,0,0,1,.134-.282,1.043,1.043,0,0,1,.916-.389.447.447,0,0,1,.327.383A.529.529,0,0,1,93.51,71.371Z" transform="translate(-67.361 -51.385)" fill="#6d6d6d"/><path d="M108.808,65.546a.8.8,0,0,0-.648-.679.742.742,0,0,0-.8.462.734.734,0,0,0,.21.888.918.918,0,0,0,.552.2.651.651,0,0,0,.307-.074A.749.749,0,0,0,108.808,65.546Zm-.636.312a.3.3,0,0,1-.263-.079.189.189,0,0,1-.039-.23c.006-.015.063-.138.176-.138l.026,0a.259.259,0,0,1,.19.223A.2.2,0,0,1,108.172,65.858Z" transform="translate(-78.82 -47.645)" fill="#6d6d6d"/><path d="M107.2,76.884a.635.635,0,0,0-.258.791.713.713,0,0,0,.668.478h.008a.641.641,0,0,0,.521-.267.665.665,0,0,0,.026-.891A.809.809,0,0,0,107.2,76.884Zm.485.685a.07.07,0,0,1-.076.03.164.164,0,0,1-.144-.1c-.036-.105,0-.124.018-.138a.271.271,0,0,1,.276.014C107.774,77.387,107.76,77.461,107.685,77.569Z" transform="translate(-78.528 -56.399)" fill="#6d6d6d"/><path d="M16.238.01a1.244,1.244,0,0,0-.981.966,1,1,0,0,0,.425,1.078h0a1.475,1.475,0,0,0,.554.2,1.794,1.794,0,0,0,.318.03.981.981,0,0,0,.652-.213,1.078,1.078,0,0,0,.18-1.307A1.151,1.151,0,0,0,16.238.01Zm.613,1.641a.67.67,0,0,1-.517.062.925.925,0,0,1-.347-.12.455.455,0,0,1-.19-.5.7.7,0,0,1,.528-.537c.218-.039.446.2.558.441C16.986,1.223,17.017,1.513,16.851,1.651Z" transform="translate(-11.189 0)" fill="#6d6d6d"/><path d="M.867,6.015a.917.917,0,0,0,.865-.635.862.862,0,0,0-.4-.939.83.83,0,0,0-1-.015.907.907,0,0,0-.306.928A.867.867,0,0,0,.719,6a.827.827,0,0,0,.148.013Zm-.3-.8a.348.348,0,0,1,.116-.361.176.176,0,0,1,.113-.036.434.434,0,0,1,.227.079c.115.077.213.212.18.322a.36.36,0,0,1-.384.236h0A.312.312,0,0,1,.565,5.218Z" transform="translate(0 -3.135)" fill="#6d6d6d"/></g></g><g transform="translate(1131.103 809.625)"><g transform="translate(0 0)"><path d="M11.678,80.405a1.2,1.2,0,0,0,1.234.433,2.7,2.7,0,0,0,1.2-.673,7.664,7.664,0,0,0,2.254-3.4A1.373,1.373,0,0,0,16.444,76a.964.964,0,0,0-.683-.636,2.014,2.014,0,0,0-.967.01C12.906,75.773,10.272,78.278,11.678,80.405Z" transform="translate(-7.538 -50.319)" fill="#ffda73"/><path d="M3.948,57.38a7.919,7.919,0,0,0,3.277-.619c.475-.188.994-.476,1.1-.977a1.3,1.3,0,0,0-.251-.938,4.53,4.53,0,0,0-1.9-1.495,10.871,10.871,0,0,0-2.351-.816c-1.433-.319-3.884.055-3.821,2.01.059,1.83,2.424,2.761,3.947,2.835Z" transform="translate(0 -35.035)" fill="#ffda73"/><path d="M18.793,14.019a8.441,8.441,0,0,0,1.76.74,3.271,3.271,0,0,0,1.855.1A1.5,1.5,0,0,0,23.523,13.5a2.281,2.281,0,0,0-.972-1.517,8.29,8.29,0,0,0-2.588-1.723c-1.025-.366-2.781-.38-3.114.941-.313,1.239,1.015,2.293,1.944,2.814Z" transform="translate(-11.227 -6.716)" fill="#ffda73"/><path d="M37.273,5.9a2.874,2.874,0,0,0,.361,1.185,1.211,1.211,0,0,0,1.028.6A1.83,1.83,0,0,0,39.8,6.984,11.174,11.174,0,0,0,41.371,5.02a4.4,4.4,0,0,0,.668-2.391,2.5,2.5,0,0,0-.446-1.373A1.654,1.654,0,0,0,40.358.564a2.064,2.064,0,0,0-.875.2C37.274,1.705,36.992,3.733,37.273,5.9Z" transform="translate(-24.845 -0.376)" fill="#ffda73"/><path d="M17.284,28.859c0-.072,0-.144,0-.216a25.582,25.582,0,0,0,.046-6.945c-.176-1.433-.447-2.857-.762-4.268a11.931,11.931,0,0,1,1.843-3.992c.563.019,1.148-.007,1.723-.038a1.783,1.783,0,0,0,.092.791,6.259,6.259,0,0,0,1.31,2.689l0,0a.477.477,0,0,0,.257.155.428.428,0,0,0,.165,0,.5.5,0,0,0,.38-.409,2.638,2.638,0,0,0-.023-1,4.763,4.763,0,0,0-.27-1.1,3.653,3.653,0,0,0-.8-1.184c.343-.011.682-.012,1.005.006h.018a.913.913,0,0,0,.271.417,3.2,3.2,0,0,0,2.258.387l.223-.014a2.233,2.233,0,0,0,.3-.03,1.021,1.021,0,0,0,.361-.134.694.694,0,0,0,.283-.888.827.827,0,0,0-.284-.294,2.712,2.712,0,0,0-1.226-.568,2.514,2.514,0,0,0-.73.051l.062.34-.094-.334a2.682,2.682,0,0,0-1.224.448.336.336,0,0,0-.179-.069,18.858,18.858,0,0,0-2.059.04c-.433.024-.873.046-1.3.051a11.781,11.781,0,0,1,2.192-2.073,1.46,1.46,0,0,0,.951.109,2.472,2.472,0,0,0,.6-.2,2.958,2.958,0,0,0,1.237-1.156,3.821,3.821,0,0,0,.09-3.773,1.191,1.191,0,0,0-.614-.592,1.146,1.146,0,0,0-.8.058,3.483,3.483,0,0,0-2.016,2.41,4.49,4.49,0,0,0,.08,2.624,12.572,12.572,0,0,0-2.734,2.765l0,.007a12.786,12.786,0,0,0-1.666,3.152c-.317-1.3-.662-2.588-1-3.857-.431-1.6-.87-3.246-1.245-4.889.024,0,.048.011.073.014,2.192.262,3.654-2.672,4.123-4.261a2.576,2.576,0,0,0,.134-1.075,1.225,1.225,0,0,0-.754-1.01c-.039-.014-.08-.025-.122-.037C17.441.966,17.411.958,17.4.966c0-.018,0-.041,0-.057a1.289,1.289,0,0,0-.01-.2A.9.9,0,0,0,16.466,0a1.673,1.673,0,0,0-.892.346A5.825,5.825,0,0,0,13.335,3.34a5.8,5.8,0,0,0-.221,2.465c-.068-.087-.134-.174-.2-.257a6.666,6.666,0,0,0-.506-.617A9.9,9.9,0,0,0,9.685,2.91a3.163,3.163,0,0,0-1.331-.369,1.6,1.6,0,0,0-1.365.67,1.713,1.713,0,0,0-.1,1.508A3.86,3.86,0,0,0,8.033,6.287,8.2,8.2,0,0,0,11.056,8a3.174,3.174,0,0,0,1.492.157,1.96,1.96,0,0,0,.243-.06,1.66,1.66,0,0,0,.6-.33c.365,1.565.782,3.128,1.191,4.648a68.749,68.749,0,0,1,2.06,9.373,26.42,26.42,0,0,1,.17,4.665A8.125,8.125,0,0,0,14.8,23.7a16.432,16.432,0,0,0-2.119-1.6,2.993,2.993,0,0,0,.875-1.02,9.1,9.1,0,0,0,.744-1.561,1.229,1.229,0,0,0-.006-1.168.64.64,0,0,0-.366-.256.743.743,0,0,0-.759.355h0a6.51,6.51,0,0,0-1.264,2.331l-.018.067a2.429,2.429,0,0,0-.11.678l-.293-.182q-.5-.308-.987-.623a1.509,1.509,0,0,0,.342-.4,2.155,2.155,0,0,0,.341-1.017,3.517,3.517,0,0,0-.369-1.732,6.661,6.661,0,0,0-1.5-2.092.861.861,0,0,0-1.124-.213.843.843,0,0,0-.271.411,3.851,3.851,0,0,0,.23,2.9c.08.173.212.44.384.732A15.256,15.256,0,0,0,5.463,17.83,4.837,4.837,0,0,0,3.6,17.489a2.2,2.2,0,0,0-1.774.966,2.181,2.181,0,0,0,.3,2.508,4.026,4.026,0,0,0,2.12,1.2,8.378,8.378,0,0,0,3.412.189l.189-.032a3.941,3.941,0,0,0,1.639-.647,1.784,1.784,0,0,0,.483-.478c.381.247.766.489,1.152.729a26.263,26.263,0,0,1,2.7,1.837,12.116,12.116,0,0,0-4.624.954c-.867-.221-2.09.612-2.672,1.01l-.05.033h0a3.784,3.784,0,0,0-1.268,1.3A2.187,2.187,0,0,0,5.1,29.026a2.06,2.06,0,0,0,2.416.934,3.434,3.434,0,0,0,1.842-1.739c.5-.944.959-2.2.482-3q.331-.118.672-.227a2.368,2.368,0,0,0-.066.245,4.525,4.525,0,0,0-.032,1.438,2.032,2.032,0,0,0,.892,1.693.861.861,0,0,0,.566.108.64.64,0,0,0,.256-.107.83.83,0,0,0,.252-.316,3.467,3.467,0,0,0,.24-2.418,3.538,3.538,0,0,0-.458-1.059,6.606,6.606,0,0,1,2.55,0A6.011,6.011,0,0,1,16.6,28.59a15.615,15.615,0,0,1-3.14,7.549.346.346,0,0,0,.537.436,16.155,16.155,0,0,0,3.237-7.558.336.336,0,0,0,.053-.158Zm4.769-12.443-.259.229.255-.233,0,0Zm-.641-1.62a4.174,4.174,0,0,1,.224.946c.009.054.017.11.025.164a6.767,6.767,0,0,1-.765-1.9l-.017-.065A3.207,3.207,0,0,1,21.412,14.8Zm1.915-5.721a2.3,2.3,0,0,1-.942.891,1.941,1.941,0,0,1-.573.161,5.394,5.394,0,0,0,1.28-2.2,10.009,10.009,0,0,0,.4-1.718,3.167,3.167,0,0,1-.169,2.869ZM21.251,7.71h0a2.783,2.783,0,0,1,1.594-1.935,1.026,1.026,0,0,1,.176-.053.291.291,0,0,1,.143,0,.474.474,0,0,1,.192.2,9.829,9.829,0,0,1-.429,1.946,5.06,5.06,0,0,1-1.355,2.246.38.38,0,0,1-.27-.2,3.72,3.72,0,0,1-.052-2.2Zm3.133,5.2a2.161,2.161,0,0,1,.906.447c.02.014.057.041.031.029a.768.768,0,0,1-.328.059l-.234.014c-.5.033-1.429.094-1.736-.2a.506.506,0,0,1-.051-.054,2.419,2.419,0,0,1,.833-.245l.017,0,.033-.006a1.887,1.887,0,0,1,.528-.044ZM17.354,1.661a.551.551,0,0,1,.3.45,1.974,1.974,0,0,1-.113.787c-.453,1.535-1.742,3.881-3.3,3.771.25-.237.479-.5.7-.75a8.159,8.159,0,0,0,.944-1.232,8.292,8.292,0,0,0,.643-1.567A7.978,7.978,0,0,1,17.155,1.6c.044.016.086.028.122.038l.077.023Zm-3.36,1.893h0A5.129,5.129,0,0,1,15.964.917a1.055,1.055,0,0,1,.518-.226c.105,0,.214.064.222.119a.491.491,0,0,1,0,.088.749.749,0,0,0,.1.45A.58.58,0,0,0,17,1.521a8.241,8.241,0,0,0-.634,1.545A8.1,8.1,0,0,1,15.733,4.6a7.95,7.95,0,0,1-.926,1.206,9.475,9.475,0,0,1-.787.827.883.883,0,0,1-.136-.064,3.832,3.832,0,0,0-.064-.709A5.053,5.053,0,0,1,13.994,3.554ZM11.26,7.334A7.488,7.488,0,0,1,8.5,5.771,3.2,3.2,0,0,1,7.54,4.489a1.051,1.051,0,0,1,.03-.9.847.847,0,0,1,.563-.336,1.153,1.153,0,0,1,.216-.019,2.538,2.538,0,0,1,1.035.3,9.233,9.233,0,0,1,2.533,1.882,6.187,6.187,0,0,1,.448.551,6.715,6.715,0,0,0,.785.915.761.761,0,0,1-.57.552A2.285,2.285,0,0,1,11.26,7.334Zm1.3,13.69.02-.077a5.873,5.873,0,0,1,1.137-2.073c.017-.021.032-.039.045-.053a1.121,1.121,0,0,1-.1.44,8.485,8.485,0,0,1-.7,1.473,4.993,4.993,0,0,1-.48.666,3.053,3.053,0,0,1,.083-.376Zm-6.224-.119a5.465,5.465,0,0,1-3.257-1.142,1.481,1.481,0,0,1-.484-.936,4.111,4.111,0,0,0,1.172.58c1.833.585,3.81,1.123,5.486,1.492a8.155,8.155,0,0,1-2.916.006Zm2.446-2.62a3.208,3.208,0,0,1-.205-2.381.466.466,0,0,0,.027-.081.618.618,0,0,1,.243.155,5.963,5.963,0,0,1,1.339,1.873,2.85,2.85,0,0,1,.309,1.392,1.475,1.475,0,0,1-.228.691,2.064,2.064,0,0,1-.137.191.74.74,0,0,1-.066-.041,5.086,5.086,0,0,1-1.282-1.8ZM3.41,18.208a1.881,1.881,0,0,1,.233-.028,4.153,4.153,0,0,1,1.593.3,14.561,14.561,0,0,1,3.649,1.891,3.653,3.653,0,0,1,.462.369c-1.684-.368-3.68-.909-5.532-1.5A3.553,3.553,0,0,1,2.593,18.6a1.606,1.606,0,0,1,.816-.394Zm4.143,3.464A7.669,7.669,0,0,1,4.425,21.5a3.367,3.367,0,0,1-1.77-.982,1.517,1.517,0,0,1-.241-1.7l.005-.006a1.576,1.576,0,0,0,.536,1.075,5.6,5.6,0,0,0,3.356,1.188,9.091,9.091,0,0,0,2.713.048l.063-.014-.009.007a3.468,3.468,0,0,1-1.525.555Zm4.4,4.138a2.766,2.766,0,0,1-.188,1.931.445.445,0,0,0-.027.056.27.27,0,0,1-.1-.034c-.29-.16-.466-.542-.539-1.167a3.7,3.7,0,0,1,.02-1.214,1.086,1.086,0,0,1,.187-.453.465.465,0,0,1,.127-.121A1.794,1.794,0,0,1,11.95,25.81ZM5.811,27.392a3.144,3.144,0,0,1,1.05-1.058l.05-.034a5.321,5.321,0,0,1,1.782-.912.493.493,0,0,1,.492.1c.006.007.01.018.016.026a2.177,2.177,0,0,1-.174.947,4.781,4.781,0,0,1-.7,1.112A4.5,4.5,0,0,1,7.04,28.765a2.056,2.056,0,0,1-1.084.267,1.036,1.036,0,0,1-.237-.309,1.491,1.491,0,0,1,.092-1.331ZM7.3,29.3a1.455,1.455,0,0,1-1.114-.1,2.077,2.077,0,0,0,.228-.026,2.368,2.368,0,0,0,.71-.256A4.646,4.646,0,0,0,8.46,27.68a4.933,4.933,0,0,0,.725-1.154,2.6,2.6,0,0,0,.157-.532,4.222,4.222,0,0,1-.6,1.9A2.771,2.771,0,0,1,7.3,29.3Z" transform="translate(-1.039 0)" fill="#6d6d6d"/></g></g><g transform="translate(1206.103 809.469)"><g transform="translate(0 0)"><path d="M67.654,59.36a9.955,9.955,0,0,1,2.795-.771,6.874,6.874,0,0,1,4.226.333c.3.157.622.43.574.768-.042.3-.347.479-.618.613a23.424,23.424,0,0,1-3.846,1.628,7.849,7.849,0,0,1-4.128.179C64.517,61.553,66.655,59.841,67.654,59.36Z" transform="translate(-45.257 -40.217)" fill="#ffda73"/><path d="M58.026,42.287a2.058,2.058,0,0,0-.688-.9.881.881,0,0,0-1.061.035,1.414,1.414,0,0,0-.313.757c-.23,1.1-.611,2.172-.761,3.288-.168,1.247.553,5.062,2.446,3.169,1.456-1.456,1.16-4.687.377-6.352Z" transform="translate(-37.987 -28.385)" fill="#ffda73"/><path d="M11.2,57.549a7.232,7.232,0,0,0-1.709-.756,3.676,3.676,0,0,0-3.33.862c-.173.162-.342.407-.234.618a.575.575,0,0,0,.163.175,7.537,7.537,0,0,0,6.494,1.4c2.244-.579-.7-1.92-1.385-2.3Z" transform="translate(-4.056 -39.029)" fill="#ffda73"/><path d="M45.294,29.17a1.327,1.327,0,0,1,.631.143,1.019,1.019,0,0,1,.206,1.381,2.915,2.915,0,0,1-1.215.94,43.06,43.06,0,0,1-4.33,2.01c-.751.288-2.843.777-2.46-.843.235-1,2.286-2.112,3.116-2.57a7.8,7.8,0,0,1,4.053-1.061Z" transform="translate(-26.215 -20.078)" fill="#ffda73"/><path d="M7.827,11.273l.207.023a6.361,6.361,0,0,0,.71.057,1.2,1.2,0,0,0,.588-.12,9.907,9.907,0,0,1,.913,3.216l-.038-.031A7.251,7.251,0,0,0,7.56,13.048a6.323,6.323,0,0,0-3.294-.01,3.385,3.385,0,0,0-1.82,1.095.55.55,0,0,0-.089.519.443.443,0,0,0,.318.3c.233.053.605.178.876.269.167.056.3.1.346.11.513.117,1.037.217,1.556.3a22.2,22.2,0,0,0,3.188.261c.117,0,.252.014.393.027.186.017.383.035.578.035a1.68,1.68,0,0,0,.723-.134l0,0a18.418,18.418,0,0,1-.228,3.127c-.046.3-.1.6-.154.9A3.606,3.606,0,0,0,8.641,18.82L8.428,18.7A6.55,6.55,0,0,0,5,17.779a2.4,2.4,0,0,0-2.014.889.8.8,0,0,0-.176.413.739.739,0,0,0,.451.722,14.641,14.641,0,0,0,5.7,1.285c.089.008.2.017.319.017a1.4,1.4,0,0,0,.431-.059c-.136.629-.282,1.254-.426,1.869q-.128.545-.254,1.1c-.166-.138-.34-.259-.5-.369l-.072-.049h0a4.3,4.3,0,0,0-5.432.444.324.324,0,0,0,.093.543,6.272,6.272,0,0,0,1.313.41c.054.01.1.019.142.03a10.242,10.242,0,0,0,1.572.288l.065.006c.261.025.643.062,1.052.062A3.39,3.39,0,0,0,8.8,25.085c-.2.955-.375,1.921-.481,2.893-.4,3.69.388,6.862,2.223,8.93a.3.3,0,0,0,.322.1.31.31,0,0,0,.049.009.334.334,0,0,0,.053,0,.324.324,0,0,0,.268-.373,7.645,7.645,0,0,1,.521-3.823,15.331,15.331,0,0,1,2.87-4.886c.462-.53.971-1.041,1.464-1.534.516-.517,1.049-1.051,1.538-1.616a15.573,15.573,0,0,0,2.2-3.327.979.979,0,0,0,.36.188,6.372,6.372,0,0,0,3.135-.07c1.109-.232,2.221-.52,3.305-.858a5.71,5.71,0,0,0,2.145-1.05.744.744,0,0,0,.31-.679c-.031-.189-.164-.441-.624-.568a7.594,7.594,0,0,0-2.464-.171,13.3,13.3,0,0,0-3.494.6,11.814,11.814,0,0,0-1.67.669,7.782,7.782,0,0,0-.079-2.026,14.044,14.044,0,0,0-.667-2.764,2.571,2.571,0,0,0-.594-1.049.521.521,0,0,0-.341-.16c-.218-.015-.428.115-.509.477l-.417,1.836a8.158,8.158,0,0,0-.261,1.722c0,.026,0,2.625.9,3.353a.891.891,0,0,0,.416.192,14.912,14.912,0,0,1-2.138,3.259c-.473.548-1,1.074-1.505,1.582s-1.017,1.019-1.494,1.566a15.978,15.978,0,0,0-2.992,5.092,9.3,9.3,0,0,0-.628,3.227c-1.786-2.552-1.753-5.905-1.551-7.771.034-.317.078-.633.126-.95a.994.994,0,0,0,.285.039,2.1,2.1,0,0,0,.288-.023c.041-.005.079-.011.11-.013a10.538,10.538,0,0,0,1.938-.3,11.428,11.428,0,0,0,3.659-1.658.682.682,0,0,0,.242-.254.782.782,0,0,0-.32-.953,2.933,2.933,0,0,0-2.528-.386,8.721,8.721,0,0,0-2.245,1.095,5.672,5.672,0,0,0-1.142.847c.167-.819.357-1.631.544-2.43.121-.515.241-1.039.358-1.565a2.475,2.475,0,0,0,1.3.29,4.592,4.592,0,0,0,.891-.082,8.267,8.267,0,0,0,2.588-1.271,6.517,6.517,0,0,0,2.384-2.487.891.891,0,0,0,.059-.813.535.535,0,0,0-.35-.241,7.107,7.107,0,0,0-2.824-.057,4.807,4.807,0,0,0-1.906.635,6.542,6.542,0,0,0-1.681,1.659c.005-.032.012-.064.017-.1a17.608,17.608,0,0,0,.166-4.4,1.275,1.275,0,0,0,.276.031,3.958,3.958,0,0,0,1.217-.283c.1-.036.2-.07.29-.1a30.479,30.479,0,0,0,6.652-2.992.735.735,0,0,0,.347-.382.636.636,0,0,0-.044-.519.89.89,0,0,0-.554-.418,3.312,3.312,0,0,0-1.585.118,17.168,17.168,0,0,0-3.768,1.245,7.007,7.007,0,0,0-2.927,2.532,10.071,10.071,0,0,0-1.092-3.275,3.5,3.5,0,0,1,.912-1.2,6.632,6.632,0,0,0,.726-.812A22.811,22.811,0,0,0,13.1,5.472c.806-1.645,1.492-3.258,1.047-4.9A.754.754,0,0,0,13.742.04a.734.734,0,0,0-.5.013A40,40,0,0,0,9.352,2.937c-2.434,2.025-1.212,3.522-.645,6.5A6.306,6.306,0,0,0,6.863,8.66a12.933,12.933,0,0,0-4.205-.476c-.954.05-2.184.3-2.627,1.231a.325.325,0,0,0,.009.3c.164.294,7.713,1.552,7.786,1.559Zm1.191,9.169a14.141,14.141,0,0,1-5.455-1.215c-.078-.041-.1-.077-.1-.088a.22.22,0,0,1,.047-.08,1.777,1.777,0,0,1,1.508-.631,5.963,5.963,0,0,1,3.089.835c.067.039.144.081.229.127a2.876,2.876,0,0,1,1.121.858c.053.108.063.166.072.177A1.148,1.148,0,0,1,9.018,20.441Zm11.232.491a.32.32,0,0,0-.011-.04A20.836,20.836,0,0,1,28.111,19.2Zm6.177-.842c-1.064.331-2.157.615-3.246.842a6.079,6.079,0,0,1-2.691.113l7.582-1.67A6.054,6.054,0,0,1,26.427,20.09Zm-3.713-.636a12.15,12.15,0,0,1,3.31-.563,7.158,7.158,0,0,1,2.24.145,21,21,0,0,0-7.923,1.638,1.43,1.43,0,0,0,.124-.149,7.085,7.085,0,0,1,2.249-1.071Zm-2.605-1.825a4.213,4.213,0,0,1-.133,2.458c-.067.061-.132.124-.193.19a18,18,0,0,0-.193-4.954,13.679,13.679,0,0,1,.519,2.306Zm-1.5-.075a7.613,7.613,0,0,1,.245-1.585l.366-1.6c.009.014.014.031.023.045a17.844,17.844,0,0,1,.367,5.986.833.833,0,0,1-.137.044.222.222,0,0,1-.207-.052c-.474-.384-.665-2.068-.657-2.842Zm-4.561-5.641a16.639,16.639,0,0,1,3.628-1.193,4.058,4.058,0,0,1,.939-.155,1.428,1.428,0,0,1,.338.038.553.553,0,0,1,.143.08.354.354,0,0,1-.072.049,29.817,29.817,0,0,1-6.512,2.929c-.095.03-.2.066-.31.1a6.234,6.234,0,0,1-.682.207,6.676,6.676,0,0,1,2.526-2.059ZM15,24.608a10.79,10.79,0,0,1-3.45,1.565,9.933,9.933,0,0,1-1.818.279c-.024,0-.058.006-.087.01a12.446,12.446,0,0,0,4.916-2.195,1.919,1.919,0,0,1,.346.195C14.981,24.515,15.025,24.592,15,24.608ZM9.794,25.989a4.855,4.855,0,0,1,1.062-.789,8.247,8.247,0,0,1,2.074-1.021,2.861,2.861,0,0,1,.736-.1,2.229,2.229,0,0,1,.727.121,12.694,12.694,0,0,1-4.886,2.131,3.737,3.737,0,0,1,.286-.341h0Z" transform="translate(0 0)" fill="#6d6d6d"/></g></g></g></svg>