<?xml version="1.0" encoding="UTF-8"?><svg xmlns="http://www.w3.org/2000/svg" viewBox="0 0 69.25424 99.56237"><defs><style>.cls-1{isolation:isolate;}.cls-2{fill:#ffda73;mix-blend-mode:multiply;}.cls-2,.cls-3{stroke-width:0px;}.cls-3{fill:#6d6d6d;}</style></defs><g class="cls-1"><g id="_レイヤー_2"><g id="Object"><path class="cls-2" d="M15.45579,22.57998c-1.3633-1.356-2.9205-2.4985-4.4711-3.6355-2.3711-1.7385-4.7422-3.477-7.1133-5.2156-.2714-.1989-.5881-.4087-.9175-.3398-.2565.0536-.4472.2644-.6076.4716-2.8673,3.7028-1.6774,9.1221.4965,13.2701,1.6747,3.1955,3.852,6.127,6.4274,8.6536,2.469,2.4222,5.2835,4.4591,8.0861,6.4861,5.3028,3.8352,5.7756-1.3115,4.982-5.1968-1.0874-5.3241-2.9465-10.5786-6.8825-14.4937Z"/><path class="cls-2" d="M38.04089,26.17288c.8702-5.445.443-11.0401-.7034-16.4338-.2338-1.0998-.892-2.476-1.9996-2.2826-.4039.0705-.7338.3527-1.0363.6298-5.7549,5.2716-9.3336,12.7511-10.1616,20.4843-.4099,3.8279-.3622,8.2986,1.008,11.9515,2.0164,5.3752,5.5528,1.5198,7.8349-1.6538,2.6856-3.7347,4.3347-8.1691,5.058-12.6954Z"/><path class="cls-2" d="M47.13829,51.38808c2.174,2.0443,4.3603,4.1024,6.142,6.4964,1.8859,2.534,3.2979,5.4382,3.9814,8.5221.2714,1.2242.3406,2.7165-.6311,3.509-1.0995.8969-2.7293.297-3.999-.3362-4.5401-2.2641-9.3073-4.7942-11.8476-9.1857-1.04-1.7978-1.6414-3.8113-2.1771-5.818-.5887-2.2051-1.4055-6.4228,1.2602-7.7758,2.6325-1.3363,5.5738,2.992,7.2712,4.5882Z"/><path class="cls-2" d="M50.20019,35.46668c1.7422-4.0882.92-8.8531-.8106-12.9463-.6979-1.6504-1.6688-3.366-3.3314-4.0342-.8226,3.3135-1.1384,6.7903-2.5584,9.8952-1.472,3.2184-10.444,12.7318-5.9409,16.3288,4.2627,3.4049,11.3976-6.3249,12.6413-9.2435Z"/><path class="cls-3" d="M14.49699,4.44818c-.1217-.102-.3512-.313-.676-.4206-.8883-.2977-1.6229.3001-1.8619.497-2.6091,2.118-5.5544,4.9462-6.2041,8.5373l-1.4383-.6671c-.4806-.2232-1.2063-.5588-2.0343-.3772-.8168.1777-1.8403.8561-2.0804,3.0707-.8998,8.377,1.234,15.9296,5.8554,20.7216,1.8889,1.9629,4.1633,3.4558,6.358,4.9007.7397.4868,1.4799.9727,2.2042,1.4773,2.8605,1.9917,4.9902,3.9106,6.0888,6.8172.0083.0247.018.0507.0283.076,1.3881,3.7392,1.6241,7.8866.7228,12.0612-.6373-.9161-1.4582-1.8118-2.2685-2.6459l-.2384-.247.0015.0011c-5.1237-5.3435-10.2851-10.2783-17.1003-12.0243-.3451-.0877-.7118.0046-.9707.2488-.2597.242-.378.6009-.3129.9505.5073,2.7424,2.2,4.9797,3.6921,6.9518,2.1812,2.8822,4.4348,5.8612,7.2481,8.3126.0414.0362.0829.0722.1243.1084,2.3317,2.0054,5.542,4.4251,8.1511,4.1205-.6479,2.0209-1.2945,4.1015-1.6838,6.2433-1.6794,9.234,1.9191,19.3504,8.9899,25.5153.2563.2233.5188.4427.7844.6554.4496.361,1.1048.2879,1.4658-.1603.3602-.4503.32-1.1227-.1616-1.4657-5.2577-4.2163-8.6117-10.7363-9.2811-17.4597,2.7798,1.1683,7.4797-1.9126,8.8878-2.9127,3.3167-2.3576,5.6071-5.8584,6.2874-9.6001.067-.3711-.0653-.7553-.359-.9882-.2885-.2394-.684-.3061-1.0349-.1731l-5.4414,2.0622c-2.289.8657-4.6538,1.7628-6.7054,3.3043l-.0007.0008c-.3059.2303-.7841.6465-1.2918,1.1828.4091-2.0608,1.0614-4.1156,1.7021-6.1081.3593-1.1168.7081-2.2366,1.0296-3.3642,1.7923-3.2369,3.8264-6.563,6.4308-9.4831,2.5282-2.8315,5.3733-4.9642,8.3192-6.246-.0042.1597-.0001.3254.0137.4954.6326,7.6172,5.4199,14.8025,12.2148,18.3162,2.1276,1.0973,3.9712,1.1233,5.1928.0723,1.3898-1.1976,1.4827-3.265.2601-5.8218-1.0936-2.2894-2.38-4.3797-3.8114-6.2641l8.2504,1.8264c1.036.2305,2.1069.4675,3.2302.5297.3143.0175,1.1492.0637,1.7338-.545.4202-.4264.5064-.9805.5424-1.2139.4294-2.7298-.4953-5.6221-2.4109-7.6272,2.6878-1.8537,4.815-4.1412,6.1964-6.7576.2575-.4846.0806-1.0871-.3763-1.3746-5.4379-3.3291-12.4069-3.9045-18.3498-1.6554.7271-2.1529,1.1287-4.6242,1.2521-7.708.1732-4.2879-.9136-7.1585-3.2347-8.5108-.2984-.1752-.6637-.1899-.9761-.0422-.3115.1497-.5295.443-.5812.7843-.698,4.5893-2.2241,8.9604-4.5338,12.9912-.2714.4723-.5542.9455-.8376,1.4223-1.5841,2.6472-3.2206,5.3852-3.1817,8.5873-.0001.0092.0005.018-.0004.0251-3.7302,1.3015-7.3394,3.8241-10.4672,7.328-1.429,1.6026-2.6829,3.3101-3.8231,5.0506.2041-3.1666-.1961-6.2703-1.2216-9.1653.189-.571.3554-1.1476.5102-1.7271,2.0081-.6515,3.9021-1.9601,5.9327-4.1169,7.7379-8.2245,10.3683-20.8914,6.5461-31.5162-.1116-.3121-.4166-1.1425-1.2497-1.4138-1.0073-.3286-1.806.4081-2.0686.6503-.1454.1341-.2838.2746-.4267.411.0811-1.3407-.0413-2.6709-.4091-3.6624-.7704-2.0748-2.1546-3.8203-3.4063-5.2533-1.5645-1.7868-2.8574-1.5676-3.491-1.2745-.5327.2484-.8714.6649-1.1585,1.0775-.3079.4447-.5944.9138-.8762,1.3888l-2.6645-2.5473c-.9105-.8951-1.7177-.7158-2.0972-.5252-.3371.1665-.5322.4245-.6463.5708-.9884,1.327-1.6406,2.8887-1.9014,4.5151l-.9005-.7932ZM27.57859,75.63498c-2.5152,1.7883-5.7989,3.2777-6.939,2.6741-.1688-.0894-.2759-.1784-.3607-.2664,4.4738-1.427,8.5243-4.0432,11.6776-7.5129-.9743,1.9762-2.4768,3.7544-4.3779,5.1052ZM20.74749,77.35518c.1787-.171.3559-.3434.5338-.5165.987-.9584,2.0078-1.9497,3.1528-2.6651,1.1221-.7016,2.3068-1.3541,3.4533-1.9843,1.3293-.7318,2.6913-1.4821,3.9911-2.3288-2.9883,3.4029-6.8501,6.0075-11.131,7.4947ZM28.97879,70.58438l1.9156-.7269c-1.0727.662-2.1751,1.2773-3.259,1.8743-1.1513.6356-2.343,1.2901-3.476,2.001-1.1921.7447-2.2347,1.7547-3.2413,2.7325-.273.2652-.5493.5187-.8239.777.201-1.1402,1.6333-2.8385,2.6923-3.6355,1.814-1.365,4.0397-2.2079,6.1923-3.0224ZM54.53949,49.35138c-.8168.242-1.658.4544-2.5233.6335-.5946.1229-1.4379.0912-2.3558-.0489.4751-.0279.9464-.069,1.4095-.117,1.1641-.1212,2.3196-.2871,3.4696-.4676ZM53.52399,61.88288c.283.5924,1.1386,2.5851.2591,3.3427-.7467.6428-2.2585-.0271-2.8748-.3457-6.1614-3.1869-10.5193-9.7155-11.0939-16.6338-.0133-.1643-.0093-.3052-.0073-.4129,1.1019.4584,2.1728,1.0203,3.2087,1.6728.0212.0192.0414.0386.0632.0578.33.2877.7504.5627,1.2254.8208,3.7154,2.7025,6.9005,6.6433,9.2196,11.4983ZM63.27909,54.99708c-.0267-.0003-.0557-.0013-.0912-.0038-.9522-.0511-1.9383-.2707-2.8935-.4824l-10.8241-2.3958c-.0295-.0065-.0575.0023-.087-.0016-.0417-.0441-.0854-.0846-.1273-.1282,1.1919.1851,2.3223.2201,3.1835.042,3.2207-.6673,6.1497-1.7633,8.6861-3.2026,1.6772,1.5049,2.4766,3.8223,2.1535,6.1724ZM57.39419,48.33528c-2.0986.3869-4.2299.7413-6.3787.9636-1.2126.1264-2.4781.2059-3.7176.081-.7285-.2298-1.4103-.5027-1.9638-.7981-.1669-.1192-.3325-.2409-.5014-.3556,2.035.0715,4.0297-.2209,5.7226-.5494,5.2774-1.0222,10.3443-2.7909,15.1035-5.2556-1.993,2.46-4.8318,4.4822-8.2646,5.9141ZM62.59599,39.21568c-.9914.0767-1.9777.267-2.9021.4733-4.1452.9238-8.2603,2.1097-12.2831,3.5169.6546-.742,1.2483-1.5707,1.7585-2.4812.0109-.0052.0228-.0039.0336-.0095,4.0808-2.1369,8.9429-2.6221,13.3931-1.4995ZM40.40109,45.23438l-.0015-.0013c.0319-2.5489,1.419-4.8709,2.8864-7.3256.2914-.4859.5815-.9703.8578-1.4546,2.112-3.6833,3.601-7.637,4.4425-11.7744.7564,1.1955,1.0893,3.0133.9923,5.4323-.1268,3.1752-.5571,5.6264-1.3517,7.7183-.9727,2.5591-2.5798,4.638-4.5275,5.8528-.6378.4-1.3299.723-2.0618,1.0666-.3824.1784-.7717.3617-1.1593.5585-.0241-.025-.0495-.0484-.0772-.0726ZM42.52069,46.63528c.7564-.3534,1.5379-.7198,2.2837-1.1852.6291-.3927,1.2242-.863,1.7848-1.3911,4.319-1.5581,8.7504-2.8654,13.2174-3.8612,1.4978-.3348,3.0515-.619,4.5193-.4496.8459.3023,1.6725.6586,2.4658,1.0839-.1284.2072-.268.4093-.4074.6116-4.9939,2.7097-10.3414,4.6385-15.9289,5.7219-1.9165.3711-4.2233.6943-6.5176.4757-.5244-.3242-1.0514-.6425-1.5925-.9225.0588-.0272.1182-.055.1754-.0835ZM17.44829,59.69278l.0016.0014.246.2535c.7631.7862,2.6917,2.7865,2.7841,3.9884-.0331.1122-.0476.2235-.0428.3365-1.7189-.0288-3.3176-1.173-4.7999-2.4653-.0369-.0323-.0737-.0643-.109-.0951-2.5479-2.2417-5.0264-4.6282-7.3651-7.0911-.7604-.8007-1.4779-1.7127-2.2366-2.6793-.8333-1.0604-1.6874-2.1326-2.6092-3.0647,5.3602,2.0072,9.756,6.2532,14.1309,10.8157ZM12.99549,61.21898c-2.6739-2.3422-4.9227-5.2614-7.0705-8.0983-.6252-.8266-1.2786-1.7097-1.8531-2.6372.4915.5808.9735,1.1808,1.4445,1.7799.7334.9338,1.4913,1.8986,2.2688,2.7167,2.3503,2.4746,4.8389,4.8713,7.3976,7.1223.0383.0334.0751.0655.1119.0976,1.4211,1.239,2.9546,2.3425,4.6365,2.555-.7645.3258-2.6221.1754-6.9357-3.536ZM20.13719,12.19488c1.2468,1.0979,2.5359,2.2338,3.2472,3.667,1.2512,2.5212.6041,5.6196-.2464,8.8438-.3309.9284-.6233,1.8709-.8761,2.826-.3227-.8344-.6758-1.6585-1.0718-2.4647-.2934-.5969-.5964-1.1495-.9059-1.6777-.0823-3.0295-1.4047-5.9849-2.7655-8.5442-.3684-.6926-.7429-1.3474-1.1084-1.9846-1.1932-2.0838-2.2297-3.9139-2.6454-6.2791l6.3723,5.6135ZM33.38069,12.56198c.1205,1.7433.1853,3.5021.1925,5.2474.0151,3.8456-.2727,6.8924-.9073,9.5843-1.2154,5.1673-3.9475,9.9088-7.7771,13.5638,2.538-4.0789,4.105-9.8848,5.2168-14.7008.3055-1.3231.5921-2.6276.8768-3.9177.7323-3.3289,1.4306-6.4959,2.3776-9.7572.0069-.0065.0138-.0133.0207-.0198ZM30.47249,22.22668c-.2833,1.2886-.5701,2.5902-.8755,3.9134-1.1232,4.8671-2.7145,10.7513-5.2955,14.7696.2016-3.1086-.0604-6.2397-.7737-9.2741.0006-.0036.0031-.0064.0036-.01.322-2.148.8615-4.2496,1.5893-6.279.002-.0067.0072-.0115.009-.0183.0025-.0092.0051-.0193.0076-.0285,1.6077-4.4624,4.1559-8.5621,7.4783-11.9792-.8262,2.9659-1.4747,5.8702-2.1431,8.9061ZM12.75169,16.39138c-.3259-.8355-.3965-1.7908-.4542-2.6021-.1856-2.6372-.2455-5.1676.9439-7.1204.4367,2.4699,1.5455,4.4076,2.7163,6.4506.3621.6318.7349,1.2822,1.1001,1.9694,1.189,2.2363,2.3583,4.7765,2.6522,7.3792-.6237-.9501-1.2803-1.7905-1.9872-2.5133-1.452-1.4882-3.1954-2.6139-4.9711-3.5634ZM12.64259,6.66508c-1.1099,2.0338-1.0486,4.5486-.8634,7.161.0478.6867.108,1.4703.3128,2.2219-.9511-.4851-1.9026-.9301-2.8152-1.3528l-1.5431-.7158c.2644-2.9064,2.6274-5.385,4.9089-7.3143ZM15.80959,40.47598c-.7385-.513-1.4932-1.0104-2.248-1.5077-2.2-1.448-4.2759-2.8123-6.0046-4.6057C3.36729,30.01688,1.44259,23.07348,2.27559,15.31218c.0965-.8976.3454-1.2357.4514-1.258.1435-.0316.5287.1462.7134.2316l4.9602,2.3004c2.4811,1.1504,5.0368,2.336,7.0746,4.1128.2608.2273.513.4647.7574.7143,1.134,1.1588,2.1441,2.6552,3.0869,4.5724,3.0162,6.1409,3.7561,13.2505,2.1261,19.8659-1.3574-2.1139-3.2777-3.7341-5.636-5.3756ZM27.72779,41.39088c-1.3504,1.4359-2.6052,2.4336-3.8589,3.069.1314-.7265.2335-1.4566.313-2.1893,4.4542-3.8348,7.644-9.0319,8.9907-14.7579.6455-2.7323.9372-5.8177.9213-9.7057-.0076-1.8999-.0973-3.8113-.2378-5.7041.0019-.0018.0037-.0039.0057-.0055,3.5187,9.8889,1.0593,21.6501-6.134,29.2935ZM26.66299,3.40908c1.1278,1.2899,2.3685,2.8469,3.0213,4.6044.5646,1.5243.3318,4.4482-.463,5.971-1.1402,1.3797-2.1712,2.8432-3.0884,4.3744-.0798-1.1681-.3393-2.3319-.8814-3.424-.8937-1.8004-2.4031-3.1297-3.7351-4.3032l-1.101-.97c1.627-1.1579,2.6423-2.8949,3.6237-4.5875.4044-.6994.8089-1.3986,1.258-2.0472.1516-.2201.2606-.3453.32-.3731.0712-.0352.4572.0826,1.0459.7552ZM17.35489,6.86698c-.0062-1.6409.4984-3.2697,1.3455-4.5852l2.9189,2.7905c-.7954,1.313-1.6419,2.4742-2.8332,3.1543l-1.448-1.2756c.0024-.0292.0169-.0543.0168-.084Z"/></g></g></g></svg>