<?xml version="1.0" encoding="UTF-8"?><svg xmlns="http://www.w3.org/2000/svg" viewBox="0 0 113.04167 121.92254"><defs><style>.cls-1{isolation:isolate;}.cls-2{fill:#ffda73;mix-blend-mode:multiply;}.cls-2,.cls-3{stroke-width:0px;}.cls-3{fill:#6d6d6d;}</style></defs><g class="cls-1"><g id="_レイヤー_2"><g id="Object"><path class="cls-2" d="M12.27062,26.63444c-1.3496-2.308-2.1678-4.8867-2.8222-7.479-.1906-.7553-.3648-1.5725-.0736-2.295.2913-.7225,1.2521-1.2162,1.8792-.754-.1448-1.402,1.0934-2.6507,2.4593-2.9982,1.366-.3476,2.8052-.0138,4.1612.3709,2.1569.6119,4.2767,1.3544,6.344,2.2221.7821.3283,1.5687.6818,2.2151,1.2311,1.7202,1.4616,2.085,3.9329,2.3184,6.1781.2113,2.0324.3481,4.2931-.9132,5.9007-.6722.8568-1.6578,1.4022-2.6358,1.8811-5.4998,2.693-9.9144.9028-12.9324-4.2578Z"/><path class="cls-2" d="M65.39222,68.80744c-.0622.5775-.0987,1.1778.0987,1.7241.1715.475.5077.8725.8713,1.223,1.8182,1.7531,4.3879,2.5218,6.9028,2.7561,1.002.0934,2.1049.0822,2.8917-.5452.4141-.3302.6971-.8051.8595-1.3093.5185-1.6093-.1462-3.3358-.8008-4.8947-.7624-1.8157-1.5592-3.683-2.966-5.061-1.3386-1.3111-4.1173-2.5257-5.7217-1.0361-1.5283,1.419-1.9267,5.2021-2.1355,7.1431Z"/><path class="cls-2" d="M80.49172,43.64194c-.9683,1.0705-1.3696,2.5307-1.6262,3.9511-.9046,5.0081-.3863,10.174.619,15.1628.3647,1.8094,1.1348,3.9511,2.9517,4.2766.3478.0623.7208.0431,1.0337-.1211.4175-.219.6671-.6547.8943-1.0677l2.2383-4.0701c2.2391,1.6096,4.7396,2.8547,7.3735,3.6715,2.7379.8491,6.2863.9638,7.8735-1.4232,1.0403-1.5646.8051-3.6469.2576-5.4442-1.4607-4.7948-4.8436-8.7447-8.913-11.5706-2.7639-1.9193-9.6865-6.6994-12.7024-3.3651Z"/><path class="cls-3" d="M13.06792,69.40034c.7879,1.6693,1.7264,3.2694,2.6363,4.8156.8939,1.5228,1.818,3.0965,2.5713,4.6986,1.1888,2.5336,2.0257,5.2981,2.8339,7.9711.4783,1.5839.9567,3.1678,1.5084,4.7241,1.9687,5.5506,5.0122,11.1754,9.3017,17.1953.3154.4417.7367,1.0891,1.2417,1.8607,3.7377,5.7124,7.6586,11.2568,11.0665,11.2568.1425,0,.283-.0101.4233-.0294.8021-.1121,1.4797-.523,2.0007-1.1715.1538.1704.3222.3244.5219.4406.2563.1486.633.2952,1.1236.2952.7085,0,1.6552-.3043,2.8256-1.3416,2.0176-1.7895,3.6992-4.1978,5.3257-6.5257.9324-1.3345,1.8139-2.5957,2.7362-3.7184,2.5609-3.1208,5.2218-6.2091,7.9049-9.1783,1.8506-2.0491,3.7073-3.9362,6.0564-4.5083,1.9746-.4794,4.3445.0438,6.5085,1.4322,2.0723,1.3335,3.7539,3.2287,5.3784,5.061.3055.3471.8062.4519,1.2196.2534.4172-.1944.6576-.6402.5923-1.0962-1.1033-7.4958-4.7821-14.448-10.3559-19.5742-.7024-.6463-1.5432-1.3578-2.6506-1.6296-1.1767-.286-2.3088-.0061-3.359.341-6.5329,2.1518-12.0723,6.9003-15.1972,13.029-1.3091,2.5702-2.1804,5.3287-3.0212,7.9976-.4376,1.3864-.8753,2.7738-1.3741,4.1368-.5028,1.3762-1.2561,2.7656-2.0521,4.2364-.3187.5884-.6389,1.1832-.9471,1.7829l.4585-39.3408c.6139-6.1636,4.2562-12.2467,7.9334-17.9488.853-1.3202,1.7956-2.674,3.1149-3.4496,1.0768-.6301,2.6688-.8327,3.642.003.5395.4652.8774,1.2215,1.203,2.0226.4636,1.1415.8876,2.304,1.2844,3.4745-1.5302-.0394-2.815.4091-3.884,2.1605-1.484,2.4257-1.3478,4.9388-1.0015,8.8404.1201,1.3548.3378,2.7748.6818,4.4676.063.3023.2545.5608.5253.7084.1547.0835.3257.1252.4967.1252.1303,0,.2606-.0245.3848-.0733,1.3594-.54,2.528-1.5409,3.4308-2.8654.0898.0909.1805.1805.2701.2718.7105.7268,1.4475,1.478,2.4147,2.0195,1.6163.9069,3.2185,1.367,4.7678,1.367.0589,0,.1159-.0009.1751-.002.3622-.0092.7897-.0499,1.2091-.2881.9893-.5669,1.0587-1.7385,1.0811-2.1192.1199-1.9137-.3624-4.2847-.9989-6.2244.7418.0798,1.4919.0949,2.2406.0163.3096-.0326.5904-.2036.7614-.4652s.218-.5863.1223-.8846c-.6596-2.0928-2.2394-3.7081-3.699-5.0131-.4806-.4295-1.0038-.8794-1.6348-1.2245-1.5147-.8306-3.1759-.7879-4.6458-.7411-.1631.0046-.3247.0058-.4872.0093-.4756-1.4646-.9853-2.9215-1.5648-4.3455-.4092-1.0046-.8815-2.049-1.7731-2.8165-1.535-1.3222-4.0288-1.4138-6.0565-.2209-1.7142,1.0068-2.8665,2.6527-3.811,4.1174-2.2557,3.4959-4.4933,7.137-6.0872,10.8971l.2709-23.237c.057-4.8126.1161-9.7881,1.9524-14.3665,1.5512-3.869,5.1667-8.4333,10.6552-9.6425,1.5656-.3451,3.015-.337,4.1917.0285,1.7446.5405,3.0923,1.8973,4.2874,3.2837,5.5311,6.4178,9.1958,14.0713,10.5982,22.1331.0046.0257.0211.0448.0272.0697-.0724.0395-.1468.0722-.2164.1206-1.2887.8978-1.7325,3.0923-1.9746,4.9042-.4072,3.0384-.7492,6.2967-.5051,9.5489.2728,3.6409,1.246,6.7842,2.8971,9.3422.1954.3033.5271.4774.8754.4774.1018,0,.2036-.0153.3052-.0458.446-.1364.7473-.5527.737-1.0189-.0163-.7838.5661-1.5116,1.2419-2.3534.4316-.5385.8793-1.0943,1.2193-1.7355.3483-.6535.5539-1.3436.672-2.0379.6859,1.0841,1.592,2.0664,2.8113,2.8838,2.7096,1.8159,5.9994,2.4887,8.874,2.9783,1.1177.1842,1.653-.2402,1.9258-.6341.3644-.5415.2565-1.1472.2097-1.4078l-.5741-3.1432c.3259-.0244.6577-.0326.9753-.0235.4437-.0417.8631-.2768,1.0117-.7084.6392-1.8892-.4722-3.7825-1.0687-4.7994-.8909-1.5178-1.8119-3.0185-2.7347-4.5182,1.1686.1661,2.3803.2594,3.6424.2594,2.7484,0,5.7106-.395,8.8334-1.1889.3807-.0967.6759-.399.7614-.7828.0857-.3848-.0529-.7838-.3562-1.0332-.7431-.6086-1.5634-1.0443-2.3555-1.4657l-.3378-.1812c-1.2887-.6921-2.5386-1.4526-3.7886-2.2119-1.3498-.8204-2.7462-1.6683-4.1796-2.4256-3.3855-1.7854-6.3964-2.6873-9.2016-2.7585h-.0165c-.5643,0-6.0926.5827-7.867,2.446-1.5968-8.0325-5.3336-15.6368-10.8621-22.0517-1.4005-1.6215-3.0049-3.2175-5.2522-3.9128-1.5208-.4713-3.3388-.4957-5.2544-.0732-5.2566,1.1573-9.9082,5.3348-12.1417,10.9026-1.9806,4.9399-2.0457,10.3469-2.1027,15.1178l-.0613,5.2485c-.756-1.4512-1.655-2.7988-2.5691-3.907-2.1641-2.619-4.788-4.6884-7.7461-6.9298-.858-.6503-1.7203-1.2943-2.5817-1.9399.8784-.8765,1.6567-1.7785,2.1745-2.5703,1.3802-2.1061,1.3559-4.7231,1.2153-6.5085-.3215-4.1245-1.5471-7.3888-3.642-9.7015-.7938-.8794-1.5451-.8123-1.9339-.6891-.4947.1598-.7757.5232-.9467.7837-.5797.891-.8105,1.9123-.9478,2.8412-.5321-.3768-1.087-.7363-1.6905-1.0415-1.8484-.9344-3.8824-1.251-5.9771-1.5187-1.5432-.1985-3.0922-.3766-4.6476-.5374-.1997-.0214-.6759-.0682-1.1158.2555-.2952.2188-.6311.6463-.5517,1.4413.0131.1372.0501.2705.0714.4065-.7372-.154-1.481-.2867-2.2354-.379-.3298-.0408-1.2071-.1476-1.8241.4896-.4072.4183-.4864.9385-.5129,1.2917-.106,1.4627.405,2.8562.9221,4.0268l.1099.2514c1.278,2.9018,2.8106,6.3584,5.8139,8.8915-.65.0246-1.3018.0409-1.9498.0283l-.3909-.0071c-1.5472-.0296-3.3144-.0622-4.7943.9089-.3379.2219-.5171.6179-.4601,1.0169.057.4001.338.7309.7226.85,1.4129.4377,2.734,1.1217,4.1328,1.8464,1.6509.856,3.357,1.7396,5.2483,2.1987.9343.226,1.8911.3369,2.8519.3369,2.2172,0,4.4443-.5914,6.3904-1.7325.7555-.4426,1.5889-1.0569,2.4064-1.7454.9628.7206,1.9261,1.4409,2.8846,2.1669,2.3209,1.7599,5.2117,3.9504,7.396,6.5959,2.1275,2.5783,4.3079,6.8219,4.0717,10.0466-.0033.0466.0143.0879.0171.1334l-.564,48.3838c-1.9572-8.0057-4.6636-15.5169-4.7178-15.6535-2.6524-6.7364-6.0664-13.1166-10.1503-18.9644-2.3818-3.4109-5.0222-6.6957-7.5753-9.8715-2.7318-3.3977-5.5576-6.9105-8.0412-10.5556-5.0569-7.4194-8.8699-15.5605-11.3292-24.1983-.1507-.5344-.6819-.8561-1.2356-.7309-.5416.1252-.8897.6515-.792,1.1981,1.9787,11.1632,4.615,22.3743,7.1944,33.3523.9608,4.0878,1.9565,8.3141,3.8008,12.2198ZM73.99512,71.40254c-.0165.286-.057.4122-.0429.4326-.0326.0061-.0976.0132-.2158.0163-1.2967.0366-2.5284-.3441-3.876-1.0983-.7044-.396-1.3072-1.0098-1.9442-1.6602-.241-.2468-.4846-.4901-.7331-.7273.3207-.7862.568-1.6377.7268-2.5442.1466-.8327.3503-2.2516.3544-3.7184,1.243,1.1995,2.759,2.1104,4.3942,2.6656.7797,1.9047,1.4597,4.6579,1.3366,6.6339ZM83.16412,61.16354c-.2482.4672-.6167.9253-1.0035,1.4087-.2872.3553-.5843.7279-.851,1.1279-.8206-1.8567-1.3233-3.9932-1.5004-6.3802-.2321-3.0618.0996-6.1908.4886-9.1162.3726-2.7667.9365-3.356,1.1786-3.4843.1181.0265.737.342,1.3662,3.9515l.0509.2931c.1649.904.2869,1.8322.4111,2.7647.0916.684.1832,1.3843.2952,2.0886.0653.9334.1201,2.6903.1384,3.5912.0265,1.2449.0061,2.6638-.5741,3.755ZM94.50542,50.45634c1.2054,1.933,2.3859,3.8832,3.5382,5.8488.4501.7675.908,1.6174.9692,2.3819-.5008.0264-.9996.0824-1.4923.1689-.2748.0479-.5171.2036-.6759.4316s-.22.51-.171.7838l.6902,3.7794c-2.675-.4642-5.4458-1.0739-7.7156-2.5946-2.6609-1.7854-3.4793-4.5703-3.974-7.6586-.0039-.0529-.0121-.1039-.0243-.1527-.1018-.6525-.1893-1.3192-.2789-1.991-.1284-.9649-.2567-1.9259-.4255-2.8603l-.049-.2799c-.1698-.9714-.4194-2.3912-.9336-3.5695.2049.054.3902.1.4796.1362.6596.3023,1.2948.6962,1.8874,1.0738.4825.3064.9546.6291,1.427.9518.7675.5231,1.535,1.0453,2.3412,1.5085,1.3165.7556,2.7588,1.3356,4.3011,1.7593.0264.0963.0507.1936.1062.2826ZM17.79302,17.05214c1.2887.1384,2.5793.2891,3.8639.4549,1.9809.2525,3.746.5253,5.3012,1.3111.8149.4129,1.5873.9834,2.3381,1.5556-.0729.6342-.1382,1.2799-.1969,1.9304-1.5526-1.3726-3.6185-2.2152-5.6734-2.9445-1.782-.633-3.5996-1.2735-5.4634-1.7943-.0612-.169-.1277-.3357-.1695-.5132ZM14.04512,21.84434l-.1099-.2514c-.4172-.9436-.7918-1.9462-.8184-2.9071.0224.0031.0468.0051.0733.0081,3.2614.4001,6.4535,1.534,9.5397,2.6303,2.6442.939,5.1063,1.9567,6.1892,4.0251-.0431,2.2378.1368,4.5066.7794,6.7055-2.1967-.7227-5.3175-.7512-5.7208-.738-.8569.0035-1.7133.0409-2.5696.0847-4.0864-2.139-5.8278-6.074-7.3629-9.5572ZM33.61712,107.59574c-4.1754-5.86-7.1313-11.3169-9.0326-16.6822-.5416-1.5259-1.012-3.0792-1.4801-4.6315-.8306-2.7442-1.6877-5.5821-2.9437-8.253-.7921-1.6897-1.7407-3.3061-2.6588-4.8686-.8856-1.5065-1.8016-3.0649-2.5488-4.6498-1.7508-3.7071-2.7199-7.8255-3.6888-11.9419-.5948-2.5308-1.1928-5.0863-1.7873-7.6515,7.1674,15.4135,13.9063,31.1766,20.4311,46.4566l7.7994,18.2603c-1.1467-1.588-2.1571-3.1248-2.8017-4.1105-.5232-.7991-.9628-1.4709-1.2887-1.9279ZM45.18862,119.20584c-.285.4896-.5924.5904-.8264.6229-.1093.0146-.2293-.005-.3479-.0207.4431-7.4188-.1029-14.9764-1.5982-22.3056,2.342,8.3092,4.5408,18.6744,2.7725,21.7034ZM49.73862,118.55644c-.0879.0781-.1699.1443-.2508.2089,3.3783-8.2533,7.6738-16.1272,12.7973-23.4128,1.4007-1.992,3.0742-4.2599,5.23-5.9527,2.2902-1.7986,4.8978-2.801,7.2372-2.507,3.9625.4978,6.2416,4.4257,6.2675,4.4039.9006,1.5821,1.6724,3.2358,2.285,4.9532l-4.823-4.9273c-.4031-.4132-.908-.9282-1.5676-1.1308-.5436-.167-1.1175-.0988-1.606-.0102-4.2103.7603-7.6323,3.8375-10.1425,6.4341-5.5555,5.7489-10.1773,12.5961-13.483,19.904-.6234.7456-1.2684,1.4378-1.9441,2.0367ZM80.78232,95.86354c-2.6405-1.6968-5.6066-2.3137-8.129-1.704-2.9232.7125-5.1158,2.9275-7.1108,5.1353-2.7058,2.9946-5.3867,6.1073-7.9702,9.2536-.9732,1.1869-1.9178,2.5397-2.8319,3.8477-.5175.7409-1.0422,1.4885-1.5778,2.2185,3.1906-6.4549,7.4041-12.4904,12.3777-17.6365,2.4551-2.5407,5.7961-5.5496,9.8614-6.2835.4233-.0763.9202-.1384,1.36-.0041.5332.1629.9668.6057,1.3496.9966l5.2198,5.3327c.0677.0682.1584.0757.2446.0545.1572.4831.318.9651.4516,1.4561-.9813-.9722-2.0521-1.8994-3.245-2.6669ZM78.71482,87.81454c-1.1077-.8045-2.4725-1.3303-3.9218-1.4408-2.4938-.1975-5.2035.7359-7.5996,2.6169-2.2109,1.7356-3.9129,4.0401-5.3358,6.0626-5.2872,7.5194-9.7022,15.6607-13.1375,24.2013-.2761.1233-.4495.1341-.4982.106-.0363-.0213-.0826-.0901-.1251-.2009l8.5919-17.3974c2.0744-4.1988,4.2224-8.5412,7.3451-12.114,3.0362-3.4714,6.6593-5.7111,10.3513-6.4368.2419.1837.4754.3855.6909.5839,1.3385,1.2306,2.5446,2.5845,3.6388,4.0192ZM50.66682,111.36504c.7982-1.4719,1.6226-2.9936,2.1784-4.5124.5089-1.3924.9568-2.8094,1.4027-4.2262.8162-2.5875,1.6611-5.2625,2.8907-7.678,2.8786-5.6422,7.9784-10.0151,13.992-11.9949.7574-.2494,1.5534-.457,2.211-.2962.1505.0367.2993.0964.4457.1693-3.6315.8448-7.1693,3.0756-10.1444,6.4776-3.1695,3.6247-5.3316,7.9976-7.4223,12.2279l-8.2317,16.668c.0118-.2682.0485-.5825.1271-.9537.4053-1.9188,1.4964-3.9332,2.5508-5.8814ZM39.25832,87.71424c.0183.0466.0391.1025.0579.151.0013.0045-.0024.0085-.0009.0129,3.3707,10.1389,4.8082,21.1063,4.1841,31.7864-.0951-.0391-.1901-.0789-.2893-.1314-.1962-.3682-.3801-.7436-.5513-1.1259-1.166-19.2304-7.1757-38.1218-17.2644-54.5231,1.3555,1.7372,2.6888,3.5012,3.9416,5.2953,3.99,5.7144,7.3288,11.9511,9.9223,18.5348ZM21.84622,59.42084c.0367.0457.0741.0925.1109.1383,11.5467,16.9193,18.5616,36.8934,20.0813,57.3253-.3746-1.0069-.7026-2.0332-1.0233-3.0459l-.1057-.336c-4.7495-14.9885-10.9465-29.6023-18.4158-43.4365-.5944-1.0983-1.195-2.1916-1.7976-3.2858-1.486-2.7066-3.0252-5.5058-4.4053-8.3233-1.5758-3.2216-3.1025-6.7771-4.8045-11.1876-.3849-.9996-.8286-2.0399-1.2583-3.0456-.5667-1.3277-1.1403-2.6798-1.6302-4.0322,1.5363,2.9352,3.233,5.7905,5.1095,8.5425,2.5304,3.7123,5.3806,7.2586,8.139,10.6868ZM7.21112,37.41144c.5493,2.3442,1.5548,4.7162,2.5365,7.0159.4479,1.0484.8712,2.0388,1.2541,3.0293,1.7059,4.4258,3.2389,7.9935,4.8206,11.2293,1.3864,2.8288,2.9274,5.6331,4.4178,8.3447.6006,1.0933,1.201,2.1864,1.7936,3.2837,7.455,13.8047,13.6376,28.3891,18.3788,43.345l.106.3359c.4799,1.5171.9726,3.0668,1.6261,4.5419.0054.0907.0122.1813.0174.272-.9926-.8285-2.084-2.0731-3.1356-3.4175l-8.638-20.2233c-6.8437-16.0253-13.9206-32.5867-21.4833-48.7186-.7784-3.3929-1.543-6.8077-2.2722-10.2317.1843.4018.3877.7945.5782,1.1934Z"/><path class="cls-3" d="M101.00172,73.05754c-.3746-1.6052-1.3639-2.6709-2.791-3.0027-1.8362-.4326-4.1591.4876-5.5374,2.1732q0,.001-.002.001c-.6719.8235-.9895,1.6154-.9752,2.4175.0144.9161.4927,1.824,1.3111,2.4908.8612.6982,1.9848,1.0657,3.1982,1.0657.4112,0,.8326-.0417,1.2561-.1272,1.0729-.2168,1.9665-.6789,2.5854-1.3365.8937-.9467,1.2602-2.3564.9548-3.6818ZM98.53032,75.30924c-.4073.4325-1.0301.6321-1.4802.7227-1.0544.2137-2.0703.0203-2.7279-.5131-.3298-.2677-.5373-.6148-.5414-.9079-.0061-.2871.1649-.6444.5049-1.0617.859-1.0505,2.4083-1.709,3.4527-1.4648.6372.1487,1.0403.622,1.2317,1.4435.1484.6422-.0246,1.3415-.4398,1.7813Z"/><path class="cls-3" d="M112.99872,67.45104c-.22-1.3294-1.2013-2.3574-2.441-2.559-1.2602-.2015-2.4695.4937-3.0088,1.7417-.5314,1.2295-.2138,2.5742.7897,3.3468.6557.5048,1.3905.7665,2.0807.7665.4092,0,.8041-.0917,1.1584-.2799,1.0729-.5701,1.6285-1.7539,1.421-3.0161ZM110.60052,68.62574c-.2016.1058-.6291-.0193-.9915-.2983-.3644-.2789-.2036-.7339-.1466-.8662.0244-.057.2362-.5191.6617-.5191.0327,0,.0651.002.0997.0081.4092.0662.6576.4825.7165.8408.0388.2239.0429.6311-.3398.8347Z"/><path class="cls-3" d="M108.03752,77.18824c-1.0181.6087-1.3905,1.7498-.9732,2.9793.3624,1.0648,1.3944,1.8007,2.5162,1.8007h.0307c.7979-.0091,1.5328-.3848,1.9643-1.0046,1.2826-1.8374.399-3.0344.0979-3.3581-.8551-.9161-2.4877-1.1054-3.6359-.4173ZM109.86552,79.77064c-.0385.056-.1038.1333-.285.1129-.2219,0-.4703-.1761-.5414-.3878-.1364-.3969-.0183-.4672.0691-.5191.3135-.1883.8693-.1313,1.0403.0509.055.0581.002.3349-.283.7431Z"/><path class="cls-3" d="M19.02672.03904c-1.7732.283-3.2938,1.7803-3.6949,3.64-.3563,1.6439.2423,3.1636,1.6002,4.0634h.002c.7207.4774,1.5349.6657,2.0866.7654.4235.0764.8225.1141,1.199.1141.9977,0,1.8221-.2687,2.4573-.8032,1.2866-1.0799,1.5513-3.0139.6779-4.9265-.7512-1.6429-2.3636-3.1566-4.3281-2.8532ZM21.33732,6.22274c-.4722.399-1.3191.3471-1.9482.2331-.5843-.1059-.9996-.2494-1.307-.4519-.8529-.566-.8123-1.423-.7146-1.8842.1914-.8774.9345-1.8535,1.9889-2.0225.8226-.1456,1.6797.738,2.101,1.6612.3888.8499.5028,1.9411-.1201,2.4643Z"/><path class="cls-3" d="M3.26762,10.85214c1.4475,0,2.84-.9863,3.2594-2.3941.3746-1.2541-.2341-2.6761-1.5167-3.5372-1.2641-.8479-2.7321-.8744-3.7519-.0559C.23032,5.69244-.22368,7.06554.10612,8.36334c.3237,1.2714,1.3211,2.2058,2.6037,2.4389.1854.0336.3705.0499.5578.0499ZM2.12772,7.85034c-.104-.4051-.0428-.9751.4377-1.3609.1179-.0957.2667-.1364.4275-.1364.2808,0,.5984.1252.8551.2972.4316.2912.804.8001.6798,1.2123-.171.5721-.8571.9904-1.4453.8876h-.0022c-.6859-.1241-.8956-.6708-.9526-.8998Z"/></g></g></g></svg>