<svg xmlns="http://www.w3.org/2000/svg" width="105.003" height="49.152" viewBox="0 0 105.003 49.152"><g transform="translate(-1144.875 -616.553)"><g transform="translate(1144.875 616.553)"><g transform="translate(0 0)"><path d="M.229,84.212a2.588,2.588,0,0,0,1.75.835,7.038,7.038,0,0,0,2.815-.179,3.543,3.543,0,0,0,2.375-1.718A1.124,1.124,0,0,0,7.2,82.1a1.275,1.275,0,0,0-.539-.425A7.284,7.284,0,0,0,2.1,81.244a2.909,2.909,0,0,0-.98.321c-.766.461-1.51,1.839-.893,2.647Z" transform="translate(0 -52.022)" fill="#ffda73"/><path d="M9.943,68.365a3.132,3.132,0,0,0,.558,1.275,5.619,5.619,0,0,0,3.106,2.205.935.935,0,0,0,.951-.125c.232-.262.129-.67.008-1a13.153,13.153,0,0,0-.932-2.082A4.051,4.051,0,0,0,12.209,67.1C11.058,66.442,9.71,66.863,9.943,68.365Z" transform="translate(-6.363 -42.862)" fill="#ffda73"/><path d="M62.947,58.863a5.7,5.7,0,0,0,1.669,1.686,11.42,11.42,0,0,0,2.05,1.152,2.513,2.513,0,0,0,2.268.127,1.788,1.788,0,0,0,.64-2.008,3.626,3.626,0,0,0-1.361-1.763A7.81,7.81,0,0,0,64,56.476c-.5-.033-1.232-.158-1.464.385a2.642,2.642,0,0,0,.41,2Z" transform="translate(-40.076 -36.216)" fill="#ffda73"/><path d="M64.591,44.805a2.932,2.932,0,0,0,2.286.545,5.117,5.117,0,0,0,3.95-2.917,1.954,1.954,0,0,0,.214-1.056,1.65,1.65,0,0,0-1.153-1.229,3.294,3.294,0,0,0-2.305.165C66.184,40.895,62.545,43.036,64.591,44.805Z" transform="translate(-41.055 -25.672)" fill="#ffda73"/><path d="M59.41,29.308h0a.374.374,0,0,0-.7-.251,4.9,4.9,0,0,1-.6.411,4.388,4.388,0,0,0-.37.244,13.064,13.064,0,0,0-1.078.99A12.727,12.727,0,0,0,54.9,32.973c-.046.076-.1.163-.168.257a2.427,2.427,0,0,0-.614,1.759,1.008,1.008,0,0,0,.7.78,1.818,1.818,0,0,0,1.591-.531A8.718,8.718,0,0,0,58.7,32.4q.057-.135.106-.274a10.029,10.029,0,0,0,.387-1.69C59.254,30.042,59.316,29.672,59.41,29.308Z" transform="translate(-34.702 -18.506)" fill="#6d6d6d"/><path d="M52.167,1.31c-.2.332-1.4,3.32-.76,4.311a.8.8,0,0,0,.81.356c.659-.079,1.12-1.1,1.5-2.043l.056-.138c.083-.2.16-.405.232-.609.222-.629.4-1.261.553-1.835C54.8.473,54.392.166,54.205.075a.9.9,0,0,0-.721,0A2.678,2.678,0,0,0,52.167,1.31Z" transform="translate(-32.866 0)" fill="#6d6d6d"/><path d="M22.827,10.075l0,.014a5.07,5.07,0,0,0-.167,3.5c-.27.245-.554.482-.835.716q-.259.217-.509.432a9.881,9.881,0,0,0-1.242-3.787A.365.365,0,0,0,20,10.869a4.968,4.968,0,0,0-.667-.86,6.986,6.986,0,0,0-1.553-1.327,5.029,5.029,0,0,0-3.268-.768.871.871,0,0,0-.816.567A.884.884,0,0,0,13.719,9a4.028,4.028,0,0,0,3.476,2.646,9.184,9.184,0,0,0,1,.027,6.332,6.332,0,0,1,1.2.062.918.918,0,0,0,.249.013c1.689,3.321.942,7.277.039,9.976.035-.76-1.068-2.095-1.079-2.108a5.566,5.566,0,0,0-3.169-1.476.373.373,0,0,0-.368.6c.256.312.482.643.721.994a11.558,11.558,0,0,0,.989,1.31h0c.018.019,1.794,1.881,2.687,1.143a.621.621,0,0,0,.091-.1c-.123.348-.247.672-.366.966-.476,1.173-1.029,2.249-1.615,3.388a41.291,41.291,0,0,0-2.674,6.072,26.1,26.1,0,0,0-.309-6.3,27.048,27.048,0,0,0-2.544-7.054.956.956,0,0,0,.972.111,3.956,3.956,0,0,0,2.279-2.427c.147-.36.271-.731.4-1.1A9.15,9.15,0,0,1,16.415,14a.373.373,0,0,0-.345-.56A3.555,3.555,0,0,0,13.806,14.6a7.074,7.074,0,0,0-1.6,2.461l-.038.1a3.4,3.4,0,0,0-.347,1.545c-.624-1.213-1.285-2.381-1.927-3.5a2.671,2.671,0,0,0,.781-.929,3.281,3.281,0,0,0,.275-.6c.049-.138.09-.276.129-.412a5.45,5.45,0,0,0-.06-3.946.728.728,0,0,0-.239-.3c-.319-.218-.727-.082-1.014.34a7.247,7.247,0,0,0-1.24,2.746A4.257,4.257,0,0,0,8.7,14.344a6.826,6.826,0,0,0-.89-.666,8.4,8.4,0,0,0-4.631-.814.374.374,0,0,0-.288.6c.143.183.275.375.407.565a9.174,9.174,0,0,0,.656.871A6.235,6.235,0,0,0,6.913,16.67l.163.05c.956.3,2.02.575,2.546.155A.727.727,0,0,0,9.83,16.6,37.891,37.891,0,0,1,13.44,24.59a21.005,21.005,0,0,1-3.231-1.477l-.022-.023a4.521,4.521,0,0,0-.431-.363.739.739,0,0,0,.708-.3.75.75,0,0,0,.087-.173c.32-.905-.781-2.731-.9-2.887a2.29,2.29,0,0,0-1.711-1.016.8.8,0,0,0-.428.1.85.85,0,0,0-.286,1.037h0a7.343,7.343,0,0,0,1.331,2.576,6.259,6.259,0,0,0-1.42-.361,10.017,10.017,0,0,0-3.276.179c-.65.126-.839.45-.882.7a.934.934,0,0,0,.19.677A3.9,3.9,0,0,0,5.18,24.72a6.819,6.819,0,0,0,2.39.292A3.636,3.636,0,0,0,9.106,24.7a1.873,1.873,0,0,0,.864-.862,21.762,21.762,0,0,0,3.609,1.6.359.359,0,0,0,.089.011c.072.3.14.6.2.907a21.425,21.425,0,0,1,.344,3.36,4.478,4.478,0,0,0-1.4-1.029,2.287,2.287,0,0,0-1.066-.225,2.987,2.987,0,0,0-.921.248l-.786.308a.383.383,0,0,0-.219.233.373.373,0,0,0,.042.317,3.544,3.544,0,0,0,.941,1.086h0a3.136,3.136,0,0,0,1.711.428c.069,0,.16.01.262.019a2.114,2.114,0,0,0,1.335-.138.993.993,0,0,0,.11-.09,60,60,0,0,1-.461,6.01A23.858,23.858,0,0,0,9.7,35.028a3.285,3.285,0,0,0-.045-2.206,6.324,6.324,0,0,0-.8-1.924,2.566,2.566,0,0,0-1.9-1.175,1.512,1.512,0,0,0-1.093.341,1.463,1.463,0,0,0-.441.751,2.818,2.818,0,0,0,.7,2.384,7.2,7.2,0,0,0,.805.889,6.1,6.1,0,0,0-3.132.168,2.531,2.531,0,0,0-1.21.809,1.509,1.509,0,0,0-.19,1.585,1.865,1.865,0,0,0,1.632.853,6.649,6.649,0,0,0,5.127-1.87A23.208,23.208,0,0,1,13.6,37.649a.348.348,0,0,0,.068.024c-.1.85-.192,1.7-.271,2.545-.05.535-.1,1.089-.131,1.658a5.022,5.022,0,0,0-.644-.665,6.774,6.774,0,0,0-2.326-1.3c-2.552-.816-5.269,0-7.09.676a.387.387,0,0,0-.232.259.373.373,0,0,0,.082.337,14.867,14.867,0,0,0,3.619,3.3,8.707,8.707,0,0,0,4.438,1.1,4.087,4.087,0,0,0,2.1-.489,17.177,17.177,0,0,0,2.465,8.933.373.373,0,1,0,.626-.407A17.158,17.158,0,0,1,13.937,44.2c.012-.039.025-.078.034-.119a1.971,1.971,0,0,0-.019-.883c.026-.885.083-1.744.156-2.564a3.52,3.52,0,0,0,2.2,0,3.627,3.627,0,0,0,1.1-.567,7.881,7.881,0,0,0,1.627-1.522A9.993,9.993,0,0,0,20.57,35.6c.216-.611.4-1.234.581-1.848a25.5,25.5,0,0,1,.884-2.633.385.385,0,0,0-.111-.437.373.373,0,0,0-.45-.011,17.8,17.8,0,0,1-2.1,1.226,11.752,11.752,0,0,0-3.21,2.163,8.248,8.248,0,0,0-1.3,1.878c-.089.169-.18.348-.271.531a34.781,34.781,0,0,1,3.242-8.886.36.36,0,0,0,.049-.024,12.7,12.7,0,0,1,6.368-2.473,1.929,1.929,0,0,0,.328,1.25l.036.068a6.514,6.514,0,0,0,2.927,2.662,3.663,3.663,0,0,0,2.009.449,1.612,1.612,0,0,0,.807-.312,1.315,1.315,0,0,0,.43-.6,2,2,0,0,0-.152-1.534,3.61,3.61,0,0,0-1.718-1.532,8.747,8.747,0,0,0-1.8-.553,7.07,7.07,0,0,0,2.28-1.009A3.717,3.717,0,0,0,30.766,22.5a2.1,2.1,0,0,0-.141-2.126,1.658,1.658,0,0,0-.14-.154s0,0,0-.006a.091.091,0,0,0-.088-.084,2.278,2.278,0,0,0-2.161-.4A4.863,4.863,0,0,0,26.3,21.039,8.064,8.064,0,0,0,24.9,22.783a4.176,4.176,0,0,0-.528,1.562.355.355,0,0,0-.081-.009,13.476,13.476,0,0,0-5.764,1.9c.489-.957.952-1.89,1.363-2.9.125-.309.256-.649.385-1.016a17.984,17.984,0,0,0,1.113-6.669.359.359,0,0,0,.058-.035c.268-.247.56-.49.855-.737.273-.229.549-.458.815-.7a2.067,2.067,0,0,0,1.049.446,2.91,2.91,0,0,0,2.813-1.289.848.848,0,0,0,.091-.179.585.585,0,0,0,.035-.206.642.642,0,0,0-.2-.447,1.645,1.645,0,0,0-1.57-.344,5.345,5.345,0,0,0-.689.174c.038-.075.074-.15.108-.228a9.382,9.382,0,0,0,.595-2.5,1.1,1.1,0,0,0-.272-1.042.916.916,0,0,0-.858-.133,2.384,2.384,0,0,0-1.385,1.643ZM7.942,19.292c-.038-.14-.026-.217-.019-.191a1.65,1.65,0,0,1,1.136.73,4.9,4.9,0,0,1,.817,2.154.447.447,0,0,1-.225-.034c-.731-.226-1.452-1.72-1.709-2.659Zm-.908,3.152a4.893,4.893,0,0,1,2.314.908,2.1,2.1,0,0,1-1.154.286,9.365,9.365,0,0,1-4.368-.975A1.13,1.13,0,0,1,4,22.615a9.334,9.334,0,0,1,3.034-.171Zm.513,1.822a6.1,6.1,0,0,1-2.13-.255A3.158,3.158,0,0,1,3.8,22.856a9.573,9.573,0,0,0,4.4.969,2.7,2.7,0,0,0,1.022-.191,1.172,1.172,0,0,1-.451.395A2.977,2.977,0,0,1,7.547,24.266Zm-.62,6.2a1.819,1.819,0,0,1,1.322.852,5.7,5.7,0,0,1,.692,1.7,2.9,2.9,0,0,1,.116,1.612l0,.005c-.04-.019-.078-.041-.117-.061a23.984,23.984,0,0,1-2.7-3.787.6.6,0,0,1,.13-.169.783.783,0,0,1,.558-.157Zm-.2,2.277a2.223,2.223,0,0,1-.571-1.725,24.187,24.187,0,0,0,2.325,3.306,6.445,6.445,0,0,1-1.755-1.58ZM3.189,35.52a1.822,1.822,0,0,1,.867-.56,5.982,5.982,0,0,1,3.448.017,16.663,16.663,0,0,0-4.476.888.847.847,0,0,1,.025-.095A.916.916,0,0,1,3.189,35.52ZM4.1,36.76c-.378-.031-.864-.136-1.034-.459a.549.549,0,0,1-.059-.235,14.483,14.483,0,0,1,5.245-.879c.075.023.151.045.226.069A5.892,5.892,0,0,1,4.1,36.76ZM27.871,28.4a5.769,5.769,0,0,1-2.6-2.341l-.038-.071a2.591,2.591,0,0,1-.26-.612c.316.148.637.292.959.433a12.539,12.539,0,0,1,3.4,1.952,1.759,1.759,0,0,1,.573.842c-.006.005-.01.012-.016.017a.884.884,0,0,1-.439.158,2.849,2.849,0,0,1-1.588-.38Zm.736-2.184a2.874,2.874,0,0,1,1.368,1.2,1.2,1.2,0,0,1,.077,1.007,2.061,2.061,0,0,0-.586-.8,12.676,12.676,0,0,0-3.454-1.985q-.438-.193-.871-.394a6.176,6.176,0,0,1,1.031.261c.2.064.381.119.505.146a9.233,9.233,0,0,1,1.931.563Zm1.482-4.033a3.013,3.013,0,0,1-1.107,1.174,6.379,6.379,0,0,1-3.121,1.073,2.451,2.451,0,0,1-.281-.006l-.077,0,.235-.1a16.978,16.978,0,0,0,3.283-1.73,4.111,4.111,0,0,0,1.2-1.29,1.565,1.565,0,0,1-.129.885Zm-4.539.967a7.385,7.385,0,0,1,1.28-1.579,4.224,4.224,0,0,1,1.626-1.128,1.474,1.474,0,0,1,1.571.377.972.972,0,0,1,.116.213,3.7,3.7,0,0,1-1.233,1.4,16.819,16.819,0,0,1-3.247,1.708l-.542.237A3.516,3.516,0,0,1,25.549,23.149Zm.763-10.161a2.145,2.145,0,0,1-2.04.9,1.382,1.382,0,0,1-.613-.23l.021-.021a4.548,4.548,0,0,1,1.781-.74A1.168,1.168,0,0,1,26.313,12.988ZM24.6,9.5a8.857,8.857,0,0,1-.54,2.307,4.434,4.434,0,0,1-.831,1.214,4.963,4.963,0,0,1,.3-2.7c.248-.7.531-1.071.892-1.177a.265.265,0,0,1,.17-.009C24.6,9.144,24.645,9.194,24.6,9.5Z" transform="translate(-1.45 -5.055)" fill="#6d6d6d"/></g></g><g transform="translate(1219.879 621.111)"><g transform="translate(0 0)"><path d="M21.087,5.1a9.014,9.014,0,0,0,.763,1.877,4.043,4.043,0,0,0,.821,1.069,1.525,1.525,0,0,0,1.011.438,1.186,1.186,0,0,0,.562-.144.946.946,0,0,0,.488-.93c-.057-1.335-2.265-3.918-3.219-4.456a.628.628,0,0,0-.106-.054l0,0a.4.4,0,0,0-.529.209.407.407,0,0,0-.012.29c.02.111.057.43.1.756C21.028,4.744,21.059,5,21.087,5.1Z" transform="translate(-12.791 -1.756)" fill="#ffcd42"/><path d="M43.813,12.259a1.239,1.239,0,0,0-.233,1.186.979.979,0,0,0,.827.529.9.9,0,0,0,.131.009,3.456,3.456,0,0,0,1.7-.845c.131-.1.247-.179.337-.236l2.9-1.829a10.3,10.3,0,0,0,2.1-1.591.4.4,0,0,0-.269-.677,7.7,7.7,0,0,0-3.736,1.005l-.487.228a7.848,7.848,0,0,0-3.272,2.221Z" transform="translate(-26.704 -5.399)" fill="#ffcd42"/><path d="M33,5.646a.513.513,0,0,0,.123.015c.348,0,.6-.36.717-.524.842-1.2.278-3.6-.127-4.571-.168-.407-.469-.618-.8-.557a.715.715,0,0,0-.476.345,2.462,2.462,0,0,0-.262,1.569c.053.745.123,1.626.256,2.557.083.594.149,1.063.569,1.164Z" transform="translate(-19.738 0)" fill="#ffcd42"/><path d="M12.49,28.3a1.367,1.367,0,0,0-.168-.235,2.5,2.5,0,0,0-1.183-.536A3.325,3.325,0,0,1,9.4,26.191a2.08,2.08,0,0,0-.8-.862,2.9,2.9,0,0,0-1.094-.114c-.458-.035-.911-.1-1.37-.123-.374-.02-.749-.031-1.124-.037a7.366,7.366,0,0,0-4.682,1.4A.756.756,0,0,0,0,27.027a.723.723,0,0,0,.559.668,2.665,2.665,0,0,0,.86.131,6.566,6.566,0,0,0,1.242-.155,21.16,21.16,0,0,1,4.176-.509c.164,0,.345.012.534.022l.3.016q-.7.218-1.492.53a13.15,13.15,0,0,0-4.595,3.03.859.859,0,0,0-.263.463.638.638,0,0,0,.173.548,1.055,1.055,0,0,0,.754.28,1.189,1.189,0,0,0,.127-.007,6.922,6.922,0,0,0,2.6-1.019l.3-.169A22.77,22.77,0,0,1,9.6,29.033c.247-.076.523-.164.8-.275a8.847,8.847,0,0,0-.374.808,8.239,8.239,0,0,0-.4,3.089c.04.972.455,1.311.8,1.424a.792.792,0,0,0,.253.042.653.653,0,0,0,.377-.115.78.78,0,0,0,.259-.338,5.245,5.245,0,0,0,.352-1.653,7.551,7.551,0,0,1,.135-.945,6.339,6.339,0,0,1,.349-.849c.282-.62.707-1.275.344-1.921Z" transform="translate(0 -15.378)" fill="#ffcd42"/><path d="M56.915,22.64a.4.4,0,0,0,.37-.519c-.205-.676-.87-1.115-1.974-1.3a18.638,18.638,0,0,0-6.732.085,11.377,11.377,0,0,0-1.928.521,4.545,4.545,0,0,0-.967.433c-.41.284-.419.633-.511,1.1a6.078,6.078,0,0,1-.509,1.468,1.316,1.316,0,0,0-.119,1.036c.269.732,1.205,1.027,1.881,1.208a23.664,23.664,0,0,0,3.146.54c.32.041.629.08.919.122a28.192,28.192,0,0,0,2.89.272h.045c.144,0,.44-.017.786-.038.368-.023.8-.049,1.149-.059a.711.711,0,0,0,.652-.458.737.737,0,0,0-.178-.8,7.352,7.352,0,0,0-2.851-1.54,19.507,19.507,0,0,0-5.586-.938c.055-.014.11-.027.152-.035a60.225,60.225,0,0,1,9.366-1.1Z" transform="translate(-27.303 -12.615)" fill="#ffcd42"/><path d="M40.24,6.9a4.479,4.479,0,0,0,.506-.764c.3-.432.608-.859.943-1.261l.142-.17A7.565,7.565,0,0,0,42.7,3.51a2.714,2.714,0,0,0,.347-1.837.4.4,0,0,0-.381-.32,1.288,1.288,0,0,0-.881.466A10.084,10.084,0,0,0,39.349,6c-.122.489-.094,1.346.677,1.038A.67.67,0,0,0,40.24,6.9Z" transform="translate(-24.118 -0.831)" fill="#ffcd42"/><path d="M16.443,15.291a.942.942,0,0,0,.13-.785,1.688,1.688,0,0,0-.608-.668c-.3-.23-.593-.461-.9-.673-.437-.3-.893-.572-1.355-.832l-.087-.049a5.126,5.126,0,0,0-2.427-.846.6.6,0,0,0-.459.166.588.588,0,0,0-.155.464,2.279,2.279,0,0,0,.831,1.464l.1.1c1.306,1.25,2.753,2.472,3.879,2.472a1.147,1.147,0,0,0,.971-.673c.028-.044.055-.09.081-.136Z" transform="translate(-6.492 -7.02)" fill="#ffcd42"/><path d="M41.518,27.55a.421.421,0,0,0-.153-.028,22.359,22.359,0,0,0-9.463,2.29A10.336,10.336,0,0,0,28.706,32c.112-1.134.3-2.275.488-3.386a28.842,28.842,0,0,0,.587-5.931c0-.031.837-.207.926-.228A2.049,2.049,0,0,0,32.274,21.3a1.711,1.711,0,0,0,.258-.991,2.725,2.725,0,0,0-.155-1.3,6.99,6.99,0,0,0-.786-1.353,3.994,3.994,0,0,0-2.921-1.225,3.582,3.582,0,0,0-.473.069,5.434,5.434,0,0,0-2.211,1.166,2.463,2.463,0,0,0-.626.572,3.115,3.115,0,0,0-.613,1.1,2.114,2.114,0,0,0,1.3,2.277,6.972,6.972,0,0,0,.913.283,4.051,4.051,0,0,1,1.772.84c.351.364.255.873.232,1.344a37.231,37.231,0,0,1-.566,4.389c-.226,1.334-.46,2.713-.556,4.088-.211,3.013-.771,11.015,1.535,17.29a.4.4,0,0,0,.756-.278c-1.831-4.98-1.8-11.13-1.618-14.842a3.494,3.494,0,0,0,.616.582,4.1,4.1,0,0,0,2.487.728c.084,0,.169,0,.254-.006A6.951,6.951,0,0,0,35.2,35.026a13.411,13.411,0,0,0,3.515-3.62,14.683,14.683,0,0,1,2.889-3.157.4.4,0,0,0-.09-.7Zm-2.08.9c-.025.024-.054.049-.079.073A22.293,22.293,0,0,1,28.895,33.8a.922.922,0,0,1-.044-.368c0-.006,0-.012,0-.018a46.338,46.338,0,0,1,9.358-4.8C38.619,28.551,39.028,28.5,39.438,28.453ZM29.165,34.26a1.544,1.544,0,0,1-.19-.273,22.534,22.534,0,0,0,9.362-4.336c-.171.207-.336.412-.5.616a10.813,10.813,0,0,1-2.682,2.623C33.876,33.712,31.519,34.877,29.165,34.26Zm8.911-3.337a12.641,12.641,0,0,1-3.291,3.417,6.151,6.151,0,0,1-2.944.9,3.521,3.521,0,0,1-2.225-.562c-.063-.047-.121-.094-.176-.141a5.677,5.677,0,0,0,1.1.106,9.165,9.165,0,0,0,4.728-1.581A10.973,10.973,0,0,0,38,30.393a18.32,18.32,0,0,1,1.5-1.721c.091-.083.18-.167.27-.251.148-.014.295-.032.443-.043A20.724,20.724,0,0,0,38.076,30.923Zm-5.817-.39a21.474,21.474,0,0,1,4.975-1.726,43.858,43.858,0,0,0-8.3,4.314C29.164,32.527,29.976,31.66,32.26,30.533Zm-1.3-9.511A10.365,10.365,0,0,0,29.574,17.3a2.364,2.364,0,0,1,.508.164c.033.044.065.088.1.133a8.241,8.241,0,0,1,.958,1.764,3.821,3.821,0,0,1,.221,1.95.094.094,0,0,0,.01.044,1.508,1.508,0,0,1-.4.194A2.8,2.8,0,0,0,30.955,21.022Zm.636-1.731a2.109,2.109,0,0,1-.018,1.861,4.094,4.094,0,0,0-.249-1.862,7.8,7.8,0,0,0-.835-1.589A3.606,3.606,0,0,1,31.591,19.291Zm-5.423-.261a3.339,3.339,0,0,1,.28-.69c.142-.123.285-.236.429-.339a4.32,4.32,0,0,0-.35,3.209,1.649,1.649,0,0,1-.276-.1A2.855,2.855,0,0,1,26.168,19.03Zm1.024,2.338a4.975,4.975,0,0,1,.414-3.543,10.29,10.29,0,0,0-.144,3.617Zm-.219-.053c-.068-.016-.138-.036-.205-.05l-.015,0a4.107,4.107,0,0,1,.4-3.343l.052-.086.044-.072q.122-.072.245-.135A5.179,5.179,0,0,0,26.973,21.316ZM25.537,19.5a1.744,1.744,0,0,1,.531-.808c-.033.09-.064.183-.093.282a3.323,3.323,0,0,0-.052,1.855,2.218,2.218,0,0,1-.2-.382,1.718,1.718,0,0,1-.183-.946Zm2.224,2.027-.085-.024a10.314,10.314,0,0,1,.225-4.058c.059-.022.119-.045.178-.063.081-.025.162-.038.244-.057a3.511,3.511,0,0,1,.368,1.047,16.627,16.627,0,0,1,.377,3.465A9.117,9.117,0,0,1,27.761,21.528Zm1.609.34c-.033,0-.068-.008-.1-.01v0a16.812,16.812,0,0,0-.382-3.525,3.82,3.82,0,0,0-.36-1.052,3.064,3.064,0,0,1,.369-.032,13.2,13.2,0,0,1,.757,4.637l-.115.028A.4.4,0,0,0,29.37,21.868Zm.484-.034a13.407,13.407,0,0,0-.747-4.591c.072,0,.144.005.215.013a10.565,10.565,0,0,1,1.433,3.788,2.437,2.437,0,0,1,0,.567l-.222.057Z" transform="translate(-15.168 -10.084)" fill="#6d6d6d"/><path d="M12.776,48.751c-.124-.039-.235-.074-.318-.108l-.28-.116a24.525,24.525,0,0,0-4.687-1.571,4.184,4.184,0,0,0-3.107.345,1.023,1.023,0,0,0-.409.441c-.2.467.078.98.71,1.306A22.3,22.3,0,0,0,11.42,50.9l.081.014a7.019,7.019,0,0,0,1.152.121,1.5,1.5,0,0,0,1.481-.69.855.855,0,0,0,.03-.733C13.947,49.119,13.3,48.915,12.776,48.751ZM6.212,47.627a6.065,6.065,0,0,1,1.128.121,23.906,23.906,0,0,1,4.53,1.525l.281.116c.1.042.235.085.384.131.093.029.177.057.255.085a5.713,5.713,0,0,1-1.231-.059,34.332,34.332,0,0,1-6.7-1.585A2.538,2.538,0,0,1,6.212,47.627Zm5.423,2.5-.084-.014a21.71,21.71,0,0,1-6.5-1.776,1.146,1.146,0,0,1-.263-.184,34.6,34.6,0,0,0,6.741,1.594,7.347,7.347,0,0,0,.951.077,3.147,3.147,0,0,0,.669-.069c.164.083.252.164.254.251-.124.258-.723.3-1.772.121Z" transform="translate(-2.4 -28.741)" fill="#6d6d6d"/></g></g><g transform="translate(1184.874 623.155)"><g transform="translate(0 0)"><path d="M6,16.7a13.893,13.893,0,0,0-1.614-1.313L1.815,13.5a.443.443,0,0,0-.331-.123.407.407,0,0,0-.219.17c-1.035,1.337-.606,3.294.179,4.791a12.541,12.541,0,0,0,2.321,3.124,25.048,25.048,0,0,0,2.92,2.342c1.915,1.385,2.085-.474,1.8-1.876A9.965,9.965,0,0,0,6,16.7Z" transform="translate(-0.417 -8.546)" fill="#ffda73"/><path d="M29.015,14.2a16.281,16.281,0,0,0-.254-5.933c-.084-.4-.322-.894-.722-.824a.788.788,0,0,0-.374.227A11.8,11.8,0,0,0,24,15.068a9.8,9.8,0,0,0,.364,4.315c.728,1.941,2,.549,2.829-.6A10.766,10.766,0,0,0,29.015,14.2Z" transform="translate(-15.28 -4.753)" fill="#ffda73"/><path d="M41.306,48.3a18.347,18.347,0,0,1,2.218,2.346,8.143,8.143,0,0,1,1.437,3.077,1.263,1.263,0,0,1-.228,1.267c-.4.324-.985.107-1.444-.121-1.639-.817-3.36-1.731-4.278-3.317a8.55,8.55,0,0,1-.786-2.1c-.213-.8-.507-2.319.455-2.807s2.012,1.08,2.625,1.657Z" transform="translate(-24.287 -29.741)" fill="#ffda73"/><path d="M41.323,24.617a6.077,6.077,0,0,0-.293-4.674,2.5,2.5,0,0,0-1.2-1.457,19.979,19.979,0,0,1-.924,3.573c-.531,1.162-3.771,4.6-2.145,5.9C38.3,29.184,40.874,25.671,41.323,24.617Z" transform="translate(-23.198 -11.812)" fill="#ffda73"/><path d="M5.234,1.606a.731.731,0,0,0-.244-.152.713.713,0,0,0-.672.179,5.635,5.635,0,0,0-2.24,3.082l-.519-.241a1.138,1.138,0,0,0-.734-.136C.529,4.4.16,4.648.073,5.448a9.263,9.263,0,0,0,2.114,7.482,13.032,13.032,0,0,0,2.3,1.769c.267.176.534.351.8.533a5.35,5.35,0,0,1,2.2,2.461l.01.027a7.756,7.756,0,0,1,.261,4.355,7.926,7.926,0,0,0-.819-.955l-.086-.089h0C4.994,19.1,3.13,17.32.669,16.69a.376.376,0,0,0-.463.433,6.138,6.138,0,0,0,1.333,2.51,19.324,19.324,0,0,0,2.617,3l.045.039c.842.724,2,1.6,2.943,1.488a17.917,17.917,0,0,0-.608,2.254,10.126,10.126,0,0,0,3.246,9.212c.093.081.187.16.283.237a.377.377,0,0,0,.529-.058.366.366,0,0,0-.058-.529,9.354,9.354,0,0,1-3.351-6.3c1,.422,2.7-.691,3.209-1.052a5.547,5.547,0,0,0,2.27-3.466.371.371,0,0,0-.13-.357.376.376,0,0,0-.374-.062l-1.965.745a9.5,9.5,0,0,0-2.421,1.193h0a4.04,4.04,0,0,0-.466.427A20.058,20.058,0,0,1,7.923,24.2c.13-.4.256-.808.372-1.215a18.645,18.645,0,0,1,2.322-3.424,8.826,8.826,0,0,1,3-2.255,1.67,1.67,0,0,0,0,.179,8.38,8.38,0,0,0,4.41,6.613,1.642,1.642,0,0,0,1.875.026c.5-.432.535-1.179.094-2.1a13,13,0,0,0-1.376-2.262l2.979.659a7.167,7.167,0,0,0,1.166.191.694.694,0,0,0,.822-.635,3.3,3.3,0,0,0-.87-2.754,6.939,6.939,0,0,0,2.237-2.44.38.38,0,0,0-.136-.5,7.673,7.673,0,0,0-6.625-.6,9.839,9.839,0,0,0,.452-2.783c.063-1.548-.33-2.585-1.168-3.073a.376.376,0,0,0-.562.268,13.474,13.474,0,0,1-1.637,4.691c-.1.171-.2.341-.3.514a6,6,0,0,0-1.149,3.1s0,.007,0,.009a9.268,9.268,0,0,0-3.779,2.646,15.424,15.424,0,0,0-1.38,1.824,8.285,8.285,0,0,0-.441-3.309c.068-.206.128-.414.184-.624A5.169,5.169,0,0,0,10.56,15.46,11.361,11.361,0,0,0,12.923,4.081a.673.673,0,0,0-1.2-.276c-.052.048-.1.1-.154.148a3.391,3.391,0,0,0-.148-1.322,6.309,6.309,0,0,0-1.23-1.9C9.629.09,9.162.169,8.933.275a1.066,1.066,0,0,0-.418.389c-.111.161-.215.33-.316.5L7.236.246a.636.636,0,0,0-.757-.19.668.668,0,0,0-.233.206,3.725,3.725,0,0,0-.687,1.63l-.325-.286Zm4.723,25.7c-.908.646-2.094,1.183-2.505.965a.493.493,0,0,1-.13-.1,9.7,9.7,0,0,0,4.216-2.713,4.975,4.975,0,0,1-1.581,1.843Zm-2.466.621.193-.186a7.152,7.152,0,0,1,1.138-.962c.405-.253.833-.489,1.247-.716.48-.264.972-.535,1.441-.841a9.534,9.534,0,0,1-4.019,2.706Zm2.972-2.445.692-.262c-.387.239-.785.461-1.177.677-.416.229-.846.466-1.255.722a7.284,7.284,0,0,0-1.17.987c-.1.1-.2.187-.3.281a2.812,2.812,0,0,1,.972-1.313,8.927,8.927,0,0,1,2.236-1.091Zm9.229-7.666q-.442.131-.911.229a2.6,2.6,0,0,1-.851-.018c.172-.01.342-.025.509-.042C18.859,17.944,19.276,17.884,19.692,17.818Zm-.367,4.525c.1.214.411.933.094,1.207-.27.232-.815-.01-1.038-.125a7.616,7.616,0,0,1-4.005-6.006,1.421,1.421,0,0,1,0-.149,7.791,7.791,0,0,1,1.159.6l.023.021a2.487,2.487,0,0,0,.442.3,10.879,10.879,0,0,1,3.329,4.151Zm3.522-2.486h-.033a6.568,6.568,0,0,1-1.045-.174l-3.908-.865c-.011,0-.021,0-.031,0l-.046-.046a3.4,3.4,0,0,0,1.149.015,10.788,10.788,0,0,0,3.136-1.156,2.52,2.52,0,0,1,.778,2.229Zm-2.125-2.405c-.758.14-1.527.268-2.3.348a6.625,6.625,0,0,1-1.342.029,4.268,4.268,0,0,1-.709-.288c-.06-.043-.12-.087-.181-.128a9.247,9.247,0,0,0,2.066-.2,20.185,20.185,0,0,0,5.453-1.9,7.526,7.526,0,0,1-2.984,2.135ZM22.6,14.159a7.511,7.511,0,0,0-1.048.171,39.452,39.452,0,0,0-4.435,1.27,5.185,5.185,0,0,0,.635-.9l.012,0A6.886,6.886,0,0,1,22.6,14.159Zm-8.014,2.173h0a5.529,5.529,0,0,1,1.042-2.645c.105-.175.21-.35.31-.525a14.22,14.22,0,0,0,1.6-4.251,3.468,3.468,0,0,1,.358,1.961,8.734,8.734,0,0,1-.488,2.787,4.234,4.234,0,0,1-1.635,2.113,6.952,6.952,0,0,1-.744.385c-.138.064-.279.131-.419.2l-.028-.026Zm.765.506a7.645,7.645,0,0,0,.825-.428,4.148,4.148,0,0,0,.644-.5,39.3,39.3,0,0,1,4.772-1.394,5.01,5.01,0,0,1,1.632-.162,6.536,6.536,0,0,1,.89.391c-.046.075-.1.148-.147.221a20.032,20.032,0,0,1-5.751,2.066,8.378,8.378,0,0,1-2.353.172c-.189-.117-.38-.232-.575-.333l.063-.03ZM6.3,21.552h0l.089.092c.276.284.972,1.006,1.005,1.44a.37.37,0,0,0-.015.121,2.921,2.921,0,0,1-1.733-.89l-.039-.034c-.92-.809-1.815-1.671-2.659-2.56-.275-.289-.534-.618-.808-.967A12.96,12.96,0,0,0,1.2,17.647,14.665,14.665,0,0,1,6.3,21.552ZM4.692,22.1a19.323,19.323,0,0,1-2.553-2.924c-.226-.3-.462-.617-.669-.952.177.21.351.426.522.643.265.337.538.685.819.981.849.893,1.747,1.759,2.671,2.572l.04.035A3.356,3.356,0,0,0,7.2,23.38c-.276.118-.947.063-2.5-1.277ZM7.271,4.4A4.674,4.674,0,0,1,8.443,5.727,4.649,4.649,0,0,1,8.354,8.92q-.179.5-.316,1.02c-.117-.3-.244-.6-.387-.89-.106-.216-.215-.415-.327-.606a7.223,7.223,0,0,0-1-3.085c-.133-.25-.268-.486-.4-.717A6.822,6.822,0,0,1,4.97,2.376Zm4.782.133c.044.629.067,1.264.07,1.895a14.709,14.709,0,0,1-.328,3.46,9.946,9.946,0,0,1-2.808,4.9A18.517,18.517,0,0,0,10.87,9.48c.11-.478.214-.949.317-1.414.264-1.2.517-2.345.858-3.523l.007-.007ZM11,8.025c-.1.465-.206.935-.316,1.413a17.971,17.971,0,0,1-1.912,5.333,11.418,11.418,0,0,0-.279-3.348v0A11.979,11.979,0,0,1,9.07,9.151s0,0,0-.007l0-.01a12.088,12.088,0,0,1,2.7-4.325C11.478,5.88,11.244,6.929,11,8.025ZM4.6,5.918a3.245,3.245,0,0,1-.164-.939,4.361,4.361,0,0,1,.341-2.571,7.056,7.056,0,0,0,.981,2.329c.131.228.265.463.4.711a7.724,7.724,0,0,1,.958,2.664A6,6,0,0,0,6.4,7.2,7.229,7.229,0,0,0,4.6,5.918ZM4.565,2.406a4.7,4.7,0,0,0-.312,2.585,4.145,4.145,0,0,0,.113.8c-.343-.175-.687-.336-1.016-.488l-.557-.258A4.355,4.355,0,0,1,4.565,2.406ZM5.708,14.614c-.267-.185-.539-.365-.812-.544a12.323,12.323,0,0,1-2.168-1.663A8.525,8.525,0,0,1,.822,5.529c.035-.324.125-.446.163-.454a.69.69,0,0,1,.258.084l1.791.831A10.6,10.6,0,0,1,5.587,7.473q.141.123.273.258A6.293,6.293,0,0,1,6.975,9.382a10.6,10.6,0,0,1,.768,7.173,7.13,7.13,0,0,0-2.035-1.941Zm4.3.33a5.166,5.166,0,0,1-1.393,1.108c.047-.262.084-.526.113-.79a10.126,10.126,0,0,0,3.246-5.328,14.85,14.85,0,0,0,.333-3.5c0-.686-.035-1.376-.086-2.059l0,0a10.591,10.591,0,0,1-2.215,10.577ZM9.627,1.231a5.627,5.627,0,0,1,1.091,1.662,3.276,3.276,0,0,1-.167,2.156A12.82,12.82,0,0,0,9.435,6.629a3.255,3.255,0,0,0-.318-1.236A5.314,5.314,0,0,0,7.769,3.839l-.4-.35A4.965,4.965,0,0,0,8.679,1.832c.146-.253.292-.5.454-.739A.479.479,0,0,1,9.249.958c.026-.013.165.03.378.273ZM6.266,2.479A3.08,3.08,0,0,1,6.752.824L7.806,1.831A3.06,3.06,0,0,1,6.783,2.97L6.26,2.51c0-.011.006-.02.006-.03Z" transform="translate(0 0)" fill="#6d6d6d"/></g></g></g></svg>