<?xml version="1.0" encoding="UTF-8"?><svg xmlns="http://www.w3.org/2000/svg" viewBox="0 0 75.47192 147.06376"><defs><style>.cls-1{isolation:isolate;}.cls-2{fill:#ffda73;mix-blend-mode:multiply;}.cls-2,.cls-3{stroke-width:0px;}.cls-3{fill:#6d6d6d;}</style></defs><g class="cls-1"><g id="_レイヤー_2"><g id="Object"><path class="cls-2" d="M40.48612,74.96823c-.3006-.6833-.5679-1.4158-.4919-2.1584.157-1.5327,1.7944-2.5833,3.3351-2.5724,1.5406.0109,2.959.8205,4.2043,1.7277,2.6189,1.9078,4.8382,4.3616,6.4742,7.1584,1.0394-1.6027,1.2593-3.5796,1.7667-5.4212.5074-1.8415,1.5112-3.7725,3.3211-4.3836,2.1343-.7207,4.5421.8508,5.3656,2.9476.8236,2.0968.3928,4.4887-.436,6.5834-.8288,2.0948-2.0355,4.0267-2.8219,6.1377,1.5616-2.1477,4.0776-3.5734,6.7225-3.8095,1.3559-.121,3.0034.2574,3.4596,1.5399.3792,1.066-.2626,2.2088-.9471,3.1096-1.6449,2.1647-3.6994,4.0171-6.0223,5.43,4.1172-.5839,9.2231.2097,10.8499,4.0366.1662.3909.2873.8371.1391,1.2352-.1534.4123-.5554.6715-.9406.8842-3.1599,1.7451-6.9398,2.3389-10.4826,1.647,1.4412,1.9023,2.6517,3.9791,3.5967,6.1706.5831,1.3522,1.073,2.8188.8509,4.2744-.2222,1.4556-1.3647,2.8644-2.8359,2.9254-1.204.0499-2.2533-.76-3.1814-1.5287-1.9933-1.651-4.1351-3.5941-4.3382-6.1744-.1792-2.2775,1.2153-4.3322,2.1208-6.4296,1.2706-2.9429,1.5688-6.4934-.0322-9.2704-2.351-4.078-6.3686-2.4884-9.9012-3.9785-4.3084-1.8172-7.9207-5.8655-9.7752-10.081Z"/><path class="cls-2" d="M29.07872,1.31353c-1.3799-.8944-3.0924-1.7336-4.6021-1.0818-1.4263.6158-2.0295,2.3094-2.2346,3.8494-.8805,6.6106,3.2753,13.5574,9.5165,15.9075,1.6193.6098,3.6279.8665,4.9263-.2771,2.0462-1.8022,1.721-6.8187.8453-9.1038-1.5182-3.9618-4.974-7.0403-8.4514-9.2942Z"/><path class="cls-2" d="M59.84742,30.56353c-.4515.0714-.9123.1621-1.3006.4032-.7019.4358-1.0367,1.2768-1.2129,2.084-.4045,1.8528-.2033,3.8117.4258,5.6007.4494,1.2782,1.1703,2.5388,2.346,3.2122.651.3729,1.4057.5419,2.1556.5628,3.7728.1053,7.0196-3.9707,6.5715-7.6999-.4925-4.0981-5.7212-4.679-8.9854-4.163Z"/><path class="cls-2" d="M52.57112,55.83123c-4.056-.6639-8.4202,1.3102-10.5997,4.7946-.9221,1.4741-1.3854,3.5931-.1521,4.8188,1.1207,1.1138,2.9725.852,4.49.4119,1.2992-.3768,2.5771-.8267,3.8257-1.3471,1.3724-.5719,2.7304-1.243,3.8252-2.2493,2.5367-2.3317,2.4242-5.8048-1.3891-6.4289Z"/><path class="cls-2" d="M11.22872,61.49653c-1.7025-1.3173-3.7839-2.2718-5.9351-2.1937s-4.3323,1.3691-5.0273,3.4065c-.3243.9508-.3153,1.9865-.1696,2.9805.2558,1.7454.9594,3.4754,2.2482,4.68,1.9958,1.8655,5.3188,2.1016,7.5583.5369,2.4174-1.6889,3.9371-7.3894,1.3255-9.4102Z"/><path class="cls-2" d="M15.69172,78.87323c-1.0754-.7176-2.3298-.9845-3.5482-1.0848-.8312-.0684-1.7208-.0467-2.3583.4695-.459.3717-.7276.9565-.9124,1.5534-.4623,1.4928-.4718,3.2049.0917,4.7532.5635,1.5484,1.723,2.9064,3.1511,3.5238,1.7124.7404,3.72.3121,4.8934-1.044,1.891-2.1853,1.2743-6.4418-1.3173-8.1711Z"/><path class="cls-3" d="M26.11522,16.20933c1.4637,2.3761,3.6844,4.1647,5.644,5.7418l5.3199,4.2861c-.6174,3.3674-1.1546,6.7536-1.6553,10.1476-.4494-1.444-1.4774-2.9728-2.1861-3.8494-1.4076-1.7419-3.241-3.1011-5.1929-4.199-1.1547-.6494-2.5382-1.2239-3.7673-.7292-1.1056.4448-1.7462,1.6943-1.7234,2.8858.0229,1.1915.6047,2.3125,1.3595,3.2347,1.3784,1.6846,3.3334,2.8224,5.3869,3.5444,1.8244.6414,3.8679,1.1224,5.8138,1.2606-.9344,6.6703-1.6447,13.3821-2.1304,20.1197l-3.7263-2.2527c-.3222-.1963-.7237-.4386-.8449-.6879-.1221-.2002-.0952-.5483-.0881-1.054.0347-6.2577-4.703-12.2591-10.7957-13.672-1.8596-.4306-3.3725.0155-4.0495,1.1912-.5652.9817-.3308,2.0306.0105,2.8279.173.4043.3719.7422.5103.9775,1.463,2.4783,2.9776,5.0431,5.0901,7.1813,2.3297,2.3532,5.0885,3.7697,7.8093,4.0153.391.4659.8884.7668,1.2794,1.0046l4.6459,2.8074c-.3186,4.9493-.5156,9.9084-.5928,14.8724l-14.182-2.051c-1.8232-.2623-3.2001-1.6084-4.6581-3.0303-.1489-.1454-.3021-.2879-.4521-.4329.8672-1.8523.8445-4.2381-.7811-6.5022l-.0007-.0019c-1.6012-2.242-4.7995-3.0606-7.2817-1.8628-2.4823,1.1979-3.8308,4.2114-3.0709,6.8602.0672.2347.151.469.2504.701.294.6869.7243,1.3509,1.2663,1.9493,2.6717,2.9529,5.9187,2.6257,7.9508.9894.1578-.1272.3078-.2655.4527-.4096.0693.0677.1409.1334.21.2011,1.6331,1.5928,3.3213,3.2417,5.8153,3.6024l1.3097.1893-2.4658,3.1667c-.4073-.4109-.8865-.7552-1.4384-1.0006-1.7587-.7817-3.9289-.5568-5.6583.5867-.6709.4401-1.1267.9298-1.3944,1.494-.3584.7536-.3343,1.5493-.2847,2.0818.0712.7844.2607,1.5293.5491,2.2031.5409,1.2632,1.4313,2.2771,2.5412,2.8317,1.4617.7294,3.2984.6405,4.6792-.2253,1.6186-1.0119,2.5381-2.865,2.4003-4.8366-.0301-.4277-.1147-.8364-.239-1.2247l3.6846-4.7335,10.759,1.556c-.0618,7.1196.1344,14.2423.5683,21.3469-1.5238-1.8706-5.2237-4.1414-6.2238-4.6797-.9208-.4958-1.8981-.9239-2.9358-1.0541-1.0377-.13-2.1499.0668-2.9708.7148-.6847.5404-1.116,1.3501-1.3554,2.189-.1537.5385-.236,1.1057-.1593,1.6607.1464,1.057.8669,1.9727,1.7584,2.5593.8916.5866,1.9424.8819,2.9905,1.083,1.3165.2528,7.2024.8762,9.0206-.2601,1.0308,15.0832,3.1785,30.0674,6.4409,44.7239.0135.063.0336.1252.0593.1851.1931.451.6863.716,1.1835.605.562-.1255.916-.6824.7904-1.2442-1.5766-7.0844-2.8803-14.248-3.9325-21.4602.1387-.0191.2757-.0639.4027-.1417l5.6168-3.448c.4422.2781,1.0037.3454,1.5163.4072.1775.0215.356.0424.5155.0738,1.1193.2272,2.157-.1395,3.1147-.5718,1.267-.5757,2.4735-1.2517,3.6015-1.8941,2.6874-1.536,5.272-3.3556,5.9857-6.2456.1911-.7795.2001-1.5009.0258-2.1459-.1531-.5568-.4452-1.0938-.8982-1.6527-1.435-1.7663-3.7379-2.8287-6.0103-2.7726-2.2724.0538-4.5213,1.2249-5.8701,3.058-.6855.9336-1.199,2.0746-1.6171,3.5912-.6617,2.3983-1.0114,4.4548-1.0445,6.1232l-5.6436,3.4634c-.6616-4.7794-1.2161-9.5782-1.6476-14.3925.7964-.9513,1.5958-1.8997,2.4343-2.8121,4.1718-4.5494,9.3567-8.2839,14.9938-10.7999.7774,1.4695,1.3347,3.0643,1.6279,4.693.0731.3983.2246,1.2303.9785,1.6517.4688.2621.9452.2397,1.3065.1913.004-.0006.0079-.0018.0119-.0024.8485,3.5886,2.3092,6.9676,4.354,10.0363.635.9527,1.5429,2.0698,2.9379,2.2454,1.1967.1542,2.4726-.5095,3.1756-1.6476.5043-.816.736-1.8188.7085-3.0648-.0449-2.1533-.8172-4.438-2.2287-6.5864-.4608-.704-.9047-1.3399-1.3479-1.9275,1.7709.513,3.6324.8498,5.5431.7116,1.4537-.1065,2.5666-.4965,3.4004-1.1925,1.1961-.9948,1.6376-2.661,1.0721-3.9247-.2634-.5871-.6888-1.0117-1.0293-1.3154-1.9834-1.7772-4.4238-2.3646-6.1222-2.5453-.6482-.0679-1.3505-.1436-2.0789-.195,1.1962-.7956,2.3228-1.6943,3.3656-2.6877.6019-.5678,1.2108-1.2095,1.5901-2.0407.4837-1.053.4618-2.2085-.0409-3.0828-.5918-1.02-1.8455-1.628-3.1991-1.549-1.0453.0644-1.9767.4853-2.8421.9135-.7534.3713-1.4988.7613-2.2358,1.1654.8458-1.8259,1.4396-3.8164,1.3644-5.9346-.0808-2.3194-.9818-4.4471-1.7571-6.0484-.2205-.4526-.6774-1.393-1.6795-1.6882-.8552-.2517-1.8475.1024-2.473.8862-.4544.5733-.6451,1.2395-.799,1.7748l-2.1237,7.4379c-.0382.136-.0801.2734-.1249.4144-.7455-2.4445-2.0369-4.7106-3.775-6.5952-1.1392-1.2329-2.2108-1.9876-3.3715-2.3766-1.6195-.5444-3.3306-.2636-4.4633.7374-1.5721,1.3839-1.6368,3.7082-.8939,5.443.0528.1235.1097.2431.1703.3588.849,1.634,2.2555,2.7415,3.6708,3.854,1.6244,1.2759,3.2252,2.5855,4.8094,3.9158-.4739.6001-.8428,1.6305-.2698,3.3065.0497.1469.105.2894.1651.4297.3462.8086.8369,1.5019,1.3131,2.1772l.1922.2758c-5.799,2.6296-11.1321,6.4852-15.432,11.1745-.3815.4159-.7543.8444-1.1287,1.2775-.921-11.5374-1.2049-23.141-.8051-34.7122l6.6359-3.3513c.1306-.0648.283-.1433.4427-.2382.0174-.0009.0357-.0021.0523-.0048,3.4964-.4118,7.1114-.8391,10.5953-1.8702,2.3551-.6983,3.701-1.9743,3.7894-3.5912.0588-1.1014-.5205-2.2242-1.6285-3.1649-2.339-1.9793-5.7974-2.4894-8.6055-1.2715-2.8099,1.2163-4.8048,4.0879-4.9712,7.3192-.0087.223-.0221.5257-.0844.6231-.0654.1033-.3654.2561-.5288.3371l-5.586,2.8211c.2775-6.5357.7567-13.0578,1.4568-19.5478,1.5168-1.3636,3.5352-2.3911,6.0141-3.0456,2.3943-.6354,4.9106-.8668,7.3444-1.0917.2476-.023.5033-.0646.7581-.1041.0122.0436.0148.0887.0329.1308.04.0936.095.1829.1647.2661,2.5449,2.9892,5.5089,5.57,8.8066,7.69-.0031.0345-.0099.0676-.0123.1022-.0576.8176.0752,1.611.3765,2.3147.2164.5052.5185.9628.8987,1.3493.5601.5684,1.2729,1.0073,2.1217,1.3039,1.9.6591,4.1169.1396,5.5149-1.2918,1.2167-1.2495,1.5752-2.9776.9576-4.6242-.5882-1.5885-2.0055-2.8508-3.6924-3.3355-1.5551-.4458-3.1418-.1716-4.3521.7541-.4777.3653-.87.8315-1.1719,1.3608-2.7666-1.8389-5.2703-4.0311-7.466-6.5305,1.945-.5976,4.0586-1.6034,6.3198-3.0102.5377.5741,1.1761.9854,1.7562,1.3073,2.0378,1.1339,4.4934,1.3271,6.2581.4962.9851-.4639,2.2414-1.4579,2.6304-3.5623.672-3.6339-2.1845-7.3957-5.1673-8.497-1.5913-.5877-3.1029-.4587-4.1487.3524-.8287.6426-1.2186,1.6068-1.5039,2.3114-.4262,1.0529-.8655,2.1423-1.0221,3.3564-.1115.8625-.0462,1.6833.1699,2.4209-3.2055,2.0037-6.0397,3.1424-8.4213,3.3642-2.5182.2324-5.1226.4727-7.6861,1.1494-1.9669.5213-3.6863,1.2632-5.1508,2.2049.8164-6.9404,1.8575-13.8437,3.1595-20.6808.8409-4.4081.5274-7.6644-1.1194-11.6164-1.0403-2.5155-2.9407-5.6969-6.306-7.2855-1.4481-.6821-2.8327-.8334-4.0023-.4411-1.1257.3756-2.0933,1.2683-2.727,2.514-1.2236,2.4129-.9278,5.6303.7732,8.3877ZM20.57252,51.69663c-1.931-1.9526-3.3774-4.4049-4.7767-6.7753-.1875-.3141-.756-1.2776-.51-1.7063.1827-.315.9118-.397,1.7728-.1987,3.6517.8482,6.732,3.6328,8.2215,7.1119.6235,1.456.9686,3.0356.9574,4.6437-.0002.0665-.0015.1357-.0012.2065-1.9577-.3931-3.9324-1.5318-5.6638-3.2818ZM15.90912,82.51333c.084,1.1997-.4619,2.3192-1.4262,2.9226-.768.4816-1.8299.5332-2.6423.1281-1.2651-.6299-1.8374-2.1475-1.9453-3.3614-.0422-.4582-.0143-.7757.0918-.996.099-.2106.3131-.4219.6575-.6469,1.1277-.7465,2.5657-.9126,3.6641-.4241.9382.42,1.5228,1.2837,1.6004,2.3777ZM4.86782,70.09573c-.5136-.5685-.8827-1.2055-1.0584-1.8278-.481-1.6742.405-3.6525,1.9729-4.4101,1.5686-.7557,3.6682-.2175,4.6805,1.2004l-.0007-.0019c1.2453,1.7478,1.151,3.4579.4449,4.6926-.0233.0211-.0529.0304-.0746.0541-.1027.1112-.1661.2413-.2112.3759-.1945.2557-.4145.4855-.6557.6795-1.176.9465-3.217,1.3154-5.0977-.7627ZM45.28432,117.48873c2.2927-3.3019,4.9242-6.3919,7.8107-9.2035,1.0015.3195,1.9174.919,2.5804,1.7277-3.1185,3.4571-6.7508,6.344-10.8173,8.6008.0106-.3319.0363-.6851.0758-1.0575.117.0726.2704.046.3504-.0675ZM56.19452,110.91293c.0808.2998.068.6706-.0371,1.1032-.5525,2.2319-2.8684,3.7172-4.9959,4.9316-1.0846.6194-2.2439,1.2685-3.4266,1.8059-.6373.2884-1.3023.5377-1.8432.4305-.209-.0434-.4417-.0722-.6753-.1007-.0294-.0035-.07-.0094-.1037-.0136,4.0823-2.2668,7.7311-5.161,10.8699-8.6221.0532.089.1041.1771.1401.2612.0296.0693.053.1368.0718.204ZM45.81952,113.14483c.3493-1.2633.7579-2.189,1.2876-2.9097.9748-1.3231,2.5999-2.1694,4.2412-2.21.3897-.0092.7802.0302,1.1636.1077-2.7644,2.719-5.2909,5.6901-7.51,8.8565.1561-1.1396.4294-2.4331.8176-3.8445ZM64.03262,102.83333c1.198,1.8256,1.8506,3.7275,1.8878,5.4898.0174.8297-.1119,1.4587-.3993,1.9228-.2715.4418-.7498.7262-1.138.6754-.5585-.071-1.0774-.75-1.4653-1.3324-1.9374-2.9038-3.3095-6.0987-4.096-9.5009.7116-.3563,1.3523-.8474,1.8884-1.4362,1.1733,1.185,2.1949,2.4618,3.3224,4.1815ZM72.02432,95.59583c.1872.1657.4148.3872.5172.6157.0015.0038.0032.0075.0048.0112.1802.4212-.0452,1.0714-.5096,1.4584-.4883.4083-1.2135.6414-2.2164.7142-2.6795.1943-5.4247-.7643-7.8979-1.6973.4052-1.0515.5298-2.2075.3567-3.3233,1.6051-.1385,3.341.0409,4.7933.1958,1.3929.1477,3.3815.6184,4.9519,2.0253ZM65.00932,84.72313c.7019-.3471,1.3871-.6603,2.0433-.6999.5538-.0334,1.0775.1787,1.2711.5144.161.2542.1486.7402-.0499,1.1661-.2326.5094-.6795.9731-1.1288,1.3981-1.5172,1.4424-3.2221,2.6661-5.0685,3.6427l-.5531.2855c-.022.0113-.0434.0235-.0655.0348-.2705-.4815-.604-.973-1.0139-1.4904-.3362-.4246-.6991-.8245-1.0736-1.2125.1386-.2186.2785-.4389.4204-.6648.3355-.3208.8146-.5879,1.3398-.8792l.5095-.2868c1.103-.6384,2.2286-1.2421,3.3692-1.808ZM56.38822,81.02003l2.1228-7.4373c.1135-.3941.2308-.8031.426-1.0505.1024-.1281.2323-.1793.2516-.183.04.0183.1558.1103.3941.5997.6873,1.4086,1.4803,3.2814,1.5486,5.2097.0992,2.7945-1.2428,5.422-2.9951,8.2472-.1357.15-.2585.3163-.3714.4937-.2546-.2021-.5112-.4018-.7777-.5885-.4002-.2812-.9101-.5384-1.4687-.7464-.3005-.9328.1187-2.2205.5297-3.4668.1213-.3708.2412-.7321.3401-1.0778ZM46.82852,80.60203c-1.186-.9338-2.4131-1.8987-3.0542-3.1324-.5376-1.0255-.5876-2.5387.2515-3.2788.5686-.5004,1.5183-.628,2.4223-.3242.8174.2746,1.6123.8511,2.5029,1.814,1.727,1.8715,2.9543,4.1739,3.5442,6.643.0832.3498.1545.7024.2266,1.0546.1144.5657.2384,1.1437.4035,1.7187-.2459-.0013-.4875.0182-.7237.0523-1.812-1.5341-3.6522-3.0396-5.5731-4.5472ZM53.74892,91.53083l-.4329-.6208c-.4965-.7041-.9648-1.3761-1.2095-2.0797-.1422-.4174-.331-1.1581.0165-1.4199.6337-.4751,2.5855-.1526,3.6652.6053,1.1384.7993,2.155,1.7592,3.0223,2.8539.5101.6429.8701,1.2174,1.1065,1.7696.0256.0598.0417.1187.0645.1785.0058.0182.0032.0372.0102.0551.0057.0185.0203.0312.0273.0488.0288.0811.0641.1631.0876.2432.3501,1.1898.1545,2.5203-.5217,3.5606-.642.9857-1.6984,1.684-2.9779,1.8995-.0106-.0531-.0188-.1004-.0244-.129-.4472-2.475-1.4293-4.8823-2.8337-6.9651ZM42.84042,63.88913c.118-2.285,1.6084-4.4313,3.7097-5.3398,2.0986-.9097,4.6825-.5279,6.4301.9495.3873.3281.6608.6695.797.9876.0714.1665.1039.3253.0961.4726-.051.9386-1.6259,1.5066-2.3007,1.7047-2.8305.8399-5.816,1.2657-8.7529,1.6218.0086-.1299.0147-.2633.0207-.3964ZM64.71752,49.85833c1.0663.3052,1.9454,1.0915,2.3165,2.0643.453,1.2077-.1181,2.0435-.4988,2.4347-.8311.8519-2.2044,1.1719-3.3375.7779-.5352-.1873-.9923-.4632-1.3209-.7964-.4905-.4964-.7407-1.2463-.6819-2.0555.0589-.8246.4374-1.5801,1.0125-2.0212.9312-.711,1.9719-.5587,2.5101-.4038ZM59.49282,36.45843c.1218-.949.5117-1.911.8869-2.8423.2187-.5366.4654-1.1471.8489-1.4464.4578-.3532,1.2613-.3694,2.1503-.0416,1.396.5141,2.7897,1.8993,3.4708,3.4901.3701.8647.5306,1.7902.3682,2.6704-.1828.9928-.6778,1.6831-1.4688,2.0572-1.1595.5452-2.9104.3715-4.3576-.4329-.5086-.2827-1.0769-.6352-1.4275-1.1073-.5714-.7784-.5409-1.8014-.4712-2.3472ZM31.18362,7.63473c2.6919,1.2701,4.3047,3.9457,5.1983,6.0322.0247.0582.048.1124.071.169.5844,1.4029.9711,2.7097,1.1897,4.0225-1.0715-1.967-2.2034-3.9553-3.6019-5.749-1.6784-2.1517-3.5376-3.7308-5.5331-4.7184.0745-.0363.1473-.0824.2234-.108.8234-.275,1.7881.0382,2.4526.3517ZM27.20042,8.76663c.216-.4256.4943-.7732.8013-1.0397,2.0278.9392,3.9216,2.516,5.6277,4.7048,1.5997,2.0501,2.8599,4.3805,4.0774,6.6339.0201.0373.0585.0517.0912.0743.0562.7138.0688,1.4389.0255,2.1922-3.8814-2.6251-7.7137-5.454-10.4592-9.3094-.2383-.3344-.4767-.7016-.6778-1.0884.0184-.7388.1625-1.4766.5139-2.1677ZM26.74652,12.03373c.0652.0956.1279.1987.1932.2903,2.8405,3.9898,6.9533,6.9863,10.8324,9.6028-.057.6384-.1358,1.2913-.259,1.9832l-4.4467-3.5816c-1.9179-1.5439-3.9009-3.1419-5.1755-5.2116-.5305-.863-.9747-1.9478-1.1444-3.0831Z"/><path class="cls-3" d="M42.75032,21.38563c.4963,5.1494,8.8176.4647,11.1007-.7349,1.7496-.9194,3.5502-1.8926,4.7561-3.4587,1.2058-1.5661,1.6503-3.8994.5059-5.5108-.8302-1.1693-2.3364-1.7266-3.77-1.6906-1.4334.0361-2.8061.5913-4.0638,1.2803-2.8261,1.5481-8.894,6.3277-8.5289,10.1147Z"/></g></g></g></svg>