<?xml version="1.0" encoding="UTF-8"?><svg xmlns="http://www.w3.org/2000/svg" viewBox="0 0 94.54452 106.28909"><defs><style>.cls-1{isolation:isolate;}.cls-2{fill:#ffda73;mix-blend-mode:multiply;}.cls-2,.cls-3{stroke-width:0px;}.cls-3{fill:#6d6d6d;}</style></defs><g class="cls-1"><g id="_レイヤー_2"><g id="Object"><path class="cls-2" d="M7.04523,46.83079c-2.1311,1.0336-4.5565,1.5272-6.4193,2.9902-.259.2035-.5172.4441-.5979.7634-.2234.884.935,1.422,1.8319,1.5864,8.1974,1.5019,17.029,2.9306,24.5665-.6247,3.1541-1.4877,6.1847-4.4722,5.6909-7.9244-.3401-2.3783-2.3299-4.2569-4.5581-5.1551-9.1132-3.6733-13.3231,4.8763-20.514,8.3642Z"/><path class="cls-2" d="M13.31773,18.00819c-.1505-.6003-.2708-1.3123.1411-1.7742.2731-.3062.7059-.4056,1.1122-.4625,2.603-.3641,5.2592.3566,7.6199,1.5124,6.5712,3.2174,11.2439,10.019,11.8898,17.307.1075,1.2132.0283,2.6208-.9292,3.3736-.4606.3621-1.0534.5055-1.6314.602-2.4803.414-5.0726.1097-7.4026-.83-2.1151-.853-4.0464-1.1215-5.1264-3.2149-2.6237-5.0854-4.2875-10.9864-5.6734-16.5134Z"/><path class="cls-2" d="M68.25293,6.19649c-2.1231,1.8913-4.2573,3.7943-6.0339,6.0143-2.3372,2.9205-4.0603,6.7537-3.0605,10.3581.5639,2.0331,1.9343,3.7523,3.4737,5.195,6.314,5.9173,16.1475,7.7464,24.167,4.4953,1.9944-.8086,3.9244-1.9457,5.217-3.6664.3288-.4378.6249-.9876.4629-1.5107-.1545-.4991-.6651-.7839-1.1317-1.0188-5.4293-2.7332-11.1355-5.5328-17.2127-5.4166,2.9094-3.4168,4.6616-7.9231,4.2891-12.3952-.2037-2.4467-1.0164-4.796-1.8228-7.1161-.8908-2.5611-2.508-.1406-3.7276.945-1.5408,1.3714-3.0804,2.744-4.6205,4.1161Z"/><path class="cls-3" d="M2.40483,41.88999c1.8041,1.7607,3.7837,3.425,6.1087,4.1842-.2852.1978-.5721.3925-.8767.5592l-.4783.2545c-1.1687.6118-2.6242,1.3741-2.9866,2.9773-.0631.2779-.01.57.1488.8072.1566.2372.405.4.6859.4489,2.9213.5151,5.8569.7726,8.7904.7726,3.3123,0,6.6225-.3278,9.9023-.9833,1.6327-.3257,3.3632-.7522,4.9468-1.6561,1.816-1.0362,3.0904-2.5478,3.5872-4.2538.2052-.6987.2848-1.3826.2515-2.0424,3.6657,1.9198,6.7363,5.3753,8.9449,9.2876-.3978-.0808-.8799-.0374-1.4564.1498-3.2226,1.0433-6.9299,3.8069-11.0176,8.2144-1.59,1.7131-3.7562,4.3688-4.2141,7.6352-.059.4051-.0897.9354.1934,1.4424.234.4214.623.7186,1.0953.8367.169.0428.34.061.5049.061.7674,0,1.4696-.3878,1.7711-.5822,2.9335-1.879,5.5964-4.154,7.9149-6.7608,1.4456-1.6276,2.887-3.5331,4.5359-5.9985l.236-.346c.6925-1.0013,1.2587-1.8893,1.4736-2.6581,1.5374,3.2434,2.4902,6.6531,2.7008,9.6644-.0399.91-.0707,1.7951-.0947,2.6453-.3641,13.1156.4316,28.0043,2.0788,38.854.0772.5161.523.8856,1.0281.8856.0529,0,.1057-.0041.1586-.0123.568-.0854.9608-.6168.8734-1.1868-1.6285-10.7357-2.4164-25.4819-2.054-38.4825.159-5.6665.5937-12.8154,2.4297-19.5891.1905.1121.3931.2218.6197.3265,6.02,2.7778,12.8522,3.3978,17.7541,3.3978,1.3111,0,2.4839-.0449,3.4671-.1039.3847-.0234,1.032-.0641,1.5818-.458.8386-.5975,1.1279-1.7935.688-2.846-.3115-.7452-.8856-1.2694-1.4596-1.7243-2.7075-2.1427-6.0197-3.6248-9.5804-4.2844-3.0477-.5639-6.2296-.5079-9.1916.1619-.7359.1656-1.5197.3776-2.2552.6449,2.6476-6.6319,6.696-11.7113,11.5567-14.4327.3602.6434.8151,1.262,1.3659,1.8408,2.2719,2.3869,5.79,3.7102,9.6069,3.7102.9772,0,1.9728-.0865,2.9744-.2647,4.1876-.744,7.9864-2.8043,11.836-5.0304.281-.1639.7513-.4367,1.0037-.9813.2564-.5563.194-1.14-.1255-1.6712,1.345-.7009,2.7072-1.553,3.7349-2.8319,1.3926-1.7335,2.0135-4.5378.5049-6.54-.5332-.7105-1.2439-1.193-1.8689-1.6174l-.4642-.3207c-.7227-.5201-1.1114-.9934-1.1867-1.4453-.0265-.164-.0246-.3339-.0265-.5019-.002-.4285-.0061-.9629-.2606-1.4963-.2311-.4886-.6894-1.0016-1.5328-1.274.4649-.444.8847-.868,1.1888-1.2687.3827-.5049.7919-1.1095.8021-1.8932.008-.5162-.1608-1.0413-.5049-1.5585-.5639-.854-1.4556-1.4993-2.4451-1.7721-.8854-.2443-1.7669-.1822-2.5202-.1079-2.2885.2258-4.547.7125-6.7247,1.4305-.2957-.7295-.654-1.4243-1.0908-2.0626-.5658-.8265-1.266-1.2154-1.9563-1.2144-.6657.0173-1.1542.395-1.4455.621l-6.3312,4.9194c-2.0012,1.5533-4.0695,3.1585-5.7796,5.1801-1.256,1.482-2.0418,2.904-2.4022,4.3474-.3583,1.4393-.2972,2.8654-.1873,4.4472.1318,1.885.4925,4.4176,1.928,6.0653-5.4028,3.3791-9.7837,9.418-12.402,17.1467-.0731.2156-.1284.4368-.1984.6534-.0746.1591-.1253.3256-.1514.4995-1.2235,3.9398-1.9542,8.0205-2.3886,11.9315-2.1399-6.1756-6.3458-12.297-11.9319-15.3648,1.7908-1.8449,2.0268-4.3532,2.0218-6.218-.01-2.673-1.032-5.4783-2.9581-8.1095-1.0178-1.3935-2.0052-2.3503-3.1045-3.011-1.2256-.7379-2.5649-1.0851-3.8597-1.4209-.9324-.2423-1.8139-.4713-2.6242-.8317-.802-.3583-1.5512-.8519-2.3433-1.3741-.6106-.4041-1.2234-.8072-1.8667-1.1563-2.0705-1.1166-4.094-1.3457-5.7023-.6413-.1629.0702-.6576.287-.9221.8143-.2911.5894-.1018,1.1685-.0244,1.4118.0576.1801.1201.3605.1782.5406-1.5498-.016-3.1406.7613-4.2153,2.1293-.7818.9915-1.0668,2.0206-1.3415,3.0161l-.1854.6504c-.0489.1608-.1953.6515-.2647.7288-.057.0591-.3868.2036-.6778.3308l-.3055.1344c-1.2458.5547-2.9824,1.4963-3.6907,3.2654-.34.8479-.3768,1.7304-.4072,2.5091-.01.227-.0183.455-.0346.6779-.0407.5131-.1851,1.4251-.7085,1.7702-.2158.1435-.3725.3634-.4356.6158-.5538,2.2108,1.366,4.0787,2.0886,4.782ZM64.47413,15.43909c.967-1.7977,2.282-3.4293,3.4384-4.7882,2.0684-2.4267,4.3055-4.7525,6.653-6.9136.1464-.1353.2991-.2687.454-.3766-.9385,1.2897-1.9463,2.5936-2.9277,3.8599-4.3548,5.6227-8.8548,11.4371-9.1974,18.2544-.1182-.0834-.2152-.196-.3187-.2998-.3524-3.345.3013-6.77,1.8984-9.7361ZM75.88983,4.20559c-.0008.0056-.0067.0084-.0072.0142-.5682,6.5268-4.9633,12.2433-8.5239,16.8747-.7371.9588-1.4984,1.9492-2.3838,2.7839-.2445.2311-.5151.4183-.7777.5996-.2648.1842-.5334.3705-.7573.5934.4986-6.4728,4.8511-12.0926,9.0633-17.5322,1.012-1.3068,2.0442-2.652,3.0103-3.9855.1318.213.2626.4263.3763.6519ZM73.15103,22.35179c.0192.0014.0351.0116.0544.012,4.3105.0767,8.5993,1.0814,12.5065,2.9095.0239.0156.0389.0398.0646.0536.0617.0328.1257.0532.1899.0729.0705.0338.1398.0701.2101.1045-1.8952-.1858-3.8395-.0317-5.6647.4893-.802.228-1.5897.5242-2.3533.8103-.6413.2412-1.3048.4906-1.9685.6952-3.2698,1.0085-6.8228.9878-10.0963.0107,1.2106-.3838,2.2887-.9898,2.9261-1.393,1.4118-.895,2.714-2.08,4.1312-3.765ZM76.34863,30.93449c-4.22.7491-8.3282-.3329-10.7041-2.8318-.0751-.0787-.1316-.1626-.2021-.2426,1.8277.6049,3.7505.9174,5.6764.9174,1.7671,0,3.5341-.2575,5.2259-.7797.6759-.2096,1.3476-.4621,1.997-.7054.7533-.283,1.531-.5751,2.3128-.798,1.9868-.566,4.1143-.7074,6.1622-.4092.1031.0172.1925-.0496.2461-.1402.0376.0199.0768.0367.1144.0567.1118.0601.2056.1232.2789.1802-3.8008,2.1976-7.2638,4.0695-11.1075,4.7526ZM90.12093,15.68739l.5069.3512c.5395.3654,1.0485.7115,1.3741,1.1451.8611,1.1421.4051,2.9041-.4622,3.981-.9567,1.1907-2.4371,1.9857-3.8267,2.6696.5945-1.3024,1.0374-2.6644,1.3085-4.0661.1405-.7268.2321-1.5086-.0529-2.2964-.2382-.6617-.6759-1.1339-1.1949-1.6958-1.8587-2.0429-2.1724-3.2094-2.0664-3.5749.0794-.2707.3391-.6238.6702-.999,1.0372-.1202,1.5082.0489,1.6017.2438.0551.117.057.3715.059.6178.0041.2779.0102.5568.055.8276.171,1.024.8347,1.9381,2.0277,2.7961ZM78.85073,6.05309c2.0094-.6566,4.0941-1.0943,6.2051-1.303.5699-.0559,1.2214-.1038,1.7629.0438.509.1405.9672.4723,1.2602.9141.1181.1771.1588.3074.1568.3746-.0022.1689-.2565.5049-.3787.6657-.2972.3908-.8427.9049-1.421,1.4495-1.1725,1.1023-2.384,2.2424-2.7298,3.418-.4134,1.42.4131,3.239,2.5262,5.5639.0022.002.1425.1557.1447.1577.2747.2983.5353.5792.6311.8428.112.3115.0509.7563-.0346,1.192-.2435,1.2615-.6459,2.4862-1.1863,3.657-3.5006-1.5239-7.2622-2.4376-11.0715-2.6794,2.0105-2.7646,3.2946-5.386,3.9089-7.9807.506-2.1333.5247-4.2556.1164-6.2062.0348-.0384.0809-.0668.1096-.1098ZM76.59703,11.88859c-.6249,2.6404-2.052,5.3501-4.3585,8.2857-1.5574,1.9788-2.8929,3.2684-4.3343,4.1815-1.3226.8378-3.0927,1.5816-4.3078,1.3777.1925-.3152.5029-.5534.8979-.827.277-.1924.5639-.3909.8389-.6495.916-.8621,1.6896-1.8698,2.4673-2.8826,3.4171-4.4443,7.626-9.9309,8.4963-16.2443.7484,2.0026.8665,4.3668.3002,6.7585ZM61.14343,16.40099c.2811-1.1248.9243-2.271,1.9707-3.5046,1.5695-1.8557,3.5504-3.3927,5.466-4.8798l3.9675-3.0821c-1.7577,1.7154-3.4441,3.517-5.0301,5.3784-1.1767,1.3803-2.5122,3.0395-3.5037,4.8798-1.5136,2.8128-2.2069,6.0259-2.0257,9.2075-.7755-1.406-.9206-3.4139-.975-4.2004-.0977-1.4017-.1547-2.6547.1303-3.7988ZM13.58123,41.40749c-1.0137-.289-1.5145-1.6642-1.6835-2.2434-1.0435-3.5736.3644-7.7888,3.2894-10.0864.5438,1.5811,1.0873,3.1646,1.6455,4.7262.3624,1.0148.8122,2.278,1.6326,3.3183.2401.3053.6554.5801,1.1592.8252-1.871.5936-3.6328,1.5059-5.1534,2.713-.3026.2398-.5809.5028-.8665.7591-.0085-.0027-.0146-.0095-.0233-.012ZM14.96413,20.21569c1.3931,1.0374,2.6659,2.286,3.8961,3.4937,1.5228,1.4963,3.0984,3.0445,4.9346,4.2212.6292.4021,1.2929.7645,1.9342,1.1147.965.5262,1.9624,1.0698,2.8317,1.7517,2.5473,1.9934,3.9785,5.3045,3.7881,8.5269-.4803-1.4176-1.5999-2.7732-3.2384-3.8629-.8408-.5588-1.7469-1.0291-2.6242-1.483-.9996-.5181-2.0337-1.0536-2.9539-1.7172-2.6364-1.9015-4.2507-4.6844-5.9608-7.6302-.8586-1.4769-1.7496-2.9915-2.7712-4.3811.0551-.0096.1088-.0272.1638-.0338ZM17.11953,24.89229c1.6633,2.8633,3.3816,5.8243,6.1074,7.7919.9508.685,2.0033,1.2296,3.0192,1.7569.8651.4479,1.7587.911,2.5752,1.4535.8773.5834,2.7901,2.0778,3.1934,4.1855-.1151.0987-.2404.1903-.3683.2794-.0376-.059-.0692-.1204-.1094-.1785-1.1747-1.6917-3.3-2.8063-5.688-2.9794-.264-.0198-.529-.0149-.7937-.0215-.0429-.0042-.0825-.0223-.1264-.0212-.9894.0926-4.316-.8001-4.827-1.3253-.6086-.7737-.9791-1.8129-1.3069-2.7311-1.4153-3.9598-2.7869-8.0086-4.1163-12.1339.8828,1.2555,1.6753,2.6049,2.4408,3.9237ZM10.58883,48.61119c.633-.0794,1.2887-.1629,1.93-.3033,6.5063-1.4353,12.3694-3.6838,17.4365-6.6825.2258.9243-.4908,1.9808-1.2948,2.7035-2.4288,2.1813-5.8448,3.5331-10.4435,4.1306-1.6694.2168-3.3795.3278-5.0325.4357-.4847.0315-.9672.0631-1.4497.0977-.3766.0265-.7797.0397-1.1969.0529-.9976.0326-2.0786.0672-3.0618.2911.9038-.4478,1.9889-.5842,3.1127-.7257ZM13.18843,44.69739c.8612-.8683,1.6754-1.6887,2.5774-2.4043,2.7422-2.1732,6.3353-3.2684,9.9325-3.0129,1.6409.1201,3.1319.8437,3.9729,1.9007-5.0151,2.9661-10.8188,5.1954-17.2664,6.618-.615.1354-1.2582.2168-1.8813.2952-.5808.0731-1.1668.1514-1.735.2722,1.7076-.9721,3.0803-2.3383,4.3999-3.6689ZM30.23203,44.41539c-.3398,1.1686-1.2948,2.273-2.62,3.0293-1.3253.7562-2.8602,1.1298-4.3199,1.422-4.5672.9108-9.1888,1.1561-13.7934.7435.3561-.0197.7111-.0321,1.0555-.0432.4255-.0143.8347-.0275,1.2174-.055.4824-.0336.9649-.0651,1.4455-.0967,1.6631-.1079,3.3792-.2198,5.0669-.4387,4.7068-.6117,8.2144-2.0052,10.7265-4.2609.3152-.2829,1.0583-1.0226,1.3712-1.9245.0683.5088.0182,1.0512-.1497,1.6242ZM19.77213,22.05029c.8286.5466,1.6836,1.1115,2.6446,1.538.967.4316,1.9746.6932,2.9477.9456,1.2032.3125,2.3413.6077,3.3083,1.1899.8549.513,1.6489,1.2938,2.4977,2.4542,1.1587,1.5869,2.5448,4.0695,2.555,6.8871.005,1.7298-.2597,3.0105-.8368,3.978.0905-3.2899-1.4101-6.6242-4.0062-8.6573-.9039-.7075-1.9198-1.2611-2.903-1.7976-.6353-.3461-1.2907-.7033-1.9035-1.0973-1.7895-1.1471-3.3449-2.675-4.8513-4.153-1.0807-1.0622-2.1995-2.1468-3.4077-3.1108.8793.1045,1.7109.4729,2.2432.7605.5904.3196,1.1501.6922,1.712,1.0627ZM3.53883,34.88079c.0183-.2493.0285-.5008.0388-.7532.0265-.6688.0528-1.3009.2584-1.816.3259-.8122,1.1523-1.4912,2.6039-2.1365l.295-.1293c1.3194-.5781,1.645-.8458,2.101-2.3706l.1975-.6932c.2423-.8693.4499-1.6205.9731-2.2842.7655-.9782,1.9565-1.5014,2.9783-1.2978.1005.0205.199.009.2971-.0003.3961,1.207.7862,2.4141,1.1936,3.6189-4.0159,2.731-5.9407,8.0675-4.5789,12.7288.4277,1.4654,1.1566,2.5642,2.1018,3.1948-.095.0957-.1955.1913-.2899.2864-.3962.3993-.7875.786-1.1804,1.1626-2.503-.2449-4.6853-2.0593-6.6697-3.9944-1.0505-1.023-1.5532-1.822-1.5552-2.4806.7144-.6657,1.1297-1.6826,1.2356-3.0354Z"/><path class="cls-3" d="M41.71603,20.70459c-.7716-.4824-1.704-.9507-2.7647-.8061-.3359.0478-.6513.2748-.8062.5771-.5862,1.1461,2.6975,8.418,2.734,8.4862,1.25,2.3808,2.8848,4.7648,4.8576,7.0856l.2728.3369c.5313.6626,1.364,1.7039,2.6383,1.7039.2361,0,.4864-.0356.7553-.116,1.4984-.452,2.1212-2.0857,2.0684-3.4151-.1101-2.5834-1.9015-5.523-3.2389-7.5089-1.7264-2.5651-3.9801-4.7587-6.5166-6.3436Z"/></g></g></g></svg>