<?xml version="1.0" encoding="UTF-8"?><svg id="_レイヤー_2" xmlns="http://www.w3.org/2000/svg" viewBox="0 0 479.99999 392"><defs><style>.cls-1{stroke-width:2.51181px;}.cls-1,.cls-2,.cls-3,.cls-4,.cls-5{fill:none;stroke:#333;stroke-linecap:round;stroke-linejoin:round;}.cls-2{stroke-width:2.31055px;}.cls-6{fill:#333;}.cls-6,.cls-7{stroke-width:0px;}.cls-3{stroke-width:1.91666px;}.cls-7{fill:#fff;}.cls-4{stroke-width:2px;}.cls-5{stroke-width:2.0165px;}</style></defs><g id="svg8"><g id="layer1"><path id="rect818" class="cls-7" d="M0,0h479.99999v392H0V0Z"/></g><g id="g969"><path id="path877" class="cls-4" d="M170.01168,71.98831c7.173-.0006,12.9878-5.81531,12.9883-12.98831-.0005-7.173-5.8153-12.98769-12.9883-12.98829-1.0538.00429-2.1032.1368-3.125.3945-.8143-7.6109-7.2323-13.3856-14.8867-13.3945-6.5638.0004-12.3638,4.27129-14.3125,10.5391-1.1931-.3549-2.431-.5364-3.6758-.5391-7.1737-.0005-12.9897,5.8145-12.9902,12.98829.0005,7.17381,5.8165,12.98881,12.9902,12.98831"/><path id="rect892" class="cls-4" d="M172.99999,72v6c0,1.108-.892,2-2,2h-38c-1.108,0-2-.892-2-2v-9"/><path id="rect895" class="cls-4" d="M169.99999,80v7c0,4.432-3.568,8-8,8h-20c-4.432,0-8-3.568-8-8v-7"/><path id="path898" class="cls-4" d="M139.99999,85h5"/><path id="path900" class="cls-4" d="M158.99999,85h5"/><path id="path905" class="cls-4" d="M157.60108,55.08131c1.6623-5.2646,6.5849-9.08131,12.3989-9.08131"/><path id="path911" class="cls-4" d="M138.53068,54.60891c-.9802-1.99391-1.5307-4.2371-1.5307-6.60891,0-8.28429,6.7157-15,15-15"/><path id="path923" class="cls-4" d="M154.99999,88c0,1.65691-1.3431,3-3,3-1.6568,0-3-1.34309-3-3"/><path id="path927" class="cls-4" d="M169.99999,49.80761c5.0768,0,9.1924,4.1156,9.1924,9.19239"/><path id="path929" class="cls-4" d="M144.28478,40.15941c1.9854-1.9539,4.7096-3.15941,7.7152-3.15941,4.125,0,7.7197,2.27061,9.6025,5.63011"/><path id="path933" class="cls-4" d="M124.82108,56c0-3.95039,2.4955-7.318,5.9962-8.61209"/></g><g id="g1013"><path id="path971" class="cls-4" d="M258.01168,252.9883c7.173-.0006,12.9878-5.8153,12.98831-12.9883-.00051-7.173-5.81531-12.9877-12.98831-12.9883-1.0538.0043-2.1032.1368-3.125.3945-.8143-7.6109-7.2323-13.3856-14.88669-13.3945-6.56381.0004-12.36381,4.2713-14.31251,10.5391-1.1931-.3549-2.431-.5364-3.6758-.5391-7.17369-.0005-12.98969,5.8145-12.9902,12.9883.00051,7.1738,5.81651,12.9888,12.9902,12.9883"/><path id="path973" class="cls-4" d="M260.99999,253.0117v9.9883c0,1.108-.892,2-2,2h-38c-1.108,0-2-.892-2-2v-12.9883"/><path id="path981" class="cls-4" d="M245.60108,236.0813c1.6623-5.2646,6.58491-9.0813,12.39891-9.0813"/><path id="path983" class="cls-4" d="M226.53068,235.6089c-.9802-1.9939-1.53069-4.2371-1.53069-6.6089,0-8.2843,6.71569-15,15-15"/><path id="path987" class="cls-4" d="M257.99999,230.8076c5.07679,0,9.19239,4.1156,9.19239,9.1924"/><path id="path989" class="cls-4" d="M232.28478,221.1594c1.9854-1.9539,4.7096-3.1594,7.71521-3.1594,4.125,0,7.71969,2.2706,9.60249,5.6301"/><path id="path991" class="cls-4" d="M212.82108,237c0-3.9504,2.4955-7.318,5.9962-8.6121"/></g><g id="g1127"><g id="g1053"><path id="rect1027" class="cls-4" d="M234.99999,121l1,20c.13839,2.76651-2.23,5-5,5l1,34c.04749,1.66131-1.338,3-3,3s-3.04751-1.33869-3-3l1-34c-2.77,0-5.13831-2.23349-5-5l1-20"/><path id="path1030" class="cls-4" d="M230.99999,121v21"/><path id="path1034" class="cls-4" d="M226.99999,121v21"/></g><path id="path1059" class="cls-4" d="M249.99999,180c0,1.65691,1.34319,3,3,3,1.65689,0,3-1.34309,3-3v-59c-9,9-10,21-10,40h4v19Z"/></g><g id="g1091"><path id="rect861" class="cls-4" d="M267.99999,77c1.662,0,3,1.338,3,3s-1.338,3-3,3h-56c-1.662,0-3-1.338-3-3s1.338-3,3-3h56Z"/><path id="path867" class="cls-4" d="M212.99999,76c0-14.91169,12.08829-27,27-27,7.00659,0,13.38979,2.66891,18.18859,7.04541,1.3001,1.1858,2.484,2.4969,3.53241,3.9142,3.31749,4.4849,5.279,10.0336,5.279,16.04039"/><path id="path941" class="cls-4" d="M227.58148,57.83761c3.5342-2.4212,7.811-3.83761,12.41851-3.83761,9.29979,0,17.25189,5.77031,20.47119,13.92591"/><path id="path1080" class="cls-4" d="M239.99999,49v-4"/><path id="path1082" class="cls-4" d="M236.99999,45h6"/></g><g id="g962"><path id="path908" class="cls-4" d="M134.99988,143.98581c0-6.0677,3.1788-11.3929,7.962-14.4011"/><path id="path910" class="cls-4" d="M163.48328,143.02331c2.0173-2.4646,5.0833-4.0376,8.5166-4.0376"/><path id="path912" class="cls-4" d="M124.99988,149.98581c0-2.91,1.7756-5.4052,4.3025-6.4614"/><path id="path914" class="cls-4" d="M171.99988,142.98581c3.866,0,7,3.134,7,7"/><path id="path916" class="cls-4" d="M157.54218,132.223c2.4269,1.14551,4.4422,3.02,5.7634,5.34091"/><path id="path922" class="cls-4" d="M172.99988,160.98581l-3,19c-.2592,1.6416-1.338,3-3,3h-30c-1.662,0-2.7408-1.3584-3-3l-3-19"/><path id="path924" class="cls-4" d="M140.99988,162.98581l2,16"/><path id="path926" class="cls-4" d="M151.99988,164.98581v14"/><path id="path928" class="cls-4" d="M162.99988,162.98581l-2,16"/><path id="path930" class="cls-4" d="M138.99999,144c0-4.32479,2.1119-8.15639,5.3607-10.51969"/><path id="path907" class="cls-4" d="M151.99999,121c-2.7614,0-5,2.23861-5,5,.0016.57411.102,1.14361.2969,1.68361-5.722,1.654-10.161,6.1819-11.7012,11.9355-1.1557-.40511-2.371-.6143-3.5957-.61911-6.0751,0-11,4.92491-11,11s4.9249,11,11,11c3.4164-.00489,6.6366-1.597,8.7149-4.30859,3.1074,2.7693,7.1228,4.3024,11.2851,4.30859,4.1603-.00769,8.1734-1.54059,11.2793-4.30859,2.0795,2.7132,5.3022,4.3055,8.7207,4.30859,6.0751,0,11-4.92489,11-11s-4.9249-11-11-11c-1.2204.00421-2.4316.21151-3.584.61331-1.5441-5.75431-5.9879-10.2804-11.7129-11.9297.1949-.54.2953-1.1095.2969-1.68361,0-2.76139-2.2386-5-5-5Z"/><path id="path947" class="cls-4" d="M149.01988,130.01521c-1.2257-.91121-2.0199-2.3705-2.0199-4.01521,0-2.76139,2.2386-5,5-5s5,2.23861,5,5c0,1.62471-.7749,3.06841-1.9752,3.98171"/></g><g id="g1048"><g id="g1033"><path id="path1000" class="cls-4" d="M326.99999,61c0-4.66209-2.90521-8.63689-7-10.23829v-17.76171h-8v17.76171c-4.09481,1.6014-7,5.5762-7,10.23829"/><path id="path993" class="cls-4" d="M311.99999,39h8"/><path id="rect1003" class="cls-4" d="M326.99999,61v31c0,1.662-1.338,3-3,3h-16c-1.662,0-3-1.338-3-3v-31"/><path id="path1006" class="cls-4" d="M322.99999,61c0-3.15489-2.08711-5.82229-4.95591-6.69689"/><path id="path1011" class="cls-4" d="M326.99999,66h-12v23h12"/></g><g id="g1026"><path id="path976" class="cls-4" d="M343.99999,80v15"/><path id="path978" class="cls-4" d="M338.98578,95.00011h10"/><path id="path980" class="cls-4" d="M351.99999,72c0,4.41831-3.58171,8-8,8s-8-3.58169-8-8"/><path id="path982" class="cls-4" d="M335.99999,72v-16h16v16"/><path id="path1013" class="cls-4" d="M343.99999,76c2.20919,0,4-1.79089,4-4"/><path id="path1016" class="cls-4" d="M347.99999,60v12"/></g></g><g id="g1161"><g id="g1057"><path id="path1015" class="cls-4" d="M55.05079,58.77731c3.981-.86931,6.9492-4.4074,6.9492-11.27731,0-8.00809-4.0294-14.5-9-14.5s-9,6.49191-9,14.5c0,6.86991,2.9682,10.408,6.9492,11.27731l-.9492,33.22269c-.0475,1.66131,1.338,3,3,3s3.0475-1.33869,3-3l-.9492-33.22269"/><path id="path1023" class="cls-4" d="M57.99989,46.80621c0-4.5564-2.2385-8.2501-4.9999-8.2501"/></g><g id="g1066"><path id="path1060" class="cls-4" d="M82.99999,33l1,20c.1384,2.76651-2.23,5-5,5l1,34c.0475,1.66131-1.338,3-3,3s-3.0475-1.33869-3-3l1-34c-2.77,0-5.1383-2.23349-5-5l1-20"/><path id="path1062" class="cls-4" d="M78.99999,33v21"/><path id="path1064" class="cls-4" d="M74.99999,33v21"/></g></g><g id="g1089"><g id="g1008"><path id="path1002" class="cls-1" d="M424.45367,125.56681c2.2551,15.7477-8.45369,26.43319-27.0536,30.3695l-3.3816,8.9985-9.0184-8.9989,9.018-3.3742c3.94491-18.5596,14.6537-29.2451,30.4356-26.9949Z"/><path id="path1004" class="cls-1" d="M422.19957,140.18951c-5.6364-1.125-11.2729-6.7494-12.4004-12.3736"/><path id="circle1006" class="cls-6" d="M420.18207,128.17631c-.4577-.4567-1.1999-.4568-1.6576,0-.4577.45669-.4577,1.1972,0,1.654.4578.45669,1.1999.4568,1.6577,0,.4577-.4567.4576-1.1972-.0001-1.654Z"/></g><g id="g1079"><path id="path1073" class="cls-1" d="M407.54627,178.43321c-2.2551-15.7477,8.45371-26.43321,27.0536-30.3695l3.3816-8.9985,9.01851,8.9989-9.01811,3.3742c-3.94489,18.5596-14.6537,29.2451-30.4356,26.9949Z"/><path id="path1075" class="cls-1" d="M409.80037,163.81051c5.6364,1.125,11.273,6.7494,12.4004,12.3736"/><path id="circle1077" class="cls-6" d="M410.39337,173.49831c.4333.4324,1.1359.4324,1.5692.0001.4333-.43241.4333-1.13341-.0001-1.5658-.4333-.4324-1.1359-.4324-1.5692-.0001-.43329.4324-.43329,1.1334.0001,1.5658Z"/></g></g><g id="g1009"><path id="path998" class="cls-4" d="M40.33879,260.0297c-4.5779-5.4026-7.3388-12.3937-7.3388-20.0297,0-17.1208,13.8792-31,31-31s31,13.8792,31,31c0,6.9367-2.2783,13.3412-6.1275,18.5061"/><path id="path942" class="cls-4" d="M85.93589,261.9047c-5.6111,5.6191-13.3675,9.0953-21.9359,9.0953-7.906,0-15.1207-2.9595-20.5967-7.8311"/><path id="path994" class="cls-4" d="M45.75989,250.4139c-1.7561-3.0692-2.7599-6.6243-2.7599-10.4139,0-11.598,9.402-21,21-21s21,9.402,21,21c0,3.0882-.6666,6.0206-1.8637,8.6614"/><path id="circle987" class="cls-4" d="M79.26469,254.4219c-3.8283,4.0506-9.2513,6.5781-15.2647,6.5781-6.085,0-11.5656-2.5881-15.401-6.7237"/><g id="g985"><path id="path960" class="cls-4" d="M59.13249,227.4697l-8,13.8564"/><path id="path969" class="cls-4" d="M66.06069,231.4697l-8,13.8564c-1.108,1.9191-3.545,2.5721-5.4641,1.4641l-12.5,21.6506c-.5523.9566-1.7755,1.2843-2.7321.7321-.9566-.5523-1.2843-1.7755-.732-2.7321l12.5-21.6506c-1.9191-1.108-2.5721-3.545-1.4641-5.4641l8-13.8564"/><path id="path974" class="cls-4" d="M62.59659,229.4697l-8,13.8564"/></g><path id="path946" class="cls-4" d="M93.29549,266.4408c.5523.9566.2245,2.1798-.732,2.7321-.9566.5522-2.1798.2245-2.7321-.7321l-7.5-12.9904-1.732,1c-3-5.1961-12.5-21.6506-9.8039-28.9808l22.5,38.9712Z"/></g><g id="g1206"><g id="g1114"><g id="g1019"><path id="path1012" class="cls-3" d="M325.90708,133.51671c-.2102-2.1046.4908-4.283,2.103-5.8952,2.8526-2.8526,7.4774-2.8526,10.33,0,2.8525,2.85249,2.8525,7.4774,0,10.3299-1.5725,1.5725-3.6835,2.2781-5.7393,2.117"/><path id="circle1014" class="cls-3" d="M330.96148,130.57291c1.2226-1.2226,3.2046-1.2225,4.4272,0"/></g><path id="path1036" class="cls-3" d="M338.34008,127.62151l6.6407-6.6407"/><path id="path1038" class="cls-3" d="M297.02018,168.94131l8.8543-8.8542"/><g id="g1056"><path id="path1052" class="cls-3" d="M313.99088,162.30061c-2.8526,2.8526-7.4775,2.8526-10.33,0-2.8525-2.8525-2.8525-7.4774,0-10.3299,2.8525-2.8526,7.4774-2.8526,10.33,0s2.8525,7.4774,0,10.3299Z"/><path id="path1054" class="cls-3" d="M306.61228,154.92211c1.2225-1.2225,3.2046-1.2225,4.4272,0"/></g><g id="g1090"><path id="path1085" class="cls-3" d="M317.79068,141.63311c-.2103-2.1046.4908-4.283,2.103-5.8952,2.8526-2.8526,7.4774-2.8526,10.33,0s2.8525,7.4774,0,10.3299c-1.5725,1.5725-3.6835,2.2781-5.7393,2.117"/><path id="path1087" class="cls-3" d="M322.84508,138.68931c1.2226-1.2225,3.2046-1.2225,4.4272,0"/></g><g id="g1096"><path id="path1092" class="cls-3" d="M309.67428,149.74951c-.21029-2.1046.4908-4.283,2.103-5.8952,2.8526-2.8526,7.4774-2.8526,10.33,0s2.8525,7.4774,0,10.3299c-1.5725,1.5725-3.6835,2.2781-5.73929,2.117"/><path id="path1094" class="cls-3" d="M314.72868,146.80571c1.2225-1.2225,3.2046-1.2225,4.4272,0"/></g></g><g id="g1174"><g id="g1150"><path id="path1146" class="cls-3" d="M339.92628,147.53591c-.2102-2.1045.4908-4.283,2.1031-5.8952,2.8525-2.8526,7.4774-2.8526,10.3299,0,2.8526,2.8525,2.8526,7.4774,0,10.33-1.5724,1.5724-3.6834,2.2781-5.73929,2.1169"/><path id="path1148" class="cls-3" d="M344.98078,144.59211c1.2225-1.2225,3.2046-1.2225,4.4271,0"/></g><path id="path1152" class="cls-3" d="M352.35928,141.64071l6.64071-6.64071"/><path id="path1154" class="cls-3" d="M311.03948,182.96061l8.8542-8.8543"/><g id="g1160"><path id="path1156" class="cls-3" d="M328.01008,176.31991c-2.8525,2.8525-7.4774,2.8525-10.33,0-2.8525-2.8526-2.8525-7.4775,0-10.33,2.8526-2.8525,7.4775-2.8525,10.33,0,2.8526,2.8525,2.8526,7.4774,0,10.33Z"/><path id="path1158" class="cls-3" d="M320.63158,168.94131c1.2225-1.2225,3.2046-1.2225,4.4271,0"/></g><g id="g1166"><path id="path1162" class="cls-3" d="M331.80988,155.65231c-.2102-2.1045.4908-4.283,2.103-5.8952,2.8526-2.8525,7.4775-2.8525,10.33,0,2.8526,2.8525,2.8526,7.4774,0,10.33-1.5725,1.5724-3.6834,2.2781-5.7393,2.11689"/><path id="path1164" class="cls-3" d="M336.86438,152.70851c1.2225-1.22251,3.20461-1.22251,4.4271,0"/></g><g id="g1172"><path id="path1168" class="cls-3" d="M323.69348,163.76871c-.2102-2.1045.4908-4.283,2.103-5.8952,2.8526-2.85251,7.47751-2.85251,10.33,0,2.8526,2.85249,2.8526,7.4774,0,10.33-1.57249,1.5724-3.68349,2.2781-5.7393,2.1169"/><path id="path1170" class="cls-3" d="M328.74798,160.82491c1.22249-1.2225,3.20459-1.2225,4.42709,0"/></g></g></g><g id="g1065"><path id="path1296" class="cls-4" d="M59.06149,303.3912c-14.7736,2.3651-26.0615,15.1687-26.0615,30.6088,0,4.9706,4.0295,9,9,9s9-4.0294,9-9h.1641c.9852,6.3277,6.4319,10.9954,12.8359,11,6.401-.008,11.8434-4.6752,12.8281-11h.1719c0,4.9706,4.0295,9,9,9s9-4.0294,9-9c0-15.4315-11.2753-28.2294-26.0368-30.6048"/><path id="path1292-4" class="cls-4" d="M61.01989,306.0152c-1.2257-.9112-2.0199-2.3705-2.0199-4.0152,0-2.7614,2.2386-5,5-5s5,2.2386,5,5c0,1.6247-.7749,3.0684-1.9752,3.9817"/><path id="path1320" class="cls-4" d="M40.99999,343l3,16h40l3-16"/><path id="path1322" class="cls-4" d="M63.99999,355v-6"/><path id="path1324" class="cls-4" d="M53.99999,355l-1-9"/><path id="path1326" class="cls-4" d="M73.99999,355l1-9"/><path id="path1001" class="cls-4" d="M72.07659,308.2287c10.0506,3.1466,17.5736,12.0105,18.7598,22.7824"/><path id="path1007" class="cls-4" d="M63.99999,341.184c-5.0722,0-9.184-4.1118-9.184-9.184"/><path id="path1017" class="cls-4" d="M41.99999,339c-2.7614,0-5-2.2386-5-5"/><path id="path1020" class="cls-4" d="M85.99999,339c-2.7614,0-5-2.2386-5-5"/></g><g id="g1104"><path id="rect1067" class="cls-4" d="M339.99999,228h8v37c0,3.324-2.676,6-6,6h-28c-3.324,0-6-2.676-6-6v-37h24"/><path id="rect1069" class="cls-4" d="M347.99999,237h3c2.216,0,4,1.784,4,4v14c0,2.216-1.784,4-4,4h-3"/><path id="path1074" class="cls-4" d="M315.99999,224c-4-5,4-10,0-15"/><path id="path1076" class="cls-4" d="M327.99999,224c-4-5,4-10,0-15"/><path id="path1078" class="cls-4" d="M339.99999,224c-4-5,4-10,0-15"/><path id="rect1085" class="cls-4" d="M347.99999,233h3c4.43209,0,8,3.568,8,8v14c0,4.432-3.56791,8-8,8h-3"/><rect id="rect1088" class="cls-4" x="328.99999" y="241" width="14" height="15"/><path id="path1090" class="cls-4" d="M335.99999,241v-15"/><path id="path1093" class="cls-4" d="M314.99999,234v28"/></g><g id="g1190"><g id="g1175"><path id="path1160" class="cls-2" d="M400.55927,230.6573c-1.9785-5.0714-.419-11.666,4.3674-16.4523,6.116-6.1159,15.1845-6.9633,20.2551-1.8928s4.2231,14.1388-1.89279,20.2546c-3.60441,3.6043-8.23421,5.3788-12.46691,5.1905"/><path id="path1166" class="cls-2" d="M412.32798,236.1828l-4.89661,4.8965c-2.3736,2.3736-6.19539,2.3736-8.569,0-2.3736-2.3736-2.3736-6.1953,0-8.5689l3.6724-3.6724"/><path id="path1169" class="cls-2" d="M397.02617,239.2431l-5.5087,5.5086-.6121-.6121c-1.3521-1.3521-3.54439-1.3521-4.8966,0-1.3521,1.3521-1.3521,3.5444,0,4.8965,1.35221,1.3522,3.5445,1.3522,4.8966,0"/><path id="path1171" class="cls-2" d="M400.69857,242.9155l-5.5087,5.5086.61211.612c1.35219,1.3522,1.35219,3.5444,0,4.8965-1.35211,1.3522-3.54441,1.3522-4.89661,0-1.3521-1.3521-1.3521-3.5443,0-4.8965"/><path id="path1173" class="cls-2" d="M422.73327,214.7606c3.7184,3.7183,2.9346,10.5308-1.7506,15.2159"/></g><g id="g1188"><path id="path1177" class="cls-2" d="M422.71637,242.7762c-5.0715-1.9785-11.6663-.419-16.4527,4.3673-6.1159,6.1159-6.9634,15.1842-1.8928,20.2547s14.13911,4.223,20.25511-1.8928c3.60429-3.6043,5.37889-8.234,5.19059-12.4666"/><path id="path1179" class="cls-2" d="M428.24199,254.5447l4.89659-4.8965c2.3736-2.3736,2.3736-6.1953,0-8.5689-2.37359-2.3736-6.1954-2.3736-8.569,0l-3.6725,3.6724"/><path id="path1181" class="cls-2" d="M431.30237,239.2431l5.5087-5.5086-.61209-.612c-1.35221-1.3521-1.35221-3.5444,0-4.8965,1.35209-1.3522,3.54439-1.3522,4.89659,0,1.3521,1.3521,1.3521,3.5444,0,4.8965"/><path id="path1183" class="cls-2" d="M434.97477,242.9155l5.5087-5.5086.6121.6121c1.3521,1.3521,3.54441,1.3521,4.8966,0,1.3521-1.3521,1.3521-3.5444,0-4.8965-1.35219-1.3521-3.5445-1.3521-4.8966,0"/><path id="path1185" class="cls-2" d="M406.81937,264.9498c3.7184,3.7183,10.5309,2.9345,15.2162-1.7507"/></g></g><g id="g1262"><g id="g1061"><rect id="rect1055" class="cls-4" x="213.99999" y="303" width="14" height="14" rx="3" ry="3"/><rect id="rect1057" class="cls-4" x="217.99999" y="307" width="6" height="6"/></g><g id="g1067"><rect id="rect1063" class="cls-4" x="231.99999" y="303" width="14" height="14" rx="3" ry="3"/><rect id="rect1065" class="cls-4" x="235.99999" y="307" width="6" height="6"/></g><g id="g1074"><rect id="rect1070" class="cls-4" x="213.99999" y="321" width="14" height="14" rx="3" ry="3"/><rect id="rect1072" class="cls-4" x="217.99999" y="325" width="6" height="6"/></g><g id="g1080"><rect id="rect1076" class="cls-4" x="231.99999" y="321" width="14" height="14" rx="3" ry="3"/><rect id="rect1078" class="cls-4" x="235.99999" y="325" width="6" height="6"/></g><g id="g1086"><rect id="rect1082" class="cls-4" x="213.99999" y="339" width="14" height="14" rx="3" ry="3"/><rect id="rect1084" class="cls-4" x="217.99999" y="343" width="6" height="6"/></g><g id="g1093"><rect id="rect1089" class="cls-4" x="231.99999" y="339" width="14" height="14" rx="3" ry="3"/><rect id="rect1091" class="cls-4" x="235.99999" y="343" width="6" height="6"/></g><g id="g1145"><path id="path1103" class="cls-4" d="M250.99999,355l12-55"/><path id="path1105" class="cls-4" d="M267.00308,355.0139l-12-55"/><path id="path1107" class="cls-4" d="M254.56728,323.4179c-1.5672-1.2837-2.56729-3.234-2.56729-5.4179,0-2.2411,1.05319-4.2361,2.69149-5.5174M263.41768,312.5698c1.5758,1.2836,2.58231,3.2393,2.58231,5.4302,0,2.1994-1.01441,4.162-2.60081,5.4453"/></g><path id="path1134" class="cls-4" d="M208.99999,297h62"/><path id="path1136" class="cls-4" d="M208.99999,359h62"/><path id="path1138" class="cls-4" d="M208.99999,297v62"/><path id="path1140" class="cls-4" d="M270.99999,297v62"/></g><g id="g1234"><g id="g1193"><path id="path1182" class="cls-5" d="M343.91488,317.8272c-1.3281.0203-2.6225.4209-3.7297,1.1543-9.27819,5.9613-15.8558,4.986-24.4357-.1239-3.3007-2.0434-7.6361-.985-9.6229,2.3494-1.9868,3.3343-.8531,7.6492,2.5162,9.5773,10.6316,6.5603,27.0124,8.3417,39.0521-.1239,5.9735-3.721,3.2575-12.9419-3.78-12.8332Z"/><path id="path1186" class="cls-5" d="M349.58199,320.4206l2.418-9.4206c1.08619,3.7993,3.27419,6.8499,7,9l-9.418.4206Z"/><path id="path1188" class="cls-5" d="M306.05808,320.9164l-2.05809-9.9164c-.65931,4.5814-3.36931,7.2239-7,9l9.05809.9164Z"/></g><path id="path1228" class="cls-4" d="M318.82058,317.2079c2.7829-.6871,5.8198-1.065,8.99941-1.065,3.14629,0,6.15269.37,8.91159,1.0435"/><path id="path1217" class="cls-4" d="M352.09048,331.1429c0,8.2843-10.8662,15-24.27049,15s-24.27051-6.7157-24.27051-15"/><path id="path1147" class="cls-4" d="M316.31248,319.4375l-2.56249,3.75"/><path id="path1149" class="cls-4" d="M321.93748,322.125l-1.81249,4.25"/><path id="path1151" class="cls-4" d="M328.06248,323.6875l-.06249,4.375"/><path id="path1153" class="cls-4" d="M334.87499,321.8125l2.125,4.5"/><path id="path1155" class="cls-4" d="M341.68748,319.375l2.31251,3.3125"/><path id="path1159" class="cls-4" d="M357.11198,324.1528c1.22129,2.2762,1.888,4.7355,1.888,7.3012,0,11.7066-13.87921,21.1966-31,21.1966s-31-9.49-31-21.1966c0-2.6363.70389-5.1603,1.99019-7.4887M309.34099,314.5255c5.19119-2.6793,11.65369-4.2681,18.659-4.2681,7.15379,0,13.74169,1.6568,18.98749,4.44"/></g><g id="g1220"><g id="g1202"><path id="path1175" class="cls-4" d="M438.99987,316.7797c0,16.141-10.2974,29.2259-22.99989,29.2259s-22.99991-13.0849-22.99991-29.2259"/><path id="path1184" class="cls-4" d="M408.04317,309.0593c1.1092-.1462,2.2586-.2628,3.4407-.347M418.03047,308.5854c1.0509.0329,2.08151.091,3.087.1728M427.86777,309.732c6.6713,1.4401,11.1321,4.0576,11.1321,7.0477,0,4.543-10.2974,8.2259-22.99989,8.2259s-22.99991-3.6829-22.99991-8.2259c0-2.4968,3.1104-4.7338,8.02091-6.2425"/><path id="ellipse1188" class="cls-4" d="M433.55699,341.9438c.28989.6587.443,1.344.443,2.0477,0,5.1064-8.05891,9.2459-18,9.2459s-18-4.1395-18-9.2459c0-.7014.15209-1.3845.44009-2.0412"/><path id="ellipse1190" class="cls-4" d="M436.52427,338.0441c1.5834,1.9588,2.47571,4.1747,2.47571,6.5215,0,7.9719-10.29741,14.4344-23,14.4344s-23-6.4625-23-14.4344c0-2.3627.90449-4.5928,2.508-6.5613"/></g><path id="path1204" class="cls-4" d="M405.99999,297c6,8-6,10,0,19"/><path id="path1206" class="cls-4" d="M415.99999,297c6,8-6,10,0,19"/><path id="path1209" class="cls-4" d="M425.99999,297c6,8-6,10,0,19"/></g><g id="g1325"><g id="g1303"><path id="path1284" class="cls-4" d="M123.99999,353h16"/><path id="path1286" class="cls-4" d="M123.99999,359l-3-55h22l-3,55h-16Z"/><path id="path1288" class="cls-4" d="M121.99999,314c9.8161,3.7527,9.9131-5.0237,20,0"/><path id="path1290" class="cls-4" d="M129.99999,350l8-53h14"/></g><g id="g1311"><path id="path1276" class="cls-4" d="M166.98578,359.0001v-23"/><path id="path1278" class="cls-4" d="M150.98578,312.0001l16,24,16-24"/><path id="path1280" class="cls-4" d="M158.98578,359.0001h16"/><path id="path1282" class="cls-4" d="M150.98578,312.0001h32"/><path id="path1292" class="cls-4" d="M166.99999,330l9-26,7-3"/><path id="path1297" class="cls-4" d="M154.99999,318c12.7279,6.7915,12.6463-5.5252,24,0"/></g></g><g id="g1137"><path id="path1104" class="cls-4" d="M182.99999,231c0,17.1208-13.8792,31-31,31s-31-13.8792-31-31"/><path id="path1108" class="cls-4" d="M182.99999,231c0,6.0751-13.8792,11-31,11s-31-4.9249-31-11,13.8792-11,31-11,31,4.9249,31,11Z"/><path id="path1111" class="cls-4" d="M175.61168,259.0352c.8995.9283,1.3883,1.926,1.3883,2.9648,0,4.9706-11.1929,9-25,9s-25-4.0294-25-9c0-1.049.4986-2.0562,1.415-2.9923"/><path id="path1113" class="cls-4" d="M120.99999,209l42,2"/><path id="path1115" class="cls-4" d="M120.99999,216h23"/><path id="path1117" class="cls-4" d="M155.99999,214v24"/><path id="path1119" class="cls-4" d="M151.99999,214v24"/><path id="path1122" class="cls-4" d="M147.99999,214v24"/><path id="path1126" class="cls-4" d="M159.99999,216h3"/></g><g id="g1247"><path id="path1121" class="cls-4" d="M63.99999,121c-4.5302.00491-8.5941,2.78651-10.2383,7.00791-2.5287.10009-4.7227,1.77609-5.4843,4.1894-3.663.80769-6.2729,4.0518-6.2774,7.80269,0,4.41831,3.5817,8,8,8,1.0289-.00309,2.0475-.20469,3-.59369v14.59369c0,2.77011,2.23,5,5,5s5-2.22989,5-5v-18c0-.36639-.045-.72069-.1191-1.06439.3717.0405.7452.062,1.1191.06439,2.82-.00219,5.5314-1.08729,7.5742-3.03129,1.2139,3.0375,4.1547,5.0301,7.4258,5.03129,4.4183,0,8-3.58169,8-8-.004-4.34009-3.4678-7.88529-7.8066-7.99019-1.0688-1.8593-3.0488-3.00681-5.1934-3.00981-.2496.00271-.4988.021-.7461.05471-2.0235-3.1499-5.5101-5.0544-9.2539-5.05471h0Z"/><path id="path1237" class="cls-4" d="M79.99999,145l-.0001,32.98581c0,2.77-2.23,5-5,5h-22c-2.77,0-5-2.23-5-5l.0001-29.98581"/><path id="path1239" class="cls-4" d="M79.99999,150h4c2.77,0,5,2.23,5,5v15c0,2.77011-2.23,5-5,5h-4"/><path id="path1241" class="cls-4" d="M71.99989,177.98581l.0001-29.98581"/><path id="path1243" class="cls-4" d="M63.99989,177.98581l.0001-7.98581"/><path id="path1245" class="cls-4" d="M55.99999,178v-6"/><path id="path1223" class="cls-4" d="M58.78479,127.33071c1.2817-1.4306,3.1433-2.33071,5.2152-2.33071,1.2911,0,2.5006.34951,3.5389.95921"/><path id="path1225" class="cls-4" d="M78.99999,133c2.2092,0,4,1.79091,4,4"/><path id="path1227" class="cls-4" d="M49.99999,144c-2.2091,0-4-1.79089-4-4"/></g><g id="g4998"><path id="path1161" class="cls-4" d="M384.99999,64c0-17.12079,13.87919-31,31-31s31,13.87921,31,31"/><path id="path1165" class="cls-4" d="M446.99999,64c0,6.07511-13.87921,11-31,11s-31-4.92489-31-11"/><path id="ellipse1167" class="cls-4" d="M392.06068,81.98921c-4.4114-1.9003-7.06069-4.335-7.06069-6.98921,0-1.05139.41569-2.06829,1.19189-3.03119M443.07037,69.63571c2.5029,1.5869,3.92961,3.4165,3.92961,5.36429,0,2.63611-2.61321,5.05561-6.97071,6.95021"/><path id="ellipse1169" class="cls-4" d="M392.07968,86.99741c-4.4228-1.9015-7.07969-4.33941-7.07969-6.99741,0-.80259.24229-1.58519.70229-2.339M446.28417,77.63881c.46881.7607.71581,1.5507.71581,2.36119,0,2.64961-2.64011,5.08041-7.03781,6.97931"/><path id="path1172" class="cls-4" d="M395.99999,79v9c20,7,18-5,40,0v-8"/><path id="path1178" class="cls-4" d="M446.61167,82.25411c.2556.5686.38831,1.1518.38831,1.74589,0,6.07511-13.87921,11-31,11s-31-4.92489-31-11c0-.59269.13209-1.17449.38649-1.74189"/><path id="path1212" class="cls-4" d="M441.99999,62.36331c0-14.0078-11.64061-25.3635-26-25.3635"/><path id="path4965" class="cls-4" d="M384.99999,71l22.46969,14.591,8.1241-5.49729"/><path id="path4984" class="cls-4" d="M387.99999,69l-3,2"/><path id="path5000" class="cls-4" d="M441.34887,70.47081c.7385.9203,1.1448,1.9251,1.1448,2.9774,0,4.4183-7.1634,8-16,8-7.7473,0-14.2085-2.7531-15.68369-6.4094"/></g></g></svg>