<?xml version="1.0" encoding="UTF-8"?><svg id="_レイヤー_2" xmlns="http://www.w3.org/2000/svg" xmlns:xlink="http://www.w3.org/1999/xlink" viewBox="0 0 750.00002 500"><defs><style>.cls-1,.cls-2,.cls-3,.cls-4,.cls-5,.cls-6,.cls-7,.cls-8,.cls-9,.cls-10,.cls-11,.cls-12,.cls-13{stroke-miterlimit:10;}.cls-1,.cls-2,.cls-3,.cls-4,.cls-5,.cls-6,.cls-8,.cls-9,.cls-10,.cls-11,.cls-12,.cls-13{stroke-width:2px;}.cls-1,.cls-2,.cls-3,.cls-14,.cls-7,.cls-13{fill:none;}.cls-1,.cls-4,.cls-5,.cls-6,.cls-8,.cls-9,.cls-10,.cls-11,.cls-12{stroke:#80412e;}.cls-15,.cls-16,.cls-14,.cls-17,.cls-18,.cls-19,.cls-20,.cls-21{stroke-width:0px;}.cls-15,.cls-5{fill:#ff6855;}.cls-16,.cls-11{fill:#ffd119;}.cls-2{stroke:#ffd119;}.cls-3{stroke:#ff6855;}.cls-22{clip-path:url(#clippath-2);}.cls-4,.cls-18{fill:#8bbb42;}.cls-23{clip-path:url(#clippath-6);}.cls-24{letter-spacing:-.03099em;}.cls-25{clip-path:url(#clippath-7);}.cls-26{clip-path:url(#clippath-1);}.cls-27{clip-path:url(#clippath-4);}.cls-6,.cls-17{fill:#fff;}.cls-28{letter-spacing:-.00599em;}.cls-29{fill:#7b7b7b;font-family:GrandHotel-Regular, 'GrandHotel Regular';font-size:42px;}.cls-7{stroke-width:3px;}.cls-7,.cls-13{stroke:#fadd23;}.cls-30{letter-spacing:.00001em;}.cls-31{clip-path:url(#clippath);}.cls-8,.cls-20{fill:#55c6ff;}.cls-32{clip-path:url(#clippath-3);}.cls-9{fill:#ffedaa;}.cls-10{fill:#deac6f;}.cls-33{letter-spacing:-.01em;}.cls-34{clip-path:url(#clippath-5);}.cls-12{fill:#fbe0b5;}.cls-19{fill:#a5b7c6;}.cls-21{fill:#80412e;}</style><clipPath id="clippath"><path class="cls-14" d="M163.39092,17.9417l3.38028,56.2522-55.8268-20.4234c9.4156-23.7883,29.04852-36.8036,52.44652-35.8288Z"/></clipPath><clipPath id="clippath-1"><path class="cls-14" d="M163.39092,17.9417l3.38028,56.2522-55.8268-20.4234c9.4156-23.7883,29.04852-36.8036,52.44652-35.8288Z"/></clipPath><clipPath id="clippath-2"><path class="cls-14" d="M163.39092,17.9417l3.38028,56.2522-55.8268-20.4234c9.4156-23.7883,29.04852-36.8036,52.44652-35.8288Z"/></clipPath><clipPath id="clippath-3"><path class="cls-14" d="M441.60592,132.0897c2.5679,6.7835-.8494,14.3642-7.6328,16.9321-6.7835,2.568-14.3642-.8494-16.9322-7.6328-2.5679-6.7834.8494-14.3642,7.6328-16.9322,6.7835-2.5679,14.3643.8495,16.9322,7.6329Z"/></clipPath><clipPath id="clippath-4"><path class="cls-14" d="M435.62322,122.4336c2.1424,5.6592-.7087,11.9836-6.3678,14.126-5.6592,2.1423-11.9836-.7087-14.126-6.3679-2.1424-5.6592.7086-11.9836,6.3678-14.126s11.9836.7087,14.126,6.3679Z"/></clipPath><clipPath id="clippath-5"><circle class="cls-14" cx="53.00787" cy="432.70925" r="14.18447" transform="translate(-156.7707 50.55734) rotate(-21.78009)"/></clipPath><clipPath id="clippath-6"><path class="cls-14" d="M66.145,422.1053c-.7499,6.4924-6.6209,11.1475-13.1133,10.3977-6.4924-.7498-11.1475-6.6209-10.3977-13.1133.7498-6.4923,6.62092-11.1475,13.1133-10.3977,6.4923.7499,11.1475,6.6209,10.3977,13.1133Z"/></clipPath><clipPath id="clippath-7"><path class="cls-14" d="M318.67539,75.3821c3.5962-1.2757,7.2906-2.4314,11.1024-2.6075,3.8117-.1761,7.7972.7197,10.731,3.1596,6.6399,5.522,6.1513,17.0143,13.3942,21.7176,5.3978,3.505,12.6386,1.5309,18.32282-1.4876l6.5229,14.2922c-6.5254,2.7622-13.35613,4.6635-20.35162,3.5359-6.9956-1.1277-13.729-5.4465-16.4345-11.9955-1.4639-3.5439-1.78568-7.6733-4.2599-10.6025-2.1781-2.5785-5.6916-3.7188-9.0666-3.7675-3.3749-.0487-6.6818.8607-9.9343,1.7628.2889-4.5573-.3706-9.4982-1.1137-14.0039-.03018-.183-.1074-.4102-.2925-.4213-.1852-.011-.1114.3863.0149.2504"/></clipPath></defs><g id="BACKGROUND_2"><rect class="cls-17" width="750.00002" height="500"/><path class="cls-13" d="M638.59062,431.978c0,2.8993-2.3504,5.2496-5.2497,5.2496s-5.2497-2.3503-5.2497-5.2496,2.3504-5.2497,5.2497-5.2497,5.2497,2.3503,5.2497,5.2497Z"/><text class="cls-29" transform="translate(218.55121 243.54639)"><tspan class="cls-24" x="0" y="0">F</tspan><tspan class="cls-30" x="19.15234" y="0">ood Back</tspan><tspan class="cls-28" x="179.38037" y="0">g</tspan><tspan class="cls-33" x="202.60645" y="0">r</tspan><tspan x="215.92041" y="0">ound</tspan></text><line class="cls-13" x1="667.81032" y1="271.2189" x2="645.05582" y2="293.9735"/><line class="cls-13" x1="671.04532" y1="260.4358" x2="648.29082" y2="283.1904"/><path class="cls-1" d="M533.87102,152.3058l10.5883-10.8754c1.8069-1.6346,4.359-1.7579,5.7002-.2753l2.0232,2.2364c1.3412,1.4826.9637,4.0095-.8432,5.6441l-11.8784,9.4495"/><line class="cls-1" x1="536.66612" y1="155.3955" x2="550.92582" y2="142.4951"/><path class="cls-21" d="M551.95842,143.3978l-1.8275-2.0202,24.0554-22.9738c.9205-.8791,2.3851-.8256,3.239.1183h0c.854.944.761,2.4066-.2057,3.2347l-25.2612,21.641Z"/><path class="cls-21" d="M160.6977,488.0586l-14.0332-5.7832c-2.7392-1.3359-4.0107-4.2637-2.8935-6.5527l1.3232-2.71c1.1201-2.29,4.21-3.0869,6.88972-1.7764l13.24608,7.541-.9903,1.7383-13.1894-7.5117c-1.6348-.7969-3.52438-.4121-4.1592.8867l-1.32318,2.709c-.63382,1.2988.22548,3.0264,1.916,3.8525l13.97558,5.7569-.7618,1.8496Z"/><rect class="cls-21" x="153.26784" y="469.55625" width="1.99947" height="19.2293" transform="translate(-343.99379 407.48519) rotate(-63.96714)"/><path class="cls-21" d="M146.0822,472.6573l-1.1956,2.4478-30.2725-13.7852c-1.1584-.5275-1.6535-1.9069-1.0949-3.0506h0c.5586-1.1439,1.951-1.6015,3.0792-1.0121l29.4838,15.4001Z"/><path class="cls-1" d="M259.04639,62.397l-10.6271-10.8374c-1.59238-1.8443-1.6565-4.3985-.1432-5.705l2.2825-1.9708c1.51332-1.3065,4.0309-.8707,5.6232.9737l9.1718,12.094"/><line class="cls-1" x1="262.19999" y1="59.6743" x2="249.63339" y2="45.1195"/><path class="cls-21" d="M250.55969,44.108l-2.0619,1.7803-22.4104-24.581c-.8576-.9407-.7703-2.4036.1933-3.2355h0c.9635-.8319,2.4235-.705,3.229.2806l21.05,25.7556Z"/><path class="cls-1" d="M431.60052,419.0781l9.4133,11.907c1.387,2.0033,1.1789,4.5499-.4649,5.6879l-2.4793,1.7166c-1.6438,1.138-4.1006.4367-5.4877-1.5666l-7.8323-13.0016"/><line class="cls-1" x1="428.17502" y1="421.4497" x2="439.12102" y2="437.2594"/><path class="cls-21" d="M438.09232,438.1665l2.2398-1.5506,19.6667,26.8266c.7527,1.0266.5101,2.4719-.5365,3.1965h0c-1.0466.7247-2.4849.4431-3.1809-.6227l-18.1891-27.8498Z"/><circle class="cls-13" cx="545.57012" cy="23.7171" r="8.0122"/><path class="cls-13" d="M509.98592,452.7299c6.013,0,10.8875,4.8745,10.8875,10.8876s-4.8745,10.8877-10.8875,10.8877"/><path class="cls-13" d="M127.26092,308.1214c0-3.085,2.50088-5.5859,5.58588-5.5859s5.586,2.5009,5.586,5.5859-2.50088,5.586-5.586,5.586-5.58588-2.5009-5.58588-5.586Z"/><path class="cls-13" d="M731.11462,152.8447c0-3.085,2.501-5.5859,5.586-5.5859s5.586,2.5009,5.586,5.5859-2.501,5.586-5.586,5.586-5.586-2.5009-5.586-5.586Z"/><circle class="cls-13" cx="15.311" cy="388.9947" r="5.586"/><circle class="cls-13" cx="588.80184" cy="362.64218" r="8.05991" transform="translate(-83.97067 522.56121) rotate(-45)"/><path class="cls-13" d="M404.74542,395.3467c0,4.3173-3.5,7.8173-7.8175,7.8173s-7.8174-3.5-7.8174-7.8173,3.5-7.8175,7.8174-7.8175,7.8175,3.5,7.8175,7.8175Z"/><path class="cls-13" d="M350.82979,149.9015c0,3.1263-2.5344,5.6607-5.6608,5.6607s-5.6608-2.5344-5.6608-5.6607c0-3.1265,2.5345-5.6608,5.6608-5.6608s5.6608,2.5343,5.6608,5.6608Z"/><line class="cls-13" x1="113.09292" y1="376.9767" x2="87.4541" y2="402.6156"/><path class="cls-13" d="M149.6088,319.6492v-21.152,21.152Z"/><line class="cls-13" x1="274.69279" y1="414.78" x2="305.96379" y2="414.78"/><line class="cls-13" x1="178.7232" y1="357.6295" x2="209.99419" y2="357.6295"/><line class="cls-13" x1="270.37959" y1="420.1715" x2="301.65049" y2="420.1715"/><line class="cls-13" x1="44.2125" y1="19.3205" x2="62.4124" y2="44.7495"/><line class="cls-13" x1="64.2756" y1="28.6557" x2="82.4755" y2="54.0848"/><line class="cls-13" x1="281.16269" y1="425.5631" x2="307.04209" y2="425.5631"/><line class="cls-13" x1="437.29832" y1="75.903" x2="461.02292" y2="99.6276"/><line class="cls-13" x1="447.55382" y1="72.0572" x2="456.35402" y2="80.8574"/><line class="cls-13" x1="210.01709" y1="128.0412" x2="224.47099" y2="113.5873"/><line class="cls-13" x1="480.67302" y1="158.5652" x2="495.12682" y2="144.1113"/><line class="cls-13" x1="490.37782" y1="157.4869" x2="504.83162" y2="143.033"/><line class="cls-13" x1="488.22112" y1="171.5049" x2="502.67502" y2="157.051"/><line class="cls-13" x1="203.54719" y1="128.0412" x2="218.00109" y2="113.5873"/><path class="cls-13" d="M528.53422,308.2005l-1.4015,1.315c-7.8217,7.3395-20.167,6.7437-27.2455-1.315h0"/><path class="cls-13" d="M528.53422,294.7281l-1.4015,1.3149c-7.8217,7.3395-20.167,6.7438-27.2455-1.3149h0"/><path class="cls-13" d="M126.011,140.6977l-1.3149-1.4015c-7.3395-7.8217-6.7437-20.1669,1.3149-27.2455h0"/><path class="cls-13" d="M638.52182,106.4334l-1.4014,1.3149c-7.8218,7.3395-20.167,6.7437-27.2456-1.3149h0"/><path class="cls-6" d="M179.58592,239.8311c1.35078-1.6727,3.41828-2.7425,5.73568-2.7425h0c4.0695,0,7.3684,3.299,7.3684,7.3685h0c0,4.0695-3.2989,7.3684-7.3684,7.3684h0c-4.0695,0-7.3685-3.2989-7.3685-7.3684h0c0-1.7521.6115-3.3614,1.63282-4.626"/><path class="cls-6" d="M153.2417,229.3608h28.2159c1.23993,0,2.2466,1.00667,2.2466,2.2466v12.4004c0,7.98478-6.48262,14.4674-14.4674,14.4674h-3.7741c-7.98478,0-14.4674-6.48262-14.4674-14.4674v-12.4006c0-1.23982,1.00658-2.2464,2.2464-2.2464Z"/><rect class="cls-6" x="150.2765" y="229.0013" width="34.1465" height="6.1104" rx="1.6174" ry="1.6174"/><line class="cls-13" x1="161.0596" y1="222.5314" x2="176.96492" y2="206.6261"/><line class="cls-13" x1="176.5154" y1="200.9652" x2="164.1096" y2="213.3711"/><line class="cls-13" x1="172.2021" y1="198.6289" x2="166.2714" y2="204.5596"/><path class="cls-6" d="M665.94812,392.1382c1.2534-1.5521,3.1719-2.5448,5.3223-2.5448h0c3.7762,0,6.8374,3.0612,6.8374,6.8375h0c0,3.7761-3.0612,6.8373-6.8374,6.8373h0c-3.7762,0-6.8374-3.0612-6.8374-6.8373h0c0-1.6259.5674-3.1192,1.5151-4.2927"/><path class="cls-6" d="M641.66452,382.4226h25.8585c1.23988,0,2.2465,1.00662,2.2465,2.2465v10.3022c0,7.98472-6.48258,14.4673-14.4673,14.4673h-1.4167c-7.98478,0-14.4674-6.48262-14.4674-14.4674v-10.3022c0-1.23982,1.00658-2.2464,2.2464-2.2464Z"/><path class="cls-6" d="M640.36852,382.089h28.4506c.89267,0,1.6174.72473,1.6174,1.6174v2.4351c0,.89272-.72478,1.6175-1.6175,1.6175h-28.4505c-.89267,0-1.6174-.72473-1.6174-1.6174v-2.4352c0-.89267.72473-1.6174,1.6174-1.6174Z"/><line class="cls-13" x1="648.75702" y1="376.0854" x2="663.51602" y2="361.3264"/><line class="cls-13" x1="663.09892" y1="356.0735" x2="651.58722" y2="367.5852"/><line class="cls-13" x1="659.09652" y1="353.9056" x2="653.59322" y2="359.4089"/><path class="cls-10" d="M387.60782,474.4644l-67.04022,3.0289c-2.05068.0927-3.7488-1.575-3.6934-3.627l.0853-3.1542c.01942-.7195.59-1.3025,1.309-1.3373l71.04502-3.4413c.7584-.0368,1.4034.5478,1.441,1.3063l.204,4.111c-.2045,1.718-1.6224,3.0356-3.3507,3.1136Z"/><path class="cls-11" d="M392.05362,463.4147l.0342.1331c.3371,1.3132-.6246,2.602-1.9794,2.6525l-74.21322,2.7671c-1.1126.0415-2.0686-.7826-2.1916-1.8892h0c-.1363-1.2261.7966-2.3103,2.02932-2.3585l74.1791-2.9002c1.0005-.0391,1.8926.6253,2.1416,1.5952Z"/><path class="cls-4" d="M319.97729,468.5958c1.8581,3.664,7.15562,3.4694,8.74-.3209l.38162-.9132c1.613-3.8588,7.04-3.9694,8.80878-.1793l.6661,1.427c1.7246,3.6955,6.9746,3.7093,8.7186.0229l.7504-1.5861c1.7806-3.7632,7.1743-3.6478,8.7922.1881l.071.1685c1.6545,3.9225,7.2111,3.9275,8.8727.0082l.0373-.0879c1.6314-3.8479,7.05353-3.9344,8.80693-.1406,1.1803,2.5539,4.9173,3.8566,7.2263,1.8825,2.3601-2.0184,4.1616-8.4546,2.2156-11.1117-1.068-1.4581-3.0331-1.867-4.8165-2.1612-13.76303-2.2705-27.74772-4.1529-41.62992-2.7885-4.9144.483-10.0179,1.4718-13.8739,4.5568-3.8559,3.085-6.0008,6.6314-3.7672,11.0354Z"/><path class="cls-12" d="M354.45992,436.8467l34.2398,14.5185c.7083.3004.515,1.3269-.2567,1.3626l-72.37402,3.3473c-.3102.0181-.4267-.3887-.1517-.5297l36.281-18.6168c.7929-.0287,1.4687-.0532,2.26162-.0819Z"/><path class="cls-10" d="M386.31472,461.1805l-67.04032,3.0289c-2.0506.0926-3.7489-1.575-3.6933-3.627l.1197-4.4298,73.69242-3.0993.2722,5.0136c-.2046,1.718-1.6224,3.0354-3.3507,3.1136Z"/><path class="cls-4" d="M163.39092,17.9417l3.38028,56.2522-55.8268-20.4234c9.4156-23.7883,29.04852-36.8036,52.44652-35.8288Z"/><path class="cls-11" d="M163.39092,17.9417l3.38028,56.2522-55.8268-20.4234c9.4156-23.7883,29.04852-36.8036,52.44652-35.8288Z"/><g class="cls-31"><path class="cls-1" d="M115.23492,55.1846c12.95948-23.5079,23.80918-29.8369,47.91968-31.9466"/></g><path class="cls-15" d="M148.9897,39.362c0,3.9115-3.171,7.0824-7.0825,7.0824s-7.0825-3.1709-7.0825-7.0824,3.171-7.0825,7.0825-7.0825,7.0825,3.1709,7.0825,7.0825Z"/><line class="cls-11" x1="149.6088" y1="45.3291" x2="149.6088" y2="52.8773"/><line class="cls-11" x1="124.8077" y1="45.3291" x2="133.4341" y2="45.3291"/><line class="cls-11" x1="152.8437" y1="30.2328" x2="152.8437" y2="35.6243"/><line class="cls-11" x1="140.9823" y1="52.8773" x2="140.9823" y2="58.2688"/><line class="cls-11" x1="161.4702" y1="58.2688" x2="161.4702" y2="65.817"/><g class="cls-26"><path class="cls-1" d="M115.23492,55.1846c12.95948-23.5079,23.80918-29.8369,47.91968-31.9466"/></g><g class="cls-22"><path class="cls-15" d="M134.8247,57.4449c0,3.4122-2.7661,6.1783-6.1783,6.1783s-6.1783-2.7661-6.1783-6.1783,2.7661-6.1784,6.1783-6.1784,6.1783,2.7662,6.1783,6.1784Z"/><path class="cls-15" d="M158.63392,65.1301c0,3.9947-3.23842,7.2331-7.23322,7.2331s-7.2331-3.2384-7.2331-7.2331,3.2384-7.2332,7.2331-7.2332,7.23322,3.2384,7.23322,7.2332Z"/><path class="cls-15" d="M170.6892,45.8416c0,3.9949-3.2384,7.2332-7.2332,7.2332s-7.23308-3.2383-7.23308-7.2332c0-3.9947,3.23838-7.2332,7.23308-7.2332s7.2332,3.2385,7.2332,7.2332Z"/></g><path class="cls-1" d="M163.39092,17.9417l3.38028,56.2522-55.8268-20.4234c9.4156-23.7883,29.04852-36.8036,52.44652-35.8288Z"/><path class="cls-11" d="M235.61069,159.7998h57.9534v2.9585c0,4.04195-3.28155,7.3235-7.3235,7.3235h-43.3064c-4.04195,0-7.3235-3.28155-7.3235-7.3235v-2.9585h0Z"/><path class="cls-5" d="M289.98092,159.7375h-51.09862c-2.2198,0-4.01938-1.7996-4.01938-4.0194h0c0-2.2198,1.79958-4.0193,4.01938-4.0193h51.09862c2.21988,0,4.01938,1.7995,4.01938,4.0193h0c0,2.2198-1.7995,4.0194-4.01938,4.0194Z"/><path class="cls-21" d="M292.75399,151.8857h-55.897c-1.5143,0-2.7418-1.2276-2.7418-2.7418h0c0-1.5143,1.2275-2.742,2.7418-2.742h55.897c1.5143,0,2.7418,1.2277,2.7418,2.742h0c0,1.5142-1.2275,2.7418-2.7418,2.7418Z"/><path class="cls-4" d="M239.63099,143.9407l3.8224,7.5372c1.2411,2.4469,4.7789,2.3169,5.837-.2144l.2549-.6099c1.0774-2.5773,4.7018-2.651,5.8831-.1198l.4448.953c1.1518,2.468,4.658,2.4773,5.8229.0153l.5011-1.0592c1.1891-2.5133,4.7913-2.4362,5.8718.1255l.0474.1126c1.105,2.6196,4.816,2.6231,5.9258.0055l.0248-.0587c1.0895-2.5699,4.71092-2.6277,5.8818-.0938h0c1.20912,2.6164,4.98412,2.4449,5.9508-.2705l2.617-7.3512"/><path class="cls-11" d="M290.74079,145.9658h-52.5561c-1.4904,0-2.6987-1.2083-2.6987-2.6987h0c0-14.8227,13.72392-26.9213,28.5466-26.9213h.4945c14.8226,0,28.9124,12.0986,28.9124,26.9213h0c0,1.4904-1.2083,2.6987-2.6987,2.6987Z"/><path class="cls-21" d="M246.74779,136.9128c0-1.0549-.7373-1.9101-1.6467-1.9101-.9095,0-1.6467.8552-1.6467,1.9101s1.6467,2.9639,1.6467,2.9639c0,0,1.6467-1.909,1.6467-2.9639Z"/><path class="cls-21" d="M256.23249,136.9128c0-1.0549-.7373-1.9101-1.6467-1.9101-.9093,0-1.6466.8552-1.6466,1.9101s1.6466,2.9639,1.6466,2.9639c0,0,1.6467-1.909,1.6467-2.9639Z"/><path class="cls-21" d="M265.71719,136.9128c0-1.0549-.7372-1.9101-1.6466-1.9101s-1.64668.8552-1.64668,1.9101,1.64668,2.9639,1.64668,2.9639c0,0,1.6466-1.909,1.6466-2.9639Z"/><path class="cls-21" d="M275.20199,136.9128c0-1.0549-.7372-1.9101-1.6467-1.9101-.90938,0-1.6467.8552-1.6467,1.9101s1.6467,2.9639,1.6467,2.9639c0,0,1.6467-1.909,1.6467-2.9639Z"/><path class="cls-21" d="M284.68669,136.9128c0-1.0549-.7372-1.9101-1.6467-1.9101-.9094,0-1.6465.8552-1.6465,1.9101s1.6465,2.9639,1.6465,2.9639c0,0,1.6467-1.909,1.6467-2.9639Z"/><path class="cls-21" d="M250.96319,129.5358c0-1.055-.7372-1.9102-1.6467-1.9102-.9094,0-1.6467.8552-1.6467,1.9102,0,1.0549,1.6467,2.9639,1.6467,2.9639,0,0,1.6467-1.909,1.6467-2.9639Z"/><path class="cls-21" d="M260.44792,129.5358c0-1.055-.73722-1.9102-1.64672-1.9102-.90928,0-1.6465.8552-1.6465,1.9102,0,1.0549,1.6465,2.9639,1.6465,2.9639,0,0,1.64672-1.909,1.64672-2.9639Z"/><path class="cls-21" d="M269.93259,129.5358c0-1.055-.7372-1.9102-1.6465-1.9102-.9095,0-1.6467.8552-1.6467,1.9102,0,1.0549,1.6467,2.9639,1.6467,2.9639,0,0,1.6465-1.909,1.6465-2.9639Z"/><path class="cls-21" d="M279.41749,129.5358c0-1.055-.7373-1.9102-1.6467-1.9102-.9095,0-1.6467.8552-1.6467,1.9102,0,1.0549,1.6467,2.9639,1.6467,2.9639,0,0,1.6467-1.909,1.6467-2.9639Z"/><path class="cls-10" d="M183.0911,417.7464l-39.326-23.8934c-4.317-2.6228-5.69018-8.2486-3.0674-12.5654h0c2.6228-4.3169,8.2485-5.6901,12.5653-3.0673l39.3262,23.8934c4.3168,2.6228,5.6902,8.2485,3.0674,12.5653h0c-2.6229,4.3169-8.2486,5.6903-12.5655,3.0674Z"/><path class="cls-5" d="M191.0843,421.0741l-52.2952-31.7731c-2.5695-1.5613-3.387-4.9099-1.8258-7.4794v-.0001c1.5612-2.5695,4.9099-3.387,7.4794-1.8258l52.29522,31.7732c2.56958,1.5612,3.387,4.9098,1.82578,7.4794h0c-1.5612,2.5695-4.90978,3.3869-7.4794,1.8258Z"/><path class="cls-10" d="M177.1815,427.6604l-39.3262-23.8934c-4.3168-2.6228-5.6902-8.2486-3.06738-12.5654v-.0001c2.62278-4.3168,8.24848-5.6901,12.56528-3.0673l39.3262,23.8935c4.3168,2.6228,5.6902,8.2484,3.0674,12.5653h0c-2.6228,4.3169-8.2485,5.6902-12.5653,3.0674Z"/><path class="cls-2" d="M147.99,385.9897c-.2186,2.846,2.9973,4.6417,5.3055,2.9626l.5561-.4045c2.35-1.7096,5.6125.1828,5.2954,3.0715l-.1193,1.0875c-.3092,2.8167,2.8033,4.7189,5.1689,3.1593l1.0178-.6712c2.4148-1.5922,5.576.4222,5.1529,3.2837l-.0187.1256c-.43268,2.9261,2.865,4.9338,5.2657,3.206l.0539-.0388c2.3569-1.6964,5.6079.2086,5.2802,3.094h0c-.33848,2.9795,3.1107,4.8662,5.437,2.9741"/><path class="cls-11" d="M582.09322,476.0016c-4.0982-1.5834-7.6299-4.2106-10.177-7.9214-2.38-3.4674-3.799-7.4852-4.6096-11.5704-2.7695-13.9562,1.5181-30.402,12.8457-39.9636,1.39-1.1734,2.9024-2.2333,4.588-2.9613,3.6343-1.57,8.0054-1.4527,11.5439.3097s6.1709,5.1332,6.9521,8.9024c.5115,2.4683.433,4.8928,1.3563,7.2726,2.4303,6.2646,7.1796,11.5048,10.2781,17.4544,3.3667,6.4646,3.368,13.2587-.3207,19.8586-5.2888,9.4631-16.9853,11.621-26.9242,10.0804-1.9259-.2985-3.781-.7846-5.5326-1.4614Z"/><path class="cls-15" d="M583.17072,470.7045c-3.2853-1.3148-6.1164-3.4963-8.1582-6.5776-1.908-2.8792-3.0455-6.2155-3.6954-9.6076-2.22-11.5888,1.2171-25.2447,10.2977-33.1843,1.1143-.9744,2.3266-1.8545,3.6778-2.4591,2.9134-1.3035,6.4174-1.2062,9.254.2572,2.8366,1.4635,4.9468,4.2625,5.5731,7.3922.41,2.0497.3471,4.0629,1.0872,6.039,1.9483,5.2019,5.7555,9.5531,8.2393,14.4935,2.6989,5.3679,3.6796,11.576.7227,17.0564-4.2397,7.8576-14.5958,9.0831-22.5631,7.8038-1.5439-.2479-3.031-.6515-4.4351-1.2135Z"/><line class="cls-11" x1="592.87392" y1="421.7611" x2="573.82722" y2="440.8078"/><line class="cls-11" x1="596.86482" y1="427.8648" x2="575.03222" y2="449.9322"/><line class="cls-11" x1="594.75192" y1="437.7247" x2="578.66022" y2="453.8164"/><line class="cls-11" x1="606.49002" y1="454.8622" x2="592.86592" y2="468.4863"/><line class="cls-11" x1="603.67282" y1="445.0023" x2="585.70422" y2="462.9709"/><circle class="cls-17" cx="591.38712" cy="455.3317" r="5.1647"/><path class="cls-11" d="M21.5682,72.8044c3.516-2.6345,7.6164-4.2351,12.1131-4.4262,4.2019-.1787,8.36062.7494,12.2538,2.2288,13.3004,5.0544,24.9683,17.4118,27.0663,32.0861.25752,1.8008.3539,3.6451.0771,5.4601-.59658,3.9138-3.0144,7.5572-6.3852,9.6223-3.3709,2.065-7.6247,2.5088-11.23438,1.172-2.36392-.8756-4.37762-2.228-6.88482-2.7075-6.5998-1.2623-13.56118-.0154-20.2485-.5442-7.266-.5746-13.0265-4.1769-16.6652-10.8045-5.2172-9.5027-.843-20.563,5.73452-28.1717,1.27448-1.4744,2.67048-2.7892,4.17328-3.9152Z"/><path class="cls-15" d="M25.4874,76.5273c2.8571-2.0878,6.2081-3.3308,9.9032-3.4275,3.4528-.0904,6.8845.7148,10.1049,1.963,11.0019,4.2644,20.7558,14.4211,22.6705,26.3302.235,1.4615.3381,2.9561.1341,4.4222-.44018,3.1613-2.38118,6.0802-5.1263,7.7088-2.7451,1.6285-6.2372,1.9329-9.2227.8038-1.9551-.7394-3.6284-1.8606-5.69618-2.2812-5.44332-1.1073-11.15132-.1875-16.65692-.7022-5.9822-.559-11.7653-3.0203-14.843-8.4338-4.4127-7.7618.0411-17.1912,5.3513-23.267,1.029-1.1773,2.1599-2.224,3.3811-3.1163Z"/><line class="cls-11" x1="61.8331" y1="110.7121" x2="55.7882" y2="84.463"/><line class="cls-11" x1="54.54192" y1="110.858" x2="47.4137" y2="80.6451"/><line class="cls-11" x1="47.3038" y1="103.8374" x2="42.1967" y2="81.6607"/><line class="cls-11" x1="26.5497" y1="104.699" x2="22.2257" y2="85.923"/><line class="cls-11" x1="36.4026" y1="107.5402" x2="30.69992" y2="82.7768"/><path class="cls-17" d="M31.4227,96.0248c-2.4182-1.5129-3.1521-4.6996-1.6392-7.1178,1.5129-2.4181,4.6996-3.152,7.1178-1.6391,2.4181,1.5129,3.1519,4.6996,1.6391,7.1177-1.5129,2.4182-4.6996,3.152-7.1177,1.6392Z"/><path class="cls-11" d="M497.54734,33.40151h.37466c1.41331,0,2.56074,1.14743,2.56074,2.56074v18.10672c0,1.41311-1.14727,2.56038-2.56038,2.56038h-.37468c-1.41378,0-2.56159-1.14781-2.56159-2.56159v-18.10502c0-1.41359,1.14765-2.56124,2.56124-2.56124Z" transform="translate(22.25229 198.90722) rotate(-23.1022)"/><rect class="cls-11" x="501.99512" y="34.21027" width="5.49665" height="23.22782" rx="2.56108" ry="2.56108" transform="translate(22.45877 201.60381) rotate(-23.08813)"/><rect class="cls-11" x="501.99513" y="44.72378" width="5.49663" height="23.22787" rx="2.56124" ry="2.56124" transform="translate(18.37181 202.56534) rotate(-23.1022)"/><path class="cls-11" d="M517.2789,46.57639h.3747c1.41372,0,2.56148,1.14776,2.56148,2.56148v18.10536c0,1.41343-1.14753,2.56096-2.56096,2.56096h-.37473c-1.41344,0-2.56097-1.14753-2.56097-2.56097v-18.10634c0-1.41317,1.14732-2.56049,2.56049-2.56049Z" transform="translate(2.96582 138.48187) rotate(-15.28596)"/><rect class="cls-11" x="510.23937" y="40.69273" width="5.4966" height="23.2278" rx="2.56112" ry="2.56112" transform="translate(4.38034 137.22378) rotate(-15.30071)"/><rect class="cls-11" x="489.31804" y="43.08339" width="5.4967" height="23.22778" rx="2.56087" ry="2.56087" transform="translate(942.38709 -151.05107) rotate(149.10181)"/><path class="cls-11" d="M491.72297,50.88364h.37476c1.41328,0,2.56068,1.1474,2.56068,2.56068v18.10681c0,1.41306-1.14722,2.56028-2.56028,2.56028h-.37472c-1.41379,0-2.56161-1.14782-2.56161-2.56161v-18.10497c0-1.41356,1.14763-2.56118,2.56118-2.56118Z" transform="translate(946.12949 -136.41511) rotate(149.10966)"/><path class="cls-11" d="M505.11322,69.3137h0c-1.1643.6885-2.6664.3027-3.3547-.8616l-10.6807-18.062c-.6884-1.1644-.3027-2.6664.8616-3.3549h0c1.1643-.6885,2.6663-.3028,3.3548.8616l10.6806,18.062c.6885,1.1644.3027,2.6663-.8616,3.3549Z"/><path class="cls-11" d="M514.89782,66.0074h0c-1.2443.5307-2.6831-.0478-3.2136-1.2921l-6.1984-14.5348c-.5306-1.2442.0479-2.683,1.2922-3.2135h0c1.2442-.5307,2.683.0478,3.2137,1.2921l6.1982,14.5348c.5306,1.2442-.0479,2.683-1.2921,3.2135Z"/><path class="cls-11" d="M500.98282,73.6592h0c-1.2442.5307-2.683-.0478-3.2136-1.2921l-6.1983-14.5348c-.5306-1.2442.0479-2.683,1.2921-3.2136h0c1.2443-.5306,2.6831.0479,3.2137,1.2922l6.1983,14.5348c.5306,1.2442-.0479,2.683-1.2922,3.2135Z"/><polygon class="cls-5" points="537.00542 93.2233 503.86612 107.3555 483.57182 74.2674 527.17612 55.6725 537.00542 93.2233"/><path class="cls-12" d="M521.79992,80.1248c2.0882,4.8966-.1886,10.559-5.0853,12.6472-4.8966,2.0881-10.559-.1886-12.6472-5.0853-2.0881-4.8967.1886-10.559,5.0853-12.6472s10.559.1886,12.6472,5.0853Z"/><path class="cls-11" d="M34.85095,266.63022h.37476c1.41341,0,2.56092,1.14751,2.56092,2.56092v18.10656c0,1.41309-1.14725,2.56034-2.56034,2.56034h-.37469c-1.4138,0-2.56162-1.14782-2.56162-2.56162v-18.10523c0-1.41344,1.14753-2.56097,2.56097-2.56097Z" transform="translate(-106.34013 36.04665) rotate(-23.0962)"/><rect class="cls-11" x="48.02647" y="290.84807" width="5.49664" height="23.22787" rx="2.56091" ry="2.56091" transform="translate(-114.57423 44.15784) rotate(-23.09517)"/><path class="cls-11" d="M50.58739,301.36161h.37478c1.41343,0,2.56095,1.14752,2.56095,2.56095v18.10649c0,1.41311-1.14727,2.56038-2.56038,2.56038h-.37467c-1.41378,0-2.56159-1.14781-2.56159-2.56159v-18.10533c0-1.4134,1.1475-2.56091,2.56091-2.56091Z" transform="translate(-118.69826 45.00045) rotate(-23.09517)"/><path class="cls-11" d="M65.19666,298.36179h.37473c1.41403,0,2.56205,1.14801,2.56205,2.56205v18.10438c0,1.41369-1.14773,2.56142-2.56142,2.56142h-.37469c-1.41317,0-2.56049-1.14732-2.56049-2.56049v-18.10753c0-1.41281,1.14702-2.55983,2.55983-2.55983Z" transform="translate(-79.33524 28.16696) rotate(-15.27121)"/><rect class="cls-11" x="75.14114" y="262.28548" width="5.49668" height="23.22785" rx="2.56106" ry="2.56106" transform="translate(86.69744 -10.72328) rotate(17.64681)"/><path class="cls-11" d="M32.24974,292.17307h.37461c1.41324,0,2.56061,1.14737,2.56061,2.56061v18.107c0,1.41301-1.14718,2.56019-2.56019,2.56019h-.37466c-1.41392,0-2.56184-1.14792-2.56184-2.56184v-18.10448c0-1.41371,1.14776-2.56147,2.56147-2.56147Z" transform="translate(213.98233 549.51) rotate(149.63679)"/><rect class="cls-11" x="10.66159" y="288.65105" width="5.49661" height="23.22775" rx="2.56118" ry="2.56118" transform="translate(191.50124 542.3854) rotate(146.22086)"/><path class="cls-11" d="M48.98792,325.4123h0c-1.16422.6885-2.66632.3028-3.35472-.8615l-10.6807-18.062c-.6884-1.1644-.30258-2.6664.8616-3.3549h0c1.1644-.6885,2.6663-.3028,3.35482.8616l10.68058,18.062c.6885,1.1644.3028,2.6663-.86158,3.3548Z"/><path class="cls-11" d="M60.9291,322.6453h0c-1.24418.5306-2.683-.0479-3.2135-1.2921l-6.1984-14.5348c-.5306-1.2443.0479-2.6831,1.2922-3.2136h0c1.2442-.5306,2.683.0479,3.2136,1.2922l6.1983,14.5347c.53062,1.2443-.0479,2.6831-1.2922,3.2136Z"/><path class="cls-11" d="M42.6575,330.2247h0c-1.05858.8421-2.5994.6665-3.4413-.3922l-9.8362-12.3664c-.842-1.0586-.6664-2.5994.3922-3.4415h0c1.05872-.8419,2.5994-.6663,3.4415.3923l9.836,12.3665c.8421,1.0586.6665,2.5994-.3922,3.4413Z"/><polygon class="cls-5" points="86.4218 347.0993 54.7138 364.2028 31.4786 333.1093 73.1997 310.6047 86.4218 347.0993"/><path class="cls-12" d="M71.0662,335.6843c2.0882,4.8966-.1886,10.5591-5.08528,12.6472-4.89662,2.0882-10.559-.1886-12.64722-5.0853-2.0881-4.8966.1886-10.5589,5.0853-12.6472,4.8967-2.0881,10.559.1886,12.6472,5.0853Z"/><path class="cls-11" d="M734.96042,47.5915c.875.9599,5.6222,10.3367-.628,16.2539-3.8218,3.618-7.9145,4.6592-10.5179,4.9222-1.2684.1281-2.2376-1.1169-1.8183-2.3208,1.2154-3.4897,3.0237-9.9674.9689-12.9742-2.8887-4.2274,11.9953-5.8811,11.9953-5.8811Z"/><path class="cls-11" d="M736.89922,39.0135l2.5556,6.5973c1.2124,3.1299-.4019,6.6427-3.5668,7.7609l-9.6245,3.4008c-2.535.8957-5.3413-.2271-6.5589-2.6242l-1.1969-2.3562c-1.4278-2.8108-.4158-6.2473,2.3074-7.8357l11.3271-6.6074c1.76-1.0266,4.0209-.2356,4.757,1.6645Z"/><path class="cls-11" d="M714.38192,25.0161c-.875-.9601-9.7735-6.5528-16.2426-.8757-3.9554,3.4713-5.3702,7.4503-5.8725,10.0183-.2446,1.2512.9055,2.3312,2.1431,2.0249,3.587-.888,10.2039-2.0903,13.0082.2333,3.9426,3.2668,6.9638-11.4008,6.9638-11.4008Z"/><path class="cls-11" d="M723.10222,23.8777l-6.3331-3.154c-3.0046-1.4962-6.6515-.2131-8.0573,2.8349l-4.2749,9.2693c-1.126,2.4415-.2672,5.3395,2.0072,6.7732l2.2356,1.4093c2.667,1.6812,6.1823.991,8.0154-1.5739l7.6252-10.6685c1.1848-1.6576.6059-3.9819-1.2181-4.8903Z"/><path class="cls-11" d="M715.13492,50.564l-5.9106-6.4842c-1.5998-1.755-1.5563-4.4523.0993-6.1549l13.6824-14.0706c1.8028-1.8541,4.7952-1.8057,6.5373.1053l7.5022,8.2304c1.7421,1.9112,1.5138,4.8951-.4987,6.519l-15.2741,12.3245c-1.8482,1.4913-4.5379,1.2856-6.1378-.4695Z"/><path class="cls-5" d="M152.6128,111.825c-9.1314,0-16.5341,7.4024-16.5341,16.534s7.4027,16.5341,16.5341,16.5341,16.5342-7.4025,16.5342-16.5341-7.4026-16.534-16.5342-16.534ZM152.6128,132.9441c-2.5322,0-4.5851-2.0528-4.5851-4.5851s2.0529-4.5851,4.5851-4.5851,4.58512,2.0528,4.58512,4.5851-2.05282,4.5851-4.58512,4.5851Z"/><path class="cls-21" d="M150.3835,119.4417c0,.8208-.6654,1.4862-1.4862,1.4862s-1.4862-.6654-1.4862-1.4862.6654-1.4861,1.4862-1.4861,1.4862.6653,1.4862,1.4861Z"/><path class="cls-21" d="M144.8103,119.4417c0,.8208-.6655,1.4862-1.4863,1.4862s-1.4862-.6654-1.4862-1.4862.6654-1.4861,1.4862-1.4861,1.4863.6653,1.4863,1.4861Z"/><path class="cls-21" d="M145.92492,124.4577c0,.8208-.66542,1.4862-1.48622,1.4862s-1.4863-.6654-1.4863-1.4862.66552-1.4861,1.4863-1.4861,1.48622.6653,1.48622,1.4861Z"/><path class="cls-21" d="M141.4663,127.2444c0,.8208-.66538,1.4862-1.4862,1.4862s-1.4863-.6654-1.4863-1.4862.6655-1.4863,1.4863-1.4863,1.4862.6655,1.4862,1.4863Z"/><path class="cls-21" d="M155.3995,116.6551c0,.8208-.6654,1.4863-1.4863,1.4863-.8208,0-1.4861-.6655-1.4861-1.4863s.6653-1.4862,1.4861-1.4862c.8209,0,1.4863.6654,1.4863,1.4862Z"/><path class="cls-21" d="M158.1862,121.6711c0,.8208-.6655,1.4861-1.48628,1.4861s-1.48622-.6653-1.48622-1.4861.6654-1.4862,1.48622-1.4862,1.48628.6654,1.48628,1.4862Z"/><path class="cls-21" d="M163.2021,119.4417c0,.8208-.6654,1.4862-1.48618,1.4862s-1.48622-.6654-1.48622-1.4862.6654-1.4861,1.48622-1.4861,1.48618.6653,1.48618,1.4861Z"/><path class="cls-21" d="M164.3168,124.4577c0,.8208-.6654,1.4862-1.4863,1.4862-.8208,0-1.4862-.6654-1.4862-1.4862s.6654-1.4861,1.4862-1.4861c.8209,0,1.4863.6653,1.4863,1.4861Z"/><path class="cls-21" d="M162.0874,131.1457c0,.8208-.6653,1.4861-1.4861,1.4861-.8209,0-1.4863-.6653-1.4863-1.4861s.6654-1.4862,1.4863-1.4862c.8208,0,1.4861.6654,1.4861,1.4862Z"/><path class="cls-21" d="M165.4314,134.4896c0,.8208-.6654,1.4863-1.4862,1.4863s-1.4862-.6655-1.4862-1.4863.6654-1.4862,1.4862-1.4862,1.4862.6654,1.4862,1.4862Z"/><path class="cls-21" d="M160.9727,136.7189c0,.8208-.6653,1.4863-1.4861,1.4863s-1.4862-.6655-1.4862-1.4863.6654-1.4862,1.4862-1.4862,1.4861.6654,1.4861,1.4862Z"/><path class="cls-21" d="M157.6288,141.1775c0,.8208-.6654,1.4863-1.4863,1.4863-.8208,0-1.4861-.6655-1.4861-1.4863s.6653-1.4861,1.4861-1.4861c.8209,0,1.4863.6653,1.4863,1.4861Z"/><path class="cls-21" d="M156.5141,136.7189c0,.8208-.6654,1.4863-1.48618,1.4863s-1.48612-.6655-1.48612-1.4863.6653-1.4862,1.48612-1.4862,1.48618.6654,1.48618,1.4862Z"/><path class="cls-21" d="M148.7116,135.0469c0,.8209-.6654,1.4862-1.4862,1.4862-.8209,0-1.4863-.6653-1.4863-1.4862,0-.8208.6654-1.4861,1.4863-1.4861.8208,0,1.4862.6653,1.4862,1.4861Z"/><path class="cls-21" d="M151.4982,140.0629c0,.8208-.6654,1.4862-1.4862,1.4862s-1.4862-.6654-1.4862-1.4862.6654-1.4861,1.4862-1.4861,1.4862.6653,1.4862,1.4861Z"/><path class="cls-21" d="M145.92492,130.031c0,.8208-.66542,1.4862-1.48622,1.4862s-1.4863-.6654-1.4863-1.4862.66552-1.4862,1.4863-1.4862,1.48622.6654,1.48622,1.4862Z"/><path class="cls-21" d="M144.25292,136.1617c0,.8208-.66532,1.4861-1.48612,1.4861-.82088,0-1.4863-.6653-1.4863-1.4861s.66542-1.4863,1.4863-1.4863c.8208,0,1.48612.6655,1.48612,1.4863Z"/><path class="cls-11" d="M241.61839,438.323c-13.1266,0-23.7678,10.6412-23.7678,23.7678s10.6412,23.7678,23.7678,23.7678,23.7678-10.6412,23.7678-23.7678-10.6412-23.7678-23.7678-23.7678ZM241.61839,469.3622c-4.0159,0-7.2714-3.2555-7.2714-7.2714s3.2555-7.2713,7.2714-7.2713,7.2713,3.2555,7.2713,7.2713-3.2554,7.2714-7.2713,7.2714Z"/><path class="cls-15" d="M261.39179,465.0509c-1.31788-2.0914-4.1817-3.1329-4.6183-5.8244-.3695-2.2767,1.3627-4.2605,1.7976-6.403.73282-3.611-2.8963-7.3737-6.5315-6.7716-2.5618.4243-4.373,1.7806-6.6015-.1464-1.49518-1.2928-1.705-3.2313-3.6156-4.2887-2.43358-1.3468-4.03358-.6788-5.7924,1.2401-3.2529,3.5491-4.4725,7.8248-9.6673,8.9405-.7061.1516-1.4383.249-2.0787.5826-1.84318.9604-3.4518,4.0528-2.1781,5.9128,1.3515,1.9734,4.7631,1.7065,5.4923,4.5071,1.0709,4.1135-4.8025,9.5036-.5303,13.1529,3.385,2.8915,8.2535-2.6883,12.0408-.8595,3.1343,1.5135,3.64512,8.7754,8.5966,6.9969,1.517-.5448,2.3781-2.1377,2.8871-3.6672.8337-2.5053,1.0623-3.6412,3.2067-4.8044,1.4853-.8058,3.2604-1.0401,4.8074-1.7082,3.2874-1.4196,4.9639-3.4007,2.7852-6.8595ZM241.64769,469.9418c-4.3172,0-7.8171-3.4999-7.8171-7.8171s3.4999-7.8171,7.8171-7.8171,7.8171,3.4999,7.8171,7.8171-3.4998,7.8171-7.8171,7.8171Z"/><path class="cls-21" d="M233.82239,450.4783c0,1.1488-.9313,2.08-2.0802,2.08-1.1488,0-2.08-.9312-2.08-2.08s.9312-2.0802,2.08-2.0802c1.1489,0,2.0802.9314,2.0802,2.0802Z"/><path class="cls-21" d="M232.95409,470.4475c0,1.1488-.93118,2.0802-2.08,2.0802s-2.08018-.9314-2.08018-2.0802.93138-2.0802,2.08018-2.0802,2.08.9314,2.08,2.0802Z"/><path class="cls-21" d="M252.92339,451.3465c0,1.1489-.9313,2.0801-2.0801,2.0801s-2.0802-.9312-2.0802-2.0801c0-1.1488.9314-2.0801,2.0802-2.0801s2.0801.9313,2.0801,2.0801Z"/><path class="cls-21" d="M257.26449,466.9746c0,1.1488-.9312,2.0802-2.08,2.0802-1.1489,0-2.0802-.9314-2.0802-2.0802s.9313-2.0802,2.0802-2.0802c1.1488,0,2.08.9314,2.08,2.0802Z"/><path class="cls-21" d="M241.63649,447.0054c0,1.1488-.9314,2.08-2.0802,2.08s-2.0802-.9312-2.0802-2.08c0-1.1489.9314-2.0802,2.0802-2.0802s2.0802.9313,2.0802,2.0802Z"/><path class="cls-21" d="M227.74479,464.3699c0,1.1489-.9313,2.0801-2.0801,2.0801-1.1489,0-2.0802-.9312-2.0802-2.0801,0-1.1488.9313-2.0801,2.0802-2.0801,1.1488,0,2.0801.9313,2.0801,2.0801Z"/><path class="cls-21" d="M262.47399,458.2924c0,1.1488-.9314,2.08-2.0802,2.08s-2.0802-.9312-2.0802-2.08c0-1.1489.9314-2.0802,2.0802-2.0802s2.0802.9313,2.0802,2.0802Z"/><path class="cls-21" d="M238.16359,477.3933c0,1.1489-.9314,2.0802-2.0802,2.0802s-2.0802-.9313-2.0802-2.0802c0-1.1488.9314-2.0801,2.0802-2.0801s2.0802.9313,2.0802,2.0801Z"/><path class="cls-21" d="M248.58229,474.7887c0,1.1488-.9313,2.0802-2.0802,2.0802-1.1488,0-2.0801-.9314-2.0801-2.0802s.9313-2.0802,2.0801-2.0802c1.1489,0,2.0802.9314,2.0802,2.0802Z"/><path class="cls-11" d="M614.71372,28.9747c-13.1266,0-23.7678,10.6412-23.7678,23.7678s10.6412,23.7678,23.7678,23.7678,23.7678-10.6412,23.7678-23.7678-10.6412-23.7678-23.7678-23.7678ZM614.71372,60.0139c-4.0158,0-7.2713-3.2556-7.2713-7.2714s3.2555-7.2714,7.2713-7.2714,7.2714,3.2556,7.2714,7.2714-3.2554,7.2714-7.2714,7.2714Z"/><path class="cls-21" d="M634.48712,55.7026c-1.3179-2.0914-4.1817-3.133-4.6183-5.8244-.3694-2.2768,1.3628-4.2605,1.7977-6.403.7328-3.6111-2.8964-7.3737-6.5316-6.7716-2.5617.4243-4.3729,1.7806-6.6015-.1464-1.4952-1.2928-1.7049-3.2313-3.6155-4.2887-2.4337-1.3468-4.0337-.6788-5.7924,1.2401-3.2529,3.5491-4.4725,7.8247-9.6674,8.9405-.7061.1516-1.4382.2489-2.0786.5826-1.8432.9604-3.4518,4.0528-2.1781,5.9128,1.3514,1.9734,4.7631,1.7065,5.4922,4.5071,1.0709,4.1134-4.8024,9.5036-.5303,13.1529,3.3851,2.8915,8.2535-2.6883,12.0409-.8595,3.1343,1.5135,3.6451,8.7754,8.5966,6.9969,1.517-.5448,2.3781-2.1377,2.8871-3.6672.8337-2.5053,1.0623-3.6412,3.2066-4.8044,1.4854-.8058,3.2604-1.0402,4.8075-1.7083,3.2874-1.4196,4.9639-3.4006,2.7851-6.8594ZM614.74312,60.5935c-4.3173,0-7.8171-3.4999-7.8171-7.8171s3.4998-7.8171,7.8171-7.8171,7.8171,3.4998,7.8171,7.8171-3.4998,7.8171-7.8171,7.8171Z"/><path class="cls-15" d="M606.91782,41.13c0,1.1488-.9314,2.08-2.0802,2.08s-2.0801-.9312-2.0801-2.08c0-1.1489.9313-2.0802,2.0801-2.0802s2.0802.9313,2.0802,2.0802Z"/><circle class="cls-15" cx="603.96942" cy="61.0992" r="2.08015"/><path class="cls-15" d="M626.01872,41.9982c0,1.1488-.9312,2.0801-2.08,2.0801-1.1489,0-2.0802-.9313-2.0802-2.0801s.9313-2.0802,2.0802-2.0802c1.1488,0,2.08.9314,2.08,2.0802Z"/><path class="cls-15" d="M630.35992,57.6263c0,1.1488-.9312,2.0801-2.0801,2.0801-1.1488,0-2.0801-.9313-2.0801-2.0801,0-1.1489.9313-2.0802,2.0801-2.0802,1.1489,0,2.0801.9313,2.0801,2.0802Z"/><path class="cls-15" d="M614.73182,37.657c0,1.1489-.9313,2.0801-2.0801,2.0801-1.1489,0-2.0802-.9312-2.0802-2.0801,0-1.1488.9313-2.0801,2.0802-2.0801,1.1488,0,2.0801.9313,2.0801,2.0801Z"/><path class="cls-15" d="M600.84022,55.0216c0,1.1489-.9314,2.0801-2.0802,2.0801s-2.0802-.9312-2.0802-2.0801c0-1.1488.9314-2.0802,2.0802-2.0802s2.0802.9314,2.0802,2.0802Z"/><path class="cls-15" d="M635.56932,48.944c0,1.1489-.9313,2.0801-2.0801,2.0801-1.1489,0-2.0802-.9312-2.0802-2.0801,0-1.1488.9313-2.0801,2.0802-2.0801,1.1488,0,2.0801.9313,2.0801,2.0801Z"/><path class="cls-15" d="M611.25892,68.045c0,1.1489-.9313,2.0802-2.0801,2.0802-1.1489,0-2.0802-.9313-2.0802-2.0802,0-1.1488.9313-2.0801,2.0802-2.0801,1.1488,0,2.0801.9313,2.0801,2.0801Z"/><path class="cls-15" d="M621.67772,65.4404c0,1.1488-.9314,2.0801-2.0802,2.0801s-2.0802-.9313-2.0802-2.0801c0-1.1489.9314-2.0802,2.0802-2.0802s2.0802.9313,2.0802,2.0802Z"/><path class="cls-11" d="M316.93749,364.3416l-67.5833,12.3165c-.15828.0288-.2607-.1621-.1491-.278l42.0027-43.5817c.0689-.0715.1847-.0667.2476.01l25.58052,31.2652c.07988.0977.02568.2453-.09842.268Z"/><path class="cls-21" d="M284.04649,358.8739c0,1.5434-1.2512,2.7946-2.79458,2.7946-1.54352,0-2.79482-1.2512-2.79482-2.7946,0-1.5435,1.2513-2.7948,2.79482-2.7948,1.54338,0,2.79458,1.2513,2.79458,2.7948Z"/><path class="cls-21" d="M304.89349,359.176c0,1.8772-1.5218,3.399-3.3989,3.399-1.8773,0-3.3991-1.5218-3.3991-3.399s1.5218-3.399,3.3991-3.399c1.8771,0,3.3989,1.5218,3.3989,3.399Z"/><path class="cls-11" d="M315.39659,364.6224l-65.2993,11.9003c-.71938.1311-1.2369.7656-1.2206,1.4968l.0863,3.8825c1.25392-.3016,2.6388-.2513,4.3935,1.463.8327.8135,1.3836,1.9148,1.3835,3.0788-.0002,1.2306-.4773,2.345-1.2554,3.1767-.3515.3758-.05568.9806.4551.9176l45.7418-5.6364c-.3011-.8699-.3741-1.8472.2373-2.9555.7048-1.2775,2.0205-2.1824,3.47912-2.1488,2.08558.0481,3.76158,1.7538,3.76158,3.8511,0,.1151-.024.2234-.0339.336l8.1882-1.009c.7264-.0895,1.2798-.694,1.305-1.4254l.5315-15.4127c.0327-.9489-.8197-1.6853-1.7537-1.515ZM276.94649,384.3283c-1.752,0-3.1724-1.4204-3.1724-3.1724,0-1.7521,1.4204-3.1723,3.1724-3.1723s3.17242,1.4202,3.17242,3.1723c0,1.752-1.42042,3.1724-3.17242,3.1724Z"/><path class="cls-21" d="M272.41459,367.1824c0,1.46-1.18368,2.6437-2.64368,2.6437s-2.64362-1.1837-2.64362-2.6437c0-1.4601,1.18362-2.6436,2.64362-2.6436s2.64368,1.1835,2.64368,2.6436Z"/><path class="cls-21" d="M292.95929,346.411c0,1.4183-1.1497,2.5681-2.568,2.5681-1.41838,0-2.5681-1.1498-2.5681-2.5681s1.14972-2.5681,2.5681-2.5681c1.4183,0,2.568,1.1498,2.568,2.5681Z"/><path class="cls-6" d="M410.53342,22.7695c1.6781-2.097,3.3561-4.1941,5.0342-6.2911-.8634-.8439-1.6968-1.5789-1.9884-2.7505-.2906-1.167.1116-2.4614.9555-3.3185.8439-.857,2.0872-1.27765,3.2871-1.19483,1.2328.08507,2.4398.70704,3.1424,1.72343.5872.8494.7847,1.9695.5017,2.9546-.049.1706.1202.3135.2774.2311.6104-.3196,1.5413-.6233,2.3176-.7197,1.3523-.1678,2.7738.4249,3.6062,1.5036.8325,1.0788,1.0454,2.604.5403,3.8696-.3273.8199-.9617,1.5386-1.7875,1.8508-.4614.1746-.9634.2186-1.4564.2005-1.4039-.0516-2.7836-.6119-3.826-1.5537-.0002-.1791-.3317-.0588-.4499.0759-2.4475,2.7887-4.8952,5.5775-7.3427,8.3663-.7247-1.6381-1.8495-3.2378-2.978-4.6288-.1581-.1948.4045-.2392.1665-.3187Z"/><path class="cls-5" d="M407.53532,44.9244c-.4193.7049-.8481,1.3997-1.2887,2.0818-2.732,4.2293-6.3836,8.4583-11.4551,9.7585-5.2025,1.3339-11.0084-.9672-14.3021-5.2096-2.0359-2.6225-3.4402-6.0931-3.4688-9.4367-.0495-5.7946,5.5245-9.5598,10.4711-11.1777,3.4819-1.1389,7.1641-1.7932,10.3737-3.5592,1.883-1.0359,3.5443-2.4245,5.1924-3.8038,2.8608-2.3943,4.5285-4.223,8.4296-3.6142,2.5885.4039,5.1628,1.9698,5.5396,4.7648.2531,1.8783-.6875,3.6889-1.5983,5.351-2.6573,4.8493-5.0561,10.0755-7.8934,14.8451Z"/><path class="cls-1" d="M384.76332,48.7951c3.6016,1.8977,7.9122,2.4084,11.8574,1.4047"/><polygon class="cls-21" points="501.43332 333.5477 500.99572 392.3161 498.99572 392.3161 498.55812 333.5477 501.43332 333.5477"/><polygon class="cls-21" points="519.85242 336.371 503.23172 392.7408 501.31072 392.1846 517.37912 335.6549 519.85242 336.371"/><circle class="cls-2" cx="488.22589" cy="379.7404" r="10.99184"/><path class="cls-2" d="M494.97342,379.7404c0,3.7265-3.021,6.7475-6.7475,6.7475s-6.7474-3.021-6.7474-6.7475,3.0208-6.7474,6.7474-6.7474,6.7475,3.0208,6.7475,6.7474Z"/><path class="cls-2" d="M491.38202,379.7404c0,1.7431-1.413,3.1561-3.1561,3.1561-1.743,0-3.1561-1.413-3.1561-3.1561,0-1.743,1.4131-3.156,3.1561-3.156,1.7431,0,3.1561,1.413,3.1561,3.156Z"/><path class="cls-2" d="M519.36762,380.9977c0,5.5297-4.4828,10.0124-10.0125,10.0124s-10.0123-4.4827-10.0123-10.0124,4.4827-10.0123,10.0123-10.0123,10.0125,4.4826,10.0125,10.0123Z"/><path class="cls-2" d="M515.50142,380.9977c0,3.3944-2.7517,6.1462-6.1463,6.1462-3.3944,0-6.1461-2.7518-6.1461-6.1462s2.7517-6.1462,6.1461-6.1462c3.3946,0,6.1463,2.7518,6.1463,6.1462Z"/><path class="cls-2" d="M512.23002,380.9977c0,1.5877-1.2871,2.8749-2.8749,2.8749-1.5877,0-2.8747-1.2872-2.8747-2.8749s1.287-2.8749,2.8747-2.8749c1.5878,0,2.8749,1.2872,2.8749,2.8749Z"/><polygon class="cls-10" points="518.80332 420.7361 480.49682 420.7361 474.44842 379.9093 524.85182 379.9093 518.80332 420.7361"/><path class="cls-1" d="M535.67942,365.9432c-3.5227,4.6492-7.0456,9.2985-10.5683,13.9477"/><path class="cls-1" d="M464.38392,366.5961c3.5227,4.6492,7.0455,9.2985,10.5683,13.9477"/><circle class="cls-5" cx="499.01009" cy="399.47368" r="8.46352" transform="translate(-4.42675 793.3539) rotate(-76.71741)"/><path class="cls-18" d="M435.62322,122.4336c2.1424,5.6592-.7087,11.9836-6.3678,14.126-5.6592,2.1423-11.9836-.7087-14.126-6.3679-2.1424-5.6592.7086-11.9836,6.3678-14.126s11.9836.7087,14.126,6.3679Z"/><path class="cls-15" d="M441.60592,132.0897c2.5679,6.7835-.8494,14.3642-7.6328,16.9321-6.7835,2.568-14.3642-.8494-16.9322-7.6328-2.5679-6.7834.8494-14.3642,7.6328-16.9322,6.7835-2.5679,14.3643.8495,16.9322,7.6329Z"/><path class="cls-11" d="M416.22302,143.7585l27.5648-10.4349,2.7393,38.8286c.1398,1.9823-2.3109,3.016-3.6331,1.5326l-26.671-29.9263Z"/><g class="cls-32"><path class="cls-21" d="M416.70312,127.7939c.3053,1.55.3084,3.15.652,4.692.3437,1.542,1.1129,3.0982,2.4983,3.8576.3617.1983.8266.33,1.1717.1042.1776-.1161.2904-.3086.373-.5041.594-1.4061-.3323-2.7971-.6155-4.2046-.1001-.4981-.1785-1.0194-.044-1.5092.593-2.1579,2.286.0224,2.7589.9751.3775.7603.7426,1.5268,1.095,2.2991.2899.6352.5771,1.2838,1.0271,1.8178.45.5338,1.0959.9472,1.7941.9472.1665,0,.3376-.025.4816-.1086.1898-.1103.3111-.3102.389-.5154.3027-.7953.0552-1.6824-.1935-2.4962-.3117-1.0196-.7386-2.0663-.8796-3.1214-.1005-.7524-.4541-1.9449-.1263-2.6721.1152-.482.3864-.9649.8425-1.1587.4607-.196,1.0118-.0468,1.4091.2577.3973.3044.6687.7418.9125,1.179.6928,1.2429,1.8579,5.9911,4.2669,4.7198.8085-.4266.8268-1.5596.7227-2.4677-.2309-2.0139-.5185-4.0242-.9787-5.9982-.3203-1.3736-.8253-2.8619-2.0534-3.5555-1.1139-.6289-2.4965-.4156-3.7455-.1393-2.902.6423-5.8946,1.6163-7.9087,3.802-.4862.0452-.5112.2713-.845.6278-.8971.9583-2.1071,2.2134-3.0042,3.1717Z"/></g><g class="cls-27"><path class="cls-21" d="M416.38322,119.2071c-.0063-.1302.0093-.2586.012-.3883-.2346-.7734-.4432-1.5547-.6106-2.3455l.5986,2.7338Z"/><path class="cls-21" d="M427.67842,114.533c-.4179-.456-1.0413-.6581-1.6448-.7937-2.3256-.5232-4.8741-.2959-6.9152.9353-1.9295,1.1639-3.3016,3.2938-3.3498,5.5344.3148,1.0376.6821,2.0591,1.1141,3.0536.2701.6217.5882,1.2645,1.1525,1.6402.5642.3758,1.444.3594,1.8166-.2069.3635-.5528.0946-1.2804-.1191-1.9065-.1774-.52-.3104-1.0553-.3965-1.5979-.0784-.4933-.0812-1.0845.3145-1.3892.3571-.275.8985-.1694,1.2461.1173.3477.2867.5475.7104.7364,1.1196.3418.7404.6835,1.4809,1.0253,2.2212.1369.2967.2967.6168.5941.7522.4654.2117,1.0243-.1721,1.1986-.653.1742-.4808.0802-1.0113.0038-1.517-.0882-.585-.1496-1.174-.1841-1.7646-.0279-.4773-.0337-.9774.1761-1.4071.2096-.4298.7003-.7594,1.1608-.6308.6323.1766.7893,1.0022,1.2633,1.4564.3446.3302.8807.4439,1.3297.2824s.7896-.5909.8448-1.0648c.0408-.3497-.0621-.6983-.1643-1.0352-.1786-.5887-.3586-1.1769-.54-1.7646-.1521-.4922-.3147-1.0015-.6629-1.3813Z"/></g><path class="cls-20" d="M66.145,422.1053c-.7499,6.4924-6.6209,11.1475-13.1133,10.3977-6.4924-.7498-11.1475-6.6209-10.3977-13.1133.7498-6.4923,6.62092-11.1475,13.1133-10.3977,6.4923.7499,11.1475,6.6209,10.3977,13.1133Z"/><circle class="cls-15" cx="53.00787" cy="432.70925" r="14.18447" transform="translate(-156.7707 50.55734) rotate(-21.78009)"/><path class="cls-11" d="M36.9576,432.9499l31.623,3.6525-16.621,38.616c-.8485,1.9714-3.71268,1.7484-4.2459-.3305l-10.7561-41.938Z"/><g class="cls-34"><path class="cls-21" d="M45.3328,417.869c-.4755,1.6388-1.2658,3.1756-1.7005,4.8256-.4346,1.6499-.468,3.5246.4848,4.94.2489.3696.6296.7265,1.0727.681.228-.0234.4317-.1522.6078-.2989,1.267-1.0548,1.0678-2.8487,1.4939-4.3397.1508-.5276.334-1.0666.706-1.4699,1.6388-1.7767,2.1823,1.1547,2.1638,2.3033-.0146.9168-.0443,1.8332-.089,2.749-.0368.7532-.0827,1.518.0844,2.2534s.5819,1.4522,1.2519,1.7983c.1598.0826.33632.1435.5159.1346.2368-.0118.4523-.1434.6288-.3016.6848-.6131.8871-1.5871,1.0518-2.4913.2064-1.1328.3157-2.3488.7035-3.4312.2765-.7717.5284-2.0912,1.2035-2.6265.3494-.4054.8491-.7343,1.38282-.6942.53918.0403.99408.4567,1.22438.9458s.2739,1.0433.2911,1.5837c.0486,1.5361-1.1874,6.6698,1.7544,6.6442.9873-.0085,1.5666-1.0866,1.9168-2.0096.7769-2.0469,1.4975-4.1184,2.0346-6.2408.3736-1.4768.6268-3.1552-.2078-4.4296-.757-1.1557-2.1894-1.6365-3.5249-1.9905-3.103-.8224-6.4574-1.3714-9.47358-.2725-.489-.1977-.62512.0069-1.122.1835-1.336.4748-3.11922,1.0792-4.45512,1.5539Z"/></g><g class="cls-23"><path class="cls-21" d="M49.2828,409.471c.0584-.128.13712-.2435.204-.3666.1582-.8584.3455-1.7116.5768-2.5533l-.7808,2.9199Z"/><path class="cls-21" d="M62.4383,410.5857c-.175-.6448-.673-1.1477-1.1848-1.5771-1.9722-1.655-4.5303-2.7003-7.0992-2.5307-2.4285.1602-4.801,1.5238-5.958,3.6499-.2123,1.1516-.3662,2.3139-.4448,3.4823-.049.7305-.0624,1.505.2928,2.1452.355.6403,1.2074,1.0608,1.8457.7021.6228-.3502.7255-1.1817.8308-1.8884.0876-.587.2254-1.1665.4117-1.7299.16942-.5122.4597-1.0808.9905-1.1771.47892-.0868.9461.2829,1.1376.7304.1914.4475.1731.953.1515,1.4394-.039.8798-.07818,1.7598-.1174,2.6396-.0156.3525-.021.739.1973,1.0162.3416.434,1.0681.3427,1.4737-.0323s.5784-.9306.7558-1.4538c.20542-.605.43842-1.2006.6981-1.7844.21-.4719.45232-.9546.8665-1.2629.4143-.3085,1.0486-.3815,1.4266-.0298.51922.4829.2606,1.3529.49022,2.0237.167.4877.625.8626,1.13588.9302.5109.0676,1.0507-.1755,1.3386-.6029.21252-.3154.2866-.7009.35552-1.0748.12048-.6534.23938-1.307.35658-1.9609.0981-.5477.1946-1.117.0488-1.654Z"/></g><line class="cls-1" x1="590.95382" y1="304.8068" x2="608.73802" y2="337.1581"/><path class="cls-11" d="M586.08139,275.11283h.87913c3.47171,0,6.29029,2.81859,6.29029,6.29029v30.68003c0,3.47196-2.81879,6.29075-6.29075,6.29075h-.87918c-3.47126,0-6.28948-2.81822-6.28948-6.28948v-30.68159c0-3.47154,2.81845-6.29,6.29-6.29Z" transform="translate(-70.40916 319.24358) rotate(-28.79823)"/><path class="cls-3" d="M579.31382,281.49c-1.1726.8978-2.3888,2.6807-1.3821,4.0272,1.0068,1.3467,3.0089,1.0063,4.5125,1.1266.7538.0604,1.5301.268,2.0371.7974.4671.4878.6435,1.2258.4515,1.8885-.3797,1.31-1.831,1.9381-2.5534,3.033-.9991,1.5143.0606,3.0668,1.7294,3.356,2.3776.412,4.835-.9487,6.2301,1.7688,1.4469,2.8184-2.4687,5.1955-1.0036,7.8126,1.0678,1.9074,4.5421,2.183,6.5459,1.9771"/><line class="cls-1" x1="69.0612" y1="204.9438" x2="111.7828" y2="181.3621"/><path class="cls-5" d="M83.4443,197.0044h0c2.3743,4.301.8123,9.7124-3.4888,12.0866l-34.4871,19.0364c-4.3011,2.3741-9.7124.8121-12.0867-3.4889h0c-2.3742-4.301-.8122-9.7123,3.4889-12.0864l34.4871-19.0366c4.3011-2.3741,9.7124-.8121,12.0866,3.4889Z"/><path class="cls-13" d="M38.2676,220.3832c1.1894,1.5479,3.5488,3.1514,5.32632,1.8176,1.77778-1.3339,1.32318-3.9795,1.47878-5.9673.0781-.9964.3507-2.0231,1.0494-2.6945.6437-.6184,1.61882-.8533,2.4951-.6011,1.7325.499,2.5661,2.4159,4.015,3.3682,2.0039,1.3171,4.0535-.0872,4.432-2.2937.5391-3.1436-1.2651-6.3888,2.3238-8.2391,3.722-1.919,6.8731,3.2513,10.329,1.3087,2.5188-1.4158,2.8751-6.0089,2.5983-8.6571"/><path class="cls-4" d="M610.74942,184.2751c.2345-6.8053,1.7302-13.0128,5.2888-20.6548l1.1625.6161,1.5488-2.9217c.1998-.377.0562-.8446-.3208-1.0445l-7.6457-4.0528c-.377-.1998-.8447-.0562-1.0445.3208l-1.5488,2.9218.8621.4569c-4.1766,6.9828-8.1767,11.7038-13.4052,15.6282-4.3609,3.2733-7.9952,7.4175-10.549,12.2353l-10.6245,20.0429c-1.2181,2.2982-.3427,5.1487,1.9554,6.3668l6.2418,3.3087.5202.2757,6.2417,3.3086c2.464,1.3062,5.5204.3675,6.8266-2.0965l10.2564-19.3489c2.5178-4.7496,4.0492-9.9901,4.2342-15.3626Z"/><circle class="cls-17" cx="592.83304" cy="198.1796" r="7.99746"/><path class="cls-13" d="M339.01149,297.127c-1.7853,1.0129-3.8422,2.5671-3.4665,4.585.49292,2.6479,4.5131,2.909,5.8404,5.2527.1477.2609.2594.5547.2382.8538-.0606.8506-1.0552,1.2448-1.8653,1.5111-1.4927.4907-2.91638,1.1909-4.2161,2.0739-.3855.2619-.7839.5725-.912,1.0206-.2256.7884.4695,1.5149,1.09772,2.0422,1.27648,1.0716,2.553,2.1431,3.82938,3.2146.4263.3579.8713.7422,1.052,1.2685.4439,1.2922-.9169,2.4989-2.2102,2.9393s-2.8116.6404-3.6333,1.732c-.9506,1.2628-.4474,3.1387.5602,4.3567,1.0076,1.2179,2.4178,2.0286,3.5588,3.1226,1.141,1.0938,2.0406,2.7046,1.5746,4.215-.5758,1.8663-2.8074,2.5559-4.7171,2.9653"/><path class="cls-13" d="M571.53802,385.0697c.8542-2.0074,1.7756-4.1005,3.702-5.5467,1.9265-1.4461,5.1877-1.9749,7.1634-.5726,1.5897,1.1285,1.8792,3.0926,3.3763,4.3005,1.6856,1.3599,4.8039,1.2815,6.3812-.1604.7794-.7126,1.169-1.6433,1.7992-2.4462,1.1887-1.5146,3.7681-2.5452,5.6705-1.6175,1.8523.9031,2.0278,3.0282,3.4009,4.3775.6144.6039,1.4662,1.0377,2.3862,1.2827,2.0087.5351,4.358.1306,5.9205-1.0193,1.5623-1.1499,2.2756-2.9994,1.7974-4.6609"/><path class="cls-13" d="M36.6961,160.1124c.6887-2.0073,1.4316-4.1004,2.98482-5.5467,1.55318-1.4461,4.18268-1.9749,5.77558-.5726,1.2818,1.1285,1.5151,3.0926,2.7222,4.3006,1.3591,1.3598,3.87322,1.2814,5.1449-.1605.6284-.7125.9425-1.6432,1.4506-2.4461.9585-1.5146,3.0382-2.5453,4.572-1.6176,1.4934.9032,1.6349,3.0282,2.742,4.3775.4954.604,1.1822,1.0378,1.9239,1.2828,1.6196.535,3.5137.1305,4.7735-1.0194,1.2597-1.1499,1.8347-2.9994,1.4492-4.6609"/><path class="cls-2" d="M284.68629,32.6524c1.6554,3.3052,6.4231,3.1543,7.8658-.2492l.3476-.8199c1.469-3.4651,6.3527-3.5399,7.92722-.1216l.59268,1.2871c1.5352,3.3331,6.2592,3.3693,7.8452.0602l.6824-1.4238c1.6192-3.3782,6.472-3.25,7.9104.209l.0632.152c1.4709,3.5369,6.4708,3.5667,7.9838.0475l.0339-.0788c1.4853-3.4552,6.3649-3.5084,7.9253-.0865h0c1.6112,3.5334,6.6986,3.3278,8.0194-.3241"/><path class="cls-2" d="M646.27022,182.3432l.8284.3271c3.5005,1.3824,3.6967,6.2628.3185,7.9217l-1.2719.6246c-3.2939,1.6175-3.2127,6.341.1348,7.8442l1.4403.6469c3.4174,1.5347,3.4098,6.3892-.0124,7.9131l-.1503.0669c-3.4993,1.5584-3.4048,6.5575.1509,7.9826l.0797.0318c3.491,1.3991,3.6655,6.2758.2834,7.9208h0"/><path class="cls-6" d="M212.85809,342.5017c-11.08318-3.112-17.5451-14.6195-14.4331-25.7027s14.6194-17.5451,25.7026-14.4331c11.0832,3.112,19.1045,18.1018,15.9925,29.185s-16.1788,14.0628-27.262,10.9508Z"/><path class="cls-16" d="M215.67709,330.2693c-4.3651-1.2256-6.9101-5.7578-5.6844-10.123,1.2256-4.3651,5.7579-6.9102,10.123-5.6845s6.9101,5.7579,5.6845,10.1231c-1.2257,4.3651-5.758,6.9101-10.1231,5.6844Z"/><path class="cls-6" d="M683.00132,136.954c-11.0831-3.112-17.545-14.6195-14.433-25.7027,3.112-11.0832,14.6194-17.5451,25.7027-14.4331,4.4746,1.2565,8.2352,4.3575,11.0065,8.0116,1.4101,1.8591,2.8615,4.0561,3.6036,6.287,1.0168,3.0566-.1344,3.5496-1.5488,6.2384-.9993,1.8995-.5352,4.2318.226,6.2389,1.3083,3.4496,2.4435,4.9359-.073,7.8703-1.9214,2.2405-4.221,3.9028-6.9668,5.0048-5.5007,2.2077-11.8756,2.0689-17.5172.4848Z"/><path class="cls-16" d="M685.82042,124.7217c-4.3651-1.2257-6.9101-5.7579-5.6844-10.1231,1.2256-4.3651,5.7579-6.9102,10.123-5.6844,4.3651,1.2256,6.9101,5.7578,5.6845,10.123-1.2257,4.3651-5.758,6.9102-10.1231,5.6845Z"/><path class="cls-5" d="M329.85029,72.3459c3.8118-.1762,8.6307,1.0755,11.56462,3.5153,6.63978,5.522,5.70378,16.6719,12.94668,21.3751,5.3978,3.5051,12.18,1.9464,17.86422-1.0721l6.5229,14.2922c-6.5254,2.7622-13.21103,5.767-20.20672,4.6393-6.9955-1.1278-13.8739-6.5499-16.5794-13.0989-1.4639-3.5439-1.78568-7.6733-4.2599-10.6025-2.1781-2.5785-5.6916-3.7188-9.0666-3.7675-3.3749-.0487-6.6818.8607-9.9343,1.7628.2889-4.5573-.3706-9.4982-1.1137-14.0039,0,0,8.4504-2.8638,12.2622-3.0398Z"/><g class="cls-25"><path class="cls-7" d="M381.10372,100.6387c-4.5557,1.976-10.06113,4.8845-14.97893,5.5742s-10.0744,1.1794-13.9655-1.9059c-7.861-6.2332-7.9845-19.9594-17.1516-24.035-4.3723-1.9439-9.4701-.9145-13.9972.6348-4.5273,1.5492-9.019,3.6125-13.80358,3.6717"/></g><path class="cls-5" d="M359.60559,387.5067c.00132,2.1556.0024,4.3112.0037,6.4667.0001.2882-.016.6143-.2333.8036-.2948.2565-.7487.0999-1.1017-.0677-1.93138-.9171-3.8626-1.8342-5.794-2.7513,1.78162-1.9428,3.9964-3.4861,6.436-4.4844"/><path class="cls-5" d="M396.56192,366.3213c1.4656,1.8079,3.1694,3.4227,5.0534,4.7891,1.0097-2.325,2.0193-4.65,3.0289-6.975-2.7483.2628-5.4965.5255-8.2446.7882"/><path class="cls-5" d="M352.22292,380.2276c.043-1.8059.77578-3.5193,1.57788-5.1378,3.5418-7.1456,8.8615-13.6036,15.8876-17.377,7.02613-3.7734,15.86753-4.5625,23.00083-.9961,2.4022,1.201,4.6529,2.9612,5.7541,5.4107s.7666,5.6662-1.292,7.3908c-2.5201,2.1113-6.2443,1.3081-9.5314,1.2462-10.916-.2057-15.2247,8.0735-20.44493,15.8365-4.8115,7.1551-15.1456,1.76-14.95207-6.3733Z"/><path class="cls-5" d="M373.53972,362.0095c-6.83863,3.0932-12.02152,9.6117-13.49412,16.9715"/><path class="cls-11" d="M447.21842,312.0945c-.3944-.4699-.8699-.8713-1.4066-1.1709-.9375-.5232-2.015-.7424-3.0835-.8479-.6993-.069-1.4018-.0916-2.1041-.0943-.6042-.0023-1.936.1037-.9072-.684.789-.6042,1.4409-1.1526,1.6245-2.1996.258-1.4713-.6733-3.0183-2.0368-3.6283-.5315-.2377-1.1104-.3492-1.6875-.4265-.3688-.0494-.8924-.0547-1.4069-.0488-.6473.0074-1.0914-.639-.8594-1.2435.2723-.7094.6252-1.4173.8722-2.115.4126-1.1654.9204-2.2954,1.413-3.4284.4331-1.0054-.3707-.5985-1.0854-.5945-1.1951.007-2.3022.0668-3.4852.2844-4.124.7589-8.2969,1.7494-11.4666,4.9168-.9708.9702-1.6677,2.1669-2.1154,3.4643-.1484.4304-.2629.8791-.2589,1.3344.01,1.1232.4967,2.1618.9617,3.1597.1416.3036.6763.747.3783,1.0261-.2391.2239-1.4168.1183-1.7588.1548-1.1706.1248-2.3434.3381-3.4278.8123-.7128.3116-1.3897.7423-1.8756,1.3498-1.0079,1.2602-1.4237,3.7848-.648,5.2157.8385,1.5469,2.2591,2.6962,4.0923,2.6962h26.7309c2.2332,0,3.8868-1.6519,4.4406-3.7095.3036-1.1279.3782-1.9158-.1407-3.0307-.1992-.428-.4551-.8307-.7591-1.1926Z"/><polygon class="cls-8" points="440.69632 339.2308 419.79342 339.2308 411.45312 316.5646 449.03672 316.5646 440.69632 339.2308"/><line class="cls-8" x1="442.30402" y1="317.0486" x2="436.01232" y2="338.5049"/><line class="cls-8" x1="435.36702" y1="317.0486" x2="432.14052" y2="338.5049"/><line class="cls-8" x1="427.78472" y1="317.0486" x2="428.10732" y2="338.3436"/><line class="cls-8" x1="419.23442" y1="317.0486" x2="424.23562" y2="338.9888"/><path class="cls-6" d="M703.93432,214.4032c-2.5824-.7379-5.1649-1.4758-7.7473-2.2137-.4449,1.1223-.801,2.175-1.769,2.8964-.9643.7188-2.3136.8478-3.43.4004-1.1165-.4474-1.9847-1.4317-2.3718-2.5705-.3977-1.17-.2902-2.5236.376-3.5642.5567-.8697,1.5135-1.4845,2.5315-1.6039.1763-.0207.2427-.232.106-.3452-.5306-.4396-1.1702-1.181-1.559-1.8598-.677-1.1825-.6794-2.7226-.0059-3.9071s1.9982-1.97,3.3607-1.993c.8826-.0147,1.7906.2929,2.3975.934.3393.3581.5738.8042.7475,1.266.4946,1.3149.5107,2.8039.0446,4.1292-.1652.0693.0739.3286.2437.3856,3.5177,1.1805,7.0355,2.3611,10.5531,3.5416-1.231,1.3011-2.2721,2.9565-3.1193,4.5346-.1187.2211-.3768-.2807-.3583-.0304Z"/><path class="cls-5" d="M725.64662,208.1654c2.2099.5863,4.1142,1.1602,5.4259,1.5109,3.91,1.0453,7.7962,2.8077,10.2991,6.1169,7.9025,10.4489-4.5074,25.8609-14.6243,29.4081-6.3872,2.2394-14.6451.0358-17.4502-6.124-2.252-4.9453-1.326-10.7979-3.2055-15.9437-1.1531-3.1568-3.7378-7.1929-3.1245-10.7004,1.5539-8.8859,14.3094-6.4883,22.6795-4.2678Z"/><path class="cls-1" d="M716.09332,237.1738c.6421,1.9087,2.562,3.1929,4.5509,3.5084,1.989.3155,4.026-.2014,5.8793-.9893"/><path class="cls-11" d="M735.06642,350.7754l-42.8781-43.6043c-.0882-.0903-.2408-.0526-.277.0683l-7.0461,28.532,49.9819,15.365c.2162.0664.3781-.1998.2193-.361ZM692.81862,321.4778c-1.0507-1.5555-.6416-3.6684.914-4.7193,1.5555-1.0507,3.6684-.6415,4.7192.9139,1.0508,1.5556.6416,3.6685-.9138,4.7192-1.5556,1.0509-3.6685.6417-4.7194-.9138ZM698.09062,335.3074c-1.2789.864-3.0163.5276-3.8803-.7514-.8639-1.2789-.5274-3.0162.7515-3.8802s3.0161-.5276,3.8801.7513c.8641,1.2791.5276,3.0163-.7513,3.8803ZM715.20542,340.0211c-1.2098.8173-2.8531.4991-3.6704-.7108-.8173-1.2098-.4991-2.8532.7107-3.6705s2.8533-.499,3.6705.7108c.8174,1.2099.4991,2.8532-.7108,3.6705Z"/><path class="cls-11" d="M744.05172,339.4375c-.5812-.6755-1.3973-1.624-2.3721-2.7571-.6769.2144-1.3972.3317-2.1451.3317-3.9207,0-7.0991-3.1783-7.0991-7.099,0-1.125.2688-2.1848.7346-3.13-8.8087-10.2511-19.2695-22.4454-19.2122-22.4772l-5.4196-6.2202c-.4809-.5519-1.2916-.6721-1.9118-.2835l-13.0691,8.1872c-2.2772.83-.9377,1.6226-.2738,2.3013,12.5182,12.6196,41.5636,42.8457,41.7829,42.4847.2196-.3611,6.8853-6.6032,8.9717-8.9598.6006-.6783.6047-1.6914.0136-2.3781ZM712.03762,316.1647c-2.0348,0-3.6844-1.6495-3.6844-3.6842s1.6496-3.6843,3.6844-3.6843,3.684,1.6496,3.684,3.6843-1.6493,3.6842-3.684,3.6842Z"/><path class="cls-15" d="M733.94612,439.2511c-4.9271,5.1336-13.7402,4.6704-19.6845-1.0347-5.9442-5.7051-6.7689-14.4916-1.8417-19.6254,4.9271-5.1337,13.7402-4.6704,19.6844,1.0346,5.9443,5.7051,6.7689,14.4917,1.8418,19.6255Z"/><path class="cls-11" d="M735.06162,441.0266c2.1178-2.2066,2.1046-5.7734-.1021-7.8912-2.124-2.0386-5.3892-2.1033-7.5242-.1332h0c1.8809-2.2139,1.2269-6.0282-.8971-8.0668-2.124-2.0385-5.9619-2.5353-8.0968-.5651h0c1.8809-2.2141,1.7409-5.535-.3832-7.5736-2.2066-2.1178-5.8296-1.9236-7.9474.2831-.9828,1.0239-6.7788,15.3462-6.7788,15.3462l16.9702,16.2873s13.7218-6.6056,14.7594-7.6867Z"/><line class="cls-9" x1="714.93412" y1="443.7179" x2="727.43532" y2="433.0022"/><line class="cls-9" x1="709.32112" y1="438.9573" x2="718.77012" y2="424.2157"/></g><g id="DESIGNED_BY_FREEPIK"><path class="cls-19" d="M385.10402,268.4649c-.4326.4433-.8037.9316-1.1084,1.4531l-.4648-.2412c-.0674-.2969-.3496-.502-.6592-.4658-.331.039-.5674.3388-.5293.6699.0391.331.3389.5674.6699.5283.0655-.0068.127-.0254.1836-.0518l.4512.2344c-.251.5537-.4326,1.1387-.5391,1.7432l.7471.1318c.2295-1.3057.8496-2.5068,1.792-3.4726l-.543-.5293Z"/><path class="cls-19" d="M390.59132,266.1631c-.1709,0-.3408.0059-.5087.0166l-.0743-.626c.1875-.1494.2959-.3886.2657-.6445-.0459-.3926-.4024-.6738-.795-.6279-.3935.0459-.6748.4023-.6279.7959.0303.2539.1895.4609.4043.5634l.0733.6241c-.7139.1162-1.4024.332-2.0596.6455l.3271.6845c.9346-.4472,1.9414-.6738,2.9951-.6738.4971,0,.9932.0527,1.4756.1582l.1602-.7412c-.5352-.1162-1.085-.1748-1.6358-.1748Z"/><path class="cls-19" d="M397.19392,268.71c.331-.0401.5664-.3408.5254-.6719-.0401-.3311-.3408-.5664-.6719-.5254-.3096.0381-.5352.3037-.5303.6084l-.416.3633c-.418-.4297-.8896-.8125-1.4072-1.1397l-.4043.6416c1.1348.7149,2.0205,1.7266,2.5635,2.9248l.6904-.3125c-.251-.5537-.5674-1.0712-.9424-1.5449l.4024-.3506c.0615.0118.125.0157.1904.0069Z"/><path class="cls-19" d="M390.04452,276.3711c-.3858.0234-.7754.0352-1.1573.0352-.8798,0-1.7334-.0606-2.4785-.1797-.3906-.0615-.8457-.1543-1.2705-.292,1.0469,1.8613,3.0694,3.125,5.3887,3.125,2.8555,0,5.2627-1.916,5.9492-4.5029-.6816.4492-1.5049.8251-2.458,1.122-1.1797.3682-2.5547.6074-3.9736.6924Z"/><path class="cls-19" d="M390.59132,267.6797c-3.3515,0-6.0791,2.666-6.0791,5.9434,0,.4248.0459.8486.1368,1.2607.6738.4834,2.706.8906,5.3476.7314,2.8799-.1738,5.2969-.958,6.6719-2.1591-.0049-.1944-.0205-.3897-.0449-.5811-.3799-2.9619-2.9737-5.1953-6.0323-5.1953ZM388.43222,274.1943c-1.0196,0-1.8496-.83-1.8496-1.8496,0-1.0205.83-1.8505,1.8496-1.8505,1.0195,0,1.8496.83,1.8496,1.8505,0,1.0196-.8301,1.8496-1.8496,1.8496ZM393.16952,273.2861c-.75,0-1.3604-.6103-1.3604-1.3603s.6104-1.3604,1.3604-1.3604,1.3603.6104,1.3603,1.3604-.6103,1.3603-1.3603,1.3603Z"/><path class="cls-19" d="M406.59532,269.5469c-.295-.1162-.8057-.3096-1.3829-.2383-.5507.0693-.8437.3408-.8437,1.0068v.8663h2.2285v1.7168h-2.2285v5.455h-1.9317v-5.455h-1.3388v-1.7168h1.3388v-.8887c0-1.6797.8956-2.7822,2.5684-2.7822.6426,0,1.1572.121,1.5899.3076v1.7285Z"/><path class="cls-19" d="M411.29742,272.8779c-.1768-.0293-.3574-.0459-.5254-.0459-.8955,0-1.5098.5479-1.5098,1.6133v3.9082h-1.9326v-7.1718h1.8731v.7841c.4511-.6728,1.1396-.9765,2.0205-.9765.414,0,.8476.1279,1.0947.3369l-1.0205,1.5517Z"/><path class="cls-19" d="M418.96542,274.7568c0,.2217-.0157.4883-.0371.6514h-5.085c.207,1.0361.9326,1.4873,1.8428,1.4873.622,0,1.2949-.2519,1.8134-.6885l1.1329,1.2432c-.8145.7481-1.8506,1.0889-3.0567,1.0889-2.1982,0-3.7236-1.4961-3.7236-3.753,0-2.2578,1.4805-3.7968,3.6269-3.7968,2.0645,0,3.4786,1.5322,3.4864,3.7675ZM413.85112,274.0908h3.1748c-.1777-.9179-.7324-1.4365-1.5615-1.4365-.9102,0-1.4434.5479-1.6133,1.4365Z"/><path class="cls-19" d="M426.61872,274.7568c0,.2217-.0156.4883-.0371.6514h-5.085c.2071,1.0361.9326,1.4873,1.8428,1.4873.6221,0,1.2959-.2519,1.8135-.6885l1.1328,1.2432c-.8145.7481-1.8506,1.0889-3.0576,1.0889-2.1983,0-3.7227-1.4961-3.7227-3.753,0-2.2578,1.4805-3.7968,3.627-3.7968,2.0644,0,3.4785,1.5322,3.4863,3.7675ZM421.50442,274.0908h3.1748c-.1777-.9179-.7334-1.4365-1.5615-1.4365-.9101,0-1.4433.5479-1.6133,1.4365Z"/><path class="cls-19" d="M434.96442,274.7637c0,2.1543-1.4951,3.7754-3.4717,3.7754-.9619,0-1.6435-.378-2.1094-.9326v3.708h-1.9248v-10.1328h1.8877v.7919c.4668-.5849,1.1543-.9843,2.1387-.9843,1.9844,0,3.4795,1.6211,3.4795,3.7744ZM429.28672,274.7637c0,1.1328.748,1.9765,1.8437,1.9765,1.1397,0,1.8496-.8808,1.8496-1.9765,0-1.0947-.7099-1.9756-1.8496-1.9756-1.0957,0-1.8437.8437-1.8437,1.9756Z"/><path class="cls-19" d="M438.06792,268.835c0,.6963-.541,1.2295-1.2363,1.2295-.6963,0-1.2285-.5332-1.2285-1.2295,0-.6953.5322-1.2432,1.2285-1.2432.6953,0,1.2363.5479,1.2363,1.2432ZM437.80812,278.3535h-1.9316v-7.1718h1.9316v7.1718Z"/><path class="cls-19" d="M441.03182,273.7354l2.7021-2.5537h2.3682l-3.4785,3.375,3.5009,3.7968h-2.3759l-2.7168-2.9013v2.9013h-1.9317v-10.6582h1.9317v6.0401Z"/><path class="cls-19" d="M309.41209,278.2891v-1.0547c-.5273.7178-1.3911,1.2305-2.38718,1.2305-1.84572,0-3.14942-1.4063-3.14942-3.7061,0-2.2559,1.2891-3.7207,3.14942-3.7207.95218,0,1.81638.4687,2.38718,1.2451v-3.7646h1.0992v9.7705h-1.0992ZM309.41209,276.3701v-3.208c-.395-.6152-1.2446-1.1426-2.124-1.1426-1.4204,0-2.27,1.1719-2.27,2.7393s.8496,2.7246,2.27,2.7246c.8794,0,1.729-.498,2.124-1.1133Z"/><path class="cls-19" d="M311.93169,274.7442c0-2.0508,1.4648-3.7061,3.4863-3.7061,2.1387,0,3.398,1.6699,3.398,3.7939v.2784h-5.72708c.08788,1.333,1.02538,2.4463,2.54878,2.4463.8057,0,1.626-.3223,2.18222-.8936l.52728.7178c-.7031.7031-1.6548,1.084-2.812,1.084-2.0947,0-3.6035-1.5088-3.6035-3.7207ZM315.40339,271.9463c-1.5088,0-2.2559,1.2744-2.31448,2.3584h4.64358c-.0147-1.0547-.7178-2.3584-2.3291-2.3584Z"/><path class="cls-19" d="M319.60699,277.3516l.5713-.791c.4687.542,1.3623,1.0107,2.32862,1.0107,1.08438,0,1.67038-.5127,1.67038-1.2158,0-1.7139-4.3799-.6592-4.3799-3.2813,0-1.0986.9517-2.0361,2.6362-2.0361,1.2017,0,2.05132.4541,2.6226,1.0254l-.5132.7617c-.4243-.5127-1.2007-.8935-2.1094-.8935-.9663,0-1.5669.4834-1.5669,1.1132,0,1.5528,4.3794.5274,4.3794,3.2813,0,1.1865-.9516,2.1387-2.7827,2.1387-1.1572,0-2.1387-.3516-2.8564-1.1133Z"/><path class="cls-19" d="M326.47709,269.4707c0-.4101.3369-.7471.7319-.7471.4102,0,.7471.337.7471.7471,0,.4102-.3369.7324-.7471.7324-.395,0-.7319-.3222-.7319-.7324ZM326.66699,278.2891v-7.0752h1.0992v7.0752h-1.0992Z"/><path class="cls-19" d="M329.58209,280.1055l.5561-.8203c.586.7031,1.2891.9668,2.2998.9668,1.17192,0,2.2705-.5713,2.2705-2.1241v-1.0107c-.5127.7178-1.3769,1.2598-2.373,1.2598-1.8457,0-3.1494-1.377-3.1494-3.6621,0-2.2706,1.289-3.6768,3.1494-3.6768.9521,0,1.8017.4687,2.373,1.2451v-1.0693h1.0987v6.8701c0,2.3437-1.6407,3.0762-3.3692,3.0762-1.20108,0-2.0215-.2354-2.8559-1.0547ZM334.70849,276.2529v-3.0908c-.3808-.6152-1.2304-1.1426-2.1093-1.1426-1.4209,0-2.2701,1.128-2.2701,2.6954,0,1.5527.8492,2.6953,2.2701,2.6953.8789,0,1.7285-.542,2.1093-1.1573Z"/><path class="cls-19" d="M342.41309,278.2891v-4.6289c0-1.2451-.6299-1.6407-1.582-1.6407-.8643,0-1.6846.5274-2.09418,1.0987v5.1709h-1.09922v-7.0752h1.09922v1.0254c.49748-.586,1.46428-1.2012,2.519-1.2012,1.47948,0,2.25588.7471,2.25588,2.2852v4.9658h-1.0987Z"/><path class="cls-19" d="M344.93219,274.7442c0-2.0508,1.4648-3.7061,3.4863-3.7061,2.1387,0,3.39842,1.6699,3.39842,3.7939v.2784h-5.727c.08788,1.333,1.02488,2.4463,2.54828,2.4463.80572,0,1.626-.3223,2.1826-.8936l.5274.7178c-.7031.7031-1.65528,1.084-2.8125,1.084-2.0943,0-3.6035-1.5088-3.6035-3.7207ZM348.40379,271.9463c-1.5087,0-2.2558,1.2744-2.31388,2.3584h4.643c-.01462-1.0547-.71772-2.3584-2.32912-2.3584Z"/><path class="cls-19" d="M358.35009,278.2891v-1.0547c-.5273.7178-1.3916,1.2305-2.3881,1.2305-1.8453,0-3.149-1.4063-3.149-3.7061,0-2.2559,1.2886-3.7207,3.149-3.7207.9521,0,1.8168.4687,2.3881,1.2451v-3.7646h1.0982v9.7705h-1.0982ZM358.35009,276.3701v-3.208c-.396-.6152-1.2451-1.1426-2.124-1.1426-1.4209,0-2.2705,1.1719-2.2705,2.7393s.8496,2.7246,2.2705,2.7246c.8789,0,1.728-.498,2.124-1.1133Z"/><path class="cls-19" d="M364.69192,278.2891v-9.7705h1.09867v3.7646c.57133-.7764,1.4209-1.2451,2.3877-1.2451,1.8452,0,3.1494,1.4648,3.1494,3.7207,0,2.2998-1.3042,3.7061-3.1494,3.7061-.9961,0-1.86037-.5127-2.3877-1.2305v1.0547h-1.09867ZM367.89992,277.4834c1.43557,0,2.28517-1.1572,2.28517-2.7246s-.8496-2.7393-2.28517-2.7393c-.86423,0-1.72853.5274-2.10933,1.1426v3.208c.3808.6153,1.2451,1.1133,2.10933,1.1133Z"/><path class="cls-19" d="M372.52842,280.0615c.1611.0733.4253.1172.6005.1172.4834,0,.8057-.1611,1.0547-.747l.4688-1.0694-2.95903-7.1484h1.18653l2.3584,5.8008,2.3443-5.8008h1.2002l-3.5445,8.5107c-.4248,1.0244-1.1426,1.4209-2.0801,1.4356-.2343,0-.6005-.044-.8056-.1035l.1758-.9952Z"/></g></svg>