<?xml version="1.0" encoding="UTF-8"?><svg id="_レイヤー_2" xmlns="http://www.w3.org/2000/svg" viewBox="0 0 1156.54002 468.5708"><defs><style>.cls-1{stroke-width:0px;}</style></defs><g id="Graphic_Elemnts"><path class="cls-1" d="M4.83965,1.53905c4.6112,4.6345,11.8864,6.5364,18.0045,8.1645,9.6133,2.5582,19.4968,4.0979,29.3411,5.4488,18.1222,2.4869,36.5484,3.409,54.5627,6.6065,12.1317,2.1533,24.0916,5.6705,36.1192,8.3619,10.9874,2.4586,22.0283,4.6714,33.1733,6.2903,12.5775,1.827,25.2445,2.9566,37.9173,3.871,7.8853.569,15.7632,1.0697,23.6681,1.2466,3.9754.0889,7.9519.2289,11.9275.2912,4.7509.0744,8.9209.4876,13.5382,1.5282,3.8749.8733,8.0066,1.0307,11.9524,1.491,3.7178.4338,7.4411.8071,11.1844.919,8.0406.2405,16.2038-.3388,24.2273-.8485,7.9535-.5053,15.874-1.5341,23.7004-3.0336,8.3619-1.602,16.5736-3.7979,24.9834-5.1793,8.276-1.3595,16.6035-2.371,24.8999-3.593,8.6505-1.2743,17.1032-2.6362,25.8759-2.6956,3.6746-.0248,7.3461.085,11.0186.1941,4.4628.1324,9.6332-.7184,13.8825.8784,3.1639,1.189,5.9133,2.2799,9.2064,3.1214,4.158,1.0626,7.5539,3.6471,11.5434,5.1295,3.5356,1.3137,7.1587,2.378,10.6946,3.6915,4.0631,1.5093,7.9361,3.4689,11.8963,5.2222,7.7623,3.4364,15.6377,6.6073,23.499,9.8078,14.6511,5.9648,29.0122,13.6557,44.5011,17.2066,4.0859.9367,8.1214,2.0354,12.1792,3.0837,4.1444,1.0707,8.4975,1.6252,12.4996,3.1774,6.8548,2.6584,12.7279,8.1288,17.7444,13.3506,5.5796,5.8079,10.3838,12.2552,15.5595,18.4088,5.0276,5.9774,11.0896,10.785,16.4052,16.4775,5.1779,5.5452,10.5802,10.7105,16.0757,15.9366,2.6659,2.5352,5.0695,5.3556,7.7904,7.8245,2.7837,2.5258,5.986,4.5277,8.8275,6.9831,4.1913,3.6217,11.9795,12.098,6.5555,17.744-2.4686,2.5696-7.17,3.7001-10.4817,4.475-4.2868,1.0031-8.7057,1.2585-13.0949,1.2937-8.3089.0666-16.4781.1114-24.2439-3.2162-6.9892-2.9948-13.9712-7.0775-20.1559-11.491-8.3102-5.9302-15.5605-13.2741-23.5608-19.6014-1.066-.843-2.4659-2.3995-3.777-2.8082-.7497-.2338-3.3238,1.0015-3.3762.9613.1503.1153,2.9094-.4827,2.4466-1.1227-.269-.3721-1.3158-.6629-1.7444-.8938-1.5827-.8525-3.1519-1.7282-4.7446-2.5624-3.9266-2.0569-7.9142-3.995-11.842-6.0495-3.3385-1.7461-6.5354-3.8409-9.9445-5.4354-3.6474-1.7059-7.5615-2.6937-11.332-4.0742-7.3239-2.6814-14.5697-5.3291-21.6954-8.5247-7.0626-3.1674-14.5431-5.4647-22.1137-7.0488-4.197-.8782-8.3429-.7729-12.5537-1.3734-3.329-.4747-6.4393-1.4531-9.8256-1.5854-16.3456-.6386-32.3724-.7299-48.4751,2.6933-15.7716,3.3528-30.4773,11.1349-45.0262,17.7904-3.057,1.3985-6.1292,2.7644-9.1632,4.2126-3.0537,1.4575-6.6229,2.8349-9.2383,5.0349-2.271,1.9102-2.3071,4.0927-.2803,6.2198,5.0164,5.2647,13.2693,6.9441,19.8214,9.4969,4.8198,1.8778,8.4997,2.7241,13.3022.2258,6.0253-3.1344,10.623-7.7754,15.4931-12.4057,6.2167-5.9106,12.7633-11.5198,18.6914-17.7244,5.2958-5.5428,10.4708-10.9801,16.2473-16.0325,2.8432-2.4868,5.7261-4.9751,9.1219-6.686,4.7597-2.3981,10.151-3.2542,15.3601-4.0902,8.6917-1.395,17.2459-.2894,25.5409,2.567,14.9678,5.1543,28.7372,14.8072,41.5431,23.9215,6.5217,4.6417,12.8268,9.5696,19.1894,14.4238,3.2463,2.4767,6.2529,5.1208,8.6042,8.4909,1.9693,2.8227,3.6993,5.6163,6.088,8.1163,5.628,5.8903,10.7178,12.2974,15.0457,19.203,4.201,6.7032,8.2226,13.2504,13.4042,19.2645,4.8768,5.6603,9.5708,11.3904,13.9391,17.4575,3.856,5.3558,7.7453,11.6336,7.0382,18.5205-.454,4.4228-2.5822,7.5467-7.265,7.3042-4.3451-.2251-8.6266-1.8176-12.5874-3.5095-8.2352-3.5178-15.9877-8.2814-23.2352-13.5118-24.2467-17.4984-43.0504-41.1267-63.9261-62.2556-5.1868-5.2498-9.8697-9.6689-16.9996-12.0607-6.6436-2.2286-13.2062-3.2797-20.1856-2.2333-15.0276,2.253-28.3349,10.8099-43.1035,14.2456-7.9259,1.8438-16.0351,2.8476-24.1671,3.0842-4.116.1198-8.9123.5578-12.9665-.2129-3.1097-.5912-5.1389-3.2181-8.288-3.7362-.5612-.0923-3.4196.4555-3.2379,1.3409,1.02,4.9712,5.8115,7.1299,9.6816,9.7668,5.2128,3.5517,10.7961,6.412,16.3147,9.4435,11.525,6.3309,23.1003,12.6059,35.0743,18.0563,17.8516,8.1258,35.4884,16.1676,49.066,30.8093,3.4936,3.7673,6.6692,7.8235,9.5714,12.0611,2.7449,4.0079,5.514,8.0834,6.2902,12.9784,1.4216,8.9653-4.1134,18.2085-12.8205,20.9965-5.2795,1.6905-11.326.7814-16.6673-.218-3.4918-.6534-6.8197-1.7307-9.9034-3.51-2.7657-1.5958-5.321-3.5368-8.0256-5.2315-4.368-2.737-9.0042-4.94-13.7265-6.9901-22.5475-9.7885-46.2967-16.6082-70.1448-22.3986-11.9833-2.9095-24.2098-6.3359-36.4939-7.6225-12.515-1.3108-25.1168-.468-37.6669-.9129-24.8189-.8797-50.1443-8.4478-71.9872-20.1272-18.9922-10.1551-35.6481-24.0755-54.49-34.4786-8.7496-4.8309-18.0017-8.8252-27.7693-11.0621-10.9888-2.5165-22.1432-2.178-33.3244-1.524-26.3199,1.5395-52.3842,6.0193-78.7316,7.1914-6.4951.2889-12.9938.3543-19.4922.1484-.7538-.0239-4.0401,1.4896-2.2854,1.5452,27.1754.8612,54.1051-3.3855,81.0773-5.9817,13.0753-1.2586,26.6988-2.7959,39.8211-1.5013,10.744,1.06,21.0568,4.438,30.7376,9.1379,19.5422,9.4875,36.3999,23.519,55.056,34.5124,21.0765,12.4196,45.6859,20.7538,70.0849,23.122,13.2605,1.2871,26.5979.2541,39.8818.9693,12.6963.6836,25.0738,3.9337,37.4049,6.8435,25.3013,5.9705,50.5177,12.9827,74.431,23.2976,4.7925,2.0673,9.51,4.271,13.9517,7.0254,2.8184,1.7477,5.4678,3.7736,8.3421,5.4299,6.8328,3.9375,16.1272,5.3754,23.8866,4.6592,7.4504-.6878,14.9309-4.2014,19.2412-10.4802,5.2563-7.6569,3.7265-16.4192-1.0301-23.8401-10.7677-16.7993-25.4109-29.0886-43.1447-38.0268-10.5695-5.3272-21.5488-9.7641-32.0928-15.1571-11.6093-5.9378-23.6046-11.8624-34.5864-18.903-2.6314-1.687-5.1347-3.5766-7.7533-5.2591-2.3111-1.4849-3.6586-3.2308-4.2127-5.9313-1.0793.447-2.1586.894-3.2379,1.3409,3.1064.5111,5.1558,3.208,8.2881,3.7362,3.9695.6695,8.3749.3449,12.3908.2672,7.4912-.1449,14.9752-.9341,22.3297-2.365,7.5669-1.4722,14.9749-3.6275,22.1439-6.4621,7.7578-3.0675,15.3972-6.9529,23.6748-8.4268,8.0865-1.4399,16.3461.2263,23.7487,3.6541,6.6163,3.0638,11.5566,9.1585,16.5333,14.3149,10.4519,10.8294,20.4573,22.0831,31.0412,32.7863,16.0353,16.2159,34.6305,33.2121,56.6779,40.75,6.0245,2.0598,14.5988,3.7211,19.6752-1.4249,2.9673-3.008,3.2287-8.0491,2.385-11.9475-1.4529-6.7125-6.0354-12.3264-10.072-17.681-4.6552-6.1752-9.9356-11.7969-14.6652-17.9029-4.9561-6.3983-8.5552-13.6992-13.2976-20.2464-2.2794-3.1467-4.6959-6.194-7.2549-9.118-2.5027-2.8597-5.3321-5.4605-7.4867-8.6007-1.9396-2.8267-3.6739-5.6808-6.1346-8.1062-2.928-2.886-6.3667-5.2037-9.6066-7.7144-12.9147-10.0081-26.2337-19.4238-40.4332-27.5375-13.2683-7.5815-27.7845-12.5243-43.1846-10.0443-6.9991,1.1272-14.1422,2.4813-20.3757,6.0326-5.855,3.3356-11.1886,8.3653-15.9552,13.08-5.5982,5.5373-10.7656,11.4337-16.5334,16.809-5.9975,5.5893-11.7989,11.4607-17.9541,16.872-2.6523,2.3318-7.1233,6.3771-10.9597,5.6361-2.5129-.4853-4.9408-1.8187-7.3653-2.6448-3.4829-1.1867-6.9446-2.4593-10.258-4.0689-2.5433-1.2355-8.087-3.6292-8.1642-7.0867-.0546-2.4446,3.0865-3.5925,4.8133-4.5013,3.9405-2.0738,8.0071-3.8884,12.0582-5.732,15.7924-7.187,31.7009-15.8343,49.0374-18.5383,8.395-1.3094,16.9002-2.2702,25.403-2.1559,4.259.0572,8.5128.2935,12.7686.4551,4.3087.1636,8.1795.8605,12.3944,1.5721,3.9847.6727,8.0166.4543,12.0059,1.2435,4.6886.9275,9.3231,2.1407,13.853,3.6666,7.2183,2.4317,13.8493,6.481,21.1864,8.4852,4.0413,1.104,7.7295,2.9538,11.6927,4.2865,3.8121,1.2819,7.6636,2.4086,11.1982,4.3719,7.221,4.0111,14.618,7.6498,21.8858,11.5713,2.4028,1.2964,5.8922,4.1667,8.5253,1.5387-1.0262.3344-2.0525.6688-3.0787,1.0033,1.0075.0867,3.0416,2.2925,4.0467,3.0989,2.0494,1.6444,4.046,3.3554,6.0446,5.0608,4.2351,3.614,8.4298,7.2789,12.7392,10.8048,5.037,4.1212,10.5249,7.5044,16.2238,10.6413,6.3594,3.5005,12.953,6.8617,20.3326,7.3498,12.8627.8507,28.5116,1.28,39.9569-5.7375,4.8907-2.9986,5.428-7.7577,2.6917-12.6839-3.5115-6.3219-9.9291-9.7617-15.1712-14.3939-2.8838-2.5482-5.3997-5.5331-8.1924-8.188-2.8645-2.7232-5.8569-5.3156-8.6717-8.0905-2.8041-2.7643-5.4005-5.7287-8.1015-8.5916-2.9462-3.1227-6.2077-5.835-9.3056-8.7898-11.115-10.6016-18.727-24.2895-31.1583-33.6425-2.7882-2.0978-5.7801-4.0599-9.0739-5.262-3.6154-1.3195-7.4602-1.8638-11.1836-2.7846-8.4356-2.086-17.0842-3.9163-25.2362-6.945-7.7419-2.8764-15.1897-6.477-22.8058-9.6595-7.8377-3.2751-15.7384-6.3973-23.5762-9.6723-8.0265-3.3537-15.8229-7.4015-24.0516-10.2304-3.6832-1.2663-7.5426-2.2853-11.0378-4.0257-3.1716-1.5793-5.9325-3.2269-9.4102-4.0635-2.2154-.5329-4.3221-1.0429-6.3927-1.9994-1.371-.6333-2.6024-1.2327-4.0942-1.5112-3.7201-.6944-7.6424-.2522-11.3987-.3341-7.8549-.1714-15.6727-.4473-23.5111.2991-8.4868.8081-16.9262,2.4724-25.374,3.6357-8.2433,1.1351-16.4867,2.2964-24.6398,3.9782-8.5708,1.768-16.9917,3.9179-25.6817,5.0967-8.5781,1.1637-17.1946,1.4749-25.8305,1.9003-8.4631.417-16.6695-.1245-25.071-1.1205-4.0164-.4761-7.8188-1.0652-11.7579-1.9556-4.1083-.9287-8.4491-.5931-12.6309-.7001-16.3023-.4175-32.5329-1.2417-48.7746-2.7469-23.6806-2.1946-46.7696-6.7788-69.8948-12.2228-9.8695-2.3234-19.6059-4.9144-29.6708-6.206-9.4564-1.2135-18.9503-2.1271-28.4236-3.1951-10.6806-1.2041-21.3623-2.5085-31.9519-4.3652-8.7426-1.5329-17.7915-3.2324-25.9558-6.8391-2.5715-1.1359-5.1154-2.5023-7.1147-4.5116-.609-.6121-3.8832.8559-3.3494,1.3924h0Z"/><path class="cls-1" d="M1153.67345,221.80935c-1.7624,1.5541-3.8729,1.0947-6.1137,1.0278-2.4914-.0744-4.983-.1396-7.4748-.1956-5.3626-.1204-10.7262-.1979-16.09-.2317-10.2955-.0649-20.5917.0317-30.8844.2811-20.2935.4917-40.3903,1.1759-60.5666-1.6812-10.0838-1.428-20.0747-3.8739-30.1316-5.5516-9.9373-1.6578-19.7581-2.9977-29.4675-5.734-9.1516-2.5791-18.6719-3.3351-28.0098-5.0274-9.2624-1.6787-17.9548-4.2722-26.5821-8.0306-17.71-7.7152-36.0373-14.1316-54.8429-18.5978-9.1211-2.1662-18.356-3.8662-27.6624-5.0056-9.259-1.1337-19.2743-2.4932-28.5387-1.1348-19.7187,2.8913-39.5311,5.4157-58.9285,10.1004-4.3045,1.0396-8.7026,2.0589-12.8977,3.4845-4.216,1.4326-8.0802,4.7528-11.8572,7.1082-3.9627,2.4713-8.0014,4.8392-12.2696,6.7486-4.6015,2.0585-9.4706,3.5348-14.1961,5.283-9.1735,3.3938-18.2789,7.3208-27.6898,10.0089-9.2845,2.6519-18.7305,4.8281-27.7913,8.207-7.2102,2.6888-14.8358,7.7626-17.9251,15.1801-2.9806,7.1563,6.556,11.9683,11.4626,14.9911,31.9598,19.6892,71.2809,10.0708,102.4879-6.0507,6.203-3.2045,12.3487-6.774,16.7842-12.2976,1.7337-2.159,4.7047-6.2124,4.6837-9.1472-.0181-2.5364-3.2854-5.1497-5.2386-6.2898-5.3874-3.1448-11.8748-2.2735-16.0443,2.3782-4.5588,5.0861-5.0143,12.4932-4.4946,18.9807.2526,3.1544.5376,6.361,1.7237,9.3177,1.4549,3.627,4.2558,6.5561,6.8255,9.4338,6.5475,7.3319,13.1015,14.6572,19.8687,21.7874,6.591,6.9446,13.6531,13.366,19.4523,20.997,2.8062,3.6925,5.4004,7.5216,8.1235,11.2709,1.1331,1.5599,2.936,2.2979,4.0673,3.7387.9794,1.2474,1.4433,3.0065,2.4373,4.3288.9533,1.2682,2.2607,2.3077,3.0513,3.6888.9308,1.626,1.1698,3.6183,2.0117,5.3028.9543,1.9094,2.7014,3.117,3.778,4.9515,1.3638,2.3239,2.3851,4.9494,3.5298,7.3891,4.1543,8.8539,8.0721,17.8935,10.4577,27.4058,1.1486,4.58,1.9557,9.2584,2.2088,13.9774.2737,5.1027.1497,9.3339-3.9234,12.897-6.588,5.763-15.8138,9.3906-23.8905,12.5162-34.2916,13.2707-68.8188,25.9544-102.8782,39.832-9.0331,3.6805-18.0303,7.4491-26.9874,11.311-6.7688,2.9184-17.2616,7.3823-24.0299,1.8911-4.7826-3.8802-6.284-10.8129-2.8413-15.9315,3.3007-4.9073,9.0757-8.0299,14.2794-10.5009,6.0871-2.8905,12.5078-4.9792,18.653-7.7374,8.6237-3.8706,16.9449-8.371,25.4296-12.5289,7.9102-3.8763,15.8894-6.84,24.1853-9.721,5.6114-1.9488,11.8883-5.6966,13.9789-11.5709,1.1305-3.1769.7379-6.0096-.3735-9.1134-.5792-1.6177-1.2687-3.2273-2.3297-4.5966-1.3511-1.7436-3.396-2.9294-4.9889-4.4553-5.9709-5.7201-9.807-13.0882-13.0534-20.5908-1.5673-3.6224-3.5718-7.3789-3.9753-11.2729-.4452-4.2968-3.232-8.726-4.8751-12.6903-4.051-9.774-7.91-19.6377-11.279-29.6696-1.4336-4.2689-2.3945-8.8767-4.3486-12.9384-1.8077-3.7572-4.3227-7.0984-6.8442-10.3959-2.4549-3.2105-4.5289-6.5221-6.666-9.9328-1.7571-2.8041-4.6748-4.9921-7.8356-5.9503-7.0685-2.1427-13.0547,3.8768-18.7192,7.1692-8.1165,4.7175-18.5507,3.6151-27.6346,3.7157-19.0557.2112-38.3929-.0178-56.7406,5.9014-6.7147,2.1662-13.6805,4.8208-19.2779,9.226-4.2209,3.3219-10.1685,10.2164-8.0775,16.0709,2.2568,6.3183,11.6134,6.5192,16.9814,7.0341,9.962.9557,19.96,1.4463,29.9483,2.0326,20.9521,1.23,41.5422,4.6695,62.3936,6.8505,9.5379.9976,19.0994,1.7689,28.6763,2.2728,6.7114.3531,15.5512,1.6615,20.4557-4.2882,1.268-1.5383,3.9038-4.1849,3.2729-6.3868-.7231-2.5238-5.1997-4.1559-7.4392-4.8287-3.9171-1.1768-8.2557-.8918-12.2983-.9251-4.7704-.0392-9.5409.0341-14.3099.1482-20.1591.482-40.4085,1.6094-60.4095-1.6792-4.8577-.7988-9.6172-2.2313-14.5173-2.7201-4.8898-.4879-9.8533-.4118-14.7619-.4153-8.8541-.0063-17.3521,3.1472-25.4478,6.4469-7.1763,2.9251-14.2692,5.9632-21.3723,9.054-2.9499,1.2836-4.9976,2.662-6.9794,5.2601-2.2288,2.9219-3.864,6.5552-3.8456,10.2868.0661,13.3515,17.0266,18.2677,27.347,20.745,7.2729,1.7457,14.6408,2.8356,21.9439,4.3956,10.1409,2.1662,20.9642,2.743,31.2821,3.6229,19.8404,1.692,39.6915,2.3314,59.574,1.1799,18.6672-1.0811,37.3578-3.0106,55.3167-8.4613.8916-.2706,1.1064-1.5194.7005-2.2453-.9498-1.6986-3.7932-3.8179-5.2915-1.3323-1.6972,2.8154,2.2066,3.9344,4.177,3.6683,1.4275-.1928,1.5988-1.7592.846-2.7598-.9879-1.3132-2.0351-2.5446-3.3859-3.4956-1.9435-1.3683-4.2688-1.4828-6.5457-2.0059-5.1008-1.172-10.2857-3.0276-15.5059-3.5345-5.3456-.519-10.8443-.3767-16.2133-.5632-5.7365-.1992-11.461-.566-17.1941-.839-22.7968-1.0855-45.7165-1.0102-68.3899,1.8512-16.0604,2.0268-40.4499,3.9052-43.7841,24.1068-1.1929,7.2275,1.4562,15.0928,8.8559,17.5799,10.3735,3.4864,21.4345,5.5082,32.2228,7.2022,21.9225,3.4423,44.3586,5.2754,66.5432,5.5789,22.75.3112,45.4906-.7792,68.235-.5306,23.0891.2523,46.0285,2.1274,68.9404,4.9008,5.6623.6854,11.3274,1.3597,17.0098,1.8574,4.8346.4234,10.1357,1.2656,14.9393.3708,1.9115-.356,4.2552-.7151,5.9236-1.7369,1.5473-.9476,2.2726-2.7223,3.6928-3.7873,1.5632-1.1722,3.7733-1.0645,5.6158-1.5348,2.5162-.6422,4.8554-2.2397,7.093-3.5185,4.4759-2.5578,8.8719-5.2823,13.5249-7.5141,4.6699-2.2399,9.69-3.7653,14.6184-5.3285,9.9613-3.1594,20.0941-5.9062,29.4233-10.7263,4.6323-2.3933,8.9713-5.2868,13.6272-7.648,4.5099-2.2872,9.1252-4.3632,13.5992-6.7215,8.5022-4.4814,15.8251-10.3908,21.9033-17.8626,2.9264-3.5973,5.3264-7.5138,7.0675-11.8141.7567-1.869-2.4219-3.6347-3.2794-1.5166-3.5857,8.8561-10.7145,16.6131-18.3013,22.2821-7.5021,5.6059-16.355,8.9845-24.5919,13.314-4.4685,2.3487-8.6581,5.1788-13.1918,7.402-4.3715,2.1435-8.9211,3.888-13.5331,5.4379-8.9327,3.0021-18.3044,5.1428-26.9545,8.9172-4.2924,1.8729-8.3403,4.2634-12.3833,6.6128-2.2031,1.2802-4.4021,2.5691-6.6453,3.7783-2.2333,1.2038-4.2318,1.5711-6.6835,2.1158-1.3367.2971-2.501.7281-3.5404,1.639-1.3578,1.1899-2.0783,2.8397-3.765,3.6038-4.9764,2.2545-11.0252,1.3355-16.2622.9134-20.6872-1.6677-41.1781-4.858-61.9208-6.0506-42.4917-2.4432-85.0728,1.7746-127.5011-2.2003-20.8991-1.9579-41.6408-4.1807-61.9158-9.9025-5.2968-1.4948-8.4692-3.756-9.1323-9.4979-.4766-4.128.7555-8.21,3.0078-11.6587,5.1709-7.9177,13.435-10.3716,22.2331-12.0226,20.9452-3.9304,42.2903-5.2047,63.5746-4.9913,10.8075.1083,21.5716.7431,32.3626,1.2608,5.0736.2434,10.1569.3586,15.2334.535,5.4012.1876,10.3234.9884,15.5612,2.2959,2.5056.6255,5.0084,1.2641,7.5341,1.8046,2.7279.5837,4.1552,1.4411,5.8044,3.6333.282-.9199.564-1.8398.846-2.7598-1.2514-.0992-1.6229.6795-1.1145,2.336.2335-.7484.467-1.4968.7005-2.2453-18.0651,5.483-36.8869,7.2895-55.6597,8.3467-19.6141,1.1046-39.2198.4151-58.7871-1.3014-9.5805-.8404-19.2993-1.6737-28.7795-3.3331-3.863-.6762-7.5844-1.9497-11.5118-2.3557-3.1416-.3248-6.2091-.9813-9.2918-1.6694-10.5506-2.3551-33.7919-8.8178-24.1721-24.2126,2.0015-3.2031,4.1893-4.7081,7.5313-6.1312,2.8893-1.2304,5.7685-2.4334,8.6038-3.7799,7.8467-3.7263,16.466-7.2172,24.8498-9.5136,18.6062-5.0965,37.3418,1.8957,55.9566,3.1753,18.3414,1.2608,36.6921-.1147,55.0443-.219,4.4468-.0253,9.1396-.3019,13.5514.2905,2.0874.2802,3.9974.9911,5.7871,2.0937-.3278-.202,1.1233.6825,1.1623.7674-.4239-.922-1.3527.8486-1.7007,1.3356-5.029,7.0386-13.8081,5.2182-21.423,4.7892-19.3813-1.0921-38.6778-3.3648-57.8772-6.1886-19.1883-2.8222-38.6442-2.874-57.939-4.5841-4.0989-.3632-8.504-.4146-12.4125-1.7675-1.5212-.5266-3.5485-1.2178-4.0364-2.9574-.504-1.7967.8734-4.3761,1.7056-5.858,3.2759-5.8332,9.4426-9.347,15.4014-11.898,16.7838-7.1852,34.802-8.6085,52.8512-8.8632,9.0828-.1282,18.1723-.0568,27.2459-.5503,3.7358-.2032,7.1578-.5637,10.5834-2.168,3.3382-1.5633,6.31-3.7598,9.4307-5.696,3.2377-2.0087,6.5574-4.0025,10.4211-2.4838,4.2448,1.6684,5.7211,5.8963,8.1352,9.3883,2.0829,3.0128,4.4474,5.8171,6.5586,8.809,2.8626,4.0566,4.364,8.2654,5.8553,12.9455,2.9336,9.2066,6.2884,18.2769,9.8679,27.2505,1.674,4.1966,3.3976,8.3733,5.1531,12.5366.7864,1.8651,2.1135,4.0425,2.5288,6.0385.3885,1.8667.2709,3.3825,1.017,5.2336,2.7895,6.9206,5.6157,13.9305,9.5862,20.2732,1.8412,2.9412,3.9169,5.7261,6.3194,8.2345,1.3184,1.3765,2.7264,2.6407,4.1674,3.8858,2.2509,1.9449,3.4236,3.9273,4.153,6.8426,1.8272,7.3026-6.171,12.3038-11.9248,14.4773-3.5177,1.3288-7.1839,2.242-10.6993,3.623-4.1307,1.6228-8.1714,3.4675-12.1688,5.3925-8.029,3.8664-15.8797,8.0933-23.9409,11.8938-6.1874,2.917-12.6088,5.1762-18.8819,7.8759-8.2294,3.5417-20.1609,9.1792-21.3027,19.3454-.5927,5.2778,2.3262,11.3354,6.4144,14.619,4.7745,3.8349,11.5895,3.6737,17.2633,2.4469,3.969-.8581,7.5587-2.5808,11.2697-4.177,4.3952-1.8906,8.7999-3.759,13.2139-5.6053,8.2645-3.4569,16.562-6.8341,24.8846-10.1486,15.4215-6.1416,30.9279-12.0664,46.4165-18.0358,8.7512-3.3727,17.4966-6.7606,26.225-10.192,8.0592-3.1685,16.3362-5.7723,24.2753-9.2475,3.7264-1.6311,7.3566-3.4549,10.8757-5.4954,3.206-1.8589,6.5424-3.6634,9.0681-6.4328,5.271-5.7796,3.6556-14.8117,2.4762-21.8775-1.3984-8.3785-4.1682-16.4758-7.422-24.3005-1.6363-3.9347-3.4101-7.8107-5.2298-11.6635-.9984-2.1139-1.9731-4.248-3.032-6.3324-.9801-1.9294-2.6904-3.0982-3.7779-4.9515-.9557-1.6287-1.1567-3.6199-2.0118-5.3028-.6214-1.2231-1.5567-2.143-2.447-3.1627-1.3903-1.5922-1.9337-3.3147-3.0212-5.0413-1.1487-1.8238-3.34-2.6424-4.6245-4.4-5.0428-6.9007-9.6196-14.2414-15.7628-20.2277-6.5954-6.4269-12.8935-13.1501-19.1763-19.8802-2.939-3.1484-5.6328-6.519-8.5708-9.6774-3.0862-3.3178-6.6212-6.6617-9.0619-10.4994-2.0159-3.1698-2.3147-7.1177-2.5495-10.7782-.2321-3.6175-.1666-7.3516.914-10.8399,2.0643-6.6637,9.0967-11.3132,15.5562-6.9147,1.4882,1.0133,2.6603,1.964,1.9524,3.7208-.6554,1.6265-1.5087,3.1605-2.5034,4.6025-2.1728,3.1497-5.0804,5.6919-8.2105,7.8573-7.0459,4.8742-15.258,8.5137-23.1391,11.7972-16.5923,6.9127-34.5941,11.224-52.6577,9.6879-8.5269-.7252-16.845-2.628-24.6418-6.2105-3.7254-1.7117-7.2918-3.7517-10.6601-6.089-1.6697-1.1585-3.3314-2.3648-4.8819-3.6803-2.454-2.0822-2.0739-3.799-.4981-6.2702,4.9179-7.7126,12.5316-11.0467,20.9349-13.7485,9.2568-2.9762,18.8375-4.9136,28.0012-8.1686,8.4331-2.9955,16.7638-6.2682,25.1741-9.3259,8.0855-2.9395,15.599-6.1196,22.9462-10.6512,3.6636-2.2598,7.2621-5.1862,11.2015-6.9122,4.6249-2.0264,10.038-2.9675,14.9401-4.1271,9.2867-2.1968,18.6848-3.8912,28.1069-5.3896,9.1883-1.4612,18.4056-2.7289,27.6115-4.0718,9.5051-1.3865,19.3679-.2585,28.8737.9053,18.0978,2.2159,35.925,6.5261,53.1978,12.3302,8.7149,2.9284,17.3031,6.2293,25.7592,9.8364,8.0847,3.4486,15.9318,6.5158,24.5541,8.3708,8.5108,1.831,17.1568,2.7859,25.73,4.2459,4.1992.7151,8.2541,2.0259,12.353,3.1591,4.8603,1.3437,9.7937,2.0197,14.7667,2.8028,18.6754,2.9411,37.1789,7.5147,56.0566,8.8691,18.9545,1.3599,37.8911.1119,56.8584-.1426,9.0504-.1214,18.1024-.1212,27.1527.0035,4.5526.0627,9.1047.1567,13.6559.2814,2.3264.0637,5.2227.64,7.5042.2332,1.3444-.2398,1.7021-.9379,2.6755-1.7963,1.5639-1.3791-.7892-4.2988-2.3518-2.9208h0Z"/><path class="cls-1" d="M938.97735,346.37025c14.5929-2.4732,15.7994-21.2916,16.4387-32.9872.3203-5.8603.2711-11.7355.6661-17.5923.3577-5.3045,1.6618-10.1759,3.653-15.0943,1.8899-4.6683,4.1268-9.2393,5.4566-14.1137.8657-3.1734,1.1077-6.54.7996-9.8111-.3375-3.582-1.3714-7.2888-3.6062-10.1691-2.5155-3.242-6.5673-5.0254-10.5434-5.6584.0056.0009-.5751-.1131-.5956.031-1.4065,9.9045-2.2755,19.8809-2.5803,29.8804-.1499,4.9169-.1644,9.8381-.0443,14.7558.1228,5.0263.9419,10.0468,1.2563,15.0727.6282,10.0438.6816,20.1163,1.4453,30.1526.0768,1.0082-.0364,2.2371.4421,3.1364.3926.738.9758,1.4285,1.5427,2.0373,1.0951,1.1762,2.395,2.1343,3.805,2.8997,3.0378,1.6489,6.4317,2.5927,9.8302,3.1381,3.3799.5425,6.7993.7607,10.1749,1.3378,4.7379.8101,9.4765,1.6159,14.2145,2.4256,9.3982,1.6063,18.794,3.2278,28.175,4.9321,18.4761,3.3565,36.9028,7.0341,55.1278,11.576,18.1246,4.5169,36.0407,9.9049,53.4827,16.6072,2.1619.8307,4.3141,1.6856,6.4597,2.5574.3855.1566,1.8663.8824,2.2462.5718.3233-.2643-.9598-.7736-1.0926-.8276-17.1514-6.9687-34.7765-12.6928-52.651-17.4942-17.748-4.7675-35.728-8.6295-53.7749-12.0761-18.358-3.506-36.7906-6.6407-55.2219-9.7349-5.8999-.9905-13.3846-.2306-17.6484-5.2116-.5902-.6894-1.2345-1.4576-1.406-2.3667-.2249-1.1922-.2054-2.5024-.2894-3.7122-.1715-2.4709-.304-4.9443-.4164-7.4185-.2244-4.9405-.3683-9.8841-.5853-14.8249-.2175-4.9512-.5087-9.9013-1.0236-14.8315-.2591-2.4812-.5311-4.9068-.5852-7.4035-.0533-2.459-.0729-4.9188-.0588-7.3784.0561-9.7562.6423-19.5094,1.7567-29.2019.281-2.4436.5977-4.8828.9436-7.3181-.1986.0103-.3971.0207-.5956.031,2.775.4418,4.789,2.9047,6.0567,5.265,1.537,2.8619,2.1955,6.1436,2.3321,9.3675.3487,8.2281-3.5364,15.4547-6.5119,22.8898-1.8495,4.6216-3.1042,9.2367-3.4606,14.2132-.396,5.5304-.3752,11.0785-.6269,16.6154-.2987,6.5699-.7425,13.2778-2.5707,19.6264-2.0045,6.9606-6.1268,13.4138-13.7553,14.7066-.4136.0701,1.0313.8014,1.0926.8276.6223.2658,1.5414.6912,2.2462.5718h0Z"/><path class="cls-1" d="M735.76525,249.17675c9.1216,10.1,21.6093,15.4744,34.6977,18.3142,6.5691,1.4253,13.2441,2.3048,19.9088,3.1427,7.2909.9166,14.5819,2.1468,21.9065,2.7327,8.5914.6872,17.2169.5956,25.8252.8814,8.581.285,17.1573,1.0523,25.7474.6058,4.347-.2259,8.624-1.1564,12.9724-1.2693,4.2361-.1099,8.467.296,12.7011.3427,8.1801.0904,16.4436-1.7364,24.2833-3.9669,1.7937-.5104,3.5525-1.1579,5.3682-1.5862,1.6075-.3792,3.2444-.6088,4.8774-.8463,3.4814-.5063,7.0408-.9906,10.2875-2.4197,3.1645-1.393,5.3445-3.8014,7.3533-6.5319,1.0118-1.3753,2.0302-2.7828,3.3122-3.9233,1.2715-1.1312,2.7529-1.9841,4.1796-2.8988,1.5133-.9702,2.909-2.0514,4.0981-3.4082.588-.671-.2166-1.285-.8288-1.4477-.8272-.2197-1.9309.0067-2.5094.6667-2.2888,2.6118-5.6725,3.8421-8.1842,6.2015-2.3724,2.2286-3.865,5.1904-6.2033,7.4362-2.3406,2.248-5.4879,3.097-8.6055,3.6268-3.3598.571-6.7903.862-10.0802,1.7889-7.4544,2.1001-15.0206,4.4653-22.8026,4.9772-4.1288.2715-8.2714-.0938-12.3989-.2209-4.1561-.1279-8.1496.2084-12.2622.7439-8.3616,1.0888-16.8037.5188-25.1915.1108-8.3788-.4076-16.7695-.3616-25.1488-.7383-7.5436-.3391-14.9473-1.4662-22.4267-2.4124-6.5208-.8249-13.0563-1.5711-19.5297-2.725-12.5886-2.2441-25.0444-6.2283-34.6596-15.0139-1.2553-1.1469-2.4456-2.3601-3.5851-3.6217-.9294-1.0292-4.4049.0167-3.1022,1.459h0Z"/></g></svg>