<?xml version="1.0" encoding="UTF-8"?><svg id="_レイヤー_2" xmlns="http://www.w3.org/2000/svg" viewBox="0 0 400.7432 407.08564"><defs><style>.cls-1{fill:none;stroke:#000;stroke-linecap:round;stroke-linejoin:round;stroke-width:1.5px;}</style></defs><g id="OBJECTS"><circle class="cls-1" cx="366.30329" cy="385.61374" r="15.5512"/><circle class="cls-1" cx="366.30326" cy="385.08951" r="19.80302" transform="translate(-93.18383 652.19179) rotate(-76.60187)"/><path class="cls-1" d="M360.76809,366.07094l-1.1047-1.8729s1.3979-1.882,6.6399-1.882"/><path class="cls-1" d="M371.83849,366.07094l1.1046-1.8729s-1.3978-1.882-6.6398-1.882"/><path class="cls-1" d="M372.26349,363.62784s5.0478-2.1078,5.9328-7.6216c.8849-5.5138-1.6493-13.202-11.8264-13.202s-12.7112,7.6882-11.82629,13.202c.885,5.5138,5.88859,7.5652,5.88859,7.5652"/><path class="cls-1" d="M367.82869,347.95994c2.6175.5639,4.7934,2.8007,5.28491,5.4328"/><path class="cls-1" d="M368.06929,352.46734c.0389.1554.0777.3107.1165.466"/><path class="cls-1" d="M46.4515,406.33564c-13.28-6.9982-27.5916-17.9147-30.7258-33.5371-1.0979-5.4721.1877-11.8352,5.9027-13.995,4.7486-1.7946,10.5814-.3891,14.7065,2.3162,3.6753,2.4103,7.4614,5.7394,10.1166,9.2511"/><path class="cls-1" d="M46.4515,406.33564c13.2801-6.9982,27.673-17.9147,30.8072-33.5371,1.0979-5.4721-.1877-11.8352-5.9028-13.995-4.7485-1.7946-10.5813-.3891-14.7064,2.3162-3.6753,2.4103-7.5428,5.7394-10.198,9.2511"/><path class="cls-1" d="M30.9099,358.66464s-1.0263-17.3036,15.5416-17.3036,18.479,16.7469,18.479,16.7469"/><path class="cls-1" d="M36.3349,361.11974s-.5623-14.405,10.1166-14.405,11.6996,13.5194,11.6996,13.5194"/><path class="cls-1" d="M51.5911,382.69404c0-2.8385-2.3011-5.1395-5.1396-5.1395s-5.1395,2.301-5.1395,5.1395c0,2.1383,1.3063,3.9704,3.1639,4.7448l-1.8978,5.3915h7.7468l-1.8978-5.3915c1.8576-.7744,3.164-2.6065,3.164-4.7448Z"/><path class="cls-1" d="M21.0108,366.75744c-.8833,1.788-.7186,3.9133-.2784,5.8584,1.0677,4.7179,3.672,9.0752,7.3217,12.2499"/><path class="cls-1" d="M25.9371,372.34154c.2374.9999.6838,1.9497,1.3021,2.7706"/><path class="cls-1" d="M69.1433,380.99304c2.9109-3.3213,4.1094-8.0687,3.1239-12.3738"/><path class="cls-1" d="M68.0491,373.66184c.2503-.6481.3757-1.3443.3672-2.0391"/><path class="cls-1" d="M139.45009,386.55714s.199-11.5191,10.1603-7.6218c9.10821,3.5636-.9954,21.3348-.9954,21.3348,0,0-21.6979,1.0203-21.2037-9.6648.4941-10.6852,12.0388-4.0482,12.0388-4.0482Z"/><path class="cls-1" d="M167.1106,378.12954c10.72719-1.1247,18.09079-3.7479,23.13069-10.0615,3.523-4.4134,5.78931-13.9043.7366-18.5575-4.6199-4.2546-13.8186,1.3108-18.3785,3.6153-2.723-3.2914-5.79379-8.3691-9.577-10.4785-5.4674-3.0483-9.8459,2.8302-11.3772,7.4551-1.7573,5.3077-1.0543,11.0379,1.282,16.0594,3.6776,7.9044,13.5557,12.0334,14.18341,11.9677Z"/><path class="cls-1" d="M172.42919,405.46594c1.2313.7162,3.314.3306,4.69041.2317,1.77219-.1274,3.54609-.4243,5.19309-1.1139,4.2346-1.773,6.3867-6.1563,3.0125-10.2278-1.8539-2.2371-5.9392-.7557-7.7508.4645-.3165-1.1873-.5074-3.1677-2.2904-5.3118-3.7771-4.542-9.4082,2.0585-9.356,6.3223.0229,1.8672,4.6827,8.5771,6.5012,9.635Z"/><path class="cls-1" d="M156.87569,352.68234c-1.2606,5.4313.7092,11.4873,4.9237,15.1377"/><path class="cls-1" d="M161.27079,358.41934c-.2764,1.6434-.0066,3.3739.7571,4.8551"/><path class="cls-1" d="M147.97269,391.72344c.8621-1.5173,1.2432-3.3032,1.0755-5.0403"/><path class="cls-1" d="M171.5516,395.86284c-.16981-.8273-.23051-1.677-.18-2.52"/><path class="cls-1" d="M256.16319,404.78394c-9.2471-8.9959-15.8869-22.6234-13.8659-35.7587.3457-2.2468.9701-4.4966,2.23831-6.3832,1.26819-1.8866,3.25429-3.3784,5.51079-3.6533,2.4558-.2992,4.9137.8719,6.6985,2.5851,4.7136,4.5244,6.6345,11.9636,6.3931,18.3036.7815-4.6268,3.989-8.8764,8.3949-10.491,8.5376-3.1287,15.9061,4.1639,14.6295,12.6839-.7213,4.8137-3.8077,9.0178-7.58979,12.0816-6.28,5.0872-14.65891,8.5352-22.40941,10.632"/><path class="cls-1" d="M226.39339,359.64764c2.0989,1.5085,4.3707,2.7764,6.7565,3.7711"/><path class="cls-1" d="M261.51479,342.91284c-.1001,2.3533.0905,4.7189.5661,7.0259"/><path class="cls-1" d="M289.36879,365.62404c1.1716-1.8025,2.3432-3.6049,3.51481-5.4074"/><path class="cls-1" d="M296.4006,388.59104c2.32529.3539,4.67519.5458,7.02709.5737"/><path class="cls-1" d="M252.04989,388.93014c-3.9399-6.3993-5.2199-14.3818-3.4784-21.6921"/><path class="cls-1" d="M252.5516,378.22284l-.18-3.42"/><path class="cls-1" d="M360.3386,285.53404l-23.17181-13.2735c-2.0785-1.1907-4.6538.3772-4.5504,2.7704l1.3438,31.092c.1022,2.366,2.119,4.1917,4.48341,4.0588l57.53889-3.2344c2.3709-.1332,4.1724-2.1838,3.9992-4.5521l-2.1907-29.9568c-.1718-2.3504-2.8362-3.6208-4.7706-2.2746l-21.7957,15.1675"/><path class="cls-1" d="M336.75249,307.94654l25.0628-23.8157c1.9629-1.8653,4.9806-2.0556,7.16231-.4516l28.21779,20.7455"/><line class="cls-1" x1="391.54699" y1="267.11124" x2="396.27409" y2="270.03014"/><path class="cls-1" d="M353.71929,256.07134l4.26131-3.52c2.55379-2.1096,6.16769-2.358,8.98609-.6177l4.7957,2.9432"/><line class="cls-1" x1="333.41779" y1="272.84134" x2="339.4026" y2="267.89764"/><polyline class="cls-1" points="339.64309 273.67894 338.95149 257.04904 390.78819 253.61734 391.7676 271.03564"/><path class="cls-1" d="M365.06199,277.52204s3.39061-2.4292,7.1332-5.9641c2.5387-2.3978,2.3546-6.9767-.5597-8.9006-3.3828-2.233-7.15289,2.4718-7.15289,2.4718,0,0-4.37351-4.3418-7.30611-1.9732-2.7167,2.1942-3.03089,6.7198-.2193,8.7909,4.2932,3.1625,8.1048,5.5752,8.1048,5.5752"/><path class="cls-1" d="M374.37749,249.09044s2.8918-.4514,6.3533-1.4845c2.348-.7008,3.6787-3.6282,2.46-5.7541-1.4145-2.4675-5.2627-.71-5.2627-.71,0,0-1.3694-4.1018-3.955-3.5437-2.3952.517-4.0213,3.2536-2.91349,5.4393,1.69139,3.3375,3.31789,6.053,3.31789,6.053"/><path class="cls-1" d="M363.58909,234.66814s1.7509-1.5256,3.6384-3.6824c1.2804-1.4631.9365-3.9913-.7804-4.9035-1.9929-1.059-3.8339,1.7478-3.8339,1.7478,0,0-2.6533-2.1754-4.15359-.7076-1.38971,1.3596-1.32481,3.8845.34289,4.8838,2.5466,1.526,4.7866,2.6619,4.7866,2.6619"/><path class="cls-1" d="M339.52739,295.95904c-.3593-3.42-.7186-6.8401-1.078-10.2602"/><path class="cls-1" d="M342.5516,292.18284v-3.42"/><path class="cls-1" d="M394.1696,291.10584c-.23441-3.3004-.46891-6.6008-.70341-9.9012"/><path class="cls-1" d="M390.4316,285.70284v-2.7"/><path class="cls-1" d="M344.14439,271.12464c-.10579-1.621-.2116-3.2419-.3173-4.8628"/><path class="cls-1" d="M263.27119,285.75614c-5.2168-2.7205-11.7594-6.3151-16.0872-9.9956-3.6241-3.0819-8.1001-8.1134-8.8421-14.5812-.4625-4.0302.871-9.2829,6-11.9383,1.8345-.9496,4.0371-1.4516,6.3699-1.4516,2.451,0,4.9705.5311,7.2859,1.5355,2.7068,1.1743,4.9391,2.825,6.9128,4.5053,1.9737-1.6803,4.20611-3.331,6.9129-4.5053,2.3157-1.0046,4.83521-1.5355,7.2859-1.5355,2.3328,0,4.5354.502,6.3696,1.4516,5.129,2.655,6.4628,7.9077,6.00071,11.9381-.742,6.4677-5.21841,11.4993-8.84291,14.5815-4.3274,3.6804-10.87,7.275-16.0868,9.9955l-1.6394.8549-1.6393-.8549Z"/><path class="cls-1" d="M257.78899,292.56084c-8.1252-4.3108-13.5169-7.7374-17.4825-11.1105-6.9298-5.8921-11.1954-13.0474-12.0102-20.1467-.934-8.1417,2.90931-15.489,10.0298-19.1751,3.1187-1.6153,6.6566-2.4356,10.5116-2.4356,3.7663,0,7.6132.8055,11.1252,2.3292,1.8126.7865,3.4522,1.7067,4.9476,2.6884,1.4954-.9817,3.135-1.9019,4.9476-2.6884,3.512-1.5237,7.3589-2.3292,11.1252-2.3292,3.8537,0,7.3911.8196,10.5134,2.4364,7.1178,3.6851,10.9611,11.0316,10.0285,19.1721-.8148,7.1015-5.0804,14.2566-12.01159,20.1501-3.96471,3.3721-9.35691,6.7985-17.48161,11.1093l-7.1215,3.7782-7.1215-3.7782Z"/><path class="cls-1" d="M264.9106,277.96884c-3.89571-2.0667-8.35821-4.6075-11.272-7.0858-3.40941-2.8991-5.48451-6.2192-5.84361-9.3486-.2082-1.8145.29161-4.3182,2.3857-5.4022.7294-.3778,1.6198-.5693,2.646-.5693,1.2351,0,2.5785.2878,3.7826.8101,2.3946,1.0389,4.3961,2.8526,6.3318,4.6066l1.96951,1.7847,1.96939-1.7847c1.9357-1.754,3.9372-3.5677,6.3318-4.6066,1.2041-.5223,2.54781-.8101,3.7827-.8101,1.02611,0,1.9165.1915,2.6462.5693,2.0938,1.0839,2.5936,3.5877,2.3857,5.4024-.3591,3.1291-2.4343,6.4491-5.8436,9.3483-2.9141,2.4784-7.3765,5.0192-11.27219,7.0859Z"/><path class="cls-1" d="M253.11439,262.83234c1.4108,3.0725,3.9209,5.6264,6.9686,7.09"/><path class="cls-1" d="M258.6716,264.28284l1.26,1.44"/><path class="cls-1" d="M150.26989,273.49324s-1.6419.9241-.6335,2.1219"/><path class="cls-1" d="M149.63639,275.61514s-1.8263,2.4848,2.6145,2.4848"/><path class="cls-1" d="M150.60519,273.68984c1.0188.5943,2.2726.5943,3.2915,0,6.98491-4.0744,33.3774-20.8115,23.5718-35.8651-7.627-11.709-16.03489-6.791-20.95889-1.9566-2.36971,2.3265-6.14761,2.3265-8.51731,0-4.9241-4.8344-13.332-9.7524-20.959,1.9566-9.8055,15.0536,16.587,31.7907,23.5719,35.8651Z"/><path class="cls-1" d="M154.23199,273.49324s2.0889,1.0609.6334,2.1219"/><path class="cls-1" d="M154.86539,275.61514s1.8264,2.4848-2.6145,2.4848c0,0-8.4587,16.7155,6.9785,25.5972,15.43721,8.8817,19.4551-19.878,37.2184-4.8638"/><path class="cls-1" d="M147.99229,235.86814s3.7828,3.9391,9.3339,4.3356"/><path class="cls-1" d="M150.95439,294.36364s-8.2195-2.0329-5.8405-5.2049c2.379-3.1721,4.9512,1.3677,4.9512,1.3677,0,0,1.2871-4.3591,4.2476-2.4933,2.9606,1.8657-3.3583,6.3305-3.3583,6.3305Z"/><path class="cls-1" d="M159.22939,303.69714c-.6344.4229-3.0729,1.7405-4.44079.5662-1.92881-1.6559,1.60749-2.4834,1.60749-2.4834,0,0,.0181-3.3695,1.7231-2.2196,1.7049,1.1498,1.1102,4.1368,1.1102,4.1368Z"/><path class="cls-1" d="M156.17189,266.17834c3.07471-2.3987,6.3978-4.4662,9.455-6.8871,3.0572-2.421,5.889-5.2595,7.6014-8.7631"/><path class="cls-1" d="M162.71189,255.62374c1.3285-1.3717,2.6571-2.7434,3.9856-4.1152"/><path class="cls-1" d="M157.15149,251.86274c1.0029-.7459,1.8153-1.7456,2.3402-2.8799"/><line class="cls-1" x1="32.9717" y1="284.26714" x2="63.8831" y2="243.69684"/><polyline class="cls-1" points="64.7341 245.37554 61.4582 238.91404 73.7166 233.58624"/><polyline class="cls-1" points="35.2339 284.09544 27.2971 284.69784 19.2678 295.23614 27.4049 294.37074"/><line class="cls-1" x1="35.6687" y1="286.32204" x2="66.5801" y2="245.75174"/><polyline class="cls-1" points="64.7341 245.37554 71.8349 246.82024 73.7166 233.58624"/><polyline class="cls-1" points="35.2339 284.09544 36.7595 291.90744 28.7302 302.44574 27.4049 294.37074"/><path class="cls-1" d="M66.9716,241.96284l.72-1.26"/><path class="cls-1" d="M29.7116,291.46284c1.1861-1.1797,2.2177-2.5146,3.06-3.96"/><polyline class="cls-1" points="46.4922 169.04224 22.2243 169.04224 22.2243 178.24734 46.4922 178.24734"/><path class="cls-1" d="M24.7348,178.24734v16.9456s-.2092,4.6025,21.7574,4.6025"/><path class="cls-1" d="M32.004,198.78134v3.3078s4.3417,1.472,14.4882,1.472"/><path class="cls-1" d="M26.9663,169.04224s6.2762-8.5774,19.5259-8.5774"/><polyline class="cls-1" points="46.4922 169.04224 70.76 169.04224 70.76 178.24734 46.4922 178.24734"/><path class="cls-1" d="M68.2496,178.24734v16.9456s.2092,4.6025-21.7574,4.6025"/><path class="cls-1" d="M60.9804,198.78134v3.3078s-4.3417,1.472-14.4882,1.472"/><path class="cls-1" d="M66.018,169.04224s-6.2761-8.5774-19.5258-8.5774"/><path class="cls-1" d="M46.4922,160.46484c0-11.5063-8.8564-20.3065-5.5091-30.9623"/><path class="cls-1" d="M42.2732,114.89294c-.616.3953-1.139.9299-1.5458,1.5459-1.3599-.5464-3.6611-1.3135-5.6834-1.2902-1.5342-1.569-2.1618-3.5681.1045-5.8346,2.2665-2.2663,4.2656-1.6386,5.8346-.1045-.0233,2.0223.7438,4.3237,1.2901,5.6834Z"/><path class="cls-1" d="M55.2323,129.39784c-2.2664,2.2663-4.2654,1.6388-5.8345.1047.0232-2.0223-.7439-4.3237-1.2901-5.6836.616-.4066,1.1506-.9297,1.5458-1.5457,1.3598.5464,3.6611,1.3133,5.6834,1.2901,1.5342,1.5691,2.1618,3.5682-.1046,5.8345Z"/><path class="cls-1" d="M42.2732,123.81894c-.5463,1.3599-1.3134,3.6613-1.2901,5.6836-1.569,1.5341-3.5681,2.1616-5.8346-.1047-2.2663-2.2663-1.6387-4.2654-.1045-5.8345,2.0223.0232,4.3235-.7437,5.6834-1.2901.3951.616.9298,1.1507,1.5458,1.5457Z"/><path class="cls-1" d="M55.3369,115.14864c-2.034-.0233-4.3468.7555-5.695,1.2902-.3952-.616-.9182-1.1391-1.5342-1.5459.5462-1.3597,1.3133-3.6611,1.2901-5.6834,1.5691-1.5341,3.5681-2.1618,5.8345.1045,2.2664,2.2665,1.6388,4.2656.1046,5.8346Z"/><path class="cls-1" d="M39.9603,120.44854c.1395.6624.3952,1.2785.7671,1.8247-1.3599.5464-3.6611,1.3133-5.6834,1.2901-2.1967-.0349-4.0563-1.011-4.0563-4.2072s1.8596-4.1726,4.0563-4.2075c2.0223-.0233,4.3235.7438,5.6834,1.2902-.3603.5462-.616,1.1623-.7555,1.8247-.0813.3486-.1162.7206-.1162,1.0926,0,.3717.0349.732.1046,1.0924Z"/><path class="cls-1" d="M59.3932,119.35614c0,3.1962-1.8596,4.1723-4.0563,4.2072-2.0223.0232-4.3236-.7437-5.6834-1.2901.3603-.5462.616-1.1623.7671-1.8247.0697-.3604.1046-.7207.1046-1.0924,0-.372-.0349-.744-.1163-1.0926-.1394-.6624-.4067-1.2785-.767-1.8247,1.3482-.5347,3.661-1.3135,5.695-1.2902,2.1967.0349,4.0563,1.0113,4.0563,4.2075Z"/><path class="cls-1" d="M49.3978,129.50254c-.0348,2.1965-1.0112,4.0563-4.2074,4.0563s-4.1724-1.8598-4.2073-4.0563c-.0233-2.0223.7438-4.3237,1.2901-5.6836.5463.372,1.1622.6277,1.8247.7673.3603.0697.7206.1044,1.0925.1044.372,0,.7323-.0347,1.0926-.1044.6624-.1396,1.2785-.4069,1.8247-.7673.5462,1.3599,1.3133,3.6613,1.2901,5.6836Z"/><path class="cls-1" d="M49.3978,109.20954c.0232,2.0223-.7439,4.3237-1.2901,5.6834-.5462-.3604-1.1623-.6277-1.8247-.767-.3603-.0698-.7206-.1047-1.0926-.1047-.3719,0-.7322.0349-1.0925.1047-.6625.1393-1.2784.4066-1.8247.767-.5463-1.3597-1.3134-3.6611-1.2901-5.6834.0349-2.1967,1.0111-4.0563,4.2073-4.0563s4.1726,1.8596,4.2074,4.0563Z"/><path class="cls-1" d="M50.5252,119.35614c0,.3717-.0349.732-.1046,1.0924-.1511.6624-.4068,1.2785-.7671,1.8247-.3952.616-.9298,1.1391-1.5458,1.5457-.5462.3604-1.1623.6277-1.8247.7673-.3603.0697-.7206.1044-1.0926.1044-.3719,0-.7322-.0347-1.0925-.1044-.6625-.1396-1.2784-.3953-1.8247-.7673-.616-.395-1.1507-.9297-1.5458-1.5457-.3719-.5462-.6276-1.1623-.7671-1.8247-.0697-.3604-.1046-.7207-.1046-1.0924,0-.372.0349-.744.1162-1.0926.1395-.6624.3952-1.2785.7555-1.8247.4068-.616.9298-1.1506,1.5458-1.5459.5463-.3604,1.1622-.6277,1.8247-.767.3603-.0698.7206-.1047,1.0925-.1047.372,0,.7323.0349,1.0926.1047.6624.1393,1.2785.4066,1.8247.767.616.4068,1.139.9299,1.5342,1.5459.3603.5462.6276,1.1623.767,1.8247.0814.3486.1163.7206.1163,1.0926Z"/><path class="cls-1" d="M45.0409,151.87804s1.521-10.9391,13.7247-13.6587c0,0,.4447,11.7666-13.7247,13.6587Z"/><path class="cls-1" d="M28.8116,189.76284v-8.46"/><path class="cls-1" d="M34.0316,188.68284v-3.24"/><path class="cls-1" d="M38.1716,188.68284v-.54"/><path class="cls-1" d="M64.2649,191.92264c.0806-2.5807.0254-5.1655-.1652-7.7404"/><path class="cls-1" d="M58.5116,189.40284c-.0476-1.0225.0129-2.0501.18-3.06"/><path class="cls-1" d="M45.7222,151.41404c1.5097-1.6109,3.0194-3.2218,4.5291-4.8327"/><path class="cls-1" d="M163.56129,131.69584c-.4803,1.1787-5.6118.2018-11.4616-2.182s-10.2026-5.2719-9.7223-6.4506c.4803-1.1786,5.6119-.2016,11.4617,2.1822s10.2026,5.2717,9.7222,6.4504Z"/><path class="cls-1" d="M142.37739,123.06324s-15.3584,31.808-2.7112,36.9618"/><path class="cls-1" d="M138.39069,159.50524l-10.2929,25.2586c-.77919,1.912-2.1856,3.5617-4.2475,4.6519-2.1874,1.1565-5.38669,1.9008-9.6372.5384-.7882-.2526-1.5519-.0514-1.768.4789h0c-.234.5743.25151,1.315,1.0844,1.6544l11.2097,4.568"/><path class="cls-1" d="M140.80429,157.23214c-7.8518-3.1997,1.464-25.457,1.464-25.457,0,0,2.0765,2.4438,7.0827,4.4838"/><path class="cls-1" d="M142.26829,131.77514s.6208-1.2218,8.1564,1.849"/><path class="cls-1" d="M163.56129,131.69584s-11.2479,33.483-23.8951,28.3292"/><path class="cls-1" d="M140.94169,160.54484l-10.293,25.2585c-.77909,1.912-.9263,4.0748-.2137,6.2956.756,2.3561,2.5239,5.1245,6.516,7.121.7403.3703,1.1458,1.0479.9297,1.5782h0c-.23409.5743-1.099.7647-1.9319.4253l-11.2096-4.568"/><path class="cls-1" d="M140.80429,157.23214c7.8518,3.1996,16.746-19.2296,16.746-19.2296,0,0-3.1931.2964-8.1993-1.7436"/><path class="cls-1" d="M157.55029,138.00254s.41-1.3076-7.1256-4.3784"/><path class="cls-1" d="M188.30679,108.09204c.3175,1.2325-4.384,3.5093-10.5011,5.0852-6.117,1.5758-11.3335,1.8541-11.651.6216-.3175-1.2326,4.3841-3.5092,10.5012-5.0851s11.3333-1.8543,11.6509-.6217Z"/><path class="cls-1" d="M166.15469,113.79884s6.6454,34.691,19.8705,31.2839"/><path class="cls-1" d="M184.69139,145.42634l6.8045,26.4129c.5151,1.9994.3703,4.1623-.6344,6.2672-1.06589,2.2331-3.1898,4.7387-7.414,6.1805-.7833.2674-1.2763.8844-1.1334,1.4389h0c.1547.6006.9862.9055,1.8571.6812l11.722-3.0199"/><path class="cls-1" d="M185.27279,142.16224c-8.2106,2.1152-14.0093-21.3059-14.0093-21.3059,0,0,3.1243.7229,8.3593-.6258"/><path class="cls-1" d="M171.26349,120.85634s-.2305-1.3509,7.6495-3.381"/><path class="cls-1" d="M188.30679,108.09204s10.9435,33.5837-2.2816,36.9907"/><path class="cls-1" d="M187.35899,144.73914l6.8045,26.4129c.515,1.9993,1.6869,3.8231,3.5836,5.1806,2.0121,1.4401,5.0823,2.6076,9.4774,1.8289.815-.1444,1.5447.1577,1.6875.7121v.0001c.1547.6005-.4259,1.2693-1.2968,1.4936l-11.722,3.0198"/><path class="cls-1" d="M185.27279,142.16224c8.2106-2.1152,1.971-25.4228,1.971-25.4228,0,0-2.3861,2.1425-7.621,3.4911"/><path class="cls-1" d="M187.24379,116.73944s-.4508-1.2941-8.3308.7359"/><path class="cls-1" d="M141.80389,152.15544c-.7757-2.943-.6847-6.1089.2588-9.0025"/><path class="cls-1" d="M145.0916,147.46284l.72-2.34"/><path class="cls-1" d="M177.72929,125.31394c.5284,3.4058,1.9367,6.6713,4.051,9.3932"/><path class="cls-1" d="M181.81079,126.04294c.1039.8377.4165,1.6486.9016,2.3394"/><path class="cls-1" d="M269.82219,160.70344c-6.1659-.8644-12.2862-4.8669-15.9975-9.8131-1.653-2.2031-2.7994-4.8736-2.7718-7.6278.0196-1.9451.68071-3.9518,2.1196-5.2608,2.3227-2.113,5.5738-1.1955,7.95611.303,2.617,1.6462,4.59949,4.2447,5.84559,7.0469-1.0123-3.4031,1.2782-7.9685,4.3103-9.59,4.1382-2.2129,8.328.1841,9.2606,4.6216.4267,2.0302.14751,4.1571-.4644,6.1394-1.732,5.6103-5.9232,10.3731-10.2585,14.1808"/><path class="cls-1" d="M293.6786,162.19424c1.54369-3.6207.39219-7.7061-2.54591-10.0428,1.1286-.851,2.0604-1.9939,2.6545-3.3874,1.5515-3.6388.3185-7.7586-2.7354-10.0056.5711-.642,1.0541-1.3809,1.4097-2.215,1.7634-4.1358-.1598-8.918-4.2956-10.6813-1.671-.7125-3.445-.8141-5.08529-.4202-.22541-2.0794-1.53471-3.9799-3.59561-4.8586-1.0166-.4334-2.0852-.5571-3.107-.4243-.8011-2.3178-2.5318-4.3049-4.9653-5.3424-3.6529-1.5575-7.7572-.5068-10.2544,2.3093-.975-1.4371-2.35369-2.6246-4.0699-3.3563-4.7616-2.0302-10.2676.184-12.29779,4.9457-.95841,2.2478-.96091,4.6578-.20621,6.7933-1.8206.4462-3.4182,1.7073-4.21,3.5644-.91379,2.1432-.519,4.5149.8243,6.2271-3.172.6626-5.9812,2.8079-7.3485,6.0147-2.2219,5.2114.2015,11.2374,5.4129,13.4593.1059.0452.2141.0767.3207.118-.0778.1544-.159.3061-.2278.4674-1.7543,4.1145.1591,8.8721,4.27361,10.6264,2.00149.8534,4.153.833,6.03929.1194.5822,4.4387,3.4259,8.4637,7.8421,10.3466,5.1889,2.2123,11.0105.8139,14.6634-3.0678.1074.0526.2113.1097.3227.1572,3.4833,1.4852,7.5112-.1346,8.9963-3.618.4791-1.1237.6308-2.3033.5053-3.4366.1508.075.2981.1548.455.2217,4.3463,1.8531,9.3718-.168,11.22491-4.5142Z"/><path class="cls-1" d="M296.36989,180.32804c-1.1465,2.6891-4.256,3.9396-6.9451,2.7931-2.68919-1.1466-3.9397-4.256-2.7931-6.9452,1.1465-2.6891,4.256-3.9396,6.9451-2.7931,2.6891,1.1466,3.9397,4.256,2.7931,6.9452Z"/><path class="cls-1" d="M290.79619,193.96484c-.6175,1.4482-2.2921,2.1217-3.7404,1.5042-1.44819-.6175-2.1217-2.2921-1.50419-3.7403.61749-1.4483,2.29209-2.1218,3.74029-1.5043,1.4483.6175,2.1218,2.2921,1.5043,3.7404Z"/><path class="cls-1" d="M255.68689,143.86734c.1896,4.376,3.3409,8.4704,7.5226,9.7738"/><path class="cls-1" d="M259.35209,145.32464c.6834,1.2413,1.629,2.3375,2.7567,3.1956"/><path class="cls-1" d="M345.52699,118.53044h6.5412c1.077,0,1.9501.8731,1.9501,1.9501v21.7858c0,1.077.8731,1.9501,1.9501,1.9501h4.1397c1.077,0,1.9501.8731,1.9501,1.9501v3.6176c0,1.077-.8731,1.9501-1.9501,1.9501h-14.5811c-1.077,0-1.9501-.8731-1.9501-1.9501v-29.3036c0-1.077.8731-1.9501,1.9501-1.9501Z"/><path class="cls-1" d="M355.53609,190.18394h3.8842c.9252,0,1.7271-.6407,1.9312-1.543l6.6165-29.2438c.2803-1.2385-.6613-2.417-1.9312-2.417h-4.626c-.9626,0-1.7858.6924-1.9507,1.6407l-3.4897,20.063c-.0847.487-.7839.487-.8686,0l-3.4896-20.063c-.165-.9483-.9881-1.6407-1.9508-1.6407h-4.6089c-1.2753,0-2.218,1.188-1.9283,2.4299l6.8225,29.2438c.2091.8961,1.008,1.5301,1.9282,1.5301h3.6612"/><path class="cls-1" d="M389.03599,173.58204v-.3545c0-.8028-.6508-1.4536-1.4536-1.4536h-5.065c-.80279,0-1.4536-.6508-1.4536-1.4536v-5.1472c0-.8028.65081-1.4536,1.4536-1.4536h5.065c.8028,0,1.4536-.6508,1.4536-1.4536v-3.8322c0-.8028-.6508-1.4536-1.4536-1.4536h-13.0372c-.8028,0-1.45359.6508-1.45359,1.4536v30.2967c0,.8027.65079,1.4535,1.45359,1.4535h13.0372c.8028,0,1.4536-.6508,1.4536-1.4535v-3.8323c0-.8028-.6508-1.4535-1.4536-1.4535h-5.065c-.80279,0-1.4536-.6508-1.4536-1.4536v-2.5172c0-.8028.65081-1.4536,1.4536-1.4536h5.065c.8028,0,1.4536-.6508,1.4536-1.4536v-2.9846"/><ellipse class="cls-1" cx="377.08239" cy="135.13234" rx="12.4526" ry="16.6019"/><path class="cls-1" d="M377.08239,132.26614s-2.4136-3.849-5.535-1.0346c-2.6747,2.4116.0395,7.9186,5.535,9.9794"/><path class="cls-1" d="M377.08239,132.26614s2.4136-3.849,5.535-1.0346c2.6747,2.4116-.0395,7.9186-5.535,9.9794"/><path class="cls-1" d="M350.53119,137.20034c.08441-4.0189.10741-8.0391.0692-12.0587"/><path class="cls-1" d="M350.63539,142.42534c-.0644-.4193-.12879-.8387-.1932-1.258"/><path class="cls-1" d="M360.02209,180.94494c.981-4.8079,1.9621-9.6159,2.9431-14.4238"/><path class="cls-1" d="M363.7916,162.40284l.18-1.44"/><path class="cls-1" d="M377.62969,171.94374c-.0597-1.5-.1194-3.0001-.179-4.5001"/><path class="cls-1" d="M377.6516,163.30284v-1.26"/><path class="cls-1" d="M369.35849,140.08264c.5823,1.613,1.176,3.2482,2.1678,4.6471.9918,1.399,2.4487,2.5567,4.146,2.8017"/><path class="cls-1" d="M384.17369,26.72524c0,2.5069-6.6726,4.5443-14.9053,4.5443s-14.9053-2.0374-14.9053-4.5443c0-1.8404,3.5976-3.4309,8.7629-4.1428.3408,2.4236,2.0374,4.1428,6.1424,4.1428s5.8016-1.7192,6.1423-4.1428c5.1654.7119,8.763,2.3024,8.763,4.1428Z"/><line class="cls-1" x1="354.36319" y1="26.72524" x2="354.36319" y2="74.89464"/><path class="cls-1" d="M384.17369,26.72524v48.1694c0,2.5098-6.6733,4.5443-14.9053,4.5443s-14.9052-2.0345-14.9052-4.5443"/><path class="cls-1" d="M354.36319,58.86854s12.8603,14.1781,29.8105,14.1781"/><path class="cls-1" d="M354.36319,51.29464s12.8603,14.1782,29.8105,14.1782"/><path class="cls-1" d="M354.36319,38.41924s12.8603,14.1781,29.8105,14.1781"/><path class="cls-1" d="M354.36319,30.84544s12.8603,14.1781,29.8105,14.1781"/><path class="cls-1" d="M375.41069,22.58244c-.3407,2.4236-2.0373,4.1428-6.1423,4.1428s-5.8016-1.7192-6.1424-4.1428c-.8255-5.8319,6.1424-15.7611,6.1424-15.7611,0,0,6.968,9.9292,6.1423,15.7611Z"/><path class="cls-1" d="M343.17819,36.63694s-6.4062-3.0004-6.81159,2.5949c-.40551,5.5953,11.43379,4.2167,11.43379,4.2167,0,0,3.2437-7.7307.6487-10.1093-2.5949-2.3787-4.8654-.4325-5.2709,3.2977Z"/><path class="cls-1" d="M391.52619,17.26074s-1.3719-5.255-5.0572-2.3099c-3.6852,2.9451,3.1568,8.7342,3.1568,8.7342,0,0,6.4481-2.5799,6.6159-5.3676.16791-2.7877-2.1903-2.9451-4.7155-1.0567Z"/><path class="cls-1" d="M357.51399,2.42794s-2.2156-3.3298-4.0752-.3954,4.2927,5.3243,4.2927,5.3243c0,0,3.8709-3.3428,3.3192-5.324-.5517-1.9813-2.2314-1.5253-3.5367.3951Z"/><path class="cls-1" d="M359.79369,67.57754c2.5306,2.7597,5.8137,4.8224,9.3981,5.9045"/><path class="cls-1" d="M360.3716,72.40284c.778.6292,1.62459,1.1734,2.52,1.62"/><path class="cls-1" d="M371.5086,37.88174c1.80379,1.0657,3.68059,2.0077,5.613,2.8173"/><path class="cls-1" d="M376.5716,37.12284l1.8.72"/><path class="cls-1" d="M368.11399,24.16124c-1.0778-1.6315-1.1439-3.8757-.1642-5.5678"/><path class="cls-1" d="M369.0116,14.80284l.36-1.26"/><path class="cls-1" d="M294.77319,39.52904v33.8344c0,2.4812-13.37,4.4926-29.8627,4.4926s-29.8626-2.0114-29.8626-4.4926v-33.8336"/><path class="cls-1" d="M245.2316,18.38394c4.18789-.4315,9.05259-.7361,14.32339-.863-.1776.3638-.2368.8967-.1268,1.7343-7.0983,1.2606-11.5062.6176-14.19659-.8713Z"/><path class="cls-1" d="M271.43349,19.39074c.33011-.643.3808-1.269.18611-1.836,5.21169.1608,9.99179.4907,14.06129.9476-2.6566,1.506-7.0645,2.1575-14.2474.8884Z"/><path class="cls-1" d="M299.32739,22.63944c0,2.8597-15.4063,5.1779-34.4169,5.1779s-34.41689-2.3182-34.41689-5.1779c0-1.2437,2.92729-2.3943,7.809-3.2826,2.868,4.2218,9.94939,6.5907,23.22379,2.9697h.0084c1.63281.9052,3.9679.9813,6.1677.0761,13.3506,3.6379,20.6179,1.2099,23.6553-3.0712h.0085c4.9747.8969,7.9611,2.0474,7.9611,3.308Z"/><path class="cls-1" d="M299.32749,22.63944v14.3151c0,2.8596-15.409,5.1777-34.417,5.1777s-34.41689-2.3181-34.41689-5.1777v-14.3151"/><path class="cls-1" d="M271.43349,19.39074c-.4061.8122-1.2521,1.6582-2.5888,2.445-.3724.22-.753.4061-1.1422.5669-2.1998.9052-4.53489.8291-6.1677-.0761h-.0084c-1.066-.5839-1.8274-1.523-2.0474-2.7751-.0169-.1016-.0339-.203-.0508-.2962-.11-.8376-.0508-1.3705.1268-1.7343.1017-.203.2369-.3469.4062-.4653.6683-.4823,1.7936-.4738,2.7919-1.3876,1.1676-1.066,3.5534-.7952,5.1694-.4484.8206.1777,1.4382.3808,1.6074.4484.4908.1946.9138.44,1.2436.7108.4146.3468.7023.7444.84611,1.1759.19469.567.144,1.193-.18611,1.836Z"/><path class="cls-1" d="M261.52639,22.32654c-13.2744,3.621-20.35579,1.2521-23.22379-2.9697-1.66671-2.4367-1.91211-5.5077-1.12531-8.3843,1.2014-2.2335,2.8089-3.3504,4.6278-3.6972,0,0-2.6734,7.7412,3.42651,11.1086,2.69039,1.4889,7.09829,2.1319,14.19659.8713.0169.0932.0339.1946.0508.2962.22,1.2521.9814,2.1912,2.0474,2.7751Z"/><path class="cls-1" d="M237.17729,10.97254c.7784-2.868,2.572-5.55,5.017-7.259,9.13731-6.3961,20.5588,11.9546,20.5588,11.9546"/><path class="cls-1" d="M241.80519,7.27534c7.39441-1.4467,18.156,9.7803,18.156,9.7803"/><path class="cls-1" d="M291.36629,19.33144h-.0085c-3.0374,4.2811-10.3047,6.7091-23.6553,3.0712.3892-.1608.7698-.3469,1.1422-.5669,1.3367-.7868,2.1827-1.6328,2.5888-2.445,7.1829,1.2691,11.5908.6176,14.2474-.8884,5.93071-3.3418,3.2065-10.9139,3.2065-10.9139,1.5059.5245,2.8511,1.6414,3.9086,3.5957v.0084c.6261,2.8004.2539,5.753-1.4297,8.1389Z"/><path class="cls-1" d="M267.92249,15.21974s10.8124-17.9023,19.9496-11.5062c2.4958,1.7513,4.2641,4.5263,4.924,7.4705"/><path class="cls-1" d="M270.7736,16.37874s10.897-11.3031,18.11379-8.7903"/><line class="cls-1" x1="235.04789" y1="53.50304" x2="247.54939" y2="41.42564"/><line class="cls-1" x1="235.04789" y1="63.65554" x2="257.28669" y2="42.00444"/><line class="cls-1" x1="238.30689" y1="75.40434" x2="270.29139" y2="42.13224"/><line class="cls-1" x1="250.5916" y1="77.30674" x2="282.78449" y2="41.38014"/><line class="cls-1" x1="267.70249" y1="77.83634" x2="294.77319" y2="46.09174"/><line class="cls-1" x1="281.76529" y1="77.07234" x2="294.77319" y2="60.10214"/><path class="cls-1" d="M234.0226,34.75104c5.70929,1.9655,11.77309,2.8962,17.809,2.7333"/><path class="cls-1" d="M240.67499,32.06334c1.7398.3007,3.4797.6015,5.21961.9022"/><path class="cls-1" d="M160.66099,71.00874c-2.7186-1.2775-5.5462-2.9912-8.3348-5.0087,9.1449-6.5744,17.69-19.2013,8.79441-23.984-10.57831-5.6865-13.30461,5.9824-13.30461,5.9824,0,0-2.72639-11.6689-13.3046-5.9824-.8413.4517-1.519.9737-2.0642,1.5501-4.1285-8.4361-4.0974-16.5139,4.0973-20.915,19.1779-10.2978,24.1165,10.8431,24.1165,10.8431,0,0,2.0097-8.6153,8.4595-12.1674,2.8977-1.5968,6.699-2.1733,11.6142-.4751,1.2697.444,2.6173,1.036,4.0428,1.7994,18.7884,10.0953-5.3281,39.5087-24.1165,48.3576Z"/><path class="cls-1" d="M152.32619,66.00004c-1.5112,1.0828-3.038,2.002-4.5102,2.6953-9.5267-4.4868-21.5382-18.5548-15.3688-25.1292.5452-.5764,1.2229-1.0984,2.0642-1.5501,10.57821-5.6865,13.3046,5.9824,13.3046,5.9824,0,0,2.7263-11.6689,13.30461-5.9824,8.89559,4.7827.35049,17.4096-8.79441,23.984Z"/><path class="cls-1" d="M180.73469,20.85174c-4.9152-1.6982-8.7165-1.1217-11.6142.4751-3.8325-3.8948-6.2083-9.0359-2.0876-11.2481,6.0992-3.2716,7.6649,3.443,7.6649,3.443,0,0,1.5735-6.7146,7.6649-3.443,3.9572,2.1266,1.9318,6.9405-1.628,10.773Z"/><path class="cls-1" d="M171.35709,55.82414c6.99551-5.452,11.8738-13.5528,13.4209-22.286"/><path class="cls-1" d="M178.0316,41.80284l1.26-3.96"/><path class="cls-1" d="M137.53689,51.70124c.9369,3.1012,2.92771,5.8737,5.5668,7.7527"/><path class="cls-1" d="M144.03309,53.67334c.3683.8287.98751,1.5439,1.7549,2.0269"/><path class="cls-1" d="M75.5737,25.08964c-.8621-2.0732-2.1155-4.0166-3.8105-5.5633-7.7313-7.0548-21.8862-1.3966-24.4932,7.1222.1293-.4226-.6563-1.5021-.855-1.8523-.8459-1.4903-1.981-2.862-3.3427-4.0313-5.1108-4.3888-13.7377-6.3061-19.5776-1.8845-3.0662,2.3216-4.7981,5.7479-5.4839,9.2244-1.517,7.6893.6297,15.2335,6.0667,21.437,5.8301,6.6519,14.3781,11.1627,23.1925,14.2813.8645.3057,4.7034-1.824,5.5675-2.2057,1.9232-.8495,3.8019-1.7757,5.6176-2.7875,3.6108-2.0121,6.9927-4.3642,9.8855-7.1192,6.0417-5.754,9.4033-13.1233,8.6426-20.9464-.0943-.9697-.263-1.9628-.5111-2.9526"/><line class="cls-1" x1="50.0762" y1="36.52814" x2="81.4794" y2="22.52574"/><polyline class="cls-1" points="81.4364 24.02804 81.6018 18.24524 92.2344 19.18144"/><line class="cls-1" x1="52.4291" y1="38.44374" x2="82.5882" y2="24.99594"/><polyline class="cls-1" points="81.4364 24.02804 85.8677 27.74934 92.2344 19.18144"/><line class="cls-1" x1="14.5479" y1="52.47994" x2="23.2619" y2="48.56864"/><polyline class="cls-1" points="16.2006 53.22204 10.4022 50.61834 .75 54.95074 6.7893 57.44634"/><line class="cls-1" x1="15.6567" y1="54.95014" x2="25.136" y2="50.69534"/><polyline class="cls-1" points="16.2006 53.22204 14.2922 59.28504 4.6401 63.61744 6.7893 57.44634"/><path class="cls-1" d="M45.7901,34.64024s6.9466,1.5787,8.9989,7.6569"/><path class="cls-1" d="M23.1175,36.09124c3.931,9.2666,11.6746,16.8469,21.0229,20.5796"/><path class="cls-1" d="M33.6716,42.34284l1.98,1.98"/><path class="cls-1" d="M47.1718,37.84244c1.1937.6771,2.1935,1.6916,2.8531,2.895"/></g></svg>