<?xml version="1.0" encoding="UTF-8"?><svg id="_レイヤー_2" xmlns="http://www.w3.org/2000/svg" viewBox="0 0 1825.70117 1799.5978"><defs><style>.cls-1{stroke-width:0px;}</style></defs><g id="Layer_2"><path class="cls-1" d="M874.22087,88.9951c-1.0454-1.2837-2.9351-1.4775-4.2207-.4317-1.2847,1.0464-1.4781,2.9361-.4317,4.2208.7535.9252,1.5391,1.8603,2.3584,2.8061.5933.6851,1.4287,1.0361,2.2691,1.0361.6958,0,1.395-.2407,1.9624-.7324,1.2524-1.0845,1.3886-2.979.3037-4.2314-.7783-.899-1.5249-1.7881-2.2412-2.6675Z"/><path class="cls-1" d="M903.69257,116.3027c-7.6524-5.6982-14.4537-11.4756-20.2149-17.1704-1.1777-1.1655-3.0781-1.1548-4.2422.0244-1.165,1.1782-1.1543,3.0776.0244,4.2422,5.9585,5.8906,12.9732,11.8516,20.8487,17.7163.5381.4004,1.1665.5938,1.7895.5938.9156,0,1.8198-.4175,2.4087-1.2081.9893-1.3291.7144-3.2084-.6142-4.1982Z"/><path class="cls-1" d="M968.66177,72.1079c-1.4756-.7451-3.2832-.1509-4.0293,1.3296-.8213,1.6313-1.7412,3.2929-2.7344,4.9389-.8564,1.4185-.4004,3.2622,1.0186,4.1182.4844.293,1.0195.4321,1.5469.4321,1.0166,0,2.0078-.5166,2.5712-1.4507,1.0723-1.7758,2.0664-3.5722,2.9571-5.3393.7451-1.48.1494-3.2837-1.3301-4.0288Z"/><path class="cls-1" d="M973.16857,57.4092c-1.6142-.3516-3.2168.6733-3.5693,2.2929-.5625,2.586-1.3506,5.2149-2.3428,7.8145-.5908,1.5478.1856,3.2817,1.7334,3.872.3516.1343.7129.1983,1.0684.1983,1.209,0,2.3476-.7354,2.8037-1.9317,1.0986-2.8789,1.9736-5.7983,2.6006-8.6767.3525-1.6192-.6748-3.2173-2.294-3.5693Z"/><path class="cls-1" d="M944.18037,20.5517c1.7763-.3662,3.7695-.5517,5.9218-.5517,17.8086,0,20.6826,7.9258,20.6826,26.8857,0,1.2525,0,2.6719-.0771,4.2959-.0781,1.6548,1.2002,3.0601,2.8555,3.1382.0478.0024.0957.0034.1435.0034,1.5918,0,2.919-1.2515,2.9951-2.8584.083-1.7656.083-3.3257.083-4.5791,0-20.8276-4.3662-32.8857-26.6826-32.8857-2.5586,0-4.958.227-7.1328.6748-1.6221.3344-2.667,1.9209-2.333,3.5434.334,1.6226,1.918,2.666,3.544,2.3335Z"/><path class="cls-1" d="M927.81017,31.0664c.4551.247.9444.3637,1.4278.3637,1.0654,0,2.0966-.5683,2.6396-1.5698,1.543-2.8437,3.3858-4.9858,5.6348-6.5498,1.3603-.9458,1.6963-2.8154.75-4.1758-.9453-1.3603-2.8145-1.6967-4.1758-.75-3.0352,2.1109-5.4824,4.9287-7.4824,8.6143-.7901,1.4561-.25,3.2773,1.206,4.0674Z"/><path class="cls-1" d="M977.18037,141.7246c-29.8128-12.23-50.6426,7.0045-59.8887,18.5884v-18.1714c70.4804-45.023,70.4931-81.4766,70.4931-95.2559,0-13.1323,0-43.8857-37.6826-43.8857-22.2314,0-31.749,13.7202-35.8105,24.8257-4.0611-11.1055-13.5786-24.8257-35.8096-24.8257-37.68262,0-37.68262,30.7534-37.68262,43.8857,0,13.7793.0127,50.2329,70.49222,95.2559v18.1723c-9.2466-11.5838-30.0782-30.8195-59.88822-18.5893-1.4868.6098-2.229,2.2827-1.6831,3.7944.1445.3989,3.644,9.8706,13.48392,17.9273,6.7363,5.5156,17.5122,11.125,33.479,11.125,4.4542,0,9.321-.4463,14.6084-1.4438v9.3725h-36.48c-1.6567,0-3,1.3432-3,3v16.623c0,1.6568,1.3433,3,3,3h5.3115v44.377c0,1.6567,1.3433,3,3,3h62.3374c1.6573,0,3-1.3433,3-3v-44.377h5.3125c1.6573,0,3-1.3432,3-3v-16.623c0-1.6568-1.3427-3-3-3h-36.4814v-9.3725c5.2879.9977,10.1532,1.4438,14.6084,1.4438,15.9648,0,26.7441-5.6099,33.4795-11.125,9.8398-8.0567,13.3398-17.5284,13.4834-17.9273.5459-1.5117-.1963-3.1846-1.6826-3.7944ZM856.59385,146.1797c28.15043-9.6167,46.50643,12.3017,52.60653,21.2407-34.8941,6.1914-48.71543-13.732-52.60653-21.2407ZM942.46057,246.5h-56.3374v-41.377h56.3374v41.377ZM950.77307,199.123h-72.9614v-10.623h72.9614v10.623ZM846.79945,46.8857c0-13.2402,0-37.8857,31.68262-37.8857,31.3047,0,32.7642,31.5659,32.811,32.9043.0508,1.6176,1.3755,2.9004,2.9937,2.9033h.0049c1.6162,0,2.9424-1.2827,2.998-2.898.0469-1.3437,1.5078-32.9096,32.8125-32.9096,31.6826,0,31.6826,24.6455,31.6826,37.8857,0,12.8652-.0039,46.8755-67.4931,90.0591-67.48832-43.1836-67.49222-77.1939-67.49222-90.0591ZM919.41467,167.4258c2.4571-3.5489,6.8936-9.1866,13.1055-14.0669,12.1816-9.5723,25.4473-11.981,39.4697-7.1797-3.8945,7.5141-17.7158,27.4253-52.5752,21.2466Z"/><path class="cls-1" d="M1410.33947,91.6582c3.6797-11.1607.2403-22.1245-10.2236-32.5874-14.0889-14.0894-28.7988-11.7935-38.6289-7.4165,4.3769-9.8306,6.6719-24.541-7.417-38.6294-10.4619-10.4634-21.4268-13.9019-32.5869-10.2227-8.9951,2.9654-16.0342,10.0049-20.2393,14.211-8.9472,8.9462-32.7119,32.7114-15.6709,108.288.2549,1.1299,1.1367,2.0122,2.2666,2.2671,11.579,2.6109,21.9312,4.259,31.208,5.1541v31.5873c-7.5539-16.1752-21.6516-28.7024-38.8769-34.139v-23.5218c0-1.6567-1.3428-3-3-3h-50.8526V3c0-1.6568-1.3427-3-3-3h-23.5605c-1.6572,0-3,1.3432-3,3v127.2094c0,1.6568,1.3428,3,3,3h34.1003c-21.8891,10.2225-37.1003,32.4352-37.1003,58.1451,0,35.3701,28.7754,64.1455,64.1455,64.1455,25.7095,0,47.9221-15.2112,58.1445-37.1004v34.1004c0,1.6567,1.3428,3,3,3h77.4131c1.6573,0,3-1.3433,3-3v-23.5606c0-1.6567-1.3427-3-3-3h-50.8525v-19.8047h28.414c1.6573,0,3-1.3432,3-3v-23.5605c0-1.6567-1.3427-3-3-3h-28.414v-19.8042h50.8525c1.6573,0,3-1.3433,3-3v-23.5606c0-1.6567-1.3427-3-3-3h-25.9941c12.2331-4.9018,18.8201-11.4705,22.6611-15.3115,4.2061-4.206,11.2461-11.2456,14.2119-20.2397ZM1202.75747,127.2094V6h17.5605v100.6489c0,1.6567,1.3428,3,3,3h50.8526v17.5605h-71.4131ZM1260.90297,249.5c-32.0615,0-58.1455-26.084-58.1455-58.1455s26.084-58.1451,58.1455-58.1451,58.1445,26.084,58.1445,58.1451-26.0839,58.1455-58.1445,58.1455ZM1396.46057,133.2094v17.5606h-50.8525c-1.6572,0-3,1.3433-3,3v25.8042c0,1.6567,1.3428,3,3,3h28.414v17.5605h-28.414c-1.6572,0-3,1.3433-3,3v25.8047c0,1.6568,1.3428,3,3,3h50.8525v17.5606h-71.4131v-116.2904c3.7422.2422,7.2981.358,10.6709.3578,3.5237-.0002,6.8454-.1274,9.9876-.358h50.7546ZM1345.51077,127.2094h-20.3348c-9.8926-.656-21.2029-2.2437-34.1617-5.082-15.5234-70.874,6.2364-92.6362,14.4717-100.8721,4.0762-4.0761,10.2363-10.2363,17.876-12.7548,8.9531-2.9532,17.6133-.086,26.4658,8.7666,19.9356,19.9355.7568,40.9887-.0664,41.8711-1.1074,1.1796-1.0771,3.0229.0645,4.1694,1.1416,1.145,2.9873,1.1787,4.1728.0752.8858-.8267,21.9395-20.0059,41.875-.0698v.0004c8.8525,8.8521,11.7207,17.5093,8.7676,26.4659-2.5186,7.6391-8.6797,13.7993-12.7559,17.8759-5.5761,5.5762-17.3571,17.3472-46.3746,19.5542Z"/><path class="cls-1" d="M1260.90297,150.77c-22.3789,0-40.585,18.206-40.585,40.5845s18.2061,40.5849,40.585,40.5849,40.584-18.2065,40.584-40.5849-18.2061-40.5845-40.584-40.5845ZM1260.90297,225.9394c-19.0703,0-34.585-15.5146-34.585-34.5849s15.5147-34.5845,34.585-34.5845c19.0693,0,34.584,15.5146,34.584,34.5845s-15.5147,34.5849-34.584,34.5849Z"/><path class="cls-1" d="M1805.89617,129.8554c-.4883-25.0327-11.0303-45.6601-30.4844-59.6518-27.502-19.7793-43.3106-39.8198-51.8486-53.4893l.9502-3.9531c.3212-1.3384-.3086-2.7241-1.5293-3.3608l-15.5274-8.1031c-.8174-.4272-1.7881-.4536-2.6299-.0713-.8408.3829-1.4589,1.1314-1.6748,2.0298l-42.0086,174.705c-10.5043-2.3291-17.7974,1.7734-22.3683,7.1051-1.6768-6.9453-6.4258-14.0474-17.2285-16.6445-9.5567-2.2964-16.9903-.4063-22.0967,5.6191-4.0488,4.7798-5.5635,11.0752-6.4678,14.8364-1.9141,7.96-6.998,29.1031,27.6572,64.7564.5743.5913,1.3545.9092,2.1514.9092.3232,0,.6494-.0523.9658-.1597,47.0772-16.0015,52.1592-37.145,54.0723-45.104.5305-2.2055,1.2478-5.206,1.4889-8.5545l34.8187-144.8068c7.4082,12.6215,19.7412,25.4106,36.7783,38.1191,43.4824,32.4321,43.9961,68.1753,43.9961,68.5249-.0068,1.4536,1.0293,2.7031,2.458,2.9653,1.4326.2603,2.8418-.5376,3.3516-1.8989.2266-.605,5.542-15.0322,5.1758-33.7725ZM1671.99477,207.8759c-1.6777,6.983-6.0967,25.3711-48.3721,40.2051-30.9091-32.4301-26.4863-50.8183-24.8066-57.8012.8301-3.4522,2.085-8.6695,5.2119-12.3609,2.5147-2.9682,5.8731-4.4404,10.1807-4.4404,1.8086,0,3.7851.2598,5.9355.7768,16.3203,3.9239,13.1494,20.6665,13.0078,21.3687-.3281,1.583.6582,3.1372,2.2285,3.52,1.5704.3814,3.1641-.5527,3.5997-2.1094.1962-.6977,4.9843-17.0522,21.3027-13.1279.6689.1607,1.3506.3535,2.1465.6074,2.489.7933,4.539,1.821,6.166,3.1052,3.2537,2.5684,4.8143,6.1628,4.8069,10.9607-.0008.4796-.0171.9713-.0491,1.4751v.001c-.1865,2.9478-.8633,5.7632-1.3584,7.8198ZM1798.46837,148.0659c-4.0781-14.3516-14.958-37.2022-43.9658-58.8389-19.5176-14.5581-32.5185-29.0527-38.6406-43.0815-.5156-1.1812-1.7275-1.9043-3.0127-1.7881-1.2842.1128-2.3525,1.0337-2.6543,2.2871l-33.833,140.7085c-.0635-.0982-.137-.1898-.2024-.2867-.1174-.1742-.2399-.3451-.3636-.5152-.1867-.2564-.3805-.5079-.5815-.7548-.1342-.165-.2696-.3292-.4102-.49-.2135-.2441-.4379-.4809-.6662-.7151-.1445-.1484-.2861-.2986-.4365-.443-.2587-.248-.5316-.486-.8074-.7221-.1362-.1166-.2655-.2378-.4059-.3514-.4222-.3419-.8603-.6725-1.3203-.9876-.0411-.0283-.0868-.0533-.1283-.0813-.4238-.2862-.8628-.5615-1.3181-.8249-.17-.0983-.3505-.189-.5249-.2842-.3396-.1854-.682-.3686-1.0381-.5419-.2091-.1017-.426-.1974-.6406-.2948-.2136-.097-.4182-.2007-.6375-.2934l41.2071-171.3721,10.0449,5.2417-.6953,2.8916c-.1856.7734-.0567,1.5894.3584,2.2676,8.664,14.1513,25.0849,35.4023,54.1123,56.2793,18.0625,12.9902,27.4775,31.3945,27.9853,54.7016.1495,6.8462-.5322,13.1416-1.4248,18.2896Z"/><path class="cls-1" d="M989.11387,514.4785c-.1074-1.4326-1.2168-2.5879-2.6435-2.7544-17.6846-2.061-31.6279,1.6772-41.4404,11.1186-15.1656,14.5921-15.3924,37.9082-15.1809,43.8929l-15.9598,15.9597v-71.8658c20.9988-1.5424,37.6162-19.1083,37.6162-40.4941v-31.8296c0-1.1531-.0678-2.2834-.1894-3.3952v-42.9026c0-1.5259-1.1455-2.8086-2.6621-2.981-.9417-.1083-23.0746-2.417-46.697,11.0866-14.9352-2.537-27.7047-2.4351-28.7234-2.425-1.6416.0215-2.9615,1.358-2.9615,3v69.4468c0,21.3859,16.6177,38.9519,37.6167,40.4941v90.1378l-9.1535-9.1536c.2114-5.9846-.0155-29.3008-15.1814-43.8928-9.8115-9.4414-23.75593-13.1817-41.44002-11.1187-1.4272.1665-2.5356,1.3218-2.644,2.7544-.0688.9131-1.519,22.5498,13.145,38.9541,9.5433,10.6765,23.59193,16.5228,41.74733,17.4144l13.5266,13.5265v32.5713c0,1.6568,1.3433,3,3,3,1.6568,0,3.0005-1.3432,3.0005-3v-33.5098c.017-.1845.017-.3682,0-.5526v-16.7808l20.3328-20.3328c18.1553-.8917,32.2046-6.738,41.7473-17.4143,14.6641-16.4043,13.2139-38.041,13.1445-38.9541ZM857.12957,574.5586c-10.24712-11.4278-11.59962-26.2461-11.709-32.0581,14.54877-1.2105,25.9653,2.0537,33.9502,9.7216,10.1933,9.789,12.6982,24.7229,13.2441,33.4712l-26.8125-26.8125c-1.1709-1.1718-3.07133-1.1718-4.24223,0-1.1718,1.1714-1.1718,3.0708,0,4.2422l26.18963,26.1896c-13.1251-1.7698-23.4076-6.7104-30.6202-14.754ZM945.31607,395.0498v25.4606c-.8552-1.089-1.7922-2.1454-2.8232-3.1633-7.7452-7.6464-19.4993-12.2902-31.1404-15.1114,14.8917-6.7675,28.4189-7.311,33.9636-7.1859ZM938.28187,421.6216c4.8604,4.8007,7.2236,10.3237,7.2236,16.8842v5.8385c-.9035-1.1734-1.9069-2.307-3.0126-3.3985-17.4335-17.2113-55.1719-19.2249-66.2208-19.4379v-17.5846c10.5416.2559,46.3936,2.2739,62.0098,17.6983ZM876.27207,470.3354v-42.8149c10.5325.2521,46.389,2.2712,62.0098,17.6997,4.8604,4.8008,7.2236,10.3237,7.2236,16.8843v8.2309c0,19.0879-15.5293,34.6167-34.6167,34.6167s-34.6167-15.5288-34.6167-34.6167ZM971.45477,549.4804c-7.2129,8.0439-17.4949,12.9844-30.6205,14.7543l26.1898-26.1898c1.1719-1.1714,1.1719-3.0708,0-4.2422-1.1719-1.1719-3.0703-1.1719-4.2422,0l-26.8226,26.8226c.5346-8.7304,3.025-23.6389,13.2308-33.4588,6.9053-6.6441,16.3779-9.9903,28.2324-9.9903,1.8555,0,3.7696.0821,5.7412.2461-.1103,5.816-1.4638,20.6324-11.7089,32.0581Z"/><path class="cls-1" d="M1360.19517,547.1422c.3052-7.3546-.1071-11.8201-.1682-12.422-.1552-1.5318-1.4443-2.6973-2.9843-2.6973h-58.8575c-7.4431-7.7349-10.8761-15.2989-10.1826-22.4956,1.0059-10.4404,10.4873-16.9482,10.5147-16.9682,52.7597-33.3443,52.7597-60.5166,52.7597-70.7457,0-8.9682,0-32.7905-28.2705-32.7905-14.5049,0-22.3174,8.0332-26.0918,16.4087-3.7744-8.3755-11.5859-16.4087-26.0918-16.4087-28.2705,0-28.2705,23.8223-28.2705,32.7905,0,7.3682,0,24.6236,22.0205,46.7818,1.167,1.1748,3.0674,1.1802,4.2422.0132,1.1758-1.168,1.1817-3.0674.0137-4.2427-20.2764-20.4033-20.2764-35.9243-20.2764-42.5523,0-12.9619,1.7207-26.7905,22.2705-26.7905,22.002,0,23.0596,22.2466,23.0938,23.1865.0508,1.6167,1.374,2.8985,2.9912,2.9024h.0068c1.6143,0,2.9395-1.2813,2.9981-2.895.0342-.9473,1.0918-23.1939,23.0937-23.1939,20.5498,0,22.2705,13.8286,22.2705,26.7905,0,9.3252,0,34.0958-50.0263,65.7134-.4854.3233-11.8985,8.0752-13.2139,21.3589-.7585,7.6615,1.9851,15.4223,8.155,23.1372h-71.3581c-1.5401,0-2.8291,1.1655-2.9844,2.6973-.2168,2.1382-4.8672,53.0166,33.9561,109.0122.5605.8081,1.4824,1.2905,2.4658,1.2905h71.334c.9834,0,1.9052-.4824,2.4658-1.2905,6.8381-9.8629,12.3226-19.5652,16.7251-28.8722,4.5721,2.0652,9.5615,3.1627,14.6186,3.1627,19.5752,0,35.5-15.9253,35.5-35.5,0-18.638-14.4404-33.9563-32.7195-35.3807ZM1322.02697,639.0229h-68.1777c-31.6807-46.4643-32.54-89.937-32.1777-101h132.5332c.3623,11.0684-.4991,54.5391-32.1778,101ZM1357.41467,612.0229c-4.2009,0-8.3432-.91-12.1386-2.6227,9.9033-22.7238,13.4127-42.6991,14.5419-56.2711,15.1458,1.2282,27.0967,13.9376,27.0967,29.3938,0,16.2661-13.2334,29.5-29.5,29.5Z"/><path class="cls-1" d="M649.08995,506.9131c-.0859-.2793-2.2915-7.2051-18.5556-38.9927-5.1734-10.1099-11.6026-15.5391-19.1094-16.1372-6.62338-.5305-12.682,2.9088-17.1383,6.5533,1.1865-11.7328-2.5544-25.07-22.92908-33.1183-19.17872-7.5761-32.15332.773-39.60642,8.9756.164-11.082-3.6041-26.0449-22.7813-33.6201-20.2791-8.0121-32.1096-.9357-39.2721,8.3766-.78218-5.6635-2.8641-12.2163-8.0077-16.3156-5.8901-4.6948-14.2949-5.125-24.97848-1.2783-33.59771,12.0908-39.94141,15.6397-40.19481,15.7852-.4737.271-.8643.666-1.1299,1.1421-.1675.3003-4.063,7.4209-.957,13.6054,1.6621,3.3096,4.8632,5.5747,9.5371,6.7574-.5215,2.9565-.6743,7.3505,1.6303,11.3315,2.2129,3.8232,6.1036,6.3735,11.5835,7.6006.459,3.0337,1.8379,8.124,5.9805,11.5132,2.709,2.2158,6.0762,3.3291,10.0508,3.3291,1.5654,0,3.2251-.1729,4.9756-.5191,8.7306-1.7254,13.804-4.8061,17.4043-9.2967.2524,17.4208,6.942,42.766,32.0178,78.1843-27.18818,6.4368-41.387,32.863-41.387,56.9943,0,31.7055,25.7945,57.5,57.5,57.5,16.6265,0,32.4317-7.1944,43.36382-19.7378,2.72168-3.1231,5.14888-6.7574,7.41938-11.1099,4.779-9.1616,17.9077-28.8369,39.3682-21.1797-1.2554.5639-2.4838,1.5742-3.5231,3.2725-4.1124,6.72,1.2964,10.0299,3.8096,11.5679,2.5131,1.538,9.5063,5.8175,26.49692-2.5586-.27382-18.9411-7.26692-23.2206-9.78012-24.7585-2.5132-1.538-7.92188-4.8479-12.0343,1.8721-1.2969,2.1194-1.5067,4.0137-1.1879,5.6151-27.6603-11.388-44.03868,14.9043-48.4686,23.3938-2.0493,3.9287-4.2158,7.1807-6.6235,9.9429-9.792,11.2358-23.9488,17.6802-38.8404,17.6802-28.3969,0-51.5-23.1031-51.5-51.5,0-22.9146,14.0772-48.1231,40.982-51.9668.0221-.0032.04182-.0121.0637-.0158.0237-.0039.0473-.0022.071-.0067,45.7178-8.6697,69.082-23.2299,81.5686-36.2616-.4931,5.8057,1.083,11.5701,6.3372,18.8798,3.686,5.1274,8.0229,7.8921,12.8906,8.2173.3159.0214.6294.0317.9395.0317,4.9248-.0005,9.0288-2.561,11.2944-4.3496,4.83982,2.8496,9.4229,3.647,13.6514,2.3677,4.4028-1.3311,7.2939-4.6431,8.9336-7.1578,4.2207,2.3311,8.1064,2.8638,11.5805,1.584,6.4942-2.3925,8.5161-10.2534,8.5992-10.5869.1313-.5293.1162-1.0845-.0445-1.6059ZM600.70675,593.4467c.0369-.0552.0689-.1148.1025-.173.4296.3667.7264.5626.7264.5626,0,0-.3085-.1744-.8289-.3896ZM437.02457,456.0161c-4.33791.8579-7.71581.3369-10.03961-1.5484-2.5938-2.1052-3.517-5.5384-3.84739-7.6337l15.27569-7.3633c1.4921-.7198,2.1191-2.5127,1.3999-4.0054-.7193-1.4932-2.5127-2.1177-4.0054-1.3999l-16.2857,7.8502c-4.3136-.7753-7.2556-2.4186-8.7153-4.9147-1.73919-2.9738-1.1523-6.6309-.6865-8.4526l24.8198-9.9756c1.5376-.6181,2.2827-2.3652,1.6651-3.9023-.6187-1.5376-2.3658-2.2832-3.9024-1.6651l-25.3921,10.2056c-2.8846-.4681-6.2636-1.5409-7.5102-3.9966-1.1895-2.3437-.2705-5.5508.4638-7.2529,2.4566-1.1909,11.481-5.2437,38.4786-14.9595,8.5878-3.0908,15.0458-2.9843,19.1972.3164,6.7336,5.3536,6.3148,17.7715,6.072,21.0854-1.343,2.8039-2.3819,5.4313-3.2146,7.5391-.8645,2.1883-1.987,5.0357-2.9696,8.606-5.057,13.2632-7.3142,18.8012-20.80328,21.4673ZM494.08657,529.54c-35.72672-49.5198-34.53672-78.2923-30.491-93.2767.00618-.0162.01218-.0318.01828-.048.39072-1.0239.795-2.085,1.2198-3.1831.1664-.4307.217-.8746.1841-1.3063.4821-1.3561.9519-2.5464,1.35982-3.579.77308-1.957,1.66188-4.2027,2.737-6.526.39758-.4294.67278-.9754.764-1.5938,4.08328-8.2337,10.68978-16.8509,23.05518-16.8509,3.978,0,8.5547.8931,13.832,2.9776,27.0937,10.7026,17.5669,38.5376,17.1499,39.7124-.5474,1.5244.2148,3.2085,1.7217,3.8037,1.5054.5952,3.2134-.1138,3.8559-1.6006.4971-1.1479,12.4659-28.0112,39.6602-17.271,22.2135,8.7749,20.8953,24.4537,17.1846,36.1921-.025.0792-.0573.1565-.07548.2369-.85182,2.6597-1.81932,5.1131-2.655,7.2287-.44392,1.1237-.96352,2.4356-1.60962,3.8964-.1897.2306-.3582.4831-.4759.7745-.2462.6108-.4881,1.2056-.7269,1.7913-6.76358,13.5784-24.7584,36.4894-86.70858,48.6218ZM638.44205,513.4829c-2.5884.9413-5.7878-.5848-8.2137-2.2145l-11.5627-24.8041c-.7007-1.5024-2.4844-2.1504-3.9868-1.4516-1.5015.7002-2.1514,2.4848-1.4517,3.9868l11.302,24.2446c-.9032,1.643-2.9662,4.7009-6.2448,5.6924-2.7775.8402-6.0607.0322-9.7543-2.3591l-6.5241-16.8601c-.5981-1.5455-2.334-2.3111-3.8803-1.7154-1.5454.5982-2.3135,2.3355-1.7154,3.8804l6.119,15.8135c-1.67068,1.3001-4.6819,3.1702-7.9935,2.9477-2.9956-.2002-5.8276-2.1289-8.4184-5.7329-8.1211-11.2978-5.8394-16.8764-.3267-30.355.1368-.3346.2776-.6795.4175-1.0221,1.3202-2.6747,2.2448-5.0126,2.9805-6.8748.8017-2.0298,1.793-4.5421,2.7008-7.3725,2.8777-3.7531,11.1048-12.161,19.0589-11.5221,5.2915.4214,10.084,4.7583,14.24422,12.8897,13.08388,25.5713,16.89638,34.6894,17.86758,37.2148-.6298,1.7525-2.1504,4.7168-4.6181,5.6143Z"/><path class="cls-1" d="M210.46157,84.0996c0-14.689,0-49.0874-42.09521-49.0874-25.5073,0-36.0361,16.1689-40.3662,28.7397-4.3301-12.5708-14.8589-28.7397-40.3667-28.7397-42.0952,0-42.0952,34.3984-42.0952,49.0874,0,13.001,0,47.5356,55.6757,90.5381,1.3121,1.0132,3.1958.7715,4.208-.5401,1.0132-1.3115.771-3.1953-.54-4.208-53.3437-41.2016-53.3437-73.5952-53.3437-85.79,0-15.0581,0-43.0874,36.0952-43.0874,35.667,0,37.3154,35.9355,37.36811,37.4604.05079,1.6197,1.37849,2.9058,2.99859,2.9058s2.9477-1.2861,2.9985-2.9058c.00291-.0937.3525-9.5219,5.1904-18.9023,6.3511-12.3145,17.1773-18.5581,32.1773-18.5581,36.09521,0,36.09521,28.0293,36.09521,43.0874,0,14.0449,0,51.352-71.39111,98.6709-3.8037,2.5215-8.2134,3.8545-12.752,3.8545H48.22447l-11.219-26.0493c-.4741-1.1006-1.5571-1.8135-2.7553-1.8135H3.00017c-1.0093,0-1.9512.5078-2.5059,1.3506-.5552.8432-.6489,1.9091-.2495,2.8359l11.489,26.6763L.24477,216.3012c-.3994.9268-.3057,1.9927.2495,2.836.5547.8428,1.4966,1.3506,2.5059,1.3506h31.25c1.1982,0,2.2812-.7129,2.7553-1.8135l11.219-26.0493h72.094c5.7212,0,11.2774-1.6783,16.0669-4.8535,74.07621-49.0982,74.07621-88.7461,74.07621-103.6719ZM32.27607,164.7622l9.4155,21.8628h-24.7173l-9.4155-21.8628h24.7173ZM32.27607,214.4878H7.55877l9.4155-21.8628h24.7173l-9.4155,21.8628Z"/><path class="cls-1" d="M255.53626,188.0224c-9.2905-14.7002-17.2681-16.4004-22.46-16.4004-7.7641,0-11.7011,3.4927-11.7011,10.3814,0,1.795.3619,3.3237.9615,4.6216h-64.3365c-1.6568,0-3,1.3432-3,3,0,1.6567,1.3432,3,3,3h64.3363c-.5994,1.2978-.9613,2.8262-.9613,4.6211,0,6.8886,3.937,10.3813,11.7011,10.3813,5.1919,0,13.1695-1.7002,22.46-16.3994.6187-.979.6187-2.2271,0-3.2056ZM233.07626,201.6274c-4.0205,0-5.7011-.6089-5.7011-4.3813,0-4.0738,3.62841-4.5689,4.7153-4.6226,1.61911-.0508,2.9058-1.3784,2.9058-2.9985s-1.2862-2.9473-2.9053-2.9986c-.7876-.0249-4.7158-.3642-4.7158-4.623,0-3.7725,1.6806-4.3814,5.7011-4.3814,2.3057,0,8.273-.0009,16.3438,12.003-8.0708,12.0034-14.0381,12.0024-16.3438,12.0024Z"/><path class="cls-1" d="M242.21986,444.0991v-.0005c-12.541-12.541-25.6216-10.8525-34.5776-7.0547,3.7968-8.957,5.4858-22.0366-7.05569-34.5786-22.28171-22.2812-41.09031-3.4736-48.17041,3.6064-8.1201,8.1197-29.69,29.688-14.2461,98.1773.2549,1.1294,1.1372,2.0117,2.2666,2.2661,17.252,3.8906,31.52391,5.4321,43.3564,5.4321,35.1426,0,48.7461-13.603,54.8204-19.6777,7.0805-7.0801,25.8886-25.8882,3.6064-48.1704ZM234.37076,488.0273c-7.4087,7.4087-26.9683,26.9741-90.7593,13.0469-13.9282-63.7896,5.6377-83.3506,13.0469-90.7598,7.5654-7.5649,21.6465-21.6445,39.6855-3.6064,17.8233,17.8237.6695,36.6694-.0654,37.4585-1.10889,1.1811-1.0801,3.0293.0659,4.1748,1.1441,1.145,2.9927,1.1753,4.1748.0659.7905-.7412,19.5596-17.9648,37.458-.0659,18.0396,18.04,3.9585,32.1211-3.6064,39.686Z"/><path class="cls-1" d="M154.07307,520.2719c-.0299-.1019-.0534-.205-.0943-.3039-.0424-.1022-.1004-.195-.1533-.2911-.0412-.0749-.07389-.1529-.122-.2248-.21989-.3293-.5026-.6121-.8318-.832-.0736-.0491-.1533-.0829-.23-.1248-.0945-.0519-.1855-.1089-.2859-.1505-.0998-.0414-.204-.0652-.3069-.0953-.0846-.0249-.1655-.0576-.2531-.075-.1939-.0386-.3906-.0593-.5876-.0593h-84.1763l49.42771-49.4277c1.17189-1.1714,1.17189-3.0708,0-4.2422l-24.67621-24.6763c-1.1709-1.1719-3.0713-1.1719-4.2422,0l-34.6371,34.6371c1.6451-7.6464,3.978-18.3533,5.765-26.5121.2046-.9341-.0483-1.9097-.6811-2.6269-.6324-.7168-1.5723-1.0913-2.521-1.003l-27.2744,2.4795c-1.0181.0928-1.9185.6968-2.3902,1.6035-.4717.9068-.4492,1.9913.0596,2.8775l13.9436,24.2978-24.2976-13.9433c-.8867-.5088-1.9702-.5318-2.8775-.0596-.9067.4717-1.5107,1.3721-1.6035,2.3901l-2.4795,27.274c-.0864.9521.2862,1.8886,1.003,2.521.5537.4882,1.2612.7505,1.9848.7505.2139,0,.4287-.023.6421-.0694,8.1588-1.787,18.8657-4.1199,26.5121-5.765l-34.6395,34.6395c-1.1719,1.1714-1.1719,3.0708,0,4.2422l24.6762,24.6763c.4021.4024.8927.6563,1.4078.7823v86.2289c0,1.6568,1.3432,3,3,3h118.0742c1.6567,0,3-1.3432,3-3v-118.0747c0-.197-.0207-.3936-.0593-.5875-.0176-.0885-.0506-.1703-.0758-.2558ZM148.20817,575.2807l-60.6367,60.6368c-.08489.0847-.1502.1806-.2227.2724h-46.9726l107.832-107.8325v46.9233ZM36.13397,590.0442c.041-.0369.0874-.0642.1269-.1038l65.8252-65.8252h41.8799l-107.832,107.8325v-41.9035ZM93.60167,524.1152l-57.4677,57.4678v-32.5698l24.8979-24.898h32.5698ZM51.93327,450.6103c-.7637,3.4942-1.9282,8.8301-3.0864,14.1695-.8033,3.7006-1.6036,7.4023-2.2657,10.4946l-13.187-22.979,18.5391-1.6851ZM14.89367,487.6499l1.6851-18.5386,22.979,13.1865c-3.0923.6621-6.794,1.4624-10.4946,2.2656-5.3394,1.1583-10.6753,2.3228-14.1695,3.0865ZM10.41367,525.3813l79.2486-79.2485,20.4336,20.4336-79.2486,79.2485-20.4336-20.4336ZM95.78337,636.1899l52.4248-52.4248v52.4248h-52.4248Z"/><path class="cls-1" d="M584.72276,5.5c-33.28018,0-49.6264,18.1494-57.479,33.375-2.768,5.3672-4.6889,10.7099-6.021,15.4858-1.332-4.7759-3.2529-10.1186-6.021-15.4858-7.8525-15.2256-24.1987-33.375-57.479-33.375-64.5,0-64.5,52.9077-64.5,75.5,0,11.8867,0,34.0127,15.9893,63.4326,19.4043,35.7036,56.5508,71.0654,110.4082,105.1035.4892.3091,1.0459.4639,1.6025.4639.5567,0,1.1133-.1548,1.6026-.4639,53.8574-34.0381,91.0039-69.3999,110.40822-105.1035,15.98918-29.4199,15.98918-51.5459,15.98918-63.4326,0-22.5923,0-75.5-64.5-75.5ZM509.77796,41.4497c7.8428,15.0962,8.4414,30.4936,8.4463,30.6445.0508,1.6187,1.3769,2.9028,2.9956,2.9043h.0029c1.6177,0,2.9444-1.2842,2.9986-2.9014.0048-.1538.6035-15.5512,8.4463-30.6474,3.9664-7.6355,8.9987-13.8188,15.0605-18.5462v64.2969c-6.1791,5.2318-10.9835,10.322-13.47558,13.1062-1.54752-.8321-3.31472-1.3066-5.19142-1.3066h-13.333c-2.5115,0-4.8218.8553-6.6755,2.2774-2.0005-2.2912-6.7854-7.5442-13.2029-13.1082V23.8155c5.55782,4.6021,10.2115,10.4796,13.9282,17.6342ZM598.42005,117.7212c.2969,2.2783,1.501,4.9165,2.89552,7.9712,3.25488,7.1311,7.13628,15.6564,2.16868,23.4973-5.1164-6.2144-20.1056-16.7364-63.4231-19.0475v-9.1768c4.0223-1.6921,14.42242-5.7346,24.6968-6.9874,1.6445-.2007,2.8154-1.6963,2.6147-3.3413-.2002-1.6445-1.6909-2.8164-3.3413-2.6148-9.4446,1.1517-18.7487,4.3939-23.9702,6.4584v-4.4803c0-2.0058-.5483-3.8819-1.49-5.5028,6.893-7.6589,35.3626-37.1513,55.7268-26.11,16.22762,8.7988,11.35262,19.5737,7.0513,29.0805-1.8506,4.0899-3.312,7.3204-2.9292,10.2535ZM538.50836,138.6059c.4601-.7722.8327-1.6009,1.0938-2.4796,44.5913,2.3599,56.784,13.565,59.7759,17.657-.4518.3808-.921.7598-1.4297,1.1346-5.1567,3.7994-12.3052,4.9727-21.2397,3.4903-15.6903-2.6044-32.03408-12.8419-38.2003-19.8023ZM534.06116,110v23c0,2.7568-2.2432,5-5,5h-13.333c-2.7568,0-5-2.2432-5-5v-23c0-2.7569,2.2432-5,5-5h13.333c2.7568,0,5,2.2431,5,5ZM465.73746,158.4082c-8.939,1.4819-16.084.3086-21.2398-3.4903-.5213-.3841-1.00109-.7727-1.4627-1.1631,2.9195-4.0933,15.2661-15.6357,62.1233-17.7405.0738.2583.1596.5106.2514.7608-.0474.0585-.1022.1078-.1459.1707-4.7675,6.8672-22.5351,18.6421-39.5263,21.4624ZM441.13046,125.6924c1.3946-3.0547,2.5987-5.6929,2.8956-7.9712.3828-2.9331-1.0787-6.1636-2.9292-10.2535-4.30129-9.5068-9.17629-20.2817,7.0512-29.0805,23.045-12.493,56.461,26.9067,57.2561,27.8528-.4295,1.1753-.676,2.4378-.676,3.76v5.4373c-4.3113-1.823-15.2161-6.0621-26.3135-7.4154-1.6465-.2011-3.14108.9698-3.3413,2.6148-.2007,1.645.97022,3.1406,2.6148,3.3413,13.0156,1.5869,26.3037,7.6831,26.4365,7.7441.1973.0915.3996.1573.6035.2033v8.103c-45.1189,2.0509-60.5589,12.8364-65.7664,19.1613-4.9675-7.8409-1.08619-16.3662,2.1687-23.4973ZM399.22276,81c0-22.5586,0-69.5,58.5-69.5,12.5266,0,23.2547,2.7032,32.127,8.0566v63.7333c-12.9055-9.7938-29.8997-18.1279-44.562-10.1771-21.1353,11.4594-13.95019,27.3403-9.6573,36.8281,1.2222,2.7021,2.608,5.7642,2.4463,7.0039-.1806,1.3838-1.2607,3.7505-2.4043,6.2563-4.1733,9.1431-11.1577,24.4458,5.2657,36.5469,4.7299,3.4854,10.8149,5.2622,17.8701,5.2617,2.519,0,5.1626-.2265,7.9116-.6826,7.8325-1.3,15.95372-4.3422,23.1299-8.1029v65.697c-90.6264-67.3884-90.627-119.8728-90.627-140.9212ZM521.22276,243.4477c-9.1513-5.8236-17.6029-11.5548-25.4328-17.1881.0385-.1919.0598-.3899.0598-.5931v-72.8877c5.696-3.5752,10.3901-7.4691,13.2723-11.0044,1.842,1.3905,4.1256,2.2256,6.6061,2.2256h13.333c1.8361,0,3.5651-.4582,5.08842-1.257,3.12408,3.5045,7.90268,7.2905,13.57858,10.7318v72.0176c-8.1248,5.8792-16.9393,11.8677-26.5054,17.9553ZM553.72816,221.0687v-64.2648c6.8925,3.4911,14.5736,6.2909,21.998,7.5232,2.7496.4561,5.3921.6826,7.9117.6826,7.05472,0,13.1406-1.7768,17.8701-5.2617,16.4233-12.1011,9.439-27.4038,5.26562-36.5469-1.14352-2.5058-2.22362-4.8725-2.40432-6.2563-.1616-1.2397,1.2241-4.3018,2.44632-7.0039,4.293-9.4878,11.478-25.3687-9.65722-36.8281-14.23778-7.719-30.6739-.0846-43.4302,9.3308V19.0752c0-.0606-.0143-.1172-.0178-.1768,8.6514-4.9186,19.0071-7.3984,31.0124-7.3984,58.5,0,58.5,46.9414,58.5,69.5,0,20.9594-.0139,73.0915-89.4946,140.0687Z"/><path class="cls-1" d="M1822.90787,491.1015c-4.5889-17.2798-14.6123-30.5434-28.2217-37.3481-41.6406-20.8208-60.8603-2.2725-74.8916,11.2725-1.8303,1.7669-3.6106,3.4824-5.3463,5.0111,5.4805-36.9616,21.9552-68.3114,22.1569-68.6908.2617-.4922.3808-1.0479.3457-1.604-.2881-4.4356-1.9024-7.6285-4.7979-9.4898-4.8769-3.1362-11.1728-.8862-11.875-.6201-.4307.1641-.8184.4248-1.1318.7627-9.1505,9.8546-15.1033,24.9416-18.9759,40.6001-2.0511-1.5465-4.913-3.5238-8.5669-5.6703-6.1676-9.541-23.3308-31.8705-50.5686-35.3019-21.6621-2.7251-44.6142,6.9898-68.2294,28.8799-.7676.7109-1.1084,1.7705-.9014,2.7954.208,1.0254.9346,1.8682,1.918,2.2251,1.5751.5718,29.9912,10.6553,70.5898,10.6543,13.4886-.0005,28.3247-1.1158,43.9636-4.0607,5.1521,2.9843,8.5974,5.5794,10.3093,6.9741-2.6134,12.3802-4.0324,24.711-4.8012,34.7302-2.5142-1.923-5.1172-4.423-7.9893-7.1953-14.0293-13.545-33.2471-32.0962-74.8916-11.2725-13.6094,6.8047-23.6318,20.0688-28.2207,37.3486-7.4707,28.1314.207,62.21,21.0664,93.4986,19.5352,29.3037,45.3086,44.2763,63.4903,51.6772,19.7207,8.0273,34.6777,9.1099,35.3046,9.1519.0674.0044.1338.0068.2012.0068s.1338-.0024.2012-.0068c.6269-.042,15.584-1.1246,35.3047-9.1519,18.1816-7.4009,43.9551-22.3735,63.4902-51.6772,20.8594-31.2886,28.5381-65.3677,21.0674-93.4991ZM1580.75847,419.8193c20.8574-18.1758,40.8642-26.1982,59.5263-23.8433,17.939,2.2598,31.1932,13.7441,39.302,23.2543-15.1855-6.6228-37.4397-12.6158-66.8938-11.1234-1.6552.0835-2.9287,1.4927-2.8447,3.1475.084,1.6557,1.5049,2.9204,3.1475,2.8447,29.7533-1.4988,51.9831,5.1086,66.5278,11.8351-46.6025,7.0562-85.4822-2.2523-98.7651-6.1149ZM1723.02407,395.0464c1.3652-.3736,4.1641-.8526,5.8838.2529,1.0683.687,1.7334,2.0415,1.9805,4.0327-3.3435,6.4989-24.0187,48.4981-24.1778,92.7666-1.2861.1315-2.576.1906-3.8701.1602-1.3072-.0312-2.5861-.1531-3.8401-.3371.1851-12.9001,2.2327-72.515,24.0237-96.8753ZM1796.84827,581.2724c-34.6377,51.9571-90.2021,57.8155-94.0039,58.1543-3.8154-.3403-59.3701-6.2036-94.0039-58.1543-19.9043-29.8569-27.2891-62.1616-20.2598-88.6303,4.1407-15.5928,13.0567-27.4981,25.1055-33.5225,37.8477-18.9243,54.5889-2.7622,68.041,10.2231,3.9717,3.8334,7.7444,7.4581,11.6983,9.8153-.2618,4.7461-.3719,8.6413-.4163,11.3285-12.9651-4.3273-21.7146-15.0611-21.822-15.1945-1.0352-1.294-2.9199-1.5039-4.2139-.4707-1.2949,1.0332-1.5068,2.9209-.4736,4.2158.5345.6705,11.8279,14.5871,28.8037,18.315.0537.0126.1073.0231.1619.0326,2.2963.4945,4.6923.8084,7.1828.8711.3164.0083.6319.0122.9473.0122,12.6758,0,24.7822-6.4272,35.9971-19.1152,1.0966-1.2412.9804-3.1372-.2618-4.2344-1.2412-1.0986-3.1377-.9809-4.2343.2608-7.199,8.1444-14.7005,13.3885-22.3855,15.7068.0547-4.169.2997-8.326.7011-12.4394,3.5334-2.3377,6.9537-5.6324,10.5496-9.1039,13.4521-12.9863,30.1943-29.1469,68.041-10.2231,12.0488,6.0244,20.9649,17.9292,25.1065,33.522,7.0293,26.4687-.3555,58.7734-20.2608,88.6308Z"/><path class="cls-1" d="M1796.59047,488.8276c-1.625.3252-2.6787,1.9053-2.3535,3.5303.0742.3721,7.2539,37.498-8.6279,63.8638-.8555,1.4189-.3975,3.2626,1.0214,4.1176.4844.2915,1.0176.4307,1.545.4307,1.0175,0,2.0097-.5176,2.5722-1.4526,17.0703-28.3365,9.6944-66.5245,9.3721-68.1363-.3252-1.624-1.9043-2.6797-3.5293-2.3535Z"/><path class="cls-1" d="M1787.85217,481.1069c.5791.8633,1.5274,1.3301,2.4951,1.3301.5713,0,1.1495-.1636,1.6612-.5044,1.3789-.919,1.751-2.7817.832-4.1602-.2334-.3501-5.8125-8.5898-14.2363-10.0424-1.6289-.2803-3.1846.8134-3.4658,2.4467-.2823,1.6328.8134,3.1846,2.4462,3.4663,5.8575,1.0098,10.2247,7.3995,10.2676,7.4639Z"/><path class="cls-1" d="M164.62127,961.3447h-7.7433l11.78761-69.2753c32.81909-31.3559,32.82729-55.6592,32.82729-66.3394,0-13.1324,0-43.8858-37.6827-43.8858-3.07959,0-6.0318.2841-8.8038.8201-1.8305-.5283-3.8516-.8201-6.0936-.8201-8.83,0-14.3985,5.5108-17.9126,12.3779v-9.3779c0-1.6567-1.3433-3-3-3-1.6568,0-3,1.3433-3,3v9.3779c-3.5141-6.8671-9.0827-12.3779-17.91259-12.3779-2.24371,0-4.266.2922-6.09761.8214-2.7717-.5359-5.721-.8214-8.80039-.8214-37.6821,0-37.6821,30.7534-37.6821,43.8858,0,10.6802.0082,34.9835,32.8272,66.3394l11.7872,69.2753h-7.7428c-4.8853,0-8.8594,3.9746-8.8594,8.8594v4.9043c0,4.7614,3.77891,8.6472,8.4942,8.8408l2.8232,44.585c.1001,1.58,1.4111,2.8105,2.9941,2.8105h62.3379c1.583,0,2.8941-1.2305,2.9942-2.8105l2.8231-44.585c4.7153-.1936,8.49421-4.0794,8.49421-8.8408v-4.9043c0-4.8848-3.97411-8.8594-8.85931-8.8594ZM195.49286,825.73c0,11.7489-.0144,41.135-51.4166,79.0361,28.09-37.5834,28.0904-67.017,28.0904-79.0361,0-9.5101-.0072-28.2538-8.8385-37.8743.1619-.0017.3193-.0115.482-.0115,31.6827,0,31.6827,24.6455,31.6827,37.8858ZM148.91277,787.8442c15.2041,0,17.2539,19.1514,17.2539,37.8858,0,12.5068-.0152,44.8009-35.1665,85.7297v-90.7677c.0133-.6173.8795-32.8478,17.9126-32.8478ZM125.00017,820.6941v90.7656c-35.1519-40.9284-35.167-73.2229-35.167-85.7297,0-18.7344,2.0498-37.8858,17.25441-37.8858,16.99879,0,17.89869,32.2427,17.91259,32.8499ZM60.50747,825.73c0-13.2403,0-37.8858,31.6821-37.8858.16279,0,.32019.01.482.0117-8.83131,9.6206-8.83841,28.364-8.83841,37.8741,0,12.019.0003,41.4523,28.0898,79.0354-51.4011-37.9008-51.4155-67.2865-51.4155-79.0354ZM94.53067,898.591c8.6303,7.44,19.1122,15.2288,31.86691,23.2898.12689.0804.25849.149.39319.2084.0124.0055.0255.0086.0379.0138.1583.0674.3212.1171.4865.1558.0451.0107.0897.0202.13541.0288.18189.0339.36519.0571.54959.0571.1843,0,.3676-.0232.5495-.0571.0458-.0086.0906-.0182.1358-.0288.1649-.0387.3274-.0884.4853-.1554.01281-.0055.0263-.0087.0391-.0143.1346-.0593.2661-.1281.3928-.2083,12.7547-8.061,23.2366-15.8498,31.86691-23.2898l-10.67791,62.7537h-45.5836l-10.6774-62.7537ZM156.35317,1025.3447h-56.7061l-2.6201-41.377h61.9463l-2.6201,41.377ZM167.48057,975.1084c0,1.5771-1.28271,2.8593-2.85931,2.8593h-73.2422c-1.5767,0-2.8594-1.2822-2.8594-2.8593v-4.9043c0-1.5772,1.2827-2.8594,2.8594-2.8594h73.2422c1.5766,0,2.85931,1.2822,2.85931,2.8594v4.9043Z"/><path class="cls-1" d="M558.42196,796.2134c-5.976,1.8232-11.184,4.3374-15.4799,7.4716-1.3384.9766-1.6314,2.8531-.6548,4.1919.5874.8047,1.5,1.2315,2.4258,1.2315.6132,0,1.2324-.1875,1.7661-.5767,3.7529-2.7383,8.3603-4.9521,13.6938-6.5791,1.5845-.4839,2.47762-2.1601,1.9942-3.7451-.4834-1.5845-2.1592-2.4761-3.7452-1.9941Z"/><path class="cls-1" d="M621.66125,837.082c-4.0088-13.5571-16.8232-44.938-49.0434-43.4404-1.6548.0761-2.9346,1.48-2.858,3.1352.07672,1.6558,1.4805,2.9492,3.1353,2.8579,27.9795-1.2963,39.4048,26.9463,43.02,39.1744.4653,1.5756.9932,3.3618,1.5191,5.3559.3549,1.3462,1.5698,2.2363,2.8989,2.2363.2529,0,.5102-.0327.7666-.1001,1.602-.4223,2.5586-2.0634,2.1362-3.6655-.5483-2.0801-1.0893-3.9116-1.5747-5.5537Z"/><path class="cls-1" d="M619.94105,857.2622c.3203,2.7646.5137,5.6025.5752,8.435.0356,1.6343,1.3716,2.9346,2.998,2.9346.0225,0,.0445,0,.0669-.0005,1.6563-.0361,2.9698-1.4082,2.9341-3.0649-.0659-3.0186-.2724-6.0445-.6142-8.9947-.19048-1.6459-1.6841-2.8247-3.3252-2.6347-1.646.1904-2.8257,1.6792-2.6348,3.3252Z"/><path class="cls-1" d="M634.12757,833.396c-9.45162-31.9702-34.71822-61.9629-77.28862-50.2569-29.8486,8.2066-39.6342,28.7368-42.58738,44.5147-.98782,5.2788-1.29592,10.3486-1.248,14.8403-2.36962-3.6982-5.334-7.6724-8.96292-11.4673-11.0166-11.5195-30.3667-23.3921-59.99608-14.541-45.41211,13.5669-44.44041,61.0215-37.582,84.2183,4.00579,13.5488,12.34079,41.7422,52.664,70.4404,1.34958.958,3.22218.6445,4.18408-.7051.9605-1.3496.645-3.2226-.7046-4.1836-38.6357-27.497-46.5747-54.3486-50.3896-67.2529-.7403-2.5044-17.5454-61.5049,33.5459-76.7681,21.3804-6.3872,39.4848-2.0835,53.8061,12.7969,10.8985,11.3242,15.4722,24.8379,15.51612,24.9702.50738,1.5371,2.14358,2.3926,3.69628,1.9356,1.5533-.4575,2.4624-2.0669,2.0552-3.6338-.0366-.1402-3.6103-14.1914-.6514-29.7339,3.88292-20.397,16.7505-33.7358,38.2452-39.6455,48.3046-13.2793,65.749,31.9834,69.9438,46.1733,6.0874,20.5899,22.2085,75.125-65.5229,175.8946-19.3418-5.5547-37.1587-11.8418-52.9869-18.6973-1.3828-.5996-2.9946-.0801-3.7675,1.2139-9.9771,16.6933-24.3506,27.25-42.7212,31.374-5.4605,1.2265-10.4864,1.6728-14.5791,1.7627,19.7509-12.419,29.3203-32.249,29.9966-48.1162.0708-1.6553-1.2139-3.0547-2.8692-3.125-1.6675-.0684-3.0547,1.2138-3.125,2.8691-.6777,15.8877-12.2793,37.6836-36.1504,47.9961-1.2148.5244-1.9424,1.7832-1.791,3.0967.1514,1.3144,1.146,2.375,2.4478,2.6094.2724.0498,4.0034.7011,9.8388.7011,4.6568,0,10.6543-.415,17.2993-1.8847,13.3921-2.961,31.9332-10.9268,45.42-31.9698,15.9687,6.7774,33.8442,12.9844,53.1772,18.4639,1.1123.3145,2.3106-.0391,3.0737-.9092,38.899-44.376,62.6089-85.5468,70.4712-122.3686,6.4844-30.3662.66752-50.0415-2.45748-60.6123Z"/><rect class="cls-1" x="463.17706" y="847.71905" width="6.45908" height="28.64456" rx="2.6351" ry="2.6351" transform="translate(-223.18657 165.54178) rotate(-16.29896)"/><path class="cls-1" d="M488.85476,917.895c-1.3968.4086-2.8604-.3926-3.269-1.7894l-5.035-17.2129c-.4085-1.3969-1.8721-2.198-3.2689-1.7895l-1.141.3338c-1.3968.4086-2.1979,1.8722-1.78928,3.269l6.56208,22.4341c.4086,1.3969,1.8722,2.198,3.269,1.7893l12.0732-3.5315c1.3968-.4084,2.1979-1.872,1.7894-3.269l-.0476-.1626c-.4086-1.397-1.8722-2.198-3.26908-1.7894l-5.87382,1.7181Z"/><path class="cls-1" d="M504.84526,888.5089c-8.0759,2.3622-11.5768,10.0727-9.1664,18.3131,2.3025,7.8716,8.9169,12.6233,17.0342,10.2488,8.076-2.3622,11.9144-9.3747,9.266-18.4287-2.2316-7.6292-8.6893-12.6033-17.1338-10.1332ZM511.59496,912.04c-4.16,1.2169-7.7987-1.8362-9.3857-7.2617-1.5632-5.344-.2846-10.0574,3.9568-11.2979,4.28452-1.2534,7.8506,2.3096,9.3059,7.2851,1.5632,5.3441.3244,10.0456-3.877,11.2745Z"/><path class="cls-1" d="M533.08316,893.4002l-5.6832-8.9705c-.6287-.9924-1.83838-1.4488-2.9659-1.1189l-1.4414.4216c-1.714.5015-2.4435,2.5265-1.4429,4.0056l13.7525,20.3309c.6418.9489,1.8231,1.3744,2.9225,1.0528l3.5981-1.0525c1.0858-.3175,1.84772-1.2929,1.8933-2.4232l.9926-24.6438c.0726-1.8007-1.6433-3.1413-3.3729-2.6353l-1.2029.3518c-1.1181.3272-1.8888,1.3496-1.8953,2.5145l-.0602,10.8102c-.0197,3.4148.078,6.9287.3522,10.4361l-.123.0359c-1.6552-3.2367-3.4185-6.0849-5.3235-9.1152Z"/><path class="cls-1" d="M558.06876,879.0068l5.6695-1.6584c1.3969-.4085,2.198-1.8721,1.7895-3.269l-.0117-.0399c-.4086-1.3968-1.8722-2.1979-3.269-1.7893l-11.8689,3.4717c-1.3968.4086-2.198,1.8722-1.7894,3.269l6.5622,22.4341c.40862,1.3969,1.8722,2.198,3.269,1.7893l12.4402-3.6388c1.3968-.4085,2.1979-1.8722,1.7893-3.2689l-.0116-.0399c-.4086-1.3969-1.8722-2.198-3.2691-1.7894l-6.2408,1.8254c-1.3968.4087-2.86038-.3924-3.269-1.7893l-.42938-1.468c-.40862-1.397.39248-2.8605,1.78938-3.2691l5.0584-1.4797c1.3968-.4084,2.198-1.8721,1.7894-3.2689v-.0001c-.4086-1.3968-1.87218-2.1979-3.269-1.7893l-5.0585,1.4796c-1.3968.4085-2.8604-.3925-3.269-1.7895l-.1909-.6525c-.4086-1.3969.3925-2.8604,1.7894-3.2691Z"/><path class="cls-1" d="M508.48666,945.237c.4593-1.9646-1.3693-3.6955-3.3057-3.1291l-.9599.2807c-1.0187.2981-1.7591,1.178-1.8786,2.2327l-.6433,5.6782c-.2427,2.1966-.4299,3.9783-.5414,5.8714l-.0814.0239c-1.1777-1.6044-2.2183-2.8936-3.66-4.6425l-3.602-4.4365c-.669-.824-1.767-1.1661-2.7857-.8683l-1.2356.3615c-1.9109.5589-2.53548,2.9538-1.1409,4.3749l9.89342,10.0817c.30378.3096.52648.6895.64828,1.106l2.36772,8.0942c.40848,1.3969,1.87218,2.198,3.269,1.7893l1.14088-.3336c1.3968-.4085,2.198-1.8722,1.7894-3.269l-2.4184-8.2678c-.1275-.4359-.1402-.8974-.0368-1.3398l3.181-13.6079Z"/><path class="cls-1" d="M522.55866,936.4929c-8.0759,2.3623-11.5767,10.0727-9.1664,18.3131,2.3026,7.8716,8.9169,12.6233,17.03432,10.2489,8.07578-2.3623,11.91428-9.3748,9.26538-18.4304-2.2311-7.6275-8.6888-12.6016-17.1333-10.1316ZM529.30836,960.0241c-4.16,1.2168-7.7987-1.8363-9.3857-7.2617-1.5632-5.344-.2846-10.0573,3.9568-11.298,4.2846-1.2532,7.8506,2.3097,9.306,7.2851,1.56312,5.3441.3244,10.0456-3.8771,11.2746Z"/><path class="cls-1" d="M544.33616,947.3032c2.5536,8.7302,7.7257,11.4231,14.659,9.3951,7.1791-2.0999,10.2823-7.3919,7.801-15.8747l-3.7705-12.8903c-.4086-1.3967-1.87208-2.1979-3.269-1.7893l-1.1426.3342c-1.3968.4086-2.198,1.8722-1.7893,3.2691l3.87782,13.2571c1.43148,4.894.30478,7.7043-2.95852,8.6588-3.1403.9186-5.6797-.9527-7.0753-5.7238l-3.8779-13.2572c-.4086-1.3968-1.8721-2.198-3.269-1.7894l-1.1425.3342c-1.3969.4087-2.198,1.8722-1.7894,3.2691l3.7462,12.8071Z"/><path class="cls-1" d="M942.50367,851.1167l38.7587-33.7715c.0232-.0202.0392-.0462.0616-.067.0985-.0913.1864-.1914.272-.2951.0465-.0564.0968-.109.1389-.1684.0883-.1244.1613-.2586.2301-.3959.0235-.0469.0537-.0897.0747-.1378.1603-.3672.252-.7712.252-1.1975,0-.0106-.003-.0204-.0032-.0309,0-.0079.0023-.0154.0022-.0233-.001-.0562-.0171-.1096-.0211-.1654-.0111-.1501-.0243-.299-.0565-.4422-.0159-.0699-.0426-.1354-.0633-.2037-.0398-.1314-.0815-.2609-.1382-.384-.0325-.0708-.0732-.1365-.111-.2046-.0628-.1121-.128-.2209-.2039-.3235-.0489-.0662-.1022-.1276-.1566-.1898-.0836-.0955-.1715-.1849-.2665-.269-.0337-.0299-.0591-.0667-.0942-.0952l-39.5-31.9897c-.0345-.028-.0735-.0462-.1088-.0724-.0754-.0559-.1532-.1068-.2338-.1555-.0849-.0514-.1706-.0984-.259-.1406-.0795-.038-.1599-.072-.2432-.103-.0988-.0368-.1982-.067-.2995-.093-.0801-.0205-.1597-.0395-.2422-.0534-.1151-.0195-.23-.029-.3462-.035-.0524-.0027-.1019-.0156-.155-.0156-.0244,0-.0471.0066-.0716.0072-.123.003-.2442.019-.366.037-.0699.0102-.1409.0148-.2092.0298-.1213.0267-.239.0688-.3569.1108-.0603.0215-.1239.0356-.1825.0609-.1349.058-.263.1331-.3897.2116-.0341.0212-.0723.0358-.1055.0583-.1552.1051-.3028.2259-.4397.3628h0c-.0003.0002-.0005.0005-.0005.0005l-23.3784,23.369-23.3784-23.3695c-.137-.1366-.2842-.2572-.4392-.3621-.0423-.0287-.0906-.0478-.1343-.0743-.1176-.0711-.2355-.1417-.36-.1953-.0641-.0277-.1334-.0434-.1996-.0667-.1125-.0394-.2244-.0799-.3401-.1055-.0705-.0156-.1443-.0204-.2165-.031-.1194-.0174-.2383-.0332-.3589-.0362-.0247-.0006-.0476-.0073-.0725-.0073-.0537,0-.1039.013-.157.0158-.1155.006-.2298.0154-.3443.0348-.0822.0139-.1618.0329-.2417.0534-.102.026-.202.0565-.3015.0935-.082.0306-.1612.0641-.2396.1015-.0902.0428-.1776.0909-.2642.1433-.0784.0477-.1541.0972-.2279.1516-.0363.0269-.0764.0458-.112.0746l-39.50002,31.9897c-.036.0293-.0622.067-.0967.0977-.0933.083-.17968.1709-.262.2648-.0551.0629-.1091.1251-.1585.1921-.0757.1022-.1407.2107-.2031.3223-.03808.0684-.0788.1342-.1114.2054-.0563.1222-.0976.2507-.1373.3811-.0212.0696-.04838.1363-.0645.2075-.0311.138-.0433.2816-.0547.426-.0048.0608-.022.1191-.0231.1805-.0002.0087.0024.0171.0023.0258-.0001.0097-.0028.0187-.0028.0284,0,.4261.0915.8298.2517,1.1969.0215.0495.05272.0935.0769.1418.0683.1359.1404.2688.22782.3919.04258.0602.09358.1135.14068.1706.085.1029.1721.2023.2699.2929.0227.021.0389.0472.0623.0676l38.75862,33.7717c-38.51462,12.1826-64.96032,47.9193-64.96032,88.8059,0,51.375,41.79692,93.1719,93.17192,93.1719s93.1728-41.7969,93.1728-93.1719c0-40.8877-26.4461-76.6237-64.9608-88.8061ZM1001.46447,939.9228c0,16.6719-4.7079,32.2635-12.8592,45.5213,4.8033-10.4054,7.5038-21.9732,7.5038-34.1658,0-42.8198-33.0713-78.0375-75.0096-81.5116l16.0371-13.9736c37.9505,10.2667,64.3279,44.6291,64.3279,84.1297ZM838.47525,951.2783c0-41.8057,34.01122-75.8169,75.81642-75.8169s75.8174,34.0112,75.8174,75.8169-34.0118,75.8164-75.8174,75.8164-75.81642-34.0107-75.81642-75.8164ZM894.21587,850.2478c-.006-.0053-.012-.0103-.018-.0156l-36.89603-32.1487h29.55123l19.0769,42.3711-11.7141-10.2068ZM857.76315,812.0835l28.02903-22.6997v22.6997h-28.02903ZM934.42797,850.1952c-.0328.0279-.0655.0551-.0971.0846l-11.6774,10.1748,19.0773-42.3711h29.5511l-36.8539,32.1117ZM942.79167,812.0835v-22.6997l28.0289,22.6997h-28.0289ZM936.79167,814.4398l-19.5,43.31v-47.9232l19.5-19.492v24.1052ZM911.29167,857.7496l-19.4995-43.3097v-24.1052l19.4995,19.4919v47.923ZM891.44697,855.7932l16.0368,13.9735c-41.9377,3.4741-75.00852,38.6918-75.00852,81.5116,0,12.1929,2.7005,23.7607,7.5039,34.1663-8.1514-13.2581-12.8594-28.8497-12.8594-45.5218,0-39.5,26.3775-73.8627,64.32722-84.1296Z"/><rect class="cls-1" x="1221.79884" y="842.69882" width="6.45912" height="28.64454" rx="2.63517" ry="2.63517" transform="translate(-239.08455 554.44384) rotate(-23.29985)"/><path class="cls-1" d="M1269.22447,924.0395c-.5756-1.3366-2.1259-1.9536-3.4626-1.378l-5.6209,2.4205c-1.3367.5754-2.8869-.0415-3.4626-1.3782l-7.093-16.4719c-.5756-1.3367-2.1259-1.9537-3.4625-1.3782l-1.0918.4702c-1.3368.5756-1.9538,2.1258-1.3781,3.4626l9.2445,21.4684c.5756,1.3366,2.1259,1.9536,3.4625,1.378l11.5535-4.975c1.3367-.5757,1.9536-2.1259,1.3781-3.4626l-.0671-.1558Z"/><path class="cls-1" d="M1272.43497,893.9677c-7.7283,3.3279-10.2644,11.4073-6.8688,19.2928,3.2438,7.5327,10.3873,11.4438,18.1553,8.0988,7.7281-3.3278,10.6844-10.7553,6.9535-19.4196-3.1438-7.3008-10.159-11.4517-18.24-7.972ZM1281.99917,916.5022c-3.981,1.7142-7.9644-.8733-10.2-6.0652-2.2021-5.114-1.5068-9.9478,2.552-11.6956,4.1001-1.7656,8.0734,1.3367,10.1236,6.0979,2.2021,5.114,1.545,9.9315-2.4756,11.6629Z"/><path class="cls-1" d="M1311.08807,881.6638c-.1473-1.7962-2.0135-2.9179-3.6686-2.2051l-1.1511.4956c-1.07.4608-1.7106,1.5696-1.5751,2.7266l1.2563,10.7372c.3962,3.3917.9209,6.8676,1.6199,10.3155l-.1175.0506c-2.037-3.011-4.134-5.6233-6.3937-8.3992l-6.7329-8.2119c-.7449-.9085-2.0011-1.2141-3.0801-.7495l-1.3794.594c-1.6401.7062-2.1177,2.805-.9446,4.1513l16.1254,18.5055c.7525.8637,1.9769,1.1422,3.0289.6891l3.4434-1.4827c1.0389-.4475,1.6765-1.508,1.584-2.6356l-2.0149-24.5814Z"/><path class="cls-1" d="M1340.66777,893.4145c-.5756-1.3366-2.1259-1.9536-3.4625-1.378l-5.9722,2.5716c-1.3367.5757-2.887-.0412-3.4627-1.378l-.6049-1.4049c-.5755-1.3367.0415-2.887,1.3781-3.4624l4.8407-2.0845c1.3367-.5757,1.9538-2.126,1.3781-3.4627h0c-.5756-1.3366-2.1258-1.9536-3.4625-1.378l-4.8407,2.0843c-1.3367.5757-2.887-.0412-3.4626-1.378l-.2689-.6245c-.5757-1.3368.0414-2.887,1.3782-3.4625l5.4254-2.3365c1.3368-.5755,1.9537-2.1257,1.3781-3.4624l-.0164-.0382c-.5757-1.3367-2.1259-1.9537-3.4626-1.3781l-11.358,4.8909c-1.3366.5756-1.9536,2.1258-1.378,3.4626l9.2445,21.4683c.5757,1.3367,2.1258,1.9537,3.4626,1.3781l11.9046-5.1263c1.3367-.5756,1.9537-2.1258,1.3782-3.4626l-.0165-.0382Z"/><path class="cls-1" d="M1298.28947,977.74c.3393.2703.6067.6203.7782,1.0188l3.3354,7.7458c.5756,1.3367,2.1259,1.9536,3.4626,1.3781l1.0917-.4701c1.3367-.5757,1.9538-2.126,1.3782-3.4627l-3.407-7.9118c-.1796-.4172-.2484-.8737-.1997-1.3252l1.5009-13.8941c.2167-2.006-1.8091-3.5013-3.6622-2.7033l-.9185.3955c-.9749.4198-1.6027,1.3833-1.5928,2.4447l.0528,5.7143c.0266,2.2096.0576,4.0011.1773,5.8937l-.0779.0334c-1.3643-1.4489-2.554-2.602-4.1979-4.1622l-4.1154-3.965c-.7642-.7364-1.8958-.9425-2.8706-.5227l-1.1824.5092c-1.8286.7875-2.157,3.2406-.5998,4.4813l11.0471,8.8023Z"/><path class="cls-1" d="M1330.41907,977.8183c7.7282-3.3278,10.6843-10.7553,6.9528-19.4212-3.1432-7.2992-10.1583-11.4502-18.2394-7.9704-7.7283,3.3279-10.2643,11.4071-6.8687,19.2928,3.2437,7.5327,10.3873,11.4438,18.1553,8.0988ZM1321.04877,955.2004c4.1001-1.7656,8.0733,1.3367,10.1235,6.0979,2.2023,5.114,1.5452,9.9314-2.4756,11.6629-3.9809,1.7141-7.9642-.8733-10.1999-6.0652-2.2022-5.114-1.5069-9.9479,2.552-11.6956Z"/><path class="cls-1" d="M1342.06407,958.5053c3.5975,8.3543,9.0589,10.3976,15.6938,7.5406,6.87-2.9583,9.3058-8.5889,5.8104-16.7063l-5.3118-12.3354c-.5757-1.3367-2.1258-1.9537-3.4626-1.378l-1.0933.4707c-1.3367.5757-1.9537,2.126-1.3782,3.4626l5.4629,12.6866c2.0169,4.6833,1.2405,7.6097-1.8823,8.9544-3.0051,1.2941-5.7534-.254-7.7195-4.8198l-5.4629-12.6865c-.5757-1.3367-2.1258-1.9537-3.4626-1.3781l-1.0933.4707c-1.3366.5757-1.9537,2.126-1.3781,3.4627l5.2775,12.2558Z"/><path class="cls-1" d="M1420.29067,870.3452l-20.2402-44.2583c-.6905-1.5073-2.4698-2.1704-3.9766-1.4805l-39.0629,17.8638h-37.2745c.2925-.7344.3013-1.5802-.0532-2.356l-20.2393-44.2583c-.331-.7236-.9355-1.2861-1.6816-1.5639-.7432-.2774-1.5713-.2471-2.2949.0835l-105.7627,48.3667c-.7237.3305-1.2862.9355-1.5635,1.6811-.2774.7456-.2481,1.5708.083,2.2944l20.2402,44.2583c.0669.1463.1455.2832.2317.4131.0171.0257.0379.0481.0557.073.0852.1201.1777.2323.2777.3367.0338.0354.069.0688.1046.1025.099.0938.2033.1797.313.2583.0342.0247.0662.0513.1013.0744.143.0936.2924.1754.4483.2433.0377.0164.0773.0277.1158.0426.1288.0498.2601.0907.3947.1224.0493.0116.098.023.1483.032.1776.0326.3571.0552.5394.0552.0031,0,.0061-.001.0092-.001h35.9064l-44.0865,20.1611c-.7236.3311-1.2861.9356-1.5635,1.6817-.2773.7451-.248,1.5713.083,2.2949l20.2403,44.2588c.0669.146.1455.2829.2317.4127.0172.0259.038.0485.0561.0737.0847.1195.1768.231.2763.3349.0347.0363.0706.0705.107.1049.0978.0924.2006.177.3087.2547.0355.0256.0687.0532.1054.0774.1423.093.2911.1745.4463.2422.0385.0168.0793.0283.1186.0435.1277.0494.2581.09.3915.1215.0499.0117.0992.0232.15.0323.1773.0326.3567.0551.5388.0551.0031,0,.0061-.001.0092-.001h35.9064l-13.605,6.2217c-.7237.3311-1.2862.9356-1.5635,1.6816-.2773.7452-.248,1.5713.083,2.295l20.2402,44.2578c.0669.146.1456.2829.2317.4127.0172.0259.0381.0485.0562.0737.0847.1195.1767.231.2762.3349.0348.0363.0707.0705.1071.1049.0978.0925.2006.1771.3087.2547.0355.0256.0687.0532.1054.0774.1423.093.2911.1745.4462.2422.0386.0168.0794.0283.1187.0435.1277.0494.2581.09.3915.1215.0499.0117.0992.0232.15.0324.1772.0325.3567.055.5388.055.0031,0,.0061-.001.0092-.001h145.1617c1.2236,0,2.3252-.7431,2.7822-1.8789.458-1.1347.1797-2.4345-.7021-3.2832l-20.7529-19.9668,20.7529-19.9668c.8818-.8486,1.1601-2.1484.7021-3.2832-.457-1.1357-1.5586-1.8789-2.7822-1.8789h-34.6191l36.9775-16.9101c.7236-.3311,1.2861-.9356,1.5635-1.6817.2773-.7451.248-1.5713-.083-2.2949l-20.2403-44.2588c-.6894-1.5049-2.4687-2.1694-3.9765-1.48l-22.8963,10.4707c-.1751-.0318-.354-.0542-.5383-.0542h-34.6072l83.7439-38.2973c.7237-.3306,1.2862-.9356,1.5635-1.6812.2774-.7456.2481-1.5708-.083-2.2944ZM1295.23497,801.0796l17.7442,38.8017-100.3057,45.8711-17.7451-38.8017,100.3066-45.8711ZM1260.12267,886.7285h-35.1563l83.658-38.2583h35.2664l-83.6794,38.2672c-.0302-.0009-.0583-.0089-.0887-.0089ZM1366.31997,974.8271h39.7207l-17.6348,16.9668c-.5879.5654-.9199,1.3467-.9199,2.1621,0,.8155.332,1.5967.9199,2.1621l17.6348,16.9668h-123.9529l83.7622-38.3051c.1541.0244.3091.0473.47.0473ZM1410.62077,947.708l-140.8272,64.4013-17.7451-38.8017,140.8272-64.4024,17.7451,38.8028ZM1323.31997,918.6181h33.8901l-83.8967,38.367c-.2433-.0635-.4939-.1082-.7571-.1082h-34.2695l84.0498-38.4372c.3096.1079.637.1784.9834.1784ZM1225.99287,955.9013l-17.7452-38.8027,187.5938-85.7881,17.7451,38.8018-187.5937,85.789Z"/><path class="cls-1" d="M1772.25157,823.6377c0-13.1324,0-43.8858-37.6826-43.8858-22.2334,0-31.75,13.7198-35.8105,24.8257-4.0606-11.1059-13.5762-24.8257-35.8096-24.8257-37.6826,0-37.6826,30.7534-37.6826,43.8858,0,13.7793.0127,50.2329,70.4922,95.2558v23.8317l-29.1612-16.1276c-2.2871-1.2656-4.9961-1.2265-7.249.0996-2.251,1.3282-3.5957,3.6817-3.5957,6.295v29.6396c0,2.6143,1.3438,4.9668,3.5957,6.2949,1.1553.6817,2.4317,1.0225,3.71,1.0225,1.2119,0,2.4258-.3066,3.539-.9229l29.1612-16.1267v77.5379c0,1.6572,1.3427,3,3,3,1.6572,0,3-1.3428,3-3v-77.538l29.1621,16.1268c1.1133.6163,2.3271.9229,3.539.9229,1.2784,0,2.5547-.3408,3.71-1.0225,2.252-1.3281,3.5957-3.6806,3.5957-6.2949v-29.6396c0-2.6133-1.3447-4.9668-3.5957-6.295-2.2539-1.3281-4.9619-1.3652-7.249-.0996l-29.1621,16.1277v-23.8318c70.4804-45.023,70.4931-81.4765,70.4931-95.2558ZM1698.74577,840.5298h.0127c1.6094,0,2.9336-1.2769,2.998-2.8858.0469-1.1572.7578-11.3052,11.2002-11.3052,9.9287,0,10.751,6.2486,10.751,13.21,0,4.7681-.002,17.272-24.9492,33.5508-24.9463-16.2788-24.9483-28.7827-24.9483-33.5508,0-6.9614.8223-13.21,10.751-13.21,10.4424,0,11.1524,10.148,11.1992,11.292.0498,1.6143,1.3701,2.8916,2.9854,2.899ZM1684.56117,820.3388c-16.751,0-16.751,14.4585-16.751,19.21,0,5.772,0,21.105,29.3457,39.6519.4893.309,1.0459.4638,1.6026.4638.5566,0,1.1133-.1548,1.6025-.4638,29.3467-18.5469,29.3467-33.8799,29.3467-39.6519,0-4.7515,0-19.21-16.751-19.21-4.4543,0-7.8375,1.281-10.3766,3.2021,1.6142-6.3327,6.381-16.1015,20.4401-16.1015,18.9141,0,20.498,12.75,20.498,24.7007,0,8.5386,0,31.0542-44.7597,59.8657-44.7588-28.8115-44.7588-51.3271-44.7588-59.8657,0-11.9507,1.584-24.7007,20.498-24.7007,13.9676,0,18.7661,9.7476,20.4106,16.0804-2.5357-1.909-5.9095-3.181-10.3471-3.181ZM1631.26627,823.6377c0-13.2403,0-37.8858,31.6826-37.8858,20.8232,0,28.4348,13.9619,31.2156,23.7086-4.2246-4.6158-10.5266-8.0211-19.6668-8.0211-26.498,0-26.498,22.3042-26.498,30.7007,0,9.543,0,34.8931,49.1562,65.96.4893.3091,1.0459.4638,1.6026.4638.5566,0,1.1133-.1547,1.6025-.4638,49.1572-31.0669,49.1572-56.417,49.1572-65.96,0-8.3965,0-30.7007-26.498-30.7007-9.1404,0-15.4424,3.4054-19.6674,8.0213,2.7812-9.7481,10.3932-23.7088,31.2162-23.7088,31.6826,0,31.6826,24.6455,31.6826,37.8858,0,12.8652-.0039,46.8755-67.4931,90.0595-67.4883-43.184-67.4922-77.1943-67.4922-90.0595ZM1663.69297,963.7763c-.5683.3135-1.0566.1241-1.2968-.0185-.2403-.1416-.6436-.4756-.6436-1.126v-29.6396c0-.6495.4033-.9844.6436-1.126.1445-.086.3789-.1885.667-.1885.1904,0,.4033.0449.6298.1699l28.8663,15.9649-28.8663,15.9638ZM1733.82487,931.8476c.5683-.3144,1.0556-.125,1.2969.0186.2402.1416.6435.4765.6435,1.126v29.6396c0,.6504-.4033.9844-.6435,1.126-.2403.1426-.7286.332-1.2969.0185l-28.8672-15.9638,28.8672-15.9649Z"/><path class="cls-1" d="M426.32776,1210.2197c-1.1719,1.1709-1.1719,3.0713,0,4.2422,1.1709,1.1719,3.0713,1.1719,4.2422,0,22.4521-22.4512,58.9839-22.4512,81.436,0,.5855.5859,1.3535.8789,2.1211.8789s1.5357-.293,2.1211-.8789c1.1719-1.1709,1.1719-3.0713,0-4.2422-24.791-24.791-65.1294-24.79-89.9204,0Z"/><path class="cls-1" d="M525.41516,1219.3867c-1.1709-1.1719-3.0713-1.1719-4.2422,0-1.1718,1.1709-1.1718,3.0713,0,4.2422l7.166,7.166c.5855.5859,1.35362.8789,2.1211.8789.7676,0,1.5357-.293,2.1211-.8789,1.1719-1.1709,1.1719-3.0713,0-4.2422l-7.166-7.166Z"/><path class="cls-1" d="M539.58316,1233.5537c-1.1719-1.1709-3.0718-1.1729-4.2427,0-1.17188,1.1709-1.17188,3.0703-.0005,4.2422l7.3355,7.3359c.5859.5859,1.3535.8789,2.1215.8789.76762,0,1.5357-.293,2.1211-.8789,1.1719-1.1709,1.1719-3.0703.00052-4.2422l-7.33542-7.3359Z"/><path class="cls-1" d="M643.39125,1280.6025c9.4271-26.9204,3.4015-58.0931-18.0806-79.5752-28.5676-28.5681-73.7726-30.0581-104.0929-3.8877-30.0536-25.8894-75.5885-24.6072-104.0824,3.8877-29.572,29.572-29.83879,77.4983-.838,107.4241.0427.0488.0753.1034.1217.1501l.50651.5108c.07179.0724.13759.1484.20979.2207.015.0149.0329.0246.0481.0393l101.4915,102.3367c.5615.5664,1.3257.8857,2.1235.8877h.0064c.7954,0,1.5586-.3165,2.1211-.879l102.3847-102.3847c8.2395-8.2395,14.193-17.9082,17.8854-28.2122.0818-.1695.1476-.3418.1952-.5183ZM621.06845,1205.2695c13.3316,13.332,20.6734,31.0566,20.6734,49.9102,0,8.0571-1.3516,15.904-3.9275,23.2939-3.1374,5.1438-6.9893,7.9141-11.7727,8.457-13.6265,1.5342-29.9439-15.2392-30.1499-15.4521l-70.2457-70.2456c27.9386-23.6594,69.2551-22.1299,95.4224,4.0366ZM621.06845,1305.0908l-100.2548,100.2549-99.66008-100.49c-13.186-13.3054-20.44931-30.9302-20.44931-49.6751,0-18.8545,7.3418-36.5791,20.67331-49.9111,27.52149-27.5186,72.29928-27.5195,99.82078,0l70.40722,70.4072c.74858.7803,18.522,19.0918,35.09968,17.2168,1.7006-.1917,3.3224-.5837,4.8641-1.1711-2.9172,4.8031-6.4256,9.293-10.5009,13.3684Z"/><path class="cls-1" d="M591.18665,1201.1269c3.4863,1.2989,6.8628,2.9492,10.0356,4.9033.4908.3028,1.0342.4463,1.5708.4463,1.0069,0,1.9903-.5058,2.5572-1.4267.8691-1.4102.4301-3.2578-.9805-4.127-3.5049-2.1601-7.2353-3.9824-11.0874-5.4189-1.5527-.5752-3.28078.2109-3.8589,1.7637-.5786,1.5527.211,3.2802,1.7632,3.8593Z"/><path class="cls-1" d="M625.75357,1273.4707c-.52392,1.5722.32618,3.2705,1.89788,3.7949.315.1045.6343.1543.9488.1543,1.2558,0,2.4267-.7959,2.8457-2.0527,7.6792-23.0508,1.80562-48.0137-15.3272-65.1475-1.1714-1.1719-3.0713-1.1719-4.2426,0-1.1719,1.1709-1.1719,3.0703-.0005,4.2422,15.5166,15.5166,20.83392,38.1279,13.87792,59.0088Z"/><path class="cls-1" d="M632.48185,1646.279c.01772-.0787.0346-.1567.04572-.2358.00678-.0482.01658-.095.02108-.1439.00592-.0639.0026-.1278.0044-.1921.0024-.0902.0028-.1792-.0029-.2688-.0022-.0351.0037-.069.0003-.1044-.0008-.0081-.0038-.0153-.0047-.0234-.0063-.0606-.0229-.1202-.033-.1807-.0154-.0909-.0333-.1797-.0569-.2686-.0124-.047-.0182-.0964-.0328-.1426-.0157-.0493-.0419-.0963-.0603-.1451-.0313-.0831-.0645-.1643-.103-.2443-.0268-.0559-.0487-.1142-.0788-.168-.0027-.0048-.0038-.01-.0065-.0148l-21.744-38.3521c-.0096-.0564-.024-.1107-.0368-.1664-.021-.0924-.04908-.1808-.0783-.2696-.031-.094-.0632-.1863-.1032-.2768-.0405-.0918-.087-.1787-.136-.2653-.0448-.079-.0905-.1564-.1424-.2314-.0626-.0905-.1309-.1748-.2027-.2578-.0507-.0583-.101-.1157-.1566-.1704-.0526-.0522-.1033-.1052-.1595-.1533l-18.6255-32.8516c-.034-1-.5586-1.9609-1.4885-2.4985-1.1598-.6682-2.5715-.4649-3.5112.3894l-64.5681,34.4852-65.1585-34.9215c-.0187-.01-.0387-.0141-.0574-.0237-.0776-.0393-.1589-.0675-.2394-.0998-.0803-.0325-.1585-.0725-.2401-.0977-.0249-.0077-.0499-.0128-.0749-.0197-.0706-.0198-.1434-.0278-.2153-.0423-.096-.0192-.1908-.0452-.2873-.0547-.0228-.0023-.04519-.0029-.068-.0046-.0739-.006-.14819.0008-.2225.0005-.0963-.0003-.1925-.0069-.2881.0022-.0204.0019-.0405.0046-.0609.0071-.0814.009-.1612.0316-.2421.0476-.0874.0173-.1757.028-.2611.0531-.021.0061-.0413.0133-.0622.0199-.0784.0246-.1536.062-.2308.0935-.0802.0329-.16249.0593-.2399.0991-.0252.0129-.049.0281-.0739.0419-.0178.0097-.0369.0142-.0546.0245-.0573.0332-.1033.0774-.1576.1136-.0669.0446-.1368.0827-.2002.1327-.0262.0208-.0498.0445-.0755.0661-.071.0602-.1329.1266-.1972.192-.05.0509-.1042.0957-.1508.1506-.02079.0244-.03879.0513-.0589.0764-.0643.0808-.1176.167-.1727.2532-.0321.0501-.0719.0919-.1014.1443l-41.7651,74.375c-.0028.0049-.004.0103-.00669.0154-.02841.0511-.04791.1074-.07341.1605-.04059.0846-.07659.1698-.109.2577-.0169.0454-.0418.089-.0564.135-.0146.0466-.0194.0973-.0318.145-.024.0916-.0431.1831-.05839.2766-.00921.0568-.02511.1127-.031.1696-.00061.0058-.00291.0111-.00341.017-.0039.039.0027.0763.00041.1151-.00561.092-.006.1836-.00291.2765.0021.0603-.0014.1203.0043.1801.0047.0506.0161.0987.0233.1485.0118.0816.0284.1622.04731.2436.01349.0589.02229.1182.03929.176.0171.0578.0408.1119.0612.168.0132.0365.01751.074.0322.1101l17.1531,42.3491c.0017.0044.0035.0086.00521.0129l18.11759,44.7303c.00541.0134.0136.0259.0192.0393.0277.0657.06221.1261.0938.1887.0242.0479.0445.0967.0713.1433.0216.0378.0447.0738.0677.1102.02641.0415.0567.0805.08541.121.04919.0699.09609.1417.15059.2063.0155.0184.0342.0342.0501.0523.0229.0258.0477.0493.07131.0742.019.0202.032.0436.05169.0632.013.013.0285.0215.0417.0342.0593.0572.1208.1104.1842.1621.0178.0146.0307.0327.049.0469l34.8558,27.2192c.0009.0008.00162.0018.00262.0025.00118.001.00248.0015.00368.0024l37.1044,28.9751c.0616.1053.1163.2132.1922.3125.5908.7744,1.4839,1.1807,2.38772,1.1807.06088,0,.12158-.0107.18248-.0145.06.0035.1198.0145.1798.0145.0003,0,.0006-.0001.0006-.0001.0007,0,.001.0001.001.0001.2196,0,.43212-.0266.638-.0713.0523-.0112.1014-.0332.1532-.0474.153-.042.30292-.0896.4451-.154.0673-.0305.1294-.0702.1946-.1057.1217-.0666.2394-.137.3501-.2191.0644-.0478.1247-.0998.1856-.1532.10752-.094.20652-.1949.2996-.303.03092-.0359.06892-.0619.0984-.0996.0207-.0266.033-.0567.0527-.0835.0531-.0728.1001-.1485.1466-.2257l72.9047-55.6254c.0222-.017.0383-.0386.0599-.0562.1128-.0908.2185-.1898.3179-.2973.029-.0313.0605-.0603.088-.0927.1135-.1339.2176-.2771.30772-.4327.02118-.0365.03548-.0757.055-.1128.04968-.0947.10108-.188.14118-.2895l34.6934-87.6797c.0128-.0324.0162-.0657.0278-.0982.01962-.0548.04162-.1078.0581-.1638.0181-.062.0277-.1255.0418-.1885ZM543.74466,1657.02l37.1174-3.6245-28.7896,29.2558-8.3278-25.6313ZM521.22276,1707.6738l-26.4316-19.2031,10.0957-31.0733h32.6719l10.0957,31.0733-26.4317,19.2031ZM490.37316,1682.6513l-28.7897-29.2558,37.1175,3.6245-8.3278,25.6313ZM458.46786,1647.0637l17.8133-32.3897,20.9077,36.1707-38.721-3.781ZM507.09716,1651.3974l14.1225-36.2114,14.1278,36.2114h-28.2503ZM545.25676,1650.8447l20.9076-36.1707,17.8134,32.3897-38.721,3.781ZM571.15616,1611.2998l31.6471-1.7459-14.3299,33.2334-17.3172-31.4875ZM540.26496,1647.4924l-14.5908-37.3979,35.46242,1.2896-20.87162,36.1083ZM502.18036,1647.4919l-20.8713-36.1078,35.4564-1.2894-14.5851,37.3972ZM453.97216,1642.7873l-14.3298-33.2334,31.647,1.7459-17.3172,31.4875ZM485.71226,1686.4696l-50.3835-1.3206,18.8666-30.7066,31.5169,32.0272ZM516.93836,1711.9768l-29.6965,37.7583,6.4056-54.6797,23.2909,16.9214ZM548.79806,1695.0554l6.4056,54.6797-29.6964-37.7583,23.2908-16.9214ZM588.25015,1654.4424l18.8666,30.7066-50.3834,1.3206,31.5168-32.0272ZM607.75057,1613.2334l16.92718,29.8559-31.1107,3.038,14.18352-32.8939ZM571.60216,1605.2668l15.9688-27.6263,14.70362,25.9342-30.67242,1.6921ZM564.53557,1605.5038l-32.09112-1.1672,47.3986-25.3151-15.30748,26.4823ZM477.90996,1605.5038l-15.3932-26.6307,47.5096,25.4626-32.1164,1.1681ZM454.68396,1577.3105l16.1595,27.9563-30.9011-1.7047,14.7416-26.2516ZM434.61526,1613.0486l14.26331,33.0787-31.13151-3.0399,16.8682-30.0388ZM448.57696,1652.1255l-17.9761,29.2573-13.0788-32.2898,31.0549,3.0325ZM484.20596,1692.4323l-34.9668,34.9664-14.69-36.268,49.6568,1.3016ZM487.28026,1697.8423l-6.6139,56.4592-27.9889-21.8567,34.6028-34.6025ZM518.22276,1720.0488v63.5808l-30.979-24.1919,30.979-39.3889ZM524.22276,1720.0488l31.157,39.6151-31.157,23.7724v-63.3875ZM561.83086,1754.7418l-6.6656-56.8995,35.1595,35.159-28.4939,21.7405ZM593.76235,1727.9546l-35.5227-35.5223,50.0978-1.3132-14.5751,36.8355ZM612.05475,1681.7246l-18.1861-29.5991,31.0996-3.0369-12.9135,32.636Z"/><path class="cls-1" d="M227.00646,1368.875l-37.8638-30.1804c7.00791-5.0365,11.8035-12.4056,13.5606-20.9085,1.856-8.9805.1035-18.1465-4.9346-25.8096l-39.188-59.6054c-10.4013-15.8184-31.7324-20.2266-47.5503-9.8262l-.875.5753-7.8833-48.0089c-.16449-1.002-.8251-1.8535-1.7558-2.2607-.9302-.4102-2.0034-.3194-2.8526.2402l-30.638,20.1431-3.296-5.0132c-.9107-1.3828-2.77009-1.7676-4.1548-.8584l-30.3594,19.9599c-.7974.5245-1.2978,1.3965-1.3481,2.3496-.0498.9522.3564,1.8721,1.0942,2.4776l43.62019,35.7554c-6.7445,5.0249-11.3614,12.2475-13.0777,20.5532-1.856,8.9804-.1035,18.1465,4.9346,25.8096l39.1884,59.6044c5.0381,7.6631,12.7588,12.9053,21.7398,14.7618,2.3374.4824,4.686.7216,7.019.7216,6.0808,0,12.0373-1.6419,17.3569-4.7856l17.959,52.0054c.3023.875.9917,1.5615,1.8682,1.8603.3149.1074.6421.1602.9673.1602.5786,0,1.1528-.168,1.6479-.4932l16.0116-10.527,4.6725,8.5954c.4009.7373,1.09231,1.2734,1.90631,1.4775.24069.0606.48579.0899.72949.0899.58051,0,1.1543-.169,1.6479-.4932l27.0171-17.7627c.7412-.4873,1.229-1.2773,1.33151-2.1582.10309-.8818-.18891-1.7627-.79781-2.4082l-11.5436-12.2307,13.6242-8.9578c.8037-.5283,1.3051-1.4092,1.3491-2.3701.0434-.96-.3755-1.8838-1.127-2.4824ZM60.36387,1194.0244l23.44,35.6514c.9111,1.3837,2.7715,1.7695,4.1548.8584,1.3847-.9102,1.769-2.7706.85891-4.1553l-18.49561-28.1315,26.7778-17.6048,7.5675,46.086-26.8875,17.6784-41.8597-34.3123,24.4438-16.0703ZM108.64077,1350.5752l-39.1885-59.6045c-4.15769-6.3233-5.604-13.8877-4.07269-21.2989,1.53169-7.4111,5.85789-13.7832,12.18159-17.9404l31.9821-21.0281c.0005-.0002.0009-.0004.0009-.0004l4.7821-3.1443c4.7862-3.1465,10.1817-4.6504,15.522-4.6504,9.2256,0,18.2827,4.4912,23.7188,12.7597l39.188,59.6055c4.1577,6.3233,5.604,13.8877,4.0727,21.2988-1.5317,7.4112-5.8579,13.7832-12.1816,17.9405l-36.7652,24.1728c-13.0551,8.584-30.6572,4.9453-39.2402-8.1103ZM208.97806,1378.2544l-13.2011-13.9868c-1.1382-1.2051-3.0366-1.2598-4.2407-.1221-1.2051,1.1367-1.2598,3.0361-.1226,4.2412l26.4717,28.0469-21.3027,14.0058-23.20509-42.6865c-.79151-1.457-2.61231-1.9922-4.06831-1.2031-1.4561.791-1.99469,2.6133-1.2032,4.0683l17.2149,31.6675-13.2075,8.6831-17.1775-49.7411,28.961-19.0416,36.1334,28.8013-11.0523,7.2671Z"/><path class="cls-1" d="M142.78477,1254.2773c-10.247-2.8711-20.7993,2.1651-25.142,11.5928-10.3101-1.1817-20.0914,5.2246-22.9585,15.4717-3.0015,10.7265,2.6665,21.8047,12.9692,25.7197.3144.2607.688.4619,1.1074.5791l35.40771,9.9082c.26569.0742.53759.1113.80859.1113.5117,0,1.0205-.1308,1.4741-.3867.0308-.0176.0611-.0351.0909-.0537.0288-.0146.0571-.0303.08541-.0459.69479-.3906,1.20559-1.041,1.42039-1.8076l9.9087-35.4072c.1143-.4082.1397-.8321.0791-1.2442,2.0025-10.8389-4.5239-21.4355-15.251-24.4375ZM151.97037,1278.4082c-.0747.3144-.0967.6289-.07179.9345l-8.85991,31.6592-31.6586-8.8584c-.2491-.1806-.5298-.3252-.8374-.4248-7.8829-2.5498-12.3106-10.79-10.08009-18.7597,2.23389-7.9854,10.31049-12.7266,18.38179-10.795,1.522.3623,3.0747-.5068,3.5547-2,2.5391-7.9043,10.7842-12.3388,18.7686-10.1093,7.9702,2.2304,12.7153,10.292,10.8027,18.3535Z"/><path class="cls-1" d="M814.37957,1247.5927c-4.91852,0-9.74272,1.3194-13.95172,3.8155-.9111.54-1.4697,1.5205-1.4697,2.5801v20.4287c0,1.6572,1.3432,3,3,3h36.6763c.80512,0,1.5766-.3243,2.1406-.8985.5644-.5742.87352-1.3515.8589-2.1572-.1338-7.2207-3.0625-13.9814-8.2471-19.0352-5.1167-4.9873-11.8672-7.7334-19.00728-7.7334ZM804.95815,1271.417v-15.6436c2.916-1.4307,6.1411-2.1807,9.42142-2.1807,5.56638,0,10.82958,2.1416,14.81928,6.0303,3.3042,3.2207,5.4346,7.3291,6.1611,11.794h-30.4018Z"/><path class="cls-1" d="M835.52065,1283.7392h-33.5625c-1.6568,0-3,1.3428-3,3v36.1455c0,1.2207.7392,2.3194,1.8696,2.7793.3662.1485.7495.2207,1.1299.2207.7935,0,1.5727-.3154,2.14892-.9062l28.86958-29.6201c.1685-.1729.316-.3653.438-.5742.33842-.5762.7403-1.1231,1.1929-1.627,1.3213-1.4678,2.5083-3.1328,3.5288-4.9482.522-.9288.5122-2.0645-.0259-2.9844-.538-.9199-1.5239-1.4854-2.5893-1.4854ZM828.43905,1291.417l-23.4809,24.0918v-25.7696h24.6787c-.4356.5342-.8364,1.0957-1.1978,1.6778Z"/><path class="cls-1" d="M1041.66567,1245.3672c-15.7637-14.626-40.1621-14.3399-55.542.6504-.3376.3291-.6599.6678-.9836,1.0056-2.3059-3.7456-5.0769-7.2032-8.2713-10.3162-10.0097-9.7519-23.2138-15.1221-37.1816-15.1221-9.1416,0-18.0947,2.3282-26.0049,6.7491-7.6167-3.9942-16.147-6.0967-24.7832-6.0967-14.4932,0-28.04303,5.7148-38.15282,16.0908-2.6778,2.7461-5.0409,5.7517-7.0579,8.9636-.4045-.4299-.8062-.8634-1.22778-1.2741-15.38032-14.9903-39.77682-15.2774-55.54292-.6504-.6119.5673-.9595,1.3642-.9595,2.1992v105.2627c0,.8086.3266,1.584.9057,2.1484l.7945.7744c.5835.5684,1.3388.8516,2.09422.8516.08248,0,.16458-.0029.24708-.0098.0708.0039.1416.0039.2143.0049.7964-.0098,1.5562-.3359,2.1119-.9062l51.0916-52.4206c1.2525,2.0426,2.6273,4.0154,4.1466,5.8786.7613,1.3896,1.7251,2.6582,2.8687,3.7734l53.47952,52.1387c3.0049,2.9306,6.9717,4.5449,11.1694,4.5449.1006,0,.541-.0088.5664-.0107,4.3008-.0381,8.3223-1.754,11.3233-4.8331l52.1279-53.4882c1.1074-1.1358,2.0361-2.4248,2.7646-3.836,1.0965-1.4172,2.1175-2.8932,3.0662-4.411l51.3284,52.664c.5556.5703,1.3154.8964,2.1123.9062.0713,0,.1435-.001.2138-.0049.0821.0069.1651.0098.2471.0098.7559,0,1.5117-.2832,2.0947-.8526l.794-.7744c.5791-.5644.9053-1.3388.9053-2.1474v-105.2627c0-.835-.3477-1.6319-.96-2.1992ZM855.04265,1242.5156c8.97163-9.208,20.99513-14.2783,33.85643-14.2783,8.1821,0,16.2559,2.126,23.3496,6.1474.9429.5362,2.1025.5205,3.0283-.04,7.335-4.4219,15.7764-6.7598,24.4102-6.7598,12.3945,0,24.1123,4.7657,32.9941,13.419,3.3445,3.2591,6.1626,6.9416,8.3999,10.9631-1.6665,2.3999-3.034,4.9436-4.1206,7.5762-2.0383-4.9378-5.0901-9.5545-9.165-13.5247-14.9336-14.5508-38.1152-15.2861-53.9053-2.1211-16.1284-12.7588-39.2866-11.4257-53.83593,3.5049-3.6267,3.7197-6.389,7.9562-8.297,12.4624-1.0581-2.6216-2.4046-5.1594-4.0431-7.5693,2.0055-3.5354,4.45232-6.8299,7.3284-9.7798ZM973.95087,1276.5388c-.3731,7.6243-3.2898,15.1711-8.8077,21.302-.3242.3594-.5449.7764-.664,1.2139l-29.1865,29.9477v-28.4653c0-6.6826-5.4375-12.1201-12.1202-12.1201h-17.7602c-6.6831,0-12.1201,5.4375-12.1201,12.1201v27.636l-28.5572-27.8411c-.1308-.4355-.3623-.8467-.6953-1.1982-5.94883-6.2785-9.08523-14.186-9.42223-22.179.0602-1.1495.0697-2.3013.0309-3.4519.4669-7.9463,3.7018-15.7573,9.70243-21.9121,12.9223-13.2617,33.8208-13.9199,47.581-1.4971,1.1641,1.0518,2.9409,1.0274,4.0777-.0527,13.4267-12.7676,34.3349-12.6484,47.5986.2744,6.4944,6.3276,9.957,14.5754,10.3464,22.96-.0429,1.0871-.0488,2.1756-.0036,3.2634ZM899.29217,1334.0224v-33.4853c0-3.375,2.7456-6.1201,6.1201-6.1201h17.7602c3.375,0,6.1202,2.7451,6.1202,6.1201v34.6201l-14.0489,14.417-15.9516-15.5518ZM839.14615,1299.0576l-47.188,48.416v-98.5664c13.4341-11.5713,33.5347-11.0488,46.3149,1.4072,1.044,1.0176,2.0303,2.1074,2.9326,3.2412,4.7012,5.9087,7.1623,12.9262,7.4317,19.9987-.0526,1.0795-.065,2.16-.0305,3.2401-.43028,7.5681-3.3708,15.0151-8.7962,21.0454-.3242.3613-.5454.7793-.6645,1.2178ZM976.95377,1303.9785c-.1289.165-.2393.3418-.3311.5283-.4677.9541-1.08,1.8213-1.8193,2.5801l-52.1289,53.4892c-1.876,1.9239-4.3897,2.9971-7.1699,3.0225-.086.0039-.3487.0088-.4229.0088-2.6235,0-5.102-1.0088-6.9805-2.8408l-53.47993-52.1397c-.76567-.7461-1.4014-1.5996-1.89067-2.5381-.09663-.1855-.21243-.3603-.34572-.5224-1.9345-2.3455-3.6247-4.8786-5.0701-7.533,1.6791-2.3833,3.0709-4.904,4.1766-7.5154,1.6748,4.1592,4.0679,8.1055,7.1929,11.649.1274.5332.40233,1.0381.8237,1.4492l53.48053,52.1396c.5605.5459,1.312.8516,2.0942.8516h.0527c.0772-.002.1543-.0059.2295-.0137.8242.0508,1.6709-.2627,2.2959-.9023l52.1299-53.4903c.3984-.4082.668-.9189.7852-1.4677,2.7231-3.2522,4.8425-6.8159,6.3837-10.5498,1.0826,2.6242,2.4489,5.1645,4.1145,7.5709-1.2075,2.1706-2.583,4.2605-4.1203,6.224ZM1036.62567,1347.4726l-47.1885-48.416c-.1192-.4385-.3399-.8564-.6641-1.2168-5.5139-6.1289-8.4288-13.6728-8.8028-21.2947.0456-1.0918.0399-2.1845-.0033-3.2756.3908-8.3829,3.8528-16.6289,10.3442-22.9551,12.7793-12.458,32.8799-12.9795,46.3145-1.4072v98.5654Z"/><path class="cls-1" d="M995.19697,1255.3261c-5.1846,5.0538-8.1133,11.8135-8.2461,19.0352-.0157.8057.2939,1.583.8584,2.1572.5634.5742,1.3349.8985,2.1406.8985h36.6758c1.6572,0,3-1.3428,3-3v-20.4287c0-1.0596-.5586-2.0401-1.4698-2.5801-4.208-2.4961-9.0322-3.8155-13.9511-3.8155-7.1397,0-13.8907,2.7461-19.0078,7.7334ZM1023.62567,1271.417h-30.4014c.7266-4.4659,2.8564-8.5733,6.1602-11.794,3.9902-3.8887,9.2539-6.0303,14.8203-6.0303,3.2802,0,6.5048.75,9.4209,2.1807v15.6436Z"/><path class="cls-1" d="M1026.62567,1283.7392h-33.5625c-1.0655,0-2.0518.5655-2.5899,1.4854s-.5478,2.0566-.0254,2.9853c1.0205,1.8135,2.2071,3.4776,3.5293,4.9473.4522.5029.8535,1.0508,1.1934,1.6279.1221.208.2695.4004.4375.5733l28.8691,29.6201c.5762.5908,1.3555.9062,2.1494.9062.3799,0,.7637-.0722,1.1289-.2207,1.1309-.4599,1.8702-1.5586,1.8702-2.7793v-36.1455c0-1.6572-1.3428-3-3-3ZM1023.62567,1315.5088l-23.4805-24.0918c-.3623-.583-.7637-1.1446-1.1982-1.6778h24.6787v25.7696Z"/><path class="cls-1" d="M914.29267,1256.0205c-8.2144,0-14.897,6.6826-14.897,14.8965s6.6826,14.8964,14.897,14.8964c8.2138,0,14.8964-6.6826,14.8964-14.8964s-6.6826-14.8965-14.8964-14.8965ZM914.29267,1279.8134c-4.9058,0-8.897-3.9912-8.897-8.8964s3.9912-8.8965,8.897-8.8965c4.9052,0,8.8964,3.9912,8.8964,8.8965s-3.9912,8.8964-8.8964,8.8964Z"/><path class="cls-1" d="M1230.25747,1364.9297h-18.334c-1.6572,0-3,1.3427-3,3,0,1.6572,1.3428,3,3,3h18.334c1.6572,0,3-1.3428,3-3,0-1.6573-1.3428-3-3-3Z"/><path class="cls-1" d="M1429.25747,1209.9297h-83.667c-1.6572,0-3,1.3427-3,3v49.8129c-3.7344-.4726-7.6162.0328-11.2461,1.6265-6.7556-7.5254-17.9023-9.3022-26.7445-4.0576-2.4175-2.1558-5.3019-3.7461-8.4479-4.626-10.247-2.8711-20.7978,2.166-25.1416,11.5928-1.7221-.197-3.4249-.1646-5.0869.0434v-54.392c0-1.6573-1.3428-3-3-3h-83.666c-1.6572,0-3,1.3427-3,3v165.333c0,1.6572,1.3428,3,3,3h83.666c1.6572,0,3-1.3428,3-3v-68.1519l31.6123,8.8462c.2705.0762.543.1123.8106.1123.5566,0,1.0947-.1562,1.5576-.4385.0312-.0156.0625-.0322.0928-.0498.6943-.3906,1.205-1.04,1.4189-1.8066l3.9365-14.0679,11.5625,17.9321c.4707.7295,1.2041,1.1866,1.9961,1.3282.2393.0595.4854.0898.7334.0898.5567,0,1.1201-.1543,1.6231-.4785l21.3232-13.7494v70.434c0,1.6572,1.3428,3,3,3h83.667c1.6572,0,3-1.3428,3-3v-165.333c0-1.6573-1.3428-3-3-3ZM1426.25747,1215.9297v15.333h-77.667v-15.333h77.667ZM1259.92347,1215.9297v15.333h-77.666v-15.333h77.666ZM1182.25747,1375.2627v-138h77.666v31.7119c-5.6136,2.4955-10.0843,7.3891-11.8711,13.7763-.1145.4091-.1926.8189-.282,1.2286h-13.2629c-1.6572,0-3,1.3427-3,3,0,1.6572,1.3428,3,3,3h12.8126c.5216,7.7469,5.2572,14.7458,12.6034,18.0128v67.2704h-77.666ZM1296.40687,1312.4111l-31.6592-8.8594c-.249-.1806-.5302-.3252-.8379-.4248-7.8828-2.5498-12.3105-10.789-10.08-18.7588,2.2353-7.9863,10.3105-12.7295,18.3818-10.7959,1.5273.3623,3.0742-.5068,3.5547-2,2.5391-7.9023,10.7842-12.3398,18.7695-10.1093,1.9357.542,3.7317,1.4577,5.2985,2.6782-6.0744,6.5089-7.5654,16.2627-3.2877,24.4302.0644.4111.2138.8086.4433,1.166l4.0178,6.2313-4.6008,16.4425ZM1320.41177,1314.9902l-17.8154-27.6299c-.0664-.2998-.1807-.5937-.3448-.872-4.208-7.1377-2.0556-16.2413,4.8995-20.7256,6.9677-4.4951,16.1572-2.6875,20.9169,4.1132.8995,1.2852,2.6397,1.6592,3.9864.8614,3.9829-2.3576,8.5759-2.7295,12.6406-1.3943.0492.0154.0974.0328.1477.0459,3.1682,1.0762,6.0046,3.1958,7.9627,6.2331,2.1364,3.3129,2.832,7.1282,2.2583,10.7333-.006.0285-.0076.0582-.0129.0871-.6485,3.9306-2.8116,7.6032-6.3353,10.08-.2637.1856-.4893.4063-.6728.6514l-27.6309,17.8164ZM1348.59047,1375.2627v-71.3028l3.5772-2.3066c.3564-.2305.6562-.5303.8837-.8789,3.6391-2.8411,6.1125-6.6478,7.3352-10.7949h13.6102c1.6572,0,3-1.3428,3-3,0-1.6573-1.3428-3-3-3h-12.7325c.0054-3.9812-1.0947-8.0093-3.416-11.6094-2.3418-3.6318-5.5937-6.3027-9.2578-7.937v-27.1704h77.667v138h-77.667Z"/><path class="cls-1" d="M1396.59047,1364.9297h-18.333c-1.6572,0-3,1.3427-3,3,0,1.6572,1.3428,3,3,3h18.333c1.6572,0,3-1.3428,3-3,0-1.6573-1.3428-3-3-3Z"/><path class="cls-1" d="M1219.50747,1286.9795c0-1.6573-1.3428-3-3-3h-16c-1.6572,0-3,1.3427-3,3,0,1.6572,1.3428,3,3,3h16c1.6572,0,3-1.3428,3-3Z"/><path class="cls-1" d="M1407.99677,1283.9795h-16c-1.6573,0-3,1.3427-3,3,0,1.6572,1.3427,3,3,3h16c1.6572,0,3-1.3428,3-3,0-1.6573-1.3428-3-3-3Z"/><path class="cls-1" d="M1670.02507,1211.6123l25.6553,26.3379c.5566.5713,1.3183.8974,2.1152.9062.039,0,.0732.001.1103-.001.044.001.0879.003.1319.003.7812,0,1.5332-.3047,2.0937-.8506l26.3379-25.6553c.3027-.2959.5371-.6494.6914-1.0351,7.1729-8.3711,6.8447-20.8125-.9277-28.793h-.001c-7.4238-7.6211-19.0762-8.5615-27.5644-2.5879-8.3252-6.1934-20-5.5606-27.6241,1.8633-7.9785,7.7734-8.6328,20.2021-1.6845,28.7578.1416.3828.3632.7432.666,1.0547ZM1675.23017,1186.0986c5.9423-5.7871,15.3076-5.8359,21.3183-.1143,1.1377,1.0801,2.9141,1.1055,4.0781.0528,6.1621-5.5645,15.5225-5.2656,21.3077.6748,5.7753,5.9277,5.8339,15.2822.1347,21.2959-.2217.2334-.3984.4941-.5303.7705l-23.5507,22.9404-22.9405-23.5508c-.125-.2793-.2949-.5449-.5107-.7841-5.5391-6.1612-5.2344-15.5108.6934-21.2852Z"/><path class="cls-1" d="M1631.98717,1312.4643c-1.4392,1.4392-1.4392,3.7727,0,5.2118,1.4392,1.4392,3.7727,1.4392,5.2119,0,1.4391-1.4391,1.4391-3.7726,0-5.2118-1.4392-1.4392-3.7727-1.4392-5.2119,0Z"/><path class="cls-1" d="M1620.44557,1336.5893c-1.4392,1.4392-1.4392,3.7727,0,5.2118,1.4392,1.4392,3.7726,1.4392,5.2118,0,1.4392-1.4391,1.4392-3.7726,0-5.2118s-3.7726-1.4392-5.2118,0Z"/><path class="cls-1" d="M1652.28167,1303.0368c-1.4392,1.4392-1.4392,3.7726,0,5.2117,1.4392,1.4392,3.7724,1.4392,5.2116,0,1.4392-1.4391,1.4392-3.7725,0-5.2117s-3.7724-1.4392-5.2116,0Z"/><path class="cls-1" d="M1822.57587,1399.1982c-.8145-1.4424-2.6416-1.9551-4.087-1.1416l-7.986,4.4978-28.8465-51.2165c9.2538-6.9092,12.178-19.812,6.3628-30.1358l-40.4043-71.7373c-.3906-.6924-1.041-1.2021-1.8066-1.417-.7666-.2138-1.586-.1142-2.2803.2754l-26.802,15.096c-4.0901-5.0779-8.3102-10.8897-12.6296-17.5618-.9004-1.3916-2.7608-1.79-4.1485-.8887-.5808.3758-.9765.9219-1.1889,1.5275-.2124-.6056-.6082-1.1517-1.189-1.5275-1.3896-.8994-3.248-.5019-4.1484.8887-4.3183,6.6704-8.5439,12.4792-12.6438,17.5537l-26.7879-15.0879c-1.4453-.8105-3.2724-.3008-4.0869,1.1416l-40.4053,71.7373c-5.8144,10.3238-2.89,23.2266,6.3638,30.1358l-28.8464,51.2165-7.9861-4.4978c-1.4453-.8115-3.2744-.2998-4.0869,1.1416-.8125,1.4444-.3018,3.2735,1.1416,4.0869l10.5981,5.969c.0009.0005.0015.0012.0025.0017.0007.0005.0014.0005.0022.001l10.3083,5.8057c.4658.2617.9717.3867,1.4697.3867,1.0479,0,2.0655-.5508,2.6172-1.5283.8125-1.4444.3018-3.2735-1.1416-4.0869l-7.6963-4.3346,28.8438-51.2118c2.8244,1.1435,5.7771,1.6948,8.7021,1.6948,8.1573,0,16.0899-4.2793,20.3701-11.8779l40.4043-71.7373c.8125-1.4444.3018-3.2735-1.1416-4.087l-3.3337-1.8776c4.03-5.0589,8.1626-10.7864,12.3699-17.2854.1286-.1988.2237-.4085.3003-.6221.0765.2136.1716.4233.3003.6221,4.2072,6.499,8.3397,12.2266,12.3697,17.2854l-3.3336,1.8776c-1.4434.8135-1.9541,2.6426-1.1416,4.087l40.4043,71.7373c4.2812,7.5996,12.2129,11.8779,20.3701,11.8779,2.9243,0,5.8777-.5513,8.7022-1.6947l28.8437,51.2117-7.6963,4.3346c-1.4433.8134-1.9541,2.6425-1.1416,4.0869.5518.9775,1.5693,1.5283,2.6172,1.5283.498,0,1.0039-.125,1.4697-.3867l10.3084-5.8057c.0007-.0005.0014-.0005.0022-.001.0009-.0005.0016-.0012.0024-.0017l10.5982-5.969c1.4433-.8134,1.9541-2.6425,1.1416-4.0869ZM1653.65887,1255.0234l23.1983,13.0662c-21.7279,24.9336-39.3834,29.0891-47.1952,29.5395l23.9969-42.6057ZM1683.86387,1272.0361l-34.5904,61.4137c-.132-.7052-.4685-1.3795-1.014-1.9252-1.4393-1.4392-3.7728-1.4392-5.212,0s-1.4392,3.7726,0,5.2118c1.0561,1.0561,2.5917,1.3297,3.9041.8358l-2.0203,3.587c-4.6898,8.328-15.2763,11.2861-23.6059,6.5983-.001-.0004-.0016-.0012-.0025-.0017-8.3281-4.6904-11.2871-15.2822-6.5967-23.6084l11.5521-20.5102c.6083.0476,1.3166.0825,2.1452.0825,8.6655,0,29.016-3.6476,53.7876-32.6145l1.6528.9309ZM1743.85907,1255.0234l24.03,42.666c-7.7551-.3611-25.3679-4.3783-47.2507-29.5871l23.2207-13.0789ZM1752.58657,1341.1592l-2.0203-3.587c1.3124.4937,2.8479.2203,3.9038-.8358,1.4393-1.4392,1.4393-3.7726,0-5.2118-1.439-1.4392-3.7724-1.4392-5.2116,0-.5457.5456-.8823,1.2198-1.0142,1.925l-34.5903-61.4135,1.6524-.9307c24.7729,28.9693,45.1231,32.6143,53.788,32.6143.828,0,1.5361-.0349,2.1445-.0825l11.5518,20.5102c4.6909,8.3255,1.7329,18.9159-6.5925,23.607-.001.0006-.0022.0009-.0032.0014-.0009.0005-.0015.0013-.0024.0017-8.3277,4.6868-18.9162,1.7287-23.606-6.5983Z"/><path class="cls-1" d="M1760.31877,1312.4643c-1.4392,1.4392-1.4392,3.7727,0,5.2118,1.4392,1.4392,3.7726,1.4392,5.2116,0,1.4393-1.4391,1.4393-3.7726,0-5.2118-1.439-1.4392-3.7724-1.4392-5.2116,0Z"/><path class="cls-1" d="M1777.07217,1341.8011c1.4392-1.4391,1.4392-3.7726,0-5.2118s-3.7726-1.4392-5.2118,0-1.4392,3.7727,0,5.2118c1.4392,1.4392,3.7726,1.4392,5.2118,0Z"/><path class="cls-1" d="M1740.02427,1303.0368c-1.4392,1.4392-1.4392,3.7726,0,5.2117,1.4393,1.4392,3.7727,1.4392,5.212,0,1.4392-1.4391,1.4392-3.7725,0-5.2117-1.4393-1.4392-3.7727-1.4392-5.212,0Z"/><path class="cls-1" d="M253.00016,1703.7295h-57c-.7954,0-1.55859.3164-2.1211.8789l-4.9097,4.9092c-3.1465,3.1464-7.3291,4.8789-11.7773,4.8789h-15.1534c-5.1997,0-10.0874,2.0244-13.7636,5.7011l-10.6826,10.6817-6.7784-8.9759,34.91751-34.0134c.35839-.3496.61089-.7666.75689-1.2109,9.7646-11.2334,9.3696-28.0342-1.10989-38.793l-.00071.0007c-9.0535-9.2949-22.7867-11.1667-33.7654-5.4146v-5.8156c16.8989-10.2666,28.7168-5.6035,29.208-5.4023.8325.3574,1.7827.3174,2.584-.1065l3.2978-1.747c1.9805-1.0489,4.4097-.7237,6.0459.8056l11.2027,10.4805c.9531.8916,2.3745,1.0664,3.5146.4277l1.9253-1.0781c2.042-1.1397,4.6235-.7832,6.27781.8701l25.21,25.211c.563.5625,1.32569.8789,2.12159.8789h30c1.6567,0,3-1.3428,3-3,0-1.6573-1.3433-3-3-3h-28.7573l-24.3321-24.3321c-3.5439-3.5439-9.07419-4.3086-13.4497-1.8642l-.0127.0078-9.6015-8.9834c-3.5059-3.2774-8.7105-3.9717-12.9522-1.7266l-2.1523,1.1406c-4.2042-1.2595-17.121-3.6997-33.7422,6.6028-16.62259-10.3033-29.5381-7.8613-33.7422-6.6028l-2.1533-1.1406c-4.2412-2.2461-9.4468-1.5517-12.9512,1.7276l-9.6016,8.9824-.0136-.0078c-4.3746-2.4473-9.9043-1.6807-13.4493,1.8642l-24.3315,24.3321H3.00017c-1.6568,0-3,1.3427-3,3,0,1.6572,1.3432,3,3,3h30c.7959,0,1.5586-.3164,2.1216-.8789l25.2099-25.211c1.6543-1.6533,4.2359-2.0127,6.2769-.8701l1.92619,1.0781c1.1397.6377,2.5616.4639,3.5147-.4277l11.2026-10.4805c1.6363-1.5303,4.065-1.8545,6.0449-.8056l3.2994,1.747c.7876.417,1.74021.4551,2.5654.1143.5083-.208,12.3271-4.8711,29.2261,5.3945v6.0452c-10.9061-6.4121-25.0017-5.0178-34.459,4.1941-10.7588,10.4804-11.5947,27.2666-2.127,38.7519.13771.458.3843.8799.7242,1.2295l34.3261,35.239-4.7895,8.4182-10.3374-10.3369c-3.6763-3.6767-8.564-5.7011-13.76369-5.7011h-15.15331c-4.4488,0-8.6314-1.7325-11.7774-4.8789l-4.9096-4.9092c-.5625-.5625-1.32569-.8789-2.1211-.8789H3.00017c-1.6568,0-3,1.3427-3,3,0,1.6572,1.3432,3,3,3h55.7573l4.0308,4.0302c4.27931,4.2793,9.9687,6.6368,16.02,6.6368h15.15331c3.59669,0,6.978,1.4003,9.52149,3.9433l13.1201,13.1201c.5659.5664,1.3306.8789,2.1211.8789.13331,0,.2671-.0087.4009-.0273.9277-.125,1.7436-.6758,2.2065-1.4893l5.7171-10.049,7.8332,10.3733c.523.6933,1.3203,1.125,2.1865,1.1855.0694.0049.1387.0068.2076.0068.7929,0,1.5566-.3144,2.121-.8789l13.1202-13.1201c2.5434-2.543,5.9248-3.9433,9.5214-3.9433h15.1534c6.0508,0,11.7402-2.3565,16.01951-6.6368l4.03129-4.0302h55.7573c1.6567,0,3-1.3428,3-3,0-1.6573-1.3433-3-3-3ZM93.09147,1682.497c-8.17289-9.0888-7.7227-22.8828,1.0239-31.4023,8.7647-8.5361,22.5796-8.6123,31.45121-.1699,1.13619,1.081,2.914,1.1045,4.07809.0527,9.0903-8.2051,22.89891-7.7705,31.436.9961,8.5201,8.7461,8.608,22.5469.1997,31.418-.2695.2842-.4731.6084-.60979.9521l-33.937,33.0576-33.05761-33.9365c-.128-.3476-.3228-.6767-.5845-.9678Z"/><path class="cls-1" d="M1040.11297,1667.3545c-29.6521-16.5046-54.6809-24.2001-76.429-23.538-1.4548-5.4257-4.3254-10.5502-8.6101-14.795-9.3264-9.2408-22.7331-11.7734-34.3104-7.5173-10.6017-19.7421-30.7794-37.7148-61.58363-54.8607-1.4488-.8086-3.2749-.2861-4.0801,1.1621l-55.6465,99.9717h0l-12.144,21.8174c-.0571.1023-.0925.21-.1363.3156-.0309.074-.0711.1458-.0956.2213-.0379.1169-.0562.2356-.0791.3542-.0142.0739-.03768.1467-.0463.2208-.0141.1213-.0092.2419-.0085.363.0005.072-.00788.1445-.0023.216.0095.121.0371.2385.061.357.0141.0698.0197.1408.0386.2094.0316.1145.0805.2229.1255.3329.0277.0681.0474.139.0802.205.051.1027.1183.1969.1812.2937.04292.0659.0778.1358.1261.1986.0677.088.1504.1649.2284.2457.0591.0613.111.1277.1759.1843.0803.0699.17452.1265.2634.1885.0732.0513.1382.1102.2172.1555.4858.2793,48.7446,28.4512,61.1616,77.2022.0038.0149.0108.0279.0149.0427.0153.0565.0381.1101.0567.1655.02272.0679.0431.1355.071.2022.0208.0504.04272.0996.0661.1482.0285.0593.0628.1151.0953.1726.0142.0251.0271.0514.042.0761.0162.0268.025.0558.0422.0823.0026.0042.0066.0069.0093.011.029.0444.0631.0839.0943.1265.0402.0549.0828.1073.1269.1596.0687.0816.1407.1586.2173.2318.0277.0267.0527.0558.08132.0812.02928.026.06028.0496.09068.0745.1165.0954.2399.1802.3689.2571.0253.0149.04542.0351.0713.0495l.0403.0225h.0001l.00672.0037.00048.0002,18.13752,10.0957c.0097.0054.0203.0067.03.012.0419.0227.085.0417.1279.0625.0843.0407.1723.0725.2608.1054.0838.031.1656.0649.2519.0885.0287.008.0567.0163.0855.0232.0683.0165.1397.0224.2098.0341.1113.0188.2222.0343.3361.0403.0338.0018.0652.0112.0993.0119.0151.0008.0301.0008.0452.0008.0032,0,.0064.0012.0095.0012.0063,0,.0121-.0025.0183-.0025.044-.0002.0853-.0107.1289-.0128.1022-.005.2037-.0147.3064-.0305.0855-.0129.1696-.0271.2525-.0472.0417-.01.0824-.0191.1235-.0309.0252-.0072.0506-.0078.0757-.0158,47.98-15.1377,97.3501,11.0362,97.8433,11.3028.1381.0744.2838.1147.4272.1657.0901.032.1765.0809.2678.1038.1521.0383.3057.0441.4591.0579.0898.0081.1791.0339.2687.0339.2664,0,.5303-.0366.7854-.1057.0115-.0032.0215-.0103.033-.0136.2412-.0683.4748-.1631.6928-.2898.0682-.0395.1232-.0997.1883-.1447.1529-.1059.3078-.2089.4405-.3439.0722-.0735.1234-.1693.1886-.251.1018-.1279.2133-.2458.2954-.3933l67.7901-121.7891c.8056-1.4472.2861-3.2744-1.1621-4.08ZM1034.55877,1671.165l-52.7248,94.7232c-42.2535-23.0057-74.5384-28.0235-102.7089-15.6724l22.7921-40.9478,7.8667,7.7945c.562.5566,1.3208.8691,2.1113.8691.061.0029.1245-.001.1865-.0058.0542.0029.1109.0068.1631.0039.7964-.003,1.5591-.3223,2.1201-.8887l41.9385-42.3281c.376-.3789.6289-.8321.7617-1.3125,5.7461-6.8118,8.2721-15.3188,7.6371-23.6165,19.7997-.3872,42.724,6.6292,69.8566,21.3811ZM867.78907,1775.1909l-9.46063-5.2659,9.68253-6.2639-.2219,11.5298ZM950.85117,1633.2832c3.9367,3.9006,6.4119,8.7097,7.4219,13.7563.0009.0178-.003.0344-.0019.0523.0163.2636.0764.5121.1551.7519,1.3219,7.8494-.8839,16.1847-6.6805,22.5225-.2871.3144-.4961.6738-.625,1.0537l-39.0752,39.4375-39.4375-39.0752c-.1333-.3789-.3447-.7363-.6353-1.0479-9.83643-10.5576-9.5942-26.8496.5513-37.0898,10.165-10.2598,26.4712-10.6387,37.1216-.8594,1.1548,1.0616,2.9336,1.0537,4.0781-.0185,2.0763-1.9425,4.3771-3.4881,6.8086-4.6502.0573-.0239.1169-.034.1733-.0617.0435-.0215.0788-.0522.1208-.0754,9.8762-4.5733,21.8617-2.7824,30.0247,5.3039ZM915.33927,1624.0892c-1.2687.7545-2.5,1.6005-3.6829,2.5416-13.0039-10.1552-31.583-9.1279-43.3945,2.791-12.10303,12.2159-12.6963,31.4649-1.5786,44.3975.1401.4893.4043.9395.7724,1.3037l30.0358,29.76-23.8241,42.8018c-4.1641-30.7062-25.45332-55.6552-67.52462-79.5897l52.7324-94.7364c28.16733,16.0436,46.68553,32.6825,56.46413,50.7305ZM793.95465,1689.9917l9.2705-16.6549c43.7775,24.9171,63.97692,50.6444,65.14382,82.9474l-14.06323,9.0979c-12.7465-42.8709-50.1494-68.9446-60.3511-75.3904ZM873.77057,1776.2163l.3223-16.747c28.0691-16.0304,60.5777-12.4171,104.8235,11.6607l-9.2704,16.6546c-10.8547-5.2736-52.7222-23.3216-95.8754-11.5683Z"/><path class="cls-1" d="M1428.09337,1734.5898c-8.5002-11.4099-21.7251-18.5207-35.83-19.4099v-36.1936h18.4257c1.6573,0,3-1.3428,3-3v-20.3154c0-1.6573-1.3427-3-3-3h-46.9443c-7.2559,0-13.1582,5.9023-13.1582,13.1572,0,7.2559,5.9023,13.1582,13.1582,13.1582h22.5186v36.1936c-14.105.8892-27.3299,8-35.8291,19.4109-.9893,1.3291-.7149,3.208.6142,4.1982.5381.4004,1.166.5938,1.7901.5938.915,0,1.8193-.417,2.4082-1.208,7.489-10.0541,18.6696-16.1287,31.0166-16.9796v12.3377c-11.0569,1.0998-20.3675,8.2115-24.6158,18.0098-24.9234-7.2976-45.8715-23.3264-59.4486-44.6-1.8751-4.746-4.3045-9.2109-7.2126-13.3187-6.0141-13.2996-9.3878-28.0875-9.4823-43.7127l19.9966-41.2053h33.2617c1.6572,0,3-1.3427,3-3,0-1.6572-1.3428-3-3-3h-35.1406c-.0674,0-.1303.0154-.1966.0198-.1059.0071-.2112.0137-.3154.0317-.098.017-.1917.0433-.2863.0695-.0913.0253-.1817.05-.2702.0839-.0937.0357-.182.0792-.2707.1237-.0849.0425-.1687.085-.2495.1355-.0805.0506-.1554.1073-.2306.1651-.0788.0603-.1563.1208-.2293.1893-.0699.0654-.1321.1366-.1952.2084-.0639.0726-.1276.1443-.185.224-.0634.0882-.1168.1825-.1706.2774-.0315.0557-.0715.1038-.0999.1622l-1.4704,3.0302c1.0942-4.0665.6341-8.5422-1.6467-12.4775-3.9952-6.8965-12.1817-9.8125-19.4864-7.2998-5.0869-5.8106-13.6386-7.3516-20.5361-3.3565-7.3613,4.2647-10.1904,13.3204-6.707,20.9688.0546.3594.1767.7148.3701,1.0478l11.2749,19.4571h-23.9754l9.6087-32.8389c.1191-.4072.1484-.8203.0986-1.2158,2.0137-10.291-4.081-20.4404-14.2539-23.417-9.6875-2.834-19.75,1.792-24.0215,10.6484-9.7783-1.1767-19.0849,4.8057-21.9179,14.4912-2.9766,10.1739,2.2851,20.7784,12.0371,24.6289.3134.2608.6787.4571,1.0771.5733l24.3657,7.1299h-15.104c-1.6572,0-3,1.3427-3,3v34.9775c0,1.6572,1.3428,3,3,3h60.0303l-2.4951,5.1416c-7.6609-3.2919-16.0924-5.1221-24.9453-5.1221-34.9571,0-63.3975,28.4395-63.3975,63.3965s28.4404,63.3975,63.3975,63.3975,63.3965-28.4404,63.3965-63.3975c0-2.7802-.1994-5.5132-.5481-8.1999,1.7324,2.046,3.5424,4.0403,5.4318,5.9763,13.5662,13.9004,30.1602,23.8691,48.33,29.276-.4291,2.0199-.6591,4.1124-.6591,6.2582,0,16.5898,13.4971,30.0869,30.087,30.0869,16.5908,0,30.0878-13.4971,30.0878-30.0869,0-15.5784-11.9003-28.4273-27.0878-29.9378v-12.3377c12.3471.8509,23.5285,6.9254,31.0175,16.9786.9903,1.3311,2.8711,1.6016,4.1983.6143,1.3291-.9903,1.6035-2.8702.6142-4.1983ZM1356.58657,1665.8281c0-3.9463,3.2109-7.1572,7.1582-7.1572h43.9443v14.3154h-43.9443c-3.9473,0-7.1582-3.2109-7.1582-7.1582ZM1203.22327,1612.7461c-7.332-2.4659-11.376-10.209-9.206-17.626,2.1748-7.4326,9.7675-11.7695,17.2822-9.8779,1.5156.3789,3.0801-.4698,3.5771-1.958,2.459-7.3497,10.2071-11.4034,17.6368-9.2315,7.417,2.1709,11.7587,9.75,9.8847,17.2559-.0761.3017-.1025.6054-.0849.9023l-8.667,29.6182-29.6153-8.666c-.2402-.1748-.5117-.3174-.8076-.417ZM1256.81217,1603.3379c-2.6152-4.96-.8682-11.0459,3.9785-13.8536,4.8574-2.8125,11.0098-1.2949,14.0107,3.4541.8379,1.3282,2.5567,1.7852,3.9405,1.0489,4.9648-2.6289,11.0576-.8867,13.872,3.9697,2.8086,4.8467,1.2989,10.9951-3.4375,13.999-.2265.1436-.4277.3125-.6015.501l-19.9375,11.5527-11.5518-19.9345c-.0566-.252-.1474-.4991-.2734-.7373ZM1272.45567,1631.7666v8.5498h-58.8203v-8.5498h58.8203ZM1213.63537,1646.3164h58.8203v14.4277h-58.8203v-14.4277ZM1278.45567,1628.7666c0-1.1289-.6306-2.1001-1.5517-2.6122l15.4512-8.9533c.3252-.1884.6084-.4335.8388-.7216,1.4003-1.0052,2.5874-2.201,3.5725-3.5191l-18.3108,37.7315v-21.9253ZM1280.10907,1661.0282c.7378,7.1295,2.1396,14.1183,4.1807,20.8902-3.3033-2.816-6.8895-5.3084-10.7237-7.4073l6.543-13.4829ZM1300.62177,1730.1601c0,31.6494-25.7481,57.3975-57.3965,57.3975s-57.3975-25.7481-57.3975-57.3975,25.7481-57.3965,57.3975-57.3965c7.9143,0,15.4596,1.6104,22.3257,4.5203l-25.0249,51.5667c-.7227,1.4902-.1016,3.2851,1.3896,4.0087.4219.2041.8682.3018,1.3076.3018,1.1133,0,2.1826-.6221,2.7012-1.6914l25.0166-51.5498c7.6152,4.218,14.1677,10.119,19.1694,17.1943,1.8915,4.0303,4.0252,7.9513,6.3955,11.7438,2.6451,6.5917,4.1158,13.7764,4.1158,21.3021ZM1386.26337,1739.5764v16.1562c-6.4222-.3441-12.6801-1.2428-18.7308-2.6457,3.4725-7.2379,10.4572-12.4773,18.7308-13.5105ZM1413.35117,1763.4707c0,13.2812-10.8056,24.0869-24.0878,24.0869-13.2813,0-24.087-10.8057-24.087-24.0869,0-1.6096.1618-3.1819.4644-4.704,6.7103,1.6105,13.6066,2.6154,20.6226,2.9752v1.7288c0,1.6572,1.3427,3,3,3,1.6572,0,3-1.3428,3-3v-23.8944c11.8706,1.4823,21.0878,11.6286,21.0878,23.8944Z"/><path class="cls-1" d="M1697.97037,1585.5996c-32.9688,0-59.791,25.6142-59.791,57.0996,0,9.875,2.6943,19.6113,7.7959,28.1807,22.5351,51.8603,23.0967,82.4287,23.0996,82.7285.0127,1.6074,1.3193,2.9043,2.9277,2.9043h51.9365c1.6084,0,2.9151-1.2969,2.9278-2.9043.0029-.3018.5-30.7158,23.0957-82.7227,5.1035-8.5693,7.7988-18.3086,7.7988-28.1865,0-31.4854-26.8223-57.0996-59.791-57.0996ZM1744.77897,1668.1435c-.1221.2012-.2168.4141-.2852.6328-19.2431,44.3614-22.7187,73.003-23.3457,81.8809h-46.3545c-.6269-8.877-4.0986-37.5078-23.3388-81.8633-.0694-.2246-.167-.4433-.292-.6504-4.6631-7.7265-7.128-16.5244-7.128-25.4443,0-28.2559,24.1954-51.2441,53.9356-51.2441s53.9355,22.9882,53.9355,51.2441c0,8.9209-2.4648,17.7187-7.1269,25.4443Z"/><path class="cls-1" d="M1721.78777,1765.0097h-47.6348c-1.6172,0-2.9277,1.3106-2.9277,2.9278s1.3105,2.9277,2.9277,2.9277h47.6348c1.6172,0,2.9277-1.3105,2.9277-2.9277s-1.3105-2.9278-2.9277-2.9278Z"/><path class="cls-1" d="M1719.12957,1778.9404h-42.3174c-1.6172,0-2.9277,1.3105-2.9277,2.9277s1.3105,2.9278,2.9277,2.9278h42.3174c1.6172,0,2.9277-1.3106,2.9277-2.9278s-1.3105-2.9277-2.9277-2.9277Z"/><path class="cls-1" d="M1697.97077,1799.5978c7.9312,0,14.3609-3.591,14.3609-8.0207h-28.7219c0,4.4297,6.4297,8.0207,14.361,8.0207Z"/><path class="cls-1" d="M1697.88737,1624.916c-8.8936-6.2217-21.3008-5.4229-29.2461,2.2187-4.1553,3.9952-6.4912,9.3018-6.5781,14.9424-.0811,5.2793,1.8105,10.3233,5.3476,14.3203.1563.3877.3946.7412.7051,1.0332l15.5713,14.6983c2.3965,2.2627,3.7168,5.2676,3.7168,8.4609v63.4961c0,1.6172,1.3105,2.9277,2.9277,2.9277s2.9278-1.3105,2.9278-2.9277v-63.4961c0-4.7519-2.0235-9.3877-5.5528-12.7187l-14.8056-13.9756c-.1368-.2832-.3194-.5459-.543-.7744-2.9258-2.9912-4.502-6.8819-4.4395-10.9541.0625-4.0664,1.7608-7.9063,4.7813-10.8116,6.374-6.1259,16.5976-6.3505,23.2763-.5078,1.1104.9717,2.7735.9639,3.876-.0175,6.6211-5.9004,16.8477-5.7657,23.2803.3046,3.0518,2.8809,4.7871,6.708,4.8877,10.7774.0996,4.0693-1.4385,7.9697-4.332,10.9834-.2227.2324-.4034.4961-.5371.7822l-15.462,14.8662c-3.5019,3.3672-5.4306,7.8438-5.4306,12.6026v62.9394c0,1.6172,1.3105,2.9277,2.9277,2.9277s2.9277-1.3105,2.9277-2.9277v-62.9394c0-3.1514,1.2911-6.128,3.6338-8.3819l16.2227-15.5976c.3076-.2959.5439-.6524.6973-1.042,3.4951-4.0264,5.3369-9.0821,5.207-14.3565-.1397-5.6426-2.5264-10.9316-6.7227-14.8916-8.0185-7.5693-20.4316-8.2588-29.2646-1.9609Z"/><path class="cls-1" d="M1789.46057,1687.3359l-23-9.5264c-1.4902-.6191-3.206.0899-3.8252,1.585-.6191,1.4941.0908,3.207,1.585,3.8252l23,9.5264c.3662.1523.7451.2236,1.1191.2236,1.1485,0,2.2393-.6807,2.7061-1.8086.6191-1.4941-.0908-3.207-1.585-3.8252Z"/><path class="cls-1" d="M1768.33657,1628.1884c.1602,0,.3223-.0136.4854-.04l20-3.334c1.5947-.2666,2.6728-1.7754,2.4072-3.3701-.2666-1.5957-1.7793-2.667-3.3701-2.4072l-20,3.334c-1.5948.2666-2.6729,1.7754-2.4073,3.3701.2393,1.4326,1.4795,2.4472,2.8848,2.4472Z"/><path class="cls-1" d="M1738.00157,1588.0029c.5411.4375,1.1914.6504,1.837.6504.8544,0,1.7021-.3731,2.2802-1.0899l14.9932-18.5771c1.0156-1.2588.8193-3.1016-.4395-4.1172-1.2568-1.0166-3.1025-.8183-4.1171.4395l-14.9932,18.5771c-1.0156,1.2578-.8193,3.1016.4394,4.1172Z"/><path class="cls-1" d="M1631.05727,1677.8095l-23,9.5264c-1.4941.6182-2.2041,2.3311-1.585,3.8252.4668,1.1279,1.5577,1.8086,2.7061,1.8086.374,0,.7529-.0713,1.1191-.2236l23-9.5264c1.4942-.6182,2.2041-2.3311,1.585-3.8252-.6191-1.4951-2.335-2.2041-3.8252-1.585Z"/><path class="cls-1" d="M1608.69597,1624.8144l20,3.334c.1631.0264.3252.04.4853.04,1.4053,0,2.6455-1.0146,2.8848-2.4472.2656-1.5947-.8125-3.1035-2.4072-3.3701l-20-3.334c-1.5938-.2598-3.1035.8115-3.3702,2.4072-.2656,1.5947.8125,3.1035,2.4073,3.3701Z"/><path class="cls-1" d="M1655.39907,1587.5634c.5781.7168,1.4258,1.0899,2.2803,1.0899.6455,0,1.2959-.2129,1.8369-.6504,1.2588-1.0156,1.4551-2.8594.4394-4.1172l-14.9941-18.5771c-1.0146-1.2578-2.8594-1.4561-4.1172-.4395-1.2588,1.0156-1.4551,2.8594-.4394,4.1172l14.9941,18.5771Z"/><path class="cls-1" d="M1697.84047,1579.3633c1.6172,0,2.9277-1.3106,2.9277-2.9278v-15.0039c0-1.6172-1.3105-2.9277-2.9277-2.9277s-2.9277,1.3105-2.9277,2.9277v15.0039c0,1.6172,1.3105,2.9278,2.9277,2.9278Z"/></g></svg>