<?xml version="1.0" encoding="UTF-8"?><svg xmlns="http://www.w3.org/2000/svg" viewBox="0 0 1244.36622 838.93008"><defs><style>.cls-1{fill:#fdc0af;}.cls-1,.cls-2,.cls-3,.cls-4,.cls-5,.cls-6,.cls-7,.cls-8,.cls-9,.cls-10,.cls-11,.cls-12,.cls-13,.cls-14,.cls-15,.cls-16,.cls-17,.cls-18,.cls-19,.cls-20,.cls-21,.cls-22{stroke-width:0px;}.cls-2{fill:#2e2e2e;}.cls-3{fill:#fec5b1;}.cls-4{fill:#a5d5e9;}.cls-5{fill:#8fcbe3;}.cls-6{fill:#e6e6e6;}.cls-23{isolation:isolate;}.cls-7{fill:#00a99d;}.cls-8{fill:#1a1a1a;}.cls-9{fill:#2a2626;}.cls-10{fill:#e3b09a;}.cls-24{mix-blend-mode:soft-light;}.cls-11{fill:#ed866d;}.cls-12{fill:#b3b3b3;}.cls-13{fill:#333;}.cls-14{fill:#201d29;}.cls-15{fill:#ccc;}.cls-16{fill:#fff;}.cls-17{fill:#a2a9ae;}.cls-18{fill:#f0b2a1;}.cls-19{fill:#fdaa93;}.cls-20{fill:#fae3d5;}.cls-21{fill:#9e7164;}.cls-22{fill:#fff0ee;}</style></defs><g class="cls-23"><g id="_レイヤー_2"><g id="hand_drawn_people_family"><path class="cls-14" d="M138.80642,522.78368c-4.55031,3.5267-14.72161-.3541-19.51881-1.8508-5.695-1.7766-11.2118-4.1095-16.48019-6.9048-10.64831-5.6496-20.88221-12.7692-28.85261-21.8815-7.5138-8.5904-12.901-19.4304-12.1146-31.0772.7206-10.6742,6.0354-20.691,15.9653-25.2969,4.1482-1.9241.8818-8.2392-3.2695-6.3138-11.124,5.1595-17.6998,16.0252-19.4441,27.9271-2.04849,13.9768,3.5449,27.4137,12.346,38.0669,9.6034,11.6241,22.81151,20.5233,36.331,26.9637,6.9901,3.3298,14.2848,5.9176,21.881,7.4545,6.3139,1.2774,12.5463,2.3529,17.9386-1.8264,3.6148-2.8015-1.1785-8.0538-4.78209-5.2608Z"/><path class="cls-20" d="M1140.26092,464.49568c45.0375,7.3148,79.8065-38.4253,81.8942-74.5371.7188-17.3562-17.1955-27.6258-36.9968-28.3602-40.9211-2.097-71.4437,34.0522-63.0357,60.331,2.3301,17.0192,7.4458,40.2342,18.1383,42.5663Z"/><path class="cls-10" d="M1152.78282,429.76648c.2232,2.1231,8.5293,9.4854,15.7193,6.2322,9.2146-7.8762-2.2322-21.2311,4.5113-28.7306,7.1899-3.2532,16.6278-9.0062,11.2392-12.499-10.7772-6.9857-28.7599,13.0128-35.4879-3.2186-2.3542-5.6795-3.5595-12.5813-2.7119-19.3832-5.2214,3.4126-9.7953,7.4638-13.5675,11.9046.9352,16.3871,11.2369,32.5597,20.2975,45.6946Z"/><path class="cls-2" d="M1220.96332,379.46628c-5.364-10.0676-15.2054-17.9582-26.5003-20.1073-1.8112-.3446-3.6869.5062-4.2034,2.3866-.4585,1.6694.5646,3.8564,2.3865,4.2031,8.6765,1.651,16.2154,7.0268,20.9484,14.4534,5.1358,8.0584,6.3147,17.3296,3.6015,26.4699-2.8867,9.7254-8.9274,18.763-15.477,26.4163-6.3647,7.4365-13.8292,13.9494-22.3773,18.7599-9.2931,5.2299-19.6911,8.1179-30.3884,7.619-4.3966-.2051-4.3859,6.6292,0,6.8339,21.7557,1.0147,41.8522-10.8303,56.0265-26.5903,7.5673-8.4137,14.3051-18.252,18.0787-28.9816,3.6872-10.4846,3.1517-21.6156-2.0952-31.4629Z"/><path class="cls-5" d="M164.38171,838.93008l28.1295-108.1639,17.7355-113.0555c-46.1908,1.2946-92.3804,23.009-119.2364,60.6125-27.5691,38.6023-46.81889,118.0801-55.6126,160.6069h128.984Z"/><path class="cls-14" d="M41.89752,838.93008c14.0926-72.4191,31.6441-151.8837,96.6033-194.2547,18.5009-12.0675,39.6043-19.789,61.7435-20.954,4.5509-.2394,4.57911-7.3492,0-7.1083-39.63589,2.0856-75.6668,23.5949-100.9034,53.5426-27.6548,32.8173-43.0323,73.8028-53.2391,114.9915-4.4101,17.7969-7.9591,35.7832-11.43539,53.7829h7.23109Z"/><path class="cls-5" d="M442.54421,838.93008h128.4311c-7.6691-38.9826-27.74488-128.3996-57.5297-170.104-26.8559-37.6036-73.0454-59.3178-119.2363-60.6126l17.7355,113.0555,30.5994,117.6611Z"/><path class="cls-14" d="M404.21171,614.22428c22.1392,1.1648,43.24272,8.8864,61.7434,20.9539,67.8121,44.2317,83.9616,128.8873,98.44432,203.7519h7.225c-4.08582-21.165-8.08442-42.353-13.27022-63.28-10.20678-41.1888-25.5844-82.1743-53.2391-114.9916-25.2366-29.9476-61.2676-51.4571-100.9034-53.5426-4.5792-.2409-4.5509,6.8689,0,7.1084Z"/><polygon class="cls-20" points="374.31611 707.32778 237.81291 707.32778 239.00111 551.16448 374.31611 551.16448 374.31611 707.32778"/><path class="cls-20" d="M152.16581,521.90428c-43.0536,16.6891-87.0702-21.3011-96.7122-56.6146-4.3523-17.0322,11.229-30.9571,30.6786-35.8378,40.0727-10.6598,77.8736,18.7259,75.0618,46.5062,1.2632,17.3381,1.0683,41.3944-9.0282,45.9462Z"/><path class="cls-3" d="M132.48381,490.14828c.2244,2.1488-6.4545,11.18-14.2551,9.4674-10.7747-5.8646-2.2435-21.4874-10.4929-27.4974-7.8006-1.7126-18.351-5.4285-13.7489-10.0168,9.2043-9.1765,31.20251,6.8502,34.45851-10.6306,1.13929-6.1166.88489-13.2023-1.38111-19.7586,5.8852,2.2833,11.2633,5.3347,15.9293,8.9398,2.5116,16.4198-4.2948,34.5919-10.5098,49.4962Z"/><path class="cls-20" d="M516.0676,444.80068c46.1224-2.2055,70.9496-54.7824,65.4415-90.9717-2.9291-17.3337-22.8188-23.743-42.5766-20.3165-40.9524,6.5078-63.5876,48.6988-49.75108,72.9516,5.87688,16.3605,15.81118,38.2706,26.88618,38.3366Z"/><path class="cls-3" d="M521.1795,407.79138c.6664,2.0551,10.43392,7.6016,16.8697,2.8727,7.4705-9.7304-6.6635-20.551-1.5604-29.3901,6.4358-4.7289,14.57262-12.4043,8.5051-14.7319-12.1349-4.6552-25.7431,18.9158-35.8087,4.2576-3.5221-5.129-6.1631-11.709-6.75078-18.6208-4.45352,4.4738-8.13192,9.444-10.93492,14.6317,4.3633,16.0274,17.9546,29.8777,29.68,40.9808Z"/><path class="cls-20" d="M518.6897,304.90508c27.3098,128.8927,2.4398,243.3412-162.0916,278.2021-164.5314,34.861-233.67929-59.667-260.98919-188.5597-10.8891-51.3929-20.9753-104.5894-1.7957-148.9407,28.9226-66.8811,87.6481-118.7953,162.9503-134.7503,71.49791-15.149,142.483,5.3946,195.3194,49.7975,39.71352,33.3746,54.8881,88.9428,66.6068,144.2511Z"/><path class="cls-14" d="M392.28801,345.12418c2.0866,11.5204,10.4567,18.0407,19.0432,16.4854,8.5864-1.5552,14.1378-10.597,12.05122-22.1173-2.08662-11.5204-10.45672-18.0407-19.04322-16.4855-8.5864,1.5552-14.13778,10.597-12.0512,22.1174Z"/><ellipse class="cls-14" cx="222.56416" cy="375.86528" rx="15.80022" ry="19.61545" transform="translate(-63.42337 45.68253) rotate(-10.26606)"/><path class="cls-14" d="M425.80451,306.17308c-1.8274.8279-4.4755-1.1158-8.1028-3.3255-.466-.2722-.934-.5621-1.4017-.8707-.4769-.3006-1.0369-.5469-1.552-.8495-1.0042-.6378-2.2102-1.1292-3.3635-1.7488-2.4288-1.0847-5.0959-2.1411-8.0082-2.9833-2.9327-.7726-5.7642-1.2356-8.40588-1.5516-1.30812-.0602-2.59552-.2574-3.78482-.2255-.5974-.0049-1.2043-.081-1.7679-.0677-.5597.0246-1.11028.033-1.6501.0277-4.2471.0341-7.5171.3427-8.66-1.3059-.5354-.7957-.3816-1.948.51881-3.4344.22469-.3709.49559-.762.81269-1.1713.3251-.3918.72131-.7477,1.1522-1.1432.8732-.7589,1.9074-1.6672,3.2013-2.322.6385-.356,1.3225-.7146,2.0491-1.0726.7282-.346,1.5162-.5822,2.3348-.8709,1.6388-.6185,3.4486-.9141,5.381-1.2267,3.855-.4316,8.192-.2091,12.5241.9538,4.3134,1.2257,8.1485,3.261,11.2347,5.61,1.4974,1.26,2.8988,2.4428,3.9875,3.8146.5547.6679,1.1093,1.275,1.5567,1.9458.43992.6803.8426,1.339,1.2078,1.9724.7744,1.2263,1.1958,2.5365,1.5554,3.6363.1668.5605.3241,1.0693.402,1.5725.0622.5139.0941.9888.0963,1.4224.0096,1.7382-.4498,2.8061-1.3175,3.2141Z"/><path class="cls-14" d="M232.27381,331.12398c-.4889,1.9267-3.5725,2.8273-7.6221,4.0203-.5105.1589-1.0375.3083-1.5791.4468-.5419.1457-1.0999.3682-1.67119.5336-1.14721.299-2.33331.7822-3.57661,1.1671-2.4656.9176-5.0918,1.9695-7.7758,3.2694-2.6597,1.3513-5.0865,2.8066-7.3089,4.2152-1.05869.7573-2.1609,1.4098-3.0931,2.1424-.4771.3551-.9919.6646-1.4357,1.008-.43789.3479-.8757.6771-1.31089.9876-3.39961,2.5033-5.98171,4.4134-7.81161,3.6372-.8787-.3849-1.3898-1.4133-1.4925-3.0688-.0638-.834-.0051-1.8104.2536-2.87.2449-1.0661.5443-2.3136,1.135-3.5401.2776-.6268.5867-1.2797.9269-1.9551.3454-.6707.7861-1.3038,1.2242-1.9869.8566-1.3905,1.99241-2.6823,3.2132-4.0459,2.5308-2.6109,5.7523-5.0901,9.5165-6.9866,3.7856-1.8496,7.7078-2.9144,11.3171-3.3505,1.8243-.1473,3.5397-.2702,5.1649-.1114.8089.0644,1.5796.0963,2.3226.2269.7436.1378,1.4505.2865,2.1174.4446,1.334.2714,2.5088.7875,3.5058,1.2372,1.0004.4352,1.8136.9792,2.4391,1.5343,1.2562,1.0832,1.7661,2.1122,1.5412,3.0447Z"/><circle class="cls-1" cx="203.64646" cy="451.88153" r="50.37058" transform="translate(-259.88183 276.35283) rotate(-45)"/><path class="cls-19" d="M186.36981,438.36788c-1.57139,6.1165-3.1428,12.233-4.7141,18.3495-.2179.8483-.2999,1.6053.0745,2.4364.3208.7122,1.0204,1.4204,1.7755,1.6701,1.4892.4925,3.6638-.1268,4.1065-1.85,1.5714-6.1165,3.1427-12.233,4.7141-18.3495.2179-.8483.2999-1.6054-.0745-2.4364-.3209-.7122-1.0205-1.4204-1.7755-1.6701-1.4893-.4926-3.6638.1268-4.1065,1.85h0Z"/><path class="cls-19" d="M210.02831,424.61768c-2.31389,12.5549-4.6278,25.1099-6.9417,37.6648-.3119,1.6924,1.214,3.3315,2.8315,3.5036,1.8231.1939,3.1909-1.1352,3.5036-2.8315,2.3139-12.555,4.6278-25.1099,6.94171-37.6648.31189-1.6924-1.214-3.3316-2.83151-3.5036-1.8232-.1939-3.191,1.1352-3.5036,2.8315h0Z"/><circle class="cls-1" cx="446.91531" cy="405.82238" r="50.37057" transform="translate(-156.0613 434.87947) rotate(-45)"/><path class="cls-19" d="M432.35161,389.40098c-1.564,9.3529-3.128,18.7057-4.692,28.0585-.2838,1.6971,1.1942,3.3294,2.8316,3.5036,1.8001.1914,3.2191-1.1304,3.5035-2.8315,1.564-9.3529,3.128-18.7057,4.6919-28.0585.28382-1.6971-1.1941-3.3294-2.8315-3.5036-1.8002-.1915-3.2191,1.1304-3.5035,2.8315h0Z"/><path class="cls-19" d="M456.91101,388.00298c-1.13658,6.2812-2.2732,12.5624-3.4098,18.8436-.2975,1.6439,1.201,3.4011,2.8315,3.5036,1.8285.115,3.1861-1.0771,3.5036-2.8315,1.1366-6.2812,2.2732-12.5625,3.4098-18.8437.2974-1.6439-1.201-3.401-2.8316-3.5035-1.8285-.115-3.18608,1.0771-3.5035,2.8315h0Z"/><path class="cls-14" d="M290.18371,422.10008c2.4575,12.3374,12.9891,22.4344,25.2503,24.9323,12.9325,2.6347,25.7417-3.531,32.5786-14.7159,3.8282-6.2629,5.4614-13.4654,4.546-20.7489-.2871-2.2836-2.9307-3.7296-5.0459-3.2814-2.40929.5105-3.56929,2.7557-3.2815,5.0458.1341,1.0664.1699,1.8189.1095,3.2017-.0425.9728-.2489,2.7296-.3441,3.2048-.44719,2.2347-1.3803,4.79-2.2779,6.4656-2.2929,4.2806-5.5244,7.8165-9.4647,10.0938-4.268,2.4667-8.4051,3.3489-13.3247,2.7475-4.3868-.5362-8.8846-2.5983-12.5937-5.6884-3.9253-3.2701-6.8174-7.9652-7.8246-13.0213-1.0705-5.3741-9.3984-3.6129-8.3273,1.7644h0Z"/><path class="cls-14" d="M324.46121,377.80998c5.2499,5.7238,2.0216,15.1308-5.6401,16.457-4.80669.832-4.4175,8.4804.4291,7.6414,14.5429-2.517,20.2241-18.9832,10.2393-29.8694-3.3194-3.619-8.3307,2.1705-5.0283,5.771Z"/><path class="cls-21" d="M22.11892,313.63258c-5.43049-5.5819-10.4468-11.4163-13.5991-18.4926-9.5857-21.5186,3.3099-49.1092,13.8757-70.1638,16.9778-33.8316,34.2025-68.0392,58.8492-96.7682,24.837-28.9508,58.3849-52.2331,96.276-56.8877,24.958-30.101,58.5835-53.0713,95.9403-64.712C294.69661-.00902,317.95742-3.01392,339.03751,4.08318c14.1457,4.7624,26.4174,13.7466,38.4363,22.5969,31.7298,23.3646,63.45961,46.7292,95.1894,70.0938,18.0045,13.2578,36.2979,26.8005,49.55222,44.8076,19.77568,26.8673,26.51838,61.5646,25.17078,94.8979-1.3163,32.5597-9.7459,64.3488-18.2911,95.8096-14.899,3.7243-32.0166-4.1518-42.3981-16.2061-12.0393-13.9793-17.5098-32.2438-24.0547-49.4929-3.1385-8.2716-6.7841-16.6503-11.46188-24.1815-8.51292,10.4522-23.08812,15.7679-36.30932,12.9037-10.9829-2.3793-20.4804-10.2839-25.33668-20.3577-20.64491,18.1455-49.52041,26.6406-76.69511,22.3713-28.4164-4.4643-54.3231-22.7843-68.00289-48.0883-6.29-11.635-10.41881-25.0024-20.32821-33.7626-10.4412-9.2302-30.744-9.2419-34.4994,5.0695-19.4351.9439-36.5799,16.9846-43.77939,35.5036-7.842,20.1715-6.51781,42.6009-4.67081,64.1642,1.8469,21.5634,4.0401,43.7595-2.2606,64.4643-2.7559,9.056-7.38459,17.9493-15.0861,23.4532-5.945,4.2486-14.00249,5.9623-20.8477,3.9019-5.3005,23.4038-1.86679,48.8277,10.50321,69.5529-21.17931-5.6444-35.96151-26.8198-44.34511-47.703-9.1452-22.78-16.4235-44.9904-31.9248-64.024-4.6887-5.7571-10.2739-10.875-15.4786-16.2249Z"/><path class="cls-14" d="M310.65421,251.00858c-19.7924-5.7721-37.7087-17.1545-51.3973-32.57-3.338-3.7591-6.4458-7.7379-9.2066-11.9408-3.0677-4.6702-5.7024-9.6007-8.5362-14.4121-5.4604-9.2711-12.0385-18.575-22.3612-22.7429-9.9207-4.0055-22.532-2.9126-29.1091,6.3339-2.58539,3.6348,3.2205,7.3939,5.79761,3.7706,4.77379-6.7116,14.33939-6.3476,21.35359-3.4485,9.1867,3.7972,14.7487,13.294,19.4789,21.5077,5.2392,9.0977,10.6242,17.9181,17.642,25.7836,6.7509,7.5662,14.5411,14.2703,23.0079,19.8488,9.5841,6.3147,20.1347,11.2218,31.1534,14.435,4.27221,1.246,6.456-5.3175,2.177-6.5653Z"/><path class="cls-14" d="M452.14691,241.33458c-8.6099,8.113-20.7404,11.1584-32.3181,9.5238-11.6059-1.6385-21.719-8.6359-28.7908-17.7737-3.94458-5.0969-6.9411-11.0171-8.8099-17.1798-.5419-1.7873-2.15969-3.0771-4.0996-2.6661-1.7089.3621-3.2112,2.3022-2.666,4.0996,2.1231,7.0018,5.4247,13.6302,9.7784,19.4637-.2672.2082-.5236.4484-.74949.7636-2.15911,3.0122-6.01981,4.3759-9.32781,5.7058-4.3468,1.7473-8.7704,3.2814-13.2619,4.6128-9.0448,2.6813-18.3141,4.5383-27.6869,5.5982-1.85839.2103-3.0267,2.3975-2.6661,4.0996.41871,1.9757,2.2359,2.8768,4.0996,2.6661,10.0347-1.1349,19.9507-3.1859,29.5976-6.1778,4.84751-1.5032,9.6406-3.2187,14.3313-5.1578,3.856-1.5942,7.4783-3.5707,10.1149-6.8278,2.6264,2.7664,5.5241,5.2845,8.6982,7.4732,11.0727,7.6351,25.04812,10.4586,38.195,7.4813,7.5234-1.7038,14.589-5.2856,20.2142-10.5864,3.2345-3.0478-1.4015-8.1819-4.6526-5.1183Z"/><path class="cls-14" d="M183.39151,182.18218c-10.223-.299-20.2625,3.0802-28.2563,9.4553-7.2436,5.7771-12.1781,14.0562-14.8434,22.8534-5.6923,18.7878-2.0655,38.3155-.24839,57.3776,1.08629,11.3958,1.37659,23.1193-1.95631,34.1898-1.2838,4.2639,5.2808,6.4445,6.5654,2.177,5.9482-19.7569,1.36891-40.0956-.1896-60.1179-1.2423-15.9605-.3889-34.8866,11.0369-47.3612,6.9928-7.6344,17.12-11.9718,27.4755-11.6691,4.4473.13,4.87011-6.7748.4162-6.9049Z"/><path class="cls-14" d="M138.47861,332.92808c-1.97,5.4884-4.12019,10.91-6.4686,16.2474-2.029,4.6113-4.1473,9.2502-7.2022,13.2896-5.72039,7.5641-15.717,10.9313-24.82739,8.1835-4.26351-1.2859-6.44391,5.2785-2.17711,6.5655,11.1317,3.3574,23.5444-.1045,31.1462-8.9443,3.8564-4.4845,6.427-9.7825,8.8362-15.1415,2.6566-5.9096,5.0695-11.925,7.2583-18.023,1.5079-4.2008-5.0629-6.363-6.5654-2.1772Z"/><path class="cls-14" d="M436.18911,59.63408c-17.6374-10.6714-35.2531-21.3792-52.9139-32.0114-16.1145-9.7013-32.7266-18.8711-51.3896-22.457-36.7269-7.0569-74.0425,5.5102-105.3096,24.3084-18.8867,11.3548-36.2863,24.9697-53.4884,38.687-3.4804,2.7751,1.1789,7.8883,4.6525,5.1185,29.0761-23.1856,59.5687-46.9272,95.8155-57.5329,16.7276-4.8945,34.3333-7.0086,51.6774-4.7001,17.9566,2.3903,34.0695,10.4076,49.491,19.5191,19.3433,11.4287,38.4718,23.2353,57.6945,34.8659,3.8056,2.3026,7.5883-3.4877,3.7706-5.7975Z"/><path class="cls-14" d="M568.2882,335.92178c-11.9333-7.1257-25.8631-5.569-38.92678-2.9594,1.00818-38.2779,15.23808-74.7204,17.92908-112.8295,1.3877-19.6513-.1966-39.8369-7.8025-58.1851-7.442-17.9523-21.14158-32.5661-34.9759-45.8527-15.5729-14.9564-32.74168-28.2405-51.143-39.536-3.7923-2.3281-7.57268,3.4635-3.7702,5.7977,15.9784,9.8086,31.0508,21.0893,44.8683,33.7665,6.9645,6.3897,13.6641,13.098,19.9458,20.1619,6.3157,7.1023,12.09042,14.6784,16.3577,23.2042,17.5045,34.9733,8.7725,75.9485.9083,112.2413-4.3173,19.9235-8.6318,40.022-9.21258,60.4576-18.25192-9.4649-34.04082-23.208-45.94272-39.9891-3.4487-4.8626-6.4935-10.0211-9.206-15.3269-2.024-3.9585-8.1749-.7933-6.1431,3.1809,10.05182,19.6609,25.0139,36.7007,43.1456,49.2961,5.07122,3.5227,10.3918,6.6684,15.9107,9.4363,1.0718.5375,2.2744.6235,3.2976.1939.6012.6058,1.471.9454,2.5643.7108,11.6548-2.5011,24.1805-5.1876,35.6483-.4669,4.952,2.0384,9.0347,5.5435,11.6326,10.2393,2.7876,5.0384,4.2409,10.8021,4.8792,16.4966,1.2337,11.0062-1.2006,22.221-5.4197,32.3603-4.2739,10.2708-10.567,20.0378-18.5979,27.7706-8.7171,8.3933-20.1148,14.7651-32.565,12.886-1.582-.2388-3.0467,1.2844-3.1354,2.7789-.1022,1.7189,1.1912,2.8959,2.7789,3.1355,12.2552,1.8497,24.0541-3.4973,33.3121-11.1949,9.5191-7.9147,16.7891-18.4059,22.0602-29.5346,5.1817-10.9399,8.3424-23.196,7.69232-35.3614-.66422-12.4302-4.80642-26.1399-16.09022-32.8779Z"/><path class="cls-14" d="M139.94791,53.87098c-1.8656-.0448-3.5471,1.3335-3.6607,3.2444-.108,1.8168,1.3696,3.6156,3.2444,3.6607,3.0263.0728,4.9207.411,7.74781,1.401.665.233,1.32179.4901,1.96849.7702.0656.0284.5138.2311.6068.2696.2229.1092.4439.2221.6632.3377,1.24951.6587,2.4524,1.4043,3.5989,2.2294,1.9699,1.4176,3.8002,3.1638,5.53661,5.3982.56159.7226.51009.6465.91579,1.2723.3828.5906.744,1.1955,1.0813,1.8132.3092.5667.5983,1.1444.8667,1.7314.1466.3207.2869.6439.4207.9701.0486.1183.4506,1.1945.2479.6133.6151,1.763,2.1059,3.0885,4.0995,2.6661,1.6482-.3492,3.2857-2.3239,2.66611-4.0996-4.41311-12.6452-16.46361-21.9522-30.00351-22.278Z"/><path class="cls-14" d="M153.83101,79.99678c-10.2532-3.9825-21.3755-5.7123-32.3511-4.9615-1.8606.1274-3.5399,1.2121-3.66049,3.2444-.09971,1.6773,1.36919,3.7889,3.24439,3.6607,10.45161-.7148,20.8242.8285,30.5903,4.6219,4.1609,1.6162,6.3139-4.9588,2.1769-6.5655Z"/><path class="cls-14" d="M122.69581,89.94028c-22.2223,11.5759-38.4299,31.8766-55.0093,50.0749-5.24209,5.7538-10.484,11.5077-15.726,17.2616-1.2559,1.3786-1.5733,3.4117-.2329,4.8854,1.166,1.2823,3.6209,1.6208,4.8854.2331,9.0779-9.9645,18.1543-19.9304,27.2339-29.8933,8.0898-8.8765,16.2536-17.7678,25.5524-25.4082,5.1273-4.2127,10.5879-7.9427,16.4774-11.0106,3.9416-2.0531.7792-8.2056-3.1809-6.1429Z"/><path class="cls-14" d="M112.32642,441.11638c-16.39211-3.9273-27.76231-17.2327-35.45671-31.5224-9.1368-16.9678-13.2854-35.9851-20.8814-53.6098-4.0091-9.3023-9.0554-18.2767-15.8564-25.8411-6.30349-7.0112-14.0233-12.5341-20.6627-19.1999-6.8485-6.8758-11.5486-14.8606-12.4325-24.6827-.9246-10.2753,1.9473-20.6543,5.4201-30.2172,3.7887-10.4322,8.489-20.5695,13.1371-30.6406,4.6904-10.1625,9.609-20.2183,14.7434-30.1638,1.3173-2.5518,2.6499-5.0956,3.99411-7.6335.87359-1.649.65059-3.7018-1.01361-4.7838-1.4587-.9488-3.9056-.6445-4.784,1.0136-10.87939,20.5361-21.1142,41.5473-29.9358,63.0568-4.1625,10.1493-7.7574,20.8342-8.484,31.8556-.70459,10.6885,1.8392,21.0001,8.11241,29.7343,5.63509,7.8461,13.49649,13.6659,20.56419,20.1218,7.4504,6.8053,13.298,14.6211,17.8343,23.633,9.0846,18.0479,13.0747,38.1333,21.9186,56.2758,7.6042,15.5996,18.9627,30.7518,35.604,37.2964,1.9545.7685,3.9601,1.3836,6.0021,1.8728,1.815.4349,3.748-.3169,4.3711-2.1942.5499-1.6571-.3702-3.9344-2.19429-4.3711Z"/><path class="cls-14" d="M364.39251,234.10518c-17.3012-11.7312-30.7413-29.1321-37.47609-48.9534-.60071-1.7679-2.11651-3.0862-4.09961-2.666-1.6603.3518-3.2707,2.3195-2.666,4.0996,7.3501,21.6323,21.5362,40.4784,40.4712,53.3173,3.6908,2.5028,7.4567-3.2981,3.7705-5.7975Z"/><path class="cls-9" d="M234.80742,357.41338c-33.73411-2.2445-62.90051,23.2829-65.14491,57.017-2.2445,33.7341,23.28291,62.9004,57.017,65.1449,33.7341,2.2444,62.9004-23.2829,65.1448-57.017,2.2445-33.7341-23.2828-62.9004-57.01689-65.1449ZM227.22931,471.31128c-29.1234-1.9377-51.2406-27.2078-49.30289-56.331,1.93769-29.1234,27.20769-51.2406,56.33109-49.3029,29.1235,1.9377,51.2407,27.2077,49.303,56.3312-1.9377,29.1232-27.2078,51.2404-56.3312,49.3027Z"/><g class="cls-24"><circle class="cls-6" cx="230.74344" cy="418.49438" r="52.93377" transform="translate(-196.99342 631.61704) rotate(-87.61424)"/></g><g class="cls-24"><path class="cls-16" d="M204.74151,464.58948c4.6056,2.6072,9.649,4.5508,15.0113,5.6853l61.8073-66.6117c-1.7396-5.9378-4.5034-11.4654-8.0913-16.3702l-68.7273,77.2966Z"/></g><g class="cls-24"><path class="cls-16" d="M234.25751,365.67738c-3.3238-.2212-6.5965-.1256-9.791.2546l-46.5567,49.3521c-.4111,6.7588.4758,13.3036,2.441,19.3944l68.6483-65.8719c-4.6303-1.704-9.5748-2.7855-14.7416-3.1292Z"/></g><path class="cls-9" d="M420.12221,322.78188c-33.7341-2.2445-62.9004,23.2829-65.1449,57.0169-2.2444,33.7341,23.2829,62.9005,57.017,65.1449,33.73412,2.2445,62.9004-23.2829,65.1449-57.0169,2.2444-33.7341-23.2829-62.9005-57.017-65.1449ZM412.54421,436.67968c-29.1235-1.9377-51.2407-27.2077-49.303-56.3309,1.9377-29.1235,27.2078-51.2407,56.33121-49.303,29.12338,1.9377,51.24058,27.2078,49.30288,56.3312-1.9377,29.1232-27.2077,51.2404-56.3311,49.3027Z"/><g class="cls-24"><circle class="cls-6" cx="416.05829" cy="383.86281" r="52.93379" transform="translate(-105.85931 603.08228) rotate(-65.47891)"/></g><g class="cls-24"><path class="cls-16" d="M390.05642,429.95798c4.60548,2.6071,9.649,4.5508,15.01118,5.6853l61.8073-66.6118c-1.73948-5.9378-4.5033-11.4654-8.0912-16.3702l-68.72728,77.2967Z"/></g><g class="cls-24"><path class="cls-16" d="M419.57242,331.04578c-3.32382-.2211-6.59652-.1255-9.791.2546l-46.55671,49.3521c-.4111,6.7588.47571,13.3036,2.4409,19.3944l68.6484-65.8718c-4.6303-1.7041-9.5748-2.7855-14.74158-3.1293Z"/></g><path class="cls-9" d="M359.86291,387.95148c-.6256.1169-1.295.0073-1.8756-.3593-.1616-.1012-16.7648-10.3003-38.3547-6.2656-21.5897,4.0347-33.3889,19.5416-33.5054,19.6978-.8636,1.1561-2.5014,1.3959-3.6585.5343-1.15729-.8616-1.3997-2.496-.5398-3.6546.5223-.7041,13.0661-17.2947,36.7428-21.7193,23.6769-4.4248,41.36571,6.5159,42.1071,6.9838,1.2217.7708,1.587,2.386.816,3.6076-.40439.6409-1.0415,1.0462-1.7319,1.1753Z"/><path class="cls-9" d="M234.80742,357.41338c-33.73411-2.2445-62.90051,23.2829-65.14491,57.017-2.2445,33.7341,23.28291,62.9004,57.017,65.1449,33.7341,2.2444,62.9004-23.2829,65.1448-57.017,2.2445-33.7341-23.2828-62.9004-57.01689-65.1449ZM227.22931,471.31128c-29.1234-1.9377-51.2406-27.2078-49.30289-56.331,1.93769-29.1234,27.20769-51.2406,56.33109-49.3029,29.1235,1.9377,51.2407,27.2077,49.303,56.3312-1.9377,29.1232-27.2078,51.2404-56.3312,49.3027Z"/><g class="cls-24"><circle class="cls-6" cx="230.74344" cy="418.49438" r="52.93377" transform="translate(-196.99342 631.61704) rotate(-87.61424)"/></g><g class="cls-24"><path class="cls-16" d="M204.74151,464.58948c4.6056,2.6072,9.649,4.5508,15.0113,5.6853l61.8073-66.6117c-1.7396-5.9378-4.5034-11.4654-8.0913-16.3702l-68.7273,77.2966Z"/></g><g class="cls-24"><path class="cls-16" d="M234.25751,365.67738c-3.3238-.2212-6.5965-.1256-9.791.2546l-46.5567,49.3521c-.4111,6.7588.4758,13.3036,2.441,19.3944l68.6483-65.8719c-4.6303-1.704-9.5748-2.7855-14.7416-3.1292Z"/></g><path class="cls-9" d="M420.12221,322.78188c-33.7341-2.2445-62.9004,23.2829-65.1449,57.0169-2.2444,33.7341,23.2829,62.9005,57.017,65.1449,33.73412,2.2445,62.9004-23.2829,65.1449-57.0169,2.2444-33.7341-23.2829-62.9005-57.017-65.1449ZM412.54421,436.67968c-29.1235-1.9377-51.2407-27.2077-49.303-56.3309,1.9377-29.1235,27.2078-51.2407,56.33121-49.303,29.12338,1.9377,51.24058,27.2078,49.30288,56.3312-1.9377,29.1232-27.2077,51.2404-56.3311,49.3027Z"/><g class="cls-24"><circle class="cls-6" cx="416.05829" cy="383.86281" r="52.93379" transform="translate(-105.85931 603.08228) rotate(-65.47891)"/></g><g class="cls-24"><path class="cls-16" d="M390.05642,429.95798c4.60548,2.6071,9.649,4.5508,15.01118,5.6853l61.8073-66.6118c-1.73948-5.9378-4.5033-11.4654-8.0912-16.3702l-68.72728,77.2967Z"/></g><g class="cls-24"><path class="cls-16" d="M419.57242,331.04578c-3.32382-.2211-6.59652-.1255-9.791.2546l-46.55671,49.3521c-.4111,6.7588.47571,13.3036,2.4409,19.3944l68.6484-65.8718c-4.6303-1.7041-9.5748-2.7855-14.74158-3.1293Z"/></g><path class="cls-9" d="M359.86291,387.95148c-.6256.1169-1.295.0073-1.8756-.3593-.1616-.1012-16.7648-10.3003-38.3547-6.2656-21.5897,4.0347-33.3889,19.5416-33.5054,19.6978-.8636,1.1561-2.5014,1.3959-3.6585.5343-1.15729-.8616-1.3997-2.496-.5398-3.6546.5223-.7041,13.0661-17.2947,36.7428-21.7193,23.6769-4.4248,41.36571,6.5159,42.1071,6.9838,1.2217.7708,1.587,2.386.816,3.6076-.40439.6409-1.0415,1.0462-1.7319,1.1753Z"/><path class="cls-9" d="M464.8936,356.43378s52.7257-28.5428,63.0896-31.3725c10.3638-2.8296,11.2371,7.2879,11.2371,7.2879l-65.9924,35.5062-8.3343-11.4216Z"/><path class="cls-9" d="M173.32242,412.52218s-73.58941,5.0752-88.76631,4.3934c-15.177-.6818-9.39969,10.3418-9.39969,10.3418l97.94629,4.4549.21971-19.1901Z"/><path class="cls-5" d="M479.1895,838.93008c-1.65808-28.3126-2.7569-51.666-2.8966-65.6342-.3829-38.3806-2.3082-69.1241-10.456-94.4119-8.5859-26.6448-23.97748-46.2843-48.43748-61.8055-10.81132-6.8615-23.79182-12.847-39.68271-18.3002,0,0-21.2739,94.791-74.5042,94.791s-66.4308-94.7905-66.4308-94.7905c-92.173,31.6291-94.3932,81.1472-98.4246,171.0403l-.1452,3.2291c-.713,15.8494-2.0484,38.9319-3.7393,65.8819h344.71689Z"/><path class="cls-4" d="M375.32442,598.43718s20.09228-1.4987,24.99758,20.7743-31.6878,127.4442-31.6878,127.4442c0,0-44.3404-54.2712-65.9501-54.2712,0,0,62.598-43.6238,72.64031-93.9473Z"/><path class="cls-4" d="M238.03781,598.43718s-25.5206-1.4987-30.4259,20.7743,26.3902,124.564,26.3902,124.564c0,0,41.9517-51.6323,63.5614-51.6323,0,0-49.4834-43.3825-59.5257-93.706Z"/><path class="cls-14" d="M519.2722,444.72498c-5.883,28.861-20.4507,55.3732-41.1942,76.2422-10.3419,10.4046-22.1088,19.3232-34.9773,26.3743-13.9552,7.6465-28.6288,11.2775-43.6197,16.1645-15.2272,4.964-31.2509,15.4905-31.1579,33.3527.0238,4.5727,7.13231,4.5824,7.1084,0-.09609-18.4585,20.526-25.1382,35.0104-29.1527,14.018-3.8852,27.4368-8.9938,40.0202-16.3654,24.4507-14.3238,45.0135-35.3389,58.9262-60.016,7.8558-13.934,13.5436-29.0367,16.7383-44.7099.9103-4.4657-5.94-6.376-6.8544-1.8897h0Z"/><path class="cls-14" d="M148.04281,526.98998c10.8779,16.0677,24.7247,29.8674,40.9072,40.5921,7.8543,5.2054,16.2086,9.5895,24.9131,13.1901,4.57231,1.8914,9.2314,3.5252,13.96931,4.9495,4.15779,1.25,15.01409,4.0587,11.84169,10.6642-1.9713,4.1044,4.1559,7.7143,6.1379,3.5877,4.52341-9.4183-3.2037-16.8043-11.6272-19.7494-10.6348-3.7183-20.9827-6.9221-30.9519-12.3415-19.63449-10.6735-36.5256-25.9773-49.0523-44.4804-2.5505-3.7674-8.7118-.2143-6.1378,3.5877h0Z"/><path class="cls-14" d="M304.90311,695.13888c31.3409-19.057,55.5575-47.9966,69.0124-82.0908,1.6797-4.2562-5.1918-6.1027-6.8544-1.8897-12.7502,32.3085-36.0912,59.811-65.7458,77.8426-3.9032,2.3734-.3352,8.5232,3.5878,6.1379h0Z"/><path class="cls-14" d="M298.04371,690.19868c-28.4857-16.8856-44.6055-48.0924-52.9145-79.1495-1.1811-4.4148-8.04-2.5418-6.8545,1.8896,8.1746,30.5547,23.74371,61.0003,50.0803,79.4483-21.084,8.3882-39.3579,22.6543-52.5729,41.0809-4.5978-22.0973-11.7331-43.5612-17.23769-65.4454-3.02781-12.0379-6.32921-24.7272-6.39861-37.2068-.0605-10.8963,4.8925-24.8186,17.663-25.6277,4.5432-.2877,4.5757-7.3982,0-7.1083-10.879.6891-19.2578,8.6182-22.7365,18.6837-4.4295,12.8164-1.0718,27.5393,1.6399,40.3601,6.1557,29.104,16.6575,57.1141,21.8024,86.4554.5527,3.1517,5.022,3.2697,6.4962.849,13.7095-22.5129,35.1244-39.5331,60.1839-47.7331,2.8644-.9373,3.56171-4.8882.849-6.4962Z"/><path class="cls-14" d="M398.63861,605.28728c-.3464-4.6348-7.4128-4.6734-7.0636,0,3.473,46.4672-10.8464,91.1728-25.9268,134.3688-13.5905-23.7892-34.8803-42.1532-60.0315-52.0082-4.25229-1.6661-6.09129,5.3589-1.8778,7.0099,25.8706,10.1368,47.1307,30.2339,59.5109,55.6602,1.4712,3.0216,5.5025,1.8436,6.4552-.8681,16.2339-46.2129,32.66441-94.2451,28.9336-144.1626Z"/><circle class="cls-12" cx="198.08614" cy="786.65748" r="38.57421"/><path class="cls-15" d="M198.08581,816.35038c-16.3723,0-29.6926-13.3203-29.6926-29.6925s13.3203-29.6933,29.6926-29.6933,29.6932,13.3203,29.6932,29.6933-13.3202,29.6925-29.6932,29.6925Z"/><circle class="cls-14" cx="198.08614" cy="786.65748" r="17.62366"/><path class="cls-14" d="M242.05831,589.42378c-10.7643.2531-20.9162,5.9077-27.8458,14.2528-8.7645,10.5545-12.2539,24.1146-14.2624,37.4117-4.4899,29.7258-5.8296,59.8992-6.23069,89.9259-.22631,16.9318-.119,33.8654-.01021,50.7976.0151,2.3534,2.0589,4.6093,4.5,4.5,2.4251-.1086,4.51621-1.9775,4.5-4.5-.188-29.2494-.3734-58.5226,1.1627-87.743.767-14.5886,1.96451-29.1589,3.8037-43.6532.3911-3.0822.7137-5.5346,1.2885-9.078.5208-3.211,1.1284-6.4094,1.8909-9.5722.7566-3.1377,1.6653-6.2423,2.7991-9.2655.2221-.5921.45531-1.1801.6951-1.7656.0791-.18.29621-.689.3114-.7226.1165-.2602.2347-.5196.355-.7781.7226-1.5525,1.5157-3.0727,2.3853-4.5481.7796-1.3228,1.6291-2.5974,2.5367-3.8352.1259-.1633.3515-.4597.3925-.5103.3268-.4013.6614-.7964,1.0034-1.1849.514-.584,1.04491-1.1532,1.5917-1.7067,1.0953-1.1084,2.2586-2.1406,3.4677-3.1228.058-.0471.1049-.0855.14551-.1191.04749-.0325.10389-.0714.17559-.1216.3701-.2592.7328-.5281,1.1063-.7826.6907-.4706,1.3967-.9188,2.1183-1.3404.6623-.387,1.3367-.7536,2.023-1.0964.3416-.1705.686-.3355,1.0333-.4943.11051-.0506.4681-.1949.6243-.2591,1.4317-.5433,2.881-1.0139,4.3791-1.3467.2443-.0543.4895-.1053.7352-.1532.1296-.0251.78691-.1226,1.0048-.1617.6294-.0684,1.2596-.1288,1.8926-.1521.14251-.0052.2849.0061.4274.0033v-8.8779Z"/><path class="cls-17" d="M368.26831,838.93008c-1.0002-12.3869-1.6888-21.3753-1.7075-21.6232-.1456-1.8973-1.7947-3.3188-3.7013-3.1764-1.899.1452-3.3217,1.8023-3.1764,3.7013.0189.2454.6884,8.9796,1.6661,21.0983h6.9191Z"/><path class="cls-17" d="M462.30601,838.93008c1.2926-12.3616,2.19242-21.322,2.2173-21.5706.1904-1.8949-1.1928-3.5849-3.0881-3.7752-1.9025-.1869-3.5847,1.195-3.775,3.0882-.0251.252-.9584,9.5487-2.2886,22.2576h6.9344Z"/><path class="cls-14" d="M367.81011,820.98998l-10.1412-.1196.4249-36.0123c.3534-29.9493,25.0053-54.0256,54.9552-53.6723,29.9498.3534,54.0268,25.0046,53.67342,54.954l-.41892,35.505-10.1412-.1197.4189-35.505c.2874-24.3558-19.2956-44.4061-43.6519-44.6935-24.3565-.2874-44.40688,19.2953-44.6943,43.6511l-.4249,36.0123Z"/><path class="cls-14" d="M416.54942,735.26118c-.46552-23.0876-.93112-46.1751-1.39662-69.2626-.9027-20.8416,2.17462-44.5443-10.7033-62.4366-6.504-8.5213-16.4498-15.0859-27.5668-14.2481-2.60729.1965-5.1375,2.1636-5.01,5.01.114,2.5456,2.2113,5.2208,5.01,5.0099,1.48271-.1158,2.9743-.0969,4.4509.0883-1.1298-.1378.2483.0716.64281.1569.97909.2116,1.94359.4887,2.888.8225.35709.1262,1.40719.5638.48679.1585,1.8695.8107,3.6289,1.8538,5.2826,3.0405.17.1153.7504.5765-.02738-.0385,2.07418,1.6301,3.94148,3.5169,5.58748,5.5768,10.3026,13.4764,8.3137,36.3483,8.9056,55.1974.4766,23.6417.9533,47.2833,1.4301,70.925.05282,2.6184,2.2665,5.1328,5.0099,5.0099,2.6692-.1195,5.0666-2.2027,5.00992-5.0099h0Z"/><path class="cls-5" d="M827.09642,838.93008l26.7997-103.051,17.7356-113.0555c-46.1909,1.2948-92.38042,23.0089-119.23642,60.6126-26.497,37.101-45.3122,111.971-54.5428,155.4939h129.24392Z"/><path class="cls-14" d="M704.282,838.93008c13.9439-71.018,32.1699-147.7658,95.60392-189.1418,18.5007-12.0676,39.6042-19.7891,61.7434-20.9539,4.5509-.2395,4.5792-7.3493,0-7.1084-39.6359,2.0855-75.66683,23.595-100.90342,53.5425-27.6548,32.8174-43.0323,73.8029-53.2391,114.9917-3.9925,16.1116-7.2787,32.3784-10.4447,48.6699h7.2399Z"/><path class="cls-5" d="M1102.59962,838.93008h128.7404c-8.3334-41.2148-27.9605-125.0173-56.5093-164.9912-26.856-37.6035-73.0455-59.3178-119.2363-60.6125l17.7354,113.0554,29.2698,112.5483Z"/><path class="cls-14" d="M1065.59682,619.33708c22.1392,1.1651,43.2426,8.8865,61.7434,20.9539,66.273,43.2279,83.2016,125.0644,97.4546,198.6391h7.2293c-3.7515-19.4626-7.5166-38.9252-12.285-58.1672-10.2067-41.1887-25.5842-82.1743-53.239-114.9914-25.2365-29.9478-61.2676-51.4571-100.9033-53.5428-4.5793-.2409-4.551,6.8689,0,7.1084Z"/><polygon class="cls-20" points="1018.10452 712.44058 917.30222 712.44058 904.37672 556.27738 1021.75362 556.27738 1018.10452 712.44058"/><path class="cls-7" d="M1140.27872,838.93008c-1.4917-26.003-2.4697-47.405-2.6008-60.5214-.3829-38.3807-2.3081-69.1241-10.4561-94.4118-8.5857-26.6449-23.9774-46.2843-48.4374-61.8055-10.8112-6.8614-42.1725-16.2729-58.0634-21.7263,0,0-2.8932,98.217-56.1235,98.217s-56.1566-103.7193-56.1566-103.7193c-92.173,31.6292-104.6673,90.076-108.6988,179.9692l-.1452,3.2291c-.6674,14.8367-1.8808,36.0168-3.42,60.769h344.1018Z"/><path class="cls-20" d="M772.6902,464.49568c-45.0375,7.3148-79.8065-38.4253-81.8942-74.5371-.7188-17.3562,17.1955-27.6258,36.9969-28.3602,40.921-2.097,71.44372,34.0522,63.0356,60.331-2.33007,17.0192-7.4458,40.2342-18.1383,42.5663Z"/><path class="cls-10" d="M760.1683,429.76648c-.2232,2.1231-8.5293,9.4854-15.7193,6.2322-9.21458-7.8762,2.2323-21.2311-4.5113-28.7306-7.1899-3.2532-16.6277-9.0062-11.2392-12.499,10.7772-6.9857,28.75992,13.0128,35.48792-3.2186,2.35418-5.6795,3.55948-12.5813,2.71188-19.3832,5.2214,3.4126,9.7953,7.4638,13.5675,11.9046-.9352,16.3871-11.2369,32.5597-20.2975,45.6946Z"/><path class="cls-20" d="M1171.44922,329.79788c0,130.1922-47.4829,235.7338-213.6731,235.7338s-213.67312-105.5416-213.67312-235.7338c0-51.9111,1.1456-105.4012,28.7703-144.3465,41.65772-58.7289,109.05992-96.8853,185.12132-96.8853,72.2187,0,136.6311,34.3984,178.6126,88.144,31.5546,40.3969,34.842,97.2219,34.842,153.0878Z"/><ellipse class="cls-2" cx="1061.73217" cy="340.21213" rx="20.07175" ry="16.16774" transform="translate(690.23018 1391.40468) rotate(-88.30316)"/><ellipse class="cls-2" cx="869.15117" cy="340.21213" rx="20.07175" ry="16.16774" transform="translate(503.35201 1198.90826) rotate(-88.30318)"/><path class="cls-14" d="M1087.38442,307.85078c-2.0049.4412-4.2435-2.0662-7.4059-5.0476-.4087-.3713-.8158-.7607-1.2185-1.1689-.4136-.402-.9219-.7673-1.3734-1.1796-.87-.8514-1.973-1.5991-2.9961-2.4639-2.2013-1.601-4.6471-3.2242-7.3837-4.685-2.7719-1.3954-5.5082-2.4594-8.0856-3.3361-1.2967-.3377-2.5436-.8082-3.7409-1.0285-.597-.1316-1.1883-.3364-1.7553-.4428-.5656-.094-1.1185-.2023-1.6578-.3222-4.2587-.8666-7.5976-1.2513-8.392-3.144-.3671-.9101.0312-2.031,1.2478-3.328.3036-.3236.6577-.6576,1.0619-1.0001.4086-.3232.8807-.5955,1.3959-.9,1.0352-.5745,2.263-1.2644,3.6972-1.6454.7146-.2209,1.4754-.4348,2.2787-.6392.8024-.1918,1.6412-.2612,2.522-.3765,1.7717-.2716,3.6461-.1836,5.6467-.0867,3.9506.3856,8.2449,1.5283,12.3349,3.6112,4.0578,2.1419,7.4652,4.9927,10.0564,7.9987,1.2317,1.5789,2.3837,3.0601,3.1826,4.6644.4135.7862.84,1.5115,1.1456,2.2779.296.7743.5595,1.5191.7907,2.2306.5151,1.3919.659,2.7928.7857,3.97.0481.5964.0977,1.1392.069,1.6594-.0468.5276-.1156,1.0098-.2054,1.4443-.359,1.742-1.0454,2.7136-2.0005,2.938Z"/><path class="cls-14" d="M888.36052,295.17828c-.898,1.8249-4.1759,2.0724-8.4827,2.4078-.5447.0507-1.1039.0885-1.6756.1123-.5733.031-1.1791.1353-1.786.1797-1.2118.056-2.5016.2881-3.8279.4097-2.6628.3956-5.5148.8916-8.4773,1.6236-2.9491.7886-5.687,1.7306-8.2105,2.6693-1.2205.5336-2.4622.953-3.5507,1.4886-.553.2543-1.1339.4549-1.6511.7045-.5121.2554-1.0201.4921-1.5217.7106-3.934,1.7848-6.924,3.1492-8.5911,1.9841-.798-.5717-1.0915-1.7095-.8432-3.3885.113-.8483.3789-1.8133.8626-2.8192.4713-1.0152,1.0356-2.2006,1.8871-3.303.4107-.5686.8586-1.1566,1.3424-1.7606.4881-.5981,1.0635-1.1384,1.647-1.7292,1.1524-1.2104,2.5633-2.2626,4.0746-3.3687,3.0872-2.0768,6.838-3.8753,11.0083-4.9753,4.1818-1.0486,8.334-1.2827,12.0395-.9537,1.8574.2395,3.6007.4803,5.1939.984.7961.236,1.5608.4314,2.2769.7198.7151.2956,1.3912.5944,2.0253.8941,1.2778.5546,4.8548,3.3469,5.3632,4.0353,1.0278,1.3508,1.3199,2.489.897,3.3748Z"/><path class="cls-14" d="M971.87482,360.68498c2.2151-3.4563-3.2878-6.6494-5.4918-3.2102-2.5359,3.9571-.0897,7.4796-.7736,11.6514-.6959,4.2453-5.2835,7.7574-9.5542,7.1211-4.004-.5965-5.7314,5.5311-1.6907,6.133,5.5262.8234,10.7215-1.0464,14.3118-5.4184,1.7055-2.0769,2.8471-4.5213,3.2275-7.1849.383-2.682-1.4799-6.8278-.029-9.092Z"/><circle class="cls-18" cx="835.79797" cy="410.32608" r="49.77349" transform="translate(-10.11905 21.28863) rotate(-1.45052)"/><path class="cls-11" d="M821.86482,393.72388c-2.7719,5.5909-5.5437,11.1818-8.3155,16.7727-.3844.7754-.6187,1.4905-.427,2.3705.1643.7542.6955,1.5821,1.3743,1.9781,1.3387.7812,3.5677.6279,4.3486-.9472,2.7718-5.5909,5.5436-11.1818,8.3154-16.7727.3844-.7754.6187-1.4904.427-2.3705-.1643-.7542-.6955-1.5821-1.3742-1.9781-1.3388-.7812-3.5678-.6278-4.3486.9472h0Z"/><path class="cls-11" d="M847.55142,385.27768c-4.8083,11.6627-9.6167,23.3254-14.425,34.9881-.6482,1.5721.4912,3.4692,2.0196,3.9668,1.7226.5609,3.3171-.4438,3.9668-2.0195,4.8083-11.6628,9.6166-23.3255,14.425-34.9882.6481-1.5721-.4912-3.4692-2.0196-3.9668-1.7227-.5609-3.3172.4438-3.9668,2.0196h0Z"/><circle class="cls-18" cx="1080.39607" cy="415.62798" r="49.77347" transform="translate(-17.47502 48.63838) rotate(-2.55828)"/><path class="cls-11" d="M1069.68092,396.77078c-3.4275,8.7209-6.855,17.4418-10.2825,26.1627-.622,1.5824.4724,3.463,2.0196,3.9668,1.7009.5538,3.3433-.4334,3.9667-2.0196,3.4276-8.7209,6.8551-17.4418,10.2826-26.1627.622-1.5824-.4724-3.4631-2.0196-3.9668-1.7009-.5538-3.3433.4334-3.9668,2.0196h0Z"/><path class="cls-11" d="M1093.70852,400.44958c-2.3852,5.8391-4.7705,11.6783-7.1557,17.5175-.6243,1.5282.4643,3.5337,2.0195,3.9668,1.7441.4856,3.3006-.3887,3.9668-2.0196,2.3853-5.8392,4.7705-11.6783,7.1558-17.5175.6242-1.5282-.4644-3.5337-2.0196-3.9668-1.744-.4856-3.3006.3887-3.9668,2.0196h0Z"/><path class="cls-2" d="M908.48712,405.22548c23.7948,6.3049,48.8649,7.0162,73.2616,4.5847,7.2952-.7271,14.5631-1.7386,21.7872-2.9857,1.8198-.3141,2.8412-2.5488,2.3865-4.2032-.5287-1.9239-2.3782-2.7016-4.2032-2.3865-23.6966,4.0906-48.2514,5.5838-72.1436,2.268-6.4947-.9014-12.9336-2.1876-19.2718-3.8671-4.2553-1.1275-6.0708,5.4626-1.8167,6.5898h0Z"/><path class="cls-21" d="M1200.29472,196.27668c8.5679,7.0997,15.2837,16.3844,18.8014,26.9685,8.1232,24.441-1.5624,53.5402-22.3005,68.6457-6.5955,27.1271-15.9479,53.5836-27.8718,78.8266-12.2471-34.7511-24.4941-69.5022-36.7412-104.2533-5.4544-.6112-10.8917-4.753-13.8405-9.7256-4.1923-7.0696-5.3467-15.5405-8.9388-22.9332-8.9906-18.5026-31.6626-26.6712-52.2213-25.9511s-40.1412,8.3606-60.1042,13.3259c-19.9631,4.9653-42.1038,7.0237-60.2333-2.6974-18.2607-9.7916-29.0543-35.2915-16.9899-52.2463-45.8596-1.6289-92.5266,15.6253-125.1357,48.0776-40.79772,40.6015-57.9125,103.3221-43.98742,159.0853-30.2263-11.177-51.2008-41.7617-53.2469-73.5459-32.20818-19.2934-46.1453-64.6798-29.6115-98.5686,12.1729-24.9503,36.76432-41.1849,54.0697-62.8925,21.9572-27.5426,31.8284-63.4839,55.2687-89.7758,31.61802-35.4643,84.05192-47.2499,130.76852-38.5911,44.7233,8.2893,84.8122,32.8507,119.8891,61.9593,36.8261-7.5623,77.5591,2.1041,104.9815,28.1143,22.2092,21.0653,34.1743,51.4155,34.9443,81.942,11.8619,1.462,23.2583,6.5777,32.4998,14.2356Z"/><path class="cls-14" d="M990.98672,217.67408c-12.2316,6.709-27.1106,7.5722-40.1957,2.8899-12.5441-4.4887-22.5732-14.6964-27.5423-26.988-2.8628-7.0812-4.0614-14.6555-3.4645-22.2683.1444-1.842-1.6739-3.4169-3.4169-3.4169-1.9691,0-3.2721,1.5696-3.4169,3.4169-1.6385,20.896,4.834,30.7958,14.4419,41.4775,10.4834,11.6549,25.9614,17.9034,41.5678,17.5532,8.9011-.1997,17.666-2.4797,25.4759-6.7634,3.8571-2.1156.4128-8.0192-3.4493-5.9009Z"/><path class="cls-14" d="M1102.59482,216.09848c-18.329-10.9909-40.8228-11.855-58.9235-23.2594-8.5364-5.3782-15.815-13.0236-17.8946-23.1692-.3704-1.8086-2.5089-.4764-4.2031-.0108-1.8796.5166-2.7582.0137-2.3865,1.8276,3.9922,19.481,23.3086,30.3925,40.6806,36.1632,18.5075,6.1478,41.3293,9.4589,52.732,27.2129,4.9625,7.7273,7.4628,17.6719,2.8253,26.1334-2.1146,3.8587,3.7843,7.3111,5.9009,3.4492,9.824-17.9251-3.0279-38.9306-18.7311-48.3469Z"/><path class="cls-14" d="M1195.55622,286.64718c-1.9865,0-3.2501,1.5713-3.417,3.4169-1.9904,22.0135-7.3844,43.7054-15.8013,64.1399-2.0375,4.9466-4.2995,9.8-6.7087,14.5766-3.7864-31.1287-20.3345-58.7271-29.3023-88.4845-2.6401-8.761-4.6035-17.7318-5.2475-26.8727-.1298-1.841-1.4776-3.4169-3.417-3.4169-1.7488,0-3.5474,1.5662-3.4169,3.4169,2.3692,33.6213,20.528,62.8111,29.9876,94.5247,2.6148,8.7664,4.5352,17.7383,5.1314,26.8802.1202,1.8418,1.4846,3.4169,3.417,3.4169,1.4302,0,2.859-1.0444,3.2818-2.4295,1.4549.7647,3.3265.6023,4.3029-1.2837,10.5321-20.3509,18.0323-42.2585,22.0058-64.8319,1.1449-6.5037,2.0065-13.0595,2.6011-19.636.1665-1.8404-1.6894-3.4169-3.4169-3.4169Z"/><path class="cls-14" d="M838.87792,143.53018c-10.9155,11.8085-17.2243,27.3661-17.5679,43.4489-.0939,4.3993,6.74,4.3985,6.8339,0,.1658-7.7627,6.0274-28.2973,15.5663-38.6166,2.9818-3.2258-1.8391-8.0702-4.8323-4.8323Z"/><path class="cls-14" d="M783.9843,220.98368c-10.8456-1.2904-26.3813-14.265-16.5027-32.4575,2.099-3.8658-3.7994-7.3195-5.9009-3.4492-9.3546,17.2277,3.1692,40.4519,22.4036,42.7406,1.8356.2184,3.417-1.7267,3.417-3.4169,0-2.0284-1.576-3.1979-3.417-3.417Z"/><path class="cls-14" d="M762.5327,255.54308c-9.4817,10.6717-13.4856,24.5798-15.7807,38.3834-2.7315,16.4283-4.1827,33.1181-4.5848,49.7623-.1912,7.914-.1064,15.8312.21022,23.7402-11.98862-5.9177-22.20912-15.3591-29.233-26.7252-4.23232-6.8488-7.30122-14.322-8.98132-22.2014-.86968-4.0803-1.2268-8.2889-2.8203-12.1807-1.9417-4.7424-5.42538-7.5461-9.7643-10.0438-3.9729-2.2869-7.3818-5.0728-9.87508-8.9781-2.49862-3.9139-3.97122-8.3669-4.14842-13.0135-.1671-4.3836-7.0017-4.4054-6.8338,0,.3515,9.2207,4.61822,18.2769,11.8213,24.1299,1.9053,1.5483,3.9418,2.8119,6.0642,4.0361,1.7932,1.0345,3.6772,2.0857,4.9652,3.7558,2.5841,3.35,2.8749,8.1376,3.6132,12.1492,3.13032,17.0098,12.5689,32.8171,25.5987,44.1169,7.456,6.4661,15.99,11.4739,25.3137,14.722,1.7426.607,3.7376-.6917,4.2031-2.3866.5172-1.8819-.6374-3.5939-2.3866-4.2032-.1938-.0676-.3834-.1466-.5769-.2161-.7501-15.7138-.5262-31.4678.7271-47.1508.6397-8.0022,1.5273-15.9883,2.7159-23.9279,1.0035-6.7044,2.25932-13.4,4.3088-19.8722,2.195-6.9317,5.4181-11.2207,10.2759-16.6884,2.9124-3.2779-1.9039-10.5038-4.8321-7.2079Z"/><path class="cls-14" d="M1212.39462,215.64388c-5.1257-8.2448-12.4074-14.0945-20.5-19.254-7.2863-4.6453-15.5437-8.9889-20.7609-16.1135-3.1142-4.2529-4.6058-9.1765-5.73-14.2661-1.1365-5.1447-2.1232-10.2912-3.6782-15.3336-2.9508-9.5677-7.2043-18.7755-12.5739-27.2254-10.9803-17.2792-26.5791-31.6304-45.0159-40.6142-19.4602-9.4825-41.6659-13.434-63.185-10.8042-2.7749.3391-5.5368.7628-8.2824,1.2913-1.8129.349-2.848,2.5243-2.3865,4.2033.5212,1.8966,2.3849,2.7365,4.2035,2.3865,20.227-3.8938,41.4237-1.53,60.4657,6.2397,18.0117,7.3492,33.7743,20.0718,45.0399,35.9022,5.5165,7.7521,10.0896,16.22,13.3651,25.1587,1.6517,4.5081,2.9958,9.1254,4.0259,13.8148,1.1606,5.2828,2.0055,10.6759,4.064,15.7096,3.6525,8.9324,10.735,15.0376,18.6223,20.2342,7.3511,4.843,15.3188,8.9987,21.3865,15.5102,11.705,12.5609,15.2458,31.6237,10.5191,47.9066-.5752,1.9823-1.2556,3.9427-2.0902,5.8314-.7454,1.6866-.4922,3.6701,1.226,4.675,1.4532.85,3.9251.4707,4.6749-1.2259,7.5997-17.196,6.603-37.9529-3.3899-54.0266Z"/><path class="cls-14" d="M1022.63982,47.13958c-1.6731-.4598-3.8518.5655-4.2031,2.3865-1.6755,8.6829-2.1743,17.5372-1.3271,26.3432.1768,1.8369,1.4442,3.4169,3.4169,3.4169,1.7112,0,3.5948-1.5689,3.417-3.4169-.5615-5.8363-.9196-14.1485,1.0828-24.5265.3493-1.8102-.5092-3.6874-2.3865-4.2032Z"/><path class="cls-14" d="M1009.09852,56.67888c-.6133-.9025-1.1282.5164-1.5794-.4745-.5092-1.3061-.8739-5.0313-1.0921-6.416-.0818-.8237-.1251-1.6491-.1015-2.4784.0514-1.7882-1.6083-3.4979-3.4169-3.4169-1.8953.0849-3.3619,1.501-3.4169,3.4169-.1288,4.4915,1.1775,9.0978,3.7059,12.818.5042.7422,1.1559,1.3263,2.0421,1.5704.8176.2252,1.9067.1235,2.6328-.3445,1.4689-.9472,2.3004-3.094,1.226-4.675Z"/><path class="cls-14" d="M992.53832,49.09858c-23.8518-22.321-54.7197-36.8596-87.0515-41.3844-31.9205-4.4672-64.2751.9635-93.0131,15.5644-28.19513,14.325-51.76842,36.864-67.26562,64.4229-8.7241,15.5145-15.596,32.2756-26.807,46.2636-10.6912,13.3397-23.9809,24.2302-35.8031,36.5042-5.8104,6.0325-11.4335,12.4456-15.8972,19.5571-3.8541,6.1403-6.8586,12.8911-8.8557,19.86-3.8616,13.4752-4.0384,28.945,3.311,41.3124,1.7869,3.007,4.0119,5.7747,6.5309,8.1983,3.1703,3.0499,8.0091-1.7761,4.83242-4.8324-9.49772-9.1369-11.882-22.7013-9.79072-35.3217,2.3886-14.4122,9.5072-26.9093,19.0368-37.7921,10.99592-12.5577,23.9896-23.1572,35.26392-35.4483,5.79258-6.315,11.00118-13.1044,15.48308-20.4115,4.6374-7.5608,8.6058-15.5025,12.6782-23.3743,7.3434-14.1938,15.50072-27.6233,26.349-39.4362,10.1624-11.066,21.9006-20.6023,34.79592-28.3086,26.1365-15.6194,56.4218-23.2077,86.8376-21.2153,30.9842,2.0295,61.6367,13.6803,85.8736,33.1525,2.9821,2.3958,5.8662,4.9081,8.6591,7.5217,3.2091,3.003,8.0518-1.8195,4.8324-4.8323Z"/><path class="cls-2" d="M774.6256,462.11348c-1.0024-1.7137-2.997-2.0099-4.6751-1.2259-9.0262,4.2174-19.6007,3.0638-28.6185-.5377-9.6043-3.8356-17.63958-10.9418-24.7221-18.2965-7.3117-7.5928-14.6778-15.6372-20.1888-24.662-5.3712-8.7956-8.9176-19.5574-6.2349-29.8556,2.3224-8.9159,10.9554-17.5725,20.8427-16.2423,1.8264.2456,3.6678-.4382,4.2032-2.3866.4371-1.5911-.5456-3.9555-2.3865-4.2032-10.8413-1.4585-21.2763,4.5634-26.4973,14.0542-5.94688,10.8103-4.407,24.0238.4004,34.9239,4.8675,11.0365,13.1935,20.3123,21.2324,29.1415,7.834,8.604,16.5301,16.9693,27.07732,22.1551,11.94408,5.8728,26.03378,7.5606,38.34138,1.8101,1.6718-.7811,2.0964-3.1867,1.2258-4.675Z"/><path class="cls-2" d="M910.39872,571.79298c-2.3518-5.8292-5.8729-10.9385-10.8992-14.7734-6.004-4.5812-13.4143-6.4951-20.5467-8.5611-25.8626-7.4912-49.766-21.2792-69.3658-39.726-10.9906-10.344-20.57943-22.074-28.45292-34.9518-2.2905-3.7465-8.2034-.317-5.9008,3.4491,14.1382,23.1244,33.66532,42.7876,56.52942,57.3199,11.4207,7.259,23.6945,13.1952,36.469,17.6614,6.6855,2.3374,13.6986,3.7981,20.2746,6.4291,5.5822,2.2334,10.2613,5.9028,13.339,11.0949,6.8424,11.5424,6.011,26.455,5.0717,39.325-.1346,1.8427,1.6666,3.417,3.4169,3.417,1.9611,0,3.282-1.5689,3.417-3.417.8974-12.2953,1.3476-25.6183-3.3522-37.2671Z"/><path class="cls-2" d="M1134.72772,475.66608c-11.1768,21.3404-28.5298,38.8898-48.9714,51.4874-10.2604,6.3232-21.2367,11.4356-32.6874,15.1954-6.3087,2.0714-12.7925,3.7311-18.7418,6.7536-5.9069,3.0009-10.7784,7.5493-14.0932,13.294-8.3708,14.5058-6.0147,31.6326-3.5484,47.3848.2856,1.8248,2.5687,2.8358,4.2031,2.3866,1.946-.5348,2.6731-2.3732,2.3865-4.2033-2.0759-13.2584-4.3669-27.9844,1.9784-40.4881,2.7589-5.4367,6.8536-9.5482,12.2716-12.3436,5.629-2.9043,11.8766-4.3726,17.8579-6.3585,22.8381-7.5827,44.1432-20.2153,61.2155-37.2349,9.5581-9.5282,17.7655-20.4629,24.0301-32.4242,2.0384-3.8921-3.8574-7.3508-5.9009-3.4492Z"/><path class="cls-22" d="M1064.00942,838.93008h176.3113c-10.7499-57.9846-25.8804-115.6315-61.2555-162.0893-35.1935-46.2192-99.7506-76.7333-157.3117-84.3032,27.0975,64.2591,39.7862,134.9743,41.4671,204.7397.3345,13.8825.5876,27.7672.7888,41.6528Z"/><path class="cls-8" d="M1034.69132,639.98858c4.8596,15.8561,8.9448,31.9474,12.312,48.1852,1.6787,8.0951,3.179,16.227,4.507,24.3868,1.3389,8.2267,2.4212,15.8977,3.3877,23.9618,1.9641,16.3905,3.2672,32.8594,3.9495,49.3526.7261,17.552.9134,35.1368,1.169,52.7007.0017.1181.0032.2363.0049.3544h8.0017c-.2101-15.6687-.4492-31.3425-.953-47.0033-.5331-16.5678-1.6879-33.1169-3.5038-49.5941-1.8421-16.7133-4.3325-33.3611-7.5559-49.8647-3.1804-16.282-7.073-32.4266-11.7312-48.3496-4.6206-15.7946-9.999-31.37-16.1804-46.6223.3503.0573.7016.1089,1.0517.1678,2.729.4594,5.4502.9652,8.1624,1.5153,5.3939,1.094,10.7524,2.3628,16.0664,3.7951,10.875,2.9314,21.5671,6.5407,32.0002,10.7837.6123.249,1.2235.5003,1.834.7538.301.125.6021.2509.9026.3771.1123.0481.6902.2928.7017.2977,1.3388.5719,2.6731,1.1544,4.0026,1.7476,2.6001,1.16,5.1819,2.3609,7.7441,3.6028,5.1766,2.5089,10.2728,5.1848,15.2721,8.0308,4.9118,2.7962,9.7307,5.7565,14.4367,8.8866,2.3357,1.5534,4.6435,3.1487,6.9207,4.7865,1.1069.7963,2.2068,1.6026,3.2989,2.419.5188.3879,1.036.7781,1.5513,1.1704.2601.1982.5196.3972.7789.5965.086.0676.5037.3917.5614.4368,8.6588,6.7684,16.8078,14.2096,24.1776,22.3683,1.7922,1.9839,3.5374,4.0103,5.2315,6.0786.822,1.0037,1.6308,2.0181,2.4285,3.041.0383.0491.0537.0686.0722.0921.0313.0412.0503.0664.0929.1225.2492.3278.4992.6548.7472.9833.5212.6901,1.0386,1.3831,1.5518,2.0791,3.6587,4.9628,7.1142,10.0746,10.3692,15.3109,6.5161,10.4831,12.2228,21.458,17.2306,32.7366,4.762,10.7248,9.1527,22.5767,12.8861,34.2498,7.6593,23.9481,13.1226,48.5406,17.7636,73.232.1108.5903.216,1.1818.326,1.7723h8.1045c-4.3024-23.3171-9.2632-46.5421-16.0509-69.2725-7.22-24.1775-16.5427-47.8822-29.1709-69.7738-6.1924-10.7347-13.159-21.0945-21.0478-30.6607-7.0218-8.5149-14.9068-16.3021-23.3543-23.3976-17.7423-14.9027-37.7925-26.9447-58.9731-36.2821-20.8937-9.2109-42.8682-16.0415-65.4157-19.7473-2.8595-.47-5.7273-.8784-8.6-1.2585-2.3945-.3169-4.7921,2.843-3.8571,5.0633,6.3855,15.164,11.9736,30.657,16.7949,46.3877Z"/><path class="cls-22" d="M863.07972,838.93008c.2256-13.8856.4956-27.7703.8301-41.6528,1.6809-69.7654,13.3695-140.4806,40.4669-204.7397-57.5609,7.5699-122.11802,38.084-157.31162,84.3032-35.3751,46.4578-50.5056,104.1047-61.2555,162.0893h177.27012Z"/><path class="cls-8" d="M689.8698,838.93008c4.1591-22.3184,8.956-44.5401,15.4122-66.3149,7.0918-23.9182,15.8158-46.34,28.1852-67.9514,3.0534-5.3347,6.3013-10.5586,9.7513-15.6459,1.7741-2.6163,3.6016-5.1964,5.4825-7.7369.4289-.5794.8605-1.1565,1.2949-1.7316.2481-.3285.4976-.6559.7472-.9833.0286-.0376.0457-.0599.0687-.0901.8659-1.1147,1.7471-2.2179,2.6427-3.309,6.91792-8.4285,14.6827-16.1468,23.0021-23.1886,2.1616-1.8297,4.3654-3.6068,6.59482-5.3532.03358-.0264.14838-.1152.23008-.1786.2677-.2062.53592-.4116.8046-.6163.5155-.3923,1.0325-.7825,1.5514-1.1704,1.1442-.8555,2.29693-1.6995,3.4574-2.5329,4.623-3.3197,9.37233-6.4632,14.22423-9.4381,9.7466-5.976,19.9071-11.2736,30.3536-15.9162,1.2095-.5376,2.4229-1.0662,3.6399-1.5861.0116-.005.6147-.2604.709-.3009.2373-.0996.4746-.199.7122-.2977.7321-.3047,1.4658-.6061,2.2007-.9044,2.6285-1.0672,5.2734-2.0935,7.9335-3.079,5.2842-1.9577,10.6282-3.754,16.0225-5.3839,10.6447-3.216,21.4891-5.7906,32.4589-7.6187.2296-.0383.4601-.072.6899-.1096-5.3738,13.3004-10.1122,26.854-14.2412,40.5925-4.766,15.8581-8.7306,31.954-11.9728,48.1912-3.2894,16.4731-5.8297,33.0937-7.7434,49.7817-1.8889,16.4727-3.1316,33.0179-3.7983,49.5844-.7063,17.5472-.917,35.1234-1.2044,52.6817-.0034.2021-.0063.4041-.0095.6062h7.9981c.2382-15.5911.4985-31.1861.9834-46.7705.5151-16.5637,1.5993-33.1115,3.3184-49.5942,1.7043-16.3401,3.9734-32.1116,7.0562-48.4299,3.0604-16.1995,6.8271-32.2682,11.3793-48.1143,4.5605-15.8755,9.9101-31.5276,16.1187-46.8352.7572-1.8669,1.5282-3.7283,2.31-5.5851.935-2.2203-1.4624-5.3802-3.8571-5.0633-22.5702,2.9865-44.6649,8.93-65.7525,17.5063-21.7449,8.8434-42.3661,20.2741-60.92362,34.6865-8.7863,6.8239-17.05918,14.3244-24.5377,22.5668-8.0751,8.9-15.1666,18.7013-21.5418,28.8771-13.4033,21.3933-23.3859,44.8131-31.1129,68.8015-7.775,24.1377-13.3013,48.9385-17.9873,73.8403-.2578,1.3704-.50448,2.7427-.7574,4.114h8.1063ZM750.8832,678.38228c.1913-.2507.09722-.1267,0,0h0Z"/><circle class="cls-12" cx="863.8452" cy="785.67066" r="38.57422" transform="translate(-99.2791 1445.89675) rotate(-76.71746)"/><path class="cls-15" d="M863.84482,815.36358c-16.3722,0-29.6925-13.3203-29.6925-29.6926s13.3203-29.6932,29.6925-29.6932,29.6933,13.3202,29.6933,29.6932-13.3203,29.6926-29.6933,29.6926Z"/><circle class="cls-14" cx="863.8452" cy="785.67066" r="17.62362" transform="translate(-99.27931 1445.89645) rotate(-76.71744)"/><path class="cls-13" d="M907.81742,588.43688c-10.7644.2532-20.9162,5.9077-27.8459,14.2528-8.7645,10.5546-12.2539,24.1146-14.2623,37.4118-4.49,29.7258-5.8296,59.8991-6.2308,89.9259-.2263,16.9317-.119,33.8653-.0102,50.7976.0151,2.3534,2.059,4.6092,4.5,4.5,2.4252-.1087,4.5162-1.9776,4.5-4.5-.1879-29.2494-.3733-58.5226,1.1628-87.7431.7669-14.5886,1.9644-29.1589,3.8036-43.6532.3912-3.0821.7137-5.5345,1.2886-9.078.5208-3.2109,1.1283-6.4094,1.8909-9.5721.7566-3.1377,1.6653-6.2423,2.799-9.2655.2221-.5922.4553-1.1802.6951-1.7656.0792-.1801.2963-.689.3114-.7227.1165-.2601.2348-.5195.355-.7781.7227-1.5525,1.5158-3.0726,2.3853-4.5481.7797-1.3227,1.6292-2.5974,2.5368-3.8352.1259-.1633.3514-.4597.3924-.5102.3269-.4014.6615-.7964,1.0034-1.185.5141-.5839,1.045-1.1532,1.5918-1.7066,1.0953-1.1084,2.2585-2.1406,3.4676-3.1228.058-.0471.1049-.0856.1455-.1192.0475-.0324.104-.0714.1756-.1215.3701-.2592.7328-.5281,1.1064-.7826.6907-.4706,1.3966-.9189,2.1182-1.3405.6624-.387,1.3367-.7535,2.0231-1.0963.3416-.1705.686-.3356,1.0332-.4944.1106-.0505.4682-.1948.6243-.259,1.4317-.5434,2.8811-1.0139,4.3791-1.3467.2444-.0543.4895-.1054.7352-.1532.1296-.0252.787-.1227,1.0049-.1617.6294-.0684,1.2596-.1288,1.8926-.1521.1424-.0053.2849.0061.4274.0032v-8.8779Z"/><path class="cls-17" d="M1014.12852,838.93008c-1.1071-13.6436-1.8872-23.8253-1.9072-24.0894-.1455-1.8971-1.7947-3.3186-3.7013-3.1763-1.899.1453-3.3216,1.8024-3.1764,3.7013.0203.2617.7803,10.1797,1.8656,23.5644h6.9193Z"/><path class="cls-17" d="M1107.70812,838.93008c1.4297-13.6199,2.4493-23.7718,2.4759-24.0367.1902-1.8949-1.1929-3.5848-3.0882-3.7751-1.9026-.1871-3.5847,1.1949-3.775,3.088-.0267.2682-1.0807,10.7668-2.5472,24.7238h6.9345Z"/><path class="cls-13" d="M1013.47072,818.52388l-10.1412-.1196.4249-36.0123c.3534-29.9493,25.0053-54.0256,54.9551-53.6722,29.9499.3533,54.0269,25.0046,53.6735,54.9539l-.4189,35.505-10.1412-.1196.4189-35.5051c.2874-24.3558-19.2956-44.4061-43.6519-44.6935-24.3565-.2874-44.4069,19.2953-44.6943,43.6512l-.4249,36.0122Z"/><path class="cls-13" d="M1062.21002,732.79508c-.4656-23.0875-.9311-46.1751-1.3967-69.2626-.9026-20.8416,2.1747-44.5443-10.7033-62.4366-6.5039-8.5213-16.4497-15.0859-27.5668-14.248-2.6072.1965-5.1374,2.1635-5.0099,5.0099.114,2.5456,2.2113,5.2209,5.0099,5.0099,1.4828-.1157,2.9744-.0969,4.451.0884-1.1298-.1378.2483.0715.6428.1568.9791.2116,1.9436.4888,2.8879.8225.3572.1262,1.4073.5639.4869.1586,1.8694.8106,3.6289,1.8538,5.2826,3.0405.17.1153.7504.5765-.0274-.0385,2.0742,1.63,3.9414,3.5168,5.5875,5.5767,10.3026,13.4764,8.3137,36.3483,8.9055,55.1975.4767,23.6416.9534,47.2833,1.4301,70.9249.0528,2.6184,2.2666,5.1328,5.01,5.0099,2.6691-.1195,5.0665-2.2027,5.0099-5.0099h0Z"/></g></g></g></svg>