<?xml version="1.0" encoding="UTF-8"?><svg id="_レイヤー_2" xmlns="http://www.w3.org/2000/svg" viewBox="0 0 4409.64371 4293.45954"><defs><style>.cls-1,.cls-2{stroke-width:0px;}.cls-2{fill:#231f20;}</style></defs><g id="Peace_20"><path class="cls-1" d="M4101.66148,4050.89604c-2.1535-.8881-4.5845-.3663-6.2052,1.2766l-75.5505,76.7938c-1.0657,1.0767-1.654,2.542-1.6318,4.0628.0222,1.5097.6438,2.9527,1.7317,4.0073,23.6553,22.8561,49.2199,45.1572,75.9834,66.2927,1.0213.8103,2.2646,1.221,3.5189,1.221.8437,0,1.6873-.1887,2.4754-.5661,1.9649-.9546,3.2081-2.9417,3.2081-5.1174v-142.709c0-2.309-1.3987-4.3848-3.53-5.2617ZM4093.82448,4187.05574c-21.5906-17.4612-42.3154-35.6439-61.7858-54.2152l61.7858-62.8071v117.0223Z"/><path class="cls-1" d="M4275.40778,3775.39074c-42.5485,0-101.2595,23.1891-126.6798,88.5271-6.2607,16.0736-9.4355,32.9909-9.4355,50.2634v77.6819c0,1.5097.5994,2.9528,1.6651,4.0184l108.0086,108.0531c1.0657,1.0656,2.5088,1.6651,4.0185,1.6651h.0999c1.5429-.0333,3.0082-.6772,4.0628-1.8094,56.9126-61.1531,123.6049-151.2677,118.0879-233.301-4.7066-70.1223-54.6481-95.0986-99.8275-95.0986ZM4252.81808,4091.71284l-102.1586-102.203v-75.3286c0-15.8627,2.9083-31.3813,8.6584-46.134,23.3446-59.9986,77.1269-81.2895,116.0899-81.2895,40.0398,0,84.3089,22.19,88.4828,84.4865,4.0184,59.8099-35.3776,137.9469-111.0725,220.4686Z"/><path class="cls-1" d="M3969.07618,3775.39074c-45.1794,0-95.1209,24.9763-99.8275,95.0986-5.5281,82.2665,61.5083,172.6363,118.7096,233.9559,1.0545,1.1323,2.5198,1.7872,4.0739,1.8094h.0777c1.5208,0,2.975-.6105,4.0406-1.6873l107.3981-108.708c1.0546-1.0656,1.6429-2.4976,1.6429-3.9962v-77.6819c0-17.2725-3.1748-34.1898-9.4355-50.2634-25.4203-65.338-84.1313-88.5271-126.6798-88.5271ZM4093.82448,3989.53204l-101.5814,102.8136c-76.0612-82.7549-115.6791-161.125-111.6496-221.1014,4.1738-62.2965,48.4429-84.4865,88.4827-84.4865,38.963,0,92.7453,21.2909,116.0899,81.2895,5.7501,14.7527,8.6584,30.2713,8.6584,46.134v75.3508Z"/><path class="cls-1" d="M4409.25858,3868.20264c-4.529-67.4471-46.8999-115.4016-110.584-125.159-62.0966-9.5354-140.5555,20.7359-176.4326,96.2309-35.8771-75.495-114.3471-105.7663-176.4326-96.2309-63.6841,9.7574-106.055,57.7119-110.584,125.159-9.1691,136.5039,147.116,298.0506,283.7308,394.9254.988.6993,2.1313,1.0435,3.2858,1.0435s2.2978-.3442,3.2858-1.0435c136.6148-96.8748,292.8999-258.4215,283.7308-394.9254ZM4122.24198,4251.51684c-212.1765-151.4674-281.1777-300.5926-275.6718-382.5593,4.2071-62.7738,41.9491-105.6443,100.9598-114.6801,6.8601-1.0546,13.9201-1.5874,21.1133-1.5874,56.735,0,121.0518,32.9576,148.3037,102.9912,1.6873,4.3514,8.9027,4.3514,10.59,0,30.7153-78.9141,108.5637-110.7394,169.4171-101.4038,59.0106,9.0358,96.7526,51.9063,100.9597,114.6801,5.5059,81.9667-63.4953,231.0919-275.6718,382.5593Z"/><path class="cls-1" d="M4148.99438,4052.13934c-1.6207-1.6318-4.0739-2.0981-6.1941-1.2322-2.1202.8769-3.5078,2.9527-3.5078,5.2506v142.709c0,2.1757,1.2433,4.1628,3.2081,5.1174.7881.3774,1.6318.5661,2.4754.5661,1.2544,0,2.4976-.4107,3.5189-1.221,26.9633-21.302,52.7277-43.8029,76.5829-66.881,1.0989-1.0546,1.7206-2.5199,1.7317-4.0406.0111-1.5208-.5884-2.9861-1.6651-4.0629l-76.15-76.2054ZM4150.65948,4187.05574v-117.1666l62.352,62.3964c-19.6481,18.7821-40.5727,37.1536-62.352,54.7702Z"/></g><g id="Peace_19"><path class="cls-2" d="M3299.27038,3770.03974c4.5956-15.2522-4.0406-31.3924-19.2484-35.9769-7.3375-2.2313-15.1079-1.4209-21.8793,2.1979-6.8046,3.6521-11.7777,9.7352-13.9645,16.9839l-22.2581,68.2151-16.6938-72.8774c-1.7206-7.4818-6.2608-13.8646-12.7879-17.9607-6.5383-4.1072-14.2643-5.406-21.7239-3.7076-15.4742,3.5744-25.165,19.1041-21.6128,34.545l10.701,49.5266c-4.4458-2.8195-9.6714-4.5137-15.3077-4.5137-12.4424,0-22.9692,8.0049-26.9828,19.1124-5.1083-4.6255-11.8117-7.5234-19.2289-7.5234-15.8739,0-28.7949,12.921-28.7949,28.7949v81.2562c0,28.4952,12.1773,55.3364,33.4904,74.0742v271.4536c0,3.1415,2.542,5.6835,5.6835,5.6835h110.9281c3.1415,0,5.6835-2.542,5.6835-5.6835l.0111-265.8922c25.3759-18.5158,40.4283-48.0655,40.4283-79.6356v-51.3221l33.5571-106.7502ZM3255.02348,3756.64134c1.3431-4.4624,4.3625-8.1478,8.4919-10.3568,4.0961-2.209,8.8028-2.6863,13.2208-1.3432,9.2135,2.7863,14.4308,12.5659,11.6778,21.7461l-27.5093,87.5156c-5.1597-7.7947-13.9701-12.953-23.9752-12.953h-9.5035l27.5975-84.6087ZM3173.26768,3737.99244c4.4957-1.0435,9.1691-.2442,13.1209,2.2423,3.9629,2.4976,6.7158,6.3606,7.7593,10.8897l20.6477,90.1256h-36.8351l-17.7693-82.2664c-2.1646-9.4022,3.7076-18.8266,13.0765-20.9912ZM3127.06708,3835.34454c0-9.6575,7.8148-17.5057,17.4279-17.5057s17.4279,7.8482,17.4279,17.5057v5.9055h-11.6556c-9.5021,0-17.2281,7.7482-17.2281,17.2836,0,11.3691,4.733,21.6211,12.2842,28.9815-.281.0139-.5454.1242-.8284.1242-9.6131,0-17.4279-7.8481-17.4279-17.5056v-34.7892ZM3080.85528,3846.85584c0-9.6131,7.8149-17.4279,17.428-17.4279,9.602,0,17.4168,7.8148,17.4168,17.4279v34.9557c0,9.602-7.8148,17.4168-17.4168,17.4168-9.6131,0-17.428-7.8148-17.428-17.4168v-34.9557ZM3254.34628,3928.11204c0,28.8393-14.1865,55.7471-37.964,71.9984-1.554,1.0656-2.4754,2.8195-2.4754,4.6955v263.1504h-99.5611v-268.3898c0-1.6873-.7548-3.2858-2.0536-4.3737-19.9811-16.6175-31.4369-41.0721-31.4369-67.0808v-23.545c4.8538,3.7249,10.8509,6.0283,17.428,6.0283,12.4673,0,23.0024-8.0105,26.9945-19.1187,5.109,4.629,11.8075,7.5297,19.2172,7.5297,4.5297,0,8.8256-1.3494,12.8336-3.3843,4.9259,2.1549,10.3416,3.3843,16.0501,3.3843h4.2959c-16.4955,11.5113-27.3074,30.6598-27.3074,52.2948v11.589c0,3.1415,2.542,5.6835,5.6835,5.6835s5.6835-2.542,5.6835-5.6835v-11.589c0-28.8393,23.3667-52.2948,52.0839-52.2948,3.1415,0,5.6835-2.542,5.6835-5.6835s-2.542-5.6835-5.6835-5.6835h-40.4394c-15.9737,0-28.9725-13.0543-28.9725-29.1057,0-3.2636,2.6308-5.9166,5.8611-5.9166h86.6622c9.602,0,17.4168,7.8592,17.4168,17.5167v57.9783Z"/><path class="cls-2" d="M3423.19728,3933.52914c-5.1341,0-9.8261,1.7664-13.6427,4.6387-3.6409-7.7933-11.4814-13.2416-20.6137-13.2416-3.2865,0-6.3947.7312-9.2198,1.9925l7.2439-33.5071c2.8084-12.2772-4.8621-24.5767-17.1171-27.4073-5.8944-1.3543-12.0109-.333-17.1948,2.9083-5.184,3.2525-8.7917,8.3144-10.1571,14.2643l-11.1831,48.8515-14.8144-45.3993c-1.7539-5.85-5.6946-10.6676-11.0895-13.5649-5.3838-2.875-11.5446-3.4855-17.3391-1.7428-12.033,3.641-18.8821,16.4289-15.23,28.5729l24.7876,78.8544v37.8127c0,23.6221,11.145,45.7344,29.9716,59.7656v196.3249c0,3.1414,2.542,5.6834,5.6835,5.6834h82.222c3.1414,0,5.6835-2.542,5.6835-5.6834v-200.532c15.8072-14.1311,24.8209-34.2342,24.8209-55.5585v-60.2317c0-12.577-10.2348-22.8006-22.8117-22.8006ZM3423.19728,3944.89614c6.3051,0,11.4447,5.1285,11.4447,11.4336v25.9088c0,6.3051-5.1396,11.4447-11.4447,11.4447s-11.4447-5.1396-11.4447-11.4447v-25.9088c0-6.3051,5.1395-11.4336,11.4447-11.4336ZM3388.94088,3936.29314c6.3051,0,11.4447,5.1618,11.4447,11.5114v25.7755c0,6.2406-4.9828,11.2754-11.1395,11.4489,4.5256-5.4539,7.3209-12.4042,7.3209-20.0407,0-7.8704-6.394-14.2754-14.2532-14.2754h-4.8065v-2.9083c0-6.3496,5.1284-11.5114,11.4336-11.5114ZM3353.57438,3885.70784c.6883-2.975,2.4976-5.5281,5.1174-7.1599,2.6086-1.6429,5.6835-2.1535,8.6029-1.4653,6.1498,1.4209,10.0017,7.6039,8.5808,13.8647l-12.9176,59.7655h-24.2645l14.881-65.005ZM3291.35568,3882.20004c2.8972-.8769,5.9721-.5661,8.6806.8881,2.7197,1.4541,4.6956,3.8741,5.6169,6.9378l19.7937,60.6869h-5.0077c-6.8949,0-13.012,3.1477-17.1983,8.0112l-19.5446-62.1709c-1.8205-6.0831,1.6095-12.5215,7.6594-14.3531ZM3409.82108,4106.54284h-70.855v-27.4518h70.855v27.4518ZM3338.96608,4266.96844v-149.0586h70.855v149.0586h-70.855ZM3411.87468,4065.14874c-.8145.682-1.3161,1.5957-1.6512,2.5753h-75.0025c-16.4185-11.8575-26.2265-30.8235-26.2265-51.1626v-42.9814c0-6.3384,5.1396-11.5002,11.4447-11.5002h61.8746c1.5874,0,2.8862,1.3099,2.8862,2.9084,0,11.0894-8.9804,20.1031-20.0144,20.1031h-27.6182c-3.1415,0-5.6835,2.542-5.6835,5.6835s2.542,5.6835,5.6835,5.6835c20.4695,0,37.1314,16.7286,37.1314,37.2868v8.5919c0,3.1415,2.5421,5.6835,5.6835,5.6835s5.6835-2.542,5.6835-5.6835v-8.5919c0-15.0523-6.849-28.5284-17.5833-37.4644,3.4599-.3629,6.7089-1.3786,9.7435-2.7793,3.3136,1.8031,6.9171,2.9569,10.7149,2.9569,5.1257,0,9.8115-1.7671,13.6245-4.6421,3.6341,7.7898,11.4864,13.2339,20.6319,13.2339,4.189,0,8.0673-1.2155,11.4447-3.1948v14.7061c0,18.8488-8.3033,36.5543-22.7673,48.5873Z"/><path class="cls-2" d="M3040.21608,3871.32144c-5.7945-1.7538-11.9553-1.1433-17.3391,1.7428-5.3949,2.8973-9.3356,7.7149-11.0562,13.4317l-14.8491,45.5263-11.1817-48.8453c-1.3654-5.9499-4.9731-11.0118-10.1571-14.2643-5.1839-3.2413-11.3004-4.2626-17.1948-2.9083-12.255,2.8306-19.9255,15.1301-17.1282,27.3407l7.257,33.5744c-2.8251-1.2613-5.9346-1.9932-9.2218-1.9932-9.1323,0-16.9727,5.4483-20.6137,13.2416-3.8166-2.8723-8.5086-4.6387-13.6427-4.6387-12.5769,0-22.8116,10.2236-22.8116,22.8006v60.2317c0,18.6567,6.9676,36.3135,19.2789,49.9242-8.5003,1.3529-15.0385,8.7487-15.0385,18.4332,0,4.7282,1.8829,9.0054,4.8988,12.1982-3.0159,3.3107-4.8988,7.8113-4.8988,12.9779,0,4.7282,1.8822,9.0047,4.8981,12.1975-3.0159,3.3087-4.8981,7.8065-4.8981,12.9676,0,4.7281,1.8829,9.0053,4.8988,12.1981-3.0159,3.3108-4.8988,7.8114-4.8988,12.978,0,9.824,7.9924,17.8164,17.8164,17.8164h2.7641v94.3994c0,3.1414,2.542,5.6834,5.6834,5.6834h82.2221c3.1414,0,5.6834-2.542,5.6834-5.6834v-94.3994h1.2877c9.824,0,17.8164-7.9924,17.8164-18.7267,0-4.7281-1.8822-9.0046-4.8981-12.1974,3.0159-3.3087,4.8981-7.8065,4.8981-12.9676,0-4.7281-1.8829-9.0053-4.8988-12.1981,3.0159-3.3108,4.8988-7.8114,4.8988-12.978,0-4.7282-1.8822-9.0047-4.8981-12.1975,3.0159-3.3086,4.8981-7.8064,4.8981-12.9675,0-6.9774-4.069-12.969-9.9253-15.8912,13.275-13.7869,20.7928-32.0446,20.7928-51.5671v-37.8127l24.8098-78.9321c3.6299-12.0663-3.2192-24.8542-15.2522-28.4952ZM2960.99128,3877.08264c2.9305-.6882,5.9943-.1776,8.6029,1.4653,2.6198,1.6318,4.4292,4.1849,5.1174,7.1599l14.881,65.005h-24.2645l-12.9287-59.8321c-1.4098-6.1942,2.4422-12.3772,8.5919-13.7981ZM2927.90038,3947.80454c0-6.3496,5.1396-11.5114,11.4447-11.5114s11.4336,5.1618,11.4336,11.5114v2.9083h-4.8065c-7.8592,0-14.2532,6.405-14.2532,14.2754,0,7.6365,2.796,14.5875,7.3216,20.0414-6.1567-.1728-11.1402-5.209-11.1402-11.4496v-25.7755ZM2893.64398,3956.32974c0-6.3051,5.1396-11.4336,11.4447-11.4336s11.4447,5.1285,11.4447,11.4336v25.9088c0,6.3051-5.1395,11.4447-11.4447,11.4447s-11.4447-5.1396-11.4447-11.4447v-25.9088ZM2904.33388,4077.57024h97.6407c3.5522,0,6.4495,2.8973,6.4495,7.3486,0,3.5522-2.8973,6.4495-6.4495,6.4495h-97.6407c-3.5522,0-6.4494-2.8973-6.4494-7.3486,0-3.5522,2.8972-6.4495,6.4494-6.4495ZM3008.42408,4110.09494c0,3.5522-2.8973,6.4495-6.4495,6.4495h-97.6407c-3.5522,0-6.4494-2.8973-6.4494-7.3597,0-3.5522,2.8972-6.4494,6.4494-6.4494h97.6407c3.5522,0,6.4495,2.8972,6.4495,7.3596ZM3008.42408,4135.26004c0,3.5521-2.8973,6.4494-6.4495,6.4494h-97.6407c-3.5522,0-6.4494-2.8973-6.4494-7.3486,0-3.5522,2.8972-6.4494,6.4494-6.4494h97.6407c3.5522,0,6.4495,2.8972,6.4495,7.3486ZM2989.31998,4266.96844h-70.8551v-88.7159h70.8551v88.7159ZM3001.97458,4166.88554h-97.6407c-3.5522,0-6.4494-2.8972-6.4494-7.3597,0-3.5522,2.8972-6.4494,6.4494-6.4494h97.6407c3.5522,0,6.4495,2.8972,6.4495,7.3597,0,3.5522-2.8973,6.4494-6.4495,6.4494ZM3019.29148,4016.56144c0,19.5239-8.7854,37.5977-24.0993,49.6418h-77.931c-.2678-.3621-.487-.7534-.8499-1.0545-14.464-12.033-22.7673-29.7385-22.7673-48.5873v-14.7061c3.3774,1.9793,7.2557,3.1948,11.4447,3.1948,9.1455,0,16.9978-5.4441,20.6319-13.2339,3.813,2.875,8.4988,4.6421,13.6245,4.6421,3.7978,0,7.4014-1.1545,10.7149-2.9569,3.0346,1.4007,6.2836,2.4164,9.7435,2.7793-10.7343,8.936-17.5833,22.4121-17.5833,37.4644v8.5919c0,3.1415,2.542,5.6835,5.6835,5.6835s5.6835-2.542,5.6835-5.6835v-8.5919c0-20.5582,16.662-37.2868,37.1314-37.2868,3.1415,0,5.6835-2.542,5.6835-5.6835s-2.542-5.6835-5.6835-5.6835h-27.6182c-11.034,0-20.0144-9.0137-20.0144-20.1031,0-1.5985,1.2988-2.9084,2.8862-2.9084h61.8746c6.3052,0,11.4447,5.1618,11.4447,11.5002v42.9814ZM3044.61188,3896.47544l-19.5675,62.2486c-4.187-4.8635-10.3027-8.0112-17.1976-8.0112h-5.0091l19.8284-60.8201c.888-2.9305,2.864-5.3505,5.5836-6.8046,2.7085-1.4431,5.7834-1.7539,8.6806-.8881,6.0499,1.8316,9.4799,8.27,7.6816,14.2754Z"/></g><g id="Peace_18"><path class="cls-1" d="M2039.67958,3978.67844c36.5875,0,66.3482-29.7607,66.3482-66.3371,0-36.5875-29.7607-66.3481-66.3482-66.3481-36.5764,0-66.3371,29.7606-66.3371,66.3481,0,36.5764,29.7607,66.3371,66.3371,66.3371ZM2039.67958,3857.36024c30.3157,0,54.9812,24.6654,54.9812,54.9811s-24.6655,54.9701-54.9812,54.9701-54.9701-24.6544-54.9701-54.9701,24.6544-54.9811,54.9701-54.9811Z"/><path class="cls-1" d="M2206.04398,3978.67844c36.5764,0,66.3371-29.7607,66.3371-66.3371,0-36.5875-29.7607-66.3481-66.3371-66.3481-36.5875,0-66.3482,29.7606-66.3482,66.3481,0,36.5764,29.7607,66.3371,66.3482,66.3371ZM2206.04398,3857.36024c30.3157,0,54.9701,24.6654,54.9701,54.9811s-24.6544,54.9701-54.9701,54.9701-54.9812-24.6544-54.9812-54.9701,24.6655-54.9811,54.9812-54.9811Z"/><path class="cls-1" d="M2372.39728,3978.67844c36.5764,0,66.3371-29.7607,66.3371-66.3371,0-36.5875-29.7607-66.3481-66.3371-66.3481-36.5875,0-66.3482,29.7606-66.3482,66.3481,0,36.5764,29.7607,66.3371,66.3482,66.3371ZM2372.39728,3857.36024c30.3157,0,54.9701,24.6654,54.9701,54.9811s-24.6544,54.9701-54.9701,54.9701-54.9812-24.6544-54.9812-54.9701,24.6655-54.9811,54.9812-54.9811Z"/><path class="cls-1" d="M2484.10248,4090.77214l-83.2322-83.2322c-15.1634-15.1634-41.7826-15.1634-56.946,0l-54.7002,54.7106-54.7182-54.7106c-7.2376-7.2376-17.6055-11.3892-28.4619-11.3892h-.0111c-10.8453,0-21.2243,4.1516-28.4619,11.3892l-54.7092,54.7092-54.7092-54.7092c-15.1634-15.1634-41.7604-15.1634-56.946,0l-83.2211,83.2322c-7.6038,7.6039-11.7999,17.7165-11.7999,28.473s4.1961,20.8691,11.7999,28.4729c7.6039,7.6039,17.7166,11.8,28.473,11.8s20.8691-4.1961,28.4619-11.8l54.7592-54.7591,54.1459,54.1347c.1887.1964.3205.4316.5134.6244,7.0322,7.0323,16.4968,10.6629,26.1321,11.1915.4565.2165.9179.4302,1.4306.5197.333.0555.6882.0888,1.0213.0888,5.4614,0,10.7564-1.0768,15.7073-3.2192,4.6622-1.9981,8.9581-4.8843,12.6546-8.5808l.1665-.1665.4441-.444,54.1486-54.1486,54.0286,54.0286c.2012.2553.4718.5828.6196.7305,7.6039,7.6039,17.7054,11.7889,28.4507,11.7889.0028,0,.0049-.0014.0077-.0014.043,0,.0825.0125.1256.0125,10.7564,0,20.869-4.1961,28.4729-11.8.1929-.1928.3247-.428.5134-.6244l54.1348-54.1347,54.7703,54.7591c7.5928,7.6039,17.7054,11.8,28.4619,11.8,10.7675,0,20.8802-4.1961,28.473-11.8,7.6039-7.6038,11.7999-17.7165,11.7999-28.4729s-4.196-20.8691-11.7999-28.473ZM2043.69798,4080.90374c-2.2201-2.2202-5.8167-2.2202-8.0368,0l-58.7776,58.7775c-10.9008,10.9008-29.9383,10.923-40.8612,0-5.4615-5.4615-8.4698-12.7101-8.4698-20.4361,0-7.7149,3.0083-14.9747,8.4698-20.4362l83.221-83.2322c5.3505-5.3504,12.8989-8.0257,20.4473-8.0257,7.5373,0,15.0857,2.6753,20.4251,8.0257l54.7092,54.7092-20.4861,20.4862c-1.9336,1.9336-3.6348,4.035-5.1146,6.2621-.9602,1.4389-1.6561,2.9798-2.4103,4.5013-.401.8138-.9171,1.57-1.2619,2.4081-.9741,2.3506-1.6866,4.7712-2.1917,7.2293-.0118.0568-.0368.1082-.0479.1644-.5536,2.7543-.8651,5.544-.8291,8.3407l-38.7854-38.7743ZM2206.04398,4079.23864c-1.4542,0-2.9084.555-4.0184,1.6651l-58.1671,58.167-.6105.6105c-10.9119,10.9008-29.9383,10.923-40.8723,0-.1312-.1311-.2206-.2914-.349-.4246-.0271-.0291-.034-.068-.0617-.0971-1.3592-1.4216-2.5442-2.941-3.5606-4.5318-.0596-.0951-.0992-.1998-.1581-.2949-.9131-1.4659-1.6901-2.9881-2.3152-4.5547-.2699-.6896-.4288-1.4174-.6445-2.1271-.3102-.9949-.6536-1.9829-.852-2.9986-.333-1.7657-.5287-3.5702-.5287-5.4073,0-5.7841,1.6922-11.3122,4.8399-16.0182,1.0441-1.5554,2.2499-3.0381,3.6299-4.418l24.5101-24.499c.0097-.0097.0124-.0236.0222-.0333l58.6998-58.6999c10.2459-10.2236,30.6265-10.268,40.8613,0l58.7172,58.7096c.0069.007.009.0167.0159.0236l24.5101,24.499c11.0007,10.9896,11.1783,29.0946.4107,40.3506-.0277.0291-.0346.068-.0617.0978-.1284.1332-.2178.2928-.349.4239-10.9229,10.923-29.9493,10.923-40.8723,0l-.6105-.6105-.0111-.0111-.0111-.0111-.0111-.0111-.0111-.0111-.0111-.0111-58.1116-58.1115c-1.11-1.1101-2.5642-1.6651-4.0184-1.6651ZM2476.06558,4139.68124c-10.9007,10.9008-29.9604,10.923-40.8612,0l-58.7887-58.7775c-1.11-1.1101-2.5642-1.6651-4.0184-1.6651s-2.9083.555-4.0184,1.6651l-38.8826,38.8825c.0028-.1831.0528-.3573.0528-.5411,0-7.8253-2.277-15.2814-6.4148-21.7065-.0791-.1235-.1256-.2609-.206-.3844-1.4972-2.2701-3.213-4.4159-5.1792-6.3821l-20.4875-20.4848,54.6995-54.7106c10.701-10.7009,30.1714-10.7009,40.8724,0l83.2321,83.2322c5.4615,5.4615,8.4698,12.7213,8.4698,20.4362,0,7.726-3.0083,14.9746-8.4698,20.4361Z"/></g><g id="Peace_17"><path class="cls-1" d="M1276.12938,3910.30074c-1.7206-1.2433-4.0184-1.3987-5.9055-.4218-1.8871.9768-3.0749,2.9194-3.0749,5.0508v57.8895c0,1.6873.7437,3.2858,2.0425,4.3625,1.0213.8548,2.32,1.321,3.641,1.321.333,0,.6771-.0333,1.0102-.0888,18.9819-3.419,36.2878-12.3772,50.0525-25.8866,1.1988-1.1766,1.8094-2.8195,1.6762-4.4957-.1221-1.6762-.9991-3.2081-2.3645-4.1849l-47.0775-33.546ZM1278.51598,3965.73704v-39.7734l32.3471,23.0448c-9.4466,7.8925-20.4473,13.576-32.3471,16.7286Z"/><path class="cls-1" d="M1273.84268,3789.80394c-1.6429-.2553-3.3746.1665-4.6512,1.2322-1.2988,1.0767-2.0425,2.6752-2.0425,4.3625v80.0019c0,1.8427.888,3.5633,2.3866,4.6289l65.6267,46.7668c.9657.6882,2.1313,1.0545,3.2968,1.0545.4885,0,.9658-.0666,1.4431-.1887,1.6318-.4329,2.9972-1.5652,3.7076-3.0859,5.9943-12.8434,9.0359-26.4638,9.0359-40.4728,0-46.4115-33.1464-86.0739-78.803-94.2994ZM1335.97258,3913.42004l-57.4566-40.9501v-69.9891c36.754,9.7241,62.7627,43.0258,62.7627,81.6225,0,10.0572-1.7872,19.8923-5.3061,29.3167Z"/><path class="cls-1" d="M1243.24948,3909.87894c-1.9093-.9769-4.185-.8215-5.9056.4218l-47.0775,33.546c-1.3654.9768-2.2423,2.5087-2.3644,4.1849-.1333,1.6762.4773,3.3191,1.6761,4.4957,13.7648,13.5094,31.0706,22.4676,50.0526,25.8866.333.0555.6771.0888,1.0101.0888,1.321,0,2.6198-.4662,3.641-1.321,1.2988-1.0767,2.0425-2.6752,2.0425-4.3625v-57.8895c0-2.1314-1.1878-4.074-3.0748-5.0508ZM1234.95728,3965.73704c-11.8998-3.1526-22.9005-8.8361-32.3471-16.7286l32.3471-23.0448v39.7734Z"/><path class="cls-1" d="M1256.73668,3763.47334c-66.5147,0-120.6301,54.1154-120.6301,120.63,0,66.5258,54.1154,120.6412,120.6301,120.6412,66.5257,0,120.6411-54.1154,120.6411-120.6412,0-66.5146-54.1154-120.63-120.6411-120.63ZM1256.73668,3993.37754c-60.2429,0-109.2631-49.0202-109.2631-109.2742,0-60.2428,49.0202-109.263,109.2631-109.263,60.2539,0,109.2741,49.0202,109.2741,109.263,0,60.254-49.0202,109.2742-109.2741,109.2742Z"/><path class="cls-1" d="M1239.63068,3789.80394c-45.6567,8.2255-78.8031,47.8879-78.8031,94.2994,0,13.9868,3.0416,27.5961,9.0359,40.4617.7104,1.5318,2.0647,2.6641,3.6965,3.097.4884.1221.9658.1887,1.4542.1887,1.1655,0,2.3311-.3663,3.2969-1.0545l65.6266-46.7668c1.4986-1.0656,2.3866-2.7862,2.3866-4.6289v-80.0019c0-1.6873-.7437-3.2858-2.0425-4.3625-1.2766-1.0657-2.9972-1.4986-4.6511-1.2322ZM1234.95728,3872.46994l-57.4566,40.9501c-3.5189-9.4466-5.3061-19.2817-5.3061-29.3167,0-38.5967,26.0087-71.8984,62.7627-81.6225v69.9891Z"/><path class="cls-1" d="M1483.56588,3724.59914c-71.7319-21.7571-144.0855-10.7898-214.0525-.1776-68.7015,10.4234-139.7785,21.1799-209.0572.1776-.2095-.0631-.4232,0-.6355-.0389-.3428-.0645-.657-.2053-1.0185-.2053h-44.8241c-3.1415,0-5.6835,2.542-5.6835,5.6835v557.7376c0,3.1414,2.542,5.6835,5.6835,5.6835h44.8241c3.1415,0,5.6835-2.5421,5.6835-5.6835v-244.8941c27.9075,7.6074,55.8817,10.6607,83.765,10.6607,41.394,0,82.5772-6.2385,122.9611-12.366,68.7237-10.4235,139.7563-21.1911,209.0462-.1777,1.7316.5329,3.6076.1999,5.0396-.8769,1.4431-1.0657,2.2978-2.764,2.2978-4.5623v-305.5213c0-2.5088-1.6428-4.7178-4.0295-5.4393ZM1053.11868,4282.09254h-33.4572v-546.3706h33.4572v546.3706ZM1476.22838,4028.01134c-69.3675-18.9043-139.1568-8.3255-206.715,1.9315-67.3916,10.2236-137.0255,20.7581-205.0277,1.3653v-293.7213c69.3564,18.9265,139.1347,8.3143,206.7372-1.9315,67.3694-10.1904,137.0145-20.7692,205.0055-1.3654v293.7214Z"/></g><g id="Peace_16"><path class="cls-1" d="M312.20426,3917.93074c.2553,0,.51062-.0111.7548-.0555,40.2729-5.4282,92.1792-22.845,105.9329-54.0154,7.3152-16.5621,3.1636-33.2352-10.8009-43.5143-11.6778-8.603-29.9494-11.5779-45.9897-3.3191-2.37548-17.9274-15.2411-31.2259-28.917-35.9215-16.3956-5.6835-32.4803.4441-41.938,15.885-17.7832,29.0613-2.5532,81.6447,15.896,117.8326.9769,1.9315,2.9417,3.1082,5.0619,3.1082ZM300.94826,3802.92874c4.9841-8.1367,12.2661-12.4993,20.3807-12.4993,2.653,0,5.3948.4663,8.17,1.4209,12.1218,4.1627,23.3667,17.5722,21.3908,35.1555-.2553,2.3312.9324,4.5846,3.0083,5.6724,2.07582,1.0657,4.5956.7771,6.38282-.7548,13.32068-11.6334,30.74858-10.0127,41.07208-2.4199,9.5798,7.0488,12.2551,18.1827,7.1488,29.7606-10.7453,24.3325-53.7712,40.7947-93.0451,46.7779-17.439-35.6995-28.3952-80.4459-14.5084-103.1133Z"/><path class="cls-1" d="M445.32236,3986.24374c-7.9924-5.8944-20.25848-8.1589-31.4257-3.4412-2.4754-11.8998-11.3337-20.6582-20.72478-23.8773-12.144-4.185-24.02162.3108-30.99282,11.7-12.6769,20.6692-2.0536,57.6453,10.8897,83.0323.9768,1.9204,2.9416,3.0971,5.0618,3.0971.25532,0,.5107-.0222.766-.0555,28.2287-3.8186,64.6719-16.1403,74.4627-38.297,5.3837-12.2329,2.3089-24.5434-8.0369-32.1584ZM442.95796,4013.80644c-7.0267,15.8961-35.3109,26.8301-61.5638,31.0372-11.5002-23.9883-18.6157-53.4492-9.52428-68.2796,3.80748-6.2275,8.64728-7.7593,12.49928-7.7593,2.1202,0,3.9296.4662,5.1062.8658,7.7038,2.642,14.84152,11.1783,13.5871,22.3899-.2553,2.3311.9325,4.5845,3.0083,5.6724,2.0647,1.0767,4.6067.777,6.3717-.7549,8.5031-7.404,19.5925-6.4161,26.1419-1.5762,2.8417,2.0869,8.936,8.0479,4.3736,18.4047Z"/><path class="cls-1" d="M553.81946,3849.05164c-13.9534-3.7742-32.1695-.0333-44.258,13.5205-8.6807-15.9404-25.5868-23.8218-40.0287-23.2002-17.3946.6549-30.22688,12.144-33.5126,30.0049-6.1609,33.6236,27.0854,77.3377,57.4344,104.5563,1.0656.9547,2.431,1.4542,3.7964,1.4542.9324,0,1.876-.2331,2.7418-.6993,35.7328-19.637,78.03712-54.6704,79.6467-88.8158.8658-18.1272-9.0359-32.2361-25.82-36.8206ZM498.05016,3962.74384c-29.2278-27.1188-55.65828-65.0717-50.8407-91.3245,2.2979-12.5104,10.8009-20.2475,22.7451-20.6915.3441-.0111.68832-.0222,1.0435-.0222,12.6324,0,27.3185,8.503,31.7032,25.2205.5884,2.2645,2.5199,3.9407,4.851,4.2071,2.2423.1998,4.5845-.9324,5.6724-2.9971,8.281-15.7185,25.1761-20.4917,37.5977-17.1171,11.5446,3.1525,18.0717,12.6102,17.4723,25.3204-1.2655,26.6525-35.62178,57.612-70.2445,77.4044Z"/><path class="cls-1" d="M202.75247,3887.67054c-.9435-1.7095-2.71959-2.8195-4.6844-2.9083-2.0203-.2664-3.8408.8214-4.9509,2.431l-86.45129,124.5041-76.21661,42.3931c-28.5507,15.885-38.8742,52.0285-22.9893,80.5902,15.885,28.5618,52.0506,38.8965,80.6013,22.9894l10.2903-5.7279,34.212,61.5083c3.2857,5.9055,8.6917,10.1792,15.23,12.0441,2.32.666,4.6844.9991,7.0266.9991,4.26271,0,8.45871-1.0879,12.2662-3.197,5.90551-3.2858,10.1792-8.6918,12.0441-15.23,1.8649-6.5272,1.0768-13.3762-2.209-19.2817l-34.212-61.5083,21.56841-11.9998,151.37868-7.7704c1.9648-.0999,3.7298-1.1988,4.6844-2.9194.9547-1.7095.9435-3.7964-.01108-5.517l-117.57741-211.3995ZM130.02147,4127.83164l36.9761,66.4814c1.79831,3.2524,2.2312,7.0266,1.1988,10.6343-1.0323,3.6188-3.3856,6.6049-6.6381,8.4143-3.2525,1.8205-7.0378,2.2423-10.6455,1.2099-3.6188-1.0323-6.6048-3.3967-8.4142-6.6492l-36.976-66.4703c-.73269-1.321-1.95369-2.2867-3.4079-2.6974-.5106-.1554-1.0324-.222-1.5541-.222-.95469,0-1.9093.2442-2.764.7215l-15.2633,8.4808c-23.0782,12.8434-52.306,4.4958-65.14939-18.5823-12.82111-23.0781-4.48461-52.2949,18.59349-65.1382l72.4036-40.2639,46.5627,83.7171-22.7242,12.638c-1.321.7326-2.2868,1.9537-2.6975,3.4079-.4218,1.443-.23309,2.9971.4995,4.3181ZM165.91177,4103.81764l-48.6393-87.4518,79.9853-115.197,108.7079,195.4591-140.0539,7.1897Z"/></g><g id="Peace_15"><path class="cls-1" d="M4376.24208,2734.23044c-3.1081-46.2672-32.2028-79.1748-75.9391-85.8796-8.5308-1.2981-17.5111-1.4424-26.606-.5287l-37.9688-54.7806-.1526-98.3338c0-3.136-2.5532-5.6724-5.6835-5.6724h-109.8847c-1.8649,0-3.6077.9102-4.6622,2.4365l-44.9352,64.5832c-.666.9547-1.0212,2.0869-1.0212,3.2469v15.2474l-69.9219,28.1434c-11.4343-22.7131-34.9093-38.3677-62.0307-38.3677-38.297,0-69.4564,31.1593-69.4564,69.4618,0,36.3836,28.1303,66.2657,63.7729,69.174v360.1077h11.367v-360.1077c35.6522-2.907,63.7839-32.7897,63.7839-69.174,0-7.1626-1.092-14.0741-3.1144-20.5797l65.5996-26.4055v8.0222c0,3.1415,2.542,5.6835,5.6835,5.6835h42.3383l-32.5525,46.9673c-7.6622-.4857-15.2071-.2228-22.4183.8762-43.7474,6.6992-72.842,39.6069-75.9502,85.8796-6.2163,92.5622,99.3169,201.8031,191.5849,267.2299.988.6993,2.1314,1.0434,3.2858,1.0434,1.1545,0,2.2978-.3441,3.2858-1.0434,92.268-65.4268,197.8123-174.6677,191.596-267.2299ZM3879.34678,2633.78684c0-32.0362,26.0642-58.0948,58.0894-58.0948,22.3357,0,41.5425,12.8072,51.2624,31.3355l-53.3827,21.4866c-2.1535.8658-3.5632,2.9527-3.5632,5.2727v57.5205c-29.3292-2.9042-52.4059-27.4309-52.4059-57.5205ZM3995.53658,2633.78684c0,30.0902-23.0774,54.6163-52.4169,57.5205v-53.6797l49.8277-20.0566c1.5194,5.1812,2.5892,10.5497,2.5892,16.2158ZM4298.58248,2659.59014c34.8377,5.3387,58.2343,28.7568,64.6525,63.4066h-86.9536v-64.0601c7.624-.6438,15.1412-.4468,22.3011.6535ZM4175.67678,2734.36374v84.7806h-82.2775v-84.7806h82.2775ZM4093.39928,2722.99674v-63.1908c32.0779,4.946,64.7067,25.5605,80.9156,63.1908h-80.9156ZM4175.67678,2830.51134v77.249h-82.2775v-77.249h82.2775ZM4082.03228,2902.79904c-21.8168-23.4611-40.8487-47.9247-55.3197-72.2877h55.3197v72.2877ZM4175.67678,2919.12734v66.4876c-27.0514-19.852-53.7053-42.423-77.8595-66.4876h77.8595ZM4187.04378,2919.12734h77.8664c-24.1555,24.0646-50.8115,46.6363-77.8664,66.4883v-66.4883ZM4276.28138,2830.51134h59.7371c-15.4291,25.9747-36.0984,52.0458-59.7371,76.9083v-76.9083ZM4264.91438,2907.76034h-77.8706v-77.249h77.8706v77.249ZM4187.04378,2819.14434v-84.7806h77.8706v84.7806h-77.8706ZM4188.25308,2722.99674c15.4548-35.9853,45.9876-56.3508,76.6613-62.4332v62.4332h-76.6613ZM4080.75578,2561.08364l42.2266-60.6813h101.2373l.1353,88.738h-143.5992v-28.0567ZM4131.24118,2600.50734h95.8313l34.1398,49.2588c-31.2453,6.6437-62.1715,26.5082-79.852,60.9422-18.4096-35.8549-51.2271-55.9004-83.7476-61.6804l33.6285-48.5206ZM4064.16038,2659.59014c4.5179-.6937,9.1802-1.0434,13.9312-1.0434,1.2974,0,2.6329.2324,3.9407.2844v64.1656h-82.5356c6.4189-34.6512,29.8162-58.0727,64.6637-63.4066ZM3997.92178,2734.36374h84.1105v84.7806h-58.9552v4.9218c-17.2933-30.8423-27.1062-61.3238-25.2427-89.0697.0146-.2199.0715-.4135.0874-.6327ZM4339.67678,2824.02584v-4.8815h-63.3954v-84.7806h88.5285c.016.2192.0729.4128.0874.6327,1.8628,27.7341-7.9411,58.201-25.2205,89.0294Z"/></g><g id="Peace_14"><path class="cls-2" d="M3453.76868,2687.47204c-16.0403-13.8257-38.3081-18.1827-58.0782-11.3503-11.0666,3.8193-20.4882,10.9493-27.4407,20.0643v-32.3076c33.1769-2.8944,59.3105-30.7923,59.3105-64.7115v-77.088c0-3.1414-2.5421-5.6835-5.6835-5.6835h-118.632c-.1477,0-.2705.0729-.4155.084-.3636.0277-.6973.1144-1.0449.2102-.3816.1034-.7472.2033-1.092.3802-.2921.1485-.5377.3441-.8006.5404-.3178.2387-.6203.4683-.8811.7667-.2241.2532-.3851.5411-.5627.8353-.2054.3427-.3927.6778-.5231,1.0629-.0437.1283-.1402.222-.1748.3552-.0639.2428-.0111.4794-.0424.7222-.0333.2484-.1464.4683-.1464.7264v77.088c0,33.9199,26.1343,61.8178,59.3216,64.7115v32.3117c-6.9525-9.1142-16.3741-16.2463-27.4407-20.0684-19.7479-6.8158-42.0268-2.481-58.0893,11.3503-1.5541,1.3376-2.2645,3.4024-1.8649,5.406,4.1072,20.7914,18.9265,37.9529,38.6966,44.7853,6.183,2.1369,12.6214,3.1803,19.0264,3.1803,9.9614,0,19.8152-2.644,28.6624-7.4859-5.7973,37.744-38.3934,66.7741-77.7381,66.7741h-26.4804l-.0167-10.6121c0-3.1359-2.5531-5.6724-5.6835-5.6724h-.0111l-12.4194.0152-.0021-1.5083c0-3.1414-2.5531-5.6779-5.6835-5.6779h-.0111l-7.0808.0097-.0125-7.0697c0-3.1359-2.5531-5.6724-5.6835-5.6724h-.0111c-3.1414.0056-5.6724,2.5532-5.6724,5.6946l.0125,7.0635-98.5842.1353h-.0125l-18.0558.0249-104.8686.1443-.0257-19.8173c0-3.1359-2.5531-5.6779-5.6835-5.6779h-.0111l-21.6461.0277c-1.4986,0-2.9527.605-4.0184,1.6707-1.0546,1.0656-1.654,2.5142-1.654,4.0239l.0347,19.8187-9.1039.0125c-1.7317,0-3.3745.7993-4.4513,2.1646l-47.4772,60.2318c-1.4542,1.8316-1.6207,4.3736-.444,6.3939,1.1767,2.0092,3.4412,3.0971,5.7945,2.7419,7.282-1.0768,18.5602,6.3051,23.2779,15.341,2.975,5.6946,2.7419,10.3901-.6993,13.9867-58.0672,60.5648-48.8537,129.7547-48.4319,132.663.4108,2.7974,2.8085,4.8732,5.628,4.8732h.0111l9.5112-.0132.0242,14.5883c0,3.1303,2.5532,5.6724,5.6835,5.6724h.0111l86.3293-.1111c1.4985,0,2.9527-.5994,4.0184-1.665,1.0545-1.0768,1.654-2.5199,1.654-4.0296l-.0299-18.089c.3289-.7826.5231-1.6159.4739-2.4803-2.0758-39.8067,14.6527-89.1821,27.7292-121.0852,7.4818,11.2671,20.192,18.4159,34.2897,18.4159h.0555l16.9173-.0222c22.7673-.0333,41.2609-18.5824,41.2276-41.3386l-.0111-7.3486,82.3004-.113c.0034,0,.0069.002.0104.002h.0111c.0041,0,.0069-.002.0111-.002l38.7743-.0535c1.4986,0,2.9528-.5994,4.0184-1.665,1.0546-1.0768,1.654-2.5199,1.654-4.0296l-.0305-21.5455,12.4299-.0229c3.1414-.0111,5.6723-2.5531,5.6723-5.6946l-.0208-13.3318h26.4624c45.9204,0,83.8601-34.5512,89.3576-79.0132,9.276,5.4844,19.8139,8.358,30.4288,8.358,6.405,0,12.8323-1.0434,19.0153-3.1803,19.7812-6.8324,34.6116-23.9939,38.6966-44.7853.3996-2.0092-.3108-4.0684-1.8649-5.406ZM3105.13278,2795.15884c.0111,3.6077-2.9306,6.5382-6.5383,6.5493l-55.3364.0777h-.0111c-3.5965,0-6.5271-2.9305-6.5382-6.5271l-.0111-6.9483,68.424-.0944.0111,6.9428ZM2966.19788,2762.90054l10.2791-.0167.0111,14.1366-8.4572.0139-1.8108.0021-.0222-14.1359ZM2948.52578,2788.43184l27.9061-.0381,5.7619-.0063c.0035,0,.0063-.0021.0098-.0021l43.132-.0596.0062,6.9441c.0111,9.8684,8.0479,17.883,17.9052,17.883h.0333l55.3364-.0777c9.8796-.0111,17.8942-8.059,17.8831-17.9385l-.0125-6.9365,105.6789-.1457.0021,1.4993c0,.0034-.0021.0069-.0021.0104l.0132,8.3629.0284,21.2708-33.1102.0381-265.1464.3726,24.5746-31.1767ZM2899.84968,3024.33034l-.0111-8.8992,46.0043-.0646,28.958-.0388.0111,8.9138-74.9623.0888ZM2975.10058,3003.95724l-49.0833.0694-41.8527.0562c-.888-16.3068.0666-70.5997,45.801-118.2989,6.8824-7.1821,7.8148-17.0616,2.5642-27.1187-4.4846-8.5808-13.6093-16.9506-23.4666-20.1698l5.918-7.5074,268.453-.3768.0264,15.8746-82.3129.1131-48.1349.0679c-.0028,0-.0056-.0013-.0083-.0013h-.0112c-.0027,0-.0055.0013-.0083.0013l-6.6631.0098c-16.5399.0111-31.1482,9.7685-37.3535,25.1761l.0056.0021c-13.1022,29.9126-34.3154,85.6909-33.8734,132.1024ZM3086.75018,2886.47214c-5.6391,5.6613-13.1542,8.7917-21.1466,8.8028l-16.9173.0222h-.0333c-13.0556,0-24.3942-8.5252-28.3203-20.9031,4.6539-9.9489,14.6576-16.34,26.0003-16.3504l.997-.0014.0021,1.2113c.0333,12.9433,8.3698,24.1327,20.758,27.8403.544.1665,1.099.2442,1.6318.2442,2.4533,0,4.7067-1.5874,5.4393-4.0517.9103-3.0083-.7992-6.1719-3.8075-7.0711-7.5484-2.2645-12.6325-9.0914-12.6547-16.9839l-.002-1.2051,36.7831-.052.0063,7.3402c.0111,7.9814-3.086,15.5075-8.7362,21.1577ZM3194.82758,2846.46984l-.0243-15.878,27.4198-.0277.0208,15.8682-27.4163.0375ZM3233.57758,2819.18044l-.0333-23.955h6.7381l.0145,10.5719c0,.0062-.0034.0118-.0034.018,0,.0063.0034.0118.0034.0181l.0188,13.3359-6.7381.0111ZM3368.24978,2652.22494v-53.1746c0-26.3805,21.4575-47.8435,47.8436-47.8435h.0999v47.9601c0,27.6259-21.071,50.1746-47.9435,53.058ZM3416.19328,2539.83984h-.0999c-22.8277,0-42.4521,13.1279-52.3296,32.1008-6.0921-18.1175-18.1293-33.6951-34.1197-44.1782h86.5492v12.0774ZM3308.92828,2599.16694v-69.0609c28.5043,10.7433,47.9546,37.9682,47.9546,68.9443v53.1746c-26.8739-2.8834-47.9546-25.4321-47.9546-53.058ZM3311.89218,2726.91794c-15.1412-5.2339-26.3417-17.4168-30.4933-32.952,12.8545-9.6575,29.1834-12.3217,44.3357-7.0989,15.1523,5.234,26.3528,17.4169,30.4933,32.9466-12.8545,9.6686-29.1723,12.3272-44.3357,7.1043ZM3413.22938,2726.91794c-15.1523,5.2229-31.4812,2.5587-44.3246-7.1043,4.1405-15.5353,15.341-27.7126,30.4933-32.9466,15.1523-5.2394,31.4923-2.5586,44.3246,7.0989-4.1405,15.5352-15.341,27.7181-30.4933,32.952Z"/></g><g id="Peace_13"><path class="cls-2" d="M2449.16888,2940.17404l-34.0233-45.3015c4.8066-19.6258.6661-39.9621-11.5446-56.2133l-54.0709-71.9707c-5.9499-7.9036-17.2281-9.5187-25.165-3.5688-1.8288,1.3772-3.3274,3.0735-4.4909,4.9752l-4.7226-6.2851c-2.875-3.8241-7.0822-6.3051-11.8443-6.9767-4.7067-.666-9.4799.5273-13.2985,3.4024-1.8455,1.3854-3.3593,3.0929-4.529,5.0098-2.8688-3.6826-6.9761-6.0901-11.6335-6.7526-4.7177-.6716-9.4798.5383-13.3206,3.4134-3.8186,2.875-6.2941,7.0766-6.9712,11.8388-.6771,4.7566.5439,9.4854,3.419,13.304l4.7177,6.2809c-2.1563.5924-4.2036,1.5735-6.0276,2.9603-7.9258,5.9389-9.5243,17.217-3.5744,25.1429l25.3648,33.752c-1.9113.2574-3.7735.7388-5.5551,1.4861-2.576-6.7693-9.0851-11.6161-16.7459-11.6161-2.3325,0-4.5471.4794-6.5938,1.2925v-7.8863c0-9.9017-8.059-17.9607-17.9607-17.9607-2.3429,0-4.5693.4822-6.6236,1.3022-.0777-4.6372-1.9273-8.8325-4.894-11.981,3.0312-3.217,4.9238-7.5199,4.9238-12.2772v-7.8863c2.0467.8132,4.2613,1.2926,6.5938,1.2926,9.9017,0,17.9607-8.0591,17.9607-17.9608v-42.2092c3.1783,1.7788,6.7853,2.8799,10.6788,2.8799,7.6483,0,13.8757-6.2219,13.8757-13.8702v-53.194c0-20.3252-8.9138-39.0685-24.5545-51.8619v-120.2027c0-3.1414-2.542-5.6834-5.6835-5.6834h-73.6634c-3.1415,0-5.6835,2.542-5.6835,5.6834v120.1916c-15.6407,12.799-24.5545,31.5478-24.5545,51.873v90.0257c0,.6265.1221,1.2197.1852,1.8302-.3066.0278-.6112-.0034-.9178.0403-4.6602.6625-8.7695,3.0727-11.6286,6.7588-1.1704-1.9197-2.6863-3.6292-4.5339-5.016-3.8186-2.8751-8.5696-4.0684-13.2985-3.4024-4.7621.6716-8.9693,3.1526-11.8332,6.9767l-4.7296,6.292c-1.1648-1.9058-2.6689-3.6056-4.5061-4.9876-7.9258-5.9333-19.204-4.3293-25.1428,3.5743l-54.082,71.9707c-12.2218,16.2512-16.3512,36.5875-11.5335,56.2133l-34.0344,45.3015c-1.8871,2.5198-1.3876,6.072,1.1211,7.9591l58.8886,44.2469c.9991.7437,2.1979,1.1434,3.419,1.1434.2664,0,.5328-.0222.7992-.0555,1.4875-.2109,2.8418-1.0102,3.7409-2.2091l34.0344-45.3014c20.192-.8326,38.5745-10.4679,50.7852-26.7191l31.9585-42.5263c2.2313-2.9639,3.1748-6.616,2.6531-10.2903-.5217-3.6632-2.4421-6.9045-5.3949-9.1247-3.0561-2.2992-6.6035-3.616-10.2951-4.1093l25.3697-33.7658c5.9499-7.9148,4.3514-19.1929-3.5633-25.1318-1.8309-1.382-3.8817-2.3616-6.0408-2.9534l4.7198-6.2822c2.7384-3.6431,3.9234-8.1097,3.4488-12.636,1.7338-.1588,3.4079-.5092,4.9655-1.1281v7.8807c0,9.9018,8.059,17.9608,17.9607,17.9608,2.3429,0,4.5686-.4815,6.6229-1.3016.0749,4.6415,1.926,8.8403,4.8947,11.9914-3.0312,3.2171-4.9238,7.52-4.9238,12.2773v7.8842c-2.0467-.8124-4.2613-1.2905-6.5938-1.2905-9.9017,0-17.9607,8.048-17.9607,17.9497v42.2203c-3.1783-1.7788-6.7853-2.8799-10.6788-2.8799-7.6483,0-13.8757,6.2164-13.8757,13.8647v53.1939c0,20.3252,8.9138,39.0741,24.5545,51.862v56.6684c0,3.1415,2.542,5.6835,5.6835,5.6835h73.6634c3.1415,0,5.6835-2.542,5.6835-5.6835v-56.6573c15.6407-12.799,24.5545-31.5479,24.5545-51.8731v-62.7668l23.2668,30.9526c12.2107,16.2623,30.5932,25.8976,50.7852,26.7302l34.0344,45.3014c.8991,1.1989,2.2534,1.9982,3.7409,2.2091.2664.0333.5328.0555.7992.0555,1.2211,0,2.4199-.3997,3.419-1.1434l58.8886-44.2469c2.5087-1.8871,3.0082-5.4393,1.1211-7.9591ZM2144.72438,2802.12724c1.7206-.2665,3.4745.1998,4.8842,1.2432,2.8973,2.1868,3.4856,6.3273,1.3099,9.2246l-41.7937,55.6139c-.0034.0049-.0034.0097-.0069.0146l-17.199,22.8859c-1.8871,2.5087-1.3875,6.072,1.1212,7.9591,2.5309,1.9093,6.0942,1.3765,7.9591-1.1211l22.1346-29.4499c1.6984-2.2645,4.196-3.7409,7.0377-4.1405,2.8196-.4218,5.6502.3108,7.9258,2.0203.7105.5439.9103,1.2655.9658,1.6429.0555.3885.0666,1.1323-.4773,1.8538l-31.9586,42.5374c-10.5567,14.0423-26.6525,22.1346-44.2247,22.2345-1.8094-.1776-3.7187.6882-4.8954,2.2534l-32.2916,42.9815-49.7972-37.4201,32.2694-42.9593c1.0768-1.4319,1.4209-3.2857.9214-4.9952-4.9287-17.0172-1.654-34.8891,8.9581-49.0091l54.0932-71.9817c2.1646-2.9028,6.3384-3.5022,9.2246-1.3154,1.3986,1.0545,2.3089,2.5975,2.5531,4.3514.2442,1.7484-.1887,3.4856-1.2433,4.8787-.0041.0056-.0048.0132-.009.0188l-27.032,35.9638c-1.8871,2.5087-1.3876,6.072,1.1212,7.9591,2.542,1.8982,6.0831,1.3764,7.9591-1.1212l41.8048-55.6139c1.0434-1.3987,2.5864-2.3034,4.3403-2.5531,1.654-.2609,3.4745.1887,4.8842,1.2432,1.3987,1.049,2.309,2.5976,2.5532,4.3515.2442,1.7483-.1887,3.48-1.2433,4.8787l-3.2205,4.2862-1.697,2.2576c-.0007.0006-.0007.002-.0014.0027l-36.8637,49.0618c-1.8871,2.5199-1.3875,6.072,1.1212,7.9591,1.0323.7771,2.2312,1.1434,3.419,1.1434,1.7206,0,3.43-.7881,4.5401-2.2645l41.0687-54.6641,10.5601-14.0374c1.0435-1.3987,2.5864-2.3034,4.3403-2.5531,1.7428-.2332,3.4745.1887,4.8843,1.2377,1.3987,1.0545,2.3089,2.5975,2.5531,4.3514.2442,1.7483-.1887,3.4856-1.2432,4.8843l-17.2059,22.8949c-.0028.0042-.0035.009-.0063.0132l-34.4055,45.7878c-1.8871,2.5087-1.3876,6.072,1.1211,7.9591,2.5421,1.8982,6.0831,1.3876,7.9591-1.1211l34.4007-45.792c.0028-.0042.0084-.0049.0111-.009l2.4775-3.2976c1.0553-1.38,2.5906-2.2867,4.3383-2.5302ZM2181.48948,2785.76494c-3.641,0-6.5937-2.9583-6.5937-6.5938v-69.5617c0-3.1415-2.5421-5.6835-5.6835-5.6835s-5.6835,2.542-5.6835,5.6835v45.0128c0,3.6355-2.9528,6.5938-6.5938,6.5938s-6.5937-2.9583-6.5937-6.5938v-90.0257c0-17.6832,8.1256-33.9234,22.2789-44.5577,1.4319-1.0768,2.2756-2.7585,2.2756-4.5457v-117.2777h62.2964l.0222,117.2832c0,1.7872.8437,3.469,2.2646,4.5402,14.1532,10.6399,22.2677,26.88,22.2677,44.5577v53.194c0,1.382-1.1211,2.5032-2.5087,2.5032-5.8833,0-10.6788-4.7955-10.6788-10.6843v-36.8318c0-3.1414-2.542-5.6835-5.6835-5.6835s-5.6835,2.5421-5.6835,5.6835v98.2124c0,3.6355-2.9527,6.5938-6.5937,6.5938s-6.5938-2.9583-6.5938-6.5938v-61.3806c0-3.1415-2.542-5.6835-5.6835-5.6835s-5.6835,2.542-5.6835,5.6835v85.9351c0,3.641-2.9527,6.5938-6.5937,6.5938s-6.5937-2.9528-6.5937-6.5938v-85.9351c0-3.1415-2.5421-5.6835-5.6835-5.6835s-5.6835,2.542-5.6835,5.6835v69.5617c0,3.6355-2.9528,6.5938-6.5938,6.5938ZM2261.74668,2951.04144c0,17.6833-8.1256,33.9234-22.2789,44.5578-1.4319,1.0656-2.2756,2.7529-2.2756,4.5401v53.749h-62.2964l-.0222-53.749c0-1.7872-.8437-3.4745-2.2645-4.5401-14.1533-10.6455-22.2678-26.8856-22.2678-44.5578v-53.1939c0-1.3765,1.1211-2.4977,2.5087-2.4977,5.8833,0,10.6788,4.7955,10.6788,10.6788v36.8317c0,3.1415,2.542,5.6835,5.6835,5.6835s5.6835-2.542,5.6835-5.6835v-98.2179c0-3.6299,2.9527-6.5827,6.5937-6.5827s6.5938,2.9528,6.5938,6.5827v61.3862c0,3.1415,2.542,5.6835,5.6835,5.6835s5.6835-2.542,5.6835-5.6835v-85.9296c0-3.641,2.9527-6.5938,6.5937-6.5938s6.5937,2.9528,6.5937,6.5938v85.9296c0,3.1415,2.5421,5.6835,5.6835,5.6835s5.6835-2.542,5.6835-5.6835v-69.5674c0-3.6409,2.9528-6.5937,6.5938-6.5937s6.5937,2.9528,6.5937,6.5937v69.5674c0,3.1415,2.5421,5.6835,5.6835,5.6835s5.6835-2.542,5.6835-5.6835v-45.0129c0-3.641,2.9528-6.5937,6.5938-6.5937s6.5937,2.9527,6.5937,6.5937v90.0257ZM2386.87248,2979.88084l-32.2916-42.9815c-1.1434-1.5097-3.1415-2.32-4.7289-2.2534-17.6388-.0555-33.8012-8.1478-44.3912-22.2456l-31.9586-42.5263c-.2282-.3025-.3184-.5994-.3885-.8818v-1.2544c.0992-.3968.3004-.9179.8881-1.3605,2.2756-1.7095,5.1173-2.4421,7.9147-2.0203,2.8417.3996,5.3394,1.876,7.0488,4.1516l22.1235,29.4388c1.876,2.4976,5.4282,3.0193,7.9591,1.1211,2.5087-1.8871,3.0083-5.4504,1.1212-7.9591l-17.2025-22.8936c-.0013-.002-.002-.0048-.0034-.0069l-41.7937-55.6028c-2.1757-2.9084-1.5874-7.0489,1.321-9.2357,1.3875-1.0434,3.1303-1.5097,4.8731-1.2432,1.7539.2442,3.2969,1.1544,4.3514,2.5531l36.8762,49.0757c1.8871,2.4976,5.4282,3.0193,7.9591,1.1211,2.5087-1.8871,3.0082-5.4504,1.1211-7.9591l-34.3916-45.7594c-.0098-.0132-.0104-.0284-.0202-.0416l-17.2059-22.9005c-1.0545-1.3931-1.4874-3.1304-1.2432-4.8787.2442-1.7539,1.1544-3.2969,2.542-4.3459,1.4209-1.0545,3.1415-1.4764,4.8954-1.2432,1.7539.2497,3.2968,1.1544,4.3514,2.5531l12.0372,16.0133,39.5805,52.6882c1.1101,1.4764,2.8195,2.2645,4.5401,2.2645,1.1878,0,2.3867-.3663,3.419-1.1434,2.5087-1.8871,3.0083-5.4392,1.1212-7.9591l-41.7826-55.6139c-1.0546-1.3931-1.4875-3.1248-1.2433-4.8731.2442-1.7539,1.1545-3.3025,2.5532-4.3515,1.3986-1.0601,3.208-1.5096,4.8842-1.2432,1.7539.2497,3.2969,1.1544,4.3514,2.5531l14.734,19.6057c.0076.0097.0111.0215.0187.0312.0035.0049.0097.007.0132.0118l27.0278,35.9652c1.876,2.4976,5.4282,3.0194,7.9591,1.1212,2.5088-1.8871,3.0083-5.4504,1.1212-7.9591l-27.0445-35.9902c-1.0518-1.3924-1.4833-3.1255-1.2398-4.8711.2442-1.7539,1.1545-3.2969,2.542-4.3459,2.9306-2.1812,7.06-1.5929,9.2468,1.3099l54.0821,71.9817c10.6232,14.1311,13.8868,31.9808,8.947,48.9869-.4995,1.7206-.1554,3.5744.9214,5.0063l32.2805,42.9704-49.7972,37.4201Z"/></g><g id="Peace_12"><path class="cls-1" d="M1247.94498,2631.43444c-79.7466,0-144.6184,64.8774-144.6184,144.6184,0,79.7466,64.8718,144.6184,144.6184,144.6184s144.6184-64.8718,144.6184-144.6184c0-79.741-64.8718-144.6184-144.6184-144.6184ZM1380.90838,2770.36934h-72.98c-.3754-24.2575-3.0902-46.7959-7.6802-66.3724,14.4793-5.6155,27.9776-13.6635,40.089-23.7463,23.8552,23.0136,39.0699,54.796,40.5712,90.1187ZM1247.94498,2909.30424c-14.3725,0-29.3368-20.0511-38.8319-53.758,12.4854-3.8041,25.5362-5.8743,38.8319-5.8743,13.295,0,26.3465,2.0681,38.8326,5.8715-9.4952,33.709-24.4594,53.7608-38.8326,53.7608ZM1297.36128,2859.23644c12.355,4.9356,23.9238,11.7777,34.3979,20.2724-16.4836,13.3804-36.1948,22.9109-57.7875,27.2048,9.4639-10.7058,17.5063-27.0535,23.3896-47.4772ZM1221.91828,2906.71364c-21.5913-4.2939-41.3018-13.8237-57.7848-27.202,10.4727-8.494,22.0416-15.3354,34.3959-20.2724,5.8833,20.423,13.9257,36.7693,23.3889,47.4744ZM1247.94498,2838.30494c-14.2434,0-28.2343,2.1778-41.6293,6.2031-4.0773-17.9947-6.6263-39.1726-6.9899-62.7717h97.2384c-.3636,23.5985-2.9126,44.7756-6.9899,62.7703-13.3943-4.0246-27.3845-6.2017-41.6293-6.2017ZM1199.32578,2770.36934c.3636-23.6019,2.9126-44.7818,6.9906-62.7772,13.3957,4.0246,27.3866,6.2031,41.6286,6.2031,14.2462,0,28.2364-2.1771,41.6293-6.1997,4.0773,17.9948,6.6263,39.1733,6.9899,62.7738h-97.2384ZM1247.94498,2642.80144c14.3732,0,29.3368,20.0491,38.8319,53.7567-12.4847,3.8019-25.5348,5.8701-38.8319,5.8701-13.295,0-26.3458-2.0689-38.8312-5.8722,9.4958-33.7062,24.4587-53.7546,38.8312-53.7546ZM1198.53008,2692.86304c-12.3529-4.9356-23.9204-11.7743-34.3952-20.2697,16.483-13.3783,36.1921-22.9074,57.782-27.2013-9.4618,10.7045-17.5042,27.0501-23.3868,47.471ZM1273.97308,2645.39204c21.5906,4.2939,41.2997,13.8237,57.7827,27.202-10.4727,8.4954-22.0395,15.3362-34.3945,20.2717-5.8833-20.4229-13.9257-36.7685-23.3882-47.4737ZM1155.55068,2680.25204c12.1142,10.0793,25.6153,18.1259,40.0925,23.7407-4.5908,19.5773-7.3062,42.1177-7.6816,66.3766h-72.9801c1.5007-35.322,16.7147-67.1037,40.5692-90.1173ZM1114.98148,2781.73634h72.9801c.3754,24.2569,3.0908,46.7952,7.6809,66.3725-14.4751,5.6155-27.9741,13.6641-40.0876,23.7483-23.8559-23.0136-39.072-54.7967-40.5734-90.1208ZM1340.33718,2871.85574c-12.1121-10.0835-25.6111-18.1349-40.089-23.7504,4.59-19.5766,7.3048-42.1135,7.6802-66.369h72.98c-1.5013,35.3227-16.716,67.1058-40.5712,90.1194Z"/><path class="cls-1" d="M1244.71468,2618.29144c.988.6993,2.1313,1.049,3.2858,1.049s2.2978-.3497,3.2858-1.049c30.5377-21.6573,65.4601-58.0949,63.351-89.504-1.1323-16.8063-11.7555-28.7727-27.7293-31.2204-13.0875-2.0203-29.1834,3.2247-38.9075,16.5676-9.7241-13.3318-25.6978-18.5546-38.9186-16.5676-15.9627,2.4532-26.5859,14.4141-27.7182,31.2204-2.1091,31.4257,32.8133,67.8523,63.351,89.504ZM1210.81358,2508.80634c1.2765-.1998,2.5975-.2997,3.9407-.2997,10.6787,0,22.7895,6.2385,27.9512,19.4871,1.6873,4.3625,8.9027,4.3681,10.59-.0056,5.7945-14.9136,20.3584-20.9912,31.8919-19.1818,5.073.7771,17.0061,4.357,18.1051,20.747,1.6207,24.1049-26.0975,55.564-55.292,77.088-29.1945-21.5185-56.9127-52.9775-55.292-77.088,1.099-16.39,13.021-19.9699,18.1051-20.747Z"/><path class="cls-1" d="M1095.87808,2670.05894c13.1875,0,26.4083-1.2599,38.2304-3.2747,2.3756-.4051,4.2405-2.2645,4.6512-4.6456,6.2718-36.9149,5.1951-87.3671-18.5047-108.0863-12.6991-11.0895-28.6728-12.0386-41.6827-2.4643-10.6898,7.8481-18.3603,22.9116-15.7961,39.2183-16.3956-2.5198-31.3702,5.1118-39.2294,15.8017-9.5576,13.0265-8.6141,29.0003,2.4754,41.6827,14.0755,16.1069,41.8936,21.7682,69.8559,21.7682ZM1032.71578,2613.33494c4.8843-6.6548,13.6981-11.6556,23.6554-11.6556,4.0295,0,8.2366.8159,12.4548,2.6697,2.1313.9491,4.6512.4773,6.3052-1.1822,1.6539-1.654,2.1313-4.1627,1.1877-6.3051-6.4494-14.6472-.3552-29.2556,8.9804-36.1158,4.1294-3.0304,15.0857-8.9692,27.4739,1.8649,18.1939,15.9016,20.8469,57.7453,15.4187,93.6112-35.8437,5.4393-77.704,2.7807-93.6112-15.4131-10.8119-12.3661-4.9064-23.3334-1.8649-27.474Z"/><path class="cls-1" d="M1090.19458,2779.28314c1.3876-1.9704,1.3876-4.6068,0-6.5716-21.6572-30.5321-57.6786-65.3935-89.515-63.351-16.8174,1.1323-28.7727,11.7611-31.226,27.7348-1.9981,13.1098,3.2303,29.1834,16.5732,38.902-13.3429,9.7297-18.5824,25.7978-16.5621,38.9186,2.4422,15.9627,14.4086,26.5859,31.2149,27.7182.9102.0555,1.8205.0888,2.7418.0888,30.7819,0,65.7487-33.7791,86.7732-63.4398ZM1001.43438,2831.28934c-16.3845-1.099-19.9588-13.021-20.7359-18.105-1.765-11.4447,4.2626-26.0809,19.1818-31.892,2.1868-.8492,3.6188-2.9528,3.6188-5.295s-1.4431-4.4458-3.6188-5.295c-14.9192-5.8056-20.9357-20.4306-19.1818-31.8864.7771-5.0785,4.3514-17.0116,20.7359-18.1106.6771-.0444,1.3543-.0666,2.0425-.0666,23.8218,0,54.1375,26.98,75.0621,55.3586-21.5129,29.2056-53.094,56.8905-77.1046,55.292Z"/><path class="cls-1" d="M1134.03078,2885.23814c-36.8983-6.2718-87.3726-5.1839-108.0752,18.5047-11.1006,12.6769-12.0442,28.6506-2.4866,41.6827,7.8593,10.7009,23.0227,18.438,39.2295,15.7961-2.5531,16.3068,5.1063,31.3702,15.785,39.2184,5.9832,4.3958,12.577,6.5715,19.204,6.5715,7.8037,0,15.6297-3.0305,22.5009-9.0359,23.7109-20.7137,24.7765-71.1769,18.4936-108.0863-.4107-2.3756-2.2756-4.2405-4.6512-4.6512ZM1112.70658,2989.41714c-12.3771,10.8119-23.3556,4.9064-27.485,1.8649-9.3356-6.8602-15.4187-21.4686-8.9693-36.1102.9436-2.1424.4662-4.6512-1.1878-6.3051-1.0878-1.0879-2.542-1.6651-4.0184-1.6651-.777,0-1.554.1554-2.2867.4773-14.6527,6.4383-29.2611.3552-36.1213-8.9804-3.0415-4.1405-8.947-15.1079,1.8649-27.4739,15.9183-18.1939,57.7674-20.8247,93.6112-15.4187,5.4393,35.866,2.7863,77.7151-15.4076,93.6112Z"/><path class="cls-1" d="M1251.17528,2933.80324c-1.9759-1.3987-4.5957-1.3987-6.5716,0-30.5377,21.6572-65.4601,58.1004-63.351,89.515,1.1323,16.8063,11.7555,28.7728,27.7293,31.226,1.8094.2664,3.6631.4107,5.5613.4107,11.8555,0,24.9653-5.4726,33.3462-16.9839,9.7352,13.3429,25.7422,18.5935,38.9186,16.5621,15.9627-2.4421,26.5859-14.4086,27.7182-31.2149,2.1091-31.4257-32.8133-67.8578-63.351-89.515ZM1285.07638,3043.29934c-11.4114,1.8094-26.0752-4.2737-31.8919-19.1818-1.7095-4.3736-8.9027-4.3514-10.59,0-5.7945,14.9081-20.3584,20.9801-31.892,19.1818-5.0729-.777-17.006-4.3514-18.105-20.7359-1.6207-24.1105,26.0975-55.5806,55.292-77.1046,29.1945,21.5129,56.9127,52.983,55.292,77.1046-1.099,16.3845-13.021,19.9589-18.1051,20.7359Z"/><path class="cls-1" d="M1361.78148,2885.31584c-2.3756.4107-4.2405,2.2756-4.6512,4.6512-6.2718,36.9094-5.1951,87.3615,18.5047,108.0752,6.8712,6.0054,14.6971,9.047,22.5009,9.047,6.6159,0,13.2096-2.1757,19.1818-6.5604,10.6898-7.8593,18.3603-22.9227,15.7961-39.2295,16.3178,2.5531,31.3702-5.1063,39.2183-15.785,9.5687-13.0321,8.6363-29.0058-2.4643-41.7049-20.7137-23.6997-71.1547-24.7432-108.0863-18.4936ZM1463.17418,2938.77624c-6.8602,9.3356-21.4575,15.452-36.1102,8.9693-2.1313-.9325-4.6512-.4773-6.3052,1.1878-1.6539,1.6539-2.1313,4.1627-1.1877,6.3051,6.4494,14.6528.3552,29.2611-8.9804,36.1213-4.1516,3.0415-15.1079,8.9248-27.4739-1.8649-18.1939-15.9072-20.8469-57.7452-15.4187-93.6112,35.8659-5.4393,77.704-2.7863,93.6112,15.4076,10.823,12.3771,4.9064,23.3445,1.8649,27.485Z"/><path class="cls-1" d="M1509.86318,2776.10834c13.3429-9.7241,18.5824-25.7977,16.5621-38.9131-2.4422-15.9682-14.4086-26.5914-31.2149-27.7237-31.1371-2.0036-67.8467,32.8078-89.515,63.351-1.3876,1.9704-1.3876,4.6068,0,6.5716,21.0356,29.6607,56.0024,63.4398,86.7843,63.4398.9102,0,1.8205-.0333,2.7307-.0888,16.8063-1.1323,28.7727-11.7555,31.226-27.7293,1.9981-13.1097-3.2303-29.1889-16.5732-38.9075ZM1515.19148,2813.29534c-.7771,5.0729-4.3514,17.006-20.7359,18.105-24.1993,1.654-55.5695-26.0864-77.1046-55.292,21.5129-29.1945,52.6722-56.9959,77.1046-55.292,16.3845,1.099,19.9588,13.0265,20.7359,18.1051,1.7539,11.4502-4.2626,26.0863-19.1818,31.8919-2.1757.8492-3.6188,2.9528-3.6188,5.295s1.4431,4.4458,3.6188,5.295c14.9192,5.8056,20.9357,20.4362,19.1818,31.892Z"/><path class="cls-1" d="M1361.85918,2666.86194c11.8221,2.0148,25.0429,3.2747,38.2304,3.2747,27.9512,0,55.7693-5.6613,69.8448-21.7682,11.1006-12.688,12.0441-28.6617,2.4754-41.6883-7.837-10.6898-22.9671-18.3104-39.2183-15.7961,2.5531-16.3012-5.1063-31.3647-15.7961-39.2183-13.0321-9.5798-29.0059-8.6141-41.6938,2.4643-23.7109,20.7248-24.7765,71.1769-18.4936,108.0864.4107,2.381,2.2756,4.2459,4.6512,4.6455ZM1383.18338,2562.68854c12.366-10.8175,23.3556-4.8953,27.485-1.8649,9.3356,6.8602,15.4187,21.4686,8.9693,36.1158-.9436,2.1424-.4662,4.6456,1.1877,6.3051,1.654,1.6596,4.1739,2.1313,6.3052,1.1822,14.686-6.4383,29.2722-.3441,36.1213,8.9804,3.0415,4.1405,8.947,15.1079-1.8649,27.4795-15.9183,18.1938-57.7564,20.8413-93.6112,15.4131-5.4393-35.8659-2.7863-77.704,15.4076-93.6112Z"/></g><g id="Peace_11"><path class="cls-2" d="M534.34736,2799.03564c0-22.8283-18.5713-41.4051-41.4052-41.4051h-80.4237v-43.8119c9.09142,5.1992,19.3379,7.957,29.6608,7.957,6.405,0,12.8433-1.0435,19.0264-3.1803,19.78122-6.8269,34.6116-23.9884,38.6966-44.7798.39962-2.0092-.3108-4.0683-1.8649-5.4059-16.0404-13.8314-38.3192-18.1772-58.0783-11.3504-11.0665,3.8193-20.48818,10.9493-27.4406,20.0643v-32.3075c33.1769-2.8945,59.31042-30.7924,59.31042-64.7116v-77.088c0-3.1414-2.542-5.6834-5.68352-5.6834h-118.6319c-.1353,0-.2484.0679-.38158.077-.40172.027-.77152.1214-1.153.2324-.34492.0985-.67582.1887-.99012.3469-.3122.1575-.5758.3635-.8547.5758-.3081.2338-.6008.4586-.8548.7493-.2206.2512-.3809.5335-.5557.8242-.2088.3462-.3982.6862-.53,1.0754-.0438.1276-.1402.2213-.1749.3538-.06378.2428-.0111.4794-.0423.7223-.0333.2483-.1464.4683-.1464.7263v77.088c0,33.9199,26.1342,61.8178,59.3215,64.7116v32.3117c-6.9524-9.1143-16.374-16.2464-27.44058-20.0685-19.75912-6.8268-42.03792-2.481-58.07832,11.3504-1.554,1.3376-2.2645,3.3967-1.8649,5.4059,4.0851,20.7914,18.9154,37.9474,38.6856,44.7798,6.183,2.1368,12.6213,3.1803,19.0375,3.1803,10.3228,0,20.5693-2.762,29.6607-7.9598v43.8147h-104.6785c-42.2044,0-82.2324,18.01-110.4174,49.3532H51.02807c-3.1415,0-5.6835,2.542-5.6835,5.6835v187.0669c0,3.1415,2.542,5.6835,5.6835,5.6835h134.8499c28.2065,31.4036,68.3684,49.3532,110.595,49.3532h133.9507c22.8339,0,41.40522-18.5712,41.40522-41.4051,0-11.9311-5.14442-22.614-13.24372-30.1763,22.1901-.7396,40.0405-18.9008,40.0405-41.2671,0-12.4701-5.6536-23.5346-14.4009-31.1316,18.4332-4.1835,32.2618-20.629,32.2618-40.3117,0-12.4701-5.65368-23.5346-14.401-31.1316,18.4332-4.1835,32.2618-20.629,32.2618-40.3118ZM443.66666,2667.80464c15.1634-5.2395,31.4813-2.5643,44.3247,7.0988-4.1406,15.5353-15.341,27.7126-30.4933,32.9465-15.1634,5.245-31.4924,2.5643-44.3247-7.0988,4.1406-15.5353,15.341-27.7126,30.4933-32.9465ZM356.16088,2707.84994c-15.14122-5.2339-26.34172-17.4112-30.48222-32.9465,12.83222-9.6631,29.16122-12.3217,44.3246-7.0988,15.1523,5.2339,26.3528,17.4168,30.4933,32.9465-12.8323,9.6631-29.1834,12.3438-44.33568,7.0988ZM412.51846,2633.16244v-53.1745c0-26.3806,21.45742-47.8435,47.8435-47.8435h.09992v47.96c0,27.6259-21.071,50.1747-47.94342,53.058ZM460.46188,2520.77744h-.09992c-22.8276,0-42.45208,13.1278-52.3295,32.1008-6.0921-18.1176-18.1293-33.6951-34.1197-44.1783h86.54912v12.0775ZM353.19696,2580.10444v-69.0608c28.5042,10.7432,47.9545,37.9681,47.9545,68.9443v53.1745c-26.8738-2.8833-47.9545-25.4321-47.9545-53.058ZM296.47296,3043.40384c-39.629,0-77.2933-17.1282-103.4019-47.0109-1.0323-1.4209-2.7085-2.3423-4.5956-2.3423H56.71157v-175.6999h131.7528c.82,0,1.58951-.1881,2.2936-.5003.0805-.0354.14091-.1089.22-.1484.6251-.3136,1.1836-.7174,1.6505-1.2287.0382-.0424.0943-.0548.1318-.0986,26.0975-30.1047,63.895-47.3772,103.7127-47.3772h89.3042c16.5621,0,30.0382,13.4761,30.0382,30.0381v125.0259c0,6.7158-5.46148,12.1773-12.1774,12.1773-26.4082,0-47.899-21.4907-47.899-47.899v-53.5825c0-3.1415-2.542-5.6835-5.6835-5.6835s-5.6835,2.542-5.6835,5.6835c0,46.1118-37.5088,83.6207-83.6206,83.6207h-17.8609c-3.1414,0-5.6835,2.542-5.6835,5.6835s2.5421,5.6835,5.6835,5.6835h17.8609c36.0991,0,67.547-20.2364,83.6206-49.9637v8.5585c0,17.2233,7.5061,32.6156,19.2748,43.4539-.84288,3.3031-1.41388,6.6694-1.41388,10.1286,0,11.9311,5.14438,22.614,13.24368,30.1763-22.179.7395-40.0294,18.9008-40.0294,41.2671,0,11.8526,5.0695,22.4835,13.0744,30.0381h-52.0486ZM460.46188,3013.36574c0,16.562-13.47612,30.0381-30.03822,30.0381h-53.5825c-16.562,0-30.027-13.4761-30.027-30.0381s13.465-30.0382,30.027-30.0382h53.5825c16.5621,0,30.03822,13.4761,30.03822,30.0382ZM487.25866,2941.92234c0,16.5621-13.4761,30.0382-30.0381,30.0382h-53.5826c-16.562,0-30.03808-13.4761-30.03808-30.0382,0-.8991.14708-1.7719.22548-2.6579,8.7923,5.168,18.8973,8.3414,29.8126,8.3414,12.9877,0,23.5444-10.5566,23.5444-23.5443v-12.1774h30.0382c16.562,0,30.0381,13.4762,30.0381,30.0382ZM505.11956,2870.47904c0,16.562-13.4761,30.0382-30.0382,30.0382h-47.899v-60.0764h47.899c16.5621,0,30.0382,13.4761,30.0382,30.0382ZM492.94216,2829.07384h-65.7598v-30.0382c0-11.8512-5.0702-22.4828-13.0786-30.0381h78.8384c16.5621,0,30.0382,13.4761,30.0382,30.0381s-13.4761,30.0382-30.0382,30.0382Z"/></g><g id="Peace_10"><path class="cls-1" d="M4105.47158,1392.71334c13.8362,15.6248,33.9789,25.5438,56.4375,25.5438,41.6049,0,75.4617-33.8567,75.4617-75.4617,0-36.6722-26.3014-67.2869-61.0171-74.0506-14.3385-16.0521-34.6519-25.2774-56.205-25.2774-41.605,0-75.4618,33.8567-75.4618,75.4617,0,36.2101,25.4703,66.8082,60.7847,73.7842ZM4226.00378,1342.79544c0,35.3442-28.7505,64.0947-64.0947,64.0947-19.7251,0-37.3826-8.9679-49.1493-23.026-2.2381-2.6781-4.2085-5.5406-5.9665-8.5149-.179-.3018-.3733-.5953-.5474-.9005-1.6769-2.9458-3.0992-6.0214-4.2876-9.183-.1415-.3774-.2817-.7569-.417-1.1378-1.1239-3.1699-2.0085-6.4231-2.6225-9.7366-.0749-.4072-.1214-.8235-.1887-1.2335-.5634-3.4135-.9158-6.872-.9158-10.3624,0-35.3443,28.7505-64.1059,64.0948-64.1059,3.3301,0,6.8268.3219,10.6898.9769.0125.0021.0236-.007.0361-.0049,30.2449,5.1292,53.3688,31.4514,53.3688,63.1339ZM4120.14868,1254.83444c13.8757,0,27.1742,4.4735,38.0972,12.5769-.7049.034-1.3869.1499-2.0869.2026-1.2003.0909-2.3922.2005-3.5765.3476-1.3106.1623-2.6045.367-3.8942.596-1.1448.2039-2.2812.4176-3.4079.6722-1.2884.2914-2.5552.6279-3.8179.9845-1.0872.3067-2.1681.6182-3.2345.972-1.2515.4149-2.4782.879-3.6999,1.3571-1.0324.4038-2.0606.8061-3.07,1.2536-1.2051.5336-2.3769,1.1177-3.548,1.7123-.9713.4926-1.9419.9803-2.8883,1.5132-1.1524.6486-2.2666,1.3487-3.3801,2.0556-.9054.5752-1.8143,1.1399-2.6933,1.7512-1.0871.7562-2.1299,1.5644-3.1747,2.3755-.8409.6521-1.6887,1.2918-2.5011,1.9787-1.0109.8547-1.9711,1.7615-2.9348,2.6676-.7735.7264-1.5589,1.4368-2.3006,2.1951-.9269.9463-1.7948,1.9447-2.671,2.9389-.7015.7958-1.4202,1.5721-2.0883,2.397-.8353,1.031-1.6034,2.1126-2.3846,3.1873-.623.8568-1.2689,1.6949-1.8565,2.5788-.741,1.1149-1.4057,2.2784-2.0883,3.4342-.537.9096-1.1039,1.799-1.6034,2.7321-.641,1.1975-1.1968,2.4422-1.774,3.6771-.4433.9484-.922,1.876-1.3272,2.8459-.5391,1.2926-.9831,2.6295-1.4507,3.9567-.34.965-.7243,1.9072-1.0261,2.8896-.4316,1.4063-.7563,2.8549-1.1066,4.2939-.231.9491-.5148,1.878-.7098,2.841-.3274,1.6214-.5349,3.283-.7562,4.9405-.1096.8165-.2796,1.6144-.3621,2.4386-.2512,2.4997-.3851,5.0327-.3851,7.5977,0,2.9118.2054,5.7737.528,8.6008.0825.716.2227,1.4188.3261,2.132.3122,2.1772.6986,4.3244,1.1933,6.4377.1734.7354.3698,1.4611.5647,2.1903.5682,2.1368,1.2259,4.2314,1.9738,6.2898.2283.6279.4441,1.2572.689,1.8788.9317,2.3672,1.971,4.6761,3.1289,6.9198.111.2158.186.4475.2991.6619-23.3224-9.7907-39.0963-32.6912-39.0963-58.9774,0-35.3442,28.7505-64.0947,64.0948-64.0947Z"/><path class="cls-1" d="M4221.03078,1481.26404h-8.9471v-13.4539c0-22.956-18.6712-41.6272-41.6272-41.6272-15.4187,0-28.7498,8.5211-35.9437,21.0086-7.1938-12.4875-20.525-21.0086-35.9437-21.0086-22.956,0-41.6271,18.6712-41.6271,41.6272v38.3525h-21.735c-22.956,0-41.6272,18.6712-41.6272,41.6272s18.6712,41.6272,41.6272,41.6272h21.735v165.9648c0,22.956,18.6711,41.6271,41.6271,41.6271,15.4187,0,28.7499-8.521,35.9437-21.0085,7.1939,12.4875,20.525,21.0085,35.9437,21.0085,22.956,0,41.6272-18.6711,41.6272-41.6271v-190.8634h8.9471c22.956,0,41.6271-18.6712,41.6271-41.6272s-18.6711-41.6272-41.6271-41.6272ZM4068.30898,1467.81014c0-16.6842,13.576-30.2602,30.2601-30.2602s30.2602,13.576,30.2602,30.2602v38.3525h-60.5203v-38.3525ZM4004.94678,1547.78984c0-16.6842,13.5761-30.2602,30.2602-30.2602h99.3058c3.1415,0,5.6835-2.542,5.6835-5.6835v-44.036c0-16.6842,13.576-30.2602,30.2602-30.2602s30.2602,13.576,30.2602,30.2602v79.9797c0,16.6842-13.576,30.2602-30.2602,30.2602h-135.2495c-16.6841,0-30.2602-13.576-30.2602-30.2602ZM4098.56908,1785.64204c-16.6841,0-30.2601-13.5761-30.2601-30.2602v-165.9648h60.5203v165.9648c0,16.6841-13.576,30.2602-30.2602,30.2602ZM4200.71668,1755.38184c0,16.6841-13.576,30.2602-30.2602,30.2602s-30.2602-13.5761-30.2602-30.2602v-165.9648h30.2602c11.9109,0,22.6674-5.0286,30.2602-13.0654v179.0302ZM4221.03078,1553.15144h-8.9471v-60.5204h8.9471c16.6841,0,30.2601,13.576,30.2601,30.2602s-13.576,30.2602-30.2601,30.2602Z"/></g><g id="Peace_09"><path class="cls-1" d="M3338.77088,1228.20414h-337.502c-3.1415,0-5.6835,2.542-5.6835,5.6835v337.502c0,3.1415,2.542,5.6835,5.6835,5.6835h140.7775v229.5156c0,3.1415,2.5421,5.6835,5.6835,5.6835h44.58c3.1414,0,5.6834-2.542,5.6834-5.6835v-229.5156h140.7776c3.1415,0,5.6835-2.542,5.6835-5.6835v-337.502c0-3.1415-2.542-5.6835-5.6835-5.6835ZM3186.62638,1800.90524h-33.213v-223.8321h33.213v223.8321ZM3333.08738,1565.70614h-326.135v-326.135h326.135v326.135Z"/><path class="cls-1" d="M3157.30968,1392.69254v-91.4688c0-1.6873-.7437-3.2858-2.0425-4.3625-1.2877-1.0768-2.986-1.5097-4.6511-1.2322-51.8175,9.3467-89.4263,54.3485-89.4263,107.0096,0,15.9071,3.4523,31.348,10.2569,45.9231.7105,1.5208,2.0758,2.653,3.7076,3.086.4773.1221.9547.1887,1.4431.1887,1.1656,0,2.32-.3663,3.2969-1.0546l75.0288-53.4604c1.4986-1.0656,2.3866-2.7862,2.3866-4.6289ZM3145.94268,1389.76194l-66.8921,47.6659c-4.307-11.1672-6.4938-22.8339-6.4938-34.7892,0-44.8574,30.4711-83.5097,73.3859-94.3771v81.5004Z"/><path class="cls-1" d="M3188.41348,1509.74814c.3331,0,.6772-.0333,1.0102-.0888,21.5351-3.8963,41.1721-14.0422,56.8017-29.361,1.1988-1.1878,1.8094-2.8307,1.6762-4.5069-.1221-1.6762-.9991-3.208-2.3645-4.1849l-53.8267-38.3525c-1.7317-1.2322-4.0073-1.4098-5.9055-.4218-1.8871.9768-3.0748,2.9194-3.0748,5.0508v66.1816c0,1.6873.7437,3.2858,2.0425,4.3625,1.0323.8548,2.32,1.321,3.6409,1.321ZM3194.09698,1448.90584l39.1296,27.8847c-11.3448,9.6686-24.6766,16.5621-39.1296,20.2252v-48.1099Z"/><path class="cls-1" d="M3154.23488,1432.83224c-1.9093-.988-4.1961-.8104-5.9056.4218l-53.8267,38.3525c-1.3653.9769-2.2423,2.5087-2.3644,4.1849-.1332,1.6762.4773,3.3191,1.6762,4.5069,15.6296,15.3188,35.2665,25.4647,56.8017,29.361.333.0555.6771.0888,1.0101.0888,1.321,0,2.6087-.4662,3.641-1.321,1.2988-1.0767,2.0425-2.6752,2.0425-4.3625v-66.1816c0-2.1314-1.1877-4.074-3.0748-5.0508ZM3145.94268,1497.01574c-14.4529-3.6631-27.7847-10.5566-39.1295-20.2252l39.1295-27.8847v48.1099Z"/><path class="cls-1" d="M3260.14548,1450.78184c.9769.6883,2.1313,1.0546,3.2969,1.0546.4884,0,.9657-.0666,1.443-.1887,1.6318-.433,2.9972-1.5652,3.7076-3.086,6.8047-14.5751,10.257-30.016,10.257-45.9231,0-52.6611-37.6088-97.6629-89.4263-107.0096-1.6651-.2775-3.3746.1554-4.6511,1.2322-1.2988,1.0767-2.0425,2.6752-2.0425,4.3625v91.4688c0,1.8427.888,3.5633,2.3866,4.6289l75.0288,53.4604ZM3194.09698,1308.26154c42.9149,10.8674,73.386,49.5197,73.386,94.3771,0,11.9553-2.1868,23.622-6.4939,34.7892l-66.8921-47.6659v-81.5004Z"/><path class="cls-1" d="M3170.01988,1539.74194c75.5949,0,137.1033-61.5083,137.1033-137.1033s-61.5084-137.0922-137.1033-137.0922-137.1033,61.4973-137.1033,137.0922,61.5083,137.1033,137.1033,137.1033ZM3170.01988,1276.91344c69.3342,0,125.7363,56.4021,125.7363,125.7252,0,69.3342-56.4021,125.7363-125.7363,125.7363s-125.7363-56.4021-125.7363-125.7363c0-69.3231,56.4021-125.7252,125.7363-125.7252Z"/></g><g id="Peace_08"><path class="cls-1" d="M2500.99108,1519.76084c-1.7761-7.4929-6.3384-13.8313-12.8545-17.8497-13.5094-8.3365-31.2703-4.1294-39.5846,9.3911l-33.8457,55.0145c-6.516-9.5576-18.4936-14.6639-30.4267-11.811l-61.8635,14.6638c-.655.1554-1.2766.4218-1.8316.7993l-93.7777,62.3186c-1.5874,1.0435-2.5421,2.8196-2.5421,4.7289l-.1332,169.5724c0,1.4986.5995,2.9528,1.6651,4.0185,1.0657,1.0656,2.5087,1.665,4.0184,1.665h104.8228c3.1304,0,5.6724-2.5309,5.6835-5.6613l.6327-134.428,70.4332-16.6953c12.033-2.8528,22.2234-10.2236,28.7172-20.758l57.4122-93.2338c4.0184-6.5161,5.2617-14.231,3.4745-21.735ZM2487.83688,1535.53484l-57.4122,93.2337c-4.8953,7.9481-12.588,13.5094-21.6572,15.663l-74.7846,17.7276c-2.5532.5994-4.3626,2.875-4.3737,5.5059l-.6327,133.2402h-93.478l.1332-160.8363,90.3921-60.0763,60.8755-14.4308c9.2468-2.2423,18.7267,3.5744,20.9468,12.91,2.2091,9.3356-3.5855,18.7267-12.9099,20.9468l-61.8747,14.675,2.6198,11.0562,61.8746-14.675c14.02-3.3302,23.2113-16.4511,22.0235-30.3934l38.6523-62.8182c5.0396-8.1589,15.7406-10.7343,23.9328-5.6724,3.9407,2.4199,6.6937,6.2607,7.7704,10.8009,1.0768,4.5401.333,9.2024-2.098,13.1431Z"/><path class="cls-1" d="M2197.03498,1632.28744l-93.7777-62.3186c-.555-.3775-1.1767-.6439-1.8316-.7993l-61.8635-14.6638c-11.8999-2.8529-23.9107,2.2423-30.4267,11.811l-33.8457-55.0256c-8.3254-13.4872-26.0642-17.7165-39.5847-9.38-6.516,4.0184-11.0784,10.3568-12.8544,17.8497-1.7872,7.504-.544,15.2189,3.4744,21.7239l57.4122,93.256c6.4939,10.5233,16.6842,17.8941,28.7172,20.7469l70.4332,16.6953.6328,134.428c.0111,3.1304,2.5531,5.6613,5.6835,5.6613h104.8227c1.5097,0,2.9528-.5994,4.0185-1.665,1.0656-1.0657,1.665-2.5199,1.665-4.0185l-.1332-169.5724c0-1.9093-.9546-3.6854-2.542-4.7289ZM2094.86528,1800.90524l-.6328-133.2402c-.0111-2.6309-1.8205-4.9065-4.3736-5.5059l-74.7846-17.7276c-9.0692-2.1536-16.7619-7.7149-21.6573-15.6519l-57.4122-93.2559c-2.431-3.9296-3.1747-8.5919-2.098-13.132,1.0768-4.5402,3.8297-8.381,7.7704-10.8009,8.1701-5.0619,18.8932-2.4865,23.9329,5.6613l38.6522,62.8293c-1.1877,13.9423,8.0035,27.0632,22.0236,30.3934l61.8746,14.675,2.6197-11.0562-61.8746-14.675c-9.3245-2.2201-15.119-11.6112-12.91-20.9468,2.2201-9.3245,11.6778-15.1079,20.9468-12.91l60.8756,14.4308,90.392,60.0763.1332,160.8363h-93.4779Z"/><path class="cls-1" d="M2366.51868,1382.80194c0-85.2414-69.3565-154.5978-154.5978-154.5978s-154.5978,69.3564-154.5978,154.5978,69.3564,154.5978,154.5978,154.5978,154.5978-69.3565,154.5978-154.5978ZM2310.96028,1486.02894c-13.107-10.9639-27.7404-19.7021-43.447-25.754,4.9772-21.1376,7.9202-45.5207,8.2984-71.7895h79.0521c-1.5125,38.2713-18.0135,72.6942-43.9035,97.5435ZM2169.82188,1467.73804c13.5302-4.1607,27.68-6.4328,42.099-6.4328,14.4203,0,28.5715,2.2694,42.1003,6.4286-10.2479,36.5514-26.4998,58.2989-42.1003,58.2989s-31.8504-21.7454-42.099-58.2947ZM2185.01518,1523.41224c-23.7948-4.545-45.5256-14.9393-63.5897-29.7065,11.4745-9.3751,24.1826-16.9062,37.7711-22.2879,6.4425,22.571,15.3354,40.5289,25.8186,51.9944ZM2211.92088,1239.57114c15.6005,0,31.8517,21.7474,42.0996,58.2981-13.5302,4.1593-27.6807,6.4294-42.0996,6.4294s-28.5694-2.2701-42.0997-6.4294c10.248-36.5507,26.4992-58.2981,42.0997-58.2981ZM2159.19518,1294.19014c-13.5906-5.3817-26.298-12.9148-37.7704-22.2921,18.0641-14.7679,39.7956-25.1615,63.5904-29.7065-10.4839,11.4662-19.3775,29.4256-25.82,51.9986ZM2238.82658,1242.19154c23.7948,4.545,45.5263,14.9386,63.5904,29.7065-11.4725,9.3773-24.1799,16.9104-37.7704,22.2921-6.4425-22.573-15.3362-40.5324-25.82-51.9986ZM2211.92088,1315.66564c15.368,0,30.4551-2.3797,44.8914-6.7589,4.4715,19.5197,7.2654,42.5326,7.6344,68.2117h-105.0517c.3691-25.6791,3.163-48.692,7.6344-68.2117,14.4363,4.3792,29.5234,6.7589,44.8915,6.7589ZM2264.44668,1388.48544c-.369,25.6784-3.1622,48.6913-7.6337,68.2103-14.4356-4.3792-29.5227-6.7575-44.8921-6.7575-15.3681,0-30.4545,2.379-44.8915,6.7588-4.4714-19.5196-7.2653-42.5325-7.6344-68.2116h105.0517ZM2264.64658,1471.41234c13.5892,5.381,26.2945,12.9162,37.7676,22.2955-18.0641,14.7665-39.7942,25.1594-63.5876,29.7044,10.4838-11.4662,19.3775-29.4269,25.82-51.9999ZM2354.86378,1377.11844h-79.0521c-.3782-26.2696-3.3212-50.6534-8.2984-71.791,15.7087-6.0519,30.3441-14.788,43.4504-25.7498,25.8887,24.8493,42.3876,59.2708,43.9001,97.5408ZM2112.87798,1279.57764c13.1063,10.9618,27.7418,19.6979,43.4505,25.7498-4.9772,21.1376-7.9203,45.5214-8.2984,71.791h-79.0521c1.5125-38.27,18.0114-72.6915,43.9-97.5408ZM2068.97798,1388.48544h79.0521c.3781,26.2702,3.3205,50.6533,8.2984,71.7916-15.706,6.0512-30.3407,14.7867-43.4505,25.7492-25.8879-24.8494-42.3875-59.2709-43.9-97.5408Z"/></g><g id="Peace_07"><path class="cls-1" d="M1253.82188,1230.37984c-159.8262,0-289.8584,130.0322-289.8584,289.8584s130.0322,289.8583,289.8584,289.8583,289.8583-130.0322,289.8583-289.8583-130.0322-289.8584-289.8583-289.8584ZM1253.82188,1798.72954c-153.5655,0-278.4914-124.9259-278.4914-278.4913s124.9259-278.4914,278.4914-278.4914,278.4914,124.9259,278.4914,278.4914-124.926,278.4913-278.4914,278.4913Z"/><path class="cls-1" d="M1434.27288,1391.38264c-.9657-1.3543-2.4865-2.2201-4.1516-2.3533-1.654-.1332-3.308.4662-4.4846,1.6429l-301.3808,301.3808c-1.1767,1.1766-1.7872,2.8195-1.6429,4.4846.1332,1.6651.9991,3.1859,2.3533,4.1516,37.9196,27.1298,82.4774,41.4718,128.8556,41.4718,122.3728,0,221.9228-99.55,221.9228-221.9228,0-46.3783-14.342-90.936-41.4718-128.8556ZM1324.87668,1517.19664c12.4895,12.4895,22.4488,26.887,29.8897,42.4202l-60.5342,60.5439c-15.5395-7.429-29.9439-17.3751-42.4306-29.8668-1.6304-1.6366-3.12-3.3586-4.6644-5.0487l72.7054-72.7053c1.6852,1.5444,3.4065,3.0353,5.0341,4.6567ZM1369.72298,1635.12924c-22.1914,1.2446-44.0762-2.2763-64.332-10.0537l54.2971-54.3061c7.7933,20.2551,11.3184,42.1427,10.0349,64.3598ZM1253.82188,1730.79404c-41.7604,0-81.9667-12.2551-116.7115-35.5219l101.9886-101.9886c1.5479,1.6803,3.0249,3.4002,4.6547,5.0361,31.2037,31.2038,73.175,48.4319,116.9557,48.4319,4.9175,0,9.8684-.2109,14.8192-.655,2.7419-.2442,4.9176-2.4199,5.1618-5.1617,4.3514-49.0313-13.0654-97.0635-47.788-131.7861-1.6311-1.6249-3.3454-3.1012-5.0223-4.6463l100.9757-100.9757c23.2669,34.7448,35.5219,74.9511,35.5219,116.7115,0,116.1009-94.4548,210.5558-210.5558,210.5558Z"/><path class="cls-1" d="M1207.47828,1515.12294c.0993-.0867.2262-.1187.3206-.213l41.7049-41.7049c.0943-.0944.1262-.2213.2129-.3205.1041-.1187.1978-.2234.2914-.3504l128.0182-128.0181c1.1988-1.1989,1.7983-2.8751,1.6429-4.5735-.1665-1.6873-1.0879-3.2191-2.4977-4.1627-36.5764-24.5101-79.2359-37.4645-123.3496-37.4645-122.3728,0-221.9228,99.5501-221.9228,221.9229,0,44.1137,12.9543,86.7732,37.4644,123.3496.9436,1.4098,2.4755,2.3311,4.1627,2.4976.1888.0111.3664.0222.5551.0222,1.4985,0,2.9527-.5883,4.0184-1.665l129.0283-129.0283c.1269-.0937.2317-.1874.3503-.2914ZM1164.37338,1479.52124l27.0632,27.0632-27.7625,3.197-27.0633-27.0632,27.7626-3.197ZM1241.17828,1456.84274l-27.0632-27.0632,3.197-27.7625,27.0632,27.0632-3.197,27.7625ZM1208.15408,1439.89224l29.2112,29.2111-33.6681,33.6681-29.2112-29.2112,33.6681-33.668ZM1075.03588,1631.43274c-20.8025-33.3684-31.7698-71.6543-31.7698-111.1945,0-116.101,94.4548-210.5559,210.5558-210.5559,39.5402,0,77.8262,10.9674,111.1945,31.7699l-111.9972,111.9972,2.9673-25.8012c.1998-1.7206-.3996-3.4412-1.6318-4.6622l-37.3312-37.3313c-1.543-1.5541-3.8075-2.0758-5.8945-1.3432-2.0536.7105-3.5188,2.5421-3.7742,4.7178l-4.6247,40.2132-38.8937,38.8937-40.2132,4.6248c-2.1758.2553-4.0073,1.7206-4.7178,3.7742-.7215,2.0647-.1998,4.3514,1.3432,5.8944l37.3312,37.3312c1.0768,1.0768,2.5199,1.6651,4.0185,1.6651.2109,0,.4329-.0111.6438-.0333l25.8012-2.9673-113.0074,113.0074Z"/><rect class="cls-1" x="1118.42315" y="1407.12137" width="11.36575" height="48.20255" transform="translate(-682.81954 1214.35262) rotate(-45.00933)"/><rect class="cls-1" x="1160.1336" y="1365.41092" width="11.36575" height="48.20255" transform="translate(-641.04797 1231.04122) rotate(-44.99067)"/><rect class="cls-1" x="1135.2239" y="1376.46993" width="11.36575" height="59.68603" transform="translate(-660.24956 1218.64245) rotate(-45)"/></g><g id="Peace_06"><path class="cls-1" d="M535.81416,1590.91734c8.3254,0,17.7831-3.5744,27.2852-13.0987,15.6407-15.5297,24.5101-43.1591,22.0901-68.757-.17758-1.876-1.2654-3.53-2.9083-4.4403-14.5196-8.0257-31.2037-2.2312-44.6798,15.4964-.1783.2352-.324.4878-.4996.7244,1.475-13.8223,1.8739-27.5982,1.1684-41.2234,1.0989.1207,2.1868.2816,3.3163.2816,11.3781,0,23.9661-6.4272,31.2259-25.0984,8.0146-20.4694,4.8398-49.3421-7.9036-71.8318-.9103-1.6096-2.5421-2.6753-4.3736-2.8529-16.6731-1.8316-29.49428,10.2903-34.6006,31.9697-.0499.2137-.0568.4614-.1054.6764-4.34028-13.2166-9.7484-26.0301-16.1888-38.3317,11.78052-3.6146,22.589-14.557,21.0342-36.7075-1.4764-22.2123-17.3724-47.566-39.5514-63.0957-1.4542-.999-3.2524-1.2766-4.9508-.7659-16.1847,5.0174-22.6563,21.2798-17.3169,43.5031.0423.1735.1255.3594.1685.5336-6.0206-6.2899-12.3473-12.3335-19.0819-18.0177-2.44418-18.4713-18.3284-37.5206-41.4516-49.1193-23.8552-12.0997-53.527-14.4974-72.1871-5.8168-1.543.7216-2.6863,2.0981-3.1081,3.752-.4219,1.6429-.0777,3.4079.9324,4.7733,9.9683,13.4872,28.1067,27.3407,51.1071,39.0407,21.0578,10.5456,40.4172,16.0515,56.30212,16.0515.35248,0,.69238-.0222,1.04138-.0271,6.0158,5.0758,11.67362,10.4637,17.0928,16.048-.0028-.0007-.00418-.0021-.0069-.0028-19.093-5.2173-36.01028,1.4875-43.0925,17.1837-.8436,1.876-.6105,4.085.6328,5.739,12.0663,16.107,26.6191,28.0179,42.1156,34.4562,6.9933,2.8862,13.7647,4.307,20.0032,4.307,7.7635,0,14.7069-2.2117,20.2759-6.5153,6.063,11.5883,11.1783,23.6484,15.2918,36.0901-.1978-.1652-.3678-.374-.5676-.5356-17.772-14.4752-35.37748-10.1793-45.9231-1.2988-1.5652,1.3099-2.2978,3.3524-1.9426,5.3505,3.3746,18.9265,11.27822,35.3331,22.8783,47.4328,9.3134,9.6575,19.9256,14.6971,30.1603,14.6971,2.5101,0,4.9953-.3455,7.4388-.9616.6445,12.7754.2733,25.6889-1.0851,38.6474-.0944-.188-.1519-.401-.2484-.5876-10.3346-20.2253-28.1955-23.2335-41.5272-19.315-1.9204.5661-3.4079,2.1091-3.8964,4.0628-4.6733,18.4935-4.1294,36.6208,1.5874,52.4391,5.6919,15.613,16.1542,25.4516,28.7339,27.5308-4.8315,12.561-10.5386,24.5969-17.2697,35.9264-.0063-.3948.0631-.8013.0471-1.194-.8436-22.8228-16.0181-32.7245-29.9271-34.3785-2.0203-.2775-3.8963.5661-5.1285,2.1091-12.0441,15.1745-19.426,32.0363-21.3686,48.787-1.8781,16.7335,3.2989,29.9404,13.9173,36.8866-24.8084,22.8026-55.0117,40.6482-89.599,52.6389,1.1205-4.699,1.6686-9.3585,1.3633-13.9083-1.1323-16.8063-11.7555-28.7727-27.7293-31.2148-13.0986-2.0314-29.1834,3.2191-38.90188,16.562-9.72971-13.354-25.78671-18.5046-38.90761-16.5731-15.9737,2.4532-26.6025,14.4196-27.7348,31.2259-.308,4.5922.2546,9.296,1.3987,14.0401-34.7497-11.9941-65.08829-29.882-89.991-52.7686,10.6211-6.9455,15.8016-20.158,13.91871-36.9109-1.937-16.7285-9.32451-33.5903-21.36861-48.7648-1.2211-1.543-3.2081-2.3977-5.1229-2.1091-13.9202,1.654-29.0947,11.5557-29.9272,34.3563-.0166.401.0541.8159.0486,1.219-6.73389-11.331-12.44789-23.3654-17.2822-35.9285,12.5818-2.0779,23.0475-11.9171,28.7449-27.5426,5.7113-15.8183,6.2552-33.9456,1.5818-52.4391-.4939-1.9426-1.9759-3.4856-3.9018-4.0517-13.3152-3.9407-31.1815-.9103-41.51059,19.2928-.10341.1991-.16451.426-.26511.6272-1.3598-12.9683-1.7337-25.8901-1.0885-38.6731,2.4463.6147,4.9342.9588,7.4533.9588,10.2348,0,20.8525-5.0396,30.16031-14.6971,11.60009-12.1108,19.50929-28.5063,22.87279-47.4217.35521-2.0092-.383-4.0406-1.9371-5.3505-10.5511-8.8694-28.1455-13.1764-45.912,1.2877-.2116.1713-.3913.3926-.6008.5675,4.11411-12.4507,9.2336-24.5184,15.3014-36.1144,5.5649,4.3057,12.5062,6.5188,20.2718,6.5188,6.2496,0,13.021-1.4208,20.031-4.307,15.4853-6.4383,30.0437-18.3492,42.0934-34.4562,1.2377-1.654,1.4819-3.8519.6327-5.739-7.0655-15.6851-23.97719-22.4565-43.0591-17.1837-.0202.0056-.0396.0153-.0597.0208,5.4254-5.5905,11.0902-10.9847,17.1129-16.066.3511.0049.69171.0271,1.0463.0271,15.8793,0,35.25541-5.5059,56.341-16.0737,22.9671-11.6778,41.0999-25.5313,51.0682-39.0185,1.0101-1.3654,1.3543-3.1193.9324-4.7733-.4218-1.6539-1.5596-3.0304-3.1081-3.752-18.6657-8.6806-48.34309-6.2718-72.1594,5.8057-23.1461,11.6209-39.0372,30.6632-41.4801,49.136-6.7338,5.6828-13.0598,11.7243-19.0791,18.0121.0444-.1776.1291-.3677.1721-.5447,5.3338-22.2122-1.1434-38.4746-17.33359-43.492-1.68171-.5218-3.50781-.2331-4.93971.777-22.179,15.5186-38.075,40.8723-39.5459,63.0624-1.5589,22.1651,9.2413,33.1096,21.0245,36.727-6.4411,12.3022-11.8533,25.1157-16.1936,38.3337-.04929-.2178-.0569-.4696-.1076-.6868-5.0896-21.6572-18.0273-33.7791-34.5838-31.9586-1.8372.1776-3.4745,1.2433-4.3847,2.8529-12.7435,22.4897-15.9127,51.3624-7.9037,71.8096,7.2598,18.6934,19.8534,25.1206,31.226,25.1206,1.1274,0,2.21451-.1609,3.3128-.2809-.7049,13.6218-.3011,27.3941,1.1725,41.2129-.1762-.2372-.3219-.4898-.5002-.7257-13.4761-17.7165-30.1714-23.4999-44.6688-15.4853-1.64279.9103-2.7251,2.5643-2.90279,4.4403-2.43651,25.5868,6.43839,53.2273,22.06249,68.7459,9.5131,9.5243,18.9764,13.1098,27.3129,13.1098,5.48861,0,10.429-1.6297,14.6382-4.0677,5.082,13.0855,11.11241,25.6631,18.2175,37.547-.222-.1256-.4302-.2761-.6529-.3996-19.8201-10.9563-37.5699-9.6464-47.4605,3.4412-1.1434,1.5207-1.45969,3.5077-.8326,5.2949,8.5308,24.5212,28.6784,46.4782,50.1136,54.6149,6.9046,2.6419,13.0321,3.7742,18.4159,3.7742,11.7111,0,19.8069-5.3935,24.5427-12.2606,28.3613,26.368,63.2629,46.6155,103.0085,59.0051,11.1929,23.3376,35.1729,46.3457,56.9904,61.8081.9824.6993,2.13681,1.0434,3.28581,1.0434,1.14889,0,2.30329-.3441,3.28568-1.0434,21.8592-15.4916,45.8822-38.553,57.0445-61.9371,39.57082-12.398,74.3219-32.601,102.5833-58.8782,4.7392,6.8713,12.83852,12.2738,24.54752,12.2738,5.37268,0,11.50018-1.1323,18.39368-3.7742,21.4574-8.1478,41.605-30.1048,50.14132-54.626.62158-1.7872.31078-3.7742-.83252-5.2838-9.8907-13.1098-27.6294-14.4086-47.4883-3.4523-.20818.1158-.4031.2574-.6106.3746,7.0996-11.8769,13.1195-24.4497,18.19742-37.5276,4.21058,2.4429,9.15588,4.0733,14.64928,4.0733ZM537.00188,1414.67334c2.04248-8.6473,7.21538-22.5674,19.52588-23.3112,9.7242,18.9709,12.1108,42.926,5.6946,59.3104-5.1062,13.1209-13.909,19.4926-24.0438,17.5833-4.2959-19.426-4.7178-38.3414-1.17668-53.5825ZM390.35206,1282.36554c-17.8608-9.0914-32.4581-19.4038-41.9935-29.583,14.1422-3.419,35.3776-1.8316,55.0034,8.1367,19.9256,9.9905,31.10392,24.388,34.53392,36.1768-13.43172-.766-29.70512-5.8056-47.54382-14.7305ZM188.09397,1260.90814c13.5483-6.8824,27.8625-9.7574,40.0842-9.7574,5.4726,0,10.5289.5772,14.9025,1.6318-9.5354,10.1903-24.1215,20.4916-41.9546,29.5608-17.8719,8.9471-34.1565,13.9756-47.58819,14.7527,3.43559-11.7888,14.61949-26.1863,34.55609-36.1879ZM29.21137,1450.65034c-6.4106-16.3733-4.02949-40.3173,5.7001-59.2882,12.305.7438,17.4835,14.6639,19.5149,23.3001,3.5522,15.2522,3.1303,34.1676-1.1711,53.5936-10.07939,1.8649-18.9376-4.4513-24.0439-17.6055ZM126.35807,1595.49074c9.3967,12.6769,15.3799,26.8856,16.934,40.3284.888,7.9036.5994,21.3797-10.22919,27.0521-14.59171-11.478-24.16041-29.3388-23.53881-44.4134.444-12.1218,6.6659-20.4917,16.834-22.9671ZM75.95588,1523.75874c4.84539-9.4688,12.50479-14.6305,21.24659-14.6305,1.2488,0,2.5253.111,3.8186.3219,3.1969,14.9525,2.4976,29.905-2.0259,42.4375-4.4902,12.3106-12.1662,19.5814-21.352,20.4029-.9616-1.9634-1.8135-3.9837-2.55929-6.0415-.11521-.3788-.23661-.7549-.34971-1.1344-4.8572-14.2392-4.6185-30.0825,1.22171-41.3559ZM84.29797,1424.11994c9.5521-7.7926,20.1143-8.947,28.8227-3.3412-3.2636,15.2521-9.8684,28.3841-19.204,38.1304-9.13579,9.4688-19.1319,13.1098-27.9124,10.257-.605-17.5056,6.6548-35.644,18.2937-45.0462ZM134.79457,1335.54844c12.477-3.4634,22.7451-.444,28.1399,7.9813-10.3623,13.0321-22.462,22.6563-35.1444,27.9291-12.4215,5.1284-23.0948,4.5623-29.9161-1.432.8034-1.9058,1.7345-3.7687,2.737-5.5961,1.4362-2.3117,2.8723-4.6227,4.3896-6.8851,7.7586-10.6788,18.6358-18.9883,29.794-21.9972ZM72.10957,1338.47894c1.1878-17.8719,14.32531-39.185,32.2971-52.761,10.8897,5.3727,9.2357,20.2141,7.13221,28.9614-3.76871,15.5297-12.60481,32.9576-24.993,49.3865-10.07381-2.1757-15.42981-11.5113-14.43631-25.5869ZM36.35457,1569.75954c-12.5159-12.4326-20.1142-35.2332-19.0153-56.402,11.6001-4.1627,22.0347,6.5271,27.4407,13.6204,9.3966,12.4105,16.7285,29.905,20.8025,49.553-8.442,5.7057-19.14859,3.3302-29.2279-6.7714ZM93.71127,1676.72474c-17.3113-6.5715-34.31739-24.6543-42.2821-44.6354,8.85271-8.2588,22.9338-2.5642,30.904,1.8538,13.9035,7.7149,28.1844,20.747,41.4551,37.7975-5.1062,8.3143-16.279,10.2902-30.077,4.9841ZM295.90288,1788.01924c-29.20011-21.513-56.91831-52.972-55.29761-77.0936,1.099-16.3844,13.0321-19.9588,18.11061-20.7358,1.28209-.1999,2.60309-.2998,3.94629-.2998,10.6732,0,22.7895,6.2386,27.94571,19.4816,1.69839,4.3514,8.89148,4.3514,10.58988,0,5.8056-14.9081,20.4529-20.9579,31.8865-19.1818,5.084.777,17.006,4.3514,18.105,20.7358,1.6207,24.1327-26.08638,55.5806-55.28638,77.0936ZM546.64826,1526.98904c5.4171-7.1044,15.9072-17.772,27.4629-13.6315,1.0878,21.1688-6.5161,43.9694-19.0375,56.4131-10.0683,10.0683-20.7581,12.466-29.21678,6.7603,4.06288-19.648,11.40028-37.1425,20.79138-49.5419ZM487.02706,1285.71794c17.9829,13.576,31.1149,34.8891,32.3027,52.7832.9879,14.0534-4.3625,23.389-14.4308,25.5647-12.3993-16.44-21.2354-33.8679-24.9874-49.3754-2.1091-8.7584-3.7742-23.5998,7.1155-28.9725ZM493.56526,1370.02684c-6.8268,5.9832-17.5056,6.5493-29.8938,1.432-12.6991-5.2728-24.7987-14.897-35.1667-27.9291,5.406-8.4253,15.7074-11.3892,28.1622-7.9813,11.11592,3.002,21.9604,11.281,29.71492,21.9236,1.54638,2.3055,3.01168,4.6602,4.47488,7.0163.99,1.8094,1.9135,3.6521,2.7085,5.5385ZM497.53936,1458.92024c-9.3467-9.7463-15.9516-22.8783-19.2262-38.1415,8.725-5.6058,19.2928-4.4514,28.8504,3.3523,11.62232,9.3911,18.882,27.5406,18.2715,45.0351-8.7583,2.8306-18.7489-.7771-27.8957-10.2459ZM513.79056,1572.29054c-9.1802-.8215-16.85068-8.0923-21.3353-20.3918-4.529-12.5325-5.2395-27.485-2.0425-42.4486,10.4456-1.6651,19.537,3.4967,25.0762,14.3419,5.5767,10.7627,6.004,25.7256,1.7754,39.4751-.2942,1.0185-.6258,2.0175-.9318,3.0298-.7423,2.0404-1.5866,4.0461-2.542,5.9936ZM448.15288,1635.84134c1.55408-13.465,7.53728-27.6737,16.92838-40.3506,10.1681,2.4754,16.3844,10.8453,16.8284,22.9893.6328,15.0524-8.9359,32.9132-23.5332,44.3912-10.8342-5.6724-11.1117-19.1485-10.22358-27.0299ZM509.09506,1633.94314c7.9702-4.4069,22.05682-10.1015,30.9151-1.8649-7.9591,19.9922-24.97628,38.075-42.30428,44.6576-13.77592,5.2506-24.95412,3.3302-30.04932-4.9952,13.2541-17.0505,27.5294-30.0826,41.4385-37.7975Z"/><path class="cls-1" d="M141.12188,1492.52174c0,85.2414,69.35089,154.5978,154.59779,154.5978,85.2414,0,154.5978-69.3564,154.5978-154.5978s-69.3564-154.5978-154.5978-154.5978c-85.2469,0-154.59779,69.3564-154.59779,154.5978ZM196.68027,1389.29604c13.1042,10.9618,27.7383,19.6987,43.4463,25.7506-4.9772,21.1383-7.9196,45.5214-8.29769,71.7916h-79.05211c1.5125-38.2706,18.0142-72.6928,43.9035-97.5422ZM337.81926,1407.58914c-13.5302,4.1592-27.6806,6.4293-42.0996,6.4293-14.421,0-28.5715-2.2701-42.1003-6.4293,10.2479-36.5515,26.4998-58.2982,42.1003-58.2982s31.8517,21.7474,42.0996,58.2982ZM322.62536,1351.91134c23.7948,4.545,45.5263,14.9386,63.5904,29.7066-11.4725,9.3772-24.1798,16.9103-37.7704,22.292-6.44248-22.573-15.3362-40.5324-25.82-51.9986ZM295.71966,1635.75254c-15.6005,0-31.851-21.7467-42.0997-58.2968,13.5303-4.1599,27.6807-6.4307,42.0997-6.4307,14.4224,0,28.5729,2.268,42.101,6.4259-10.2479,36.5535-26.49978,58.3016-42.101,58.3016ZM348.44606,1581.12934c13.5912,5.381,26.2979,12.9162,37.7683,22.2969-18.0641,14.7666-39.7949,25.1609-63.589,29.7059,10.4838-11.4669,19.3782-29.4284,25.8207-52.0028ZM268.81117,1633.13144c-23.7941-4.5457-45.52629-14.9414-63.5911-29.71,11.4773-9.3738,24.1847-16.9055,37.7739-22.2858,6.4411,22.5709,15.3348,40.5303,25.8172,51.9958ZM295.71966,1559.65804c-15.3667,0-30.4544,2.3783-44.8921,6.7575-4.4715-19.5197-7.26469-42.5319-7.6338-68.2103h105.0518c-.3691,25.677-3.1623,48.6885-7.6331,68.2068-14.4349-4.3771-29.5227-6.754-44.8928-6.754ZM243.19377,1486.83824c.36911-25.6791,3.163-48.692,7.6345-68.2117,14.4363,4.3799,29.5233,6.7589,44.8914,6.7589s30.4551-2.3797,44.8914-6.7589c4.4715,19.5197,7.2654,42.5326,7.6345,68.2117h-105.0518ZM242.99257,1403.90994c-13.5892-5.3803-26.2952-12.9127-37.76969-22.2892,18.06479-14.768,39.79559-25.163,63.58829-29.7087-10.4831,11.4662-19.3768,29.4256-25.8186,51.9979ZM152.77677,1498.20524h79.05211c.37809,26.2695,3.32119,50.6526,8.29769,71.7902-15.708,6.0512-30.3434,14.786-43.4498,25.7492-25.88789-24.8486-42.3875-59.2701-43.9-97.5394ZM394.76046,1595.74744c-13.1022-10.966-27.7355-19.7056-43.447-25.7575,4.9765-21.1362,7.9189-45.5173,8.297-71.7847h79.0521c-1.5125,38.2706-18.0128,72.6929-43.9021,97.5422ZM438.66256,1486.83824h-79.0521c-.3781-26.2695-3.3212-50.6533-8.2984-71.7909,15.7087-6.0519,30.3441-14.7881,43.4504-25.7499,25.8887,24.8493,42.3876,59.2709,43.9001,97.5408Z"/></g><g id="Peace_05"><path class="cls-1" d="M4390.47828,299.48354c-17.7276-17.7165-46.5891-17.7332-64.3389.0055l-83.5541,83.7373c-4.529-20.3474-22.7229-35.5996-44.4023-35.5996h-109.6738c-.5328,0-1.0656.0777-1.5762.222l-68.757,19.8701v-24.2215c0-3.1415-2.5421-5.6835-5.6835-5.6835h-154.3536c-3.1415,0-5.6835,2.542-5.6835,5.6835v228.3944c0,3.1415,2.542,5.6835,5.6835,5.6835h154.3536c3.1414,0,5.6835-2.542,5.6835-5.6835v-52.2282h185.3242c19.9366,0,39.4403-8.0923,53.5159-22.1901l133.4622-133.6509c17.7388-17.7388,17.7388-46.6003,0-64.339ZM4006.80898,566.20824h-142.9866v-217.0274h142.9866v217.0274ZM4382.44148,355.78564l-133.4623,133.651c-11.9664,11.9887-28.5396,18.8599-45.479,18.8599h-185.3242v-128.7445l71.1325-20.5583h108.8745c18.8155,0,34.1232,15.3077,34.1232,34.1343v.4107c-.222,18.6268-15.4409,33.7125-34.1232,33.7125h-109.6738v11.367h109.6738c23.2446,0,42.4819-17.5278,45.1682-40.0731l90.825-91.0248c13.2985-13.2985,34.9668-13.2985,48.2653,0,13.3096,13.3096,13.3096,34.9557,0,48.2653Z"/><path class="cls-1" d="M4156.14508,311.56094c85.2413,0,154.5978-69.3509,154.5978-154.5978,0-85.2413-69.3565-154.5922-154.5978-154.5922s-154.5978,69.3509-154.5978,154.5922c0,85.2469,69.3564,154.5978,154.5978,154.5978ZM4092.25428,162.64664c.3781,26.2675,3.3212,50.6499,8.2984,71.7875-15.7101,6.0505-30.3476,14.7853-43.4553,25.7471-25.8852-24.8487-42.3827-59.2695-43.8952-97.5346h79.0521ZM4156.14508,13.73794c15.6012,0,31.8517,21.7453,42.1003,58.2961-13.5295,4.1606-27.68,6.4314-42.1003,6.4314s-28.5708-2.2708-42.1004-6.4314c10.2487-36.5508,26.4992-58.2961,42.1004-58.2961ZM4103.42078,68.35484c-13.5878-5.381-26.2931-12.9148-37.7677-22.2927,18.0635-14.7659,39.7935-25.1588,63.5869-29.7038-10.4831,11.4662-19.3767,29.4256-25.8192,51.9965ZM4183.05008,16.35834c23.792,4.5443,45.5207,14.9372,63.5841,29.7017-11.4738,9.3786-24.1784,16.9124-37.7648,22.2941-6.4425-22.5709-15.3362-40.5296-25.8193-51.9958ZM4156.14508,89.83244c15.368,0,30.4558-2.379,44.8928-6.7589,4.4708,19.5183,7.264,42.5284,7.633,68.2061h-105.0517c.3691-25.6777,3.1616-48.6892,7.633-68.2068,14.4384,4.3799,29.5262,6.7596,44.8929,6.7596ZM4208.67088,162.64664c-.369,25.6791-3.1615,48.6913-7.633,68.2103-14.4356-4.3792-29.5234-6.7575-44.8928-6.7575-15.3681,0-30.4559,2.3783-44.8929,6.7568-4.4707-19.5183-7.2639-42.5305-7.633-68.2096h105.0517ZM4156.14508,300.19394c-15.6012,0-31.8531-21.746-42.1011-58.2988,13.5296-4.1593,27.6807-6.4287,42.1011-6.4287s28.5715,2.2694,42.101,6.4287c-10.2479,36.5521-26.4998,58.2988-42.101,58.2988ZM4208.87008,245.57354c13.5885,5.381,26.2945,12.9148,37.7669,22.2941-18.0634,14.7666-39.7935,25.1609-63.5869,29.7059,10.4838-11.4669,19.3782-29.427,25.82-52ZM4129.23998,297.57354c-23.794-4.545-45.5255-14.94-63.5896-29.7079,11.4745-9.3779,24.1812-16.9111,37.7697-22.2914,6.4425,22.573,15.3361,40.5324,25.8199,51.9993ZM4255.18378,260.18954c-13.1077-10.9639-27.7404-19.7021-43.447-25.7533,4.9779-21.1383,7.9209-45.5214,8.2991-71.7896h79.0521c-1.5132,38.2693-18.0135,72.6936-43.9042,97.5429ZM4299.08798,151.27964h-79.0521c-.3782-26.2667-3.3205-50.6485-8.2984-71.7853,15.7087-6.0526,30.3434-14.7881,43.4504-25.7506,25.888,24.8479,42.3876,59.2688,43.9001,97.5359ZM4057.09948,53.74654c13.1097,10.9611,27.7465,19.6959,43.4539,25.7471-4.9779,21.1375-7.921,45.5193-8.2991,71.786h-79.0521c1.5125-38.2658,18.0107-72.6852,43.8973-97.5331Z"/></g><g id="Peace_04"><path class="cls-1" d="M3375.68438,132.96254c-.4885-1.9814-2.0092-3.5521-3.974-4.1072-16.1847-4.5346-33.657-.2164-45.6012,11.3448-3.0992,2.9993-5.6988,6.4009-7.8162,10.0606-2.6697-12.2765-5.8903-25.0193-9.7963-38.2755,3.5279.8083,7.0884,1.3071,10.6302,1.3071,12.0885,0,23.9107-4.6012,32.7134-13.1209,11.9331-11.5501,16.8396-28.8726,12.8101-45.2071-.4884-1.987-2.0092-3.5577-3.974-4.1127-16.1736-4.5568-33.657-.2165-45.6012,11.3392-7.5775,7.3305-12.2953,16.988-13.7203,27.238-2.6399-7.8099-5.5503-15.7996-8.6557-23.9155,6.5126-15.3493,4.536-33.063-5.22-46.3317-9.8463-13.3929-26.3195-20.5805-43.0703-18.7933-2.0314.2165-3.7853,1.5097-4.6067,3.3857-6.7048,15.4353-4.7511,33.335,5.084,46.7112,8.6807,11.8062,22.5398,18.7565,37.1599,19.016,2.5171,6.582,4.878,13.0654,7.0759,19.4448-7.3007-5.9923-16.2658-9.8345-25.8754-10.6039-16.6287-1.2821-32.8133,6.4495-42.4042,20.2697-1.1656,1.6817-1.3321,3.8575-.4552,5.7001,7.282,15.1634,22.0902,25.4037,38.6523,26.7302,1.221.0944,2.431.1444,3.641.1444,13.2541,0,25.9857-5.7439,34.9349-15.6262,4.1204,14.1338,7.4908,27.7209,10.1764,40.7239-4.5124-3.9338-9.7713-7.0309-15.5727-8.9964-15.6962-5.3116-33.3683-1.7816-46.0674,9.2801-1.5319,1.3432-2.2312,3.4135-1.8316,5.4171,3.3524,16.4844,15.1967,30.0382,30.9373,35.372,4.8288,1.6374,9.8462,2.4366,14.8415,2.4366,8.2963,0,16.535-2.2416,23.8177-6.4668,6.3564,51.2202,2.3262,91.4674-3.6327,119.427l-34.5936-30.2775c-1.0434-17.5889-12.2661-47.3884-49.4197-49.5808-16.3734-.9491-30.1825,3.6688-41.2276,13.737-7.0461,6.4335-12.219,14.4419-16.0903,22.9595-6.6562-11.2921-20.833-27.1833-51.1015-42.5187-31.3481-15.8961-46.7557-31.5701-61.4528-51.7176-1.2322-1.6707-3.2192-2.5476-5.3172-2.2868-2.0536.2609-3.7964,1.6207-4.5624,3.5467-18.1015,45.7059-4.9605,82.8533,4.3258,100.7835-25.113-6.1545-48.4991-18.6857-68.5093-52.6014-1.0879-1.8483-2.9972-2.8806-5.2728-2.7863-2.1424.1443-4.0184,1.4764-4.8509,3.4523-12.9322,30.5099-12.2884,64.0004,1.8538,96.8526,19.0263,44.2025,59.6434,80.6346,111.4276,99.9496,2.3866.888,3.0304,1.7428,3.0748,1.9759.1333.8325-1.0656,4.4513-8.059,10.0682-21.1577,17.0172-69.7893,33.2019-100.982,20.8802-1.7872-.7104-3.7742-.4884-5.3504.6327-1.5652,1.0879-2.4755,2.8973-2.42,4.8066.0999,3.7076,3.308,91.1136,72.4979,118.7873.6772.2775,1.3987.4107,2.1091.4107.9325,0,1.8649-.2331,2.7086-.6882,1.4875-.7992,2.5309-2.2201,2.8639-3.8741.1332-.6438,13.465-63.9282,71.1881-69.8449,96.0866-9.8129,142.0541-62.6072,144.4185-166.0313l39.686-13.8452c-5.7224,21.5455-11.8201,33.0068-12.0122,33.3489l9.935,5.5281c1.8781-3.3628,34.4333-63.9873,20.2461-173.4508,1.5957.161,3.1935.3261,4.7857.3261,12.0885,0,23.8995-4.6012,32.6912-13.1209,11.9442-11.5557,16.8507-28.8781,12.8101-45.2127ZM3322.97878,70.36084c8.3699-8.0979,19.7923-11.4891,31.3037-9.3411,1.7649,11.5057-1.9871,22.8894-10.3458,30.9817-8.3698,8.0979-19.8589,11.4725-31.3036,9.3467-1.765-11.5058,1.9759-22.8894,10.3457-30.9873ZM3259.94968,119.70854c-11.6112-.9269-21.746-7.3264-27.707-17.317,7.4596-8.9248,18.4713-13.6703,30.0936-12.7157,11.6112.9269,21.7461,7.3264,27.7071,17.3169-7.4596,8.9249-18.4381,13.6926-30.0937,12.7158ZM3278.89838,186.58954c-11.0229-3.7354-19.2817-12.4216-22.6119-23.5721,9.4133-6.8158,21.2465-8.7084,32.2916-4.962,11.0229,3.7354,19.2817,12.416,22.6119,23.5665-9.4355,6.8325-21.2576,8.7029-32.2916,4.9676ZM3053.68978,190.54684c13.798,17.2226,30.3712,32.1362,59.0329,46.6613,43.1015,21.8459,49.7174,43.7231,50.6145,47.9476-2.2493,8.1707-3.5772,16.27-4.3251,23.4624-22.4453-18.7766-48.8536-22.2178-74.496-25.559-6.3426-.8257-12.6192-1.661-18.821-2.6815-5.3873-8.0146-26.1259-43.0633-12.0053-89.8308ZM3260.04958,329.96464c-2.2534.7881-3.7742,2.8972-3.8075,5.2949-1.1766,99.1393-43.8473,149.6137-134.2726,158.8604-53.8156,5.5059-73.7523,54.0599-79.3581,72.1538-45.6122-22.2455-56.3354-77.0491-58.7886-97.8183,35.7327,8.8583,82.7104-8.3254,103.8126-25.2871,9.1025-7.3153,13.1875-14.2976,12.144-20.7359-.5439-3.3857-2.7751-8.0035-10.3124-10.8231-48.8981-18.2271-87.1507-52.4169-104.9671-93.7888-11.2671-26.1696-13.1653-52.6944-5.6502-77.3821,30.6931,44.3135,69.6006,49.3865,104.2012,53.8933,28.3952,3.702,55.2142,7.1932,76.6051,30.6265,1.5651,1.7095,4.0295,2.3089,6.1608,1.4986,2.1757-.7993,3.641-2.8307,3.7187-5.1396.444-13.9867,3.6077-48.4318,23.178-66.2871,8.6918-7.9425,19.8367-11.5224,32.891-10.7898,38.0861,2.2479,38.7854,39.3349,38.7965,40.9112.0111,1.6262.7216,3.1859,1.9426,4.2571l31.3481,27.424-37.6421,13.132ZM3254.04418,43.75274c-6.8935-9.38-8.6917-21.2243-5.0286-32.2749,11.8888-.4773,22.401,5.0508,29.3056,14.4363,6.8934,9.38,8.6917,21.2243,5.0285,32.2749-11.4558-.1776-22.412-5.0507-29.3055-14.4363ZM3354.97068,170.01074c-8.3539,8.0826-19.8152,11.4461-31.2377,9.3398-.0278-.1797-.0569-.3587-.0847-.5384-1.5575-11.3156,2.1362-22.4759,10.3645-30.4475,8.3698-8.1034,19.9033-11.4891,31.3036-9.3411,1.765,11.5002-1.9759,22.8838-10.3457,30.9872Z"/></g><g id="Peace_03"><path class="cls-2" d="M2359.58668,12.16814c-10.6566-3.2302-21.9459-2.0702-31.781,3.2136-9.8906,5.3061-17.106,14.1311-20.2919,24.7099l-38.3948,117.6835-28.686-125.2319c-2.4976-10.9007-9.1135-20.1864-18.6267-26.1474-9.4799-5.9277-20.6693-7.8092-31.5035-5.3338-22.4676,5.184-36.5431,27.7348-31.3924,50.2024l18.5948,86.0385c-7.5206-7.2556-17.686-11.7756-28.9184-11.7756-19.9075,0-36.5479,14.0581-40.7391,32.7779-7.6712-8.8902-18.8772-14.6451-31.5146-14.6451-23.0559,0-41.8158,18.7599-41.8158,41.8158v127.0462c0,44.1359,19.0486,85.6632,52.3614,114.3693v147.3713c0,3.1415,2.542,5.6835,5.6835,5.6835h173.4577c3.1414,0,5.6835-2.542,5.6835-5.6835l.0111-138.835c39.6401-28.2954,63.2178-74.0186,63.2178-122.9056v-80.7331l52.6056-167.3538c6.6604-22.1401-5.8833-45.5845-27.9512-52.2671ZM2192.85588,12.14044c7.8815-1.8316,16.0182-.433,22.9116,3.8907,6.949,4.3459,11.7667,11.1117,13.5872,19.0542l32.3804,141.3603c.1401.6196.4329,1.1573.7465,1.6734l-.5891,1.8067h-63.5563l-28.3364-131.1312c-3.763-16.4344,6.4939-32.8799,22.8561-36.6541ZM2118.13788,167.47644c0-16.8618,13.6649-30.5821,30.4489-30.5821s30.4489,13.7203,30.4489,30.5821v12.4493h-21.413c-13.0876,0-23.7441,10.6787-23.7441,23.8107,0,19.3441,9.3168,36.3967,23.5145,47.3925-2.8342.8666-5.7939,1.3168-8.8063,1.3168-16.784,0-30.4489-13.7147-30.4489-30.5765v-54.3928ZM2045.88428,185.47594c0-16.7896,13.6648-30.4488,30.4488-30.4488s30.4378,13.6592,30.4378,30.4488v54.6538c0,16.7896-13.6537,30.4488-30.4378,30.4488s-30.4488-13.6592-30.4488-30.4488v-54.6538ZM2323.56528,312.52214c0,46.1562-22.7118,89.2376-60.7535,115.2351-1.5541,1.0657-2.4754,2.8196-2.4754,4.6956v136.1264h-162.0907v-144.3187c0-1.6872-.7548-3.2857-2.0536-4.3736-31.9697-26.5859-50.3078-65.7265-50.3078-107.3648v-43.9229c7.6365,8.1631,18.4165,13.3463,30.4488,13.3463,19.9485,0,36.6174-14.0658,40.7635-32.7848,7.6739,8.8964,18.8703,14.652,31.4902,14.652,7.2203,0,14.1942-1.9655,20.4473-5.5135,7.5581,3.4634,15.8842,5.5135,24.721,5.5135h18.0162c-30.2046,16.2513-50.7962,48.2432-50.7962,84.975v18.1272c0,3.1415,2.542,5.6835,5.6835,5.6835s5.6835-2.542,5.6835-5.6835v-18.1272c0-46.8556,37.9751-84.975,84.6419-84.975,3.1415,0,5.6835-2.542,5.6835-5.6835s-2.542-5.6835-5.6835-5.6835h-63.2289c-26.7524,0-48.5095-21.8514-48.5095-48.7093,0-6.8602,5.5502-12.4438,12.3771-12.4438h135.4937c16.7952,0,30.4489,13.7148,30.4489,30.5766v90.6529ZM2376.68158,61.09394l-45.2738,144.0335c-6.4619-14.8074-21.1736-25.2017-38.2914-25.2017h-19.2609l44.5036-136.4317c2.3422-7.7982,7.615-14.2254,14.8193-18.0995,7.1821-3.8464,15.3965-4.6845,23.1225-2.3478,16.0736,4.8676,25.2094,21.968,20.3807,38.0472Z"/></g><g id="Peace_02"><path class="cls-1" d="M1392.26798,349.74064l-65.5601,65.7155c-4.4402-15.8295-18.9931-27.4629-36.2101-27.4629h-87.8944c-.5328,0-1.0656.0777-1.5763.222l-53.6713,15.5082v-17.917c0-3.1415-2.542-5.6835-5.6835-5.6835h-123.7159c-3.1415,0-5.6835,2.542-5.6835,5.6835v183.0597c0,3.1414,2.542,5.6835,5.6835,5.6835h123.7159c3.1415,0,5.6835-2.5421,5.6835-5.6835v-40.728h147.4047c16.5176,0,32.0362-6.4384,43.6918-18.1162l106.9763-107.1206c14.6528-14.6528,14.6528-38.5079,0-53.1607-14.1532-14.1532-39.0296-14.1421-53.1606,0ZM1135.98878,563.18264h-112.3489v-171.6927h112.3489v171.6927ZM1437.39178,394.86454l-106.9763,107.1206c-9.5132,9.5354-22.1789,14.786-35.655,14.786h-147.4047v-101.2151l56.0469-16.1958h87.0951c14.4641,0,26.2307,11.7666,26.2307,26.2307,0,14.4529-11.7666,26.2196-26.2307,26.2196h-87.8944v11.367h87.8944c19.0708,0,34.8781-14.2754,37.2869-32.7024l72.5201-72.6977c9.8462-9.8462,27.2186-9.8684,37.087,0,4.9287,4.9287,7.6483,11.5113,7.6483,18.538,0,7.0378-2.7196,13.6204-7.6483,18.5491Z"/><path class="cls-1" d="M1493.42758,123.47754l-30.4267-26.6192c-1.4764-14.7416-11.589-39.4182-41.7937-41.6549-14.1422-1.0657-25.8977,2.7085-35.2555,11.1283-5.5766,5.0126-9.7664,11.2962-12.9481,18.0613-6.0179-9.4008-17.9219-21.9014-41.6778-33.9407-25.9088-13.132-38.6412-26.0808-50.7963-42.7206-1.2211-1.6706-3.1859-2.5587-5.3061-2.2867-2.0536.2609-3.7964,1.6207-4.5623,3.5466-14.5501,36.7325-5.0258,66.965,2.6655,82.7007-19.9068-5.2665-38.4357-15.8093-54.3387-42.7608-1.0879-1.8482-3.0083-2.8861-5.2728-2.7862-2.1424.1443-4.0184,1.4764-4.8509,3.4578-10.8564,25.6201-10.3236,53.7379,1.5429,81.3118,15.9294,36.9982,49.9083,67.4859,93.2227,83.6373,1.3099.4884,1.9426,1.0601,1.9426.8603,0,.716-1.6762,4.5346-9.9239,10.1626-17.217,11.7444-54.3817,24.4878-79.4691,14.5806-1.7872-.7105-3.7853-.4718-5.3504.6272-1.5652,1.0989-2.4755,2.9028-2.42,4.8121.0888,3.1137,2.7863,76.4275,60.9089,99.661.6772.2775,1.3987.4107,2.1091.4107.9325,0,1.8649-.2331,2.7086-.6882,1.4875-.7993,2.5309-2.2202,2.8639-3.8741.0999-.5329,11.0451-52.4836,58.3669-57.3234,79.1693-8.0924,118.7762-53.3661,120.9519-138.3688l35.2444-12.2883c1.9093-.6661,3.319-2.2978,3.7075-4.2848.3775-1.9871-.3219-4.0296-1.8426-5.3616ZM1277.93198,22.96174c11.3226,13.8147,25.054,25.8699,48.2542,37.6254,34.7101,17.591,40.5574,35.1167,41.4468,38.9353-1.6068,6.1234-2.6704,12.2072-3.2941,17.7443-18.5602-14.7971-40.1175-17.6111-61.0643-20.3418-5.1153-.6667-10.1785-1.3425-15.1828-2.1584-4.5769-7.0627-20.4043-35.1257-10.1598-71.8048ZM1448.83648,135.98234c-2.2534.7881-3.7742,2.9083-3.8075,5.3005-.9657,81.8779-36.1768,123.5606-110.8171,131.1867-44.2802,4.529-61.3196,43.6142-66.4703,59.6101-35.7549-18.1162-44.924-60.8978-47.2218-78.7531,29.8383,6.677,68.3906-7.5095,85.8408-21.5407,7.8481-6.3162,11.367-12.416,10.4345-18.1383-.4884-3.0638-2.4865-7.2431-9.1913-9.7408-40.4172-15.0801-72.0427-43.32-86.751-77.4876-8.9915-20.8857-10.7454-42.0379-5.2284-61.8191,25.5647,35.6995,57.6342,39.8788,86.1849,43.5975,23.4444,3.0582,45.579,5.9444,63.1401,25.1761,1.5652,1.7095,4.0406,2.2701,6.1608,1.5042,2.1758-.8048,3.641-2.8362,3.7187-5.1507.4663-14.6583,3.53-41.2886,18.7156-54.9423,7.0711-6.3551,15.8184-9.0359,26.819-8.2478,29.7829,2.2091,31.4036,32.0141,31.448,33.2796.0666,1.5541.7659,3.0304,1.9426,4.0572l24.8431,21.7294-29.7607,10.3791Z"/></g><g id="Peace_01"><path class="cls-1" d="M258.54147,361.11674c-1.9038-.9769-4.1738-.8104-5.9.4218l-116.384,82.9324c-1.3709.9769-2.2368,2.5088-2.37,4.185s.48841,3.319,1.6873,4.4957c32.8133,32.225,74.0853,53.5603,119.3534,61.7192.3386.0555.6772.0888,1.0102.0888,1.321,0,2.6142-.4662,3.64651-1.3209,1.28769-1.0768,2.037-2.6753,2.037-4.3626v-143.1086c0-2.1314-1.18781-4.074-3.08041-5.0508ZM250.25488,502.37164c-38.16941-8.1145-73.11951-26.1863-101.79231-52.639l101.79231-72.5312v125.1702Z"/><path class="cls-1" d="M295.72288.11474C135.89667.11474,5.86447,130.14694,5.86447,289.97314s130.0322,289.8583,289.85841,289.8583,289.85828-130.0322,289.85828-289.8583S455.54896.11474,295.72288.11474ZM295.72288,568.46444c-153.55991,0-278.49141-124.9259-278.49141-278.4913S142.16297,11.48174,295.72288,11.48174s278.49128,124.9315,278.49128,278.4914-124.9259,278.4913-278.49128,278.4913Z"/><path class="cls-1" d="M338.80416,361.53854c-1.7317-1.2322-4.00728-1.4098-5.9055-.4218-1.8871.9768-3.07478,2.9194-3.07478,5.0508v143.1086c0,1.6873.74368,3.2858,2.04248,4.3626,1.0212.8547,2.32,1.3209,3.641,1.3209.333,0,.6771-.0333,1.0101-.0888,45.2682-8.1589,86.5401-29.5053,119.3535-61.7192,1.1988-1.1767,1.8093-2.8195,1.6761-4.4957-.1221-1.6762-.999-3.2081-2.3644-4.185l-116.3785-82.9324ZM341.19088,502.37164v-125.1702l101.79228,72.5312c-28.6728,26.4527-63.6174,44.5245-101.79228,52.639Z"/><path class="cls-1" d="M254.92817,65.06974c-108.8967,19.6425-187.93829,114.225-187.93829,224.9034,0,33.3683,7.25419,65.8264,21.56279,96.4973.716,1.5208,2.0703,2.6531,3.7021,3.086.4773.1221.9657.1887,1.4486.1887,1.1711,0,2.3256-.3663,3.2969-1.0546l162.235-115.6014c1.4985-1.0657,2.38661-2.7918,2.38661-4.629V70.66444c0-1.6817-.74931-3.2802-2.037-4.3625-1.29321-1.0767-2.96941-1.5374-4.65671-1.2322ZM250.25488,265.52964l-154.20371,109.8846c-11.7444-27.2963-17.6944-56.0024-17.6944-85.4411,0-102.8913,71.8819-191.1465,171.89811-212.3986v187.9551Z"/><path class="cls-1" d="M336.51746,65.06974c-1.6318-.2997-3.37458.161-4.6511,1.2322-1.2988,1.0823-2.04248,2.6808-2.04248,4.3625v197.7957c0,1.8372.888,3.5633,2.38658,4.629l162.235,115.6014c.9768.6883,2.1313,1.0546,3.2968,1.0546.4885,0,.9658-.0666,1.4431-.1887,1.6318-.4329,2.9972-1.5652,3.7076-3.086,14.3087-30.6709,21.5684-63.1401,21.5684-96.4973,0-110.6728-79.0472-205.2609-187.9439-224.9034ZM495.38896,375.41424l-154.19808-109.8846V77.57454c100.01618,21.2521,171.90348,109.5073,171.90348,212.3986,0,29.4276-5.9499,58.1337-17.7054,85.4411Z"/></g></svg>