<svg xmlns="http://www.w3.org/2000/svg" width="26.489" height="26.489" viewBox="0 0 26.489 26.489"><path d="M0,0H4.075V1.812H0Z" transform="translate(19.464 20.749) rotate(-135)" fill="#8ebac5"/><circle cx="10.393" cy="10.393" r="10.393" transform="translate(0 0)" fill="#c0d6f2"/><path d="M186.231,0q-.4,0-.8.03a10.393,10.393,0,0,1,0,20.725q.4.03.8.03a10.393,10.393,0,0,0,0-20.786Z" transform="translate(-175.839)" fill="#bec6ed"/><circle cx="8.794" cy="8.794" r="8.794" transform="translate(1.599 1.599)" fill="#62dbfb"/><path d="M186.231,30.905c-.27,0-.536.013-.8.037a8.794,8.794,0,0,1,0,17.515c.263.024.53.037.8.037a8.794,8.794,0,1,0,0-17.588Z" transform="translate(-175.839 -29.306)" fill="#60b7ff"/><path d="M373.528,371.267l4.4,4.4a1.6,1.6,0,0,1-2.261,2.261l-4.4-4.4a.543.543,0,0,1,0-.768l1.493-1.493A.543.543,0,0,1,373.528,371.267Z" transform="translate(-351.909 -351.909)" fill="#fe646f"/><path d="M400.6,375.668l-4.4-4.4a.543.543,0,0,0-.768,0l-.415.415L399,375.668a1.6,1.6,0,0,1-.331,2.515,1.6,1.6,0,0,0,1.93-2.515Z" transform="translate(-374.578 -351.909)" fill="#fe3d97"/><path d="M0,0H1.814V3.2H0Z" transform="translate(21.577 23.842) rotate(-135)" fill="#fee45a"/><path d="M0,0H1.131V1.814H0Z" transform="translate(21.751 21.094) rotate(-45)" fill="#ffd15b"/><path d="M163.79,87.744l-1.079-2.15a.237.237,0,0,0-.212-.131h-1.821a1.106,1.106,0,0,1-1.106-1.106V76.84a1.106,1.106,0,0,1,1.106-1.106H174.3A1.106,1.106,0,0,1,175.4,76.84v7.518a1.106,1.106,0,0,1-1.106,1.106h-8.778a.237.237,0,0,0-.212.13l-1.083,2.15A.243.243,0,0,1,163.79,87.744Z" transform="translate(-151.316 -71.816)" fill="#f3eae6"/><g transform="translate(21.38 3.918)"><path d="M415.96,76.84a1.106,1.106,0,0,0-1.106-1.106h-1.6a1.106,1.106,0,0,1,1.106,1.106v7.518a1.106,1.106,0,0,1-1.106,1.106h1.6a1.106,1.106,0,0,0,1.106-1.106Z" transform="translate(-413.255 -75.734)" fill="#d9e7ec"/></g><g transform="translate(10.108 5.12)"><g transform="translate(0 0.937)"><path d="M195.763,117.856h2.606a.388.388,0,0,0,0-.776h-2.606a.388.388,0,1,0,0,.776Z" transform="translate(-195.375 -117.08)" fill="#8ebac5"/><path d="M201.911,150.308h-6.148a.388.388,0,1,0,0,.776h6.148a.388.388,0,0,0,0-.776Z" transform="translate(-195.375 -148.589)" fill="#8ebac5"/><path d="M201.911,178.884h-6.148a.388.388,0,1,0,0,.776h6.148a.388.388,0,1,0,0-.776Z" transform="translate(-195.375 -175.687)" fill="#8ebac5"/><path d="M201.911,207.46h-6.148a.388.388,0,1,0,0,.776h6.148a.388.388,0,0,0,0-.776Z" transform="translate(-195.375 -202.784)" fill="#8ebac5"/></g><path d="M348.706,100.9a2.087,2.087,0,0,0-4.169.153.388.388,0,1,0,.776,0,1.338,1.338,0,0,1,.013-.183,1.311,1.311,0,1,1,1.3,1.495.388.388,0,0,0-.388.388v1.31a.388.388,0,1,0,.776,0v-.959a2.1,2.1,0,0,0,1.14-.629A2.07,2.07,0,0,0,348.706,100.9Z" transform="translate(-336.82 -98.97)" fill="#fe646f"/><path d="M377.771,213.442a.388.388,0,0,0-.388.388v.284a.388.388,0,1,0,.776,0v-.284A.388.388,0,0,0,377.771,213.442Z" transform="translate(-367.967 -207.52)" fill="#fe646f"/></g></svg>