<svg xmlns="http://www.w3.org/2000/svg" width="32.001" height="32.001" viewBox="0 0 32.001 32.001"><path d="M111.185,97.626a1.808,1.808,0,0,0-.52,1.6l.683,3.98a1.808,1.808,0,0,1-2.623,1.905l-3.574-1.879a1.8,1.8,0,0,0-1.66-.011l-.023.011-3.574,1.879a1.808,1.808,0,0,1-2.623-1.905l.682-3.98a1.808,1.808,0,0,0-.52-1.6l-2.891-2.818a1.807,1.807,0,0,1,1-3.083l4-.581a1.809,1.809,0,0,0,1.361-.989l1.787-3.621a1.808,1.808,0,0,1,3.242,0l1.787,3.621a1.808,1.808,0,0,0,1.361.989l4,.581a1.808,1.808,0,0,1,1,3.083Zm0,0" transform="translate(-88.12 -80.181)" fill="#ffc5d2"/><path d="M251.848,0a.472.472,0,0,0-.472.472V2.745a.472.472,0,0,0,.945,0V.472A.472.472,0,0,0,251.848,0Zm0,0" transform="translate(-235.664)" fill="#ffb52d"/><path d="M127.643,32.054a.472.472,0,0,0-.818.472l1.136,1.968a.472.472,0,0,0,.818-.472Zm0,0" transform="translate(-118.839 -29.829)" fill="#f29500"/><path d="M37.427,122.878l-1.968-1.137a.472.472,0,0,0-.472.818l1.968,1.136a.472.472,0,1,0,.472-.818Zm0,0" transform="translate(-32.578 -114.073)" fill="#ffb52d"/><path d="M3.218,245.98a.472.472,0,0,0-.472-.472H.472a.472.472,0,1,0,0,.945H2.745A.472.472,0,0,0,3.218,245.98Zm0,0" transform="translate(0 -230.163)" fill="#f29500"/><path d="M34.021,352l-1.968,1.136a.472.472,0,0,0,.472.818l1.968-1.137a.472.472,0,0,0-.472-.818Zm0,0" transform="translate(-29.828 -329.942)" fill="#ffb52d"/><path d="M123.523,430.7a.472.472,0,0,0-.645.173l-1.136,1.968a.472.472,0,0,0,.818.472l1.136-1.968A.472.472,0,0,0,123.523,430.7Zm0,0" transform="translate(-114.073 -403.722)" fill="#f29500"/><path d="M245.98,460.52a.472.472,0,0,0-.472.472v2.273a.472.472,0,1,0,.945,0v-2.273A.473.473,0,0,0,245.98,460.52Zm0,0" transform="translate(-230.163 -431.737)" fill="#ffb52d"/><path d="M352.821,433.809a.472.472,0,0,0-.818.472l1.136,1.968a.472.472,0,1,0,.818-.472Zm0,0" transform="translate(-329.943 -406.474)" fill="#f29500"/><path d="M433.316,358.221l-1.968-1.136a.472.472,0,1,0-.472.818c2.038,1.151,1.98,1.2,2.2,1.2A.473.473,0,0,0,433.316,358.221Zm0,0" transform="translate(-403.724 -334.707)" fill="#ffb52d"/><path d="M463.264,251.375h-2.273a.472.472,0,1,0,0,.945h2.273a.472.472,0,0,0,0-.945Zm0,0" transform="translate(-431.736 -235.664)" fill="#f29500"/><path d="M434.051,128.842c.224,0,.167-.049,2.2-1.2a.472.472,0,0,0-.472-.818l-1.968,1.136A.473.473,0,0,0,434.051,128.842Zm0,0" transform="translate(-406.479 -118.838)" fill="#ffb52d"/><path d="M358.859,34.813a.472.472,0,0,0-.646.173l-1.136,1.968a.472.472,0,0,0,.818.472l1.137-1.968A.472.472,0,0,0,358.859,34.813Zm0,0" transform="translate(-334.699 -32.578)" fill="#f29500"/><path d="M196,97.625a1.807,1.807,0,0,0-.52,1.6l.683,3.98a1.808,1.808,0,0,1-2.623,1.905l-3.574-1.879a1.8,1.8,0,0,0-1.66-.011,12.2,12.2,0,0,1-3.362-12.27,1.807,1.807,0,0,0,.773-.8l1.787-3.621a1.808,1.808,0,0,1,3.242,0l1.787,3.621a1.808,1.808,0,0,0,1.361.989l4,.581a1.808,1.808,0,0,1,1,3.083Zm0,0" transform="translate(-172.939 -80.18)" fill="#ffd5d6"/></svg>