<?xml version="1.0" encoding="UTF-8"?><svg id="_レイヤー_2" xmlns="http://www.w3.org/2000/svg" viewBox="0 0 1450.00002 979.1202"><defs><style>.cls-1{fill:#272525;stroke-width:0px;}</style></defs><g id="Objects"><path class="cls-1" d="M174.5559,235.62H24.80761C11.12861,235.62,0,224.4408,0,210.6994v-87.7203C0,109.2377,11.12861,98.0585,24.80761,98.0585h149.74829c13.67911,0,24.8086,11.1792,24.8086,24.9206v87.7203c0,13.7414-11.12949,24.9206-24.8086,24.9206ZM24.80761,104.0394c-10.3809,0-18.8267,8.4964-18.8267,18.9397v87.7203c0,10.4433,8.4458,18.9397,18.8267,18.9397h149.74829c10.382,0,18.8277-8.4964,18.8277-18.9397v-87.7203c0-10.4433-8.4457-18.9397-18.8277-18.9397H24.80761Z"/><path class="cls-1" d="M41.0625,144.4107h-9.1301c-2.9068,0-5.2723-2.3606-5.2723-5.2615v-15.5851c0-2.9009,2.3655-5.2606,5.2723-5.2606h9.1301c2.9067,0,5.2722,2.3597,5.2722,5.2606v15.5851c0,2.9009-2.3655,5.2615-5.2722,5.2615ZM32.6411,138.4298h7.7127v-14.1453h-7.7127v14.1453Z"/><path class="cls-1" d="M167.4312,144.4107h-9.1291c-2.9078,0-5.2733-2.3606-5.2733-5.2615v-15.5851c0-2.9009,2.3655-5.2606,5.2733-5.2606h9.1291c2.9077,0,5.2732,2.3597,5.2732,5.2606v15.5851c0,2.9009-2.3655,5.2615-5.2732,5.2615ZM159.0098,138.4298h7.7137v-14.1453h-7.7137v14.1453Z"/><path class="cls-1" d="M143.6184,104.0394h-19.86639l-.477-20.1097c-.05551-2.3509-.367-4.0827-.9802-5.4543-.6766-1.5157-2.3685-2.2828-5.028-2.2828h-35.1701c-2.6595,0-4.3504.7681-5.0269,2.2818-.6133,1.3716-.9248,3.1044-.9813,5.4533l-.477,20.1117h-19.8663v-21.7636c-.0156-.4371-.3437-13.0911,6.9398-20.6169,3.4694-3.5853,8.0096-5.4027,13.495-5.4027h47.00349c5.48551,0,10.0267,1.8184,13.4961,5.4037,7.28341,7.5258,6.95441,20.1788,6.9368,20.7142l.002,21.6653ZM129.5928,98.0585h8.0447v-15.7827c.0048-.1996.2492-10.7889-5.2704-16.4719-2.3304-2.4006-5.3345-3.5668-9.1836-3.5668h-47.00349c-3.8568,0-6.8658,1.1711-9.1972,3.5814-4.5977,4.7505-5.355,13.4201-5.2586,16.359l.0019,15.881h8.0447l.3387-14.2768c.076-3.1657.553-5.6285,1.4992-7.7468,1.6782-3.7556,5.4027-5.8232,10.488-5.8232h35.1701c5.0864,0,8.8108,2.0686,10.4881,5.8242.94811,2.1183,1.4242,4.5811,1.49911,7.7487l.33879,14.2739Z"/><rect class="cls-1" x="2.99051" y="127.2156" width="193.38359" height="5.9809"/><path class="cls-1" d="M123.3227,76.1926h-47.2819v-19.9364h47.2819v19.9364ZM82.0218,70.2117h35.32v-7.9746h-35.32v7.9746Z"/><path class="cls-1" d="M140.6328,221.5983c-.2697,0-.5413-.036-.808-.111l-30.9161-8.6764c-1.0289-.2891-1.8252-1.1049-2.089-2.1397-.2648-1.0348.0428-2.1328.8079-2.8795l22.9717-22.4363c.7632-.7466,1.8671-1.0289,2.8971-.7398,1.0289.2891,1.8252,1.1049,2.089,2.1397l7.9454,31.1127c.2638,1.0348-.04379,2.1329-.809,2.8795-.5655.5529-1.319.8508-2.089.8508ZM115.5117,208.4517l20.942,5.8778-5.3813-21.0754-15.5607,15.1976Z"/><path class="cls-1" d="M162.8666,200.08c-8.2452,0-14.9523-6.7072-14.9523-14.9524s6.7071-14.9523,14.9523-14.9523,14.9523,6.7071,14.9523,14.9523-6.7071,14.9524-14.9523,14.9524ZM162.8666,176.1562c-4.9471,0-8.9714,4.0243-8.9714,8.9714s4.0243,8.9714,8.9714,8.9714,8.97141-4.0242,8.97141-8.9714-4.02431-8.9714-8.97141-8.9714Z"/><rect class="cls-1" x="150.89672" y="182.11053" width="23.91346" height="5.98165" transform="translate(-67.14639 96.31043) rotate(-27.54949)"/><path class="cls-1" d="M458.30169,221.1525h-89.1202c-7.5239,0-13.645-6.1455-13.645-13.6995v-42.8381c0-7.5541,6.1211-13.7005,13.645-13.7005h89.1202c7.5249,0,13.646,6.1464,13.646,13.7005v42.8381c0,7.554-6.1211,13.6995-13.646,13.6995ZM369.1815,156.8954c-4.2258,0-7.6641,3.4626-7.6641,7.7195v42.8381c0,4.2559,3.4383,7.7185,7.6641,7.7185h89.1202c4.2268,0,7.665-3.4626,7.665-7.7185v-42.8381c0-4.2569-3.4382-7.7195-7.665-7.7195h-89.1202Z"/><path class="cls-1" d="M462.71539,235.62h-97.9476c-13.7725,0-24.978-11.1549-24.978-24.866v-88.0018c0-40.7772,33.1745-73.9517,73.9518-73.9517s73.9528,33.1745,73.9528,73.9517v8.9276h-5.981v-8.9276c0-37.4791-30.4917-67.9708-67.9718-67.9708s-67.9708,30.4917-67.9708,67.9708v88.0018c0,10.4131,8.5216,18.8851,18.997,18.8851h97.9476c10.4754,0,18.998-8.472,18.998-18.8851v-68.0702h5.981v68.0702c0,13.7111-11.2055,24.866-24.979,24.866Z"/><path class="cls-1" d="M358.7285,140.3699c-1.652,0-2.99049-1.3385-2.99049-2.9905v-20.7999c0-30.5637,26.02059-55.4297,58.00359-55.4297s58.0036,24.866,58.0036,55.4297v3.7605c0,1.652-1.3385,2.9905-2.9905,2.9905-1.6519,0-2.9904-1.3385-2.9904-2.9905v-3.7605c0-27.2666-23.3378-49.4488-52.0227-49.4488s-52.0227,22.1822-52.0227,49.4488v20.7999c0,1.652-1.3385,2.9905-2.9904,2.9905Z"/><path class="cls-1" d="M448.30329,179.8067h-69.1234c-15.5131,0-21.3441-13.1028-22.2601-20.0309l5.9303-.7846c.0827.5968,2.2263,14.8346,16.3298,14.8346h69.1234c14.1045,0,16.2471-14.2378,16.33171-14.8443l5.92839.7934c-.916,6.929-6.7461,20.0318-22.2601,20.0318Z"/><path class="cls-1" d="M432.50601,53.0399h-5.98091c0-7.8753-5.7347-14.2826-12.7835-14.2826-7.0478,0-12.7825,6.4073-12.7825,14.2826h-5.9809c0-11.1734,8.4175-20.2636,18.7634-20.2636,10.3469,0,18.76441,9.0902,18.76441,20.2636Z"/><path class="cls-1" d="M445.99229,58.0941h-5.9809c0-19.182-10.8025-32.5798-26.2698-32.5798-16.6987,0-26.27559,11.8753-26.27559,32.5798h-5.981c0-18.6418,8.474-38.5607,32.25659-38.5607,18.9883,0,32.2507,15.8567,32.2507,38.5607Z"/><path class="cls-1" d="M482.32959,146.199c-2.2409,0-4.4818-.8528-6.1873-2.5592l-10.6642-10.6643c-3.411-3.412-3.411-8.9626-.001-12.3746,3.41291-3.413,8.9655-3.413,12.3765,0l10.6653,10.6642c3.41,3.412,3.41,8.9627,0,12.3747-1.7065,1.7064-3.9484,2.5592-6.1893,2.5592ZM471.66629,124.0197c-.7096,0-1.41929.2696-1.9595.8099-1.0786,1.0796-1.0786,2.8376.0009,3.9172l10.66331,10.6643c1.08249,1.0815,2.83959,1.0815,3.91819,0,1.0786-1.0796,1.0786-2.8377-.001-3.9172l-10.6633-10.6643c-.5402-.5403-1.24989-.8099-1.9586-.8099Z"/><path class="cls-1" d="M722.04019,218.493h-78.8239c-12.5148,0-22.6972-10.1357-22.6972-22.595v-98.7331c0-12.4594,10.1824-22.595,22.6972-22.595h78.8239c12.51482,0,22.6962,10.1356,22.6962,22.595v98.7331c0,12.4593-10.18138,22.595-22.6962,22.595ZM643.21629,80.5508c-9.2177,0-16.71628,7.4528-16.71628,16.6141v98.7331c0,9.1612,7.49858,16.614,16.71628,16.614h78.8239c9.21682,0,16.7153-7.4528,16.7153-16.614v-98.7331c0-9.1613-7.49848-16.6141-16.7153-16.6141h-78.8239Z"/><path class="cls-1" d="M650.10159,235.62c-7.19,0-13.0395-5.8495-13.0395-13.0405v-7.077h5.98092v7.077c0,3.8929,3.16668,7.0596,7.05858,7.0596,3.8928,0,7.0595-3.1667,7.0595-7.0596v-7.077h5.98092v7.077c0,7.191-5.84952,13.0405-13.04042,13.0405Z"/><path class="cls-1" d="M715.15401,235.62c-7.191,0-13.04052-5.8495-13.04052-13.0405v-7.077h5.981v7.077c0,3.8929,3.1666,7.0596,7.05952,7.0596s7.05948-3.1667,7.05948-7.0596v-7.077h5.981v7.077c0,7.191-5.8496,13.0405-13.04048,13.0405Z"/><rect class="cls-1" x="655.87609" y="18.998" width="5.981" height="57.8323"/><rect class="cls-1" x="664.88259" y="18.998" width="5.9809" height="57.8323"/><rect class="cls-1" x="694.39301" y="18.998" width="5.98088" height="57.8323"/><rect class="cls-1" x="703.39849" y="18.998" width="5.9809" height="57.8323"/><path class="cls-1" d="M707.07909,21.711h-48.9027c-4.069,0-7.3798-3.3107-7.3798-7.3807v-6.9505c0-4.0691,3.3108-7.3798,7.3798-7.3798h48.9027c4.0701,0,7.3808,3.3107,7.3808,7.3798v6.9505c0,4.07-3.3107,7.3807-7.3808,7.3807ZM658.17639,5.9809c-.771,0-1.3988.6279-1.3988,1.3989v6.9505c0,.7719.6278,1.3998,1.3988,1.3998h48.9027c.772,0,1.39992-.6279,1.39992-1.3998v-6.9505c0-.771-.62792-1.3989-1.39992-1.3989h-48.9027Z"/><path class="cls-1" d="M647.78379,191.8932c-1.652,0-2.9905-1.3385-2.9905-2.9905v-84.7426c0-1.6519,1.3385-2.9904,2.9905-2.9904,1.6519,0,2.9904,1.3385,2.9904,2.9904v84.7426c0,1.652-1.3385,2.9905-2.9904,2.9905Z"/><path class="cls-1" d="M682.62779,191.8932c-1.652,0-2.9905-1.3385-2.9905-2.9905v-84.7426c0-1.6519,1.3385-2.9904,2.9905-2.9904,1.6519,0,2.9904,1.3385,2.9904,2.9904v84.7426c0,1.652-1.3385,2.9905-2.9904,2.9905Z"/><path class="cls-1" d="M717.47179,191.8932c-1.652,0-2.9905-1.3385-2.9905-2.9905v-84.7426c0-1.6519,1.3385-2.9904,2.9905-2.9904s2.9905,1.3385,2.9905,2.9904v84.7426c0,1.652-1.3385,2.9905-2.9905,2.9905Z"/><path class="cls-1" d="M209.0224,483.1445h-12.6297v-5.9809h12.6297c4.8458,0,8.6725,0,11.8888-2.6673,2.5602-2.1251,3.7031-5.7269,3.49381-11.0137-.21611-5.4592-1.84181-11.4898-3.14821-16.3356-.33879-1.2558-.6542-2.4249-.917-3.4802-1.3541-5.4319-3.522-12.1828-8.3036-16.2013-1.1175-.9393-2.4668-1.794-4.2433-2.6877-2.0842-1.0474-4.475-1.3648-7.007-1.7006-2.86289-.3797-6.1085-.8099-9.2245-2.4122-4.8692-2.5038-8.4146-6.3266-10.8395-11.6864-1.1428-2.5271-2.1065-5.1175-3.0381-7.6222-.4566-1.2275-.9131-2.4561-1.3911-3.6758-.8742-2.2351-1.6559-4.5188-2.4122-6.7276-1.507-4.4-2.9302-8.5557-5.0338-12.4204-2.0803-3.8227-6.199-8.7368-10.9592-10.0061-2.8328-.7545-5.3862-1.138-7.5901-1.139h-62.9945c-12.0592,0-17.5164,2.6371-19.9715,4.8498-2.1387,1.9265-4.1401,4.4497-6.1201,7.7156-2.2701,3.7449-3.6067,7.667-5.0221,11.8188-.6532,1.9177-1.3298,3.9016-2.1144,5.9079-.4828,1.2334-.9462,2.4765-1.4095,3.7196-1.505,4.036-3.0616,8.2092-5.2908,12.1322-3.0732,5.4096-8.107,8.7008-14.963,9.7814-1.0397.1645-2.0579.2978-3.0577.4283-4.362.5714-7.8071,1.0221-11.0225,3.7254-6.7869,5.7025-9.4172,16.0894-10.4277,23.7982-.1927,1.466-.4701,3.0333-.7583,4.656-1.2684,7.1365-2.5806,14.5163,2.312,18.5756,3.2163,2.6673,7.043,2.6673,11.8888,2.6673h13.0726v5.9809h-13.0726c-5.3248,0-10.8307,0-15.7067-4.0457-7.5726-6.2817-5.8038-16.2305-4.3825-24.2245.2716-1.5293.5354-3.0061.7164-4.3874,1.1487-8.7602,4.2511-20.6597,12.51-27.5995,4.5538-3.8277,9.4036-4.4624,14.0947-5.0766.9481-.1237,1.9148-.2502,2.9009-.405,5.0386-.7953,8.5363-3.0284,10.6954-6.8278,1.9927-3.5084,3.3983-7.2776,4.8868-11.2688.475-1.2723.9501-2.5456,1.4436-3.8082.7369-1.8826,1.3911-3.8023,2.0238-5.6587,1.4553-4.2715,2.9613-8.6891,5.5682-12.9898,2.2867-3.7732,4.6522-6.7354,7.2309-9.0581,4.7028-4.2384,12.7698-6.3878,23.9753-6.3878h62.9955c2.7627.0009,5.7483.44,9.1291,1.3414,6.5874,1.7561,11.8986,7.8276,14.672,12.9256,2.346,4.3076,3.9182,8.9003,5.4397,13.3413.7359,2.1494,1.4962,4.3718,2.3236,6.4861.4897,1.2509.9579,2.5106,1.4271,3.7702.9375,2.5213,1.8233,4.9024,2.8815,7.2426,1.8719,4.1381,4.4535,6.9446,8.1254,8.8322,2.19421,1.1282,4.6629,1.4553,7.2757,1.8018,2.9116.3865,5.92151.7856,8.9081,2.2867,2.2029,1.1088,3.9191,2.2049,5.4037,3.4519,6.09871,5.1253,8.6861,13.0249,10.2593,19.3339.254,1.0211.5597,2.1542.8878,3.3691,1.3842,5.135,3.1072,11.5258,3.35061,17.6566.28329,7.1725-1.61891,12.5061-5.65191,15.8528-4.877,4.0457-10.3829,4.0457-15.7077,4.0457Z"/><rect class="cls-1" x="77.6647" y="477.1636" width="75.4811" height="5.9809"/><path class="cls-1" d="M159.6874,425.2655c-4.0622,0-8.12639-.0496-12.1916-.1002-4.04079-.0507-8.0826-.1013-12.1225-.1013h-40.3314c-4.0398,0-8.0817.0506-12.1235.1013-4.4594.0545-8.9149.1119-13.3704.0993-4.768-.0117-8.2676-1.4904-10.1211-4.2765-2.8123-4.2316-1.1759-9.2858.0195-12.9771l.367-1.1497c.4974-1.6101.9618-3.2338,1.4261-4.8576.7681-2.6857,1.5614-5.463,2.5076-8.1722,4.1577-11.9248,10.492-17.972,18.8248-17.972h65.2705c8.3328,0,14.6661,6.0472,18.8267,17.972.9442,2.7082,1.7386,5.4845,2.5057,8.1693.4643,1.6247.9286,3.2494,1.427,4.8605l.367,1.1497c1.1945,3.6913,2.8318,8.7455.0185,12.9771-1.8515,2.7861-5.352,4.2648-10.121,4.2765-.39229.0009-.7866.0009-1.1789.0009ZM82.5719,381.8405c-5.5916,0-9.902,4.5665-13.1777,13.9603-.8898,2.5486-1.6598,5.2421-2.4045,7.8471-.476,1.6646-.952,3.3292-1.4621,4.9793l-.3913,1.2265c-.8654,2.6722-1.9421,5.9975-.7282,7.8237.6639.9998,2.5914,1.6004,5.1545,1.6062,4.4244.0068,8.8516-.0428,13.2819-.0993,4.0661-.0506,8.1322-.1012,12.1974-.1012h40.3314c4.0642,0,8.1313.0506,12.1965.1012,4.43021.0565,8.874.1081,13.2819.0993,2.5631-.0058,4.4905-.6064,5.1554-1.6072,1.21291-1.8252.1363-5.1505-.72809-7.8227l-.39141-1.2265c-.5101-1.651-.987-3.3166-1.4631-4.9812-.7447-2.605-1.5147-5.2976-2.4034-7.8442-3.2767-9.3948-7.5872-13.9613-13.1787-13.9613h-65.2705Z"/><path class="cls-1" d="M174.7702,504.768c-13.5729,0-24.6149-11.042-24.6149-24.614s11.042-24.6139,24.6149-24.6139c13.572,0,24.6139,11.042,24.6139,24.6139s-11.0419,24.614-24.6139,24.614ZM174.7702,461.5211c-10.2749,0-18.634,8.3591-18.634,18.6329s8.3591,18.633,18.634,18.633c10.2739,0,18.633-8.3591,18.633-18.633s-8.3591-18.6329-18.633-18.6329Z"/><path class="cls-1" d="M57.3778,504.768c-13.572,0-24.6139-11.042-24.6139-24.614s11.0419-24.6139,24.6139-24.6139,24.6139,11.042,24.6139,24.6139-11.0419,24.614-24.6139,24.614ZM57.3778,461.5211c-10.2739,0-18.633,8.3591-18.633,18.6329s8.3591,18.633,18.633,18.633,18.633-8.3591,18.633-18.633-8.3591-18.6329-18.633-18.6329Z"/><rect class="cls-1" x="112.2167" y="380.8193" width="5.9809" height="41.263"/><path class="cls-1" d="M111.3951,441.7783h-14.3518c-1.6519,0-2.9904-1.3385-2.9904-2.9904,0-1.652,1.3385-2.9905,2.9904-2.9905h14.3518c1.6519,0,2.9904,1.3385,2.9904,2.9905,0,1.6519-1.3385,2.9904-2.9904,2.9904Z"/><path class="cls-1" d="M126.4496,352.4741h-18.3711c-1.652,0-2.9905-1.3385-2.9905-2.9905,0-1.6519,1.3385-2.9904,2.9905-2.9904h18.3711c1.652,0,2.9905,1.3385,2.9905,2.9904,0,1.652-1.3385,2.9905-2.9905,2.9905Z"/><path class="cls-1" d="M174.7702,493.7932c-7.5209,0-13.6401-6.1182-13.6401-13.6392s6.1192-13.6401,13.6401-13.6401,13.6391,6.1192,13.6391,13.6401-6.1182,13.6392-13.6391,13.6392ZM174.7702,472.4949c-4.2229,0-7.65919,3.4363-7.65919,7.6591s3.43629,7.6583,7.65919,7.6583,7.6582-3.4354,7.6582-7.6583-3.4353-7.6591-7.6582-7.6591Z"/><path class="cls-1" d="M57.3778,493.7932c-7.521,0-13.6392-6.1182-13.6392-13.6392s6.1182-13.6401,13.6392-13.6401,13.6391,6.1192,13.6391,13.6401-6.1182,13.6392-13.6391,13.6392ZM57.3778,472.4949c-4.2229,0-7.6582,3.4363-7.6582,7.6591s3.4353,7.6583,7.6582,7.6583,7.6582-3.4354,7.6582-7.6583-3.4353-7.6591-7.6582-7.6591Z"/><rect class="cls-1" x="4.88491" y="461.9679" width="35.6481" height="5.9809"/><rect class="cls-1" x="72.7546" y="461.9679" width="86.6388" height="5.9809"/><rect class="cls-1" x="190.14701" y="461.9679" width="37.27279" height="5.9809"/><path class="cls-1" d="M211.7733,464.9583h-5.9809v-16.0397c0-1.6519,1.3385-2.9904,2.9905-2.9904h16.0416v5.9809h-13.0512v13.0492Z"/><path class="cls-1" d="M147.5902,367.3875h-63.0334c-7.2348,0-13.1213-5.8855-13.1213-13.1203v-9.5681c0-7.2348,5.8865-13.1203,13.1213-13.1203h63.0334c7.23481,0,13.1213,5.8855,13.1213,13.1203v9.5681c0,7.2348-5.88649,13.1203-13.1213,13.1203ZM84.5568,337.5597c-3.9377,0-7.1403,3.2027-7.1403,7.1394v9.5681c0,3.9367,3.2026,7.1394,7.1403,7.1394h63.0334c3.9377,0,7.1404-3.2027,7.1404-7.1394v-9.5681c0-3.9367-3.2027-7.1394-7.1404-7.1394h-63.0334Z"/><path class="cls-1" d="M142.9283,337.5597h-48.5591c-5.9527,0-10.7946-4.4282-10.7946-9.8718v-6.4988c0-5.4426,4.8419-9.8709,10.7946-9.8709h48.5591c5.9518,0,10.79471,4.4283,10.79471,9.8709v6.4988c0,5.4436-4.84291,9.8718-10.79471,9.8718ZM94.3692,317.2991c-2.6546,0-4.8137,1.7454-4.8137,3.89v6.4988c0,2.1455,2.1591,3.8909,4.8137,3.8909h48.5591c2.65471,0,4.8138-1.7454,4.8138-3.8909v-6.4988c0-2.1446-2.15909-3.89-4.8138-3.89h-48.5591Z"/><rect class="cls-1" x="94.0529" y="314.3087" width="5.9809" height="50.0883"/><rect class="cls-1" x="133.1675" y="314.3087" width="5.9809" height="50.0883"/><path class="cls-1" d="M360.0679,480.8394c-2.458,0-4.5597-.0945-6.2243-.2999-5.4748-.6755-11.3068-2.016-17.8289-4.0963-8.7436-2.7899-16.7581-6.6672-23.8186-11.5257-7.0829-4.8732-12.0865-9.5906-15.296-14.4209-1.8447-2.7782-3.0937-5.6149-3.7118-8.4321-2.3597-10.746.8566-22.6787,8.3941-31.14,14.9524-16.7863,29.4044-27.6696,42.9549-32.348,5.2129-1.799,13.0025-4.1499,20.4913-3.7819,10.8152.5286,20.8525,4.8712,30.5599,9.0716l2.84251,1.2256c7.66789,3.2835,15.368,6.7889,22.81589,10.1785,8.9315,4.0652,18.1677,8.2696,27.363,12.0972,6.5553,2.7286,13.532,5.3725,21.9593,8.3182,14.4812,5.0639,23.9987,3.9922,29.9446-3.3691l.5714-.7068c2.3207-2.8707,4.7193-5.8388,6.748-8.9032,1.4641-2.2127,2.6245-4.6094,3.8539-7.1472.7321-1.5137,1.4661-3.0274,2.2653-4.5061,5.8573-10.8395,12.2782-11.6358,16.62961-10.3956,8.22378,2.3451,7.96478,11.3866,7.80908,16.7883-.0224.7739-.0438,1.5157-.0438,2.2059v35.8233c0,11.6338-6.7111,19.6298-18.8958,22.5141-3.4101.807-6.9038,1.3989-10.2817,1.9713-2.02579.3427-4.0496.6853-6.054,1.0737-7.995,1.5488-17.3052,3.119-26.3097,4.6376-3.1627.5334-6.234,1.0523-9.1115,1.5468l-1.0124-5.8953c2.8824-.4954,5.9604-1.0143,9.13-1.5487,8.9685-1.5128,18.2417-3.0771,26.1666-4.6123,2.04921-.3972,4.1197-.7476,6.19221-1.099,3.28449-.5559,6.68089-1.1312,9.903-1.8934,9.48348-2.2458,14.29228-7.8626,14.29228-16.6948v-35.8233c0-.7438.0224-1.544.0468-2.3782.1908-6.6361-.2804-9.9546-3.4704-10.8648-4.08268-1.1584-7.5385,3.4315-9.7278,7.4869-.7573,1.4018-1.4505,2.8357-2.1455,4.2696-1.2597,2.604-2.5631,5.2956-4.2482,7.8412-2.1864,3.3029-4.6765,6.3839-7.0848,9.3627l-.5695.7048c-11.3651,14.0724-30.33489,7.4363-36.57189,5.2577-8.53921-2.9856-15.62011-5.6685-22.28351-8.4428-9.2858-3.8647-18.5668-8.0895-27.543-12.1751-7.4168-3.376-15.0867-6.8678-22.6914-10.124l-2.8639-1.2343c-9.2167-3.9883-18.7469-8.1119-28.4766-8.5879-6.454-.2988-13.5038,1.8252-18.2475,3.4626-12.5713,4.3397-26.1773,14.6593-40.4404,30.6718-6.28569,7.0556-8.9744,16.9722-7.01769,25.8804.45849,2.091,1.41829,4.2462,2.85129,6.4053,2.7792,4.182,7.261,8.3698,13.7033,12.802,6.5777,4.5256,14.0626,8.144,22.2475,10.7548,6.16391,1.9673,11.6416,3.229,16.7435,3.8588,8.5295,1.0533,32.789-1.1107,68.31841-6.0919l.83129,5.9225c-21.8259,3.0615-49.0234,6.4054-63.6584,6.4054Z"/><path class="cls-1" d="M470.50009,498.863c-1.396,0-2.8182-.1616-4.2326-.4907-7.8734-1.834-12.12349-3.7011-19.2531-7.4606-7.4509-3.9279-16.6608-10.636-22.7556-15.0749-1.3531-.9862-2.9632-2.13-4.7009-3.3653-5.611-3.9902-12.5955-8.9558-16.7084-12.6735-4.5811-4.142-8.2082-7.6796-11.7146-11.1003-3.19589-3.117-6.4998-6.3402-10.5786-10.0744-.9092-.8332-1.2139-2.1396-.7671-3.2893.44681-1.1496,1.5536-1.907,2.787-1.907h58.7629c.844,0,1.649.3573,2.2156.9822l23.6551,25.9077c1.0503,1.1506,2.1387,2.2672,3.226,3.3837,1.24221,1.2753,2.4843,2.5515,3.6758,3.8734,2.7783,3.082,5.9439,7.4976,8.4681,11.81,3.5386,6.0433,2.7199,12.2364-2.13769,16.1624-2.68091,2.1669-6.21651,3.3166-9.94191,3.3166ZM390.1419,439.4079c1.8155,1.7377,3.5064,3.3867,5.16911,5.0085,3.62619,3.5375,7.05179,6.8785,11.54909,10.9446,3.853,3.483,10.67891,8.3357,16.1643,12.2354,1.7581,1.2499,3.3867,2.4084,4.7564,3.4062,5.9546,4.3377,14.95421,10.893,22.0235,14.6184,6.9573,3.669,10.6954,5.2664,17.8202,6.9262,3.408.7933,6.7957.1762,9.058-1.652,3.2017-2.5884,2.1669-6.0452.7359-8.4895-2.2963-3.9231-5.26539-8.072-7.7497-10.8269-1.1399-1.2655-2.3295-2.4852-3.5171-3.7049-1.1331-1.1633-2.2652-2.3266-3.3594-3.5249l-22.7721-24.9411h-49.8782Z"/><path class="cls-1" d="M477.40769,421.8282l-5.5448-2.2409c5.2908-13.091,11.8752-29.3838,17.0414-45.3126l.4663-1.428c.9705-2.9642,1.9742-6.0277,2.5621-9.0094.2716-1.3745-.1314-1.872-.2823-2.0589-.7301-.9014-2.9106-1.9965-9.1563-2.0919-6.5212-.1052-15.44109-.2327-20.50209,4.4409-2.49881,2.3081-4.67261,5.0192-6.86481,7.8256-2.0355,2.606-4.1197,5.1749-6.2048,7.7439-1.0309,1.2704-2.0618,2.5407-3.0869,3.816l-16.3862,20.3871-4.661-3.7478,16.3863-20.3872c1.0299-1.282,2.0666-2.5592,3.10441-3.8373,2.06079-2.5398,4.12259-5.0795,6.13469-7.6563,2.349-3.008,4.6921-5.9245,7.52-8.5372,6.8161-6.2983,17.1192-6.1416,24.6509-6.0287,4.8225.074,10.7382.6308,13.7151,4.3105,1.0552,1.3044,2.1727,3.5746,1.501,6.9787-.658,3.339-1.7201,6.5797-2.7461,9.7132l-.4614,1.4125c-5.2304,16.1293-11.8587,32.5301-17.1855,45.7078Z"/><path class="cls-1" d="M366.2201,425.7386h-68.7544v-5.9809h68.7544c2.605,0,4.7242-2.1192,4.7242-4.7242v-8.2666c0-2.605-2.1192-4.7242-4.7242-4.7242h-48.9718v-5.981h48.9718c5.9031,0,10.7052,4.8021,10.7052,10.7052v8.2666c0,5.9031-4.8021,10.7051-10.7052,10.7051Z"/><rect class="cls-1" x="324.04501" y="399.0522" width="5.98089" height="21.6556"/><rect class="cls-1" x="345.4913" y="399.0522" width="5.9809" height="21.6556"/><path class="cls-1" d="M1050.97911,433.366c-.9053,0-1.8204-.0107-2.7198-.0214-.8761-.0107-1.7445-.0204-2.5855-.0204h-174.86752c-.8401,0-1.7094.0097-2.5845.0204-1.8077.0234-3.6787.0419-5.4046-.0224-7.6183-.2891-12.4263-3.4343-15.589-10.1999-.8314-1.7775-1.6909-3.5434-2.5505-5.3083-2.6634-5.4688-5.4163-11.1237-7.3136-17.1513l-.4653-1.4544c-2.0861-6.4823-4.9432-15.3612.6444-21.9895,3.9172-4.6453,10.3839-4.6258,15.589-4.6054l.9394.0019,209.27632-.0019c5.1846-.0224,11.6718-.0399,15.587,4.6054h0c5.5896,6.6283,2.7335,15.5063.6464,21.9885l-.4653,1.4563c-1.9002,6.0316-4.6551,11.6913-7.3204,17.1641-.8567,1.761-1.7153,3.522-2.5447,5.2956-3.1637,6.7646-7.9706,9.9098-15.5889,10.1989-.8664.0322-1.7678.0438-2.6829.0438ZM852.15578,378.5924c-3.9065,0-8.0836.1616-10.0393,2.4813-3.4528,4.0954-1.3657,10.5806.4761,16.3026l.476,1.4903c1.7639,5.6052,4.3007,10.8142,6.9865,16.3288.8732,1.7932,1.7464,3.5872,2.5913,5.394,2.2069,4.7213,5.025,6.5523,10.39662,6.7558,1.60518.0623,3.36818.0399,5.10968.0185.8985-.0097,1.7902-.0205,2.6536-.0205h174.86752c.8644,0,1.7561.0108,2.6556.0205,1.7366.0214,3.5005.0438,5.1067-.0185,5.3716-.2035,8.1888-2.0345,10.3985-6.7558.843-1.8029,1.7133-3.5911,2.5836-5.3803,2.6887-5.5195,5.2275-10.7334,6.9933-16.3425l.477-1.4923c1.8418-5.721,3.9289-12.2052.4751-16.3006h-.002c-2.1143-2.5115-6.8531-2.4959-10.9942-2.4794l-.9599.002-209.29572-.002c-.3154-.0009-.6347-.0019-.956-.0019Z"/><path class="cls-1" d="M884.12228,377.3814l-4.8634-3.4811c3.7478-5.2353,10.6467-15.8713,16.1896-24.4173,3.52-5.428,6.3012-9.7151,7.5151-11.4527,7.1423-10.2194,15.1568-20.1964,27.59272-20.1964h79.1053c9.7969,0,17.2711,7.1374,22.2143,21.2146,1.8068,5.1477,10.1104,30.6007,11.6991,35.7036l-5.7123,1.7775c-1.5789-5.0785-9.8339-30.3875-11.6289-35.4991-4.0671-11.5842-9.4893-17.2157-16.5722-17.2157h-79.1053c-8.66473,0-14.8813,6.4687-22.69042,17.642-1.1545,1.652-4.0486,6.1143-7.4002,11.2815-5.576,8.5966-12.5158,19.2969-16.3434,24.6431Z"/><path class="cls-1" d="M949.82111,323.8148h-9.7755c-2.9963,0-5.4348-2.4326-5.4348-5.4221v-16.689c0-2.9895,2.4385-5.4212,5.4348-5.4212h9.7755c2.9963,0,5.4348,2.4317,5.4348,5.4212v16.689c0,2.9895-2.4385,5.4221-5.4348,5.4221ZM940.59171,317.8339h8.6833v-15.5705h-8.6833v15.5705Z"/><path class="cls-1" d="M985.41271,323.8148h-9.7774c-2.9963,0-5.4339-2.4326-5.4339-5.4221v-16.689c0-2.9895,2.4376-5.4212,5.4339-5.4212h9.7774c2.9963,0,5.4339,2.4317,5.4339,5.4212v16.689c0,2.9895-2.4376,5.4221-5.4339,5.4221ZM976.18241,317.8339h8.6832v-15.5705h-8.6832v15.5705Z"/><path class="cls-1" d="M1005.46791,323.8139h-6.38c-2.5719,0-4.587-2.3811-4.587-5.4212v-32.5856c0-3.0401,2.0151-5.4222,4.587-5.4222h6.38c2.5719,0,4.585,2.3821,4.585,5.4222v32.5856c0,3.0401-2.0131,5.4212-4.585,5.4212ZM1000.48191,317.8329h3.5726l.0175-31.4671h-3.5707l-.0194,31.4671Z"/><path class="cls-1" d="M1003.62031,360.9552h-111.91672v-5.9809h111.91672c1.9041,0,3.4538-1.5497,3.4538-3.4538v-6.9057c0-1.9041-1.5497-3.4539-3.4538-3.4539h-97.80742v-5.9809h97.80742c5.2022,0,9.4348,4.2326,9.4348,9.4348v6.9057c0,5.2021-4.2326,9.4347-9.4348,9.4347Z"/><rect class="cls-1" x="917.63068" y="340.8514" width="5.981" height="17.1134"/><rect class="cls-1" x="939.22981" y="340.8514" width="5.981" height="17.1134"/><rect class="cls-1" x="960.82701" y="340.8514" width="5.981" height="17.1134"/><rect class="cls-1" x="983.06671" y="340.8514" width="5.9809" height="17.1134"/><path class="cls-1" d="M1036.76471,397.3753c-4.3027,0-7.8033-3.5006-7.8033-7.8023s3.5006-7.8023,7.8033-7.8023c4.3007,0,7.8013,3.5006,7.8013,7.8023s-3.5006,7.8023-7.8013,7.8023ZM1036.76471,386.7548c-1.5537,0-2.8192,1.2646-2.8192,2.8182,0,1.5537,1.2655,2.8182,2.8192,2.8182,1.5536,0,2.8171-1.2645,2.8171-2.8182,0-1.5536-1.2635-2.8182-2.8171-2.8182Z"/><rect class="cls-1" x="1034.27261" y="395.3271" width="4.9841" height="26.3866"/><path class="cls-1" d="M1045.30771,403.8702h-17.0861c-1.3765,0-2.4921-1.1156-2.4921-2.492,0-1.3765,1.1156-2.4921,2.4921-2.4921h17.0861c1.3765,0,2.4921,1.1156,2.4921,2.4921,0,1.3764-1.1156,2.492-2.4921,2.492Z"/><path class="cls-1" d="M1036.76471,423.0162c-1.7484,0-3.4967-.6658-4.8284-1.9956l-12.8419-12.8428c-.9734-.9735-.9734-2.5505,0-3.524.9735-.9734,2.5505-.9734,3.5239,0l12.8419,12.8419c.7204.7184,1.8885.7194,2.6089-.0009l12.8419-12.841c.9734-.9734,2.5504-.9734,3.5239,0,.9735.9735.9735,2.5505,0,3.524l-12.8419,12.8419c-1.3317,1.3307-3.08,1.9965-4.8283,1.9965Z"/><path class="cls-1" d="M1012.15561,416.4619h-162.96202c-1.652,0-2.9905-1.3385-2.9905-2.9905,0-1.6519,1.3385-2.9904,2.9905-2.9904h162.96202c1.651,0,2.9905,1.3385,2.9905,2.9904,0,1.652-1.3395,2.9905-2.9905,2.9905Z"/><path class="cls-1" d="M682.62779,452.5587c-36.3743,0-65.9675-29.5932-65.9675-65.9675s29.5932-65.9675,65.9675-65.9675,65.9674,29.5932,65.9674,65.9675-29.5931,65.9675-65.9674,65.9675ZM682.62779,326.6047c-33.0762,0-59.9866,26.9103-59.9866,59.9865s26.9104,59.9865,59.9866,59.9865,59.9865-26.9103,59.9865-59.9865-26.91028-59.9865-59.9865-59.9865Z"/><path class="cls-1" d="M707.85789,534.9718h-50.4602c-5.7026,0-10.3421-4.6571-10.3421-10.381v-29.5591c0-5.724,4.6395-10.38,10.3421-10.38h50.4602c5.7045,0,10.344,4.656,10.344,10.38v29.5591c0,5.7239-4.6395,10.381-10.344,10.381ZM657.39769,490.6326c-2.4045,0-4.3611,1.9732-4.3611,4.3991v29.5591c0,2.4258,1.9566,4.4,4.3611,4.4h50.4602c2.4064,0,4.36312-1.9742,4.36312-4.4v-29.5591c0-2.4259-1.95672-4.3991-4.36312-4.3991h-50.4602Z"/><rect class="cls-1" x="642.88115" y="415.62647" width="5.98147" height="75.76946" transform="translate(-132.82543 325.24042) rotate(-25.7213)"/><rect class="cls-1" x="666.77391" y="419.04228" width="5.97922" height="66.75534" transform="translate(-57.43727 99.6509) rotate(-8.16044)"/><rect class="cls-1" x="680.8442" y="450.52049" width="75.76862" height="5.98142" transform="translate(-1.71872 904.28706) rotate(-64.28531)"/><rect class="cls-1" x="661.45908" y="449.43036" width="66.75562" height="5.97918" transform="translate(148.34958 1075.98529) rotate(-81.83778)"/><rect class="cls-1" x="629.43019" y="416.3898" width="105.7391" height="5.9809"/><path class="cls-1" d="M641.60029,517.4485c-5.5818,0-10.1239-4.5422-10.1239-10.1249,0-5.5838,4.5421-10.126,10.1239-10.126,5.5838,0,10.126,4.5422,10.126,10.126,0,5.5827-4.5422,10.1249-10.126,10.1249ZM641.60029,502.1817c-2.8347,0-5.1398,2.3062-5.1398,5.1419,0,2.8347,2.3051,5.1408,5.1398,5.1408s5.1419-2.3061,5.1419-5.1408c0-2.8357-2.3071-5.1419-5.1419-5.1419Z"/><path class="cls-1" d="M668.95259,517.4485c-5.5837,0-10.1259-4.5422-10.1259-10.1249,0-5.5838,4.5422-10.126,10.1259-10.126s10.1259,4.5422,10.1259,10.126c0,5.5827-4.5421,10.1249-10.1259,10.1249ZM668.95259,502.1817c-2.8347,0-5.1418,2.3062-5.1418,5.1419,0,2.8347,2.3071,5.1408,5.1418,5.1408s5.1418-2.3061,5.1418-5.1408c0-2.8357-2.3071-5.1419-5.1418-5.1419Z"/><path class="cls-1" d="M696.30289,517.4485c-5.5818,0-10.12388-4.5422-10.12388-10.1249,0-5.5838,4.54208-10.126,10.12388-10.126,5.5838,0,10.126,4.5422,10.126,10.126,0,5.5827-4.5422,10.1249-10.126,10.1249ZM696.30289,502.1817c-2.8347,0-5.1398,2.3062-5.1398,5.1419,0,2.8347,2.3051,5.1408,5.1398,5.1408s5.1419-2.3061,5.1419-5.1408c0-2.8357-2.3071-5.1419-5.1419-5.1419Z"/><path class="cls-1" d="M723.65519,517.4485c-5.5838,0-10.1259-4.5422-10.1259-10.1249,0-5.5838,4.5421-10.126,10.1259-10.126s10.1259,4.5422,10.1259,10.126c0,5.5827-4.54208,10.1249-10.1259,10.1249ZM723.65519,502.1817c-2.8347,0-5.1418,2.3062-5.1418,5.1419,0,2.8347,2.3071,5.1408,5.1418,5.1408s5.14182-2.3061,5.14182-5.1408c0-2.8357-2.30712-5.1419-5.14182-5.1419Z"/><path class="cls-1" d="M715.21139,502.1817h-72.7992c-1.3765,0-2.492-1.1155-2.492-2.492s1.1155-2.4921,2.492-2.4921h72.7992c1.3765,0,2.4921,1.1156,2.4921,2.4921s-1.1156,2.492-2.4921,2.492Z"/><path class="cls-1" d="M243.3131,683.0834c-.9336,0-1.8564-.0292-2.7374-.0584-.8751-.0273-1.6704-.0487-2.3042-.0351-3.28249.113-6.5786.0351-9.7667-.0331-2.0005-.0428-4.0009-.0876-6.0033-.0876H46.31601c-8.9918-.0019-14.4384-4.1566-20.6247-9.5866l-1.4845-1.2986c-8.6054-7.5287-17.7102-15.5851-19.9822-18.2582-.2142-.2531-.441-.5062-.6727-.7671-1.3239-1.4835-2.971-3.3292-3.4431-5.8232-.7116-3.7634,2.2321-7.0265,4.0506-8.6366,2.161-1.9138,4.2754-3.8841,6.3888-5.8544,1.0591-.987,2.1182-1.9741,3.1832-2.9534,1.3161-1.211,2.6235-2.4337,3.9308-3.6544,2.6021-2.4317,5.2937-4.9471,8.0301-7.3477,6.1844-5.4299,11.6299-9.5827,20.6227-9.5847h176.18649c2.0073,0,4.0136-.0447,6.0189-.0876,3.1803-.0681,6.4715-.1401,9.7502-.035.6327.0195,1.429-.0078,2.3051-.0351,4.3815-.144,9.8436-.3134,12.1147,3.2748,1.2421,1.9625,1.1321,4.4-.3271,7.2445-1.01529,1.9819-6.7285,7.1179-22.3087,20.5886-2.50859,2.1689-4.8703,4.2112-6.83759,5.9323,1.96929,1.723,4.33279,3.7673,6.84529,5.9381,15.5744,13.4668,21.28471,18.5989,22.301,20.5809,1.4592,2.8444,1.5692,5.282.3271,7.2445-1.8145,2.8678-5.6655,3.3331-9.3773,3.3331ZM238.7125,677.0032c.6094,0,1.3064.0214,2.053.0447,1.5712.0507,5.6179.1792,6.7802-.4711-.0331-.2142-.1451-.6425-.5033-1.3414-1.2402-1.7951-13.5418-12.4311-20.89239-18.7859-3.741-3.2338-7.15591-6.1873-9.44551-8.2315-.6356-.5685-.9987-1.3785-.9987-2.2312,0-.8528.3631-1.6627.9987-2.2312,2.2886-2.0423,5.7006-4.9938,9.4387-8.2257,7.3525-6.3567,19.658-16.9966,20.9703-18.9182.30851-.6114.4049-1.0085.4341-1.2149-1.1584-.6522-5.208-.5218-6.7821-.4731-1.0231.0311-1.9537.0623-2.6887.035-3.1189-.1012-6.3265-.0292-9.426.037-2.0491.0448-4.0982.0896-6.1493.0896H46.31701c-6.9544.0019-10.9407,3.0605-16.6793,8.0972-2.6663,2.3402-5.3229,4.8225-7.8918,7.2231-1.3191,1.2324-2.6381,2.4648-3.9649,3.6855-1.0553.9715-2.1046,1.9508-3.155,2.9282-2.1504,2.0053-4.3027,4.0106-6.5027,5.9576-1.6228,1.4368-2.201,2.714-2.1377,3.0469.1635.8625,1.1545,1.9742,2.0296,2.9535.2658.2978.5257.5899.7691.8761,2.2895,2.6965,14.6914,13.5447,19.3601,17.6293l1.4923,1.3045c5.7405,5.0405,9.7278,8.0991,16.6803,8.1011h176.18449c2.0462,0,4.09051.0448,6.1338.0895,3.1053.0682,6.31671.1383,9.4406.0351.1995-.0078.4117-.0097.6366-.0097Z"/><path class="cls-1" d="M37.7642,633.9198h5.2226v20.9605h9.5467v5.2567h-14.7693v-26.2172Z"/><path class="cls-1" d="M54.9506,633.9198h15.807v5.2567h-10.5844v5.2235h10.5844v5.2567h-10.5844v5.2236h10.5844v5.2567h-15.807v-26.2172Z"/><path class="cls-1" d="M85.7995,639.1765v20.9605h-5.2576v-20.9605h-7.3672v-5.2567h19.992v5.2567h-7.3672Z"/><path class="cls-1" d="M99.7677,636.0283c0,.5549-.3105,1.1078-.622,1.6607l-1.4534,2.5252h-1.4865l.7262-2.2137c-.7963-.3115-1.3492-1.0727-1.3492-1.9722,0-1.1409.9335-2.1085,2.1095-2.1085,1.1418,0,2.0754.9676,2.0754,2.1085Z"/><path class="cls-1" d="M102.1877,641.8048c0-4.3572,3.5278-7.885,7.8519-7.885,3.0431,0,5.8447,1.0377,8.0583,2.7666l-3.7702,3.7692c-1.21-.7944-2.6974-1.2791-4.2881-1.2791-1.4533,0-2.6293,1.1759-2.6293,2.6283,0,.623.2424,1.211.623,1.6958.8304.9325,2.1786,1.1058,3.4928,1.1759,4.2891.2064,7.5755,3.1813,7.5755,7.6086,0,4.3241-3.5278,7.8519-7.852,7.8519-3.5278,0-6.71-1.3843-9.0619-3.631l3.7011-3.7011c1.4183,1.3142,3.2854,2.1085,5.3608,2.1085,1.4184,0,2.5943-1.1759,2.5943-2.6283,0-.7944-.3115-1.5907-1.0377-2.0054-1.245-.7262-3.3205-.5198-4.6346-.8313-3.4247-.8644-5.9839-3.9425-5.9839-7.6436Z"/><path class="cls-1" d="M154.0283,637.5508l-3.7011,3.7361c-1.38319-1.3141-3.2854-2.1104-5.3267-2.1104-4.3582,0-7.886,3.5278-7.886,7.8519,0,4.3572,3.5278,7.885,7.886,7.885,2.5602,0,4.8429-1.2441,6.2953-3.1462h-6.2953v-5.2586h13.07451c0,.1732.035.3465.035.5198,0,7.2289-5.88061,13.1086-13.10951,13.1086s-13.1086-5.8797-13.1086-13.1086,5.8797-13.1086,13.1086-13.1086c3.4937,0,6.676,1.3823,9.0278,3.631Z"/><path class="cls-1" d="M186.0513,647.0284c0,7.2289-5.8807,13.1086-13.1096,13.1086s-13.1086-5.8797-13.1086-13.1086,5.8797-13.1086,13.1086-13.1086,13.1096,5.8797,13.1096,13.1086ZM165.0557,647.0284c0,4.3572,3.5278,7.885,7.886,7.885,4.3241,0,7.8519-3.5278,7.8519-7.885,0-4.3241-3.5278-7.8519-7.8519-7.8519-4.3582,0-7.886,3.5278-7.886,7.8519Z"/><path class="cls-1" d="M194.6897,633.9198h5.2227v18.8851h-5.2227v-18.8851ZM199.9124,657.5087c0,1.4524-1.1409,2.6283-2.5943,2.6283-1.4524,0-2.6284-1.1759-2.6284-2.6283s1.176-2.5953,2.6284-2.5953c1.4534,0,2.5943,1.1429,2.5943,2.5953Z"/><path class="cls-1" d="M202.3314,633.9198h5.22261v18.8851h-5.22261v-18.8851ZM207.55401,657.5087c0,1.4524-1.14091,2.6283-2.59431,2.6283-1.4524,0-2.6283-1.1759-2.6283-2.6283s1.1759-2.5953,2.6283-2.5953c1.4534,0,2.59431,1.1429,2.59431,2.5953Z"/><path class="cls-1" d="M531.93919,700.8919l-1.4913-5.7921,89.0082-22.9133-89.0735-22.9269,1.49142-5.7941,100.32378,25.824c1.3209.3407,2.2448,1.5322,2.2448,2.897s-.9239,2.5563-2.2448,2.897l-100.2586,25.8084Z"/><path class="cls-1" d="M478.89539,700.9444l-100.4572-25.8609c-1.3209-.3407-2.2448-1.5322-2.2448-2.897s.9239-2.5563,2.2448-2.897l100.4173-25.8493,1.4913,5.794-89.1669,22.9523,89.2068,22.9639-1.4913,5.794Z"/><rect class="cls-1" x="502.40911" y="635.71311" width="5.98032" height="72.93308" transform="translate(-327.27363 554.24003) rotate(-44.99944)"/><rect class="cls-1" x="469.04851" y="669.18951" width="72.70246" height="5.98028" transform="translate(-327.27463 554.24844) rotate(-45)"/><path class="cls-1" d="M482.38329,647.1277l-5.7921-1.4914,25.8259-100.3228c.3397-1.3219,1.5312-2.2448,2.896-2.2448s2.5563.9229,2.8961,2.2448l25.8093,100.2586-5.7921,1.4913-22.9133-89.0092-22.9298,89.0735Z"/><path class="cls-1" d="M505.31309,801.3178c-1.3648,0-2.5563-.9228-2.896-2.2448l-25.8493-100.4162,5.7921-1.4913,22.9532,89.1669,22.96391-89.2078,5.79208,1.4913-25.8599,100.4571c-.3398,1.322-1.5313,2.2448-2.8961,2.2448Z"/><path class="cls-1" d="M505.31801,752.4813c-1.652,0-2.99051-1.3395-2.99051-2.9904v-158.4617c0-1.651,1.33851-2.9905,2.99051-2.9905s2.99049,1.3395,2.99049,2.9905v158.4617c0,1.6509-1.33849,2.9904-2.99049,2.9904Z"/><path class="cls-1" d="M584.54889,673.2514h-158.4608c-1.6519,0-2.9904-1.3394-2.9904-2.9904s1.3385-2.9905,2.9904-2.9905h158.4608c1.6519,0,2.9904,1.3395,2.9904,2.9905s-1.3385,2.9904-2.9904,2.9904Z"/><path class="cls-1" d="M520.46801,742.4703c-1.36872,0-2.60311-.9443-2.91561-2.3363-.3611-1.6121.6532-3.2105,2.2643-3.5726,24.7687-5.5488,44.3752-25.1367,49.9492-49.8996.36312-1.612,1.9586-2.6127,3.5745-2.2623,1.6111.3641,2.6235,1.9644,2.2604,3.5745-6.0792,27.0097-27.4623,48.3713-54.47578,54.4242-.22.0487-.44.0721-.657.0721Z"/><path class="cls-1" d="M572.73401,660.0825c-1.37162,0-2.60792-.9482-2.91652-2.3441-5.5147-24.905-25.1639-44.5864-50.0602-50.141-1.612-.3601-2.62728-1.9566-2.2672-3.5687.3602-1.612,1.9655-2.6244,3.5697-2.2681,27.1527,6.0568,48.5834,27.5216,54.5965,54.685.3573,1.6121-.66,3.2086-2.273,3.5668-.2171.0467-.4352.0701-.64928.0701Z"/><path class="cls-1" d="M437.87959,660.0689c-.2141,0-.4322-.0234-.6493-.0701-1.613-.3583-2.6302-1.9547-2.273-3.5668,6.017-27.1615,27.4525-48.6224,54.6082-54.6753,1.613-.3544,3.20951.6541,3.5687,2.2681.3602,1.6121-.6561,3.2105-2.26819,3.5687-24.89911,5.5507-44.55231,25.2282-50.06991,50.1313-.3086,1.3959-1.5449,2.3441-2.9165,2.3441Z"/><path class="cls-1" d="M490.16801,742.4761c-.21611,0-.43611-.0234-.65611-.072-27.0271-6.0452-48.4208-27.4107-54.503-54.432-.3631-1.6101.6493-3.2105,2.2604-3.5745,1.6179-.3563,3.2124.6502,3.5745,2.2623,5.577,24.7745,25.19221,44.3644,49.9745,49.9073,1.6111.3602,2.6254,1.9586,2.2653,3.5707-.3115,1.392-1.5469,2.3382-2.91559,2.3382Z"/><path class="cls-1" d="M479.60109,649.3277c-.76509,0-1.5302-.292-2.1143-.8761l-39.83879-39.8379c-1.16821-1.1681-1.16821-3.0605,0-4.2287,1.16809-1.1681,3.06049-1.1681,4.22869,0l39.8388,39.8379c1.1681,1.1681,1.1681,3.0605,0,4.2287-.5841.5841-1.3492.8761-2.1144.8761Z"/><path class="cls-1" d="M570.53009,740.2566c-.7652,0-1.5303-.292-2.1144-.8761l-39.8388-39.8379c-1.1682-1.1681-1.1682-3.0605,0-4.2287,1.16812-1.1681,3.0605-1.1681,4.2287,0l39.8388,39.8379c1.1682,1.1681,1.1682,3.0606,0,4.2287-.5841.5841-1.3492.8761-2.1143.8761Z"/><path class="cls-1" d="M530.69119,649.3277c-.7651,0-1.5303-.292-2.1143-.8761-1.1682-1.1682-1.1682-3.0606,0-4.2287l39.8388-39.8379c1.1682-1.1681,3.0606-1.1681,4.2287,0,1.1682,1.1682,1.1682,3.0606,0,4.2287l-39.8388,39.8379c-.5841.5841-1.3492.8761-2.1144.8761Z"/><path class="cls-1" d="M439.76229,740.2566c-.7651,0-1.53029-.292-2.11429-.8761-1.16821-1.1681-1.16821-3.0606,0-4.2287l39.83879-39.8379c1.1681-1.1681,3.0605-1.1681,4.2287,0,1.1681,1.1682,1.1681,3.0606,0,4.2287l-39.8388,39.8379c-.5841.5841-1.3493.8761-2.1144.8761Z"/><path class="cls-1" d="M915.92808,159.22c-20.1467,0-36.5359-16.3902-36.5359-36.5359s16.3892-36.5369,36.5359-36.5369,36.53783,16.3902,36.53783,36.5369-16.3911,36.5359-36.53783,36.5359ZM915.92808,92.1282c-16.8486,0-30.555,13.7073-30.555,30.5559,0,16.8477,13.7064,30.5549,30.555,30.5549s30.55693-13.7072,30.55693-30.5549c0-16.8486-13.7083-30.5559-30.55693-30.5559Z"/><path class="cls-1" d="M915.92808,77.0181c-1.651,0-2.9905-1.3385-2.9905-2.9904v-35.2286c0-1.6519,1.3395-2.9904,2.9905-2.9904s2.9905,1.3385,2.9905,2.9904v35.2286c0,1.6519-1.3395,2.9904-2.9905,2.9904Z"/><path class="cls-1" d="M891.60328,83.5374c-1.0319,0-2.0384-.5364-2.5914-1.4962l-17.6157-30.5082c-.8255-1.4301-.3368-3.2592,1.0942-4.0847,1.4271-.8274,3.2591-.3378,4.08462,1.0942l17.61568,30.5082c.8255,1.43.3369,3.2592-1.0941,4.0847-.4712.2725-.9852.402-1.4933.402Z"/><path class="cls-1" d="M873.78901,101.3468c-.50822,0-1.02222-.1294-1.49332-.402l-30.5082-17.6138c-1.431-.8255-1.9197-2.6546-1.0942-4.0846s2.6575-1.9197,4.0846-1.0942l30.5083,17.6138c1.4309.8255,1.9196,2.6546,1.0941,4.0846-.5529.9589-1.5595,1.4962-2.59128,1.4962Z"/><path class="cls-1" d="M867.27258,125.6746h-35.2295c-1.651,0-2.9904-1.3385-2.9904-2.9905s1.3394-2.9905,2.9904-2.9905h35.2295c1.651,0,2.9905,1.3385,2.9905,2.9905s-1.3395,2.9905-2.9905,2.9905Z"/><path class="cls-1" d="M843.28458,167.618c-1.0318,0-2.0384-.5364-2.5913-1.4962-.8255-1.43-.3368-3.2591,1.0942-4.0846l30.5082-17.6148c1.4271-.8245,3.2591-.3387,4.0846,1.0942.8255,1.43.3368,3.2591-1.0941,4.0846l-30.5083,17.6148c-.4711.2725-.9851.402-1.4933.402Z"/><path class="cls-1" d="M873.98368,198.3219c-.5082,0-1.0222-.1295-1.4933-.402-1.431-.8255-1.9197-2.6547-1.0942-4.0847l17.6157-30.5092c.8255-1.4319,2.6576-1.9206,4.0847-1.0941,1.431.8255,1.9196,2.6546,1.0941,4.0846l-17.61568,30.5092c-.55292.9598-1.55952,1.4962-2.59132,1.4962Z"/><path class="cls-1" d="M915.92808,209.5595c-1.651,0-2.9905-1.3385-2.9905-2.9904v-35.2286c0-1.6519,1.3395-2.9904,2.9905-2.9904s2.9905,1.3385,2.9905,2.9904v35.2286c0,1.6519-1.3395,2.9904-2.9905,2.9904Z"/><path class="cls-1" d="M957.87251,198.3219c-1.0318,0-2.0384-.5364-2.5913-1.4962l-17.6138-30.5092c-.8255-1.43-.3368-3.2591,1.0942-4.0846,1.4271-.8265,3.2591-.3378,4.0846,1.0941l17.6138,30.5092c.8255,1.43.3368,3.2592-1.0942,4.0847-.4711.2725-.9851.402-1.4933.402Z"/><path class="cls-1" d="M988.57351,167.618c-.5082,0-1.0221-.1295-1.4933-.402l-30.5082-17.6148c-1.431-.8255-1.9197-2.6546-1.0942-4.0846.8255-1.4329,2.6556-1.9187,4.0846-1.0942l30.5083,17.6148c1.431.8255,1.9196,2.6546,1.0941,4.0846-.5529.9598-1.5594,1.4962-2.5913,1.4962Z"/><path class="cls-1" d="M999.81311,125.6746h-35.2276c-1.651,0-2.9905-1.3385-2.9905-2.9905s1.3395-2.9905,2.9905-2.9905h35.2276c1.6509,0,2.9904,1.3385,2.9904,2.9905s-1.3395,2.9905-2.9904,2.9905Z"/><path class="cls-1" d="M958.06921,101.3468c-1.0319,0-2.0385-.5363-2.5914-1.4962-.8255-1.43-.3368-3.2591,1.0942-4.0846l30.5082-17.6138c1.4271-.8255,3.2591-.3388,4.0846,1.0942.8255,1.43.3369,3.2591-1.0941,4.0846l-30.5083,17.6138c-.4711.2726-.9851.402-1.4932.402Z"/><path class="cls-1" d="M940.25491,83.5374c-.5082,0-1.0222-.1295-1.4933-.402-1.431-.8255-1.9197-2.6547-1.0942-4.0847l17.6138-30.5082c.8255-1.431,2.6556-1.9216,4.0846-1.0942,1.431.8255,1.9197,2.6546,1.0942,4.0847l-17.6138,30.5082c-.5529.9588-1.5595,1.4962-2.5913,1.4962Z"/><path class="cls-1" d="M1420.59961,161.3898h-84.473c-.1713,0-.3407-.0146-.5042-.0418-12.1449-.5364-21.5972-10.3732-21.5972-22.5755,0-10.9086,7.8753-20.1896,18.3653-22.1949,1.285-12.0398,11.5043-21.4483,23.879-21.4483,2.9301,0,5.8485.5442,8.582,1.5897,5.796-9.2605,15.8752-14.9027,26.9376-14.9027,13.3149,0,25.2651,8.4409,29.8326,20.7892,15.7389.5413,28.3783,13.5136,28.3783,29.3829,0,16.212-13.1884,29.4014-29.4004,29.4014ZM1336.52381,155.4089h84.0758c12.9139,0,23.4195-10.5066,23.4195-23.4205s-10.5056-23.4195-23.4195-23.4195c-.1675,0-.333.0137-.4965.0244l-.5101.0292c-1.3122.0827-2.6147-.8333-2.9963-2.1601-3.1657-10.9894-13.3656-18.6651-24.8076-18.6651-9.7599,0-18.5814,5.4134-23.0185,14.1268-.364.7145-1.0007,1.2528-1.7639,1.4943-.7632.2423-1.5926.1664-2.3032-.2093-2.6244-1.3931-5.463-2.0988-8.434-2.0988-9.9196,0-17.9935,8.0505-18.0343,17.9603.0019.0516.0038.1032.0038.1451,0,1.5702-1.2148,2.8726-2.7802,2.9826-8.6657.6104-15.4527,7.8909-15.4527,16.5742,0,9.0775,7.116,16.3745,16.1984,16.6111.109.0029.2142.0117.3193.0253Z"/><path class="cls-1" d="M1203.72551,161.3898h-84.471c-.1713,0-.3407-.0146-.5042-.0418-12.1449-.5364-21.5991-10.3732-21.5991-22.5755,0-10.9086,7.8753-20.1896,18.3653-22.1949,1.2849-12.0398,11.5043-21.4483,23.8809-21.4483,2.9301,0,5.8485.5442,8.58,1.5897,5.796-9.2595,15.8752-14.9027,26.9376-14.9027,13.3169,0,25.2671,8.4399,29.8327,20.7892,15.7408.5413,28.3802,13.5136,28.3802,29.3829,0,16.212-13.1904,29.4014-29.4024,29.4014ZM1119.65171,155.4089h84.0738c12.9139,0,23.4215-10.5066,23.4215-23.4205s-10.5076-23.4195-23.4215-23.4195c-.1674,0-.331.0137-.4964.0244l-.5101.0292c-1.2714.0827-2.6128-.8333-2.9963-2.1601-3.1638-10.9894-13.3637-18.6651-24.8077-18.6651-9.7618,0-18.5814,5.4134-23.0165,14.1268-.364.7145-.9987,1.2528-1.7639,1.4943-.7632.2423-1.5926.1664-2.3032-.2093-2.6244-1.3931-5.463-2.0988-8.434-2.0988-9.9196,0-17.9954,8.0505-18.0363,17.9603.002.0516.0039.1032.0039.1451,0,1.5702-1.2149,2.8726-2.7802,2.9826-8.6657.6104-15.4527,7.8909-15.4527,16.5742,0,9.0775,7.116,16.3745,16.2003,16.6111.109.0029.2142.0117.3193.0253Z"/><path class="cls-1" d="M1128.29021,187.791c-.5179,0-1.0416-.1333-1.5186-.4147-1.4213-.8401-1.8944-2.6731-1.0552-4.0953l8.6599-14.672c.843-1.4222,2.6809-1.8924,4.0963-1.0562,1.4212.8401,1.8943,2.6731,1.0552,4.0953l-8.6599,14.672c-.5588.9453-1.5556,1.4709-2.5777,1.4709Z"/><path class="cls-1" d="M1157.62251,187.791c-.5179,0-1.0416-.1333-1.5186-.4147-1.4213-.8401-1.8944-2.6731-1.0553-4.0953l8.6599-14.672c.8431-1.4222,2.679-1.8924,4.0964-1.0562,1.4212.8401,1.8943,2.6731,1.0552,4.0953l-8.6599,14.672c-.5588.9453-1.5556,1.4709-2.5777,1.4709Z"/><path class="cls-1" d="M1186.95671,187.791c-.5179,0-1.0416-.1333-1.5186-.4147-1.4212-.8401-1.8943-2.6731-1.0552-4.0953l8.6599-14.672c.843-1.4222,2.6789-1.8924,4.0963-1.0562,1.4212.8401,1.8943,2.6731,1.0552,4.0953l-8.6599,14.672c-.5587.9453-1.5556,1.4709-2.5777,1.4709Z"/><path class="cls-1" d="M1132.25411,212.3154c-.5179,0-1.0416-.1334-1.5186-.4147-1.4212-.8401-1.8943-2.6731-1.0552-4.0953l8.6599-14.672c.8411-1.4242,2.6789-1.8924,4.0963-1.0562,1.4213.8401,1.8944,2.6731,1.0552,4.0953l-8.6599,14.672c-.5587.9452-1.5556,1.4709-2.5777,1.4709Z"/><path class="cls-1" d="M1161.58831,212.3154c-.5178,0-1.0416-.1334-1.5185-.4147-1.4213-.8401-1.8944-2.6731-1.0553-4.0953l8.658-14.672c.843-1.4242,2.6809-1.8924,4.0963-1.0562,1.4212.8401,1.8943,2.6731,1.0552,4.0953l-8.6579,14.672c-.5588.9452-1.5556,1.4709-2.5778,1.4709Z"/><path class="cls-1" d="M53.44101,829.9629h5.4942v11.0234h10.0422v-11.0234h5.4923v27.5781h-5.4923v-11.0235h-10.0422v11.0235h-5.4942v-27.5781Z"/><path class="cls-1" d="M77.0084,829.9629h16.6267v5.5292h-11.1324v5.4942h11.1324v5.5312h-11.1324v5.4923h11.1324v5.5312h-16.6267v-27.5781Z"/><path class="cls-1" d="M96.1739,829.9629h8.2588c4.585,0,8.2589,3.7108,8.2589,8.2958,0,3.1287-1.7464,5.8933-4.33,7.2756l5.4222,12.0067h-6.0393l-4.9861-11.0235h-1.0903v11.0235h-5.4942v-27.5781ZM104.4327,840.9863c1.5284,0,2.7647-1.2363,2.7647-2.7276,0-1.5283-1.2363-2.7666-2.7647-2.7666h-2.7646v5.4942h2.7646Z"/><path class="cls-1" d="M115.7755,829.9629h16.6267v5.5292h-11.1325v5.4942h11.1325v5.5312h-11.1325v5.4923h11.1325v5.5312h-16.6267v-27.5781Z"/><path class="cls-1" d="M142.2147,829.9629h5.4942v19.8644h-5.4942v-19.8644ZM147.7089,854.7764c0,1.5283-1.2013,2.7646-2.7296,2.7646s-2.7646-1.2363-2.7646-2.7646c0-1.5284,1.23631-2.7296,2.7646-2.7296s2.7296,1.2012,2.7296,2.7296Z"/><path class="cls-1" d="M53.44101,810.3438h2.8074v14.0898h-2.8074v-14.0898Z"/><path class="cls-1" d="M76.8196,824.4336l-1.8788-7.9551-1.8768,7.9551h-2.899l-3.3273-14.0898h2.899l1.8788,7.9745,1.8768-7.9745h2.899l1.8768,7.9745,1.8788-7.9745h2.8989l-3.3272,14.0898h-2.899Z"/><path class="cls-1" d="M95.0836,824.4336l-1.4309-3.9405h-4.3319l-1.431,3.9405h-2.9924l5.0931-14.0898h2.9924l5.0932,14.0898h-2.9925ZM91.4779,814.4888l-1.135,3.1793h2.2876l-1.1526-3.1793Z"/><path class="cls-1" d="M100.8563,814.5822c0-2.3421,1.8963-4.2384,4.2189-4.2384,1.6354,0,3.1424.5587,4.3319,1.4874l-2.0267,2.0268c-.6503-.4284-1.4505-.6873-2.3052-.6873-.7807,0-1.4115.6308-1.4115,1.4115,0,.3349.1285.6503.3329.9112.4478.5023,1.1721.5938,1.8788.6327,2.3032.111,4.0691,1.7094,4.0691,4.0885,0,2.3227-1.8944,4.219-4.219,4.219-1.8963,0-3.6057-.7437-4.8692-1.9508l1.9897-1.9897c.7613.7067,1.7639,1.1331,2.8795,1.1331.7632,0,1.394-.6308,1.394-1.4116,0-.4283-.1674-.8547-.5568-1.0785-.6698-.3894-1.7853-.2785-2.4901-.4459-1.8418-.4653-3.2163-2.1182-3.2163-4.108Z"/><path class="cls-1" d="M40.6419,958.8879h-10.8365c-1.652,0-2.9905-1.3395-2.9905-2.9905v-160.9849c0-1.651,1.3385-2.9905,2.9905-2.9905,1.6519,0,2.9905,1.3395,2.9905,2.9905v157.9944h4.8556v-157.9944c0-1.651,1.3385-2.9905,2.9904-2.9905,1.652,0,2.9905,1.3395,2.9905,2.9905v160.9849c0,1.651-1.3385,2.9905-2.9905,2.9905Z"/><path class="cls-1" d="M35.2237,797.8835c-7.2202,0-13.094-5.8739-13.094-13.095,0-7.2192,5.8738-13.093,13.094-13.093s13.094,5.8738,13.094,13.093c0,7.2211-5.8739,13.095-13.094,13.095ZM35.2237,777.6764c-3.9221,0-7.1131,3.191-7.1131,7.1121,0,3.923,3.191,7.114,7.1131,7.114s7.113-3.191,7.113-7.114c0-3.9211-3.191-7.1121-7.113-7.1121Z"/><path class="cls-1" d="M176.0609,872.2246c-.8528,0-1.6822-.0311-2.4531-.0603-.772-.0273-1.4729-.0604-2.0307-.037-2.9973.1168-5.9945.0389-8.8935-.035-1.8058-.0468-3.6115-.0935-5.4193-.0935H40.6011v-5.9809h116.6632c1.8584,0,3.71571.0467,5.5731.0954,2.80361.0681,5.7025.144,8.51.037.6882-.0195,1.5439.0019,2.4852.0389,1.4047.0487,5.12241.1927,5.89041-.4926-.03311-.0097.02339-.5782-.55781-1.9177-1.09019-1.9099-12.2636-13.3091-18.9406-20.1195-3.3964-3.4655-6.4978-6.6312-8.5761-8.8214-1.0952-1.1526-1.0952-2.9633,0-4.1158,2.0744-2.1864,5.1671-5.3424,8.5567-8.7982,6.68281-6.8181,17.86881-18.229,19.00581-20.2382.587-1.3609.46339-1.906.46239-1.9119-.6795-.5957-4.4283-.4594-5.8369-.401-.9452.035-1.8018.0681-2.4881.037-2.8007-.1071-5.6957-.0351-8.4983.0389-1.8613.0487-3.7225.0954-5.5858.0954H40.6011v-5.9809h116.6632c1.81171,0,3.6223-.0468,5.432-.0935,2.894-.074,5.8855-.148,8.8808-.037.5568.0253,1.2616-.0097,2.0355-.037,3.6729-.1401,8.7115-.3271,11.0342,3.0742,1.358,1.9878,1.3589,4.5772.0029,7.6962-.9034,2.0793-6.0715,7.5579-20.174,21.9437-2.4102,2.459-4.6696,4.7641-6.5144,6.6702,1.8496,1.9118,4.1168,4.2248,6.5349,6.6915,14.0879,14.3722,19.2511,19.845,20.1545,21.9243,1.355,3.117,1.3541,5.7064-.0039,7.6962-1.8359,2.6886-5.3696,3.1325-8.5859,3.1325Z"/><path class="cls-1" d="M148.1245,958.8879H2.99051C1.33851,958.8879,0,957.5484,0,955.8974s1.3385-2.9905,2.9905-2.9905h145.13399c1.652,0,2.99051,1.3395,2.99051,2.9905s-1.33851,2.9905-2.99051,2.9905Z"/><path class="cls-1" d="M417.57169,948.7561h-121.3048c-11.3943,0-20.6636-9.3102-20.6636-20.7542v-71.0586c0-11.444,9.2693-20.7561,20.6636-20.7561h121.3048c11.39431,0,20.6646,9.3121,20.6646,20.7561v71.0586c0,11.444-9.27029,20.7542-20.6646,20.7542ZM296.2669,842.1681c-8.0962,0-14.6827,6.6273-14.6827,14.7752v71.0586c0,8.1459,6.5865,14.7733,14.6827,14.7733h121.3048c8.0962,0,14.6836-6.6274,14.6836-14.7733v-71.0586c0-8.1479-6.5874-14.7752-14.6836-14.7752h-121.3048Z"/><path class="cls-1" d="M356.9193,933.5c-20.4242,0-37.0401-16.6169-37.0401-37.0401s16.6159-37.0401,37.0401-37.0401,37.0401,16.6169,37.0401,37.0401-16.6159,37.0401-37.0401,37.0401ZM356.9193,865.4007c-17.1261,0-31.0592,13.9321-31.0592,31.0592s13.9331,31.0592,31.0592,31.0592,31.0592-13.9322,31.0592-31.0592-13.9331-31.0592-31.0592-31.0592Z"/><path class="cls-1" d="M356.9193,921.5245c-13.8212,0-25.0656-11.2434-25.0656-25.0646s11.2444-25.0666,25.0656-25.0666c13.8222,0,25.0666,11.2454,25.0666,25.0666s-11.2444,25.0646-25.0666,25.0646ZM356.9193,877.3742c-10.5231,0-19.0847,8.5626-19.0847,19.0857s8.5616,19.0837,19.0847,19.0837c10.5241,0,19.0856-8.5606,19.0856-19.0837s-8.5615-19.0857-19.0856-19.0857Z"/><rect class="cls-1" x="278.5938" y="916.6806" width="52.4081" height="5.9809"/><rect class="cls-1" x="382.8338" y="916.6806" width="54.0046" height="5.9809"/><rect class="cls-1" x="278.5938" y="866.9874" width="56.2504" height="5.981"/><rect class="cls-1" x="378.31401" y="866.9874" width="58.52439" height="5.981"/><path class="cls-1" d="M317.0629,863.1656h-19.2715c-1.3765,0-2.4921-1.1156-2.4921-2.492v-11.298c0-1.3765,1.1156-2.4921,2.4921-2.4921h19.2715c1.3765,0,2.49211,1.1156,2.49211,2.4921v11.298c0,1.3764-1.11561,2.492-2.49211,2.492ZM300.2834,858.1815h14.2875v-6.3138h-14.2875v6.3138Z"/><path class="cls-1" d="M337.5426,841.6483c-1.3765,0-2.4921-1.1156-2.4921-2.4921v-4.6064c0-2.2312-1.8164-4.0476-4.0486-4.0476s-4.0476,1.8164-4.0476,4.0476v4.6064c0,1.3765-1.1156,2.4921-2.4921,2.4921s-2.492-1.1156-2.492-2.4921v-4.6064c0-4.9802,4.0515-9.0317,9.0317-9.0317s9.0327,4.0515,9.0327,9.0317v4.6064c0,1.3765-1.1155,2.4921-2.492,2.4921Z"/><path class="cls-1" d="M316.9033,841.6483c-1.3765,0-2.4921-1.1156-2.4921-2.4921v-13.8757c0-.3582-.2988-.6502-.6668-.6502h-12.6355c-.367,0-.6658.292-.6658.6502v13.8757c0,1.3765-1.1156,2.4921-2.49209,2.4921s-2.492-1.1156-2.492-2.4921v-13.8757c0-3.1073,2.53479-5.6344,5.64989-5.6344h12.6355c3.1161,0,5.651,2.5271,5.651,5.6344v13.8757c0,1.3765-1.1156,2.4921-2.4921,2.4921Z"/><path class="cls-1" d="M416.86979,864.5499h-15.5072c-1.3765,0-2.4921-1.1156-2.4921-2.4921v-15.5052c0-1.3765,1.1156-2.4921,2.4921-2.4921h15.5072c1.3765,0,2.4921,1.1156,2.4921,2.4921v15.5052c0,1.3765-1.1156,2.4921-2.4921,2.4921ZM403.8547,859.5658h10.5231v-10.5212h-10.5231v10.5212Z"/><path class="cls-1" d="M1122.64221,933.28h-231.29412c-1.6509,0-2.9904-1.3394-2.9904-2.9904s1.3395-2.9905,2.9904-2.9905h231.29412c1.6509,0,2.9904,1.3395,2.9904,2.9905s-1.3395,2.9904-2.9904,2.9904Z"/><path class="cls-1" d="M1001.00841,849.6793c-15.9842,0-28.9897-14.9173-28.9897-33.2514v-38.0701c0-18.3341,13.0055-33.2514,28.9897-33.2514s28.9896,14.9173,28.9896,33.2514v38.0701c0,18.3341-13.0054,33.2514-28.9896,33.2514ZM1001.00841,751.0873c-12.6861,0-23.0087,12.2345-23.0087,27.2705v38.0701c0,15.036,10.3226,27.2705,23.0087,27.2705s23.0087-12.2345,23.0087-27.2705v-38.0701c0-15.036-10.3226-27.2705-23.0087-27.2705Z"/><path class="cls-1" d="M962.41961,869.645c-.1146-1.7013.0103-3.481.3389-5.2286-.6738.2654-1.4596.4971-2.4271.6786h-49.51212c-2.2818-.4283-3.73028-1.0825-4.4215-1.9956-1.4563-1.9216-.072-5.6791,1.0416-8.6969.2415-.66.4731-1.2849.6659-1.8632.63272-1.8943,3.1851-9.7287,6.4092-19.623,6.2652-19.2336,16.75332-51.4259,17.58662-53.5266.5763-1.4563,1.7697-4.4662,3.2494-4.4662.0194,0,.0389,0,.0603.0019.1091.0039.2239.002.331,0,1.4991-.1265,2.7237,2.9866,3.3098,4.4623.8352,2.1125,11.3836,34.4878,17.6858,53.8324,3.1754,9.7501,5.683,17.4444,6.308,19.3192.1927.5783.4244,1.2032.6658,1.8632.4721,1.2791.9807,2.6868,1.3131,4.0355,1.083-1.7279,2.4948-3.223,4.3212-4.2551.1822-.1029.372-.1617.5576-.2468-.1962-.5616-.3936-1.0984-.5789-1.6012-.22-.5996-.4303-1.1662-.6055-1.6899-.6249-1.871-3.1248-9.5477-6.2944-19.2765-8.911-27.3503-16.9771-52.0723-17.8123-54.1827-1.0066-2.5369-3.3546-8.3815-9.0357-8.2413-5.7298-.1129-8.031,5.7044-9.0356,8.2413-.8314,2.1007-8.85463,26.6825-17.71312,53.8771-3.2163,9.8728-5.7648,17.6916-6.39558,19.5801-.17532.5257-.38552,1.0923-.60552,1.6919-1.4446,3.9192-3.6271,9.8456-.1967,14.3761,2.2293,2.9379,5.86222,3.8724,8.4029,4.3202.1714.0292.3446.0448.5179.0448h50.04952c.1732,0,.3465-.0156.5178-.0448.4505-.0794.9427-.1828,1.4481-.3013-.0721-.3599-.1221-.7229-.1464-1.0849Z"/><path class="cls-1" d="M1099.17201,889.4607h-49.5919c-16.3522,0-29.6555-13.3033-29.6555-29.6555,0-13.3286,9.0104-25.0393,21.6907-28.571,3.8043-15.9414,18.0654-27.3153,34.6298-27.3153,19.6503,0,35.6364,15.9862,35.6364,35.6364,0,3.0703-.4069,6.1387-1.2148,9.1486,6.2827,4.0671,10.0908,10.9767,10.0908,18.5775,0,11.8957-9.205,21.5291-21.0384,22.1287-.1771.0331-.3602.0506-.5471.0506ZM1076.24511,809.8999c-14.3312,0-26.5891,10.231-29.1493,24.3287-.218,1.2012-1.1408,2.1474-2.3363,2.3947-10.9241,2.2604-18.8539,12.0086-18.8539,23.1819,0,13.0541,10.6204,23.6746,23.6745,23.6746h49.1636c.1091-.0156.222-.0253.3368-.0292,8.8021-.2706,15.6961-7.373,15.6961-16.1692,0-6.1737-3.448-11.7263-8.9967-14.4909-1.3414-.6678-1.98-2.2253-1.4952-3.6446,1.0727-3.1385,1.6159-6.3665,1.6159-9.5906,0-16.3521-13.3033-29.6554-29.6555-29.6554Z"/><path class="cls-1" d="M935.57631,932.5986c-1.651,0-2.9905-1.3395-2.9905-2.9905v-94.8519c0-1.651,1.3395-2.9905,2.9905-2.9905s2.9905,1.3395,2.9905,2.9905v94.8519c0,1.651-1.3395,2.9905-2.9905,2.9905Z"/><path class="cls-1" d="M1001.00841,932.5986c-1.651,0-2.9905-1.3395-2.9905-2.9905v-114.29c0-1.6509,1.3395-2.9904,2.9905-2.9904s2.9904,1.3395,2.9904,2.9904v114.29c0,1.651-1.3394,2.9905-2.9904,2.9905Z"/><path class="cls-1" d="M978.33071,885.8258c-9.9585,0-18.0597-8.1011-18.0597-18.0577,0-9.9584,8.1012-18.0596,18.0597-18.0596s18.0596,8.1012,18.0596,18.0596c0,9.9566-8.1011,18.0577-18.0596,18.0577ZM978.33071,855.6895c-6.6604,0-12.0787,5.4182-12.0787,12.0786,0,6.6585,5.4183,12.0768,12.0787,12.0768s12.0786-5.4183,12.0786-12.0768c0-6.6604-5.4182-12.0786-12.0786-12.0786Z"/><path class="cls-1" d="M1000.17121,892.8211c-.771,0-1.54-.2959-2.126-.8858l-21.8406-22.0625c-1.1603-1.174-1.1506-3.0684.0214-4.2307,1.176-1.1604,3.0664-1.1506,4.2307.0214l21.8405,22.0625c1.1604,1.174,1.1507,3.0684-.0214,4.2307-.5841.5763-1.3434.8644-2.1046.8644Z"/><path class="cls-1" d="M1070.34211,932.5986c-1.651,0-2.9905-1.3395-2.9905-2.9905v-60.518l-12.2851-11.1889c-1.2207-1.1137-1.3102-3.0041-.1985-4.2249,1.1136-1.2226,3.0079-1.3083,4.2248-.1985l13.2624,12.0786c.623.5666.9773,1.3707.9773,2.2117v61.84c0,1.651-1.3394,2.9905-2.9904,2.9905Z"/><path class="cls-1" d="M1070.34401,870.7586c-.9248,0-1.8379-.4283-2.422-1.2343-.9695-1.3356-.6736-3.2066.6639-4.1762l16.6423-12.0787c1.3356-.9676,3.2085-.6716,4.1762.6639.9695,1.3356.6736,3.2066-.6639,4.1762l-16.6423,12.0787c-.5296.3855-1.1448.5704-1.7542.5704Z"/><path class="cls-1" d="M959.35991,930.0812c-.7652,0-1.5303-.292-2.1144-.8761l-7.7059-7.7078c-1.1681-1.1682-1.1681-3.0606,0-4.2287,1.1682-1.1682,3.0606-1.1682,4.2287,0l7.7059,7.7078c1.1682,1.1682,1.1682,3.0606,0,4.2287-.584.5841-1.3492.8761-2.1143.8761Z"/><path class="cls-1" d="M958.39231,930.0812c-.7652,0-1.5303-.292-2.1144-.8761-1.1681-1.1681-1.1681-3.0605,0-4.2287l7.7059-7.7078c1.1682-1.1682,3.0606-1.1682,4.2287,0,1.1682,1.1681,1.1682,3.0605,0,4.2287l-7.7059,7.7078c-.5841.5841-1.3492.8761-2.1143.8761Z"/><path class="cls-1" d="M1025.67391,930.0812c-.7651,0-1.5303-.292-2.1144-.8761l-12.1624-12.1624c-1.1681-1.1681-1.1681-3.0605,0-4.2287,1.1682-1.1681,3.0606-1.1681,4.2287,0l12.1625,12.1624c1.1681,1.1682,1.1681,3.0606,0,4.2287-.5841.5841-1.3493.8761-2.1144.8761Z"/><path class="cls-1" d="M1024.14561,930.0812c-.7652,0-1.5303-.292-2.1144-.8761-1.1681-1.1681-1.1681-3.0605,0-4.2287l12.1624-12.1624c1.1682-1.1681,3.0606-1.1681,4.2287,0,1.1682,1.1682,1.1682,3.0606,0,4.2287l-12.1624,12.1624c-.5841.5841-1.3492.8761-2.1143.8761Z"/><path class="cls-1" d="M1051.82691,930.0812c-.7652,0-1.5303-.292-2.1144-.8761l-7.7059-7.7078c-1.1681-1.1682-1.1681-3.0606,0-4.2287,1.1682-1.1682,3.0606-1.1682,4.2287,0l7.7059,7.7078c1.1682,1.1682,1.1682,3.0606,0,4.2287-.5841.5841-1.3492.8761-2.1143.8761Z"/><path class="cls-1" d="M1050.85731,930.0812c-.7651,0-1.5303-.292-2.1144-.8761-1.1681-1.1681-1.1681-3.0605,0-4.2287l7.7059-7.7078c1.1682-1.1682,3.0606-1.1682,4.2288,0,1.1681,1.1681,1.1681,3.0605,0,4.2287l-7.7059,7.7078c-.5841.5841-1.3493.8761-2.1144.8761Z"/><path class="cls-1" d="M925.16421,979.1202l-3.49283-14.8043-3.4928,14.8043h-5.3968l-6.1912-26.2172h5.3968l3.4928,14.8395,3.49283-14.8395h5.39677l3.49283,14.8395,3.4928-14.8395h5.3969l-6.1912,26.2172h-5.3969Z"/><path class="cls-1" d="M963.65481,966.0136c0,7.227-5.8797,13.1066-13.1106,13.1066-7.2269,0-13.1066-5.8796-13.1066-13.1066,0-7.2309,5.8797-13.1106,13.1066-13.1106,7.2309,0,13.1106,5.8797,13.1106,13.1106ZM942.65921,966.0136c0,4.3572,3.5278,7.885,7.885,7.885,4.3261,0,7.8539-3.5278,7.8539-7.885,0-4.3261-3.5278-7.8539-7.8539-7.8539-4.3572,0-7.885,3.5278-7.885,7.8539Z"/><path class="cls-1" d="M992.28621,966.0136c0,7.227-5.8797,13.1066-13.1086,13.1066s-13.1086-5.8796-13.1086-13.1066c0-7.2309,5.8797-13.1106,13.1086-13.1106s13.1086,5.8797,13.1086,13.1106ZM971.29061,966.0136c0,4.3572,3.5278,7.885,7.887,7.885,4.3241,0,7.8519-3.5278,7.8519-7.885,0-4.3261-3.5278-7.8539-7.8519-7.8539-4.3592,0-7.887,3.5278-7.887,7.8539Z"/><path class="cls-1" d="M994.70041,952.903h7.334c7.2289,0,13.1086,5.8797,13.1086,13.1106,0,7.227-5.8797,13.1066-13.1086,13.1066h-7.334v-26.2172ZM1002.03441,973.8636c4.3592,0,7.8519-3.4928,7.8519-7.85,0-4.3261-3.4927-7.8539-7.8519-7.8539h-2.1105v15.7039h2.1105Z"/><path class="cls-1" d="M1017.55911,952.903h5.2236v20.9606h9.5458v5.2566h-14.7694v-26.2172Z"/><path class="cls-1" d="M1053.00861,979.1202l-2.6633-7.3321h-8.0583l-2.6634,7.3321h-5.5682l9.4776-26.2172h5.5682l9.4776,26.2172h-5.5702ZM1046.29761,960.6167l-2.1085,5.9148h4.254l-2.1455-5.9148Z"/><path class="cls-1" d="M1076.90321,952.903h5.2216v26.2172h-6.086l-10.5154-17.4677v17.4677h-5.2235v-26.2172h6.123l10.4803,17.5028v-17.5028Z"/><path class="cls-1" d="M1084.54291,952.903h7.3321c7.2289,0,13.1086,5.8797,13.1086,13.1106,0,7.227-5.8797,13.1066-13.1086,13.1066h-7.3321v-26.2172ZM1091.87501,973.8636c4.3572,0,7.85-3.4928,7.85-7.85,0-4.3261-3.4928-7.8539-7.85-7.8539h-2.1105v15.7039h2.1105Z"/><path class="cls-1" d="M1447.00951,933.28h-231.294c-1.651,0-2.9904-1.3394-2.9904-2.9904s1.3394-2.9905,2.9904-2.9905h231.294c1.651,0,2.9905,1.3395,2.9905,2.9905s-1.3395,2.9904-2.9905,2.9904Z"/><path class="cls-1" d="M1285.91171,932.879c-1.651,0-2.9905-1.3395-2.9905-2.9905v-83.7837c0-1.6491-.9579-2.7977-1.8164-2.7977h-30.6387c-.8586,0-1.8165,1.1486-1.8165,2.7977v83.7837c0,1.651-1.3395,2.9905-2.9905,2.9905-1.6509,0-2.9904-1.3395-2.9904-2.9905v-83.7837c0-4.8401,3.4986-8.7787,7.7974-8.7787h30.6387c4.2988,0,7.7974,3.9386,7.7974,8.7787v83.7837c0,1.651-1.3395,2.9905-2.9905,2.9905Z"/><path class="cls-1" d="M1277.20701,842.0785c-1.651,0-2.9904-1.3394-2.9904-2.9904v-17.3938h-16.8643v17.3938c0,1.651-1.3394,2.9904-2.9904,2.9904s-2.9905-1.3394-2.9905-2.9904v-20.3843c0-1.651,1.3395-2.9904,2.9905-2.9904h22.8451c1.651,0,2.9905,1.3394,2.9905,2.9904v20.3843c0,1.651-1.3395,2.9904-2.9905,2.9904Z"/><path class="cls-1" d="M1265.78441,819.4884c-1.6509,0-2.9904-1.3394-2.9904-2.9904v-34.8324c0-1.6509,1.3395-2.9904,2.9904-2.9904,1.651,0,2.9905,1.3395,2.9905,2.9904v34.8324c0,1.651-1.3395,2.9904-2.9905,2.9904Z"/><path class="cls-1" d="M1301.14241,932.879c-1.6509,0-2.9904-1.3395-2.9904-2.9905v-153.2517c0-6.4482,5.245-11.6952,11.6932-11.6952h56.5697c6.4482,0,11.6932,5.247,11.6932,11.6952v69.0105c0,1.6509-1.3395,2.9904-2.9905,2.9904s-2.9905-1.3395-2.9905-2.9904v-69.0105c0-3.1502-2.5621-5.7143-5.7122-5.7143h-56.5697c-3.1501,0-5.7123,2.5641-5.7123,5.7143v153.2517c0,1.651-1.3395,2.9905-2.9905,2.9905Z"/><path class="cls-1" d="M1406.30531,932.5733c-1.651,0-2.9905-1.3395-2.9905-2.9905v-77.4581c0-1.5498-1.2616-2.8114-2.8133-2.8114h-42.0632c-1.5517,0-2.8133,1.2616-2.8133,2.8114v77.4581c0,1.651-1.3394,2.9905-2.9904,2.9905s-2.9905-1.3395-2.9905-2.9905v-77.4581c0-4.8479,3.9445-8.7923,8.7942-8.7923h42.0632c4.8498,0,8.7943,3.9444,8.7943,8.7923v77.4581c0,1.651-1.3395,2.9905-2.9905,2.9905Z"/><path class="cls-1" d="M1393.97551,865.4299h-29.7353c-1.651,0-2.9905-1.3395-2.9905-2.9905s1.3395-2.9904,2.9905-2.9904h29.7353c1.6509,0,2.9904,1.3394,2.9904,2.9904s-1.3395,2.9905-2.9904,2.9905Z"/><path class="cls-1" d="M1393.97551,877.1231h-29.7353c-1.651,0-2.9905-1.3395-2.9905-2.9905s1.3395-2.9904,2.9905-2.9904h29.7353c1.6509,0,2.9904,1.3394,2.9904,2.9904s-1.3395,2.9905-2.9904,2.9905Z"/><path class="cls-1" d="M1328.70111,816.6596h-13.7803c-1.651,0-2.9905-1.3395-2.9905-2.9905v-25.3177c0-1.651,1.3395-2.9905,2.9905-2.9905h13.7803c1.651,0,2.9905,1.3395,2.9905,2.9905v25.3177c0,1.651-1.3395,2.9905-2.9905,2.9905ZM1317.91131,810.6786h7.7993v-19.3368h-7.7993v19.3368Z"/><path class="cls-1" d="M1328.70111,854.7374h-13.7803c-1.651,0-2.9905-1.3395-2.9905-2.9905v-25.3177c0-1.651,1.3395-2.9905,2.9905-2.9905h13.7803c1.651,0,2.9905,1.3395,2.9905,2.9905v25.3177c0,1.651-1.3395,2.9905-2.9905,2.9905ZM1317.91131,848.7565h7.7993v-19.3368h-7.7993v19.3368Z"/><path class="cls-1" d="M1356.59851,816.6596h-13.7803c-1.651,0-2.9905-1.3395-2.9905-2.9905v-25.3177c0-1.651,1.3395-2.9905,2.9905-2.9905h13.7803c1.651,0,2.9905,1.3395,2.9905,2.9905v25.3177c0,1.651-1.3395,2.9905-2.9905,2.9905ZM1345.80871,810.6786h7.7993v-19.3368h-7.7993v19.3368Z"/><path class="cls-1" d="M1285.91171,858.4911h-40.2526c-1.6509,0-2.9904-1.3395-2.9904-2.9905s1.3395-2.9905,2.9904-2.9905h40.2526c1.651,0,2.9905,1.3395,2.9905,2.9905s-1.3395,2.9905-2.9905,2.9905Z"/><path class="cls-1" d="M1285.91171,870.2076h-40.2526c-1.6509,0-2.9904-1.3394-2.9904-2.9904s1.3395-2.9905,2.9904-2.9905h40.2526c1.651,0,2.9905,1.3395,2.9905,2.9905s-1.3395,2.9904-2.9905,2.9904Z"/><path class="cls-1" d="M1315.53021,956.536l-3.7031,3.7342c-1.3823-1.3122-3.2844-2.1105-5.3267-2.1105-4.3572,0-7.8851,3.5278-7.8851,7.8539,0,4.3572,3.5279,7.85,7.8851,7.85,2.0423,0,3.9444-.7944,5.3267-2.0755l3.7031,3.7031c-2.3519,2.2467-5.5351,3.629-9.0298,3.629-7.227,0-13.1067-5.8796-13.1067-13.1066,0-7.2309,5.8797-13.1106,13.1067-13.1106,3.4947,0,6.6779,1.3823,9.0298,3.633Z"/><path class="cls-1" d="M1317.94441,952.903h5.2216v26.2172h-5.2216v-26.2172Z"/><path class="cls-1" d="M1338.21181,958.1597v20.9605h-5.2586v-20.9605h-7.3672v-5.2567h19.9929v5.2567h-7.3671Z"/><path class="cls-1" d="M1354.84241,966.6366l-6.8493-13.7336h5.8466l3.631,7.262,3.5979-7.262h5.8447l-6.8493,13.7336v12.4836h-5.2216v-12.4836Z"/><path class="cls-1" d="M640.23019,960.7881c0,1.5925-.4838,3.08-1.2791,4.326,1.798,1.4524,2.9398,3.6641,2.9398,6.1562,0,4.3221-3.5278,7.8499-7.85188,7.8499h-8.99282v-26.2172h7.3331c4.3581,0,7.8509,3.5278,7.8509,7.8851ZM632.37929,963.3852c1.4524,0,2.6283-1.1759,2.6283-2.5971,0-1.4524-1.1759-2.6284-2.6283-2.6284h-2.1105v5.2255h2.1105ZM634.03901,973.8636c1.45238,0,2.62928-1.1409,2.62928-2.5933s-1.1769-2.6284-2.62928-2.6284h-3.77022v5.2217h3.77022Z"/><path class="cls-1" d="M644.30709,952.903h15.807v5.2567h-10.5844v5.2255h10.5844v5.2567h-10.5844v5.2217h10.5844v5.2566h-15.807v-26.2172Z"/><path class="cls-1" d="M680.79429,979.1202l-2.6634-7.3321h-8.0593l-2.6624,7.3321h-5.56918l9.47758-26.2172h5.5682l9.4776,26.2172h-5.5691ZM674.08419,960.6167l-2.1095,5.9148h4.254l-2.1445-5.9148Z"/><path class="cls-1" d="M708.49409,956.536l-3.70108,3.7342c-1.38232-1.3122-3.28642-2.1105-5.32682-2.1105-4.35818,0-7.886,3.5278-7.886,7.8539,0,4.3572,3.52782,7.85,7.886,7.85,2.0404,0,3.9445-.7944,5.32682-2.0755l3.70108,3.7031c-2.3519,2.2467-5.53508,3.629-9.0279,3.629-7.2289,0-13.1086-5.8796-13.1086-13.1066,0-7.2309,5.8797-13.1106,13.1086-13.1106,3.49282,0,6.676,1.3823,9.0279,3.633Z"/><path class="cls-1" d="M710.91019,952.903h5.2216v10.4822h9.5477v-10.4822h5.2217v26.2172h-5.2217v-10.4783h-9.5477v10.4783h-5.2216v-26.2172Z"/><path class="cls-1" d="M803.86001,871.7535c-.30372,0-.60942-.0467-.90532-.1402l-136.6864-43.4611c-.9598-.3056-1.7016-1.0727-1.9732-2.0423-.2716-.9695-.037-2.0112.624-2.7705,21.2623-24.4279,54.9352-33.8763,85.7842-24.0678,30.8489,9.8086,52.8822,36.9662,56.1316,69.1916.1012,1.0027-.3076,1.9878-1.0903,2.6225-.5393.4381-1.2071.6678-1.88458.6678ZM672.56459,823.8787l127.717,40.6089c-4.5325-27.8254-24.2878-50.9003-51.389-59.5154-27.1108-8.6171-56.558-1.1915-76.328,18.9065Z"/><rect class="cls-1" x="736.13128" y="769.57608" width="5.98147" height="132.23899" transform="translate(-281.24487 1286.8495) rotate(-72.36175)"/><rect class="cls-1" x="739.93602" y="769.01343" width="5.98154" height="109.43084" transform="translate(-267.19494 1282.12118) rotate(-72.36098)"/><path class="cls-1" d="M752.33669,804.026c-.9929,0-2.0014-.1499-2.9963-.4653-5.2119-1.6607-8.103-7.2484-6.4462-12.4583.8021-2.5232,2.5407-4.585,4.8926-5.8019,2.3538-1.2207,5.0425-1.4465,7.5638-.6424,2.5232.8021,4.585,2.5407,5.8018,4.8926,1.2168,2.3518,1.44662,5.0386.6444,7.5618v.0019c-1.3414,4.2151-5.2567,6.9116-9.4601,6.9116ZM752.33869,790.1698c-.6211,0-1.2363.1499-1.8029.4419-.9345.4829-1.6237,1.3006-1.941,2.3032-.6581,2.0696.4886,4.2872,2.55822,4.9452,2.07348.6639,4.28318-.4906,4.94318-2.5582h0c.3193-1.0027.22782-2.0677-.255-3.0022-.4828-.9326-1.3005-1.6237-2.30318-1.9411-.39522-.1265-.79822-.1888-1.19932-.1888Z"/><rect class="cls-1" x="674.12655" y="884.75003" width="87.40403" height="5.9812" transform="translate(-345.56378 1303.14162) rotate(-72.37842)"/><rect class="cls-1" x="682.74524" y="887.49029" width="87.40275" height="5.98122" transform="translate(-342.16592 1313.26709) rotate(-72.37848)"/><path class="cls-1" d="M795.06969,933.28h-126.7951c-1.652,0-2.9905-1.3394-2.9905-2.9904s1.3385-2.9905,2.9905-2.9905h126.7951c1.651,0,2.9904,1.3395,2.9904,2.9905s-1.3394,2.9904-2.9904,2.9904Z"/><path class="cls-1" d="M600.72819,938.8638c-6.4424,0-12.4574-3.4753-15.698-9.0688-2.1747-3.7536-6.2068-6.086-10.5231-6.086s-8.3484,2.3324-10.52308,6.086c-.82752,1.4291-2.65462,1.9217-4.08662,1.0884-1.429-.8275-1.9167-2.6576-1.0883-4.0866,3.2396-5.5935,9.2547-9.0688,15.698-9.0688s12.4583,3.4753,15.698,9.0688c2.1747,3.7537,6.2077,6.0861,10.5231,6.0861s8.3484-2.3324,10.5231-6.0861c.8284-1.431,2.6575-1.9158,4.0866-1.0883,1.429.8274,1.9167,2.6575,1.0883,4.0865-3.2406,5.5935-9.2557,9.0688-15.698,9.0688Z"/><path class="cls-1" d="M653.17039,938.8638c-6.4423,0-12.45738-3.4753-15.698-9.0688-2.1737-3.7536-6.2058-6.086-10.5231-6.086-4.31628,0-8.3484,2.3324-10.5231,6.086-.8274,1.4291-2.6566,1.9217-4.0866,1.0884-1.429-.8275-1.9167-2.6576-1.0883-4.0866,3.23972-5.5935,9.25472-9.0688,15.698-9.0688,6.4443,0,12.4603,3.4753,15.699,9.0688,2.17372,3.7537,6.2068,6.0861,10.5221,6.0861,4.3163,0,8.3484-2.3324,10.5231-6.0861.82652-1.431,2.6546-1.9197,4.0866-1.0883,1.429.8274,1.9167,2.6575,1.0883,4.0865-3.2397,5.5935-9.2547,9.0688-15.698,9.0688Z"/><path class="cls-1" d="M666.27801,931.2864c-.50812,0-1.024-.1285-1.49622-.403-1.429-.8275-1.9167-2.6576-1.0883-4.0866,3.2397-5.5935,9.2547-9.0688,15.699-9.0688s12.4593,3.4753,15.698,9.0688c.8274,1.431.3388,3.2591-1.0903,4.0866-1.428.8333-3.2591.3387-4.0866-1.0884-2.1727-3.7536-6.2038-6.086-10.5211-6.086s-8.3494,2.3324-10.5241,6.086c-.5539.9579-1.5585,1.4914-2.59038,1.4914Z"/><path class="cls-1" d="M634.54329,848.5306c-1.0319,0-2.0365-.5334-2.5904-1.4913-1.5761-2.7218-4.4993-4.4117-7.628-4.4117s-6.052,1.6899-7.6291,4.4117c-.5344.9228-1.5205,1.4913-2.5874,1.4913h0c-1.0669,0-2.053-.5685-2.5875-1.4913-1.576-2.7218-4.4993-4.4117-7.628-4.4117s-6.052,1.6899-7.628,4.4117c-.8255,1.429-2.6576,1.9197-4.0866,1.0883-1.429-.8274-1.9167-2.6575-1.08828-4.0866,2.64188-4.5616,7.54718-7.3944,12.80288-7.3944,3.8413,0,7.4956,1.5147,10.2155,4.11,2.7208-2.5972,6.3752-4.11,10.2165-4.11,5.2557,0,10.1609,2.8328,12.8029,7.3944.8284,1.4291.3407,3.2592-1.0883,4.0866-.4722.2726-.9881.403-1.4962.403Z"/><path class="cls-1" d="M666.28389,872.322c-1.03188,0-2.0365-.5335-2.5904-1.4913-1.577-2.7218-4.5003-4.4137-7.628-4.4137s-6.051,1.6919-7.6281,4.4137c-.53438.9228-1.5205,1.4913-2.58738,1.4913s-2.053-.5685-2.58752-1.4913c-1.577-2.7218-4.5003-4.4137-7.628-4.4137s-6.051,1.6919-7.628,4.4137c-.82548,1.429-2.6546,1.9196-4.0866,1.0883-1.429-.8275-1.9167-2.6576-1.0883-4.0866,2.6419-4.5616,7.5482-7.3964,12.8029-7.3964,3.8403,0,7.4947,1.5148,10.21552,4.11,2.72078-2.5952,6.37518-4.11,10.21548-4.11,5.2547,0,10.1609,2.8348,12.8029,7.3964.8284,1.429.3407,3.2591-1.0883,4.0866-.47208.2725-.98808.403-1.4962.403Z"/><path class="cls-1" d="M1168.13021,476.167c-.6619,0-1.3142-.22-1.8457-.6376-.7223-.5666-1.1447-1.4339-1.1447-2.3529v-69.7727c0-1.3775.9403-2.5758,2.2778-2.9048l247.7922-60.7877c.8898-.2181,1.836-.0156,2.5583.552.7223.5665,1.1448,1.4339,1.1448,2.3528v69.7727c0,1.3775-.9404,2.5758-2.2779,2.9048l-247.7922,60.7877c-.2356.0574-.4751.0857-.7126.0857ZM1171.12071,405.7489v63.6146l241.8113-59.3197v-63.6147l-241.8113,59.3198ZM1415.92241,412.3888h.0195-.0195Z"/><path class="cls-1" d="M1415.92051,385.6479c-1.3453,0-2.568-.9141-2.9029-2.2789-.3933-1.6042.588-3.2231,2.1922-3.6174l27.5275-6.7528-13.1495-27.7621c-.3485-.736-.3815-1.5819-.0934-2.3432l12.6939-33.374-61.4564,15.0759v27.3873c0,1.652-1.3395,2.9905-2.9905,2.9905s-2.9905-1.3385-2.9905-2.9905v-29.7323c0-1.3775.9404-2.5758,2.2779-2.9048l69.2675-16.9928c1.0786-.2599,2.2156.0915,2.9535.9239.7359.8332.9501,2.0053.5549,3.044l-14.2671,37.5074,14.1736,29.9222c.3855.8118.3835,1.7532-.0019,2.5641-.3855.8118-1.1156,1.4066-1.9878,1.6208l-31.0865,7.6261c-.2395.0584-.4789.0866-.7145.0866Z"/><path class="cls-1" d="M1168.13021,577.1965c-.6619,0-1.3142-.22-1.8457-.6366-.7223-.5685-1.1447-1.4349-1.1447-2.3539v-69.7727c0-1.3774.9403-2.5757,2.2778-2.9048l247.7922-60.7877c.8898-.219,1.836-.0155,2.5583.552.7223.5665,1.1448,1.4339,1.1448,2.3528v69.7728c0,1.3774-.9404,2.5757-2.2779,2.9048l-247.7922,60.7876c-.2356.0565-.4751.0857-.7126.0857ZM1171.12071,506.7784v63.6156l241.8113-59.3207v-63.6146l-241.8113,59.3197ZM1415.92241,513.4184h.0195-.0195Z"/><path class="cls-1" d="M1168.13021,678.226c-.6619,0-1.3142-.22-1.8457-.6366-.7223-.5685-1.1447-1.4349-1.1447-2.3538v-69.7737c0-1.3765.9403-2.5758,2.2778-2.9048l247.7922-60.7867c.8898-.2122,1.836-.0156,2.5583.5509.7223.5685,1.1448,1.4349,1.1448,2.3539v69.7717c0,1.3765-.9404,2.5758-2.2779,2.9048l-247.7922,60.7887c-.2356.0564-.4751.0856-.7126.0856ZM1171.12071,607.8079v63.6156l241.8113-59.3226v-63.6137l-241.8113,59.3207ZM1415.92241,614.4469h.0195-.0195Z"/><path class="cls-1" d="M1415.92051,345.6075c-.4751,0-.9579-.1138-1.4057-.3523l-38.181-20.3658c-1.4563-.7778-2.0073-2.5894-1.2305-4.0467.7768-1.4563,2.5914-2.0063,4.0457-1.2314l38.181,20.3658c1.4563.7778,2.0073,2.5894,1.2305,4.0466-.5374,1.0085-1.5712,1.5838-2.64,1.5838Z"/><path class="cls-1" d="M1137.19371,716.6543c-.845,0-1.6646-.3601-2.2409-1.0104-.736-.8313-.9501-2.0034-.5549-3.043l14.267-37.5074-14.1736-29.9222c-.3854-.8119-.3835-1.7542.002-2.5661.3855-.8099,1.1156-1.4057,1.9878-1.6198l28.8787-7.0829c1.6081-.3952,3.2241.588,3.6173,2.1922.3933,1.6043-.5879,3.2241-2.1922,3.6174l-25.3197,6.2087,13.1495,27.7631c.3485.7359.3816,1.5828.0935,2.3441l-12.694,33.3741,61.4584-15.077v-27.3873c0-1.651,1.3395-2.9905,2.9905-2.9905s2.9905,1.3395,2.9905,2.9905v29.7334c0,1.3764-.9404,2.5757-2.2779,2.9048l-69.2695,16.9927c-.2355.0584-.475.0856-.7125.0856Z"/><path class="cls-1" d="M1206.46121,699.6616c-.4751,0-.9579-.1129-1.4057-.3524l-38.183-20.3667c-1.4563-.7768-2.0073-2.5874-1.2304-4.0457.7768-1.4563,2.5913-2.0092,4.0457-1.2304l38.1829,20.3667c1.4563.7768,2.0073,2.5874,1.2305,4.0457-.5374,1.0085-1.5712,1.5828-2.64,1.5828Z"/><path class="cls-1" d="M1415.92631,446.6361c-.1596,0-.3212-.0126-.4828-.0389l-74.0822-12.031c-1.6316-.2648-2.7374-1.8009-2.4726-3.4305.2628-1.6305,1.8087-2.7422,3.4304-2.4726l74.0823,12.031c1.6315.2648,2.7373,1.8009,2.4726,3.4305-.2376,1.468-1.507,2.5115-2.9477,2.5115Z"/><path class="cls-1" d="M1244.79801,488.6175c-.1597,0-.3213-.0126-.4829-.0389l-76.6638-12.4506c-1.6315-.2647-2.7374-1.8009-2.4726-3.4304.2628-1.6306,1.8106-2.7432,3.4305-2.4726l76.6638,12.4505c1.6315.2648,2.7374,1.8009,2.4726,3.4305-.2375,1.468-1.5069,2.5115-2.9476,2.5115Z"/><path class="cls-1" d="M1415.92631,547.434c-.1596,0-.3212-.0117-.4828-.039l-74.0822-12.031c-1.6316-.2647-2.7374-1.8009-2.4726-3.4304.2628-1.6316,1.8087-2.7364,3.4304-2.4726l74.0823,12.031c1.6315.2647,2.7373,1.8009,2.4726,3.4304-.2376,1.468-1.507,2.5116-2.9477,2.5116Z"/><path class="cls-1" d="M1244.79801,589.4154c-.1597,0-.3213-.0117-.4829-.039l-76.6638-12.4505c-1.6315-.2648-2.7374-1.8009-2.4726-3.4305.2628-1.6315,1.8106-2.7471,3.4305-2.4726l76.6638,12.4506c1.6315.2648,2.7374,1.8009,2.4726,3.4305-.2375,1.4679-1.5069,2.5115-2.9476,2.5115Z"/><path class="cls-1" d="M1207.63911,446.7938l-4.7953-7.1724-8.6541,2.127-.9248,8.5771-5.9809,1.469,3.2592-30.6552,5.9809-1.47,17.0939,25.6546-5.9789,1.4699ZM1195.55061,428.6923l-.7048,6.9077,4.5675-1.1224-3.8627-5.7853Z"/><path class="cls-1" d="M1208.57941,416.7178l7.8734-1.9352c7.7643-1.907,15.6298,2.8561,17.5378,10.6185,1.906,7.7633-2.8561,15.6289-10.6185,17.5359l-7.8753,1.9352-6.9174-28.1544ZM1221.98401,437.2919c4.6803-1.1497,7.5092-5.8233,6.3605-10.5037-1.1409-4.6424-5.8232-7.5092-10.5036-6.3596l-2.2662.5568,4.143,16.8633,2.2663-.5568Z"/><path class="cls-1" d="M1247.60541,436.9901l-17.0939-25.6536,5.9789-1.4699,12.0515,18.1102,2.3246-21.6419,5.979-1.469-3.2592,30.6552-5.9809,1.469Z"/><path class="cls-1" d="M1258.74961,404.4094l16.9752-4.1713,1.3862,5.6461-11.3661,2.7928,1.3784,5.6081,11.3661-2.7919,1.3862,5.6451-11.3661,2.7929,1.3784,5.6091,11.3661-2.7929,1.3882,5.6461-16.9752,4.1703-6.9174-28.1544Z"/><path class="cls-1" d="M1296.17911,395.2209l5.6091-1.3784,6.9174,28.1544-6.5358,1.6062-15.9005-15.9833,4.6083,18.7576-5.609,1.3785-6.9174-28.1544,6.5747-1.616,15.8713,16.03-4.6181-18.7946Z"/><path class="cls-1" d="M1319.32211,395.5305l5.5312,22.5093-5.646,1.3871-5.5312-22.5093-7.9123,1.944-1.3862-5.6451,21.4687-5.2751,1.3881,5.646-7.9123,1.9431Z"/><path class="cls-1" d="M1346.09811,412.8288c-5.9439,1.4602-11.9132-2.1542-13.3734-8.0972l-4.2793-17.4201,5.6091-1.3784,4.2793,17.4201c.6931,2.823,3.5629,4.5606,6.3859,3.8666,2.823-.6931,4.5597-3.5619,3.8666-6.385l-4.2813-17.421,5.6091-1.3774,4.2793,17.42c1.4602,5.943-2.1533,11.9122-8.0953,13.3724Z"/><path class="cls-1" d="M1352.52681,381.4036l8.4321-2.0725c4.6785-1.1496,9.3608,1.7172,10.5115,6.3976.7846,3.1939-.3038,6.455-2.5953,8.5148l8.547,10.8979-6.1659,1.5147-7.8539-10.0042-1.1156.2735,2.7666,11.2542-5.6091,1.3784-6.9174-28.1544ZM1363.72361,390.5863c1.5595-.3836,2.5115-1.9567,2.1377-3.4792-.3836-1.5604-1.9567-2.5135-3.5161-2.1299l-2.8231.6941,1.3784,5.6081,2.8231-.6931Z"/><path class="cls-1" d="M1372.56841,376.4867l16.9752-4.1713,1.3862,5.6461-11.3661,2.7928,1.3784,5.6081,11.3661-2.7919,1.3862,5.6451-11.3661,2.7929,1.3784,5.609,11.3662-2.7928,1.3881,5.6461-16.9752,4.1703-6.9174-28.1544Z"/><path class="cls-1" d="M1274.25871,501.182l5.6091-1.3784,6.9174,28.1544-5.6091,1.3784-6.9174-28.1544Z"/><path class="cls-1" d="M1284.52291,507.6428c-1.1506-4.6804,1.7074-9.3997,6.3508-10.5406,3.267-.8031,6.5495-.4273,9.3842.8459l-3.0547,5.0426c-1.5089-.5345-3.2339-.662-4.9432-.2424-1.5595.3835-2.5116,1.9566-2.13,3.5171.1655.6678.5802,1.2353,1.1176,1.6549,1.137.7846,2.6302.6142,4.0612.3416,4.661-.9092,8.9734,1.4184,10.1415,6.1728,1.1409,4.6434-1.7172,9.3627-6.3606,10.5036-3.7887.9306-7.5696.2842-10.6885-1.5089l2.9982-4.951c1.8691,1.0367,4.0846,1.3989,6.3139.8508,1.5225-.3738,2.4745-1.9469,2.091-3.5074-.2103-.8537-.7535-1.6266-1.6432-1.8807-1.5284-.4507-3.7031.3193-5.1964.332-3.9055-.0254-7.4664-2.6556-8.4418-6.6303Z"/><path class="cls-1" d="M1219.19011,630.104c1.9061,7.7644-2.8561,15.6299-10.6185,17.5359-7.7643,1.908-15.6298-2.8541-17.5378-10.6185-1.9061-7.7623,2.8561-15.6279,10.6185-17.5359,7.7643-1.906,15.6298,2.8562,17.5378,10.6185ZM1196.64291,635.645c1.1506,4.6784,5.8699,7.5365,10.5503,6.3878,4.6434-1.1409,7.4995-5.8602,6.3509-10.5406-1.1409-4.6434-5.8603-7.5015-10.5037-6.3606-4.6804,1.1506-7.5384,5.87-6.3975,10.5134Z"/><path class="cls-1" d="M1235.94341,640.927c-5.944,1.4602-11.9132-2.1533-13.3734-8.0973l-4.2794-17.4191,5.6091-1.3784,4.2794,17.4211c.6931,2.823,3.5628,4.5596,6.3858,3.8665,2.8231-.695,4.5597-3.5628,3.8666-6.3859l-4.2812-17.421,5.609-1.3784,4.2794,17.421c1.4601,5.944-2.1533,11.9113-8.0953,13.3715Z"/><path class="cls-1" d="M1257.33421,611.8147l5.5312,22.5083-5.6461,1.3882-5.5312-22.5103-7.9123,1.945-1.3862-5.6461,21.4687-5.2762,1.3881,5.6461-7.9122,1.945Z"/><path class="cls-1" d="M1292.57541,603.1684l5.5311,22.5084-5.646,1.3881-5.5312-22.5103-7.9123,1.945-1.3862-5.6461,21.4687-5.2761,1.3881,5.646-7.9122,1.945Z"/><path class="cls-1" d="M1301.69671,594.9505l5.609-1.3784,2.7647,11.2551,10.2524-2.5193-2.7665-11.2552,5.609-1.3784,6.9175,28.1564-5.6091,1.3764-2.7646-11.2532-10.2525,2.5194,2.7665,11.2532-5.609,1.3784-6.9174-28.1544Z"/><path class="cls-1" d="M1325.76451,589.0474l16.9752-4.1703,1.3862,5.6441-11.3661,2.7939,1.3784,5.609,11.3661-2.7938,1.3862,5.6461-11.3661,2.7938,1.3784,5.6071,11.3661-2.7919,1.3882,5.6461-16.9752,4.1703-6.9174-28.1544Z"/><path class="cls-1" d="M1345.34661,584.2424l8.4321-2.0715c4.6785-1.1506,9.3608,1.7172,10.5114,6.3956.7846,3.1949-.3037,6.456-2.5952,8.5158l8.547,10.897-6.1659,1.5147-7.8539-10.0033-1.1156.2745,2.7666,11.2532-5.6091,1.3784-6.9174-28.1544ZM1356.54331,593.4241c1.5595-.3816,2.5116-1.9567,2.1377-3.4792-.3835-1.5594-1.9566-2.5115-3.5161-2.1279l-2.823.6931,1.3784,5.609,2.823-.695Z"/><path class="cls-1" d="M1365.40771,579.3225l16.9751-4.1703,1.3862,5.6442-11.3661,2.7938,1.3785,5.6091,11.3661-2.7939,1.3862,5.6461-11.3661,2.7938,1.3784,5.6072,11.3661-2.7919,1.3881,5.646-16.9751,4.1703-6.9174-28.1544Z"/><path class="cls-1" d="M1187.16141,539.0077c-1.3298,0-2.5427-.8917-2.8932-2.239-.4147-1.5984.5452-3.2309,2.1436-3.6456l70.9399-18.4246c1.5887-.4215,3.2299.5431,3.6466,2.1425.4147,1.5985-.5452,3.231-2.1436,3.6457l-70.9399,18.4256c-.2511.0642-.5042.0954-.7534.0954Z"/><path class="cls-1" d="M1321.83371,503.8872c-1.3298,0-2.5427-.8936-2.8932-2.2399-.4147-1.5984.5452-3.2309,2.1436-3.6456l70.9399-18.4247c1.5887-.4196,3.2299.5432,3.6466,2.1426.4147,1.5984-.5452,3.2309-2.1436,3.6456l-70.9399,18.4247c-.2511.0662-.5042.0973-.7534.0973Z"/><path class="cls-1" d="M755.02629,676.6276c-.6619,0-1.3141-.22-1.8456-.6366-.7223-.5685-1.1448-1.4349-1.1448-2.3538v-72.6746c0-1.3765.9403-2.5758,2.2779-2.9048l258.09722-63.3158c.8917-.2142,1.836-.0156,2.5583.551.7223.5685,1.1448,1.4349,1.1448,2.3538v72.6746c0,1.3765-.9404,2.5758-2.2779,2.9048l-258.09732,63.3158c-.2356.0564-.475.0856-.7126.0856ZM758.01679,603.3086v66.5165l252.11632-61.8497v-66.5165l-252.11632,61.8497ZM1013.12361,610.3214h.0195-.0195Z"/><path class="cls-1" d="M1013.12161,582.3442c-1.3453,0-2.5679-.9131-2.9028-2.2779-.3933-1.6043.588-3.2241,2.1922-3.6174l28.8203-7.0693-13.7628-29.0538c-.3485-.736-.3816-1.5829-.0935-2.3441l13.3072-34.9842-64.3379,15.7836v28.6217c0,1.651-1.3394,2.9905-2.9904,2.9905s-2.9905-1.3395-2.9905-2.9905v-30.9677c0-1.3765.9404-2.5758,2.2779-2.9048l72.1489-17.6994c1.0747-.2648,2.2156.0915,2.9535.9248.7359.8313.9501,2.0033.5549,3.043l-14.8803,39.1175,14.7868,31.213c.3855.8119.3836,1.7542-.0019,2.566-.3855.81-1.1156,1.4057-1.9878,1.6199l-32.3792,7.9434c-.2395.0584-.479.0857-.7146.0857Z"/><path class="cls-1" d="M1013.12161,540.6373c-.475,0-.9578-.113-1.4056-.3524l-39.7698-21.2117c-1.4562-.7768-2.0092-2.5875-1.2304-4.0457.7768-1.4583,2.5913-2.0092,4.0457-1.2305l39.7697,21.2117c1.4563.7768,2.0073,2.5875,1.2305,4.0457-.5374,1.0085-1.5712,1.5829-2.6401,1.5829Z"/><path class="cls-1" d="M723.14159,716.6543c-.8459,0-1.6655-.3601-2.2409-1.0104-.7359-.8313-.9491-2.0034-.5539-3.043l14.8784-39.1175-14.7859-31.2131c-.3845-.8118-.3845-1.7541.002-2.566.3855-.8099,1.1156-1.4057,1.9878-1.6198l30.07992-7.3789c1.60418-.3952,3.22408.588,3.61738,2.1923.3932,1.6042-.588,3.2241-2.1923,3.6173l-26.5209,6.5047,13.76282,29.0539c.34848.7359.38158,1.5828.09338,2.3441l-13.3072,34.9842,64.3379-15.7837v-28.6236c0-1.651,1.3395-2.9905,2.9905-2.9905s2.9905,1.3395,2.9905,2.9905v30.9696c0,1.3765-.9404,2.5758-2.2779,2.9048l-72.149,17.6995c-.2365.0584-.476.0856-.7126.0856Z"/><path class="cls-1" d="M795.28859,698.9549c-.475,0-.9578-.1129-1.40558-.3524l-39.76782-21.2117c-1.4563-.7768-2.0073-2.5874-1.2305-4.0457.7749-1.4563,2.5914-2.0073,4.0457-1.2304l39.7678,21.2117c1.4563.7768,2.0073,2.5874,1.2305,4.0457-.5374,1.0085-1.5712,1.5828-2.6401,1.5828Z"/><path class="cls-1" d="M789.54909,622.9258l5.7512,23.4506-5.8816,1.4427-5.7512-23.4507-8.2413,2.0229-1.4427-5.8817,22.3643-5.4864,1.4446,5.8817-8.2433,2.0209Z"/><path class="cls-1" d="M799.04419,614.3632l8.7826-2.1552c4.877-1.1954,9.7521,1.7931,10.9495,6.6682.81572,3.3272-.32128,6.7246-2.7082,8.8682l8.8994,11.3564-6.4249,1.575-8.177-10.4257-1.1604.2862,2.8756,11.7243-5.8427,1.4329-7.1939-29.3303ZM810.70428,623.9323c1.6238-.3991,2.61672-2.0365,2.2273-3.6232-.3972-1.6257-2.0365-2.6186-3.6621-2.2195l-2.9399.7223,1.4329,5.8427,2.9418-.7223Z"/><path class="cls-1" d="M847.54388,633.5598l-4.98988-7.4722-9.01622,2.2117-.9676,8.9344-6.2301,1.5283,3.409-31.9314,6.2282-1.5284,17.7968,26.7312-6.2302,1.5264ZM834.96101,614.7l-.73792,7.1958,4.7583-1.1662-4.02038-6.0296Z"/><path class="cls-1" d="M863.21658,629.7166l-17.7967-26.7292,6.23012-1.5284,12.54588,18.8696,2.4279-22.5434,6.2301-1.5283-3.4071,31.9314-6.2302,1.5283Z"/><path class="cls-1" d="M874.80858,595.774l17.6839-4.3377,1.4426,5.8816-11.84108,2.9048,1.43288,5.8427,11.8412-2.9048,1.4426,5.8817-11.8411,2.9048,1.4329,5.8427,11.8412-2.9048,1.4426,5.8816-17.6838,4.3378-7.1939-29.3304Z"/><path class="cls-1" d="M895.22401,590.7665l5.84268-1.4329,5.7512,23.4487,10.6808-2.6205,1.4427,5.8816-16.5235,4.0535-7.19388-29.3304Z"/><path class="cls-1" d="M914.43428,586.055l5.84272-1.4329,7.1938,29.3303-5.84273,1.4329-7.1938-29.3303Z"/><path class="cls-1" d="M941.54901,579.4063l5.8427-1.433,7.1939,29.3304-6.8104,1.6704-16.5566-16.6559,4.7934,19.5413-5.8427,1.4329-7.19393-29.3303,6.84933-1.6802,16.5254,16.7045-4.8011-19.5801Z"/><path class="cls-1" d="M975.86731,575.2924l-3.117,5.1944c-1.908-1.0903-4.254-1.4602-6.5377-.8995-4.8751,1.1954-7.8539,6.1114-6.6663,10.9476,1.1954,4.877,6.1095,7.8558,10.9845,6.6584,2.864-.7028,5.0776-2.7218,6.1796-5.2489l-7.042,1.7289-1.4427-5.8817,2.9009-.7125,5.8836-1.4427,5.8427-1.4329c.0467.1927.1324.3777.1811.5704,1.9819,8.0875-2.9827,16.2802-11.0683,18.2621-8.0875,1.9839-16.2801-2.9807-18.264-11.0682-1.982-8.0856,2.9826-16.2782,11.0682-18.2621,3.9094-.9579,7.848-.2843,11.0974,1.5867Z"/><path class="cls-1" d="M1168.55691,338.5494c-.638,0-1.2667-.2121-1.7791-.6137-.6962-.548-1.1034-1.3831-1.1034-2.2689v-54.3469c0-1.3268.9064-2.4828,2.1957-2.8l193.0074-47.3487c.8614-.2064,1.7697-.015,2.466.5311.6962.548,1.1035,1.3831,1.1035,2.2689v54.3469c0,1.3268-.9065,2.4828-2.1958,2.8l-193.0074,47.3487c-.2271.0544-.4579.0826-.6869.0826ZM1171.43951,283.5813v48.4109l187.2423-45.9355v-48.4109l-187.2423,45.9355ZM1361.56441,288.3181h.0187-.0187Z"/><path class="cls-1" d="M1361.56251,268.0424c-1.2968,0-2.4753-.8802-2.7981-2.1957-.3791-1.5464.5667-3.1078,2.1131-3.4869l20.7843-5.0989-9.9521-21.0114c-.3359-.7094-.3678-1.5257-.0901-2.2595l9.5129-25.0106-46.4253,11.3896v20.8988c0,1.5914-1.2912,2.8826-2.8826,2.8826s-2.8826-1.2912-2.8826-2.8826v-23.1602c0-1.3268.9064-2.4828,2.1957-2.8l53.9546-13.2362c1.0379-.2534,2.1357.0882,2.847.8914.7094.8013.9158,1.9311.5348,2.9333l-11.0292,28.9947,10.9391,23.0926c.3716.7826.3698,1.6909-.0018,2.4735-.3716.7807-1.0754,1.3549-1.9161,1.5614l-24.2149,5.9415c-.2308.0563-.4616.0826-.6887.0826Z"/><path class="cls-1" d="M1361.56251,236.8538c-.4579,0-.9233-.1088-1.355-.3397l-29.7398-15.8636c-1.4037-.7488-1.9348-2.4941-1.186-3.8997.7469-1.4056,2.4978-1.9367,3.8997-1.1861l29.7398,15.8636c1.4038.7488,1.9349,2.4941,1.1861,3.8998-.518.9721-1.5145,1.5257-2.5448,1.5257Z"/><path class="cls-1" d="M1144.71371,368.4806c-.8145,0-1.6046-.3472-2.1601-.974-.7094-.8014-.9158-1.9311-.5348-2.9333l11.0292-28.9947-10.9392-23.0926c-.3715-.7826-.3697-1.6909.0019-2.4735.3716-.7807,1.0754-1.3549,1.9161-1.5614l22.4939-5.5174c1.5445-.3791,3.1059.5667,3.4869,2.1131.3791,1.5464-.5667,3.1078-2.1131,3.4869l-19.0634,4.6748,9.9521,21.0114c.3359.7094.3678,1.5257.0901,2.2595l-9.513,25.0105,46.4254-11.3895v-20.8969c0-1.5914,1.2912-2.8826,2.8826-2.8826s2.8826,1.2912,2.8826,2.8826v23.1583c0,1.3268-.9064,2.4828-2.1957,2.8l-53.9547,13.2362c-.227.0563-.4579.0826-.6868.0826Z"/><path class="cls-1" d="M1198.66641,355.2443c-.4579,0-.9233-.1088-1.3549-.3396l-29.7398-15.8618c-1.4038-.7488-1.9349-2.4941-1.1861-3.8997.7469-1.4056,2.496-1.9349,3.8998-1.1861l29.7398,15.8618c1.4037.7488,1.9348,2.4941,1.186,3.8997-.5179.9721-1.5145,1.5257-2.5448,1.5257Z"/><path class="cls-1" d="M1199.33641,315.1209l-3.7327-5.5888-6.7429,1.6534-.7244,6.681-4.6598,1.1429,2.5504-23.8827,4.6598-1.141,13.3094,19.9923-4.6598,1.1429ZM1189.92481,301.0138l-.5517,5.3824,3.5601-.8727-3.0084-4.5097Z"/><path class="cls-1" d="M1200.07211,291.6811l6.1348-1.5051c6.0486-1.4826,12.176,2.2314,13.6585,8.2799,1.4845,6.0486-2.2295,12.1759-8.2799,13.6585l-6.1349,1.5051-5.3785-21.9384ZM1210.50831,307.7155c3.6464-.8933,5.8534-4.5341,4.9582-8.1805-.8877-3.6182-4.5341-5.8534-8.1805-4.9601l-1.7659.4336,3.2222,13.1405,1.766-.4335Z"/><path class="cls-1" d="M1230.46681,307.4828l-13.3094-19.9942,4.6598-1.141,9.3815,14.1145,1.8185-16.862,4.6598-1.141-2.5504,23.8808-4.6598,1.1429Z"/><path class="cls-1" d="M1239.11831,282.1006l13.2269-3.2429,1.0772,4.4008-8.8561,2.1714,1.0716,4.3689,8.8561-2.1713,1.0791,4.3989-8.8561,2.1713,1.0716,4.3708,8.8561-2.1713,1.0791,4.3989-13.2269,3.243-5.3786-21.9385Z"/><path class="cls-1" d="M1268.31011,274.9411l4.3708-1.0697,5.3786,21.9365-5.0933,1.2499-12.3824-12.4593,3.5845,14.6156-4.3708,1.0716-5.3786-21.9384,5.1215-1.2555,12.3617,12.4949-3.592-14.6456Z"/><path class="cls-1" d="M1286.30191,275.1907l4.2995,17.5395-4.399,1.0791-4.3013-17.5395-6.1631,1.5126-1.0791-4.4008,16.7288-4.1006,1.0772,4.399-6.163,1.5107Z"/><path class="cls-1" d="M1307.15181,288.669c-4.6316,1.1354-9.2802-1.6815-10.4156-6.3131l-3.3273-13.5741,4.3708-1.0697,3.3273,13.5722c.5386,2.1995,2.7738,3.5544,4.9732,3.0158,2.1995-.5405,3.5545-2.7737,3.014-4.9732l-3.3274-13.574,4.3708-1.0716,3.3274,13.574c1.1354,4.6298-1.6834,9.2783-6.3132,10.4137Z"/><path class="cls-1" d="M1312.19641,264.1746l6.5702-1.6102c3.6464-.8952,7.2928,1.3399,8.1861,4.9863.6118,2.4904-.2383,5.0295-2.0231,6.6341l6.6529,8.4939-4.8043,1.1766-6.1143-7.7957-.8689.2121,2.1507,8.7697-4.3708,1.0716-5.3785-21.9384ZM1320.91541,271.3322c1.2161-.2965,1.9593-1.522,1.6684-2.7099-.2984-1.2142-1.5239-1.9574-2.74-1.659l-2.1994.5386,1.0716,4.3708,2.1994-.5405Z"/><path class="cls-1" d="M1327.80471,260.3461l13.2269-3.2429,1.0772,4.399-8.8561,2.1713,1.0716,4.3708,8.8561-2.1713,1.0791,4.3989-8.8561,2.1713,1.0716,4.3708,8.8561-2.1713,1.0791,4.3989-13.2269,3.243-5.3786-21.9385Z"/></g></svg>