<?xml version="1.0" encoding="UTF-8"?><svg id="_レイヤー_2" xmlns="http://www.w3.org/2000/svg" viewBox="0 0 1529.86865 1167.72681"><defs><style>.cls-1{fill:#fff;fill-rule:evenodd;stroke-width:0px;}.cls-2{fill:none;stroke:#000;stroke-miterlimit:2.61313;stroke-width:2.40009px;}</style></defs><g id="_レイヤー_1-2"><polygon class="cls-1" points="0 0 1529.86865 0 1529.86865 1167.72681 0 1167.72681 0 0 0 0"/><path class="cls-2" d="M1519.38037,1106.44019s-418.2832-2.00195-506.59766-4.26172c-40.7168-1.03906-30.55957-119.50342-27.45312-146.31543,1.97363-17.05273,31.27441,8.38281,41.88379-9.7959,4.21777-7.22363,10.1377-19.76758,14.18164-28.60938,14.42285-31.53857,74.40137-105.08252,77.6377-121.26318.71289-3.56494,4.58984-8.0918,8.10938-10.51514,5.09082-3.50342,17.55371-1.28906,12.90625,7.96045-1.62988,3.24463-4.49512,7.03418-6.53125,9.15186-4.33691,4.51611-14.85352-.09717-11.36914-1.95459,3.91602-2.08691,13.69824,5.07178,14.96582,20.54541,1.26953,15.47412-1.77441,20.29395-3.55176,25.11475-.47656,1.29639-.9541,2.2085-1.3584,2.94629-1.7666,3.22998,1.99414,14.89111.08984,24.95703-1.77637,9.38574-4.56641,2.02881-11.16211,8.87842-6.59473,6.84961-.50781,14.20703-2.28223,18.77246-1.77637,4.56592-14.96777,2.79053-16.49023,7.61084-5.66309,17.9375-4.66699,11.30908-26.38379,16.99609-10.65332,2.79053-13.95117,2.28271-20.29395,3.55127-20.76172,4.15381-12.58691-17.11523-.58887-16.66943,7.71094.28906,18.04492,2.60742,15.80664,5.25391-1.9873,2.34961-6.93848-2.89844-10.62891-6.84521-9.30078-9.9375-27.11621-19.80469-38.58691-28.66992-10.42773-8.05664-23.18945-30.08154,1.0791-20.59717,8.94922,3.49658,19.34375,9.77539,21.49805,11.21143,2.28125,1.52197,22.06934,13.69824,25.62012,15.98096,3.55176,2.28271,23.8457,11.92383,16.74316,12.43018-5.67285.40527-4.87305-5.33984-7.29297-9.86523-2.49512-4.66699-27.42578-18.3916-32.91504-20.83008-.87988-.39014-11.5459-7.85742-18.36914-12.07715-19.38672-11.99316-11.30078-30.39551-.53223-26.35645,4.05957,1.52295,24.22461,12.43018,27.01562,13.95361,2.79004,1.52246,30.16406,16.3584,33.08105,18.26123,2.91699,1.90332,9.1543,4.9502,10.93066,5.96484,1.77539,1.01465,7.35645,7.86426,2.66309,7.48389-5.27344-.42725-.06641-10.35352-8.37012-14.69336-8.63086-4.50879-38.53613-22.37598-41.0957-22.7251-1.77539-.2417-9.14746-4.18262-14.86523-7.50684-28.64648-16.65625-.31836-24.55273,22.34668-20.01953,5.07422,1.01465,42.65527,16.97363,47.22168,23.57031,4.56641,6.59521,18.9873,13.72021,11.88379,14.48145-7.14648.76465-2.53125-12.12012-10.41699-18.58594-6.31934-5.17871-21.55078-18.24316-29.87402-27.04346-13.38672-14.15527-7.62305-25.4624,11.80859-18.00146,7.12598,2.7373,15.15723,6.6958,19.71094,8.50342,3.44531,1.36865,3.18555.8877,5.74023-2.4541,12.31152-16.09863,53.38379-86.84961,68.66797-117.35498,7.92773-15.82471,9.23633-15.21582-5.31152-17.3291-37.69629-5.4751-160.23535-20.63867-184.7793-23.66699-10.20801-1.25928-7.31836,27.7793-4.12793,28.16406l151.90918,18.30859c11.26953,1.93262,21.53613-21.76318,5.26562-23.14844l-153.35156-19.34814c-17.99121-1.73926-36.625-4.2959-54.4043-5.83154-1-.08594-1.79492-.00586-2.05664.41016-.03418.0542-.07031.11328-.10449.17383M937.12256,634.53296s-73.03906,125.78711-110.17285,190.13818c-19.79395,34.30029-32.51855,62.26123-47.43799,97.95947-4.36328,10.43799-10.66309,8.24121,8.06787,9.88574l177.18262,15.55762c19.75195,2.07275,17.02832,3.90234,17.00586-13.0542-.0498-37.94092,6.11035-147.90674,11.50195-243.75293,3.51074-62.40625,35.49316-172.81104-36.42676-182.80859-23.54688-3.27295-52.4082-3.14941-75.5918-15.24438-23.33789-12.17578-26.25-33.30884-15.5957-26.71313,5.95996,3.68945,7.27441,16.68896,7.54199,29.02637.76074,35.00195-2.89453,65.75439-6.0918,99.31299-3.37988,35.52881-13.75195,61.2876-24.41797,95.22754-11.92871,37.9585-18.37695,18.63184-41.60449,25.11523-18.62109,5.19678-22.16162,34.68799-.25488,40.5874,16.56348,4.45996,35.00781-6.29688,35.00781-23.08447,0-5.07373-6.84961-17.25049-8.11719-8.87939-1.26855,8.37109,19.02441,15.2207,16.99609,27.39746-4.78809,28.74121-24.58008,34.43457-50.7373,28.1582-15.8999-3.81592-24.51904-27.74463-21.81592-42.61816,1.52148-8.37109,9.38525-16.23486,16.23486-21.30859,13.79492-10.2251,24.59277-1.07666,34.10352-18.90186,19.86816-37.22607,32.27441-78.99463,33.34277-121.51709.5127-20.47754,1.96191-55.08252-.43555-78.70581-4.63086-45.65503-73.45898-78.38965-71.07715-42.67505.69727,10.46094,1.50098,20.49609,2.02148,29.46924,2.32617,40.20264-13.61865,69.9917-31.19482,106.23291-12.43262,25.63477-24.60742,45.92871-25.11621,59.12012-.50684,13.19092-2.02734,42.11133,9.63965,35.51514,9.71582-5.49072-3.07715-36.30615-14.95312-52.91113-14.88574-20.81543-30.33789-38.33203-45.40625-59.98438-19.02344-27.3418-36.42871-69.24365-50.75488-99.68799-6.49512-13.80103-10.82422-27.02539-13.45117-36.36011-6.76562-24.04785-92.08301,6.10791-82.68164,56.8501,3.28613,17.74976,11.41895,51.01147,16.67383,66.06763,4.66016,13.35742,10.06641,12.979,16.70703,11.88818,16.87207-2.771,36.25293,5.68018,42.4209,22.29004,3.77832,10.17139,6.97461,18.1792,8.96777,23.87842,7.34082,21.00732-8.60156.39014-4.0459,19.44531,1.82129,7.60498,6.05371,20.3667,9.65527,31.11572,6.97266,20.81152,20.17871,66.54199,21.93262,91.24756,1,14.11328-5.45898,34.38086-17.39062,43.43311-5.38672,4.08252-17.08398,8.94971-25.92676,11.16064-8.05664,2.01221-24.91016-.66016-31.62207-.70312-7.04297-.04346-4.62207,9.23828-10.54785,11.67383-4.98633,2.05127-14.31445.26172-19.52832-.15479-14.30273-1.14111,3.08594-27.49951,18.1377-16.86963,2.15723,1.52246,3.67871,4.3125,2.91895,8.49854-.76172,4.18555,4.94727,5.70752,10.90723,6.3418,3.8623.41113,19.47852-1.14795,31.79785-2.98535,31.76367-4.73779,46.58105-25.07861,48.91895-53.87744,2.25488-27.83398-18.20996-81.68066-23.26367-110.31152-1.53516-8.70654-3.47559-24.43213-13.06348-23.46826-9.31641.93555-9.375-6.07715-11.74023-13.0127-2.77734-8.1499-6.97266-19.6626-11.3877-27.46191-11.76953-20.80713-68.87109-4.94092-67.0957,22.4751.58008,8.95312,3.97461,19.39062,5.71973,26.23242,4.30566,16.88818-9.24805,6.30908-6.56445,21.8999,4.96094,28.83203,13.04492,67.46484,23.31836,93.15088,8.98438,22.45898,23.73145,42.73047,31.74902,50.4292,24.25,23.30029,66.82617,17.08105,87.35254-7.85156,7.34473-8.92969.13965-6.29834,2.02637-12.13672,1.39551-4.31201,7.73828-9.63916,11.41699-9.25879,9.07812.93896,4.70898,10.76855-1.01562,15.34766-3.80469,3.04395-3.625-4.73389-7.10254-5.07373-3.47559-.33984-10.27441,3.29883-11.41602,4.18652-25.80762,20.06641-33.15918,27.74316-60.7998,18.74854-23.74902-7.72803-31.05664-25.771-39.0166-45.99658-10.06738-25.57812-20.90918-58.57031-26.14551-84.75293-.63184-3.16016-1.21484-9.96387-1.7793-15.07373-1.63477-14.80908-8.63672,5.4082-10.39844-11.31055-.25488-2.40869-7.49023-33.61426-4.9541-47.3125,7.32422-39.55566,47.23535-19.78467,39.18066-49.32959-4.48926-16.46924-13.37402-47.10449-16.76953-62.83398-2.42578-11.23413-1.23926-25.2478,11.70508-29.42383,6.0332-1.94678,25.27832-11.33862,35.97168-14.46045,12.7832-3.73047,19.03027,31.02173,25.29297,56.44775,10.36621,42.1001,47.30957,121.68066,66.45312,159.97021,19.17188,38.34521,49.5,64.23291,74.8125,28.46826,19.5-27.55518,42.37354-129.875,49.99658-165.45654,16.11719-75.22607-8.84668-87.36206-22.72461-103.41846-12.30713-14.23779-15.27881-32.73535-3.03564-47.61475,19.53955-23.75732,36.98584-85.08716,41.53467-128.72412,2.60547-25.00171-6.77148-53.43701-22.78516-76.21216-20.95166-29.79907-68.26416-46.52856-81.93604-55.33008-6.74609-4.34302-6.13867-30.43335-3.90527-45.64575,2.41211-16.42896,9.0293-23.1272,27.08984-17.21191,12.71777,4.16479,41.15918,21.78467,54.86865,34.6792,20.97754,19.72949-14.12354,30.06616-15.04248,20.87646-1.02344-10.25073,31.73877-17.73535,46.75049,13.62988,22.24707,46.46558,35.5,84.16797,40.05664,132.99219,3.79395,40.68457-12.22266,20.44727-20.5957,2.38086-4.77246-10.29785-7.0625-19.89282-1.7832-17.09082,15.44629,8.19653,19.14258,25.5249,22.94238,42.0083,11.69434,50.72046,14.49121,135.39014,28.80273,172.60132,10.14746,26.38281,106.03809,63.41919,66.97168,35.00806-29.64844-21.56152-48.08008-16.95093-62.20312-16.48389-25.41602.83984-61.56543-30.64966-78.32227-58.44189-10.65527-17.67432-16.36328-56.56836-12.06641-79.39746,3.86328-20.53345,13.04883-45.75928,17.49219-69.28174,13.3623-70.73706-61.521-171.27734-135.84814-156.41309-12.95215,2.59033-38.64258,17.09985-59.74609,33.24658-39.91602,30.53906-40.73145,51.29565-37.16895,101.20215.41504,5.8125,7.62402,67.00952,7.72754,101.56104.21387,73.62988-134.41992,113.01416-113.26172,126.23804,8.94727,5.59131,20.97461-2.37549,30.56641-14.39111,7.81348-9.78882,14.00977-22.26416,15.60352-32.28613,2.85449-17.93335,7.01465-43.07275,8.40918-57.00073,2.22754-22.2478,23.24023-40.54541,22.53613-26.46094-.55176,11.04077-22.37012,22.77173-20.0957-5.90479,1.40527-17.70679,5.18848-50.35303,6.60742-67.1084,2.37207-28.06787,24.28906-28.70605,23.88477-16.79028-.36719,10.86646-30.26172,15.20703-23.61523-16.88867,16.19922-78.2085,48.96582-169.03296,138.2666-184.78809,2.79492-.49365,5.29785-.5332,7.41992-.1814,7.93457,1.31641,9.31543,18.87671,8.86816,34.94653-.43555,15.58594,3.3916,25.74194-9.42383,29.37402-23.38086,6.62451-53.16211,21.93848-73.16895,40.80566-17.5752,16.57324-21.67969,40.40063-22.44629,64.45776-1.05371,33.12622,2.34668,85.00171,11.46777,119.60913,8.8252,33.48096,25.20703,58.22021,59.64453,70.19897,18.88477,6.56909,46.62891,2.0625,65.54883-4.83276,64.94482-23.67285-34.54102-25.04541-90.51758-11.05078-39.0293,9.75708-70.95703,44.46289-104.55078,69.03882-7.05176,5.15918-14.11914,10.12036-21.3584,14.23511-25.12891,14.28467-80.95996,14.30396-90.45703,39.74976-5.88379,15.76611-13.44531,50.44043-19.43359,77.10205-19.42578,86.50879-43.8916,229.72363-34.04688,326.26025,4.56836,44.80127,21.71289,69.87842,58.04395,91.94287,3.7002,2.24609,10.94336,6.98975,14.61816,8.05176M450.49219,1020.25806s51.54297,13.22412,91.45215,20.97314c24.70996,4.79883,173.52148,20.32715,166.55859-23.06445-1.40527-8.75781-6.66602-24.1665-6.66602-46.89014,0-16.03711,3.07617-70.47656,14.27441-83.52588,5.83594-6.79834,16.52148-18.67285,19.50781-31.36963,4.05859-17.25049,19.78613-21.81641,24.60547-23.08496,8.0791-2.12598,24.09424-5.2666,36.69775-4.56641,33.30859,1.85156,9.75781,23.60986-6.25488,30.94873-6.08984,2.79102-21.31006,17.75635-21.31006,8.87744,0-6.34229,9.06348-2.19678,15.99756.22461,9.73633,3.39746,24.53223-3.72168,35.49902-5.55127,1.52148-.25342,33.73828-6.8501,42.87012-9.89355,9.3584-3.11963,38.69727-6.32666,35.51465,10.6543-.75977,4.05957-10.06836,9.56885-18.44043,13.11914-19.74023,8.375-46.18945,18.2583-66.79492,23.41064-13.19043,3.29785-27.90527,7.86377-34.49951,8.37158-6.59668.50732-9.89453,6.84863-7.86426-.25391,1.67969-5.87549,10.64697-.46729,20.30127.71436,15.53516,1.9043,67.08301-20.34082,86.49805-25.3208,9.89258-2.53711,15.72852-4.56592,23.84473-5.83447,10.29492-1.60938,23.23828,9.41064,5.58105,17.50244-6.08789,2.79053-30.44238,13.19141-34.50098,14.96729-4.05762,1.77539-81.17578,29.68115-87.77246,31.20312-6.59424,1.52148-11.6665,10.40039-10.39893,1.52148,1.0625-7.44141,9.61084-2.05127,16.08252-.71045,5.97949,1.23682,32.29297-7.97656,39.21777-10.45068,3.55176-1.26904,53.27246-22.83154,58.85352-24.60693,6.91797-2.20166,29.71582-9.92969,13.19043,6.59521-3.04395,3.04443-43.37891,28.41113-53.27246,32.72363-9.89258,4.31201-23.33887,11.41504-36.7832,14.45947-13.44531,3.04395-25.11523,13.69824-24.60645,6.59521.42676-5.98779,4.10156.646,11.17188,1.65869,6.3584.90723,23.17188-5.21875,29.16309-8,5.88184-2.73096,16.98145-11.20215,24.94629-12.59375,17.61621-3.07227-3.45996,12.39258-6.68262,14.62305-6.59473,4.56592-21.05371,12.9375-23.33789,14.71289-12.44238,9.67627-26.58105,21.54736-42.36475,14.46094-12.43066-5.58105-9.13281-7.10303-25.875-13.19092-16.74414-6.08936-15.72852-4.05859-24.10156-2.53711-12.04688,2.18994-24.25488,17.39941-23.96484-3.21533.05762-4.24316.74805-7.91992,1.13477-9.21484.53418-1.78271.52832-24.15039,2.33301-38.43408,2.55957-20.28809,6.74219-28.58594-20.35059-28.10596-29.56543.52393-108.17383,1.78125-126.83789-2.46094-15.64551-3.55566-33.5332-3.37402-42.83594-5.91553-9.93848-2.71484-8.37109-20.34473-10.05566-30.47607-7.40723-44.59619-22.36621-135.40283-23.70801-179.35547-1.93066-63.31543,15.87598,2.82959,17.63379,29.90918,5.80566,89.47363-3.70312,286.71924-8.10352,376.23975-1.94824,39.66113-8.5332,28.896-58.84766,29.24707-128.89551.89941-430.65918-1.33594-430.65918-1.33594"/></g></svg>