<?xml version="1.0" encoding="UTF-8"?><svg xmlns="http://www.w3.org/2000/svg" viewBox="0 0 1260.75804 843.00908"><defs><style>.cls-1{fill:#fdc0af;}.cls-1,.cls-2,.cls-3,.cls-4,.cls-5,.cls-6,.cls-7,.cls-8,.cls-9,.cls-10,.cls-11,.cls-12,.cls-13,.cls-14,.cls-15{stroke-width:0px;}.cls-2{fill:#fec5b1;}.cls-3{fill:#e6e6e6;}.cls-16{isolation:isolate;}.cls-4{fill:#00a99d;}.cls-5{fill:#1a1a1a;}.cls-6{fill:#2a2626;}.cls-7{fill:#e3b09a;}.cls-17{mix-blend-mode:soft-light;}.cls-8{fill:#dba47f;}.cls-9{fill:#201d29;}.cls-10{fill:#fff;}.cls-11{fill:#edb29c;}.cls-12{fill:#fdaa93;}.cls-13{fill:#ed9f8c;}.cls-14{fill:#fae3d5;}.cls-15{fill:#534741;}</style></defs><g class="cls-16"><g id="_レイヤー_2"><g id="hand_drawn_people_family"><path class="cls-8" d="M13.95554,270.31633c-13.0059,115.4767,10.1837,232.1905,15.2756,348.2858,3.4416,78.4693,29.4661,162.3536,70.322,217.7587l523.7571-96.6803c13.093-30.2721,5.8109-65.7802-8.3188-95.5826-14.1297-29.8025-34.6262-56.1772-49.5373-85.5964-60.5361-119.4367-25.0956-278.6398-110.7726-381.5437,0,0-71.604-80.338-208.9202-56.2342C108.44514,144.82743,19.15724,224.13173,13.95554,270.31633Z"/><path class="cls-9" d="M624.96724,676.52563c-4.9632-21.5702-13.6799-42.1273-23.6527-61.8171-10.0715-19.8846-21.7216-38.8879-32.3883-58.447-10.7103-19.639-20.741-39.9409-27.3439-61.3746-6.3409-20.5834-9.4752-42.2691-6.3551-63.7171.4019-2.7624.9079-5.5071,1.498-8.2352.3833-1.7728-1.3699-3.5054-3.0234-3.6622-1.9841-.1876-3.2772,1.244-3.6621,3.0234-4.6175,21.3523-3.0617,43.4975,2.3309,64.5532,5.5693,21.7456,14.7746,42.385,25.1213,62.2373,10.2809,19.7262,21.9572,38.6736,32.4369,58.2898,10.3086,19.2958,19.791,39.3022,25.8518,60.3811,5.87,20.4158,8.4409,41.8477,4.8374,62.9165-.4298,2.5126-.9407,5.0098-1.5479,7.4854-.4315,1.7595.1449,3.6344,1.9804,4.3158,1.5481.5747,3.8815-.2104,4.3156-1.9805,5.1692-21.077,4.4496-42.897-.3989-63.9688Z"/><path class="cls-9" d="M106.90754,830.15313c-17.1943-6.8914-25.6843-25.5087-32.3261-41.5241-9.0381-21.7933-16.3148-44.2773-22.111-67.1415-5.7985-22.8727-10.1457-46.0989-13.4158-69.4629-3.305-23.6136-5.5131-47.3714-7.0099-71.165-1.4866-23.6303-2.26-47.2986-2.6906-70.9698-.0536-2.9457-.1016-5.8913-.1456-8.8369-.027-1.8106-1.0789-3.478-3.0234-3.6619-1.6506-.1563-3.6893,1.1998-3.662,3.0234.3627,24.2596,1.0345,48.5189,2.3835,72.7452,1.3506,24.2525,3.3914,48.4755,6.5276,72.5654,3.1036,23.8387,7.2828,47.5509,12.9366,70.9217,5.6573,23.3849,12.7877,46.4449,21.6833,68.806,6.9532,17.4783,15.1017,37.568,31.9921,47.7457,2.0827,1.255,4.2693,2.3461,6.5259,3.2506,4.0221,1.6121,6.3426-4.69,2.3354-6.2959Z"/><path class="cls-9" d="M78.78864,557.39633c-1.6156-.153-3.7333,1.1997-3.662,3.0233,1.4369,36.8229,5.4837,73.5142,12.279,109.7366,1.9076,10.1689,4.0301,20.2962,6.3545,30.3778.967,4.1944,7.586,3.0597,6.613-1.1608-8.1606-35.3948-13.7597-71.3709-16.702-107.5759-.8315-10.2316-1.4589-20.4814-1.8592-30.7392-.0706-1.8092-1.0483-3.4749-3.0233-3.6618Z"/><path class="cls-9" d="M570.50484,637.60913c-15.7201-30.781-34.8747-59.6996-49.7566-90.9244-8.2365-17.2815-15.103-35.2327-19.0463-54.0044-.8864-4.2194-7.5034-3.0778-6.613,1.1608,7.0964,33.7816,23.1868,64.6038,40.1361,94.3577,17.0922,30.005,35.2892,59.691,46.7466,92.4453,6.3488,18.1499,10.4279,37.2867,10.4841,56.5694.0053,1.8111,1.0941,3.4793,3.0234,3.6619,1.6682.158,3.6673-1.2003,3.662-3.0233-.1032-35.4246-12.7188-69.0758-28.6363-100.243Z"/><path class="cls-9" d="M501.30694,560.01803c-7.0898-13.88-12.2764-28.607-15.3969-43.8781-.8635-4.226-7.48-3.0824-6.613,1.1609,3.2344,15.8284,8.5923,31.2065,15.9417,45.5946,1.9596,3.8363,8.0414.9856,6.0682-2.8774Z"/><polygon class="cls-14" points="358.65214 699.32113 222.14884 699.32113 223.33704 543.15793 358.65214 543.15793 358.65214 699.32113"/><path class="cls-4" d="M497.78144,660.81933c-22.7343-31.8323-55.3525-45.3599-98.04-58.5852-14.0785-4.3563-29.2923-8.5813-37.6888-11.4626,0,0-21.2739,94.791-74.5044,94.791s-66.4306-94.7905-66.4306-94.7905c-22.9412,7.2265-17.0504,5.3057-58.6834,20.0495-41.633,14.7437-65.6418,29.466-87.0881,59.4949-30.2065,42.2952-50.4297,133.6741-57.8503,171.7398h539.935c-5.3789-29.3167-26.5024-134.8247-59.6494-181.2369Z"/><path class="cls-9" d="M219.15224,589.63023c3.2219,34.0971,11.5342,72.8129,44.1252,90.8355,30.5935,16.9179,64.1464-.0283,81.4092-27.5394,11.5854-18.4631,16.6403-40.0316,21.494-61.0163.8691-3.7575-4.9145-5.3615-5.7857-1.595-7.2151,31.1943-15.8757,66.7622-45.6992,84.0738-13.399,7.7778-29.1205,9.4585-43.4924,3.3014-13.6356-5.8416-24.5096-17.1311-31.503-30.0455-9.615-17.7559-12.673-38.1708-14.5481-58.0145-.3601-3.811-6.3637-3.8485-6,0h0Z"/><path class="cls-14" d="M466.91754,297.61963c22.1146,125.9842-5.9061,236.1801-166.7248,264.4094-160.8186,28.2293-224.6943-65.8355-246.8089-191.8197-8.8177-50.2333-16.7951-102.189,3.3215-144.568,30.3354-63.9067,89.0778-112.2789,162.6808-125.1988,69.8845-12.2671,138.0579,10.0783,187.8118,54.9557,37.3966,33.7313,50.2301,88.1612,59.7196,142.2214Z"/><path class="cls-9" d="M222.00054,559.68823c-47.2313-1.8492-92.3699-26.2401-119.6725-64.8583-2.62-3.706-8.7866-.1588-6.138,3.5878,28.1744,39.8513,73.8412,65.2683,122.5071,68.2004.2696,3.6282.5392,7.2566.8087,10.885.3369,4.5341,7.448,4.5709,7.1084,0-.3531-4.7537-.7063-9.5072-1.0595-14.2608-.1466-1.975-1.5115-3.4742-3.5542-3.5541Z"/><path class="cls-9" d="M461.23354,439.04203c-13.9383,49.0276-53.7595,88.7466-102.8194,102.5669-1.465.4127-2.6578,1.8685-2.6092,3.4272.3751,12.0356.7505,24.0712,1.126,36.1066.1423,4.5634,7.2512,4.5832,7.1084,0-.3483-11.1622-.6962-22.3243-1.0442-33.4864,50.1865-15.1646,90.7389-56.2345,105.0928-106.7247,1.253-4.408-5.6037-6.2895-6.8544-1.8896Z"/><path class="cls-8" d="M513.61694,310.03063c-3.8347-21.8457-12.8592-71.7846-36.4267-118.77-21.0955-42.0573-54.1017-78.236-98.077-96.5111-2.1979-.9132-4.5284-1.4-6.8895-1.516-8.0493-19.323-26.7648-33.7958-48.8285-39.9161-31.1247-8.634-64.0162-10.4649-96.027-6.5572-55.0768,6.7235-106.4074,33.6989-142.0224,76.0655C39.05374,163.34153,13.05574,226.79643,7.57064,287.35043c-4.8956,54.0437,3.6173,108.4537,15.4262,161.0705,2.7583,12.2904,14.7804,22.5007,27.9211,19.5826,12.2715-2.7251,22.5412-14.7377,19.5825-27.9211-4.76-21.2097-9.0007-42.546-11.9836-64.0845-1.4185-10.2425-2.5448-20.5266-3.3207-30.8383,1.1098.2294,2.2446.4004,3.4293.437,49.5395,1.5264,95.2093-14.4026,134.5884-40.9163,6.0184,10.5375,20.1957,17.2109,31.7468,10.7779,17.8216-9.9254,32.7275-22.4977,45.5163-36.8527.3141.4009.4865,1.0089.9648,1.1834,19.8263,7.2339,40.0402.8123,50.973-7.1498,33.8005-24.6159,40.644-53.3935,48.282-94.7059.2753.2799.5448.5657.8189.8469,36.9599,15.2665,50.1972,18.2924,66.5994,53.6312,8.5838,18.494,40.1605,110.7087,48.8809,142.4314,3.3561,12.2088,39.6266,5.2988,37.5398-6.5896-2.749-15.6607-7.0841-36.3768-10.9188-58.2225Z"/><path class="cls-14" d="M69.54024,403.50763c-9.96-2.5683-21.0926-3.0009-32.5243-.385-19.0365,4.0741-34.4766,14.014-30.8331,30.6872,8.1543,34.59,49.569,72.9458,91.9084,58.2174,3.1272-1.2802,5.3702-4.4643,6.9574-8.7504-17.465-23.2255-28.7539-51.4927-35.5084-79.7692Z"/><path class="cls-2" d="M76.11844,426.54943c-5.9348,10.5258-24.0018-2.3669-32.441,5.4772-4.621,4.2952,5.4889,8.2591,12.9991,10.186,7.7994,6.1116-1.0089,20.9793,9.2457,27.0357,7.5102,1.9266,14.2972-6.6086,14.1526-8.701,1.6563-3.6104,3.3553-7.4242,4.9404-11.3654-3.3662-7.3698-6.321-14.948-8.8968-22.6325Z"/><path class="cls-14" d="M535.51374,340.89363c-2.2526-16.9172-21.3324-23.8119-40.6184-21.1592-13.2154,1.6279-24.6028,7.1246-33.4917,14.6038,3.9067,16.2606,3.3517,33.5512.8547,49.9712-1.5527,10.2081-3.9803,20.3987-7.3378,30.264,4.1009,7.0334,8.8389,12.1469,14.0068,12.3589,44.8245-.5718,70.7003-50.7393,66.5864-86.0387Z"/><path class="cls-2" d="M499.65344,351.98683c-11.6154-4.9292-25.6199,17.4776-34.8874,2.9135-.2352-.3696-.4547-.7615-.68-1.1451.389,8.1187-.0405,16.302-.9944,24.34,3.907,4.6914,8.0897,9.0772,12.0538,13.1034.5767,2.0166,9.8648,7.73,16.2698,3.3607,7.579-9.1868-5.7663-20.1658-.5146-28.5683,6.405-4.3693,14.5604-11.5396,8.7528-14.0042Z"/><ellipse class="cls-9" cx="367.31912" cy="338.20145" rx="15.24566" ry="18.9271" transform="translate(-44.77535 56.27645) rotate(-8.25959)"/><ellipse class="cls-9" cx="187.52569" cy="364.30048" rx="15.24569" ry="18.92706" transform="translate(-50.39003 30.71865) rotate(-8.25966)"/><path class="cls-9" d="M385.86824,303.96303c-1.7902.7366-4.278-1.2272-7.7013-3.4806-.4401-.2783-.8817-.5736-1.3223-.887-.4496-.306-.9813-.5624-1.4678-.8717-.9469-.6489-2.0933-1.1635-3.1844-1.8-2.3055-1.128-4.8418-2.2369-7.6216-3.1474-2.8019-.8441-5.5168-1.3863-8.0535-1.7803-1.2594-.1023-2.4942-.336-3.6422-.3454-.5759-.0249-1.1585-.1187-1.7025-.125-.5405.0049-1.0718-.0056-1.5921-.0291-4.0967-.1106-7.2605.0766-8.3069-1.5518-.4893-.7854-.3021-1.8914.6163-3.2944.2293-.3501.5037-.718.8233-1.102.3268-.3668.7208-.6966,1.1498-1.0635.8677-.7023,1.8956-1.5433,3.1655-2.131.6277-.3217,1.2994-.6443,2.0122-.9651.714-.309,1.4817-.5102,2.2809-.7609,1.6013-.541,3.3565-.7649,5.2305-1.0011,3.732-.2859,7.9067.0753,12.0449,1.343,4.118,1.3278,7.7475,3.42,10.6442,5.7895,1.4014,1.2656,2.7128,2.4535,3.7163,3.8132.5123.6628,1.0266,1.267,1.4354,1.929.4012.6708.7673,1.3196,1.098,1.9428.7053,1.2087,1.0675,2.4864,1.377,3.5591.1419.5461.2765,1.0421.3346,1.53.0426.4976.0573.9566.0448,1.3748-.0495,1.6765-.5286,2.6907-1.3791,3.0549Z"/><path class="cls-9" d="M198.40064,321.48393c-.5365,1.8413-3.5405,2.6056-7.4858,3.6193-.4977.1359-1.0109.2621-1.538.3774-.5274.1223-1.0731.3179-1.6295.4581-1.1163.2496-2.2765.6755-3.4884,1.0046-2.4087.8016-4.9767,1.7271-7.6088,2.89-2.6105,1.2132-4.9998,2.5345-7.1905,3.8177-1.0465.6946-2.1314,1.2866-3.0551,1.9615-.4722.3263-.979.6074-1.4186.9235-.434.3207-.8673.6233-1.2975.9081-3.3628,2.299-5.9174,4.0537-7.6557,3.2434-.8344-.4009-1.2924-1.4098-1.3355-3.0097-.0334-.8064.0562-1.7459.3415-2.7591.2722-1.0197.603-2.2126,1.2141-3.3753.2889-.5951.609-1.2142.9599-1.8541.3557-.635.8021-1.2306,1.2477-1.8745.873-1.3121,2.0119-2.5193,3.2352-3.7931,2.5287-2.4321,5.7191-4.714,9.413-6.4156,3.713-1.6556,7.5313-2.55,11.0265-2.8485,1.7641-.0804,3.4225-.141,4.9843.067.7779.0895,1.52.1463,2.2321.2974.7124.158,1.389.3253,2.0267.5002,1.2773.3068,2.3927.8443,3.3389,1.3116.9501.4535,1.7158,1.0055,2.3002,1.5619,1.1749,1.0871,1.6318,2.0965,1.3833,2.9882Z"/><circle class="cls-1" cx="162.43424" cy="439.5794" r="51.54779" transform="translate(-305.3597 467.5752) rotate(-73.14449)"/><path class="cls-12" d="M145.24894,425.13913c-1.8263,6.1993-3.6526,12.3986-5.4789,18.5979-.2533.8598-.3643,1.6312-.0112,2.4945.3027.7399.9928,1.4893,1.7561,1.7717,1.5054.5571,3.7516.0016,4.2662-1.7449,1.8263-6.1993,3.6526-12.3986,5.4789-18.5979.2533-.8597.3642-1.6311.0111-2.4945-.3026-.7398-.9927-1.4892-1.756-1.7717-1.5055-.5571-3.7517-.0016-4.2662,1.7449h0Z"/><path class="cls-12" d="M169.93834,411.92423c-2.8165,12.7575-5.633,25.515-8.4495,38.2726-.3796,1.7197,1.1222,3.4508,2.7704,3.6847,1.8576.2637,3.3041-1.0467,3.6847-2.7703,2.8165-12.7576,5.6329-25.5151,8.4494-38.2727.3797-1.7196-1.1222-3.4508-2.7703-3.6847-1.8577-.2637-3.3042,1.0467-3.6847,2.7704h0Z"/><circle class="cls-1" cx="401.73289" cy="403.14898" r="51.54772"/><path class="cls-12" d="M387.42644,385.83223c-1.9347,9.5095-3.8695,19.0189-5.8042,28.5284-.3511,1.7256,1.102,3.4479,2.7704,3.6847,1.8342.2604,3.3328-1.0407,3.6847-2.7703,1.9347-9.5095,3.8695-19.019,5.8042-28.5284.3511-1.7256-1.102-3.448-2.7704-3.6848-1.8342-.2603-3.3328,1.0408-3.6847,2.7704h0Z"/><path class="cls-12" d="M412.59454,385.28253c-1.3876,6.3833-2.7751,12.7667-4.1627,19.15-.3631,1.6706,1.1064,3.5215,2.7704,3.6847,1.866.1832,3.2972-.9874,3.6847-2.7703,1.3876-6.3833,2.7751-12.7667,4.1627-19.15.3631-1.6706-1.1064-3.5215-2.7704-3.6848-1.866-.1831-3.2972.9875-3.6847,2.7704h0Z"/><path class="cls-9" d="M278.34454,372.49643c-5.6632,1.7376-7.218-5.4868-7.7377-9.5707-.6248-4.9098-8.1924-3.5692-7.5691,1.3286.5812,4.5674,1.8164,9.314,5.2253,12.6209,2.977,2.8878,7.3462,4.4372,11.4101,3.1903,1.9997-.6135,3.4879-2.2177,3.1202-4.4489-.3055-1.8538-2.4653-3.7287-4.4488-3.1202Z"/><path class="cls-10" d="M321.27064,439.19273c2.2031-6.7058,2.8009-14.0142,2.2678-21.0902-.8745-11.6081-4.5534-22.8108-8.0138-33.9058-22.98,14.5751-51.2346,20.5848-78.16,16.688-2.2689,14.3448.1544,29.6444,7.9149,41.9386,7.4996,11.881,20.1701,20.6597,34.1215,22.3218,13.9513,1.6622,28.8398-4.3009,36.876-15.8258,2.1735-3.1172,3.8138-6.5355,4.9936-10.1266Z"/><path class="cls-9" d="M319.47184,384.91783c-.46-1.2702-2.1566-1.7628-3.3136-1.2352-.165.0752-.3151.164-.4509.264-.7111-.4609-1.6336-.6283-2.3583-.1768-17.63,10.984-38.3669,16.8693-59.1536,16.6232-5.9457-.0703-11.8752-.6303-17.731-1.6584-1.3298-.2335-2.6193.9325-2.7588,2.2127-.0679.6239.1034,1.1812.4198,1.6368-.2828.4956-.4145,1.0961-.3963,1.7196.3097,10.6427.7309,21.5527,4.8435,31.5327,3.6049,8.7487,10.1211,15.8678,17.5323,21.5943,4.1893,3.237,8.6818,6.0551,13.2755,8.6778,1.1715.6689,2.6403.6148,3.4906-.5619.7257-1.0042.6167-2.8177-.562-3.4906-7.6371-4.3605-15.1854-9.2921-21.1439-15.8369-2.9957-3.2907-5.5487-6.9325-7.4025-10.9861-2.0806-4.5496-3.2413-9.415-3.9347-14.3544-.7784-5.545-.9789-11.1485-1.1435-16.7395,20.4312,3.0511,41.6415.3479,60.7166-7.5652,5.5494-2.3022,10.8978-5.0627,15.9975-8.2379,4.9232,13.8654,8.5902,28.6943,6.098,43.4359-2.1235,12.5613-9.0301,24.5551-20.9283,30.0357-6.2718,2.8889-13.5136,3.8222-20.1651,1.7014-3.0585-.9752-4.875,3.6848-1.8053,4.6636,13.8379,4.4122,28.9654-1.634,37.8934-12.6325,9.4698-11.6662,11.9565-27.4833,10.3179-42.0602-1.102-9.8015-3.9889-19.3185-7.3373-28.5621Z"/><path class="cls-9" d="M362.60764,72.60253c-17.2445-12.7024-38.1926-19.8922-58.9394-24.4521-18.9116-4.1568-38.3086-5.5725-57.6356-4.6518-19.3026.9195-38.4807,4.3179-56.9444,10.0149-18.5161,5.7131-36.3213,13.5838-52.8537,23.7108-16.56,10.1439-31.8384,22.3428-45.0941,36.553-1.6993,1.8217-3.3698,3.6707-5.0112,5.5454-1.195,1.3652-.5511,3.7136.8208,4.676,1.617,1.1341,3.4779.5479,4.6762-.8208,12.3507-14.108,26.7634-26.4067,42.431-36.6878,15.6738-10.2852,32.7851-18.4646,50.5185-24.5145,17.7541-6.057,36.3202-9.8508,55.0134-11.3733,18.5802-1.5134,37.3789-.6203,55.7259,2.6907,9.3078,1.6795,18.4804,4.0306,27.4548,7.0158,10.1585,3.379,20.116,7.5464,29.2285,13.2071,2.3125,1.4367,4.5623,2.969,6.7539,4.5836,3.486,2.5676,7.3361-2.9332,3.8554-5.497Z"/><path class="cls-9" d="M67.82894,140.89623c-1.0655-1.2574-3.4892-1.7268-4.7321-.3923-22.9528,24.6441-38.0638,55.431-46.7158,87.8054-9.6898,36.2575-11.3294,73.9145-9.8082,111.2529.9129,22.4126,2.9506,44.7576,5.0409,67.0852.1482,1.584,1.7282,2.7118,3.2501,2.7675-7.2733,5.422-12.8884,13.0883-14.4559,22.1743-2.2592,13.0927,5.2245,25.6147,13.5867,35.0107,7.7116,8.6644,17.0409,15.7115,27.3398,21.011,11.4593,5.8967,24.188,9.3887,37.0582,10.1032,4.3098.2394,4.9581-6.4455.6389-6.6853-20.742-1.1517-39.4722-12.1259-54.3286-26.6983-7.8116-7.6621-15.822-17.6328-16.4274-29.0323-.525-9.8852,4.2266-16.2648,12.0877-21.6016,11.5228-7.8226,26.5235-8.2155,39.945-7.9447.9165.0183,1.7953-.2716,2.4649-.8068.3575.059.7165.0769,1.0562.0173,1.9448-.3414,2.8492-2.0702,2.7261-3.8869-.7542-11.1113-1.508-22.2226-2.2622-33.3339-.1229-1.8116-2.2356-3.016-3.8869-2.7261-1.9451.3414-2.8493,2.0702-2.7261,3.8869.682,10.048,1.3637,20.0961,2.0458,30.1442-13.3295-.221-27.472.3969-39.4268,6.8905-.7849.4264-1.5544.8853-2.3154,1.3587.2123-.5578.302-1.177.2429-1.8092-3.6273-38.7467-7.141-77.7082-4.6568-116.644,2.155-33.7709,9.0549-67.4417,23.6452-98.1384,7.7799-16.3687,17.8539-31.7967,30.2215-45.076,1.234-1.3246,1.6626-3.2332.3923-4.732Z"/><path class="cls-9" d="M376.08664,168.27463c-1.5591-.5787-3.8677.2143-4.3159,1.9805-5.3188,20.9635-10.9673,42.3371-21.5566,61.3616-9.4748,17.0225-22.913,32.3529-40.8194,40.6958-11.0677,5.1568-23.3305,7.531-35.5213,6.9006-.4262-.022-.8058.0396-1.1591.1396,4.037-7.0697,7.4391-14.499,10.4049-21.7739,4.8355-11.8615,8.4152-24.1967,10.8365-36.7717.3425-1.7806-1.3412-3.5028-3.0234-3.662-1.9509-.1846-3.3182,1.2361-3.6622,3.0233-3.9068,20.2938-11.1444,40.4252-21.8522,58.1471-9.3745,15.5157-22.9182,29.8657-41.6472,32.6783-8.1037,1.2168-16.5154.0758-23.5602-4.0737,9.7894-6.7468,18.4443-15.2595,24.3118-25.6678.8893-1.5782.7659-3.5632-.8208-4.6763-1.3726-.9625-3.7816-.7663-4.6763.8209-10.7949,19.1498-30.4233,30.2601-50.0543,38.5813-10.8873,4.6148-22.0472,8.6361-33.1941,12.5719-12.5273,4.4229-25.2275,8.4465-38.2634,11.0869-14.4553,2.928-29.2126,4.0121-43.8528,1.8494-4.2844-.6328-4.8996,6.056-.6389,6.6854,27.3403,4.039,54.6019-2.9227,80.3253-11.7087,11.8129-4.0348,23.5958-8.2995,35.1525-13.0234,8.7928-3.5943,17.4057-7.6342,25.5356-12.5375,15.821,11.4568,37.6859,8.2562,53.1001-2.2209,9.547-6.4892,17.0749-15.4615,23.218-25.3723.1992,1.3319,1.1213,2.4984,2.8814,2.5894,22.5371,1.1653,44.5004-7.0761,60.9568-22.454,15.5844-14.5629,25.8611-33.7141,33.0081-53.5993,4.3792-12.1837,7.6858-24.7154,10.8672-37.2546.4457-1.7562-.1542-3.6378-1.9801-4.3159Z"/><path class="cls-9" d="M454.78684,256.00173c-2.8525-10.6447-6.3243-21.1279-12.0256-30.6181-5.0169-8.3503-11.2413-15.7933-18.5139-22.2678-8.0513-7.1679-17.3879-12.8706-27.4121-16.8287-4.0299-1.5911-6.3521,4.7101-2.3352,6.296,16.7833,6.627,31.4149,18.6864,41.1098,33.922,5.5855,8.7777,9.2051,18.4739,11.9671,28.4634,3.1112,11.2522,5.8391,22.6188,8.7241,33.9309,3.3185,13.0097,6.6367,26.0198,9.9552,39.0299.4479,1.757,2.0028,3.0568,3.887,2.7261,1.6842-.2957,3.1766-2.1205,2.726-3.8869-6.0162-23.5868-11.7817-47.2546-18.0824-70.7668Z"/><path class="cls-9" d="M341.31514,162.77353c-1.6213-.1535-3.7257,1.1998-3.6619,3.0233.6646,18.9519-2.3455,37.8578-8.9698,55.6293-1.5123,4.0572,4.7863,6.386,6.296,2.3353,6.8116-18.2744,10.0428-37.8324,9.3591-57.3257-.0634-1.8098-1.0531-3.4757-3.0234-3.6622Z"/><path class="cls-9" d="M500.97104,231.10493c-9.4573-23.1417-20.025-45.8848-33.7061-66.8663-12.325-18.9011-27.3622-36.1754-45.4281-49.7988-9.8999-7.465-20.7198-13.7337-32.2007-18.4303-4.011-1.6407-6.3292,4.6623-2.3355,6.2961,19.6465,8.0366,36.9657,20.963,51.4824,36.3459,16.0529,17.0103,28.6566,36.8733,39.1827,57.684,6.2134,12.2846,11.7306,24.9067,16.9372,37.6465,1.6338,3.998,7.7017,1.1197,6.0681-2.8771Z"/><path class="cls-9" d="M536.39564,335.17653c-2.6863-5.9308-7.7229-10.589-13.3367-13.7346-.6009-.3369-1.2137-.6457-1.8267-.9543.0062-.1687.0122-.3375-.0003-.5089-1.7811-24.357-7.6792-48.334-17.2867-70.7839-1.6992-3.9707-7.7694-1.0982-6.0681,2.8773,8.9254,20.8564,14.4409,43.0279,16.4535,65.6113-10.701-3.3943-22.4556-2.9473-32.9369,1.4465-3.983,1.6698-1.1079,7.7389,2.8776,6.068,10.2807-4.31,22.1423-4.0811,32.3118.4466,4.8124,2.1429,9.5018,5.4035,12.4002,9.8881,3.4181,5.2888,3.8391,12.0273,3.4957,18.1435-.6941,12.3584-5.2843,24.0856-10.2604,35.2787-2.4827,5.5843-5.2091,11.0759-9.0256,15.8859-3.1685,3.9928-7.0964,7.4672-11.3847,10.2191-9.9131,6.361-21.9306,9.1046-33.594,7.4074-4.2854-.6234-4.9014,6.0651-.6385,6.6855,11.7542,1.7106,24.0618-.7061,34.4395-6.4454,5.2536-2.9057,10.0321-6.582,14.0888-11.0097,4.5028-4.9147,7.8146-10.596,10.6657-16.5961,5.7772-12.1569,11.0195-25.2245,12.243-38.7409.6382-7.0509.345-14.6434-2.6172-21.1841Z"/><path class="cls-9" d="M366.29554,62.83483c-1.4632-3.1801-6.3888-.858-4.9207,2.3332,4.408,9.5805,7.4592,19.6701,9.1174,30.0847.5511,3.4615,5.9135,2.5212,5.3623-.9412-1.73-10.8659-4.9603-21.4814-9.559-31.4767Z"/><path class="cls-9" d="M403.50434,78.16903c-.5717-1.2083-2.3744-2.0805-3.6268-1.2937-7.9224,4.9768-14.007,12.5403-16.848,21.4955-.4445,1.4008.1818,2.9708,1.6057,3.4994,1.3298.4938,3.0533-.1994,3.4994-1.6057,1.2862-4.0538,2.9537-7.259,5.5428-10.6342,1.2945-1.6877,2.2633-2.7466,3.8299-4.1853.7828-.7188,1.5964-1.4035,2.439-2.0512.3829-.2944.7718-.581,1.1665-.8592.2371-.1671.4769-.3296.7167-.4925.1031-.07.1493-.1021.169-.1163.0069-.0029.0493-.0277.2122-.13,1.2438-.7815,1.9757-2.1854,1.2936-3.6268Z"/><path class="cls-6" d="M173.13614,311.24103c-39.1431-3.464-73.6829,25.4597-77.1469,64.6027-3.4639,39.1431,25.4597,73.6829,64.6028,77.1469,39.1431,3.4639,73.6828-25.4597,77.1468-64.6028,3.4639-39.1431-25.4596-73.6829-64.6027-77.1468ZM161.44064,443.40153c-33.7931-2.9905-58.8529-32.9162-55.8624-66.7091,2.9905-33.7931,32.9162-58.8529,66.7093-55.8624s58.8529,32.9162,55.8624,66.7093c-2.9905,33.7929-32.9162,58.8527-66.7093,55.8622Z"/><g class="cls-17"><circle class="cls-3" cx="166.86409" cy="382.11583" r="61.52535" transform="translate(-3.30235 1.45914) rotate(-.49611)"/></g><g class="cls-17"><path class="cls-10" d="M135.47964,435.02013c5.2857,3.1464,11.097,5.533,17.2993,6.9873l73.5119-75.8368c-1.8708-6.9441-4.9421-13.4374-8.987-19.2279l-81.8242,88.0774Z"/></g><g class="cls-17"><path class="cls-10" d="M172.28754,320.83003c-3.8568-.3413-7.6622-.3133-11.3839.0475l-55.3523,56.1675c-.6492,7.8435.2153,15.4712,2.3444,22.5988l81.4426-74.8035c-5.3373-2.0976-11.0556-3.4798-17.0508-4.0103Z"/></g><path class="cls-6" d="M389.35614,275.69943c-39.1431-3.4639-73.6829,25.4597-77.1468,64.6028-3.464,39.143,25.4597,73.6828,64.6028,77.1468,39.1431,3.4639,73.6828-25.4597,77.1467-64.6028,3.464-39.143-25.4596-73.6828-64.6027-77.1468ZM377.66064,407.85993c-33.7931-2.9905-58.8529-32.9162-55.8624-66.7091,2.9905-33.7931,32.9162-58.8529,66.7094-55.8624,33.7931,2.9905,58.8529,32.9162,55.8624,66.7094-2.9905,33.7929-32.9162,58.8526-66.7094,55.8621Z"/><g class="cls-17"><circle class="cls-3" cx="383.08414" cy="346.57425" r="61.52542" transform="translate(-86.9134 132.1693) rotate(-17.61381)"/></g><g class="cls-17"><path class="cls-10" d="M351.69974,399.47853c5.2856,3.1465,11.097,5.533,17.2993,6.9874l73.5118-75.8369c-1.8707-6.944-4.9421-13.4374-8.9869-19.2279l-81.8242,88.0774Z"/></g><g class="cls-17"><path class="cls-10" d="M388.50764,285.28843c-3.8568-.3413-7.6622-.3132-11.384.0475l-55.3523,56.1675c-.6492,7.8435.2153,15.4712,2.3444,22.5988l81.4426-74.8035c-5.3373-2.0976-11.0555-3.4797-17.0507-4.0103Z"/></g><path class="cls-6" d="M317.67964,349.89973c-.7299.12-1.505-.0244-2.1704-.4651-.1852-.1217-19.2198-12.3945-44.4103-8.2538-25.1902,4.1407-39.2947,21.8608-39.4341,22.0394-1.0328,1.3216-2.9421,1.5587-4.2647.5281-1.323-1.0306-1.5632-2.9359-.5346-4.2605.6248-.8049,15.622-19.7654,43.2472-24.3064,27.6256-4.541,47.903,8.6212,48.7526,9.1838,1.4001.9266,1.7836,2.8128.8567,4.2127-.4862.7346-1.2368,1.1894-2.0424,1.3218Z"/><path class="cls-6" d="M173.13614,311.24103c-39.1431-3.464-73.6829,25.4597-77.1469,64.6027-3.4639,39.1431,25.4597,73.6829,64.6028,77.1469,39.1431,3.4639,73.6828-25.4597,77.1468-64.6028,3.4639-39.1431-25.4596-73.6829-64.6027-77.1468ZM161.44064,443.40153c-33.7931-2.9905-58.8529-32.9162-55.8624-66.7091,2.9905-33.7931,32.9162-58.8529,66.7093-55.8624s58.8529,32.9162,55.8624,66.7093c-2.9905,33.7929-32.9162,58.8527-66.7093,55.8622Z"/><g class="cls-17"><circle class="cls-3" cx="166.86409" cy="382.11583" r="61.52535" transform="translate(-3.30235 1.45914) rotate(-.49611)"/></g><g class="cls-17"><path class="cls-10" d="M135.47964,435.02013c5.2857,3.1464,11.097,5.533,17.2993,6.9873l73.5119-75.8368c-1.8708-6.9441-4.9421-13.4374-8.987-19.2279l-81.8242,88.0774Z"/></g><g class="cls-17"><path class="cls-10" d="M172.28754,320.83003c-3.8568-.3413-7.6622-.3133-11.3839.0475l-55.3523,56.1675c-.6492,7.8435.2153,15.4712,2.3444,22.5988l81.4426-74.8035c-5.3373-2.0976-11.0556-3.4798-17.0508-4.0103Z"/></g><path class="cls-6" d="M389.35614,275.69943c-39.1431-3.4639-73.6829,25.4597-77.1468,64.6028-3.464,39.143,25.4597,73.6828,64.6028,77.1468,39.1431,3.4639,73.6828-25.4597,77.1467-64.6028,3.464-39.143-25.4596-73.6828-64.6027-77.1468ZM377.66064,407.85993c-33.7931-2.9905-58.8529-32.9162-55.8624-66.7091,2.9905-33.7931,32.9162-58.8529,66.7094-55.8624,33.7931,2.9905,58.8529,32.9162,55.8624,66.7094-2.9905,33.7929-32.9162,58.8526-66.7094,55.8621Z"/><g class="cls-17"><circle class="cls-3" cx="383.08414" cy="346.57425" r="61.52542" transform="translate(-86.9134 132.1693) rotate(-17.61381)"/></g><g class="cls-17"><path class="cls-10" d="M351.69974,399.47853c5.2856,3.1465,11.097,5.533,17.2993,6.9874l73.5118-75.8369c-1.8707-6.944-4.9421-13.4374-8.9869-19.2279l-81.8242,88.0774Z"/></g><g class="cls-17"><path class="cls-10" d="M388.50764,285.28843c-3.8568-.3413-7.6622-.3132-11.384.0475l-55.3523,56.1675c-.6492,7.8435.2153,15.4712,2.3444,22.5988l81.4426-74.8035c-5.3373-2.0976-11.0555-3.4797-17.0507-4.0103Z"/></g><path class="cls-6" d="M317.67964,349.89973c-.7299.12-1.505-.0244-2.1704-.4651-.1852-.1217-19.2198-12.3945-44.4103-8.2538-25.1902,4.1407-39.2947,21.8608-39.4341,22.0394-1.0328,1.3216-2.9421,1.5587-4.2647.5281-1.323-1.0306-1.5632-2.9359-.5346-4.2605.6248-.8049,15.622-19.7654,43.2472-24.3064,27.6256-4.541,47.903,8.6212,48.7526,9.1838,1.4001.9266,1.7836,2.8128.8567,4.2127-.4862.7346-1.2368,1.1894-2.0424,1.3218Z"/><path class="cls-6" d="M442.80914,316.96883s42.3763-8.9354,50.1347-8.766c7.7583.1694,4.2886,11.9414,4.2886,11.9414l-49.0407,11.9438-5.3826-15.1192Z"/><path class="cls-6" d="M101.28624,384.11623s-53.8516,4.4505-67.2203,7.2998-5.8379,11.1365-5.8379,11.1365l71.9985-9.1968,1.0597-9.2395Z"/><path class="cls-9" d="M371.59754,598.58523c40.0296,9.0488,81.4889,21.8974,111.1201,51.8123,30.1478,30.4364,44.4029,72.3551,54.5581,113.0096,6.447,25.8096,11.6187,51.9305,19.0407,77.4928,1.0746,3.7008,6.8663,2.1265,5.7857-1.5951-13.033-44.8873-19.1257-91.8832-37.6081-135.0958-8.2532-19.2964-18.9277-37.696-33.0491-53.3136-13.826-15.2907-30.9424-27.1174-49.5126-35.9279-21.8393-10.3616-45.2323-16.854-68.7397-22.168-3.7602-.85-5.3658,4.9333-1.5951,5.7857h0Z"/><path class="cls-9" d="M20.59364,839.11063c15.9902-42.7523,21.287-88.799,38.9335-130.9898,8.4124-20.1132,19.7523-39.2338,35.4701-54.5084,14.5426-14.1326,32.168-24.5841,50.6127-32.7892,21.2756-9.4643,43.7318-15.987,66.0699-22.3999,3.7046-1.0636,2.1294-6.8549-1.5951-5.7857-39.5752,11.3614-80.9434,23.5413-112.842,50.8228-34.0383,29.1116-49.1452,72.533-60.0411,114.6058-6.9007,26.6463-12.7307,53.614-22.3937,79.4493-1.3544,3.6211,4.443,5.1849,5.7857,1.5951h0Z"/><path class="cls-15" d="M1210.31994,685.66043c-.3701-.2991-.7188-.6184-1.0833-.923-7.4924-8.436-13.479-18.2067-18.1155-28.5808-8.1421-18.2177-12.1934-37.7748-14.5002-57.5097-2.7896-23.8664-3.3096-47.9456-6.476-71.7733-2.1918-16.4941-5.8077-32.8932-12.0231-48.3394-1.2623-6.2856-2.8732-12.4935-5.0409-18.5317-4.1984-11.6953-10.7126-22.637-20.1595-30.8342-8.4414-7.3246-19.3751-12.5541-30.6576-13.0322-1.9419-.0822-3.8834-.0363-5.8156.132-2.9402-1.1033-5.9637-2.049-9.0939-2.7773l-50.0543,38.3122c23.517,17.2806,24.9887,52.5905,15.6579,80.242-4.3662,12.9394-10.5266,25.191-16.6363,37.4491.6714-2.6454,1.3757-5.2816,2.1422-7.896,2.1734-7.4128,4.6703-14.7271,7.3204-21.9819,2.6618-7.2866,5.649-14.4712,7.9991-21.8677,4.8226-15.1791,6.458-33.7645-5.2453-46.4023-.329-.3554-.7106-.6456-1.1211-.8636.0458-1.3042.1175-2.6071.1468-3.9119.0424-1.8846-.9949-3.6584-3.0088-3.9221-1.7139-.2244-3.8794,1.1112-3.9221,3.0089-.5556,24.7303-4.2762,49.4287-11.253,73.1689-3.529,12.0079-7.8972,23.726-12.9142,35.1888-4.9855,11.3908-10.3635,22.6963-13.6233,34.7384-4.9363,18.2354-5.1434,37.545-1.1017,55.979,4.0568,18.5031,12.082,36.0855,23.4629,51.235,11.3099,15.0545,25.999,27.5965,42.9585,35.8486,2.1136,1.0285,4.2621,1.9805,6.4381,2.869,2.2951.9374,4.1242-.5997,4.6189-2.4538,4.3302,2.3631,8.8114,4.47,13.4595,6.2341,47.0253,17.8491,103.8708,1.2964,136.6035-36.2574.1432.1315.2865.263.4297.3946,1.3059-1.9912,2.6995-3.944,3.6339-6.1085-5.2788-4.8472-10.5576-9.6943-15.8363-14.5415,1.1275.8487,2.2683,1.6794,3.434,2.4757,1.8504,1.2646,3.8313.5107,4.8884-.8775,8.7913,4.0722,18.21,6.7029,27.8473,7.4333.1929-.3896.4424-.7505.7958-1.035,2.2475-1.8097,4.41-3.6846,6.2832-5.8124-18.3034.4803-36.1808-6.954-50.4381-18.4764ZM1034.47184,716.42333c-11.4794-13.8229-20.0323-30.2459-24.6009-47.6391-4.6236-17.6023-5.3889-36.1158-1.3984-53.9142,2.5344-11.3039,7.2767-21.9683,11.9504-32.517,5.0225-11.3356,9.7196-22.7562,13.4926-34.5763,6.9102-21.6489,11.277-44.0992,12.931-66.7645,5.5164,10.1394,3.9744,22.9424.57,33.7673-2.3286,7.4045-5.3201,14.5893-7.9862,21.8748-2.6906,7.3527-5.2262,14.7658-7.4292,22.2801-3.3231,11.3347-5.8672,22.9992-7.0294,34.7222-2.554,6.0997-4.8284,12.3016-6.5798,18.6973-12.5272,45.7438,6.2306,97.2595,42.3668,127.3094-9.9005-6.2908-18.7663-14.184-26.2869-23.24ZM1173.40764,624.51713c-1.33-4.8663-2.4486-9.7699-3.4015-14.7011-1.8973-15.6399-2.6432-31.4466-3.5012-47.2402.8044,10.8759,1.5539,21.7578,2.7004,32.6007,1.226,11.5937,2.9841,23.1631,5.7094,34.4882-.5282-1.7107-1.0366-3.426-1.5071-5.1476ZM1201.15014,686.93133c-.9786-.8987-2.4705-.8788-3.643-.3064-2.967-4.0522-5.7042-8.326-8.1992-12.7704,3.7549,4.9257,7.94,9.5446,12.5999,13.7724-.2525-.2316-.5051-.4636-.7577-.6956Z"/><path class="cls-6" d="M1071.11284,752.04883c-17.8376-8.6495-33.2536-21.9179-44.7994-38.0114-11.5964-16.1642-19.4153-34.9556-22.3505-54.6511-3.3696-22.6104,1.0395-45.2292,8.1637-66.6949,3.9057-11.7682,8.5661-23.2659,13.2128-34.7557,4.8244-11.9296,9.5193-23.9022,13.799-36.0396,3.8624-10.9539,8.061-22.0763,10.1515-33.5382,1.7538-9.6166,2.0782-20.1347-2.6939-28.9868-1.1748-2.1791-2.6829-4.181-4.3816-5.9778-2.2769-2.4085-5.9066,1.2304-3.6342,3.6343,6.747,7.1367,7.4937,17.3202,6.287,26.6178-1.4447,11.1313-5.5021,21.9092-9.1423,32.4618-4.2266,12.2524-8.8439,24.3563-13.6905,36.3756-4.6373,11.5003-9.3731,22.9698-13.4498,34.6851-7.642,21.9603-12.8289,45.1674-10.2396,68.5149,2.2172,19.9919,9.2883,39.3497,20.2743,56.1899,10.9593,16.7994,25.7421,31.1985,43.2231,41.1133,2.1867,1.2402,4.4146,2.4039,6.6764,3.5007,2.9636,1.4371,5.5727-2.9936,2.594-4.4379Z"/><path class="cls-6" d="M1257.80074,703.12503c-22.0355.7768-41.7006-11.7474-55.2844-28.3069-15.9375-19.429-22.5066-44.3634-25.6051-68.8532-3.2896-25.9997-3.398-52.2815-6.8726-78.27-3.2852-24.5724-9.0192-49.1413-20.6543-71.2071-5.6079-10.6353-12.5485-20.8282-21.2259-29.2042-8.2966-8.0085-18.5256-14.679-29.984-16.9215-2.8747-.5626-5.8009-.8622-8.7299-.8749-3.3076-.0143-3.3119,5.1253,0,5.1396,23.9971.1037,42.0428,20.8475,53.057,40.0147,12.3544,21.4994,18.5012,45.9398,22.0133,70.3123,3.7203,25.8182,3.8691,51.9442,6.8713,77.8295,2.9016,25.0174,8.7779,50.5648,23.9937,71.1665,13.0164,17.6238,32.0414,31.7652,54.3297,34.0566,2.6888.2765,5.3905.3534,8.0912.2582,3.2979-.1164,3.3134-5.2564,0-5.1396Z"/><path class="cls-6" d="M1196.80454,727.80983c-10.8139-7.7128-18.6047-18.8476-23.8582-30.9263-5.5849-12.8407-8.2454-26.8218-9.2415-40.729-1.2522-17.4823-.1848-35.0084.0725-52.5046.2273-15.4576-.2697-30.9721-3.3715-46.1636-2.8623-14.0182-8.0208-27.8575-16.6363-39.3912-1.1242-1.505-2.293-2.9756-3.5117-4.405-.9009-1.0568-2.7078-.9265-3.6342,0-1.0472,1.047-.9032,2.5748,0,3.6341,9.2565,10.8573,14.8596,24.2543,18.0671,38.0478,3.4472,14.825,4.1163,30.0615,3.9832,45.23-.1545,17.5883-1.3081,35.1905-.2884,52.7724.8383,14.4538,3.233,28.8943,8.5832,42.4052,5.0036,12.6357,12.4525,24.5084,23.0153,33.2286,1.3688,1.1301,2.7815,2.2089,4.2265,3.2395,1.1306.8064,2.8602.1993,3.5159-.9218.7549-1.2906.2113-2.7077-.9219-3.5161Z"/><path class="cls-6" d="M1100.81614,750.21653c-4.6341-.9458-7.8863-4.5283-10.4407-8.2948-3.1353-4.623-5.7933-9.6263-8.3186-14.6017-5.2967-10.4363-9.5808-21.365-12.8217-32.6102-1.8318-6.3562-3.3209-12.8064-4.4802-19.3185-.2433-1.3674-1.9119-2.1382-3.1611-1.7949-1.4413.396-2.0389,1.7898-1.7948,3.1611,2.1571,12.1176,5.4811,24.0154,9.9411,35.4878,2.1979,5.6536,4.6477,11.2127,7.3598,16.6385,2.637,5.2755,5.4347,10.5709,8.7285,15.4708,3.2848,4.8869,7.6087,9.5908,13.6215,10.8179,1.3585.2773,2.776-.3932,3.1611-1.7948.3489-1.2701-.4286-2.8824-1.7949-3.1612Z"/><path class="cls-6" d="M1108.34724,714.51573c-11.7802-10.0719-19.8628-23.6026-24.6988-38.2295-5.0844-15.3781-6.7666-31.5879-6.3409-47.7245.5232-19.8343,3.896-39.4223,6.8415-58.9994,2.7572-18.3263,5.1548-36.783,4.6024-55.3571-.5213-17.5259-3.6245-35.1254-11.2034-51.0435-.9431-1.9805-1.959-3.9243-3.0356-5.8355-1.6235-2.8818-6.0649-.2941-4.4379,2.5942,8.5703,15.2134,12.3912,32.5336,13.3496,49.8548,1.014,18.3268-1.0158,36.6045-3.6789,54.7115-2.9,19.7175-6.4396,39.4075-7.4004,59.3473-.804,16.6857.4046,33.5567,5.06,49.6592,4.3624,15.089,11.7979,29.5044,22.9858,40.6722,1.3877,1.3853,2.8322,2.7106,4.3224,3.9847,1.0542.9013,2.599,1.0352,3.6342,0,.9234-.9235,1.0596-2.7284,0-3.6344Z"/><path class="cls-10" d="M799.68024,838.93013l23.9504-92.0947,36.3927-129.0607c-47.4799,1.3309-108.1078,41.5141-135.7135,80.1673-24.2978,34.0217-44.1811,97.0677-55.9778,140.9881h131.3482Z"/><path class="cls-10" d="M1075.67874,838.93013h131.7559c-10.9974-44.1277-31.6004-115.1311-57.8245-151.8503-27.6057-38.6531-84.7514-69.3795-132.2319-70.7103l31.8112,120.7036,26.4893,101.857Z"/><polygon class="cls-14" points="1010.51044 770.78403 870.19694 770.78403 871.41824 562.22033 1010.51044 562.22033 1010.51044 770.78403"/><path class="cls-10" d="M1117.23834,838.93013c-1.0957-20.4746-1.7937-37.2993-1.9046-48.3779-.3935-39.4519-2.3725-71.0536-10.748-97.0471-8.8252-27.3887-24.6467-47.5764-49.7893-63.5309-11.1131-7.0529-27.2449-13.2056-43.5794-18.8112l-18.8227,89.7903c-19.5603,33.148-44.1067,62.7822-54.9722,62.7822-10.8105,0-34.2676-29.3335-51.3608-62.2763l-14.9248-91.1214c-94.7459,32.512-99.0276,84.2381-103.1717,176.6407l-.1491,3.3191c-.5581,12.4077-1.4876,29.1295-2.6665,48.6325h352.0891Z"/><path class="cls-14" d="M1140.68634,350.34973c0,126.2465-46.0438,228.5895-207.1973,228.5895s-207.1973-102.343-207.1973-228.5895c0-50.3378,1.1109-102.2067,27.8984-139.9717,40.3951-56.949,105.7546-93.949,179.5108-93.949,70.03,0,132.4902,33.3559,173.1994,85.4726,30.5982,39.1726,33.786,94.2754,33.786,148.4481Z"/><path class="cls-9" d="M743.74084,476.65093c25.0166,50.3364,73.1025,87.857,127.9996,99.9176-.7546-.9912-1.5093-1.9824-2.2639-2.9736.8544,12.1626-.3418,24.6211-1.4238,36.7429-.3528,3.9522,5.8168,3.9284,6.1675,0,1.082-12.1217,2.2782-24.5804,1.4237-36.7429-.0916-1.3039-.8874-2.6712-2.2639-2.9736-53.4778-11.7487-99.9474-48.0551-124.3138-97.0832-1.7666-3.5546-7.0881-.434-5.3254,3.1128h0Z"/><path class="cls-9" d="M1114.36574,484.98463c-21.4685,41.0324-60.7016,71.228-105.8631,81.475-1.3072.2966-2.2693,1.6659-2.264,2.9736.0522,12.7214.1044,25.4429.1565,38.1643.0163,3.9678,6.1838,3.9757,6.1675,0-.0521-12.7214-.1043-25.4429-.1565-38.1643-.7547.9912-1.5093,1.9824-2.264,2.9736,46.6052-10.5746,87.3942-41.9651,109.5491-84.3093,1.8381-3.5133-3.4827-6.6348-5.3255-3.1129h0Z"/><path class="cls-15" d="M1183.96634,370.38373c0-21.8912-.2513-71.9781-15.1442-121.6756-13.3308-44.4849-39.2434-85.2875-78.8745-110.5572-1.9808-1.2628-4.1633-2.1338-6.4388-2.6494-4.5277-20.158-20.2518-37.4211-40.6561-47.1358-28.7839-13.7046-60.4463-21.0972-92.2317-22.7608-54.689-2.8623-109.1921,14.602-151.0439,49.7104-51.9156,31.4871-88.0171,88.737-103.6825,146.6673-13.9812,51.702-14.9903,106.0482-12.4892,159.2136.5842,12.4184,10.5289,24.3956,23.8013,23.8012,12.3945-.5551,24.4278-10.4804,23.8012-23.8012-1.008-21.4308-1.4896-42.8961-.714-64.3433.3688-10.1991,1.0289-20.3888,2.0341-30.5455,1.0398.4124,2.1138.7724,3.2592,1.0101,47.8982,9.9374,95.0133,2.2456,137.8192-16.8094,4.0525,11.2708,16.6959,20.1775,29.0228,15.8949,19.0186-6.6076,35.6544-16.286,50.5364-28.0586.2368.4433.4638.8927.7359,1.3151,7.4044,11.4843,20.5779,14.4134,32.5647,8.5387,37.0589-18.162,66.83-51.7608,81.3048-90.6184.2198.3191.4331.643.6515.9631,33.3246,21.1479,45.6767,26.3483,55.5914,63.501,5.1888,19.4433,20.1495,114.4762,23.2136,146.8028,1.1793,12.4412,37.618,11.9131,37.618,0,0-15.6934-.6792-36.5718-.6792-58.463Z"/><path class="cls-14" d="M748.96574,476.40123c-43.6726,7.0932-77.3878-37.2607-79.4122-72.2781-.6971-16.8302,16.0089-23.8583,35.2101-24.5705,39.6809-2.0334,69.9439,30.09,61.7906,55.5724-2.2594,16.5034-7.2201,39.0147-17.5885,41.2762Z"/><path class="cls-7" d="M736.82334,442.72453c-.2165,2.0588-8.2708,9.198-15.2429,6.0434-8.9353-7.6375,2.1646-20.5877-4.3745-27.8598-6.9721-3.1547-16.1239-8.7333-10.8986-12.1203,10.4505-6.7739,27.8882,12.6185,34.4123-3.1211,2.2828-5.5073,3.4516-12.1999,2.6297-18.7957,5.0632,3.3092,9.4985,7.2376,13.1563,11.5438-.9068,15.8905-10.8963,31.573-19.6823,44.3097Z"/><path class="cls-14" d="M1120.57404,476.40123c43.6726,7.0932,77.3878-37.2607,79.4123-72.2781.697-16.8302-16.6744-26.7885-35.8756-27.5007-39.6808-2.0334-69.2785,33.0202-61.1252,58.5026,2.2595,16.5034,7.2201,39.0147,17.5885,41.2762Z"/><path class="cls-7" d="M1132.71644,442.72453c.2165,2.0588,8.2709,9.198,15.2429,6.0434,8.9354-7.6375-2.1646-20.5877,4.3746-27.8598,6.972-3.1547,16.1238-8.7333,10.8985-12.1203-10.4505-6.7739-27.8882,12.6185-34.4123-3.1211-2.2828-5.5073-3.4516-12.1999-2.6297-18.7957-5.0631,3.3092-9.4985,7.2376-13.1563,11.5438.9068,15.8905,10.8963,31.573,19.6823,44.3097Z"/><path class="cls-9" d="M1011.97954,378.46703c-.3439,11.612,6.4398,19.6627,15.0946,19.9191,8.6548.2563,15.9032-7.3788,16.2471-18.9908.344-11.612-6.4398-19.6627-15.0946-19.919-8.6548-.2564-15.9032,7.3787-16.2471,18.9907Z"/><ellipse class="cls-9" cx="840.90599" cy="373.39995" rx="19.46341" ry="15.67772" transform="translate(442.77293 1202.882) rotate(-88.30339)"/><path class="cls-9" d="M1052.52514,347.55063c-1.9441.4278-4.1148-2.0036-7.1814-4.8946-.3963-.3601-.791-.7377-1.1816-1.1335-.401-.3898-.8939-.7441-1.3317-1.1438-.8436-.8256-1.9133-1.5507-2.9053-2.3893-2.1346-1.5525-4.5063-3.1265-7.16-4.543-2.6878-1.3531-5.3412-2.3849-7.8405-3.235-1.2574-.3274-2.4665-.7837-3.6275-.9974-.5789-.1275-1.1523-.3262-1.7022-.4293-.5483-.0911-1.0845-.1962-1.6074-.3125-4.1297-.8403-7.3674-1.2133-8.1378-3.0487-.3559-.8825.0304-1.9694,1.21-3.2271.2944-.3138.6379-.6377,1.0298-.9698.3962-.3134.8539-.5774,1.3536-.8727,1.0038-.5571,2.1944-1.2261,3.5851-1.5956.693-.2142,1.4307-.4216,2.2096-.6197.7781-.1861,1.5915-.2533,2.4456-.3652,1.718-.2633,3.5356-.178,5.4756-.084,3.8309.3739,7.995,1.4819,11.961,3.5017,3.9349,2.077,7.239,4.8414,9.7517,7.7563,1.1943,1.5311,2.3114,2.9674,3.0861,4.523.401.7624.8145,1.4658,1.1109,2.2089.287.7508.5426,1.4731.7667,2.163.4995,1.3497.6391,2.7081.7619,3.8497.0467.5783.0948,1.1047.0669,1.6091-.0454.5116-.1121.9792-.1991,1.4005-.3482,1.6893-1.0138,2.6313-1.94,2.849Z"/><path class="cls-9" d="M859.53314,331.96663c-.8708,1.7696-4.0493,2.0096-8.2256,2.3349-.5282.0491-1.0704.0858-1.6248.1088-.5559.0301-1.1434.1312-1.7319.1743-1.175.0543-2.4258.2794-3.7118.3973-2.5822.3836-5.3477.8645-8.2204,1.5744-2.8597.7646-5.5147,1.6781-7.9617,2.5884-1.1835.5174-2.3876.924-3.4431,1.4434-.5362.2466-1.0995.4412-1.601.6832-.4966.2476-.9893.4771-1.4756.6891-3.8148,1.7307-6.7142,3.0537-8.3308,1.924-.7738-.5544-1.0584-1.6578-.8176-3.2859.1096-.8226.3674-1.7583.8364-2.7338.457-.9844,1.0042-2.1338,1.8299-3.2029.3983-.5513.8327-1.1215,1.3018-1.7072.4733-.5799,1.0312-1.1038,1.597-1.6768,1.1175-1.1737,2.4857-2.194,3.9512-3.2666,2.9936-2.0138,6.6307-3.7578,10.6746-4.8245,4.0551-1.0168,8.0815-1.2438,11.6747-.9247,1.8011.2322,3.4915.4657,5.0364.9541.772.2289,1.5135.4184,2.2079.6979.6935.2868,1.3491.5765,1.9639.8671,1.2391.5378,2.2734,1.2805,3.1486,1.922.8816.6282,1.5591,1.3235,2.0521,1.991.9967,1.3099,1.28,2.4135.8698,3.2725Z"/><path class="cls-9" d="M907.15854,439.40763c2.5261,12.6818,13.3517,23.0606,25.9551,25.6283,13.2935,2.7083,26.4603-3.6296,33.488-15.1267,3.9351-6.4377,5.6139-13.8413,4.6729-21.328-.295-2.3474-3.0125-3.8338-5.1867-3.3731-2.4765.5247-3.669,2.8326-3.3731,5.1867.1378,1.0961.1746,1.8696.1126,3.2911-.0437.9999-.256,2.8057-.3537,3.2942-.4597,2.2971-1.4189,4.9237-2.3416,6.6461-2.3569,4.4001-5.6785,8.0347-9.7288,10.3755-4.3872,2.5355-8.6398,3.4424-13.6966,2.8243-4.5094-.5513-9.1327-2.671-12.9453-5.8473-4.0349-3.3613-7.0078-8.1875-8.043-13.3847-1.1004-5.5241-9.6608-3.7138-8.5598,1.8136h0Z"/><path class="cls-9" d="M936.18544,391.93823c5.3964,5.8836,2.0781,15.5531-5.7976,16.9164-4.9408.8552-4.5408,8.7171.4411,7.8547,14.9489-2.5872,20.7887-19.5131,10.5252-30.7031-3.4121-3.72-8.5633,2.2311-5.1687,5.932Z"/><circle class="cls-11" cx="823.99532" cy="445.3911" r="48.26493" transform="translate(-97.22275 275.98393) rotate(-17.97241)"/><path class="cls-13" d="M810.48444,429.29213c-2.6878,5.4215-5.3756,10.8429-8.0634,16.2644-.3728.7518-.6,1.4452-.4141,2.2986.1593.7313.6744,1.5341,1.3326,1.9182,1.2982.7574,3.4596.6088,4.2168-.9186,2.6878-5.4214,5.3756-10.8429,8.0634-16.2643.3728-.7519.6-1.4453.4141-2.2987-.1593-.7313-.6744-1.5341-1.3326-1.9181-1.2982-.7575-3.4596-.6088-4.2168.9185h0Z"/><path class="cls-13" d="M835.39254,421.10183c-4.6626,11.3093-9.3252,22.6185-13.9878,33.9278-.6285,1.5244.4763,3.364,1.9584,3.8466,1.6704.5438,3.2166-.4304,3.8465-1.9584,4.6627-11.3093,9.3253-22.6185,13.9879-33.9278.6285-1.5244-.4764-3.364-1.9584-3.8466-1.6705-.5438-3.2166.4304-3.8466,1.9584h0Z"/><circle class="cls-11" cx="1050.57752" cy="445.3911" r="48.26499" transform="translate(215.46031 1222.99357) rotate(-65.93197)"/><path class="cls-13" d="M1040.18714,427.10543c-3.3236,8.4566-6.6473,16.9131-9.9709,25.3697-.6031,1.5345.4581,3.3581,1.9584,3.8466,1.6494.537,3.242-.4203,3.8465-1.9584,3.3237-8.4566,6.6473-16.9131,9.971-25.3697.6031-1.5345-.4581-3.3581-1.9584-3.8466-1.6494-.537-3.242.4203-3.8466,1.9584h0Z"/><path class="cls-13" d="M1063.48654,430.67273c-2.313,5.6622-4.6259,11.3244-6.9389,16.9865-.6053,1.4819.4503,3.4267,1.9584,3.8466,1.6912.471,3.2005-.3769,3.8465-1.9583,2.313-5.6622,4.626-11.3244,6.9389-16.9866.6054-1.4819-.4502-3.4267-1.9583-3.8466-1.6912-.4709-3.2006.3769-3.8466,1.9584h0Z"/><path class="cls-6" d="M1077.68134,113.80463c-14.5964-15.291-33.7337-25.855-53.1241-33.8282-17.6752-7.2681-36.29-11.9542-55.2354-14.3572-18.9216-2.3999-38.145-2.3689-57.0662.0186-18.9749,2.3943-37.6269,7.0073-55.4267,14.0309-17.8294,7.0353-34.7636,16.287-50.0747,27.8392-1.9628,1.481-3.9023,2.9934-5.8178,4.5357-1.3946,1.1232-1.1694,3.5161,0,4.6858,1.3784,1.3784,3.2875,1.126,4.6859,0,14.4139-11.6072,30.5236-21.1037,47.5089-28.4247,16.992-7.3239,35.0221-12.3555,53.2936-15.2107,18.2928-2.8586,36.9889-3.3784,55.4208-1.6686,18.3207,1.6994,36.443,5.7754,53.7137,12.1249,8.7617,3.221,17.2774,7.0718,25.4923,11.5052,9.2988,5.0183,18.2676,10.7687,26.1602,17.8266,2.0029,1.7913,3.9285,3.6648,5.7835,5.6083,2.9507,3.0909,7.6321-1.5996,4.686-4.6858Z"/><path class="cls-6" d="M779.46484,129.89293c-.8213-1.4041-3.0973-2.274-4.5333-1.1888-26.5184,20.0405-46.4617,47.3908-60.397,77.3864-15.6069,33.5934-23.6266,69.9211-28.5194,106.4784-2.937,21.9437-4.7691,44.0136-6.5471,66.0756-.1262,1.5651,1.2172,2.9311,2.6872,3.2449-7.9958,4.0298-14.7626,10.5242-17.8369,19.0895-4.4303,12.3423.708,25.7923,7.2338,36.3533,6.0181,9.7389,13.8848,18.1816,22.9924,25.0908,10.1336,7.6878,21.9117,13.2545,34.3012,16.1453,4.1489.9681,5.9198-5.4198,1.7619-6.3899-19.9673-4.6591-36.3028-18.5236-48.2585-35.225-6.2863-8.7816-12.3721-19.8413-11.0153-31.0263,1.1765-9.6993,6.8842-15.0903,15.4369-18.9369,12.5365-5.6382,27.1862-3.4604,40.1873-.907.8879.1743,1.7916.0424,2.5339-.3636.3375.1184.6834.197,1.0238.197,1.9489,0,3.1231-1.5263,3.3134-3.3134,1.1629-10.9302,2.3261-21.8605,3.4891-32.7908.1896-1.7821-1.6587-3.3134-3.3134-3.3134-1.9492,0-3.1231,1.5263-3.3134,3.3134-1.0516,9.8843-2.1035,19.7687-3.1551,29.6531-12.9203-2.4894-26.774-4.302-39.5037-.0294-.8358.2805-1.6622.5954-2.4828.9257.3016-.506.4945-1.0927.5449-1.7173,3.0856-38.2857,6.3184-76.7609,15.3775-114.1875,7.8576-32.462,20.3109-64.0169,39.7327-91.3683,10.3563-14.5848,22.7821-27.8638,37.071-38.6625,1.4257-1.0772,2.168-2.8594,1.1889-4.5333Z"/><path class="cls-6" d="M1074.45884,209.11023c-1.4169-.8286-3.7965-.4517-4.5336,1.1888-8.7477,19.4717-17.8861,39.2856-31.4266,55.9729-12.1155,14.9312-27.7952,27.5412-46.6261,32.596-11.6392,3.1244-23.9654,3.3399-35.7088.6468-.4106-.0941-.7902-.099-1.1506-.0621,5.1309-6.1838,9.7058-12.8254,13.8304-19.3915,6.7248-10.7057,12.3097-22.0863,16.8093-33.8976.6368-1.6726-.7061-3.6341-2.3142-4.0759-1.8651-.5124-3.4367.6355-4.076,2.3142-7.261,19.0615-17.7321,37.3967-31.1656,52.7974-11.7608,13.4836-27.3758,25.1225-46.0627,24.6608-8.0855-.2-16.068-2.7446-22.2084-7.9806,10.6678-4.8882,20.5342-11.6868,28.0142-20.8038,1.1338-1.3824,1.3525-3.3331,0-4.6859-1.17-1.1699-3.5454-1.3903-4.686,0-13.7618,16.7739-34.739,24.2252-55.2428,28.9645-11.3713,2.6284-22.9063,4.6333-34.4142,6.5572-12.9328,2.162-25.9657,3.9062-39.0888,4.2485-14.552.3797-29.083-1.0846-42.9461-5.6853-4.057-1.3462-5.7965,5.0511-1.7619,6.3901,25.889,8.5918,53.5787,6.4761,80.0845,2.3245,12.1721-1.9065,24.3543-4.0417,36.3951-6.6619,9.1609-1.9936,18.2232-4.4512,26.9632-7.8306,13.4251,13.8373,35.2267,14.4569,51.9991,6.9022,10.3883-4.6792,19.2373-12.1169,26.9005-20.7032-.0337,1.3288.6636,2.6202,2.3591,3.0089,21.7101,4.9787,44.4676.7148,63.0895-11.4263,17.635-11.4976,30.8934-28.3614,41.2345-46.4727,6.3362-11.0969,11.689-22.7151,16.9215-34.362.7329-1.6311.4708-3.5626-1.1885-4.5334Z"/><path class="cls-6" d="M1135.99554,307.82183c-.9565-10.8348-2.5427-21.6182-6.4656-31.8169-3.4522-8.9736-8.233-17.2713-14.1981-24.8063-6.6038-8.342-14.707-15.4791-23.7764-21.0374-3.646-2.2344-6.9788,3.4949-3.3444,5.7221,15.1846,9.3062,27.3506,23.5262,34.1753,39.9915,3.9321,9.4862,5.7962,19.5299,6.7766,29.7122,1.1044,11.4695,1.8166,22.9848,2.6908,34.4739,1.006,13.2134,2.0117,26.4271,3.0177,39.6409.1356,1.7845,1.4253,3.3133,3.3134,3.3133,1.6877,0,3.4499-1.5193,3.3133-3.3133-1.8236-23.956-3.3897-47.948-5.5026-71.88Z"/><path class="cls-6" d="M1041.59524,197.82893c-1.5499-.4258-3.8266.5306-4.0757,2.3142-2.588,18.5371-8.7404,36.4023-18.2126,52.5481-2.1624,3.6862,3.5632,7.0248,5.722,3.3446,9.7402-16.6026,16.2188-35.0642,18.8805-54.1309.2472-1.7701-.4307-3.5585-2.3142-4.076Z"/><path class="cls-6" d="M1185.14094,291.49983c-5.2448-24.1105-11.6369-48.023-21.3564-70.7542-8.7562-20.4775-20.4265-39.8363-35.6641-56.1628-8.3501-8.9463-17.7988-16.8866-28.1583-23.4114-3.6191-2.2794-6.9484,3.4523-3.3447,5.722,17.7275,11.1652,32.3582,26.6867,43.8453,44.118,12.7028,19.2755,21.5658,40.7356,28.2472,62.7625,3.944,13.0024,7.1536,26.2142,10.0411,39.4875.906,4.1653,7.2959,2.4026,6.3899-1.7616Z"/><path class="cls-6" d="M1201.81914,398.71573c-1.5994-6.2239-5.7007-11.6117-10.6212-15.6276-.5267-.43-1.0697-.8348-1.6129-1.2394.0347-.1629.0694-.326.0864-.4947,2.425-23.9821.7828-48.2973-4.7261-71.7609-.9742-4.15-7.3654-2.3933-6.39,1.7617,5.1177,21.798,6.6961,44.2928,4.7989,66.5902-9.8235-5.1257-21.3268-6.697-32.2657-4.2142-4.1569.9435-2.3977,7.334,1.7619,6.3899,10.7296-2.4356,22.2216-.189,31.335,5.9479,4.3126,2.9044,8.3149,6.8743,10.3673,11.7285,2.4203,5.7246,1.6796,12.3472.3022,18.2343-2.7837,11.8955-9.2471,22.5125-15.9945,32.5445-3.3665,5.0051-6.9539,9.8784-11.4849,13.903-3.7615,3.3409-8.1728,6.0482-12.8112,7.9916-10.7222,4.4921-22.873,5.1085-33.9217,1.4683-4.0595-1.3373-5.7997,5.0597-1.7615,6.3903,11.1348,3.6686,23.5117,3.4195,34.5795-.389,5.603-1.9281,10.8756-4.6866,15.5748-8.2986,5.216-4.0094,9.405-8.9672,13.2005-14.3136,7.6907-10.8322,15.0167-22.641,18.5125-35.5719,1.8237-6.7455,2.8342-14.1763,1.0707-21.0403Z"/><path class="cls-10" d="M689.43964,286.51343c156.5767-83.5693,349.9512-74.0094,497.4434,20.5063l53.863-91.6069S1082.48654,4.06863,935.03994,4.06863s-302.3913,200.6267-302.3913,200.6267l56.791,81.8181Z"/><path class="cls-5" d="M632.02814,210.99143c7.7508,11.1665,15.5016,22.333,23.2524,33.4995,8.4194,12.1296,16.8387,24.2593,25.258,36.3889,1.7836,2.5696,3.5672,5.1392,5.3508,7.7088,1.3046,1.8795,3.5339,2.5895,5.6256,1.4751,40.5424-21.6001,84.1355-37.1878,129.1271-46.4358,44.1862-9.0824,89.6023-11.937,134.5923-8.7503,25.1198,1.7793,50.0646,5.4995,74.6249,11.0583,5.1533,1.1663,7.3537-6.76,2.1861-7.9296-22.4867-5.0894-45.3201-8.6556-68.2872-10.6753-22.7253-1.9984-45.5864-2.45-68.3725-1.3421-23.0892,1.1227-46.1154,3.8417-68.8333,8.1159-22.5916,4.2503-44.8859,10.0836-66.6544,17.4725-22.1986,7.535-43.8756,16.6726-64.7574,27.3274-2.6045,1.3289-5.1956,2.6835-7.7761,4.0584,1.8752.4917,3.7503.9833,5.6255,1.475-4.9854-7.1824-9.9708-14.3648-14.9562-21.5472-9.1911-13.2415-18.3822-26.483-27.5733-39.7244-3.7772-5.4419-7.5545-10.8837-11.3318-16.3256-1.2645-1.8219-3.603-2.658-5.6255-1.4751-1.8038,1.0551-2.7475,3.7924-1.475,5.6256h0Z"/><path class="cls-5" d="M1111.53534,272.06053c25.4741,10.6986,49.9947,23.6313,73.2725,38.5095,1.8752,1.1986,4.5334.3823,5.6255-1.4751,6.0394-10.2715,12.0788-20.543,18.1183-30.8145,9.6916-16.4828,19.3831-32.9656,29.0747-49.4485,2.2234-3.7813,4.4467-7.5626,6.67-11.3439.68-1.1565.8524-3.0127,0-4.1505-4.3979-5.8703-9.021-11.5812-13.6736-17.2499-11.5937-14.1258-23.6614-27.8657-36.1154-41.2383-17.2006-18.4693-35.1649-36.2438-53.9972-53.0501-21.0858-18.8173-43.2892-36.4984-66.8823-52.0826-23.2665-15.3685-48.0561-28.7653-74.4205-38.0061-25.2171-8.8387-51.9598-13.4218-78.6872-11.1208-30.3755,2.6151-59.588,12.6416-86.8122,26.0455-28.3983,13.982-54.7785,31.7862-79.6693,51.2655-23.0276,18.0212-44.771,37.6689-65.4393,58.3429-15.2216,15.2257-29.8846,31.0224-43.8858,47.3783-2.2297,2.6046-4.441,5.2249-6.6326,7.8616-3.3596,4.0418,2.4272,9.8902,5.8147,5.8147,11.77-14.1602,24.0844-27.8718,36.7967-41.1909,19.0052-19.9126,38.9534-38.952,59.9612-56.745,23.5756-19.9677,48.5659-38.4074,75.3277-53.8977,26.1203-15.119,54.1567-27.5377,83.8366-33.6087,26.3845-5.397,53.0888-4.5253,79.1225,2.2515,26.2131,6.8234,50.9213,18.5207,74.1101,32.3736,23.9297,14.2956,46.3737,30.9875,67.6471,48.9698,19.7934,16.7312,38.6194,34.5987,56.6284,53.2315,14.0155,14.501,27.548,29.4742,40.5502,44.8905,4.219,5.0024,8.3821,10.0524,12.4711,15.1617,1.3855,1.7314,2.7626,3.4695,4.1279,5.2169.2404.3077.4802.6158.7201.9238.165.2119.9664,1.2482.4475.5762-.4853-.6284.5103.6642.7432.9693.2709.355.5421.7099.8098,1.0673v-4.1505c-6.0394,10.2715-12.0788,20.543-18.1183,30.8145-9.6915,16.4828-19.3831,32.9657-29.0747,49.4485-2.2233,3.7813-4.4467,7.5626-6.67,11.3439,1.8752-.4917,3.7503-.9833,5.6255-1.475-23.9039-15.2784-49.0855-28.3555-75.2368-39.3385-2.0638-.8667-4.5016.9346-5.0579,2.8718-.6785,2.3631.8349,4.2023,2.8718,5.0578h0Z"/><path class="cls-9" d="M944.93784,776.47143c20.2211-6.8899,38.8859-17.3728,58.4133-25.8943,5.448-2.3775,10.98-4.5605,16.6071-6.4778,1.6902-.5759,3.1106-2.8268,1.8429-4.53-6.0142-8.0803-12.0284-16.1607-18.0425-24.241-1.1609,1.51-2.3217,3.02-3.4825,4.53,19.0717,3.2564,38.1434,6.5128,57.2151,9.7692,2.4483.418,4.1909-1.3599,3.7933-3.7934-3.0497-18.6688-7.3892-37.146-13.2126-55.1481-5.7156-17.6688-12.8442-35.003-22.0471-51.156-.5049-.8862-.9728-1.6434-1.8201-2.2495-.2657-.19-.5415-.3672-.8118-.5505-1.0626-.7205-2.1251-1.4411-3.1876-2.1616-1.708-1.1582-3.416-2.3165-5.124-3.4747-1.379-.9352-3.4183-.263-4.2192,1.1063-.8897,1.5211-.2759,3.2818,1.1063,4.2191,3.0727,2.0837,6.1454,4.1673,9.2181,6.251-.3688-.3687-.7376-.7375-1.1063-1.1063,7.093,12.303,12.9433,25.2846,17.8463,38.6044,5.154,14.0013,9.3122,28.3659,12.6402,42.9068,1.8492,8.0798,3.4344,16.2185,4.7707,24.3986l3.7933-3.7933-57.2151-9.7692c-1.2424-.2121-2.4453.0397-3.2414,1.1051-.6753.9038-.978,2.4349-.2411,3.4249,6.0142,8.0804,12.0284,16.1607,18.0426,24.2411l1.8429-4.53c-20.2211,6.8899-38.8859,17.3728-58.4132,25.8943-5.448,2.3775-10.9801,4.5604-16.6072,6.4777-1.5758.537-2.6139,2.1189-2.1538,3.7934.4219,1.5352,2.21,2.6933,3.7934,2.1538h0Z"/><path class="cls-9" d="M936.17454,770.52493c-19.998-6.8138-38.4284-17.2624-57.7676-25.6324-5.6689-2.4534-11.4047-4.7471-17.2528-6.7396.6143,1.51,1.2287,3.02,1.843,4.53,6.0142-8.0804,12.0284-16.1607,18.0425-24.2411.7185-.9652.4479-2.56-.241-3.4249-.824-1.0344-1.966-1.3229-3.2415-1.1051-19.0717,3.2564-38.1434,6.5128-57.2151,9.7692,1.2645,1.2644,2.5289,2.5289,3.7934,3.7933,2.3791-14.5633,5.5487-29.0009,9.5844-43.1961,4.0088-14.1004,8.8437-28.0054,14.8352-41.3912,3.2589-7.281,6.853-14.4111,10.8376-21.3225l-1.1063,1.1063c3.0727-2.0837,6.1454-4.1673,9.218-6.251,1.3768-.9336,1.9871-2.7134,1.1063-4.2191-.7985-1.3654-2.8343-2.0454-4.2191-1.1063-3.0521,2.0697-6.1632,4.0718-9.1643,6.2145-1.5921,1.1367-2.4779,3.4395-3.4063,5.1306-1.0799,1.967-2.1294,3.9506-3.1495,5.9493-2.0762,4.0679-4.0327,8.1965-5.8815,12.3726-7.6974,17.3879-13.6541,35.5116-18.2302,53.9593-2.5497,10.2786-4.6642,20.6629-6.3715,31.1141-.3975,2.4335,1.3451,4.2114,3.7934,3.7933,19.0717-3.2563,38.1434-6.5127,57.2151-9.7691-1.1608-1.51-2.3217-3.02-3.4825-4.53-6.0142,8.0803-12.0284,16.1607-18.0426,24.241-1.2677,1.7032.1528,3.9541,1.843,4.53,19.9979,6.8139,38.4283,17.2624,57.7676,25.6324,5.6688,2.4535,11.4047,4.7471,17.2528,6.7397,1.5763.5371,3.3709-.6164,3.7933-2.1538.4643-1.6895-.5716-3.2543-2.1538-3.7934h0Z"/><path class="cls-9" d="M868.88084,614.80343c-.9652,57.8607,22.3794,114.9726,63.5796,155.6052,2.7519,2.7139,6.9974-1.526,4.2427-4.2427-40.1141-39.5613-62.762-95.0328-61.8223-151.3625.0644-3.8624-5.9356-3.8633-6,0h0Z"/><path class="cls-9" d="M1006.47894,607.59753c-.6363,15.8173-2.167,31.6854-4.5084,47.3362-1.7582,11.7532-3.9362,23.588-7.7403,34.8724-4.4582,13.2246-12.4818,25.5145-20.9124,36.5297-11.6054,15.163-25.7524,28.3028-41.6062,38.9214-3.1923,2.1381-.192,7.3377,3.0283,5.1808,26.3798-17.6687,50.4938-43.2544,62.9333-72.83,9.1675-21.7962,11.4547-46.9227,13.4764-70.2689.5688-6.5681,1.0642-13.153,1.3293-19.7416.1553-3.8611-5.845-3.8541-6,0h0Z"/><path class="cls-9" d="M939.29644,838.93013v-51.0816c0-3.9686-6.1675-3.975-6.1675,0v51.0816h6.1675Z"/><path class="cls-9" d="M858.72494,615.68293c-40.3616,1.7456-77.8901,17.9585-106.6925,46.2815-28.5608,28.0854-47.1466,64.3628-60.4353,101.7511-8.5486,24.052-15.0889,48.7482-21.6102,73.4079-.9882,3.7365,4.7978,5.3305,5.7856,1.595,19.5473-73.9155,43.4995-159.7845,116.0142-199.0377,20.5722-11.1359,43.6219-16.9894,66.9382-17.9978,3.8463-.1663,3.8671-6.1672,0-6h0Z"/><path class="cls-9" d="M1017.37824,619.36953c38.3976,3.8668,77.2307,16.7255,106.3611,42.8304,30.715,27.5251,49.5033,65.5557,61.9898,104.2739,7.7667,24.0829,13.3874,48.7796,18.994,73.4334.8559,3.7636,6.6421,2.1707,5.7857-1.5951-9.998-43.9632-20.2605-88.6649-42.2262-128.4718-19.5688-35.4631-47.9736-64.2291-85.4893-80.269-20.8055-8.8954-42.9448-13.9389-65.4151-16.2018-3.8385-.3866-3.8116,5.6161,0,6h0Z"/></g></g></g></svg>