<svg xmlns="http://www.w3.org/2000/svg" width="106" height="48.551" viewBox="0 0 106 48.551">
  <g id="Group_299" data-name="Group 299" transform="translate(-1078 -1854.676)">
    <g id="stethoscope" transform="translate(1109.369 1845.424) rotate(30)">
      <path id="Path_1219" data-name="Path 1219" d="M22.688,36.506a4.183,4.183,0,1,1,1.6-8.049l1.36-1.36a.535.535,0,1,1,.756.756l-1.16,1.16a4.218,4.218,0,0,1,.756.756l1.16-1.16a5.161,5.161,0,0,1,5.244-1.7c1.741.443,3.54,1.676,5.711,3.241,2.54,1.832,5.166,3.725,7.973,3.725a5.22,5.22,0,0,0,3.691-8.912l-.513-.513a4.592,4.592,0,0,1-.756.756l.513.513A4.151,4.151,0,0,1,46.087,32.8c-2.462,0-4.946-1.791-7.348-3.523a20.147,20.147,0,0,0-5.931-3.37,5.81,5.81,0,0,0-4.863.689.535.535,0,0,1-.57-.905,6.915,6.915,0,0,1,5.714-.816,20.884,20.884,0,0,1,6.275,3.535c2.265,1.633,4.606,3.321,6.722,3.321a3.082,3.082,0,0,0,2.179-5.261l-.695-.695a5.283,5.283,0,0,1-3.6.242c-14.164-3.842-18.177-7.7-19.308-9.663-1.333-2.308-.221-5.173,1-6.489a3.168,3.168,0,0,1,.724-1.4c.217-.217,1.03-.818,2.393.545s.762,2.176.545,2.393a3.15,3.15,0,0,1-1.379.719,3.245,3.245,0,0,0-.577,1.2,1.948,1.948,0,0,0,.076,1.425.535.535,0,1,1-.926.535,3.658,3.658,0,0,1,.426-3.607l-.764-.764a5.588,5.588,0,0,0-.913,2,4,4,0,0,0,.325,2.9c.678,1.174,3.072,3.868,11.391,6.893a9.026,9.026,0,0,0,2.451-.287,59.884,59.884,0,0,1-6-2.322,24.772,24.772,0,0,1-5.447-3.221.535.535,0,1,1,.684-.822c1.435,1.194,4.861,3.4,12.411,5.773A10.038,10.038,0,0,0,45.9,17.018c-.363-1.157-.734-2.256-1.111-3.289a.535.535,0,0,1,1-.366q.353.968.7,2.009a9,9,0,0,0,.288-2.405c-1.724-4.745-4.129-9.84-6.894-11.436a4,4,0,0,0-2.9-.325,5.588,5.588,0,0,0-2,.913l.764.765a3.658,3.658,0,0,1,3.607-.426c.628.363,2.891,2.07,5.634,8.808a.535.535,0,1,1-.99.4c-2.682-6.589-4.784-8.058-5.178-8.285a1.948,1.948,0,0,0-1.425-.076,3.247,3.247,0,0,0-1.2.577,3.15,3.15,0,0,1-.719,1.379c-.217.217-1.03.818-2.393-.545a3.068,3.068,0,0,1-.8-1.176,1.163,1.163,0,0,1,.251-1.217,3.168,3.168,0,0,1,1.4-.724C35.246.383,38.111-.729,40.419.6c1.96,1.131,5.821,5.144,9.663,19.308a5.282,5.282,0,0,1-.242,3.6l.695.695a6.29,6.29,0,0,1-4.448,10.737c-3.152,0-5.921-2-8.6-3.927a18.37,18.37,0,0,0-5.35-3.072,4.135,4.135,0,0,0-4.224,1.422l-1.36,1.36a4.183,4.183,0,0,1-3.866,5.781Zm0-7.3A3.114,3.114,0,1,0,25.8,32.323,3.117,3.117,0,0,0,22.688,29.209Zm16.69-5.668c1.467.479,3.086.963,4.875,1.448a3.771,3.771,0,0,0,4.8-4.8c-.34-1.255-.832-2.966-1.453-4.854a10.536,10.536,0,0,1-.56,1.744q.5,1.626.981,3.389a2.707,2.707,0,0,1-3.486,3.486q-1.765-.479-3.39-.981a10.539,10.539,0,0,1-1.765.564Zm3.147-1.264q1.092.323,2.288.648a1.65,1.65,0,0,0,2.174-2.174q-.318-1.173-.648-2.288a11.136,11.136,0,0,1-3.813,3.813ZM26.743,9.971l1.08,1.08a1.942,1.942,0,0,0,.743-.4l.006-.007c.016-.037-.015-.338-.551-.874s-.837-.567-.874-.551,0,0-.007.006A1.94,1.94,0,0,0,26.743,9.971Zm7.288-7.288a1.941,1.941,0,0,0-.743.4l-.006.007c-.016.037.015.338.551.874s.837.567.874.551,0,0,.007-.006a1.949,1.949,0,0,0,.4-.743Z" transform="translate(0 0)" fill="#f7c4cd"/>
    </g>
    <g id="thermometer" transform="translate(1095.321 1865.895)">
      <g id="Group_285" data-name="Group 285" transform="translate(64.679 0)">
        <path id="Path_1220" data-name="Path 1220" d="M73.508,24.791a.47.47,0,0,0-.941-.018c-.025,1.3-.011,2.648.04,4.022H66.043a18.763,18.763,0,0,1,.61-9.829l0-.012a30.543,30.543,0,0,0,1.5-5.65,3.148,3.148,0,0,0-.78-2.361,3.092,3.092,0,0,1-.691-1.987A25.3,25.3,0,0,1,67.878,1.8,1.242,1.242,0,0,1,69.127.943l1.853.1A.47.47,0,0,0,71.031.1L69.178,0a2.184,2.184,0,0,0-2.195,1.5,25.875,25.875,0,0,0-1.237,7.433,4.034,4.034,0,0,0,.9,2.593,2.208,2.208,0,0,1,.578,1.655,30.349,30.349,0,0,1-1.454,5.45,19.218,19.218,0,0,0-.547,10.75c.038.141.21.7.256.835.091.266.189.527.294.781a1.779,1.779,0,0,0,1.647,1.107h4.42a1.778,1.778,0,0,0,1.777-1.727c0-.052,0-.1,0-.154C73.514,28.432,73.474,26.6,73.508,24.791ZM72.451,30.91a.83.83,0,0,1-.609.263h-4.42a.842.842,0,0,1-.778-.525c-.124-.3-.234-.6-.333-.911h6.338c0,.008.027.516.029.549A.831.831,0,0,1,72.451,30.91Z" transform="translate(-64.679 0)" fill="#f7c4cd"/>
        <path id="Path_1221" data-name="Path 1221" d="M200.977,3.953l-8.654-.462a.47.47,0,0,0-.051.939l6.821.367v7.318a9.174,9.174,0,0,0-5.1,4.258c-1.217,1.858-1.963,5.038-2.217,9.454a.47.47,0,0,0,.443.5h.027a.47.47,0,0,0,.469-.443,34.535,34.535,0,0,1,.624-5.092h1.892a1.356,1.356,0,0,0,1.336-1.587,34.542,34.542,0,0,1-.327-4.253,6.789,6.789,0,0,1,3.41-2l1.416-.225a1.344,1.344,0,0,0,1.188-1.337V5.3a1.345,1.345,0,0,0-1.278-1.345ZM195.549,19.7a.409.409,0,0,1-.317.147h-1.67a10.139,10.139,0,0,1,1.228-2.975c.008-.013.016-.026.023-.039a7.751,7.751,0,0,1,.523-.809,29.215,29.215,0,0,0,.3,3.336A.413.413,0,0,1,195.549,19.7Zm5.765-8.315a.4.4,0,0,1-.362.4l-.919.146V4.847l.9.046a.405.405,0,0,1,.385.405Z" transform="translate(-183.805 -3.272)" fill="#f7c4cd"/>
        <path id="Path_1222" data-name="Path 1222" d="M119.048,35.741a17.78,17.78,0,0,0-.871,4.887,1.109,1.109,0,0,0,1.222,1.113l8.612-.879a1.106,1.106,0,0,0,1-1.1V36.076a1.11,1.11,0,0,0-1.109-1.109h-7.793A1.1,1.1,0,0,0,119.048,35.741Zm9.018.334v3.683a.167.167,0,0,1-.151.167L119.3,40.8a.164.164,0,0,1-.129-.043.17.17,0,0,1-.056-.128,17.187,17.187,0,0,1,.827-4.609.167.167,0,0,1,.16-.117H127.9A.168.168,0,0,1,128.066,36.076Z" transform="translate(-114.822 -32.774)" fill="#f7c4cd"/>
        <path id="Path_1223" data-name="Path 1223" d="M156.353,62.8a1.5,1.5,0,1,0-1.5-1.5A1.5,1.5,0,0,0,156.353,62.8Zm0-2.056a.558.558,0,1,1-.558.558A.559.559,0,0,1,156.353,60.747Z" transform="translate(-149.199 -56.055)" fill="#f7c4cd"/>
        <path id="Path_1224" data-name="Path 1224" d="M216.956,62.8a1.5,1.5,0,1,0-1.5-1.5A1.5,1.5,0,0,0,216.956,62.8Zm0-2.056a.558.558,0,1,1-.558.558A.559.559,0,0,1,216.956,60.747Z" transform="translate(-206.001 -56.055)" fill="#f7c4cd"/>
        <path id="Path_1225" data-name="Path 1225" d="M409.82,25.3a.47.47,0,0,0-.6.728,3.509,3.509,0,0,1,.043,5.4.47.47,0,1,0,.607.719,4.45,4.45,0,0,0-.055-6.846Z" transform="translate(-387.455 -23.616)" fill="#f7c4cd"/>
        <path id="Path_1226" data-name="Path 1226" d="M394.2,56.4a.47.47,0,1,0-.6.728.974.974,0,0,1,.012,1.5.47.47,0,1,0,.607.719A1.915,1.915,0,0,0,394.2,56.4Z" transform="translate(-372.812 -52.761)" fill="#f7c4cd"/>
      </g>
    </g>
    <g id="Layer_3" transform="translate(758.956 1829.999)">
      <g id="Group_296" data-name="Group 296" transform="translate(319.044 31.002)">
        <g id="Group_287" data-name="Group 287" transform="translate(13.473 0)">
          <g id="Group_286" data-name="Group 286">
            <path id="Path_1229" data-name="Path 1229" d="M816.264,71.477a2.146,2.146,0,0,1-2.147-2.192l.488-21.975a.821.821,0,0,0-.432-.745,6.518,6.518,0,0,1-2.67-2.957,10.427,10.427,0,0,1-1-4.554,9.927,9.927,0,0,1,1.612-5.6,6.12,6.12,0,0,1,1.821-1.772,4.346,4.346,0,0,1,4.662,0,6.121,6.121,0,0,1,1.821,1.772,9.927,9.927,0,0,1,1.612,5.6,10.426,10.426,0,0,1-1,4.554,6.518,6.518,0,0,1-2.67,2.957.821.821,0,0,0-.432.745l.488,21.975a2.146,2.146,0,0,1-2.147,2.192Zm0-39.159A3.825,3.825,0,0,0,813.2,34.2a8.605,8.605,0,0,0-1.379,4.855c0,2.84,1.2,5.393,2.98,6.353a2.131,2.131,0,0,1,1.124,1.933l-.488,21.975a.832.832,0,1,0,1.664,0l-.488-21.975a2.131,2.131,0,0,1,1.124-1.933c1.782-.96,2.98-3.513,2.98-6.353a8.6,8.6,0,0,0-1.379-4.855A3.825,3.825,0,0,0,816.264,32.318Z" transform="translate(-810.501 -31.002)" fill="#f7c4cd"/>
          </g>
        </g>
        <g id="Group_295" data-name="Group 295" transform="translate(0 0.636)">
          <g id="Group_289" data-name="Group 289">
            <g id="Group_288" data-name="Group 288">
              <path id="Path_1230" data-name="Path 1230" d="M323.7,94.362a2.142,2.142,0,0,1-2.143-2.194l.476-18.992a2.955,2.955,0,0,0-.929-2.223l-.446-.42a5.153,5.153,0,0,1-1.616-3.738V54.863a.658.658,0,1,1,1.316,0V66.795a3.832,3.832,0,0,0,1.2,2.78l.446.42a4.273,4.273,0,0,1,1.342,3.214L322.874,92.2a.828.828,0,1,0,1.655,0l-.476-18.992a4.273,4.273,0,0,1,1.342-3.214l.446-.42a3.832,3.832,0,0,0,1.2-2.78V54.863a.658.658,0,1,1,1.316,0V66.795a5.153,5.153,0,0,1-1.616,3.738l-.446.42a2.955,2.955,0,0,0-.929,2.223l.476,18.992a2.142,2.142,0,0,1-2.143,2.194Z" transform="translate(-319.044 -54.205)" fill="#f7c4cd"/>
            </g>
          </g>
          <g id="Group_294" data-name="Group 294" transform="translate(2.67 0.051)">
            <g id="Group_291" data-name="Group 291">
              <g id="Group_290" data-name="Group 290">
                <path id="Path_1231" data-name="Path 1231" d="M417.1,66.284a.658.658,0,0,1-.658-.658V56.741a.658.658,0,0,1,1.316,0v8.885A.658.658,0,0,1,417.1,66.284Z" transform="translate(-416.442 -56.083)" fill="#f7c4cd"/>
              </g>
            </g>
            <g id="Group_293" data-name="Group 293" transform="translate(2.66)">
              <g id="Group_292" data-name="Group 292">
                <path id="Path_1232" data-name="Path 1232" d="M514.112,66.284a.658.658,0,0,1-.658-.658V56.741a.658.658,0,0,1,1.316,0v8.885A.658.658,0,0,1,514.112,66.284Z" transform="translate(-513.454 -56.083)" fill="#f7c4cd"/>
              </g>
            </g>
          </g>
        </g>
      </g>
    </g>
  </g>
</svg>
