<svg xmlns="http://www.w3.org/2000/svg" xmlns:xlink="http://www.w3.org/1999/xlink" width="35.461" height="35.46" viewBox="0 0 35.461 35.46"><defs><filter id="a" x="0" y="1.69" width="33.77" height="33.77" filterUnits="userSpaceOnUse"><feOffset dy="3" input="SourceAlpha"/><feGaussianBlur stdDeviation="3" result="b"/><feFlood flood-color="#fff" flood-opacity="0.478"/><feComposite operator="in" in2="b"/><feComposite in="SourceGraphic"/></filter><filter id="c" x="7.32" y="0" width="28.141" height="28.141" filterUnits="userSpaceOnUse"><feOffset dy="3" input="SourceAlpha"/><feGaussianBlur stdDeviation="3" result="d"/><feFlood flood-color="#fff" flood-opacity="0.478"/><feComposite operator="in" in2="d"/><feComposite in="SourceGraphic"/></filter></defs><g transform="translate(9.5 6.567)"><g transform="matrix(1, 0, 0, 1, -9.5, -6.57)" filter="url(#a)"><path d="M11.018,53.743H3.752A3.756,3.756,0,0,1,0,49.991V42.725a3.756,3.756,0,0,1,3.752-3.752H4.883a.624.624,0,1,1,0,1.249H3.752a2.506,2.506,0,0,0-2.5,2.5v7.267a2.506,2.506,0,0,0,2.5,2.5h7.267a2.506,2.506,0,0,0,2.5-2.5V48.859a.624.624,0,1,1,1.249,0v1.132A3.756,3.756,0,0,1,11.018,53.743Z" transform="translate(9.5 -30.78)" fill="#fff" stroke="#707070" stroke-width="1"/></g><g transform="matrix(1, 0, 0, 1, -9.5, -6.57)" filter="url(#c)"><path d="M215.5,8.829a.607.607,0,0,1,0-.859L223.291.178a.607.607,0,1,1,.859.859l-7.793,7.793A.607.607,0,0,1,215.5,8.829Z" transform="translate(-198.43 6.57)" fill="#fff" stroke="#707070" stroke-width="1"/></g><path d="M293.911,6.618a.605.605,0,0,1-.178-.429V1.214h-4.974a.607.607,0,0,1,0-1.214h5.582a.607.607,0,0,1,.607.607V6.189a.607.607,0,0,1-1.037.429Z" transform="translate(-278.555 0)" fill="#fff" stroke="#707070" stroke-width="1"/></g></svg>