<?xml version="1.0" encoding="UTF-8"?><svg id="_レイヤー_2" xmlns="http://www.w3.org/2000/svg" viewBox="0 0 146.66498 205.4512"><defs><style>.cls-1{fill:#fae6df;}.cls-1,.cls-2,.cls-3,.cls-4{stroke-width:0px;}.cls-2{fill:#f0debb;}.cls-3{fill:#e1d0b0;}.cls-4{fill:#8b511a;}</style></defs><g id="dsgn"><path class="cls-2" d="M40.51358,186.8868l-7.042-4.4219s-11.6259,13.813-10.8007,20.3369l4.2177,2.6494c6.2344-2.0928,13.625-18.5644,13.625-18.5644Z"/><path class="cls-2" d="M106.67668,186.8868l7.042-4.4219s11.625,13.813,10.80082,20.3369l-4.21872,2.6494c-6.2334-2.0928-13.6241-18.5644-13.6241-18.5644Z"/><path class="cls-2" d="M108.18938,66.2662c-.2217-.1338-.29288-.4234-.1601-.6441l19.2851-32.0625c.1319-.2207.4229-.293.6436-.1601l3.5928,2.1611c.22072.1328.2929.4224.1601.6431l-19.2861,32.0634c-.1328.2207-.4219.293-.6426.1602l-3.5928-2.1611Z"/><path class="cls-1" d="M98.37298,32.7613c6.3174-2.208,19.084,1.4614,28.2276,6.9609,9.1435,5.499,18.3681,15.0571,19.37792,21.6734,1.02928,6.729-4.18852,12.2968-4.18852,12.2968-6.6357-.1958-13.5859-4.1865-27.749-11.894-.26948-.1489-.7998-.4634-1.0557-.6358-13.3769-9.0009-20.2304-13.1679-23.5127-18.9375,0,0,2.4727-7.2187,8.9004-9.4638Z"/><path class="cls-2" d="M24.14734,31.73667h4.19301c.2584,0,.46819.20979.46819.46819v37.4166c0,.25858-.20994.46852-.46852.46852h-4.19362c-.25853,0-.46843-.2099-.46843-.46843v-37.41549c0-.25906.21032-.46938.46938-.46938Z" transform="translate(-22.48777 20.8108) rotate(-31.02639)"/><path class="cls-1" d="M47.73918,32.7613c-6.3174-2.208-19.083,1.4614-28.2275,6.9609C10.36909,45.2212,1.1445,54.7793.13469,61.3956c-1.03018,6.729,4.1875,12.2968,4.1875,12.2968,6.6368-.1958,13.5879-4.1865,27.75-11.894.2705-.1489.7989-.4634,1.0547-.6358,13.377-9.0009,20.2324-13.1679,23.5137-18.9375,0,0-2.4727-7.2187-8.9014-9.4638Z"/><path class="cls-2" d="M22.11808,36.4185c6.4405-4.9185,8.1973-6.3237,8.666-11.9443.4678-5.6206-1.288-9.0171,1.9913-12.6465,3.0136-3.3394,16.7226-9.7466,25.1914-10.7549.7422-.0884,11.3076-1.0728,15.0898-1.0728,3.8565,0,14.5352.9971,15.3858,1.1094,8.4892,1.1206,21.916,7.418,24.8964,10.7183,3.2784,3.6294,1.5215,7.0259,1.9912,12.6465.4678,5.6206,2.2237,7.0258,8.6641,11.9443,6.44042,4.917,8.90042,7.9624,8.90042,7.9624-2.92772.2344-14.63772-8.0801-19.67382-12.7642-5.03518-4.684-4.2149-12.061-4.0987-14.4028.1182-2.3423-3.7461-4.9184-10.18648-7.3769-6.44042-2.46-19.37112-2.8111-25.87892-2.8111s-19.4385.3511-25.8789,2.8111c-6.4404,2.4585-10.3047,5.0346-10.1875,7.3769.1172,2.3418.9365,9.7188-4.0986,14.4028-5.0352,4.6841-16.74508,12.9986-19.6729,12.7642,0,0,2.459-3.0454,8.8994-7.9624Z"/><path class="cls-1" d="M146.66498,125.7647c0-40.356-32.7148-73.0703-73.0703-73.0703S.52539,85.4087.52539,125.7647s32.7138,73.0688,73.0693,73.0688,73.0703-32.7143,73.0703-73.0688Z"/><circle class="cls-3" cx="73.59468" cy="125.7647" r="64.4043"/><path class="cls-2" d="M130.97358,125.7647c0-31.6899-25.6885-57.3784-57.3789-57.3784s-57.3779,25.6885-57.3779,57.3784,25.6884,57.3784,57.3779,57.3784,57.3789-25.6899,57.3789-57.3784Z"/><path class="cls-4" d="M79.91888,125.7647c0-3.4927-2.832-6.3237-6.3242-6.3237s-6.32318,2.831-6.32318,6.3237c0,3.4922,2.831,6.3227,6.32318,6.3227s6.3242-2.8305,6.3242-6.3227Z"/><path class="cls-4" d="M56.30658,110.1187c-3.1045-1.7007-15.8945-6.1445-19.9805-7.5474,3.0625,3.0454,12.6993,12.5572,15.5957,14.5913,3.462,2.4302,20.8428,9.9366,20.8428,9.9366l1.6621-2.6704s-14.4111-12.2779-18.1201-14.3101Z"/><path class="cls-4" d="M99.23528,112.4986c3.6905-2.4575,16.7774-12.7505,20.9444-16.0396-4.7686,2.3316-19.7139,9.6719-23.5254,11.9351-4.5537,2.7036-23.5489,16.5928-23.5489,16.5928l.9786,1.5551s20.7441-11.1093,25.1513-14.0434Z"/><path class="cls-4" d="M73.28118,177.9019c-.3486,0-1.4863-.1621-1.4863-2.2549v-1.0293c0-1.2636.8594-2.2553,1.957-2.2583,1.0977,0,1.9629.9859,1.9727,2.2437l.0068,1.0337c.0039.7568-.2236,1.4214-.624,1.8247-.2813.2827-.6455.4384-1.0254.4384l-.8008.002ZM48.45898,171.4444l-.3047-.1587-.7129-.4111c-.336-.1934-.5821-.5225-.6895-.9229-.14838-.5586-.0195-1.2441.35162-1.8804l.51758-.8916c.4746-.812,1.1709-1.2959,1.8662-1.2959.2549,0,.5049.0664.7217.1919l1.0937.625.1719.5269c.1377.4971-.0137,1.1391-.4502,1.9082l-.5088.897c-.8008,1.4116-1.5147,1.4116-1.75,1.4116h-.3066ZM98.90818,171.0816c-.76568,0-1.5069-.4619-1.9346-1.2056l-.5156-.8916c-.6299-1.0947-.3809-2.3823.5674-2.9336.2675-.1557.57812-.2387.8964-.2387.7588,0,1.5.4585,1.93272,1.1967l.52238.8863c.333.5654.43562,1.2231.2832,1.8051-.1279.4903-.4277.8946-.8457,1.1387-.2734.1592-.58688.2427-.9062.2427ZM30.21768,152.9224c-.7207,0-1.3505-.3423-1.6845-.915-.2432-.42-.30468-.9204-.1739-1.4102.1543-.5815.5684-1.1025,1.1348-1.4287l.8936-.5166c.3935-.2261.8271-.3452,1.25482-.3452.72078,0,1.34868.3408,1.67968.9121.5518.9443.1328,2.1885-.957,2.8286l-.88868.5225c-.39062.2304-.82612.3525-1.25882.3525ZM117.14058,152.6294c-.4287,0-.8604-.1196-1.249-.3457l-.8936-.52c-1.0859-.6333-1.5137-1.8721-.9717-2.8208.3311-.5771.961-.9209,1.6866-.9209.4238,0,.8545.1167,1.2431.3379l.89752.5112c1.09758.628,1.52638,1.8702.98048,2.8301-.336.5825-.9678.9282-1.6934.9282ZM23.70108,127.9307c-1.2558,0-2.2402-.8613-2.2441-1.9609-.001-.4829.1953-.9473.5537-1.3057.42482-.4267,1.044-.6709,1.6983-.6709h1.0312c1.2637,0,2.2549.8589,2.2578,1.9551.0059,1.0898-.97648,1.957-2.2363,1.9717l-1.0606.0107ZM122.44428,127.5933c-.5889,0-1.3896-.102-1.8672-.5854l-.3437-.3487-.041-.5874-.004-.8188c-.00288-.9815.9405-1.6934,2.2442-1.7036l1.0312-.0088c1.3028,0,2.26272.751,2.2666,1.7475l.002.8653c-.0078.5488-.3125,1.4399-2.25588,1.4399h-1.03222ZM31.44918,103.5552c-.4238,0-.8545-.1167-1.2422-.3374l-.89648-.5088c-.64262-.3657-1.09762-.895-1.25-1.4511-.10842-.3985-.06052-.8052.13278-1.146l.4014-.6988c.2363-.4013.6611-.6342,1.1436-.6342.53322,0,1.1289.2812,1.5341.517l.8887.5171c1.0889.6333,1.5166,1.8726.9736,2.8213-.33.5767-.9599.9209-1.6855.9209ZM115.36518,103.2383c-.6094,0-1.1172-.2705-1.3906-.7422l-.3926-.6728c-.27148-.4585-.4824-1.3838,1.2031-2.3867l.8897-.5269c.4072-.2417,1.0068-.5307,1.541-.5307.4766,0,.8994.2304,1.1308.6171l.4151.71c.1953.333.2461.7412.1406,1.1416-.1474.5591-.5996,1.0913-1.2373,1.4609l-.8926.5176c-.4638.2666-.96288.4121-1.4072.4121ZM49.15618,85.8379c-.6914,0-1.38868-.4785-1.8642-1.2797l-.5264-.8907c-.375-.6342-.5088-1.3193-.3643-1.8784.1045-.4014.3487-.7319.6885-.9307l.9688-.5668.3554-.0098c.2344,0,.9463,0,1.752,1.3999l.5156.8906c1.0156,1.7588.2578,2.4551-.1152,2.6734-.1387.0786-.4356.2514-.67088.3916-.22762.1333-.47952.2006-.73932.2006ZM97.65428,85.6153c-.253,0-.5-.0645-.7149-.1875l-.6865-.3921c-.1992-.1123-.8613-.5835-.5557-1.6958.0821-.2969.2256-.6318.4141-.9688l.5068-.9018c.4639-.8228,1.1641-1.313,1.8741-1.313.2548,0,.5039.0654.7226.189l.7031.4018c.4717.2783,1.0977.9859.1202,2.6753l-.51758.8945c-.47272.813-1.16992,1.2984-1.86622,1.2984ZM73.37888,79.1675c-1.0918,0-1.9571-.9834-1.9688-2.2392l-.0107-1.0323c-.00688-.6611.2324-1.2861.6553-1.7143.3525-.3565.8095-.5537,1.2871-.5547,1.09272,0,1.956.9819,1.9726,2.2354l.0137,1.0322c.0107.6572-.22558,1.2827-.6494,1.7134-.3535.3593-.8125.5586-1.294.5595h-.0058Z"/></g></svg>