<svg xmlns="http://www.w3.org/2000/svg" xmlns:xlink="http://www.w3.org/1999/xlink" width="34" height="32.344" viewBox="0 0 34 32.344"><defs><filter id="a" x="8.094" y="0" width="25.906" height="32.343" filterUnits="userSpaceOnUse"><feOffset dy="3" input="SourceAlpha"/><feGaussianBlur stdDeviation="3" result="b"/><feFlood flood-opacity="0.161"/><feComposite operator="in" in2="b"/><feComposite in="SourceGraphic"/></filter><filter id="c" x="0" y="0" width="25.906" height="32.344" filterUnits="userSpaceOnUse"><feOffset dy="3" input="SourceAlpha"/><feGaussianBlur stdDeviation="3" result="d"/><feFlood flood-opacity="0.161"/><feComposite operator="in" in2="d"/><feComposite in="SourceGraphic"/></filter></defs><g transform="translate(9 6)"><g transform="translate(8.094)"><g transform="matrix(1, 0, 0, 1, -17.09, -6)" filter="url(#a)"><path d="M280.708,45.866l-6.437-6.437a.734.734,0,0,0-1.038,1.038l5.918,5.918L273.232,52.3a.734.734,0,1,0,1.038,1.038l6.438-6.437A.734.734,0,0,0,280.708,45.866Z" transform="translate(-255.92 -33.21)" fill="#eb9eaf"/></g></g><g transform="matrix(1, 0, 0, 1, -9, -6)" filter="url(#c)"><path d="M7.691,45.866,1.253,39.429A.734.734,0,0,0,.215,40.467l5.918,5.918L.215,52.3a.734.734,0,1,0,1.038,1.038L7.691,46.9A.734.734,0,0,0,7.691,45.866Z" transform="translate(9 -33.21)" fill="#eb9eaf"/></g></g></svg>