<svg xmlns="http://www.w3.org/2000/svg" width="47.928" height="42.978" viewBox="0 0 47.928 42.978"><g transform="translate(-871.549 -2540.747)"><g transform="translate(890.038 2540.747)" opacity="0.85"><path d="M21.39,6.641a.344.344,0,0,0-.069-.131C21.252,6.71,21.39,6.641,21.39,6.641Z" transform="translate(-6.605 -4.392)" fill="#f5b6c3"/><path d="M20.644,9.53l-.034.3.034-.262Z" transform="translate(-6.39 -5.328)" fill="#f5b6c3"/><path d="M20,10.918h.034s.172,0,.2-.069h0l-.131-.262h0l.069-.3a.626.626,0,0,0-.3.069h0l.131.262a9.691,9.691,0,0,1-.3.994c.131-.1.2-.428.262-.7h.034Zm.131-.3-.069.228Z" transform="translate(-6.111 -5.564)" fill="#f5b6c3"/><path d="M18.9,13.17h0a.441.441,0,0,1-.069.228c.069-.034,0,.228.1-.228h-.034Z" transform="translate(-5.839 -6.457)" fill="#f5b6c3"/><path d="M18.444,14.392V14.13s-.1.262-.1.172c-.069.262,0,.228.1.1h0Z" transform="translate(-5.68 -6.755)" fill="#f5b6c3"/><path d="M18.619,14.267l-.069.3s.069,0,0-.131V14.26h.069Z" transform="translate(-5.752 -6.795)" fill="#f5b6c3"/><path d="M18.65,14.913l.034-.1.069-.5-.1.593h0Z" transform="translate(-5.783 -6.814)" fill="#f5b6c3"/><path d="M16.273,17.381s-.172-.1-.034-.131a2.956,2.956,0,0,0-.559.1h.593Z" transform="translate(-4.862 -7.722)" fill="#f5b6c3"/><path d="M15.29,17.5a2.164,2.164,0,0,0,.262-.069A.326.326,0,0,0,15.29,17.5Z" transform="translate(-4.741 -7.776)" fill="#f5b6c3"/><path d="M15.9,17.614s-.3.035-.462.035H16s.1-.069-.1-.069h0Z" transform="translate(-4.787 -7.824)" fill="#f5b6c3"/><path d="M14.57,17.576a.629.629,0,0,1,.228.034C14.729,17.61,14.57,17.541,14.57,17.576Z" transform="translate(-4.518 -7.82)" fill="#f5b6c3"/><path d="M16.93,17.63a.307.307,0,0,0-.2.069h.2Z" transform="translate(-5.187 -7.84)" fill="#f5b6c3"/><path d="M12.155,17.851s.731.1.462.172c-.428.034-.366,0-.559-.069.172.1-.559.131-.462.262l.366-.069s-.131.069,0,.069c0-.069.4-.131.731-.069.331-.069.1-.3-.172-.428,0,0,0,.069-.331.1h0l-.028.028Z" transform="translate(-3.593 -7.868)" fill="#f5b6c3"/><path d="M12.94,17.677h.766a3.434,3.434,0,0,1-.462-.1c-.228.034-.262.069-.3.1h0Z" transform="translate(-4.012 -7.824)" fill="#f5b6c3"/><path d="M16.781,17.96H16.25l.262.1h0c.3,0,.228-.069.262-.1Z" transform="translate(-5.039 -7.942)" fill="#f5b6c3"/><path d="M12.7,17.637l.069-.1-.3.131.228-.034Z" transform="translate(-3.867 -7.812)" fill="#f5b6c3"/><path d="M11.716,17.649l.034-.069-.2.034.172.035h0Z" transform="translate(-3.581 -7.824)" fill="#f5b6c3"/><path d="M18.669,32.521l-.069.131.131-.172h-.069v.034Z" transform="translate(-5.767 -12.444)" fill="#f5b6c3"/><path d="M8.73,18.184,8.8,18.15S8.73,18.15,8.73,18.184Z" transform="translate(-2.707 -8.001)" fill="#f5b6c3"/><path d="M26.562,16.12s-.331.331-.2.228l.366-.262h-.1a3.2,3.2,0,0,1,.662-.559c.366-.2.3-.1.462-.2,0,0,.069,0,.2-.131l.793-.559-.593.262c.172-.2.662-.462,0-.131.131-.069.3-.131.462-.228a2.608,2.608,0,0,1-.462-.034v-.069a1.08,1.08,0,0,0-.228-.131c-.1,0-.131,0-.428.131a.221.221,0,0,0-.2-.131,1.415,1.415,0,0,0-.662.172H25.514a5.541,5.541,0,0,1-.759.069h0a.544.544,0,0,0-.2-.172.819.819,0,0,0-.5.172c-.172-.1-.793-.034-1.021-.2.1.034-.034.069-.228.069-.331-.1-.731-.228-.828-.262a.165.165,0,0,1-.1-.034c-.131-.034-.228,0-.628.262h-.462a5.244,5.244,0,0,1-.731-.069h-.1c-.331-.1-.793-.2-.925-.228v-.138h0a1.642,1.642,0,0,0-.034-.366,7.226,7.226,0,0,0-.131-.862.637.637,0,0,0-.207-.124H18.5l-.069-.131L18.5,12.2a3.846,3.846,0,0,0,.172-1.221.56.56,0,0,0-.2-.131c-.131,0-.131-.034-.559.228l-.1-.228v-.076a6.369,6.369,0,0,0-.034-.959.56.56,0,0,0-.2-.131h-.131l.1-.3a3.6,3.6,0,0,0,.331-1.256.56.56,0,0,0-.2-.131.676.676,0,0,0-.366.1V8.027a.918.918,0,0,1-.131-.1L17.11,7.8c-.331-.628-.4-.731-.4-.759a.305.305,0,0,0-.2-.131h-.2a.335.335,0,0,0-.034-.2.3.3,0,0,0-.172-.131.416.416,0,0,0-.3.069h-.041l.131.262-.131.069-.034-.172c0,.1-.262.7-.4,1.09a4.038,4.038,0,0,0-.4,1.325.56.56,0,0,0,.2.131c.1,0,.131.034.593-.228a3.915,3.915,0,0,1-.4.428c-.366.366-.628.662-.862.925l.069-.1v-.172a2,2,0,0,0-.1.331c-.531.559-.662.759-.7.89a1.2,1.2,0,0,1-.1.262c.034-.069.1-.172.131-.172h0v.034h.034s.1.131.2.131a4.317,4.317,0,0,0,1.325-.628c-.228.228-.462.428-.662.662-.662.662-1.09,1.056-1.359,1.359h0s-.2.228-.262.3V13.25s-.1.262-.172.262h.069c-.131.172-.1.228,0,.331,0,0,.034.069.069.069h0v.1h0V13.94h.131l-.069.1a.1.1,0,0,0,.1-.069h0s.5-.228,2.084-1.125c.7-.4,1.656-.959,1.884-1.056a.173.173,0,0,0,.131-.034.1.1,0,0,0,.069-.034s.069,0,.069.034a1.312,1.312,0,0,0,.1.331l.069-.1a1.11,1.11,0,0,1,.069.4c.228.2-.2-.628,0-.428a1.419,1.419,0,0,0,.1.531c-.228,0-.7.2-5.326,2.808-1.125.662-2.415,1.387-3.339,1.884.2-.228.428-.462.628-.7q1.687-1.821,1.552-2.049a.584.584,0,0,0-.131-.1h-.1s.228-.069-.034-.1h.331A1.243,1.243,0,0,1,11,14.209h-.662a2.843,2.843,0,0,0,.593,0c-.1.069-.366.1-.262.2-.1.034-.228.131-.428.228h-.034c-.262.172-.662.366-1.221.7-.4.228-.89.5-1.221.7l.1-.366c.228-.959.262-1.09.228-1.187h.193c.034-.069-.069-.069-.228-.069a.36.36,0,0,0-.131-.1,1.911,1.911,0,0,1,.593-.034c-.2-.1-.1,0-.4-.1.262.172-1.056,0-.628.172a1.2,1.2,0,0,0-.262-.1.238.238,0,0,0,0-.3.305.305,0,0,0-.2-.131,3.815,3.815,0,0,0-.89.4H6.071l-.172.1-.131.069a1.182,1.182,0,0,0-.559.069c-.3,0,.069-.034-.131-.1l-.3.069-.262-.069-.2-.131h0a3.3,3.3,0,0,1-.4-.228c-.034,0-.069-.069-.131-.069a.717.717,0,0,0-.428.131l-.131.069a2,2,0,0,1-.2-.131A.3.3,0,0,0,2.9,13.94a.416.416,0,0,0-.3.069H2.532l.069.2H2.47l.172.1H2.573a.156.156,0,0,0,.069.131v.131h.172c.131.069.3.2.593.4.262.172.559.4.662.462.1.1.2.1.366.034.069.034.131.1.2.131a3.405,3.405,0,0,0,.228.593.3.3,0,0,0,.172.131.919.919,0,0,0,.1.228.305.305,0,0,0,.2.131h.2c.1.1.228.228.428.462s.462.5.5.531a.177.177,0,0,0,.172.1.6.6,0,0,0,.4-.131h0s.331.1.7.2H7.8c-.131.228-.1.3,0,.4a.218.218,0,0,0,.172.117.793.793,0,0,0,.331-.069,11.722,11.722,0,0,0,1.159.828q0,.172.069.2a.305.305,0,0,0,.2.131.671.671,0,0,0,.262-.034l.4.5c.131.2.3.366.366.462a1.607,1.607,0,0,0-.1.228c0,.034-.034.069-.034.131-.034.131-.069.3-.1.462h0c-1.021,1.194-1.483,1.863-1.387,2.015a.561.561,0,0,0,.2.131c.1,0,.131,0,.5-.172,0,.069.069.034.131,0v.228c-.069,0-.1.1-.131.172-.662.5-.593.593-.5.759,0,.069.069.1.131.131a.255.255,0,0,0,0,.262h.034c-.1.3-.228.662-.331.925l-.2.524h0c-.2.531-.2.559-.131.662h0c0,.172-.069.3-.069.531l-.1.069a1.886,1.886,0,0,1-.069.331.488.488,0,0,1-.131.331c-.062.117-.117.241-.172.366a17.826,17.826,0,0,0,1.587-.994c.331-.228.7-.462,1.021-.662a7.623,7.623,0,0,1,.7-.4c-.3-.069.5-.2.428-.366.1,0,.228-.069.1.069.428-.366.759-.4.994-.731.1,0-.069.131,0,.131,0-.034.131-.131.2-.131s-.034.069-.1.172c.462-.331.428-.5.366-.628a.862.862,0,0,0,.531-.4c.1,0,.3-.069,0,.131.172-.1,1.056-.628,1.021-.731.069,0,.228-.172.262-.2l.4-.262a1.248,1.248,0,0,0,.2-.131h0a.543.543,0,0,0,.2.172.671.671,0,0,0,.262-.034c.3.262.366.3.462.331l.069.069c.228.228.5.531.531.559a.177.177,0,0,0,.172.1.441.441,0,0,0,.262-.069h0a1.351,1.351,0,0,1-.034.331,4.28,4.28,0,0,0-.1,1.221.56.56,0,0,0,.2.131l1.187-.559.1-.069h0s-.172.069.069.228c0,.034.131.1.228.131-.262.331-.228.366-.131.5a.305.305,0,0,0,.2.131c.131,0,.131.034.7-.262a1.212,1.212,0,0,1,.3.228c-.069-.1-.1-.2.1-.1a1.826,1.826,0,0,1,.4.331,2.993,2.993,0,0,0,.069.959.305.305,0,0,0,.2.131c.131,0,.131.034.862-.366.3.172.7.4.89.5a.891.891,0,0,0,0,.331.305.305,0,0,0,.2.131h.069a.24.24,0,0,0,.2-.069,1.533,1.533,0,0,0,.428.3c-.069-.131-.1-.3-.172-.462h.034s.2-.262.1-.4c0-.034-.069-.069-.1-.1h0s.172-.262.1-.4c0-.035-.069-.069-.1-.1a2.744,2.744,0,0,0,.131-1.021.305.305,0,0,0-.2-.131c-.1,0-.131,0-.5.172-.034-.1-.034-.131-.069-.131l-.055-.083a4.857,4.857,0,0,0-.228-.628.914.914,0,0,0-.2-.262c0-.131.035-.034.069-.034l-.069-.228c.428-.731.4-.759.331-.89a.305.305,0,0,0-.2-.131.676.676,0,0,0-.366.1c.069-.2.1-.4.172-.559v-.069a.731.731,0,0,0,.1-.228q.2-.731.131-.828a.305.305,0,0,0-.2-.131,2.8,2.8,0,0,0-.731.3,2.639,2.639,0,0,0-.228-.559s.034,0,.069.069a5.617,5.617,0,0,1-.366-1.29c0-.1-.069-.2-.069-.3v-.131h-.069V20.08a1.625,1.625,0,0,0,.069-.262h0s.172-.172.131-.262l.7-.5h0c1.187-.828,2.415-1.587,3.539-2.346h-.2l.4-.3c.131-.034.2,0-.069.172.1,0,.2-.1.3-.2.069-.1.172-.228.172-.228.4-.228.4-.2.262-.069h0l-.131.028Zm1.159-.828-.172.1C27.749,15.216,27.722,15.258,27.722,15.292ZM10.321,19h0s-.1-.172-.2-.172h-.1v-.172h.1a.13.13,0,0,0,.069.131.221.221,0,0,0,.2.131c.228.069.428,0,4.264-2.249.428-.228.89-.531,1.325-.759-.5.366-.994.759-1.421,1.125-1.787,1.421-2.649,2.084-3.043,2.449h0a2,2,0,0,0-.2-.131s-.069-.069-.1-.069l-.069-.069s-.262-.4-.331-.331a.509.509,0,0,1-.172.559c-.131-.172-.228-.331-.3-.4h0l-.028-.055Zm7.41-5.692a.56.56,0,0,0,.2.131h.131a.978.978,0,0,1,.034.4c.131.331.069-.131.2.2v.1l.069.069h0a.477.477,0,0,0-.172-.069c-.2-.034-.262-.069-3.905,2.049-.5.3-1.021.593-1.552.89.5-.4,1.056-.793,1.552-1.159,2.015-1.49,2.974-2.249,3.443-2.642h0v.034Zm3.346,5.754v-.1l.559-.366c-.3.228.069.172-.462.462l.172-.262-.3.228h0Zm-.959.662h.1c-.759.4-2.084,1.125-4.5,2.511.925-.559,1.884-1.159,2.78-1.69.925-.559,1.752-1.056,2.477-1.525l-.1.069-.1.069-.131.1s-.331.228-.593.4v.069h.069Zm.593,3.677a.56.56,0,0,0,.2.131h.131c-.3.172-.628.366-1.056.593l-.462.262a4.165,4.165,0,0,0,.331-.366c.331-.331.559-.593.793-.828,0,.172.034.172.069.2h0Zm-2.153.593s.069.1,0,.1Zm.131,0a.787.787,0,0,0-.131-.069v-.1c.262-.131.7-.4,1.421-.828l.1-.069c-.228.228-.462.5-.662.7-.228.228-.428.462-.593.628-.1-.131-.131-.2-.131-.262h0Zm-1.456-1.821a.165.165,0,0,0-.034-.1h0c.793-.5,1.552-.925,2.215-1.29h0a.224.224,0,0,0,.228,0h0c-.228.131-.593.366-1.187.7-.4.228-.862.5-1.159.662h0l-.069.034Zm3.139-1.325a.165.165,0,0,0-.034-.1c0-.034-.069-.069-.1-.1h0l.1-.069.069.131v.1h-.034v.034Zm-.1.331c-.172.531-.172.559-.1.662a.221.221,0,0,0,.2.131h.069v.1c-.2.131-.462.262-.759.462-.2.131-.428.262-.662.4a4.675,4.675,0,0,1,.366-.462c.531-.7.793-1.056.925-1.256h0l-.034-.034Zm.7,3.112a2.472,2.472,0,0,0-.828.366l.131-.069c.262-.172.593-.331.862-.5l-.2.2h.034Zm.593,1.325a.49.49,0,0,1-.1-.069l.172-.1-.1.172h.028Zm.172-.862s-.428.228-.828.462c.138-.159.276-.317.428-.462l.3-.331s.069.2.1.331h0Zm-3.47-5.623c-1.787,1.021-3.8,2.18-5.423,3.112,1.256-.793,2.718-1.718,4.036-2.546a75.749,75.749,0,0,0,6.782-4.429h0a1.384,1.384,0,0,0,.593-.228h0s.1.331.131.5V15.6c-1.325.731-3.3,1.849-6.182,3.539h.062Zm.2-4.629h0v.228a.13.13,0,0,0-.069-.131C18.394,14.561,18.463,14.526,18.463,14.5Zm-.1.131c.069.172.131.366.2.531h.828c-.759.428-1.821,1.021-3.374,1.918-.759.428-1.587.925-2.346,1.359.4-.331.862-.662,1.256-.994a42.026,42.026,0,0,0,3.443-2.822h0Zm4,.4H22.3a1.5,1.5,0,0,1,.462-.069c-.731.366-2.118,1.159-4.83,2.746-1.187.7-2.58,1.49-3.774,2.18.559-.366,1.159-.759,1.718-1.159,3.208-2.153,4.629-3.139,5.223-3.636a6.936,6.936,0,0,0,1.256-.069Zm-6.023,2.511c.531-.3,1.09-.628,1.656-.959-.828.559-1.69,1.159-2.477,1.69-2.084,1.387-3.243,2.18-3.905,2.677V20.88h-.034l.2-.131s0-.034-.069-.069v-.069h.069s.131-.131.131-.228c.262-.331.366-.462.331-.559.593-.3,1.752-.959,4.078-2.318h0l.028.034Zm-5.03,3.567h0l-.069.069v-.069Zm.2.793a66.5,66.5,0,0,0,6.216-3.443c-.4.262-.793.5-1.187.759-2.477,1.552-4.133,2.615-5.264,3.3.3-.462.262-.531.2-.628h.034Zm-.7-.172a.178.178,0,0,0,.069.131v.069l-.131.1v-.131l.069-.131h0v-.034Zm-.862,3.443h0l.1-.262s.1.034.1.069v-.3s.034-.2.034-.228c.069,0,.131-.069.2-.1a.512.512,0,0,1,.034-.172c1.09-.531,3.339-1.787,8.169-4.595,1.552-.89,3.3-1.884,4.8-2.746-1.587.994-3.47,2.153-5.2,3.174-4.926,3.008-7.21,4.429-8.265,5.161h.034Zm12.2-6.879a2.392,2.392,0,0,1-.172.2l-.069-.069.228-.131h0Zm-5.326,4.56s-.1-.1-.172-.1h-.069l.172-.1v.069a.221.221,0,0,0,.2.131c.172.034.2.034,1.787-.89l.428-.228-.262.366a14.913,14.913,0,0,0-1.09,1.525c-.172-.1-.366-.172-.559-.3-.228-.2.1,0,0-.131l-.2-.069-.262-.262h.034ZM25.4,14.906l.131.069h.1l.069-.069h.034L25,15.271l-.062-.221a2.057,2.057,0,0,1,.428-.172h0l.028.028Zm-6.216-.759-.069-.069Zm-2.78-6.934h0l-.1.069.069-.131V7.22h.034Zm-.4.89c.131-.366.228-.628.3-.828l.069.1s-.069.366-.172.366a.862.862,0,0,1,.172.462l-.3.172-.228.131.172-.4h0Zm-.1,1.849c.331-.331.559-.628.759-.828,0,.034.034.069.069.1,0,.131-.1-.1-.1,0a.943.943,0,0,1,.262.5c-.131,0-.331.131-1.387.731h-.069l.462-.462h0V9.952Zm-.828,2.477-.324.2.462-.462c.89-.89,1.421-1.387,1.69-1.718h.228a4.482,4.482,0,0,1,.172.593v.228h0c-.172-.034-.2-.069-2.215,1.125h0v.034ZM12.854,15.8c.89-.5,1.849-1.056,2.718-1.552-.5.4-1.056.793-1.552,1.159a23.306,23.306,0,0,0-3.774,3.008.218.218,0,0,1-.1-.1l.1.1v.069a.39.39,0,0,1-.172-.034v-.1a3.23,3.23,0,0,0-.131-.89c.662-.366,1.621-.89,2.912-1.656h0Zm-3.374,0,.462-.262c-.2.2-.366.4-.531.593-.531.559-.89.959-1.125,1.221H8.114v-.062c-.262-.172-.428-.331-.628-.462.172,0,.262,0,2.015-1.021h0l-.028-.014Zm-2.946.262c-.228-.3.366.228.2-.034a.493.493,0,0,1-.3-.1l-.228-.1h0s.331-.2.559-.331.5-.3.759-.428l-.1.428c-.2.89-.228,1.021-.2,1.125-.069-.069-.172-.1-.228-.172,0-.069-.262-.262-.1-.228a.617.617,0,0,1-.331-.172H6.541Zm-.172.138A3.286,3.286,0,0,1,6,16.065L5.864,16l.262-.131s.462.262.628.366c-.069.069-.2.069-.4,0h0V16.2Zm.994-1.718q-.3.145-.89.5c-.3.172-.662.4-.959.531h0l-.1-.29s.4-.2.925-.5l.262-.172h.069a3.1,3.1,0,0,1,.366-.2h.2l.1.1a.9.9,0,0,0-.428,0,2.608,2.608,0,0,1,.462.034h0ZM6.8,17.024h0l-.069-.069h0l-.069-.069.069.069.131.069H6.789ZM13.012,24.7a.983.983,0,0,1,.3-.172A.716.716,0,0,1,13.012,24.7Zm.628,0s-.034-.034,0-.131l-.069.069c-.2.069-.172-.034-.069-.172l.228-.069s.131-.262.069-.331l-.131.131v-.069l-.131.131h-.2l-.7.366a7.965,7.965,0,0,1-1.325,1.359c.131-.2-.069-.172-.131-.262.262,0,.531-.4.89-.628-.2.131-.2.034-.172,0l-.593.531a1.7,1.7,0,0,0-.4.131c.131,0,0,.131-.131.262a2.394,2.394,0,0,1-.262.2l-.069.069h-.034l-.069.1v-.09s0-.034.069-.069a.482.482,0,0,1,.2-.131.168.168,0,0,0-.124.062h-.069v.069h-.034a.344.344,0,0,1-.069.131.309.309,0,0,1-.262.228c.069-.035.1-.035.1-.1a.914.914,0,0,1-.262.2c-.069.034-.1,0-.069-.034h.034a4.576,4.576,0,0,0-.559.331v-.228l.228-.131s.331-.2.4-.228h.034s.2-.262.1-.4l-.069-.069c.559-.3,1.587-.862,3.539-1.953h.034v.069h0a.285.285,0,0,1,.131.034h.069a.221.221,0,0,0,.131-.034,1.5,1.5,0,0,1-.3.331,1.428,1.428,0,0,0,.3-.069l-.428.366h0l.172.028Z" transform="translate(-0.766 -4.412)" fill="#f5b6c3"/><path d="M18.7,32.053h.069S18.769,32.019,18.7,32.053Z" transform="translate(-5.798 -12.307)" fill="#f5b6c3"/><path d="M9.787,17.58h-.3a2.064,2.064,0,0,1,.3.069S9.718,17.614,9.787,17.58Z" transform="translate(-2.943 -7.824)" fill="#f5b6c3"/><path d="M6.11,17.732c.2,0,0-.1.131-.069.069-.034-.228,0-.4,0-.172.034-.172.069.228.034h0l.034.034Z" transform="translate(-1.777 -7.845)" fill="#f5b6c3"/><path d="M22.782,6.741,22.61,6.61a.956.956,0,0,1,.069.228l.1-.1h0Z" transform="translate(-7.011 -4.423)" fill="#f5b6c3"/><path d="M13.629,12.12l-.069.034h.034Z" transform="translate(-4.205 -6.131)" fill="#f5b6c3"/><path d="M13.506,12.077h.1s-.131-.069-.1-.1C13.409,12.077,13.575,12.014,13.506,12.077Z" transform="translate(-4.178 -6.088)" fill="#f5b6c3"/><path d="M13.71,11.559h.069a.2.2,0,0,1,.034-.069c-.034,0-.069,0-.1.069Z" transform="translate(-4.251 -5.936)" fill="#f5b6c3"/><path d="M13.629,11.68s0,.034-.069.069C13.594,11.749,13.691,11.749,13.629,11.68Z" transform="translate(-4.205 -5.995)" fill="#f5b6c3"/><path d="M13.57,11.409H13.6s0-.034.069-.069a.49.49,0,0,0-.1.069h0Z" transform="translate(-4.208 -5.89)" fill="#f5b6c3"/><path d="M13.38,11.774l.131-.014h0Z" transform="translate(-4.149 -6.02)" fill="#f5b6c3"/><path d="M13.57,11.234H13.6l.069-.034-.1.034h0Z" transform="translate(-4.208 -5.846)" fill="#f5b6c3"/><path d="M13.57,11.129s.069-.069.1-.069h-.1Z" transform="translate(-4.208 -5.803)" fill="#f5b6c3"/><path d="M13.539,11.3l-.069.069h0a.073.073,0,0,0,.069-.062h0Z" transform="translate(-4.177 -5.877)" fill="#f5b6c3"/><path d="M13.454,11.374h0l-.034-.034Z" transform="translate(-4.161 -5.89)" fill="#f5b6c3"/><path d="M13.18,11.7a.258.258,0,0,1,.172-.069A.24.24,0,0,0,13.18,11.7Z" transform="translate(-4.087 -5.979)" fill="#f5b6c3"/><path d="M13.33,11.284s.069,0,.069-.034H13.33v.069h0Z" transform="translate(-4.133 -5.862)" fill="#f5b6c3"/><path d="M12.755,11.176a.2.2,0,0,1,.034-.069c-.069.069-.131,0-.262.1h.062s-.069,0-.069.034c.069-.034.131-.034.1,0a1.433,1.433,0,0,0,.4-.228h-.1s-.069.1-.131.1h0l-.028.069Z" transform="translate(-3.882 -5.787)" fill="#f5b6c3"/><path d="M13.23,11.06v.069h0l.069-.069Z" transform="translate(-4.102 -5.803)" fill="#f5b6c3"/><path d="M13.187,11.157h-.1c-.069.034-.131,0-.2.1h.1s.034,0,.069-.069h.069l.062-.034Z" transform="translate(-3.997 -5.831)" fill="#f5b6c3"/><path d="M12.94,11.814l.034-.034Z" transform="translate(-4.012 -6.026)" fill="#f5b6c3"/><path d="M13.137,11.59a1.62,1.62,0,0,0-.172.131H13a.2.2,0,0,0-.069.034.165.165,0,0,0,.1-.034h0l.1-.1h0V11.59Z" transform="translate(-4.009 -5.967)" fill="#f5b6c3"/><path d="M13.252,10.994l.069-.034-.131.034h.069Z" transform="translate(-4.09 -5.772)" fill="#f5b6c3"/><path d="M13.273,10.92H13.2l-.034.034.1-.034Z" transform="translate(-4.084 -5.759)" fill="#f5b6c3"/><path d="M12.18,9.215l.069-.055H12.18v.069h0Z" transform="translate(-3.777 -5.214)" fill="#f5b6c3"/><path d="M12.731,10.219V10.15S12.634,10.247,12.731,10.219Z" transform="translate(-3.934 -5.521)" fill="#f5b6c3"/><path d="M12.75,10.18s.034-.069,0-.034h0s.034.014.034.034Z" transform="translate(-3.953 -5.516)" fill="#f5b6c3"/><path d="M10.69,9.371h.1l.2-.131Z" transform="translate(-3.315 -5.238)" fill="#f5b6c3"/><path d="M7.172,4.2,7.1,4.264c.069-.034.1-.034.1,0h0s.034.131.069.228l.069-.069v.062c.131-.069,0-.034.1-.131-.131.131.1.1-.069.262,0,0,.069-.069.1-.069h0a.49.49,0,0,1-.069.1h0s.069.034.069.069h0a.325.325,0,0,0,.228.1h0s0,.034.069.069h.069c-.069,0-.069.1-.131.1.1,0,.069,0,.228-.069l-.069.069s.1-.034.131,0c-.069,0-.069.069-.172.1-.1.131.2,0,0,.131.2-.1.069-.1.1-.131C7.944,5,8.041,5,8.041,5.037c0,0-.2.172-.131.228h0s.069,0,0,.069c.1-.069,0,0,.131-.069H7.972s.228-.1.172,0h-.1s.034,0,0,.034c-.131.1-.069,0-.2,0-.034.034.131,0,0,.069.2-.1,0,.069.172,0l-.069.069H7.917s-.034.131,0,.131c-.034-.034.1-.069.131-.131.131,0-.172.172-.1.2a.073.073,0,0,1,.062-.069h0a.129.129,0,0,1-.076.1c.034.034.069-.069.131-.069-.1.069.069,0,.1,0L8.1,5.672s.172-.1.131,0L8.1,5.741h.034l-.1.069s.069,0,.069.034c.069-.034.131-.1.172-.069-.034.034-.069.034-.034.069-.069,0-.131.069-.069,0H8.11v.1h.172a.532.532,0,0,1-.172.069h.1s-.069.069-.1.069c0,.034.172,0,.131.034h.034s-.069.131.069.1l-.1.1s.131-.131.2-.1c.069,0-.1.069-.131.1.069,0,.2-.069.131,0h0l-.069.069a.368.368,0,0,0-.2.069c.228-.131.1.069.331-.034h.1s-.034.069-.069.069h.034l.069.069h.131s-.131.069-.131,0c-.228.172.069,0,0,.131H8.607l-.131.131s.172-.172.262-.172c0,0,0,.034.034,0-.1.034-.069.069-.034.069l-.1.069a.512.512,0,0,0,.172-.034l-.145.138s.131-.1.172-.069c0,.069.034.069.131.069,0,.034-.069,0-.1.069h.069a.477.477,0,0,1,.172-.069c.131-.069-.131.172,0,.1a.1.1,0,0,0-.1.069h.228l-.069.069a.935.935,0,0,1,.3-.1l.069-.069h.1a.49.49,0,0,0-.1.069h0a.477.477,0,0,1-.172.069l.069-.069s-.172.069-.228.1h.034l-.131.1h.069v.069a1.11,1.11,0,0,1,.4-.069.5.5,0,0,0-.262.131c.1-.069-.069,0-.069-.069,0,0-.069.034-.069.069h.131a.218.218,0,0,0-.1.1c.172-.1.131,0,.2,0-.069,0-.131.069-.131,0-.1.1.228-.069.131,0h0c.069,0,.034.069,0,.069h0a.172.172,0,0,0,.228.069h0l-.2.1.559-.172a2.419,2.419,0,0,1-.531.228.033.033,0,0,0,.034.034,1.069,1.069,0,0,1,.2-.1c-.131.1-.069.069-.172.172,0,0,.228-.131.228-.1a1.607,1.607,0,0,1-.228.1l.228-.069s-.172.1-.228.131c.034,0,0,.034.034.034h.034s.3-.131.331-.069c-.034,0-.262.1-.262.172a5.1,5.1,0,0,1,.628-.2h0s-.531.2-.662.228c-.034.034-.069.034-.034.069-.034.034-.1,0-.1,0V8.2a.371.371,0,0,0,.228-.069H9.566s.366-.131.366-.069a1.859,1.859,0,0,1-.262.131h0s.172,0,.1.069c0,0-.131.1-.069.069A3.638,3.638,0,0,1,10.325,8a.817.817,0,0,1-.172.172c-.1.069-.262.1-.331.172h.1s-.1.034-.069.069c.131-.069,0,.069.1-.034.034,0,0,.034,0,.069a1.079,1.079,0,0,1,.331-.1.733.733,0,0,0-.076.062V8.59a.143.143,0,0,1-.1.069h.069s-.034,0-.131.069c.069-.034.131,0,.172,0,.1-.069,0-.069-.069-.069a.725.725,0,0,1,.428-.1c.069,0-.1.069-.069.069,0,.1.3-.069.228.034a1.036,1.036,0,0,1-.262.131c-.069,0,0-.069,0-.1h0s-.069.034-.069,0c-.069.069.069.131,0,.228a.129.129,0,0,0,.1-.034h0s.131-.034.131-.069h.131l-.1.069s.069-.069,0-.034c.069,0-.1.131.034.069l.069-.069s.2-.034.172,0c.1-.069,0,0,.1-.1-.131.1-.034-.069-.172.034.131-.1.034-.069.131-.172-.034,0-.069.034-.069,0H10.89v.069h-.2a.2.2,0,0,0,.069-.034H10.69s.1-.1.172-.1h0s.034-.1,0-.1h-.1s-.2-.069-.069-.2c0,0-.069,0-.069-.034H10.7s0-.131-.034-.1c.172-.131,0-.131,0-.172H10.4v-.1h0c.131-.131-.2-.034-.1-.172h0V7.624a.1.1,0,0,0-.1.069h-.069s-.069,0,.069-.1a.631.631,0,0,0-.228,0h0V7.528l.1-.069H9.9a1.8,1.8,0,0,0,.172-.069H9.9s-.131,0-.069-.069c.1-.1-.069-.172,0-.3-.2.131.069-.1-.1,0,.034,0,.069-.069.1-.069-.069,0,.034-.1-.1-.069a.129.129,0,0,0,.1-.034H9.9a1.569,1.569,0,0,0-.331.1c.069-.069.034-.069-.069,0,.034,0,.069-.069.1-.069,0,0,0-.131-.1-.069h0a.107.107,0,0,0-.034-.069H9.4s-.069,0,0-.131H9.324c-.172.131.069-.069,0-.069H9.29a1.643,1.643,0,0,0,.228-.172h.034a.247.247,0,0,1-.172,0c.069-.034.172-.069.131-.1.034-.034-.228.034-.131-.069-.034,0-.069.069-.131.069,0,0,.131-.172,0-.1h0a.177.177,0,0,0-.2,0c.262-.172-.228-.034.034-.2l-.069-.069h0a.247.247,0,0,0-.172,0,.1.1,0,0,0,.069-.034q0-.1-.172-.069l.069-.069s.069-.172-.069-.172h.034s.131-.3-.2-.131h-.09a.46.46,0,0,0-.172.131s.069-.1.1-.1h0a.223.223,0,0,1,.1-.172c-.069-.1-.069-.262-.131-.366l-.1.1h0l.1-.1c.069-.069-.1,0-.1,0,0-.069.172-.069.131-.1H8.372s-.1.069-.131,0c0-.034.069-.069.069-.069h-.1l-.1.1c.131-.131-.069-.2,0-.228A.187.187,0,0,1,7.986,4.6s-.1.1-.131.069c.228-.172.034-.1.172-.262-.069.1-.1-.069-.2.1,0-.034.069-.069.1-.131-.131,0-.034-.172-.131-.2l-.1.1.1-.131s-.172.131-.1,0c0,0-.034.069-.069.069A.246.246,0,0,0,7.454,4c-.076-.028-.131-.1-.1-.262,0,.069-.034.069-.069.034l-.1.1V3.754s0-.034-.131.034h0c-.1.138-.214.269-.331.4.131-.1-.1.228.1.1h0l.3-.1Zm1.7,2.415H8.834C8.931,6.576,8.9,6.61,8.869,6.61Z" transform="translate(-2.087 -3.533)" fill="#f5b6c3"/><path d="M12.843,11.006s-.034.034,0,.034h0S12.912,10.971,12.843,11.006Z" transform="translate(-3.977 -5.783)" fill="#f5b6c3"/><path d="M12.985,10.613s.1-.034.069,0C13.151,10.579,12.923,10.613,12.985,10.613Z" transform="translate(-4.023 -5.659)" fill="#f5b6c3"/><path d="M12.51,11.184l.1-.034h-.1Z" transform="translate(-3.879 -5.831)" fill="#f5b6c3"/><path d="M12.2,10.58s-.034,0,0,.034h.034Z" transform="translate(-3.779 -5.654)" fill="#f5b6c3"/><path d="M12.018,10.854l.069-.034-.1.069h.034v-.034Z" transform="translate(-3.718 -5.728)" fill="#f5b6c3"/><path d="M11.907,10.77s-.1,0-.069.034C11.838,10.8,11.907,10.8,11.907,10.77Z" transform="translate(-3.669 -5.713)" fill="#f5b6c3"/><path d="M11.74,10.057h.034l.172-.1-.2.1h0Z" transform="translate(-3.64 -5.462)" fill="#f5b6c3"/><path d="M11.021,9.81s-.034,0-.131.069c0,.069.1-.034.069,0,.034,0,0-.034.069-.069h0Z" transform="translate(-3.377 -5.415)" fill="#f5b6c3"/><path d="M7.944,3.44l-.034.069h.034Z" transform="translate(-2.453 -3.44)" fill="#f5b6c3"/><path d="M7.748,3.587l.069-.1-.1.069h0l.034.034Z" transform="translate(-2.394 -3.456)" fill="#f5b6c3"/><path d="M9.609,8.09l-.069.069h0V8.09Z" transform="translate(-2.958 -4.882)" fill="#f5b6c3"/><path d="M9.44,7.694h0l.1-.034Z" transform="translate(-2.927 -4.748)" fill="#f5b6c3"/><path d="M38.431,6.379h0V6.31s-.069.1-.131.1c.069.1.069-.034.1,0h0l.035-.034Z" transform="translate(-11.876 -4.33)" fill="#f5b6c3"/><path d="M37.9,6.1s-.035-.014-.035-.034a.129.129,0,0,0,.035.1V6.1Z" transform="translate(-11.742 -4.255)" fill="#f5b6c3"/><path d="M38.079,6.321s0-.131-.069-.069a.073.073,0,0,1,.069.062h0Z" transform="translate(-11.786 -4.307)" fill="#f5b6c3"/><path d="M37.739,6.239s-.034,0-.069-.069a.489.489,0,0,0,.069.1h0V6.232Z" transform="translate(-11.68 -4.286)" fill="#f5b6c3"/><path d="M37.49,6.239V6.17l.035.1-.035-.034Z" transform="translate(-11.624 -4.286)" fill="#f5b6c3"/><path d="M37.359,6.267s-.069-.069-.069-.1v.1Z" transform="translate(-11.562 -4.286)" fill="#f5b6c3"/><path d="M37.649,6.379s-.035-.069-.069-.069Z" transform="translate(-11.652 -4.33)" fill="#f5b6c3"/><path d="M37.989,6.622a.258.258,0,0,1-.069-.172A.239.239,0,0,0,37.989,6.622Z" transform="translate(-11.758 -4.373)" fill="#f5b6c3"/><path d="M37.77,6.46v.069H37.8A.2.2,0,0,0,37.77,6.46Z" transform="translate(-11.711 -4.376)" fill="#f5b6c3"/><path d="M37.515,6.519s0-.069-.035-.069v.069Z" transform="translate(-11.621 -4.373)" fill="#f5b6c3"/><path d="M37.35,6.94h-.069c.069.069,0,.131.1.262V7.133s0,.069.035.069c-.035-.069-.035-.131,0-.1a1.148,1.148,0,0,0-.262-.366v.1a.207.207,0,0,1,.131.131h0l.069-.034Z" transform="translate(-11.519 -4.463)" fill="#f5b6c3"/><path d="M37.228,6.657H37.3a.218.218,0,0,0-.1-.1v.1h.034Z" transform="translate(-11.534 -4.407)" fill="#f5b6c3"/><path d="M37.387,6.584a.255.255,0,0,0,.1.2v-.1s0-.034-.069-.069h0V6.55h0v.069h0l-.034-.034Z" transform="translate(-11.59 -4.404)" fill="#f5b6c3"/><path d="M37.951,6.784v.069a.165.165,0,0,0-.035-.1h0s-.1-.069-.1-.1a.635.635,0,0,0,.131.172V6.791h0Z" transform="translate(-11.727 -4.438)" fill="#f5b6c3"/><path d="M37.169,6.619,37.1,6.55l.069.1V6.612Z" transform="translate(-11.503 -4.404)" fill="#f5b6c3"/><path d="M37.085,6.669,37.05,6.6v.069Z" transform="translate(-11.488 -4.42)" fill="#f5b6c3"/><path d="M35.178,8.065s-.172-.1-.1-.034l.069.069h.034V8.065Z" transform="translate(-10.872 -4.857)" fill="#f5b6c3"/><path d="M34.669,9.589h0L34.6,9.52v.069Z" transform="translate(-10.728 -5.325)" fill="#f5b6c3"/><path d="M33.99,11.64l.069.069S34.059,11.674,33.99,11.64Z" transform="translate(-10.539 -5.983)" fill="#f5b6c3"/><path d="M36.309,7.27H36.24S36.337,7.339,36.309,7.27Z" transform="translate(-11.237 -4.628)" fill="#f5b6c3"/><path d="M33.31,10.15l.034.034Z" transform="translate(-10.328 -5.521)" fill="#f5b6c3"/><path d="M36.755,6.84l-.035.034h.035Z" transform="translate(-11.386 -4.494)" fill="#f5b6c3"/><path d="M35.72,9.271s-.034-.1,0-.069l-.2-.172.2.228h0Z" transform="translate(-11.014 -5.173)" fill="#f5b6c3"/><path d="M30.7,11.682a.49.49,0,0,1,.1.069h-.172s-.035.069.069.131h0a2.751,2.751,0,0,1,.462.2c-.131-.1.262.034.1-.1.034,0,.034.034.1.069q-.069-.069,0-.069h0a2.444,2.444,0,0,0,.228-.131h-.1l.069-.034c-.1-.1-.034.034-.172-.069.172.069.1-.131.262,0,0,0-.1-.034-.069-.069H31.7s0-.069.034-.034H31.7s.131-.131.069-.262h-.034a.143.143,0,0,0,.069-.1h0s-.035-.069,0-.069c.034.034.1,0,.131.069-.034-.1-.034-.069-.172-.2h.069s-.069-.034-.069-.069c.034.069.1.034.172.1.172,0-.069-.172.131-.069-.172-.131-.131,0-.172-.034-.069,0-.1-.1-.069-.1,0,0,.228.1.262.069h0s-.034-.069.069-.034c-.1-.069,0,0-.1-.1v.069s-.172-.172-.069-.172l.069.069s0-.034.034,0c.131.1,0,.069.069.172.069,0-.069-.1.069,0-.172-.131.069-.034-.069-.172l.069.069V10.82l.069.069s.1,0,.1-.069c-.034.069-.1-.034-.172-.069-.069-.131.228.1.262,0h.035c0-.069-.1-.034-.131-.1.1.034,0-.034-.035-.1l.069.069s-.172-.131-.069-.131l.1.1h.069v-.069c-.069,0-.131-.1-.131-.131.069,0,.069.069.1,0,.035.034.1.1,0,.069l.069.069.069-.069h0l-.069-.131s.069.034.069.069v-.062c.069.034.131.1.131.131v-.1a.073.073,0,0,1,.069.062h0c.069,0-.069-.131,0-.131h0s.131,0,.069-.131l.131.069s-.172-.069-.172-.172c0-.069.1.069.131.069-.034-.069-.131-.172,0-.131v.034h.069a.178.178,0,0,0,.131.172c-.2-.172.069-.1-.172-.262h.069s-.131-.1-.069-.131a.165.165,0,0,1,.1.034V9.778h.034a.786.786,0,0,1-.069-.131c.034,0,0,0,.034.034V9.619s.069.1.034.1c.228.131-.034-.069.131,0h0a.764.764,0,0,0,.2.1.565.565,0,0,1-.262-.172s.034,0,0-.034c.069.069.069,0,.069,0l.1.069a.584.584,0,0,1-.1-.131.611.611,0,0,1,.172.1c.035,0-.131-.069-.131-.131.069,0,.034-.069,0-.131.069,0,.069.069.1.069l-.069-.069h.034s-.1-.069-.1-.1c-.1-.1.2.069.1-.069.035,0,.069.069.1.069a.418.418,0,0,0-.1-.2h.1s-.172-.1-.2-.2H33.21V8.757l.069.069h0a.273.273,0,0,1,.131.1h-.069a.813.813,0,0,0,.172.131h.172a1.261,1.261,0,0,1-.2-.366,1.1,1.1,0,0,1,.2.2c-.1-.069,0,.069-.034.1,0,0,.069.034.069.069V8.922s0,.034.069.069c-.172-.131-.069-.131-.1-.172.034.034.1.1.069.1.131.069-.131-.2,0-.131h0c0-.069.034-.069.069,0h0a.143.143,0,0,0,.028-.2c-.007-.014-.021-.021-.028-.028L34,8.729l-.331-.462s.366.3.4.4c0,0,.069,0,.035-.034L33.934,8.5c.131.1.069.034.2.1a1.29,1.29,0,0,1-.172-.2l.172.172-.1-.2.172.172s.034,0,0-.069h-.069s-.172-.262-.131-.3a.5.5,0,0,0,.228.2,2.217,2.217,0,0,1-.331-.531h.034s.262.4.331.531c.069,0,.069.069.069,0,.069.034.069.069.034.1h.1a.4.4,0,0,0-.131-.228v.172s-.2-.3-.131-.331c.034,0,.131.172.172.2h0s-.035-.172.069-.1c0,0,.131.1.1.034a7.094,7.094,0,0,1-.5-.531,1.787,1.787,0,0,1,.2.1,1.423,1.423,0,0,1,.228.3l-.035-.069s.069.1.069.069c-.069-.1.069,0-.069-.1,0-.034.035,0,.069,0a.716.716,0,0,1-.172-.3l.069.069a.261.261,0,0,0,.172-.034.218.218,0,0,1,.1.1V7.749s-.034.034.069.131c-.034-.069,0-.1-.034-.172-.069-.1-.069,0-.069.069a.855.855,0,0,1-.172-.366c0-.069.069.069.069.034.1,0-.1-.262,0-.228a.557.557,0,0,1,.172.228c0,.069-.1,0-.1,0h.069v.069c.069.069.131-.069.228-.034a.129.129,0,0,0-.035-.1h0s0-.1-.069-.1V7.156l.069.1s-.069-.034-.069,0c0-.069.131.1.069-.034l-.069-.069s-.034-.2,0-.172c-.069-.1,0,0-.1-.1.1.131-.1.034.035.172-.1-.1-.069,0-.2-.131,0,0,.069.069,0,.069h0l.035.069c.034.069,0,.1,0,.172,0,0,0-.034-.069-.069v.055s-.1-.1-.1-.172h-.034s-.1,0-.1.034v.1h-.034s0,.172-.172.1c0,0,0,.069-.035.069l-.069-.069s-.1,0-.069.069c-.172-.131-.131.034-.2.069l.069.069a.643.643,0,0,0-.034.1l.069.069a.156.156,0,0,0-.131.069h0c-.2-.1,0,.2-.131.131h0v.069l-.069-.069h0s0,.034.069.1v.069s0,.069-.1-.034c.034.069,0,.1.1.228h0l-.1-.069.1.131a1.62,1.62,0,0,1-.172-.131c.069.131,0,.069.069.2l-.069-.069s.034.1,0,.069c-.131-.069-.172.131-.331.1.2.131-.1,0,0,.1-.034,0-.069-.034-.1-.1,0,.069-.131,0,0,.131-.035,0-.069-.069-.069-.069h0a.2.2,0,0,0-.035-.069.759.759,0,0,0,.2.262q-.069,0,0,.069a.1.1,0,0,1-.1-.1s-.131.034-.035.1h0s-.034,0-.069.069h0v.1h0s0,.034-.131,0l.069.069s-.131,0-.1.069h.069c-.1-.034-.193-.069-.3-.1V8.95c-.131,0,.1.069.1.131-.069-.034-.131-.1-.172-.1-.069,0,.1.2,0,.172a.1.1,0,0,1,.1.1c0,.034-.2-.034-.1.069h-.034a.156.156,0,0,0,.069.131c-.262-.172,0,.2-.2.034v.069h-.069a.285.285,0,0,0,.034.131.1.1,0,0,1-.069-.034c-.1,0-.1.034,0,.172l-.1-.069s-.2,0-.131.1h0s-.331,0-.069.2v.1a.731.731,0,0,0,.228.1s-.131,0-.131-.034h0a.258.258,0,0,1-.2-.034c-.069.1-.228.172-.3.262l.131.069h0s-.1,0-.069-.034c-.069,0,0,.069.069.1a.141.141,0,0,1-.131-.1h0s.1.1.069.131c-.034,0-.1-.034-.1,0h-.034l.1.069s-.034.034.1.1c-.2-.069-.172.131-.228.1.069.069,0,.1,0,.131,0,0,.131.069.1.1-.228-.131-.131,0-.3-.069.131.034,0,.1.131.172a.532.532,0,0,1-.172-.069c.034.1-.131.1-.172.2a.156.156,0,0,1,.131.069l-.172-.069s.172.1.034.069c0,0,.069,0,.069.034-.228.069-.069.366-.428.331q.069,0,.069.034h0l.1-.076Zm2.58-2.18s.035.069,0,.034C33.21,9.467,33.279,9.5,33.279,9.5Z" transform="translate(-9.469 -4.507)" fill="#f5b6c3"/><path d="M37.2,7.016h.069S37.2,6.947,37.2,7.016Z" transform="translate(-11.534 -4.539)" fill="#f5b6c3"/><path d="M36.706,6.938s-.069-.1,0-.069C36.672,6.773,36.706,7,36.706,6.938Z" transform="translate(-11.372 -4.496)" fill="#f5b6c3"/><path d="M37.29,7.23l.034.069.034.034-.069-.1h0Z" transform="translate(-11.562 -4.615)" fill="#f5b6c3"/><rect height="0.034" transform="translate(25.721 2.705)" fill="#f5b6c3"/><path d="M36.72,7.679s.035.034.035,0V7.61h0Z" transform="translate(-11.386 -4.733)" fill="#f5b6c3"/><path d="M37.029,7.819s-.034,0-.069-.069l.069.1h0V7.812Z" transform="translate(-11.46 -4.776)" fill="#f5b6c3"/><path d="M37.034,8.009s0-.069-.034-.069C37,7.94,37,8.037,37.034,8.009Z" transform="translate(-11.472 -4.835)" fill="#f5b6c3"/><path d="M36.2,8.152h0l-.1-.172Z" transform="translate(-11.193 -4.848)" fill="#f5b6c3"/><path d="M36.209,9.022a.073.073,0,0,1-.069-.062h0c0,.069,0,.034.1.131.069,0-.069-.1,0-.069H36.2Z" transform="translate(-11.206 -5.152)" fill="#f5b6c3"/><path d="M30.549,13.89l-.069.034h.069Z" transform="translate(-9.451 -6.68)" fill="#f5b6c3"/><path d="M30.687,14.049l-.1-.069Z" transform="translate(-9.485 -6.708)" fill="#f5b6c3"/><path d="M34.427,11.079h0l-.1-.069Z" transform="translate(-10.645 -5.787)" fill="#f5b6c3"/><path d="M42.57,32.269l.069-.069S42.57,32.3,42.57,32.269Z" transform="translate(-13.2 -12.358)" fill="#f5b6c3"/><path d="M42.265,32.424l.034-.035-.069.069.035-.035Z" transform="translate(-13.094 -12.416)" fill="#f5b6c3"/><path d="M42.248,32.324s-.1.069-.069,0c-.069.131.034,0,0,.035h0l.069-.069h0Z" transform="translate(-13.071 -12.385)" fill="#f5b6c3"/><path d="M42.3,31.86s-.048.062-.069.1h.035v-.1Z" transform="translate(-13.094 -12.252)" fill="#f5b6c3"/><path d="M42.18,32.167s.069-.1.035-.069A.1.1,0,0,1,42.18,32.167Z" transform="translate(-13.079 -12.324)" fill="#f5b6c3"/><path d="M42.159,31.929V31.86a.49.49,0,0,1-.069.1h0l.069-.034Z" transform="translate(-13.051 -12.252)" fill="#f5b6c3"/><path d="M42.04,32.247l.1-.1Z" transform="translate(-13.035 -12.342)" fill="#f5b6c3"/><path d="M42.14,31.789l.069-.069Z" transform="translate(-13.066 -12.209)" fill="#f5b6c3"/><path d="M42.09,31.727s.035-.1.069-.1l-.069.069v.034Z" transform="translate(-13.051 -12.181)" fill="#f5b6c3"/><path d="M41.94,32.281a.273.273,0,0,1,.1-.131C42.037,32.184,41.968,32.219,41.94,32.281Z" transform="translate(-13.004 -12.342)" fill="#f5b6c3"/><path d="M41.99,32.119a.2.2,0,0,1,.035-.069H41.99Z" transform="translate(-13.02 -12.311)" fill="#f5b6c3"/><path d="M41.532,32.126v-.069c-.034.1-.1.1-.172.228h0c.034-.069.1-.131.069-.034a2.3,2.3,0,0,0,.228-.4.1.1,0,0,1-.069.1.24.24,0,0,1-.069.172h0Z" transform="translate(-12.824 -12.249)" fill="#f5b6c3"/><path d="M41.834,31.879h0l.034-.069-.069.069Z" transform="translate(-12.961 -12.237)" fill="#f5b6c3"/><path d="M41.807,32.026a.165.165,0,0,1,.034-.1h0V31.86h-.034a1.389,1.389,0,0,0-.1.172s.035-.069.069-.069h0l.035.062Z" transform="translate(-12.933 -12.252)" fill="#f5b6c3"/><path d="M41.881,32.222a.913.913,0,0,0-.1.172H41.75s.048-.069.069-.1h0a.344.344,0,0,1,.069-.131h0v.069Z" transform="translate(-12.945 -12.345)" fill="#f5b6c3"/><path d="M41.75,32.278v.069h0a.165.165,0,0,1,.034-.1H41.75v.034Z" transform="translate(-12.945 -12.373)" fill="#f5b6c3"/><path d="M41.838,31.817l.069-.1-.1.1h.034Z" transform="translate(-12.964 -12.209)" fill="#f5b6c3"/><path d="M41.8,31.794h0l.034-.034Z" transform="translate(-12.961 -12.221)" fill="#f5b6c3"/><path d="M40.79,31.288s.069-.172,0-.1v.069h0v.034Z" transform="translate(-12.648 -12.039)" fill="#f5b6c3"/><path d="M41.363,31.639V31.57S41.329,31.667,41.363,31.639Z" transform="translate(-12.821 -12.162)" fill="#f5b6c3"/><path d="M39.927,32.269,40,32.2l.1-.2-.172.262h0Z" transform="translate(-12.378 -12.296)" fill="#f5b6c3"/><path d="M40.053,31.477s.1-.1.1-.069l-.069.1V31.47s-.069.172.035,0V31.4a1.592,1.592,0,0,1,.131-.1c.069-.1,0,0,.034-.1-.069.172-.034,0-.1.131.069-.131,0-.069.069-.2,0,.034,0,.069-.035.034h0v.1a.917.917,0,0,0-.131.1.1.1,0,0,1,.035-.069v.069a.39.39,0,0,1,.034-.172h0v-.062h-.034s-.131.1-.069-.035h-.035v-.069h0c.1-.172-.034-.069-.034-.1v.1h-.131V31.1l-.069-.069h0c.069-.2-.131.1-.1-.035h0v-.062h0s0,.034-.069.1h-.035s-.035.069,0-.069c-.035.069-.069,0-.131.172h0a.512.512,0,0,1,.035-.172l-.131.131v-.076h0c.034-.131-.1-.069-.069-.2-.1.2,0-.1-.069.069,0-.035,0-.069.069-.1-.034.034,0-.1-.069,0,0-.035.034-.069.069-.1h0a.2.2,0,0,1,.035-.069c-.062.083-.117.172-.172.262q0-.069-.034,0s0-.1.069-.1c0,0,0-.1-.069,0H39.08s0,.034-.069.069h0s-.034,0,0-.1v.1c-.131.172,0-.131-.069-.069v.069s.069-.262.069-.3v-.034c0-.131-.069.1-.1.131,0-.069.069-.131.069-.172,0-.069-.131.172-.1.069a.13.13,0,0,1-.069.131s0-.2-.035-.069h0s-.069,0-.1.1c.1-.3-.131.1,0-.172h0a.1.1,0,0,0-.1.069v-.055q0-.069-.1.069v-.1s0-.172-.034-.069h0s0-.3-.131,0l-.069.069a.688.688,0,0,0-.069.2v-.131h0v-.172c-.069,0-.1-.131-.172-.172v.131h-.069s0-.131.035-.1c0-.069-.035.069-.069.1a.413.413,0,0,1,.069-.172h0s-.035.131-.069.131v-.083h0v.069s-.034,0-.069.1c.035-.2-.1-.1-.069-.172-.035.069-.069.069-.069.069s0,.131-.035.131c.069-.228,0-.1,0-.3,0,.131-.069,0-.1.2V30.18c-.069.1-.069-.069-.131-.069a.285.285,0,0,1-.035.131V30.07s-.034.2,0,.069v.069c-.069-.172-.228.1-.262-.228v.069s-.069,0-.069.131h0s-.035.3-.069.462c.035-.172,0,.228.069,0v.11c0-.069,0-.1.034-.069h0a.273.273,0,0,0,.1.131V30.78c.035-.131,0,0,0-.172,0,.172.069,0,.035.228,0,0,0-.1.034-.1h0v.131h.034a.223.223,0,0,0,.172-.1h.069l.035-.034a.173.173,0,0,1-.035.131c.069-.069.035-.069.1-.2v.069s0-.1.035-.1a.188.188,0,0,1-.069.172c0,.172.1-.131.069.1.069-.172,0-.1,0-.131,0-.069.069-.131.069-.1,0,0-.069.228,0,.228h0c.035-.1,0,0,.069-.131H37.79s.1-.172.1-.069a.165.165,0,0,1-.035.1h0c-.034.131-.034,0-.1.131,0,.069.069-.1,0,.069.069-.2,0,0,.1-.1v.1h0v.069s-.034.1,0,.034a.512.512,0,0,1,.035-.172c.069-.1-.069.228,0,.2h0a.156.156,0,0,1,.069-.131c0,.1,0-.035.069-.069v.1s.035-.172.035-.1l-.069.1h0V31.1h0a.413.413,0,0,1,.069-.172c0,.069-.035.069,0,.069,0,.069-.069.131-.035.034V31.1h0l.069-.1s0,.069-.034.069v-.062a.39.39,0,0,1-.035.172l.069-.069v.1s.1-.131.1-.069h0s0,.069.069,0v.131s0-.172.069-.2c.034,0-.034.1-.034.131.034-.069.1-.172.1-.069h0v.069a.467.467,0,0,0-.1.172c.1-.228.069,0,.172-.228v.069h0s.1-.172.1-.1v.034h.069s.069-.034.069-.069v.1c-.1.228.034-.069,0,.1h0a.49.49,0,0,1-.034.2.926.926,0,0,1,.1-.262h0c-.034.1,0,.069,0,.069v-.034a.272.272,0,0,1-.069.172.532.532,0,0,1,.069-.172c0,.069,0,0,.1-.034,0,.034-.034.069-.034.1l.069-.1h0s.069-.069.069-.1c.069-.131-.069.2,0,.069a.49.49,0,0,1-.069.1.545.545,0,0,0,.131-.172v.069a1.86,1.86,0,0,1,.131-.262v-.1h.1l-.069.069h0l-.069.131V30.96l-.1.2h0l-.069.1h0s.2-.228.228-.262a1.858,1.858,0,0,0-.131.262c.034-.1-.069.034-.069,0,0,0,0,.069-.035.069l.1-.1a.165.165,0,0,1-.034.1c.069-.172.069-.1.131-.172a.111.111,0,0,1-.069.1c-.035.131.131-.2.1-.069h0s.035,0,0,.069h0s.069.034.172-.1l-.1.2.3-.462a4.255,4.255,0,0,1-.262.5h0s.069-.2.1-.2c-.069.131,0,.069-.069.2,0,0,.1-.228.131-.2l-.1.2.131-.172a.731.731,0,0,0-.1.228c0-.034,0,0,.035,0h0s.172-.3.2-.262c0,.035-.131.228-.131.262.069-.1.262-.462.331-.531h0s-.262.428-.331.531v.069a.073.073,0,0,1-.062.069h0v.069a2.394,2.394,0,0,0,.172-.2l-.1.1s.2-.3.2-.262a.931.931,0,0,1-.131.228c0-.034.069-.069.069-.034v.069h0s-.069.172,0,.1c.069-.131.262-.531.331-.628a1.146,1.146,0,0,1-.069.2,1.628,1.628,0,0,1-.2.331s.035-.069.069-.069c0,0-.069.1-.034.1l.069-.1h0a1.466,1.466,0,0,1,.2-.262v.1s-.035.069,0,.1a.1.1,0,0,1-.069.1v.069c.034-.069.069-.069.1-.1.069-.1,0,0-.035,0a1.41,1.41,0,0,1,.228-.331c.035,0-.034.1,0,.069,0,.034.172-.228.172-.1a1.225,1.225,0,0,1-.131.228c-.035,0,0-.069,0-.069h0s-.035.1-.035.069c-.034.1.069.069.035.131a.489.489,0,0,1,.069-.1h0a.584.584,0,0,0,.1-.131h0l-.379.214Z" transform="translate(-11.476 -11.669)" fill="#f5b6c3"/><path d="M41.6,31.731s.069-.1.035-.069C41.707,31.593,41.542,31.759,41.6,31.731Z" transform="translate(-12.895 -12.186)" fill="#f5b6c3"/><path d="M41.42,32.362V32.4l.034-.1-.034.069Z" transform="translate(-12.843 -12.389)" fill="#f5b6c3"/><path d="M41.13,32.134v.035l.034-.069h0Z" transform="translate(-12.753 -12.327)" fill="#f5b6c3"/><path d="M40.886,32.6a.3.3,0,0,0,.035-.069S40.851,32.6,40.886,32.6Z" transform="translate(-12.674 -12.46)" fill="#f5b6c3"/><path d="M40.7,32.072h0l.1-.172Z" transform="translate(-12.62 -12.264)" fill="#f5b6c3"/><path d="M40.139,32.509V32.44l-.069.131c0,.069.069-.1.035-.034h0l.034-.035Z" transform="translate(-12.424 -12.432)" fill="#f5b6c3"/><path d="M36.994,30.109l-.035-.069v.069Z" transform="translate(-11.46 -11.688)" fill="#f5b6c3"/><path d="M38.814,32.107l.035-.1-.069.1Z" transform="translate(-12.024 -12.299)" fill="#f5b6c3"/><path d="M21.088,46.68v.035h.069S21.06,46.715,21.088,46.68Z" transform="translate(-6.537 -16.847)" fill="#f5b6c3"/><path d="M20.253,45.266h.3c.069,0,.172,0,.1.035h.3c-.172,0,0-.035-.172,0h.138s.069-.035,0-.035h0s-.131-.069,0-.1h.069s.069,0,0-.035c.2,0,.034-.035.069-.069h-.1l-.069-.034h-.1a.073.073,0,0,0,.069-.062h0c.2,0-.131-.034,0-.069h-.228c.172,0,0-.069.172-.1h.069c-.069,0,.1,0-.069-.034h-.069s.069-.035-.069-.035h-.083s-.069,0,.069-.034h-.1c-.2,0,.131,0,.034-.034h-.069a1.059,1.059,0,0,0,.3-.035h.069s-.228-.035-.1-.069h-.131s.2-.035,0-.035h-.131c.331-.034-.172-.034.131-.069h0a.243.243,0,0,0-.131-.069h.069c.069,0,.034-.034-.1-.034h.1s.172-.069.034-.069h.035c-.131,0,.262-.1-.1-.069h-.29s.1-.035.131,0h0c.2,0,.069-.035.2-.035,0-.034.1-.1.069-.172h-.228c.2-.034.069-.1.131-.1h-.2c.262,0,.1-.034.3-.069-.131,0-.034-.035-.2,0h.172c-.1,0,.069-.069,0-.1h.034s-.2,0-.069-.069h-.1s-.172-.1.131-.2h-.2l.131-.069h-.131l-.5.1c.172,0-.228.069,0,.069h-.028l-.1.1h0L20,43.638c-.2.034,0,.069-.2.1h.034s0,.069.1.069h.034s-.034,0,0,.035h0c-.172.035.172,0-.069.069.2,0,.1-.034.172-.034H20.2s-.262.034-.262.069h-.1s-.1.069,0,.069a.512.512,0,0,0,.172-.034c.131,0-.228.034-.2.069h.1s.069,0,0,.035h0a.92.92,0,0,1-.131.035c-.034,0,.172,0,.1.034h.034s-.1.034,0,.034H19.66c.262,0,0,.035.3,0h.172s0,.035-.069.035h-.069c-.262,0,.069,0-.1.035H19.86a.678.678,0,0,0-.2.034,1.069,1.069,0,0,1,.3,0h-.028l.1.034h.131c.131,0-.2.035-.034.035h-.2s.366.069.428.069h-.3c.131,0-.069,0,0-.034h.034a.285.285,0,0,0-.131.034h.131s0,.069.172.069h.331s-.5.034-.559.034H19.8a1.3,1.3,0,0,0,.228.035h.628a.826.826,0,0,0-.228.034h-.069s-.069.035-.069.069h.262s.3,0,.172.069h-.3c-.1,0,0,.069-.1.069h0l-.048.469Z" transform="translate(-6.096 -15.833)" fill="#f5b6c3"/><path d="M20.66,46.225l.1-.035h-.1Z" transform="translate(-6.406 -16.695)" fill="#f5b6c3"/><path d="M0,32.858l.034.035L0,32.83v.034Z" transform="translate(0 -12.553)" fill="#f5b6c3"/><path d="M.1,32.794h0v.069s.034-.1.069-.069C.1,32.663.169,32.794.1,32.794Z" transform="translate(-0.031 -12.524)" fill="#f5b6c3"/><path d="M.53,33.1l.034.069a.165.165,0,0,0-.034-.1h0V33.1Z" transform="translate(-0.164 -12.627)" fill="#f5b6c3"/><rect height="0.097" transform="translate(0.214 20.305)" fill="#f5b6c3"/><path d="M.654,33.2v.069l-.034-.1.034.034h0Z" transform="translate(-0.192 -12.658)" fill="#f5b6c3"/><path d="M.72,33.157a.919.919,0,0,1,.034.131v-.1H.72V33.15Z" transform="translate(-0.223 -12.652)" fill="#f5b6c3"/><path d="M.53,33.02s0,.069.034.069V33.02Z" transform="translate(-0.164 -12.612)" fill="#f5b6c3"/><path d="M.33,32.68a.7.7,0,0,1,.034.172A.386.386,0,0,0,.33,32.68Z" transform="translate(-0.102 -12.506)" fill="#f5b6c3"/><path d="M.654,32.994V32.96H.62v.035Z" transform="translate(-0.192 -12.593)" fill="#f5b6c3"/><path d="M.654,32.453l.034.069c-.034-.1,0-.131-.069-.262v.069a1.28,1.28,0,0,0,.172.4v-.1a.24.24,0,0,1-.069-.131h0L.654,32.46Z" transform="translate(-0.192 -12.376)" fill="#f5b6c3"/><path d="M.77,32.92h0s0,.034.069.1v-.1Z" transform="translate(-0.239 -12.581)" fill="#f5b6c3"/><path d="M.689,32.83a.307.307,0,0,0-.069-.2v.1a.2.2,0,0,0,.034.069h0v.069h0Z" transform="translate(-0.192 -12.491)" fill="#f5b6c3"/><path d="M.33,32.559A.787.787,0,0,1,.4,32.69a.368.368,0,0,0-.069-.2h0v.1h0v-.034Z" transform="translate(-0.102 -12.447)" fill="#f5b6c3"/><path d="M.81,32.958l.034.069-.034-.1v.034Z" transform="translate(-0.251 -12.584)" fill="#f5b6c3"/><path d="M.86,32.92l.034.069v-.034Z" transform="translate(-0.267 -12.581)" fill="#f5b6c3"/><path d="M2.06,32.54s.1.172.069.069V32.54Z" transform="translate(-0.639 -12.463)" fill="#f5b6c3"/><path d="M1.336,32.718s.014.035.034.035C1.37,32.718,1.3,32.656,1.336,32.718Z" transform="translate(-0.411 -12.51)" fill="#f5b6c3"/><path d="M1.87,31.19v.069l.1.228Z" transform="translate(-0.58 -12.044)" fill="#f5b6c3"/><path d="M4.312,30.537s-.131-.3-.2-.462c.034.172-.131-.2-.069,0V30.04h0a1.8,1.8,0,0,1-.172-.069h0c.034.131.034,0,.069.131-.069-.172-.1,0-.172-.172,0,0,.034.1,0,.1h0s-.069-.069-.069-.1H3.664a.178.178,0,0,0-.131.172h0s-.034,0-.069.069h0v.069a.448.448,0,0,1-.069-.131.629.629,0,0,0,.034.228V30.4c0-.069-.069-.1-.069-.172-.1-.131,0,.172-.1-.034.069.2.069.1.069.131,0,.069.034.131,0,.131,0,0-.1-.228-.131-.2h0s0,.069-.034,0c.034.1,0,0,0,.131h0s.034.172,0,.1v-.1h0c-.069-.131,0-.035,0-.172,0-.069,0,.1-.034-.034.069.2-.034,0,0,.131h0l-.069-.1s-.069-.069-.069,0c.034,0,.069.1.1.172,0,.131-.1-.2-.131-.131l.069.069-.069-.069a.919.919,0,0,1,.034.131c-.069-.1,0,.035,0,.1v-.1H2.96v-.062s-.034.069-.069.034c0,.069.069.172.034.172,0-.034,0-.069-.034-.069,0-.069-.034-.131,0-.034v-.069H2.822v.1a1.284,1.284,0,0,1-.069-.172v.1s-.069-.069-.069-.1c-.034-.034,0,.172-.034.1h0s-.1-.034-.069.069l-.069-.131s.1.131.069.2c0,.034-.069-.1-.069-.131,0,.069.034.2,0,.1h0V30.42a.612.612,0,0,0-.1-.172c.1.228-.069.069.034.3H2.415v-.062s.069.172,0,.172a.131.131,0,0,1-.034-.069v.069H2.346v.1s-.034-.131,0-.131c-.131-.228,0,.069-.1-.069h0c-.069-.172-.069-.1-.131-.2,0,.035.131.2.131.262h0c-.034-.1-.034-.069-.034-.069v.028a.913.913,0,0,1-.1-.172,1.284,1.284,0,0,1,.069.172c-.034-.035-.034,0,0,.1a.124.124,0,0,0-.028-.1v.1h0a.643.643,0,0,1,.034.1c.034.131-.1-.172-.069,0a.165.165,0,0,0-.034-.1v.2L2.021,30.8s.069.2.1.262l.069.1v.069a.165.165,0,0,0-.034-.1h0L2.084,31v.069a.49.49,0,0,0-.034-.2h0l-.069-.1h0v.393c0-.1-.069-.172-.1-.262.069.1,0-.069.034-.035L1.884,30.8v.131a.121.121,0,0,0-.069-.1c.069.172,0,.131,0,.2,0-.069-.034-.131,0-.1-.069-.131.069.228,0,.1h0c0,.069,0,0-.034,0h0s-.1,0-.034.172L1.677,31l.131.524a3.93,3.93,0,0,1-.2-.5h0a1.069,1.069,0,0,1,.1.2l-.1-.2s.1.228.069.228a1.13,1.13,0,0,0-.1-.228l.069.2s-.069-.172-.1-.228h0s.069.331.034.331c0-.035-.1-.262-.131-.262,0,.1.172.5.172.593h0s-.172-.5-.2-.628c0-.034,0-.069-.034-.069v-.1H1.325a.368.368,0,0,0,.069.2V30.93s.1.331.069.331a1.2,1.2,0,0,0-.1-.262h0s0,.172-.034.069c0,0-.069-.131-.069-.069.069.131.228.559.262.662,0,0-.1-.131-.131-.172-.069-.1-.069-.262-.131-.331v.1s-.034-.1-.034-.069c.034.131-.034,0,0,.1,0,.034,0,0-.034,0,.034.069.1.262.069.3a.165.165,0,0,0-.034-.1c-.034,0-.069-.069-.1-.035a.49.49,0,0,0-.069-.1v.069l-.034-.131v.172c.034.1.034,0,.034-.034a.9.9,0,0,1,.1.4c0,.034-.034-.1-.034-.069-.069,0,.069.262,0,.172a1.2,1.2,0,0,1-.1-.262c0-.034.069.069.069.034H1.062v-.069c-.034-.069-.1,0-.172-.069v.1H.938a.241.241,0,0,0,.034.131h0c0,.069-.1-.131-.034,0v.069s.069.172.034.172c.034.1,0,0,.069.1-.069-.172.069,0,0-.172a.848.848,0,0,0,.1.172v-.062h0v-.235a1.284,1.284,0,0,1,.069.172h0s.069.069.069,0h0v-.069h0s0-.131.1,0v.035s.1.069.069,0c.1.172.069,0,.131.034v-.228s.048.021.062,0h0c.1.172,0-.172.1-.034H1.8l-.034-.069v-.069s0-.069.069.1a.826.826,0,0,0-.034-.228h0v-.034a.764.764,0,0,1,.1.2V31.51s0-.1.034-.035c.069.131.1,0,.2.1-.1-.2.069.069,0-.069,0,.034.034.069.069.131,0-.069.069.069.034-.069a.129.129,0,0,0,.034.1h0v.062a1.491,1.491,0,0,0-.1-.3c.034.069.034.034,0-.035,0,.035.069.1.034.1,0,0,.1.034.034-.069h.034v-.062h0s0-.034.1.069v-.069c-.1-.172.034.1.034,0h0s.131.2.172.2v.034c.069.1-.034-.1,0-.131a.413.413,0,0,0,.069.172c0,.034-.034-.2.034-.1a.243.243,0,0,0-.069-.131s.131.172.069,0h0v-.138c.131.3,0-.172.131.1h.034V31.3c.069.034.069,0,.034-.131v.1s.172.1.131,0h0s.2.228.069-.069v-.1l-.1-.2s.069.069.069.1h0s.069,0,.1.131c.069-.034.172,0,.228,0l-.069-.131h0s.034.1,0,.1c.034.069,0-.069,0-.1.069.035.034.172.069.172h0v-.138l.034.069H3.45L3.381,31v-.1c.1.172.131,0,.172.069v-.1s-.069-.131-.034-.131c.1.228.069.1.172.262-.069-.1.034-.035-.034-.2a.344.344,0,0,0,.069.131c0-.1.1,0,.131,0a.461.461,0,0,1-.034-.131l.1.131s-.069-.172,0-.069v-.069s.1-.2.3.069c-.034-.069,0-.069,0-.069h0s.069,0,.034-.131h0l.1-.166Z" transform="translate(-0.276 -11.654)" fill="#f5b6c3"/><path d="M.794,32.573s0-.034-.034,0Z" transform="translate(-0.236 -12.468)" fill="#f5b6c3"/><path d="M.72,32.274V32.24l.034.1L.72,32.268Z" transform="translate(-0.223 -12.37)" fill="#f5b6c3"/><path d="M1.44,31.96h0l.069.172Z" transform="translate(-0.446 -12.283)" fill="#f5b6c3"/><path d="M1.536,31.259a.2.2,0,0,0,.034.069c0-.034,0,0-.034-.131-.034-.035.034.1,0,.069Z" transform="translate(-0.473 -12.045)" fill="#f5b6c3"/><path d="M5.94,31.1l.034.034Z" transform="translate(-1.842 -12.016)" fill="#f5b6c3"/><path d="M2.97,30.57h0l.069.1Z" transform="translate(-0.921 -11.852)" fill="#f5b6c3"/></g><g transform="translate(871.549 2567.503)" opacity="0.85"><path d="M21.35,6.581a.187.187,0,0,0-.037-.071C21.275,6.619,21.35,6.581,21.35,6.581Z" transform="translate(-13.32 -5.36)" fill="#f5b6c3"/><path d="M20.629,9.53l-.019.161.019-.142Z" transform="translate(-12.887 -7.248)" fill="#f5b6c3"/><path d="M19.867,10.631h.019s.094,0,.109-.037h0l-.071-.142h0l.037-.161a.34.34,0,0,0-.161.037h0l.071.142a5.263,5.263,0,0,1-.161.54c.071-.052.109-.232.142-.378h.019Zm.071-.161-.037.124Z" transform="translate(-12.325 -7.723)" fill="#f5b6c3"/><path d="M18.867,13.17h0a.239.239,0,0,1-.037.124c.037-.019,0,.124.052-.124h-.019Z" transform="translate(-11.774 -9.524)" fill="#f5b6c3"/><path d="M18.387,14.272V14.13s-.052.142-.052.094c-.037.142,0,.124.052.052h0Z" transform="translate(-11.455 -10.124)" fill="#f5b6c3"/><path d="M18.587,14.264l-.037.161s.037,0,0-.071V14.26h.037Z" transform="translate(-11.599 -10.206)" fill="#f5b6c3"/><path d="M18.65,14.642l.019-.052.037-.27-.052.322h0Z" transform="translate(-11.662 -10.243)" fill="#f5b6c3"/><path d="M16,17.321s-.094-.052-.019-.071a1.606,1.606,0,0,0-.3.052H16Z" transform="translate(-9.805 -12.075)" fill="#f5b6c3"/><path d="M15.29,17.464a1.176,1.176,0,0,0,.142-.037A.177.177,0,0,0,15.29,17.464Z" transform="translate(-9.561 -12.184)" fill="#f5b6c3"/><path d="M15.691,17.6s-.161.019-.251.019h.3s.052-.037-.052-.037h0Z" transform="translate(-9.655 -12.282)" fill="#f5b6c3"/><path d="M14.57,17.571a.342.342,0,0,1,.124.019C14.656,17.59,14.57,17.553,14.57,17.571Z" transform="translate(-9.111 -12.273)" fill="#f5b6c3"/><path d="M16.839,17.63a.167.167,0,0,0-.109.037h.109Z" transform="translate(-10.461 -12.313)" fill="#f5b6c3"/><path d="M11.9,17.791s.4.052.251.094c-.232.019-.2,0-.3-.037.094.052-.3.071-.251.142l.2-.037s-.071.037,0,.037c0-.037.217-.071.4-.037.18-.037.052-.161-.094-.232,0,0,0,.037-.18.052h0l-.015.015Z" transform="translate(-7.245 -12.369)" fill="#f5b6c3"/><path d="M12.94,17.632h.416a1.865,1.865,0,0,1-.251-.052c-.124.019-.142.037-.161.052h0Z" transform="translate(-8.091 -12.282)" fill="#f5b6c3"/><path d="M16.539,17.96H16.25l.142.052h0c.161,0,.124-.037.142-.052Z" transform="translate(-10.161 -12.519)" fill="#f5b6c3"/><path d="M12.594,17.592l.037-.052-.161.071.124-.019Z" transform="translate(-7.797 -12.257)" fill="#f5b6c3"/><path d="M11.64,17.617l.019-.037-.109.019.094.019h0Z" transform="translate(-7.222 -12.282)" fill="#f5b6c3"/><path d="M18.637,32.5l-.037.071.071-.094h-.037V32.5Z" transform="translate(-11.631 -21.599)" fill="#f5b6c3"/><path d="M8.73,18.169l.037-.019S8.73,18.15,8.73,18.169Z" transform="translate(-5.459 -12.638)" fill="#f5b6c3"/><path d="M15.555,11.758s-.18.18-.109.124l.2-.142h-.052a1.738,1.738,0,0,1,.36-.3c.2-.109.161-.052.251-.109,0,0,.037,0,.109-.071l.431-.3-.322.142c.094-.109.36-.251,0-.071.071-.037.161-.071.251-.124a1.416,1.416,0,0,1-.251-.019v-.037a.586.586,0,0,0-.124-.071c-.052,0-.071,0-.232.071a.12.12,0,0,0-.109-.071.768.768,0,0,0-.36.094h-.611a3.009,3.009,0,0,1-.412.037h0a.3.3,0,0,0-.109-.094.445.445,0,0,0-.27.094c-.094-.052-.431-.019-.555-.109.052.019-.019.037-.124.037-.18-.052-.4-.124-.45-.142a.09.09,0,0,1-.052-.019c-.071-.019-.124,0-.341.142h-.251a2.848,2.848,0,0,1-.4-.037h-.052c-.18-.052-.431-.109-.5-.124v-.075h0a.892.892,0,0,0-.019-.2,3.924,3.924,0,0,0-.071-.468.346.346,0,0,0-.112-.067h-.094l-.037-.071.037-.142a2.089,2.089,0,0,0,.094-.663.3.3,0,0,0-.109-.071c-.071,0-.071-.019-.3.124L10.8,8.9V8.854a3.459,3.459,0,0,0-.019-.521.3.3,0,0,0-.109-.071H10.6l.052-.161a1.957,1.957,0,0,0,.18-.682.3.3,0,0,0-.109-.071.367.367,0,0,0-.2.052V7.363a.5.5,0,0,1-.071-.052l-.037-.071c-.18-.341-.217-.4-.217-.412a.166.166,0,0,0-.109-.071H9.987a.182.182,0,0,0-.019-.109.163.163,0,0,0-.094-.071.226.226,0,0,0-.161.037H9.69l.071.142-.071.037L9.672,6.7c0,.052-.142.378-.217.592a2.193,2.193,0,0,0-.217.719.3.3,0,0,0,.109.071c.052,0,.071.019.322-.124a2.126,2.126,0,0,1-.217.232c-.2.2-.341.36-.468.5l.037-.052V8.547a1.086,1.086,0,0,0-.052.18c-.289.3-.36.412-.378.483a.65.65,0,0,1-.052.142c.019-.037.052-.094.071-.094h0v.019h.019s.052.071.109.071a2.345,2.345,0,0,0,.719-.341c-.124.124-.251.232-.36.36-.36.36-.592.573-.738.738h0l-.142.161V10.2s-.052.142-.094.142h.037c-.071.094-.052.124,0,.18,0,0,.019.037.037.037h0v.052h0v-.037h.071l-.037.052a.056.056,0,0,0,.052-.037h0s.27-.124,1.132-.611c.378-.217.9-.521,1.023-.573a.094.094,0,0,0,.071-.019.052.052,0,0,0,.037-.019s.037,0,.037.019a.713.713,0,0,0,.052.18l.037-.052a.6.6,0,0,1,.037.217c.124.109-.109-.341,0-.232a.771.771,0,0,0,.052.289,15.422,15.422,0,0,0-2.893,1.525c-.611.36-1.311.753-1.814,1.023.109-.124.232-.251.341-.378q.916-.989.843-1.113a.317.317,0,0,0-.071-.052H7.116s.124-.037-.019-.052h.18a.675.675,0,0,1-.172-.019h-.36a1.544,1.544,0,0,0,.322,0c-.052.037-.2.052-.142.109-.052.019-.124.071-.232.124H6.674c-.142.094-.36.2-.663.378-.217.124-.483.27-.663.378l.052-.2c.124-.521.142-.592.124-.644h.1c.019-.037-.037-.037-.124-.037a.2.2,0,0,0-.071-.052,1.038,1.038,0,0,1,.322-.019c-.109-.052-.052,0-.217-.052.142.094-.573,0-.341.094a.65.65,0,0,0-.142-.052.13.13,0,0,0,0-.161.166.166,0,0,0-.109-.071,2.072,2.072,0,0,0-.483.217H4.426l-.094.052-.071.037a.642.642,0,0,0-.3.037c-.161,0,.037-.019-.071-.052l-.161.037-.142-.037-.109-.071h0a1.8,1.8,0,0,1-.217-.124c-.019,0-.037-.037-.071-.037a.389.389,0,0,0-.232.071l-.071.037a1.085,1.085,0,0,1-.109-.071.163.163,0,0,0-.071-.037.226.226,0,0,0-.161.037H2.5l.037.109H2.47l.094.052H2.526a.085.085,0,0,0,.037.071v.071h.094c.071.037.161.109.322.217.142.094.3.217.36.251.052.052.109.052.2.019.037.019.071.052.109.071a1.849,1.849,0,0,0,.124.322.163.163,0,0,0,.094.071.5.5,0,0,0,.052.124.166.166,0,0,0,.109.071h.109c.052.052.124.124.232.251s.251.27.27.289a.1.1,0,0,0,.094.052.324.324,0,0,0,.217-.071h0l.378.109h.037c-.071.124-.052.161,0,.217a.118.118,0,0,0,.094.064.43.43,0,0,0,.18-.037,6.366,6.366,0,0,0,.629.45q0,.094.037.109a.166.166,0,0,0,.109.071.364.364,0,0,0,.142-.019l.217.27c.071.109.161.2.2.251a.872.872,0,0,0-.052.124c0,.019-.019.037-.019.071-.019.071-.037.161-.052.251h0c-.555.648-.806,1.012-.753,1.094a.3.3,0,0,0,.109.071c.052,0,.071,0,.27-.094,0,.037.037.019.071,0v.124c-.037,0-.052.052-.071.094-.36.27-.322.322-.27.412,0,.037.037.052.071.071a.139.139,0,0,0,0,.142h.019c-.052.161-.124.36-.18.5L6,17.214H6c-.109.289-.109.3-.071.36h0c0,.094-.037.161-.037.289l-.052.037a1.024,1.024,0,0,1-.037.18.265.265,0,0,1-.071.18c-.034.064-.064.131-.094.2a9.681,9.681,0,0,0,.862-.54c.18-.124.378-.251.555-.36a4.14,4.14,0,0,1,.378-.217c-.161-.037.27-.109.232-.2.052,0,.124-.037.052.037.232-.2.412-.217.54-.4.052,0-.037.071,0,.071,0-.019.071-.071.109-.071s-.019.037-.052.094c.251-.18.232-.27.2-.341a.468.468,0,0,0,.289-.217c.052,0,.161-.037,0,.071.094-.052.573-.341.555-.4.037,0,.124-.094.142-.109l.217-.142a.678.678,0,0,0,.109-.071h0a.3.3,0,0,0,.109.094.364.364,0,0,0,.142-.019c.161.142.2.161.251.18l.037.037c.124.124.27.289.289.3a.1.1,0,0,0,.094.052.24.24,0,0,0,.142-.037h0a.734.734,0,0,1-.019.18,2.325,2.325,0,0,0-.052.663.3.3,0,0,0,.109.071l.644-.3.052-.037h0s-.094.037.037.124c0,.019.071.052.124.071-.142.18-.124.2-.071.27a.166.166,0,0,0,.109.071c.071,0,.071.019.378-.142a.658.658,0,0,1,.161.124c-.037-.052-.052-.109.052-.052a.992.992,0,0,1,.217.18,1.626,1.626,0,0,0,.037.521.166.166,0,0,0,.109.071c.071,0,.071.019.468-.2.161.094.378.217.483.27a.484.484,0,0,0,0,.18.166.166,0,0,0,.109.071h.037a.131.131,0,0,0,.109-.037.833.833,0,0,0,.232.161c-.037-.071-.052-.161-.094-.251h.019s.109-.142.052-.217c0-.019-.037-.037-.052-.052h0s.094-.142.052-.217c0-.019-.037-.037-.052-.052a1.49,1.49,0,0,0,.071-.555.166.166,0,0,0-.109-.071c-.052,0-.071,0-.27.094-.019-.052-.019-.071-.037-.071l-.03-.045a2.638,2.638,0,0,0-.124-.341.5.5,0,0,0-.109-.142c0-.071.019-.019.037-.019l-.037-.124c.232-.4.217-.412.18-.483a.166.166,0,0,0-.109-.071.367.367,0,0,0-.2.052c.037-.109.052-.217.094-.3v-.037a.4.4,0,0,0,.052-.124q.109-.4.071-.45a.166.166,0,0,0-.109-.071,1.519,1.519,0,0,0-.4.161,1.433,1.433,0,0,0-.124-.3s.019,0,.037.037a3.051,3.051,0,0,1-.2-.7c0-.052-.037-.109-.037-.161v-.071h-.037v-.037a.883.883,0,0,0,.037-.142h0s.094-.094.071-.142l.378-.27h0c.644-.45,1.311-.862,1.922-1.274H15.06l.217-.161c.071-.019.109,0-.037.094.052,0,.109-.052.161-.109s.094-.124.094-.124c.217-.124.217-.109.142-.037h0l-.071.015Zm.629-.45-.094.052C16.2,11.268,16.184,11.29,16.184,11.309Zm-9.45,2.012h0s-.052-.094-.109-.094H6.573v-.094h.052a.071.071,0,0,0,.037.071.12.12,0,0,0,.109.071c.124.037.232,0,2.316-1.222.232-.124.483-.289.719-.412-.27.2-.54.412-.772.611-.97.772-1.439,1.132-1.652,1.33h0a1.085,1.085,0,0,0-.109-.071s-.037-.037-.052-.037l-.037-.037s-.142-.217-.18-.18a.276.276,0,0,1-.094.3c-.071-.094-.124-.18-.161-.217h0l-.015-.03Zm4.024-3.091a.3.3,0,0,0,.109.071h.071a.531.531,0,0,1,.019.217c.071.18.037-.071.109.109v.052l.037.037h0a.259.259,0,0,0-.094-.037c-.109-.019-.142-.037-2.121,1.113-.27.161-.555.322-.843.483.27-.217.573-.431.843-.63,1.094-.809,1.615-1.222,1.87-1.435h0v.019Zm1.817,3.125V13.3l.3-.2c-.161.124.037.094-.251.251l.094-.142-.161.124h0Zm-.521.36h.052c-.412.217-1.132.611-2.443,1.364.5-.3,1.023-.629,1.51-.918s.952-.573,1.345-.828l-.052.037-.052.037-.071.052s-.18.124-.322.217v.037h.037Zm.322,2a.3.3,0,0,0,.109.071h.071c-.161.094-.341.2-.573.322l-.251.142a2.262,2.262,0,0,0,.18-.2c.18-.18.3-.322.431-.45,0,.094.019.094.037.109h0Zm-1.169.322s.037.052,0,.052Zm.071,0A.427.427,0,0,0,11.208,16v-.052c.142-.071.378-.217.772-.45l.052-.037c-.124.124-.251.27-.36.378s-.232.251-.322.341c-.052-.071-.071-.109-.071-.142h0Zm-.791-.989a.09.09,0,0,0-.019-.052h0c.431-.27.843-.5,1.2-.7h0a.122.122,0,0,0,.124,0h0c-.124.071-.322.2-.644.378-.217.124-.468.27-.629.36h0l-.037.019Zm1.7-.719a.09.09,0,0,0-.019-.052c0-.019-.037-.037-.052-.052h0l.052-.037.037.071v.052h-.019v.019Zm-.056.18c-.094.289-.094.3-.052.36a.12.12,0,0,0,.109.071h.037v.052c-.109.071-.251.142-.412.251-.109.071-.232.142-.36.217a2.539,2.539,0,0,1,.2-.251c.289-.378.431-.573.5-.682h0l-.019-.019Zm.378,1.69a1.343,1.343,0,0,0-.45.2l.071-.037c.142-.094.322-.18.468-.27l-.109.109h.019Zm.322.719a.266.266,0,0,1-.052-.037l.094-.052-.052.094h.015Zm.094-.468s-.232.124-.45.251c.075-.086.15-.172.232-.251l.161-.18s.037.109.052.18h0Zm-1.885-3.054c-.97.555-2.065,1.184-2.945,1.69.682-.431,1.476-.933,2.192-1.383a41.139,41.139,0,0,0,3.683-2.406h0a.752.752,0,0,0,.322-.124h0s.052.18.071.27v.037c-.719.4-1.795,1-3.357,1.922h.034Zm.109-2.514h0V11a.071.071,0,0,0-.037-.071C11.118,10.912,11.156,10.893,11.156,10.878Zm-.052.071c.037.094.071.2.109.289h.45c-.412.232-.989.555-1.832,1.042-.412.232-.862.5-1.274.738.217-.18.468-.36.682-.54a22.824,22.824,0,0,0,1.87-1.533h0Zm2.173.217h-.037a.816.816,0,0,1,.251-.037c-.4.2-1.15.629-2.623,1.491-.644.378-1.4.809-2.05,1.184.3-.2.629-.412.933-.629,1.742-1.169,2.514-1.7,2.836-1.975a3.767,3.767,0,0,0,.682-.037ZM10.005,12.53c.289-.161.592-.341.9-.521-.45.3-.918.629-1.345.918-1.132.753-1.761,1.184-2.121,1.454v-.037H7.42l.109-.071s0-.019-.037-.037V14.2h.037s.071-.071.071-.124c.142-.18.2-.251.18-.3.322-.161.952-.521,2.214-1.259h0l.015.019ZM7.274,14.468h0l-.037.037v-.037Zm.109.431a36.114,36.114,0,0,0,3.376-1.87c-.217.142-.431.27-.644.412-1.345.843-2.244,1.42-2.859,1.795.161-.251.142-.289.109-.341h.019ZM7,14.8a.1.1,0,0,0,.037.071v.037l-.071.052v-.071l.037-.071h0V14.8Zm-.468,1.87h0l.052-.142s.052.019.052.037v-.161s.019-.109.019-.124c.037,0,.071-.037.109-.052a.278.278,0,0,1,.019-.094c.592-.289,1.814-.97,4.436-2.5.843-.483,1.795-1.023,2.6-1.491-.862.54-1.885,1.169-2.822,1.724-2.675,1.634-3.916,2.406-4.489,2.8h.019Zm6.628-3.736a1.3,1.3,0,0,1-.094.109l-.037-.037.124-.071h0Zm-2.893,2.477s-.052-.052-.094-.052H10.14l.094-.052v.037a.12.12,0,0,0,.109.071c.094.019.109.019.97-.483l.232-.124-.142.2a8.1,8.1,0,0,0-.592.828c-.094-.052-.2-.094-.3-.161-.124-.109.052,0,0-.071l-.109-.037-.142-.142h.019ZM14.925,11.1l.071.037h.052l.037-.037H15.1l-.4.2-.034-.12a1.117,1.117,0,0,1,.232-.094h0l.015.015Zm-3.376-.412-.037-.037Zm-1.51-3.766h0l-.052.037.037-.071v.037h.019ZM9.822,7.4c.071-.2.124-.341.161-.45l.037.052s-.037.2-.094.2a.468.468,0,0,1,.094.251l-.161.094-.124.071L9.829,7.4h0Zm-.052,1c.18-.18.3-.341.412-.45,0,.019.019.037.037.052,0,.071-.052-.052-.052,0a.512.512,0,0,1,.142.27c-.071,0-.18.071-.753.4H9.518l.251-.251h0V8.409ZM9.32,9.754l-.176.109.251-.251c.483-.483.772-.753.918-.933h.124A2.434,2.434,0,0,1,10.53,9v.124h0c-.094-.019-.109-.037-1.2.611h0v.019Zm-1.21,1.829c.483-.27,1-.573,1.476-.843-.27.217-.573.431-.843.629A12.657,12.657,0,0,0,6.693,13a.118.118,0,0,1-.052-.052L6.693,13v.037a.212.212,0,0,1-.094-.019v-.056a1.754,1.754,0,0,0-.071-.483c.36-.2.881-.483,1.581-.9h0Zm-1.832,0,.251-.142c-.109.109-.2.217-.289.322-.289.3-.483.521-.611.663H5.535v-.034c-.142-.094-.232-.18-.341-.251.094,0,.142,0,1.094-.555h0l-.015-.007Zm-1.6.142c-.124-.161.2.124.109-.019a.268.268,0,0,1-.161-.052L4.5,11.6h0s.18-.109.3-.18.27-.161.412-.232l-.052.232c-.109.483-.124.555-.109.611-.037-.037-.094-.052-.124-.094,0-.037-.142-.142-.052-.124a.335.335,0,0,1-.18-.094H4.681Zm-.094.075a1.785,1.785,0,0,1-.2-.071l-.071-.037.142-.071s.251.142.341.2c-.037.037-.109.037-.217,0h0V11.8Zm.54-.933q-.163.079-.483.27c-.161.094-.36.217-.521.289h0l-.056-.157s.217-.109.5-.27l.142-.094h.037a1.681,1.681,0,0,1,.2-.109h.109l.052.052a.487.487,0,0,0-.232,0,1.416,1.416,0,0,1,.251.019h0Zm-.3,1.383h0l-.037-.037h0l-.037-.037.037.037.071.037H4.816ZM8.2,16.416a.534.534,0,0,1,.161-.094A.389.389,0,0,1,8.2,16.416Zm.341,0s-.019-.019,0-.071l-.037.037c-.109.037-.094-.019-.037-.094l.124-.037s.071-.142.037-.18l-.071.071V16.1l-.071.071H8.372l-.378.2a4.326,4.326,0,0,1-.719.738c.071-.109-.037-.094-.071-.142.142,0,.289-.217.483-.341-.109.071-.109.019-.094,0l-.322.289a.923.923,0,0,0-.217.071c.071,0,0,.071-.071.142a1.3,1.3,0,0,1-.142.109l-.037.037H6.783l-.037.052v-.049s0-.019.037-.037a.262.262,0,0,1,.109-.071.091.091,0,0,0-.067.034H6.787v.037H6.768a.187.187,0,0,1-.037.071.168.168,0,0,1-.142.124c.037-.019.052-.019.052-.052A.5.5,0,0,1,6.5,17.5c-.037.019-.052,0-.037-.019h.019a2.486,2.486,0,0,0-.3.18v-.124l.124-.071s.18-.109.217-.124h.019s.109-.142.052-.217l-.037-.037c.3-.161.862-.468,1.922-1.06h.019v.037h0a.155.155,0,0,1,.071.019H8.6a.12.12,0,0,0,.071-.019.816.816,0,0,1-.161.18.775.775,0,0,0,.161-.037l-.232.2h0l.094.015Z" transform="translate(-1.544 -5.4)" fill="#f5b6c3"/><path d="M18.7,32.046h.037S18.737,32.027,18.7,32.046Z" transform="translate(-11.693 -21.322)" fill="#f5b6c3"/><path d="M9.651,17.58H9.49a1.121,1.121,0,0,1,.161.037S9.614,17.6,9.651,17.58Z" transform="translate(-5.934 -12.282)" fill="#f5b6c3"/><path d="M5.937,17.694c.109,0,0-.052.071-.037.037-.019-.124,0-.217,0-.094.019-.094.037.124.019h0l.019.019Z" transform="translate(-3.584 -12.324)" fill="#f5b6c3"/><path d="M22.7,6.681,22.61,6.61a.519.519,0,0,1,.037.124l.052-.052h0Z" transform="translate(-14.138 -5.422)" fill="#f5b6c3"/><path d="M13.6,12.12l-.037.019h.019Z" transform="translate(-8.479 -8.868)" fill="#f5b6c3"/><path d="M13.492,12.032h.052s-.071-.037-.052-.052C13.439,12.032,13.529,12,13.492,12.032Z" transform="translate(-8.426 -8.78)" fill="#f5b6c3"/><path d="M13.71,11.527h.037a.109.109,0,0,1,.019-.037c-.019,0-.037,0-.052.037Z" transform="translate(-8.573 -8.474)" fill="#f5b6c3"/><path d="M13.6,11.68s0,.019-.037.037C13.579,11.717,13.631,11.717,13.6,11.68Z" transform="translate(-8.479 -8.592)" fill="#f5b6c3"/><path d="M13.57,11.377h.019s0-.019.037-.037a.266.266,0,0,0-.052.037h0Z" transform="translate(-8.485 -8.38)" fill="#f5b6c3"/><path d="M13.38,11.767l.071-.007h0Z" transform="translate(-8.366 -8.642)" fill="#f5b6c3"/><path d="M13.57,11.219h.019l.037-.019-.052.019h0Z" transform="translate(-8.485 -8.292)" fill="#f5b6c3"/><path d="M13.57,11.1s.037-.037.052-.037H13.57Z" transform="translate(-8.485 -8.205)" fill="#f5b6c3"/><path d="M13.507,11.3l-.037.037h0a.04.04,0,0,0,.037-.034h0Z" transform="translate(-8.423 -8.355)" fill="#f5b6c3"/><path d="M13.439,11.359h0l-.019-.019Z" transform="translate(-8.392 -8.38)" fill="#f5b6c3"/><path d="M13.18,11.667a.14.14,0,0,1,.094-.037A.13.13,0,0,0,13.18,11.667Z" transform="translate(-8.241 -8.561)" fill="#f5b6c3"/><path d="M13.33,11.269s.037,0,.037-.019H13.33v.037h0Z" transform="translate(-8.335 -8.324)" fill="#f5b6c3"/><path d="M12.647,11.1a.109.109,0,0,1,.019-.037c-.037.037-.071,0-.142.052h.034s-.037,0-.037.019c.037-.019.071-.019.052,0a.778.778,0,0,0,.217-.124h-.052s-.037.052-.071.052h0l-.015.037Z" transform="translate(-7.829 -8.174)" fill="#f5b6c3"/><path d="M13.23,11.06V11.1h0l.037-.037Z" transform="translate(-8.273 -8.205)" fill="#f5b6c3"/><path d="M13.051,11.154H13c-.037.019-.071,0-.109.052h.056s.019,0,.037-.037h.037l.034-.019Z" transform="translate(-8.06 -8.261)" fill="#f5b6c3"/><path d="M12.94,11.8l.019-.019Z" transform="translate(-8.091 -8.655)" fill="#f5b6c3"/><path d="M13.042,11.59a.88.88,0,0,0-.094.071h.019a.109.109,0,0,0-.037.019.09.09,0,0,0,.052-.019h0l.052-.052h0V11.59Z" transform="translate(-8.085 -8.536)" fill="#f5b6c3"/><path d="M13.224,10.979l.037-.019-.071.019h.037Z" transform="translate(-8.248 -8.142)" fill="#f5b6c3"/><path d="M13.226,10.92h-.037l-.019.019.052-.019Z" transform="translate(-8.235 -8.117)" fill="#f5b6c3"/><path d="M12.18,9.19l.037-.03H12.18V9.2h0Z" transform="translate(-7.616 -7.017)" fill="#f5b6c3"/><path d="M12.711,10.187V10.15S12.659,10.2,12.711,10.187Z" transform="translate(-7.934 -7.636)" fill="#f5b6c3"/><path d="M12.75,10.16s.019-.037,0-.019h0s.019.007.019.019Z" transform="translate(-7.973 -7.627)" fill="#f5b6c3"/><path d="M10.69,9.311h.052l.109-.071Z" transform="translate(-6.684 -7.067)" fill="#f5b6c3"/><path d="M6.97,3.987l-.037.037c.037-.019.052-.019.052,0h0s.019.071.037.124l.037-.037v.034c.071-.037,0-.019.052-.071-.071.071.052.052-.037.142,0,0,.037-.037.052-.037h0a.266.266,0,0,1-.037.052h0s.037.019.037.037h0a.176.176,0,0,0,.124.052h0s0,.019.037.037h.037c-.037,0-.037.052-.071.052.052,0,.037,0,.124-.037l-.037.037s.052-.019.071,0c-.037,0-.037.037-.094.052-.052.071.109,0,0,.071.109-.052.037-.052.052-.071.019-.037.071-.037.071-.019,0,0-.109.094-.071.124h0s.037,0,0,.037c.052-.037,0,0,.071-.037H7.4s.124-.052.094,0H7.446s.019,0,0,.019c-.071.052-.037,0-.109,0-.019.019.071,0,0,.037.109-.052,0,.037.094,0l-.037.037H7.374s-.019.071,0,.071c-.019-.019.052-.037.071-.071.071,0-.094.094-.052.109a.04.04,0,0,1,.034-.037h0a.07.07,0,0,1-.041.056c.019.019.037-.037.071-.037-.052.037.037,0,.052,0l-.034.037s.094-.052.071,0l-.071.037h.019l-.052.037s.037,0,.037.019c.037-.019.071-.052.094-.037-.019.019-.037.019-.019.037-.037,0-.071.037-.037,0H7.479v.052h.094a.289.289,0,0,1-.094.037h.052s-.037.037-.052.037c0,.019.094,0,.071.019h.019s-.037.071.037.052l-.052.052s.071-.071.109-.052c.037,0-.052.037-.071.052.037,0,.109-.037.071,0h0l-.037.037a.2.2,0,0,0-.109.037c.124-.071.052.037.18-.019h.052s-.019.037-.037.037H7.73l.037.037h.071s-.071.037-.071,0c-.124.094.037,0,0,.071H7.749l-.071.071s.094-.094.142-.094c0,0,0,.019.019,0-.052.019-.037.037-.019.037l-.052.037a.278.278,0,0,0,.094-.019l-.079.075s.071-.052.094-.037c0,.037.019.037.071.037,0,.019-.037,0-.052.037h.037a.259.259,0,0,1,.094-.037c.071-.037-.071.094,0,.052a.056.056,0,0,0-.052.037H8.1l-.037.037a.508.508,0,0,1,.161-.052l.037-.037h.052a.266.266,0,0,0-.052.037h0a.259.259,0,0,1-.094.037L8.2,5.52s-.094.037-.124.052H8.1l-.071.052h.037v.037a.6.6,0,0,1,.217-.037.271.271,0,0,0-.142.071c.052-.037-.037,0-.037-.037,0,0-.037.019-.037.037h.071a.118.118,0,0,0-.052.052c.094-.052.071,0,.109,0-.037,0-.071.037-.071,0-.052.052.124-.037.071,0h0c.037,0,.019.037,0,.037h0a.094.094,0,0,0,.124.037h0l-.109.052.3-.094a1.314,1.314,0,0,1-.289.124.018.018,0,0,0,.019.019.581.581,0,0,1,.109-.052c-.071.052-.037.037-.094.094,0,0,.124-.071.124-.052a.873.873,0,0,1-.124.052l.124-.037s-.094.052-.124.071c.019,0,0,.019.019.019h.019s.161-.071.18-.037c-.019,0-.142.052-.142.094a2.772,2.772,0,0,1,.341-.109h0s-.289.109-.36.124c-.019.019-.037.019-.019.037-.019.019-.052,0-.052,0v.037a.2.2,0,0,0,.124-.037H8.27s.2-.071.2-.037a1.01,1.01,0,0,1-.142.071h0s.094,0,.052.037c0,0-.071.052-.037.037a1.976,1.976,0,0,1,.341-.18.444.444,0,0,1-.094.094c-.052.037-.142.052-.18.094h.052s-.052.019-.037.037c.071-.037,0,.037.052-.019.019,0,0,.019,0,.037a.586.586,0,0,1,.18-.052.4.4,0,0,0-.041.034v.094a.077.077,0,0,1-.052.037H8.6s-.019,0-.071.037c.037-.019.071,0,.094,0,.052-.037,0-.037-.037-.037a.394.394,0,0,1,.232-.052c.037,0-.052.037-.037.037,0,.052.161-.037.124.019a.563.563,0,0,1-.142.071c-.037,0,0-.037,0-.052h0s-.037.019-.037,0c-.037.037.037.071,0,.124a.07.07,0,0,0,.052-.019h0s.071-.019.071-.037h.071l-.052.037s.037-.037,0-.019c.037,0-.052.071.019.037l.037-.037s.109-.019.094,0c.052-.037,0,0,.052-.052-.071.052-.019-.037-.094.019.071-.052.019-.037.071-.094-.019,0-.037.019-.037,0H8.989V6.43H8.881a.109.109,0,0,0,.037-.019H8.881s.052-.052.094-.052h0s.019-.052,0-.052H8.922s-.109-.037-.037-.109c0,0-.037,0-.037-.019h.037s0-.071-.019-.052c.094-.071,0-.071,0-.094H8.723V5.977h0c.071-.071-.109-.019-.052-.094h0V5.85a.056.056,0,0,0-.052.037H8.581s-.037,0,.037-.052a.343.343,0,0,0-.124,0h0V5.8l.052-.037H8.454a.976.976,0,0,0,.094-.037H8.454s-.071,0-.037-.037c.052-.052-.037-.094,0-.161-.109.071.037-.052-.052,0,.019,0,.037-.037.052-.037-.037,0,.019-.052-.052-.037a.07.07,0,0,0,.052-.019h.037a.852.852,0,0,0-.18.052c.037-.037.019-.037-.037,0,.019,0,.037-.037.052-.037s0-.071-.052-.037h0a.058.058,0,0,0-.019-.037H8.18s-.037,0,0-.071H8.139c-.094.071.037-.037,0-.037H8.12a.892.892,0,0,0,.124-.094h.019a.134.134,0,0,1-.094,0c.037-.019.094-.037.071-.052.019-.019-.124.019-.071-.037-.019,0-.037.037-.071.037,0,0,.071-.094,0-.052h0a.1.1,0,0,0-.109,0c.142-.094-.124-.019.019-.109L7.97,4.917h0a.134.134,0,0,0-.094,0A.052.052,0,0,0,7.914,4.9q0-.052-.094-.037l.037-.037s.037-.094-.037-.094h.019s.071-.161-.109-.071H7.682a.25.25,0,0,0-.094.071s.037-.052.052-.052h0a.121.121,0,0,1,.052-.094c-.037-.052-.037-.142-.071-.2l-.052.052h0l.052-.052c.037-.037-.052,0-.052,0,0-.037.094-.037.071-.052H7.622s-.052.037-.071,0c0-.019.037-.037.037-.037H7.536l-.052.052c.071-.071-.037-.109,0-.124A.1.1,0,0,1,7.412,4.2s-.052.052-.071.037c.124-.094.019-.052.094-.142-.037.052-.052-.037-.109.052,0-.019.037-.037.052-.071-.071,0-.019-.094-.071-.109l-.052.052.052-.071s-.094.071-.052,0c0,0-.019.037-.037.037a.134.134,0,0,0-.094-.109c-.041-.015-.071-.052-.052-.142,0,.037-.019.037-.037.019l-.052.052V3.747s0-.019-.071.019h0c-.056.075-.116.146-.18.217.071-.052-.052.124.052.052h0l.161-.052ZM7.892,5.3H7.873C7.925,5.28,7.91,5.3,7.892,5.3Z" transform="translate(-4.208 -3.628)" fill="#f5b6c3"/><path d="M12.836,11s-.019.019,0,.019h0S12.874,10.983,12.836,11Z" transform="translate(-8.021 -8.165)" fill="#f5b6c3"/><path d="M12.98,10.606s.052-.019.037,0C13.07,10.587,12.946,10.606,12.98,10.606Z" transform="translate(-8.113 -7.916)" fill="#f5b6c3"/><path d="M12.51,11.169l.052-.019H12.51Z" transform="translate(-7.822 -8.261)" fill="#f5b6c3"/><path d="M12.2,10.58s-.019,0,0,.019h.019Z" transform="translate(-7.621 -7.905)" fill="#f5b6c3"/><path d="M12,10.839l.037-.019-.052.037h.019v-.019Z" transform="translate(-7.497 -8.055)" fill="#f5b6c3"/><path d="M11.873,10.77s-.052,0-.037.019C11.836,10.789,11.873,10.789,11.873,10.77Z" transform="translate(-7.399 -8.023)" fill="#f5b6c3"/><path d="M11.74,10.012h.019l.094-.052-.109.052h0Z" transform="translate(-7.341 -7.517)" fill="#f5b6c3"/><path d="M10.961,9.81s-.019,0-.071.037c0,.037.052-.019.037,0,.019,0,0-.019.037-.037h0Z" transform="translate(-6.81 -7.423)" fill="#f5b6c3"/><path d="M7.929,3.44l-.019.037h.019Z" transform="translate(-4.946 -3.44)" fill="#f5b6c3"/><path d="M7.735,3.542l.037-.052-.052.037h0l.019.019Z" transform="translate(-4.827 -3.471)" fill="#f5b6c3"/><path d="M9.577,8.09l-.037.037h0V8.09Z" transform="translate(-5.965 -6.348)" fill="#f5b6c3"/><path d="M9.44,7.679h0l.052-.019Z" transform="translate(-5.903 -6.079)" fill="#f5b6c3"/><path d="M38.371,6.347h0V6.31s-.037.052-.071.052c.037.052.037-.019.052,0h0l.019-.019Z" transform="translate(-23.949 -5.235)" fill="#f5b6c3"/><path d="M37.889,6.089s-.019-.007-.019-.019a.07.07,0,0,0,.019.052V6.085Z" transform="translate(-23.68 -5.085)" fill="#f5b6c3"/><path d="M38.047,6.282s0-.071-.037-.037a.04.04,0,0,1,.037.034h0Z" transform="translate(-23.768 -5.188)" fill="#f5b6c3"/><path d="M37.707,6.207s-.019,0-.037-.037a.266.266,0,0,0,.037.052h0V6.2Z" transform="translate(-23.555 -5.147)" fill="#f5b6c3"/><path d="M37.49,6.207V6.17l.019.052L37.49,6.2Z" transform="translate(-23.442 -5.147)" fill="#f5b6c3"/><path d="M37.327,6.222s-.037-.037-.037-.052v.052Z" transform="translate(-23.317 -5.147)" fill="#f5b6c3"/><path d="M37.617,6.347S37.6,6.31,37.58,6.31Z" transform="translate(-23.499 -5.235)" fill="#f5b6c3"/><path d="M37.957,6.544a.14.14,0,0,1-.037-.094A.13.13,0,0,0,37.957,6.544Z" transform="translate(-23.711 -5.322)" fill="#f5b6c3"/><path d="M37.77,6.46V6.5h.019A.109.109,0,0,0,37.77,6.46Z" transform="translate(-23.618 -5.328)" fill="#f5b6c3"/><path d="M37.5,6.487s0-.037-.019-.037v.037Z" transform="translate(-23.436 -5.322)" fill="#f5b6c3"/><path d="M37.259,6.849h-.037c.037.037,0,.071.052.142V6.954s0,.037.019.037c-.019-.037-.019-.071,0-.052a.624.624,0,0,0-.142-.2v.052a.112.112,0,0,1,.071.071h0l.037-.019Z" transform="translate(-23.23 -5.503)" fill="#f5b6c3"/><path d="M37.215,6.612h.037A.118.118,0,0,0,37.2,6.56v.052h.019Z" transform="translate(-23.261 -5.391)" fill="#f5b6c3"/><path d="M37.384,6.569a.138.138,0,0,0,.052.109V6.625s0-.019-.037-.037h0V6.55h0v.037h0l-.019-.019Z" transform="translate(-23.374 -5.385)" fill="#f5b6c3"/><path d="M37.891,6.727v.037a.09.09,0,0,0-.019-.052h0s-.052-.037-.052-.052a.345.345,0,0,0,.071.094V6.731h0Z" transform="translate(-23.649 -5.453)" fill="#f5b6c3"/><path d="M37.137,6.587,37.1,6.55l.037.052V6.584Z" transform="translate(-23.199 -5.385)" fill="#f5b6c3"/><path d="M37.069,6.637,37.05,6.6v.037Z" transform="translate(-23.167 -5.416)" fill="#f5b6c3"/><path d="M35.125,8.04s-.094-.052-.052-.019l.037.037h.019V8.04Z" transform="translate(-21.924 -6.298)" fill="#f5b6c3"/><path d="M34.637,9.557h0L34.6,9.52v.037Z" transform="translate(-21.635 -7.242)" fill="#f5b6c3"/><path d="M33.99,11.64l.037.037S34.027,11.659,33.99,11.64Z" transform="translate(-21.254 -8.567)" fill="#f5b6c3"/><path d="M36.277,7.27H36.24S36.292,7.307,36.277,7.27Z" transform="translate(-22.661 -5.835)" fill="#f5b6c3"/><path d="M33.31,10.15l.019.019Z" transform="translate(-20.829 -7.636)" fill="#f5b6c3"/><path d="M36.739,6.84l-.019.019h.019Z" transform="translate(-22.961 -5.566)" fill="#f5b6c3"/><path d="M35.629,9.161s-.019-.052,0-.037L35.52,9.03l.109.124h0Z" transform="translate(-22.211 -6.935)" fill="#f5b6c3"/><path d="M30.626,9.488a.266.266,0,0,1,.052.037h-.094s-.019.037.037.071h0a1.494,1.494,0,0,1,.251.109c-.071-.052.142.019.052-.052.019,0,.019.019.052.037q-.037-.037,0-.037h0a1.327,1.327,0,0,0,.124-.071H31.05l.037-.019c-.052-.052-.019.019-.094-.037.094.037.052-.071.142,0,0,0-.052-.019-.037-.037h.071s0-.037.019-.019h-.019s.071-.071.037-.142h-.019a.077.077,0,0,0,.037-.052h0s-.019-.037,0-.037c.019.019.052,0,.071.037-.019-.052-.019-.037-.094-.109h.037s-.037-.019-.037-.037c.019.037.052.019.094.052.094,0-.037-.094.071-.037-.094-.071-.071,0-.094-.019-.037,0-.052-.052-.037-.052s.124.052.142.037h0s-.019-.037.037-.019c-.052-.037,0,0-.052-.052v.037s-.094-.094-.037-.094l.037.037s0-.019.019,0c.071.052,0,.037.037.094.037,0-.037-.052.037,0-.094-.071.037-.019-.037-.094l.037.037V9.02l.037.037s.052,0,.052-.037c-.019.037-.052-.019-.094-.037-.037-.071.124.052.142,0h.019c0-.037-.052-.019-.071-.052.052.019,0-.019-.019-.052l.037.037s-.094-.071-.037-.071l.052.052h.037V8.858c-.037,0-.071-.052-.071-.071.037,0,.037.037.052,0,.019.019.052.052,0,.037l.037.037.037-.037h0l-.037-.071s.037.019.037.037V8.757c.037.019.071.052.071.071V8.772a.04.04,0,0,1,.037.034h0c.037,0-.037-.071,0-.071h0s.071,0,.037-.071l.071.037s-.094-.037-.094-.094c0-.037.052.037.071.037-.019-.037-.071-.094,0-.071v.019H31.9a.1.1,0,0,0,.071.094c-.109-.094.037-.052-.094-.142h.037s-.071-.052-.037-.071a.09.09,0,0,1,.052.019V8.454h.019a.427.427,0,0,1-.037-.071c.019,0,0,0,.019.019V8.368s.037.052.019.052c.124.071-.019-.037.071,0h0a.415.415,0,0,0,.109.052.307.307,0,0,1-.142-.094s.019,0,0-.019c.037.037.037,0,.037,0l.052.037a.317.317,0,0,1-.052-.071.332.332,0,0,1,.094.052c.019,0-.071-.037-.071-.071.037,0,.019-.037,0-.071.037,0,.037.037.052.037l-.037-.037h.019s-.052-.037-.052-.052c-.052-.052.109.037.052-.037.019,0,.037.037.052.037a.227.227,0,0,0-.052-.109h.052s-.094-.052-.109-.109H31.99V7.9l.037.037h0a.148.148,0,0,1,.071.052h-.037a.441.441,0,0,0,.094.071h.094a.685.685,0,0,1-.109-.2.6.6,0,0,1,.109.109c-.052-.037,0,.037-.019.052,0,0,.037.019.037.037V7.989s0,.019.037.037c-.094-.071-.037-.071-.052-.094.019.019.052.052.037.052.071.037-.071-.109,0-.071h0c0-.037.019-.037.037,0h0a.078.078,0,0,0,.015-.109c0-.007-.011-.011-.015-.015l.094.094-.18-.251s.2.161.217.217c0,0,.037,0,.019-.019l-.094-.071c.071.052.037.019.109.052A.7.7,0,0,1,32.4,7.7l.094.094-.052-.109.094.094s.019,0,0-.037H32.5s-.094-.142-.071-.161a.273.273,0,0,0,.124.109,1.2,1.2,0,0,1-.18-.289h.019s.142.217.18.289c.037,0,.037.037.037,0,.037.019.037.037.019.052h.052a.217.217,0,0,0-.071-.124v.094s-.109-.161-.071-.18c.019,0,.071.094.094.109h0s-.019-.094.037-.052c0,0,.071.052.052.019a3.853,3.853,0,0,1-.27-.289.971.971,0,0,1,.109.052.773.773,0,0,1,.124.161L32.661,7.5s.037.052.037.037c-.037-.052.037,0-.037-.052,0-.019.019,0,.037,0a.389.389,0,0,1-.094-.161l.037.037a.142.142,0,0,0,.094-.019.118.118,0,0,1,.052.052V7.352s-.019.019.037.071c-.019-.037,0-.052-.019-.094-.037-.052-.037,0-.037.037a.464.464,0,0,1-.094-.2c0-.037.037.037.037.019.052,0-.052-.142,0-.124a.3.3,0,0,1,.094.124c0,.037-.052,0-.052,0h.037v.037c.037.037.071-.037.124-.019a.07.07,0,0,0-.019-.052h0s0-.052-.037-.052V7.03l.037.052s-.037-.019-.037,0c0-.037.071.052.037-.019l-.037-.037s-.019-.109,0-.094c-.037-.052,0,0-.052-.052.052.071-.052.019.019.094-.052-.052-.037,0-.109-.071,0,0,.037.037,0,.037h0l.019.037c.019.037,0,.052,0,.094,0,0,0-.019-.037-.037v.03s-.052-.052-.052-.094h-.019s-.052,0-.052.019v.052h-.019s0,.094-.094.052c0,0,0,.037-.019.037l-.037-.037s-.052,0-.037.037c-.094-.071-.071.019-.109.037l.037.037a.349.349,0,0,0-.019.052l.037.037a.085.085,0,0,0-.071.037h0c-.109-.052,0,.109-.071.071h0v.037L32.136,7.4h0s0,.019.037.052v.037s0,.037-.052-.019c.019.037,0,.052.052.124h0l-.052-.037.052.071a.88.88,0,0,1-.094-.071c.037.071,0,.037.037.109l-.037-.037s.019.052,0,.037c-.071-.037-.094.071-.18.052.109.071-.052,0,0,.052-.019,0-.037-.019-.052-.052,0,.037-.071,0,0,.071-.019,0-.037-.037-.037-.037h0a.109.109,0,0,0-.019-.037.412.412,0,0,0,.109.142q-.037,0,0,.037a.054.054,0,0,1-.052-.052s-.071.019-.019.052h0s-.019,0-.037.037h0v.052h0s0,.019-.071,0l.037.037s-.071,0-.052.037h.037c-.052-.019-.1-.037-.161-.052V8c-.071,0,.052.037.052.071-.037-.019-.071-.052-.094-.052s.052.109,0,.094a.054.054,0,0,1,.052.052c0,.019-.109-.019-.052.037h-.019a.085.085,0,0,0,.037.071c-.142-.094,0,.109-.109.019v.037h-.037a.155.155,0,0,0,.019.071.052.052,0,0,1-.037-.019c-.052,0-.052.019,0,.094l-.052-.037s-.109,0-.071.052h0s-.18,0-.037.109v.052a.4.4,0,0,0,.124.052s-.071,0-.071-.019h0a.14.14,0,0,1-.109-.019c-.037.052-.124.094-.161.142l.071.037h0s-.052,0-.037-.019c-.037,0,0,.037.037.052a.077.077,0,0,1-.071-.052h0s.052.052.037.071c-.019,0-.052-.019-.052,0h-.019l.052.037s-.019.019.052.052c-.109-.037-.094.071-.124.052.037.037,0,.052,0,.071,0,0,.071.037.052.052-.124-.071-.071,0-.161-.037.071.019,0,.052.071.094a.289.289,0,0,1-.094-.037c.019.052-.071.052-.094.109a.085.085,0,0,1,.071.037L30.716,9.3s.094.052.019.037c0,0,.037,0,.037.019-.124.037-.037.2-.232.18q.037,0,.037.019h0l.052-.041Zm1.4-1.184s.019.037,0,.019C31.99,8.285,32.028,8.3,32.028,8.3Z" transform="translate(-19.097 -5.591)" fill="#f5b6c3"/><path d="M37.2,7h.037S37.2,6.965,37.2,7Z" transform="translate(-23.261 -5.657)" fill="#f5b6c3"/><path d="M36.692,6.9s-.037-.052,0-.037C36.673,6.806,36.692,6.929,36.692,6.9Z" transform="translate(-22.933 -5.569)" fill="#f5b6c3"/><path d="M37.29,7.23l.019.037.019.019-.037-.052h0Z" transform="translate(-23.317 -5.81)" fill="#f5b6c3"/><rect height="0.019" transform="translate(13.969 1.469)" fill="#f5b6c3"/><path d="M36.72,7.647s.019.019.019,0V7.61h0Z" transform="translate(-22.961 -6.047)" fill="#f5b6c3"/><path d="M37,7.787s-.019,0-.037-.037L37,7.8h0V7.784Z" transform="translate(-23.111 -6.135)" fill="#f5b6c3"/><path d="M37.019,7.977s0-.037-.019-.037C37,7.94,37,7.992,37.019,7.977Z" transform="translate(-23.136 -6.254)" fill="#f5b6c3"/><path d="M36.152,8.074h0L36.1,7.98Z" transform="translate(-22.573 -6.279)" fill="#f5b6c3"/><path d="M36.177,8.994a.04.04,0,0,1-.037-.034h0c0,.037,0,.019.052.071.037,0-.037-.052,0-.037h-.019Z" transform="translate(-22.598 -6.892)" fill="#f5b6c3"/><path d="M30.517,13.89l-.037.019h.037Z" transform="translate(-19.059 -9.974)" fill="#f5b6c3"/><path d="M30.642,14.017l-.052-.037Z" transform="translate(-19.128 -10.031)" fill="#f5b6c3"/><path d="M34.382,11.047h0l-.052-.037Z" transform="translate(-21.467 -8.174)" fill="#f5b6c3"/><path d="M42.57,32.237l.037-.037S42.57,32.252,42.57,32.237Z" transform="translate(-26.619 -21.424)" fill="#f5b6c3"/><path d="M42.249,32.409l.019-.019-.037.037.019-.019Z" transform="translate(-26.406 -21.542)" fill="#f5b6c3"/><path d="M42.205,32.309s-.052.037-.037,0c-.037.071.019,0,0,.019h0l.037-.037h0Z" transform="translate(-26.359 -21.48)" fill="#f5b6c3"/><path d="M42.267,31.86s-.026.034-.037.052h.019V31.86Z" transform="translate(-26.406 -21.211)" fill="#f5b6c3"/><path d="M42.18,32.133s.037-.052.019-.037A.052.052,0,0,1,42.18,32.133Z" transform="translate(-26.375 -21.357)" fill="#f5b6c3"/><path d="M42.127,31.9V31.86a.266.266,0,0,1-.037.052h0l.037-.019Z" transform="translate(-26.319 -21.211)" fill="#f5b6c3"/><path d="M42.04,32.2l.052-.052Z" transform="translate(-26.288 -21.392)" fill="#f5b6c3"/><path d="M42.14,31.757l.037-.037Z" transform="translate(-26.35 -21.123)" fill="#f5b6c3"/><path d="M42.09,31.682s.019-.052.037-.052l-.037.037v.019Z" transform="translate(-26.319 -21.067)" fill="#f5b6c3"/><path d="M41.94,32.221a.148.148,0,0,1,.052-.071C41.992,32.169,41.955,32.187,41.94,32.221Z" transform="translate(-26.225 -21.392)" fill="#f5b6c3"/><path d="M41.99,32.087a.109.109,0,0,1,.019-.037H41.99Z" transform="translate(-26.256 -21.33)" fill="#f5b6c3"/><path d="M41.454,32v-.037c-.019.052-.052.052-.094.124h0c.019-.037.052-.071.037-.019a1.248,1.248,0,0,0,.124-.217.056.056,0,0,1-.037.052.13.13,0,0,1-.037.094h0Z" transform="translate(-25.862 -21.205)" fill="#f5b6c3"/><path d="M41.819,31.847h0l.019-.037-.037.037Z" transform="translate(-26.137 -21.18)" fill="#f5b6c3"/><path d="M41.762,31.95a.09.09,0,0,1,.019-.052h0V31.86h-.019a.754.754,0,0,0-.052.094s.019-.037.037-.037h0l.019.034Z" transform="translate(-26.081 -21.211)" fill="#f5b6c3"/><path d="M41.821,32.194a.5.5,0,0,0-.052.094H41.75s.026-.037.037-.056h0a.187.187,0,0,1,.037-.071h0V32.2Z" transform="translate(-26.106 -21.399)" fill="#f5b6c3"/><path d="M41.75,32.265V32.3h0a.09.09,0,0,1,.019-.052H41.75v.019Z" transform="translate(-26.106 -21.455)" fill="#f5b6c3"/><path d="M41.825,31.772l.037-.052-.052.052h.019Z" transform="translate(-26.144 -21.123)" fill="#f5b6c3"/><path d="M41.8,31.779h0l.019-.019Z" transform="translate(-26.137 -21.148)" fill="#f5b6c3"/><path d="M40.79,31.235s.037-.094,0-.052v.037h0v.019Z" transform="translate(-25.506 -20.781)" fill="#f5b6c3"/><path d="M41.356,31.607V31.57S41.337,31.622,41.356,31.607Z" transform="translate(-25.855 -21.03)" fill="#f5b6c3"/><path d="M39.924,32.146l.037-.037L40.014,32l-.094.142h0Z" transform="translate(-24.962 -21.299)" fill="#f5b6c3"/><path d="M38.662,30.793s.052-.052.052-.037l-.037.052v-.019s-.037.094.019,0v-.037a.865.865,0,0,1,.071-.052c.037-.052,0,0,.019-.052-.037.094-.019,0-.052.071.037-.071,0-.037.037-.109,0,.019,0,.037-.019.019h0v.052a.5.5,0,0,0-.071.052A.052.052,0,0,1,38.7,30.7v.037a.212.212,0,0,1,.019-.094h0v-.034H38.7s-.071.052-.037-.019h-.019V30.55h0c.052-.094-.019-.037-.019-.052v.052h-.071v.037l-.037-.037h0c.037-.109-.071.052-.052-.019h0V30.5h0s0,.019-.037.052h-.019s-.019.037,0-.037c-.019.037-.037,0-.071.094h0a.278.278,0,0,1,.019-.094l-.071.071v-.041h0c.019-.071-.052-.037-.037-.109-.052.109,0-.052-.037.037,0-.019,0-.037.037-.052-.019.019,0-.052-.037,0,0-.019.019-.037.037-.052h0a.109.109,0,0,1,.019-.037c-.034.045-.064.094-.094.142q0-.037-.019,0s0-.052.037-.052c0,0,0-.052-.037,0h-.019s0,.019-.037.037h0s-.019,0,0-.052v.052c-.071.094,0-.071-.037-.037v.037s.037-.142.037-.161v-.019c0-.071-.037.052-.052.071,0-.037.037-.071.037-.094s-.071.094-.052.037a.071.071,0,0,1-.037.071s0-.109-.019-.037h0s-.037,0-.052.052c.052-.161-.071.052,0-.094h0a.056.056,0,0,0-.052.037v-.03q0-.037-.052.037v-.052s0-.094-.019-.037h0s0-.161-.071,0l-.037.037a.374.374,0,0,0-.037.109v-.071h0V30.22c-.037,0-.052-.071-.094-.094V30.2H37.52s0-.071.019-.052c0-.037-.019.037-.037.052a.224.224,0,0,1,.037-.094h0s-.019.071-.037.071V30.13h0v.037s-.019,0-.037.052c.019-.109-.052-.052-.037-.094-.019.037-.037.037-.037.037s0,.071-.019.071c.037-.124,0-.052,0-.161,0,.071-.037,0-.052.109v-.094c-.037.052-.037-.037-.071-.037a.155.155,0,0,1-.019.071v-.094s-.019.109,0,.037V30.1c-.037-.094-.124.052-.142-.124v.037s-.037,0-.037.071h0s-.019.161-.037.251c.019-.094,0,.124.037,0v.06c0-.037,0-.052.019-.037h0a.148.148,0,0,0,.052.071v-.019c.019-.071,0,0,0-.094,0,.094.037,0,.019.124,0,0,0-.052.019-.052h0v.071h.019a.121.121,0,0,0,.094-.052h.037l.019-.019a.094.094,0,0,1-.019.071c.037-.037.019-.037.052-.109v.037s0-.052.019-.052a.1.1,0,0,1-.037.094c0,.094.052-.071.037.052.037-.094,0-.052,0-.071,0-.037.037-.071.037-.052,0,0-.037.124,0,.124h0c.019-.052,0,0,.037-.071h-.019s.052-.094.052-.037a.09.09,0,0,1-.019.052h0c-.019.071-.019,0-.052.071,0,.037.037-.052,0,.037.037-.109,0,0,.052-.052v.052h0v.037s-.019.052,0,.019a.278.278,0,0,1,.019-.094c.037-.052-.037.124,0,.109h0a.085.085,0,0,1,.037-.071c0,.052,0-.019.037-.037v.052s.019-.094.019-.052l-.037.052h0v.037h0a.224.224,0,0,1,.037-.094c0,.037-.019.037,0,.037,0,.037-.037.071-.019.019v.037h0l.037-.052s0,.037-.019.037v-.034a.212.212,0,0,1-.019.094L37.6,30.6v.052s.052-.071.052-.037h0s0,.037.037,0v.071s0-.094.037-.109c.019,0-.019.052-.019.071.019-.037.052-.094.052-.037h0v.037a.254.254,0,0,0-.052.094c.052-.124.037,0,.094-.124v.037h0s.052-.094.052-.052v.019h.037s.037-.019.037-.037v.052c-.052.124.019-.037,0,.052h0a.266.266,0,0,1-.019.109.5.5,0,0,1,.052-.142h0c-.019.052,0,.037,0,.037v-.019a.148.148,0,0,1-.037.094.289.289,0,0,1,.037-.094c0,.037,0,0,.052-.019,0,.019-.019.037-.019.052l.037-.052h0s.037-.037.037-.052c.037-.071-.037.109,0,.037a.266.266,0,0,1-.037.052A.3.3,0,0,0,38.1,30.6v.037a1.01,1.01,0,0,1,.071-.142v-.052h.052l-.037.037h0l-.037.071v-.037l-.052.109h0l-.037.052h0s.109-.124.124-.142a1.01,1.01,0,0,0-.071.142c.019-.052-.037.019-.037,0,0,0,0,.037-.019.037l.052-.052a.09.09,0,0,1-.019.052c.037-.094.037-.052.071-.094a.06.06,0,0,1-.037.052c-.019.071.071-.109.052-.037h0s.019,0,0,.037h0s.037.019.094-.052l-.052.109.161-.251a2.312,2.312,0,0,1-.142.27h0s.037-.109.052-.109c-.037.071,0,.037-.037.109,0,0,.052-.124.071-.109l-.052.109.071-.094a.4.4,0,0,0-.052.124c0-.019,0,0,.019,0h0s.094-.161.109-.142-.071.124-.071.142c.037-.052.142-.251.18-.289h0s-.142.232-.18.289v.037a.04.04,0,0,1-.034.037h0v.037a1.3,1.3,0,0,0,.094-.109l-.052.052s.109-.161.109-.142a.506.506,0,0,1-.071.124c0-.019.037-.037.037-.019v.037h0s-.037.094,0,.052c.037-.071.142-.289.18-.341a.622.622,0,0,1-.037.109.884.884,0,0,1-.109.18s.019-.037.037-.037c0,0-.037.052-.019.052l.037-.052h0a.8.8,0,0,1,.109-.142V30.7s-.019.037,0,.052a.056.056,0,0,1-.037.052v.037c.019-.037.037-.037.052-.052.037-.052,0,0-.019,0a.766.766,0,0,1,.124-.18c.019,0-.019.052,0,.037,0,.019.094-.124.094-.052a.665.665,0,0,1-.071.124c-.019,0,0-.037,0-.037h0s-.019.052-.019.037c-.019.052.037.037.019.071a.266.266,0,0,1,.037-.052h0a.317.317,0,0,0,.052-.071h0l-.206.116Z" transform="translate(-23.142 -20.035)" fill="#f5b6c3"/><path d="M41.6,31.692s.037-.052.019-.037C41.653,31.617,41.563,31.707,41.6,31.692Z" transform="translate(-26.006 -21.077)" fill="#f5b6c3"/><path d="M41.42,32.334v.019l.019-.052-.019.037Z" transform="translate(-25.9 -21.486)" fill="#f5b6c3"/><path d="M41.13,32.119v.019l.019-.037h0Z" transform="translate(-25.719 -21.361)" fill="#f5b6c3"/><path d="M40.881,32.567a.163.163,0,0,0,.019-.037S40.863,32.567,40.881,32.567Z" transform="translate(-25.56 -21.63)" fill="#f5b6c3"/><path d="M40.7,31.994h0l.052-.094Z" transform="translate(-25.45 -21.236)" fill="#f5b6c3"/><path d="M40.107,32.477V32.44l-.037.071c0,.037.037-.052.019-.019h0l.019-.019Z" transform="translate(-25.056 -21.574)" fill="#f5b6c3"/><path d="M36.979,30.077l-.019-.037v.037Z" transform="translate(-23.111 -20.073)" fill="#f5b6c3"/><path d="M38.8,32.062l.019-.052-.037.052Z" transform="translate(-24.249 -21.305)" fill="#f5b6c3"/><path d="M21.086,46.68V46.7h.037S21.071,46.7,21.086,46.68Z" transform="translate(-13.183 -30.478)" fill="#f5b6c3"/><path d="M19.982,44.418h.161c.037,0,.094,0,.052.019h.161c-.094,0,0-.019-.094,0h.075s.037-.019,0-.019h0s-.071-.037,0-.052h.037s.037,0,0-.019c.109,0,.019-.019.037-.037h-.052l-.037-.019h-.052a.04.04,0,0,0,.037-.034h0c.109,0-.071-.019,0-.037h-.124c.094,0,0-.037.094-.052h.037c-.037,0,.052,0-.037-.019h-.037s.037-.019-.037-.019h-.045s-.037,0,.037-.019h-.052c-.109,0,.071,0,.019-.019h-.037a.575.575,0,0,0,.161-.019h.037s-.124-.019-.052-.037H20.2s.109-.019,0-.019h-.071c.18-.019-.094-.019.071-.037h0a.132.132,0,0,0-.071-.037h.037c.037,0,.019-.019-.052-.019h.052s.094-.037.019-.037H20.2c-.071,0,.142-.052-.052-.037h-.157s.052-.019.071,0h0c.109,0,.037-.019.109-.019,0-.019.052-.052.037-.094h-.124c.109-.019.037-.052.071-.052H20.05c.142,0,.052-.019.161-.037-.071,0-.019-.019-.109,0H20.2c-.052,0,.037-.037,0-.052h.019s-.109,0-.037-.037h-.052s-.094-.052.071-.109h-.109l.071-.037h-.071l-.27.052c.094,0-.124.037,0,.037H19.8l-.052.052h0l.094-.019c-.109.019,0,.037-.109.052h.019s0,.037.052.037h.019s-.019,0,0,.019h0c-.094.019.094,0-.037.037.109,0,.052-.019.094-.019h.071s-.142.019-.142.037h-.052s-.052.037,0,.037a.278.278,0,0,0,.094-.019c.071,0-.124.019-.109.037h.052s.037,0,0,.019h0a.5.5,0,0,1-.071.019c-.019,0,.094,0,.052.019h.019s-.052.019,0,.019H19.66c.142,0,0,.019.161,0h.094s0,.019-.037.019H19.84c-.142,0,.037,0-.052.019h-.019a.368.368,0,0,0-.109.019.58.58,0,0,1,.161,0h-.015l.052.019h.071c.071,0-.109.019-.019.019H19.8s.2.037.232.037h-.161c.071,0-.037,0,0-.019h.019a.155.155,0,0,0-.071.019h.071s0,.037.094.037h.18s-.27.019-.3.019h-.124a.7.7,0,0,0,.124.019H20.2a.449.449,0,0,0-.124.019h-.037s-.037.019-.037.037h.142s.161,0,.094.037H20.08c-.052,0,0,.037-.052.037h0L20,44.422Z" transform="translate(-12.293 -28.433)" fill="#f5b6c3"/><path d="M20.66,46.209l.052-.019H20.66Z" transform="translate(-12.919 -30.172)" fill="#f5b6c3"/><path d="M0,32.845l.019.019L0,32.83v.019Z" transform="translate(0 -21.818)" fill="#f5b6c3"/><path d="M.1,32.767h0V32.8s.019-.052.037-.037C.1,32.7.137,32.767.1,32.767Z" transform="translate(-0.063 -21.758)" fill="#f5b6c3"/><path d="M.53,33.085l.019.037A.09.09,0,0,0,.53,33.07h0v.019Z" transform="translate(-0.331 -21.968)" fill="#f5b6c3"/><rect height="0.052" transform="translate(0.116 11.027)" fill="#f5b6c3"/><path d="M.639,33.185v.037L.62,33.17l.019.019h0Z" transform="translate(-0.388 -22.03)" fill="#f5b6c3"/><path d="M.72,33.154a.5.5,0,0,1,.019.071v-.056H.72V33.15Z" transform="translate(-0.45 -22.018)" fill="#f5b6c3"/><path d="M.53,33.02s0,.037.019.037V33.02Z" transform="translate(-0.331 -21.936)" fill="#f5b6c3"/><path d="M.33,32.68a.378.378,0,0,1,.019.094A.21.21,0,0,0,.33,32.68Z" transform="translate(-0.206 -21.724)" fill="#f5b6c3"/><path d="M.639,32.979V32.96H.62v.019Z" transform="translate(-0.388 -21.899)" fill="#f5b6c3"/><path d="M.639,32.365l.019.037c-.019-.052,0-.071-.037-.142V32.3a.7.7,0,0,0,.094.217v-.056a.13.13,0,0,1-.037-.071h0l-.037-.019Z" transform="translate(-0.388 -21.461)" fill="#f5b6c3"/><path d="M.77,32.92h0s0,.019.037.052V32.92Z" transform="translate(-0.481 -21.874)" fill="#f5b6c3"/><path d="M.657,32.739A.167.167,0,0,0,.62,32.63v.052a.109.109,0,0,0,.019.037h0v.037h0Z" transform="translate(-0.388 -21.692)" fill="#f5b6c3"/><path d="M.33,32.527a.427.427,0,0,1,.037.071A.2.2,0,0,0,.33,32.49h0v.052h0v-.019Z" transform="translate(-0.206 -21.605)" fill="#f5b6c3"/><path d="M.81,32.945l.019.037L.81,32.93v.019Z" transform="translate(-0.506 -21.88)" fill="#f5b6c3"/><path d="M.86,32.92l.019.037v-.019Z" transform="translate(-0.538 -21.874)" fill="#f5b6c3"/><path d="M2.06,32.54s.052.094.037.037V32.54Z" transform="translate(-1.288 -21.636)" fill="#f5b6c3"/><path d="M1.331,32.706s.007.019.019.019C1.35,32.706,1.313,32.672,1.331,32.706Z" transform="translate(-0.829 -21.731)" fill="#f5b6c3"/><path d="M1.87,31.19v.037l.052.124Z" transform="translate(-1.169 -20.792)" fill="#f5b6c3"/><path d="M2.749,30.26s-.071-.161-.109-.251c.019.094-.071-.109-.037,0V29.99h0a.976.976,0,0,1-.094-.037h0c.019.071.019,0,.037.071-.037-.094-.052,0-.094-.094,0,0,.019.052,0,.052h0s-.037-.037-.037-.052H2.4a.1.1,0,0,0-.071.094h0s-.019,0-.037.037h0V30.1a.243.243,0,0,1-.037-.071.342.342,0,0,0,.019.124v.034c0-.037-.037-.052-.037-.094-.052-.071,0,.094-.052-.019.037.109.037.052.037.071,0,.037.019.071,0,.071,0,0-.052-.124-.071-.109h0s0,.037-.019,0c.019.052,0,0,0,.071h0s.019.094,0,.052v-.052h0c-.037-.071,0-.019,0-.094,0-.037,0,.052-.019-.019.037.109-.019,0,0,.071h0l-.037-.052s-.037-.037-.037,0c.019,0,.037.052.052.094,0,.071-.052-.109-.071-.071l.037.037-.037-.037a.5.5,0,0,1,.019.071c-.037-.052,0,.019,0,.052v-.056H2.014V30.14s-.019.037-.037.019c0,.037.037.094.019.094,0-.019,0-.037-.019-.037,0-.037-.019-.071,0-.019v-.037H1.939v.052a.7.7,0,0,1-.037-.094v.056s-.037-.037-.037-.052c-.019-.019,0,.094-.019.052h0s-.052-.019-.037.037l-.037-.071s.052.071.037.109c0,.019-.037-.052-.037-.071,0,.037.019.109,0,.052h0V30.2a.332.332,0,0,0-.052-.094c.052.124-.037.037.019.161H1.718V30.23s.037.094,0,.094a.071.071,0,0,1-.019-.037v.037H1.681v.052s-.019-.071,0-.071c-.071-.124,0,.037-.052-.037h0c-.037-.094-.037-.052-.071-.109,0,.019.071.109.071.142h0c-.019-.052-.019-.037-.019-.037v.015a.5.5,0,0,1-.052-.094.7.7,0,0,1,.037.094c-.019-.019-.019,0,0,.052a.067.067,0,0,0-.015-.052v.052h0a.349.349,0,0,1,.019.052c.019.071-.052-.094-.037,0a.09.09,0,0,0-.019-.052v.109L1.5,30.4s.037.109.052.142l.037.052v.037a.09.09,0,0,0-.019-.052h0l-.037-.071v.037a.266.266,0,0,0-.019-.109h0l-.037-.052h0V30.6c0-.052-.037-.094-.052-.142.037.052,0-.037.019-.019L1.43,30.4v.071a.066.066,0,0,0-.037-.056c.037.094,0,.071,0,.109,0-.037-.019-.071,0-.052-.037-.071.037.124,0,.052h0c0,.037,0,0-.019,0h0s-.052,0-.019.094l-.037-.109.071.285a2.134,2.134,0,0,1-.109-.27h0a.581.581,0,0,1,.052.109l-.052-.109s.052.124.037.124a.614.614,0,0,0-.052-.124l.037.109s-.037-.094-.052-.124h0s.037.18.019.18c0-.019-.052-.142-.071-.142,0,.052.094.27.094.322h0s-.094-.27-.109-.341c0-.019,0-.037-.019-.037v-.056H1.126a.2.2,0,0,0,.037.109v-.071s.052.18.037.18a.65.65,0,0,0-.052-.142h0s0,.094-.019.037c0,0-.037-.071-.037-.037.037.071.124.3.142.36,0,0-.052-.071-.071-.094-.037-.052-.037-.142-.071-.18v.052s-.019-.052-.019-.037c.019.071-.019,0,0,.052,0,.019,0,0-.019,0,.019.037.052.142.037.161a.09.09,0,0,0-.019-.052c-.019,0-.037-.037-.052-.019A.266.266,0,0,0,.984,30.7v.037l-.019-.071v.094c.019.052.019,0,.019-.019a.489.489,0,0,1,.052.217c0,.019-.019-.052-.019-.037-.037,0,.037.142,0,.094a.65.65,0,0,1-.052-.142c0-.019.037.037.037.019H.984v-.037c-.019-.037-.052,0-.094-.037v.052H.916a.131.131,0,0,0,.019.071h0c0,.037-.052-.071-.019,0v.037s.037.094.019.094c.019.052,0,0,.037.052-.037-.094.037,0,0-.094a.461.461,0,0,0,.052.094v-.034h0v-.127a.7.7,0,0,1,.037.094h0s.037.037.037,0h0V31.02h0s0-.071.052,0v.019s.052.037.037,0c.052.094.037,0,.071.019v-.124s.026.011.034,0h0c.052.094,0-.094.052-.019h.037l-.019-.037v-.037s0-.037.037.052a.449.449,0,0,0-.019-.124h0v-.019a.415.415,0,0,1,.052.109v-.071s0-.052.019-.019c.037.071.052,0,.109.052-.052-.109.037.037,0-.037,0,.019.019.037.037.071,0-.037.037.037.019-.037a.07.07,0,0,0,.019.052h0V30.9a.81.81,0,0,0-.052-.161c.019.037.019.019,0-.019,0,.019.037.052.019.052,0,0,.052.019.019-.037h.019v-.034h0s0-.019.052.037v-.037c-.052-.094.019.052.019,0h0s.071.109.094.109v.019c.037.052-.019-.052,0-.071a.224.224,0,0,0,.037.094c0,.019-.019-.109.019-.052a.132.132,0,0,0-.037-.071s.071.094.037,0h0v-.075c.071.161,0-.094.071.052h.019v-.037c.037.019.037,0,.019-.071v.052s.094.052.071,0h0s.109.124.037-.037v-.052l-.052-.109s.037.037.037.052h0s.037,0,.052.071c.037-.019.094,0,.124,0l-.037-.071h0s.019.052,0,.052c.019.037,0-.037,0-.052.037.019.019.094.037.094h0v-.075l.019.037H2.28l-.037-.052v-.056c.052.094.071,0,.094.037V30.44s-.037-.071-.019-.071c.052.124.037.052.094.142-.037-.052.019-.019-.019-.109a.187.187,0,0,0,.037.071c0-.052.052,0,.071,0a.251.251,0,0,1-.019-.071l.052.071s-.037-.094,0-.037V30.4s.052-.109.161.037c-.019-.037,0-.037,0-.037h0s.037,0,.019-.071h0l.052-.09Z" transform="translate(-0.557 -20.004)" fill="#f5b6c3"/><path d="M.779,32.566s0-.019-.019,0Z" transform="translate(-0.475 -21.647)" fill="#f5b6c3"/><path d="M.72,32.259V32.24l.019.052L.72,32.255Z" transform="translate(-0.45 -21.449)" fill="#f5b6c3"/><path d="M1.44,31.96h0l.037.094Z" transform="translate(-0.9 -21.274)" fill="#f5b6c3"/><path d="M1.531,31.228a.109.109,0,0,0,.019.037c0-.019,0,0-.019-.071-.019-.019.019.052,0,.037Z" transform="translate(-0.954 -20.793)" fill="#f5b6c3"/><path d="M5.94,31.1l.019.019Z" transform="translate(-3.714 -20.736)" fill="#f5b6c3"/><path d="M2.97,30.57h0l.037.052Z" transform="translate(-1.857 -20.404)" fill="#f5b6c3"/></g></g></svg>