<svg xmlns="http://www.w3.org/2000/svg" width="44.364" height="55.989" viewBox="0 0 44.364 55.989">
  <path id="icon_MapTokyo" d="M59.4,21.5a22.218,22.218,0,0,0-20.36,31.073c.037.11.11.221.147.331a8.3,8.3,0,0,0,.4.81,3.422,3.422,0,0,1,.184.368c.147.295.331.626.515.92.037.037.037.074.074.147a21.858,21.858,0,0,0,3.313,4.234L56.823,76.246a3.218,3.218,0,0,0,5.081,0L75.048,59.421A23.475,23.475,0,0,0,78.4,55.15a22.219,22.219,0,0,0-19-33.65ZM54.688,35.269a1.58,1.58,0,0,1,1.583-1.62H62.53a1.549,1.549,0,0,1,1.583,1.583v2.319H62.567V35.233H56.234v2.319H54.688v-.221a19.248,19.248,0,0,1,0-2.062Zm-3.2,18.887a.332.332,0,0,0-.184.037H49.9a1.571,1.571,0,0,1-1.583-1.583V39.982A1.571,1.571,0,0,1,49.9,38.4h1.546c.037,5.265.037,10.493.037,15.758Zm14.211,0H53.1V38.4H65.7Zm4.749-1.546a1.555,1.555,0,0,1-1.4,1.546c-.552.037-1.141,0-1.73,0V38.4h.773c.368,0,.773,0,1.141.037a1.508,1.508,0,0,1,1.252,1.509C70.445,44.179,70.445,48.413,70.445,52.61Z" transform="translate(-37.2 -21.5)" fill="#f7c4cd"/>
</svg>
