<svg xmlns="http://www.w3.org/2000/svg" width="36" height="25.691" viewBox="0 0 36 25.691">
  <g id="hospital-bed_1_" data-name="hospital-bed (1)" transform="translate(-33.079 -209.237)">
    <path id="パス_1055" data-name="パス 1055" d="M109.106,407.2H79.868a3.2,3.2,0,0,1-3.2-3.2v-2.04a.912.912,0,0,1,1.825,0V404a1.375,1.375,0,0,0,1.374,1.374h29.238a.912.912,0,0,1,0,1.825Z" transform="translate(-40.939 -180.148)" fill="#f4bbc3"/>
    <path id="パス_1056" data-name="パス 1056" d="M68.167,232.759a.912.912,0,0,1-.912-.912v-2.286a1.375,1.375,0,0,0-1.374-1.372H44.128a.912.912,0,0,1-.645-.267l-6.234-6.236a1.373,1.373,0,1,0-1.943,1.942l7.307,7.307H64.231a.912.912,0,0,1,0,1.825h-22a.912.912,0,0,1-.645-.267l-7.574-7.574a3.2,3.2,0,0,1,4.522-4.522l5.97,5.969H65.881a3.2,3.2,0,0,1,3.2,3.2v2.286A.912.912,0,0,1,68.167,232.759Z" transform="translate(0 -9.601)" fill="#f4bbc3"/>
    <path id="パス_1057" data-name="パス 1057" d="M132.772,529.984a3.292,3.292,0,1,1,3.292-3.292A3.292,3.292,0,0,1,132.772,529.984Zm0-4.759a1.468,1.468,0,1,0,1.468,1.467A1.468,1.468,0,0,0,132.772,525.225Z" transform="translate(-90.538 -295.056)" fill="#f4bbc3"/>
    <path id="パス_1058" data-name="パス 1058" d="M462.322,529.984a3.292,3.292,0,1,1,3.292-3.292A3.292,3.292,0,0,1,462.322,529.984Zm0-4.759a1.468,1.468,0,1,0,1.468,1.467,1.468,1.468,0,0,0-1.468-1.467Z" transform="translate(-400.045 -295.056)" fill="#f4bbc3"/>
    <path id="パス_1061" data-name="パス 1061" d="M104.382,218.588a.912.912,0,0,1-.645-1.557c1.473-1.473,1.367-2.892-.343-4.6s-3.128-1.815-4.6-.343a.912.912,0,1,1-1.29-1.29,4.727,4.727,0,0,1,3.259-1.559,6.651,6.651,0,0,1,5.826,5.823,4.73,4.73,0,0,1-1.559,3.259A.912.912,0,0,1,104.382,218.588Z" transform="translate(-60.254 0)" fill="#f4bbc3"/>
    <path id="パス_1062" data-name="パス 1062" d="M169.522,477.13a.912.912,0,0,1-.912-.912V473.1a.912.912,0,1,1,1.825,0v3.115A.912.912,0,0,1,169.522,477.13Z" transform="translate(-127.288 -246.961)" fill="#f4bbc3"/>
    <path id="パス_1063" data-name="パス 1063" d="M499.072,477.13a.912.912,0,0,1-.912-.912V473.1a.912.912,0,1,1,1.825,0v3.115A.912.912,0,0,1,499.072,477.13Z" transform="translate(-436.795 -246.961)" fill="#f4bbc3"/>
  </g>
</svg>
