<svg xmlns="http://www.w3.org/2000/svg" width="22.565" height="27.525" viewBox="0 0 22.565 27.525">
  <g id="carer" transform="translate(-46.132)">
    <path id="Path_1039" data-name="Path 1039" d="M64.693,5.349a3.228,3.228,0,1,0-5-.164l-3.6,1.535-.306-.634a3.225,3.225,0,1,0-4.6-1.65,7.261,7.261,0,0,0-5.054,6.916V22.633a.806.806,0,0,0,.806.806h2.224l.464,3.389a.806.806,0,0,0,.8.7h3.233a.806.806,0,0,0,.8-.7l.464-3.389H55a.806.806,0,0,0,.806-.806V13.7l2.516.709a1.96,1.96,0,0,0,.712.41v2.956a.806.806,0,0,0,.8.806v8.139a.806.806,0,0,0,.806.806h6.451a.806.806,0,0,0,.806-.806V18.581a.806.806,0,0,0,.8-.806V10.381A5.168,5.168,0,0,0,64.693,5.349Zm2.392,11.619H60.65V14.976c3.347.2,3.122.188,3.249.188a2.939,2.939,0,0,0,2.837-2.141l.348-1.214ZM62.26,1.613a1.618,1.618,0,1,1-1.613,1.618A1.617,1.617,0,0,1,62.26,1.613ZM60.766,6.481l3.179.372A3.547,3.547,0,0,1,66.412,8.3l-1.227,4.274a1.338,1.338,0,0,1-1.372.971l-4.205-.25a.347.347,0,0,1,0-.693l3.521-.275a.806.806,0,0,0,.708-.566l.741-2.4a.806.806,0,1,0-1.541-.476l-.58,1.877-1.644.128-3.564-1.76-.462-.959ZM54.2,1.667a1.613,1.613,0,1,1-1.613,1.613A1.615,1.615,0,0,1,54.2,1.667Zm-6.451,9.685a5.618,5.618,0,0,1,4.477-5.524,3.208,3.208,0,0,0,1.974.678l1.725,3.578a.806.806,0,0,0,.369.373l2.061,1.018a1.97,1.97,0,0,0-.637,1.086l-2.243-.632-2.8-3.507a.806.806,0,1,0-1.261,1.005L54.2,12.916v8.911H47.745V11.351Zm5.21,14.561H51.129L50.79,23.44h2.5Zm11.717,0V21.02a.806.806,0,1,0-1.613,0v4.892H61.447V18.581h4.838v7.332Z" fill="#f4bbc3"/>
  </g>
</svg>
