<svg xmlns="http://www.w3.org/2000/svg" width="34.647" height="37.236" viewBox="0 0 34.647 37.236">
  <g id="Line" transform="translate(-5.92 -3.943)">
    <path id="パス_1053" data-name="パス 1053" d="M13.68,29.818a7.763,7.763,0,0,0-7.76,7.76,2.879,2.879,0,0,0,1.835,2.47,13.824,13.824,0,0,0,5.925,1.132A13.822,13.822,0,0,0,19.6,40.047a2.879,2.879,0,0,0,1.835-2.47,7.763,7.763,0,0,0-7.76-7.76Zm19.128,0a7.763,7.763,0,0,0-7.76,7.76,2.879,2.879,0,0,0,1.835,2.47,13.822,13.822,0,0,0,5.925,1.132,13.824,13.824,0,0,0,5.925-1.132,2.879,2.879,0,0,0,1.835-2.47,7.763,7.763,0,0,0-7.76-7.76ZM13.68,31.146a6.434,6.434,0,0,1,6.431,6.431c0,.559-.468.955-1.117,1.29a12.442,12.442,0,0,1-5.315.983,12.442,12.442,0,0,1-5.315-.983c-.648-.335-1.117-.731-1.117-1.29a6.434,6.434,0,0,1,6.431-6.431Zm19.128,0a6.434,6.434,0,0,1,6.431,6.431c0,.559-.468.955-1.117,1.29a12.442,12.442,0,0,1-5.315.983,12.442,12.442,0,0,1-5.315-.983c-.648-.335-1.117-.731-1.117-1.29A6.434,6.434,0,0,1,32.808,31.146Zm0-10.559a4.076,4.076,0,1,0,4.075,4.075,4.077,4.077,0,0,0-4.075-4.075Zm-19.128,0a4.076,4.076,0,1,0,4.075,4.075,4.077,4.077,0,0,0-4.075-4.075Zm19.128,1.329a2.747,2.747,0,1,1-2.747,2.747A2.748,2.748,0,0,1,32.808,21.916Zm-19.128,0a2.747,2.747,0,1,1-2.747,2.747A2.748,2.748,0,0,1,13.68,21.916ZM23.219,4.727a8.715,8.715,0,0,0-3.651-.784c-4.259,0-7.661,2.943-7.661,6.488A6.284,6.284,0,0,0,15.3,15.818V18.6a.665.665,0,0,0,1.129.475l2.248-2.2a8.957,8.957,0,0,0,.9.045,8.715,8.715,0,0,0,3.651-.784,8.75,8.75,0,0,0,3.656.784,8.98,8.98,0,0,0,.9-.045l2.248,2.2A.664.664,0,0,0,31.15,18.6V15.818a6.283,6.283,0,0,0,3.387-5.387c0-3.544-3.4-6.488-7.661-6.488a8.75,8.75,0,0,0-3.656.784Zm2.682,5.7c0,2.884-2.868,5.159-6.332,5.159a7.727,7.727,0,0,1-1.045-.071.664.664,0,0,0-.555.183L16.623,17.02v-1.6a.664.664,0,0,0-.367-.594,5.048,5.048,0,0,1-3.021-4.4c0-2.884,2.868-5.159,6.332-5.159S25.9,7.547,25.9,10.431Zm-1.232,4.836a7.56,7.56,0,0,0,2.206.323,7.727,7.727,0,0,0,1.045-.071.664.664,0,0,1,.555.183L29.82,17.02v-1.6a.663.663,0,0,1,.367-.594,5.049,5.049,0,0,0,3.02-4.4c0-2.884-2.868-5.159-6.332-5.159a7.586,7.586,0,0,0-2.206.323,6.107,6.107,0,0,1,2.56,4.836,6.106,6.106,0,0,1-2.56,4.836ZM16.116,9.448a1.175,1.175,0,1,1-1.175,1.175A1.175,1.175,0,0,1,16.116,9.448Zm3.487,0a1.175,1.175,0,1,1-1.175,1.175A1.175,1.175,0,0,1,19.6,9.448Zm3.487,0a1.175,1.175,0,1,1-1.175,1.175A1.175,1.175,0,0,1,23.09,9.448Z" fill="#f4bbc3" fill-rule="evenodd"/>
  </g>
</svg>
