<svg xmlns="http://www.w3.org/2000/svg" width="35.001" height="33.323" viewBox="0 0 35.001 33.323">
  <g id="stethoscope" transform="translate(-5 -12.347)">
    <path id="パス_1033" data-name="パス 1033" d="M34.959,30.18A4.083,4.083,0,0,0,31.5,26.722V25.662a5.149,5.149,0,0,0-4.958-5.308,5.169,5.169,0,0,0-4.958,5.15h.034l-.034.006V37a6.414,6.414,0,0,1-6.125,6.659A6.417,6.417,0,0,1,9.333,37v-1c.846,0,1.75-.613,1.75-2.333V32.208A8.272,8.272,0,0,0,17.5,24.392V23.175H16.334l-.024-7.592a2.92,2.92,0,0,0-2.4-2.855,1.741,1.741,0,1,0-.04,1.189,1.75,1.75,0,0,1,1.271,1.67l.026,7.589H14v1.233a4.639,4.639,0,0,1-3.358,4.352,5.3,5.3,0,0,1-3.208,0,4.636,4.636,0,0,1-3.351-4.352V23.175H2.333V15.592a1.75,1.75,0,0,1,1.3-1.682,1.758,1.758,0,1,0-.036-1.185,2.917,2.917,0,0,0-2.426,2.867v7.583H0v1.213a8.272,8.272,0,0,0,6.417,7.82v1.467c0,1.72.9,2.333,1.75,2.333v1a7.581,7.581,0,0,0,7.292,7.826A7.583,7.583,0,0,0,22.75,37V25.537a3.992,3.992,0,0,1,3.792-4.015,3.983,3.983,0,0,1,3.792,4.142v1.059a4.083,4.083,0,1,0,4.625,3.458ZM12.25,13.842a.583.583,0,1,1,.583-.583A.583.583,0,0,1,12.25,13.842Zm-7-1.167a.583.583,0,1,1-.583.583A.583.583,0,0,1,5.25,12.675ZM1.167,24.389v-.047h1.75v.066A5.8,5.8,0,0,0,7.081,29.87a6.491,6.491,0,0,0,3.919,0,5.8,5.8,0,0,0,4.167-5.462v-.066h1.167v.047a7.151,7.151,0,0,1-5.95,6.791,8.321,8.321,0,0,1-2.461.121,7.62,7.62,0,0,1-.806-.122A7.149,7.149,0,0,1,1.167,24.389Zm7,10.453c-.525,0-.583-.817-.583-1.167V32.438c.047.006.095.008.142.013l.175.016c.276.024.554.041.835.041h.029c.28,0,.558-.017.832-.041l.18-.016c.046-.005.094-.007.14-.013v1.238c0,.35-.058,1.167-.583,1.167Zm22.75-1.167a2.917,2.917,0,1,1,2.917-2.917A2.917,2.917,0,0,1,30.917,33.675Z" transform="translate(5 0.839)" fill="#f4bbc3"/>
    <path id="パス_1034" data-name="パス 1034" d="M401.75,251.515a1.75,1.75,0,1,0,1.75,1.75A1.75,1.75,0,0,0,401.75,251.515Zm0,2.333a.583.583,0,1,1,.583-.583A.583.583,0,0,1,401.75,253.848Z" transform="translate(-370.833 -222.506)" fill="#f4bbc3"/>
  </g>
</svg>
