<svg xmlns="http://www.w3.org/2000/svg" width="40.717" height="37.87" viewBox="0 0 40.717 37.87">
  <g id="rehabilitation_1_" data-name="rehabilitation (1)" transform="translate(0 0)">
    <path id="パス_1054" data-name="パス 1054" d="M38.245,23.8a2.472,2.472,0,0,0,0-4.944H29.726a2.807,2.807,0,0,0-1.5-1.121L25.04,16.551a10.444,10.444,0,0,1-.912-.939c.756-2.254.261-4.54-.224-6.588A4.586,4.586,0,0,0,25.555,6.3a4.657,4.657,0,0,0-.067-1.912,2.087,2.087,0,0,0,1.289-1.153c.486-1.1.522-1.934.11-2.471A1.656,1.656,0,0,0,25.2.28h0A9.92,9.92,0,0,1,22.237.16,7.439,7.439,0,0,0,20.031.047a4.14,4.14,0,0,0-3.107,2.19,7.168,7.168,0,0,0-.576,2.479,9.223,9.223,0,0,0,.079,1.857A4.472,4.472,0,0,0,18.07,9.225a7.022,7.022,0,0,0-2.213,4.44v5.19H2.472a2.472,2.472,0,0,0,0,4.944h.459v3.793a.6.6,0,0,0,1.193,0V23.8H6.138v9.6H4.123V30.345a.6.6,0,0,0-1.193,0v3.084a2.064,2.064,0,0,0-1.718,2.033V36.51a1.015,1.015,0,0,0,1.013,1.014H8.036A1.015,1.015,0,0,0,9.049,36.51V35.462A2.065,2.065,0,0,0,7.331,33.43V23.8h9.191c-.11.251-.219.5-.326.75-.532,1.228-1.082,2.5-1.706,3.694a17.165,17.165,0,0,1-2.357,3.541,1.583,1.583,0,0,0-.671,1.127,1.494,1.494,0,0,0,.553.929l3.326,3.495.063.067a1.138,1.138,0,0,0,.814.468c.026,0,.054,0,.082,0a1.162,1.162,0,0,0,.821-.634c.795-1.269-.488-3.695-.543-3.8-.036-.067-.059-.115-.073-.147.038-.047,3.269-3.886,3.676-4.466,1.4,2.518,1.923,7.386,1.93,7.473a1.253,1.253,0,0,0,.344.967,1.5,1.5,0,0,0,1.039.23h4.992a1.014,1.014,0,0,0,.879-.329,1.162,1.162,0,0,0,.106-1.033c-.369-1.446-3.012-2.191-3.125-2.222-.074-.02-.124-.037-.157-.049-.008-.06-.016-.145-.022-.218,0-.054-.01-.113-.016-.175-.289-2.918-.839-6.936-2.311-9.667h4.305a.6.6,0,1,0,0-1.193H2.472a1.279,1.279,0,0,1,0-2.558H22.636a3.467,3.467,0,0,0,.845.254c.151.032,4.478,1.1,4.5,1.1a1.72,1.72,0,0,0,.267.021,1.746,1.746,0,0,0,1.685-1.279c.008-.031.015-.063.021-.1h8.294a1.279,1.279,0,0,1,0,2.558H30.9a.6.6,0,1,0,0,1.193h2.487v3.793a.6.6,0,0,0,1.193,0V23.8h2.013v9.6H34.579V30.345a.6.6,0,1,0-1.193,0v3.084a2.065,2.065,0,0,0-1.72,2.033v1.048a1.015,1.015,0,0,0,1.013,1.014h5.812A1.015,1.015,0,0,0,39.5,36.511V35.462a2.065,2.065,0,0,0-1.72-2.033V23.8h.461ZM7.856,35.462v.869H2.406v-.869a.869.869,0,0,1,.867-.869H6.987A.87.87,0,0,1,7.856,35.462Zm7.894-3.125A1.2,1.2,0,0,0,15.526,34a4.609,4.609,0,0,1,.638,2.47L12.88,33.018c-.035-.037-.085-.089-.131-.14l.077-.084c.058-.063.124-.134.2-.216a17,17,0,0,0,2.057-2.924l1.789,1.358c-.307.375-1.085,1.285-1.119,1.324Zm2.334-2.811c-.183.21-.342.393-.47.555l-1.962-1.49c.6-1.173,1.128-2.389,1.639-3.568.1-.235.206-.474.31-.713a18.373,18.373,0,0,1,1.99,3.224,13.082,13.082,0,0,1-1.506,1.991ZM28.258,36.3H23.307c0-.031,0-.063-.007-.093-.007-.093-.015-.2-.027-.319a22.855,22.855,0,0,0-.633-3.5l2.151-.355c.067.542.123,1.064.171,1.555.006.059.011.114.015.164a1.2,1.2,0,0,0,1.051,1.31A4.612,4.612,0,0,1,28.258,36.3Zm-3.626-5.452-2.316.382a28.439,28.439,0,0,0-1.5-3.883.6.6,0,0,0-.047-.1A20.586,20.586,0,0,0,18.711,23.8h3.744A18.676,18.676,0,0,1,24.631,30.848ZM17.552,6.011c-.166-1.5-.095-4.32,2.678-4.788a6.624,6.624,0,0,1,1.836.118,10.872,10.872,0,0,0,3.319.118c.388-.061.536,0,.558.033.05.064.109.435-.256,1.264-.413.939-2.415.68-4.352.43l-.346-.045c-1.052-.135-1.649.9-2.176,1.82A5.665,5.665,0,0,1,18.12,6c-.122.123-.372.077-.568.01Zm.392,1.258a1.449,1.449,0,0,0,1.026-.431,6.381,6.381,0,0,0,.877-1.283c.272-.473.725-1.266.99-1.231l.345.044a18.223,18.223,0,0,0,3.129.234A3.457,3.457,0,0,1,24.38,6.1a3.645,3.645,0,0,1-2.695,2.751,3.17,3.17,0,0,1-1.318.071,3.692,3.692,0,0,1-1.5-.585,2.96,2.96,0,0,1-.927-1.064ZM17.05,18.855v-5.19a5.823,5.823,0,0,1,2.15-3.83,5.458,5.458,0,0,0,.964.259,3.983,3.983,0,0,0,.681.058,4.568,4.568,0,0,0,1.14-.15,5.025,5.025,0,0,0,.852-.307,11.374,11.374,0,0,1,.354,4.826L21,11.952a.6.6,0,1,0-.907.774L22.628,15.7l-1.473,1.4-1.7-1.849a.6.6,0,1,0-.878.808l2.112,2.295,0,0,0,0,.006.005.016.016.5.472Zm11.726.987a.544.544,0,0,1-.592.385L24.3,19.263c-.227-.057-.419-.1-.573-.129a1.6,1.6,0,0,1-1.1-.582l-.008-.008-.625-.594,1.419-1.35c.842.93,1.067,1.014,1.171,1.053l3.23,1.2c.687.255,1.056.635.963.99Zm9.536,15.62v.869H32.859v-.869a.87.87,0,0,1,.869-.869h3.715A.87.87,0,0,1,38.312,35.462Z" transform="translate(0 0)" fill="#f4bbc3"/>
  </g>
</svg>
