<svg xmlns="http://www.w3.org/2000/svg" width="33.999" height="34" viewBox="0 0 33.999 34">
  <path id="パス_1043" data-name="パス 1043" d="M33.985,19.894a1.41,1.41,0,0,0-.8-1.059,3.712,3.712,0,0,0,.254-1.269,2.833,2.833,0,0,0-1.7-2.593V2.833a2.833,2.833,0,1,0-5.667,0v.013a2.958,2.958,0,0,0-2.833,2.82.567.567,0,0,0,.567.567h5.1a.567.567,0,0,0,.567-.567A2.89,2.89,0,0,0,27.2,2.943v-.11a1.7,1.7,0,0,1,3.4,0v11.9a2.74,2.74,0,0,0-.75.105,4.813,4.813,0,0,0-9.019-.672,3.941,3.941,0,0,0-.64.076,2.816,2.816,0,0,0-4.619-.945,4.8,4.8,0,0,0-7.17.437,3.964,3.964,0,0,0-4.632,2.153A2.818,2.818,0,0,0,.569,18.7v.29a1.408,1.408,0,0,0,.623,2.52l.359,3.418A8.081,8.081,0,0,0,6.2,31.235l-.227.9a1.5,1.5,0,0,0,2.709,1.2L9.437,32.2a10.841,10.841,0,0,0,1.38.1H23.188a10.842,10.842,0,0,0,1.38-.1l.752,1.128a1.5,1.5,0,0,0,2.707-1.2l-.227-.9a8.081,8.081,0,0,0,4.654-6.305l.359-3.418A1.41,1.41,0,0,0,33.985,19.894ZM27.329,4.207a2.11,2.11,0,0,1,.893.893h-3.74A2.11,2.11,0,0,1,27.329,4.207ZM3.4,17a1.688,1.688,0,0,1,.537.1.567.567,0,0,0,.718-.356l0-.013A2.83,2.83,0,0,1,8.2,14.859q.108.033.212.075a.567.567,0,0,0,.683-.218,3.675,3.675,0,0,1,6.05-.184.567.567,0,0,0,.949-.059,1.687,1.687,0,0,1,3.145.559.567.567,0,0,0,.755.444,2.816,2.816,0,0,1,.974-.176c.057,0,.113,0,.2.011a.579.579,0,0,0,.573-.378,3.679,3.679,0,0,1,7.126.768.567.567,0,0,0,.856.416,1.672,1.672,0,0,1,.874-.251,1.7,1.7,0,0,1,1.7,1.7A2.459,2.459,0,0,1,32,18.7H1.7A1.7,1.7,0,0,1,3.4,17Zm4.34,15.7a.37.37,0,0,1-.667-.294l.181-.72a9.93,9.93,0,0,0,.963.3Zm19.119.023h0a.36.36,0,0,1-.291.142.368.368,0,0,1-.307-.164l-.477-.719a10.053,10.053,0,0,0,.963-.3l.18.719A.363.363,0,0,1,26.862,32.724Zm4.466-7.914c-.382,3.624-3.881,6.357-8.14,6.357H10.817c-4.259,0-7.758-2.732-8.14-6.357l-.345-3.276H31.673Zm1.257-4.41H1.419a.283.283,0,1,1,0-.567H32.585a.283.283,0,0,1,0,.567Z" transform="translate(-0.003)" fill="#f4bbc3"/>
</svg>
