<svg xmlns="http://www.w3.org/2000/svg" width="36.808" height="19.789" viewBox="0 0 36.808 19.789">
  <g id="nurse" transform="translate(0 -118.369)">
    <path id="パス_1035" data-name="パス 1035" d="M36.515,124.378a30.108,30.108,0,0,0-36.224.076.733.733,0,0,0-.226.886l5.589,12.386a.733.733,0,0,0,.971.366,28.754,28.754,0,0,1,23.549-.047.733.733,0,0,0,.968-.367l5.6-12.412A.733.733,0,0,0,36.515,124.378ZM30.1,136.416a30.236,30.236,0,0,0-23.411.045L1.645,125.276a28.686,28.686,0,0,1,33.518-.072Z" fill="#f4bbc3"/>
    <path id="パス_1036" data-name="パス 1036" d="M444.978,212.206a.733.733,0,0,0-.97.367l-.28.62a.733.733,0,1,0,1.337.6l.28-.62A.733.733,0,0,0,444.978,212.206Z" transform="translate(-411.768 -87.03)" fill="#f4bbc3"/>
    <path id="パス_1037" data-name="パス 1037" d="M399.1,255.042a.733.733,0,0,0-.97.367l-2.336,5.177a.733.733,0,1,0,1.337.6l2.336-5.177A.733.733,0,0,0,399.1,255.042Z" transform="translate(-367.277 -126.788)" fill="#f4bbc3"/>
    <path id="パス_1038" data-name="パス 1038" d="M185.841,160.388h-2.587V157.8a.733.733,0,0,0-.733-.733h-3.552a.733.733,0,0,0-.733.733v2.587h-2.587a.733.733,0,0,0-.733.733v3.552a.733.733,0,0,0,.733.733h2.587v2.587a.733.733,0,0,0,.733.733h3.552a.733.733,0,0,0,.733-.733v-2.587h2.587a.733.733,0,0,0,.733-.733v-3.552A.733.733,0,0,0,185.841,160.388Zm-.733,3.552h-2.587a.733.733,0,0,0-.733.733v2.587H179.7v-2.587a.733.733,0,0,0-.733-.733h-2.587v-2.085h2.587a.733.733,0,0,0,.733-.733v-2.587h2.085v2.587a.733.733,0,0,0,.733.733h2.587Z" transform="translate(-162.341 -35.917)" fill="#f4bbc3"/>
  </g>
</svg>
