<svg xmlns="http://www.w3.org/2000/svg" width="39.211" height="34" viewBox="0 0 39.211 34">
  <g id="pharmacy" transform="translate(0 -34.024)">
    <g id="グループ_149" data-name="グループ 149" transform="translate(0 34.024)">
      <g id="グループ_146" data-name="グループ 146" transform="translate(17.597 14.767)">
        <path id="パス_1064" data-name="パス 1064" d="M231.775,230.86a.574.574,0,0,0,.574-.574v-.86h.86a.574.574,0,0,0,0-1.149h-.86v-.86a.574.574,0,0,0-1.149,0v.86h-.86a.574.574,0,1,0,0,1.149h.86v.86A.574.574,0,0,0,231.775,230.86Z" transform="translate(-229.766 -226.842)" fill="#f4bbc3"/>
      </g>
      <g id="グループ_147" data-name="グループ 147" transform="translate(0 0)">
        <path id="パス_1065" data-name="パス 1065" d="M38.637,66.875H37.7V38.761a1.552,1.552,0,0,0-1.55-1.55H34.82a6.893,6.893,0,0,1-3.95-1.237l-.731-.508a8.037,8.037,0,0,0-4.605-1.442H18.625a.574.574,0,1,0,0,1.149h6.908a6.893,6.893,0,0,1,3.95,1.237l.731.508A8.037,8.037,0,0,0,34.82,38.36h1.329a.4.4,0,0,1,.4.4V66.875H34.193V52.513a.574.574,0,0,0-1.149,0V66.875H30.778V54.8a.949.949,0,0,0-.948-.948H9.381a.949.949,0,0,0-.948.948v5.026a.574.574,0,0,0,1.149,0V55h5.464V66.875H9.582V62.05a.574.574,0,0,0-1.149,0v4.825H6.167V48.022H33.044v2.27a.574.574,0,0,0,1.149,0V47.448a.574.574,0,0,0-.574-.574H5.593a.574.574,0,0,0-.574.574V66.875H2.662V38.761a.4.4,0,0,1,.4-.4H4.392A8.036,8.036,0,0,0,9,36.918l.731-.508a6.893,6.893,0,0,1,3.95-1.237H16.4a.574.574,0,0,0,0-1.149H13.678a8.037,8.037,0,0,0-4.605,1.442l-.731.508a6.893,6.893,0,0,1-3.95,1.237H3.063a1.552,1.552,0,0,0-1.55,1.55V66.875H.574a.574.574,0,1,0,0,1.149H38.637a.574.574,0,1,0,0-1.149ZM23.017,55v1.839H16.195V55ZM16.195,66.875V57.991h6.822v8.884Zm7.971,0V55H29.63V66.875Z" transform="translate(0 -34.024)" fill="#f4bbc3"/>
      </g>
      <g id="グループ_148" data-name="グループ 148" transform="translate(14.124 3.086)">
        <path id="パス_1066" data-name="パス 1066" d="M194.815,74.318H185a.574.574,0,0,0,0,1.149h9.814a.574.574,0,0,0,0-1.149Z" transform="translate(-184.426 -74.318)" fill="#f4bbc3"/>
      </g>
    </g>
    <g id="グループ_152" data-name="グループ 152" transform="translate(5.263 39.621)">
      <g id="グループ_151" data-name="グループ 151" transform="translate(22.027 1.348)">
        <g id="グループ_150" data-name="グループ 150">
          <path id="パス_1067" data-name="パス 1067" d="M358.284,128.6a1.947,1.947,0,1,1,1.089-3.561.574.574,0,1,1-.643.952.8.8,0,1,0-.446,1.46.533.533,0,0,0,.371-.127.521.521,0,0,0,.053-.055.574.574,0,0,1,.88.738,1.655,1.655,0,0,1-1.3.593Z" transform="translate(-356.337 -124.706)" fill="#f4bbc3"/>
        </g>
      </g>
      <path id="パス_1068" data-name="パス 1068" d="M70.4,108.744H69.3a.579.579,0,0,0-.574.574v3.967a.574.574,0,1,0,1.149,0v-1.152l.53,0a1.694,1.694,0,1,0,0-3.388Zm0,2.239-.526,0c0-.206,0-.876,0-1.092H70.4a.546.546,0,1,1,0,1.09Z" transform="translate(-68.721 -108.618)" fill="#f4bbc3"/>
      <path id="パス_1069" data-name="パス 1069" d="M404.346,124.735a.574.574,0,0,0-.731.355l-.475,1.374-.489-1.378a.574.574,0,0,0-1.083.384l.97,2.735-.338.978a.574.574,0,1,0,1.086.375l1.415-4.093A.575.575,0,0,0,404.346,124.735Z" transform="translate(-376.047 -123.355)" fill="#f4bbc3"/>
      <path id="パス_1070" data-name="パス 1070" d="M212.3,125.044a.574.574,0,0,0-.81-.055l-.021.019a.574.574,0,0,0-1.08.273v2.745a.574.574,0,0,0,1.149,0v-1.5l.036-.031c.082-.07.667-.635.672-.64A.574.574,0,0,0,212.3,125.044Z" transform="translate(-199.538 -123.358)" fill="#f4bbc3"/>
      <path id="パス_1071" data-name="パス 1071" d="M243.01,124.936a1.359,1.359,0,0,0-1.027-.393,1.48,1.48,0,0,0-.9.28,1.338,1.338,0,0,0-.875-.295,1.487,1.487,0,0,0-.59.118.574.574,0,0,0-.974.412v2.762a.574.574,0,0,0,1.149,0V126.4s0,0,0,0c0-.33-.014-.719.349-.715.317,0,.326.362.324.589,0,.056,0,1.554,0,1.554a.574.574,0,1,0,1.149,0v-1.614c-.006-.468.211-.515.329-.515.283,0,.3.261.318.7,0,.009,0,1.43,0,1.43a.574.574,0,0,0,1.149,0V126.43A2.014,2.014,0,0,0,243.01,124.936Z" transform="translate(-225.635 -123.154)" fill="#f4bbc3"/>
      <path id="パス_1072" data-name="パス 1072" d="M119.382,110.367a2.029,2.029,0,0,0-.462-1.519,1.367,1.367,0,0,0-1.01-.38,1.52,1.52,0,0,0-.458.07v-.862a.574.574,0,0,0-1.149,0v4.093a.574.574,0,1,0,1.149,0v-1.405c0-.44.1-.751.393-.747.274,0,.378.317.388.749l.005,1.405a.574.574,0,0,0,.574.572h0a.574.574,0,0,0,.572-.576Z" transform="translate(-112.659 -107.102)" fill="#f4bbc3"/>
      <path id="パス_1073" data-name="パス 1073" d="M163.3,124.2a.574.574,0,0,0-.511.313,1.8,1.8,0,1,0,0,3.307.574.574,0,0,0,1.085-.262v-2.784A.574.574,0,0,0,163.3,124.2Zm-1.228,2.62a.654.654,0,1,1,.654-.654A.655.655,0,0,1,162.076,126.821Z" transform="translate(-153.261 -122.891)" fill="#f4bbc3"/>
      <path id="パス_1074" data-name="パス 1074" d="M308,124.2a.574.574,0,0,0-.511.313,1.8,1.8,0,1,0,0,3.307.574.574,0,0,0,1.085-.262v-2.784A.574.574,0,0,0,308,124.2Zm-1.228,2.62a.654.654,0,1,1,.654-.654A.655.655,0,0,1,306.771,126.821Z" transform="translate(-286.875 -122.891)" fill="#f4bbc3"/>
    </g>
  </g>
</svg>
