<svg xmlns="http://www.w3.org/2000/svg" width="25.647" height="31.285" viewBox="0 0 25.647 31.285">
  <path id="パス_1039" data-name="パス 1039" d="M67.228,6.079a3.668,3.668,0,1,0-5.682-.187l-4.1,1.745L57.1,6.917a3.665,3.665,0,1,0-5.226-1.875,8.253,8.253,0,0,0-5.744,7.86V25.725a.917.917,0,0,0,.917.917h2.528l.528,3.852a.916.916,0,0,0,.908.792h3.674a.916.916,0,0,0,.908-.792l.528-3.852h.092a.917.917,0,0,0,.917-.917V15.57l2.86.806a2.228,2.228,0,0,0,.809.466V20.2a.916.916,0,0,0,.905.916v9.25a.917.917,0,0,0,.917.917h7.332a.917.917,0,0,0,.917-.917v-9.25a.916.916,0,0,0,.909-.916V11.8A5.874,5.874,0,0,0,67.228,6.079Zm2.719,13.206H62.633V17.021c3.8.226,3.549.214,3.693.214A3.34,3.34,0,0,0,69.55,14.8l.4-1.38ZM64.463,1.833A1.839,1.839,0,1,1,62.63,3.672a1.838,1.838,0,0,1,1.833-1.839Zm-1.7,5.533,3.613.423a4.031,4.031,0,0,1,2.8,1.648L67.788,14.3a1.52,1.52,0,0,1-1.559,1.1l-4.78-.284a.395.395,0,0,1,0-.787l4-.312a.917.917,0,0,0,.8-.643l.843-2.728a.917.917,0,0,0-1.751-.541l-.659,2.133-1.868.146-4.051-2-.525-1.09ZM55.3,1.894a1.833,1.833,0,1,1-1.833,1.833A1.835,1.835,0,0,1,55.3,1.894ZM47.965,12.9a6.385,6.385,0,0,1,5.088-6.279,3.647,3.647,0,0,0,2.244.77l1.96,4.067a.917.917,0,0,0,.42.424l2.343,1.157a2.239,2.239,0,0,0-.724,1.234l-2.549-.719L53.57,9.572a.917.917,0,1,0-1.433,1.143L55.3,14.68V24.808H47.965V12.9Zm5.922,16.55H51.812l-.385-2.811h2.845Zm13.318,0v-5.56a.917.917,0,1,0-1.833,0v5.56H63.538V21.119h5.5v8.333Z" transform="translate(-46.132)" fill="#f4bbc3"/>
</svg>
