<svg xmlns="http://www.w3.org/2000/svg" width="35.563" height="35.563" viewBox="0 0 35.563 35.563">
  <g id="consultation" transform="translate(0 0)">
    <path id="パス_1048" data-name="パス 1048" d="M196.015,9.255l4.223-3.519h5.528V0H192V5.736h4.015Zm-2.868-4.666V1.147h11.472V4.589h-4.8l-2.66,2.217V4.589Zm0,0" transform="translate(-178.234)" fill="#f4bbc3"/>
    <path id="パス_1049" data-name="パス 1049" d="M224,32h1.147v1.147H224Zm0,0" transform="translate(-207.939 -29.706)" fill="#f4bbc3"/>
    <path id="パス_1050" data-name="パス 1050" d="M256,32h4.589v1.147H256Zm0,0" transform="translate(-237.645 -29.706)" fill="#f4bbc3"/>
    <path id="パス_1051" data-name="パス 1051" d="M336,32h1.147v1.147H336Zm0,0" transform="translate(-311.909 -29.706)" fill="#f4bbc3"/>
    <path id="パス_1052" data-name="パス 1052" d="M29.2,145.812l-.464-4.643a4.018,4.018,0,0,0,3.386-3.961v-7.457H29.827v-.793a2.063,2.063,0,0,0-1.118-1.839,3.428,3.428,0,0,0,1.118-2.531v-1.147a3.442,3.442,0,0,0-6.883,0v1.147a3.444,3.444,0,0,0,2.268,3.231L22.133,130.9H18.916a2.3,2.3,0,0,0-1.651-2.056l-2.351-.671v-1.025a3.43,3.43,0,0,0,1.147-2.558v-1.147a3.442,3.442,0,0,0-6.883,0v1.147a3.432,3.432,0,0,0,1.147,2.558v1.025l-2.351.671a2.3,2.3,0,0,0-1.664,2.206v2.143H4.015v3.442H5.162v9.178H0v1.147H35.563v-1.147Zm-5.108-9.178V134l4.065-4.065a1.8,1.8,0,0,0,.508-1.1.934.934,0,0,1,.017.119v7.1a1.723,1.723,0,0,1-1.721,1.721H22.37v-1.147Zm-1.721,4.589h2.923l.459,4.589H22.37Zm4.075,0h1.142l.459,4.589H26.9Zm3.381-5.162V130.9h1.147v6.31a2.871,2.871,0,0,1-2.868,2.868H22.37v-1.147h4.589A2.871,2.871,0,0,0,29.827,136.061Zm-5.736-11.472v-1.147a2.294,2.294,0,0,1,4.589,0v1.147a2.294,2.294,0,1,1-4.589,0Zm-1.483,7.457,3.827-3.827a.643.643,0,0,1,.91.91l-4.065,4.065H17.208a.574.574,0,0,1,0-1.147Zm-12.283-8.6a2.294,2.294,0,0,1,4.589,0v1.147a2.294,2.294,0,1,1-4.589,0Zm2.294,4.589a3.425,3.425,0,0,0,1.147-.2v.616a1.467,1.467,0,0,1-1.147.732,1.467,1.467,0,0,1-1.147-.732v-.616A3.425,3.425,0,0,0,12.619,128.03Zm-5.162,3.019a1.152,1.152,0,0,1,.832-1.1l2.363-.675a2.5,2.5,0,0,0,1.968,1.054,2.5,2.5,0,0,0,1.968-1.054l2.363.675a1.143,1.143,0,0,1,.807.952h-.549a1.723,1.723,0,0,0-1.721,1.721,1.7,1.7,0,0,0,.106.574H7.456ZM5.162,134.34H22.944v1.147H5.162Zm1.147,4.589H8.03v-1.147H6.309v-1.147H21.223v1.147H9.177v1.147H21.223v6.883H19.857l-1.147-2.294H8.823l-1.147,2.294H6.309Zm12.265,6.883H8.958l.574-1.147H18Zm0,0" transform="translate(0 -111.396)" fill="#f4bbc3"/>
  </g>
</svg>
