<svg id="icon_search" xmlns="http://www.w3.org/2000/svg" width="22.565" height="22.466" viewBox="0 0 22.565 22.466">
  <path id="Path_1023" data-name="Path 1023" d="M8.238,20.476a8.238,8.238,0,0,0,5.818-14.07,8.252,8.252,0,0,0-11.65,0,8.245,8.245,0,0,0,5.831,14.07Zm0-1.851A6.393,6.393,0,1,0,3.716,16.76,6.361,6.361,0,0,0,8.238,18.625Z" transform="translate(6.089 -4)" fill="#f1899b" fill-rule="evenodd"/>
  <path id="Path_1024" data-name="Path 1024" d="M1043.507,1041.583a.41.41,0,0,0,.291-.119l1.772-1.772a7.668,7.668,0,0,1-.846-.754,7.89,7.89,0,0,1-.82-.939l-1.785,1.785a.4.4,0,0,0,0,.569.425.425,0,0,0,.278.106.367.367,0,0,0,.238-.079l.516.635a.411.411,0,0,0,.079.45A.4.4,0,0,0,1043.507,1041.583Z" transform="translate(-1036.783 -1024.327)" fill="#f1899b" fill-rule="evenodd"/>
  <path id="Path_1025" data-name="Path 1025" d="M1168.712,1170.14a1.658,1.658,0,0,0,1.2-.5l3.729-3.716a1.74,1.74,0,0,0,0-2.42,1.724,1.724,0,0,0-2.433,0l-3.716,3.716a1.724,1.724,0,0,0,0,2.42A1.689,1.689,0,0,0,1168.712,1170.14Z" transform="translate(-1167 -1147.674)" fill="#f1899b" fill-rule="evenodd"/>
  <path id="Path_1026" data-name="Path 1026" d="M276.859,379.03a3.783,3.783,0,0,0,0-5.355.408.408,0,0,1,0-.555.4.4,0,0,1,.569,0,4.573,4.573,0,0,1,0,6.466.4.4,0,0,1-.278.119.4.4,0,0,1-.291-.674Z" transform="translate(-259.861 -368.121)" fill="#f1899b" fill-rule="evenodd"/>
</svg>
