<svg xmlns="http://www.w3.org/2000/svg" width="37.388" height="37.34" viewBox="0 0 37.388 37.34">
  <g id="physiotherapy" transform="translate(0 -0.33)">
    <path id="パス_1075" data-name="パス 1075" d="M36.84,36.575H33.007v-9.4a5.129,5.129,0,0,0,1.838-9.5,1.708,1.708,0,0,0-.962-3.018l-3.737-.28a.548.548,0,1,0-.082,1.092l3.737.28a.612.612,0,0,1-.046,1.223H22.037a1.363,1.363,0,0,0,.027-.268V14.866l5.448.408a.548.548,0,1,0,.082-1.092l-.579-.043.606-.529a1.793,1.793,0,0,0,1.448.322,1.753,1.753,0,0,0,1.346-1.3l2.385-.37a1.615,1.615,0,0,0,1.364-1.776,1.638,1.638,0,0,0-1.786-1.438l-5.491.592a1.218,1.218,0,0,0-.447.14l-2.085,1.14a3.564,3.564,0,0,0-2.719-2.556l-.416-.087A3.671,3.671,0,0,0,22.376,5.6V2.554A2.227,2.227,0,0,0,20.152.33H17.236a2.227,2.227,0,0,0-2.224,2.224V5.6a3.671,3.671,0,0,0,1.156,2.675l-.416.087a3.593,3.593,0,0,0-2.846,3.5v.372q-.792.05-1.579.142a2.311,2.311,0,0,0-1.874-.961H6.19l-1.077-.653a.9.9,0,0,0-1.363.769v3.873a2.65,2.65,0,0,0,.557,1.629,5.13,5.13,0,0,0,.073,10.138v3.415a.548.548,0,0,0,1.1,0v-3.36H31.911v9.347H5.477V33.143a.548.548,0,0,0-1.1,0v3.432H.548a.548.548,0,0,0,0,1.1H36.84a.548.548,0,1,0,0-1.1ZM28.847,12.859h0a.648.648,0,0,1-.81-.553l1.307-.271a.689.689,0,0,1-.5.824ZM26.963,10.74a.124.124,0,0,1,.044-.014l5.49-.592a.526.526,0,0,1,.137,1.043l-2.285.354a.935.935,0,0,0-1.072-.6l-1.616.335a.938.938,0,0,0-.727,1.108l.043.206c.008.039.018.076.029.114l-1.523,1.329-3.476-.26a1.366,1.366,0,0,0-.106-.254ZM16.107,2.554a1.13,1.13,0,0,1,1.129-1.129h2.915a1.13,1.13,0,0,1,1.129,1.129v1l-2.5.287a1.631,1.631,0,0,1-.846-.129L16.107,2.9Zm0,3.045V4.1l1.383.612a2.727,2.727,0,0,0,1.414.215l2.377-.273V5.6a2.587,2.587,0,0,1-5.174,0Zm3.211,3.628v.214a.75.75,0,1,1-1.5,0V9.176a3.654,3.654,0,0,0,1.5.052ZM14,11.864a2.493,2.493,0,0,1,1.975-2.43l.747-.156v.163a1.845,1.845,0,1,0,3.69,0V9.225l1,.209a2.473,2.473,0,0,1,1.943,2.031L20.9,12.8a30.174,30.174,0,0,0-4.85-.6Q15.031,12.16,14,12.189ZM11.768,14.74v-1a2.343,2.343,0,0,0-.021-.309,29,29,0,0,1,9.011.46.268.268,0,0,1,.21.262V16.7a.268.268,0,0,1-.268.268h-.659c-.117-.042-2.412-.588-2.544-.62a1,1,0,0,1-.362-.169l-1.9-1.414a1.666,1.666,0,0,0-2.42,2.2H11.628a.911.911,0,0,1-.557-.191,3.314,3.314,0,0,0,.7-2.037Zm8.215,3.945a.509.509,0,0,1-.569.275l-.447-.1.31-.955.373.09a.494.494,0,0,1,.333.692ZM18.21,17.646l-.314.966-1.127-.259a1,1,0,0,1-.322-.136l-2.529-1.642a.567.567,0,0,1-.2-.715.577.577,0,0,1,.863-.216l1.9,1.414a2.087,2.087,0,0,0,.759.355ZM9.453,12.512a1.226,1.226,0,0,1,1.22,1.229v1A2.229,2.229,0,0,1,9,16.9l0-.406a1.28,1.28,0,0,0-1.122-1.259l-.527-.064a.18.18,0,0,1-.155-.146L6.7,12.512H9.453Zm-4.607-.63.7.425.574,2.929a1.273,1.273,0,0,0,1.1,1.022l.527.064a.182.182,0,0,1,.158.18l0,.466H6.393a1.559,1.559,0,0,1-1.547-1.562Zm27.412,14.25H5.13a4.035,4.035,0,0,1,0-8.069H14.2l1.653,1.073a2.094,2.094,0,0,0,.673.285l2.646.607a1.616,1.616,0,0,0,1.8-.874,1.582,1.582,0,0,0,.1-1.091H32.258a4.035,4.035,0,0,1,0,8.069Z" fill="#f4bbc3"/>
  </g>
</svg>
