<svg xmlns="http://www.w3.org/2000/svg" xmlns:xlink="http://www.w3.org/1999/xlink" width="31.137" height="44.624" viewBox="0 0 31.137 44.624">
  <defs>
    <clipPath id="clip-path">
      <path id="path93" d="M0-682.665H23.757v23.757H0Z" transform="translate(0 682.665)" fill="#f4bbc3"/>
    </clipPath>
  </defs>
  <g id="グループ_154" data-name="グループ 154" transform="translate(-564.861 -1069.174)">
    <g id="g87" transform="translate(569.445 1090.041)">
      <g id="g89">
        <g id="g91" clip-path="url(#clip-path)">
          <g id="g97" transform="translate(20.973 1.392)">
            <path id="path99" d="M0-19.3A.7.7,0,0,1,.7-20a.7.7,0,0,1,.7.7.7.7,0,0,1-.7.7.7.7,0,0,1-.7-.7" transform="translate(0 20)" fill="#f4bbc3"/>
          </g>
          <g id="g101" transform="translate(22.365 7.006)">
            <path id="path103" d="M0-19.3A.7.7,0,0,1,.7-20a.7.7,0,0,1,.7.7.7.7,0,0,1-.7.7.7.7,0,0,1-.7-.7" transform="translate(0 20)" fill="#f4bbc3"/>
          </g>
          <g id="g105" transform="translate(0.696 0.696)">
            <path id="path107" d="M-451.437-458.217a11.917,11.917,0,0,1-8.45-3.5,11.818,11.818,0,0,1-3.529-8.43,11.818,11.818,0,0,1,3.529-8.43,11.917,11.917,0,0,1,8.45-3.5c.028,0,.056,0,.084,0a.75.75,0,0,1,.7.543.75.75,0,0,1-.321.842,8.434,8.434,0,0,0-3.933,7.065,8.331,8.331,0,0,0,8.345,8.3,8.2,8.2,0,0,0,5.2-1.837.75.75,0,0,1,.9-.031.75.75,0,0,1,.281.855,11.963,11.963,0,0,1-4.256,5.822A11.713,11.713,0,0,1-451.437-458.217Zm-2.314-22.109a10.461,10.461,0,0,0-8.165,10.176,10.468,10.468,0,0,0,10.479,10.433,10.367,10.367,0,0,0,8.819-4.949,9.8,9.8,0,0,1-3.947.834,9.833,9.833,0,0,1-9.845-9.8,9.777,9.777,0,0,1,1.287-4.83A10.028,10.028,0,0,1-453.751-480.326Z" transform="translate(462.665 481.332)" fill="#f4bbc3"/>
          </g>
          <g id="g109" transform="translate(13.317 2.088)">
            <path id="path111" d="M-80,3.534a.75.75,0,0,1-.75-.75.75.75,0,0,1,.75-.75A2.036,2.036,0,0,0-77.966,0a.75.75,0,0,1,.75-.75.75.75,0,0,1,.75.75A3.538,3.538,0,0,1-80,3.534Z" transform="translate(80)" fill="#f4bbc3"/>
          </g>
          <g id="g113" transform="translate(16.101 2.088)">
            <path id="path115" d="M2.784,3.534A3.538,3.538,0,0,1-.75,0,.75.75,0,0,1,0-.75.75.75,0,0,1,.75,0,2.036,2.036,0,0,0,2.784,2.034a.75.75,0,0,1,0,1.5Z" fill="#f4bbc3"/>
          </g>
          <g id="g117" transform="translate(13.317 4.872)">
            <path id="path119" d="M-77.216-77.753a.75.75,0,0,1-.75-.75A2.085,2.085,0,0,0-80-80.583a.75.75,0,0,1-.75-.75.75.75,0,0,1,.75-.75,3.481,3.481,0,0,1,2.5,1.064A3.582,3.582,0,0,1-76.466-78.5.75.75,0,0,1-77.216-77.753Z" transform="translate(80 81.333)" fill="#f4bbc3"/>
          </g>
          <g id="g121" transform="translate(16.101 4.872)">
            <path id="path123" d="M0-77.753a.75.75,0,0,1-.75-.75A3.582,3.582,0,0,1,.279-81.019a3.481,3.481,0,0,1,2.5-1.064.75.75,0,0,1,.75.75.75.75,0,0,1-.75.75A2.085,2.085,0,0,0,.75-78.5.75.75,0,0,1,0-77.753Z" transform="translate(0 81.333)" fill="#f4bbc3"/>
          </g>
        </g>
      </g>
    </g>
    <g id="nurse" transform="translate(564.861 1069.174)">
      <path id="パス_1035" data-name="パス 1035" d="M30.888,123.452a25.469,25.469,0,0,0-30.642.064.62.62,0,0,0-.191.75l4.728,10.478a.62.62,0,0,0,.821.31,24.323,24.323,0,0,1,19.92-.04.62.62,0,0,0,.819-.311l4.738-10.5A.62.62,0,0,0,30.888,123.452Zm-5.424,10.183a25.577,25.577,0,0,0-19.8.038l-4.27-9.462a24.266,24.266,0,0,1,28.353-.061Z" transform="translate(0 -118.369)" fill="#f4bbc3"/>
      <path id="パス_1036" data-name="パス 1036" d="M444.775,212.2a.62.62,0,0,0-.821.31l-.237.524a.62.62,0,1,0,1.131.51l.237-.524A.62.62,0,0,0,444.775,212.2Z" transform="translate(-416.682 -206.438)" fill="#f4bbc3"/>
      <path id="パス_1037" data-name="パス 1037" d="M398.578,255.032a.62.62,0,0,0-.821.31l-1.976,4.38a.62.62,0,1,0,1.131.51l1.976-4.38A.62.62,0,0,0,398.578,255.032Z" transform="translate(-371.661 -246.67)" fill="#f4bbc3"/>
      <path id="パス_1038" data-name="パス 1038" d="M184.158,159.876h-2.188v-2.188a.62.62,0,0,0-.62-.62h-3a.62.62,0,0,0-.62.62v2.188h-2.188a.62.62,0,0,0-.62.62v3a.62.62,0,0,0,.62.62h2.188v2.188a.62.62,0,0,0,.62.62h3a.62.62,0,0,0,.62-.62v-2.188h2.188a.62.62,0,0,0,.62-.62v-3A.62.62,0,0,0,184.158,159.876Zm-.62,3h-2.188a.62.62,0,0,0-.62.62v2.188h-1.764V163.5a.62.62,0,0,0-.62-.62h-2.188v-1.764h2.188a.62.62,0,0,0,.62-.62v-2.188h1.764V160.5a.62.62,0,0,0,.62.62h2.188Z" transform="translate(-164.279 -154.715)" fill="#f4bbc3"/>
    </g>
  </g>
</svg>
