<svg xmlns="http://www.w3.org/2000/svg" xmlns:xlink="http://www.w3.org/1999/xlink" width="42.897" height="52.231" viewBox="0 0 42.897 52.231">
  <defs>
    <clipPath id="clip-path">
      <path id="path3972" d="M0-682.665H35.231v35.231H0Z" transform="translate(0 682.665)" fill="#f4bbc3"/>
    </clipPath>
  </defs>
  <g id="グループ_155" data-name="グループ 155" transform="translate(-556.335 -1148)">
    <g id="day-and-night" transform="translate(568 1148)">
      <path id="パス_1076" data-name="パス 1076" d="M5.488,31.364a.488.488,0,0,1-.345-.833L30.531,5.143a.488.488,0,1,1,.69.69L5.834,31.221A.488.488,0,0,1,5.488,31.364Z" transform="translate(-2.559 -2.559)" fill="#f4bbc3"/>
      <path id="パス_1077" data-name="パス 1077" d="M14.929,26.3a.488.488,0,0,1-.346-.146A8.962,8.962,0,0,1,12,19.788,8.564,8.564,0,0,1,20.3,11a8.108,8.108,0,0,1,6.337,3.113.488.488,0,0,1-.763.609A7.137,7.137,0,0,0,20.3,11.976a7.588,7.588,0,0,0-7.323,7.812,7.992,7.992,0,0,0,2.3,5.683.488.488,0,0,1-.346.83Z" transform="translate(-6.141 -5.63)" fill="#f4bbc3"/>
      <path id="パス_1078" data-name="パス 1078" d="M10.441,10.929a.488.488,0,0,1-.345-.143L8.143,8.833a.488.488,0,1,1,.69-.69L10.786,10.1a.488.488,0,0,1-.345.833Z" transform="translate(-4.094 -4.094)" fill="#f4bbc3"/>
      <path id="パス_1079" data-name="パス 1079" d="M3.418,28.976H.488a.488.488,0,0,1,0-.976H3.418a.488.488,0,1,1,0,.976Z" transform="translate(0 -14.33)" fill="#f4bbc3"/>
      <path id="パス_1080" data-name="パス 1080" d="M8.488,46.929a.488.488,0,0,1-.345-.833L10.1,44.143a.488.488,0,1,1,.69.69L8.834,46.786A.488.488,0,0,1,8.488,46.929Z" transform="translate(-4.094 -22.518)" fill="#f4bbc3"/>
      <path id="パス_1081" data-name="パス 1081" d="M44.488,10.929a.488.488,0,0,1-.345-.833L46.1,8.143a.488.488,0,1,1,.69.69l-1.953,1.953A.488.488,0,0,1,44.488,10.929Z" transform="translate(-22.518 -4.094)" fill="#f4bbc3"/>
      <path id="パス_1082" data-name="パス 1082" d="M28.488,3.906A.488.488,0,0,1,28,3.418V.488a.488.488,0,0,1,.976,0V3.418A.488.488,0,0,1,28.488,3.906Z" transform="translate(-14.33)" fill="#f4bbc3"/>
      <path id="パス_1083" data-name="パス 1083" d="M38.384,47.111A8.225,8.225,0,0,1,35.85,31.022a.488.488,0,0,1,.573.7,6.3,6.3,0,0,0-.79,3.049,6.408,6.408,0,0,0,6.453,6.347,6.476,6.476,0,0,0,3.745-1.178.488.488,0,0,1,.76.493,8.335,8.335,0,0,1-8.206,6.676ZM35.061,32.388a7.226,7.226,0,0,0-4.055,6.488,7.4,7.4,0,0,0,14.31,2.5,7.467,7.467,0,0,1-3.23.726,7.385,7.385,0,0,1-7.429-7.323,7.275,7.275,0,0,1,.4-2.387Z" transform="translate(-15.368 -15.865)" fill="#f4bbc3"/>
      <path id="パス_1084" data-name="パス 1084" d="M51.441,31.976H49.488a.488.488,0,0,1,0-.976h1.953a.488.488,0,0,1,0,.976Z" transform="translate(-25.077 -15.865)" fill="#f4bbc3"/>
      <path id="パス_1085" data-name="パス 1085" d="M51.488,31.929A.488.488,0,0,1,51,31.441V29.488a.488.488,0,1,1,.976,0v1.953A.488.488,0,0,1,51.488,31.929Z" transform="translate(-26.101 -14.842)" fill="#f4bbc3"/>
      <path id="パス_1086" data-name="パス 1086" d="M57.418,42.976H54.488a.488.488,0,0,1,0-.976h2.929a.488.488,0,1,1,0,.976Z" transform="translate(-27.636 -21.495)" fill="#f4bbc3"/>
      <path id="パス_1087" data-name="パス 1087" d="M57.488,42.906A.488.488,0,0,1,57,42.418V39.488a.488.488,0,0,1,.976,0v2.929A.488.488,0,0,1,57.488,42.906Z" transform="translate(-29.171 -19.959)" fill="#f4bbc3"/>
    </g>
    <g id="g3966" transform="translate(556.335 1847.665)">
      <g id="g3968" transform="translate(0 -682.665)">
        <g id="g3970" clip-path="url(#clip-path)">
          <g id="g3976" transform="translate(2.752 19.748)">
            <path id="path3978" d="M-12.645,0a.688.688,0,0,1,.688.688.688.688,0,0,1-.688.688.688.688,0,0,1-.688-.688A.688.688,0,0,1-12.645,0" transform="translate(13.333 0)" fill="#f4bbc3"/>
          </g>
          <g id="g3980" transform="translate(0.688 17.684)">
            <path id="path3982" d="M-102.538-200.277h-4.129a.75.75,0,0,1-.75-.75v-12.386a.75.75,0,0,1,.75-.75h4.129a2.129,2.129,0,0,1,2.126,2.126v9.638A2.13,2.13,0,0,1-102.538-200.277Zm-3.379-1.5h3.379a.627.627,0,0,0,.626-.624v-9.635a.627.627,0,0,0-.626-.626h-3.379Z" transform="translate(106.666 213.413)" fill="#f4bbc3"/>
          </g>
          <g id="g3984" transform="translate(6.193 22.656)">
            <path id="path3986" d="M-322.5-47.868a8.836,8.836,0,0,1-4.546-1.26l-3.6-2.159a6.719,6.719,0,0,0-2.792-.706.75.75,0,0,1-.722-.777.749.749,0,0,1,.777-.722,8.139,8.139,0,0,1,3.509.919l3.6,2.159a7.335,7.335,0,0,0,3.774,1.046,7.287,7.287,0,0,0,3.037-.659l.008,0,12.857-5.661.024-.01a1.217,1.217,0,0,0,.691-.715,1.286,1.286,0,0,0-.1-1.059,1.244,1.244,0,0,0-1.512-.476l-.011,0-8.455,2.906a.75.75,0,0,1-.953-.465.75.75,0,0,1,.465-.953l8.451-2.9a2.733,2.733,0,0,1,3.335,1.176,2.766,2.766,0,0,1,.19,2.283,2.718,2.718,0,0,1-1.532,1.592l-12.842,5.655A8.776,8.776,0,0,1-322.5-47.868Z" transform="translate(333.413 58.784)" fill="#f4bbc3"/>
          </g>
          <g id="g3988" transform="translate(6.193 19.06)">
            <path id="path3990" d="M16.239,7.631h-7a.75.75,0,0,1,0-1.5h7a1.314,1.314,0,1,0,0-2.629H11.783a2.13,2.13,0,0,1-1.043-.273L7.1,1.184A3.381,3.381,0,0,0,5.448.75H0A.75.75,0,0,1-.75,0,.75.75,0,0,1,0-.75H5.448A4.883,4.883,0,0,1,7.84-.123l3.635,2.045A.627.627,0,0,0,11.783,2h4.456a2.814,2.814,0,0,1,0,5.629Z" fill="#f4bbc3"/>
          </g>
        </g>
      </g>
    </g>
  </g>
</svg>
