<svg xmlns="http://www.w3.org/2000/svg" width="35.701" height="35.508" viewBox="0 0 35.701 35.508">
  <path id="Shape" d="M1.785,35.831H4.76a1.776,1.776,0,0,0,1.321-.6H21a4.755,4.755,0,0,0,2.475-.694l11.15-6.788a2.22,2.22,0,0,0,.667-3.179.57.57,0,0,0-.042-.059,2.233,2.233,0,0,0-2.484-.778l-4.211,1.4V12.626h.779a1.19,1.19,0,0,0,.782-2.093L28.56,9.185V2.511a1.19,1.19,0,0,0-1.19-1.19H24.4a1.19,1.19,0,0,0-1.19,1.19V4.562L18.624.607a1.2,1.2,0,0,0-1.547,0l-11.5,9.928a1.19,1.19,0,0,0,.784,2.091H7.14v8.33h-.7a1.785,1.785,0,0,0-1.676-1.19H1.785A1.785,1.785,0,0,0,0,21.551v12.5a1.785,1.785,0,0,0,1.785,1.785ZM33.142,24.864a1.044,1.044,0,0,1,1.131.327.494.494,0,0,0,.029.043,1.031,1.031,0,0,1-.292,1.5L22.86,33.526a3.57,3.57,0,0,1-1.856.52H6.545v-11.9H7.616a4.851,4.851,0,0,1,3.021,1.06,6.049,6.049,0,0,0,3.762,1.32h3.112a2.391,2.391,0,0,1,2.033,1.142c.007.015.014.029.02.039a1.534,1.534,0,0,1-.042,1.794H15.9a5.963,5.963,0,0,0-3.3,1l-.434.292a.6.6,0,1,0,.664.988l.431-.289a4.766,4.766,0,0,1,2.641-.8h5.29a2.922,2.922,0,0,0,.944-.155ZM22.015,27.322l-.264.088a1.745,1.745,0,0,1-.563.09h-.324a2.864,2.864,0,0,0-.258-2.37.544.544,0,0,0-.032-.059,3.587,3.587,0,0,0-3.061-1.736H14.4a4.784,4.784,0,0,1-.714-.059V22.146a4.165,4.165,0,1,1,8.33,0ZM24.4,2.511H27.37V8.158L24.4,5.59ZM9.52,12.626a.6.6,0,0,0,0-1.19H6.356L17.85,1.509l5.534,4.778,5.956,5.149H21.42a.6.6,0,1,0,0,1.19h5.95V25.537l-4.165,1.388v-4.78a5.355,5.355,0,0,0-10.71,0v.795a4.8,4.8,0,0,1-1.116-.665A6.049,6.049,0,0,0,8.33,21V12.626ZM1.19,21.551a.6.6,0,0,1,.6-.6H4.76a.6.6,0,0,1,.6.6v12.5a.6.6,0,0,1-.6.6H1.785a.6.6,0,0,1-.6-.6Z" transform="translate(0 -0.322)" fill="#f299a9"/>
</svg>
