<svg id="support" xmlns="http://www.w3.org/2000/svg" width="35" height="35" viewBox="0 0 35 35">
  <path id="Path_1017" data-name="Path 1017" d="M48.75,0A8.75,8.75,0,0,0,40,8.75v6.417a4.088,4.088,0,0,0,4.083,4.083h.583V18.083h-.583a2.92,2.92,0,0,1-2.917-2.917V8.75a7.583,7.583,0,1,1,15.167,0v6.417a2.92,2.92,0,0,1-2.917,2.917h-.583V19.25h.583A4.088,4.088,0,0,0,57.5,15.167V8.75A8.75,8.75,0,0,0,48.75,0Z" transform="translate(-37.083)" fill="#307ec6"/>
  <path id="Path_1018" data-name="Path 1018" d="M41.893,360.545l.426-.671-.985-.625-.426.672a5.815,5.815,0,0,0,.241,6.582v1.551h1.167V366.3a.583.583,0,0,0-.128-.365A4.647,4.647,0,0,1,41.893,360.545Z" transform="translate(-37.086 -333.053)" fill="#307ec6"/>
  <path id="Path_1019" data-name="Path 1019" d="M306.5,0h-7.583A2.92,2.92,0,0,0,296,2.917V8.75a2.92,2.92,0,0,0,2.917,2.917h1.167V14a.583.583,0,0,0,.36.539.576.576,0,0,0,.223.044.583.583,0,0,0,.412-.171l2.746-2.746H306.5a2.92,2.92,0,0,0,2.917-2.917V2.917A2.92,2.92,0,0,0,306.5,0Zm1.75,8.75a1.75,1.75,0,0,1-1.75,1.75h-2.917a.583.583,0,0,0-.412.171l-1.921,1.921V11.083a.583.583,0,0,0-.583-.583h-1.75a1.75,1.75,0,0,1-1.75-1.75V2.917a1.75,1.75,0,0,1,1.75-1.75H306.5a1.75,1.75,0,0,1,1.75,1.75Z" transform="translate(-274.417)" fill="#307ec6"/>
  <rect id="Rectangle_123" data-name="Rectangle 123" width="4" height="1" transform="translate(25 3)" fill="#307ec6"/>
  <rect id="Rectangle_124" data-name="Rectangle 124" width="3" height="1" transform="translate(30 3)" fill="#307ec6"/>
  <rect id="Rectangle_125" data-name="Rectangle 125" width="8" height="1" transform="translate(25 5)" fill="#307ec6"/>
  <rect id="Rectangle_126" data-name="Rectangle 126" width="4" height="1" transform="translate(25 8)" fill="#307ec6"/>
  <path id="Path_1020" data-name="Path 1020" d="M249.636,359.92l-.426-.672-.985.625.426.672a4.646,4.646,0,0,1-.295,5.393.584.584,0,0,0-.128.365v1.75h1.167V366.5A5.815,5.815,0,0,0,249.636,359.92Z" transform="translate(-230.125 -333.053)" fill="#307ec6"/>
  <path id="Path_1021" data-name="Path 1021" d="M34.417,84.587h-5.25A4.083,4.083,0,0,0,25.091,88.5l-1.758,3.165V89.254A4.088,4.088,0,0,0,19.25,85.17H17.118l-.016-.012-.01.012H15.75A1.167,1.167,0,0,1,14.583,84V82.631A5.833,5.833,0,0,0,17.5,77.587V72.92a5.845,5.845,0,0,0-.7-2.768.583.583,0,0,0-.758-.251L6.168,74.547a.583.583,0,0,0-.335.528v2.512A5.833,5.833,0,0,0,8.75,82.631V84A1.167,1.167,0,0,1,7.583,85.17h-3.5A4.088,4.088,0,0,0,0,89.254v10.5H1.167v-10.5a2.92,2.92,0,0,1,2.917-2.917H5.94l5.253,7.34a.583.583,0,0,0,.467.244h.008a.583.583,0,0,0,.467-.233l5.542-7.35H19.25a2.92,2.92,0,0,1,2.917,2.917V93.92a.583.583,0,0,0,1.093.283l2.75-4.95h3.344l-5.687,10.5h1.327l5.69-10.5h.233A4.088,4.088,0,0,0,35,85.17.583.583,0,0,0,34.417,84.587ZM7,77.587V75.445l9.007-4.239a4.667,4.667,0,0,1,.326,1.714v4.667a4.667,4.667,0,1,1-9.333,0Zm4.679,14.765-1.8-2.515h3.7Zm2.778-3.682H9.042l-1.67-2.333h.212A2.333,2.333,0,0,0,9.917,84v-.852a5.829,5.829,0,0,0,3.5,0V84a2.333,2.333,0,0,0,2.333,2.333h.467Zm16.459-.583H26.308a2.921,2.921,0,0,1,2.858-2.333h4.608A2.921,2.921,0,0,1,30.917,88.087Z" transform="translate(0 -64.753)" fill="#307ec6"/>
</svg>
