<svg xmlns="http://www.w3.org/2000/svg" width="29.931" height="32.438" viewBox="0 0 29.931 32.438">
  <g id="Group_298" data-name="Group 298" transform="translate(-19.78 0.002)">
    <path id="Path_1011" data-name="Path 1011" d="M34.746,30.218A12.746,12.746,0,0,1,33.63,4.774l-1,.933a1.109,1.109,0,1,0,1.514,1.622l2.6-2.423a1.494,1.494,0,0,0,0-2.186L34.143.3a1.109,1.109,0,1,0-1.514,1.622l.7.653a14.966,14.966,0,0,0-9.165,25.482A14.866,14.866,0,0,0,34.74,32.436h.006a1.109,1.109,0,0,0,0-2.219Z" fill="#2680eb"/>
    <circle id="Ellipse_66" data-name="Ellipse 66" cx="1.109" cy="1.109" r="1.109" transform="translate(47.492 16.361)" fill="#2680eb"/>
    <circle id="Ellipse_67" data-name="Ellipse 67" cx="1.109" cy="1.109" r="1.109" transform="translate(37.228 29.748)" fill="#2680eb"/>
    <path id="Path_1012" data-name="Path 1012" d="M450.9,314.89A1.109,1.109,0,1,0,452.009,316,1.109,1.109,0,0,0,450.9,314.89Z" transform="translate(-402.766 -294.941)" fill="#2680eb"/>
    <path id="Path_1013" data-name="Path 1013" d="M349,447.69a1.109,1.109,0,1,0,1.109,1.109A1.109,1.109,0,0,0,349,447.69Z" transform="translate(-307.322 -419.328)" fill="#2680eb"/>
    <path id="Path_1014" data-name="Path 1014" d="M429.039,367.62a1.109,1.109,0,1,0,1.109,1.109A1.109,1.109,0,0,0,429.039,367.62Z" transform="translate(-382.291 -344.331)" fill="#2680eb"/>
    <path id="Path_1015" data-name="Path 1015" d="M394.259,412.91a1.109,1.109,0,1,0,1.109,1.109A1.109,1.109,0,0,0,394.259,412.91Z" transform="translate(-349.715 -386.751)" fill="#2680eb"/>
    <path id="Path_1016" data-name="Path 1016" d="M245.845,168.487a1.109,1.109,0,0,0-1.109-1.109h-3.8a.793.793,0,0,1-.793-.793v-5.706a1.109,1.109,0,1,0-2.219,0v5.706a3.015,3.015,0,0,0,3.011,3.011h3.8A1.109,1.109,0,0,0,245.845,168.487Z" transform="translate(-204.32 -149.649)" fill="#2680eb"/>
  </g>
</svg>
