<svg xmlns="http://www.w3.org/2000/svg" width="91.376" height="56.748" viewBox="0 0 91.376 56.748">
  <g id="icon_Area" transform="translate(0 -48.978)">
    <g id="house_home_love_architecture" data-name="house, home, love, architecture" transform="translate(35.416 48.978)">
      <path id="Path_1181" data-name="Path 1181" d="M369.527,349.8v3.547a1.638,1.638,0,0,0,1.636,1.636h2.679a1.638,1.638,0,0,0,1.636-1.636V349.7C375.477,345.776,369.527,345.711,369.527,349.8Zm4.859,3.547a.546.546,0,0,1-.545.545h-2.679a.546.546,0,0,1-.545-.545V349.8a1.886,1.886,0,1,1,3.769-.1Z" transform="translate(-326.073 -305.896)" fill="#fff"/>
      <path id="Path_1182" data-name="Path 1182" d="M164.593,349.8v3.547a1.637,1.637,0,0,0,1.636,1.636h2.679a1.637,1.637,0,0,0,1.636-1.636V349.7C170.543,345.776,164.593,345.711,164.593,349.8Zm4.859,3.547a.546.546,0,0,1-.545.545h-2.679a.546.546,0,0,1-.545-.545V349.8a1.886,1.886,0,1,1,3.769-.1Z" transform="translate(-149.073 -305.896)" fill="#fff"/>
      <circle id="circle" cx="0.818" cy="0.818" r="0.818" transform="translate(30.983 46.895)" fill="#fff"/>
      <path id="Path_1183" data-name="Path 1183" d="M106.146,224.748h-1.794V208.076a2.184,2.184,0,0,0,.775-3.544l-6.894-7.306v-7.24a1.638,1.638,0,0,0-1.636-1.636H88.535a1.638,1.638,0,0,0-1.636,1.636v1.182H76.206v0a1.937,1.937,0,0,0-1.333.58L62.154,204.937a1.906,1.906,0,0,0,.829,3.159v8.71a4.89,4.89,0,0,0-3.92,3.513c-1.7-.339-5.687-.763-6.19,4.429h-1.6a.545.545,0,0,0,0,1.09h54.877a.545.545,0,0,0,0-1.09Zm-22.093,0H77.021V208.859h7.032Zm0-16.98H77.021a1.092,1.092,0,0,0-1.09,1.09v15.889H64.074V208.113a1.962,1.962,0,0,0,.828-.527l11.345-11.761,11.344,11.761h0a1.911,1.911,0,0,0,.827.516l-.053,16.646H85.144V208.859a1.092,1.092,0,0,0-1.09-1.09Zm5.455.342,13.753.11v16.528H89.455Zm7.635-18.124v11.45H94.532v-11.45a1.625,1.625,0,0,0-.1-.545H96.6a.546.546,0,0,1,.545.545Zm-9.154,0a.546.546,0,0,1,.545-.545H92.9a.546.546,0,0,1,.545.545v10.679l-5.293-5.293a.541.541,0,0,1-.16-.385Zm-.611,6.157,6.223,6.223a.545.545,0,0,0,.386.16h3.7a.545.545,0,0,0,.545-.545v-3.167l6.105,6.47a1.09,1.09,0,0,1-.782,1.847h-.005l-12.835-.1a1.8,1.8,0,0,0-.378-2.093L78.109,192.258H86.9v2.729a1.625,1.625,0,0,0,.479,1.157Zm-24.439,9.55,12.718-13.185a.831.831,0,0,1,1.178,0l12.718,13.185a.818.818,0,0,1-1.178,1.135L76.639,194.661a.545.545,0,0,0-.785,0L64.117,206.829a.818.818,0,0,1-1.178-1.135Zm-3.571,15.812a.545.545,0,0,0,.675-.471,3.746,3.746,0,0,1,2.94-3.113v6.826H53.968c.4-3.685,2.8-3.895,5.4-3.242Z" transform="translate(-50.728 -169.091)" fill="#fff"/>
      <path id="Path_1184" data-name="Path 1184" d="M346.662,108.074a.548.548,0,0,0,.577.239c12.356-2.73,7.734-10.239,3.374-8.962C348.434,95.366,339.857,97.41,346.662,108.074Zm3.151-7.85a.547.547,0,0,0,.749.31c3.047-1.454,7.429,4.131-3.184,6.629C341.641,97.9,348.686,97.039,349.814,100.225Z" transform="translate(-304.099 -90.589)" fill="#fff"/>
      <path id="Path_1185" data-name="Path 1185" d="M299.136,55.891a.545.545,0,0,0,.625,0c8.736-6.108,2.764-10.558-.312-8.2C296.374,45.335,290.4,49.782,299.136,55.891Zm-.093-7.1a.546.546,0,0,0,.81,0c1.815-2.017,6.795.768-.405,5.979C292.25,49.565,297.229,46.781,299.043,48.8Z" transform="translate(-261.342 -47.049)" fill="#fff"/>
    </g>
    <g id="forest" transform="translate(0 70.32)">
      <path id="Path_1186" data-name="Path 1186" d="M44.95,54.586h-.224a5.659,5.659,0,0,0-5.2-5.27v-6.5a6.233,6.233,0,0,0,4.636,1.842c.248,0,.4-.013.406-.014a.442.442,0,0,0-.084-.881c-.155.014-3.814.316-4.958-2.663V37.978a5.757,5.757,0,0,0,4.053,1.57c.1,0,.164,0,.169,0a.443.443,0,0,0-.055-.883c-.132.006-3.2.159-4.167-2.334V34.016a5.022,5.022,0,0,0,3.237,1.254h.006a.443.443,0,0,0,0-.885h0c-.1.018-2.484-.021-3.239-1.945V29.88a4.333,4.333,0,0,0,2.16.933l.046,0a.442.442,0,0,0,.045-.883A2.884,2.884,0,0,1,39.5,28.346s0-.006-.006-.009,0-.012-.007-.018a71.133,71.133,0,0,0-.086-.128l-.011-.011a.446.446,0,0,0-.06-.04.44.44,0,0,0-.067-.045l-.018-.007-.009-.006a.42.42,0,0,0-.062-.009.429.429,0,0,0-.08-.015l-.011,0-.011,0a.431.431,0,0,0-.077.015.418.418,0,0,0-.064.01l-.009.006-.019.007a.442.442,0,0,0-.062.042l-.005,0a.449.449,0,0,0-.059.04l-.011.011a.444.444,0,0,0-.038.057l0,0a.44.44,0,0,0-.045.067c0,.006,0,.012-.007.018s0,.006-.006.009a2.908,2.908,0,0,1-2.279,1.587.443.443,0,0,0,.046.883l.046,0a4.333,4.333,0,0,0,2.16-.933v2.56c-.753,1.917-3.123,1.945-3.238,1.945h0a.443.443,0,0,0,0,.885h.006a5.023,5.023,0,0,0,3.237-1.254v2.311c-.965,2.493-4.038,2.339-4.167,2.334a.443.443,0,0,0-.055.883s.065,0,.169,0a5.757,5.757,0,0,0,4.053-1.57V41.1c-1.144,2.98-4.8,2.678-4.958,2.663a.442.442,0,0,0-.084.881c.008,0,.158.014.406.014a6.234,6.234,0,0,0,4.637-1.842v6.5a5.659,5.659,0,0,0-5.2,5.27H27.69V47.46a5.642,5.642,0,0,0,4.058,1.554c.221,0,.355-.012.362-.013a.442.442,0,0,0-.084-.881c-.137.012-3.333.275-4.335-2.319V43.174a5,5,0,0,0,3.435,1.321c.091,0,.177,0,.257-.008a.443.443,0,0,0-.056-.883c-.028,0-2.786.147-3.636-2.027V39.27a4.549,4.549,0,0,0,2.816,1.04h.006a.443.443,0,0,0,0-.885h0a3.121,3.121,0,0,1-2.818-1.682V35.6a3.929,3.929,0,0,0,1.857.767l.046,0a.443.443,0,0,0,.045-.883,2.5,2.5,0,0,1-1.975-1.372s0-.006-.006-.009,0-.012-.007-.018a.441.441,0,0,0-.045-.067.446.446,0,0,0-.041-.061l-.01-.01a.447.447,0,0,0-.057-.038.441.441,0,0,0-.071-.048l-.017-.006-.009-.006a.422.422,0,0,0-.059-.009.428.428,0,0,0-.083-.016l-.01,0-.011,0a.429.429,0,0,0-.078.015.42.42,0,0,0-.063.01l-.009.006-.018.007A.439.439,0,0,0,27,33.9a.448.448,0,0,0-.06.04l-.011.011a246.335,246.335,0,0,0-.086.127l-.007.018s0,.006-.006.009a2.523,2.523,0,0,1-1.976,1.372.443.443,0,0,0,.046.883l.046,0A3.929,3.929,0,0,0,26.8,35.6v2.147a3.121,3.121,0,0,1-2.818,1.682h0a.443.443,0,0,0,0,.885h.006A4.549,4.549,0,0,0,26.8,39.27v2.307c-.844,2.163-3.522,2.034-3.637,2.026a.443.443,0,0,0-.055.883c.08.005.166.008.257.008A5,5,0,0,0,26.8,43.174V45.8c-1,2.593-4.2,2.331-4.335,2.319a.442.442,0,0,0-.084.881c.007,0,.141.013.362.013A5.641,5.641,0,0,0,26.8,47.46v7.125h-.915a3.463,3.463,0,0,0-6.408-1.339,4.263,4.263,0,0,0-3.453-2.527V43.571a5.643,5.643,0,0,0,4.058,1.554c.221,0,.354-.012.361-.013a.442.442,0,1,0-.085-.881c-.035,0-3.327.286-4.335-2.319V39.284a5,5,0,0,0,3.435,1.321c.091,0,.177,0,.257-.008a.443.443,0,0,0-.055-.883c-.116.006-2.792.137-3.637-2.027V35.381a4.549,4.549,0,0,0,2.816,1.04h.006a.443.443,0,0,0,0-.885h0a3.121,3.121,0,0,1-2.818-1.682V31.707a3.929,3.929,0,0,0,1.857.767l.046,0a.443.443,0,0,0,.045-.883A2.5,2.5,0,0,1,16,30.221s0-.006-.006-.009l-.007-.018a1386.92,1386.92,0,0,0-.086-.128l-.011-.01a.451.451,0,0,0-.058-.039.443.443,0,0,0-.07-.047l-.018-.007-.009-.006a.419.419,0,0,0-.06-.009.43.43,0,0,0-.081-.016l-.011,0-.011,0a.429.429,0,0,0-.076.015.419.419,0,0,0-.065.01l-.009.006-.018.007a.442.442,0,0,0-.063.042l0,0a.447.447,0,0,0-.061.041l-.011.011a.443.443,0,0,0-.039.058h0a.442.442,0,0,0-.046.069c0,.006,0,.012-.007.018s0,.006-.006.009a2.523,2.523,0,0,1-1.976,1.372.443.443,0,0,0,.046.883l.046,0a3.929,3.929,0,0,0,1.857-.767v2.147a3.121,3.121,0,0,1-2.817,1.682h0a.443.443,0,0,0,0,.885h.006a4.549,4.549,0,0,0,2.816-1.04v2.307c-.844,2.164-3.522,2.034-3.636,2.027a.443.443,0,0,0-.055.883c.08.005.166.008.257.008a5,5,0,0,0,3.435-1.321v2.629c-1,2.593-4.2,2.33-4.335,2.319a.442.442,0,0,0-.084.881c.007,0,.14.013.361.013a5.643,5.643,0,0,0,4.058-1.554V50.72a4.26,4.26,0,0,0-3.793,3.866h-.932a.443.443,0,0,0,0,.885h9.007a.442.442,0,0,0,.443-.443,2.583,2.583,0,0,1,5.167,0,.442.442,0,0,0,.443.443H44.95a.443.443,0,0,0,0-.885Zm-29.364-3a3.373,3.373,0,0,1,3.348,3h-6.7a3.373,3.373,0,0,1,3.348-3Zm23.5-1.4a4.776,4.776,0,0,1,4.754,4.408H34.333a4.776,4.776,0,0,1,4.754-4.408Z" transform="translate(-9.977 -20.065)" fill="#fff"/>
      <path id="Path_1187" data-name="Path 1187" d="M10.419,17.816h1.294v1.278a.443.443,0,0,0,.885,0V17.816h1.294a.443.443,0,0,0,0-.885H12.6V15.653a.443.443,0,0,0-.885,0v1.278H10.419a.443.443,0,0,0,0,.885Z" transform="translate(-9.977 -12.904)" fill="#fff"/>
      <path id="Path_1188" data-name="Path 1188" d="M61.433,13.883V12.606h1.294a.443.443,0,0,0,0-.885H61.433V10.443a.443.443,0,0,0-.885,0v1.278H59.254a.443.443,0,0,0,0,.885h1.293v1.278a.443.443,0,0,0,.885,0Z" transform="translate(-37.198 -10)" fill="#fff"/>
      <path id="Path_1189" data-name="Path 1189" d="M34.882,10a.442.442,0,0,0-.443.443v1.278H33.146a.443.443,0,1,0,0,.885h1.294v1.278a.443.443,0,1,0,.885,0V12.606h1.293a.443.443,0,0,0,0-.885H35.324V10.443A.442.442,0,0,0,34.882,10Z" transform="translate(-22.645 -10)" fill="#fff"/>
      <path id="Path_1190" data-name="Path 1190" d="M35.422,30.612a.442.442,0,0,0,.443-.443V28.892h1.293a.443.443,0,1,0,0-.885H35.864V26.729a.443.443,0,0,0-.885,0v1.278H33.686a.443.443,0,1,0,0,.885h1.294V30.17A.442.442,0,0,0,35.422,30.612Z" transform="translate(-22.946 -19.078)" fill="#fff"/>
      <path id="Path_1191" data-name="Path 1191" d="M55.534,33.8a.442.442,0,0,0,.443-.443V32.077H57.27a.443.443,0,0,0,0-.885H55.977V29.914a.443.443,0,0,0-.885,0v1.278H53.8a.443.443,0,0,0,0,.885h1.294v1.278A.442.442,0,0,0,55.534,33.8Z" transform="translate(-34.157 -20.854)" fill="#fff"/>
      <path id="Path_1192" data-name="Path 1192" d="M82.33,21.236a.442.442,0,0,0,.443-.443V19.516h1.293a.443.443,0,1,0,0-.885H82.772V17.353a.443.443,0,1,0-.885,0V18.63H80.593a.443.443,0,0,0,0,.885h1.294v1.278A.442.442,0,0,0,82.33,21.236Z" transform="translate(-49.093 -13.852)" fill="#fff"/>
    </g>
    <g id="sun" transform="translate(41.199 48.978)">
      <path id="Path_1193" data-name="Path 1193" d="M325.2,96.6a.33.33,0,0,0-.451-.119l-1.61.931a.33.33,0,1,0,.331.57l1.61-.931A.33.33,0,0,0,325.2,96.6Z" transform="translate(-308.319 -92.046)" fill="#fff"/>
      <path id="Path_1194" data-name="Path 1194" d="M325.083,268.733l-1.61-.931a.33.33,0,0,0-.332.57l1.61.931a.33.33,0,1,0,.332-.57Z" transform="translate(-308.319 -255.564)" fill="#fff"/>
      <path id="Path_1195" data-name="Path 1195" d="M192.636,342.6a.331.331,0,0,0-.355.306.325.325,0,0,0,0,.049v1.86a.332.332,0,1,0,.661,0v-1.86A.332.332,0,0,0,192.636,342.6Z" transform="translate(-183.573 -326.998)" fill="#fff"/>
      <path id="Path_1196" data-name="Path 1196" d="M28.363,97.413l-1.61-.931a.33.33,0,1,0-.332.57l1.61.931a.33.33,0,1,0,.332-.57Z" transform="translate(-25.111 -92.046)" fill="#fff"/>
      <path id="Path_1197" data-name="Path 1197" d="M192.636,0a.331.331,0,0,0-.355.306.325.325,0,0,0,0,.049v1.86a.331.331,0,1,0,.661,0V.356A.332.332,0,0,0,192.636,0Z" transform="translate(-183.573 0)" fill="#fff"/>
      <path id="Path_1198" data-name="Path 1198" d="M97.982,28.032l-.929-1.61a.33.33,0,1,0-.57.332l.929,1.61a.33.33,0,1,0,.57-.332Z" transform="translate(-92.095 -25.062)" fill="#fff"/>
      <path id="Path_1199" data-name="Path 1199" d="M137.931,134.921a.329.329,0,0,0-.049,0,2.942,2.942,0,0,0-2.942,2.942.331.331,0,1,0,.661,0,2.279,2.279,0,0,1,2.277-2.281h0a.332.332,0,0,0,.049-.661Z" transform="translate(-128.844 -128.776)" fill="#fff"/>
      <path id="Path_1200" data-name="Path 1200" d="M345.122,192.546a.331.331,0,0,0-.306-.306h-1.86a.332.332,0,0,0-.049.661.326.326,0,0,0,.049,0h1.86A.331.331,0,0,0,345.122,192.546Z" transform="translate(-327.047 -183.484)" fill="#fff"/>
      <path id="Path_1201" data-name="Path 1201" d="M3.295,192.281a.325.325,0,0,0-.049,0H1.386a.332.332,0,0,0,0,.661h1.86a.332.332,0,1,0,.049-.661Z" transform="translate(-1.079 -183.524)" fill="#fff"/>
      <path id="Path_1202" data-name="Path 1202" d="M97.58,92.7a4.865,4.865,0,1,0,4.865,4.866A4.865,4.865,0,0,0,97.58,92.7Zm2.971,7.844a4.206,4.206,0,0,1-5.945-5.951V94.6a4.2,4.2,0,1,1,5.945,5.945Z" transform="translate(-88.541 -88.479)" fill="#fff"/>
      <path id="Path_1203" data-name="Path 1203" d="M269.263,324.753h0l-.931-1.61a.33.33,0,0,0-.57.332l.931,1.61a.33.33,0,0,0,.571-.33Z" transform="translate(-255.574 -308.27)" fill="#fff"/>
      <path id="Path_1204" data-name="Path 1204" d="M269.37,26.3a.33.33,0,0,0-.451.119l-.931,1.61a.33.33,0,0,0,.117.451h0a.33.33,0,0,0,.451-.119h0l.931-1.61A.33.33,0,0,0,269.37,26.3Z" transform="translate(-255.791 -25.062)" fill="#fff"/>
      <path id="Path_1205" data-name="Path 1205" d="M97.864,323.022a.33.33,0,0,0-.451.119l-.931,1.61a.33.33,0,1,0,.57.332l.931-1.61A.33.33,0,0,0,97.864,323.022Z" transform="translate(-92.095 -308.27)" fill="#fff"/>
      <path id="Path_1206" data-name="Path 1206" d="M28.483,267.882a.33.33,0,0,0-.451-.119l-1.61.931a.33.33,0,1,0,.332.57l1.61-.931A.33.33,0,0,0,28.483,267.882Z" transform="translate(-25.111 -255.526)" fill="#fff"/>
    </g>
  </g>
</svg>