<svg xmlns="http://www.w3.org/2000/svg" width="55.173" height="34.686" viewBox="0 0 55.173 34.686">
  <g id="Group_299" data-name="Group 299" transform="translate(0 -21.314)">
    <g id="house_home_love_architecture" data-name="house, home, love, architecture" transform="translate(20.969 21.314)">
      <path id="Path_1181" data-name="Path 1181" d="M369.527,348.615v2.168a1,1,0,0,0,1,1h1.637a1,1,0,0,0,1-1v-2.232A1.819,1.819,0,1,0,369.527,348.615Zm2.97,2.168a.334.334,0,0,1-.333.333h-1.637a.334.334,0,0,1-.333-.333v-2.168a1.153,1.153,0,1,1,2.3-.064Z" transform="translate(-342.967 -321.777)" fill="#f6bac5"/>
      <path id="Path_1182" data-name="Path 1182" d="M164.593,348.615v2.168a1,1,0,0,0,1,1h1.637a1,1,0,0,0,1-1v-2.232A1.819,1.819,0,1,0,164.593,348.615Zm2.97,2.168a.334.334,0,0,1-.333.333h-1.637a.334.334,0,0,1-.333-.333v-2.168a1.153,1.153,0,1,1,2.3-.064Z" transform="translate(-155.106 -321.777)" fill="#f6bac5"/>
      <circle id="circle" cx="0.5" cy="0.5" r="0.5" transform="translate(18.938 28.664)" fill="#f6bac5"/>
      <path id="Path_1183" data-name="Path 1183" d="M84.6,210.6H83.5v-10.19a1.335,1.335,0,0,0,.474-2.166l-4.214-4.466V189.35a1,1,0,0,0-1-1H73.837a1,1,0,0,0-1,1v.722H66.3v0a1.184,1.184,0,0,0-.815.355l-7.774,8.059a1.165,1.165,0,0,0,.507,1.931v5.324a2.989,2.989,0,0,0-2.4,2.148c-1.04-.207-3.476-.466-3.783,2.707h-.981a.333.333,0,0,0,0,.667H84.6a.333.333,0,0,0,0-.667Zm-13.5,0H66.8v-9.712h4.3Zm0-10.379H66.8a.667.667,0,0,0-.667.667V210.6H58.885V200.43a1.2,1.2,0,0,0,.506-.322l6.934-7.189,6.934,7.189h0a1.168,1.168,0,0,0,.505.315L73.733,210.6H71.764v-9.712a.667.667,0,0,0-.667-.667Zm3.334.209,8.406.067v10.1H74.4ZM79.1,189.35v7H77.5v-7a.993.993,0,0,0-.058-.333h1.321A.334.334,0,0,1,79.1,189.35Zm-5.595,0a.334.334,0,0,1,.333-.333H76.5a.334.334,0,0,1,.333.333v6.527L73.6,192.642a.331.331,0,0,1-.1-.236Zm-.374,3.763,3.8,3.8a.333.333,0,0,0,.236.1h2.262a.333.333,0,0,0,.333-.333v-1.935L83.5,198.7a.666.666,0,0,1-.478,1.129h0l-7.845-.063a1.1,1.1,0,0,0-.231-1.279l-7.475-7.749h5.372v1.668A.993.993,0,0,0,73.13,193.114Zm-14.938,5.837,7.774-8.059a.508.508,0,0,1,.72,0l7.774,8.059a.5.5,0,0,1-.72.694l-7.174-7.437a.333.333,0,0,0-.48,0l-7.174,7.437a.5.5,0,0,1-.72-.694Zm-2.183,9.665a.333.333,0,0,0,.412-.288,2.29,2.29,0,0,1,1.8-1.9V210.6H52.708c.243-2.253,1.709-2.381,3.3-1.982Z" transform="translate(-50.728 -176.578)" fill="#f6bac5"/>
      <path id="Path_1184" data-name="Path 1184" d="M345.66,103.948a.335.335,0,0,0,.353.146c7.552-1.668,4.727-6.258,2.062-5.478C346.743,96.18,341.5,97.43,345.66,103.948Zm1.926-4.8a.334.334,0,0,0,.458.19c1.862-.889,4.541,2.525-1.946,4.052C342.591,97.727,346.9,97.2,347.586,99.15Z" transform="translate(-319.644 -93.26)" fill="#f6bac5"/>
      <path id="Path_1185" data-name="Path 1185" d="M297.365,52.454a.333.333,0,0,0,.382,0c5.34-3.733,1.689-6.453-.191-5.012C295.677,46,292.023,48.719,297.365,52.454Zm-.057-4.337a.334.334,0,0,0,.5,0c1.109-1.233,4.153.469-.248,3.655C293.156,48.587,296.2,46.885,297.308,48.117Z" transform="translate(-274.264 -47.049)" fill="#f6bac5"/>
    </g>
    <g id="forest" transform="translate(0 34.359)">
      <path id="Path_1186" data-name="Path 1186" d="M31.354,44.272h-.137A3.459,3.459,0,0,0,28.04,41.05V37.077A3.81,3.81,0,0,0,30.874,38.2c.152,0,.243-.008.248-.008a.27.27,0,0,0-.052-.538c-.095.008-2.331.193-3.03-1.628V34.121a3.519,3.519,0,0,0,2.477.96c.064,0,.1,0,.1,0a.271.271,0,0,0-.034-.54,2.617,2.617,0,0,1-2.547-1.426V31.7a3.069,3.069,0,0,0,1.978.766h0a.271.271,0,0,0,0-.541h0a2.162,2.162,0,0,1-1.98-1.189V29.171a2.648,2.648,0,0,0,1.32.57l.028,0a.27.27,0,0,0,.028-.539,1.763,1.763,0,0,1-1.392-.97l0-.006,0-.011a40.073,40.073,0,0,0-.053-.078l-.006-.006a.273.273,0,0,0-.037-.025.269.269,0,0,0-.041-.028l-.011,0-.006,0a.257.257,0,0,0-.038-.006.262.262,0,0,0-.049-.009h-.013a.263.263,0,0,0-.047.009.256.256,0,0,0-.039.006l-.006,0-.011,0a.27.27,0,0,0-.038.026l0,0a.274.274,0,0,0-.036.024l-.007.007a.272.272,0,0,0-.023.035v0a.269.269,0,0,0-.028.041l0,.011,0,.005a1.777,1.777,0,0,1-1.393.97.27.27,0,0,0,.028.539l.028,0a2.649,2.649,0,0,0,1.32-.57v1.565a2.185,2.185,0,0,1-1.979,1.189h0a.271.271,0,0,0,0,.541h0A3.07,3.07,0,0,0,27.5,31.7v1.413a2.619,2.619,0,0,1-2.547,1.426.271.271,0,0,0-.034.54s.04,0,.1,0a3.519,3.519,0,0,0,2.477-.96v1.908c-.7,1.821-2.935,1.637-3.03,1.628a.27.27,0,0,0-.052.538c.005,0,.1.008.248.008A3.811,3.811,0,0,0,27.5,37.077V41.05a3.459,3.459,0,0,0-3.177,3.221H20.8V39.916a3.448,3.448,0,0,0,2.48.95c.135,0,.217-.007.221-.008a.27.27,0,0,0-.052-.538c-.084.008-2.037.168-2.65-1.417V37.3a3.057,3.057,0,0,0,2.1.807c.055,0,.108,0,.157,0a.271.271,0,1,0-.034-.54A2.319,2.319,0,0,1,20.8,36.32V34.91a2.781,2.781,0,0,0,1.721.636h0a.271.271,0,0,0,0-.541h0A1.908,1.908,0,0,1,20.8,33.977V32.664a2.4,2.4,0,0,0,1.135.469h.028a.271.271,0,0,0,.028-.54,1.527,1.527,0,0,1-1.207-.838l0-.006,0-.011a.269.269,0,0,0-.028-.041.272.272,0,0,0-.025-.037l-.006-.006a.274.274,0,0,0-.035-.024.269.269,0,0,0-.044-.029l-.01,0-.006,0a.257.257,0,0,0-.036-.005.261.261,0,0,0-.051-.01h-.013a.262.262,0,0,0-.048.009.256.256,0,0,0-.038.006l-.006,0-.011,0a.268.268,0,0,0-.041.028.273.273,0,0,0-.037.025l-.006.006a156.544,156.544,0,0,0-.053.078l0,.011,0,.006a1.542,1.542,0,0,1-1.208.839.27.27,0,0,0,.028.539h.028a2.4,2.4,0,0,0,1.135-.469v1.312A1.908,1.908,0,0,1,18.54,35h0a.271.271,0,0,0,0,.541h0a2.781,2.781,0,0,0,1.721-.636v1.41a2.288,2.288,0,0,1-2.223,1.239.271.271,0,0,0-.034.54c.049,0,.1,0,.157,0a3.057,3.057,0,0,0,2.1-.807V38.9c-.613,1.585-2.566,1.425-2.65,1.417a.27.27,0,0,0-.052.538s.086.008.221.008a3.448,3.448,0,0,0,2.48-.95v4.355H19.7a2.116,2.116,0,0,0-3.917-.818,2.605,2.605,0,0,0-2.11-1.545v-4.37a3.449,3.449,0,0,0,2.481.95c.135,0,.216-.007.221-.008a.27.27,0,1,0-.052-.538c-.021,0-2.033.175-2.65-1.418V34.919a3.057,3.057,0,0,0,2.1.808c.055,0,.108,0,.157,0a.271.271,0,0,0-.034-.54,2.289,2.289,0,0,1-2.223-1.239v-1.41a2.781,2.781,0,0,0,1.721.636h0a.271.271,0,0,0,0-.541h0A1.908,1.908,0,0,1,13.676,31.6V30.287a2.4,2.4,0,0,0,1.135.469h.028a.271.271,0,0,0,.028-.54,1.527,1.527,0,0,1-1.207-.838l0-.006,0-.011a920.246,920.246,0,0,0-.053-.078l-.006-.006a.276.276,0,0,0-.035-.024.271.271,0,0,0-.043-.029l-.011,0-.006,0a.256.256,0,0,0-.037-.006.263.263,0,0,0-.05-.01H13.4a.263.263,0,0,0-.047.009.257.257,0,0,0-.04.006l-.006,0-.011,0a.27.27,0,0,0-.038.026h0a.273.273,0,0,0-.037.025l-.007.007a.27.27,0,0,0-.024.035h0a.27.27,0,0,0-.028.042l0,.011,0,.005a1.542,1.542,0,0,1-1.208.839.27.27,0,0,0,.028.539H12a2.4,2.4,0,0,0,1.135-.469V31.6a1.908,1.908,0,0,1-1.722,1.028h0a.271.271,0,0,0,0,.541h0a2.78,2.78,0,0,0,1.721-.635v1.41a2.288,2.288,0,0,1-2.223,1.239.271.271,0,0,0-.034.54c.049,0,.1,0,.157,0a3.057,3.057,0,0,0,2.1-.808v1.607c-.613,1.585-2.566,1.424-2.65,1.417a.27.27,0,0,0-.051.538s.086.008.221.008a3.449,3.449,0,0,0,2.48-.95v4.37a2.6,2.6,0,0,0-2.318,2.363h-.57a.271.271,0,0,0,0,.541h5.506a.27.27,0,0,0,.271-.271,1.579,1.579,0,0,1,3.158,0,.27.27,0,0,0,.271.271h11.9a.271.271,0,1,0,0-.541ZM13.406,42.436a2.062,2.062,0,0,1,2.047,1.836H11.359a2.062,2.062,0,0,1,2.046-1.836Zm14.364-.858a2.919,2.919,0,0,1,2.906,2.694H24.864a2.919,2.919,0,0,1,2.906-2.694Z" transform="translate(-9.977 -23.171)" fill="#f6bac5"/>
      <path id="Path_1187" data-name="Path 1187" d="M10.247,16.8h.791v.781a.271.271,0,0,0,.541,0V16.8h.791a.271.271,0,1,0,0-.541h-.791v-.781a.271.271,0,1,0-.541,0v.781h-.791a.271.271,0,1,0,0,.541Z" transform="translate(-9.977 -13.801)" fill="#f6bac5"/>
      <path id="Path_1188" data-name="Path 1188" d="M60.414,12.374v-.781H61.2a.271.271,0,1,0,0-.541h-.791V10.27a.271.271,0,1,0-.541,0v.781h-.791a.271.271,0,0,0,0,.541h.791v.781a.271.271,0,1,0,.541,0Z" transform="translate(-45.601 -10)" fill="#f6bac5"/>
      <path id="Path_1189" data-name="Path 1189" d="M34.035,10a.27.27,0,0,0-.271.271v.781h-.791a.271.271,0,0,0,0,.541h.791v.781a.271.271,0,1,0,.541,0v-.781H35.1a.271.271,0,1,0,0-.541h-.791v-.781A.27.27,0,0,0,34.035,10Z" transform="translate(-26.555 -10)" fill="#f6bac5"/>
      <path id="Path_1190" data-name="Path 1190" d="M34.575,28.931a.27.27,0,0,0,.271-.271v-.781h.791a.271.271,0,0,0,0-.541h-.791v-.781a.271.271,0,1,0-.541,0v.781h-.791a.271.271,0,0,0,0,.541H34.3v.781A.27.27,0,0,0,34.575,28.931Z" transform="translate(-26.949 -21.88)" fill="#f6bac5"/>
      <path id="Path_1191" data-name="Path 1191" d="M54.687,32.116a.27.27,0,0,0,.271-.271v-.781h.791a.271.271,0,1,0,0-.541h-.791v-.781a.271.271,0,0,0-.541,0v.781h-.791a.271.271,0,0,0,0,.541h.791v.781A.27.27,0,0,0,54.687,32.116Z" transform="translate(-41.621 -24.204)" fill="#f6bac5"/>
      <path id="Path_1192" data-name="Path 1192" d="M81.483,19.554a.27.27,0,0,0,.271-.271V18.5h.791a.271.271,0,1,0,0-.541h-.791v-.781a.271.271,0,1,0-.541,0v.781h-.791a.271.271,0,0,0,0,.541h.791v.781A.27.27,0,0,0,81.483,19.554Z" transform="translate(-61.167 -15.041)" fill="#f6bac5"/>
    </g>
  </g>
</svg>
