<svg xmlns="http://www.w3.org/2000/svg" width="136.564" height="127.064" viewBox="0 0 136.564 127.064">
  <g id="Group_298" data-name="Group 298" transform="translate(-967.301 -509)">
    <g id="house_home_love_architecture" data-name="house, home, love, architecture" transform="translate(965.293 510.951)">
      <path id="Path_1181" data-name="Path 1181" d="M369.527,350.954v4.879a2.253,2.253,0,0,0,2.25,2.25h3.685a2.253,2.253,0,0,0,2.25-2.25V350.81c0-5.4-8.185-5.488-8.185.144Zm6.685,4.879a.751.751,0,0,1-.75.75h-3.685a.751.751,0,0,1-.75-.75v-4.879a2.594,2.594,0,1,1,5.185-.144Z" transform="translate(-259.022 -243.502)" fill="#f6bac5"/>
      <path id="Path_1182" data-name="Path 1182" d="M164.593,350.954v4.879a2.253,2.253,0,0,0,2.25,2.25h3.685a2.253,2.253,0,0,0,2.25-2.25V350.81c0-5.4-8.185-5.488-8.185.144Zm6.685,4.879a.751.751,0,0,1-.75.75h-3.685a.751.751,0,0,1-.75-.75v-4.879a2.594,2.594,0,1,1,5.185-.144Z" transform="translate(-92.515 -243.502)" fill="#f6bac5"/>
      <circle id="circle" cx="1.125" cy="1.125" r="1.125" transform="translate(93.349 111.559)" fill="#f6bac5"/>
      <path id="Path_1183" data-name="Path 1183" d="M126.963,238.42H124.5V215.485a3,3,0,0,0,1.067-4.875l-9.484-10.051V190.6a2.253,2.253,0,0,0-2.25-2.25H102.736a2.253,2.253,0,0,0-2.25,2.25v1.625H85.777v0a2.664,2.664,0,0,0-1.834.8l-17.5,18.138a2.622,2.622,0,0,0,1.14,4.346v11.982a6.727,6.727,0,0,0-5.393,4.833c-2.341-.467-7.824-1.049-8.515,6.092H51.472a.75.75,0,0,0,0,1.5h75.491a.75.75,0,0,0,0-1.5Zm-30.392,0H86.9V216.562h9.674Zm0-23.358H86.9a1.5,1.5,0,0,0-1.5,1.5V238.42H69.087V215.536a2.7,2.7,0,0,0,1.139-.725l15.606-16.179,15.605,16.179h0a2.628,2.628,0,0,0,1.137.71l-.073,22.9H98.071V216.562a1.5,1.5,0,0,0-1.5-1.5Zm7.5.471,18.92.151V238.42H104Zm10.5-24.932v15.751h-3.592V190.6a2.235,2.235,0,0,0-.131-.75h2.973a.751.751,0,0,1,.75.75Zm-12.592,0a.751.751,0,0,1,.75-.75h6a.751.751,0,0,1,.75.75v14.69l-7.281-7.281a.745.745,0,0,1-.22-.53Zm-.841,8.47,8.561,8.561a.75.75,0,0,0,.53.22h5.092a.75.75,0,0,0,.75-.75v-4.356l8.4,8.9a1.5,1.5,0,0,1-1.076,2.541h-.007l-17.657-.141a2.478,2.478,0,0,0-.519-2.879L88.395,193.726h12.091v3.754a2.235,2.235,0,0,0,.659,1.591ZM67.526,212.208l17.5-18.138a1.143,1.143,0,0,1,1.621,0l17.5,18.138a1.125,1.125,0,0,1-1.62,1.562L86.372,197.031a.75.75,0,0,0-1.08,0L69.147,213.77a1.125,1.125,0,0,1-1.62-1.562ZM62.614,233.96a.75.75,0,0,0,.928-.648,5.153,5.153,0,0,1,4.044-4.282v9.391h-12.4c.547-5.069,3.847-5.358,7.43-4.46Z" transform="translate(0 -114.807)" fill="#f6bac5"/>
      <path id="Path_1184" data-name="Path 1184" d="M347.631,112.062a.753.753,0,0,0,.794.329c17-3.755,10.639-14.085,4.641-12.328C350.067,94.579,338.269,97.391,347.631,112.062Zm4.335-10.8a.753.753,0,0,0,1.03.427c4.191-2,10.22,5.683-4.381,9.119C340.724,98.06,350.414,96.88,351.965,101.263Z" transform="translate(-238.351 -40.959)" fill="#f6bac5"/>
      <path id="Path_1185" data-name="Path 1185" d="M300.846,59.212a.75.75,0,0,0,.859,0c12.018-8.4,3.8-14.523-.43-11.279C297.048,44.691,288.825,50.808,300.846,59.212Zm-.128-9.761a.751.751,0,0,0,1.115,0c2.5-2.774,9.347,1.056-.557,8.226C291.374,50.509,298.224,46.68,300.719,49.452Z" transform="translate(-198.129)" fill="#f6bac5"/>
    </g>
    <g id="forest" transform="translate(957.324 577.358)">
      <path id="Path_1186" data-name="Path 1186" d="M58.088,64.551H57.78a7.784,7.784,0,0,0-7.149-7.25V48.36c1.971,2.282,5.11,2.533,6.378,2.533.341,0,.547-.018.558-.019a.609.609,0,0,0-.116-1.212c-.214.019-5.247.435-6.82-3.664V41.705a7.919,7.919,0,0,0,5.576,2.16c.143,0,.226,0,.233,0a.609.609,0,0,0-.076-1.215c-.182.009-4.406.218-5.732-3.21V36.255a6.908,6.908,0,0,0,4.453,1.725h.009a.609.609,0,0,0-.005-1.218h0c-.139.024-3.417-.028-4.456-2.675V30.565A5.96,5.96,0,0,0,53.6,31.849a.574.574,0,0,0,.064,0,.609.609,0,0,0,.062-1.214c-.024,0-2.436-.275-3.134-2.183,0,0-.006-.008-.008-.012s-.006-.017-.009-.025a102.733,102.733,0,0,0-.118-.175l-.014-.015a.614.614,0,0,0-.082-.056.6.6,0,0,0-.093-.062l-.024-.01s-.008-.006-.013-.008a.578.578,0,0,0-.085-.013.59.59,0,0,0-.11-.021c-.005,0-.01,0-.015,0s-.01,0-.015,0a.592.592,0,0,0-.105.02.575.575,0,0,0-.088.013s-.008.006-.013.008l-.026.01a.607.607,0,0,0-.086.058l-.008.005a.617.617,0,0,0-.081.055l-.015.015a.612.612,0,0,0-.053.078l0,0a.6.6,0,0,0-.062.093c0,.008-.006.016-.01.025s-.006.008-.008.012c-.689,1.884-3.087,2.177-3.135,2.183a.609.609,0,0,0,.064,1.214.578.578,0,0,0,.064,0,5.961,5.961,0,0,0,2.971-1.284v3.522c-1.035,2.637-4.3,2.675-4.454,2.675h0a.609.609,0,0,0,0,1.218h.009a6.909,6.909,0,0,0,4.453-1.725v3.179c-1.327,3.429-5.554,3.218-5.732,3.21A.609.609,0,0,0,43.6,43.86c.007,0,.089,0,.233,0a7.92,7.92,0,0,0,5.576-2.16V46c-1.573,4.1-6.606,3.684-6.82,3.664a.609.609,0,0,0-.116,1.212c.011,0,.217.019.558.019,1.268,0,4.407-.251,6.378-2.534V57.3a7.784,7.784,0,0,0-7.149,7.25h-7.92v-9.8a7.761,7.761,0,0,0,5.582,2.138c.3,0,.488-.016.5-.017a.609.609,0,0,0-.116-1.212c-.189.017-4.585.378-5.964-3.19V48.852a6.88,6.88,0,0,0,4.725,1.817c.125,0,.243,0,.353-.011a.609.609,0,0,0-.077-1.215c-.039,0-3.833.2-5-2.788V43.482a6.258,6.258,0,0,0,3.874,1.43h.008a.609.609,0,0,0-.005-1.218h0c-.13,0-2.97-.032-3.876-2.314V38.428A5.405,5.405,0,0,0,36.9,39.483l.064,0a.609.609,0,0,0,.062-1.215,3.437,3.437,0,0,1-2.717-1.887s-.006-.008-.008-.012-.006-.017-.009-.025a.606.606,0,0,0-.062-.092.613.613,0,0,0-.056-.084l-.014-.014a.616.616,0,0,0-.078-.053.606.606,0,0,0-.1-.066l-.023-.009s-.008-.006-.013-.008a.58.58,0,0,0-.081-.012.588.588,0,0,0-.114-.022s-.009,0-.014,0-.01,0-.015,0a.59.59,0,0,0-.108.021.578.578,0,0,0-.087.013s-.008.006-.013.008l-.024.01a.6.6,0,0,0-.093.063.616.616,0,0,0-.082.055l-.014.015a409.47,409.47,0,0,0-.118.175c0,.008-.006.016-.009.025s-.006.008-.008.012a3.471,3.471,0,0,1-2.719,1.888.609.609,0,0,0,.064,1.214l.064,0a5.405,5.405,0,0,0,2.554-1.055v2.954c-.906,2.281-3.746,2.314-3.876,2.314h0a.609.609,0,0,0,0,1.218h.008a6.258,6.258,0,0,0,3.874-1.43v3.174c-1.161,2.975-4.845,2.8-5,2.788a.609.609,0,0,0-.076,1.215c.11.007.229.011.353.011a6.88,6.88,0,0,0,4.725-1.817v3.616c-1.379,3.567-5.775,3.206-5.964,3.19a.609.609,0,0,0-.116,1.212c.01,0,.194.017.5.017a7.76,7.76,0,0,0,5.582-2.138v9.8H31.867a4.763,4.763,0,0,0-8.815-1.842,5.864,5.864,0,0,0-4.75-3.476V49.4a7.763,7.763,0,0,0,5.583,2.138c.3,0,.487-.016.5-.017a.609.609,0,1,0-.117-1.212c-.047,0-4.577.393-5.963-3.19V43.5a6.879,6.879,0,0,0,4.725,1.817c.125,0,.243,0,.353-.011a.609.609,0,0,0-.076-1.215c-.159.008-3.841.189-5-2.788V38.132a6.258,6.258,0,0,0,3.874,1.43h.008a.609.609,0,0,0-.005-1.218h0c-.13,0-2.97-.032-3.876-2.314V33.078a5.405,5.405,0,0,0,2.554,1.055l.064,0a.609.609,0,0,0,.062-1.215,3.437,3.437,0,0,1-2.717-1.887s-.006-.008-.008-.012-.006-.017-.01-.025a2049.659,2049.659,0,0,0-.118-.176l-.015-.014a.621.621,0,0,0-.079-.054.61.61,0,0,0-.1-.065l-.024-.009s-.008-.006-.013-.008a.577.577,0,0,0-.083-.012.591.591,0,0,0-.112-.021c-.005,0-.009,0-.015,0s-.01,0-.015,0a.591.591,0,0,0-.1.02.577.577,0,0,0-.089.013s-.008.006-.013.008l-.025.01a.607.607,0,0,0-.087.058l0,0a.614.614,0,0,0-.083.056l-.015.015a.609.609,0,0,0-.053.079h0a.608.608,0,0,0-.064.094c0,.008-.006.016-.009.025s-.006.008-.008.012A3.47,3.47,0,0,1,14.4,32.922a.609.609,0,0,0,.064,1.214l.064,0a5.4,5.4,0,0,0,2.554-1.055v2.953c-.905,2.281-3.746,2.314-3.876,2.314h0a.609.609,0,0,0,0,1.218h.008a6.258,6.258,0,0,0,3.874-1.43v3.173c-1.161,2.977-4.845,2.8-5,2.788a.609.609,0,0,0-.076,1.215c.11.007.229.011.353.011A6.88,6.88,0,0,0,17.085,43.5v3.617c-1.379,3.567-5.776,3.205-5.964,3.19a.609.609,0,0,0-.116,1.212c.01,0,.193.017.5.017A7.763,7.763,0,0,0,17.085,49.4v9.834a5.86,5.86,0,0,0-5.218,5.318H10.585a.609.609,0,0,0,0,1.218H22.976a.609.609,0,0,0,.609-.609,3.554,3.554,0,0,1,7.108,0,.609.609,0,0,0,.609.609H58.088a.609.609,0,1,0,0-1.218ZM17.694,60.419A4.64,4.64,0,0,1,22.3,64.551H13.088a4.64,4.64,0,0,1,4.606-4.132Zm32.328-1.931a6.57,6.57,0,0,1,6.54,6.063H43.482a6.57,6.57,0,0,1,6.54-6.063Z" transform="translate(0 -7.063)" fill="#f6bac5"/>
      <path id="Path_1187" data-name="Path 1187" d="M10.585,18.795h1.78v1.758a.609.609,0,0,0,1.218,0V18.795h1.78a.609.609,0,1,0,0-1.218h-1.78V15.819a.609.609,0,0,0-1.218,0v1.758h-1.78a.609.609,0,0,0,0,1.218Z" transform="translate(0 -2.038)" fill="#f6bac5"/>
      <path id="Path_1188" data-name="Path 1188" d="M62.417,15.342V13.585H64.2a.609.609,0,0,0,0-1.218h-1.78V10.609a.609.609,0,0,0-1.218,0v1.758H59.42a.609.609,0,1,0,0,1.218H61.2v1.758a.609.609,0,0,0,1.218,0Z" transform="translate(-19.103)" fill="#f6bac5"/>
      <path id="Path_1189" data-name="Path 1189" d="M35.7,10a.609.609,0,0,0-.609.609v1.758h-1.78a.609.609,0,1,0,0,1.218h1.78v1.758a.609.609,0,1,0,1.218,0V13.585h1.779a.609.609,0,0,0,0-1.218H36.309V10.609A.609.609,0,0,0,35.7,10Z" transform="translate(-8.89 0)" fill="#f6bac5"/>
      <path id="Path_1190" data-name="Path 1190" d="M36.24,32.238a.609.609,0,0,0,.609-.609V29.871h1.779a.609.609,0,0,0,0-1.218H36.849V26.895a.609.609,0,1,0-1.218,0v1.758h-1.78a.609.609,0,1,0,0,1.218h1.78v1.758A.609.609,0,0,0,36.24,32.238Z" transform="translate(-9.101 -6.371)" fill="#f6bac5"/>
      <path id="Path_1191" data-name="Path 1191" d="M56.353,35.423a.609.609,0,0,0,.609-.609V33.056h1.779a.609.609,0,1,0,0-1.218H56.961V30.081a.609.609,0,0,0-1.218,0v1.758h-1.78a.609.609,0,1,0,0,1.218h1.78v1.758A.609.609,0,0,0,56.353,35.423Z" transform="translate(-16.969 -7.617)" fill="#f6bac5"/>
      <path id="Path_1192" data-name="Path 1192" d="M83.148,22.861a.609.609,0,0,0,.609-.609V20.494h1.779a.609.609,0,1,0,0-1.218H83.757V17.519a.609.609,0,1,0-1.218,0v1.758H80.76a.609.609,0,1,0,0,1.218h1.78v1.758A.609.609,0,0,0,83.148,22.861Z" transform="translate(-27.45 -2.703)" fill="#f6bac5"/>
    </g>
    <g id="sun" transform="translate(1077.921 509)">
      <path id="Path_1193" data-name="Path 1193" d="M326.039,96.663a.454.454,0,0,0-.62-.164L323.2,97.78a.454.454,0,1,0,.456.784l2.215-1.28A.454.454,0,0,0,326.039,96.663Z" transform="translate(-301.734 -90.397)" fill="#f6bac5"/>
      <path id="Path_1194" data-name="Path 1194" d="M325.874,269.1l-2.215-1.28a.454.454,0,1,0-.456.784l2.215,1.28a.454.454,0,1,0,.456-.784Z" transform="translate(-301.734 -250.984)" fill="#f6bac5"/>
      <path id="Path_1195" data-name="Path 1195" d="M192.77,342.6a.456.456,0,0,0-.489.421.449.449,0,0,0,0,.068v2.558a.456.456,0,1,0,.91,0v-2.558A.456.456,0,0,0,192.77,342.6Z" transform="translate(-179.223 -321.138)" fill="#f6bac5"/>
      <path id="Path_1196" data-name="Path 1196" d="M29.154,97.78,26.939,96.5a.454.454,0,1,0-.456.784l2.215,1.28a.454.454,0,1,0,.456-.784Z" transform="translate(-23.602 -90.397)" fill="#f6bac5"/>
      <path id="Path_1197" data-name="Path 1197" d="M192.77,0a.456.456,0,0,0-.489.421.445.445,0,0,0,0,.068V3.048a.455.455,0,1,0,.91,0V.49A.456.456,0,0,0,192.77,0Z" transform="translate(-179.223)" fill="#f6bac5"/>
      <path id="Path_1198" data-name="Path 1198" d="M98.561,28.7l-1.278-2.215a.454.454,0,1,0-.784.456l1.278,2.215a.454.454,0,1,0,.784-.456Z" transform="translate(-89.385 -24.613)" fill="#f6bac5"/>
      <path id="Path_1199" data-name="Path 1199" d="M139.054,134.921a.454.454,0,0,0-.068,0,4.047,4.047,0,0,0-4.047,4.047.455.455,0,1,0,.91,0,3.135,3.135,0,0,1,3.132-3.137h.005a.456.456,0,0,0,.068-.91Z" transform="translate(-125.476 -126.468)" fill="#f6bac5"/>
      <path id="Path_1200" data-name="Path 1200" d="M346.069,192.661a.456.456,0,0,0-.421-.421h-2.558a.456.456,0,0,0-.068.91.45.45,0,0,0,.068,0h2.558A.456.456,0,0,0,346.069,192.661Z" transform="translate(-320.127 -180.196)" fill="#f6bac5"/>
      <path id="Path_1201" data-name="Path 1201" d="M4.127,192.281a.445.445,0,0,0-.068,0H1.5a.456.456,0,0,0,0,.91H4.059a.456.456,0,1,0,.068-.91Z" transform="translate(0 -180.235)" fill="#f6bac5"/>
      <path id="Path_1202" data-name="Path 1202" d="M99.408,92.7a6.693,6.693,0,1,0,6.692,6.694A6.693,6.693,0,0,0,99.408,92.7Zm4.088,10.79A5.786,5.786,0,0,1,95.317,95.3v.008a5.783,5.783,0,1,1,8.179,8.179Z" transform="translate(-85.895 -86.893)" fill="#f6bac5"/>
      <path id="Path_1203" data-name="Path 1203" d="M269.844,325.42v0l-1.28-2.215a.454.454,0,0,0-.784.456l1.28,2.215a.454.454,0,0,0,.785-.454Z" transform="translate(-249.935 -302.745)" fill="#f6bac5"/>
      <path id="Path_1204" data-name="Path 1204" d="M269.906,26.319a.454.454,0,0,0-.62.164l-1.28,2.215a.454.454,0,0,0,.162.621h0a.454.454,0,0,0,.62-.163v0l1.28-2.215A.454.454,0,0,0,269.906,26.319Z" transform="translate(-250.147 -24.613)" fill="#f6bac5"/>
      <path id="Path_1205" data-name="Path 1205" d="M98.4,323.039a.454.454,0,0,0-.62.164l-1.28,2.215a.454.454,0,0,0,.784.456l1.28-2.215A.454.454,0,0,0,98.4,323.039Z" transform="translate(-89.385 -302.745)" fill="#f6bac5"/>
      <path id="Path_1206" data-name="Path 1206" d="M29.319,267.943a.454.454,0,0,0-.62-.164l-2.215,1.28a.454.454,0,1,0,.456.784l2.215-1.28A.454.454,0,0,0,29.319,267.943Z" transform="translate(-23.602 -250.947)" fill="#f6bac5"/>
    </g>
  </g>
</svg>
