<svg xmlns="http://www.w3.org/2000/svg" width="65.844" height="61.634" viewBox="0 0 65.844 61.634">
  <g id="illusut-district" transform="translate(-2.333 -3.5)">
    <path id="Path_1119" data-name="Path 1119" d="M48.371,41.154V26.773a1.065,1.065,0,0,0-.52-.89,1.447,1.447,0,0,0-1.137-.167L30.07,30.141a1.138,1.138,0,0,0-.9,1.057V42.26h2.561V32.015l14.083-3.744V32.3H40.689v2.213h5.121v2.213H36.849v2.213h8.962v2.213Z" transform="translate(-2.995 -2.717)" fill="#f3a4b2"/>
    <path id="Path_1120" data-name="Path 1120" d="M20.061,14.563H34.144V25.625H36.7V13.456a1.2,1.2,0,0,0-1.28-1.106h-1.28V9.031a1.2,1.2,0,0,0-1.28-1.106h-1.28V4.606A1.2,1.2,0,0,0,30.3,3.5H23.9a1.2,1.2,0,0,0-1.28,1.106V7.925h-1.28a1.2,1.2,0,0,0-1.28,1.106V12.35H18.78a1.2,1.2,0,0,0-1.28,1.106V26.731h2.561Zm5.121-8.85h3.841V7.925H25.182Zm-2.561,4.425h8.962V12.35H22.621Z" transform="translate(-1.693)" fill="#f3a4b2"/>
    <path id="Path_1121" data-name="Path 1121" d="M42.227,11.707l15.364,4.741V26.731h2.561V15.669a1.129,1.129,0,0,0-.85-1.042L56.311,13.7V7.846a1.129,1.129,0,0,0-.85-1.042L52.47,5.881V3.5H49.909V5.091l-2.13-.657a1.451,1.451,0,0,0-1.168.138,1.07,1.07,0,0,0-.543.9v5.068L41.377,9.1a1.451,1.451,0,0,0-1.168.138,1.07,1.07,0,0,0-.543.9V23.413h2.561Zm6.4-4.662,5.121,1.58v4.288l-5.121-1.58Z" transform="translate(-4.345 0)" fill="#f3a4b2"/>
    <path id="Path_1122" data-name="Path 1122" d="M65.983,64.251V30.744a1.059,1.059,0,0,0-1.1-1.015h-1.1V27.7H61.593v2.031H59.4V27.7H57.2v2.031H49.522a1.059,1.059,0,0,0-1.1,1.015v9.138h2.195V31.759H63.788v3.046H53.911v2.031h9.877v2.031H59.4V40.9h4.39v2.031H59.4v2.031h4.39V46.99H59.4V49.02h4.39v2.031H58.3v2.031h5.487v2.031H58.3v2.031h5.487v2.031H58.3v2.031h5.487v3.046H55.009V49.02h1.1a1.059,1.059,0,0,0,1.1-1.015V41.913a.984.984,0,0,0-.366-.757,1.156,1.156,0,0,0-.853-.253L36.232,42.934a1.048,1.048,0,0,0-.976,1.009v4.062a1.059,1.059,0,0,0,1.1,1.015h1.1V64.251H31.963V43.944a1.059,1.059,0,0,0-1.1-1.015H25.379V41.913a3.076,3.076,0,0,0-2.195-2.871V36.836H20.989v2.205a3.076,3.076,0,0,0-2.195,2.871v1.015H17.7a1.059,1.059,0,0,0-1.1,1.015V64.251H6.723V61.205h6.584V59.174H6.723V57.143H12.21V55.113H6.723V53.082H12.21V51.051H6.723V49.02h6.584V46.99H6.723V44.959H12.21V42.928H6.723V40.9H15.5V38.867H6.723V36.836H16.6V34.805H6.723V31.759H20.989v3.046h2.195V30.744a1.059,1.059,0,0,0-1.1-1.015H14.4V27.7H12.21v2.031H10.015V25.667H7.82v4.062H5.626a1.059,1.059,0,0,0-1.1,1.015V64.251H2.333v2.031H68.178V64.251ZM37.45,44.852l17.559-1.805V46.99H37.45Zm2.195,4.168H52.814V64.251H39.645ZM20.989,41.913a1.1,1.1,0,0,1,2.195,0v1.015H20.989Zm-2.195,3.046H29.768V64.251H18.794Z" transform="translate(0 -1.148)" fill="#f3a4b2"/>
    <path id="Path_1123" data-name="Path 1123" d="M45.5,54.833h2.561v2.213H45.5Z" transform="translate(-2.796 -5.464)" fill="#f3a4b2"/>
    <path id="Path_1124" data-name="Path 1124" d="M23.333,17.5h2.561v2.213H23.333Z" transform="translate(-1.36 -1.49)" fill="#f3a4b2"/>
    <path id="Path_1125" data-name="Path 1125" d="M22.167,25.667h2.561v2.213H22.167Z" transform="translate(-1.285 -2.359)" fill="#f3a4b2"/>
    <path id="Path_1126" data-name="Path 1126" d="M28,22.167h2.561v2.213H28Z" transform="translate(-1.662 -1.987)" fill="#f3a4b2"/>
    <path id="Path_1127" data-name="Path 1127" d="M50.167,54.833h2.561v2.213H50.167Z" transform="translate(-3.098 -5.464)" fill="#f3a4b2"/>
    <path id="Path_1128" data-name="Path 1128" d="M45.5,59.5h2.561v2.213H45.5Z" transform="translate(-2.796 -6.535)" fill="#f3a4b2"/>
    <path id="Path_1129" data-name="Path 1129" d="M50.167,59.5h2.561v2.213H50.167Z" transform="translate(-3.098 -6.535)" fill="#f3a4b2"/>
    <path id="Path_1130" data-name="Path 1130" d="M45.5,64.167h2.561v2.213H45.5Z" transform="translate(-2.796 -6.776)" fill="#f3a4b2"/>
    <path id="Path_1131" data-name="Path 1131" d="M50.167,64.167h2.561v2.213H50.167Z" transform="translate(-3.098 -6.776)" fill="#f3a4b2"/>
    <path id="Path_1132" data-name="Path 1132" d="M22.167,51.333h2.561V65.715H22.167Z" transform="translate(-1.285 -6.112)" fill="#f3a4b2"/>
    <path id="Path_1133" data-name="Path 1133" d="M26.833,51.333h2.561V65.715H26.833Z" transform="translate(-1.587 -6.112)" fill="#f3a4b2"/>
    <path id="Path_1134" data-name="Path 1134" d="M44.333,17.5h2.561v2.213H44.333Z" transform="translate(-2.72 -1.49)" fill="#f3a4b2"/>
    <path id="Path_1135" data-name="Path 1135" d="M51.333,19.833h2.561v2.213H51.333Z" transform="translate(-3.174 -1.739)" fill="#f3a4b2"/>
    <path id="Path_1136" data-name="Path 1136" d="M49,25.667h2.561v2.213H49Z" transform="translate(-3.023 -2.359)" fill="#f3a4b2"/>
  </g>
</svg>
