<svg xmlns="http://www.w3.org/2000/svg" width="61.467" height="61.467" viewBox="0 0 61.467 61.467">
  <path id="Path_1146" data-name="Path 1146" d="M60.485,60.485V30.742H58.5V26.777H56.519V20.828H54.536V16.863H52.553v3.966H50.57v5.948H48.588V4.748l-5.948,1.19V2.983H40.656V6.334l-1.983.4V1H36.691V7.127l-1.983.4V2.983H32.725V7.921l-5.948,1.19V14.88H8.931v1.983h1.983V28.85a6.083,6.083,0,0,0-.991-.09c-3.826,0-6.94,3.558-6.94,7.931,0,3.987,2.592,7.288,5.948,7.841v1.292a4.421,4.421,0,0,0-2.974-1.2C3.224,44.622,1,47.29,1,50.57c0,2.873,1.706,5.275,3.966,5.828v4.086H1v1.983H62.467V60.485Zm-43.622-.991a2.975,2.975,0,0,1,5.567-1.46l.307.544L23.8,58.5a2.93,2.93,0,0,1,.94.172l.964.323.3-.971a4.958,4.958,0,0,1,9.077-.925l.62,1.122.93-.882a3.017,3.017,0,0,1,4.08,0l.93.882.62-1.122a4.956,4.956,0,0,1,9.055.86l.279.856.879-.194a4.941,4.941,0,0,1,5.015,1.863H17.055a2.97,2.97,0,0,1-.192-.991ZM58.5,32.725V58.638a7,7,0,0,0-1.983-1.429v-22.5H42.639v19.1A6.954,6.954,0,0,0,41.15,55.2a4.556,4.556,0,0,0-.494-.243V32.725ZM46.6,52.553a6.906,6.906,0,0,0-1.983.3V36.691h3.966v16.15A6.964,6.964,0,0,0,46.6,52.553ZM50.57,36.691h3.966V56.612a6.8,6.8,0,0,0-1.647-.061,6.913,6.913,0,0,0-2.319-2.74Zm-7.931-5.948V28.759h13.88v1.983Zm9.914-7.931h1.983v3.966H52.553ZM46.6,7.167v19.61H40.656v3.966H38.674V54.551A4.939,4.939,0,0,0,36.2,55.2a6.946,6.946,0,0,0-5.455-2.651,7.023,7.023,0,0,0-1.983.285v-42.1ZM12.9,16.863h13.88V53.8a6.884,6.884,0,0,0-2.331,2.765,5.022,5.022,0,0,0-.641-.047,4.94,4.94,0,0,0-8.814,3.963H10.914v-3.6l5.948-6.939v-2.44c3.357-.553,5.948-3.854,5.948-7.841a8.169,8.169,0,0,0-3.588-6.94h1.605V30.742H18.845V32.51a6.182,6.182,0,0,0-2.974-.776c-.171,0-.345.011-.521.028A7.213,7.213,0,0,0,12.9,29.536Zm3.966,19.828a8.872,8.872,0,0,0-.5-2.944c2.5.3,4.467,2.837,4.467,5.919,0,3.281-2.224,5.948-4.957,5.948a4.536,4.536,0,0,1-3.347-1.575A8.006,8.006,0,0,0,16.863,36.691ZM10.914,45.2a6.647,6.647,0,0,0,3.966,2.311v1.7L10.914,53.84ZM4.966,36.691c0-3.281,2.224-5.948,4.957-5.948s4.957,2.668,4.957,5.948c0,2.873-1.706,5.275-3.966,5.828V35.7H8.931v6.82C6.672,41.966,4.966,39.564,4.966,36.691ZM2.983,50.57c0-2.187,1.334-3.966,2.974-3.966s2.974,1.779,2.974,3.966S7.6,54.536,5.957,54.536,2.983,52.757,2.983,50.57ZM6.948,56.4a4.6,4.6,0,0,0,1.983-1.081v5.166H6.948Z" transform="translate(-1 -1)" fill="#f4b3b7"/>
</svg>
