<svg xmlns="http://www.w3.org/2000/svg" width="53.057" height="53.063" viewBox="0 0 53.057 53.063">
  <g id="illust-town" transform="translate(-0.028 0)">
    <path id="Path_1162" data-name="Path 1162" d="M127.99,452.856a30.187,30.187,0,0,0-5.57,4.7.778.778,0,0,0,1.182,1.01,29.345,29.345,0,0,1,5.266-4.425A.778.778,0,0,0,127.99,452.856Z" transform="translate(-109.534 -405.78)" fill="#f3a4b2"/>
    <path id="Path_1163" data-name="Path 1163" d="M236.13,358.464a32.223,32.223,0,0,0-3.6.2,20.159,20.159,0,0,0-.563-1.968c1.365-.055,2.756-.072,4.149-.047a.778.778,0,0,0,.028-1.555c-1.626-.029-3.25,0-4.834.073-.526-.949-1.11-1.4-1.785-1.4-.738,0-1.368.543-1.932,1.684a55.572,55.572,0,0,0-21.82,6.7.779.779,0,0,0,.766,1.353,53.705,53.705,0,0,1,20.415-6.42,21.72,21.72,0,0,0-.719,2.983,27.777,27.777,0,0,0-12.9,8.846.778.778,0,0,0,1.257.915,26.629,26.629,0,0,1,11.476-8.052A3.465,3.465,0,0,0,228.747,365v2.5a.778.778,0,0,0,1.555,0V365c2.313-.534,2.864-2.755,2.533-4.8a30.7,30.7,0,0,1,3.294-.177A.778.778,0,0,0,236.13,358.464Zm-5.828,4.9v-2.4a.778.778,0,0,0-1.555,0v2.4a1.905,1.905,0,0,1-1.126-1.736,16.9,16.9,0,0,1,.672-3.605,13.233,13.233,0,0,1,.531-1.528l.013-.03a3.093,3.093,0,0,1,.688-1.123,5.972,5.972,0,0,1,1.232,2.681,16.9,16.9,0,0,1,.672,3.605,1.906,1.906,0,0,1-1.126,1.736Z" transform="translate(-184.079 -317.09)" fill="#f3a4b2"/>
    <path id="Path_1164" data-name="Path 1164" d="M3.487,371.756c-1.063,0-1.9,1.124-2.64,3.538a18.444,18.444,0,0,0-.819,4.326,3.464,3.464,0,0,0,2.681,3.37v2.5a.778.778,0,0,0,1.555,0v-2.5a3.464,3.464,0,0,0,2.681-3.37,18.443,18.443,0,0,0-.819-4.326C5.388,372.88,4.55,371.756,3.487,371.756Zm.778,9.6v-2.4a.778.778,0,0,0-1.555,0v2.4a1.905,1.905,0,0,1-1.126-1.736,16.9,16.9,0,0,1,.672-3.605,5.971,5.971,0,0,1,1.232-2.681,5.971,5.971,0,0,1,1.232,2.681,16.9,16.9,0,0,1,.672,3.605A1.905,1.905,0,0,1,4.265,381.357Z" transform="translate(0 -333.214)" fill="#f3a4b2"/>
    <path id="Path_1165" data-name="Path 1165" d="M52.535,34.034h-.688V32.012a.778.778,0,0,0-1.555,0v2.022H46.4v-8.7a.787.787,0,0,0-.318-.627l-4.57-3.348a.777.777,0,0,0-.459-.15H37.333V15.537H50.292V28.549a.778.778,0,0,0,1.555,0V14.76a.787.787,0,0,0-.27-.589L44.32,7.912a.778.778,0,0,0-1.016,0l-5.973,5.151V8.321a5.153,5.153,0,0,0-4.289-5V.754a.778.778,0,0,0-1.555,0v2.57a5.154,5.154,0,0,0-4.289,5v5.92L20.778,9.329a.778.778,0,0,0-.945,0l-2.257,1.727a.778.778,0,0,0,.945,1.235l1.784-1.365,5.388,4.122H14.918l.877-.671a.778.778,0,0,0-.945-1.235l-2.7,2.066a.786.786,0,0,0-.305.618v7.6L8.067,19.543a.777.777,0,0,0-1.114,0L1.82,24.8a.785.785,0,0,0-.221.543v8.688h-.59a.778.778,0,0,0,0,1.555l8.508.044a13.718,13.718,0,0,0-.335,2.434,3.464,3.464,0,0,0,2.681,3.37v2.5a.778.778,0,0,0,1.555,0v-2.5a3.464,3.464,0,0,0,2.681-3.37,13.718,13.718,0,0,0-.335-2.434l36.77-.044a.778.778,0,0,0,0-1.555Zm-37.167,0q-.042-.147-.087-.293c-.549-1.794-1.153-2.875-1.863-3.313L13.4,25.342V16.6H27.2v2.146a.785.785,0,0,0,.013.136V34.034ZM32.4,21.209a.789.789,0,0,0-.47.158l-3.162,2.4V15.825a.782.782,0,0,0,0-.086c0-.007,0-.014,0-.022s0-.019,0-.029V9.1h7.023v12.11H32.4ZM28.767,25.72,32.4,22.963,36.03,25.72v8.313h-1.3V31.7a2.373,2.373,0,0,0-4.745,0v2.335h-1.22V25.72Zm4.41,8.313H31.542V31.7a.818.818,0,0,1,1.635,0Zm4.408,0V26.112h7.264v7.922Zm5.664-9.477h-6.18l-2.361-1.793H40.8Zm.564-15.029,5.165,4.454H38.648ZM32.265,4.82a3.491,3.491,0,0,1,3.4,2.707H28.868A3.491,3.491,0,0,1,32.265,4.82ZM7.508,21.2l3.274,3.368H4.222ZM3.154,26.123h8.691v4.319c-.7.445-1.3,1.523-1.843,3.3q-.044.146-.087.293H3.155V26.123ZM13.419,39.8V37.4a.778.778,0,1,0-1.555,0v2.4a1.905,1.905,0,0,1-1.126-1.736,16.9,16.9,0,0,1,.672-3.605,5.969,5.969,0,0,1,1.232-2.68,5.971,5.971,0,0,1,1.232,2.681,16.9,16.9,0,0,1,.672,3.605A1.905,1.905,0,0,1,13.419,39.8Z" transform="translate(-0.204)" fill="#f3a4b2"/>
    <path id="Path_1166" data-name="Path 1166" d="M186.933,180.611a.778.778,0,0,0-.778.778V185.4a.778.778,0,0,0,1.555,0v-4.009A.778.778,0,0,0,186.933,180.611Z" transform="translate(-166.83 -161.886)" fill="#f3a4b2"/>
    <path id="Path_1167" data-name="Path 1167" d="M223.892,180.611a.777.777,0,0,0-.778.778V185.4a.778.778,0,0,0,1.555,0v-4.009A.777.777,0,0,0,223.892,180.611Z" transform="translate(-199.958 -161.886)" fill="#f3a4b2"/>
    <path id="Path_1168" data-name="Path 1168" d="M186.933,254.572a.778.778,0,0,0-.778.778v4.009a.778.778,0,1,0,1.555,0V255.35A.778.778,0,0,0,186.933,254.572Z" transform="translate(-166.83 -228.179)" fill="#f3a4b2"/>
    <path id="Path_1169" data-name="Path 1169" d="M223.892,254.572a.777.777,0,0,0-.778.778v4.009a.778.778,0,1,0,1.555,0V255.35A.778.778,0,0,0,223.892,254.572Z" transform="translate(-199.958 -228.179)" fill="#f3a4b2"/>
    <path id="Path_1170" data-name="Path 1170" d="M149.973,180.611a.778.778,0,0,0-.778.778V185.4a.778.778,0,0,0,1.555,0v-4.009A.778.778,0,0,0,149.973,180.611Z" transform="translate(-133.702 -161.886)" fill="#f3a4b2"/>
    <path id="Path_1171" data-name="Path 1171" d="M149.973,254.572a.778.778,0,0,0-.778.778v4.009a.778.778,0,0,0,1.555,0V255.35A.778.778,0,0,0,149.973,254.572Z" transform="translate(-133.702 -228.179)" fill="#f3a4b2"/>
    <path id="Path_1172" data-name="Path 1172" d="M303.428,249.45a.778.778,0,0,0,0-1.555A.778.778,0,0,0,303.428,249.45Z" transform="translate(-271.272 -222.195)" fill="#f3a4b2"/>
    <path id="Path_1173" data-name="Path 1173" d="M373.972,266.131a.778.778,0,0,0-.778.778v1.3a.778.778,0,0,0,1.555,0v-1.3A.778.778,0,0,0,373.972,266.131Z" transform="translate(-334.478 -238.54)" fill="#f3a4b2"/>
    <path id="Path_1174" data-name="Path 1174" d="M403.212,266.131a.778.778,0,0,0-.778.778v1.3a.778.778,0,1,0,1.555,0v-1.3A.778.778,0,0,0,403.212,266.131Z" transform="translate(-360.687 -238.54)" fill="#f3a4b2"/>
    <path id="Path_1175" data-name="Path 1175" d="M292.568,117.1a1.9,1.9,0,0,0-1.9,1.9v3.113a.777.777,0,0,0,.778.778h2.249a.777.777,0,0,0,.778-.778V119A1.9,1.9,0,0,0,292.568,117.1Zm.347,4.237h-.694V119a.347.347,0,0,1,.694,0v2.335Z" transform="translate(-260.506 -104.96)" fill="#f3a4b2"/>
    <path id="Path_1176" data-name="Path 1176" d="M82.43,275.974v-2.181a.778.778,0,1,0-1.555,0v2.181a.778.778,0,1,0,1.555,0Z" transform="translate(-72.465 -244.711)" fill="#f3a4b2"/>
    <path id="Path_1177" data-name="Path 1177" d="M45.349,273.016a.778.778,0,0,0-.778.778v2.181a.778.778,0,1,0,1.555,0v-2.181A.778.778,0,0,0,45.349,273.016Z" transform="translate(-39.925 -244.711)" fill="#f3a4b2"/>
    <path id="Path_1178" data-name="Path 1178" d="M374.666,163.9v1.736a.778.778,0,0,0,1.555,0V163.9a.778.778,0,0,0-1.555,0Z" transform="translate(-335.798 -146.208)" fill="#f3a4b2"/>
    <path id="Path_1179" data-name="Path 1179" d="M450.609,163.9v1.736a.778.778,0,0,0,1.555,0V163.9a.778.778,0,0,0-1.555,0Z" transform="translate(-403.868 -146.208)" fill="#f3a4b2"/>
    <path id="Path_1180" data-name="Path 1180" d="M412.269,163.9v1.736a.778.778,0,0,0,1.555,0V163.9a.778.778,0,0,0-1.555,0Z" transform="translate(-369.502 -146.208)" fill="#f3a4b2"/>
  </g>
</svg>
