<svg xmlns="http://www.w3.org/2000/svg" width="48.322" height="48.325" viewBox="0 0 48.322 48.325">
  <path id="Path_1113" data-name="Path 1113" d="M47.063,30.345l-6.5-4.336H47.38a.944.944,0,1,0,0-1.888H45.389V13.214c.032,0,.065,0,.1,0a2.86,2.86,0,0,0,.561-.056,2.831,2.831,0,0,0,1.015-5.132L35.78.507A2.815,2.815,0,0,0,32.6.479L30.075,2.16a.944.944,0,1,0,1.047,1.57L33.644,2.05a.939.939,0,0,1,1.065.012l.017.012L46.016,9.6a.944.944,0,1,1-1.047,1.57L34.691,4.318a.944.944,0,0,0-1.047,0L23.365,11.171A.944.944,0,0,1,22.319,9.6L24.84,7.919a.944.944,0,1,0-1.047-1.57L21.272,8.03a2.831,2.831,0,0,0,1.015,5.132,2.848,2.848,0,0,0,.658.054v3.232l-7.173-4.782a2.815,2.815,0,0,0-3.184-.028l-2.522,1.681a.944.944,0,1,0,1.047,1.57l2.522-1.681a.939.939,0,0,1,1.064.012l.017.012,8.643,5.762,0,0,2.645,1.764a.944.944,0,1,1-1.047,1.571L14.683,15.476a.944.944,0,0,0-1.047,0L3.358,22.328A.944.944,0,0,1,2.31,20.758l2.521-1.681a.944.944,0,1,0-1.047-1.57L1.263,19.187A2.833,2.833,0,0,0,2.84,24.375c.033,0,.065,0,.1,0v7.322a3.433,3.433,0,0,0-1.991-.631.944.944,0,0,0,0,1.888,1.543,1.543,0,0,1,1.477,1.081.944.944,0,0,0,1.335.553,1.561,1.561,0,0,1,.345-.13l.007,0a1.552,1.552,0,0,1,1.905,1.655c0,.009,0,.018,0,.027a1.551,1.551,0,0,1-.164.539A.944.944,0,0,0,6.4,38.009a1.545,1.545,0,0,1,.763.534H.946a.944.944,0,0,0,0,1.888h7.48a.944.944,0,0,0,.944-.944,3.428,3.428,0,0,0-.9-2.319H22.945v2.742a3.149,3.149,0,0,0-1.652,1.206,3.173,3.173,0,0,0-3.671,3.671,3.155,3.155,0,0,0-1.348,2.6.944.944,0,0,0,1.888,0,1.275,1.275,0,0,1,.893-1.22.944.944,0,0,0,.553-1.335A1.28,1.28,0,0,1,21.334,43.1a.944.944,0,0,0,1.335-.553,1.278,1.278,0,0,1,.277-.478v4.368a.944.944,0,1,0,0,1.888H45.39a.944.944,0,1,0,0-1.888V35.53c.032,0,.065,0,.1,0a2.86,2.86,0,0,0,.561-.056,2.831,2.831,0,0,0,1.015-5.132ZM35.78,22.823A2.816,2.816,0,0,0,32.6,22.8l-.317.211V17.515h3.775v5.491Zm-10.4,3.186h2.394l-2.394,1.6Zm-.549-8.3V12.461l9.335-6.223L43.5,12.461V24.122H37.942v-7.55A.944.944,0,0,0,37,15.628H31.336a.944.944,0,0,0-.944.944v7.55H26.655a2.832,2.832,0,0,0,.4-4.934ZM4.825,32.538v-8.92L14.159,17.4l9.335,6.223v5.245l-2.223,1.482a2.832,2.832,0,0,0,.4,4.934H17.935v-7.55a.944.944,0,0,0-.944-.944H11.328a.944.944,0,0,0-.944.944v7.55H7.843a3.45,3.45,0,0,0-3.018-2.741ZM16.047,35.28H12.272V28.673h3.775ZM36.055,46.438H32.28V39.831h3.775Zm1.888,0v-7.55A.944.944,0,0,0,37,37.944H31.336a.944.944,0,0,0-.944.944v7.55H24.833V34.777l9.335-6.223L43.5,34.777V46.438Zm8.336-13.213a.944.944,0,0,1-1.309.262L34.691,26.634a.944.944,0,0,0-1.047,0L23.365,33.486h0a.944.944,0,0,1-1.047-1.571l2.644-1.762.006,0,6.451-4.3,0,0,.44-.293,0,0,1.778-1.186a.939.939,0,0,1,1.065.012l.017.012,1.744,1.163,0,0,.441.294h0l9.1,6.067A.945.945,0,0,1,46.278,33.225Z" transform="translate(-0.002 0)" fill="#f3a4b2"/>
</svg>
