<?xml version="1.0" encoding="UTF-8"?><svg id="_レイヤー_2" xmlns="http://www.w3.org/2000/svg" viewBox="0 0 370.23242 91.38787"><defs><style>.cls-1{font-family:InkFree, 'Ink Free';font-size:6px;letter-spacing:.3999em;}.cls-1,.cls-2,.cls-3,.cls-4{fill:#a8a8a8;}.cls-5{letter-spacing:.25em;}.cls-6{letter-spacing:.23901em;}.cls-7{letter-spacing:.23397em;}.cls-2{font-family:SourceHanSansJP-Normal-90ms-RKSJ-H, 'Source Han Sans JP';font-size:12px;}.cls-4{font-family:SourceHanSans-Normal-90ms-RKSJ-H, 'Source Han Sans';font-size:34px;letter-spacing:.19999em;}</style></defs><g id="_レイヤー_1-2"><g><text class="cls-2" transform="translate(2.12939 78.8117)"><tspan class="cls-5" x="0" y="0">Com</tspan><tspan class="cls-7" x="34.85986" y="0">p</tspan><tspan class="cls-5" x="45.04736" y="0">any　P</tspan><tspan class="cls-6" x="99.67139" y="0">r</tspan><tspan class="cls-5" x="107.0874" y="0">ofile</tspan></text><text class="cls-4" transform="translate(207.03223 32.61834)"><tspan x="0" y="0">企業情報</tspan></text><text class="cls-1" transform="translate(0 47.61834)"><tspan x="0" y="0">Let&apos;s live like ourselves today.</tspan></text><g id="_グループ_957"><path id="_パス_1380-2" class="cls-3" d="M17.05507,34.51481H.13607V2.12581H3.66507V31.49581h13.39v3.019Z"/><path id="_パス_1381-2" class="cls-3" d="M27.51207,7.26781c-1.26473,.00276-2.29224-1.02026-2.295-2.28499h0v-.13401c-.00208-1.28019,1.03403-2.31968,2.31423-2.32177,1.24422-.00202,2.26812,.97861,2.31977,2.22177v.1c.09076,1.23793-.83557,2.31664-2.073,2.414-.08784,.00748-.17616,.00748-.264,0l-.002,.005Zm1.787,27.247h-3.529V11.34881h3.529v23.166Z"/><path id="_パス_1382-2" class="cls-3" d="M40.93707,11.34981c0-2.892,0-6.675,2.548-9.268C44.93198,.71825,46.85309-.02817,48.84106,.00081c1.18288-.01399,2.35573,.21826,3.444,.682l-.592,2.759c-.84444-.36876-1.75657-.55711-2.678-.553-3.653,0-4.549,3.4-4.549,7.143v1.319h5.61v2.763h-5.61v20.4h-3.529V14.11181h-3.186v-2.762h3.186Z"/><path id="_パス_1383-2" class="cls-3" d="M74.39507,33.52881c-2.28427,1.01735-4.76733,1.51041-7.267,1.443-6.764,0-10.8-4.758-10.8-11.687,0-7.267,4.082-12.5,10.328-12.5,7.14301,0,8.96899,6.545,8.96899,10.582,0,.806-.045,1.4-.08501,1.956h-15.76399c.045,6.416,3.7,8.835,7.864,8.835,2.08765,.04095,4.15994-.36478,6.078-1.19l.68201,2.548h0l-.005,.013Zm-2.254-12.832c.045-3.146-1.274-7.227-5.824-7.227-4.256,0-6.122,4.037-6.461,7.227h12.285Z"/><path id="_パス_1384-2" class="cls-3" d="M113.88707,6.11781c-1.72763-1.00395-3.69608-1.51836-5.694-1.488-4.5,0-6.207,2.763-6.207,5.1,0,3.186,1.95599,4.8,6.29201,6.63,5.226,2.21,7.89999,4.888,7.89999,9.522,0,5.142-3.743,9.094-10.71201,9.094-2.71611,.03687-5.39069-.66887-7.735-2.041l.981-2.932c2.09128,1.30628,4.50728,1.99923,6.97301,2,4.33501,0,6.884-2.339,6.884-5.824,0-3.186-1.74699-5.142-5.953-6.844-4.888-1.827-8.2-4.674-8.2-9.139,0-4.933,4-8.541,9.905-8.541,2.30562-.07947,4.59174,.44741,6.63,1.528l-1.06,2.932h0l-.00401,.003Z"/><path id="_パス_1385-2" class="cls-3" d="M126.88807,7.13381l3.48399-1.19v5.4h5.993v2.763h-5.993v13.385c0,2.932,.89101,4.549,3.14601,4.549,.80655,.02508,1.61136-.08926,2.379-.338l.21399,2.723c-1.10043,.40913-2.27078,.59706-3.444,.553-5.61,0-5.784-5.1-5.784-7.566V14.11281h-3.569v-2.769h3.569V7.13881l.005-.005Z"/><path id="_パス_1386-2" class="cls-3" d="M160.42705,28.97981c-.04434,1.84792,.06873,3.69627,.33801,5.525h-3.23001l-.34299-2.977h-.129c-1.54526,2.24411-4.12024,3.55493-6.84399,3.484-3.54126,.18845-6.56592-2.52701-6.759-6.068-.01001-.174-.01001-.343-.005-.518,0-5.565,4.84799-8.586,13.42899-8.541,0-1.956,0-6.376-5.271-6.376-2.00793-.02425-3.97714,.55321-5.65399,1.658l-.85101-2.424c2.12302-1.30865,4.57425-1.98701,7.06799-1.956,6.54501,0,8.24799,4.634,8.24799,9.223v8.969l.00302,.00099Zm-3.48401-6.5c-4.38,0-9.85999,.637-9.85999,5.525,0,2.977,1.87201,4.291,4,4.291,3.1203,.11427,5.74374-2.31989,5.86301-5.44v-4.38l-.00302,.004Z"/><path id="_パス_1387-2" class="cls-3" d="M182.05805,14.31581c-.42239-.05555-.84793-.08394-1.27399-.085-3.828,0-5.784,3.783-5.784,7.7v12.576h-3.52399V18.27281c0-2.464-.04501-4.719-.16901-6.929h3.10001l.16901,4.465h.129c.82785-2.82397,3.34827-4.81763,6.28699-4.973,.35571,.0203,.70978,.06339,1.06,.129v3.36h0l.00598-.009Z"/></g></g></g></svg>