<svg xmlns="http://www.w3.org/2000/svg" width="40.5" height="40.5" viewBox="0 0 40.5 40.5">
  <g id="_24h" data-name="24h" transform="translate(-55.5 -55.5)">
    <path id="Path_1314" data-name="Path 1314" d="M134.391,209.467a3.131,3.131,0,0,0-3.127-3.127h-1.007a3.131,3.131,0,0,0-3.127,3.127.858.858,0,1,0,1.717,0,1.411,1.411,0,0,1,1.41-1.41h1.007a1.411,1.411,0,0,1,1.41,1.41,2.4,2.4,0,0,1-.893,1.871l-4.332,3.508a.858.858,0,0,0,.54,1.525h5.543a.858.858,0,1,0,0-1.717h-3.119l2.448-1.982A4.108,4.108,0,0,0,134.391,209.467Z" transform="translate(-64.396 -135.606)" fill="#f3acbc"/>
    <path id="Path_1315" data-name="Path 1315" d="M214.346,216.371a.859.859,0,0,0,.858-.858V207.2a.859.859,0,0,0-.858-.858h-2.08a.859.859,0,0,0-.741.426l-3.463,5.94A.858.858,0,0,0,208.8,214h0l4.683,0v1.519A.859.859,0,0,0,214.346,216.371Zm-4.048-4.092,2.461-4.222h.728v4.22Z" transform="translate(-137.048 -135.606)" fill="#f3acbc"/>
    <path id="Path_1316" data-name="Path 1316" d="M319.381,216.371a.859.859,0,0,0,.858-.858V207.2a.858.858,0,0,0-1.717,0v3.3l-3.826,0v-3.3a.858.858,0,0,0-1.717,0v8.314a.858.858,0,0,0,1.717,0v-3.3l3.826,0v3.3A.859.859,0,0,0,319.381,216.371Z" transform="translate(-231.475 -135.606)" fill="#f3acbc"/>
    <path id="Path_1317" data-name="Path 1317" d="M94.032,67.031a.858.858,0,1,0-1.549.739,18.362,18.362,0,0,1,1.8,7.979,18.536,18.536,0,1,1-5.7-13.367H87.1a.858.858,0,1,0,0,1.717h3.664a.859.859,0,0,0,.858-.858V59.576a.858.858,0,1,0-1.717,0V61.27a20.188,20.188,0,1,0,4.128,5.761Z" fill="#f3acbc"/>
  </g>
</svg>
