<svg xmlns="http://www.w3.org/2000/svg" width="74" height="74" viewBox="0 0 74 74">
  <g id="_24h_active" data-name="24h_active" transform="translate(-55.5 -55.5)">
    <path id="Path_1314" data-name="Path 1314" d="M140.2,211.967a5.634,5.634,0,0,0-5.627-5.627h-1.812a5.634,5.634,0,0,0-5.627,5.627,1.545,1.545,0,1,0,3.09,0,2.54,2.54,0,0,1,2.537-2.537h1.812a2.54,2.54,0,0,1,2.537,2.537,4.314,4.314,0,0,1-1.607,3.368l-7.8,6.312a1.544,1.544,0,0,0,.972,2.744h9.975a1.545,1.545,0,1,0,0-3.09h-5.613l4.406-3.566A7.392,7.392,0,0,0,140.2,211.967Z" transform="translate(-58.368 -122.866)" fill="#fffcfd"/>
    <path id="Path_1315" data-name="Path 1315" d="M219.464,224.392a1.546,1.546,0,0,0,1.545-1.545V207.885a1.546,1.546,0,0,0-1.545-1.545h-3.742a1.545,1.545,0,0,0-1.334.767L208.155,217.8a1.544,1.544,0,0,0,1.334,2.323h0l8.428-.005v2.734A1.546,1.546,0,0,0,219.464,224.392Zm-7.285-7.365,4.429-7.6h1.31v7.594Z" transform="translate(-124.22 -122.866)" fill="#fffcfd"/>
    <path id="Path_1316" data-name="Path 1316" d="M324.5,224.392a1.546,1.546,0,0,0,1.545-1.545V207.885a1.545,1.545,0,0,0-3.09,0v5.931l-6.885.005v-5.936a1.545,1.545,0,0,0-3.09,0v14.962a1.545,1.545,0,1,0,3.09,0v-5.936l6.885-.005v5.942A1.546,1.546,0,0,0,324.5,224.392Z" transform="translate(-209.809 -122.866)" fill="#fffcfd"/>
    <path id="Path_1317" data-name="Path 1317" d="M125.9,76.569a1.568,1.568,0,1,0-2.831,1.351,33.551,33.551,0,0,1,3.29,14.579,33.867,33.867,0,1,1-10.412-24.424h-2.716a1.569,1.569,0,1,0,0,3.137h6.7a1.57,1.57,0,0,0,1.569-1.569v-6.7a1.569,1.569,0,1,0-3.137,0v3.095A36.886,36.886,0,1,0,125.9,76.569Z" transform="translate(0 0)" fill="#fffcfd"/>
  </g>
</svg>
