<svg xmlns="http://www.w3.org/2000/svg" width="50" height="50" viewBox="0 0 50 50">
  <g id="analysis" transform="translate(-1 -1)">
    <path id="Path_1507" data-name="Path 1507" d="M49.762,43.783l-4.644-4.644a.806.806,0,0,0-1.14,0l-.236.236-3.487-3.487a12.845,12.845,0,0,0-5.384-18.247V1.806A.806.806,0,0,0,34.064,1H1.806A.806.806,0,0,0,1,1.806V50.193A.806.806,0,0,0,1.806,51H34.064a.806.806,0,0,0,.806-.806V40.81q.523-.255,1.018-.556l3.487,3.487-.236.236a.806.806,0,0,0,0,1.14l4.644,4.644a4.228,4.228,0,0,0,5.979-5.979ZM40.516,29.226A11.27,11.27,0,0,1,23.58,38.988V38.9h-.14a11.284,11.284,0,1,1,17.076-9.677ZM10.677,35.677H7.452v-12.9h3.226Zm8.492,1.613A12.971,12.971,0,0,0,20.72,38.9H5.839V37.29Zm-.427-15.558a12.8,12.8,0,0,0-.673,13.945H15.516V16.322h3.226Zm8.871-5.3a12.769,12.769,0,0,0-3.226.838V11.484h3.226Zm5.645,32.952H2.613V2.613H33.258V16.976a12.833,12.833,0,0,0-4.032-.654V10.677a.806.806,0,0,0-.806-.806H23.58a.806.806,0,0,0-.806.806v7.391a12.956,12.956,0,0,0-2.419,1.811V15.516a.806.806,0,0,0-.806-.806H14.71a.806.806,0,0,0-.806.806V35.677H12.29V21.968a.806.806,0,0,0-.806-.806H6.645a.806.806,0,0,0-.806.806v13.71H5.032a.806.806,0,0,0-.806.806v3.226a.806.806,0,0,0,.806.806h17.96a12.814,12.814,0,0,0,10.265.959Zm3.979-10.064a13.079,13.079,0,0,0,2.085-2.085L42.6,40.516,40.516,42.6Zm9.535,10.064a2.6,2.6,0,0,1-1.849-.765L40.85,44.548l3.7-3.7,4.073,4.073a2.615,2.615,0,0,1-1.849,4.464Z" transform="translate(0 0)" fill="#f2a6b7"/>
    <path id="Path_1508" data-name="Path 1508" d="M24,33.193A9.193,9.193,0,1,0,33.193,24,9.193,9.193,0,0,0,24,33.193Zm4.6-6.114a7.612,7.612,0,0,1,3.064-1.394V40.7A7.612,7.612,0,0,1,28.6,39.309Zm-3.064,6.114a7.609,7.609,0,0,1,1.532-4.577V37.77a7.609,7.609,0,0,1-1.532-4.577Zm7.661-7.661a7.606,7.606,0,0,1,3.831,1.037V39.818a7.606,7.606,0,0,1-3.831,1.037Zm7.661,7.661a7.635,7.635,0,0,1-2.3,5.463V27.732a7.634,7.634,0,0,1,2.3,5.462Z" transform="translate(-3.866 -3.866)" fill="#f2a6b7"/>
    <path id="Path_1509" data-name="Path 1509" d="M7,7h6.129V8.532H7Z" transform="translate(-1.403 -1.403)" fill="#f2a6b7"/>
    <path id="Path_1510" data-name="Path 1510" d="M5,11h7.661v1.532H5Z" transform="translate(-0.936 -1.046)" fill="#f2a6b7"/>
    <path id="Path_1511" data-name="Path 1511" d="M5,15h7.661v1.532H5Z" transform="translate(-0.936 -2.691)" fill="#f2a6b7"/>
    <path id="Path_1512" data-name="Path 1512" d="M21,57H31.726v1.532H21Z" transform="translate(-3.636 -10.597)" fill="#f2a6b7"/>
    <path id="Path_1513" data-name="Path 1513" d="M37,57h1.532v1.532H37Z" transform="translate(-6.92 -10.597)" fill="#f2a6b7"/>
    <path id="Path_1514" data-name="Path 1514" d="M21,53H31.726v1.532H21Z" transform="translate(-3.636 -9.662)" fill="#f2a6b7"/>
    <path id="Path_1515" data-name="Path 1515" d="M37,53h1.532v1.532H37Z" transform="translate(-6.92 -9.662)" fill="#f2a6b7"/>
  </g>
</svg>
