<svg xmlns="http://www.w3.org/2000/svg" width="69.742" height="69.742" viewBox="0 0 69.742 69.742">
  <g id="analysis_active" transform="translate(-1 -1)">
    <path id="Path_1507" data-name="Path 1507" d="M69.015,60.675,62.538,54.2a1.125,1.125,0,0,0-1.591,0l-.33.33-4.864-4.864a17.917,17.917,0,0,0-7.51-25.452V2.125A1.125,1.125,0,0,0,47.119,1H2.125A1.125,1.125,0,0,0,1,2.125V69.617a1.125,1.125,0,0,0,1.125,1.125H47.119a1.125,1.125,0,0,0,1.125-1.125V56.529q.729-.355,1.42-.775l4.864,4.864-.33.33a1.125,1.125,0,0,0,0,1.591l6.477,6.477a5.9,5.9,0,0,0,8.34-8.34Zm-12.9-20.3A15.72,15.72,0,0,1,32.5,53.988v-.119h-.2a15.739,15.739,0,1,1,23.818-13.5Zm-41.62,9H10v-18h4.5Zm11.845,2.25a18.092,18.092,0,0,0,2.163,2.25H7.749v-2.25Zm-.6-21.7a17.861,17.861,0,0,0-.939,19.451h-3.56v-27h4.5ZM38.12,22.529a17.811,17.811,0,0,0-4.5,1.169V15.623h4.5Zm7.874,45.963H3.25V3.25H45.995V23.285a17.9,17.9,0,0,0-5.624-.912V14.5a1.125,1.125,0,0,0-1.125-1.125H32.5A1.125,1.125,0,0,0,31.371,14.5V24.808A18.072,18.072,0,0,0,28,27.334V21.248a1.125,1.125,0,0,0-1.125-1.125H20.123A1.125,1.125,0,0,0,19,21.248V49.369h-2.25V30.246a1.125,1.125,0,0,0-1.125-1.125H8.874a1.125,1.125,0,0,0-1.125,1.125V49.369H6.624A1.125,1.125,0,0,0,5.5,50.494v4.5a1.125,1.125,0,0,0,1.125,1.125H31.676a17.874,17.874,0,0,0,14.318,1.337Zm5.55-14.038a18.243,18.243,0,0,0,2.909-2.909l4.574,4.574-2.909,2.909Zm13.3,14.038a3.624,3.624,0,0,1-2.579-1.067l-5.682-5.682,5.159-5.159,5.682,5.682a3.648,3.648,0,0,1-2.579,6.226Z" transform="translate(0 0)" fill="#fffcfd"/>
    <path id="Path_1508" data-name="Path 1508" d="M24,37.5A13.5,13.5,0,1,0,37.5,24,13.5,13.5,0,0,0,24,37.5Zm6.749-8.978a11.177,11.177,0,0,1,4.5-2.046V48.522a11.177,11.177,0,0,1-4.5-2.044ZM26.25,37.5a11.172,11.172,0,0,1,2.25-6.72v13.44a11.172,11.172,0,0,1-2.25-6.72ZM37.5,26.25a11.168,11.168,0,0,1,5.624,1.522V47.225A11.168,11.168,0,0,1,37.5,48.747ZM48.747,37.5a11.211,11.211,0,0,1-3.376,8.021l0-16.04A11.209,11.209,0,0,1,48.747,37.5Z" transform="translate(2.872 2.872)" fill="#fffcfd"/>
    <path id="Path_1509" data-name="Path 1509" d="M7,7h9V9.25H7Z" transform="translate(0.749 0.749)" fill="#fffcfd"/>
    <path id="Path_1510" data-name="Path 1510" d="M5,11H16.249v2.25H5Z" transform="translate(0.499 1.249)" fill="#fffcfd"/>
    <path id="Path_1511" data-name="Path 1511" d="M5,15H16.249v2.25H5Z" transform="translate(0.499 1.748)" fill="#fffcfd"/>
    <path id="Path_1512" data-name="Path 1512" d="M21,57H36.748v2.25H21Z" transform="translate(2.497 6.992)" fill="#fffcfd"/>
    <path id="Path_1513" data-name="Path 1513" d="M37,57h2.25v2.25H37Z" transform="translate(4.495 6.992)" fill="#fffcfd"/>
    <path id="Path_1514" data-name="Path 1514" d="M21,53H36.748v2.25H21Z" transform="translate(2.497 6.493)" fill="#fffcfd"/>
    <path id="Path_1515" data-name="Path 1515" d="M37,53h2.25v2.25H37Z" transform="translate(4.495 6.493)" fill="#fffcfd"/>
  </g>
</svg>
