<svg xmlns="http://www.w3.org/2000/svg" width="88" height="88.004" viewBox="0 0 88 88.004">
  <g id="chemotherapy" transform="translate(-1 -1)">
    <path id="Path_1503" data-name="Path 1503" d="M14.677,13H11.839v2.839H9v2.839h2.839v2.839h2.839V18.677h2.839V15.839H14.677Z" transform="translate(3.355 5.032)" fill="#ffcbd3"/>
    <path id="Path_1504" data-name="Path 1504" d="M24.871,26.032V11.839A2.842,2.842,0,0,0,22.032,9H7.839A2.842,2.842,0,0,0,5,11.839V26.032a2.842,2.842,0,0,0,2.839,2.839H22.032A2.842,2.842,0,0,0,24.871,26.032Zm-17.032,0V11.839H22.032V26.032Z" transform="translate(1.677 3.355)" fill="#ffcbd3"/>
    <path id="Path_1505" data-name="Path 1505" d="M43.418,19.834l-1.567.852a1.221,1.221,0,0,1-1.187,0,1.71,1.71,0,0,1-.826-1.509V18H37v1.177a4.517,4.517,0,0,0,2.312,4,4.073,4.073,0,0,0,3.893,0l1.568-.852Z" transform="translate(15.097 7.129)" fill="#ffcbd3"/>
    <path id="Path_1506" data-name="Path 1506" d="M85.226,34.627l-3.081-2.054,1.737-1.737A17.478,17.478,0,0,0,59.165,6.118l-2.132,2.13a7,7,0,0,0-1.9,6.641,17.092,17.092,0,0,0-6.973,6.97,1.319,1.319,0,0,1-.879.654l-3.58.847A3.865,3.865,0,0,0,41.168,25.3,3.679,3.679,0,0,0,42.5,30.149l1.584,1-.522,1.155a9.913,9.913,0,0,0,5.01,13.061,10.934,10.934,0,0,0,3.966,1.008,25.271,25.271,0,0,1-3.784,6.567l-.268.335a27,27,0,0,0-19.026,24.37H23.71V73.39a4.263,4.263,0,0,0-4.258-4.258H8.1a1.419,1.419,0,1,1,0-2.839h2.839a7.11,7.11,0,0,0,6.953-5.677h.143a2.842,2.842,0,0,0,2.839-2.839V54.938A2.842,2.842,0,0,0,18.032,52.1V49.261h3.381l-.149.3a3.712,3.712,0,0,0,3.323,5.375h1.084A3.717,3.717,0,0,0,29,49.558l-.573-1.147a7.079,7.079,0,0,0,3.8-6.249V8.1a7.1,7.1,0,0,0-7.1-7.1H8.1A7.1,7.1,0,0,0,1,8.1V42.161a7.1,7.1,0,0,0,7.1,7.1H9.516V52.1a2.842,2.842,0,0,0-2.839,2.839v2.839a2.842,2.842,0,0,0,2.839,2.839h5.416a4.252,4.252,0,0,1-4,2.839H8.1a4.258,4.258,0,1,0,0,8.516H19.452a1.421,1.421,0,0,1,1.419,1.419v4.258h-.243a4.259,4.259,0,0,0-8.031,0h-.243A5.678,5.678,0,0,0,12.345,89c2.972,0,7.217,0,11.808,0h15.37c.409,0,.812-.04,1.218-.057V89H74.805V86.161H64.5L87.853,45.935a8.474,8.474,0,0,0-2.627-11.308Zm-58.77,16.2a.878.878,0,0,1-.785,1.27H24.587a.877.877,0,0,1-.785-1.269l.785-1.57h.542c.176,0,.342-.04.515-.053ZM3.839,42.161V8.1A4.263,4.263,0,0,1,8.1,3.839H25.129A4.263,4.263,0,0,1,29.387,8.1V42.161a4.263,4.263,0,0,1-4.258,4.258H8.1a4.263,4.263,0,0,1-4.258-4.258Zm8.516,7.1h2.839V52.1H12.355Zm-2.84,5.677h8.518v2.839H9.516ZM59.04,10.257l2.132-2.13a14.638,14.638,0,1,1,20.7,20.7l-5.3,5.3a3.307,3.307,0,0,1-4.85-.37L58.612,15.869a4.321,4.321,0,0,1,.429-5.612Zm18.3,33.464a6.119,6.119,0,0,1,4.235,3.94,8.172,8.172,0,0,1-4.223-.254,6.116,6.116,0,0,0-.734-1.537l-.38-.571A4.239,4.239,0,0,0,77.34,43.721Zm-3.083,3.723a3.267,3.267,0,0,1,0,3.626l-.87,1.306-.632-.95a4.68,4.68,0,0,1-.548-4.078l.338-1.013a4.329,4.329,0,0,0,.842.084c.06,0,.116-.016.176-.018Zm-12.184,7.4-1.124-1.4,4.785-7.176a16.022,16.022,0,0,0,4.186-1.646c.044.062.1.118.148.177l-.552,1.654a7.378,7.378,0,0,0,.152,5.121L64.647,59.1a19.179,19.179,0,0,0-2.573-4.258Zm5.6-21.817,1.767,2.409a6.064,6.064,0,0,0,3.734,2.349c-.034.051-.07.1-.1.152a4.236,4.236,0,0,0-3.9,3.807A13.235,13.235,0,0,1,66.4,43.1,23.806,23.806,0,0,1,67.67,33.026Zm5.717,10.554a1.419,1.419,0,1,1,0-2.839,1.513,1.513,0,0,1,.216.016,1.42,1.42,0,0,1-.216,2.823Zm-17.763,2.58a10.863,10.863,0,0,0,2.362-.795l1.815-.86L58.585,41.94l-1.814.86a8.238,8.238,0,0,1-6.983,0,7.353,7.353,0,0,1-3.917-4.488,6.217,6.217,0,0,0,7.024-.145L51.3,35.82a3.481,3.481,0,0,1-4.082,0l-1.51-1.026a6.843,6.843,0,0,1,.441-1.317l1.54-3.406-3.672-2.319a.848.848,0,0,1-.338-1.124,1.02,1.02,0,0,1,.677-.5l3.578-.847a4.168,4.168,0,0,0,2.737-2.094,14.225,14.225,0,0,1,5.615-5.7c.014.02.024.043.038.061l9.372,12.781a26.545,26.545,0,0,0-2.023,13.91L58.434,52.1H56.355a26.987,26.987,0,0,0-3.717.287,28.1,28.1,0,0,0,2.986-6.222Zm.731,8.774h2.157l1.344,1.681A16.41,16.41,0,0,1,58.02,79.063c-.491.443-1.009.849-1.527,1.252L50.1,74.724a20.2,20.2,0,0,0,5.52-9.593,2.215,2.215,0,0,1,2.152-1.679V60.613a5.045,5.045,0,0,0-4.9,3.829,17.406,17.406,0,0,1-16.91,13.2H32.3a24.138,24.138,0,0,1,24.057-22.71ZM12.348,86.163a2.839,2.839,0,0,1,.007-5.679h2.839V79.065a1.419,1.419,0,1,1,2.839,0v1.419H35.96a20.209,20.209,0,0,0,11.95-3.907L54.1,82a27.6,27.6,0,0,1-14.581,4.167c-8.9,0-20.89.006-27.175,0Zm39.972,0a30.467,30.467,0,0,0,7.6-4.989,19.111,19.111,0,0,0,5.859-18.649L71.258,54.3l2.129,3.194,3.232-4.85a6.084,6.084,0,0,0,.9-2.238,10.756,10.756,0,0,0,4.409.077L61.215,86.161ZM85.4,44.512l-1.2,2.067a8.834,8.834,0,0,0-6.776-5.724,4.3,4.3,0,0,0-1.513-2.1c.2-.332.392-.667.565-1.012l.148-.3a6.026,6.026,0,0,0,1.963-1.314L80.1,34.619l3.554,2.369A5.642,5.642,0,0,1,85.4,44.512Z" fill="#ffcbd3"/>
  </g>
</svg>
