<svg xmlns="http://www.w3.org/2000/svg" width="66.964" height="81.209" viewBox="0 0 66.964 81.209">
  <g id="グループ_522" data-name="グループ 522" transform="translate(38.877 -354.443)">
    <g id="rush" transform="translate(-38.877 369.865)">
      <path id="パス_1462" data-name="パス 1462" d="M54.281,89.115a4.174,4.174,0,0,0,4.947-1.449l6.957-9.739a4.174,4.174,0,0,0-6.793-4.852l-5.053,7.073-3.814-1.475A9.415,9.415,0,0,1,36.51,73.254l-4.241-1.64a4.174,4.174,0,0,0-2.652-.12L19.9,74.269a4.167,4.167,0,0,0-2.775,2.587A4.581,4.581,0,0,0,12.99,79.14l-1.635,2.832-.566-.327A4.578,4.578,0,0,0,4.536,83.32l-3.924,6.8A4.578,4.578,0,0,0,2.288,96.37l11.327,6.539a4.578,4.578,0,0,0,6.253-1.676l3.924-6.8a4.578,4.578,0,0,0-1.676-6.253l-.566-.327,1.635-2.832a4.558,4.558,0,0,0,.526-3.163l6.9-1.972,4.961,1.86-9.184,28.532h-12.3a4.174,4.174,0,0,0-4.174,4.174h0a4.174,4.174,0,0,0,4.174,4.174H29.394a4.174,4.174,0,0,0,3.96-2.854L37.313,103.9l10.7,6.228,3.771,15.081a4.174,4.174,0,0,0,8.1-2.025l-4.174-16.7A4.174,4.174,0,0,0,53.9,103.98l-10.2-6.493,3.583-11.173ZM19.786,83.064,18.151,85.9l-3.4-1.962L16.388,81.1a.655.655,0,0,1,.893-.239s1.862,1.163,2.289,1.325A.653.653,0,0,1,19.786,83.064Z" transform="translate(0.002 -62.586)" fill="#fff"/>
      <path id="パス_1463" data-name="パス 1463" d="M309.989,17.744a5.5,5.5,0,0,0,7.045-3.285l.94-2.582a5.5,5.5,0,1,0-10.33-3.76L306.7,10.7A5.5,5.5,0,0,0,309.989,17.744Z" transform="translate(-266.301 -4.499)" fill="#fff"/>
    </g>
    <g id="XMLID_481_" transform="translate(-29.5 354.443)">
      <g id="XMLID_507_" transform="translate(0 0)">
        <path id="XMLID_508_" d="M14.452,13.406a6.506,6.506,0,0,0-4.2,1.572,6.507,6.507,0,0,0-4.2-1.572A5.994,5.994,0,0,0,0,19.464c0,4.106,2.859,6.616,7.187,10.416q.555.487,1.144,1.007l.008.007,1.307,1.129a.933.933,0,0,0,1.219,0l1.306-1.129.008-.007a55.123,55.123,0,0,0,5.929-5.747,8.86,8.86,0,0,0,2.4-5.676A5.994,5.994,0,0,0,14.452,13.406Zm-3.5,16.08-.693.6-.693-.6q-.59-.522-1.146-1.008c-4.086-3.587-6.552-5.752-6.552-9.014a4.1,4.1,0,0,1,4.193-4.193A4.687,4.687,0,0,1,9.544,16.9a.933.933,0,0,0,1.424,0,4.686,4.686,0,0,1,3.485-1.627,4.1,4.1,0,0,1,4.193,4.193C18.646,22.529,15.864,25.139,10.948,29.486Z" transform="translate(0 -13.406)" fill="#fff"/>
        <path id="XMLID_511_" d="M109.937,94.964h-2.487v2.487h-2.487v2.487h2.487v2.487h2.487V99.937h2.487V97.451h-2.487Z" transform="translate(-98.439 -89.894)" fill="#fff"/>
      </g>
    </g>
  </g>
</svg>
