<?xml version="1.0" encoding="UTF-8"?><svg id="_レイヤー_2" xmlns="http://www.w3.org/2000/svg" viewBox="0 0 61.45 71"><g id="_レイヤー_1-2"><path id="_パス_1818" d="M12.75,13.2L4.26,8.49,8.96,0l2.83,1.57-3.14,5.66,5.66,3.14-1.57,2.83Z"/><path id="_パス_1819-2" d="M57.86,38.65c1.93-12.34-4.01-24.59-14.9-30.71-7.2-4.04-15.75-4.97-23.65-2.56l-12.57,3.9-.96-3.07,12.58-3.92C27.11-.37,36.56,.66,44.53,5.13c12.06,6.77,18.65,20.32,16.53,33.98l-3.19-.47Z"/><path id="_パス_1820-2" d="M20.11,68.83c-2.45-1.36-4.54-3.28-6.1-5.61L1.03,43.81c-1.88-2.81-1.12-6.6,1.68-8.48,1.35-.9,3-1.23,4.58-.92,1.58,.33,2.98,1.26,3.89,2.6l2.86,4.28,3.85-23.97c.19-1.14,.71-2.19,1.5-3.03,1.37-1.43,3.39-2.02,5.31-1.57,2.88,.67,4.75,3.45,4.3,6.37l-2.09,13.01,16.72,9.31c2.62,1.46,4.07,4.39,3.63,7.36l-1.05,7.3c-.4,2.62-1.4,5.12-2.92,7.3-4.82,6.86-13.75,9.45-21.5,6.25-.58-.23-1.15-.5-1.69-.8ZM7.49,37.88c-.27-.15-.57-.26-.88-.33-.89-.18-1.8,.08-2.46,.7-1.06,.97-1.25,2.56-.46,3.75l12.98,19.42c1.56,2.35,3.78,4.18,6.37,5.28,7.35,3.12,15.84-.3,18.97-7.65,.47-1.09,.79-2.24,.98-3.42l1.07-7.3c.24-1.65-.57-3.28-2.02-4.09l-18.68-10.4,2.45-15.22c.2-1.27-.62-2.47-1.87-2.75-.81-.18-1.66,.07-2.23,.67-.35,.37-.58,.83-.67,1.33l-5.15,32.05-7.4-11.09c-.24-.4-.59-.72-.99-.94Z"/></g></svg>