<svg xmlns="http://www.w3.org/2000/svg" width="217.17" height="13.55" viewBox="0 0 217.17 13.55">
  <g id="footer_text" transform="translate(0.01 0.03)">
    <g id="Group_939" data-name="Group 939">
      <path id="Path_1874" data-name="Path 1874" d="M5.62,9.86a.722.722,0,0,1-.38.13l-2.41.18-1.67.14-.87.07a.261.261,0,0,1-.2-.14A.484.484,0,0,1,0,9.97a.189.189,0,0,1,.06-.15A.369.369,0,0,1,.2,9.75a.246.246,0,0,0,.1-.04c0-.5.01-1.68.01-3.53A23.424,23.424,0,0,0,.15,3.01C.04,2.26-.01,1.86-.01,1.8a.375.375,0,0,1,.15-.31.465.465,0,0,1,.3-.11.176.176,0,0,1,.15.08.458.458,0,0,1,.08.25A9.343,9.343,0,0,1,.89,3.46c.05.85.08,1.74.08,2.66,0,.78,0,1.51-.01,2.18S.95,9.42.95,9.66c.12,0,.35-.03.7-.05s.7-.05,1.06-.08c.54-.07,1.15-.16,1.83-.29a9,9,0,0,1,.99-.15.2.2,0,0,1,.2.14,1.133,1.133,0,0,1,.04.34.326.326,0,0,1-.16.29Z" fill="#ff819f"/>
      <path id="Path_1875" data-name="Path 1875" d="M13.78,7.24a3.791,3.791,0,0,1-.37,1.11,4.928,4.928,0,0,1-1.12,1.58,2.519,2.519,0,0,1-1.84.73,2.128,2.128,0,0,1-1.5-.56,2.246,2.246,0,0,1-.6-1.72,5.085,5.085,0,0,1,.5-2.16,5,5,0,0,1,1.32-1.75,2.608,2.608,0,0,1,1.68-.68,1.622,1.622,0,0,1,.88.23.746.746,0,0,1,.36.67,1.264,1.264,0,0,1-.55.95,5.133,5.133,0,0,1-1.44.81,8.76,8.76,0,0,1-1.82.5,5.085,5.085,0,0,0-.17,1.26,1.914,1.914,0,0,0,.38,1.26,1.355,1.355,0,0,0,1.1.45,2.224,2.224,0,0,0,1.75-.77,7.106,7.106,0,0,0,1.12-1.74c.02-.04.05-.11.1-.22s.09-.16.13-.16c.07,0,.1.07.1.21ZM12.22,4.48a1.134,1.134,0,0,0-.54-.13,1.746,1.746,0,0,0-1.02.35,3.275,3.275,0,0,0-.82.84,3.153,3.153,0,0,0-.43.87,5.4,5.4,0,0,0,1.36-.36,6.048,6.048,0,0,0,1.2-.64q.48-.345.48-.57a.387.387,0,0,0-.23-.35Z" fill="#ff819f"/>
      <path id="Path_1876" data-name="Path 1876" d="M22.28,5.17a2.195,2.195,0,0,1-.73.2c-.86.15-1.34.23-1.44.25l-.91.15c0,.49,0,.99.02,1.53s.04,1,.06,1.4a5.322,5.322,0,0,0,.2,1.25c.09.29.15.45.15.49a.333.333,0,0,1-.18.26.609.609,0,0,1-.33.12.217.217,0,0,1-.14-.05.4.4,0,0,1-.1-.16,3.01,3.01,0,0,1-.16-.73c-.05-.35-.09-.75-.12-1.18-.03-.38-.05-.83-.06-1.34s-.02-1-.02-1.48c-.52.08-1.06.19-1.61.31a7.836,7.836,0,0,1-.88.15.5.5,0,0,1-.31-.1.328.328,0,0,1-.15-.27.233.233,0,0,1,.13-.24,1.063,1.063,0,0,1,.42-.06,3.856,3.856,0,0,0,.62-.08c.27-.05.44-.09.52-.1.62-.12,1.05-.2,1.27-.24,0-.2,0-.45-.03-.77-.02-.43-.03-.76-.03-.98a6.32,6.32,0,0,1,.04-.85,2.137,2.137,0,0,1,.13-.54.4.4,0,0,1,.42-.28.25.25,0,0,1,.17.04.208.208,0,0,1,.04.15,3.692,3.692,0,0,1-.07.49,6.262,6.262,0,0,0-.07,1.08c0,.34,0,.73.03,1.16v.38c.43-.07,1.26-.24,2.51-.52a.313.313,0,0,0,.19-.2c.05-.11.1-.17.16-.17a.426.426,0,0,1,.31.18.53.53,0,0,1,.16.36.4.4,0,0,1-.2.36Z" fill="#ff819f"/>
      <path id="Path_1877" data-name="Path 1877" d="M25.76,3.06c-.05.29-.11.46-.2.51a.38.38,0,0,1-.18.06.308.308,0,0,1-.24-.14,3.121,3.121,0,0,1-.06-.87l-.03-.85a4.251,4.251,0,0,0-.1-.7A4.383,4.383,0,0,1,24.87.4a.309.309,0,0,1,.08-.25.361.361,0,0,1,.18-.03.792.792,0,0,1,.29.06.45.45,0,0,1,.21.16,2.508,2.508,0,0,1,.13.65,8.687,8.687,0,0,1,.06,1.04,6.331,6.331,0,0,1-.07,1.03Z" fill="#ff819f"/>
      <path id="Path_1878" data-name="Path 1878" d="M33.51,9.82a3.53,3.53,0,0,1-1.31.91,4.288,4.288,0,0,1-1.69.34,2.045,2.045,0,0,1-.81-.11.35.35,0,0,1-.21-.31c0-.08.11-.23.32-.44s.36-.32.43-.32c.11,0,.17.02.17.07a.127.127,0,0,1-.07.11.126.126,0,0,0-.07.1c0,.04.06.08.17.11a1.646,1.646,0,0,0,.43.06,3.284,3.284,0,0,0,1.18-.22,2.625,2.625,0,0,0,.97-.57,1.016,1.016,0,0,0,.38-.74.769.769,0,0,0-.24-.6,1.457,1.457,0,0,0-.6-.33q-.36-.105-1.2-.3c-.62-.14-1.09-.26-1.44-.37a2.416,2.416,0,0,1-.82-.41.745.745,0,0,1-.31-.62,1.6,1.6,0,0,1,.66-1.23,5.036,5.036,0,0,1,1.51-.88,4.214,4.214,0,0,1,1.32-.32c.31,0,.48.09.48.28a.816.816,0,0,1-.11.37.379.379,0,0,1-.34.2.323.323,0,0,1-.18-.06.386.386,0,0,0-.2-.06,3.447,3.447,0,0,0-.88.18,3.3,3.3,0,0,0-1.09.55,1.064,1.064,0,0,0-.49.88.54.54,0,0,0,.39.5,9.949,9.949,0,0,0,1.43.4,1.136,1.136,0,0,0,.25.06,1.2,1.2,0,0,1,.22.05,6.735,6.735,0,0,1,1.65.57,1.043,1.043,0,0,1,.57.97,1.731,1.731,0,0,1-.5,1.18Z" fill="#ff819f"/>
      <path id="Path_1879" data-name="Path 1879" d="M43.19,10.44a.911.911,0,0,1-.41.08c-.11,0-.22-.13-.31-.4a3.967,3.967,0,0,1-.15-1.21c0-1.05.03-2.33.05-3.82s.04-2.62.06-3.37a2.143,2.143,0,0,1,.15-.76.485.485,0,0,1,.47-.35.156.156,0,0,1,.15.12,2,2,0,0,1,.04.45v.36q-.255,3.69-.25,7.18a2.614,2.614,0,0,0,.2.95,4.679,4.679,0,0,1,.2.53.247.247,0,0,1-.18.22Z" fill="#ff819f"/>
      <path id="Path_1880" data-name="Path 1880" d="M46.67,2.04a.77.77,0,0,1-.48-.2c-.16-.13-.24-.24-.24-.32a.4.4,0,0,1,.15-.29.46.46,0,0,1,.3-.14.839.839,0,0,1,.35.22c.07.08.16.17.25.29a.876.876,0,0,1,.14.22c0,.14-.15.21-.46.21Zm.69,8.81a.417.417,0,0,1-.27.06c-.13,0-.23-.22-.29-.63s-.12-1.19-.19-2.34c-.04-.76-.07-1.5-.1-2.22s-.05-1.28-.06-1.67a.462.462,0,0,1,.05-.23.214.214,0,0,1,.19-.08.388.388,0,0,1,.41.27,3.912,3.912,0,0,1,.08,1.02V6.68a20.833,20.833,0,0,0,.07,2.27c0,.03.04.33.13.9a7.3,7.3,0,0,1,.1.78A.251.251,0,0,1,47.36,10.85Z" fill="#ff819f"/>
      <path id="Path_1881" data-name="Path 1881" d="M57.35,3.7a.884.884,0,0,0-.23.18,8.273,8.273,0,0,0-1.36,2.37,18.475,18.475,0,0,0-.99,3.33c-.03.14-.07.42-.14.84l-.07.49a.573.573,0,0,1-.19.35.823.823,0,0,1-.51.13,2.834,2.834,0,0,1-.48-.85c-.27-.56-.56-1.17-.85-1.83l-.6-1.32c-.36-.79-.67-1.41-.91-1.86s-.42-.67-.53-.67a.093.093,0,0,0-.09.07c-.02.05-.05.07-.08.07a.143.143,0,0,1-.12-.06.235.235,0,0,1-.05-.13,1,1,0,0,1,.2-.48c.14-.2.27-.29.4-.29a.328.328,0,0,1,.21.06.8.8,0,0,1,.13.13.479.479,0,0,1,.08.11,14.593,14.593,0,0,1,1.16,2.21c.2.42.68,1.52,1.46,3.29l.32.74a8.557,8.557,0,0,1,.14-1.18,19.845,19.845,0,0,1,.92-3.28A11,11,0,0,1,56.61,3.4a2.717,2.717,0,0,1,.27-.32.356.356,0,0,1,.27-.09c.05,0,.12.07.22.22a.7.7,0,0,1,.15.29c0,.05-.06.11-.19.2Z" fill="#ff819f"/>
      <path id="Path_1882" data-name="Path 1882" d="M64.94,7.24a3.792,3.792,0,0,1-.37,1.11,4.928,4.928,0,0,1-1.12,1.58,2.519,2.519,0,0,1-1.84.73,2.128,2.128,0,0,1-1.5-.56,2.246,2.246,0,0,1-.6-1.72,5.085,5.085,0,0,1,.5-2.16,5,5,0,0,1,1.32-1.75,2.608,2.608,0,0,1,1.68-.68,1.622,1.622,0,0,1,.88.23.746.746,0,0,1,.36.67,1.264,1.264,0,0,1-.55.95,5.133,5.133,0,0,1-1.44.81,8.76,8.76,0,0,1-1.82.5,5.085,5.085,0,0,0-.17,1.26,1.914,1.914,0,0,0,.38,1.26,1.355,1.355,0,0,0,1.1.45,2.224,2.224,0,0,0,1.75-.77,7.106,7.106,0,0,0,1.12-1.74c.02-.04.05-.11.1-.22s.09-.16.13-.16c.07,0,.1.07.1.21ZM63.38,4.48a1.134,1.134,0,0,0-.54-.13,1.746,1.746,0,0,0-1.02.35,3.275,3.275,0,0,0-.82.84,3.153,3.153,0,0,0-.43.87,5.4,5.4,0,0,0,1.36-.36,6.048,6.048,0,0,0,1.2-.64q.48-.345.48-.57a.387.387,0,0,0-.23-.35Z" fill="#ff819f"/>
      <path id="Path_1883" data-name="Path 1883" d="M74.04,10.44a.911.911,0,0,1-.41.08c-.11,0-.22-.13-.31-.4a3.967,3.967,0,0,1-.15-1.21c0-1.05.03-2.33.05-3.82s.04-2.62.06-3.37a2.143,2.143,0,0,1,.15-.76A.485.485,0,0,1,73.9.61a.156.156,0,0,1,.15.12,2,2,0,0,1,.04.45v.36q-.255,3.69-.25,7.18a2.614,2.614,0,0,0,.2.95,4.679,4.679,0,0,1,.2.53.247.247,0,0,1-.18.22Z" fill="#ff819f"/>
      <path id="Path_1884" data-name="Path 1884" d="M77.53,2.04a.77.77,0,0,1-.48-.2c-.16-.13-.24-.24-.24-.32a.4.4,0,0,1,.15-.29.46.46,0,0,1,.3-.14.839.839,0,0,1,.35.22c.07.08.16.17.25.29a.876.876,0,0,1,.14.22c0,.14-.15.21-.46.21Zm.69,8.81a.417.417,0,0,1-.27.06c-.13,0-.23-.22-.29-.63s-.12-1.19-.19-2.34c-.04-.76-.07-1.5-.1-2.22s-.05-1.28-.06-1.67a.462.462,0,0,1,.05-.23.214.214,0,0,1,.19-.08.388.388,0,0,1,.41.27,3.912,3.912,0,0,1,.08,1.02V6.68a20.833,20.833,0,0,0,.07,2.27c0,.03.04.33.13.9a7.3,7.3,0,0,1,.1.78.251.251,0,0,1-.12.22Z" fill="#ff819f"/>
      <path id="Path_1885" data-name="Path 1885" d="M87.7,4.98a.513.513,0,0,1-.36.22.408.408,0,0,1-.25-.12.4.4,0,0,0-.2-.12,2.707,2.707,0,0,0-1.2.52A16.919,16.919,0,0,0,84,6.7a15.169,15.169,0,0,0-1.33,1.19v.25c.72.33,1.51.68,2.38,1.05a11.684,11.684,0,0,0,1.81.66c.13.02.26.03.39.04s.22.01.28.01a1.342,1.342,0,0,1,.21.01c.06,0,.08.03.08.06,0,.11-.09.22-.26.34a1.456,1.456,0,0,1-.78.17,3.308,3.308,0,0,1-1.25-.34c-.53-.23-1.15-.53-1.87-.9l-.88-.43c.12,1.19.18,1.84.18,1.96a.286.286,0,0,1-.15.25.646.646,0,0,1-.34.1c-.07,0-.14-.11-.18-.34s-.1-.67-.17-1.33l-.1-.85a.837.837,0,0,1-.29-.2.406.406,0,0,1-.13-.25c0-.11.09-.24.28-.39,0-.5-.04-1.22-.08-2.16s-.07-1.61-.09-2.04l-.07-1.95a1.892,1.892,0,0,1,.1-.67.42.42,0,0,1,.43-.28.246.246,0,0,1,.17.05.3.3,0,0,1,.04.19c0,.43.03,1.43.09,2.99s.11,2.68.15,3.34q3.12-2.97,4.56-2.97a1.235,1.235,0,0,1,.5.1c.14.07.2.14.2.22a.613.613,0,0,1-.19.41Z" fill="#ff819f"/>
      <path id="Path_1886" data-name="Path 1886" d="M95.09,7.24a3.792,3.792,0,0,1-.37,1.11A4.928,4.928,0,0,1,93.6,9.93a2.519,2.519,0,0,1-1.84.73,2.128,2.128,0,0,1-1.5-.56,2.246,2.246,0,0,1-.6-1.72,5.085,5.085,0,0,1,.5-2.16,5,5,0,0,1,1.32-1.75,2.608,2.608,0,0,1,1.68-.68,1.622,1.622,0,0,1,.88.23.746.746,0,0,1,.36.67,1.264,1.264,0,0,1-.55.95,5.133,5.133,0,0,1-1.44.81,8.76,8.76,0,0,1-1.82.5,5.085,5.085,0,0,0-.17,1.26,1.914,1.914,0,0,0,.38,1.26,1.355,1.355,0,0,0,1.1.45,2.224,2.224,0,0,0,1.75-.77,7.106,7.106,0,0,0,1.12-1.74c.02-.04.05-.11.1-.22s.09-.16.13-.16c.07,0,.1.07.1.21ZM93.53,4.48a1.134,1.134,0,0,0-.54-.13,1.746,1.746,0,0,0-1.02.35,3.275,3.275,0,0,0-.82.84,3.153,3.153,0,0,0-.43.87,5.4,5.4,0,0,0,1.36-.36,6.048,6.048,0,0,0,1.2-.64q.48-.345.48-.57a.387.387,0,0,0-.23-.35Z" fill="#ff819f"/>
      <path id="Path_1887" data-name="Path 1887" d="M107.46,8.96a3.6,3.6,0,0,1-1.15,1.22,2.929,2.929,0,0,1-1.69.51,1.725,1.725,0,0,1-1.39-.52,1.878,1.878,0,0,1-.45-1.29,7.406,7.406,0,0,1,.24-1.67,6.871,6.871,0,0,1,.69-1.78c.02-.04.1-.18.23-.41a1.821,1.821,0,0,1,.45-.55.862.862,0,0,1,.53-.19.465.465,0,0,1,.23.06.182.182,0,0,1,.1.16c0,.02-.03.06-.08.13s-.09.12-.12.16a6.669,6.669,0,0,0-.77,1.13,8.468,8.468,0,0,0-.61,1.41,4.963,4.963,0,0,0-.22,1.53c0,.74.45,1.11,1.34,1.11a2.068,2.068,0,0,0,1.17-.36,2.8,2.8,0,0,0,.86-.89,1.912,1.912,0,0,0,.32-.96,1.247,1.247,0,0,0-.32-.85,5.477,5.477,0,0,0-.88-.77,5.5,5.5,0,0,1-.53-.43.482.482,0,0,1-.17-.28q0-.165.24-.27a1.4,1.4,0,0,1,.56-.1.69.69,0,0,1,.24.02.076.076,0,0,1,.06.08.206.206,0,0,1-.05.09.211.211,0,0,0-.05.11c0,.03.09.12.28.28a6.413,6.413,0,0,1,.94.94,1.764,1.764,0,0,1,.38,1.12,2.674,2.674,0,0,1-.41,1.26Z" fill="#ff819f"/>
      <path id="Path_1888" data-name="Path 1888" d="M116.11,10.71a.484.484,0,0,1-.35.13c-.19,0-.36-.2-.51-.59a4.621,4.621,0,0,1-.29-1.22c-.04-.4-.07-1.21-.08-2.44,0-.2-.02-.39-.02-.59s0-.37-.01-.51a20.661,20.661,0,0,1-1.11,2.2,16.068,16.068,0,0,1-1.41,2.11c-.47.58-.86.88-1.15.88a.612.612,0,0,1-.61-.49,5.778,5.778,0,0,1-.15-1.55,11.515,11.515,0,0,1,.26-2.25,7.533,7.533,0,0,1,.6-1.92,1.413,1.413,0,0,1,.24-.4.312.312,0,0,1,.22-.11c.23,0,.35.05.35.14a1.075,1.075,0,0,1-.14.32,8.917,8.917,0,0,0-.66,1.68,9.757,9.757,0,0,0-.28,2.63c0,.74.1,1.11.31,1.11.24,0,.57-.27.99-.8a14.875,14.875,0,0,0,1.24-1.92,18.39,18.39,0,0,0,.94-1.95,7.387,7.387,0,0,0,.25-.87c.03-.16.06-.27.08-.34s.06-.11.1-.11a.607.607,0,0,1,.34.13c.13.09.18.17.18.27,0,.45.02,1.22.05,2.3s.07,1.84.12,2.26a2.95,2.95,0,0,0,.2.85,1.9,1.9,0,0,0,.29.48.723.723,0,0,1,.14.22.446.446,0,0,1-.13.35Z" fill="#ff819f"/>
      <path id="Path_1889" data-name="Path 1889" d="M123.41,4.99a.49.49,0,0,1-.3.16.293.293,0,0,1-.19-.08,1.8,1.8,0,0,1-.2-.24,1,1,0,0,0-.26-.24.6.6,0,0,0-.33-.1c-.27,0-.63.36-1.09,1.07a15.4,15.4,0,0,0-1.34,2.7c0,.21.03.49.05.81s.04.57.05.73l.04.56a.742.742,0,0,1-.08.34.328.328,0,0,1-.31.15c-.16,0-.26-.21-.31-.64a16.778,16.778,0,0,1-.08-1.86c0-.21-.02-.5-.02-.88s-.02-.84-.04-1.37c-.03-.8-.04-1.38-.04-1.72,0-.21.13-.32.39-.32a.269.269,0,0,1,.29.2,4.193,4.193,0,0,1,.05.78V7.27a10.751,10.751,0,0,1,.91-1.86,5.831,5.831,0,0,1,.96-1.2,1.312,1.312,0,0,1,.83-.41,1.347,1.347,0,0,1,.59.14,1.16,1.16,0,0,1,.45.36.685.685,0,0,1,.17.41.473.473,0,0,1-.17.29Z" fill="#ff819f"/>
      <path id="Path_1890" data-name="Path 1890" d="M130.52,9.82a3.53,3.53,0,0,1-1.31.91,4.288,4.288,0,0,1-1.69.34,2.045,2.045,0,0,1-.81-.11.35.35,0,0,1-.21-.31c0-.08.11-.23.32-.44s.36-.32.43-.32c.11,0,.17.02.17.07a.127.127,0,0,1-.07.11.126.126,0,0,0-.07.1c0,.04.06.08.18.11a1.352,1.352,0,0,0,.43.06,3.284,3.284,0,0,0,1.18-.22,2.862,2.862,0,0,0,.97-.57,1.016,1.016,0,0,0,.38-.74.769.769,0,0,0-.24-.6,1.484,1.484,0,0,0-.59-.33q-.36-.105-1.2-.3c-.62-.14-1.09-.26-1.44-.37a2.416,2.416,0,0,1-.82-.41.745.745,0,0,1-.31-.62,1.6,1.6,0,0,1,.66-1.23,5.036,5.036,0,0,1,1.51-.88,4.214,4.214,0,0,1,1.32-.32c.31,0,.48.09.48.28a.816.816,0,0,1-.11.37.379.379,0,0,1-.34.2.323.323,0,0,1-.18-.06.361.361,0,0,0-.2-.06,3.447,3.447,0,0,0-.88.18,3.3,3.3,0,0,0-1.09.55,1.064,1.064,0,0,0-.49.88.542.542,0,0,0,.38.5,9.562,9.562,0,0,0,1.43.4,1.136,1.136,0,0,0,.25.06,1.2,1.2,0,0,1,.22.05,6.734,6.734,0,0,1,1.65.57,1.043,1.043,0,0,1,.57.97,1.731,1.731,0,0,1-.5,1.18Z" fill="#ff819f"/>
      <path id="Path_1891" data-name="Path 1891" d="M139,7.24a3.791,3.791,0,0,1-.37,1.11,4.928,4.928,0,0,1-1.12,1.58,2.519,2.519,0,0,1-1.84.73,2.128,2.128,0,0,1-1.5-.56,2.246,2.246,0,0,1-.6-1.72,5.085,5.085,0,0,1,.5-2.16,4.88,4.88,0,0,1,1.32-1.75,2.608,2.608,0,0,1,1.68-.68,1.622,1.622,0,0,1,.88.23.746.746,0,0,1,.36.67,1.264,1.264,0,0,1-.55.95,5.212,5.212,0,0,1-1.43.81,8.933,8.933,0,0,1-1.82.5,5.085,5.085,0,0,0-.17,1.26,1.863,1.863,0,0,0,.39,1.26,1.368,1.368,0,0,0,1.1.45,2.224,2.224,0,0,0,1.75-.77,7.106,7.106,0,0,0,1.12-1.74c.02-.04.05-.11.1-.22s.09-.16.13-.16c.07,0,.1.07.1.21Zm-1.56-2.76a1.134,1.134,0,0,0-.54-.13,1.746,1.746,0,0,0-1.02.35,3.12,3.12,0,0,0-.82.84,3.153,3.153,0,0,0-.43.87,5.4,5.4,0,0,0,1.36-.36,6.048,6.048,0,0,0,1.2-.64q.48-.345.48-.57a.387.387,0,0,0-.23-.35Z" fill="#ff819f"/>
      <path id="Path_1892" data-name="Path 1892" d="M142.68,10.44a.911.911,0,0,1-.41.08c-.11,0-.22-.13-.32-.4a3.675,3.675,0,0,1-.15-1.21c0-1.05.03-2.33.05-3.82s.04-2.62.06-3.37a2.143,2.143,0,0,1,.15-.76.485.485,0,0,1,.47-.35.156.156,0,0,1,.15.12,2.2,2.2,0,0,1,.03.45v.36q-.255,3.69-.25,7.18a2.614,2.614,0,0,0,.2.95c.13.34.2.51.2.53a.247.247,0,0,1-.18.22Z" fill="#ff819f"/>
      <path id="Path_1893" data-name="Path 1893" d="M152.39,3.7a.883.883,0,0,0-.23.18,8.273,8.273,0,0,0-1.36,2.37,18.476,18.476,0,0,0-.99,3.33c-.03.14-.08.42-.14.84l-.07.49a.573.573,0,0,1-.19.35.823.823,0,0,1-.51.13,2.833,2.833,0,0,1-.48-.85c-.27-.57-.55-1.17-.85-1.83l-.6-1.32c-.36-.79-.67-1.41-.91-1.86s-.42-.67-.53-.67a.093.093,0,0,0-.09.07c-.02.05-.05.07-.08.07a.143.143,0,0,1-.12-.06.235.235,0,0,1-.05-.13,1,1,0,0,1,.2-.48c.13-.2.27-.29.4-.29a.328.328,0,0,1,.21.06.8.8,0,0,1,.13.13.478.478,0,0,1,.08.11,14.594,14.594,0,0,1,1.16,2.21c.2.42.68,1.52,1.46,3.29l.32.74a8.557,8.557,0,0,1,.14-1.18,19.845,19.845,0,0,1,.92-3.28,11,11,0,0,1,1.44-2.72,2.716,2.716,0,0,1,.27-.32.4.4,0,0,1,.27-.09c.05,0,.12.07.22.22a.759.759,0,0,1,.15.29c0,.05-.06.11-.19.2Z" fill="#ff819f"/>
      <path id="Path_1894" data-name="Path 1894" d="M159.99,7.24a3.791,3.791,0,0,1-.37,1.11,4.928,4.928,0,0,1-1.12,1.58,2.519,2.519,0,0,1-1.84.73,2.128,2.128,0,0,1-1.5-.56,2.246,2.246,0,0,1-.6-1.72,5.085,5.085,0,0,1,.5-2.16,4.88,4.88,0,0,1,1.32-1.75,2.608,2.608,0,0,1,1.68-.68,1.622,1.622,0,0,1,.88.23.746.746,0,0,1,.36.67,1.264,1.264,0,0,1-.55.95,5.212,5.212,0,0,1-1.43.81,8.933,8.933,0,0,1-1.82.5,5.085,5.085,0,0,0-.17,1.26,1.863,1.863,0,0,0,.39,1.26,1.368,1.368,0,0,0,1.1.45,2.224,2.224,0,0,0,1.75-.77,7.106,7.106,0,0,0,1.12-1.74c.02-.04.05-.11.1-.22s.09-.16.13-.16c.07,0,.1.07.1.21Zm-1.56-2.76a1.134,1.134,0,0,0-.54-.13,1.746,1.746,0,0,0-1.02.35,3.12,3.12,0,0,0-.82.84,3.153,3.153,0,0,0-.43.87,5.4,5.4,0,0,0,1.36-.36,6.048,6.048,0,0,0,1.2-.64q.48-.345.48-.57a.387.387,0,0,0-.23-.35Z" fill="#ff819f"/>
      <path id="Path_1895" data-name="Path 1895" d="M167.04,9.82a3.53,3.53,0,0,1-1.31.91,4.288,4.288,0,0,1-1.69.34,2.045,2.045,0,0,1-.81-.11.35.35,0,0,1-.21-.31c0-.08.11-.23.32-.44s.36-.32.43-.32c.11,0,.17.02.17.07a.127.127,0,0,1-.07.11.126.126,0,0,0-.07.1c0,.04.06.08.18.11a1.351,1.351,0,0,0,.43.06,3.284,3.284,0,0,0,1.18-.22,2.862,2.862,0,0,0,.97-.57,1.016,1.016,0,0,0,.38-.74.769.769,0,0,0-.24-.6,1.484,1.484,0,0,0-.59-.33q-.36-.105-1.2-.3c-.62-.14-1.09-.26-1.44-.37a2.416,2.416,0,0,1-.82-.41.745.745,0,0,1-.31-.62A1.6,1.6,0,0,1,163,4.95a5.036,5.036,0,0,1,1.51-.88,4.214,4.214,0,0,1,1.32-.32c.31,0,.48.09.48.28a.816.816,0,0,1-.11.37.379.379,0,0,1-.34.2.323.323,0,0,1-.18-.06.361.361,0,0,0-.2-.06,3.447,3.447,0,0,0-.88.18,3.3,3.3,0,0,0-1.09.55,1.064,1.064,0,0,0-.49.88.542.542,0,0,0,.38.5,9.561,9.561,0,0,0,1.43.4,1.136,1.136,0,0,0,.25.06,1.2,1.2,0,0,1,.22.05,6.734,6.734,0,0,1,1.65.57,1.043,1.043,0,0,1,.57.97,1.731,1.731,0,0,1-.5,1.18Z" fill="#ff819f"/>
      <path id="Path_1896" data-name="Path 1896" d="M181.54,5.17a2.195,2.195,0,0,1-.74.2c-.86.15-1.34.23-1.44.25l-.91.15c0,.49,0,.99.02,1.53s.03,1,.06,1.4a5.322,5.322,0,0,0,.2,1.25c.09.29.14.45.15.49a.343.343,0,0,1-.17.26.609.609,0,0,1-.33.12.217.217,0,0,1-.14-.05.4.4,0,0,1-.1-.16,3.01,3.01,0,0,1-.16-.73c-.05-.35-.09-.75-.12-1.18-.03-.38-.05-.83-.06-1.34s-.02-1-.02-1.48c-.52.08-1.06.19-1.61.31a7.466,7.466,0,0,1-.88.15.5.5,0,0,1-.31-.1.306.306,0,0,1-.15-.27.233.233,0,0,1,.13-.24,1.063,1.063,0,0,1,.42-.06,3.855,3.855,0,0,0,.62-.08c.27-.05.44-.09.52-.1.63-.12,1.05-.2,1.27-.24,0-.2,0-.45-.03-.77-.02-.43-.03-.76-.03-.98,0-.36.01-.65.03-.85a2.137,2.137,0,0,1,.13-.54.4.4,0,0,1,.42-.28.25.25,0,0,1,.17.04.208.208,0,0,1,.04.15,3.692,3.692,0,0,1-.07.49,6.261,6.261,0,0,0-.07,1.08c0,.34,0,.73.03,1.16v.38c.43-.07,1.26-.24,2.51-.52.08-.02.14-.08.19-.2s.1-.17.16-.17a.426.426,0,0,1,.31.18.53.53,0,0,1,.16.36.4.4,0,0,1-.2.36Z" fill="#ff819f"/>
      <path id="Path_1897" data-name="Path 1897" d="M188.31,8.96a3.6,3.6,0,0,1-1.15,1.22,2.906,2.906,0,0,1-1.69.51,1.725,1.725,0,0,1-1.39-.52,1.878,1.878,0,0,1-.45-1.29,6.956,6.956,0,0,1,.25-1.67,6.871,6.871,0,0,1,.69-1.78c.02-.04.1-.18.23-.41a1.705,1.705,0,0,1,.46-.55.842.842,0,0,1,.53-.19.464.464,0,0,1,.23.06.194.194,0,0,1,.11.16c0,.02-.03.06-.08.13s-.09.12-.12.16a6.669,6.669,0,0,0-.77,1.13,8.468,8.468,0,0,0-.61,1.41,4.963,4.963,0,0,0-.22,1.53c0,.74.45,1.11,1.34,1.11a2.068,2.068,0,0,0,1.17-.36,2.8,2.8,0,0,0,.86-.89,1.912,1.912,0,0,0,.32-.96,1.247,1.247,0,0,0-.32-.85,5.477,5.477,0,0,0-.88-.77,5.5,5.5,0,0,1-.53-.43.482.482,0,0,1-.17-.28q0-.165.24-.27a1.4,1.4,0,0,1,.56-.1.69.69,0,0,1,.24.02.076.076,0,0,1,.06.08.206.206,0,0,1-.05.09.211.211,0,0,0-.05.11c0,.03.09.12.28.28a6.413,6.413,0,0,1,.94.94,1.764,1.764,0,0,1,.38,1.12A2.674,2.674,0,0,1,188.31,8.96Z" fill="#ff819f"/>
      <path id="Path_1898" data-name="Path 1898" d="M196.26,1.02c0,.19,0,.55-.03,1.1s-.03,1.09-.03,1.64c0,1.06.02,2.15.07,3.25s.08,1.83.11,2.18a1.087,1.087,0,0,0,.01.18.842.842,0,0,0,.03.18,4.724,4.724,0,0,1,.06.48c0,.09-.07.18-.2.27a.755.755,0,0,1-.32.13.192.192,0,0,1-.2-.12.954.954,0,0,1-.05-.33c0-.51.01-1.05.04-1.61V7.59c.01-.26,0-.6,0-1.03s-.02-.78-.04-1.07a17.325,17.325,0,0,1-1.62,3.8q-.9,1.5-1.95,1.5a.977.977,0,0,1-.81-.45A2.156,2.156,0,0,1,191,9.05a4.891,4.891,0,0,1,.75-2.41,10.344,10.344,0,0,1,1.71-2.24c.64-.62,1.11-.94,1.42-.94s.45.1.45.29a1.044,1.044,0,0,1-.13.46,3.447,3.447,0,0,1-.29.47c-.11.14-.17.21-.19.21a.073.073,0,0,1-.06-.02c-.02-.02-.04-.03-.04-.05a.643.643,0,0,1,.07-.24.7.7,0,0,0,.07-.22.251.251,0,0,0-.01-.1c0-.02-.04-.03-.08-.03-.2,0-.55.27-1.06.8a9.336,9.336,0,0,0-1.37,1.91,4.243,4.243,0,0,0-.6,2.06,1.523,1.523,0,0,0,.14.63.466.466,0,0,0,.46.29c.68,0,1.31-.58,1.9-1.73a23.184,23.184,0,0,0,1.52-3.93l-.03-1.18c-.03-1.04-.04-1.59-.04-1.65a6.765,6.765,0,0,1,.07-1.2.985.985,0,0,1,.06-.2q.03-.06.15-.06a.514.514,0,0,1,.28.09.285.285,0,0,1,.14.25l-.03.69Z" fill="#ff819f"/>
      <path id="Path_1899" data-name="Path 1899" d="M205.21,9.91a.281.281,0,0,1,.1.17.743.743,0,0,1-.14.38c-.09.14-.19.22-.28.22a.394.394,0,0,1-.36-.29,1.806,1.806,0,0,1-.13-.69c0-.22.01-.9.04-2.02V7.15a.538.538,0,0,0-.15-.46c-.42.71-.81,1.33-1.18,1.85a7.657,7.657,0,0,1-1.39,1.48,2.746,2.746,0,0,1-1.76.69.849.849,0,0,1-.69-.28,1.094,1.094,0,0,1-.25-.73,3.742,3.742,0,0,1,.5-1.53,12.056,12.056,0,0,1,1.29-1.97,10.449,10.449,0,0,1,1.57-1.65,4.774,4.774,0,0,1,.83-.57,1.3,1.3,0,0,1,.55-.15.939.939,0,0,1,.46.14,1.263,1.263,0,0,1,.41.39.956.956,0,0,1,.17.57,1.592,1.592,0,0,1-.24.83l.24-.07c.1,0,.16.13.18.38,0,.15.02.45.04.91s.03.83.04,1.13.02.61.03.9.02.52.03.69a.337.337,0,0,0,.11.2Zm-3.6-.51a6.411,6.411,0,0,0,1.25-1.34c.37-.52.78-1.15,1.22-1.91a2.456,2.456,0,0,0,.17-.91.8.8,0,0,0-.17-.51.589.589,0,0,0-.47-.22,1.581,1.581,0,0,0-.9.48,9.851,9.851,0,0,0-1.33,1.42,11.573,11.573,0,0,0-1.16,1.76,3.193,3.193,0,0,0-.46,1.37q0,.42.39.42A2.35,2.35,0,0,0,201.61,9.4Z" fill="#ff819f"/>
      <path id="Path_1900" data-name="Path 1900" d="M212.58,5.81c-.11.82-.17,1.28-.18,1.39-.12,1.15-.21,2.02-.26,2.62s-.08,1.15-.08,1.63a3.955,3.955,0,0,0,.09.95,2.594,2.594,0,0,0,.2.55.937.937,0,0,1,.11.25c0,.08-.08.16-.22.22a1.186,1.186,0,0,1-.46.1c-.12,0-.22-.16-.29-.49a8.161,8.161,0,0,1-.1-1.53,19.774,19.774,0,0,1,.15-2.11l.21-1.93a7.333,7.333,0,0,1-.93,1.39,1.551,1.551,0,0,1-1.14.67c-.36,0-.69-.32-.98-.95a9.615,9.615,0,0,1-.68-2.16,10.525,10.525,0,0,1-.25-1.76c0-.23.07-.35.21-.35q.315,0,.39.57c.35,2.59.85,3.89,1.48,3.89a.922.922,0,0,0,.67-.3,5.924,5.924,0,0,0,.68-.93,7.022,7.022,0,0,0,.39-.78c.14-.33.25-.6.32-.81l.1-1.41a2.051,2.051,0,0,1,.08-.45.213.213,0,0,1,.22-.13.376.376,0,0,1,.28.16.506.506,0,0,1,.14.32,13.55,13.55,0,0,1-.15,1.4Z" fill="#ff819f"/>
      <path id="Path_1901" data-name="Path 1901" d="M216.69,10.95a.591.591,0,0,1-.48-.3,2.835,2.835,0,0,1-.35-.67,1.9,1.9,0,0,1-.13-.48.4.4,0,0,1,.15-.29.46.46,0,0,1,.3-.14.164.164,0,0,1,.15.08c.04.05.09.14.17.26a.832.832,0,0,0,.24.32,1.048,1.048,0,0,1,.3.52,2.154,2.154,0,0,1,.12.5c0,.14-.15.21-.46.21Z" fill="#ff819f"/>
    </g>
  </g>
</svg>
