<svg xmlns="http://www.w3.org/2000/svg" xmlns:xlink="http://www.w3.org/1999/xlink" width="111" height="77.05" viewBox="0 0 111 77.05">
  <defs>
    <filter id="Path_1313" x="0" y="0" width="111" height="77.05" filterUnits="userSpaceOnUse">
      <feOffset dy="3" input="SourceAlpha"/>
      <feGaussianBlur stdDeviation="3" result="blur"/>
      <feFlood flood-color="#ffa8a8"/>
      <feComposite operator="in" in2="blur"/>
      <feComposite in="SourceGraphic"/>
    </filter>
  </defs>
  <g id="group_active" transform="translate(9 -86.25)">
    <g transform="matrix(1, 0, 0, 1, -9, 86.25)" filter="url(#Path_1313)">
      <path id="Path_1313-2" data-name="Path 1313" d="M80.432,118.233a10.618,10.618,0,1,0-12.182,0,18.4,18.4,0,0,0-6.275,3.68,23.8,23.8,0,0,0-8.612-4.692,13.451,13.451,0,1,0-13.911,0,24,24,0,0,0-8.52,4.637,18.546,18.546,0,0,0-6.2-3.607,10.618,10.618,0,1,0-12.182,0A18.637,18.637,0,0,0,0,135.861v1.214a.079.079,0,0,0,.074.074h22.5a24.75,24.75,0,0,0-.2,3.11v1.251a9.785,9.785,0,0,0,9.789,9.789H60.687a9.785,9.785,0,0,0,9.789-9.789v-1.251a24.75,24.75,0,0,0-.2-3.11H92.926a.079.079,0,0,0,.074-.074v-1.214A18.709,18.709,0,0,0,80.432,118.233Zm-13.764-8.7a7.673,7.673,0,1,1,7.821,7.673h-.294A7.662,7.662,0,0,1,66.668,109.529Zm-30.8-3.827A10.507,10.507,0,1,1,46.978,116.19H45.764A10.522,10.522,0,0,1,35.864,105.7Zm-24.952,3.827a7.673,7.673,0,1,1,7.821,7.673h-.294A7.674,7.674,0,0,1,10.912,109.529Zm12.182,24.658H2.981a15.723,15.723,0,0,1,15.494-14.04H18.7a15.559,15.559,0,0,1,10.029,3.735A24.161,24.161,0,0,0,23.094,134.186Zm44.4,7.324a6.856,6.856,0,0,1-6.845,6.845H32.129a6.856,6.856,0,0,1-6.845-6.845v-1.251a21.138,21.138,0,0,1,20.481-21.106c.2.018.423.018.626.018s.423,0,.626-.018A21.138,21.138,0,0,1,67.5,140.259Zm2.19-7.324a24.1,24.1,0,0,0-5.576-10.231,15.634,15.634,0,0,1,10.121-3.809h.221a15.723,15.723,0,0,1,15.494,14.04Z" transform="translate(9 -86.25)" fill="#fffcfd"/>
    </g>
  </g>
</svg>
