<svg xmlns="http://www.w3.org/2000/svg" width="54.568" height="33.7" viewBox="0 0 54.568 33.7">
  <g id="handshake" transform="translate(0 -97.901)">
    <path id="Path_1348" data-name="Path 1348" d="M1.034,114.906l4.349,1.716a1.629,1.629,0,0,0,1.649-.269l3.444,2.172.591.415a2.911,2.911,0,0,0,2.782,4.445,2.91,2.91,0,0,0,3.223,2.734,2.91,2.91,0,0,0,3.225,2.733,2.91,2.91,0,0,0,5.126,1.724l.691-.811,1.165.859a3.206,3.206,0,0,0,5.122-2.2,3.184,3.184,0,0,0,4.312-2.935,3.188,3.188,0,0,0,3.8-2.938,3.184,3.184,0,0,0,3.713-4.395l3.112-2a1.633,1.633,0,0,0,1.846.467l4.349-1.716a1.634,1.634,0,0,0,.919-2.117l-1.988-5.038a.8.8,0,0,0-1.487.587l1.988,5.038a.034.034,0,0,1-.019.043L48.6,115.134a.033.033,0,0,1-.043-.019l-5.465-13.854a.03.03,0,0,1,0-.025.032.032,0,0,1,.018-.018L47.458,99.5a.03.03,0,0,1,.026,0,.031.031,0,0,1,.018.018l2.107,5.341a.8.8,0,0,0,1.487-.587l-2.107-5.341a1.634,1.634,0,0,0-2.117-.919l-4.349,1.716a1.629,1.629,0,0,0-.979,1.931l-2.331.861a4.539,4.539,0,0,1-2.277.224l-2.357-.374a.8.8,0,0,0-.25,1.579l2.357.374a6.142,6.142,0,0,0,3.081-.3l2.353-.868,4.549,11.532-3.43,2.2-.058-.043h0l-6.612-4.879a.8.8,0,0,0-.629-.142,9.3,9.3,0,0,1-8.461-2.893,1.807,1.807,0,0,0-2.523-.087c-2.117,1.9-5.076,3.756-7.147,1.788a.476.476,0,0,1,.105-.758,47.243,47.243,0,0,0,7.568-6.3,2.431,2.431,0,0,1,2.107-.689l3.034.481a.8.8,0,0,0,.25-1.579l-3.034-.481a4.034,4.034,0,0,0-3.494,1.144c-.254.257-.555.556-.894.883a11.41,11.41,0,0,0-3.176-.641,36.821,36.821,0,0,0-4.173-.166,3.724,3.724,0,0,1-1.666-.279l-1.409-.589a1.634,1.634,0,0,0-.98-1.926L7.7,98.015a1.634,1.634,0,0,0-2.117.919L.114,112.788a1.631,1.631,0,0,0,.919,2.117Zm13.5,6.434a1.314,1.314,0,0,1-2.005-1.7l1.977-2.321a1.314,1.314,0,1,1,2,1.7h0Zm3.223,2.733a1.314,1.314,0,0,1-2.005-1.7l1.977-2.321a1.318,1.318,0,0,1,1.949-.061l.01.012a1.315,1.315,0,0,1,.045,1.749Zm3.223,2.733a1.314,1.314,0,0,1-2.005-1.7l1.977-2.321a1.314,1.314,0,0,1,2,1.7h0Zm5.21.4-.01.012L24.2,129.54a1.314,1.314,0,0,1-2.005-1.7l1.977-2.321a1.313,1.313,0,0,1,2.015,1.685ZM12.452,103.15l1.366.572a5.328,5.328,0,0,0,2.385.4,36.865,36.865,0,0,1,3.981.166,9.812,9.812,0,0,1,1.92.3,40.369,40.369,0,0,1-5.08,3.958,2.073,2.073,0,0,0-.318,3.246c1.335,1.269,4.322,2.727,9.316-1.758a.215.215,0,0,1,.3,0,11.011,11.011,0,0,0,9.552,3.415c.42.295-.393-.3,6.355,4.68h0a1.637,1.637,0,0,1,.359,2.3,1.59,1.59,0,0,1-2.209.3c-.947-.7-.248-.167-3.578-2.733a.8.8,0,1,0-.976,1.266l2.763,2.129a1.607,1.607,0,0,1-.144,2.1,1.641,1.641,0,0,1-2.121.122c-.634-.468-.107-.067-3.013-2.3a.8.8,0,0,0-.975,1.267l2.45,1.886a1.6,1.6,0,0,1-.065,2.032,1.64,1.64,0,0,1-2.193.2c-1.1-.814-.549-.393-2.672-2.037a.8.8,0,1,0-.978,1.264l1.7,1.314a1.6,1.6,0,0,1-.2,1.952,1.634,1.634,0,0,1-2.149.149l-1.075-.793.247-.29a2.912,2.912,0,0,0-2.538-4.779,2.91,2.91,0,0,0-3.146-2.741l-.077.007c0-.026,0-.051,0-.077a2.891,2.891,0,0,0-.688-1.652L20.939,119a2.913,2.913,0,0,0-2.523-.994,2.912,2.912,0,0,0-5.128-1.724l-1.2,1.414-.7-.495-.033-.022L7.8,114.946ZM1.6,113.375,7.067,99.522A.033.033,0,0,1,7.1,99.5l.012,0,4.349,1.716a.033.033,0,0,1,.019.043L6.013,115.116a.033.033,0,0,1-.043.019L1.62,113.419a.033.033,0,0,1-.019-.043Z" transform="translate(0)" fill="#f2a8b9"/>
  </g>
</svg>
