<svg xmlns="http://www.w3.org/2000/svg" xmlns:xlink="http://www.w3.org/1999/xlink" width="109.284" height="74.375" viewBox="0 0 109.284 74.375">
  <defs>
    <filter id="Path_1348" x="0" y="0" width="109.284" height="74.375" filterUnits="userSpaceOnUse">
      <feOffset dy="3" input="SourceAlpha"/>
      <feGaussianBlur stdDeviation="3" result="blur"/>
      <feFlood flood-color="#ffa8a8" flood-opacity="0.161"/>
      <feComposite operator="in" in2="blur"/>
      <feComposite in="SourceGraphic"/>
    </filter>
  </defs>
  <g id="handshake_active" transform="translate(9 -91.901)">
    <g transform="matrix(1, 0, 0, 1, -9, 91.9)" filter="url(#Path_1348)">
      <path id="Path_1348-2" data-name="Path 1348" d="M1.729,126.347,9,129.217a2.726,2.726,0,0,0,2.759-.449l5.761,3.633.988.695a4.87,4.87,0,0,0,4.654,7.435,4.867,4.867,0,0,0,5.392,4.573,4.868,4.868,0,0,0,5.395,4.572,4.869,4.869,0,0,0,8.575,2.884l1.156-1.357,1.948,1.438a5.363,5.363,0,0,0,8.568-3.683,5.326,5.326,0,0,0,7.214-4.91,5.334,5.334,0,0,0,6.36-4.916,5.327,5.327,0,0,0,6.212-7.352l5.206-3.344a2.732,2.732,0,0,0,3.089.781l7.275-2.87a2.733,2.733,0,0,0,1.538-3.542l-3.325-8.428a1.337,1.337,0,0,0-2.488.981l3.325,8.428a.056.056,0,0,1-.031.073l-7.275,2.87a.056.056,0,0,1-.073-.031l-9.143-23.175a.051.051,0,0,1,0-.043.053.053,0,0,1,.031-.03l7.275-2.87a.051.051,0,0,1,.043,0,.053.053,0,0,1,.03.031l3.525,8.935a1.337,1.337,0,0,0,2.488-.981L81.951,99.63a2.733,2.733,0,0,0-3.541-1.538l-7.275,2.87a2.725,2.725,0,0,0-1.637,3.23l-3.9,1.439a7.592,7.592,0,0,1-3.81.375l-3.942-.625a1.337,1.337,0,0,0-.419,2.641l3.942.625a10.274,10.274,0,0,0,5.155-.508l3.935-1.453,7.61,19.291-5.738,3.685-.1-.072h0l-11.06-8.162a1.342,1.342,0,0,0-1.053-.237,15.553,15.553,0,0,1-14.154-4.84,3.022,3.022,0,0,0-4.22-.145c-3.542,3.181-8.492,6.283-11.955,2.992a.8.8,0,0,1,.176-1.268,79.03,79.03,0,0,0,12.659-10.543,4.067,4.067,0,0,1,3.524-1.152l5.076.8a1.337,1.337,0,0,0,.419-2.641l-5.076-.8a6.749,6.749,0,0,0-5.844,1.913c-.425.43-.929.93-1.5,1.478a19.088,19.088,0,0,0-5.312-1.072,61.6,61.6,0,0,0-6.981-.277,6.23,6.23,0,0,1-2.787-.467l-2.357-.986a2.733,2.733,0,0,0-1.64-3.222l-7.275-2.87A2.733,2.733,0,0,0,9.334,99.63L.191,122.805a2.729,2.729,0,0,0,1.538,3.542Zm22.584,10.764a2.2,2.2,0,0,1-3.354-2.84l3.307-3.882a2.2,2.2,0,1,1,3.353,2.842h0Zm5.392,4.572a2.2,2.2,0,0,1-3.354-2.84l3.307-3.882a2.2,2.2,0,0,1,3.26-.1l.017.02a2.2,2.2,0,0,1,.075,2.925Zm5.392,4.572a2.2,2.2,0,0,1-3.355-2.84l3.308-3.882a2.2,2.2,0,0,1,3.353,2.843h0Zm8.716.669-.016.021-3.308,3.882a2.2,2.2,0,0,1-3.354-2.84l3.308-3.882a2.2,2.2,0,0,1,3.371,2.819ZM20.83,106.681l2.285.956a8.912,8.912,0,0,0,3.99.669,61.669,61.669,0,0,1,6.66.278,16.414,16.414,0,0,1,3.212.5,67.531,67.531,0,0,1-8.5,6.621,3.468,3.468,0,0,0-.532,5.43c2.234,2.123,7.229,4.563,15.584-2.941a.359.359,0,0,1,.5,0,18.419,18.419,0,0,0,15.979,5.713c.7.493-.657-.5,10.631,7.828h0a2.738,2.738,0,0,1,.6,3.855,2.66,2.66,0,0,1-3.695.506c-1.585-1.17-.415-.279-5.985-4.572a1.337,1.337,0,1,0-1.633,2.118l4.622,3.561a2.689,2.689,0,0,1-.241,3.505,2.746,2.746,0,0,1-3.548.2c-1.06-.782-.179-.112-5.041-3.855a1.337,1.337,0,0,0-1.632,2.119l4.1,3.155a2.684,2.684,0,0,1-.109,3.4,2.744,2.744,0,0,1-3.668.327c-1.844-1.361-.919-.658-4.471-3.407a1.337,1.337,0,1,0-1.637,2.115l2.841,2.2a2.67,2.67,0,0,1-.33,3.265,2.734,2.734,0,0,1-3.6.25l-1.8-1.326.413-.485a4.872,4.872,0,0,0-4.246-7.994,4.868,4.868,0,0,0-5.262-4.585l-.13.012c0-.043,0-.086-.007-.129a4.835,4.835,0,0,0-1.15-2.764l-.012-.014a4.873,4.873,0,0,0-4.221-1.663,4.872,4.872,0,0,0-8.579-2.884l-2.015,2.365-1.178-.828-.056-.037-5.935-3.743ZM2.679,123.787l9.143-23.175a.056.056,0,0,1,.073-.032l7.275,2.87a.056.056,0,0,1,.032.072L10.058,126.7a.055.055,0,0,1-.072.031l-7.275-2.87a.055.055,0,0,1-.032-.072Z" transform="translate(9 -91.9)" fill="#fffcfd"/>
    </g>
  </g>
</svg>
