<svg xmlns="http://www.w3.org/2000/svg" width="50.816" height="51.769" viewBox="0 0 50.816 51.769">
  <g id="hospital" transform="translate(-4.715)">
    <path id="Path_1368" data-name="Path 1368" d="M54.014,48.736H52.035V1.517A1.517,1.517,0,0,0,50.518,0H9.728A1.517,1.517,0,0,0,8.211,1.517V48.736H6.232a1.517,1.517,0,1,0,0,3.033H54.014a1.517,1.517,0,0,0,0-3.033Zm-35.09-45.7h22.4V18.262h-22.4Zm3,45.7v-6.3h6.687v6.3Zm9.72,0v-6.3h6.687v6.3Zm9.72,0V40.924a1.517,1.517,0,0,0-1.517-1.517H20.4a1.517,1.517,0,0,0-1.517,1.517v7.812H11.244V3.033H15.89V19.779A1.517,1.517,0,0,0,17.407,21.3H42.839a1.517,1.517,0,0,0,1.517-1.517V3.033H49v45.7Z" transform="translate(0)" fill="#f2a6b7"/>
    <path id="Path_1369" data-name="Path 1369" d="M144.189,245.954h-7.433a1.517,1.517,0,0,0-1.517,1.517V254.9a1.517,1.517,0,0,0,1.517,1.517h7.433a1.517,1.517,0,0,0,1.517-1.517v-7.433A1.517,1.517,0,0,0,144.189,245.954Zm-1.517,7.433h-4.4v-4.4h4.4Z" transform="translate(-117.327 -221.085)" fill="#f2a6b7"/>
    <path id="Path_1370" data-name="Path 1370" d="M282.2,245.954h-7.432a1.517,1.517,0,0,0-1.517,1.517V254.9a1.517,1.517,0,0,0,1.517,1.517H282.2a1.517,1.517,0,0,0,1.517-1.517v-7.433A1.517,1.517,0,0,0,282.2,245.954Zm-1.517,7.433h-4.4v-4.4h4.4Z" transform="translate(-241.385 -221.085)" fill="#f2a6b7"/>
    <path id="Path_1371" data-name="Path 1371" d="M217.431,62.041h-1.663V60.379a1.517,1.517,0,1,0-3.033,0v1.663h-1.663a1.517,1.517,0,1,0,0,3.033h1.663v1.663a1.517,1.517,0,1,0,3.033,0V65.075h1.663a1.517,1.517,0,0,0,0-3.033Z" transform="translate(-184.129 -52.91)" fill="#f2a6b7"/>
  </g>
</svg>
