<svg id="icon_hospital" xmlns="http://www.w3.org/2000/svg" width="28" height="28" viewBox="0 0 28 28">
  <g id="Group_4" data-name="Group 4">
    <g id="Group_3" data-name="Group 3">
      <path id="Path_1381" data-name="Path 1381" d="M14,0A14,14,0,1,0,28,14,14.009,14.009,0,0,0,14,0Zm0,26.786A12.786,12.786,0,1,1,26.786,14,12.8,12.8,0,0,1,14,26.786Z" fill="#ffc2cc"/>
    </g>
  </g>
  <g id="Group_6" data-name="Group 6" transform="translate(6.106 6.106)">
    <g id="Group_5" data-name="Group 5">
      <path id="Path_1382" data-name="Path 1382" d="M87.581,77.258H83.33V73.007a.6.6,0,0,0-.607-.607H77.865a.6.6,0,0,0-.607.607v4.251H73.007a.6.6,0,0,0-.607.607v4.858a.6.6,0,0,0,.607.607h4.251v4.251a.6.6,0,0,0,.607.607h4.858a.6.6,0,0,0,.607-.607V83.33h4.251a.6.6,0,0,0,.607-.607V77.865A.652.652,0,0,0,87.581,77.258Zm-.573,4.858H82.723a.6.6,0,0,0-.607.607v4.251H78.472V82.723a.6.6,0,0,0-.607-.607H73.614V78.472h4.251a.6.6,0,0,0,.607-.607V73.614h3.677v4.251a.6.6,0,0,0,.607.607h4.251Z" transform="translate(-72.4 -72.4)" fill="#ffc2cc"/>
    </g>
  </g>
</svg>
