<svg xmlns="http://www.w3.org/2000/svg" width="92.631" height="92" viewBox="0 0 92.631 92">
  <g id="high-quality" transform="translate(0 -1.743)">
    <path id="Path_1476" data-name="Path 1476" d="M196.631,337.934l1.091-2.866h4.2L203,337.932l2.539-.958L200.986,324.9l-2.3,0-4.6,12.067Zm4.268-5.58h-2.143l1.076-2.826Z" transform="translate(-158.98 -264.692)" fill="#f9aeba"/>
    <path id="Path_1477" data-name="Path 1477" d="M272.435,324.906v12.772h6.239v-2.714h-3.525V324.906Z" transform="translate(-223.146 -264.697)" fill="#f9aeba"/>
    <path id="Path_1478" data-name="Path 1478" d="M418.815,335.932l.015-6.1,3.711-5.7-2.274-1.481-2.794,4.292-2.819-4.318-2.272,1.484,3.736,5.721-.015,6.094Z" transform="translate(-337.773 -262.83)" fill="#f9aeba"/>
    <path id="Path_1479" data-name="Path 1479" d="M131.98,333.189a4.717,4.717,0,0,0,4.79,4.5h.008a5.172,5.172,0,0,0,3.638-1.479,4.257,4.257,0,0,0,1.274-3.026V324.9h-2.714v8.277a1.522,1.522,0,0,1-.477,1.105,2.509,2.509,0,0,1-1.721.685h0a2.011,2.011,0,0,1-2.08-1.783V324.9H131.98v8.284Z" transform="translate(-108.102 -264.696)" fill="#f9aeba"/>
    <path id="Path_1480" data-name="Path 1480" d="M357.4,337.687V327.62h2.791v-2.714h-8.273v2.714h2.769v10.067Z" transform="translate(-288.25 -264.697)" fill="#f9aeba"/>
    <path id="Path_1481" data-name="Path 1481" d="M52.727,324.906a6.39,6.39,0,1,0,3.5,11.732l1.57,1.57,1.919-1.919L58.131,334.7a6.386,6.386,0,0,0-5.4-9.8Zm0,10.067a3.681,3.681,0,1,1,3.4-2.277l-1.546-1.546-1.919,1.919,1.577,1.577A3.652,3.652,0,0,1,52.727,334.973Z" transform="translate(-37.954 -264.697)" fill="#f9aeba"/>
    <path id="Path_1482" data-name="Path 1482" d="M321.919,324.906h2.714v12.781h-2.714Z" transform="translate(-263.678 -264.697)" fill="#f9aeba"/>
    <path id="Path_1483" data-name="Path 1483" d="M207.58,230.508h2.714v12.781H207.58Z" transform="translate(-170.025 -187.377)" fill="#f9aeba"/>
    <path id="Path_1484" data-name="Path 1484" d="M139.074,230.508v12.781h2.714v-5.206h4.253v5.206h2.714V230.508h-2.714v4.861h-4.253v-4.861Z" transform="translate(-113.913 -187.377)" fill="#f9aeba"/>
    <path id="Path_1485" data-name="Path 1485" d="M237.58,236.9a6.4,6.4,0,0,0,6.391,6.39c3.357,0,5.7-2.628,5.7-6.39v-1.357h-5.725v2.714h2.837a2.82,2.82,0,0,1-2.814,2.32,3.677,3.677,0,1,1,2.055-6.726l1.124.759,1.519-2.249-1.124-.76a6.391,6.391,0,0,0-9.964,5.3Z" transform="translate(-194.597 -187.378)" fill="#f9aeba"/>
    <path id="Path_1486" data-name="Path 1486" d="M319.42,231.462v12.781h2.714v-5.206h4.253v5.206H329.1v-5.206h0v-2.714h0v-4.861h-2.714v4.861h-4.253v-4.861Z" transform="translate(-261.631 -188.158)" fill="#f9aeba"/>
    <path id="Path_1487" data-name="Path 1487" d="M46.315,247.36c-24.042,0-43.6-13.548-43.6-30.2a22.381,22.381,0,0,1,3.777-12.285,33.6,33.6,0,0,1,10.4-9.979L15.44,192.6C5.628,198.834,0,207.784,0,217.159c0,8.884,4.882,17.2,13.745,23.425,8.718,6.119,20.285,9.489,32.57,9.489A60.212,60.212,0,0,0,72.3,244.422l-1.177-2.445a57.487,57.487,0,0,1-24.811,5.383Z" transform="translate(0 -156.331)" fill="#f9aeba"/>
    <path id="Path_1488" data-name="Path 1488" d="M159.769,155.892c-8.718-6.119-20.285-9.489-32.57-9.489a58.879,58.879,0,0,0-28.45,6.921l1.313,2.375a56.164,56.164,0,0,1,27.137-6.582c24.042,0,43.6,13.548,43.6,30.2,0,7.755-4.263,15.135-12,20.781l1.6,2.193c8.459-6.171,13.117-14.33,13.117-22.974C173.515,170.433,168.633,162.114,159.769,155.892Z" transform="translate(-80.884 -118.488)" fill="#f9aeba"/>
    <path id="Path_1489" data-name="Path 1489" d="M0,0H2.714V2.714H0Z" transform="matrix(0.852, -0.524, 0.524, 0.852, 73.479, 84.467)" fill="#f9aeba"/>
    <path id="Path_1490" data-name="Path 1490" d="M263.5,178.309h2.714v2.714H263.5Z" transform="translate(-215.828 -144.622)" fill="#f9aeba"/>
    <path id="Path_1491" data-name="Path 1491" d="M233.5,178.309h2.714v2.714H233.5Z" transform="translate(-191.255 -144.622)" fill="#f9aeba"/>
    <path id="Path_1492" data-name="Path 1492" d="M195.692,24.037l7.244-3.988,7.244,3.988-1.554-8.122,6.031-5.657-8.2-1.031-3.516-7.484-3.516,7.484-8.2,1.031,6.031,5.657Zm5.549-12.3,1.7-3.609,1.7,3.609,3.956.5-2.908,2.728.75,3.916-3.493-1.923-3.493,1.923.75-3.916-2.908-2.728Z" transform="translate(-156.621)" fill="#f9aeba"/>
    <path id="Path_1493" data-name="Path 1493" d="M353.787,47.558,359.4,53.63l1.089-8.2L368,41.969,360.54,38.4l-.974-8.212-5.7,5.991-8.111-1.612,3.937,7.272-4.039,7.215Zm-2.893-9.2,3.91.777,2.748-2.889.469,3.959,3.6,1.721L358,43.594l-.525,3.952-2.707-2.927-3.921.722,1.948-3.479Z" transform="translate(-283.119 -23.299)" fill="#f9aeba"/>
    <path id="Path_1494" data-name="Path 1494" d="M51.435,53.631l5.614-6.071,8.132,1.5-4.039-7.215,3.937-7.272-8.111,1.612-5.7-5.991L50.3,38.4l-7.459,3.569,7.509,3.464ZM52.815,40.2l.469-3.959,2.748,2.889,3.911-.777-1.9,3.506,1.947,3.479-3.921-.722-2.707,2.927L52.839,43.6l-3.62-1.67Z" transform="translate(-35.087 -23.3)" fill="#f9aeba"/>
  </g>
</svg>
