<svg xmlns="http://www.w3.org/2000/svg" width="29" height="29" viewBox="0 0 29 29">
  <path id="incoming-call" d="M22.38,10.417a1.16,1.16,0,0,1-1.64,0l-2-2a2.707,2.707,0,0,1,0-3.828l2-2a1.16,1.16,0,1,1,1.64,1.64l-2,2a.387.387,0,0,0,0,.547l2,2A1.16,1.16,0,0,1,22.38,10.417Zm8.46,17.74V25.611A3.093,3.093,0,0,0,28.9,22.739L25.749,21.48a3.093,3.093,0,0,0-3.916,1.489l-.274.548A15.13,15.13,0,0,1,14.6,19.65a15.13,15.13,0,0,1-3.867-6.96l.548-.274A3.093,3.093,0,0,0,12.77,8.5L11.511,5.355A3.093,3.093,0,0,0,8.639,3.41H6.093A3.093,3.093,0,0,0,3,6.5,24.747,24.747,0,0,0,27.747,31.25a3.093,3.093,0,0,0,3.093-3.093ZM24.927,8.417l2,2a1.16,1.16,0,0,0,1.64-1.64L27.454,7.663H30.84a1.16,1.16,0,0,0,0-2.32H27.454L28.567,4.23a1.16,1.16,0,0,0-1.64-1.64l-2,2A2.707,2.707,0,0,0,24.927,8.417Z" transform="translate(-3 -2.25)" fill="#ffccd5" fill-rule="evenodd"/>
</svg>
