<svg xmlns="http://www.w3.org/2000/svg" width="11.262" height="14.652" viewBox="0 0 11.262 14.652">
  <g id="locked-padlock" transform="translate(-56.313)">
    <path id="Path_1830" data-name="Path 1830" d="M66.776,5.917H66.49V4.581A4.555,4.555,0,0,0,62.078,0c-.067,0-.2,0-.268,0A4.555,4.555,0,0,0,57.4,4.581V5.917h-.286a.927.927,0,0,0-.8,1.015v6.7a.931.931,0,0,0,.8,1.018h9.664a.931.931,0,0,0,.8-1.018v-6.7A.927.927,0,0,0,66.776,5.917Zm-3.927,4.359V12.3a.432.432,0,0,1-.426.428h-.958a.432.432,0,0,1-.426-.428V10.276A1.226,1.226,0,0,1,61.81,8.19c.067,0,.2,0,.268,0a1.226,1.226,0,0,1,.771,2.086Zm1.759-4.359H59.279V4.581a2.665,2.665,0,1,1,5.33,0V5.917Z" fill="#6d6b6b"/>
  </g>
</svg>
