<svg id="logo_LS_simple2" xmlns="http://www.w3.org/2000/svg" width="185.134" height="41.918" viewBox="0 0 185.134 41.918">
  <g id="lifestar" transform="translate(0 11.113)">
    <path id="_ス_1380-2" d="M29.878,94.815H15V66.331h3.1v25.83H29.878v2.654Z" transform="translate(-15 -64.459)" fill="#f1a1b4"/>
    <path id="_ス_1381-2" d="M67.407,71.249a2.015,2.015,0,0,1-2.018-2.011q0-.06,0-.119a2.038,2.038,0,1,1,4.075-.088q0,.044,0,.088a1.982,1.982,0,0,1-2.06,2.131Zm1.57,23.962h-3.1V74.837h3.1V95.211Z" transform="translate(-43.332 -64.856)" fill="#f1a1b4"/>
    <path id="_ス_1382-2" d="M93.373,72.037c0-2.542,0-5.869,2.243-8.149a6.716,6.716,0,0,1,4.712-1.832,7.56,7.56,0,0,1,3.028.6l-.523,2.43a5.861,5.861,0,0,0-2.355-.486c-3.215,0-4,2.991-4,6.28v1.159h4.934v2.43H96.477V92.408h-3.1V74.467h-2.8v-2.43Z" transform="translate(-57.49 -62.055)" fill="#f1a1b4"/>
    <path id="_ス_1383-2" d="M143.778,103.732A14.775,14.775,0,0,1,137.386,105c-5.948,0-9.5-4.187-9.5-10.28,0-6.393,3.588-10.99,9.084-10.99,6.28,0,7.887,5.757,7.887,9.306,0,.71-.037,1.234-.075,1.719H130.919c.037,5.644,3.252,7.771,6.915,7.771a12.875,12.875,0,0,0,5.346-1.047l.6,2.243v.006ZM141.8,92.443c.037-2.766-1.122-6.355-5.121-6.355-3.742,0-5.383,3.55-5.682,6.355Z" transform="translate(-78.472 -74.244)" fill="#f1a1b4"/>
    <path id="_ス_1384-2" d="M225.278,69.3A9.676,9.676,0,0,0,220.269,68c-3.962,0-5.458,2.43-5.458,4.485,0,2.8,1.719,4.221,5.532,5.831,4.6,1.944,6.953,4.3,6.953,8.374,0,4.523-3.29,8-9.421,8a13.111,13.111,0,0,1-6.8-1.794l.864-2.579a11.609,11.609,0,0,0,6.131,1.757c3.813,0,6.056-2.056,6.056-5.121,0-2.8-1.535-4.523-5.234-6.018-4.3-1.607-7.215-4.112-7.215-8.037,0-4.337,3.513-7.513,8.71-7.513a11.572,11.572,0,0,1,5.831,1.343l-.934,2.579,0,0Z" transform="translate(-125.243 -63.92)" fill="#f1a1b4"/>
    <path id="_ス_1385-2" d="M265.61,75.048,268.675,74v4.747h5.269v2.429h-5.269V92.954c0,2.579.785,4,2.766,4a6.065,6.065,0,0,0,2.093-.3l.187,2.393a7.835,7.835,0,0,1-3.028.486c-4.934,0-5.085-4.485-5.085-6.654v-11.7h-3.139V78.749h3.14v-3.7Z" transform="translate(-154.141 -68.772)" fill="#f1a1b4"/>
    <path id="_ス_1386-2" d="M317.85,99.731a28.513,28.513,0,0,0,.3,4.859h-2.841l-.3-2.616h-.112a7.083,7.083,0,0,1-6.019,3.065,5.648,5.648,0,0,1-5.942-5.338q-.012-.228-.006-.456c0-4.893,4.262-7.551,11.812-7.513,0-1.719,0-5.607-4.635-5.607a8.815,8.815,0,0,0-4.972,1.458l-.747-2.131a11.592,11.592,0,0,1,6.214-1.721c5.757,0,7.252,4.075,7.252,8.112Zm-3.065-5.719c-3.85,0-8.672.56-8.672,4.859,0,2.616,1.644,3.775,3.513,3.775a4.981,4.981,0,0,0,5.159-4.785S314.785,94.012,314.785,94.012Z" transform="translate(-176.887 -74.242)" fill="#f1a1b4"/>
    <path id="_ス_1387-2" d="M368.341,86.886a9.368,9.368,0,0,0-1.122-.075c-3.365,0-5.085,3.327-5.085,6.766v11.065h-3.1V90.362c0-2.168-.037-4.149-.15-6.093h2.729l.15,3.925h.112a6.1,6.1,0,0,1,5.529-4.373,7.962,7.962,0,0,1,.934.112v2.953h0Z" transform="translate(-208.351 -74.293)" fill="#f1a1b4"/>
  </g>
  <g id="icon-star" transform="translate(164.02)">
    <path id="_ス_1407" d="M216.5,5.649a.339.339,0,0,0-.047-.095C216.408,5.7,216.5,5.649,216.5,5.649Z" transform="translate(-205.898 -4.035)" fill="#f2a5ba"/>
    <path id="_ス_1408" d="M215.683,8.967l-.023.213.023-.19V8.967Z" transform="translate(-205.458 -5.954)" fill="#f2a5ba"/>
    <path id="_ス_1409" d="M214.844,10.286h.023s.122,0,.142-.047h0l-.1-.19h0l.048-.213a.487.487,0,0,0-.213.047h0l.095.19a6.711,6.711,0,0,1-.213.711c.1-.071.143-.308.19-.5h.023Zm.1-.213-.047.166Z" transform="translate(-204.88 -6.442)" fill="#f2a5ba"/>
    <path id="_ス_1410" d="M213.7,13.087h0a.34.34,0,0,1-.047.166c.047-.023,0,.166.071-.166Z" transform="translate(-204.331 -8.271)" fill="#f2a5ba"/>
    <path id="_ス_1412" d="M213.161,14.36v-.19s-.071.19-.071.122c-.048.19,0,.166.071.071h0Z" transform="translate(-204.003 -8.879)" fill="#f2a5ba"/>
    <path id="_ス_1414" d="M213.376,14.329l-.048.213s.048,0,0-.095v-.122h0Z" transform="translate(-204.147 -8.967)" fill="#f2a5ba"/>
    <path id="_ス_1415" d="M213.437,14.814l.023-.071.05-.357-.071.427Z" transform="translate(-204.209 -9.001)" fill="#f2a5ba"/>
    <path id="_ス_1417" d="M210.506,17.789s-.122-.071-.023-.095a2.038,2.038,0,0,0-.4.071h.427Z" transform="translate(-202.321 -10.861)" fill="#f2a5ba"/>
    <path id="_ス_1418" d="M209.642,17.955a1.664,1.664,0,0,0,.19-.048A.256.256,0,0,0,209.642,17.955Z" transform="translate(-202.075 -10.98)" fill="#f2a5ba"/>
    <path id="_ス_1424" d="M210.139,18.094s-.213.023-.332.023h.4s.071-.047-.071-.047h0Z" transform="translate(-202.167 -11.072)" fill="#f2a5ba"/>
    <path id="_ス_1428" d="M208.83,18.064a.534.534,0,0,1,.166.023C208.948,18.087,208.83,18.04,208.83,18.064Z" transform="translate(-201.618 -11.065)" fill="#f2a5ba"/>
    <path id="_ス_1430" d="M211.412,18.126a.233.233,0,0,0-.142.047h.142Z" transform="translate(-202.99 -11.104)" fill="#f2a5ba"/>
    <path id="_ス_1431" d="M205.856,18.334s.522.071.332.122c-.308.023-.261,0-.4-.047.122.071-.4.095-.332.19l.261-.048s-.1.048,0,.048c0-.048.285-.095.522-.048.237-.047.071-.213-.122-.308,0,0,0,.047-.237.071h0Z" transform="translate(-199.716 -11.169)" fill="#f2a5ba"/>
    <path id="_ス_1432" d="M206.988,18.143h.548a2.071,2.071,0,0,1-.332-.071c-.166.023-.19.047-.213.071Z" transform="translate(-200.582 -11.074)" fill="#f2a5ba"/>
    <path id="_ス_1434" d="M211.107,18.507h-.38l.19.071h0C211.13,18.577,211.083,18.53,211.107,18.507Z" transform="translate(-202.685 -11.318)" fill="#f2a5ba"/>
    <path id="_ス_1435" d="M206.611,18.093l.047-.071-.213.095.166-.023Z" transform="translate(-200.278 -11.046)" fill="#f2a5ba"/>
    <path id="_ス_1436" d="M205.533,18.12l.023-.047-.142.023.122.023Z" transform="translate(-199.697 -11.074)" fill="#f2a5ba"/>
    <path id="_ス_1437" d="M213.432,34.948l-.047.095.095-.122h-.047Z" transform="translate(-204.179 -20.547)" fill="#f2a5ba"/>
    <path id="_ス_1439" d="M202.22,18.747l.047-.023S202.22,18.724,202.22,18.747Z" transform="translate(-197.902 -11.44)" fill="#f2a5ba"/>
    <path id="_ス_1441" d="M212.444,12.459s-.238.237-.143.166l.261-.19h-.071a2.407,2.407,0,0,1,.475-.4c.261-.142.213-.071.332-.142,0,0,.047,0,.142-.095l.57-.4-.427.19c.122-.142.475-.332,0-.095.095-.047.213-.095.332-.166a1.938,1.938,0,0,1-.332-.023V11.25a.765.765,0,0,0-.166-.095c-.071,0-.1,0-.308.095a.161.161,0,0,0-.143-.095,1.047,1.047,0,0,0-.475.122h-.806a3.9,3.9,0,0,1-.546.047h0A.391.391,0,0,0,211,11.2a.586.586,0,0,0-.356.122c-.122-.071-.57-.023-.731-.142.071.023-.023.047-.166.047-.237-.071-.522-.166-.593-.19a.122.122,0,0,1-.071-.023c-.095-.023-.166,0-.451.19H208.3a4.262,4.262,0,0,1-.522-.047h-.071c-.237-.071-.57-.142-.664-.166v-.1h0a1.274,1.274,0,0,0-.023-.261,4.953,4.953,0,0,0-.095-.617.449.449,0,0,0-.146-.089h-.122l-.047-.095.047-.19a2.776,2.776,0,0,0,.122-.878.449.449,0,0,0-.142-.095c-.1,0-.1-.023-.4.166l-.071-.166V8.616a4.7,4.7,0,0,0-.023-.688A.449.449,0,0,0,206,7.833h-.1l.071-.213a2.6,2.6,0,0,0,.237-.9.45.45,0,0,0-.142-.095.47.47,0,0,0-.261.071V6.647a.949.949,0,0,1-.1-.071l-.048-.095c-.237-.451-.285-.522-.285-.546a.218.218,0,0,0-.143-.095h-.142a.257.257,0,0,0-.023-.142.236.236,0,0,0-.122-.095.319.319,0,0,0-.213.047h-.028l.095.19-.095.047-.023-.122c0,.071-.19.5-.285.783a2.8,2.8,0,0,0-.285.949.45.45,0,0,0,.142.095c.071,0,.095.023.427-.166a3.647,3.647,0,0,1-.285.308c-.261.261-.451.475-.617.664l.048-.071V8.207a1.476,1.476,0,0,0-.071.237c-.38.4-.475.546-.5.641a.971.971,0,0,1-.071.19c.023-.047.071-.122.1-.122h0v.023h.023s.071.095.142.095a3.177,3.177,0,0,0,.949-.451c-.166.166-.332.308-.475.475-.475.475-.783.759-.974.974h0s-.143.166-.19.213V10.4s-.071.19-.122.19h.048c-.1.122-.071.166,0,.237,0,0,.023.047.047.047h0v.071h0v-.047h.1l-.048.071a.084.084,0,0,0,.071-.047h0s.356-.166,1.494-.806c.5-.285,1.186-.688,1.352-.759a.143.143,0,0,0,.1-.023.073.073,0,0,0,.048-.023s.047,0,.047.023a.9.9,0,0,0,.071.237l.048-.071a.765.765,0,0,1,.047.285c.166.142-.142-.451,0-.308a.919.919,0,0,0,.071.38c-.166,0-.5.142-3.819,2.017-.806.475-1.732,1-2.4,1.352.142-.166.308-.332.451-.5q1.211-1.3,1.116-1.471a.443.443,0,0,0-.095-.071h-.071s.166-.047-.023-.071h.237a.808.808,0,0,1-.225-.027h-.475a2.208,2.208,0,0,0,.427,0c-.071.047-.261.071-.19.142-.071.023-.166.095-.308.166h-.023c-.19.122-.475.261-.878.5-.285.166-.641.356-.878.5l.071-.261c.166-.688.19-.783.166-.852h.14c.023-.047-.048-.047-.166-.047a.328.328,0,0,0-.095-.071,1.3,1.3,0,0,1,.427-.023c-.143-.071-.071,0-.285-.071.19.122-.759,0-.451.122a.974.974,0,0,0-.19-.071.178.178,0,0,0,0-.213.218.218,0,0,0-.143-.095,2.746,2.746,0,0,0-.641.285h-.047l-.122.071-.095.047a.931.931,0,0,0-.4.047c-.213,0,.047-.023-.095-.071l-.213.047-.19-.047-.142-.095h0a1.772,1.772,0,0,1-.285-.166c-.023,0-.047-.047-.095-.047a.517.517,0,0,0-.308.095l-.095.047a1.45,1.45,0,0,1-.143-.095.18.18,0,0,0-.1-.047.319.319,0,0,0-.213.047h-.047l.047.142h-.094l.122.071h-.047s0,.071.047.095v.095h.122c.095.047.213.142.427.285.19.122.4.285.475.332.071.071.142.071.261.023.047.023.1.071.142.095a2.373,2.373,0,0,0,.166.427.236.236,0,0,0,.122.095.6.6,0,0,0,.071.166.218.218,0,0,0,.143.095h.142c.071.071.166.166.308.332s.332.356.356.38a.13.13,0,0,0,.122.071.4.4,0,0,0,.285-.095h0s.237.071.5.142h.047c-.095.166-.071.213,0,.285a.161.161,0,0,0,.125.086.634.634,0,0,0,.237-.047,8.386,8.386,0,0,0,.831.593q0,.122.048.142a.218.218,0,0,0,.143.095.522.522,0,0,0,.19-.023l.285.356c.1.142.213.261.261.332a1.154,1.154,0,0,0-.071.166c0,.023-.023.047-.023.095-.023.095-.048.213-.071.332h0q-1.1,1.281-1,1.447a.449.449,0,0,0,.143.095c.071,0,.095,0,.356-.122,0,.047.047.023.095,0v.166c-.048,0-.071.071-.095.122-.475.356-.427.427-.356.546,0,.047.047.071.095.095a.176.176,0,0,0,0,.19h.026c-.071.213-.166.475-.237.664l-.143.378h0c-.142.38-.142.4-.095.475h0c0,.122-.048.213-.048.38l-.071.047a2,2,0,0,1-.048.237.384.384,0,0,1-.095.237,2.791,2.791,0,0,0-.122.261c.213-.095.664-.4,1.139-.711.237-.166.5-.332.731-.475a5.332,5.332,0,0,1,.5-.285c-.213-.047.356-.142.308-.261.071,0,.166-.047.071.047.308-.261.546-.285.711-.522.071,0-.048.095,0,.095a.22.22,0,0,1,.143-.095c.048,0-.023.047-.071.122.333-.237.308-.356.261-.451a.609.609,0,0,0,.38-.285c.071,0,.213-.047,0,.095.122-.071.759-.451.731-.522.047,0,.166-.122.19-.142l.285-.19a.682.682,0,0,0,.142-.095h0a.391.391,0,0,0,.143.122.523.523,0,0,0,.19-.023c.213.19.261.213.332.237l.047.047c.166.166.356.38.38.4a.13.13,0,0,0,.122.071.319.319,0,0,0,.19-.047h0a1.09,1.09,0,0,1-.023.237,3.016,3.016,0,0,0-.071.878.449.449,0,0,0,.143.095l.852-.4.071-.047h0s-.122.047.047.166c0,.023.1.071.166.095-.19.237-.166.261-.1.356a.218.218,0,0,0,.142.095c.1,0,.1.023.5-.19a.834.834,0,0,1,.213.166c-.048-.071-.071-.142.071-.071a1.256,1.256,0,0,1,.285.237,2.219,2.219,0,0,0,.048.688.218.218,0,0,0,.142.095c.1,0,.1.023.617-.261.213.122.5.285.641.356a.687.687,0,0,0,0,.237.218.218,0,0,0,.143.095h.047a.174.174,0,0,0,.143-.047,1.205,1.205,0,0,0,.308.213c-.047-.095-.071-.213-.122-.332h.023s.142-.19.071-.285c0-.023-.047-.047-.071-.071h0s.122-.19.071-.285c0-.023-.047-.047-.071-.071a2.03,2.03,0,0,0,.095-.731.218.218,0,0,0-.142-.095c-.071,0-.1,0-.356.122-.023-.071-.023-.095-.048-.095l-.039-.06a3.318,3.318,0,0,0-.166-.451.655.655,0,0,0-.143-.19c0-.095.023-.023.048-.023l-.048-.166c.308-.522.285-.546.238-.641a.218.218,0,0,0-.143-.095.47.47,0,0,0-.261.071c.047-.142.071-.285.122-.4v-.047a.567.567,0,0,0,.071-.166,1.329,1.329,0,0,0,.1-.593.218.218,0,0,0-.143-.095,1.967,1.967,0,0,0-.522.213,2.054,2.054,0,0,0-.166-.4s.023,0,.047.047a3.8,3.8,0,0,1-.261-.926c0-.071-.048-.142-.048-.213v-.095h-.048v-.047a1.075,1.075,0,0,0,.048-.19h0s.122-.122.1-.19l.5-.356h0c.852-.593,1.732-1.139,2.538-1.684h-.142l.285-.213c.1-.023.143,0-.048.122.071,0,.143-.071.213-.142.047-.071.122-.166.122-.166.285-.166.285-.142.19-.047h0l-.1.019Zm.83-.593-.122.071C213.3,11.815,213.274,11.842,213.274,11.866Zm-12.483,2.656h0s-.071-.122-.142-.122h-.071v-.122h.071a.1.1,0,0,0,.047.095.161.161,0,0,0,.143.095c.166.047.308,0,3.06-1.614.308-.166.641-.38.949-.546-.356.261-.711.546-1.021.806-1.281,1.021-1.9,1.494-2.182,1.756h0a1.4,1.4,0,0,0-.142-.095s-.047-.047-.071-.047l-.047-.047s-.19-.285-.237-.237a.374.374,0,0,1-.122.4c-.1-.122-.166-.237-.213-.285h0Zm5.315-4.081a.449.449,0,0,0,.142.095h.095a.639.639,0,0,1,.023.285c.1.237.048-.095.143.142v.071l.048.047h0a.292.292,0,0,0-.122-.047c-.142-.023-.19-.047-2.8,1.471-.356.213-.731.427-1.116.641.356-.285.759-.57,1.116-.831,1.447-1.068,2.135-1.614,2.467-1.9h0l0,.023Zm2.4,4.128V14.5l.4-.261c-.213.166.048.122-.333.332l.122-.19-.213.166h0l.021.023Zm-.688.475h.071c-.546.285-1.494.806-3.226,1.8.664-.4,1.352-.831,1.992-1.211.664-.4,1.258-.759,1.779-1.1l-.071.047-.071.047-.095.071s-.238.166-.427.285v.049h0l.047,0Zm.428,2.633a.45.45,0,0,0,.142.095h.095c-.213.122-.451.261-.759.427l-.332.19a3.477,3.477,0,0,0,.237-.261c.237-.237.4-.427.57-.593,0,.122.023.122.047.142h0Zm-1.542.427s.047.071,0,.071Zm.1,0a.349.349,0,0,0-.1-.047v-.071c.19-.095.5-.285,1.021-.593l.071-.047c-.166.166-.332.356-.475.5-.166.166-.308.332-.427.451-.071-.095-.095-.142-.095-.19h0Zm-1.044-1.3a.121.121,0,0,0-.023-.071h0c.57-.356,1.116-.664,1.589-.926h0a.171.171,0,0,0,.166,0h0c-.166.095-.427.261-.852.5-.285.166-.617.356-.831.475h0Zm2.254-.949a.122.122,0,0,0-.023-.071c0-.023-.047-.047-.071-.071h0l.071-.047.048.095v.071h-.023v.023Zm-.074.237c-.122.38-.122.4-.071.475a.161.161,0,0,0,.143.095h.047v.071c-.142.095-.332.19-.546.332-.142.095-.308.19-.475.285a4.059,4.059,0,0,1,.261-.332c.38-.5.57-.759.664-.9h0Zm.5,2.23a1.809,1.809,0,0,0-.593.261l.1-.047c.19-.122.427-.237.617-.356l-.143.142Zm.428.949a.339.339,0,0,1-.071-.047l.122-.071-.071.122h0Zm.122-.617s-.308.166-.593.332a4.232,4.232,0,0,1,.308-.332l.213-.237s.048.142.071.237Zm-2.492-4.033c-1.281.731-2.728,1.566-3.891,2.23.9-.57,1.949-1.234,2.895-1.827a54.286,54.286,0,0,0,4.864-3.179h0a.989.989,0,0,0,.427-.166h0s.071.237.095.356v.047c-.949.522-2.372,1.329-4.437,2.538h.046Zm.142-3.321h0v.166a.1.1,0,0,0-.048-.095C206.583,11.344,206.63,11.319,206.63,11.3Zm-.071.095c.048.122.1.261.143.38h.593c-.546.308-1.3.731-2.42,1.376-.546.308-1.139.664-1.684.974.285-.237.617-.475.9-.711a30.309,30.309,0,0,0,2.469-2.023h0Zm2.87.285h-.047a.994.994,0,0,1,.332-.047c-.522.261-1.519.831-3.463,1.969-.853.5-1.851,1.068-2.7,1.566.4-.261.831-.546,1.234-.831,2.3-1.542,3.321-2.254,3.748-2.61a5.449,5.449,0,0,0,.9-.047Zm-4.318,1.8c.38-.213.783-.451,1.186-.688-.593.4-1.211.831-1.779,1.211-1.494,1-2.325,1.566-2.8,1.922v-.047h-.023l.142-.095s0-.023-.047-.047v-.047h.047s.1-.095.1-.166c.19-.237.261-.332.237-.4.427-.213,1.258-.688,2.923-1.661h0l.019.023Zm-3.606,2.557h0l-.048.047v-.047Zm.142.57a48.492,48.492,0,0,0,4.46-2.467c-.285.19-.57.356-.852.546-1.779,1.116-2.965,1.874-3.775,2.372.213-.332.19-.38.142-.451Zm-.5-.122a.147.147,0,0,0,.048.095v.047l-.1.071V16.6l.047-.095h0Zm-.617,2.467h0l.071-.19s.071.023.071.048V18.6s.023-.142.023-.166c.047,0,.1-.047.143-.071a.415.415,0,0,1,.023-.122c.783-.38,2.4-1.281,5.86-3.3,1.116-.641,2.372-1.352,3.44-1.969-1.139.711-2.492,1.542-3.725,2.277-3.532,2.159-5.172,3.179-5.931,3.7h0l.026,0Zm8.755-4.935a1.753,1.753,0,0,1-.122.142l-.047-.047.166-.095Zm-3.819,3.274s-.071-.071-.122-.071H205.3l.122-.071V17.2a.161.161,0,0,0,.143.095c.122.023.142.023,1.281-.641l.308-.166-.19.261a10.553,10.553,0,0,0-.783,1.1c-.122-.071-.261-.122-.4-.213-.166-.142.071,0,0-.095l-.143-.047-.19-.19h0l.024-.006Zm6.146-5.693.1.047h.071l.048-.047h.023l-.522.261-.043-.158a1.339,1.339,0,0,1,.308-.122h0l.021.019Zm-4.46-.546-.048-.047Zm-1.993-4.975h0l-.071.047.047-.095v.047Zm-.285.641c.095-.261.166-.451.213-.593l.047.071s-.047.261-.122.261a.609.609,0,0,1,.122.332l-.213.122-.166.095.122-.285Zm-.07,1.329c.238-.237.4-.451.546-.593,0,.023.023.047.047.071,0,.095-.071-.071-.071,0a.7.7,0,0,1,.19.356c-.095,0-.237.095-1,.522h-.047l.332-.332h0S204.806,8.047,204.806,8.047Zm-.593,1.779-.235.142.332-.332c.641-.641,1.021-1,1.211-1.234h.166a2.871,2.871,0,0,1,.122.427V9h0c-.122-.023-.143-.047-1.589.806h0l-.006.024Zm-1.59,2.414c.641-.356,1.329-.759,1.949-1.116-.356.285-.759.57-1.116.831a16.373,16.373,0,0,0-2.7,2.159.177.177,0,0,1-.071-.071l.071.071v.047a.282.282,0,0,1-.122-.023v-.072a2.4,2.4,0,0,0-.1-.641c.475-.261,1.163-.641,2.087-1.186h0Zm-2.42,0,.332-.19c-.142.142-.261.285-.38.427-.38.4-.641.688-.806.878h-.122v-.043c-.19-.122-.308-.237-.451-.332.122,0,.19,0,1.447-.731h0l-.021-.01Zm-2.112.19c-.166-.213.261.166.142-.023a.352.352,0,0,1-.213-.071l-.166-.071h0s.237-.142.4-.237.356-.213.546-.308l-.071.308c-.142.641-.166.731-.142.806-.048-.047-.122-.071-.166-.122,0-.047-.19-.19-.071-.166a.442.442,0,0,1-.237-.122h0l-.026,0Zm-.122.095a1.946,1.946,0,0,1-.261-.095l-.1-.047.19-.095s.332.19.451.261q-.071.071-.285,0h0v-.023Zm.711-1.234q-.213.107-.641.356c-.213.122-.475.285-.688.38h0l-.072-.208s.285-.142.664-.356l.19-.122h.048a2.143,2.143,0,0,1,.261-.142h.143l.071.071a.643.643,0,0,0-.308,0,1.938,1.938,0,0,1,.332.023h0Zm-.4,1.827h0l-.048-.047h0l-.048-.047.048.047.095.047Zm4.46,5.5a.731.731,0,0,1,.213-.122A.458.458,0,0,1,202.737,18.623Zm.451,0s-.023-.023,0-.095l-.048.047c-.142.047-.122-.023-.047-.122l.166-.047s.1-.19.048-.237l-.095.095v-.047l-.1.095h-.143l-.5.261a5.866,5.866,0,0,1-.949.974c.1-.142-.048-.122-.1-.19.19,0,.38-.285.641-.451-.143.095-.143.023-.122,0l-.427.38a1.133,1.133,0,0,0-.285.095c.1,0,0,.095-.095.19a1.315,1.315,0,0,1-.19.142l-.047.047h-.023l-.048.071v-.065s0-.023.048-.047a.365.365,0,0,1,.142-.095.122.122,0,0,0-.091.045h-.048v.047h-.023a.34.34,0,0,1-.048.095.23.23,0,0,1-.19.166c.047-.023.071-.023.071-.071a.571.571,0,0,1-.19.142c-.048.023-.071,0-.048-.023h.023a3.621,3.621,0,0,0-.4.237V20.1l.166-.095s.237-.142.285-.166h.023s.143-.19.071-.285l-.047-.047c.4-.213,1.139-.617,2.538-1.4h.023v.047h0a.236.236,0,0,1,.1.023h.048a.179.179,0,0,0,.095-.023.964.964,0,0,1-.213.237,1.51,1.51,0,0,0,.213-.047l-.308.261h0l.122.019Z" transform="translate(-193.939 -4.061)" fill="#f2a5ba"/>
    <path id="_ス_1442" d="M213.493,34.425h.048Q213.54,34.4,213.493,34.425Z" transform="translate(-204.24 -20.261)" fill="#f2a5ba"/>
    <path id="_ス_1444" d="M203.3,18.073h-.213a1.933,1.933,0,0,1,.213.047S203.251,18.1,203.3,18.073Z" transform="translate(-198.388 -11.074)" fill="#f2a5ba"/>
    <path id="_ス_1446" d="M199.111,18.216c.143,0,0-.071.095-.047.048-.023-.166,0-.285,0-.122.023-.122.047.166.023h0Z" transform="translate(-196.003 -11.122)" fill="#f2a5ba"/>
    <path id="_ス_1448" d="M218.05,5.757l-.122-.095a.731.731,0,0,1,.047.166l.071-.071h0Z" transform="translate(-206.733 -4.096)" fill="#f2a5ba"/>
    <path id="_ス_1450" d="M207.74,11.894l-.047.023h.024l.023-.023Z" transform="translate(-200.979 -7.6)" fill="#f2a5ba"/>
    <path id="_ス_1451" d="M207.607,11.8h.071s-.1-.047-.071-.071C207.536,11.8,207.654,11.756,207.607,11.8Z" transform="translate(-200.917 -7.509)" fill="#f2a5ba"/>
    <path id="_ス_1454" d="M207.856,11.237h.047a.073.073,0,0,1,.023-.047C207.9,11.19,207.879,11.19,207.856,11.237Z" transform="translate(-201.071 -7.204)" fill="#f2a5ba"/>
    <path id="_ス_1457" d="M207.74,11.407s0,.023-.047.047C207.715,11.454,207.787,11.454,207.74,11.407Z" transform="translate(-200.979 -7.326)" fill="#f2a5ba"/>
    <path id="_ス_1459" d="M207.692,11.073h.024s0-.023.048-.047a.339.339,0,0,0-.071.047Z" transform="translate(-200.978 -7.112)" fill="#f2a5ba"/>
    <path id="_方形_143" d="M207.484,11.5l.094-.01h0Z" transform="translate(-200.861 -7.375)" fill="#f2a5ba"/>
    <path id="_ス_1461" d="M207.692,10.888h.024l.048-.023-.071.023Z" transform="translate(-200.978 -7.021)" fill="#f2a5ba"/>
    <path id="_ス_1462" d="M207.692,10.751s.047-.047.071-.047h-.071Z" transform="translate(-200.978 -6.93)" fill="#f2a5ba"/>
    <path id="_ス_1464" d="M207.634,10.973l-.048.047h0a.046.046,0,0,0,.048-.045Z" transform="translate(-200.919 -7.082)" fill="#f2a5ba"/>
    <path id="_ス_1465" d="M207.554,11.049h0l-.023-.023Z" transform="translate(-200.888 -7.112)" fill="#f2a5ba"/>
    <path id="_ス_1467" d="M207.258,11.4a.182.182,0,0,1,.122-.047A.153.153,0,0,0,207.258,11.4Z" transform="translate(-200.734 -7.294)" fill="#f2a5ba"/>
    <path id="_ス_1469" d="M207.422,10.94s.048,0,.048-.023h-.048v.047h0Z" transform="translate(-200.827 -7.051)" fill="#f2a5ba"/>
    <path id="_ス_1476" d="M206.674,10.764a.073.073,0,0,1,.023-.047c-.048.047-.1,0-.19.071h.045s-.047,0-.047.023c.047-.023.095-.023.071,0a.941.941,0,0,0,.285-.166h-.071s-.047.071-.1.071h0l-.021.049Z" transform="translate(-200.311 -6.897)" fill="#f2a5ba"/>
    <path id="_ス_1477" d="M207.311,10.7v.047h0l.048-.047Z" transform="translate(-200.764 -6.93)" fill="#f2a5ba"/>
    <path id="_ス_1478" d="M207.146,10.809h-.071c-.047.023-.095,0-.142.071h.073c-.023-.023.023,0,.048-.047h.048Z" transform="translate(-200.552 -6.99)" fill="#f2a5ba"/>
    <path id="_ス_1479" d="M206.988,11.539l.023-.023Z" transform="translate(-200.582 -7.387)" fill="#f2a5ba"/>
    <path id="_ス_1480" d="M207.126,11.3a.924.924,0,0,0-.122.095h.023a.073.073,0,0,0-.047.023.122.122,0,0,0,.071-.023h0l.071-.071h0l0-.024Z" transform="translate(-200.578 -7.265)" fill="#f2a5ba"/>
    <path id="_ス_1482" d="M207.306,10.618l.048-.023-.095.023Z" transform="translate(-200.735 -6.869)" fill="#f2a5ba"/>
    <path id="_ス_1483" d="M207.329,10.539h-.047l-.023.023Z" transform="translate(-200.735 -6.838)" fill="#f2a5ba"/>
    <path id="_ス_1485" d="M206.12,8.588l.048-.041h-.048Z" transform="translate(-200.094 -5.718)" fill="#f2a5ba"/>
    <path id="_ス_1488" d="M206.723,9.718V9.671C206.7,9.694,206.653,9.742,206.723,9.718Z" transform="translate(-200.413 -6.35)" fill="#f2a5ba"/>
    <path id="_ス_1490" d="M206.771,9.688s.023-.047,0-.023h0a.023.023,0,0,1,.023.023Z" transform="translate(-200.461 -6.343)" fill="#f2a5ba"/>
    <path id="_ス_1497" d="M204.44,8.737h.071l.142-.095Z" transform="translate(-199.15 -5.771)" fill="#f2a5ba"/>
    <path id="_ス_1498" d="M200.324,2.763l-.048.047q.071-.035.071,0h0s.023.095.048.166l.051-.047v.046c.1-.047,0-.023.071-.095-.095.095.071.071-.047.19,0,0,.047-.047.071-.047h0a.342.342,0,0,1-.047.071h0s.047.023.047.047h0a.262.262,0,0,0,.166.071h0s0,.023.048.047h.048c-.048,0-.048.071-.1.071.071,0,.048,0,.166-.047l-.047.047s.071-.023.1,0c-.048,0-.048.047-.122.071-.071.095.142,0,0,.095.142-.071.047-.071.071-.095.023-.047.1-.047.1-.023,0,0-.143.122-.1.166h0s.047,0,0,.047c.071-.047,0,0,.1-.047h-.048s.166-.071.122,0h-.067c0,.023.023,0,0,.023-.1.071-.048,0-.142,0-.023.023.095,0,0,.047.142-.071,0,.047.122,0l-.048.047h-.023s-.023.095,0,.095c-.023-.023.071-.047.1-.095.095,0-.122.122-.071.142a.046.046,0,0,1,.045-.047h0a.085.085,0,0,1-.053.072c.023.023.048-.047.095-.047-.071.047.048,0,.071,0l-.046.047s.122-.071.1,0l-.1.047h.023l-.071.047s.048,0,.048.023c.048-.023.1-.071.122-.047-.023.023-.048.023-.023.047-.048,0-.1.047-.048,0h-.047v.071h.122a.4.4,0,0,1-.122.047h.071s-.047.047-.071.047c0,.023.122,0,.1.023h.023c0,.023-.048.095.047.071l-.071.071s.1-.095.142-.071c.047,0-.071.047-.095.071.048,0,.142-.047.095,0h0l-.047.047a.283.283,0,0,0-.143.047c.166-.095.071.047.237-.023h.071s-.023.047-.047.047h.023l.048.047h.1s-.1.047-.1,0c-.166.122.047,0,0,.095h-.023l-.095.095c.023,0,.122-.122.19-.122,0,0,0,.023.023,0-.071.023-.048.047-.023.047l-.071.047a.318.318,0,0,0,.122-.023l-.1.1c0,.023.095-.071.122-.047,0,.047.023.047.095.047,0,.023-.047,0-.071.047h.048a.292.292,0,0,1,.122-.047c.1-.047-.095.122,0,.071a.084.084,0,0,0-.071.047h.166l-.047.047A.716.716,0,0,1,202,4.774l.048-.047h.071a.341.341,0,0,0-.071.047h0a.292.292,0,0,1-.122.047l.048-.047s-.122.047-.166.071h.023l-.1.071h.048v.047a.775.775,0,0,1,.285-.047c-.071,0-.122.047-.19.095.071-.047-.048,0-.048-.047,0,0-.048.023-.048.047h.1a.177.177,0,0,0-.071.071c.122-.071.1,0,.143,0-.048,0-.1.047-.1,0-.071.071.166-.047.1,0h0c.047,0,.023.047,0,.047h0a.122.122,0,0,0,.165.048h0l-.143.071.4-.122a1.983,1.983,0,0,1-.38.166.023.023,0,0,0,.023.023.788.788,0,0,1,.143-.071c-.095.071-.048.047-.122.122,0,0,.166-.095.166-.071a1.156,1.156,0,0,1-.166.071l.166-.047-.166.095c.023,0,0,.023.023.023h.023s.213-.095.237-.047c-.023,0-.19.071-.19.122a3.3,3.3,0,0,1,.451-.142h0s-.38.142-.475.166c-.023.023-.048.023-.023.047-.023.023-.071,0-.071,0v.047a.292.292,0,0,0,.166-.047h-.122s.261-.095.261-.047a1.413,1.413,0,0,1-.19.095h0s.122,0,.071.047c0,0-.095.071-.047.047a2.789,2.789,0,0,1,.451-.237.535.535,0,0,1-.122.122c-.071.047-.19.071-.237.122h.071s-.071.023-.048.047c.1-.047,0,.047.071-.023.023,0,0,.023,0,.047a.9.9,0,0,1,.237-.071.346.346,0,0,0-.056.045V5.9a.088.088,0,0,1-.071.047h.047s-.023,0-.1.047c.048-.023.1,0,.122,0,.071-.047,0-.047-.048-.047a.53.53,0,0,1,.308-.071c.047,0-.071.047-.047.047,0,.071.213-.047.166.023a.71.71,0,0,1-.19.095c-.047,0,0-.047,0-.071h0s-.047.023-.047,0c-.048.047.047.095,0,.166a.088.088,0,0,0,.071-.023h0s.1-.023.1-.047h.095l-.071.047s.048-.047,0-.023c.048,0-.071.095.023.047l.048-.047s.143-.023.122,0c.071-.047,0,0,.071-.071-.1.071-.023-.047-.122.023.095-.071.023-.047.095-.122-.023,0-.047.023-.047,0h-.023v.047h-.142a.073.073,0,0,0,.048-.023h-.048s.071-.071.122-.071h0s.023-.071,0-.071h-.071s-.142-.047-.048-.142c0,0-.047,0-.047-.023h.047s0-.095-.023-.071c.122-.095,0-.095,0-.122h-.19V5.372h0c.095-.095-.143-.023-.071-.122h0V5.206a.084.084,0,0,0-.071.047h-.048s-.048,0,.048-.071a.375.375,0,0,0-.166,0h0V5.135l.071-.047h-.122a1.116,1.116,0,0,0,.122-.047h-.122s-.1,0-.047-.047c.071-.071-.048-.122,0-.213-.143.095.047-.071-.071,0,.023,0,.048-.047.071-.047-.048,0,.023-.071-.071-.047a.088.088,0,0,0,.071-.023h.047c-.023-.023-.142.023-.238.071.048-.047.023-.047-.047,0,.023,0,.047-.047.071-.047,0,0,0-.095-.071-.047h0A.071.071,0,0,0,202,4.589h-.048s-.047,0,0-.095h-.056c-.122.095.047-.047,0-.047h-.024a1.76,1.76,0,0,0,.166-.122h.023a.185.185,0,0,1-.122,0c.048-.023.122-.047.1-.071.023-.023-.166.023-.1-.047-.023,0-.047.047-.095.047,0,0,.095-.122,0-.071h0a.134.134,0,0,0-.142,0c.19-.122-.166-.023.023-.142l-.048-.047h0a.164.164,0,0,0-.122,0,.073.073,0,0,0,.048-.023q0-.071-.122-.047l.047-.047s.048-.122-.047-.122h.023s.095-.213-.143-.095H201.3a.331.331,0,0,0-.122.095s.048-.071.071-.071h0a.154.154,0,0,1,.071-.122c-.048-.071-.048-.19-.1-.261l-.071.071h0l.071-.071c.048-.047-.071,0-.071,0,0-.047.122-.047.095-.071h-.023s-.071.047-.1,0c0-.023.047-.047.047-.047h-.071l-.071.071c.095-.095-.048-.142,0-.166a.142.142,0,0,1-.1-.023c-.024-.023-.071.071-.1.047.166-.122.023-.071.122-.19-.047.071-.071-.047-.142.071,0-.023.048-.047.071-.095-.095,0-.023-.122-.095-.142l-.071.071.071-.095s-.122.095-.071,0c0,0-.023.047-.048.047,0-.071-.071-.122-.122-.142s-.095-.071-.071-.19c0,.047-.023.047-.047.023l-.071.071V2.453s0-.023-.1.023h0a3.486,3.486,0,0,1-.238.285c.1-.071-.071.166.071.071h0l.214-.069Zm1.218,1.732h-.023C201.589,4.471,201.566,4.494,201.542,4.494Z" transform="translate(-196.675 -2.288)" fill="#f2a5ba"/>
    <path id="_ス_1502" d="M206.867,10.639s-.023.023,0,.023h0S206.914,10.614,206.867,10.639Z" transform="translate(-200.509 -6.89)" fill="#f2a5ba"/>
    <path id="_ス_1504" d="M207.03,10.189s.071-.023.048,0C207.148,10.166,206.983,10.189,207.03,10.189Z" transform="translate(-200.601 -6.636)" fill="#f2a5ba"/>
    <path id="_ス_1505" d="M206.5,10.832l.071-.023H206.5Z" transform="translate(-200.309 -6.99)" fill="#f2a5ba"/>
    <path id="_ス_1508" d="M206.149,10.161s-.023,0,0,.023h.023Z" transform="translate(-200.105 -6.625)" fill="#f2a5ba"/>
    <path id="_ス_1509" d="M205.926,10.454l.048-.023-.071.047h.023Z" transform="translate(-199.973 -6.777)" fill="#f2a5ba"/>
    <path id="_ス_1510" d="M205.783,10.378s-.071,0-.047.023C205.736,10.4,205.783,10.4,205.783,10.378Z" transform="translate(-199.876 -6.747)" fill="#f2a5ba"/>
    <path id="_ス_1511" d="M205.633,9.525h.023l.122-.071-.142.071Z" transform="translate(-199.821 -6.228)" fill="#f2a5ba"/>
    <path id="_ス_1512" d="M204.757,9.293s-.023,0-.1.047c0,.047.071-.023.048,0,.023,0,0-.023.048-.047Z" transform="translate(-199.275 -6.137)" fill="#f2a5ba"/>
    <path id="_ス_1513" d="M201.319,2.084l-.023.047h.023Z" transform="translate(-197.382 -2.084)" fill="#f2a5ba"/>
    <path id="_ス_1514" d="M201.1,2.208l.047-.071-.071.047h0Z" transform="translate(-197.26 -2.114)" fill="#f2a5ba"/>
    <path id="_ス_1515" d="M203.188,7.342l-.048.047h0V7.342Z" transform="translate(-198.419 -5.041)" fill="#f2a5ba"/>
    <path id="_ス_1516" d="M203.032,6.879h0l.071-.023Z" transform="translate(-198.358 -4.767)" fill="#f2a5ba"/>
    <path id="_ス_1520" d="M235.752,5.384h0V5.337s-.048.071-.1.071c.048.071.048-.023.071,0h0Z" transform="translate(-216.702 -3.913)" fill="#f2a5ba"/>
    <path id="_ス_1523" d="M235.193,5.087a.023.023,0,0,1-.023-.023.088.088,0,0,0,.023.071Z" transform="translate(-216.427 -3.76)" fill="#f2a5ba"/>
    <path id="_ス_1526" d="M235.382,5.311s0-.095-.047-.047a.046.046,0,0,1,.047.045Z" transform="translate(-216.52 -3.865)" fill="#f2a5ba"/>
    <path id="_ス_1528" d="M235,5.22s-.023,0-.048-.047a.344.344,0,0,0,.048.071h0Z" transform="translate(-216.306 -3.821)" fill="#f2a5ba"/>
    <path id="_ス_1531" d="M234.737,5.22V5.172l.023.071Z" transform="translate(-216.185 -3.821)" fill="#f2a5ba"/>
    <path id="_ス_1532" d="M234.567,5.243s-.047-.047-.047-.071v.071Z" transform="translate(-216.062 -3.821)" fill="#f2a5ba"/>
    <path id="_ス_1534" d="M234.893,5.384s-.023-.047-.048-.047Z" transform="translate(-216.246 -3.913)" fill="#f2a5ba"/>
    <path id="_ス_1537" d="M235.277,5.611a.181.181,0,0,1-.047-.122A.153.153,0,0,0,235.277,5.611Z" transform="translate(-216.461 -3.999)" fill="#f2a5ba"/>
    <path id="_ス_1538" d="M235.062,5.5v.047h.023A.071.071,0,0,0,235.062,5.5Z" transform="translate(-216.367 -4.004)" fill="#f2a5ba"/>
    <path id="_ス_1539" d="M234.76,5.545s0-.047-.023-.047v.047Z" transform="translate(-216.185 -4.004)" fill="#f2a5ba"/>
    <path id="_ス_1546" d="M234.5,5.966h-.047c.047.047,0,.095.071.19V6.108s0,.047.023.047c-.023-.047-.023-.095,0-.071a.788.788,0,0,0-.189-.262v.071a.162.162,0,0,1,.1.095h0Z" transform="translate(-215.972 -4.187)" fill="#f2a5ba"/>
    <path id="_ス_1547" d="M234.434,5.677h.048a.178.178,0,0,0-.071-.071v.071Z" transform="translate(-216.001 -4.065)" fill="#f2a5ba"/>
    <path id="_ス_1548" d="M234.628,5.63a.185.185,0,0,0,.071.142V5.7c-.023.023,0-.023-.047-.047h0V5.606h0v.047h0Z" transform="translate(-216.123 -4.065)" fill="#f2a5ba"/>
    <path id="_ス_1550" d="M235.215,5.811v.047a.122.122,0,0,0-.023-.071h0s-.071-.047-.071-.071a.416.416,0,0,0,.095.122V5.811h0Z" transform="translate(-216.4 -4.127)" fill="#f2a5ba"/>
    <path id="_ス_1552" d="M234.35,5.654l-.048-.047.048.071Z" transform="translate(-215.94 -4.065)" fill="#f2a5ba"/>
    <path id="_ス_1553" d="M234.275,5.712l-.023-.047v.047Z" transform="translate(-215.912 -4.097)" fill="#f2a5ba"/>
    <path id="_ス_1555" d="M232.084,7.292s-.122-.071-.071-.023l.047.047h.023Z" transform="translate(-214.646 -4.99)" fill="#f2a5ba"/>
    <path id="_ス_1556" d="M231.532,9.015h0l-.047-.047v.047Z" transform="translate(-214.356 -5.954)" fill="#f2a5ba"/>
    <path id="_ス_1557" d="M230.781,11.351l.048.047S230.828,11.376,230.781,11.351Z" transform="translate(-213.96 -7.295)" fill="#f2a5ba"/>
    <path id="_ス_1558" d="M233.376,6.419h-.048C233.352,6.419,233.4,6.466,233.376,6.419Z" transform="translate(-215.393 -4.521)" fill="#f2a5ba"/>
    <path id="_ス_1559" d="M230.021,9.671l.023.023Z" transform="translate(-213.533 -6.35)" fill="#f2a5ba"/>
    <path id="_ス_1565" d="M233.894,5.932l-.023.023h.023Z" transform="translate(-215.698 -4.248)" fill="#f2a5ba"/>
    <path id="_ス_1567" d="M232.659,8.586s-.023-.071,0-.047l-.143-.122.143.166Z" transform="translate(-214.936 -5.644)" fill="#f2a5ba"/>
    <path id="_ス_1568" d="M227,9.392a.34.34,0,0,1,.071.047h-.122s-.023.047.048.095h0a2.148,2.148,0,0,1,.332.142c-.1-.071.19.023.071-.071.023,0,.023.023.071.047q-.047-.047,0-.047h0a1.841,1.841,0,0,0,.166-.095h-.071l.048-.023c-.071-.071-.023.023-.122-.047.122.047.071-.095.19,0,0,0-.071-.023-.048-.047h.1s0-.047.023-.023h-.023s.095-.095.047-.19h-.023a.088.088,0,0,0,.048-.071h0s-.023-.047,0-.047c.023.023.071,0,.095.047-.023-.071-.023-.047-.122-.142h.047s-.047-.023-.047-.047c.023.047.071.023.122.071.122,0-.047-.122.1-.047-.122-.095-.1,0-.122-.023-.048,0-.071-.071-.048-.071,0,0,.166.071.19.047h0s-.023-.047.048-.023c-.071-.047,0,0-.071-.071V8.85s-.122-.122-.047-.122l.047.047c.023,0,0-.023.023,0,.095.071,0,.047.048.122.047,0-.048-.071.047,0-.122-.095.048-.023-.047-.122l.047.047V8.776l.048.047s.071,0,.071-.047c-.023.047-.071-.023-.122-.047-.048-.095.166.071.19,0h.023c0-.047-.071-.023-.1-.071.071.023,0-.023-.023-.071l.048.047s-.122-.095-.048-.095l.071.071h.048V8.562c-.048,0-.1-.071-.1-.095.047,0,.047.047.071,0,.023.023.071.071,0,.047l.048.047.047-.047h0l-.047-.095s.047.023.047.047V8.42c.047.023.095.071.095.095V8.444a.046.046,0,0,1,.048.045v0c.047,0-.048-.095,0-.095h0s.095,0,.047-.095l.1.047s-.122-.047-.122-.122c0-.047.071.047.1.047-.023-.047-.1-.122,0-.095v.027h.047a.122.122,0,0,0,.095.122c-.142-.122.048-.071-.122-.19h.047s-.1-.071-.047-.095a.122.122,0,0,1,.071.023v-.05h.023a.348.348,0,0,1-.047-.095c.023,0,0,0,.023.023V7.9s.047.071.023.071c.166.095-.023-.047.1,0h0a.7.7,0,0,0,.142.071.42.42,0,0,1-.19-.122s.023,0,0-.023c.048.047.048,0,.048,0l.071.047a.44.44,0,0,1-.071-.095.347.347,0,0,1,.122.071c.023,0-.095-.047-.095-.095.047,0,.023-.047,0-.095.047,0,.047.047.071.047l-.047-.047h.023s-.071-.047-.071-.071c-.071-.071.143.047.071-.047.023,0,.048.047.071.047a.26.26,0,0,0-.071-.142h.071s-.122-.071-.143-.142H228.8V7.281l.047.047h0a.185.185,0,0,1,.095.071H228.9a.649.649,0,0,0,.122.095h.122A.852.852,0,0,1,229,7.233a.8.8,0,0,1,.142.142c-.071-.047,0,.047-.023.071,0,0,.047.023.047.047V7.4s0,.023.048.047c-.122-.095-.048-.095-.071-.122.023.023.071.071.048.071.095.047-.1-.142,0-.095h0c0-.047.023-.047.047,0h0a.1.1,0,0,0,0-.166l.122.122-.237-.332a1.594,1.594,0,0,1,.285.285s.047,0,.023-.023l-.122-.095c.1.071.048.023.143.071a.87.87,0,0,1-.122-.142l.122.122L229.38,7l.122.122c-.023,0,.023,0,0-.047h-.047s-.122-.19-.1-.213c0,.023.122.142.166.142a1.665,1.665,0,0,1-.237-.38h.023s.19.285.237.38c.048,0,.048.047.048,0,.047.023.047.047.023.071h.071a.3.3,0,0,0-.1-.166V7.03s-.142-.213-.1-.237c.023,0,.1.122.122.142h0s-.023-.122.047-.071c0,0,.095.071.071.023a5.081,5.081,0,0,1-.356-.38.779.779,0,0,1,.142.071c.071.047.122.166.166.213l-.023-.047s.047.071.047.047c-.047-.071.048,0-.047-.071,0-.023.023,0,.047,0a.487.487,0,0,1-.122-.213l.047.047a.178.178,0,0,0,.122-.023.177.177,0,0,1,.071.071V6.546s-.023.023.047.095c-.023-.047,0-.071-.023-.122-.047-.071-.047,0-.047.047a.594.594,0,0,1-.122-.261c0-.047.047.047.047.023.071,0-.071-.19,0-.166a.365.365,0,0,1,.122.166c0,.047-.071,0-.071,0h.048v.05c.047.047.095-.047.166-.023a.088.088,0,0,0-.023-.071h0s0-.071-.048-.071v-.1l.048.071s-.048-.023-.048,0c0-.047.1.071.048-.023l-.048-.047s-.023-.142,0-.122c-.048-.071,0,0-.071-.071.071.095-.071.023.023.122-.071-.071-.047,0-.142-.095,0,0,.048.047,0,.047h0l.023.047c.023.047,0,.071,0,.122,0,0,0-.023-.048-.047V6.16s-.071-.071-.071-.122h-.023s-.071,0-.071.023v.071h-.023s0,.122-.122.071c0,0,0,.047-.023.047l-.048-.047s-.071,0-.048.047c-.122-.095-.095.023-.142.047l.047.047a.243.243,0,0,0-.023.071l.047.047s-.071,0-.095.047h0c-.142-.071,0,.142-.1.095h0v.047l-.047-.047h0s0,.023.047.071v.047s0,.047-.071-.023c.023.047,0,.071.071.166h0l-.071-.047.071.095a.927.927,0,0,1-.122-.095c.048.095,0,.047.048.142l-.048-.047s.023.071,0,.047c-.1-.047-.122.095-.237.071.142.095-.071,0,0,.071q-.035,0-.071-.071c0,.047-.095,0,0,.095-.023,0-.048-.047-.048-.047h0a.073.073,0,0,0-.023-.047.622.622,0,0,0,.142.19q-.048,0,0,.047A.076.076,0,0,1,228.6,7.2s-.1.023-.023.071h0q-.023,0-.048.047h0v.071h0s0,.023-.1,0l.048.047s-.095,0-.071.047h.048a2.24,2.24,0,0,0-.213-.071V7.4c-.1,0,.071.047.071.095-.047-.023-.1-.071-.122-.071-.048,0,.071.142,0,.122a.076.076,0,0,1,.071.071c0,.023-.143-.023-.071.047h-.023s0,.071.047.095c-.19-.122,0,.142-.143.023V7.83h-.047a.237.237,0,0,0,.023.095A.073.073,0,0,1,228,7.9c-.071,0-.071.023,0,.122l-.071-.047s-.142,0-.1.071h0s-.237,0-.047.142V8.26a.567.567,0,0,0,.166.071s-.095,0-.095-.023h0a.174.174,0,0,1-.143-.023c-.048.071-.166.122-.213.19l.095.047h0s-.071,0-.048-.023c-.047,0,0,.047.048.071a.106.106,0,0,1-.095-.071h0s.071.071.047.095c-.023,0-.071-.023-.071,0h-.023l.071.047s-.023.023.071.071c-.142-.047-.122.095-.166.071.047.047,0,.071,0,.095,0,0,.1.047.071.071-.166-.095-.1,0-.213-.047.1.023,0,.071.1.122a.4.4,0,0,1-.122-.047c.023.071-.095.071-.122.142,0,0,.071,0,.1.047l-.122-.047s.122.071.023.047c0,0,.047,0,.047.023-.166.047-.047.261-.308.237q.047,0,.047.023h0L227,9.392Zm1.851-1.566s.023.047,0,.023C228.8,7.8,228.848,7.826,228.848,7.826Z" transform="translate(-211.767 -4.245)" fill="#f2a5ba"/>
    <path id="_ス_1572" d="M234.411,6.122h.048S234.411,6.074,234.411,6.122Z" transform="translate(-216.001 -4.343)" fill="#f2a5ba"/>
    <path id="_ス_1574" d="M233.842,6.009s-.048-.071,0-.047C233.819,5.891,233.842,6.057,233.842,6.009Z" transform="translate(-215.669 -4.254)" fill="#f2a5ba"/>
    <path id="_ス_1575" d="M234.518,6.366l.023.047.023.023-.048-.071Z" transform="translate(-216.061 -4.492)" fill="#f2a5ba"/>
    <rect id="_方形_151" height="0.023" transform="translate(18.45 1.939)" fill="#f2a5ba"/>
    <path id="_ス_1578" d="M233.871,6.847s.023.023.023,0V6.8h0Z" transform="translate(-215.698 -4.736)" fill="#f2a5ba"/>
    <path id="_ス_1579" d="M234.192,7.009s-.023,0-.048-.047l.048.071h0Z" transform="translate(-215.851 -4.826)" fill="#f2a5ba"/>
    <path id="_ス_1580" d="M234.217,7.226s0-.047-.023-.047C234.194,7.178,234.194,7.249,234.217,7.226Z" transform="translate(-215.879 -4.948)" fill="#f2a5ba"/>
    <path id="_ス_1581" d="M233.235,7.347h0l-.071-.122Z" transform="translate(-215.3 -4.975)" fill="#f2a5ba"/>
    <path id="_ス_1582" d="M233.268,8.364a.046.046,0,0,1-.048-.045v0c0,.047,0,.023.071.095.048,0-.047-.071,0-.047Z" transform="translate(-215.332 -5.588)" fill="#f2a5ba"/>
    <path id="_ス_1583" d="M226.872,13.9l-.047.024h.047Z" transform="translate(-211.736 -8.728)" fill="#f2a5ba"/>
    <path id="_ス_1584" d="M227,14.056l-.071-.047Z" transform="translate(-211.796 -8.789)" fill="#f2a5ba"/>
    <path id="_ス_1586" d="M231.232,10.695h0l-.071-.047Z" transform="translate(-214.174 -6.899)" fill="#f2a5ba"/>
    <path id="_ス_1588" d="M240.482,34.651l.048-.047S240.482,34.675,240.482,34.651Z" transform="translate(-219.415 -20.369)" fill="#f2a5ba"/>
    <path id="_ス_1589" d="M240.125,34.844l.023-.023-.047.047.023-.023Z" transform="translate(-219.2 -20.491)" fill="#f2a5ba"/>
    <path id="_ス_1590" d="M240.087,34.734s-.071.047-.048,0c-.047.095.023,0,0,.023h0l.048-.048h0Z" transform="translate(-219.157 -20.428)" fill="#f2a5ba"/>
    <path id="_ス_1593" d="M240.154,34.223a.294.294,0,0,0-.048.071h.023v-.071Z" transform="translate(-219.204 -20.154)" fill="#f2a5ba"/>
    <path id="_ス_1596" d="M240.048,34.537s.048-.071.023-.048A.075.075,0,0,1,240.048,34.537Z" transform="translate(-219.171 -20.302)" fill="#f2a5ba"/>
    <path id="_ス_1598" d="M239.989,34.27v-.047a.342.342,0,0,1-.047.071h0Z" transform="translate(-219.111 -20.154)" fill="#f2a5ba"/>
    <path id="_ス_1600" d="M239.886,34.619l.071-.071Z" transform="translate(-219.08 -20.337)" fill="#f2a5ba"/>
    <path id="_ス_1601" d="M240,34.109l.047-.048Z" transform="translate(-219.141 -20.064)" fill="#f2a5ba"/>
    <path id="_ス_1602" d="M239.942,34.023s.023-.071.047-.071l-.047.047Z" transform="translate(-219.111 -20.003)" fill="#f2a5ba"/>
    <path id="_ス_1607" d="M239.778,34.643a.185.185,0,0,1,.071-.095C239.849,34.571,239.8,34.6,239.778,34.643Z" transform="translate(-219.019 -20.337)" fill="#f2a5ba"/>
    <path id="_ス_1608" d="M239.833,34.487a.073.073,0,0,1,.023-.047h-.023Z" transform="translate(-219.05 -20.276)" fill="#f2a5ba"/>
    <path id="_ス_1616" d="M239.241,34.413v-.047c-.023.071-.071.071-.122.166h0c.023-.047.071-.095.048-.023a2.292,2.292,0,0,0,.166-.285.084.084,0,0,1-.048.071.154.154,0,0,1-.048.122h0Z" transform="translate(-218.648 -20.154)" fill="#f2a5ba"/>
    <path id="_ス_1617" d="M239.638,34.217h0l.023-.047-.048.047Z" transform="translate(-218.926 -20.125)" fill="#f2a5ba"/>
    <path id="_ス_1618" d="M239.578,34.341a.184.184,0,0,1,.023-.071h0v-.047h-.023c-.023.047-.048.071-.071.122,0,0,.023-.047.048-.047h0l.023.044Z" transform="translate(-218.867 -20.154)" fill="#f2a5ba"/>
    <path id="_ス_1619" d="M239.658,34.6a1.073,1.073,0,0,0-.071.122h-.023a.293.293,0,0,0,.047-.074h0a.341.341,0,0,1,.047-.095h0V34.6Z" transform="translate(-218.898 -20.337)" fill="#f2a5ba"/>
    <path id="_ス_1620" d="M239.561,34.68v.047h0a.122.122,0,0,1,.023-.071h-.023Z" transform="translate(-218.897 -20.398)" fill="#f2a5ba"/>
    <path id="_ス_1621" d="M239.639,34.132l.047-.071-.071.071Z" transform="translate(-218.928 -20.064)" fill="#f2a5ba"/>
    <path id="_ス_1622" d="M239.616,34.137h0l.023-.023Z" transform="translate(-218.928 -20.093)" fill="#f2a5ba"/>
    <path id="_ス_1624" d="M238.479,33.521s.048-.122,0-.071V33.5h0Z" transform="translate(-218.289 -19.713)" fill="#f2a5ba"/>
    <path id="_ス_1627" d="M239.114,33.945V33.9C239.114,33.92,239.091,33.968,239.114,33.945Z" transform="translate(-218.64 -19.971)" fill="#f2a5ba"/>
    <path id="_ス_1635" d="M237.5,34.577l.048-.047.071-.142-.122.19Z" transform="translate(-217.735 -20.247)" fill="#f2a5ba"/>
    <path id="_ス_1636" d="M236.407,33.2s.071-.071.071-.047l-.048.071V33.2c.023-.023-.047.122.023,0v-.047a.944.944,0,0,1,.095-.071c.048-.071,0,0,.023-.071-.048.122-.023,0-.071.095.048-.095,0-.047.048-.142,0,.023,0,.048-.023.023h0v.071a.946.946,0,0,0-.1.071.073.073,0,0,1,.023-.047v.047a.283.283,0,0,1,.023-.122h0v-.044h-.023s-.095.071-.047-.023h-.023v-.048h0c.071-.122-.023-.047-.023-.071v.071h-.095v.048l-.048-.048h0c.048-.142-.095.071-.071-.023h0v-.043h0s0,.023-.048.071h-.023s-.023.048,0-.047c-.023.047-.047,0-.095.122h0a.319.319,0,0,1,.023-.122l-.095.095v-.052h0c.023-.095-.071-.047-.048-.142-.071.142,0-.071-.047.047,0-.023,0-.047.047-.071-.023.023,0-.071-.047,0,0-.023.023-.048.047-.071h0a.073.073,0,0,1,.023-.047,1.454,1.454,0,0,0-.122.19q0-.048-.023,0c0-.023,0-.071.047-.071,0,0,0-.071-.047,0h-.023s0,.023-.047.047h0s-.023,0,0-.071v.071c-.1.122,0-.095-.048-.047v.047s.048-.19.048-.213v-.026c0-.095-.048.071-.071.1,0-.048.047-.1.047-.122,0-.047-.095.122-.071.047a.1.1,0,0,1-.047.095s0-.142-.023-.048h0s-.047,0-.071.071c.071-.213-.1.071,0-.122h0a.084.084,0,0,0-.071.047v-.041q0-.047-.071.048v-.071s0-.122-.023-.048h0s0-.213-.1,0l-.047.048a.479.479,0,0,0-.048.142v-.1h0v-.122c-.048,0-.071-.095-.122-.122v.095h-.048s0-.095.023-.071c0-.047-.023.048-.047.071a.293.293,0,0,1,.047-.122h0s-.023.095-.047.095v-.061h0v.047s-.023,0-.048.071c.023-.142-.071-.071-.047-.122-.023.048-.048.048-.048.048s0,.095-.023.095c.048-.166,0-.071,0-.213,0,.095-.047,0-.071.142v-.122c-.048.071-.048-.047-.095-.047a.237.237,0,0,1-.023.095v-.122s-.023.142,0,.047v.048c-.048-.122-.166.071-.19-.166v.047s-.048,0-.048.1h0s-.023.213-.047.332c.023-.122,0,.166.047,0V32.7c0-.047,0-.071.023-.047h0a.185.185,0,0,0,.071.095v-.026c.023-.1,0,0,0-.122,0,.122.048,0,.023.166,0,0,0-.071.023-.071h0v.1h.023a.154.154,0,0,0,.122-.071h.047l.023-.023a.142.142,0,0,1-.023.095c.048-.047.023-.047.071-.142V32.7s0-.071.023-.071a.13.13,0,0,1-.047.122c0,.122.071-.095.047.071.048-.122,0-.071,0-.095,0-.047.048-.095.048-.071,0,0-.048.166,0,.166h0c.023-.071,0,0,.048-.095h-.023s.071-.122.071-.047a.121.121,0,0,1-.023.071h0c-.023.095-.023,0-.071.095,0,.047.048-.071,0,.047.048-.142,0,0,.071-.071v.071h0v.048s-.023.071,0,.023a.318.318,0,0,1,.023-.122c.048-.071-.047.166,0,.142h0c.023,0,0-.071.048-.095,0,.071,0-.023.048-.047v.071s.023-.122.023-.071l-.048.071h0v.048h0a.294.294,0,0,1,.048-.122c0,.047-.023.047,0,.047,0,.048-.048.095-.023.023v.048h0l.047-.071s0,.048-.023.048v-.045a.283.283,0,0,1-.023.122l.047-.047v.071c0,.023.071-.095.071-.047h0s0,.047.047,0v.093s0-.122.048-.142c.023,0-.023.071-.023.095.023-.047.071-.122.071-.047h0v.047a.336.336,0,0,0-.071.122c.071-.166.048,0,.122-.166v.048h0s.071-.122.071-.071v.023h.048s.047-.023.047-.047v.071c-.071.166.023-.047,0,.071h0a.417.417,0,0,1-.023.142.619.619,0,0,1,.071-.19h0c-.023.071,0,.047,0,.047v-.027a.185.185,0,0,1-.048.122.4.4,0,0,1,.048-.122c0,.047,0,0,.071-.023,0,.023-.023.048-.023.071l.047-.071h0s.047-.047.047-.071c.048-.095-.047.142,0,.047a.337.337,0,0,1-.047.071.516.516,0,0,0,.1-.122V33a1.29,1.29,0,0,1,.095-.19v-.068h.071l-.048.047h0l-.048.095v-.047l-.071.142h0l-.048.071h0s.143-.166.166-.19a1.417,1.417,0,0,0-.1.19c.023-.071-.047.023-.047,0,0,0,0,.047-.023.047l.071-.071a.121.121,0,0,1-.023.071c.048-.122.048-.071.095-.122a.088.088,0,0,1-.047.071c-.023.095.1-.142.071-.048h0c.023-.023.023,0,0,.048h0s.048.023.122-.071l-.071.142.213-.332a2.731,2.731,0,0,1-.19.356h0s.048-.142.071-.142c-.048.095,0,.047-.048.142,0,0,.071-.166.1-.142l-.071.142.095-.122a.566.566,0,0,0-.071.166c0-.023,0,0,.023,0h0s.122-.213.143-.19c0,.023-.095.166-.095.19.047-.071.19-.332.237-.38h0s-.19.308-.237.38v.047a.046.046,0,0,1-.045.047h0v.047a1.106,1.106,0,0,0,.122-.142l-.071.071s.142-.213.142-.19a.594.594,0,0,1-.095.166c0-.023.048-.047.048-.023v.047h0s-.048.122,0,.071c.047-.095.19-.38.237-.451a.932.932,0,0,1-.048.142,1.254,1.254,0,0,1-.143.237s.023-.047.048-.047c0,0-.048.071-.023.071l.047-.071h0a1.317,1.317,0,0,1,.143-.19v.071s-.023.048,0,.071a.084.084,0,0,1-.048.071v.048c.023-.048.048-.048.071-.071.048-.071,0,0-.023,0a1.022,1.022,0,0,1,.166-.237c.023,0-.023.071,0,.047,0,.023.122-.166.122-.071a1.03,1.03,0,0,1-.095.166c-.023,0,0-.047,0-.047h0s-.023.071-.023.047c-.023.071.048.047.023.095a.337.337,0,0,1,.047-.071h0a.444.444,0,0,0,.071-.095h0l-.273.151Z" transform="translate(-215.909 -18.986)" fill="#f2a5ba"/>
    <path id="_ス_1642" d="M239.384,34.039s.048-.071.023-.047C239.455,33.944,239.337,34.062,239.384,34.039Z" transform="translate(-218.791 -20.018)" fill="#f2a5ba"/>
    <path id="_ス_1643" d="M239.182,34.76v.023l.023-.071Z" transform="translate(-218.684 -20.43)" fill="#f2a5ba"/>
    <path id="_ス_1646" d="M238.857,34.52v.023l.023-.048h0Z" transform="translate(-218.501 -20.308)" fill="#f2a5ba"/>
    <path id="_ス_1648" d="M238.578,35.03a.082.082,0,0,0,.023-.047S238.553,35.03,238.578,35.03Z" transform="translate(-218.34 -20.581)" fill="#f2a5ba"/>
    <path id="_ス_1649" d="M238.37,34.392h0l.071-.122Z" transform="translate(-218.227 -20.181)" fill="#f2a5ba"/>
    <path id="_ス_1650" d="M237.711,34.921v-.047c-.023.023,0,0-.048.095,0,.047.048-.071.023-.023h0Z" transform="translate(-217.83 -20.52)" fill="#f2a5ba"/>
    <path id="_ス_1651" d="M234.164,32.211l-.023-.048v.048Z" transform="translate(-215.85 -18.997)" fill="#f2a5ba"/>
    <path id="_ス_1654" d="M236.222,34.458l.023-.071-.047.071Z" transform="translate(-217.006 -20.247)" fill="#f2a5ba"/>
    <path id="_ス_1658" d="M216.2,50.971v.023h.048S216.173,50.994,216.2,50.971Z" transform="translate(-205.757 -29.571)" fill="#f2a5ba"/>
    <path id="_ス_1703" d="M214.973,48.649h.213c.048,0,.122,0,.071.023h.213c-.122,0,0-.023-.122,0h.1s.047-.023,0-.023h0s-.1-.047,0-.071h.047s.047,0,0-.023c.142,0,.023-.023.047-.047h-.071l-.047-.023h-.071a.046.046,0,0,0,.048-.045v0h0c.142,0-.1-.023,0-.047h-.166c.122,0,0-.047.122-.071h.048c-.048,0,.071,0-.048-.023h-.047s.047-.023-.048-.023H215.2s-.047,0,.048-.023h-.071c-.143,0,.1,0,.023-.023h-.047a.731.731,0,0,0,.213-.023h.047s-.166-.023-.071-.047h-.095s.143-.023,0-.023h-.095c.238-.023-.122-.023.095-.047h0a.165.165,0,0,0-.095-.047h.047c.048,0,.023-.023-.071-.023h.071s.122-.047.023-.047h.023c-.095,0,.19-.071-.071-.048h-.207s.071-.023.095,0h0c.143,0,.047-.023.143-.023,0-.023.071-.071.047-.122h-.166c.143-.023.048-.071.1-.071h-.143c.19,0,.071-.023.213-.047-.1,0-.023-.023-.143,0h.122c-.071,0,.048-.047,0-.071h.023s-.143,0-.048-.048h-.071s-.122-.071.095-.142H215.1l.095-.048H215.1l-.356.071c.122,0-.166.048,0,.048h-.022l-.071.071h0l.122-.023c-.143.023,0,.048-.143.071h.023s0,.047.071.047h.023s-.023,0,0,.023h0c-.122.023.122,0-.048.047.143,0,.071-.023.122-.023h.095s-.19.023-.19.047h-.071s-.071.047,0,.047a.318.318,0,0,0,.122-.023c.1,0-.166.023-.143.048h.071s.048,0,0,.023h0a.538.538,0,0,1-.095.023c-.023,0,.122,0,.071.023h.023s-.071.023,0,.023h-.178c.19,0,0,.023.213,0h.122s0,.023-.048.023h-.048c-.19,0,.048,0-.071.023h-.023a.508.508,0,0,0-.143.023.641.641,0,0,1,.213,0h-.022c-.023,0,0,0,.071.023h.095c.095,0-.142.023-.023.023h-.143s.261.047.308.047h-.213c.095,0-.048,0,0-.023h.023a.236.236,0,0,0-.095.023h.095s0,.048.122.048h.237s-.356.023-.4.023h-.166a.842.842,0,0,0,.166.023h.451a.625.625,0,0,0-.166.023h-.047s-.048.023-.048.047h.19c0,.023.213,0,.122.048h-.213c-.071,0,0,.047-.071.047h0l-.036.335Z" transform="translate(-204.819 -27.534)" fill="#f2a5ba"/>
    <path id="_ス_1710" d="M215.713,50.451l.071-.023h-.071Z" transform="translate(-205.488 -29.266)" fill="#f2a5ba"/>
    <path id="_ス_1724" d="M192.355,35.331l.023.023-.023-.046v.023Z" transform="translate(-192.355 -20.764)" fill="#f2a5ba"/>
    <path id="_ス_1725" d="M192.463,35.254h0V35.3s.023-.071.047-.047C192.463,35.159,192.511,35.254,192.463,35.254Z" transform="translate(-192.416 -20.71)" fill="#f2a5ba"/>
    <path id="_ス_1733" d="M192.95,35.6l.023.047a.121.121,0,0,0-.023-.071h0Z" transform="translate(-192.69 -20.918)" fill="#f2a5ba"/>
    <rect id="_方形_160" height="0.071" transform="translate(0.155 14.565)" fill="#f2a5ba"/>
    <path id="_ス_1735" d="M193.083,35.709v.048l-.024-.071.023.023Z" transform="translate(-192.75 -20.977)" fill="#f2a5ba"/>
    <path id="_ス_1736" d="M193.167,35.686a.538.538,0,0,1,.023.095v-.072h-.023Z" transform="translate(-192.812 -20.977)" fill="#f2a5ba"/>
    <path id="_ス_1738" d="M192.95,35.525s0,.047.023.047v-.047Z" transform="translate(-192.69 -20.886)" fill="#f2a5ba"/>
    <path id="_ス_1741" d="M192.733,35.146a.485.485,0,0,1,.023.122A.258.258,0,0,0,192.733,35.146Z" transform="translate(-192.568 -20.674)" fill="#f2a5ba"/>
    <path id="_ス_1743" d="M193.083,35.492v-.023h-.024v.023h.024Z" transform="translate(-192.75 -20.855)" fill="#f2a5ba"/>
    <path id="_ス_1750" d="M193.083,34.8l.023.047c-.023-.071,0-.095-.048-.19V34.7a.913.913,0,0,0,.122.285v-.072c0-.023-.047-.047-.047-.095h0l-.05-.023Z" transform="translate(-192.75 -20.398)" fill="#f2a5ba"/>
    <path id="_ス_1751" d="M193.223,35.416h0s0,.023.048.071v-.071Z" transform="translate(-192.843 -20.825)" fill="#f2a5ba"/>
    <path id="_ス_1752" d="M193.106,35.233a.234.234,0,0,0-.048-.142v.071a.073.073,0,0,0,.023.048h0v.047h0Z" transform="translate(-192.751 -20.642)" fill="#f2a5ba"/>
    <path id="_ス_1753" d="M192.733,34.98a.348.348,0,0,1,.048.095.338.338,0,0,0-.048-.142h0V35h0Z" transform="translate(-192.568 -20.553)" fill="#f2a5ba"/>
    <path id="_ス_1755" d="M193.275,35.439l.023.047-.023-.071Z" transform="translate(-192.872 -20.825)" fill="#f2a5ba"/>
    <path id="_ス_1756" d="M193.331,35.416l.023.048v-.024Z" transform="translate(-192.904 -20.825)" fill="#f2a5ba"/>
    <path id="_ス_1758" d="M194.686,34.982s.071.122.048.047v-.047Z" transform="translate(-193.666 -20.581)" fill="#f2a5ba"/>
    <path id="_ス_1761" d="M193.865,35.173a.023.023,0,0,0,.023.023C193.888,35.173,193.84,35.126,193.865,35.173Z" transform="translate(-193.2 -20.677)" fill="#f2a5ba"/>
    <path id="_ス_1769" d="M194.469,33.466v.047l.071.166Z" transform="translate(-193.544 -19.729)" fill="#f2a5ba"/>
    <path id="_ス_1770" d="M195.84,32.478s-.095-.213-.142-.332c.023.122-.1-.142-.047,0v-.024h0a1.118,1.118,0,0,1-.122-.047h0c.023.095.023,0,.048.095-.048-.122-.071,0-.122-.122,0,0,.023.071,0,.071h0s-.048-.047-.048-.071h-.023a.122.122,0,0,0-.1.122h0s-.023,0-.048.047h0v.048c0-.023-.047-.071-.047-.095a.535.535,0,0,0,.023.166v.045c0-.047-.047-.071-.047-.122-.071-.095,0,.122-.071-.023.047.142.047.071.047.095,0,.048.023.095,0,.095,0,0-.071-.166-.1-.142h0s0,.047-.023,0c.023.071,0,0,0,.095h0s.023.122,0,.071V32.38h0c-.048-.095,0-.023,0-.122,0-.048,0,.071-.023-.023.048.142-.023,0,0,.095h0l-.048-.071s-.048-.048-.048,0c.023,0,.048.071.071.122,0,.095-.071-.142-.095-.095l.048.047-.048-.047a.538.538,0,0,1,.023.095c-.048-.071,0,.023,0,.071V32.38h-.023v-.044s-.023.048-.048.023c0,.047.048.122.023.122,0-.023,0-.048-.023-.048,0-.047-.023-.095,0-.023v-.051h-.047v.071a.606.606,0,0,1-.048-.122v.072s-.048-.048-.048-.071c-.023-.023,0,.122-.023.071h0s-.071-.023-.047.047l-.048-.095s.071.095.048.142c0,.023-.048-.071-.048-.095,0,.047.023.142,0,.071h0v-.044a.347.347,0,0,0-.071-.122c.071.166-.047.047.023.213h-.023v-.044s.047.122,0,.122a.083.083,0,0,1-.023-.048v.048h-.023v.071s-.023-.095,0-.095c-.1-.166,0,.047-.071-.048h0c-.047-.122-.047-.071-.1-.142,0,.023.1.142.1.19h0c-.023-.071-.023-.048-.023-.048v.022a1.063,1.063,0,0,1-.071-.122.609.609,0,0,1,.047.122q-.035-.035,0,.071a.087.087,0,0,0-.018-.071V32.6h0a.242.242,0,0,1,.023.071c.023.095-.071-.122-.047,0a.122.122,0,0,0-.023-.071v.142l-.047-.047s.047.142.071.19l.047.071V33a.122.122,0,0,0-.023-.071h0l-.048-.095v.047a.417.417,0,0,0-.023-.142h0l-.051-.071h0v.284c0-.071-.048-.122-.071-.19.048.071,0-.048.023-.023l-.023-.047v.095a.084.084,0,0,0-.051-.072c.048.122,0,.095,0,.142,0-.047-.023-.095,0-.071-.048-.095.048.166,0,.071h0c0,.047,0,0-.023,0h0s-.071,0-.023.122l-.048-.142.094.378a2.757,2.757,0,0,1-.142-.356h0a.792.792,0,0,1,.071.142l-.071-.142s.071.166.047.166a.861.861,0,0,0-.071-.166l.048.142s-.048-.122-.071-.166h0s.047.237.023.237c0-.023-.071-.19-.095-.19,0,.071.122.356.122.427h0s-.122-.356-.142-.451c0-.023,0-.048-.023-.048v-.073h-.049a.283.283,0,0,0,.047.142v-.095s.071.237.048.237a.972.972,0,0,0-.071-.19h0s0,.122-.023.047c0,0-.048-.095-.048-.047.048.095.166.4.19.475,0,0-.071-.095-.095-.122-.047-.071-.047-.19-.1-.237v.071s-.023-.071-.023-.047c.023.095-.023,0,0,.071,0,.023,0,0-.023,0,.023.047.071.19.048.213a.122.122,0,0,0-.023-.071c-.023,0-.047-.048-.071-.023a.343.343,0,0,0-.047-.071v.048l-.023-.1v.122c.023.071.023,0,.023-.023a.715.715,0,0,1,.071.285c0,.023-.023-.071-.023-.047-.047,0,.048.19,0,.122a.979.979,0,0,1-.071-.19c0-.023.048.048.048.023h-.023v-.051c-.023-.047-.071,0-.122-.047v.071h0a.184.184,0,0,0,.023.1h0c0,.047-.071-.1-.023,0v.047s.048.122.023.122c.023.071,0,0,.047.071-.047-.122.048,0,0-.122a.518.518,0,0,0,.071.122V33.6h0v-.17a.608.608,0,0,1,.047.122h0s.048.048.048,0h0V33.5h0s0-.095.071,0v.023s.071.047.047,0c.071.122.048,0,.1.023v-.164a.033.033,0,0,0,.047,0h0c.071.122,0-.122.071-.023h.047l-.023-.047v-.047s0-.047.048.071a.625.625,0,0,0-.023-.166h0v-.024a.7.7,0,0,1,.071.142v-.095s0-.071.023-.023c.048.095.071,0,.143.071-.071-.142.047.047,0-.048,0,.023.023.048.047.095,0-.047.048.048.023-.047a.088.088,0,0,0,.023.071h0v.046a.99.99,0,0,0-.071-.213c.023.048.023.023,0-.023,0,.023.048.071.023.071,0,0,.071.023.023-.048h.023v-.046h0s0-.023.071.048v-.048c-.071-.122.023.071.023,0h0s.095.142.122.142v.023c.048.071-.023-.071,0-.095a.292.292,0,0,0,.048.122c0,.023-.023-.142.023-.071a.181.181,0,0,0-.047-.095s.095.122.047,0h0v-.1c.095.213,0-.122.095.071h.023v-.048c.047.023.047,0,.023-.095v.071s.122.071.1,0h0s.142.166.047-.048V32.9l-.071-.142s.048.048.048.071h0s.048,0,.071.095c.047-.023.122,0,.166,0l-.047-.095h0s.023.071,0,.071c.023.047,0-.047,0-.071.047.023.023.122.047.122h0v-.1l.023.047h.023l-.048-.071v-.072c.071.122.1,0,.122.048v-.071s-.048-.1-.023-.1c.071.166.047.071.122.19-.048-.071.023-.023-.023-.142a.338.338,0,0,0,.048.095c0-.071.071,0,.1,0a.244.244,0,0,1-.023-.095l.071.095s-.048-.122,0-.047v-.048s.071-.142.213.048c-.023-.048,0-.048,0-.048h0s.047,0,.023-.095h0l.068-.118Z" transform="translate(-192.946 -18.931)" fill="#f2a5ba"/>
    <path id="_ス_1774" d="M193.245,35.022s0-.023-.023,0Z" transform="translate(-192.843 -20.598)" fill="#f2a5ba"/>
    <path id="_ス_1777" d="M193.167,34.68v-.023l.023.071Z" transform="translate(-192.812 -20.398)" fill="#f2a5ba"/>
    <path id="_ス_1783" d="M193.979,34.331h0l.048.122Z" transform="translate(-193.268 -20.215)" fill="#f2a5ba"/>
    <path id="_ス_1784" d="M194.082,33.506a.073.073,0,0,0,.023.048c0-.023,0,0-.023-.1C194.059,33.435,194.105,33.529,194.082,33.506Z" transform="translate(-193.322 -19.723)" fill="#f2a5ba"/>
    <path id="_ス_1785" d="M199.076,33.358l.023.023Z" transform="translate(-196.134 -19.668)" fill="#f2a5ba"/>
    <path id="_ス_1788" d="M195.715,32.759h0l.048.071Z" transform="translate(-194.244 -19.332)" fill="#f2a5ba"/>
  </g>
</svg>
