<svg xmlns="http://www.w3.org/2000/svg" width="76" height="76" viewBox="0 0 76 76">
  <g id="love_2__active" data-name="love (2)_active" transform="translate(0 0)">
    <path id="Path_1309" data-name="Path 1309" d="M75.917,119.12,74,94.931a6.5,6.5,0,0,0-12.979.683c0,.008,0,.015,0,.023l.436,13.887a6.787,6.787,0,0,0-8.3,4.043l-2.411,6.221a3.994,3.994,0,0,1-2.414,2.337,14.708,14.708,0,0,0-9.468,10.531L38,136l-.864-3.347a14.709,14.709,0,0,0-9.469-10.532,3.993,3.993,0,0,1-2.412-2.337l-2.41-6.22a6.788,6.788,0,0,0-8.3-4.043l.436-13.887c0-.008,0-.015,0-.023A6.5,6.5,0,0,0,2,94.944L.082,119.109a23.522,23.522,0,0,0,6.363,18.138c.141.148-.3-.222,6.511,5.4a14.554,14.554,0,0,1,4.817,7.486,2.226,2.226,0,0,0,2.7,1.579L38,147.212l17.522,4.5a2.226,2.226,0,0,0,2.7-1.579,14.554,14.554,0,0,1,4.817-7.486c6.806-5.619,6.371-5.248,6.511-5.4a23.516,23.516,0,0,0,6.364-18.127ZM21.381,146.88a18.973,18.973,0,0,0-5.589-7.67l-6.2-5.122a19.07,19.07,0,0,1-5.067-14.615l1.92-24.164a2.049,2.049,0,0,1,4.089.2l-.618,19.68a6.638,6.638,0,0,0,.414,3.111l4.323,11.158a2.227,2.227,0,0,0,4.152-1.609l-4.323-11.159a2.224,2.224,0,0,1,1.33-2.9,2.3,2.3,0,0,1,2.883,1.379l2.41,6.22a8.438,8.438,0,0,0,5.1,4.934,10.411,10.411,0,0,1,6.606,7.381l.01.04,2.468,9.561Zm45.03-12.792-6.2,5.122a18.974,18.974,0,0,0-5.589,7.67l-13.905-3.568,2.468-9.561.01-.04a10.41,10.41,0,0,1,6.6-7.38,8.439,8.439,0,0,0,5.1-4.934l2.411-6.221A2.3,2.3,0,0,1,60.19,113.8a2.222,2.222,0,0,1,1.329,2.9L57.2,127.852a2.227,2.227,0,1,0,4.152,1.609L65.672,118.3a6.635,6.635,0,0,0,.414-3.111l-.618-19.68a2.049,2.049,0,0,1,4.088-.216l1.922,24.187A19.062,19.062,0,0,1,66.412,134.087Z" transform="translate(0 -75.779)" fill="#fffcfd"/>
    <path id="Path_1310" data-name="Path 1310" d="M162.98,26.457a2.227,2.227,0,0,0,3.149,0L177.987,14.6A8.55,8.55,0,1,0,165.9,2.507l-1.341,1.341-1.341-1.341A8.551,8.551,0,1,0,151.122,14.6Zm-8.71-20.8a4.1,4.1,0,0,1,5.8,0L162.98,8.57a2.227,2.227,0,0,0,3.149,0l2.915-2.915a4.1,4.1,0,1,1,5.794,5.795L164.555,21.734,154.27,11.45a4.1,4.1,0,0,1,0-5.795Z" transform="translate(-126.555 0)" fill="#fffcfd"/>
  </g>
</svg>
