<svg xmlns="http://www.w3.org/2000/svg" width="39" height="39" viewBox="0 0 39 39">
  <g id="love_2_" data-name="love (2)" transform="translate(0 0)" opacity="0.79">
    <path id="Path_1309" data-name="Path 1309" d="M38.958,104.45l-.986-12.413a3.337,3.337,0,0,0-6.66.35s0,.008,0,.012l.224,7.126a3.483,3.483,0,0,0-4.258,2.074l-1.237,3.192a2.05,2.05,0,0,1-1.239,1.2,7.548,7.548,0,0,0-4.858,5.4l-.443,1.718-.443-1.718a7.548,7.548,0,0,0-4.859-5.4,2.049,2.049,0,0,1-1.238-1.2L11.723,101.6a3.484,3.484,0,0,0-4.258-2.075L7.688,92.4s0-.008,0-.012a3.337,3.337,0,0,0-6.661-.344l-.985,12.4a12.071,12.071,0,0,0,3.265,9.307c.072.076-.152-.114,3.341,2.769a7.468,7.468,0,0,1,2.472,3.842,1.143,1.143,0,0,0,1.387.81l8.992-2.308,8.992,2.308a1.143,1.143,0,0,0,1.387-.81,7.469,7.469,0,0,1,2.472-3.842c3.493-2.883,3.269-2.693,3.341-2.769a12.067,12.067,0,0,0,3.266-9.3ZM10.972,118.7A9.736,9.736,0,0,0,8.1,114.76L4.92,112.131a9.786,9.786,0,0,1-2.6-7.5l.985-12.4a1.051,1.051,0,0,1,2.1.1l-.317,10.1a3.406,3.406,0,0,0,.213,1.6l2.218,5.726a1.143,1.143,0,0,0,2.131-.826L7.43,103.2a1.141,1.141,0,0,1,.682-1.486,1.181,1.181,0,0,1,1.48.707l1.237,3.192a4.33,4.33,0,0,0,2.617,2.532,5.343,5.343,0,0,1,3.39,3.787l.005.02,1.266,4.906Zm23.108-6.564L30.9,114.76a9.736,9.736,0,0,0-2.868,3.936l-7.136-1.831,1.266-4.906.005-.02a5.342,5.342,0,0,1,3.389-3.787,4.331,4.331,0,0,0,2.618-2.532l1.237-3.192a1.181,1.181,0,0,1,1.479-.707,1.14,1.14,0,0,1,.682,1.486l-2.218,5.726a1.143,1.143,0,1,0,2.131.826l2.218-5.726a3.4,3.4,0,0,0,.213-1.6l-.317-10.1a1.051,1.051,0,0,1,2.1-.111l.986,12.412A9.782,9.782,0,0,1,34.08,112.131Z" transform="translate(0 -82.209)" fill="#f3aaba"/>
    <path id="Path_1310" data-name="Path 1310" d="M155.986,13.577a1.143,1.143,0,0,0,1.616,0l6.085-6.085a4.388,4.388,0,1,0-6.205-6.205l-.688.688-.688-.688A4.388,4.388,0,1,0,149.9,7.492ZM151.517,2.9a2.1,2.1,0,0,1,2.974,0l1.5,1.5a1.143,1.143,0,0,0,1.616,0l1.5-1.5a2.1,2.1,0,1,1,2.973,2.974l-5.277,5.277-5.277-5.277a2.1,2.1,0,0,1,0-2.974Z" transform="translate(-137.295)" fill="#f3aaba"/>
  </g>
</svg>
