<svg id="logo_LS_simple2" xmlns="http://www.w3.org/2000/svg" width="145.746" height="33" viewBox="0 0 145.746 33">
  <g id="lifestar" transform="translate(0 8.749)">
    <path id="_ス_1380-2" d="M26.712,88.755H15V66.331h2.443V86.665h9.27v2.089Z" transform="translate(-15 -64.857)" fill="#f1a1b4"/>
    <path id="_ス_1381-2" d="M66.978,70.353a1.586,1.586,0,0,1-1.589-1.583q0-.047,0-.094a1.6,1.6,0,1,1,3.208-.07q0,.035,0,.07a1.56,1.56,0,0,1-1.622,1.678Zm1.236,18.864H65.772V73.178h2.442V89.216Z" transform="translate(-48.025 -65.32)" fill="#f1a1b4"/>
    <path id="_ス_1382-2" d="M92.777,69.913c0-2,0-4.62,1.766-6.415a5.287,5.287,0,0,1,3.709-1.442,5.952,5.952,0,0,1,2.384.471l-.412,1.913a4.614,4.614,0,0,0-1.854-.383c-2.531,0-3.149,2.354-3.149,4.944v.912h3.884v1.913H95.221V85.95H92.777V71.826H90.571V69.913h2.205Z" transform="translate(-64.528 -62.055)" fill="#f1a1b4"/>
    <path id="_ス_1383-2" d="M140.4,99.477a11.632,11.632,0,0,1-5.033,1c-4.683,0-7.477-3.3-7.477-8.093,0-5.033,2.825-8.652,7.151-8.652,4.944,0,6.209,4.532,6.209,7.326,0,.559-.029.971-.059,1.354H130.274c.029,4.443,2.56,6.118,5.444,6.118a10.135,10.135,0,0,0,4.209-.824l.471,1.766v0Zm-1.56-8.888c.029-2.178-.883-5-4.032-5-2.946,0-4.238,2.795-4.473,5Z" transform="translate(-88.985 -76.263)" fill="#f1a1b4"/>
    <path id="_ス_1384-2" d="M222.256,68.467a7.618,7.618,0,0,0-3.943-1.03c-3.119,0-4.3,1.913-4.3,3.531,0,2.207,1.353,3.323,4.355,4.591,3.619,1.53,5.474,3.384,5.474,6.592,0,3.56-2.59,6.3-7.416,6.3a10.322,10.322,0,0,1-5.355-1.412l.68-2.03a9.139,9.139,0,0,0,4.826,1.383c3,0,4.767-1.619,4.767-4.032,0-2.207-1.209-3.56-4.12-4.738-3.384-1.265-5.68-3.237-5.68-6.327,0-3.414,2.766-5.915,6.857-5.915a9.11,9.11,0,0,1,4.591,1.057l-.736,2.03,0,0Z" transform="translate(-143.504 -64.229)" fill="#f1a1b4"/>
    <path id="_ス_1385-2" d="M264.942,74.826,267.355,74v3.737H271.5v1.912h-4.148v9.271c0,2.03.618,3.149,2.178,3.149a4.775,4.775,0,0,0,1.648-.236l.147,1.884a6.168,6.168,0,0,1-2.384.383c-3.884,0-4-3.531-4-5.238V79.651h-2.471V77.739h2.472V74.826Z" transform="translate(-177.189 -69.885)" fill="#f1a1b4"/>
    <path id="_ス_1386-2" d="M314.674,96.327a22.444,22.444,0,0,0,.236,3.826h-2.236l-.239-2.06h-.088a5.576,5.576,0,0,1-4.738,2.413,4.446,4.446,0,0,1-4.678-4.2q-.01-.179,0-.359c0-3.852,3.355-5.944,9.3-5.915,0-1.354,0-4.414-3.649-4.414a6.94,6.94,0,0,0-3.914,1.148l-.588-1.678a9.126,9.126,0,0,1,4.892-1.355c4.532,0,5.709,3.208,5.709,6.386Zm-2.413-4.5c-3.031,0-6.827.441-6.827,3.826a2.668,2.668,0,0,0,2.766,2.972,3.922,3.922,0,0,0,4.061-3.767S312.262,91.824,312.262,91.824Z" transform="translate(-203.702 -76.261)" fill="#f1a1b4"/>
    <path id="_ス_1387-2" d="M366.329,86.234a7.374,7.374,0,0,0-.883-.059c-2.649,0-4,2.619-4,5.326v8.711H359V88.97c0-1.707-.029-3.267-.118-4.8h2.148l.118,3.09h.088a4.8,4.8,0,0,1,4.353-3.443,6.265,6.265,0,0,1,.736.088v2.325h0Z" transform="translate(-240.378 -76.32)" fill="#f1a1b4"/>
  </g>
  <g id="icon-star" transform="translate(129.123)">
    <path id="_ス_1407" d="M216.49,5.628a.267.267,0,0,0-.037-.075C216.415,5.666,216.49,5.628,216.49,5.628Z" transform="translate(-208.141 -4.358)" fill="#f2a5ba"/>
    <path id="_ス_1408" d="M215.678,8.967l-.018.168.018-.15V8.967Z" transform="translate(-207.629 -6.595)" fill="#f2a5ba"/>
    <path id="_ス_1409" d="M214.8,10.19h.018s.1,0,.112-.037h0l-.075-.15h0l.037-.168a.384.384,0,0,0-.168.037h0l.075.15a5.283,5.283,0,0,1-.168.56c.075-.056.112-.243.15-.392h.018Zm.075-.168-.037.13Z" transform="translate(-206.954 -7.164)" fill="#f2a5ba"/>
    <path id="_ス_1410" d="M213.692,13.087h0a.268.268,0,0,1-.037.13c.037-.018,0,.13.056-.13Z" transform="translate(-206.314 -9.296)" fill="#f2a5ba"/>
    <path id="_ス_1412" d="M213.142,14.319v-.15s-.056.15-.056.1c-.037.15,0,.13.056.056h0Z" transform="translate(-205.932 -10.005)" fill="#f2a5ba"/>
    <path id="_ス_1414" d="M213.366,14.328l-.037.168s.037,0,0-.075v-.1h0Z" transform="translate(-206.101 -10.107)" fill="#f2a5ba"/>
    <path id="_ス_1415" d="M213.437,14.723l.018-.056.039-.281-.056.337Z" transform="translate(-206.172 -10.147)" fill="#f2a5ba"/>
    <path id="_ス_1417" d="M210.415,17.769s-.1-.056-.018-.075a1.6,1.6,0,0,0-.317.056h.337Z" transform="translate(-203.971 -12.315)" fill="#f2a5ba"/>
    <path id="_ス_1418" d="M209.642,17.945a1.31,1.31,0,0,0,.15-.037A.2.2,0,0,0,209.642,17.945Z" transform="translate(-203.685 -12.453)" fill="#f2a5ba"/>
    <path id="_ス_1424" d="M210.068,18.089s-.168.018-.262.018h.316s.056-.037-.056-.037h0Z" transform="translate(-203.793 -12.561)" fill="#f2a5ba"/>
    <path id="_ス_1428" d="M208.83,18.062a.42.42,0,0,1,.13.018C208.923,18.081,208.83,18.043,208.83,18.062Z" transform="translate(-203.153 -12.553)" fill="#f2a5ba"/>
    <path id="_ス_1430" d="M211.382,18.126a.184.184,0,0,0-.112.037h.112Z" transform="translate(-204.751 -12.598)" fill="#f2a5ba"/>
    <path id="_ス_1431" d="M205.769,18.314s.411.056.262.1c-.243.018-.205,0-.317-.037.1.056-.317.075-.262.15l.205-.037s-.075.037,0,.037c0-.037.224-.075.411-.037.187-.037.056-.168-.1-.243,0,0,0,.037-.187.056h0Z" transform="translate(-200.935 -12.674)" fill="#f2a5ba"/>
    <path id="_ス_1432" d="M206.988,18.128h.431a1.63,1.63,0,0,1-.262-.056c-.13.018-.15.037-.168.056Z" transform="translate(-201.945 -12.563)" fill="#f2a5ba"/>
    <path id="_ス_1434" d="M211.026,18.507h-.3l.15.056h0C211.044,18.562,211.007,18.525,211.026,18.507Z" transform="translate(-204.396 -12.847)" fill="#f2a5ba"/>
    <path id="_ス_1435" d="M206.576,18.078l.037-.056-.168.075.13-.018Z" transform="translate(-201.59 -12.53)" fill="#f2a5ba"/>
    <path id="_ス_1436" d="M205.507,18.11l.018-.037-.112.018.1.018Z" transform="translate(-200.913 -12.563)" fill="#f2a5ba"/>
    <path id="_ス_1437" d="M213.422,34.942l-.037.075.075-.1h-.037Z" transform="translate(-206.138 -23.605)" fill="#f2a5ba"/>
    <path id="_ス_1439" d="M202.22,18.742l.037-.018S202.22,18.724,202.22,18.742Z" transform="translate(-198.82 -12.99)" fill="#f2a5ba"/>
    <path id="_ス_1441" d="M208.769,11s-.187.187-.112.13l.205-.15h-.056a1.9,1.9,0,0,1,.374-.317c.205-.112.168-.056.262-.112,0,0,.037,0,.112-.075l.449-.317-.337.15c.1-.112.374-.262,0-.075.075-.037.168-.075.262-.13a1.526,1.526,0,0,1-.262-.018v-.037a.6.6,0,0,0-.13-.075c-.056,0-.075,0-.243.075a.127.127,0,0,0-.112-.075.824.824,0,0,0-.374.1h-.635a3.068,3.068,0,0,1-.43.037h0a.308.308,0,0,0-.112-.1.461.461,0,0,0-.28.1c-.1-.056-.449-.018-.575-.112.056.018-.018.037-.13.037-.187-.056-.411-.13-.467-.15a.1.1,0,0,1-.056-.018c-.075-.018-.13,0-.355.15h-.262a3.355,3.355,0,0,1-.411-.037h-.056c-.187-.056-.449-.112-.522-.13V9.767h0a1,1,0,0,0-.018-.205,3.9,3.9,0,0,0-.075-.486.354.354,0,0,0-.115-.07h-.1l-.037-.075.037-.15a2.186,2.186,0,0,0,.1-.691.353.353,0,0,0-.112-.075c-.075,0-.075-.018-.317.13l-.056-.13V7.974a3.7,3.7,0,0,0-.018-.542.354.354,0,0,0-.112-.075h-.075l.056-.168a2.042,2.042,0,0,0,.187-.709.354.354,0,0,0-.112-.075.37.37,0,0,0-.205.056V6.424a.747.747,0,0,1-.075-.056l-.037-.075c-.187-.355-.224-.411-.224-.43a.172.172,0,0,0-.112-.075h-.112a.2.2,0,0,0-.018-.112.186.186,0,0,0-.1-.075.251.251,0,0,0-.168.037h-.022l.075.15-.075.037-.018-.1c0,.056-.15.392-.224.616a2.205,2.205,0,0,0-.224.747.354.354,0,0,0,.112.075c.056,0,.075.018.337-.13a2.87,2.87,0,0,1-.224.243c-.205.205-.355.374-.486.523l.037-.056v-.1a1.161,1.161,0,0,0-.056.187c-.3.317-.374.43-.392.5a.767.767,0,0,1-.056.15c.018-.037.056-.1.075-.1h0v.018h.018s.056.075.112.075a2.5,2.5,0,0,0,.747-.355c-.13.13-.262.243-.374.374-.374.374-.616.6-.767.767h0s-.112.13-.15.168V9.375s-.056.15-.1.15h.037c-.075.1-.056.13,0,.187,0,0,.018.037.037.037h0V9.8h0V9.767h.075l-.037.056a.066.066,0,0,0,.056-.037h0s.28-.13,1.176-.635c.392-.224.934-.542,1.064-.6a.112.112,0,0,0,.075-.018.057.057,0,0,0,.037-.018s.037,0,.037.018a.711.711,0,0,0,.056.187l.037-.056a.6.6,0,0,1,.037.224c.13.112-.112-.355,0-.243a.723.723,0,0,0,.056.3c-.13,0-.392.112-3.007,1.588-.635.374-1.363.784-1.887,1.064.112-.13.243-.262.355-.392q.953-1.027.878-1.158a.348.348,0,0,0-.075-.056H200s.13-.037-.018-.056h.187A.636.636,0,0,1,200,9.917h-.374a1.738,1.738,0,0,0,.336,0c-.056.037-.205.056-.15.112-.056.018-.13.075-.243.13h-.018c-.15.1-.374.205-.691.392-.224.13-.5.28-.691.392l.056-.205c.13-.542.15-.616.13-.671h.11c.018-.037-.037-.037-.13-.037a.258.258,0,0,0-.075-.056,1.02,1.02,0,0,1,.337-.018c-.112-.056-.056,0-.224-.056.15.1-.6,0-.355.1a.767.767,0,0,0-.15-.056.14.14,0,0,0,0-.168.172.172,0,0,0-.112-.075,2.162,2.162,0,0,0-.5.224h-.037l-.1.056-.075.037a.732.732,0,0,0-.317.037c-.168,0,.037-.018-.075-.056l-.168.037L196.33,10l-.112-.075h0a1.4,1.4,0,0,1-.224-.13c-.018,0-.037-.037-.075-.037a.407.407,0,0,0-.243.075l-.075.037a1.141,1.141,0,0,1-.112-.075.142.142,0,0,0-.075-.037.251.251,0,0,0-.168.037h-.037l.037.112h-.074l.1.056h-.037s0,.056.037.075v.075h.1c.075.037.168.112.337.224.15.1.317.224.374.262.056.056.112.056.205.018.037.018.075.056.112.075a1.869,1.869,0,0,0,.13.337.186.186,0,0,0,.1.075.469.469,0,0,0,.056.13.172.172,0,0,0,.112.075h.112c.056.056.13.13.243.262s.262.28.28.3a.1.1,0,0,0,.1.056.315.315,0,0,0,.224-.075h0s.187.056.392.112h.037c-.075.13-.056.168,0,.224a.127.127,0,0,0,.1.068.5.5,0,0,0,.187-.037,6.6,6.6,0,0,0,.654.467q0,.1.037.112a.172.172,0,0,0,.112.075.411.411,0,0,0,.15-.018l.224.28c.075.112.168.205.205.262a.911.911,0,0,0-.056.13c0,.018-.018.037-.018.075-.018.075-.037.168-.056.262h0q-.863,1.009-.784,1.139a.353.353,0,0,0,.112.075c.056,0,.075,0,.28-.1,0,.037.037.018.075,0v.13c-.037,0-.056.056-.075.1-.374.28-.336.337-.28.43,0,.037.037.056.075.075a.139.139,0,0,0,0,.15h.02c-.056.168-.13.374-.187.523l-.112.3h0c-.112.3-.112.317-.075.374h0c0,.1-.037.168-.037.3l-.056.037a1.574,1.574,0,0,1-.037.187.3.3,0,0,1-.075.187,2.194,2.194,0,0,0-.1.205c.168-.075.523-.317.9-.56.187-.13.392-.262.575-.374a4.2,4.2,0,0,1,.392-.224c-.168-.037.28-.112.243-.205.056,0,.13-.037.056.037.243-.205.43-.224.56-.411.056,0-.037.075,0,.075a.173.173,0,0,1,.112-.075c.037,0-.018.037-.056.1.262-.187.243-.28.205-.355a.479.479,0,0,0,.3-.224c.056,0,.168-.037,0,.075.1-.056.6-.355.575-.411.037,0,.13-.1.15-.112l.224-.15a.537.537,0,0,0,.112-.075h0a.308.308,0,0,0,.112.1.412.412,0,0,0,.15-.018c.168.15.205.168.262.187l.037.037c.13.13.28.3.3.317a.1.1,0,0,0,.1.056.251.251,0,0,0,.15-.037h0a.857.857,0,0,1-.018.187,2.374,2.374,0,0,0-.056.691.354.354,0,0,0,.112.075l.671-.317.056-.037h0s-.1.037.037.13c0,.018.075.056.13.075-.15.187-.13.205-.075.28a.172.172,0,0,0,.112.075c.075,0,.075.018.392-.15a.656.656,0,0,1,.168.13c-.037-.056-.056-.112.056-.056a.989.989,0,0,1,.224.187,1.748,1.748,0,0,0,.037.542.172.172,0,0,0,.112.075c.075,0,.075.018.486-.205.168.1.392.224.5.28a.541.541,0,0,0,0,.187.172.172,0,0,0,.112.075h.037a.137.137,0,0,0,.112-.037.949.949,0,0,0,.243.168c-.037-.075-.056-.168-.1-.262h.018s.112-.15.056-.224c0-.018-.037-.037-.056-.056h0s.1-.15.056-.224c0-.018-.037-.037-.056-.056a1.6,1.6,0,0,0,.075-.575.172.172,0,0,0-.112-.075c-.056,0-.075,0-.28.1-.018-.056-.018-.075-.037-.075l-.031-.047a2.61,2.61,0,0,0-.13-.355.516.516,0,0,0-.112-.15c0-.075.018-.018.037-.018l-.037-.13c.243-.411.224-.43.187-.5a.172.172,0,0,0-.112-.075.37.37,0,0,0-.205.056c.037-.112.056-.224.1-.317v-.037a.446.446,0,0,0,.056-.13,1.046,1.046,0,0,0,.075-.467.172.172,0,0,0-.112-.075,1.549,1.549,0,0,0-.411.168,1.617,1.617,0,0,0-.13-.317s.018,0,.037.037a2.992,2.992,0,0,1-.205-.729c0-.056-.037-.112-.037-.168v-.075h-.037v-.037a.847.847,0,0,0,.037-.15h0s.1-.1.075-.15l.392-.28h0c.671-.467,1.363-.9,2-1.326h-.112l.224-.168c.075-.018.112,0-.037.1.056,0,.112-.056.168-.112.037-.056.1-.13.1-.13.224-.13.224-.112.15-.037h0l-.076.015Zm.654-.467-.1.056C209.44,10.493,209.423,10.514,209.423,10.533ZM199.6,12.624h0s-.056-.1-.112-.1h-.056v-.1h.056a.075.075,0,0,0,.037.075.127.127,0,0,0,.112.075c.13.037.243,0,2.409-1.27.243-.13.5-.3.747-.43-.28.205-.56.43-.8.635-1.009.8-1.495,1.176-1.718,1.382h0a1.107,1.107,0,0,0-.112-.075s-.037-.037-.056-.037l-.037-.037s-.15-.224-.187-.187a.294.294,0,0,1-.1.317c-.075-.1-.13-.187-.168-.224h0Zm4.184-3.213a.354.354,0,0,0,.112.075h.075a.5.5,0,0,1,.018.224c.075.187.037-.075.112.112v.056l.037.037h0a.23.23,0,0,0-.1-.037c-.112-.018-.15-.037-2.205,1.158-.28.168-.575.337-.878.5.28-.224.6-.449.878-.654,1.139-.841,1.681-1.27,1.942-1.494h0l0,.018Zm1.887,3.25v-.056l.317-.205c-.168.13.037.1-.262.262l.1-.15-.168.13h0l.016.018Zm-.542.374h.056c-.429.224-1.176.635-2.54,1.42.523-.317,1.064-.654,1.568-.953.522-.317.99-.6,1.4-.863l-.056.037-.056.037-.075.056s-.187.13-.337.224v.038h0l.037,0Zm.337,2.073a.354.354,0,0,0,.112.075h.075c-.168.1-.355.205-.6.337l-.262.15a2.738,2.738,0,0,0,.187-.205c.187-.187.317-.337.449-.467,0,.1.018.1.037.112h0Zm-1.214.337s.037.056,0,.056Zm.075,0a.275.275,0,0,0-.075-.037v-.056c.15-.075.392-.224.8-.467l.056-.037c-.13.13-.262.28-.374.392-.13.13-.243.262-.337.355-.056-.075-.075-.112-.075-.15h0Zm-.822-1.027a.1.1,0,0,0-.018-.056h0c.449-.28.878-.523,1.251-.729h0a.134.134,0,0,0,.13,0h0c-.13.075-.337.205-.671.392-.224.13-.486.28-.654.374h0Zm1.774-.747a.1.1,0,0,0-.018-.056c0-.018-.037-.037-.056-.056h0l.056-.037.037.075v.056h-.018v.018Zm-.058.187c-.1.3-.1.317-.056.374a.127.127,0,0,0,.112.075h.037v.056c-.112.075-.262.15-.43.262-.112.075-.243.15-.374.224a3.2,3.2,0,0,1,.205-.262c.3-.392.449-.6.523-.709h0Zm.392,1.755a1.424,1.424,0,0,0-.467.205l.075-.037c.15-.1.337-.187.486-.28l-.112.112Zm.337.747a.268.268,0,0,1-.056-.037l.1-.056-.056.1h0Zm.1-.486s-.243.13-.467.262a3.334,3.334,0,0,1,.243-.262l.168-.187s.037.112.056.187h0ZM204.08,12.7c-1.009.575-2.148,1.233-3.063,1.755.709-.449,1.534-.971,2.279-1.438a42.736,42.736,0,0,0,3.829-2.5h0a.779.779,0,0,0,.337-.13h0s.056.187.075.28V10.7c-.747.411-1.868,1.046-3.493,2h.036Zm.112-2.614h0v.13a.075.075,0,0,0-.037-.075C204.155,10.122,204.192,10.1,204.192,10.084Zm-.055.075c.037.1.075.205.112.3h.467c-.429.243-1.027.575-1.905,1.083-.429.243-.9.523-1.326.767.224-.187.486-.374.709-.56a23.857,23.857,0,0,0,1.943-1.592h0Zm2.26.224h-.037a.782.782,0,0,1,.262-.037c-.411.205-1.2.654-2.727,1.55-.671.392-1.457.841-2.129,1.233.317-.205.654-.43.971-.654,1.812-1.214,2.614-1.775,2.951-2.055a4.29,4.29,0,0,0,.709-.037ZM203,11.8c.3-.168.616-.355.934-.542-.467.317-.953.654-1.4.953-1.176.784-1.83,1.233-2.205,1.513V13.69h-.018l.112-.075s0-.018-.037-.037v-.037h.037s.075-.075.075-.13c.15-.187.205-.262.187-.317.336-.168.99-.542,2.3-1.308h0L203,11.8Zm-2.839,2.013h0l-.037.037v-.037Zm.112.449a38.177,38.177,0,0,0,3.511-1.942c-.224.15-.449.28-.671.43-1.4.878-2.334,1.475-2.972,1.868.168-.262.15-.3.112-.355h.02Zm-.392-.1a.116.116,0,0,0,.037.075v.037l-.075.056v-.075l.037-.075h0Zm-.486,1.942h0l.056-.15s.056.018.056.037v-.168s.018-.112.018-.13c.037,0,.075-.037.112-.056a.327.327,0,0,1,.018-.1c.616-.3,1.887-1.009,4.613-2.6.878-.5,1.868-1.064,2.708-1.55-.9.56-1.962,1.214-2.933,1.793-2.78,1.7-4.072,2.5-4.669,2.914h0l.02,0Zm6.892-3.885a1.382,1.382,0,0,1-.1.112l-.037-.037.13-.075ZM203.278,14.8s-.056-.056-.1-.056h-.037l.1-.056v.037a.127.127,0,0,0,.112.075c.1.018.112.018,1.009-.5l.243-.13-.15.205a8.308,8.308,0,0,0-.616.863c-.1-.056-.205-.1-.317-.168-.13-.112.056,0,0-.075l-.112-.037-.15-.15h0l.019,0Zm4.838-4.482.075.037h.056l.037-.037h.018l-.411.205-.034-.125a1.054,1.054,0,0,1,.243-.1h0l.016.015ZM204.6,9.893l-.037-.037Zm-1.569-3.916h0l-.056.037.037-.075v.037Zm-.224.5c.075-.205.13-.355.168-.467l.037.056s-.037.205-.1.205a.479.479,0,0,1,.1.262l-.168.1-.13.075.1-.224Zm-.055,1.046c.187-.187.317-.355.43-.467,0,.018.018.037.037.056,0,.075-.056-.056-.056,0a.551.551,0,0,1,.15.28c-.075,0-.187.075-.784.411H202.5l.262-.262h0S202.756,7.527,202.756,7.527Zm-.467,1.4-.185.112.262-.262c.5-.5.8-.784.953-.971h.13a2.26,2.26,0,0,1,.1.337v.13h0c-.1-.018-.112-.037-1.251.635h0l0,.019Zm-1.252,1.9c.5-.28,1.046-.6,1.534-.878-.28.224-.6.449-.878.654a12.889,12.889,0,0,0-2.129,1.7.139.139,0,0,1-.056-.056l.056.056v.037a.222.222,0,0,1-.1-.018v-.057a1.894,1.894,0,0,0-.075-.5c.374-.205.916-.5,1.643-.934h0Zm-1.9,0,.262-.15c-.112.112-.205.224-.3.337-.3.317-.5.542-.635.691h-.1v-.034c-.15-.1-.243-.187-.355-.262.1,0,.15,0,1.139-.575h0l-.016-.008Zm-1.662.15c-.13-.168.205.13.112-.018a.277.277,0,0,1-.168-.056l-.13-.056h0s.187-.112.317-.187.28-.168.43-.243l-.056.243c-.112.5-.13.575-.112.635-.037-.037-.1-.056-.13-.1,0-.037-.15-.15-.056-.13a.348.348,0,0,1-.187-.1h0l-.02,0Zm-.1.075a1.533,1.533,0,0,1-.205-.075l-.075-.037.15-.075s.262.15.355.205q-.056.056-.224,0h0v-.018Zm.56-.971q-.168.084-.5.28c-.168.1-.374.224-.542.3h0l-.057-.164s.224-.112.522-.28l.15-.1h.037a1.687,1.687,0,0,1,.205-.112h.112l.056.056a.506.506,0,0,0-.243,0,1.526,1.526,0,0,1,.262.018h0Zm-.317,1.438h0l-.037-.037h0l-.037-.037.037.037.075.037Zm3.511,4.333a.575.575,0,0,1,.168-.1A.36.36,0,0,1,201.127,15.852Zm.355,0s-.018-.018,0-.075l-.037.037c-.112.037-.1-.018-.037-.1l.13-.037s.075-.15.037-.187l-.075.075v-.037l-.075.075h-.112l-.392.205a4.618,4.618,0,0,1-.747.767c.075-.112-.037-.1-.075-.15.15,0,.3-.224.5-.355-.112.075-.112.018-.1,0l-.337.3a.892.892,0,0,0-.224.075c.075,0,0,.075-.075.15a1.036,1.036,0,0,1-.15.112l-.037.037h-.018l-.037.056v-.051s0-.018.037-.037a.288.288,0,0,1,.112-.075.1.1,0,0,0-.072.035h-.037v.037h-.018a.268.268,0,0,1-.037.075.181.181,0,0,1-.15.13c.037-.018.056-.018.056-.056a.45.45,0,0,1-.15.112c-.037.018-.056,0-.037-.018h.018a2.849,2.849,0,0,0-.317.187v-.13l.13-.075s.187-.112.224-.13h.018s.112-.15.056-.224l-.037-.037c.317-.168.9-.486,2-1.1h.018v.037h0a.186.186,0,0,1,.075.018h.037a.141.141,0,0,0,.075-.018.759.759,0,0,1-.168.187,1.189,1.189,0,0,0,.168-.037l-.243.205h0l.1.015Z" transform="translate(-194.202 -4.389)" fill="#f2a5ba"/>
    <path id="_ス_1442" d="M213.493,34.422h.037C213.53,34.41,213.518,34.41,213.493,34.422Z" transform="translate(-206.209 -23.272)" fill="#f2a5ba"/>
    <path id="_ス_1444" d="M203.253,18.073h-.168a1.522,1.522,0,0,1,.168.037S203.215,18.092,203.253,18.073Z" transform="translate(-199.387 -12.563)" fill="#f2a5ba"/>
    <path id="_ス_1446" d="M199.054,18.2c.112,0,0-.056.075-.037.037-.018-.13,0-.224,0-.1.018-.1.037.13.018h0Z" transform="translate(-196.608 -12.619)" fill="#f2a5ba"/>
    <path id="_ス_1448" d="M218.024,5.737l-.1-.075a.575.575,0,0,1,.037.13l.056-.056h0Z" transform="translate(-209.115 -4.429)" fill="#f2a5ba"/>
    <path id="_ス_1450" d="M207.73,11.894l-.037.018h.019l.018-.018Z" transform="translate(-202.407 -8.513)" fill="#f2a5ba"/>
    <path id="_ス_1451" d="M207.6,11.788h.056s-.075-.037-.056-.056C207.546,11.788,207.639,11.751,207.6,11.788Z" transform="translate(-202.336 -8.408)" fill="#f2a5ba"/>
    <path id="_ス_1454" d="M207.856,11.227h.037a.058.058,0,0,1,.018-.037C207.894,11.19,207.874,11.19,207.856,11.227Z" transform="translate(-202.514 -8.052)" fill="#f2a5ba"/>
    <path id="_ス_1457" d="M207.73,11.407s0,.018-.037.037C207.711,11.444,207.767,11.444,207.73,11.407Z" transform="translate(-202.407 -8.194)" fill="#f2a5ba"/>
    <path id="_ス_1459" d="M207.692,11.063h.019s0-.018.037-.037a.267.267,0,0,0-.056.037Z" transform="translate(-202.407 -7.945)" fill="#f2a5ba"/>
    <path id="_方形_143" d="M207.484,11.5l.074-.008h0Z" transform="translate(-202.27 -8.252)" fill="#f2a5ba"/>
    <path id="_ス_1461" d="M207.692,10.883h.019l.037-.018-.056.018Z" transform="translate(-202.407 -7.839)" fill="#f2a5ba"/>
    <path id="_ス_1462" d="M207.692,10.74s.037-.037.056-.037h-.056Z" transform="translate(-202.407 -7.733)" fill="#f2a5ba"/>
    <path id="_ス_1464" d="M207.624,10.973l-.037.037h0a.036.036,0,0,0,.037-.035Z" transform="translate(-202.338 -7.91)" fill="#f2a5ba"/>
    <path id="_ス_1465" d="M207.549,11.044h0l-.018-.018Z" transform="translate(-202.301 -7.944)" fill="#f2a5ba"/>
    <path id="_ス_1467" d="M207.258,11.388a.143.143,0,0,1,.1-.037A.121.121,0,0,0,207.258,11.388Z" transform="translate(-202.122 -8.157)" fill="#f2a5ba"/>
    <path id="_ス_1469" d="M207.422,10.936s.037,0,.037-.018h-.037v.037h0Z" transform="translate(-202.23 -7.873)" fill="#f2a5ba"/>
    <path id="_ス_1476" d="M206.638,10.739a.057.057,0,0,1,.018-.037c-.037.037-.075,0-.15.056h.035s-.037,0-.037.018c.037-.018.075-.018.056,0a.741.741,0,0,0,.224-.13h-.056s-.037.056-.075.056h0l-.016.038Z" transform="translate(-201.628 -7.695)" fill="#f2a5ba"/>
    <path id="_ス_1477" d="M207.311,10.7v.037h0l.037-.037Z" transform="translate(-202.157 -7.733)" fill="#f2a5ba"/>
    <path id="_ス_1478" d="M207.1,10.809h-.056c-.037.018-.075,0-.112.056h.057c-.018-.018.018,0,.037-.037h.037Z" transform="translate(-201.909 -7.802)" fill="#f2a5ba"/>
    <path id="_ス_1479" d="M206.988,11.534l.018-.018Z" transform="translate(-201.945 -8.265)" fill="#f2a5ba"/>
    <path id="_ス_1480" d="M207.1,11.3a.729.729,0,0,0-.1.075h.018a.057.057,0,0,0-.037.018.1.1,0,0,0,.056-.018h0l.056-.056h0l0-.019Z" transform="translate(-201.94 -8.123)" fill="#f2a5ba"/>
    <path id="_ス_1482" d="M207.3,10.613l.037-.018-.075.018Z" transform="translate(-202.123 -7.662)" fill="#f2a5ba"/>
    <path id="_ス_1483" d="M207.314,10.539h-.037l-.018.018Z" transform="translate(-202.123 -7.625)" fill="#f2a5ba"/>
    <path id="_ス_1485" d="M206.12,8.58l.037-.033h-.037Z" transform="translate(-201.376 -6.32)" fill="#f2a5ba"/>
    <path id="_ス_1488" d="M206.715,9.708V9.671C206.7,9.689,206.66,9.727,206.715,9.708Z" transform="translate(-201.747 -7.057)" fill="#f2a5ba"/>
    <path id="_ス_1490" d="M206.771,9.682s.018-.037,0-.018h0a.018.018,0,0,1,.018.018Z" transform="translate(-201.803 -7.048)" fill="#f2a5ba"/>
    <path id="_ス_1497" d="M204.44,8.716h.056l.112-.075Z" transform="translate(-200.275 -6.382)" fill="#f2a5ba"/>
    <path id="_ス_1498" d="M200.263,2.7l-.037.037q.056-.028.056,0h0s.018.075.037.13l.04-.037v.036c.075-.037,0-.018.056-.075-.075.075.056.056-.037.15,0,0,.037-.037.056-.037h0a.269.269,0,0,1-.037.056h0s.037.018.037.037h0a.206.206,0,0,0,.13.056h0s0,.018.037.037h.037c-.037,0-.037.056-.075.056.056,0,.037,0,.13-.037l-.037.037s.056-.018.075,0c-.037,0-.037.037-.1.056-.056.075.112,0,0,.075.112-.056.037-.056.056-.075.018-.037.075-.037.075-.018,0,0-.112.1-.075.13h0s.037,0,0,.037c.056-.037,0,0,.075-.037h-.037s.13-.056.1,0h-.053c0,.018.018,0,0,.018-.075.056-.037,0-.112,0-.018.018.075,0,0,.037.112-.056,0,.037.1,0l-.037.037H200.7s-.018.075,0,.075c-.018-.018.056-.037.075-.075.075,0-.1.1-.056.112a.036.036,0,0,1,.035-.037h0a.067.067,0,0,1-.041.057c.018.018.037-.037.075-.037-.056.037.037,0,.056,0l-.036.037s.1-.056.075,0l-.075.037h.018l-.056.037s.037,0,.037.018c.037-.018.075-.056.1-.037-.018.018-.037.018-.018.037-.037,0-.075.037-.037,0h-.037v.056h.1a.316.316,0,0,1-.1.037h.056s-.037.037-.056.037c0,.018.1,0,.075.018h.018c0,.018-.037.075.037.056l-.056.056s.075-.075.112-.056c.037,0-.056.037-.075.056.037,0,.112-.037.075,0h0l-.037.037a.222.222,0,0,0-.112.037c.13-.075.056.037.187-.018h.056s-.018.037-.037.037h.018l.037.037h.075s-.075.037-.075,0c-.13.1.037,0,0,.075h-.018l-.075.075c.018,0,.1-.1.15-.1,0,0,0,.018.018,0-.056.018-.037.037-.018.037l-.056.037a.25.25,0,0,0,.1-.018l-.081.077c0,.018.075-.056.1-.037,0,.037.018.037.075.037,0,.018-.037,0-.056.037h.037a.23.23,0,0,1,.1-.037c.075-.037-.075.1,0,.056a.066.066,0,0,0-.056.037h.13l-.037.037a.564.564,0,0,1,.168-.056l.037-.037h.056a.268.268,0,0,0-.056.037h0a.23.23,0,0,1-.1.037l.037-.037s-.1.037-.13.056h.018l-.075.056h.037v.037a.61.61,0,0,1,.224-.037c-.056,0-.1.037-.15.075.056-.037-.037,0-.037-.037,0,0-.037.018-.037.037h.075a.139.139,0,0,0-.056.056c.1-.056.075,0,.112,0-.037,0-.075.037-.075,0-.056.056.13-.037.075,0h0c.037,0,.018.037,0,.037h0a.1.1,0,0,0,.13.037h0l-.112.056.317-.1a1.561,1.561,0,0,1-.3.13.018.018,0,0,0,.018.018.621.621,0,0,1,.112-.056c-.075.056-.037.037-.1.1,0,0,.13-.075.13-.056a.91.91,0,0,1-.13.056l.13-.037-.13.075c.018,0,0,.018.018.018h.018s.168-.075.187-.037c-.018,0-.15.056-.15.1a2.6,2.6,0,0,1,.355-.112h0s-.3.112-.374.13c-.018.018-.037.018-.018.037-.018.018-.056,0-.056,0v.037a.23.23,0,0,0,.13-.037h-.1s.205-.075.205-.037a1.112,1.112,0,0,1-.15.075h0s.1,0,.056.037c0,0-.075.056-.037.037a2.2,2.2,0,0,1,.355-.187.421.421,0,0,1-.1.1c-.056.037-.15.056-.187.1h.056s-.056.018-.037.037c.075-.037,0,.037.056-.018.018,0,0,.018,0,.037a.711.711,0,0,1,.187-.056.27.27,0,0,0-.044.035v.1a.069.069,0,0,1-.056.037h.037s-.018,0-.075.037c.037-.018.075,0,.1,0,.056-.037,0-.037-.037-.037a.417.417,0,0,1,.243-.056c.037,0-.056.037-.037.037,0,.056.168-.037.13.018a.559.559,0,0,1-.15.075c-.037,0,0-.037,0-.056h0s-.037.018-.037,0c-.037.037.037.075,0,.13a.069.069,0,0,0,.056-.018h0s.075-.018.075-.037h.075l-.056.037s.037-.037,0-.018c.037,0-.056.075.018.037l.037-.037s.112-.018.1,0c.056-.037,0,0,.056-.056-.075.056-.018-.037-.1.018.075-.056.018-.037.075-.1-.018,0-.037.018-.037,0h-.018v.037h-.112a.058.058,0,0,0,.037-.018h-.037s.056-.056.1-.056h0s.018-.056,0-.056h-.056s-.112-.037-.037-.112c0,0-.037,0-.037-.018h.037s0-.075-.018-.056c.1-.075,0-.075,0-.1h-.15V4.75h0c.075-.075-.112-.018-.056-.1h0V4.618a.066.066,0,0,0-.056.037h-.037s-.037,0,.037-.056a.3.3,0,0,0-.13,0h0V4.563l.056-.037h-.1a.877.877,0,0,0,.1-.037h-.1s-.075,0-.037-.037c.056-.056-.037-.1,0-.168-.112.075.037-.056-.056,0,.018,0,.037-.037.056-.037-.037,0,.018-.056-.056-.037a.069.069,0,0,0,.056-.018h.037c-.018-.018-.112.018-.187.056.037-.037.018-.037-.037,0,.018,0,.037-.037.056-.037,0,0,0-.075-.056-.037h0a.056.056,0,0,0-.018-.037h-.037s-.037,0,0-.075H201.5c-.1.075.037-.037,0-.037h-.019a1.387,1.387,0,0,0,.13-.1h.018a.146.146,0,0,1-.1,0c.037-.018.1-.037.075-.056.018-.018-.13.018-.075-.037-.018,0-.037.037-.075.037,0,0,.075-.1,0-.056h0a.105.105,0,0,0-.112,0c.15-.1-.13-.018.018-.112l-.037-.037h0a.129.129,0,0,0-.1,0,.058.058,0,0,0,.037-.018q0-.056-.1-.037l.037-.037s.037-.1-.037-.1h.018s.075-.168-.112-.075h-.049a.261.261,0,0,0-.1.075s.037-.056.056-.056h0a.121.121,0,0,1,.056-.1c-.037-.056-.037-.15-.075-.205l-.056.056h0l.056-.056c.037-.037-.056,0-.056,0,0-.037.1-.037.075-.056h-.018s-.056.037-.075,0c0-.018.037-.037.037-.037h-.056l-.056.056c.075-.075-.037-.112,0-.13a.112.112,0,0,1-.075-.018c-.019-.018-.056.056-.075.037.13-.1.018-.056.1-.15-.037.056-.056-.037-.112.056,0-.018.037-.037.056-.075-.075,0-.018-.1-.075-.112l-.056.056.056-.075s-.1.075-.056,0c0,0-.018.037-.037.037,0-.056-.056-.1-.1-.112s-.075-.056-.056-.15c0,.037-.018.037-.037.018l-.056.056V2.452s0-.018-.075.018h0a2.747,2.747,0,0,1-.187.224c.075-.056-.056.13.056.056h0l.169-.055Zm.959,1.363H201.2C201.259,4.04,201.241,4.059,201.222,4.059Z" transform="translate(-197.391 -2.321)" fill="#f2a5ba"/>
    <path id="_ス_1502" d="M206.865,10.637s-.018.018,0,.018h0S206.9,10.618,206.865,10.637Z" transform="translate(-201.859 -7.686)" fill="#f2a5ba"/>
    <path id="_ス_1504" d="M207.028,10.187s.056-.018.037,0C207.121,10.169,206.991,10.187,207.028,10.187Z" transform="translate(-201.967 -7.389)" fill="#f2a5ba"/>
    <path id="_ス_1505" d="M206.5,10.827l.056-.018H206.5Z" transform="translate(-201.626 -7.802)" fill="#f2a5ba"/>
    <path id="_ス_1508" d="M206.147,10.161s-.018,0,0,.018h.018Z" transform="translate(-201.389 -7.377)" fill="#f2a5ba"/>
    <path id="_ス_1509" d="M205.921,10.449l.037-.018-.056.037h.018Z" transform="translate(-201.234 -7.554)" fill="#f2a5ba"/>
    <path id="_ス_1510" d="M205.772,10.378s-.056,0-.037.018C205.735,10.4,205.772,10.4,205.772,10.378Z" transform="translate(-201.121 -7.52)" fill="#f2a5ba"/>
    <path id="_ス_1511" d="M205.633,9.51h.018l.1-.056-.112.056Z" transform="translate(-201.057 -6.914)" fill="#f2a5ba"/>
    <path id="_ス_1512" d="M204.737,9.293s-.018,0-.075.037c0,.037.056-.018.037,0,.018,0,0-.018.037-.037Z" transform="translate(-200.421 -6.809)" fill="#f2a5ba"/>
    <path id="_ス_1513" d="M201.314,2.084l-.018.037h.018Z" transform="translate(-198.215 -2.084)" fill="#f2a5ba"/>
    <path id="_ス_1514" d="M201.1,2.193l.037-.056-.056.037h0Z" transform="translate(-198.073 -2.119)" fill="#f2a5ba"/>
    <path id="_ス_1515" d="M203.178,7.342l-.037.037h0V7.342Z" transform="translate(-199.424 -5.53)" fill="#f2a5ba"/>
    <path id="_ス_1516" d="M203.032,6.874h0l.056-.018Z" transform="translate(-199.353 -5.211)" fill="#f2a5ba"/>
    <path id="_ス_1520" d="M235.732,5.374h0V5.337s-.037.056-.075.056c.037.056.037-.018.056,0h0Z" transform="translate(-220.735 -4.216)" fill="#f2a5ba"/>
    <path id="_ス_1523" d="M235.187,5.082a.018.018,0,0,1-.018-.018.069.069,0,0,0,.018.056Z" transform="translate(-220.415 -4.037)" fill="#f2a5ba"/>
    <path id="_ス_1526" d="M235.372,5.3s0-.075-.037-.037a.036.036,0,0,1,.037.035Z" transform="translate(-220.523 -4.159)" fill="#f2a5ba"/>
    <path id="_ス_1528" d="M234.991,5.21s-.018,0-.037-.037a.27.27,0,0,0,.037.056h0Z" transform="translate(-220.274 -4.108)" fill="#f2a5ba"/>
    <path id="_ス_1531" d="M234.737,5.21V5.172l.018.056Z" transform="translate(-220.132 -4.108)" fill="#f2a5ba"/>
    <path id="_ス_1532" d="M234.557,5.228s-.037-.037-.037-.056v.056Z" transform="translate(-219.989 -4.108)" fill="#f2a5ba"/>
    <path id="_ス_1534" d="M234.883,5.374s-.018-.037-.037-.037Z" transform="translate(-220.203 -4.216)" fill="#f2a5ba"/>
    <path id="_ス_1537" d="M235.266,5.585a.143.143,0,0,1-.037-.1A.12.12,0,0,0,235.266,5.585Z" transform="translate(-220.454 -4.316)" fill="#f2a5ba"/>
    <path id="_ス_1538" d="M235.062,5.5v.037h.018A.056.056,0,0,0,235.062,5.5Z" transform="translate(-220.345 -4.322)" fill="#f2a5ba"/>
    <path id="_ス_1539" d="M234.755,5.535s0-.037-.018-.037v.037Z" transform="translate(-220.132 -4.322)" fill="#f2a5ba"/>
    <path id="_ス_1546" d="M234.471,5.936h-.037c.037.037,0,.075.056.15V6.048s0,.037.018.037c-.018-.037-.018-.075,0-.056a.62.62,0,0,0-.149-.206v.056a.127.127,0,0,1,.075.075h0Z" transform="translate(-219.884 -4.535)" fill="#f2a5ba"/>
    <path id="_ス_1547" d="M234.429,5.662h.037a.14.14,0,0,0-.056-.056v.056Z" transform="translate(-219.918 -4.393)" fill="#f2a5ba"/>
    <path id="_ス_1548" d="M234.628,5.625a.146.146,0,0,0,.056.112V5.681c-.018.018,0-.018-.037-.037h0V5.606h0v.037h0Z" transform="translate(-220.06 -4.393)" fill="#f2a5ba"/>
    <path id="_ス_1550" d="M235.195,5.791v.037a.1.1,0,0,0-.018-.056h0s-.056-.037-.056-.056a.328.328,0,0,0,.075.1V5.792h0Z" transform="translate(-220.383 -4.466)" fill="#f2a5ba"/>
    <path id="_ス_1552" d="M234.34,5.644l-.037-.037.037.056Z" transform="translate(-219.847 -4.393)" fill="#f2a5ba"/>
    <path id="_ス_1553" d="M234.27,5.7l-.018-.037V5.7Z" transform="translate(-219.814 -4.431)" fill="#f2a5ba"/>
    <path id="_ス_1555" d="M232.066,7.283s-.1-.056-.056-.018l.037.037h.018Z" transform="translate(-218.339 -5.471)" fill="#f2a5ba"/>
    <path id="_ス_1556" d="M231.522,9h0l-.037-.037V9Z" transform="translate(-218 -6.595)" fill="#f2a5ba"/>
    <path id="_ス_1557" d="M230.781,11.351l.037.037S230.818,11.371,230.781,11.351Z" transform="translate(-217.539 -8.158)" fill="#f2a5ba"/>
    <path id="_ス_1558" d="M233.366,6.419h-.037C233.347,6.419,233.384,6.456,233.366,6.419Z" transform="translate(-219.209 -4.925)" fill="#f2a5ba"/>
    <path id="_ス_1559" d="M230.021,9.671l.018.018Z" transform="translate(-217.041 -7.057)" fill="#f2a5ba"/>
    <path id="_ス_1565" d="M233.889,5.932l-.018.018h.018Z" transform="translate(-219.564 -4.606)" fill="#f2a5ba"/>
    <path id="_ス_1567" d="M232.629,8.55s-.018-.056,0-.037l-.112-.1.112.13Z" transform="translate(-218.676 -6.234)" fill="#f2a5ba"/>
    <path id="_ス_1568" d="M226.972,8.655a.267.267,0,0,1,.056.037h-.1s-.018.037.037.075h0a1.69,1.69,0,0,1,.262.112c-.075-.056.15.018.056-.056.018,0,.018.018.056.037q-.037-.037,0-.037h0a1.449,1.449,0,0,0,.13-.075h-.056l.037-.018c-.056-.056-.018.018-.1-.037.1.037.056-.075.15,0,0,0-.056-.018-.037-.037h.075s0-.037.018-.018h-.018s.075-.075.037-.15h-.018a.069.069,0,0,0,.037-.056h0s-.018-.037,0-.037c.018.018.056,0,.075.037-.018-.056-.018-.037-.1-.112h.037s-.037-.018-.037-.037c.018.037.056.018.1.056.1,0-.037-.1.075-.037-.1-.075-.075,0-.1-.018-.037,0-.056-.056-.037-.056,0,0,.13.056.15.037h0s-.018-.037.037-.018c-.056-.037,0,0-.056-.056v.037s-.1-.1-.037-.1l.037.037c.018,0,0-.018.018,0,.075.056,0,.037.037.1.037,0-.037-.056.037,0-.1-.075.037-.018-.037-.1l.037.037V8.17l.037.037s.056,0,.056-.037c-.018.037-.056-.018-.1-.037-.037-.075.13.056.15,0h.018c0-.037-.056-.018-.075-.056.056.018,0-.018-.018-.056l.037.037s-.1-.075-.037-.075l.056.056h.037V8c-.037,0-.075-.056-.075-.075.037,0,.037.037.056,0,.018.018.056.056,0,.037l.037.037.037-.037h0l-.037-.075s.037.018.037.037V7.89c.037.018.075.056.075.075V7.908a.036.036,0,0,1,.037.035v0c.037,0-.037-.075,0-.075h0s.075,0,.037-.075l.075.037s-.1-.037-.1-.1c0-.037.056.037.075.037-.018-.037-.075-.1,0-.075v.021h.037a.1.1,0,0,0,.075.1c-.112-.1.037-.056-.1-.15h.037s-.075-.056-.037-.075a.1.1,0,0,1,.056.018V7.572h.018a.274.274,0,0,1-.037-.075c.018,0,0,0,.018.018V7.479s.037.056.018.056c.13.075-.018-.037.075,0h0a.55.55,0,0,0,.112.056.331.331,0,0,1-.15-.1s.018,0,0-.018c.037.037.037,0,.037,0l.056.037a.347.347,0,0,1-.056-.075.273.273,0,0,1,.1.056c.018,0-.075-.037-.075-.075.037,0,.018-.037,0-.075.037,0,.037.037.056.037l-.037-.037h.018s-.056-.037-.056-.056c-.056-.056.112.037.056-.037.018,0,.037.037.056.037a.2.2,0,0,0-.056-.112h.056s-.1-.056-.112-.112h-.037V6.992l.037.037h0a.146.146,0,0,1,.075.056h-.037a.511.511,0,0,0,.1.075h.1a.671.671,0,0,1-.112-.205.633.633,0,0,1,.112.112c-.056-.037,0,.037-.018.056,0,0,.037.018.037.037V7.086s0,.018.037.037c-.1-.075-.037-.075-.056-.1.018.018.056.056.037.056.075.037-.075-.112,0-.075h0c0-.037.018-.037.037,0h0a.081.081,0,0,0,0-.13l.1.1-.187-.262a1.255,1.255,0,0,1,.224.224s.037,0,.018-.018l-.1-.075c.075.056.037.018.112.056a.685.685,0,0,1-.1-.112l.1.1-.056-.112.1.1c-.018,0,.018,0,0-.037h-.037s-.1-.15-.075-.168c0,.018.1.112.13.112a1.31,1.31,0,0,1-.187-.3h.018s.15.224.187.3c.037,0,.037.037.037,0,.037.018.037.037.018.056h.056a.235.235,0,0,0-.075-.13v.1s-.112-.168-.075-.187c.018,0,.075.1.1.112h0s-.018-.1.037-.056c0,0,.075.056.056.018a4,4,0,0,1-.28-.3.614.614,0,0,1,.112.056c.056.037.1.13.13.168l-.018-.037s.037.056.037.037c-.037-.056.037,0-.037-.056,0-.018.018,0,.037,0a.384.384,0,0,1-.1-.168l.037.037a.14.14,0,0,0,.1-.018.139.139,0,0,1,.056.056V6.414s-.018.018.037.075c-.018-.037,0-.056-.018-.1-.037-.056-.037,0-.037.037a.468.468,0,0,1-.1-.205c0-.037.037.037.037.018.056,0-.056-.15,0-.13a.287.287,0,0,1,.1.13c0,.037-.056,0-.056,0h.037v.039c.037.037.075-.037.13-.018a.069.069,0,0,0-.018-.056h0s0-.056-.037-.056V6.078l.037.056s-.037-.018-.037,0c0-.037.075.056.037-.018l-.037-.037s-.018-.112,0-.1c-.037-.056,0,0-.056-.056.056.075-.056.018.018.1-.056-.056-.037,0-.112-.075,0,0,.037.037,0,.037h0l.018.037c.018.037,0,.056,0,.1,0,0,0-.018-.037-.037v.03s-.056-.056-.056-.1h-.018s-.056,0-.056.018v.056h-.018s0,.1-.1.056c0,0,0,.037-.018.037l-.037-.037s-.056,0-.037.037c-.1-.075-.075.018-.112.037l.037.037a.192.192,0,0,0-.018.056l.037.037s-.056,0-.075.037h0c-.112-.056,0,.112-.075.075h0V6.5l-.037-.037h0s0,.018.037.056v.037s0,.037-.056-.018c.018.037,0,.056.056.13h0l-.056-.037.056.075a.728.728,0,0,1-.1-.075c.037.075,0,.037.037.112l-.037-.037s.018.056,0,.037c-.075-.037-.1.075-.187.056.112.075-.056,0,0,.056q-.028,0-.056-.056c0,.037-.075,0,0,.075-.018,0-.037-.037-.037-.037h0a.057.057,0,0,0-.018-.037.49.49,0,0,0,.112.15q-.037,0,0,.037a.059.059,0,0,1-.056-.056s-.075.018-.018.056h0q-.018,0-.037.037h0v.056h0s0,.018-.075,0l.037.037s-.075,0-.056.037h.037a1.763,1.763,0,0,0-.168-.056v-.01c-.075,0,.056.037.056.075-.037-.018-.075-.056-.1-.056-.037,0,.056.112,0,.1a.059.059,0,0,1,.056.056c0,.018-.112-.018-.056.037H227.9s0,.056.037.075c-.15-.1,0,.112-.112.018v.037h-.037a.186.186,0,0,0,.018.075.057.057,0,0,1-.037-.018c-.056,0-.056.018,0,.1l-.056-.037s-.112,0-.075.056h0s-.187,0-.037.112v.056a.446.446,0,0,0,.13.056s-.075,0-.075-.018h0a.137.137,0,0,1-.112-.018c-.037.056-.13.1-.168.15l.075.037h0s-.056,0-.037-.018c-.037,0,0,.037.037.056a.083.083,0,0,1-.075-.056h0s.056.056.037.075c-.018,0-.056-.018-.056,0h-.018l.056.037s-.018.018.056.056c-.112-.037-.1.075-.13.056.037.037,0,.056,0,.075,0,0,.075.037.056.056-.13-.075-.075,0-.168-.037.075.018,0,.056.075.1a.315.315,0,0,1-.1-.037c.018.056-.075.056-.1.112,0,0,.056,0,.075.037l-.1-.037s.1.056.018.037c0,0,.037,0,.037.018-.13.037-.037.205-.243.187q.037,0,.037.018h0l.055-.044Zm1.457-1.233s.018.037,0,.018C228.392,7.4,228.429,7.422,228.429,7.422Z" transform="translate(-214.982 -4.602)" fill="#f2a5ba"/>
    <path id="_ス_1572" d="M234.411,6.117h.037S234.411,6.08,234.411,6.117Z" transform="translate(-219.918 -4.717)" fill="#f2a5ba"/>
    <path id="_ス_1574" d="M233.837,6s-.037-.056,0-.037C233.819,5.9,233.837,6.033,233.837,6Z" transform="translate(-219.531 -4.614)" fill="#f2a5ba"/>
    <path id="_ス_1575" d="M234.518,6.366l.018.037.018.018-.037-.056Z" transform="translate(-219.988 -4.89)" fill="#f2a5ba"/>
    <rect id="_方形_151" height="0.018" transform="translate(14.525 1.526)" fill="#f2a5ba"/>
    <path id="_ス_1578" d="M233.871,6.837s.018.018.018,0V6.8h0Z" transform="translate(-219.564 -5.175)" fill="#f2a5ba"/>
    <path id="_ス_1579" d="M234.182,7s-.018,0-.037-.037l.037.056h0Z" transform="translate(-219.743 -5.281)" fill="#f2a5ba"/>
    <path id="_ス_1580" d="M234.212,7.216s0-.037-.018-.037C234.194,7.178,234.194,7.234,234.212,7.216Z" transform="translate(-219.776 -5.423)" fill="#f2a5ba"/>
    <path id="_ス_1581" d="M233.22,7.321h0l-.056-.1Z" transform="translate(-219.101 -5.454)" fill="#f2a5ba"/>
    <path id="_ス_1582" d="M233.258,8.354a.036.036,0,0,1-.037-.035v0c0,.037,0,.018.056.075.037,0-.037-.056,0-.037Z" transform="translate(-219.138 -6.169)" fill="#f2a5ba"/>
    <path id="_ス_1583" d="M226.862,13.9l-.037.019h.037Z" transform="translate(-214.946 -9.828)" fill="#f2a5ba"/>
    <path id="_ス_1584" d="M226.988,14.046l-.056-.037Z" transform="translate(-215.017 -9.899)" fill="#f2a5ba"/>
    <path id="_ス_1586" d="M231.217,10.685h0l-.056-.037Z" transform="translate(-217.788 -7.697)" fill="#f2a5ba"/>
    <path id="_ス_1588" d="M240.482,34.641l.037-.037S240.482,34.659,240.482,34.641Z" transform="translate(-223.897 -23.397)" fill="#f2a5ba"/>
    <path id="_ス_1589" d="M240.12,34.839l.018-.018-.037.037.018-.018Z" transform="translate(-223.647 -23.54)" fill="#f2a5ba"/>
    <path id="_ス_1590" d="M240.074,34.729s-.056.037-.037,0c-.037.075.018,0,0,.018h0l.037-.037h0Z" transform="translate(-223.596 -23.467)" fill="#f2a5ba"/>
    <path id="_ス_1593" d="M240.144,34.223a.231.231,0,0,0-.037.056h.018v-.056Z" transform="translate(-223.651 -23.147)" fill="#f2a5ba"/>
    <path id="_ス_1596" d="M240.048,34.526s.037-.056.018-.037A.059.059,0,0,1,240.048,34.526Z" transform="translate(-223.612 -23.319)" fill="#f2a5ba"/>
    <path id="_ス_1598" d="M239.979,34.26v-.037a.269.269,0,0,1-.037.056h0Z" transform="translate(-223.543 -23.147)" fill="#f2a5ba"/>
    <path id="_ス_1600" d="M239.886,34.6l.056-.056Z" transform="translate(-223.506 -23.361)" fill="#f2a5ba"/>
    <path id="_ス_1601" d="M239.995,34.1l.037-.037Z" transform="translate(-223.578 -23.042)" fill="#f2a5ba"/>
    <path id="_ス_1602" d="M239.942,34.008s.018-.056.037-.056l-.037.037Z" transform="translate(-223.543 -22.971)" fill="#f2a5ba"/>
    <path id="_ス_1607" d="M239.778,34.623a.146.146,0,0,1,.056-.075C239.833,34.566,239.8,34.586,239.778,34.623Z" transform="translate(-223.436 -23.361)" fill="#f2a5ba"/>
    <path id="_ス_1608" d="M239.833,34.477a.057.057,0,0,1,.018-.037h-.018Z" transform="translate(-223.472 -23.29)" fill="#f2a5ba"/>
    <path id="_ス_1616" d="M239.215,34.372v-.037c-.018.056-.056.056-.1.13h0c.018-.037.056-.075.037-.018a1.8,1.8,0,0,0,.13-.224.066.066,0,0,1-.037.056.121.121,0,0,1-.037.1h0Z" transform="translate(-223.004 -23.148)" fill="#f2a5ba"/>
    <path id="_ス_1617" d="M239.633,34.207h0l.018-.037-.037.037Z" transform="translate(-223.328 -23.113)" fill="#f2a5ba"/>
    <path id="_ス_1618" d="M239.563,34.316a.145.145,0,0,1,.018-.056h0v-.037h-.018c-.018.037-.037.056-.056.1,0,0,.018-.037.037-.037h0l.018.035Z" transform="translate(-223.258 -23.147)" fill="#f2a5ba"/>
    <path id="_ス_1619" d="M239.638,34.586a.846.846,0,0,0-.056.1h-.018a.23.23,0,0,0,.037-.058h0a.268.268,0,0,1,.037-.075h0v.037Z" transform="translate(-223.295 -23.361)" fill="#f2a5ba"/>
    <path id="_ス_1620" d="M239.561,34.675v.037h0a.1.1,0,0,1,.018-.056h-.018Z" transform="translate(-223.293 -23.432)" fill="#f2a5ba"/>
    <path id="_ス_1621" d="M239.634,34.117l.037-.056-.056.056Z" transform="translate(-223.329 -23.042)" fill="#f2a5ba"/>
    <path id="_ス_1622" d="M239.616,34.132h0l.018-.018Z" transform="translate(-223.329 -23.076)" fill="#f2a5ba"/>
    <path id="_ス_1624" d="M238.479,33.5s.037-.1,0-.056v.037h0Z" transform="translate(-222.584 -22.633)" fill="#f2a5ba"/>
    <path id="_ス_1627" d="M239.112,33.935V33.9C239.112,33.915,239.093,33.953,239.112,33.935Z" transform="translate(-222.993 -22.934)" fill="#f2a5ba"/>
    <path id="_ス_1635" d="M237.5,34.536l.037-.037.056-.112-.1.15Z" transform="translate(-221.939 -23.255)" fill="#f2a5ba"/>
    <path id="_ス_1636" d="M235.947,32.973s.056-.056.056-.037l-.037.056v-.018c.018-.018-.037.1.018,0v-.037a.742.742,0,0,1,.075-.056c.037-.056,0,0,.018-.056-.037.1-.018,0-.056.075.037-.075,0-.037.037-.112,0,.018,0,.037-.018.018h0v.056a.747.747,0,0,0-.075.056.057.057,0,0,1,.018-.037v.037a.223.223,0,0,1,.018-.1h0v-.035h-.018s-.075.056-.037-.018h-.018V32.73h0c.056-.1-.018-.037-.018-.056v.056h-.075v.037l-.037-.037h0c.037-.112-.075.056-.056-.018h0v-.034h0s0,.018-.037.056h-.018s-.018.037,0-.037c-.018.037-.037,0-.075.1h0a.251.251,0,0,1,.018-.1l-.075.075V32.73h0c.018-.075-.056-.037-.037-.112-.056.112,0-.056-.037.037,0-.018,0-.037.037-.056-.018.018,0-.056-.037,0,0-.018.018-.037.037-.056h0a.058.058,0,0,1,.018-.037,1.146,1.146,0,0,0-.1.15q0-.037-.018,0c0-.018,0-.056.037-.056,0,0,0-.056-.037,0H235.4s0,.018-.037.037h0s-.018,0,0-.056v.056c-.075.1,0-.075-.037-.037v.037s.037-.15.037-.168v-.02c0-.075-.037.056-.056.075,0-.037.037-.075.037-.1,0-.037-.075.1-.056.037a.075.075,0,0,1-.037.075s0-.112-.018-.037h0s-.037,0-.056.056c.056-.168-.075.056,0-.1h0a.066.066,0,0,0-.056.037v-.033q0-.037-.056.037V32.45s0-.1-.018-.037h0s0-.168-.075,0l-.037.037a.377.377,0,0,0-.037.112v-.076h0v-.1c-.037,0-.056-.075-.1-.1v.075h-.037s0-.075.018-.056c0-.037-.018.037-.037.056a.231.231,0,0,1,.037-.1h0s-.018.075-.037.075V32.3h0v.037s-.018,0-.037.056c.018-.112-.056-.056-.037-.1-.018.037-.037.037-.037.037s0,.075-.018.075c.037-.13,0-.056,0-.168,0,.075-.037,0-.056.112v-.1c-.037.056-.037-.037-.075-.037a.186.186,0,0,1-.018.075v-.1s-.018.112,0,.037v.037c-.037-.1-.13.056-.15-.13v.037s-.037,0-.037.075h0s-.018.168-.037.262c.018-.1,0,.13.037,0v.064c0-.037,0-.056.018-.037h0a.146.146,0,0,0,.056.075V32.6c.018-.075,0,0,0-.1,0,.1.037,0,.018.13,0,0,0-.056.018-.056h0v.075h.018a.121.121,0,0,0,.1-.056h.037l.018-.018a.112.112,0,0,1-.018.075c.037-.037.018-.037.056-.112v.04s0-.056.018-.056a.1.1,0,0,1-.037.1c0,.1.056-.075.037.056.037-.1,0-.056,0-.075,0-.037.037-.075.037-.056,0,0-.037.13,0,.13h0c.018-.056,0,0,.037-.075h-.018s.056-.1.056-.037a.1.1,0,0,1-.018.056h0c-.018.075-.018,0-.056.075,0,.037.037-.056,0,.037.037-.112,0,0,.056-.056v.056h0v.037s-.018.056,0,.018a.251.251,0,0,1,.018-.1c.037-.056-.037.13,0,.112h0c.018,0,0-.056.037-.075,0,.056,0-.018.037-.037v.056s.018-.1.018-.056l-.037.056h0v.037h0a.231.231,0,0,1,.037-.1c0,.037-.018.037,0,.037,0,.037-.037.075-.018.018v.037h0l.037-.056s0,.037-.018.037V32.73a.223.223,0,0,1-.018.1l.037-.037v.056c0,.018.056-.075.056-.037h0s0,.037.037,0v.073s0-.1.037-.112c.018,0-.018.056-.018.075.018-.037.056-.1.056-.037h0v.037a.265.265,0,0,0-.056.1c.056-.13.037,0,.1-.13v.037h0s.056-.1.056-.056v.018h.037s.037-.018.037-.037v.056c-.056.13.018-.037,0,.056h0a.329.329,0,0,1-.018.112.487.487,0,0,1,.056-.15h0c-.018.056,0,.037,0,.037v-.021a.146.146,0,0,1-.037.1.316.316,0,0,1,.037-.1c0,.037,0,0,.056-.018,0,.018-.018.037-.018.056l.037-.056h0s.037-.037.037-.056c.037-.075-.037.112,0,.037a.265.265,0,0,1-.037.056.406.406,0,0,0,.075-.1v.037a1.019,1.019,0,0,1,.075-.15v-.054h.056l-.037.037h0l-.037.075v-.037l-.056.112h0l-.037.056h0s.112-.13.13-.15a1.112,1.112,0,0,0-.075.15c.018-.056-.037.018-.037,0,0,0,0,.037-.018.037l.056-.056a.1.1,0,0,1-.018.056c.037-.1.037-.056.075-.1a.069.069,0,0,1-.037.056c-.018.075.075-.112.056-.037h0c.018-.018.018,0,0,.037h0s.037.018.1-.056l-.056.112.168-.262a2.151,2.151,0,0,1-.15.28h0s.037-.112.056-.112c-.037.075,0,.037-.037.112,0,0,.056-.13.075-.112l-.056.112.075-.1a.446.446,0,0,0-.056.13c0-.018,0,0,.018,0h0s.1-.168.112-.15c0,.018-.075.13-.075.15.037-.056.15-.262.187-.3h0s-.15.243-.187.3V33a.036.036,0,0,1-.035.037h0v.037a.869.869,0,0,0,.1-.112l-.056.056s.112-.168.112-.15a.467.467,0,0,1-.075.13c0-.018.037-.037.037-.018v.037h0s-.037.1,0,.056c.037-.075.15-.3.187-.355a.733.733,0,0,1-.037.112.987.987,0,0,1-.112.187s.018-.037.037-.037c0,0-.037.056-.018.056l.037-.056h0a1.037,1.037,0,0,1,.112-.15v.056s-.018.037,0,.056a.066.066,0,0,1-.037.056v.037c.018-.037.037-.037.056-.056.037-.056,0,0-.018,0a.8.8,0,0,1,.13-.187c.018,0-.018.056,0,.037,0,.018.1-.13.1-.056a.809.809,0,0,1-.075.13c-.018,0,0-.037,0-.037h0s-.018.056-.018.037c-.018.056.037.037.018.075a.265.265,0,0,1,.037-.056h0a.349.349,0,0,0,.056-.075h0l-.215.119Z" transform="translate(-219.81 -21.785)" fill="#f2a5ba"/>
    <path id="_ス_1642" d="M239.382,34.026s.037-.056.018-.037C239.438,33.951,239.345,34.044,239.382,34.026Z" transform="translate(-223.17 -22.988)" fill="#f2a5ba"/>
    <path id="_ス_1643" d="M239.182,34.75v.018l.018-.056Z" transform="translate(-223.045 -23.468)" fill="#f2a5ba"/>
    <path id="_ス_1646" d="M238.857,34.515v.018l.018-.037h0Z" transform="translate(-222.832 -23.326)" fill="#f2a5ba"/>
    <path id="_ス_1648" d="M238.577,35.02a.065.065,0,0,0,.018-.037S238.557,35.02,238.577,35.02Z" transform="translate(-222.644 -23.645)" fill="#f2a5ba"/>
    <path id="_ス_1649" d="M238.37,34.366h0l.056-.1Z" transform="translate(-222.513 -23.179)" fill="#f2a5ba"/>
    <path id="_ス_1650" d="M237.7,34.911v-.037c-.018.018,0,0-.037.075,0,.037.037-.056.018-.018h0Z" transform="translate(-222.05 -23.574)" fill="#f2a5ba"/>
    <path id="_ス_1651" d="M234.159,32.2l-.018-.037V32.2Z" transform="translate(-219.741 -21.798)" fill="#f2a5ba"/>
    <path id="_ス_1654" d="M236.217,34.443l.018-.056-.037.056Z" transform="translate(-221.089 -23.255)" fill="#f2a5ba"/>
    <path id="_ス_1658" d="M216.2,50.971v.018h.037S216.177,50.989,216.2,50.971Z" transform="translate(-207.977 -34.124)" fill="#f2a5ba"/>
    <path id="_ス_1703" d="M214.877,48.373h.168c.037,0,.1,0,.056.018h.168c-.1,0,0-.018-.1,0h.079s.037-.018,0-.018h0s-.075-.037,0-.056h.037s.037,0,0-.018c.112,0,.018-.018.037-.037h-.056l-.037-.018h-.056a.036.036,0,0,0,.037-.035v0h0c.112,0-.075-.018,0-.037h-.13c.1,0,0-.037.1-.056h.037c-.037,0,.056,0-.037-.018h-.037s.037-.018-.037-.018h-.046s-.037,0,.037-.018h-.056c-.112,0,.075,0,.018-.018h-.037a.575.575,0,0,0,.168-.018h.037s-.13-.018-.056-.037H215.1s.112-.018,0-.018h-.075c.187-.018-.1-.018.075-.037h0a.13.13,0,0,0-.075-.037h.037c.037,0,.018-.018-.056-.018h.056s.1-.037.018-.037h.018c-.075,0,.15-.056-.056-.037h-.163s.056-.018.075,0h0c.112,0,.037-.018.112-.018,0-.018.056-.056.037-.1h-.13c.112-.018.037-.056.075-.056h-.112c.15,0,.056-.018.168-.037-.075,0-.018-.018-.112,0h.1c-.056,0,.037-.037,0-.056h.018s-.112,0-.037-.037h-.056s-.1-.056.075-.112h-.112l.075-.037h-.075l-.28.056c.1,0-.13.037,0,.037h-.017l-.056.056h0l.1-.018c-.112.018,0,.037-.112.056h.018s0,.037.056.037h.018s-.018,0,0,.018h0c-.1.018.1,0-.037.037.112,0,.056-.018.1-.018h.075s-.15.018-.15.037h-.056s-.056.037,0,.037a.25.25,0,0,0,.1-.018c.075,0-.13.018-.112.037h.056s.037,0,0,.018h0a.424.424,0,0,1-.075.018c-.018,0,.1,0,.056.018h.018s-.056.018,0,.018h-.14c.15,0,0,.018.168,0h.1s0,.018-.037.018h-.037c-.15,0,.037,0-.056.018h-.018a.4.4,0,0,0-.112.018.5.5,0,0,1,.168,0h-.017c-.018,0,0,0,.056.018h.075c.075,0-.112.018-.018.018h-.112s.205.037.243.037h-.168c.075,0-.037,0,0-.018h.018a.186.186,0,0,0-.075.018h.075s0,.037.1.037h.187s-.28.018-.317.018h-.13a.663.663,0,0,0,.13.018h.355a.492.492,0,0,0-.13.018h-.037s-.037.018-.037.037h.15c0,.018.168,0,.1.037h-.168c-.056,0,0,.037-.056.037h0l-.029.264Z" transform="translate(-206.883 -31.75)" fill="#f2a5ba"/>
    <path id="_ス_1710" d="M215.713,50.447l.056-.018h-.056Z" transform="translate(-207.664 -33.768)" fill="#f2a5ba"/>
    <path id="_ス_1724" d="M192.355,35.326l.018.018-.018-.036v.018Z" transform="translate(-192.355 -23.859)" fill="#f2a5ba"/>
    <path id="_ス_1725" d="M192.463,35.245h0v.037s.018-.056.037-.037C192.463,35.17,192.5,35.245,192.463,35.245Z" transform="translate(-192.426 -23.795)" fill="#f2a5ba"/>
    <path id="_ス_1733" d="M192.95,35.6l.018.037a.1.1,0,0,0-.018-.056h0Z" transform="translate(-192.745 -24.037)" fill="#f2a5ba"/>
    <rect id="_方形_160" height="0.056" transform="translate(0.122 11.466)" fill="#f2a5ba"/>
    <path id="_ス_1735" d="M193.078,35.7v.037l-.019-.056.018.018Z" transform="translate(-192.816 -24.107)" fill="#f2a5ba"/>
    <path id="_ス_1736" d="M193.167,35.686a.424.424,0,0,1,.018.075V35.7h-.018Z" transform="translate(-192.887 -24.107)" fill="#f2a5ba"/>
    <path id="_ス_1738" d="M192.95,35.525s0,.037.018.037v-.037Z" transform="translate(-192.745 -24.001)" fill="#f2a5ba"/>
    <path id="_ス_1741" d="M192.733,35.146a.383.383,0,0,1,.018.1A.2.2,0,0,0,192.733,35.146Z" transform="translate(-192.603 -23.753)" fill="#f2a5ba"/>
    <path id="_ス_1743" d="M193.078,35.487v-.018h-.019v.018h.019Z" transform="translate(-192.816 -23.964)" fill="#f2a5ba"/>
    <path id="_ス_1750" d="M193.078,34.769l.018.037c-.018-.056,0-.075-.037-.15v.037a.718.718,0,0,0,.1.224v-.057c0-.018-.037-.037-.037-.075h0l-.039-.018Z" transform="translate(-192.816 -23.432)" fill="#f2a5ba"/>
    <path id="_ス_1751" d="M193.223,35.416h0s0,.018.037.056v-.056Z" transform="translate(-192.924 -23.93)" fill="#f2a5ba"/>
    <path id="_ス_1752" d="M193.1,35.2a.184.184,0,0,0-.037-.112v.056a.058.058,0,0,0,.018.037h0v.037h0Z" transform="translate(-192.816 -23.716)" fill="#f2a5ba"/>
    <path id="_ス_1753" d="M192.733,34.97a.274.274,0,0,1,.037.075.266.266,0,0,0-.037-.112h0v.056h0Z" transform="translate(-192.603 -23.612)" fill="#f2a5ba"/>
    <path id="_ス_1755" d="M193.275,35.434l.018.037-.018-.056Z" transform="translate(-192.958 -23.93)" fill="#f2a5ba"/>
    <path id="_ス_1756" d="M193.331,35.416l.018.037v-.019Z" transform="translate(-192.995 -23.93)" fill="#f2a5ba"/>
    <path id="_ス_1758" d="M194.686,34.982s.056.1.037.037v-.037Z" transform="translate(-193.883 -23.645)" fill="#f2a5ba"/>
    <path id="_ス_1761" d="M193.863,35.169a.018.018,0,0,0,.018.018C193.881,35.169,193.844,35.131,193.863,35.169Z" transform="translate(-193.34 -23.757)" fill="#f2a5ba"/>
    <path id="_ス_1769" d="M194.469,33.466V33.5l.056.13Z" transform="translate(-193.74 -22.652)" fill="#f2a5ba"/>
    <path id="_ス_1770" d="M195.322,32.387s-.075-.168-.112-.262c.018.1-.075-.112-.037,0v-.019h0a.879.879,0,0,1-.1-.037h0c.018.075.018,0,.037.075-.037-.1-.056,0-.1-.1,0,0,.018.056,0,.056h0s-.037-.037-.037-.056h-.018a.1.1,0,0,0-.075.1h0s-.018,0-.037.037h0v.037c0-.018-.037-.056-.037-.075a.422.422,0,0,0,.018.13v.035c0-.037-.037-.056-.037-.1-.056-.075,0,.1-.056-.018.037.112.037.056.037.075,0,.037.018.075,0,.075,0,0-.056-.13-.075-.112h0s0,.037-.018,0c.018.056,0,0,0,.075h0s.018.1,0,.056v-.054h0c-.037-.075,0-.018,0-.1,0-.037,0,.056-.018-.018.037.112-.018,0,0,.075h0l-.037-.056s-.037-.037-.037,0c.018,0,.037.056.056.1,0,.075-.056-.112-.075-.075l.037.037-.037-.037a.423.423,0,0,1,.018.075c-.037-.056,0,.018,0,.056v-.057h-.018v-.035s-.018.037-.037.018c0,.037.037.1.018.1,0-.018,0-.037-.018-.037,0-.037-.018-.075,0-.018v-.04H194.5v.056a.478.478,0,0,1-.037-.1v.057s-.037-.037-.037-.056c-.018-.018,0,.1-.018.056h0s-.056-.018-.037.037l-.037-.075s.056.075.037.112c0,.018-.037-.056-.037-.075,0,.037.018.112,0,.056h0V32.33a.273.273,0,0,0-.056-.1c.056.13-.037.037.018.168h-.018v-.035s.037.1,0,.1a.065.065,0,0,1-.018-.037v.037h-.018v.056s-.018-.075,0-.075c-.075-.13,0,.037-.056-.037h0c-.037-.1-.037-.056-.075-.112,0,.018.075.112.075.15h0c-.018-.056-.018-.037-.018-.037v.017a.837.837,0,0,1-.056-.1.479.479,0,0,1,.037.1q-.028-.028,0,.056a.069.069,0,0,0-.014-.056v.056h0a.191.191,0,0,1,.018.056c.018.075-.056-.1-.037,0a.1.1,0,0,0-.018-.056v.112l-.037-.037s.037.112.056.15l.037.056V32.8a.1.1,0,0,0-.018-.056h0l-.037-.075V32.7a.328.328,0,0,0-.018-.112h0l-.04-.056h0v.223c0-.056-.037-.1-.056-.15.037.056,0-.037.018-.018l-.018-.037v.075a.066.066,0,0,0-.04-.057c.037.1,0,.075,0,.112,0-.037-.018-.075,0-.056-.037-.075.037.13,0,.056h0c0,.037,0,0-.018,0h0s-.056,0-.018.1l-.037-.112.074.3a2.17,2.17,0,0,1-.112-.28h0a.623.623,0,0,1,.056.112l-.056-.112s.056.13.037.13a.677.677,0,0,0-.056-.13l.037.112s-.037-.1-.056-.13h0s.037.187.018.187c0-.018-.056-.15-.075-.15,0,.056.1.28.1.337h0s-.1-.28-.112-.355c0-.018,0-.037-.018-.037v-.058h-.038a.223.223,0,0,0,.037.112v-.075s.056.187.037.187a.766.766,0,0,0-.056-.15h0s0,.1-.018.037c0,0-.037-.075-.037-.037.037.075.13.317.15.374,0,0-.056-.075-.075-.1-.037-.056-.037-.15-.075-.187v.056s-.018-.056-.018-.037c.018.075-.018,0,0,.056,0,.018,0,0-.018,0,.018.037.056.15.037.168a.1.1,0,0,0-.018-.056c-.018,0-.037-.037-.056-.018a.27.27,0,0,0-.037-.056v.037l-.018-.075v.1c.018.056.018,0,.018-.018a.563.563,0,0,1,.056.224c0,.018-.018-.056-.018-.037-.037,0,.037.15,0,.1a.769.769,0,0,1-.056-.15c0-.018.037.037.037.018h-.018v-.04c-.018-.037-.056,0-.1-.037v.056h0a.145.145,0,0,0,.018.075h0c0,.037-.056-.075-.018,0v.037s.037.1.018.1c.018.056,0,0,.037.056-.037-.1.037,0,0-.1a.407.407,0,0,0,.056.1v-.035h0v-.134a.478.478,0,0,1,.037.1h0s.037.037.037,0h0v-.04h0s0-.075.056,0v.018s.056.037.037,0c.056.1.037,0,.075.018V33.1a.026.026,0,0,0,.037,0h0c.056.1,0-.1.056-.018h.037l-.018-.037V33s0-.037.037.056a.492.492,0,0,0-.018-.13h0v-.019a.551.551,0,0,1,.056.112v-.075s0-.056.018-.018c.037.075.056,0,.112.056-.056-.112.037.037,0-.037,0,.018.018.037.037.075,0-.037.037.037.018-.037a.069.069,0,0,0,.018.056h0v.036a.78.78,0,0,0-.056-.168c.018.037.018.018,0-.018,0,.018.037.056.018.056,0,0,.056.018.018-.037h.018v-.036h0s0-.018.056.037v-.037c-.056-.1.018.056.018,0h0s.075.112.1.112V33c.037.056-.018-.056,0-.075a.23.23,0,0,0,.037.1c0,.018-.018-.112.018-.056a.142.142,0,0,0-.037-.075s.075.1.037,0h0v-.077c.075.168,0-.1.075.056h.018v-.037c.037.018.037,0,.018-.075v.056s.1.056.075,0h0s.112.13.037-.037v-.056l-.056-.112s.037.037.037.056h0s.037,0,.056.075c.037-.018.1,0,.13,0l-.037-.075h0s.018.056,0,.056c.018.037,0-.037,0-.056.037.018.018.1.037.1h0v-.077l.018.037h.018l-.037-.056V32.61c.056.1.075,0,.1.037v-.056s-.037-.075-.018-.075c.056.13.037.056.1.15-.037-.056.018-.018-.018-.112a.266.266,0,0,0,.037.075c0-.056.056,0,.075,0a.192.192,0,0,1-.018-.075l.056.075s-.037-.1,0-.037v-.037s.056-.112.168.037c-.018-.037,0-.037,0-.037h0s.037,0,.018-.075h0l.054-.093Z" transform="translate(-193.043 -21.722)" fill="#f2a5ba"/>
    <path id="_ス_1774" d="M193.24,35.02s0-.018-.018,0Z" transform="translate(-192.923 -23.665)" fill="#f2a5ba"/>
    <path id="_ス_1777" d="M193.167,34.675v-.018l.018.056Z" transform="translate(-192.887 -23.432)" fill="#f2a5ba"/>
    <path id="_ス_1783" d="M193.979,34.331h0l.037.1Z" transform="translate(-193.419 -23.219)" fill="#f2a5ba"/>
    <path id="_ス_1784" d="M194.081,33.5a.058.058,0,0,0,.018.037c0-.018,0,0-.018-.075C194.063,33.439,194.1,33.513,194.081,33.5Z" transform="translate(-193.483 -22.644)" fill="#f2a5ba"/>
    <path id="_ス_1785" d="M199.076,33.357l.018.018Z" transform="translate(-196.76 -22.58)" fill="#f2a5ba"/>
    <path id="_ス_1788" d="M195.715,32.759h0l.037.056Z" transform="translate(-194.557 -22.188)" fill="#f2a5ba"/>
  </g>
</svg>
