<svg xmlns="http://www.w3.org/2000/svg" width="187.536" height="53" viewBox="0 0 187.536 53">
  <g id="logo_LS_simple2" transform="translate(-6 -11.657)">
    <g id="lifestar" transform="translate(6 22.915)">
      <path id="_ス_1380-2" d="M30.071,95.184H15V66.331h3.143V92.5H30.071v2.688Z" transform="translate(-15 -64.435)" fill="#f1a1b4"/>
      <path id="_ス_1381-2" d="M67.434,71.3a2.041,2.041,0,0,1-2.044-2.038q0-.061,0-.121a2.064,2.064,0,1,1,4.128-.09q0,.045,0,.09A2.008,2.008,0,0,1,67.434,71.3Zm1.59,24.272H65.881V74.939h3.142V95.576Z" transform="translate(-43.045 -64.827)" fill="#f1a1b4"/>
      <path id="_ス_1382-2" d="M93.409,72.166c0-2.574,0-5.945,2.272-8.255a6.8,6.8,0,0,1,4.773-1.855,7.658,7.658,0,0,1,3.067.605l-.53,2.462a5.937,5.937,0,0,0-2.386-.493c-3.257,0-4.052,3.029-4.052,6.362v1.174h5v2.462h-5V92.8H93.409V74.628H90.571V72.166h2.838Z" transform="translate(-57.061 -62.055)" fill="#f1a1b4"/>
      <path id="_ス_1383-2" d="M143.984,103.992a14.967,14.967,0,0,1-6.476,1.288c-6.026,0-9.621-4.241-9.621-10.414,0-6.476,3.635-11.133,9.2-11.133,6.362,0,7.99,5.831,7.99,9.427,0,.719-.038,1.25-.076,1.742H130.958c.038,5.718,3.295,7.872,7.005,7.872a13.041,13.041,0,0,0,5.415-1.06l.605,2.272v.006Zm-2.007-11.436c.038-2.8-1.136-6.438-5.188-6.438-3.79,0-5.453,3.6-5.755,6.438Z" transform="translate(-77.83 -74.121)" fill="#f1a1b4"/>
      <path id="_ス_1384-2" d="M225.463,69.355a9.8,9.8,0,0,0-5.074-1.326c-4.014,0-5.529,2.462-5.529,4.543,0,2.84,1.742,4.276,5.6,5.907,4.657,1.969,7.043,4.355,7.043,8.482,0,4.581-3.333,8.1-9.543,8.1a13.282,13.282,0,0,1-6.891-1.817l.875-2.612a11.76,11.76,0,0,0,6.21,1.779c3.862,0,6.134-2.083,6.134-5.188,0-2.84-1.555-4.581-5.3-6.1-4.355-1.628-7.308-4.165-7.308-8.141,0-4.393,3.559-7.611,8.823-7.611a11.723,11.723,0,0,1,5.907,1.361l-.947,2.612,0,0h0Z" transform="translate(-124.13 -63.901)" fill="#f1a1b4"/>
      <path id="_ス_1385-2" d="M265.65,75.062,268.755,74v4.809h5.337v2.461h-5.337V93.2c0,2.612.795,4.052,2.8,4.052a6.143,6.143,0,0,0,2.121-.3l.19,2.424a7.937,7.937,0,0,1-3.067.493c-5,0-5.151-4.544-5.151-6.74V81.271h-3.18V78.811h3.181V75.062Z" transform="translate(-152.736 -68.704)" fill="#f1a1b4"/>
      <path id="_ス_1386-2" d="M318.044,99.938a28.882,28.882,0,0,0,.3,4.923h-2.878l-.308-2.65h-.114a7.174,7.174,0,0,1-6.1,3.105,5.721,5.721,0,0,1-6.02-5.407q-.012-.231-.006-.462c0-4.957,4.317-7.649,11.966-7.611,0-1.742,0-5.68-4.7-5.68a8.93,8.93,0,0,0-5.036,1.477l-.757-2.159a11.743,11.743,0,0,1,6.295-1.744c5.831,0,7.346,4.128,7.346,8.217Zm-3.1-5.793c-3.9,0-8.785.568-8.785,4.923,0,2.65,1.666,3.824,3.559,3.824a5.046,5.046,0,0,0,5.226-4.847S314.939,94.145,314.939,94.145Z" transform="translate(-175.251 -74.119)" fill="#f1a1b4"/>
      <path id="_ス_1387-2" d="M368.464,86.926a9.487,9.487,0,0,0-1.136-.076c-3.408,0-5.151,3.37-5.151,6.854v11.209h-3.141V90.447c0-2.2-.038-4.2-.152-6.172h2.764l.152,3.976h.114a6.178,6.178,0,0,1,5.6-4.43,8.064,8.064,0,0,1,.947.114v2.991h0Z" transform="translate(-206.398 -74.169)" fill="#f1a1b4"/>
    </g>
    <g id="icon-star" transform="translate(172.148 11.657)">
      <path id="_ス_1407" d="M216.5,5.65a.344.344,0,0,0-.048-.1C216.407,5.7,216.5,5.65,216.5,5.65Z" transform="translate(-205.761 -4.015)" fill="#f2a5ba"/>
      <path id="_ス_1408" d="M215.684,8.967l-.023.216.023-.192V8.967Z" transform="translate(-205.326 -5.915)" fill="#f2a5ba"/>
      <path id="_ス_1409" d="M214.847,10.292h.023s.123,0,.144-.048h0l-.1-.192h0l.048-.216a.494.494,0,0,0-.216.048h0l.1.192a6.788,6.788,0,0,1-.216.72c.1-.072.144-.312.192-.5h.023Zm.1-.216-.048.168Z" transform="translate(-204.753 -6.398)" fill="#f2a5ba"/>
      <path id="_ス_1410" d="M213.7,13.087h0a.344.344,0,0,1-.048.168c.048-.023,0,.168.072-.168Z" transform="translate(-204.21 -8.208)" fill="#f2a5ba"/>
      <path id="_ス_1412" d="M213.162,14.362V14.17s-.072.192-.072.123c-.048.192,0,.168.072.072h0Z" transform="translate(-203.885 -8.811)" fill="#f2a5ba"/>
      <path id="_ス_1414" d="M213.377,14.329l-.048.216s.048,0,0-.1v-.123h0Z" transform="translate(-204.028 -8.897)" fill="#f2a5ba"/>
      <path id="_ス_1415" d="M213.437,14.82l.023-.072.051-.361-.072.433Z" transform="translate(-204.089 -8.931)" fill="#f2a5ba"/>
      <path id="_ス_1417" d="M210.511,17.791s-.123-.072-.023-.1a2.063,2.063,0,0,0-.408.072h.433Z" transform="translate(-202.22 -10.773)" fill="#f2a5ba"/>
      <path id="_ス_1418" d="M209.642,17.956a1.688,1.688,0,0,0,.192-.048A.259.259,0,0,0,209.642,17.956Z" transform="translate(-201.977 -10.89)" fill="#f2a5ba"/>
      <path id="_ス_1424" d="M210.143,18.095s-.216.023-.337.023h.407s.072-.048-.072-.048h0Z" transform="translate(-202.068 -10.982)" fill="#f2a5ba"/>
      <path id="_ス_1428" d="M208.83,18.064a.541.541,0,0,1,.168.023C208.95,18.087,208.83,18.039,208.83,18.064Z" transform="translate(-201.525 -10.974)" fill="#f2a5ba"/>
      <path id="_ス_1430" d="M211.414,18.126a.237.237,0,0,0-.144.048h.144Z" transform="translate(-202.882 -11.013)" fill="#f2a5ba"/>
      <path id="_ス_1431" d="M205.861,18.335s.529.072.337.123c-.312.023-.264,0-.408-.048.123.072-.408.1-.337.192l.264-.048s-.1.048,0,.048c0-.048.289-.1.529-.048.241-.048.072-.216-.123-.312,0,0,0,.048-.241.072h0Z" transform="translate(-199.641 -11.078)" fill="#f2a5ba"/>
      <path id="_ス_1432" d="M206.988,18.144h.555a2.1,2.1,0,0,1-.337-.072c-.168.023-.192.048-.216.072Z" transform="translate(-200.499 -10.983)" fill="#f2a5ba"/>
      <path id="_ス_1434" d="M211.112,18.507h-.385l.192.072h0C211.135,18.578,211.087,18.53,211.112,18.507Z" transform="translate(-202.58 -11.225)" fill="#f2a5ba"/>
      <path id="_ス_1435" d="M206.613,18.094l.048-.072-.216.1.168-.023h0Z" transform="translate(-200.197 -10.955)" fill="#f2a5ba"/>
      <path id="_ス_1436" d="M205.534,18.121l.023-.048-.144.023.123.023Z" transform="translate(-199.623 -10.983)" fill="#f2a5ba"/>
      <path id="_ス_1437" d="M213.433,34.948l-.048.1.1-.123h-.048Z" transform="translate(-204.06 -20.36)" fill="#f2a5ba"/>
      <path id="_ス_1439" d="M202.22,18.747l.048-.023S202.22,18.724,202.22,18.747Z" transform="translate(-197.846 -11.345)" fill="#f2a5ba"/>
      <path id="_ス_1441" d="M212.668,12.548s-.241.241-.144.168l.264-.192h-.072a2.439,2.439,0,0,1,.481-.408c.264-.144.216-.072.337-.144,0,0,.048,0,.144-.1l.577-.408-.433.192c.123-.144.481-.337,0-.1.1-.048.216-.1.337-.168a1.963,1.963,0,0,1-.337-.023v-.048a.774.774,0,0,0-.168-.1c-.072,0-.1,0-.312.1a.163.163,0,0,0-.144-.1,1.061,1.061,0,0,0-.481.123H211.9a3.947,3.947,0,0,1-.553.048h0a.4.4,0,0,0-.144-.123.593.593,0,0,0-.36.123c-.123-.072-.577-.023-.74-.144.072.023-.023.048-.168.048-.241-.072-.529-.168-.6-.192a.123.123,0,0,1-.072-.023c-.1-.023-.168,0-.456.192h-.337a4.318,4.318,0,0,1-.529-.048h-.072c-.241-.072-.577-.144-.672-.168v-.1h0a1.291,1.291,0,0,0-.023-.264,5.014,5.014,0,0,0-.1-.625.455.455,0,0,0-.148-.09h-.123l-.048-.1.048-.192a2.813,2.813,0,0,0,.123-.889.455.455,0,0,0-.144-.1c-.1,0-.1-.023-.408.168l-.072-.168V8.655a4.768,4.768,0,0,0-.023-.7.455.455,0,0,0-.144-.1h-.1l.072-.216a2.628,2.628,0,0,0,.241-.913.455.455,0,0,0-.144-.1.476.476,0,0,0-.264.072V6.66a.958.958,0,0,1-.1-.072l-.048-.1c-.241-.456-.289-.529-.289-.553a.221.221,0,0,0-.144-.1h-.144A.26.26,0,0,0,205.2,5.7a.239.239,0,0,0-.123-.1.323.323,0,0,0-.216.048h-.028l.1.192-.1.048-.023-.123c0,.072-.192.5-.289.793a2.837,2.837,0,0,0-.289.961.455.455,0,0,0,.144.1c.072,0,.1.023.433-.168a3.7,3.7,0,0,1-.289.312c-.264.264-.456.481-.625.672l.048-.072V8.24a1.5,1.5,0,0,0-.072.241c-.385.408-.481.553-.5.649a.988.988,0,0,1-.072.192c.023-.048.072-.123.1-.123h0v.023h.023s.072.1.144.1a3.219,3.219,0,0,0,.961-.456c-.168.168-.337.312-.481.481-.481.481-.793.769-.987.987h0s-.144.168-.192.216v-.089s-.072.192-.123.192h.048c-.1.123-.072.168,0,.241,0,0,.023.048.048.048h0v.072h0v-.048h.1l-.048.072a.085.085,0,0,0,.072-.048h0s.36-.168,1.514-.817c.5-.289,1.2-.7,1.369-.769a.144.144,0,0,0,.1-.023.074.074,0,0,0,.048-.023s.048,0,.048.023a.915.915,0,0,0,.072.241l.048-.072a.776.776,0,0,1,.048.289c.168.144-.144-.456,0-.312a.93.93,0,0,0,.072.385c-.168,0-.5.144-3.869,2.043-.817.481-1.754,1.009-2.428,1.369.144-.168.312-.337.456-.5q1.226-1.321,1.13-1.49a.448.448,0,0,0-.1-.072h-.072s.168-.048-.023-.072h.241a.818.818,0,0,1-.228-.027H200.9a2.237,2.237,0,0,0,.433,0c-.072.048-.264.072-.192.144-.072.023-.168.1-.312.168H200.8c-.192.123-.481.264-.889.5-.289.168-.649.36-.889.5l.072-.264c.168-.7.192-.793.168-.864h.142c.023-.048-.048-.048-.168-.048a.332.332,0,0,0-.1-.072,1.313,1.313,0,0,1,.433-.023c-.144-.072-.072,0-.289-.072.192.123-.769,0-.456.123a.987.987,0,0,0-.192-.072.18.18,0,0,0,0-.216.221.221,0,0,0-.144-.1,2.781,2.781,0,0,0-.649.289h-.048l-.123.072-.1.048a.942.942,0,0,0-.408.048c-.216,0,.048-.023-.1-.072l-.216.048-.192-.048-.144-.1h0a1.8,1.8,0,0,1-.289-.168c-.023,0-.048-.048-.1-.048a.524.524,0,0,0-.312.1l-.1.048a1.473,1.473,0,0,1-.144-.1.182.182,0,0,0-.1-.048.323.323,0,0,0-.216.048h-.048l.048.144h-.095l.123.072h-.048s0,.072.048.1v.1h.123c.1.048.216.144.433.289.192.123.408.289.481.337.072.072.144.072.264.023.048.023.1.072.144.1a2.407,2.407,0,0,0,.168.433.239.239,0,0,0,.123.1.6.6,0,0,0,.072.168.221.221,0,0,0,.144.1h.144c.072.072.168.168.312.337s.337.36.36.385a.132.132,0,0,0,.123.072.406.406,0,0,0,.289-.1h0s.241.072.5.144h.048c-.1.168-.072.216,0,.289a.163.163,0,0,0,.127.088.642.642,0,0,0,.241-.048,8.492,8.492,0,0,0,.841.6q0,.123.048.144a.221.221,0,0,0,.144.1.529.529,0,0,0,.192-.023l.289.36c.1.144.216.264.264.337a1.174,1.174,0,0,0-.072.168c0,.023-.023.048-.023.1-.023.1-.048.216-.072.337h0q-1.11,1.3-1.009,1.466a.455.455,0,0,0,.144.1c.072,0,.1,0,.36-.123,0,.048.048.023.1,0v.168c-.048,0-.072.072-.1.123-.481.36-.433.433-.36.553,0,.048.048.072.1.1a.179.179,0,0,0,0,.192h.026c-.072.216-.168.481-.241.672l-.144.382h0c-.144.385-.144.408-.1.481h0c0,.123-.048.216-.048.385l-.072.048a2.022,2.022,0,0,1-.048.241.389.389,0,0,1-.1.241,2.822,2.822,0,0,0-.123.264c.216-.1.672-.408,1.153-.72.241-.168.5-.337.74-.481a5.4,5.4,0,0,1,.5-.289c-.216-.048.36-.144.312-.264.072,0,.168-.048.072.048.312-.264.553-.289.72-.529.072,0-.048.1,0,.1a.223.223,0,0,1,.144-.1c.048,0-.023.048-.072.123.337-.241.312-.36.264-.456a.617.617,0,0,0,.385-.289c.072,0,.216-.048,0,.1.123-.072.769-.456.74-.529.048,0,.168-.123.192-.144l.289-.192a.691.691,0,0,0,.144-.1h0a.4.4,0,0,0,.144.123.529.529,0,0,0,.192-.023c.216.192.264.216.337.241l.048.048c.168.168.36.385.385.408a.132.132,0,0,0,.123.072.323.323,0,0,0,.192-.048h0a1.1,1.1,0,0,1-.023.241,3.056,3.056,0,0,0-.072.889.455.455,0,0,0,.144.1l.864-.408.072-.048h0s-.123.048.048.168c0,.023.1.072.168.1-.192.241-.168.264-.1.36a.221.221,0,0,0,.144.1c.1,0,.1.023.5-.192a.845.845,0,0,1,.216.168c-.048-.072-.072-.144.072-.072a1.274,1.274,0,0,1,.289.241,2.249,2.249,0,0,0,.048.7.221.221,0,0,0,.144.1c.1,0,.1.023.625-.264.216.123.5.289.649.36a.7.7,0,0,0,0,.241.221.221,0,0,0,.144.1h.048a.176.176,0,0,0,.144-.048,1.221,1.221,0,0,0,.312.216c-.048-.1-.072-.216-.123-.337h.023s.144-.192.072-.289c0-.023-.048-.048-.072-.072h0s.123-.192.072-.289c0-.023-.048-.048-.072-.072a2.056,2.056,0,0,0,.1-.74.221.221,0,0,0-.144-.1c-.072,0-.1,0-.36.123-.023-.072-.023-.1-.048-.1l-.039-.06a3.356,3.356,0,0,0-.168-.456.664.664,0,0,0-.144-.192c0-.1.023-.023.048-.023l-.048-.168c.312-.529.289-.553.241-.649a.221.221,0,0,0-.144-.1.476.476,0,0,0-.264.072c.048-.144.072-.289.123-.408v-.048a.574.574,0,0,0,.072-.168,1.346,1.346,0,0,0,.1-.6.221.221,0,0,0-.144-.1,1.993,1.993,0,0,0-.529.216,2.079,2.079,0,0,0-.168-.408s.023,0,.048.048a3.85,3.85,0,0,1-.264-.938c0-.072-.048-.144-.048-.216v-.1h-.048v-.048a1.091,1.091,0,0,0,.048-.192h0s.123-.123.1-.192l.5-.36h0c.864-.6,1.754-1.153,2.571-1.706h-.144l.289-.216c.1-.023.144,0-.048.123.072,0,.144-.072.216-.144.048-.072.123-.168.123-.168.289-.168.289-.144.192-.048h0l-.1.02Zm.841-.6-.123.072C213.531,11.9,213.509,11.923,213.509,11.948Zm-12.645,2.691h0s-.072-.123-.144-.123h-.072v-.123h.072a.1.1,0,0,0,.048.1.163.163,0,0,0,.144.1c.168.048.312,0,3.1-1.635.312-.168.649-.385.961-.553-.36.264-.72.553-1.034.817-1.3,1.034-1.923,1.514-2.211,1.779h0a1.423,1.423,0,0,0-.144-.1s-.048-.048-.072-.048l-.048-.048s-.192-.289-.241-.241a.379.379,0,0,1-.123.408c-.1-.123-.168-.241-.216-.289h0Zm5.384-4.134a.455.455,0,0,0,.144.1h.1a.649.649,0,0,1,.023.289c.1.241.048-.1.144.144v.072l.048.048h0a.3.3,0,0,0-.123-.048c-.144-.023-.192-.048-2.837,1.49-.36.216-.74.433-1.13.649.36-.289.769-.577,1.13-.841,1.466-1.082,2.163-1.635,2.5-1.922h0l0,.023Zm2.428,4.182v-.072l.408-.264c-.216.168.048.123-.337.337l.123-.192-.216.168h0l.021.023Zm-.7.481h.072c-.553.289-1.514.817-3.268,1.827.672-.408,1.369-.841,2.018-1.226.672-.408,1.274-.769,1.8-1.11l-.072.048-.072.048-.1.072s-.241.168-.433.289v.049h0l.048,0Zm.433,2.667a.456.456,0,0,0,.144.1h.1c-.216.123-.456.264-.769.433l-.337.192a3.527,3.527,0,0,0,.241-.264c.241-.241.408-.433.577-.6,0,.123.023.123.048.144h0Zm-1.562.433s.048.072,0,.072Zm.1,0a.353.353,0,0,0-.1-.048v-.072c.192-.1.5-.289,1.034-.6l.072-.048c-.168.168-.337.36-.481.5-.168.168-.312.337-.433.456-.072-.1-.1-.144-.1-.192h0Zm-1.057-1.321a.123.123,0,0,0-.023-.072h0c.577-.36,1.13-.672,1.61-.938h0a.173.173,0,0,0,.168,0h0c-.168.1-.433.264-.864.5-.289.168-.625.36-.841.481h0Zm2.283-.961a.123.123,0,0,0-.023-.072c0-.023-.048-.048-.072-.072h0l.072-.048.048.1v.072h-.023v.023Zm-.075.241c-.123.385-.123.408-.072.481a.163.163,0,0,0,.144.1h.048v.072c-.144.1-.337.192-.553.337-.144.1-.312.192-.481.289a4.107,4.107,0,0,1,.264-.337c.385-.5.577-.769.672-.913h0Zm.5,2.259a1.832,1.832,0,0,0-.6.264l.1-.048c.192-.123.433-.241.625-.36l-.144.144Zm.433.961a.345.345,0,0,1-.072-.048l.123-.072-.072.123h0Zm.123-.625s-.312.168-.6.337a4.3,4.3,0,0,1,.312-.337l.216-.241s.048.144.072.241h0Zm-2.524-4.086c-1.3.74-2.763,1.586-3.941,2.259.913-.577,1.974-1.25,2.932-1.85a54.989,54.989,0,0,0,4.927-3.22h0a1,1,0,0,0,.433-.168h0s.072.241.1.36v.048c-.961.529-2.4,1.346-4.494,2.571h.047Zm.144-3.364h0v.168a.1.1,0,0,0-.048-.1C206.731,11.418,206.779,11.394,206.779,11.37Zm-.071.1c.048.123.1.264.144.385h.6c-.553.312-1.321.74-2.451,1.394-.553.312-1.153.672-1.706.987.289-.241.625-.481.913-.72a30.7,30.7,0,0,0,2.5-2.049h0Zm2.908.289h-.048a1.007,1.007,0,0,1,.337-.048c-.529.264-1.538.841-3.508,1.995-.864.5-1.875,1.082-2.74,1.586.408-.264.841-.553,1.25-.841,2.332-1.562,3.364-2.283,3.8-2.644a5.519,5.519,0,0,0,.913-.048Zm-4.374,1.827c.385-.216.793-.456,1.2-.7-.6.408-1.226.841-1.8,1.226-1.514,1.009-2.355,1.586-2.837,1.947V16.01h-.023l.144-.1s0-.023-.048-.048v-.048h.048s.1-.1.1-.168c.192-.241.264-.337.241-.408.433-.216,1.274-.7,2.961-1.683h0l.02.023Zm-3.652,2.591h0l-.048.048v-.048Zm.144.577a49.123,49.123,0,0,0,4.518-2.5c-.289.192-.577.36-.864.553-1.8,1.13-3,1.9-3.824,2.4.216-.337.192-.385.144-.456h.026Zm-.5-.123a.149.149,0,0,0,.048.1v.048l-.1.072v-.1l.048-.1h0Zm-.625,2.5h0l.072-.192s.072.023.072.048v-.216s.023-.144.023-.168c.048,0,.1-.048.144-.072a.42.42,0,0,1,.023-.123c.793-.385,2.428-1.3,5.936-3.341,1.13-.649,2.4-1.369,3.485-1.995-1.153.72-2.524,1.562-3.774,2.307-3.578,2.187-5.239,3.22-6.008,3.749h0l.026,0Zm8.868-5a1.774,1.774,0,0,1-.123.144l-.048-.048.168-.1ZM205.6,17.443s-.072-.072-.123-.072h-.048l.123-.072v.048a.163.163,0,0,0,.144.1c.123.023.144.023,1.3-.649l.312-.168-.192.264a10.691,10.691,0,0,0-.793,1.11c-.123-.072-.264-.123-.408-.216-.168-.144.072,0,0-.1l-.144-.048-.192-.192h0l.025-.006Zm6.225-5.767.1.048h.072l.048-.048h.023l-.529.264-.043-.16a1.357,1.357,0,0,1,.312-.123h0l.021.02Zm-4.518-.553-.048-.048Zm-2.018-5.039h0l-.072.048.048-.1v.048ZM205,6.733c.1-.264.168-.456.216-.6l.048.072s-.048.264-.123.264a.617.617,0,0,1,.123.337l-.216.123-.168.1.123-.289Zm-.071,1.346c.241-.241.408-.456.553-.6,0,.023.023.048.048.072,0,.1-.072-.072-.072,0a.709.709,0,0,1,.192.36c-.1,0-.241.1-1.009.529H204.6l.337-.337h0S204.931,8.079,204.931,8.079Zm-.6,1.8-.238.144.337-.337c.649-.649,1.034-1.009,1.226-1.25h.168a2.906,2.906,0,0,1,.123.433V9.04h0c-.123-.023-.144-.048-1.61.817h0l-.006.025Zm-1.611,2.445c.649-.36,1.346-.769,1.974-1.13-.36.289-.769.577-1.13.841a16.584,16.584,0,0,0-2.74,2.187.179.179,0,0,1-.072-.072l.072.072v.048a.286.286,0,0,1-.123-.023v-.073a2.437,2.437,0,0,0-.1-.649c.481-.264,1.178-.649,2.114-1.2h0Zm-2.451,0,.337-.192c-.144.144-.264.289-.385.433-.385.408-.649.7-.817.889h-.123v-.043c-.192-.123-.312-.241-.456-.337.123,0,.192,0,1.466-.74h0l-.021-.01Zm-2.139.192c-.168-.216.264.168.144-.023a.357.357,0,0,1-.216-.072l-.168-.072h0s.241-.144.408-.241.36-.216.553-.312l-.072.312c-.144.649-.168.74-.144.817-.048-.048-.123-.072-.168-.123,0-.048-.192-.192-.072-.168a.448.448,0,0,1-.241-.123h0l-.026,0Zm-.124.1a1.974,1.974,0,0,1-.264-.1l-.1-.048.192-.1s.337.192.456.264q-.072.072-.289,0h0v-.023Zm.721-1.25q-.216.109-.649.36c-.216.123-.481.289-.7.385h0l-.073-.211s.289-.144.672-.36l.192-.123h.048a2.173,2.173,0,0,1,.264-.144h.144l.072.072a.651.651,0,0,0-.312,0,1.964,1.964,0,0,1,.337.023h0Zm-.408,1.85h0l-.048-.048h0l-.048-.048.048.048.1.048Zm4.518,5.576a.74.74,0,0,1,.216-.123A.464.464,0,0,1,202.835,18.792Zm.457,0s-.023-.023,0-.1l-.048.048c-.144.048-.123-.023-.048-.123l.168-.048s.1-.192.048-.241l-.1.1V18.38l-.1.1h-.144l-.5.264a5.942,5.942,0,0,1-.961.987c.1-.144-.048-.123-.1-.192.192,0,.385-.289.649-.456-.144.1-.144.023-.123,0l-.433.385a1.147,1.147,0,0,0-.289.1c.1,0,0,.1-.1.192a1.332,1.332,0,0,1-.192.144l-.048.048h-.023l-.048.072V19.95s0-.023.048-.048a.37.37,0,0,1,.144-.1.123.123,0,0,0-.093.046h-.048V19.9h-.023a.343.343,0,0,1-.048.1.233.233,0,0,1-.192.168c.048-.023.072-.023.072-.072a.579.579,0,0,1-.192.144c-.048.023-.072,0-.048-.023h.023a3.666,3.666,0,0,0-.408.241v-.168l.168-.1s.241-.144.289-.168h.023s.144-.192.072-.289l-.048-.048c.408-.216,1.153-.625,2.571-1.417h.023v.048h0a.239.239,0,0,1,.1.023h.048a.181.181,0,0,0,.1-.023.977.977,0,0,1-.216.241,1.531,1.531,0,0,0,.216-.048l-.312.264h0l.123.02Z" transform="translate(-193.923 -4.041)" fill="#f2a5ba"/>
      <path id="_ス_1442" d="M213.493,34.425h.048C213.541,34.409,213.525,34.409,213.493,34.425Z" transform="translate(-204.12 -20.078)" fill="#f2a5ba"/>
      <path id="_ス_1444" d="M203.3,18.073h-.216a1.958,1.958,0,0,1,.216.048S203.253,18.1,203.3,18.073Z" transform="translate(-198.327 -10.983)" fill="#f2a5ba"/>
      <path id="_ス_1446" d="M199.114,18.216c.144,0,0-.072.1-.048.048-.023-.168,0-.289,0-.123.023-.123.048.168.023h0Z" transform="translate(-195.967 -11.03)" fill="#f2a5ba"/>
      <path id="_ス_1448" d="M218.051,5.758l-.123-.1a.741.741,0,0,1,.048.168l.072-.072h0Z" transform="translate(-206.588 -4.076)" fill="#f2a5ba"/>
      <path id="_ス_1450" d="M207.741,11.894l-.048.023h.025l.023-.023Z" transform="translate(-200.891 -7.544)" fill="#f2a5ba"/>
      <path id="_ス_1451" d="M207.607,11.8h.072s-.1-.048-.072-.072C207.536,11.8,207.655,11.756,207.607,11.8Z" transform="translate(-200.831 -7.454)" fill="#f2a5ba"/>
      <path id="_ス_1454" d="M207.856,11.238h.048a.074.074,0,0,1,.023-.048C207.9,11.19,207.88,11.19,207.856,11.238Z" transform="translate(-200.982 -7.152)" fill="#f2a5ba"/>
      <path id="_ス_1457" d="M207.741,11.407s0,.023-.048.048C207.716,11.455,207.788,11.455,207.741,11.407Z" transform="translate(-200.891 -7.273)" fill="#f2a5ba"/>
      <path id="_ス_1459" d="M207.692,11.074h.025s0-.023.048-.048a.345.345,0,0,0-.072.048Z" transform="translate(-200.891 -7.061)" fill="#f2a5ba"/>
      <path id="_方形_143" d="M207.484,11.505l.1-.011h0Z" transform="translate(-200.775 -7.322)" fill="#f2a5ba"/>
      <path id="_ス_1461" d="M207.692,10.888h.025l.048-.023-.072.023Z" transform="translate(-200.891 -6.971)" fill="#f2a5ba"/>
      <path id="_ス_1462" d="M207.692,10.751s.048-.048.072-.048h-.072Z" transform="translate(-200.891 -6.881)" fill="#f2a5ba"/>
      <path id="_ス_1464" d="M207.635,10.973l-.048.048h0a.047.047,0,0,0,.048-.046Z" transform="translate(-200.833 -7.032)" fill="#f2a5ba"/>
      <path id="_ス_1465" d="M207.555,11.049h0l-.023-.023Z" transform="translate(-200.802 -7.061)" fill="#f2a5ba"/>
      <path id="_ス_1467" d="M207.258,11.4a.184.184,0,0,1,.123-.048A.155.155,0,0,0,207.258,11.4Z" transform="translate(-200.65 -7.242)" fill="#f2a5ba"/>
      <path id="_ス_1469" d="M207.422,10.941s.048,0,.048-.023h-.048v.048h0Z" transform="translate(-200.741 -7.001)" fill="#f2a5ba"/>
      <path id="_ス_1476" d="M206.676,10.766a.074.074,0,0,1,.023-.048c-.048.048-.1,0-.192.072h.046s-.048,0-.048.023c.048-.023.1-.023.072,0a.953.953,0,0,0,.289-.168h-.072s-.048.072-.1.072h0l-.021.049Z" transform="translate(-200.23 -6.849)" fill="#f2a5ba"/>
      <path id="_ス_1477" d="M207.311,10.7v.048h0l.048-.048Z" transform="translate(-200.679 -6.881)" fill="#f2a5ba"/>
      <path id="_ス_1478" d="M207.149,10.809h-.072c-.048.023-.1,0-.144.072h.074c-.023-.023.023,0,.048-.048h.048Z" transform="translate(-200.469 -6.94)" fill="#f2a5ba"/>
      <path id="_ス_1479" d="M206.988,11.539l.023-.023Z" transform="translate(-200.499 -7.334)" fill="#f2a5ba"/>
      <path id="_ス_1480" d="M207.128,11.3a.937.937,0,0,0-.123.1h.023a.074.074,0,0,0-.048.023.123.123,0,0,0,.072-.023h0l.072-.072h0l0-.025Z" transform="translate(-200.495 -7.213)" fill="#f2a5ba"/>
      <path id="_ス_1482" d="M207.307,10.618l.048-.023-.1.023Z" transform="translate(-200.65 -6.821)" fill="#f2a5ba"/>
      <path id="_ス_1483" d="M207.33,10.539h-.048l-.023.023Z" transform="translate(-200.65 -6.79)" fill="#f2a5ba"/>
      <path id="_ス_1485" d="M206.12,8.589l.048-.042h-.048Z" transform="translate(-200.016 -5.681)" fill="#f2a5ba"/>
      <path id="_ス_1488" d="M206.724,9.719V9.671C206.7,9.694,206.652,9.743,206.724,9.719Z" transform="translate(-200.331 -6.307)" fill="#f2a5ba"/>
      <path id="_ス_1490" d="M206.771,9.688s.023-.048,0-.023h0a.023.023,0,0,1,.023.023Z" transform="translate(-200.379 -6.3)" fill="#f2a5ba"/>
      <path id="_ス_1497" d="M204.44,8.738h.072l.144-.1Z" transform="translate(-199.081 -5.734)" fill="#f2a5ba"/>
      <path id="_ス_1498" d="M200.327,2.767l-.048.048q.072-.036.072,0h0s.023.1.048.168l.052-.048v.047c.1-.048,0-.023.072-.1-.1.1.072.072-.048.192,0,0,.048-.048.072-.048h0a.345.345,0,0,1-.048.072h0s.048.023.048.048h0a.265.265,0,0,0,.168.072h0s0,.023.048.048h.048c-.048,0-.048.072-.1.072.072,0,.048,0,.168-.048l-.048.048s.072-.023.1,0c-.048,0-.048.048-.123.072-.072.1.144,0,0,.1.144-.072.048-.072.072-.1.023-.048.1-.048.1-.023,0,0-.144.123-.1.168h0s.048,0,0,.048c.072-.048,0,0,.1-.048h-.048s.168-.072.123,0h-.068c0,.023.023,0,0,.023-.1.072-.048,0-.144,0-.023.023.1,0,0,.048.144-.072,0,.048.123,0l-.048.048h-.023s-.023.1,0,.1c-.023-.023.072-.048.1-.1.1,0-.123.123-.072.144a.047.047,0,0,1,.046-.048h0a.086.086,0,0,1-.053.073c.023.023.048-.048.1-.048-.072.048.048,0,.072,0l-.047.048s.123-.072.1,0l-.1.048h.023l-.072.048s.048,0,.048.023c.048-.023.1-.072.123-.048-.023.023-.048.023-.023.048-.048,0-.1.048-.048,0h-.048v.072h.123a.406.406,0,0,1-.123.048h.072s-.048.048-.072.048c0,.023.123,0,.1.023h.023c0,.023-.048.1.048.072l-.072.072s.1-.1.144-.072c.048,0-.072.048-.1.072.048,0,.144-.048.1,0h0l-.048.048a.286.286,0,0,0-.144.048c.168-.1.072.048.241-.023h.072s-.023.048-.048.048h.023l.048.048h.1s-.1.048-.1,0c-.168.123.048,0,0,.1h-.023l-.1.1c.023,0,.123-.123.192-.123,0,0,0,.023.023,0-.072.023-.048.048-.023.048l-.072.048a.322.322,0,0,0,.123-.023l-.1.1c0,.023.1-.072.123-.048,0,.048.023.048.1.048,0,.023-.048,0-.072.048h.048a.3.3,0,0,1,.123-.048c.1-.048-.1.123,0,.072a.085.085,0,0,0-.072.048h.168l-.048.048a.726.726,0,0,1,.216-.072l.048-.048h.072a.345.345,0,0,0-.072.048h0a.3.3,0,0,1-.123.048l.048-.048s-.123.048-.168.072h.023l-.1.072h.048V5a.784.784,0,0,1,.289-.048c-.072,0-.123.048-.192.1.072-.048-.048,0-.048-.048,0,0-.048.023-.048.048h.1a.179.179,0,0,0-.072.072c.123-.072.1,0,.144,0-.048,0-.1.048-.1,0-.072.072.168-.048.1,0h0c.048,0,.023.048,0,.048h0a.123.123,0,0,0,.168.048h0l-.144.072.408-.123a2.008,2.008,0,0,1-.385.168.023.023,0,0,0,.023.023.8.8,0,0,1,.144-.072c-.1.072-.048.048-.123.123,0,0,.168-.1.168-.072a1.172,1.172,0,0,1-.168.072l.168-.048-.168.1c.023,0,0,.023.023.023h.023s.216-.1.241-.048c-.023,0-.192.072-.192.123a3.338,3.338,0,0,1,.456-.144h0s-.385.144-.481.168c-.023.023-.048.023-.023.048-.023.023-.072,0-.072,0v.048a.3.3,0,0,0,.168-.048h-.123s.264-.1.264-.048a1.428,1.428,0,0,1-.192.1h0s.123,0,.072.048c0,0-.1.072-.048.048a2.827,2.827,0,0,1,.456-.241.541.541,0,0,1-.123.123c-.072.048-.192.072-.241.123h.072s-.072.023-.048.048c.1-.048,0,.048.072-.023.023,0,0,.023,0,.048a.915.915,0,0,1,.241-.072.347.347,0,0,0-.057.046v.123a.089.089,0,0,1-.072.048h.048s-.023,0-.1.048c.048-.023.1,0,.123,0,.072-.048,0-.048-.048-.048a.537.537,0,0,1,.312-.072c.048,0-.072.048-.048.048,0,.072.216-.048.168.023a.719.719,0,0,1-.192.1c-.048,0,0-.048,0-.072h0s-.048.023-.048,0c-.048.048.048.1,0,.168a.089.089,0,0,0,.072-.023h0s.1-.023.1-.048h.1l-.072.048s.048-.048,0-.023c.048,0-.072.1.023.048l.048-.048s.144-.023.123,0c.072-.048,0,0,.072-.072-.1.072-.023-.048-.123.023.1-.072.023-.048.1-.123-.023,0-.048.023-.048,0h-.023v.048h-.144a.074.074,0,0,0,.048-.023h-.048s.072-.072.123-.072h0s.023-.072,0-.072h-.072s-.144-.048-.048-.144c0,0-.048,0-.048-.023h.048s0-.1-.023-.072c.123-.1,0-.1,0-.123H202.7V5.41h0c.1-.1-.144-.023-.072-.123h0V5.241a.085.085,0,0,0-.072.048h-.048s-.048,0,.048-.072a.38.38,0,0,0-.168,0h0V5.17l.072-.048h-.123a1.131,1.131,0,0,0,.123-.048h-.123s-.1,0-.048-.048c.072-.072-.048-.123,0-.216-.144.1.048-.072-.072,0,.023,0,.048-.048.072-.048-.048,0,.023-.072-.072-.048a.089.089,0,0,0,.072-.023h.048c-.023-.023-.144.023-.241.072.048-.048.023-.048-.048,0,.023,0,.048-.048.072-.048,0,0,0-.1-.072-.048h0a.072.072,0,0,0-.023-.048h-.048s-.048,0,0-.1h-.057c-.123.1.048-.048,0-.048h-.025a1.784,1.784,0,0,0,.168-.123h.023a.188.188,0,0,1-.123,0c.048-.023.123-.048.1-.072.023-.023-.168.023-.1-.048-.023,0-.048.048-.1.048,0,0,.1-.123,0-.072h0a.136.136,0,0,0-.144,0c.192-.123-.168-.023.023-.144l-.048-.048h0a.166.166,0,0,0-.123,0,.074.074,0,0,0,.048-.023q0-.072-.123-.048l.048-.048s.048-.123-.048-.123h.023s.1-.216-.144-.1h-.063a.335.335,0,0,0-.123.1s.048-.072.072-.072h0a.156.156,0,0,1,.072-.123c-.048-.072-.048-.192-.1-.264l-.072.072h0l.072-.072c.048-.048-.072,0-.072,0,0-.048.123-.048.1-.072h-.023s-.072.048-.1,0c0-.023.048-.048.048-.048h-.072l-.072.072c.1-.1-.048-.144,0-.168a.143.143,0,0,1-.1-.023c-.025-.023-.072.072-.1.048.168-.123.023-.072.123-.192-.048.072-.072-.048-.144.072,0-.023.048-.048.072-.1-.1,0-.023-.123-.1-.144l-.072.072.072-.1s-.123.1-.072,0c0,0-.023.048-.048.048,0-.072-.072-.123-.123-.144s-.1-.072-.072-.192c0,.048-.023.048-.048.023l-.072.072V2.453s0-.023-.1.023h0a3.539,3.539,0,0,1-.241.289c.1-.072-.072.168.072.072h0l.217-.07Zm1.234,1.754h-.023C201.609,4.5,201.585,4.521,201.561,4.521Z" transform="translate(-196.632 -2.286)" fill="#f2a5ba"/>
      <path id="_ス_1502" d="M206.867,10.639s-.023.023,0,.023h0S206.915,10.614,206.867,10.639Z" transform="translate(-200.426 -6.842)" fill="#f2a5ba"/>
      <path id="_ス_1504" d="M207.03,10.189s.072-.023.048,0C207.15,10.166,206.982,10.189,207.03,10.189Z" transform="translate(-200.518 -6.59)" fill="#f2a5ba"/>
      <path id="_ス_1505" d="M206.5,10.832l.072-.023H206.5Z" transform="translate(-200.228 -6.94)" fill="#f2a5ba"/>
      <path id="_ス_1508" d="M206.149,10.161s-.023,0,0,.023h.023Z" transform="translate(-200.027 -6.579)" fill="#f2a5ba"/>
      <path id="_ス_1509" d="M205.927,10.454l.048-.023-.072.048h.023Z" transform="translate(-199.896 -6.73)" fill="#f2a5ba"/>
      <path id="_ス_1510" d="M205.784,10.378s-.072,0-.048.023C205.736,10.4,205.784,10.4,205.784,10.378Z" transform="translate(-199.8 -6.7)" fill="#f2a5ba"/>
      <path id="_ス_1511" d="M205.633,9.526h.023l.123-.072-.144.072Z" transform="translate(-199.745 -6.186)" fill="#f2a5ba"/>
      <path id="_ス_1512" d="M204.758,9.293s-.023,0-.1.048c0,.048.072-.023.048,0,.024,0,0-.023.048-.048Z" transform="translate(-199.205 -6.096)" fill="#f2a5ba"/>
      <path id="_ス_1513" d="M201.32,2.084l-.023.048h.023Z" transform="translate(-197.331 -2.084)" fill="#f2a5ba"/>
      <path id="_ス_1514" d="M201.1,2.209l.048-.072-.072.048h0Z" transform="translate(-197.211 -2.114)" fill="#f2a5ba"/>
      <path id="_ス_1515" d="M203.189,7.342l-.048.048h0V7.342Z" transform="translate(-198.358 -5.011)" fill="#f2a5ba"/>
      <path id="_ス_1516" d="M203.032,6.879h0l.072-.023Z" transform="translate(-198.298 -4.74)" fill="#f2a5ba"/>
      <path id="_ス_1520" d="M235.753,5.385h0V5.337s-.048.072-.1.072c.048.072.048-.023.072,0h0Z" transform="translate(-216.456 -3.894)" fill="#f2a5ba"/>
      <path id="_ス_1523" d="M235.193,5.087a.023.023,0,0,1-.023-.023.089.089,0,0,0,.023.072Z" transform="translate(-216.184 -3.743)" fill="#f2a5ba"/>
      <path id="_ス_1526" d="M235.383,5.312s0-.1-.048-.048a.047.047,0,0,1,.048.046Z" transform="translate(-216.276 -3.847)" fill="#f2a5ba"/>
      <path id="_ス_1528" d="M235,5.221s-.023,0-.048-.048a.346.346,0,0,0,.048.072h0Z" transform="translate(-216.064 -3.803)" fill="#f2a5ba"/>
      <path id="_ス_1531" d="M234.737,5.221V5.172l.023.072Z" transform="translate(-215.944 -3.803)" fill="#f2a5ba"/>
      <path id="_ス_1532" d="M234.568,5.244s-.048-.048-.048-.072v.072Z" transform="translate(-215.823 -3.803)" fill="#f2a5ba"/>
      <path id="_ス_1534" d="M234.894,5.385s-.023-.048-.048-.048Z" transform="translate(-216.004 -3.894)" fill="#f2a5ba"/>
      <path id="_ス_1537" d="M235.277,5.613a.184.184,0,0,1-.048-.123A.155.155,0,0,0,235.277,5.613Z" transform="translate(-216.217 -3.98)" fill="#f2a5ba"/>
      <path id="_ス_1538" d="M235.062,5.5v.048h.023A.072.072,0,0,0,235.062,5.5Z" transform="translate(-216.125 -3.984)" fill="#f2a5ba"/>
      <path id="_ス_1539" d="M234.761,5.546s0-.048-.023-.048v.048Z" transform="translate(-215.944 -3.984)" fill="#f2a5ba"/>
      <path id="_ス_1546" d="M234.5,5.968h-.048c.048.048,0,.1.072.192V6.112s0,.048.023.048c-.023-.048-.023-.1,0-.072a.8.8,0,0,0-.191-.265v.072a.164.164,0,0,1,.1.1h0Z" transform="translate(-215.733 -4.165)" fill="#f2a5ba"/>
      <path id="_ス_1547" d="M234.435,5.678h.048a.18.18,0,0,0-.072-.072v.072Z" transform="translate(-215.762 -4.045)" fill="#f2a5ba"/>
      <path id="_ス_1548" d="M234.628,5.63a.188.188,0,0,0,.072.144V5.7c-.023.023,0-.023-.048-.048h0V5.606h0v.048h0Z" transform="translate(-215.883 -4.045)" fill="#f2a5ba"/>
      <path id="_ス_1550" d="M235.216,5.813v.048a.123.123,0,0,0-.023-.072h0s-.072-.048-.072-.072a.422.422,0,0,0,.1.123V5.813h0Z" transform="translate(-216.157 -4.107)" fill="#f2a5ba"/>
      <path id="_ス_1552" d="M234.351,5.655l-.048-.048.048.072Z" transform="translate(-215.702 -4.045)" fill="#f2a5ba"/>
      <path id="_ス_1553" d="M234.276,5.713l-.023-.048v.048Z" transform="translate(-215.674 -4.077)" fill="#f2a5ba"/>
      <path id="_ス_1555" d="M232.085,7.292s-.123-.072-.072-.023l.048.048h.023Z" transform="translate(-214.421 -4.961)" fill="#f2a5ba"/>
      <path id="_ス_1556" d="M231.533,9.015h0l-.048-.048v.048Z" transform="translate(-214.134 -5.915)" fill="#f2a5ba"/>
      <path id="_ス_1557" d="M230.781,11.351l.048.048S230.829,11.376,230.781,11.351Z" transform="translate(-213.742 -7.242)" fill="#f2a5ba"/>
      <path id="_ス_1558" d="M233.377,6.419h-.048C233.352,6.419,233.4,6.467,233.377,6.419Z" transform="translate(-215.16 -4.497)" fill="#f2a5ba"/>
      <path id="_ス_1559" d="M230.021,9.671l.023.023Z" transform="translate(-213.319 -6.307)" fill="#f2a5ba"/>
      <path id="_ス_1565" d="M233.895,5.932l-.023.023h.023Z" transform="translate(-215.462 -4.226)" fill="#f2a5ba"/>
      <path id="_ス_1567" d="M232.661,8.588s-.023-.072,0-.048l-.144-.123.144.168Z" transform="translate(-214.708 -5.609)" fill="#f2a5ba"/>
      <path id="_ス_1568" d="M227,9.437a.345.345,0,0,1,.072.048h-.123s-.023.048.048.1h0a2.174,2.174,0,0,1,.337.144c-.1-.072.192.023.072-.072.023,0,.023.023.072.048q-.048-.048,0-.048h0a1.867,1.867,0,0,0,.168-.1h-.072l.048-.023c-.072-.072-.023.023-.123-.048.123.048.072-.1.192,0,0,0-.072-.023-.048-.048h.1s0-.048.023-.023h-.023s.1-.1.048-.192h-.023a.089.089,0,0,0,.048-.072h0s-.023-.048,0-.048c.023.023.072,0,.1.048-.023-.072-.023-.048-.123-.144h.048s-.048-.023-.048-.048c.023.048.072.023.123.072.123,0-.048-.123.1-.048-.123-.1-.1,0-.123-.023-.048,0-.072-.072-.048-.072,0,0,.168.072.192.048h0s-.023-.048.048-.023c-.072-.048,0,0-.072-.072v.048s-.123-.123-.048-.123l.048.048c.023,0,0-.023.023,0,.1.072,0,.048.048.123.048,0-.048-.072.048,0-.123-.1.048-.023-.048-.123l.048.048V8.813l.048.048s.072,0,.072-.048c-.023.048-.072-.023-.123-.048-.048-.1.168.072.192,0h.023c0-.048-.072-.023-.1-.072.072.023,0-.023-.023-.072l.048.048s-.123-.1-.048-.1l.072.072h.048V8.6c-.048,0-.1-.072-.1-.1.048,0,.048.048.072,0,.023.023.072.072,0,.048l.048.048.048-.048h0l-.048-.1s.048.023.048.048V8.453c.048.023.1.072.1.1V8.476a.047.047,0,0,1,.048.046v0c.048,0-.048-.1,0-.1h0s.1,0,.048-.1l.1.048s-.123-.048-.123-.123c0-.048.072.048.1.048-.023-.048-.1-.123,0-.1v.027h.048a.123.123,0,0,0,.1.123c-.144-.123.048-.072-.123-.192h.048s-.1-.072-.048-.1a.123.123,0,0,1,.072.023V8.043h.023a.353.353,0,0,1-.048-.1c.023,0,0,0,.023.023V7.924s.048.072.023.072c.168.1-.023-.048.1,0h0a.709.709,0,0,0,.144.072.426.426,0,0,1-.192-.123s.023,0,0-.023c.048.048.048,0,.048,0l.072.048a.448.448,0,0,1-.072-.1.352.352,0,0,1,.123.072c.023,0-.1-.048-.1-.1.048,0,.023-.048,0-.1.048,0,.048.048.072.048l-.048-.048h.023s-.072-.048-.072-.072c-.072-.072.144.048.072-.048.023,0,.048.048.072.048a.264.264,0,0,0-.072-.144h.072s-.123-.072-.144-.144h-.048V7.3l.048.048h0a.188.188,0,0,1,.1.072h-.048a.658.658,0,0,0,.123.1h.123a.864.864,0,0,1-.144-.264.815.815,0,0,1,.144.144c-.072-.048,0,.048-.023.072,0,0,.048.023.048.048V7.419s0,.023.048.048c-.123-.1-.048-.1-.072-.123.023.023.072.072.048.072.1.048-.1-.144,0-.1h0c0-.048.023-.048.048,0h0a.1.1,0,0,0,0-.168l.123.123-.241-.337a1.613,1.613,0,0,1,.289.289s.048,0,.023-.023l-.123-.1c.1.072.048.023.144.072a.881.881,0,0,1-.123-.144l.123.123-.072-.144.123.123c-.023,0,.023,0,0-.048h-.048s-.123-.192-.1-.216c0,.023.123.144.168.144a1.686,1.686,0,0,1-.241-.385h.023s.192.289.241.385c.048,0,.048.048.048,0,.048.023.048.048.023.072h.072a.3.3,0,0,0-.1-.168v.123s-.144-.216-.1-.241c.023,0,.1.123.123.144h0s-.023-.123.048-.072c0,0,.1.072.072.023a5.16,5.16,0,0,1-.36-.385.791.791,0,0,1,.144.072c.072.048.123.168.168.216l-.023-.048s.048.072.048.048c-.048-.072.048,0-.048-.072,0-.023.023,0,.048,0a.493.493,0,0,1-.123-.216l.048.048a.18.18,0,0,0,.123-.023.179.179,0,0,1,.072.072V6.554s-.023.023.048.1c-.023-.048,0-.072-.023-.123-.048-.072-.048,0-.048.048a.6.6,0,0,1-.123-.264c0-.048.048.048.048.023.072,0-.072-.192,0-.168a.37.37,0,0,1,.123.168c0,.048-.072,0-.072,0h.048v.051c.048.048.1-.048.168-.023a.089.089,0,0,0-.023-.072h0s0-.072-.048-.072v-.1l.048.072s-.048-.023-.048,0c0-.048.1.072.048-.023l-.048-.048s-.023-.144,0-.123c-.048-.072,0,0-.072-.072.072.1-.072.023.023.123-.072-.072-.048,0-.144-.1,0,0,.048.048,0,.048h0l.023.048c.023.048,0,.072,0,.123,0,0,0-.023-.048-.048v.038s-.072-.072-.072-.123h-.023s-.072,0-.072.023v.072h-.023s0,.123-.123.072c0,0,0,.048-.023.048l-.048-.048s-.072,0-.048.048c-.123-.1-.1.023-.144.048l.048.048a.247.247,0,0,0-.023.072l.048.048s-.072,0-.1.048h0c-.144-.072,0,.144-.1.1h0v.048l-.048-.048h0s0,.023.048.072v.048s0,.048-.072-.023c.023.048,0,.072.072.168h0l-.072-.048.072.1a.939.939,0,0,1-.123-.1c.048.1,0,.048.048.144l-.048-.048s.023.072,0,.048c-.1-.048-.123.1-.241.072.144.1-.072,0,0,.072q-.036,0-.072-.072c0,.048-.1,0,0,.1-.023,0-.048-.048-.048-.048h0a.074.074,0,0,0-.023-.048.631.631,0,0,0,.144.192q-.048,0,0,.048a.076.076,0,0,1-.072-.072s-.1.023-.023.072h0q-.023,0-.048.048h0v.072h0s0,.023-.1,0l.048.048s-.1,0-.072.048h.048a2.267,2.267,0,0,0-.216-.072V7.419c-.1,0,.072.048.072.1-.048-.023-.1-.072-.123-.072-.048,0,.072.144,0,.123a.077.077,0,0,1,.072.072c0,.023-.144-.023-.072.048h-.023s0,.072.048.1c-.192-.123,0,.144-.144.023v.048h-.048a.239.239,0,0,0,.023.1.074.074,0,0,1-.048-.023c-.072,0-.072.023,0,.123L227.947,8s-.144,0-.1.072h0s-.241,0-.048.144V8.29a.575.575,0,0,0,.168.072s-.1,0-.1-.023h0a.176.176,0,0,1-.144-.023c-.048.072-.168.123-.216.192l.1.048h0s-.072,0-.048-.023c-.048,0,0,.048.048.072a.107.107,0,0,1-.1-.072h0s.072.072.048.1c-.023,0-.072-.023-.072,0h-.023l.072.048s-.023.023.072.072c-.144-.048-.123.1-.168.072.048.048,0,.072,0,.1,0,0,.1.048.072.072-.168-.1-.1,0-.216-.048.1.023,0,.072.1.123a.406.406,0,0,1-.123-.048c.023.072-.1.072-.123.144,0,0,.072,0,.1.048l-.123-.048s.123.072.023.048c0,0,.048,0,.048.023-.168.048-.048.264-.312.241q.048,0,.048.023h0l.07-.057Zm1.875-1.586s.023.048,0,.023C228.825,7.826,228.874,7.851,228.874,7.851Z" transform="translate(-211.571 -4.223)" fill="#f2a5ba"/>
      <path id="_ス_1572" d="M234.411,6.122h.048S234.411,6.074,234.411,6.122Z" transform="translate(-215.762 -4.32)" fill="#f2a5ba"/>
      <path id="_ス_1574" d="M233.842,6.01s-.048-.072,0-.048C233.819,5.891,233.842,6.058,233.842,6.01Z" transform="translate(-215.434 -4.233)" fill="#f2a5ba"/>
      <path id="_ス_1575" d="M234.518,6.366l.023.048.023.023-.048-.072Z" transform="translate(-215.821 -4.467)" fill="#f2a5ba"/>
      <rect id="_方形_151" height="0.023" transform="translate(18.69 1.964)" fill="#f2a5ba"/>
      <path id="_ス_1578" d="M233.871,6.848s.023.023.023,0V6.8h0Z" transform="translate(-215.462 -4.709)" fill="#f2a5ba"/>
      <path id="_ス_1579" d="M234.193,7.009s-.023,0-.048-.048l.048.072h0Z" transform="translate(-215.614 -4.799)" fill="#f2a5ba"/>
      <path id="_ス_1580" d="M234.218,7.226s0-.048-.023-.048C234.194,7.178,234.194,7.25,234.218,7.226Z" transform="translate(-215.642 -4.919)" fill="#f2a5ba"/>
      <path id="_ス_1581" d="M233.236,7.349h0l-.072-.123Z" transform="translate(-215.069 -4.946)" fill="#f2a5ba"/>
      <path id="_ス_1582" d="M233.269,8.364a.047.047,0,0,1-.048-.046v0c0,.048,0,.023.072.1.048,0-.048-.072,0-.048Z" transform="translate(-215.1 -5.553)" fill="#f2a5ba"/>
      <path id="_ス_1583" d="M226.873,13.9l-.048.025h.048Z" transform="translate(-211.54 -8.66)" fill="#f2a5ba"/>
      <path id="_ス_1584" d="M227,14.056l-.072-.048Z" transform="translate(-211.6 -8.721)" fill="#f2a5ba"/>
      <path id="_ス_1586" d="M231.233,10.7h0l-.072-.048Z" transform="translate(-213.954 -6.85)" fill="#f2a5ba"/>
      <path id="_ス_1588" d="M240.482,34.652l.048-.048S240.482,34.675,240.482,34.652Z" transform="translate(-219.141 -20.184)" fill="#f2a5ba"/>
      <path id="_ス_1589" d="M240.125,34.844l.023-.023-.048.048.023-.023Z" transform="translate(-218.929 -20.305)" fill="#f2a5ba"/>
      <path id="_ス_1590" d="M240.088,34.734s-.072.048-.048,0c-.048.1.023,0,0,.023h0l.048-.048h0Z" transform="translate(-218.886 -20.243)" fill="#f2a5ba"/>
      <path id="_ス_1593" d="M240.155,34.223a.3.3,0,0,0-.048.072h.023v-.072Z" transform="translate(-218.932 -19.972)" fill="#f2a5ba"/>
      <path id="_ス_1596" d="M240.048,34.538s.048-.072.023-.048A.076.076,0,0,1,240.048,34.538Z" transform="translate(-218.9 -20.118)" fill="#f2a5ba"/>
      <path id="_ス_1598" d="M239.99,34.271v-.048a.347.347,0,0,1-.048.072h0Z" transform="translate(-218.841 -19.972)" fill="#f2a5ba"/>
      <path id="_ス_1600" d="M239.886,34.62l.072-.072Z" transform="translate(-218.81 -20.153)" fill="#f2a5ba"/>
      <path id="_ス_1601" d="M240,34.11l.048-.048Z" transform="translate(-218.87 -19.882)" fill="#f2a5ba"/>
      <path id="_ス_1602" d="M239.942,34.024s.023-.072.048-.072l-.048.048Z" transform="translate(-218.841 -19.822)" fill="#f2a5ba"/>
      <path id="_ス_1607" d="M239.778,34.645a.188.188,0,0,1,.072-.1C239.849,34.572,239.8,34.6,239.778,34.645Z" transform="translate(-218.75 -20.153)" fill="#f2a5ba"/>
      <path id="_ス_1608" d="M239.833,34.488a.074.074,0,0,1,.023-.048h-.023Z" transform="translate(-218.78 -20.093)" fill="#f2a5ba"/>
      <path id="_ス_1616" d="M239.242,34.415v-.048c-.023.072-.072.072-.123.168h0c.023-.048.072-.1.048-.023a2.325,2.325,0,0,0,.168-.289.085.085,0,0,1-.048.072.155.155,0,0,1-.048.123h0Z" transform="translate(-218.383 -19.972)" fill="#f2a5ba"/>
      <path id="_ス_1617" d="M239.638,34.218h0l.023-.048-.048.048Z" transform="translate(-218.658 -19.942)" fill="#f2a5ba"/>
      <path id="_ス_1618" d="M239.579,34.342a.187.187,0,0,1,.023-.072h0v-.048h-.023c-.023.048-.048.072-.072.123,0,0,.023-.048.048-.048h0l.023.044Z" transform="translate(-218.599 -19.972)" fill="#f2a5ba"/>
      <path id="_ス_1619" d="M239.659,34.6a1.082,1.082,0,0,0-.072.123h-.023a.3.3,0,0,0,.048-.075h0a.343.343,0,0,1,.048-.1h0V34.6Z" transform="translate(-218.63 -20.153)" fill="#f2a5ba"/>
      <path id="_ス_1620" d="M239.561,34.68v.048h0a.123.123,0,0,1,.023-.072h-.023Z" transform="translate(-218.629 -20.213)" fill="#f2a5ba"/>
      <path id="_ス_1621" d="M239.64,34.133l.048-.072-.072.072Z" transform="translate(-218.659 -19.882)" fill="#f2a5ba"/>
      <path id="_ス_1622" d="M239.616,34.138h0l.023-.023Z" transform="translate(-218.659 -19.911)" fill="#f2a5ba"/>
      <path id="_ス_1624" d="M238.479,33.522s.048-.123,0-.072V33.5h0Z" transform="translate(-218.027 -19.535)" fill="#f2a5ba"/>
      <path id="_ス_1627" d="M239.114,33.945V33.9C239.114,33.921,239.09,33.969,239.114,33.945Z" transform="translate(-218.374 -19.791)" fill="#f2a5ba"/>
      <path id="_ス_1635" d="M237.5,34.579l.048-.048.072-.144-.123.192Z" transform="translate(-217.478 -20.063)" fill="#f2a5ba"/>
      <path id="_ス_1636" d="M236.435,33.21s.072-.072.072-.048l-.048.072V33.21c.023-.023-.048.123.023,0v-.048a.958.958,0,0,1,.1-.072c.048-.072,0,0,.023-.072-.048.123-.023,0-.072.1.048-.1,0-.048.048-.144,0,.023,0,.048-.023.023h0v.072a.958.958,0,0,0-.1.072.074.074,0,0,1,.023-.048v.048a.286.286,0,0,1,.023-.123h0V32.97h-.023s-.1.072-.048-.023h-.023V32.9h0c.072-.123-.023-.048-.023-.072V32.9h-.1v.048l-.048-.048h0c.048-.144-.1.072-.072-.023h0v-.043h0s0,.023-.048.072H236.1s-.023.048,0-.048c-.023.048-.048,0-.1.123h0a.322.322,0,0,1,.023-.123l-.1.1V32.9h0c.023-.1-.072-.048-.048-.144-.072.144,0-.072-.048.048,0-.023,0-.048.048-.072-.023.023,0-.072-.048,0,0-.023.023-.048.048-.072h0a.074.074,0,0,1,.023-.048,1.481,1.481,0,0,0-.123.192q0-.048-.023,0c0-.023,0-.072.048-.072,0,0,0-.072-.048,0h-.023s0,.023-.048.048h0s-.023,0,0-.072v.072c-.1.123,0-.1-.048-.048v.048s.048-.192.048-.216v-.026c0-.1-.048.072-.072.1,0-.048.048-.1.048-.123,0-.048-.1.123-.072.048a.1.1,0,0,1-.048.1s0-.144-.023-.048h0s-.048,0-.072.072c.072-.216-.1.072,0-.123h0a.085.085,0,0,0-.072.048v-.042q0-.048-.072.048v-.072s0-.123-.023-.048h0s0-.216-.1,0l-.048.048a.486.486,0,0,0-.048.144v-.1h0v-.123c-.048,0-.072-.1-.123-.123v.1h-.048s0-.1.023-.072c0-.048-.023.048-.048.072a.3.3,0,0,1,.048-.123h0s-.023.1-.048.1v-.062h0v.048s-.023,0-.048.072c.023-.144-.072-.072-.048-.123-.023.048-.048.048-.048.048s0,.1-.023.1c.048-.168,0-.072,0-.216,0,.1-.048,0-.072.144v-.123c-.048.072-.048-.048-.1-.048a.24.24,0,0,1-.023.1v-.123s-.023.144,0,.048v.048c-.048-.123-.168.072-.192-.168v.048s-.048,0-.048.1h0s-.023.216-.048.337c.023-.123,0,.168.048,0v.083c0-.048,0-.072.023-.048h0a.188.188,0,0,0,.072.1V32.73c.023-.1,0,0,0-.123,0,.123.048,0,.023.168,0,0,0-.072.023-.072h0v.1h.023a.155.155,0,0,0,.123-.072h.048l.023-.023a.144.144,0,0,1-.023.1c.048-.048.023-.048.072-.144v.052s0-.072.023-.072a.132.132,0,0,1-.048.123c0,.123.072-.1.048.072.048-.123,0-.072,0-.1,0-.048.048-.1.048-.072,0,0-.048.168,0,.168h0c.023-.072,0,0,.048-.1H234.8s.072-.123.072-.048a.123.123,0,0,1-.023.072h0c-.023.1-.023,0-.072.1,0,.048.048-.072,0,.048.048-.144,0,0,.072-.072V32.9h0v.048s-.023.072,0,.023a.322.322,0,0,1,.023-.123c.048-.072-.048.168,0,.144h0c.023,0,0-.072.048-.1,0,.072,0-.023.048-.048v.072s.023-.123.023-.072l-.048.072h0v.048h0a.3.3,0,0,1,.048-.123c0,.048-.023.048,0,.048,0,.048-.048.1-.023.023v.048h0l.048-.072s0,.048-.023.048V32.9a.286.286,0,0,1-.023.123l.048-.048v.072c0,.023.072-.1.072-.048h0s0,.048.048,0v.094s0-.123.048-.144c.023,0-.023.072-.023.1.023-.048.072-.123.072-.048h0v.048a.34.34,0,0,0-.072.123c.072-.168.048,0,.123-.168v.048h0s.072-.123.072-.072V33h.048s.048-.023.048-.048v.072c-.072.168.023-.048,0,.072h0a.423.423,0,0,1-.023.144.627.627,0,0,1,.072-.192h0c-.023.072,0,.048,0,.048v-.027a.187.187,0,0,1-.048.123.406.406,0,0,1,.048-.123c0,.048,0,0,.072-.023,0,.023-.023.048-.023.072l.048-.072h0s.048-.048.048-.072c.048-.1-.048.144,0,.048a.345.345,0,0,1-.048.072.524.524,0,0,0,.1-.123v.048a1.305,1.305,0,0,1,.1-.192v-.069h.072l-.048.048h0l-.048.1V32.85l-.072.144h0l-.048.072h0s.144-.168.168-.192a1.429,1.429,0,0,0-.1.192c.023-.072-.048.023-.048,0,0,0,0,.048-.023.048l.072-.072a.123.123,0,0,1-.023.072c.048-.123.048-.072.1-.123a.089.089,0,0,1-.048.072c-.023.1.1-.144.072-.048h0c.023-.023.023,0,0,.048h0s.048.023.123-.072l-.072.144.216-.337a2.775,2.775,0,0,1-.192.36h0s.048-.144.072-.144c-.048.1,0,.048-.048.144,0,0,.072-.168.1-.144l-.072.144.1-.123a.573.573,0,0,0-.072.168c0-.023,0,0,.023,0h0s.123-.216.144-.192c0,.023-.1.168-.1.192.048-.072.192-.337.241-.385h0s-.192.312-.241.385v.048a.047.047,0,0,1-.046.048h0v.048a1.121,1.121,0,0,0,.123-.144l-.072.072s.144-.216.144-.192a.6.6,0,0,1-.1.168c0-.023.048-.048.048-.023v.048h0s-.048.123,0,.072c.048-.1.192-.385.241-.456a.943.943,0,0,1-.048.144,1.271,1.271,0,0,1-.144.241s.023-.048.048-.048c0,0-.048.072-.023.072l.048-.072h0a1.334,1.334,0,0,1,.144-.192v.072s-.023.048,0,.072a.085.085,0,0,1-.048.072V33.3c.023-.048.048-.048.072-.072.048-.072,0,0-.023,0a1.034,1.034,0,0,1,.168-.241c.023,0-.023.072,0,.048,0,.023.123-.168.123-.072a1.042,1.042,0,0,1-.1.168c-.023,0,0-.048,0-.048h0s-.023.072-.023.048c-.023.072.048.048.023.1a.345.345,0,0,1,.048-.072h0a.45.45,0,0,0,.072-.1h0l-.276.153Z" transform="translate(-215.671 -18.815)" fill="#f2a5ba"/>
      <path id="_ス_1642" d="M239.385,34.039s.048-.072.023-.048C239.456,33.943,239.337,34.063,239.385,34.039Z" transform="translate(-218.524 -19.837)" fill="#f2a5ba"/>
      <path id="_ス_1643" d="M239.182,34.761v.023l.023-.072Z" transform="translate(-218.418 -20.244)" fill="#f2a5ba"/>
      <path id="_ス_1646" d="M238.857,34.52v.023l.023-.048h0Z" transform="translate(-218.237 -20.124)" fill="#f2a5ba"/>
      <path id="_ス_1648" d="M238.578,35.03a.084.084,0,0,0,.023-.048S238.553,35.03,238.578,35.03Z" transform="translate(-218.078 -20.395)" fill="#f2a5ba"/>
      <path id="_ス_1649" d="M238.37,34.393h0l.072-.123Z" transform="translate(-217.966 -19.998)" fill="#f2a5ba"/>
      <path id="_ス_1650" d="M237.712,34.922v-.048c-.023.023,0,0-.048.1,0,.048.048-.072.023-.023h0Z" transform="translate(-217.573 -20.334)" fill="#f2a5ba"/>
      <path id="_ス_1651" d="M234.165,32.212l-.023-.048v.048Z" transform="translate(-215.612 -18.826)" fill="#f2a5ba"/>
      <path id="_ス_1654" d="M236.222,34.458l.023-.072-.048.072Z" transform="translate(-216.757 -20.063)" fill="#f2a5ba"/>
      <path id="_ス_1658" d="M216.2,50.971v.023h.048S216.173,50.994,216.2,50.971Z" transform="translate(-205.622 -29.293)" fill="#f2a5ba"/>
      <path id="_ス_1703" d="M214.979,48.666h.216c.048,0,.123,0,.072.023h.216c-.123,0,0-.023-.123,0h.1s.048-.023,0-.023h0s-.1-.048,0-.072h.048s.048,0,0-.023c.144,0,.023-.023.048-.048h-.072l-.048-.023h-.072a.047.047,0,0,0,.048-.046v0h0c.144,0-.1-.023,0-.048h-.168c.123,0,0-.048.123-.072h.048c-.048,0,.072,0-.048-.023h-.048s.048-.023-.048-.023h-.059s-.048,0,.048-.023h-.072c-.144,0,.1,0,.023-.023h-.048a.74.74,0,0,0,.216-.023h.048s-.168-.023-.072-.048h-.1s.144-.023,0-.023h-.1c.241-.023-.123-.023.1-.048h0a.168.168,0,0,0-.1-.048h.048c.048,0,.023-.023-.072-.023h.072s.123-.048.023-.048h.023c-.1,0,.192-.072-.072-.048h-.209s.072-.023.1,0h0c.144,0,.048-.023.144-.023,0-.023.072-.072.048-.123H215.1c.144-.023.048-.072.1-.072h-.144c.192,0,.072-.023.216-.048-.1,0-.023-.023-.144,0h.123c-.072,0,.048-.048,0-.072h.023s-.144,0-.048-.048h-.072s-.123-.072.1-.144H215.1l.1-.048h-.1l-.36.072c.123,0-.168.048,0,.048h-.022l-.072.072h0l.123-.023c-.144.023,0,.048-.144.072h.023s0,.048.072.048h.023s-.023,0,0,.023h0c-.123.023.123,0-.048.048.144,0,.072-.023.123-.023h.1s-.192.023-.192.048h-.072s-.072.048,0,.048a.322.322,0,0,0,.123-.023c.1,0-.168.023-.144.048h.072s.048,0,0,.023h0a.546.546,0,0,1-.1.023c-.023,0,.123,0,.072.023h.023s-.072.023,0,.023h-.18c.192,0,0,.023.216,0h.123s0,.023-.048.023h-.048c-.192,0,.048,0-.072.023h-.023a.515.515,0,0,0-.144.023.649.649,0,0,1,.216,0h-.022c-.023,0,0,0,.072.023h.1c.1,0-.144.023-.023.023h-.144s.264.048.312.048h-.216c.1,0-.048,0,0-.023h.023a.239.239,0,0,0-.1.023h.1s0,.048.123.048h.241s-.36.023-.408.023h-.168a.853.853,0,0,0,.168.023h.456a.634.634,0,0,0-.168.023h-.048s-.048.023-.048.048h.192c0,.023.216,0,.123.048h-.216c-.072,0,0,.048-.072.048h0l-.037.339Z" transform="translate(-204.693 -27.277)" fill="#f2a5ba"/>
      <path id="_ス_1710" d="M215.713,50.452l.072-.023h-.072Z" transform="translate(-205.356 -28.991)" fill="#f2a5ba"/>
      <path id="_ス_1724" d="M192.355,35.331l.023.023-.023-.047v.023Z" transform="translate(-192.355 -20.576)" fill="#f2a5ba"/>
      <path id="_ス_1725" d="M192.463,35.254h0V35.3s.023-.072.048-.048C192.463,35.158,192.511,35.254,192.463,35.254Z" transform="translate(-192.415 -20.522)" fill="#f2a5ba"/>
      <path id="_ス_1733" d="M192.95,35.6l.023.048a.123.123,0,0,0-.023-.072h0Z" transform="translate(-192.686 -20.727)" fill="#f2a5ba"/>
      <rect id="_方形_160" height="0.072" transform="translate(0.157 14.754)" fill="#f2a5ba"/>
      <path id="_ス_1735" d="M193.083,35.71v.048l-.025-.072.023.023Z" transform="translate(-192.746 -20.786)" fill="#f2a5ba"/>
      <path id="_ス_1736" d="M193.167,35.686a.546.546,0,0,1,.023.1V35.71h-.023Z" transform="translate(-192.807 -20.786)" fill="#f2a5ba"/>
      <path id="_ス_1738" d="M192.95,35.525s0,.048.023.048v-.048Z" transform="translate(-192.686 -20.696)" fill="#f2a5ba"/>
      <path id="_ス_1741" d="M192.733,35.146a.492.492,0,0,1,.023.123A.262.262,0,0,0,192.733,35.146Z" transform="translate(-192.565 -20.486)" fill="#f2a5ba"/>
      <path id="_ス_1743" d="M193.083,35.493v-.023h-.025v.023h.025Z" transform="translate(-192.746 -20.666)" fill="#f2a5ba"/>
      <path id="_ス_1750" d="M193.083,34.8l.023.048c-.023-.072,0-.1-.048-.192V34.7a.924.924,0,0,0,.123.289v-.073c0-.023-.048-.048-.048-.1h0l-.051-.023Z" transform="translate(-192.746 -20.213)" fill="#f2a5ba"/>
      <path id="_ス_1751" d="M193.223,35.416h0s0,.023.048.072v-.072Z" transform="translate(-192.838 -20.636)" fill="#f2a5ba"/>
      <path id="_ス_1752" d="M193.107,35.235a.237.237,0,0,0-.048-.144v.072a.074.074,0,0,0,.023.048h0v.048h0Z" transform="translate(-192.747 -20.455)" fill="#f2a5ba"/>
      <path id="_ス_1753" d="M192.733,34.98a.353.353,0,0,1,.048.1.341.341,0,0,0-.048-.144h0V35h0Z" transform="translate(-192.565 -20.367)" fill="#f2a5ba"/>
      <path id="_ス_1755" d="M193.275,35.44l.023.048-.023-.072Z" transform="translate(-192.867 -20.636)" fill="#f2a5ba"/>
      <path id="_ス_1756" d="M193.331,35.416l.023.048V35.44Z" transform="translate(-192.898 -20.636)" fill="#f2a5ba"/>
      <path id="_ス_1758" d="M194.686,34.982s.072.123.048.048v-.048Z" transform="translate(-193.652 -20.395)" fill="#f2a5ba"/>
      <path id="_ス_1761" d="M193.865,35.173a.023.023,0,0,0,.023.023C193.888,35.173,193.84,35.125,193.865,35.173Z" transform="translate(-193.191 -20.489)" fill="#f2a5ba"/>
      <path id="_ス_1769" d="M194.469,33.466v.048l.072.168Z" transform="translate(-193.532 -19.551)" fill="#f2a5ba"/>
      <path id="_ス_1770" d="M195.872,32.484s-.1-.216-.144-.337c.023.123-.1-.144-.048,0v-.025h0a1.132,1.132,0,0,1-.123-.048h0c.023.1.023,0,.048.1-.048-.123-.072,0-.123-.123,0,0,.023.072,0,.072h0s-.048-.048-.048-.072h-.023a.123.123,0,0,0-.1.123h0s-.023,0-.048.048h0v.048c0-.023-.048-.072-.048-.1a.541.541,0,0,0,.023.168v.046c0-.048-.048-.072-.048-.123-.072-.1,0,.123-.072-.023.048.144.048.072.048.1,0,.048.023.1,0,.1,0,0-.072-.168-.1-.144h0s0,.048-.023,0c.023.072,0,0,0,.1h0s.023.123,0,.072v-.069h0c-.048-.1,0-.023,0-.123,0-.048,0,.072-.023-.023.048.144-.023,0,0,.1h0l-.048-.072s-.048-.048-.048,0c.023,0,.048.072.072.123,0,.1-.072-.144-.1-.1l.048.048-.048-.048a.546.546,0,0,1,.023.1c-.048-.072,0,.023,0,.072v-.073H194.9V32.34s-.023.048-.048.023c0,.048.048.123.023.123,0-.023,0-.048-.023-.048,0-.048-.023-.1,0-.023v-.052h-.048v.072a.616.616,0,0,1-.048-.123v.073s-.048-.048-.048-.072c-.023-.023,0,.123-.023.072h0s-.072-.023-.048.048l-.048-.1s.072.1.048.144c0,.023-.048-.072-.048-.1,0,.048.023.144,0,.072h0v-.044a.352.352,0,0,0-.072-.123c.072.168-.048.048.023.216h-.023v-.044s.048.123,0,.123a.084.084,0,0,1-.023-.048v.048h-.023v.072s-.023-.1,0-.1c-.1-.168,0,.048-.072-.048h0c-.048-.123-.048-.072-.1-.144,0,.023.1.144.1.192h0c-.023-.072-.023-.048-.023-.048v.022a1.08,1.08,0,0,1-.072-.123.618.618,0,0,1,.048.123q-.036-.036,0,.072a.089.089,0,0,0-.019-.072V32.6h0a.246.246,0,0,1,.023.072c.023.1-.072-.123-.048,0a.123.123,0,0,0-.023-.072v.144l-.048-.048s.048.144.072.192l.048.072v.048a.123.123,0,0,0-.023-.072h0l-.048-.1v.048a.423.423,0,0,0-.023-.144h0l-.052-.072h0v.287c0-.072-.048-.123-.072-.192.048.072,0-.048.023-.023l-.023-.048v.1a.085.085,0,0,0-.052-.073c.048.123,0,.1,0,.144,0-.048-.023-.1,0-.072-.048-.1.048.168,0,.072h0c0,.048,0,0-.023,0h0s-.072,0-.023.123L194,32.847l.095.382a2.793,2.793,0,0,1-.144-.36h0a.8.8,0,0,1,.072.144l-.072-.144s.072.168.048.168a.872.872,0,0,0-.072-.168l.048.144s-.048-.123-.072-.168h0s.048.241.023.241c0-.023-.072-.192-.1-.192,0,.072.123.36.123.433h0s-.123-.36-.144-.456c0-.023,0-.048-.023-.048v-.074h-.049a.286.286,0,0,0,.048.144v-.1s.072.241.048.241a.987.987,0,0,0-.072-.192h0s0,.123-.023.048c0,0-.048-.1-.048-.048.048.1.168.408.192.481,0,0-.072-.1-.1-.123-.048-.072-.048-.192-.1-.241v.072s-.023-.072-.023-.048c.023.1-.023,0,0,.072,0,.023,0,0-.023,0,.023.048.072.192.048.216a.123.123,0,0,0-.023-.072c-.023,0-.048-.048-.072-.023a.347.347,0,0,0-.048-.072v.048l-.023-.1v.123c.023.072.023,0,.023-.023a.724.724,0,0,1,.072.289c0,.023-.023-.072-.023-.048-.048,0,.048.192,0,.123a.987.987,0,0,1-.072-.192c0-.023.048.048.048.023h-.023V33.3c-.023-.048-.072,0-.123-.048v.072h0a.187.187,0,0,0,.023.1h0c0,.048-.072-.1-.023,0v.048s.048.123.023.123c.023.072,0,0,.048.072-.048-.123.048,0,0-.123a.525.525,0,0,0,.072.123v-.046h0v-.173a.616.616,0,0,1,.048.123h0s.048.048.048,0h0v-.052h0s0-.1.072,0v.023s.072.048.048,0c.072.123.048,0,.1.023V33.4a.033.033,0,0,0,.047,0h0c.072.123,0-.123.072-.023h.048l-.023-.048v-.048s0-.048.048.072a.633.633,0,0,0-.023-.168h0v-.025a.709.709,0,0,1,.072.144v-.1s0-.072.023-.023c.048.1.072,0,.144.072-.072-.144.048.048,0-.048,0,.023.023.048.048.1,0-.048.048.048.023-.048a.089.089,0,0,0,.023.072h0v.047a1,1,0,0,0-.072-.216c.023.048.023.023,0-.023,0,.023.048.072.023.072,0,0,.072.023.023-.048h.023v-.047h0s0-.023.072.048v-.048c-.072-.123.023.072.023,0h0s.1.144.123.144v.023c.048.072-.023-.072,0-.1a.3.3,0,0,0,.048.123c0,.023-.023-.144.023-.072a.183.183,0,0,0-.048-.1s.1.123.048,0h0v-.1c.1.216,0-.123.1.072h.023V33.06c.048.023.048,0,.023-.1v.072s.123.072.1,0h0s.144.168.048-.048v-.072l-.072-.144s.048.048.048.072h0s.048,0,.072.1c.048-.023.123,0,.168,0l-.048-.1h0s.023.072,0,.072c.023.048,0-.048,0-.072.048.023.023.123.048.123h0v-.1l.023.048h.023l-.048-.072v-.073c.072.123.1,0,.123.048v-.072s-.048-.1-.023-.1c.072.168.048.072.123.192-.048-.072.023-.023-.023-.144a.343.343,0,0,0,.048.1c0-.072.072,0,.1,0a.247.247,0,0,1-.023-.1l.072.1s-.048-.123,0-.048V32.7s.072-.144.216.048c-.023-.048,0-.048,0-.048h0s.048,0,.023-.1h0l.069-.12Z" transform="translate(-192.94 -18.761)" fill="#f2a5ba"/>
      <path id="_ス_1774" d="M193.246,35.022s0-.023-.023,0Z" transform="translate(-192.838 -20.411)" fill="#f2a5ba"/>
      <path id="_ス_1777" d="M193.167,34.68v-.023l.023.072Z" transform="translate(-192.807 -20.213)" fill="#f2a5ba"/>
      <path id="_ス_1783" d="M193.979,34.331h0l.048.123Z" transform="translate(-193.259 -20.032)" fill="#f2a5ba"/>
      <path id="_ス_1784" d="M194.082,33.507a.074.074,0,0,0,.023.048c0-.023,0,0-.023-.1C194.059,33.435,194.105,33.53,194.082,33.507Z" transform="translate(-193.313 -19.544)" fill="#f2a5ba"/>
      <path id="_ス_1785" d="M199.076,33.357l.023.023Z" transform="translate(-196.096 -19.49)" fill="#f2a5ba"/>
      <path id="_ス_1788" d="M195.715,32.759h0l.048.072Z" transform="translate(-194.225 -19.157)" fill="#f2a5ba"/>
    </g>
    <g id="let_s_live" data-name="let&apos;s live" transform="translate(25.788 58.661)">
      <path id="Path_1273" data-name="Path 1273" d="M53.118,122.8a.325.325,0,0,1-.171.056l-1.068.081-.739.062-.385.031a.112.112,0,0,1-.09-.062.22.22,0,0,1-.04-.118.077.077,0,0,1,.028-.065.169.169,0,0,1,.062-.031.261.261,0,0,0,.046-.016q.006-.335.006-1.565a10.569,10.569,0,0,0-.071-1.406q-.071-.5-.071-.537a.162.162,0,0,1,.065-.136.218.218,0,0,1,.134-.05.08.08,0,0,1,.068.034.264.264,0,0,1,.037.109,4.078,4.078,0,0,1,.1.776q.034.565.034,1.18,0,.522-.006.968t-.006.6l.31-.022.472-.034q.36-.044.813-.13a3.905,3.905,0,0,1,.441-.068.082.082,0,0,1,.087.062.536.536,0,0,1,.019.149.151.151,0,0,1-.071.13Z" transform="translate(-50.626 -118.43)" fill="#f1a1b4"/>
      <path id="Path_1274" data-name="Path 1274" d="M62.778,122.972a1.733,1.733,0,0,1-.165.49,2.211,2.211,0,0,1-.5.7,1.126,1.126,0,0,1-.816.323.937.937,0,0,1-.664-.249,1,1,0,0,1-.267-.763,2.368,2.368,0,0,1,.807-1.735,1.151,1.151,0,0,1,.745-.3.7.7,0,0,1,.388.1.331.331,0,0,1,.158.295.567.567,0,0,1-.245.422,2.325,2.325,0,0,1-.637.36,3.912,3.912,0,0,1-.807.224,2.2,2.2,0,0,0-.074.559.831.831,0,0,0,.171.559.607.607,0,0,0,.487.2.981.981,0,0,0,.776-.342,3.225,3.225,0,0,0,.5-.769c.008-.016.023-.049.043-.1s.039-.071.056-.071.044.031.044.093Zm-.692-1.223a.491.491,0,0,0-.239-.056.768.768,0,0,0-.453.155,1.448,1.448,0,0,0-.363.372,1.308,1.308,0,0,0-.189.385,2.223,2.223,0,0,0,.6-.162,2.576,2.576,0,0,0,.53-.285q.214-.155.214-.255A.172.172,0,0,0,62.085,121.749Z" transform="translate(-56.048 -119.763)" fill="#f1a1b4"/>
      <path id="Path_1275" data-name="Path 1275" d="M71.969,120.978a.894.894,0,0,1-.326.087l-.64.112-.4.068q0,.323.01.677t.028.621a2.426,2.426,0,0,0,.087.552q.062.193.068.217a.144.144,0,0,1-.078.115.259.259,0,0,1-.146.053.092.092,0,0,1-.062-.022.176.176,0,0,1-.043-.071,1.47,1.47,0,0,1-.071-.323q-.034-.236-.053-.521-.019-.255-.028-.593c-.007-.225-.01-.444-.01-.655q-.348.056-.714.136a3.181,3.181,0,0,1-.391.068.246.246,0,0,1-.139-.043.135.135,0,0,1-.065-.118.1.1,0,0,1,.056-.105.5.5,0,0,1,.186-.025,1.58,1.58,0,0,0,.273-.034q.18-.034.23-.046.416-.081.565-.106c0-.087,0-.2-.013-.341-.008-.191-.012-.335-.012-.435a3.447,3.447,0,0,1,.016-.375.883.883,0,0,1,.059-.239.184.184,0,0,1,.186-.124.11.11,0,0,1,.074.019.1.1,0,0,1,.019.068,2.029,2.029,0,0,1-.031.217,2.926,2.926,0,0,0-.031.478q0,.229.012.515l.006.168q.279-.044,1.1-.23a.139.139,0,0,0,.084-.087c.023-.049.046-.074.071-.074a.2.2,0,0,1,.139.078.233.233,0,0,1,.071.158A.178.178,0,0,1,71.969,120.978Z" transform="translate(-60.848 -118.687)" fill="#f1a1b4"/>
      <path id="Path_1276" data-name="Path 1276" d="M80.094,119.077c-.021.13-.049.206-.087.227a.165.165,0,0,1-.081.025.128.128,0,0,1-.106-.062,1.462,1.462,0,0,1-.025-.385l-.013-.379a2.8,2.8,0,0,0-.043-.31,2.309,2.309,0,0,1-.037-.3c0-.058.013-.095.037-.112a.17.17,0,0,1,.081-.012.347.347,0,0,1,.131.028.182.182,0,0,1,.093.071,1.193,1.193,0,0,1,.056.289,4.154,4.154,0,0,1,.025.462,2.93,2.93,0,0,1-.031.456Z" transform="translate(-66.809 -117.721)" fill="#f1a1b4"/>
      <path id="Path_1277" data-name="Path 1277" d="M87.12,124.1a1.565,1.565,0,0,1-.58.4,1.907,1.907,0,0,1-.751.152.874.874,0,0,1-.36-.05.152.152,0,0,1-.093-.136q0-.056.143-.2t.192-.14c.05,0,.074.01.074.031a.067.067,0,0,1-.031.05c-.021.016-.031.031-.031.043s.026.033.078.05a.634.634,0,0,0,.19.025,1.523,1.523,0,0,0,.524-.1,1.262,1.262,0,0,0,.431-.252.448.448,0,0,0,.168-.329.35.35,0,0,0-.105-.267.645.645,0,0,0-.264-.146q-.158-.046-.53-.133-.41-.093-.637-.165a1.113,1.113,0,0,1-.363-.18.337.337,0,0,1-.137-.276.715.715,0,0,1,.292-.546,2.251,2.251,0,0,1,.67-.391,1.811,1.811,0,0,1,.584-.143q.211,0,.211.124a.349.349,0,0,1-.049.165.161.161,0,0,1-.149.09.151.151,0,0,1-.081-.028.16.16,0,0,0-.087-.028,1.818,1.818,0,0,0-.875.323.476.476,0,0,0-.217.391.235.235,0,0,0,.171.22,4.5,4.5,0,0,0,.636.177.752.752,0,0,0,.112.028.885.885,0,0,1,.1.022,2.89,2.89,0,0,1,.733.255.462.462,0,0,1,.255.428.79.79,0,0,1-.22.525Z" transform="translate(-69.778 -119.747)" fill="#f1a1b4"/>
      <path id="Path_1278" data-name="Path 1278" d="M101.731,122.633a.427.427,0,0,1-.18.037c-.049,0-.1-.059-.139-.177a1.645,1.645,0,0,1-.065-.537q.007-.7.022-1.695t.028-1.5a1.041,1.041,0,0,1,.065-.335.211.211,0,0,1,.208-.155.064.064,0,0,1,.065.053.842.842,0,0,1,.016.2s0,.018,0,.041,0,.063,0,.121q-.112,1.633-.112,3.185a1.126,1.126,0,0,0,.09.422q.09.223.09.236c0,.042-.027.074-.081.1h0Z" transform="translate(-78.855 -118.002)" fill="#f1a1b4"/>
      <path id="Path_1279" data-name="Path 1279" d="M106.7,119.173a.344.344,0,0,1-.214-.087q-.109-.086-.109-.142a.18.18,0,0,1,.065-.131.194.194,0,0,1,.133-.062.359.359,0,0,1,.155.1,1.292,1.292,0,0,1,.112.131.3.3,0,0,1,.062.1C106.9,119.142,106.832,119.173,106.7,119.173Zm.308,3.907a.185.185,0,0,1-.121.028q-.087-.007-.127-.279t-.084-1.037q-.025-.5-.043-.984t-.025-.742a.19.19,0,0,1,.022-.1.091.091,0,0,1,.084-.034.167.167,0,0,1,.18.118,1.8,1.8,0,0,1,.037.453l-.006.733q0,.627.037,1.006,0,.019.056.4a2.742,2.742,0,0,1,.043.348.108.108,0,0,1-.053.1h0Z" transform="translate(-81.653 -118.266)" fill="#f1a1b4"/>
      <path id="Path_1280" data-name="Path 1280" d="M115.166,120.965a.51.51,0,0,0-.1.081,3.733,3.733,0,0,0-.6,1.049,8.187,8.187,0,0,0-.441,1.478q-.019.093-.062.372l-.031.217a.26.26,0,0,1-.084.155.352.352,0,0,1-.226.056,1.352,1.352,0,0,1-.211-.375q-.181-.375-.379-.81l-.267-.584q-.242-.527-.4-.825t-.236-.3a.046.046,0,0,0-.04.031c-.01.021-.022.031-.034.031a.065.065,0,0,1-.053-.028.1.1,0,0,1-.022-.059.409.409,0,0,1,.09-.211q.09-.131.177-.13a.147.147,0,0,1,.093.025.342.342,0,0,1,.056.056c.017.021.029.037.037.05a6.2,6.2,0,0,1,.515.981q.131.279.646,1.459l.143.329a3.515,3.515,0,0,1,.062-.522,8.486,8.486,0,0,1,.41-1.452,4.811,4.811,0,0,1,.639-1.2.948.948,0,0,1,.121-.14.178.178,0,0,1,.121-.04c.021,0,.054.032.1.1a.323.323,0,0,1,.068.127c0,.021-.028.05-.084.087Z" transform="translate(-84.77 -119.326)" fill="#f1a1b4"/>
      <path id="Path_1281" data-name="Path 1281" d="M125.146,122.972a1.734,1.734,0,0,1-.165.49,2.211,2.211,0,0,1-.5.7,1.126,1.126,0,0,1-.816.323.937.937,0,0,1-.664-.249,1,1,0,0,1-.267-.763,2.368,2.368,0,0,1,.807-1.735,1.151,1.151,0,0,1,.745-.3.7.7,0,0,1,.388.1.331.331,0,0,1,.158.295.567.567,0,0,1-.245.422,2.325,2.325,0,0,1-.637.36,3.912,3.912,0,0,1-.807.224,2.2,2.2,0,0,0-.074.559.831.831,0,0,0,.171.559.607.607,0,0,0,.487.2.981.981,0,0,0,.776-.342,3.225,3.225,0,0,0,.5-.769c.008-.016.023-.049.043-.1s.039-.071.056-.071S125.147,122.91,125.146,122.972Zm-.692-1.223a.491.491,0,0,0-.239-.056.768.768,0,0,0-.453.155,1.448,1.448,0,0,0-.363.372,1.308,1.308,0,0,0-.189.385,2.223,2.223,0,0,0,.6-.162,2.576,2.576,0,0,0,.53-.285q.214-.155.214-.255A.172.172,0,0,0,124.454,121.749Z" transform="translate(-90.761 -119.763)" fill="#f1a1b4"/>
      <path id="Path_1282" data-name="Path 1282" d="M139.586,122.633a.427.427,0,0,1-.18.037c-.049,0-.1-.059-.139-.177a1.644,1.644,0,0,1-.065-.537q.007-.7.022-1.695t.028-1.5a1.041,1.041,0,0,1,.065-.335.211.211,0,0,1,.208-.155.064.064,0,0,1,.065.053.842.842,0,0,1,.016.2s0,.018,0,.041,0,.063,0,.121q-.112,1.633-.112,3.185a1.126,1.126,0,0,0,.09.422q.09.223.09.236C139.666,122.575,139.639,122.608,139.586,122.633Z" transform="translate(-99.924 -118.002)" fill="#f1a1b4"/>
      <path id="Path_1283" data-name="Path 1283" d="M144.55,119.173a.344.344,0,0,1-.214-.087q-.108-.086-.109-.142a.18.18,0,0,1,.065-.131.194.194,0,0,1,.133-.062.359.359,0,0,1,.155.1,1.292,1.292,0,0,1,.112.131.3.3,0,0,1,.062.1C144.755,119.142,144.687,119.173,144.55,119.173Zm.307,3.907a.185.185,0,0,1-.121.028q-.087-.007-.127-.279t-.084-1.037q-.025-.5-.043-.984t-.025-.742a.19.19,0,0,1,.022-.1.091.091,0,0,1,.084-.034.167.167,0,0,1,.18.118,1.8,1.8,0,0,1,.037.453l-.006.733q0,.627.037,1.006,0,.019.056.4a2.743,2.743,0,0,1,.043.348A.108.108,0,0,1,144.857,123.081Z" transform="translate(-102.722 -118.266)" fill="#f1a1b4"/>
      <path id="Path_1284" data-name="Path 1284" d="M153.132,120.223a.226.226,0,0,1-.158.1.184.184,0,0,1-.112-.053.19.19,0,0,0-.087-.053,1.222,1.222,0,0,0-.533.23,7.757,7.757,0,0,0-.751.54,6.093,6.093,0,0,0-.59.527l.006.112q.472.218,1.049.465a4.8,4.8,0,0,0,.8.292c.058.008.116.015.174.019s.1.006.124.006a.559.559,0,0,1,.093.006c.025,0,.037.012.037.025,0,.05-.039.1-.115.149a.639.639,0,0,1-.344.074,1.507,1.507,0,0,1-.556-.152q-.351-.152-.829-.4l-.391-.192q.081.789.081.869a.129.129,0,0,1-.068.112.272.272,0,0,1-.149.043c-.033,0-.06-.049-.081-.149s-.045-.3-.074-.59l-.044-.378a.381.381,0,0,1-.13-.09.167.167,0,0,1-.056-.109c0-.05.042-.107.124-.174q-.006-.335-.034-.956t-.04-.906l-.031-.863a.9.9,0,0,1,.044-.3.182.182,0,0,1,.192-.124.1.1,0,0,1,.074.022.133.133,0,0,1,.019.084q0,.286.04,1.326t.065,1.481q1.384-1.316,2.024-1.316a.478.478,0,0,1,.22.046c.06.031.09.063.09.1a.286.286,0,0,1-.084.183Z" transform="translate(-106.173 -118.017)" fill="#f1a1b4"/>
      <path id="Path_1285" data-name="Path 1285" d="M162.287,122.972a1.733,1.733,0,0,1-.165.49,2.211,2.211,0,0,1-.5.7,1.126,1.126,0,0,1-.816.323.937.937,0,0,1-.664-.249,1,1,0,0,1-.267-.763,2.368,2.368,0,0,1,.807-1.735,1.151,1.151,0,0,1,.745-.3.7.7,0,0,1,.388.1.331.331,0,0,1,.158.295.567.567,0,0,1-.245.422,2.325,2.325,0,0,1-.637.36,3.912,3.912,0,0,1-.807.224,2.2,2.2,0,0,0-.074.559.831.831,0,0,0,.171.559.607.607,0,0,0,.487.2.981.981,0,0,0,.776-.342,3.226,3.226,0,0,0,.5-.769c.008-.016.023-.049.043-.1s.039-.071.056-.071S162.287,122.91,162.287,122.972Zm-.692-1.223a.491.491,0,0,0-.239-.056.768.768,0,0,0-.453.155,1.448,1.448,0,0,0-.363.372,1.308,1.308,0,0,0-.189.385,2.223,2.223,0,0,0,.6-.162,2.576,2.576,0,0,0,.53-.285q.214-.155.214-.255A.172.172,0,0,0,161.6,121.749Z" transform="translate(-111.433 -119.763)" fill="#f1a1b4"/>
      <path id="Path_1286" data-name="Path 1286" d="M177.884,124.024a1.643,1.643,0,0,1-.509.543,1.291,1.291,0,0,1-.751.227.768.768,0,0,1-.614-.23.841.841,0,0,1-.2-.571,3.177,3.177,0,0,1,.109-.739,3.046,3.046,0,0,1,.307-.788c.008-.016.042-.078.1-.183a.771.771,0,0,1,.2-.242.387.387,0,0,1,.236-.084.2.2,0,0,1,.1.028.082.082,0,0,1,.047.071.169.169,0,0,1-.034.059l-.053.071a2.941,2.941,0,0,0-.342.5,3.4,3.4,0,0,0-.27.627,2.262,2.262,0,0,0-.1.676q0,.49.6.491a.906.906,0,0,0,.518-.162,1.282,1.282,0,0,0,.382-.394.833.833,0,0,0,.142-.425.555.555,0,0,0-.142-.379,2.423,2.423,0,0,0-.391-.341,2.109,2.109,0,0,1-.236-.193.2.2,0,0,1-.074-.124c0-.05.035-.09.105-.121a.611.611,0,0,1,.249-.046.377.377,0,0,1,.105.009.034.034,0,0,1,.025.034.086.086,0,0,1-.022.04.083.083,0,0,0-.022.047c0,.012.042.054.124.124a2.837,2.837,0,0,1,.416.416.775.775,0,0,1,.168.5A1.172,1.172,0,0,1,177.884,124.024Z" transform="translate(-120.3 -120.051)" fill="#f1a1b4"/>
      <path id="Path_1287" data-name="Path 1287" d="M187.375,124.551a.209.209,0,0,1-.155.056c-.083,0-.158-.087-.226-.261a1.933,1.933,0,0,1-.127-.54q-.025-.267-.037-1.08c0-.087-.007-.175-.007-.264s0-.165-.006-.226a9.334,9.334,0,0,1-.491.974,7.183,7.183,0,0,1-.624.938q-.314.391-.512.391a.266.266,0,0,1-.27-.217,2.633,2.633,0,0,1-.065-.689,5.016,5.016,0,0,1,.115-1,3.509,3.509,0,0,1,.264-.85.753.753,0,0,1,.106-.177.132.132,0,0,1,.1-.047c.1,0,.155.021.155.062a.442.442,0,0,1-.062.143,3.739,3.739,0,0,0-.291.745,4.386,4.386,0,0,0-.124,1.167q0,.49.136.49.162,0,.438-.357a6.642,6.642,0,0,0,.55-.854,7.548,7.548,0,0,0,.416-.863,2.921,2.921,0,0,0,.112-.385.881.881,0,0,1,.037-.152c.013-.031.027-.047.044-.047a.269.269,0,0,1,.149.056.152.152,0,0,1,.081.118q0,.3.022,1.021t.053,1a1.183,1.183,0,0,0,.09.379,1.1,1.1,0,0,0,.127.214.289.289,0,0,1,.062.1.209.209,0,0,1-.056.155Z" transform="translate(-125.334 -119.801)" fill="#f1a1b4"/>
      <path id="Path_1288" data-name="Path 1288" d="M196.757,121.984a.217.217,0,0,1-.133.071.124.124,0,0,1-.084-.037.74.74,0,0,1-.09-.106.377.377,0,0,0-.115-.106.277.277,0,0,0-.146-.043q-.18,0-.484.475a7.4,7.4,0,0,0-.6,1.2q.006.143.022.36c.01.145.018.252.022.323l.019.249a.3.3,0,0,1-.037.152.143.143,0,0,1-.136.065q-.106,0-.136-.282t-.037-.823q-.007-.136-.01-.391t-.016-.608q-.018-.533-.019-.763,0-.143.174-.143a.115.115,0,0,1,.127.09,1.736,1.736,0,0,1,.022.345v.987a4.941,4.941,0,0,1,.4-.825,2.41,2.41,0,0,1,.425-.531.6.6,0,0,1,.369-.183.58.58,0,0,1,.261.062.566.566,0,0,1,.2.158.3.3,0,0,1,.074.183.192.192,0,0,1-.077.127Z" transform="translate(-130.859 -119.77)" fill="#f1a1b4"/>
      <path id="Path_1289" data-name="Path 1289" d="M205.137,124.1a1.566,1.566,0,0,1-.58.4,1.907,1.907,0,0,1-.751.152.87.87,0,0,1-.36-.05.151.151,0,0,1-.093-.136c0-.037.047-.1.142-.2s.159-.14.193-.14c.049,0,.074.01.074.031a.067.067,0,0,1-.031.05c-.021.016-.031.031-.031.043s.026.033.078.05a.629.629,0,0,0,.189.025,1.523,1.523,0,0,0,.524-.1,1.264,1.264,0,0,0,.432-.252.448.448,0,0,0,.168-.329.351.351,0,0,0-.106-.267.646.646,0,0,0-.264-.146q-.158-.046-.531-.133-.41-.093-.637-.165a1.113,1.113,0,0,1-.363-.18.337.337,0,0,1-.137-.276.715.715,0,0,1,.292-.546,2.248,2.248,0,0,1,.671-.391,1.809,1.809,0,0,1,.583-.143q.211,0,.211.124a.35.35,0,0,1-.05.165.161.161,0,0,1-.149.09.151.151,0,0,1-.081-.028.16.16,0,0,0-.087-.028,1.537,1.537,0,0,0-.391.081,1.556,1.556,0,0,0-.485.242.476.476,0,0,0-.217.391.235.235,0,0,0,.171.22,4.521,4.521,0,0,0,.636.177.752.752,0,0,0,.112.028.892.892,0,0,1,.1.022,2.886,2.886,0,0,1,.732.255.462.462,0,0,1,.255.428.79.79,0,0,1-.22.525Z" transform="translate(-135.464 -119.747)" fill="#f1a1b4"/>
      <path id="Path_1290" data-name="Path 1290" d="M214.6,122.972a1.726,1.726,0,0,1-.164.49,2.212,2.212,0,0,1-.5.7,1.127,1.127,0,0,1-.816.323.936.936,0,0,1-.664-.249,1,1,0,0,1-.267-.763A2.368,2.368,0,0,1,213,121.74a1.15,1.15,0,0,1,.745-.3.7.7,0,0,1,.388.1.331.331,0,0,1,.158.295.566.566,0,0,1-.246.422,2.315,2.315,0,0,1-.636.36,3.916,3.916,0,0,1-.807.224,2.218,2.218,0,0,0-.074.559.831.831,0,0,0,.171.559.606.606,0,0,0,.487.2.981.981,0,0,0,.776-.342,3.224,3.224,0,0,0,.5-.769c.008-.016.023-.049.043-.1s.039-.071.056-.071S214.6,122.91,214.6,122.972Zm-.692-1.223a.492.492,0,0,0-.239-.056.768.768,0,0,0-.453.155,1.441,1.441,0,0,0-.363.372,1.3,1.3,0,0,0-.189.385,2.216,2.216,0,0,0,.6-.162,2.58,2.58,0,0,0,.531-.285q.214-.155.214-.255A.172.172,0,0,0,213.912,121.749Z" transform="translate(-140.552 -119.763)" fill="#f1a1b4"/>
      <path id="Path_1291" data-name="Path 1291" d="M222.226,122.633a.426.426,0,0,1-.18.037c-.05,0-.1-.059-.14-.177a1.659,1.659,0,0,1-.065-.537q.006-.7.022-1.695t.028-1.5a1.041,1.041,0,0,1,.065-.335.21.21,0,0,1,.208-.155.064.064,0,0,1,.065.053.875.875,0,0,1,.015.2s0,.018,0,.041,0,.063,0,.121q-.112,1.633-.112,3.185a1.127,1.127,0,0,0,.09.422c.06.149.09.228.09.236C222.307,122.575,222.28,122.608,222.226,122.633Z" transform="translate(-145.921 -118.002)" fill="#f1a1b4"/>
      <path id="Path_1292" data-name="Path 1292" d="M229.809,120.965a.51.51,0,0,0-.1.081,3.744,3.744,0,0,0-.6,1.049,8.189,8.189,0,0,0-.44,1.478q-.019.093-.062.372l-.031.217a.262.262,0,0,1-.084.155.352.352,0,0,1-.227.056,1.345,1.345,0,0,1-.211-.375q-.18-.375-.378-.81l-.267-.584q-.242-.527-.4-.825t-.236-.3a.045.045,0,0,0-.04.031c-.01.021-.022.031-.034.031a.065.065,0,0,1-.053-.028.093.093,0,0,1-.022-.059.409.409,0,0,1,.09-.211q.09-.131.177-.13a.147.147,0,0,1,.093.025.34.34,0,0,1,.056.056c.016.021.029.037.037.05a6.194,6.194,0,0,1,.515.981q.131.279.646,1.459l.143.329a3.514,3.514,0,0,1,.062-.522,8.484,8.484,0,0,1,.41-1.452,4.825,4.825,0,0,1,.64-1.2.979.979,0,0,1,.121-.14.179.179,0,0,1,.121-.04c.021,0,.054.032.1.1a.326.326,0,0,1,.068.127c0,.021-.028.05-.084.087Z" transform="translate(-148.577 -119.326)" fill="#f1a1b4"/>
      <path id="Path_1293" data-name="Path 1293" d="M239.79,122.972a1.727,1.727,0,0,1-.164.49,2.212,2.212,0,0,1-.5.7,1.127,1.127,0,0,1-.816.323.936.936,0,0,1-.664-.249,1,1,0,0,1-.267-.763,2.368,2.368,0,0,1,.807-1.735,1.15,1.15,0,0,1,.745-.3.7.7,0,0,1,.388.1.331.331,0,0,1,.158.295.566.566,0,0,1-.246.422,2.315,2.315,0,0,1-.636.36,3.915,3.915,0,0,1-.807.224,2.218,2.218,0,0,0-.074.559.831.831,0,0,0,.171.559.606.606,0,0,0,.487.2.981.981,0,0,0,.776-.342,3.224,3.224,0,0,0,.5-.769c.008-.016.023-.049.043-.1s.039-.071.056-.071S239.79,122.91,239.79,122.972Zm-.692-1.223a.492.492,0,0,0-.239-.056.768.768,0,0,0-.453.155,1.442,1.442,0,0,0-.363.372,1.3,1.3,0,0,0-.189.385,2.216,2.216,0,0,0,.6-.162,2.581,2.581,0,0,0,.531-.285q.214-.155.214-.255A.172.172,0,0,0,239.1,121.749Z" transform="translate(-154.57 -119.763)" fill="#f1a1b4"/>
      <path id="Path_1294" data-name="Path 1294" d="M248.648,124.1a1.566,1.566,0,0,1-.58.4,1.907,1.907,0,0,1-.751.152.87.87,0,0,1-.36-.05.151.151,0,0,1-.093-.136c0-.037.047-.1.142-.2s.159-.14.193-.14c.049,0,.074.01.074.031a.067.067,0,0,1-.031.05c-.021.016-.031.031-.031.043s.026.033.078.05a.629.629,0,0,0,.189.025,1.523,1.523,0,0,0,.524-.1,1.264,1.264,0,0,0,.432-.252.448.448,0,0,0,.168-.329.351.351,0,0,0-.106-.267.646.646,0,0,0-.264-.146q-.159-.046-.531-.133-.41-.093-.637-.165a1.113,1.113,0,0,1-.363-.18.337.337,0,0,1-.137-.276.715.715,0,0,1,.292-.546,2.249,2.249,0,0,1,.671-.391,1.809,1.809,0,0,1,.583-.143q.211,0,.211.124a.35.35,0,0,1-.05.165.161.161,0,0,1-.149.09.151.151,0,0,1-.081-.028.16.16,0,0,0-.087-.028,1.536,1.536,0,0,0-.391.081,1.556,1.556,0,0,0-.485.242.476.476,0,0,0-.217.391.235.235,0,0,0,.171.22,4.521,4.521,0,0,0,.636.177.752.752,0,0,0,.112.028.9.9,0,0,1,.1.022,2.886,2.886,0,0,1,.732.255.462.462,0,0,1,.255.428.79.79,0,0,1-.22.525Z" transform="translate(-159.681 -119.747)" fill="#f1a1b4"/>
      <path id="Path_1295" data-name="Path 1295" d="M264.829,120.978a.9.9,0,0,1-.326.087l-.639.112-.4.068q0,.323.009.677t.028.621a2.423,2.423,0,0,0,.087.552c.041.129.064.2.068.217a.144.144,0,0,1-.078.115.26.26,0,0,1-.146.053.091.091,0,0,1-.062-.022.171.171,0,0,1-.043-.071,1.444,1.444,0,0,1-.071-.323q-.034-.236-.053-.521-.019-.255-.028-.593c-.006-.225-.009-.444-.009-.655q-.348.056-.714.136a3.166,3.166,0,0,1-.391.068.245.245,0,0,1-.139-.043.135.135,0,0,1-.065-.118.1.1,0,0,1,.056-.105.5.5,0,0,1,.186-.025,1.585,1.585,0,0,0,.273-.034q.18-.034.23-.046.416-.081.565-.106,0-.13-.013-.341c-.008-.191-.012-.335-.012-.435a3.464,3.464,0,0,1,.015-.375.9.9,0,0,1,.059-.239.184.184,0,0,1,.186-.124.109.109,0,0,1,.074.019.1.1,0,0,1,.019.068,2.038,2.038,0,0,1-.031.217,2.915,2.915,0,0,0-.031.478q0,.229.013.515l.006.168q.279-.044,1.105-.23a.139.139,0,0,0,.084-.087c.022-.049.046-.074.071-.074a.2.2,0,0,1,.139.078.233.233,0,0,1,.071.158A.178.178,0,0,1,264.829,120.978Z" transform="translate(-168.189 -118.687)" fill="#f1a1b4"/>
      <path id="Path_1296" data-name="Path 1296" d="M274.132,124.024a1.643,1.643,0,0,1-.509.543,1.291,1.291,0,0,1-.751.227.768.768,0,0,1-.614-.23.841.841,0,0,1-.2-.571,3.176,3.176,0,0,1,.109-.739,3.048,3.048,0,0,1,.307-.788c.008-.016.042-.078.1-.183a.771.771,0,0,1,.2-.242.387.387,0,0,1,.236-.084.2.2,0,0,1,.1.028.082.082,0,0,1,.047.071.17.17,0,0,1-.034.059l-.053.071a2.941,2.941,0,0,0-.342.5,3.4,3.4,0,0,0-.27.627,2.262,2.262,0,0,0-.1.676q0,.49.6.491a.906.906,0,0,0,.518-.162,1.283,1.283,0,0,0,.382-.394.833.833,0,0,0,.142-.425.555.555,0,0,0-.142-.379,2.426,2.426,0,0,0-.391-.341,2.111,2.111,0,0,1-.236-.193.2.2,0,0,1-.075-.124c0-.05.035-.09.105-.121a.611.611,0,0,1,.249-.046.377.377,0,0,1,.105.009.034.034,0,0,1,.025.034.087.087,0,0,1-.022.04.083.083,0,0,0-.022.047c0,.012.042.054.124.124a2.837,2.837,0,0,1,.416.416.775.775,0,0,1,.168.5A1.172,1.172,0,0,1,274.132,124.024Z" transform="translate(-173.87 -120.051)" fill="#f1a1b4"/>
      <path id="Path_1297" data-name="Path 1297" d="M283.164,118.111q0,.125-.012.488t-.013.729q0,.708.031,1.443t.049.966a.544.544,0,0,0,.007.081c0,.029.008.056.012.081.017.116.025.186.025.211,0,.041-.03.081-.09.118a.3.3,0,0,1-.14.056.087.087,0,0,1-.09-.053.4.4,0,0,1-.022-.146q0-.341.019-.714l.007-.348c0-.116,0-.268-.007-.456s-.01-.346-.019-.475a7.8,7.8,0,0,1-.717,1.685q-.4.667-.866.667a.432.432,0,0,1-.357-.2.956.956,0,0,1-.146-.571,2.171,2.171,0,0,1,.332-1.068,4.577,4.577,0,0,1,.757-.993q.425-.416.63-.416c.133,0,.2.044.2.13a.453.453,0,0,1-.059.2,1.362,1.362,0,0,1-.13.208c-.048.062-.075.093-.084.093a.056.056,0,0,1-.028-.009.026.026,0,0,1-.016-.022.329.329,0,0,1,.031-.106.335.335,0,0,0,.031-.1.106.106,0,0,0-.006-.044c0-.008-.016-.012-.037-.012q-.131,0-.469.357a4.015,4.015,0,0,0-.605.847,1.925,1.925,0,0,0-.267.912.637.637,0,0,0,.062.279.211.211,0,0,0,.2.13q.453,0,.841-.766a10.245,10.245,0,0,0,.673-1.741l-.013-.522q-.018-.689-.019-.732a3.177,3.177,0,0,1,.031-.534.3.3,0,0,1,.028-.087.072.072,0,0,1,.065-.025.228.228,0,0,1,.124.04.124.124,0,0,1,.062.109S283.164,118.111,283.164,118.111Z" transform="translate(-178.755 -117.658)" fill="#f1a1b4"/>
      <path id="Path_1298" data-name="Path 1298" d="M292.988,124.186a.128.128,0,0,1,.043.077.327.327,0,0,1-.062.171c-.042.064-.083.1-.124.1a.178.178,0,0,1-.161-.13.765.765,0,0,1-.056-.3q0-.149.019-.894l.007-.236a.253.253,0,0,0-.075-.2q-.279.472-.521.819a3.3,3.3,0,0,1-.615.655,1.213,1.213,0,0,1-.782.307.387.387,0,0,1-.307-.124.472.472,0,0,1-.109-.323,1.619,1.619,0,0,1,.224-.68,5.619,5.619,0,0,1,.571-.875,4.664,4.664,0,0,1,.7-.73,2.068,2.068,0,0,1,.366-.252.575.575,0,0,1,.242-.065.406.406,0,0,1,.2.062.56.56,0,0,1,.18.174.447.447,0,0,1,.074.255.691.691,0,0,1-.106.366l.106-.031q.068,0,.081.168c0,.066.01.2.016.4s.011.37.016.5.008.269.013.4.008.23.012.3a.174.174,0,0,0,.05.09Zm-1.6-.227a2.932,2.932,0,0,0,.556-.593q.245-.344.543-.847a1.071,1.071,0,0,0,.074-.4.352.352,0,0,0-.078-.227.254.254,0,0,0-.208-.1.689.689,0,0,0-.4.211,4.338,4.338,0,0,0-.59.63,5.273,5.273,0,0,0-.515.779,1.422,1.422,0,0,0-.2.608c0,.124.058.186.174.186a1.021,1.021,0,0,0,.646-.249Z" transform="translate(-183.991 -119.794)" fill="#f1a1b4"/>
      <path id="Path_1299" data-name="Path 1299" d="M302.53,122.424q-.075.546-.081.615-.081.763-.115,1.164t-.034.723a1.752,1.752,0,0,0,.04.422,1.213,1.213,0,0,0,.087.245.412.412,0,0,1,.047.109c0,.037-.033.07-.1.1a.5.5,0,0,1-.2.043q-.081,0-.127-.217a3.578,3.578,0,0,1-.046-.677,8.61,8.61,0,0,1,.068-.938l.093-.857a3.427,3.427,0,0,1-.413.618.678.678,0,0,1-.506.295q-.242,0-.435-.422a5.376,5.376,0,0,1-.41-1.739c0-.1.031-.155.093-.155q.136,0,.174.255.236,1.726.658,1.726a.4.4,0,0,0,.295-.133,2.623,2.623,0,0,0,.3-.413,2.733,2.733,0,0,0,.174-.348q.093-.218.143-.36l.043-.627a.738.738,0,0,1,.037-.2.1.1,0,0,1,.1-.059.171.171,0,0,1,.124.071.217.217,0,0,1,.062.14A5.85,5.85,0,0,1,302.53,122.424Z" transform="translate(-189.641 -119.848)" fill="#f1a1b4"/>
      <path id="Path_1300" data-name="Path 1300" d="M310.174,127.555a.268.268,0,0,1-.214-.134,1.178,1.178,0,0,1-.155-.3.859.859,0,0,1-.059-.214.18.18,0,0,1,.065-.13.193.193,0,0,1,.133-.062.08.08,0,0,1,.068.034c.016.023.041.061.075.115a.458.458,0,0,0,.106.143.458.458,0,0,1,.133.23.967.967,0,0,1,.053.223Q310.379,127.555,310.174,127.555Z" transform="translate(-194.846 -122.7)" fill="#f1a1b4"/>
    </g>
  </g>
</svg>
