<svg xmlns="http://www.w3.org/2000/svg" width="33.402" height="46.114" viewBox="0 0 33.402 46.114">
  <g id="maps-and-flags" transform="translate(-70.573 0)">
    <g id="map" transform="translate(78.871 8.298)">
      <path id="Path_1359" data-name="Path 1359" d="M87.274,0a16.72,16.72,0,0,0-16.7,16.7c0,11.428,14.946,28.206,15.582,28.915a1.5,1.5,0,0,0,2.238,0c.636-.709,15.582-17.486,15.582-28.915A16.72,16.72,0,0,0,87.274,0Zm0,42.307C82.244,36.332,73.581,24.544,73.581,16.7a13.693,13.693,0,1,1,27.387,0C100.967,24.545,92.305,36.33,87.274,42.307Z" transform="translate(-78.871 -8.298)" fill="#f3a6b8"/>
      <path id="Path_1360" data-name="Path 1360" d="M171.111,92.134a8.4,8.4,0,1,0,8.4,8.4A8.412,8.412,0,0,0,171.111,92.134Zm0,13.8a5.4,5.4,0,1,1,5.4-5.4A5.4,5.4,0,0,1,171.111,105.932Z" transform="translate(-162.708 -92.134)" fill="#f3a6b8"/>
    </g>
  </g>
</svg>
