<svg xmlns="http://www.w3.org/2000/svg" width="51.567" height="71.193" viewBox="0 0 51.567 71.193">
  <g id="maps-and-flags_active" transform="translate(-70.573 0)">
    <g id="map" transform="translate(70.573 0)">
      <path id="Path_1359" data-name="Path 1359" d="M96.356,0A25.812,25.812,0,0,0,70.573,25.783c0,17.644,23.074,43.545,24.056,44.639a2.322,2.322,0,0,0,3.455,0c.982-1.094,24.056-27,24.056-44.639A25.813,25.813,0,0,0,96.356,0Zm0,65.315c-7.765-9.224-21.14-27.423-21.14-39.532a21.14,21.14,0,1,1,42.28,0C117.5,37.893,104.124,56.088,96.356,65.315Z" transform="translate(-70.573)" fill="#fffcfd"/>
      <path id="Path_1360" data-name="Path 1360" d="M175.68,92.134a12.972,12.972,0,1,0,12.972,12.972A12.987,12.987,0,0,0,175.68,92.134Zm0,21.3a8.329,8.329,0,1,1,8.329-8.329A8.338,8.338,0,0,1,175.68,113.435Z" transform="translate(-149.897 -79.323)" fill="#fffcfd"/>
    </g>
  </g>
</svg>
