<svg xmlns="http://www.w3.org/2000/svg" width="43.811" height="46.731" viewBox="0 0 43.811 46.731">
  <g id="_04-Evaluation" data-name="04-Evaluation" transform="translate(-4)">
    <path id="パス_1516" data-name="パス 1516" d="M13.492,60.222a.73.73,0,0,1-.516-.214L4.214,51.246A.73.73,0,0,1,4.73,50h8.762a.73.73,0,0,1,.73.73v8.762A.73.73,0,0,1,13.492,60.222Zm-7-8.762,6.269,6.269V51.46Z" transform="translate(0 -13.491)" fill="#f3aabb"/>
    <path id="パス_1517" data-name="パス 1517" d="M40.509,46.731H13.492a.73.73,0,0,1-.516-.214L4.214,37.755A.73.73,0,0,1,4,37.239V.73A.73.73,0,0,1,4.73,0H41.239a.73.73,0,0,1,.73.73V33.588h-1.46V1.46H5.46V36.937l8.334,8.334H40.509Z" transform="translate(0 0)" fill="#f3aabb"/>
    <path id="パス_1518" data-name="パス 1518" d="M54.762,59.143a.73.73,0,0,1-.516-.214L46.214,50.9a.73.73,0,0,1,0-1.032l3.651-3.651a.73.73,0,0,1,1.032,0l8.032,8.032a.73.73,0,0,1,0,1.032l-3.651,3.651A.73.73,0,0,1,54.762,59.143Zm-7-8.762,7,7,2.618-2.618-7-7Z" transform="translate(-11.333 -12.412)" fill="#f3aabb"/>
    <path id="パス_1519" data-name="パス 1519" d="M0,0H1.46V6.2H0Z" transform="translate(31.954 33.374) rotate(-45)" fill="#f3aabb"/>
    <path id="パス_1520" data-name="パス 1520" d="M0,0H1.46V6.2H0Z" transform="translate(33.414 31.914) rotate(-45)" fill="#f3aabb"/>
    <path id="パス_1521" data-name="パス 1521" d="M0,0H5.163V1.46H0Z" transform="translate(37.064 39.644) rotate(-45)" fill="#f3aabb"/>
    <path id="パス_1522" data-name="パス 1522" d="M24.334,39.667A15.334,15.334,0,1,1,39.667,24.334,15.334,15.334,0,0,1,24.334,39.667Zm0-29.207A13.873,13.873,0,1,0,38.207,24.334,13.873,13.873,0,0,0,24.334,10.46Z" transform="translate(-1.349 -2.428)" fill="#f3aabb"/>
    <path id="パス_1523" data-name="パス 1523" d="M25.683,37.366A11.683,11.683,0,1,1,37.366,25.683,11.683,11.683,0,0,1,25.683,37.366Zm0-21.905A10.222,10.222,0,1,0,35.905,25.683,10.222,10.222,0,0,0,25.683,15.46Z" transform="translate(-2.698 -3.778)" fill="#f3aabb"/>
    <path id="パス_1524" data-name="パス 1524" d="M14.572,9.841H8.73A.73.73,0,0,1,8,9.111V4.73A.73.73,0,0,1,8.73,4h5.841a.73.73,0,0,1,.73.73V9.111A.73.73,0,0,1,14.572,9.841ZM9.46,8.381h4.381V5.46H9.46Z" transform="translate(-1.079 -1.079)" fill="#f3aabb"/>
    <path id="パス_1525" data-name="パス 1525" d="M9.46,19.841H8.73a.73.73,0,0,1-.73-.73V14.73A.73.73,0,0,1,8.73,14h2.921v1.46H9.46Z" transform="translate(-1.079 -3.778)" fill="#f3aabb"/>
    <path id="パス_1526" data-name="パス 1526" d="M20,4h1.46V5.46H20Z" transform="translate(-4.317 -1.079)" fill="#f3aabb"/>
    <path id="パス_1527" data-name="パス 1527" d="M24,4H43.715V5.46H24Z" transform="translate(-5.396 -1.079)" fill="#f3aabb"/>
    <path id="パス_1528" data-name="パス 1528" d="M20,58h1.46v1.46H20Z" transform="translate(-4.317 -15.65)" fill="#f3aabb"/>
    <path id="パス_1529" data-name="パス 1529" d="M24,58H37.143v1.46H24Z" transform="translate(-5.396 -15.65)" fill="#f3aabb"/>
    <path id="パス_1530" data-name="パス 1530" d="M20,54H33.143v1.46H20Z" transform="translate(-4.317 -14.57)" fill="#f3aabb"/>
    <path id="パス_1531" data-name="パス 1531" d="M25.381,33.683a.73.73,0,0,1-.516-.214l-3.651-3.651a.73.73,0,0,1,0-1.032L23.4,26.6a.73.73,0,0,1,1.032,0l.944.944,5.325-5.325a.73.73,0,0,1,1.032,0L33.929,24.4a.73.73,0,0,1,0,1.032L25.9,33.469A.73.73,0,0,1,25.381,33.683ZM22.763,29.3l2.618,2.618,7-7-1.158-1.158L25.9,29.088a.73.73,0,0,1-1.032,0l-.944-.944Z" transform="translate(-4.587 -5.936)" fill="#f3aabb"/>
  </g>
</svg>
