<svg xmlns="http://www.w3.org/2000/svg" width="72" height="76.8" viewBox="0 0 72 76.8">
  <g id="_04-Evaluation" data-name="04-Evaluation" transform="translate(-4)">
    <path id="パス_1516" data-name="パス 1516" d="M19.6,66.8a1.2,1.2,0,0,1-.848-.351l-14.4-14.4A1.2,1.2,0,0,1,5.2,50H19.6a1.2,1.2,0,0,1,1.2,1.2V65.6A1.2,1.2,0,0,1,19.6,66.8ZM8.1,52.4,18.4,62.7V52.4Z" transform="translate(0 10)" fill="#fffcfd"/>
    <path id="パス_1517" data-name="パス 1517" d="M64,76.8H19.6a1.2,1.2,0,0,1-.848-.351l-14.4-14.4A1.2,1.2,0,0,1,4,61.2V1.2A1.2,1.2,0,0,1,5.2,0h60a1.2,1.2,0,0,1,1.2,1.2v54H64V2.4H6.4V60.7L20.1,74.4H64Z" fill="#fffcfd"/>
    <path id="パス_1518" data-name="パス 1518" d="M60.4,67.6a1.2,1.2,0,0,1-.848-.351l-13.2-13.2a1.2,1.2,0,0,1,0-1.7l6-6a1.2,1.2,0,0,1,1.7,0l13.2,13.2a1.2,1.2,0,0,1,0,1.7l-6,6A1.2,1.2,0,0,1,60.4,67.6ZM48.9,53.2,60.4,64.7l4.3-4.3L53.2,48.9Z" transform="translate(8.4 9.2)" fill="#fffcfd"/>
    <path id="パス_1519" data-name="パス 1519" d="M0,0H2.4V10.182H0Z" transform="translate(49.94 54.849) rotate(-45)" fill="#fffcfd"/>
    <path id="パス_1520" data-name="パス 1520" d="M0,0H2.4V10.182H0Z" transform="translate(52.34 52.449) rotate(-45)" fill="#fffcfd"/>
    <path id="パス_1521" data-name="パス 1521" d="M0,0H8.485V2.4H0Z" transform="translate(58.338 65.152) rotate(-45)" fill="#fffcfd"/>
    <path id="パス_1522" data-name="パス 1522" d="M34.2,59.4A25.2,25.2,0,1,1,59.4,34.2,25.2,25.2,0,0,1,34.2,59.4Zm0-48A22.8,22.8,0,1,0,57,34.2,22.8,22.8,0,0,0,34.2,11.4Z" transform="translate(1 1.8)" fill="#fffcfd"/>
    <path id="パス_1523" data-name="パス 1523" d="M33.2,52.4A19.2,19.2,0,1,1,52.4,33.2,19.2,19.2,0,0,1,33.2,52.4Zm0-36A16.8,16.8,0,1,0,50,33.2,16.8,16.8,0,0,0,33.2,16.4Z" transform="translate(2 2.8)" fill="#fffcfd"/>
    <path id="パス_1524" data-name="パス 1524" d="M18.8,13.6H9.2A1.2,1.2,0,0,1,8,12.4V5.2A1.2,1.2,0,0,1,9.2,4h9.6A1.2,1.2,0,0,1,20,5.2v7.2A1.2,1.2,0,0,1,18.8,13.6Zm-8.4-2.4h7.2V6.4H10.4Z" transform="translate(0.8 0.8)" fill="#fffcfd"/>
    <path id="パス_1525" data-name="パス 1525" d="M10.4,23.6H9.2A1.2,1.2,0,0,1,8,22.4V15.2A1.2,1.2,0,0,1,9.2,14H14v2.4H10.4Z" transform="translate(0.8 2.8)" fill="#fffcfd"/>
    <path id="パス_1526" data-name="パス 1526" d="M20,4h2.4V6.4H20Z" transform="translate(3.2 0.8)" fill="#fffcfd"/>
    <path id="パス_1527" data-name="パス 1527" d="M24,4H56.4V6.4H24Z" transform="translate(4 0.8)" fill="#fffcfd"/>
    <path id="パス_1528" data-name="パス 1528" d="M20,58h2.4v2.4H20Z" transform="translate(3.2 11.6)" fill="#fffcfd"/>
    <path id="パス_1529" data-name="パス 1529" d="M24,58H45.6v2.4H24Z" transform="translate(4 11.6)" fill="#fffcfd"/>
    <path id="パス_1530" data-name="パス 1530" d="M20,54H41.6v2.4H20Z" transform="translate(3.2 10.8)" fill="#fffcfd"/>
    <path id="パス_1531" data-name="パス 1531" d="M28.2,41.2a1.2,1.2,0,0,1-.848-.351l-6-6a1.2,1.2,0,0,1,0-1.7l3.6-3.6a1.2,1.2,0,0,1,1.7,0L28.2,31.1l8.752-8.752a1.2,1.2,0,0,1,1.7,0l3.6,3.6a1.2,1.2,0,0,1,0,1.7l-13.2,13.2A1.2,1.2,0,0,1,28.2,41.2ZM23.9,34l4.3,4.3L39.7,26.8l-1.9-1.9-8.752,8.752a1.2,1.2,0,0,1-1.7,0L25.8,32.1Z" transform="translate(3.4 4.4)" fill="#fffcfd"/>
  </g>
</svg>
