<svg xmlns="http://www.w3.org/2000/svg" width="77.049" height="67.384" viewBox="0 0 77.049 67.384">
  <g id="presentation_active" transform="translate(0.001 0)">
    <path id="Path_1330" data-name="Path 1330" d="M69.956,0H36.106a7.1,7.1,0,0,0-7.093,7.093V28.807l-6.285-3.126c-.212-.106-.428-.206-.645-.3a10.719,10.719,0,1,0-14.789.655A14.286,14.286,0,0,0,0,38.524v7.253A7.1,7.1,0,0,0,4.835,52.5V65.12a2.258,2.258,0,0,0,2.257,2.257H21.6a2.257,2.257,0,0,0,2.257-2.257V39.758l7.227,3.613A6.193,6.193,0,0,0,39.3,40.782H47.39L38.82,64.349a2.257,2.257,0,0,0,4.243,1.543l9.131-25.11h1.582L63,65.9a2.257,2.257,0,0,0,4.238-1.557L58.586,40.782h11.37a7.093,7.093,0,0,0,7.093-7.093V7.093A7.092,7.092,0,0,0,69.956,0ZM8.141,17.973a6.2,6.2,0,1,1,6.2,6.2A6.212,6.212,0,0,1,8.141,17.973Zm27.3,20.395c-.006.016-.012.034-.017.051a1.669,1.669,0,0,1-2.32.915c-4.292-2.147-10.495-5.246-10.495-5.246a2.258,2.258,0,0,0-3.266,2.019V62.863H9.349V50.613a2.258,2.258,0,0,0-2.257-2.257,2.581,2.581,0,0,1-2.578-2.578V38.524a9.834,9.834,0,0,1,9.832-9.832H16.34a9.836,9.836,0,0,1,4.375,1.029s11.2,5.568,14.048,6.988a1.354,1.354,0,0,1,.676,1.658Zm37.095-4.679a2.56,2.56,0,0,1-.754,1.823,2.6,2.6,0,0,1-1.824.755H39.788c0-.012-.007-.025-.011-.036l5.6-11.2a2.257,2.257,0,1,0-4.038-2.019l-4.778,9.555-3.035-1.511V7.093a2.581,2.581,0,0,1,2.578-2.578h33.85a2.594,2.594,0,0,1,1.825.756,2.558,2.558,0,0,1,.754,1.822Zm0,0" transform="translate(0)" fill="#fffcfd"/>
    <path id="Path_1331" data-name="Path 1331" d="M283.5,64.266H259.323a2.257,2.257,0,0,0,0,4.515H283.5a2.257,2.257,0,0,0,0-4.515Zm0,0" transform="translate(-218.382 -54.595)" fill="#fffcfd"/>
    <path id="Path_1332" data-name="Path 1332" d="M351.745,120.5H339.655a2.257,2.257,0,1,0,0,4.515h12.089a2.257,2.257,0,1,0,0-4.515Zm0,0" transform="translate(-286.625 -102.367)" fill="#fffcfd"/>
    <path id="Path_1333" data-name="Path 1333" d="M351.745,176.734H339.655a2.257,2.257,0,1,0,0,4.515h12.089a2.257,2.257,0,1,0,0-4.515Zm0,0" transform="translate(-286.625 -150.138)" fill="#fffcfd"/>
  </g>
</svg>
