<svg xmlns="http://www.w3.org/2000/svg" width="43" height="37.606" viewBox="0 0 43 37.606">
  <g id="presentation" transform="translate(0.001 0)">
    <path id="Path_1330" data-name="Path 1330" d="M39.041,0H20.15a3.963,3.963,0,0,0-3.958,3.958V16.076l-3.508-1.744c-.118-.059-.239-.115-.36-.168a5.982,5.982,0,1,0-8.253.366A7.973,7.973,0,0,0,0,21.5v4.048A3.965,3.965,0,0,0,2.7,29.3v7.042a1.26,1.26,0,0,0,1.26,1.26h8.1a1.26,1.26,0,0,0,1.26-1.26V22.188L17.347,24.2a3.456,3.456,0,0,0,4.584-1.445h4.517L21.665,35.912a1.26,1.26,0,0,0,2.368.861l5.1-14.013h.883l5.148,14.017a1.26,1.26,0,0,0,2.365-.869L32.7,22.759h6.345A3.958,3.958,0,0,0,43,18.8V3.958A3.958,3.958,0,0,0,39.041,0ZM4.543,10.03a3.463,3.463,0,1,1,3.463,3.463A3.467,3.467,0,0,1,4.543,10.03ZM19.777,21.412l-.01.028a.931.931,0,0,1-1.295.51l-5.857-2.928a1.26,1.26,0,0,0-1.823,1.127V35.083H5.217V28.246a1.26,1.26,0,0,0-1.26-1.26,1.44,1.44,0,0,1-1.439-1.439V21.5a5.488,5.488,0,0,1,5.487-5.487H9.119a5.489,5.489,0,0,1,2.441.574l7.84,3.9a.755.755,0,0,1,.377.925Zm20.7-2.611a1.429,1.429,0,0,1-.421,1.018,1.448,1.448,0,0,1-1.018.421H22.2l-.006-.02,3.126-6.253a1.26,1.26,0,1,0-2.253-1.127L20.4,18.173l-1.694-.843V3.958A1.44,1.44,0,0,1,20.15,2.519H39.041a1.447,1.447,0,0,1,1.018.422,1.427,1.427,0,0,1,.421,1.017Zm0,0" fill="#f4b2c1"/>
    <path id="Path_1331" data-name="Path 1331" d="M271.819,64.266H258.326a1.26,1.26,0,0,0,0,2.52h13.494a1.26,1.26,0,0,0,0-2.52Zm0,0" transform="translate(-235.477 -58.869)" fill="#f4b2c1"/>
    <path id="Path_1332" data-name="Path 1332" d="M345.4,120.5h-6.747a1.26,1.26,0,0,0,0,2.52H345.4a1.26,1.26,0,1,0,0-2.52Zm0,0" transform="translate(-309.063 -110.38)" fill="#f4b2c1"/>
    <path id="Path_1333" data-name="Path 1333" d="M345.4,176.734h-6.747a1.26,1.26,0,0,0,0,2.52H345.4a1.26,1.26,0,1,0,0-2.52Zm0,0" transform="translate(-309.063 -161.891)" fill="#f4b2c1"/>
  </g>
</svg>
