<svg id="XMLID_1348_" xmlns="http://www.w3.org/2000/svg" width="30.092" height="30.092" viewBox="0 0 30.092 30.092">
  <path id="XMLID_1353_" d="M34.676,14.327a14.456,14.456,0,0,0-21.851,18.81l-1.113,4.153,4.153-1.113a14.456,14.456,0,0,0,18.81-21.851Z" transform="translate(-9.412 -9.5)" fill="#fff1a0"/>
  <g id="XMLID_1349_" transform="translate(9.84 5.98)">
    <g id="XMLID_1351_">
      <path id="XMLID_1352_" d="M168.738,107.048a1.26,1.26,0,0,1-1.219-1.64,5.3,5.3,0,1,1,7.423,6.393,2,2,0,0,0-1.119,1.787,1.26,1.26,0,0,1-1.26,1.26h0a1.26,1.26,0,0,1-1.26-1.26,4.511,4.511,0,0,1,2.509-4.042,2.788,2.788,0,0,0,1.528-2.616,2.9,2.9,0,0,0-2.642-2.642,2.784,2.784,0,0,0-2.764,1.879A1.277,1.277,0,0,1,168.738,107.048Z" transform="translate(-167.458 -101.76)" fill="#ff7d95"/>
    </g>
    <circle id="XMLID_1350_" cx="1.263" cy="1.263" r="1.263" transform="translate(3.841 15.613)" fill="#ff7d95"/>
  </g>
  <g id="XMLID_1737_" transform="translate(24.677 4.239)">
    <g id="XMLID_1738_">
      <path id="XMLID_919_" d="M420.537,73.318a.588.588,0,1,1,.416-.172A.592.592,0,0,1,420.537,73.318Z" transform="translate(-419.949 -72.143)"/>
    </g>
  </g>
  <g id="XMLID_1551_">
    <path id="XMLID_918_" d="M15.044,30.092a15.034,15.034,0,0,1-8.71-2.774l-3.883,1.04a.588.588,0,0,1-.72-.72l1.04-3.883A15.046,15.046,0,0,1,23.566,2.651a.588.588,0,0,1-.667.968A13.87,13.87,0,0,0,3.885,23.288a.588.588,0,0,1,.1.5l-.849,3.17,3.17-.849a.588.588,0,0,1,.5.1A13.87,13.87,0,0,0,26.473,7.192a.588.588,0,1,1,.968-.667A15.045,15.045,0,0,1,16.1,30.055q-.527.037-1.054.037Z" transform="translate(0.001 0)"/>
  </g>
  <g id="XMLID_1295_" transform="translate(9.252 5.392)">
    <g id="XMLID_2108_">
      <g id="XMLID_2110_">
        <path id="XMLID_915_" d="M163.136,106.024a1.851,1.851,0,0,1-1.853-1.848,5.1,5.1,0,0,1,2.832-4.567,2.2,2.2,0,0,0,1.205-2.064,2.319,2.319,0,0,0-2.082-2.082,2.2,2.2,0,0,0-2.181,1.481,1.869,1.869,0,0,1-1.742,1.279H159.3a1.863,1.863,0,0,1-1.5-.76,1.81,1.81,0,0,1-.266-1.65,5.892,5.892,0,1,1,8.246,7.1,1.415,1.415,0,0,0-.8,1.262A1.85,1.85,0,0,1,163.136,106.024Zm0-11.738q.081,0,.162,0a3.472,3.472,0,0,1,3.2,3.2,3.376,3.376,0,0,1-1.851,3.168,3.926,3.926,0,0,0-2.185,3.517.675.675,0,0,0,1.35,0,2.584,2.584,0,0,1,1.442-2.312,4.727,4.727,0,0,0,2.593-4.436,4.718,4.718,0,0,0-9.193-1.251.648.648,0,0,0,.1.59.676.676,0,0,0,.55.28s0,0,.007,0a.693.693,0,0,0,.641-.481,3.374,3.374,0,0,1,.864-1.35A3.336,3.336,0,0,1,163.132,94.286Z" transform="translate(-157.441 -91.761)"/>
      </g>
    </g>
    <g id="XMLID_2161_" transform="translate(3.842 15.613)">
      <path id="XMLID_912_" d="M224.671,361.157a1.85,1.85,0,1,1,1.85-1.85A1.852,1.852,0,0,1,224.671,361.157Zm0-2.525a.675.675,0,1,0,.675.675A.676.676,0,0,0,224.671,358.632Z" transform="translate(-222.821 -357.457)"/>
    </g>
  </g>
</svg>
