<svg xmlns="http://www.w3.org/2000/svg" width="47.68" height="50.055" viewBox="0 0 47.68 50.055">
  <g id="run" transform="translate(-496 -616.944)">
    <g id="rush" transform="translate(505.002 624.5)">
      <path id="Path_1462" data-name="Path 1462" d="M31.353,81.6a2.411,2.411,0,0,0,2.857-.837l4.019-5.626a2.411,2.411,0,0,0-3.924-2.8l-2.918,4.086-2.2-.852a5.438,5.438,0,0,1-8.1-3.13l-2.45-.947a2.411,2.411,0,0,0-1.532-.07l-5.613,1.6a2.407,2.407,0,0,0-1.6,1.494A2.646,2.646,0,0,0,7.5,75.84l-.944,1.636-.327-.189a2.644,2.644,0,0,0-3.612.968L.353,82.18a2.644,2.644,0,0,0,.968,3.612l6.543,3.777a2.644,2.644,0,0,0,3.612-.968l2.266-3.925a2.644,2.644,0,0,0-.968-3.612l-.327-.189.944-1.636a2.633,2.633,0,0,0,.3-1.827l3.985-1.139,2.866,1.075L15.241,93.829h-7.1A2.411,2.411,0,0,0,5.727,96.24h0a2.411,2.411,0,0,0,2.411,2.411h8.841A2.411,2.411,0,0,0,19.265,97l2.287-6.86,6.179,3.6,2.178,8.711a2.411,2.411,0,0,0,4.678-1.17l-2.411-9.644a2.411,2.411,0,0,0-1.045-1.449l-5.894-3.751,2.07-6.454Zm-19.925-3.5-.944,1.636L8.521,78.609l.944-1.636a.378.378,0,0,1,.516-.138s1.075.672,1.322.765A.377.377,0,0,1,11.428,78.106Z" transform="translate(0 -61.778)" fill="#ffccd5"/>
      <path id="Path_1463" data-name="Path 1463" d="M308.461,12.15a3.175,3.175,0,0,0,4.069-1.9l.543-1.492a3.175,3.175,0,1,0-5.967-2.172l-.543,1.492A3.175,3.175,0,0,0,308.461,12.15Z" transform="translate(-283.228 0)" fill="#ffccd5"/>
    </g>
    <g id="XMLID_481_" transform="translate(245 191.594)">
      <g id="XMLID_507_" transform="translate(251 411.944)">
        <path id="XMLID_508_" d="M13.1,13.406A5.9,5.9,0,0,0,9.3,14.831a5.9,5.9,0,0,0-3.806-1.425A5.435,5.435,0,0,0,0,18.9c0,3.723,2.592,6,6.516,9.444q.5.442,1.038.913l.007.006,1.185,1.023a.846.846,0,0,0,1.106,0l1.184-1.023.007-.006a49.979,49.979,0,0,0,5.376-5.21A8.033,8.033,0,0,0,18.6,18.9,5.434,5.434,0,0,0,13.1,13.406ZM9.927,27.986l-.628.543-.628-.543q-.535-.473-1.039-.914c-3.7-3.252-5.941-5.215-5.941-8.173a3.719,3.719,0,0,1,3.8-3.8,4.25,4.25,0,0,1,3.16,1.475.845.845,0,0,0,1.291,0A4.248,4.248,0,0,1,13.1,15.1a3.718,3.718,0,0,1,3.8,3.8C16.906,21.677,14.384,24.044,9.927,27.986Z" fill="#ffccd5"/>
        <path id="XMLID_511_" d="M109.473,94.964h-2.255v2.255h-2.255v2.255h2.255v2.255h2.255V99.473h2.255V97.219h-2.255Z" transform="translate(-99.048 -76.961)" fill="#ffccd5"/>
      </g>
    </g>
  </g>
</svg>
