<svg id="search" xmlns="http://www.w3.org/2000/svg" width="32.141" height="32" viewBox="0 0 32.141 32">
  <path id="Path_1056" data-name="Path 1056" d="M11.734,27.468A11.733,11.733,0,0,1,3.447,7.428a11.754,11.754,0,0,1,16.593,0,11.743,11.743,0,0,1-8.306,20.04Zm0-2.637a9.107,9.107,0,1,1,6.441-2.656A9.06,9.06,0,0,1,11.734,24.831Z" transform="translate(0 -4)" fill="#f4a4b2" fill-rule="evenodd"/>
  <path id="Path_1057" data-name="Path 1057" d="M1044.938,1043.1a.584.584,0,0,1-.414-.17l-2.524-2.524a10.909,10.909,0,0,0,1.205-1.073,11.206,11.206,0,0,0,1.168-1.337l2.543,2.543a.568.568,0,0,1,0,.81.608.608,0,0,1-.4.151.525.525,0,0,1-.339-.113l-.734.9a.585.585,0,0,1-.113.64A.574.574,0,0,1,1044.938,1043.1Z" transform="translate(-1022.374 -1018.525)" fill="#f4a4b2" fill-rule="evenodd"/>
  <path id="Path_1058" data-name="Path 1058" d="M1174.722,1173.171a2.363,2.363,0,0,1-1.714-.716l-5.311-5.293a2.479,2.479,0,0,1,0-3.447,2.455,2.455,0,0,1,3.465,0l5.292,5.293a2.456,2.456,0,0,1,0,3.447A2.4,2.4,0,0,1,1174.722,1173.171Z" transform="translate(-1145.02 -1141.171)" fill="#f4a4b2" fill-rule="evenodd"/>
  <path id="Path_1059" data-name="Path 1059" d="M279.467,381.589a5.388,5.388,0,0,1,0-7.628.581.581,0,0,0,0-.791.568.568,0,0,0-.81,0,6.514,6.514,0,0,0,0,9.21.575.575,0,0,0,.4.17.565.565,0,0,0,.414-.961Z" transform="translate(-271.538 -366.05)" fill="#f4a4b2" fill-rule="evenodd"/>
</svg>
