<svg xmlns="http://www.w3.org/2000/svg" width="32" height="29.499" viewBox="0 0 32 29.499">
  <g id="Group_954" data-name="Group 954" transform="translate(-1183 -128.501)">
    <g id="icon-star" transform="translate(994.662 118.928)">
      <path id="_ス_1407" d="M27.037,4a.4.4,0,0,0-.057-.113C26.924,4.053,27.037,4,27.037,4Z" transform="translate(173.924 7.497)" fill="#f2a5ba"/>
      <path id="_ス_1408" d="M26.117,7.7l-.028.254.028-.226V7.7Z" transform="translate(174.392 5.454)" fill="#f2a5ba"/>
      <path id="_ス_1409" d="M25.191,9.213h.028s.145,0,.17-.057h0l-.113-.226h0l.057-.254a.58.58,0,0,0-.254.057h0l.113.226a7.973,7.973,0,0,1-.254.847c.113-.084.17-.367.226-.593h.028Zm.113-.254-.057.2Z" transform="translate(175.008 4.935)" fill="#f2a5ba"/>
      <path id="_ス_1410" d="M23.9,12.317h0a.4.4,0,0,1-.057.2c.057-.028,0,.2.084-.2Z" transform="translate(175.592 2.989)" fill="#f2a5ba"/>
      <path id="_ス_1412" d="M23.3,13.755v-.226s-.084.226-.084.145c-.057.226,0,.2.084.084h0v0Z" transform="translate(175.942 2.341)" fill="#f2a5ba"/>
      <path id="_ス_1414" d="M23.536,13.708l-.057.254s.057,0,0-.113V13.7h0Z" transform="translate(175.787 2.248)" fill="#f2a5ba"/>
      <path id="_ス_1415" d="M23.6,14.281l.028-.084.059-.425-.084.509h0Z" transform="translate(175.722 2.211)" fill="#f2a5ba"/>
      <path id="_ス_1417" d="M20.349,17.588s-.145-.084-.028-.113a2.424,2.424,0,0,0-.48.084h.509v.029Z" transform="translate(177.732 0.232)" fill="#f2a5ba"/>
      <path id="_ス_1418" d="M19.353,17.77a1.985,1.985,0,0,0,.226-.057A.3.3,0,0,0,19.353,17.77Z" transform="translate(177.993 0.106)" fill="#f2a5ba"/>
      <path id="_ス_1424" d="M19.932,17.924s-.254.028-.4.028h.478s.084-.057-.084-.057h0Z" transform="translate(177.895 0.007)" fill="#f2a5ba"/>
      <path id="_ス_1428" d="M18.443,17.889a.636.636,0,0,1,.2.028C18.584,17.916,18.443,17.86,18.443,17.889Z" transform="translate(178.479 0.015)" fill="#f2a5ba"/>
      <path id="_ス_1430" d="M21.344,17.957a.278.278,0,0,0-.17.057h.17Z" transform="translate(177.019 -0.026)" fill="#f2a5ba"/>
      <path id="_ス_1431" d="M15.143,18.2s.622.084.4.145c-.367.028-.31,0-.48-.057.145.084-.48.113-.4.226l.31-.057s-.113.057,0,.057c0-.057.339-.113.622-.057.283-.057.084-.254-.145-.367,0,0,0,.057-.283.084h0l-.025.025Z" transform="translate(180.504 -0.096)" fill="#f2a5ba"/>
      <path id="_ス_1432" d="M16.382,17.982h.652a2.464,2.464,0,0,1-.4-.084c-.2.028-.226.057-.254.084h0Z" transform="translate(179.581 0.005)" fill="#f2a5ba"/>
      <path id="_ス_1434" d="M21.02,18.384h-.452l.226.084h0C21.047,18.468,20.991,18.412,21.02,18.384Z" transform="translate(177.344 -0.254)" fill="#f2a5ba"/>
      <path id="_ス_1435" d="M15.971,17.926l.057-.084-.254.113.2-.028h0Z" transform="translate(179.906 0.036)" fill="#f2a5ba"/>
      <path id="_ス_1436" d="M14.761,17.955l.028-.057-.17.028.145.028h0Z" transform="translate(180.524 0.005)" fill="#f2a5ba"/>
      <path id="_ス_1437" d="M23.6,36.791l-.057.113.113-.145H23.6v.032Z" transform="translate(175.754 -10.076)" fill="#f2a5ba"/>
      <path id="_ス_1439" d="M11.044,18.655l.057-.028S11.044,18.627,11.044,18.655Z" transform="translate(182.435 -0.384)" fill="#f2a5ba"/>
      <path id="_ス_1441" d="M23.713,12.1s-.283.283-.17.2l.31-.226H23.77a2.866,2.866,0,0,1,.565-.48c.31-.17.254-.084.4-.17,0,0,.057,0,.17-.113l.678-.48-.509.226c.145-.17.565-.4,0-.113.113-.057.254-.113.4-.2a2.308,2.308,0,0,1-.4-.028v-.057a.909.909,0,0,0-.2-.113c-.084,0-.113,0-.367.113a.191.191,0,0,0-.17-.113,1.247,1.247,0,0,0-.565.145h-.96a4.638,4.638,0,0,1-.649.057h0a.465.465,0,0,0-.17-.145.7.7,0,0,0-.423.145c-.145-.084-.678-.028-.87-.17.084.028-.028.057-.2.057-.283-.084-.622-.2-.706-.226a.145.145,0,0,1-.084-.028c-.113-.028-.2,0-.536.226h-.4a5.074,5.074,0,0,1-.622-.057h-.084c-.283-.084-.678-.17-.79-.2v-.119h0a1.521,1.521,0,0,0-.028-.31,5.89,5.89,0,0,0-.113-.735.535.535,0,0,0-.174-.106h-.145l-.057-.113.057-.226A3.307,3.307,0,0,0,16.97,7.7a.535.535,0,0,0-.17-.113c-.113,0-.113-.028-.48.2l-.084-.2V7.525a5.605,5.605,0,0,0-.028-.819.535.535,0,0,0-.17-.113h-.113l.084-.254a3.088,3.088,0,0,0,.283-1.073.535.535,0,0,0-.17-.113.56.56,0,0,0-.31.084V5.181A1.127,1.127,0,0,1,15.7,5.1l-.057-.113c-.283-.536-.339-.622-.339-.649a.259.259,0,0,0-.17-.113h-.17a.306.306,0,0,0-.028-.17.281.281,0,0,0-.145-.113A.38.38,0,0,0,14.539,4h-.033l.113.226-.113.057-.028-.145c0,.084-.226.593-.339.932A3.334,3.334,0,0,0,13.8,6.195a.535.535,0,0,0,.17.113c.084,0,.113.028.509-.2a4.349,4.349,0,0,1-.339.367c-.31.31-.536.565-.735.79l.057-.084V7.038a1.756,1.756,0,0,0-.084.283c-.452.48-.565.649-.593.762a1.159,1.159,0,0,1-.084.226c.028-.057.084-.145.113-.145h0v.028h.028s.084.113.17.113a3.783,3.783,0,0,0,1.129-.536c-.2.2-.4.367-.565.565-.565.565-.932.9-1.16,1.16h0s-.17.2-.226.254v-.1s-.084.226-.145.226H12.1c-.113.145-.084.2,0,.283,0,0,.028.057.057.057h0v.084h0v-.057h.113l-.057.084a.1.1,0,0,0,.084-.057h0s.423-.2,1.779-.96c.593-.339,1.412-.819,1.609-.9a.17.17,0,0,0,.113-.028.087.087,0,0,0,.057-.028s.057,0,.057.028a1.076,1.076,0,0,0,.084.283l.057-.084a.912.912,0,0,1,.057.339c.2.17-.17-.536,0-.367A1.093,1.093,0,0,0,16.191,9c-.2,0-.593.17-4.546,2.4-.96.565-2.061,1.186-2.853,1.609.17-.2.367-.4.536-.593q1.441-1.553,1.328-1.751a.526.526,0,0,0-.113-.084h-.084s.2-.057-.028-.084h.283a.961.961,0,0,1-.268-.032H9.881a2.628,2.628,0,0,0,.509,0c-.084.057-.31.084-.226.17-.084.028-.2.113-.367.2H9.769c-.226.145-.565.31-1.045.593-.339.2-.762.423-1.045.593l.084-.31c.2-.819.226-.932.2-1.015h.167c.028-.057-.057-.057-.2-.057a.39.39,0,0,0-.113-.084,1.542,1.542,0,0,1,.509-.028c-.17-.084-.084,0-.339-.084.226.145-.9,0-.536.145a1.16,1.16,0,0,0-.226-.084.212.212,0,0,0,0-.254.259.259,0,0,0-.17-.113,3.268,3.268,0,0,0-.762.339H6.235l-.145.084-.113.057a1.107,1.107,0,0,0-.48.057c-.254,0,.057-.028-.113-.084l-.254.057L4.9,10.584l-.17-.113h0a2.11,2.11,0,0,1-.339-.2c-.028,0-.057-.057-.113-.057a.616.616,0,0,0-.367.113l-.113.057a1.728,1.728,0,0,1-.17-.113.215.215,0,0,0-.113-.057.38.38,0,0,0-.254.057H3.21l.057.17H3.155l.145.084H3.243s0,.084.057.113v.113h.145c.113.057.254.17.509.339.226.145.48.339.565.4.084.084.17.084.31.028.057.028.113.084.17.113a2.828,2.828,0,0,0,.2.509.281.281,0,0,0,.145.113.708.708,0,0,0,.084.2.259.259,0,0,0,.17.113h.17c.084.084.2.2.367.4s.4.423.423.452a.155.155,0,0,0,.145.084.477.477,0,0,0,.339-.113h0s.283.084.593.17h.057c-.113.2-.084.254,0,.339a.191.191,0,0,0,.149.1.755.755,0,0,0,.283-.057,9.979,9.979,0,0,0,.989.706q0,.145.057.17a.259.259,0,0,0,.17.113.622.622,0,0,0,.226-.028l.339.423c.113.17.254.31.31.4a1.377,1.377,0,0,0-.084.2c0,.028-.028.057-.028.113-.028.113-.057.254-.084.4h0q-1.3,1.525-1.186,1.722a.535.535,0,0,0,.17.113c.084,0,.113,0,.423-.145,0,.057.057.028.113,0v.2c-.057,0-.084.084-.113.145-.565.423-.509.509-.423.649,0,.057.057.084.113.113a.21.21,0,0,0,0,.226h.03c-.084.254-.2.565-.283.79l-.17.449h0c-.17.452-.17.48-.113.565h0c0,.145-.057.254-.057.452l-.084.057a2.37,2.37,0,0,1-.057.283.457.457,0,0,1-.113.283,3.316,3.316,0,0,0-.145.31c.254-.113.79-.48,1.355-.847.283-.2.593-.4.87-.565a6.345,6.345,0,0,1,.593-.339c-.254-.057.423-.17.367-.31.084,0,.2-.057.084.057.367-.31.649-.339.847-.622.084,0-.057.113,0,.113a.262.262,0,0,1,.17-.113c.057,0-.028.057-.084.145.4-.283.367-.423.31-.536a.725.725,0,0,0,.452-.339c.084,0,.254-.057,0,.113.145-.084.9-.536.87-.622.057,0,.2-.145.226-.17l.339-.226a.812.812,0,0,0,.17-.113h0a.465.465,0,0,0,.17.145.622.622,0,0,0,.226-.028c.254.226.31.254.4.283l.057.057c.2.2.423.452.452.48a.155.155,0,0,0,.145.084.38.38,0,0,0,.226-.057h0a1.3,1.3,0,0,1-.028.283,3.59,3.59,0,0,0-.084,1.045.535.535,0,0,0,.17.113l1.015-.48.084-.057h0s-.145.057.057.2c0,.028.113.084.2.113-.226.283-.2.31-.113.423a.259.259,0,0,0,.17.113c.113,0,.113.028.593-.226a.993.993,0,0,1,.254.2c-.057-.084-.084-.17.084-.084a1.5,1.5,0,0,1,.339.283,2.644,2.644,0,0,0,.057.819.259.259,0,0,0,.17.113c.113,0,.113.028.735-.31.254.145.593.339.762.423a.816.816,0,0,0,0,.283.259.259,0,0,0,.17.113h.057a.207.207,0,0,0,.17-.057,1.435,1.435,0,0,0,.367.254c-.057-.113-.084-.254-.145-.4h.028s.17-.226.084-.339c0-.028-.057-.057-.084-.084h0s.145-.226.084-.339c0-.028-.057-.057-.084-.084a2.416,2.416,0,0,0,.113-.87.259.259,0,0,0-.17-.113c-.084,0-.113,0-.423.145-.028-.084-.028-.113-.057-.113l-.046-.071a3.949,3.949,0,0,0-.2-.536.78.78,0,0,0-.17-.226c0-.113.028-.028.057-.028l-.057-.2c.367-.622.339-.649.283-.762a.259.259,0,0,0-.17-.113.56.56,0,0,0-.31.084c.057-.17.084-.339.145-.48V18.2a.674.674,0,0,0,.084-.2,1.582,1.582,0,0,0,.113-.706.259.259,0,0,0-.17-.113,2.341,2.341,0,0,0-.622.254,2.443,2.443,0,0,0-.2-.48s.028,0,.057.057a4.523,4.523,0,0,1-.31-1.1c0-.084-.057-.17-.057-.254v-.113h-.057V15.49a1.281,1.281,0,0,0,.057-.226h0s.145-.145.113-.226l.593-.423h0c1.015-.706,2.061-1.355,3.021-2h-.17l.339-.254c.113-.028.17,0-.057.145.084,0,.17-.084.254-.17.057-.084.145-.2.145-.2.339-.2.339-.17.226-.057h0l-.115.023Zm.989-.706-.145.084C24.726,11.334,24.7,11.365,24.7,11.394ZM9.843,14.556h0s-.084-.145-.17-.145H9.59v-.145h.084a.113.113,0,0,0,.057.113.191.191,0,0,0,.17.113c.2.057.367,0,3.643-1.921.367-.2.762-.452,1.129-.649-.423.31-.847.649-1.215.96-1.525,1.215-2.26,1.779-2.6,2.09h0a1.672,1.672,0,0,0-.17-.113s-.057-.057-.084-.057l-.057-.057s-.226-.339-.283-.283a.445.445,0,0,1-.145.48c-.113-.145-.2-.283-.254-.339h0l-.025-.048ZM16.169,9.7a.535.535,0,0,0,.17.113h.113a.763.763,0,0,1,.028.339c.113.283.057-.113.17.17V10.4l.057.057h0a.348.348,0,0,0-.145-.057c-.17-.028-.226-.057-3.334,1.751-.423.254-.87.509-1.328.762.423-.339.9-.678,1.328-.989,1.722-1.271,2.541-1.921,2.937-2.258h0l.006.028Zm2.853,4.914v-.084l.48-.31c-.254.2.057.145-.4.4l.145-.226-.254.2h0l.025.028Zm-.819.565h.084c-.649.339-1.779.96-3.84,2.147.79-.48,1.609-.989,2.372-1.441.79-.48,1.5-.9,2.118-1.3l-.084.057-.084.057-.113.084s-.283.2-.509.339v.058h0l.057,0Zm.509,3.134a.535.535,0,0,0,.17.113h.113c-.254.145-.536.31-.9.509l-.4.226a4.141,4.141,0,0,0,.283-.31c.283-.283.48-.509.678-.706,0,.145.028.145.057.17h0Zm-1.835.509s.057.084,0,.084Zm.113,0a.415.415,0,0,0-.113-.057V18.68c.226-.113.593-.339,1.215-.706l.084-.057c-.2.2-.4.423-.565.593-.2.2-.367.4-.509.536-.084-.113-.113-.17-.113-.226h0Zm-1.242-1.553a.145.145,0,0,0-.028-.084h0c.678-.423,1.328-.79,1.892-1.1h0a.2.2,0,0,0,.2,0h0c-.2.113-.509.31-1.015.593-.339.2-.735.423-.989.565h0l-.058.028Zm2.683-1.129a.145.145,0,0,0-.028-.084c0-.028-.057-.057-.084-.084h0l.084-.057.057.113v.084h-.028v.028Zm-.088.283c-.145.452-.145.48-.084.565a.191.191,0,0,0,.17.113h.057v.084c-.17.113-.4.226-.649.4-.17.113-.367.226-.565.339a4.827,4.827,0,0,1,.31-.4c.452-.593.678-.9.79-1.073h0Zm.593,2.654a2.153,2.153,0,0,0-.706.31l.113-.057c.226-.145.509-.283.735-.423l-.17.17Zm.509,1.129a.406.406,0,0,1-.084-.057l.145-.084-.084.145h0l.023,0Zm.145-.735s-.367.2-.706.4a5.047,5.047,0,0,1,.367-.4l.254-.283s.057.17.084.283h0Zm-2.966-4.8c-1.525.87-3.247,1.864-4.631,2.654,1.073-.678,2.319-1.468,3.446-2.174a64.612,64.612,0,0,0,5.79-3.783h0a1.177,1.177,0,0,0,.509-.2h0s.084.283.113.423v.057c-1.129.622-2.824,1.582-5.281,3.021h.055Zm.17-3.953h0v.2a.113.113,0,0,0-.057-.113c0-.028.057-.057.057-.084Zm-.084.113c.057.145.113.31.17.452h.706c-.649.367-1.553.87-2.88,1.638-.649.367-1.355.79-2,1.16.339-.283.735-.565,1.073-.847a36.071,36.071,0,0,0,2.938-2.408h0v0Zm3.417.339h-.057a1.183,1.183,0,0,1,.4-.057c-.622.31-1.808.989-4.123,2.344-1.015.593-2.2,1.271-3.22,1.864.48-.31.989-.649,1.468-.989,2.74-1.835,3.953-2.683,4.462-3.106a6.486,6.486,0,0,0,1.073-.057Zm-5.14,2.147c.452-.254.932-.536,1.412-.819-.706.48-1.441.989-2.118,1.441-1.779,1.186-2.767,1.864-3.334,2.287v-.057h-.028l.17-.113s0-.028-.057-.057v-.057h.057s.113-.113.113-.2c.226-.283.31-.4.283-.48.509-.254,1.5-.819,3.479-1.977h0l.023.028Zm-4.292,3.044h0l-.057.057v-.057Zm.17.678A57.723,57.723,0,0,0,16.171,14.1c-.339.226-.678.423-1.015.649-2.118,1.328-3.53,2.231-4.494,2.824.254-.4.226-.452.17-.536h.03Zm-.593-.145a.175.175,0,0,0,.057.113v.057l-.113.084v-.113l.057-.113h0v-.028ZM9.535,19.83h0l.084-.226s.084.028.084.057v-.254s.028-.17.028-.2c.057,0,.113-.057.17-.084a.5.5,0,0,1,.028-.145c.932-.452,2.853-1.525,6.975-3.926,1.328-.762,2.824-1.609,4.1-2.344-1.355.847-2.966,1.835-4.434,2.711-4.2,2.57-6.156,3.783-7.06,4.405h0l.03,0Zm10.421-5.874a2.076,2.076,0,0,1-.145.17l-.057-.057.2-.113Zm-4.546,3.9s-.084-.084-.145-.084h-.057l.145-.084v.057a.191.191,0,0,0,.17.113c.145.028.17.028,1.525-.762l.367-.2-.226.31a12.557,12.557,0,0,0-.932,1.3c-.145-.084-.31-.145-.48-.254-.2-.17.084,0,0-.113l-.17-.057-.226-.226h0l.029-.007Zm7.315-6.777.113.057h.084l.057-.057h.028l-.622.31-.051-.188a1.6,1.6,0,0,1,.367-.145h0Zm-5.308-.649-.057-.057ZM15.045,4.5h0l-.084.057.057-.113V4.5Zm-.339.762c.113-.31.2-.536.254-.706l.057.084s-.057.31-.145.31a.725.725,0,0,1,.145.4l-.254.145-.2.113.145-.339,0,0Zm-.084,1.582c.283-.283.48-.536.649-.706,0,.028.028.057.057.084,0,.113-.084-.084-.084,0a.834.834,0,0,1,.226.423c-.113,0-.283.113-1.186.622h-.057l.4-.4h0V6.849Zm-.706,2.118-.28.17.4-.4c.762-.762,1.215-1.186,1.441-1.468h.2a3.416,3.416,0,0,1,.145.509v.2h0c-.145-.028-.17-.057-1.892.96h0l-.007.029ZM12.022,11.84c.762-.423,1.582-.9,2.319-1.328-.423.339-.9.678-1.328.989a19.487,19.487,0,0,0-3.22,2.57.21.21,0,0,1-.084-.084l.084.084v.057a.336.336,0,0,1-.145-.028v-.086a2.864,2.864,0,0,0-.113-.762c.565-.31,1.384-.762,2.485-1.412h0Zm-2.88,0,.4-.226c-.17.17-.31.339-.452.509-.452.48-.762.819-.96,1.045H7.981v-.051c-.226-.145-.367-.283-.536-.4.145,0,.226,0,1.722-.87h0l-.025-.012Zm-2.514.226c-.2-.254.31.2.17-.028a.419.419,0,0,1-.254-.084l-.2-.084h0s.283-.17.48-.283.423-.254.649-.367l-.084.367c-.17.762-.2.87-.17.96-.057-.057-.145-.084-.2-.145,0-.057-.226-.226-.084-.2a.526.526,0,0,1-.283-.145h0l-.03.006Zm-.145.113a2.32,2.32,0,0,1-.31-.113l-.113-.057.226-.113s.4.226.536.31q-.084.084-.339,0h0v-.028ZM7.33,10.71q-.254.128-.762.423c-.254.145-.565.339-.819.452h0l-.086-.248s.339-.17.79-.423l.226-.145h.057a2.556,2.556,0,0,1,.31-.17h.17l.084.084a.765.765,0,0,0-.367,0,2.308,2.308,0,0,1,.4.028h0Zm-.48,2.174h0l-.057-.057h0l-.057-.057.057.057.113.057H6.85Zm5.308,6.552a.87.87,0,0,1,.254-.145A.546.546,0,0,1,12.158,19.437Zm.536,0s-.028-.028,0-.113l-.057.057c-.17.057-.145-.028-.057-.145l.2-.057s.113-.226.057-.283l-.113.113v-.057l-.113.113h-.17l-.593.31a6.982,6.982,0,0,1-1.129,1.16c.113-.17-.057-.145-.113-.226.226,0,.452-.339.762-.536-.17.113-.17.028-.145,0l-.509.452a1.348,1.348,0,0,0-.339.113c.113,0,0,.113-.113.226a1.565,1.565,0,0,1-.226.17l-.057.057H9.951l-.057.084V20.8s0-.028.057-.057a.435.435,0,0,1,.17-.113.145.145,0,0,0-.109.054H9.955v.057H9.927a.4.4,0,0,1-.057.113.274.274,0,0,1-.226.2c.057-.028.084-.028.084-.084a.68.68,0,0,1-.226.17c-.057.028-.084,0-.057-.028h.028a4.308,4.308,0,0,0-.48.283v-.2l.2-.113s.283-.17.339-.2h.028s.17-.226.084-.339l-.057-.057c.48-.254,1.355-.735,3.021-1.666h.028v.057h0a.281.281,0,0,1,.113.028H12.8a.213.213,0,0,0,.113-.028,1.148,1.148,0,0,1-.254.283,1.8,1.8,0,0,0,.254-.057l-.367.31h0l.145.023Z" transform="translate(186.652 7.469)" fill="#f2a5ba"/>
      <path id="_ス_1442" d="M23.663,36.2h.057Q23.72,36.177,23.663,36.2Z" transform="translate(175.689 -9.772)" fill="#f2a5ba"/>
      <path id="_ス_1444" d="M12.266,17.9h-.254a2.3,2.3,0,0,1,.254.057s-.057-.028,0-.057Z" transform="translate(181.917 0.006)" fill="#f2a5ba"/>
      <path id="_ス_1446" d="M7.583,18.062c.17,0,0-.084.113-.057.057-.028-.2,0-.339,0-.145.028-.145.057.2.028h0l.029.029Z" transform="translate(184.455 -0.045)" fill="#f2a5ba"/>
      <path id="_ス_1448" d="M28.772,4.118l-.145-.113a.87.87,0,0,1,.057.2l.084-.084h0Z" transform="translate(173.035 7.432)" fill="#f2a5ba"/>
      <path id="_ス_1450" d="M17.226,10.981l-.057.028H17.2Z" transform="translate(179.16 3.703)" fill="#f2a5ba"/>
      <path id="_ス_1451" d="M17.076,10.885h.084s-.113-.057-.084-.084C16.992,10.885,17.132,10.828,17.076,10.885Z" transform="translate(179.225 3.8)" fill="#f2a5ba"/>
      <path id="_ス_1454" d="M17.353,10.25h.057a.087.087,0,0,1,.028-.057C17.41,10.193,17.381,10.193,17.353,10.25Z" transform="translate(179.062 4.124)" fill="#f2a5ba"/>
      <path id="_ス_1457" d="M17.226,10.436s0,.028-.057.057C17.2,10.493,17.283,10.493,17.226,10.436Z" transform="translate(179.16 3.994)" fill="#f2a5ba"/>
      <path id="_ス_1459" d="M17.17,10.066H17.2s0-.028.057-.057a.406.406,0,0,0-.084.057h0Z" transform="translate(179.16 4.222)" fill="#f2a5ba"/>
      <path id="_方形_143" d="M16.936,10.547l.112-.012h0Z" transform="translate(179.285 3.942)" fill="#f2a5ba"/>
      <path id="_ス_1461" d="M17.17,9.857H17.2l.057-.028-.084.028h0Z" transform="translate(179.16 4.319)" fill="#f2a5ba"/>
      <path id="_ス_1462" d="M17.17,9.7s.057-.057.084-.057H17.17Z" transform="translate(179.16 4.416)" fill="#f2a5ba"/>
      <path id="_ス_1464" d="M17.108,9.95l-.057.057h0a.055.055,0,0,0,.057-.054Z" transform="translate(179.223 4.254)" fill="#f2a5ba"/>
      <path id="_ス_1465" d="M17.016,10.037h0l-.028-.028Z" transform="translate(179.257 4.222)" fill="#f2a5ba"/>
      <path id="_ス_1467" d="M16.684,10.43a.216.216,0,0,1,.145-.057A.183.183,0,0,0,16.684,10.43Z" transform="translate(179.42 4.028)" fill="#f2a5ba"/>
      <path id="_ス_1469" d="M16.868,9.916s.057,0,.057-.028h-.057v.057h0Z" transform="translate(179.322 4.287)" fill="#f2a5ba"/>
      <path id="_ス_1476" d="M16.041,9.725a.087.087,0,0,1,.028-.057c-.057.057-.113,0-.226.084H15.9s-.057,0-.057.028c.057-.028.113-.028.084,0a1.121,1.121,0,0,0,.339-.2h-.084s-.057.084-.113.084h0l-.025.058Z" transform="translate(179.871 4.45)" fill="#f2a5ba"/>
      <path id="_ス_1477" d="M16.743,9.648V9.7h0l.057-.057Z" transform="translate(179.388 4.416)" fill="#f2a5ba"/>
      <path id="_ス_1478" d="M16.573,9.767h-.084c-.057.028-.113,0-.17.084h.087c-.028-.028.028,0,.057-.057h.057l.054-.028Z" transform="translate(179.615 4.352)" fill="#f2a5ba"/>
      <path id="_ス_1479" d="M16.382,10.585l.028-.028Z" transform="translate(179.581 3.929)" fill="#f2a5ba"/>
      <path id="_ス_1480" d="M16.546,10.315a1.1,1.1,0,0,0-.145.113h.028a.087.087,0,0,0-.057.028.145.145,0,0,0,.084-.028h0l.084-.084h0l.006-.029Z" transform="translate(179.586 4.059)" fill="#f2a5ba"/>
      <path id="_ス_1482" d="M16.74,9.554l.057-.028-.113.028h.057Z" transform="translate(179.42 4.48)" fill="#f2a5ba"/>
      <path id="_ス_1483" d="M16.768,9.465h-.057l-.028.028Z" transform="translate(179.42 4.514)" fill="#f2a5ba"/>
      <path id="_ス_1485" d="M15.41,7.284l.057-.049H15.41Z" transform="translate(180.101 5.706)" fill="#f2a5ba"/>
      <path id="_ス_1488" d="M16.088,8.549V8.493C16.06,8.52,16,8.577,16.088,8.549Z" transform="translate(179.762 5.033)" fill="#f2a5ba"/>
      <path id="_ス_1490" d="M16.139,8.514s.028-.057,0-.028h0a.028.028,0,0,1,.028.028Z" transform="translate(179.711 5.041)" fill="#f2a5ba"/>
      <path id="_ス_1497" d="M13.529,7.454h.084l.17-.113Z" transform="translate(181.106 5.649)" fill="#f2a5ba"/>
      <path id="_ス_1498" d="M8.941.782,8.885.838q.084-.042.084,0h0s.028.113.057.2L9.086.979v.055c.113-.057,0-.028.084-.113-.113.113.084.084-.057.226,0,0,.057-.057.084-.057h0a.406.406,0,0,1-.057.084h0s.057.028.057.057h0a.312.312,0,0,0,.2.084h0s0,.028.057.057h.057c-.057,0-.057.084-.113.084.084,0,.057,0,.2-.057l-.057.057s.084-.028.113,0c-.057,0-.057.057-.145.084-.084.113.17,0,0,.113.17-.084.057-.084.084-.113.028-.057.113-.057.113-.028,0,0-.17.145-.113.2h0s.057,0,0,.057c.084-.057,0,0,.113-.057H9.644s.2-.084.145,0h-.08c0,.028.028,0,0,.028-.113.084-.057,0-.17,0-.028.028.113,0,0,.057.17-.084,0,.057.145,0l-.057.057H9.6s-.028.113,0,.113c-.028-.028.084-.057.113-.113.113,0-.145.145-.084.17a.055.055,0,0,1,.054-.057h0a.1.1,0,0,1-.062.086c.028.028.057-.057.113-.057-.084.057.057,0,.084,0l-.055.057s.145-.084.113,0l-.113.057h.028l-.084.057s.057,0,.057.028c.057-.028.113-.084.145-.057-.028.028-.057.028-.028.057-.057,0-.113.057-.057,0H9.77v.084h.145a.477.477,0,0,1-.145.057h.084s-.057.057-.084.057c0,.028.145,0,.113.028h.028c0,.028-.057.113.057.084l-.084.084s.113-.113.17-.084c.057,0-.084.057-.113.084.057,0,.17-.057.113,0h0L10,2.639a.336.336,0,0,0-.17.057c.2-.113.084.057.283-.028h.084s-.028.057-.057.057h.028l.057.057h.113s-.113.057-.113,0c-.2.145.057,0,0,.113h-.028l-.113.113c.028,0,.145-.145.226-.145,0,0,0,.028.028,0-.084.028-.057.057-.028.057l-.084.057a.378.378,0,0,0,.145-.028l-.122.116c0,.028.113-.084.145-.057,0,.057.028.057.113.057,0,.028-.057,0-.084.057h.057a.348.348,0,0,1,.145-.057c.113-.057-.113.145,0,.084a.1.1,0,0,0-.084.057h.2l-.057.057a.854.854,0,0,1,.254-.084l.057-.057h.084a.406.406,0,0,0-.084.057h0a.348.348,0,0,1-.145.057l.057-.057s-.145.057-.2.084h.028l-.113.084h.057V3.4a.922.922,0,0,1,.339-.057c-.084,0-.145.057-.226.113.084-.057-.057,0-.057-.057,0,0-.057.028-.057.057h.113a.21.21,0,0,0-.084.084c.145-.084.113,0,.17,0-.057,0-.113.057-.113,0-.084.084.2-.057.113,0h0c.057,0,.028.057,0,.057h0a.145.145,0,0,0,.2.057h0l-.17.084.48-.145a2.36,2.36,0,0,1-.452.2.028.028,0,0,0,.028.028.941.941,0,0,1,.17-.084c-.113.084-.057.057-.145.145,0,0,.2-.113.2-.084a1.377,1.377,0,0,1-.2.084l.2-.057-.2.113c.028,0,0,.028.028.028h.028s.254-.113.283-.057c-.028,0-.226.084-.226.145a3.924,3.924,0,0,1,.536-.17h0s-.452.17-.565.2c-.028.028-.057.028-.028.057-.028.028-.084,0-.084,0v.057a.348.348,0,0,0,.2-.057H11s.31-.113.31-.057a1.677,1.677,0,0,1-.226.113h0s.145,0,.084.057c0,0-.113.084-.057.057a3.321,3.321,0,0,1,.536-.283.636.636,0,0,1-.145.145c-.084.057-.226.084-.283.145h.084s-.084.028-.057.057c.113-.057,0,.057.084-.028.028,0,0,.028,0,.057a1.076,1.076,0,0,1,.283-.084.406.406,0,0,0-.067.054v.145a.1.1,0,0,1-.084.057h.057s-.028,0-.113.057c.057-.028.113,0,.145,0,.084-.057,0-.057-.057-.057a.631.631,0,0,1,.367-.084c.057,0-.084.057-.057.057,0,.084.254-.057.2.028a.845.845,0,0,1-.226.113c-.057,0,0-.057,0-.084h0s-.057.028-.057,0c-.057.057.057.113,0,.2a.1.1,0,0,0,.084-.028h0s.113-.028.113-.057h.113l-.084.057s.057-.057,0-.028c.057,0-.084.113.028.057l.057-.057s.17-.028.145,0c.084-.057,0,0,.084-.084-.113.084-.028-.057-.145.028.113-.084.028-.057.113-.145-.028,0-.057.028-.057,0h-.028V4.6h-.17a.087.087,0,0,0,.057-.028h-.057s.084-.084.145-.084h0s.028-.084,0-.084h-.084s-.17-.057-.057-.17c0,0-.057,0-.057-.028h.057s0-.113-.028-.084c.145-.113,0-.113,0-.145h-.226V3.888h0c.113-.113-.17-.028-.084-.145h0V3.69a.1.1,0,0,0-.084.057H11.5s-.057,0,.057-.084a.446.446,0,0,0-.2,0h0V3.606l.084-.057H11.3a1.331,1.331,0,0,0,.145-.057H11.3s-.113,0-.057-.057c.084-.084-.057-.145,0-.254-.17.113.057-.084-.084,0,.028,0,.057-.057.084-.057-.057,0,.028-.084-.084-.057a.1.1,0,0,0,.084-.028H11.3c-.028-.028-.17.028-.283.084.057-.057.028-.057-.057,0,.028,0,.057-.057.084-.057,0,0,0-.113-.084-.057h0a.084.084,0,0,0-.028-.057h-.057s-.057,0,0-.113h-.067c-.145.113.057-.057,0-.057h-.029a2.1,2.1,0,0,0,.2-.145h.028a.22.22,0,0,1-.145,0c.057-.028.145-.057.113-.084.028-.028-.2.028-.113-.057-.028,0-.057.057-.113.057,0,0,.113-.145,0-.084h0a.159.159,0,0,0-.17,0c.226-.145-.2-.028.028-.17l-.057-.057h0a.2.2,0,0,0-.145,0,.087.087,0,0,0,.057-.028q0-.084-.145-.057l.057-.057s.057-.145-.057-.145h.028s.113-.254-.17-.113H10.1a.394.394,0,0,0-.145.113s.057-.084.084-.084h0a.183.183,0,0,1,.084-.145c-.057-.084-.057-.226-.113-.31l-.084.084h0l.084-.084c.057-.057-.084,0-.084,0,0-.057.145-.057.113-.084h-.028s-.084.057-.113,0c0-.028.057-.057.057-.057H9.872l-.084.084c.113-.113-.057-.17,0-.2a.169.169,0,0,1-.113-.028s-.084.084-.113.057c.2-.145.028-.084.145-.226-.057.084-.084-.057-.17.084,0-.028.057-.057.084-.113-.113,0-.028-.145-.113-.17L9.424.857,9.508.744s-.145.113-.084,0c0,0-.028.057-.057.057,0-.084-.084-.145-.145-.17S9.109.547,9.138.4c0,.057-.028.057-.057.028L9,.517v-.1s0-.028-.113.028h0A4.16,4.16,0,0,1,8.6.78c.113-.084-.084.2.084.084h0L8.941.782Zm1.45,2.061h-.028C10.447,2.816,10.42,2.843,10.391,2.843Z" transform="translate(183.74 9.357)" fill="#f2a5ba"/>
      <path id="_ス_1502" d="M16.246,9.577s-.028.028,0,.028h0S16.3,9.548,16.246,9.577Z" transform="translate(179.66 4.458)" fill="#f2a5ba"/>
      <path id="_ス_1504" d="M16.429,9.074s.084-.028.057,0C16.57,9.046,16.372,9.074,16.429,9.074Z" transform="translate(179.562 4.729)" fill="#f2a5ba"/>
      <path id="_ス_1505" d="M15.837,9.794l.084-.028h-.084v.028Z" transform="translate(179.873 4.352)" fill="#f2a5ba"/>
      <path id="_ス_1508" d="M15.443,9.041s-.028,0,0,.028h.028Z" transform="translate(180.09 4.74)" fill="#f2a5ba"/>
      <path id="_ス_1509" d="M15.195,9.371l.057-.028-.084.057h.028Z" transform="translate(180.23 4.579)" fill="#f2a5ba"/>
      <path id="_ス_1510" d="M15.037,9.284s-.084,0-.057.028C14.98,9.312,15.037,9.312,15.037,9.284Z" transform="translate(180.333 4.61)" fill="#f2a5ba"/>
      <path id="_ス_1511" d="M14.865,8.334h.028l.145-.084-.17.084h0Z" transform="translate(180.392 5.163)" fill="#f2a5ba"/>
      <path id="_ス_1512" d="M13.891,8.069s-.028,0-.113.057c0,.057.084-.028.057,0,.028,0,0-.028.057-.057h0Z" transform="translate(180.973 5.26)" fill="#f2a5ba"/>
      <path id="_ス_1513" d="M10.037,0,10.01.057h.028Z" transform="translate(182.987 9.573)" fill="#f2a5ba"/>
      <path id="_ス_1514" d="M9.794.143,9.851.059,9.767.116h0l.028.028Z" transform="translate(183.117 9.541)" fill="#f2a5ba"/>
      <path id="_ス_1515" d="M12.131,5.886l-.057.057h0V5.886Z" transform="translate(181.884 6.427)" fill="#f2a5ba"/>
      <path id="_ス_1516" d="M11.953,5.369h0l.084-.028Z" transform="translate(181.949 6.718)" fill="#f2a5ba"/>
      <path id="_ス_1520" d="M48.588,3.7h0V3.641s-.057.084-.113.084c.057.084.057-.028.084,0h0Z" transform="translate(162.426 7.627)" fill="#f2a5ba"/>
      <path id="_ス_1523" d="M47.957,3.363a.028.028,0,0,1-.028-.028.1.1,0,0,0,.028.084Z" transform="translate(162.718 7.79)" fill="#f2a5ba"/>
      <path id="_ス_1526" d="M48.171,3.617s0-.113-.057-.057a.055.055,0,0,1,.057.054Z" transform="translate(162.619 7.678)" fill="#f2a5ba"/>
      <path id="_ス_1528" d="M47.744,3.513s-.028,0-.057-.057a.407.407,0,0,0,.057.084h0Z" transform="translate(162.847 7.725)" fill="#f2a5ba"/>
      <path id="_ス_1531" d="M47.444,3.513V3.457l.028.084Z" transform="translate(162.977 7.725)" fill="#f2a5ba"/>
      <path id="_ス_1532" d="M47.258,3.541s-.057-.057-.057-.084v.084Z" transform="translate(163.107 7.725)" fill="#f2a5ba"/>
      <path id="_ス_1534" d="M47.622,3.7s-.028-.057-.057-.057Z" transform="translate(162.912 7.627)" fill="#f2a5ba"/>
      <path id="_ス_1537" d="M48.052,3.957A.216.216,0,0,1,48,3.812.183.183,0,0,0,48.052,3.957Z" transform="translate(162.683 7.535)" fill="#f2a5ba"/>
      <path id="_ス_1538" d="M47.809,3.821v.057h.028A.087.087,0,0,0,47.809,3.821Z" transform="translate(162.782 7.53)" fill="#f2a5ba"/>
      <path id="_ス_1539" d="M47.472,3.878s0-.057-.028-.057v.057Z" transform="translate(162.977 7.53)" fill="#f2a5ba"/>
      <path id="_ス_1546" d="M47.191,4.355h-.057c.057.057,0,.113.084.226V4.525s0,.057.028.057c-.028-.057-.028-.113,0-.084a.938.938,0,0,0-.225-.312V4.27a.193.193,0,0,1,.113.113h0l.057-.028Z" transform="translate(163.203 7.336)" fill="#f2a5ba"/>
      <path id="_ス_1547" d="M47.108,4.027h.057a.212.212,0,0,0-.084-.084v.084Z" transform="translate(163.172 7.465)" fill="#f2a5ba"/>
      <path id="_ス_1548" d="M47.323,3.97a.22.22,0,0,0,.084.17V4.056c-.028.028,0-.028-.057-.057h0V3.943h0V4h0l-.028-.029Z" transform="translate(163.042 7.465)" fill="#f2a5ba"/>
      <path id="_ス_1550" d="M47.986,4.179v.057a.145.145,0,0,0-.028-.084h0s-.084-.057-.084-.084a.5.5,0,0,0,.113.145V4.179h0Z" transform="translate(162.747 7.399)" fill="#f2a5ba"/>
      <path id="_ス_1552" d="M47.015,4l-.057-.057.057.084V4Z" transform="translate(163.237 7.465)" fill="#f2a5ba"/>
      <path id="_ス_1553" d="M46.93,4.065,46.9,4.008v.057Z" transform="translate(163.266 7.43)" fill="#f2a5ba"/>
      <path id="_ス_1555" d="M44.481,5.832s-.145-.084-.084-.028l.057.057h.028Z" transform="translate(164.614 6.481)" fill="#f2a5ba"/>
      <path id="_ス_1556" d="M43.86,7.762h0L43.8,7.7v.057Z" transform="translate(164.923 5.454)" fill="#f2a5ba"/>
      <path id="_ス_1557" d="M43.016,10.374l.057.057S43.072,10.4,43.016,10.374Z" transform="translate(165.344 4.028)" fill="#f2a5ba"/>
      <path id="_ス_1558" d="M45.925,4.852h-.057C45.9,4.852,45.953,4.909,45.925,4.852Z" transform="translate(163.819 6.979)" fill="#f2a5ba"/>
      <path id="_ス_1559" d="M42.166,8.493l.028.028Z" transform="translate(165.799 5.033)" fill="#f2a5ba"/>
      <path id="_ス_1565" d="M46.5,4.307l-.028.028H46.5Z" transform="translate(163.495 7.271)" fill="#f2a5ba"/>
      <path id="_ス_1567" d="M45.129,7.29s-.028-.084,0-.057l-.17-.145.17.2Z" transform="translate(164.305 5.784)" fill="#f2a5ba"/>
      <path id="_ス_1568" d="M38.789,8.427a.406.406,0,0,1,.084.057h-.145s-.028.057.057.113h0a2.553,2.553,0,0,1,.4.17c-.113-.084.226.028.084-.084.028,0,.028.028.084.057q-.057-.057,0-.057h0a2.191,2.191,0,0,0,.2-.113h-.084l.057-.028c-.084-.084-.028.028-.145-.057.145.057.084-.113.226,0,0,0-.084-.028-.057-.057h.113s0-.057.028-.028h-.028s.113-.113.057-.226h-.028a.1.1,0,0,0,.057-.084h0s-.028-.057,0-.057c.028.028.084,0,.113.057-.028-.084-.028-.057-.145-.17h.057s-.057-.028-.057-.057c.028.057.084.028.145.084.145,0-.057-.145.113-.057-.145-.113-.113,0-.145-.028-.057,0-.084-.084-.057-.084,0,0,.2.084.226.057h0s-.028-.057.057-.028c-.084-.057,0,0-.084-.084v.057s-.145-.145-.057-.145l.057.057c.028,0,0-.028.028,0,.113.084,0,.057.057.145.057,0-.057-.084.057,0-.145-.113.057-.028-.057-.145l.057.057V7.693l.057.057s.084,0,.084-.057c-.028.057-.084-.028-.145-.057-.057-.113.2.084.226,0h.028c0-.057-.084-.028-.113-.084.084.028,0-.028-.028-.084l.057.057s-.145-.113-.057-.113L40.3,7.5h.057V7.438c-.057,0-.113-.084-.113-.113.057,0,.057.057.084,0,.028.028.084.084,0,.057l.057.057.057-.057h0l-.057-.113s.057.028.057.057V7.27c.057.028.113.084.113.113V7.3a.055.055,0,0,1,.057.054v0c.057,0-.057-.113,0-.113h0s.113,0,.057-.113l.113.057s-.145-.057-.145-.145c0-.057.084.057.113.057-.028-.057-.113-.145,0-.113v.032H40.8a.145.145,0,0,0,.113.145c-.17-.145.057-.084-.145-.226h.057s-.113-.084-.057-.113a.145.145,0,0,1,.084.028V6.789h.028a.414.414,0,0,1-.057-.113c.028,0,0,0,.028.028V6.648s.057.084.028.084c.2.113-.028-.057.113,0h0a.833.833,0,0,0,.17.084.5.5,0,0,1-.226-.145s.028,0,0-.028c.057.057.057,0,.057,0l.084.057a.528.528,0,0,1-.084-.113.413.413,0,0,1,.145.084c.028,0-.113-.057-.113-.113.057,0,.028-.057,0-.113.057,0,.057.057.084.057l-.057-.057h.028S41,6.388,41,6.361c-.084-.084.17.057.084-.057.028,0,.057.057.084.057a.31.31,0,0,0-.084-.17h.084s-.145-.084-.17-.17h-.057V5.913l.057.057h0a.22.22,0,0,1,.113.084h-.057a.773.773,0,0,0,.145.113h.145a1.015,1.015,0,0,1-.17-.31.958.958,0,0,1,.17.17c-.084-.057,0,.057-.028.084,0,0,.057.028.057.057V6.055s0,.028.057.057C41.282,6,41.37,6,41.343,5.967c.028.028.084.084.057.084.113.057-.113-.17,0-.113h0c0-.057.028-.057.057,0h0a.123.123,0,0,0,0-.2l.145.145-.283-.4a1.9,1.9,0,0,1,.339.339s.057,0,.028-.028l-.145-.113c.113.084.057.028.17.084a1.035,1.035,0,0,1-.145-.17l.145.145-.084-.17.145.145c-.028,0,.028,0,0-.057h-.057s-.145-.226-.113-.254c0,.028.145.17.2.17a1.981,1.981,0,0,1-.283-.452h.028s.226.339.283.452c.057,0,.057.057.057,0,.057.028.057.057.028.084h.084a.355.355,0,0,0-.113-.2v.145s-.17-.254-.113-.283c.028,0,.113.145.145.17h0s-.028-.145.057-.084c0,0,.113.084.084.028a6.064,6.064,0,0,1-.423-.452.928.928,0,0,1,.17.084c.084.057.145.2.2.254l-.028-.057s.057.084.057.057c-.057-.084.057,0-.057-.084,0-.028.028,0,.057,0a.58.58,0,0,1-.145-.254l.057.057a.212.212,0,0,0,.145-.028.21.21,0,0,1,.084.084V5.039s-.028.028.057.113c-.028-.057,0-.084-.028-.145-.057-.084-.057,0-.057.057a.707.707,0,0,1-.145-.31c0-.057.057.057.057.028.084,0-.084-.226,0-.2a.435.435,0,0,1,.145.2c0,.057-.084,0-.084,0h.057V4.84c.057.057.113-.057.2-.028a.1.1,0,0,0-.028-.084h0s0-.084-.057-.084V4.53l.057.084s-.057-.028-.057,0c0-.057.113.084.057-.028l-.057-.057s-.028-.17,0-.145c-.057-.084,0,0-.084-.084.084.113-.084.028.028.145-.084-.084-.057,0-.17-.113,0,0,.057.057,0,.057h0l.028.057c.028.057,0,.084,0,.145,0,0,0-.028-.057-.057v.045s-.084-.084-.084-.145h-.028s-.084,0-.084.028v.084H41.8s0,.145-.145.084c0,0,0,.057-.028.057l-.057-.057s-.084,0-.057.057c-.145-.113-.113.028-.17.057L41.4,4.8a.29.29,0,0,0-.028.084l.057.057s-.084,0-.113.057h0c-.17-.084,0,.17-.113.113h0v.057L41.15,5.11h0s0,.028.057.084V5.25s0,.057-.084-.028c.028.057,0,.084.084.2h0l-.084-.057.084.113a1.1,1.1,0,0,1-.145-.113c.057.113,0,.057.057.17l-.057-.057s.028.084,0,.057c-.113-.057-.145.113-.283.084.17.113-.084,0,0,.084q-.042,0-.084-.084c0,.057-.113,0,0,.113-.028,0-.057-.057-.057-.057h0a.087.087,0,0,0-.028-.057.741.741,0,0,0,.17.226q-.057,0,0,.057a.09.09,0,0,1-.084-.084s-.113.028-.028.084h0q-.028,0-.057.057h0V6.04h0s0,.028-.113,0l.057.057s-.113,0-.084.057h.057a2.667,2.667,0,0,0-.254-.084V6.055c-.113,0,.084.057.084.113-.057-.028-.113-.084-.145-.084-.057,0,.084.17,0,.145a.09.09,0,0,1,.084.084c0,.028-.17-.028-.084.057h-.028s0,.084.057.113c-.226-.145,0,.17-.17.028v.057h-.057a.281.281,0,0,0,.028.113.087.087,0,0,1-.057-.028c-.084,0-.084.028,0,.145L39.9,6.741s-.17,0-.113.084h0s-.283,0-.057.17v.084a.675.675,0,0,0,.2.084s-.113,0-.113-.028h0a.207.207,0,0,1-.17-.028c-.057.084-.2.145-.254.226l.113.057h0s-.084,0-.057-.028c-.057,0,0,.057.057.084a.126.126,0,0,1-.113-.084h0s.084.084.057.113c-.028,0-.084-.028-.084,0H39.34l.084.057s-.028.028.084.084c-.17-.057-.145.113-.2.084.057.057,0,.084,0,.113,0,0,.113.057.084.084-.2-.113-.113,0-.254-.057.113.028,0,.084.113.145a.477.477,0,0,1-.145-.057c.028.084-.113.084-.145.17,0,0,.084,0,.113.057L38.932,8.1s.145.084.028.057c0,0,.057,0,.057.028-.2.057-.057.31-.367.283q.057,0,.057.028h0l.083-.067Zm2.2-1.864s.028.057,0,.028C40.936,6.533,40.992,6.562,40.992,6.562Z" transform="translate(167.678 7.274)" fill="#f2a5ba"/>
      <path id="_ス_1572" d="M47.08,4.521h.057S47.08,4.465,47.08,4.521Z" transform="translate(163.172 7.17)" fill="#f2a5ba"/>
      <path id="_ス_1574" d="M46.444,4.4s-.057-.084,0-.057C46.416,4.258,46.444,4.455,46.444,4.4Z" transform="translate(163.525 7.263)" fill="#f2a5ba"/>
      <path id="_ス_1575" d="M47.2,4.793l.028.057.028.028L47.2,4.793h0Z" transform="translate(163.108 7.011)" fill="#f2a5ba"/>
      <rect id="_方形_151" height="0.028" transform="translate(210.3 11.881)" fill="#f2a5ba"/>
      <path id="_ス_1578" d="M46.476,5.335s.028.028.028,0V5.279h0Z" transform="translate(163.495 6.751)" fill="#f2a5ba"/>
      <path id="_ス_1579" d="M46.838,5.516s-.028,0-.057-.057l.057.084h0Z" transform="translate(163.331 6.655)" fill="#f2a5ba"/>
      <path id="_ス_1580" d="M46.865,5.759s0-.057-.028-.057C46.837,5.7,46.837,5.787,46.865,5.759Z" transform="translate(163.302 6.525)" fill="#f2a5ba"/>
      <path id="_ス_1581" d="M45.769,5.9h0l-.084-.145Z" transform="translate(163.917 6.496)" fill="#f2a5ba"/>
      <path id="_ス_1582" d="M45.8,7.033a.055.055,0,0,1-.057-.054v0c0,.057,0,.028.084.113.057,0-.057-.084,0-.057Z" transform="translate(163.884 5.844)" fill="#f2a5ba"/>
      <path id="_ス_1583" d="M38.644,13.227l-.057.029h.057Z" transform="translate(167.711 2.503)" fill="#f2a5ba"/>
      <path id="_ス_1584" d="M38.793,13.4l-.084-.057Z" transform="translate(167.646 2.438)" fill="#f2a5ba"/>
      <path id="_ス_1586" d="M43.527,9.643h0l-.084-.057Z" transform="translate(165.116 4.449)" fill="#f2a5ba"/>
      <path id="_ス_1588" d="M53.876,36.46l.057-.057S53.876,36.488,53.876,36.46Z" transform="translate(159.539 -9.886)" fill="#f2a5ba"/>
      <path id="_ス_1589" d="M53.478,36.674l.028-.028-.057.057.028-.028h0Z" transform="translate(159.767 -10.016)" fill="#f2a5ba"/>
      <path id="_ス_1590" d="M53.439,36.551s-.084.057-.057,0c-.057.113.028,0,0,.028h0l.057-.057h0Z" transform="translate(159.813 -9.95)" fill="#f2a5ba"/>
      <path id="_ス_1593" d="M53.512,35.977a.35.35,0,0,0-.057.084h.028v-.084h.029Z" transform="translate(159.764 -9.658)" fill="#f2a5ba"/>
      <path id="_ス_1596" d="M53.39,36.333s.057-.084.028-.057A.087.087,0,0,1,53.39,36.333Z" transform="translate(159.799 -9.815)" fill="#f2a5ba"/>
      <path id="_ス_1598" d="M53.328,36.034v-.057a.407.407,0,0,1-.057.084h0Z" transform="translate(159.862 -9.658)" fill="#f2a5ba"/>
      <path id="_ス_1600" d="M53.209,36.426l.084-.084Z" transform="translate(159.895 -9.853)" fill="#f2a5ba"/>
      <path id="_ス_1601" d="M53.331,35.853l.057-.057Z" transform="translate(159.83 -9.562)" fill="#f2a5ba"/>
      <path id="_ス_1602" d="M53.271,35.759s.028-.084.057-.084l-.057.057Z" transform="translate(159.862 -9.497)" fill="#f2a5ba"/>
      <path id="_ス_1607" d="M53.088,36.455a.22.22,0,0,1,.084-.113C53.172,36.369,53.115,36.4,53.088,36.455Z" transform="translate(159.96 -9.853)" fill="#f2a5ba"/>
      <path id="_ス_1608" d="M53.15,36.277a.087.087,0,0,1,.028-.057H53.15Z" transform="translate(159.927 -9.788)" fill="#f2a5ba"/>
      <path id="_ス_1616" d="M52.495,36.2v-.057c-.028.084-.084.084-.145.2h0c.028-.057.084-.113.057-.028a2.728,2.728,0,0,0,.2-.339.1.1,0,0,1-.057.084.183.183,0,0,1-.057.145h0Z" transform="translate(160.355 -9.658)" fill="#f2a5ba"/>
      <path id="_ス_1617" d="M52.933,35.975h0l.028-.057-.057.057h.029Z" transform="translate(160.058 -9.627)" fill="#f2a5ba"/>
      <path id="_ス_1618" d="M52.87,36.118a.219.219,0,0,1,.028-.084h0v-.057H52.87c-.028.057-.057.084-.084.145,0,0,.028-.057.057-.057h0l.028.052Z" transform="translate(160.122 -9.658)" fill="#f2a5ba"/>
      <path id="_ス_1619" d="M52.96,36.4a1.269,1.269,0,0,0-.084.145h-.028a.349.349,0,0,0,.057-.088h0a.4.4,0,0,1,.057-.113h0V36.4Z" transform="translate(160.088 -9.853)" fill="#f2a5ba"/>
      <path id="_ス_1620" d="M52.845,36.491v.057h0a.145.145,0,0,1,.028-.084h-.028Z" transform="translate(160.09 -9.918)" fill="#f2a5ba"/>
      <path id="_ス_1621" d="M52.935,35.881l.057-.084-.084.084Z" transform="translate(160.057 -9.562)" fill="#f2a5ba"/>
      <path id="_ス_1622" d="M52.907,35.883h0l.028-.028Z" transform="translate(160.057 -9.594)" fill="#f2a5ba"/>
      <path id="_ス_1624" d="M51.633,35.2s.057-.145,0-.084v.057h0Z" transform="translate(160.738 -9.188)" fill="#f2a5ba"/>
      <path id="_ス_1627" d="M52.345,35.669v-.057C52.345,35.64,52.317,35.7,52.345,35.669Z" transform="translate(160.364 -9.464)" fill="#f2a5ba"/>
      <path id="_ス_1635" d="M50.535,36.387l.057-.057.084-.17-.145.226h0Z" transform="translate(161.327 -9.757)" fill="#f2a5ba"/>
      <path id="_ス_1636" d="M49.468,34.9s.084-.084.084-.057l-.057.084V34.9c.028-.028-.057.145.028,0v-.057a1.127,1.127,0,0,1,.113-.084c.057-.084,0,0,.028-.084-.057.145-.028,0-.084.113.057-.113,0-.057.057-.17,0,.028,0,.057-.028.028h0v.084a1.127,1.127,0,0,0-.113.084.087.087,0,0,1,.028-.057v.057a.336.336,0,0,1,.028-.145h0v-.052h-.028s-.113.084-.057-.028h-.028v-.057h0c.084-.145-.028-.057-.028-.084v.084H49.3v.057l-.057-.057h0c.057-.17-.113.084-.084-.028h0v-.051h0s0,.028-.057.084h-.028s-.028.057,0-.057c-.028.057-.057,0-.113.145h0a.378.378,0,0,1,.028-.145l-.113.113v-.062h0c.028-.113-.084-.057-.057-.17-.084.17,0-.084-.057.057,0-.028,0-.057.057-.084-.028.028,0-.084-.057,0,0-.028.028-.057.057-.084h0a.087.087,0,0,1,.028-.057,1.739,1.739,0,0,0-.145.226q0-.057-.028,0c0-.028,0-.084.057-.084,0,0,0-.084-.057,0h-.028s0,.028-.057.057h0s-.028,0,0-.084V34.4c-.113.145,0-.113-.057-.057V34.4s.057-.226.057-.254v-.03c0-.113-.057.084-.084.113,0-.057.057-.113.057-.145,0-.057-.113.145-.084.057a.113.113,0,0,1-.057.113s0-.17-.028-.057h0s-.057,0-.084.084c.084-.254-.113.084,0-.145h0a.1.1,0,0,0-.084.057v-.049q0-.057-.084.057v-.084s0-.145-.028-.057h0s0-.254-.113,0l-.057.057a.57.57,0,0,0-.057.17v-.115h0v-.145c-.057,0-.084-.113-.145-.145v.113h-.057s0-.113.028-.084c0-.057-.028.057-.057.084a.348.348,0,0,1,.057-.145h0s-.028.113-.057.113v-.072h0v.057s-.028,0-.057.084c.028-.17-.084-.084-.057-.145-.028.057-.057.057-.057.057s0,.113-.028.113c.057-.2,0-.084,0-.254,0,.113-.057,0-.084.17v-.145c-.057.084-.057-.057-.113-.057a.281.281,0,0,1-.028.113v-.145s-.028.17,0,.057v.057c-.057-.145-.2.084-.226-.2v.057s-.057,0-.057.113h0s-.028.254-.057.4c.028-.145,0,.2.057,0v.1c0-.057,0-.084.028-.057h0a.22.22,0,0,0,.084.113v-.03c.028-.113,0,0,0-.145,0,.145.057,0,.028.2,0,0,0-.084.028-.084h0v.113h.028a.183.183,0,0,0,.145-.084h.057l.028-.028a.17.17,0,0,1-.028.113c.057-.057.028-.057.084-.17v.061s0-.084.028-.084a.155.155,0,0,1-.057.145c0,.145.084-.113.057.084.057-.145,0-.084,0-.113,0-.057.057-.113.057-.084,0,0-.057.2,0,.2h0c.028-.084,0,0,.057-.113h-.028s.084-.145.084-.057a.145.145,0,0,1-.028.084h0c-.028.113-.028,0-.084.113,0,.057.057-.084,0,.057.057-.17,0,0,.084-.084v.084h0V34.6s-.028.084,0,.028a.379.379,0,0,1,.028-.145c.057-.084-.057.2,0,.17h0c.028,0,0-.084.057-.113,0,.084,0-.028.057-.057v.084s.028-.145.028-.084l-.057.084h0v.057h0a.348.348,0,0,1,.057-.145c0,.057-.028.057,0,.057,0,.057-.057.113-.028.028v.057h0l.057-.084s0,.057-.028.057v-.054a.336.336,0,0,1-.028.145l.057-.057v.084c0,.028.084-.113.084-.057h0s0,.057.057,0v.11s0-.145.057-.17c.028,0-.028.084-.028.113.028-.057.084-.145.084-.057h0v.057a.4.4,0,0,0-.084.145c.084-.2.057,0,.145-.2v.057h0s.084-.145.084-.084v.028h.057s.057-.028.057-.057v.084c-.084.2.028-.057,0,.084h0a.5.5,0,0,1-.028.17.738.738,0,0,1,.084-.226h0c-.028.084,0,.057,0,.057v-.032a.22.22,0,0,1-.057.145.477.477,0,0,1,.057-.145c0,.057,0,0,.084-.028,0,.028-.028.057-.028.084l.057-.084h0s.057-.057.057-.084c.057-.113-.057.17,0,.057a.407.407,0,0,1-.057.084.616.616,0,0,0,.113-.145v.057a1.533,1.533,0,0,1,.113-.226v-.081h.084l-.057.057h0l-.057.113V34.48l-.084.17h0l-.057.084h0s.17-.2.2-.226a1.681,1.681,0,0,0-.113.226c.028-.084-.057.028-.057,0,0,0,0,.057-.028.057l.084-.084a.145.145,0,0,1-.028.084c.057-.145.057-.084.113-.145a.1.1,0,0,1-.057.084c-.028.113.113-.17.084-.057h0c.028-.028.028,0,0,.057h0s.057.028.145-.084l-.084.17.254-.4a3.259,3.259,0,0,1-.226.423h0s.057-.17.084-.17c-.057.113,0,.057-.057.17,0,0,.084-.2.113-.17l-.084.17.113-.145a.674.674,0,0,0-.084.2c0-.028,0,0,.028,0h0s.145-.254.17-.226c0,.028-.113.2-.113.226.057-.084.226-.4.283-.452h0s-.226.367-.283.452v.057a.055.055,0,0,1-.054.057h0v.057a1.32,1.32,0,0,0,.145-.17L49,34.979s.17-.254.17-.226a.707.707,0,0,1-.113.2c0-.028.057-.057.057-.028v.057h0s-.057.145,0,.084c.057-.113.226-.452.283-.536a1.112,1.112,0,0,1-.057.17,1.5,1.5,0,0,1-.17.283s.028-.057.057-.057c0,0-.057.084-.028.084l.057-.084h0a1.568,1.568,0,0,1,.17-.226v.084s-.028.057,0,.084a.1.1,0,0,1-.057.084V35c.028-.057.057-.057.084-.084.057-.084,0,0-.028,0a1.216,1.216,0,0,1,.2-.283c.028,0-.028.084,0,.057,0,.028.145-.2.145-.084a1.228,1.228,0,0,1-.113.2c-.028,0,0-.057,0-.057h0s-.028.084-.028.057c-.028.084.057.057.028.113a.407.407,0,0,1,.057-.084h0a.528.528,0,0,0,.084-.113h0l-.325.18Z" transform="translate(163.27 -8.415)" fill="#f2a5ba"/>
      <path id="_ス_1642" d="M52.648,35.775s.057-.084.028-.057C52.732,35.662,52.592,35.8,52.648,35.775Z" transform="translate(160.202 -9.513)" fill="#f2a5ba"/>
      <path id="_ス_1643" d="M52.421,36.582v.028l.028-.084Z" transform="translate(160.317 -9.951)" fill="#f2a5ba"/>
      <path id="_ス_1646" d="M52.057,36.312v.028l.028-.057h0Z" transform="translate(160.511 -9.822)" fill="#f2a5ba"/>
      <path id="_ス_1648" d="M51.745,36.884a.1.1,0,0,0,.028-.057S51.716,36.884,51.745,36.884Z" transform="translate(160.682 -10.113)" fill="#f2a5ba"/>
      <path id="_ス_1649" d="M51.512,36.175h0l.084-.145Z" transform="translate(160.803 -9.687)" fill="#f2a5ba"/>
      <path id="_ス_1650" d="M50.777,36.763v-.057c-.028.028,0,0-.057.113,0,.057.057-.084.028-.028h0l.029-.029Z" transform="translate(161.225 -10.048)" fill="#f2a5ba"/>
      <path id="_ス_1651" d="M46.805,33.729l-.028-.057v.057Z" transform="translate(163.333 -8.427)" fill="#f2a5ba"/>
      <path id="_ス_1654" d="M49.108,36.245l.028-.084-.057.084h.029Z" transform="translate(162.103 -9.757)" fill="#f2a5ba"/>
      <path id="_ス_1658" d="M26.69,54.726v.028h.057S26.662,54.753,26.69,54.726Z" transform="translate(174.074 -19.68)" fill="#f2a5ba"/>
      <path id="_ス_1703" d="M25.352,52.219h.254c.057,0,.145,0,.084.028h.254c-.145,0,0-.028-.145,0h.119s.057-.028,0-.028h0s-.113-.057,0-.084h.057s.057,0,0-.028c.17,0,.028-.028.057-.057h-.084l-.057-.028h-.084a.055.055,0,0,0,.057-.054v0h0c.17,0-.113-.028,0-.057h-.2c.145,0,0-.057.145-.084h.057c-.057,0,.084,0-.057-.028h-.057s.057-.028-.057-.028h-.07s-.057,0,.057-.028H25.6c-.17,0,.113,0,.028-.028h-.057a.87.87,0,0,0,.254-.028h.057s-.2-.028-.084-.057h-.113s.17-.028,0-.028h-.113c.283-.028-.145-.028.113-.057h0a.2.2,0,0,0-.113-.057h.057c.057,0,.028-.028-.084-.028h.084s.145-.057.028-.057h.028c-.113,0,.226-.084-.084-.057h-.246s.084-.028.113,0h0c.17,0,.057-.028.17-.028,0-.028.084-.084.057-.145h-.2c.17-.028.057-.084.113-.084h-.17c.226,0,.084-.028.254-.057-.113,0-.028-.028-.17,0h.145c-.084,0,.057-.057,0-.084h.028s-.17,0-.057-.057h-.084s-.145-.084.113-.17H25.5l.113-.057H25.5l-.423.084c.145,0-.2.057,0,.057h-.026l-.084.084h0l.145-.028c-.17.028,0,.057-.17.084h.028s0,.057.084.057h.028s-.028,0,0,.028h0c-.145.028.145,0-.057.057.17,0,.084-.028.145-.028h.113s-.226.028-.226.057h-.084s-.084.057,0,.057a.378.378,0,0,0,.145-.028c.113,0-.2.028-.17.057h.084s.057,0,0,.028h0a.641.641,0,0,1-.113.028c-.028,0,.145,0,.084.028h.028s-.084.028,0,.028h-.212c.226,0,0,.028.254,0h.145s0,.028-.057.028H25.1c-.226,0,.057,0-.084.028h-.028a.6.6,0,0,0-.17.028.762.762,0,0,1,.254,0h-.026c-.028,0,0,0,.084.028h.113c.113,0-.17.028-.028.028h-.17s.31.057.367.057H25.16c.113,0-.057,0,0-.028h.028a.281.281,0,0,0-.113.028h.113s0,.057.145.057h.283s-.423.028-.48.028h-.2a1,1,0,0,0,.2.028h.536a.745.745,0,0,0-.2.028h-.057s-.057.028-.057.057h.226c0,.028.254,0,.145.057h-.254c-.084,0,0,.057-.084.057h0l-.043.4Z" transform="translate(175.073 -17.513)" fill="#f2a5ba"/>
      <path id="_ス_1710" d="M26.148,54.146l.084-.028h-.084Z" transform="translate(174.361 -19.356)" fill="#f2a5ba"/>
      <path id="_ス_1724" d="M0,37.219l.028.028L0,37.192v.028Z" transform="translate(188.338 -10.308)" fill="#f2a5ba"/>
      <path id="_ス_1725" d="M.121,37.134h0v.057s.028-.084.057-.057C.121,37.021.178,37.134.121,37.134Z" transform="translate(188.273 -10.25)" fill="#f2a5ba"/>
      <path id="_ス_1733" d="M.666,37.525l.028.057A.145.145,0,0,0,.666,37.5h0Z" transform="translate(187.982 -10.471)" fill="#f2a5ba"/>
      <rect id="_方形_160" height="0.084" transform="translate(188.523 26.91)" fill="#f2a5ba"/>
      <path id="_ス_1735" d="M.817,37.643V37.7l-.029-.084.028.028h0Z" transform="translate(187.917 -10.534)" fill="#f2a5ba"/>
      <path id="_ス_1736" d="M.909,37.616a.641.641,0,0,1,.028.113v-.086H.909Z" transform="translate(187.852 -10.534)" fill="#f2a5ba"/>
      <path id="_ス_1738" d="M.666,37.435s0,.057.028.057v-.057Z" transform="translate(187.982 -10.438)" fill="#f2a5ba"/>
      <path id="_ス_1741" d="M.424,37.011a.579.579,0,0,1,.028.145A.307.307,0,0,0,.424,37.011Z" transform="translate(188.112 -10.211)" fill="#f2a5ba"/>
      <path id="_ス_1743" d="M.817,37.4v-.028H.788V37.4Z" transform="translate(187.917 -10.404)" fill="#f2a5ba"/>
      <path id="_ス_1750" d="M.817,36.633l.028.057c-.028-.084,0-.113-.057-.226v.057a1.086,1.086,0,0,0,.145.339v-.086c0-.028-.057-.057-.057-.113h0l-.059-.028Z" transform="translate(187.917 -9.918)" fill="#f2a5ba"/>
      <path id="_ス_1751" d="M.972,37.313h0s0,.028.057.084v-.084H.972Z" transform="translate(187.819 -10.373)" fill="#f2a5ba"/>
      <path id="_ス_1752" d="M.844,37.119a.278.278,0,0,0-.057-.17v.084a.087.087,0,0,0,.028.057h0v.057h0l.029-.028Z" transform="translate(187.917 -10.178)" fill="#f2a5ba"/>
      <path id="_ス_1753" d="M.424,36.828a.414.414,0,0,1,.057.113.4.4,0,0,0-.057-.17h0v.084h0Z" transform="translate(188.112 -10.083)" fill="#f2a5ba"/>
      <path id="_ス_1755" d="M1.031,37.341l.028.057-.028-.084Z" transform="translate(187.787 -10.373)" fill="#f2a5ba"/>
      <path id="_ス_1756" d="M1.093,37.313l.028.057v-.029Z" transform="translate(187.754 -10.373)" fill="#f2a5ba"/>
      <path id="_ス_1758" d="M2.61,36.827s.084.145.057.057v-.057Z" transform="translate(186.943 -10.113)" fill="#f2a5ba"/>
      <path id="_ス_1761" d="M1.691,37.043a.028.028,0,0,0,.028.028C1.718,37.043,1.662,36.986,1.691,37.043Z" transform="translate(187.438 -10.215)" fill="#f2a5ba"/>
      <path id="_ス_1769" d="M2.367,35.13v.057l.084.2Z" transform="translate(187.073 -9.206)" fill="#f2a5ba"/>
      <path id="_ス_1770" d="M4.074,34.055s-.113-.254-.17-.4c.028.145-.113-.17-.057,0V33.63h0a1.33,1.33,0,0,1-.145-.057h0c.028.113.028,0,.057.113-.057-.145-.084,0-.145-.145,0,0,.028.084,0,.084h0s-.057-.057-.057-.084H3.531a.145.145,0,0,0-.113.145h0s-.028,0-.057.057h0V33.8c0-.028-.057-.084-.057-.113a.637.637,0,0,0,.028.2v.054c0-.057-.057-.084-.057-.145-.084-.113,0,.145-.084-.028.057.17.057.084.057.113,0,.057.028.113,0,.113,0,0-.084-.2-.113-.17h0s0,.057-.028,0c.028.084,0,0,0,.113h0s.028.145,0,.084v-.081h0c-.057-.113,0-.028,0-.145,0-.057,0,.084-.028-.028.057.17-.028,0,0,.113h0l-.057-.084s-.057-.057-.057,0c.028,0,.057.084.084.145,0,.113-.084-.17-.113-.113l.057.057-.057-.057a.641.641,0,0,1,.028.113c-.057-.084,0,.028,0,.084v-.086H2.938v-.052s-.028.057-.057.028c0,.057.057.145.028.145,0-.028,0-.057-.028-.057,0-.057-.028-.113,0-.028v-.061H2.825V34a.725.725,0,0,1-.057-.145v.086s-.057-.057-.057-.084c-.028-.028,0,.145-.028.084h0s-.084-.028-.057.057l-.057-.113s.084.113.057.17c0,.028-.057-.084-.057-.113,0,.057.028.17,0,.084h0v-.052a.413.413,0,0,0-.084-.145c.084.2-.057.057.028.254H2.487v-.052s.057.145,0,.145a.1.1,0,0,1-.028-.057v.057H2.432v.084s-.028-.113,0-.113c-.113-.2,0,.057-.084-.057h0c-.057-.145-.057-.084-.113-.17,0,.028.113.17.113.226h0c-.028-.084-.028-.057-.028-.057v.026a1.27,1.27,0,0,1-.084-.145.725.725,0,0,1,.057.145q-.042-.042,0,.084a.1.1,0,0,0-.022-.084V34.2h0a.29.29,0,0,1,.028.084c.028.113-.084-.145-.057,0a.145.145,0,0,0-.028-.084v.17l-.057-.057s.057.17.084.226l.057.084v.057a.145.145,0,0,0-.028-.084h0l-.057-.113v.057a.5.5,0,0,0-.028-.17h0l-.061-.084h0v.338c0-.084-.057-.145-.084-.226.057.084,0-.057.028-.028l-.028-.057v.113a.1.1,0,0,0-.061-.086c.057.145,0,.113,0,.17,0-.057-.028-.113,0-.084-.057-.113.057.2,0,.084h0c0,.057,0,0-.028,0h0s-.084,0-.028.145l-.057-.17.112.449a3.288,3.288,0,0,1-.17-.423h0a.941.941,0,0,1,.084.17l-.084-.17s.084.2.057.2a1.025,1.025,0,0,0-.084-.2l.057.17s-.057-.145-.084-.2h0s.057.283.028.283c0-.028-.084-.226-.113-.226,0,.084.145.423.145.509h0s-.145-.423-.17-.536c0-.028,0-.057-.028-.057v-.087H1.561a.336.336,0,0,0,.057.17v-.113s.084.283.057.283a1.159,1.159,0,0,0-.084-.226h0s0,.145-.028.057c0,0-.057-.113-.057-.057.057.113.2.48.226.565,0,0-.084-.113-.113-.145-.057-.084-.057-.226-.113-.283V34.7s-.028-.084-.028-.057c.028.113-.028,0,0,.084,0,.028,0,0-.028,0,.028.057.084.226.057.254a.145.145,0,0,0-.028-.084c-.028,0-.057-.057-.084-.028a.407.407,0,0,0-.057-.084v.057l-.028-.113v.145c.028.084.028,0,.028-.028a.851.851,0,0,1,.084.339c0,.028-.028-.084-.028-.057-.057,0,.057.226,0,.145a1.16,1.16,0,0,1-.084-.226c0-.028.057.057.057.028H1.34v-.061c-.028-.057-.084,0-.145-.057v.084h0a.22.22,0,0,0,.028.113h0c0,.057-.084-.113-.028,0v.057s.057.145.028.145c.028.084,0,0,.057.084-.057-.145.057,0,0-.145a.617.617,0,0,0,.084.145v-.054h0v-.2a.725.725,0,0,1,.057.145h0s.057.057.057,0h0v-.061h0s0-.113.084,0V35.3s.084.057.057,0c.084.145.057,0,.113.028v-.2a.039.039,0,0,0,.055,0h0c.084.145,0-.145.084-.028h.057L1.9,35.044v-.057s0-.057.057.084a.745.745,0,0,0-.028-.2h0v-.029a.833.833,0,0,1,.084.17V34.9s0-.084.028-.028c.057.113.084,0,.17.084-.084-.17.057.057,0-.057,0,.028.028.057.057.113,0-.057.057.057.028-.057a.1.1,0,0,0,.028.084h0V35.1a1.18,1.18,0,0,0-.084-.254c.028.057.028.028,0-.028,0,.028.057.084.028.084,0,0,.084.028.028-.057H2.32v-.055h0s0-.028.084.057v-.057c-.084-.145.028.084.028,0h0s.113.17.145.17v.028c.057.084-.028-.084,0-.113a.348.348,0,0,0,.057.145c0,.028-.028-.17.028-.084A.215.215,0,0,0,2.6,34.82s.113.145.057,0h0V34.7c.113.254,0-.145.113.084H2.8v-.057c.057.028.057,0,.028-.113V34.7s.145.084.113,0h0s.17.2.057-.057v-.084l-.084-.17s.057.057.057.084h0s.057,0,.084.113c.057-.028.145,0,.2,0L3.2,34.477h0s.028.084,0,.084c.028.057,0-.057,0-.084.057.028.028.145.057.145h0v-.116l.028.057h.028l-.057-.084v-.086c.084.145.113,0,.145.057v-.084s-.057-.113-.028-.113c.084.2.057.084.145.226-.057-.084.028-.028-.028-.17a.4.4,0,0,0,.057.113c0-.084.084,0,.113,0a.29.29,0,0,1-.028-.113l.084.113s-.057-.145,0-.057v-.057s.084-.17.254.057c-.028-.057,0-.057,0-.057h0s.057,0,.028-.113h0l.081-.141Z" transform="translate(187.709 -8.357)" fill="#f2a5ba"/>
      <path id="_ス_1774" d="M1,36.873s0-.028-.028,0Z" transform="translate(187.819 -10.13)" fill="#f2a5ba"/>
      <path id="_ス_1777" d="M.909,36.491v-.028l.028.084Z" transform="translate(187.852 -9.918)" fill="#f2a5ba"/>
      <path id="_ス_1783" d="M1.819,36.1h0l.057.145Z" transform="translate(187.366 -9.723)" fill="#f2a5ba"/>
      <path id="_ス_1784" d="M1.934,35.179a.087.087,0,0,0,.028.057c0-.028,0,0-.028-.113-.028-.028.028.084,0,.057Z" transform="translate(187.308 -9.199)" fill="#f2a5ba"/>
      <path id="_ス_1785" d="M7.524,35.009l.028.028Z" transform="translate(184.316 -9.141)" fill="#f2a5ba"/>
      <path id="_ス_1788" d="M3.762,34.339h0l.057.084Z" transform="translate(186.327 -8.783)" fill="#f2a5ba"/>
    </g>
    <g id="_mark" data-name="+mark" transform="translate(29 -148)" opacity="0.64">
      <circle id="circle-white" cx="9" cy="9" r="9" transform="translate(1168 287)" fill="#fffcfd"/>
      <circle id="circle-pink" cx="7.5" cy="7.5" r="7.5" transform="translate(1169 289)" fill="#f2aabe"/>
      <text id="_" data-name="+" transform="translate(1173 302)" fill="#fff" font-size="14" font-family="SourceHanSans-Bold, Source Han Sans" font-weight="700"><tspan x="0" y="0">+</tspan></text>
    </g>
  </g>
</svg>
