<svg xmlns="http://www.w3.org/2000/svg" width="41.011" height="44.957" viewBox="0 0 41.011 44.957">
  <g id="stethoscope_1_" data-name="stethoscope (1)" transform="translate(-22.468 0)">
    <path id="Path_1345" data-name="Path 1345" d="M56.185,8.717A7.292,7.292,0,0,0,53.551,22.81v8.505a8.4,8.4,0,0,1-4.93,7.632.878.878,0,1,0,.725,1.6,10.159,10.159,0,0,0,5.961-9.232V23.249a7.074,7.074,0,0,0,1.756,0v8.066a11.886,11.886,0,1,1-23.771,0V26.786q.435.033.878.033t.878-.032v4.528a10.179,10.179,0,0,0,5.846,9.179.878.878,0,0,0,.745-1.59A8.416,8.416,0,0,1,36.8,31.315v-4.79A11.8,11.8,0,0,0,46,15.053V5.023A4.663,4.663,0,0,0,41.608.373.877.877,0,0,0,40.89,0H39.236a3,3,0,1,0,0,6h1.5v9.031a6.532,6.532,0,0,1-1.883,4.6,6.327,6.327,0,0,1-4.542,1.917h0a6.542,6.542,0,0,1-6.567-6.5V6h1.642a3,3,0,1,0,0-6H27.724a.876.876,0,0,0-.714.368,4.662,4.662,0,0,0-4.542,4.654v9.911a11.868,11.868,0,0,0,9.068,11.582v4.8a13.642,13.642,0,1,0,27.283,0V22.81A7.292,7.292,0,0,0,56.185,8.717ZM40.012,4.243h-.776a1.243,1.243,0,1,1,0-2.486h.776ZM28.6,1.756h.776a1.243,1.243,0,1,1,0,2.486H28.6Zm13.167.4a2.906,2.906,0,0,1,2.476,2.87V7.97H42.488V5.475a1.6,1.6,0,0,0-.72-1.333ZM24.224,5.023a2.905,2.905,0,0,1,2.621-2.887V4.057a1.6,1.6,0,0,0-.865,1.418V7.969H24.224Zm0,9.911V9.726H25.98v5.328A8.3,8.3,0,0,0,34.3,23.307h0A8.07,8.07,0,0,0,40.1,20.865a8.278,8.278,0,0,0,2.386-5.835v-5.3h1.756v5.328a10.01,10.01,0,1,1-20.02-.12Zm31.961,6.614a5.537,5.537,0,1,1,5.537-5.537A5.544,5.544,0,0,1,56.185,21.548Z" fill="#f3a8b9"/>
    <path id="Path_1346" data-name="Path 1346" d="M376.822,149.838a2.854,2.854,0,1,0,2.854,2.854A2.857,2.857,0,0,0,376.822,149.838Zm0,3.951a1.1,1.1,0,1,1,1.1-1.1A1.1,1.1,0,0,1,376.822,153.789Z" transform="translate(-320.636 -136.681)" fill="#f3a8b9"/>
    <ellipse id="circle" cx="0.455" cy="1.364" rx="0.455" ry="1.364" transform="translate(44.648 39.231)" fill="#f3a8b9"/>
  </g>
</svg>
