<svg xmlns="http://www.w3.org/2000/svg" width="74.606" height="81.784" viewBox="0 0 74.606 81.784">
  <g id="stethoscope_1__active" data-name="stethoscope (1)_active" transform="translate(-22.468 0)">
    <path id="Path_1345" data-name="Path 1345" d="M83.806,15.857a13.266,13.266,0,0,0-4.792,25.637V56.967a15.281,15.281,0,0,1-8.969,13.884,1.6,1.6,0,1,0,1.319,2.91A18.482,18.482,0,0,0,82.209,56.967V42.294a12.87,12.87,0,0,0,3.195,0V56.967a21.622,21.622,0,1,1-43.244,0V48.729q.791.06,1.6.061t1.6-.059v8.237a18.518,18.518,0,0,0,10.634,16.7,1.6,1.6,0,0,0,1.355-2.893,15.311,15.311,0,0,1-8.795-13.8V48.253A21.467,21.467,0,0,0,65.277,27.385V9.137A8.482,8.482,0,0,0,57.287.679,1.6,1.6,0,0,0,55.981,0h-3.01a5.456,5.456,0,1,0,0,10.913h2.721V27.341a11.883,11.883,0,0,1-3.425,8.376A11.509,11.509,0,0,1,44,39.205H44a11.9,11.9,0,0,1-11.946-11.82V10.913h2.986A5.456,5.456,0,1,0,35.038,0h-3.01a1.594,1.594,0,0,0-1.3.67,8.481,8.481,0,0,0-8.262,8.467V27.167a21.591,21.591,0,0,0,16.5,21.07v8.73a24.817,24.817,0,1,0,49.633,0V41.495a13.266,13.266,0,0,0-4.792-25.638ZM54.384,7.718H52.972a2.262,2.262,0,1,1,0-4.523h1.412ZM33.626,3.195h1.412a2.262,2.262,0,1,1,0,4.523H33.626Zm23.952.722a5.286,5.286,0,0,1,4.5,5.221V14.5H58.888V9.96a2.905,2.905,0,0,0-1.309-2.425ZM25.663,9.137a5.285,5.285,0,0,1,4.769-5.253v3.5a2.907,2.907,0,0,0-1.574,2.58V14.5H25.663Zm0,18.031V17.693h3.195v9.693A15.1,15.1,0,0,0,44,42.4H44a14.681,14.681,0,0,0,10.542-4.443,15.059,15.059,0,0,0,4.341-10.615V17.693h3.195v9.693a18.21,18.21,0,1,1-36.419-.218ZM83.806,39.2A10.074,10.074,0,1,1,93.88,29.126,10.085,10.085,0,0,1,83.806,39.2Z" transform="translate(0 0)" fill="#fffcfd"/>
    <path id="Path_1346" data-name="Path 1346" d="M379.159,149.838a5.191,5.191,0,1,0,5.191,5.191A5.2,5.2,0,0,0,379.159,149.838Zm0,7.188a2,2,0,1,1,2-2A2,2,0,0,1,379.159,157.026Z" transform="translate(-295.353 -125.904)" fill="#fffcfd"/>
    <ellipse id="circle" cx="0.827" cy="2.482" rx="0.827" ry="2.482" transform="translate(62.818 71.368)" fill="#fffcfd"/>
  </g>
</svg>
