<svg xmlns="http://www.w3.org/2000/svg" width="34.878" height="35" viewBox="0 0 34.878 35">
  <g id="support" transform="translate(-0.894)">
    <path id="Path_1414" data-name="Path 1414" d="M245.724,4.447a.688.688,0,0,0,.688-.688V.688a.688.688,0,0,0-1.377,0V3.759A.689.689,0,0,0,245.724,4.447Z" transform="translate(-227.453)" fill="#ffc2cc"/>
    <path id="Path_1415" data-name="Path 1415" d="M35.1,100.189l-1.216-1.213a2.305,2.305,0,0,0-2.728-.389L28.864,96.3l.112-.111a2.389,2.389,0,0,0,0-3.374,2.363,2.363,0,0,0-1.2-.648,2.4,2.4,0,0,0,.095-.67,2.384,2.384,0,0,0-1.9-2.335,2.4,2.4,0,0,0,.095-.67,2.382,2.382,0,0,0-1.9-2.334,2.382,2.382,0,0,0-2.546-3.041l-4.541-.86a2.453,2.453,0,0,0-2.1.28,1.243,1.243,0,0,0-.1.108,2.394,2.394,0,0,0-2.512.552,2.369,2.369,0,0,0-.7,1.688,2.407,2.407,0,0,0,.095.67,2.384,2.384,0,0,0-1.9,2.332,2.4,2.4,0,0,0,.1.672,2.387,2.387,0,0,0-1.48,3.684,2.386,2.386,0,0,0-.916,3.947l.111.111L5.386,98.586a2.3,2.3,0,0,0-2.6.451l-1.217,1.214a2.3,2.3,0,0,0,0,3.248l1.519,1.517a.688.688,0,0,0,.973-.974l-1.519-1.517a.923.923,0,0,1,0-1.3l1.217-1.214a.922.922,0,0,1,1.123-.138.694.694,0,0,0,.087.106.685.685,0,0,0,.2.138l6.979,6.969a.678.678,0,0,0,.332.335.921.921,0,0,1-.038,1.257l-1.216,1.214a.925.925,0,0,1-1.3,0L8.4,108.376a.688.688,0,0,0-.974.974l1.52,1.52a2.305,2.305,0,0,0,3.247,0l1.217-1.215a2.3,2.3,0,0,0,.322-2.843l2.58-2.576.008-.008c.3-.305,1.118-.248,1.913-.193a9.9,9.9,0,0,0,1.811.012l2.825,2.822a2.3,2.3,0,0,0,.391,2.725l1.217,1.215a2.3,2.3,0,0,0,3.247,0l7.379-7.37a2.3,2.3,0,0,0,0-3.248ZM16.83,83.608l2.986.565L18.029,85.96a4.34,4.34,0,0,1-1.071-.778,3.167,3.167,0,0,1-1.013-1.565h0a.6.6,0,0,1,0-.068A2.333,2.333,0,0,1,16.83,83.608Zm-3.49.561a1.015,1.015,0,0,1,1.285-.122,4.924,4.924,0,0,0,1.381,2.129,5.1,5.1,0,0,0,1.983,1.229,1.01,1.01,0,0,1-1.545,1.29h0l-3.1-3.1a1.014,1.014,0,0,1,0-1.427Zm-1.8,3a1.015,1.015,0,0,1,1.431,0l2.5,2.5A1.012,1.012,0,0,1,14.04,91.1h0l-1.9-1.9-.009-.009L11.54,88.6a1.01,1.01,0,0,1,0-1.428Zm-1.8,3a1.019,1.019,0,0,1,1.426,0l1.9,1.9A1.01,1.01,0,0,1,11.635,93.5l-.69-.689h0l-1.206-1.2a1.013,1.013,0,0,1,0-1.429Zm-1.2,3.608a1.018,1.018,0,0,1,1.433,0l.691.69A1.01,1.01,0,0,1,9.231,95.9l-.086-.086,0,0,0,0-.6-.594a1.011,1.011,0,0,1,0-1.428Zm14.03,7.824a.688.688,0,0,0-.974,0l-.613.612c-.582.582-1.637.509-2.656.438-1.107-.077-2.253-.156-2.994.6L12.8,105.8,6.456,99.464,8.7,97.224a2.388,2.388,0,0,0,3.634-2.036c0-.006,0-.012,0-.018h.018a2.381,2.381,0,0,0,2.387-2.384c0-.006,0-.012,0-.018h.018a2.379,2.379,0,0,0,2.387-2.4h.018a2.388,2.388,0,0,0,2.038-3.63l1.967-1.966a1.01,1.01,0,0,1,.517-.275l.061-.009A1.009,1.009,0,0,1,22.6,86.2l-.6.6L22,86.8l-.69.689a.688.688,0,0,0,.973.974l.6-.6h0l.091-.091a1.014,1.014,0,0,1,1.429,0,1.01,1.01,0,0,1,0,1.427l-.6.6h0l-.69.687a.688.688,0,0,0,.972.976l.693-.69a1.01,1.01,0,0,1,1.43,1.428L25,93.41a.688.688,0,1,0,.974.973l.589-.589.01-.009A1.01,1.01,0,0,1,28,95.213l-.6.6h0l-.95.949a.688.688,0,0,0,.973.974l.465-.464,2.227,2.224-6.341,6.333L21.5,103.559a2.707,2.707,0,0,0,.452-.364l.612-.611a.688.688,0,0,0,0-.974Zm11.558.853-7.379,7.37a.925.925,0,0,1-1.3,0l-1.217-1.215a.921.921,0,0,1,0-1.3l7.379-7.37a.925.925,0,0,1,1.3,0l1.216,1.213a.923.923,0,0,1,0,1.3Z" transform="translate(0 -76.537)" fill="#ffc2cc"/>
    <path id="Path_1416" data-name="Path 1416" d="M84.434,6.424a.688.688,0,0,0,.973-.975L82.9,2.946a.688.688,0,0,0-.973.975Z" transform="translate(-75.304 -2.557)" fill="#ffc2cc"/>
    <path id="Path_1417" data-name="Path 1417" d="M372.34,6.626a.687.687,0,0,0,.487-.2l2.507-2.5a.688.688,0,1,0-.973-.974l-2.507,2.5a.688.688,0,0,0,.487,1.175Z" transform="translate(-345.412 -2.558)" fill="#ffc2cc"/>
    <path id="Path_1418" data-name="Path 1418" d="M60.127,430.4a.688.688,0,0,0,.008.974l0,0a.688.688,0,1,0-.01-.975Z" transform="translate(-55 -400.785)" fill="#ffc2cc"/>
    <path id="Path_1419" data-name="Path 1419" d="M333.2,333.5a.689.689,0,1,0-.309-1.3l0,0a.688.688,0,0,0,.313,1.3Z" transform="translate(-308.946 -309.414)" fill="#ffc2cc"/>
  </g>
</svg>
