<svg xmlns="http://www.w3.org/2000/svg" width="21.67" height="20.9" viewBox="0 0 21.67 20.9">
  <g id="telephone" transform="translate(0 -9.1)">
    <g id="Group_467" data-name="Group 467" transform="translate(0 9.1)">
      <g id="Group_466" data-name="Group 466" transform="translate(0 0)">
        <path id="Path_1500" data-name="Path 1500" d="M20.84,13.14a9.418,9.418,0,0,0-4.1-2.908,16.043,16.043,0,0,0-11.794-.018,9.414,9.414,0,0,0-4.11,2.9,3.718,3.718,0,0,0-.668,3.417,1.791,1.791,0,0,0,1.717,1.237l2.707,0h0a1.808,1.808,0,0,0,1.391-.649,1.779,1.779,0,0,0,.388-1.462q0-.023-.01-.046l-.142-.554a11.043,11.043,0,0,1,4.617-1.092,11.336,11.336,0,0,1,4.615,1.114l-.145.551q-.006.023-.01.047a1.779,1.779,0,0,0,.383,1.463,1.808,1.808,0,0,0,1.393.653l2.707,0h0A1.791,1.791,0,0,0,21.5,16.562,3.721,3.721,0,0,0,20.84,13.14Z" transform="translate(0 -9.1)" fill="#f3aabb"/>
      </g>
    </g>
    <g id="Group_469" data-name="Group 469" transform="translate(2.262 16.71)">
      <g id="Group_468" data-name="Group 468">
        <path id="Path_1501" data-name="Path 1501" d="M68.126,192.738l-2.018-2.119a.647.647,0,0,0-.468-.2h-1.3v-.881a.647.647,0,1,0-1.293,0v.881H60.971v-.881a.647.647,0,1,0-1.293,0v.881h-1.3a.647.647,0,0,0-.468.2l-2.018,2.119a8.859,8.859,0,0,0-2.454,6.136v2.66a.647.647,0,0,0,.647.647H69.933a.647.647,0,0,0,.647-.647v-2.66A8.859,8.859,0,0,0,68.126,192.738Zm-6.12,7.079a3.384,3.384,0,1,1,3.384-3.384A3.388,3.388,0,0,1,62.006,199.817Z" transform="translate(-53.432 -188.89)" fill="#f3aabb"/>
      </g>
    </g>
    <g id="Group_471" data-name="Group 471" transform="translate(8.745 22.161)">
      <g id="Group_470" data-name="Group 470">
        <path id="Path_1502" data-name="Path 1502" d="M208.694,317.691a2.091,2.091,0,1,0,2.091,2.091A2.093,2.093,0,0,0,208.694,317.691Z" transform="translate(-206.603 -317.691)" fill="#f3aabb"/>
      </g>
    </g>
  </g>
</svg>
