<svg xmlns="http://www.w3.org/2000/svg" width="36" height="49" viewBox="0 0 36 49">
  <g id="グループ_1434" data-name="グループ 1434" transform="translate(-1174 -35)">
    <path id="パス_2493" data-name="パス 2493" d="M7.366,19.193H11.49v-2.64H7.366q-2.6,0-2.6-1.721,0-1.686,2.6-1.687H9.7l-5.483-8.6A13.748,13.748,0,0,1,3.351,3.08a2.269,2.269,0,0,1-.2-.971A2.075,2.075,0,0,1,3.725.578,2.026,2.026,0,0,1,5.221,0,2.069,2.069,0,0,1,6.734.57,9.924,9.924,0,0,1,8.08,2.4L14,11.68l5.3-8.746c.193-.341.4-.7.621-1.072a8.667,8.667,0,0,1,.642-.954,2.514,2.514,0,0,1,.782-.651A2.264,2.264,0,0,1,22.454,0a2.06,2.06,0,0,1,1.493.559,1.827,1.827,0,0,1,.578,1.367A2.874,2.874,0,0,1,24.292,3.1a10.736,10.736,0,0,1-.724,1.339l-5.281,8.708h2.33q2.582,0,2.585,1.687,0,1.724-2.585,1.722H16.477v2.639h4.141q2.582,0,2.585,1.722,0,1.686-2.585,1.687H16.477v1.465q0,3.723-2.477,3.719-2.513,0-2.513-3.719V22.6H7.365c-1.736,0-2.6-.565-2.6-1.687Q4.76,19.2,7.366,19.193Z" transform="translate(1177.852 51)" fill="#f6b6c4"/>
    <rect id="長方形_271" data-name="長方形 271" width="36" height="49" transform="translate(1174 35)" fill="none"/>
  </g>
</svg>
