<?xml version="1.0" encoding="UTF-8"?>
<svg id="_レイヤー_2" data-name="レイヤー 2" xmlns="http://www.w3.org/2000/svg" xmlns:xlink="http://www.w3.org/1999/xlink" viewBox="0 0 800 232">
  <defs>
    <style>
      .cls-1 {
        filter: url(#drop-shadow-1);
      }

      .cls-2 {
        opacity: .8;
      }

      .cls-3 {
        fill: #f2a5ba;
      }

      .cls-3, .cls-4 {
        stroke-width: 0px;
      }

      .cls-4 {
        fill: #f1a1b4;
      }
    </style>
    <filter id="drop-shadow-1" filterUnits="userSpaceOnUse">
      <feOffset dx="4" dy="3"/>
      <feGaussianBlur result="blur" stdDeviation="3"/>
      <feFlood flood-color="#000" flood-opacity="0"/>
      <feComposite in2="blur" operator="in"/>
      <feComposite in="SourceGraphic"/>
    </filter>
  </defs>
  <g id="_レイヤー_1-2" data-name="レイヤー 1">
    <g>
      <g id="_グループ_5132" data-name="グループ 5132">
        <path id="_パス_1380-2" data-name=" パス 1380-2" class="cls-4" d="M114.1,139.4h-63.4V14.2h13.2v113.5h50.2v11.7Z"/>
        <path id="_パス_1381-2" data-name=" パス 1381-2" class="cls-4" d="M153.3,34.1c-4.7,0-8.6-3.9-8.6-8.8h0v-.5c-.1-4.9,3.7-9,8.5-9.2,4.8-.1,8.8,3.8,8.9,8.8v.4c.4,4.8-3.1,9-7.8,9.4-.3,0-.7,0-1,0h0ZM160,139.4h-13.2V49.9h13.2v89.5Z"/>
        <path id="_パス_1382-2" data-name=" パス 1382-2" class="cls-4" d="M203.6,49.9c0-11.2,0-25.8,9.5-35.8,5.4-5.3,12.6-8.2,20.1-8,4.4,0,8.8.8,12.9,2.6l-2.2,10.7c-3.2-1.4-6.6-2.2-10-2.1-13.7,0-17,13.2-17,27.6v5.1h21v10.7h-21v78.9h-13.2V60.6h-11.9v-10.7h11.9Z"/>
        <path id="_パス_1383-2" data-name=" パス 1383-2" class="cls-4" d="M328.9,135.6c-8.6,3.9-17.9,5.8-27.2,5.6-25.3,0-40.5-18.4-40.5-45.2s15.3-48.3,38.7-48.3,33.6,25.3,33.6,40.9-.2,5.4-.3,7.6h-59.1c.2,24.8,13.9,34.2,29.5,34.2,7.8.2,15.6-1.4,22.8-4.6l2.6,9.9h0ZM320.5,86c.2-12.2-4.8-27.9-21.8-27.9s-22.9,15.6-24.2,27.9h46Z"/>
        <path id="_パス_1384-2" data-name=" パス 1384-2" class="cls-4" d="M476.9,29.7c-6.5-3.9-13.8-5.9-21.3-5.8-16.9,0-23.3,10.7-23.3,19.7s7.3,18.6,23.6,25.6c19.6,8.5,29.6,18.9,29.6,36.8s-14,35.2-40.1,35.2c-10.2.1-20.2-2.6-29-7.9l3.7-11.3c7.8,5,16.9,7.7,26.1,7.7,16.2,0,25.8-9,25.8-22.5s-6.5-19.9-22.3-26.5c-18.3-7.1-30.7-18.1-30.7-35.3s15-33,37.1-33c8.6-.3,17.2,1.7,24.8,5.9l-4,11.3h0Z"/>
        <path id="_パス_1385-2" data-name=" パス 1385-2" class="cls-4" d="M525.6,33.6l13.1-4.6v20.8h22.5v10.7h-22.5v51.8c0,11.3,3.3,17.6,11.8,17.6,3,0,6-.3,8.9-1.3l.8,10.5c-4.1,1.6-8.5,2.3-12.9,2.1-21,0-21.7-19.7-21.7-29.2v-51.4h-13.4v-10.7h13.4v-16.3h0Z"/>
        <path id="_パス_1386-2" data-name=" パス 1386-2" class="cls-4" d="M651.2,118c-.2,7.1.3,14.3,1.3,21.4h-12.1l-1.3-11.5h-.5c-5.8,8.7-15.4,13.7-25.6,13.5-13.3.7-24.6-9.8-25.3-23.5,0-.7,0-1.3,0-2,0-21.5,18.2-33.2,50.3-33,0-7.6,0-24.6-19.7-24.6-7.5,0-14.9,2.1-21.2,6.4l-3.2-9.4c8-5.1,17.1-7.7,26.5-7.6,24.5,0,30.9,17.9,30.9,35.7v34.7h0ZM638.2,92.9c-16.4,0-36.9,2.5-36.9,21.4-.9,8.2,4.8,15.6,12.7,16.5.8,0,1.5.1,2.3,0,11.7.4,21.5-9,22-21v-16.9h0Z"/>
        <path id="_パス_1387-2" data-name=" パス 1387-2" class="cls-4" d="M732.3,61.4c-1.6-.2-3.2-.3-4.8-.3-14.3,0-21.7,14.6-21.7,29.7v48.6h-13.2v-62.8c0-9.5-.2-18.2-.6-26.8h11.6l.6,17.3h.5c3.1-10.9,12.5-18.6,23.6-19.2,1.3,0,2.7.2,4,.5v13h0Z"/>
      </g>
      <g id="_グループ_125" data-name=" グループ 125" class="cls-2">
        <path id="_パス_1407" data-name=" パス 1407" class="cls-3" d="M774.6,4c0,0,0-.2-.1-.2-.1.4.1.2.1.2Z"/>
        <path id="_パス_1408" data-name=" パス 1408" class="cls-3" d="M773.7,7.5v.5c0,0,0-.5,0-.5h0Z"/>
        <path id="_パス_1409" data-name=" パス 1409" class="cls-3" d="M773.1,9.6h0s.3,0,.3-.1h0l-.2-.5h0v-.5c0,0-.2,0-.4.1h0l.2.5c-.1.6-.3,1.2-.5,1.8.2-.2.3-.8.5-1.2h0ZM773.3,9v.4c-.1,0,0-.4,0-.4Z"/>
        <path id="_パス_1410" data-name=" パス 1410" class="cls-3" d="M771.7,12h0c0,.1,0,.3-.1.4.1,0,0,.4.2-.4h0Z"/>
        <path id="_パス_1412" data-name=" パス 1412" class="cls-3" d="M771.1,13.7v-.5s-.2.5-.2.3c-.1.5,0,.4.2.2h0Z"/>
        <path id="_パス_1414" data-name=" パス 1414" class="cls-3" d="M771.3,13.4v.5c-.1,0,0,0-.1-.2v-.3h.1Z"/>
        <path id="_パス_1415" data-name=" パス 1415" class="cls-3" d="M771.3,14.5v-.2c0,0,.2-.9.2-.9l-.2,1.1h0Z"/>
        <path id="_パス_1417" data-name=" パス 1417" class="cls-3" d="M768.8,17.3s-.3-.2,0-.2c-.3,0-.7,0-1,.2h1Z"/>
        <path id="_パス_1418" data-name=" パス 1418" class="cls-3" d="M767.3,17.4c.2,0,.3,0,.5-.1-.2,0-.3,0-.5.1Z"/>
        <path id="_パス_1424" data-name=" パス 1424" class="cls-3" d="M768.3,17.5s-.5,0-.8,0h1s.2-.1-.2-.1h0Z"/>
        <path id="_パス_1428" data-name=" パス 1428" class="cls-3" d="M766.4,17.4c.1,0,.3,0,.4,0-.1,0-.4-.1-.4,0Z"/>
        <path id="_パス_1430" data-name=" パス 1430" class="cls-3" d="M769.4,17.5c-.1,0-.2,0-.3.1h.3Z"/>
        <path id="_パス_1431" data-name=" パス 1431" class="cls-3" d="M763.8,17.8s1.3.2.8.3c-.7,0-.6,0-1-.1.3.2-1,.2-.8.5h.6c0-.1-.2,0,0,0,0-.1.7-.2,1.3-.1.6-.1.2-.5-.3-.8,0,0,0,.1-.6.2h0Z"/>
        <path id="_パス_1432" data-name=" パス 1432" class="cls-3" d="M764.5,17.6h1.3c-.3,0-.5,0-.8-.2-.4,0-.5.1-.5.2h0Z"/>
        <path id="_パス_1434" data-name=" パス 1434" class="cls-3" d="M769.4,17.9h-.9l.5.2h0c.5,0,.4-.1.5-.2Z"/>
        <path id="_パス_1435" data-name=" パス 1435" class="cls-3" d="M764.3,17.5v-.2c.1,0-.4.2-.4.2h.4Z"/>
        <path id="_パス_1436" data-name=" パス 1436" class="cls-3" d="M763.1,17.6h0c0-.1-.3,0-.3,0h.3c0,0,0,0,0,0Z"/>
        <path id="_パス_1437" data-name=" パス 1437" class="cls-3" d="M771.4,35.9v.2c-.1,0,.1-.3.1-.3h-.1Z"/>
        <path id="_パス_1439" data-name=" パス 1439" class="cls-3" d="M759.5,18.2h.1c0,0-.1,0-.1,0Z"/>
        <path id="_パス_1441" data-name=" パス 1441" class="cls-3" d="M793.7,20.9s-.6.6-.3.4l.6-.5h-.2c.3-.4.7-.7,1.1-1,.6-.4.5-.2.8-.4,0,0,.1,0,.3-.2l1.4-1-1,.5c.3-.4,1.1-.8,0-.2.2-.1.5-.2.8-.4-.3,0-.5,0-.8,0h0c-.1-.2-.3-.3-.4-.4-.2,0-.2,0-.7.2,0-.2-.2-.2-.4-.2-.4,0-.8,0-1.2.3h-1.9c-.4,0-.9.1-1.3.1h0c0-.1-.2-.2-.3-.3-.3,0-.6,0-.9.3-.3-.2-1.4,0-1.8-.4.2,0,0,.1-.4.1-.6-.2-1.3-.4-1.4-.5,0,0-.1,0-.2,0-.2,0-.4,0-1.1.5h-.8c-.4,0-.8,0-1.3-.1h-.2c-.6-.2-1.4-.4-1.6-.4v-.2h0c0-.2,0-.4,0-.6,0-.5-.1-1-.2-1.5-.1,0-.2-.2-.4-.2h-.3v-.2c-.1,0,0-.5,0-.5.2-.7.3-1.5.3-2.2,0,0-.2-.2-.3-.2-.2,0-.2,0-1,.4l-.2-.4h0c0-.7,0-1.3,0-1.9,0,0-.2-.2-.3-.2h-.2l.2-.5c.3-.7.5-1.5.6-2.2,0,0-.2-.2-.3-.2-.2,0-.4,0-.6.2h0c0-.2-.2-.2-.2-.3v-.2c-.7-1.1-.8-1.3-.8-1.4,0-.1-.2-.2-.3-.2h-.3c0-.1,0-.2,0-.4,0-.1-.2-.2-.3-.2-.2,0-.4,0-.5.1h0l.2.5h-.2c0,.1,0-.2,0-.2,0,.2-.5,1.2-.7,2-.4.7-.6,1.5-.7,2.4,0,0,.2.2.3.2.2,0,.2,0,1-.4-.2.3-.4.5-.7.8-.6.6-1.1,1.2-1.5,1.6v-.2c.1,0,.1-.3.1-.3,0,.2-.1.4-.2.6-.9,1-1.2,1.4-1.2,1.6,0,.2-.1.3-.2.5,0-.1.2-.3.2-.3h0c0,0,0,0,0,0,0,0,.2.2.3.2.8-.2,1.6-.6,2.3-1.1-.4.4-.8.8-1.2,1.2-1.1,1.2-1.9,1.9-2.4,2.4h0s-.3.4-.5.5v-.3s-.2.5-.3.5h.1c-.2.3-.2.4,0,.6,0,0,0,.1.1.1h0v.2h0c0-.1.2-.1.2-.1v.2s0,0,0-.1h0s.9-.4,3.6-2c1.2-.7,2.9-1.7,3.3-1.9,0,0,.2,0,.2,0,0,0,0,0,.1,0,0,0,.1,0,.1,0,0,.2,0,.4.2.6v-.2c.2.2.2.5.2.7.4.4-.3-1.1,0-.8,0,.3,0,.6.2.9-.4,0-1.2.4-9.2,5-1.9,1.2-4.2,2.5-5.8,3.4.3-.4.7-.8,1.1-1.2,2-2.2,2.8-3.4,2.7-3.7,0,0-.1-.1-.2-.2h-.2s.4-.1,0-.2h.6c-.2,0-.4,0-.5,0h-1.1c.3,0,.7,0,1,0-.2.1-.6.2-.5.4-.2,0-.4.2-.7.4h0c-.5.3-1.2.6-2.1,1.2-.7.4-1.5.9-2.1,1.2l.2-.6c.4-1.7.5-2,.4-2.1h.3c0-.1-.1-.1-.4-.1,0,0-.1-.1-.2-.2.3,0,.7,0,1,0-.3-.2-.2,0-.7-.2.5.3-1.8,0-1.1.3-.1,0-.3-.1-.5-.2.1-.2.1-.4,0-.5,0-.1-.2-.2-.3-.2-.5.2-1.1.4-1.5.7h-.1l-.3.2h-.2c-.3,0-.7.1-1,.2-.5,0,.1,0-.2-.2h-.5c0,.1-.5,0-.5,0l-.3-.2h0c-.2-.1-.5-.3-.7-.4,0,0-.1-.1-.2-.1-.3,0-.5,0-.7.2h-.2c-.1,0-.2,0-.3-.1,0,0-.1-.1-.2-.1-.2,0-.4,0-.5.1h-.1v.4c.1,0-.1,0-.1,0l.3.2h-.1s0,.2.1.2v.2h.3c.2.1.5.4,1,.7.5.3,1,.7,1.1.8.2.2.3.2.6,0,.1,0,.2.2.3.2.1.4.2.7.4,1,0,.1.2.2.3.2,0,.1,0,.3.2.4,0,.1.2.2.3.2h.3c.2.2.4.4.7.8s.8.9.9.9c0,.1.2.2.3.2.2,0,.5,0,.7-.2h0s.6.2,1.2.4h.1c-.2.4-.2.5,0,.7,0,.1.2.2.3.2.2,0,.4,0,.6-.1.6.5,1.3,1,2,1.5,0,.2,0,.3.1.4,0,.1.2.2.3.2.2,0,.3,0,.5,0l.7.9c.2.4.5.6.6.8,0,.1-.1.3-.2.4,0,0,0,.1,0,.2,0,.2-.1.5-.2.8h0c-1.8,2.1-2.6,3.3-2.4,3.6,0,0,.2.2.3.2.2,0,.2,0,.9-.3,0,.1.1,0,.2,0v.4c-.1,0-.2.2-.2.3-1.1.9-1,1.1-.9,1.4,0,.1.1.2.2.2,0,.1,0,.3,0,.5h0c-.2.5-.4,1.2-.6,1.6l-.3.9h0c-.3.9-.3,1-.2,1.2h0c0,.3-.1.5-.1.9h-.2c0,.3,0,.5-.1.7,0,.2,0,.4-.2.6-.1.2-.2.4-.3.6.5-.2,1.6-1,2.8-1.8.6-.4,1.2-.8,1.8-1.2.4-.3.8-.5,1.2-.7-.5-.1.9-.4.7-.6.2,0,.4-.1.2.1.7-.6,1.3-.7,1.7-1.3.2,0-.1.2,0,.2,0,0,.2-.2.3-.2s0,.1-.2.3c.8-.6.7-.9.6-1.1.4,0,.7-.4.9-.7.2,0,.5-.1,0,.2.3-.2,1.8-1.1,1.8-1.3.1,0,.4-.3.5-.4l.7-.5c.1,0,.2-.1.3-.2h0c0,.1.2.2.3.3.2,0,.3,0,.5,0,.5.5.6.5.8.6h.1c.4.5.9,1.1.9,1.1,0,.1.2.2.3.2.2,0,.3,0,.5-.1h0c0,.2,0,.4,0,.6-.2.7-.2,1.5-.2,2.2,0,0,.2.2.3.2l2.1-1h.2c0-.1-.3,0,.1.3,0,0,.2.2.4.2-.5.6-.4.6-.2.9,0,.1.2.2.3.2.2,0,.2,0,1.2-.5.2.1.4.2.5.4-.1-.2-.2-.4.2-.2.3.2.5.4.7.6,0,.6,0,1.2.1,1.7,0,.1.2.2.3.2.2,0,.2,0,1.5-.6.5.3,1.2.7,1.5.9,0,.2,0,.4,0,.6,0,.1.2.2.3.2h.1c.1,0,.3,0,.3-.1.2.2.5.4.7.5-.1-.2-.2-.5-.3-.8h0s.3-.5.2-.7c0,0-.1-.1-.2-.2h0s.3-.5.2-.7c0,0-.1-.1-.2-.2.2-.6.3-1.2.2-1.8,0-.1-.2-.2-.3-.2-.2,0-.2,0-.9.3,0-.2,0-.2-.1-.2v-.2c-.2-.4-.3-.8-.5-1.1,0-.2-.2-.3-.3-.5,0-.2,0,0,.1,0v-.4c.6-1.3.6-1.4.5-1.6,0-.1-.2-.2-.3-.2-.2,0-.4,0-.6.2.1-.4.2-.7.3-1h0c0-.2.1-.4.2-.5.2-.5.3-1,.2-1.5,0-.1-.2-.2-.3-.2-.4.1-.9.3-1.3.5,0-.3-.2-.7-.4-1,0,0,0,0,.1.1-.3-.7-.5-1.5-.6-2.3,0-.2-.1-.4-.1-.5v-.2h-.1c0-.3,0-.4.1-.6h0s.3-.3.2-.5l1.2-.9h0c2.1-1.5,4.2-2.8,6.1-4.2h-.3l.7-.5c.2,0,.3,0-.1.3.2,0,.3-.2.5-.4.1-.2.3-.4.3-.4.7-.4.7-.4.5-.1h-.2s0,0,0,0ZM795.7,19.4l-.3.2c.3-.3.3-.2.3-.2h0ZM765.6,26.1h0s-.2-.3-.3-.3h-.2v-.3h.2c0,0,0,.2.1.2,0,.1.2.2.3.2.4.1.7,0,7.4-4,.7-.4,1.5-.9,2.3-1.4-.9.6-1.7,1.4-2.5,2-3.1,2.5-4.6,3.7-5.3,4.4h0c-.1,0-.2-.2-.3-.2,0,0-.1-.1-.2-.1h-.1c0-.1-.5-.8-.6-.7.1.4,0,.8-.3,1-.2-.3-.4-.6-.5-.7h0ZM778.4,15.9c0,0,.2.2.3.2h.2c0,.2,0,.5,0,.7.2.6.1-.2.3.4v.2h.1c0,0-.2,0-.3,0-.3,0-.5-.1-6.8,3.7-.9.5-1.8,1.1-2.7,1.6.9-.7,1.8-1.4,2.7-2.1,3.5-2.7,5.1-4,6-4.7h0c0,0,0,0,0,0ZM784.2,26.2v-.2l1-.6c-.5.4.1.3-.8.8l.3-.5-.5.4h0c0,0,0,0,0,0ZM782.5,27.4h.2c-1.3.7-3.6,2-7.8,4.5,1.6-1,3.3-2.1,4.8-3,1.6-1,3-1.9,4.3-2.7h-.2c0,.1-.2.2-.2.2l-.2.2s-.6.4-1,.7h0c0,.1.1.1.1.1h0ZM783.6,33.9c0,0,.2.2.3.2h.2c-.5.3-1.1.6-1.8,1.1l-.8.5c.2-.2.4-.4.6-.6.6-.6,1-1.1,1.4-1.5,0,.3,0,.3.1.4h0ZM779.8,35s.1.2,0,.2v-.2ZM780.1,35c0,0-.1,0-.2-.1v-.2c.5-.2,1.2-.7,2.5-1.5h.2c-.4.3-.8.8-1.1,1.1-.4.4-.7.8-1,1.1-.2-.2-.2-.4-.2-.5h0ZM777.6,31.7c0,0,0-.1,0-.2h0c1.4-.9,2.7-1.6,3.8-2.3h0c.1,0,.3,0,.4,0h0c-.4.2-1,.6-2.1,1.2-.7.4-1.5.9-2,1.2h-.1c0,0,0,0,0,0ZM783,29.4c0,0,0-.1,0-.2,0,0-.1-.1-.2-.2h.2c0-.1.1.1.1.1v.2h0ZM782.8,30c-.3.9-.3,1-.2,1.2,0,.1.2.2.3.2h.1v.2c-.3.2-.8.5-1.3.8-.3.2-.7.5-1.1.7.2-.3.4-.6.6-.8.9-1.2,1.4-1.9,1.6-2.2h0c0,0,0,0,0,0ZM784,35.5c-.5.1-1,.3-1.4.6h.2c.5-.4,1-.7,1.5-1l-.3.4h0,0ZM785.1,37.9c0,0-.1,0-.2-.1l.3-.2-.2.3h0ZM785.3,36.3s-.7.4-1.4.8c.2-.3.5-.6.7-.8l.5-.6s.1.4.2.6ZM779.3,26.3c-3.1,1.8-6.6,3.9-9.4,5.6,2.2-1.4,4.7-3.1,7-4.5,4-2.4,8-5.1,11.7-7.9h0c.4,0,.7-.2,1-.4h0s.2.6.2.9h0c-2.3,1.4-5.7,3.4-10.7,6.4h.1,0ZM779.7,18h0v.4c0,0,0-.2-.1-.2,0,0,.1-.1.1-.2h0ZM779.5,18.3c.1.3.2.6.3.9h1.4c-1.3.8-3.1,1.8-5.8,3.4-1.3.8-2.8,1.6-4.1,2.4.7-.6,1.5-1.2,2.2-1.8,2.1-1.6,4.1-3.3,6-5h0ZM786.4,19h-.1c.3,0,.5-.1.8-.1-1.3.6-3.7,2.1-8.4,4.9-2.1,1.2-4.5,2.7-6.5,3.9,1-.6,2-1.4,3-2.1,5.6-3.8,8-5.6,9.1-6.5.7,0,1.5,0,2.2-.1h0ZM776,23.5c.9-.5,1.9-1.1,2.9-1.7-1.4,1-2.9,2.1-4.3,3-3.6,2.5-5.6,3.9-6.8,4.8h0c0-.1,0-.1,0-.1l.3-.2s0,0-.1-.1h0c0-.1.1-.1.1-.1,0,0,.2-.2.2-.4.5-.6.6-.8.6-1,1-.5,3-1.7,7.1-4.1h0c0,0,0,0,0,0ZM767.3,29.8h-.1c0,.1,0,0,0,0h.1ZM767.6,31.3c3.7-1.8,7.3-3.9,10.8-6.1-.7.5-1.4.9-2.1,1.4-4.3,2.8-7.2,4.7-9.1,5.9.5-.8.5-.9.3-1.1h0ZM766.4,31c0,0,0,.2.1.2h0c0,.1-.2.3-.2.3v-.5h.1ZM764.9,37.1h0l.2-.5s.2,0,.2.1v-.5s0-.4,0-.4c.1,0,.2-.1.3-.2,0-.1,0-.2,0-.3,1.9-.9,5.8-3.2,14.1-8.2,2.7-1.6,5.7-3.4,8.3-4.9-2.8,1.8-6,3.8-9,5.7-8.5,5.4-12.5,7.9-14.3,9.2h0,0ZM786.1,24.8c0,.1-.2.2-.3.4h-.1c0-.1.4-.4.4-.4h0ZM776.9,33s-.2-.2-.3-.2h-.1l.3-.2h0c0,.3.2.4.3.4.3,0,.3,0,3.1-1.6l.7-.4-.5.6c-.7.9-1.3,1.8-1.9,2.7-.3-.2-.6-.3-1-.5-.4-.4.2,0,0-.2h-.3c0-.1-.5-.6-.5-.6h0ZM791.7,18.8h.2c0,.1.2.1.2.1h.1c0-.1,0-.1,0-.1l-1.3.6v-.4c.1-.1.4-.2.6-.3h0s0,0,0,0ZM780.9,17.4h-.1c0-.1.1,0,.1,0ZM776.1,5h-.2c0,.1.1-.1.1-.1h0c0,.1,0,.1,0,.1ZM775.4,6.6c.2-.6.4-1.1.5-1.5v.2c.1,0,0,.6-.2.6.2.2.3.5.3.8l-.5.3-.4.2.3-.7h0ZM775.3,9.9c.6-.6,1-1.1,1.3-1.5,0,0,0,.1.1.2,0,.2-.2-.2-.2,0,.2.2.4.6.5.9-.2,0-.6.2-2.4,1.3h-.1l.8-.8h0c0-.1,0,0,0,0ZM773.8,14.4l-.6.4.8-.8c1.5-1.6,2.5-2.5,2.9-3.1h.4c.1.3.2.7.3,1.1v.4h0c-.3,0-.3-.1-3.8,2h0c0,0,0,0,0,0ZM770,20.4c1.5-.9,3.2-1.9,4.7-2.8-.9.7-1.8,1.4-2.7,2.1-2.4,1.6-4.5,3.4-6.5,5.4,0,0-.1-.1-.2-.2l.2.2h0c0,.1-.2.1-.3,0v-.2c0-.5,0-1.1-.2-1.6,1.2-.6,2.8-1.6,5-3h0ZM764.2,20.4l.8-.5c-.3.4-.6.7-.9,1.1-.9,1-1.5,1.7-1.9,2.2h-.3c-.5-.4-.7-.7-1.1-1,.3,0,.5,0,3.5-1.8h0s0,0,0,0ZM759.1,20.9c-.4-.5.6.4.3,0-.2,0-.4,0-.5-.2l-.4-.2h0s.6-.4,1-.6.9-.5,1.3-.8l-.2.8c-.3,1.6-.4,1.8-.3,2-.1-.1-.3-.2-.4-.3,0-.1-.5-.5-.2-.4-.2,0-.4-.1-.6-.3h0,0ZM758.8,21.1c-.2,0-.4-.1-.6-.2h-.2c0-.1.5-.4.5-.4,0,0,.8.5,1.1.6-.1.1-.3.1-.7,0h0c0,0,0,0,0,0ZM760.5,18c-.3.2-.9.5-1.5.9-.5.3-1.1.7-1.7.9h0l-.2-.5s.7-.4,1.6-.9l.5-.3h.1c.2-.1.4-.2.6-.4h.3l.2.2c-.2,0-.5,0-.7,0,.3,0,.5,0,.8,0h0ZM759.5,22.6h-.1c0-.1-.1-.2-.1-.2h.1c0,.1.2.2.2.2h-.1ZM770.3,36.3c.2-.1.3-.2.5-.3-.2.1-.3.2-.5.3h0ZM771.4,36.3s0,0,0-.2h-.1c-.3.2-.3,0-.1-.2h.4c0-.1.2-.6.1-.7l-.2.2h0c0-.1-.2.1-.2.1h-.3l-1.2.6c-.7.9-1.4,1.7-2.3,2.4.2-.4-.1-.3-.2-.5.5,0,.9-.7,1.5-1.1-.3.2-.3,0-.3,0l-1,.9c-.2,0-.5.1-.7.2.2,0,0,.2-.2.5-.1.1-.3.2-.5.4h-.1c0,.1,0,.1,0,.1v.2c-.1,0-.1-.2-.1-.2,0,0,0,0,.1-.1,0-.1.2-.2.3-.2,0,0-.2,0-.2.1h-.1c0,.1,0,.1,0,.1,0,0,0,.2-.1.2,0,.2-.2.4-.5.4.1,0,.2,0,.2-.2-.1.2-.3.3-.5.4-.1,0-.2,0-.1,0h0c-.3.2-.7.4-1,.6v-.4l.4-.2s.6-.4.7-.4h0s.3-.5.2-.7h-.1c1-.6,2.8-1.7,6.1-3.6h0c0,.1.2.1.2.2h.1c0,0,.2,0,.2,0-.1.2-.3.4-.5.6.2,0,.3,0,.5-.1l-.7.6h.3s0,0,0,0Z"/>
        <path id="_パス_1442" data-name=" パス 1442" class="cls-3" d="M771.4,35.3h.1s0,0-.1,0Z"/>
        <path id="_パス_1444" data-name=" パス 1444" class="cls-3" d="M760.9,17.4h-.5c.2,0,.3,0,.5.1,0,0-.1,0,0-.1Z"/>
        <path id="_パス_1446" data-name=" パス 1446" class="cls-3" d="M756.5,17.7c.3,0,0-.2.2-.1.1,0-.4,0-.7,0-.3,0-.3.1.4,0h0Z"/>
        <path id="_パス_1448" data-name=" パス 1448" class="cls-3" d="M776.3,4.1l-.3-.2c0,.1,0,.3.1.4l.2-.2h0Z"/>
        <path id="_パス_1450" data-name=" パス 1450" class="cls-3" d="M765.4,10.7h-.1c0,0,0,0,0,0h0Z"/>
        <path id="_パス_1451" data-name=" パス 1451" class="cls-3" d="M765.2,10.7h.2s-.2-.1-.2-.2c-.2.2.1,0,0,.2Z"/>
        <path id="_パス_1454" data-name=" パス 1454" class="cls-3" d="M765.4,10h.1s0,0,0-.1c0,0-.1,0-.2.1Z"/>
        <path id="_パス_1457" data-name=" パス 1457" class="cls-3" d="M765.4,10.2s0,0-.1.1c0,0,.2,0,.1-.1Z"/>
        <path id="_パス_1459" data-name=" パス 1459" class="cls-3" d="M765.2,9.9h0s0,0,.1-.1c0,0-.1,0-.2.1h0Z"/>
        <path id="_長方形_143" data-name=" 長方形 143" class="cls-3" d="M765,10.3h.2s-.2,0-.2,0Z"/>
        <path id="_パス_1461" data-name=" パス 1461" class="cls-3" d="M765.2,9.6h.2c0,0-.2,0-.2,0h0Z"/>
        <path id="_パス_1462" data-name=" パス 1462" class="cls-3" d="M765.2,9.5s.1-.1.2-.1h-.2Z"/>
        <path id="_パス_1464" data-name=" パス 1464" class="cls-3" d="M765.2,9.7h-.1c0,.1.1,0,.1,0Z"/>
        <path id="_パス_1465" data-name=" パス 1465" class="cls-3" d="M765.1,9.8h0c0,0,0,0,0,0Z"/>
        <path id="_パス_1467" data-name=" パス 1467" class="cls-3" d="M764.8,10.2c0,0,.2-.1.3-.1-.1,0-.2,0-.3.1Z"/>
        <path id="_パス_1469" data-name=" パス 1469" class="cls-3" d="M765,9.7s.1,0,.1,0h-.1c0,.1,0,0,0,0Z"/>
        <path id="_パス_1476" data-name=" パス 1476" class="cls-3" d="M764.4,9.6s0,0,0-.1c-.1.1-.2,0-.5.2h.1s-.1,0-.1,0c.1,0,.2,0,.2,0,.2,0,.5-.2.7-.4h-.2s-.1.2-.2.2h0c0,.1,0,.1,0,.1Z"/>
        <path id="_パス_1477" data-name=" パス 1477" class="cls-3" d="M764.8,9.4h0c0,.1.1,0,.1,0,0,0-.1,0-.1,0Z"/>
        <path id="_パス_1478" data-name=" パス 1478" class="cls-3" d="M765,9.5h-.2c-.1,0-.2,0-.3.2h.2s0,0,.1-.1h.2Z"/>
        <path id="_パス_1479" data-name=" パス 1479" class="cls-3" d="M764.5,10.3h0c0,0,0,0,0,0Z"/>
        <path id="_パス_1480" data-name=" パス 1480" class="cls-3" d="M764.8,10c-.1,0-.2.2-.3.2h0s0,0-.1,0c0,0,.1,0,.2,0h0l.2-.2h0c0,0,0,0,0,0Z"/>
        <path id="_パス_1482" data-name=" パス 1482" class="cls-3" d="M764.9,9.3h.1c0,0-.2,0-.2,0h.1Z"/>
        <path id="_パス_1483" data-name=" パス 1483" class="cls-3" d="M765,9.2h-.2c0,0,.2,0,.2,0Z"/>
        <path id="_パス_1485" data-name=" パス 1485" class="cls-3" d="M763.6,7.2h.1c0-.1-.1-.1-.1-.1h0c0,.1,0,.1,0,.1Z"/>
        <path id="_パス_1488" data-name=" パス 1488" class="cls-3" d="M764.3,8.4h0c0-.1-.2,0,0,0Z"/>
        <path id="_パス_1490" data-name=" パス 1490" class="cls-3" d="M764.3,8.3s0-.1,0,0h0s0,0,0,0h0Z"/>
        <path id="_パス_1497" data-name=" パス 1497" class="cls-3" d="M761.8,7.4h.2l.3-.2-.5.2Z"/>
        <path id="_パス_1498" data-name=" パス 1498" class="cls-3" d="M757.8,1.2h-.1c.1,0,.2,0,.2.1h0s0,.2.1.4h.1c0-.1,0,0,0,0,.2-.1,0,0,.2-.2-.2.2.2.2-.1.5,0,0,.1-.1.2-.1h0c0,0,0,.1-.1.2h0s.1,0,.1.1h0c.1.1.3.2.4.2h0s0,0,.1.1h.1c-.1,0-.1.2-.2.2.2,0,.1,0,.4-.1h-.1c0,.1.2,0,.2.1-.1,0-.1.1-.3.2-.2.2.3,0,0,.2.3-.2.1-.2.2-.2,0-.1.2-.1.2,0,0,0-.3.3-.2.4h0s.1,0,0,.1c.2-.1,0,0,.2-.1h-.1s.4-.2.3,0h-.2s0,0,0,0c-.2.2-.1,0-.3,0,0,0,.2,0,0,.1.3-.2,0,.1.3,0h-.1c0,.1,0,.1,0,.1,0,0,0,.2,0,.2,0,0,.2-.1.2-.2.2,0-.3.3-.2.4,0,0,0-.1.1-.1h0c0,0,0,.1-.1.2,0,0,.1-.1.2-.1-.2.1.1,0,.2,0h-.1c0,.1.3,0,.2.1h-.2c0,.1,0,.1,0,.1h-.2c0,.1.1.1.1.2.1,0,.2-.2.3-.1,0,0-.1,0,0,.1-.1,0-.2.1-.1,0h-.1v.2h.3c0,0-.2,0-.3.1h.2s-.1.1-.2.1c0,0,.3,0,.2,0h0s-.1.2.1.2l-.2.2s.2-.2.3-.2c.1,0-.2.1-.2.2.1,0,.3-.1.2,0h-.1c-.1.1-.2.2-.3.2.4-.2.2.1.6,0h.2s0,.1-.1.1h.2c0,.1.2.1.2.1,0,0-.2.1-.2,0-.4.3.1,0,0,.2h0l-.2.2s.3-.3.5-.3c0,0,0,0,0,0-.2,0-.1.1,0,.1h-.2c0,.1.2,0,.3,0l-.3.2s.2-.2.3-.1c0,.1,0,.1.2.1,0,0-.1,0-.2.1h.1c0,0,.2-.1.3-.1.2-.1-.2.3,0,.2,0,0-.1,0-.2.1h.4-.1c.2,0,.3,0,.5,0h.1c0-.1.2-.1.2-.1,0,0-.1,0-.2.1h0c0,0-.2.1-.3.1h.1c0-.1-.3,0-.4,0h0l-.2.2h.1c.2,0,.5,0,.7,0-.2,0-.3.1-.5.2.2-.1-.1,0-.1-.1,0,0-.1,0-.1.1h.2c0,0-.1.1-.2.2.3-.2.2,0,.3,0-.1,0-.2.1-.2,0-.2.2.4-.1.2,0h0c.1,0,0,.1,0,.1h0c0,.1.2.2.4.1,0,0,0,0,0,0h0l-.3.2,1-.3c-.3.2-.6.3-.9.4,0,0,0,0,0,0,0,0,0,0,0,0,.1,0,.2-.1.3-.2-.2.2-.1.1-.3.3,0,0,.4-.2.4-.2-.1,0-.3.1-.4.2h.4c0-.1-.4.1-.4.1,0,0,0,0,0,0h0s.5-.2.6-.1c0,0-.5.2-.5.3.4-.1.7-.3,1.1-.4h0s-.9.4-1.1.4c0,0-.1,0,0,.1,0,0-.2,0-.2,0h0c.1.1.3,0,.4,0h-.3s.6-.2.6-.1c-.1,0-.3.2-.5.2h0s.3,0,.2.1c0,0-.2.2-.1.1.3-.2.7-.4,1.1-.6,0,.1-.2.2-.3.3-.2.1-.5.2-.6.3h.2s-.2,0-.1.1c.2-.1,0,.1.2,0,0,0,0,0,0,.1.2,0,.4-.1.6-.2,0,0,0,0-.1.1v.3c0,0,0,.1-.2.1h.1s0,0-.2.1c.1,0,.2,0,.3,0,.2-.1,0-.1-.1-.1.2-.1.5-.2.7-.2.1,0-.2.1-.1.1,0,.2.5-.1.4,0-.1.1-.3.2-.5.2-.1,0,0-.1,0-.2h0s-.1,0-.1,0c-.1.1.1.2,0,.4,0,0,.1,0,.2,0h0s.2,0,.2-.1h.2-.2c0,.1.1,0,0,0,.1,0-.2.2,0,.1h.1c0-.1.3-.2.3-.1.2-.1,0,0,.2-.2-.2.2,0-.1-.3,0,.2-.2,0-.1.2-.3,0,0-.1,0-.1,0h0c0,.1-.3.1-.3.1,0,0,0,0,.1,0h-.1s.2-.2.3-.2h0s0-.2,0-.2h-.2s-.3-.1-.1-.4c0,0-.1,0-.1,0h.1s0-.2,0-.2c.3-.2,0-.2,0-.3h-.5v-.2h0c.2-.2-.3,0-.2-.3h0c0-.1-.1,0-.2,0h-.1s-.1,0,.1-.2c-.1,0-.3,0-.4,0h0c0-.1.2-.2.2-.2h-.3c0,0,.2,0,.3-.1h-.3s-.2,0-.1-.1c.2-.2-.1-.3,0-.5-.3.2.1-.2-.2,0,0,0,.1-.1.2-.1-.1,0,0-.2-.2-.1,0,0,.1,0,.2,0h.1c-.2,0-.4,0-.6.2.1-.1,0-.1-.1,0,0,0,.1-.1.2-.1,0,0,0-.2-.2-.1h0s0,0,0-.1h-.1s-.1,0,0-.2h-.1c-.3.2.1-.1,0-.1h0c.1,0,.3-.2.4-.3h0c0,0-.2,0-.3,0,.1,0,.3-.1.2-.2,0,0-.4,0-.2-.1,0,0-.1.1-.2.1,0,0,.2-.3,0-.2h0c-.1,0-.2,0-.3,0,.5-.3-.4,0,0-.4h-.1c0-.2-.2-.2-.3-.1,0,0,0,0,.1,0,0-.1,0-.2-.3-.1h.1c0-.1.1-.4-.1-.4h0s.2-.5-.3-.2h-.1c-.1,0-.2.1-.3.2,0,0,.1-.2.2-.2h0c0-.1,0-.2.2-.3-.1-.2-.1-.5-.2-.6l-.2.2h0l.2-.2c.1-.1-.2,0-.2,0,0-.1.3-.1.2-.2h0s-.2.1-.2,0c0,0,.1-.1.1-.1h-.2l-.2.2c.2-.2-.1-.4,0-.4,0,0-.2,0-.2,0,0,0-.2.2-.2.1.4-.3,0-.2.3-.5-.1.2-.2-.1-.3.2,0,0,.1-.1.2-.2-.2,0,0-.3-.2-.4l-.2.2.2-.2s-.3.2-.2,0c0,0,0,.1-.1.1,0-.2-.2-.3-.3-.4s-.2-.2-.2-.5c0,.1,0,.1-.1,0l-.2.2v-.2s0,0-.2,0h0c-.2.2-.4.5-.6.7.2-.2-.2.4.2.2h0l.5-.2h0ZM760.8,5.5h0c.2,0,.1,0,0,0h0Z"/>
        <path id="_パス_1502" data-name=" パス 1502" class="cls-3" d="M764.4,9.3s0,0,0,0h0s.1-.1,0,0Z"/>
        <path id="_パス_1504" data-name=" パス 1504" class="cls-3" d="M764.6,8.9s.2,0,.1,0c.2,0-.2,0-.1,0Z"/>
        <path id="_パス_1505" data-name=" パス 1505" class="cls-3" d="M764,9.6h.2c0,0-.2,0-.2,0h0Z"/>
        <path id="_パス_1508" data-name=" パス 1508" class="cls-3" d="M763.6,8.8s0,0,0,0h0,0Z"/>
        <path id="_パス_1509" data-name=" パス 1509" class="cls-3" d="M763.4,9.2h.1c0,0-.2,0-.2,0h0,0Z"/>
        <path id="_パス_1510" data-name=" パス 1510" class="cls-3" d="M763.3,9s-.2,0-.1,0c0,0,.1,0,.1,0Z"/>
        <path id="_パス_1511" data-name=" パス 1511" class="cls-3" d="M763.1,8.2h0l.3-.2-.3.2h0Z"/>
        <path id="_パス_1512" data-name=" パス 1512" class="cls-3" d="M762.3,7.9s0,0-.2.1c0,.1.2,0,.1,0,0,0,0,0,.1-.1Z"/>
        <path id="_パス_1513" data-name=" パス 1513" class="cls-3" d="M758.5,0h0c0,.1,0,.1,0,.1h0Z"/>
        <path id="_パス_1514" data-name=" パス 1514" class="cls-3" d="M758.3.2V0c.1,0,0,.1,0,.1h0Z"/>
        <path id="_パス_1515" data-name=" パス 1515" class="cls-3" d="M760.5,5.7h-.1c0,.1,0,0,0,0h.1Z"/>
        <path id="_パス_1516" data-name=" パス 1516" class="cls-3" d="M760.3,5.3h.2c0,0-.2,0-.2,0Z"/>
        <path id="_パス_1520" data-name=" パス 1520" class="cls-3" d="M795,3.7h0c0-.1-.1,0-.2,0,.1.2.1,0,.2,0h0Z"/>
        <path id="_パス_1523" data-name=" パス 1523" class="cls-3" d="M794.3,3.3s0,0,0,0c0,0,0,.1,0,.2h0Z"/>
        <path id="_パス_1526" data-name=" パス 1526" class="cls-3" d="M794.6,3.6s0-.2-.1-.1c0,0,.1,0,.1.1h0Z"/>
        <path id="_パス_1528" data-name=" パス 1528" class="cls-3" d="M794.2,3.5s0,0-.1-.1c0,0,0,.1.1.2h0Z"/>
        <path id="_パス_1531" data-name=" パス 1531" class="cls-3" d="M793.8,3.5h0c0-.1,0,0,0,0h0Z"/>
        <path id="_パス_1532" data-name=" パス 1532" class="cls-3" d="M793.7,3.5s-.1-.1-.1-.2v.2h.1Z"/>
        <path id="_パス_1534" data-name=" パス 1534" class="cls-3" d="M794,3.7s0-.1-.1-.1h.1Z"/>
        <path id="_パス_1537" data-name=" パス 1537" class="cls-3" d="M794.5,4c0,0-.1-.2-.1-.3,0,.1,0,.2.1.3Z"/>
        <path id="_パス_1538" data-name=" パス 1538" class="cls-3" d="M794.2,3.7h0c0,.1,0,.1,0,.1,0,0,0,0,0-.1Z"/>
        <path id="_パス_1539" data-name=" パス 1539" class="cls-3" d="M793.9,3.8s0-.1,0-.1h0c0,.1,0,.1,0,.1Z"/>
        <path id="_パス_1546" data-name=" パス 1546" class="cls-3" d="M793.8,4.4h-.1c.1.1,0,.2.2.5h0c0-.1,0,0,0,0,0-.1,0-.2,0-.2-.1-.2-.3-.5-.5-.6v.2c.1,0,.2.1.2.2h.1Z"/>
        <path id="_パス_1547" data-name=" パス 1547" class="cls-3" d="M793.5,4h.1c0,0-.1-.1-.2-.2v.2h0Z"/>
        <path id="_パス_1548" data-name=" パス 1548" class="cls-3" d="M793.7,3.9c0,.1,0,.3.2.4v-.2s0,0-.1-.1h0c0-.1,0,0,0,0h0Z"/>
        <path id="_パス_1550" data-name=" パス 1550" class="cls-3" d="M794.5,4.2h0c0,0,0,0,0,0h0s-.2-.1-.2-.2c0,.1.1.2.2.3h0c0,0,0,0,0,0Z"/>
        <path id="_パス_1552" data-name=" パス 1552" class="cls-3" d="M793.5,4h-.1c0-.1.1,0,.1,0h0Z"/>
        <path id="_パス_1553" data-name=" パス 1553" class="cls-3" d="M793.4,4h0c0-.1,0,0,0,0h0Z"/>
        <path id="_パス_1555" data-name=" パス 1555" class="cls-3" d="M791.1,5.7s-.3-.2-.2,0h.1c0,.1,0,.1,0,.1h0c0,0,0,0,0,0Z"/>
        <path id="_パス_1556" data-name=" パス 1556" class="cls-3" d="M790.5,7.6h-.1c0-.1,0,0,0,0h.1Z"/>
        <path id="_パス_1557" data-name=" パス 1557" class="cls-3" d="M789.6,10.1h.1c0,.1,0,0-.1,0Z"/>
        <path id="_パス_1558" data-name=" パス 1558" class="cls-3" d="M792.4,4.7h-.1s.2.1.1,0Z"/>
        <path id="_パス_1559" data-name=" パス 1559" class="cls-3" d="M788.8,8.3h0c0,0,0,0,0,0Z"/>
        <path id="_パス_1565" data-name=" パス 1565" class="cls-3" d="M793,4.2h0c0,0,0,0,0,0h0Z"/>
        <path id="_パス_1567" data-name=" パス 1567" class="cls-3" d="M791.8,7.3s0-.2,0-.1l-.3-.3.3.4h0Z"/>
        <path id="_パス_1568" data-name=" パス 1568" class="cls-3" d="M785.8,12.8c0,0,.1,0,.2.1h-.3s0,.1.1.2h0c.3,0,.5.2.8.4-.2-.2.5,0,.2-.2,0,0,0,0,.2.1,0,0,0-.1,0-.1h0c.1,0,.3-.2.4-.2h-.2.1c-.2-.2,0,0-.3-.2.3.1.2-.2.5,0,0,0-.2,0-.1-.1h.2s0-.1,0,0h0s.2-.2.1-.5h0c0,0,.1-.1.1-.2h0s0-.1,0-.1c0,0,.2,0,.2.1,0-.2,0-.1-.3-.4h.1s-.1,0-.1-.1c0,.1.2,0,.3.2.3,0-.1-.3.2-.1-.3-.2-.2,0-.3,0-.1,0-.2-.2-.1-.2,0,0,.4.2.5.1h0s0-.1.1,0c-.2-.1,0,0-.2-.2h0c0,.1-.3-.2-.1-.2h.1c0,.1,0,0,0,.1.2.2,0,.1.1.3.1,0-.1-.2.1,0-.3-.2.1,0-.1-.3h.1c0,.1,0,0,0,0h.1c0,.1.2.1.2,0,0,.1-.2,0-.3-.1-.1-.2.4.2.5,0h0c0-.1-.2,0-.2-.2.2,0,0,0,0-.2h.1c0,.1-.3-.1-.1-.1l.2.2h.1c-.1-.1-.2-.3-.2-.4.1,0,.1.1.2,0,0,0,.2.2,0,.1h.1c0,.1.1,0,.1,0h0v-.2c-.1,0,0,0,0,.1h0c.1,0,.2,0,.2.1v-.2c0,0,.1,0,.1.1h0c.1,0-.1-.2,0-.2h0s.2,0,.1-.2h.2c0,.1-.3,0-.3-.2s.2.1.2.1c0-.1-.2-.3,0-.2h0c0,0,.1,0,.1,0,0,.1,0,.3.2.3-.3-.3.1-.2-.3-.5h.1s-.2-.2-.1-.2c0,0,.1,0,.2,0h0c0-.1,0-.1,0-.1,0,0,0-.2-.1-.2,0,0,0,0,0,0h0c0-.1.1,0,0,0,.4.2,0-.1.2,0h0c.1,0,.2.1.3.2-.2,0-.3-.2-.5-.3,0,0,0,0,0,0,.1.1.1,0,.1,0h.2c0,0-.1,0-.2-.1.1,0,.2,0,.3.2,0,0-.2-.1-.2-.2.1,0,0-.1,0-.2.1,0,.1.1.2.1h-.1c0-.1,0-.1,0-.1,0,0-.2-.1-.2-.2-.2-.2.3.1.2-.1,0,0,.1.1.2.1,0-.1,0-.3-.2-.4h.2s-.3-.2-.3-.4h-.1v-.2h.1c0,.2.2.2.2.3h-.1c0,0,.2.2.3.2h.3c-.1-.2-.3-.4-.3-.6.1.1.2.2.3.4-.2-.1,0,.1,0,.2,0,0,.1,0,.1.1v-.3s0,0,.1.1c-.3-.2-.1-.2-.2-.3,0,0,.2.2.1.2.2.1-.2-.4,0-.2h0c0-.1,0-.1.1,0h0c.1,0,.1-.2,0-.3,0,0,0,0,0,0,0,0,0,0,0,0l.3.3-.6-.8s.6.5.7.7c0,0,.1,0,0,0l-.3-.2c.2.2.1,0,.3.2-.1-.1-.2-.2-.3-.4l.3.3-.2-.4.3.3s0,0,0-.1h-.1s-.3-.5-.2-.5c0,.2.2.3.4.4-.2-.3-.4-.6-.6-.9h0s.5.7.6.9c.1,0,.1.1.1,0,.1,0,.1.1,0,.2h.2c0-.2-.1-.3-.2-.4v.3s-.3-.5-.2-.6c0,0,.2.3.3.4h0s0-.3.1-.2c0,0,.2.2.2,0-.2-.2-.7-.8-.9-.9.1,0,.2.1.3.2.2.1.3.4.4.5h0c0-.1.1,0,.1,0-.1-.2.1,0-.1-.2,0,0,0,0,.1,0-.1-.2-.2-.3-.3-.5h.1c.1.1.2.1.3,0,0,0,.1.1.2.2h0c0,0,0,0,.1.1,0-.1,0-.2,0-.3-.1-.2-.1,0-.1.1-.1-.2-.2-.4-.3-.6,0-.1.1.1.1,0,.2,0-.2-.5,0-.4.1.1.2.2.3.4,0,.1-.2,0-.2,0h.1c.1.2.2,0,.4,0,0,0,0-.1,0-.2h0s0-.2-.1-.2v-.3.2c.1,0,0,0,0,0,0-.1.2.2.1,0h-.1c0-.1,0-.5,0-.4-.1-.2,0,0-.2-.2.2.2-.2,0,0,.3-.2-.2-.1,0-.3-.2,0,0,.1.1,0,.1h0c0,.2,0,.3,0,.4,0,0,0,0-.1-.1h0c0,0-.2,0-.2-.2h0s-.2,0-.2,0v.2h0s0,.3-.3.2c0,0,0,.1,0,.1h-.1c0-.1-.2-.1-.1,0-.3-.2-.2,0-.3.1h.1c0,.2,0,.2,0,.3h.1c0,.1-.2.1-.2.2h0c-.3-.2,0,.4-.2.2h0c0,.1,0,0,0,0h0s0,0,.1.2h0c0,.1,0,.2-.2,0,0,.1,0,.2.2.4h-.2c0-.1.2.1.2.1-.1,0-.2-.2-.3-.2.1.2,0,.1.1.4h-.1c0-.1,0,0,0,0-.2-.1-.3.2-.6.2.3.2-.2,0,0,.2,0,0-.1,0-.2-.2,0,.1-.2,0,0,.2,0,0-.1-.1-.1-.1h0s0,0,0-.1c0,.2.2.3.3.5,0,0,0,0,0,.1,0,0-.2,0-.2-.2,0,0-.2,0,0,.2h0s0,0-.1.1h0v.2h0s0,0-.2,0h.1c0,.1-.2.1-.2.2h.1c-.2,0-.3-.1-.5-.2h0c-.2,0,.2,0,.2.2-.1,0-.2-.2-.3-.2-.1,0,.2.4,0,.3,0,0,.2,0,.2.2,0,0-.3,0-.2.1h0s0,.2.1.2c-.5-.3,0,.4-.3,0h0c0,.1-.1.1-.1.1,0,0,0,.2,0,.2,0,0,0,0-.1,0-.2,0-.2,0,0,.3h-.2c0-.1-.3-.1-.2,0h0s-.6,0-.1.4v.2c.1,0,.3.1.4.2,0,0-.2,0-.2,0h0c-.1,0-.2,0-.3,0-.1.2-.4.3-.5.5h.2c0,.1-.2.1-.1,0-.1,0,0,.1.1.2-.1,0-.2,0-.2-.2h0s.2.2.1.2c0,0-.2,0-.2,0h0,.2c0,.1,0,.2.2.3-.3-.1-.3.2-.4.2.1.1,0,.2,0,.2,0,0,.2.1.2.2-.4-.2-.2,0-.5-.1.2,0,0,.2.2.3-.1,0-.2,0-.3-.1,0,.2-.2.2-.3.4,0,0,.2,0,.2.1h-.3c0-.1.3,0,0,0,0,0,.1,0,.1,0-.4.1-.1.6-.7.6,0,0,.1,0,.1,0h.2c0-.1,0-.1,0-.1ZM790.3,8.9s0,.1,0,0c-.1-.1,0,0,0,0h0Z"/>
        <path id="_パス_1572" data-name=" パス 1572" class="cls-3" d="M793.5,4.4h.1s-.1-.1-.1,0Z"/>
        <path id="_パス_1574" data-name=" パス 1574" class="cls-3" d="M792.9,4.4s-.1-.2,0-.1c0-.2,0,.2,0,.1Z"/>
        <path id="_パス_1575" data-name=" パス 1575" class="cls-3" d="M793.6,4.7h0c0,.1,0,.2,0,.2v-.2h-.1,0Z"/>
        <path id="_パス_1578" data-name=" パス 1578" class="cls-3" d="M792.9,5.3s0,0,0,0h0c0-.1,0,0,0,0Z"/>
        <path id="_パス_1579" data-name=" パス 1579" class="cls-3" d="M793.3,5.4s0,0-.1-.1v.2h.1Z"/>
        <path id="_パス_1580" data-name=" パス 1580" class="cls-3" d="M793.3,5.7s0-.1,0-.1c0,0,0,.2,0,.1Z"/>
        <path id="_パス_1581" data-name=" パス 1581" class="cls-3" d="M792.3,5.9h0l-.2-.3.2.3Z"/>
        <path id="_パス_1582" data-name=" パス 1582" class="cls-3" d="M792.3,6.9c0,0-.1,0-.1-.1h0c0,.1,0,0,.2.2.1,0-.1-.2,0-.1h0Z"/>
        <path id="_パス_1583" data-name=" パス 1583" class="cls-3" d="M785.6,12.9h-.1c0,0,.1,0,.1,0h0Z"/>
        <path id="_パス_1584" data-name=" パス 1584" class="cls-3" d="M785.7,13.1h-.2c0-.1.2,0,.2,0Z"/>
        <path id="_パス_1586" data-name=" パス 1586" class="cls-3" d="M790.2,9.5h-.2c0-.1.2,0,.2,0Z"/>
        <path id="_パス_1588" data-name=" パス 1588" class="cls-3" d="M799.9,35.6h.1c0-.1-.1,0-.1,0Z"/>
        <path id="_パス_1589" data-name=" パス 1589" class="cls-3" d="M799.5,35.7h0c0,0-.1,0-.1,0h0c0,0,0,0,0,0Z"/>
        <path id="_パス_1590" data-name=" パス 1590" class="cls-3" d="M799.6,35.6s-.2.1-.1,0c-.1.2,0,0,0,0h.1c0-.1,0,0,0,0Z"/>
        <path id="_パス_1593" data-name=" パス 1593" class="cls-3" d="M799.6,35c0,0,0,.1-.1.2h0v-.2h0Z"/>
        <path id="_パス_1596" data-name=" パス 1596" class="cls-3" d="M799.4,35.5s.1-.2,0-.1c0,0,0,0,0,.1Z"/>
        <path id="_パス_1598" data-name=" パス 1598" class="cls-3" d="M799.4,35.2h0c0,0,0,0-.1,0h.1Z"/>
        <path id="_パス_1600" data-name=" パス 1600" class="cls-3" d="M799.3,35.6l.2-.2-.2.2Z"/>
        <path id="_パス_1601" data-name=" パス 1601" class="cls-3" d="M799.4,35h.1c0-.1-.1,0-.1,0Z"/>
        <path id="_パス_1602" data-name=" パス 1602" class="cls-3" d="M799.3,34.9s0-.2.1-.2h-.1v.2Z"/>
        <path id="_パス_1607" data-name=" パス 1607" class="cls-3" d="M799.1,35.6c0,0,0-.2.2-.2,0,0-.1.1-.2.2Z"/>
        <path id="_パス_1608" data-name=" パス 1608" class="cls-3" d="M799.2,35.4s0,0,0-.1h0Z"/>
        <path id="_パス_1616" data-name=" パス 1616" class="cls-3" d="M798.7,35.5h0c0,0-.2,0-.3.3h0c0-.1.2-.2.1,0,.2-.2.3-.5.4-.7,0,0,0,.1-.1.2,0,.1,0,.2-.1.3h0Z"/>
        <path id="_パス_1617" data-name=" パス 1617" class="cls-3" d="M799,35.1h0c0-.1-.1,0-.1,0h0Z"/>
        <path id="_パス_1618" data-name=" パス 1618" class="cls-3" d="M799,35.3c0,0,0-.1,0-.2h0c0-.1,0-.1,0-.1,0,.1-.1.2-.2.3,0,0,0-.1.1-.1h0Z"/>
        <path id="_パス_1619" data-name=" パス 1619" class="cls-3" d="M799.1,35.5c0,0-.1.2-.2.3h0c0,0,0-.1.1-.2h0c0,0,0-.2.1-.2h0Z"/>
        <path id="_パス_1620" data-name=" パス 1620" class="cls-3" d="M798.9,35.6h0c0,0,0,0,0,0h0Z"/>
        <path id="_パス_1621" data-name=" パス 1621" class="cls-3" d="M799,35v-.2c.1,0,0,.2,0,.2h0Z"/>
        <path id="_パス_1622" data-name=" パス 1622" class="cls-3" d="M799,35h0c0,0,0,0,0,0Z"/>
        <path id="_パス_1624" data-name=" パス 1624" class="cls-3" d="M797.8,34.4s.1-.3,0-.2h0v.2Z"/>
        <path id="_パス_1627" data-name=" パス 1627" class="cls-3" d="M798.5,34.8h0c0-.1,0,0,0,0Z"/>
        <path id="_パス_1635" data-name=" パス 1635" class="cls-3" d="M796.7,35.7h.1c0-.1.2-.5.2-.5l-.3.5h0Z"/>
        <path id="_パス_1636" data-name=" パス 1636" class="cls-3" d="M798.5,35.4s.2-.2.2-.1v.2c-.1,0-.1,0-.1,0,0,0-.1.3,0,0h0c0-.2.1-.2.2-.3.1-.2,0,0,0-.2-.1.3,0,0-.2.2.1-.2,0-.1.1-.4,0,0,0,.1,0,0h0v.2c0,0-.2.1-.2.2,0,0,0,0,0-.1h0s0,0,0-.2h0c0-.1,0-.1,0-.1,0,0-.2.2-.1,0h0c.2-.4,0-.2,0-.3v.2h-.2c0,.1-.1,0-.1,0h0c.1-.4-.2.2-.2,0h0c0-.1,0,0-.1,0h0s0,.1,0-.1c0,.1-.1,0-.2.3h0c0-.1,0-.2,0-.3l-.2.2h0c0-.4-.2-.2-.1-.5-.2.4,0-.2-.1.1,0,0,0-.1.1-.2,0,0,0-.2-.1,0,0,0,0-.1.1-.2h0s0,0,0-.1c-.1.1-.2.3-.3.5,0,0,0,0,0,0,0,.1,0-.2.1-.2,0,0,0-.2-.1,0h0s0,0-.1.1h0s0,0,0-.2v.2c-.2.3,0-.2-.1-.1h0c0,.1.1-.4.1-.4h0c0-.3-.1.1-.2.2,0-.1.1-.2.1-.3,0-.1-.2.3-.2.1,0,0,0,.2-.1.2,0,0,0-.4,0-.1h0s-.1,0-.2.2c.2-.5-.2.2,0-.3h0c0,0-.1,0-.2.1h0c0-.2,0-.1-.2,0v-.2s0-.3,0-.1h0s0-.5-.2,0h-.1c0,.2,0,.3-.1.5v-.2h0v-.3c-.1,0-.2-.2-.3-.3v.2h-.1s0-.2,0-.2c0-.1,0,.1-.1.2,0-.1,0-.2.1-.3h0s0,.2-.1.2v-.2h0c0,.1,0,.1-.1.3,0-.4-.2-.2-.1-.3,0,.1-.1.1-.1.1,0,0,0,.2,0,.2.1-.4,0-.2,0-.5,0,.2-.1,0-.2.4v-.3c-.1.2-.1-.1-.2-.1,0,0,0,.2,0,.2v-.3s0,.4,0,.1h0c-.1-.2-.4.3-.5-.3h0c0,.1-.1.1-.1.4h0s0,.5-.1.8c0-.3,0,.4.1,0v.2c0-.1,0-.2,0-.1h0c0,0,0,.2.2.2h0c0-.3,0,0,0-.4,0,.3.1,0,0,.4,0,0,0-.2,0-.2h0v.2h0c.1,0,.2,0,.3-.2h.2s0,.1,0,.2c.1-.1,0-.1.2-.4h0c0,.1,0,0,0,0,0,.1,0,.2-.1.3,0,.3.2-.2.1.2.1-.3,0-.2,0-.2,0-.1.1-.2.1-.2,0,0-.1.4,0,.4h0c0-.2,0,0,.1-.2h0s.2-.3.2-.1c0,0,0,.1,0,.2h0c0,.2,0,0-.2.2,0,.1.1-.2,0,.1.1-.4,0,0,.2-.2v.2h0c0,.1,0,.3,0,.2,0-.1,0-.2,0-.3.1-.2-.1.4,0,.4h0s0-.2.1-.2c0,.2,0,0,.1-.1v.2s0-.3,0-.2v.2h-.1s0,0,.1-.2c0,.1,0,.1,0,.1,0,.1-.1.2,0,0h0c0,.1.1,0,.1,0,0,0,0,.1,0,.1h0s0,0,0,.2h.1c0-.1,0,0,0,0,0,0,.2-.2.2-.1h0s0,.1.1,0v.2s0-.3.1-.4c0,0,0,.2,0,.2,0-.1.2-.3.2-.1h0c0,.2-.1.3-.2.4.2-.4.1,0,.3-.4h0c0,.1.2-.2.2,0h0c0,0,.1,0,.1,0,0,0,.1,0,.1-.1v.2c-.2.4,0-.1,0,.2h0c0,.1,0,.2,0,.4,0-.2,0-.3.2-.5h0c0,.2,0,.1,0,.1h0s0,.1-.1.2c0-.1,0-.2.1-.3,0,.1,0,0,.2,0,0,0,0,.1,0,.2v-.2h.1s.1-.1.1-.2c.1-.2-.1.4,0,.1,0,0,0,.1-.1.2,0,0,.2-.2.2-.3h0c0,0,.1-.2.2-.4v-.2h.2-.1c0,.1-.1.4-.1.4h0c0-.1-.2.2-.2.2h0v.2h-.1s.3-.4.4-.5c0,.2-.2.3-.2.5,0-.2-.1,0-.1,0,0,0,0,.1,0,.1l.2-.2c0,0,0,.1,0,.2.1-.3.1-.2.2-.3,0,0,0,.1-.1.2,0,.2.2-.4.2-.1h0s0,0,0,.1h0s.1,0,.3-.2l-.2.4.5-.8c-.1.3-.3.6-.5.9h0s.1-.4.2-.4c-.1.2,0,.1-.1.4,0,0,.2-.4.2-.4l-.2.4.2-.3c0,.1-.1.3-.2.4,0,0,0,0,0,0h0s.3-.5.3-.5c0,0-.2.4-.2.5.1-.2.5-.8.6-.9h0s-.5.8-.6.9h0c0,.2,0,.2-.1.2h0c.1,0,.2-.1.3-.2l-.2.2s.3-.5.3-.5c0,.1-.1.3-.2.4,0,0,.1-.1.1,0h0c0,.1-.1.4,0,.3.1-.2.5-.9.6-1.1,0,.1,0,.2-.1.4,0,.2-.2.4-.3.6,0,0,0-.1.1-.1,0,0-.1.2,0,.2v-.2h.1c.1-.2.2-.3.3-.5v.2s0,.1,0,.2c0,0,0,.1-.1.2h0c0,0,.1,0,.2,0,.1-.2,0,0,0,0,.1-.2.2-.4.4-.6,0,0,0,.2,0,.1,0,0,.3-.4.3-.2,0,.1-.1.3-.2.4,0,0,0-.1,0-.1h0s0,.2,0,.1c0,.2.1.1,0,.2,0,0,0-.1.1-.2h0c0,0,.1-.1.2-.2h0l-.7.4h0Z"/>
        <path id="_パス_1642" data-name=" パス 1642" class="cls-3" d="M798.7,34.9s.1-.2,0-.1c.1-.1-.2.2,0,.1Z"/>
        <path id="_パス_1643" data-name=" パス 1643" class="cls-3" d="M798.5,35.7h0c0,0,0-.1,0-.1h0Z"/>
        <path id="_パス_1646" data-name=" パス 1646" class="cls-3" d="M798.2,35.4h0c0,0,0,0,0,0h0c0,0,0,0,0,0Z"/>
        <path id="_パス_1648" data-name=" パス 1648" class="cls-3" d="M797.9,36s0,0,0-.1c0,0-.1.1,0,.1Z"/>
        <path id="_パス_1649" data-name=" パス 1649" class="cls-3" d="M797.7,35.4h0l.2-.3-.2.3Z"/>
        <path id="_パス_1650" data-name=" パス 1650" class="cls-3" d="M797,35.9h0c0-.1-.1.1-.1.1,0,.1.1-.2,0,0h0c0,0,0,0,0,0Z"/>
        <path id="_パス_1651" data-name=" パス 1651" class="cls-3" d="M793.2,32.9h0c0-.1,0,0,0,0h0Z"/>
        <path id="_パス_1654" data-name=" パス 1654" class="cls-3" d="M795.4,35.4v-.2c0,0,0,.2,0,.2h0Z"/>
        <path id="_パス_1658" data-name=" パス 1658" class="cls-3" d="M774.2,53.3h0c0,0,.1,0,.1,0,0,0-.2,0-.1,0Z"/>
        <path id="_パス_1703" data-name=" パス 1703" class="cls-3" d="M773.5,52.6h.5c.1,0,.3,0,.2,0h.5c-.3,0,0,0-.3,0h.2s.1,0,0,0h0s-.2-.1,0-.2h.1s.1,0,0,0c.3,0,0,0,.1-.1h-.3c0,0-.2,0-.2,0,0,0,.1,0,.1-.1h0c.3,0-.2,0,0-.1h-.4c.3,0,0-.1.3-.2h.1c-.1,0,.2,0-.1,0h-.1s.1,0-.1,0h-.1s-.1,0,.1,0h-.2c-.3,0,.2,0,0,0h-.1c.2,0,.3,0,.5,0h.1s-.4,0-.2-.1h-.2s.3,0,0,0h-.2c.6,0-.3,0,.2-.1h0c0,0-.1-.1-.2-.1h.1c.1,0,0,0-.2,0h.2s.3-.1,0-.1h0c-.2,0,.5-.2-.2-.1h-.5s.2,0,.2,0h0c.3,0,.1,0,.3,0,0,0,.2-.2.1-.3h-.4c.3,0,.1-.2.2-.2h-.3c.5,0,.2,0,.5-.1-.2,0,0,0-.3,0h.3c-.2,0,.1-.1,0-.2h0s-.3,0-.1-.1h-.2s-.3-.2.2-.4h-.3.2c0-.1-.2-.1-.2-.1l-.9.2c.3,0-.4.1,0,.1h0l-.2.2h.3c-.3,0,0,0-.3.1h0s0,.1.2.1h0s0,0,0,0h0c-.3,0,.3,0-.1.1.3,0,.2,0,.3,0h.2s-.5,0-.5.1h-.2s-.2.1,0,.1c0,0,.2,0,.3,0,.2,0-.4,0-.3.1h.2s.1,0,0,0h0c0,0-.2,0-.2,0,0,0,.3,0,.2,0h0s-.2,0,0,0h-.4c.5,0,0,0,.5,0h.3s0,0-.1,0h-.1c-.5,0,.1,0-.2,0h0c-.1,0-.2,0-.3,0,.2,0,.3,0,.5,0h0,.2c0,0,.2,0,.2,0,.2,0-.3,0,0,0h-.3s.6.1.7.1h-.5c.2,0-.1,0,0,0h0c0,0-.2,0-.2,0h.2s0,.1.3.1h.6s-.9,0-1,0h-.4c.1,0,.3,0,.4,0h1.1c-.1,0-.3,0-.4,0h-.1s-.1,0-.1.1h.5s.5,0,.3.1h-.4c-.2,0,0,.1-.2.1h0v.8c0,0-.1,0-.1,0Z"/>
        <path id="_パス_1710" data-name=" パス 1710" class="cls-3" d="M773.7,52.8h.2c0,0-.2,0-.2,0h0Z"/>
        <path id="_パス_1724" data-name=" パス 1724" class="cls-3" d="M749,36.3h0c0,0,0,0,0,0h0Z"/>
        <path id="_パス_1725" data-name=" パス 1725" class="cls-3" d="M749.1,36.2h0c0,.1,0,0,.1,0-.1-.2,0,0-.1,0Z"/>
        <path id="_パス_1733" data-name=" パス 1733" class="cls-3" d="M749.7,36.6h0c0,0,0,0,0,0h0Z"/>
        <path id="_パス_1735" data-name=" パス 1735" class="cls-3" d="M749.8,36.7h0c0,.1,0,0,0,0h0Z"/>
        <path id="_パス_1736" data-name=" パス 1736" class="cls-3" d="M749.9,36.6c0,0,0,.2,0,.2v-.2h0Z"/>
        <path id="_パス_1738" data-name=" パス 1738" class="cls-3" d="M749.7,36.5s0,.1,0,.1h0c0-.1,0-.1,0-.1Z"/>
        <path id="_パス_1741" data-name=" パス 1741" class="cls-3" d="M749.4,36.1c0,0,0,.2,0,.3,0-.1,0-.2,0-.3Z"/>
        <path id="_パス_1743" data-name=" パス 1743" class="cls-3" d="M749.8,36.5h0c0,0,0,0,0,0h0c0,0,0,0,0,0Z"/>
        <path id="_パス_1750" data-name=" パス 1750" class="cls-3" d="M749.8,35.9h0c0,0,0-.1-.1-.4h0c0,.4.2.6.3.8v-.2c0,0-.1-.1-.1-.2h-.1Z"/>
        <path id="_パス_1751" data-name=" パス 1751" class="cls-3" d="M749.9,36.3h0s0,0,.1.2v-.2h-.1Z"/>
        <path id="_パス_1752" data-name=" パス 1752" class="cls-3" d="M749.9,36.3c0-.1,0-.3-.1-.4v.2s0,0,0,.1h0c0,.1,0,0,0,0Z"/>
        <path id="_パス_1753" data-name=" パス 1753" class="cls-3" d="M749.4,35.9c0,0,0,.2.1.2,0-.1,0-.2-.1-.4h0v.2h0Z"/>
        <path id="_パス_1755" data-name=" パス 1755" class="cls-3" d="M750,36.4h0c0,.1,0,0,0,0h0Z"/>
        <path id="_パス_1756" data-name=" パス 1756" class="cls-3" d="M750.1,36.3h0c0,.1,0,0,0,0h0Z"/>
        <path id="_パス_1758" data-name=" パス 1758" class="cls-3" d="M751.5,35.9s.2.3.1.1h0c0-.1-.1-.1-.1-.1Z"/>
        <path id="_パス_1761" data-name=" パス 1761" class="cls-3" d="M750.6,36.1s0,0,0,0c0,0-.1-.2,0,0Z"/>
        <path id="_パス_1769" data-name=" パス 1769" class="cls-3" d="M751.3,34.2h0c0,.1.2.5.2.5l-.2-.5Z"/>
        <path id="_パス_1770" data-name=" パス 1770" class="cls-3" d="M756,33.7s-.2-.5-.3-.8c0,.3-.2-.4-.1,0h0c-.1-.1-.2-.1-.3-.2h0c0,.2,0,0,.1.2-.1-.3-.2,0-.3-.3,0,0,0,.2,0,.2h0s-.1-.1-.1-.2h0c-.1,0-.2.2-.2.3h0s0,0-.1.1h0c0,0,0,0-.1-.1,0,.1,0,.3,0,.4h0s-.1,0-.1-.2c-.2-.2,0,.3-.2,0,.1.4.1.2.1.2,0,.1,0,.2,0,.2,0,0-.2-.4-.2-.4h0s0,.1,0,0c0,.2,0,0,0,.2h0s0,.3,0,.2v-.2h0c-.1-.2,0,0,0-.3s0,.2,0,0c.1.4,0,0,0,.2h0v-.2c-.1,0-.2-.1-.2,0,0,0,.1.2.2.3,0,.2-.2-.4-.2-.2h.1c0,.1-.1,0-.1,0,0,0,0,.2,0,.2-.1-.2,0,0,0,.2v-.2h0c0-.1,0,0-.1,0,0,.1.1.3,0,.3,0,0,0-.1,0-.1,0-.1,0-.2,0,0h0c0-.1-.1-.1-.1-.1v.2c0,0,0-.2-.1-.3v.2s-.1-.1-.1-.2c0,0,0,.3,0,.2h0s-.2,0-.1.1v-.2c-.1,0,0,.2,0,.4,0,0-.1-.2-.1-.2,0,.1,0,.4,0,.2h0c0-.2,0-.3-.2-.4.2.4-.1.1,0,.5h0c0-.1.1.2,0,.2,0,0,0,0,0-.1h0c0,.1,0,.1,0,.1v.2s0-.2,0-.2c-.2-.4,0,.1-.2-.1h0c-.1-.3-.1-.2-.2-.4,0,0,.2.4.2.5h0c0-.2,0-.1,0-.1h0c0,0-.1-.1-.2-.2,0,0,0,.2.1.3,0,0,0,0,0,.2,0,0,0-.1,0-.2v.2h0c0,0,0,.1,0,.2,0,.2-.2-.3-.1,0,0,0,0-.1,0-.2v.4h-.1c0-.1.1.2.2.4v.2c.1,0,.1.1.1.1,0,0,0-.1,0-.2h0v-.2c-.1,0-.1.1-.1.1,0-.1,0-.2,0-.4h0v-.2h-.1v.7c0-.2-.1-.3-.2-.5.1.2,0-.1,0,0h0c0-.1,0,.1,0,.1,0,0,0-.1-.1-.2.1.3,0,.2,0,.4,0-.1,0-.2,0-.2-.1-.2.1.4,0,.2h0c0,.1,0,0,0,0h0s-.2,0,0,.3v-.4c-.1,0,.1.9.1.9-.1-.3-.3-.6-.3-.9h0c0,.1.1.2.2.4l-.2-.4s.2.4.1.4c0-.1-.1-.3-.2-.4v.4c.1,0,0-.3,0-.4h0s.1.6,0,.6c0,0-.2-.5-.2-.5,0,.2.3.9.3,1.1h0s-.3-.9-.3-1.1c0,0,0-.1,0-.1v-.2h-.1c0,.1,0,.3.1.4v-.2s.2.6.1.6c0-.2-.1-.3-.2-.5h0s0,.3,0,.1c0,0-.1-.2-.1-.1.1.2.4,1,.5,1.2,0,0-.2-.2-.2-.3-.1-.2-.1-.5-.2-.6v.2s0-.2,0-.1c0,.2,0,0,0,.2,0,0,0,0,0,0,0,.1.2.5.1.5,0,0,0-.1,0-.2,0,0-.1-.1-.2,0,0,0,0-.1-.1-.2h0c0,.1,0-.1,0-.1v.3c0,.2,0,0,0,0,.1.2.2.5.2.7,0,0,0-.2,0-.1-.1,0,.1.5,0,.3,0-.2-.1-.3-.2-.5,0,0,.1.1.1,0h0c0-.2-.2-.1-.3-.2v.2h0s0,.2,0,.2h0c0,.1-.2-.2,0,0h0c0,.1.1.4,0,.4,0,.2,0,0,.1.2-.1-.3.1,0,0-.3,0,.1.1.2.2.3h0v-.5c0,0,0,.2.1.3h0s.1.1.1,0h0c0-.1,0-.4.2-.1h0c0,0,.2.2.1,0,.2.3.1,0,.2,0v-.4s0,0,.1,0h0c.2.3,0-.3.2,0h.1,0v-.2s0-.1.1.2c0-.1,0-.3,0-.4h0c0,0,.1.2.2.3v-.2s0-.2,0,0c.1.2.2,0,.3.2-.2-.4.1.1,0-.1,0,0,0,.1.1.2,0-.1.1.1,0-.1,0,0,0,.1,0,.2h0c0,0,0-.2-.2-.4,0,.1,0,0,0,0,0,0,.1.2,0,.2,0,0,.2,0,0-.1h0c0-.1,0-.2.2,0h0c-.2-.4,0,0,0-.1h0s.2.4.3.4h0c.1.2,0-.1,0-.2,0,.1,0,.2.1.3,0,0,0-.4,0-.2,0,0,0-.2-.1-.2,0,0,.2.3.1,0h0v-.2c.2.5,0-.3.2.2h0c.1,0,.1-.1,0-.4v.2s.3.2.2,0h0s.3.4.1-.1v-.2l-.2-.4s.1.1.1.2h0s.1,0,.2.2c.1,0,.3,0,.4,0v-.2h-.1s0,.2,0,.2c0,.1,0-.1,0-.2.1,0,0,.3.1.3h0v-.2h0c0,.1,0,.1,0,.1v-.2c-.1,0-.1-.2-.1-.2.2.3.2,0,.3.1v-.2s-.1-.2,0-.2c.2.4.1.2.3.5-.1-.2,0,0,0-.4,0,0,0,.2.1.2,0-.2.2,0,.2,0,0,0,0-.2,0-.2l.2.2s-.1-.3,0-.1h0c0-.1.2-.5.5,0,0-.1,0-.1,0-.1h0s.1,0,0-.2h0l.2-.3h0Z"/>
        <path id="_パス_1774" data-name=" パス 1774" class="cls-3" d="M750,35.9s0,0,0,0h0Z"/>
        <path id="_パス_1777" data-name=" パス 1777" class="cls-3" d="M749.9,35.6h0c0,0,0,.1,0,.1h0Z"/>
        <path id="_パス_1783" data-name=" パス 1783" class="cls-3" d="M750.7,35.2h0v.3c.1,0,0-.3,0-.3Z"/>
        <path id="_パス_1784" data-name=" パス 1784" class="cls-3" d="M750.9,34.3s0,0,0,.1c0,0,0,0,0-.2,0,0,0,.2,0,.1Z"/>
        <path id="_パス_1785" data-name=" パス 1785" class="cls-3" d="M756.1,34.1h0c0,0,0,0,0,0Z"/>
        <path id="_パス_1788" data-name=" パス 1788" class="cls-3" d="M752.6,33.4h0v.2c.1,0,0-.2,0-.2Z"/>
      </g>
      <g class="cls-1">
        <path class="cls-4" d="M24.1,213.8c0,.8-.3,1.7-.4,2.6h11.5c1.6,0,2.3,1.3,2.3,2.6,0,1.8-2,4.9-4.2,7,1.5.7,3.1,1.4,4.9,1.9.8.2,1.2.9,1.2,1.5,0,1.2-1,2.5-2.2,2.5s-5.2-2.3-7-3.5c-4.4,2.8-7.3,3.5-7.9,3.5-1.2,0-2.2-1.2-2.2-2.3s.4-1.2,1.2-1.5c2.2-.5,4.2-1.1,5.8-1.9-1.8-1.6-3.4-3.5-4.5-5.4-1.1,3.4-2.8,6.8-5.4,9.7-.5.5-.9.6-1.4.6-1.2,0-2.4-1.1-2.4-2.3s.2-.9.5-1.2c4.1-4.2,5.8-9.4,6.3-13.8h-3.3c-.4,0-.7,0-1-.2l.3.9c0,.2.1.4.1.6,0,1.1-1,1.8-1.9,1.8s-1.3-.5-1.9-2.2l-2.1.3v15.2c0,1.2-1,1.8-2,1.8s-2-.6-2-1.8v-14.7c-1.8.2-3.4.3-4.5.3h0c-1.2,0-1.9-1.1-1.9-2.1s.5-1.6,1.6-1.6h1.6c1.2-1.7,2.3-3.4,3.3-5-1.3-1-3.2-2.5-5.4-4.1-.5-.4-.8-1-.8-1.5,0-1.1.9-2.1,1.9-2.1s.7.1,1.3.6c1-1.6,2.2-3.8,3.2-5.9.3-.7.8-.9,1.4-.9,1,0,2.1.9,2.1,2s0,1.1-4,7l2.1,1.9c1.1-1.9,2.1-3.5,2.6-4.7.3-.6.9-.9,1.4-.9,1.1,0,2.2.8,2.2,1.9s-4.9,8.3-7.2,11.6c1.3,0,2.7-.2,4-.3-.5-1.2-.7-1.8-.7-2.2,0-1,.9-1.7,1.7-1.7s1.5.6,2.7,3.8c.1-.8.7-1.4,1.7-1.4h3.8v-2.7c.1,0-2.7,0-2.7,0-1.2,0-1.8-.9-1.8-1.8s.6-1.8,1.8-1.8h1c-.1-.1-.3-.3-.3-.5-.4-.7-1-1.6-1.5-2.3-.3-.3-.4-.7-.4-1.1,0-.7.5-1.3,1.1-1.6h-.8c-1.2,0-1.9-1.2-1.9-2.2s.5-1.7,1.6-1.7h1.3c8.6,0,15.8-.8,18.2-1.2,0,0,.2,0,.3,0,1.2,0,2.3,1.2,2.3,2.3s-.4,1.3-1.5,1.5c-.2,0-.4,0-.7,0,.8.3,1.4,1,1.4,1.8s0,.5-.2.8c-.5,1-1.5,2.5-2.6,4.2h1.5c1.2,0,1.8.9,1.8,1.8s-.6,1.8-1.8,1.8h-11.8c0,.7,0,1.7-.2,2.7h13.1c1.1,0,1.7,1,1.7,1.9s-.6,1.9-1.8,1.9h-13.5ZM5.3,219.3c-.2,2-.5,6-1.1,9.1-.2,1-.9,1.4-1.7,1.4s-2.2-.7-2.2-1.8,0-.2,0-.4c.8-3.4,1.3-6.8,1.6-8.6,0-1,.8-1.5,1.6-1.5s1.8.6,1.8,1.6v.2ZM15.6,223.8c0,1.3-1.1,2-2.1,2s-1.4-.4-1.5-1.4c-.1-1.8-.3-3.6-.7-5.1,0-.1,0-.2,0-.4,0-1,.9-1.6,1.8-1.6s1.8.5,2.5,6.3v.2ZM26.5,203.8c-.2-.2-.4-.3-.5-.7-.3-.6-1-2-1.5-2.9-.2-.3-.3-.6-.3-.9,0-.5.3-1,.7-1.3l-5.3.2c.5.3,2.6,3.1,2.6,4.2s-.3,1-.7,1.4h5ZM26,220c1,1.4,2.6,3.1,3.9,4.2,1-.9,2.9-3.2,2.9-3.9s0-.2-.3-.2h-6.5ZM30.9,203.8c1.3-1.9,2.5-4.3,3.3-5.9.1-.2.3-.5.5-.6-1.9.2-4.4.4-7.4.6.3.2.4.4.6.7.4.7,1.6,3,1.6,3.6s-.5,1.3-1.1,1.6h2.5Z"/>
        <path class="cls-4" d="M64,212.9c-1,3-3.2,7.5-5.6,10.2-.5.5-1,.7-1.5.7-1.2,0-2.2-1.2-2.2-2.5s.1-.9.5-1.3c3.9-3.9,6.7-9,8-12.3h-6c-1.2,0-1.8-1-1.8-2s.6-2,1.8-2h6.8v-5.1c-1.6.2-3.4.4-5.5.5h0c-1.2,0-2.1-1.2-2.1-2.3s.5-1.5,1.6-1.6c8.1-.4,12.5-1.6,14.6-2.1.2,0,.3,0,.5,0,1.2,0,2,1.2,2,2.3s-.4,1.6-1.3,1.8c-1.2.2-3.1.6-5.7,1v5.5h6c1.2,0,1.8,1,1.8,2s-.6,2-1.8,2h-5.4c1.4,1.3,7.1,6.9,7.1,8.5s-1.2,2.5-2.3,2.5-1.1-.3-1.6-1.1c-1.3-2.7-2.5-4.8-3.8-6.5v19c0,1.2-1,1.8-2,1.8s-2-.6-2-1.8v-17.2ZM79.6,229.5c-2.1,0-3.2-1-3.2-3.1v-28.3c0-2.1,1.1-3.1,3.2-3.1h10.1c2.1,0,3.1,1,3.1,3.1v28.3c0,2.1-1,3.1-3.1,3.1h-10.1ZM88.8,199.5c0-.4-.2-.7-.7-.7h-6.9c-.5,0-.7.2-.7.7v25.4c0,.5.2.7.7.7h6.9c.5,0,.7-.2.7-.7v-25.4Z"/>
        <path class="cls-4" d="M138.4,204.4c-.9,23-20.4,25.9-20.9,25.9-1.6,0-2.6-1.2-2.6-2.5s.6-1.9,1.9-2.2c10.8-2.2,16.4-10,16.9-21.3h-12.8c-1.9,3.7-4.5,7.1-7.9,9.7-.5.4-1.1.6-1.6.6-1.3,0-2.3-1.1-2.3-2.2s.3-1.2.9-1.7c4.9-4,7.9-9.6,9.2-15.7.3-1.2,1.2-1.7,2.2-1.7s2.5.8,2.5,2.2-1.2,4.4-1.3,4.5h22.5c1.5,0,2.2,1,2.2,2.1s-.7,2.1-2.2,2.1h-6.8Z"/>
        <path class="cls-4" d="M179,205.5c0-1.5,1.2-2.2,2.4-2.2s2.4.7,2.5,2.1c0,1.1,0,2.1,0,3.1,0,11-3.9,19-15.6,22.4-.3,0-.7.1-1,.1-1.6,0-2.5-1.2-2.5-2.4s.5-1.7,1.7-2.1c9.6-2.7,12.6-8,12.6-16.8s0-2.6-.2-4v-.2ZM167,200.4c-1.3,0-1.9-1.1-1.9-2.2s.6-2.2,1.9-2.2h29.1c3.4,0,5.4,1.4,5.4,4.5s0,1-.2,1.7c-2,11.2-12.5,15-15.2,15s-2.4-1.2-2.4-2.4.6-1.8,2-2.1c8.6-1.5,10.8-9.5,10.8-11s-.6-1.2-1.4-1.2h-28.1Z"/>
        <path class="cls-4" d="M249.6,230.7c-2.2,0-3.9-1.8-3.9-3.9v-28.7c0-2,1.7-3.9,3.9-3.9h31.5c1.2,0,1.8.9,1.8,1.9s-.6,1.9-1.8,1.9h-30.1c-.8,0-1.4.6-1.4,1.4v25.9c0,.8.6,1.4,1.4,1.4h31.2c1.2,0,1.8,1,1.8,2s-.6,2-1.8,2h-32.6ZM270.8,213.6c2.4,2.8,6.1,5.7,11.4,7.8.8.3,1.1.9,1.1,1.5,0,1.1-1,2.4-2.1,2.4s-.4,0-.6-.1c-5.8-2.3-10.7-6.9-13.4-10.4-3,5.2-9.1,8.9-13.7,10.4-.3,0-.5.1-.8.1-1.3,0-2.2-1.2-2.2-2.3s.4-1.4,1.2-1.6c4.5-1.2,9.2-4,11.7-7.8h-11.2c-1.2,0-1.8-.9-1.8-1.9s.6-1.8,1.8-1.8h12.8c0-.4,0-.7,0-1v-3.9h-7.4c-2.4,3.5-3.4,4-4.2,4-1.1,0-2.4-1-2.4-2.2s.2-.9.6-1.3c2.4-2.2,3.6-4,4.7-6.5.4-.7,1.1-1,1.8-1,1.1,0,2.1.7,2.1,1.7s-.1.7-.5,1.5h20.2c1.2,0,1.8,1,1.8,1.9s-.6,1.9-1.8,1.9h-11.1s0,4.5,0,4.9h12.6c1.2,0,1.8.9,1.8,1.8s-.6,1.9-1.8,1.9h-10.8Z"/>
        <path class="cls-4" d="M325.6,222.5v4.9c0,3-.5,4.5-4.8,4.5s-4.7-.1-4.7-2.2.6-2.1,1.6-2.1.2,0,.3,0c1.2.2,2,.4,2.5.4.8,0,.9-.4.9-1.5v-4.1h-7.5c-2.1,0-3.2-1-3.2-3.1v-5.6h-.4c-.2.2-.4.2-.5.2-1.2,0-2.3-1.2-2.3-2.2s.3-1.1,1.3-1.4c1.2-.3,2.4-.7,3.4-1.1-.6-.5-1.2-1-1.8-1.3-.5-.3-.6-.7-.6-1.1,0-.9.9-1.8,1.9-1.8s1.1.1,3.6,2.7c1.3-.9,2.7-2,3.6-3.1h-8.4c-1.2,0-1.8-.9-1.8-1.7s.6-1.7,1.8-1.7h10.3c.2-.4.2-.6.3-1,.2-.5.6-.8,1.1-1h-14c-.4,0-.6.2-.6.6v7.5c0,10.8-.6,16.7-3.8,23.4-.4.9-1.1,1.2-1.8,1.2-1.2,0-2.3-1-2.3-2.1s0-.6.3-.9c2.2-4.3,3.2-8.1,3.6-13.5-1.4,2.8-2,3.5-2.8,3.5s-1.7-1.1-1.7-2.3.2-1.3.8-2c1.6-1.8,2.9-3.7,3.9-6v-3.6c-.2.6-.8.9-1.4.9s-1.2-.3-1.3-1.1c-.6-2.5-1.3-6.2-1.6-7.4,0-.2,0-.4,0-.5,0-1,.9-1.6,1.8-1.6s1.4.4,1.6,1.2c.2,1,.7,4.3,1.1,7v-5.2c0-2.1,1.1-3.1,3.2-3.1h12.4v-.9c0-1,1.1-1.5,2.3-1.5s2.4.5,2.4,1.5v.9h12.9c1.2,0,1.8,1,1.8,1.9s-.6,1.9-1.8,1.9h-12.6c.8.2,1.1.7,1.1,1.2s0,.5-.2.7h10.9c1.2,0,1.8.8,1.8,1.7s-.6,1.7-1.8,1.7h-9.1c1.4,1.3,2.6,2.4,4.2,3.2.8-.7,1.7-1.7,2.3-2.4.4-.5.8-.6,1.3-.6,1,0,2,.8,2,1.7s-.1.7-.5,1.1c-.6.6-1.2,1.1-1.8,1.5.8.2,2.2.7,3.1.9.8.2,1.2.8,1.2,1.4,0,1.1-.9,2.3-2.1,2.3s-.9-.2-1-.2v5.9c0,2.1-1.1,3.1-3.2,3.1h-6.8ZM308.9,231c-1.1,0-2-1.1-2-2.2s.2-1.1.9-1.5c2.2-1.3,4-2.8,5.2-4,.3-.3.7-.4,1.1-.4,1,0,1.9,1,1.9,2s-.2.8-.4,1.1c0,.1-5,5-6.6,5ZM331.7,212.7c0-.4-.2-.6-.7-.6h-15.6c-.5,0-.7.2-.7.6v1.5h17v-1.5ZM331.7,217h-17v1.6c0,.4.2.6.7.6h15.6c.5,0,.7-.2.7-.6v-1.6ZM327.3,209c-1.7-1.2-3.4-3.1-4.5-4.3-.9,1.3-2.5,3.1-3.8,4.3h8.2ZM330.5,226.2c-.5-.4-.7-.9-.7-1.4,0-1,.9-2,1.8-2s.6,0,.8.2c3.4,2.1,6,4.3,6,5.6s-.9,2-1.9,2-.7,0-1.1-.4c-1.6-1.6-3.6-3.2-5.1-4.2Z"/>
        <path class="cls-4" d="M406.7,206c0-1.2,1.1-1.8,2.2-1.8h.2c-3.3-2.1-6.2-4.5-8.9-6.6,0,0-.2,0-.3,0-.1,0-.3,0-.3,0-2.4,2.4-5.2,4.6-8.6,6.6.9.2,1.7.7,1.7,1.7,0,11.5,0,18.9-7.6,25.6-.4.3-.9.5-1.3.5-1.3,0-2.6-1.3-2.6-2.5s.2-.9.7-1.2c6.6-5,6.3-11,6.4-22.7-2.3,1.2-5.6,2.6-6.3,2.6-1.2,0-2.1-1.3-2.1-2.6s.3-1.5,1.2-1.8c6.7-2.3,11.9-5.9,15.7-9.8.8-.8,1.8-1.1,2.8-1.1s2.1.4,2.9,1.1c4,3.7,9.1,7.1,15.8,10,.8.4,1.2,1.1,1.2,1.9,0,1.2-.8,2.5-2.1,2.5s-.5,0-.7-.1c-2.1-.8-4-1.8-5.9-2.9,0,.2.1.5.1.7v24.2c0,1.2-1.1,1.8-2.2,1.8s-2.2-.6-2.2-1.8v-24.2Z"/>
        <path class="cls-4" d="M436.5,203.6c-1.2,0-1.8-.9-1.8-1.9s.6-1.8,1.8-1.8h10.4c1.2,0,1.7.9,1.7,1.8s-.5,1.9-1.7,1.9h-10.4ZM438.3,230.7c-1.7,0-2.5-.8-2.5-2.5v-8.5c0-1.7.8-2.5,2.5-2.5h6.8c1.7,0,2.6.8,2.6,2.5v8.4c0,1.7-.8,2.5-2.6,2.5h-6.8ZM438,197.9c-1.1,0-1.7-.9-1.7-1.9s.6-1.8,1.7-1.8h7.5c1.2,0,1.7.9,1.7,1.8s-.5,1.9-1.7,1.9h-7.5ZM438,215.2c-1.1,0-1.7-.9-1.7-1.9s.6-1.8,1.7-1.8h7.5c1.2,0,1.7.9,1.7,1.8s-.5,1.9-1.7,1.9h-7.5ZM438,209.4c-1.1,0-1.7-.9-1.7-1.8s.6-1.8,1.7-1.8h7.4c1.2,0,1.7.9,1.7,1.8s-.5,1.8-1.7,1.8h-7.4ZM443.8,221.4c0-.3-.2-.5-.5-.5h-3c-.3,0-.5.2-.5.5v5c0,.3.2.5.5.5h3c.3,0,.5-.2.5-.5v-5ZM453.5,217.6c-2.1,0-3.2-1-3.2-3.1v-4.5c-.3.3-.8.7-1.5.7s-1.6-.8-1.6-1.7.2-1,.7-1.5c2.4-2.1,3.7-4.4,4.3-5.9.3-.7,1.1-1,1.8-1h.3c-.2-.2-.3-.4-.3-.7v-1h-4.7c-1.1,0-1.7-.8-1.7-1.7s.5-1.7,1.7-1.7h4.7v-1.2c0-.9,1-1.3,2-1.3s1.9.4,1.9,1.3v1.2h6v-1.2c0-.9,1-1.3,2-1.3s1.9.4,1.9,1.3v1.2h4.3c1.1,0,1.7.8,1.7,1.7s-.6,1.7-1.7,1.7h-4.3v1c0,.9-1,1.3-1.9,1.3s-2-.4-2-1.3v-1h-6v1c0,.9-1.1,1.3-2.1,1.3h-.3c.2.2.3.5.3.7s0,.4-.1.6h4.4c.3-.5.6-.9.8-1.3.3-.7,1-1,1.7-1,1,0,2,.6,2,1.5s0,.5-.2.7h6.7c1.1,0,1.6.7,1.6,1.4s-.5,1.5-1.6,1.5h-6.8v1.4h6c.9,0,1.3.6,1.3,1.2s-.4,1.2-1.3,1.2h-6v1.4h6c.9,0,1.3.6,1.3,1.2s-.4,1.3-1.3,1.3h-6v1.4h7.1c1,0,1.5.7,1.5,1.5s-.5,1.5-1.5,1.5h-18ZM471.9,231.8c-3.7-.3-6.9-1.1-9.8-2.2-3.1,1-6.8,2-11.2,2.3h-.3c-1.3,0-2.2-1.1-2.2-2.1s.5-1.5,1.6-1.5c2.9-.2,5.5-.5,7.6-.9-1.8-1.3-3.8-3-5.4-5.1h-2.3c-.9,0-1.3-.8-1.3-1.7s.4-1.6,1.3-1.6h19.6c1.7,0,2.6,1.1,2.6,2.5,0,2.3-2.3,3.9-5.7,6,1.8.3,4.3.5,6.1.6,1.1,0,1.5.7,1.5,1.5s-.8,2.3-2.1,2.3h-.2ZM460.7,205.3h-6.8v1.4h6.8v-1.4ZM460.7,209.3h-6.8v1.4h6.8v-1.4ZM460.7,213.2h-6.8v.7c0,.5.3.7.7.7h6.2v-1.4ZM457,222.3c1.6,1.7,3.4,3,5.2,3.9,3.1-1.2,5.6-3.3,5.6-3.6s-.1-.2-.3-.2h-10.5Z"/>
        <path class="cls-4" d="M576,222.8v4.7c0,3-1,4.4-5.3,4.4s-3-.1-5-.4c-1.2-.2-1.7-1.1-1.7-2s.7-2.2,1.8-2.2.2,0,.3,0c2.2.4,3.7.6,4.5.6,1.3,0,1.5-.5,1.5-1.4v-3.8h-17.3c1.8.8,3.9,2,5,2.7.7.4.9,1,.9,1.7,0,1.1-.8,2.2-2,2.2s-.8-.2-1.3-.5c-1.3-.9-3.4-2.1-4.9-3-.5-.3-.7-.7-.7-1.2,0-.8.6-1.7,1.1-1.9h-7.2c-1.2,0-1.8-1-1.8-1.9s.6-1.9,1.8-1.9h26.2v-2.5h-22.1c-2.1,0-3.1-1-3.1-3.1v-9.2c0-2.1,1-3.1,3.1-3.1h11.6v-2.3h-15.7c-1.2,0-1.8-1-1.8-1.9s.6-1.9,1.8-1.9h15.7v-.3c0-1.2,1.1-1.8,2.1-1.8s2.1.6,2.1,1.8v.3h15.8c1.2,0,1.8,1,1.8,1.9s-.6,1.9-1.8,1.9h-15.8v2.3h11.6c2.1,0,3.2,1,3.2,3.1v9.2c0,2.1-1,3.1-3.2,3.1h-1.3v2.5h5.5c1.2,0,1.8.9,1.8,1.9s-.6,1.9-1.8,1.9h-5.5ZM561.6,204.6h-10.2c-.5,0-.7.2-.7.6v1.9h10.8v-2.5ZM561.6,210.3h-10.8v2c0,.4.3.7.8.7h10.1v-2.7ZM576.5,205.2c0-.4-.2-.6-.7-.6h-10.1v2.5h10.8v-1.9ZM576.5,210.3h-10.8v2.7h10.1c.5,0,.7-.2.7-.7v-2Z"/>
        <path class="cls-4" d="M599.9,196.7c0-1.7.8-2.5,2.6-2.5h11.8c1.7,0,2.6.8,2.6,2.5v12.7c0,1.7-.8,2.5-2.6,2.5h-10v18.2c0,1.2-1.1,1.8-2.2,1.8s-2.2-.6-2.2-1.8v-33.5ZM612.8,198.3c0-.3-.2-.5-.5-.5h-7.5c-.4,0-.5.2-.5.5v2.8h8.6v-2.8ZM612.8,204.8h-8.6v3.5h8.1c.3,0,.5-.2.5-.5v-2.9ZM632.2,211.9h-10c-1.7,0-2.6-.8-2.6-2.5v-12.7c0-1.7.8-2.5,2.6-2.5h11.8c1.7,0,2.6.8,2.6,2.5v28.6c0,5-2,6.7-6.3,6.7s-3.7-.3-6.2-.7c-1.2-.2-1.8-1.3-1.8-2.4s.6-2.3,1.8-2.3.3,0,.5,0c2.3.5,3.9.7,5.1.7,2,0,2.4-.8,2.4-2.2v-13.1ZM632.2,198.3c0-.3-.2-.5-.5-.5h-7.5c-.3,0-.5.2-.5.5v2.8h8.6v-2.8ZM632.2,204.8h-8.6v2.9c0,.3.2.5.5.5h8.1v-3.5Z"/>
        <path class="cls-4" d="M684.2,207.1v2.5c0,10.3-3.8,19.8-19.6,21.4h-.3c-1.6,0-2.4-1.2-2.4-2.3s.6-1.9,2-2c13.4-1.1,16-9,16-17v-2.5h-13.9v10.9c0,1.3-1.1,1.9-2.2,1.9s-2.2-.6-2.2-1.9v-10.9h-6.6c-1.3,0-1.9-1-1.9-2.1s.7-2.1,1.9-2.1h6.6v-6.7c0-1.3,1.1-2,2.2-2s2.2.7,2.2,2v6.7h13.9v-6.7c0-1.3,1.1-2,2.2-2s2.1.6,2.1,2v6.7h6.6c1.3,0,1.9,1,1.9,2.1s-.6,2.1-1.9,2.1h-6.6Z"/>
        <path class="cls-4" d="M727.2,209.2c-6.8,3.3-16,6.3-17.1,6.3s-2.2-1.2-2.2-2.5.5-1.9,1.5-2.1c13.8-3.7,23.2-8.8,30.1-16.2.5-.5,1.1-.7,1.7-.7,1.3,0,2.6,1.1,2.6,2.4s-.2,1.1-.8,1.6c-3.4,3.3-7,6.2-11,8.6v22.3c0,1.5-1.4,2.1-2.4,2.1s-2.4-.6-2.4-2v-19.7Z"/>
        <path class="cls-4" d="M769.3,195.6c0-1.4,1.2-2.1,2.4-2.1s2.4.7,2.4,2.1v9c6.2,1.5,17.6,4.8,24.4,8.1,1,.5,1.4,1.3,1.4,2.2,0,1.3-1,2.6-2.4,2.6s-.8,0-1.2-.3c-5.8-3.1-16.8-6.5-22.3-7.9v19.9c0,1.5-1.2,2.2-2.4,2.2s-2.4-.7-2.4-2.2v-33.6Z"/>
      </g>
    </g>
  </g>
</svg>