<svg xmlns="http://www.w3.org/2000/svg" width="71" height="158.399" viewBox="0 0 71 158.399">
  <g id="nurse-f" transform="translate(-738 -1531.101)">
    <text id="Nurse" transform="translate(761 1686.5)" fill="#f6bac5" font-size="10" font-family="InkFree, Ink Free" letter-spacing="0.1em"><tspan x="0" y="0">Nurse</tspan></text>
    <ellipse id="circle" cx="35.5" cy="11.5" rx="35.5" ry="11.5" transform="translate(738 1649)" fill="#ffeaef"/>
    <g id="nurse-f-2" data-name="nurse-f" transform="translate(756.439 1531.101)">
      <path id="Path_667" data-name="Path 667" d="M5.436,48.142c-.33,1.734-.59,6.235-.642,6.807-.208,2.237-.2,2.974-.4,5.2-.182,2.064-.763,7.727-.763,7.727S1.386,71.573.909,72.406a6.452,6.452,0,0,0-.867,2.133,1.83,1.83,0,0,0,0,.867.867.867,0,0,0,.546.6,1.067,1.067,0,0,0,.364.867,1.422,1.422,0,0,1,.347.295,1.205,1.205,0,0,1,.139.538,1.171,1.171,0,0,0,.676,1.006,1.569,1.569,0,0,1,.269.078.6.6,0,0,1,.225.277,1.986,1.986,0,0,1,.191.659c0,.286,0,.633.269.754a.451.451,0,0,0,.486-.1c.633-.59.182-1.674.165-2.4a4.145,4.145,0,0,1,1.153-2.68,4.336,4.336,0,0,1-.087,1.561,2.194,2.194,0,0,0,.208,1.509c.13.191.364.347.572.251a.607.607,0,0,0,.208-.234c.676-1.11.616-2.523.963-3.79a7.666,7.666,0,0,0,.382-1.37c0-.494.078-1,.1-1.5,0-1.032,0-2.073.052-3.1.4-4.691,1.951-9.539,2.6-14.2a9.218,9.218,0,0,0-.139-4.336,3.885,3.885,0,0,0-4.093-2.55C5.592,47.474,5.514,47.726,5.436,48.142Z" transform="translate(0.01 -6.286)" fill="#f19688"/>
      <path id="Path_668" data-name="Path 668" d="M4.443,49.4c-.39,3.521-.65,5.09-1.041,8.611a2.428,2.428,0,0,0,.078,1.275,2.6,2.6,0,0,0,1.1,1.067,5.906,5.906,0,0,0,1.8.867c.867.2,1.8-.061,1.942-1.023A103.935,103.935,0,0,1,10.6,47.8c.6-2.315,1.162-4.926-.061-6.989-.538-.867-2.532-3.044-3.807-2.541a1.734,1.734,0,0,0-.867,1.275,53.281,53.281,0,0,0-1.171,7.328Z" transform="translate(-0.436 -5.049)" fill="#d2e0e8"/>
      <path id="Path_669" data-name="Path 669" d="M29.959,37.443h-.182a6.07,6.07,0,0,1-3.946-1.734,6.755,6.755,0,0,1-1.145-2.714,14.214,14.214,0,0,0-.434-1.466,10.181,10.181,0,0,0-.7-1.023,8.889,8.889,0,0,1-.7-5.827,9.27,9.27,0,0,1,.867-2.6,4.44,4.44,0,0,1,2.645-2.359,2.758,2.758,0,0,1,2.749.572,16.832,16.832,0,0,1,3.035,3.217,17.005,17.005,0,0,1,2.766,7.111,11.412,11.412,0,0,1,0,3.989,3.469,3.469,0,0,1-1.37,2.471,3.157,3.157,0,0,1-1.318.4A9.73,9.73,0,0,1,29.959,37.443Z" transform="translate(-2.998 -2.576)" fill="#602f1b"/>
      <path id="Path_670" data-name="Path 670" d="M18.09,131.108l-.251,6.677.486.668-7.241,4.8L9.54,141.688l4.475-3.764-2.185-7.284Z" transform="translate(-1.258 -17.328)" fill="#f19788"/>
      <path id="Path_671" data-name="Path 671" d="M8.821,142.536l1.734,1.093,5.2-3.642s1.969-1.995,1.882-.156c-.139,2.723-.225,3.174-.225,3.174a24.28,24.28,0,0,1-2.775,1.327c-1.344.512-2.792,3.044-3.677,3.157s-9.236,1.223-9.053.191c.113-.694,1.205-1.318,1.205-1.318l4.076-2.523Z" transform="translate(-0.244 -18.445)" fill="#c8d6dd"/>
      <path id="Path_672" data-name="Path 672" d="M11.118,126.869c-.139-.694-1.83-24.134-3.469-46.49-.312-4.336.538-14.369.772-18.393.052-.971,8.394,2.68,10.632,7.8,3.287,7.536.668,22.98-.165,33.4-1.171,14.621.607,25.148.191,25.686-.763.963-1.951,1.665-4.4,1.422C11.352,129.982,11.222,128.161,11.118,126.869Z" transform="translate(-0.998 -8.189)" fill="#d2e0e8"/>
      <path id="Path_673" data-name="Path 673" d="M29.9,136.338l-.243,6.686.477.668-7.241,4.787-1.535-1.552,4.466-3.764-2.185-7.293Z" transform="translate(-2.828 -18.022)" fill="#f19788"/>
      <path id="Path_674" data-name="Path 674" d="M20.638,147.858l1.734,1.1,5.2-3.642s1.969-1.995,1.882-.156c-.139,2.714-.225,3.174-.225,3.174a24.12,24.12,0,0,1-2.775,1.318c-1.344.52-2.792,3.044-3.677,3.157s-9.192,1.223-9.01.156c.113-.7,1.205-1.327,1.205-1.327l4.032-2.471Z" transform="translate(-1.82 -19.153)" fill="#c8d6dd"/>
      <path id="Path_675" data-name="Path 675" d="M22.581,126.869c.078-7.562-.72-7.874-1.188-15.41-.642-10.406-1.3-20.726-2.064-31.08-.321-4.336.529-14.369.763-18.393.061-.971,8.4,2.68,10.64,7.8,3.287,7.536-.234,43.1-.234,43.1s.789,13.953,1.466,19.78a1.457,1.457,0,0,1,0,.581,1.231,1.231,0,0,1-.338.477c-1.379,1.327-3.7,1.483-5.515,1.448a6.556,6.556,0,0,1-2.021-.243,2.307,2.307,0,0,1-1.483-1.292,3.373,3.373,0,0,1-.121-1.214l.1-4.449C22.572,127.614,22.581,127.242,22.581,126.869Z" transform="translate(-2.549 -8.189)" fill="#d2e0e8"/>
      <path id="Path_676" data-name="Path 676" d="M15.96,25.12a6.5,6.5,0,0,0-5.637,3.122A10.408,10.408,0,0,0,9.7,31.953s-1.916,5.723-1.951,9.539c0,2.445.269,4.241.26,6.712v9.157a52.491,52.491,0,0,1-.529,7.649C7.14,67,7.964,68.271,9.924,69.069a47.488,47.488,0,0,0,8.915,2.6,22.686,22.686,0,0,0,10.9-1.084c1.856-.72,2.185-1.457,1.778-3.321-1.067-4.8-1.075-9.756-1.075-14.664a76.362,76.362,0,0,1,.295-8.221c.243-2.263.685-4.509.763-6.781.069-1.969,0-4.986-1.387-6.591a18.259,18.259,0,0,0-4.423-3.07Z" transform="translate(-0.975 -3.313)" fill="#75b8a0"/>
      <path id="Path_677" data-name="Path 677" d="M23.28,26.327h0a12.349,12.349,0,0,0-2.081-.815,24.455,24.455,0,0,0-3.98-.382,42.11,42.11,0,0,0-.789,7.18c-.087,1.9-.1,4.015,0,5.932,3.4-4.05,10.3-10.406,10.3-10.406l-.564-.312q-.312-.173-.624-.312C24.763,26.83,24,26.63,23.28,26.327Z" transform="translate(-2.164 -3.314)" fill="#d2e0e8"/>
      <path id="Path_678" data-name="Path 678" d="M22,117.713c-.061,2.246,2.263,4.336,4.518,4.431s3.6-1.986,3.66-4.241A4.093,4.093,0,0,0,22,117.713Z" transform="translate(-2.913 -15.101)" fill="#d2e0e8"/>
      <path id="Path_679" data-name="Path 679" d="M39.683,45.674c-.139.72-1.292,1.422-1.873,1.734a12.409,12.409,0,0,1-3.989,1.275l-2.723.529-1.24.251C28.305,44.408,26.744,38.728,27,37.219A68.133,68.133,0,0,0,28.019,28.2s6.764,1.969,8.221,5.2a15.229,15.229,0,0,1,.72,2.471c.416,1.552.815,3.113,1.249,4.665.295,1.067.6,2.133.928,3.191.156.529.33,1.058.52,1.578a.746.746,0,0,1,.026.364Z" transform="translate(-3.573 -3.722)" fill="#75b8a0"/>
      <path id="Path_680" data-name="Path 680" d="M38.39,64.279a2.541,2.541,0,0,1-1.674.572,3.755,3.755,0,0,1-2.5-1.119,7.969,7.969,0,0,1-1.544-2.307,5.481,5.481,0,0,1-.711-2.333c0-.373.069-.746.087-1.119a9.981,9.981,0,0,0,0-1.44c-.1-1.483-.217-2.966-.321-4.449l5.853-1.145,1.873-1.361c.3,2.766.581,5.524.676,8.3C40.194,59.639,40.02,62.952,38.39,64.279Z" transform="translate(-4.205 -6.562)" fill="#d2e0e8"/>
      <path id="Path_681" data-name="Path 681" d="M9.2,45.519a.98.98,0,0,0,.277,0c.633,0,.867-.954,1.127-1.414.356-.642.711-1.283,1.049-1.934s.7-1.309,1.049-1.969L9.879,28.67,4.355,38.261c-.867,1.466,0,3.261.989,4.483a11.031,11.031,0,0,0,3.4,2.6,3.408,3.408,0,0,0,.46.173Z" transform="translate(-0.522 -3.784)" fill="#75b8a0"/>
      <path id="Path_682" data-name="Path 682" d="M28.8,22a12.808,12.808,0,0,1,1.734,5.8" transform="translate(-3.816 -2.899)" fill="none" stroke="#502410" stroke-linecap="round" stroke-linejoin="round" stroke-width="0.49"/>
      <path id="Path_683" data-name="Path 683" d="M8.18,44.729a30.214,30.214,0,0,1,.277-3.764,50.363,50.363,0,0,1,2.48-7.215" transform="translate(-1.078 -4.459)" fill="none" stroke="#629c88" stroke-linecap="round" stroke-linejoin="round" stroke-width="0.73"/>
      <path id="Path_684" data-name="Path 684" d="M18.376,25.22c-2.732.867-6.01,4.9-7.336,9.166" transform="translate(-1.458 -3.326)" fill="none" stroke="#0e6dad" stroke-linejoin="round" stroke-width="1.71"/>
      <path id="Path_685" data-name="Path 685" d="M25.43,25.22a8.724,8.724,0,0,1,4.015,5.749c.26,1.153.382,7.961.356,10.346" transform="translate(-3.369 -3.326)" fill="none" stroke="#0e6dad" stroke-linejoin="round" stroke-width="1.71"/>
      <path id="Path_686" data-name="Path 686" d="M13,9.431a8.238,8.238,0,0,1,2.307-6.4A8.672,8.672,0,0,1,21,0a11.152,11.152,0,0,1,2.94.2A8.334,8.334,0,0,1,28.18,2.1a8.065,8.065,0,0,1,3.174,6.018A11.351,11.351,0,0,1,25.4,19.17a8.082,8.082,0,0,1-3.469.867,6.122,6.122,0,0,1-2.6-.6c-1.951-.945-3.226-2.818-4.336-4.665A11.12,11.12,0,0,1,13,9.431Z" transform="translate(-1.714 0.027)" fill="#602f1b"/>
      <path id="Path_687" data-name="Path 687" d="M13.577,17.634a5.325,5.325,0,0,0,4.015,4.18c3.564.52,5.559-1.309,6.937-3.816.65-1.171.772-7.8.772-7.8L24.043,6.968l-6.781-2.3c-.72.5-1.422,1.032-2.133,1.544a5.342,5.342,0,0,0-1.691,3.85C13.429,10.723,13.039,15.232,13.577,17.634Z" transform="translate(-1.757 -0.597)" fill="#f19688"/>
      <path id="Path_688" data-name="Path 688" d="M25.718,15.2a4.83,4.83,0,0,0-.373,4.631c.277.408,1.431-.043,1.734-.165a2.966,2.966,0,0,0,1.977-1.734,2.359,2.359,0,0,0-.425-2.732,1.96,1.96,0,0,0-2.914,0Z" transform="translate(-3.301 -1.909)" fill="#f19688"/>
      <path id="Path_689" data-name="Path 689" d="M23.58,28.222a3.954,3.954,0,0,1-.512.33,4.553,4.553,0,0,1-2.6.442,2.463,2.463,0,0,1-2.255-1.179,3.85,3.85,0,0,1-.512-1.379,3.85,3.85,0,0,1,.416-1.518,5.2,5.2,0,0,0,.087-1.474c0-.676,0-1.353.061-2.029s.043-1.57.061-2.359c0,0,1.561-2.324,2.281-2.367a9.539,9.539,0,0,1,1.864-.052c.312.043.616.2.928.217s1.734-.078,1.942,0c.425.121.295,9.487.277,9.539a17.482,17.482,0,0,1-2.038,1.83Z" transform="translate(-2.342 -2.183)" fill="#f19688"/>
      <path id="Path_690" data-name="Path 690" d="M14.66,14.793a.581.581,0,0,0,.52.624.633.633,0,1,0-.52-.624Z" transform="translate(-1.938 -1.858)" fill="#0e0000"/>
      <path id="Path_691" data-name="Path 691" d="M21,16.264a.59.59,0,0,0,.529.633A.633.633,0,1,0,21,16.264Z" transform="translate(-2.78 -2.054)" fill="#0e0000"/>
      <path id="Path_692" data-name="Path 692" d="M16.462,11.479a.13.13,0,0,1-.078,0,3.044,3.044,0,0,0-1.734-.46h0a.121.121,0,0,1-.13-.113.13.13,0,0,1,.121-.147,3.339,3.339,0,0,1,1.916.5.13.13,0,0,1,0,.182.121.121,0,0,1-.1.035Z" transform="translate(-1.92 -1.405)" fill="#602f1b"/>
      <path id="Path_693" data-name="Path 693" d="M23.3,13.21a.1.1,0,0,1-.069,0,2.974,2.974,0,0,0-1.734-.451.13.13,0,0,1-.139-.121.121.121,0,0,1,.121-.139,3.287,3.287,0,0,1,1.916.494.13.13,0,0,1,0,.182.139.139,0,0,1-.1.035Z" transform="translate(-2.828 -1.636)" fill="#602f1b"/>
      <path id="Path_694" data-name="Path 694" d="M19.417,21.042a2.22,2.22,0,0,1-1.838.555A2.038,2.038,0,0,1,16.2,20.73" transform="translate(-2.143 -2.73)" fill="none" stroke="#bb4240" stroke-linecap="round" stroke-linejoin="round" stroke-width="0.42"/>
      <line id="Line_63" data-name="Line 63" x2="0.399" y2="0.182" transform="translate(14.664 16.673)" fill="none" stroke="#0e0000" stroke-linecap="round" stroke-linejoin="round" stroke-width="0.49"/>
      <path id="Path_695" data-name="Path 695" d="M18.71,24.045a7.293,7.293,0,0,0,4.631-1.466,6.114,6.114,0,0,0,1.119-1.309" transform="translate(-2.476 -2.802)" fill="none" stroke="#d56e6c" stroke-linecap="round" stroke-linejoin="round" stroke-width="0.49"/>
      <path id="Path_696" data-name="Path 696" d="M17.487,2.635a4.717,4.717,0,0,0-1.431,1.379A9.331,9.331,0,0,0,14.14,8.861a17.751,17.751,0,0,1,10.241,2.992,11.577,11.577,0,0,0,.486-4.284,6.07,6.07,0,0,0-1.838-3.807,5.055,5.055,0,0,0-5.377-1.188Z" transform="translate(-1.869 -0.27)" fill="#602f1b"/>
      <path id="Path_697" data-name="Path 697" d="M19.162,3A8.967,8.967,0,0,0,16.63,7.136" transform="translate(-2.2 -0.375)" fill="none" stroke="#502410" stroke-linecap="round" stroke-linejoin="round" stroke-width="0.49"/>
      <path id="Path_698" data-name="Path 698" d="M24.2,4a10.406,10.406,0,0,1,1.041,5.741" transform="translate(-3.205 -0.508)" fill="none" stroke="#502410" stroke-linecap="round" stroke-linejoin="round" stroke-width="0.49"/>
      <path id="Path_699" data-name="Path 699" d="M36.641,52.869,19.15,58.437a.685.685,0,0,1-.867-.529L15.7,43.7a.676.676,0,0,1,.468-.772L33.51,37.616a.685.685,0,0,1,.867.52l2.688,13.953a.676.676,0,0,1-.425.78Z" transform="translate(-2.075 -4.969)" fill="#fff"/>
      <path id="Path_700" data-name="Path 700" d="M31.128,48.511s1.4-8.429-1.1-10.545c-.468-.4-.789-.2-.867.139,0,.113,0,.269-.147.321s-.269-.069-.382-.156a.763.763,0,0,0-1.075.234c-.1.191-.147.468-.364.52s-.338-.087-.5-.165a.945.945,0,0,0-.954.061.928.928,0,0,0-.39.867.989.989,0,0,0-1.119-.1,2.948,2.948,0,0,0-.867.789l-.468.555a3.053,3.053,0,0,0,1.526-.165,4.388,4.388,0,0,1,.867,1.526,5.784,5.784,0,0,1,.139,1.969,5.793,5.793,0,0,0,1.4,4.4,4.38,4.38,0,0,1,.954,1.049c.121.243,1.656,6.582,3.035,9.331.494.989,1.518,2.524,2.107,2.55a3.469,3.469,0,0,0,2.723-.867,2.515,2.515,0,0,0,.963-1.838,3.764,3.764,0,0,0-.754-2.81C35.386,55.648,31.527,49.456,31.128,48.511Z" transform="translate(-3.031 -4.99)" fill="#f19688"/>
      <path id="Path_701" data-name="Path 701" d="M10.03,46.006c-.919-.477-2.48-3.391-2.532-4.639-.121-2.844,1.639-4.579,2.7-4.032,2.974,1.509-.911,6.573-4.215,7.085" transform="translate(-0.785 -4.922)" fill="none" stroke="#d2d3dd" stroke-linecap="round" stroke-linejoin="round" stroke-width="0.98"/>
      <line id="Line_64" data-name="Line 64" x1="0.321" y2="1.127" transform="translate(9.357 30.964)" fill="none" stroke="#d2d3dd" stroke-linecap="round" stroke-linejoin="round" stroke-width="0.98"/>
      <ellipse id="Ellipse_14" data-name="Ellipse 14" cx="0.789" cy="0.598" rx="0.789" ry="0.598" transform="matrix(0.62, -0.785, 0.785, 0.62, 8.619, 41.554)" fill="#d2d3dd"/>
      <ellipse id="Ellipse_15" data-name="Ellipse 15" cx="0.598" cy="0.789" rx="0.598" ry="0.789" transform="translate(4.069 39.092) rotate(-18.82)" fill="#d2d3dd"/>
      <path id="Path_702" data-name="Path 702" d="M30.05,38.56a3.616,3.616,0,0,1,.642,1.734" transform="translate(-3.982 -5.098)" fill="none" stroke="#d56e6c" stroke-linecap="round" stroke-linejoin="round" stroke-width="0.49"/>
      <path id="Path_703" data-name="Path 703" d="M28,39.18a2.359,2.359,0,0,1,.911,1.5" transform="translate(-3.71 -5.18)" fill="none" stroke="#d56e6c" stroke-linecap="round" stroke-linejoin="round" stroke-width="0.49"/>
      <path id="Path_704" data-name="Path 704" d="M26.13,40a.452.452,0,0,1,.338.251,4.613,4.613,0,0,1,.538,1.379" transform="translate(-3.462 -5.289)" fill="none" stroke="#d56e6c" stroke-linecap="round" stroke-linejoin="round" stroke-width="0.49"/>
      <path id="Path_705" data-name="Path 705" d="M3.089,83.531a3.347,3.347,0,0,1-.277-.989,4.6,4.6,0,0,1,.156-2.073" transform="translate(-0.358 -10.664)" fill="none" stroke="#d56e6c" stroke-linecap="round" stroke-linejoin="round" stroke-width="0.49"/>
      <path id="Path_706" data-name="Path 706" d="M1.952,79.48a3.564,3.564,0,0,0-.286,1.873" transform="translate(-0.209 -10.533)" fill="none" stroke="#d56e6c" stroke-linecap="round" stroke-linejoin="round" stroke-width="0.49"/>
      <path id="Path_707" data-name="Path 707" d="M1.142,78.61a3.651,3.651,0,0,0-.295,1.873" transform="translate(-0.101 -10.417)" fill="none" stroke="#d56e6c" stroke-linecap="round" stroke-linejoin="round" stroke-width="0.49"/>
      <path id="Path_708" data-name="Path 708" d="M20.172,102.157,19.7,87.007,16.79,80.33" transform="translate(-2.221 -10.646)" fill="none" stroke="#bdbec8" stroke-linecap="round" stroke-linejoin="round" stroke-width="0.98"/>
    </g>
  </g>
</svg>
