<svg xmlns="http://www.w3.org/2000/svg" width="230.711" height="215.807" viewBox="0 0 230.711 215.807"><g transform="translate(-614.959 -146)"><g transform="translate(614.959 146)"><g transform="translate(0 0)"><g transform="translate(0)"><path d="M1.5,116.647c0,6.957,4.56,13.933,13.753,19.214l14.582,8.417a108.286,108.286,0,0,0,20.71,38.879c2.668,3.19,6.29,6.723,9.264,9.733a57.765,57.765,0,0,0,9.318.991,22.4,22.4,0,0,0,10.995-3.154.377.377,0,0,1-.144.108l9.283-5.389a18.477,18.477,0,0,0,4.867-4.037l55.695,32.173c18.223,10.472,47.674,10.472,65.753,0,8.994-5.245,13.464-12.058,13.5-18.944l.054-13.428a16.818,16.818,0,0,0-1.424-6.723,17.272,17.272,0,0,0,4.434-11.085l.072-13.41c.054-6.525-4.236-13.05-12.869-18.042a47.144,47.144,0,0,0-7.66-3.515l.018-5.984a11.344,11.344,0,0,0-.7-3.911,11.319,11.319,0,0,0,.649-3.749l.054-14.852c.018-4.9-3.226-9.823-9.715-13.572-8.976-5.173-21.827-6.741-33.111-4.668l.09-30.8-5.047-9.787L118.532,14.9,81.348,36.51l.036-11.734c.018-4.9-3.226-9.823-9.715-13.572C58.817,3.778,38,3.778,25.238,11.2c-6.381,3.713-9.553,8.562-9.553,13.41L15.631,39.43a11.1,11.1,0,0,0,.7,3.929,11.423,11.423,0,0,0-.649,3.767l-.054,14.816a11.224,11.224,0,0,0,.577,3.587,11.542,11.542,0,0,0-.523,3.389l-.054,14.816v.216c-.2.108-.4.216-.577.324C6.042,89.52,1.554,96.387,1.59,103.255v.342Z" transform="translate(-1.5 -5.635)" fill="#cad0dd"/></g><g transform="translate(0 0.002)"><g transform="translate(0 97.615)"><path d="M17.793,67.291l-.065,23.018a16.355,16.355,0,0,1-3.574,9.869l.065-23.018A16.355,16.355,0,0,0,17.793,67.291Z" transform="translate(190.11 -53.776)" fill="#cad0dd"/><path d="M12.149,85.689l-.065,13.48c-.017,5.882-3.553,11.755-10.583,16.469l.065-13.48C8.6,97.444,12.132,91.572,12.149,85.689Z" transform="translate(218.562 -39.012)" fill="#cad0dd"/><path d="M3.211,73.181c0,6.969,4.566,13.938,13.746,19.225l134.577,77.719c18.216,10.478,47.679,10.478,65.751,0,8.988-5.239,13.458-12.064,13.506-18.937l.048-13.436c-.048,6.825-4.518,13.65-13.458,18.889-18.12,10.478-47.583,10.478-65.8,0L17.053,78.922C7.921,73.683,3.307,66.714,3.307,59.793Z" transform="translate(-3.211 -59.793)" fill="#cad0dd"/></g><path d="M196.376,67.835c13.1,7.564,16.338,18.632,9.381,27.827a53.109,53.109,0,0,1,13.507,5.309c16.406,9.472,17.09,24.53,2.291,34.454,11.68,10.478,9.722,24.565-5.98,33.691-18.091,10.513-47.562,10.513-65.77,0L15.25,91.43C-2.959,80.917-3.115,63.811,14.976,53.3c16.18-9.4,41.453-10.375,59.524-2.984,17.083-8.535,43.023-8.085,59.369,1.353,5.709,3.3,9.505,7.286,11.326,11.589,16.564-4.962,37.3-3.435,51.181,4.579Z" transform="translate(-1.428 25.337)" fill="#e4e8f4"/><g transform="translate(14.134)"><g transform="translate(0 84.129)"><path d="M150.928,52.5l-.042,14.851c-.014,4.837-3.189,9.664-9.53,13.349-12.8,7.438-33.611,7.438-46.493,0-6.464-3.732-9.695-8.637-9.681-13.536l.042-14.851c-.014,4.9,3.217,9.8,9.681,13.536,12.883,7.438,33.694,7.438,46.493,0,6.34-3.685,9.516-8.512,9.53-13.349Z" transform="translate(-85.182 -52.311)" fill="#6eba6e"/></g><g transform="translate(0.042 65.185)"><path d="M141.176,47.366c12.883,7.438,12.95,19.493.18,26.914-12.8,7.438-33.611,7.438-46.493,0C82.009,66.859,81.941,54.8,94.74,47.366c12.77-7.421,33.582-7.421,46.435,0Z" transform="translate(-85.182 -41.801)" fill="#9ad898"/></g><g transform="translate(2.157 63.304)"><path d="M147.811,40.932l-.039,20.225c-.013,4.52-2.98,9.03-8.9,12.473-11.959,6.95-31.405,6.95-43.443,0-6.04-3.487-9.059-8.07-9.046-12.648l.039-20.225c-.013,4.578,3.006,9.161,9.046,12.648,12.037,6.95,31.484,6.95,43.443,0,5.924-3.443,8.892-7.953,8.9-12.473Z" transform="translate(-86.378 -40.757)" fill="#fed57a"/></g><g transform="translate(2.196 45.604)"><path d="M138.7,36.137c12.037,6.95,12.1,18.214.169,25.148-11.959,6.95-31.405,6.95-43.443,0-12.01-6.934-12.074-18.2-.114-25.148C107.242,29.2,126.688,29.2,138.7,36.137Z" transform="translate(-86.378 -30.937)" fill="#fed57a"/></g><g transform="translate(0 63.248)"><path d="M150.928,40.913l-.042,14.851c-.014,4.837-3.189,9.664-9.53,13.348-12.8,7.438-33.611,7.438-46.493,0-6.464-3.732-9.695-8.637-9.681-13.536l.042-14.851c-.014,4.9,3.217,9.8,9.681,13.536,12.883,7.438,33.694,7.438,46.493,0,6.34-3.685,9.516-8.511,9.53-13.348Z" transform="translate(-85.182 -40.726)" fill="#6eba6e"/></g><g transform="translate(0.042 44.304)"><path d="M141.176,35.781c12.883,7.438,12.95,19.493.18,26.914-12.8,7.438-33.611,7.438-46.493,0C82.009,55.275,81.941,43.22,94.74,35.782c12.77-7.421,33.582-7.421,46.435,0Z" transform="translate(-85.182 -30.216)" fill="#9ad898"/></g><g transform="translate(2.157 42.423)"><path d="M147.811,29.348l-.039,20.225c-.013,4.52-2.98,9.03-8.9,12.473-11.959,6.95-31.405,6.95-43.443,0-6.04-3.487-9.059-8.07-9.046-12.648l.039-20.225c-.013,4.578,3.006,9.161,9.046,12.648,12.037,6.95,31.484,6.95,43.443,0,5.924-3.443,8.892-7.953,8.9-12.473Z" transform="translate(-86.378 -29.172)" fill="#fed57a"/></g><g transform="translate(2.196 24.723)"><path d="M138.7,24.552c12.037,6.95,12.1,18.214.169,25.148-11.959,6.95-31.405,6.95-43.443,0-12.01-6.934-12.074-18.2-.114-25.148,11.932-6.934,31.379-6.934,43.389,0Z" transform="translate(-86.378 -19.352)" fill="#fed57a"/></g><g transform="translate(0 41.46)"><path d="M150.928,28.825l-.042,14.851c-.014,4.837-3.189,9.664-9.53,13.349-12.8,7.438-33.611,7.438-46.493,0-6.464-3.732-9.695-8.637-9.681-13.536l.042-14.851c-.014,4.9,3.217,9.8,9.681,13.536,12.883,7.438,33.694,7.438,46.493,0C147.738,38.489,150.914,33.662,150.928,28.825Z" transform="translate(-85.182 -28.638)" fill="#6eba6e"/></g><g transform="translate(0.042 22.516)"><path d="M141.176,23.693c12.883,7.438,12.95,19.493.18,26.914-12.8,7.438-33.611,7.438-46.493,0-12.853-7.421-12.921-19.476-.123-26.914,12.77-7.421,33.582-7.421,46.435,0Z" transform="translate(-85.182 -18.128)" fill="#9ad898"/></g><path d="M120.56,45.086A3.137,3.137,0,0,1,119,44.624a6.555,6.555,0,0,1-3.01-5.215c.007-1.818,1.12-2.632,2.222-2.632a3.145,3.145,0,0,1,1.56.462,6.561,6.561,0,0,1,3.01,5.222c0,1.57-.9,2.625-2.22,2.625Z" transform="translate(-112.559 19.353)" fill="#e4e8f4"/><path d="M118.755,37.944a4.319,4.319,0,0,1,1.964,3.408c0,1.244-.883,1.758-1.977,1.126a4.337,4.337,0,0,1-1.964-3.4C116.782,37.82,117.667,37.315,118.755,37.944Z" transform="translate(-111.924 20.073)" fill="#bac1ce"/><g transform="translate(2.157 19.907)"><path d="M147.811,16.856l-.039,20.225c-.013,4.52-2.98,9.03-8.9,12.473-11.959,6.95-31.405,6.95-43.443,0-6.04-3.487-9.059-8.07-9.046-12.648l.039-20.225c-.013,4.578,3.006,9.161,9.046,12.648,12.037,6.95,31.484,6.95,43.443,0C144.831,25.886,147.8,21.375,147.811,16.856Z" transform="translate(-86.378 -16.68)" fill="#fed57a"/></g><g transform="translate(0 18.944)"><path d="M150.928,16.333l-.042,14.851c-.014,4.837-3.189,9.664-9.53,13.349-12.8,7.438-33.611,7.438-46.493,0C88.4,40.8,85.168,35.9,85.182,31l.042-14.851c-.014,4.9,3.217,9.8,9.681,13.536,12.883,7.438,33.694,7.438,46.493,0C147.738,26,150.914,21.17,150.928,16.333Z" transform="translate(-85.182 -16.146)" fill="#6eba6e"/></g><g transform="translate(0.042)"><path d="M141.176,11.2c12.883,7.438,12.95,19.493.18,26.914-12.8,7.438-33.611,7.438-46.493,0C82.009,30.695,81.941,18.639,94.74,11.2c12.77-7.421,33.582-7.421,46.435,0Z" transform="translate(-85.182 -5.636)" fill="#9ad898"/></g><path d="M120.56,32.594A3.137,3.137,0,0,1,119,32.132a6.555,6.555,0,0,1-3.01-5.215c.007-1.818,1.12-2.632,2.222-2.632a3.145,3.145,0,0,1,1.56.462,6.561,6.561,0,0,1,3.01,5.222C122.776,31.538,121.884,32.594,120.56,32.594Z" transform="translate(-112.559 9.329)" fill="#e4e8f4"/><path d="M118.755,25.452a4.319,4.319,0,0,1,1.964,3.408c0,1.244-.883,1.758-1.977,1.126a4.337,4.337,0,0,1-1.964-3.4C116.782,25.328,117.667,24.824,118.755,25.452Z" transform="translate(-111.924 10.049)" fill="#bac1ce"/><path d="M120.56,57.074A3.137,3.137,0,0,1,119,56.612a6.555,6.555,0,0,1-3.01-5.215c.007-1.818,1.12-2.632,2.222-2.632a3.145,3.145,0,0,1,1.56.462,6.561,6.561,0,0,1,3.01,5.222c0,1.57-.9,2.625-2.22,2.625Z" transform="translate(-112.559 28.972)" fill="#e4e8f4"/><path d="M118.712,49.987a4.11,4.11,0,0,1,1.869,3.243c0,1.184-.84,1.673-1.881,1.072a4.128,4.128,0,0,1-1.869-3.237c0-1.2.845-1.676,1.881-1.078Z" transform="translate(-111.881 29.747)" fill="#bac1ce"/><path d="M120.56,69.062A3.137,3.137,0,0,1,119,68.6a6.555,6.555,0,0,1-3.01-5.215c.007-1.818,1.12-2.632,2.222-2.632a3.145,3.145,0,0,1,1.56.462,6.561,6.561,0,0,1,3.01,5.222C122.776,68.006,121.884,69.062,120.56,69.062Z" transform="translate(-112.559 38.592)" fill="#e4e8f4"/><path d="M118.9,61.731a5.036,5.036,0,0,1,2.29,3.974c0,1.451-1.029,2.05-2.3,1.313a5.057,5.057,0,0,1-2.29-3.966c0-1.466,1.036-2.054,2.3-1.321Z" transform="translate(-112.068 39.124)" fill="#bac1ce"/></g><g transform="translate(68.851 9.27)"><g transform="translate(0)"><g transform="translate(55.527 35.987)"><path d="M36.587,156.5l42.8-24.875.286-100.877L36.873,55.62Z" transform="translate(-36.587 -30.744)" fill="#474b59"/></g><g transform="translate(50.753 26.193)"><path d="M41.648,59.98l42.8-24.875-5.06-9.794-42.8,24.875Z" transform="translate(-36.587 -25.311)" fill="#525566"/></g><g transform="translate(5.385)"><path d="M84.763,61.847l42.8-24.875L82.2,10.778l-42.8,24.875Z" transform="translate(-39.395 -10.778)" fill="#5b5e71"/></g><g transform="translate(0 24.875)"><path d="M65.72,24.579l-5.1,3.929-.286,100.877,55.527,32.059.286-100.877-5.06-9.794Z" transform="translate(-60.335 -24.579)" fill="#3f434f"/></g><g transform="translate(4.145 53.976)"><path d="M78.137,40.724l.023,5.458L97.7,57.466l.015-5.436Z" transform="translate(-78.137 -40.724)" fill="#9ad898"/></g><g transform="translate(37.663 108.049)"><path d="M70.244,70.908c-.737-.425-1.32-.093-1.323.8a2.866,2.866,0,0,0,1.314,2.276c.737.425,1.359.115,1.361-.731A2.958,2.958,0,0,0,70.244,70.908Z" transform="translate(-68.921 -70.724)" fill="#cad0dd"/></g><g transform="translate(47.845 146.926)"><path d="M64.633,92.483c-.737-.425-1.359-.115-1.361.731a3.028,3.028,0,0,0,1.353,2.343c.737.425,1.32.048,1.323-.8a2.866,2.866,0,0,0-1.314-2.276Z" transform="translate(-63.272 -92.293)" fill="#cad0dd"/></g><g transform="translate(27.255 135.02)"><g transform="translate(0)"><path d="M76.018,85.873c-.737-.425-1.32-.093-1.323.754a2.946,2.946,0,0,0,1.314,2.321c.737.425,1.359.071,1.362-.776a2.947,2.947,0,0,0-1.353-2.3Z" transform="translate(-74.695 -85.688)" fill="#cad0dd"/></g></g><g transform="translate(32.412 137.998)"><g transform="translate(0)"><path d="M73.157,87.525c-.737-.425-1.32-.093-1.323.754A2.946,2.946,0,0,0,73.148,90.6c.737.425,1.359.071,1.362-.776a2.947,2.947,0,0,0-1.353-2.3Z" transform="translate(-71.834 -87.34)" fill="#cad0dd"/></g></g><g transform="translate(37.57 140.975)"><g transform="translate(0)"><path d="M70.3,89.177c-.737-.425-1.32-.093-1.323.754a2.946,2.946,0,0,0,1.314,2.321c.737.425,1.359.071,1.362-.776A2.947,2.947,0,0,0,70.3,89.177Z" transform="translate(-68.973 -88.992)" fill="#cad0dd"/></g></g><g transform="translate(42.727 143.953)"><g transform="translate(0)"><path d="M67.434,90.829c-.737-.425-1.32-.093-1.323.754A2.946,2.946,0,0,0,67.425,93.9c.737.425,1.359.071,1.362-.776a2.947,2.947,0,0,0-1.353-2.3Z" transform="translate(-66.111 -90.644)" fill="#cad0dd"/></g></g><g transform="translate(2.856 118.574)"><g transform="translate(0)"><path d="M62.758,76.661c-.388-.224-.7-.047-.7.4L62.041,82.9a1.526,1.526,0,0,0,.7,1.2l48.47,27.984c.388.224.7.046.7-.4l.017-5.837a1.525,1.525,0,0,0-.7-1.2Zm.409,6.618-.023-5.5L82.725,89.081l-.015,5.48Zm34.9,18.946A2.947,2.947,0,0,1,96.754,99.9c0-.847.586-1.179,1.323-.754a2.947,2.947,0,0,1,1.353,2.3c0,.846-.625,1.2-1.362.776m-5.157-2.978A2.946,2.946,0,0,1,91.6,96.926c0-.847.586-1.179,1.323-.754a2.947,2.947,0,0,1,1.353,2.3c0,.847-.625,1.2-1.362.776m-5.157-2.977a2.946,2.946,0,0,1-1.314-2.321c0-.847.586-1.179,1.323-.754a2.947,2.947,0,0,1,1.353,2.3c0,.846-.625,1.2-1.362.776m15.472,8.933a2.946,2.946,0,0,1-1.314-2.321c0-.847.586-1.179,1.323-.754a2.947,2.947,0,0,1,1.353,2.3c0,.847-.625,1.2-1.362.776m5.157,2.978a3.028,3.028,0,0,1-1.353-2.343c0-.847.625-1.157,1.361-.731a2.866,2.866,0,0,1,1.314,2.276c0,.846-.586,1.224-1.323.8" transform="translate(-62.041 -76.564)" fill="#5b5e71"/></g></g><g transform="translate(3.959 119.786)"><path d="M78.241,77.236l.023,5.5L97.807,94.022l.015-5.48Z" transform="translate(-78.241 -77.236)" fill="#cad0dd"/></g><g transform="translate(27.286 124.051)"><g transform="translate(0)"><path d="M76,79.8c-.737-.425-1.32-.137-1.323.754a2.946,2.946,0,0,0,1.314,2.321c.737.425,1.359.071,1.362-.776A2.879,2.879,0,0,0,76,79.8Z" transform="translate(-74.678 -79.602)" fill="#cad0dd"/></g></g><g transform="translate(4.021 97.864)"><path d="M78.206,65.074l.023,5.458L97.773,81.816l.015-5.436Z" transform="translate(-78.206 -65.074)" fill="#576cfb"/></g><g transform="translate(32.443 127.028)"><g transform="translate(0)"><path d="M73.139,81.448c-.737-.425-1.32-.137-1.323.754a2.946,2.946,0,0,0,1.314,2.321c.737.425,1.359.071,1.362-.776a2.878,2.878,0,0,0-1.353-2.3Z" transform="translate(-71.817 -81.254)" fill="#cad0dd"/></g></g><g transform="translate(27.317 113.055)"><g transform="translate(0)"><path d="M75.984,73.685c-.737-.425-1.32-.093-1.323.8a2.866,2.866,0,0,0,1.314,2.276c.737.425,1.359.115,1.361-.731a2.958,2.958,0,0,0-1.353-2.343Z" transform="translate(-74.661 -73.502)" fill="#cad0dd"/></g></g><g transform="translate(37.601 130.006)"><g transform="translate(0)"><path d="M70.278,83.1c-.737-.425-1.32-.137-1.323.754a2.946,2.946,0,0,0,1.314,2.321c.737.425,1.359.071,1.362-.776a2.879,2.879,0,0,0-1.353-2.3Z" transform="translate(-68.955 -82.906)" fill="#cad0dd"/></g></g><g transform="translate(32.474 116.032)"><g transform="translate(0)"><path d="M73.122,75.337c-.737-.425-1.32-.093-1.323.8a2.866,2.866,0,0,0,1.314,2.276c.737.425,1.359.115,1.361-.731A2.958,2.958,0,0,0,73.122,75.337Z" transform="translate(-71.799 -75.154)" fill="#cad0dd"/></g></g><g transform="translate(42.758 132.983)"><g transform="translate(0)"><path d="M67.417,84.751c-.737-.425-1.32-.137-1.323.754a2.946,2.946,0,0,0,1.314,2.321c.737.425,1.359.071,1.362-.776a2.878,2.878,0,0,0-1.353-2.3Z" transform="translate(-66.094 -84.558)" fill="#cad0dd"/></g></g><g transform="translate(37.632 119.01)"><g transform="translate(0)"><path d="M70.261,76.989c-.737-.425-1.32-.093-1.323.8a2.866,2.866,0,0,0,1.314,2.276c.737.425,1.359.115,1.361-.731A2.958,2.958,0,0,0,70.261,76.989Z" transform="translate(-68.938 -76.806)" fill="#cad0dd"/></g></g><g transform="translate(32.506 105.071)"><g transform="translate(0)"><path d="M73.105,69.256c-.737-.425-1.32-.093-1.323.8A2.866,2.866,0,0,0,73.1,72.331c.737.425,1.359.115,1.361-.731a2.958,2.958,0,0,0-1.353-2.343Z" transform="translate(-71.782 -69.072)" fill="#cad0dd"/></g></g><g transform="translate(2.887 107.57)"><g transform="translate(0)"><path d="M62.741,70.554c-.388-.224-.7-.046-.7.444l-.017,5.837a1.526,1.526,0,0,0,.7,1.205l48.47,27.984c.388.224.7.046.7-.4l.017-5.837a1.54,1.54,0,0,0-.7-1.25Zm.408,6.618-.023-5.458L82.708,83.02l-.015,5.436Zm34.9,18.99a2.946,2.946,0,0,1-1.314-2.321c0-.891.586-1.179,1.323-.754a2.878,2.878,0,0,1,1.353,2.3c0,.847-.625,1.2-1.362.776m-5.157-2.977a2.946,2.946,0,0,1-1.314-2.321c0-.891.586-1.179,1.323-.754a2.879,2.879,0,0,1,1.353,2.3c0,.847-.625,1.2-1.362.776m-5.157-2.978a2.946,2.946,0,0,1-1.314-2.321c0-.891.586-1.179,1.323-.754a2.879,2.879,0,0,1,1.353,2.3c0,.847-.625,1.2-1.362.776m15.472,8.933a2.946,2.946,0,0,1-1.314-2.321c0-.891.586-1.179,1.323-.754a2.878,2.878,0,0,1,1.353,2.3c0,.847-.625,1.2-1.362.776m5.157,2.977a3.027,3.027,0,0,1-1.353-2.343c0-.891.625-1.157,1.361-.731a2.8,2.8,0,0,1,1.314,2.276c0,.847-.586,1.224-1.323.8" transform="translate(-62.024 -70.459)" fill="#5b5e71"/></g></g><g transform="translate(2.918 96.608)"><g transform="translate(0)"><path d="M62.724,64.474c-.388-.224-.7-.047-.7.4l-.017,5.881a1.526,1.526,0,0,0,.7,1.205l48.47,27.984c.388.224.7.047.7-.4l.017-5.881a1.525,1.525,0,0,0-.7-1.205Zm.408,6.618-.023-5.458L82.691,76.939l-.015,5.436Zm34.9,18.946a2.866,2.866,0,0,1-1.314-2.276c0-.891.586-1.224,1.323-.8A2.958,2.958,0,0,1,99.4,89.306c0,.847-.625,1.157-1.361.731M92.877,87.06a2.866,2.866,0,0,1-1.314-2.276c0-.891.586-1.224,1.323-.8a2.958,2.958,0,0,1,1.353,2.343c0,.847-.625,1.157-1.361.731M87.72,84.082a2.867,2.867,0,0,1-1.314-2.276c0-.891.586-1.224,1.323-.8a2.958,2.958,0,0,1,1.353,2.343c0,.847-.625,1.157-1.361.731m15.472,8.933a2.867,2.867,0,0,1-1.314-2.276c0-.891.586-1.224,1.323-.8a2.958,2.958,0,0,1,1.353,2.343c0,.847-.625,1.157-1.361.731m5.157,2.977a2.947,2.947,0,0,1-1.353-2.3c0-.891.625-1.2,1.362-.776a2.88,2.88,0,0,1,1.314,2.321c0,.847-.586,1.179-1.323.754" transform="translate(-62.006 -64.377)" fill="#5b5e71"/></g></g><g transform="translate(32.537 94.11)"><path d="M73.088,63.175c-.737-.425-1.32-.093-1.323.8a2.934,2.934,0,0,0,1.314,2.276c.737.425,1.359.071,1.361-.731a2.958,2.958,0,0,0-1.353-2.343Z" transform="translate(-71.765 -62.991)" fill="#cad0dd"/></g><g transform="translate(42.82 111.026)"><path d="M67.382,72.56c-.737-.425-1.32-.093-1.323.8a2.866,2.866,0,0,0,1.314,2.276c.737.425,1.359.115,1.362-.731A2.959,2.959,0,0,0,67.382,72.56Z" transform="translate(-66.06 -72.376)" fill="#cad0dd"/></g><g transform="translate(27.348 102.094)"><path d="M75.966,67.6c-.737-.425-1.32-.093-1.323.8a2.866,2.866,0,0,0,1.314,2.276c.737.425,1.359.115,1.362-.731A2.959,2.959,0,0,0,75.966,67.6Z" transform="translate(-74.643 -67.421)" fill="#cad0dd"/></g><g transform="translate(3.99 108.825)"><path d="M78.223,71.155l.023,5.458L97.79,87.9l.016-5.436Z" transform="translate(-78.223 -71.155)" fill="#6eba6e"/></g><g transform="translate(47.938 113.999)"><path d="M64.582,74.214c-.737-.425-1.359-.115-1.362.776a2.947,2.947,0,0,0,1.353,2.3c.737.425,1.32.093,1.323-.754A2.88,2.88,0,0,0,64.582,74.214Z" transform="translate(-63.22 -74.026)" fill="#cad0dd"/></g><g transform="translate(42.789 121.987)"><path d="M67.4,78.641c-.737-.425-1.32-.093-1.323.8a2.866,2.866,0,0,0,1.314,2.276c.737.425,1.359.115,1.361-.731A2.957,2.957,0,0,0,67.4,78.641Z" transform="translate(-66.077 -78.458)" fill="#cad0dd"/></g><g transform="translate(4.052 86.903)"><g transform="translate(0 0)"><path d="M78.189,58.993l.023,5.458L97.755,75.734l.016-5.436Z" transform="translate(-78.189 -58.993)" fill="#f9bb4a"/></g></g><g transform="translate(27.379 91.133)"><g transform="translate(0 0)"><path d="M75.949,61.523c-.737-.425-1.32-.093-1.323.8A2.934,2.934,0,0,0,75.94,64.6c.737.425,1.359.071,1.361-.731A2.958,2.958,0,0,0,75.949,61.523Z" transform="translate(-74.626 -61.339)" fill="#cad0dd"/></g></g><g transform="translate(42.851 100.065)"><g transform="translate(0)"><path d="M67.365,66.479c-.737-.425-1.32-.093-1.323.8a2.934,2.934,0,0,0,1.314,2.276c.737.425,1.359.071,1.361-.731a2.957,2.957,0,0,0-1.353-2.343Z" transform="translate(-66.043 -66.295)" fill="#cad0dd"/></g></g><g transform="translate(2.981 74.686)"><g transform="translate(0 0)"><path d="M62.689,52.311c-.388-.224-.7-.047-.7.4l-.017,5.837a1.526,1.526,0,0,0,.7,1.205l48.47,27.984c.388.224.7.047.7-.4l.017-5.837a1.525,1.525,0,0,0-.7-1.2Zm.408,6.618-.023-5.5L82.656,64.732l-.016,5.48ZM98,77.875A2.935,2.935,0,0,1,96.685,75.6c0-.891.586-1.224,1.323-.8a2.958,2.958,0,0,1,1.353,2.343c0,.8-.625,1.157-1.361.731M92.842,74.9a2.935,2.935,0,0,1-1.314-2.276c0-.891.586-1.224,1.323-.8A2.958,2.958,0,0,1,94.2,74.166c0,.8-.625,1.157-1.361.731M87.685,71.92a2.935,2.935,0,0,1-1.314-2.276c0-.891.586-1.224,1.323-.8a2.958,2.958,0,0,1,1.353,2.343c0,.8-.625,1.157-1.361.731m15.472,8.933a2.935,2.935,0,0,1-1.314-2.276c0-.891.586-1.224,1.323-.8a2.958,2.958,0,0,1,1.353,2.343c0,.8-.625,1.157-1.361.731m5.157,2.977a3.018,3.018,0,0,1-1.353-2.3c0-.891.625-1.2,1.362-.776a2.88,2.88,0,0,1,1.314,2.321c0,.8-.586,1.179-1.323.754" transform="translate(-61.972 -52.214)" fill="#5b5e71"/></g></g><g transform="translate(4.083 75.898)"><path d="M78.171,52.887l.023,5.5L97.738,69.673l.015-5.48Z" transform="translate(-78.171 -52.887)" fill="#f9607f"/></g><g transform="translate(4.114 64.937)"><g transform="translate(0 0)"><path d="M78.154,46.806l.023,5.458L97.721,63.547l.015-5.436Z" transform="translate(-78.154 -46.806)" fill="#748bfd"/></g></g><g transform="translate(27.411 80.162)"><g transform="translate(0 0)"><path d="M75.932,55.446c-.737-.425-1.32-.137-1.323.754a2.947,2.947,0,0,0,1.314,2.321c.737.425,1.359.071,1.362-.776a2.878,2.878,0,0,0-1.353-2.3Z" transform="translate(-74.609 -55.253)" fill="#cad0dd"/></g></g><g transform="translate(37.694 97.088)"><g transform="translate(0)"><path d="M70.227,64.827c-.737-.425-1.32-.093-1.323.8A2.934,2.934,0,0,0,70.218,67.9c.737.425,1.359.071,1.361-.731A2.958,2.958,0,0,0,70.227,64.827Z" transform="translate(-68.904 -64.643)" fill="#cad0dd"/></g></g><g transform="translate(32.568 83.14)"><g transform="translate(0)"><path d="M73.07,57.1c-.737-.425-1.32-.137-1.323.754a2.946,2.946,0,0,0,1.314,2.321c.737.425,1.359.071,1.362-.776a2.878,2.878,0,0,0-1.353-2.3Z" transform="translate(-71.748 -56.905)" fill="#cad0dd"/></g></g><g transform="translate(2.949 85.647)"><g transform="translate(0 0)"><path d="M62.706,58.392c-.388-.224-.7-.047-.7.4l-.017,5.837a1.606,1.606,0,0,0,.7,1.249l48.47,27.984c.388.224.7,0,.7-.443l.017-5.837a1.525,1.525,0,0,0-.7-1.2Zm.409,6.618-.023-5.458L82.673,70.858l-.015,5.436Zm34.9,18.946A2.866,2.866,0,0,1,96.7,81.68c0-.891.586-1.224,1.323-.8a2.958,2.958,0,0,1,1.353,2.343c0,.846-.625,1.157-1.361.731m-5.157-2.978A2.867,2.867,0,0,1,91.545,78.7c0-.891.586-1.224,1.323-.8a2.958,2.958,0,0,1,1.353,2.343c0,.847-.625,1.157-1.361.731M87.7,78a2.866,2.866,0,0,1-1.314-2.276c0-.891.586-1.224,1.323-.8a2.958,2.958,0,0,1,1.353,2.343c0,.846-.625,1.157-1.361.731m15.472,8.933a2.866,2.866,0,0,1-1.314-2.276c0-.891.586-1.224,1.323-.8a2.958,2.958,0,0,1,1.353,2.343c0,.847-.625,1.157-1.361.731m5.157,2.978a2.948,2.948,0,0,1-1.353-2.3c0-.891.625-1.2,1.362-.776a2.879,2.879,0,0,1,1.314,2.321c0,.846-.586,1.179-1.323.754" transform="translate(-61.989 -58.296)" fill="#5b5e71"/></g></g><g transform="translate(27.442 69.201)"><g transform="translate(0)"><path d="M75.914,49.365c-.737-.425-1.32-.138-1.323.754a2.947,2.947,0,0,0,1.314,2.321c.737.425,1.359.071,1.362-.776a2.878,2.878,0,0,0-1.353-2.3Z" transform="translate(-74.592 -49.172)" fill="#cad0dd"/></g></g><g transform="translate(37.725 86.118)"><g transform="translate(0)"><path d="M70.209,58.75c-.737-.425-1.32-.137-1.323.754A2.946,2.946,0,0,0,70.2,61.824c.737.425,1.359.071,1.362-.776a2.878,2.878,0,0,0-1.353-2.3Z" transform="translate(-68.886 -58.557)" fill="#cad0dd"/></g></g><g transform="translate(47.97 103.038)"><g transform="translate(0)"><path d="M64.564,68.133c-.737-.425-1.359-.115-1.362.776a3.019,3.019,0,0,0,1.353,2.3c.737.425,1.32.048,1.323-.754A2.879,2.879,0,0,0,64.564,68.133Z" transform="translate(-63.203 -67.944)" fill="#cad0dd"/></g></g><g transform="translate(4.176 43.015)"><path d="M78.12,34.643l.023,5.458L97.686,51.385l.015-5.436Z" transform="translate(-78.12 -34.643)" fill="#fed57a"/></g><g transform="translate(32.599 72.179)"><g transform="translate(0 0)"><path d="M73.053,51.017c-.737-.425-1.32-.138-1.323.754a2.947,2.947,0,0,0,1.314,2.321c.737.425,1.359.071,1.362-.776a2.879,2.879,0,0,0-1.353-2.3Z" transform="translate(-71.73 -50.824)" fill="#cad0dd"/></g></g><g transform="translate(42.882 89.095)"><g transform="translate(0)"><path d="M67.348,60.4c-.737-.425-1.32-.137-1.323.754a2.946,2.946,0,0,0,1.314,2.321c.737.425,1.359.071,1.362-.776a2.879,2.879,0,0,0-1.353-2.3Z" transform="translate(-66.025 -60.209)" fill="#cad0dd"/></g></g><g transform="translate(27.473 58.205)"><g transform="translate(0 0)"><path d="M75.9,43.255c-.737-.425-1.32-.093-1.323.8a2.866,2.866,0,0,0,1.314,2.276c.737.425,1.359.115,1.362-.731A2.958,2.958,0,0,0,75.9,43.255Z" transform="translate(-74.574 -43.071)" fill="#cad0dd"/></g></g><g transform="translate(3.043 52.719)"><g transform="translate(0)"><path d="M62.655,40.124c-.388-.224-.7-.046-.7.4L61.937,46.4a1.526,1.526,0,0,0,.7,1.2L111.1,75.594c.388.224.7.046.7-.4l.017-5.882a1.525,1.525,0,0,0-.7-1.2Zm.409,6.618-.023-5.458L82.622,52.589l-.015,5.436Zm34.9,18.99a2.946,2.946,0,0,1-1.314-2.321c0-.891.586-1.179,1.323-.754a2.879,2.879,0,0,1,1.353,2.3c0,.846-.625,1.2-1.362.776m-5.157-2.977a2.946,2.946,0,0,1-1.314-2.321c0-.891.586-1.179,1.323-.754a2.878,2.878,0,0,1,1.353,2.3c0,.846-.625,1.2-1.362.776M87.65,59.777a2.947,2.947,0,0,1-1.314-2.321c0-.891.586-1.179,1.323-.754A2.879,2.879,0,0,1,89.012,59c0,.846-.625,1.2-1.362.776m15.472,8.933a2.946,2.946,0,0,1-1.314-2.321c0-.891.586-1.179,1.323-.754a2.879,2.879,0,0,1,1.353,2.3c0,.847-.625,1.2-1.362.776m5.157,2.978a3.028,3.028,0,0,1-1.353-2.343c0-.891.625-1.157,1.361-.731a2.8,2.8,0,0,1,1.314,2.276c0,.846-.586,1.224-1.323.8" transform="translate(-61.937 -40.027)" fill="#5b5e71"/></g></g><g transform="translate(37.756 75.157)"><g transform="translate(0)"><path d="M70.192,52.669c-.737-.425-1.32-.138-1.323.754a2.946,2.946,0,0,0,1.314,2.321c.737.425,1.359.071,1.362-.776a2.879,2.879,0,0,0-1.353-2.3Z" transform="translate(-68.869 -52.476)" fill="#cad0dd"/></g></g><g transform="translate(32.63 61.183)"><g transform="translate(0 0)"><path d="M73.036,44.907c-.737-.425-1.32-.093-1.323.8a2.866,2.866,0,0,0,1.314,2.276c.737.425,1.359.115,1.361-.731A2.958,2.958,0,0,0,73.036,44.907Z" transform="translate(-71.713 -44.723)" fill="#cad0dd"/></g></g><g transform="translate(3.012 63.689)"><g transform="translate(0 0)"><path d="M62.672,46.2c-.388-.224-.7,0-.7.444l-.017,5.837a1.526,1.526,0,0,0,.7,1.205l48.47,27.984c.388.224.7.046.7-.4l.017-5.837a1.607,1.607,0,0,0-.7-1.25Zm.408,6.618-.023-5.459L82.639,58.667,82.623,64.1Zm34.9,18.99a2.946,2.946,0,0,1-1.314-2.321c0-.891.586-1.179,1.323-.754a2.879,2.879,0,0,1,1.353,2.3c0,.847-.625,1.2-1.362.776m-5.157-2.977a2.946,2.946,0,0,1-1.314-2.321c0-.891.586-1.179,1.323-.754a2.879,2.879,0,0,1,1.353,2.3c0,.847-.625,1.2-1.362.776m-5.157-2.978a2.946,2.946,0,0,1-1.314-2.321c0-.891.586-1.179,1.323-.754a2.879,2.879,0,0,1,1.353,2.3c0,.847-.625,1.2-1.362.776m15.472,8.933a2.946,2.946,0,0,1-1.314-2.321c0-.891.586-1.179,1.323-.754a2.878,2.878,0,0,1,1.353,2.3c0,.847-.625,1.2-1.362.776m5.157,2.977a3.027,3.027,0,0,1-1.353-2.343c0-.891.625-1.157,1.361-.731a2.8,2.8,0,0,1,1.314,2.276c0,.847-.586,1.224-1.323.8" transform="translate(-61.955 -46.113)" fill="#5b5e71"/></g></g><g transform="translate(37.787 64.16)"><g transform="translate(0 0)"><path d="M70.175,46.559c-.737-.425-1.32-.093-1.323.8a2.866,2.866,0,0,0,1.314,2.276c.737.425,1.359.115,1.361-.731A2.958,2.958,0,0,0,70.175,46.559Z" transform="translate(-68.852 -46.375)" fill="#cad0dd"/></g></g><g transform="translate(48.032 81.107)"><g transform="translate(0)"><path d="M64.53,55.975c-.737-.425-1.359-.16-1.362.731a3.028,3.028,0,0,0,1.353,2.343c.737.425,1.32.048,1.323-.8A2.8,2.8,0,0,0,64.53,55.975Z" transform="translate(-63.168 -55.777)" fill="#cad0dd"/></g></g><g transform="translate(24.173 42.308)"><g transform="translate(0)"><path d="M77.478,34.78c-2.171-1.254-3.883-.189-3.89,2.262a8.481,8.481,0,0,0,3.865,6.694c2.171,1.254,3.883.234,3.89-2.217A8.561,8.561,0,0,0,77.478,34.78Z" transform="translate(-73.587 -34.251)" fill="#bac1ce"/></g></g><g transform="translate(42.944 67.138)"><g transform="translate(0)"><path d="M67.313,48.211c-.737-.425-1.32-.093-1.323.8A2.866,2.866,0,0,0,67.3,51.285c.737.425,1.359.115,1.362-.731A2.959,2.959,0,0,0,67.313,48.211Z" transform="translate(-65.991 -48.027)" fill="#cad0dd"/></g></g><g transform="translate(48.063 70.111)"><g transform="translate(0)"><path d="M64.512,49.865c-.737-.425-1.359-.115-1.362.776a2.947,2.947,0,0,0,1.353,2.3c.737.425,1.32.093,1.323-.754A2.88,2.88,0,0,0,64.512,49.865Z" transform="translate(-63.151 -49.676)" fill="#cad0dd"/></g></g><g transform="translate(3.074 41.758)"><g transform="translate(0)"><path d="M62.637,34.043c-.388-.224-.7-.047-.7.4l-.017,5.837a1.54,1.54,0,0,0,.7,1.25l48.47,27.984c.388.224.7.046.7-.444l.017-5.837a1.525,1.525,0,0,0-.7-1.2Zm.408,6.618L63.022,35.2,82.6,46.508l-.015,5.436Zm34.9,18.946a2.866,2.866,0,0,1-1.314-2.276c0-.891.586-1.224,1.323-.8a2.958,2.958,0,0,1,1.353,2.343c0,.847-.625,1.157-1.361.731M92.79,56.629a2.866,2.866,0,0,1-1.314-2.276c0-.891.586-1.224,1.323-.8A2.958,2.958,0,0,1,94.152,55.9c0,.847-.625,1.157-1.361.731m-5.157-2.978a2.866,2.866,0,0,1-1.314-2.276c0-.891.586-1.224,1.323-.8a2.958,2.958,0,0,1,1.353,2.343c0,.847-.625,1.157-1.361.731M103.1,62.584a2.866,2.866,0,0,1-1.314-2.276c0-.891.586-1.224,1.323-.8a2.958,2.958,0,0,1,1.353,2.343c0,.847-.625,1.157-1.361.731m5.157,2.977a2.947,2.947,0,0,1-1.353-2.3c0-.891.625-1.2,1.362-.776a2.88,2.88,0,0,1,1.314,2.321c0,.847-.586,1.179-1.323.754" transform="translate(-61.92 -33.946)" fill="#5b5e71"/></g></g><g transform="translate(42.913 78.134)"><path d="M67.331,54.321c-.737-.425-1.32-.138-1.323.754A2.947,2.947,0,0,0,67.322,57.4c.737.425,1.359.071,1.362-.776a2.879,2.879,0,0,0-1.353-2.3Z" transform="translate(-66.008 -54.127)" fill="#cad0dd"/></g><g transform="translate(48.001 92.067)"><path d="M64.547,62.056c-.737-.425-1.359-.16-1.361.731a3.028,3.028,0,0,0,1.353,2.343c.737.425,1.32.048,1.323-.8A2.8,2.8,0,0,0,64.547,62.056Z" transform="translate(-63.185 -61.858)" fill="#cad0dd"/></g><g transform="translate(47.907 124.96)"><path d="M64.6,80.3c-.737-.425-1.359-.115-1.362.776a2.947,2.947,0,0,0,1.353,2.3c.737.425,1.32.093,1.323-.754A2.879,2.879,0,0,0,64.6,80.3Z" transform="translate(-63.237 -80.107)" fill="#cad0dd"/></g><g transform="translate(47.876 135.956)"><path d="M64.616,86.406c-.737-.425-1.359-.16-1.361.731a3.027,3.027,0,0,0,1.353,2.343c.737.425,1.32.048,1.323-.8a2.8,2.8,0,0,0-1.314-2.276Z" transform="translate(-63.254 -86.207)" fill="#cad0dd"/></g></g><g transform="translate(58.913 47.566)"><g transform="translate(0)"><path d="M40.186,78.865A2.452,2.452,0,0,0,41.4,78.5L72.387,60.611a5.206,5.206,0,0,0,2.4-4.152L74.737,39.2a1.8,1.8,0,0,0-2.891-1.678L40.865,55.408a5.23,5.23,0,0,0-2.4,4.18l.049,17.261a1.973,1.973,0,0,0,.873,1.809,1.586,1.586,0,0,0,.8.207ZM73.035,38.128a.673.673,0,0,1,.333.082,1.1,1.1,0,0,1,.406.993l.047,17.261a4.3,4.3,0,0,1-1.913,3.316L40.925,77.668a1.11,1.11,0,0,1-1.058.157,1.091,1.091,0,0,1-.39-.979l-.049-17.263a4.3,4.3,0,0,1,1.915-3.342v0L72.324,38.351a1.475,1.475,0,0,1,.711-.223Z" transform="translate(-38.466 -37.168)" fill="#5b5e71"/></g></g><g transform="translate(58.913 76.24)"><g transform="translate(0)"><path d="M40.186,94.776a2.457,2.457,0,0,0,1.218-.368L72.387,76.522a5.206,5.206,0,0,0,2.4-4.154l-.047-17.261a2,2,0,0,0-.889-1.819,1.975,1.975,0,0,0-2,.141L40.865,71.317a5.234,5.234,0,0,0-2.4,4.18l.049,17.261a1.973,1.973,0,0,0,.873,1.809,1.575,1.575,0,0,0,.8.209ZM73.035,54.039a.65.65,0,0,1,.333.082,1.1,1.1,0,0,1,.406.99l.047,17.261a4.3,4.3,0,0,1-1.913,3.318L40.925,93.577a1.117,1.117,0,0,1-1.058.157,1.091,1.091,0,0,1-.39-.979l-.049-17.263a4.317,4.317,0,0,1,1.915-3.344L72.324,54.26a1.482,1.482,0,0,1,.711-.221Z" transform="translate(-38.466 -53.077)" fill="#5b5e71"/></g></g><g transform="translate(58.913 104.916)"><g transform="translate(0)"><path d="M40.186,110.683a2.452,2.452,0,0,0,1.218-.366L72.387,92.429a5.206,5.206,0,0,0,2.4-4.152l-.047-17.263a1.8,1.8,0,0,0-2.891-1.676L40.865,87.224a5.234,5.234,0,0,0-2.4,4.18l.049,17.263a1.972,1.972,0,0,0,.871,1.807,1.589,1.589,0,0,0,.8.209ZM73.035,69.946a.661.661,0,0,1,.333.082,1.1,1.1,0,0,1,.406.99l.047,17.263A4.3,4.3,0,0,1,71.908,91.6L40.925,109.486a1.109,1.109,0,0,1-1.058.155,1.086,1.086,0,0,1-.39-.976L39.428,91.4a4.317,4.317,0,0,1,1.915-3.344L72.324,70.17a1.473,1.473,0,0,1,.711-.223Z" transform="translate(-38.466 -68.986)" fill="#5b5e71"/></g></g></g><g transform="translate(144.448 75.17)"><g transform="translate(0 84.129)"><path d="M78.629,94.2l-.042,14.851c-.014,4.837-3.189,9.664-9.53,13.349-12.8,7.438-33.611,7.438-46.493,0-6.464-3.732-9.695-8.637-9.681-13.536l.042-14.851c-.014,4.9,3.217,9.8,9.681,13.536,12.883,7.438,33.694,7.438,46.493,0C75.44,103.867,78.615,99.04,78.629,94.2Z" transform="translate(-12.883 -94.015)" fill="#576cfb"/></g><g transform="translate(0.042 65.185)"><path d="M68.877,89.071c12.883,7.438,12.95,19.493.18,26.914-12.8,7.438-33.611,7.438-46.493,0C9.71,108.564,9.642,96.509,22.441,89.071,35.211,81.65,56.023,81.65,68.877,89.071Z" transform="translate(-12.883 -83.505)" fill="#748bfd"/></g><g transform="translate(2.157 63.304)"><path d="M75.512,82.637l-.039,20.225c-.013,4.52-2.98,9.03-8.9,12.473-11.959,6.95-31.405,6.95-43.443,0-6.04-3.487-9.059-8.07-9.046-12.648l.039-20.225c-.013,4.578,3.006,9.161,9.046,12.648,12.037,6.95,31.484,6.95,43.443,0C72.532,91.667,75.5,87.157,75.512,82.637Z" transform="translate(-14.079 -82.462)" fill="#fed57a"/></g><g transform="translate(2.196 45.604)"><path d="M66.4,77.842c12.037,6.95,12.1,18.214.169,25.148-11.959,6.95-31.405,6.95-43.443,0-12.01-6.934-12.074-18.2-.114-25.148C34.943,70.908,54.389,70.908,66.4,77.842Z" transform="translate(-14.08 -72.641)" fill="#fed57a"/></g><g transform="translate(0 63.248)"><path d="M78.629,82.618l-.042,14.851c-.014,4.837-3.189,9.664-9.53,13.349-12.8,7.438-33.611,7.438-46.493,0-6.464-3.732-9.695-8.637-9.681-13.536l.042-14.851c-.014,4.9,3.217,9.8,9.681,13.536,12.883,7.438,33.694,7.438,46.493,0C75.44,92.282,78.615,87.455,78.629,82.618Z" transform="translate(-12.883 -82.43)" fill="#576cfb"/></g><g transform="translate(0.042 44.304)"><path d="M68.877,77.486c12.883,7.438,12.95,19.493.18,26.914-12.8,7.438-33.611,7.438-46.493,0C9.71,96.979,9.642,84.924,22.441,77.486,35.211,70.065,56.023,70.065,68.877,77.486Z" transform="translate(-12.883 -71.92)" fill="#748bfd"/></g><g transform="translate(2.157 42.423)"><path d="M75.512,71.052l-.039,20.225c-.013,4.52-2.98,9.03-8.9,12.473-11.959,6.95-31.405,6.95-43.443,0-6.04-3.487-9.059-8.07-9.046-12.648l.039-20.225c-.013,4.578,3.006,9.161,9.046,12.648,12.037,6.95,31.484,6.95,43.443,0C72.532,80.082,75.5,75.572,75.512,71.052Z" transform="translate(-14.079 -70.877)" fill="#fed57a"/></g><g transform="translate(2.196 24.723)"><path d="M66.4,66.257c12.037,6.95,12.1,18.214.169,25.148-11.959,6.95-31.405,6.95-43.443,0-12.01-6.934-12.074-18.2-.114-25.148C34.943,59.323,54.389,59.323,66.4,66.257Z" transform="translate(-14.08 -61.057)" fill="#fed57a"/></g><g transform="translate(0 41.46)"><path d="M78.629,70.53l-.042,14.851c-.014,4.837-3.189,9.664-9.53,13.349-12.8,7.438-33.611,7.438-46.493,0C16.1,95,12.869,90.093,12.883,85.194l.042-14.851c-.014,4.9,3.217,9.8,9.681,13.536,12.883,7.438,33.694,7.438,46.493,0C75.44,80.194,78.615,75.367,78.629,70.53Z" transform="translate(-12.883 -70.342)" fill="#576cfb"/></g><g transform="translate(0.042 22.516)"><path d="M68.877,65.4c12.883,7.438,12.95,19.493.18,26.914-12.8,7.438-33.611,7.438-46.493,0C9.71,84.891,9.642,72.836,22.441,65.4c12.77-7.421,33.582-7.421,46.435,0Z" transform="translate(-12.883 -59.832)" fill="#748bfd"/></g><path d="M48.261,86.791a3.139,3.139,0,0,1-1.562-.462,6.555,6.555,0,0,1-3.01-5.215c.007-1.818,1.12-2.632,2.222-2.632a3.145,3.145,0,0,1,1.56.462,6.561,6.561,0,0,1,3.01,5.222c0,1.57-.9,2.625-2.22,2.625Z" transform="translate(-40.259 -22.352)" fill="#e4e8f4"/><path d="M46.757,79.262a5.788,5.788,0,0,1,2.632,4.567c0,1.667-1.183,2.356-2.649,1.51a5.812,5.812,0,0,1-2.632-4.558C44.112,79.095,45.3,78.419,46.757,79.262Z" transform="translate(-39.922 -22.016)" fill="#bac1ce"/><g transform="translate(2.157 19.907)"><path d="M75.512,58.56l-.039,20.225c-.013,4.52-2.98,9.03-8.9,12.473-11.959,6.95-31.405,6.95-43.443,0-6.04-3.487-9.059-8.07-9.046-12.648l.039-20.225c-.013,4.578,3.006,9.161,9.046,12.648,12.037,6.95,31.484,6.95,43.443,0C72.532,67.59,75.5,63.08,75.512,58.56Z" transform="translate(-14.079 -58.385)" fill="#fed57a"/></g><g transform="translate(0 18.944)"><path d="M78.629,58.038l-.042,14.851c-.014,4.837-3.189,9.664-9.53,13.349-12.8,7.438-33.611,7.438-46.493,0C16.1,82.506,12.869,77.6,12.883,72.7l.042-14.851c-.014,4.9,3.217,9.8,9.681,13.536,12.883,7.438,33.694,7.438,46.493,0C75.44,67.7,78.615,62.875,78.629,58.038Z" transform="translate(-12.883 -57.85)" fill="#576cfb"/></g><g transform="translate(0.042)"><path d="M68.877,52.906c12.883,7.438,12.95,19.493.18,26.914-12.8,7.438-33.611,7.438-46.493,0C9.71,72.4,9.642,60.344,22.441,52.906,35.211,45.485,56.023,45.485,68.877,52.906Z" transform="translate(-12.883 -47.34)" fill="#748bfd"/></g><path d="M48.261,74.3a3.139,3.139,0,0,1-1.562-.462,6.555,6.555,0,0,1-3.01-5.215c.007-1.818,1.12-2.632,2.222-2.632a3.145,3.145,0,0,1,1.56.462,6.561,6.561,0,0,1,3.01,5.222c0,1.57-.9,2.625-2.22,2.625Z" transform="translate(-40.259 -32.376)" fill="#e4e8f4"/><path d="M46.757,66.77a5.788,5.788,0,0,1,2.632,4.567c0,1.667-1.183,2.356-2.649,1.51a5.812,5.812,0,0,1-2.632-4.558C44.112,66.6,45.3,65.927,46.757,66.77Z" transform="translate(-39.922 -32.04)" fill="#bac1ce"/><path d="M48.261,98.779a3.139,3.139,0,0,1-1.562-.462,6.555,6.555,0,0,1-3.01-5.215c.007-1.818,1.12-2.632,2.222-2.632a3.145,3.145,0,0,1,1.56.462,6.561,6.561,0,0,1,3.01,5.222c0,1.57-.9,2.625-2.22,2.625Z" transform="translate(-40.259 -12.732)" fill="#e4e8f4"/><path d="M46.757,91.249a5.788,5.788,0,0,1,2.632,4.567c0,1.667-1.183,2.356-2.649,1.51a5.812,5.812,0,0,1-2.632-4.558C44.112,91.083,45.3,90.407,46.757,91.249Z" transform="translate(-39.922 -12.396)" fill="#bac1ce"/><path d="M48.261,110.766A3.137,3.137,0,0,1,46.7,110.3a6.555,6.555,0,0,1-3.01-5.215c.007-1.818,1.12-2.632,2.222-2.632a3.145,3.145,0,0,1,1.56.462,6.561,6.561,0,0,1,3.01,5.222c0,1.569-.9,2.625-2.22,2.625Z" transform="translate(-40.259 -3.113)" fill="#e4e8f4"/><path d="M46.757,103.237a5.788,5.788,0,0,1,2.632,4.567c0,1.667-1.183,2.356-2.649,1.51a5.812,5.812,0,0,1-2.632-4.558C44.112,103.071,45.3,102.4,46.757,103.237Z" transform="translate(-39.922 -2.777)" fill="#bac1ce"/></g></g></g></g><g transform="translate(644.245 274.809) rotate(8)"><path d="M12.159,11.522,2.491,0,0,2.09,10.037,14.052Z" transform="translate(8.915 7.1)" fill="#6c7fd9"/><path d="M1.578,0,0,1.324,10.037,13.286l1.345-1.6Z" transform="translate(8.915 7.866)" fill="#4f66d1"/><path d="M0,0H4.5V3.224H0Z" transform="matrix(0.766, -0.643, 0.643, 0.766, 24.045, 28.18)" fill="#fc2b3a"/><path d="M3.264,2.469l1.323-1.11L3.447,0,0,2.892l2.072,2.47L3.692,4,3.183,3.4A.658.658,0,0,1,3.264,2.469Z" transform="translate(24.041 25.294)" fill="#e61f2d"/><path d="M13.6,38.185a1.376,1.376,0,0,1,.269-1.292L26.1,22.322l3.866-4.607a1.382,1.382,0,0,1,1.38-.462A8.741,8.741,0,0,0,41.7,5.973a.539.539,0,0,0-.923-.176l-4.691,5.591a1.307,1.307,0,0,1-1.228.447l-2.77-.488a1.307,1.307,0,0,1-1-.84l-.962-2.644a1.307,1.307,0,0,1,.227-1.287l4.7-5.6A.539.539,0,0,0,34.715.1,8.751,8.751,0,0,0,25.4,12.262a1.384,1.384,0,0,1-.214,1.442L9.089,32.883a1.389,1.389,0,0,1-1.24.487A6.96,6.96,0,0,0,.485,42.84a.537.537,0,0,0,.911.143l3.978-4.741a.35.35,0,0,1,.329-.12l2.468.435a.35.35,0,0,1,.268.225L9.3,41.137a.35.35,0,0,1-.061.345L5.253,46.228a.538.538,0,0,0,.3.872A6.965,6.965,0,0,0,13.6,38.185Z" transform="translate(0 0)" fill="#b4dbff"/><path d="M4.359,35.978a6.958,6.958,0,0,1,6.373-2.609,1.389,1.389,0,0,0,1.24-.487L28.065,13.7a1.384,1.384,0,0,0,.214-1.442A8.749,8.749,0,0,1,34.821.125.546.546,0,0,0,34.715.1,8.751,8.751,0,0,0,25.4,12.262a1.384,1.384,0,0,1-.214,1.442L9.089,32.883a1.389,1.389,0,0,1-1.24.487A6.96,6.96,0,0,0,.485,42.84a.537.537,0,0,0,.911.143l1.542-1.838a6.951,6.951,0,0,1,1.421-5.167Z" transform="translate(0 0)" fill="#8bcaff"/><path d="M6.428.384a1.075,1.075,0,0,0-.87-.376L0,6.631l.812.949a.824.824,0,0,0,1.161.1L7.549,3a.824.824,0,0,0,.1-1.161Z" transform="translate(21.067 21.475)" fill="#ff4755"/><path d="M6.428.384a1.075,1.075,0,0,0-.87-.376L0,6.631l.812.949a.824.824,0,0,0,1.161.1L7.549,3a.824.824,0,0,0,.1-1.161Z" transform="translate(21.067 21.475)" fill="#ff4755"/><path d="M2.8,0,0,3.341l.812.949a.824.824,0,0,0,1.161.1L4.564,2.219Z" transform="translate(21.067 24.765)" fill="#fc2b3a"/><path d="M4.806.633.968,3.853A2.728,2.728,0,0,0,.633,7.685l9.812,11.693a2.728,2.728,0,0,0,3.831.335l3.838-3.22a2.728,2.728,0,0,0,.335-3.831L8.638.968A2.728,2.728,0,0,0,4.806.633Z" transform="translate(24.889 26.896)" fill="#ff8088"/><path d="M13.273,19.377,3.461,7.684A2.728,2.728,0,0,1,3.8,3.853L7.634.633A2.7,2.7,0,0,1,7.967.394,2.729,2.729,0,0,0,4.806.633L.968,3.853A2.728,2.728,0,0,0,.633,7.684l9.812,11.693a2.73,2.73,0,0,0,3.5.574A2.7,2.7,0,0,1,13.273,19.377Z" transform="translate(24.889 26.896)" fill="#ff4755"/><path d="M15.37.737a3.142,3.142,0,0,0-4.415.368L.722,13.3a3.146,3.146,0,0,0,4.82,4.045l10.233-12.2A3.142,3.142,0,0,0,15.37.737Z" transform="translate(11.145 16.204)" fill="#8bcaff"/><path d="M4.374,17.712a3.142,3.142,0,0,1-.4-4.412L14.2,1.1A3.07,3.07,0,0,1,14.968.45a3.139,3.139,0,0,0-4.013.655L.722,13.3A3.149,3.149,0,0,0,4.776,18,3.153,3.153,0,0,1,4.374,17.712Z" transform="translate(11.145 16.205)" fill="#60b8ff"/><path d="M.255,12.487a.713.713,0,0,1-.088-1L9.588.255a.713.713,0,0,1,1.092.917L1.259,12.4A.713.713,0,0,1,.255,12.487Z" transform="translate(13.969 19.13)" fill="#b4dbff"/><path d="M2.8.136.207,2.313a.58.58,0,0,0-.072.817L2.383,5.809,5.867,2.886,3.619.207A.58.58,0,0,0,2.8.136Z" transform="translate(4.251 1.762)" fill="#6c7fd9"/><path d="M1.992.618C1.786.373,1.712.1,1.827,0L.207,1.359a.58.58,0,0,0-.072.817L2.383,4.855,4.239,3.3Z" transform="translate(4.251 2.717)" fill="#4f66d1"/><path d="M0,2.923,2.283,4.544l2.491-2.09L3.484,0Z" transform="translate(6.634 4.648)" fill="#4f66d1"/><path d="M1.866,0,0,1.566,2.283,3.187,3.867,1.858Z" transform="translate(6.634 6.005)" fill="#314dca"/><path d="M1.907.136.223,1.549c-.5.422-.127,1.7.834,2.85l9.812,11.693c.961,1.146,2.159,1.738,2.662,1.316L15.215,16c.5-.422.127-1.7-.834-2.85L4.569,1.452C3.607.307,2.409-.286,1.907.136Z" transform="translate(26.712 28.297)" fill="#ff4755"/><path d="M13.717,16.092,3.906,4.4c-.961-1.146-1.337-2.428-.834-2.85L3.947.814C3.139.1,2.305-.2,1.907.136L.223,1.549c-.5.422-.127,1.7.834,2.85l9.812,11.693c.961,1.146,2.159,1.738,2.662,1.316l.808-.678A5.9,5.9,0,0,1,13.717,16.092Z" transform="translate(26.711 28.297)" fill="#fc2b3a"/></g></g></svg>