<?xml version="1.0" encoding="UTF-8"?>
<svg id="_レイヤー_2" data-name="レイヤー 2" xmlns="http://www.w3.org/2000/svg" viewBox="0 0 400 116">
  <defs>
    <style>
      .cls-1 {
        opacity: .8;
      }

      .cls-2 {
        fill: #f2a5ba;
      }

      .cls-2, .cls-3 {
        stroke-width: 0px;
      }

      .cls-3 {
        fill: #f1a1b4;
      }
    </style>
  </defs>
  <g id="_レイヤー_1-2" data-name="レイヤー 1">
    <g>
      <g>
        <g id="_グループ_5132" data-name="グループ 5132">
          <path id="_パス_1380-2" data-name=" パス 1380-2" class="cls-3" d="M66.27,66.59h-28.04V11.48h5.85v49.98h22.19v5.13Z"/>
          <path id="_パス_1381-2" data-name=" パス 1381-2" class="cls-3" d="M83.6,20.23c-2.1,0-3.8-1.74-3.8-3.89h0v-.23c-.05-2.18,1.63-3.98,3.75-4.03s3.88,1.68,3.93,3.85v.17c.16,2.11-1.38,3.95-3.44,4.12-.15.01-.29.01-.44,0h0ZM86.56,66.59h-5.85V27.17h5.85v39.41Z"/>
          <path id="_パス_1382-2" data-name=" パス 1382-2" class="cls-3" d="M105.85,27.16c0-4.93,0-11.36,4.22-15.77,2.4-2.32,5.58-3.59,8.88-3.54,1.96-.02,3.9.37,5.71,1.16l-.98,4.7c-1.4-.63-2.91-.95-4.44-.94-6.06,0-7.54,5.79-7.54,12.15v2.24h9.3v4.7h-9.3v34.72h-5.85V31.87h-5.28v-4.7h5.28Z"/>
          <path id="_パス_1383-2" data-name=" パス 1383-2" class="cls-3" d="M161.31,64.91c-3.79,1.73-7.9,2.57-12.05,2.46-11.21,0-17.9-8.1-17.9-19.89s6.77-21.27,17.13-21.27c11.84,0,14.87,11.14,14.87,18.01,0,1.37-.08,2.39-.14,3.33h-26.13c.08,10.92,6.13,15.03,13.04,15.03,3.46.07,6.89-.62,10.07-2.02l1.13,4.34h-.01ZM157.57,43.07c.08-5.36-2.11-12.3-9.65-12.3-7.05,0-10.15,6.86-10.71,12.3h20.36Z"/>
          <path id="_パス_1384-2" data-name=" パス 1384-2" class="cls-3" d="M226.77,18.27c-2.86-1.71-6.13-2.58-9.44-2.53-7.47,0-10.29,4.7-10.29,8.68,0,5.42,3.24,8.16,10.43,11.28,8.66,3.76,13.1,8.32,13.1,16.2,0,8.75-6.2,15.47-17.75,15.47-4.5.06-8.93-1.14-12.82-3.47l1.62-4.99c3.47,2.22,7.47,3.4,11.56,3.4,7.19,0,11.41-3.98,11.41-9.91,0-5.42-2.89-8.75-9.87-11.64-8.1-3.11-13.6-7.95-13.6-15.55,0-8.39,6.63-14.53,16.42-14.53,3.82-.13,7.61.76,10.99,2.6l-1.76,4.99h-.01Z"/>
          <path id="_パス_1385-2" data-name=" パス 1385-2" class="cls-3" d="M248.31,20l5.78-2.02v9.18h9.93v4.7h-9.93v22.79c0,4.99,1.48,7.74,5.22,7.74,1.34.04,2.67-.15,3.94-.58l.36,4.63c-1.82.7-3.76,1.01-5.71.94-9.3,0-9.59-8.68-9.59-12.86v-22.64h-5.92v-4.7h5.91v-7.16h0Z"/>
          <path id="_パス_1386-2" data-name=" パス 1386-2" class="cls-3" d="M303.9,57.17c-.07,3.14.11,6.29.56,9.4h-5.36l-.57-5.06h-.21c-2.56,3.82-6.83,6.05-11.34,5.93-5.87.32-10.88-4.3-11.2-10.32-.02-.3-.02-.59,0-.88,0-9.47,8.03-14.61,22.26-14.53,0-3.33,0-10.85-8.74-10.85-3.33-.04-6.59.94-9.37,2.82l-1.41-4.13c3.52-2.23,7.58-3.38,11.72-3.33,10.85,0,13.67,7.89,13.67,15.69v15.26h0ZM298.12,46.1c-7.26,0-16.34,1.08-16.34,9.4-.4,3.6,2.12,6.84,5.62,7.25.33.04.67.05,1,.04,5.17.19,9.52-3.95,9.72-9.26v-7.44h0Z"/>
          <path id="_パス_1387-2" data-name=" パス 1387-2" class="cls-3" d="M339.76,32.22c-.7-.09-1.41-.14-2.11-.14-6.35,0-9.59,6.43-9.59,13.09v21.41h-5.85v-27.63c0-4.19-.08-8.03-.28-11.79h5.14l.28,7.6h.21c1.37-4.81,5.55-8.2,10.42-8.46.59.03,1.18.1,1.76.21v5.72h.02Z"/>
        </g>
        <g id="_グループ_125" data-name=" グループ 125" class="cls-1">
          <path id="_パス_1407" data-name=" パス 1407" class="cls-2" d="M371.58,2.22s-.04-.09-.06-.13c-.06.2.06.13.06.13Z"/>
          <path id="_パス_1408" data-name=" パス 1408" class="cls-2" d="M371.07,4.15l-.03.29.03-.26v-.03Z"/>
          <path id="_パス_1409" data-name=" パス 1409" class="cls-2" d="M370.72,5.3h.03s.16,0,.19-.07h0l-.13-.26h0l.06-.29c-.1,0-.2.02-.29.07h0l.13.26c-.08.33-.17.66-.29.98.13-.1.19-.42.25-.69h.03ZM370.85,5.01l-.06.23.06-.23Z"/>
          <path id="_パス_1410" data-name=" パス 1410" class="cls-2" d="M369.92,6.65h0c0,.08-.02.16-.06.23.06-.03,0,.23.09-.23h-.03Z"/>
          <path id="_パス_1412" data-name=" パス 1412" class="cls-2" d="M369.64,7.56v-.26s-.09.26-.09.17c-.06.26,0,.23.09.1h0Z"/>
          <path id="_パス_1414" data-name=" パス 1414" class="cls-2" d="M369.73,7.4l-.06.29s.06,0,0-.13v-.17h.06Z"/>
          <path id="_パス_1415" data-name=" パス 1415" class="cls-2" d="M369.73,8.02l.03-.1.07-.5-.09.59h0Z"/>
          <path id="_パス_1417" data-name=" パス 1417" class="cls-2" d="M368.33,9.56s-.16-.1-.03-.13c-.18.01-.36.05-.54.1h.57v.03Z"/>
          <path id="_パス_1418" data-name=" パス 1418" class="cls-2" d="M367.5,9.62c.09-.02.17-.04.25-.07-.09-.01-.18,0-.25.07Z"/>
          <path id="_パス_1424" data-name=" パス 1424" class="cls-2" d="M368.04,9.69s-.29.03-.45.03h.54s.09-.07-.09-.07h0v.03Z"/>
          <path id="_パス_1428" data-name=" パス 1428" class="cls-2" d="M367.02,9.65c.08,0,.15,0,.22.03-.06,0-.22-.07-.22-.03Z"/>
          <path id="_パス_1430" data-name=" パス 1430" class="cls-2" d="M368.65,9.69c-.07,0-.14.02-.19.07h.19v-.07Z"/>
          <path id="_パス_1431" data-name=" パス 1431" class="cls-2" d="M365.58,9.88s.7.1.44.17c-.41.03-.35,0-.54-.07.16.1-.54.13-.44.26l.35-.07s-.13.07,0,.07c0-.07.38-.13.7-.07.32-.06.09-.29-.16-.42,0,0,0,.07-.32.1h0l-.03.03h0Z"/>
          <path id="_パス_1432" data-name=" パス 1432" class="cls-2" d="M365.94,9.75h.74c-.15-.02-.3-.05-.44-.1-.22.03-.25.07-.29.1h0Z"/>
          <path id="_パス_1434" data-name=" パス 1434" class="cls-2" d="M368.65,9.91h-.51l.25.1h0c.29,0,.22-.06.25-.1Z"/>
          <path id="_パス_1435" data-name=" パス 1435" class="cls-2" d="M365.84,9.72l.06-.1-.29.13.22-.03Z"/>
          <path id="_パス_1436" data-name=" パス 1436" class="cls-2" d="M365.17,9.72l.03-.07-.19.03.16.03h0Z"/>
          <path id="_パス_1437" data-name=" パス 1437" class="cls-2" d="M369.76,19.86l-.06.13.13-.17h-.06v.03Z"/>
          <path id="_パス_1439" data-name=" パス 1439" class="cls-2" d="M363.13,10.08l.06-.03s-.06,0-.06.03Z"/>
          <path id="_パス_1441" data-name=" パス 1441" class="cls-2" d="M382.19,11.58s-.32.33-.19.23l.35-.26h-.09c.19-.21.4-.4.64-.55.35-.2.29-.1.45-.2,0,0,.06,0,.19-.13l.77-.55-.57.26c.16-.2.64-.46,0-.13.13-.07.29-.13.45-.23-.15,0-.3,0-.45-.03v-.07c-.07-.05-.14-.1-.22-.13-.09,0-.13,0-.41.13-.03-.08-.11-.14-.2-.13-.22,0-.45.05-.64.17h-1.08c-.24.04-.49.06-.73.07h0c-.05-.07-.12-.13-.19-.17-.17,0-.34.06-.48.17-.16-.1-.77-.03-.98-.2.09.03-.03.07-.22.07-.32-.1-.7-.23-.79-.26-.03,0-.07-.01-.09-.03-.13-.03-.22,0-.6.26h-.44c-.23,0-.47-.03-.7-.07h-.09c-.32-.1-.77-.2-.89-.23v-.13h0c0-.12,0-.24-.03-.36-.03-.29-.07-.57-.13-.85-.06-.05-.12-.1-.2-.12h-.16l-.06-.13.06-.26c.11-.39.17-.8.16-1.21-.05-.06-.12-.1-.19-.13-.13,0-.13-.03-.54.23l-.09-.23v-.07c.01-.32,0-.64-.03-.95-.05-.06-.12-.1-.19-.13h-.13l.09-.29c.18-.39.29-.81.32-1.25-.05-.06-.12-.1-.19-.13-.12,0-.24.03-.35.1v-.07s-.09-.07-.13-.1l-.06-.13c-.32-.62-.38-.72-.38-.75-.04-.07-.11-.12-.19-.13h-.19c0-.07,0-.14-.03-.2-.04-.06-.1-.11-.16-.13-.1-.02-.2,0-.29.07h-.04l.13.26-.13.07-.03-.17c0,.1-.25.69-.38,1.08-.2.41-.33.85-.38,1.31.05.06.12.1.19.13.09,0,.13.03.57-.23-.12.15-.25.29-.38.42-.35.36-.6.66-.83.91l.06-.1v-.17c-.04.11-.07.22-.09.33-.51.55-.64.75-.67.88-.02.09-.06.18-.09.26.03-.07.09-.17.13-.17h0v.03h.03s.09.13.19.13c.46-.13.89-.34,1.28-.62-.22.23-.45.42-.64.66-.64.66-1.06,1.04-1.31,1.34h0s-.19.23-.25.29v-.16s-.09.26-.16.26h.06c-.13.17-.09.23,0,.33,0,0,.03.07.06.07h0v.1h0v-.07h.13l-.06.1s.08-.03.09-.07h0s.48-.23,2.01-1.11c.67-.39,1.59-.95,1.82-1.04.04,0,.09,0,.13-.03.02,0,.05-.01.06-.03,0,0,.06,0,.06.03.02.11.05.22.09.33l.06-.1c.05.12.07.26.06.39.22.2-.19-.62,0-.42,0,.18.03.36.09.52-.22,0-.67.2-5.13,2.78-1.08.66-2.33,1.38-3.22,1.87.19-.23.41-.46.6-.69,1.09-1.2,1.58-1.88,1.5-2.03-.04-.04-.08-.07-.13-.1h-.09s.22-.07-.03-.1h.32c-.1,0-.21-.01-.31-.04h-.64c.19.02.38.02.57,0-.09.07-.35.1-.25.2-.09.03-.22.13-.41.23h-.03c-.25.17-.64.36-1.18.69-.38.23-.86.5-1.18.69l.09-.36c.22-.95.25-1.08.22-1.17h.19c.03-.07-.06-.07-.22-.07-.04-.04-.08-.07-.13-.1.19-.04.38-.05.57-.03-.19-.1-.09,0-.38-.1.25.17-1.02,0-.6.17-.08-.04-.17-.07-.25-.1.06-.09.06-.21,0-.29-.04-.07-.11-.12-.19-.13-.3.09-.59.22-.86.39h-.06l-.16.1-.13.07c-.18-.02-.37,0-.54.07-.29,0,.06-.03-.13-.1l-.29.07-.25-.07-.19-.13h0c-.13-.07-.26-.14-.38-.23-.03,0-.06-.07-.13-.07-.15,0-.29.04-.41.13l-.13.07c-.06-.04-.13-.08-.19-.13-.04-.03-.08-.06-.13-.07-.1-.02-.2,0-.29.07h-.07l.06.2h-.13l.16.1h-.06s0,.1.06.13v.13h.16c.13.07.29.2.57.39.25.17.54.39.64.46.09.1.19.1.35.03.06.03.13.1.19.13.06.2.14.39.23.58.04.06.1.11.16.13.02.08.05.16.09.23.04.07.11.12.19.13h.19c.09.1.22.23.41.46s.45.5.48.52c.03.06.09.1.16.1.14,0,.27-.04.38-.13h0s.32.1.67.2h.06c-.13.23-.09.29,0,.39.03.07.1.11.17.12.11,0,.22-.02.32-.07.36.29.74.57,1.13.82,0,.11.02.18.06.2.04.07.11.12.19.13.09,0,.17,0,.25-.03l.38.5c.13.2.29.36.35.46-.04.07-.07.15-.09.23,0,.03-.03.07-.03.13-.03.13-.06.29-.09.46h0c-.98,1.18-1.43,1.85-1.34,2,.05.06.12.1.19.13.09,0,.13,0,.48-.17,0,.07.06.03.13,0v.23c-.06,0-.09.1-.13.17-.64.5-.57.59-.48.75,0,.07.06.1.13.13-.05.08-.05.18,0,.26h.03c-.09.29-.22.66-.32.91l-.19.52h0c-.19.52-.19.55-.13.66h0c0,.17-.06.29-.06.52l-.09.06c-.01.11-.03.22-.06.33,0,.12-.05.24-.13.33-.06.12-.11.24-.16.36.29-.13.89-.55,1.53-.98.32-.23.67-.46.98-.66.22-.14.44-.27.67-.39-.29-.06.48-.2.41-.36.09,0,.22-.07.09.07.41-.36.73-.39.95-.72.09,0-.06.13,0,.13,0-.03.13-.13.19-.13s-.03.07-.09.17c.44-.33.41-.5.35-.62.22-.05.4-.19.51-.39.09,0,.29-.07,0,.13.16-.1,1.02-.62.98-.72.06,0,.22-.17.25-.2l.38-.26c.07-.03.13-.08.19-.13h0c.05.07.11.13.19.17.09,0,.17,0,.25-.03.29.26.35.29.45.33l.06.06c.22.23.48.52.51.55.03.06.09.1.16.1.09,0,.18-.02.25-.07h0c0,.11,0,.22-.03.33-.09.4-.12.81-.09,1.21.05.06.12.1.19.13l1.14-.55.09-.06h0s-.16.06.06.23c0,.03.13.1.22.13-.25.33-.22.36-.13.5.04.07.11.12.19.13.13,0,.13.03.67-.26.11.06.2.14.29.23-.06-.1-.09-.2.09-.1.14.09.27.2.38.33-.03.32,0,.64.06.95.04.07.11.12.19.13.13,0,.13.03.83-.36.29.17.67.39.86.5-.02.11-.02.22,0,.33.04.07.11.12.19.13h.06c.07,0,.14-.02.19-.07.12.12.26.22.41.29-.06-.13-.09-.29-.16-.46h.03s.19-.26.09-.39c0-.03-.06-.06-.09-.1h0s.16-.26.09-.39c0-.03-.06-.07-.09-.1.1-.33.14-.67.13-1.01-.04-.07-.11-.12-.19-.13-.09,0-.13,0-.48.17-.03-.1-.03-.13-.06-.13l-.05-.08c-.06-.21-.13-.42-.22-.62-.05-.1-.11-.19-.19-.26,0-.13.03-.03.06-.03l-.06-.23c.41-.72.38-.75.32-.88-.04-.07-.11-.12-.19-.13-.12,0-.24.03-.35.1.06-.2.09-.39.16-.55v-.07c.04-.07.08-.15.09-.23.1-.26.15-.54.13-.82-.04-.07-.11-.12-.19-.13-.25.06-.48.16-.7.29-.05-.19-.13-.38-.22-.55,0,0,.03,0,.06.07-.17-.41-.29-.84-.35-1.28,0-.1-.06-.2-.06-.29v-.13h-.06v-.07c.03-.08.05-.17.06-.26h0s.16-.17.13-.26l.67-.5h0c1.14-.82,2.33-1.57,3.41-2.32h-.19l.38-.29c.13-.03.19,0-.06.17.09,0,.19-.1.29-.2.06-.1.16-.23.16-.23.38-.23.38-.2.25-.07h0l-.13.03h-.01ZM383.32,10.77l-.16.1c.18-.17.15-.13.15-.09h0ZM366.55,14.43h0s-.09-.17-.19-.17h-.09v-.17h.09c0,.05.02.1.06.13.03.08.11.13.19.13.22.07.41,0,4.11-2.22.41-.23.86-.52,1.28-.75-.48.36-.95.75-1.37,1.11-1.72,1.41-2.55,2.06-2.94,2.42h0c-.06-.05-.13-.09-.19-.13,0,0-.06-.07-.09-.07l-.06-.07s-.25-.39-.32-.33c.07.2,0,.42-.16.55-.13-.17-.22-.33-.29-.39h0l-.03-.06ZM373.69,8.8c.05.06.12.1.19.13h.13c.04.13.05.26.03.39.13.33.06-.13.19.2v.1l.06.07h0s-.1-.06-.16-.07c-.19-.03-.25-.07-3.76,2.03-.48.29-.98.59-1.5.88.48-.39,1.02-.79,1.5-1.16,1.94-1.47,2.86-2.22,3.32-2.62h0v.04h0ZM376.9,14.49v-.1l.54-.36c-.29.23.06.17-.45.46l.16-.26-.29.23h0l.03.03h0ZM375.98,15.15h.09c-.73.39-2.01,1.11-4.33,2.48.89-.55,1.82-1.16,2.67-1.67.89-.55,1.69-1.04,2.39-1.51l-.09.07-.09.07-.13.1s-.32.23-.57.39v.07h.06v.02ZM376.55,18.78c.05.06.12.1.19.13h.13c-.29.17-.6.36-1.02.59l-.44.26c.11-.12.22-.23.32-.36.32-.33.54-.59.77-.82,0,.17.03.17.06.2h0ZM374.48,19.37s.06.1,0,.1v-.1ZM374.61,19.37s-.08-.05-.13-.06v-.1c.25-.13.67-.39,1.37-.82l.09-.07c-.22.23-.44.5-.64.69-.22.23-.41.46-.57.62-.09-.13-.13-.2-.13-.26h0ZM373.2,17.57s-.01-.07-.03-.1h0c.77-.5,1.5-.91,2.13-1.28h0c.07.04.15.04.22,0h0c-.22.13-.57.36-1.14.69-.38.23-.83.5-1.13.66h0l-.06.03h0ZM376.23,16.27s-.01-.07-.03-.1c0-.03-.06-.07-.09-.1h0l.09-.07.06.13v.1h-.03v.03ZM376.13,16.6c-.16.52-.16.55-.09.66.03.08.11.13.19.13h.06v.1c-.19.13-.44.26-.73.46-.19.13-.41.26-.64.39.11-.16.23-.31.35-.46.51-.69.77-1.04.89-1.25h0l-.03-.03h0ZM376.8,19.67c-.28.07-.55.19-.79.36l.13-.07c.25-.17.57-.33.83-.5l-.19.2h.03,0ZM377.38,20.98s-.06-.04-.09-.07l.16-.1-.09.17h.03ZM377.54,20.13s-.41.23-.79.46c.13-.16.27-.31.41-.46l.29-.33s.06.2.09.33ZM374.19,14.56c-1.72,1.01-3.67,2.16-5.23,3.08,1.21-.79,2.62-1.7,3.89-2.52,2.25-1.34,4.44-2.8,6.54-4.38h0c.21-.03.4-.1.57-.23h0s.09.33.13.5v.07c-1.28.72-3.19,1.83-5.96,3.5h.06,0ZM374.38,9.98h0v.23c0-.05-.02-.1-.06-.13,0-.04.07-.07.07-.1h0ZM374.29,10.12c.06.17.13.36.19.52h.79c-.73.42-1.75,1.01-3.25,1.9-.73.42-1.53.91-2.26,1.34.38-.33.83-.66,1.21-.98,1.15-.87,2.26-1.8,3.32-2.79h0ZM378.15,10.51h-.06c.14-.05.29-.07.44-.07-.7.36-2.04,1.16-4.65,2.71-1.14.69-2.49,1.47-3.63,2.16.54-.36,1.13-.75,1.66-1.16,3.09-2.13,4.46-3.11,5.04-3.6.41.01.81,0,1.21-.07v.02ZM372.35,13c.51-.29,1.06-.62,1.6-.95-.79.55-1.63,1.16-2.39,1.67-2.01,1.38-3.13,2.16-3.76,2.64v-.07h-.03l.19-.13s0-.03-.06-.07v-.07h.06s.13-.13.13-.23c.25-.33.35-.46.32-.55.57-.29,1.69-.95,3.93-2.29h0l.03.03h0ZM367.5,16.53h0l-.06.07v-.07h.06ZM367.69,17.31c2.05-1.02,4.06-2.16,5.99-3.4-.38.26-.77.5-1.14.75-2.39,1.54-3.98,2.58-5.07,3.27.29-.46.25-.52.19-.62h.03ZM367.02,17.14c0,.05.02.1.06.13v.07l-.13.1v-.14l.06-.13h0v-.02ZM366.19,20.55h0l.09-.26s.09.03.09.07v-.29s.03-.2.03-.23c.06,0,.13-.07.19-.1,0-.06.01-.11.03-.17,1.06-.52,3.22-1.77,7.87-4.55,1.5-.88,3.19-1.87,4.63-2.71-1.53.98-3.35,2.13-5.01,3.14-4.75,2.98-6.95,4.38-7.97,5.11h.03,0ZM377.96,13.75c-.05.07-.1.13-.16.2l-.06-.06.22-.13h0ZM372.82,18.26s-.09-.1-.16-.1h-.07l.16-.1v.07c.03.08.11.13.19.13.16.03.19.03,1.72-.88l.41-.23-.25.36c-.38.48-.73.99-1.06,1.51-.16-.1-.35-.17-.54-.29-.22-.2.09,0,0-.13l-.19-.06-.25-.26h.04ZM381.08,10.41l.13.07h.09l.06-.07h.03l-.7.36-.06-.21c.13-.07.27-.13.41-.17h0l.03.03h0ZM375.09,9.66l-.06-.07.06.07ZM372.41,2.79h0l-.09.07.06-.13v.07h.03ZM372.03,3.68c.13-.36.22-.62.29-.82l.06.1s-.06.36-.16.36c.09.13.15.29.16.46l-.29.17-.22.13.16-.39h0ZM371.93,5.51c.32-.33.54-.62.73-.82,0,.03.03.07.06.1,0,.13-.09-.1-.09,0,.13.14.22.31.25.5-.13,0-.32.13-1.34.72h-.06l.44-.46h0v-.06.02ZM371.14,7.96l-.32.2.45-.46c.86-.88,1.37-1.38,1.63-1.7h.22c.07.19.12.39.16.59v.23h0c-.16-.03-.19-.07-2.13,1.11h0v.03h0ZM369,11.29c.86-.5,1.79-1.04,2.62-1.54-.48.39-1.02.79-1.5,1.16-1.31.86-2.53,1.86-3.63,2.98-.04-.02-.07-.06-.09-.1l.09.1v.07c-.06,0-.11-.01-.16-.03v-.1c0-.3-.04-.59-.13-.88.64-.36,1.56-.88,2.8-1.64h0v-.02ZM365.75,11.29l.45-.26c-.19.2-.35.39-.51.59-.51.55-.86.95-1.08,1.21h-.16v-.07c-.25-.17-.41-.33-.6-.46.16,0,.25,0,1.94-1.01h-.03s-.01,0-.01,0ZM362.91,11.55c-.22-.29.35.23.19-.03-.1,0-.2-.03-.29-.1l-.22-.1h0s.32-.2.54-.33.48-.29.73-.42l-.09.42c-.19.88-.22,1.01-.19,1.11-.06-.07-.16-.1-.22-.17,0-.07-.25-.26-.09-.23-.12-.02-.24-.07-.32-.17h-.03,0ZM362.75,11.68c-.12-.03-.24-.08-.35-.13l-.13-.07.25-.13s.44.26.6.36c-.06.06-.19.06-.38,0h0v-.03h0ZM363.72,9.98c-.19.1-.48.26-.86.5-.3.19-.61.36-.93.52h0l-.09-.29s.38-.2.89-.5l.25-.17h.06c.11-.07.23-.14.35-.2h.19l.09.1c-.14-.03-.28-.03-.41,0,.15,0,.3,0,.44.03h0ZM363.17,12.5h0l-.06-.07h0l-.06-.07.06.07.13.07h-.06ZM369.16,20.1c.09-.07.18-.13.29-.17-.08.08-.19.13-.3.15h.01ZM369.77,20.1s-.03-.03,0-.13l-.06.06c-.19.07-.16-.03-.06-.17l.22-.06s.13-.26.06-.33l-.13.13v-.07l-.13.13h-.19l-.67.36c-.37.5-.8.95-1.28,1.34.13-.2-.06-.17-.13-.26.25,0,.51-.39.86-.62-.19.13-.19.03-.16,0l-.57.52c-.13.03-.26.07-.38.13.13,0,0,.13-.13.26-.08.07-.16.14-.25.2l-.06.07h-.03l-.06.1v-.09s0-.03.06-.07c.05-.06.12-.1.19-.13-.05,0-.09.02-.12.06h-.06v.07h-.03s-.04.09-.06.13c-.03.12-.13.21-.25.23.06-.03.09-.03.09-.1-.07.08-.16.15-.25.2-.06.03-.09,0-.06-.03h.03c-.19.1-.37.21-.54.33v-.23l.22-.13s.32-.2.38-.23h.03s.19-.26.09-.39l-.06-.06c.54-.29,1.53-.85,3.41-1.93h.03v.07h0s.09.01.13.03h.06s.09,0,.13-.03c-.08.13-.17.24-.29.33.1-.02.19-.04.29-.07l-.41.36h0l.16.03h-.01Z"/>
          <path id="_パス_1442" data-name=" パス 1442" class="cls-2" d="M369.76,19.54h.06s0-.03-.06,0Z"/>
          <path id="_パス_1444" data-name=" パス 1444" class="cls-2" d="M363.93,9.65h-.29c.1.02.19.04.29.07,0,0-.06-.03,0-.07Z"/>
          <path id="_パス_1446" data-name=" パス 1446" class="cls-2" d="M361.5,9.78c.19,0,0-.1.13-.07.06-.03-.22,0-.38,0-.16.03-.16.07.22.03h0l.03.03Z"/>
          <path id="_パス_1448" data-name=" パス 1448" class="cls-2" d="M372.54,2.29l-.16-.13c.03.07.05.15.06.23l.09-.1h0Z"/>
          <path id="_パス_1450" data-name=" パス 1450" class="cls-2" d="M366.41,5.92l-.06.03h.03l.03-.03Z"/>
          <path id="_パス_1451" data-name=" パス 1451" class="cls-2" d="M366.32,5.92h.09s-.13-.06-.09-.1c-.09.1.06.03,0,.1Z"/>
          <path id="_パス_1454" data-name=" パス 1454" class="cls-2" d="M366.45,5.56h.06s.02-.05.03-.07c-.03,0-.06,0-.09.07Z"/>
          <path id="_パス_1457" data-name=" パス 1457" class="cls-2" d="M366.41,5.63s0,.03-.06.07c.03,0,.13,0,.06-.07Z"/>
          <path id="_パス_1459" data-name=" パス 1459" class="cls-2" d="M366.35,5.47h.03s0-.03.06-.07c-.03.02-.06.04-.09.07h0Z"/>
          <path id="_長方形_143" data-name=" 長方形 143" class="cls-2" d="M366.22,5.69h.13s-.13,0-.13,0Z"/>
          <path id="_パス_1461" data-name=" パス 1461" class="cls-2" d="M366.35,5.34h.03l.06-.03-.09.03h0Z"/>
          <path id="_パス_1462" data-name=" パス 1462" class="cls-2" d="M366.35,5.27s.06-.07.09-.07h-.09v.07Z"/>
          <path id="_パス_1464" data-name=" パス 1464" class="cls-2" d="M366.35,5.37l-.06.07h0s.06-.03.06-.07Z"/>
          <path id="_パス_1465" data-name=" パス 1465" class="cls-2" d="M366.29,5.43h0l-.03-.03.03.03Z"/>
          <path id="_パス_1467" data-name=" パス 1467" class="cls-2" d="M366.1,5.66s.1-.06.16-.07c-.06,0-.12.02-.16.07Z"/>
          <path id="_パス_1469" data-name=" パス 1469" class="cls-2" d="M366.19,5.37s.06,0,.06-.03h-.06v.07h0v-.03Z"/>
          <path id="_パス_1476" data-name=" パス 1476" class="cls-2" d="M365.88,5.34s.02-.05.03-.06c-.06.06-.13,0-.25.1h.06s-.06,0-.06.03c.06-.03.13-.03.09,0,.14-.05.27-.13.38-.23h-.09s-.06.1-.13.1h0l-.03.06h0Z"/>
          <path id="_パス_1477" data-name=" パス 1477" class="cls-2" d="M366.12,5.2v.07h0l.06-.07s-.06,0-.06,0Z"/>
          <path id="_パス_1478" data-name=" パス 1478" class="cls-2" d="M366.19,5.27h-.09c-.06.03-.13,0-.19.1h.09s.03,0,.06-.06h.06l.07-.03Z"/>
          <path id="_パス_1479" data-name=" パス 1479" class="cls-2" d="M365.94,5.73l.03-.03-.03.03Z"/>
          <path id="_パス_1480" data-name=" パス 1480" class="cls-2" d="M366.13,5.56c-.06.04-.11.08-.16.13h.03s-.04.02-.06.03c.03,0,.07-.01.09-.03h0l.09-.1h0v-.03h0Z"/>
          <path id="_パス_1482" data-name=" パス 1482" class="cls-2" d="M366.16,5.17l.06-.03-.13.03h.06Z"/>
          <path id="_パス_1483" data-name=" パス 1483" class="cls-2" d="M366.19,5.11h-.06l-.03.03.09-.03Z"/>
          <path id="_パス_1485" data-name=" パス 1485" class="cls-2" d="M365.42,3.96l.06-.06h-.06v.07h0Z"/>
          <path id="_パス_1488" data-name=" パス 1488" class="cls-2" d="M365.81,4.64v-.07s-.1.1,0,.07Z"/>
          <path id="_パス_1490" data-name=" パス 1490" class="cls-2" d="M365.81,4.61s.03-.07,0-.03h0s.03.01.03.03h-.03Z"/>
          <path id="_パス_1497" data-name=" パス 1497" class="cls-2" d="M364.44,4.09h.09l.19-.13-.29.13Z"/>
          <path id="_パス_1498" data-name=" パス 1498" class="cls-2" d="M362.23.65l-.06.07c.06-.03.09-.03.09,0h0s.03.13.06.23l.07-.07v.07c.13-.07,0-.03.09-.13-.13.13.09.1-.06.26,0,0,.06-.07.09-.07h0s-.04.07-.06.1h0s.06.03.06.07h0c.06.06.14.09.22.1h0s0,.03.06.07h.06c-.06,0-.06.1-.13.1.09,0,.06,0,.22-.07l-.06.07s.09-.03.13,0c-.06,0-.06.07-.16.1-.09.13.19,0,0,.13.19-.1.06-.1.09-.13.03-.07.13-.07.13-.03,0,0-.19.17-.13.23h0s.06,0,0,.07c.09-.07,0,0,.13-.07h-.06s.22-.1.16,0h-.08s.03,0,0,.03c-.13.1-.06,0-.19,0-.03.03.13,0,0,.07.19-.1,0,.07.16,0l-.06.07h-.03s-.03.13,0,.13c-.03-.03.09-.07.13-.13.13,0-.16.17-.09.2,0-.04.03-.07.06-.07h0s-.03.08-.07.1c.03.03.06-.07.13-.07-.09.07.06,0,.09,0l-.06.07s.16-.1.13,0l-.13.07h.03l-.09.07s.06,0,.06.03c.06-.03.13-.1.16-.07-.03.03-.06.03-.03.07-.06,0-.13.07-.06,0h-.06v.1h.16s-.1.05-.16.07h.09s-.06.07-.09.07c0,.03.16,0,.13.03h.03s-.06.13.06.1l-.09.1s.13-.13.19-.1c.06,0-.09.07-.13.1.06,0,.19-.07.13,0h0l-.06.07c-.07,0-.13.03-.19.07.22-.13.09.07.32-.03h.09s-.03.07-.06.07h.03l.06.07h.13s-.13.07-.13,0c-.22.17.06,0,0,.13h-.03l-.13.13s.16-.17.25-.17c0,0,0,.03.03,0-.09.03-.06.07-.03.07l-.09.07c.06,0,.11-.01.16-.03l-.14.14s.13-.1.16-.07c0,.07.03.07.13.07,0,.03-.06,0-.09.07h.06s.1-.06.16-.07c.13-.07-.13.17,0,.1-.04,0-.08.03-.09.07h.22l-.06.07c.09-.05.19-.08.29-.1l.06-.07h.09s-.06.04-.09.07h0s-.1.06-.16.07l.06-.07s-.16.07-.22.1h.03l-.13.1h.06v.07c.12-.05.25-.07.38-.07-.1.01-.18.06-.25.13.09-.07-.06,0-.06-.07,0,0-.06.03-.06.07h.13s-.07.06-.09.1c.16-.1.13,0,.19,0-.06,0-.13.07-.13,0-.09.1.22-.07.13,0h0c.06,0,.03.07,0,.07h0c.04.08.14.11.22.07,0,0,0,0,0,0h0l-.19.1.54-.17c-.16.09-.33.17-.51.23,0,.02.01.03.03.03,0,0,0,0,0,0,.06-.04.13-.07.19-.1-.13.1-.06.07-.16.17,0,0,.22-.13.22-.1-.07.04-.15.07-.22.1l.22-.07-.22.13s0,.03.03.03h.03s.29-.13.32-.07c-.03,0-.25.1-.25.17.2-.08.4-.14.6-.2h0s-.51.2-.64.23c-.03.03-.06.03-.03.07-.03.03-.09,0-.09,0v.07c.08,0,.16-.02.22-.07h-.16s.35-.13.35-.07c-.08.05-.17.09-.25.13h0s.16,0,.09.07c0,0-.13.1-.06.07.19-.13.39-.24.6-.33-.04.06-.1.12-.16.17-.09.07-.25.1-.32.17h.09s-.09.03-.06.07c.13-.07,0,.07.09-.03.03,0,0,.03,0,.07.1-.05.21-.08.32-.1-.03.02-.05.04-.08.07v.17s-.05.06-.09.07h.06s-.03,0-.13.07c.06-.03.13,0,.16,0,.09-.07,0-.07-.06-.07.13-.07.27-.11.41-.1.06,0-.09.07-.06.07,0,.1.29-.07.22.03-.08.06-.16.1-.25.13-.06,0,0-.07,0-.1h0s-.06.03-.06,0c-.06.07.06.13,0,.23.03,0,.07,0,.09-.03h0s.13-.03.13-.07h.13l-.09.07s.06-.07,0-.03c.06,0-.09.13.03.07l.06-.07s.19-.03.16,0c.09-.07,0,0,.09-.1-.13.1-.03-.07-.16.03.13-.1.03-.07.13-.17-.03,0-.06.03-.06,0h-.03v.07h-.19s.04-.02.06-.03h-.06s.09-.1.16-.1h0s.03-.1,0-.1h-.09s-.19-.07-.06-.2c0,0-.06,0-.06-.03h.06s0-.13-.03-.1c.16-.13,0-.13,0-.17h-.25v-.1h0c.13-.13-.19-.03-.09-.17h0v-.07s-.08.03-.09.07h-.06s-.06,0,.06-.1c-.07-.02-.15-.02-.22,0h0v-.07l.09-.07h-.16c.05-.02.11-.04.16-.07h-.16s-.13,0-.06-.07c.09-.1-.06-.17,0-.29-.19.13.06-.1-.09,0,.03,0,.06-.07.09-.07-.06,0,.03-.1-.09-.07.03,0,.07,0,.09-.03h.06c-.11.02-.22.05-.32.1.06-.07.03-.07-.06,0,.03,0,.06-.07.09-.07,0,0,0-.13-.09-.07h0s-.01-.05-.03-.07h-.06s-.06,0,0-.13h-.08c-.16.13.06-.07,0-.07h-.03c.08-.05.15-.11.22-.17h.03c-.05.02-.11.02-.16,0,.06-.03.16-.07.13-.1.03-.03-.22.03-.13-.07-.03,0-.06.07-.13.07,0,0,.13-.17,0-.1h0c-.06-.04-.13-.04-.19,0,.25-.17-.22-.03.03-.2l-.06-.07h0c-.05-.02-.11-.02-.16,0,.03,0,.05-.01.06-.03,0-.06-.05-.09-.16-.07l.06-.07s.06-.17-.06-.17h.03s.13-.29-.19-.13h-.08c-.06.03-.12.08-.16.13,0,0,.06-.1.09-.1h0c0-.07.04-.13.09-.17-.06-.1-.06-.26-.13-.36l-.09.1h0l.09-.1c.06-.07-.09,0-.09,0,0-.07.16-.07.13-.1h-.03s-.09.07-.13,0c0-.03.06-.07.06-.07h-.09l-.12.09c.13-.13-.06-.2,0-.23-.04,0-.09,0-.13-.03,0,0-.09.1-.13.07.22-.17.03-.1.16-.26-.06.1-.09-.07-.19.1,0-.03.06-.07.09-.13-.13,0-.03-.17-.13-.2l-.09.1.09-.13s-.16.13-.09,0c0,0-.03.07-.06.07,0-.1-.09-.17-.16-.2s-.14-.1-.1-.26c0,.07-.03.07-.06.03l-.1.1v-.12s0-.03-.13.03h0c-.1.14-.21.27-.32.39.13-.1-.09.23.09.1h0l.29-.1h0ZM363.87,3.05h-.03c.1-.03.06,0,.03,0h0Z"/>
          <path id="_パス_1502" data-name=" パス 1502" class="cls-2" d="M365.88,5.17s-.03.03,0,.03h0s.06-.07,0-.03Z"/>
          <path id="_パス_1504" data-name=" パス 1504" class="cls-2" d="M365.97,4.91s.09-.03.06,0c.1-.03-.13,0-.06,0Z"/>
          <path id="_パス_1505" data-name=" パス 1505" class="cls-2" d="M365.65,5.3l.09-.03h-.09v.03Z"/>
          <path id="_パス_1508" data-name=" パス 1508" class="cls-2" d="M365.45,4.88s-.03,0,0,.03h.03l-.03-.03Z"/>
          <path id="_パス_1509" data-name=" パス 1509" class="cls-2" d="M365.33,5.07l.06-.03-.09.07h.03v-.03Z"/>
          <path id="_パス_1510" data-name=" パス 1510" class="cls-2" d="M365.26,5.01s-.09,0-.06.03c0,0,.06,0,.06-.03Z"/>
          <path id="_パス_1511" data-name=" パス 1511" class="cls-2" d="M365.14,4.55h.03l.16-.1-.19.1h0Z"/>
          <path id="_パス_1512" data-name=" パス 1512" class="cls-2" d="M364.69,4.35s-.03,0-.13.07c0,.07.09-.03.06,0,.03,0,0-.03.06-.07Z"/>
          <path id="_パス_1513" data-name=" パス 1513" class="cls-2" d="M362.62,0l-.03.07h.03v-.07Z"/>
          <path id="_パス_1514" data-name=" パス 1514" class="cls-2" d="M362.49.13l.06-.1-.09.07h0l.03.03Z"/>
          <path id="_パス_1515" data-name=" パス 1515" class="cls-2" d="M363.73,3.18l-.06.06h0v-.06h.06Z"/>
          <path id="_パス_1516" data-name=" パス 1516" class="cls-2" d="M363.61,2.92h0l.09-.03-.09.03Z"/>
          <path id="_パス_1520" data-name=" パス 1520" class="cls-2" d="M382.93,2.03h0v-.07s-.06.1-.13.1c.06.1.06-.03.09,0h0l.03-.03Z"/>
          <path id="_パス_1523" data-name=" パス 1523" class="cls-2" d="M382.54,1.83s-.03-.01-.03-.03c0,.04,0,.07.03.1v-.06Z"/>
          <path id="_パス_1526" data-name=" パス 1526" class="cls-2" d="M382.67,2s0-.13-.06-.07c.04,0,.06.03.06.07h0Z"/>
          <path id="_パス_1528" data-name=" パス 1528" class="cls-2" d="M382.45,1.93s-.03,0-.06-.07c.02.03.04.07.06.1h0v-.03Z"/>
          <path id="_パス_1531" data-name=" パス 1531" class="cls-2" d="M382.26,1.93v-.07l.03.1-.03-.03Z"/>
          <path id="_パス_1532" data-name=" パス 1532" class="cls-2" d="M382.19,1.96s-.06-.07-.06-.1v.1h.06Z"/>
          <path id="_パス_1534" data-name=" パス 1534" class="cls-2" d="M382.38,2.03s-.03-.07-.06-.07l.06.07Z"/>
          <path id="_パス_1537" data-name=" パス 1537" class="cls-2" d="M382.61,2.22s-.06-.1-.06-.17c0,.06.02.12.06.17Z"/>
          <path id="_パス_1538" data-name=" パス 1538" class="cls-2" d="M382.45,2.06v.07h.03s-.02-.05-.03-.07Z"/>
          <path id="_パス_1539" data-name=" パス 1539" class="cls-2" d="M382.29,2.13s0-.07-.03-.07v.07h.03Z"/>
          <path id="_パス_1546" data-name=" パス 1546" class="cls-2" d="M382.23,2.45h-.06c.06.07,0,.13.09.26v-.06s0,.07.03.07c-.03-.07-.03-.13,0-.1-.06-.14-.14-.26-.25-.36v.1c.06.02.11.07.13.13h0l.06-.04Z"/>
          <path id="_パス_1547" data-name=" パス 1547" class="cls-2" d="M382.1,2.22h.06s-.06-.07-.09-.1v.1h.03Z"/>
          <path id="_パス_1548" data-name=" パス 1548" class="cls-2" d="M382.19,2.16c0,.08.04.15.09.2v-.1s0-.03-.06-.07h0v-.06h0v.07h0l-.03-.03Z"/>
          <path id="_パス_1550" data-name=" パス 1550" class="cls-2" d="M382.61,2.32v.07s-.01-.07-.03-.1h0s-.09-.07-.09-.1c.03.06.08.12.13.17v-.04h0Z"/>
          <path id="_パス_1552" data-name=" パス 1552" class="cls-2" d="M382.07,2.19l-.06-.07.06.1v-.03Z"/>
          <path id="_パス_1553" data-name=" パス 1553" class="cls-2" d="M382,2.23l-.03-.07v.07h.03Z"/>
          <path id="_パス_1555" data-name=" パス 1555" class="cls-2" d="M380.76,3.18s-.16-.1-.09-.03l.06.07h.03v-.03h0Z"/>
          <path id="_パス_1556" data-name=" パス 1556" class="cls-2" d="M380.41,4.22h0l-.06-.07v.07h.06Z"/>
          <path id="_パス_1557" data-name=" パス 1557" class="cls-2" d="M379.93,5.6l.06.07s0-.03-.06-.07Z"/>
          <path id="_パス_1558" data-name=" パス 1558" class="cls-2" d="M381.49,2.62h-.06s.09.07.06,0Z"/>
          <path id="_パス_1559" data-name=" パス 1559" class="cls-2" d="M379.49,4.58l.03.03-.03-.03Z"/>
          <path id="_パス_1565" data-name=" パス 1565" class="cls-2" d="M381.78,2.32l-.03.03h.03v-.03Z"/>
          <path id="_パス_1567" data-name=" パス 1567" class="cls-2" d="M381.15,4.05s-.03-.1,0-.07l-.19-.17.19.23h0Z"/>
          <path id="_パス_1568" data-name=" パス 1568" class="cls-2" d="M377.8,7.1s.06.04.09.06h-.16s-.03.07.06.13h0c.15.05.3.12.44.2-.13-.1.25.03.09-.1.03,0,.03.03.09.07-.04-.04-.04-.07,0-.07h0c.08-.04.15-.08.22-.13h-.09l.06-.03c-.09-.1-.03.03-.16-.07.16.07.09-.13.25,0,0,0-.09-.03-.06-.06h.13s0-.07.03-.03h-.03s.13-.13.06-.26h-.03s.06-.06.06-.1h0s-.03-.07,0-.07c.03.03.09,0,.13.07-.03-.1-.03-.07-.16-.2h.06s-.06-.03-.06-.07c.03.07.09.03.16.1.16,0-.06-.17.13-.07-.16-.13-.13,0-.16-.03-.06,0-.09-.1-.06-.1,0,0,.22.1.25.07h0s-.03-.07.06-.03c-.09-.07,0,0-.09-.1v.07s-.16-.17-.06-.17l.06.07s0-.03.03,0c.13.1,0,.07.06.17.06,0-.06-.1.06,0-.16-.13.06-.03-.06-.17l.06.07v-.07l.06.07s.09,0,.09-.07c-.03.07-.09-.03-.16-.07-.06-.13.22.1.25,0h.03c0-.07-.09-.03-.13-.1.09.03,0-.03-.03-.1l.06.07s-.16-.13-.06-.13l.09.1h.06v-.07c-.06,0-.13-.1-.13-.13.06,0,.06.07.09,0,.03.03.09.1,0,.07l.06.07.06-.07h0l-.06-.13s.06.03.06.07v-.07c.06.03.13.1.13.13v-.1s.06.03.06.07h0c.06,0-.06-.13,0-.13h0s.13,0,.06-.13l.13.07s-.16-.07-.16-.17c0-.07.09.07.13.07-.03-.07-.13-.17,0-.13v.04h.06c0,.08.05.15.13.17-.19-.17.06-.1-.16-.26h.06s-.13-.1-.06-.13c.03,0,.07.01.09.03v-.08h.03s-.05-.08-.06-.13c.03,0,0,0,.03.03v-.07s.06.1.03.1c.22.13-.03-.07.13,0h0c.06.04.12.07.19.1-.1-.03-.18-.09-.25-.17,0,0,.03,0,0-.03.06.07.06,0,.06,0l.09.07s-.07-.08-.09-.13c.06.02.11.05.16.1.03,0-.13-.07-.13-.13.06,0,.03-.07,0-.13.06,0,.06.07.09.07l-.06-.07h.03s-.09-.07-.09-.1c-.09-.1.19.07.09-.07.03,0,.06.07.09.07-.01-.07-.04-.14-.09-.2h.09s-.16-.1-.19-.2h-.06v-.13l.06.07h0c.05.02.1.05.13.1h-.06c.05.05.1.09.16.13h.16c-.08-.11-.15-.23-.19-.36.07.06.13.12.19.2-.09-.07,0,.07-.03.1,0,0,.06.03.06.07v-.14s0,.03.06.07c-.16-.13-.06-.13-.09-.17.03.03.09.1.06.1.13.07-.13-.2,0-.13h0c0-.07.03-.07.06,0h0c.06-.04.08-.13.03-.19,0,0,0,0,0,0,0-.01-.02-.02-.03-.03l.16.17-.32-.46s.35.29.38.39c0,0,.06,0,.03-.03l-.16-.13c.13.1.06.03.19.1-.06-.06-.11-.13-.16-.2l.16.17-.09-.2.16.17s.03,0,0-.07h-.06s-.16-.26-.13-.29c.05.09.13.16.22.2-.13-.16-.24-.33-.32-.52h.03s.25.39.32.52c.06,0,.06.07.06,0,.06.03.06.07.03.1h.09c-.02-.09-.06-.17-.13-.23v.17s-.19-.29-.13-.33c.03,0,.13.17.16.2h0s-.03-.17.06-.1c0,0,.13.1.09.03-.09-.1-.41-.42-.48-.52.07.02.13.06.19.1.09.07.16.23.22.29l-.03-.07s.06.1.06.07c-.06-.1.06,0-.06-.1,0-.03.03,0,.06,0-.07-.08-.13-.18-.16-.29l.06.07c.06.01.11,0,.16-.03.04.02.07.06.09.1v-.05s-.03.03.06.13c-.03-.07,0-.1-.03-.17-.06-.1-.06,0-.06.07-.08-.1-.14-.23-.16-.36,0-.07.06.07.06.03.09,0-.09-.26,0-.23.07.06.13.14.16.23,0,.07-.09,0-.09,0h.06v.07c.06.07.13-.07.22-.03,0-.04,0-.07-.03-.1h0s0-.1-.06-.1v-.14l.06.1s-.06-.03-.06,0c0-.07.13.1.06-.03l-.06-.07s-.03-.2,0-.17c-.06-.1,0,0-.09-.1.09.13-.09.03.03.17-.09-.1-.06,0-.19-.13,0,0,.06.07,0,.07h0l.03.07c.03.07,0,.1,0,.17,0,0,0-.03-.06-.07v.05s-.09-.1-.09-.17h-.03s-.09,0-.09.03v.1h-.03s0,.17-.16.1c0,0,0,.07-.03.07l-.06-.07s-.09,0-.06.07c-.16-.13-.13.03-.19.07l.06.07s-.02.06-.03.1l.06.07s-.09,0-.13.07h0c-.19-.1,0,.2-.13.13h0v.07l-.05-.07h0s0,.03.06.1v.07s0,.07-.09-.03c.03.07,0,.1.09.23h0l-.09-.07.09.13c-.06-.04-.11-.08-.16-.13.06.13,0,.07.06.2l-.06-.07s.03.1,0,.07c-.13-.07-.16.13-.32.1.19.13-.09,0,0,.1-.03,0-.06-.03-.09-.1,0,.07-.13,0,0,.13-.03,0-.06-.07-.06-.07h0s-.02-.05-.03-.07c.05.1.11.19.19.26-.04,0-.04.02,0,.07-.05,0-.09-.05-.09-.1,0,0-.13.03-.03.1h0s-.03,0-.06.07h0v.1h0s0,.03-.13,0l.06.07s-.13,0-.09.07h.06c-.09-.04-.19-.07-.29-.1v-.02c-.13,0,.09.07.09.13-.06-.03-.13-.1-.16-.1-.06,0,.09.2,0,.17.05,0,.09.05.09.1,0,.03-.19-.03-.09.07h-.03s0,.1.06.13c-.25-.17,0,.2-.19.03v.07h-.07s.01.09.03.13c-.02,0-.05-.01-.06-.03-.09,0-.09.03,0,.17l-.09-.07s-.19,0-.13.1h0s-.32,0-.06.2v.1c.07.04.14.08.22.1,0,0-.13,0-.13-.03h0c-.06.02-.13,0-.19-.03-.06.1-.22.17-.29.26l.13.07h0s-.09,0-.06-.03c-.06,0,0,.07.06.1-.06,0-.11-.04-.13-.1h0s.09.1.06.13c-.03,0-.09-.03-.09,0h-.03l.09.07s-.03.03.09.1c-.19-.07-.16.13-.22.1.06.07,0,.1,0,.13,0,0,.13.07.09.1-.22-.13-.13,0-.29-.07.13.03,0,.1.13.17-.06-.01-.11-.04-.16-.07.03.1-.13.1-.16.2,0,0,.09,0,.13.07l-.16-.07s.16.1.03.07c0,0,.06,0,.06.03-.22.07-.06.36-.41.33.04,0,.06.01.06.03h0l.09-.08h0ZM380.28,4.94s.03.07,0,.03c-.06-.07,0-.03,0-.03h0Z"/>
          <path id="_パス_1572" data-name=" パス 1572" class="cls-2" d="M382.07,2.45h.06s-.06-.06-.06,0Z"/>
          <path id="_パス_1574" data-name=" パス 1574" class="cls-2" d="M381.74,2.42s-.06-.1,0-.07c-.03-.1,0,.13,0,.07Z"/>
          <path id="_パス_1575" data-name=" パス 1575" class="cls-2" d="M382.13,2.58l.03.07.03.03-.06-.1h0Z"/>
          <path id="_パス_1578" data-name=" パス 1578" class="cls-2" d="M381.75,2.92s.03.03.03,0v-.07h0l-.03.07Z"/>
          <path id="_パス_1579" data-name=" パス 1579" class="cls-2" d="M381.98,3.01s-.03,0-.06-.07l.06.1h0v-.03Z"/>
          <path id="_パス_1580" data-name=" パス 1580" class="cls-2" d="M381.97,3.14s0-.07-.03-.07c0,0,0,.1.03.07Z"/>
          <path id="_パス_1581" data-name=" パス 1581" class="cls-2" d="M381.43,3.27h0l-.09-.17.09.17Z"/>
          <path id="_パス_1582" data-name=" パス 1582" class="cls-2" d="M381.43,3.83s-.06-.03-.06-.07h0c0,.07,0,.03.09.13.06,0-.06-.1,0-.07h-.03Z"/>
          <path id="_パス_1583" data-name=" パス 1583" class="cls-2" d="M377.67,7.13l-.06.03h.06v-.03Z"/>
          <path id="_パス_1584" data-name=" パス 1584" class="cls-2" d="M377.76,7.27l-.09-.07.09.07Z"/>
          <path id="_パス_1586" data-name=" パス 1586" class="cls-2" d="M380.25,5.24h0l-.09-.07.09.07Z"/>
          <path id="_パス_1588" data-name=" パス 1588" class="cls-2" d="M385.64,19.7l.06-.07s-.06.1-.06.07Z"/>
          <path id="_パス_1589" data-name=" パス 1589" class="cls-2" d="M385.44,19.8l.03-.03-.06.07.03-.03h0Z"/>
          <path id="_パス_1590" data-name=" パス 1590" class="cls-2" d="M385.45,19.73s-.09.06-.06,0c-.06.13.03,0,0,.03h0l.06-.07h0v.03Z"/>
          <path id="_パス_1593" data-name=" パス 1593" class="cls-2" d="M385.48,19.4s-.05.06-.06.1h.03v-.1h.03Z"/>
          <path id="_パス_1596" data-name=" パス 1596" class="cls-2" d="M385.38,19.63s.06-.1.03-.07c0,.03-.01.05-.03.07Z"/>
          <path id="_パス_1598" data-name=" パス 1598" class="cls-2" d="M385.38,19.47v-.07s-.04.07-.06.1h0l.06-.03Z"/>
          <path id="_パス_1600" data-name=" パス 1600" class="cls-2" d="M385.29,19.7l.09-.1-.09.1Z"/>
          <path id="_パス_1601" data-name=" パス 1601" class="cls-2" d="M385.35,19.37l.06-.06-.06.06Z"/>
          <path id="_パス_1602" data-name=" パス 1602" class="cls-2" d="M385.32,19.34s.03-.1.06-.1l-.06.07v.03Z"/>
          <path id="_パス_1607" data-name=" パス 1607" class="cls-2" d="M385.22,19.73c.02-.05.05-.1.09-.13,0,.03-.06.06-.09.13Z"/>
          <path id="_パス_1608" data-name=" パス 1608" class="cls-2" d="M385.25,19.6s.02-.05.03-.07h-.03v.07Z"/>
          <path id="_パス_1616" data-name=" パス 1616" class="cls-2" d="M385,19.67v-.07c-.03.1-.09.1-.16.23h0c.03-.07.09-.13.06-.03.08-.12.16-.26.22-.39,0,.04-.03.08-.06.1,0,.06-.02.12-.06.17h0Z"/>
          <path id="_パス_1617" data-name=" パス 1617" class="cls-2" d="M385.16,19.44h0l.03-.07-.06.07h.03Z"/>
          <path id="_パス_1618" data-name=" パス 1618" class="cls-2" d="M385.16,19.57s.01-.07.03-.1h0v-.07h-.03c-.03.07-.06.1-.09.17,0,0,.03-.07.06-.07h0l.03.06Z"/>
          <path id="_パス_1619" data-name=" パス 1619" class="cls-2" d="M385.22,19.66c-.03.05-.07.11-.09.17h-.03s.05-.07.06-.1h0s.04-.09.06-.13h0v.07Z"/>
          <path id="_パス_1620" data-name=" パス 1620" class="cls-2" d="M385.1,19.7v.07h0s.01-.07.03-.1h-.03v.03Z"/>
          <path id="_パス_1621" data-name=" パス 1621" class="cls-2" d="M385.16,19.4l.06-.1-.09.1h.03Z"/>
          <path id="_パス_1622" data-name=" パス 1622" class="cls-2" d="M385.13,19.37h0l.03-.03-.03.03Z"/>
          <path id="_パス_1624" data-name=" パス 1624" class="cls-2" d="M384.46,19.05s.06-.17,0-.1v.06h0v.03Z"/>
          <path id="_パス_1627" data-name=" パス 1627" class="cls-2" d="M384.84,19.27v-.06s-.03.1,0,.06Z"/>
          <path id="_パス_1635" data-name=" パス 1635" class="cls-2" d="M383.88,19.77l.06-.07.09-.19-.16.26h0Z"/>
          <path id="_パス_1636" data-name=" パス 1636" class="cls-2" d="M384.87,19.6s.09-.1.09-.06l-.06.1v-.03s-.06.17.03,0v-.06s.08-.07.13-.1c.06-.1,0,0,.03-.1-.06.17-.03,0-.09.13.06-.13,0-.07.06-.2,0,.03,0,.07-.03.03h0v.1s-.09.07-.13.1c0-.03.01-.05.03-.07v.07c0-.06,0-.11.03-.17h0v-.06h-.03s-.13.1-.06-.03h-.03v-.07h0c.09-.17-.03-.06-.03-.1v.1h-.13v.07l-.06-.07h0c.06-.19-.13.1-.09-.03h0v-.06h0s0,.03-.06.1h-.03s-.03.07,0-.07c-.03.07-.06,0-.13.17h0c0-.06.01-.11.03-.17l-.13.13v-.07h0c.03-.13-.09-.06-.06-.19-.09.19,0-.1-.06.07,0-.03,0-.07.06-.1-.03.03,0-.1-.06,0,0-.03.03-.07.06-.1h0s.02-.05.03-.07c-.06.08-.11.17-.16.26,0-.04-.01-.04-.03,0-.03.07,0-.1.06-.1,0,0,0-.1-.06,0h-.03s0,.03-.06.07h0s-.03,0,0-.1v.1c-.13.17,0-.13-.06-.07v.07s.06-.26.06-.29v-.03c0-.13-.06.1-.09.13,0-.06.06-.13.06-.17,0-.07-.13.17-.09.07,0,.05-.02.1-.06.13,0,0,0-.2-.03-.07h0s-.06,0-.09.1c.09-.29-.13.1,0-.17h0s-.08.03-.09.07v-.06s-.03-.02-.09.06v-.1s0-.17-.03-.07h0s0-.29-.13,0l-.06.07c-.03.06-.05.13-.06.19v-.13h0v-.17c-.06,0-.09-.13-.16-.17v.13h-.06s0-.13.03-.1c0-.07-.03.07-.06.1,0-.06.03-.12.06-.17h0s-.03.13-.06.13v-.11h0v.07s-.03,0-.06.1c.03-.2-.09-.1-.06-.17-.03.07-.06.07-.06.07,0,0,0,.13-.03.13.06-.23,0-.1,0-.29,0,.13-.06,0-.09.2v-.17c-.06.1-.06-.06-.13-.06,0,.05-.01.09-.03.13v-.17s-.03.2,0,.07v.07c-.06-.17-.22.1-.25-.23v.07s-.06,0-.06.13h0s-.03.29-.06.46c.03-.17,0,.23.06,0v.11c0-.07,0-.1.03-.07h0c.02.05.05.1.09.13v-.03c.03-.13,0,0,0-.17,0,.17.06,0,.03.23,0,0,0-.1.03-.1h0v.13h.03c.07,0,.13-.04.16-.1h.06l.03-.03s0,.09-.03.13c.06-.07.03-.07.09-.2v.07s0-.1.03-.1c.01.06-.01.13-.06.17,0,.17.09-.13.06.1.06-.17,0-.1,0-.13,0-.07.06-.13.06-.1,0,0-.06.23,0,.23h0c.03-.1,0,0,.06-.13h-.03s.09-.17.09-.07c0,.04-.01.07-.03.1h0c-.03.13-.03,0-.09.13,0,.07.06-.1,0,.07.06-.2,0,0,.09-.1v.1h0v.07s-.03.1,0,.03c0-.06.01-.11.03-.17.06-.1-.06.23,0,.2h0s0-.1.06-.13c0,.1,0-.03.06-.07v.1s.03-.17.03-.1l-.06.1h0v.07h0c0-.06.03-.12.06-.17,0,.06-.03.06,0,.06,0,.07-.06.13-.03.03v.07h0l.06-.1s0,.07-.03.07v-.07c0,.06,0,.11-.03.17l.06-.07v.1s.09-.13.09-.07h0s0,.07.06,0v.13s0-.17.06-.2c.03,0-.03.1-.03.13.03-.06.09-.17.09-.06h0v.06s-.08.1-.09.17c.09-.23.06,0,.16-.23v.07h0s.09-.17.09-.1v.03h.06s.06-.03.06-.06v.1c-.09.23.03-.07,0,.1h0c0,.07-.01.13-.03.19.02-.09.05-.18.09-.26h0c-.03.1,0,.07,0,.07v-.04c0,.06-.02.12-.06.17.01-.06.03-.11.06-.17,0,.07,0,0,.09-.03,0,.03-.03.07-.03.1l.06-.1h0s.06-.06.06-.1c.06-.13-.06.2,0,.07-.02.03-.04.07-.06.1.05-.05.09-.1.13-.17v.07c.04-.09.08-.18.13-.26v-.12h.09l-.06.07h0l-.06.13v-.07l-.09.2h0l-.06.1h0s.19-.23.22-.26c-.05.08-.09.17-.13.26.03-.1-.06.03-.06,0,0,0,0,.07-.03.07l.09-.1s-.01.07-.03.1c.06-.17.06-.1.13-.17,0,.04-.03.08-.06.1-.03.13.13-.2.09-.07h0s.03,0,0,.07h0s.06.03.16-.1l-.09.19.29-.46c-.07.17-.16.34-.25.5h0s.06-.2.09-.2c-.06.13,0,.07-.06.2,0,0,.09-.23.13-.2l-.09.2.13-.17c-.04.07-.08.15-.09.23,0-.03,0,0,.03,0h0s.16-.29.19-.26c0,.03-.13.23-.13.26.06-.1.25-.46.32-.52h0s-.25.42-.32.52v.07s-.03.07-.06.07h0v.07c.06-.06.11-.13.16-.2l-.09.1s.19-.29.19-.26c-.03.08-.07.16-.13.23,0-.03.06-.07.06-.03v.06h0s-.06.17,0,.1c.06-.13.25-.52.32-.62-.02.06-.04.13-.06.19-.05.12-.11.23-.19.33,0,0,.03-.06.06-.06,0,0-.06.1-.03.1l.06-.1h0c.06-.09.12-.18.19-.26v.1s-.03.06,0,.1c0,.04-.03.08-.06.1v.07c.03-.07.06-.07.09-.1.06-.1,0,0-.03,0,.06-.12.13-.23.22-.33.03,0-.03.1,0,.07,0,.03.16-.23.16-.1-.04.08-.08.16-.13.23-.03,0,0-.07,0-.07h0s-.03.1-.03.07c-.03.1.06.06.03.13.02-.03.04-.07.06-.1h0s.07-.08.09-.13h0l-.37.21h0Z"/>
          <path id="_パス_1642" data-name=" パス 1642" class="cls-2" d="M385,19.34s.06-.1.03-.07c.06-.06-.09.1-.03.07Z"/>
          <path id="_パス_1643" data-name=" パス 1643" class="cls-2" d="M384.87,19.77v.03l.03-.1-.03.06Z"/>
          <path id="_パス_1646" data-name=" パス 1646" class="cls-2" d="M384.68,19.61v.03l.03-.06h0l-.03.03h0Z"/>
          <path id="_パス_1648" data-name=" パス 1648" class="cls-2" d="M384.52,19.93s.02-.04.03-.07c0,0-.06.07-.03.07Z"/>
          <path id="_パス_1649" data-name=" パス 1649" class="cls-2" d="M384.4,19.6h0l.09-.17-.09.17Z"/>
          <path id="_パス_1650" data-name=" パス 1650" class="cls-2" d="M384.04,19.86v-.07l-.06.13c0,.07.06-.1.03-.03h0l.03-.03h0Z"/>
          <path id="_パス_1651" data-name=" パス 1651" class="cls-2" d="M381.94,18.23l-.03-.07v.07h.03Z"/>
          <path id="_パス_1654" data-name=" パス 1654" class="cls-2" d="M383.15,19.6l.03-.1-.06.1h.03Z"/>
          <path id="_パス_1658" data-name=" パス 1658" class="cls-2" d="M371.36,29.52v.03h.06s-.1,0-.06-.03Z"/>
          <path id="_パス_1703" data-name=" パス 1703" class="cls-2" d="M370.97,29.12h.29c.06,0,.16,0,.09.03h.29c-.16,0,0-.03-.16,0h.13s.06-.03,0-.03h0s-.13-.07,0-.1h.06s.06,0,0-.03c.19,0,.03-.03.06-.07h-.09l-.06-.03h-.09s.06-.03.06-.06h0c.19,0-.13-.03,0-.07h-.22c.16,0,0-.07.16-.1h.06c-.06,0,.09,0-.06-.03h-.06s.06-.03-.06-.03h-.08s-.06,0,.06-.03h-.09c-.19,0,.13,0,.03-.03h-.06c.1,0,.19,0,.29-.03h.06s-.22-.03-.09-.07h-.13s.19-.03,0-.03h-.13c.32-.03-.16-.03.13-.06h0s-.08-.06-.13-.06h.06c.06,0,.03-.03-.09-.03h.09s.16-.07.03-.07h.03c-.13,0,.25-.1-.09-.06h-.28s.09-.03.13,0h0c.19,0,.06-.03.19-.03,0-.03.09-.1.06-.17h-.22c.19-.03.06-.1.13-.1h-.19c.25,0,.09-.03.29-.06-.13,0-.03-.03-.19,0h.16c-.09,0,.06-.07,0-.1h.03s-.19,0-.06-.06h-.09s-.16-.1.13-.2h-.19l.13-.06h-.13l-.48.1c.16,0-.22.06,0,.06h-.03l-.09.1h0l.16-.03c-.19.03,0,.06-.19.1h.03s0,.07.09.07h.03s-.03,0,0,.03h0c-.16.03.16,0-.06.06.19,0,.09-.03.16-.03h.13s-.25.03-.25.06h-.09s-.09.07,0,.07c.06,0,.11-.01.16-.03.13,0-.22.03-.19.06h.09s.06,0,0,.03h0s-.08.03-.13.03c-.03,0,.16,0,.09.03h.03s-.09.03,0,.03h-.24c.25,0,0,.03.29,0h.16s0,.03-.06.03h-.06c-.25,0,.06,0-.09.03h-.03c-.06,0-.13.01-.19.03.09-.02.19-.02.29,0h-.03l.09.03h.13c.13,0-.19.03-.03.03h-.19s.35.06.41.06h-.29c.13,0-.06,0,0-.03h.03s-.09.01-.13.03h.13s0,.06.16.06h.32s-.48.03-.54.03h-.22c.07.02.15.03.22.03h.6c-.08,0-.15.01-.22.03h-.06s-.06.03-.06.06h.25s.29,0,.16.07h-.25c-.09,0,0,.07-.09.07h0l-.05.46h-.01Z"/>
          <path id="_パス_1710" data-name=" パス 1710" class="cls-2" d="M371.07,29.22l.09-.03h-.09v.03Z"/>
          <path id="_パス_1724" data-name=" パス 1724" class="cls-2" d="M357.33,20.09l.03.03-.03-.06v.03Z"/>
          <path id="_パス_1725" data-name=" パス 1725" class="cls-2" d="M357.39,20.06h0v.07s.03-.1.06-.07c-.06-.13,0,0-.06,0Z"/>
          <path id="_パス_1733" data-name=" パス 1733" class="cls-2" d="M357.68,20.26l.03.06s-.01-.07-.03-.1h0v.03Z"/>
          <path id="_パス_1735" data-name=" パス 1735" class="cls-2" d="M357.78,20.32v.06l-.03-.1.03.03Z"/>
          <path id="_パス_1736" data-name=" パス 1736" class="cls-2" d="M357.81,20.29s.02.09.03.13v-.1h-.03v-.03Z"/>
          <path id="_パス_1738" data-name=" パス 1738" class="cls-2" d="M357.68,20.19s0,.07.03.07v-.07h-.03Z"/>
          <path id="_パス_1741" data-name=" パス 1741" class="cls-2" d="M357.55,19.96c.02.05.03.11.03.17,0-.06,0-.11-.03-.17Z"/>
          <path id="_パス_1743" data-name=" パス 1743" class="cls-2" d="M357.78,20.19v-.03h-.03v.03h.03Z"/>
          <path id="_パス_1750" data-name=" パス 1750" class="cls-2" d="M357.78,19.86l.03.07c-.03-.1,0-.13-.06-.26v.06c.03.14.09.27.16.39v-.1s-.06-.08-.06-.13h0l-.07-.03Z"/>
          <path id="_パス_1751" data-name=" パス 1751" class="cls-2" d="M357.84,20.13h0s0,.03.06.1v-.1h-.06Z"/>
          <path id="_パス_1752" data-name=" パス 1752" class="cls-2" d="M357.81,20.13c0-.07-.02-.14-.06-.2v.1s.02.05.03.07h0v.07h0l.03-.03Z"/>
          <path id="_パス_1753" data-name=" パス 1753" class="cls-2" d="M357.55,19.9s.05.08.06.13c0-.07-.03-.14-.06-.2h0v.1h0v-.03Z"/>
          <path id="_パス_1755" data-name=" パス 1755" class="cls-2" d="M357.87,20.16l.03.07-.03-.1v.03Z"/>
          <path id="_パス_1756" data-name=" パス 1756" class="cls-2" d="M357.9,20.13l.03.07v-.03l-.03-.03Z"/>
          <path id="_パス_1758" data-name=" パス 1758" class="cls-2" d="M358.7,19.86s.09.17.06.07v-.07h-.06Z"/>
          <path id="_パス_1761" data-name=" パス 1761" class="cls-2" d="M358.22,20s.01.03.03.03c0-.03-.06-.1-.03-.03Z"/>
          <path id="_パス_1769" data-name=" パス 1769" class="cls-2" d="M358.58,18.95v.07l.09.23-.09-.29Z"/>
          <path id="_パス_1770" data-name=" パス 1770" class="cls-2" d="M361.23,18.69s-.13-.29-.19-.46c.03.17-.13-.19-.06,0v-.04h0c-.06-.02-.11-.04-.16-.07h0c.03.13.03,0,.06.13-.06-.17-.09,0-.16-.17,0,0,.03.1,0,.1h0s-.06-.07-.06-.1h-.03c-.08.02-.13.09-.13.17h0s-.03,0-.06.07h0v.07s-.05-.08-.06-.13c0,.08,0,.15.03.23v.07c0-.07-.06-.1-.06-.17-.09-.13,0,.17-.09-.03.06.2.06.1.06.13,0,.07.03.13,0,.13,0,0-.09-.23-.13-.19h0s0,.07-.03,0c.03.1,0,0,0,.13h0s.03.17,0,.1v-.09h0c-.06-.13,0-.03,0-.17,0-.07,0,.1-.03-.03.06.19-.03,0,0,.13h0l-.06-.1s-.06-.07-.06,0c.03,0,.06.1.09.17,0,.13-.09-.2-.13-.13l.06.06-.06-.06s.02.09.03.13c-.06-.1,0,.03,0,.1v-.1h-.03v-.06s-.03.06-.06.03c0,.07.06.17.03.17,0-.03,0-.07-.03-.07,0-.07-.03-.13,0-.03v-.07h-.06v.1c-.03-.05-.05-.11-.06-.17v.1s-.06-.07-.06-.1c-.03-.03,0,.17-.03.1h0s-.09-.03-.06.07l-.06-.13s.09.13.06.2c0,.03-.06-.1-.06-.13,0,.07.03.19,0,.1h0v-.06c-.02-.06-.05-.12-.09-.17.09.23-.06.07.03.29h-.03v-.06s.06.17,0,.17c-.02-.02-.03-.04-.03-.07v.07h-.03v.1s-.03-.13,0-.13c-.13-.23,0,.07-.09-.07h0c-.06-.17-.06-.1-.13-.2,0,.03.13.2.13.26h0c-.03-.1-.03-.07-.03-.07v.03c-.03-.05-.07-.11-.09-.17.03.05.05.11.06.17-.03-.03-.03,0,0,.1,0-.03,0-.07-.03-.1v.1h0s.02.06.03.1c.03.13-.09-.17-.06,0,0-.04-.01-.07-.03-.1v.19l-.06-.07s.06.2.09.26l.06.1v.07s-.01-.07-.03-.1h0l-.06-.13v.07c0-.07-.01-.13-.03-.2h0l-.07-.1h0v.39c0-.1-.06-.17-.09-.26.06.1,0-.06.03-.03l-.03-.07v.13s-.03-.08-.07-.1c.06.17,0,.13,0,.19,0-.07-.03-.13,0-.1-.06-.13.06.23,0,.1h0c0,.07,0,0-.03,0h0s-.09,0-.03.17l-.06-.2.13.52c-.08-.16-.14-.33-.19-.5h0c.04.06.07.13.09.2l-.09-.2s.09.23.06.23c-.03-.08-.06-.15-.09-.23l.06.2s-.06-.17-.09-.23h0s.06.33.03.33c0-.03-.09-.26-.13-.26,0,.1.16.5.16.59h0s-.16-.5-.19-.62c0-.03,0-.07-.03-.07v-.1h-.06c0,.07.02.14.06.2v-.13s.09.33.06.33c-.02-.09-.06-.18-.09-.26h0s0,.17-.03.07c0,0-.06-.13-.06-.07.06.13.22.55.25.66,0,0-.09-.13-.13-.17-.06-.1-.06-.26-.13-.33v.1s-.03-.1-.03-.06c.03.13-.03,0,0,.1,0,.03,0,0-.03,0,.03.06.09.26.06.29,0-.04-.01-.07-.03-.1-.03,0-.06-.07-.09-.03-.02-.03-.04-.07-.06-.1v.06l-.03-.13v.17c.03.1.03,0,.03-.03.06.12.09.26.09.39,0,.03-.03-.1-.03-.07-.06,0,.06.26,0,.17-.04-.08-.07-.17-.09-.26,0-.03.06.07.06.03h-.03v-.07c-.03-.07-.09,0-.16-.07v.1h0s0,.1.03.13h0c0,.07-.09-.13-.03,0v.07s.06.17.03.17c.03.1,0,0,.06.1-.06-.17.06,0,0-.17.03.06.06.11.09.17v-.06h0v-.23c.03.05.05.11.06.17h0s.06.06.06,0h0v-.07h0s0-.13.09,0v.03s.09.06.06,0c.09.17.06,0,.13.03v-.23s.05.02.06,0h0c.09.17,0-.17.09-.03h.06l-.03-.07v-.07s0-.07.06.1c0-.08-.01-.15-.03-.23h0v-.03c.04.06.07.13.09.2v-.13s0-.1.03-.03c.06.13.09,0,.19.1-.09-.2.06.07,0-.07,0,.03.03.07.06.13,0-.07.06.06.03-.07,0,.04,0,.07.03.1h0v.07c-.02-.1-.05-.2-.09-.29.03.07.03.03,0-.03,0,.03.06.1.03.1,0,0,.09.03.03-.07h.03v-.07h0s0-.03.09.07v-.07c-.09-.17.03.1.03,0h0s.13.2.16.2v.03c.06.1-.03-.1,0-.13,0,.06.03.12.06.17,0,.03-.03-.19.03-.1,0-.05-.03-.1-.06-.13,0,0,.13.17.06,0h0v-.14c.13.29,0-.17.13.1h.03v-.06c.06.03.06,0,.03-.13v.1s.16.1.13,0h0s.19.23.06-.07v-.1l-.09-.2s.06.07.06.1h0s.06,0,.09.13c.06-.03.16,0,.22,0l-.06-.13h0s.03.1,0,.1c.03.07,0-.06,0-.1.06.03.03.17.06.17h0v-.14l.03.07h.03l-.06-.1v-.1c.09.17.13,0,.16.07v-.1s-.06-.13-.03-.13c.09.23.06.1.16.26-.06-.1.03-.03-.03-.2.01.05.04.09.06.13,0-.1.09,0,.13,0-.02-.04-.03-.09-.03-.13l.09.13s-.06-.17,0-.07v-.07s.09-.19.29.07c-.03-.07,0-.07,0-.07h0s.06,0,.03-.13h0l.09-.17h.01Z"/>
          <path id="_パス_1774" data-name=" パス 1774" class="cls-2" d="M357.87,19.89s0-.03-.03,0h.03Z"/>
          <path id="_パス_1777" data-name=" パス 1777" class="cls-2" d="M357.81,19.7v-.03l.03.1-.03-.06Z"/>
          <path id="_パス_1783" data-name=" パス 1783" class="cls-2" d="M358.28,19.47h0l.06.17-.06-.17Z"/>
          <path id="_パス_1784" data-name=" パス 1784" class="cls-2" d="M358.35,19.01s.02.05.03.07c0-.03,0,0-.03-.13-.03-.03.03.09,0,.06Z"/>
          <path id="_パス_1785" data-name=" パス 1785" class="cls-2" d="M361.28,18.88l.03.03-.03-.03Z"/>
          <path id="_パス_1788" data-name=" パス 1788" class="cls-2" d="M359.31,18.52h0l.06.1-.06-.1Z"/>
        </g>
      </g>
      <g>
        <path class="cls-3" d="M13.54,114.29c-1.44-1.17-3.37-2.39-5.11-3.07.04.89-.19,1.85-.45,2.34-.25.98-1.25,1.75-3.35,1.75C2.08,115.3.04,114.04,0,112.04c-.02-2.09,2.1-3.24,4.49-3.26.55,0,1.36.04,1.95.13-.02-.4-.08-.75-.11-1.09-.15-2.49-.36-6.69-.36-9.14l2.54.13c0,.19-.15.36-.49.43l.02,3.37c1.19-.04,3.88-.25,5.98-.64l.19,1.88c-1.93.3-4.56.51-6.15.53,0,1.36.11,2.54.19,3.62.04.38.09.81.11,1.22,2.29.72,4.58,1.96,6.42,3.3l-1.23,1.75ZM4.43,110.33c-1.61.02-2.75.7-2.73,1.66.02,1.13,1.33,1.68,2.75,1.68,1.21,0,2.08-.55,2.08-1.56,0-.55,0-1.07-.04-1.51-.68-.21-1.44-.26-2.06-.26Z"/>
        <path class="cls-3" d="M25.16,109.37c-.36-1.17-.51-2.75-.51-3.82,0-1.58.17-3.64.59-5.97l2.44.36c-.06.24-.28.3-.51.34-.36,1.49-.66,3.84-.66,5.24,0,.26.02.49.04.66.38-.87,1.04-2.05,1.46-2.73.21.34.66.92.91,1.19-1.1,1.73-1.93,3.15-1.93,3.94,0,.15.02.32.06.51l-1.87.3ZM35.71,99.08c-.02.23-.17.36-.49.43.15,1.56.32,4.18.32,6.46,0,3.66-1.25,7.01-7.12,9.42-.28-.4-.95-1.15-1.34-1.51,5.19-1.98,6.42-5.05,6.42-7.88,0-2.47-.25-5.16-.45-7.05l2.67.11Z"/>
        <path class="cls-3" d="M58.97,114.29c-1.44-1.17-3.37-2.39-5.11-3.07.04.89-.19,1.85-.45,2.34-.25.98-1.25,1.75-3.35,1.75-2.54,0-4.58-1.26-4.62-3.26-.02-2.09,2.1-3.24,4.49-3.26.55,0,1.36.04,1.95.13-.02-.4-.08-.75-.11-1.09-.15-2.49-.36-6.69-.36-9.14l2.54.13c0,.19-.15.36-.49.43l.02,3.37c1.19-.04,3.88-.25,5.98-.64l.19,1.88c-1.93.3-4.56.51-6.15.53,0,1.36.11,2.54.19,3.62.04.38.1.81.11,1.22,2.29.72,4.58,1.96,6.42,3.3l-1.23,1.75ZM49.86,110.33c-1.61.02-2.75.7-2.73,1.66.02,1.13,1.33,1.68,2.75,1.68,1.21,0,2.08-.55,2.08-1.56,0-.55,0-1.07-.04-1.51-.68-.21-1.44-.26-2.06-.26Z"/>
        <path class="cls-3" d="M78.54,115.68c-1.74-2.04-4.66-4.73-7.33-6.82-1.06-.83-1.36-1.36-1.36-2.15,0-.58.27-1.13.95-1.77,1.82-1.68,5.13-4.88,6.76-6.58l2.18,1.41c-.1.11-.25.21-.47.21-.08,0-.13,0-.21-.02-1.82,1.7-4.62,4.15-6.17,5.58-.45.43-.85.79-.85,1.07,0,.32.42.7,1.1,1.19,2.4,1.77,5.04,4.09,7.31,6.44l-1.89,1.43Z"/>
        <path class="cls-3" d="M99.25,113.51h7.67v1.73h-17.16v-1.73h7.63v-4.39h-5.49v-1.73h5.49v-3.82h-4.32c-.62,1.26-1.33,2.41-2.08,3.3-.36-.32-1.08-.83-1.53-1.09,1.5-1.64,2.78-4.52,3.52-7.33l2.23.62c-.06.15-.21.23-.47.23-.25.85-.55,1.71-.89,2.54h3.54v-3.66l2.31.15c-.02.15-.15.26-.45.32v3.18h6.78v1.73h-6.78v3.82h6.02v1.73h-6.02v4.39Z"/>
        <path class="cls-3" d="M128.58,105.34c-1.52.51-3.54.87-5.49,1.07.59.94,1.67,2.15,2.93,2.64l-1.02,1.49c-1.08-.57-1.57-.83-3.16-.83-.3,0-.62.02-.91.06l-.42-1.41c.21-.02.44-.02.68-.02.44,0,.91.02,1.23.06-.42-.43-.93-1.09-1.25-1.77-1.36.09-2.88.15-4.05.15-1.02,0-2.48,0-3.67-.04l-.02-1.58c1.08.04,2.56.04,3.64.04s2.42-.04,3.56-.11c-.17-.53-.45-1.43-.62-2.15-.61.06-1.67.09-3.62.09-.63,0-1.23-.02-1.76-.04v-1.62c.8.04,1.63.06,2.35.06.91,0,2.01,0,2.73-.06-.17-.83-.34-1.85-.47-2.83l2.52.06c0,.21-.19.36-.51.43.08.7.17,1.49.3,2.19,1.67-.15,3.6-.53,4.92-1.02l.4,1.62c-1.44.47-3.24.79-4.98.96.19.81.4,1.62.59,2.15,2.01-.23,4.13-.64,5.76-1.22l.36,1.64ZM120.91,115.19c-3.14-.04-5.49-1.07-5.49-3.22,0-1.22,1.04-2.37,2.14-3.01l1.23,1.17c-.93.49-1.44,1.17-1.46,1.77-.02,1.13,1.44,1.62,3.56,1.64,1.38,0,3.14-.08,4.39-.19l-.08,1.73c-.85.06-1.99.11-3.56.11h-.74Z"/>
        <path class="cls-3" d="M142.07,106.26c1.16-.55,2.86-.87,4.15-.87,2.93,0,4.89,1.73,4.89,4.6,0,3.41-2.99,5.33-6.95,5.33-2.46,0-4.17-1.06-4.17-2.85,0-1.45,1.48-2.64,3.24-2.64,2.06,0,3.52,1.51,3.83,3.17,1.23-.49,2.08-1.55,2.08-2.98,0-1.83-1.42-3-3.56-3-2.71,0-5.28,1.17-6.59,2.41-.49.47-1.25,1.24-1.74,1.79l-1.34-1.32c1.5-1.55,6.59-6.37,9.15-8.72-1,.13-4.55.3-6.36.38-.04.13-.25.26-.42.3l-.19-2.17c2.5,0,7.61-.19,8.92-.4l.28-.15,1.31,1.58c-.13.11-.32.17-.53.21-1.16.89-4.45,3.92-5.98,5.29v.02ZM143.87,113.68c.42,0,1.04-.08,1.42-.15-.17-1.22-1.1-2.19-2.23-2.19-.8,0-1.52.43-1.52,1.13,0,.96,1.31,1.21,2.33,1.21Z"/>
        <path class="cls-3" d="M182.98,109.61c-.04.19-.21.23-.4.21-.23,1.58-.62,3.39-1.19,4.5-.32-.21-.91-.47-1.29-.62.51-1.06.87-2.85,1.08-4.5l1.8.41ZM195.74,99.95l1.21.64c-.06.09-.15.19-.28.23-.68,1.79-1.67,3.35-2.84,4.69,1.31,1.15,2.86,2.05,4.53,2.62-.38.34-.89,1-1.16,1.43-1.67-.66-3.18-1.66-4.51-2.88-1.42,1.32-3.05,2.35-4.75,3.09-.15-.3-.49-.77-.8-1.11l-.53.24c-.08-.3-.19-.66-.34-1.04l-1.36.09v7.89h-1.59v-7.8c-.95.04-1.8.09-2.48.11-.04.17-.19.24-.32.26l-.38-1.85,1.33-.02c.36-.43.74-.94,1.1-1.47-.57-.85-1.48-1.9-2.31-2.68l.89-1.19c.17.15.34.3.51.47.59-1.09,1.23-2.47,1.59-3.5l1.82.75c-.08.11-.23.17-.45.17-.47,1.06-1.29,2.53-1.99,3.58.34.36.63.7.87,1.04.74-1.15,1.42-2.34,1.93-3.34l1.76.81c-.1.11-.25.17-.49.17-.91,1.53-2.31,3.58-3.6,5.16l2.58-.06c-.28-.57-.59-1.13-.89-1.64l1.31-.55c.72,1.11,1.46,2.52,1.82,3.58,1.31-.62,2.56-1.43,3.64-2.39-.59-.7-1.14-1.43-1.61-2.22-.51.68-1.1,1.34-1.76,1.96-.28-.38-.87-.92-1.27-1.15,1.95-1.71,3.22-4.03,3.9-5.88l2.08.3c-.06.17-.19.26-.44.28-.17.4-.34.81-.55,1.23h3.56l.28-.06ZM186.69,109.12c.53,1.17,1.06,2.68,1.27,3.67-.4.15-.8.28-1.44.51-.17-1.02-.68-2.56-1.17-3.75l1.34-.43ZM195.59,116c-1.67-1.04-4.75-2.36-7.29-3.07l1.06-1.26c2.5.7,5.57,1.96,7.29,2.92l-1.06,1.41ZM194.15,111.69c-.87-.7-2.5-1.66-3.83-2.2l1.04-1.13c1.33.55,2.95,1.43,3.84,2.09l-1.06,1.24ZM191.07,101.55l-.21.36c.47.87,1.08,1.7,1.78,2.47.76-.85,1.42-1.79,1.91-2.83h-3.48Z"/>
        <path class="cls-3" d="M213.91,107.78c1.7,2.22,4.41,4.33,6.97,5.45-.44.38-1.04,1.09-1.35,1.58-2.4-1.24-4.9-3.37-6.72-5.75v6.75h-1.89v-6.56c-1.82,2.34-4.28,4.41-6.68,5.63-.3-.45-.91-1.17-1.33-1.55,2.58-1.13,5.3-3.28,7.01-5.56h-5.45v-1.77h6.46v-2.96h-7.4v-1.77h7.4v-3.11l2.35.15c-.02.15-.15.26-.45.3v2.66h7.54v1.77h-7.54v2.96h6.59v1.77h-5.49Z"/>
        <path class="cls-3" d="M235.29,109.67v1.56h-9.56v-1.56h1.8v-7.5h-1.57v-1.56h1.57v-2.2l2.06.13c-.02.15-.15.24-.44.3v1.77h3.01v-2.2l2.08.13c-.02.15-.13.26-.42.3v1.77h1.36v1.56h-1.36v7.5h1.46ZM230.23,112.19c-.06.13-.19.19-.44.17-.63,1.22-1.69,2.6-2.69,3.49-.32-.32-.95-.77-1.34-1.02.95-.77,1.93-2.07,2.5-3.3l1.97.66ZM232.16,102.17h-3.01v1.49h3.01v-1.49ZM229.15,105.05v1.54h3.01v-1.54h-3.01ZM229.15,107.99v1.68h3.01v-1.68h-3.01ZM242.9,99.1v14.68c0,1.77-.68,2.11-3.75,2.07-.06-.47-.3-1.24-.53-1.71.55.04,1.12.04,1.55.04.89,0,.99,0,.99-.4v-4.33h-3.62c-.25,2.32-.83,4.73-2.18,6.48-.28-.3-1-.85-1.4-1.04l.15-.21-.8.45c-.36-.77-1.25-2-2.01-2.9l1.38-.75c.64.73,1.42,1.71,1.87,2.45,1.31-2.39,1.44-5.45,1.44-7.89v-6.93h6.89ZM237.71,106.03c0,.56-.02,1.17-.04,1.79h3.48v-2.77h-3.45v.98ZM241.16,100.72h-3.45v2.73h3.45v-2.73Z"/>
        <path class="cls-3" d="M265.1,103.04v1.79h-4.34c-.04.11-.19.21-.36.23-.62,4.2-2.31,7.95-6.23,10.23-.42-.34-1.16-.85-1.67-1.15,3.73-2.02,5.47-5.46,5.94-9.31h-4.7c-.85,1.43-1.87,2.75-2.88,3.73-.42-.3-1.17-.68-1.7-.92,2.2-1.88,4.22-5.52,5.06-8.87l2.42.53c-.06.15-.25.28-.53.28-.34,1-.91,2.36-1.46,3.47h10.43Z"/>
        <path class="cls-3" d="M288.16,100.53c-.06.11-.19.19-.32.24-.95,2.22-2.56,4.52-4.24,6.03-.38-.32-1.16-.77-1.65-1.04,1.46-1.11,2.71-2.79,3.26-4.14h-12.88v-1.79h13.94l.25-.15,1.65.85ZM280.85,104.07c-.04.19-.21.32-.49.36-.51,4.28-2.06,8.54-5.91,10.8-.4-.32-1.1-.92-1.61-1.21,3.71-2,5.15-5.84,5.51-10.19l2.5.24Z"/>
        <path class="cls-3" d="M311.37,109.84v1.53h-4.24v2.64c0,1.81-.91,1.83-4.28,1.83-.1-.45-.34-1.11-.57-1.56.7.04,1.4.04,1.93.04,1.12,0,1.16,0,1.16-.36v-2.58h-11.23v-1.53h11.23v-1.28h-9.18v-6.35h5.66v-1.09h-7.29v-1.51h7.29v-1.39l2.22.13c-.02.15-.13.26-.45.3v.96h7.44v1.51h-7.44v1.09h5.93v6.35h-2.84v.02l.87.02c-.02.15-.11.26-.44.3v.94h4.24ZM298.32,111.36c1.06.74,2.35,1.81,2.95,2.58l-1.42,1.09c-.57-.79-1.82-1.94-2.88-2.71l1.34-.96ZM297.87,103.47v1.32h3.98v-1.32h-3.98ZM297.87,105.98v1.32h3.98v-1.32h-3.98ZM307.77,103.47h-4.17v1.32h4.17v-1.32ZM307.77,107.3v-1.32h-4.17v1.32h4.17Z"/>
        <path class="cls-3" d="M324.62,99.02v7.16h-5.26v9.65h-1.78v-16.81h7.04ZM322.93,100.51h-3.58v1.38h3.58v-1.38ZM319.35,104.71h3.58v-1.51h-3.58v1.51ZM333.48,99.02v14.51c0,2.07-.81,2.3-4.7,2.3-.08-.51-.38-1.36-.64-1.85.76.04,1.55.04,2.16.04,1.27,0,1.36,0,1.36-.49v-7.33h-5.45v-7.18h7.27ZM331.66,100.51h-3.73v1.38h3.73v-1.38ZM327.93,104.75h3.73v-1.55h-3.73v1.55Z"/>
        <path class="cls-3" d="M356.42,104.73h-3.73v1.04c0,3.79-1.23,7.33-6,9.53-.34-.4-.91-.96-1.38-1.32,4.58-2,5.49-5.11,5.49-8.18v-1.07h-5.49v4.47h-1.87v-4.47h-3.48v-1.81h3.48v-3.9l2.4.15c-.02.19-.19.38-.53.43v3.32h5.49v-4.15l2.4.13c-.02.19-.17.34-.51.4v3.62h3.73v1.81Z"/>
        <path class="cls-3" d="M378.38,100.25c-.09.09-.23.17-.42.17-.06,0-.11,0-.19-.02-1.46,1.45-3.41,3.07-5.23,4.39.17.08.4.17.51.21-.04.15-.21.28-.45.32v9.95h-1.99v-9.25c-1.86,1.28-4.41,2.73-6.72,3.86-.27-.43-.76-1.09-1.14-1.45,5.06-2.28,10.72-6.24,13.69-9.61l1.93,1.43Z"/>
        <path class="cls-3" d="M398.94,109.07c-1.74-.98-4.3-2.19-6.27-2.96v9.12h-1.99v-16.49l2.54.15c-.02.21-.19.36-.55.43v5.39l.38-.53c2.16.79,5.04,2.05,6.95,3.05l-1.06,1.83Z"/>
      </g>
    </g>
  </g>
</svg>