<?xml version="1.0" encoding="UTF-8"?>
<svg id="_レイヤー_2" data-name="レイヤー 2" xmlns="http://www.w3.org/2000/svg" viewBox="0 0 800 232">
  <defs>
    <style>
      .cls-1 {
        opacity: .8;
      }

      .cls-2 {
        fill: #f2a5ba;
      }

      .cls-2, .cls-3 {
        stroke-width: 0px;
      }

      .cls-3 {
        fill: #f1a1b4;
      }
    </style>
  </defs>
  <g id="_レイヤー_1-2" data-name="レイヤー 1">
    <g>
      <g>
        <g id="_グループ_5132" data-name="グループ 5132">
          <path id="_パス_1380-2" data-name=" パス 1380-2" class="cls-3" d="M91.68,151.57H27.44V25.24h13.4v114.57h50.84v11.77Z"/>
          <path id="_パス_1381-2" data-name=" パス 1381-2" class="cls-3" d="M131.39,45.3c-4.8.01-8.7-3.98-8.71-8.91h0v-.53c-.11-4.99,3.74-9.13,8.6-9.24s8.89,3.84,9,8.83v.39c.36,4.84-3.17,9.06-7.88,9.44-.33.03-.67.03-1,0v.02ZM138.18,151.58h-13.4V61.23h13.4v90.35Z"/>
          <path id="_パス_1382-2" data-name=" パス 1382-2" class="cls-3" d="M182.37,61.2c0-11.3,0-26.05,9.68-36.15,5.49-5.32,12.79-8.23,20.34-8.11,4.49-.05,8.94.85,13.08,2.66l-2.25,10.77c-3.21-1.44-6.67-2.17-10.17-2.15-13.88,0-17.27,13.27-17.27,27.86v5.15h21.3v10.77h-21.3v79.59h-13.4v-79.59h-12.1v-10.77h12.1v-.02Z"/>
          <path id="_パス_1383-2" data-name=" パス 1383-2" class="cls-3" d="M309.43,147.74c-8.67,3.97-18.1,5.89-27.59,5.63-25.69,0-41.02-18.56-41.02-45.59s15.5-48.75,39.24-48.75c27.12,0,34.06,25.53,34.06,41.29,0,3.15-.17,5.48-.32,7.63h-59.86c.17,25.03,14.04,34.46,29.86,34.46,7.93.16,15.79-1.42,23.08-4.64l2.59,9.94h0l-.03.03ZM300.87,97.67c.17-12.29-4.84-28.19-22.12-28.19-16.16,0-23.25,15.73-24.53,28.19h46.65Z"/>
          <path id="_パス_1384-2" data-name=" パス 1384-2" class="cls-3" d="M459.38,40.81c-6.56-3.92-14.04-5.92-21.62-5.8-17.11,0-23.57,10.77-23.57,19.9,0,12.43,7.43,18.72,23.89,25.86,19.85,8.62,30.02,19.07,30.02,37.14,0,20.05-14.21,35.47-40.67,35.47-10.31.14-20.47-2.61-29.37-7.96l3.72-11.44c7.94,5.09,17.12,7.79,26.48,7.79,16.46,0,26.14-9.13,26.14-22.72,0-12.43-6.63-20.05-22.6-26.69-18.56-7.13-31.15-18.23-31.15-35.64,0-19.24,15.18-33.31,37.61-33.31,8.75-.31,17.43,1.75,25.17,5.96l-4.02,11.44h-.02Z"/>
          <path id="_パス_1385-2" data-name=" パス 1385-2" class="cls-3" d="M508.73,44.77l13.23-4.64v21.04h22.76v10.77h-22.76v52.24c0,11.44,3.38,17.74,11.96,17.74,3.06.1,6.12-.35,9.03-1.32l.81,10.62c-4.18,1.59-8.62,2.33-13.08,2.15-21.3,0-21.96-19.9-21.96-29.49v-51.9h-13.57v-10.78h13.55v-16.41l.02-.02Z"/>
          <path id="_パス_1386-2" data-name=" パス 1386-2" class="cls-3" d="M636.09,129.98c-.17,7.21.26,14.42,1.29,21.55h-12.27l-1.31-11.61h-.48c-5.87,8.75-15.64,13.87-25.99,13.59-13.45.74-24.93-9.85-25.67-23.67-.04-.68-.04-1.34,0-2.02,0-21.71,18.41-33.49,50.99-33.31,0-7.63,0-24.87-20.02-24.87-7.62-.1-15.1,2.16-21.47,6.46l-3.23-9.46c8.06-5.1,17.37-7.75,26.84-7.63,24.85,0,31.32,18.08,31.32,35.98v34.99h0ZM622.86,104.61c-16.63,0-37.44,2.49-37.44,21.55-.91,8.25,4.85,15.69,12.88,16.63.76.09,1.53.12,2.3.08,11.85.45,21.81-9.05,22.26-21.22v-17.06h0Z"/>
          <path id="_パス_1387-2" data-name=" パス 1387-2" class="cls-3" d="M718.25,72.79c-1.6-.22-3.22-.33-4.84-.33-14.54,0-21.96,14.75-21.96,30.02v49.08h-13.4v-63.34c0-9.61-.17-18.41-.64-27.03h11.78l.64,17.41h.48c3.14-11.02,12.71-18.79,23.87-19.4,1.35.08,2.69.24,4.02.49v13.1h.05Z"/>
        </g>
        <g id="_グループ_125" data-name=" グループ 125" class="cls-1">
          <path id="_パス_1407" data-name=" パス 1407" class="cls-2" d="M774.62,4c-.03-.08-.06-.16-.11-.23-.12.35.11.23.11.23Z"/>
          <path id="_パス_1408" data-name=" パス 1408" class="cls-2" d="M773.7,7.47l-.06.53.06-.47v-.06Z"/>
          <path id="_パス_1409" data-name=" パス 1409" class="cls-2" d="M773.08,9.54h.06s.29,0,.34-.12h0l-.23-.47h0l.12-.53c-.18,0-.35.04-.51.12h0l.23.47c-.14.6-.31,1.19-.51,1.76.23-.18.34-.76.46-1.23h.06ZM773.3,9.01l-.12.41.12-.41Z"/>
          <path id="_パス_1410" data-name=" パス 1410" class="cls-2" d="M771.64,11.95h0c0,.14-.04.29-.12.41.12-.06,0,.41.17-.41h-.05Z"/>
          <path id="_パス_1412" data-name=" パス 1412" class="cls-2" d="M771.13,13.6v-.47s-.17.47-.17.3c-.11.47,0,.41.17.18h0Z"/>
          <path id="_パス_1414" data-name=" パス 1414" class="cls-2" d="M771.3,13.3l-.11.53s.11,0,0-.23v-.3h.11Z"/>
          <path id="_パス_1415" data-name=" パス 1415" class="cls-2" d="M771.3,14.42l.06-.18.12-.89-.17,1.06h-.01Z"/>
          <path id="_パス_1417" data-name=" パス 1417" class="cls-2" d="M768.77,17.19s-.29-.18-.06-.23c-.33.02-.65.08-.97.18h1.03v.06Z"/>
          <path id="_パス_1418" data-name=" パス 1418" class="cls-2" d="M767.28,17.3c.15-.03.31-.07.46-.12-.16-.03-.33.02-.46.12Z"/>
          <path id="_パス_1424" data-name=" パス 1424" class="cls-2" d="M768.26,17.42s-.51.06-.8.06h.97s.17-.12-.17-.12h0v.06Z"/>
          <path id="_パス_1428" data-name=" パス 1428" class="cls-2" d="M766.42,17.37c.14,0,.27.02.4.06-.11,0-.4-.12-.4-.06Z"/>
          <path id="_パス_1430" data-name=" パス 1430" class="cls-2" d="M769.35,17.42c-.12,0-.24.04-.34.12h.34v-.12Z"/>
          <path id="_パス_1431" data-name=" パス 1431" class="cls-2" d="M763.83,17.77s1.25.18.8.3c-.74.06-.63,0-.97-.12.29.18-.97.23-.8.47l.63-.12s-.23.12,0,.12c0-.12.69-.23,1.26-.12.58-.12.17-.53-.29-.76,0,0,0,.12-.58.18h0l-.05.05h0Z"/>
          <path id="_パス_1432" data-name=" パス 1432" class="cls-2" d="M764.48,17.54h1.32c-.27-.03-.54-.09-.8-.18-.4.06-.46.12-.51.18h-.01Z"/>
          <path id="_パス_1434" data-name=" パス 1434" class="cls-2" d="M769.35,17.83h-.91l.46.18h0c.51,0,.4-.12.46-.18Z"/>
          <path id="_パス_1435" data-name=" パス 1435" class="cls-2" d="M764.3,17.48l.12-.18-.51.23.4-.06Z"/>
          <path id="_パス_1436" data-name=" パス 1436" class="cls-2" d="M763.1,17.48l.06-.12-.34.06.29.06h0Z"/>
          <path id="_パス_1437" data-name=" パス 1437" class="cls-2" d="M771.35,35.72l-.11.23.23-.3h-.12v.06Z"/>
          <path id="_パス_1439" data-name=" パス 1439" class="cls-2" d="M759.43,18.13l.12-.06s-.12,0-.12.06Z"/>
          <path id="_パス_1441" data-name=" パス 1441" class="cls-2" d="M793.7,20.84s-.58.59-.34.41l.63-.47h-.17c.34-.38.72-.72,1.14-1,.63-.35.51-.18.8-.35,0,0,.11,0,.34-.23l1.38-1-1.03.47c.29-.35,1.14-.82,0-.23.23-.12.51-.23.8-.41-.27,0-.54-.02-.8-.06v-.12c-.12-.09-.26-.17-.4-.23-.17,0-.23,0-.74.23-.06-.15-.2-.25-.36-.24-.4,0-.8.1-1.16.3h-1.94c-.43.07-.87.11-1.31.12h0c-.09-.13-.21-.23-.34-.3-.31,0-.62.1-.87.3-.29-.18-1.38-.06-1.77-.35.17.06-.06.12-.4.12-.58-.18-1.26-.41-1.43-.47-.06,0-.12-.02-.17-.06-.23-.06-.4,0-1.08.47h-.8c-.42-.01-.84-.05-1.25-.12h-.17c-.58-.18-1.38-.35-1.6-.41v-.23h0c0-.22-.02-.43-.06-.64-.05-.52-.12-1.03-.23-1.54-.1-.1-.22-.17-.35-.22h-.29l-.1-.23.12-.47c.2-.71.3-1.44.29-2.18-.1-.1-.21-.18-.34-.23-.23,0-.23-.06-.97.41l-.17-.41v-.13c.02-.57,0-1.14-.06-1.71-.1-.1-.21-.18-.34-.23h-.23l.17-.53c.32-.7.52-1.46.58-2.24-.1-.1-.21-.18-.34-.23-.22,0-.44.06-.63.18v-.12c-.08-.06-.16-.12-.23-.18l-.11-.23c-.58-1.11-.69-1.29-.69-1.35-.08-.12-.2-.21-.34-.23h-.34c.02-.12,0-.24-.06-.35-.07-.11-.17-.19-.29-.23-.18-.03-.36.02-.51.12h-.07l.23.47-.23.12-.06-.3c0,.18-.46,1.23-.69,1.95-.36.74-.6,1.54-.69,2.36.1.1.21.18.34.23.17,0,.23.06,1.03-.41-.21.27-.44.52-.69.76-.63.64-1.08,1.19-1.49,1.64l.11-.18v-.3c-.07.19-.13.39-.17.59-.91,1-1.16,1.35-1.2,1.58-.04.16-.1.32-.17.47.06-.12.17-.3.23-.3h0v.06h.06s.17.23.34.23c.82-.24,1.6-.61,2.3-1.11-.4.41-.8.76-1.16,1.19-1.14,1.19-1.9,1.88-2.35,2.42h0s-.34.41-.46.53v-.29s-.17.47-.29.47h.12c-.23.3-.17.41,0,.59,0,0,.06.12.12.12h0v.18h0v-.12h.23l-.12.18c.07,0,.14-.05.17-.12h0s.87-.41,3.61-2c1.2-.7,2.87-1.71,3.27-1.88.08,0,.16-.01.23-.06.04,0,.08-.02.11-.06,0,0,.12,0,.12.06.03.2.09.4.17.59l.11-.18c.08.22.12.46.12.7.4.35-.34-1.11,0-.76,0,.32.05.64.17.94-.4,0-1.2.35-9.23,5-1.94,1.19-4.18,2.47-5.78,3.36.34-.41.74-.82,1.08-1.23,1.95-2.16,2.85-3.38,2.69-3.65-.07-.07-.15-.13-.23-.18h-.17s.4-.12-.06-.18h.58c-.19,0-.37-.02-.55-.07h-1.14c.34.04.69.04,1.03,0-.17.12-.63.18-.46.35-.17.06-.4.23-.74.41h-.06c-.46.3-1.16.64-2.13,1.23-.69.41-1.54.89-2.13,1.23l.17-.64c.4-1.71.46-1.95.4-2.11h.34c.06-.12-.12-.12-.4-.12-.07-.07-.15-.13-.23-.18.34-.08.68-.1,1.03-.06-.34-.18-.17,0-.69-.18.46.3-1.83,0-1.08.3-.15-.07-.3-.13-.46-.18.11-.16.11-.37,0-.53-.08-.13-.2-.21-.34-.23-.54.17-1.06.4-1.54.7h-.11l-.29.18-.23.12c-.33-.04-.66,0-.97.12-.51,0,.11-.06-.23-.18l-.51.12-.46-.12-.34-.23h0c-.24-.12-.47-.26-.69-.41-.06,0-.12-.12-.23-.12-.27,0-.53.08-.74.23l-.23.12c-.12-.07-.23-.15-.34-.23-.06-.06-.14-.1-.23-.12-.18-.03-.36.02-.51.12h-.12l.12.35h-.23l.29.18h-.11s0,.18.11.23v.23h.29c.23.12.51.35,1.03.7.46.3.97.7,1.14.82.17.18.34.18.63.06.11.06.23.18.34.23.11.36.25.71.42,1.04.07.11.17.19.29.23.04.14.09.28.17.41.08.12.2.21.34.23h.34c.17.18.4.41.74.82s.8.89.87.94c.06.11.17.18.29.18.25.01.49-.07.69-.23h0s.58.18,1.2.35h.12c-.23.41-.17.53,0,.7.06.12.18.2.31.21.2,0,.39-.04.58-.12.65.53,1.32,1.02,2.02,1.47,0,.2.04.32.12.35.08.12.2.21.34.23.15,0,.31-.01.46-.06l.69.89c.23.35.51.64.63.82-.07.13-.13.27-.17.41,0,.06-.06.12-.06.23-.06.23-.12.53-.17.82h0c-1.77,2.12-2.57,3.32-2.41,3.59.1.1.21.18.34.23.17,0,.23,0,.87-.3,0,.12.12.06.23,0v.41c-.11,0-.17.18-.23.3-1.14.89-1.03,1.06-.87,1.35,0,.12.11.18.23.23-.09.14-.09.33,0,.47h.06c-.17.53-.4,1.19-.58,1.64l-.34.94h0c-.34.94-.34,1-.23,1.19h0c0,.3-.11.53-.11.94l-.17.12c-.03.2-.06.4-.11.59,0,.22-.08.43-.23.59-.11.21-.2.42-.29.64.51-.23,1.6-1,2.75-1.76.58-.41,1.2-.82,1.77-1.19.39-.26.79-.49,1.2-.7-.51-.12.87-.35.74-.64.17,0,.4-.12.17.12.74-.64,1.31-.7,1.71-1.29.17,0-.12.23,0,.23,0-.06.23-.23.34-.23s-.06.12-.17.3c.8-.59.74-.89.63-1.11.39-.09.72-.35.91-.7.17,0,.51-.12,0,.23.29-.18,1.83-1.11,1.77-1.29.11,0,.4-.3.46-.35l.69-.47c.12-.06.24-.14.34-.23h0c.09.13.21.23.34.3.15.01.31-.01.46-.06.51.47.63.53.8.59l.12.12c.4.41.87.94.91,1,.06.11.17.18.29.18.16,0,.32-.04.46-.12h0c0,.2-.01.4-.06.59-.16.72-.22,1.45-.17,2.18.1.1.21.18.34.23l2.06-1,.17-.12h0s-.29.12.12.41c0,.06.23.18.4.23-.46.59-.4.64-.23.89.08.12.2.21.34.23.23,0,.23.06,1.2-.47.19.11.37.24.51.41-.12-.18-.17-.35.17-.18.25.17.48.37.69.59-.05.57,0,1.15.12,1.71.08.12.2.21.34.23.23,0,.23.06,1.5-.64.51.3,1.2.7,1.54.89-.04.2-.04.4,0,.59.08.13.2.21.34.23h.11c.13.02.25-.03.34-.12.22.22.47.4.74.53-.11-.23-.17-.53-.29-.82h.06s.34-.47.17-.7c0-.06-.11-.12-.17-.18h0s.29-.47.17-.7c0-.06-.11-.12-.17-.18.18-.59.26-1.2.23-1.82-.08-.12-.2-.21-.34-.23-.17,0-.23,0-.87.3-.06-.18-.06-.23-.11-.23l-.09-.15c-.1-.38-.24-.75-.4-1.11-.09-.17-.2-.33-.34-.47,0-.23.06-.06.11-.06l-.11-.41c.74-1.29.69-1.35.58-1.58-.08-.13-.2-.21-.34-.23-.22,0-.44.06-.63.18.12-.35.17-.7.29-1v-.12c.08-.13.14-.26.17-.41.18-.46.26-.97.23-1.47-.08-.12-.2-.21-.34-.23-.44.11-.87.29-1.26.53-.1-.35-.23-.68-.4-1,0,0,.06,0,.12.12-.31-.73-.52-1.51-.63-2.3,0-.18-.12-.35-.12-.53v-.23h-.12v-.12c.05-.15.09-.31.12-.47h0s.29-.3.23-.47l1.2-.89h0c2.06-1.47,4.18-2.83,6.13-4.18h-.34l.69-.53c.23-.06.34,0-.11.3.17,0,.34-.18.51-.35.12-.18.29-.41.29-.41.69-.41.69-.35.46-.12h0l-.23.05h-.02ZM795.72,19.37l-.29.18c.32-.3.27-.23.27-.16h.01ZM765.57,25.95h0s-.17-.3-.34-.3h-.17v-.3h.17c-.01.09.03.19.11.23.06.14.19.23.34.23.4.12.74,0,7.39-4,.74-.41,1.54-.94,2.3-1.35-.87.64-1.71,1.35-2.47,2-3.09,2.53-4.59,3.71-5.28,4.35h0c-.11-.08-.23-.16-.34-.23,0,0-.11-.12-.17-.12l-.11-.12s-.46-.7-.58-.59c.12.36,0,.76-.29,1-.23-.3-.4-.59-.51-.7h0l-.05-.1ZM778.41,15.82c.1.1.21.18.34.23h.23c.07.23.09.47.06.7.23.59.11-.23.34.35v.18l.12.12h0c-.09-.06-.19-.1-.29-.12-.34-.06-.46-.12-6.76,3.65-.87.53-1.77,1.06-2.69,1.58.87-.7,1.83-1.42,2.69-2.08,3.5-2.65,5.15-4,5.96-4.7h0v.07h0ZM784.19,26.07v-.18l.97-.64c-.51.41.11.3-.8.82l.29-.47-.51.41h0l.05.06h0ZM782.52,27.25h.17c-1.31.7-3.61,2-7.79,4.46,1.6-1,3.27-2.08,4.81-3,1.6-1,3.04-1.88,4.29-2.72l-.17.12-.17.12-.23.18s-.58.41-1.03.7v.12h.12v.03ZM783.56,33.79c.1.1.21.18.34.23h.23c-.51.3-1.08.64-1.83,1.06l-.8.47c.21-.21.39-.42.58-.64.58-.59.97-1.06,1.38-1.47,0,.3.06.3.11.35h-.02ZM779.84,34.85s.12.18,0,.18v-.18ZM780.06,34.85c-.07-.05-.15-.09-.23-.12v-.18c.46-.23,1.2-.7,2.47-1.47l.17-.12c-.4.41-.8.89-1.14,1.23-.4.41-.74.82-1.03,1.11-.17-.23-.23-.35-.23-.47h0ZM777.54,31.61c0-.06-.02-.12-.06-.18h0c1.38-.89,2.69-1.64,3.84-2.3h0c.12.07.27.07.4,0h0c-.4.23-1.03.64-2.06,1.23-.69.41-1.49.89-2.02,1.19h0l-.11.06h.01ZM782.99,29.26c0-.06-.02-.12-.06-.18,0-.06-.11-.12-.17-.18h0l.17-.12.12.23v.18h-.06v.06ZM782.8,29.86c-.29.94-.29,1-.17,1.19.06.14.19.23.34.23h.11v.18c-.34.23-.8.47-1.31.82-.34.23-.74.47-1.14.7.19-.28.41-.56.63-.82.91-1.23,1.38-1.88,1.6-2.24h0l-.06-.06h0ZM784,35.38c-.51.12-.99.34-1.43.64l.23-.12c.46-.3,1.03-.59,1.49-.89l-.34.35h.06-.01ZM785.04,37.74c-.06-.04-.12-.08-.17-.12l.29-.18-.17.3h.05ZM785.33,36.2s-.74.41-1.43.82c.23-.29.48-.57.74-.82l.51-.59s.11.35.17.59ZM779.31,26.2c-3.09,1.82-6.59,3.88-9.4,5.54,2.18-1.42,4.7-3.06,6.99-4.53,4.05-2.41,7.97-5.04,11.75-7.88h0c.37-.05.72-.19,1.03-.41h0s.17.59.23.89v.12c-2.3,1.29-5.73,3.3-10.71,6.3h.12v-.02ZM779.65,17.96h0v.41c.01-.09-.03-.19-.11-.23,0-.07.12-.13.12-.19h0ZM779.48,18.19c.12.3.23.64.34.94h1.43c-1.31.76-3.15,1.82-5.85,3.41-1.31.76-2.75,1.64-4.07,2.42.69-.59,1.49-1.19,2.18-1.76,2.07-1.56,4.06-3.24,5.96-5.02h0ZM786.42,18.9h-.11c.26-.09.53-.13.8-.12-1.26.64-3.67,2.08-8.36,4.88-2.06,1.23-4.47,2.65-6.53,3.88.97-.64,2.02-1.35,2.98-2.08,5.56-3.83,8.02-5.6,9.06-6.47.73.02,1.46-.01,2.18-.12v.03ZM776,23.38c.91-.53,1.9-1.11,2.87-1.71-1.43,1-2.92,2.08-4.29,3-3.61,2.47-5.62,3.88-6.76,4.75v-.12h-.06l.34-.23s0-.06-.11-.12v-.12h.11s.23-.23.23-.41c.46-.59.63-.82.58-1,1.03-.53,3.04-1.71,7.06-4.12h0l.05.06h-.01ZM767.28,29.73h0l-.11.12v-.12h.11ZM767.63,31.14c3.69-1.84,7.29-3.89,10.77-6.12-.69.47-1.38.89-2.06,1.35-4.29,2.77-7.16,4.65-9.11,5.89.51-.82.46-.94.34-1.11h.05ZM766.43,30.84c0,.09.04.18.12.23v.12l-.23.18v-.26l.11-.23h0v-.04ZM764.93,36.96h0l.17-.47s.17.06.17.12v-.53s.06-.35.06-.41c.11,0,.23-.12.34-.18,0-.1.02-.2.06-.3,1.9-.94,5.78-3.18,14.15-8.18,2.69-1.58,5.73-3.36,8.32-4.88-2.75,1.76-6.02,3.83-9,5.64-8.53,5.36-12.49,7.88-14.32,9.19h.06,0ZM786.08,24.73c-.09.12-.19.24-.29.35l-.11-.12.4-.23h0ZM776.85,32.84s-.17-.18-.29-.18h-.12l.29-.18v.12c.06.14.19.23.34.23.29.06.34.06,3.09-1.58l.74-.41-.46.64c-.68.87-1.32,1.78-1.9,2.72-.29-.18-.63-.3-.97-.53-.4-.35.17,0,0-.23l-.34-.12-.46-.47h.06v-.03ZM791.7,18.72l.23.12h.17l.12-.12h.06l-1.26.64-.1-.39c.24-.13.49-.23.74-.3h0l.05.05h0ZM780.93,17.37l-.11-.12.11.12ZM776.11,5.02h0l-.17.12.12-.23v.12h.05ZM775.43,6.61c.23-.64.4-1.11.51-1.47l.12.18s-.12.64-.29.64c.17.24.27.53.29.82l-.51.3-.4.23.29-.7h0ZM775.26,9.91c.58-.59.97-1.11,1.31-1.47,0,.06.06.12.12.18,0,.23-.17-.18-.17,0,.23.25.39.56.46.89-.23,0-.58.23-2.41,1.29h-.11l.8-.82h0v-.1.03ZM773.83,14.32l-.58.35.8-.82c1.54-1.58,2.47-2.47,2.92-3.06h.4c.12.34.22.7.29,1.06v.41h0c-.29-.06-.34-.12-3.84,2h0v.06h0ZM769.98,20.31c1.54-.89,3.21-1.88,4.7-2.77-.87.7-1.83,1.42-2.69,2.08-2.35,1.55-4.54,3.34-6.53,5.36-.07-.04-.13-.1-.17-.18l.17.18v.12c-.1,0-.2-.02-.29-.06v-.18c0-.54-.08-1.07-.23-1.58,1.16-.64,2.81-1.58,5.04-2.94h0v-.03ZM764.13,20.31l.8-.47c-.34.35-.63.7-.91,1.06-.91,1-1.54,1.71-1.94,2.18h-.29v-.12c-.46-.3-.74-.59-1.08-.82.29,0,.46,0,3.5-1.82h0l-.05-.02-.02.02ZM759.04,20.78c-.4-.53.63.41.34-.06-.19,0-.37-.06-.51-.18l-.4-.18h0s.58-.35.97-.59.87-.53,1.31-.76l-.17.76c-.34,1.58-.4,1.82-.34,2-.11-.12-.29-.18-.4-.3,0-.12-.46-.47-.17-.41-.22-.03-.42-.13-.58-.3h-.06,0ZM758.75,21.02c-.21-.06-.42-.14-.63-.23l-.23-.12.46-.23s.8.47,1.08.64c-.11.12-.34.12-.69,0h0v-.06h0ZM760.48,17.95c-.34.18-.86.47-1.54.89-.54.34-1.1.66-1.67.94h0l-.17-.52s.69-.35,1.6-.89l.46-.3h.11c.2-.13.41-.25.63-.35h.34l.17.18c-.24-.06-.5-.06-.74,0,.27,0,.53.02.8.06h.01ZM759.5,22.48h0l-.11-.12h0l-.12-.12.12.12.23.12h-.12ZM770.27,36.15c.15-.13.33-.23.51-.3-.15.14-.34.23-.54.27l.02.02ZM771.37,36.15s-.06-.06,0-.23l-.11.12c-.34.12-.29-.06-.12-.3l.4-.12s.23-.47.11-.59l-.23.23v-.13l-.23.23h-.34l-1.2.64c-.67.89-1.44,1.7-2.3,2.42.23-.35-.12-.3-.23-.47.46,0,.91-.7,1.54-1.11-.34.23-.34.06-.29,0l-1.03.94c-.24.05-.47.13-.69.23.23,0,0,.23-.23.47-.14.13-.3.25-.46.35l-.12.12h-.06l-.11.18v-.16s0-.06.11-.12c.09-.11.21-.19.34-.23-.09,0-.17.04-.22.12h-.12v.12h-.06c-.03.08-.06.16-.11.23-.06.22-.24.38-.46.41.12-.06.17-.06.17-.18-.13.15-.28.27-.46.35-.11.06-.17,0-.11-.06h.06c-.33.18-.66.38-.97.59v-.41l.4-.23s.58-.35.69-.41h.06s.34-.47.17-.7l-.11-.12c.97-.53,2.75-1.54,6.13-3.47h.06v.12h0c.08,0,.16.02.23.06h.11c.08,0,.16-.02.23-.06-.14.23-.31.43-.51.59.17-.03.35-.07.51-.12l-.74.64h0l.29.05h-.02Z"/>
          <path id="_パス_1442" data-name=" パス 1442" class="cls-2" d="M771.35,35.14h.12s0-.06-.12,0Z"/>
          <path id="_パス_1444" data-name=" パス 1444" class="cls-2" d="M760.86,17.36h-.51c.17.03.35.07.51.12,0,0-.12-.06,0-.12Z"/>
          <path id="_パス_1446" data-name=" パス 1446" class="cls-2" d="M756.51,17.6c.34,0,0-.18.23-.12.11-.06-.4,0-.69,0-.29.06-.29.12.4.06h0l.06.06Z"/>
          <path id="_パス_1448" data-name=" パス 1448" class="cls-2" d="M776.34,4.12l-.29-.23c.06.13.09.27.12.41l.17-.18h0Z"/>
          <path id="_パス_1450" data-name=" パス 1450" class="cls-2" d="M765.33,10.65l-.11.06h.06l.05-.06Z"/>
          <path id="_パス_1451" data-name=" パス 1451" class="cls-2" d="M765.16,10.65h.17s-.23-.12-.17-.18c-.17.18.12.06,0,.18Z"/>
          <path id="_パス_1454" data-name=" パス 1454" class="cls-2" d="M765.39,10.01h.11s.03-.08.06-.12c-.06,0-.11,0-.17.12Z"/>
          <path id="_パス_1457" data-name=" パス 1457" class="cls-2" d="M765.33,10.13s0,.06-.11.12c.06,0,.23,0,.11-.12Z"/>
          <path id="_パス_1459" data-name=" パス 1459" class="cls-2" d="M765.22,9.83h.06s0-.06.12-.12c-.06.04-.12.08-.17.12h0Z"/>
          <path id="_長方形_143" data-name=" 長方形 143" class="cls-2" d="M764.99,10.24l.23-.02h0l-.23.02Z"/>
          <path id="_パス_1461" data-name=" パス 1461" class="cls-2" d="M765.22,9.6h.06l.12-.06-.17.06h0Z"/>
          <path id="_パス_1462" data-name=" パス 1462" class="cls-2" d="M765.22,9.48s.11-.12.17-.12h-.17v.12Z"/>
          <path id="_パス_1464" data-name=" パス 1464" class="cls-2" d="M765.22,9.66l-.11.12h0c.06,0,.11-.05.11-.12Z"/>
          <path id="_パス_1465" data-name=" パス 1465" class="cls-2" d="M765.11,9.77h0l-.06-.06.06.06Z"/>
          <path id="_パス_1467" data-name=" パス 1467" class="cls-2" d="M764.77,10.18c.08-.07.18-.12.29-.12-.11,0-.21.04-.29.12Z"/>
          <path id="_パス_1469" data-name=" パス 1469" class="cls-2" d="M764.94,9.66s.12,0,.12-.06h-.12v.12h0v-.06Z"/>
          <path id="_パス_1476" data-name=" パス 1476" class="cls-2" d="M764.38,9.6s.03-.08.06-.12c-.11.12-.23,0-.46.18h.12s-.12,0-.12.06c.12-.06.23-.06.17,0,.25-.1.48-.23.69-.41h-.17s-.11.18-.23.18h0l-.05.12h-.01Z"/>
          <path id="_パス_1477" data-name=" パス 1477" class="cls-2" d="M764.81,9.36v.12h0l.11-.12s-.11,0-.11,0Z"/>
          <path id="_パス_1478" data-name=" パス 1478" class="cls-2" d="M764.94,9.48h-.17c-.12.06-.23,0-.34.18h.17s.06,0,.11-.12h.11l.12-.06Z"/>
          <path id="_パス_1479" data-name=" パス 1479" class="cls-2" d="M764.48,10.3l.06-.06-.06.06Z"/>
          <path id="_パス_1480" data-name=" パス 1480" class="cls-2" d="M764.82,10.01c-.1.07-.2.15-.29.23h.06s-.08.03-.11.06c.06,0,.12-.02.17-.06h0l.17-.18h0v-.06h0Z"/>
          <path id="_パス_1482" data-name=" パス 1482" class="cls-2" d="M764.88,9.31l.12-.06-.23.06h.11Z"/>
          <path id="_パス_1483" data-name=" パス 1483" class="cls-2" d="M764.94,9.19h-.11l-.06.06.17-.06Z"/>
          <path id="_パス_1485" data-name=" パス 1485" class="cls-2" d="M763.55,7.12l.12-.11h-.12v.12h0Z"/>
          <path id="_パス_1488" data-name=" パス 1488" class="cls-2" d="M764.25,8.35v-.12s-.17.18,0,.12Z"/>
          <path id="_パス_1490" data-name=" パス 1490" class="cls-2" d="M764.25,8.29s.06-.12,0-.06h0s.06.02.06.06h-.06Z"/>
          <path id="_パス_1497" data-name=" パス 1497" class="cls-2" d="M761.78,7.36h.17l.34-.23-.51.23Z"/>
          <path id="_パス_1498" data-name=" パス 1498" class="cls-2" d="M757.82,1.17l-.11.12c.11-.06.17-.06.17,0h0s.06.23.12.41l.12-.12v.12c.23-.12,0-.06.17-.23-.23.23.17.18-.11.47,0,0,.11-.12.17-.12h0c-.03.06-.07.12-.11.18h0s.11.06.11.12h0c.11.1.25.16.4.18h0s0,.06.11.12h.11c-.11,0-.11.18-.23.18.17,0,.11,0,.4-.12l-.11.12s.17-.06.23,0c-.12,0-.12.12-.29.18-.17.23.34,0,0,.23.34-.18.11-.18.17-.23.06-.12.23-.12.23-.06,0,0-.34.3-.23.41h0s.11,0,0,.12c.17-.12,0,0,.23-.12h-.12s.4-.18.29,0h-.15s.06,0,0,.06c-.23.18-.11,0-.34,0-.06.06.23,0,0,.12.34-.18,0,.12.29,0l-.12.12h-.06s-.06.23,0,.23c-.06-.06.17-.12.23-.23.23,0-.29.3-.17.35,0-.07.05-.12.12-.12h0c0,.08-.05.15-.12.18.06.06.11-.12.23-.12-.17.12.12,0,.17,0l-.11.12s.29-.18.23,0l-.23.12h.06l-.17.12s.12,0,.12.06c.11-.06.23-.18.29-.12-.06.06-.11.06-.06.12-.12,0-.23.12-.12,0h-.11v.18h.29c-.09.06-.19.1-.29.12h.17s-.12.12-.17.12c0,.06.29,0,.23.06h.06s-.11.23.12.18l-.17.18s.23-.23.34-.18c.11,0-.17.12-.23.18.12,0,.34-.12.23,0h0l-.12.12c-.12,0-.24.05-.34.12.4-.23.17.12.58-.06h.17s-.06.12-.11.12h.06l.11.12h.23s-.23.12-.23,0c-.4.3.12,0,0,.23h-.06l-.23.23s.29-.3.46-.3c0,0,0,.06.06,0-.17.06-.11.12-.06.12l-.17.12c.1,0,.2-.02.29-.06l-.25.25s.23-.18.29-.12c0,.12.06.12.23.12,0,.06-.11,0-.17.12h.11c.09-.06.19-.1.29-.12.23-.12-.23.3,0,.18-.07,0-.14.05-.17.12h.4l-.11.12c.16-.08.34-.14.51-.18l.11-.12h.17c-.06.04-.12.08-.17.12h0c-.09.06-.19.1-.29.12l.12-.12s-.29.12-.4.18h.06l-.23.18h.12v.12c.22-.09.45-.13.69-.12-.17.03-.33.11-.46.23.17-.12-.12,0-.12-.12,0,0-.11.06-.11.12h.23c-.07.04-.13.1-.17.18.29-.18.23,0,.34,0-.11,0-.23.12-.23,0-.17.18.4-.12.23,0h0c.12,0,.06.12,0,.12h0c.07.14.25.2.39.12,0,0,0,0,0,0h0l-.34.18.97-.3c-.29.17-.6.3-.91.41,0,.03.02.06.05.06,0,0,0,0,0,0,.11-.07.23-.13.34-.18-.23.18-.12.12-.29.3,0,0,.4-.23.4-.18-.13.07-.26.13-.4.18l.4-.12-.4.23c.06,0,0,.06.06.06h.06s.51-.23.58-.12c-.06,0-.46.18-.46.3.35-.14.72-.26,1.08-.35h0s-.91.35-1.14.41c-.06.06-.11.06-.06.12-.06.06-.17,0-.17,0v.12c.14,0,.28-.04.4-.12h-.29s.63-.23.63-.12c-.15.09-.3.17-.46.23h0s.29,0,.17.12c0,0-.23.18-.11.12.34-.23.71-.43,1.08-.59-.08.12-.18.22-.29.3-.17.12-.46.18-.58.3h.17s-.17.06-.12.12c.23-.12,0,.12.17-.06.06,0,0,.06,0,.12.19-.08.38-.14.58-.18-.05.04-.09.08-.14.12v.3c-.03.07-.1.11-.17.12h.12s-.06,0-.23.12c.12-.06.23,0,.29,0,.17-.12,0-.12-.12-.12.23-.13.48-.19.74-.18.12,0-.17.12-.11.12,0,.18.51-.12.4.06-.14.1-.29.18-.46.23-.12,0,0-.12,0-.18h0s-.12.06-.12,0c-.11.12.12.23,0,.41.06,0,.12-.02.17-.06h0s.23-.06.23-.12h.23l-.17.12s.11-.12,0-.06c.11,0-.17.23.06.12l.11-.12s.34-.06.29,0c.17-.12,0,0,.17-.18-.23.18-.06-.12-.29.06.23-.18.06-.12.23-.3-.06,0-.11.06-.11,0h-.06v.12h-.34s.08-.03.11-.06h-.11s.17-.18.29-.18h0s.06-.18,0-.18h-.17s-.34-.12-.12-.35c0,0-.11,0-.11-.06h.11s0-.23-.06-.18c.29-.23,0-.23,0-.3h-.46v-.19h0c.23-.23-.34-.06-.17-.3h0v-.12c-.07,0-.14.05-.17.12h-.11s-.12,0,.11-.18c-.13-.04-.27-.04-.4,0h0v-.12l.17-.12h-.29c.1-.03.19-.07.29-.12h-.29s-.23,0-.12-.12c.17-.18-.11-.3,0-.53-.34.23.12-.18-.17,0,.06,0,.11-.12.17-.12-.11,0,.06-.18-.17-.12.06,0,.12-.02.17-.06h.12c-.2.03-.39.09-.58.18.12-.12.06-.12-.11,0,.06,0,.11-.12.17-.12,0,0,0-.23-.17-.12h0s-.02-.09-.06-.12h-.11s-.11,0,0-.23h-.14c-.29.23.11-.12,0-.12h-.06c.14-.09.27-.19.4-.3h.06c-.09.03-.2.03-.29,0,.12-.06.29-.12.23-.18.06-.06-.4.06-.23-.12-.06,0-.11.12-.23.12,0,0,.23-.3,0-.18h0c-.1-.07-.24-.07-.34,0,.46-.3-.4-.06.06-.35l-.11-.12h0c-.09-.03-.2-.03-.29,0,.05,0,.09-.02.12-.06,0-.12-.1-.16-.29-.12l.11-.12s.12-.3-.11-.3h.06s.23-.53-.34-.23h-.15c-.11.05-.21.14-.29.23,0,0,.11-.18.17-.18h0c0-.12.07-.23.17-.3-.11-.18-.11-.47-.23-.64l-.17.18h0l.17-.18c.12-.12-.17,0-.17,0,0-.12.29-.12.23-.18h-.06s-.17.12-.23,0c0-.06.12-.12.12-.12h-.17l-.22.16c.23-.23-.11-.35,0-.41-.08,0-.16-.01-.23-.06,0,0-.17.18-.23.12.4-.3.06-.18.29-.47-.11.18-.17-.12-.34.18,0-.06.12-.12.17-.23-.23,0-.06-.3-.23-.35l-.16.18.17-.23s-.29.23-.17,0c0,0-.06.12-.11.12,0-.18-.17-.3-.29-.35s-.25-.18-.18-.47c0,.12-.06.12-.11.06l-.18.18v-.21s0-.06-.23.06h0c-.18.25-.37.48-.58.7.23-.18-.17.41.17.18h0l.51-.18h0ZM760.75,5.48h-.06c.17-.06.12,0,.06,0h0Z"/>
          <path id="_パス_1502" data-name=" パス 1502" class="cls-2" d="M764.37,9.31s-.06.06,0,.06h0s.11-.12,0-.06Z"/>
          <path id="_パス_1504" data-name=" パス 1504" class="cls-2" d="M764.54,8.82s.17-.06.11,0c.17-.06-.23,0-.11,0Z"/>
          <path id="_パス_1505" data-name=" パス 1505" class="cls-2" d="M763.97,9.54l.17-.06h-.17v.06Z"/>
          <path id="_パス_1508" data-name=" パス 1508" class="cls-2" d="M763.6,8.78s-.06,0,0,.06h.06l-.06-.06Z"/>
          <path id="_パス_1509" data-name=" パス 1509" class="cls-2" d="M763.38,9.13l.12-.06-.17.12h.06v-.06Z"/>
          <path id="_パス_1510" data-name=" パス 1510" class="cls-2" d="M763.27,9.01s-.17,0-.11.06c0,0,.11,0,.11-.06Z"/>
          <path id="_パス_1511" data-name=" パス 1511" class="cls-2" d="M763.04,8.18h.06l.29-.18-.34.18h0Z"/>
          <path id="_パス_1512" data-name=" パス 1512" class="cls-2" d="M762.24,7.83s-.06,0-.23.12c0,.12.17-.06.12,0,.06,0,0-.06.11-.12Z"/>
          <path id="_パス_1513" data-name=" パス 1513" class="cls-2" d="M758.52,0l-.06.12h.06v-.12Z"/>
          <path id="_パス_1514" data-name=" パス 1514" class="cls-2" d="M758.28.23l.11-.18-.17.12h0l.06.06Z"/>
          <path id="_パス_1515" data-name=" パス 1515" class="cls-2" d="M760.51,5.71l-.11.12h0v-.12h.11Z"/>
          <path id="_パス_1516" data-name=" パス 1516" class="cls-2" d="M760.29,5.25h0l.17-.06-.17.06Z"/>
          <path id="_パス_1520" data-name=" パス 1520" class="cls-2" d="M795.02,3.65h0v-.12s-.11.18-.23.18c.11.18.11-.06.17,0h0l.06-.06Z"/>
          <path id="_パス_1523" data-name=" パス 1523" class="cls-2" d="M794.32,3.3s-.06-.02-.06-.06c0,.06.02.13.06.18v-.12Z"/>
          <path id="_パス_1526" data-name=" パス 1526" class="cls-2" d="M794.56,3.59s0-.23-.12-.12c.06,0,.12.05.12.12h0Z"/>
          <path id="_パス_1528" data-name=" パス 1528" class="cls-2" d="M794.17,3.47s-.06,0-.12-.12c.03.06.07.12.12.18h0v-.06Z"/>
          <path id="_パス_1531" data-name=" パス 1531" class="cls-2" d="M793.81,3.47v-.12l.06.18-.06-.06Z"/>
          <path id="_パス_1532" data-name=" パス 1532" class="cls-2" d="M793.7,3.53s-.11-.12-.11-.18v.18h.11Z"/>
          <path id="_パス_1534" data-name=" パス 1534" class="cls-2" d="M794.04,3.65s-.06-.12-.12-.12l.12.12Z"/>
          <path id="_パス_1537" data-name=" パス 1537" class="cls-2" d="M794.45,4c-.07-.08-.11-.19-.12-.3,0,.11.04.22.12.3Z"/>
          <path id="_パス_1538" data-name=" パス 1538" class="cls-2" d="M794.17,3.71v.12h.06s-.03-.08-.06-.12Z"/>
          <path id="_パス_1539" data-name=" パス 1539" class="cls-2" d="M793.87,3.83s0-.12-.06-.12v.12h.06Z"/>
          <path id="_パス_1546" data-name=" パス 1546" class="cls-2" d="M793.76,4.41h-.12c.12.12,0,.23.17.47v-.11s0,.12.06.12c-.06-.12-.06-.23,0-.18-.1-.25-.26-.47-.46-.64v.18c.11.04.19.13.23.23h0l.12-.07Z"/>
          <path id="_パス_1547" data-name=" パス 1547" class="cls-2" d="M793.53,4h.12c-.04-.07-.1-.13-.17-.18v.18h.05Z"/>
          <path id="_パス_1548" data-name=" パス 1548" class="cls-2" d="M793.7,3.88c0,.14.06.27.17.35v-.18s0-.06-.11-.12h0v-.12h0v.12h0l-.06-.06Z"/>
          <path id="_パス_1550" data-name=" パス 1550" class="cls-2" d="M794.45,4.18v.12c0-.06-.02-.12-.06-.18h0s-.17-.12-.17-.18c.06.11.14.21.23.3v-.07h0Z"/>
          <path id="_パス_1552" data-name=" パス 1552" class="cls-2" d="M793.47,3.94l-.11-.12.11.18v-.06Z"/>
          <path id="_パス_1553" data-name=" パス 1553" class="cls-2" d="M793.35,4.01l-.06-.12v.12h.06Z"/>
          <path id="_パス_1555" data-name=" パス 1555" class="cls-2" d="M791.13,5.71s-.29-.18-.17-.06l.12.12h.06v-.06h0Z"/>
          <path id="_パス_1556" data-name=" パス 1556" class="cls-2" d="M790.48,7.59h0l-.11-.12v.12h.11Z"/>
          <path id="_パス_1557" data-name=" パス 1557" class="cls-2" d="M789.63,10.07l.12.12s0-.06-.12-.12Z"/>
          <path id="_パス_1558" data-name=" パス 1558" class="cls-2" d="M792.44,4.7h-.11s.17.12.11,0Z"/>
          <path id="_パス_1559" data-name=" パス 1559" class="cls-2" d="M788.83,8.24l.06.06-.06-.06Z"/>
          <path id="_パス_1565" data-name=" パス 1565" class="cls-2" d="M792.95,4.18l-.06.06h.06v-.06Z"/>
          <path id="_パス_1567" data-name=" パス 1567" class="cls-2" d="M791.81,7.29s-.06-.18,0-.12l-.34-.3.34.42h0Z"/>
          <path id="_パス_1568" data-name=" パス 1568" class="cls-2" d="M785.79,12.78c.06.03.12.07.17.12h-.29s-.06.12.11.23h0c.28.09.54.21.8.35-.23-.18.46.06.17-.18.06,0,.06.06.17.12-.08-.08-.08-.12,0-.12h0c.14-.07.27-.15.4-.23h-.17l.11-.06c-.17-.18-.06.06-.29-.12.29.12.17-.23.46,0,0,0-.17-.06-.11-.12h.23s0-.12.06-.06h-.06s.23-.23.11-.47h-.06c.07-.03.11-.1.11-.18h0s-.06-.12,0-.12c.06.06.17,0,.23.12-.06-.18-.06-.12-.29-.35h.11s-.11-.06-.11-.12c.06.12.17.06.29.18.29,0-.11-.3.23-.12-.29-.23-.23,0-.29-.06-.11,0-.17-.18-.11-.18,0,0,.4.18.46.12h0s-.06-.12.11-.06c-.17-.12,0,0-.17-.18v.12s-.29-.3-.11-.3l.11.12s0-.06.06,0c.23.18,0,.12.11.3.11,0-.11-.18.11,0-.29-.23.12-.06-.11-.3l.11.12v-.13l.12.12s.17,0,.17-.12c-.06.12-.17-.06-.29-.12-.11-.23.4.18.46,0h.06c0-.12-.17-.06-.23-.18.17.06,0-.06-.06-.18l.11.12s-.29-.23-.11-.23l.17.18h.11v-.12c-.11,0-.23-.18-.23-.23.12,0,.12.12.17,0,.06.06.17.18,0,.12l.12.12.11-.12h0l-.11-.23s.11.06.11.12v-.12c.11.06.23.18.23.23v-.18c.06,0,.12.05.12.12h0c.11,0-.12-.23,0-.23h0s.23,0,.11-.23l.23.12s-.29-.12-.29-.3c0-.12.17.12.23.12-.06-.12-.23-.3,0-.23v.07h.12c0,.14.1.26.23.3-.34-.3.11-.18-.29-.47h.11s-.23-.18-.11-.23c.06,0,.12.02.17.06v-.14h.06c-.05-.07-.09-.15-.11-.23.06,0,0,0,.06.06v-.12s.11.18.06.18c.4.23-.06-.12.23,0h0c.11.07.22.13.34.18-.17-.06-.33-.16-.46-.3,0,0,.06,0,0-.06.11.12.11,0,.11,0l.17.12c-.07-.07-.12-.15-.17-.23.11.04.21.1.29.18.06,0-.23-.12-.23-.23.11,0,.06-.12,0-.23.11,0,.11.12.17.12l-.11-.12h.06s-.17-.12-.17-.18c-.17-.18.34.12.17-.12.06,0,.11.12.17.12-.02-.13-.08-.26-.17-.35h.17s-.29-.18-.34-.35h-.12v-.23l.12.12h0c.09.03.17.09.23.18h-.11c.09.09.18.17.29.23h.29c-.15-.19-.26-.41-.34-.64.12.11.24.22.34.35-.17-.12,0,.12-.06.18,0,0,.11.06.11.12v-.25s0,.06.11.12c-.29-.23-.11-.23-.17-.3.06.06.17.18.11.18.23.12-.23-.35,0-.23h0c0-.12.06-.12.12,0h0c.11-.08.13-.24.06-.35,0,0,0,0-.01-.01,0-.02-.03-.04-.05-.05l.29.3-.58-.82s.63.53.69.7c0,0,.11,0,.06-.06l-.29-.23c.23.18.12.06.34.18-.11-.11-.2-.23-.29-.35l.29.3-.17-.35.29.3s.06,0,0-.12h-.12s-.29-.47-.23-.53c.09.16.23.28.4.35-.23-.28-.43-.6-.58-.94h.06s.46.7.58.94c.11,0,.11.12.11,0,.12.06.12.12.06.18h.17c-.03-.16-.11-.3-.23-.41v.3s-.34-.53-.23-.59c.06,0,.23.3.29.35h0s-.06-.3.12-.18c0,0,.23.18.17.06-.17-.18-.74-.76-.87-.94.12.04.23.1.34.18.17.12.29.41.4.53l-.06-.12s.11.18.11.12c-.11-.18.11,0-.11-.18,0-.06.06,0,.11,0-.13-.15-.23-.33-.29-.53l.12.12c.1.02.2,0,.29-.06.07.04.13.1.17.18v-.09s-.06.06.12.23c-.06-.12,0-.18-.06-.3-.11-.18-.11,0-.11.12-.15-.19-.24-.41-.29-.64,0-.12.12.12.12.06.17,0-.17-.47,0-.41.13.11.23.25.29.41,0,.12-.17,0-.17,0h.11v.13c.12.12.23-.12.4-.06,0-.06-.02-.13-.06-.18h0s0-.18-.11-.18v-.25l.11.18s-.11-.06-.11,0c0-.12.23.18.11-.06l-.11-.12s-.06-.35,0-.3c-.11-.18,0,0-.17-.18.17.23-.17.06.06.3-.17-.18-.12,0-.34-.23,0,0,.11.12,0,.12h0l.06.12c.06.12,0,.18,0,.3,0,0,0-.06-.12-.12v.1s-.17-.18-.17-.3h-.06s-.17,0-.17.06v.18h-.06s0,.3-.29.18c0,0,0,.12-.06.12l-.12-.12s-.17,0-.11.12c-.29-.23-.23.06-.34.12l.11.12c-.02.06-.04.12-.06.18l.11.12s-.17,0-.23.12h0c-.34-.18,0,.35-.23.23h0v.12l-.09-.12h0s0,.06.11.18v.12s0,.12-.17-.06c.06.12,0,.18.17.41h0l-.17-.12.17.23c-.1-.07-.2-.15-.29-.23.12.23,0,.12.12.35l-.12-.12s.06.18,0,.12c-.23-.12-.29.23-.58.18.34.23-.17,0,0,.18-.06,0-.11-.06-.17-.18,0,.12-.23,0,0,.23-.06,0-.11-.12-.11-.12h0s-.03-.08-.06-.12c.08.18.2.34.34.47-.08,0-.08.04,0,.12-.09,0-.16-.08-.17-.18,0,0-.23.06-.06.18h0s-.06,0-.11.12h0v.18h0s0,.06-.23,0l.11.12s-.23,0-.17.12h.11c-.17-.07-.34-.13-.51-.18v-.04c-.23,0,.17.12.17.23-.11-.06-.23-.18-.29-.18-.11,0,.17.35,0,.3.09,0,.16.08.17.18,0,.06-.34-.06-.17.12h-.06s0,.18.12.23c-.46-.3,0,.35-.34.06v.12h-.13c0,.08.02.16.06.23-.04,0-.08-.02-.11-.06-.17,0-.17.06,0,.3l-.17-.12s-.34,0-.23.18h0s-.58,0-.12.35v.18c.12.08.26.14.4.18,0,0-.23,0-.23-.06h0c-.12.03-.24.01-.34-.06-.12.18-.4.3-.51.47l.23.12h0s-.17,0-.11-.06c-.12,0,0,.12.11.18-.11,0-.2-.07-.23-.18h0s.17.18.12.23c-.06,0-.17-.06-.17,0h-.06l.17.12s-.06.06.17.18c-.34-.12-.29.23-.4.18.11.12,0,.18,0,.23,0,0,.23.12.17.18-.4-.23-.23,0-.51-.12.23.06,0,.18.23.3-.1-.02-.2-.06-.29-.12.06.18-.23.18-.29.35,0,0,.17,0,.23.12l-.29-.12s.29.18.06.12c0,0,.12,0,.12.06-.4.12-.12.64-.74.59.08,0,.12.02.12.06h0l.17-.14h0ZM790.26,8.88s.06.12,0,.06c-.11-.12,0-.06,0-.06h0Z"/>
          <path id="_パス_1572" data-name=" パス 1572" class="cls-2" d="M793.47,4.41h.12s-.12-.12-.12,0Z"/>
          <path id="_パス_1574" data-name=" パス 1574" class="cls-2" d="M792.89,4.35s-.11-.18,0-.12c-.05-.18,0,.23,0,.12Z"/>
          <path id="_パス_1575" data-name=" パス 1575" class="cls-2" d="M793.58,4.65l.06.12.06.06-.12-.18h0Z"/>
          <path id="_パス_1578" data-name=" パス 1578" class="cls-2" d="M792.9,5.25s.06.06.06,0v-.12h0l-.06.12Z"/>
          <path id="_パス_1579" data-name=" パス 1579" class="cls-2" d="M793.31,5.42s-.06,0-.12-.12l.12.18h0v-.06Z"/>
          <path id="_パス_1580" data-name=" パス 1580" class="cls-2" d="M793.3,5.66s0-.12-.06-.12c0,0,0,.18.06.12Z"/>
          <path id="_パス_1581" data-name=" パス 1581" class="cls-2" d="M792.32,5.89h0l-.17-.3.17.3Z"/>
          <path id="_パス_1582" data-name=" パス 1582" class="cls-2" d="M792.33,6.89c-.06,0-.12-.05-.12-.12h0c0,.12,0,.06.17.23.11,0-.12-.18,0-.12h-.05Z"/>
          <path id="_パス_1583" data-name=" パス 1583" class="cls-2" d="M785.57,12.83l-.12.06h.12v-.06Z"/>
          <path id="_パス_1584" data-name=" パス 1584" class="cls-2" d="M785.73,13.07l-.17-.12.17.12Z"/>
          <path id="_パス_1586" data-name=" パス 1586" class="cls-2" d="M790.2,9.42h0l-.17-.12.17.12Z"/>
          <path id="_パス_1588" data-name=" パス 1588" class="cls-2" d="M799.89,35.43l.11-.12s-.11.18-.11.12Z"/>
          <path id="_パス_1589" data-name=" パス 1589" class="cls-2" d="M799.54,35.61l.06-.06-.12.12.06-.06h0Z"/>
          <path id="_パス_1590" data-name=" パス 1590" class="cls-2" d="M799.55,35.49s-.17.12-.12,0c-.11.23.06,0,0,.06h0l.12-.12h0v.06Z"/>
          <path id="_パス_1593" data-name=" パス 1593" class="cls-2" d="M799.6,34.9c-.04.06-.08.11-.12.18h.06v-.18h.06Z"/>
          <path id="_パス_1596" data-name=" パス 1596" class="cls-2" d="M799.43,35.31s.11-.18.06-.12c0,.05-.02.09-.06.12Z"/>
          <path id="_パス_1598" data-name=" パス 1598" class="cls-2" d="M799.43,35.02v-.12c-.03.06-.07.12-.12.18h0l.12-.06Z"/>
          <path id="_パス_1600" data-name=" パス 1600" class="cls-2" d="M799.26,35.43l.17-.18-.17.18Z"/>
          <path id="_パス_1601" data-name=" パス 1601" class="cls-2" d="M799.37,34.84l.11-.12-.11.12Z"/>
          <path id="_パス_1602" data-name=" パス 1602" class="cls-2" d="M799.31,34.79s.06-.18.12-.18l-.12.12v.06Z"/>
          <path id="_パス_1607" data-name=" パス 1607" class="cls-2" d="M799.14,35.49c.03-.09.09-.18.17-.23,0,.06-.11.12-.17.23Z"/>
          <path id="_パス_1608" data-name=" パス 1608" class="cls-2" d="M799.2,35.26s.03-.08.06-.12h-.06v.12Z"/>
          <path id="_パス_1616" data-name=" パス 1616" class="cls-2" d="M798.75,35.37v-.12c-.06.18-.17.18-.29.41h0c.06-.12.17-.23.12-.06.15-.22.28-.46.4-.7,0,.08-.05.14-.12.18,0,.11-.04.22-.12.3h0Z"/>
          <path id="_パス_1617" data-name=" パス 1617" class="cls-2" d="M799.03,34.96h0l.06-.12-.12.12h.06Z"/>
          <path id="_パス_1618" data-name=" パス 1618" class="cls-2" d="M799.03,35.2c0-.06.02-.12.06-.18h0v-.12h-.06c-.06.12-.11.18-.17.3,0,0,.06-.12.12-.12h0l.05.12Z"/>
          <path id="_パス_1619" data-name=" パス 1619" class="cls-2" d="M799.14,35.37c-.06.1-.12.19-.17.3h-.06c.05-.06.08-.12.12-.19h0c.03-.08.06-.16.11-.23h0v.12Z"/>
          <path id="_パス_1620" data-name=" パス 1620" class="cls-2" d="M798.92,35.43v.12h0c0-.06.02-.12.06-.18h-.06v.06Z"/>
          <path id="_パス_1621" data-name=" パス 1621" class="cls-2" d="M799.03,34.9l.11-.18-.17.18h.06Z"/>
          <path id="_パス_1622" data-name=" パス 1622" class="cls-2" d="M798.97,34.85h0l.06-.06-.06.06Z"/>
          <path id="_パス_1624" data-name=" パス 1624" class="cls-2" d="M797.77,34.26s.12-.3,0-.18v.12h0v.06Z"/>
          <path id="_パス_1627" data-name=" パス 1627" class="cls-2" d="M798.46,34.67v-.12s-.06.18,0,.12Z"/>
          <path id="_パス_1635" data-name=" パス 1635" class="cls-2" d="M796.73,35.56l.11-.12.17-.35-.29.47h0Z"/>
          <path id="_パス_1636" data-name=" パス 1636" class="cls-2" d="M798.51,35.26s.17-.18.17-.12l-.12.18v-.06s-.11.3.06,0v-.12c.07-.06.15-.12.23-.18.11-.18,0,0,.06-.18-.11.3-.06,0-.17.23.12-.23,0-.12.12-.35,0,.06,0,.12-.06.06h0v.18c-.08.06-.16.12-.23.18,0-.05.02-.09.06-.12v.12c0-.1.02-.2.06-.3h0v-.11h-.06s-.23.18-.11-.06h-.06v-.12h0c.17-.3-.06-.12-.06-.18v.18h-.23v.12l-.11-.12h0c.11-.35-.23.18-.17-.06h0v-.11h0s0,.06-.11.18h-.06s-.06.12,0-.12c-.06.12-.11,0-.23.3h0c0-.1.02-.2.06-.3l-.23.23v-.13h0c.06-.23-.17-.12-.11-.35-.17.35,0-.18-.11.12,0-.06,0-.12.11-.18-.06.06,0-.18-.11,0,0-.06.06-.12.11-.18h0s.03-.08.06-.12c-.11.15-.2.31-.29.47,0-.08-.02-.08-.06,0-.06.12,0-.18.11-.18,0,0,0-.18-.11,0h-.06s0,.06-.12.12h0s-.06,0,0-.18v.18c-.23.3,0-.23-.11-.12v.12s.11-.47.11-.53v-.06c0-.23-.11.18-.17.23,0-.12.12-.23.12-.3,0-.12-.23.3-.17.12.01.1-.03.19-.12.23,0,0,0-.35-.06-.12h0s-.11,0-.17.18c.17-.53-.23.18,0-.3h0c-.07,0-.14.05-.17.12v-.11c0-.08-.06-.04-.17.12v-.18s0-.3-.06-.12h0s0-.53-.23,0l-.11.12c-.05.11-.09.23-.11.35v-.23h0v-.3c-.11,0-.17-.23-.29-.3v.23h-.11s0-.23.06-.18c0-.12-.06.12-.11.18.02-.11.05-.21.11-.3h0s-.06.23-.11.23v-.2h0v.12s-.06,0-.12.18c.06-.35-.17-.18-.11-.3-.06.12-.11.12-.11.12,0,0,0,.23-.06.23.11-.41,0-.18,0-.53,0,.23-.12,0-.17.35v-.3c-.11.18-.11-.12-.23-.12,0,.08-.02.16-.06.23v-.3s-.06.35,0,.12v.12c-.11-.3-.4.18-.46-.41v.12s-.11,0-.11.23h0s-.06.53-.11.82c.06-.3,0,.41.11,0v.2c0-.12,0-.18.06-.12h0c.03.09.09.18.17.23v-.06c.06-.23,0,0,0-.3,0,.3.11,0,.06.41,0,0,0-.18.06-.18h0v.23h.06c.12,0,.23-.07.29-.18h.11l.06-.06c0,.08-.01.17-.06.23.12-.12.06-.12.17-.35v.13s0-.18.06-.18c.02.11-.02.23-.11.3,0,.3.17-.23.11.18.11-.3,0-.18,0-.23,0-.12.11-.23.11-.18,0,0-.11.41,0,.41h0c.06-.18,0,0,.11-.23h-.06s.17-.3.17-.12c0,.06-.02.12-.06.18h0c-.06.23-.06,0-.17.23,0,.12.11-.18,0,.12.11-.35,0,0,.17-.18v.18h0v.12s-.06.18,0,.06c0-.1.02-.2.06-.3.12-.18-.11.41,0,.35h0s0-.18.12-.23c0,.18,0-.06.11-.12v.18s.06-.3.06-.18l-.11.18h0v.12h0c.02-.11.05-.21.11-.3,0,.12-.06.12,0,.12,0,.12-.11.23-.06.06v.12h0l.12-.18s0,.12-.06.12v-.12c0,.1-.02.2-.06.3l.11-.12v.18s.17-.23.17-.12h0s0,.12.11,0v.23s0-.3.11-.35c.06,0-.06.18-.06.23.06-.12.17-.3.17-.12h0v.12c-.08.08-.14.19-.17.3.17-.41.11,0,.29-.41v.12h0s.17-.3.17-.18v.06h.11s.11-.06.11-.12v.18c-.17.41.06-.12,0,.18h0c0,.12-.02.24-.06.35.03-.16.09-.32.17-.47h0c-.06.18,0,.12,0,.12v-.07c0,.11-.04.21-.11.3.02-.1.06-.21.11-.3,0,.12,0,0,.17-.06,0,.06-.06.12-.06.18l.12-.18h0s.11-.12.11-.18c.11-.23-.11.35,0,.12-.03.06-.07.12-.11.18.09-.09.17-.19.23-.3v.12c.06-.16.14-.32.23-.47v-.21h.17l-.12.12h0l-.11.23v-.12l-.17.35h0l-.11.18h0s.34-.41.4-.47c-.09.15-.16.31-.23.47.06-.18-.11.06-.11,0,0,0,0,.12-.06.12l.17-.18c0,.06-.02.12-.06.18.11-.3.11-.18.23-.3,0,.08-.05.14-.12.18-.06.23.23-.35.17-.12h0s.06,0,0,.12h0s.12.06.29-.18l-.17.35.51-.82c-.13.31-.29.6-.46.89h0s.11-.35.17-.35c-.11.23,0,.12-.11.35,0,0,.17-.41.23-.35l-.17.35.23-.3c-.08.13-.14.26-.17.41,0-.06,0,0,.06,0h0s.29-.53.34-.47c0,.06-.23.41-.23.47.12-.18.46-.82.58-.94h0s-.46.76-.58.94v.12c0,.06-.05.12-.11.12h0v.12c.11-.11.2-.23.29-.35l-.17.18s.34-.53.34-.47c-.06.15-.13.29-.23.41,0-.06.12-.12.12-.06v.12h0s-.12.3,0,.18c.11-.23.46-.94.58-1.11-.03.12-.07.23-.12.35-.09.21-.2.41-.34.59,0,0,.06-.12.12-.12,0,0-.12.18-.06.18l.12-.18h0c.1-.17.21-.32.34-.47v.18s-.06.12,0,.18c0,.08-.05.14-.12.18v.12c.06-.12.12-.12.17-.18.11-.18,0,0-.06,0,.1-.22.24-.42.4-.59.06,0-.06.18,0,.12,0,.06.29-.41.29-.18-.06.14-.14.28-.23.41-.06,0,0-.12,0-.12h0s-.06.18-.06.12c-.06.18.11.12.06.23.03-.06.07-.12.11-.18h0c.07-.07.12-.15.17-.23h0l-.66.37h.02Z"/>
          <path id="_パス_1642" data-name=" パス 1642" class="cls-2" d="M798.74,34.79s.12-.18.06-.12c.12-.1-.16.18-.06.12Z"/>
          <path id="_パス_1643" data-name=" パス 1643" class="cls-2" d="M798.52,35.56v.06l.06-.18-.06.12Z"/>
          <path id="_パス_1646" data-name=" パス 1646" class="cls-2" d="M798.17,35.27v.06l.06-.12h0l-.06.06h0Z"/>
          <path id="_パス_1648" data-name=" パス 1648" class="cls-2" d="M797.89,35.85s.04-.08.06-.12c0,0-.12.12-.06.12Z"/>
          <path id="_パス_1649" data-name=" パス 1649" class="cls-2" d="M797.66,35.25h0l.17-.3-.17.3Z"/>
          <path id="_パス_1650" data-name=" パス 1650" class="cls-2" d="M797.02,35.72v-.12l-.12.23c0,.12.12-.18.06-.06h0l.06-.06h0Z"/>
          <path id="_パス_1651" data-name=" パス 1651" class="cls-2" d="M793.24,32.79l-.06-.12v.12h.06Z"/>
          <path id="_パス_1654" data-name=" パス 1654" class="cls-2" d="M795.42,35.26l.06-.18-.12.18h.06Z"/>
          <path id="_パス_1658" data-name=" パス 1658" class="cls-2" d="M774.22,53.1v.06h.12s-.17,0-.12-.06Z"/>
          <path id="_パス_1703" data-name=" パス 1703" class="cls-2" d="M773.52,52.38h.51c.11,0,.29,0,.17.06h.51c-.29,0,0-.06-.29,0h.24s.11-.06,0-.06h0s-.23-.12,0-.18h.11s.11,0,0-.06c.34,0,.06-.06.11-.12h-.17l-.12-.06h-.17c.06,0,.11-.05.12-.12h0c.34,0-.23-.06,0-.12h-.4c.29,0,0-.12.29-.18h.12c-.12,0,.17,0-.12-.06h-.11s.11-.06-.12-.06h-.14s-.11,0,.11-.06h-.17c-.34,0,.23,0,.06-.06h-.11c.17,0,.35-.02.51-.06h.12s-.4-.06-.17-.12h-.23s.34-.06,0-.06h-.23c.58-.06-.29-.06.23-.12h0c-.06-.06-.14-.1-.23-.12h.11c.11,0,.06-.06-.17-.06h.17s.29-.12.06-.12h.06c-.23,0,.46-.18-.17-.12h-.51s.17-.06.23,0h0c.34,0,.11-.06.34-.06,0-.06.17-.18.11-.3h-.39c.34-.06.11-.18.23-.18h-.34c.46,0,.17-.06.51-.12-.23,0-.06-.06-.34,0h.29c-.17,0,.11-.12,0-.18h.06s-.34,0-.12-.12h-.17s-.29-.18.23-.35h-.35l.23-.12h-.23l-.87.18c.29,0-.4.12,0,.12h-.06l-.17.18h0l.29-.06c-.34.06,0,.12-.34.18h.06s0,.12.17.12h.06s-.06,0,0,.06h0c-.29.06.29,0-.12.12.34,0,.17-.06.29-.06h.23s-.46.06-.46.12h-.17s-.17.12,0,.12c.1,0,.2-.02.29-.06.23,0-.4.06-.34.12h.17s.12,0,0,.06h0c-.07.03-.15.05-.23.06-.06,0,.29,0,.17.06h.06s-.17.06,0,.06h-.43c.46,0,0,.06.51,0h.29s0,.06-.11.06h-.11c-.46,0,.11,0-.17.06h-.06c-.12,0-.23.02-.34.06.17-.04.34-.04.51,0h-.06l.17.06h.23c.23,0-.34.06-.06.06h-.34s.63.12.74.12h-.51c.23,0-.12,0,0-.06h.06c-.08,0-.16.02-.23.06h.23s0,.12.29.12h.58s-.87.06-.97.06h-.4c.13.03.26.05.4.06h1.08c-.14,0-.27.02-.4.06h-.12s-.11.06-.11.12h.46s.51,0,.29.12h-.44c-.17,0,0,.12-.17.12h0l-.09.83h-.03Z"/>
          <path id="_パス_1710" data-name=" パス 1710" class="cls-2" d="M773.7,52.56l.17-.06h-.17v.06Z"/>
          <path id="_パス_1724" data-name=" パス 1724" class="cls-2" d="M749,36.14l.06.06-.06-.12v.06Z"/>
          <path id="_パス_1725" data-name=" パス 1725" class="cls-2" d="M749.12,36.09h0v.12s.06-.18.11-.12c-.11-.23,0,0-.11,0Z"/>
          <path id="_パス_1733" data-name=" パス 1733" class="cls-2" d="M749.63,36.44l.06.12c0-.06-.02-.12-.06-.18h0v.06Z"/>
          <path id="_パス_1735" data-name=" パス 1735" class="cls-2" d="M749.8,36.56v.12l-.06-.18.06.06Z"/>
          <path id="_パス_1736" data-name=" パス 1736" class="cls-2" d="M749.86,36.5c.02.08.04.16.06.23v-.18h-.06v-.06Z"/>
          <path id="_パス_1738" data-name=" パス 1738" class="cls-2" d="M749.63,36.32s0,.12.06.12v-.12h-.06Z"/>
          <path id="_パス_1741" data-name=" パス 1741" class="cls-2" d="M749.4,35.91c.03.1.05.2.06.3,0-.1-.02-.2-.06-.3Z"/>
          <path id="_パス_1743" data-name=" パス 1743" class="cls-2" d="M749.8,36.31v-.06h-.06v.06h.06Z"/>
          <path id="_パス_1750" data-name=" パス 1750" class="cls-2" d="M749.8,35.73l.06.12c-.06-.18,0-.23-.12-.47v.12c.06.25.15.49.29.7v-.18c-.06-.06-.1-.15-.11-.23h0l-.12-.06Z"/>
          <path id="_パス_1751" data-name=" パス 1751" class="cls-2" d="M749.92,36.21h0s0,.06.12.18v-.18h-.12Z"/>
          <path id="_パス_1752" data-name=" パス 1752" class="cls-2" d="M749.86,36.21c0-.13-.04-.25-.12-.35v.18s.03.08.06.12h0v.12h0l.06-.06Z"/>
          <path id="_パス_1753" data-name=" パス 1753" class="cls-2" d="M749.4,35.8c.05.07.09.15.11.23,0-.13-.05-.25-.11-.35h0v.18h0v-.06Z"/>
          <path id="_パス_1755" data-name=" パス 1755" class="cls-2" d="M749.98,36.26l.06.12-.06-.18v.06Z"/>
          <path id="_パス_1756" data-name=" パス 1756" class="cls-2" d="M750.03,36.21l.06.12v-.06l-.06-.06Z"/>
          <path id="_パス_1758" data-name=" パス 1758" class="cls-2" d="M751.47,35.72s.17.3.11.12v-.12h-.11Z"/>
          <path id="_パス_1761" data-name=" パス 1761" class="cls-2" d="M750.61,35.97s.02.06.06.06c0-.06-.11-.18-.06-.06Z"/>
          <path id="_パス_1769" data-name=" パス 1769" class="cls-2" d="M751.24,34.08v.12l.17.41-.17-.53Z"/>
          <path id="_パス_1770" data-name=" パス 1770" class="cls-2" d="M756.01,33.62s-.23-.53-.34-.82c.06.3-.23-.35-.12,0v-.07h0c-.1-.04-.19-.07-.29-.12h0c.06.23.06,0,.11.23-.11-.3-.17,0-.29-.3,0,0,.06.18,0,.18h0s-.11-.12-.11-.18h-.06c-.14.03-.23.15-.23.3h0s-.06,0-.11.12h0v.12c-.05-.07-.09-.15-.12-.23,0,.14.02.28.06.41v.12c0-.12-.11-.18-.11-.3-.17-.23,0,.3-.17-.06.11.35.11.18.11.23,0,.12.06.23,0,.23,0,0-.17-.41-.23-.35h0s0,.12-.06,0c.06.18,0,0,0,.23h0s.06.3,0,.18v-.17h0c-.11-.23,0-.06,0-.3,0-.12,0,.18-.06-.06.11.35-.06,0,0,.23h0l-.11-.18s-.11-.12-.11,0c.06,0,.11.18.17.3,0,.23-.17-.35-.23-.23l.11.12-.11-.12c.02.08.04.16.06.23-.11-.18,0,.06,0,.18v-.18h-.06v-.11s-.06.12-.11.06c0,.12.11.3.06.3,0-.06,0-.12-.06-.12,0-.12-.06-.23,0-.06v-.13h-.11v.18c-.05-.09-.09-.19-.11-.3v.18s-.12-.12-.12-.18c-.06-.06,0,.3-.06.18h0s-.17-.06-.11.12l-.11-.23s.17.23.11.35c0,.06-.11-.18-.11-.23,0,.12.06.35,0,.18h0v-.11c-.04-.11-.09-.21-.17-.3.17.41-.11.12.06.53h-.06v-.11s.12.3,0,.3c-.03-.03-.05-.07-.06-.12v.12h-.06v.18s-.06-.23,0-.23c-.23-.41,0,.12-.17-.12h0c-.11-.3-.11-.18-.23-.35,0,.06.23.35.23.47h0c-.06-.18-.06-.12-.06-.12v.06c-.06-.1-.12-.19-.17-.3.05.09.09.19.12.3-.06-.06-.06,0,0,.18,0-.06,0-.13-.05-.18v.18h0c.02.06.04.12.06.18.06.23-.17-.3-.12,0,0-.06-.02-.12-.06-.18v.35l-.11-.12s.11.35.17.47l.12.18v.12c0-.06-.02-.12-.06-.18h0l-.12-.23v.12c0-.12-.02-.24-.06-.35h0l-.12-.18h0v.71c0-.18-.12-.3-.17-.47.11.18,0-.12.06-.06l-.06-.12v.23c0-.08-.05-.15-.12-.18.11.3,0,.23,0,.35,0-.12-.06-.23,0-.18-.11-.23.11.41,0,.18h0c0,.12,0,0-.06,0h0s-.17,0-.06.3l-.12-.35.23.94c-.14-.29-.25-.58-.34-.89h0c.07.11.12.23.17.35l-.17-.35s.17.41.11.41c-.05-.14-.1-.28-.17-.41l.11.35s-.11-.3-.17-.41h0s.11.59.06.59c0-.06-.17-.47-.23-.47,0,.18.29.89.29,1.06h0s-.29-.89-.34-1.11c0-.06,0-.12-.06-.12v-.18h-.12c0,.13.04.25.12.35v-.23s.17.59.11.59c-.04-.16-.1-.32-.17-.47h0s0,.3-.06.12c0,0-.11-.23-.11-.12.11.23.4,1,.46,1.19,0,0-.17-.23-.23-.3-.12-.18-.12-.47-.23-.59v.18s-.06-.18-.06-.12c.06.23-.06,0,0,.18,0,.06,0,0-.06,0,.06.12.17.47.11.53,0-.06-.02-.12-.06-.18-.06,0-.11-.12-.17-.06-.03-.06-.07-.12-.12-.18v.12l-.06-.23v.3c.06.18.06,0,.06-.06.1.22.16.46.17.7,0,.06-.06-.18-.06-.12-.12,0,.11.47,0,.3-.07-.15-.13-.31-.17-.47,0-.06.12.12.12.06h-.06v-.13c-.06-.12-.17,0-.29-.12v.18h0s0,.18.06.23h0c0,.12-.17-.23-.06,0v.12s.11.3.06.3c.06.18,0,0,.11.18-.11-.3.11,0,0-.3.05.11.1.2.17.3v-.12h0v-.41c.05.09.09.19.12.3h0s.11.12.11,0h0v-.13h0s0-.23.17,0v.06s.17.12.12,0c.17.3.11,0,.23.06v-.41s.08.04.11,0h0c.17.3,0-.3.17-.06h.12l-.06-.12v-.12s0-.12.11.18c0-.14-.02-.28-.06-.41h0v-.06c.07.11.13.23.17.35v-.23s0-.18.06-.06c.11.23.17,0,.34.18-.17-.35.11.12,0-.12,0,.06.06.12.11.23,0-.12.11.12.06-.12,0,.06.02.13.06.18h0v.12c-.03-.18-.09-.36-.17-.53.06.12.06.06,0-.06,0,.06.11.18.06.18,0,0,.17.06.06-.12h.06v-.12h0s0-.06.17.12v-.12c-.17-.3.06.18.06,0h0s.23.35.29.35v.06c.11.18-.06-.18,0-.23.02.11.05.21.11.3,0,.06-.06-.35.06-.18-.01-.09-.05-.17-.11-.23,0,0,.23.3.11,0h0v-.25c.23.53,0-.3.23.18h.06v-.12c.11.06.11,0,.06-.23v.18s.29.18.23,0h0s.34.41.12-.12v-.18l-.17-.35s.11.12.11.18h0s.11,0,.17.23c.11-.06.29,0,.4,0l-.11-.23h0s.06.18,0,.18c.06.12,0-.12,0-.18.11.06.06.3.11.3h0v-.25l.06.12h.06l-.11-.18v-.18c.17.3.23,0,.29.12v-.18s-.11-.23-.06-.23c.17.41.11.18.29.47-.11-.18.06-.06-.06-.35.03.08.06.16.11.23,0-.18.17,0,.23,0-.04-.07-.06-.15-.06-.23l.17.23s-.12-.3,0-.12v-.12s.17-.35.51.12c-.06-.12,0-.12,0-.12h0s.11,0,.06-.23h0l.16-.3h.02Z"/>
          <path id="_パス_1774" data-name=" パス 1774" class="cls-2" d="M749.98,35.78s0-.06-.06,0h.06Z"/>
          <path id="_パス_1777" data-name=" パス 1777" class="cls-2" d="M749.86,35.43v-.06l.06.18-.06-.12Z"/>
          <path id="_パス_1783" data-name=" パス 1783" class="cls-2" d="M750.72,35.02h0l.11.3-.11-.3Z"/>
          <path id="_パス_1784" data-name=" パス 1784" class="cls-2" d="M750.84,34.2s.03.08.06.12c0-.06,0,0-.06-.23-.05-.06.06.16,0,.12Z"/>
          <path id="_パス_1785" data-name=" パス 1785" class="cls-2" d="M756.11,33.96l.06.06-.06-.06Z"/>
          <path id="_パス_1788" data-name=" パス 1788" class="cls-2" d="M752.55,33.32h0l.12.18-.12-.18Z"/>
        </g>
      </g>
      <g>
        <path class="cls-3" d="M27.07,228.57c-2.88-2.34-6.74-4.79-10.22-6.15.08,1.77-.38,3.69-.91,4.67-.49,1.96-2.5,3.51-6.7,3.51C4.16,230.61.08,228.08,0,224.08c-.04-4.18,4.2-6.48,8.97-6.52,1.1,0,2.73.08,3.9.26-.04-.79-.15-1.51-.23-2.19-.3-4.98-.72-13.38-.72-18.28l5.07.26c0,.38-.3.72-.98.87l.04,6.75c2.39-.08,7.76-.49,11.96-1.28l.38,3.77c-3.86.6-9.12,1.02-12.3,1.05,0,2.71.23,5.09.38,7.24.08.75.19,1.62.23,2.45,4.58,1.43,9.16,3.92,12.83,6.6l-2.46,3.51ZM8.86,220.65c-3.22.04-5.49,1.39-5.45,3.32.04,2.26,2.65,3.35,5.49,3.35,2.42,0,4.16-1.09,4.16-3.13,0-1.09,0-2.15-.08-3.02-1.36-.41-2.88-.53-4.13-.53Z"/>
        <path class="cls-3" d="M50.3,218.73c-.72-2.34-1.02-5.5-1.02-7.65,0-3.17.34-7.28,1.17-11.95l4.88.72c-.11.49-.57.6-1.02.68-.72,2.98-1.32,7.69-1.32,10.48,0,.53.04.98.08,1.32.76-1.73,2.08-4.11,2.91-5.47.42.68,1.32,1.85,1.82,2.37-2.2,3.47-3.86,6.3-3.86,7.88,0,.3.04.64.11,1.02l-3.75.6ZM71.39,198.15c-.04.45-.34.72-.98.87.3,3.13.64,8.37.64,12.93,0,7.31-2.5,14.02-14.23,18.85-.57-.79-1.89-2.3-2.69-3.02,10.37-3.96,12.83-10.1,12.83-15.76,0-4.94-.49-10.33-.91-14.1l5.34.23Z"/>
        <path class="cls-3" d="M117.91,228.57c-2.88-2.34-6.74-4.79-10.22-6.15.08,1.77-.38,3.69-.91,4.67-.49,1.96-2.5,3.51-6.7,3.51-5.07,0-9.16-2.53-9.24-6.52-.04-4.18,4.2-6.48,8.97-6.52,1.1,0,2.73.08,3.9.26-.04-.79-.15-1.51-.23-2.19-.3-4.98-.72-13.38-.72-18.28l5.07.26c0,.38-.3.72-.98.87l.04,6.75c2.39-.08,7.76-.49,11.96-1.28l.38,3.77c-3.86.6-9.12,1.02-12.3,1.05,0,2.71.23,5.09.38,7.24.08.75.19,1.62.23,2.45,4.58,1.43,9.16,3.92,12.83,6.6l-2.46,3.51ZM99.7,220.65c-3.22.04-5.49,1.39-5.45,3.32.04,2.26,2.65,3.35,5.49,3.35,2.42,0,4.16-1.09,4.16-3.13,0-1.09,0-2.15-.08-3.02-1.36-.41-2.88-.53-4.13-.53Z"/>
        <path class="cls-3" d="M157.04,231.36c-3.48-4.07-9.31-9.46-14.65-13.65-2.12-1.66-2.73-2.71-2.73-4.3,0-1.17.53-2.26,1.89-3.54,3.63-3.35,10.26-9.76,13.51-13.16l4.35,2.83c-.19.23-.49.41-.95.41-.15,0-.27,0-.42-.04-3.63,3.39-9.24,8.29-12.34,11.16-.91.87-1.7,1.58-1.7,2.15,0,.64.83,1.4,2.19,2.37,4.81,3.54,10.07,8.18,14.61,12.89l-3.78,2.87Z"/>
        <path class="cls-3" d="M198.44,227.02h15.33v3.47h-34.3v-3.47h15.26v-8.78h-10.98v-3.47h10.98v-7.65h-8.63c-1.25,2.53-2.65,4.83-4.16,6.6-.72-.64-2.16-1.66-3.06-2.19,2.99-3.28,5.56-9.05,7.04-14.66l4.47,1.24c-.11.3-.42.45-.95.45-.49,1.7-1.1,3.43-1.78,5.09h7.08v-7.31l4.62.3c-.04.3-.3.53-.91.64v6.37h13.55v3.47h-13.55v7.65h12.04v3.47h-12.04v8.78Z"/>
        <path class="cls-3" d="M257.08,210.66c-3.03,1.02-7.08,1.73-10.98,2.15,1.17,1.89,3.33,4.3,5.87,5.28l-2.05,2.98c-2.16-1.13-3.14-1.66-6.32-1.66-.6,0-1.25.04-1.82.11l-.83-2.83c.42-.04.87-.04,1.36-.04.87,0,1.82.04,2.46.11-.83-.87-1.85-2.19-2.5-3.54-2.73.19-5.75.3-8.1.3-2.05,0-4.96,0-7.34-.08l-.04-3.17c2.16.08,5.11.08,7.27.08s4.85-.08,7.12-.23c-.34-1.06-.91-2.86-1.25-4.3-1.21.11-3.33.19-7.23.19-1.25,0-2.46-.04-3.52-.08v-3.24c1.59.08,3.26.11,4.69.11,1.82,0,4.01,0,5.45-.11-.34-1.66-.68-3.69-.95-5.65l5.03.11c0,.42-.38.72-1.02.87.15,1.39.34,2.98.61,4.37,3.33-.3,7.19-1.06,9.84-2.04l.8,3.24c-2.88.94-6.47,1.58-9.96,1.92.38,1.62.8,3.24,1.17,4.3,4.01-.45,8.25-1.28,11.51-2.45l.72,3.28ZM241.74,230.38c-6.28-.08-10.98-2.15-10.98-6.45,0-2.45,2.08-4.75,4.28-6.03l2.46,2.34c-1.85.98-2.88,2.34-2.92,3.54-.04,2.26,2.88,3.24,7.12,3.28,2.76,0,6.28-.15,8.78-.38l-.15,3.47c-1.7.11-3.98.23-7.12.23h-1.48Z"/>
        <path class="cls-3" d="M284.06,212.51c2.31-1.09,5.72-1.73,8.29-1.73,5.87,0,9.77,3.47,9.77,9.2,0,6.82-5.98,10.67-13.9,10.67-4.92,0-8.33-2.11-8.33-5.69,0-2.9,2.95-5.28,6.47-5.28,4.13,0,7.04,3.02,7.65,6.33,2.46-.98,4.16-3.09,4.16-5.96,0-3.66-2.84-5.99-7.12-5.99-5.41,0-10.56,2.34-13.17,4.83-.99.94-2.5,2.49-3.48,3.58l-2.69-2.64c2.99-3.09,13.17-12.74,18.29-17.45-2.01.26-9.09.6-12.72.75-.08.26-.49.53-.83.6l-.38-4.34c5,0,15.22-.38,17.83-.79l.57-.3,2.61,3.17c-.26.23-.64.34-1.06.41-2.31,1.77-8.9,7.84-11.96,10.59v.04ZM287.65,227.36c.83,0,2.08-.15,2.84-.3-.34-2.45-2.19-4.37-4.47-4.37-1.59,0-3.03.87-3.03,2.26,0,1.92,2.61,2.41,4.66,2.41Z"/>
        <path class="cls-3" d="M365.85,219.22c-.08.38-.42.45-.8.41-.45,3.17-1.25,6.79-2.39,9.01-.64-.41-1.82-.94-2.57-1.24,1.02-2.11,1.74-5.69,2.16-9.01l3.6.83ZM391.36,199.88l2.42,1.28c-.11.19-.3.38-.57.45-1.36,3.58-3.33,6.71-5.68,9.39,2.61,2.3,5.72,4.11,9.05,5.24-.76.68-1.78,2-2.31,2.86-3.33-1.32-6.36-3.32-9.01-5.77-2.84,2.64-6.09,4.71-9.5,6.18-.3-.6-.98-1.55-1.59-2.22l-1.06.49c-.15-.6-.38-1.32-.68-2.07l-2.73.19v15.79h-3.18v-15.61c-1.89.08-3.6.19-4.96.23-.08.34-.38.49-.64.53l-.76-3.69,2.65-.04c.72-.87,1.48-1.89,2.2-2.94-1.13-1.7-2.95-3.81-4.62-5.35l1.78-2.37c.34.3.68.6,1.02.94,1.17-2.19,2.46-4.94,3.18-7.01l3.63,1.51c-.15.23-.45.34-.91.34-.95,2.11-2.57,5.05-3.98,7.16.68.72,1.25,1.39,1.74,2.07,1.48-2.3,2.84-4.67,3.86-6.67l3.52,1.62c-.19.23-.49.34-.99.34-1.82,3.05-4.62,7.16-7.19,10.33l5.15-.11c-.57-1.13-1.17-2.26-1.78-3.28l2.61-1.09c1.44,2.22,2.91,5.05,3.63,7.16,2.61-1.24,5.11-2.86,7.27-4.79-1.17-1.4-2.27-2.86-3.22-4.45-1.02,1.36-2.19,2.68-3.52,3.92-.57-.75-1.74-1.85-2.54-2.3,3.9-3.43,6.44-8.07,7.8-11.76l4.17.6c-.12.34-.38.53-.87.57-.34.79-.68,1.62-1.1,2.45h7.12l.57-.11ZM373.27,218.24c1.06,2.34,2.12,5.35,2.54,7.35-.8.3-1.59.57-2.88,1.02-.34-2.04-1.36-5.13-2.35-7.5l2.69-.87ZM391.06,232c-3.33-2.07-9.5-4.71-14.58-6.14l2.12-2.53c5,1.39,11.13,3.92,14.58,5.84l-2.12,2.83ZM388.18,223.37c-1.74-1.4-5-3.32-7.65-4.41l2.08-2.26c2.65,1.09,5.91,2.86,7.68,4.18l-2.12,2.49ZM382.01,203.09l-.42.72c.95,1.73,2.16,3.39,3.56,4.94,1.51-1.7,2.84-3.58,3.82-5.65h-6.97Z"/>
        <path class="cls-3" d="M427.69,215.56c3.41,4.45,8.82,8.67,13.93,10.89-.87.75-2.08,2.19-2.69,3.17-4.81-2.49-9.81-6.75-13.44-11.5v13.49h-3.79v-13.12c-3.63,4.67-8.56,8.82-13.36,11.27-.6-.91-1.82-2.34-2.65-3.09,5.15-2.26,10.6-6.56,14.01-11.12h-10.9v-3.54h12.91v-5.92h-14.8v-3.54h14.8v-6.22l4.69.3c-.04.3-.3.53-.91.6v5.31h15.07v3.54h-15.07v5.92h13.17v3.54h-10.98Z"/>
        <path class="cls-3" d="M470.43,219.33v3.13h-19.12v-3.13h3.6v-15h-3.14v-3.13h3.14v-4.41l4.13.26c-.04.3-.3.49-.87.6v3.54h6.02v-4.41l4.17.26c-.04.3-.27.53-.83.6v3.54h2.73v3.13h-2.73v15h2.91ZM460.32,224.39c-.12.26-.38.38-.87.34-1.25,2.45-3.37,5.2-5.38,6.97-.64-.64-1.89-1.55-2.69-2.04,1.89-1.55,3.86-4.15,5-6.6l3.94,1.32ZM464.18,204.33h-6.02v2.98h6.02v-2.98ZM458.16,210.1v3.09h6.02v-3.09h-6.02ZM458.16,215.98v3.36h6.02v-3.36h-6.02ZM485.65,198.19v29.36c0,3.54-1.36,4.22-7.5,4.15-.11-.94-.61-2.49-1.06-3.43,1.1.08,2.23.08,3.1.08,1.78,0,1.97,0,1.97-.79v-8.67h-7.23c-.49,4.64-1.67,9.46-4.35,12.97-.57-.6-2.01-1.7-2.8-2.07l.3-.41-1.59.9c-.72-1.55-2.5-4-4.01-5.81l2.76-1.51c1.29,1.47,2.84,3.43,3.75,4.9,2.61-4.79,2.88-10.89,2.88-15.79v-13.87h13.78ZM475.27,212.06c0,1.13-.04,2.34-.08,3.58h6.97v-5.54h-6.89v1.96ZM482.16,201.43h-6.89v5.47h6.89v-5.47Z"/>
        <path class="cls-3" d="M530.04,206.07v3.58h-8.67c-.08.23-.38.41-.72.45-1.25,8.41-4.62,15.91-12.45,20.47-.83-.68-2.31-1.7-3.33-2.3,7.46-4.03,10.94-10.93,11.89-18.62h-9.39c-1.7,2.86-3.75,5.5-5.76,7.46-.83-.6-2.35-1.36-3.41-1.85,4.39-3.77,8.44-11.04,10.11-17.75l4.85,1.06c-.11.3-.49.57-1.06.57-.68,2-1.82,4.71-2.91,6.94h20.86Z"/>
        <path class="cls-3" d="M576.14,201.05c-.12.23-.38.38-.64.49-1.89,4.45-5.11,9.05-8.48,12.06-.76-.64-2.31-1.54-3.29-2.07,2.92-2.22,5.41-5.58,6.51-8.29h-25.74v-3.58h27.86l.49-.3,3.3,1.7ZM561.53,208.14c-.08.38-.42.64-.98.72-1.02,8.56-4.13,17.08-11.81,21.6-.8-.64-2.2-1.85-3.22-2.41,7.42-4,10.3-11.69,11.02-20.39l5,.49Z"/>
        <path class="cls-3" d="M622.55,219.67v3.05h-8.48v5.28c0,3.62-1.82,3.66-8.55,3.66-.19-.9-.68-2.22-1.14-3.13,1.4.08,2.8.08,3.86.08,2.23,0,2.31,0,2.31-.72v-5.16h-22.45v-3.05h22.45v-2.56h-18.36v-12.7h11.32v-2.19h-14.58v-3.02h14.58v-2.79l4.43.26c-.04.3-.27.53-.91.6v1.92h14.88v3.02h-14.88v2.19h11.85v12.7h-5.68v.04l1.74.04c-.04.3-.23.53-.87.6v1.88h8.48ZM596.46,222.73c2.12,1.47,4.69,3.62,5.91,5.16l-2.84,2.19c-1.13-1.58-3.63-3.88-5.75-5.43l2.69-1.92ZM595.55,206.93v2.64h7.95v-2.64h-7.95ZM595.55,211.95v2.64h7.95v-2.64h-7.95ZM615.35,206.93h-8.33v2.64h8.33v-2.64ZM615.35,214.58v-2.64h-8.33v2.64h8.33Z"/>
        <path class="cls-3" d="M649.03,198.04v14.32h-10.52v19.3h-3.56v-33.62h14.08ZM645.66,201.01h-7.16v2.75h7.16v-2.75ZM638.51,209.42h7.16v-3.02h-7.16v3.02ZM666.75,198.04v29.03c0,4.15-1.63,4.6-9.39,4.6-.15-1.02-.76-2.71-1.29-3.69,1.51.08,3.1.08,4.32.08,2.54,0,2.73,0,2.73-.98v-14.66h-10.9v-14.36h14.54ZM663.12,201.01h-7.46v2.75h7.46v-2.75ZM655.66,209.5h7.46v-3.09h-7.46v3.09Z"/>
        <path class="cls-3" d="M712.63,209.46h-7.46v2.07c0,7.58-2.46,14.66-12,19.07-.68-.79-1.82-1.92-2.76-2.64,9.16-4,10.98-10.22,10.98-16.36v-2.15h-10.98v8.93h-3.75v-8.93h-6.97v-3.62h6.97v-7.8l4.81.3c-.04.38-.38.75-1.06.87v6.63h10.98v-8.29l4.81.26c-.04.38-.34.68-1.02.79v7.24h7.46v3.62Z"/>
        <path class="cls-3" d="M756.53,200.49c-.19.19-.46.34-.83.34-.11,0-.23,0-.38-.04-2.91,2.9-6.81,6.15-10.45,8.78.34.15.8.34,1.02.41-.08.3-.42.57-.91.64v19.9h-3.98v-18.51c-3.71,2.56-8.82,5.47-13.44,7.73-.53-.87-1.51-2.19-2.27-2.9,10.11-4.56,21.43-12.48,27.37-19.22l3.86,2.86Z"/>
        <path class="cls-3" d="M797.63,218.13c-3.48-1.96-8.59-4.37-12.53-5.92v18.24h-3.98v-32.98l5.07.3c-.04.41-.38.72-1.1.87v10.78l.76-1.06c4.32,1.58,10.07,4.11,13.89,6.11l-2.12,3.66Z"/>
      </g>
    </g>
  </g>
</svg>